<?xml version="1.0" encoding="utf-8"?>
<svg xmlns="http://www.w3.org/2000/svg" version="1.1" x="0px" y="0px" xml:space="preserve" width="60.479" height="60.479" viewBox="2 -62.479 60.479 60.479">
	<g>
		<rect x="2" y="-62.479" style="fill:none;" width="60.479" height="60.479"/>
		<path style="fill-rule:evenodd;clip-rule:evenodd;fill:none;stroke:#EC008C;stroke-width:0.5;" d="M4.888-49.795    c0.428,0.537,1.052,0.752,1.394,0.479c0.342-0.272,0.562-1.11,0.134-1.649c-0.43-0.537-1.344-0.571-1.685-0.299    C4.389-50.99,4.459-50.333,4.888-49.795z"/>

			<ellipse transform="matrix(0.346 -0.9382 0.9382 0.346 74.0793 32.048)" style="fill-rule:evenodd;clip-rule:evenodd;fill:none;stroke:#EC008C;stroke-width:0.5;" cx="60.028" cy="-37.114" rx="1.12" ry="0.713"/>

			<ellipse transform="matrix(0.3458 -0.9383 0.9383 0.3458 49.6998 20.0506)" style="fill-rule:evenodd;clip-rule:evenodd;fill:none;stroke:#EC008C;stroke-width:0.5;" cx="39.229" cy="-25.615" rx="1.12" ry="0.713"/>
		<path style="fill-rule:evenodd;clip-rule:evenodd;fill:none;stroke:#EC008C;stroke-width:0.5;" d="M46.516-30.864    c0.518-0.143,0.299-0.785,0-1.4c-0.3-0.615-0.568-0.972-1.085-0.827c-0.517,0.145-0.693,0.761-0.394,1.376    C45.336-31.101,45.998-30.72,46.516-30.864z"/>

			<ellipse transform="matrix(0.5243 -0.8515 0.8515 0.5243 62.5028 -2.1655)" style="fill-rule:evenodd;clip-rule:evenodd;fill:none;stroke:#EC008C;stroke-width:0.5;" cx="29.313" cy="-57.023" rx="1.244" ry="0.793"/>

			<ellipse transform="matrix(0.5244 -0.8515 0.8515 0.5244 61.5973 28.2247)" style="fill-rule:evenodd;clip-rule:evenodd;fill:none;stroke:#EC008C;stroke-width:0.5;" cx="56.063" cy="-41.024" rx="1.245" ry="0.792"/>

			<ellipse transform="matrix(0.7943 -0.6075 0.6075 0.7943 27.1618 -2.6096)" style="fill-rule:evenodd;clip-rule:evenodd;fill:none;stroke:#EC008C;stroke-width:0.5;" cx="9.727" cy="-41.42" rx="1.244" ry="0.792"/>
		<path style="fill-rule:evenodd;clip-rule:evenodd;fill:none;stroke:#EC008C;stroke-width:0.5;" d="M11.181-53.398    c-0.373,0.228-0.783,0.764-0.425,1.35c0.357,0.586,0.952,0.877,1.324,0.65c0.373-0.229,0.459-1.113,0.1-1.7    C11.822-53.686,11.553-53.627,11.181-53.398z"/>

			<ellipse transform="matrix(0.3779 -0.9258 0.9258 0.3779 23.8047 -7.6022)" style="fill-rule:evenodd;clip-rule:evenodd;fill:none;stroke:#EC008C;stroke-width:0.5;" cx="6.245" cy="-21.516" rx="1.244" ry="0.793"/>

			<ellipse transform="matrix(0.6179 -0.7863 0.7863 0.6179 17.1588 6.1539)" style="fill-rule:evenodd;clip-rule:evenodd;fill:none;stroke:#EC008C;stroke-width:0.5;" cx="14.911" cy="-14.577" rx="1.245" ry="0.792"/>

			<ellipse transform="matrix(0.4871 -0.8733 0.8733 0.4871 44.1423 10.2637)" style="fill-rule:evenodd;clip-rule:evenodd;fill:none;stroke:#EC008C;stroke-width:0.5;" cx="30.81" cy="-32.451" rx="1.244" ry="0.792"/>

			<ellipse transform="matrix(0.4869 -0.8734 0.8734 0.4869 43.1657 -3.8871)" style="fill-rule:evenodd;clip-rule:evenodd;fill:none;stroke:#EC008C;stroke-width:0.5;" cx="18.274" cy="-38.686" rx="1.244" ry="0.792"/>

			<ellipse transform="matrix(0.0124 -0.9999 0.9999 0.0124 46.7959 35.3629)" style="fill-rule:evenodd;clip-rule:evenodd;fill:none;stroke:#EC008C;stroke-width:0.5;" cx="41.3" cy="-6.008" rx="1.244" ry="0.792"/>

			<ellipse transform="matrix(0.9506 -0.3103 0.3103 0.9506 14.3062 5.0269)" style="fill-rule:evenodd;clip-rule:evenodd;fill:none;stroke:#EC008C;stroke-width:0.5;" cx="22.951" cy="-42.447" rx="0.792" ry="1.245"/>
		<path style="fill-rule:evenodd;clip-rule:evenodd;fill:none;stroke:#EC008C;stroke-width:0.5;" d="M10.315-58.863    c-0.335-0.601-1.329-0.888-1.711-0.675c-0.383,0.213-0.422,0.872-0.087,1.473c0.334,0.601,0.916,0.914,1.298,0.702    C10.197-57.576,10.649-58.263,10.315-58.863z"/>

			<ellipse transform="matrix(0.99 -0.1408 0.1408 0.99 7.2037 3.4205)" style="fill-rule:evenodd;clip-rule:evenodd;fill:none;stroke:#EC008C;stroke-width:0.5;" cx="27.775" cy="-49.199" rx="0.713" ry="1.12"/>

			<ellipse transform="matrix(0.1973 -0.9804 0.9804 0.1973 100.7823 16.4881)" style="fill-rule:evenodd;clip-rule:evenodd;fill:none;stroke:#EC008C;stroke-width:0.5;" cx="60.459" cy="-53.297" rx="1.12" ry="0.713"/>

			<ellipse transform="matrix(0.0025 -1 1 0.0025 38.1596 10.6369)" style="fill-rule:evenodd;clip-rule:evenodd;fill:none;stroke:#EC008C;stroke-width:0.5;" cx="24.411" cy="-13.808" rx="1.244" ry="0.792"/>

			<ellipse transform="matrix(0.2528 -0.9675 0.9675 0.2528 42.9071 30.755)" style="fill-rule:evenodd;clip-rule:evenodd;fill:none;stroke:#EC008C;stroke-width:0.5;" cx="41.366" cy="-12.403" rx="1.244" ry="0.792"/>

			<ellipse transform="matrix(0.3352 -0.9421 0.9421 0.3352 30.0344 25.0935)" style="fill-rule:evenodd;clip-rule:evenodd;fill:none;stroke:#EC008C;stroke-width:0.5;" cx="32.799" cy="-8.736" rx="1.244" ry="0.792"/>

			<ellipse transform="matrix(0.906 -0.4232 0.4232 0.906 20.1561 -2.3865)" style="fill-rule:evenodd;clip-rule:evenodd;fill:none;stroke:#EC008C;stroke-width:0.5;" cx="4.704" cy="-46.58" rx="0.509" ry="0.713"/>

			<ellipse transform="matrix(0.1504 -0.9886 0.9886 0.1504 11.2699 4.7059)" style="fill-rule:evenodd;clip-rule:evenodd;fill:none;stroke:#EC008C;stroke-width:0.5;" cx="8.373" cy="-4.204" rx="0.712" ry="0.51"/>

			<ellipse style="fill-rule:evenodd;clip-rule:evenodd;fill:none;stroke:#EC008C;stroke-width:0.5;" cx="6.08" cy="-15.162" rx="0.509" ry="0.713"/>

			<ellipse style="fill-rule:evenodd;clip-rule:evenodd;fill:none;stroke:#EC008C;stroke-width:0.5;" cx="26.88" cy="-44.712" rx="0.509" ry="0.712"/>

			<ellipse style="fill-rule:evenodd;clip-rule:evenodd;fill:none;stroke:#EC008C;stroke-width:0.5;" cx="19.78" cy="-60.612" rx="0.509" ry="0.712"/>

			<ellipse style="fill-rule:evenodd;clip-rule:evenodd;fill:none;stroke:#EC008C;stroke-width:0.5;" cx="58.415" cy="-24.576" rx="0.509" ry="0.712"/>

			<ellipse style="fill-rule:evenodd;clip-rule:evenodd;fill:none;stroke:#EC008C;stroke-width:0.5;" cx="47.015" cy="-27.176" rx="0.508" ry="0.713"/>

			<ellipse style="fill-rule:evenodd;clip-rule:evenodd;fill:none;stroke:#EC008C;stroke-width:0.5;" cx="34.415" cy="-4.576" rx="0.509" ry="0.712"/>

			<ellipse style="fill-rule:evenodd;clip-rule:evenodd;fill:none;stroke:#EC008C;stroke-width:0.5;" cx="21.48" cy="-35.112" rx="0.508" ry="0.712"/>

			<ellipse style="fill-rule:evenodd;clip-rule:evenodd;fill:none;stroke:#EC008C;stroke-width:0.5;" cx="44.315" cy="-38.177" rx="0.509" ry="0.712"/>

			<ellipse transform="matrix(0.4814 -0.8765 0.8765 0.4814 53.6417 5.8179)" style="fill-rule:evenodd;clip-rule:evenodd;fill:none;stroke:#EC008C;stroke-width:0.5;" cx="31.738" cy="-42.424" rx="0.713" ry="0.509"/>

			<ellipse style="fill-rule:evenodd;clip-rule:evenodd;fill:none;stroke:#EC008C;stroke-width:0.5;" cx="40.115" cy="-33.777" rx="0.509" ry="0.713"/>

			<ellipse style="fill-rule:evenodd;clip-rule:evenodd;fill:none;stroke:#EC008C;stroke-width:0.5;" cx="39.23" cy="-57.612" rx="0.509" ry="0.712"/>

			<ellipse style="fill-rule:evenodd;clip-rule:evenodd;fill:none;stroke:#EC008C;stroke-width:0.5;" cx="11.856" cy="-24.464" rx="0.509" ry="0.712"/>

			<ellipse style="fill-rule:evenodd;clip-rule:evenodd;fill:none;stroke:#EC008C;stroke-width:0.5;" cx="27.68" cy="-28.711" rx="0.509" ry="0.713"/>

			<ellipse transform="matrix(0.1913 -0.9815 0.9815 0.1913 50.1408 35.0574)" style="fill-rule:evenodd;clip-rule:evenodd;fill:none;stroke:#EC008C;stroke-width:0.5;" cx="46.344" cy="-12.898" rx="0.712" ry="0.509"/>

			<ellipse style="fill-rule:evenodd;clip-rule:evenodd;fill:none;stroke:#EC008C;stroke-width:0.5;" cx="45.08" cy="-44.112" rx="0.508" ry="0.712"/>

			<ellipse style="fill-rule:evenodd;clip-rule:evenodd;fill:none;stroke:#EC008C;stroke-width:0.5;" cx="38.68" cy="-45.712" rx="0.509" ry="0.712"/>

			<ellipse transform="matrix(0.2075 -0.9782 0.9782 0.2075 73.6459 6.0433)" style="fill-rule:evenodd;clip-rule:evenodd;fill:none;stroke:#EC008C;stroke-width:0.5;" cx="40.553" cy="-42.431" rx="0.784" ry="0.56"/>

			<ellipse transform="matrix(0.3451 -0.9386 0.9386 0.3451 92.4773 18.6596)" style="fill-rule:evenodd;clip-rule:evenodd;fill:none;stroke:#EC008C;stroke-width:0.5;" cx="59.609" cy="-56.935" rx="0.784" ry="0.56"/>

			<ellipse transform="matrix(0.2077 -0.9782 0.9782 0.2077 75.4448 -10.3182)" style="fill-rule:evenodd;clip-rule:evenodd;fill:none;stroke:#EC008C;stroke-width:0.5;" cx="31.353" cy="-51.73" rx="0.784" ry="0.56"/>

			<ellipse transform="matrix(0.2074 -0.9783 0.9783 0.2074 61.3365 17.6391)" style="fill-rule:evenodd;clip-rule:evenodd;fill:none;stroke:#EC008C;stroke-width:0.5;" cx="41.553" cy="-29.031" rx="0.784" ry="0.559"/>
		<path style="fill-rule:evenodd;clip-rule:evenodd;fill:none;stroke:#EC008C;stroke-width:0.5;" d="M7.829-35.24    c0.419-0.065,0.659-0.477,0.534-0.916c-0.124-0.439-0.565-0.743-0.985-0.676c-0.421,0.066-0.66,0.477-0.536,0.916    C6.967-35.476,7.408-35.173,7.829-35.24z"/>

			<ellipse transform="matrix(0.4135 -0.9105 0.9105 0.4135 72.2363 9.0403)" style="fill-rule:evenodd;clip-rule:evenodd;fill:none;stroke:#EC008C;stroke-width:0.5;" cx="43.135" cy="-51.548" rx="0.712" ry="0.509"/>

			<ellipse style="fill-rule:evenodd;clip-rule:evenodd;fill:none;stroke:#EC008C;stroke-width:0.5;" cx="14.915" cy="-54.876" rx="0.51" ry="0.713"/>

			<ellipse style="fill-rule:evenodd;clip-rule:evenodd;fill:none;stroke:#EC008C;stroke-width:0.5;" cx="50.88" cy="-32.712" rx="0.509" ry="0.712"/>

			<ellipse style="fill-rule:evenodd;clip-rule:evenodd;fill:none;stroke:#EC008C;stroke-width:0.5;" cx="60.115" cy="-15.176" rx="0.509" ry="0.713"/>

			<ellipse style="fill-rule:evenodd;clip-rule:evenodd;fill:none;stroke:#EC008C;stroke-width:0.5;" cx="34.265" cy="-18.427" rx="0.508" ry="0.712"/>

			<ellipse transform="matrix(0.198 -0.9802 0.9802 0.198 98.5011 4.4567)" style="fill-rule:evenodd;clip-rule:evenodd;fill:none;stroke:#EC008C;stroke-width:0.5;" cx="51.974" cy="-57.962" rx="0.713" ry="0.509"/>

			<ellipse transform="matrix(0.1994 -0.9799 0.9799 0.1994 67.509 6.837)" style="fill-rule:evenodd;clip-rule:evenodd;fill:none;stroke:#EC008C;stroke-width:0.5;" cx="37.939" cy="-37.897" rx="0.713" ry="0.509"/>

			<ellipse style="fill-rule:evenodd;clip-rule:evenodd;fill:none;stroke:#EC008C;stroke-width:0.5;" cx="30.515" cy="-23.226" rx="0.508" ry="0.712"/>

			<ellipse style="fill-rule:evenodd;clip-rule:evenodd;fill:none;stroke:#EC008C;stroke-width:0.5;" cx="8.556" cy="-27.764" rx="0.509" ry="0.712"/>

			<ellipse style="fill-rule:evenodd;clip-rule:evenodd;fill:none;stroke:#EC008C;stroke-width:0.5;" cx="19.571" cy="-17.999" rx="0.509" ry="0.713"/>

			<ellipse style="fill-rule:evenodd;clip-rule:evenodd;fill:none;stroke:#EC008C;stroke-width:0.5;" cx="50.015" cy="-21.377" rx="0.508" ry="0.712"/>

			<ellipse transform="matrix(0.3004 -0.9538 0.9538 0.3004 65.7651 34.3036)" style="fill-rule:evenodd;clip-rule:evenodd;fill:none;stroke:#EC008C;stroke-width:0.5;" cx="56.266" cy="-27.678" rx="0.712" ry="0.509"/>

			<ellipse style="fill-rule:evenodd;clip-rule:evenodd;fill:none;stroke:#EC008C;stroke-width:0.5;" cx="18.522" cy="-44.645" rx="0.707" ry="0.99"/>

			<ellipse transform="matrix(0.0145 -0.9999 0.9999 0.0145 86.3404 25.0262)" style="fill-rule:evenodd;clip-rule:evenodd;fill:none;stroke:#EC008C;stroke-width:0.5;" cx="55.867" cy="-31.29" rx="0.892" ry="0.636"/>
		<path style="fill-rule:evenodd;clip-rule:evenodd;fill:none;stroke:#EC008C;stroke-width:0.5;" d="M20.265-7.916    c0.304,0.494,0.848,0.725,1.216,0.517c0.367-0.208,0.42-0.777,0.117-1.272c-0.305-0.495-0.849-0.727-1.216-0.519    C20.014-8.981,19.961-8.411,20.265-7.916z"/>
		<path style="fill-rule:evenodd;clip-rule:evenodd;fill:none;stroke:#EC008C;stroke-width:0.5;" d="M36.045-23.047    c-0.138-0.624-0.557-0.998-0.933-0.833c-0.376,0.165-0.569,0.808-0.43,1.434c0.14,0.624,0.557,0.997,0.933,0.832    C35.992-21.779,36.185-22.421,36.045-23.047z"/>
		<path style="fill-rule:evenodd;clip-rule:evenodd;fill:none;stroke:#EC008C;stroke-width:0.5;" d="M51.513-27.93    c-0.376,0.165-0.569,0.808-0.43,1.434c0.138,0.625,0.556,0.997,0.933,0.832c0.376-0.166,0.568-0.807,0.43-1.432    C52.308-27.721,51.889-28.095,51.513-27.93z"/>
		<path style="fill-rule:evenodd;clip-rule:evenodd;fill:none;stroke:#EC008C;stroke-width:0.5;" d="M59.329-19.011    c0.175,0.557,0.557,0.86,0.852,0.677c0.296-0.182,0.394-0.783,0.22-1.34c-0.175-0.557-0.557-0.861-0.853-0.678    C59.253-20.168,59.156-19.568,59.329-19.011z"/>

			<ellipse transform="matrix(0.5545 -0.8322 0.8322 0.5545 51.1896 11.6409)" style="fill-rule:evenodd;clip-rule:evenodd;fill:none;stroke:#EC008C;stroke-width:0.5;" cx="36.467" cy="-41.988" rx="0.99" ry="0.707"/>

			<ellipse transform="matrix(0.5537 -0.8327 0.8327 0.5537 55.8556 22.4438)" style="fill-rule:evenodd;clip-rule:evenodd;fill:none;stroke:#EC008C;stroke-width:0.5;" cx="48.866" cy="-40.888" rx="0.99" ry="0.707"/>

			<ellipse transform="matrix(0.9898 -0.1426 0.1426 0.9898 9.0674 6.2825)" style="fill-rule:evenodd;clip-rule:evenodd;fill:none;stroke:#EC008C;stroke-width:0.5;" cx="48.371" cy="-60.129" rx="0.706" ry="0.99"/>

			<ellipse transform="matrix(0.5542 -0.8324 0.8324 0.5542 64.4324 28.3318)" style="fill-rule:evenodd;clip-rule:evenodd;fill:none;stroke:#EC008C;stroke-width:0.5;" cx="58.667" cy="-45.988" rx="0.99" ry="0.707"/>

			<ellipse transform="matrix(0.5542 -0.8324 0.8324 0.5542 59.6331 15.3711)" style="fill-rule:evenodd;clip-rule:evenodd;fill:none;stroke:#EC008C;stroke-width:0.5;" cx="44.167" cy="-47.988" rx="0.99" ry="0.707"/>

			<ellipse transform="matrix(0.3729 -0.9279 0.9279 0.3729 73.8482 3.2269)" style="fill-rule:evenodd;clip-rule:evenodd;fill:none;stroke:#EC008C;stroke-width:0.5;" cx="39.311" cy="-53.017" rx="0.99" ry="0.707"/>

			<ellipse transform="matrix(0.5538 -0.8327 0.8327 0.5538 64.9669 1.98)" style="fill-rule:evenodd;clip-rule:evenodd;fill:none;stroke:#EC008C;stroke-width:0.5;" cx="34.331" cy="-59.623" rx="0.99" ry="0.707"/>

			<ellipse transform="matrix(0.5545 -0.8322 0.8322 0.5545 60.7143 -5.5572)" style="fill-rule:evenodd;clip-rule:evenodd;fill:none;stroke:#EC008C;stroke-width:0.5;" cx="25.167" cy="-59.488" rx="0.99" ry="0.707"/>

			<ellipse transform="matrix(0.5541 -0.8325 0.8325 0.5541 53.3909 -22.6732)" style="fill-rule:evenodd;clip-rule:evenodd;fill:none;stroke:#EC008C;stroke-width:0.5;" cx="5.532" cy="-61.173" rx="0.99" ry="0.707"/>

			<ellipse style="fill-rule:evenodd;clip-rule:evenodd;fill:none;stroke:#EC008C;stroke-width:0.5;" cx="32.815" cy="-38.654" rx="0.708" ry="0.99"/>

			<ellipse style="fill-rule:evenodd;clip-rule:evenodd;fill:none;stroke:#EC008C;stroke-width:0.5;" cx="18.815" cy="-56.854" rx="0.707" ry="0.99"/>
		<path style="fill-rule:evenodd;clip-rule:evenodd;fill:none;stroke:#EC008C;stroke-width:0.5;" d="M15.58-58.999    c0-0.547-0.31-1.58-0.7-1.58c-0.39,0-0.706,0.444-0.706,0.99c0,0.547,0.316,0.99,0.706,0.99    C15.271-58.599,15.58-58.452,15.58-58.999z"/>

			<ellipse style="fill-rule:evenodd;clip-rule:evenodd;fill:none;stroke:#EC008C;stroke-width:0.5;" cx="55.516" cy="-21.354" rx="0.707" ry="0.99"/>

			<ellipse style="fill-rule:evenodd;clip-rule:evenodd;fill:none;stroke:#EC008C;stroke-width:0.5;" cx="55.115" cy="-36.654" rx="0.708" ry="0.99"/>

			<ellipse style="fill-rule:evenodd;clip-rule:evenodd;fill:none;stroke:#EC008C;stroke-width:0.5;" cx="26.016" cy="-24.554" rx="0.707" ry="0.99"/>

			<ellipse transform="matrix(0.1885 -0.9821 0.9821 0.1885 44.8707 37.8326)" style="fill-rule:evenodd;clip-rule:evenodd;fill:none;stroke:#EC008C;stroke-width:0.5;" cx="45.329" cy="-8.236" rx="0.99" ry="0.707"/>

			<ellipse style="fill-rule:evenodd;clip-rule:evenodd;fill:none;stroke:#EC008C;stroke-width:0.5;" cx="21.816" cy="-21.854" rx="0.708" ry="0.99"/>

			<ellipse transform="matrix(0.3957 -0.9184 0.9184 0.3957 33.6547 2.1001)" style="fill-rule:evenodd;clip-rule:evenodd;fill:none;stroke:#EC008C;stroke-width:0.5;" cx="18.423" cy="-24.522" rx="0.99" ry="0.707"/>

			<ellipse transform="matrix(0.3964 -0.9181 0.9181 0.3964 62.8553 2.1838)" style="fill-rule:evenodd;clip-rule:evenodd;fill:none;stroke:#EC008C;stroke-width:0.5;" cx="33.088" cy="-46.708" rx="0.989" ry="0.708"/>

			<ellipse transform="matrix(0.3963 -0.9181 0.9181 0.3963 54.8196 -27.6457)" style="fill-rule:evenodd;clip-rule:evenodd;fill:none;stroke:#EC008C;stroke-width:0.5;" cx="6.388" cy="-55.508" rx="0.99" ry="0.707"/>

			<ellipse style="fill-rule:evenodd;clip-rule:evenodd;fill:none;stroke:#EC008C;stroke-width:0.5;" cx="35.081" cy="-13.789" rx="0.707" ry="0.99"/>

			<ellipse transform="matrix(0.2837 -0.9589 0.9589 0.2837 18.0815 15.3793)" style="fill-rule:evenodd;clip-rule:evenodd;fill:none;stroke:#EC008C;stroke-width:0.5;" cx="19.335" cy="-4.414" rx="0.99" ry="0.707"/>

			<ellipse style="fill-rule:evenodd;clip-rule:evenodd;fill:none;stroke:#EC008C;stroke-width:0.5;" cx="56.915" cy="-6.404" rx="0.708" ry="0.99"/>

			<ellipse transform="matrix(0.5132 -0.8583 0.8583 0.5132 41.6272 37.4311)" style="fill-rule:evenodd;clip-rule:evenodd;fill:none;stroke:#EC008C;stroke-width:0.5;" cx="53.812" cy="-17.981" rx="0.912" ry="0.685"/>

			<ellipse transform="matrix(0.5148 -0.8573 0.8573 0.5148 39.4614 25.033)" style="fill-rule:evenodd;clip-rule:evenodd;fill:none;stroke:#EC008C;stroke-width:0.5;" cx="41.846" cy="-22.346" rx="0.912" ry="0.685"/>

			<ellipse transform="matrix(0.0755 -0.9971 0.9971 0.0755 60.097 57.4763)" style="fill-rule:evenodd;clip-rule:evenodd;fill:none;stroke:#EC008C;stroke-width:0.5;" cx="61.046" cy="-3.673" rx="0.912" ry="0.685"/>

			<ellipse transform="matrix(0.5143 -0.8576 0.8576 0.5143 16.0688 8.8093)" style="fill-rule:evenodd;clip-rule:evenodd;fill:none;stroke:#EC008C;stroke-width:0.5;" cx="15.811" cy="-9.781" rx="0.912" ry="0.685"/>

			<ellipse transform="matrix(0.5141 -0.8577 0.8577 0.5141 42.3471 6.7554)" style="fill-rule:evenodd;clip-rule:evenodd;fill:none;stroke:#EC008C;stroke-width:0.5;" cx="27.136" cy="-33.997" rx="0.739" ry="0.554"/>

			<ellipse transform="matrix(0.514 -0.8578 0.8578 0.514 36.5098 -2.0488)" style="fill-rule:evenodd;clip-rule:evenodd;fill:none;stroke:#EC008C;stroke-width:0.5;" cx="16.447" cy="-33.246" rx="0.912" ry="0.685"/>

			<ellipse transform="matrix(0.5144 -0.8576 0.8576 0.5144 52.4984 -5.2525)" style="fill-rule:evenodd;clip-rule:evenodd;fill:none;stroke:#EC008C;stroke-width:0.5;" cx="21.611" cy="-48.981" rx="0.912" ry="0.684"/>

			<ellipse transform="matrix(0.5136 -0.858 0.858 0.5136 32.8412 -6.6595)" style="fill-rule:evenodd;clip-rule:evenodd;fill:none;stroke:#EC008C;stroke-width:0.5;" cx="10.547" cy="-32.296" rx="0.911" ry="0.685"/>

			<ellipse transform="matrix(0.5144 -0.8576 0.8576 0.5144 46.0335 -15.0686)" style="fill-rule:evenodd;clip-rule:evenodd;fill:none;stroke:#EC008C;stroke-width:0.5;" cx="9.711" cy="-48.181" rx="0.912" ry="0.684"/>

			<ellipse transform="matrix(0.2409 -0.9706 0.9706 0.2409 36.7442 29.9213)" style="fill-rule:evenodd;clip-rule:evenodd;fill:none;stroke:#EC008C;stroke-width:0.5;" cx="37.5" cy="-8.528" rx="0.891" ry="0.636"/>

			<ellipse transform="matrix(0.2409 -0.9706 0.9706 0.2409 12.5566 -1.2721)" style="fill-rule:evenodd;clip-rule:evenodd;fill:none;stroke:#EC008C;stroke-width:0.5;" cx="5.465" cy="-8.663" rx="0.891" ry="0.636"/>

			<ellipse transform="matrix(0.9798 -0.2002 0.2002 0.9798 3.3447 11.5093)" style="fill-rule:evenodd;clip-rule:evenodd;fill:none;stroke:#EC008C;stroke-width:0.5;" cx="58.593" cy="-10.787" rx="0.636" ry="0.891"/>

			<ellipse transform="matrix(0.3061 -0.952 0.952 0.3061 7.3058 0.1409)" style="fill-rule:evenodd;clip-rule:evenodd;fill:none;stroke:#EC008C;stroke-width:0.5;" cx="3.75" cy="-4.941" rx="0.891" ry="0.636"/>

			<ellipse transform="matrix(0.2411 -0.9705 0.9705 0.2411 16.0632 3.4145)" style="fill-rule:evenodd;clip-rule:evenodd;fill:none;stroke:#EC008C;stroke-width:0.5;" cx="10.215" cy="-8.563" rx="0.891" ry="0.636"/>

			<ellipse transform="matrix(0.2409 -0.9705 0.9705 0.2409 41.2202 -4.552)" style="fill-rule:evenodd;clip-rule:evenodd;fill:none;stroke:#EC008C;stroke-width:0.5;" cx="17.7" cy="-28.628" rx="0.891" ry="0.636"/>

			<ellipse transform="matrix(0.2424 -0.9702 0.9702 0.2424 52.6787 -20.2572)" style="fill-rule:evenodd;clip-rule:evenodd;fill:none;stroke:#EC008C;stroke-width:0.5;" cx="13.369" cy="-43.857" rx="0.891" ry="0.637"/>

			<ellipse transform="matrix(0.5562 -0.831 0.831 0.5562 35.2432 -13.5125)" style="fill-rule:evenodd;clip-rule:evenodd;fill:none;stroke:#EC008C;stroke-width:0.5;" cx="4.97" cy="-39.754" rx="0.89" ry="0.636"/>

			<ellipse transform="matrix(0.0346 -0.9994 0.9994 0.0346 27.97 21.4451)" style="fill-rule:evenodd;clip-rule:evenodd;fill:none;stroke:#EC008C;stroke-width:0.5;" cx="25.085" cy="-3.754" rx="0.891" ry="0.637"/>

			<ellipse transform="matrix(0.9969 -0.0791 0.0791 0.9969 4.0398 2.7519)" style="fill-rule:evenodd;clip-rule:evenodd;fill:none;stroke:#EC008C;stroke-width:0.5;" cx="36.744" cy="-49.598" rx="0.573" ry="0.802"/>

			<ellipse transform="matrix(0.4669 -0.8843 0.8843 0.4669 76.8311 5.0953)" style="fill-rule:evenodd;clip-rule:evenodd;fill:none;stroke:#EC008C;stroke-width:0.5;" cx="42.641" cy="-61.173" rx="0.802" ry="0.573"/>

			<ellipse transform="matrix(0.2425 -0.9701 0.9701 0.2425 81.6679 10.9115)" style="fill-rule:evenodd;clip-rule:evenodd;fill:none;stroke:#EC008C;stroke-width:0.5;" cx="47.821" cy="-46.842" rx="0.801" ry="0.573"/>

			<ellipse transform="matrix(0.0801 -0.9968 0.9968 0.0801 55.2145 44.657)" style="fill-rule:evenodd;clip-rule:evenodd;fill:none;stroke:#EC008C;stroke-width:0.5;" cx="51.802" cy="-7.586" rx="0.99" ry="0.707"/>

			<ellipse transform="matrix(0.2693 -0.9631 0.9631 0.2693 27.0393 23.1321)" style="fill-rule:evenodd;clip-rule:evenodd;fill:none;stroke:#EC008C;stroke-width:0.5;" cx="28.763" cy="-6.252" rx="0.989" ry="0.707"/>
		<path style="fill-rule:evenodd;clip-rule:evenodd;fill:none;stroke:#EC008C;stroke-width:0.5;" d="M24.231-37.188    c0,0.547,0.38,0.989,0.849,0.989c0.469,0,0.849-0.442,0.849-0.989c0-0.548-0.78-1.211-1.249-1.211    C24.212-38.399,24.231-37.736,24.231-37.188z"/>
		<path style="fill-rule:evenodd;clip-rule:evenodd;fill:none;stroke:#EC008C;stroke-width:0.5;" d="M29.164-40.429    c0-0.548-0.58-1.635-1.049-1.635c-0.469,0-0.648,1.087-0.648,1.635c0,0.547,0.38,0.99,0.849,0.99    C28.783-39.438,29.164-39.882,29.164-40.429z"/>
		<path style="fill-rule:evenodd;clip-rule:evenodd;fill:none;stroke:#EC008C;stroke-width:0.5;" d="M57.792-61.327    c-0.499-0.225-1.06-0.061-1.252,0.367c-0.192,0.427,0.056,0.955,0.554,1.181c0.499,0.225,1.729,0.143,1.922-0.284    C59.207-60.491,58.29-61.102,57.792-61.327z"/>

			<ellipse style="fill-rule:evenodd;clip-rule:evenodd;fill:none;stroke:#EC008C;stroke-width:0.5;" cx="15.215" cy="-5.755" rx="0.764" ry="0.892"/>

			<ellipse style="fill-rule:evenodd;clip-rule:evenodd;fill:none;stroke:#EC008C;stroke-width:0.5;" cx="48.515" cy="-36.055" rx="0.763" ry="0.891"/>

			<ellipse style="fill-rule:evenodd;clip-rule:evenodd;fill:none;stroke:#EC008C;stroke-width:0.5;" cx="45.08" cy="-57.49" rx="0.764" ry="0.891"/>

			<ellipse style="fill-rule:evenodd;clip-rule:evenodd;fill:none;stroke:#EC008C;stroke-width:0.5;" cx="54.98" cy="-55.39" rx="0.763" ry="0.891"/>

			<ellipse style="fill-rule:evenodd;clip-rule:evenodd;fill:none;stroke:#EC008C;stroke-width:0.5;" cx="34.315" cy="-55.266" rx="0.687" ry="0.802"/>

			<ellipse transform="matrix(0.3743 -0.9273 0.9273 0.3743 25.0407 -1.2669)" style="fill-rule:evenodd;clip-rule:evenodd;fill:none;stroke:#EC008C;stroke-width:0.5;" cx="11.582" cy="-19.19" rx="0.891" ry="0.764"/>

			<ellipse transform="matrix(0.6422 -0.7666 0.7666 0.6422 26.4979 0.1218)" style="fill-rule:evenodd;clip-rule:evenodd;fill:none;stroke:#EC008C;stroke-width:0.5;" cx="13.379" cy="-28.322" rx="0.989" ry="0.566"/>

			<ellipse transform="matrix(0.2918 -0.9565 0.9565 0.2918 34.3877 -19.6683)" style="fill-rule:evenodd;clip-rule:evenodd;fill:none;stroke:#EC008C;stroke-width:0.5;" cx="3.913" cy="-33.055" rx="1.036" ry="0.622"/>

			<ellipse transform="matrix(0.537 -0.8436 0.8436 0.537 69.12 24.9433)" style="fill-rule:evenodd;clip-rule:evenodd;fill:none;stroke:#EC008C;stroke-width:0.5;" cx="57.284" cy="-50.499" rx="0.99" ry="0.566"/>

			<ellipse transform="matrix(0.2265 -0.974 0.974 0.2265 31.1645 0.1172)" style="fill-rule:evenodd;clip-rule:evenodd;fill:none;stroke:#EC008C;stroke-width:0.5;" cx="15.656" cy="-19.563" rx="0.99" ry="0.566"/>

			<ellipse transform="matrix(0.2261 -0.9741 0.9741 0.2261 34.8952 17.8658)" style="fill-rule:evenodd;clip-rule:evenodd;fill:none;stroke:#EC008C;stroke-width:0.5;" cx="28.691" cy="-13.028" rx="0.99" ry="0.566"/>

			<ellipse transform="matrix(0.2254 -0.9743 0.9743 0.2254 51.9032 31.2283)" style="fill-rule:evenodd;clip-rule:evenodd;fill:none;stroke:#EC008C;stroke-width:0.5;" cx="45.591" cy="-17.028" rx="0.99" ry="0.565"/>

			<ellipse transform="matrix(0.2254 -0.9743 0.9743 0.2254 53.5269 43.7705)" style="fill-rule:evenodd;clip-rule:evenodd;fill:none;stroke:#EC008C;stroke-width:0.5;" cx="54.291" cy="-11.778" rx="0.99" ry="0.565"/>

			<ellipse transform="matrix(0.2255 -0.9743 0.9743 0.2255 41.8172 45.0734)" style="fill-rule:evenodd;clip-rule:evenodd;fill:none;stroke:#EC008C;stroke-width:0.5;" cx="49.256" cy="-3.763" rx="0.99" ry="0.565"/>

			<ellipse transform="matrix(0.4616 -0.8871 0.8871 0.4616 68.9277 22.7774)" style="fill-rule:evenodd;clip-rule:evenodd;fill:none;stroke:#EC008C;stroke-width:0.5;" cx="53.228" cy="-45.393" rx="1.273" ry="0.637"/>

			<ellipse transform="matrix(0.4615 -0.8871 0.8871 0.4615 48.4396 14.9706)" style="fill-rule:evenodd;clip-rule:evenodd;fill:none;stroke:#EC008C;stroke-width:0.5;" cx="36.551" cy="-32.415" rx="1.145" ry="0.573"/>

			<ellipse transform="matrix(0.4615 -0.8872 0.8872 0.4615 61.4213 -8.449)" style="fill-rule:evenodd;clip-rule:evenodd;fill:none;stroke:#EC008C;stroke-width:0.5;" cx="23.751" cy="-54.815" rx="1.146" ry="0.574"/>

			<ellipse transform="matrix(0.461 -0.8874 0.8874 0.461 73.2597 19.1501)" style="fill-rule:evenodd;clip-rule:evenodd;fill:none;stroke:#EC008C;stroke-width:0.5;" cx="52.393" cy="-50.728" rx="1.273" ry="0.637"/>
		<path style="fill-rule:evenodd;clip-rule:evenodd;fill:none;stroke:#EC008C;stroke-width:0.5;" d="M47.041-54.099    c-0.26-0.499-0.852-0.736-1.101-0.607c-0.249,0.129-0.241,0.639,0.018,1.138c0.261,0.499,0.673,0.799,0.921,0.669    C47.994-53.479,47.338-53.528,47.041-54.099z"/>

			<ellipse transform="matrix(0.1846 -0.9828 0.9828 0.1846 41.5072 9.4353)" style="fill-rule:evenodd;clip-rule:evenodd;fill:none;stroke:#EC008C;stroke-width:0.5;" cx="26.44" cy="-20.296" rx="1.272" ry="0.637"/>

			<ellipse transform="matrix(0.4617 -0.887 0.887 0.4617 42.407 14.4286)" style="fill-rule:evenodd;clip-rule:evenodd;fill:none;stroke:#EC008C;stroke-width:0.5;" cx="33.092" cy="-27.728" rx="1.272" ry="0.637"/>

			<ellipse transform="matrix(0.0821 -0.9966 0.9966 0.0821 23.4394 -1.1853)" style="fill-rule:evenodd;clip-rule:evenodd;fill:none;stroke:#EC008C;stroke-width:0.5;" cx="11.076" cy="-13.318" rx="1.272" ry="0.636"/>

			<ellipse transform="matrix(0.3795 -0.9252 0.9252 0.3795 28.3506 -12.9379)" style="fill-rule:evenodd;clip-rule:evenodd;fill:none;stroke:#EC008C;stroke-width:0.5;" cx="4.529" cy="-27.606" rx="1.018" ry="0.509"/>

			<ellipse transform="matrix(0.3796 -0.9251 0.9251 0.3796 55.8497 -15.1961)" style="fill-rule:evenodd;clip-rule:evenodd;fill:none;stroke:#EC008C;stroke-width:0.5;" cx="16.594" cy="-49.241" rx="1.018" ry="0.509"/>

			<ellipse transform="matrix(0.3795 -0.9252 0.9252 0.3795 49.2827 27.4499)" style="fill-rule:evenodd;clip-rule:evenodd;fill:none;stroke:#EC008C;stroke-width:0.5;" cx="45.106" cy="-23.017" rx="0.814" ry="0.407"/>

			<circle style="fill-rule:evenodd;clip-rule:evenodd;fill:none;stroke:#EC008C;stroke-width:0.5;" cx="13.415" cy="-37.955" r="0.891"/>

			<ellipse transform="matrix(0.3557 -0.9346 0.9346 0.3557 62.6803 -15.2099)" style="fill-rule:evenodd;clip-rule:evenodd;fill:none;stroke:#EC008C;stroke-width:0.5;" cx="20.309" cy="-53.066" rx="0.859" ry="0.516"/>

			<ellipse transform="matrix(0.4605 -0.8877 0.8877 0.4605 23.5053 11.0209)" style="fill-rule:evenodd;clip-rule:evenodd;fill:none;stroke:#EC008C;stroke-width:0.5;" cx="20.819" cy="-13.827" rx="0.859" ry="0.515"/>

			<ellipse transform="matrix(0.3579 -0.9337 0.9337 0.3579 44.3295 1.6634)" style="fill-rule:evenodd;clip-rule:evenodd;fill:none;stroke:#EC008C;stroke-width:0.5;" cx="23.374" cy="-31.402" rx="0.859" ry="0.516"/>

			<ellipse transform="matrix(0.3574 -0.9339 0.9339 0.3574 18.5074 -8.5041)" style="fill-rule:evenodd;clip-rule:evenodd;fill:none;stroke:#EC008C;stroke-width:0.5;" cx="3.074" cy="-17.701" rx="0.86" ry="0.515"/>
		<path style="fill-rule:evenodd;clip-rule:evenodd;fill:none;stroke:#EC008C;stroke-width:0.5;" d="M29.746-16.266    c0.201,0.335,0.619,0.543,0.934,0.466c0.316-0.076,0.408-0.41,0.208-0.745c-0.2-0.335-0.618-0.545-0.934-0.468    C29.639-16.937,29.546-16.602,29.746-16.266z"/>
		<path style="fill-rule:evenodd;clip-rule:evenodd;fill:none;stroke:#EC008C;stroke-width:0.5;" d="M25.879-8.799    c0.316-0.077,0.409-0.411,0.209-0.746c-0.2-0.336-0.619-0.544-0.934-0.467c-0.315,0.076-0.408,0.41-0.208,0.745    C25.146-8.932,25.565-8.722,25.879-8.799z"/>

			<ellipse transform="matrix(0.4205 -0.9073 0.9073 0.4205 63.224 37.8985)" style="fill-rule:evenodd;clip-rule:evenodd;fill:none;stroke:#EC008C;stroke-width:0.5;" cx="61.279" cy="-30.543" rx="0.859" ry="0.516"/>

			<ellipse transform="matrix(0.0739 -0.9973 0.9973 0.0739 62.2332 37.7044)" style="fill-rule:evenodd;clip-rule:evenodd;fill:none;stroke:#EC008C;stroke-width:0.5;" cx="51.417" cy="-14.656" rx="0.859" ry="0.516"/>

			<ellipse transform="matrix(0.0727 -0.9974 0.9974 0.0727 52.9373 22.0982)" style="fill-rule:evenodd;clip-rule:evenodd;fill:none;stroke:#EC008C;stroke-width:0.5;" cx="38.353" cy="-17.42" rx="0.859" ry="0.516"/>

			<circle style="fill-rule:evenodd;clip-rule:evenodd;fill:none;stroke:#EC008C;stroke-width:0.5;stroke-linecap:round;stroke-linejoin:round;" cx="49.955" cy="-44.033" r="0.382"/>

			<circle style="fill-rule:evenodd;clip-rule:evenodd;fill:none;stroke:#EC008C;stroke-width:0.5;stroke-linecap:round;stroke-linejoin:round;" cx="52.28" cy="-38.781" r="0.382"/>

			<circle style="fill-rule:evenodd;clip-rule:evenodd;fill:none;stroke:#EC008C;stroke-width:0.5;stroke-linecap:round;stroke-linejoin:round;" cx="42.615" cy="-35.346" r="0.382"/>

			<circle style="fill-rule:evenodd;clip-rule:evenodd;fill:none;stroke:#EC008C;stroke-width:0.5;stroke-linecap:round;stroke-linejoin:round;" cx="57.48" cy="-34.181" r="0.382"/>

			<circle style="fill-rule:evenodd;clip-rule:evenodd;fill:none;stroke:#EC008C;stroke-width:0.5;stroke-linecap:round;stroke-linejoin:round;" cx="29.28" cy="-36.781" r="0.382"/>

			<circle style="fill-rule:evenodd;clip-rule:evenodd;fill:none;stroke:#EC008C;stroke-width:0.5;stroke-linecap:round;stroke-linejoin:round;" cx="52.43" cy="-29.831" r="0.382"/>

			<circle style="fill-rule:evenodd;clip-rule:evenodd;fill:none;stroke:#EC008C;stroke-width:0.5;stroke-linecap:round;stroke-linejoin:round;" cx="36.316" cy="-28.546" r="0.382"/>

			<circle style="fill-rule:evenodd;clip-rule:evenodd;fill:none;stroke:#EC008C;stroke-width:0.5;stroke-linecap:round;stroke-linejoin:round;" cx="21.215" cy="-28.246" r="0.382"/>

			<circle style="fill-rule:evenodd;clip-rule:evenodd;fill:none;stroke:#EC008C;stroke-width:0.5;stroke-linecap:round;stroke-linejoin:round;" cx="41.615" cy="-16.645" r="0.382"/>

			<circle style="fill-rule:evenodd;clip-rule:evenodd;fill:none;stroke:#EC008C;stroke-width:0.5;stroke-linecap:round;stroke-linejoin:round;" cx="49.016" cy="-18.545" r="0.382"/>

			<circle style="fill-rule:evenodd;clip-rule:evenodd;fill:none;stroke:#EC008C;stroke-width:0.5;stroke-linecap:round;stroke-linejoin:round;" cx="48.615" cy="-8.646" r="0.382"/>

			<circle style="fill-rule:evenodd;clip-rule:evenodd;fill:none;stroke:#EC008C;stroke-width:0.5;stroke-linecap:round;stroke-linejoin:round;" cx="45.515" cy="-3.846" r="0.382"/>

			<circle style="fill-rule:evenodd;clip-rule:evenodd;fill:none;stroke:#EC008C;stroke-width:0.5;stroke-linecap:round;stroke-linejoin:round;" cx="8.631" cy="-17.381" r="0.382"/>

			<circle style="fill-rule:evenodd;clip-rule:evenodd;fill:none;stroke:#EC008C;stroke-width:0.5;stroke-linecap:round;stroke-linejoin:round;" cx="7.28" cy="-11.681" r="0.382"/>

			<circle style="fill-rule:evenodd;clip-rule:evenodd;fill:none;stroke:#EC008C;stroke-width:0.5;stroke-linecap:round;stroke-linejoin:round;" cx="15.198" cy="-40.627" r="0.382"/>

			<circle style="fill-rule:evenodd;clip-rule:evenodd;fill:none;stroke:#EC008C;stroke-width:0.5;stroke-linecap:round;stroke-linejoin:round;" cx="3.48" cy="-53.781" r="0.382"/>

			<circle style="fill-rule:evenodd;clip-rule:evenodd;fill:none;stroke:#EC008C;stroke-width:0.5;stroke-linecap:round;stroke-linejoin:round;" cx="8.28" cy="-45.381" r="0.382"/>

			<circle style="fill-rule:evenodd;clip-rule:evenodd;fill:none;stroke:#EC008C;stroke-width:0.5;stroke-linecap:round;stroke-linejoin:round;" cx="50.315" cy="-54.346" r="0.382"/>
		<path style="fill-rule:evenodd;clip-rule:evenodd;fill:none;stroke:#EC008C;stroke-width:0.5;" d="M30.277-62.479    c-0.028,0.429-0.27,0.764-0.562,0.764c-0.294,0-0.534-0.335-0.563-0.764"/>
		<path style="fill-rule:evenodd;clip-rule:evenodd;fill:none;stroke:#EC008C;stroke-width:0.5;" d="M30.277-2    c0.002-0.026,0.004-0.056,0.004-0.084c0-0.469-0.254-0.849-0.566-0.849c-0.312,0-0.565,0.38-0.565,0.849    c0,0.028,0.001,0.058,0.002,0.084"/>
		<path style="fill-rule:evenodd;clip-rule:evenodd;fill:none;stroke:#EC008C;stroke-width:0.5;" d="M12.477-62.479    c-0.028,0.429-0.27,0.764-0.562,0.764c-0.293,0-0.534-0.335-0.562-0.764"/>
		<path style="fill-rule:evenodd;clip-rule:evenodd;fill:none;stroke:#EC008C;stroke-width:0.5;" d="M12.477-2    c0.002-0.026,0.004-0.056,0.004-0.084c0-0.469-0.254-0.849-0.566-0.849c-0.312,0-0.564,0.38-0.564,0.849    c0,0.028,0,0.058,0.002,0.084"/>
		<path style="fill-rule:evenodd;clip-rule:evenodd;fill:none;stroke:#EC008C;stroke-width:0.5;" d="M39.033-62.479    c-0.036,0.429-0.336,0.764-0.704,0.764c-0.365,0-0.667-0.335-0.702-0.764"/>
		<path style="fill-rule:evenodd;clip-rule:evenodd;fill:none;stroke:#EC008C;stroke-width:0.5;" d="M39.033-2    c0.003-0.026,0.004-0.056,0.004-0.084c0-0.469-0.316-0.849-0.708-0.849c-0.39,0-0.706,0.38-0.706,0.849    c0,0.028,0.001,0.058,0.004,0.084"/>
		<path style="fill-rule:evenodd;clip-rule:evenodd;fill:none;stroke:#EC008C;stroke-width:0.5;" d="M54.769-62.479    c-0.035,0.429-0.337,0.764-0.703,0.764c-0.367,0-0.668-0.335-0.703-0.764"/>
		<path style="fill-rule:evenodd;clip-rule:evenodd;fill:none;stroke:#EC008C;stroke-width:0.5;" d="M54.769-2    c0.003-0.026,0.005-0.056,0.005-0.084c0-0.469-0.318-0.849-0.708-0.849c-0.391,0-0.707,0.38-0.707,0.849    c0,0.028,0.001,0.058,0.004,0.084"/>
		<path style="fill-rule:evenodd;clip-rule:evenodd;fill:none;stroke:#EC008C;stroke-width:0.5;" d="M62.479-25.942    c-0.028-0.008-0.059-0.012-0.089-0.012c-0.332,0-0.601,0.443-0.601,0.99c0,0.548,0.27,0.989,0.601,0.989    c0.03,0,0.061-0.002,0.089-0.011"/>
		<path style="fill-rule:evenodd;clip-rule:evenodd;fill:none;stroke:#EC008C;stroke-width:0.5;" d="M2-23.985    c0.289-0.071,0.511-0.481,0.511-0.979c0-0.497-0.222-0.907-0.511-0.979"/>
		<path style="fill-rule:evenodd;clip-rule:evenodd;fill:none;stroke:#EC008C;stroke-width:0.5;" d="M62.479-44.493    c-0.028-0.007-0.059-0.011-0.089-0.011c-0.332,0-0.601,0.443-0.601,0.989c0,0.548,0.27,0.99,0.601,0.99    c0.03,0,0.061-0.003,0.089-0.011"/>
		<path style="fill-rule:evenodd;clip-rule:evenodd;fill:none;stroke:#EC008C;stroke-width:0.5;" d="M2-42.535    c0.289-0.071,0.511-0.482,0.511-0.979c0-0.495-0.222-0.907-0.511-0.979"/>
		<path style="fill-rule:evenodd;clip-rule:evenodd;fill:none;stroke:#EC008C;stroke-width:0.5;" d="M62.479-12.393    c-0.028-0.008-0.059-0.011-0.089-0.011c-0.332,0-0.601,0.442-0.601,0.989c0,0.547,0.27,0.99,0.601,0.99    c0.03,0,0.061-0.004,0.089-0.011"/>
		<path style="fill-rule:evenodd;clip-rule:evenodd;fill:none;stroke:#EC008C;stroke-width:0.5;" d="M2-10.435    c0.289-0.071,0.511-0.483,0.511-0.979c0-0.496-0.222-0.907-0.511-0.979"/>
		<path style="fill-rule:evenodd;clip-rule:evenodd;fill:none;stroke:#EC008C;stroke-width:0.5;" d="M62.479-60.878    c-0.028-0.007-0.059-0.011-0.089-0.011c-0.332,0-0.601,0.443-0.601,0.989c0,0.547,0.27,0.99,0.601,0.99    c0.03,0,0.061-0.004,0.089-0.011"/>
		<path style="fill-rule:evenodd;clip-rule:evenodd;fill:none;stroke:#EC008C;stroke-width:0.5;" d="M2-58.92    c0.289-0.071,0.511-0.482,0.511-0.979c0-0.496-0.222-0.906-0.511-0.979"/>
	</g>
</svg>
