<?xml version="1.0" encoding="utf-8"?>
<svg xmlns="http://www.w3.org/2000/svg" version="1.1" x="0px" y="0px" xml:space="preserve" width="56" height="56.016" viewBox="1 -57.016 56 56.016">
	<g>
		<rect x="1" y="-57.016" style="fill:none;" width="56" height="56.016"/>
		<circle style="fill-rule:evenodd;clip-rule:evenodd;" cx="2.994" cy="-54.977" r="0.449"/>
		<circle style="fill-rule:evenodd;clip-rule:evenodd;" cx="6.994" cy="-54.977" r="0.449"/>
		<circle style="fill-rule:evenodd;clip-rule:evenodd;" cx="10.994" cy="-54.977" r="0.449"/>
		<circle style="fill-rule:evenodd;clip-rule:evenodd;" cx="14.994" cy="-54.977" r="0.449"/>
		<circle style="fill-rule:evenodd;clip-rule:evenodd;" cx="18.994" cy="-54.977" r="0.449"/>
		<circle style="fill-rule:evenodd;clip-rule:evenodd;" cx="22.994" cy="-54.977" r="0.449"/>
		<circle style="fill-rule:evenodd;clip-rule:evenodd;" cx="26.994" cy="-54.977" r="0.449"/>
		<circle style="fill-rule:evenodd;clip-rule:evenodd;" cx="30.994" cy="-54.977" r="0.449"/>
		<circle style="fill-rule:evenodd;clip-rule:evenodd;" cx="34.994" cy="-54.977" r="0.449"/>
		<circle style="fill-rule:evenodd;clip-rule:evenodd;" cx="38.994" cy="-54.977" r="0.449"/>
		<circle style="fill-rule:evenodd;clip-rule:evenodd;" cx="42.994" cy="-54.977" r="0.449"/>
		<circle style="fill-rule:evenodd;clip-rule:evenodd;" cx="46.994" cy="-54.977" r="0.449"/>
		<circle style="fill-rule:evenodd;clip-rule:evenodd;" cx="50.994" cy="-54.977" r="0.449"/>
		<circle style="fill-rule:evenodd;clip-rule:evenodd;" cx="54.994" cy="-54.977" r="0.449"/>
		<circle style="fill-rule:evenodd;clip-rule:evenodd;" cx="2.994" cy="-50.998" r="0.449"/>
		<circle style="fill-rule:evenodd;clip-rule:evenodd;" cx="6.994" cy="-50.998" r="0.449"/>
		<circle style="fill-rule:evenodd;clip-rule:evenodd;" cx="10.994" cy="-50.998" r="0.449"/>
		<circle style="fill-rule:evenodd;clip-rule:evenodd;" cx="14.994" cy="-50.998" r="0.449"/>
		<circle style="fill-rule:evenodd;clip-rule:evenodd;" cx="18.994" cy="-50.998" r="0.449"/>
		<circle style="fill-rule:evenodd;clip-rule:evenodd;" cx="22.994" cy="-50.998" r="0.449"/>
		<circle style="fill-rule:evenodd;clip-rule:evenodd;" cx="26.994" cy="-50.998" r="0.449"/>
		<circle style="fill-rule:evenodd;clip-rule:evenodd;" cx="30.994" cy="-50.998" r="0.449"/>
		<circle style="fill-rule:evenodd;clip-rule:evenodd;" cx="34.994" cy="-50.998" r="0.449"/>
		<circle style="fill-rule:evenodd;clip-rule:evenodd;" cx="38.994" cy="-50.998" r="0.449"/>
		<circle style="fill-rule:evenodd;clip-rule:evenodd;" cx="42.994" cy="-50.998" r="0.449"/>
		<circle style="fill-rule:evenodd;clip-rule:evenodd;" cx="46.994" cy="-50.998" r="0.449"/>
		<circle style="fill-rule:evenodd;clip-rule:evenodd;" cx="50.994" cy="-50.998" r="0.449"/>
		<circle style="fill-rule:evenodd;clip-rule:evenodd;" cx="54.994" cy="-50.998" r="0.449"/>
		<circle style="fill-rule:evenodd;clip-rule:evenodd;" cx="2.994" cy="-46.998" r="0.449"/>
		<circle style="fill-rule:evenodd;clip-rule:evenodd;" cx="6.994" cy="-46.998" r="0.449"/>
		<circle style="fill-rule:evenodd;clip-rule:evenodd;" cx="10.994" cy="-46.998" r="0.449"/>
		<circle style="fill-rule:evenodd;clip-rule:evenodd;" cx="14.994" cy="-46.998" r="0.449"/>
		<circle style="fill-rule:evenodd;clip-rule:evenodd;" cx="18.994" cy="-46.998" r="0.449"/>
		<circle style="fill-rule:evenodd;clip-rule:evenodd;" cx="22.994" cy="-46.998" r="0.449"/>
		<circle style="fill-rule:evenodd;clip-rule:evenodd;" cx="26.994" cy="-46.998" r="0.449"/>
		<circle style="fill-rule:evenodd;clip-rule:evenodd;" cx="30.994" cy="-46.998" r="0.449"/>
		<circle style="fill-rule:evenodd;clip-rule:evenodd;" cx="34.994" cy="-46.998" r="0.449"/>
		<circle style="fill-rule:evenodd;clip-rule:evenodd;" cx="38.994" cy="-46.998" r="0.449"/>
		<circle style="fill-rule:evenodd;clip-rule:evenodd;" cx="42.994" cy="-46.998" r="0.449"/>
		<circle style="fill-rule:evenodd;clip-rule:evenodd;" cx="46.994" cy="-46.998" r="0.449"/>
		<circle style="fill-rule:evenodd;clip-rule:evenodd;" cx="50.994" cy="-46.998" r="0.449"/>
		<circle style="fill-rule:evenodd;clip-rule:evenodd;" cx="54.994" cy="-46.998" r="0.449"/>
		<circle style="fill-rule:evenodd;clip-rule:evenodd;" cx="2.994" cy="-42.998" r="0.449"/>
		<circle style="fill-rule:evenodd;clip-rule:evenodd;" cx="6.994" cy="-42.998" r="0.449"/>
		<circle style="fill-rule:evenodd;clip-rule:evenodd;" cx="10.994" cy="-42.998" r="0.449"/>
		<circle style="fill-rule:evenodd;clip-rule:evenodd;" cx="14.994" cy="-42.998" r="0.449"/>
		<circle style="fill-rule:evenodd;clip-rule:evenodd;" cx="18.994" cy="-42.998" r="0.449"/>
		<circle style="fill-rule:evenodd;clip-rule:evenodd;" cx="22.994" cy="-42.998" r="0.449"/>
		<circle style="fill-rule:evenodd;clip-rule:evenodd;" cx="26.994" cy="-42.998" r="0.449"/>
		<circle style="fill-rule:evenodd;clip-rule:evenodd;" cx="30.994" cy="-42.998" r="0.449"/>
		<circle style="fill-rule:evenodd;clip-rule:evenodd;" cx="34.994" cy="-42.998" r="0.449"/>
		<circle style="fill-rule:evenodd;clip-rule:evenodd;" cx="38.994" cy="-42.998" r="0.449"/>
		<circle style="fill-rule:evenodd;clip-rule:evenodd;" cx="42.994" cy="-42.998" r="0.449"/>
		<circle style="fill-rule:evenodd;clip-rule:evenodd;" cx="46.994" cy="-42.998" r="0.449"/>
		<circle style="fill-rule:evenodd;clip-rule:evenodd;" cx="50.994" cy="-42.998" r="0.449"/>
		<circle style="fill-rule:evenodd;clip-rule:evenodd;" cx="54.994" cy="-42.998" r="0.449"/>
		<circle style="fill-rule:evenodd;clip-rule:evenodd;" cx="2.994" cy="-39.061" r="0.449"/>
		<circle style="fill-rule:evenodd;clip-rule:evenodd;" cx="6.994" cy="-39.061" r="0.449"/>
		<circle style="fill-rule:evenodd;clip-rule:evenodd;" cx="10.994" cy="-39.061" r="0.449"/>
		<circle style="fill-rule:evenodd;clip-rule:evenodd;" cx="14.994" cy="-39.061" r="0.449"/>
		<circle style="fill-rule:evenodd;clip-rule:evenodd;" cx="18.994" cy="-39.061" r="0.449"/>
		<circle style="fill-rule:evenodd;clip-rule:evenodd;" cx="22.994" cy="-39.061" r="0.449"/>
		<circle style="fill-rule:evenodd;clip-rule:evenodd;" cx="26.994" cy="-39.061" r="0.449"/>
		<circle style="fill-rule:evenodd;clip-rule:evenodd;" cx="30.994" cy="-39.061" r="0.449"/>
		<circle style="fill-rule:evenodd;clip-rule:evenodd;" cx="34.994" cy="-39.061" r="0.449"/>
		<circle cx="38.994" cy="-39.061" r="0.449"/>
		<circle style="fill-rule:evenodd;clip-rule:evenodd;" cx="42.994" cy="-39.061" r="0.449"/>
		<circle style="fill-rule:evenodd;clip-rule:evenodd;" cx="46.994" cy="-39.061" r="0.449"/>
		<circle style="fill-rule:evenodd;clip-rule:evenodd;" cx="50.994" cy="-39.061" r="0.449"/>
		<circle style="fill-rule:evenodd;clip-rule:evenodd;" cx="54.994" cy="-39.061" r="0.449"/>
		<circle style="fill-rule:evenodd;clip-rule:evenodd;" cx="2.994" cy="-34.977" r="0.449"/>
		<circle style="fill-rule:evenodd;clip-rule:evenodd;" cx="6.994" cy="-34.977" r="0.449"/>
		<circle style="fill-rule:evenodd;clip-rule:evenodd;" cx="10.994" cy="-34.977" r="0.449"/>
		<circle style="fill-rule:evenodd;clip-rule:evenodd;" cx="14.994" cy="-34.977" r="0.449"/>
		<circle style="fill-rule:evenodd;clip-rule:evenodd;" cx="18.994" cy="-34.977" r="0.449"/>
		<circle style="fill-rule:evenodd;clip-rule:evenodd;" cx="22.994" cy="-34.977" r="0.449"/>
		<circle style="fill-rule:evenodd;clip-rule:evenodd;" cx="26.994" cy="-34.977" r="0.449"/>
		<circle style="fill-rule:evenodd;clip-rule:evenodd;" cx="30.994" cy="-34.977" r="0.449"/>
		<circle style="fill-rule:evenodd;clip-rule:evenodd;" cx="34.994" cy="-34.977" r="0.449"/>
		<circle style="fill-rule:evenodd;clip-rule:evenodd;" cx="38.994" cy="-34.977" r="0.449"/>
		<circle style="fill-rule:evenodd;clip-rule:evenodd;" cx="42.994" cy="-34.977" r="0.449"/>
		<circle style="fill-rule:evenodd;clip-rule:evenodd;" cx="46.994" cy="-34.977" r="0.449"/>
		<circle style="fill-rule:evenodd;clip-rule:evenodd;" cx="50.994" cy="-34.977" r="0.449"/>
		<circle style="fill-rule:evenodd;clip-rule:evenodd;" cx="54.994" cy="-34.977" r="0.449"/>
		<circle style="fill-rule:evenodd;clip-rule:evenodd;" cx="2.994" cy="-30.977" r="0.449"/>
		<circle style="fill-rule:evenodd;clip-rule:evenodd;" cx="6.994" cy="-30.977" r="0.449"/>
		<circle style="fill-rule:evenodd;clip-rule:evenodd;" cx="10.994" cy="-30.977" r="0.449"/>
		<circle style="fill-rule:evenodd;clip-rule:evenodd;" cx="14.994" cy="-30.977" r="0.449"/>
		<circle style="fill-rule:evenodd;clip-rule:evenodd;" cx="18.994" cy="-30.977" r="0.449"/>
		<circle style="fill-rule:evenodd;clip-rule:evenodd;" cx="22.994" cy="-30.977" r="0.449"/>
		<circle style="fill-rule:evenodd;clip-rule:evenodd;" cx="26.994" cy="-30.977" r="0.449"/>
		<circle style="fill-rule:evenodd;clip-rule:evenodd;" cx="30.994" cy="-30.977" r="0.449"/>
		<circle style="fill-rule:evenodd;clip-rule:evenodd;" cx="34.994" cy="-30.977" r="0.449"/>
		<circle style="fill-rule:evenodd;clip-rule:evenodd;" cx="38.994" cy="-30.977" r="0.449"/>
		<circle style="fill-rule:evenodd;clip-rule:evenodd;" cx="42.994" cy="-30.977" r="0.449"/>
		<circle style="fill-rule:evenodd;clip-rule:evenodd;" cx="46.994" cy="-30.977" r="0.449"/>
		<circle style="fill-rule:evenodd;clip-rule:evenodd;" cx="50.994" cy="-30.977" r="0.449"/>
		<circle style="fill-rule:evenodd;clip-rule:evenodd;" cx="54.994" cy="-30.977" r="0.449"/>
		<circle style="fill-rule:evenodd;clip-rule:evenodd;" cx="2.994" cy="-26.977" r="0.449"/>
		<circle style="fill-rule:evenodd;clip-rule:evenodd;" cx="6.994" cy="-26.977" r="0.449"/>
		<circle style="fill-rule:evenodd;clip-rule:evenodd;" cx="10.994" cy="-26.977" r="0.449"/>
		<circle style="fill-rule:evenodd;clip-rule:evenodd;" cx="14.994" cy="-26.977" r="0.449"/>
		<circle style="fill-rule:evenodd;clip-rule:evenodd;" cx="18.994" cy="-26.977" r="0.449"/>
		<circle style="fill-rule:evenodd;clip-rule:evenodd;" cx="22.994" cy="-26.977" r="0.449"/>
		<circle style="fill-rule:evenodd;clip-rule:evenodd;" cx="26.994" cy="-26.977" r="0.449"/>
		<circle style="fill-rule:evenodd;clip-rule:evenodd;" cx="30.994" cy="-26.977" r="0.449"/>
		<circle style="fill-rule:evenodd;clip-rule:evenodd;" cx="34.994" cy="-26.977" r="0.449"/>
		<circle style="fill-rule:evenodd;clip-rule:evenodd;" cx="38.994" cy="-26.977" r="0.449"/>
		<circle style="fill-rule:evenodd;clip-rule:evenodd;" cx="42.994" cy="-26.977" r="0.449"/>
		<circle style="fill-rule:evenodd;clip-rule:evenodd;" cx="46.994" cy="-26.977" r="0.449"/>
		<circle cx="50.994" cy="-26.977" r="0.449"/>
		<circle style="fill-rule:evenodd;clip-rule:evenodd;" cx="54.994" cy="-26.977" r="0.449"/>
		<circle style="fill-rule:evenodd;clip-rule:evenodd;" cx="2.994" cy="-22.977" r="0.449"/>
		<circle style="fill-rule:evenodd;clip-rule:evenodd;" cx="6.994" cy="-22.977" r="0.449"/>
		<circle style="fill-rule:evenodd;clip-rule:evenodd;" cx="10.994" cy="-22.977" r="0.449"/>
		<circle cx="14.994" cy="-22.977" r="0.449"/>
		<circle style="fill-rule:evenodd;clip-rule:evenodd;" cx="18.994" cy="-22.977" r="0.449"/>
		<circle style="fill-rule:evenodd;clip-rule:evenodd;" cx="22.994" cy="-22.977" r="0.449"/>
		<circle style="fill-rule:evenodd;clip-rule:evenodd;" cx="26.994" cy="-22.977" r="0.449"/>
		<circle style="fill-rule:evenodd;clip-rule:evenodd;" cx="30.994" cy="-22.977" r="0.449"/>
		<circle style="fill-rule:evenodd;clip-rule:evenodd;" cx="34.994" cy="-22.977" r="0.449"/>
		<circle style="fill-rule:evenodd;clip-rule:evenodd;" cx="38.994" cy="-22.977" r="0.449"/>
		<circle style="fill-rule:evenodd;clip-rule:evenodd;" cx="42.994" cy="-22.977" r="0.449"/>
		<circle style="fill-rule:evenodd;clip-rule:evenodd;" cx="46.994" cy="-22.977" r="0.449"/>
		<circle style="fill-rule:evenodd;clip-rule:evenodd;" cx="50.994" cy="-22.977" r="0.449"/>
		<circle style="fill-rule:evenodd;clip-rule:evenodd;" cx="54.994" cy="-22.977" r="0.449"/>
		<circle style="fill-rule:evenodd;clip-rule:evenodd;" cx="2.994" cy="-18.977" r="0.449"/>
		<circle style="fill-rule:evenodd;clip-rule:evenodd;" cx="6.994" cy="-18.977" r="0.449"/>
		<circle style="fill-rule:evenodd;clip-rule:evenodd;" cx="10.994" cy="-18.977" r="0.449"/>
		<circle style="fill-rule:evenodd;clip-rule:evenodd;" cx="14.994" cy="-18.977" r="0.449"/>
		<circle style="fill-rule:evenodd;clip-rule:evenodd;" cx="18.994" cy="-18.977" r="0.449"/>
		<circle style="fill-rule:evenodd;clip-rule:evenodd;" cx="22.994" cy="-18.977" r="0.449"/>
		<circle style="fill-rule:evenodd;clip-rule:evenodd;" cx="26.994" cy="-18.977" r="0.449"/>
		<circle style="fill-rule:evenodd;clip-rule:evenodd;" cx="30.994" cy="-18.977" r="0.449"/>
		<circle style="fill-rule:evenodd;clip-rule:evenodd;" cx="34.994" cy="-18.977" r="0.449"/>
		<circle style="fill-rule:evenodd;clip-rule:evenodd;" cx="38.994" cy="-18.977" r="0.449"/>
		<circle style="fill-rule:evenodd;clip-rule:evenodd;" cx="42.994" cy="-18.977" r="0.449"/>
		<circle style="fill-rule:evenodd;clip-rule:evenodd;" cx="46.994" cy="-18.977" r="0.449"/>
		<circle style="fill-rule:evenodd;clip-rule:evenodd;" cx="50.994" cy="-18.977" r="0.449"/>
		<circle style="fill-rule:evenodd;clip-rule:evenodd;" cx="54.994" cy="-18.977" r="0.449"/>
		<circle cx="2.994" cy="-14.977" r="0.449"/>
		<circle style="fill-rule:evenodd;clip-rule:evenodd;" cx="6.994" cy="-14.977" r="0.449"/>
		<circle style="fill-rule:evenodd;clip-rule:evenodd;" cx="10.994" cy="-14.977" r="0.449"/>
		<circle style="fill-rule:evenodd;clip-rule:evenodd;" cx="14.994" cy="-14.977" r="0.449"/>
		<circle style="fill-rule:evenodd;clip-rule:evenodd;" cx="18.994" cy="-14.977" r="0.449"/>
		<circle style="fill-rule:evenodd;clip-rule:evenodd;" cx="22.994" cy="-14.977" r="0.449"/>
		<circle style="fill-rule:evenodd;clip-rule:evenodd;" cx="26.994" cy="-14.977" r="0.449"/>
		<circle cx="30.994" cy="-14.977" r="0.449"/>
		<circle style="fill-rule:evenodd;clip-rule:evenodd;" cx="34.994" cy="-14.977" r="0.449"/>
		<circle style="fill-rule:evenodd;clip-rule:evenodd;" cx="38.994" cy="-14.977" r="0.449"/>
		<circle style="fill-rule:evenodd;clip-rule:evenodd;" cx="42.994" cy="-14.977" r="0.449"/>
		<circle style="fill-rule:evenodd;clip-rule:evenodd;" cx="46.994" cy="-14.977" r="0.449"/>
		<circle style="fill-rule:evenodd;clip-rule:evenodd;" cx="50.994" cy="-14.977" r="0.449"/>
		<circle style="fill-rule:evenodd;clip-rule:evenodd;" cx="54.994" cy="-14.977" r="0.449"/>
		<circle style="fill-rule:evenodd;clip-rule:evenodd;" cx="2.994" cy="-10.977" r="0.449"/>
		<circle style="fill-rule:evenodd;clip-rule:evenodd;" cx="6.994" cy="-10.977" r="0.449"/>
		<circle style="fill-rule:evenodd;clip-rule:evenodd;" cx="10.994" cy="-10.977" r="0.449"/>
		<circle style="fill-rule:evenodd;clip-rule:evenodd;" cx="14.994" cy="-10.977" r="0.449"/>
		<circle cx="18.994" cy="-10.977" r="0.449"/>
		<circle style="fill-rule:evenodd;clip-rule:evenodd;" cx="22.994" cy="-10.977" r="0.449"/>
		<circle style="fill-rule:evenodd;clip-rule:evenodd;" cx="26.994" cy="-10.977" r="0.449"/>
		<circle style="fill-rule:evenodd;clip-rule:evenodd;" cx="30.994" cy="-10.977" r="0.449"/>
		<circle style="fill-rule:evenodd;clip-rule:evenodd;" cx="34.994" cy="-10.977" r="0.449"/>
		<circle style="fill-rule:evenodd;clip-rule:evenodd;" cx="38.994" cy="-10.977" r="0.449"/>
		<circle style="fill-rule:evenodd;clip-rule:evenodd;" cx="42.994" cy="-10.977" r="0.449"/>
		<circle style="fill-rule:evenodd;clip-rule:evenodd;" cx="46.994" cy="-10.977" r="0.449"/>
		<circle style="fill-rule:evenodd;clip-rule:evenodd;" cx="50.994" cy="-10.977" r="0.449"/>
		<circle style="fill-rule:evenodd;clip-rule:evenodd;" cx="54.994" cy="-10.977" r="0.449"/>
		<circle style="fill-rule:evenodd;clip-rule:evenodd;" cx="2.994" cy="-6.977" r="0.449"/>
		<circle style="fill-rule:evenodd;clip-rule:evenodd;" cx="6.994" cy="-6.977" r="0.449"/>
		<circle style="fill-rule:evenodd;clip-rule:evenodd;" cx="10.994" cy="-6.977" r="0.449"/>
		<circle style="fill-rule:evenodd;clip-rule:evenodd;" cx="14.994" cy="-6.977" r="0.449"/>
		<circle style="fill-rule:evenodd;clip-rule:evenodd;" cx="18.994" cy="-6.977" r="0.449"/>
		<circle style="fill-rule:evenodd;clip-rule:evenodd;" cx="22.994" cy="-6.977" r="0.449"/>
		<circle style="fill-rule:evenodd;clip-rule:evenodd;" cx="26.994" cy="-6.977" r="0.449"/>
		<circle style="fill-rule:evenodd;clip-rule:evenodd;" cx="30.994" cy="-6.977" r="0.449"/>
		<circle style="fill-rule:evenodd;clip-rule:evenodd;" cx="34.994" cy="-6.977" r="0.449"/>
		<circle style="fill-rule:evenodd;clip-rule:evenodd;" cx="38.994" cy="-6.977" r="0.449"/>
		<circle style="fill-rule:evenodd;clip-rule:evenodd;" cx="42.994" cy="-6.977" r="0.449"/>
		<circle style="fill-rule:evenodd;clip-rule:evenodd;" cx="46.994" cy="-6.977" r="0.449"/>
		<circle style="fill-rule:evenodd;clip-rule:evenodd;" cx="50.994" cy="-6.977" r="0.449"/>
		<circle style="fill-rule:evenodd;clip-rule:evenodd;" cx="54.994" cy="-6.977" r="0.449"/>
		<circle style="fill-rule:evenodd;clip-rule:evenodd;" cx="2.994" cy="-2.977" r="0.449"/>
		<circle style="fill-rule:evenodd;clip-rule:evenodd;" cx="6.994" cy="-2.977" r="0.449"/>
		<circle style="fill-rule:evenodd;clip-rule:evenodd;" cx="10.994" cy="-2.977" r="0.449"/>
		<circle style="fill-rule:evenodd;clip-rule:evenodd;" cx="14.994" cy="-2.977" r="0.449"/>
		<circle style="fill-rule:evenodd;clip-rule:evenodd;" cx="18.994" cy="-2.977" r="0.449"/>
		<circle style="fill-rule:evenodd;clip-rule:evenodd;" cx="22.994" cy="-2.977" r="0.449"/>
		<circle style="fill-rule:evenodd;clip-rule:evenodd;" cx="26.994" cy="-2.977" r="0.449"/>
		<circle style="fill-rule:evenodd;clip-rule:evenodd;" cx="30.994" cy="-2.977" r="0.449"/>
		<circle style="fill-rule:evenodd;clip-rule:evenodd;" cx="34.994" cy="-2.977" r="0.449"/>
		<circle style="fill-rule:evenodd;clip-rule:evenodd;" cx="38.994" cy="-2.977" r="0.449"/>
		<circle style="fill-rule:evenodd;clip-rule:evenodd;" cx="42.994" cy="-2.977" r="0.449"/>
		<circle style="fill-rule:evenodd;clip-rule:evenodd;" cx="46.994" cy="-2.977" r="0.449"/>
		<circle style="fill-rule:evenodd;clip-rule:evenodd;" cx="50.994" cy="-2.977" r="0.449"/>
		<circle style="fill-rule:evenodd;clip-rule:evenodd;" cx="54.994" cy="-2.977" r="0.449"/>
	</g>
</svg>
