<?xml version="1.0" encoding="utf-8"?>
<svg xmlns="http://www.w3.org/2000/svg" version="1.1" x="0px" y="0px" xml:space="preserve" width="72.857" height="72.857" viewBox="1 -74.517 72.857 72.857">
	<g>
		<rect x="1" y="-74.517" style="fill:none;" width="72.857" height="72.857"/>

			<line style="fill-rule:evenodd;clip-rule:evenodd;fill:none;stroke:#000000;stroke-width:0.33;" x1="1.794" y1="-74.517" x2="1.794" y2="-1.66"/>

			<line style="fill-rule:evenodd;clip-rule:evenodd;fill:none;stroke:#000000;stroke-width:0.33;" x1="3.378" y1="-74.517" x2="3.378" y2="-1.66"/>

			<line style="fill-rule:evenodd;clip-rule:evenodd;fill:none;stroke:#000000;stroke-width:0.33;" x1="4.961" y1="-74.517" x2="4.961" y2="-1.66"/>

			<line style="fill-rule:evenodd;clip-rule:evenodd;fill:none;stroke:#000000;stroke-width:0.33;" x1="6.544" y1="-74.517" x2="6.544" y2="-1.66"/>

			<line style="fill-rule:evenodd;clip-rule:evenodd;fill:none;stroke:#000000;stroke-width:0.33;" x1="8.127" y1="-74.517" x2="8.127" y2="-1.66"/>

			<line style="fill-rule:evenodd;clip-rule:evenodd;fill:none;stroke:#000000;stroke-width:0.33;" x1="9.71" y1="-74.517" x2="9.71" y2="-1.66"/>

			<line style="fill-rule:evenodd;clip-rule:evenodd;fill:none;stroke:#000000;stroke-width:0.33;" x1="11.293" y1="-74.517" x2="11.293" y2="-1.66"/>

			<line style="fill-rule:evenodd;clip-rule:evenodd;fill:none;stroke:#000000;stroke-width:0.33;" x1="12.877" y1="-74.517" x2="12.877" y2="-1.66"/>

			<line style="fill-rule:evenodd;clip-rule:evenodd;fill:none;stroke:#000000;stroke-width:0.33;" x1="14.46" y1="-74.517" x2="14.46" y2="-1.66"/>

			<line style="fill-rule:evenodd;clip-rule:evenodd;fill:none;stroke:#000000;stroke-width:0.33;" x1="16.043" y1="-74.517" x2="16.043" y2="-1.66"/>

			<line style="fill-rule:evenodd;clip-rule:evenodd;fill:none;stroke:#000000;stroke-width:0.33;" x1="17.626" y1="-74.517" x2="17.626" y2="-1.66"/>

			<line style="fill-rule:evenodd;clip-rule:evenodd;fill:none;stroke:#000000;stroke-width:0.33;" x1="19.209" y1="-74.517" x2="19.209" y2="-1.66"/>

			<line style="fill-rule:evenodd;clip-rule:evenodd;fill:none;stroke:#000000;stroke-width:0.33;" x1="20.792" y1="-74.517" x2="20.792" y2="-1.66"/>

			<line style="fill-rule:evenodd;clip-rule:evenodd;fill:none;stroke:#000000;stroke-width:0.33;" x1="22.375" y1="-74.517" x2="22.375" y2="-1.66"/>

			<line style="fill-rule:evenodd;clip-rule:evenodd;fill:none;stroke:#000000;stroke-width:0.33;" x1="23.958" y1="-74.517" x2="23.958" y2="-1.66"/>

			<line style="fill-rule:evenodd;clip-rule:evenodd;fill:none;stroke:#000000;stroke-width:0.33;" x1="25.542" y1="-74.517" x2="25.542" y2="-1.66"/>

			<line style="fill-rule:evenodd;clip-rule:evenodd;fill:none;stroke:#000000;stroke-width:0.33;" x1="27.125" y1="-74.517" x2="27.125" y2="-1.66"/>

			<line style="fill-rule:evenodd;clip-rule:evenodd;fill:none;stroke:#000000;stroke-width:0.33;" x1="28.708" y1="-74.517" x2="28.708" y2="-1.66"/>

			<line style="fill-rule:evenodd;clip-rule:evenodd;fill:none;stroke:#000000;stroke-width:0.33;" x1="30.291" y1="-74.517" x2="30.291" y2="-1.66"/>

			<line style="fill-rule:evenodd;clip-rule:evenodd;fill:none;stroke:#000000;stroke-width:0.33;" x1="31.874" y1="-74.517" x2="31.874" y2="-1.66"/>

			<line style="fill-rule:evenodd;clip-rule:evenodd;fill:none;stroke:#000000;stroke-width:0.33;" x1="33.457" y1="-74.517" x2="33.457" y2="-1.66"/>

			<line style="fill-rule:evenodd;clip-rule:evenodd;fill:none;stroke:#000000;stroke-width:0.33;" x1="35.041" y1="-74.517" x2="35.041" y2="-1.66"/>

			<line style="fill-rule:evenodd;clip-rule:evenodd;fill:none;stroke:#000000;stroke-width:0.33;" x1="36.624" y1="-74.517" x2="36.624" y2="-1.66"/>

			<line style="fill-rule:evenodd;clip-rule:evenodd;fill:none;stroke:#000000;stroke-width:0.33;" x1="38.207" y1="-74.517" x2="38.207" y2="-1.66"/>

			<line style="fill-rule:evenodd;clip-rule:evenodd;fill:none;stroke:#000000;stroke-width:0.33;" x1="39.79" y1="-74.517" x2="39.79" y2="-1.66"/>

			<line style="fill-rule:evenodd;clip-rule:evenodd;fill:none;stroke:#000000;stroke-width:0.33;" x1="41.373" y1="-74.517" x2="41.373" y2="-1.66"/>

			<line style="fill-rule:evenodd;clip-rule:evenodd;fill:none;stroke:#000000;stroke-width:0.33;" x1="42.956" y1="-74.517" x2="42.956" y2="-1.66"/>

			<line style="fill-rule:evenodd;clip-rule:evenodd;fill:none;stroke:#000000;stroke-width:0.33;" x1="44.539" y1="-74.517" x2="44.539" y2="-1.66"/>

			<line style="fill-rule:evenodd;clip-rule:evenodd;fill:none;stroke:#000000;stroke-width:0.33;" x1="46.122" y1="-74.517" x2="46.122" y2="-1.66"/>

			<line style="fill-rule:evenodd;clip-rule:evenodd;fill:none;stroke:#000000;stroke-width:0.33;" x1="47.706" y1="-74.517" x2="47.706" y2="-1.66"/>

			<line style="fill-rule:evenodd;clip-rule:evenodd;fill:none;stroke:#000000;stroke-width:0.33;" x1="49.289" y1="-74.517" x2="49.289" y2="-1.66"/>

			<line style="fill-rule:evenodd;clip-rule:evenodd;fill:none;stroke:#000000;stroke-width:0.33;" x1="50.872" y1="-74.517" x2="50.872" y2="-1.66"/>

			<line style="fill-rule:evenodd;clip-rule:evenodd;fill:none;stroke:#000000;stroke-width:0.33;" x1="52.455" y1="-74.517" x2="52.455" y2="-1.66"/>

			<line style="fill-rule:evenodd;clip-rule:evenodd;fill:none;stroke:#000000;stroke-width:0.33;" x1="54.038" y1="-74.517" x2="54.038" y2="-1.66"/>

			<line style="fill-rule:evenodd;clip-rule:evenodd;fill:none;stroke:#000000;stroke-width:0.33;" x1="55.621" y1="-74.517" x2="55.621" y2="-1.66"/>

			<line style="fill-rule:evenodd;clip-rule:evenodd;fill:none;stroke:#000000;stroke-width:0.33;" x1="57.204" y1="-74.517" x2="57.204" y2="-1.66"/>

			<line style="fill-rule:evenodd;clip-rule:evenodd;fill:none;stroke:#000000;stroke-width:0.33;" x1="58.787" y1="-74.517" x2="58.787" y2="-1.66"/>

			<line style="fill-rule:evenodd;clip-rule:evenodd;fill:none;stroke:#000000;stroke-width:0.33;" x1="60.371" y1="-74.517" x2="60.371" y2="-1.66"/>

			<line style="fill-rule:evenodd;clip-rule:evenodd;fill:none;stroke:#000000;stroke-width:0.33;" x1="61.954" y1="-74.517" x2="61.954" y2="-1.66"/>

			<line style="fill-rule:evenodd;clip-rule:evenodd;fill:none;stroke:#000000;stroke-width:0.33;" x1="63.537" y1="-74.517" x2="63.537" y2="-1.66"/>

			<line style="fill-rule:evenodd;clip-rule:evenodd;fill:none;stroke:#000000;stroke-width:0.33;" x1="65.12" y1="-74.517" x2="65.12" y2="-1.66"/>

			<line style="fill-rule:evenodd;clip-rule:evenodd;fill:none;stroke:#000000;stroke-width:0.33;" x1="66.703" y1="-74.517" x2="66.703" y2="-1.66"/>
		<line style="fill:none;stroke:#000000;stroke-width:0.33;" x1="68.286" y1="-74.517" x2="68.286" y2="-1.66"/>

			<line style="fill-rule:evenodd;clip-rule:evenodd;fill:none;stroke:#000000;stroke-width:0.33;" x1="69.869" y1="-74.517" x2="69.869" y2="-1.66"/>

			<line style="fill-rule:evenodd;clip-rule:evenodd;fill:none;stroke:#000000;stroke-width:0.33;" x1="71.452" y1="-74.517" x2="71.452" y2="-1.66"/>

			<line style="fill-rule:evenodd;clip-rule:evenodd;fill:none;stroke:#000000;stroke-width:0.33;" x1="73.045" y1="-74.517" x2="73.045" y2="-1.66"/>
	</g>
</svg>
