<?xml version="1.0" encoding="utf-8"?>
<svg xmlns="http://www.w3.org/2000/svg" version="1.1" x="0px" y="0px" xml:space="preserve" width="76.785" height="76.785" viewBox="0 -76.785 76.785 76.785">
	<g>
		<rect x="0" y="-76.785" style="fill:none;" width="76.785" height="76.785"/>

			<line style="fill-rule:evenodd;clip-rule:evenodd;fill:none;stroke:#000000;stroke-width:2.8;" x1="3.011" y1="-76.785" x2="3.011" y2="0"/>

			<line style="fill-rule:evenodd;clip-rule:evenodd;fill:none;stroke:#000000;stroke-width:2.8;" x1="8.913" y1="-76.785" x2="8.913" y2="0"/>

			<line style="fill-rule:evenodd;clip-rule:evenodd;fill:none;stroke:#000000;stroke-width:2.8;" x1="14.816" y1="-76.785" x2="14.816" y2="0"/>

			<line style="fill-rule:evenodd;clip-rule:evenodd;fill:none;stroke:#000000;stroke-width:2.8;" x1="20.719" y1="-76.785" x2="20.719" y2="0"/>

			<line style="fill-rule:evenodd;clip-rule:evenodd;fill:none;stroke:#000000;stroke-width:2.8;" x1="26.622" y1="-76.785" x2="26.622" y2="0"/>

			<line style="fill-rule:evenodd;clip-rule:evenodd;fill:none;stroke:#000000;stroke-width:2.8;" x1="32.525" y1="-76.785" x2="32.525" y2="0"/>

			<line style="fill-rule:evenodd;clip-rule:evenodd;fill:none;stroke:#000000;stroke-width:2.8;" x1="38.428" y1="-76.785" x2="38.428" y2="0"/>

			<line style="fill-rule:evenodd;clip-rule:evenodd;fill:none;stroke:#000000;stroke-width:2.8;" x1="44.331" y1="-76.785" x2="44.331" y2="0"/>

			<line style="fill-rule:evenodd;clip-rule:evenodd;fill:none;stroke:#000000;stroke-width:2.8;" x1="50.234" y1="-76.785" x2="50.234" y2="0"/>

			<line style="fill-rule:evenodd;clip-rule:evenodd;fill:none;stroke:#000000;stroke-width:2.8;" x1="56.137" y1="-76.785" x2="56.137" y2="0"/>

			<line style="fill-rule:evenodd;clip-rule:evenodd;fill:none;stroke:#000000;stroke-width:2.8;" x1="62.04" y1="-76.785" x2="62.04" y2="0"/>

			<line style="fill-rule:evenodd;clip-rule:evenodd;fill:none;stroke:#000000;stroke-width:2.8;" x1="67.943" y1="-76.785" x2="67.943" y2="0"/>

			<line style="fill-rule:evenodd;clip-rule:evenodd;fill:none;stroke:#000000;stroke-width:2.8;" x1="73.846" y1="-76.785" x2="73.846" y2="0"/>
	</g>
</svg>
