<?xml version="1.0" encoding="utf-8"?>
<svg xmlns="http://www.w3.org/2000/svg" version="1.1" x="0px" y="0px" xml:space="preserve" width="76.785" height="76.784" viewBox="3.589 -83.384 76.785 76.784">
	<g>
		<rect x="3.589" y="-83.384" style="fill:none;" width="76.785" height="76.784"/>
		<rect x="3.589" y="-83.384" width="76.785" height="76.784"/>

			<line style="fill-rule:evenodd;clip-rule:evenodd;fill:none;stroke:#FFFFFF;stroke-width:2.8;" x1="6.6" y1="-83.384" x2="6.6" y2="-6.6"/>

			<line style="fill-rule:evenodd;clip-rule:evenodd;fill:none;stroke:#FFFFFF;stroke-width:2.8;" x1="12.503" y1="-83.384" x2="12.503" y2="-6.6"/>

			<line style="fill-rule:evenodd;clip-rule:evenodd;fill:none;stroke:#FFFFFF;stroke-width:2.8;" x1="18.406" y1="-83.384" x2="18.406" y2="-6.6"/>

			<line style="fill-rule:evenodd;clip-rule:evenodd;fill:none;stroke:#FFFFFF;stroke-width:2.8;" x1="24.309" y1="-83.384" x2="24.309" y2="-6.6"/>

			<line style="fill-rule:evenodd;clip-rule:evenodd;fill:none;stroke:#FFFFFF;stroke-width:2.8;" x1="30.212" y1="-83.384" x2="30.212" y2="-6.6"/>

			<line style="fill-rule:evenodd;clip-rule:evenodd;fill:none;stroke:#FFFFFF;stroke-width:2.8;" x1="36.115" y1="-83.384" x2="36.115" y2="-6.6"/>

			<line style="fill-rule:evenodd;clip-rule:evenodd;fill:none;stroke:#FFFFFF;stroke-width:2.8;" x1="42.018" y1="-83.384" x2="42.018" y2="-6.6"/>

			<line style="fill-rule:evenodd;clip-rule:evenodd;fill:none;stroke:#FFFFFF;stroke-width:2.8;" x1="47.921" y1="-83.384" x2="47.921" y2="-6.6"/>

			<line style="fill-rule:evenodd;clip-rule:evenodd;fill:none;stroke:#FFFFFF;stroke-width:2.8;" x1="53.824" y1="-83.384" x2="53.824" y2="-6.6"/>

			<line style="fill-rule:evenodd;clip-rule:evenodd;fill:none;stroke:#FFFFFF;stroke-width:2.8;" x1="59.727" y1="-83.384" x2="59.727" y2="-6.6"/>

			<line style="fill-rule:evenodd;clip-rule:evenodd;fill:none;stroke:#FFFFFF;stroke-width:2.8;" x1="65.629" y1="-83.384" x2="65.629" y2="-6.6"/>

			<line style="fill-rule:evenodd;clip-rule:evenodd;fill:none;stroke:#FFFFFF;stroke-width:2.8;" x1="71.533" y1="-83.384" x2="71.533" y2="-6.6"/>

			<line style="fill-rule:evenodd;clip-rule:evenodd;fill:none;stroke:#FFFFFF;stroke-width:2.8;" x1="77.436" y1="-83.384" x2="77.436" y2="-6.6"/>
	</g>
</svg>
