<?xml version="1.0" encoding="utf-8"?>
<svg xmlns="http://www.w3.org/2000/svg" version="1.1" x="0px" y="0px" xml:space="preserve" width="73.428" height="73.428" viewBox="0 -73.429 73.428 73.428">
	<g>
		<rect x="0" y="-73.429" style="fill:none;" width="73.428" height="73.428"/>
		<rect y="-73.429" style="fill-rule:evenodd;clip-rule:evenodd;" width="73.428" height="73.428"/>

			<line style="fill-rule:evenodd;clip-rule:evenodd;fill:none;stroke:#FFFFFF;stroke-width:0.43;" x1="2.283" y1="-73.429" x2="2.283" y2="-0.001"/>

			<line style="fill-rule:evenodd;clip-rule:evenodd;fill:none;stroke:#FFFFFF;stroke-width:0.43;" x1="6.602" y1="-73.429" x2="6.602" y2="-0.001"/>

			<line style="fill-rule:evenodd;clip-rule:evenodd;fill:none;stroke:#FFFFFF;stroke-width:0.43;" x1="10.922" y1="-73.429" x2="10.922" y2="-0.001"/>

			<line style="fill-rule:evenodd;clip-rule:evenodd;fill:none;stroke:#FFFFFF;stroke-width:0.43;" x1="15.242" y1="-73.429" x2="15.242" y2="-0.001"/>

			<line style="fill-rule:evenodd;clip-rule:evenodd;fill:none;stroke:#FFFFFF;stroke-width:0.43;" x1="19.562" y1="-73.429" x2="19.562" y2="-0.001"/>

			<line style="fill-rule:evenodd;clip-rule:evenodd;fill:none;stroke:#FFFFFF;stroke-width:0.43;" x1="23.882" y1="-73.429" x2="23.882" y2="-0.001"/>

			<line style="fill-rule:evenodd;clip-rule:evenodd;fill:none;stroke:#FFFFFF;stroke-width:0.43;" x1="28.202" y1="-73.429" x2="28.202" y2="-0.001"/>

			<line style="fill-rule:evenodd;clip-rule:evenodd;fill:none;stroke:#FFFFFF;stroke-width:0.43;" x1="32.521" y1="-73.429" x2="32.521" y2="-0.001"/>

			<line style="fill-rule:evenodd;clip-rule:evenodd;fill:none;stroke:#FFFFFF;stroke-width:0.43;" x1="36.841" y1="-73.429" x2="36.841" y2="-0.001"/>

			<line style="fill-rule:evenodd;clip-rule:evenodd;fill:none;stroke:#FFFFFF;stroke-width:0.43;" x1="41.161" y1="-73.429" x2="41.161" y2="-0.001"/>

			<line style="fill-rule:evenodd;clip-rule:evenodd;fill:none;stroke:#FFFFFF;stroke-width:0.43;" x1="45.481" y1="-73.429" x2="45.481" y2="-0.001"/>

			<line style="fill-rule:evenodd;clip-rule:evenodd;fill:none;stroke:#FFFFFF;stroke-width:0.43;" x1="49.801" y1="-73.429" x2="49.801" y2="-0.001"/>

			<line style="fill-rule:evenodd;clip-rule:evenodd;fill:none;stroke:#FFFFFF;stroke-width:0.43;" x1="54.121" y1="-73.429" x2="54.121" y2="-0.001"/>

			<line style="fill-rule:evenodd;clip-rule:evenodd;fill:none;stroke:#FFFFFF;stroke-width:0.43;" x1="58.44" y1="-73.429" x2="58.44" y2="-0.001"/>

			<line style="fill-rule:evenodd;clip-rule:evenodd;fill:none;stroke:#FFFFFF;stroke-width:0.43;" x1="62.76" y1="-73.429" x2="62.76" y2="-0.001"/>

			<line style="fill-rule:evenodd;clip-rule:evenodd;fill:none;stroke:#FFFFFF;stroke-width:0.43;" x1="67.08" y1="-73.429" x2="67.08" y2="-0.001"/>

			<line style="fill-rule:evenodd;clip-rule:evenodd;fill:none;stroke:#FFFFFF;stroke-width:0.43;" x1="71.4" y1="-73.429" x2="71.4" y2="-0.001"/>
	</g>
</svg>
