<?xml version="1.0" encoding="utf-8"?>
<svg xmlns="http://www.w3.org/2000/svg" version="1.1" x="0px" y="0px" xml:space="preserve" width="79.25" height="79.25" viewBox="0 -79.334 79.25 79.25">
	<g>
		<rect y="-79.334" style="fill:none;" width="79.25" height="79.25"/>

			<line style="fill-rule:evenodd;clip-rule:evenodd;fill:none;stroke:#00AEEF;stroke-width:0.9;" x1="14.252" y1="-13.222" x2="15.125" y2="-15.006"/>

			<line style="fill-rule:evenodd;clip-rule:evenodd;fill:none;stroke:#00AEEF;stroke-width:0.9;" x1="8.03" y1="-11.883" x2="10.008" y2="-12.072"/>

			<line style="fill-rule:evenodd;clip-rule:evenodd;fill:none;stroke:#00AEEF;stroke-width:0.9;" x1="3.384" y1="-12.277" x2="4.769" y2="-13.701"/>

			<line style="fill-rule:evenodd;clip-rule:evenodd;fill:none;stroke:#00AEEF;stroke-width:0.9;" x1="13.002" y1="-9.055" x2="12.558" y2="-7.119"/>

			<line style="fill-rule:evenodd;clip-rule:evenodd;fill:none;stroke:#00AEEF;stroke-width:0.9;" x1="7.833" y1="-8.143" x2="5.914" y2="-8.654"/>

			<line style="fill-rule:evenodd;clip-rule:evenodd;fill:none;stroke:#00AEEF;stroke-width:0.9;" x1="1.494" y1="-9.757" x2="0.749" y2="-11.599"/>

			<line style="fill-rule:evenodd;clip-rule:evenodd;fill:none;stroke:#00AEEF;stroke-width:0.9;" x1="3.463" y1="-6.292" x2="1.663" y2="-5.452"/>

			<line style="fill-rule:evenodd;clip-rule:evenodd;fill:none;stroke:#00AEEF;stroke-width:0.9;" x1="9.133" y1="-4.127" x2="7.436" y2="-3.094"/>

			<line style="fill-rule:evenodd;clip-rule:evenodd;fill:none;stroke:#00AEEF;stroke-width:0.9;" x1="14.797" y1="-2.71" x2="13.067" y2="-3.685"/>

			<line style="fill-rule:evenodd;clip-rule:evenodd;fill:none;stroke:#00AEEF;stroke-width:0.9;" x1="10.781" y1="-1.056" x2="10.598" y2="-0.083"/>

			<line style="fill-rule:evenodd;clip-rule:evenodd;fill:none;stroke:#00AEEF;stroke-width:0.9;" x1="3.629" y1="-1.232" x2="2.671" y2="-2.972"/>

			<line style="fill-rule:evenodd;clip-rule:evenodd;fill:none;stroke:#00AEEF;stroke-width:0.9;" x1="10.668" y1="-16.333" x2="10.402" y2="-14.935"/>

			<line style="fill-rule:evenodd;clip-rule:evenodd;fill:none;stroke:#00AEEF;stroke-width:0.9;" x1="30.09" y1="-13.222" x2="30.964" y2="-15.006"/>

			<line style="fill-rule:evenodd;clip-rule:evenodd;fill:none;stroke:#00AEEF;stroke-width:0.9;" x1="23.869" y1="-11.883" x2="25.847" y2="-12.072"/>

			<line style="fill-rule:evenodd;clip-rule:evenodd;fill:none;stroke:#00AEEF;stroke-width:0.9;" x1="19.223" y1="-12.277" x2="20.608" y2="-13.701"/>

			<line style="fill-rule:evenodd;clip-rule:evenodd;fill:none;stroke:#00AEEF;stroke-width:0.9;" x1="28.841" y1="-9.055" x2="28.397" y2="-7.119"/>

			<line style="fill-rule:evenodd;clip-rule:evenodd;fill:none;stroke:#00AEEF;stroke-width:0.9;" x1="23.672" y1="-8.143" x2="21.753" y2="-8.654"/>

			<line style="fill-rule:evenodd;clip-rule:evenodd;fill:none;stroke:#00AEEF;stroke-width:0.9;" x1="17.333" y1="-9.757" x2="16.589" y2="-11.599"/>

			<line style="fill-rule:evenodd;clip-rule:evenodd;fill:none;stroke:#00AEEF;stroke-width:0.9;" x1="19.302" y1="-6.292" x2="17.502" y2="-5.452"/>

			<line style="fill-rule:evenodd;clip-rule:evenodd;fill:none;stroke:#00AEEF;stroke-width:0.9;" x1="24.972" y1="-4.127" x2="23.275" y2="-3.094"/>

			<line style="fill-rule:evenodd;clip-rule:evenodd;fill:none;stroke:#00AEEF;stroke-width:0.9;" x1="30.636" y1="-2.71" x2="28.906" y2="-3.685"/>

			<line style="fill-rule:evenodd;clip-rule:evenodd;fill:none;stroke:#00AEEF;stroke-width:0.9;" x1="26.691" y1="-1.056" x2="26.508" y2="-0.083"/>

			<line style="fill-rule:evenodd;clip-rule:evenodd;fill:none;stroke:#00AEEF;stroke-width:0.9;" x1="19.469" y1="-1.232" x2="18.51" y2="-2.972"/>

			<line style="fill-rule:evenodd;clip-rule:evenodd;fill:none;stroke:#00AEEF;stroke-width:0.9;" x1="26.507" y1="-16.333" x2="26.241" y2="-14.935"/>

			<line style="fill-rule:evenodd;clip-rule:evenodd;fill:none;stroke:#00AEEF;stroke-width:0.9;" x1="45.929" y1="-13.222" x2="46.803" y2="-15.006"/>

			<line style="fill-rule:evenodd;clip-rule:evenodd;fill:none;stroke:#00AEEF;stroke-width:0.9;" x1="39.708" y1="-11.883" x2="41.686" y2="-12.072"/>

			<line style="fill-rule:evenodd;clip-rule:evenodd;fill:none;stroke:#00AEEF;stroke-width:0.9;" x1="35.062" y1="-12.277" x2="36.447" y2="-13.701"/>

			<line style="fill-rule:evenodd;clip-rule:evenodd;fill:none;stroke:#00AEEF;stroke-width:0.9;" x1="44.68" y1="-9.055" x2="44.236" y2="-7.119"/>

			<line style="fill-rule:evenodd;clip-rule:evenodd;fill:none;stroke:#00AEEF;stroke-width:0.9;" x1="39.511" y1="-8.143" x2="37.592" y2="-8.654"/>

			<line style="fill-rule:evenodd;clip-rule:evenodd;fill:none;stroke:#00AEEF;stroke-width:0.9;" x1="33.172" y1="-9.757" x2="32.428" y2="-11.599"/>

			<line style="fill-rule:evenodd;clip-rule:evenodd;fill:none;stroke:#00AEEF;stroke-width:0.9;" x1="35.141" y1="-6.292" x2="33.341" y2="-5.452"/>

			<line style="fill-rule:evenodd;clip-rule:evenodd;fill:none;stroke:#00AEEF;stroke-width:0.9;" x1="40.811" y1="-4.127" x2="39.114" y2="-3.094"/>

			<line style="fill-rule:evenodd;clip-rule:evenodd;fill:none;stroke:#00AEEF;stroke-width:0.9;" x1="46.475" y1="-2.71" x2="44.745" y2="-3.685"/>

			<line style="fill-rule:evenodd;clip-rule:evenodd;fill:none;stroke:#00AEEF;stroke-width:0.9;" x1="42.459" y1="-1.056" x2="42.275" y2="-0.083"/>

			<line style="fill-rule:evenodd;clip-rule:evenodd;fill:none;stroke:#00AEEF;stroke-width:0.9;" x1="35.308" y1="-1.232" x2="34.349" y2="-2.972"/>

			<line style="fill-rule:evenodd;clip-rule:evenodd;fill:none;stroke:#00AEEF;stroke-width:0.9;" x1="42.346" y1="-16.333" x2="42.08" y2="-14.935"/>

			<line style="fill-rule:evenodd;clip-rule:evenodd;fill:none;stroke:#00AEEF;stroke-width:0.9;" x1="61.769" y1="-13.222" x2="62.642" y2="-15.006"/>

			<line style="fill-rule:evenodd;clip-rule:evenodd;fill:none;stroke:#00AEEF;stroke-width:0.9;" x1="55.547" y1="-11.883" x2="57.524" y2="-12.072"/>

			<line style="fill-rule:evenodd;clip-rule:evenodd;fill:none;stroke:#00AEEF;stroke-width:0.9;" x1="50.901" y1="-12.277" x2="52.286" y2="-13.701"/>

			<line style="fill-rule:evenodd;clip-rule:evenodd;fill:none;stroke:#00AEEF;stroke-width:0.9;" x1="60.519" y1="-9.055" x2="60.075" y2="-7.119"/>

			<line style="fill-rule:evenodd;clip-rule:evenodd;fill:none;stroke:#00AEEF;stroke-width:0.9;" x1="55.35" y1="-8.143" x2="53.431" y2="-8.654"/>

			<line style="fill-rule:evenodd;clip-rule:evenodd;fill:none;stroke:#00AEEF;stroke-width:0.9;" x1="49.011" y1="-9.757" x2="48.267" y2="-11.599"/>

			<line style="fill-rule:evenodd;clip-rule:evenodd;fill:none;stroke:#00AEEF;stroke-width:0.9;" x1="50.979" y1="-6.292" x2="49.18" y2="-5.452"/>

			<line style="fill-rule:evenodd;clip-rule:evenodd;fill:none;stroke:#00AEEF;stroke-width:0.9;" x1="56.65" y1="-4.127" x2="54.953" y2="-3.094"/>

			<line style="fill-rule:evenodd;clip-rule:evenodd;fill:none;stroke:#00AEEF;stroke-width:0.9;" x1="62.314" y1="-2.71" x2="60.583" y2="-3.685"/>

			<line style="fill-rule:evenodd;clip-rule:evenodd;fill:none;stroke:#00AEEF;stroke-width:0.9;" x1="58.298" y1="-1.056" x2="58.114" y2="-0.083"/>

			<line style="fill-rule:evenodd;clip-rule:evenodd;fill:none;stroke:#00AEEF;stroke-width:0.9;" x1="51.146" y1="-1.232" x2="50.188" y2="-2.972"/>

			<line style="fill-rule:evenodd;clip-rule:evenodd;fill:none;stroke:#00AEEF;stroke-width:0.9;" x1="58.186" y1="-16.333" x2="57.919" y2="-14.935"/>

			<line style="fill-rule:evenodd;clip-rule:evenodd;fill:none;stroke:#00AEEF;stroke-width:0.9;" x1="77.607" y1="-13.222" x2="78.481" y2="-15.006"/>

			<line style="fill-rule:evenodd;clip-rule:evenodd;fill:none;stroke:#00AEEF;stroke-width:0.9;" x1="71.386" y1="-11.883" x2="73.364" y2="-12.072"/>

			<line style="fill-rule:evenodd;clip-rule:evenodd;fill:none;stroke:#00AEEF;stroke-width:0.9;" x1="66.74" y1="-12.277" x2="68.124" y2="-13.701"/>

			<line style="fill-rule:evenodd;clip-rule:evenodd;fill:none;stroke:#00AEEF;stroke-width:0.9;" x1="76.358" y1="-9.055" x2="75.914" y2="-7.119"/>

			<line style="fill-rule:evenodd;clip-rule:evenodd;fill:none;stroke:#00AEEF;stroke-width:0.9;" x1="71.189" y1="-8.143" x2="69.27" y2="-8.654"/>

			<line style="fill-rule:evenodd;clip-rule:evenodd;fill:none;stroke:#00AEEF;stroke-width:0.9;" x1="64.85" y1="-9.757" x2="64.105" y2="-11.599"/>

			<line style="fill-rule:evenodd;clip-rule:evenodd;fill:none;stroke:#00AEEF;stroke-width:0.9;" x1="66.819" y1="-6.292" x2="65.019" y2="-5.452"/>

			<line style="fill-rule:evenodd;clip-rule:evenodd;fill:none;stroke:#00AEEF;stroke-width:0.9;" x1="72.489" y1="-4.127" x2="70.792" y2="-3.094"/>

			<line style="fill-rule:evenodd;clip-rule:evenodd;fill:none;stroke:#00AEEF;stroke-width:0.9;" x1="78.153" y1="-2.71" x2="76.423" y2="-3.685"/>

			<line style="fill-rule:evenodd;clip-rule:evenodd;fill:none;stroke:#00AEEF;stroke-width:0.9;" x1="74.137" y1="-1.056" x2="73.954" y2="-0.083"/>

			<line style="fill-rule:evenodd;clip-rule:evenodd;fill:none;stroke:#00AEEF;stroke-width:0.9;" x1="66.985" y1="-1.232" x2="66.027" y2="-2.972"/>

			<line style="fill-rule:evenodd;clip-rule:evenodd;fill:none;stroke:#00AEEF;stroke-width:0.9;" x1="74.024" y1="-16.333" x2="73.758" y2="-14.935"/>

			<line style="fill-rule:evenodd;clip-rule:evenodd;fill:none;stroke:#00AEEF;stroke-width:0.9;" x1="14.252" y1="-29.061" x2="15.125" y2="-30.845"/>

			<line style="fill-rule:evenodd;clip-rule:evenodd;fill:none;stroke:#00AEEF;stroke-width:0.9;" x1="8.03" y1="-27.722" x2="10.008" y2="-27.911"/>

			<line style="fill-rule:evenodd;clip-rule:evenodd;fill:none;stroke:#00AEEF;stroke-width:0.9;" x1="3.384" y1="-28.116" x2="4.769" y2="-29.541"/>

			<line style="fill-rule:evenodd;clip-rule:evenodd;fill:none;stroke:#00AEEF;stroke-width:0.9;" x1="12.558" y1="-22.958" x2="13.002" y2="-24.894"/>

			<line style="fill-rule:evenodd;clip-rule:evenodd;fill:none;stroke:#00AEEF;stroke-width:0.9;" x1="7.833" y1="-23.982" x2="5.914" y2="-24.494"/>

			<line style="fill-rule:evenodd;clip-rule:evenodd;fill:none;stroke:#00AEEF;stroke-width:0.9;" x1="1.494" y1="-25.596" x2="0.749" y2="-27.438"/>

			<line style="fill-rule:evenodd;clip-rule:evenodd;fill:none;stroke:#00AEEF;stroke-width:0.9;" x1="3.463" y1="-22.131" x2="1.663" y2="-21.291"/>

			<line style="fill-rule:evenodd;clip-rule:evenodd;fill:none;stroke:#00AEEF;stroke-width:0.9;" x1="9.133" y1="-19.965" x2="7.436" y2="-18.933"/>

			<line style="fill-rule:evenodd;clip-rule:evenodd;fill:none;stroke:#00AEEF;stroke-width:0.9;" x1="14.797" y1="-18.549" x2="13.067" y2="-19.523"/>

			<line style="fill-rule:evenodd;clip-rule:evenodd;fill:none;stroke:#00AEEF;stroke-width:0.9;" x1="10.55" y1="-15.674" x2="10.781" y2="-16.895"/>

			<line style="fill-rule:evenodd;clip-rule:evenodd;fill:none;stroke:#00AEEF;stroke-width:0.9;" x1="2.671" y1="-18.811" x2="3.629" y2="-17.071"/>

			<line style="fill-rule:evenodd;clip-rule:evenodd;fill:none;stroke:#00AEEF;stroke-width:0.9;" x1="10.668" y1="-32.171" x2="10.402" y2="-30.774"/>

			<line style="fill-rule:evenodd;clip-rule:evenodd;fill:none;stroke:#00AEEF;stroke-width:0.9;" x1="30.09" y1="-29.061" x2="30.964" y2="-30.845"/>

			<line style="fill-rule:evenodd;clip-rule:evenodd;fill:none;stroke:#00AEEF;stroke-width:0.9;" x1="23.869" y1="-27.722" x2="25.847" y2="-27.911"/>

			<line style="fill-rule:evenodd;clip-rule:evenodd;fill:none;stroke:#00AEEF;stroke-width:0.9;" x1="19.223" y1="-28.116" x2="20.608" y2="-29.541"/>

			<line style="fill-rule:evenodd;clip-rule:evenodd;fill:none;stroke:#00AEEF;stroke-width:0.9;" x1="28.397" y1="-22.958" x2="28.841" y2="-24.894"/>

			<line style="fill-rule:evenodd;clip-rule:evenodd;fill:none;stroke:#00AEEF;stroke-width:0.9;" x1="23.672" y1="-23.982" x2="21.753" y2="-24.494"/>

			<line style="fill-rule:evenodd;clip-rule:evenodd;fill:none;stroke:#00AEEF;stroke-width:0.9;" x1="17.333" y1="-25.596" x2="16.589" y2="-27.438"/>

			<line style="fill-rule:evenodd;clip-rule:evenodd;fill:none;stroke:#00AEEF;stroke-width:0.9;" x1="19.302" y1="-22.131" x2="17.502" y2="-21.291"/>

			<line style="fill-rule:evenodd;clip-rule:evenodd;fill:none;stroke:#00AEEF;stroke-width:0.9;" x1="24.972" y1="-19.965" x2="23.275" y2="-18.933"/>

			<line style="fill-rule:evenodd;clip-rule:evenodd;fill:none;stroke:#00AEEF;stroke-width:0.9;" x1="30.636" y1="-18.549" x2="28.906" y2="-19.523"/>

			<line style="fill-rule:evenodd;clip-rule:evenodd;fill:none;stroke:#00AEEF;stroke-width:0.9;" x1="26.39" y1="-15.674" x2="26.62" y2="-16.895"/>

			<line style="fill-rule:evenodd;clip-rule:evenodd;fill:none;stroke:#00AEEF;stroke-width:0.9;" x1="18.51" y1="-18.811" x2="19.469" y2="-17.071"/>

			<line style="fill-rule:evenodd;clip-rule:evenodd;fill:none;stroke:#00AEEF;stroke-width:0.9;" x1="26.507" y1="-32.171" x2="26.241" y2="-30.774"/>

			<line style="fill-rule:evenodd;clip-rule:evenodd;fill:none;stroke:#00AEEF;stroke-width:0.9;" x1="45.929" y1="-29.061" x2="46.803" y2="-30.845"/>

			<line style="fill-rule:evenodd;clip-rule:evenodd;fill:none;stroke:#00AEEF;stroke-width:0.9;" x1="39.708" y1="-27.722" x2="41.686" y2="-27.911"/>

			<line style="fill-rule:evenodd;clip-rule:evenodd;fill:none;stroke:#00AEEF;stroke-width:0.9;" x1="35.062" y1="-28.116" x2="36.447" y2="-29.541"/>

			<line style="fill-rule:evenodd;clip-rule:evenodd;fill:none;stroke:#00AEEF;stroke-width:0.9;" x1="44.236" y1="-22.958" x2="44.68" y2="-24.894"/>

			<line style="fill-rule:evenodd;clip-rule:evenodd;fill:none;stroke:#00AEEF;stroke-width:0.9;" x1="39.511" y1="-23.982" x2="37.592" y2="-24.494"/>

			<line style="fill-rule:evenodd;clip-rule:evenodd;fill:none;stroke:#00AEEF;stroke-width:0.9;" x1="33.172" y1="-25.596" x2="32.428" y2="-27.438"/>

			<line style="fill-rule:evenodd;clip-rule:evenodd;fill:none;stroke:#00AEEF;stroke-width:0.9;" x1="35.141" y1="-22.131" x2="33.341" y2="-21.291"/>

			<line style="fill-rule:evenodd;clip-rule:evenodd;fill:none;stroke:#00AEEF;stroke-width:0.9;" x1="40.811" y1="-19.965" x2="39.114" y2="-18.933"/>

			<line style="fill-rule:evenodd;clip-rule:evenodd;fill:none;stroke:#00AEEF;stroke-width:0.9;" x1="46.475" y1="-18.549" x2="44.745" y2="-19.523"/>

			<line style="fill-rule:evenodd;clip-rule:evenodd;fill:none;stroke:#00AEEF;stroke-width:0.9;" x1="42.229" y1="-15.674" x2="42.459" y2="-16.895"/>

			<line style="fill-rule:evenodd;clip-rule:evenodd;fill:none;stroke:#00AEEF;stroke-width:0.9;" x1="34.349" y1="-18.811" x2="35.308" y2="-17.071"/>

			<line style="fill-rule:evenodd;clip-rule:evenodd;fill:none;stroke:#00AEEF;stroke-width:0.9;" x1="42.346" y1="-32.171" x2="42.08" y2="-30.774"/>

			<line style="fill-rule:evenodd;clip-rule:evenodd;fill:none;stroke:#00AEEF;stroke-width:0.9;" x1="61.769" y1="-29.061" x2="62.642" y2="-30.845"/>

			<line style="fill-rule:evenodd;clip-rule:evenodd;fill:none;stroke:#00AEEF;stroke-width:0.9;" x1="55.547" y1="-27.722" x2="57.524" y2="-27.911"/>

			<line style="fill-rule:evenodd;clip-rule:evenodd;fill:none;stroke:#00AEEF;stroke-width:0.9;" x1="50.901" y1="-28.116" x2="52.286" y2="-29.541"/>

			<line style="fill-rule:evenodd;clip-rule:evenodd;fill:none;stroke:#00AEEF;stroke-width:0.9;" x1="60.075" y1="-22.958" x2="60.519" y2="-24.894"/>

			<line style="fill-rule:evenodd;clip-rule:evenodd;fill:none;stroke:#00AEEF;stroke-width:0.9;" x1="55.35" y1="-23.982" x2="53.431" y2="-24.494"/>

			<line style="fill-rule:evenodd;clip-rule:evenodd;fill:none;stroke:#00AEEF;stroke-width:0.9;" x1="49.011" y1="-25.596" x2="48.267" y2="-27.438"/>

			<line style="fill-rule:evenodd;clip-rule:evenodd;fill:none;stroke:#00AEEF;stroke-width:0.9;" x1="50.979" y1="-22.131" x2="49.18" y2="-21.291"/>

			<line style="fill-rule:evenodd;clip-rule:evenodd;fill:none;stroke:#00AEEF;stroke-width:0.9;" x1="56.65" y1="-19.965" x2="54.953" y2="-18.933"/>

			<line style="fill-rule:evenodd;clip-rule:evenodd;fill:none;stroke:#00AEEF;stroke-width:0.9;" x1="62.314" y1="-18.549" x2="60.583" y2="-19.523"/>

			<line style="fill-rule:evenodd;clip-rule:evenodd;fill:none;stroke:#00AEEF;stroke-width:0.9;" x1="58.067" y1="-15.674" x2="58.298" y2="-16.895"/>

			<line style="fill-rule:evenodd;clip-rule:evenodd;fill:none;stroke:#00AEEF;stroke-width:0.9;" x1="50.188" y1="-18.811" x2="51.146" y2="-17.071"/>

			<line style="fill-rule:evenodd;clip-rule:evenodd;fill:none;stroke:#00AEEF;stroke-width:0.9;" x1="58.186" y1="-32.171" x2="57.919" y2="-30.774"/>

			<line style="fill-rule:evenodd;clip-rule:evenodd;fill:none;stroke:#00AEEF;stroke-width:0.9;" x1="77.607" y1="-29.061" x2="78.481" y2="-30.845"/>

			<line style="fill-rule:evenodd;clip-rule:evenodd;fill:none;stroke:#00AEEF;stroke-width:0.9;" x1="71.386" y1="-27.722" x2="73.364" y2="-27.911"/>

			<line style="fill-rule:evenodd;clip-rule:evenodd;fill:none;stroke:#00AEEF;stroke-width:0.9;" x1="66.74" y1="-28.116" x2="68.124" y2="-29.541"/>

			<line style="fill-rule:evenodd;clip-rule:evenodd;fill:none;stroke:#00AEEF;stroke-width:0.9;" x1="75.914" y1="-22.958" x2="76.358" y2="-24.894"/>

			<line style="fill-rule:evenodd;clip-rule:evenodd;fill:none;stroke:#00AEEF;stroke-width:0.9;" x1="71.189" y1="-23.982" x2="69.27" y2="-24.494"/>

			<line style="fill-rule:evenodd;clip-rule:evenodd;fill:none;stroke:#00AEEF;stroke-width:0.9;" x1="64.85" y1="-25.596" x2="64.105" y2="-27.438"/>

			<line style="fill-rule:evenodd;clip-rule:evenodd;fill:none;stroke:#00AEEF;stroke-width:0.9;" x1="66.819" y1="-22.131" x2="65.019" y2="-21.291"/>

			<line style="fill-rule:evenodd;clip-rule:evenodd;fill:none;stroke:#00AEEF;stroke-width:0.9;" x1="72.489" y1="-19.965" x2="70.792" y2="-18.933"/>

			<line style="fill-rule:evenodd;clip-rule:evenodd;fill:none;stroke:#00AEEF;stroke-width:0.9;" x1="78.153" y1="-18.549" x2="76.423" y2="-19.523"/>

			<line style="fill-rule:evenodd;clip-rule:evenodd;fill:none;stroke:#00AEEF;stroke-width:0.9;" x1="73.906" y1="-15.674" x2="74.137" y2="-16.895"/>

			<line style="fill-rule:evenodd;clip-rule:evenodd;fill:none;stroke:#00AEEF;stroke-width:0.9;" x1="66.027" y1="-18.811" x2="66.985" y2="-17.071"/>

			<line style="fill-rule:evenodd;clip-rule:evenodd;fill:none;stroke:#00AEEF;stroke-width:0.9;" x1="74.024" y1="-32.171" x2="73.758" y2="-30.774"/>

			<line style="fill-rule:evenodd;clip-rule:evenodd;fill:none;stroke:#00AEEF;stroke-width:0.9;" x1="14.252" y1="-44.9" x2="15.125" y2="-46.684"/>

			<line style="fill-rule:evenodd;clip-rule:evenodd;fill:none;stroke:#00AEEF;stroke-width:0.9;" x1="8.03" y1="-43.562" x2="10.008" y2="-43.75"/>

			<line style="fill-rule:evenodd;clip-rule:evenodd;fill:none;stroke:#00AEEF;stroke-width:0.9;" x1="3.384" y1="-43.955" x2="4.769" y2="-45.379"/>

			<line style="fill-rule:evenodd;clip-rule:evenodd;fill:none;stroke:#00AEEF;stroke-width:0.9;" x1="12.558" y1="-38.797" x2="13.002" y2="-40.733"/>

			<line style="fill-rule:evenodd;clip-rule:evenodd;fill:none;stroke:#00AEEF;stroke-width:0.9;" x1="7.833" y1="-39.821" x2="5.914" y2="-40.333"/>
		<line style="fill:none;stroke:#00AEEF;stroke-width:0.9;" x1="1.494" y1="-41.435" x2="0.749" y2="-43.276"/>

			<line style="fill-rule:evenodd;clip-rule:evenodd;fill:none;stroke:#00AEEF;stroke-width:0.9;" x1="3.463" y1="-37.97" x2="1.663" y2="-37.13"/>

			<line style="fill-rule:evenodd;clip-rule:evenodd;fill:none;stroke:#00AEEF;stroke-width:0.9;" x1="9.133" y1="-35.805" x2="7.436" y2="-34.772"/>

			<line style="fill-rule:evenodd;clip-rule:evenodd;fill:none;stroke:#00AEEF;stroke-width:0.9;" x1="14.797" y1="-34.388" x2="13.067" y2="-35.362"/>

			<line style="fill-rule:evenodd;clip-rule:evenodd;fill:none;stroke:#00AEEF;stroke-width:0.9;" x1="10.55" y1="-31.513" x2="10.781" y2="-32.734"/>

			<line style="fill-rule:evenodd;clip-rule:evenodd;fill:none;stroke:#00AEEF;stroke-width:0.9;" x1="2.671" y1="-34.65" x2="3.629" y2="-32.91"/>

			<line style="fill-rule:evenodd;clip-rule:evenodd;fill:none;stroke:#00AEEF;stroke-width:0.9;" x1="10.668" y1="-48.011" x2="10.402" y2="-46.613"/>

			<line style="fill-rule:evenodd;clip-rule:evenodd;fill:none;stroke:#00AEEF;stroke-width:0.9;" x1="30.09" y1="-44.9" x2="30.964" y2="-46.684"/>

			<line style="fill-rule:evenodd;clip-rule:evenodd;fill:none;stroke:#00AEEF;stroke-width:0.9;" x1="23.869" y1="-43.562" x2="25.847" y2="-43.75"/>

			<line style="fill-rule:evenodd;clip-rule:evenodd;fill:none;stroke:#00AEEF;stroke-width:0.9;" x1="19.223" y1="-43.955" x2="20.608" y2="-45.379"/>

			<line style="fill-rule:evenodd;clip-rule:evenodd;fill:none;stroke:#00AEEF;stroke-width:0.9;" x1="28.397" y1="-38.797" x2="28.841" y2="-40.733"/>

			<line style="fill-rule:evenodd;clip-rule:evenodd;fill:none;stroke:#00AEEF;stroke-width:0.9;" x1="23.672" y1="-39.821" x2="21.753" y2="-40.333"/>

			<line style="fill-rule:evenodd;clip-rule:evenodd;fill:none;stroke:#00AEEF;stroke-width:0.9;" x1="17.333" y1="-41.435" x2="16.589" y2="-43.276"/>

			<line style="fill-rule:evenodd;clip-rule:evenodd;fill:none;stroke:#00AEEF;stroke-width:0.9;" x1="19.302" y1="-37.97" x2="17.502" y2="-37.13"/>

			<line style="fill-rule:evenodd;clip-rule:evenodd;fill:none;stroke:#00AEEF;stroke-width:0.9;" x1="24.972" y1="-35.805" x2="23.275" y2="-34.772"/>

			<line style="fill-rule:evenodd;clip-rule:evenodd;fill:none;stroke:#00AEEF;stroke-width:0.9;" x1="30.636" y1="-34.388" x2="28.906" y2="-35.362"/>

			<line style="fill-rule:evenodd;clip-rule:evenodd;fill:none;stroke:#00AEEF;stroke-width:0.9;" x1="26.39" y1="-31.513" x2="26.62" y2="-32.734"/>

			<line style="fill-rule:evenodd;clip-rule:evenodd;fill:none;stroke:#00AEEF;stroke-width:0.9;" x1="18.51" y1="-34.65" x2="19.469" y2="-32.91"/>

			<line style="fill-rule:evenodd;clip-rule:evenodd;fill:none;stroke:#00AEEF;stroke-width:0.9;" x1="26.507" y1="-48.011" x2="26.241" y2="-46.613"/>

			<line style="fill-rule:evenodd;clip-rule:evenodd;fill:none;stroke:#00AEEF;stroke-width:0.9;" x1="45.929" y1="-44.9" x2="46.803" y2="-46.684"/>

			<line style="fill-rule:evenodd;clip-rule:evenodd;fill:none;stroke:#00AEEF;stroke-width:0.9;" x1="39.708" y1="-43.562" x2="41.686" y2="-43.75"/>

			<line style="fill-rule:evenodd;clip-rule:evenodd;fill:none;stroke:#00AEEF;stroke-width:0.9;" x1="35.062" y1="-43.955" x2="36.447" y2="-45.379"/>

			<line style="fill-rule:evenodd;clip-rule:evenodd;fill:none;stroke:#00AEEF;stroke-width:0.9;" x1="44.236" y1="-38.797" x2="44.68" y2="-40.733"/>

			<line style="fill-rule:evenodd;clip-rule:evenodd;fill:none;stroke:#00AEEF;stroke-width:0.9;" x1="39.511" y1="-39.821" x2="37.592" y2="-40.333"/>

			<line style="fill-rule:evenodd;clip-rule:evenodd;fill:none;stroke:#00AEEF;stroke-width:0.9;" x1="33.172" y1="-41.435" x2="32.428" y2="-43.276"/>

			<line style="fill-rule:evenodd;clip-rule:evenodd;fill:none;stroke:#00AEEF;stroke-width:0.9;" x1="35.141" y1="-37.97" x2="33.341" y2="-37.13"/>

			<line style="fill-rule:evenodd;clip-rule:evenodd;fill:none;stroke:#00AEEF;stroke-width:0.9;" x1="40.811" y1="-35.805" x2="39.114" y2="-34.772"/>

			<line style="fill-rule:evenodd;clip-rule:evenodd;fill:none;stroke:#00AEEF;stroke-width:0.9;" x1="46.475" y1="-34.388" x2="44.745" y2="-35.362"/>

			<line style="fill-rule:evenodd;clip-rule:evenodd;fill:none;stroke:#00AEEF;stroke-width:0.9;" x1="42.229" y1="-31.513" x2="42.459" y2="-32.734"/>

			<line style="fill-rule:evenodd;clip-rule:evenodd;fill:none;stroke:#00AEEF;stroke-width:0.9;" x1="34.349" y1="-34.65" x2="35.308" y2="-32.91"/>

			<line style="fill-rule:evenodd;clip-rule:evenodd;fill:none;stroke:#00AEEF;stroke-width:0.9;" x1="42.346" y1="-48.011" x2="42.08" y2="-46.613"/>

			<line style="fill-rule:evenodd;clip-rule:evenodd;fill:none;stroke:#00AEEF;stroke-width:0.9;" x1="61.769" y1="-44.9" x2="62.642" y2="-46.684"/>

			<line style="fill-rule:evenodd;clip-rule:evenodd;fill:none;stroke:#00AEEF;stroke-width:0.9;" x1="55.547" y1="-43.562" x2="57.524" y2="-43.75"/>

			<line style="fill-rule:evenodd;clip-rule:evenodd;fill:none;stroke:#00AEEF;stroke-width:0.9;" x1="50.901" y1="-43.955" x2="52.286" y2="-45.379"/>

			<line style="fill-rule:evenodd;clip-rule:evenodd;fill:none;stroke:#00AEEF;stroke-width:0.9;" x1="60.075" y1="-38.797" x2="60.519" y2="-40.733"/>

			<line style="fill-rule:evenodd;clip-rule:evenodd;fill:none;stroke:#00AEEF;stroke-width:0.9;" x1="55.35" y1="-39.821" x2="53.431" y2="-40.333"/>

			<line style="fill-rule:evenodd;clip-rule:evenodd;fill:none;stroke:#00AEEF;stroke-width:0.9;" x1="49.011" y1="-41.435" x2="48.267" y2="-43.276"/>

			<line style="fill-rule:evenodd;clip-rule:evenodd;fill:none;stroke:#00AEEF;stroke-width:0.9;" x1="50.979" y1="-37.97" x2="49.18" y2="-37.13"/>

			<line style="fill-rule:evenodd;clip-rule:evenodd;fill:none;stroke:#00AEEF;stroke-width:0.9;" x1="56.65" y1="-35.805" x2="54.953" y2="-34.772"/>

			<line style="fill-rule:evenodd;clip-rule:evenodd;fill:none;stroke:#00AEEF;stroke-width:0.9;" x1="62.314" y1="-34.388" x2="60.583" y2="-35.362"/>

			<line style="fill-rule:evenodd;clip-rule:evenodd;fill:none;stroke:#00AEEF;stroke-width:0.9;" x1="58.067" y1="-31.513" x2="58.298" y2="-32.734"/>

			<line style="fill-rule:evenodd;clip-rule:evenodd;fill:none;stroke:#00AEEF;stroke-width:0.9;" x1="50.188" y1="-34.65" x2="51.146" y2="-32.91"/>

			<line style="fill-rule:evenodd;clip-rule:evenodd;fill:none;stroke:#00AEEF;stroke-width:0.9;" x1="58.186" y1="-48.011" x2="57.919" y2="-46.613"/>

			<line style="fill-rule:evenodd;clip-rule:evenodd;fill:none;stroke:#00AEEF;stroke-width:0.9;" x1="77.607" y1="-44.9" x2="78.481" y2="-46.684"/>

			<line style="fill-rule:evenodd;clip-rule:evenodd;fill:none;stroke:#00AEEF;stroke-width:0.9;" x1="71.386" y1="-43.562" x2="73.364" y2="-43.75"/>

			<line style="fill-rule:evenodd;clip-rule:evenodd;fill:none;stroke:#00AEEF;stroke-width:0.9;" x1="66.74" y1="-43.955" x2="68.124" y2="-45.379"/>

			<line style="fill-rule:evenodd;clip-rule:evenodd;fill:none;stroke:#00AEEF;stroke-width:0.9;" x1="75.914" y1="-38.797" x2="76.358" y2="-40.733"/>

			<line style="fill-rule:evenodd;clip-rule:evenodd;fill:none;stroke:#00AEEF;stroke-width:0.9;" x1="71.189" y1="-39.821" x2="69.27" y2="-40.333"/>

			<line style="fill-rule:evenodd;clip-rule:evenodd;fill:none;stroke:#00AEEF;stroke-width:0.9;" x1="64.85" y1="-41.435" x2="64.105" y2="-43.276"/>

			<line style="fill-rule:evenodd;clip-rule:evenodd;fill:none;stroke:#00AEEF;stroke-width:0.9;" x1="66.819" y1="-37.97" x2="65.019" y2="-37.13"/>

			<line style="fill-rule:evenodd;clip-rule:evenodd;fill:none;stroke:#00AEEF;stroke-width:0.9;" x1="72.489" y1="-35.805" x2="70.792" y2="-34.772"/>

			<line style="fill-rule:evenodd;clip-rule:evenodd;fill:none;stroke:#00AEEF;stroke-width:0.9;" x1="78.153" y1="-34.388" x2="76.423" y2="-35.362"/>

			<line style="fill-rule:evenodd;clip-rule:evenodd;fill:none;stroke:#00AEEF;stroke-width:0.9;" x1="73.906" y1="-31.513" x2="74.137" y2="-32.734"/>

			<line style="fill-rule:evenodd;clip-rule:evenodd;fill:none;stroke:#00AEEF;stroke-width:0.9;" x1="66.027" y1="-34.65" x2="66.985" y2="-32.91"/>

			<line style="fill-rule:evenodd;clip-rule:evenodd;fill:none;stroke:#00AEEF;stroke-width:0.9;" x1="74.024" y1="-48.011" x2="73.758" y2="-46.613"/>

			<line style="fill-rule:evenodd;clip-rule:evenodd;fill:none;stroke:#00AEEF;stroke-width:0.9;" x1="14.252" y1="-60.739" x2="15.125" y2="-62.523"/>

			<line style="fill-rule:evenodd;clip-rule:evenodd;fill:none;stroke:#00AEEF;stroke-width:0.9;" x1="8.03" y1="-59.4" x2="10.008" y2="-59.589"/>

			<line style="fill-rule:evenodd;clip-rule:evenodd;fill:none;stroke:#00AEEF;stroke-width:0.9;" x1="3.384" y1="-59.794" x2="4.769" y2="-61.218"/>

			<line style="fill-rule:evenodd;clip-rule:evenodd;fill:none;stroke:#00AEEF;stroke-width:0.9;" x1="12.558" y1="-54.636" x2="13.002" y2="-56.572"/>

			<line style="fill-rule:evenodd;clip-rule:evenodd;fill:none;stroke:#00AEEF;stroke-width:0.9;" x1="7.833" y1="-55.66" x2="5.914" y2="-56.171"/>

			<line style="fill-rule:evenodd;clip-rule:evenodd;fill:none;stroke:#00AEEF;stroke-width:0.9;" x1="1.494" y1="-57.274" x2="0.749" y2="-59.116"/>

			<line style="fill-rule:evenodd;clip-rule:evenodd;fill:none;stroke:#00AEEF;stroke-width:0.9;" x1="3.463" y1="-53.809" x2="1.663" y2="-52.969"/>

			<line style="fill-rule:evenodd;clip-rule:evenodd;fill:none;stroke:#00AEEF;stroke-width:0.9;" x1="9.133" y1="-51.644" x2="7.436" y2="-50.611"/>

			<line style="fill-rule:evenodd;clip-rule:evenodd;fill:none;stroke:#00AEEF;stroke-width:0.9;" x1="14.797" y1="-50.227" x2="13.067" y2="-51.201"/>

			<line style="fill-rule:evenodd;clip-rule:evenodd;fill:none;stroke:#00AEEF;stroke-width:0.9;" x1="10.55" y1="-47.352" x2="10.781" y2="-48.573"/>

			<line style="fill-rule:evenodd;clip-rule:evenodd;fill:none;stroke:#00AEEF;stroke-width:0.9;" x1="2.671" y1="-50.489" x2="3.629" y2="-48.75"/>

			<line style="fill-rule:evenodd;clip-rule:evenodd;fill:none;stroke:#00AEEF;stroke-width:0.9;" x1="10.402" y1="-62.452" x2="10.668" y2="-63.85"/>

			<line style="fill-rule:evenodd;clip-rule:evenodd;fill:none;stroke:#00AEEF;stroke-width:0.9;" x1="30.09" y1="-60.739" x2="30.964" y2="-62.523"/>

			<line style="fill-rule:evenodd;clip-rule:evenodd;fill:none;stroke:#00AEEF;stroke-width:0.9;" x1="23.869" y1="-59.4" x2="25.847" y2="-59.589"/>

			<line style="fill-rule:evenodd;clip-rule:evenodd;fill:none;stroke:#00AEEF;stroke-width:0.9;" x1="19.223" y1="-59.794" x2="20.608" y2="-61.218"/>

			<line style="fill-rule:evenodd;clip-rule:evenodd;fill:none;stroke:#00AEEF;stroke-width:0.9;" x1="28.397" y1="-54.636" x2="28.841" y2="-56.572"/>

			<line style="fill-rule:evenodd;clip-rule:evenodd;fill:none;stroke:#00AEEF;stroke-width:0.9;" x1="23.672" y1="-55.66" x2="21.753" y2="-56.171"/>

			<line style="fill-rule:evenodd;clip-rule:evenodd;fill:none;stroke:#00AEEF;stroke-width:0.9;" x1="17.333" y1="-57.274" x2="16.589" y2="-59.116"/>

			<line style="fill-rule:evenodd;clip-rule:evenodd;fill:none;stroke:#00AEEF;stroke-width:0.9;" x1="19.302" y1="-53.809" x2="17.502" y2="-52.969"/>

			<line style="fill-rule:evenodd;clip-rule:evenodd;fill:none;stroke:#00AEEF;stroke-width:0.9;" x1="24.972" y1="-51.644" x2="23.275" y2="-50.611"/>

			<line style="fill-rule:evenodd;clip-rule:evenodd;fill:none;stroke:#00AEEF;stroke-width:0.9;" x1="30.636" y1="-50.227" x2="28.906" y2="-51.201"/>

			<line style="fill-rule:evenodd;clip-rule:evenodd;fill:none;stroke:#00AEEF;stroke-width:0.9;" x1="26.39" y1="-47.352" x2="26.62" y2="-48.573"/>

			<line style="fill-rule:evenodd;clip-rule:evenodd;fill:none;stroke:#00AEEF;stroke-width:0.9;" x1="18.51" y1="-50.489" x2="19.469" y2="-48.75"/>

			<line style="fill-rule:evenodd;clip-rule:evenodd;fill:none;stroke:#00AEEF;stroke-width:0.9;" x1="26.241" y1="-62.452" x2="26.507" y2="-63.85"/>

			<line style="fill-rule:evenodd;clip-rule:evenodd;fill:none;stroke:#00AEEF;stroke-width:0.9;" x1="45.929" y1="-60.739" x2="46.803" y2="-62.523"/>

			<line style="fill-rule:evenodd;clip-rule:evenodd;fill:none;stroke:#00AEEF;stroke-width:0.9;" x1="39.708" y1="-59.4" x2="41.686" y2="-59.589"/>

			<line style="fill-rule:evenodd;clip-rule:evenodd;fill:none;stroke:#00AEEF;stroke-width:0.9;" x1="35.062" y1="-59.794" x2="36.447" y2="-61.218"/>

			<line style="fill-rule:evenodd;clip-rule:evenodd;fill:none;stroke:#00AEEF;stroke-width:0.9;" x1="44.236" y1="-54.636" x2="44.68" y2="-56.572"/>

			<line style="fill-rule:evenodd;clip-rule:evenodd;fill:none;stroke:#00AEEF;stroke-width:0.9;" x1="39.511" y1="-55.66" x2="37.592" y2="-56.171"/>

			<line style="fill-rule:evenodd;clip-rule:evenodd;fill:none;stroke:#00AEEF;stroke-width:0.9;" x1="33.172" y1="-57.274" x2="32.428" y2="-59.116"/>

			<line style="fill-rule:evenodd;clip-rule:evenodd;fill:none;stroke:#00AEEF;stroke-width:0.9;" x1="35.141" y1="-53.809" x2="33.341" y2="-52.969"/>

			<line style="fill-rule:evenodd;clip-rule:evenodd;fill:none;stroke:#00AEEF;stroke-width:0.9;" x1="40.811" y1="-51.644" x2="39.114" y2="-50.611"/>

			<line style="fill-rule:evenodd;clip-rule:evenodd;fill:none;stroke:#00AEEF;stroke-width:0.9;" x1="46.475" y1="-50.227" x2="44.745" y2="-51.201"/>

			<line style="fill-rule:evenodd;clip-rule:evenodd;fill:none;stroke:#00AEEF;stroke-width:0.9;" x1="42.229" y1="-47.352" x2="42.459" y2="-48.573"/>

			<line style="fill-rule:evenodd;clip-rule:evenodd;fill:none;stroke:#00AEEF;stroke-width:0.9;" x1="34.349" y1="-50.489" x2="35.308" y2="-48.75"/>

			<line style="fill-rule:evenodd;clip-rule:evenodd;fill:none;stroke:#00AEEF;stroke-width:0.9;" x1="42.08" y1="-62.452" x2="42.346" y2="-63.85"/>

			<line style="fill-rule:evenodd;clip-rule:evenodd;fill:none;stroke:#00AEEF;stroke-width:0.9;" x1="61.769" y1="-60.739" x2="62.642" y2="-62.523"/>

			<line style="fill-rule:evenodd;clip-rule:evenodd;fill:none;stroke:#00AEEF;stroke-width:0.9;" x1="55.547" y1="-59.4" x2="57.524" y2="-59.589"/>

			<line style="fill-rule:evenodd;clip-rule:evenodd;fill:none;stroke:#00AEEF;stroke-width:0.9;" x1="50.901" y1="-59.794" x2="52.286" y2="-61.218"/>

			<line style="fill-rule:evenodd;clip-rule:evenodd;fill:none;stroke:#00AEEF;stroke-width:0.9;" x1="60.075" y1="-54.636" x2="60.519" y2="-56.572"/>

			<line style="fill-rule:evenodd;clip-rule:evenodd;fill:none;stroke:#00AEEF;stroke-width:0.9;" x1="55.35" y1="-55.66" x2="53.431" y2="-56.171"/>

			<line style="fill-rule:evenodd;clip-rule:evenodd;fill:none;stroke:#00AEEF;stroke-width:0.9;" x1="49.011" y1="-57.274" x2="48.267" y2="-59.116"/>

			<line style="fill-rule:evenodd;clip-rule:evenodd;fill:none;stroke:#00AEEF;stroke-width:0.9;" x1="50.979" y1="-53.809" x2="49.18" y2="-52.969"/>

			<line style="fill-rule:evenodd;clip-rule:evenodd;fill:none;stroke:#00AEEF;stroke-width:0.9;" x1="56.65" y1="-51.644" x2="54.953" y2="-50.611"/>

			<line style="fill-rule:evenodd;clip-rule:evenodd;fill:none;stroke:#00AEEF;stroke-width:0.9;" x1="62.314" y1="-50.227" x2="60.583" y2="-51.201"/>

			<line style="fill-rule:evenodd;clip-rule:evenodd;fill:none;stroke:#00AEEF;stroke-width:0.9;" x1="58.067" y1="-47.352" x2="58.298" y2="-48.573"/>

			<line style="fill-rule:evenodd;clip-rule:evenodd;fill:none;stroke:#00AEEF;stroke-width:0.9;" x1="50.188" y1="-50.489" x2="51.146" y2="-48.75"/>

			<line style="fill-rule:evenodd;clip-rule:evenodd;fill:none;stroke:#00AEEF;stroke-width:0.9;" x1="57.919" y1="-62.452" x2="58.186" y2="-63.85"/>

			<line style="fill-rule:evenodd;clip-rule:evenodd;fill:none;stroke:#00AEEF;stroke-width:0.9;" x1="77.607" y1="-60.739" x2="78.481" y2="-62.523"/>

			<line style="fill-rule:evenodd;clip-rule:evenodd;fill:none;stroke:#00AEEF;stroke-width:0.9;" x1="71.386" y1="-59.4" x2="73.364" y2="-59.589"/>

			<line style="fill-rule:evenodd;clip-rule:evenodd;fill:none;stroke:#00AEEF;stroke-width:0.9;" x1="66.74" y1="-59.794" x2="68.124" y2="-61.218"/>

			<line style="fill-rule:evenodd;clip-rule:evenodd;fill:none;stroke:#00AEEF;stroke-width:0.9;" x1="75.914" y1="-54.636" x2="76.358" y2="-56.572"/>

			<line style="fill-rule:evenodd;clip-rule:evenodd;fill:none;stroke:#00AEEF;stroke-width:0.9;" x1="71.189" y1="-55.66" x2="69.27" y2="-56.171"/>

			<line style="fill-rule:evenodd;clip-rule:evenodd;fill:none;stroke:#00AEEF;stroke-width:0.9;" x1="64.85" y1="-57.274" x2="64.105" y2="-59.116"/>

			<line style="fill-rule:evenodd;clip-rule:evenodd;fill:none;stroke:#00AEEF;stroke-width:0.9;" x1="66.819" y1="-53.809" x2="65.019" y2="-52.969"/>

			<line style="fill-rule:evenodd;clip-rule:evenodd;fill:none;stroke:#00AEEF;stroke-width:0.9;" x1="72.489" y1="-51.644" x2="70.792" y2="-50.611"/>

			<line style="fill-rule:evenodd;clip-rule:evenodd;fill:none;stroke:#00AEEF;stroke-width:0.9;" x1="78.153" y1="-50.227" x2="76.423" y2="-51.201"/>

			<line style="fill-rule:evenodd;clip-rule:evenodd;fill:none;stroke:#00AEEF;stroke-width:0.9;" x1="73.906" y1="-47.352" x2="74.137" y2="-48.573"/>

			<line style="fill-rule:evenodd;clip-rule:evenodd;fill:none;stroke:#00AEEF;stroke-width:0.9;" x1="66.027" y1="-50.489" x2="66.985" y2="-48.75"/>

			<line style="fill-rule:evenodd;clip-rule:evenodd;fill:none;stroke:#00AEEF;stroke-width:0.9;" x1="73.758" y1="-62.452" x2="74.024" y2="-63.85"/>

			<line style="fill-rule:evenodd;clip-rule:evenodd;fill:none;stroke:#00AEEF;stroke-width:0.9;" x1="14.252" y1="-76.578" x2="15.125" y2="-78.362"/>

			<line style="fill-rule:evenodd;clip-rule:evenodd;fill:none;stroke:#00AEEF;stroke-width:0.9;" x1="8.03" y1="-75.239" x2="10.008" y2="-75.428"/>

			<line style="fill-rule:evenodd;clip-rule:evenodd;fill:none;stroke:#00AEEF;stroke-width:0.9;" x1="3.384" y1="-75.633" x2="4.769" y2="-77.057"/>

			<line style="fill-rule:evenodd;clip-rule:evenodd;fill:none;stroke:#00AEEF;stroke-width:0.9;" x1="12.558" y1="-70.475" x2="13.002" y2="-72.411"/>

			<line style="fill-rule:evenodd;clip-rule:evenodd;fill:none;stroke:#00AEEF;stroke-width:0.9;" x1="5.914" y1="-72.01" x2="7.833" y2="-71.498"/>

			<line style="fill-rule:evenodd;clip-rule:evenodd;fill:none;stroke:#00AEEF;stroke-width:0.9;" x1="0.749" y1="-74.955" x2="1.494" y2="-73.113"/>

			<line style="fill-rule:evenodd;clip-rule:evenodd;fill:none;stroke:#00AEEF;stroke-width:0.9;" x1="3.463" y1="-69.648" x2="1.663" y2="-68.808"/>

			<line style="fill-rule:evenodd;clip-rule:evenodd;fill:none;stroke:#00AEEF;stroke-width:0.9;" x1="9.133" y1="-67.482" x2="7.436" y2="-66.45"/>

			<line style="fill-rule:evenodd;clip-rule:evenodd;fill:none;stroke:#00AEEF;stroke-width:0.9;" x1="14.797" y1="-66.066" x2="13.067" y2="-67.04"/>

			<line style="fill-rule:evenodd;clip-rule:evenodd;fill:none;stroke:#00AEEF;stroke-width:0.9;" x1="10.55" y1="-63.191" x2="10.781" y2="-64.412"/>

			<line style="fill-rule:evenodd;clip-rule:evenodd;fill:none;stroke:#00AEEF;stroke-width:0.9;" x1="2.671" y1="-66.328" x2="3.629" y2="-64.588"/>

			<line style="fill-rule:evenodd;clip-rule:evenodd;fill:none;stroke:#00AEEF;stroke-width:0.9;" x1="10.601" y1="-79.334" x2="10.402" y2="-78.29"/>

			<line style="fill-rule:evenodd;clip-rule:evenodd;fill:none;stroke:#00AEEF;stroke-width:0.9;" x1="30.09" y1="-76.578" x2="30.964" y2="-78.362"/>

			<line style="fill-rule:evenodd;clip-rule:evenodd;fill:none;stroke:#00AEEF;stroke-width:0.9;" x1="23.869" y1="-75.239" x2="25.847" y2="-75.428"/>

			<line style="fill-rule:evenodd;clip-rule:evenodd;fill:none;stroke:#00AEEF;stroke-width:0.9;" x1="19.223" y1="-75.633" x2="20.608" y2="-77.057"/>

			<line style="fill-rule:evenodd;clip-rule:evenodd;fill:none;stroke:#00AEEF;stroke-width:0.9;" x1="28.397" y1="-70.475" x2="28.841" y2="-72.411"/>

			<line style="fill-rule:evenodd;clip-rule:evenodd;fill:none;stroke:#00AEEF;stroke-width:0.9;" x1="21.753" y1="-72.01" x2="23.672" y2="-71.498"/>

			<line style="fill-rule:evenodd;clip-rule:evenodd;fill:none;stroke:#00AEEF;stroke-width:0.9;" x1="16.589" y1="-74.955" x2="17.333" y2="-73.113"/>

			<line style="fill-rule:evenodd;clip-rule:evenodd;fill:none;stroke:#00AEEF;stroke-width:0.9;" x1="19.302" y1="-69.648" x2="17.502" y2="-68.808"/>

			<line style="fill-rule:evenodd;clip-rule:evenodd;fill:none;stroke:#00AEEF;stroke-width:0.9;" x1="24.972" y1="-67.482" x2="23.275" y2="-66.45"/>

			<line style="fill-rule:evenodd;clip-rule:evenodd;fill:none;stroke:#00AEEF;stroke-width:0.9;" x1="30.636" y1="-66.066" x2="28.906" y2="-67.04"/>

			<line style="fill-rule:evenodd;clip-rule:evenodd;fill:none;stroke:#00AEEF;stroke-width:0.9;" x1="26.39" y1="-63.191" x2="26.62" y2="-64.412"/>

			<line style="fill-rule:evenodd;clip-rule:evenodd;fill:none;stroke:#00AEEF;stroke-width:0.9;" x1="18.51" y1="-66.328" x2="19.469" y2="-64.588"/>

			<line style="fill-rule:evenodd;clip-rule:evenodd;fill:none;stroke:#00AEEF;stroke-width:0.9;" x1="26.44" y1="-79.334" x2="26.241" y2="-78.29"/>

			<line style="fill-rule:evenodd;clip-rule:evenodd;fill:none;stroke:#00AEEF;stroke-width:0.9;" x1="45.929" y1="-76.578" x2="46.803" y2="-78.362"/>

			<line style="fill-rule:evenodd;clip-rule:evenodd;fill:none;stroke:#00AEEF;stroke-width:0.9;" x1="39.708" y1="-75.239" x2="41.686" y2="-75.428"/>

			<line style="fill-rule:evenodd;clip-rule:evenodd;fill:none;stroke:#00AEEF;stroke-width:0.9;" x1="35.062" y1="-75.633" x2="36.447" y2="-77.057"/>

			<line style="fill-rule:evenodd;clip-rule:evenodd;fill:none;stroke:#00AEEF;stroke-width:0.9;" x1="44.236" y1="-70.475" x2="44.68" y2="-72.411"/>

			<line style="fill-rule:evenodd;clip-rule:evenodd;fill:none;stroke:#00AEEF;stroke-width:0.9;" x1="37.592" y1="-72.01" x2="39.511" y2="-71.498"/>

			<line style="fill-rule:evenodd;clip-rule:evenodd;fill:none;stroke:#00AEEF;stroke-width:0.9;" x1="32.428" y1="-74.955" x2="33.172" y2="-73.113"/>

			<line style="fill-rule:evenodd;clip-rule:evenodd;fill:none;stroke:#00AEEF;stroke-width:0.9;" x1="35.141" y1="-69.648" x2="33.341" y2="-68.808"/>

			<line style="fill-rule:evenodd;clip-rule:evenodd;fill:none;stroke:#00AEEF;stroke-width:0.9;" x1="40.811" y1="-67.482" x2="39.114" y2="-66.45"/>

			<line style="fill-rule:evenodd;clip-rule:evenodd;fill:none;stroke:#00AEEF;stroke-width:0.9;" x1="46.475" y1="-66.066" x2="44.745" y2="-67.04"/>

			<line style="fill-rule:evenodd;clip-rule:evenodd;fill:none;stroke:#00AEEF;stroke-width:0.9;" x1="42.229" y1="-63.191" x2="42.459" y2="-64.412"/>

			<line style="fill-rule:evenodd;clip-rule:evenodd;fill:none;stroke:#00AEEF;stroke-width:0.9;" x1="34.349" y1="-66.328" x2="35.308" y2="-64.588"/>

			<line style="fill-rule:evenodd;clip-rule:evenodd;fill:none;stroke:#00AEEF;stroke-width:0.9;" x1="42.279" y1="-79.334" x2="42.08" y2="-78.29"/>

			<line style="fill-rule:evenodd;clip-rule:evenodd;fill:none;stroke:#00AEEF;stroke-width:0.9;" x1="61.769" y1="-76.578" x2="62.642" y2="-78.362"/>

			<line style="fill-rule:evenodd;clip-rule:evenodd;fill:none;stroke:#00AEEF;stroke-width:0.9;" x1="55.547" y1="-75.239" x2="57.524" y2="-75.428"/>

			<line style="fill-rule:evenodd;clip-rule:evenodd;fill:none;stroke:#00AEEF;stroke-width:0.9;" x1="50.901" y1="-75.633" x2="52.286" y2="-77.057"/>

			<line style="fill-rule:evenodd;clip-rule:evenodd;fill:none;stroke:#00AEEF;stroke-width:0.9;" x1="60.075" y1="-70.475" x2="60.519" y2="-72.411"/>

			<line style="fill-rule:evenodd;clip-rule:evenodd;fill:none;stroke:#00AEEF;stroke-width:0.9;" x1="53.431" y1="-72.01" x2="55.35" y2="-71.498"/>

			<line style="fill-rule:evenodd;clip-rule:evenodd;fill:none;stroke:#00AEEF;stroke-width:0.9;" x1="48.267" y1="-74.955" x2="49.011" y2="-73.113"/>

			<line style="fill-rule:evenodd;clip-rule:evenodd;fill:none;stroke:#00AEEF;stroke-width:0.9;" x1="50.979" y1="-69.648" x2="49.18" y2="-68.808"/>

			<line style="fill-rule:evenodd;clip-rule:evenodd;fill:none;stroke:#00AEEF;stroke-width:0.9;" x1="56.65" y1="-67.482" x2="54.953" y2="-66.45"/>

			<line style="fill-rule:evenodd;clip-rule:evenodd;fill:none;stroke:#00AEEF;stroke-width:0.9;" x1="62.314" y1="-66.066" x2="60.583" y2="-67.04"/>

			<line style="fill-rule:evenodd;clip-rule:evenodd;fill:none;stroke:#00AEEF;stroke-width:0.9;" x1="58.067" y1="-63.191" x2="58.298" y2="-64.412"/>

			<line style="fill-rule:evenodd;clip-rule:evenodd;fill:none;stroke:#00AEEF;stroke-width:0.9;" x1="50.188" y1="-66.328" x2="51.146" y2="-64.588"/>

			<line style="fill-rule:evenodd;clip-rule:evenodd;fill:none;stroke:#00AEEF;stroke-width:0.9;" x1="58.118" y1="-79.334" x2="57.919" y2="-78.29"/>

			<line style="fill-rule:evenodd;clip-rule:evenodd;fill:none;stroke:#00AEEF;stroke-width:0.9;" x1="77.607" y1="-76.578" x2="78.481" y2="-78.362"/>

			<line style="fill-rule:evenodd;clip-rule:evenodd;fill:none;stroke:#00AEEF;stroke-width:0.9;" x1="71.386" y1="-75.239" x2="73.364" y2="-75.428"/>

			<line style="fill-rule:evenodd;clip-rule:evenodd;fill:none;stroke:#00AEEF;stroke-width:0.9;" x1="66.74" y1="-75.633" x2="68.124" y2="-77.057"/>

			<line style="fill-rule:evenodd;clip-rule:evenodd;fill:none;stroke:#00AEEF;stroke-width:0.9;" x1="75.914" y1="-70.475" x2="76.358" y2="-72.411"/>

			<line style="fill-rule:evenodd;clip-rule:evenodd;fill:none;stroke:#00AEEF;stroke-width:0.9;" x1="69.27" y1="-72.01" x2="71.189" y2="-71.498"/>

			<line style="fill-rule:evenodd;clip-rule:evenodd;fill:none;stroke:#00AEEF;stroke-width:0.9;" x1="64.105" y1="-74.955" x2="64.85" y2="-73.113"/>

			<line style="fill-rule:evenodd;clip-rule:evenodd;fill:none;stroke:#00AEEF;stroke-width:0.9;" x1="66.819" y1="-69.648" x2="65.019" y2="-68.808"/>

			<line style="fill-rule:evenodd;clip-rule:evenodd;fill:none;stroke:#00AEEF;stroke-width:0.9;" x1="72.489" y1="-67.482" x2="70.792" y2="-66.45"/>

			<line style="fill-rule:evenodd;clip-rule:evenodd;fill:none;stroke:#00AEEF;stroke-width:0.9;" x1="78.153" y1="-66.066" x2="76.423" y2="-67.04"/>

			<line style="fill-rule:evenodd;clip-rule:evenodd;fill:none;stroke:#00AEEF;stroke-width:0.9;" x1="73.906" y1="-63.191" x2="74.137" y2="-64.412"/>

			<line style="fill-rule:evenodd;clip-rule:evenodd;fill:none;stroke:#00AEEF;stroke-width:0.9;" x1="66.027" y1="-66.328" x2="66.985" y2="-64.588"/>

			<line style="fill-rule:evenodd;clip-rule:evenodd;fill:none;stroke:#00AEEF;stroke-width:0.9;" x1="73.957" y1="-79.334" x2="73.758" y2="-78.29"/>
	</g>
</svg>
