<?xml version="1.0" encoding="utf-8"?>
<svg xmlns="http://www.w3.org/2000/svg" version="1.1" x="0px" y="0px" xml:space="preserve" width="17.795" height="17.795" viewBox="0 -17.795 17.795 17.795">
	<g>
		<rect x="0" y="-17.795" style="fill:none;" width="17.795" height="17.795"/>
		<line style="fill:none;stroke:#ED1B2E;stroke-width:0.55;" x1="15.535" y1="-16.631" x2="16.819" y2="-14.981"/>
		<line style="fill:none;stroke:#ED1B2E;stroke-width:0.55;" x1="16.798" y1="-14.996" x2="17.783" y2="-16.871"/>
		<line style="fill:none;stroke:#ED1B2E;stroke-width:0.55;" x1="4.558" y1="-15.865" x2="3.642" y2="-17.747"/>
		<line style="fill:none;stroke:#ED1B2E;stroke-width:0.55;" x1="3.66" y1="-17.727" x2="2.309" y2="-16.096"/>
		<line style="fill:none;stroke:#ED1B2E;stroke-width:0.55;" x1="1.689" y1="-3.313" x2="3.731" y2="-3.763"/>
		<line style="fill:none;stroke:#ED1B2E;stroke-width:0.55;" x1="3.708" y1="-3.751" x2="2.44" y2="-5.446"/>
		<line style="fill:none;stroke:#ED1B2E;stroke-width:0.55;" x1="3.004" y1="-10.265" x2="1.7" y2="-11.9"/>
		<line style="fill:none;stroke:#ED1B2E;stroke-width:0.55;" x1="1.723" y1="-11.886" x2="0.76" y2="-10"/>
		<line style="fill:none;stroke:#ED1B2E;stroke-width:0.55;" x1="6.261" y1="-11.341" x2="8.352" y2="-11.324"/>
		<line style="fill:none;stroke:#ED1B2E;stroke-width:0.55;" x1="8.326" y1="-11.317" x2="7.466" y2="-13.254"/>
		<line style="fill:none;stroke:#ED1B2E;stroke-width:0.55;" x1="13.996" y1="-0.847" x2="15.367" y2="-2.427"/>
		<line style="fill:none;stroke:#ED1B2E;stroke-width:0.55;" x1="15.356" y1="-2.402" x2="13.327" y2="-3.007"/>
		<line style="fill:none;stroke:#ED1B2E;stroke-width:0.55;" x1="10.695" y1="-16.78" x2="10.299" y2="-14.727"/>
		<line style="fill:none;stroke:#ED1B2E;stroke-width:0.55;" x1="10.298" y1="-14.754" x2="12.356" y2="-15.248"/>
		<line style="fill:none;stroke:#ED1B2E;stroke-width:0.55;" x1="13.317" y1="-10.776" x2="14.504" y2="-12.5"/>
		<line style="fill:none;stroke:#ED1B2E;stroke-width:0.55;" x1="14.495" y1="-12.474" x2="12.412" y2="-12.849"/>
		<line style="fill:none;stroke:#ED1B2E;stroke-width:0.55;" x1="8.141" y1="-3.033" x2="7.277" y2="-1.129"/>
		<line style="fill:none;stroke:#ED1B2E;stroke-width:0.55;" x1="7.281" y1="-1.154" x2="9.399" y2="-1.154"/>
		<line style="fill:none;stroke:#ED1B2E;stroke-width:0.55;" x1="7.934" y1="-7.886" x2="5.849" y2="-8.049"/>
		<line style="fill:none;stroke:#ED1B2E;stroke-width:0.55;" x1="5.874" y1="-8.054" x2="6.596" y2="-6.062"/>
		<line style="fill:none;stroke:#ED1B2E;stroke-width:0.55;" x1="16.485" y1="-7.99" x2="15.621" y2="-6.086"/>
		<line style="fill:none;stroke:#ED1B2E;stroke-width:0.55;" x1="15.625" y1="-6.111" x2="17.742" y2="-6.111"/>
		<line style="fill:none;stroke:#ED1B2E;stroke-width:0.55;" x1="12.354" y1="-5.444" x2="12.409" y2="-7.536"/>
		<line style="fill:none;stroke:#ED1B2E;stroke-width:0.55;" x1="12.416" y1="-7.51" x2="10.466" y2="-6.688"/>
	</g>
</svg>
