<?xml version="1.0" encoding="utf-8"?>
<svg xmlns="http://www.w3.org/2000/svg" version="1.1" x="0px" y="0px" xml:space="preserve" width="71.339" height="71.301" viewBox="0.169 -71.47 71.339 71.301">
	<g>
		<rect x="0.169" y="-71.47" style="fill:none;" width="71.339" height="71.301"/>
		<polyline style="fill:none;stroke:#000000;stroke-width:0.43;" points="0.169,-47.656 0.321,-47.85 1.399,-45.76 0.169,-45.805    "/>
		<polygon style="fill:none;stroke:#000000;stroke-width:0.43;" points="33.38,-69.063 31.057,-68.645 32.149,-66.729   "/>
		<polygon style="fill:none;stroke:#000000;stroke-width:0.43;" points="5.978,-69.032 5.921,-71.266 3.926,-69.813   "/>
		<polygon style="fill:none;stroke:#000000;stroke-width:0.43;" points="28.61,-37.447 31.159,-38.129 29.275,-39.551   "/>
		<polygon style="fill:none;stroke:#000000;stroke-width:0.43;" points="33.111,-41.165 34.659,-39.379 35.295,-41.99   "/>
		<polygon style="fill:none;stroke:#000000;stroke-width:0.43;" points="4.638,-38.088 2.993,-39.769 2.089,-37.406   "/>
		<polygon style="fill:none;stroke:#000000;stroke-width:0.43;" points="21.159,-69.254 18.994,-70.762 18.771,-68.421   "/>
		<polygon style="fill:none;stroke:#000000;stroke-width:0.43;" points="23.409,-64.254 23.245,-66.6 21.025,-65.386   "/>
		<polygon style="fill:none;stroke:#000000;stroke-width:0.43;" points="12.298,-69.899 9.791,-69.559 11.612,-67.649   "/>
		<polygon style="fill:none;stroke:#000000;stroke-width:0.43;" points="7.851,-65.266 7.663,-62.743 9.909,-64.129   "/>
		<polygon style="fill:none;stroke:#000000;stroke-width:0.43;" points="22.568,-59.564 19.998,-59.093 21.612,-56.792   "/>
		<polygon style="fill:none;stroke:#000000;stroke-width:0.43;" points="25.938,-57.422 24.719,-55.411 27.232,-55.122   "/>
		<polygon style="fill:none;stroke:#000000;stroke-width:0.43;" points="30.854,-57.938 30.866,-55.298 32.909,-56.462   "/>
		<polygon style="fill:none;stroke:#000000;stroke-width:0.43;" points="34.781,-52.935 32.716,-51.81 34.743,-50.296   "/>
		<polygon style="fill:none;stroke:#000000;stroke-width:0.43;" points="28.691,-47.816 30.042,-45.677 31.022,-48.127   "/>
		<polygon style="fill:none;stroke:#000000;stroke-width:0.43;" points="6.119,-54.624 4.633,-57.151 3.321,-54.892   "/>
		<polygon style="fill:none;stroke:#000000;stroke-width:0.43;" points="16.762,-54.861 16.575,-52.339 18.82,-53.725   "/>
		<polygon style="fill:none;stroke:#000000;stroke-width:0.43;" points="26.101,-43.516 25.914,-40.993 28.159,-42.379   "/>
		<polygon style="fill:none;stroke:#000000;stroke-width:0.43;" points="17.391,-38.009 19.243,-36.129 19.892,-38.389   "/>
		<polygon style="fill:none;stroke:#000000;stroke-width:0.43;" points="8.677,-39.719 11.269,-39.219 10.523,-41.449   "/>
		<polygon style="fill:none;stroke:#000000;stroke-width:0.43;" points="18.887,-47.423 21.812,-47.221 20.688,-49.58   "/>
		<polygon style="fill:none;stroke:#000000;stroke-width:0.43;" points="24.326,-52.045 25.076,-49.629 26.658,-51.741   "/>
		<polygon style="fill:none;stroke:#000000;stroke-width:0.43;" points="22.159,-41.379 21.823,-43.707 19.698,-42.333   "/>
		<polygon style="fill:none;stroke:#000000;stroke-width:0.43;" points="5.998,-45.06 5.652,-42.554 7.981,-43.796   "/>
		<polygon style="fill:none;stroke:#000000;stroke-width:0.43;" points="13.686,-45.168 16.278,-45.662 14.761,-47.458   "/>
		<polygon style="fill:none;stroke:#000000;stroke-width:0.43;" points="15.409,-39.962 16.735,-42.244 14.384,-42.275   "/>
		<polygon style="fill:none;stroke:#000000;stroke-width:0.43;" points="29.46,-64.604 27.287,-65.503 27.383,-62.976   "/>
		<polygon style="fill:none;stroke:#000000;stroke-width:0.43;" points="17.344,-64.709 16.204,-66.765 14.706,-64.727   "/>
		<polygon style="fill:none;stroke:#000000;stroke-width:0.43;" points="14.623,-61.763 15.554,-59.293 17.062,-61.097   "/>
		<polygon style="fill:none;stroke:#000000;stroke-width:0.43;" points="12.688,-54.839 10.47,-53.41 12.549,-52.313   "/>
		<polygon style="fill:none;stroke:#000000;stroke-width:0.43;" points="8.482,-58.152 11.233,-57.575 10.038,-60.252   "/>
		<polygon style="fill:none;stroke:#000000;stroke-width:0.43;" points="8.442,-48.808 9.888,-46.954 11.052,-49.2   "/>
		<polygon style="fill:none;stroke:#000000;stroke-width:0.43;" points="5.314,-51.242 2.677,-51.337 3.758,-49.249   "/>
		<polygon style="fill:none;stroke:#000000;stroke-width:0.43;" points="34.491,-61.043 32.691,-62.557 32.02,-60.118   "/>
		<polygon style="fill:none;stroke:#000000;stroke-width:0.43;" points="1.082,-65.076 3.54,-65.269 2.096,-67.158   "/>
		<polygon style="fill:none;stroke:#000000;stroke-width:0.43;" points="3.438,-62.372 1.444,-60.745 4.014,-59.793   "/>
		<polygon style="fill:none;stroke:#000000;stroke-width:0.43;" points="36.498,-47.052 34.938,-45.06 37.576,-44.962   "/>
		<polygon style="fill:none;stroke:#000000;stroke-width:0.43;" points="23.816,-35.818 23.902,-33.543 25.771,-35.009   "/>
		<polygon style="fill:none;stroke:#000000;stroke-width:0.43;" points="69.052,-69.063 66.729,-68.645 67.822,-66.729   "/>
		<polygon style="fill:none;stroke:#000000;stroke-width:0.43;" points="41.798,-68.882 41.734,-71.364 39.518,-69.751   "/>
		<polygon style="fill:none;stroke:#000000;stroke-width:0.43;" points="68.909,-36.296 67.213,-37.575 66.615,-35.682   "/>
		<polygon style="fill:none;stroke:#000000;stroke-width:0.43;" points="71,-42.618 68.816,-41.793 70.364,-40.007   "/>
		<polygon style="fill:none;stroke:#000000;stroke-width:0.43;" points="40.313,-38.353 38.668,-40.033 37.763,-37.671   "/>
		<polygon style="fill:none;stroke:#000000;stroke-width:0.43;" points="55.984,-69.144 53.818,-70.652 53.595,-68.312   "/>
		<polygon style="fill:none;stroke:#000000;stroke-width:0.43;" points="59.743,-62.546 59.578,-64.892 57.359,-63.678   "/>
		<polygon style="fill:none;stroke:#000000;stroke-width:0.43;" points="47.972,-69.901 45.465,-69.561 47.287,-67.651   "/>
		<polygon style="fill:none;stroke:#000000;stroke-width:0.43;" points="43.517,-65.099 43.33,-62.576 45.576,-63.962   "/>
		<polygon style="fill:none;stroke:#000000;stroke-width:0.43;" points="58.834,-59.639 56.521,-59.215 57.974,-57.145   "/>
		<polygon style="fill:none;stroke:#000000;stroke-width:0.43;" points="61.687,-57.307 60.469,-55.296 62.982,-55.007   "/>
		<polygon style="fill:none;stroke:#000000;stroke-width:0.43;" points="65.995,-57.348 66.007,-54.709 68.05,-55.874   "/>
		<polygon style="fill:none;stroke:#000000;stroke-width:0.43;" points="68.96,-52.885 70.987,-51.371 71.025,-54.009   "/>
		<polygon style="fill:none;stroke:#000000;stroke-width:0.43;" points="64.724,-48.858 66.073,-46.719 67.054,-49.169   "/>
		<polygon style="fill:none;stroke:#000000;stroke-width:0.43;" points="41.914,-54.759 40.428,-57.287 39.116,-55.027   "/>
		<polygon style="fill:none;stroke:#000000;stroke-width:0.43;" points="53.099,-54.732 52.912,-52.21 55.157,-53.596   "/>
		<polygon style="fill:none;stroke:#000000;stroke-width:0.43;" points="63.729,-40.626 65.75,-41.874 63.897,-42.896   "/>
		<polygon style="fill:none;stroke:#000000;stroke-width:0.43;" points="54.766,-39.322 56.618,-37.442 57.267,-39.702   "/>
		<polygon style="fill:none;stroke:#000000;stroke-width:0.43;" points="44.245,-37.888 46.836,-37.388 46.091,-39.618   "/>
		<polygon style="fill:none;stroke:#000000;stroke-width:0.43;" points="56.409,-47.962 55.397,-50.085 53.776,-48.144   "/>
		<polygon style="fill:none;stroke:#000000;stroke-width:0.43;" points="59.455,-51.504 60.204,-49.088 61.786,-51.201   "/>
		<polygon style="fill:none;stroke:#000000;stroke-width:0.43;" points="60.576,-42.462 60.176,-45.867 57.651,-43.858   "/>
		<polygon style="fill:none;stroke:#000000;stroke-width:0.43;" points="42.282,-45.156 41.937,-42.65 44.265,-43.892   "/>
		<polygon style="fill:none;stroke:#000000;stroke-width:0.43;" points="50.483,-44.553 53.076,-45.046 51.559,-46.842   "/>
		<polygon style="fill:none;stroke:#000000;stroke-width:0.43;" points="49.884,-41.358 50.909,-39.046 52.235,-41.327   "/>
		<polygon style="fill:none;stroke:#000000;stroke-width:0.43;" points="65.247,-64.667 63.074,-65.566 63.17,-63.039   "/>
		<polygon style="fill:none;stroke:#000000;stroke-width:0.43;" points="53.159,-64.879 52.019,-66.935 50.521,-64.897   "/>
		<polygon style="fill:none;stroke:#000000;stroke-width:0.43;" points="53.162,-60.136 50.722,-60.802 51.653,-58.333   "/>
		<polygon style="fill:none;stroke:#000000;stroke-width:0.43;" points="48.385,-54.827 46.167,-53.398 48.247,-52.301   "/>
		<polygon style="fill:none;stroke:#000000;stroke-width:0.43;" points="46.906,-57.575 45.71,-60.252 44.156,-58.152   "/>
		<polygon style="fill:none;stroke:#000000;stroke-width:0.43;" points="47.609,-48.887 45,-48.496 46.446,-46.642   "/>
		<polygon style="fill:none;stroke:#000000;stroke-width:0.43;" points="41.109,-51.226 38.473,-51.32 39.553,-49.232   "/>
		<polygon style="fill:none;stroke:#000000;stroke-width:0.43;" points="70.115,-60.903 68.315,-62.417 67.644,-59.979   "/>
		<polygon style="fill:none;stroke:#000000;stroke-width:0.43;" points="39.149,-65.379 37.706,-67.269 36.691,-65.187   "/>
		<polygon style="fill:none;stroke:#000000;stroke-width:0.43;" points="39.028,-62.308 37.234,-60.844 39.546,-59.987   "/>
		<polygon style="fill:none;stroke:#000000;stroke-width:0.43;" points="60.929,-37.14 61.025,-34.612 63.102,-36.241   "/>
		<polyline style="fill:none;stroke:#000000;stroke-width:0.43;" points="0.169,-10.196 1.399,-10.15 0.321,-12.24 0.169,-12.046    "/>
		<polyline style="fill:none;stroke:#000000;stroke-width:0.43;" points="71.509,-47.654 70.103,-45.857 71.509,-45.805   "/>
		<polyline style="fill:none;stroke:#000000;stroke-width:0.43;" points="71.509,-12.044 70.103,-10.248 71.509,-10.196   "/>
		<polygon style="fill:none;stroke:#000000;stroke-width:0.43;" points="29.862,-33.759 31.076,-31.629 32.443,-34.223   "/>
		<polygon style="fill:none;stroke:#000000;stroke-width:0.43;" points="5.024,-34.411 7.076,-33.629 7.019,-35.863   "/>
		<polygon style="fill:none;stroke:#000000;stroke-width:0.43;" points="30.375,-1.86 32.669,-2.474 30.973,-3.754   "/>
		<polygon style="fill:none;stroke:#000000;stroke-width:0.43;" points="33.753,-6.451 35.146,-4.843 35.719,-7.192   "/>
		<polygon style="fill:none;stroke:#000000;stroke-width:0.43;" points="1.693,-1.614 4.243,-2.296 2.598,-3.976   "/>
		<polygon style="fill:none;stroke:#000000;stroke-width:0.43;" points="18.259,-30.38 20.409,-31.129 18.46,-32.487   "/>
		<polygon style="fill:none;stroke:#000000;stroke-width:0.43;" points="23.076,-26.962 22.912,-29.308 20.692,-28.095   "/>
		<polygon style="fill:none;stroke:#000000;stroke-width:0.43;" points="11.603,-36.015 13.243,-34.296 13.859,-36.32   "/>
		<polygon style="fill:none;stroke:#000000;stroke-width:0.43;" points="9.443,-27.706 7.384,-28.842 7.197,-26.319   "/>
		<polygon style="fill:none;stroke:#000000;stroke-width:0.43;" points="21.743,-21.129 22.603,-23.624 20.29,-23.2   "/>
		<polygon style="fill:none;stroke:#000000;stroke-width:0.43;" points="27.643,-20.339 26.349,-22.639 25.13,-20.628   "/>
		<polygon style="fill:none;stroke:#000000;stroke-width:0.43;" points="32.955,-20.326 30.9,-21.801 30.912,-19.162   "/>
		<polygon style="fill:none;stroke:#000000;stroke-width:0.43;" points="33.318,-16.367 35.345,-14.852 35.383,-17.491   "/>
		<polygon style="fill:none;stroke:#000000;stroke-width:0.43;" points="31.285,-10.884 32.167,-13.089 30.07,-12.809   "/>
		<polygon style="fill:none;stroke:#000000;stroke-width:0.43;" points="6.743,-19.879 5.257,-22.407 3.945,-20.147   "/>
		<polygon style="fill:none;stroke:#000000;stroke-width:0.43;" points="17.35,-16.394 19.595,-17.78 17.537,-18.917   "/>
		<polygon style="fill:none;stroke:#000000;stroke-width:0.43;" points="28.124,-6.458 30.145,-7.706 28.292,-8.729   "/>
		<polygon style="fill:none;stroke:#000000;stroke-width:0.43;" points="19.246,-3.728 20.913,-2.037 21.497,-4.07   "/>
		<polygon style="fill:none;stroke:#000000;stroke-width:0.43;" points="7.651,-3.13 10.243,-2.629 9.497,-4.859   "/>
		<polygon style="fill:none;stroke:#000000;stroke-width:0.43;" points="18.651,-11.727 21.284,-11.546 20.273,-13.669   "/>
		<polygon style="fill:none;stroke:#000000;stroke-width:0.43;" points="24.645,-16.343 25.395,-13.927 26.977,-16.039   "/>
		<polygon style="fill:none;stroke:#000000;stroke-width:0.43;" points="23.792,-9.06 21.881,-7.824 24.096,-6.965   "/>
		<polygon style="fill:none;stroke:#000000;stroke-width:0.43;" points="5.185,-7.732 7.514,-8.974 5.531,-10.238   "/>
		<polygon style="fill:none;stroke:#000000;stroke-width:0.43;" points="15.853,-9.527 14.336,-11.323 13.261,-9.034   "/>
		<polygon style="fill:none;stroke:#000000;stroke-width:0.43;" points="13.057,-5.222 14.083,-2.91 15.408,-5.191   "/>
		<polygon style="fill:none;stroke:#000000;stroke-width:0.43;" points="29.699,-29.012 27.285,-30.011 27.392,-27.203   "/>
		<polygon style="fill:none;stroke:#000000;stroke-width:0.43;" points="11.818,-29.756 14.457,-29.738 13.316,-31.794   "/>
		<polygon style="fill:none;stroke:#000000;stroke-width:0.43;" points="16.576,-23.629 18.085,-25.432 15.645,-26.098   "/>
		<polygon style="fill:none;stroke:#000000;stroke-width:0.43;" points="10.996,-17.059 13.076,-15.962 13.214,-18.488   "/>
		<polygon style="fill:none;stroke:#000000;stroke-width:0.43;" points="12.576,-22.629 11.5,-25.039 10.101,-23.149   "/>
		<polygon style="fill:none;stroke:#000000;stroke-width:0.43;" points="10.533,-14.085 7.924,-13.694 9.37,-11.84   "/>
		<polygon style="fill:none;stroke:#000000;stroke-width:0.43;" points="4.774,-16.431 2.137,-16.526 3.217,-14.438   "/>
		<polygon style="fill:none;stroke:#000000;stroke-width:0.43;" points="34.598,-25.352 32.598,-27.033 31.851,-24.324   "/>
		<polygon style="fill:none;stroke:#000000;stroke-width:0.43;" points="1.451,-30.603 3.909,-30.796 2.465,-32.685   "/>
		<polygon style="fill:none;stroke:#000000;stroke-width:0.43;" points="1.43,-24.986 3.743,-24.129 3.225,-26.45   "/>
		<polygon style="fill:none;stroke:#000000;stroke-width:0.43;" points="37.743,-9.796 36.772,-11.677 35.369,-9.884   "/>
		<polygon style="fill:none;stroke:#000000;stroke-width:0.43;" points="66.569,-32.102 67.661,-30.185 68.892,-32.52   "/>
		<polygon style="fill:none;stroke:#000000;stroke-width:0.43;" points="39.462,-33.498 41.743,-32.629 41.679,-35.111   "/>
		<polygon style="fill:none;stroke:#000000;stroke-width:0.43;" points="65.123,-1.977 67.671,-2.659 65.788,-4.081   "/>
		<polygon style="fill:none;stroke:#000000;stroke-width:0.43;" points="68.862,-6.648 70.409,-4.862 71.045,-7.473   "/>
		<polygon style="fill:none;stroke:#000000;stroke-width:0.43;" points="38.078,-1.845 40.627,-2.526 38.982,-4.207   "/>
		<polygon style="fill:none;stroke:#000000;stroke-width:0.43;" points="57.597,-33.15 55.431,-34.658 55.208,-32.317   "/>
		<polygon style="fill:none;stroke:#000000;stroke-width:0.43;" points="59.076,-26.796 58.912,-29.142 56.692,-27.928   "/>
		<polygon style="fill:none;stroke:#000000;stroke-width:0.43;" points="48.364,-33.617 45.857,-33.277 47.679,-31.368   "/>
		<polygon style="fill:none;stroke:#000000;stroke-width:0.43;" points="45.282,-27.604 43.224,-28.741 43.037,-26.218   "/>
		<polygon style="fill:none;stroke:#000000;stroke-width:0.43;" points="57.791,-21.853 55.478,-21.429 56.93,-19.358   "/>
		<polygon style="fill:none;stroke:#000000;stroke-width:0.43;" points="60.369,-21.382 62.882,-21.094 61.587,-23.394   "/>
		<polygon style="fill:none;stroke:#000000;stroke-width:0.43;" points="66.688,-22.604 66.699,-19.965 68.743,-21.129   "/>
		<polygon style="fill:none;stroke:#000000;stroke-width:0.43;" points="69.679,-15.436 69.718,-18.075 67.653,-16.95   "/>
		<polygon style="fill:none;stroke:#000000;stroke-width:0.43;" points="64.361,-12.888 65.576,-10.962 66.459,-13.167   "/>
		<polygon style="fill:none;stroke:#000000;stroke-width:0.43;" points="39.937,-21.7 38.625,-19.44 41.422,-19.172   "/>
		<polygon style="fill:none;stroke:#000000;stroke-width:0.43;" points="54.321,-17.015 52.263,-18.152 52.076,-15.629   "/>
		<polygon style="fill:none;stroke:#000000;stroke-width:0.43;" points="61.936,-5.99 64.182,-7.377 62.123,-8.513   "/>
		<polygon style="fill:none;stroke:#000000;stroke-width:0.43;" points="54.6,-3.156 56.451,-1.276 57.101,-3.536   "/>
		<polygon style="fill:none;stroke:#000000;stroke-width:0.43;" points="44.651,-2.296 47.243,-1.796 46.497,-4.026   "/>
		<polygon style="fill:none;stroke:#000000;stroke-width:0.43;" points="54.719,-12.195 57.352,-12.013 56.34,-14.136   "/>
		<polygon style="fill:none;stroke:#000000;stroke-width:0.43;" points="60.238,-16.034 60.988,-13.619 62.57,-15.731   "/>
		<polygon style="fill:none;stroke:#000000;stroke-width:0.43;" points="58.842,-6.591 58.506,-8.918 56.382,-7.544   "/>
		<polygon style="fill:none;stroke:#000000;stroke-width:0.43;" points="41.899,-6.662 44.228,-7.903 42.245,-9.167   "/>
		<polygon style="fill:none;stroke:#000000;stroke-width:0.43;" points="48.957,-8.974 51.55,-9.467 50.033,-11.264   "/>
		<polygon style="fill:none;stroke:#000000;stroke-width:0.43;" points="49.907,-5.647 50.932,-3.335 52.258,-5.616   "/>
		<polygon style="fill:none;stroke:#000000;stroke-width:0.43;" points="65.176,-29.22 63.003,-30.119 63.1,-27.591   "/>
		<polygon style="fill:none;stroke:#000000;stroke-width:0.43;" points="50.437,-28.897 53.076,-28.879 51.935,-30.935   "/>
		<polygon style="fill:none;stroke:#000000;stroke-width:0.43;" points="51.312,-25.932 52.243,-23.462 53.751,-25.266   "/>
		<polygon style="fill:none;stroke:#000000;stroke-width:0.43;" points="47.243,-16.296 47.381,-18.821 45.163,-17.393   "/>
		<polygon style="fill:none;stroke:#000000;stroke-width:0.43;" points="48.243,-21.962 47.167,-24.372 45.767,-22.482   "/>
		<polygon style="fill:none;stroke:#000000;stroke-width:0.43;" points="44.546,-12.483 45.993,-10.629 47.156,-12.875   "/>
		<polygon style="fill:none;stroke:#000000;stroke-width:0.43;" points="41.853,-15.055 39.216,-15.15 40.296,-13.062   "/>
		<polygon style="fill:none;stroke:#000000;stroke-width:0.43;" points="70.48,-25.904 68.68,-27.417 68.008,-24.979   "/>
		<polygon style="fill:none;stroke:#000000;stroke-width:0.43;" points="35.444,-29.869 38.176,-30.083 36.572,-32.182   "/>
		<polygon style="fill:none;stroke:#000000;stroke-width:0.43;" points="39.687,-24.19 39.111,-26.768 37.117,-25.142   "/>
		<polyline style="fill:none;stroke:#000000;stroke-width:0.43;" points="27.047,-71.47 25.174,-70.001 25.118,-71.47   "/>
		<polyline style="fill:none;stroke:#000000;stroke-width:0.43;" points="62.719,-71.47 60.846,-70.001 60.79,-71.47   "/>
		<polyline style="fill:none;stroke:#000000;stroke-width:0.43;" points="27.033,-0.169 27.25,-0.34 25.078,-1.239 25.118,-0.169    "/>
		<polyline style="fill:none;stroke:#000000;stroke-width:0.43;" points="62.705,-0.169 62.922,-0.34 60.75,-1.239 60.791,-0.169    "/>
	</g>
</svg>
