<?xml version="1.0" encoding="utf-8"?>
<svg xmlns="http://www.w3.org/2000/svg" version="1.1" x="0px" y="0px" xml:space="preserve" width="54" height="54" viewBox="2.16 -56.16 54 54">
	<g>
		<rect x="2.16" y="-56.16" style="fill:none;" width="54" height="54"/>
		<line style="fill:none;stroke:#EC008C;stroke-width:0.58;" x1="6.917" y1="-51.793" x2="9.567" y2="-48.973"/>
		<line style="fill:none;stroke:#EC008C;stroke-width:0.58;" x1="2.813" y1="-56.16" x2="6.917" y2="-51.793"/>
		<line style="fill:none;stroke:#EC008C;stroke-width:0.58;" x1="12.274" y1="-46.093" x2="9.567" y2="-48.973"/>
		<line style="fill:none;stroke:#EC008C;stroke-width:0.58;" x1="16.989" y1="-41.076" x2="12.274" y2="-46.093"/>
		<line style="fill:none;stroke:#EC008C;stroke-width:0.58;" x1="17.834" y1="-52.563" x2="21.218" y2="-48.896"/>
		<line style="fill:none;stroke:#EC008C;stroke-width:0.58;" x1="24.144" y1="-45.725" x2="26.415" y2="-43.264"/>
		<line style="fill:none;stroke:#EC008C;stroke-width:0.58;" x1="14.755" y1="-55.9" x2="14.515" y2="-56.16"/>
		<line style="fill:none;stroke:#EC008C;stroke-width:0.58;" x1="14.755" y1="-55.9" x2="17.834" y2="-52.563"/>
		<line style="fill:none;stroke:#EC008C;stroke-width:0.58;" x1="24.144" y1="-45.725" x2="21.218" y2="-48.896"/>
		<line style="fill:none;stroke:#EC008C;stroke-width:0.58;" x1="14.515" y1="-2.16" x2="11.74" y2="-5.168"/>
		<line style="fill:none;stroke:#EC008C;stroke-width:0.58;" x1="9.864" y1="-7.201" x2="11.74" y2="-5.168"/>
		<line style="fill:none;stroke:#EC008C;stroke-width:0.58;" x1="38.253" y1="-47.535" x2="45.114" y2="-39.576"/>
		<line style="fill:none;stroke:#EC008C;stroke-width:0.58;" x1="35.369" y1="-50.881" x2="38.253" y2="-47.535"/>
		<line style="fill:none;stroke:#EC008C;stroke-width:0.58;" x1="35.369" y1="-50.881" x2="33.5" y2="-53.048"/>
		<line style="fill:none;stroke:#EC008C;stroke-width:0.58;" x1="30.817" y1="-56.16" x2="31.285" y2="-55.618"/>
		<line style="fill:none;stroke:#EC008C;stroke-width:0.58;" x1="33.5" y1="-53.048" x2="31.285" y2="-55.618"/>
		<line style="fill:none;stroke:#EC008C;stroke-width:0.58;" x1="46.998" y1="-42.846" x2="40.505" y2="-50.447"/>
		<line style="fill:none;stroke:#EC008C;stroke-width:0.58;" x1="46.998" y1="-42.846" x2="49.31" y2="-40.139"/>
		<line style="fill:none;stroke:#EC008C;stroke-width:0.58;" x1="35.803" y1="-55.952" x2="40.505" y2="-50.447"/>
		<line style="fill:none;stroke:#EC008C;stroke-width:0.58;" x1="35.803" y1="-55.952" x2="35.625" y2="-56.16"/>
		<line style="fill:none;stroke:#EC008C;stroke-width:0.58;" x1="49.364" y1="-40.076" x2="49.31" y2="-40.139"/>
		<line style="fill:none;stroke:#EC008C;stroke-width:0.58;" x1="41.399" y1="-56.16" x2="46.345" y2="-50.391"/>
		<line style="fill:none;stroke:#EC008C;stroke-width:0.58;" x1="46.345" y1="-50.391" x2="48.114" y2="-48.326"/>
		<line style="fill:none;stroke:#EC008C;stroke-width:0.58;" x1="50.998" y1="-45.181" x2="52.678" y2="-43.329"/>
		<line style="fill:none;stroke:#EC008C;stroke-width:0.58;" x1="52.678" y1="-43.329" x2="54.04" y2="-41.826"/>
		<line style="fill:none;stroke:#EC008C;stroke-width:0.58;" x1="20.639" y1="-56.035" x2="21.353" y2="-55.139"/>
		<line style="fill:none;stroke:#EC008C;stroke-width:0.58;" x1="20.54" y1="-56.16" x2="20.639" y2="-56.035"/>
		<line style="fill:none;stroke:#EC008C;stroke-width:0.58;" x1="33.14" y1="-48.297" x2="36.342" y2="-45.063"/>
		<line style="fill:none;stroke:#EC008C;stroke-width:0.58;" x1="33.14" y1="-48.297" x2="32.697" y2="-48.743"/>
		<line style="fill:none;stroke:#EC008C;stroke-width:0.58;" x1="36.342" y1="-45.063" x2="39.135" y2="-42.243"/>
		<line style="fill:none;stroke:#EC008C;stroke-width:0.58;" x1="28.664" y1="-51.986" x2="25.917" y2="-55.367"/>
		<line style="fill:none;stroke:#EC008C;stroke-width:0.58;" x1="25.272" y1="-56.16" x2="25.917" y2="-55.367"/>
		<line style="fill:none;stroke:#EC008C;stroke-width:0.58;" x1="28.664" y1="-51.986" x2="30.114" y2="-50.201"/>
		<line style="fill:none;stroke:#EC008C;stroke-width:0.58;" x1="23.479" y1="-52.01" x2="26.493" y2="-48.979"/>
		<line style="fill:none;stroke:#EC008C;stroke-width:0.58;" x1="23.479" y1="-52.01" x2="22.915" y2="-52.576"/>
		<line style="fill:none;stroke:#EC008C;stroke-width:0.58;" x1="30.369" y1="-45.085" x2="26.493" y2="-48.979"/>
		<line style="fill:none;stroke:#EC008C;stroke-width:0.58;" x1="35.165" y1="-40.264" x2="30.369" y2="-45.085"/>
		<path style="fill:none;stroke:#EC008C;stroke-width:0.58;" d="M51.311-55.17c-0.26-0.33-0.52-0.661-0.775-0.99"/>
		<path style="fill:none;stroke:#EC008C;stroke-width:0.58;" d="M51.311-55.17c0.778,0.99,1.558,1.969,2.246,2.84"/>
		<path style="fill:none;stroke:#EC008C;stroke-width:0.58;" d="M55.114-50.326c-0.399-0.533-0.941-1.225-1.558-2.004"/>
		<line style="fill:none;stroke:#EC008C;stroke-width:0.58;" x1="9.671" y1="-55.033" x2="6.917" y2="-51.793"/>
		<line style="fill:none;stroke:#EC008C;stroke-width:0.58;" x1="9.671" y1="-55.033" x2="10.239" y2="-55.701"/>
		<line style="fill:none;stroke:#EC008C;stroke-width:0.58;" x1="6.917" y1="-51.793" x2="5.989" y2="-50.701"/>
		<line style="fill:none;stroke:#EC008C;stroke-width:0.58;" x1="12.045" y1="-52.416" x2="11.489" y2="-51.701"/>
		<line style="fill:none;stroke:#EC008C;stroke-width:0.58;" x1="12.045" y1="-52.416" x2="14.755" y2="-55.9"/>
		<line style="fill:none;stroke:#EC008C;stroke-width:0.58;" x1="14.755" y1="-55.9" x2="14.957" y2="-56.16"/>
		<line style="fill:none;stroke:#EC008C;stroke-width:0.58;" x1="8.665" y1="-41.014" x2="9.213" y2="-41.784"/>
		<line style="fill:none;stroke:#EC008C;stroke-width:0.58;" x1="12.274" y1="-46.093" x2="9.213" y2="-41.784"/>
		<line style="fill:none;stroke:#EC008C;stroke-width:0.58;" x1="13.239" y1="-47.451" x2="12.274" y2="-46.093"/>
		<line style="fill:none;stroke:#EC008C;stroke-width:0.58;" x1="17.834" y1="-52.563" x2="20.639" y2="-56.035"/>
		<line style="fill:none;stroke:#EC008C;stroke-width:0.58;" x1="20.739" y1="-56.16" x2="20.639" y2="-56.035"/>
		<line style="fill:none;stroke:#EC008C;stroke-width:0.58;" x1="14.614" y1="-48.576" x2="17.834" y2="-52.563"/>
		<line style="fill:none;stroke:#EC008C;stroke-width:0.58;" x1="22.864" y1="-43.951" x2="24.144" y2="-45.725"/>
		<line style="fill:none;stroke:#EC008C;stroke-width:0.58;" x1="31.285" y1="-55.618" x2="31.676" y2="-56.16"/>
		<line style="fill:none;stroke:#EC008C;stroke-width:0.58;" x1="24.144" y1="-45.725" x2="26.493" y2="-48.979"/>
		<line style="fill:none;stroke:#EC008C;stroke-width:0.58;" x1="31.285" y1="-55.618" x2="28.664" y2="-51.986"/>
		<line style="fill:none;stroke:#EC008C;stroke-width:0.58;" x1="28.664" y1="-51.986" x2="26.493" y2="-48.979"/>
		<line style="fill:none;stroke:#EC008C;stroke-width:0.58;" x1="35.803" y1="-55.952" x2="33.5" y2="-53.048"/>
		<line style="fill:none;stroke:#EC008C;stroke-width:0.58;" x1="35.803" y1="-55.952" x2="35.968" y2="-56.16"/>
		<line style="fill:none;stroke:#EC008C;stroke-width:0.58;" x1="33.5" y1="-53.048" x2="31.739" y2="-50.826"/>
		<line style="fill:none;stroke:#EC008C;stroke-width:0.58;" x1="42.635" y1="-53.201" x2="40.505" y2="-50.447"/>
		<line style="fill:none;stroke:#EC008C;stroke-width:0.58;" x1="38.253" y1="-47.535" x2="40.505" y2="-50.447"/>
		<line style="fill:none;stroke:#EC008C;stroke-width:0.58;" x1="35.385" y1="-43.826" x2="36.342" y2="-45.063"/>
		<line style="fill:none;stroke:#EC008C;stroke-width:0.58;" x1="38.253" y1="-47.535" x2="36.342" y2="-45.063"/>
		<line style="fill:none;stroke:#EC008C;stroke-width:0.58;" x1="46.345" y1="-50.391" x2="45.239" y2="-49.326"/>
		<line style="fill:none;stroke:#EC008C;stroke-width:0.58;" x1="51.311" y1="-55.17" x2="51.864" y2="-55.701"/>
		<line style="fill:none;stroke:#EC008C;stroke-width:0.58;" x1="51.311" y1="-55.17" x2="46.345" y2="-50.391"/>
		<line style="fill:none;stroke:#EC008C;stroke-width:0.58;" x1="49.739" y1="-47.951" x2="53.557" y2="-52.33"/>
		<line style="fill:none;stroke:#EC008C;stroke-width:0.58;" x1="53.557" y1="-52.33" x2="53.989" y2="-52.826"/>
		<line style="fill:none;stroke:#EC008C;stroke-width:0.58;" x1="46.822" y1="-42.66" x2="46.998" y2="-42.846"/>
		<line style="fill:none;stroke:#EC008C;stroke-width:0.58;" x1="50.082" y1="-46.098" x2="46.998" y2="-42.846"/>
		<line style="fill:none;stroke:#EC008C;stroke-width:0.58;" x1="52.051" y1="-42.639" x2="52.678" y2="-43.329"/>
		<line style="fill:none;stroke:#EC008C;stroke-width:0.58;" x1="54.603" y1="-45.451" x2="52.678" y2="-43.329"/>
		<line style="fill:none;stroke:#EC008C;stroke-width:0.58;" x1="53.727" y1="-35.667" x2="51.453" y2="-32.594"/>
		<line style="fill:none;stroke:#EC008C;stroke-width:0.58;" x1="49.552" y1="-30.025" x2="51.453" y2="-32.594"/>
		<line style="fill:none;stroke:#EC008C;stroke-width:0.58;" x1="48.218" y1="-28.223" x2="49.552" y2="-30.025"/>
		<line style="fill:none;stroke:#EC008C;stroke-width:0.58;" x1="56.16" y1="-38.957" x2="53.727" y2="-35.667"/>
		<line style="fill:none;stroke:#EC008C;stroke-width:0.58;" x1="2.56" y1="-39.503" x2="2.16" y2="-38.961"/>
		<line style="fill:none;stroke:#EC008C;stroke-width:0.58;" x1="10.337" y1="-50.014" x2="9.567" y2="-48.973"/>
		<line style="fill:none;stroke:#EC008C;stroke-width:0.58;" x1="6.373" y1="-44.655" x2="9.567" y2="-48.973"/>
		<line style="fill:none;stroke:#EC008C;stroke-width:0.58;" x1="2.56" y1="-39.503" x2="6.373" y2="-44.655"/>
		<line style="fill:none;stroke:#EC008C;stroke-width:0.58;" x1="50.845" y1="-23.481" x2="48.978" y2="-20.712"/>
		<line style="fill:none;stroke:#EC008C;stroke-width:0.58;" x1="50.845" y1="-23.481" x2="56.16" y2="-31.368"/>
		<line style="fill:none;stroke:#EC008C;stroke-width:0.58;" x1="44.589" y1="-14.201" x2="45.948" y2="-16.217"/>
		<line style="fill:none;stroke:#EC008C;stroke-width:0.58;" x1="48.978" y1="-20.712" x2="45.948" y2="-16.217"/>
		<line style="fill:none;stroke:#EC008C;stroke-width:0.58;" x1="2.16" y1="-31.33" x2="5.645" y2="-36.501"/>
		<line style="fill:none;stroke:#EC008C;stroke-width:0.58;" x1="6.665" y1="-38.014" x2="5.645" y2="-36.501"/>
		<line style="fill:none;stroke:#EC008C;stroke-width:0.58;" x1="42.491" y1="-37.254" x2="39.489" y2="-40.326"/>
		<line style="fill:none;stroke:#EC008C;stroke-width:0.58;" x1="45.147" y1="-34.535" x2="42.491" y2="-37.254"/>
		<line style="fill:none;stroke:#EC008C;stroke-width:0.58;" x1="45.147" y1="-34.535" x2="49.552" y2="-30.025"/>
		<line style="fill:none;stroke:#EC008C;stroke-width:0.58;" x1="50.114" y1="-29.451" x2="49.552" y2="-30.025"/>
		<line style="fill:none;stroke:#EC008C;stroke-width:0.58;" x1="47.168" y1="-37.256" x2="51.453" y2="-32.594"/>
		<line style="fill:none;stroke:#EC008C;stroke-width:0.58;" x1="51.453" y1="-32.594" x2="52.79" y2="-31.139"/>
		<line style="fill:none;stroke:#EC008C;stroke-width:0.58;" x1="47.168" y1="-37.256" x2="46.989" y2="-37.451"/>
		<line style="fill:none;stroke:#EC008C;stroke-width:0.58;" x1="53.727" y1="-35.667" x2="52.394" y2="-36.889"/>
		<line style="fill:none;stroke:#EC008C;stroke-width:0.58;" x1="56.16" y1="-33.436" x2="53.727" y2="-35.667"/>
		<line style="fill:none;stroke:#EC008C;stroke-width:0.58;" x1="45.147" y1="-34.535" x2="42.778" y2="-31.345"/>
		<line style="fill:none;stroke:#EC008C;stroke-width:0.58;" x1="41.114" y1="-29.105" x2="42.778" y2="-31.345"/>
		<line style="fill:none;stroke:#EC008C;stroke-width:0.58;" x1="47.168" y1="-37.256" x2="49.31" y2="-40.139"/>
		<line style="fill:none;stroke:#EC008C;stroke-width:0.58;" x1="38.864" y1="-26.076" x2="41.114" y2="-29.105"/>
		<line style="fill:none;stroke:#EC008C;stroke-width:0.58;" x1="45.147" y1="-34.535" x2="47.168" y2="-37.256"/>
		<line style="fill:none;stroke:#EC008C;stroke-width:0.58;" x1="50.332" y1="-41.514" x2="49.31" y2="-40.139"/>
		<line style="fill:none;stroke:#EC008C;stroke-width:0.58;" x1="42.491" y1="-37.254" x2="37.93" y2="-32.104"/>
		<line style="fill:none;stroke:#EC008C;stroke-width:0.58;" x1="42.491" y1="-37.254" x2="43.551" y2="-38.451"/>
		<line style="fill:none;stroke:#EC008C;stroke-width:0.58;" x1="35.801" y1="-29.701" x2="37.93" y2="-32.104"/>
		<line style="fill:none;stroke:#EC008C;stroke-width:0.58;" x1="32.79" y1="-41.264" x2="30.652" y2="-38.959"/>
		<line style="fill:none;stroke:#EC008C;stroke-width:0.58;" x1="26.76" y1="-34.764" x2="30.652" y2="-38.959"/>
		<line style="fill:none;stroke:#EC008C;stroke-width:0.58;" x1="14.877" y1="-36.061" x2="12.216" y2="-38.75"/>
		<line style="fill:none;stroke:#EC008C;stroke-width:0.58;" x1="14.877" y1="-36.061" x2="15.665" y2="-35.264"/>
		<line style="fill:none;stroke:#EC008C;stroke-width:0.58;" x1="12.216" y1="-38.75" x2="9.213" y2="-41.784"/>
		<line style="fill:none;stroke:#EC008C;stroke-width:0.58;" x1="6.373" y1="-44.655" x2="2.864" y2="-48.201"/>
		<line style="fill:none;stroke:#EC008C;stroke-width:0.58;" x1="6.373" y1="-44.655" x2="9.213" y2="-41.784"/>
		<line style="fill:none;stroke:#EC008C;stroke-width:0.58;" x1="14.712" y1="-20.121" x2="11.765" y2="-23.273"/>
		<line style="fill:none;stroke:#EC008C;stroke-width:0.58;" x1="4.998" y1="-30.514" x2="5.828" y2="-29.625"/>
		<line style="fill:none;stroke:#EC008C;stroke-width:0.58;" x1="9.763" y1="-25.415" x2="5.828" y2="-29.625"/>
		<line style="fill:none;stroke:#EC008C;stroke-width:0.58;" x1="11.765" y1="-23.273" x2="9.763" y2="-25.415"/>
		<line style="fill:none;stroke:#EC008C;stroke-width:0.58;" x1="14.712" y1="-20.121" x2="19.954" y2="-14.512"/>
		<line style="fill:none;stroke:#EC008C;stroke-width:0.58;" x1="19.954" y1="-14.512" x2="22.114" y2="-12.201"/>
		<line style="fill:none;stroke:#EC008C;stroke-width:0.58;" x1="8.616" y1="-33.608" x2="5.645" y2="-36.501"/>
		<line style="fill:none;stroke:#EC008C;stroke-width:0.58;" x1="2.56" y1="-39.503" x2="2.16" y2="-39.893"/>
		<line style="fill:none;stroke:#EC008C;stroke-width:0.58;" x1="2.56" y1="-39.503" x2="5.645" y2="-36.501"/>
		<line style="fill:none;stroke:#EC008C;stroke-width:0.58;" x1="11.989" y1="-30.326" x2="8.616" y2="-33.608"/>
		<line style="fill:none;stroke:#EC008C;stroke-width:0.58;" x1="5.828" y1="-29.625" x2="4.248" y2="-27.368"/>
		<line style="fill:none;stroke:#EC008C;stroke-width:0.58;" x1="8.616" y1="-33.608" x2="5.828" y2="-29.625"/>
		<line style="fill:none;stroke:#EC008C;stroke-width:0.58;" x1="8.616" y1="-33.608" x2="12.216" y2="-38.75"/>
		<line style="fill:none;stroke:#EC008C;stroke-width:0.58;" x1="13.582" y1="-40.701" x2="12.216" y2="-38.75"/>
		<line style="fill:none;stroke:#EC008C;stroke-width:0.58;" x1="14.877" y1="-36.061" x2="20.54" y2="-44.223"/>
		<line style="fill:none;stroke:#EC008C;stroke-width:0.58;" x1="12.04" y1="-31.973" x2="14.877" y2="-36.061"/>
		<line style="fill:none;stroke:#EC008C;stroke-width:0.58;" x1="24.925" y1="-38.775" x2="30.369" y2="-45.085"/>
		<line style="fill:none;stroke:#EC008C;stroke-width:0.58;" x1="33.14" y1="-48.297" x2="35.369" y2="-50.881"/>
		<line style="fill:none;stroke:#EC008C;stroke-width:0.58;" x1="22.021" y1="-35.41" x2="17.796" y2="-30.512"/>
		<line style="fill:none;stroke:#EC008C;stroke-width:0.58;" x1="33.14" y1="-48.297" x2="30.369" y2="-45.085"/>
		<line style="fill:none;stroke:#EC008C;stroke-width:0.58;" x1="15.164" y1="-27.461" x2="13.915" y2="-26.014"/>
		<line style="fill:none;stroke:#EC008C;stroke-width:0.58;" x1="24.925" y1="-38.775" x2="22.021" y2="-35.41"/>
		<line style="fill:none;stroke:#EC008C;stroke-width:0.58;" x1="15.164" y1="-27.461" x2="17.796" y2="-30.512"/>
		<line style="fill:none;stroke:#EC008C;stroke-width:0.58;" x1="35.369" y1="-50.881" x2="35.915" y2="-51.514"/>
		<line style="fill:none;stroke:#EC008C;stroke-width:0.58;" x1="34.248" y1="-35.572" x2="30.652" y2="-38.959"/>
		<line style="fill:none;stroke:#EC008C;stroke-width:0.58;" x1="34.248" y1="-35.572" x2="37.93" y2="-32.104"/>
		<line style="fill:none;stroke:#EC008C;stroke-width:0.58;" x1="41.114" y1="-29.105" x2="37.93" y2="-32.104"/>
		<line style="fill:none;stroke:#EC008C;stroke-width:0.58;" x1="30.652" y1="-38.959" x2="29.864" y2="-39.701"/>
		<line style="fill:none;stroke:#EC008C;stroke-width:0.58;" x1="41.114" y1="-29.105" x2="42.739" y2="-27.576"/>
		<line style="fill:none;stroke:#EC008C;stroke-width:0.58;" x1="24.699" y1="-32.737" x2="26.614" y2="-30.826"/>
		<line style="fill:none;stroke:#EC008C;stroke-width:0.58;" x1="22.021" y1="-35.41" x2="20.415" y2="-37.014"/>
		<line style="fill:none;stroke:#EC008C;stroke-width:0.58;" x1="22.021" y1="-35.41" x2="24.699" y2="-32.737"/>
		<line style="fill:none;stroke:#EC008C;stroke-width:0.58;" x1="17.796" y1="-30.512" x2="15.102" y2="-33.098"/>
		<line style="fill:none;stroke:#EC008C;stroke-width:0.58;" x1="17.796" y1="-30.512" x2="19.79" y2="-28.598"/>
		<line style="fill:none;stroke:#EC008C;stroke-width:0.58;" x1="24.482" y1="-25.746" x2="27.392" y2="-22.972"/>
		<line style="fill:none;stroke:#EC008C;stroke-width:0.58;" x1="23.415" y1="-26.764" x2="24.482" y2="-25.746"/>
		<line style="fill:none;stroke:#EC008C;stroke-width:0.58;" x1="27.392" y1="-22.972" x2="31.61" y2="-18.949"/>
		<line style="fill:none;stroke:#EC008C;stroke-width:0.58;" x1="30.192" y1="-31.492" x2="24.482" y2="-25.746"/>
		<line style="fill:none;stroke:#EC008C;stroke-width:0.58;" x1="34.248" y1="-35.572" x2="30.192" y2="-31.492"/>
		<line style="fill:none;stroke:#EC008C;stroke-width:0.58;" x1="34.248" y1="-35.572" x2="37.915" y2="-39.264"/>
		<line style="fill:none;stroke:#EC008C;stroke-width:0.58;" x1="24.482" y1="-25.746" x2="20.382" y2="-21.618"/>
		<line style="fill:none;stroke:#EC008C;stroke-width:0.58;" x1="20.382" y1="-21.618" x2="18.394" y2="-19.618"/>
		<line style="fill:none;stroke:#EC008C;stroke-width:0.58;" x1="24.699" y1="-32.737" x2="25.364" y2="-33.576"/>
		<line style="fill:none;stroke:#EC008C;stroke-width:0.58;" x1="14.712" y1="-20.121" x2="18.004" y2="-24.28"/>
		<line style="fill:none;stroke:#EC008C;stroke-width:0.58;" x1="24.699" y1="-32.737" x2="18.004" y2="-24.28"/>
		<line style="fill:none;stroke:#EC008C;stroke-width:0.58;" x1="14.712" y1="-20.121" x2="13.489" y2="-18.576"/>
		<line style="fill:none;stroke:#EC008C;stroke-width:0.58;" x1="14.614" y1="-28.076" x2="15.164" y2="-27.461"/>
		<line style="fill:none;stroke:#EC008C;stroke-width:0.58;" x1="23.315" y1="-18.335" x2="20.382" y2="-21.618"/>
		<line style="fill:none;stroke:#EC008C;stroke-width:0.58;" x1="23.315" y1="-18.335" x2="31.551" y2="-9.114"/>
		<line style="fill:none;stroke:#EC008C;stroke-width:0.58;" x1="20.382" y1="-21.618" x2="18.004" y2="-24.28"/>
		<line style="fill:none;stroke:#EC008C;stroke-width:0.58;" x1="15.164" y1="-27.461" x2="18.004" y2="-24.28"/>
		<line style="fill:none;stroke:#EC008C;stroke-width:0.58;" x1="31.551" y1="-9.114" x2="32.832" y2="-7.681"/>
		<line style="fill:none;stroke:#EC008C;stroke-width:0.58;" x1="30.475" y1="-26.479" x2="27.392" y2="-22.972"/>
		<line style="fill:none;stroke:#EC008C;stroke-width:0.58;" x1="11.74" y1="-5.168" x2="11.165" y2="-4.514"/>
		<line style="fill:none;stroke:#EC008C;stroke-width:0.58;" x1="23.315" y1="-18.335" x2="27.392" y2="-22.972"/>
		<line style="fill:none;stroke:#EC008C;stroke-width:0.58;" x1="23.315" y1="-18.335" x2="19.954" y2="-14.512"/>
		<line style="fill:none;stroke:#EC008C;stroke-width:0.58;" x1="31.989" y1="-28.201" x2="30.475" y2="-26.479"/>
		<line style="fill:none;stroke:#EC008C;stroke-width:0.58;" x1="11.74" y1="-5.168" x2="15.102" y2="-8.992"/>
		<line style="fill:none;stroke:#EC008C;stroke-width:0.58;" x1="19.954" y1="-14.512" x2="15.102" y2="-8.992"/>
		<line style="fill:none;stroke:#EC008C;stroke-width:0.58;" x1="37.234" y1="-24.665" x2="37.614" y2="-25.201"/>
		<line style="fill:none;stroke:#EC008C;stroke-width:0.58;" x1="35" y1="-21.512" x2="29.114" y2="-13.201"/>
		<line style="fill:none;stroke:#EC008C;stroke-width:0.58;" x1="37.234" y1="-24.665" x2="35" y2="-21.512"/>
		<line style="fill:none;stroke:#EC008C;stroke-width:0.58;" x1="54.947" y1="-19.482" x2="55.364" y2="-19.076"/>
		<line style="fill:none;stroke:#EC008C;stroke-width:0.58;" x1="50.845" y1="-23.481" x2="42.778" y2="-31.345"/>
		<line style="fill:none;stroke:#EC008C;stroke-width:0.58;" x1="42.778" y1="-31.345" x2="40.489" y2="-33.576"/>
		<line style="fill:none;stroke:#EC008C;stroke-width:0.58;" x1="50.845" y1="-23.481" x2="54.947" y2="-19.482"/>
		<line style="fill:none;stroke:#EC008C;stroke-width:0.58;" x1="43.662" y1="-18.434" x2="45.948" y2="-16.217"/>
		<line style="fill:none;stroke:#EC008C;stroke-width:0.58;" x1="45.948" y1="-16.217" x2="46.415" y2="-15.764"/>
		<line style="fill:none;stroke:#EC008C;stroke-width:0.58;" x1="40.526" y1="-21.474" x2="43.662" y2="-18.434"/>
		<line style="fill:none;stroke:#EC008C;stroke-width:0.58;" x1="40.526" y1="-21.474" x2="37.234" y2="-24.665"/>
		<line style="fill:none;stroke:#EC008C;stroke-width:0.58;" x1="29.998" y1="-31.681" x2="30.192" y2="-31.492"/>
		<line style="fill:none;stroke:#EC008C;stroke-width:0.58;" x1="30.192" y1="-31.492" x2="37.234" y2="-24.665"/>
		<line style="fill:none;stroke:#EC008C;stroke-width:0.58;" x1="47.145" y1="-22.546" x2="44.114" y2="-25.576"/>
		<line style="fill:none;stroke:#EC008C;stroke-width:0.58;" x1="50.989" y1="-18.701" x2="48.978" y2="-20.712"/>
		<line style="fill:none;stroke:#EC008C;stroke-width:0.58;" x1="48.978" y1="-20.712" x2="47.145" y2="-22.546"/>
		<line style="fill:none;stroke:#EC008C;stroke-width:0.58;" x1="23.239" y1="-10.951" x2="25.614" y2="-8.195"/>
		<line style="fill:none;stroke:#EC008C;stroke-width:0.58;" x1="25.614" y1="-8.195" x2="28.475" y2="-4.877"/>
		<line style="fill:none;stroke:#EC008C;stroke-width:0.58;" x1="30.817" y1="-2.16" x2="28.475" y2="-4.877"/>
		<line style="fill:none;stroke:#EC008C;stroke-width:0.58;" x1="34.593" y1="-3.368" x2="35.625" y2="-2.16"/>
		<line style="fill:none;stroke:#EC008C;stroke-width:0.58;" x1="38.577" y1="-5.452" x2="41.399" y2="-2.16"/>
		<line style="fill:none;stroke:#EC008C;stroke-width:0.58;" x1="36.864" y1="-7.451" x2="38.577" y2="-5.452"/>
		<line style="fill:none;stroke:#EC008C;stroke-width:0.58;" x1="11.979" y1="-12.916" x2="15.102" y2="-8.992"/>
		<line style="fill:none;stroke:#EC008C;stroke-width:0.58;" x1="11.979" y1="-12.916" x2="9.364" y2="-16.201"/>
		<line style="fill:none;stroke:#EC008C;stroke-width:0.58;" x1="20.541" y1="-2.16" x2="15.102" y2="-8.992"/>
		<line style="fill:none;stroke:#EC008C;stroke-width:0.58;" x1="21.989" y1="-6.201" x2="22.999" y2="-4.958"/>
		<line style="fill:none;stroke:#EC008C;stroke-width:0.58;" x1="22.999" y1="-4.958" x2="25.272" y2="-2.16"/>
		<line style="fill:none;stroke:#EC008C;stroke-width:0.58;" x1="37.993" y1="-17.985" x2="40.639" y2="-14.785"/>
		<path style="fill:none;stroke:#EC008C;stroke-width:0.58;" d="M46.828-7.298l0.286,0.347c0.528,0.997,1.91,2.849,3.422,4.791"/>
		<line style="fill:none;stroke:#EC008C;stroke-width:0.58;" x1="37.993" y1="-17.985" x2="36.989" y2="-19.201"/>
		<line style="fill:none;stroke:#EC008C;stroke-width:0.58;" x1="40.639" y1="-14.785" x2="46.828" y2="-7.298"/>
		<line style="fill:none;stroke:#EC008C;stroke-width:0.58;" x1="16.739" y1="-4.451" x2="14.957" y2="-2.16"/>
		<line style="fill:none;stroke:#EC008C;stroke-width:0.58;" x1="27.739" y1="-10.826" x2="25.614" y2="-8.195"/>
		<line style="fill:none;stroke:#EC008C;stroke-width:0.58;" x1="22.999" y1="-4.958" x2="20.739" y2="-2.16"/>
		<line style="fill:none;stroke:#EC008C;stroke-width:0.58;" x1="25.614" y1="-8.195" x2="22.999" y2="-4.958"/>
		<line style="fill:none;stroke:#EC008C;stroke-width:0.58;" x1="37.993" y1="-17.985" x2="40.526" y2="-21.474"/>
		<line style="fill:none;stroke:#EC008C;stroke-width:0.58;" x1="40.526" y1="-21.474" x2="42.915" y2="-24.764"/>
		<line style="fill:none;stroke:#EC008C;stroke-width:0.58;" x1="37.993" y1="-17.985" x2="31.551" y2="-9.114"/>
		<line style="fill:none;stroke:#EC008C;stroke-width:0.58;" x1="31.551" y1="-9.114" x2="28.475" y2="-4.877"/>
		<line style="fill:none;stroke:#EC008C;stroke-width:0.58;" x1="28.475" y1="-4.877" x2="26.501" y2="-2.16"/>
		<line style="fill:none;stroke:#EC008C;stroke-width:0.58;" x1="34.864" y1="-6.576" x2="31.676" y2="-2.16"/>
		<line style="fill:none;stroke:#EC008C;stroke-width:0.58;" x1="38.577" y1="-5.452" x2="42.739" y2="-10.701"/>
		<line style="fill:none;stroke:#EC008C;stroke-width:0.58;" x1="38.577" y1="-5.452" x2="35.968" y2="-2.16"/>
		<line style="fill:none;stroke:#EC008C;stroke-width:0.58;" x1="24.998" y1="-14.014" x2="20.385" y2="-8.868"/>
		<path style="fill:none;stroke:#EC008C;stroke-width:0.58;" d="M47.832-23.348c0,0-0.255,0.297-0.687,0.802"/>
		<path style="fill:none;stroke:#EC008C;stroke-width:0.58;" d="M43.662-18.434c1.423-1.697,2.725-3.226,3.483-4.112"/>
		<path style="fill:none;stroke:#EC008C;stroke-width:0.58;" d="M40.639-14.785c-1.456,1.785-2.721,3.392-3.308,4.272"/>
		<path style="fill:none;stroke:#EC008C;stroke-width:0.58;" d="M43.662-18.434c-0.996,1.188-2.052,2.458-3.022,3.648"/>
		<path style="fill:none;stroke:#EC008C;stroke-width:0.58;" d="M2.16-21.218c0.347-0.517,0.671-1.001,0.966-1.442"/>
		<path style="fill:none;stroke:#EC008C;stroke-width:0.58;" d="M4.915-25.326c0,0-0.702,1.045-1.789,2.666"/>
		<line style="fill:none;stroke:#EC008C;stroke-width:0.58;" x1="8.324" y1="-8.995" x2="5.358" y2="-5.813"/>
		<line style="fill:none;stroke:#EC008C;stroke-width:0.58;" x1="15.332" y1="-16.514" x2="11.979" y2="-12.916"/>
		<line style="fill:none;stroke:#EC008C;stroke-width:0.58;" x1="3.739" y1="-4.076" x2="5.358" y2="-5.813"/>
		<line style="fill:none;stroke:#EC008C;stroke-width:0.58;" x1="11.979" y1="-12.916" x2="8.324" y2="-8.995"/>
		<line style="fill:none;stroke:#EC008C;stroke-width:0.58;" x1="55.761" y1="-9.606" x2="56.16" y2="-10.155"/>
		<line style="fill:none;stroke:#EC008C;stroke-width:0.58;" x1="55.761" y1="-9.606" x2="51.559" y2="-3.826"/>
		<line style="fill:none;stroke:#EC008C;stroke-width:0.58;" x1="4.45" y1="-13.211" x2="2.16" y2="-10.061"/>
		<line style="fill:none;stroke:#EC008C;stroke-width:0.58;" x1="12.939" y1="-24.889" x2="11.765" y2="-23.273"/>
		<line style="fill:none;stroke:#EC008C;stroke-width:0.58;" x1="11.765" y1="-23.273" x2="4.45" y2="-13.211"/>
		<line style="fill:none;stroke:#EC008C;stroke-width:0.58;" x1="51.491" y1="-14.312" x2="48.548" y2="-17.556"/>
		<line style="fill:none;stroke:#EC008C;stroke-width:0.58;" x1="55.761" y1="-9.606" x2="51.491" y2="-14.312"/>
		<line style="fill:none;stroke:#EC008C;stroke-width:0.58;" x1="55.761" y1="-9.606" x2="56.16" y2="-9.167"/>
		<line style="fill:none;stroke:#EC008C;stroke-width:0.58;" x1="2.989" y1="-32.701" x2="2.16" y2="-33.461"/>
		<line style="fill:none;stroke:#EC008C;stroke-width:0.58;" x1="8.673" y1="-2.16" x2="5.358" y2="-5.813"/>
		<line style="fill:none;stroke:#EC008C;stroke-width:0.58;" x1="2.16" y1="-9.338" x2="5.358" y2="-5.813"/>
		<line style="fill:none;stroke:#EC008C;stroke-width:0.58;" x1="12.977" y1="-51.389" x2="12.045" y2="-52.416"/>
		<line style="fill:none;stroke:#EC008C;stroke-width:0.58;" x1="8.648" y1="-56.16" x2="9.671" y2="-55.033"/>
		<line style="fill:none;stroke:#EC008C;stroke-width:0.58;" x1="12.045" y1="-52.416" x2="9.671" y2="-55.033"/>
		<line style="fill:none;stroke:#EC008C;stroke-width:0.58;" x1="9.763" y1="-25.415" x2="2.16" y2="-15.346"/>
		<line style="fill:none;stroke:#EC008C;stroke-width:0.58;" x1="9.763" y1="-25.415" x2="11.018" y2="-27.076"/>
		<path style="fill:none;stroke:#EC008C;stroke-width:0.58;" d="M49.342-11.089c-0.942,1.415-1.808,2.721-2.514,3.791"/>
		<path style="fill:none;stroke:#EC008C;stroke-width:0.58;" d="M49.342-11.089c0.688-1.033,1.415-2.124,2.149-3.224"/>
		<path style="fill:none;stroke:#EC008C;stroke-width:0.58;" d="M45.064-4.576c0.174-0.299,0.828-1.305,1.763-2.722"/>
		<path style="fill:none;stroke:#EC008C;stroke-width:0.58;" d="M54.947-19.482c-1.077,1.609-2.275,3.401-3.457,5.17"/>
		<path style="fill:none;stroke:#EC008C;stroke-width:0.58;" d="M56.16-21.293c-0.38,0.567-0.787,1.175-1.213,1.811"/>
		<line style="fill:none;stroke:#EC008C;stroke-width:0.58;" x1="56.16" y1="-15.412" x2="54.49" y2="-13.201"/>
		<line style="fill:none;stroke:#EC008C;stroke-width:0.58;" x1="30.475" y1="-26.479" x2="28.165" y2="-29.014"/>
		<line style="fill:none;stroke:#EC008C;stroke-width:0.58;" x1="35" y1="-21.512" x2="35.739" y2="-20.701"/>
		<line style="fill:none;stroke:#EC008C;stroke-width:0.58;" x1="35" y1="-21.512" x2="30.475" y2="-26.479"/>
		<line style="fill:none;stroke:#EC008C;stroke-width:0.58;" x1="49.342" y1="-11.089" x2="47.364" y2="-13.389"/>
		<line style="fill:none;stroke:#EC008C;stroke-width:0.58;" x1="52.04" y1="-7.951" x2="49.342" y2="-11.089"/>
		<line style="fill:none;stroke:#EC008C;stroke-width:0.58;" x1="45.505" y1="-2.16" x2="43.051" y2="-5.014"/>
		<line style="fill:none;stroke:#EC008C;stroke-width:0.58;" x1="47.728" y1="-53.576" x2="45.505" y2="-56.16"/>
		<line style="fill:none;stroke:#EC008C;stroke-width:0.58;" x1="54.302" y1="-25.848" x2="56.16" y2="-23.687"/>
		<line style="fill:none;stroke:#EC008C;stroke-width:0.58;" x1="5.061" y1="-20.41" x2="3.126" y2="-22.66"/>
		<line style="fill:none;stroke:#EC008C;stroke-width:0.58;" x1="2.16" y1="-23.783" x2="3.126" y2="-22.66"/>
		<line style="fill:none;stroke:#EC008C;stroke-width:0.58;" x1="56.16" y1="-39.889" x2="54.661" y2="-41.348"/>
		<line style="fill:none;stroke:#EC008C;stroke-width:0.58;" x1="8.324" y1="-8.995" x2="9.207" y2="-8.035"/>
		<line style="fill:none;stroke:#EC008C;stroke-width:0.58;" x1="4.45" y1="-13.211" x2="8.324" y2="-8.995"/>
		<line style="fill:none;stroke:#EC008C;stroke-width:0.58;" x1="4.45" y1="-13.211" x2="3.406" y2="-14.348"/>
		<line style="fill:none;stroke:#EC008C;stroke-width:0.58;" x1="24.925" y1="-38.775" x2="26.331" y2="-37.098"/>
		<line style="fill:none;stroke:#EC008C;stroke-width:0.58;" x1="24.925" y1="-38.775" x2="21.581" y2="-42.764"/>
		<line style="fill:none;stroke:#EC008C;stroke-width:0.58;" x1="56.16" y1="-2.855" x2="53.603" y2="-5.576"/>
		<line style="fill:none;stroke:#EC008C;stroke-width:0.58;" x1="17.364" y1="-43.589" x2="21.218" y2="-48.896"/>
		<line style="fill:none;stroke:#EC008C;stroke-width:0.58;" x1="21.218" y1="-48.896" x2="23.479" y2="-52.01"/>
		<line style="fill:none;stroke:#EC008C;stroke-width:0.58;" x1="25.917" y1="-55.367" x2="26.492" y2="-56.16"/>
		<line style="fill:none;stroke:#EC008C;stroke-width:0.58;" x1="25.917" y1="-55.367" x2="23.479" y2="-52.01"/>
	</g>
</svg>
