<?xml version="1.0" encoding="utf-8"?>
<svg xmlns="http://www.w3.org/2000/svg" version="1.1" x="0px" y="0px" xml:space="preserve" width="54.125" height="54.125" viewBox="0.143 -54.125 54.125 54.125">
	<g>
		<rect x="0.143" y="-54.125" style="fill:none;" width="54.125" height="54.125"/>
		<line style="fill:none;stroke:#000000;stroke-width:0.3;" x1="27.618" y1="-50.375" x2="18.818" y2="-50.375"/>
		<line style="fill:none;stroke:#000000;stroke-width:0.3;" x1="12.743" y1="-50.375" x2="18.818" y2="-50.375"/>
		<line style="fill:none;stroke:#000000;stroke-width:0.3;" x1="54.068" y1="-50.375" x2="54.268" y2="-50.375"/>
		<line style="fill:none;stroke:#000000;stroke-width:0.3;" x1="0.143" y1="-50.375" x2="6.068" y2="-50.375"/>
		<line style="fill:none;stroke:#000000;stroke-width:0.3;" x1="12.743" y1="-50.375" x2="6.068" y2="-50.375"/>
		<line style="fill:none;stroke:#000000;stroke-width:0.3;" x1="54.068" y1="-50.375" x2="46.693" y2="-50.375"/>
		<line style="fill:none;stroke:#000000;stroke-width:0.3;" x1="32.318" y1="-50.375" x2="41.243" y2="-50.375"/>
		<line style="fill:none;stroke:#000000;stroke-width:0.3;" x1="46.693" y1="-50.375" x2="41.243" y2="-50.375"/>
		<line style="fill:none;stroke:#000000;stroke-width:0.3;" x1="32.318" y1="-50.375" x2="27.618" y2="-50.375"/>
		<line style="fill:none;stroke:#000000;stroke-width:0.3;" x1="54.268" y1="-46.2" x2="0.143" y2="-46.2"/>
		<line style="fill:none;stroke:#000000;stroke-width:0.3;" x1="0.143" y1="-42.013" x2="12.055" y2="-42.013"/>
		<line style="fill:none;stroke:#000000;stroke-width:0.3;" x1="53.555" y1="-42.013" x2="54.268" y2="-42.013"/>
		<line style="fill:none;stroke:#000000;stroke-width:0.3;" x1="26.93" y1="-42.013" x2="12.055" y2="-42.013"/>
		<line style="fill:none;stroke:#000000;stroke-width:0.3;" x1="26.93" y1="-42.013" x2="40.305" y2="-42.013"/>
		<line style="fill:none;stroke:#000000;stroke-width:0.3;" x1="40.305" y1="-42.013" x2="53.555" y2="-42.013"/>
		<line style="fill:none;stroke:#000000;stroke-width:0.3;" x1="33.901" y1="-12.4" x2="48.776" y2="-12.4"/>
		<line style="fill:none;stroke:#000000;stroke-width:0.3;" x1="20.276" y1="-12.4" x2="33.901" y2="-12.4"/>
		<line style="fill:none;stroke:#000000;stroke-width:0.3;" x1="7.026" y1="-12.4" x2="0.143" y2="-12.4"/>
		<line style="fill:none;stroke:#000000;stroke-width:0.3;" x1="7.026" y1="-12.4" x2="20.276" y2="-12.4"/>
		<line style="fill:none;stroke:#000000;stroke-width:0.3;" x1="48.776" y1="-12.4" x2="54.268" y2="-12.4"/>
		<line style="fill:none;stroke:#000000;stroke-width:0.3;" x1="26.551" y1="-8.625" x2="40.426" y2="-8.625"/>
		<line style="fill:none;stroke:#000000;stroke-width:0.3;" x1="40.426" y1="-8.625" x2="53.876" y2="-8.625"/>
		<line style="fill:none;stroke:#000000;stroke-width:0.3;" x1="26.551" y1="-8.625" x2="12.002" y2="-8.625"/>
		<line style="fill:none;stroke:#000000;stroke-width:0.3;" x1="12.002" y1="-8.625" x2="0.143" y2="-8.625"/>
		<line style="fill:none;stroke:#000000;stroke-width:0.3;" x1="53.876" y1="-8.625" x2="54.268" y2="-8.625"/>
		<line style="fill:none;stroke:#000000;stroke-width:0.3;" x1="46.693" y1="-37.994" x2="54.268" y2="-37.994"/>
		<line style="fill:none;stroke:#000000;stroke-width:0.3;" x1="46.693" y1="-37.994" x2="32.068" y2="-37.994"/>
		<line style="fill:none;stroke:#000000;stroke-width:0.3;" x1="18.818" y1="-37.994" x2="32.068" y2="-37.994"/>
		<line style="fill:none;stroke:#000000;stroke-width:0.3;" x1="6.068" y1="-37.994" x2="0.143" y2="-37.994"/>
		<line style="fill:none;stroke:#000000;stroke-width:0.3;" x1="18.818" y1="-37.994" x2="6.068" y2="-37.994"/>
		<line style="fill:none;stroke:#000000;stroke-width:0.3;" x1="12.618" y1="-34.713" x2="0.143" y2="-34.713"/>
		<line style="fill:none;stroke:#000000;stroke-width:0.3;" x1="54.118" y1="-34.713" x2="54.268" y2="-34.713"/>
		<line style="fill:none;stroke:#000000;stroke-width:0.3;" x1="27.618" y1="-34.713" x2="12.618" y2="-34.713"/>
		<line style="fill:none;stroke:#000000;stroke-width:0.3;" x1="41.368" y1="-34.713" x2="54.118" y2="-34.713"/>
		<line style="fill:none;stroke:#000000;stroke-width:0.3;" x1="41.368" y1="-34.713" x2="27.618" y2="-34.713"/>
		<line style="fill:none;stroke:#000000;stroke-width:0.3;" x1="54.268" y1="-31.287" x2="48.805" y2="-31.287"/>
		<line style="fill:none;stroke:#000000;stroke-width:0.3;" x1="20.305" y1="-31.287" x2="6.805" y2="-31.287"/>
		<line style="fill:none;stroke:#000000;stroke-width:0.3;" x1="33.93" y1="-31.287" x2="20.305" y2="-31.287"/>
		<line style="fill:none;stroke:#000000;stroke-width:0.3;" x1="48.805" y1="-31.287" x2="33.93" y2="-31.287"/>
		<line style="fill:none;stroke:#000000;stroke-width:0.3;" x1="6.805" y1="-31.287" x2="0.143" y2="-31.287"/>
		<line style="fill:none;stroke:#000000;stroke-width:0.3;" x1="0.143" y1="-27.237" x2="54.268" y2="-27.237"/>
		<line style="fill:none;stroke:#000000;stroke-width:0.3;" x1="0.143" y1="-23.438" x2="54.268" y2="-23.438"/>
		<line style="fill:none;stroke:#000000;stroke-width:0.3;" x1="0.143" y1="-19.237" x2="54.268" y2="-19.237"/>
		<line style="fill:none;stroke:#000000;stroke-width:0.3;" x1="0.143" y1="-16.013" x2="54.268" y2="-16.013"/>
		<line style="fill:none;stroke:#000000;stroke-width:0.3;" x1="0.143" y1="-0.838" x2="6.068" y2="-0.838"/>
		<line style="fill:none;stroke:#000000;stroke-width:0.3;" x1="6.068" y1="-0.838" x2="10.439" y2="-0.838"/>
		<line style="fill:none;stroke:#000000;stroke-width:0.3;" x1="54.268" y1="-0.838" x2="51.876" y2="-0.838"/>
		<line style="fill:none;stroke:#000000;stroke-width:0.3;" x1="38.501" y1="-0.838" x2="46.693" y2="-0.838"/>
		<line style="fill:none;stroke:#000000;stroke-width:0.3;" x1="18.818" y1="-0.838" x2="10.439" y2="-0.838"/>
		<line style="fill:none;stroke:#000000;stroke-width:0.3;" x1="46.693" y1="-0.838" x2="51.876" y2="-0.838"/>
		<line style="fill:none;stroke:#000000;stroke-width:0.3;" x1="38.501" y1="-0.838" x2="32.318" y2="-0.838"/>
		<line style="fill:none;stroke:#000000;stroke-width:0.3;" x1="24.876" y1="-0.838" x2="32.318" y2="-0.838"/>
		<line style="fill:none;stroke:#000000;stroke-width:0.3;" x1="18.818" y1="-0.838" x2="24.876" y2="-0.838"/>
		<line style="fill:none;stroke:#000000;stroke-width:0.3;" x1="6.068" y1="-54.125" x2="6.068" y2="-50.375"/>
		<line style="fill:none;stroke:#000000;stroke-width:0.3;" x1="18.818" y1="-54.125" x2="18.818" y2="-50.375"/>
		<line style="fill:none;stroke:#000000;stroke-width:0.3;" x1="32.318" y1="-50.375" x2="32.318" y2="-54.125"/>
		<line style="fill:none;stroke:#000000;stroke-width:0.3;" x1="46.693" y1="-54.125" x2="46.693" y2="-50.375"/>
		<line style="fill:none;stroke:#000000;stroke-width:0.3;" x1="6.068" y1="-0.851" x2="6.068" y2="-0.838"/>
		<line style="fill:none;stroke:#000000;stroke-width:0.3;" x1="6.068" y1="0" x2="6.068" y2="-0.838"/>
		<line style="fill:none;stroke:#000000;stroke-width:0.3;" x1="18.818" y1="-0.838" x2="18.818" y2="-0.851"/>
		<line style="fill:none;stroke:#000000;stroke-width:0.3;" x1="18.818" y1="-0.838" x2="18.818" y2="0"/>
		<line style="fill:none;stroke:#000000;stroke-width:0.3;" x1="32.318" y1="-0.851" x2="32.318" y2="-0.838"/>
		<line style="fill:none;stroke:#000000;stroke-width:0.3;" x1="32.318" y1="0" x2="32.318" y2="-0.838"/>
		<line style="fill:none;stroke:#000000;stroke-width:0.3;" x1="46.693" y1="-0.851" x2="46.693" y2="-0.838"/>
		<line style="fill:none;stroke:#000000;stroke-width:0.3;" x1="46.693" y1="0" x2="46.693" y2="-0.838"/>
		<line style="fill:none;stroke:#000000;stroke-width:0.3;" x1="12.743" y1="-50.375" x2="12.743" y2="-46.213"/>
		<line style="fill:none;stroke:#000000;stroke-width:0.3;" x1="12.743" y1="-50.375" x2="12.743" y2="-50.438"/>
		<line style="fill:none;stroke:#000000;stroke-width:0.3;" x1="27.618" y1="-50.438" x2="27.618" y2="-50.375"/>
		<line style="fill:none;stroke:#000000;stroke-width:0.3;" x1="27.618" y1="-50.375" x2="27.618" y2="-46.213"/>
		<line style="fill:none;stroke:#000000;stroke-width:0.3;" x1="41.243" y1="-46.213" x2="41.243" y2="-50.375"/>
		<line style="fill:none;stroke:#000000;stroke-width:0.3;" x1="41.243" y1="-50.438" x2="41.243" y2="-50.375"/>
		<line style="fill:none;stroke:#000000;stroke-width:0.3;" x1="54.068" y1="-50.375" x2="54.068" y2="-50.438"/>
		<line style="fill:none;stroke:#000000;stroke-width:0.3;" x1="54.068" y1="-50.375" x2="54.068" y2="-46.213"/>
		<line style="fill:none;stroke:#000000;stroke-width:0.3;" x1="7.18" y1="-42.025" x2="7.18" y2="-46.075"/>
		<line style="fill:none;stroke:#000000;stroke-width:0.3;" x1="20.43" y1="-42.025" x2="20.43" y2="-46.075"/>
		<line style="fill:none;stroke:#000000;stroke-width:0.3;" x1="33.993" y1="-42.025" x2="33.993" y2="-46.075"/>
		<line style="fill:none;stroke:#000000;stroke-width:0.3;" x1="48.93" y1="-42.025" x2="48.93" y2="-46.075"/>
		<line style="fill:none;stroke:#000000;stroke-width:0.3;" x1="40.305" y1="-42.013" x2="40.305" y2="-42.025"/>
		<line style="fill:none;stroke:#000000;stroke-width:0.3;" x1="40.305" y1="-38.025" x2="40.305" y2="-42.013"/>
		<line style="fill:none;stroke:#000000;stroke-width:0.3;" x1="26.93" y1="-42.013" x2="26.93" y2="-42.025"/>
		<line style="fill:none;stroke:#000000;stroke-width:0.3;" x1="26.93" y1="-42.013" x2="26.93" y2="-38.025"/>
		<line style="fill:none;stroke:#000000;stroke-width:0.3;" x1="12.055" y1="-38.025" x2="12.055" y2="-42.013"/>
		<line style="fill:none;stroke:#000000;stroke-width:0.3;" x1="12.055" y1="-42.013" x2="12.055" y2="-42.025"/>
		<line style="fill:none;stroke:#000000;stroke-width:0.3;" x1="53.555" y1="-42.013" x2="53.555" y2="-42.025"/>
		<line style="fill:none;stroke:#000000;stroke-width:0.3;" x1="53.555" y1="-38.025" x2="53.555" y2="-42.013"/>
		<line style="fill:none;stroke:#000000;stroke-width:0.3;" x1="46.693" y1="-37.994" x2="46.693" y2="-34.725"/>
		<line style="fill:none;stroke:#000000;stroke-width:0.3;" x1="46.693" y1="-37.994" x2="46.693" y2="-38.025"/>
		<line style="fill:none;stroke:#000000;stroke-width:0.3;" x1="32.068" y1="-37.994" x2="32.068" y2="-38.025"/>
		<line style="fill:none;stroke:#000000;stroke-width:0.3;" x1="32.068" y1="-37.994" x2="32.068" y2="-34.725"/>
		<line style="fill:none;stroke:#000000;stroke-width:0.3;" x1="18.818" y1="-37.994" x2="18.818" y2="-34.725"/>
		<line style="fill:none;stroke:#000000;stroke-width:0.3;" x1="18.818" y1="-37.994" x2="18.818" y2="-38.025"/>
		<line style="fill:none;stroke:#000000;stroke-width:0.3;" x1="6.068" y1="-37.994" x2="6.068" y2="-34.725"/>
		<line style="fill:none;stroke:#000000;stroke-width:0.3;" x1="6.068" y1="-37.994" x2="6.068" y2="-38.025"/>
		<line style="fill:none;stroke:#000000;stroke-width:0.3;" x1="12.618" y1="-34.713" x2="12.618" y2="-31.3"/>
		<line style="fill:none;stroke:#000000;stroke-width:0.3;" x1="12.618" y1="-34.713" x2="12.618" y2="-34.725"/>
		<line style="fill:none;stroke:#000000;stroke-width:0.3;" x1="27.618" y1="-34.713" x2="27.618" y2="-31.3"/>
		<line style="fill:none;stroke:#000000;stroke-width:0.3;" x1="27.618" y1="-34.725" x2="27.618" y2="-34.713"/>
		<line style="fill:none;stroke:#000000;stroke-width:0.3;" x1="41.368" y1="-34.713" x2="41.368" y2="-34.725"/>
		<line style="fill:none;stroke:#000000;stroke-width:0.3;" x1="41.368" y1="-34.713" x2="41.368" y2="-31.3"/>
		<line style="fill:none;stroke:#000000;stroke-width:0.3;" x1="54.118" y1="-34.713" x2="54.118" y2="-34.725"/>
		<line style="fill:none;stroke:#000000;stroke-width:0.3;" x1="54.118" y1="-34.713" x2="54.118" y2="-31.3"/>
		<line style="fill:none;stroke:#000000;stroke-width:0.3;" x1="6.805" y1="-31.287" x2="6.805" y2="-27.25"/>
		<line style="fill:none;stroke:#000000;stroke-width:0.3;" x1="6.805" y1="-31.3" x2="6.805" y2="-31.287"/>
		<line style="fill:none;stroke:#000000;stroke-width:0.3;" x1="20.305" y1="-31.287" x2="20.305" y2="-27.25"/>
		<line style="fill:none;stroke:#000000;stroke-width:0.3;" x1="20.305" y1="-31.3" x2="20.305" y2="-31.287"/>
		<line style="fill:none;stroke:#000000;stroke-width:0.3;" x1="33.93" y1="-31.3" x2="33.93" y2="-31.287"/>
		<line style="fill:none;stroke:#000000;stroke-width:0.3;" x1="33.93" y1="-31.287" x2="33.93" y2="-27.25"/>
		<line style="fill:none;stroke:#000000;stroke-width:0.3;" x1="48.805" y1="-31.3" x2="48.805" y2="-31.287"/>
		<line style="fill:none;stroke:#000000;stroke-width:0.3;" x1="48.805" y1="-31.287" x2="48.805" y2="-27.25"/>
		<line style="fill:none;stroke:#000000;stroke-width:0.3;" x1="40.18" y1="-27.188" x2="40.18" y2="-23.45"/>
		<line style="fill:none;stroke:#000000;stroke-width:0.3;" x1="26.856" y1="-27.188" x2="26.856" y2="-23.45"/>
		<line style="fill:none;stroke:#000000;stroke-width:0.3;" x1="11.856" y1="-27.188" x2="11.856" y2="-23.45"/>
		<line style="fill:none;stroke:#000000;stroke-width:0.3;" x1="53.41" y1="-23.45" x2="53.41" y2="-27.188"/>
		<line style="fill:none;stroke:#000000;stroke-width:0.3;" x1="5.668" y1="-23.388" x2="5.668" y2="-19.25"/>
		<line style="fill:none;stroke:#000000;stroke-width:0.3;" x1="18.669" y1="-23.388" x2="18.669" y2="-19.25"/>
		<line style="fill:none;stroke:#000000;stroke-width:0.3;" x1="32.293" y1="-23.388" x2="32.293" y2="-19.25"/>
		<line style="fill:none;stroke:#000000;stroke-width:0.3;" x1="46.543" y1="-23.388" x2="46.543" y2="-19.25"/>
		<line style="fill:none;stroke:#000000;stroke-width:0.3;" x1="42.343" y1="-19.188" x2="42.343" y2="-16.025"/>
		<line style="fill:none;stroke:#000000;stroke-width:0.3;" x1="28.193" y1="-19.188" x2="28.193" y2="-16.025"/>
		<line style="fill:none;stroke:#000000;stroke-width:0.3;" x1="13.068" y1="-19.188" x2="13.068" y2="-16.025"/>
		<line style="fill:none;stroke:#000000;stroke-width:0.3;" x1="0.651" y1="-19.188" x2="0.651" y2="-16.025"/>
		<line style="fill:none;stroke:#000000;stroke-width:0.3;" x1="7.026" y1="-12.4" x2="7.026" y2="-15.963"/>
		<line style="fill:none;stroke:#000000;stroke-width:0.3;" x1="20.276" y1="-12.4" x2="20.276" y2="-15.963"/>
		<line style="fill:none;stroke:#000000;stroke-width:0.3;" x1="33.901" y1="-12.4" x2="33.901" y2="-15.963"/>
		<line style="fill:none;stroke:#000000;stroke-width:0.3;" x1="48.776" y1="-12.4" x2="48.776" y2="-15.963"/>
		<line style="fill:none;stroke:#000000;stroke-width:0.3;" x1="40.426" y1="-8.625" x2="40.426" y2="-12.35"/>
		<line style="fill:none;stroke:#000000;stroke-width:0.3;" x1="40.426" y1="-8.625" x2="40.426" y2="-8.588"/>
		<line style="fill:none;stroke:#000000;stroke-width:0.3;" x1="26.551" y1="-8.625" x2="26.551" y2="-12.35"/>
		<line style="fill:none;stroke:#000000;stroke-width:0.3;" x1="26.551" y1="-8.625" x2="26.551" y2="-8.588"/>
		<line style="fill:none;stroke:#000000;stroke-width:0.3;" x1="12.002" y1="-8.625" x2="12.002" y2="-8.588"/>
		<line style="fill:none;stroke:#000000;stroke-width:0.3;" x1="12.002" y1="-12.35" x2="12.002" y2="-8.625"/>
		<line style="fill:none;stroke:#000000;stroke-width:0.3;" x1="53.876" y1="-8.625" x2="53.876" y2="-8.588"/>
		<line style="fill:none;stroke:#000000;stroke-width:0.3;" x1="53.876" y1="-8.625" x2="53.876" y2="-12.35"/>
		<line style="fill:none;stroke:#000000;stroke-width:0.3;" x1="54.268" y1="-4.213" x2="51.876" y2="-4.213"/>
		<line style="fill:none;stroke:#000000;stroke-width:0.3;" x1="38.501" y1="-4.213" x2="24.876" y2="-4.213"/>
		<line style="fill:none;stroke:#000000;stroke-width:0.3;" x1="38.501" y1="-4.213" x2="51.876" y2="-4.213"/>
		<line style="fill:none;stroke:#000000;stroke-width:0.3;" x1="24.876" y1="-4.213" x2="10.439" y2="-4.213"/>
		<line style="fill:none;stroke:#000000;stroke-width:0.3;" x1="0.143" y1="-4.213" x2="10.439" y2="-4.213"/>
		<line style="fill:none;stroke:#000000;stroke-width:0.3;" x1="10.439" y1="-4.213" x2="10.439" y2="-0.838"/>
		<line style="fill:none;stroke:#000000;stroke-width:0.3;" x1="10.439" y1="-0.775" x2="10.439" y2="-0.838"/>
		<line style="fill:none;stroke:#000000;stroke-width:0.3;" x1="10.439" y1="-4.237" x2="10.439" y2="-4.213"/>
		<line style="fill:none;stroke:#000000;stroke-width:0.3;" x1="24.876" y1="-4.213" x2="24.876" y2="-4.237"/>
		<line style="fill:none;stroke:#000000;stroke-width:0.3;" x1="24.876" y1="-4.213" x2="24.876" y2="-0.838"/>
		<line style="fill:none;stroke:#000000;stroke-width:0.3;" x1="24.876" y1="-0.775" x2="24.876" y2="-0.838"/>
		<line style="fill:none;stroke:#000000;stroke-width:0.3;" x1="38.501" y1="-4.213" x2="38.501" y2="-4.237"/>
		<line style="fill:none;stroke:#000000;stroke-width:0.3;" x1="38.501" y1="-0.838" x2="38.501" y2="-4.213"/>
		<line style="fill:none;stroke:#000000;stroke-width:0.3;" x1="38.501" y1="-0.838" x2="38.501" y2="-0.775"/>
		<line style="fill:none;stroke:#000000;stroke-width:0.3;" x1="51.876" y1="-4.237" x2="51.876" y2="-4.213"/>
		<line style="fill:none;stroke:#000000;stroke-width:0.3;" x1="51.876" y1="-4.213" x2="51.876" y2="-0.838"/>
		<line style="fill:none;stroke:#000000;stroke-width:0.3;" x1="51.876" y1="-0.775" x2="51.876" y2="-0.838"/>
		<line style="fill:none;stroke:#000000;stroke-width:0.3;" x1="4.713" y1="-8.588" x2="4.713" y2="-4.237"/>
		<line style="fill:none;stroke:#000000;stroke-width:0.3;" x1="17.713" y1="-8.588" x2="17.713" y2="-4.237"/>
		<line style="fill:none;stroke:#000000;stroke-width:0.3;" x1="31.713" y1="-8.588" x2="31.713" y2="-4.237"/>
		<line style="fill:none;stroke:#000000;stroke-width:0.3;" x1="46.276" y1="-8.588" x2="46.276" y2="-4.237"/>
		<path style="fill:none;stroke:#000000;stroke-width:0.3;" d="M0.143-51.557c0.361-0.136,0.618-0.484,0.618-0.894    c0-0.409-0.257-0.758-0.618-0.895"/>
		<circle style="fill:none;stroke:#000000;stroke-width:0.3;" cx="12.482" cy="-52.45" r="0.955"/>
		<circle style="fill:none;stroke:#000000;stroke-width:0.3;" cx="25.607" cy="-52.45" r="0.955"/>
		<circle style="fill:none;stroke:#000000;stroke-width:0.3;" cx="39.857" cy="-52.45" r="0.955"/>
		<circle style="fill:none;stroke:#000000;stroke-width:0.3;" cx="6.232" cy="-48.275" r="0.955"/>
		<circle style="fill:none;stroke:#000000;stroke-width:0.3;" cx="20.607" cy="-48.275" r="0.955"/>
		<circle style="fill:none;stroke:#000000;stroke-width:0.3;" cx="34.357" cy="-48.275" r="0.955"/>
		<circle style="fill:none;stroke:#000000;stroke-width:0.3;" cx="47.982" cy="-48.275" r="0.955"/>
		<circle style="fill:none;stroke:#000000;stroke-width:0.3;" cx="1.382" cy="-44.075" r="0.955"/>
		<circle style="fill:none;stroke:#000000;stroke-width:0.3;" cx="13.732" cy="-44.075" r="0.955"/>
		<circle style="fill:none;stroke:#000000;stroke-width:0.3;" cx="27.482" cy="-44.075" r="0.955"/>
		<circle style="fill:none;stroke:#000000;stroke-width:0.3;" cx="41.607" cy="-44.075" r="0.955"/>
		<circle style="fill:none;stroke:#000000;stroke-width:0.3;" cx="5.732" cy="-40" r="0.955"/>
		<circle style="fill:none;stroke:#000000;stroke-width:0.3;" cx="19.482" cy="-40" r="0.955"/>
		<circle style="fill:none;stroke:#000000;stroke-width:0.3;" cx="33.982" cy="-40" r="0.955"/>
		<circle style="fill:none;stroke:#000000;stroke-width:0.3;" cx="47.232" cy="-40" r="0.955"/>
		<path style="fill:none;stroke:#000000;stroke-width:0.3;" d="M0.143-35.396c0.511-0.019,0.918-0.438,0.918-0.954    c0-0.516-0.407-0.935-0.918-0.953"/>
		<circle style="fill:none;stroke:#000000;stroke-width:0.3;" cx="12.482" cy="-36.35" r="0.955"/>
		<circle style="fill:none;stroke:#000000;stroke-width:0.3;" cx="25.482" cy="-36.35" r="0.955"/>
		<circle style="fill:none;stroke:#000000;stroke-width:0.3;" cx="39.732" cy="-36.35" r="0.955"/>
		<circle style="fill:none;stroke:#000000;stroke-width:0.3;" cx="6.232" cy="-32.975" r="0.955"/>
		<path style="fill:none;stroke:#000000;stroke-width:0.3;" d="M0.143-29.749c0.168-0.273,0.47-0.456,0.813-0.456    c0.527,0,0.955,0.428,0.955,0.955c0,0.526-0.428,0.954-0.955,0.954c-0.344,0-0.646-0.183-0.813-0.456"/>
		<circle style="fill:none;stroke:#000000;stroke-width:0.3;" cx="13.732" cy="-29.25" r="0.955"/>
		<circle style="fill:none;stroke:#000000;stroke-width:0.3;" cx="27.482" cy="-29.25" r="0.955"/>
		<circle style="fill:none;stroke:#000000;stroke-width:0.3;" cx="41.357" cy="-29.25" r="0.955"/>
		<circle style="fill:none;stroke:#000000;stroke-width:0.3;" cx="5.482" cy="-25.25" r="0.955"/>
		<circle style="fill:none;stroke:#000000;stroke-width:0.3;" cx="19.107" cy="-25.25" r="0.955"/>
		<circle style="fill:none;stroke:#000000;stroke-width:0.3;" cx="33.732" cy="-25.25" r="0.955"/>
		<circle style="fill:none;stroke:#000000;stroke-width:0.3;" cx="46.857" cy="-25.25" r="0.955"/>
		<path style="fill:none;stroke:#000000;stroke-width:0.3;" d="M0.143-20.835c0.105-0.153,0.168-0.34,0.168-0.54    c0-0.201-0.062-0.388-0.168-0.541"/>
		<circle style="fill:none;stroke:#000000;stroke-width:0.3;" cx="12.232" cy="-21.375" r="0.955"/>
		<circle style="fill:none;stroke:#000000;stroke-width:0.3;" cx="25.482" cy="-21.375" r="0.955"/>
		<circle style="fill:none;stroke:#000000;stroke-width:0.3;" cx="39.607" cy="-21.375" r="0.955"/>
		<circle style="fill:none;stroke:#000000;stroke-width:0.3;" cx="6.857" cy="-17.625" r="0.955"/>
		<circle style="fill:none;stroke:#000000;stroke-width:0.3;" cx="20.607" cy="-17.625" r="0.955"/>
		<circle style="fill:none;stroke:#000000;stroke-width:0.3;" cx="34.982" cy="-17.625" r="0.955"/>
		<circle style="fill:none;stroke:#000000;stroke-width:0.3;" cx="49.232" cy="-17.625" r="0.955"/>
		<circle style="fill:none;stroke:#000000;stroke-width:0.3;" cx="1.307" cy="-14.25" r="0.955"/>
		<circle style="fill:none;stroke:#000000;stroke-width:0.3;" cx="13.732" cy="-14.25" r="0.955"/>
		<circle style="fill:none;stroke:#000000;stroke-width:0.3;" cx="27.232" cy="-14.25" r="0.955"/>
		<circle style="fill:none;stroke:#000000;stroke-width:0.3;" cx="41.607" cy="-14.25" r="0.955"/>
		<circle style="fill:none;stroke:#000000;stroke-width:0.3;" cx="5.607" cy="-10.375" r="0.955"/>
		<circle style="fill:none;stroke:#000000;stroke-width:0.3;" cx="19.732" cy="-10.375" r="0.955"/>
		<circle style="fill:none;stroke:#000000;stroke-width:0.3;" cx="33.857" cy="-10.375" r="0.955"/>
		<circle style="fill:none;stroke:#000000;stroke-width:0.3;" cx="47.482" cy="-10.375" r="0.955"/>
		<circle style="fill:none;stroke:#000000;stroke-width:0.3;" cx="53.082" cy="-6.25" r="0.955"/>
		<circle style="fill:none;stroke:#000000;stroke-width:0.3;" cx="11.357" cy="-6.25" r="0.955"/>
		<circle style="fill:none;stroke:#000000;stroke-width:0.3;" cx="24.732" cy="-6.25" r="0.955"/>
		<circle style="fill:none;stroke:#000000;stroke-width:0.3;" cx="39.232" cy="-6.25" r="0.955"/>
		<circle style="fill:none;stroke:#000000;stroke-width:0.3;" cx="4.732" cy="-2.426" r="0.955"/>
		<circle style="fill:none;stroke:#000000;stroke-width:0.3;" cx="17.732" cy="-2.426" r="0.955"/>
		<circle style="fill:none;stroke:#000000;stroke-width:0.3;" cx="31.732" cy="-2.426" r="0.955"/>
		<circle style="fill:none;stroke:#000000;stroke-width:0.3;" cx="45.732" cy="-2.426" r="0.955"/>
		<circle style="fill:none;stroke:#000000;stroke-width:0.3;" cx="20.357" cy="-32.975" r="0.955"/>
		<circle style="fill:none;stroke:#000000;stroke-width:0.3;" cx="34.857" cy="-32.975" r="0.955"/>
		<circle style="fill:none;stroke:#000000;stroke-width:0.3;" cx="47.982" cy="-32.975" r="0.955"/>
		<path style="fill:none;stroke:#000000;stroke-width:0.3;" d="M54.268-53.345c-0.104-0.039-0.218-0.061-0.336-0.061    c-0.527,0-0.955,0.428-0.955,0.955c0,0.527,0.428,0.954,0.955,0.954c0.118,0,0.232-0.021,0.336-0.06"/>
		<path style="fill:none;stroke:#000000;stroke-width:0.3;" d="M54.268-37.304c-0.012,0-0.024-0.001-0.036-0.001    c-0.527,0-0.955,0.427-0.955,0.954c0,0.527,0.428,0.955,0.955,0.955c0.012,0,0.024,0,0.036-0.001"/>
		<path style="fill:none;stroke:#000000;stroke-width:0.3;" d="M54.268-29.749c-0.089,0.146-0.141,0.316-0.141,0.499    s0.052,0.354,0.141,0.498"/>
		<path style="fill:none;stroke:#000000;stroke-width:0.3;" d="M54.268-21.916c-0.172-0.25-0.46-0.414-0.786-0.414    c-0.527,0-0.955,0.428-0.955,0.955c0,0.526,0.428,0.954,0.955,0.954c0.326,0,0.614-0.164,0.786-0.414"/>
	</g>
</svg>
