<?xml version="1.0" encoding="utf-8"?>
<svg xmlns="http://www.w3.org/2000/svg" version="1.1" x="0px" y="0px" xml:space="preserve" width="85.875" height="85.875" viewBox="1.525 -87.793 85.875 85.875">
	<g>
		<rect x="1.525" y="-87.793" style="fill:none;" width="85.875" height="85.875"/>
		<line style="fill:none;stroke:#000000;stroke-width:0.7;stroke-linecap:round;" x1="26.4" y1="-77.326" x2="26.4" y2="-77.326"/>
		<line style="fill:none;stroke:#000000;stroke-width:0.7;stroke-linecap:round;" x1="38.4" y1="-73.576" x2="38.4" y2="-73.576"/>

			<line style="fill:none;stroke:#000000;stroke-width:0.7;stroke-linecap:round;" x1="38.067" y1="-82.743" x2="38.067" y2="-82.743"/>

			<line style="fill:none;stroke:#000000;stroke-width:0.7;stroke-linecap:round;" x1="46.15" y1="-79.076" x2="46.15" y2="-79.076"/>
		<line style="fill:none;stroke:#000000;stroke-width:0.7;stroke-linecap:round;" x1="69.9" y1="-77.076" x2="69.9" y2="-77.076"/>

			<line style="fill:none;stroke:#000000;stroke-width:0.7;stroke-linecap:round;" x1="82.15" y1="-73.576" x2="82.15" y2="-73.576"/>

			<line style="fill:none;stroke:#000000;stroke-width:0.7;stroke-linecap:round;" x1="77.15" y1="-82.576" x2="77.15" y2="-82.576"/>

			<line style="fill:none;stroke:#000000;stroke-width:0.7;stroke-linecap:round;" x1="55.15" y1="-86.326" x2="55.15" y2="-86.326"/>
		<line style="fill:none;stroke:#000000;stroke-width:0.7;stroke-linecap:round;" x1="30.9" y1="-82.41" x2="30.9" y2="-82.41"/>

			<line style="fill:none;stroke:#000000;stroke-width:0.7;stroke-linecap:round;" x1="15.15" y1="-76.576" x2="15.15" y2="-76.576"/>
		<line style="fill:none;stroke:#000000;stroke-width:0.7;stroke-linecap:round;" x1="14.9" y1="-62.326" x2="14.9" y2="-62.326"/>

			<line style="fill:none;stroke:#000000;stroke-width:0.7;stroke-linecap:round;" x1="33.65" y1="-60.076" x2="33.65" y2="-60.076"/>
		<line style="fill:none;stroke:#000000;stroke-width:0.7;stroke-linecap:round;" x1="36.9" y1="-51.076" x2="36.9" y2="-51.076"/>
		<line style="fill:none;stroke:#000000;stroke-width:0.7;stroke-linecap:round;" x1="44.9" y1="-61.076" x2="44.9" y2="-61.076"/>

			<line style="fill:none;stroke:#000000;stroke-width:0.7;stroke-linecap:round;" x1="50.65" y1="-51.326" x2="50.65" y2="-51.326"/>
		<line style="fill:none;stroke:#000000;stroke-width:0.7;stroke-linecap:round;" x1="56.9" y1="-62.826" x2="56.9" y2="-62.826"/>

			<line style="fill:none;stroke:#000000;stroke-width:0.7;stroke-linecap:round;" x1="64.15" y1="-58.826" x2="64.15" y2="-58.826"/>

			<line style="fill:none;stroke:#000000;stroke-width:0.7;stroke-linecap:round;" x1="58.15" y1="-58.576" x2="58.15" y2="-58.576"/>
		<line style="fill:none;stroke:#000000;stroke-width:0.7;stroke-linecap:round;" x1="52.4" y1="-58.076" x2="52.4" y2="-58.076"/>
		<line style="fill:none;stroke:#000000;stroke-width:0.7;stroke-linecap:round;" x1="42.9" y1="-54.826" x2="42.9" y2="-54.826"/>
		<line style="fill:none;stroke:#000000;stroke-width:0.7;stroke-linecap:round;" x1="32.4" y1="-54.576" x2="32.4" y2="-54.576"/>
		<line style="fill:none;stroke:#000000;stroke-width:0.7;stroke-linecap:round;" x1="30.9" y1="-48.076" x2="30.9" y2="-48.076"/>
		<line style="fill:none;stroke:#000000;stroke-width:0.7;stroke-linecap:round;" x1="29.4" y1="-62.576" x2="29.4" y2="-62.576"/>
		<line style="fill:none;stroke:#000000;stroke-width:0.7;stroke-linecap:round;" x1="38.4" y1="-64.576" x2="38.4" y2="-64.576"/>
		<line style="fill:none;stroke:#000000;stroke-width:0.7;stroke-linecap:round;" x1="30.9" y1="-72.326" x2="30.9" y2="-72.326"/>

			<line style="fill:none;stroke:#000000;stroke-width:0.7;stroke-linecap:round;" x1="18.15" y1="-50.076" x2="18.15" y2="-50.076"/>

			<line style="fill:none;stroke:#000000;stroke-width:0.7;stroke-linecap:round;" x1="20.65" y1="-44.826" x2="20.65" y2="-44.826"/>

			<line style="fill:none;stroke:#000000;stroke-width:0.7;stroke-linecap:round;" x1="4.025" y1="-39.601" x2="4.025" y2="-39.601"/>
		<line style="fill:none;stroke:#000000;stroke-width:0.7;stroke-linecap:round;" x1="6.15" y1="-47.576" x2="6.15" y2="-47.576"/>
		<line style="fill:none;stroke:#000000;stroke-width:0.7;stroke-linecap:round;" x1="24.4" y1="-33.076" x2="24.4" y2="-33.076"/>
		<line style="fill:none;stroke:#000000;stroke-width:0.7;stroke-linecap:round;" x1="8.15" y1="-24.826" x2="8.15" y2="-24.826"/>

			<line style="fill:none;stroke:#000000;stroke-width:0.7;stroke-linecap:round;" x1="24.15" y1="-26.326" x2="24.15" y2="-26.326"/>

			<line style="fill:none;stroke:#000000;stroke-width:0.7;stroke-linecap:round;" x1="22.15" y1="-16.326" x2="22.15" y2="-16.326"/>
		<line style="fill:none;stroke:#000000;stroke-width:0.7;stroke-linecap:round;" x1="15.9" y1="-15.576" x2="15.9" y2="-15.576"/>
		<line style="fill:none;stroke:#000000;stroke-width:0.7;stroke-linecap:round;" x1="15.65" y1="-8.326" x2="15.65" y2="-8.326"/>
		<line style="fill:none;stroke:#000000;stroke-width:0.7;stroke-linecap:round;" x1="12.275" y1="-2.4" x2="12.275" y2="-2.4"/>
		<line style="fill:none;stroke:#000000;stroke-width:0.7;stroke-linecap:round;" x1="30.9" y1="-6.076" x2="30.9" y2="-6.076"/>
		<line style="fill:none;stroke:#000000;stroke-width:0.7;stroke-linecap:round;" x1="37.65" y1="-7.826" x2="37.65" y2="-7.826"/>
		<line style="fill:none;stroke:#000000;stroke-width:0.7;stroke-linecap:round;" x1="37.9" y1="-14.076" x2="37.9" y2="-14.076"/>
		<line style="fill:none;stroke:#000000;stroke-width:0.7;stroke-linecap:round;" x1="38.4" y1="-22.826" x2="38.4" y2="-22.826"/>

			<line style="fill:none;stroke:#000000;stroke-width:0.7;stroke-linecap:round;" x1="30.65" y1="-31.326" x2="30.65" y2="-31.326"/>

			<line style="fill:none;stroke:#000000;stroke-width:0.7;stroke-linecap:round;" x1="29.65" y1="-37.076" x2="29.65" y2="-37.076"/>

			<line style="fill:none;stroke:#000000;stroke-width:0.7;stroke-linecap:round;" x1="27.65" y1="-42.576" x2="27.65" y2="-42.576"/>

			<line style="fill:none;stroke:#000000;stroke-width:0.7;stroke-linecap:round;" x1="35.15" y1="-44.826" x2="35.15" y2="-44.826"/>
		<line style="fill:none;stroke:#000000;stroke-width:0.7;stroke-linecap:round;" x1="40.4" y1="-36.826" x2="40.4" y2="-36.826"/>
		<line style="fill:none;stroke:#000000;stroke-width:0.7;stroke-linecap:round;" x1="43.9" y1="-48.576" x2="43.9" y2="-48.576"/>

			<line style="fill:none;stroke:#000000;stroke-width:0.7;stroke-linecap:round;" x1="56.15" y1="-50.326" x2="56.15" y2="-50.326"/>

			<line style="fill:none;stroke:#000000;stroke-width:0.7;stroke-linecap:round;" x1="50.15" y1="-45.576" x2="50.15" y2="-45.576"/>
		<line style="fill:none;stroke:#000000;stroke-width:0.7;stroke-linecap:round;" x1="45.9" y1="-41.076" x2="45.9" y2="-41.076"/>

			<line style="fill:none;stroke:#000000;stroke-width:0.7;stroke-linecap:round;" x1="51.15" y1="-37.826" x2="51.15" y2="-37.826"/>
		<line style="fill:none;stroke:#000000;stroke-width:0.7;stroke-linecap:round;" x1="57.4" y1="-37.826" x2="57.4" y2="-37.826"/>

			<line style="fill:none;stroke:#000000;stroke-width:0.7;stroke-linecap:round;" x1="57.15" y1="-43.826" x2="57.15" y2="-43.826"/>

			<line style="fill:none;stroke:#000000;stroke-width:0.7;stroke-linecap:round;" x1="62.15" y1="-46.826" x2="62.15" y2="-46.826"/>
		<line style="fill:none;stroke:#000000;stroke-width:0.7;stroke-linecap:round;" x1="70.9" y1="-43.826" x2="70.9" y2="-43.826"/>
		<line style="fill:none;stroke:#000000;stroke-width:0.7;stroke-linecap:round;" x1="71.4" y1="-55.326" x2="71.4" y2="-55.326"/>

			<line style="fill:none;stroke:#000000;stroke-width:0.7;stroke-linecap:round;" x1="68.65" y1="-68.826" x2="68.65" y2="-68.826"/>

			<line style="fill:none;stroke:#000000;stroke-width:0.7;stroke-linecap:round;" x1="62.65" y1="-71.826" x2="62.65" y2="-71.826"/>
		<line style="fill:none;stroke:#000000;stroke-width:0.7;stroke-linecap:round;" x1="64.9" y1="-82.326" x2="64.9" y2="-82.326"/>
		<line style="fill:none;stroke:#000000;stroke-width:0.7;stroke-linecap:round;" x1="84.4" y1="-79.326" x2="84.4" y2="-79.326"/>
		<line style="fill:none;stroke:#000000;stroke-width:0.7;stroke-linecap:round;" x1="76.4" y1="-76.576" x2="76.4" y2="-76.576"/>
		<line style="fill:none;stroke:#000000;stroke-width:0.7;stroke-linecap:round;" x1="82.4" y1="-67.326" x2="82.4" y2="-67.326"/>

			<line style="fill:none;stroke:#000000;stroke-width:0.7;stroke-linecap:round;" x1="73.65" y1="-71.826" x2="73.65" y2="-71.826"/>
		<line style="fill:none;stroke:#000000;stroke-width:0.7;stroke-linecap:round;" x1="76.4" y1="-65.576" x2="76.4" y2="-65.576"/>

			<line style="fill:none;stroke:#000000;stroke-width:0.7;stroke-linecap:round;" x1="79.65" y1="-58.576" x2="79.65" y2="-58.576"/>

			<line style="fill:none;stroke:#000000;stroke-width:0.7;stroke-linecap:round;" x1="84.65" y1="-36.576" x2="84.65" y2="-36.576"/>
		<line style="fill:none;stroke:#000000;stroke-width:0.7;stroke-linecap:round;" x1="76.9" y1="-34.326" x2="76.9" y2="-34.326"/>
		<line style="fill:none;stroke:#000000;stroke-width:0.7;stroke-linecap:round;" x1="73.4" y1="-38.326" x2="73.4" y2="-38.326"/>

			<line style="fill:none;stroke:#000000;stroke-width:0.7;stroke-linecap:round;" x1="69.15" y1="-34.826" x2="69.15" y2="-34.826"/>

			<line style="fill:none;stroke:#000000;stroke-width:0.7;stroke-linecap:round;" x1="63.65" y1="-35.076" x2="63.65" y2="-35.076"/>

			<line style="fill:none;stroke:#000000;stroke-width:0.7;stroke-linecap:round;" x1="63.15" y1="-29.326" x2="63.15" y2="-29.326"/>
		<line style="fill:none;stroke:#000000;stroke-width:0.7;stroke-linecap:round;" x1="69.4" y1="-26.576" x2="69.4" y2="-26.576"/>

			<line style="fill:none;stroke:#000000;stroke-width:0.7;stroke-linecap:round;" x1="76.65" y1="-24.576" x2="76.65" y2="-24.576"/>
		<line style="fill:none;stroke:#000000;stroke-width:0.7;stroke-linecap:round;" x1="72.9" y1="-31.576" x2="72.9" y2="-31.576"/>

			<line style="fill:none;stroke:#000000;stroke-width:0.7;stroke-linecap:round;" x1="81.65" y1="-21.326" x2="81.65" y2="-21.326"/>
		<line style="fill:none;stroke:#000000;stroke-width:0.7;stroke-linecap:round;" x1="81.4" y1="-14.326" x2="81.4" y2="-14.326"/>

			<line style="fill:none;stroke:#000000;stroke-width:0.7;stroke-linecap:round;" x1="75.65" y1="-12.076" x2="75.65" y2="-12.076"/>
		<line style="fill:none;stroke:#000000;stroke-width:0.7;stroke-linecap:round;" x1="69.4" y1="-20.326" x2="69.4" y2="-20.326"/>

			<line style="fill:none;stroke:#000000;stroke-width:0.7;stroke-linecap:round;" x1="70.15" y1="-14.826" x2="70.15" y2="-14.826"/>
		<line style="fill:none;stroke:#000000;stroke-width:0.7;stroke-linecap:round;" x1="50.9" y1="-13.576" x2="50.9" y2="-13.576"/>

			<line style="fill:none;stroke:#000000;stroke-width:0.7;stroke-linecap:round;" x1="43.15" y1="-11.576" x2="43.15" y2="-11.576"/>
		<line style="fill:none;stroke:#000000;stroke-width:0.7;stroke-linecap:round;" x1="32.4" y1="-24.076" x2="32.4" y2="-24.076"/>
		<line style="fill:none;stroke:#000000;stroke-width:0.7;stroke-linecap:round;" x1="28.4" y1="-17.076" x2="28.4" y2="-17.076"/>
		<line style="fill:none;stroke:#000000;stroke-width:0.7;stroke-linecap:round;" x1="20.9" y1="-22.326" x2="20.9" y2="-22.326"/>

			<line style="fill:none;stroke:#000000;stroke-width:0.7;stroke-linecap:round;" x1="14.15" y1="-26.076" x2="14.15" y2="-26.076"/>
		<line style="fill:none;stroke:#000000;stroke-width:0.7;stroke-linecap:round;" x1="6.4" y1="-31.076" x2="6.4" y2="-31.076"/>
		<line style="fill:none;stroke:#000000;stroke-width:0.7;stroke-linecap:round;" x1="2.65" y1="-25.826" x2="2.65" y2="-25.826"/>
		<line style="fill:none;stroke:#000000;stroke-width:0.7;stroke-linecap:round;" x1="2.9" y1="-18.076" x2="2.9" y2="-18.076"/>
		<line style="fill:none;stroke:#000000;stroke-width:0.7;stroke-linecap:round;" x1="20.4" y1="-9.576" x2="20.4" y2="-9.576"/>

			<line style="fill:none;stroke:#000000;stroke-width:0.7;stroke-linecap:round;" x1="49.217" y1="-3.643" x2="49.217" y2="-3.643"/>

			<line style="fill:none;stroke:#000000;stroke-width:0.7;stroke-linecap:round;" x1="83.65" y1="-25.326" x2="83.65" y2="-25.326"/>

			<line style="fill:none;stroke:#000000;stroke-width:0.7;stroke-linecap:round;" x1="84.65" y1="-44.076" x2="84.65" y2="-44.076"/>

			<line style="fill:none;stroke:#000000;stroke-width:0.7;stroke-linecap:round;" x1="78.65" y1="-44.576" x2="78.65" y2="-44.576"/>

			<line style="fill:none;stroke:#000000;stroke-width:0.7;stroke-linecap:round;" x1="85.65" y1="-86.576" x2="85.65" y2="-86.576"/>
		<line style="fill:none;stroke:#000000;stroke-width:0.7;stroke-linecap:round;" x1="81.9" y1="-83.076" x2="81.9" y2="-83.076"/>
		<line style="fill:none;stroke:#000000;stroke-width:0.7;stroke-linecap:round;" x1="2.4" y1="-52.576" x2="2.4" y2="-52.576"/>
		<line style="fill:none;stroke:#000000;stroke-width:0.7;stroke-linecap:round;" x1="7.65" y1="-52.326" x2="7.65" y2="-52.326"/>
		<line style="fill:none;stroke:#000000;stroke-width:0.7;stroke-linecap:round;" x1="2.65" y1="-9.826" x2="2.65" y2="-9.826"/>
		<line style="fill:none;stroke:#000000;stroke-width:0.7;stroke-linecap:round;" x1="5.65" y1="-21.576" x2="5.65" y2="-21.576"/>

			<line style="fill:none;stroke:#000000;stroke-width:0.7;stroke-linecap:round;" x1="64.65" y1="-52.326" x2="64.65" y2="-52.326"/>

			<line style="fill:none;stroke:#000000;stroke-width:0.7;stroke-linecap:round;" x1="74.15" y1="-49.826" x2="74.15" y2="-49.826"/>
		<line style="fill:none;stroke:#000000;stroke-width:0.7;stroke-linecap:round;" x1="81.9" y1="-54.326" x2="81.9" y2="-54.326"/>
		<line style="fill:none;stroke:#000000;stroke-width:0.7;stroke-linecap:round;" x1="72.4" y1="-61.326" x2="72.4" y2="-61.326"/>

			<line style="fill:none;stroke:#000000;stroke-width:0.7;stroke-linecap:round;" x1="64.15" y1="-65.076" x2="64.15" y2="-65.076"/>

			<line style="fill:none;stroke:#000000;stroke-width:0.7;stroke-linecap:round;" x1="51.15" y1="-68.826" x2="51.15" y2="-68.826"/>
		<line style="fill:none;stroke:#000000;stroke-width:0.7;stroke-linecap:round;" x1="58.4" y1="-76.326" x2="58.4" y2="-76.326"/>
		<line style="fill:none;stroke:#000000;stroke-width:0.7;stroke-linecap:round;" x1="24.9" y1="-69.326" x2="24.9" y2="-69.326"/>

			<line style="fill:none;stroke:#000000;stroke-width:0.7;stroke-linecap:round;" x1="19.65" y1="-73.076" x2="19.65" y2="-73.076"/>
		<line style="fill:none;stroke:#000000;stroke-width:0.7;stroke-linecap:round;" x1="8.4" y1="-69.076" x2="8.4" y2="-69.076"/>
		<line style="fill:none;stroke:#000000;stroke-width:0.7;stroke-linecap:round;" x1="2.9" y1="-77.076" x2="2.9" y2="-77.076"/>

			<line style="fill:none;stroke:#000000;stroke-width:0.7;stroke-linecap:round;" x1="2.833" y1="-60.726" x2="2.833" y2="-60.726"/>
		<line style="fill:none;stroke:#000000;stroke-width:0.7;stroke-linecap:round;" x1="12.9" y1="-50.076" x2="12.9" y2="-50.076"/>
		<line style="fill:none;stroke:#000000;stroke-width:0.7;stroke-linecap:round;" x1="9.15" y1="-57.826" x2="9.15" y2="-57.826"/>

			<line style="fill:none;stroke:#000000;stroke-width:0.7;stroke-linecap:round;" x1="16.15" y1="-58.076" x2="16.15" y2="-58.076"/>
		<line style="fill:none;stroke:#000000;stroke-width:0.7;stroke-linecap:round;" x1="23.4" y1="-52.326" x2="23.4" y2="-52.326"/>

			<line style="fill:none;stroke:#000000;stroke-width:0.7;stroke-linecap:round;" x1="24.15" y1="-61.826" x2="24.15" y2="-61.826"/>

			<line style="fill:none;stroke:#000000;stroke-width:0.7;stroke-linecap:round;" x1="20.65" y1="-58.826" x2="20.65" y2="-58.826"/>
		<line style="fill:none;stroke:#000000;stroke-width:0.7;stroke-linecap:round;" x1="15.4" y1="-68.576" x2="15.4" y2="-68.576"/>
		<line style="fill:none;stroke:#000000;stroke-width:0.7;stroke-linecap:round;" x1="8.65" y1="-79.826" x2="8.65" y2="-79.826"/>
		<line style="fill:none;stroke:#000000;stroke-width:0.7;stroke-linecap:round;" x1="14.9" y1="-81.576" x2="14.9" y2="-81.576"/>

			<line style="fill:none;stroke:#000000;stroke-width:0.7;stroke-linecap:round;" x1="22.65" y1="-83.326" x2="22.65" y2="-83.326"/>
		<line style="fill:none;stroke:#000000;stroke-width:0.7;stroke-linecap:round;" x1="34.9" y1="-39.826" x2="34.9" y2="-39.826"/>
		<line style="fill:none;stroke:#000000;stroke-width:0.7;stroke-linecap:round;" x1="20.9" y1="-40.326" x2="20.9" y2="-40.326"/>

			<line style="fill:none;stroke:#000000;stroke-width:0.7;stroke-linecap:round;" x1="10.15" y1="-43.326" x2="10.15" y2="-43.326"/>
		<line style="fill:none;stroke:#000000;stroke-width:0.7;stroke-linecap:round;" x1="14.9" y1="-33.576" x2="14.9" y2="-33.576"/>
		<line style="fill:none;stroke:#000000;stroke-width:0.7;stroke-linecap:round;" x1="38.9" y1="-30.826" x2="38.9" y2="-30.826"/>

			<line style="fill:none;stroke:#000000;stroke-width:0.7;stroke-linecap:round;" x1="45.65" y1="-36.576" x2="45.65" y2="-36.576"/>
		<line style="fill:none;stroke:#000000;stroke-width:0.7;stroke-linecap:round;" x1="58.4" y1="-33.326" x2="58.4" y2="-33.326"/>
		<line style="fill:none;stroke:#000000;stroke-width:0.7;stroke-linecap:round;" x1="63.9" y1="-40.326" x2="63.9" y2="-40.326"/>
		<line style="fill:none;stroke:#000000;stroke-width:0.7;stroke-linecap:round;" x1="78.4" y1="-39.326" x2="78.4" y2="-39.326"/>
		<line style="fill:none;stroke:#000000;stroke-width:0.7;stroke-linecap:round;" x1="81.4" y1="-29.326" x2="81.4" y2="-29.326"/>

			<line style="fill:none;stroke:#000000;stroke-width:0.7;stroke-linecap:round;" x1="64.15" y1="-22.826" x2="64.15" y2="-22.826"/>
		<line style="fill:none;stroke:#000000;stroke-width:0.7;stroke-linecap:round;" x1="76.9" y1="-17.576" x2="76.9" y2="-17.576"/>
		<line style="fill:none;stroke:#000000;stroke-width:0.7;stroke-linecap:round;" x1="81.15" y1="-7.576" x2="81.15" y2="-7.576"/>
		<line style="fill:none;stroke:#000000;stroke-width:0.7;stroke-linecap:round;" x1="55.9" y1="-7.076" x2="55.9" y2="-7.076"/>
		<line style="fill:none;stroke:#000000;stroke-width:0.7;stroke-linecap:round;" x1="48.9" y1="-8.326" x2="48.9" y2="-8.326"/>
		<line style="fill:none;stroke:#000000;stroke-width:0.7;stroke-linecap:round;" x1="24.65" y1="-9.326" x2="24.65" y2="-9.326"/>
		<line style="fill:none;stroke:#000000;stroke-width:0.7;stroke-linecap:round;" x1="6.583" y1="-4.742" x2="6.583" y2="-4.742"/>
		<line style="fill:none;stroke:#000000;stroke-width:0.7;stroke-linecap:round;" x1="8.15" y1="-14.576" x2="8.15" y2="-14.576"/>

			<line style="fill:none;stroke:#000000;stroke-width:0.7;stroke-linecap:round;" x1="15.15" y1="-20.576" x2="15.15" y2="-20.576"/>

			<line style="fill:none;stroke:#000000;stroke-width:0.7;stroke-linecap:round;" x1="33.15" y1="-17.576" x2="33.15" y2="-17.576"/>

			<line style="fill:none;stroke:#000000;stroke-width:0.7;stroke-linecap:round;" x1="45.15" y1="-17.076" x2="45.15" y2="-17.076"/>
		<line style="fill:none;stroke:#000000;stroke-width:0.7;stroke-linecap:round;" x1="46.9" y1="-26.076" x2="46.9" y2="-26.076"/>
		<line style="fill:none;stroke:#000000;stroke-width:0.7;stroke-linecap:round;" x1="52.4" y1="-17.826" x2="52.4" y2="-17.826"/>

			<line style="fill:none;stroke:#000000;stroke-width:0.7;stroke-linecap:round;" x1="68.583" y1="-10.061" x2="68.583" y2="-10.061"/>
		<line style="fill:none;stroke:#000000;stroke-width:0.7;stroke-linecap:round;" x1="72.984" y1="-5.66" x2="72.984" y2="-5.66"/>

			<line style="fill:none;stroke:#000000;stroke-width:0.7;stroke-linecap:round;" x1="64.067" y1="-3.076" x2="64.067" y2="-3.076"/>

			<line style="fill:none;stroke:#000000;stroke-width:0.7;stroke-linecap:round;" x1="63.15" y1="-12.326" x2="63.15" y2="-12.326"/>

			<line style="fill:none;stroke:#000000;stroke-width:0.7;stroke-linecap:round;" x1="58.15" y1="-14.826" x2="58.15" y2="-14.826"/>

			<line style="fill:none;stroke:#000000;stroke-width:0.7;stroke-linecap:round;" x1="57.65" y1="-20.576" x2="57.65" y2="-20.576"/>

			<line style="fill:none;stroke:#000000;stroke-width:0.7;stroke-linecap:round;" x1="53.65" y1="-28.326" x2="53.65" y2="-28.326"/>
		<line style="fill:none;stroke:#000000;stroke-width:0.7;stroke-linecap:round;" x1="42.4" y1="-44.326" x2="42.4" y2="-44.326"/>
		<line style="fill:none;stroke:#000000;stroke-width:0.7;stroke-linecap:round;" x1="38.9" y1="-57.826" x2="38.9" y2="-57.826"/>
		<line style="fill:none;stroke:#000000;stroke-width:0.7;stroke-linecap:round;" x1="32.9" y1="-66.576" x2="32.9" y2="-66.576"/>

			<line style="fill:none;stroke:#000000;stroke-width:0.7;stroke-linecap:round;" x1="39.65" y1="-68.326" x2="39.65" y2="-68.326"/>
		<line style="fill:none;stroke:#000000;stroke-width:0.7;stroke-linecap:round;" x1="44.9" y1="-72.826" x2="44.9" y2="-72.826"/>

			<line style="fill:none;stroke:#000000;stroke-width:0.7;stroke-linecap:round;" x1="32.65" y1="-76.576" x2="32.65" y2="-76.576"/>

			<line style="fill:none;stroke:#000000;stroke-width:0.7;stroke-linecap:round;" x1="44.65" y1="-84.326" x2="44.65" y2="-84.326"/>
		<line style="fill:none;stroke:#000000;stroke-width:0.3;" x1="10.9" y1="-79.826" x2="13.15" y2="-77.201"/>
		<line style="fill:none;stroke:#000000;stroke-width:0.3;" x1="11.025" y1="-83.576" x2="14.4" y2="-83.451"/>
		<line style="fill:none;stroke:#000000;stroke-width:0.3;" x1="21.9" y1="-80.389" x2="24.588" y2="-78.344"/>
		<line style="fill:none;stroke:#000000;stroke-width:0.3;" x1="18.4" y1="-81.451" x2="16.275" y2="-78.701"/>
		<line style="fill:none;stroke:#000000;stroke-width:0.3;" x1="20.025" y1="-84.201" x2="17.275" y2="-85.951"/>
		<line style="fill:none;stroke:#000000;stroke-width:0.3;" x1="25.275" y1="-86.951" x2="23.025" y2="-85.451"/>
		<line style="fill:none;stroke:#000000;stroke-width:0.3;" x1="26.9" y1="-83.576" x2="27.025" y2="-80.451"/>
		<line style="fill:none;stroke:#000000;stroke-width:0.3;" x1="30.275" y1="-86.143" x2="32.775" y2="-84.893"/>
		<line style="fill:none;stroke:#000000;stroke-width:0.3;" x1="36.65" y1="-84.509" x2="38.65" y2="-86.884"/>
		<line style="fill:none;stroke:#000000;stroke-width:0.3;" x1="41.4" y1="-83.576" x2="44.15" y2="-81.326"/>
		<line style="fill:none;stroke:#000000;stroke-width:0.3;" x1="37.275" y1="-79.951" x2="37.9" y2="-76.951"/>
		<line style="fill:none;stroke:#000000;stroke-width:0.3;" x1="33.025" y1="-79.951" x2="30.525" y2="-77.326"/>
		<line style="fill:none;stroke:#000000;stroke-width:0.3;" x1="44.025" y1="-76.951" x2="41.9" y2="-74.326"/>
		<line style="fill:none;stroke:#000000;stroke-width:0.3;" x1="40.525" y1="-70.576" x2="43.9" y2="-69.451"/>
		<line style="fill:none;stroke:#000000;stroke-width:0.3;" x1="36.226" y1="-72.235" x2="32.923" y2="-74.709"/>
		<line style="fill:none;stroke:#000000;stroke-width:0.3;" x1="32.775" y1="-69.826" x2="29.9" y2="-68.451"/>
		<line style="fill:none;stroke:#000000;stroke-width:0.3;" x1="36.775" y1="-68.701" x2="35.775" y2="-65.326"/>
		<line style="fill:none;stroke:#000000;stroke-width:0.3;" x1="41.525" y1="-65.576" x2="43.275" y2="-62.826"/>
		<line style="fill:none;stroke:#000000;stroke-width:0.3;" x1="43.525" y1="-58.201" x2="40.775" y2="-56.576"/>
		<line style="fill:none;stroke:#000000;stroke-width:0.3;" x1="39.025" y1="-60.951" x2="35.525" y2="-61.451"/>
		<line style="fill:none;stroke:#000000;stroke-width:0.3;" x1="40.4" y1="-51.951" x2="44.025" y2="-51.701"/>
		<line style="fill:none;stroke:#000000;stroke-width:0.3;" x1="38.925" y1="-49.96" x2="40.175" y2="-46.96"/>
		<line style="fill:none;stroke:#000000;stroke-width:0.3;" x1="7.775" y1="-83.192" x2="5.4" y2="-80.692"/>
		<line style="fill:none;stroke:#000000;stroke-width:0.3;" x1="5.275" y1="-77.951" x2="9.275" y2="-76.826"/>
		<line style="fill:none;stroke:#000000;stroke-width:0.3;" x1="4.275" y1="-74.201" x2="5.4" y2="-70.576"/>
		<line style="fill:none;stroke:#000000;stroke-width:0.3;" x1="6.025" y1="-67.576" x2="3.025" y2="-65.201"/>
		<line style="fill:none;stroke:#000000;stroke-width:0.3;" x1="6.034" y1="-61.918" x2="5.659" y2="-58.293"/>
		<line style="fill:none;stroke:#000000;stroke-width:0.3;" x1="3.275" y1="-55.076" x2="6.15" y2="-53.076"/>
		<line style="fill:none;stroke:#000000;stroke-width:0.3;" x1="3.65" y1="-49.326" x2="2.025" y2="-46.326"/>
		<line style="fill:none;stroke:#000000;stroke-width:0.3;" x1="1.9" y1="-86.701" x2="5.15" y2="-85.951"/>
		<line style="fill:none;stroke:#000000;stroke-width:0.3;" x1="10.025" y1="-45.701" x2="8.9" y2="-49.201"/>
		<line style="fill:none;stroke:#000000;stroke-width:0.3;" x1="13.608" y1="-45.285" x2="16.733" y2="-47.41"/>
		<line style="fill:none;stroke:#000000;stroke-width:0.3;" x1="10.15" y1="-52.951" x2="13.525" y2="-53.576"/>
		<line style="fill:none;stroke:#000000;stroke-width:0.3;" x1="8.275" y1="-64.076" x2="11.9" y2="-63.951"/>
		<line style="fill:none;stroke:#000000;stroke-width:0.3;" x1="12.4" y1="-73.451" x2="8.275" y2="-73.201"/>
		<line style="fill:none;stroke:#000000;stroke-width:0.3;" x1="12.9" y1="-70.326" x2="10.9" y2="-67.326"/>
		<line style="fill:none;stroke:#000000;stroke-width:0.3;" x1="15.9" y1="-66.701" x2="18.4" y2="-64.701"/>
		<line style="fill:none;stroke:#000000;stroke-width:0.3;" x1="15.9" y1="-74.326" x2="17.025" y2="-70.576"/>
		<line style="fill:none;stroke:#000000;stroke-width:0.3;" x1="27.624" y1="-52.826" x2="31.389" y2="-51.75"/>
		<line style="fill:none;stroke:#000000;stroke-width:0.3;" x1="19.981" y1="-76.039" x2="23.275" y2="-74.701"/>
		<line style="fill:none;stroke:#000000;stroke-width:0.3;" x1="27.15" y1="-74.701" x2="28.733" y2="-71.431"/>
		<line style="fill:none;stroke:#000000;stroke-width:0.3;" x1="23.025" y1="-70.701" x2="20.4" y2="-67.951"/>
		<line style="fill:none;stroke:#000000;stroke-width:0.3;" x1="23.525" y1="-65.701" x2="26.9" y2="-66.201"/>
		<line style="fill:none;stroke:#000000;stroke-width:0.3;" x1="29.65" y1="-64.826" x2="32.9" y2="-62.826"/>
		<line style="fill:none;stroke:#000000;stroke-width:0.3;" x1="31.525" y1="-59.326" x2="29.4" y2="-56.451"/>
		<line style="fill:none;stroke:#000000;stroke-width:0.3;" x1="36.525" y1="-53.076" x2="35.025" y2="-56.326"/>
		<line style="fill:none;stroke:#000000;stroke-width:0.3;" x1="33.092" y1="-46.034" x2="35.842" y2="-49.159"/>
		<line style="fill:none;stroke:#000000;stroke-width:0.3;" x1="27.9" y1="-46.826" x2="26.15" y2="-49.826"/>
		<line style="fill:none;stroke:#000000;stroke-width:0.3;" x1="21.733" y1="-46.942" x2="22.858" y2="-50.067"/>
		<line style="fill:none;stroke:#000000;stroke-width:0.3;" x1="21.525" y1="-56.159" x2="24.775" y2="-54.784"/>
		<line style="fill:none;stroke:#000000;stroke-width:0.3;" x1="25.393" y1="-57.985" x2="26.693" y2="-61.502"/>
		<line style="fill:none;stroke:#000000;stroke-width:0.3;" x1="21.4" y1="-62.701" x2="18.275" y2="-60.576"/>
		<line style="fill:none;stroke:#000000;stroke-width:0.3;" x1="16.692" y1="-55.535" x2="19.067" y2="-52.41"/>
		<line style="fill:none;stroke:#000000;stroke-width:0.3;" x1="53.938" y1="-79.826" x2="56.188" y2="-77.201"/>
		<line style="fill:none;stroke:#000000;stroke-width:0.3;" x1="54.063" y1="-83.576" x2="57.438" y2="-83.451"/>
		<line style="fill:none;stroke:#000000;stroke-width:0.3;" x1="64.938" y1="-80.389" x2="67.626" y2="-78.344"/>
		<line style="fill:none;stroke:#000000;stroke-width:0.3;" x1="61.438" y1="-81.451" x2="59.313" y2="-78.701"/>
		<line style="fill:none;stroke:#000000;stroke-width:0.3;" x1="63.063" y1="-84.201" x2="60.313" y2="-85.951"/>
		<line style="fill:none;stroke:#000000;stroke-width:0.3;" x1="68.313" y1="-86.951" x2="66.063" y2="-85.451"/>
		<line style="fill:none;stroke:#000000;stroke-width:0.3;" x1="69.938" y1="-83.576" x2="70.063" y2="-80.451"/>
		<line style="fill:none;stroke:#000000;stroke-width:0.3;" x1="73.313" y1="-86.143" x2="75.813" y2="-84.893"/>
		<line style="fill:none;stroke:#000000;stroke-width:0.3;" x1="79.688" y1="-84.509" x2="81.688" y2="-86.884"/>
		<line style="fill:none;stroke:#000000;stroke-width:0.3;" x1="84.438" y1="-83.576" x2="87.188" y2="-81.326"/>
		<line style="fill:none;stroke:#000000;stroke-width:0.3;" x1="80.313" y1="-79.951" x2="80.938" y2="-76.951"/>
		<line style="fill:none;stroke:#000000;stroke-width:0.3;" x1="76.063" y1="-79.951" x2="73.563" y2="-77.326"/>
		<line style="fill:none;stroke:#000000;stroke-width:0.3;" x1="87.063" y1="-76.951" x2="84.938" y2="-74.326"/>
		<line style="fill:none;stroke:#000000;stroke-width:0.3;" x1="83.563" y1="-70.576" x2="86.938" y2="-69.451"/>
		<line style="fill:none;stroke:#000000;stroke-width:0.3;" x1="79.688" y1="-73.326" x2="75.563" y2="-73.451"/>
		<line style="fill:none;stroke:#000000;stroke-width:0.3;" x1="75.813" y1="-69.826" x2="72.938" y2="-68.451"/>
		<line style="fill:none;stroke:#000000;stroke-width:0.3;" x1="79.813" y1="-68.701" x2="78.813" y2="-65.326"/>
		<line style="fill:none;stroke:#000000;stroke-width:0.3;" x1="84.563" y1="-65.576" x2="86.313" y2="-62.826"/>
		<line style="fill:none;stroke:#000000;stroke-width:0.3;" x1="86.563" y1="-58.201" x2="83.813" y2="-56.576"/>
		<line style="fill:none;stroke:#000000;stroke-width:0.3;" x1="82.063" y1="-60.951" x2="78.563" y2="-61.451"/>
		<line style="fill:none;stroke:#000000;stroke-width:0.3;" x1="83.438" y1="-51.951" x2="87.063" y2="-51.701"/>
		<line style="fill:none;stroke:#000000;stroke-width:0.3;" x1="81.962" y1="-49.96" x2="83.212" y2="-46.96"/>
		<line style="fill:none;stroke:#000000;stroke-width:0.3;" x1="50.813" y1="-84.326" x2="48.438" y2="-81.826"/>
		<line style="fill:none;stroke:#000000;stroke-width:0.3;" x1="48.313" y1="-77.951" x2="52.313" y2="-76.826"/>
		<line style="fill:none;stroke:#000000;stroke-width:0.3;" x1="47.313" y1="-74.201" x2="48.438" y2="-70.576"/>
		<line style="fill:none;stroke:#000000;stroke-width:0.3;" x1="49.063" y1="-67.576" x2="46.063" y2="-65.201"/>
		<line style="fill:none;stroke:#000000;stroke-width:0.3;" x1="48.505" y1="-60.5" x2="50.195" y2="-57.271"/>
		<line style="fill:none;stroke:#000000;stroke-width:0.3;" x1="46.313" y1="-55.076" x2="49.188" y2="-53.076"/>
		<line style="fill:none;stroke:#000000;stroke-width:0.3;" x1="48.389" y1="-49.326" x2="46.764" y2="-46.326"/>
		<line style="fill:none;stroke:#000000;stroke-width:0.3;" x1="44.938" y1="-86.701" x2="48.188" y2="-85.951"/>
		<line style="fill:none;stroke:#000000;stroke-width:0.3;" x1="53.913" y1="-44.284" x2="52.788" y2="-47.784"/>
		<line style="fill:none;stroke:#000000;stroke-width:0.3;" x1="57.813" y1="-47.576" x2="60.938" y2="-49.701"/>
		<line style="fill:none;stroke:#000000;stroke-width:0.3;" x1="53.188" y1="-52.951" x2="56.563" y2="-53.576"/>
		<line style="fill:none;stroke:#000000;stroke-width:0.3;" x1="56.054" y1="-60.201" x2="55.054" y2="-56.576"/>
		<line style="fill:none;stroke:#000000;stroke-width:0.3;" x1="51.478" y1="-63.203" x2="54.82" y2="-64.612"/>
		<line style="fill:none;stroke:#000000;stroke-width:0.3;" x1="55.438" y1="-73.451" x2="51.313" y2="-73.201"/>
		<line style="fill:none;stroke:#000000;stroke-width:0.3;" x1="55.938" y1="-70.326" x2="53.938" y2="-67.326"/>
		<line style="fill:none;stroke:#000000;stroke-width:0.3;" x1="58.938" y1="-66.701" x2="61.438" y2="-64.701"/>
		<line style="fill:none;stroke:#000000;stroke-width:0.3;" x1="58.938" y1="-74.326" x2="60.063" y2="-70.576"/>
		<line style="fill:none;stroke:#000000;stroke-width:0.3;" x1="62.858" y1="-74.537" x2="66.301" y2="-75.422"/>
		<line style="fill:none;stroke:#000000;stroke-width:0.3;" x1="70.887" y1="-74.46" x2="69.044" y2="-71.328"/>
		<line style="fill:none;stroke:#000000;stroke-width:0.3;" x1="66.063" y1="-70.701" x2="63.438" y2="-67.951"/>
		<line style="fill:none;stroke:#000000;stroke-width:0.3;" x1="66.563" y1="-65.701" x2="69.938" y2="-66.201"/>
		<line style="fill:none;stroke:#000000;stroke-width:0.3;" x1="72.688" y1="-64.826" x2="75.938" y2="-62.826"/>
		<line style="fill:none;stroke:#000000;stroke-width:0.3;" x1="75.751" y1="-59.056" x2="73.626" y2="-56.181"/>
		<line style="fill:none;stroke:#000000;stroke-width:0.3;" x1="79.563" y1="-53.076" x2="78.063" y2="-56.326"/>
		<line style="fill:none;stroke:#000000;stroke-width:0.3;" x1="76.413" y1="-46.317" x2="79.163" y2="-49.442"/>
		<line style="fill:none;stroke:#000000;stroke-width:0.3;" x1="74.938" y1="-52.451" x2="70.938" y2="-52.451"/>
		<line style="fill:none;stroke:#000000;stroke-width:0.3;" x1="70.938" y1="-46.826" x2="69.188" y2="-49.826"/>
		<line style="fill:none;stroke:#000000;stroke-width:0.3;" x1="64.9" y1="-46.576" x2="66.025" y2="-49.701"/>
		<line style="fill:none;stroke:#000000;stroke-width:0.3;" x1="65.9" y1="-55.576" x2="69.15" y2="-54.201"/>
		<line style="fill:none;stroke:#000000;stroke-width:0.3;" x1="10.458" y1="-59.91" x2="13.708" y2="-58.535"/>
		<line style="fill:none;stroke:#000000;stroke-width:0.3;" x1="70.012" y1="-58.126" x2="68.312" y2="-61.469"/>
		<line style="fill:none;stroke:#000000;stroke-width:0.3;" x1="64.438" y1="-62.701" x2="61.313" y2="-60.576"/>
		<line style="fill:none;stroke:#000000;stroke-width:0.3;" x1="59.563" y1="-56.701" x2="61.938" y2="-53.576"/>
		<line style="fill:none;stroke:#000000;stroke-width:0.3;" x1="10.934" y1="-36.822" x2="13.184" y2="-34.197"/>
		<line style="fill:none;stroke:#000000;stroke-width:0.3;" x1="11.059" y1="-40.572" x2="14.434" y2="-40.447"/>
		<line style="fill:none;stroke:#000000;stroke-width:0.3;" x1="21.934" y1="-37.384" x2="24.621" y2="-35.339"/>
		<line style="fill:none;stroke:#000000;stroke-width:0.3;" x1="18.434" y1="-38.447" x2="16.309" y2="-35.697"/>
		<line style="fill:none;stroke:#000000;stroke-width:0.3;" x1="20.059" y1="-42.047" x2="17.309" y2="-43.797"/>
		<line style="fill:none;stroke:#000000;stroke-width:0.3;" x1="25.309" y1="-43.947" x2="23.059" y2="-42.447"/>
		<line style="fill:none;stroke:#000000;stroke-width:0.3;" x1="28.067" y1="-40.572" x2="26.43" y2="-37.907"/>
		<line style="fill:none;stroke:#000000;stroke-width:0.3;" x1="30.309" y1="-43.139" x2="32.809" y2="-41.889"/>
		<line style="fill:none;stroke:#000000;stroke-width:0.3;" x1="36.684" y1="-41.505" x2="38.684" y2="-43.88"/>
		<line style="fill:none;stroke:#000000;stroke-width:0.3;" x1="41.434" y1="-40.572" x2="44.184" y2="-38.322"/>
		<line style="fill:none;stroke:#000000;stroke-width:0.3;" x1="37.309" y1="-36.947" x2="37.934" y2="-33.947"/>
		<line style="fill:none;stroke:#000000;stroke-width:0.3;" x1="33.059" y1="-36.947" x2="30.559" y2="-34.322"/>
		<line style="fill:none;stroke:#000000;stroke-width:0.3;" x1="44.059" y1="-33.947" x2="41.934" y2="-31.322"/>
		<line style="fill:none;stroke:#000000;stroke-width:0.3;" x1="40.559" y1="-27.572" x2="43.934" y2="-26.447"/>
		<line style="fill:none;stroke:#000000;stroke-width:0.3;" x1="36.605" y1="-30.941" x2="32.648" y2="-29.771"/>
		<line style="fill:none;stroke:#000000;stroke-width:0.3;" x1="32.809" y1="-26.822" x2="29.934" y2="-25.447"/>
		<line style="fill:none;stroke:#000000;stroke-width:0.3;" x1="36.809" y1="-25.697" x2="35.809" y2="-22.322"/>
		<line style="fill:none;stroke:#000000;stroke-width:0.3;" x1="41.559" y1="-22.572" x2="43.309" y2="-19.822"/>
		<line style="fill:none;stroke:#000000;stroke-width:0.3;" x1="43.559" y1="-15.197" x2="40.809" y2="-13.572"/>
		<line style="fill:none;stroke:#000000;stroke-width:0.3;" x1="39.059" y1="-17.947" x2="35.559" y2="-18.447"/>
		<line style="fill:none;stroke:#000000;stroke-width:0.3;" x1="40.434" y1="-8.947" x2="44.059" y2="-8.697"/>
		<line style="fill:none;stroke:#000000;stroke-width:0.3;" x1="39.812" y1="-5.435" x2="41.062" y2="-2.435"/>
		<line style="fill:none;stroke:#000000;stroke-width:0.3;" x1="7.809" y1="-41.322" x2="5.434" y2="-38.822"/>
		<line style="fill:none;stroke:#000000;stroke-width:0.3;" x1="5.309" y1="-34.947" x2="9.309" y2="-33.822"/>
		<line style="fill:none;stroke:#000000;stroke-width:0.3;" x1="4.309" y1="-31.197" x2="5.434" y2="-27.572"/>
		<line style="fill:none;stroke:#000000;stroke-width:0.3;" x1="6.059" y1="-24.572" x2="3.059" y2="-22.197"/>
		<line style="fill:none;stroke:#000000;stroke-width:0.3;" x1="6.067" y1="-18.914" x2="5.692" y2="-15.289"/>
		<line style="fill:none;stroke:#000000;stroke-width:0.3;" x1="3.309" y1="-12.072" x2="6.184" y2="-10.072"/>
		<line style="fill:none;stroke:#000000;stroke-width:0.3;" x1="3.684" y1="-6.322" x2="2.059" y2="-3.322"/>
		<line style="fill:none;stroke:#000000;stroke-width:0.3;" x1="1.934" y1="-43.697" x2="5.184" y2="-42.947"/>
		<line style="fill:none;stroke:#000000;stroke-width:0.3;" x1="10.142" y1="-2.093" x2="9.017" y2="-5.593"/>
		<line style="fill:none;stroke:#000000;stroke-width:0.3;" x1="15.163" y1="-3.884" x2="18.288" y2="-6.009"/>
		<line style="fill:none;stroke:#000000;stroke-width:0.3;" x1="10.184" y1="-9.947" x2="13.559" y2="-10.572"/>
		<line style="fill:none;stroke:#000000;stroke-width:0.3;" x1="14.184" y1="-17.197" x2="11.526" y2="-14.536"/>
		<line style="fill:none;stroke:#000000;stroke-width:0.3;" x1="8.309" y1="-19.938" x2="11.934" y2="-19.813"/>
		<line style="fill:none;stroke:#000000;stroke-width:0.3;" x1="12.434" y1="-30.447" x2="8.309" y2="-30.197"/>
		<line style="fill:none;stroke:#000000;stroke-width:0.3;" x1="12.934" y1="-27.322" x2="10.934" y2="-24.322"/>
		<line style="fill:none;stroke:#000000;stroke-width:0.3;" x1="15.934" y1="-23.697" x2="18.434" y2="-21.697"/>
		<line style="fill:none;stroke:#000000;stroke-width:0.3;" x1="15.934" y1="-31.322" x2="17.059" y2="-27.572"/>
		<line style="fill:none;stroke:#000000;stroke-width:0.3;" x1="19.809" y1="-32.322" x2="22.947" y2="-30.651"/>
		<line style="fill:none;stroke:#000000;stroke-width:0.3;" x1="27.892" y1="-31.461" x2="26.029" y2="-28.342"/>
		<line style="fill:none;stroke:#000000;stroke-width:0.3;" x1="21.372" y1="-28.631" x2="20.434" y2="-24.947"/>
		<line style="fill:none;stroke:#000000;stroke-width:0.3;" x1="23.559" y1="-22.697" x2="26.934" y2="-23.197"/>
		<line style="fill:none;stroke:#000000;stroke-width:0.3;" x1="29.684" y1="-21.822" x2="32.934" y2="-19.822"/>
		<line style="fill:none;stroke:#000000;stroke-width:0.3;" x1="31.559" y1="-15.472" x2="29.434" y2="-12.597"/>
		<line style="fill:none;stroke:#000000;stroke-width:0.3;" x1="36.559" y1="-10.072" x2="35.059" y2="-13.322"/>
		<line style="fill:none;stroke:#000000;stroke-width:0.3;" x1="33.079" y1="-3.259" x2="35.829" y2="-6.384"/>
		<line style="fill:none;stroke:#000000;stroke-width:0.3;" x1="31.934" y1="-8.597" x2="27.934" y2="-8.597"/>
		<line style="fill:none;stroke:#000000;stroke-width:0.3;" x1="28.038" y1="-2.884" x2="26.288" y2="-5.884"/>
		<line style="fill:none;stroke:#000000;stroke-width:0.3;" x1="21.3" y1="-4.213" x2="22.425" y2="-7.338"/>
		<line style="fill:none;stroke:#000000;stroke-width:0.3;" x1="21.913" y1="-13.343" x2="25.163" y2="-11.968"/>
		<line style="fill:none;stroke:#000000;stroke-width:0.3;" x1="25.554" y1="-15.526" x2="26.825" y2="-19.054"/>
		<line style="fill:none;stroke:#000000;stroke-width:0.3;" x1="21.434" y1="-19.697" x2="18.309" y2="-17.572"/>
		<line style="fill:none;stroke:#000000;stroke-width:0.3;" x1="16.559" y1="-13.697" x2="18.934" y2="-10.572"/>
		<line style="fill:none;stroke:#000000;stroke-width:0.3;" x1="53.992" y1="-36.855" x2="56.242" y2="-34.23"/>
		<line style="fill:none;stroke:#000000;stroke-width:0.3;" x1="54.117" y1="-40.605" x2="57.492" y2="-40.48"/>
		<line style="fill:none;stroke:#000000;stroke-width:0.3;" x1="64.992" y1="-37.418" x2="67.68" y2="-35.373"/>
		<line style="fill:none;stroke:#000000;stroke-width:0.3;" x1="61.492" y1="-38.48" x2="59.367" y2="-35.73"/>
		<line style="fill:none;stroke:#000000;stroke-width:0.3;" x1="63.117" y1="-42.364" x2="60.367" y2="-44.114"/>
		<line style="fill:none;stroke:#000000;stroke-width:0.3;" x1="68.367" y1="-43.98" x2="66.117" y2="-42.48"/>
		<line style="fill:none;stroke:#000000;stroke-width:0.3;" x1="71.628" y1="-40.219" x2="70.117" y2="-37.48"/>
		<line style="fill:none;stroke:#000000;stroke-width:0.3;" x1="73.367" y1="-43.172" x2="75.867" y2="-41.922"/>
		<line style="fill:none;stroke:#000000;stroke-width:0.3;" x1="79.742" y1="-41.539" x2="81.742" y2="-43.914"/>
		<line style="fill:none;stroke:#000000;stroke-width:0.3;" x1="84.492" y1="-40.605" x2="87.242" y2="-38.355"/>
		<line style="fill:none;stroke:#000000;stroke-width:0.3;" x1="80.367" y1="-36.98" x2="80.992" y2="-33.98"/>
		<line style="fill:none;stroke:#000000;stroke-width:0.3;" x1="76.117" y1="-36.98" x2="73.617" y2="-34.355"/>
		<line style="fill:none;stroke:#000000;stroke-width:0.3;" x1="87.117" y1="-33.98" x2="84.992" y2="-31.355"/>
		<line style="fill:none;stroke:#000000;stroke-width:0.3;" x1="83.617" y1="-27.605" x2="86.992" y2="-26.48"/>
		<line style="fill:none;stroke:#000000;stroke-width:0.3;" x1="79.742" y1="-30.355" x2="75.617" y2="-30.48"/>
		<line style="fill:none;stroke:#000000;stroke-width:0.3;" x1="75.867" y1="-26.855" x2="72.992" y2="-25.48"/>
		<line style="fill:none;stroke:#000000;stroke-width:0.3;" x1="79.867" y1="-25.73" x2="78.867" y2="-22.355"/>
		<line style="fill:none;stroke:#000000;stroke-width:0.3;" x1="84.617" y1="-22.605" x2="86.367" y2="-19.855"/>
		<line style="fill:none;stroke:#000000;stroke-width:0.3;" x1="86.617" y1="-15.231" x2="83.867" y2="-13.606"/>
		<line style="fill:none;stroke:#000000;stroke-width:0.3;" x1="82.117" y1="-17.98" x2="78.617" y2="-18.48"/>
		<line style="fill:none;stroke:#000000;stroke-width:0.3;" x1="83.492" y1="-8.981" x2="87.117" y2="-8.731"/>
		<line style="fill:none;stroke:#000000;stroke-width:0.3;" x1="83.079" y1="-5.635" x2="84.329" y2="-2.635"/>
		<line style="fill:none;stroke:#000000;stroke-width:0.3;" x1="50.867" y1="-41.355" x2="48.492" y2="-38.855"/>
		<line style="fill:none;stroke:#000000;stroke-width:0.3;" x1="48.367" y1="-34.98" x2="52.367" y2="-33.855"/>
		<line style="fill:none;stroke:#000000;stroke-width:0.3;" x1="47.367" y1="-31.23" x2="48.492" y2="-27.605"/>
		<line style="fill:none;stroke:#000000;stroke-width:0.3;" x1="49.117" y1="-24.605" x2="46.117" y2="-22.23"/>
		<line style="fill:none;stroke:#000000;stroke-width:0.3;" x1="49.126" y1="-18.947" x2="48.751" y2="-15.322"/>
		<line style="fill:none;stroke:#000000;stroke-width:0.3;" x1="46.367" y1="-12.106" x2="49.242" y2="-10.106"/>
		<line style="fill:none;stroke:#000000;stroke-width:0.3;" x1="46.742" y1="-6.356" x2="45.117" y2="-3.355"/>
		<line style="fill:none;stroke:#000000;stroke-width:0.3;" x1="44.992" y1="-43.73" x2="48.242" y2="-42.98"/>
		<line style="fill:none;stroke:#000000;stroke-width:0.3;" x1="53.242" y1="-2.21" x2="52.117" y2="-5.709"/>
		<line style="fill:none;stroke:#000000;stroke-width:0.3;" x1="58.055" y1="-3.022" x2="61.18" y2="-5.147"/>
		<line style="fill:none;stroke:#000000;stroke-width:0.3;" x1="53.242" y1="-9.981" x2="56.617" y2="-10.606"/>
		<line style="fill:none;stroke:#000000;stroke-width:0.3;" x1="56.392" y1="-17.23" x2="53.646" y2="-14.661"/>
		<line style="fill:none;stroke:#000000;stroke-width:0.3;" x1="51.367" y1="-21.105" x2="54.992" y2="-20.98"/>
		<line style="fill:none;stroke:#000000;stroke-width:0.3;" x1="55.492" y1="-30.48" x2="51.367" y2="-30.23"/>
		<line style="fill:none;stroke:#000000;stroke-width:0.3;" x1="55.992" y1="-27.355" x2="53.992" y2="-24.355"/>
		<line style="fill:none;stroke:#000000;stroke-width:0.3;" x1="58.992" y1="-23.73" x2="61.492" y2="-21.73"/>
		<line style="fill:none;stroke:#000000;stroke-width:0.3;" x1="58.992" y1="-31.355" x2="60.117" y2="-27.605"/>
		<line style="fill:none;stroke:#000000;stroke-width:0.3;" x1="62.867" y1="-32.355" x2="66.367" y2="-31.73"/>
		<line style="fill:none;stroke:#000000;stroke-width:0.3;" x1="69.894" y1="-32.337" x2="70.937" y2="-28.856"/>
		<line style="fill:none;stroke:#000000;stroke-width:0.3;" x1="66.117" y1="-27.73" x2="63.492" y2="-24.98"/>
		<line style="fill:none;stroke:#000000;stroke-width:0.3;" x1="66.617" y1="-22.73" x2="69.992" y2="-23.23"/>
		<line style="fill:none;stroke:#000000;stroke-width:0.3;" x1="72.742" y1="-21.855" x2="75.992" y2="-19.855"/>
		<line style="fill:none;stroke:#000000;stroke-width:0.3;" x1="74.617" y1="-16.355" x2="72.492" y2="-13.481"/>
		<line style="fill:none;stroke:#000000;stroke-width:0.3;" x1="79.617" y1="-10.106" x2="78.117" y2="-13.356"/>
		<line style="fill:none;stroke:#000000;stroke-width:0.3;" x1="76.076" y1="-3.772" x2="78.826" y2="-6.897"/>
		<line style="fill:none;stroke:#000000;stroke-width:0.3;" x1="74.761" y1="-8.573" x2="71.224" y2="-10.44"/>
		<line style="fill:none;stroke:#000000;stroke-width:0.3;" x1="71.076" y1="-2.251" x2="69.326" y2="-5.251"/>
		<line style="fill:none;stroke:#000000;stroke-width:0.3;" x1="64.867" y1="-5.856" x2="65.992" y2="-8.981"/>
		<line style="fill:none;stroke:#000000;stroke-width:0.3;" x1="64.617" y1="-14.606" x2="67.867" y2="-13.231"/>
		<line style="fill:none;stroke:#000000;stroke-width:0.3;" x1="67.419" y1="-16.525" x2="70.766" y2="-18.215"/>
		<line style="fill:none;stroke:#000000;stroke-width:0.3;" x1="64.492" y1="-19.73" x2="61.367" y2="-17.605"/>
		<line style="fill:none;stroke:#000000;stroke-width:0.3;" x1="59.701" y1="-12.522" x2="62.076" y2="-9.397"/>
	</g>
</svg>
