<?xml version="1.0" encoding="utf-8"?>
<svg xmlns="http://www.w3.org/2000/svg" version="1.1" x="0px" y="0px" xml:space="preserve" width="74.285" height="74.286" viewBox="0 -74.286 74.285 74.286">
	<g>
		<rect x="0" y="-74.286" style="fill:none;" width="74.285" height="74.286"/>

			<line style="fill-rule:evenodd;clip-rule:evenodd;fill:none;stroke:#EC008C;stroke-width:0.43;" x1="2.041" y1="-74.286" x2="2.041" y2="0"/>

			<line style="fill-rule:evenodd;clip-rule:evenodd;fill:none;stroke:#EC008C;stroke-width:0.7;" x1="6.166" y1="-74.286" x2="6.166" y2="0"/>

			<line style="fill-rule:evenodd;clip-rule:evenodd;fill:none;stroke:#EC008C;stroke-width:0.43;" x1="10.291" y1="-74.286" x2="10.291" y2="0"/>

			<line style="fill-rule:evenodd;clip-rule:evenodd;fill:none;stroke:#EC008C;stroke-width:0.7;" x1="14.416" y1="-74.286" x2="14.416" y2="0"/>

			<line style="fill-rule:evenodd;clip-rule:evenodd;fill:none;stroke:#EC008C;stroke-width:0.43;" x1="18.541" y1="-74.286" x2="18.541" y2="0"/>

			<line style="fill-rule:evenodd;clip-rule:evenodd;fill:none;stroke:#EC008C;stroke-width:0.7;" x1="22.666" y1="-74.286" x2="22.666" y2="0"/>

			<line style="fill-rule:evenodd;clip-rule:evenodd;fill:none;stroke:#EC008C;stroke-width:0.43;" x1="26.791" y1="-74.286" x2="26.791" y2="0"/>

			<line style="fill-rule:evenodd;clip-rule:evenodd;fill:none;stroke:#EC008C;stroke-width:0.7;" x1="30.916" y1="-74.286" x2="30.916" y2="0"/>

			<line style="fill-rule:evenodd;clip-rule:evenodd;fill:none;stroke:#EC008C;stroke-width:0.43;" x1="35.041" y1="-74.286" x2="35.041" y2="0"/>

			<line style="fill-rule:evenodd;clip-rule:evenodd;fill:none;stroke:#EC008C;stroke-width:0.7;" x1="39.166" y1="-74.286" x2="39.166" y2="0"/>

			<line style="fill-rule:evenodd;clip-rule:evenodd;fill:none;stroke:#EC008C;stroke-width:0.43;" x1="43.291" y1="-74.286" x2="43.291" y2="0"/>

			<line style="fill-rule:evenodd;clip-rule:evenodd;fill:none;stroke:#EC008C;stroke-width:0.7;" x1="47.416" y1="-74.286" x2="47.416" y2="0"/>

			<line style="fill-rule:evenodd;clip-rule:evenodd;fill:none;stroke:#EC008C;stroke-width:0.43;" x1="51.541" y1="-74.286" x2="51.541" y2="0"/>

			<line style="fill-rule:evenodd;clip-rule:evenodd;fill:none;stroke:#EC008C;stroke-width:0.7;" x1="55.666" y1="-74.286" x2="55.666" y2="0"/>

			<line style="fill-rule:evenodd;clip-rule:evenodd;fill:none;stroke:#EC008C;stroke-width:0.43;" x1="59.791" y1="-74.286" x2="59.791" y2="0"/>

			<line style="fill-rule:evenodd;clip-rule:evenodd;fill:none;stroke:#EC008C;stroke-width:0.7;" x1="63.916" y1="-74.286" x2="63.916" y2="0"/>

			<line style="fill-rule:evenodd;clip-rule:evenodd;fill:none;stroke:#EC008C;stroke-width:0.43;" x1="68.041" y1="-74.286" x2="68.041" y2="0"/>

			<line style="fill-rule:evenodd;clip-rule:evenodd;fill:none;stroke:#EC008C;stroke-width:0.7;" x1="72.166" y1="-74.286" x2="72.166" y2="0"/>
	</g>
</svg>
