<?xml version="1.0" encoding="utf-8"?>
<svg xmlns="http://www.w3.org/2000/svg" version="1.1" x="0px" y="0px" xml:space="preserve" width="17.794" height="17.795" viewBox="1.141 -18.848 17.794 17.795">
	<g>
		<rect x="1.141" y="-18.848" style="fill:none;" width="17.794" height="17.795"/>
		<line style="fill:none;stroke:#000000;stroke-width:0.45;" x1="16.675" y1="-17.684" x2="17.96" y2="-16.033"/>
		<line style="fill:none;stroke:#000000;stroke-width:0.45;" x1="17.938" y1="-16.049" x2="18.924" y2="-17.924"/>
		<line style="fill:none;stroke:#000000;stroke-width:0.45;" x1="5.699" y1="-16.918" x2="4.783" y2="-18.8"/>
		<line style="fill:none;stroke:#000000;stroke-width:0.45;" x1="4.801" y1="-18.779" x2="3.45" y2="-17.148"/>
		<line style="fill:none;stroke:#000000;stroke-width:0.45;" x1="2.829" y1="-4.366" x2="4.872" y2="-4.815"/>
		<line style="fill:none;stroke:#000000;stroke-width:0.45;" x1="4.849" y1="-4.804" x2="3.58" y2="-6.499"/>
		<line style="fill:none;stroke:#000000;stroke-width:0.45;" x1="4.145" y1="-11.317" x2="2.841" y2="-12.953"/>
		<line style="fill:none;stroke:#000000;stroke-width:0.45;" x1="2.863" y1="-12.939" x2="1.9" y2="-11.053"/>
		<line style="fill:none;stroke:#000000;stroke-width:0.45;" x1="7.401" y1="-12.394" x2="9.493" y2="-12.377"/>
		<line style="fill:none;stroke:#000000;stroke-width:0.45;" x1="9.467" y1="-12.37" x2="8.607" y2="-14.307"/>
		<line style="fill:none;stroke:#000000;stroke-width:0.45;" x1="15.137" y1="-1.899" x2="16.508" y2="-3.48"/>
		<line style="fill:none;stroke:#000000;stroke-width:0.45;" x1="16.497" y1="-3.455" x2="14.468" y2="-4.06"/>
		<line style="fill:none;stroke:#000000;stroke-width:0.45;" x1="11.836" y1="-17.833" x2="11.44" y2="-15.779"/>
		<line style="fill:none;stroke:#000000;stroke-width:0.45;" x1="11.438" y1="-15.807" x2="13.497" y2="-16.301"/>
		<line style="fill:none;stroke:#000000;stroke-width:0.45;" x1="14.458" y1="-11.829" x2="15.645" y2="-13.553"/>
		<line style="fill:none;stroke:#000000;stroke-width:0.45;" x1="15.636" y1="-13.526" x2="13.553" y2="-13.901"/>
		<line style="fill:none;stroke:#000000;stroke-width:0.45;" x1="9.282" y1="-4.086" x2="8.418" y2="-2.182"/>
		<line style="fill:none;stroke:#000000;stroke-width:0.45;" x1="8.422" y1="-2.207" x2="10.54" y2="-2.207"/>
		<line style="fill:none;stroke:#000000;stroke-width:0.45;" x1="9.075" y1="-8.939" x2="6.989" y2="-9.102"/>
		<line style="fill:none;stroke:#000000;stroke-width:0.45;" x1="7.015" y1="-9.106" x2="7.737" y2="-7.115"/>
		<line style="fill:none;stroke:#000000;stroke-width:0.45;" x1="17.626" y1="-9.043" x2="16.762" y2="-7.139"/>
		<line style="fill:none;stroke:#000000;stroke-width:0.45;" x1="16.766" y1="-7.164" x2="18.883" y2="-7.164"/>
		<line style="fill:none;stroke:#000000;stroke-width:0.45;" x1="13.494" y1="-6.497" x2="13.55" y2="-8.589"/>
		<line style="fill:none;stroke:#000000;stroke-width:0.45;" x1="13.557" y1="-8.562" x2="11.607" y2="-7.74"/>
	</g>
</svg>
