<?xml version="1.0" encoding="utf-8"?>
<svg xmlns="http://www.w3.org/2000/svg" version="1.1" x="0px" y="0px" xml:space="preserve" width="28.975" height="28.976" viewBox="2.16 -31.136 28.975 28.976">
	<g>
		<rect x="2.16" y="-31.136" style="fill:none;" width="28.975" height="28.976"/>
		<rect x="2.16" y="-31.136" width="28.975" height="28.976"/>

			<line style="fill:none;stroke:#FFFFFF;stroke-width:0.8;stroke-linecap:round;" x1="21.317" y1="-8.111" x2="21.317" y2="-8.111"/>
		<line style="fill:none;stroke:#FFFFFF;stroke-width:0.8;stroke-linecap:round;" x1="16.82" y1="-7.151" x2="16.82" y2="-7.151"/>
		<line style="fill:none;stroke:#FFFFFF;stroke-width:0.8;stroke-linecap:round;" x1="9.648" y1="-5.255" x2="9.648" y2="-5.255"/>
		<line style="fill:none;stroke:#FFFFFF;stroke-width:0.8;stroke-linecap:round;" x1="3.54" y1="-4.059" x2="3.54" y2="-4.059"/>

			<line style="fill:none;stroke:#FFFFFF;stroke-width:0.8;stroke-linecap:round;" x1="15.095" y1="-14.578" x2="15.095" y2="-14.578"/>

			<line style="fill:none;stroke:#FFFFFF;stroke-width:0.8;stroke-linecap:round;" x1="14.233" y1="-9.749" x2="14.233" y2="-9.749"/>

			<line style="fill:none;stroke:#FFFFFF;stroke-width:0.8;stroke-linecap:round;" x1="23.201" y1="-24.236" x2="23.201" y2="-24.236"/>

			<line style="fill:none;stroke:#FFFFFF;stroke-width:0.8;stroke-linecap:round;" x1="24.619" y1="-8.665" x2="24.619" y2="-8.665"/>

			<line style="fill:none;stroke:#FFFFFF;stroke-width:0.8;stroke-linecap:round;" x1="22.856" y1="-11.475" x2="22.856" y2="-11.475"/>

			<line style="fill:none;stroke:#FFFFFF;stroke-width:0.8;stroke-linecap:round;" x1="23.546" y1="-4.576" x2="23.546" y2="-4.576"/>

			<line style="fill:none;stroke:#FFFFFF;stroke-width:0.8;stroke-linecap:round;" x1="20.224" y1="-5.447" x2="20.224" y2="-5.447"/>

			<line style="fill:none;stroke:#FFFFFF;stroke-width:0.8;stroke-linecap:round;" x1="27.304" y1="-3.026" x2="27.304" y2="-3.026"/>

			<line style="fill:none;stroke:#FFFFFF;stroke-width:0.8;stroke-linecap:round;" x1="16.179" y1="-3.594" x2="16.179" y2="-3.594"/>
		<line style="fill:none;stroke:#FFFFFF;stroke-width:0.8;stroke-linecap:round;" x1="11.89" y1="-2.833" x2="11.89" y2="-2.833"/>

			<line style="fill:none;stroke:#FFFFFF;stroke-width:0.8;stroke-linecap:round;" x1="19.334" y1="-23.13" x2="19.334" y2="-23.13"/>

			<line style="fill:none;stroke:#FFFFFF;stroke-width:0.8;stroke-linecap:round;" x1="21.821" y1="-30.101" x2="21.821" y2="-30.101"/>

			<line style="fill:none;stroke:#FFFFFF;stroke-width:0.8;stroke-linecap:round;" x1="17.337" y1="-26.996" x2="17.337" y2="-26.996"/>

			<line style="fill:none;stroke:#FFFFFF;stroke-width:0.8;stroke-linecap:round;" x1="14.873" y1="-29.594" x2="14.873" y2="-29.594"/>

			<line style="fill:none;stroke:#FFFFFF;stroke-width:0.8;stroke-linecap:round;" x1="12.569" y1="-27.291" x2="12.569" y2="-27.291"/>

			<line style="fill:none;stroke:#FFFFFF;stroke-width:0.8;stroke-linecap:round;" x1="27.857" y1="-13.026" x2="27.857" y2="-13.026"/>

			<line style="fill:none;stroke:#FFFFFF;stroke-width:0.8;stroke-linecap:round;" x1="28.559" y1="-8.481" x2="28.559" y2="-8.481"/>

			<line style="fill:none;stroke:#FFFFFF;stroke-width:0.8;stroke-linecap:round;" x1="21.648" y1="-16.821" x2="21.648" y2="-16.821"/>

			<line style="fill:none;stroke:#FFFFFF;stroke-width:0.8;stroke-linecap:round;" x1="26.684" y1="-17.683" x2="26.684" y2="-17.683"/>

			<line style="fill:none;stroke:#FFFFFF;stroke-width:0.8;stroke-linecap:round;" x1="29.065" y1="-25.616" x2="29.065" y2="-25.616"/>

			<line style="fill:none;stroke:#FFFFFF;stroke-width:0.8;stroke-linecap:round;" x1="26.65" y1="-20.614" x2="26.65" y2="-20.614"/>

			<line style="fill:none;stroke:#FFFFFF;stroke-width:0.8;stroke-linecap:round;" x1="17.165" y1="-17.683" x2="17.165" y2="-17.683"/>

			<line style="fill:none;stroke:#FFFFFF;stroke-width:0.8;stroke-linecap:round;" x1="19.741" y1="-11.67" x2="19.741" y2="-11.67"/>

			<line style="fill:none;stroke:#FFFFFF;stroke-width:0.8;stroke-linecap:round;" x1="29.754" y1="-29.583" x2="29.754" y2="-29.583"/>
		<line style="fill:none;stroke:#FFFFFF;stroke-width:0.8;stroke-linecap:round;" x1="5.602" y1="-7.372" x2="5.602" y2="-7.372"/>

			<line style="fill:none;stroke:#FFFFFF;stroke-width:0.8;stroke-linecap:round;" x1="3.601" y1="-17.933" x2="3.601" y2="-17.933"/>

			<line style="fill:none;stroke:#FFFFFF;stroke-width:0.8;stroke-linecap:round;" x1="2.835" y1="-13.582" x2="2.835" y2="-13.582"/>

			<line style="fill:none;stroke:#FFFFFF;stroke-width:0.8;stroke-linecap:round;" x1="3.885" y1="-24.409" x2="3.885" y2="-24.409"/>
		<line style="fill:none;stroke:#FFFFFF;stroke-width:0.8;stroke-linecap:round;" x1="9.755" y1="-9.061" x2="9.755" y2="-9.061"/>

			<line style="fill:none;stroke:#FFFFFF;stroke-width:0.8;stroke-linecap:round;" x1="6.295" y1="-11.498" x2="6.295" y2="-11.498"/>

			<line style="fill:none;stroke:#FFFFFF;stroke-width:0.8;stroke-linecap:round;" x1="10.439" y1="-14.061" x2="10.439" y2="-14.061"/>

			<line style="fill:none;stroke:#FFFFFF;stroke-width:0.8;stroke-linecap:round;" x1="7.112" y1="-19.124" x2="7.112" y2="-19.124"/>

			<line style="fill:none;stroke:#FFFFFF;stroke-width:0.8;stroke-linecap:round;" x1="5.782" y1="-29.756" x2="5.782" y2="-29.756"/>

			<line style="fill:none;stroke:#FFFFFF;stroke-width:0.8;stroke-linecap:round;" x1="15.467" y1="-23.29" x2="15.467" y2="-23.29"/>
		<line style="fill:none;stroke:#FFFFFF;stroke-width:0.8;stroke-linecap:round;" x1="8.95" y1="-24.597" x2="8.95" y2="-24.597"/>
		<line style="fill:none;stroke:#FFFFFF;stroke-width:0.8;stroke-linecap:round;" x1="9.62" y1="-21.876" x2="9.62" y2="-21.876"/>

			<line style="fill:none;stroke:#FFFFFF;stroke-width:0.8;stroke-linecap:round;" x1="12.217" y1="-18.852" x2="12.217" y2="-18.852"/>

			<line style="fill:none;stroke:#FFFFFF;stroke-width:0.58;stroke-linecap:round;" x1="24.408" y1="-13.372" x2="26.478" y2="-15.613"/>

			<line style="fill:none;stroke:#FFFFFF;stroke-width:0.58;stroke-linecap:round;" x1="21.224" y1="-13.102" x2="18.027" y2="-14.578"/>

			<line style="fill:none;stroke:#FFFFFF;stroke-width:0.58;stroke-linecap:round;" x1="17.918" y1="-10.498" x2="19.178" y2="-7.679"/>
		<line style="fill:none;stroke:#FFFFFF;stroke-width:0.58;stroke-linecap:round;" x1="25.167" y1="-7.183" x2="28.507" y2="-4.5"/>

			<line style="fill:none;stroke:#FFFFFF;stroke-width:0.58;stroke-linecap:round;" x1="27.19" y1="-10.035" x2="30.229" y2="-11.398"/>

			<line style="fill:none;stroke:#FFFFFF;stroke-width:0.58;stroke-linecap:round;" x1="6.817" y1="-9.405" x2="3.368" y2="-10.268"/>
		<line style="fill:none;stroke:#FFFFFF;stroke-width:0.58;stroke-linecap:round;" x1="8.434" y1="-6.656" x2="6.472" y2="-3.541"/>

			<line style="fill:none;stroke:#FFFFFF;stroke-width:0.58;stroke-linecap:round;" x1="12.163" y1="-7.507" x2="14.922" y2="-4.92"/>

			<line style="fill:none;stroke:#FFFFFF;stroke-width:0.58;stroke-linecap:round;" x1="11.299" y1="-11.056" x2="14.233" y2="-12.854"/>

			<line style="fill:none;stroke:#FFFFFF;stroke-width:0.58;stroke-linecap:round;" x1="8.229" y1="-12.386" x2="6.989" y2="-15.613"/>

			<line style="fill:none;stroke:#FFFFFF;stroke-width:0.58;stroke-linecap:round;" x1="21.994" y1="-21.994" x2="19.898" y2="-19.397"/>

			<line style="fill:none;stroke:#FFFFFF;stroke-width:0.58;stroke-linecap:round;" x1="24.601" y1="-22.413" x2="24.081" y2="-18.738"/>

			<line style="fill:none;stroke:#FFFFFF;stroke-width:0.58;stroke-linecap:round;" x1="27.204" y1="-22.993" x2="30.145" y2="-22.825"/>

			<line style="fill:none;stroke:#FFFFFF;stroke-width:0.58;stroke-linecap:round;" x1="24.499" y1="-26.711" x2="25.429" y2="-30.114"/>

			<line style="fill:none;stroke:#FFFFFF;stroke-width:0.58;stroke-linecap:round;" x1="21.921" y1="-25.519" x2="19.787" y2="-27.724"/>

			<line style="fill:none;stroke:#FFFFFF;stroke-width:0.58;stroke-linecap:round;" x1="7.068" y1="-25.226" x2="4.443" y2="-27.624"/>

			<line style="fill:none;stroke:#FFFFFF;stroke-width:0.58;stroke-linecap:round;" x1="6.797" y1="-22.106" x2="3.975" y2="-20.231"/>

			<line style="fill:none;stroke:#FFFFFF;stroke-width:0.58;stroke-linecap:round;" x1="9.748" y1="-18.201" x2="12.335" y2="-15.959"/>

			<line style="fill:none;stroke:#FFFFFF;stroke-width:0.58;stroke-linecap:round;" x1="9.581" y1="-26.61" x2="10.171" y2="-30.605"/>

			<line style="fill:none;stroke:#FFFFFF;stroke-width:0.58;stroke-linecap:round;" x1="12.335" y1="-23.892" x2="15.268" y2="-25.271"/>

			<line style="fill:none;stroke:#FFFFFF;stroke-width:0.58;stroke-linecap:round;" x1="14.982" y1="-18.218" x2="16.456" y2="-21.617"/>

			<line style="fill:none;stroke:#FFFFFF;stroke-width:0.8;stroke-linecap:round;" x1="26.679" y1="-28.094" x2="26.679" y2="-28.094"/>

			<line style="fill:none;stroke:#FFFFFF;stroke-width:0.8;stroke-linecap:round;" x1="30.708" y1="-6.156" x2="30.708" y2="-6.156"/>

			<line style="fill:none;stroke:#FFFFFF;stroke-width:0.8;stroke-linecap:round;" x1="30.175" y1="-20.023" x2="30.175" y2="-20.023"/>
		<line style="fill:none;stroke:#FFFFFF;stroke-width:0.58;stroke-linecap:round;" x1="20.074" y1="-3.853" x2="18.56" y2="-2.16"/>

			<line style="fill:none;stroke:#FFFFFF;stroke-width:0.58;stroke-linecap:round;" x1="3.966" y1="-15.431" x2="2.16" y2="-16.375"/>

			<line style="fill:none;stroke:#FFFFFF;stroke-width:0.58;stroke-linecap:round;" x1="31.134" y1="-16.363" x2="29.221" y2="-17.363"/>

			<line style="fill:none;stroke:#FFFFFF;stroke-width:0.58;stroke-linecap:round;" x1="17.552" y1="-30.033" x2="18.538" y2="-31.136"/>
	</g>
</svg>
