<?xml version="1.0" encoding="utf-8"?>
<svg xmlns="http://www.w3.org/2000/svg" version="1.1" x="0px" y="0px" xml:space="preserve" width="7.924" height="7.924" viewBox="0 -7.924 7.924 7.924">
	<g>
		<rect x="0" y="-7.924" style="fill:none;" width="7.924" height="7.924"/>
		<circle style="fill:#ED1B2E;" cx="4.163" cy="-6.413" r="0.82"/>
		<circle style="fill:#ED1B2E;" cx="5.687" cy="-3.913" r="0.82"/>
		<circle style="fill:#ED1B2E;" cx="2.581" cy="-3.913" r="0.82"/>
		<circle style="fill:#ED1B2E;" cx="4.163" cy="-1.413" r="0.82"/>
		<path style="fill:#ED1B2E;" d="M0-6.217v1.64c0.007,0,0.015,0,0.023,0c0.453,0,0.82-0.367,0.82-0.82c0-0.453-0.367-0.82-0.82-0.82    C0.015-6.217,0.007-6.217,0-6.217z"/>
		<path style="fill:#ED1B2E;" d="M7.924-4.578v-1.639C7.488-6.198,7.14-5.838,7.14-5.397S7.488-4.596,7.924-4.578z"/>
		<path style="fill:#ED1B2E;" d="M0-3.248v1.64c0.007,0,0.015,0,0.023,0c0.453,0,0.82-0.367,0.82-0.82s-0.367-0.82-0.82-0.82    C0.015-3.249,0.007-3.248,0-3.248z"/>
		<path style="fill:#ED1B2E;" d="M7.561-7.924h-1.64c0,0.009-0.001,0.018-0.001,0.027c0,0.453,0.367,0.82,0.82,0.82    s0.82-0.367,0.82-0.82C7.562-7.906,7.561-7.915,7.561-7.924z"/>
		<path style="fill:#ED1B2E;" d="M7.924-1.609v-1.639C7.488-3.229,7.14-2.87,7.14-2.428S7.488-1.627,7.924-1.609z"/>
		<path style="fill:#ED1B2E;" d="M0.785,0h1.639c-0.021-0.434-0.38-0.78-0.819-0.78C1.165-0.78,0.806-0.434,0.785,0z"/>
		<path style="fill:#ED1B2E;" d="M5.922,0h1.639C7.54-0.434,7.181-0.78,6.741-0.78C6.302-0.78,5.943-0.434,5.922,0z"/>
		<path style="fill:#ED1B2E;" d="M0.785-7.924c0,0.009,0,0.018,0,0.027c0,0.453,0.367,0.82,0.82,0.82s0.82-0.367,0.82-0.82    c0-0.009,0-0.018,0-0.027H0.785z"/>
		<rect x="0" y="-7.924" style="fill:none;" width="7.924" height="7.924"/>
	</g>
</svg>
