<?xml version="1.0" encoding="utf-8"?>
<svg xmlns="http://www.w3.org/2000/svg" version="1.1" x="0px" y="0px" xml:space="preserve" width="10.312" height="10.312" viewBox="0 -10.562 10.312 10.312">
	<g>
		<rect y="-10.562" style="fill:none;" width="10.312" height="10.312"/>
		<line style="fill:none;stroke:#000000;stroke-width:0.5;" x1="1.781" y1="-7.125" x2="0" y2="-7.125"/>
		<line style="fill:none;stroke:#000000;stroke-width:0.5;" x1="3.468" y1="-1.969" x2="1.781" y2="-0.25"/>
		<line style="fill:none;stroke:#000000;stroke-width:0.5;" x1="1.781" y1="-3.688" x2="0" y2="-3.688"/>
		<line style="fill:none;stroke:#000000;stroke-width:0.5;" x1="1.781" y1="-7.125" x2="3.468" y2="-5.406"/>
		<line style="fill:none;stroke:#000000;stroke-width:0.5;" x1="3.468" y1="-8.844" x2="1.781" y2="-7.125"/>
		<line style="fill:none;stroke:#000000;stroke-width:0.5;" x1="3.468" y1="-8.844" x2="1.781" y2="-10.562"/>
		<line style="fill:none;stroke:#000000;stroke-width:0.5;" x1="3.468" y1="-8.844" x2="6.968" y2="-8.844"/>
		<line style="fill:none;stroke:#000000;stroke-width:0.5;" x1="6.968" y1="-1.969" x2="3.468" y2="-1.969"/>
		<line style="fill:none;stroke:#000000;stroke-width:0.5;" x1="3.468" y1="-5.406" x2="1.781" y2="-3.688"/>
		<line style="fill:none;stroke:#000000;stroke-width:0.5;" x1="1.781" y1="-3.688" x2="3.468" y2="-1.969"/>
		<line style="fill:none;stroke:#000000;stroke-width:0.5;" x1="3.468" y1="-5.406" x2="6.968" y2="-5.406"/>
		<line style="fill:none;stroke:#000000;stroke-width:0.5;" x1="6.968" y1="-5.406" x2="8.656" y2="-7.125"/>
		<line style="fill:none;stroke:#000000;stroke-width:0.5;" x1="6.968" y1="-5.406" x2="8.656" y2="-3.688"/>
		<line style="fill:none;stroke:#000000;stroke-width:0.5;" x1="6.968" y1="-8.844" x2="8.656" y2="-7.125"/>
		<line style="fill:none;stroke:#000000;stroke-width:0.5;" x1="6.968" y1="-8.844" x2="8.656" y2="-10.562"/>
		<line style="fill:none;stroke:#000000;stroke-width:0.5;" x1="10.312" y1="-7.125" x2="8.656" y2="-7.125"/>
		<line style="fill:none;stroke:#000000;stroke-width:0.5;" x1="6.968" y1="-1.969" x2="8.656" y2="-0.25"/>
		<line style="fill:none;stroke:#000000;stroke-width:0.5;" x1="6.968" y1="-1.969" x2="8.656" y2="-3.688"/>
		<line style="fill:none;stroke:#000000;stroke-width:0.5;" x1="8.656" y1="-3.688" x2="10.312" y2="-3.688"/>
		<line style="fill:none;stroke:#000000;stroke-width:0.5;" x1="0" y1="-10.562" x2="1.781" y2="-10.562"/>
		<line style="fill:none;stroke:#000000;stroke-width:0.5;" x1="0" y1="-0.25" x2="1.781" y2="-0.25"/>
		<line style="fill:none;stroke:#000000;stroke-width:0.5;" x1="10.312" y1="-10.562" x2="8.656" y2="-10.562"/>
		<line style="fill:none;stroke:#000000;stroke-width:0.5;" x1="8.656" y1="-0.25" x2="10.312" y2="-0.25"/>
	</g>
</svg>
