<?xml version="1.0" encoding="utf-8"?>
<svg xmlns="http://www.w3.org/2000/svg" version="1.1" x="0px" y="0px" xml:space="preserve" width="54.5" height="54.5" viewBox="3.163 -56.1 54.5 54.5">
	<g>
		<rect x="3.163" y="-56.1" style="fill:none;" width="54.5" height="54.5"/>
		<path style="fill:none;stroke:#000000;stroke-width:0.3;stroke-linecap:square;" d="M54.426-1.608    c0.047-0.094,0.102-0.252,0.15-0.365c0.591-1.398,1.258-4.193,1.836-6.043c0.625-2-1.062-2.75-2.875-3.688s-2.25-0.875-4.375-1.5    c-3.243-0.954-3.812-4.083-6.75-4.646s-6.125-3-6.25-4.812s3.125-2.938,5-3.25s3.438-0.75,1.938-0.938s-2.5-0.438-4.688-1.188    c-2.284-0.783-0.333-1.854-6.333-2.479s-7.167-5.834-6.563-7.25c0.746-1.748,3.25-2.25,6.062-2.5s2.896-0.896,6.083-1.458    s2.875-1.375,0.688-1.25s-3.062,0.482-10.75-2.812c-2.188-0.938-3.099-1.15-5.021-1.896c-3.062-1.188-6.886-1.98-7.167-3.667    c-0.166-1,1.5-2.167,7.5-1.333c6,0.833,8.5-1,13.167-1.333c4.667-0.333,12.333-0.211,14.333-0.167    c0.938,0.021,3.188-0.083,4.021-1.917"/>
		<path d="M38.6-42.975c-3.437,0.078,14.375-2.75,14.812-2.25s-0.188,1.25-1.688,1.562S39.85-42.1,38.225-41.85    S41.35-43.038,38.6-42.975z"/>
		<path d="M52.017-49.059c-2.17,1.654-3.812,0.625-9.25,0.75s-12-0.438-7.188-1.438s7.125-1.188,10-0.75    S53.329-50.059,52.017-49.059z"/>
		<path d="M42.288-26.975c-2.667-0.381,6,0.438,8.312,0.25s3.188-0.438,3.188,0.062s-1.812,0.938-4,0.812s-5.938-0.688-6.812-0.5    S42.725-26.913,42.288-26.975z"/>
		<path d="M40.1-34.975c2.346,1.613,4.125,1.125,6.625,0.125s1.938-1,3.688-0.812s3.125-0.188,4.625-0.938s2.375-1.625,1.188-1.438    s-4.625,1.312-6.125,1.25s-2.938,0.25-4.312,0.812S39.1-35.663,40.1-34.975z"/>
		<path style="fill:none;stroke:#000000;stroke-width:0.3;stroke-linecap:square;" d="M5.267-1.6    C1.6-6.954,11.038-9.538,11.413-9.725c4.837-2.419,4.215-7.69-2.5-7.958c-6.25-0.25-3.375-3.25,3.5-4s6.253-3.542,5.878-6.292    s3.737-3.378-6.375-5.625c-1.125-0.25-3.125-0.375-4.125-1.75s-2-3.625,0.5-4.125s7.742-3.236,3.875-5.5    C2.413-50.684,14.35-53.038,5.267-56.1"/>

			<line style="fill:none;stroke:#000000;stroke-width:0.3;stroke-linecap:square;" x1="32.091" y1="-30.484" x2="14.352" y2="-12.724"/>

			<line style="fill:none;stroke:#000000;stroke-width:0.3;stroke-linecap:square;" x1="29.98" y1="-30.97" x2="14.208" y2="-15.18"/>

			<line style="fill:none;stroke:#000000;stroke-width:0.3;stroke-linecap:square;" x1="52.485" y1="-56.1" x2="50.606" y2="-54.219"/>

			<line style="fill:none;stroke:#000000;stroke-width:0.3;stroke-linecap:square;" x1="28.244" y1="-31.831" x2="12.972" y2="-16.541"/>

			<line style="fill:none;stroke:#000000;stroke-width:0.3;stroke-linecap:square;" x1="49.89" y1="-56.1" x2="47.965" y2="-54.173"/>

			<line style="fill:none;stroke:#000000;stroke-width:0.3;stroke-linecap:square;" x1="36.628" y1="-42.823" x2="34.691" y2="-40.884"/>

			<line style="fill:none;stroke:#000000;stroke-width:0.3;stroke-linecap:square;" x1="26.883" y1="-33.067" x2="18.076" y2="-24.249"/>

			<line style="fill:none;stroke:#000000;stroke-width:0.3;stroke-linecap:square;" x1="18.076" y1="-24.249" x2="16.639" y2="-22.811"/>

			<line style="fill:none;stroke:#000000;stroke-width:0.3;stroke-linecap:square;" x1="16.639" y1="-22.811" x2="11.143" y2="-17.308"/>

			<line style="fill:none;stroke:#000000;stroke-width:0.3;stroke-linecap:square;" x1="47.294" y1="-56.1" x2="45.448" y2="-54.252"/>

			<line style="fill:none;stroke:#000000;stroke-width:0.3;stroke-linecap:square;" x1="34.486" y1="-43.277" x2="31.425" y2="-40.213"/>

			<line style="fill:none;stroke:#000000;stroke-width:0.3;stroke-linecap:square;" x1="25.866" y1="-34.647" x2="18.339" y2="-27.111"/>

			<line style="fill:none;stroke:#000000;stroke-width:0.3;stroke-linecap:square;" x1="12.998" y1="-21.765" x2="8.875" y2="-17.637"/>

			<line style="fill:none;stroke:#000000;stroke-width:0.3;stroke-linecap:square;" x1="44.698" y1="-56.1" x2="42.837" y2="-54.238"/>

			<line style="fill:none;stroke:#000000;stroke-width:0.3;stroke-linecap:square;" x1="32.468" y1="-43.856" x2="28.221" y2="-39.604"/>

			<line style="fill:none;stroke:#000000;stroke-width:0.3;stroke-linecap:square;" x1="25.348" y1="-36.728" x2="18.664" y2="-30.036"/>

			<line style="fill:none;stroke:#000000;stroke-width:0.3;stroke-linecap:square;" x1="9.981" y1="-21.344" x2="6.608" y2="-17.967"/>

			<line style="fill:none;stroke:#000000;stroke-width:0.3;stroke-linecap:square;" x1="42.102" y1="-56.1" x2="40.227" y2="-54.223"/>

			<line style="fill:none;stroke:#000000;stroke-width:0.3;stroke-linecap:square;" x1="30.607" y1="-44.593" x2="17.833" y2="-31.804"/>

			<line style="fill:none;stroke:#000000;stroke-width:0.3;stroke-linecap:square;" x1="39.506" y1="-56.1" x2="37.492" y2="-54.083"/>

			<line style="fill:none;stroke:#000000;stroke-width:0.3;stroke-linecap:square;" x1="28.685" y1="-45.266" x2="15.941" y2="-32.508"/>
		<line style="fill:none;stroke:#000000;stroke-width:0.3;stroke-linecap:square;" x1="36.91" y1="-56.1" x2="34.663" y2="-53.85"/>

			<line style="fill:none;stroke:#000000;stroke-width:0.3;stroke-linecap:square;" x1="26.854" y1="-46.033" x2="13.862" y2="-33.026"/>

			<line style="fill:none;stroke:#000000;stroke-width:0.3;stroke-linecap:square;" x1="34.314" y1="-56.1" x2="31.428" y2="-53.21"/>

			<line style="fill:none;stroke:#000000;stroke-width:0.3;stroke-linecap:square;" x1="25.025" y1="-46.8" x2="11.845" y2="-33.605"/>

			<line style="fill:none;stroke:#000000;stroke-width:0.3;stroke-linecap:square;" x1="31.718" y1="-56.1" x2="28.192" y2="-52.57"/>

			<line style="fill:none;stroke:#000000;stroke-width:0.3;stroke-linecap:square;" x1="23.071" y1="-47.443" x2="9.734" y2="-34.091"/>

			<line style="fill:none;stroke:#000000;stroke-width:0.3;stroke-linecap:square;" x1="29.123" y1="-56.1" x2="25.52" y2="-52.493"/>

			<line style="fill:none;stroke:#000000;stroke-width:0.3;stroke-linecap:square;" x1="21.178" y1="-48.146" x2="8.061" y2="-35.015"/>

			<line style="fill:none;stroke:#000000;stroke-width:0.3;stroke-linecap:square;" x1="26.526" y1="-56.1" x2="23.097" y2="-52.666"/>

			<line style="fill:none;stroke:#000000;stroke-width:0.3;stroke-linecap:square;" x1="19.286" y1="-48.852" x2="13.602" y2="-43.161"/>

			<line style="fill:none;stroke:#000000;stroke-width:0.3;stroke-linecap:square;" x1="11.041" y1="-40.597" x2="7.012" y2="-36.563"/>

			<line style="fill:none;stroke:#000000;stroke-width:0.3;stroke-linecap:square;" x1="23.93" y1="-56.1" x2="20.673" y2="-52.839"/>

			<line style="fill:none;stroke:#000000;stroke-width:0.3;stroke-linecap:square;" x1="17.394" y1="-49.556" x2="12.554" y2="-44.71"/>

			<line style="fill:none;stroke:#000000;stroke-width:0.3;stroke-linecap:square;" x1="21.334" y1="-56.1" x2="18.063" y2="-52.825"/>

			<line style="fill:none;stroke:#000000;stroke-width:0.3;stroke-linecap:square;" x1="15.877" y1="-50.636" x2="10.942" y2="-45.696"/>

			<line style="fill:none;stroke:#000000;stroke-width:0.3;stroke-linecap:square;" x1="18.739" y1="-56.1" x2="9.487" y2="-46.838"/>

			<line style="fill:none;stroke:#000000;stroke-width:0.3;stroke-linecap:square;" x1="16.143" y1="-56.1" x2="8.376" y2="-48.324"/>

			<line style="fill:none;stroke:#000000;stroke-width:0.3;stroke-linecap:square;" x1="13.546" y1="-56.1" x2="8.139" y2="-50.687"/>
		<line style="fill:none;stroke:#000000;stroke-width:0.3;stroke-linecap:square;" x1="10.95" y1="-56.1" x2="8.776" y2="-53.923"/>
		<line style="fill:none;stroke:#000000;stroke-width:0.3;stroke-linecap:square;" x1="8.355" y1="-56.1" x2="7.416" y2="-55.16"/>

			<line style="fill:none;stroke:#000000;stroke-width:0.3;stroke-linecap:square;" x1="41.669" y1="-27.094" x2="40.232" y2="-25.655"/>
		<line style="fill:none;stroke:#000000;stroke-width:0.3;stroke-linecap:square;" x1="8.35" y1="-56.1" x2="25.975" y2="-38.475"/>

			<line style="fill:none;stroke:#000000;stroke-width:0.3;stroke-linecap:square;" x1="34.131" y1="-30.319" x2="39.069" y2="-25.381"/>

			<line style="fill:none;stroke:#000000;stroke-width:0.3;stroke-linecap:square;" x1="52.069" y1="-12.381" x2="56.413" y2="-8.038"/>

			<line style="fill:none;stroke:#000000;stroke-width:0.3;stroke-linecap:square;" x1="10.975" y1="-56.1" x2="15.413" y2="-51.663"/>

			<line style="fill:none;stroke:#000000;stroke-width:0.3;stroke-linecap:square;" x1="17.444" y1="-49.631" x2="27.6" y2="-39.475"/>

			<line style="fill:none;stroke:#000000;stroke-width:0.3;stroke-linecap:square;" x1="39.288" y1="-27.788" x2="41.163" y2="-25.913"/>
		<line style="fill:none;stroke:#000000;stroke-width:0.3;stroke-linecap:square;" x1="13.6" y1="-56.1" x2="16.944" y2="-52.756"/>

			<line style="fill:none;stroke:#000000;stroke-width:0.3;stroke-linecap:square;" x1="21.694" y1="-48.006" x2="29.663" y2="-40.038"/>

			<line style="fill:none;stroke:#000000;stroke-width:0.3;stroke-linecap:square;" x1="16.225" y1="-56.1" x2="19.35" y2="-52.975"/>

			<line style="fill:none;stroke:#000000;stroke-width:0.3;stroke-linecap:square;" x1="25.756" y1="-46.569" x2="32.038" y2="-40.288"/>

			<line style="fill:none;stroke:#000000;stroke-width:0.3;stroke-linecap:square;" x1="18.788" y1="-56.1" x2="22.069" y2="-52.819"/>

			<line style="fill:none;stroke:#000000;stroke-width:0.3;stroke-linecap:square;" x1="30.131" y1="-44.756" x2="34.1" y2="-40.788"/>

			<line style="fill:none;stroke:#000000;stroke-width:0.3;stroke-linecap:square;" x1="21.413" y1="-56.1" x2="24.944" y2="-52.569"/>

			<line style="fill:none;stroke:#000000;stroke-width:0.3;stroke-linecap:square;" x1="34.194" y1="-43.319" x2="36.069" y2="-41.444"/>
		<line style="fill:none;stroke:#000000;stroke-width:0.3;stroke-linecap:square;" x1="23.913" y1="-56.1" x2="27.413" y2="-52.6"/>

			<line style="fill:none;stroke:#000000;stroke-width:0.3;stroke-linecap:square;" x1="37.194" y1="-42.819" x2="38.225" y2="-41.788"/>

			<line style="fill:none;stroke:#000000;stroke-width:0.3;stroke-linecap:square;" x1="26.538" y1="-56.1" x2="29.725" y2="-52.913"/>

			<line style="fill:none;stroke:#000000;stroke-width:0.3;stroke-linecap:square;" x1="29.163" y1="-56.1" x2="31.975" y2="-53.288"/>

			<line style="fill:none;stroke:#000000;stroke-width:0.3;stroke-linecap:square;" x1="31.788" y1="-56.1" x2="34.069" y2="-53.819"/>

			<line style="fill:none;stroke:#000000;stroke-width:0.3;stroke-linecap:square;" x1="34.288" y1="-56.1" x2="36.35" y2="-54.038"/>

			<line style="fill:none;stroke:#000000;stroke-width:0.3;stroke-linecap:square;" x1="36.913" y1="-56.1" x2="38.85" y2="-54.163"/>

			<line style="fill:none;stroke:#000000;stroke-width:0.3;stroke-linecap:square;" x1="39.538" y1="-56.1" x2="41.413" y2="-54.225"/>

			<line style="fill:none;stroke:#000000;stroke-width:0.3;stroke-linecap:square;" x1="42.163" y1="-56.1" x2="43.975" y2="-54.288"/>

			<line style="fill:none;stroke:#000000;stroke-width:0.3;stroke-linecap:square;" x1="44.663" y1="-56.1" x2="46.475" y2="-54.288"/>

			<line style="fill:none;stroke:#000000;stroke-width:0.3;stroke-linecap:square;" x1="47.288" y1="-56.1" x2="49.163" y2="-54.225"/>

			<line style="fill:none;stroke:#000000;stroke-width:0.3;stroke-linecap:square;" x1="49.913" y1="-56.1" x2="51.694" y2="-54.319"/>
		<line style="fill:none;stroke:#000000;stroke-width:0.3;stroke-linecap:square;" x1="52.538" y1="-56.1" x2="53.6" y2="-55.038"/>

			<line style="fill:none;stroke:#000000;stroke-width:0.3;stroke-linecap:square;" x1="8.905" y1="-52.967" x2="25.499" y2="-36.374"/>

			<line style="fill:none;stroke:#000000;stroke-width:0.3;stroke-linecap:square;" x1="31.155" y1="-30.717" x2="37.343" y2="-24.53"/>

			<line style="fill:none;stroke:#000000;stroke-width:0.3;stroke-linecap:square;" x1="48.28" y1="-13.592" x2="55.874" y2="-5.998"/>

			<line style="fill:none;stroke:#000000;stroke-width:0.3;stroke-linecap:square;" x1="8.249" y1="-51.061" x2="36.218" y2="-23.092"/>

			<line style="fill:none;stroke:#000000;stroke-width:0.3;stroke-linecap:square;" x1="41.062" y1="-18.249" x2="55.312" y2="-3.999"/>

			<line style="fill:none;stroke:#000000;stroke-width:0.3;stroke-linecap:square;" x1="8.343" y1="-48.405" x2="10.999" y2="-45.749"/>

			<line style="fill:none;stroke:#000000;stroke-width:0.3;stroke-linecap:square;" x1="10.999" y1="-45.749" x2="13.624" y2="-43.124"/>

			<line style="fill:none;stroke:#000000;stroke-width:0.3;stroke-linecap:square;" x1="13.624" y1="-43.124" x2="54.655" y2="-2.092"/>

			<line style="fill:none;stroke:#000000;stroke-width:0.3;stroke-linecap:square;" x1="9.155" y1="-39.78" x2="16.53" y2="-32.405"/>

			<line style="fill:none;stroke:#000000;stroke-width:0.3;stroke-linecap:square;" x1="7.249" y1="-39.061" x2="12.936" y2="-33.374"/>

			<line style="fill:none;stroke:#000000;stroke-width:0.3;stroke-linecap:square;" x1="7.062" y1="-36.686" x2="9.561" y2="-34.186"/>

			<line style="fill:none;stroke:#000000;stroke-width:0.3;stroke-linecap:square;" x1="7.53" y1="-20.592" x2="10.593" y2="-17.53"/>

			<line style="fill:none;stroke:#000000;stroke-width:0.3;stroke-linecap:square;" x1="5.874" y1="-19.624" x2="7.593" y2="-17.905"/>
		<line style="fill:none;stroke:#000000;stroke-width:0.3;stroke-linecap:square;" x1="4.676" y1="-2.733" x2="5.819" y2="-1.616"/>

			<line style="fill:none;stroke:#000000;stroke-width:0.3;stroke-linecap:square;" x1="4.607" y1="-2.969" x2="11.322" y2="-9.691"/>
		<line style="fill:none;stroke:#000000;stroke-width:0.3;stroke-linecap:square;" x1="52.474" y1="-1.6" x2="55.385" y2="-4.44"/>
		<line style="fill:none;stroke:#000000;stroke-width:0.3;stroke-linecap:square;" x1="56.46" y1="-8.115" x2="49.874" y2="-1.6"/>

			<line style="fill:none;stroke:#000000;stroke-width:0.3;stroke-linecap:square;" x1="55.942" y1="-10.196" x2="47.279" y2="-1.6"/>

			<line style="fill:none;stroke:#000000;stroke-width:0.3;stroke-linecap:square;" x1="54.394" y1="-11.244" x2="44.685" y2="-1.6"/>

			<line style="fill:none;stroke:#000000;stroke-width:0.3;stroke-linecap:square;" x1="52.689" y1="-12.137" x2="42.091" y2="-1.6"/>

			<line style="fill:none;stroke:#000000;stroke-width:0.3;stroke-linecap:square;" x1="50.734" y1="-12.778" x2="39.498" y2="-1.6"/>
		<line style="fill:none;stroke:#000000;stroke-width:0.3;stroke-linecap:square;" x1="48.749" y1="-13.39" x2="36.903" y2="-1.6"/>

			<line style="fill:none;stroke:#000000;stroke-width:0.3;stroke-linecap:square;" x1="47.043" y1="-14.282" x2="34.295" y2="-1.6"/>
		<line style="fill:none;stroke:#000000;stroke-width:0.3;stroke-linecap:square;" x1="45.776" y1="-15.612" x2="31.7" y2="-1.6"/>

			<line style="fill:none;stroke:#000000;stroke-width:0.3;stroke-linecap:square;" x1="44.415" y1="-16.848" x2="29.106" y2="-1.6"/>
		<line style="fill:none;stroke:#000000;stroke-width:0.3;stroke-linecap:square;" x1="42.71" y1="-17.74" x2="26.512" y2="-1.6"/>
		<line style="fill:none;stroke:#000000;stroke-width:0.3;stroke-linecap:square;" x1="40.724" y1="-18.351" x2="23.92" y2="-1.6"/>

			<line style="fill:none;stroke:#000000;stroke-width:0.3;stroke-linecap:square;" x1="38.989" y1="-19.212" x2="21.325" y2="-1.6"/>
		<line style="fill:none;stroke:#000000;stroke-width:0.3;stroke-linecap:square;" x1="37.534" y1="-20.354" x2="18.73" y2="-1.6"/>
		<line style="fill:none;stroke:#000000;stroke-width:0.3;stroke-linecap:square;" x1="36.36" y1="-21.778" x2="16.122" y2="-1.6"/>

			<line style="fill:none;stroke:#000000;stroke-width:0.3;stroke-linecap:square;" x1="39.652" y1="-27.673" x2="13.527" y2="-1.6"/>

			<line style="fill:none;stroke:#000000;stroke-width:0.3;stroke-linecap:square;" x1="37.729" y1="-28.347" x2="10.934" y2="-1.6"/>
		<line style="fill:none;stroke:#000000;stroke-width:0.3;stroke-linecap:square;" x1="36.337" y1="-29.552" x2="8.34" y2="-1.6"/>

			<line style="fill:none;stroke:#000000;stroke-width:0.3;stroke-linecap:square;" x1="5.816" y1="-1.608" x2="34.319" y2="-30.131"/>

			<line style="fill:none;stroke:#000000;stroke-width:0.3;stroke-linecap:square;" x1="52.543" y1="-1.6" x2="12.561" y2="-41.561"/>

			<line style="fill:none;stroke:#000000;stroke-width:0.3;stroke-linecap:square;" x1="10.968" y1="-40.592" x2="49.919" y2="-1.6"/>

			<line style="fill:none;stroke:#000000;stroke-width:0.3;stroke-linecap:square;" x1="18.718" y1="-30.217" x2="47.294" y2="-1.6"/>

			<line style="fill:none;stroke:#000000;stroke-width:0.3;stroke-linecap:square;" x1="18.312" y1="-27.999" x2="44.669" y2="-1.6"/>

			<line style="fill:none;stroke:#000000;stroke-width:0.3;stroke-linecap:square;" x1="18.437" y1="-25.311" x2="42.168" y2="-1.6"/>

			<line style="fill:none;stroke:#000000;stroke-width:0.3;stroke-linecap:square;" x1="17.687" y1="-23.499" x2="39.544" y2="-1.6"/>

			<line style="fill:none;stroke:#000000;stroke-width:0.3;stroke-linecap:square;" x1="36.918" y1="-1.6" x2="15.936" y2="-22.561"/>
		<line style="fill:none;stroke:#000000;stroke-width:0.3;stroke-linecap:square;" x1="13.905" y1="-22.03" x2="34.294" y2="-1.6"/>

			<line style="fill:none;stroke:#000000;stroke-width:0.3;stroke-linecap:square;" x1="11.718" y1="-21.655" x2="31.793" y2="-1.6"/>
		<line style="fill:none;stroke:#000000;stroke-width:0.3;stroke-linecap:square;" x1="9.499" y1="-21.249" x2="29.168" y2="-1.6"/>
		<line style="fill:none;stroke:#000000;stroke-width:0.3;stroke-linecap:square;" x1="14.53" y1="-13.592" x2="26.542" y2="-1.6"/>

			<line style="fill:none;stroke:#000000;stroke-width:0.3;stroke-linecap:square;" x1="23.918" y1="-1.6" x2="13.811" y2="-11.686"/>
		<line style="fill:none;stroke:#000000;stroke-width:0.3;stroke-linecap:square;" x1="12.53" y1="-10.467" x2="21.417" y2="-1.6"/>
		<line style="fill:none;stroke:#000000;stroke-width:0.3;stroke-linecap:square;" x1="10.811" y1="-9.561" x2="18.792" y2="-1.6"/>
		<line style="fill:none;stroke:#000000;stroke-width:0.3;stroke-linecap:square;" x1="16.23" y1="-1.6" x2="8.999" y2="-8.811"/>
		<line style="fill:none;stroke:#000000;stroke-width:0.3;stroke-linecap:square;" x1="7.249" y1="-7.936" x2="13.605" y2="-1.6"/>
		<line style="fill:none;stroke:#000000;stroke-width:0.3;stroke-linecap:square;" x1="10.983" y1="-1.6" x2="5.812" y2="-6.811"/>
		<line style="fill:none;stroke:#000000;stroke-width:0.3;stroke-linecap:square;" x1="4.718" y1="-5.28" x2="8.358" y2="-1.6"/>
	</g>
</svg>
