<?xml version="1.0"?>
<!-- Converted with SVG Converter - Version 0.9.5 (Compiled Fri Feb 21 09:53:38 2020) - Copyright (C) 2011 Nokia -->
<svg xmlns="http://www.w3.org/2000/svg" baseProfile="tiny" height="56.016" xmlns:xlink="http://www.w3.org/1999/xlink" xml:space="preserve" viewBox="1 -57.016 56 56.016" x="0px" version="1.1" y="0px" width="56">
 <g>
  <rect style="fill:none;" height="56.016" x="1" y="-57.016" width="56"/>
  <circle style="fill-rule:evenodd;clip-rule:evenodd;fill:#EC008C;" cy="-54.977" cx="2.994" r="0.499"/>
  <circle style="fill-rule:evenodd;clip-rule:evenodd;fill:#EC008C;" cy="-54.977" cx="6.994" r="0.499"/>
  <circle style="fill-rule:evenodd;clip-rule:evenodd;fill:#EC008C;" cy="-54.977" cx="10.994" r="0.499"/>
  <circle style="fill-rule:evenodd;clip-rule:evenodd;fill:#EC008C;" cy="-54.977" cx="14.994" r="0.499"/>
  <circle style="fill-rule:evenodd;clip-rule:evenodd;fill:#EC008C;" cy="-54.977" cx="18.994" r="0.499"/>
  <circle style="fill-rule:evenodd;clip-rule:evenodd;fill:#EC008C;" cy="-54.977" cx="22.994" r="0.499"/>
  <circle style="fill-rule:evenodd;clip-rule:evenodd;fill:#EC008C;" cy="-54.977" cx="26.994" r="0.499"/>
  <circle style="fill-rule:evenodd;clip-rule:evenodd;fill:#EC008C;" cy="-54.977" cx="30.994" r="0.499"/>
  <circle style="fill-rule:evenodd;clip-rule:evenodd;fill:#EC008C;" cy="-54.977" cx="34.994" r="0.499"/>
  <circle style="fill-rule:evenodd;clip-rule:evenodd;fill:#EC008C;" cy="-54.977" cx="38.994" r="0.499"/>
  <circle style="fill-rule:evenodd;clip-rule:evenodd;fill:#EC008C;" cy="-54.977" cx="42.994" r="0.499"/>
  <circle style="fill-rule:evenodd;clip-rule:evenodd;fill:#EC008C;" cy="-54.977" cx="46.994" r="0.499"/>
  <circle style="fill-rule:evenodd;clip-rule:evenodd;fill:#EC008C;" cy="-54.977" cx="50.994" r="0.499"/>
  <circle style="fill-rule:evenodd;clip-rule:evenodd;fill:#EC008C;" cy="-54.977" cx="54.994" r="0.499"/>
  <circle style="fill-rule:evenodd;clip-rule:evenodd;fill:#EC008C;" cy="-50.998" cx="2.994" r="0.499"/>
  <circle style="fill-rule:evenodd;clip-rule:evenodd;fill:#EC008C;" cy="-50.998" cx="6.994" r="0.499"/>
  <circle style="fill-rule:evenodd;clip-rule:evenodd;fill:#EC008C;" cy="-50.998" cx="10.994" r="0.499"/>
  <circle style="fill-rule:evenodd;clip-rule:evenodd;fill:#EC008C;" cy="-50.998" cx="14.994" r="0.499"/>
  <circle style="fill-rule:evenodd;clip-rule:evenodd;fill:#EC008C;" cy="-50.998" cx="18.994" r="0.499"/>
  <circle style="fill-rule:evenodd;clip-rule:evenodd;fill:#EC008C;" cy="-50.998" cx="22.994" r="0.499"/>
  <circle style="fill-rule:evenodd;clip-rule:evenodd;fill:#EC008C;" cy="-50.998" cx="26.994" r="0.499"/>
  <circle style="fill-rule:evenodd;clip-rule:evenodd;fill:#EC008C;" cy="-50.998" cx="30.994" r="0.499"/>
  <circle style="fill-rule:evenodd;clip-rule:evenodd;fill:#EC008C;" cy="-50.998" cx="34.994" r="0.499"/>
  <circle style="fill-rule:evenodd;clip-rule:evenodd;fill:#EC008C;" cy="-50.998" cx="38.994" r="0.499"/>
  <circle style="fill-rule:evenodd;clip-rule:evenodd;fill:#EC008C;" cy="-50.998" cx="42.994" r="0.499"/>
  <circle style="fill-rule:evenodd;clip-rule:evenodd;fill:#EC008C;" cy="-50.998" cx="46.994" r="0.499"/>
  <circle style="fill-rule:evenodd;clip-rule:evenodd;fill:#EC008C;" cy="-50.998" cx="50.994" r="0.499"/>
  <circle style="fill-rule:evenodd;clip-rule:evenodd;fill:#EC008C;" cy="-50.998" cx="54.994" r="0.499"/>
  <circle style="fill-rule:evenodd;clip-rule:evenodd;fill:#EC008C;" cy="-46.998" cx="2.994" r="0.499"/>
  <circle style="fill-rule:evenodd;clip-rule:evenodd;fill:#EC008C;" cy="-46.998" cx="6.994" r="0.499"/>
  <circle style="fill-rule:evenodd;clip-rule:evenodd;fill:#EC008C;" cy="-46.998" cx="10.994" r="0.499"/>
  <circle style="fill-rule:evenodd;clip-rule:evenodd;fill:#EC008C;" cy="-46.998" cx="14.994" r="0.499"/>
  <circle style="fill-rule:evenodd;clip-rule:evenodd;fill:#EC008C;" cy="-46.998" cx="18.994" r="0.499"/>
  <circle style="fill-rule:evenodd;clip-rule:evenodd;fill:#EC008C;" cy="-46.998" cx="22.994" r="0.499"/>
  <circle style="fill-rule:evenodd;clip-rule:evenodd;fill:#EC008C;" cy="-46.998" cx="26.994" r="0.499"/>
  <circle style="fill-rule:evenodd;clip-rule:evenodd;fill:#EC008C;" cy="-46.998" cx="30.994" r="0.499"/>
  <circle style="fill-rule:evenodd;clip-rule:evenodd;fill:#EC008C;" cy="-46.998" cx="34.994" r="0.499"/>
  <circle style="fill-rule:evenodd;clip-rule:evenodd;fill:#EC008C;" cy="-46.998" cx="38.994" r="0.499"/>
  <circle style="fill-rule:evenodd;clip-rule:evenodd;fill:#EC008C;" cy="-46.998" cx="42.994" r="0.499"/>
  <circle style="fill-rule:evenodd;clip-rule:evenodd;fill:#EC008C;" cy="-46.998" cx="46.994" r="0.499"/>
  <circle style="fill-rule:evenodd;clip-rule:evenodd;fill:#EC008C;" cy="-46.998" cx="50.994" r="0.499"/>
  <circle style="fill-rule:evenodd;clip-rule:evenodd;fill:#EC008C;" cy="-46.998" cx="54.994" r="0.499"/>
  <circle style="fill-rule:evenodd;clip-rule:evenodd;fill:#EC008C;" cy="-42.998" cx="2.994" r="0.499"/>
  <circle style="fill-rule:evenodd;clip-rule:evenodd;fill:#EC008C;" cy="-42.998" cx="6.994" r="0.499"/>
  <circle style="fill-rule:evenodd;clip-rule:evenodd;fill:#EC008C;" cy="-42.998" cx="10.994" r="0.499"/>
  <circle style="fill-rule:evenodd;clip-rule:evenodd;fill:#EC008C;" cy="-42.998" cx="14.994" r="0.499"/>
  <circle style="fill-rule:evenodd;clip-rule:evenodd;fill:#EC008C;" cy="-42.998" cx="18.994" r="0.499"/>
  <circle style="fill-rule:evenodd;clip-rule:evenodd;fill:#EC008C;" cy="-42.998" cx="22.994" r="0.499"/>
  <circle style="fill-rule:evenodd;clip-rule:evenodd;fill:#EC008C;" cy="-42.998" cx="26.994" r="0.499"/>
  <circle style="fill-rule:evenodd;clip-rule:evenodd;fill:#EC008C;" cy="-42.998" cx="30.994" r="0.499"/>
  <circle style="fill-rule:evenodd;clip-rule:evenodd;fill:#EC008C;" cy="-42.998" cx="34.994" r="0.499"/>
  <circle style="fill-rule:evenodd;clip-rule:evenodd;fill:#EC008C;" cy="-42.998" cx="38.994" r="0.499"/>
  <circle style="fill-rule:evenodd;clip-rule:evenodd;fill:#EC008C;" cy="-42.998" cx="42.994" r="0.499"/>
  <circle style="fill-rule:evenodd;clip-rule:evenodd;fill:#EC008C;" cy="-42.998" cx="46.994" r="0.499"/>
  <circle style="fill-rule:evenodd;clip-rule:evenodd;fill:#EC008C;" cy="-42.998" cx="50.994" r="0.499"/>
  <circle style="fill-rule:evenodd;clip-rule:evenodd;fill:#EC008C;" cy="-42.998" cx="54.994" r="0.499"/>
  <circle style="fill-rule:evenodd;clip-rule:evenodd;fill:#EC008C;" cy="-39.061" cx="2.994" r="0.499"/>
  <circle style="fill-rule:evenodd;clip-rule:evenodd;fill:#EC008C;" cy="-39.061" cx="6.994" r="0.499"/>
  <circle style="fill-rule:evenodd;clip-rule:evenodd;fill:#EC008C;" cy="-39.061" cx="10.994" r="0.499"/>
  <circle style="fill-rule:evenodd;clip-rule:evenodd;fill:#EC008C;" cy="-39.061" cx="14.994" r="0.499"/>
  <circle style="fill-rule:evenodd;clip-rule:evenodd;fill:#EC008C;" cy="-39.061" cx="18.994" r="0.499"/>
  <circle style="fill-rule:evenodd;clip-rule:evenodd;fill:#EC008C;" cy="-39.061" cx="22.994" r="0.499"/>
  <circle style="fill-rule:evenodd;clip-rule:evenodd;fill:#EC008C;" cy="-39.061" cx="26.994" r="0.499"/>
  <circle style="fill-rule:evenodd;clip-rule:evenodd;fill:#EC008C;" cy="-39.061" cx="30.994" r="0.499"/>
  <circle style="fill-rule:evenodd;clip-rule:evenodd;fill:#EC008C;" cy="-39.061" cx="34.994" r="0.499"/>
  <circle style="fill:#EC008C;" cy="-39.061" cx="38.994" r="0.499"/>
  <circle style="fill-rule:evenodd;clip-rule:evenodd;fill:#EC008C;" cy="-39.061" cx="42.994" r="0.499"/>
  <circle style="fill-rule:evenodd;clip-rule:evenodd;fill:#EC008C;" cy="-39.061" cx="46.994" r="0.499"/>
  <circle style="fill-rule:evenodd;clip-rule:evenodd;fill:#EC008C;" cy="-39.061" cx="50.994" r="0.499"/>
  <circle style="fill-rule:evenodd;clip-rule:evenodd;fill:#EC008C;" cy="-39.061" cx="54.994" r="0.499"/>
  <circle style="fill-rule:evenodd;clip-rule:evenodd;fill:#EC008C;" cy="-34.977" cx="2.994" r="0.499"/>
  <circle style="fill-rule:evenodd;clip-rule:evenodd;fill:#EC008C;" cy="-34.977" cx="6.994" r="0.499"/>
  <circle style="fill-rule:evenodd;clip-rule:evenodd;fill:#EC008C;" cy="-34.977" cx="10.994" r="0.499"/>
  <circle style="fill-rule:evenodd;clip-rule:evenodd;fill:#EC008C;" cy="-34.977" cx="14.994" r="0.499"/>
  <circle style="fill-rule:evenodd;clip-rule:evenodd;fill:#EC008C;" cy="-34.977" cx="18.994" r="0.499"/>
  <circle style="fill-rule:evenodd;clip-rule:evenodd;fill:#EC008C;" cy="-34.977" cx="22.994" r="0.499"/>
  <circle style="fill-rule:evenodd;clip-rule:evenodd;fill:#EC008C;" cy="-34.977" cx="26.994" r="0.499"/>
  <circle style="fill-rule:evenodd;clip-rule:evenodd;fill:#EC008C;" cy="-34.977" cx="30.994" r="0.499"/>
  <circle style="fill-rule:evenodd;clip-rule:evenodd;fill:#EC008C;" cy="-34.977" cx="34.994" r="0.499"/>
  <circle style="fill-rule:evenodd;clip-rule:evenodd;fill:#EC008C;" cy="-34.977" cx="38.994" r="0.499"/>
  <circle style="fill-rule:evenodd;clip-rule:evenodd;fill:#EC008C;" cy="-34.977" cx="42.994" r="0.499"/>
  <circle style="fill-rule:evenodd;clip-rule:evenodd;fill:#EC008C;" cy="-34.977" cx="46.994" r="0.499"/>
  <circle style="fill-rule:evenodd;clip-rule:evenodd;fill:#EC008C;" cy="-34.977" cx="50.994" r="0.499"/>
  <circle style="fill-rule:evenodd;clip-rule:evenodd;fill:#EC008C;" cy="-34.977" cx="54.994" r="0.499"/>
  <circle style="fill-rule:evenodd;clip-rule:evenodd;fill:#EC008C;" cy="-30.977" cx="2.994" r="0.499"/>
  <circle style="fill-rule:evenodd;clip-rule:evenodd;fill:#EC008C;" cy="-30.977" cx="6.994" r="0.499"/>
  <circle style="fill-rule:evenodd;clip-rule:evenodd;fill:#EC008C;" cy="-30.977" cx="10.994" r="0.499"/>
  <circle style="fill-rule:evenodd;clip-rule:evenodd;fill:#EC008C;" cy="-30.977" cx="14.994" r="0.499"/>
  <circle style="fill-rule:evenodd;clip-rule:evenodd;fill:#EC008C;" cy="-30.977" cx="18.994" r="0.499"/>
  <circle style="fill-rule:evenodd;clip-rule:evenodd;fill:#EC008C;" cy="-30.977" cx="22.994" r="0.499"/>
  <circle style="fill-rule:evenodd;clip-rule:evenodd;fill:#EC008C;" cy="-30.977" cx="26.994" r="0.499"/>
  <circle style="fill-rule:evenodd;clip-rule:evenodd;fill:#EC008C;" cy="-30.977" cx="30.994" r="0.499"/>
  <circle style="fill-rule:evenodd;clip-rule:evenodd;fill:#EC008C;" cy="-30.977" cx="34.994" r="0.499"/>
  <circle style="fill-rule:evenodd;clip-rule:evenodd;fill:#EC008C;" cy="-30.977" cx="38.994" r="0.499"/>
  <circle style="fill-rule:evenodd;clip-rule:evenodd;fill:#EC008C;" cy="-30.977" cx="42.994" r="0.499"/>
  <circle style="fill-rule:evenodd;clip-rule:evenodd;fill:#EC008C;" cy="-30.977" cx="46.994" r="0.499"/>
  <circle style="fill-rule:evenodd;clip-rule:evenodd;fill:#EC008C;" cy="-30.977" cx="50.994" r="0.499"/>
  <circle style="fill-rule:evenodd;clip-rule:evenodd;fill:#EC008C;" cy="-30.977" cx="54.994" r="0.499"/>
  <circle style="fill-rule:evenodd;clip-rule:evenodd;fill:#EC008C;" cy="-26.977" cx="2.994" r="0.499"/>
  <circle style="fill-rule:evenodd;clip-rule:evenodd;fill:#EC008C;" cy="-26.977" cx="6.994" r="0.499"/>
  <circle style="fill-rule:evenodd;clip-rule:evenodd;fill:#EC008C;" cy="-26.977" cx="10.994" r="0.499"/>
  <circle style="fill-rule:evenodd;clip-rule:evenodd;fill:#EC008C;" cy="-26.977" cx="14.994" r="0.499"/>
  <circle style="fill-rule:evenodd;clip-rule:evenodd;fill:#EC008C;" cy="-26.977" cx="18.994" r="0.499"/>
  <circle style="fill-rule:evenodd;clip-rule:evenodd;fill:#EC008C;" cy="-26.977" cx="22.994" r="0.499"/>
  <circle style="fill-rule:evenodd;clip-rule:evenodd;fill:#EC008C;" cy="-26.977" cx="26.994" r="0.499"/>
  <circle style="fill-rule:evenodd;clip-rule:evenodd;fill:#EC008C;" cy="-26.977" cx="30.994" r="0.499"/>
  <circle style="fill-rule:evenodd;clip-rule:evenodd;fill:#EC008C;" cy="-26.977" cx="34.994" r="0.499"/>
  <circle style="fill-rule:evenodd;clip-rule:evenodd;fill:#EC008C;" cy="-26.977" cx="38.994" r="0.499"/>
  <circle style="fill-rule:evenodd;clip-rule:evenodd;fill:#EC008C;" cy="-26.977" cx="42.994" r="0.499"/>
  <circle style="fill-rule:evenodd;clip-rule:evenodd;fill:#EC008C;" cy="-26.977" cx="46.994" r="0.499"/>
  <circle style="fill:#EC008C;" cy="-26.977" cx="50.994" r="0.499"/>
  <circle style="fill-rule:evenodd;clip-rule:evenodd;fill:#EC008C;" cy="-26.977" cx="54.994" r="0.499"/>
  <circle style="fill-rule:evenodd;clip-rule:evenodd;fill:#EC008C;" cy="-22.977" cx="2.994" r="0.499"/>
  <circle style="fill-rule:evenodd;clip-rule:evenodd;fill:#EC008C;" cy="-22.977" cx="6.994" r="0.499"/>
  <circle style="fill-rule:evenodd;clip-rule:evenodd;fill:#EC008C;" cy="-22.977" cx="10.994" r="0.499"/>
  <circle style="fill:#EC008C;" cy="-22.977" cx="14.994" r="0.499"/>
  <circle style="fill-rule:evenodd;clip-rule:evenodd;fill:#EC008C;" cy="-22.977" cx="18.994" r="0.499"/>
  <circle style="fill-rule:evenodd;clip-rule:evenodd;fill:#EC008C;" cy="-22.977" cx="22.994" r="0.499"/>
  <circle style="fill-rule:evenodd;clip-rule:evenodd;fill:#EC008C;" cy="-22.977" cx="26.994" r="0.499"/>
  <circle style="fill-rule:evenodd;clip-rule:evenodd;fill:#EC008C;" cy="-22.977" cx="30.994" r="0.499"/>
  <circle style="fill-rule:evenodd;clip-rule:evenodd;fill:#EC008C;" cy="-22.977" cx="34.994" r="0.499"/>
  <circle style="fill-rule:evenodd;clip-rule:evenodd;fill:#EC008C;" cy="-22.977" cx="38.994" r="0.499"/>
  <circle style="fill-rule:evenodd;clip-rule:evenodd;fill:#EC008C;" cy="-22.977" cx="42.994" r="0.499"/>
  <circle style="fill-rule:evenodd;clip-rule:evenodd;fill:#EC008C;" cy="-22.977" cx="46.994" r="0.499"/>
  <circle style="fill-rule:evenodd;clip-rule:evenodd;fill:#EC008C;" cy="-22.977" cx="50.994" r="0.499"/>
  <circle style="fill-rule:evenodd;clip-rule:evenodd;fill:#EC008C;" cy="-22.977" cx="54.994" r="0.499"/>
  <circle style="fill-rule:evenodd;clip-rule:evenodd;fill:#EC008C;" cy="-18.977" cx="2.994" r="0.499"/>
  <circle style="fill-rule:evenodd;clip-rule:evenodd;fill:#EC008C;" cy="-18.977" cx="6.994" r="0.499"/>
  <circle style="fill-rule:evenodd;clip-rule:evenodd;fill:#EC008C;" cy="-18.977" cx="10.994" r="0.499"/>
  <circle style="fill-rule:evenodd;clip-rule:evenodd;fill:#EC008C;" cy="-18.977" cx="14.994" r="0.499"/>
  <circle style="fill-rule:evenodd;clip-rule:evenodd;fill:#EC008C;" cy="-18.977" cx="18.994" r="0.499"/>
  <circle style="fill-rule:evenodd;clip-rule:evenodd;fill:#EC008C;" cy="-18.977" cx="22.994" r="0.499"/>
  <circle style="fill-rule:evenodd;clip-rule:evenodd;fill:#EC008C;" cy="-18.977" cx="26.994" r="0.499"/>
  <circle style="fill-rule:evenodd;clip-rule:evenodd;fill:#EC008C;" cy="-18.977" cx="30.994" r="0.499"/>
  <circle style="fill-rule:evenodd;clip-rule:evenodd;fill:#EC008C;" cy="-18.977" cx="34.994" r="0.499"/>
  <circle style="fill-rule:evenodd;clip-rule:evenodd;fill:#EC008C;" cy="-18.977" cx="38.994" r="0.499"/>
  <circle style="fill-rule:evenodd;clip-rule:evenodd;fill:#EC008C;" cy="-18.977" cx="42.994" r="0.499"/>
  <circle style="fill-rule:evenodd;clip-rule:evenodd;fill:#EC008C;" cy="-18.977" cx="46.994" r="0.499"/>
  <circle style="fill-rule:evenodd;clip-rule:evenodd;fill:#EC008C;" cy="-18.977" cx="50.994" r="0.499"/>
  <circle style="fill-rule:evenodd;clip-rule:evenodd;fill:#EC008C;" cy="-18.977" cx="54.994" r="0.499"/>
  <circle style="fill:#EC008C;" cy="-14.977" cx="2.994" r="0.499"/>
  <circle style="fill-rule:evenodd;clip-rule:evenodd;fill:#EC008C;" cy="-14.977" cx="6.994" r="0.499"/>
  <circle style="fill-rule:evenodd;clip-rule:evenodd;fill:#EC008C;" cy="-14.977" cx="10.994" r="0.499"/>
  <circle style="fill-rule:evenodd;clip-rule:evenodd;fill:#EC008C;" cy="-14.977" cx="14.994" r="0.499"/>
  <circle style="fill-rule:evenodd;clip-rule:evenodd;fill:#EC008C;" cy="-14.977" cx="18.994" r="0.499"/>
  <circle style="fill-rule:evenodd;clip-rule:evenodd;fill:#EC008C;" cy="-14.977" cx="22.994" r="0.499"/>
  <circle style="fill-rule:evenodd;clip-rule:evenodd;fill:#EC008C;" cy="-14.977" cx="26.994" r="0.499"/>
  <circle style="fill:#EC008C;" cy="-14.977" cx="30.994" r="0.499"/>
  <circle style="fill-rule:evenodd;clip-rule:evenodd;fill:#EC008C;" cy="-14.977" cx="34.994" r="0.499"/>
  <circle style="fill-rule:evenodd;clip-rule:evenodd;fill:#EC008C;" cy="-14.977" cx="38.994" r="0.499"/>
  <circle style="fill-rule:evenodd;clip-rule:evenodd;fill:#EC008C;" cy="-14.977" cx="42.994" r="0.499"/>
  <circle style="fill-rule:evenodd;clip-rule:evenodd;fill:#EC008C;" cy="-14.977" cx="46.994" r="0.499"/>
  <circle style="fill-rule:evenodd;clip-rule:evenodd;fill:#EC008C;" cy="-14.977" cx="50.994" r="0.499"/>
  <circle style="fill-rule:evenodd;clip-rule:evenodd;fill:#EC008C;" cy="-14.977" cx="54.994" r="0.499"/>
  <circle style="fill-rule:evenodd;clip-rule:evenodd;fill:#EC008C;" cy="-10.977" cx="2.994" r="0.499"/>
  <circle style="fill-rule:evenodd;clip-rule:evenodd;fill:#EC008C;" cy="-10.977" cx="6.994" r="0.499"/>
  <circle style="fill-rule:evenodd;clip-rule:evenodd;fill:#EC008C;" cy="-10.977" cx="10.994" r="0.499"/>
  <circle style="fill-rule:evenodd;clip-rule:evenodd;fill:#EC008C;" cy="-10.977" cx="14.994" r="0.499"/>
  <circle style="fill:#EC008C;" cy="-10.977" cx="18.994" r="0.499"/>
  <circle style="fill-rule:evenodd;clip-rule:evenodd;fill:#EC008C;" cy="-10.977" cx="22.994" r="0.499"/>
  <circle style="fill-rule:evenodd;clip-rule:evenodd;fill:#EC008C;" cy="-10.977" cx="26.994" r="0.499"/>
  <circle style="fill-rule:evenodd;clip-rule:evenodd;fill:#EC008C;" cy="-10.977" cx="30.994" r="0.499"/>
  <circle style="fill-rule:evenodd;clip-rule:evenodd;fill:#EC008C;" cy="-10.977" cx="34.994" r="0.499"/>
  <circle style="fill-rule:evenodd;clip-rule:evenodd;fill:#EC008C;" cy="-10.977" cx="38.994" r="0.499"/>
  <circle style="fill-rule:evenodd;clip-rule:evenodd;fill:#EC008C;" cy="-10.977" cx="42.994" r="0.499"/>
  <circle style="fill-rule:evenodd;clip-rule:evenodd;fill:#EC008C;" cy="-10.977" cx="46.994" r="0.499"/>
  <circle style="fill-rule:evenodd;clip-rule:evenodd;fill:#EC008C;" cy="-10.977" cx="50.994" r="0.499"/>
  <circle style="fill-rule:evenodd;clip-rule:evenodd;fill:#EC008C;" cy="-10.977" cx="54.994" r="0.499"/>
  <circle style="fill-rule:evenodd;clip-rule:evenodd;fill:#EC008C;" cy="-6.977" cx="2.994" r="0.499"/>
  <circle style="fill-rule:evenodd;clip-rule:evenodd;fill:#EC008C;" cy="-6.977" cx="6.994" r="0.499"/>
  <circle style="fill-rule:evenodd;clip-rule:evenodd;fill:#EC008C;" cy="-6.977" cx="10.994" r="0.499"/>
  <circle style="fill-rule:evenodd;clip-rule:evenodd;fill:#EC008C;" cy="-6.977" cx="14.994" r="0.499"/>
  <circle style="fill-rule:evenodd;clip-rule:evenodd;fill:#EC008C;" cy="-6.977" cx="18.994" r="0.499"/>
  <circle style="fill-rule:evenodd;clip-rule:evenodd;fill:#EC008C;" cy="-6.977" cx="22.994" r="0.499"/>
  <circle style="fill-rule:evenodd;clip-rule:evenodd;fill:#EC008C;" cy="-6.977" cx="26.994" r="0.499"/>
  <circle style="fill-rule:evenodd;clip-rule:evenodd;fill:#EC008C;" cy="-6.977" cx="30.994" r="0.499"/>
  <circle style="fill-rule:evenodd;clip-rule:evenodd;fill:#EC008C;" cy="-6.977" cx="34.994" r="0.499"/>
  <circle style="fill-rule:evenodd;clip-rule:evenodd;fill:#EC008C;" cy="-6.977" cx="38.994" r="0.499"/>
  <circle style="fill-rule:evenodd;clip-rule:evenodd;fill:#EC008C;" cy="-6.977" cx="42.994" r="0.499"/>
  <circle style="fill-rule:evenodd;clip-rule:evenodd;fill:#EC008C;" cy="-6.977" cx="46.994" r="0.499"/>
  <circle style="fill-rule:evenodd;clip-rule:evenodd;fill:#EC008C;" cy="-6.977" cx="50.994" r="0.499"/>
  <circle style="fill-rule:evenodd;clip-rule:evenodd;fill:#EC008C;" cy="-6.977" cx="54.994" r="0.499"/>
  <circle style="fill-rule:evenodd;clip-rule:evenodd;fill:#EC008C;" cy="-2.977" cx="2.994" r="0.499"/>
  <circle style="fill-rule:evenodd;clip-rule:evenodd;fill:#EC008C;" cy="-2.977" cx="6.994" r="0.499"/>
  <circle style="fill-rule:evenodd;clip-rule:evenodd;fill:#EC008C;" cy="-2.977" cx="10.994" r="0.499"/>
  <circle style="fill-rule:evenodd;clip-rule:evenodd;fill:#EC008C;" cy="-2.977" cx="14.994" r="0.499"/>
  <circle style="fill-rule:evenodd;clip-rule:evenodd;fill:#EC008C;" cy="-2.977" cx="18.994" r="0.499"/>
  <circle style="fill-rule:evenodd;clip-rule:evenodd;fill:#EC008C;" cy="-2.977" cx="22.994" r="0.499"/>
  <circle style="fill-rule:evenodd;clip-rule:evenodd;fill:#EC008C;" cy="-2.977" cx="26.994" r="0.499"/>
  <circle style="fill-rule:evenodd;clip-rule:evenodd;fill:#EC008C;" cy="-2.977" cx="30.994" r="0.499"/>
  <circle style="fill-rule:evenodd;clip-rule:evenodd;fill:#EC008C;" cy="-2.977" cx="34.994" r="0.499"/>
  <circle style="fill-rule:evenodd;clip-rule:evenodd;fill:#EC008C;" cy="-2.977" cx="38.994" r="0.499"/>
  <circle style="fill-rule:evenodd;clip-rule:evenodd;fill:#EC008C;" cy="-2.977" cx="42.994" r="0.499"/>
  <circle style="fill-rule:evenodd;clip-rule:evenodd;fill:#EC008C;" cy="-2.977" cx="46.994" r="0.499"/>
  <circle style="fill-rule:evenodd;clip-rule:evenodd;fill:#EC008C;" cy="-2.977" cx="50.994" r="0.499"/>
  <circle style="fill-rule:evenodd;clip-rule:evenodd;fill:#EC008C;" cy="-2.977" cx="54.994" r="0.499"/>
 </g>
</svg>
