<?xml version="1.0"?>
<!-- Converted with SVG Converter - Version 0.9.5 (Compiled Fri Feb 21 09:53:38 2020) - Copyright (C) 2011 Nokia -->
<svg xmlns="http://www.w3.org/2000/svg" y="0px" width="72" version="1.1" height="72" viewBox="0 -72 72 72" baseProfile="tiny" x="0px" xml:space="preserve" xmlns:xlink="http://www.w3.org/1999/xlink">
 <g>
  <rect y="-72" width="72" height="72" style="fill:none;"/>
  <circle cy="-71" r="0.498" cx="5.98" style="fill:#ED1B2E;"/>
  <circle cy="-70.395" r="0.499" cx="8.667" style="fill:#ED1B2E;"/>
  <circle cy="-71.354" r="0.499" cx="12.833" style="fill:#ED1B2E;"/>
  <circle cy="-68.02" r="0.499" cx="7.5" style="fill:#ED1B2E;"/>
  <circle cy="-69.02" r="0.499" cx="4.5" style="fill:#ED1B2E;"/>
  <circle cy="-68.02" r="0.499" cx="0.666" style="fill:#ED1B2E;"/>
  <circle cy="-66.187" r="0.498" cx="3.667" style="fill:#ED1B2E;"/>
  <circle cy="-65.02" r="0.499" cx="6.333" style="fill:#ED1B2E;"/>
  <circle cy="-63.854" r="0.499" cx="9.5" style="fill:#ED1B2E;"/>
  <circle cy="-67.687" r="0.498" cx="11" style="fill:#ED1B2E;"/>
  <circle cy="-67.52" r="0.499" cx="14" style="fill:#ED1B2E;"/>
  <circle cy="-70.02" r="0.499" cx="16.167" style="fill:#ED1B2E;"/>
  <circle cy="-70.854" r="0.499" cx="19.333" style="fill:#ED1B2E;"/>
  <circle cy="-69.687" r="0.498" cx="21.333" style="fill:#ED1B2E;"/>
  <circle cy="-69.479" r="0.499" cx="24.75" style="fill:#ED1B2E;"/>
  <circle cy="-71.354" r="0.499" cx="26.5" style="fill:#ED1B2E;"/>
  <circle cy="-69.02" r="0.499" cx="28.333" style="fill:#ED1B2E;"/>
  <circle cy="-66.854" r="0.499" cx="26.333" style="fill:#ED1B2E;"/>
  <circle cy="-63.854" r="0.499" cx="24.5" style="fill:#ED1B2E;"/>
  <circle cy="-60.854" r="0.499" cx="22.667" style="fill:#ED1B2E;"/>
  <circle cy="-63.729" r="0.499" cx="20.875" style="fill:#ED1B2E;"/>
  <circle cy="-66.854" r="0.499" cx="22.875" style="fill:#ED1B2E;"/>
  <circle cy="-58.104" r="0.499" cx="22" style="fill:#ED1B2E;"/>
  <circle cy="-65.52" r="0.499" cx="19.833" style="fill:#ED1B2E;"/>
  <circle cy="-62.854" r="0.499" cx="18" style="fill:#ED1B2E;"/>
  <circle cy="-63.02" r="0.499" cx="15.333" style="fill:#ED1B2E;"/>
  <circle cy="-61.02" r="0.499" cx="14.5" style="fill:#ED1B2E;"/>
  <circle cy="-61.854" r="0.499" cx="11.667" style="fill:#ED1B2E;"/>
  <circle cy="-58.687" r="0.498" cx="11.5" style="fill:#ED1B2E;"/>
  <circle cy="-55.02" r="0.499" cx="10.5" style="fill:#ED1B2E;"/>
  <circle cy="-51.854" r="0.499" cx="9.667" style="fill:#ED1B2E;"/>
  <circle cy="-49.52" r="0.499" cx="9.833" style="fill:#ED1B2E;"/>
  <circle cy="-48.854" r="0.499" cx="6.667" style="fill:#ED1B2E;"/>
  <circle cy="-51.854" r="0.499" cx="7" style="fill:#ED1B2E;"/>
  <circle cy="-54.687" r="0.498" cx="7.5" style="fill:#ED1B2E;"/>
  <circle cy="-58.187" r="0.498" cx="7.833" style="fill:#ED1B2E;"/>
  <circle cy="-60.854" r="0.499" cx="8.5" style="fill:#ED1B2E;"/>
  <circle cy="-61.354" r="0.499" cx="5.333" style="fill:#ED1B2E;"/>
  <circle cy="-63.354" r="0.499" cx="2.667" style="fill:#ED1B2E;"/>
  <circle cy="-64.52" r="0.499" cx="0.833" style="fill:#ED1B2E;"/>
  <circle cy="-59.687" r="0.498" cx="1.333" style="fill:#ED1B2E;"/>
  <circle cy="-57.854" r="0.499" cx="4.333" style="fill:#ED1B2E;"/>
  <circle cy="-54.854" r="0.499" cx="3.333" style="fill:#ED1B2E;"/>
  <circle cy="-53.854" r="0.499" cx="1.5" style="fill:#ED1B2E;"/>
  <circle cy="-56.854" r="0.499" cx="1.166" style="fill:#ED1B2E;"/>
  <circle cy="-56.854" r="0.499" cx="13.333" style="fill:#ED1B2E;"/>
  <circle cy="-59.687" r="0.498" cx="17.333" style="fill:#ED1B2E;"/>
  <circle cy="-59.687" r="0.498" cx="19.5" style="fill:#ED1B2E;"/>
  <circle cy="-55.854" r="0.499" cx="19" style="fill:#ED1B2E;"/>
  <circle cy="-56.604" r="0.499" cx="16.875" style="fill:#ED1B2E;"/>
  <circle cy="-53.687" r="0.498" cx="18.833" style="fill:#ED1B2E;"/>
  <circle cy="-52.854" r="0.499" cx="15.5" style="fill:#ED1B2E;"/>
  <circle cy="-54.02" r="0.499" cx="13.167" style="fill:#ED1B2E;"/>
  <circle cy="-64.854" r="0.499" cx="13" style="fill:#ED1B2E;"/>
  <circle cy="-65.52" r="0.499" cx="16.667" style="fill:#ED1B2E;"/>
  <circle cy="-67.687" r="0.498" cx="18" style="fill:#ED1B2E;"/>
  <circle cy="-70.687" r="0.498" cx="31" style="fill:#ED1B2E;"/>
  <circle cy="-71.187" r="0.498" cx="33.833" style="fill:#ED1B2E;"/>
  <circle cy="-68.854" r="0.499" cx="34.5" style="fill:#ED1B2E;"/>
  <circle cy="-71.041" r="0.499" cx="37" style="fill:#ED1B2E;"/>
  <circle cy="-71.187" r="0.498" cx="40.333" style="fill:#ED1B2E;"/>
  <circle cy="-66.854" r="0.499" cx="32.125" style="fill:#ED1B2E;"/>
  <circle cy="-66.854" r="0.499" cx="29" style="fill:#ED1B2E;"/>
  <circle cy="-61.354" r="0.499" cx="27.833" style="fill:#ED1B2E;"/>
  <circle cy="-64.229" r="0.499" cx="29.667" style="fill:#ED1B2E;"/>
  <circle cy="-64.854" r="0.499" cx="27.5" style="fill:#ED1B2E;"/>
  <circle cy="-65.52" r="0.499" cx="34.167" style="fill:#ED1B2E;"/>
  <circle cy="-67.354" r="0.499" cx="37.167" style="fill:#ED1B2E;"/>
  <circle cy="-69.02" r="0.499" cx="40.5" style="fill:#ED1B2E;"/>
  <circle cy="-70.187" r="0.498" cx="43.333" style="fill:#ED1B2E;"/>
  <circle cy="-71.187" r="0.498" cx="46.5" style="fill:#ED1B2E;"/>
  <circle cy="-71.02" r="0.499" cx="50.333" style="fill:#ED1B2E;"/>
  <circle cy="-67.729" r="0.499" cx="46.167" style="fill:#ED1B2E;"/>
  <circle cy="-67.125" r="0.498" cx="43.021" style="fill:#ED1B2E;"/>
  <circle cy="-64.562" r="0.498" cx="40.833" style="fill:#ED1B2E;"/>
  <circle cy="-65.354" r="0.499" cx="38.333" style="fill:#ED1B2E;"/>
  <circle cy="-62.854" r="0.499" cx="37.75" style="fill:#ED1B2E;"/>
  <circle cy="-60.729" r="0.499" cx="34.5" style="fill:#ED1B2E;"/>
  <circle cy="-59.854" r="0.499" cx="31.333" style="fill:#ED1B2E;"/>
  <circle cy="-58.52" r="0.499" cx="28.333" style="fill:#ED1B2E;"/>
  <circle cy="-57.727" r="0.499" cx="33.5" style="fill:#ED1B2E;"/>
  <circle cy="-57.187" r="0.498" cx="29.667" style="fill:#ED1B2E;"/>
  <circle cy="-54.854" r="0.499" cx="27.667" style="fill:#ED1B2E;"/>
  <circle cy="-57.02" r="0.499" cx="25.167" style="fill:#ED1B2E;"/>
  <circle cy="-53.52" r="0.499" cx="25" style="fill:#ED1B2E;"/>
  <circle cy="-54.604" r="0.499" cx="23" style="fill:#ED1B2E;"/>
  <circle cy="-51.187" r="0.498" cx="24.667" style="fill:#ED1B2E;"/>
  <circle cy="-51.854" r="0.499" cx="27.5" style="fill:#ED1B2E;"/>
  <circle cy="-53.207" r="0.499" cx="30.854" style="fill:#ED1B2E;"/>
  <circle cy="-54.02" r="0.499" cx="33" style="fill:#ED1B2E;"/>
  <circle cy="-55.687" r="0.498" cx="32.167" style="fill:#ED1B2E;"/>
  <circle cy="-54.52" r="0.499" cx="35.667" style="fill:#ED1B2E;"/>
  <circle cy="-57.02" r="0.499" cx="36.167" style="fill:#ED1B2E;"/>
  <circle cy="-59.354" r="0.499" cx="37.667" style="fill:#ED1B2E;"/>
  <circle cy="-61.187" r="0.498" cx="40.333" style="fill:#ED1B2E;"/>
  <circle cy="-62.52" r="0.499" cx="43" style="fill:#ED1B2E;"/>
  <circle cy="-64.874" r="0.499" cx="44.313" style="fill:#ED1B2E;"/>
  <circle cy="-65.812" r="0.498" cx="48.083" style="fill:#ED1B2E;"/>
  <circle cy="-68.812" r="0.498" cx="49.083" style="fill:#ED1B2E;"/>
  <circle cy="-70.52" r="0.499" cx="53.167" style="fill:#ED1B2E;"/>
  <circle cy="-71.354" r="0.499" cx="56.5" style="fill:#ED1B2E;"/>
  <circle cy="-71.354" r="0.499" cx="62.167" style="fill:#ED1B2E;"/>
  <circle cy="-70.02" r="0.499" cx="59" style="fill:#ED1B2E;"/>
  <circle cy="-67.062" r="0.498" cx="57.5" style="fill:#ED1B2E;"/>
  <circle cy="-66.729" r="0.499" cx="54.125" style="fill:#ED1B2E;"/>
  <circle cy="-61.729" r="0.499" cx="64.166" style="fill:#ED1B2E;"/>
  <circle cy="-65.312" r="0.498" cx="50.833" style="fill:#ED1B2E;"/>
  <circle cy="-63.062" r="0.498" cx="32.167" style="fill:#ED1B2E;"/>
  <circle cy="-63.52" r="0.499" cx="35.167" style="fill:#ED1B2E;"/>
  <circle cy="-68.187" r="0.498" cx="52.333" style="fill:#ED1B2E;"/>
  <circle cy="-62.207" r="0.499" cx="45.687" style="fill:#ED1B2E;"/>
  <circle cy="-59.77" r="0.499" cx="43.333" style="fill:#ED1B2E;"/>
  <circle cy="-57.854" r="0.499" cx="40.667" style="fill:#ED1B2E;"/>
  <circle cy="-55.02" r="0.499" cx="38.667" style="fill:#ED1B2E;"/>
  <circle cy="-53.395" r="0.499" cx="41.833" style="fill:#ED1B2E;"/>
  <circle cy="-56.02" r="0.499" cx="43" style="fill:#ED1B2E;"/>
  <circle cy="-60.062" r="0.498" cx="48.5" style="fill:#ED1B2E;"/>
  <circle cy="-62.561" r="0.499" cx="50.333" style="fill:#ED1B2E;"/>
  <circle cy="-63.854" r="0.499" cx="48.167" style="fill:#ED1B2E;"/>
  <circle cy="-63.894" r="0.499" cx="53.333" style="fill:#ED1B2E;"/>
  <circle cy="-64.395" r="0.499" cx="56.5" style="fill:#ED1B2E;"/>
  <circle cy="-66.02" r="0.499" cx="59.5" style="fill:#ED1B2E;"/>
  <circle cy="-68.52" r="0.499" cx="61.333" style="fill:#ED1B2E;"/>
  <circle cy="-67.854" r="0.499" cx="65.333" style="fill:#ED1B2E;"/>
  <circle cy="-69.187" r="0.498" cx="63.833" style="fill:#ED1B2E;"/>
  <circle cy="-66.187" r="0.498" cx="62.5" style="fill:#ED1B2E;"/>
  <circle cy="-63.854" r="0.499" cx="59.667" style="fill:#ED1B2E;"/>
  <circle cy="-60.854" r="0.499" cx="56.5" style="fill:#ED1B2E;"/>
  <circle cy="-61.02" r="0.499" cx="53.333" style="fill:#ED1B2E;"/>
  <circle cy="-57.854" r="0.499" cx="47.333" style="fill:#ED1B2E;"/>
  <circle cy="-54.52" r="0.499" cx="47.167" style="fill:#ED1B2E;"/>
  <circle cy="-55.104" r="0.499" cx="44.75" style="fill:#ED1B2E;"/>
  <circle cy="-51.354" r="0.499" cx="44.875" style="fill:#ED1B2E;"/>
  <circle cy="-65.187" r="0.498" cx="65.166" style="fill:#ED1B2E;"/>
  <circle cy="-63.207" r="0.499" cx="62.313" style="fill:#ED1B2E;"/>
  <circle cy="-60.562" r="0.498" cx="60" style="fill:#ED1B2E;"/>
  <circle cy="-58.354" r="0.499" cx="57.167" style="fill:#ED1B2E;"/>
  <circle cy="-58.187" r="0.498" cx="54.5" style="fill:#ED1B2E;"/>
  <circle cy="-56.02" r="0.499" cx="52.5" style="fill:#ED1B2E;"/>
  <circle cy="-53.354" r="0.499" cx="49.833" style="fill:#ED1B2E;"/>
  <circle cy="-52.854" r="0.499" cx="52.667" style="fill:#ED1B2E;"/>
  <circle cy="-55.02" r="0.499" cx="54.833" style="fill:#ED1B2E;"/>
  <circle cy="-55.187" r="0.498" cx="57.5" style="fill:#ED1B2E;"/>
  <circle cy="-59.062" r="0.498" cx="62" style="fill:#ED1B2E;"/>
  <circle cy="-62.229" r="0.499" cx="67.833" style="fill:#ED1B2E;"/>
  <circle cy="-60.02" r="0.499" cx="66" style="fill:#ED1B2E;"/>
  <circle cy="-62.187" r="0.498" cx="71.5" style="fill:#ED1B2E;"/>
  <circle cy="-60.02" r="0.499" cx="68.5" style="fill:#ED1B2E;"/>
  <circle cy="-57.854" r="0.499" cx="66.5" style="fill:#ED1B2E;"/>
  <circle cy="-56.854" r="0.499" cx="69.5" style="fill:#ED1B2E;"/>
  <circle cy="-59.02" r="0.499" cx="71" style="fill:#ED1B2E;"/>
  <circle cy="-56.854" r="0.499" cx="63.333" style="fill:#ED1B2E;"/>
  <circle cy="-55.979" r="0.499" cx="60.625" style="fill:#ED1B2E;"/>
  <circle cy="-53.854" r="0.499" cx="61.25" style="fill:#ED1B2E;"/>
  <circle cy="-53.104" r="0.499" cx="58.5" style="fill:#ED1B2E;"/>
  <circle cy="-54.52" r="0.499" cx="64.333" style="fill:#ED1B2E;"/>
  <circle cy="-54.02" r="0.499" cx="67.5" style="fill:#ED1B2E;"/>
  <circle cy="-54.02" r="0.499" cx="70.666" style="fill:#ED1B2E;"/>
  <circle cy="-52.187" r="0.498" cx="68.5" style="fill:#ED1B2E;"/>
  <circle cy="-52.02" r="0.499" cx="65.5" style="fill:#ED1B2E;"/>
  <circle cy="-50.854" r="0.499" cx="62.5" style="fill:#ED1B2E;"/>
  <circle cy="-50.854" r="0.499" cx="59.167" style="fill:#ED1B2E;"/>
  <circle cy="-48.854" r="0.499" cx="60.333" style="fill:#ED1B2E;"/>
  <circle cy="-47.354" r="0.499" cx="67" style="fill:#ED1B2E;"/>
  <circle cy="-58.227" r="0.499" cx="51.5" style="fill:#ED1B2E;"/>
  <circle cy="-68.854" r="0.499" cx="54.833" style="fill:#ED1B2E;"/>
  <circle cy="-47.354" r="0.499" cx="57.75" style="fill:#ED1B2E;"/>
  <circle cy="-51.854" r="0.499" cx="55.75" style="fill:#ED1B2E;"/>
  <circle cy="-49.479" r="0.499" cx="52.75" style="fill:#ED1B2E;"/>
  <circle cy="-48.02" r="0.499" cx="54.667" style="fill:#ED1B2E;"/>
  <circle cy="-49.854" r="0.499" cx="57" style="fill:#ED1B2E;"/>
  <circle cy="-50.187" r="0.498" cx="50.333" style="fill:#ED1B2E;"/>
  <circle cy="-51.02" r="0.499" cx="47.167" style="fill:#ED1B2E;"/>
  <circle cy="-49.02" r="0.499" cx="44.333" style="fill:#ED1B2E;"/>
  <circle cy="-50.541" r="0.499" cx="41.313" style="fill:#ED1B2E;"/>
  <circle cy="-48.354" r="0.499" cx="40.125" style="fill:#ED1B2E;"/>
  <circle cy="-46.354" r="0.499" cx="41.833" style="fill:#ED1B2E;"/>
  <circle cy="-45.104" r="0.499" cx="37.167" style="fill:#ED1B2E;"/>
  <circle cy="-41.437" r="0.498" cx="31.167" style="fill:#ED1B2E;"/>
  <circle cy="-38.479" r="0.499" cx="27" style="fill:#ED1B2E;"/>
  <circle cy="-38.312" r="0.498" cx="18.833" style="fill:#ED1B2E;"/>
  <circle cy="-42.394" r="0.499" cx="22.833" style="fill:#ED1B2E;"/>
  <circle cy="-42.77" r="0.499" cx="14.167" style="fill:#ED1B2E;"/>
  <circle cy="-46.437" r="0.498" cx="11.667" style="fill:#ED1B2E;"/>
  <circle cy="-35.812" r="0.498" cx="23.583" style="fill:#ED1B2E;"/>
  <circle cy="-32.354" r="0.499" cx="21.5" style="fill:#ED1B2E;"/>
  <circle cy="-30.229" r="0.499" cx="24.125" style="fill:#ED1B2E;"/>
  <circle cy="-31.895" r="0.499" cx="19" style="fill:#ED1B2E;"/>
  <circle cy="-16.854" r="0.499" cx="13.333" style="fill:#ED1B2E;"/>
  <circle cy="-29.561" r="0.499" cx="18.167" style="fill:#ED1B2E;"/>
  <circle cy="-33.104" r="0.499" cx="13.5" style="fill:#ED1B2E;"/>
  <circle cy="-35.104" r="0.499" cx="9.75" style="fill:#ED1B2E;"/>
  <circle cy="-39.354" r="0.499" cx="10.25" style="fill:#ED1B2E;"/>
  <circle cy="-37.604" r="0.499" cx="4.875" style="fill:#ED1B2E;"/>
  <circle cy="-39.104" r="0.499" cx="1.625" style="fill:#ED1B2E;"/>
  <circle cy="-40.354" r="0.499" cx="5.375" style="fill:#ED1B2E;"/>
  <circle cy="-38.729" r="0.499" cx="7.5" style="fill:#ED1B2E;"/>
  <circle cy="-36.332" r="0.499" cx="12.854" style="fill:#ED1B2E;"/>
  <circle cy="-36.979" r="0.499" cx="15.375" style="fill:#ED1B2E;"/>
  <circle cy="-39.229" r="0.499" cx="13.375" style="fill:#ED1B2E;"/>
  <circle cy="-39.354" r="0.499" cx="16.5" style="fill:#ED1B2E;"/>
  <circle cy="-35.354" r="0.499" cx="17" style="fill:#ED1B2E;"/>
  <circle cy="-35.562" r="0.498" cx="20.167" style="fill:#ED1B2E;"/>
  <circle cy="-32.104" r="0.499" cx="24.625" style="fill:#ED1B2E;"/>
  <circle cy="-36.436" r="0.499" cx="29" style="fill:#ED1B2E;"/>
  <circle cy="-33.979" r="0.499" cx="31.875" style="fill:#ED1B2E;"/>
  <circle cy="-31.979" r="0.499" cx="30.875" style="fill:#ED1B2E;"/>
  <circle cy="-31.229" r="0.499" cx="33.375" style="fill:#ED1B2E;"/>
  <circle cy="-29.104" r="0.499" cx="33.75" style="fill:#ED1B2E;"/>
  <circle cy="-25.979" r="0.499" cx="32.625" style="fill:#ED1B2E;"/>
  <circle cy="-23.354" r="0.499" cx="32.25" style="fill:#ED1B2E;"/>
  <circle cy="-19.729" r="0.499" cx="33.875" style="fill:#ED1B2E;"/>
  <circle cy="-22.686" r="0.499" cx="36" style="fill:#ED1B2E;"/>
  <circle cy="-19.854" r="0.499" cx="38.125" style="fill:#ED1B2E;"/>
  <circle cy="-17.354" r="0.499" cx="36.125" style="fill:#ED1B2E;"/>
  <circle cy="-17.104" r="0.499" cx="42.5" style="fill:#ED1B2E;"/>
  <circle cy="-17.229" r="0.499" cx="39.375" style="fill:#ED1B2E;"/>
  <circle cy="-13.979" r="0.499" cx="37.375" style="fill:#ED1B2E;"/>
  <circle cy="-14.979" r="0.499" cx="33.5" style="fill:#ED1B2E;"/>
  <circle cy="-17.854" r="0.499" cx="32.375" style="fill:#ED1B2E;"/>
  <circle cy="-20.104" r="0.499" cx="30.875" style="fill:#ED1B2E;"/>
  <circle cy="-22.979" r="0.499" cx="29.75" style="fill:#ED1B2E;"/>
  <circle cy="-25.687" r="0.498" cx="29" style="fill:#ED1B2E;"/>
  <circle cy="-28.229" r="0.499" cx="30.625" style="fill:#ED1B2E;"/>
  <circle cy="-30.687" r="0.498" cx="27.167" style="fill:#ED1B2E;"/>
  <circle cy="-33.895" r="0.499" cx="28" style="fill:#ED1B2E;"/>
  <circle cy="-28.604" r="0.499" cx="27.75" style="fill:#ED1B2E;"/>
  <circle cy="-27.104" r="0.499" cx="25.375" style="fill:#ED1B2E;"/>
  <circle cy="-24.104" r="0.499" cx="26.375" style="fill:#ED1B2E;"/>
  <circle cy="-21.02" r="0.499" cx="26.5" style="fill:#ED1B2E;"/>
  <circle cy="-18.187" r="0.498" cx="27.833" style="fill:#ED1B2E;"/>
  <circle cy="-16.354" r="0.499" cx="29" style="fill:#ED1B2E;"/>
  <circle cy="-14.479" r="0.499" cx="30.125" style="fill:#ED1B2E;"/>
  <circle cy="-12.229" r="0.499" cx="28.75" style="fill:#ED1B2E;"/>
  <circle cy="-12.354" r="0.499" cx="25" style="fill:#ED1B2E;"/>
  <circle cy="-14.979" r="0.499" cx="22.5" style="fill:#ED1B2E;"/>
  <circle cy="-12.979" r="0.499" cx="20.5" style="fill:#ED1B2E;"/>
  <circle cy="-56.187" r="0.498" cx="49.333" style="fill:#ED1B2E;"/>
  <circle cy="-8.479" r="0.499" cx="17.25" style="fill:#ED1B2E;"/>
  <circle cy="-9.104" r="0.499" cx="20.375" style="fill:#ED1B2E;"/>
  <circle cy="-6.854" r="0.499" cx="21.333" style="fill:#ED1B2E;"/>
  <circle cy="-9.979" r="0.499" cx="23.25" style="fill:#ED1B2E;"/>
  <circle cy="-6.062" r="0.499" cx="18.5" style="fill:#ED1B2E;"/>
  <circle cy="-2.104" r="0.499" cx="16.25" style="fill:#ED1B2E;"/>
  <circle cy="-4.562" r="0.499" cx="14.833" style="fill:#ED1B2E;"/>
  <circle cy="-2.104" r="0.499" cx="11.5" style="fill:#ED1B2E;"/>
  <circle cy="-4.332" r="0.499" cx="10.021" style="fill:#ED1B2E;"/>
  <circle cy="-5.979" r="0.499" cx="12.5" style="fill:#ED1B2E;"/>
  <circle cy="-8.854" r="0.499" cx="13.5" style="fill:#ED1B2E;"/>
  <circle cy="-7.187" r="0.499" cx="14.5" style="fill:#ED1B2E;"/>
  <circle cy="-3.187" r="0.499" cx="17.833" style="fill:#ED1B2E;"/>
  <circle cy="-1.021" r="0.498" cx="19.5" style="fill:#ED1B2E;"/>
  <circle cy="-0.604" r="0.499" cx="8.75" style="fill:#ED1B2E;"/>
  <circle cy="-0.92" r="0.499" cx="14" style="fill:#ED1B2E;"/>
  <circle cy="-11.104" r="0.499" cx="9.5" style="fill:#ED1B2E;"/>
  <circle cy="-8.979" r="0.499" cx="11" style="fill:#ED1B2E;"/>
  <circle cy="-8.979" r="0.499" cx="7.375" style="fill:#ED1B2E;"/>
  <circle cy="-9.854" r="0.499" cx="4.75" style="fill:#ED1B2E;"/>
  <circle cy="-8.229" r="0.499" cx="2.25" style="fill:#ED1B2E;"/>
  <circle cy="-6.104" r="0.499" cx="4.375" style="fill:#ED1B2E;"/>
  <circle cy="-6.104" r="0.499" cx="8.125" style="fill:#ED1B2E;"/>
  <circle cy="-3.104" r="0.499" cx="7.25" style="fill:#ED1B2E;"/>
  <circle cy="-2.979" r="0.499" cx="4.5" style="fill:#ED1B2E;"/>
  <circle cy="-4.229" r="0.499" cx="2.25" style="fill:#ED1B2E;"/>
  <circle cy="-2.104" r="0.499" cx="0.5" style="fill:#ED1B2E;"/>
  <circle cy="-0.795" r="0.499" cx="3.635" style="fill:#ED1B2E;"/>
  <circle cy="-47.604" r="0.499" cx="15" style="fill:#ED1B2E;"/>
  <circle cy="-12.062" r="0.499" cx="13.333" style="fill:#ED1B2E;"/>
  <circle cy="-13.854" r="0.499" cx="11.167" style="fill:#ED1B2E;"/>
  <circle cy="-21.854" r="0.499" cx="9.5" style="fill:#ED1B2E;"/>
  <circle cy="-25.687" r="0.498" cx="9.5" style="fill:#ED1B2E;"/>
  <circle cy="-14.687" r="0.498" cx="14.167" style="fill:#ED1B2E;"/>
  <circle cy="-11.729" r="0.499" cx="16.5" style="fill:#ED1B2E;"/>
  <circle cy="-18.687" r="0.498" cx="15.667" style="fill:#ED1B2E;"/>
  <circle cy="-11.521" r="0.498" cx="21.167" style="fill:#ED1B2E;"/>
  <circle cy="-16.687" r="0.498" cx="18.667" style="fill:#ED1B2E;"/>
  <circle cy="-17.979" r="0.499" cx="21.375" style="fill:#ED1B2E;"/>
  <circle cy="-21.229" r="0.499" cx="21" style="fill:#ED1B2E;"/>
  <circle cy="-21.812" r="0.498" cx="15.583" style="fill:#ED1B2E;"/>
  <circle cy="-19.104" r="0.499" cx="18.375" style="fill:#ED1B2E;"/>
  <circle cy="-14.687" r="0.498" cx="17.333" style="fill:#ED1B2E;"/>
  <circle cy="-25.062" r="0.498" cx="15.083" style="fill:#ED1B2E;"/>
  <circle cy="-22.729" r="0.499" cx="18" style="fill:#ED1B2E;"/>
  <circle cy="-25.229" r="0.499" cx="20.667" style="fill:#ED1B2E;"/>
  <circle cy="-22.686" r="0.499" cx="23.375" style="fill:#ED1B2E;"/>
  <circle cy="-25.104" r="0.499" cx="23.375" style="fill:#ED1B2E;"/>
  <circle cy="-28.686" r="0.499" cx="21.25" style="fill:#ED1B2E;"/>
  <circle cy="-27.104" r="0.499" cx="18" style="fill:#ED1B2E;"/>
  <circle cy="-28.104" r="0.499" cx="15.25" style="fill:#ED1B2E;"/>
  <circle cy="-30.332" r="0.499" cx="12.75" style="fill:#ED1B2E;"/>
  <circle cy="-31.979" r="0.499" cx="10.5" style="fill:#ED1B2E;"/>
  <circle cy="-32.104" r="0.499" cx="6.75" style="fill:#ED1B2E;"/>
  <circle cy="-34.354" r="0.499" cx="7" style="fill:#ED1B2E;"/>
  <circle cy="-34.104" r="0.499" cx="4.625" style="fill:#ED1B2E;"/>
  <circle cy="-35.229" r="0.499" cx="1.5" style="fill:#ED1B2E;"/>
  <circle cy="-32.104" r="0.499" cx="2.5" style="fill:#ED1B2E;"/>
  <circle cy="-29.979" r="0.499" cx="3.5" style="fill:#ED1B2E;"/>
  <circle cy="-26.979" r="0.499" cx="5.25" style="fill:#ED1B2E;"/>
  <circle cy="-24.979" r="0.499" cx="7.125" style="fill:#ED1B2E;"/>
  <circle cy="-22.104" r="0.499" cx="12.375" style="fill:#ED1B2E;"/>
  <circle cy="-19.104" r="0.499" cx="12.5" style="fill:#ED1B2E;"/>
  <circle cy="-19.5" r="0.498" cx="9.771" style="fill:#ED1B2E;"/>
  <circle cy="-20.979" r="0.499" cx="7.375" style="fill:#ED1B2E;"/>
  <circle cy="-22.979" r="0.499" cx="5.5" style="fill:#ED1B2E;"/>
  <circle cy="-24.979" r="0.499" cx="3.375" style="fill:#ED1B2E;"/>
  <circle cy="-26.979" r="0.499" cx="1.5" style="fill:#ED1B2E;"/>
  <circle cy="-29.104" r="0.499" cx="7.375" style="fill:#ED1B2E;"/>
  <circle cy="-29.02" r="0.499" cx="10" style="fill:#ED1B2E;"/>
  <circle cy="-24.354" r="0.499" cx="12.167" style="fill:#ED1B2E;"/>
  <circle cy="-27.187" r="0.498" cx="12.333" style="fill:#ED1B2E;"/>
  <circle cy="-16.125" r="0.498" cx="7.396" style="fill:#ED1B2E;"/>
  <circle cy="-14.854" r="0.499" cx="4.5" style="fill:#ED1B2E;"/>
  <circle cy="-11.854" r="0.499" cx="2.5" style="fill:#ED1B2E;"/>
  <circle cy="-13.104" r="0.499" cx="0.659" style="fill:#ED1B2E;"/>
  <circle cy="-13.332" r="0.499" cx="6.021" style="fill:#ED1B2E;"/>
  <circle cy="-13.729" r="0.499" cx="9" style="fill:#ED1B2E;"/>
  <circle cy="-16.104" r="0.499" cx="10.625" style="fill:#ED1B2E;"/>
  <circle cy="-17.979" r="0.499" cx="5.375" style="fill:#ED1B2E;"/>
  <circle cy="-19.854" r="0.499" cx="3.25" style="fill:#ED1B2E;"/>
  <circle cy="-22.104" r="0.499" cx="1.25" style="fill:#ED1B2E;"/>
  <circle cy="-17.104" r="0.499" cx="2.25" style="fill:#ED1B2E;"/>
  <circle cy="-14.854" r="0.499" cx="26.25" style="fill:#ED1B2E;"/>
  <circle cy="-16.729" r="0.499" cx="25.25" style="fill:#ED1B2E;"/>
  <circle cy="-19.604" r="0.499" cx="23.625" style="fill:#ED1B2E;"/>
  <circle cy="-27.604" r="0.499" cx="39.125" style="fill:#ED1B2E;"/>
  <circle cy="-25.104" r="0.499" cx="40.375" style="fill:#ED1B2E;"/>
  <circle cy="-26.687" r="0.498" cx="43.167" style="fill:#ED1B2E;"/>
  <circle cy="-22.52" r="0.499" cx="42.5" style="fill:#ED1B2E;"/>
  <circle cy="-20.979" r="0.499" cx="45.5" style="fill:#ED1B2E;"/>
  <circle cy="-22.979" r="0.499" cx="48.375" style="fill:#ED1B2E;"/>
  <circle cy="-20.332" r="0.499" cx="49.146" style="fill:#ED1B2E;"/>
  <circle cy="-22.229" r="0.499" cx="51.5" style="fill:#ED1B2E;"/>
  <circle cy="-19.854" r="0.499" cx="54.5" style="fill:#ED1B2E;"/>
  <circle cy="-20.312" r="0.498" cx="57.833" style="fill:#ED1B2E;"/>
  <circle cy="-18.104" r="0.499" cx="59.375" style="fill:#ED1B2E;"/>
  <circle cy="-20.27" r="0.499" cx="62.667" style="fill:#ED1B2E;"/>
  <circle cy="-16.979" r="0.499" cx="65.625" style="fill:#ED1B2E;"/>
  <circle cy="-16.979" r="0.499" cx="69.375" style="fill:#ED1B2E;"/>
  <circle cy="-18.187" r="0.498" cx="71.333" style="fill:#ED1B2E;"/>
  <circle cy="-15.02" r="0.499" cx="71.166" style="fill:#ED1B2E;"/>
  <circle cy="-11.129" r="0.498" cx="71.341" style="fill:#ED1B2E;"/>
  <circle cy="-13.229" r="0.499" cx="68.5" style="fill:#ED1B2E;"/>
  <circle cy="-14.729" r="0.499" cx="65.625" style="fill:#ED1B2E;"/>
  <circle cy="-16.604" r="0.499" cx="61.833" style="fill:#ED1B2E;"/>
  <circle cy="-17.479" r="0.499" cx="56.375" style="fill:#ED1B2E;"/>
  <circle cy="-12.979" r="0.499" cx="62.375" style="fill:#ED1B2E;"/>
  <circle cy="-11.104" r="0.499" cx="65.5" style="fill:#ED1B2E;"/>
  <circle cy="-9.979" r="0.499" cx="68.75" style="fill:#ED1B2E;"/>
  <circle cy="-8.104" r="0.499" cx="71.5" style="fill:#ED1B2E;"/>
  <circle cy="-6.854" r="0.499" cx="68.375" style="fill:#ED1B2E;"/>
  <circle cy="-4.229" r="0.499" cx="71.125" style="fill:#ED1B2E;"/>
  <circle cy="-0.804" r="0.498" cx="54.014" style="fill:#ED1B2E;"/>
  <circle cy="-0.687" r="0.499" cx="67.833" style="fill:#ED1B2E;"/>
  <circle cy="-0.804" r="0.498" cx="60.815" style="fill:#ED1B2E;"/>
  <circle cy="-3.104" r="0.499" cx="69.5" style="fill:#ED1B2E;"/>
  <circle cy="-2.104" r="0.499" cx="63.375" style="fill:#ED1B2E;"/>
  <circle cy="-4.104" r="0.499" cx="65.375" style="fill:#ED1B2E;"/>
  <circle cy="-7.229" r="0.499" cx="65.625" style="fill:#ED1B2E;"/>
  <circle cy="-5.604" r="0.499" cx="62.5" style="fill:#ED1B2E;"/>
  <circle cy="-3.979" r="0.499" cx="60.5" style="fill:#ED1B2E;"/>
  <circle cy="-2.104" r="0.499" cx="58.25" style="fill:#ED1B2E;"/>
  <circle cy="-3.354" r="0.499" cx="55.625" style="fill:#ED1B2E;"/>
  <circle cy="-4.354" r="0.499" cx="52.25" style="fill:#ED1B2E;"/>
  <circle cy="-5.354" r="0.499" cx="49.375" style="fill:#ED1B2E;"/>
  <circle cy="-7.104" r="0.499" cx="45.375" style="fill:#ED1B2E;"/>
  <circle cy="-8.979" r="0.499" cx="48.25" style="fill:#ED1B2E;"/>
  <circle cy="-7.854" r="0.499" cx="51.5" style="fill:#ED1B2E;"/>
  <circle cy="-6.104" r="0.499" cx="54.25" style="fill:#ED1B2E;"/>
  <circle cy="-5.854" r="0.499" cx="57.375" style="fill:#ED1B2E;"/>
  <circle cy="-7.979" r="0.499" cx="59.75" style="fill:#ED1B2E;"/>
  <circle cy="-9.354" r="0.499" cx="62.25" style="fill:#ED1B2E;"/>
  <circle cy="-12.104" r="0.499" cx="59.5" style="fill:#ED1B2E;"/>
  <circle cy="-14.604" r="0.499" cx="57.625" style="fill:#ED1B2E;"/>
  <circle cy="-16.229" r="0.499" cx="54.125" style="fill:#ED1B2E;"/>
  <circle cy="-15.229" r="0.499" cx="51.5" style="fill:#ED1B2E;"/>
  <circle cy="-12.729" r="0.499" cx="48.625" style="fill:#ED1B2E;"/>
  <circle cy="-10.937" r="0.499" cx="45.5" style="fill:#ED1B2E;"/>
  <circle cy="-11.979" r="0.499" cx="42.25" style="fill:#ED1B2E;"/>
  <circle cy="-14.479" r="0.499" cx="42.125" style="fill:#ED1B2E;"/>
  <circle cy="-13.979" r="0.499" cx="45.375" style="fill:#ED1B2E;"/>
  <circle cy="-15.854" r="0.499" cx="48.375" style="fill:#ED1B2E;"/>
  <circle cy="-17.979" r="0.499" cx="46.5" style="fill:#ED1B2E;"/>
  <circle cy="-19.229" r="0.499" cx="43.625" style="fill:#ED1B2E;"/>
  <circle cy="-21.104" r="0.499" cx="40.375" style="fill:#ED1B2E;"/>
  <circle cy="-23.104" r="0.499" cx="38.375" style="fill:#ED1B2E;"/>
  <circle cy="-25.854" r="0.499" cx="36.375" style="fill:#ED1B2E;"/>
  <circle cy="-10.729" r="0.499" cx="51.625" style="fill:#ED1B2E;"/>
  <circle cy="-12.854" r="0.499" cx="53.375" style="fill:#ED1B2E;"/>
  <circle cy="-9.979" r="0.499" cx="54.25" style="fill:#ED1B2E;"/>
  <circle cy="-8.354" r="0.499" cx="56.5" style="fill:#ED1B2E;"/>
  <circle cy="-11.104" r="0.499" cx="56.5" style="fill:#ED1B2E;"/>
  <circle cy="-18.104" r="0.499" cx="51.375" style="fill:#ED1B2E;"/>
  <circle cy="-8.771" r="0.499" cx="43.125" style="fill:#ED1B2E;"/>
  <circle cy="-10" r="0.498" cx="40.771" style="fill:#ED1B2E;"/>
  <circle cy="-10.729" r="0.499" cx="36.5" style="fill:#ED1B2E;"/>
  <circle cy="-12.936" r="0.499" cx="35.25" style="fill:#ED1B2E;"/>
  <circle cy="-11.979" r="0.499" cx="31.875" style="fill:#ED1B2E;"/>
  <circle cy="-10.104" r="0.499" cx="29.375" style="fill:#ED1B2E;"/>
  <circle cy="-10.457" r="0.499" cx="26.521" style="fill:#ED1B2E;"/>
  <circle cy="-7.854" r="0.499" cx="23.875" style="fill:#ED1B2E;"/>
  <circle cy="-4.979" r="0.499" cx="22.5" style="fill:#ED1B2E;"/>
  <circle cy="-3.104" r="0.499" cx="20.25" style="fill:#ED1B2E;"/>
  <circle cy="-0.979" r="0.499" cx="23.625" style="fill:#ED1B2E;"/>
  <circle cy="-3.854" r="0.499" cx="25.5" style="fill:#ED1B2E;"/>
  <circle cy="-5.729" r="0.499" cx="28.375" style="fill:#ED1B2E;"/>
  <circle cy="-6.354" r="0.499" cx="25.833" style="fill:#ED1B2E;"/>
  <circle cy="-7.729" r="0.499" cx="31" style="fill:#ED1B2E;"/>
  <circle cy="-8.979" r="0.499" cx="32.75" style="fill:#ED1B2E;"/>
  <circle cy="-7.979" r="0.499" cx="38.5" style="fill:#ED1B2E;"/>
  <circle cy="-5.604" r="0.499" cx="44" style="fill:#ED1B2E;"/>
  <circle cy="-3.104" r="0.499" cx="47" style="fill:#ED1B2E;"/>
  <circle cy="-1.854" r="0.499" cx="50.183" style="fill:#ED1B2E;"/>
  <circle cy="-1.354" r="0.499" cx="45.25" style="fill:#ED1B2E;"/>
  <circle cy="-3.104" r="0.499" cx="42.375" style="fill:#ED1B2E;"/>
  <circle cy="-5.229" r="0.499" cx="40.125" style="fill:#ED1B2E;"/>
  <circle cy="-6.104" r="0.499" cx="37.125" style="fill:#ED1B2E;"/>
  <circle cy="-7.229" r="0.499" cx="34.625" style="fill:#ED1B2E;"/>
  <circle cy="-4.479" r="0.499" cx="32.75" style="fill:#ED1B2E;"/>
  <circle cy="-3.229" r="0.499" cx="29.625" style="fill:#ED1B2E;"/>
  <circle cy="-1.137" r="0.499" cx="27.793" style="fill:#ED1B2E;"/>
  <circle cy="-1.354" r="0.499" cx="30.5" style="fill:#ED1B2E;"/>
  <circle cy="-1.854" r="0.499" cx="34.25" style="fill:#ED1B2E;"/>
  <circle cy="-3.104" r="0.499" cx="38.25" style="fill:#ED1B2E;"/>
  <circle cy="-36.104" r="0.499" cx="34.5" style="fill:#ED1B2E;"/>
  <circle cy="-41.354" r="0.499" cx="40.125" style="fill:#ED1B2E;"/>
  <circle cy="-41.937" r="0.498" cx="36.833" style="fill:#ED1B2E;"/>
  <circle cy="-39.354" r="0.499" cx="42.125" style="fill:#ED1B2E;"/>
  <circle cy="-41.979" r="0.499" cx="44.5" style="fill:#ED1B2E;"/>
  <circle cy="-44.979" r="0.499" cx="46.375" style="fill:#ED1B2E;"/>
  <circle cy="-42.979" r="0.499" cx="50.375" style="fill:#ED1B2E;"/>
  <circle cy="-47.854" r="0.499" cx="48.375" style="fill:#ED1B2E;"/>
  <circle cy="-46.479" r="0.499" cx="50.125" style="fill:#ED1B2E;"/>
  <circle cy="-45.979" r="0.499" cx="52.875" style="fill:#ED1B2E;"/>
  <circle cy="-45.875" r="0.498" cx="55.396" style="fill:#ED1B2E;"/>
  <circle cy="-43.229" r="0.499" cx="55.125" style="fill:#ED1B2E;"/>
  <circle cy="-45.104" r="0.499" cx="59.125" style="fill:#ED1B2E;"/>
  <circle cy="-45.979" r="0.499" cx="61.5" style="fill:#ED1B2E;"/>
  <circle cy="-48.229" r="0.499" cx="64.5" style="fill:#ED1B2E;"/>
  <circle cy="-49.667" r="0.499" cx="67.771" style="fill:#ED1B2E;"/>
  <circle cy="-51.187" r="0.498" cx="70.833" style="fill:#ED1B2E;"/>
  <circle cy="-46.104" r="0.499" cx="69.25" style="fill:#ED1B2E;"/>
  <circle cy="-44.187" r="0.498" cx="70.833" style="fill:#ED1B2E;"/>
  <circle cy="-42.729" r="0.499" cx="68.625" style="fill:#ED1B2E;"/>
  <circle cy="-41.52" r="0.499" cx="70.833" style="fill:#ED1B2E;"/>
  <circle cy="-44.979" r="0.499" cx="65.25" style="fill:#ED1B2E;"/>
  <circle cy="-43.979" r="0.499" cx="63.5" style="fill:#ED1B2E;"/>
  <circle cy="-41.354" r="0.499" cx="62.167" style="fill:#ED1B2E;"/>
  <circle cy="-42.854" r="0.499" cx="60.375" style="fill:#ED1B2E;"/>
  <circle cy="-40.979" r="0.499" cx="58.375" style="fill:#ED1B2E;"/>
  <circle cy="-39.604" r="0.499" cx="55.5" style="fill:#ED1B2E;"/>
  <circle cy="-41.604" r="0.499" cx="52.625" style="fill:#ED1B2E;"/>
  <circle cy="-42.604" r="0.499" cx="48" style="fill:#ED1B2E;"/>
  <circle cy="-40.354" r="0.499" cx="45.875" style="fill:#ED1B2E;"/>
  <circle cy="-37.104" r="0.499" cx="43.375" style="fill:#ED1B2E;"/>
  <circle cy="-35.104" r="0.499" cx="42" style="fill:#ED1B2E;"/>
  <circle cy="-32.229" r="0.499" cx="40.5" style="fill:#ED1B2E;"/>
  <circle cy="-29.729" r="0.499" cx="43.5" style="fill:#ED1B2E;"/>
  <circle cy="-30.854" r="0.499" cx="45.167" style="fill:#ED1B2E;"/>
  <circle cy="-32.104" r="0.499" cx="47.5" style="fill:#ED1B2E;"/>
  <circle cy="-33.354" r="0.499" cx="44.375" style="fill:#ED1B2E;"/>
  <circle cy="-35.979" r="0.499" cx="45.5" style="fill:#ED1B2E;"/>
  <circle cy="-38.604" r="0.499" cx="47.125" style="fill:#ED1B2E;"/>
  <circle cy="-36.104" r="0.499" cx="50.375" style="fill:#ED1B2E;"/>
  <circle cy="-33.979" r="0.499" cx="48.25" style="fill:#ED1B2E;"/>
  <circle cy="-32.832" r="0.499" cx="52.354" style="fill:#ED1B2E;"/>
  <circle cy="-30.229" r="0.499" cx="49.875" style="fill:#ED1B2E;"/>
  <circle cy="-30.104" r="0.499" cx="53.375" style="fill:#ED1B2E;"/>
  <circle cy="-28.332" r="0.499" cx="51.979" style="fill:#ED1B2E;"/>
  <circle cy="-26.979" r="0.499" cx="55.125" style="fill:#ED1B2E;"/>
  <circle cy="-26.229" r="0.499" cx="58.125" style="fill:#ED1B2E;"/>
  <circle cy="-27.979" r="0.499" cx="61.5" style="fill:#ED1B2E;"/>
  <circle cy="-26.979" r="0.499" cx="64.625" style="fill:#ED1B2E;"/>
  <circle cy="-24.979" r="0.499" cx="67.875" style="fill:#ED1B2E;"/>
  <circle cy="-25.104" r="0.499" cx="70.25" style="fill:#ED1B2E;"/>
  <circle cy="-22.854" r="0.499" cx="70.875" style="fill:#ED1B2E;"/>
  <circle cy="-20.104" r="0.499" cx="69.375" style="fill:#ED1B2E;"/>
  <circle cy="-21.354" r="0.499" cx="65.666" style="fill:#ED1B2E;"/>
  <circle cy="-22.229" r="0.499" cx="67.375" style="fill:#ED1B2E;"/>
  <circle cy="-23.104" r="0.499" cx="63.5" style="fill:#ED1B2E;"/>
  <circle cy="-24.854" r="0.499" cx="61.125" style="fill:#ED1B2E;"/>
  <circle cy="-22.104" r="0.499" cx="59.625" style="fill:#ED1B2E;"/>
  <circle cy="-23.229" r="0.499" cx="56.375" style="fill:#ED1B2E;"/>
  <circle cy="-23.354" r="0.499" cx="54.25" style="fill:#ED1B2E;"/>
  <circle cy="-24.979" r="0.499" cx="51.5" style="fill:#ED1B2E;"/>
  <circle cy="-27.104" r="0.499" cx="48.5" style="fill:#ED1B2E;"/>
  <circle cy="-25.729" r="0.499" cx="45.625" style="fill:#ED1B2E;"/>
  <circle cy="-28.354" r="0.499" cx="46.667" style="fill:#ED1B2E;"/>
  <circle cy="-29.354" r="0.499" cx="40.25" style="fill:#ED1B2E;"/>
  <circle cy="-33.104" r="0.499" cx="36.375" style="fill:#ED1B2E;"/>
  <circle cy="-30.104" r="0.499" cx="36.125" style="fill:#ED1B2E;"/>
  <circle cy="-26.687" r="0.498" cx="34.333" style="fill:#ED1B2E;"/>
  <circle cy="-35.354" r="0.499" cx="37.625" style="fill:#ED1B2E;"/>
  <circle cy="-37.354" r="0.499" cx="39.333" style="fill:#ED1B2E;"/>
  <circle cy="-40.104" r="0.499" cx="50.5" style="fill:#ED1B2E;"/>
  <circle cy="-38.729" r="0.499" cx="52" style="fill:#ED1B2E;"/>
  <circle cy="-34.354" r="0.499" cx="54.5" style="fill:#ED1B2E;"/>
  <circle cy="-36.354" r="0.499" cx="56.875" style="fill:#ED1B2E;"/>
  <circle cy="-37.979" r="0.499" cx="58.25" style="fill:#ED1B2E;"/>
  <circle cy="-39.104" r="0.499" cx="60.375" style="fill:#ED1B2E;"/>
  <circle cy="-39.354" r="0.499" cx="64.375" style="fill:#ED1B2E;"/>
  <circle cy="-41.229" r="0.499" cx="66.375" style="fill:#ED1B2E;"/>
  <circle cy="-40.229" r="0.499" cx="69.5" style="fill:#ED1B2E;"/>
  <circle cy="-37.104" r="0.499" cx="67.5" style="fill:#ED1B2E;"/>
  <circle cy="-36.229" r="0.499" cx="71" style="fill:#ED1B2E;"/>
  <circle cy="-33.354" r="0.499" cx="70.375" style="fill:#ED1B2E;"/>
  <circle cy="-27.52" r="0.499" cx="71.166" style="fill:#ED1B2E;"/>
  <circle cy="-35.229" r="0.499" cx="65.5" style="fill:#ED1B2E;"/>
  <circle cy="-37.354" r="0.499" cx="62" style="fill:#ED1B2E;"/>
  <circle cy="-35.104" r="0.499" cx="60.25" style="fill:#ED1B2E;"/>
  <circle cy="-33.104" r="0.499" cx="57.625" style="fill:#ED1B2E;"/>
  <circle cy="-31.104" r="0.499" cx="55" style="fill:#ED1B2E;"/>
  <circle cy="-30.104" r="0.499" cx="58.375" style="fill:#ED1B2E;"/>
  <circle cy="-28.354" r="0.499" cx="56.667" style="fill:#ED1B2E;"/>
  <circle cy="-24.187" r="0.498" cx="44.667" style="fill:#ED1B2E;"/>
  <circle cy="-32.229" r="0.499" cx="61" style="fill:#ED1B2E;"/>
  <circle cy="-33.854" r="0.499" cx="63.375" style="fill:#ED1B2E;"/>
  <circle cy="-30.979" r="0.499" cx="65.875" style="fill:#ED1B2E;"/>
  <circle cy="-32.479" r="0.499" cx="67.625" style="fill:#ED1B2E;"/>
  <circle cy="-29.854" r="0.499" cx="63.75" style="fill:#ED1B2E;"/>
  <circle cy="-27.979" r="0.499" cx="67.25" style="fill:#ED1B2E;"/>
  <circle cy="-28.854" r="0.499" cx="69.625" style="fill:#ED1B2E;"/>
  <circle cy="-44.104" r="0.499" cx="40.625" style="fill:#ED1B2E;"/>
  <circle cy="-46.104" r="0.499" cx="44.125" style="fill:#ED1B2E;"/>
  <circle cy="-39.02" r="0.499" cx="35.333" style="fill:#ED1B2E;"/>
  <circle cy="-38.604" r="0.499" cx="32.167" style="fill:#ED1B2E;"/>
  <circle cy="-38.104" r="0.499" cx="22.25" style="fill:#ED1B2E;"/>
  <circle cy="-34.812" r="0.498" cx="25.583" style="fill:#ED1B2E;"/>
  <circle cy="-33.02" r="0.499" cx="16" style="fill:#ED1B2E;"/>
  <circle cy="-30.52" r="0.499" cx="15.5" style="fill:#ED1B2E;"/>
  <circle cy="-43.332" r="0.499" cx="33.604" style="fill:#ED1B2E;"/>
  <circle cy="-47.729" r="0.499" cx="37.375" style="fill:#ED1B2E;"/>
  <circle cy="-46.729" r="0.499" cx="34.5" style="fill:#ED1B2E;"/>
  <circle cy="-44.729" r="0.499" cx="32.625" style="fill:#ED1B2E;"/>
  <circle cy="-43.979" r="0.499" cx="29.5" style="fill:#ED1B2E;"/>
  <circle cy="-41.729" r="0.499" cx="27.375" style="fill:#ED1B2E;"/>
  <circle cy="-40.311" r="0.499" cx="24.875" style="fill:#ED1B2E;"/>
  <circle cy="-43.854" r="0.499" cx="24.5" style="fill:#ED1B2E;"/>
  <circle cy="-40.812" r="0.498" cx="20.083" style="fill:#ED1B2E;"/>
  <circle cy="-52.02" r="0.499" cx="38.667" style="fill:#ED1B2E;"/>
  <circle cy="-50.625" r="0.498" cx="35.896" style="fill:#ED1B2E;"/>
  <circle cy="-50.687" r="0.498" cx="32.5" style="fill:#ED1B2E;"/>
  <circle cy="-47.854" r="0.499" cx="31.5" style="fill:#ED1B2E;"/>
  <circle cy="-49" r="0.498" cx="33.98" style="fill:#ED1B2E;"/>
  <circle cy="-47.104" r="0.499" cx="28.625" style="fill:#ED1B2E;"/>
  <circle cy="-45.02" r="0.499" cx="26.833" style="fill:#ED1B2E;"/>
  <circle cy="-50.02" r="0.499" cx="29.833" style="fill:#ED1B2E;"/>
  <circle cy="-48.187" r="0.498" cx="27.167" style="fill:#ED1B2E;"/>
  <circle cy="-47.02" r="0.499" cx="24.5" style="fill:#ED1B2E;"/>
  <circle cy="-45.729" r="0.499" cx="21.25" style="fill:#ED1B2E;"/>
  <circle cy="-43.687" r="0.498" cx="18.333" style="fill:#ED1B2E;"/>
  <circle cy="-45.062" r="0.498" cx="14.833" style="fill:#ED1B2E;"/>
  <circle cy="-44.604" r="0.499" cx="10" style="fill:#ED1B2E;"/>
  <circle cy="-46.229" r="0.499" cx="7.5" style="fill:#ED1B2E;"/>
  <circle cy="-48.354" r="0.499" cx="3.5" style="fill:#ED1B2E;"/>
  <circle cy="-46.02" r="0.499" cx="1" style="fill:#ED1B2E;"/>
  <circle cy="-45.104" r="0.499" cx="3.375" style="fill:#ED1B2E;"/>
  <circle cy="-42.979" r="0.499" cx="2.375" style="fill:#ED1B2E;"/>
  <circle cy="-42.979" r="0.499" cx="6.375" style="fill:#ED1B2E;"/>
  <circle cy="-42.104" r="0.499" cx="9.5" style="fill:#ED1B2E;"/>
  <circle cy="-40.979" r="0.499" cx="12.5" style="fill:#ED1B2E;"/>
  <circle cy="-41.77" r="0.499" cx="16.667" style="fill:#ED1B2E;"/>
  <circle cy="-46.52" r="0.499" cx="18.5" style="fill:#ED1B2E;"/>
  <circle cy="-49.229" r="0.499" cx="22" style="fill:#ED1B2E;"/>
  <circle cy="-49.854" r="0.499" cx="18.667" style="fill:#ED1B2E;"/>
  <circle cy="-51.104" r="0.499" cx="20.75" style="fill:#ED1B2E;"/>
  <circle cy="-49.687" r="0.498" cx="15.833" style="fill:#ED1B2E;"/>
  <circle cy="-50.02" r="0.499" cx="12.5" style="fill:#ED1B2E;"/>
  <circle cy="-51.187" r="0.498" cx="3.5" style="fill:#ED1B2E;"/>
  <circle cy="-49.687" r="0.498" cx="0.5" style="fill:#ED1B2E;"/>
  <circle cy="-64.854" r="0.499" cx="68.166" style="fill:#ED1B2E;"/>
  <circle cy="-67.687" r="0.498" cx="67.833" style="fill:#ED1B2E;"/>
  <circle cy="-66.52" r="0.499" cx="71" style="fill:#ED1B2E;"/>
  <circle cy="-71.354" r="0.499" cx="65" style="fill:#ED1B2E;"/>
  <circle cy="-70.187" r="0.498" cx="68.166" style="fill:#ED1B2E;"/>
  <circle cy="-69.687" r="0.498" cx="71" style="fill:#ED1B2E;"/>
  <circle cy="-0.854" r="0.499" cx="37.401" style="fill:#ED1B2E;"/>
  <circle cy="-1.137" r="0.499" cx="41.351" style="fill:#ED1B2E;"/>
  <circle cy="-59.479" r="0.499" cx="26.5" style="fill:#ED1B2E;"/>
  <circle cy="-61.667" r="0.499" cx="25.313" style="fill:#ED1B2E;"/>
  <circle cy="-71.02" r="0.499" cx="2.167" style="fill:#ED1B2E;"/>
 </g>
</svg>
