<?xml version="1.0"?>
<!-- Converted with SVG Converter - Version 0.9.5 (Compiled Fri Feb 21 09:53:38 2020) - Copyright (C) 2011 Nokia -->
<svg xmlns="http://www.w3.org/2000/svg" xml:space="preserve" width="72.857" baseProfile="tiny" x="0px" y="0px" version="1.1" viewBox="0 -72.857 72.857 72.857" height="72.857" xmlns:xlink="http://www.w3.org/1999/xlink">
 <g>
  <rect style="fill:none;" width="72.857" x="0" y="-72.857" height="72.857"/>
  <line style="fill-rule:evenodd;clip-rule:evenodd;fill:none;stroke:#00AEEF;stroke-width:0.43;" y1="-72.857" y2="0" x1="0.794" x2="0.794"/>
  <line style="fill-rule:evenodd;clip-rule:evenodd;fill:none;stroke:#00AEEF;stroke-width:0.43;" y1="-72.857" y2="0" x1="2.378" x2="2.378"/>
  <line style="fill-rule:evenodd;clip-rule:evenodd;fill:none;stroke:#00AEEF;stroke-width:0.43;" y1="-72.857" y2="0" x1="3.961" x2="3.961"/>
  <line style="fill-rule:evenodd;clip-rule:evenodd;fill:none;stroke:#00AEEF;stroke-width:0.43;" y1="-72.857" y2="0" x1="5.544" x2="5.544"/>
  <line style="fill-rule:evenodd;clip-rule:evenodd;fill:none;stroke:#00AEEF;stroke-width:0.43;" y1="-72.857" y2="0" x1="7.127" x2="7.127"/>
  <line style="fill-rule:evenodd;clip-rule:evenodd;fill:none;stroke:#00AEEF;stroke-width:0.43;" y1="-72.857" y2="0" x1="8.71" x2="8.71"/>
  <line style="fill-rule:evenodd;clip-rule:evenodd;fill:none;stroke:#00AEEF;stroke-width:0.43;" y1="-72.857" y2="0" x1="10.293" x2="10.293"/>
  <line style="fill-rule:evenodd;clip-rule:evenodd;fill:none;stroke:#00AEEF;stroke-width:0.43;" y1="-72.857" y2="0" x1="11.877" x2="11.877"/>
  <line style="fill-rule:evenodd;clip-rule:evenodd;fill:none;stroke:#00AEEF;stroke-width:0.43;" y1="-72.857" y2="0" x1="13.46" x2="13.46"/>
  <line style="fill-rule:evenodd;clip-rule:evenodd;fill:none;stroke:#00AEEF;stroke-width:0.43;" y1="-72.857" y2="0" x1="15.043" x2="15.043"/>
  <line style="fill-rule:evenodd;clip-rule:evenodd;fill:none;stroke:#00AEEF;stroke-width:0.43;" y1="-72.857" y2="0" x1="16.626" x2="16.626"/>
  <line style="fill-rule:evenodd;clip-rule:evenodd;fill:none;stroke:#00AEEF;stroke-width:0.43;" y1="-72.857" y2="0" x1="18.209" x2="18.209"/>
  <line style="fill-rule:evenodd;clip-rule:evenodd;fill:none;stroke:#00AEEF;stroke-width:0.43;" y1="-72.857" y2="0" x1="19.792" x2="19.792"/>
  <line style="fill-rule:evenodd;clip-rule:evenodd;fill:none;stroke:#00AEEF;stroke-width:0.43;" y1="-72.857" y2="0" x1="21.375" x2="21.375"/>
  <line style="fill-rule:evenodd;clip-rule:evenodd;fill:none;stroke:#00AEEF;stroke-width:0.43;" y1="-72.857" y2="0" x1="22.958" x2="22.958"/>
  <line style="fill-rule:evenodd;clip-rule:evenodd;fill:none;stroke:#00AEEF;stroke-width:0.43;" y1="-72.857" y2="0" x1="24.542" x2="24.542"/>
  <line style="fill-rule:evenodd;clip-rule:evenodd;fill:none;stroke:#00AEEF;stroke-width:0.43;" y1="-72.857" y2="0" x1="26.125" x2="26.125"/>
  <line style="fill-rule:evenodd;clip-rule:evenodd;fill:none;stroke:#00AEEF;stroke-width:0.43;" y1="-72.857" y2="0" x1="27.708" x2="27.708"/>
  <line style="fill-rule:evenodd;clip-rule:evenodd;fill:none;stroke:#00AEEF;stroke-width:0.43;" y1="-72.857" y2="0" x1="29.291" x2="29.291"/>
  <line style="fill-rule:evenodd;clip-rule:evenodd;fill:none;stroke:#00AEEF;stroke-width:0.43;" y1="-72.857" y2="0" x1="30.874" x2="30.874"/>
  <line style="fill-rule:evenodd;clip-rule:evenodd;fill:none;stroke:#00AEEF;stroke-width:0.43;" y1="-72.857" y2="0" x1="32.457" x2="32.457"/>
  <line style="fill-rule:evenodd;clip-rule:evenodd;fill:none;stroke:#00AEEF;stroke-width:0.43;" y1="-72.857" y2="0" x1="34.041" x2="34.041"/>
  <line style="fill-rule:evenodd;clip-rule:evenodd;fill:none;stroke:#00AEEF;stroke-width:0.43;" y1="-72.857" y2="0" x1="35.624" x2="35.624"/>
  <line style="fill-rule:evenodd;clip-rule:evenodd;fill:none;stroke:#00AEEF;stroke-width:0.43;" y1="-72.857" y2="0" x1="37.207" x2="37.207"/>
  <line style="fill-rule:evenodd;clip-rule:evenodd;fill:none;stroke:#00AEEF;stroke-width:0.43;" y1="-72.857" y2="0" x1="38.79" x2="38.79"/>
  <line style="fill-rule:evenodd;clip-rule:evenodd;fill:none;stroke:#00AEEF;stroke-width:0.43;" y1="-72.857" y2="0" x1="40.373" x2="40.373"/>
  <line style="fill-rule:evenodd;clip-rule:evenodd;fill:none;stroke:#00AEEF;stroke-width:0.43;" y1="-72.857" y2="0" x1="41.956" x2="41.956"/>
  <line style="fill-rule:evenodd;clip-rule:evenodd;fill:none;stroke:#00AEEF;stroke-width:0.43;" y1="-72.857" y2="0" x1="43.539" x2="43.539"/>
  <line style="fill-rule:evenodd;clip-rule:evenodd;fill:none;stroke:#00AEEF;stroke-width:0.43;" y1="-72.857" y2="0" x1="45.122" x2="45.122"/>
  <line style="fill-rule:evenodd;clip-rule:evenodd;fill:none;stroke:#00AEEF;stroke-width:0.43;" y1="-72.857" y2="0" x1="46.706" x2="46.706"/>
  <line style="fill-rule:evenodd;clip-rule:evenodd;fill:none;stroke:#00AEEF;stroke-width:0.43;" y1="-72.857" y2="0" x1="48.289" x2="48.289"/>
  <line style="fill-rule:evenodd;clip-rule:evenodd;fill:none;stroke:#00AEEF;stroke-width:0.43;" y1="-72.857" y2="0" x1="49.872" x2="49.872"/>
  <line style="fill-rule:evenodd;clip-rule:evenodd;fill:none;stroke:#00AEEF;stroke-width:0.43;" y1="-72.857" y2="0" x1="51.455" x2="51.455"/>
  <line style="fill-rule:evenodd;clip-rule:evenodd;fill:none;stroke:#00AEEF;stroke-width:0.43;" y1="-72.857" y2="0" x1="53.038" x2="53.038"/>
  <line style="fill-rule:evenodd;clip-rule:evenodd;fill:none;stroke:#00AEEF;stroke-width:0.43;" y1="-72.857" y2="0" x1="54.621" x2="54.621"/>
  <line style="fill-rule:evenodd;clip-rule:evenodd;fill:none;stroke:#00AEEF;stroke-width:0.43;" y1="-72.857" y2="0" x1="56.204" x2="56.204"/>
  <line style="fill-rule:evenodd;clip-rule:evenodd;fill:none;stroke:#00AEEF;stroke-width:0.43;" y1="-72.857" y2="0" x1="57.787" x2="57.787"/>
  <line style="fill-rule:evenodd;clip-rule:evenodd;fill:none;stroke:#00AEEF;stroke-width:0.43;" y1="-72.857" y2="0" x1="59.371" x2="59.371"/>
  <line style="fill-rule:evenodd;clip-rule:evenodd;fill:none;stroke:#00AEEF;stroke-width:0.43;" y1="-72.857" y2="0" x1="60.954" x2="60.954"/>
  <line style="fill-rule:evenodd;clip-rule:evenodd;fill:none;stroke:#00AEEF;stroke-width:0.43;" y1="-72.857" y2="0" x1="62.537" x2="62.537"/>
  <line style="fill-rule:evenodd;clip-rule:evenodd;fill:none;stroke:#00AEEF;stroke-width:0.43;" y1="-72.857" y2="0" x1="64.12" x2="64.12"/>
  <line style="fill-rule:evenodd;clip-rule:evenodd;fill:none;stroke:#00AEEF;stroke-width:0.43;" y1="-72.857" y2="0" x1="65.703" x2="65.703"/>
  <line style="fill:none;stroke:#00AEEF;stroke-width:0.43;" y1="-72.857" y2="0" x1="67.286" x2="67.286"/>
  <line style="fill-rule:evenodd;clip-rule:evenodd;fill:none;stroke:#00AEEF;stroke-width:0.43;" y1="-72.857" y2="0" x1="68.869" x2="68.869"/>
  <line style="fill-rule:evenodd;clip-rule:evenodd;fill:none;stroke:#00AEEF;stroke-width:0.43;" y1="-72.857" y2="0" x1="70.452" x2="70.452"/>
  <line style="fill-rule:evenodd;clip-rule:evenodd;fill:none;stroke:#00AEEF;stroke-width:0.43;" y1="-72.857" y2="0" x1="72.045" x2="72.045"/>
 </g>
</svg>
