<?xml version="1.0"?>
<!-- Converted with SVG Converter - Version 0.9.5 (Compiled Fri Feb 21 09:53:38 2020) - Copyright (C) 2011 Nokia -->
<svg xmlns="http://www.w3.org/2000/svg" viewBox="0 -72.857 72.857 72.857" baseProfile="tiny" y="0px" xml:space="preserve" x="0px" version="1.1" xmlns:xlink="http://www.w3.org/1999/xlink" height="72.857" width="72.857">
 <g>
  <rect y="-72.857" style="fill:none;" x="0" height="72.857" width="72.857"/>
  <line x1="0.794" y2="0" style="fill-rule:evenodd;clip-rule:evenodd;fill:none;stroke:#EC008C;stroke-width:0.43;" x2="0.794" y1="-72.857"/>
  <line x1="2.378" y2="0" style="fill-rule:evenodd;clip-rule:evenodd;fill:none;stroke:#EC008C;stroke-width:0.43;" x2="2.378" y1="-72.857"/>
  <line x1="3.961" y2="0" style="fill-rule:evenodd;clip-rule:evenodd;fill:none;stroke:#EC008C;stroke-width:0.43;" x2="3.961" y1="-72.857"/>
  <line x1="5.544" y2="0" style="fill-rule:evenodd;clip-rule:evenodd;fill:none;stroke:#EC008C;stroke-width:0.43;" x2="5.544" y1="-72.857"/>
  <line x1="7.127" y2="0" style="fill-rule:evenodd;clip-rule:evenodd;fill:none;stroke:#EC008C;stroke-width:0.43;" x2="7.127" y1="-72.857"/>
  <line x1="8.71" y2="0" style="fill-rule:evenodd;clip-rule:evenodd;fill:none;stroke:#EC008C;stroke-width:0.43;" x2="8.71" y1="-72.857"/>
  <line x1="10.293" y2="0" style="fill-rule:evenodd;clip-rule:evenodd;fill:none;stroke:#EC008C;stroke-width:0.43;" x2="10.293" y1="-72.857"/>
  <line x1="11.877" y2="0" style="fill-rule:evenodd;clip-rule:evenodd;fill:none;stroke:#EC008C;stroke-width:0.43;" x2="11.877" y1="-72.857"/>
  <line x1="13.46" y2="0" style="fill-rule:evenodd;clip-rule:evenodd;fill:none;stroke:#EC008C;stroke-width:0.43;" x2="13.46" y1="-72.857"/>
  <line x1="15.043" y2="0" style="fill-rule:evenodd;clip-rule:evenodd;fill:none;stroke:#EC008C;stroke-width:0.43;" x2="15.043" y1="-72.857"/>
  <line x1="16.626" y2="0" style="fill-rule:evenodd;clip-rule:evenodd;fill:none;stroke:#EC008C;stroke-width:0.43;" x2="16.626" y1="-72.857"/>
  <line x1="18.209" y2="0" style="fill-rule:evenodd;clip-rule:evenodd;fill:none;stroke:#EC008C;stroke-width:0.43;" x2="18.209" y1="-72.857"/>
  <line x1="19.792" y2="0" style="fill-rule:evenodd;clip-rule:evenodd;fill:none;stroke:#EC008C;stroke-width:0.43;" x2="19.792" y1="-72.857"/>
  <line x1="21.375" y2="0" style="fill-rule:evenodd;clip-rule:evenodd;fill:none;stroke:#EC008C;stroke-width:0.43;" x2="21.375" y1="-72.857"/>
  <line x1="22.958" y2="0" style="fill-rule:evenodd;clip-rule:evenodd;fill:none;stroke:#EC008C;stroke-width:0.43;" x2="22.958" y1="-72.857"/>
  <line x1="24.542" y2="0" style="fill-rule:evenodd;clip-rule:evenodd;fill:none;stroke:#EC008C;stroke-width:0.43;" x2="24.542" y1="-72.857"/>
  <line x1="26.125" y2="0" style="fill-rule:evenodd;clip-rule:evenodd;fill:none;stroke:#EC008C;stroke-width:0.43;" x2="26.125" y1="-72.857"/>
  <line x1="27.708" y2="0" style="fill-rule:evenodd;clip-rule:evenodd;fill:none;stroke:#EC008C;stroke-width:0.43;" x2="27.708" y1="-72.857"/>
  <line x1="29.291" y2="0" style="fill-rule:evenodd;clip-rule:evenodd;fill:none;stroke:#EC008C;stroke-width:0.43;" x2="29.291" y1="-72.857"/>
  <line x1="30.874" y2="0" style="fill-rule:evenodd;clip-rule:evenodd;fill:none;stroke:#EC008C;stroke-width:0.43;" x2="30.874" y1="-72.857"/>
  <line x1="32.457" y2="0" style="fill-rule:evenodd;clip-rule:evenodd;fill:none;stroke:#EC008C;stroke-width:0.43;" x2="32.457" y1="-72.857"/>
  <line x1="34.041" y2="0" style="fill-rule:evenodd;clip-rule:evenodd;fill:none;stroke:#EC008C;stroke-width:0.43;" x2="34.041" y1="-72.857"/>
  <line x1="35.624" y2="0" style="fill-rule:evenodd;clip-rule:evenodd;fill:none;stroke:#EC008C;stroke-width:0.43;" x2="35.624" y1="-72.857"/>
  <line x1="37.207" y2="0" style="fill-rule:evenodd;clip-rule:evenodd;fill:none;stroke:#EC008C;stroke-width:0.43;" x2="37.207" y1="-72.857"/>
  <line x1="38.79" y2="0" style="fill-rule:evenodd;clip-rule:evenodd;fill:none;stroke:#EC008C;stroke-width:0.43;" x2="38.79" y1="-72.857"/>
  <line x1="40.373" y2="0" style="fill-rule:evenodd;clip-rule:evenodd;fill:none;stroke:#EC008C;stroke-width:0.43;" x2="40.373" y1="-72.857"/>
  <line x1="41.956" y2="0" style="fill-rule:evenodd;clip-rule:evenodd;fill:none;stroke:#EC008C;stroke-width:0.43;" x2="41.956" y1="-72.857"/>
  <line x1="43.539" y2="0" style="fill-rule:evenodd;clip-rule:evenodd;fill:none;stroke:#EC008C;stroke-width:0.43;" x2="43.539" y1="-72.857"/>
  <line x1="45.122" y2="0" style="fill-rule:evenodd;clip-rule:evenodd;fill:none;stroke:#EC008C;stroke-width:0.43;" x2="45.122" y1="-72.857"/>
  <line x1="46.706" y2="0" style="fill-rule:evenodd;clip-rule:evenodd;fill:none;stroke:#EC008C;stroke-width:0.43;" x2="46.706" y1="-72.857"/>
  <line x1="48.289" y2="0" style="fill-rule:evenodd;clip-rule:evenodd;fill:none;stroke:#EC008C;stroke-width:0.43;" x2="48.289" y1="-72.857"/>
  <line x1="49.872" y2="0" style="fill-rule:evenodd;clip-rule:evenodd;fill:none;stroke:#EC008C;stroke-width:0.43;" x2="49.872" y1="-72.857"/>
  <line x1="51.455" y2="0" style="fill-rule:evenodd;clip-rule:evenodd;fill:none;stroke:#EC008C;stroke-width:0.43;" x2="51.455" y1="-72.857"/>
  <line x1="53.038" y2="0" style="fill-rule:evenodd;clip-rule:evenodd;fill:none;stroke:#EC008C;stroke-width:0.43;" x2="53.038" y1="-72.857"/>
  <line x1="54.621" y2="0" style="fill-rule:evenodd;clip-rule:evenodd;fill:none;stroke:#EC008C;stroke-width:0.43;" x2="54.621" y1="-72.857"/>
  <line x1="56.204" y2="0" style="fill-rule:evenodd;clip-rule:evenodd;fill:none;stroke:#EC008C;stroke-width:0.43;" x2="56.204" y1="-72.857"/>
  <line x1="57.787" y2="0" style="fill-rule:evenodd;clip-rule:evenodd;fill:none;stroke:#EC008C;stroke-width:0.43;" x2="57.787" y1="-72.857"/>
  <line x1="59.371" y2="0" style="fill-rule:evenodd;clip-rule:evenodd;fill:none;stroke:#EC008C;stroke-width:0.43;" x2="59.371" y1="-72.857"/>
  <line x1="60.954" y2="0" style="fill-rule:evenodd;clip-rule:evenodd;fill:none;stroke:#EC008C;stroke-width:0.43;" x2="60.954" y1="-72.857"/>
  <line x1="62.537" y2="0" style="fill-rule:evenodd;clip-rule:evenodd;fill:none;stroke:#EC008C;stroke-width:0.43;" x2="62.537" y1="-72.857"/>
  <line x1="64.12" y2="0" style="fill-rule:evenodd;clip-rule:evenodd;fill:none;stroke:#EC008C;stroke-width:0.43;" x2="64.12" y1="-72.857"/>
  <line x1="65.703" y2="0" style="fill-rule:evenodd;clip-rule:evenodd;fill:none;stroke:#EC008C;stroke-width:0.43;" x2="65.703" y1="-72.857"/>
  <line x1="67.286" y2="0" style="fill:none;stroke:#EC008C;stroke-width:0.43;" x2="67.286" y1="-72.857"/>
  <line x1="68.869" y2="0" style="fill-rule:evenodd;clip-rule:evenodd;fill:none;stroke:#EC008C;stroke-width:0.43;" x2="68.869" y1="-72.857"/>
  <line x1="70.452" y2="0" style="fill-rule:evenodd;clip-rule:evenodd;fill:none;stroke:#EC008C;stroke-width:0.43;" x2="70.452" y1="-72.857"/>
  <line x1="72.045" y2="0" style="fill-rule:evenodd;clip-rule:evenodd;fill:none;stroke:#EC008C;stroke-width:0.43;" x2="72.045" y1="-72.857"/>
 </g>
</svg>
