<?xml version="1.0"?>
<!-- Converted with SVG Converter - Version 0.9.5 (Compiled Fri Feb 21 09:53:38 2020) - Copyright (C) 2011 Nokia -->
<svg xmlns="http://www.w3.org/2000/svg" viewBox="1.929 -19.183 16.9 16.899" version="1.1" y="0px" xml:space="preserve" baseProfile="tiny" width="16.9" height="16.899" xmlns:xlink="http://www.w3.org/1999/xlink" x="0px">
 <g>
  <rect y="-19.183" style="fill:none;" width="16.9" height="16.899" x="1.929"/>
  <line y2="-11.59" x1="8.627" y1="-11.59" style="fill:none;stroke:#EC008C;stroke-width:0.8;stroke-linecap:round;" x2="8.627"/>
  <line y2="-12.983" x1="6.084" y1="-12.983" style="fill:none;stroke:#EC008C;stroke-width:0.8;stroke-linecap:round;" x2="6.084"/>
  <line y2="-13.294" x1="3.069" y1="-13.294" style="fill:none;stroke:#EC008C;stroke-width:0.8;stroke-linecap:round;" x2="3.069"/>
  <line y2="-9.79" x1="2.6" y1="-9.79" style="fill:none;stroke:#EC008C;stroke-width:0.8;stroke-linecap:round;" x2="2.6"/>
  <line y2="-15.171" x1="17.17" y1="-15.171" style="fill:none;stroke:#EC008C;stroke-width:0.8;stroke-linecap:round;" x2="17.17"/>
  <line y2="-17.612" x1="13.681" y1="-17.612" style="fill:none;stroke:#EC008C;stroke-width:0.8;stroke-linecap:round;" x2="13.681"/>
  <line y2="-9.946" x1="13.743" y1="-9.946" style="fill:none;stroke:#EC008C;stroke-width:0.8;stroke-linecap:round;" x2="13.743"/>
  <line y2="-12.711" x1="11.078" y1="-12.711" style="fill:none;stroke:#EC008C;stroke-width:0.8;stroke-linecap:round;" x2="11.078"/>
  <line y2="-14.58" x1="9.037" y1="-14.58" style="fill:none;stroke:#EC008C;stroke-width:0.8;stroke-linecap:round;" x2="9.037"/>
  <line y2="-15.933" x1="11.531" y1="-15.933" style="fill:none;stroke:#EC008C;stroke-width:0.8;stroke-linecap:round;" x2="11.531"/>
  <line y2="-17.55" x1="3.83" y1="-17.55" style="fill:none;stroke:#EC008C;stroke-width:0.8;stroke-linecap:round;" x2="3.83"/>
  <line y2="-17.445" x1="9.595" y1="-17.445" style="fill:none;stroke:#EC008C;stroke-width:0.8;stroke-linecap:round;" x2="9.595"/>
  <line y2="-18.393" x1="7.039" y1="-18.393" style="fill:none;stroke:#EC008C;stroke-width:0.8;stroke-linecap:round;" x2="7.039"/>
  <line y2="-18.183" x1="17.287" y1="-18.183" style="fill:none;stroke:#EC008C;stroke-width:0.8;stroke-linecap:round;" x2="17.287"/>
  <line y2="-4.422" x1="8.064" y1="-4.422" style="fill:none;stroke:#EC008C;stroke-width:0.8;stroke-linecap:round;" x2="8.064"/>
  <line y2="-3.523" x1="3.066" y1="-3.523" style="fill:none;stroke:#EC008C;stroke-width:0.8;stroke-linecap:round;" x2="3.066"/>
  <line y2="-6.932" x1="4.117" y1="-6.932" style="fill:none;stroke:#EC008C;stroke-width:0.8;stroke-linecap:round;" x2="4.117"/>
  <line y2="-9.942" x1="5.384" y1="-9.942" style="fill:none;stroke:#EC008C;stroke-width:0.8;stroke-linecap:round;" x2="5.384"/>
  <line y2="-4.171" x1="5.543" y1="-4.171" style="fill:none;stroke:#EC008C;stroke-width:0.8;stroke-linecap:round;" x2="5.543"/>
  <line y2="-3.622" x1="11.531" y1="-3.622" style="fill:none;stroke:#EC008C;stroke-width:0.8;stroke-linecap:round;" x2="11.531"/>
  <line y2="-7.829" x1="16.849" y1="-7.829" style="fill:none;stroke:#EC008C;stroke-width:0.8;stroke-linecap:round;" x2="16.849"/>
  <line y2="-9.134" x1="10.332" y1="-9.134" style="fill:none;stroke:#EC008C;stroke-width:0.8;stroke-linecap:round;" x2="10.332"/>
  <line y2="-6.413" x1="11.002" y1="-6.413" style="fill:none;stroke:#EC008C;stroke-width:0.8;stroke-linecap:round;" x2="11.002"/>
  <line y2="-7.077" x1="13.599" y1="-7.077" style="fill:none;stroke:#EC008C;stroke-width:0.8;stroke-linecap:round;" x2="13.599"/>
  <line y2="-11.048" x1="16.986" y1="-11.048" style="fill:none;stroke:#EC008C;stroke-width:0.8;stroke-linecap:round;" x2="16.986"/>
  <path d="M5.868-16.576c0.998-1.097,3.422,0.986,1.402,1.93    C6.226-14.158,4.133-14.673,5.868-16.576z" style="fill:none;stroke:#EC008C;stroke-width:0.58;"/>
  <path d="M13.757-14.066c0.765-1.271,3.55,0.299,1.753,1.619    C14.582-11.765,12.429-11.859,13.757-14.066z" style="fill:none;stroke:#EC008C;stroke-width:0.58;"/>
  <path d="M6.717-8.062c0.764-1.269,3.614,1.326,1.752,1.619    C7.332-6.264,5.389-5.854,6.717-8.062z" style="fill:none;stroke:#EC008C;stroke-width:0.58;"/>
  <path d="M15.162-5.222c2.058-0.589,2.693-0.014,1.753,1.619    C16.083-2.16,12.685-4.513,15.162-5.222z" style="fill:none;stroke:#EC008C;stroke-width:0.58;"/>
 </g>
</svg>
