<?xml version="1.0"?>
<!-- Converted with SVG Converter - Version 0.9.5 (Compiled Fri Feb 21 09:53:38 2020) - Copyright (C) 2011 Nokia -->
<svg xmlns="http://www.w3.org/2000/svg" baseProfile="tiny" x="0px" xmlns:xlink="http://www.w3.org/1999/xlink" version="1.1" xml:space="preserve" viewBox="2.16 -31.136 28.975 28.976" y="0px" width="28.975" height="28.976">
 <g>
  <rect x="2.16" style="fill:none;" y="-31.136" width="28.975" height="28.976"/>
  <line x1="21.317" y1="-8.111" y2="-8.111" x2="21.317" style="fill:none;stroke:#EC008C;stroke-width:0.8;stroke-linecap:round;"/>
  <line x1="16.82" y1="-7.151" y2="-7.151" x2="16.82" style="fill:none;stroke:#EC008C;stroke-width:0.8;stroke-linecap:round;"/>
  <line x1="9.648" y1="-5.255" y2="-5.255" x2="9.648" style="fill:none;stroke:#EC008C;stroke-width:0.8;stroke-linecap:round;"/>
  <line x1="3.54" y1="-4.059" y2="-4.059" x2="3.54" style="fill:none;stroke:#EC008C;stroke-width:0.8;stroke-linecap:round;"/>
  <line x1="15.095" y1="-14.578" y2="-14.578" x2="15.095" style="fill:none;stroke:#EC008C;stroke-width:0.8;stroke-linecap:round;"/>
  <line x1="14.233" y1="-9.749" y2="-9.749" x2="14.233" style="fill:none;stroke:#EC008C;stroke-width:0.8;stroke-linecap:round;"/>
  <line x1="23.201" y1="-24.236" y2="-24.236" x2="23.201" style="fill:none;stroke:#EC008C;stroke-width:0.8;stroke-linecap:round;"/>
  <line x1="24.619" y1="-8.665" y2="-8.665" x2="24.619" style="fill:none;stroke:#EC008C;stroke-width:0.8;stroke-linecap:round;"/>
  <line x1="22.856" y1="-11.475" y2="-11.475" x2="22.856" style="fill:none;stroke:#EC008C;stroke-width:0.8;stroke-linecap:round;"/>
  <line x1="23.546" y1="-4.576" y2="-4.576" x2="23.546" style="fill:none;stroke:#EC008C;stroke-width:0.8;stroke-linecap:round;"/>
  <line x1="20.224" y1="-5.447" y2="-5.447" x2="20.224" style="fill:none;stroke:#EC008C;stroke-width:0.8;stroke-linecap:round;"/>
  <line x1="27.304" y1="-3.026" y2="-3.026" x2="27.304" style="fill:none;stroke:#EC008C;stroke-width:0.8;stroke-linecap:round;"/>
  <line x1="16.179" y1="-3.594" y2="-3.594" x2="16.179" style="fill:none;stroke:#EC008C;stroke-width:0.8;stroke-linecap:round;"/>
  <line x1="11.89" y1="-2.833" y2="-2.833" x2="11.89" style="fill:none;stroke:#EC008C;stroke-width:0.8;stroke-linecap:round;"/>
  <line x1="19.334" y1="-23.13" y2="-23.13" x2="19.334" style="fill:none;stroke:#EC008C;stroke-width:0.8;stroke-linecap:round;"/>
  <line x1="21.821" y1="-30.101" y2="-30.101" x2="21.821" style="fill:none;stroke:#EC008C;stroke-width:0.8;stroke-linecap:round;"/>
  <line x1="17.337" y1="-26.996" y2="-26.996" x2="17.337" style="fill:none;stroke:#EC008C;stroke-width:0.8;stroke-linecap:round;"/>
  <line x1="14.873" y1="-29.594" y2="-29.594" x2="14.873" style="fill:none;stroke:#EC008C;stroke-width:0.8;stroke-linecap:round;"/>
  <line x1="12.569" y1="-27.291" y2="-27.291" x2="12.569" style="fill:none;stroke:#EC008C;stroke-width:0.8;stroke-linecap:round;"/>
  <line x1="27.857" y1="-13.026" y2="-13.026" x2="27.857" style="fill:none;stroke:#EC008C;stroke-width:0.8;stroke-linecap:round;"/>
  <line x1="28.559" y1="-8.481" y2="-8.481" x2="28.559" style="fill:none;stroke:#EC008C;stroke-width:0.8;stroke-linecap:round;"/>
  <line x1="21.648" y1="-16.821" y2="-16.821" x2="21.648" style="fill:none;stroke:#EC008C;stroke-width:0.8;stroke-linecap:round;"/>
  <line x1="26.684" y1="-17.683" y2="-17.683" x2="26.684" style="fill:none;stroke:#EC008C;stroke-width:0.8;stroke-linecap:round;"/>
  <line x1="29.065" y1="-25.616" y2="-25.616" x2="29.065" style="fill:none;stroke:#EC008C;stroke-width:0.8;stroke-linecap:round;"/>
  <line x1="26.65" y1="-20.614" y2="-20.614" x2="26.65" style="fill:none;stroke:#EC008C;stroke-width:0.8;stroke-linecap:round;"/>
  <line x1="17.165" y1="-17.683" y2="-17.683" x2="17.165" style="fill:none;stroke:#EC008C;stroke-width:0.8;stroke-linecap:round;"/>
  <line x1="19.741" y1="-11.67" y2="-11.67" x2="19.741" style="fill:none;stroke:#EC008C;stroke-width:0.8;stroke-linecap:round;"/>
  <line x1="29.754" y1="-29.583" y2="-29.583" x2="29.754" style="fill:none;stroke:#EC008C;stroke-width:0.8;stroke-linecap:round;"/>
  <line x1="5.602" y1="-7.372" y2="-7.372" x2="5.602" style="fill:none;stroke:#EC008C;stroke-width:0.8;stroke-linecap:round;"/>
  <line x1="3.601" y1="-17.933" y2="-17.933" x2="3.601" style="fill:none;stroke:#EC008C;stroke-width:0.8;stroke-linecap:round;"/>
  <line x1="2.835" y1="-13.582" y2="-13.582" x2="2.835" style="fill:none;stroke:#EC008C;stroke-width:0.8;stroke-linecap:round;"/>
  <line x1="3.885" y1="-24.409" y2="-24.409" x2="3.885" style="fill:none;stroke:#EC008C;stroke-width:0.8;stroke-linecap:round;"/>
  <line x1="9.755" y1="-9.061" y2="-9.061" x2="9.755" style="fill:none;stroke:#EC008C;stroke-width:0.8;stroke-linecap:round;"/>
  <line x1="6.295" y1="-11.498" y2="-11.498" x2="6.295" style="fill:none;stroke:#EC008C;stroke-width:0.8;stroke-linecap:round;"/>
  <line x1="10.439" y1="-14.061" y2="-14.061" x2="10.439" style="fill:none;stroke:#EC008C;stroke-width:0.8;stroke-linecap:round;"/>
  <line x1="7.112" y1="-19.124" y2="-19.124" x2="7.112" style="fill:none;stroke:#EC008C;stroke-width:0.8;stroke-linecap:round;"/>
  <line x1="5.782" y1="-29.756" y2="-29.756" x2="5.782" style="fill:none;stroke:#EC008C;stroke-width:0.8;stroke-linecap:round;"/>
  <line x1="15.467" y1="-23.29" y2="-23.29" x2="15.467" style="fill:none;stroke:#EC008C;stroke-width:0.8;stroke-linecap:round;"/>
  <line x1="8.95" y1="-24.597" y2="-24.597" x2="8.95" style="fill:none;stroke:#EC008C;stroke-width:0.8;stroke-linecap:round;"/>
  <line x1="9.62" y1="-21.876" y2="-21.876" x2="9.62" style="fill:none;stroke:#EC008C;stroke-width:0.8;stroke-linecap:round;"/>
  <line x1="12.217" y1="-18.852" y2="-18.852" x2="12.217" style="fill:none;stroke:#EC008C;stroke-width:0.8;stroke-linecap:round;"/>
  <line x1="24.408" y1="-13.372" y2="-15.613" x2="26.478" style="fill:none;stroke:#EC008C;stroke-width:0.58;stroke-linecap:round;"/>
  <line x1="21.224" y1="-13.102" y2="-14.578" x2="18.027" style="fill:none;stroke:#EC008C;stroke-width:0.58;stroke-linecap:round;"/>
  <line x1="17.918" y1="-10.498" y2="-7.679" x2="19.178" style="fill:none;stroke:#EC008C;stroke-width:0.58;stroke-linecap:round;"/>
  <line x1="25.167" y1="-7.183" y2="-4.5" x2="28.507" style="fill:none;stroke:#EC008C;stroke-width:0.58;stroke-linecap:round;"/>
  <line x1="27.19" y1="-10.035" y2="-11.398" x2="30.229" style="fill:none;stroke:#EC008C;stroke-width:0.58;stroke-linecap:round;"/>
  <line x1="6.817" y1="-9.405" y2="-10.268" x2="3.368" style="fill:none;stroke:#EC008C;stroke-width:0.58;stroke-linecap:round;"/>
  <line x1="8.434" y1="-6.656" y2="-3.541" x2="6.472" style="fill:none;stroke:#EC008C;stroke-width:0.58;stroke-linecap:round;"/>
  <line x1="12.163" y1="-7.507" y2="-4.92" x2="14.922" style="fill:none;stroke:#EC008C;stroke-width:0.58;stroke-linecap:round;"/>
  <line x1="11.299" y1="-11.056" y2="-12.854" x2="14.233" style="fill:none;stroke:#EC008C;stroke-width:0.58;stroke-linecap:round;"/>
  <line x1="8.229" y1="-12.386" y2="-15.613" x2="6.989" style="fill:none;stroke:#EC008C;stroke-width:0.58;stroke-linecap:round;"/>
  <line x1="21.994" y1="-21.994" y2="-19.397" x2="19.898" style="fill:none;stroke:#EC008C;stroke-width:0.58;stroke-linecap:round;"/>
  <line x1="24.601" y1="-22.413" y2="-18.738" x2="24.081" style="fill:none;stroke:#EC008C;stroke-width:0.58;stroke-linecap:round;"/>
  <line x1="27.204" y1="-22.993" y2="-22.825" x2="30.145" style="fill:none;stroke:#EC008C;stroke-width:0.58;stroke-linecap:round;"/>
  <line x1="24.499" y1="-26.711" y2="-30.114" x2="25.429" style="fill:none;stroke:#EC008C;stroke-width:0.58;stroke-linecap:round;"/>
  <line x1="21.921" y1="-25.519" y2="-27.724" x2="19.787" style="fill:none;stroke:#EC008C;stroke-width:0.58;stroke-linecap:round;"/>
  <line x1="7.068" y1="-25.226" y2="-27.624" x2="4.443" style="fill:none;stroke:#EC008C;stroke-width:0.58;stroke-linecap:round;"/>
  <line x1="6.797" y1="-22.106" y2="-20.231" x2="3.975" style="fill:none;stroke:#EC008C;stroke-width:0.58;stroke-linecap:round;"/>
  <line x1="9.748" y1="-18.201" y2="-15.959" x2="12.335" style="fill:none;stroke:#EC008C;stroke-width:0.58;stroke-linecap:round;"/>
  <line x1="9.581" y1="-26.61" y2="-30.605" x2="10.171" style="fill:none;stroke:#EC008C;stroke-width:0.58;stroke-linecap:round;"/>
  <line x1="12.335" y1="-23.892" y2="-25.271" x2="15.268" style="fill:none;stroke:#EC008C;stroke-width:0.58;stroke-linecap:round;"/>
  <line x1="14.982" y1="-18.218" y2="-21.617" x2="16.456" style="fill:none;stroke:#EC008C;stroke-width:0.58;stroke-linecap:round;"/>
  <line x1="26.679" y1="-28.094" y2="-28.094" x2="26.679" style="fill:none;stroke:#EC008C;stroke-width:0.8;stroke-linecap:round;"/>
  <line x1="30.708" y1="-6.156" y2="-6.156" x2="30.708" style="fill:none;stroke:#EC008C;stroke-width:0.8;stroke-linecap:round;"/>
  <line x1="30.175" y1="-20.023" y2="-20.023" x2="30.175" style="fill:none;stroke:#EC008C;stroke-width:0.8;stroke-linecap:round;"/>
  <line x1="20.074" y1="-3.853" y2="-2.16" x2="18.56" style="fill:none;stroke:#EC008C;stroke-width:0.58;stroke-linecap:round;"/>
  <line x1="3.966" y1="-15.431" y2="-16.375" x2="2.16" style="fill:none;stroke:#EC008C;stroke-width:0.58;stroke-linecap:round;"/>
  <line x1="31.134" y1="-16.363" y2="-17.363" x2="29.221" style="fill:none;stroke:#EC008C;stroke-width:0.58;stroke-linecap:round;"/>
  <line x1="17.552" y1="-30.033" y2="-31.136" x2="18.538" style="fill:none;stroke:#EC008C;stroke-width:0.58;stroke-linecap:round;"/>
 </g>
</svg>
