<?xml version="1.0"?>
<!-- Converted with SVG Converter - Version 0.9.5 (Compiled Fri Feb 21 09:53:38 2020) - Copyright (C) 2011 Nokia -->
<svg xmlns="http://www.w3.org/2000/svg" y="0px" xmlns:xlink="http://www.w3.org/1999/xlink" viewBox="1.05 -43.917 42.917 42.917" baseProfile="tiny" width="42.917" version="1.1" x="0px" xml:space="preserve" height="42.917">
 <g>
  <rect y="-43.917" style="fill:none;" width="42.917" x="1.05" height="42.917"/>
  <line y2="-35.167" y1="-35.167" style="fill:none;stroke:#00AEEF;stroke-width:0.4;" x2="5.717" x1="1.8"/>
  <line y2="-40.292" y1="-40.292" style="fill:none;stroke:#00AEEF;stroke-width:0.4;" x2="10.898" x1="6.982"/>
  <line y2="-42.729" y1="-40.312" style="fill:none;stroke:#00AEEF;stroke-width:0.4;" x2="9.648" x1="9.648"/>
  <line y2="-41.562" y1="-40.312" style="fill:none;stroke:#00AEEF;stroke-width:0.4;" x2="8.315" x1="8.315"/>
  <line y2="-35.167" y1="-35.167" style="fill:none;stroke:#00AEEF;stroke-width:0.4;" x2="16.461" x1="12.544"/>
  <line y2="-40.292" y1="-40.292" style="fill:none;stroke:#00AEEF;stroke-width:0.4;" x2="21.586" x1="17.669"/>
  <line y2="-42.729" y1="-40.312" style="fill:none;stroke:#00AEEF;stroke-width:0.4;" x2="20.336" x1="20.336"/>
  <line y2="-41.562" y1="-40.312" style="fill:none;stroke:#00AEEF;stroke-width:0.4;" x2="19.003" x1="19.003"/>
  <line y2="-24.417" y1="-24.417" style="fill:none;stroke:#00AEEF;stroke-width:0.4;" x2="5.717" x1="1.8"/>
  <line y2="-37.688" y1="-35.188" style="fill:none;stroke:#00AEEF;stroke-width:0.4;" x2="4.134" x1="4.134"/>
  <line y2="-36.604" y1="-35.188" style="fill:none;stroke:#00AEEF;stroke-width:0.4;" x2="2.717" x1="2.717"/>
  <line y2="-29.542" y1="-29.542" style="fill:none;stroke:#00AEEF;stroke-width:0.4;" x2="10.898" x1="6.982"/>
  <line y2="-31.979" y1="-29.562" style="fill:none;stroke:#00AEEF;stroke-width:0.4;" x2="9.648" x1="9.648"/>
  <line y2="-30.812" y1="-29.562" style="fill:none;stroke:#00AEEF;stroke-width:0.4;" x2="8.315" x1="8.315"/>
  <line y2="-24.417" y1="-24.417" style="fill:none;stroke:#00AEEF;stroke-width:0.4;" x2="16.461" x1="12.544"/>
  <line y2="-37.688" y1="-35.188" style="fill:none;stroke:#00AEEF;stroke-width:0.4;" x2="14.878" x1="14.878"/>
  <line y2="-36.604" y1="-35.188" style="fill:none;stroke:#00AEEF;stroke-width:0.4;" x2="13.461" x1="13.461"/>
  <line y2="-29.542" y1="-29.542" style="fill:none;stroke:#00AEEF;stroke-width:0.4;" x2="21.586" x1="17.669"/>
  <line y2="-31.979" y1="-29.562" style="fill:none;stroke:#00AEEF;stroke-width:0.4;" x2="20.336" x1="20.336"/>
  <line y2="-30.812" y1="-29.562" style="fill:none;stroke:#00AEEF;stroke-width:0.4;" x2="19.003" x1="19.003"/>
  <line y2="-35.167" y1="-35.167" style="fill:none;stroke:#00AEEF;stroke-width:0.4;" x2="27.217" x1="23.3"/>
  <line y2="-40.292" y1="-40.292" style="fill:none;stroke:#00AEEF;stroke-width:0.4;" x2="32.398" x1="28.482"/>
  <line y2="-42.729" y1="-40.312" style="fill:none;stroke:#00AEEF;stroke-width:0.4;" x2="31.148" x1="31.148"/>
  <line y2="-41.562" y1="-40.312" style="fill:none;stroke:#00AEEF;stroke-width:0.4;" x2="29.815" x1="29.815"/>
  <line y2="-35.167" y1="-35.167" style="fill:none;stroke:#00AEEF;stroke-width:0.4;" x2="37.961" x1="34.044"/>
  <line y2="-40.292" y1="-40.292" style="fill:none;stroke:#00AEEF;stroke-width:0.4;" x2="43.086" x1="39.169"/>
  <line y2="-42.729" y1="-40.312" style="fill:none;stroke:#00AEEF;stroke-width:0.4;" x2="41.836" x1="41.836"/>
  <line y2="-41.562" y1="-40.312" style="fill:none;stroke:#00AEEF;stroke-width:0.4;" x2="40.503" x1="40.503"/>
  <line y2="-24.417" y1="-24.417" style="fill:none;stroke:#00AEEF;stroke-width:0.4;" x2="27.217" x1="23.3"/>
  <line y2="-37.688" y1="-35.188" style="fill:none;stroke:#00AEEF;stroke-width:0.4;" x2="25.634" x1="25.634"/>
  <line y2="-36.604" y1="-35.188" style="fill:none;stroke:#00AEEF;stroke-width:0.4;" x2="24.217" x1="24.217"/>
  <line y2="-29.542" y1="-29.542" style="fill:none;stroke:#00AEEF;stroke-width:0.4;" x2="32.398" x1="28.482"/>
  <line y2="-31.979" y1="-29.562" style="fill:none;stroke:#00AEEF;stroke-width:0.4;" x2="31.148" x1="31.148"/>
  <line y2="-30.812" y1="-29.562" style="fill:none;stroke:#00AEEF;stroke-width:0.4;" x2="29.815" x1="29.815"/>
  <line y2="-24.417" y1="-24.417" style="fill:none;stroke:#00AEEF;stroke-width:0.4;" x2="37.961" x1="34.044"/>
  <line y2="-37.688" y1="-35.188" style="fill:none;stroke:#00AEEF;stroke-width:0.4;" x2="36.378" x1="36.378"/>
  <line y2="-36.604" y1="-35.188" style="fill:none;stroke:#00AEEF;stroke-width:0.4;" x2="34.961" x1="34.961"/>
  <line y2="-29.542" y1="-29.542" style="fill:none;stroke:#00AEEF;stroke-width:0.4;" x2="43.086" x1="39.169"/>
  <line y2="-31.979" y1="-29.562" style="fill:none;stroke:#00AEEF;stroke-width:0.4;" x2="41.836" x1="41.836"/>
  <line y2="-30.812" y1="-29.562" style="fill:none;stroke:#00AEEF;stroke-width:0.4;" x2="40.503" x1="40.503"/>
  <line y2="-13.68" y1="-13.68" style="fill:none;stroke:#00AEEF;stroke-width:0.4;" x2="5.717" x1="1.8"/>
  <line y2="-26.951" y1="-24.451" style="fill:none;stroke:#00AEEF;stroke-width:0.4;" x2="4.134" x1="4.134"/>
  <line y2="-25.867" y1="-24.451" style="fill:none;stroke:#00AEEF;stroke-width:0.4;" x2="2.717" x1="2.717"/>
  <line y2="-18.805" y1="-18.805" style="fill:none;stroke:#00AEEF;stroke-width:0.4;" x2="10.898" x1="6.982"/>
  <line y2="-21.242" y1="-18.826" style="fill:none;stroke:#00AEEF;stroke-width:0.4;" x2="9.648" x1="9.648"/>
  <line y2="-20.076" y1="-18.826" style="fill:none;stroke:#00AEEF;stroke-width:0.4;" x2="8.315" x1="8.315"/>
  <line y2="-13.68" y1="-13.68" style="fill:none;stroke:#00AEEF;stroke-width:0.4;" x2="16.461" x1="12.544"/>
  <line y2="-26.951" y1="-24.451" style="fill:none;stroke:#00AEEF;stroke-width:0.4;" x2="14.878" x1="14.878"/>
  <line y2="-25.867" y1="-24.451" style="fill:none;stroke:#00AEEF;stroke-width:0.4;" x2="13.461" x1="13.461"/>
  <line y2="-18.805" y1="-18.805" style="fill:none;stroke:#00AEEF;stroke-width:0.4;" x2="21.586" x1="17.669"/>
  <line y2="-21.242" y1="-18.826" style="fill:none;stroke:#00AEEF;stroke-width:0.4;" x2="20.336" x1="20.336"/>
  <line y2="-20.076" y1="-18.826" style="fill:none;stroke:#00AEEF;stroke-width:0.4;" x2="19.003" x1="19.003"/>
  <line y2="-2.93" y1="-2.93" style="fill:none;stroke:#00AEEF;stroke-width:0.4;" x2="5.717" x1="1.8"/>
  <line y2="-16.201" y1="-13.701" style="fill:none;stroke:#00AEEF;stroke-width:0.4;" x2="4.134" x1="4.134"/>
  <line y2="-15.117" y1="-13.701" style="fill:none;stroke:#00AEEF;stroke-width:0.4;" x2="2.717" x1="2.717"/>
  <line y2="-5.367" y1="-2.951" style="fill:none;stroke:#00AEEF;stroke-width:0.4;" x2="4.467" x1="4.467"/>
  <line y2="-4.201" y1="-2.951" style="fill:none;stroke:#00AEEF;stroke-width:0.4;" x2="3.134" x1="3.134"/>
  <line y2="-8.055" y1="-8.055" style="fill:none;stroke:#00AEEF;stroke-width:0.4;" x2="10.898" x1="6.982"/>
  <line y2="-10.492" y1="-8.076" style="fill:none;stroke:#00AEEF;stroke-width:0.4;" x2="9.648" x1="9.648"/>
  <line y2="-9.326" y1="-8.076" style="fill:none;stroke:#00AEEF;stroke-width:0.4;" x2="8.315" x1="8.315"/>
  <line y2="-2.93" y1="-2.93" style="fill:none;stroke:#00AEEF;stroke-width:0.4;" x2="16.461" x1="12.544"/>
  <line y2="-16.201" y1="-13.701" style="fill:none;stroke:#00AEEF;stroke-width:0.4;" x2="14.878" x1="14.878"/>
  <line y2="-15.117" y1="-13.701" style="fill:none;stroke:#00AEEF;stroke-width:0.4;" x2="13.461" x1="13.461"/>
  <line y2="-5.367" y1="-2.951" style="fill:none;stroke:#00AEEF;stroke-width:0.4;" x2="15.211" x1="15.211"/>
  <line y2="-4.201" y1="-2.951" style="fill:none;stroke:#00AEEF;stroke-width:0.4;" x2="13.878" x1="13.878"/>
  <line y2="-8.055" y1="-8.055" style="fill:none;stroke:#00AEEF;stroke-width:0.4;" x2="21.586" x1="17.669"/>
  <line y2="-10.492" y1="-8.076" style="fill:none;stroke:#00AEEF;stroke-width:0.4;" x2="20.336" x1="20.336"/>
  <line y2="-9.326" y1="-8.076" style="fill:none;stroke:#00AEEF;stroke-width:0.4;" x2="19.003" x1="19.003"/>
  <line y2="-13.68" y1="-13.68" style="fill:none;stroke:#00AEEF;stroke-width:0.4;" x2="27.217" x1="23.3"/>
  <line y2="-26.951" y1="-24.451" style="fill:none;stroke:#00AEEF;stroke-width:0.4;" x2="25.634" x1="25.634"/>
  <line y2="-25.867" y1="-24.451" style="fill:none;stroke:#00AEEF;stroke-width:0.4;" x2="24.217" x1="24.217"/>
  <line y2="-18.805" y1="-18.805" style="fill:none;stroke:#00AEEF;stroke-width:0.4;" x2="32.398" x1="28.482"/>
  <line y2="-21.242" y1="-18.826" style="fill:none;stroke:#00AEEF;stroke-width:0.4;" x2="31.148" x1="31.148"/>
  <line y2="-20.076" y1="-18.826" style="fill:none;stroke:#00AEEF;stroke-width:0.4;" x2="29.815" x1="29.815"/>
  <line y2="-13.68" y1="-13.68" style="fill:none;stroke:#00AEEF;stroke-width:0.4;" x2="37.961" x1="34.044"/>
  <line y2="-26.951" y1="-24.451" style="fill:none;stroke:#00AEEF;stroke-width:0.4;" x2="36.378" x1="36.378"/>
  <line y2="-25.867" y1="-24.451" style="fill:none;stroke:#00AEEF;stroke-width:0.4;" x2="34.961" x1="34.961"/>
  <line y2="-18.805" y1="-18.805" style="fill:none;stroke:#00AEEF;stroke-width:0.4;" x2="43.086" x1="39.169"/>
  <line y2="-21.242" y1="-18.826" style="fill:none;stroke:#00AEEF;stroke-width:0.4;" x2="41.836" x1="41.836"/>
  <line y2="-20.076" y1="-18.826" style="fill:none;stroke:#00AEEF;stroke-width:0.4;" x2="40.503" x1="40.503"/>
  <line y2="-2.93" y1="-2.93" style="fill:none;stroke:#00AEEF;stroke-width:0.4;" x2="27.217" x1="23.3"/>
  <line y2="-16.201" y1="-13.701" style="fill:none;stroke:#00AEEF;stroke-width:0.4;" x2="25.634" x1="25.634"/>
  <line y2="-15.117" y1="-13.701" style="fill:none;stroke:#00AEEF;stroke-width:0.4;" x2="24.217" x1="24.217"/>
  <line y2="-5.367" y1="-2.951" style="fill:none;stroke:#00AEEF;stroke-width:0.4;" x2="25.967" x1="25.967"/>
  <line y2="-4.201" y1="-2.951" style="fill:none;stroke:#00AEEF;stroke-width:0.4;" x2="24.634" x1="24.634"/>
  <line y2="-8.055" y1="-8.055" style="fill:none;stroke:#00AEEF;stroke-width:0.4;" x2="32.398" x1="28.482"/>
  <line y2="-10.492" y1="-8.076" style="fill:none;stroke:#00AEEF;stroke-width:0.4;" x2="31.148" x1="31.148"/>
  <line y2="-9.326" y1="-8.076" style="fill:none;stroke:#00AEEF;stroke-width:0.4;" x2="29.815" x1="29.815"/>
  <line y2="-2.93" y1="-2.93" style="fill:none;stroke:#00AEEF;stroke-width:0.4;" x2="37.961" x1="34.044"/>
  <line y2="-16.201" y1="-13.701" style="fill:none;stroke:#00AEEF;stroke-width:0.4;" x2="36.378" x1="36.378"/>
  <line y2="-15.117" y1="-13.701" style="fill:none;stroke:#00AEEF;stroke-width:0.4;" x2="34.961" x1="34.961"/>
  <line y2="-5.367" y1="-2.951" style="fill:none;stroke:#00AEEF;stroke-width:0.4;" x2="36.711" x1="36.711"/>
  <line y2="-4.201" y1="-2.951" style="fill:none;stroke:#00AEEF;stroke-width:0.4;" x2="35.378" x1="35.378"/>
  <line y2="-8.055" y1="-8.055" style="fill:none;stroke:#00AEEF;stroke-width:0.4;" x2="43.086" x1="39.169"/>
  <line y2="-10.492" y1="-8.076" style="fill:none;stroke:#00AEEF;stroke-width:0.4;" x2="41.836" x1="41.836"/>
  <line y2="-9.326" y1="-8.076" style="fill:none;stroke:#00AEEF;stroke-width:0.4;" x2="40.503" x1="40.503"/>
 </g>
</svg>
