<?xml version="1.0"?>
<!-- Converted with SVG Converter - Version 0.9.5 (Compiled Fri Feb 21 09:53:38 2020) - Copyright (C) 2011 Nokia -->
<svg xmlns="http://www.w3.org/2000/svg" x="0px" viewBox="0 -10.562 10.312 10.312" xmlns:xlink="http://www.w3.org/1999/xlink" height="10.312" baseProfile="tiny" xml:space="preserve" version="1.1" y="0px" width="10.312">
 <g>
  <rect height="10.312" y="-10.562" style="fill:none;" width="10.312"/>
  <line x2="0" x1="1.781" style="fill:none;stroke:#00AEEF;stroke-width:0.5;" y2="-7.125" y1="-7.125"/>
  <line x2="1.781" x1="3.468" style="fill:none;stroke:#00AEEF;stroke-width:0.5;" y2="-0.25" y1="-1.969"/>
  <line x2="0" x1="1.781" style="fill:none;stroke:#00AEEF;stroke-width:0.5;" y2="-3.688" y1="-3.688"/>
  <line x2="3.468" x1="1.781" style="fill:none;stroke:#00AEEF;stroke-width:0.5;" y2="-5.407" y1="-7.125"/>
  <line x2="1.781" x1="3.468" style="fill:none;stroke:#00AEEF;stroke-width:0.5;" y2="-7.125" y1="-8.844"/>
  <line x2="1.781" x1="3.468" style="fill:none;stroke:#00AEEF;stroke-width:0.5;" y2="-10.562" y1="-8.844"/>
  <line x2="6.968" x1="3.468" style="fill:none;stroke:#00AEEF;stroke-width:0.5;" y2="-8.844" y1="-8.844"/>
  <line x2="3.468" x1="6.968" style="fill:none;stroke:#00AEEF;stroke-width:0.5;" y2="-1.969" y1="-1.969"/>
  <line x2="1.781" x1="3.468" style="fill:none;stroke:#00AEEF;stroke-width:0.5;" y2="-3.688" y1="-5.407"/>
  <line x2="3.468" x1="1.781" style="fill:none;stroke:#00AEEF;stroke-width:0.5;" y2="-1.969" y1="-3.688"/>
  <line x2="6.968" x1="3.468" style="fill:none;stroke:#00AEEF;stroke-width:0.5;" y2="-5.407" y1="-5.407"/>
  <line x2="8.656" x1="6.968" style="fill:none;stroke:#00AEEF;stroke-width:0.5;" y2="-7.125" y1="-5.407"/>
  <line x2="8.656" x1="6.968" style="fill:none;stroke:#00AEEF;stroke-width:0.5;" y2="-3.688" y1="-5.407"/>
  <line x2="8.656" x1="6.968" style="fill:none;stroke:#00AEEF;stroke-width:0.5;" y2="-7.125" y1="-8.844"/>
  <line x2="8.656" x1="6.968" style="fill:none;stroke:#00AEEF;stroke-width:0.5;" y2="-10.562" y1="-8.844"/>
  <line x2="8.656" x1="10.312" style="fill:none;stroke:#00AEEF;stroke-width:0.5;" y2="-7.125" y1="-7.125"/>
  <line x2="8.656" x1="6.968" style="fill:none;stroke:#00AEEF;stroke-width:0.5;" y2="-0.25" y1="-1.969"/>
  <line x2="8.656" x1="6.968" style="fill:none;stroke:#00AEEF;stroke-width:0.5;" y2="-3.688" y1="-1.969"/>
  <line x2="10.312" x1="8.656" style="fill:none;stroke:#00AEEF;stroke-width:0.5;" y2="-3.688" y1="-3.688"/>
  <line x2="1.781" x1="0" style="fill:none;stroke:#00AEEF;stroke-width:0.5;" y2="-10.562" y1="-10.562"/>
  <line x2="1.781" x1="0" style="fill:none;stroke:#00AEEF;stroke-width:0.5;" y2="-0.25" y1="-0.25"/>
  <line x2="8.656" x1="10.312" style="fill:none;stroke:#00AEEF;stroke-width:0.5;" y2="-10.562" y1="-10.562"/>
  <line x2="10.312" x1="8.656" style="fill:none;stroke:#00AEEF;stroke-width:0.5;" y2="-0.25" y1="-0.25"/>
 </g>
</svg>
