<?xml version="1.0"?>
<!-- Converted with SVG Converter - Version 0.9.5 (Compiled Fri Feb 21 09:53:38 2020) - Copyright (C) 2011 Nokia -->
<svg xmlns="http://www.w3.org/2000/svg" x="0px" viewBox="0.163 -53.583 53.584 53.583" xml:space="preserve" version="1.1" baseProfile="tiny" width="53.584" height="53.583" y="0px" xmlns:xlink="http://www.w3.org/1999/xlink">
 <g>
  <rect x="0.163" width="53.584" style="fill:none;" height="53.583" y="-53.583"/>
  <line x2="0.163" y2="-51.754" y1="-51.754" style="fill:none;stroke:#000000;stroke-width:0.3;" x1="4.279"/>
  <line x2="13.229" y2="-51.754" y1="-51.754" style="fill:none;stroke:#000000;stroke-width:0.3;" x1="7.483"/>
  <line x2="22.146" y2="-51.754" y1="-51.754" style="fill:none;stroke:#000000;stroke-width:0.3;" x1="16.399"/>
  <line x2="31.062" y2="-51.754" y1="-51.754" style="fill:none;stroke:#000000;stroke-width:0.3;" x1="25.316"/>
  <line x2="39.979" y2="-51.754" y1="-51.754" style="fill:none;stroke:#000000;stroke-width:0.3;" x1="34.233"/>
  <line x2="48.895" y2="-51.754" y1="-51.754" style="fill:none;stroke:#000000;stroke-width:0.3;" x1="43.149"/>
  <line x2="53.747" y2="-51.754" y1="-51.754" style="fill:none;stroke:#000000;stroke-width:0.3;" x1="52.066"/>
  <line x2="2.865" y2="-48.618" y1="-48.618" style="fill:none;stroke:#000000;stroke-width:0.3;" x1="8.611"/>
  <line x2="11.782" y2="-48.618" y1="-48.618" style="fill:none;stroke:#000000;stroke-width:0.3;" x1="17.527"/>
  <line x2="20.699" y2="-48.618" y1="-48.618" style="fill:none;stroke:#000000;stroke-width:0.3;" x1="26.444"/>
  <line x2="29.615" y2="-48.618" y1="-48.618" style="fill:none;stroke:#000000;stroke-width:0.3;" x1="35.36"/>
  <line x2="38.532" y2="-48.618" y1="-48.618" style="fill:none;stroke:#000000;stroke-width:0.3;" x1="44.277"/>
  <line x2="53.194" y2="-48.618" y1="-48.618" style="fill:none;stroke:#000000;stroke-width:0.3;" x1="47.449"/>
  <line x2="0.163" y2="-45.648" y1="-45.648" style="fill:none;stroke:#000000;stroke-width:0.3;" x1="2.527"/>
  <line x2="5.732" y2="-45.648" y1="-45.648" style="fill:none;stroke:#000000;stroke-width:0.3;" x1="11.478"/>
  <line x2="20.394" y2="-45.648" y1="-45.648" style="fill:none;stroke:#000000;stroke-width:0.3;" x1="14.649"/>
  <line x2="29.311" y2="-45.648" y1="-45.648" style="fill:none;stroke:#000000;stroke-width:0.3;" x1="23.566"/>
  <line x2="38.227" y2="-45.648" y1="-45.648" style="fill:none;stroke:#000000;stroke-width:0.3;" x1="32.481"/>
  <line x2="47.144" y2="-45.648" y1="-45.648" style="fill:none;stroke:#000000;stroke-width:0.3;" x1="41.398"/>
  <line x2="53.747" y2="-45.648" y1="-45.648" style="fill:none;stroke:#000000;stroke-width:0.3;" x1="50.314"/>
  <line x2="2.069" y2="-42.843" y1="-42.843" style="fill:none;stroke:#000000;stroke-width:0.3;" x1="7.814"/>
  <line x2="10.986" y2="-42.843" y1="-42.843" style="fill:none;stroke:#000000;stroke-width:0.3;" x1="16.732"/>
  <line x2="19.902" y2="-42.843" y1="-42.843" style="fill:none;stroke:#000000;stroke-width:0.3;" x1="25.649"/>
  <line x2="28.819" y2="-42.843" y1="-42.843" style="fill:none;stroke:#000000;stroke-width:0.3;" x1="34.564"/>
  <line x2="37.736" y2="-42.843" y1="-42.843" style="fill:none;stroke:#000000;stroke-width:0.3;" x1="43.481"/>
  <line x2="46.652" y2="-42.843" y1="-42.843" style="fill:none;stroke:#000000;stroke-width:0.3;" x1="52.397"/>
  <line x2="0.163" y2="-39.873" y1="-39.873" style="fill:none;stroke:#000000;stroke-width:0.3;" x1="2.209"/>
  <line x2="11.158" y2="-39.873" y1="-39.873" style="fill:none;stroke:#000000;stroke-width:0.3;" x1="5.413"/>
  <line x2="14.33" y2="-39.873" y1="-39.873" style="fill:none;stroke:#000000;stroke-width:0.3;" x1="20.075"/>
  <line x2="28.992" y2="-39.873" y1="-39.873" style="fill:none;stroke:#000000;stroke-width:0.3;" x1="23.246"/>
  <line x2="37.908" y2="-39.873" y1="-39.873" style="fill:none;stroke:#000000;stroke-width:0.3;" x1="32.163"/>
  <line x2="46.825" y2="-39.873" y1="-39.873" style="fill:none;stroke:#000000;stroke-width:0.3;" x1="41.08"/>
  <line x2="53.747" y2="-39.873" y1="-39.873" style="fill:none;stroke:#000000;stroke-width:0.3;" x1="49.996"/>
  <line x2="0" y2="-36.869" y1="-36.869" style="fill:none;stroke:#000000;stroke-width:0.3;" x1="0.163"/>
  <line x2="0.163" y2="-36.869" y1="-36.869" style="fill:none;stroke:#000000;stroke-width:0.3;" x1="5.745"/>
  <line x2="8.916" y2="-36.869" y1="-36.869" style="fill:none;stroke:#000000;stroke-width:0.3;" x1="14.661"/>
  <line x2="17.833" y2="-36.869" y1="-36.869" style="fill:none;stroke:#000000;stroke-width:0.3;" x1="23.578"/>
  <line x2="32.495" y2="-36.869" y1="-36.869" style="fill:none;stroke:#000000;stroke-width:0.3;" x1="26.749"/>
  <line x2="41.411" y2="-36.869" y1="-36.869" style="fill:none;stroke:#000000;stroke-width:0.3;" x1="35.666"/>
  <line x2="50.328" y2="-36.869" y1="-36.869" style="fill:none;stroke:#000000;stroke-width:0.3;" x1="44.583"/>
  <line x2="53.747" y2="-36.869" y1="-36.869" style="fill:none;stroke:#000000;stroke-width:0.3;" x1="53.499"/>
  <line x2="0.163" y2="-33.986" y1="-33.986" style="fill:none;stroke:#000000;stroke-width:0.3;" x1="2.687"/>
  <line x2="5.891" y2="-33.986" y1="-33.986" style="fill:none;stroke:#000000;stroke-width:0.3;" x1="11.637"/>
  <line x2="14.808" y2="-33.986" y1="-33.986" style="fill:none;stroke:#000000;stroke-width:0.3;" x1="20.553"/>
  <line x2="29.47" y2="-33.986" y1="-33.986" style="fill:none;stroke:#000000;stroke-width:0.3;" x1="23.725"/>
  <line x2="38.386" y2="-33.986" y1="-33.986" style="fill:none;stroke:#000000;stroke-width:0.3;" x1="32.641"/>
  <line x2="47.303" y2="-33.986" y1="-33.986" style="fill:none;stroke:#000000;stroke-width:0.3;" x1="41.558"/>
  <line x2="53.747" y2="-33.986" y1="-33.986" style="fill:none;stroke:#000000;stroke-width:0.3;" x1="50.474"/>
  <line x2="1.433" y2="-30.789" y1="-30.789" style="fill:none;stroke:#000000;stroke-width:0.3;" x1="7.178"/>
  <line x2="10.35" y2="-30.789" y1="-30.789" style="fill:none;stroke:#000000;stroke-width:0.3;" x1="16.095"/>
  <line x2="19.266" y2="-30.789" y1="-30.789" style="fill:none;stroke:#000000;stroke-width:0.3;" x1="25.011"/>
  <line x2="33.928" y2="-30.789" y1="-30.789" style="fill:none;stroke:#000000;stroke-width:0.3;" x1="28.183"/>
  <line x2="42.845" y2="-30.789" y1="-30.789" style="fill:none;stroke:#000000;stroke-width:0.3;" x1="37.099"/>
  <line x2="51.761" y2="-30.789" y1="-30.789" style="fill:none;stroke:#000000;stroke-width:0.3;" x1="46.016"/>
  <line x2="0.163" y2="-27.819" y1="-27.819" style="fill:none;stroke:#000000;stroke-width:0.3;" x1="3.961"/>
  <line x2="7.165" y2="-27.819" y1="-27.819" style="fill:none;stroke:#000000;stroke-width:0.3;" x1="12.91"/>
  <line x2="21.827" y2="-27.819" y1="-27.819" style="fill:none;stroke:#000000;stroke-width:0.3;" x1="16.081"/>
  <line x2="30.743" y2="-27.819" y1="-27.819" style="fill:none;stroke:#000000;stroke-width:0.3;" x1="24.998"/>
  <line x2="33.915" y2="-27.819" y1="-27.819" style="fill:none;stroke:#000000;stroke-width:0.3;" x1="39.66"/>
  <line x2="42.831" y2="-27.819" y1="-27.819" style="fill:none;stroke:#000000;stroke-width:0.3;" x1="48.576"/>
  <line x2="53.747" y2="-27.819" y1="-27.819" style="fill:none;stroke:#000000;stroke-width:0.3;" x1="51.748"/>
  <line x2="8.452" y2="-24.684" y1="-24.684" style="fill:none;stroke:#000000;stroke-width:0.3;" x1="2.706"/>
  <line x2="11.623" y2="-24.684" y1="-24.684" style="fill:none;stroke:#000000;stroke-width:0.3;" x1="17.368"/>
  <line x2="20.54" y2="-24.684" y1="-24.684" style="fill:none;stroke:#000000;stroke-width:0.3;" x1="26.285"/>
  <line x2="35.201" y2="-24.684" y1="-24.684" style="fill:none;stroke:#000000;stroke-width:0.3;" x1="29.456"/>
  <line x2="44.118" y2="-24.684" y1="-24.684" style="fill:none;stroke:#000000;stroke-width:0.3;" x1="38.373"/>
  <line x2="53.035" y2="-24.684" y1="-24.684" style="fill:none;stroke:#000000;stroke-width:0.3;" x1="47.29"/>
  <line x2="0.163" y2="-21.879" y1="-21.879" style="fill:none;stroke:#000000;stroke-width:0.3;" x1="3.483"/>
  <line x2="6.688" y2="-21.879" y1="-21.879" style="fill:none;stroke:#000000;stroke-width:0.3;" x1="12.433"/>
  <line x2="15.604" y2="-21.879" y1="-21.879" style="fill:none;stroke:#000000;stroke-width:0.3;" x1="21.349"/>
  <line x2="30.266" y2="-21.879" y1="-21.879" style="fill:none;stroke:#000000;stroke-width:0.3;" x1="24.521"/>
  <line x2="39.183" y2="-21.879" y1="-21.879" style="fill:none;stroke:#000000;stroke-width:0.3;" x1="33.437"/>
  <line x2="48.099" y2="-21.879" y1="-21.879" style="fill:none;stroke:#000000;stroke-width:0.3;" x1="42.354"/>
  <line x2="53.747" y2="-21.879" y1="-21.879" style="fill:none;stroke:#000000;stroke-width:0.3;" x1="51.271"/>
  <line x2="1.592" y2="-18.744" y1="-18.744" style="fill:none;stroke:#000000;stroke-width:0.3;" x1="7.337"/>
  <line x2="10.509" y2="-18.744" y1="-18.744" style="fill:none;stroke:#000000;stroke-width:0.3;" x1="16.254"/>
  <line x2="19.425" y2="-18.744" y1="-18.744" style="fill:none;stroke:#000000;stroke-width:0.3;" x1="25.17"/>
  <line x2="34.087" y2="-18.744" y1="-18.744" style="fill:none;stroke:#000000;stroke-width:0.3;" x1="28.342"/>
  <line x2="37.259" y2="-18.744" y1="-18.744" style="fill:none;stroke:#000000;stroke-width:0.3;" x1="43.004"/>
  <line x2="51.92" y2="-18.744" y1="-18.744" style="fill:none;stroke:#000000;stroke-width:0.3;" x1="46.175"/>
  <line x2="0.163" y2="-15.774" y1="-15.774" style="fill:none;stroke:#000000;stroke-width:0.3;" x1="2.687"/>
  <line x2="11.637" y2="-15.774" y1="-15.774" style="fill:none;stroke:#000000;stroke-width:0.3;" x1="5.891"/>
  <line x2="20.553" y2="-15.774" y1="-15.774" style="fill:none;stroke:#000000;stroke-width:0.3;" x1="14.808"/>
  <line x2="29.47" y2="-15.774" y1="-15.774" style="fill:none;stroke:#000000;stroke-width:0.3;" x1="23.725"/>
  <line x2="38.386" y2="-15.774" y1="-15.774" style="fill:none;stroke:#000000;stroke-width:0.3;" x1="32.641"/>
  <line x2="47.303" y2="-15.774" y1="-15.774" style="fill:none;stroke:#000000;stroke-width:0.3;" x1="41.558"/>
  <line x2="53.747" y2="-15.774" y1="-15.774" style="fill:none;stroke:#000000;stroke-width:0.3;" x1="50.474"/>
  <line x2="0.796" y2="-12.804" y1="-12.804" style="fill:none;stroke:#000000;stroke-width:0.3;" x1="6.541"/>
  <line x2="9.712" y2="-12.804" y1="-12.804" style="fill:none;stroke:#000000;stroke-width:0.3;" x1="15.458"/>
  <line x2="18.629" y2="-12.804" y1="-12.804" style="fill:none;stroke:#000000;stroke-width:0.3;" x1="24.374"/>
  <line x2="27.546" y2="-12.804" y1="-12.804" style="fill:none;stroke:#000000;stroke-width:0.3;" x1="33.291"/>
  <line x2="42.207" y2="-12.804" y1="-12.804" style="fill:none;stroke:#000000;stroke-width:0.3;" x1="36.462"/>
  <line x2="45.379" y2="-12.804" y1="-12.804" style="fill:none;stroke:#000000;stroke-width:0.3;" x1="51.124"/>
  <line x2="0.163" y2="-10.008" y1="-10.008" style="fill:none;stroke:#000000;stroke-width:0.3;" x1="3.643"/>
  <line x2="6.847" y2="-10.008" y1="-10.008" style="fill:none;stroke:#000000;stroke-width:0.3;" x1="12.592"/>
  <line x2="21.508" y2="-10.008" y1="-10.008" style="fill:none;stroke:#000000;stroke-width:0.3;" x1="15.763"/>
  <line x2="30.425" y2="-10.008" y1="-10.008" style="fill:none;stroke:#000000;stroke-width:0.3;" x1="24.68"/>
  <line x2="39.342" y2="-10.008" y1="-10.008" style="fill:none;stroke:#000000;stroke-width:0.3;" x1="33.597"/>
  <line x2="48.258" y2="-10.008" y1="-10.008" style="fill:none;stroke:#000000;stroke-width:0.3;" x1="42.513"/>
  <line x2="53.747" y2="-10.008" y1="-10.008" style="fill:none;stroke:#000000;stroke-width:0.3;" x1="51.43"/>
  <line x2="3.024" y2="-6.873" y1="-6.873" style="fill:none;stroke:#000000;stroke-width:0.3;" x1="8.771"/>
  <line x2="11.941" y2="-6.873" y1="-6.873" style="fill:none;stroke:#000000;stroke-width:0.3;" x1="17.687"/>
  <line x2="20.858" y2="-6.873" y1="-6.873" style="fill:none;stroke:#000000;stroke-width:0.3;" x1="26.604"/>
  <line x2="29.774" y2="-6.873" y1="-6.873" style="fill:none;stroke:#000000;stroke-width:0.3;" x1="35.521"/>
  <line x2="44.437" y2="-6.873" y1="-6.873" style="fill:none;stroke:#000000;stroke-width:0.3;" x1="38.691"/>
  <line x2="53.354" y2="-6.873" y1="-6.873" style="fill:none;stroke:#000000;stroke-width:0.3;" x1="47.608"/>
  <line x2="5.234" y2="-3.903" y1="-3.903" style="fill:none;stroke:#000000;stroke-width:0.3;" x1="0.163"/>
  <line x2="14.184" y2="-3.903" y1="-3.903" style="fill:none;stroke:#000000;stroke-width:0.3;" x1="8.439"/>
  <line x2="23.101" y2="-3.903" y1="-3.903" style="fill:none;stroke:#000000;stroke-width:0.3;" x1="17.355"/>
  <line x2="32.018" y2="-3.903" y1="-3.903" style="fill:none;stroke:#000000;stroke-width:0.3;" x1="26.271"/>
  <line x2="40.934" y2="-3.903" y1="-3.903" style="fill:none;stroke:#000000;stroke-width:0.3;" x1="35.188"/>
  <line x2="49.851" y2="-3.903" y1="-3.903" style="fill:none;stroke:#000000;stroke-width:0.3;" x1="44.105"/>
  <line x2="53.747" y2="-3.903" y1="-3.903" style="fill:none;stroke:#000000;stroke-width:0.3;" x1="53.021"/>
  <line x2="3.344" y2="-0.933" y1="-0.933" style="fill:none;stroke:#000000;stroke-width:0.3;" x1="9.089"/>
  <line x2="12.26" y2="-0.933" y1="-0.933" style="fill:none;stroke:#000000;stroke-width:0.3;" x1="18.005"/>
  <line x2="21.177" y2="-0.933" y1="-0.933" style="fill:none;stroke:#000000;stroke-width:0.3;" x1="26.922"/>
  <line x2="30.093" y2="-0.933" y1="-0.933" style="fill:none;stroke:#000000;stroke-width:0.3;" x1="35.839"/>
  <line x2="39.01" y2="-0.933" y1="-0.933" style="fill:none;stroke:#000000;stroke-width:0.3;" x1="44.755"/>
  <line x2="47.927" y2="-0.933" y1="-0.933" style="fill:none;stroke:#000000;stroke-width:0.3;" x1="53.672"/>
  <line x2="5.919" y2="-51.687" y1="-51.687" style="fill:none;stroke:#000000;stroke-width:0.7;stroke-linecap:round;" x1="5.919"/>
  <line x2="14.896" y2="-51.687" y1="-51.687" style="fill:none;stroke:#000000;stroke-width:0.7;stroke-linecap:round;" x1="14.896"/>
  <line x2="23.812" y2="-51.687" y1="-51.687" style="fill:none;stroke:#000000;stroke-width:0.7;stroke-linecap:round;" x1="23.812"/>
  <line x2="32.755" y2="-51.687" y1="-51.687" style="fill:none;stroke:#000000;stroke-width:0.7;stroke-linecap:round;" x1="32.755"/>
  <line x2="41.642" y2="-51.687" y1="-51.687" style="fill:none;stroke:#000000;stroke-width:0.7;stroke-linecap:round;" x1="41.642"/>
  <line x2="50.589" y2="-51.687" y1="-51.687" style="fill:none;stroke:#000000;stroke-width:0.7;stroke-linecap:round;" x1="50.589"/>
  <line x2="1.222" y2="-48.61" y1="-48.61" style="fill:none;stroke:#000000;stroke-width:0.7;stroke-linecap:round;" x1="1.222"/>
  <line x2="10.198" y2="-48.61" y1="-48.61" style="fill:none;stroke:#000000;stroke-width:0.7;stroke-linecap:round;" x1="10.198"/>
  <line x2="19.115" y2="-48.61" y1="-48.61" style="fill:none;stroke:#000000;stroke-width:0.7;stroke-linecap:round;" x1="19.115"/>
  <line x2="28.059" y2="-48.61" y1="-48.61" style="fill:none;stroke:#000000;stroke-width:0.7;stroke-linecap:round;" x1="28.059"/>
  <line x2="36.945" y2="-48.61" y1="-48.61" style="fill:none;stroke:#000000;stroke-width:0.7;stroke-linecap:round;" x1="36.945"/>
  <line x2="45.892" y2="-48.61" y1="-48.61" style="fill:none;stroke:#000000;stroke-width:0.7;stroke-linecap:round;" x1="45.892"/>
  <line x2="4.195" y2="-45.61" y1="-45.61" style="fill:none;stroke:#000000;stroke-width:0.7;stroke-linecap:round;" x1="4.195"/>
  <line x2="13.172" y2="-45.61" y1="-45.61" style="fill:none;stroke:#000000;stroke-width:0.7;stroke-linecap:round;" x1="13.172"/>
  <line x2="22.089" y2="-45.61" y1="-45.61" style="fill:none;stroke:#000000;stroke-width:0.7;stroke-linecap:round;" x1="22.089"/>
  <line x2="31.032" y2="-45.61" y1="-45.61" style="fill:none;stroke:#000000;stroke-width:0.7;stroke-linecap:round;" x1="31.032"/>
  <line x2="39.919" y2="-45.61" y1="-45.61" style="fill:none;stroke:#000000;stroke-width:0.7;stroke-linecap:round;" x1="39.919"/>
  <line x2="48.865" y2="-45.61" y1="-45.61" style="fill:none;stroke:#000000;stroke-width:0.7;stroke-linecap:round;" x1="48.865"/>
  <line x2="0.555" y2="-42.776" y1="-42.776" style="fill:none;stroke:#000000;stroke-width:0.7;stroke-linecap:round;" x1="0.555"/>
  <line x2="9.532" y2="-42.776" y1="-42.776" style="fill:none;stroke:#000000;stroke-width:0.7;stroke-linecap:round;" x1="9.532"/>
  <line x2="18.448" y2="-42.776" y1="-42.776" style="fill:none;stroke:#000000;stroke-width:0.7;stroke-linecap:round;" x1="18.448"/>
  <line x2="27.392" y2="-42.776" y1="-42.776" style="fill:none;stroke:#000000;stroke-width:0.7;stroke-linecap:round;" x1="27.392"/>
  <line x2="36.278" y2="-42.776" y1="-42.776" style="fill:none;stroke:#000000;stroke-width:0.7;stroke-linecap:round;" x1="36.278"/>
  <line x2="45.226" y2="-42.776" y1="-42.776" style="fill:none;stroke:#000000;stroke-width:0.7;stroke-linecap:round;" x1="45.226"/>
  <line x2="3.778" y2="-39.86" y1="-39.86" style="fill:none;stroke:#000000;stroke-width:0.7;stroke-linecap:round;" x1="3.778"/>
  <line x2="12.755" y2="-39.86" y1="-39.86" style="fill:none;stroke:#000000;stroke-width:0.7;stroke-linecap:round;" x1="12.755"/>
  <line x2="21.672" y2="-39.86" y1="-39.86" style="fill:none;stroke:#000000;stroke-width:0.7;stroke-linecap:round;" x1="21.672"/>
  <line x2="30.615" y2="-39.86" y1="-39.86" style="fill:none;stroke:#000000;stroke-width:0.7;stroke-linecap:round;" x1="30.615"/>
  <line x2="39.502" y2="-39.86" y1="-39.86" style="fill:none;stroke:#000000;stroke-width:0.7;stroke-linecap:round;" x1="39.502"/>
  <line x2="48.448" y2="-39.86" y1="-39.86" style="fill:none;stroke:#000000;stroke-width:0.7;stroke-linecap:round;" x1="48.448"/>
  <line x2="7.332" y2="-36.86" y1="-36.86" style="fill:none;stroke:#000000;stroke-width:0.7;stroke-linecap:round;" x1="7.332"/>
  <line x2="16.309" y2="-36.86" y1="-36.86" style="fill:none;stroke:#000000;stroke-width:0.7;stroke-linecap:round;" x1="16.309"/>
  <line x2="25.226" y2="-36.86" y1="-36.86" style="fill:none;stroke:#000000;stroke-width:0.7;stroke-linecap:round;" x1="25.226"/>
  <line x2="34.169" y2="-36.86" y1="-36.86" style="fill:none;stroke:#000000;stroke-width:0.7;stroke-linecap:round;" x1="34.169"/>
  <line x2="43.055" y2="-36.86" y1="-36.86" style="fill:none;stroke:#000000;stroke-width:0.7;stroke-linecap:round;" x1="43.055"/>
  <line x2="52.002" y2="-36.86" y1="-36.86" style="fill:none;stroke:#000000;stroke-width:0.7;stroke-linecap:round;" x1="52.002"/>
  <line x2="4.222" y2="-34.026" y1="-34.026" style="fill:none;stroke:#000000;stroke-width:0.7;stroke-linecap:round;" x1="4.222"/>
  <line x2="13.198" y2="-34.026" y1="-34.026" style="fill:none;stroke:#000000;stroke-width:0.7;stroke-linecap:round;" x1="13.198"/>
  <line x2="22.115" y2="-34.026" y1="-34.026" style="fill:none;stroke:#000000;stroke-width:0.7;stroke-linecap:round;" x1="22.115"/>
  <line x2="31.059" y2="-34.026" y1="-34.026" style="fill:none;stroke:#000000;stroke-width:0.7;stroke-linecap:round;" x1="31.059"/>
  <line x2="39.945" y2="-34.026" y1="-34.026" style="fill:none;stroke:#000000;stroke-width:0.7;stroke-linecap:round;" x1="39.945"/>
  <line x2="48.892" y2="-34.026" y1="-34.026" style="fill:none;stroke:#000000;stroke-width:0.7;stroke-linecap:round;" x1="48.892"/>
  <line x2="8.809" y2="-30.86" y1="-30.86" style="fill:none;stroke:#000000;stroke-width:0.7;stroke-linecap:round;" x1="8.809"/>
  <line x2="17.785" y2="-30.86" y1="-30.86" style="fill:none;stroke:#000000;stroke-width:0.7;stroke-linecap:round;" x1="17.785"/>
  <line x2="26.702" y2="-30.86" y1="-30.86" style="fill:none;stroke:#000000;stroke-width:0.7;stroke-linecap:round;" x1="26.702"/>
  <line x2="35.646" y2="-30.86" y1="-30.86" style="fill:none;stroke:#000000;stroke-width:0.7;stroke-linecap:round;" x1="35.646"/>
  <line x2="44.532" y2="-30.86" y1="-30.86" style="fill:none;stroke:#000000;stroke-width:0.7;stroke-linecap:round;" x1="44.532"/>
  <line x2="53.479" y2="-30.86" y1="-30.86" style="fill:none;stroke:#000000;stroke-width:0.7;stroke-linecap:round;" x1="53.479"/>
  <line x2="5.502" y2="-27.776" y1="-27.776" style="fill:none;stroke:#000000;stroke-width:0.7;stroke-linecap:round;" x1="5.502"/>
  <line x2="14.479" y2="-27.776" y1="-27.776" style="fill:none;stroke:#000000;stroke-width:0.7;stroke-linecap:round;" x1="14.479"/>
  <line x2="23.396" y2="-27.776" y1="-27.776" style="fill:none;stroke:#000000;stroke-width:0.7;stroke-linecap:round;" x1="23.396"/>
  <line x2="32.339" y2="-27.776" y1="-27.776" style="fill:none;stroke:#000000;stroke-width:0.7;stroke-linecap:round;" x1="32.339"/>
  <line x2="41.226" y2="-27.776" y1="-27.776" style="fill:none;stroke:#000000;stroke-width:0.7;stroke-linecap:round;" x1="41.226"/>
  <line x2="50.172" y2="-27.776" y1="-27.776" style="fill:none;stroke:#000000;stroke-width:0.7;stroke-linecap:round;" x1="50.172"/>
  <line x2="9.919" y2="-24.637" y1="-24.637" style="fill:none;stroke:#000000;stroke-width:0.7;stroke-linecap:round;" x1="9.919"/>
  <line x2="1.163" y2="-24.637" y1="-24.637" style="fill:none;stroke:#000000;stroke-width:0.7;stroke-linecap:round;" x1="1.163"/>
  <line x2="18.896" y2="-24.637" y1="-24.637" style="fill:none;stroke:#000000;stroke-width:0.7;stroke-linecap:round;" x1="18.896"/>
  <line x2="27.812" y2="-24.637" y1="-24.637" style="fill:none;stroke:#000000;stroke-width:0.7;stroke-linecap:round;" x1="27.812"/>
  <line x2="36.755" y2="-24.637" y1="-24.637" style="fill:none;stroke:#000000;stroke-width:0.7;stroke-linecap:round;" x1="36.755"/>
  <line x2="45.642" y2="-24.637" y1="-24.637" style="fill:none;stroke:#000000;stroke-width:0.7;stroke-linecap:round;" x1="45.642"/>
  <line x2="5.119" y2="-21.887" y1="-21.887" style="fill:none;stroke:#000000;stroke-width:0.7;stroke-linecap:round;" x1="5.119"/>
  <line x2="14.096" y2="-21.887" y1="-21.887" style="fill:none;stroke:#000000;stroke-width:0.7;stroke-linecap:round;" x1="14.096"/>
  <line x2="23.012" y2="-21.887" y1="-21.887" style="fill:none;stroke:#000000;stroke-width:0.7;stroke-linecap:round;" x1="23.012"/>
  <line x2="31.955" y2="-21.887" y1="-21.887" style="fill:none;stroke:#000000;stroke-width:0.7;stroke-linecap:round;" x1="31.955"/>
  <line x2="40.842" y2="-21.887" y1="-21.887" style="fill:none;stroke:#000000;stroke-width:0.7;stroke-linecap:round;" x1="40.842"/>
  <line x2="49.789" y2="-21.887" y1="-21.887" style="fill:none;stroke:#000000;stroke-width:0.7;stroke-linecap:round;" x1="49.789"/>
  <line x2="8.722" y2="-18.693" y1="-18.693" style="fill:none;stroke:#000000;stroke-width:0.7;stroke-linecap:round;" x1="8.722"/>
  <line x2="17.698" y2="-18.693" y1="-18.693" style="fill:none;stroke:#000000;stroke-width:0.7;stroke-linecap:round;" x1="17.698"/>
  <line x2="26.615" y2="-18.693" y1="-18.693" style="fill:none;stroke:#000000;stroke-width:0.7;stroke-linecap:round;" x1="26.615"/>
  <line x2="35.559" y2="-18.693" y1="-18.693" style="fill:none;stroke:#000000;stroke-width:0.7;stroke-linecap:round;" x1="35.559"/>
  <line x2="44.445" y2="-18.693" y1="-18.693" style="fill:none;stroke:#000000;stroke-width:0.7;stroke-linecap:round;" x1="44.445"/>
  <line x2="53.392" y2="-18.693" y1="-18.693" style="fill:none;stroke:#000000;stroke-width:0.7;stroke-linecap:round;" x1="53.392"/>
  <line x2="4.305" y2="-15.693" y1="-15.693" style="fill:none;stroke:#000000;stroke-width:0.7;stroke-linecap:round;" x1="4.305"/>
  <line x2="13.282" y2="-15.693" y1="-15.693" style="fill:none;stroke:#000000;stroke-width:0.7;stroke-linecap:round;" x1="13.282"/>
  <line x2="22.198" y2="-15.693" y1="-15.693" style="fill:none;stroke:#000000;stroke-width:0.7;stroke-linecap:round;" x1="22.198"/>
  <line x2="31.142" y2="-15.693" y1="-15.693" style="fill:none;stroke:#000000;stroke-width:0.7;stroke-linecap:round;" x1="31.142"/>
  <line x2="40.028" y2="-15.693" y1="-15.693" style="fill:none;stroke:#000000;stroke-width:0.7;stroke-linecap:round;" x1="40.028"/>
  <line x2="48.976" y2="-15.693" y1="-15.693" style="fill:none;stroke:#000000;stroke-width:0.7;stroke-linecap:round;" x1="48.976"/>
  <line x2="8.055" y2="-12.776" y1="-12.776" style="fill:none;stroke:#000000;stroke-width:0.7;stroke-linecap:round;" x1="8.055"/>
  <line x2="17.032" y2="-12.776" y1="-12.776" style="fill:none;stroke:#000000;stroke-width:0.7;stroke-linecap:round;" x1="17.032"/>
  <line x2="25.948" y2="-12.776" y1="-12.776" style="fill:none;stroke:#000000;stroke-width:0.7;stroke-linecap:round;" x1="25.948"/>
  <line x2="34.892" y2="-12.776" y1="-12.776" style="fill:none;stroke:#000000;stroke-width:0.7;stroke-linecap:round;" x1="34.892"/>
  <line x2="43.778" y2="-12.776" y1="-12.776" style="fill:none;stroke:#000000;stroke-width:0.7;stroke-linecap:round;" x1="43.778"/>
  <line x2="52.726" y2="-12.776" y1="-12.776" style="fill:none;stroke:#000000;stroke-width:0.7;stroke-linecap:round;" x1="52.726"/>
  <line x2="5.222" y2="-9.943" y1="-9.943" style="fill:none;stroke:#000000;stroke-width:0.7;stroke-linecap:round;" x1="5.222"/>
  <line x2="14.198" y2="-9.943" y1="-9.943" style="fill:none;stroke:#000000;stroke-width:0.7;stroke-linecap:round;" x1="14.198"/>
  <line x2="23.115" y2="-9.943" y1="-9.943" style="fill:none;stroke:#000000;stroke-width:0.7;stroke-linecap:round;" x1="23.115"/>
  <line x2="32.059" y2="-9.943" y1="-9.943" style="fill:none;stroke:#000000;stroke-width:0.7;stroke-linecap:round;" x1="32.059"/>
  <line x2="40.945" y2="-9.943" y1="-9.943" style="fill:none;stroke:#000000;stroke-width:0.7;stroke-linecap:round;" x1="40.945"/>
  <line x2="49.892" y2="-9.943" y1="-9.943" style="fill:none;stroke:#000000;stroke-width:0.7;stroke-linecap:round;" x1="49.892"/>
  <line x2="1.389" y2="-6.833" y1="-6.833" style="fill:none;stroke:#000000;stroke-width:0.7;stroke-linecap:round;" x1="1.389"/>
  <line x2="10.365" y2="-6.833" y1="-6.833" style="fill:none;stroke:#000000;stroke-width:0.7;stroke-linecap:round;" x1="10.365"/>
  <line x2="19.282" y2="-6.833" y1="-6.833" style="fill:none;stroke:#000000;stroke-width:0.7;stroke-linecap:round;" x1="19.282"/>
  <line x2="28.226" y2="-6.833" y1="-6.833" style="fill:none;stroke:#000000;stroke-width:0.7;stroke-linecap:round;" x1="28.226"/>
  <line x2="37.111" y2="-6.833" y1="-6.833" style="fill:none;stroke:#000000;stroke-width:0.7;stroke-linecap:round;" x1="37.111"/>
  <line x2="46.059" y2="-6.833" y1="-6.833" style="fill:none;stroke:#000000;stroke-width:0.7;stroke-linecap:round;" x1="46.059"/>
  <line x2="6.805" y2="-3.86" y1="-3.86" style="fill:none;stroke:#000000;stroke-width:0.7;stroke-linecap:round;" x1="6.805"/>
  <line x2="15.782" y2="-3.86" y1="-3.86" style="fill:none;stroke:#000000;stroke-width:0.7;stroke-linecap:round;" x1="15.782"/>
  <line x2="24.698" y2="-3.86" y1="-3.86" style="fill:none;stroke:#000000;stroke-width:0.7;stroke-linecap:round;" x1="24.698"/>
  <line x2="33.642" y2="-3.86" y1="-3.86" style="fill:none;stroke:#000000;stroke-width:0.7;stroke-linecap:round;" x1="33.642"/>
  <line x2="42.528" y2="-3.86" y1="-3.86" style="fill:none;stroke:#000000;stroke-width:0.7;stroke-linecap:round;" x1="42.528"/>
  <line x2="51.476" y2="-3.86" y1="-3.86" style="fill:none;stroke:#000000;stroke-width:0.7;stroke-linecap:round;" x1="51.476"/>
  <line x2="1.639" y2="-0.86" y1="-0.86" style="fill:none;stroke:#000000;stroke-width:0.7;stroke-linecap:round;" x1="1.639"/>
  <line x2="10.615" y2="-0.86" y1="-0.86" style="fill:none;stroke:#000000;stroke-width:0.7;stroke-linecap:round;" x1="10.615"/>
  <line x2="19.532" y2="-0.86" y1="-0.86" style="fill:none;stroke:#000000;stroke-width:0.7;stroke-linecap:round;" x1="19.532"/>
  <line x2="28.476" y2="-0.86" y1="-0.86" style="fill:none;stroke:#000000;stroke-width:0.7;stroke-linecap:round;" x1="28.476"/>
  <line x2="37.361" y2="-0.86" y1="-0.86" style="fill:none;stroke:#000000;stroke-width:0.7;stroke-linecap:round;" x1="37.361"/>
  <line x2="46.309" y2="-0.86" y1="-0.86" style="fill:none;stroke:#000000;stroke-width:0.7;stroke-linecap:round;" x1="46.309"/>
 </g>
</svg>
