<?xml version="1.0"?>
<!-- Converted with SVG Converter - Version 0.9.5 (Compiled Fri Feb 21 09:53:38 2020) - Copyright (C) 2011 Nokia -->
<svg xmlns="http://www.w3.org/2000/svg" xmlns:xlink="http://www.w3.org/1999/xlink" xml:space="preserve" width="53.584" version="1.1" height="53.584" viewBox="0 -53.584 53.584 53.584" baseProfile="tiny" y="0px" x="0px">
 <g>
  <rect width="53.584" height="53.584" y="-53.584" style="fill:none;" x="0"/>
  <line x2="0" x1="3.775" style="fill:none;stroke:#000000;stroke-width:0.3;" y2="-51.754" y1="-51.754"/>
  <line x2="12.726" x1="6.357" style="fill:none;stroke:#000000;stroke-width:0.3;" y2="-51.754" y1="-51.754"/>
  <line x2="21.642" x1="15.273" style="fill:none;stroke:#000000;stroke-width:0.3;" y2="-51.754" y1="-51.754"/>
  <line x2="30.559" x1="24.19" style="fill:none;stroke:#000000;stroke-width:0.3;" y2="-51.754" y1="-51.754"/>
  <line x2="39.476" x1="33.106" style="fill:none;stroke:#000000;stroke-width:0.3;" y2="-51.754" y1="-51.754"/>
  <line x2="48.392" x1="42.022" style="fill:none;stroke:#000000;stroke-width:0.3;" y2="-51.754" y1="-51.754"/>
  <line x2="50.939" x1="53.584" style="fill:none;stroke:#000000;stroke-width:0.3;" y2="-51.754" y1="-51.754"/>
  <line x2="1.738" x1="8.107" style="fill:none;stroke:#000000;stroke-width:0.3;" y2="-48.619" y1="-48.619"/>
  <line x2="10.655" x1="17.024" style="fill:none;stroke:#000000;stroke-width:0.3;" y2="-48.619" y1="-48.619"/>
  <line x2="19.572" x1="25.941" style="fill:none;stroke:#000000;stroke-width:0.3;" y2="-48.619" y1="-48.619"/>
  <line x2="28.488" x1="34.857" style="fill:none;stroke:#000000;stroke-width:0.3;" y2="-48.619" y1="-48.619"/>
  <line x2="37.405" x1="43.774" style="fill:none;stroke:#000000;stroke-width:0.3;" y2="-48.619" y1="-48.619"/>
  <line x2="52.69" x1="46.322" style="fill:none;stroke:#000000;stroke-width:0.3;" y2="-48.619" y1="-48.619"/>
  <line x2="0" x1="2.024" style="fill:none;stroke:#000000;stroke-width:0.3;" y2="-45.648" y1="-45.648"/>
  <line x2="5.938" x1="4.604" style="fill:none;stroke:#000000;stroke-width:0.3;" y2="-45.648" y1="-45.648"/>
  <line x2="5.938" x1="10.974" style="fill:none;stroke:#000000;stroke-width:0.3;" y2="-45.648" y1="-45.648"/>
  <line x2="19.891" x1="13.521" style="fill:none;stroke:#000000;stroke-width:0.3;" y2="-45.648" y1="-45.648"/>
  <line x2="22.438" x1="23.791" style="fill:none;stroke:#000000;stroke-width:0.3;" y2="-45.648" y1="-45.648"/>
  <line x2="28.807" x1="23.791" style="fill:none;stroke:#000000;stroke-width:0.3;" y2="-45.648" y1="-45.648"/>
  <line x2="37.724" x1="31.354" style="fill:none;stroke:#000000;stroke-width:0.3;" y2="-45.648" y1="-45.648"/>
  <line x2="46.641" x1="41.562" style="fill:none;stroke:#000000;stroke-width:0.3;" y2="-45.648" y1="-45.648"/>
  <line x2="40.271" x1="41.562" style="fill:none;stroke:#000000;stroke-width:0.3;" y2="-45.648" y1="-45.648"/>
  <line x2="53.584" x1="49.188" style="fill:none;stroke:#000000;stroke-width:0.3;" y2="-45.648" y1="-45.648"/>
  <line x2="0.942" x1="7.312" style="fill:none;stroke:#000000;stroke-width:0.3;" y2="-42.844" y1="-42.844"/>
  <line x2="9.859" x1="16.229" style="fill:none;stroke:#000000;stroke-width:0.3;" y2="-42.844" y1="-42.844"/>
  <line x2="18.775" x1="25.145" style="fill:none;stroke:#000000;stroke-width:0.3;" y2="-42.844" y1="-42.844"/>
  <line x2="27.692" x1="34.062" style="fill:none;stroke:#000000;stroke-width:0.3;" y2="-42.844" y1="-42.844"/>
  <line x2="36.609" x1="42.979" style="fill:none;stroke:#000000;stroke-width:0.3;" y2="-42.844" y1="-42.844"/>
  <line x2="45.525" x1="51.895" style="fill:none;stroke:#000000;stroke-width:0.3;" y2="-42.844" y1="-42.844"/>
  <line x2="0" x1="1.706" style="fill:none;stroke:#000000;stroke-width:0.3;" y2="-39.874" y1="-39.874"/>
  <line x2="10.655" x1="5.335" style="fill:none;stroke:#000000;stroke-width:0.3;" y2="-39.874" y1="-39.874"/>
  <line x2="5.335" x1="4.286" style="fill:none;stroke:#000000;stroke-width:0.3;" y2="-39.874" y1="-39.874"/>
  <line x2="13.203" x1="19.572" style="fill:none;stroke:#000000;stroke-width:0.3;" y2="-39.874" y1="-39.874"/>
  <line x2="28.488" x1="23.375" style="fill:none;stroke:#000000;stroke-width:0.3;" y2="-39.874" y1="-39.874"/>
  <line x2="22.119" x1="23.375" style="fill:none;stroke:#000000;stroke-width:0.3;" y2="-39.874" y1="-39.874"/>
  <line x2="37.405" x1="31.036" style="fill:none;stroke:#000000;stroke-width:0.3;" y2="-39.874" y1="-39.874"/>
  <line x2="46.322" x1="41.146" style="fill:none;stroke:#000000;stroke-width:0.3;" y2="-39.874" y1="-39.874"/>
  <line x2="41.146" x1="39.953" style="fill:none;stroke:#000000;stroke-width:0.3;" y2="-39.874" y1="-39.874"/>
  <line x2="53.584" x1="48.869" style="fill:none;stroke:#000000;stroke-width:0.3;" y2="-39.874" y1="-39.874"/>
  <line x2="0" x1="5.242" style="fill:none;stroke:#000000;stroke-width:0.3;" y2="-36.869" y1="-36.869"/>
  <line x2="7.789" x1="14.158" style="fill:none;stroke:#000000;stroke-width:0.3;" y2="-36.869" y1="-36.869"/>
  <line x2="23.075" x1="16.706" style="fill:none;stroke:#000000;stroke-width:0.3;" y2="-36.869" y1="-36.869"/>
  <line x2="25.622" x1="31.991" style="fill:none;stroke:#000000;stroke-width:0.3;" y2="-36.869" y1="-36.869"/>
  <line x2="40.908" x1="34.539" style="fill:none;stroke:#000000;stroke-width:0.3;" y2="-36.869" y1="-36.869"/>
  <line x2="49.825" x1="43.456" style="fill:none;stroke:#000000;stroke-width:0.3;" y2="-36.869" y1="-36.869"/>
  <line x2="53.584" x1="52.372" style="fill:none;stroke:#000000;stroke-width:0.3;" y2="-36.869" y1="-36.869"/>
  <line x2="0" x1="2.184" style="fill:none;stroke:#000000;stroke-width:0.3;" y2="-33.986" y1="-33.986"/>
  <line x2="4.764" x1="11.133" style="fill:none;stroke:#000000;stroke-width:0.3;" y2="-33.986" y1="-33.986"/>
  <line x2="14.814" x1="13.681" style="fill:none;stroke:#000000;stroke-width:0.3;" y2="-33.986" y1="-33.986"/>
  <line x2="14.814" x1="20.05" style="fill:none;stroke:#000000;stroke-width:0.3;" y2="-33.986" y1="-33.986"/>
  <line x2="22.598" x1="28.966" style="fill:none;stroke:#000000;stroke-width:0.3;" y2="-33.986" y1="-33.986"/>
  <line x2="32.772" x1="37.883" style="fill:none;stroke:#000000;stroke-width:0.3;" y2="-33.986" y1="-33.986"/>
  <line x2="31.514" x1="32.772" style="fill:none;stroke:#000000;stroke-width:0.3;" y2="-33.986" y1="-33.986"/>
  <line x2="40.431" x1="46.8" style="fill:none;stroke:#000000;stroke-width:0.3;" y2="-33.986" y1="-33.986"/>
  <line x2="50.544" x1="49.347" style="fill:none;stroke:#000000;stroke-width:0.3;" y2="-33.986" y1="-33.986"/>
  <line x2="53.584" x1="50.544" style="fill:none;stroke:#000000;stroke-width:0.3;" y2="-33.986" y1="-33.986"/>
  <line x2="0.306" x1="6.675" style="fill:none;stroke:#000000;stroke-width:0.3;" y2="-30.789" y1="-30.789"/>
  <line x2="9.223" x1="15.592" style="fill:none;stroke:#000000;stroke-width:0.3;" y2="-30.789" y1="-30.789"/>
  <line x2="18.139" x1="24.508" style="fill:none;stroke:#000000;stroke-width:0.3;" y2="-30.789" y1="-30.789"/>
  <line x2="33.425" x1="27.056" style="fill:none;stroke:#000000;stroke-width:0.3;" y2="-30.789" y1="-30.789"/>
  <line x2="42.341" x1="35.972" style="fill:none;stroke:#000000;stroke-width:0.3;" y2="-30.789" y1="-30.789"/>
  <line x2="51.258" x1="44.889" style="fill:none;stroke:#000000;stroke-width:0.3;" y2="-30.789" y1="-30.789"/>
  <line x2="0" x1="3.457" style="fill:none;stroke:#000000;stroke-width:0.3;" y2="-27.819" y1="-27.819"/>
  <line x2="6.038" x1="12.407" style="fill:none;stroke:#000000;stroke-width:0.3;" y2="-27.819" y1="-27.819"/>
  <line x2="15.981" x1="21.323" style="fill:none;stroke:#000000;stroke-width:0.3;" y2="-27.819" y1="-27.819"/>
  <line x2="15.981" x1="14.954" style="fill:none;stroke:#000000;stroke-width:0.3;" y2="-27.819" y1="-27.819"/>
  <line x2="30.24" x1="23.871" style="fill:none;stroke:#000000;stroke-width:0.3;" y2="-27.819" y1="-27.819"/>
  <line x2="39.156" x1="34.002" style="fill:none;stroke:#000000;stroke-width:0.3;" y2="-27.819" y1="-27.819"/>
  <line x2="32.788" x1="34.002" style="fill:none;stroke:#000000;stroke-width:0.3;" y2="-27.819" y1="-27.819"/>
  <line x2="48.073" x1="41.704" style="fill:none;stroke:#000000;stroke-width:0.3;" y2="-27.819" y1="-27.819"/>
  <line x2="53.584" x1="51.939" style="fill:none;stroke:#000000;stroke-width:0.3;" y2="-27.819" y1="-27.819"/>
  <line x2="51.939" x1="50.621" style="fill:none;stroke:#000000;stroke-width:0.3;" y2="-27.819" y1="-27.819"/>
  <line x2="7.948" x1="1.579" style="fill:none;stroke:#000000;stroke-width:0.3;" y2="-24.685" y1="-24.685"/>
  <line x2="10.496" x1="16.865" style="fill:none;stroke:#000000;stroke-width:0.3;" y2="-24.685" y1="-24.685"/>
  <line x2="19.413" x1="25.782" style="fill:none;stroke:#000000;stroke-width:0.3;" y2="-24.685" y1="-24.685"/>
  <line x2="28.329" x1="34.698" style="fill:none;stroke:#000000;stroke-width:0.3;" y2="-24.685" y1="-24.685"/>
  <line x2="37.246" x1="43.615" style="fill:none;stroke:#000000;stroke-width:0.3;" y2="-24.685" y1="-24.685"/>
  <line x2="52.531" x1="46.163" style="fill:none;stroke:#000000;stroke-width:0.3;" y2="-24.685" y1="-24.685"/>
  <line x2="0" x1="2.98" style="fill:none;stroke:#000000;stroke-width:0.3;" y2="-21.88" y1="-21.88"/>
  <line x2="5.561" x1="11.929" style="fill:none;stroke:#000000;stroke-width:0.3;" y2="-21.88" y1="-21.88"/>
  <line x2="20.846" x1="14.477" style="fill:none;stroke:#000000;stroke-width:0.3;" y2="-21.88" y1="-21.88"/>
  <line x2="29.763" x1="23.394" style="fill:none;stroke:#000000;stroke-width:0.3;" y2="-21.88" y1="-21.88"/>
  <line x2="38.679" x1="32.31" style="fill:none;stroke:#000000;stroke-width:0.3;" y2="-21.88" y1="-21.88"/>
  <line x2="47.596" x1="41.227" style="fill:none;stroke:#000000;stroke-width:0.3;" y2="-21.88" y1="-21.88"/>
  <line x2="53.584" x1="50.144" style="fill:none;stroke:#000000;stroke-width:0.3;" y2="-21.88" y1="-21.88"/>
  <line x2="0.465" x1="6.834" style="fill:none;stroke:#000000;stroke-width:0.3;" y2="-18.744" y1="-18.744"/>
  <line x2="9.382" x1="15.751" style="fill:none;stroke:#000000;stroke-width:0.3;" y2="-18.744" y1="-18.744"/>
  <line x2="18.298" x1="24.667" style="fill:none;stroke:#000000;stroke-width:0.3;" y2="-18.744" y1="-18.744"/>
  <line x2="33.584" x1="27.215" style="fill:none;stroke:#000000;stroke-width:0.3;" y2="-18.744" y1="-18.744"/>
  <line x2="36.132" x1="42.5" style="fill:none;stroke:#000000;stroke-width:0.3;" y2="-18.744" y1="-18.744"/>
  <line x2="51.417" x1="45.048" style="fill:none;stroke:#000000;stroke-width:0.3;" y2="-18.744" y1="-18.744"/>
  <line x2="2.184" x1="0" style="fill:none;stroke:#000000;stroke-width:0.3;" y2="-15.774" y1="-15.774"/>
  <line x2="11.133" x1="4.764" style="fill:none;stroke:#000000;stroke-width:0.3;" y2="-15.774" y1="-15.774"/>
  <line x2="13.681" x1="20.05" style="fill:none;stroke:#000000;stroke-width:0.3;" y2="-15.774" y1="-15.774"/>
  <line x2="28.966" x1="22.598" style="fill:none;stroke:#000000;stroke-width:0.3;" y2="-15.774" y1="-15.774"/>
  <line x2="37.883" x1="31.514" style="fill:none;stroke:#000000;stroke-width:0.3;" y2="-15.774" y1="-15.774"/>
  <line x2="46.8" x1="40.431" style="fill:none;stroke:#000000;stroke-width:0.3;" y2="-15.774" y1="-15.774"/>
  <line x2="53.584" x1="49.347" style="fill:none;stroke:#000000;stroke-width:0.3;" y2="-15.774" y1="-15.774"/>
  <line x2="0" x1="1.338" style="fill:none;stroke:#000000;stroke-width:0.3;" y2="-12.805" y1="-12.805"/>
  <line x2="1.338" x1="6.038" style="fill:none;stroke:#000000;stroke-width:0.3;" y2="-12.805" y1="-12.805"/>
  <line x2="8.585" x1="14.954" style="fill:none;stroke:#000000;stroke-width:0.3;" y2="-12.805" y1="-12.805"/>
  <line x2="18.733" x1="23.871" style="fill:none;stroke:#000000;stroke-width:0.3;" y2="-12.805" y1="-12.805"/>
  <line x2="17.502" x1="18.733" style="fill:none;stroke:#000000;stroke-width:0.3;" y2="-12.805" y1="-12.805"/>
  <line x2="26.419" x1="32.788" style="fill:none;stroke:#000000;stroke-width:0.3;" y2="-12.805" y1="-12.805"/>
  <line x2="41.704" x1="36.546" style="fill:none;stroke:#000000;stroke-width:0.3;" y2="-12.805" y1="-12.805"/>
  <line x2="35.335" x1="36.546" style="fill:none;stroke:#000000;stroke-width:0.3;" y2="-12.805" y1="-12.805"/>
  <line x2="50.621" x1="44.252" style="fill:none;stroke:#000000;stroke-width:0.3;" y2="-12.805" y1="-12.805"/>
  <line x2="53.169" x1="53.584" style="fill:none;stroke:#000000;stroke-width:0.3;" y2="-12.805" y1="-12.805"/>
  <line x2="0" x1="3.139" style="fill:none;stroke:#000000;stroke-width:0.3;" y2="-10.009" y1="-10.009"/>
  <line x2="5.72" x1="12.088" style="fill:none;stroke:#000000;stroke-width:0.3;" y2="-10.009" y1="-10.009"/>
  <line x2="21.005" x1="14.636" style="fill:none;stroke:#000000;stroke-width:0.3;" y2="-10.009" y1="-10.009"/>
  <line x2="29.922" x1="23.553" style="fill:none;stroke:#000000;stroke-width:0.3;" y2="-10.009" y1="-10.009"/>
  <line x2="38.838" x1="32.47" style="fill:none;stroke:#000000;stroke-width:0.3;" y2="-10.009" y1="-10.009"/>
  <line x2="47.755" x1="41.386" style="fill:none;stroke:#000000;stroke-width:0.3;" y2="-10.009" y1="-10.009"/>
  <line x2="53.584" x1="50.303" style="fill:none;stroke:#000000;stroke-width:0.3;" y2="-10.009" y1="-10.009"/>
  <line x2="1.898" x1="8.267" style="fill:none;stroke:#000000;stroke-width:0.3;" y2="-6.873" y1="-6.873"/>
  <line x2="10.814" x1="17.184" style="fill:none;stroke:#000000;stroke-width:0.3;" y2="-6.873" y1="-6.873"/>
  <line x2="19.732" x1="26.101" style="fill:none;stroke:#000000;stroke-width:0.3;" y2="-6.873" y1="-6.873"/>
  <line x2="28.647" x1="35.017" style="fill:none;stroke:#000000;stroke-width:0.3;" y2="-6.873" y1="-6.873"/>
  <line x2="37.564" x1="43.934" style="fill:none;stroke:#000000;stroke-width:0.3;" y2="-6.873" y1="-6.873"/>
  <line x2="52.85" x1="46.481" style="fill:none;stroke:#000000;stroke-width:0.3;" y2="-6.873" y1="-6.873"/>
  <line x2="4.732" x1="0" style="fill:none;stroke:#000000;stroke-width:0.3;" y2="-3.903" y1="-3.903"/>
  <line x2="13.681" x1="7.312" style="fill:none;stroke:#000000;stroke-width:0.3;" y2="-3.903" y1="-3.903"/>
  <line x2="22.598" x1="16.229" style="fill:none;stroke:#000000;stroke-width:0.3;" y2="-3.903" y1="-3.903"/>
  <line x2="31.514" x1="25.145" style="fill:none;stroke:#000000;stroke-width:0.3;" y2="-3.903" y1="-3.903"/>
  <line x2="40.431" x1="34.062" style="fill:none;stroke:#000000;stroke-width:0.3;" y2="-3.903" y1="-3.903"/>
  <line x2="49.347" x1="42.979" style="fill:none;stroke:#000000;stroke-width:0.3;" y2="-3.903" y1="-3.903"/>
  <line x2="53.584" x1="51.895" style="fill:none;stroke:#000000;stroke-width:0.3;" y2="-3.903" y1="-3.903"/>
  <line x2="2.217" x1="8.585" style="fill:none;stroke:#000000;stroke-width:0.3;" y2="-0.934" y1="-0.934"/>
  <line x2="11.133" x1="17.502" style="fill:none;stroke:#000000;stroke-width:0.3;" y2="-0.934" y1="-0.934"/>
  <line x2="20.05" x1="26.419" style="fill:none;stroke:#000000;stroke-width:0.3;" y2="-0.934" y1="-0.934"/>
  <line x2="28.966" x1="35.335" style="fill:none;stroke:#000000;stroke-width:0.3;" y2="-0.934" y1="-0.934"/>
  <line x2="37.883" x1="44.252" style="fill:none;stroke:#000000;stroke-width:0.3;" y2="-0.934" y1="-0.934"/>
  <line x2="46.8" x1="53.169" style="fill:none;stroke:#000000;stroke-width:0.3;" y2="-0.934" y1="-0.934"/>
  <line x2="7.675" x1="7.666" style="fill:none;stroke:#000000;stroke-width:0.3;" y2="-53.508" y1="-51.812"/>
  <line x2="25.612" x1="25.604" style="fill:none;stroke:#000000;stroke-width:0.3;" y2="-53.508" y1="-51.812"/>
  <line x2="43.633" x1="43.625" style="fill:none;stroke:#000000;stroke-width:0.3;" y2="-53.508" y1="-51.812"/>
  <line x2="47.791" x1="47.8" style="fill:none;stroke:#000000;stroke-width:0.3;" y2="-48.625" y1="-50.32"/>
  <line x2="29.979" x1="29.987" style="fill:none;stroke:#000000;stroke-width:0.3;" y2="-48.625" y1="-50.32"/>
  <line x2="11.833" x1="11.841" style="fill:none;stroke:#000000;stroke-width:0.3;" y2="-48.625" y1="-50.32"/>
  <line x2="5.938" x1="5.938" style="fill:none;stroke:#000000;stroke-width:0.3;" y2="-45.648" y1="-45.604"/>
  <line x2="5.945" x1="5.938" style="fill:none;stroke:#000000;stroke-width:0.3;" y2="-47.3" y1="-45.648"/>
  <line x2="23.791" x1="23.791" style="fill:none;stroke:#000000;stroke-width:0.3;" y2="-45.648" y1="-45.604"/>
  <line x2="23.8" x1="23.791" style="fill:none;stroke:#000000;stroke-width:0.3;" y2="-47.3" y1="-45.648"/>
  <line x2="41.57" x1="41.562" style="fill:none;stroke:#000000;stroke-width:0.3;" y2="-47.3" y1="-45.648"/>
  <line x2="41.562" x1="41.562" style="fill:none;stroke:#000000;stroke-width:0.3;" y2="-45.648" y1="-45.604"/>
  <line x2="37.925" x1="37.916" style="fill:none;stroke:#000000;stroke-width:0.3;" y2="-44.592" y1="-42.896"/>
  <line x2="20.175" x1="20.166" style="fill:none;stroke:#000000;stroke-width:0.3;" y2="-44.592" y1="-42.896"/>
  <line x2="2.216" x1="2.208" style="fill:none;stroke:#000000;stroke-width:0.3;" y2="-44.592" y1="-42.896"/>
  <line x2="41.146" x1="41.146" style="fill:none;stroke:#000000;stroke-width:0.3;" y2="-39.854" y1="-39.874"/>
  <line x2="41.153" x1="41.146" style="fill:none;stroke:#000000;stroke-width:0.3;" y2="-41.55" y1="-39.874"/>
  <line x2="23.383" x1="23.375" style="fill:none;stroke:#000000;stroke-width:0.3;" y2="-41.55" y1="-39.874"/>
  <line x2="23.375" x1="23.375" style="fill:none;stroke:#000000;stroke-width:0.3;" y2="-39.874" y1="-39.854"/>
  <line x2="5.335" x1="5.335" style="fill:none;stroke:#000000;stroke-width:0.3;" y2="-39.874" y1="-39.854"/>
  <line x2="5.344" x1="5.335" style="fill:none;stroke:#000000;stroke-width:0.3;" y2="-41.55" y1="-39.874"/>
  <line x2="44.689" x1="44.697" style="fill:none;stroke:#000000;stroke-width:0.3;" y2="-36.896" y1="-38.592"/>
  <line x2="26.94" x1="26.947" style="fill:none;stroke:#000000;stroke-width:0.3;" y2="-36.896" y1="-38.592"/>
  <line x2="9.052" x1="9.044" style="fill:none;stroke:#000000;stroke-width:0.3;" y2="-38.592" y1="-36.896"/>
  <line x2="32.772" x1="32.781" style="fill:none;stroke:#000000;stroke-width:0.3;" y2="-33.986" y1="-35.654"/>
  <line x2="32.772" x1="32.772" style="fill:none;stroke:#000000;stroke-width:0.3;" y2="-33.958" y1="-33.986"/>
  <line x2="50.544" x1="50.544" style="fill:none;stroke:#000000;stroke-width:0.3;" y2="-33.958" y1="-33.986"/>
  <line x2="50.552" x1="50.544" style="fill:none;stroke:#000000;stroke-width:0.3;" y2="-35.654" y1="-33.986"/>
  <line x2="14.814" x1="14.822" style="fill:none;stroke:#000000;stroke-width:0.3;" y2="-33.986" y1="-35.654"/>
  <line x2="14.814" x1="14.814" style="fill:none;stroke:#000000;stroke-width:0.3;" y2="-33.986" y1="-33.958"/>
  <line x2="46.002" x1="46.01" style="fill:none;stroke:#000000;stroke-width:0.3;" y2="-30.833" y1="-32.529"/>
  <line x2="28.294" x1="28.302" style="fill:none;stroke:#000000;stroke-width:0.3;" y2="-30.833" y1="-32.529"/>
  <line x2="10.489" x1="10.481" style="fill:none;stroke:#000000;stroke-width:0.3;" y2="-32.529" y1="-30.833"/>
  <line x2="15.981" x1="15.981" style="fill:none;stroke:#000000;stroke-width:0.3;" y2="-27.819" y1="-27.812"/>
  <line x2="15.981" x1="15.989" style="fill:none;stroke:#000000;stroke-width:0.3;" y2="-27.819" y1="-29.508"/>
  <line x2="34.002" x1="34.002" style="fill:none;stroke:#000000;stroke-width:0.3;" y2="-27.812" y1="-27.819"/>
  <line x2="34.01" x1="34.002" style="fill:none;stroke:#000000;stroke-width:0.3;" y2="-29.508" y1="-27.819"/>
  <line x2="51.947" x1="51.939" style="fill:none;stroke:#000000;stroke-width:0.3;" y2="-29.508" y1="-27.819"/>
  <line x2="51.939" x1="51.939" style="fill:none;stroke:#000000;stroke-width:0.3;" y2="-27.812" y1="-27.819"/>
  <line x2="38.572" x1="38.564" style="fill:none;stroke:#000000;stroke-width:0.3;" y2="-26.404" y1="-24.708"/>
  <line x2="20.76" x1="20.752" style="fill:none;stroke:#000000;stroke-width:0.3;" y2="-26.404" y1="-24.708"/>
  <line x2="2.908" x1="2.9" style="fill:none;stroke:#000000;stroke-width:0.3;" y2="-26.404" y1="-24.708"/>
  <line x2="6.921" x1="6.929" style="fill:none;stroke:#000000;stroke-width:0.3;" y2="-21.887" y1="-23.582"/>
  <line x2="24.804" x1="24.796" style="fill:none;stroke:#000000;stroke-width:0.3;" y2="-23.582" y1="-21.887"/>
  <line x2="42.421" x1="42.429" style="fill:none;stroke:#000000;stroke-width:0.3;" y2="-21.887" y1="-23.582"/>
  <line x2="37.421" x1="37.429" style="fill:none;stroke:#000000;stroke-width:0.3;" y2="-18.782" y1="-20.478"/>
  <line x2="19.533" x1="19.525" style="fill:none;stroke:#000000;stroke-width:0.3;" y2="-20.478" y1="-18.782"/>
  <line x2="1.7" x1="1.691" style="fill:none;stroke:#000000;stroke-width:0.3;" y2="-20.478" y1="-18.782"/>
  <line x2="6.221" x1="6.213" style="fill:none;stroke:#000000;stroke-width:0.3;" y2="-17.603" y1="-15.907"/>
  <line x2="24.075" x1="24.066" style="fill:none;stroke:#000000;stroke-width:0.3;" y2="-17.603" y1="-15.907"/>
  <line x2="41.754" x1="41.763" style="fill:none;stroke:#000000;stroke-width:0.3;" y2="-15.907" y1="-17.603"/>
  <line x2="36.554" x1="36.546" style="fill:none;stroke:#000000;stroke-width:0.3;" y2="-14.499" y1="-12.805"/>
  <line x2="36.546" x1="36.546" style="fill:none;stroke:#000000;stroke-width:0.3;" y2="-12.804" y1="-12.805"/>
  <line x2="18.733" x1="18.741" style="fill:none;stroke:#000000;stroke-width:0.3;" y2="-12.805" y1="-14.499"/>
  <line x2="18.733" x1="18.733" style="fill:none;stroke:#000000;stroke-width:0.3;" y2="-12.804" y1="-12.805"/>
  <line x2="1.338" x1="1.338" style="fill:none;stroke:#000000;stroke-width:0.3;" y2="-12.804" y1="-12.805"/>
  <line x2="1.346" x1="1.338" style="fill:none;stroke:#000000;stroke-width:0.3;" y2="-14.499" y1="-12.805"/>
  <line x2="42.741" x1="42.733" style="fill:none;stroke:#000000;stroke-width:0.3;" y2="-11.791" y1="-10.095"/>
  <line x2="24.858" x1="24.866" style="fill:none;stroke:#000000;stroke-width:0.3;" y2="-10.095" y1="-11.791"/>
  <line x2="6.888" x1="6.879" style="fill:none;stroke:#000000;stroke-width:0.3;" y2="-11.791" y1="-10.095"/>
  <line x2="12.096" x1="12.088" style="fill:none;stroke:#000000;stroke-width:0.3;" y2="-8.609" y1="-6.913"/>
  <line x2="29.963" x1="29.971" style="fill:none;stroke:#000000;stroke-width:0.3;" y2="-6.913" y1="-8.609"/>
  <line x2="44.283" x1="44.275" style="fill:none;stroke:#000000;stroke-width:0.3;" y2="-5.614" y1="-3.919"/>
  <line x2="39.185" x1="39.177" style="fill:none;stroke:#000000;stroke-width:0.3;" y2="-2.635" y1="-0.939"/>
  <line x2="21.31" x1="21.302" style="fill:none;stroke:#000000;stroke-width:0.3;" y2="-2.635" y1="-0.939"/>
  <line x2="3.372" x1="3.364" style="fill:none;stroke:#000000;stroke-width:0.3;" y2="-2.635" y1="-0.939"/>
  <line x2="26.546" x1="26.554" style="fill:none;stroke:#000000;stroke-width:0.3;" y2="-3.919" y1="-5.614"/>
  <line x2="8.483" x1="8.491" style="fill:none;stroke:#000000;stroke-width:0.3;" y2="-3.919" y1="-5.614"/>
  <line x2="48.129" x1="48.138" style="fill:none;stroke:#000000;stroke-width:0.3;" y2="-6.913" y1="-8.609"/>
 </g>
</svg>
