<?xml version="1.0"?>
<!-- Converted with SVG Converter - Version 0.9.5 (Compiled Fri Feb 21 09:53:38 2020) - Copyright (C) 2011 Nokia -->
<svg xmlns="http://www.w3.org/2000/svg" baseProfile="tiny" xml:space="preserve" height="54.125" y="0px" version="1.1" width="54.125" viewBox="1.6 -55.725 54.125 54.125" xmlns:xlink="http://www.w3.org/1999/xlink" x="0px">
 <g>
  <rect height="54.125" y="-55.725" style="fill:none;" width="54.125" x="1.6"/>
  <line y2="-51.975" y1="-51.975" x1="1.6" style="fill:none;stroke:#000000;stroke-width:0.3;" x2="55.725"/>
  <line y2="-47.8" y1="-47.8" x1="1.6" style="fill:none;stroke:#000000;stroke-width:0.3;" x2="55.725"/>
  <line y2="-43.612" y1="-43.612" x1="1.6" style="fill:none;stroke:#000000;stroke-width:0.3;" x2="55.725"/>
  <line y2="-14" y1="-14" x1="1.6" style="fill:none;stroke:#000000;stroke-width:0.3;" x2="55.787"/>
  <line y2="-10.225" y1="-10.225" x1="1.6" style="fill:none;stroke:#000000;stroke-width:0.3;" x2="55.725"/>
  <line y2="-39.594" y1="-39.594" x1="1.6" style="fill:none;stroke:#000000;stroke-width:0.3;" x2="55.725"/>
  <line y2="-36.312" y1="-36.312" x1="1.6" style="fill:none;stroke:#000000;stroke-width:0.3;" x2="55.725"/>
  <line y2="-32.887" y1="-32.887" x1="1.6" style="fill:none;stroke:#000000;stroke-width:0.3;" x2="55.725"/>
  <line y2="-28.837" y1="-28.837" x1="1.6" style="fill:none;stroke:#000000;stroke-width:0.3;" x2="55.725"/>
  <line y2="-25.037" y1="-25.037" x1="1.6" style="fill:none;stroke:#000000;stroke-width:0.3;" x2="55.725"/>
  <line y2="-20.837" y1="-20.837" x1="1.6" style="fill:none;stroke:#000000;stroke-width:0.3;" x2="55.787"/>
  <line y2="-17.612" y1="-17.612" x1="1.6" style="fill:none;stroke:#000000;stroke-width:0.3;" x2="55.725"/>
  <line y2="-2.437" y1="-2.437" x1="1.6" style="fill:none;stroke:#000000;stroke-width:0.3;" x2="55.725"/>
  <line y2="-51.975" y1="-55.725" x1="7.525" style="fill:none;stroke:#000000;stroke-width:0.3;" x2="7.525"/>
  <line y2="-51.975" y1="-55.725" x1="20.275" style="fill:none;stroke:#000000;stroke-width:0.3;" x2="20.275"/>
  <line y2="-51.975" y1="-55.725" x1="33.775" style="fill:none;stroke:#000000;stroke-width:0.3;" x2="33.775"/>
  <line y2="-51.975" y1="-55.725" x1="48.15" style="fill:none;stroke:#000000;stroke-width:0.3;" x2="48.15"/>
  <line y2="-1.6" y1="-2.45" x1="7.525" style="fill:none;stroke:#000000;stroke-width:0.3;" x2="7.525"/>
  <line y2="-1.6" y1="-2.45" x1="20.275" style="fill:none;stroke:#000000;stroke-width:0.3;" x2="20.275"/>
  <line y2="-1.6" y1="-2.45" x1="33.775" style="fill:none;stroke:#000000;stroke-width:0.3;" x2="33.775"/>
  <line y2="-1.6" y1="-2.45" x1="48.15" style="fill:none;stroke:#000000;stroke-width:0.3;" x2="48.15"/>
  <line y2="-47.812" y1="-52.037" x1="14.2" style="fill:none;stroke:#000000;stroke-width:0.3;" x2="14.2"/>
  <line y2="-47.812" y1="-52.037" x1="29.075" style="fill:none;stroke:#000000;stroke-width:0.3;" x2="29.075"/>
  <line y2="-47.812" y1="-52.037" x1="42.7" style="fill:none;stroke:#000000;stroke-width:0.3;" x2="42.7"/>
  <line y2="-47.812" y1="-52.037" x1="55.525" style="fill:none;stroke:#000000;stroke-width:0.3;" x2="55.525"/>
  <line y2="-43.625" y1="-47.675" x1="8.637" style="fill:none;stroke:#000000;stroke-width:0.3;" x2="8.637"/>
  <line y2="-43.625" y1="-47.675" x1="21.888" style="fill:none;stroke:#000000;stroke-width:0.3;" x2="21.888"/>
  <line y2="-43.625" y1="-47.675" x1="35.45" style="fill:none;stroke:#000000;stroke-width:0.3;" x2="35.45"/>
  <line y2="-43.625" y1="-47.675" x1="50.388" style="fill:none;stroke:#000000;stroke-width:0.3;" x2="50.388"/>
  <line y2="-39.625" y1="-43.625" x1="41.763" style="fill:none;stroke:#000000;stroke-width:0.3;" x2="41.763"/>
  <line y2="-39.625" y1="-43.625" x1="28.388" style="fill:none;stroke:#000000;stroke-width:0.3;" x2="28.388"/>
  <line y2="-39.625" y1="-43.625" x1="13.512" style="fill:none;stroke:#000000;stroke-width:0.3;" x2="13.512"/>
  <line y2="-39.625" y1="-43.625" x1="55.013" style="fill:none;stroke:#000000;stroke-width:0.3;" x2="55.013"/>
  <line y2="-36.325" y1="-39.625" x1="48.15" style="fill:none;stroke:#000000;stroke-width:0.3;" x2="48.15"/>
  <line y2="-36.325" y1="-39.625" x1="33.525" style="fill:none;stroke:#000000;stroke-width:0.3;" x2="33.525"/>
  <line y2="-36.325" y1="-39.625" x1="20.275" style="fill:none;stroke:#000000;stroke-width:0.3;" x2="20.275"/>
  <line y2="-36.325" y1="-39.625" x1="7.525" style="fill:none;stroke:#000000;stroke-width:0.3;" x2="7.525"/>
  <line y2="-32.9" y1="-36.325" x1="14.075" style="fill:none;stroke:#000000;stroke-width:0.3;" x2="14.075"/>
  <line y2="-32.9" y1="-36.325" x1="29.075" style="fill:none;stroke:#000000;stroke-width:0.3;" x2="29.075"/>
  <line y2="-32.9" y1="-36.325" x1="42.825" style="fill:none;stroke:#000000;stroke-width:0.3;" x2="42.825"/>
  <line y2="-32.9" y1="-36.325" x1="55.575" style="fill:none;stroke:#000000;stroke-width:0.3;" x2="55.575"/>
  <line y2="-28.85" y1="-32.9" x1="8.262" style="fill:none;stroke:#000000;stroke-width:0.3;" x2="8.262"/>
  <line y2="-28.85" y1="-32.9" x1="21.763" style="fill:none;stroke:#000000;stroke-width:0.3;" x2="21.763"/>
  <line y2="-28.85" y1="-32.9" x1="35.388" style="fill:none;stroke:#000000;stroke-width:0.3;" x2="35.388"/>
  <line y2="-28.85" y1="-32.9" x1="50.263" style="fill:none;stroke:#000000;stroke-width:0.3;" x2="50.263"/>
  <line y2="-25.05" y1="-28.787" x1="41.638" style="fill:none;stroke:#000000;stroke-width:0.3;" x2="41.638"/>
  <line y2="-25.05" y1="-28.787" x1="28.313" style="fill:none;stroke:#000000;stroke-width:0.3;" x2="28.313"/>
  <line y2="-25.05" y1="-28.787" x1="13.313" style="fill:none;stroke:#000000;stroke-width:0.3;" x2="13.313"/>
  <line y2="-25.05" y1="-28.787" x1="54.867" style="fill:none;stroke:#000000;stroke-width:0.3;" x2="54.867"/>
  <line y2="-20.85" y1="-24.987" x1="7.125" style="fill:none;stroke:#000000;stroke-width:0.3;" x2="7.125"/>
  <line y2="-20.85" y1="-24.987" x1="20.125" style="fill:none;stroke:#000000;stroke-width:0.3;" x2="20.125"/>
  <line y2="-20.85" y1="-24.987" x1="33.75" style="fill:none;stroke:#000000;stroke-width:0.3;" x2="33.75"/>
  <line y2="-20.85" y1="-24.987" x1="48" style="fill:none;stroke:#000000;stroke-width:0.3;" x2="48"/>
  <line y2="-17.625" y1="-20.787" x1="43.8" style="fill:none;stroke:#000000;stroke-width:0.3;" x2="43.8"/>
  <line y2="-17.625" y1="-20.787" x1="29.65" style="fill:none;stroke:#000000;stroke-width:0.3;" x2="29.65"/>
  <line y2="-17.625" y1="-20.787" x1="14.525" style="fill:none;stroke:#000000;stroke-width:0.3;" x2="14.525"/>
  <line y2="-17.625" y1="-20.787" x1="2.108" style="fill:none;stroke:#000000;stroke-width:0.3;" x2="2.108"/>
  <line y2="-14" y1="-17.562" x1="8.483" style="fill:none;stroke:#000000;stroke-width:0.3;" x2="8.483"/>
  <line y2="-14" y1="-17.562" x1="21.733" style="fill:none;stroke:#000000;stroke-width:0.3;" x2="21.733"/>
  <line y2="-14" y1="-17.562" x1="35.358" style="fill:none;stroke:#000000;stroke-width:0.3;" x2="35.358"/>
  <line y2="-14" y1="-17.562" x1="50.233" style="fill:none;stroke:#000000;stroke-width:0.3;" x2="50.233"/>
  <line y2="-10.187" y1="-13.95" x1="41.883" style="fill:none;stroke:#000000;stroke-width:0.3;" x2="41.883"/>
  <line y2="-10.187" y1="-13.95" x1="28.008" style="fill:none;stroke:#000000;stroke-width:0.3;" x2="28.008"/>
  <line y2="-10.187" y1="-13.95" x1="13.458" style="fill:none;stroke:#000000;stroke-width:0.3;" x2="13.458"/>
  <line y2="-10.187" y1="-13.95" x1="55.333" style="fill:none;stroke:#000000;stroke-width:0.3;" x2="55.333"/>
  <line y2="-5.812" y1="-5.812" x1="1.6" style="fill:none;stroke:#000000;stroke-width:0.3;" x2="55.725"/>
  <line y2="-2.375" y1="-5.838" x1="11.896" style="fill:none;stroke:#000000;stroke-width:0.3;" x2="11.896"/>
  <line y2="-2.375" y1="-5.838" x1="26.333" style="fill:none;stroke:#000000;stroke-width:0.3;" x2="26.333"/>
  <line y2="-2.375" y1="-5.838" x1="39.958" style="fill:none;stroke:#000000;stroke-width:0.3;" x2="39.958"/>
  <line y2="-2.375" y1="-5.838" x1="53.333" style="fill:none;stroke:#000000;stroke-width:0.3;" x2="53.333"/>
  <line y2="-5.838" y1="-10.187" x1="6.171" style="fill:none;stroke:#000000;stroke-width:0.3;" x2="6.171"/>
  <line y2="-5.838" y1="-10.187" x1="19.171" style="fill:none;stroke:#000000;stroke-width:0.3;" x2="19.171"/>
  <line y2="-5.838" y1="-10.187" x1="33.171" style="fill:none;stroke:#000000;stroke-width:0.3;" x2="33.171"/>
  <line y2="-5.838" y1="-10.187" x1="47.733" style="fill:none;stroke:#000000;stroke-width:0.3;" x2="47.733"/>
 </g>
</svg>
