<?xml version="1.0"?>
<!-- Converted with SVG Converter - Version 0.9.5 (Compiled Fri Feb 21 09:53:38 2020) - Copyright (C) 2011 Nokia -->
<svg xmlns="http://www.w3.org/2000/svg" y="0px" viewBox="0 -44.667 44.667 44.667" height="44.667" baseProfile="tiny" xml:space="preserve" xmlns:xlink="http://www.w3.org/1999/xlink" x="0px" version="1.1" width="44.667">
 <g>
  <rect y="-44.667" style="fill:none;" height="44.667" x="0" width="44.667"/>
  <line x1="0.659" y1="-33" style="fill:none;stroke:#000000;stroke-width:0.3;" y2="-33" x2="8.159"/>
  <line x1="24.126" y1="-32.932" style="fill:none;stroke:#000000;stroke-width:0.3;" y2="-32.932" x2="31.626"/>
  <line x1="11.501" y1="-3.075" style="fill:none;stroke:#000000;stroke-width:0.3;" y2="-3.075" x2="4.001"/>
  <line x1="35.001" y1="-3.075" style="fill:none;stroke:#000000;stroke-width:0.3;" y2="-3.075" x2="27.501"/>
  <line x1="16.899" y1="-17.875" style="fill:none;stroke:#000000;stroke-width:0.3;" y2="-17.875" x2="9.399"/>
  <line x1="40.399" y1="-17.875" style="fill:none;stroke:#000000;stroke-width:0.3;" y2="-17.875" x2="32.899"/>
  <line x1="0" y1="-43.404" style="fill:none;stroke:#000000;stroke-width:0.3;" y2="-43.404" x2="3.776"/>
  <line x1="6.356" y1="-43.404" style="fill:none;stroke:#000000;stroke-width:0.3;" y2="-43.404" x2="12.726"/>
  <line x1="15.273" y1="-43.404" style="fill:none;stroke:#000000;stroke-width:0.3;" y2="-43.404" x2="21.643"/>
  <line x1="24.19" y1="-43.404" style="fill:none;stroke:#000000;stroke-width:0.3;" y2="-43.404" x2="30.559"/>
  <line x1="33.106" y1="-43.404" style="fill:none;stroke:#000000;stroke-width:0.3;" y2="-43.404" x2="39.476"/>
  <line x1="8.108" y1="-40.269" style="fill:none;stroke:#000000;stroke-width:0.3;" y2="-40.269" x2="1.739"/>
  <line x1="17.024" y1="-40.269" style="fill:none;stroke:#000000;stroke-width:0.3;" y2="-40.269" x2="10.655"/>
  <line x1="25.941" y1="-40.269" style="fill:none;stroke:#000000;stroke-width:0.3;" y2="-40.269" x2="19.572"/>
  <line x1="34.858" y1="-40.269" style="fill:none;stroke:#000000;stroke-width:0.3;" y2="-40.269" x2="28.489"/>
  <line x1="43.774" y1="-40.269" style="fill:none;stroke:#000000;stroke-width:0.3;" y2="-40.269" x2="37.405"/>
  <line x1="2.024" y1="-37.299" style="fill:none;stroke:#000000;stroke-width:0.3;" y2="-37.299" x2="0"/>
  <line x1="4.606" y1="-37.299" style="fill:none;stroke:#000000;stroke-width:0.3;" y2="-37.299" x2="10.975"/>
  <line x1="13.521" y1="-37.299" style="fill:none;stroke:#000000;stroke-width:0.3;" y2="-37.299" x2="19.891"/>
  <line x1="22.438" y1="-37.299" style="fill:none;stroke:#000000;stroke-width:0.3;" y2="-37.299" x2="28.808"/>
  <line x1="31.354" y1="-37.299" style="fill:none;stroke:#000000;stroke-width:0.3;" y2="-37.299" x2="37.724"/>
  <line x1="5.242" y1="-28.52" style="fill:none;stroke:#000000;stroke-width:0.3;" y2="-28.52" x2="0"/>
  <line x1="7.79" y1="-28.52" style="fill:none;stroke:#000000;stroke-width:0.3;" y2="-28.52" x2="14.158"/>
  <line x1="23.075" y1="-28.52" style="fill:none;stroke:#000000;stroke-width:0.3;" y2="-28.52" x2="16.706"/>
  <line x1="31.992" y1="-28.52" style="fill:none;stroke:#000000;stroke-width:0.3;" y2="-28.52" x2="25.623"/>
  <line x1="34.539" y1="-28.52" style="fill:none;stroke:#000000;stroke-width:0.3;" y2="-28.52" x2="40.908"/>
  <line x1="0" y1="-25.353" style="fill:none;stroke:#000000;stroke-width:0.3;" y2="-25.353" x2="2.184"/>
  <line x1="11.134" y1="-25.353" style="fill:none;stroke:#000000;stroke-width:0.3;" y2="-25.353" x2="4.765"/>
  <line x1="20.05" y1="-25.353" style="fill:none;stroke:#000000;stroke-width:0.3;" y2="-25.353" x2="13.681"/>
  <line x1="22.598" y1="-25.353" style="fill:none;stroke:#000000;stroke-width:0.3;" y2="-25.353" x2="28.967"/>
  <line x1="31.515" y1="-25.353" style="fill:none;stroke:#000000;stroke-width:0.3;" y2="-25.353" x2="37.883"/>
  <line x1="6.675" y1="-22.44" style="fill:none;stroke:#000000;stroke-width:0.3;" y2="-22.44" x2="0.306"/>
  <line x1="15.592" y1="-22.44" style="fill:none;stroke:#000000;stroke-width:0.3;" y2="-22.44" x2="9.223"/>
  <line x1="18.14" y1="-22.44" style="fill:none;stroke:#000000;stroke-width:0.3;" y2="-22.44" x2="24.508"/>
  <line x1="33.425" y1="-22.44" style="fill:none;stroke:#000000;stroke-width:0.3;" y2="-22.44" x2="27.056"/>
  <line x1="42.342" y1="-22.44" style="fill:none;stroke:#000000;stroke-width:0.3;" y2="-22.44" x2="35.973"/>
  <line x1="2.98" y1="-13.53" style="fill:none;stroke:#000000;stroke-width:0.3;" y2="-13.53" x2="0"/>
  <line x1="5.561" y1="-13.53" style="fill:none;stroke:#000000;stroke-width:0.3;" y2="-13.53" x2="11.93"/>
  <line x1="14.477" y1="-13.53" style="fill:none;stroke:#000000;stroke-width:0.3;" y2="-13.53" x2="20.846"/>
  <line x1="23.394" y1="-13.53" style="fill:none;stroke:#000000;stroke-width:0.3;" y2="-13.53" x2="29.763"/>
  <line x1="32.311" y1="-13.53" style="fill:none;stroke:#000000;stroke-width:0.3;" y2="-13.53" x2="38.68"/>
  <line x1="6.834" y1="-10.394" style="fill:none;stroke:#000000;stroke-width:0.3;" y2="-10.394" x2="0.465"/>
  <line x1="9.382" y1="-10.394" style="fill:none;stroke:#000000;stroke-width:0.3;" y2="-10.394" x2="15.751"/>
  <line x1="18.299" y1="-10.394" style="fill:none;stroke:#000000;stroke-width:0.3;" y2="-10.394" x2="24.667"/>
  <line x1="27.215" y1="-10.394" style="fill:none;stroke:#000000;stroke-width:0.3;" y2="-10.394" x2="33.584"/>
  <line x1="36.132" y1="-10.394" style="fill:none;stroke:#000000;stroke-width:0.3;" y2="-10.394" x2="42.501"/>
  <line x1="0" y1="-7.425" style="fill:none;stroke:#000000;stroke-width:0.3;" y2="-7.425" x2="2.184"/>
  <line x1="11.134" y1="-7.425" style="fill:none;stroke:#000000;stroke-width:0.3;" y2="-7.425" x2="4.765"/>
  <line x1="20.05" y1="-7.425" style="fill:none;stroke:#000000;stroke-width:0.3;" y2="-7.425" x2="13.681"/>
  <line x1="28.967" y1="-7.425" style="fill:none;stroke:#000000;stroke-width:0.3;" y2="-7.425" x2="22.598"/>
  <line x1="37.883" y1="-7.425" style="fill:none;stroke:#000000;stroke-width:0.3;" y2="-7.425" x2="31.515"/>
  <line x1="19.451" y1="-19.635" style="fill:none;stroke:#000000;stroke-width:0.3;" y2="-19.635" x2="7.019"/>
  <line x1="31.354" y1="-19.635" style="fill:none;stroke:#000000;stroke-width:0.3;" y2="-19.635" x2="44.667"/>
  <line x1="7.019" y1="-19.635" style="fill:none;stroke:#000000;stroke-width:0.3;" y2="-19.635" x2="0"/>
  <line x1="31.354" y1="-19.635" style="fill:none;stroke:#000000;stroke-width:0.3;" y2="-19.635" x2="19.451"/>
  <line x1="41.729" y1="-16.354" style="fill:none;stroke:#000000;stroke-width:0.3;" y2="-16.354" x2="44.667"/>
  <line x1="0" y1="-16.354" style="fill:none;stroke:#000000;stroke-width:0.3;" y2="-16.354" x2="41.729"/>
  <line x1="31.354" y1="-19.635" style="fill:none;stroke:#000000;stroke-width:0.3;" y2="-16.366" x2="31.354"/>
  <line x1="31.354" y1="-19.635" style="fill:none;stroke:#000000;stroke-width:0.3;" y2="-19.667" x2="31.354"/>
  <line x1="41.729" y1="-16.354" style="fill:none;stroke:#000000;stroke-width:0.3;" y2="-19.582" x2="41.729"/>
  <line x1="41.729" y1="-16.354" style="fill:none;stroke:#000000;stroke-width:0.3;" y2="-16.282" x2="41.729"/>
  <line x1="19.451" y1="-19.635" style="fill:none;stroke:#000000;stroke-width:0.3;" y2="-16.366" x2="19.451"/>
  <line x1="19.451" y1="-19.667" style="fill:none;stroke:#000000;stroke-width:0.3;" y2="-19.635" x2="19.451"/>
  <line x1="7.019" y1="-19.667" style="fill:none;stroke:#000000;stroke-width:0.3;" y2="-19.635" x2="7.019"/>
  <line x1="7.019" y1="-19.635" style="fill:none;stroke:#000000;stroke-width:0.3;" y2="-16.366" x2="7.019"/>
  <line x1="34.046" y1="-31.307" style="fill:none;stroke:#000000;stroke-width:0.3;" y2="-31.307" x2="44.171"/>
  <line x1="9.546" y1="-31.307" style="fill:none;stroke:#000000;stroke-width:0.3;" y2="-31.307" x2="0"/>
  <line x1="44.171" y1="-31.307" style="fill:none;stroke:#000000;stroke-width:0.3;" y2="-31.307" x2="44.667"/>
  <line x1="9.546" y1="-31.307" style="fill:none;stroke:#000000;stroke-width:0.3;" y2="-31.307" x2="21.955"/>
  <line x1="21.955" y1="-31.307" style="fill:none;stroke:#000000;stroke-width:0.3;" y2="-31.307" x2="34.046"/>
  <line x1="9.546" y1="-34.686" style="fill:none;stroke:#000000;stroke-width:0.3;" y2="-34.686" x2="21.955"/>
  <line x1="44.171" y1="-34.686" style="fill:none;stroke:#000000;stroke-width:0.3;" y2="-34.686" x2="34.046"/>
  <line x1="9.546" y1="-34.686" style="fill:none;stroke:#000000;stroke-width:0.3;" y2="-34.686" x2="0"/>
  <line x1="21.955" y1="-34.686" style="fill:none;stroke:#000000;stroke-width:0.3;" y2="-34.686" x2="34.046"/>
  <line x1="44.171" y1="-34.686" style="fill:none;stroke:#000000;stroke-width:0.3;" y2="-34.686" x2="44.667"/>
  <line x1="9.546" y1="-31.307" style="fill:none;stroke:#000000;stroke-width:0.3;" y2="-31.273" x2="9.546"/>
  <line x1="9.546" y1="-34.686" style="fill:none;stroke:#000000;stroke-width:0.3;" y2="-31.307" x2="9.546"/>
  <line x1="9.546" y1="-34.686" style="fill:none;stroke:#000000;stroke-width:0.3;" y2="-34.698" x2="9.546"/>
  <line x1="21.955" y1="-31.307" style="fill:none;stroke:#000000;stroke-width:0.3;" y2="-34.686" x2="21.955"/>
  <line x1="21.955" y1="-31.273" style="fill:none;stroke:#000000;stroke-width:0.3;" y2="-31.307" x2="21.955"/>
  <line x1="21.955" y1="-34.686" style="fill:none;stroke:#000000;stroke-width:0.3;" y2="-34.698" x2="21.955"/>
  <line x1="44.171" y1="-31.307" style="fill:none;stroke:#000000;stroke-width:0.3;" y2="-31.273" x2="44.171"/>
  <line x1="44.171" y1="-34.686" style="fill:none;stroke:#000000;stroke-width:0.3;" y2="-34.698" x2="44.171"/>
  <line x1="44.171" y1="-31.307" style="fill:none;stroke:#000000;stroke-width:0.3;" y2="-34.686" x2="44.171"/>
  <line x1="34.046" y1="-31.307" style="fill:none;stroke:#000000;stroke-width:0.3;" y2="-34.686" x2="34.046"/>
  <line x1="34.046" y1="-31.307" style="fill:none;stroke:#000000;stroke-width:0.3;" y2="-31.273" x2="34.046"/>
  <line x1="34.046" y1="-34.698" style="fill:none;stroke:#000000;stroke-width:0.3;" y2="-34.686" x2="34.046"/>
  <line x1="0" y1="-4.662" style="fill:none;stroke:#000000;stroke-width:0.3;" y2="-4.662" x2="44.667"/>
  <line x1="0" y1="-1.437" style="fill:none;stroke:#000000;stroke-width:0.3;" y2="-1.437" x2="44.667"/>
  <line x1="36.915" y1="-1.45" style="fill:none;stroke:#000000;stroke-width:0.3;" y2="-4.612" x2="36.915"/>
  <line x1="25.276" y1="-4.612" style="fill:none;stroke:#000000;stroke-width:0.3;" y2="-1.45" x2="25.276"/>
  <line x1="13.709" y1="-4.612" style="fill:none;stroke:#000000;stroke-width:0.3;" y2="-1.45" x2="13.709"/>
  <line x1="1.707" y1="-4.612" style="fill:none;stroke:#000000;stroke-width:0.3;" y2="-1.45" x2="1.707"/>
  <line x1="42.074" y1="-43.404" style="fill:none;stroke:#000000;stroke-width:0.3;" y2="-43.404" x2="44.667"/>
  <line x1="40.323" y1="-37.299" style="fill:none;stroke:#000000;stroke-width:0.3;" y2="-37.299" x2="44.667"/>
  <line x1="44.667" y1="-28.52" style="fill:none;stroke:#000000;stroke-width:0.3;" y2="-28.52" x2="43.54"/>
  <line x1="40.482" y1="-25.353" style="fill:none;stroke:#000000;stroke-width:0.3;" y2="-25.353" x2="44.667"/>
  <line x1="44.667" y1="-13.53" style="fill:none;stroke:#000000;stroke-width:0.3;" y2="-13.53" x2="41.278"/>
  <line x1="40.482" y1="-7.425" style="fill:none;stroke:#000000;stroke-width:0.3;" y2="-7.425" x2="44.667"/>
  <line x1="16.031" y1="-32.887" style="fill:none;stroke:#000000;stroke-width:0.7;stroke-linecap:round;" y2="-32.887" x2="16.031"/>
  <line x1="18.013" y1="-32.887" style="fill:none;stroke:#000000;stroke-width:0.7;stroke-linecap:round;" y2="-32.887" x2="18.013"/>
  <line x1="13.956" y1="-32.887" style="fill:none;stroke:#000000;stroke-width:0.7;stroke-linecap:round;" y2="-32.887" x2="13.956"/>
  <line x1="39.667" y1="-32.887" style="fill:none;stroke:#000000;stroke-width:0.7;stroke-linecap:round;" y2="-32.887" x2="39.667"/>
  <line x1="41.649" y1="-32.887" style="fill:none;stroke:#000000;stroke-width:0.7;stroke-linecap:round;" y2="-32.887" x2="41.649"/>
  <line x1="37.593" y1="-32.887" style="fill:none;stroke:#000000;stroke-width:0.7;stroke-linecap:round;" y2="-32.887" x2="37.593"/>
  <line x1="25.542" y1="-17.875" style="fill:none;stroke:#000000;stroke-width:0.7;stroke-linecap:round;" y2="-17.875" x2="25.542"/>
  <line x1="27.524" y1="-17.875" style="fill:none;stroke:#000000;stroke-width:0.7;stroke-linecap:round;" y2="-17.875" x2="27.524"/>
  <line x1="23.468" y1="-17.875" style="fill:none;stroke:#000000;stroke-width:0.7;stroke-linecap:round;" y2="-17.875" x2="23.468"/>
  <line x1="19.667" y1="-3.012" style="fill:none;stroke:#000000;stroke-width:0.7;stroke-linecap:round;" y2="-3.012" x2="19.667"/>
  <line x1="21.649" y1="-3.012" style="fill:none;stroke:#000000;stroke-width:0.7;stroke-linecap:round;" y2="-3.012" x2="21.649"/>
  <line x1="17.593" y1="-3.012" style="fill:none;stroke:#000000;stroke-width:0.7;stroke-linecap:round;" y2="-3.012" x2="17.593"/>
  <line x1="41.917" y1="-3.012" style="fill:none;stroke:#000000;stroke-width:0.7;stroke-linecap:round;" y2="-3.012" x2="41.917"/>
  <line x1="43.899" y1="-3.012" style="fill:none;stroke:#000000;stroke-width:0.7;stroke-linecap:round;" y2="-3.012" x2="43.899"/>
  <line x1="39.843" y1="-3.012" style="fill:none;stroke:#000000;stroke-width:0.7;stroke-linecap:round;" y2="-3.012" x2="39.843"/>
  <line x1="1.542" y1="-17.875" style="fill:none;stroke:#000000;stroke-width:0.7;stroke-linecap:round;" y2="-17.875" x2="1.542"/>
  <line x1="3.524" y1="-17.875" style="fill:none;stroke:#000000;stroke-width:0.7;stroke-linecap:round;" y2="-17.875" x2="3.524"/>
  <line x1="44.263" y1="-17.875" style="fill:none;stroke:#000000;stroke-width:0.7;stroke-linecap:round;" y2="-17.875" x2="44.263"/>
 </g>
</svg>
