<?xml version="1.0"?>
<!-- Converted with SVG Converter - Version 0.9.5 (Compiled Fri Feb 21 09:53:38 2020) - Copyright (C) 2011 Nokia -->
<svg xmlns="http://www.w3.org/2000/svg" y="0px" width="54.125" xmlns:xlink="http://www.w3.org/1999/xlink" version="1.1" viewBox="0 -54.125 54.125 54.125" xml:space="preserve" height="54.125" x="0px" baseProfile="tiny">
 <g>
  <rect y="-54.125" width="54.125" height="54.125" style="fill:none;"/>
  <line x1="0" y1="-48.2" x2="4.122" style="fill:none;stroke:#000000;stroke-width:0.3;" y2="-48.2"/>
  <line x1="13.072" y1="-48.2" x2="6.703" style="fill:none;stroke:#000000;stroke-width:0.3;" y2="-48.2"/>
  <line x1="21.988" y1="-48.2" x2="15.619" style="fill:none;stroke:#000000;stroke-width:0.3;" y2="-48.2"/>
  <line x1="30.905" y1="-48.2" x2="24.536" style="fill:none;stroke:#000000;stroke-width:0.3;" y2="-48.2"/>
  <line x1="33.453" y1="-48.2" x2="39.822" style="fill:none;stroke:#000000;stroke-width:0.3;" y2="-48.2"/>
  <line x1="48.738" y1="-48.2" x2="42.369" style="fill:none;stroke:#000000;stroke-width:0.3;" y2="-48.2"/>
  <line x1="51.286" y1="-48.2" x2="54.125" style="fill:none;stroke:#000000;stroke-width:0.3;" y2="-48.2"/>
  <line x1="1.456" y1="-39.97" x2="7.825" style="fill:none;stroke:#000000;stroke-width:0.3;" y2="-39.97"/>
  <line x1="10.373" y1="-39.97" x2="16.741" style="fill:none;stroke:#000000;stroke-width:0.3;" y2="-39.97"/>
  <line x1="19.289" y1="-39.97" x2="25.658" style="fill:none;stroke:#000000;stroke-width:0.3;" y2="-39.97"/>
  <line x1="34.575" y1="-39.97" x2="28.206" style="fill:none;stroke:#000000;stroke-width:0.3;" y2="-39.97"/>
  <line x1="43.491" y1="-39.97" x2="37.122" style="fill:none;stroke:#000000;stroke-width:0.3;" y2="-39.97"/>
  <line x1="46.039" y1="-39.97" x2="52.408" style="fill:none;stroke:#000000;stroke-width:0.3;" y2="-39.97"/>
  <line x1="8.101" y1="-25.25" x2="1.731" style="fill:none;stroke:#000000;stroke-width:0.3;" y2="-25.25"/>
  <line x1="17.05" y1="-25.25" x2="10.681" style="fill:none;stroke:#000000;stroke-width:0.3;" y2="-25.25"/>
  <line x1="25.966" y1="-25.25" x2="19.598" style="fill:none;stroke:#000000;stroke-width:0.3;" y2="-25.25"/>
  <line x1="34.883" y1="-25.25" x2="28.514" style="fill:none;stroke:#000000;stroke-width:0.3;" y2="-25.25"/>
  <line x1="43.8" y1="-25.25" x2="37.431" style="fill:none;stroke:#000000;stroke-width:0.3;" y2="-25.25"/>
  <line x1="52.716" y1="-25.25" x2="46.347" style="fill:none;stroke:#000000;stroke-width:0.3;" y2="-25.25"/>
  <line x1="3.476" y1="-17.607" x2="0" style="fill:none;stroke:#000000;stroke-width:0.3;" y2="-17.607"/>
  <line x1="12.425" y1="-17.607" x2="6.056" style="fill:none;stroke:#000000;stroke-width:0.3;" y2="-17.607"/>
  <line x1="21.341" y1="-17.607" x2="14.973" style="fill:none;stroke:#000000;stroke-width:0.3;" y2="-17.607"/>
  <line x1="30.258" y1="-17.607" x2="23.889" style="fill:none;stroke:#000000;stroke-width:0.3;" y2="-17.607"/>
  <line x1="39.175" y1="-17.607" x2="32.806" style="fill:none;stroke:#000000;stroke-width:0.3;" y2="-17.607"/>
  <line x1="48.091" y1="-17.607" x2="41.722" style="fill:none;stroke:#000000;stroke-width:0.3;" y2="-17.607"/>
  <line x1="50.639" y1="-17.607" x2="54.125" style="fill:none;stroke:#000000;stroke-width:0.3;" y2="-17.607"/>
  <line x1="0" y1="-10.465" x2="1.517" style="fill:none;stroke:#000000;stroke-width:0.3;" y2="-10.465"/>
  <line x1="10.467" y1="-10.465" x2="4.098" style="fill:none;stroke:#000000;stroke-width:0.3;" y2="-10.465"/>
  <line x1="19.383" y1="-10.465" x2="13.014" style="fill:none;stroke:#000000;stroke-width:0.3;" y2="-10.465"/>
  <line x1="28.3" y1="-10.465" x2="21.931" style="fill:none;stroke:#000000;stroke-width:0.3;" y2="-10.465"/>
  <line x1="37.216" y1="-10.465" x2="30.847" style="fill:none;stroke:#000000;stroke-width:0.3;" y2="-10.465"/>
  <line x1="46.133" y1="-10.465" x2="39.764" style="fill:none;stroke:#000000;stroke-width:0.3;" y2="-10.465"/>
  <line x1="48.681" y1="-10.465" x2="54.125" style="fill:none;stroke:#000000;stroke-width:0.3;" y2="-10.465"/>
  <line x1="1.523" y1="-2.469" x2="7.892" style="fill:none;stroke:#000000;stroke-width:0.3;" y2="-2.469"/>
  <line x1="16.842" y1="-2.469" x2="10.473" style="fill:none;stroke:#000000;stroke-width:0.3;" y2="-2.469"/>
  <line x1="19.389" y1="-2.469" x2="25.758" style="fill:none;stroke:#000000;stroke-width:0.3;" y2="-2.469"/>
  <line x1="28.306" y1="-2.469" x2="34.675" style="fill:none;stroke:#000000;stroke-width:0.3;" y2="-2.469"/>
  <line x1="37.222" y1="-2.469" x2="43.591" style="fill:none;stroke:#000000;stroke-width:0.3;" y2="-2.469"/>
  <line x1="46.139" y1="-2.469" x2="52.508" style="fill:none;stroke:#000000;stroke-width:0.3;" y2="-2.469"/>
  <line x1="0" y1="-32.958" x2="3.101" style="fill:none;stroke:#000000;stroke-width:0.3;" y2="-32.958"/>
  <line x1="5.681" y1="-32.958" x2="12.05" style="fill:none;stroke:#000000;stroke-width:0.3;" y2="-32.958"/>
  <line x1="14.598" y1="-32.958" x2="20.966" style="fill:none;stroke:#000000;stroke-width:0.3;" y2="-32.958"/>
  <line x1="23.514" y1="-32.958" x2="29.883" style="fill:none;stroke:#000000;stroke-width:0.3;" y2="-32.958"/>
  <line x1="32.431" y1="-32.958" x2="38.8" style="fill:none;stroke:#000000;stroke-width:0.3;" y2="-32.958"/>
  <line x1="41.347" y1="-32.958" x2="47.716" style="fill:none;stroke:#000000;stroke-width:0.3;" y2="-32.958"/>
  <line x1="50.264" y1="-32.958" x2="54.125" style="fill:none;stroke:#000000;stroke-width:0.3;" y2="-32.958"/>
  <line x1="32.176" y1="-50.375" x2="18.676" style="fill:none;stroke:#000000;stroke-width:0.3;" y2="-50.375"/>
  <line x1="5.926" y1="-50.375" x2="18.676" style="fill:none;stroke:#000000;stroke-width:0.3;" y2="-50.375"/>
  <line x1="32.176" y1="-50.375" x2="46.551" style="fill:none;stroke:#000000;stroke-width:0.3;" y2="-50.375"/>
  <line x1="5.926" y1="-50.375" x2="0" style="fill:none;stroke:#000000;stroke-width:0.3;" y2="-50.375"/>
  <line x1="54.125" y1="-50.375" x2="46.551" style="fill:none;stroke:#000000;stroke-width:0.3;" y2="-50.375"/>
  <line x1="54.125" y1="-46.2" x2="0" style="fill:none;stroke:#000000;stroke-width:0.3;" y2="-46.2"/>
  <line x1="0" y1="-42.013" x2="54.125" style="fill:none;stroke:#000000;stroke-width:0.3;" y2="-42.013"/>
  <line x1="48.634" y1="-12.4" x2="54.125" style="fill:none;stroke:#000000;stroke-width:0.3;" y2="-12.4"/>
  <line x1="33.759" y1="-12.4" x2="48.634" style="fill:none;stroke:#000000;stroke-width:0.3;" y2="-12.4"/>
  <line x1="6.884" y1="-12.4" x2="0" style="fill:none;stroke:#000000;stroke-width:0.3;" y2="-12.4"/>
  <line x1="33.759" y1="-12.4" x2="20.134" style="fill:none;stroke:#000000;stroke-width:0.3;" y2="-12.4"/>
  <line x1="6.884" y1="-12.4" x2="20.134" style="fill:none;stroke:#000000;stroke-width:0.3;" y2="-12.4"/>
  <line x1="0" y1="-8.625" x2="54.125" style="fill:none;stroke:#000000;stroke-width:0.3;" y2="-8.625"/>
  <line x1="31.926" y1="-37.994" x2="46.551" style="fill:none;stroke:#000000;stroke-width:0.3;" y2="-37.994"/>
  <line x1="5.926" y1="-37.994" x2="0" style="fill:none;stroke:#000000;stroke-width:0.3;" y2="-37.994"/>
  <line x1="31.926" y1="-37.994" x2="18.676" style="fill:none;stroke:#000000;stroke-width:0.3;" y2="-37.994"/>
  <line x1="18.676" y1="-37.994" x2="5.926" style="fill:none;stroke:#000000;stroke-width:0.3;" y2="-37.994"/>
  <line x1="46.551" y1="-37.994" x2="54.125" style="fill:none;stroke:#000000;stroke-width:0.3;" y2="-37.994"/>
  <line x1="0" y1="-34.713" x2="54.125" style="fill:none;stroke:#000000;stroke-width:0.3;" y2="-34.713"/>
  <line x1="48.663" y1="-31.288" x2="54.125" style="fill:none;stroke:#000000;stroke-width:0.3;" y2="-31.288"/>
  <line x1="48.663" y1="-31.288" x2="33.788" style="fill:none;stroke:#000000;stroke-width:0.3;" y2="-31.288"/>
  <line x1="20.163" y1="-31.288" x2="6.663" style="fill:none;stroke:#000000;stroke-width:0.3;" y2="-31.288"/>
  <line x1="6.663" y1="-31.288" x2="0" style="fill:none;stroke:#000000;stroke-width:0.3;" y2="-31.288"/>
  <line x1="33.788" y1="-31.288" x2="20.163" style="fill:none;stroke:#000000;stroke-width:0.3;" y2="-31.288"/>
  <line x1="0" y1="-27.238" x2="54.125" style="fill:none;stroke:#000000;stroke-width:0.3;" y2="-27.238"/>
  <line x1="0" y1="-23.438" x2="54.125" style="fill:none;stroke:#000000;stroke-width:0.3;" y2="-23.438"/>
  <line x1="0" y1="-19.238" x2="54.125" style="fill:none;stroke:#000000;stroke-width:0.3;" y2="-19.238"/>
  <line x1="0" y1="-16.013" x2="54.125" style="fill:none;stroke:#000000;stroke-width:0.3;" y2="-16.013"/>
  <line x1="0" y1="-0.838" x2="5.926" style="fill:none;stroke:#000000;stroke-width:0.3;" y2="-0.838"/>
  <line x1="18.676" y1="-0.838" x2="5.926" style="fill:none;stroke:#000000;stroke-width:0.3;" y2="-0.838"/>
  <line x1="46.551" y1="-0.838" x2="32.176" style="fill:none;stroke:#000000;stroke-width:0.3;" y2="-0.838"/>
  <line x1="18.676" y1="-0.838" x2="32.176" style="fill:none;stroke:#000000;stroke-width:0.3;" y2="-0.838"/>
  <line x1="46.551" y1="-0.838" x2="54.125" style="fill:none;stroke:#000000;stroke-width:0.3;" y2="-0.838"/>
  <line x1="5.926" y1="-50.375" x2="5.926" style="fill:none;stroke:#000000;stroke-width:0.3;" y2="-54.125"/>
  <line x1="18.676" y1="-54.125" x2="18.676" style="fill:none;stroke:#000000;stroke-width:0.3;" y2="-50.375"/>
  <line x1="32.176" y1="-50.375" x2="32.176" style="fill:none;stroke:#000000;stroke-width:0.3;" y2="-54.125"/>
  <line x1="46.551" y1="-54.125" x2="46.551" style="fill:none;stroke:#000000;stroke-width:0.3;" y2="-50.375"/>
  <line x1="5.926" y1="-0.85" x2="5.926" style="fill:none;stroke:#000000;stroke-width:0.3;" y2="-0.838"/>
  <line x1="5.926" y1="-0.001" x2="5.926" style="fill:none;stroke:#000000;stroke-width:0.3;" y2="-0.838"/>
  <line x1="18.676" y1="-0.838" x2="18.676" style="fill:none;stroke:#000000;stroke-width:0.3;" y2="-0.001"/>
  <line x1="18.676" y1="-0.838" x2="18.676" style="fill:none;stroke:#000000;stroke-width:0.3;" y2="-0.85"/>
  <line x1="32.176" y1="-0.001" x2="32.176" style="fill:none;stroke:#000000;stroke-width:0.3;" y2="-0.838"/>
  <line x1="32.176" y1="-0.85" x2="32.176" style="fill:none;stroke:#000000;stroke-width:0.3;" y2="-0.838"/>
  <line x1="46.551" y1="-0.838" x2="46.551" style="fill:none;stroke:#000000;stroke-width:0.3;" y2="-0.001"/>
  <line x1="46.551" y1="-0.838" x2="46.551" style="fill:none;stroke:#000000;stroke-width:0.3;" y2="-0.85"/>
  <line x1="7.038" y1="-46.075" x2="7.038" style="fill:none;stroke:#000000;stroke-width:0.3;" y2="-42.025"/>
  <line x1="20.288" y1="-46.075" x2="20.288" style="fill:none;stroke:#000000;stroke-width:0.3;" y2="-42.025"/>
  <line x1="33.851" y1="-46.075" x2="33.851" style="fill:none;stroke:#000000;stroke-width:0.3;" y2="-42.025"/>
  <line x1="48.788" y1="-46.075" x2="48.788" style="fill:none;stroke:#000000;stroke-width:0.3;" y2="-42.025"/>
  <line x1="46.551" y1="-38.025" x2="46.551" style="fill:none;stroke:#000000;stroke-width:0.3;" y2="-37.994"/>
  <line x1="46.551" y1="-34.725" x2="46.551" style="fill:none;stroke:#000000;stroke-width:0.3;" y2="-37.994"/>
  <line x1="31.926" y1="-37.994" x2="31.926" style="fill:none;stroke:#000000;stroke-width:0.3;" y2="-38.025"/>
  <line x1="31.926" y1="-37.994" x2="31.926" style="fill:none;stroke:#000000;stroke-width:0.3;" y2="-34.725"/>
  <line x1="18.676" y1="-38.025" x2="18.676" style="fill:none;stroke:#000000;stroke-width:0.3;" y2="-37.994"/>
  <line x1="18.676" y1="-37.994" x2="18.676" style="fill:none;stroke:#000000;stroke-width:0.3;" y2="-34.725"/>
  <line x1="5.926" y1="-38.025" x2="5.926" style="fill:none;stroke:#000000;stroke-width:0.3;" y2="-37.994"/>
  <line x1="5.926" y1="-37.994" x2="5.926" style="fill:none;stroke:#000000;stroke-width:0.3;" y2="-34.725"/>
  <line x1="6.663" y1="-31.288" x2="6.663" style="fill:none;stroke:#000000;stroke-width:0.3;" y2="-27.25"/>
  <line x1="6.663" y1="-31.3" x2="6.663" style="fill:none;stroke:#000000;stroke-width:0.3;" y2="-31.288"/>
  <line x1="20.163" y1="-31.3" x2="20.163" style="fill:none;stroke:#000000;stroke-width:0.3;" y2="-31.288"/>
  <line x1="20.163" y1="-31.288" x2="20.163" style="fill:none;stroke:#000000;stroke-width:0.3;" y2="-27.25"/>
  <line x1="33.788" y1="-31.288" x2="33.788" style="fill:none;stroke:#000000;stroke-width:0.3;" y2="-27.25"/>
  <line x1="33.788" y1="-31.3" x2="33.788" style="fill:none;stroke:#000000;stroke-width:0.3;" y2="-31.288"/>
  <line x1="48.663" y1="-31.288" x2="48.663" style="fill:none;stroke:#000000;stroke-width:0.3;" y2="-27.25"/>
  <line x1="48.663" y1="-31.288" x2="48.663" style="fill:none;stroke:#000000;stroke-width:0.3;" y2="-31.3"/>
  <line x1="5.525" y1="-23.388" x2="5.525" style="fill:none;stroke:#000000;stroke-width:0.3;" y2="-19.25"/>
  <line x1="18.525" y1="-23.388" x2="18.525" style="fill:none;stroke:#000000;stroke-width:0.3;" y2="-19.25"/>
  <line x1="32.15" y1="-23.388" x2="32.15" style="fill:none;stroke:#000000;stroke-width:0.3;" y2="-19.25"/>
  <line x1="46.4" y1="-19.25" x2="46.4" style="fill:none;stroke:#000000;stroke-width:0.3;" y2="-23.388"/>
  <line x1="6.884" y1="-12.4" x2="6.884" style="fill:none;stroke:#000000;stroke-width:0.3;" y2="-15.963"/>
  <line x1="20.134" y1="-15.963" x2="20.134" style="fill:none;stroke:#000000;stroke-width:0.3;" y2="-12.4"/>
  <line x1="33.759" y1="-12.4" x2="33.759" style="fill:none;stroke:#000000;stroke-width:0.3;" y2="-15.963"/>
  <line x1="48.634" y1="-12.4" x2="48.634" style="fill:none;stroke:#000000;stroke-width:0.3;" y2="-15.963"/>
  <line x1="0" y1="-4.212" x2="54.125" style="fill:none;stroke:#000000;stroke-width:0.3;" y2="-4.212"/>
  <line x1="4.571" y1="-8.588" x2="4.571" style="fill:none;stroke:#000000;stroke-width:0.3;" y2="-4.238"/>
  <line x1="17.571" y1="-8.588" x2="17.571" style="fill:none;stroke:#000000;stroke-width:0.3;" y2="-4.238"/>
  <line x1="31.571" y1="-8.588" x2="31.571" style="fill:none;stroke:#000000;stroke-width:0.3;" y2="-4.238"/>
  <line x1="46.134" y1="-8.588" x2="46.134" style="fill:none;stroke:#000000;stroke-width:0.3;" y2="-4.238"/>
 </g>
</svg>
