<?xml version="1.0"?>
<!-- Converted with SVG Converter - Version 0.9.5 (Compiled Fri Feb 21 09:53:38 2020) - Copyright (C) 2011 Nokia -->
<svg xmlns="http://www.w3.org/2000/svg" width="48.712" viewBox="0 -48.712 48.712 48.712" xml:space="preserve" baseProfile="tiny" height="48.712" y="0px" xmlns:xlink="http://www.w3.org/1999/xlink" version="1.1" x="0px">
 <g>
  <rect width="48.712" style="fill:none;" height="48.712" y="-48.712" x="0"/>
  <line x1="0.373" style="fill:none;stroke:#000000;stroke-width:0.3;" y1="-38.369" x2="0" y2="-38.369"/>
  <line x1="2.695" style="fill:none;stroke:#000000;stroke-width:0.3;" y1="-38.369" x2="8.428" y2="-38.369"/>
  <line x1="10.721" style="fill:none;stroke:#000000;stroke-width:0.3;" y1="-38.369" x2="16.452" y2="-38.369"/>
  <line x1="18.745" style="fill:none;stroke:#000000;stroke-width:0.3;" y1="-38.369" x2="24.478" y2="-38.369"/>
  <line x1="26.771" style="fill:none;stroke:#000000;stroke-width:0.3;" y1="-38.369" x2="32.502" y2="-38.369"/>
  <line x1="34.795" style="fill:none;stroke:#000000;stroke-width:0.3;" y1="-38.369" x2="40.527" y2="-38.369"/>
  <line x1="42.82" style="fill:none;stroke:#000000;stroke-width:0.3;" y1="-38.369" x2="48.697" y2="-38.369"/>
  <line x1="3.52" style="fill:none;stroke:#000000;stroke-width:0.3;" y1="-34.568" x2="0" y2="-34.568"/>
  <line x1="11.545" style="fill:none;stroke:#000000;stroke-width:0.3;" y1="-34.568" x2="5.812" y2="-34.568"/>
  <line x1="13.838" style="fill:none;stroke:#000000;stroke-width:0.3;" y1="-34.568" x2="19.569" y2="-34.568"/>
  <line x1="21.862" style="fill:none;stroke:#000000;stroke-width:0.3;" y1="-34.568" x2="27.595" y2="-34.568"/>
  <line x1="35.619" style="fill:none;stroke:#000000;stroke-width:0.3;" y1="-34.568" x2="29.888" y2="-34.568"/>
  <line x1="43.645" style="fill:none;stroke:#000000;stroke-width:0.3;" y1="-34.568" x2="37.912" y2="-34.568"/>
  <line x1="48.712" style="fill:none;stroke:#000000;stroke-width:0.3;" y1="-34.568" x2="45.938" y2="-34.568"/>
  <line x1="0" style="fill:none;stroke:#000000;stroke-width:0.3;" y1="-31.36" x2="0.768" y2="-31.36"/>
  <line x1="8.822" style="fill:none;stroke:#000000;stroke-width:0.3;" y1="-31.36" x2="3.09" y2="-31.36"/>
  <line x1="16.847" style="fill:none;stroke:#000000;stroke-width:0.3;" y1="-31.36" x2="11.115" y2="-31.36"/>
  <line x1="24.872" style="fill:none;stroke:#000000;stroke-width:0.3;" y1="-31.36" x2="19.14" y2="-31.36"/>
  <line x1="32.896" style="fill:none;stroke:#000000;stroke-width:0.3;" y1="-31.36" x2="27.165" y2="-31.36"/>
  <line x1="40.922" style="fill:none;stroke:#000000;stroke-width:0.3;" y1="-31.36" x2="35.189" y2="-31.36"/>
  <line x1="43.215" style="fill:none;stroke:#000000;stroke-width:0.3;" y1="-31.36" x2="48.712" y2="-31.36"/>
  <line x1="0.373" style="fill:none;stroke:#000000;stroke-width:0.3;" y1="-14.411" x2="0" y2="-14.411"/>
  <line x1="2.695" style="fill:none;stroke:#000000;stroke-width:0.3;" y1="-14.411" x2="8.428" y2="-14.411"/>
  <line x1="10.721" style="fill:none;stroke:#000000;stroke-width:0.3;" y1="-14.411" x2="16.452" y2="-14.411"/>
  <line x1="18.745" style="fill:none;stroke:#000000;stroke-width:0.3;" y1="-14.411" x2="24.478" y2="-14.411"/>
  <line x1="26.771" style="fill:none;stroke:#000000;stroke-width:0.3;" y1="-14.411" x2="32.502" y2="-14.411"/>
  <line x1="34.795" style="fill:none;stroke:#000000;stroke-width:0.3;" y1="-14.411" x2="40.527" y2="-14.411"/>
  <line x1="42.82" style="fill:none;stroke:#000000;stroke-width:0.3;" y1="-14.411" x2="48.697" y2="-14.411"/>
  <line x1="3.52" style="fill:none;stroke:#000000;stroke-width:0.3;" y1="-10.865" x2="0" y2="-10.865"/>
  <line x1="11.545" style="fill:none;stroke:#000000;stroke-width:0.3;" y1="-10.865" x2="5.812" y2="-10.865"/>
  <line x1="19.569" style="fill:none;stroke:#000000;stroke-width:0.3;" y1="-10.865" x2="13.838" y2="-10.865"/>
  <line x1="21.862" style="fill:none;stroke:#000000;stroke-width:0.3;" y1="-10.865" x2="27.595" y2="-10.865"/>
  <line x1="29.888" style="fill:none;stroke:#000000;stroke-width:0.3;" y1="-10.865" x2="35.619" y2="-10.865"/>
  <line x1="43.645" style="fill:none;stroke:#000000;stroke-width:0.3;" y1="-10.865" x2="37.912" y2="-10.865"/>
  <line x1="45.938" style="fill:none;stroke:#000000;stroke-width:0.3;" y1="-10.865" x2="48.712" y2="-10.865"/>
  <line x1="0.768" style="fill:none;stroke:#000000;stroke-width:0.3;" y1="-6.994" x2="0" y2="-6.994"/>
  <line x1="8.822" style="fill:none;stroke:#000000;stroke-width:0.3;" y1="-6.994" x2="3.09" y2="-6.994"/>
  <line x1="16.847" style="fill:none;stroke:#000000;stroke-width:0.3;" y1="-6.994" x2="11.115" y2="-6.994"/>
  <line x1="19.14" style="fill:none;stroke:#000000;stroke-width:0.3;" y1="-6.994" x2="24.872" y2="-6.994"/>
  <line x1="32.896" style="fill:none;stroke:#000000;stroke-width:0.3;" y1="-6.994" x2="27.165" y2="-6.994"/>
  <line x1="40.922" style="fill:none;stroke:#000000;stroke-width:0.3;" y1="-6.994" x2="35.189" y2="-6.994"/>
  <line x1="43.215" style="fill:none;stroke:#000000;stroke-width:0.3;" y1="-6.994" x2="48.712" y2="-6.994"/>
  <line x1="24.728" style="fill:none;stroke:#000000;stroke-width:0.3;" y1="-45.337" x2="16.808" y2="-45.337"/>
  <line x1="11.34" style="fill:none;stroke:#000000;stroke-width:0.3;" y1="-45.337" x2="16.808" y2="-45.337"/>
  <line x1="0" style="fill:none;stroke:#000000;stroke-width:0.3;" y1="-45.337" x2="5.332" y2="-45.337"/>
  <line x1="11.34" style="fill:none;stroke:#000000;stroke-width:0.3;" y1="-45.337" x2="5.332" y2="-45.337"/>
  <line x1="41.895" style="fill:none;stroke:#000000;stroke-width:0.3;" y1="-45.337" x2="36.989" y2="-45.337"/>
  <line x1="28.957" style="fill:none;stroke:#000000;stroke-width:0.3;" y1="-45.337" x2="24.728" y2="-45.337"/>
  <line x1="48.532" style="fill:none;stroke:#000000;stroke-width:0.3;" y1="-45.337" x2="48.712" y2="-45.337"/>
  <line x1="28.957" style="fill:none;stroke:#000000;stroke-width:0.3;" y1="-45.337" x2="36.989" y2="-45.337"/>
  <line x1="48.532" style="fill:none;stroke:#000000;stroke-width:0.3;" y1="-45.337" x2="41.895" y2="-45.337"/>
  <line x1="48.712" style="fill:none;stroke:#000000;stroke-width:0.3;" y1="-41.58" x2="0" y2="-41.58"/>
  <line x1="43.796" style="fill:none;stroke:#000000;stroke-width:0.3;" y1="-28.159" x2="48.712" y2="-28.159"/>
  <line x1="43.796" style="fill:none;stroke:#000000;stroke-width:0.3;" y1="-28.159" x2="30.408" y2="-28.159"/>
  <line x1="5.996" style="fill:none;stroke:#000000;stroke-width:0.3;" y1="-28.159" x2="0" y2="-28.159"/>
  <line x1="18.146" style="fill:none;stroke:#000000;stroke-width:0.3;" y1="-28.159" x2="5.996" y2="-28.159"/>
  <line x1="18.146" style="fill:none;stroke:#000000;stroke-width:0.3;" y1="-28.159" x2="30.408" y2="-28.159"/>
  <line x1="48.712" style="fill:none;stroke:#000000;stroke-width:0.3;" y1="-24.514" x2="0" y2="-24.514"/>
  <line x1="48.712" style="fill:none;stroke:#000000;stroke-width:0.3;" y1="-21.094" x2="0" y2="-21.094"/>
  <line x1="48.712" style="fill:none;stroke:#000000;stroke-width:0.3;" y1="-17.314" x2="0" y2="-17.314"/>
  <line x1="28.957" style="fill:none;stroke:#000000;stroke-width:0.3;" y1="-0.754" x2="34.522" y2="-0.754"/>
  <line x1="5.332" style="fill:none;stroke:#000000;stroke-width:0.3;" y1="-0.754" x2="0" y2="-0.754"/>
  <line x1="41.895" style="fill:none;stroke:#000000;stroke-width:0.3;" y1="-0.754" x2="46.56" y2="-0.754"/>
  <line x1="41.895" style="fill:none;stroke:#000000;stroke-width:0.3;" y1="-0.754" x2="34.522" y2="-0.754"/>
  <line x1="46.56" style="fill:none;stroke:#000000;stroke-width:0.3;" y1="-0.754" x2="48.712" y2="-0.754"/>
  <line x1="22.26" style="fill:none;stroke:#000000;stroke-width:0.3;" y1="-0.754" x2="28.957" y2="-0.754"/>
  <line x1="9.267" style="fill:none;stroke:#000000;stroke-width:0.3;" y1="-0.754" x2="16.808" y2="-0.754"/>
  <line x1="5.332" style="fill:none;stroke:#000000;stroke-width:0.3;" y1="-0.754" x2="9.267" y2="-0.754"/>
  <line x1="16.808" style="fill:none;stroke:#000000;stroke-width:0.3;" y1="-0.754" x2="22.26" y2="-0.754"/>
  <line x1="5.332" style="fill:none;stroke:#000000;stroke-width:0.3;" y1="-48.712" x2="5.332" y2="-45.337"/>
  <line x1="16.808" style="fill:none;stroke:#000000;stroke-width:0.3;" y1="-48.712" x2="16.808" y2="-45.337"/>
  <line x1="28.957" style="fill:none;stroke:#000000;stroke-width:0.3;" y1="-45.337" x2="28.957" y2="-48.712"/>
  <line x1="41.895" style="fill:none;stroke:#000000;stroke-width:0.3;" y1="-48.712" x2="41.895" y2="-45.337"/>
  <line x1="5.332" style="fill:none;stroke:#000000;stroke-width:0.3;" y1="-0.754" x2="5.332" y2="-0.765"/>
  <line x1="5.332" style="fill:none;stroke:#000000;stroke-width:0.3;" y1="-0.754" x2="5.332" y2="-0.001"/>
  <line x1="16.808" style="fill:none;stroke:#000000;stroke-width:0.3;" y1="-0.765" x2="16.808" y2="-0.754"/>
  <line x1="16.808" style="fill:none;stroke:#000000;stroke-width:0.3;" y1="-0.001" x2="16.808" y2="-0.754"/>
  <line x1="28.957" style="fill:none;stroke:#000000;stroke-width:0.3;" y1="-0.754" x2="28.957" y2="-0.765"/>
  <line x1="28.957" style="fill:none;stroke:#000000;stroke-width:0.3;" y1="-0.001" x2="28.957" y2="-0.754"/>
  <line x1="41.895" style="fill:none;stroke:#000000;stroke-width:0.3;" y1="-0.754" x2="41.895" y2="-0.765"/>
  <line x1="41.895" style="fill:none;stroke:#000000;stroke-width:0.3;" y1="-0.754" x2="41.895" y2="-0.001"/>
  <line x1="11.34" style="fill:none;stroke:#000000;stroke-width:0.3;" y1="-45.337" x2="11.34" y2="-41.591"/>
  <line x1="11.34" style="fill:none;stroke:#000000;stroke-width:0.3;" y1="-45.337" x2="11.34" y2="-45.394"/>
  <line x1="24.728" style="fill:none;stroke:#000000;stroke-width:0.3;" y1="-45.394" x2="24.728" y2="-45.337"/>
  <line x1="24.728" style="fill:none;stroke:#000000;stroke-width:0.3;" y1="-45.337" x2="24.728" y2="-41.591"/>
  <line x1="36.989" style="fill:none;stroke:#000000;stroke-width:0.3;" y1="-45.394" x2="36.989" y2="-45.337"/>
  <line x1="36.989" style="fill:none;stroke:#000000;stroke-width:0.3;" y1="-41.591" x2="36.989" y2="-45.337"/>
  <line x1="48.532" style="fill:none;stroke:#000000;stroke-width:0.3;" y1="-45.337" x2="48.532" y2="-41.591"/>
  <line x1="5.996" style="fill:none;stroke:#000000;stroke-width:0.3;" y1="-28.159" x2="5.996" y2="-28.17"/>
  <line x1="5.996" style="fill:none;stroke:#000000;stroke-width:0.3;" y1="-28.159" x2="5.996" y2="-24.525"/>
  <line x1="18.146" style="fill:none;stroke:#000000;stroke-width:0.3;" y1="-28.159" x2="18.146" y2="-24.525"/>
  <line x1="18.146" style="fill:none;stroke:#000000;stroke-width:0.3;" y1="-28.17" x2="18.146" y2="-28.159"/>
  <line x1="30.408" style="fill:none;stroke:#000000;stroke-width:0.3;" y1="-24.525" x2="30.408" y2="-28.159"/>
  <line x1="30.408" style="fill:none;stroke:#000000;stroke-width:0.3;" y1="-28.17" x2="30.408" y2="-28.159"/>
  <line x1="43.796" style="fill:none;stroke:#000000;stroke-width:0.3;" y1="-28.159" x2="43.796" y2="-24.525"/>
  <line x1="43.796" style="fill:none;stroke:#000000;stroke-width:0.3;" y1="-28.17" x2="43.796" y2="-28.159"/>
  <line x1="36.033" style="fill:none;stroke:#000000;stroke-width:0.3;" y1="-21.105" x2="36.033" y2="-24.469"/>
  <line x1="24.041" style="fill:none;stroke:#000000;stroke-width:0.3;" y1="-21.105" x2="24.041" y2="-24.469"/>
  <line x1="10.541" style="fill:none;stroke:#000000;stroke-width:0.3;" y1="-24.469" x2="10.541" y2="-21.105"/>
  <line x1="47.939" style="fill:none;stroke:#000000;stroke-width:0.3;" y1="-21.105" x2="47.939" y2="-24.469"/>
  <line x1="4.973" style="fill:none;stroke:#000000;stroke-width:0.3;" y1="-21.049" x2="4.973" y2="-17.325"/>
  <line x1="16.673" style="fill:none;stroke:#000000;stroke-width:0.3;" y1="-17.325" x2="16.673" y2="-21.049"/>
  <line x1="28.935" style="fill:none;stroke:#000000;stroke-width:0.3;" y1="-17.325" x2="28.935" y2="-21.049"/>
  <line x1="41.76" style="fill:none;stroke:#000000;stroke-width:0.3;" y1="-17.325" x2="41.76" y2="-21.049"/>
  <line x1="46.56" style="fill:none;stroke:#000000;stroke-width:0.3;" y1="-3.792" x2="34.522" y2="-3.792"/>
  <line x1="22.26" style="fill:none;stroke:#000000;stroke-width:0.3;" y1="-3.792" x2="34.522" y2="-3.792"/>
  <line x1="9.267" style="fill:none;stroke:#000000;stroke-width:0.3;" y1="-3.792" x2="22.26" y2="-3.792"/>
  <line x1="9.267" style="fill:none;stroke:#000000;stroke-width:0.3;" y1="-3.792" x2="0" y2="-3.792"/>
  <line x1="46.56" style="fill:none;stroke:#000000;stroke-width:0.3;" y1="-3.792" x2="48.712" y2="-3.792"/>
  <line x1="9.267" style="fill:none;stroke:#000000;stroke-width:0.3;" y1="-3.792" x2="9.267" y2="-3.814"/>
  <line x1="9.267" style="fill:none;stroke:#000000;stroke-width:0.3;" y1="-3.792" x2="9.267" y2="-0.754"/>
  <line x1="9.267" style="fill:none;stroke:#000000;stroke-width:0.3;" y1="-0.697" x2="9.267" y2="-0.754"/>
  <line x1="22.26" style="fill:none;stroke:#000000;stroke-width:0.3;" y1="-3.814" x2="22.26" y2="-3.792"/>
  <line x1="22.26" style="fill:none;stroke:#000000;stroke-width:0.3;" y1="-3.792" x2="22.26" y2="-0.754"/>
  <line x1="22.26" style="fill:none;stroke:#000000;stroke-width:0.3;" y1="-0.697" x2="22.26" y2="-0.754"/>
  <line x1="34.522" style="fill:none;stroke:#000000;stroke-width:0.3;" y1="-0.754" x2="34.522" y2="-0.697"/>
  <line x1="34.522" style="fill:none;stroke:#000000;stroke-width:0.3;" y1="-3.814" x2="34.522" y2="-3.792"/>
  <line x1="34.522" style="fill:none;stroke:#000000;stroke-width:0.3;" y1="-0.754" x2="34.522" y2="-3.792"/>
  <line x1="46.56" style="fill:none;stroke:#000000;stroke-width:0.3;" y1="-3.792" x2="46.56" y2="-3.814"/>
  <line x1="46.56" style="fill:none;stroke:#000000;stroke-width:0.3;" y1="-3.792" x2="46.56" y2="-0.754"/>
  <line x1="46.56" style="fill:none;stroke:#000000;stroke-width:0.3;" y1="-0.697" x2="46.56" y2="-0.754"/>
 </g>
</svg>
