<?xml version="1.0"?>
<!-- Converted with SVG Converter - Version 0.9.5 (Compiled Fri Feb 21 09:53:38 2020) - Copyright (C) 2011 Nokia -->
<svg xmlns="http://www.w3.org/2000/svg" xmlns:xlink="http://www.w3.org/1999/xlink" y="0px" width="68.982" x="0px" xml:space="preserve" viewBox="1.6 -70.104 68.982 68.982" height="68.982" baseProfile="tiny" version="1.1">
 <g>
  <rect y="-70.104" style="fill:none;" width="68.982" x="1.6" height="68.982"/>
  <line style="fill:none;stroke:#000000;stroke-width:0.3;" x1="16.676" x2="11.988" y2="-43.621" y1="-43.621"/>
  <line style="fill:none;stroke:#000000;stroke-width:0.3;" x1="7.363" x2="11.988" y2="-43.621" y1="-43.621"/>
  <line style="fill:none;stroke:#000000;stroke-width:0.3;" x1="11.988" x2="11.988" y2="-43.621" y1="-41.934"/>
  <line style="fill:none;stroke:#000000;stroke-width:0.3;" x1="11.988" x2="11.988" y2="-45.121" y1="-43.621"/>
  <line style="fill:none;stroke:#000000;stroke-width:0.3;" x1="24.613" x2="29.238" y2="-43.621" y1="-43.621"/>
  <line style="fill:none;stroke:#000000;stroke-width:0.3;" x1="33.926" x2="29.238" y2="-43.621" y1="-43.621"/>
  <line style="fill:none;stroke:#000000;stroke-width:0.3;" x1="29.238" x2="29.238" y2="-45.121" y1="-43.621"/>
  <line style="fill:none;stroke:#000000;stroke-width:0.3;" x1="29.238" x2="29.238" y2="-43.621" y1="-41.934"/>
  <line style="fill:none;stroke:#000000;stroke-width:0.3;" x1="1.6" x2="3.343" y2="-49.371" y1="-49.371"/>
  <line style="fill:none;stroke:#000000;stroke-width:0.3;" x1="8.03" x2="3.343" y2="-49.371" y1="-49.371"/>
  <line style="fill:none;stroke:#000000;stroke-width:0.3;" x1="3.343" x2="3.343" y2="-50.871" y1="-49.371"/>
  <line style="fill:none;stroke:#000000;stroke-width:0.3;" x1="3.343" x2="3.343" y2="-49.371" y1="-47.684"/>
  <line style="fill:none;stroke:#000000;stroke-width:0.3;" x1="25.28" x2="20.593" y2="-49.371" y1="-49.371"/>
  <line style="fill:none;stroke:#000000;stroke-width:0.3;" x1="15.968" x2="20.593" y2="-49.371" y1="-49.371"/>
  <line style="fill:none;stroke:#000000;stroke-width:0.3;" x1="20.593" x2="20.593" y2="-50.871" y1="-49.371"/>
  <line style="fill:none;stroke:#000000;stroke-width:0.3;" x1="20.593" x2="20.593" y2="-47.684" y1="-49.371"/>
  <line style="fill:none;stroke:#000000;stroke-width:0.3;" x1="16.676" x2="11.988" y2="-55.1" y1="-55.1"/>
  <line style="fill:none;stroke:#000000;stroke-width:0.3;" x1="7.363" x2="11.988" y2="-55.1" y1="-55.1"/>
  <line style="fill:none;stroke:#000000;stroke-width:0.3;" x1="11.988" x2="11.988" y2="-56.6" y1="-55.1"/>
  <line style="fill:none;stroke:#000000;stroke-width:0.3;" x1="11.988" x2="11.988" y2="-55.1" y1="-53.412"/>
  <line style="fill:none;stroke:#000000;stroke-width:0.3;" x1="24.613" x2="29.238" y2="-55.1" y1="-55.1"/>
  <line style="fill:none;stroke:#000000;stroke-width:0.3;" x1="33.926" x2="29.238" y2="-55.1" y1="-55.1"/>
  <line style="fill:none;stroke:#000000;stroke-width:0.3;" x1="29.238" x2="29.238" y2="-56.6" y1="-55.1"/>
  <line style="fill:none;stroke:#000000;stroke-width:0.3;" x1="29.238" x2="29.238" y2="-53.412" y1="-55.1"/>
  <line style="fill:none;stroke:#000000;stroke-width:0.3;" x1="1.6" x2="3.343" y2="-60.85" y1="-60.85"/>
  <line style="fill:none;stroke:#000000;stroke-width:0.3;" x1="8.03" x2="3.343" y2="-60.85" y1="-60.85"/>
  <line style="fill:none;stroke:#000000;stroke-width:0.3;" x1="3.343" x2="3.343" y2="-60.85" y1="-62.35"/>
  <line style="fill:none;stroke:#000000;stroke-width:0.3;" x1="3.343" x2="3.343" y2="-60.85" y1="-59.162"/>
  <line style="fill:none;stroke:#000000;stroke-width:0.3;" x1="25.28" x2="20.593" y2="-60.85" y1="-60.85"/>
  <line style="fill:none;stroke:#000000;stroke-width:0.3;" x1="15.968" x2="20.593" y2="-60.85" y1="-60.85"/>
  <line style="fill:none;stroke:#000000;stroke-width:0.3;" x1="20.593" x2="20.593" y2="-62.35" y1="-60.85"/>
  <line style="fill:none;stroke:#000000;stroke-width:0.3;" x1="20.593" x2="20.593" y2="-60.85" y1="-59.162"/>
  <line style="fill:none;stroke:#000000;stroke-width:0.3;" x1="8.03" x2="3.343" y2="-37.829" y1="-37.829"/>
  <line style="fill:none;stroke:#000000;stroke-width:0.3;" x1="3.343" x2="1.6" y2="-37.829" y1="-37.829"/>
  <line style="fill:none;stroke:#000000;stroke-width:0.3;" x1="3.343" x2="3.343" y2="-39.329" y1="-37.829"/>
  <line style="fill:none;stroke:#000000;stroke-width:0.3;" x1="3.343" x2="3.343" y2="-36.142" y1="-37.829"/>
  <line style="fill:none;stroke:#000000;stroke-width:0.3;" x1="15.968" x2="20.593" y2="-37.829" y1="-37.829"/>
  <line style="fill:none;stroke:#000000;stroke-width:0.3;" x1="25.28" x2="20.593" y2="-37.829" y1="-37.829"/>
  <line style="fill:none;stroke:#000000;stroke-width:0.3;" x1="20.593" x2="20.593" y2="-37.829" y1="-36.142"/>
  <line style="fill:none;stroke:#000000;stroke-width:0.3;" x1="20.593" x2="20.593" y2="-39.329" y1="-37.829"/>
  <line style="fill:none;stroke:#000000;stroke-width:0.3;" x1="11.988" x2="16.676" y2="-66.579" y1="-66.579"/>
  <line style="fill:none;stroke:#000000;stroke-width:0.3;" x1="7.363" x2="11.988" y2="-66.579" y1="-66.579"/>
  <line style="fill:none;stroke:#000000;stroke-width:0.3;" x1="11.988" x2="11.988" y2="-66.579" y1="-64.892"/>
  <line style="fill:none;stroke:#000000;stroke-width:0.3;" x1="11.988" x2="11.988" y2="-68.079" y1="-66.579"/>
  <line style="fill:none;stroke:#000000;stroke-width:0.3;" x1="29.238" x2="33.926" y2="-66.579" y1="-66.579"/>
  <line style="fill:none;stroke:#000000;stroke-width:0.3;" x1="24.613" x2="29.238" y2="-66.579" y1="-66.579"/>
  <line style="fill:none;stroke:#000000;stroke-width:0.3;" x1="29.238" x2="29.238" y2="-66.579" y1="-64.892"/>
  <line style="fill:none;stroke:#000000;stroke-width:0.3;" x1="29.238" x2="29.238" y2="-68.079" y1="-66.579"/>
  <line style="fill:none;stroke:#000000;stroke-width:0.3;" x1="7.363" x2="11.988" y2="-9.079" y1="-9.079"/>
  <line style="fill:none;stroke:#000000;stroke-width:0.3;" x1="16.676" x2="11.988" y2="-9.079" y1="-9.079"/>
  <line style="fill:none;stroke:#000000;stroke-width:0.3;" x1="11.988" x2="11.988" y2="-10.579" y1="-9.079"/>
  <line style="fill:none;stroke:#000000;stroke-width:0.3;" x1="11.988" x2="11.988" y2="-9.079" y1="-7.392"/>
  <line style="fill:none;stroke:#000000;stroke-width:0.3;" x1="33.926" x2="29.238" y2="-9.079" y1="-9.079"/>
  <line style="fill:none;stroke:#000000;stroke-width:0.3;" x1="24.613" x2="29.238" y2="-9.079" y1="-9.079"/>
  <line style="fill:none;stroke:#000000;stroke-width:0.3;" x1="29.238" x2="29.238" y2="-7.392" y1="-9.079"/>
  <line style="fill:none;stroke:#000000;stroke-width:0.3;" x1="29.238" x2="29.238" y2="-9.079" y1="-10.579"/>
  <line style="fill:none;stroke:#000000;stroke-width:0.3;" x1="3.343" x2="1.6" y2="-14.829" y1="-14.829"/>
  <line style="fill:none;stroke:#000000;stroke-width:0.3;" x1="8.03" x2="3.343" y2="-14.829" y1="-14.829"/>
  <line style="fill:none;stroke:#000000;stroke-width:0.3;" x1="3.343" x2="3.343" y2="-13.142" y1="-14.829"/>
  <line style="fill:none;stroke:#000000;stroke-width:0.3;" x1="3.343" x2="3.343" y2="-16.329" y1="-14.829"/>
  <line style="fill:none;stroke:#000000;stroke-width:0.3;" x1="15.968" x2="20.593" y2="-14.829" y1="-14.829"/>
  <line style="fill:none;stroke:#000000;stroke-width:0.3;" x1="25.28" x2="20.593" y2="-14.829" y1="-14.829"/>
  <line style="fill:none;stroke:#000000;stroke-width:0.3;" x1="20.593" x2="20.593" y2="-13.142" y1="-14.829"/>
  <line style="fill:none;stroke:#000000;stroke-width:0.3;" x1="20.593" x2="20.593" y2="-16.329" y1="-14.829"/>
  <line style="fill:none;stroke:#000000;stroke-width:0.3;" x1="16.676" x2="11.988" y2="-20.559" y1="-20.559"/>
  <line style="fill:none;stroke:#000000;stroke-width:0.3;" x1="7.363" x2="11.988" y2="-20.559" y1="-20.559"/>
  <line style="fill:none;stroke:#000000;stroke-width:0.3;" x1="11.988" x2="11.988" y2="-20.559" y1="-18.871"/>
  <line style="fill:none;stroke:#000000;stroke-width:0.3;" x1="11.988" x2="11.988" y2="-22.059" y1="-20.559"/>
  <line style="fill:none;stroke:#000000;stroke-width:0.3;" x1="33.926" x2="29.238" y2="-20.559" y1="-20.559"/>
  <line style="fill:none;stroke:#000000;stroke-width:0.3;" x1="24.613" x2="29.238" y2="-20.559" y1="-20.559"/>
  <line style="fill:none;stroke:#000000;stroke-width:0.3;" x1="29.238" x2="29.238" y2="-18.871" y1="-20.559"/>
  <line style="fill:none;stroke:#000000;stroke-width:0.3;" x1="29.238" x2="29.238" y2="-22.059" y1="-20.559"/>
  <line style="fill:none;stroke:#000000;stroke-width:0.3;" x1="1.6" x2="3.343" y2="-26.309" y1="-26.309"/>
  <line style="fill:none;stroke:#000000;stroke-width:0.3;" x1="8.03" x2="3.343" y2="-26.309" y1="-26.309"/>
  <line style="fill:none;stroke:#000000;stroke-width:0.3;" x1="3.343" x2="3.343" y2="-26.309" y1="-24.621"/>
  <line style="fill:none;stroke:#000000;stroke-width:0.3;" x1="3.343" x2="3.343" y2="-26.309" y1="-27.809"/>
  <line style="fill:none;stroke:#000000;stroke-width:0.3;" x1="15.968" x2="20.593" y2="-26.309" y1="-26.309"/>
  <line style="fill:none;stroke:#000000;stroke-width:0.3;" x1="25.28" x2="20.593" y2="-26.309" y1="-26.309"/>
  <line style="fill:none;stroke:#000000;stroke-width:0.3;" x1="20.593" x2="20.593" y2="-26.309" y1="-24.621"/>
  <line style="fill:none;stroke:#000000;stroke-width:0.3;" x1="20.593" x2="20.593" y2="-27.809" y1="-26.309"/>
  <line style="fill:none;stroke:#000000;stroke-width:0.3;" x1="3.343" x2="1.6" y2="-3.287" y1="-3.287"/>
  <line style="fill:none;stroke:#000000;stroke-width:0.3;" x1="8.03" x2="3.343" y2="-3.287" y1="-3.287"/>
  <line style="fill:none;stroke:#000000;stroke-width:0.3;" x1="3.343" x2="3.343" y2="-3.287" y1="-1.6"/>
  <line style="fill:none;stroke:#000000;stroke-width:0.3;" x1="3.343" x2="3.343" y2="-3.287" y1="-4.787"/>
  <line style="fill:none;stroke:#000000;stroke-width:0.3;" x1="25.28" x2="20.593" y2="-3.287" y1="-3.287"/>
  <line style="fill:none;stroke:#000000;stroke-width:0.3;" x1="20.593" x2="15.968" y2="-3.287" y1="-3.287"/>
  <line style="fill:none;stroke:#000000;stroke-width:0.3;" x1="20.593" x2="20.593" y2="-3.287" y1="-4.787"/>
  <line style="fill:none;stroke:#000000;stroke-width:0.3;" x1="20.593" x2="20.593" y2="-1.6" y1="-3.287"/>
  <line style="fill:none;stroke:#000000;stroke-width:0.3;" x1="7.363" x2="11.988" y2="-32.037" y1="-32.037"/>
  <line style="fill:none;stroke:#000000;stroke-width:0.3;" x1="16.676" x2="11.988" y2="-32.037" y1="-32.037"/>
  <line style="fill:none;stroke:#000000;stroke-width:0.3;" x1="11.988" x2="11.988" y2="-33.537" y1="-32.037"/>
  <line style="fill:none;stroke:#000000;stroke-width:0.3;" x1="11.988" x2="11.988" y2="-32.037" y1="-30.35"/>
  <line style="fill:none;stroke:#000000;stroke-width:0.3;" x1="24.613" x2="29.238" y2="-32.037" y1="-32.037"/>
  <line style="fill:none;stroke:#000000;stroke-width:0.3;" x1="33.926" x2="29.238" y2="-32.037" y1="-32.037"/>
  <line style="fill:none;stroke:#000000;stroke-width:0.3;" x1="29.238" x2="29.238" y2="-33.537" y1="-32.037"/>
  <line style="fill:none;stroke:#000000;stroke-width:0.3;" x1="29.238" x2="29.238" y2="-30.35" y1="-32.037"/>
  <line style="fill:none;stroke:#000000;stroke-width:0.3;" x1="41.847" x2="46.472" y2="-43.621" y1="-43.621"/>
  <line style="fill:none;stroke:#000000;stroke-width:0.3;" x1="51.16" x2="46.472" y2="-43.621" y1="-43.621"/>
  <line style="fill:none;stroke:#000000;stroke-width:0.3;" x1="46.472" x2="46.472" y2="-45.121" y1="-43.621"/>
  <line style="fill:none;stroke:#000000;stroke-width:0.3;" x1="46.472" x2="46.472" y2="-43.621" y1="-41.934"/>
  <line style="fill:none;stroke:#000000;stroke-width:0.3;" x1="63.722" x2="68.41" y2="-43.621" y1="-43.621"/>
  <line style="fill:none;stroke:#000000;stroke-width:0.3;" x1="59.097" x2="63.722" y2="-43.621" y1="-43.621"/>
  <line style="fill:none;stroke:#000000;stroke-width:0.3;" x1="63.722" x2="63.722" y2="-45.121" y1="-43.621"/>
  <line style="fill:none;stroke:#000000;stroke-width:0.3;" x1="63.722" x2="63.722" y2="-41.934" y1="-43.621"/>
  <line style="fill:none;stroke:#000000;stroke-width:0.3;" x1="42.514" x2="37.826" y2="-49.371" y1="-49.371"/>
  <line style="fill:none;stroke:#000000;stroke-width:0.3;" x1="33.201" x2="37.826" y2="-49.371" y1="-49.371"/>
  <line style="fill:none;stroke:#000000;stroke-width:0.3;" x1="37.826" x2="37.826" y2="-47.684" y1="-49.371"/>
  <line style="fill:none;stroke:#000000;stroke-width:0.3;" x1="37.826" x2="37.826" y2="-50.871" y1="-49.371"/>
  <line style="fill:none;stroke:#000000;stroke-width:0.3;" x1="59.764" x2="55.076" y2="-49.371" y1="-49.371"/>
  <line style="fill:none;stroke:#000000;stroke-width:0.3;" x1="50.451" x2="55.076" y2="-49.371" y1="-49.371"/>
  <line style="fill:none;stroke:#000000;stroke-width:0.3;" x1="55.076" x2="55.076" y2="-47.684" y1="-49.371"/>
  <line style="fill:none;stroke:#000000;stroke-width:0.3;" x1="55.076" x2="55.076" y2="-50.871" y1="-49.371"/>
  <line style="fill:none;stroke:#000000;stroke-width:0.3;" x1="70.582" x2="67.701" y2="-49.371" y1="-49.371"/>
  <line style="fill:none;stroke:#000000;stroke-width:0.3;" x1="41.847" x2="46.472" y2="-55.1" y1="-55.1"/>
  <line style="fill:none;stroke:#000000;stroke-width:0.3;" x1="51.16" x2="46.472" y2="-55.1" y1="-55.1"/>
  <line style="fill:none;stroke:#000000;stroke-width:0.3;" x1="46.472" x2="46.472" y2="-56.6" y1="-55.1"/>
  <line style="fill:none;stroke:#000000;stroke-width:0.3;" x1="46.472" x2="46.472" y2="-53.412" y1="-55.1"/>
  <line style="fill:none;stroke:#000000;stroke-width:0.3;" x1="59.097" x2="63.722" y2="-55.1" y1="-55.1"/>
  <line style="fill:none;stroke:#000000;stroke-width:0.3;" x1="63.722" x2="68.41" y2="-55.1" y1="-55.1"/>
  <line style="fill:none;stroke:#000000;stroke-width:0.3;" x1="63.722" x2="63.722" y2="-53.412" y1="-55.1"/>
  <line style="fill:none;stroke:#000000;stroke-width:0.3;" x1="63.722" x2="63.722" y2="-56.6" y1="-55.1"/>
  <line style="fill:none;stroke:#000000;stroke-width:0.3;" x1="42.514" x2="37.826" y2="-60.85" y1="-60.85"/>
  <line style="fill:none;stroke:#000000;stroke-width:0.3;" x1="33.201" x2="37.826" y2="-60.85" y1="-60.85"/>
  <line style="fill:none;stroke:#000000;stroke-width:0.3;" x1="37.826" x2="37.826" y2="-60.85" y1="-59.162"/>
  <line style="fill:none;stroke:#000000;stroke-width:0.3;" x1="37.826" x2="37.826" y2="-62.35" y1="-60.85"/>
  <line style="fill:none;stroke:#000000;stroke-width:0.3;" x1="50.451" x2="55.076" y2="-60.85" y1="-60.85"/>
  <line style="fill:none;stroke:#000000;stroke-width:0.3;" x1="59.764" x2="55.076" y2="-60.85" y1="-60.85"/>
  <line style="fill:none;stroke:#000000;stroke-width:0.3;" x1="55.076" x2="55.076" y2="-60.85" y1="-59.162"/>
  <line style="fill:none;stroke:#000000;stroke-width:0.3;" x1="55.076" x2="55.076" y2="-62.35" y1="-60.85"/>
  <line style="fill:none;stroke:#000000;stroke-width:0.3;" x1="67.701" x2="70.582" y2="-60.85" y1="-60.85"/>
  <line style="fill:none;stroke:#000000;stroke-width:0.3;" x1="42.514" x2="37.826" y2="-37.829" y1="-37.829"/>
  <line style="fill:none;stroke:#000000;stroke-width:0.3;" x1="33.201" x2="37.826" y2="-37.829" y1="-37.829"/>
  <line style="fill:none;stroke:#000000;stroke-width:0.3;" x1="37.826" x2="37.826" y2="-36.142" y1="-37.829"/>
  <line style="fill:none;stroke:#000000;stroke-width:0.3;" x1="37.826" x2="37.826" y2="-39.329" y1="-37.829"/>
  <line style="fill:none;stroke:#000000;stroke-width:0.3;" x1="50.451" x2="55.076" y2="-37.829" y1="-37.829"/>
  <line style="fill:none;stroke:#000000;stroke-width:0.3;" x1="59.764" x2="55.076" y2="-37.829" y1="-37.829"/>
  <line style="fill:none;stroke:#000000;stroke-width:0.3;" x1="55.076" x2="55.076" y2="-36.142" y1="-37.829"/>
  <line style="fill:none;stroke:#000000;stroke-width:0.3;" x1="55.076" x2="55.076" y2="-39.329" y1="-37.829"/>
  <line style="fill:none;stroke:#000000;stroke-width:0.3;" x1="67.701" x2="70.582" y2="-37.829" y1="-37.829"/>
  <line style="fill:none;stroke:#000000;stroke-width:0.3;" x1="46.472" x2="51.16" y2="-66.579" y1="-66.579"/>
  <line style="fill:none;stroke:#000000;stroke-width:0.3;" x1="41.847" x2="46.472" y2="-66.579" y1="-66.579"/>
  <line style="fill:none;stroke:#000000;stroke-width:0.3;" x1="46.472" x2="46.472" y2="-68.079" y1="-66.579"/>
  <line style="fill:none;stroke:#000000;stroke-width:0.3;" x1="46.472" x2="46.472" y2="-66.579" y1="-64.892"/>
  <line style="fill:none;stroke:#000000;stroke-width:0.3;" x1="59.097" x2="63.722" y2="-66.579" y1="-66.579"/>
  <line style="fill:none;stroke:#000000;stroke-width:0.3;" x1="63.722" x2="68.41" y2="-66.579" y1="-66.579"/>
  <line style="fill:none;stroke:#000000;stroke-width:0.3;" x1="63.722" x2="63.722" y2="-68.079" y1="-66.579"/>
  <line style="fill:none;stroke:#000000;stroke-width:0.3;" x1="63.722" x2="63.722" y2="-66.579" y1="-64.892"/>
  <line style="fill:none;stroke:#000000;stroke-width:0.3;" x1="51.16" x2="46.472" y2="-9.079" y1="-9.079"/>
  <line style="fill:none;stroke:#000000;stroke-width:0.3;" x1="41.847" x2="46.472" y2="-9.079" y1="-9.079"/>
  <line style="fill:none;stroke:#000000;stroke-width:0.3;" x1="46.472" x2="46.472" y2="-9.079" y1="-10.579"/>
  <line style="fill:none;stroke:#000000;stroke-width:0.3;" x1="46.472" x2="46.472" y2="-7.392" y1="-9.079"/>
  <line style="fill:none;stroke:#000000;stroke-width:0.3;" x1="63.722" x2="68.41" y2="-9.079" y1="-9.079"/>
  <line style="fill:none;stroke:#000000;stroke-width:0.3;" x1="59.097" x2="63.722" y2="-9.079" y1="-9.079"/>
  <line style="fill:none;stroke:#000000;stroke-width:0.3;" x1="63.722" x2="63.722" y2="-7.392" y1="-9.079"/>
  <line style="fill:none;stroke:#000000;stroke-width:0.3;" x1="63.722" x2="63.722" y2="-10.579" y1="-9.079"/>
  <line style="fill:none;stroke:#000000;stroke-width:0.3;" x1="33.201" x2="37.826" y2="-14.829" y1="-14.829"/>
  <line style="fill:none;stroke:#000000;stroke-width:0.3;" x1="42.514" x2="37.826" y2="-14.829" y1="-14.829"/>
  <line style="fill:none;stroke:#000000;stroke-width:0.3;" x1="37.826" x2="37.826" y2="-13.142" y1="-14.829"/>
  <line style="fill:none;stroke:#000000;stroke-width:0.3;" x1="37.826" x2="37.826" y2="-16.329" y1="-14.829"/>
  <line style="fill:none;stroke:#000000;stroke-width:0.3;" x1="55.076" x2="59.764" y2="-14.829" y1="-14.829"/>
  <line style="fill:none;stroke:#000000;stroke-width:0.3;" x1="50.451" x2="55.076" y2="-14.829" y1="-14.829"/>
  <line style="fill:none;stroke:#000000;stroke-width:0.3;" x1="55.076" x2="55.076" y2="-13.142" y1="-14.829"/>
  <line style="fill:none;stroke:#000000;stroke-width:0.3;" x1="55.076" x2="55.076" y2="-16.329" y1="-14.829"/>
  <line style="fill:none;stroke:#000000;stroke-width:0.3;" x1="67.701" x2="70.582" y2="-14.829" y1="-14.829"/>
  <line style="fill:none;stroke:#000000;stroke-width:0.3;" x1="51.16" x2="46.472" y2="-20.559" y1="-20.559"/>
  <line style="fill:none;stroke:#000000;stroke-width:0.3;" x1="41.847" x2="46.472" y2="-20.559" y1="-20.559"/>
  <line style="fill:none;stroke:#000000;stroke-width:0.3;" x1="46.472" x2="46.472" y2="-18.871" y1="-20.559"/>
  <line style="fill:none;stroke:#000000;stroke-width:0.3;" x1="46.472" x2="46.472" y2="-22.059" y1="-20.559"/>
  <line style="fill:none;stroke:#000000;stroke-width:0.3;" x1="63.722" x2="68.41" y2="-20.559" y1="-20.559"/>
  <line style="fill:none;stroke:#000000;stroke-width:0.3;" x1="63.722" x2="59.097" y2="-20.559" y1="-20.559"/>
  <line style="fill:none;stroke:#000000;stroke-width:0.3;" x1="63.722" x2="63.722" y2="-22.059" y1="-20.559"/>
  <line style="fill:none;stroke:#000000;stroke-width:0.3;" x1="63.722" x2="63.722" y2="-18.871" y1="-20.559"/>
  <line style="fill:none;stroke:#000000;stroke-width:0.3;" x1="42.514" x2="37.826" y2="-26.309" y1="-26.309"/>
  <line style="fill:none;stroke:#000000;stroke-width:0.3;" x1="33.201" x2="37.826" y2="-26.309" y1="-26.309"/>
  <line style="fill:none;stroke:#000000;stroke-width:0.3;" x1="37.826" x2="37.826" y2="-26.309" y1="-27.809"/>
  <line style="fill:none;stroke:#000000;stroke-width:0.3;" x1="37.826" x2="37.826" y2="-24.621" y1="-26.309"/>
  <line style="fill:none;stroke:#000000;stroke-width:0.3;" x1="55.076" x2="59.764" y2="-26.309" y1="-26.309"/>
  <line style="fill:none;stroke:#000000;stroke-width:0.3;" x1="50.451" x2="55.076" y2="-26.309" y1="-26.309"/>
  <line style="fill:none;stroke:#000000;stroke-width:0.3;" x1="55.076" x2="55.076" y2="-27.809" y1="-26.309"/>
  <line style="fill:none;stroke:#000000;stroke-width:0.3;" x1="55.076" x2="55.076" y2="-24.621" y1="-26.309"/>
  <line style="fill:none;stroke:#000000;stroke-width:0.3;" x1="67.701" x2="70.582" y2="-26.309" y1="-26.309"/>
  <line style="fill:none;stroke:#000000;stroke-width:0.3;" x1="42.514" x2="37.826" y2="-3.287" y1="-3.287"/>
  <line style="fill:none;stroke:#000000;stroke-width:0.3;" x1="37.826" x2="33.201" y2="-3.287" y1="-3.287"/>
  <line style="fill:none;stroke:#000000;stroke-width:0.3;" x1="37.826" x2="37.826" y2="-3.287" y1="-4.787"/>
  <line style="fill:none;stroke:#000000;stroke-width:0.3;" x1="37.826" x2="37.826" y2="-1.6" y1="-3.287"/>
  <line style="fill:none;stroke:#000000;stroke-width:0.3;" x1="59.764" x2="55.076" y2="-3.287" y1="-3.287"/>
  <line style="fill:none;stroke:#000000;stroke-width:0.3;" x1="55.076" x2="50.451" y2="-3.287" y1="-3.287"/>
  <line style="fill:none;stroke:#000000;stroke-width:0.3;" x1="55.076" x2="55.076" y2="-3.287" y1="-4.787"/>
  <line style="fill:none;stroke:#000000;stroke-width:0.3;" x1="55.076" x2="55.076" y2="-1.6" y1="-3.287"/>
  <line style="fill:none;stroke:#000000;stroke-width:0.3;" x1="67.701" x2="70.582" y2="-3.287" y1="-3.287"/>
  <line style="fill:none;stroke:#000000;stroke-width:0.3;" x1="41.847" x2="46.472" y2="-32.037" y1="-32.037"/>
  <line style="fill:none;stroke:#000000;stroke-width:0.3;" x1="51.16" x2="46.472" y2="-32.037" y1="-32.037"/>
  <line style="fill:none;stroke:#000000;stroke-width:0.3;" x1="46.472" x2="46.472" y2="-33.537" y1="-32.037"/>
  <line style="fill:none;stroke:#000000;stroke-width:0.3;" x1="46.472" x2="46.472" y2="-30.35" y1="-32.037"/>
  <line style="fill:none;stroke:#000000;stroke-width:0.3;" x1="59.097" x2="63.722" y2="-32.037" y1="-32.037"/>
  <line style="fill:none;stroke:#000000;stroke-width:0.3;" x1="68.41" x2="63.722" y2="-32.037" y1="-32.037"/>
  <line style="fill:none;stroke:#000000;stroke-width:0.3;" x1="63.722" x2="63.722" y2="-30.35" y1="-32.037"/>
  <line style="fill:none;stroke:#000000;stroke-width:0.3;" x1="63.722" x2="63.722" y2="-32.037" y1="-33.537"/>
 </g>
</svg>
