<?xml version="1.0"?>
<!-- Converted with SVG Converter - Version 0.9.5 (Compiled Fri Feb 21 09:53:38 2020) - Copyright (C) 2011 Nokia -->
<svg xmlns="http://www.w3.org/2000/svg" xml:space="preserve" x="0px" y="0px" xmlns:xlink="http://www.w3.org/1999/xlink" width="80.559" viewBox="1.488 -81.884 80.559 80.5" version="1.1" height="80.5" baseProfile="tiny">
 <g>
  <rect x="1.488" y="-81.884" width="80.559" style="fill:none;" height="80.5"/>
  <line y2="-77.46" y1="-79.118" style="fill:none;stroke:#000000;stroke-width:0.3;" x2="17.052" x1="18.341"/>
  <line y2="-76.61" y1="-74.66" style="fill:none;stroke:#000000;stroke-width:0.3;" x2="13.071" x1="12.854"/>
  <line y2="-68.967" y1="-70.426" style="fill:none;stroke:#000000;stroke-width:0.3;" x2="7.758" x1="9.071"/>
  <line y2="-66.697" y1="-68.155" style="fill:none;stroke:#000000;stroke-width:0.3;" x2="2.633" x1="3.946"/>
  <line y2="-75.926" y1="-75.551" style="fill:none;stroke:#000000;stroke-width:0.3;" x2="23.258" x1="21.217"/>
  <line y2="-72.28" y1="-72.28" style="fill:none;stroke:#000000;stroke-width:0.3;" x2="11.071" x1="12.946"/>
  <line y2="-78.467" y1="-80.301" style="fill:none;stroke:#000000;stroke-width:0.3;" x2="8.196" x1="9.133"/>
  <line y2="-75.78" y1="-74.53" style="fill:none;stroke:#000000;stroke-width:0.3;" x2="7.758" x1="9.133"/>
  <line y2="-69.905" y1="-68.717" style="fill:none;stroke:#000000;stroke-width:0.3;" x2="16.883" x1="18.383"/>
  <line y2="-67.28" y1="-69.057" style="fill:none;stroke:#000000;stroke-width:0.3;" x2="12.976" x1="13.806"/>
  <line y2="-9.285" y1="-10.775" style="fill:none;stroke:#000000;stroke-width:0.3;" x2="9.016" x1="7.739"/>
  <line y2="-65.655" y1="-66.516" style="fill:none;stroke:#000000;stroke-width:0.3;" x2="20.696" x1="22.362"/>
  <line y2="-36.294" y1="-37.155" style="fill:none;stroke:#000000;stroke-width:0.3;" x2="14.28" x1="15.946"/>
  <line y2="-67.271" y1="-66.905" style="fill:none;stroke:#000000;stroke-width:0.3;" x2="27.318" x1="29.196"/>
  <line y2="-70.271" y1="-71.095" style="fill:none;stroke:#000000;stroke-width:0.3;" x2="24.818" x1="26.545"/>
  <line y2="-63.275" y1="-65.235" style="fill:none;stroke:#000000;stroke-width:0.3;" x2="30.989" x1="30.911"/>
  <line y2="-59.525" y1="-61.485" style="fill:none;stroke:#000000;stroke-width:0.3;" x2="40.989" x1="40.911"/>
  <line y2="-69.967" y1="-71.745" style="fill:none;stroke:#000000;stroke-width:0.3;" x2="21.654" x1="22.485"/>
  <line y2="-66.627" y1="-65.999" style="fill:none;stroke:#000000;stroke-width:0.3;" x2="7.219" x1="8.986"/>
  <line y2="-75.245" y1="-73.655" style="fill:none;stroke:#000000;stroke-width:0.3;" x2="27.452" x1="28.446"/>
  <line y2="-61.776" y1="-60.155" style="fill:none;stroke:#000000;stroke-width:0.3;" x2="10.93" x1="11.946"/>
  <line y2="-60.749" y1="-62.275" style="fill:none;stroke:#000000;stroke-width:0.3;" x2="17.255" x1="18.489"/>
  <line y2="-62.525" y1="-64.05" style="fill:none;stroke:#000000;stroke-width:0.3;" x2="33.989" x1="35.223"/>
  <line y2="-58.028" y1="-58.126" style="fill:none;stroke:#000000;stroke-width:0.3;" x2="14.589" x1="16.461"/>
  <line y2="-55.132" y1="-54.025" style="fill:none;stroke:#000000;stroke-width:0.3;" x2="18.179" x1="19.739"/>
  <line y2="-54.13" y1="-56.081" style="fill:none;stroke:#000000;stroke-width:0.3;" x2="12.212" x1="12.417"/>
  <line y2="-47.905" y1="-49.43" style="fill:none;stroke:#000000;stroke-width:0.3;" x2="9.071" x1="10.305"/>
  <line y2="-51.965" y1="-52.064" style="fill:none;stroke:#000000;stroke-width:0.3;" x2="6.714" x1="8.586"/>
  <line y2="-48.155" y1="-47.048" style="fill:none;stroke:#000000;stroke-width:0.3;" x2="13.696" x1="15.256"/>
  <line y2="-64.462" y1="-63.762" style="fill:none;stroke:#000000;stroke-width:0.3;" x2="15.393" x1="17.174"/>
  <line y2="-62.013" y1="-62.405" style="fill:none;stroke:#000000;stroke-width:0.3;" x2="5.324" x1="7.196"/>
  <line y2="-67.342" y1="-68.155" style="fill:none;stroke:#000000;stroke-width:0.3;" x2="52.133" x1="50.196"/>
  <line y2="-77.592" y1="-78.03" style="fill:none;stroke:#000000;stroke-width:0.3;" x2="5.508" x1="3.446"/>
  <line y2="-58.025" y1="-59.712" style="fill:none;stroke:#000000;stroke-width:0.3;" x2="37.489" x1="36.239"/>
  <line y2="-50.816" y1="-52.275" style="fill:none;stroke:#000000;stroke-width:0.3;" x2="15.527" x1="16.84"/>
  <line y2="-48.842" y1="-50.301" style="fill:none;stroke:#000000;stroke-width:0.3;" x2="26.508" x1="27.821"/>
  <line y2="-53.197" y1="-54.655" style="fill:none;stroke:#000000;stroke-width:0.3;" x2="2.383" x1="3.696"/>
  <line y2="-55.525" y1="-55.15" style="fill:none;stroke:#000000;stroke-width:0.3;" x2="33.739" x1="31.698"/>
  <line y2="-52.155" y1="-52.155" style="fill:none;stroke:#000000;stroke-width:0.3;" x2="29.821" x1="31.696"/>
  <line y2="-59.191" y1="-61.025" style="fill:none;stroke:#000000;stroke-width:0.3;" x2="27.052" x1="27.989"/>
  <line y2="-55.655" y1="-54.405" style="fill:none;stroke:#000000;stroke-width:0.3;" x2="26.508" x1="27.883"/>
  <line y2="-62.775" y1="-61.525" style="fill:none;stroke:#000000;stroke-width:0.3;" x2="23.114" x1="24.489"/>
  <line y2="-49.78" y1="-48.592" style="fill:none;stroke:#000000;stroke-width:0.3;" x2="35.633" x1="37.133"/>
  <line y2="-48.932" y1="-50.71" style="fill:none;stroke:#000000;stroke-width:0.3;" x2="32.556" x1="33.386"/>
  <line y2="-53.275" y1="-55.052" style="fill:none;stroke:#000000;stroke-width:0.3;" x2="42.239" x1="43.07"/>
  <line y2="-46.502" y1="-45.874" style="fill:none;stroke:#000000;stroke-width:0.3;" x2="25.969" x1="27.736"/>
  <line y2="-41.026" y1="-39.405" style="fill:none;stroke:#000000;stroke-width:0.3;" x2="28.93" x1="29.946"/>
  <line y2="-40.749" y1="-42.275" style="fill:none;stroke:#000000;stroke-width:0.3;" x2="38.005" x1="39.239"/>
  <line y2="-37.903" y1="-38.001" style="fill:none;stroke:#000000;stroke-width:0.3;" x2="33.339" x1="35.211"/>
  <line y2="-35.655" y1="-34.548" style="fill:none;stroke:#000000;stroke-width:0.3;" x2="36.946" x1="38.506"/>
  <line y2="-28.999" y1="-30.525" style="fill:none;stroke:#000000;stroke-width:0.3;" x2="27.255" x1="28.489"/>
  <line y2="-26.025" y1="-27.55" style="fill:none;stroke:#000000;stroke-width:0.3;" x2="14.489" x1="15.724"/>
  <line y2="-44.337" y1="-44.729" style="fill:none;stroke:#000000;stroke-width:0.3;" x2="34.143" x1="36.015"/>
  <line y2="-57.467" y1="-57.905" style="fill:none;stroke:#000000;stroke-width:0.3;" x2="24.258" x1="22.196"/>
  <line y2="-31.223" y1="-33.323" style="fill:none;stroke:#000000;stroke-width:0.3;" x2="49.223" x1="49.166"/>
  <line y2="-28.525" y1="-30.469" style="fill:none;stroke:#000000;stroke-width:0.3;" x2="31.489" x1="31.755"/>
  <line y2="-29.808" y1="-29.433" style="fill:none;stroke:#000000;stroke-width:0.3;" x2="54.651" x1="52.61"/>
  <line y2="-27.775" y1="-27.775" style="fill:none;stroke:#000000;stroke-width:0.3;" x2="41.489" x1="43.364"/>
  <line y2="-23.905" y1="-23.905" style="fill:none;stroke:#000000;stroke-width:0.3;" x2="57.196" x1="59.071"/>
  <line y2="-31.275" y1="-33.108" style="fill:none;stroke:#000000;stroke-width:0.3;" x2="39.989" x1="40.927"/>
  <line y2="-24.462" y1="-23.275" style="fill:none;stroke:#000000;stroke-width:0.3;" x2="52.239" x1="53.739"/>
  <line y2="-7.392" y1="-5.525" style="fill:none;stroke:#000000;stroke-width:0.3;" x2="38.757" x1="39.173"/>
  <line y2="-22.997" y1="-24.775" style="fill:none;stroke:#000000;stroke-width:0.3;" x2="44.659" x1="45.489"/>
  <line y2="-33.982" y1="-35.372" style="fill:none;stroke:#000000;stroke-width:0.3;" x2="80.231" x1="78.845"/>
  <line y2="-15.187" y1="-17.091" style="fill:none;stroke:#000000;stroke-width:0.3;" x2="41.493" x1="41.023"/>
  <line y2="-15.275" y1="-17.18" style="fill:none;stroke:#000000;stroke-width:0.3;" x2="21.739" x1="21.27"/>
  <line y2="-26.525" y1="-28.302" style="fill:none;stroke:#000000;stroke-width:0.3;" x2="61.239" x1="62.07"/>
  <line y2="-19.926" y1="-19.299" style="fill:none;stroke:#000000;stroke-width:0.3;" x2="38.783" x1="40.55"/>
  <line y2="-30.402" y1="-28.582" style="fill:none;stroke:#000000;stroke-width:0.3;" x2="10.723" x1="10.275"/>
  <line y2="-16.115" y1="-16.629" style="fill:none;stroke:#000000;stroke-width:0.3;" x2="35.574" x1="37.377"/>
  <line y2="-16.897" y1="-15.275" style="fill:none;stroke:#000000;stroke-width:0.3;" x2="47.753" x1="46.739"/>
  <line y2="-11.776" y1="-11.875" style="fill:none;stroke:#000000;stroke-width:0.3;" x2="43.654" x1="45.526"/>
  <line y2="-9.012" y1="-7.905" style="fill:none;stroke:#000000;stroke-width:0.3;" x2="51.636" x1="53.196"/>
  <line y2="-45.262" y1="-44.155" style="fill:none;stroke:#000000;stroke-width:0.3;" x2="7.636" x1="9.196"/>
  <line y2="-8.499" y1="-10.025" style="fill:none;stroke:#000000;stroke-width:0.3;" x2="46.255" x1="47.489"/>
  <line y2="-3.655" y1="-5.18" style="fill:none;stroke:#000000;stroke-width:0.3;" x2="53.946" x1="55.18"/>
  <line y2="-1.85" y1="-3.375" style="fill:none;stroke:#000000;stroke-width:0.3;" x2="40.18" x1="41.414"/>
  <line y2="-10.428" y1="-11.426" style="fill:none;stroke:#000000;stroke-width:0.3;" x2="29.588" x1="31.175"/>
  <line y2="-3.561" y1="-2.454" style="fill:none;stroke:#000000;stroke-width:0.3;" x2="46.87" x1="48.43"/>
  <line y2="-10.275" y1="-9.167" style="fill:none;stroke:#000000;stroke-width:0.3;" x2="40.739" x1="42.3"/>
  <line y2="-19.811" y1="-21.267" style="fill:none;stroke:#000000;stroke-width:0.3;" x2="65.855" x1="67.095"/>
  <line y2="-15.382" y1="-15.775" style="fill:none;stroke:#000000;stroke-width:0.3;" x2="49.867" x1="51.739"/>
  <line y2="-35.787" y1="-36.6" style="fill:none;stroke:#000000;stroke-width:0.3;" x2="45.756" x1="43.818"/>
  <line y2="-31.775" y1="-32.212" style="fill:none;stroke:#000000;stroke-width:0.3;" x2="35.989" x1="33.927"/>
  <line y2="-9.267" y1="-10.954" style="fill:none;stroke:#000000;stroke-width:0.3;" x2="56.818" x1="55.568"/>
  <line y2="-48.087" y1="-49.775" style="fill:none;stroke:#000000;stroke-width:0.3;" x2="43.239" x1="41.989"/>
  <line y2="-8.225" y1="-9.683" style="fill:none;stroke:#000000;stroke-width:0.3;" x2="66.881" x1="68.193"/>
  <line y2="-1.816" y1="-3.275" style="fill:none;stroke:#000000;stroke-width:0.3;" x2="59.677" x1="60.989"/>
  <line y2="-10.126" y1="-9.275" style="fill:none;stroke:#000000;stroke-width:0.3;" x2="73.383" x1="71.489"/>
  <line y2="-6.1" y1="-6.1" style="fill:none;stroke:#000000;stroke-width:0.3;" x2="62.631" x1="64.506"/>
  <line y2="-11.691" y1="-13.525" style="fill:none;stroke:#000000;stroke-width:0.3;" x2="60.052" x1="60.989"/>
  <line y2="-9.655" y1="-8.405" style="fill:none;stroke:#000000;stroke-width:0.3;" x2="61.071" x1="62.446"/>
  <line y2="-2.787" y1="-1.6" style="fill:none;stroke:#000000;stroke-width:0.3;" x2="68.443" x1="69.943"/>
  <line y2="-2.877" y1="-4.655" style="fill:none;stroke:#000000;stroke-width:0.3;" x2="65.366" x1="66.196"/>
  <line y2="-7.12" y1="-9.025" style="fill:none;stroke:#000000;stroke-width:0.3;" x2="75.46" x1="74.989"/>
  <line y2="-6.932" y1="-8.341" style="fill:none;stroke:#000000;stroke-width:0.3;" x2="77.878" x1="79.115"/>
  <line y2="-4.501" y1="-6.315" style="fill:none;stroke:#000000;stroke-width:0.3;" x2="51.141" x1="51.614"/>
  <line y2="-3.472" y1="-2.347" style="fill:none;stroke:#000000;stroke-width:0.3;" x2="35.129" x1="36.629"/>
  <line y2="-11.596" y1="-10.488" style="fill:none;stroke:#000000;stroke-width:0.3;" x2="79.147" x1="80.707"/>
  <line y2="-4.269" y1="-5.016" style="fill:none;stroke:#000000;stroke-width:0.3;" x2="72.824" x1="74.585"/>
  <line y2="-21.025" y1="-21.462" style="fill:none;stroke:#000000;stroke-width:0.3;" x2="49.739" x1="47.677"/>
  <line y2="-21.41" y1="-19.622" style="fill:none;stroke:#000000;stroke-width:0.3;" x2="62.718" x1="61.912"/>
  <line y2="-76.477" y1="-74.905" style="fill:none;stroke:#000000;stroke-width:0.3;" x2="64.173" x1="65.196"/>
  <line y2="-19.68" y1="-17.775" style="fill:none;stroke:#000000;stroke-width:0.3;" x2="53.566" x1="53.389"/>
  <line y2="-55.31" y1="-53.405" style="fill:none;stroke:#000000;stroke-width:0.3;" x2="48.123" x1="47.946"/>
  <line y2="-67.56" y1="-65.655" style="fill:none;stroke:#000000;stroke-width:0.3;" x2="55.623" x1="55.446"/>
  <line y2="-58.831" y1="-60.518" style="fill:none;stroke:#000000;stroke-width:0.3;" x2="63.313" x1="62.063"/>
  <line y2="-54.831" y1="-56.289" style="fill:none;stroke:#000000;stroke-width:0.3;" x2="60.688" x1="62.001"/>
  <line y2="-49.393" y1="-50.851" style="fill:none;stroke:#000000;stroke-width:0.3;" x2="53.126" x1="54.438"/>
  <line y2="-47.066" y1="-48.525" style="fill:none;stroke:#000000;stroke-width:0.3;" x2="47.177" x1="48.489"/>
  <line y2="-57.456" y1="-57.081" style="fill:none;stroke:#000000;stroke-width:0.3;" x2="67.688" x1="65.647"/>
  <line y2="-52.706" y1="-52.706" style="fill:none;stroke:#000000;stroke-width:0.3;" x2="56.438" x1="58.313"/>
  <line y2="-58.893" y1="-60.726" style="fill:none;stroke:#000000;stroke-width:0.3;" x2="53.563" x1="54.501"/>
  <line y2="-56.206" y1="-54.956" style="fill:none;stroke:#000000;stroke-width:0.3;" x2="53.126" x1="54.501"/>
  <line y2="-50.331" y1="-49.143" style="fill:none;stroke:#000000;stroke-width:0.3;" x2="62.251" x1="63.751"/>
  <line y2="-47.705" y1="-49.483" style="fill:none;stroke:#000000;stroke-width:0.3;" x2="58.343" x1="59.174"/>
  <line y2="-53.581" y1="-55.358" style="fill:none;stroke:#000000;stroke-width:0.3;" x2="70.063" x1="70.894"/>
  <line y2="-47.053" y1="-46.425" style="fill:none;stroke:#000000;stroke-width:0.3;" x2="52.587" x1="54.353"/>
  <line y2="-80.283" y1="-78.98" style="fill:none;stroke:#000000;stroke-width:0.3;" x2="57.429" x1="58.777"/>
  <line y2="-42.868" y1="-41.247" style="fill:none;stroke:#000000;stroke-width:0.3;" x2="57.268" x1="58.284"/>
  <line y2="-44.275" y1="-45.8" style="fill:none;stroke:#000000;stroke-width:0.3;" x2="64.989" x1="66.224"/>
  <line y2="-38.453" y1="-38.552" style="fill:none;stroke:#000000;stroke-width:0.3;" x2="59.956" x1="61.829"/>
  <line y2="-36.387" y1="-34.77" style="fill:none;stroke:#000000;stroke-width:0.3;" x2="64.468" x1="65.49"/>
  <line y2="-35.905" y1="-37.43" style="fill:none;stroke:#000000;stroke-width:0.3;" x2="57.196" x1="58.43"/>
  <line y2="-26.249" y1="-27.775" style="fill:none;stroke:#000000;stroke-width:0.3;" x2="56.005" x1="57.239"/>
  <line y2="-36.054" y1="-34.241" style="fill:none;stroke:#000000;stroke-width:0.3;" x2="53.263" x1="53.739"/>
  <line y2="-32.762" y1="-31.655" style="fill:none;stroke:#000000;stroke-width:0.3;" x2="61.386" x1="62.946"/>
  <line y2="-33.882" y1="-32.775" style="fill:none;stroke:#000000;stroke-width:0.3;" x2="22.179" x1="23.739"/>
  <line y2="-44.887" y1="-45.28" style="fill:none;stroke:#000000;stroke-width:0.3;" x2="60.761" x1="62.633"/>
  <line y2="-42.075" y1="-42.467" style="fill:none;stroke:#000000;stroke-width:0.3;" x2="68.698" x1="70.571"/>
  <line y2="-62.268" y1="-63.081" style="fill:none;stroke:#000000;stroke-width:0.3;" x2="58.313" x1="56.376"/>
  <line y2="-58.018" y1="-58.456" style="fill:none;stroke:#000000;stroke-width:0.3;" x2="50.876" x1="48.813"/>
  <line y2="-70.967" y1="-71.405" style="fill:none;stroke:#000000;stroke-width:0.3;" x2="65.258" x1="63.196"/>
  <line y2="-40.45" y1="-41.581" style="fill:none;stroke:#000000;stroke-width:0.3;" x2="79.836" x1="81.606"/>
  <line y2="-75.447" y1="-76.905" style="fill:none;stroke:#000000;stroke-width:0.3;" x2="54.383" x1="55.696"/>
  <line y2="-29.018" y1="-30.476" style="fill:none;stroke:#000000;stroke-width:0.3;" x2="73.209" x1="74.522"/>
  <line y2="-32.164" y1="-32.164" style="fill:none;stroke:#000000;stroke-width:0.3;" x2="76.376" x1="78.251"/>
  <line y2="-38.768" y1="-40.601" style="fill:none;stroke:#000000;stroke-width:0.3;" x2="72.313" x1="73.251"/>
  <line y2="-36.081" y1="-34.831" style="fill:none;stroke:#000000;stroke-width:0.3;" x2="71.876" x1="73.251"/>
  <line y2="-24.025" y1="-22.775" style="fill:none;stroke:#000000;stroke-width:0.3;" x2="68.989" x1="70.364"/>
  <line y2="-30.326" y1="-28.951" style="fill:none;stroke:#000000;stroke-width:0.3;" x2="80.88" x1="79.55"/>
  <line y2="-23.9" y1="-25.677" style="fill:none;stroke:#000000;stroke-width:0.3;" x2="74.299" x1="75.129"/>
  <line y2="-26.155" y1="-25.527" style="fill:none;stroke:#000000;stroke-width:0.3;" x2="69.946" x1="71.713"/>
  <line y2="-20.473" y1="-18.851" style="fill:none;stroke:#000000;stroke-width:0.3;" x2="76.914" x1="77.93"/>
  <line y2="-24.396" y1="-22.775" style="fill:none;stroke:#000000;stroke-width:0.3;" x2="40.724" x1="41.739"/>
  <line y2="-20.867" y1="-21.278" style="fill:none;stroke:#000000;stroke-width:0.3;" x2="72.075" x1="73.993"/>
  <line y2="-28.903" y1="-30.428" style="fill:none;stroke:#000000;stroke-width:0.3;" x2="65.526" x1="66.76"/>
  <line y2="-15.81" y1="-17.427" style="fill:none;stroke:#000000;stroke-width:0.3;" x2="79.818" x1="80.766"/>
  <line y2="-14.525" y1="-14.623" style="fill:none;stroke:#000000;stroke-width:0.3;" x2="66.739" x1="68.612"/>
  <line y2="-18.137" y1="-17.03" style="fill:none;stroke:#000000;stroke-width:0.3;" x2="72.636" x1="74.196"/>
  <line y2="-15.632" y1="-14.525" style="fill:none;stroke:#000000;stroke-width:0.3;" x2="56.429" x1="57.989"/>
  <line y2="-12.749" y1="-14.275" style="fill:none;stroke:#000000;stroke-width:0.3;" x2="71.255" x1="72.489"/>
  <line y2="-23.116" y1="-22.082" style="fill:none;stroke:#000000;stroke-width:0.3;" x2="79.031" x1="80.641"/>
  <line y2="-42.143" y1="-42.956" style="fill:none;stroke:#000000;stroke-width:0.3;" x2="77.063" x1="75.126"/>
  <line y2="-37.893" y1="-38.331" style="fill:none;stroke:#000000;stroke-width:0.3;" x2="69.626" x1="67.563"/>
  <line y2="-53.331" y1="-54.739" style="fill:none;stroke:#000000;stroke-width:0.3;" x2="80.697" x1="79.332"/>
  <line y2="-63.103" y1="-61.758" style="fill:none;stroke:#000000;stroke-width:0.3;" x2="68.225" x1="66.864"/>
  <line y2="-39.331" y1="-41.018" style="fill:none;stroke:#000000;stroke-width:0.3;" x2="5.313" x1="4.063"/>
  <line y2="-35.331" y1="-36.789" style="fill:none;stroke:#000000;stroke-width:0.3;" x2="2.688" x1="4.001"/>
  <line y2="-37.956" y1="-37.581" style="fill:none;stroke:#000000;stroke-width:0.3;" x2="9.689" x1="7.647"/>
  <line y2="-29.379" y1="-28.191" style="fill:none;stroke:#000000;stroke-width:0.3;" x2="4.739" x1="6.239"/>
  <line y2="-33.634" y1="-35.412" style="fill:none;stroke:#000000;stroke-width:0.3;" x2="9.217" x1="10.047"/>
  <line y2="-47.344" y1="-45.525" style="fill:none;stroke:#000000;stroke-width:0.3;" x2="39.035" x1="39.489"/>
  <line y2="-41.896" y1="-40.275" style="fill:none;stroke:#000000;stroke-width:0.3;" x2="44.974" x1="45.989"/>
  <line y2="-49.526" y1="-47.905" style="fill:none;stroke:#000000;stroke-width:0.3;" x2="3.43" x1="4.446"/>
  <line y2="-43.176" y1="-44.93" style="fill:none;stroke:#000000;stroke-width:0.3;" x2="50.961" x1="50.082"/>
  <line y2="-36.275" y1="-37.271" style="fill:none;stroke:#000000;stroke-width:0.3;" x2="48.739" x1="50.328"/>
  <line y2="-48.655" y1="-49.651" style="fill:none;stroke:#000000;stroke-width:0.3;" x2="67.696" x1="69.284"/>
  <line y2="-39.332" y1="-39.123" style="fill:none;stroke:#000000;stroke-width:0.3;" x2="54.087" x1="55.989"/>
  <line y2="-21.655" y1="-22.512" style="fill:none;stroke:#000000;stroke-width:0.3;" x2="27.882" x1="29.593"/>
  <line y2="-61.125" y1="-62.879" style="fill:none;stroke:#000000;stroke-width:0.3;" x2="3.668" x1="2.789"/>
  <line y2="-57.281" y1="-57.072" style="fill:none;stroke:#000000;stroke-width:0.3;" x2="6.794" x1="8.696"/>
  <line y2="-21.749" y1="-23.275" style="fill:none;stroke:#000000;stroke-width:0.3;" x2="5.005" x1="6.239"/>
  <line y2="-18.954" y1="-19.052" style="fill:none;stroke:#000000;stroke-width:0.3;" x2="1.956" x1="3.829"/>
  <line y2="-14.912" y1="-13.805" style="fill:none;stroke:#000000;stroke-width:0.3;" x2="3.718" x1="5.279"/>
  <line y2="-9.63" y1="-11.155" style="fill:none;stroke:#000000;stroke-width:0.3;" x2="3.462" x1="4.696"/>
  <line y2="-1.744" y1="-3.27" style="fill:none;stroke:#000000;stroke-width:0.3;" x2="3.957" x1="5.191"/>
  <line y2="-5.805" y1="-5.903" style="fill:none;stroke:#000000;stroke-width:0.3;" x2="1.6" x1="3.472"/>
  <line y2="-3.412" y1="-2.305" style="fill:none;stroke:#000000;stroke-width:0.3;" x2="9.953" x1="11.513"/>
  <line y2="-25.387" y1="-25.78" style="fill:none;stroke:#000000;stroke-width:0.3;" x2="2.761" x1="4.633"/>
  <line y2="-33.877" y1="-35.655" style="fill:none;stroke:#000000;stroke-width:0.3;" x2="18.866" x1="19.696"/>
  <line y2="-33.283" y1="-32.655" style="fill:none;stroke:#000000;stroke-width:0.3;" x2="12.929" x1="14.696"/>
  <line y2="-17.025" y1="-16.397" style="fill:none;stroke:#000000;stroke-width:0.3;" x2="62.239" x1="64.006"/>
  <line y2="-41.902" y1="-41.275" style="fill:none;stroke:#000000;stroke-width:0.3;" x2="32.223" x1="33.989"/>
  <line y2="-27.812" y1="-26.191" style="fill:none;stroke:#000000;stroke-width:0.3;" x2="19.64" x1="20.656"/>
  <line y2="-28.777" y1="-29.169" style="fill:none;stroke:#000000;stroke-width:0.3;" x2="23.062" x1="24.934"/>
  <line y2="-48.525" y1="-50.482" style="fill:none;stroke:#000000;stroke-width:0.3;" x2="20.239" x1="20.375"/>
  <line y2="-43.225" y1="-43.275" style="fill:none;stroke:#000000;stroke-width:0.3;" x2="12.115" x1="13.989"/>
  <line y2="-40.655" y1="-39.508" style="fill:none;stroke:#000000;stroke-width:0.3;" x2="18.196" x1="19.727"/>
  <line y2="-45.06" y1="-46.1" style="fill:none;stroke:#000000;stroke-width:0.3;" x2="21.351" x1="22.957"/>
  <line y2="-33.985" y1="-35.025" style="fill:none;stroke:#000000;stroke-width:0.3;" x2="25.133" x1="26.739"/>
  <line y2="-27.688" y1="-29.382" style="fill:none;stroke:#000000;stroke-width:0.3;" x2="35.904" x1="36.893"/>
  <line y2="-41.58" y1="-43.275" style="fill:none;stroke:#000000;stroke-width:0.3;" x2="25" x1="25.989"/>
  <line y2="-25.561" y1="-24.775" style="fill:none;stroke:#000000;stroke-width:0.3;" x2="29.537" x1="31.239"/>
  <line y2="-22.732" y1="-21.025" style="fill:none;stroke:#000000;stroke-width:0.3;" x2="34.276" x1="35.14"/>
  <line y2="-73.725" y1="-75.558" style="fill:none;stroke:#000000;stroke-width:0.3;" x2="59.369" x1="60.306"/>
  <line y2="-68.405" y1="-67.155" style="fill:none;stroke:#000000;stroke-width:0.3;" x2="58.821" x1="60.196"/>
  <line y2="-71.155" y1="-71.592" style="fill:none;stroke:#000000;stroke-width:0.3;" x2="53.196" x1="51.133"/>
  <line y2="-19.205" y1="-20.893" style="fill:none;stroke:#000000;stroke-width:0.3;" x2="24.063" x1="22.813"/>
  <line y2="-12.238" y1="-13.697" style="fill:none;stroke:#000000;stroke-width:0.3;" x2="38.529" x1="39.842"/>
  <line y2="-6.322" y1="-7.78" style="fill:none;stroke:#000000;stroke-width:0.3;" x2="33.737" x1="35.05"/>
  <line y2="-17.83" y1="-17.455" style="fill:none;stroke:#000000;stroke-width:0.3;" x2="28.438" x1="26.397"/>
  <line y2="-15.16" y1="-13.578" style="fill:none;stroke:#000000;stroke-width:0.3;" x2="10.342" x1="8.999"/>
  <line y2="-13.08" y1="-13.08" style="fill:none;stroke:#000000;stroke-width:0.3;" x2="17.188" x1="19.063"/>
  <line y2="-20.441" y1="-22.275" style="fill:none;stroke:#000000;stroke-width:0.3;" x2="13.052" x1="13.989"/>
  <line y2="-16.58" y1="-15.33" style="fill:none;stroke:#000000;stroke-width:0.3;" x2="13.876" x1="15.251"/>
  <line y2="-8.592" y1="-7.405" style="fill:none;stroke:#000000;stroke-width:0.3;" x2="25.946" x1="27.446"/>
  <line y2="-9.858" y1="-11.636" style="fill:none;stroke:#000000;stroke-width:0.3;" x2="19.924" x1="20.754"/>
  <line y2="-13.655" y1="-15.433" style="fill:none;stroke:#000000;stroke-width:0.3;" x2="31.696" x1="32.526"/>
  <line y2="-7.214" y1="-8.44" style="fill:none;stroke:#000000;stroke-width:0.3;" x2="12.206" x1="13.625"/>
  <line y2="-3.243" y1="-1.622" style="fill:none;stroke:#000000;stroke-width:0.3;" x2="18.018" x1="19.034"/>
  <line y2="-1.713" y1="-3.238" style="fill:none;stroke:#000000;stroke-width:0.3;" x2="25.462" x1="26.696"/>
  <line y2="-5.908" y1="-6.3" style="fill:none;stroke:#000000;stroke-width:0.3;" x2="21.531" x1="23.404"/>
  <line y2="-22.643" y1="-23.455" style="fill:none;stroke:#000000;stroke-width:0.3;" x2="19.063" x1="17.126"/>
  <line y2="-19.143" y1="-19.58" style="fill:none;stroke:#000000;stroke-width:0.3;" x2="11.563" x1="9.501"/>
  <line y2="-78.842" y1="-80.53" style="fill:none;stroke:#000000;stroke-width:0.3;" x2="81.758" x1="80.508"/>
  <line y2="-73.634" y1="-75.092" style="fill:none;stroke:#000000;stroke-width:0.3;" x2="80.467" x1="81.779"/>
  <line y2="-68.967" y1="-70.426" style="fill:none;stroke:#000000;stroke-width:0.3;" x2="72.133" x1="73.446"/>
  <line y2="-72.28" y1="-72.28" style="fill:none;stroke:#000000;stroke-width:0.3;" x2="75.446" x1="77.321"/>
  <line y2="-79.034" y1="-80.868" style="fill:none;stroke:#000000;stroke-width:0.3;" x2="72.004" x1="72.941"/>
  <line y2="-75.78" y1="-74.53" style="fill:none;stroke:#000000;stroke-width:0.3;" x2="72.133" x1="73.508"/>
  <line y2="-70.967" y1="-69.78" style="fill:none;stroke:#000000;stroke-width:0.3;" x2="80.133" x1="81.633"/>
  <line y2="-67.28" y1="-69.057" style="fill:none;stroke:#000000;stroke-width:0.3;" x2="77.351" x1="78.181"/>
  <line y2="-66.627" y1="-65.999" style="fill:none;stroke:#000000;stroke-width:0.3;" x2="71.594" x1="73.361"/>
  <line y2="-62.443" y1="-60.822" style="fill:none;stroke:#000000;stroke-width:0.3;" x2="76.276" x1="77.292"/>
  <line y2="-58.028" y1="-58.126" style="fill:none;stroke:#000000;stroke-width:0.3;" x2="78.964" x1="80.836"/>
  <line y2="-54.311" y1="-55.836" style="fill:none;stroke:#000000;stroke-width:0.3;" x2="75.221" x1="76.455"/>
  <line y2="-46.775" y1="-48.3" style="fill:none;stroke:#000000;stroke-width:0.3;" x2="74.239" x1="75.474"/>
  <line y2="-51.965" y1="-52.064" style="fill:none;stroke:#000000;stroke-width:0.3;" x2="71.089" x1="72.961"/>
  <line y2="-51.006" y1="-49.899" style="fill:none;stroke:#000000;stroke-width:0.3;" x2="75.458" x1="77.018"/>
  <line y2="-64.087" y1="-64.479" style="fill:none;stroke:#000000;stroke-width:0.3;" x2="79.039" x1="80.911"/>
  <line y2="-79.3" y1="-80.113" style="fill:none;stroke:#000000;stroke-width:0.3;" x2="78.008" x1="76.071"/>
  <line y2="-77.592" y1="-78.03" style="fill:none;stroke:#000000;stroke-width:0.3;" x2="69.883" x1="67.821"/>
  <line y2="-45.003" y1="-45.396" style="fill:none;stroke:#000000;stroke-width:0.3;" x2="78.393" x1="80.266"/>
  <line y2="-78.661" y1="-80.349" style="fill:none;stroke:#000000;stroke-width:0.3;" x2="44.686" x1="43.436"/>
  <line y2="-74.066" y1="-75.525" style="fill:none;stroke:#000000;stroke-width:0.3;" x2="42.427" x1="43.739"/>
  <line y2="-69.224" y1="-70.682" style="fill:none;stroke:#000000;stroke-width:0.3;" x2="34.499" x1="35.811"/>
  <line y2="-77.286" y1="-76.911" style="fill:none;stroke:#000000;stroke-width:0.3;" x2="49.061" x1="47.02"/>
  <line y2="-72.536" y1="-72.536" style="fill:none;stroke:#000000;stroke-width:0.3;" x2="37.811" x1="39.686"/>
  <line y2="-78.987" y1="-80.953" style="fill:none;stroke:#000000;stroke-width:0.3;" x2="32.923" x1="32.311"/>
  <line y2="-76.036" y1="-74.786" style="fill:none;stroke:#000000;stroke-width:0.3;" x2="34.499" x1="35.874"/>
  <line y2="-67.462" y1="-66.275" style="fill:none;stroke:#000000;stroke-width:0.3;" x2="46.489" x1="47.989"/>
  <line y2="-69.314" y1="-71.091" style="fill:none;stroke:#000000;stroke-width:0.3;" x2="40.546" x1="41.377"/>
  <line y2="-72.247" y1="-74.025" style="fill:none;stroke:#000000;stroke-width:0.3;" x2="48.159" x1="48.989"/>
  <line y2="-66.884" y1="-66.256" style="fill:none;stroke:#000000;stroke-width:0.3;" x2="33.959" x1="35.726"/>
  <line y2="-60.63" y1="-62.155" style="fill:none;stroke:#000000;stroke-width:0.3;" x2="45.462" x1="46.696"/>
  <line y2="-55.676" y1="-54.943" style="fill:none;stroke:#000000;stroke-width:0.3;" x2="37.867" x1="39.593"/>
  <line y2="-50.891" y1="-50.989" style="fill:none;stroke:#000000;stroke-width:0.3;" x2="44.239" x1="46.112"/>
  <line y2="-64.718" y1="-65.111" style="fill:none;stroke:#000000;stroke-width:0.3;" x2="42.133" x1="44.006"/>
  <line y2="-77.759" y1="-78.572" style="fill:none;stroke:#000000;stroke-width:0.3;" x2="29.967" x1="28.029"/>
  <line y2="-62.715" y1="-62.814" style="fill:none;stroke:#000000;stroke-width:0.3;" x2="71.464" x1="73.336"/>
  <line y2="-68.337" y1="-67.229" style="fill:none;stroke:#000000;stroke-width:0.3;" x2="66.768" x1="68.328"/>
  <polyline points="39.226,-65.925 39.508,-63.926 37.593,-64.564   " style="fill:none;stroke:#000000;stroke-width:0.3;"/>
  <polyline points="25.119,-66.858 26.133,-65.113 24.119,-64.983   " style="fill:none;stroke:#000000;stroke-width:0.3;"/>
  <polyline points="59.094,-59.234 60.109,-57.488 58.094,-57.358   " style="fill:none;stroke:#000000;stroke-width:0.3;"/>
  <polyline points="17.077,-7.213 18.092,-5.468 16.077,-5.338   " style="fill:none;stroke:#000000;stroke-width:0.3;"/>
  <polyline points="70.556,-46.671 71.571,-44.926 69.556,-44.796   " style="fill:none;stroke:#000000;stroke-width:0.3;"/>
  <polyline points="46.056,-20.171 47.071,-18.426 45.056,-18.296   " style="fill:none;stroke:#000000;stroke-width:0.3;"/>
  <polyline points="22.806,-78.318 22.178,-80.236 24.175,-79.943   " style="fill:none;stroke:#000000;stroke-width:0.3;"/>
  <polyline points="31.006,-72.928 32.758,-71.926 31.08,-70.804   " style="fill:none;stroke:#000000;stroke-width:0.3;"/>
  <polyline points="56.413,-72.591 58.166,-71.589 56.487,-70.467   " style="fill:none;stroke:#000000;stroke-width:0.3;"/>
  <polyline points="18.582,-45.368 18.821,-43.363 16.92,-44.044   " style="fill:none;stroke:#000000;stroke-width:0.3;"/>
  <polyline points="72.433,-59.363 72.671,-57.359 70.771,-58.039   " style="fill:none;stroke:#000000;stroke-width:0.3;"/>
  <polyline points="44.082,-7.881 44.321,-5.877 42.42,-6.557   " style="fill:none;stroke:#000000;stroke-width:0.3;"/>
  <polyline points="64.251,-42.279 64.489,-40.275 62.589,-40.955   " style="fill:none;stroke:#000000;stroke-width:0.3;"/>
  <polyline points="65.082,-53.43 65.321,-51.426 63.42,-52.106   " style="fill:none;stroke:#000000;stroke-width:0.3;"/>
  <polyline points="50.251,-53.029 50.489,-51.025 48.589,-51.705   " style="fill:none;stroke:#000000;stroke-width:0.3;"/>
  <polyline points="5.246,-42.539 3.404,-43.363 4.963,-44.645   " style="fill:none;stroke:#000000;stroke-width:0.3;"/>
  <polyline points="18.488,-73.51 17.321,-71.863 16.368,-73.643   " style="fill:none;stroke:#000000;stroke-width:0.3;"/>
  <polyline points="32.921,-58.197 30.946,-58.613 32.199,-60.196   " style="fill:none;stroke:#000000;stroke-width:0.3;"/>
  <polyline points="37.711,-50.989 38.821,-52.676 39.835,-50.931   " style="fill:none;stroke:#000000;stroke-width:0.3;"/>
  <polyline points="31.451,-36.506 31.508,-34.488 29.677,-35.337   " style="fill:none;stroke:#000000;stroke-width:0.3;"/>
  <polyline points="52.014,-80.694 52.071,-78.676 50.239,-79.525   " style="fill:none;stroke:#000000;stroke-width:0.3;"/>
  <polyline points="70.764,-6.444 70.821,-4.426 68.989,-5.275   " style="fill:none;stroke:#000000;stroke-width:0.3;"/>
  <polyline points="17.975,-57.712 19.633,-58.863 19.924,-56.866   " style="fill:none;stroke:#000000;stroke-width:0.3;"/>
  <polyline points="10.627,-52.773 12.321,-51.676 10.583,-50.649   " style="fill:none;stroke:#000000;stroke-width:0.3;"/>
  <polyline points="31.064,-19.711 32.758,-18.613 31.021,-17.586   " style="fill:none;stroke:#000000;stroke-width:0.3;"/>
  <polyline points="26.039,-52.103 24.446,-50.863 24.047,-52.842   " style="fill:none;stroke:#000000;stroke-width:0.3;"/>
  <polyline points="78.321,-65.926 76.728,-64.687 76.329,-66.665   " style="fill:none;stroke:#000000;stroke-width:0.3;"/>
  <polyline points="52.539,-40.644 50.946,-39.405 50.547,-41.384   " style="fill:none;stroke:#000000;stroke-width:0.3;"/>
  <polyline points="45.989,-71.775 44.396,-70.535 43.997,-72.514   " style="fill:none;stroke:#000000;stroke-width:0.3;"/>
  <polyline points="4.106,-34.067 4.008,-32.051 2.247,-33.037   " style="fill:none;stroke:#000000;stroke-width:0.3;"/>
  <polyline points="50.837,-27.541 50.739,-25.525 48.978,-26.511   " style="fill:none;stroke:#000000;stroke-width:0.3;"/>
  <polyline points="10.508,-23.947 8.55,-24.436 9.862,-25.971   " style="fill:none;stroke:#000000;stroke-width:0.3;"/>
  <polyline points="59.239,-4.775 57.281,-5.264 58.593,-6.799   " style="fill:none;stroke:#000000;stroke-width:0.3;"/>
  <polyline points="18.922,-17.504 17.196,-18.551 18.903,-19.629   " style="fill:none;stroke:#000000;stroke-width:0.3;"/>
  <polyline points="77.465,-12.978 75.739,-14.025 77.446,-15.102   " style="fill:none;stroke:#000000;stroke-width:0.3;"/>
  <polyline points="58.797,-30.879 57.071,-31.926 58.778,-33.004   " style="fill:none;stroke:#000000;stroke-width:0.3;"/>
  <polyline points="23.321,-25.357 25.308,-25.711 24.739,-23.775   " style="fill:none;stroke:#000000;stroke-width:0.3;"/>
  <polyline points="80.75,-48.912 79.573,-50.551 81.565,-50.874   " style="fill:none;stroke:#000000;stroke-width:0.3;"/>
  <polyline points="5.762,-19.806 6.758,-18.051 4.743,-17.942   " style="fill:none;stroke:#000000;stroke-width:0.3;"/>
  <polyline points="80.027,-25.482 78.029,-25.197 78.665,-27.113   " style="fill:none;stroke:#000000;stroke-width:0.3;"/>
  <polyline points="39.551,-38.398 41.075,-39.721 41.58,-37.767   " style="fill:none;stroke:#000000;stroke-width:0.3;"/>
  <polyline points="67.48,-17.807 69.004,-19.13 69.508,-17.176   " style="fill:none;stroke:#000000;stroke-width:0.3;"/>
  <polyline points="56.609,-44.603 58.133,-45.926 58.638,-43.971   " style="fill:none;stroke:#000000;stroke-width:0.3;"/>
  <polyline points="44.071,-57.676 45.595,-58.999 46.1,-57.044   " style="fill:none;stroke:#000000;stroke-width:0.3;"/>
  <polyline points="36.776,-77.832 38.3,-79.155 38.804,-77.201   " style="fill:none;stroke:#000000;stroke-width:0.3;"/>
  <polyline points="22.701,-37.675 23.236,-39.622 24.739,-38.275   " style="fill:none;stroke:#000000;stroke-width:0.3;"/>
  <polyline points="62.782,-63.931 63.318,-65.877 64.821,-64.53   " style="fill:none;stroke:#000000;stroke-width:0.3;"/>
  <polyline points="34.701,-9.675 35.236,-11.622 36.739,-10.275   " style="fill:none;stroke:#000000;stroke-width:0.3;"/>
  <polyline points="43.243,-44.212 44.633,-45.676 45.323,-43.779   " style="fill:none;stroke:#000000;stroke-width:0.3;"/>
  <polyline points="10.953,-40.705 12.883,-40.113 11.493,-38.65   " style="fill:none;stroke:#000000;stroke-width:0.3;"/>
  <polyline points="62.891,-80.268 64.821,-79.676 63.431,-78.212   " style="fill:none;stroke:#000000;stroke-width:0.3;"/>
  <polyline points="78.208,-75.395 76.33,-74.655 76.505,-76.666   " style="fill:none;stroke:#000000;stroke-width:0.3;"/>
  <polyline points="49.891,-12.768 51.821,-12.176 50.431,-10.712   " style="fill:none;stroke:#000000;stroke-width:0.3;"/>
  <polyline points="24.829,-12.955 26.758,-12.363 25.368,-10.9   " style="fill:none;stroke:#000000;stroke-width:0.3;"/>
  <polyline points="77.266,-4.163 79.196,-3.572 77.806,-2.108   " style="fill:none;stroke:#000000;stroke-width:0.3;"/>
  <polyline points="4.794,-73.039 5.571,-71.176 3.557,-71.312   " style="fill:none;stroke:#000000;stroke-width:0.3;"/>
  <polyline points="10.052,-65.401 12.071,-65.426 11.193,-63.608   " style="fill:none;stroke:#000000;stroke-width:0.3;"/>
  <polyline points="3.053,-59.401 5.071,-59.426 4.193,-57.608   " style="fill:none;stroke:#000000;stroke-width:0.3;"/>
  <polyline points="18.571,-32.261 19.258,-30.363 17.253,-30.595   " style="fill:none;stroke:#000000;stroke-width:0.3;"/>
  <polyline points="69.884,-33.324 70.571,-31.426 68.566,-31.657   " style="fill:none;stroke:#000000;stroke-width:0.3;"/>
  <polyline points="65.134,-26.553 65.821,-24.655 63.816,-24.886   " style="fill:none;stroke:#000000;stroke-width:0.3;"/>
  <polyline points="38.148,-23.983 36.133,-24.113 37.148,-25.858   " style="fill:none;stroke:#000000;stroke-width:0.3;"/>
  <polyline points="31.425,-4.176 29.411,-4.306 30.425,-6.051   " style="fill:none;stroke:#000000;stroke-width:0.3;"/>
  <polyline points="58.835,-18.546 56.821,-18.676 57.836,-20.421   " style="fill:none;stroke:#000000;stroke-width:0.3;"/>
  <polyline points="8.056,-5.558 6.042,-5.688 7.057,-7.433   " style="fill:none;stroke:#000000;stroke-width:0.3;"/>
  <polyline points="32.458,-44.772 30.446,-44.613 31.201,-46.485   " style="fill:none;stroke:#000000;stroke-width:0.3;"/>
  <polyline points="70.455,-71.176 68.442,-71.017 69.198,-72.889   " style="fill:none;stroke:#000000;stroke-width:0.3;"/>
  <polyline points="51.489,-62.525 49.477,-62.366 50.232,-64.238   " style="fill:none;stroke:#000000;stroke-width:0.3;"/>
  <polyline points="14.271,-10.96 12.258,-10.801 13.014,-12.673   " style="fill:none;stroke:#000000;stroke-width:0.3;"/>
  <polyline points="78.571,-37.926 76.559,-37.767 77.314,-39.639   " style="fill:none;stroke:#000000;stroke-width:0.3;"/>
  <polyline points="66.738,-11.392 64.726,-11.233 65.481,-13.106   " style="fill:none;stroke:#000000;stroke-width:0.3;"/>
  <polyline points="44.277,-32.497 46.239,-32.025 44.941,-30.479   " style="fill:none;stroke:#000000;stroke-width:0.3;"/>
  <polyline points="12.72,-79.469 13.525,-81.321 14.823,-79.775   " style="fill:none;stroke:#000000;stroke-width:0.3;"/>
 </g>
</svg>
