<?xml version="1.0" encoding="utf-8"?>
<svg xmlns="http://www.w3.org/2000/svg" version="1.1" x="0px" y="0px" xml:space="preserve" width="60.479" height="60.479" viewBox="0.222 -60.555 60.479 60.479">
	<g>
		<rect x="0.222" y="-60.555" style="fill:none;" width="60.479" height="60.479"/>
		<path style="fill-rule:evenodd;clip-rule:evenodd;fill:none;stroke:#ED1B2E;stroke-width:0.5;" d="M3.108-47.872    c0.428,0.537,1.053,0.753,1.395,0.48c0.342-0.272,0.562-1.111,0.134-1.648c-0.428-0.538-1.342-0.571-1.685-0.299    C2.61-49.066,2.68-48.41,3.108-47.872z"/>

			<ellipse transform="matrix(0.3452 -0.9385 0.9385 0.3452 71.169 31.6262)" style="fill-rule:evenodd;clip-rule:evenodd;fill:none;stroke:#ED1B2E;stroke-width:0.5;" cx="58.25" cy="-35.191" rx="1.12" ry="0.713"/>

			<ellipse transform="matrix(0.3458 -0.9383 0.9383 0.3458 46.7315 19.64)" style="fill-rule:evenodd;clip-rule:evenodd;fill:none;stroke:#ED1B2E;stroke-width:0.5;" cx="37.45" cy="-23.691" rx="1.12" ry="0.712"/>
		<path style="fill-rule:evenodd;clip-rule:evenodd;fill:none;stroke:#ED1B2E;stroke-width:0.5;" d="M44.737-28.94    c0.517-0.144,0.299-0.785,0-1.4c-0.299-0.615-0.567-0.973-1.084-0.827c-0.519,0.143-0.694,0.76-0.395,1.375    C43.558-29.178,44.22-28.796,44.737-28.94z"/>

			<ellipse transform="matrix(0.5243 -0.8516 0.8516 0.5243 60.0202 -2.7662)" style="fill-rule:evenodd;clip-rule:evenodd;fill:none;stroke:#ED1B2E;stroke-width:0.5;" cx="27.534" cy="-55.101" rx="1.244" ry="0.792"/>

			<ellipse transform="matrix(0.5241 -0.8517 0.8517 0.5241 59.1351 27.6238)" style="fill-rule:evenodd;clip-rule:evenodd;fill:none;stroke:#ED1B2E;stroke-width:0.5;" cx="54.284" cy="-39.1" rx="1.245" ry="0.792"/>

			<ellipse transform="matrix(0.7943 -0.6075 0.6075 0.7943 25.6274 -3.2944)" style="fill-rule:evenodd;clip-rule:evenodd;fill:none;stroke:#ED1B2E;stroke-width:0.5;" cx="7.948" cy="-39.496" rx="1.245" ry="0.792"/>
		<path style="fill-rule:evenodd;clip-rule:evenodd;fill:none;stroke:#ED1B2E;stroke-width:0.5;" d="M9.401-51.476    c-0.373,0.229-0.783,0.765-0.424,1.351c0.358,0.587,0.951,0.877,1.324,0.649c0.373-0.227,0.458-1.113,0.1-1.7    C10.044-51.762,9.775-51.704,9.401-51.476z"/>

			<ellipse transform="matrix(0.3775 -0.926 0.926 0.3775 20.9241 -8.0613)" style="fill-rule:evenodd;clip-rule:evenodd;fill:none;stroke:#ED1B2E;stroke-width:0.5;" cx="4.467" cy="-19.593" rx="1.244" ry="0.792"/>

			<ellipse transform="matrix(0.6176 -0.7865 0.7865 0.6176 14.9731 5.4898)" style="fill-rule:evenodd;clip-rule:evenodd;fill:none;stroke:#ED1B2E;stroke-width:0.5;" cx="13.132" cy="-12.654" rx="1.244" ry="0.792"/>

			<ellipse transform="matrix(0.4863 -0.8738 0.8738 0.4863 41.587 9.6854)" style="fill-rule:evenodd;clip-rule:evenodd;fill:none;stroke:#ED1B2E;stroke-width:0.5;" cx="29.031" cy="-30.527" rx="1.244" ry="0.792"/>

			<ellipse transform="matrix(0.4868 -0.8735 0.8735 0.4868 40.5782 -4.4569)" style="fill-rule:evenodd;clip-rule:evenodd;fill:none;stroke:#ED1B2E;stroke-width:0.5;" cx="16.496" cy="-36.762" rx="1.245" ry="0.792"/>

			<ellipse transform="matrix(0.0124 -0.9999 0.9999 0.0124 43.1162 35.4845)" style="fill-rule:evenodd;clip-rule:evenodd;fill:none;stroke:#ED1B2E;stroke-width:0.5;" cx="39.521" cy="-4.084" rx="1.245" ry="0.792"/>

			<ellipse transform="matrix(0.9506 -0.3104 0.3104 0.9506 13.6221 4.5698)" style="fill-rule:evenodd;clip-rule:evenodd;fill:none;stroke:#ED1B2E;stroke-width:0.5;" cx="21.172" cy="-40.524" rx="0.792" ry="1.245"/>
		<path style="fill-rule:evenodd;clip-rule:evenodd;fill:none;stroke:#ED1B2E;stroke-width:0.5;" d="M8.536-56.94    c-0.335-0.601-1.328-0.887-1.711-0.675c-0.382,0.214-0.42,0.873-0.085,1.474c0.334,0.6,0.914,0.914,1.296,0.701    C8.419-55.653,8.87-56.34,8.536-56.94z"/>

			<ellipse transform="matrix(0.99 -0.1408 0.1408 0.99 6.9152 3.1892)" style="fill-rule:evenodd;clip-rule:evenodd;fill:none;stroke:#ED1B2E;stroke-width:0.5;" cx="25.996" cy="-47.276" rx="0.713" ry="1.12"/>

			<ellipse transform="matrix(0.1965 -0.9805 0.9805 0.1965 97.5206 16.259)" style="fill-rule:evenodd;clip-rule:evenodd;fill:none;stroke:#ED1B2E;stroke-width:0.5;" cx="58.681" cy="-51.374" rx="1.12" ry="0.713"/>

			<ellipse transform="matrix(0.0025 -1 1 0.0025 34.4618 10.7773)" style="fill-rule:evenodd;clip-rule:evenodd;fill:none;stroke:#ED1B2E;stroke-width:0.5;" cx="22.633" cy="-11.885" rx="1.244" ry="0.792"/>

			<ellipse transform="matrix(0.2527 -0.9676 0.9676 0.2527 39.7242 30.4711)" style="fill-rule:evenodd;clip-rule:evenodd;fill:none;stroke:#ED1B2E;stroke-width:0.5;" cx="39.587" cy="-10.48" rx="1.245" ry="0.792"/>

			<ellipse transform="matrix(0.3352 -0.9422 0.9422 0.3352 27.042 24.6959)" style="fill-rule:evenodd;clip-rule:evenodd;fill:none;stroke:#ED1B2E;stroke-width:0.5;" cx="31.02" cy="-6.813" rx="1.245" ry="0.792"/>

			<ellipse transform="matrix(0.9054 -0.4245 0.4245 0.9054 19.2312 -2.9806)" style="fill-rule:evenodd;clip-rule:evenodd;fill:none;stroke:#ED1B2E;stroke-width:0.5;" cx="2.925" cy="-44.656" rx="0.509" ry="0.713"/>

			<ellipse transform="matrix(0.1515 -0.9885 0.9885 0.1515 7.849 4.5828)" style="fill-rule:evenodd;clip-rule:evenodd;fill:none;stroke:#ED1B2E;stroke-width:0.5;" cx="6.594" cy="-2.28" rx="0.712" ry="0.509"/>

			<ellipse style="fill-rule:evenodd;clip-rule:evenodd;fill:none;stroke:#ED1B2E;stroke-width:0.5;" cx="4.302" cy="-13.238" rx="0.508" ry="0.713"/>

			<ellipse style="fill-rule:evenodd;clip-rule:evenodd;fill:none;stroke:#ED1B2E;stroke-width:0.5;" cx="25.101" cy="-42.788" rx="0.509" ry="0.712"/>

			<ellipse style="fill-rule:evenodd;clip-rule:evenodd;fill:none;stroke:#ED1B2E;stroke-width:0.5;" cx="18.002" cy="-58.688" rx="0.509" ry="0.712"/>

			<ellipse style="fill-rule:evenodd;clip-rule:evenodd;fill:none;stroke:#ED1B2E;stroke-width:0.5;" cx="56.636" cy="-22.653" rx="0.509" ry="0.712"/>

			<ellipse style="fill-rule:evenodd;clip-rule:evenodd;fill:none;stroke:#ED1B2E;stroke-width:0.5;" cx="45.237" cy="-25.252" rx="0.509" ry="0.713"/>

			<ellipse style="fill-rule:evenodd;clip-rule:evenodd;fill:none;stroke:#ED1B2E;stroke-width:0.5;" cx="32.636" cy="-2.653" rx="0.509" ry="0.713"/>

			<ellipse style="fill-rule:evenodd;clip-rule:evenodd;fill:none;stroke:#ED1B2E;stroke-width:0.5;" cx="19.701" cy="-33.188" rx="0.509" ry="0.712"/>

			<ellipse style="fill-rule:evenodd;clip-rule:evenodd;fill:none;stroke:#ED1B2E;stroke-width:0.5;" cx="42.536" cy="-36.254" rx="0.509" ry="0.713"/>

			<ellipse transform="matrix(0.4812 -0.8766 0.8766 0.4812 51.0464 5.2505)" style="fill-rule:evenodd;clip-rule:evenodd;fill:none;stroke:#ED1B2E;stroke-width:0.5;" cx="29.959" cy="-40.5" rx="0.712" ry="0.509"/>

			<ellipse style="fill-rule:evenodd;clip-rule:evenodd;fill:none;stroke:#ED1B2E;stroke-width:0.5;" cx="38.336" cy="-31.853" rx="0.509" ry="0.713"/>

			<ellipse style="fill-rule:evenodd;clip-rule:evenodd;fill:none;stroke:#ED1B2E;stroke-width:0.5;" cx="37.451" cy="-55.688" rx="0.509" ry="0.712"/>

			<ellipse style="fill-rule:evenodd;clip-rule:evenodd;fill:none;stroke:#ED1B2E;stroke-width:0.5;" cx="10.077" cy="-22.541" rx="0.508" ry="0.712"/>

			<ellipse style="fill-rule:evenodd;clip-rule:evenodd;fill:none;stroke:#ED1B2E;stroke-width:0.5;" cx="25.901" cy="-26.788" rx="0.509" ry="0.713"/>

			<ellipse transform="matrix(0.1911 -0.9816 0.9816 0.1911 46.8235 34.8665)" style="fill-rule:evenodd;clip-rule:evenodd;fill:none;stroke:#ED1B2E;stroke-width:0.5;" cx="44.566" cy="-10.975" rx="0.713" ry="0.509"/>

			<ellipse style="fill-rule:evenodd;clip-rule:evenodd;fill:none;stroke:#ED1B2E;stroke-width:0.5;" cx="43.302" cy="-42.188" rx="0.508" ry="0.712"/>

			<ellipse style="fill-rule:evenodd;clip-rule:evenodd;fill:none;stroke:#ED1B2E;stroke-width:0.5;" cx="36.902" cy="-43.788" rx="0.508" ry="0.713"/>

			<ellipse transform="matrix(0.2063 -0.9785 0.9785 0.2063 70.4117 5.7893)" style="fill-rule:evenodd;clip-rule:evenodd;fill:none;stroke:#ED1B2E;stroke-width:0.5;" cx="38.774" cy="-40.507" rx="0.784" ry="0.561"/>

			<ellipse transform="matrix(0.3454 -0.9385 0.9385 0.3454 89.4825 18.2606)" style="fill-rule:evenodd;clip-rule:evenodd;fill:none;stroke:#ED1B2E;stroke-width:0.5;" cx="57.831" cy="-55.012" rx="0.784" ry="0.56"/>

			<ellipse transform="matrix(0.2069 -0.9784 0.9784 0.2069 72.1846 -10.5681)" style="fill-rule:evenodd;clip-rule:evenodd;fill:none;stroke:#ED1B2E;stroke-width:0.5;" cx="29.574" cy="-49.807" rx="0.784" ry="0.559"/>

			<ellipse transform="matrix(0.2072 -0.9783 0.9783 0.2072 58.0505 17.4206)" style="fill-rule:evenodd;clip-rule:evenodd;fill:none;stroke:#ED1B2E;stroke-width:0.5;" cx="39.774" cy="-27.107" rx="0.785" ry="0.56"/>
		<path style="fill-rule:evenodd;clip-rule:evenodd;fill:none;stroke:#ED1B2E;stroke-width:0.5;" d="M6.05-33.317    c0.421-0.065,0.66-0.476,0.535-0.916c-0.124-0.44-0.566-0.743-0.985-0.675c-0.421,0.065-0.661,0.476-0.535,0.916    C5.188-33.553,5.629-33.249,6.05-33.317z"/>

			<ellipse transform="matrix(0.4138 -0.9104 0.9104 0.4138 69.4198 8.56)" style="fill-rule:evenodd;clip-rule:evenodd;fill:none;stroke:#ED1B2E;stroke-width:0.5;" cx="41.357" cy="-49.624" rx="0.713" ry="0.509"/>

			<ellipse style="fill-rule:evenodd;clip-rule:evenodd;fill:none;stroke:#ED1B2E;stroke-width:0.5;" cx="13.136" cy="-52.953" rx="0.509" ry="0.713"/>

			<ellipse style="fill-rule:evenodd;clip-rule:evenodd;fill:none;stroke:#ED1B2E;stroke-width:0.5;" cx="49.101" cy="-30.788" rx="0.509" ry="0.712"/>

			<ellipse style="fill-rule:evenodd;clip-rule:evenodd;fill:none;stroke:#ED1B2E;stroke-width:0.5;" cx="58.337" cy="-13.252" rx="0.508" ry="0.713"/>

			<ellipse style="fill-rule:evenodd;clip-rule:evenodd;fill:none;stroke:#ED1B2E;stroke-width:0.5;" cx="32.487" cy="-16.503" rx="0.509" ry="0.712"/>

			<ellipse transform="matrix(0.1979 -0.9802 0.9802 0.1979 95.1894 4.2555)" style="fill-rule:evenodd;clip-rule:evenodd;fill:none;stroke:#ED1B2E;stroke-width:0.5;" cx="50.195" cy="-56.039" rx="0.713" ry="0.509"/>

			<ellipse transform="matrix(0.1979 -0.9802 0.9802 0.1979 64.2682 6.5895)" style="fill-rule:evenodd;clip-rule:evenodd;fill:none;stroke:#ED1B2E;stroke-width:0.5;" cx="36.16" cy="-35.975" rx="0.713" ry="0.509"/>

			<ellipse style="fill-rule:evenodd;clip-rule:evenodd;fill:none;stroke:#ED1B2E;stroke-width:0.5;" cx="28.737" cy="-21.303" rx="0.509" ry="0.712"/>

			<ellipse style="fill-rule:evenodd;clip-rule:evenodd;fill:none;stroke:#ED1B2E;stroke-width:0.5;" cx="6.777" cy="-25.841" rx="0.509" ry="0.712"/>

			<ellipse style="fill-rule:evenodd;clip-rule:evenodd;fill:none;stroke:#ED1B2E;stroke-width:0.5;" cx="17.793" cy="-16.076" rx="0.509" ry="0.713"/>

			<ellipse style="fill-rule:evenodd;clip-rule:evenodd;fill:none;stroke:#ED1B2E;stroke-width:0.5;" cx="48.237" cy="-19.454" rx="0.509" ry="0.713"/>

			<ellipse transform="matrix(0.3009 -0.9536 0.9536 0.3009 62.6516 33.9572)" style="fill-rule:evenodd;clip-rule:evenodd;fill:none;stroke:#ED1B2E;stroke-width:0.5;" cx="54.488" cy="-25.755" rx="0.713" ry="0.509"/>

			<ellipse style="fill-rule:evenodd;clip-rule:evenodd;fill:none;stroke:#ED1B2E;stroke-width:0.5;" cx="16.744" cy="-42.721" rx="0.708" ry="0.99"/>

			<ellipse transform="matrix(0.0146 -0.9999 0.9999 0.0146 82.6607 25.1458)" style="fill-rule:evenodd;clip-rule:evenodd;fill:none;stroke:#ED1B2E;stroke-width:0.5;" cx="54.088" cy="-29.366" rx="0.892" ry="0.636"/>
		<path style="fill-rule:evenodd;clip-rule:evenodd;fill:none;stroke:#ED1B2E;stroke-width:0.5;" d="M18.487-5.994    c0.302,0.495,0.847,0.727,1.214,0.519c0.369-0.208,0.421-0.777,0.117-1.272c-0.304-0.495-0.849-0.727-1.216-0.519    C18.235-7.058,18.184-6.488,18.487-5.994z"/>
		<path style="fill-rule:evenodd;clip-rule:evenodd;fill:none;stroke:#ED1B2E;stroke-width:0.5;" d="M34.267-21.123    c-0.138-0.625-0.556-0.998-0.932-0.833c-0.378,0.165-0.57,0.807-0.431,1.433c0.139,0.624,0.556,0.998,0.932,0.833    C34.214-19.855,34.405-20.497,34.267-21.123z"/>
		<path style="fill-rule:evenodd;clip-rule:evenodd;fill:none;stroke:#ED1B2E;stroke-width:0.5;" d="M49.733-26.006    c-0.376,0.165-0.569,0.808-0.43,1.432c0.14,0.626,0.557,0.999,0.933,0.834c0.378-0.166,0.569-0.807,0.432-1.433    C50.528-25.799,50.11-26.171,49.733-26.006z"/>
		<path style="fill-rule:evenodd;clip-rule:evenodd;fill:none;stroke:#ED1B2E;stroke-width:0.5;" d="M57.552-17.088    c0.173,0.557,0.555,0.861,0.852,0.678c0.295-0.184,0.393-0.784,0.219-1.34c-0.174-0.558-0.557-0.861-0.852-0.679    C57.474-18.244,57.377-17.645,57.552-17.088z"/>

			<ellipse transform="matrix(0.5539 -0.8326 0.8326 0.5539 48.8316 11.0078)" style="fill-rule:evenodd;clip-rule:evenodd;fill:none;stroke:#ED1B2E;stroke-width:0.5;" cx="34.688" cy="-40.064" rx="0.99" ry="0.707"/>

			<ellipse transform="matrix(0.5545 -0.8322 0.8322 0.5545 53.404 21.8265)" style="fill-rule:evenodd;clip-rule:evenodd;fill:none;stroke:#ED1B2E;stroke-width:0.5;" cx="47.087" cy="-38.965" rx="0.99" ry="0.707"/>

			<ellipse transform="matrix(0.9899 -0.142 0.142 0.9899 8.7388 6.0271)" style="fill-rule:evenodd;clip-rule:evenodd;fill:none;stroke:#ED1B2E;stroke-width:0.5;" cx="46.592" cy="-58.206" rx="0.707" ry="0.99"/>

			<ellipse transform="matrix(0.554 -0.8325 0.8325 0.554 62.0525 27.7079)" style="fill-rule:evenodd;clip-rule:evenodd;fill:none;stroke:#ED1B2E;stroke-width:0.5;" cx="56.888" cy="-44.064" rx="0.99" ry="0.707"/>

			<ellipse transform="matrix(0.5537 -0.8327 0.8327 0.5537 57.2748 14.7389)" style="fill-rule:evenodd;clip-rule:evenodd;fill:none;stroke:#ED1B2E;stroke-width:0.5;" cx="42.388" cy="-46.064" rx="0.99" ry="0.707"/>

			<ellipse transform="matrix(0.3728 -0.9279 0.9279 0.3728 70.9514 2.7802)" style="fill-rule:evenodd;clip-rule:evenodd;fill:none;stroke:#ED1B2E;stroke-width:0.5;" cx="37.532" cy="-51.094" rx="0.99" ry="0.707"/>

			<ellipse transform="matrix(0.554 -0.8325 0.8325 0.554 62.5509 1.369)" style="fill-rule:evenodd;clip-rule:evenodd;fill:none;stroke:#ED1B2E;stroke-width:0.5;" cx="32.553" cy="-57.699" rx="0.99" ry="0.707"/>

			<ellipse transform="matrix(0.5544 -0.8323 0.8323 0.5544 58.3313 -6.1874)" style="fill-rule:evenodd;clip-rule:evenodd;fill:none;stroke:#ED1B2E;stroke-width:0.5;" cx="23.388" cy="-57.564" rx="0.99" ry="0.706"/>

			<ellipse transform="matrix(0.5549 -0.8319 0.8319 0.5549 50.9629 -23.252)" style="fill-rule:evenodd;clip-rule:evenodd;fill:none;stroke:#ED1B2E;stroke-width:0.5;" cx="3.753" cy="-59.25" rx="0.99" ry="0.707"/>

			<ellipse style="fill-rule:evenodd;clip-rule:evenodd;fill:none;stroke:#ED1B2E;stroke-width:0.5;" cx="31.037" cy="-36.73" rx="0.707" ry="0.99"/>

			<ellipse style="fill-rule:evenodd;clip-rule:evenodd;fill:none;stroke:#ED1B2E;stroke-width:0.5;" cx="17.036" cy="-54.93" rx="0.708" ry="0.99"/>
		<path style="fill-rule:evenodd;clip-rule:evenodd;fill:none;stroke:#ED1B2E;stroke-width:0.5;" d="M13.802-57.076    c0-0.546-0.31-1.579-0.701-1.579c-0.39,0-0.706,0.443-0.706,0.99c0,0.547,0.316,0.989,0.706,0.989    C13.492-56.676,13.802-56.529,13.802-57.076z"/>

			<ellipse style="fill-rule:evenodd;clip-rule:evenodd;fill:none;stroke:#ED1B2E;stroke-width:0.5;" cx="53.737" cy="-19.43" rx="0.707" ry="0.99"/>

			<ellipse style="fill-rule:evenodd;clip-rule:evenodd;fill:none;stroke:#ED1B2E;stroke-width:0.5;" cx="53.336" cy="-34.73" rx="0.707" ry="0.99"/>

			<ellipse style="fill-rule:evenodd;clip-rule:evenodd;fill:none;stroke:#ED1B2E;stroke-width:0.5;" cx="24.237" cy="-22.63" rx="0.708" ry="0.99"/>

			<ellipse transform="matrix(0.1885 -0.9821 0.9821 0.1885 41.5388 37.6473)" style="fill-rule:evenodd;clip-rule:evenodd;fill:none;stroke:#ED1B2E;stroke-width:0.5;" cx="43.551" cy="-6.312" rx="0.99" ry="0.707"/>

			<ellipse style="fill-rule:evenodd;clip-rule:evenodd;fill:none;stroke:#ED1B2E;stroke-width:0.5;" cx="20.036" cy="-19.93" rx="0.708" ry="0.99"/>

			<ellipse transform="matrix(0.3957 -0.9184 0.9184 0.3957 30.813 1.6292)" style="fill-rule:evenodd;clip-rule:evenodd;fill:none;stroke:#ED1B2E;stroke-width:0.5;" cx="16.645" cy="-22.599" rx="0.99" ry="0.707"/>

			<ellipse transform="matrix(0.3958 -0.9184 0.9184 0.3958 60.0467 1.6926)" style="fill-rule:evenodd;clip-rule:evenodd;fill:none;stroke:#ED1B2E;stroke-width:0.5;" cx="31.31" cy="-44.785" rx="0.989" ry="0.707"/>

			<ellipse transform="matrix(0.3962 -0.9182 0.9182 0.3962 51.9819 -28.1207)" style="fill-rule:evenodd;clip-rule:evenodd;fill:none;stroke:#ED1B2E;stroke-width:0.5;" cx="4.609" cy="-53.585" rx="0.989" ry="0.707"/>

			<ellipse style="fill-rule:evenodd;clip-rule:evenodd;fill:none;stroke:#ED1B2E;stroke-width:0.5;" cx="33.302" cy="-11.866" rx="0.707" ry="0.99"/>

			<ellipse transform="matrix(0.2837 -0.9589 0.9589 0.2837 14.964 15.052)" style="fill-rule:evenodd;clip-rule:evenodd;fill:none;stroke:#ED1B2E;stroke-width:0.5;" cx="17.557" cy="-2.49" rx="0.99" ry="0.707"/>

			<ellipse style="fill-rule:evenodd;clip-rule:evenodd;fill:none;stroke:#ED1B2E;stroke-width:0.5;" cx="55.136" cy="-4.48" rx="0.707" ry="0.99"/>

			<ellipse transform="matrix(0.5139 -0.8579 0.8579 0.5139 39.071 36.8316)" style="fill-rule:evenodd;clip-rule:evenodd;fill:none;stroke:#ED1B2E;stroke-width:0.5;" cx="52.033" cy="-16.058" rx="0.912" ry="0.684"/>

			<ellipse transform="matrix(0.514 -0.8578 0.8578 0.514 36.9907 24.4444)" style="fill-rule:evenodd;clip-rule:evenodd;fill:none;stroke:#ED1B2E;stroke-width:0.5;" cx="40.068" cy="-20.423" rx="0.912" ry="0.685"/>

			<ellipse transform="matrix(0.0749 -0.9972 0.9972 0.0749 56.5707 57.4823)" style="fill-rule:evenodd;clip-rule:evenodd;fill:none;stroke:#ED1B2E;stroke-width:0.5;" cx="59.268" cy="-1.75" rx="0.912" ry="0.685"/>

			<ellipse transform="matrix(0.5133 -0.8582 0.8582 0.5133 13.5739 8.2189)" style="fill-rule:evenodd;clip-rule:evenodd;fill:none;stroke:#ED1B2E;stroke-width:0.5;" cx="14.033" cy="-7.858" rx="0.911" ry="0.685"/>

			<ellipse transform="matrix(0.5134 -0.8582 0.8582 0.5134 39.8649 6.1521)" style="fill-rule:evenodd;clip-rule:evenodd;fill:none;stroke:#ED1B2E;stroke-width:0.5;" cx="25.357" cy="-32.074" rx="0.739" ry="0.555"/>

			<ellipse transform="matrix(0.5138 -0.8579 0.8579 0.5138 34.0044 -2.6459)" style="fill-rule:evenodd;clip-rule:evenodd;fill:none;stroke:#ED1B2E;stroke-width:0.5;" cx="14.668" cy="-31.323" rx="0.912" ry="0.684"/>

			<ellipse transform="matrix(0.5132 -0.8583 0.8583 0.5132 50.0418 -5.8852)" style="fill-rule:evenodd;clip-rule:evenodd;fill:none;stroke:#ED1B2E;stroke-width:0.5;" cx="19.833" cy="-47.058" rx="0.912" ry="0.685"/>

			<ellipse transform="matrix(0.5141 -0.8577 0.8577 0.5141 30.3127 -7.2381)" style="fill-rule:evenodd;clip-rule:evenodd;fill:none;stroke:#ED1B2E;stroke-width:0.5;" cx="8.768" cy="-30.373" rx="0.912" ry="0.685"/>

			<ellipse transform="matrix(0.5135 -0.8581 0.8581 0.5135 43.5513 -15.6957)" style="fill-rule:evenodd;clip-rule:evenodd;fill:none;stroke:#ED1B2E;stroke-width:0.5;" cx="7.933" cy="-46.258" rx="0.912" ry="0.685"/>

			<ellipse transform="matrix(0.2411 -0.9705 0.9705 0.2411 33.5185 29.6547)" style="fill-rule:evenodd;clip-rule:evenodd;fill:none;stroke:#ED1B2E;stroke-width:0.5;" cx="35.721" cy="-6.605" rx="0.892" ry="0.636"/>

			<ellipse transform="matrix(0.241 -0.9705 0.9705 0.241 9.339 -1.5383)" style="fill-rule:evenodd;clip-rule:evenodd;fill:none;stroke:#ED1B2E;stroke-width:0.5;" cx="3.686" cy="-6.74" rx="0.891" ry="0.636"/>

			<ellipse transform="matrix(0.9797 -0.2006 0.2006 0.9797 2.9325 11.2158)" style="fill-rule:evenodd;clip-rule:evenodd;fill:none;stroke:#ED1B2E;stroke-width:0.5;" cx="56.814" cy="-8.863" rx="0.637" ry="0.891"/>

			<ellipse transform="matrix(0.3072 -0.9516 0.9516 0.3072 4.2375 -0.2145)" style="fill-rule:evenodd;clip-rule:evenodd;fill:none;stroke:#ED1B2E;stroke-width:0.5;" cx="1.971" cy="-3.018" rx="0.891" ry="0.636"/>

			<ellipse transform="matrix(0.2409 -0.9706 0.9706 0.2409 12.8497 3.1473)" style="fill-rule:evenodd;clip-rule:evenodd;fill:none;stroke:#ED1B2E;stroke-width:0.5;" cx="8.437" cy="-6.641" rx="0.892" ry="0.636"/>

			<ellipse transform="matrix(0.2424 -0.9702 0.9702 0.2424 37.9719 -4.7867)" style="fill-rule:evenodd;clip-rule:evenodd;fill:none;stroke:#ED1B2E;stroke-width:0.5;" cx="15.921" cy="-26.705" rx="0.891" ry="0.637"/>

			<ellipse transform="matrix(0.2416 -0.9704 0.9704 0.2416 49.4811 -20.5545)" style="fill-rule:evenodd;clip-rule:evenodd;fill:none;stroke:#ED1B2E;stroke-width:0.5;" cx="11.59" cy="-41.934" rx="0.891" ry="0.637"/>

			<ellipse transform="matrix(0.5557 -0.8314 0.8314 0.5557 32.8709 -14.1558)" style="fill-rule:evenodd;clip-rule:evenodd;fill:none;stroke:#ED1B2E;stroke-width:0.5;" cx="3.191" cy="-37.832" rx="0.891" ry="0.636"/>

			<ellipse transform="matrix(0.0345 -0.9994 0.9994 0.0345 24.3328 21.5251)" style="fill-rule:evenodd;clip-rule:evenodd;fill:none;stroke:#ED1B2E;stroke-width:0.5;" cx="23.307" cy="-1.831" rx="0.891" ry="0.637"/>

			<ellipse transform="matrix(0.9968 -0.0798 0.0798 0.9968 3.9136 2.6367)" style="fill-rule:evenodd;clip-rule:evenodd;fill:none;stroke:#ED1B2E;stroke-width:0.5;" cx="34.966" cy="-47.675" rx="0.572" ry="0.802"/>

			<ellipse transform="matrix(0.4669 -0.8843 0.8843 0.4669 74.1767 4.5498)" style="fill-rule:evenodd;clip-rule:evenodd;fill:none;stroke:#ED1B2E;stroke-width:0.5;" cx="40.862" cy="-59.25" rx="0.802" ry="0.573"/>

			<ellipse transform="matrix(0.2424 -0.9702 0.9702 0.2424 78.4608 10.6397)" style="fill-rule:evenodd;clip-rule:evenodd;fill:none;stroke:#ED1B2E;stroke-width:0.5;" cx="46.043" cy="-44.918" rx="0.802" ry="0.573"/>

			<ellipse transform="matrix(0.0801 -0.9968 0.9968 0.0801 51.6601 44.6531)" style="fill-rule:evenodd;clip-rule:evenodd;fill:none;stroke:#ED1B2E;stroke-width:0.5;" cx="50.022" cy="-5.662" rx="0.989" ry="0.707"/>

			<ellipse transform="matrix(0.2694 -0.963 0.963 0.2694 23.8844 22.8244)" style="fill-rule:evenodd;clip-rule:evenodd;fill:none;stroke:#ED1B2E;stroke-width:0.5;" cx="26.985" cy="-4.329" rx="0.99" ry="0.707"/>
		<path style="fill-rule:evenodd;clip-rule:evenodd;fill:none;stroke:#ED1B2E;stroke-width:0.5;" d="M22.454-35.265    c0,0.546,0.379,0.989,0.847,0.989c0.469,0,0.849-0.443,0.849-0.989c0-0.548-0.779-1.211-1.248-1.211    C22.434-36.476,22.454-35.812,22.454-35.265z"/>
		<path style="fill-rule:evenodd;clip-rule:evenodd;fill:none;stroke:#ED1B2E;stroke-width:0.5;" d="M27.385-38.506    c0-0.547-0.58-1.635-1.049-1.635c-0.468,0-0.647,1.088-0.647,1.635c0,0.547,0.379,0.991,0.848,0.991    C27.005-37.515,27.385-37.959,27.385-38.506z"/>
		<path style="fill-rule:evenodd;clip-rule:evenodd;fill:none;stroke:#ED1B2E;stroke-width:0.5;" d="M56.013-59.403    c-0.498-0.225-1.059-0.061-1.252,0.366c-0.191,0.428,0.056,0.956,0.555,1.181c0.498,0.225,1.729,0.144,1.921-0.284    C57.43-58.567,56.511-59.179,56.013-59.403z"/>

			<ellipse style="fill-rule:evenodd;clip-rule:evenodd;fill:none;stroke:#ED1B2E;stroke-width:0.5;" cx="13.437" cy="-3.832" rx="0.764" ry="0.892"/>

			<ellipse style="fill-rule:evenodd;clip-rule:evenodd;fill:none;stroke:#ED1B2E;stroke-width:0.5;" cx="46.737" cy="-34.132" rx="0.763" ry="0.891"/>

			<ellipse style="fill-rule:evenodd;clip-rule:evenodd;fill:none;stroke:#ED1B2E;stroke-width:0.5;" cx="43.302" cy="-55.567" rx="0.764" ry="0.891"/>

			<ellipse style="fill-rule:evenodd;clip-rule:evenodd;fill:none;stroke:#ED1B2E;stroke-width:0.5;" cx="53.202" cy="-53.467" rx="0.764" ry="0.891"/>

			<ellipse style="fill-rule:evenodd;clip-rule:evenodd;fill:none;stroke:#ED1B2E;stroke-width:0.5;" cx="32.537" cy="-53.342" rx="0.688" ry="0.802"/>

			<ellipse transform="matrix(0.3738 -0.9275 0.9275 0.3738 22.1524 -1.7195)" style="fill-rule:evenodd;clip-rule:evenodd;fill:none;stroke:#ED1B2E;stroke-width:0.5;" cx="9.803" cy="-17.266" rx="0.891" ry="0.763"/>

			<ellipse transform="matrix(0.6422 -0.7666 0.7666 0.6422 24.3871 -0.5536)" style="fill-rule:evenodd;clip-rule:evenodd;fill:none;stroke:#ED1B2E;stroke-width:0.5;" cx="11.601" cy="-26.399" rx="0.99" ry="0.566"/>

			<ellipse transform="matrix(0.2922 -0.9564 0.9564 0.2922 31.2835 -19.9943)" style="fill-rule:evenodd;clip-rule:evenodd;fill:none;stroke:#ED1B2E;stroke-width:0.5;" cx="2.134" cy="-31.132" rx="1.036" ry="0.622"/>

			<ellipse transform="matrix(0.5364 -0.844 0.844 0.5364 66.7282 24.3249)" style="fill-rule:evenodd;clip-rule:evenodd;fill:none;stroke:#ED1B2E;stroke-width:0.5;" cx="55.505" cy="-48.575" rx="0.989" ry="0.565"/>

			<ellipse transform="matrix(0.2265 -0.974 0.974 0.2265 27.915 -0.1271)" style="fill-rule:evenodd;clip-rule:evenodd;fill:none;stroke:#ED1B2E;stroke-width:0.5;" cx="13.877" cy="-17.639" rx="0.99" ry="0.566"/>

			<ellipse transform="matrix(0.2258 -0.9742 0.9742 0.2258 31.6522 17.6203)" style="fill-rule:evenodd;clip-rule:evenodd;fill:none;stroke:#ED1B2E;stroke-width:0.5;" cx="26.912" cy="-11.104" rx="0.99" ry="0.566"/>

			<ellipse transform="matrix(0.2262 -0.9741 0.9741 0.2262 48.6158 30.9888)" style="fill-rule:evenodd;clip-rule:evenodd;fill:none;stroke:#ED1B2E;stroke-width:0.5;" cx="43.812" cy="-15.105" rx="0.99" ry="0.565"/>

			<ellipse transform="matrix(0.2262 -0.9741 0.9741 0.2262 50.234 43.5258)" style="fill-rule:evenodd;clip-rule:evenodd;fill:none;stroke:#ED1B2E;stroke-width:0.5;" cx="52.512" cy="-9.855" rx="0.99" ry="0.565"/>

			<ellipse transform="matrix(0.2269 -0.9739 0.9739 0.2269 38.4948 44.8163)" style="fill-rule:evenodd;clip-rule:evenodd;fill:none;stroke:#ED1B2E;stroke-width:0.5;" cx="47.477" cy="-1.84" rx="0.99" ry="0.566"/>

			<ellipse transform="matrix(0.4616 -0.8871 0.8871 0.4616 66.263 22.2356)" style="fill-rule:evenodd;clip-rule:evenodd;fill:none;stroke:#ED1B2E;stroke-width:0.5;" cx="51.449" cy="-43.47" rx="1.273" ry="0.637"/>

			<ellipse transform="matrix(0.461 -0.8874 0.8874 0.461 45.8015 14.4223)" style="fill-rule:evenodd;clip-rule:evenodd;fill:none;stroke:#ED1B2E;stroke-width:0.5;" cx="34.773" cy="-30.492" rx="1.145" ry="0.573"/>

			<ellipse transform="matrix(0.4621 -0.8868 0.8868 0.4621 58.7236 -8.963)" style="fill-rule:evenodd;clip-rule:evenodd;fill:none;stroke:#ED1B2E;stroke-width:0.5;" cx="21.973" cy="-52.892" rx="1.145" ry="0.573"/>

			<ellipse transform="matrix(0.4616 -0.8871 0.8871 0.4616 70.5468 18.6218)" style="fill-rule:evenodd;clip-rule:evenodd;fill:none;stroke:#ED1B2E;stroke-width:0.5;" cx="50.614" cy="-48.805" rx="1.273" ry="0.637"/>
		<path style="fill-rule:evenodd;clip-rule:evenodd;fill:none;stroke:#ED1B2E;stroke-width:0.5;" d="M45.262-52.176    c-0.26-0.498-0.851-0.736-1.101-0.606c-0.248,0.13-0.241,0.64,0.02,1.138c0.259,0.5,0.672,0.799,0.921,0.669    C46.216-51.555,45.559-51.604,45.262-52.176z"/>

			<ellipse transform="matrix(0.1845 -0.9828 0.9828 0.1845 38.1682 9.2545)" style="fill-rule:evenodd;clip-rule:evenodd;fill:none;stroke:#ED1B2E;stroke-width:0.5;" cx="24.661" cy="-18.373" rx="1.273" ry="0.636"/>

			<ellipse transform="matrix(0.4619 -0.8869 0.8869 0.4619 39.7371 13.8877)" style="fill-rule:evenodd;clip-rule:evenodd;fill:none;stroke:#ED1B2E;stroke-width:0.5;" cx="31.314" cy="-25.804" rx="1.273" ry="0.637"/>

			<ellipse transform="matrix(0.0821 -0.9966 0.9966 0.0821 19.8889 -1.1927)" style="fill-rule:evenodd;clip-rule:evenodd;fill:none;stroke:#ED1B2E;stroke-width:0.5;" cx="9.297" cy="-11.394" rx="1.272" ry="0.636"/>

			<ellipse transform="matrix(0.3792 -0.9253 0.9253 0.3792 25.472 -13.3987)" style="fill-rule:evenodd;clip-rule:evenodd;fill:none;stroke:#ED1B2E;stroke-width:0.5;" cx="2.75" cy="-25.683" rx="1.018" ry="0.508"/>

			<ellipse transform="matrix(0.3791 -0.9253 0.9253 0.3791 52.9838 -15.669)" style="fill-rule:evenodd;clip-rule:evenodd;fill:none;stroke:#ED1B2E;stroke-width:0.5;" cx="14.815" cy="-47.318" rx="1.018" ry="0.509"/>

			<ellipse transform="matrix(0.3793 -0.9253 0.9253 0.3793 46.4122 26.9968)" style="fill-rule:evenodd;clip-rule:evenodd;fill:none;stroke:#ED1B2E;stroke-width:0.5;" cx="43.328" cy="-21.094" rx="0.815" ry="0.407"/>

			<circle style="fill-rule:evenodd;clip-rule:evenodd;fill:none;stroke:#ED1B2E;stroke-width:0.5;" cx="11.636" cy="-36.031" r="0.891"/>

			<ellipse transform="matrix(0.3571 -0.9341 0.9341 0.3571 59.6848 -15.5723)" style="fill-rule:evenodd;clip-rule:evenodd;fill:none;stroke:#ED1B2E;stroke-width:0.5;" cx="18.53" cy="-51.143" rx="0.859" ry="0.515"/>

			<ellipse transform="matrix(0.4604 -0.8877 0.8877 0.4604 20.8402 10.4803)" style="fill-rule:evenodd;clip-rule:evenodd;fill:none;stroke:#ED1B2E;stroke-width:0.5;" cx="19.041" cy="-11.903" rx="0.859" ry="0.515"/>

			<ellipse transform="matrix(0.3575 -0.9339 0.9339 0.3575 41.4055 1.2281)" style="fill-rule:evenodd;clip-rule:evenodd;fill:none;stroke:#ED1B2E;stroke-width:0.5;" cx="21.595" cy="-29.478" rx="0.859" ry="0.515"/>

			<ellipse transform="matrix(0.3571 -0.9341 0.9341 0.3571 15.57 -8.9342)" style="fill-rule:evenodd;clip-rule:evenodd;fill:none;stroke:#ED1B2E;stroke-width:0.5;" cx="1.295" cy="-15.778" rx="0.859" ry="0.515"/>
		<path style="fill-rule:evenodd;clip-rule:evenodd;fill:none;stroke:#ED1B2E;stroke-width:0.5;" d="M27.969-14.344    c0.2,0.336,0.617,0.545,0.933,0.468c0.315-0.077,0.408-0.41,0.209-0.745c-0.202-0.335-0.62-0.545-0.936-0.469    C27.859-15.013,27.767-14.679,27.969-14.344z"/>
		<path style="fill-rule:evenodd;clip-rule:evenodd;fill:none;stroke:#ED1B2E;stroke-width:0.5;" d="M24.102-6.875    c0.315-0.077,0.407-0.411,0.208-0.746c-0.201-0.336-0.619-0.545-0.935-0.468c-0.315,0.077-0.408,0.41-0.208,0.745    C23.369-7.009,23.786-6.799,24.102-6.875z"/>

			<ellipse transform="matrix(0.4201 -0.9075 0.9075 0.4201 60.4795 37.3993)" style="fill-rule:evenodd;clip-rule:evenodd;fill:none;stroke:#ED1B2E;stroke-width:0.5;" cx="59.501" cy="-28.62" rx="0.859" ry="0.515"/>

			<ellipse transform="matrix(0.0729 -0.9973 0.9973 0.0729 58.7198 37.7021)" style="fill-rule:evenodd;clip-rule:evenodd;fill:none;stroke:#ED1B2E;stroke-width:0.5;" cx="49.638" cy="-12.732" rx="0.86" ry="0.516"/>

			<ellipse transform="matrix(0.0727 -0.9974 0.9974 0.0727 49.3715 22.1065)" style="fill-rule:evenodd;clip-rule:evenodd;fill:none;stroke:#ED1B2E;stroke-width:0.5;" cx="36.574" cy="-15.497" rx="0.86" ry="0.516"/>

			<circle style="fill-rule:evenodd;clip-rule:evenodd;fill:none;stroke:#ED1B2E;stroke-width:0.5;stroke-linecap:round;stroke-linejoin:round;" cx="48.177" cy="-42.11" r="0.382"/>

			<circle style="fill-rule:evenodd;clip-rule:evenodd;fill:none;stroke:#ED1B2E;stroke-width:0.5;stroke-linecap:round;stroke-linejoin:round;" cx="50.501" cy="-36.857" r="0.382"/>

			<circle style="fill-rule:evenodd;clip-rule:evenodd;fill:none;stroke:#ED1B2E;stroke-width:0.5;stroke-linecap:round;stroke-linejoin:round;" cx="40.837" cy="-33.423" r="0.382"/>

			<circle style="fill-rule:evenodd;clip-rule:evenodd;fill:none;stroke:#ED1B2E;stroke-width:0.5;stroke-linecap:round;stroke-linejoin:round;" cx="55.702" cy="-32.258" r="0.382"/>

			<circle style="fill-rule:evenodd;clip-rule:evenodd;fill:none;stroke:#ED1B2E;stroke-width:0.5;stroke-linecap:round;stroke-linejoin:round;" cx="27.501" cy="-34.857" r="0.382"/>

			<circle style="fill-rule:evenodd;clip-rule:evenodd;fill:none;stroke:#ED1B2E;stroke-width:0.5;stroke-linecap:round;stroke-linejoin:round;" cx="50.651" cy="-27.908" r="0.382"/>

			<circle style="fill-rule:evenodd;clip-rule:evenodd;fill:none;stroke:#ED1B2E;stroke-width:0.5;stroke-linecap:round;stroke-linejoin:round;" cx="34.537" cy="-26.622" r="0.382"/>

			<circle style="fill-rule:evenodd;clip-rule:evenodd;fill:none;stroke:#ED1B2E;stroke-width:0.5;stroke-linecap:round;stroke-linejoin:round;" cx="19.437" cy="-26.322" r="0.382"/>

			<circle style="fill-rule:evenodd;clip-rule:evenodd;fill:none;stroke:#ED1B2E;stroke-width:0.5;stroke-linecap:round;stroke-linejoin:round;" cx="39.836" cy="-14.722" r="0.382"/>

			<circle style="fill-rule:evenodd;clip-rule:evenodd;fill:none;stroke:#ED1B2E;stroke-width:0.5;stroke-linecap:round;stroke-linejoin:round;" cx="47.236" cy="-16.623" r="0.382"/>

			<circle style="fill-rule:evenodd;clip-rule:evenodd;fill:none;stroke:#ED1B2E;stroke-width:0.5;stroke-linecap:round;stroke-linejoin:round;" cx="46.837" cy="-6.723" r="0.382"/>

			<circle style="fill-rule:evenodd;clip-rule:evenodd;fill:none;stroke:#ED1B2E;stroke-width:0.5;stroke-linecap:round;stroke-linejoin:round;" cx="43.737" cy="-1.923" r="0.382"/>

			<circle style="fill-rule:evenodd;clip-rule:evenodd;fill:none;stroke:#ED1B2E;stroke-width:0.5;stroke-linecap:round;stroke-linejoin:round;" cx="6.852" cy="-15.458" r="0.382"/>

			<circle style="fill-rule:evenodd;clip-rule:evenodd;fill:none;stroke:#ED1B2E;stroke-width:0.5;stroke-linecap:round;stroke-linejoin:round;" cx="5.501" cy="-9.758" r="0.382"/>

			<circle style="fill-rule:evenodd;clip-rule:evenodd;fill:none;stroke:#ED1B2E;stroke-width:0.5;stroke-linecap:round;stroke-linejoin:round;" cx="13.419" cy="-38.704" r="0.382"/>

			<circle style="fill-rule:evenodd;clip-rule:evenodd;fill:none;stroke:#ED1B2E;stroke-width:0.5;stroke-linecap:round;stroke-linejoin:round;" cx="1.702" cy="-51.857" r="0.382"/>

			<circle style="fill-rule:evenodd;clip-rule:evenodd;fill:none;stroke:#ED1B2E;stroke-width:0.5;stroke-linecap:round;stroke-linejoin:round;" cx="6.501" cy="-43.457" r="0.382"/>

			<circle style="fill-rule:evenodd;clip-rule:evenodd;fill:none;stroke:#ED1B2E;stroke-width:0.5;stroke-linecap:round;stroke-linejoin:round;" cx="48.536" cy="-52.422" r="0.382"/>
		<path style="fill-rule:evenodd;clip-rule:evenodd;fill:none;stroke:#ED1B2E;stroke-width:0.5;" d="M28.499-60.555    c-0.027,0.428-0.27,0.763-0.562,0.763c-0.293,0-0.534-0.335-0.562-0.763"/>
		<path style="fill-rule:evenodd;clip-rule:evenodd;fill:none;stroke:#ED1B2E;stroke-width:0.5;" d="M28.499-0.076    c0.002-0.026,0.004-0.056,0.004-0.084c0-0.469-0.253-0.849-0.566-0.849c-0.312,0-0.565,0.38-0.565,0.849    c0,0.028,0.001,0.058,0.003,0.084"/>
		<path style="fill-rule:evenodd;clip-rule:evenodd;fill:none;stroke:#ED1B2E;stroke-width:0.5;" d="M10.698-60.555    c-0.027,0.428-0.269,0.763-0.562,0.763c-0.293,0-0.534-0.335-0.562-0.763"/>
		<path style="fill-rule:evenodd;clip-rule:evenodd;fill:none;stroke:#ED1B2E;stroke-width:0.5;" d="M10.698-0.076    c0.002-0.026,0.003-0.056,0.003-0.084c0-0.469-0.252-0.849-0.565-0.849c-0.312,0-0.565,0.38-0.565,0.849    c0,0.028,0.001,0.058,0.003,0.084"/>
		<path style="fill-rule:evenodd;clip-rule:evenodd;fill:none;stroke:#ED1B2E;stroke-width:0.5;" d="M37.255-60.555    c-0.035,0.428-0.337,0.763-0.703,0.763c-0.367,0-0.667-0.335-0.703-0.763"/>
		<path style="fill-rule:evenodd;clip-rule:evenodd;fill:none;stroke:#ED1B2E;stroke-width:0.5;" d="M37.255-0.076    c0.003-0.026,0.004-0.056,0.004-0.084c0-0.469-0.316-0.849-0.707-0.849c-0.391,0-0.707,0.38-0.707,0.849    c0,0.028,0.001,0.058,0.004,0.084"/>
		<path style="fill-rule:evenodd;clip-rule:evenodd;fill:none;stroke:#ED1B2E;stroke-width:0.5;" d="M52.99-60.555    c-0.036,0.428-0.336,0.763-0.704,0.763c-0.365,0-0.667-0.335-0.702-0.763"/>
		<path style="fill-rule:evenodd;clip-rule:evenodd;fill:none;stroke:#ED1B2E;stroke-width:0.5;" d="M52.99-0.076    c0.003-0.026,0.004-0.056,0.004-0.084c0-0.469-0.317-0.849-0.708-0.849c-0.391,0-0.707,0.38-0.707,0.849    c0,0.028,0.002,0.058,0.005,0.084"/>
		<path style="fill-rule:evenodd;clip-rule:evenodd;fill:none;stroke:#ED1B2E;stroke-width:0.5;" d="M60.701-24.02    c-0.029-0.007-0.059-0.012-0.09-0.012c-0.332,0-0.602,0.444-0.602,0.991c0,0.546,0.27,0.989,0.602,0.989    c0.031,0,0.061-0.004,0.09-0.011"/>
		<path style="fill-rule:evenodd;clip-rule:evenodd;fill:none;stroke:#ED1B2E;stroke-width:0.5;" d="M0.222-22.062    c0.289-0.071,0.512-0.482,0.512-0.979c0-0.497-0.223-0.908-0.512-0.979"/>
		<path style="fill-rule:evenodd;clip-rule:evenodd;fill:none;stroke:#ED1B2E;stroke-width:0.5;" d="M60.701-42.569    c-0.029-0.008-0.059-0.011-0.09-0.011c-0.332,0-0.602,0.442-0.602,0.989c0,0.547,0.27,0.99,0.602,0.99    c0.031,0,0.061-0.004,0.09-0.011"/>
		<path style="fill-rule:evenodd;clip-rule:evenodd;fill:none;stroke:#ED1B2E;stroke-width:0.5;" d="M0.222-40.611    c0.289-0.071,0.512-0.483,0.512-0.979c0-0.496-0.223-0.907-0.512-0.979"/>
		<path style="fill-rule:evenodd;clip-rule:evenodd;fill:none;stroke:#ED1B2E;stroke-width:0.5;" d="M60.701-10.471    c-0.029-0.007-0.059-0.009-0.09-0.009c-0.332,0-0.602,0.442-0.602,0.989c0,0.546,0.27,0.99,0.602,0.99    c0.031,0,0.061-0.004,0.09-0.011"/>
		<path style="fill-rule:evenodd;clip-rule:evenodd;fill:none;stroke:#ED1B2E;stroke-width:0.5;" d="M0.222-8.511    C0.511-8.584,0.733-8.994,0.733-9.49c0-0.497-0.223-0.907-0.512-0.981"/>
		<path style="fill-rule:evenodd;clip-rule:evenodd;fill:none;stroke:#ED1B2E;stroke-width:0.5;" d="M60.701-58.954    c-0.029-0.008-0.059-0.012-0.09-0.012c-0.332,0-0.602,0.443-0.602,0.99c0,0.547,0.27,0.99,0.602,0.99    c0.031,0,0.061-0.004,0.09-0.012"/>
		<path style="fill-rule:evenodd;clip-rule:evenodd;fill:none;stroke:#ED1B2E;stroke-width:0.5;" d="M0.222-56.997    c0.289-0.071,0.512-0.481,0.512-0.979c0-0.496-0.223-0.907-0.512-0.979"/>
	</g>
</svg>
