<?xml version="1.0"?>
<!-- Converted with SVG Converter - Version 0.9.6 (Compiled Thu Aug 31 10:01:05 2017) - Copyright (C) 2011 Nokia -->
<svg xmlns="http://www.w3.org/2000/svg" x="0px" y="0px" xmlns:xlink="http://www.w3.org/1999/xlink" height="60.479" version="1.1" xml:space="preserve" viewBox="2 -62.479 60.479 60.479" baseProfile="tiny" width="60.479">
 <g>
  <rect x="2" y="-62.479" height="60.479" style="fill:none;" width="60.479"/>
  <path style="fill-rule:evenodd;clip-rule:evenodd;fill:none;stroke:#00AEEF;stroke-width:0.5;" d="M4.887-49.795    c0.429,0.537,1.053,0.752,1.395,0.479c0.342-0.272,0.562-1.111,0.134-1.649c-0.428-0.538-1.342-0.571-1.684-0.299    C4.389-50.99,4.458-50.333,4.887-49.795z"/>
  <ellipse cy="-37.115" cx="60.028" style="fill-rule:evenodd;clip-rule:evenodd;fill:none;stroke:#00AEEF;stroke-width:0.5;" rx="1.12" ry="0.712" transform="matrix(0.3456 -0.9384 0.9384 0.3456 74.1082 32.0415)"/>
  <ellipse cy="-25.615" cx="39.228" style="fill-rule:evenodd;clip-rule:evenodd;fill:none;stroke:#00AEEF;stroke-width:0.5;" rx="1.12" ry="0.712" transform="matrix(0.3456 -0.9384 0.9384 0.3456 49.7067 20.0484)"/>
  <path style="fill-rule:evenodd;clip-rule:evenodd;fill:none;stroke:#00AEEF;stroke-width:0.5;" d="M46.516-30.864    c0.517-0.145,0.299-0.785,0-1.4c-0.3-0.615-0.567-0.972-1.085-0.827c-0.517,0.144-0.693,0.761-0.394,1.376    C45.336-31.101,45.998-30.72,46.516-30.864z"/>
  <ellipse cy="-57.023" cx="29.313" style="fill-rule:evenodd;clip-rule:evenodd;fill:none;stroke:#00AEEF;stroke-width:0.5;" rx="1.244" ry="0.792" transform="matrix(0.5243 -0.8516 0.8516 0.5243 62.5044 -2.167)"/>
  <ellipse cy="-41.024" cx="56.063" style="fill-rule:evenodd;clip-rule:evenodd;fill:none;stroke:#00AEEF;stroke-width:0.5;" rx="1.245" ry="0.792" transform="matrix(0.5241 -0.8517 0.8517 0.5241 61.6206 28.2228)"/>
  <ellipse cy="-41.42" cx="9.727" style="fill-rule:evenodd;clip-rule:evenodd;fill:none;stroke:#00AEEF;stroke-width:0.5;" rx="1.244" ry="0.792" transform="matrix(0.794 -0.6079 0.6079 0.794 27.1812 -2.6185)"/>
  <path style="fill-rule:evenodd;clip-rule:evenodd;fill:none;stroke:#00AEEF;stroke-width:0.5;" d="M11.18-53.398    c-0.373,0.228-0.783,0.764-0.424,1.35c0.357,0.586,0.951,0.877,1.324,0.649c0.373-0.228,0.458-1.113,0.1-1.699    C11.822-53.686,11.554-53.627,11.18-53.398z"/>
  <ellipse cy="-21.516" cx="6.245" style="fill-rule:evenodd;clip-rule:evenodd;fill:none;stroke:#00AEEF;stroke-width:0.5;" rx="1.244" ry="0.792" transform="matrix(0.3776 -0.926 0.926 0.3776 23.8099 -7.6091)"/>
  <ellipse cy="-14.577" cx="14.911" style="fill-rule:evenodd;clip-rule:evenodd;fill:none;stroke:#00AEEF;stroke-width:0.5;" rx="1.245" ry="0.792" transform="matrix(0.6179 -0.7863 0.7863 0.6179 17.1587 6.1537)"/>
  <ellipse cy="-32.451" cx="30.81" style="fill-rule:evenodd;clip-rule:evenodd;fill:none;stroke:#00AEEF;stroke-width:0.5;" rx="1.244" ry="0.792" transform="matrix(0.4868 -0.8735 0.8735 0.4868 44.1575 10.2589)"/>
  <ellipse cy="-38.686" cx="18.274" style="fill-rule:evenodd;clip-rule:evenodd;fill:none;stroke:#00AEEF;stroke-width:0.5;" rx="1.245" ry="0.792" transform="matrix(0.4868 -0.8735 0.8735 0.4868 43.1721 -3.892)"/>
  <ellipse cy="-6.008" cx="41.3" style="fill-rule:evenodd;clip-rule:evenodd;fill:none;stroke:#00AEEF;stroke-width:0.5;" rx="1.244" ry="0.792" transform="matrix(0.013 -0.9999 0.9999 0.013 46.7705 35.3661)"/>
  <ellipse cy="-42.447" cx="22.951" style="fill-rule:evenodd;clip-rule:evenodd;fill:none;stroke:#00AEEF;stroke-width:0.5;" rx="0.792" ry="1.244" transform="matrix(0.9507 -0.31 0.31 0.9507 14.2886 5.0237)"/>
  <path style="fill-rule:evenodd;clip-rule:evenodd;fill:none;stroke:#00AEEF;stroke-width:0.5;" d="M10.314-58.864    c-0.334-0.601-1.328-0.887-1.711-0.674c-0.382,0.213-0.42,0.872-0.086,1.473c0.334,0.601,0.915,0.914,1.298,0.701    C10.197-57.576,10.649-58.264,10.314-58.864z"/>
  <ellipse cy="-49.199" cx="27.774" style="fill-rule:evenodd;clip-rule:evenodd;fill:none;stroke:#00AEEF;stroke-width:0.5;" rx="0.713" ry="1.12" transform="matrix(0.99 -0.1408 0.1408 0.99 7.2037 3.4204)"/>
  <ellipse cy="-53.297" cx="60.459" style="fill-rule:evenodd;clip-rule:evenodd;fill:none;stroke:#00AEEF;stroke-width:0.5;" rx="1.12" ry="0.713" transform="matrix(0.1967 -0.9805 0.9805 0.1967 100.8261 16.4629)"/>
  <ellipse cy="-13.809" cx="24.411" style="fill-rule:evenodd;clip-rule:evenodd;fill:none;stroke:#00AEEF;stroke-width:0.5;" rx="1.244" ry="0.792" transform="matrix(0.0031 -1 1 0.0031 38.1441 10.6451)"/>
  <ellipse cy="-12.403" cx="41.365" style="fill-rule:evenodd;clip-rule:evenodd;fill:none;stroke:#00AEEF;stroke-width:0.5;" rx="1.244" ry="0.792" transform="matrix(0.2528 -0.9675 0.9675 0.2528 42.9067 30.7545)"/>
  <ellipse cy="-8.736" cx="32.798" style="fill-rule:evenodd;clip-rule:evenodd;fill:none;stroke:#00AEEF;stroke-width:0.5;" rx="1.245" ry="0.792" transform="matrix(0.3352 -0.9421 0.9421 0.3352 30.0335 25.0926)"/>
  <ellipse cy="-46.58" cx="4.704" style="fill-rule:evenodd;clip-rule:evenodd;fill:none;stroke:#00AEEF;stroke-width:0.5;" rx="0.509" ry="0.713" transform="matrix(0.906 -0.4232 0.4232 0.906 20.156 -2.3865)"/>
  <ellipse cy="-4.204" cx="8.372" style="fill-rule:evenodd;clip-rule:evenodd;fill:none;stroke:#00AEEF;stroke-width:0.5;" rx="0.712" ry="0.509" transform="matrix(0.1505 -0.9886 0.9886 0.1505 11.2681 4.7058)"/>
  <ellipse cy="-15.162" cx="6.08" style="fill-rule:evenodd;clip-rule:evenodd;fill:none;stroke:#00AEEF;stroke-width:0.5;" rx="0.509" ry="0.712"/>
  <ellipse cy="-44.712" cx="26.88" style="fill-rule:evenodd;clip-rule:evenodd;fill:none;stroke:#00AEEF;stroke-width:0.5;" rx="0.509" ry="0.712"/>
  <ellipse cy="-60.612" cx="19.78" style="fill-rule:evenodd;clip-rule:evenodd;fill:none;stroke:#00AEEF;stroke-width:0.5;" rx="0.509" ry="0.712"/>
  <ellipse cy="-24.577" cx="58.415" style="fill-rule:evenodd;clip-rule:evenodd;fill:none;stroke:#00AEEF;stroke-width:0.5;" rx="0.509" ry="0.713"/>
  <ellipse cy="-27.177" cx="47.015" style="fill-rule:evenodd;clip-rule:evenodd;fill:none;stroke:#00AEEF;stroke-width:0.5;" rx="0.509" ry="0.713"/>
  <ellipse cy="-4.577" cx="34.415" style="fill-rule:evenodd;clip-rule:evenodd;fill:none;stroke:#00AEEF;stroke-width:0.5;" rx="0.509" ry="0.712"/>
  <ellipse cy="-35.112" cx="21.48" style="fill-rule:evenodd;clip-rule:evenodd;fill:none;stroke:#00AEEF;stroke-width:0.5;" rx="0.509" ry="0.713"/>
  <ellipse cy="-38.177" cx="44.315" style="fill-rule:evenodd;clip-rule:evenodd;fill:none;stroke:#00AEEF;stroke-width:0.5;" rx="0.509" ry="0.713"/>
  <ellipse cy="-42.424" cx="31.737" style="fill-rule:evenodd;clip-rule:evenodd;fill:none;stroke:#00AEEF;stroke-width:0.5;" rx="0.713" ry="0.509" transform="matrix(0.4809 -0.8768 0.8768 0.4809 53.6715 5.804)"/>
  <ellipse cy="-33.777" cx="40.115" style="fill-rule:evenodd;clip-rule:evenodd;fill:none;stroke:#00AEEF;stroke-width:0.5;" rx="0.509" ry="0.713"/>
  <ellipse cy="-57.612" cx="39.23" style="fill-rule:evenodd;clip-rule:evenodd;fill:none;stroke:#00AEEF;stroke-width:0.5;" rx="0.509" ry="0.712"/>
  <ellipse cy="-24.464" cx="11.856" style="fill-rule:evenodd;clip-rule:evenodd;fill:none;stroke:#00AEEF;stroke-width:0.5;" rx="0.509" ry="0.712"/>
  <ellipse cy="-28.712" cx="27.68" style="fill-rule:evenodd;clip-rule:evenodd;fill:none;stroke:#00AEEF;stroke-width:0.5;" rx="0.509" ry="0.713"/>
  <ellipse cy="-12.898" cx="46.344" style="fill-rule:evenodd;clip-rule:evenodd;fill:none;stroke:#00AEEF;stroke-width:0.5;" rx="0.712" ry="0.509" transform="matrix(0.1914 -0.9815 0.9815 0.1914 50.1346 35.0577)"/>
  <ellipse cy="-44.112" cx="45.08" style="fill-rule:evenodd;clip-rule:evenodd;fill:none;stroke:#00AEEF;stroke-width:0.5;" rx="0.509" ry="0.712"/>
  <ellipse cy="-45.712" cx="38.68" style="fill-rule:evenodd;clip-rule:evenodd;fill:none;stroke:#00AEEF;stroke-width:0.5;" rx="0.509" ry="0.713"/>
  <ellipse cy="-42.431" cx="40.553" style="fill-rule:evenodd;clip-rule:evenodd;fill:none;stroke:#00AEEF;stroke-width:0.5;" rx="0.784" ry="0.56" transform="matrix(0.2075 -0.9782 0.9782 0.2075 73.6459 6.0433)"/>
  <ellipse cy="-56.935" cx="59.609" style="fill-rule:evenodd;clip-rule:evenodd;fill:none;stroke:#00AEEF;stroke-width:0.5;" rx="0.784" ry="0.56" transform="matrix(0.3454 -0.9385 0.9385 0.3454 92.4542 18.6699)"/>
  <ellipse cy="-51.731" cx="31.353" style="fill-rule:evenodd;clip-rule:evenodd;fill:none;stroke:#00AEEF;stroke-width:0.5;" rx="0.784" ry="0.56" transform="matrix(0.2075 -0.9782 0.9782 0.2075 75.4525 -10.3268)"/>
  <ellipse cy="-29.031" cx="41.552" style="fill-rule:evenodd;clip-rule:evenodd;fill:none;stroke:#00AEEF;stroke-width:0.5;" rx="0.784" ry="0.56" transform="matrix(0.2074 -0.9783 0.9783 0.2074 61.3359 17.6384)"/>
  <path style="fill-rule:evenodd;clip-rule:evenodd;fill:none;stroke:#00AEEF;stroke-width:0.5;" d="M7.829-35.24    c0.42-0.065,0.659-0.477,0.534-0.916c-0.124-0.439-0.565-0.743-0.985-0.677c-0.421,0.067-0.661,0.478-0.536,0.917    C6.967-35.476,7.408-35.173,7.829-35.24z"/>
  <ellipse cy="-51.548" cx="43.135" style="fill-rule:evenodd;clip-rule:evenodd;fill:none;stroke:#00AEEF;stroke-width:0.5;" rx="0.712" ry="0.509" transform="matrix(0.414 -0.9103 0.9103 0.414 72.1976 9.0589)"/>
  <ellipse cy="-54.877" cx="14.915" style="fill-rule:evenodd;clip-rule:evenodd;fill:none;stroke:#00AEEF;stroke-width:0.5;" rx="0.509" ry="0.713"/>
  <ellipse cy="-32.712" cx="50.88" style="fill-rule:evenodd;clip-rule:evenodd;fill:none;stroke:#00AEEF;stroke-width:0.5;" rx="0.509" ry="0.712"/>
  <ellipse cy="-15.177" cx="60.115" style="fill-rule:evenodd;clip-rule:evenodd;fill:none;stroke:#00AEEF;stroke-width:0.5;" rx="0.509" ry="0.713"/>
  <ellipse cy="-18.427" cx="34.265" style="fill-rule:evenodd;clip-rule:evenodd;fill:none;stroke:#00AEEF;stroke-width:0.5;" rx="0.509" ry="0.712"/>
  <ellipse cy="-57.962" cx="51.974" style="fill-rule:evenodd;clip-rule:evenodd;fill:none;stroke:#00AEEF;stroke-width:0.5;" rx="0.713" ry="0.509" transform="matrix(0.1986 -0.9801 0.9801 0.1986 98.4579 4.4884)"/>
  <ellipse cy="-37.898" cx="37.938" style="fill-rule:evenodd;clip-rule:evenodd;fill:none;stroke:#00AEEF;stroke-width:0.5;" rx="0.713" ry="0.509" transform="matrix(0.1986 -0.9801 0.9801 0.1986 67.5462 6.8119)"/>
  <ellipse cy="-23.226" cx="30.515" style="fill-rule:evenodd;clip-rule:evenodd;fill:none;stroke:#00AEEF;stroke-width:0.5;" rx="0.509" ry="0.712"/>
  <ellipse cy="-27.764" cx="8.556" style="fill-rule:evenodd;clip-rule:evenodd;fill:none;stroke:#00AEEF;stroke-width:0.5;" rx="0.509" ry="0.712"/>
  <ellipse cy="-17.999" cx="19.571" style="fill-rule:evenodd;clip-rule:evenodd;fill:none;stroke:#00AEEF;stroke-width:0.5;" rx="0.509" ry="0.713"/>
  <ellipse cy="-21.377" cx="50.015" style="fill-rule:evenodd;clip-rule:evenodd;fill:none;stroke:#00AEEF;stroke-width:0.5;" rx="0.509" ry="0.712"/>
  <ellipse cy="-27.678" cx="56.266" style="fill-rule:evenodd;clip-rule:evenodd;fill:none;stroke:#00AEEF;stroke-width:0.5;" rx="0.713" ry="0.509" transform="matrix(0.3001 -0.9539 0.9539 0.3001 65.7831 34.3003)"/>
  <ellipse cy="-44.644" cx="18.522" style="fill-rule:evenodd;clip-rule:evenodd;fill:none;stroke:#00AEEF;stroke-width:0.5;" rx="0.708" ry="0.99"/>
  <ellipse cy="-31.29" cx="55.867" style="fill-rule:evenodd;clip-rule:evenodd;fill:none;stroke:#00AEEF;stroke-width:0.5;" rx="0.891" ry="0.636" transform="matrix(0.0145 -0.9999 0.9999 0.0145 86.3412 25.0257)"/>
  <path style="fill-rule:evenodd;clip-rule:evenodd;fill:none;stroke:#00AEEF;stroke-width:0.5;" d="M20.266-7.917    c0.303,0.495,0.847,0.726,1.214,0.518c0.368-0.208,0.421-0.777,0.117-1.272c-0.304-0.495-0.848-0.727-1.216-0.519    C20.014-8.981,19.961-8.411,20.266-7.917z"/>
  <path style="fill-rule:evenodd;clip-rule:evenodd;fill:none;stroke:#00AEEF;stroke-width:0.5;" d="M36.045-23.047    c-0.138-0.624-0.556-0.998-0.933-0.833c-0.377,0.165-0.569,0.808-0.43,1.434c0.139,0.624,0.557,0.997,0.933,0.832    C35.992-21.78,36.185-22.421,36.045-23.047z"/>
  <path style="fill-rule:evenodd;clip-rule:evenodd;fill:none;stroke:#00AEEF;stroke-width:0.5;" d="M51.512-27.93    c-0.376,0.165-0.568,0.808-0.43,1.433c0.139,0.626,0.557,0.998,0.933,0.832c0.377-0.165,0.569-0.806,0.431-1.431    C52.307-27.722,51.889-28.095,51.512-27.93z"/>
  <path style="fill-rule:evenodd;clip-rule:evenodd;fill:none;stroke:#00AEEF;stroke-width:0.5;" d="M59.33-19.011    c0.174,0.557,0.555,0.86,0.851,0.676c0.296-0.182,0.395-0.782,0.22-1.339c-0.174-0.557-0.556-0.861-0.852-0.678    C59.253-20.169,59.155-19.568,59.33-19.011z"/>
  <ellipse cy="-41.988" cx="36.467" style="fill-rule:evenodd;clip-rule:evenodd;fill:none;stroke:#00AEEF;stroke-width:0.5;" rx="0.99" ry="0.707" transform="matrix(0.5539 -0.8326 0.8326 0.5539 51.2275 11.6302)"/>
  <ellipse cy="-40.888" cx="48.866" style="fill-rule:evenodd;clip-rule:evenodd;fill:none;stroke:#00AEEF;stroke-width:0.5;" rx="0.99" ry="0.707" transform="matrix(0.5542 -0.8324 0.8324 0.5542 55.8185 22.4478)"/>
  <ellipse cy="-60.129" cx="48.37" style="fill-rule:evenodd;clip-rule:evenodd;fill:none;stroke:#00AEEF;stroke-width:0.5;" rx="0.707" ry="0.99" transform="matrix(0.9899 -0.1421 0.1421 0.9899 9.0342 6.2627)"/>
  <ellipse cy="-45.988" cx="58.667" style="fill-rule:evenodd;clip-rule:evenodd;fill:none;stroke:#00AEEF;stroke-width:0.5;" rx="0.99" ry="0.707" transform="matrix(0.5545 -0.8322 0.8322 0.5545 64.4031 28.3339)"/>
  <ellipse cy="-47.988" cx="44.167" style="fill-rule:evenodd;clip-rule:evenodd;fill:none;stroke:#00AEEF;stroke-width:0.5;" rx="0.99" ry="0.707" transform="matrix(0.554 -0.8325 0.8325 0.554 59.6457 15.3674)"/>
  <ellipse cy="-53.018" cx="39.311" style="fill-rule:evenodd;clip-rule:evenodd;fill:none;stroke:#00AEEF;stroke-width:0.5;" rx="0.99" ry="0.707" transform="matrix(0.3731 -0.9278 0.9278 0.3731 73.8335 3.2352)"/>
  <ellipse cy="-59.623" cx="34.332" style="fill-rule:evenodd;clip-rule:evenodd;fill:none;stroke:#00AEEF;stroke-width:0.5;" rx="0.99" ry="0.707" transform="matrix(0.5541 -0.8325 0.8325 0.5541 64.9431 1.9926)"/>
  <ellipse cy="-59.488" cx="25.167" style="fill-rule:evenodd;clip-rule:evenodd;fill:none;stroke:#00AEEF;stroke-width:0.5;" rx="0.99" ry="0.707" transform="matrix(0.5545 -0.8322 0.8322 0.5545 60.7143 -5.5572)"/>
  <ellipse cy="-61.173" cx="5.531" style="fill-rule:evenodd;clip-rule:evenodd;fill:none;stroke:#00AEEF;stroke-width:0.5;" rx="0.99" ry="0.707" transform="matrix(0.5545 -0.8322 0.8322 0.5545 53.3708 -22.6483)"/>
  <ellipse cy="-38.654" cx="32.815" style="fill-rule:evenodd;clip-rule:evenodd;fill:none;stroke:#00AEEF;stroke-width:0.5;" rx="0.707" ry="0.989"/>
  <ellipse cy="-56.854" cx="18.815" style="fill-rule:evenodd;clip-rule:evenodd;fill:none;stroke:#00AEEF;stroke-width:0.5;" rx="0.707" ry="0.99"/>
  <path style="fill-rule:evenodd;clip-rule:evenodd;fill:none;stroke:#00AEEF;stroke-width:0.5;" d="M15.58-58.999    c0-0.547-0.31-1.58-0.7-1.58s-0.707,0.443-0.707,0.99c0,0.547,0.316,0.99,0.707,0.99S15.58-58.452,15.58-58.999z"/>
  <ellipse cy="-21.354" cx="55.515" style="fill-rule:evenodd;clip-rule:evenodd;fill:none;stroke:#00AEEF;stroke-width:0.5;" rx="0.707" ry="0.99"/>
  <ellipse cy="-36.654" cx="55.115" style="fill-rule:evenodd;clip-rule:evenodd;fill:none;stroke:#00AEEF;stroke-width:0.5;" rx="0.707" ry="0.99"/>
  <ellipse cy="-24.554" cx="26.015" style="fill-rule:evenodd;clip-rule:evenodd;fill:none;stroke:#00AEEF;stroke-width:0.5;" rx="0.707" ry="0.99"/>
  <ellipse cy="-8.236" cx="45.329" style="fill-rule:evenodd;clip-rule:evenodd;fill:none;stroke:#00AEEF;stroke-width:0.5;" rx="0.99" ry="0.707" transform="matrix(0.1885 -0.9821 0.9821 0.1885 44.8703 37.8329)"/>
  <ellipse cy="-21.854" cx="21.815" style="fill-rule:evenodd;clip-rule:evenodd;fill:none;stroke:#00AEEF;stroke-width:0.5;" rx="0.707" ry="0.99"/>
  <ellipse cy="-24.522" cx="18.423" style="fill-rule:evenodd;clip-rule:evenodd;fill:none;stroke:#00AEEF;stroke-width:0.5;" rx="0.99" ry="0.707" transform="matrix(0.3957 -0.9184 0.9184 0.3957 33.655 2.0999)"/>
  <ellipse cy="-46.708" cx="33.088" style="fill-rule:evenodd;clip-rule:evenodd;fill:none;stroke:#00AEEF;stroke-width:0.5;" rx="0.99" ry="0.707" transform="matrix(0.3956 -0.9184 0.9184 0.3956 62.8973 2.1576)"/>
  <ellipse cy="-55.508" cx="6.388" style="fill-rule:evenodd;clip-rule:evenodd;fill:none;stroke:#00AEEF;stroke-width:0.5;" rx="0.99" ry="0.707" transform="matrix(0.3957 -0.9184 0.9184 0.3957 54.8379 -27.6773)"/>
  <ellipse cy="-13.789" cx="35.08" style="fill-rule:evenodd;clip-rule:evenodd;fill:none;stroke:#00AEEF;stroke-width:0.5;" rx="0.707" ry="0.99"/>
  <ellipse cy="-4.414" cx="19.335" style="fill-rule:evenodd;clip-rule:evenodd;fill:none;stroke:#00AEEF;stroke-width:0.5;" rx="0.99" ry="0.707" transform="matrix(0.2831 -0.9591 0.9591 0.2831 18.0952 15.38)"/>
  <ellipse cy="-6.404" cx="56.915" style="fill-rule:evenodd;clip-rule:evenodd;fill:none;stroke:#00AEEF;stroke-width:0.5;" rx="0.707" ry="0.989"/>
  <ellipse cy="-17.981" cx="53.812" style="fill-rule:evenodd;clip-rule:evenodd;fill:none;stroke:#00AEEF;stroke-width:0.5;" rx="0.912" ry="0.685" transform="matrix(0.5135 -0.8581 0.8581 0.5135 41.6066 37.4268)"/>
  <ellipse cy="-22.346" cx="41.846" style="fill-rule:evenodd;clip-rule:evenodd;fill:none;stroke:#00AEEF;stroke-width:0.5;" rx="0.912" ry="0.685" transform="matrix(0.514 -0.8578 0.8578 0.514 39.5037 25.0351)"/>
  <ellipse cy="-3.673" cx="61.046" style="fill-rule:evenodd;clip-rule:evenodd;fill:none;stroke:#00AEEF;stroke-width:0.5;" rx="0.912" ry="0.685" transform="matrix(0.0748 -0.9972 0.9972 0.0748 60.1422 57.4768)"/>
  <ellipse cy="-9.781" cx="15.811" style="fill-rule:evenodd;clip-rule:evenodd;fill:none;stroke:#00AEEF;stroke-width:0.5;" rx="0.911" ry="0.685" transform="matrix(0.5139 -0.8579 0.8579 0.5139 16.0775 8.8089)"/>
  <ellipse cy="-33.997" cx="27.135" style="fill-rule:evenodd;clip-rule:evenodd;fill:none;stroke:#00AEEF;stroke-width:0.5;" rx="0.738" ry="0.555" transform="matrix(0.5139 -0.8579 0.8579 0.5139 42.3566 6.7513)"/>
  <ellipse cy="-33.246" cx="16.447" style="fill-rule:evenodd;clip-rule:evenodd;fill:none;stroke:#00AEEF;stroke-width:0.5;" rx="0.912" ry="0.685" transform="matrix(0.514 -0.8578 0.8578 0.514 36.5099 -2.0491)"/>
  <ellipse cy="-48.981" cx="21.612" style="fill-rule:evenodd;clip-rule:evenodd;fill:none;stroke:#00AEEF;stroke-width:0.5;" rx="0.912" ry="0.685" transform="matrix(0.5141 -0.8577 0.8577 0.5141 52.5149 -5.2639)"/>
  <ellipse cy="-32.296" cx="10.546" style="fill-rule:evenodd;clip-rule:evenodd;fill:none;stroke:#00AEEF;stroke-width:0.5;" rx="0.911" ry="0.685" transform="matrix(0.5136 -0.858 0.858 0.5136 32.841 -6.6599)"/>
  <ellipse cy="-48.181" cx="9.711" style="fill-rule:evenodd;clip-rule:evenodd;fill:none;stroke:#00AEEF;stroke-width:0.5;" rx="0.912" ry="0.685" transform="matrix(0.5141 -0.8577 0.8577 0.5141 46.0458 -15.0825)"/>
  <ellipse cy="-8.529" cx="37.5" style="fill-rule:evenodd;clip-rule:evenodd;fill:none;stroke:#00AEEF;stroke-width:0.5;" rx="0.891" ry="0.636" transform="matrix(0.2409 -0.9706 0.9706 0.2409 36.7446 29.9209)"/>
  <ellipse cy="-8.664" cx="5.464" style="fill-rule:evenodd;clip-rule:evenodd;fill:none;stroke:#00AEEF;stroke-width:0.5;" rx="0.891" ry="0.636" transform="matrix(0.2409 -0.9706 0.9706 0.2409 12.5565 -1.2732)"/>
  <ellipse cy="-10.787" cx="58.593" style="fill-rule:evenodd;clip-rule:evenodd;fill:none;stroke:#00AEEF;stroke-width:0.5;" rx="0.636" ry="0.89" transform="matrix(0.9797 -0.2003 0.2003 0.9797 3.347 11.5149)"/>
  <ellipse cy="-4.941" cx="3.75" style="fill-rule:evenodd;clip-rule:evenodd;fill:none;stroke:#00AEEF;stroke-width:0.5;" rx="0.892" ry="0.636" transform="matrix(0.3055 -0.9522 0.9522 0.3055 7.3093 0.1391)"/>
  <ellipse cy="-8.564" cx="10.215" style="fill-rule:evenodd;clip-rule:evenodd;fill:none;stroke:#00AEEF;stroke-width:0.5;" rx="0.891" ry="0.636" transform="matrix(0.2409 -0.9706 0.9706 0.2409 16.0658 3.4128)"/>
  <ellipse cy="-28.629" cx="17.7" style="fill-rule:evenodd;clip-rule:evenodd;fill:none;stroke:#00AEEF;stroke-width:0.5;" rx="0.891" ry="0.637" transform="matrix(0.2416 -0.9704 0.9704 0.2416 41.2037 -4.5363)"/>
  <ellipse cy="-43.857" cx="13.369" style="fill-rule:evenodd;clip-rule:evenodd;fill:none;stroke:#00AEEF;stroke-width:0.5;" rx="0.891" ry="0.637" transform="matrix(0.2416 -0.9704 0.9704 0.2416 52.696 -20.2875)"/>
  <ellipse cy="-39.755" cx="4.969" style="fill-rule:evenodd;clip-rule:evenodd;fill:none;stroke:#00AEEF;stroke-width:0.5;" rx="0.891" ry="0.636" transform="matrix(0.5559 -0.8312 0.8312 0.5559 35.2516 -13.5226)"/>
  <ellipse cy="-3.755" cx="25.085" style="fill-rule:evenodd;clip-rule:evenodd;fill:none;stroke:#00AEEF;stroke-width:0.5;" rx="0.891" ry="0.636" transform="matrix(0.0338 -0.9994 0.9994 0.0338 27.9896 21.4429)"/>
  <ellipse cy="-49.598" cx="36.744" style="fill-rule:evenodd;clip-rule:evenodd;fill:none;stroke:#00AEEF;stroke-width:0.5;" rx="0.573" ry="0.802" transform="matrix(0.9968 -0.0797 0.0797 0.9968 4.0724 2.7723)"/>
  <ellipse cy="-61.173" cx="42.64" style="fill-rule:evenodd;clip-rule:evenodd;fill:none;stroke:#00AEEF;stroke-width:0.5;" rx="0.802" ry="0.573" transform="matrix(0.4668 -0.8844 0.8844 0.4668 76.8333 5.093)"/>
  <ellipse cy="-46.842" cx="47.821" style="fill-rule:evenodd;clip-rule:evenodd;fill:none;stroke:#00AEEF;stroke-width:0.5;" rx="0.802" ry="0.573" transform="matrix(0.2424 -0.9702 0.9702 0.2424 81.6769 10.9061)"/>
  <ellipse cy="-7.586" cx="51.801" style="fill-rule:evenodd;clip-rule:evenodd;fill:none;stroke:#00AEEF;stroke-width:0.5;" rx="0.99" ry="0.707" transform="matrix(0.0794 -0.9968 0.9968 0.0794 55.2512 44.6531)"/>
  <ellipse cy="-6.252" cx="28.763" style="fill-rule:evenodd;clip-rule:evenodd;fill:none;stroke:#00AEEF;stroke-width:0.5;" rx="0.989" ry="0.707" transform="matrix(0.2693 -0.9631 0.9631 0.2693 27.0391 23.1319)"/>
  <path style="fill-rule:evenodd;clip-rule:evenodd;fill:none;stroke:#00AEEF;stroke-width:0.5;" d="M24.231-37.188    c0,0.547,0.38,0.988,0.849,0.988c0.469,0,0.849-0.441,0.849-0.988c0-0.548-0.78-1.211-1.249-1.211    C24.212-38.399,24.231-37.736,24.231-37.188z"/>
  <path style="fill-rule:evenodd;clip-rule:evenodd;fill:none;stroke:#00AEEF;stroke-width:0.5;" d="M29.164-40.429    c0-0.547-0.58-1.635-1.049-1.635c-0.469,0-0.648,1.088-0.648,1.635c0,0.546,0.379,0.99,0.848,0.99    C28.783-39.438,29.164-39.883,29.164-40.429z"/>
  <path style="fill-rule:evenodd;clip-rule:evenodd;fill:none;stroke:#00AEEF;stroke-width:0.5;" d="M57.791-61.327    c-0.499-0.225-1.059-0.061-1.251,0.367c-0.192,0.427,0.055,0.955,0.554,1.181c0.498,0.224,1.729,0.143,1.921-0.284    C59.208-60.491,58.29-61.103,57.791-61.327z"/>
  <ellipse cy="-5.756" cx="15.215" style="fill-rule:evenodd;clip-rule:evenodd;fill:none;stroke:#00AEEF;stroke-width:0.5;" rx="0.764" ry="0.891"/>
  <ellipse cy="-36.055" cx="48.515" style="fill-rule:evenodd;clip-rule:evenodd;fill:none;stroke:#00AEEF;stroke-width:0.5;" rx="0.763" ry="0.891"/>
  <ellipse cy="-57.49" cx="45.08" style="fill-rule:evenodd;clip-rule:evenodd;fill:none;stroke:#00AEEF;stroke-width:0.5;" rx="0.764" ry="0.891"/>
  <ellipse cy="-55.39" cx="54.98" style="fill-rule:evenodd;clip-rule:evenodd;fill:none;stroke:#00AEEF;stroke-width:0.5;" rx="0.764" ry="0.891"/>
  <ellipse cy="-55.266" cx="34.315" style="fill-rule:evenodd;clip-rule:evenodd;fill:none;stroke:#00AEEF;stroke-width:0.5;" rx="0.687" ry="0.802"/>
  <ellipse cy="-19.19" cx="11.582" style="fill-rule:evenodd;clip-rule:evenodd;fill:none;stroke:#00AEEF;stroke-width:0.5;" rx="0.891" ry="0.764" transform="matrix(0.3743 -0.9273 0.9273 0.3743 25.0412 -1.2673)"/>
  <ellipse cy="-28.323" cx="13.379" style="fill-rule:evenodd;clip-rule:evenodd;fill:none;stroke:#00AEEF;stroke-width:0.5;" rx="0.99" ry="0.566" transform="matrix(0.6422 -0.7666 0.7666 0.6422 26.4979 0.1213)"/>
  <ellipse cy="-33.055" cx="3.913" style="fill-rule:evenodd;clip-rule:evenodd;fill:none;stroke:#00AEEF;stroke-width:0.5;" rx="1.036" ry="0.622" transform="matrix(0.2918 -0.9565 0.9565 0.2918 34.3877 -19.6683)"/>
  <ellipse cy="-50.499" cx="57.284" style="fill-rule:evenodd;clip-rule:evenodd;fill:none;stroke:#00AEEF;stroke-width:0.5;" rx="0.99" ry="0.566" transform="matrix(0.537 -0.8436 0.8436 0.537 69.1197 24.9429)"/>
  <ellipse cy="-19.563" cx="15.656" style="fill-rule:evenodd;clip-rule:evenodd;fill:none;stroke:#00AEEF;stroke-width:0.5;" rx="0.99" ry="0.566" transform="matrix(0.2265 -0.974 0.974 0.2265 31.1641 0.1167)"/>
  <ellipse cy="-13.028" cx="28.691" style="fill-rule:evenodd;clip-rule:evenodd;fill:none;stroke:#00AEEF;stroke-width:0.5;" rx="0.99" ry="0.566" transform="matrix(0.2261 -0.9741 0.9741 0.2261 34.8948 17.8653)"/>
  <ellipse cy="-17.028" cx="45.591" style="fill-rule:evenodd;clip-rule:evenodd;fill:none;stroke:#00AEEF;stroke-width:0.5;" rx="0.99" ry="0.565" transform="matrix(0.2254 -0.9743 0.9743 0.2254 51.9028 31.2278)"/>
  <ellipse cy="-11.778" cx="54.291" style="fill-rule:evenodd;clip-rule:evenodd;fill:none;stroke:#00AEEF;stroke-width:0.5;" rx="0.99" ry="0.565" transform="matrix(0.2254 -0.9743 0.9743 0.2254 53.5267 43.7703)"/>
  <ellipse cy="-3.763" cx="49.256" style="fill-rule:evenodd;clip-rule:evenodd;fill:none;stroke:#00AEEF;stroke-width:0.5;" rx="0.99" ry="0.565" transform="matrix(0.2263 -0.9741 0.9741 0.2263 41.7752 45.0665)"/>
  <ellipse cy="-45.393" cx="53.228" style="fill-rule:evenodd;clip-rule:evenodd;fill:none;stroke:#00AEEF;stroke-width:0.5;" rx="1.273" ry="0.637" transform="matrix(0.4615 -0.8872 0.8872 0.4615 68.9365 22.7754)"/>
  <ellipse cy="-32.415" cx="36.551" style="fill-rule:evenodd;clip-rule:evenodd;fill:none;stroke:#00AEEF;stroke-width:0.5;" rx="1.145" ry="0.573" transform="matrix(0.4618 -0.887 0.887 0.4618 48.4234 14.9746)"/>
  <ellipse cy="-54.815" cx="23.751" style="fill-rule:evenodd;clip-rule:evenodd;fill:none;stroke:#00AEEF;stroke-width:0.5;" rx="1.146" ry="0.573" transform="matrix(0.4618 -0.887 0.887 0.4618 61.4029 -8.434)"/>
  <ellipse cy="-50.728" cx="52.392" style="fill-rule:evenodd;clip-rule:evenodd;fill:none;stroke:#00AEEF;stroke-width:0.5;" rx="1.273" ry="0.636" transform="matrix(0.4613 -0.8873 0.8873 0.4613 73.234 19.157)"/>
  <path style="fill-rule:evenodd;clip-rule:evenodd;fill:none;stroke:#00AEEF;stroke-width:0.5;" d="M47.04-54.099    c-0.26-0.499-0.851-0.737-1.101-0.607c-0.249,0.129-0.24,0.639,0.02,1.138c0.259,0.499,0.672,0.799,0.921,0.668    C47.994-53.479,47.337-53.528,47.04-54.099z"/>
  <ellipse cy="-20.297" cx="26.44" style="fill-rule:evenodd;clip-rule:evenodd;fill:none;stroke:#00AEEF;stroke-width:0.5;" rx="1.272" ry="0.637" transform="matrix(0.1846 -0.9828 0.9828 0.1846 41.5076 9.4353)"/>
  <ellipse cy="-27.728" cx="33.092" style="fill-rule:evenodd;clip-rule:evenodd;fill:none;stroke:#00AEEF;stroke-width:0.5;" rx="1.272" ry="0.637" transform="matrix(0.4617 -0.887 0.887 0.4617 42.4073 14.4285)"/>
  <ellipse cy="-13.318" cx="11.075" style="fill-rule:evenodd;clip-rule:evenodd;fill:none;stroke:#00AEEF;stroke-width:0.5;" rx="1.272" ry="0.636" transform="matrix(0.0821 -0.9966 0.9966 0.0821 23.4389 -1.1862)"/>
  <ellipse cy="-27.606" cx="4.529" style="fill-rule:evenodd;clip-rule:evenodd;fill:none;stroke:#00AEEF;stroke-width:0.5;" rx="1.018" ry="0.509" transform="matrix(0.379 -0.9254 0.9254 0.379 28.36 -12.9536)"/>
  <ellipse cy="-49.241" cx="16.594" style="fill-rule:evenodd;clip-rule:evenodd;fill:none;stroke:#00AEEF;stroke-width:0.5;" rx="1.018" ry="0.509" transform="matrix(0.3799 -0.925 0.925 0.3799 55.8382 -15.1836)"/>
  <ellipse cy="-23.017" cx="45.106" style="fill-rule:evenodd;clip-rule:evenodd;fill:none;stroke:#00AEEF;stroke-width:0.5;" rx="0.814" ry="0.407" transform="matrix(0.3795 -0.9252 0.9252 0.3795 49.2825 27.4496)"/>
  <circle cy="-37.955" cx="13.415" style="fill-rule:evenodd;clip-rule:evenodd;fill:none;stroke:#00AEEF;stroke-width:0.5;" r="0.891"/>
  <ellipse cy="-53.067" cx="20.309" style="fill-rule:evenodd;clip-rule:evenodd;fill:none;stroke:#00AEEF;stroke-width:0.5;" rx="0.859" ry="0.515" transform="matrix(0.3572 -0.934 0.934 0.3572 62.6215 -15.1441)"/>
  <ellipse cy="-13.827" cx="20.82" style="fill-rule:evenodd;clip-rule:evenodd;fill:none;stroke:#00AEEF;stroke-width:0.5;" rx="0.859" ry="0.515" transform="matrix(0.4605 -0.8877 0.8877 0.4605 23.5054 11.0211)"/>
  <ellipse cy="-31.402" cx="23.374" style="fill-rule:evenodd;clip-rule:evenodd;fill:none;stroke:#00AEEF;stroke-width:0.5;" rx="0.859" ry="0.516" transform="matrix(0.3576 -0.9339 0.9339 0.3576 44.3405 1.6555)"/>
  <ellipse cy="-17.702" cx="3.073" style="fill-rule:evenodd;clip-rule:evenodd;fill:none;stroke:#00AEEF;stroke-width:0.5;" rx="0.859" ry="0.515" transform="matrix(0.3571 -0.9341 0.9341 0.3571 18.5107 -8.5103)"/>
  <path style="fill-rule:evenodd;clip-rule:evenodd;fill:none;stroke:#00AEEF;stroke-width:0.5;" d="M29.746-16.267    c0.2,0.336,0.619,0.544,0.934,0.467c0.315-0.076,0.408-0.41,0.208-0.745c-0.201-0.335-0.619-0.545-0.934-0.468    C29.639-16.937,29.545-16.602,29.746-16.267z"/>
  <path style="fill-rule:evenodd;clip-rule:evenodd;fill:none;stroke:#00AEEF;stroke-width:0.5;" d="M25.88-8.799    c0.315-0.077,0.408-0.411,0.208-0.747c-0.201-0.335-0.619-0.543-0.935-0.466c-0.314,0.076-0.408,0.41-0.208,0.745    C25.146-8.932,25.565-8.722,25.88-8.799z"/>
  <ellipse cy="-30.543" cx="61.279" style="fill-rule:evenodd;clip-rule:evenodd;fill:none;stroke:#00AEEF;stroke-width:0.5;" rx="0.859" ry="0.516" transform="matrix(0.4205 -0.9073 0.9073 0.4205 63.2238 37.8983)"/>
  <ellipse cy="-14.656" cx="51.417" style="fill-rule:evenodd;clip-rule:evenodd;fill:none;stroke:#00AEEF;stroke-width:0.5;" rx="0.859" ry="0.515" transform="matrix(0.074 -0.9973 0.9973 0.074 62.2296 37.7044)"/>
  <ellipse cy="-17.42" cx="38.352" style="fill-rule:evenodd;clip-rule:evenodd;fill:none;stroke:#00AEEF;stroke-width:0.5;" rx="0.859" ry="0.516" transform="matrix(0.0727 -0.9974 0.9974 0.0727 52.9366 22.0975)"/>
  <circle cy="-44.034" cx="49.955" style="fill-rule:evenodd;clip-rule:evenodd;fill:none;stroke:#00AEEF;stroke-width:0.5;stroke-linecap:round;stroke-linejoin:round;" r="0.382"/>
  <circle cy="-38.781" cx="52.28" style="fill-rule:evenodd;clip-rule:evenodd;fill:none;stroke:#00AEEF;stroke-width:0.5;stroke-linecap:round;stroke-linejoin:round;" r="0.382"/>
  <circle cy="-35.346" cx="42.615" style="fill-rule:evenodd;clip-rule:evenodd;fill:none;stroke:#00AEEF;stroke-width:0.5;stroke-linecap:round;stroke-linejoin:round;" r="0.382"/>
  <circle cy="-34.181" cx="57.48" style="fill-rule:evenodd;clip-rule:evenodd;fill:none;stroke:#00AEEF;stroke-width:0.5;stroke-linecap:round;stroke-linejoin:round;" r="0.382"/>
  <circle cy="-36.781" cx="29.28" style="fill-rule:evenodd;clip-rule:evenodd;fill:none;stroke:#00AEEF;stroke-width:0.5;stroke-linecap:round;stroke-linejoin:round;" r="0.382"/>
  <circle cy="-29.831" cx="52.43" style="fill-rule:evenodd;clip-rule:evenodd;fill:none;stroke:#00AEEF;stroke-width:0.5;stroke-linecap:round;stroke-linejoin:round;" r="0.382"/>
  <circle cy="-28.546" cx="36.315" style="fill-rule:evenodd;clip-rule:evenodd;fill:none;stroke:#00AEEF;stroke-width:0.5;stroke-linecap:round;stroke-linejoin:round;" r="0.381"/>
  <circle cy="-28.246" cx="21.215" style="fill-rule:evenodd;clip-rule:evenodd;fill:none;stroke:#00AEEF;stroke-width:0.5;stroke-linecap:round;stroke-linejoin:round;" r="0.382"/>
  <circle cy="-16.645" cx="41.615" style="fill-rule:evenodd;clip-rule:evenodd;fill:none;stroke:#00AEEF;stroke-width:0.5;stroke-linecap:round;stroke-linejoin:round;" r="0.382"/>
  <circle cy="-18.546" cx="49.015" style="fill-rule:evenodd;clip-rule:evenodd;fill:none;stroke:#00AEEF;stroke-width:0.5;stroke-linecap:round;stroke-linejoin:round;" r="0.381"/>
  <circle cy="-8.646" cx="48.615" style="fill-rule:evenodd;clip-rule:evenodd;fill:none;stroke:#00AEEF;stroke-width:0.5;stroke-linecap:round;stroke-linejoin:round;" r="0.382"/>
  <circle cy="-3.846" cx="45.515" style="fill-rule:evenodd;clip-rule:evenodd;fill:none;stroke:#00AEEF;stroke-width:0.5;stroke-linecap:round;stroke-linejoin:round;" r="0.382"/>
  <circle cy="-17.381" cx="8.63" style="fill-rule:evenodd;clip-rule:evenodd;fill:none;stroke:#00AEEF;stroke-width:0.5;stroke-linecap:round;stroke-linejoin:round;" r="0.382"/>
  <circle cy="-11.681" cx="7.28" style="fill-rule:evenodd;clip-rule:evenodd;fill:none;stroke:#00AEEF;stroke-width:0.5;stroke-linecap:round;stroke-linejoin:round;" r="0.382"/>
  <circle cy="-40.628" cx="15.197" style="fill-rule:evenodd;clip-rule:evenodd;fill:none;stroke:#00AEEF;stroke-width:0.5;stroke-linecap:round;stroke-linejoin:round;" r="0.382"/>
  <circle cy="-53.781" cx="3.48" style="fill-rule:evenodd;clip-rule:evenodd;fill:none;stroke:#00AEEF;stroke-width:0.5;stroke-linecap:round;stroke-linejoin:round;" r="0.382"/>
  <circle cy="-45.381" cx="8.28" style="fill-rule:evenodd;clip-rule:evenodd;fill:none;stroke:#00AEEF;stroke-width:0.5;stroke-linecap:round;stroke-linejoin:round;" r="0.382"/>
  <circle cy="-54.346" cx="50.315" style="fill-rule:evenodd;clip-rule:evenodd;fill:none;stroke:#00AEEF;stroke-width:0.5;stroke-linecap:round;stroke-linejoin:round;" r="0.382"/>
  <path style="fill-rule:evenodd;clip-rule:evenodd;fill:none;stroke:#00AEEF;stroke-width:0.5;" d="M30.277-62.479    c-0.027,0.429-0.27,0.764-0.562,0.764c-0.293,0-0.534-0.335-0.562-0.764"/>
  <path style="fill-rule:evenodd;clip-rule:evenodd;fill:none;stroke:#00AEEF;stroke-width:0.5;" d="M30.277-2    c0.002-0.026,0.003-0.056,0.003-0.084c0-0.469-0.253-0.849-0.566-0.849c-0.312,0-0.565,0.38-0.565,0.849    c0,0.028,0.001,0.058,0.003,0.084"/>
  <path style="fill-rule:evenodd;clip-rule:evenodd;fill:none;stroke:#00AEEF;stroke-width:0.5;" d="M12.477-62.479    c-0.027,0.429-0.27,0.764-0.562,0.764c-0.293,0-0.534-0.335-0.562-0.764"/>
  <path style="fill-rule:evenodd;clip-rule:evenodd;fill:none;stroke:#00AEEF;stroke-width:0.5;" d="M12.477-2    c0.002-0.026,0.003-0.056,0.003-0.084c0-0.469-0.253-0.849-0.565-0.849s-0.565,0.38-0.565,0.849c0,0.028,0.001,0.058,0.003,0.084"/>
  <path style="fill-rule:evenodd;clip-rule:evenodd;fill:none;stroke:#00AEEF;stroke-width:0.5;" d="M39.033-62.479    c-0.035,0.429-0.337,0.764-0.703,0.764s-0.668-0.335-0.703-0.764"/>
  <path style="fill-rule:evenodd;clip-rule:evenodd;fill:none;stroke:#00AEEF;stroke-width:0.5;" d="M39.033-2    c0.003-0.026,0.004-0.056,0.004-0.084c0-0.469-0.316-0.849-0.707-0.849c-0.391,0-0.707,0.38-0.707,0.849    c0,0.028,0.001,0.058,0.004,0.084"/>
  <path style="fill-rule:evenodd;clip-rule:evenodd;fill:none;stroke:#00AEEF;stroke-width:0.5;" d="M54.769-62.479    c-0.035,0.429-0.337,0.764-0.703,0.764s-0.668-0.335-0.703-0.764"/>
  <path style="fill-rule:evenodd;clip-rule:evenodd;fill:none;stroke:#00AEEF;stroke-width:0.5;" d="M54.769-2    c0.003-0.026,0.004-0.056,0.004-0.084c0-0.469-0.317-0.849-0.707-0.849c-0.391,0-0.707,0.38-0.707,0.849    c0,0.028,0.001,0.058,0.004,0.084"/>
  <path style="fill-rule:evenodd;clip-rule:evenodd;fill:none;stroke:#00AEEF;stroke-width:0.5;" d="M62.479-25.942    c-0.029-0.008-0.059-0.012-0.09-0.012c-0.331,0-0.6,0.443-0.6,0.99c0,0.547,0.27,0.989,0.6,0.989c0.031,0,0.061-0.003,0.09-0.011"/>
  <path style="fill-rule:evenodd;clip-rule:evenodd;fill:none;stroke:#00AEEF;stroke-width:0.5;" d="M2-23.985    c0.289-0.071,0.512-0.481,0.512-0.979c0-0.497-0.223-0.907-0.512-0.979"/>
  <path style="fill-rule:evenodd;clip-rule:evenodd;fill:none;stroke:#00AEEF;stroke-width:0.5;" d="M62.479-44.493    c-0.029-0.007-0.059-0.011-0.09-0.011c-0.331,0-0.6,0.443-0.6,0.99c0,0.546,0.27,0.99,0.6,0.99c0.031,0,0.061-0.005,0.09-0.012"/>
  <path style="fill-rule:evenodd;clip-rule:evenodd;fill:none;stroke:#00AEEF;stroke-width:0.5;" d="M2-42.535    c0.289-0.071,0.512-0.482,0.512-0.979c0-0.497-0.223-0.907-0.512-0.979"/>
  <path style="fill-rule:evenodd;clip-rule:evenodd;fill:none;stroke:#00AEEF;stroke-width:0.5;" d="M62.479-12.394    c-0.029-0.007-0.059-0.01-0.09-0.01c-0.331,0-0.6,0.442-0.6,0.988c0,0.548,0.27,0.99,0.6,0.99c0.031,0,0.061-0.003,0.09-0.01"/>
  <path style="fill-rule:evenodd;clip-rule:evenodd;fill:none;stroke:#00AEEF;stroke-width:0.5;" d="M2-10.435    c0.289-0.072,0.512-0.483,0.512-0.98c0-0.495-0.223-0.906-0.512-0.979"/>
  <path style="fill-rule:evenodd;clip-rule:evenodd;fill:none;stroke:#00AEEF;stroke-width:0.5;" d="M62.479-60.878    c-0.029-0.008-0.059-0.011-0.09-0.011c-0.331,0-0.6,0.442-0.6,0.989c0,0.547,0.27,0.99,0.6,0.99c0.031,0,0.061-0.004,0.09-0.011"/>
  <path style="fill-rule:evenodd;clip-rule:evenodd;fill:none;stroke:#00AEEF;stroke-width:0.5;" d="M2-58.92    c0.289-0.071,0.512-0.482,0.512-0.979c0-0.496-0.223-0.907-0.512-0.979"/>
 </g>
</svg>
