<?xml version="1.0"?>
<!-- Converted with SVG Converter - Version 0.9.6 (Compiled Thu Aug 31 10:01:05 2017) - Copyright (C) 2011 Nokia -->
<svg xmlns="http://www.w3.org/2000/svg" xmlns:xlink="http://www.w3.org/1999/xlink" xml:space="preserve" width="58.316" y="0px" version="1.1" baseProfile="tiny" x="0px" viewBox="1.86 -60.181 58.316 58.317" height="58.317">
 <g>
  <rect width="58.316" y="-60.181" x="1.86" style="fill:none;" height="58.317"/>
  <rect width="58.316" y="-60.181" x="1.86" height="58.317"/>
  <circle cy="-55.649" r="1.17" style="fill:none;stroke:#FFFFFF;stroke-width:0.43;" cx="13.841"/>
  <path style="fill:none;stroke:#FFFFFF;stroke-width:0.43;" d="M15.048-60.173c0,0.648,0.524,1.171,1.17,1.171    s1.17-0.523,1.17-1.171"/>
  <circle cy="-40.699" r="1.17" style="fill:none;stroke:#FFFFFF;stroke-width:0.43;" cx="16.218"/>
  <path style="fill:none;stroke:#FFFFFF;stroke-width:0.43;" d="M5.61-60.173c0,0.648,0.524,1.171,1.17,1.171s1.17-0.523,1.17-1.171    "/>
  <circle cy="-40.743" r="1.17" style="fill:none;stroke:#FFFFFF;stroke-width:0.43;" cx="6.78"/>
  <circle cy="-58.01" r="1.17" style="fill:none;stroke:#FFFFFF;stroke-width:0.43;" cx="21.319"/>
  <circle cy="-53.198" r="1.17" style="fill:none;stroke:#FFFFFF;stroke-width:0.43;" cx="21.319"/>
  <path style="fill:none;stroke:#FFFFFF;stroke-width:0.43;" d="M1.863-52.028c0.646,0,1.17-0.522,1.17-1.17    c0-0.645-0.524-1.17-1.17-1.17"/>
  <path style="fill:none;stroke:#FFFFFF;stroke-width:0.43;" d="M1.863-56.84c0.646,0,1.17-0.522,1.17-1.17    c0-0.645-0.524-1.17-1.17-1.17"/>
  <circle cy="-50.687" r="1.17" style="fill:none;stroke:#FFFFFF;stroke-width:0.43;" cx="6.984"/>
  <circle cy="-55.649" r="1.17" style="fill:none;stroke:#FFFFFF;stroke-width:0.43;" cx="8.701"/>
  <circle cy="-50.687" r="1.17" style="fill:none;stroke:#FFFFFF;stroke-width:0.43;" cx="16.068"/>
  <circle cy="-47.95" r="1.17" style="fill:none;stroke:#FFFFFF;stroke-width:0.43;" cx="11.055"/>
  <circle cy="-43.248" r="1.17" style="fill:none;stroke:#FFFFFF;stroke-width:0.43;" cx="11.039"/>
  <circle cy="-45.773" r="1.17" style="fill:none;stroke:#FFFFFF;stroke-width:0.43;" cx="17.906"/>
  <circle cy="-45.773" r="1.17" style="fill:none;stroke:#FFFFFF;stroke-width:0.43;" cx="4.083"/>
  <circle cy="-55.649" r="1.17" style="fill:none;stroke:#FFFFFF;stroke-width:0.43;" cx="33.341"/>
  <path style="fill:none;stroke:#FFFFFF;stroke-width:0.43;" d="M34.548-60.173c0,0.648,0.524,1.171,1.17,1.171    s1.17-0.523,1.17-1.171"/>
  <circle cy="-40.699" r="1.17" style="fill:none;stroke:#FFFFFF;stroke-width:0.43;" cx="35.718"/>
  <path style="fill:none;stroke:#FFFFFF;stroke-width:0.43;" d="M25.11-60.169c0,0.647,0.524,1.17,1.17,1.17s1.17-0.522,1.17-1.17"/>
  <circle cy="-40.743" r="1.17" style="fill:none;stroke:#FFFFFF;stroke-width:0.43;" cx="26.28"/>
  <circle cy="-58.01" r="1.17" style="fill:none;stroke:#FFFFFF;stroke-width:0.43;" cx="40.819"/>
  <circle cy="-53.198" r="1.17" style="fill:none;stroke:#FFFFFF;stroke-width:0.43;" cx="40.819"/>
  <circle cy="-50.687" r="1.17" style="fill:none;stroke:#FFFFFF;stroke-width:0.43;" cx="26.484"/>
  <circle cy="-55.649" r="1.17" style="fill:none;stroke:#FFFFFF;stroke-width:0.43;" cx="28.201"/>
  <circle cy="-50.687" r="1.17" style="fill:none;stroke:#FFFFFF;stroke-width:0.43;" cx="35.568"/>
  <circle cy="-47.95" r="1.17" style="fill:none;stroke:#FFFFFF;stroke-width:0.43;" cx="30.555"/>
  <circle cy="-43.248" r="1.17" style="fill:none;stroke:#FFFFFF;stroke-width:0.43;" cx="30.539"/>
  <circle cy="-45.773" r="1.17" style="fill:none;stroke:#FFFFFF;stroke-width:0.43;" cx="37.406"/>
  <circle cy="-45.773" r="1.17" style="fill:none;stroke:#FFFFFF;stroke-width:0.43;" cx="23.583"/>
  <circle cy="-55.649" r="1.17" style="fill:none;stroke:#FFFFFF;stroke-width:0.43;" cx="52.841"/>
  <path style="fill:none;stroke:#FFFFFF;stroke-width:0.43;" d="M54.048-60.173c0,0.648,0.524,1.171,1.17,1.171    s1.17-0.523,1.17-1.171"/>
  <circle cy="-40.699" r="1.17" style="fill:none;stroke:#FFFFFF;stroke-width:0.43;" cx="55.218"/>
  <path style="fill:none;stroke:#FFFFFF;stroke-width:0.43;" d="M44.61-60.173c0,0.648,0.524,1.171,1.17,1.171    s1.17-0.523,1.17-1.171"/>
  <circle cy="-40.743" r="1.17" style="fill:none;stroke:#FFFFFF;stroke-width:0.43;" cx="45.78"/>
  <path style="fill:none;stroke:#FFFFFF;stroke-width:0.43;" d="M60.194-59.18c-0.646,0-1.17,0.525-1.17,1.17    c0,0.647,0.524,1.17,1.17,1.17"/>
  <path style="fill:none;stroke:#FFFFFF;stroke-width:0.43;" d="M60.177-54.368c-0.646,0-1.17,0.525-1.17,1.17    c0,0.647,0.524,1.17,1.17,1.17"/>
  <circle cy="-50.687" r="1.17" style="fill:none;stroke:#FFFFFF;stroke-width:0.43;" cx="45.984"/>
  <circle cy="-55.649" r="1.17" style="fill:none;stroke:#FFFFFF;stroke-width:0.43;" cx="47.701"/>
  <circle cy="-50.687" r="1.17" style="fill:none;stroke:#FFFFFF;stroke-width:0.43;" cx="55.068"/>
  <circle cy="-47.95" r="1.17" style="fill:none;stroke:#FFFFFF;stroke-width:0.43;" cx="50.055"/>
  <circle cy="-43.248" r="1.17" style="fill:none;stroke:#FFFFFF;stroke-width:0.43;" cx="50.039"/>
  <circle cy="-45.773" r="1.17" style="fill:none;stroke:#FFFFFF;stroke-width:0.43;" cx="56.906"/>
  <circle cy="-45.773" r="1.17" style="fill:none;stroke:#FFFFFF;stroke-width:0.43;" cx="43.083"/>
  <circle cy="-36.212" r="1.17" style="fill:none;stroke:#FFFFFF;stroke-width:0.43;" cx="13.841"/>
  <circle cy="-40.699" r="1.17" style="fill:none;stroke:#FFFFFF;stroke-width:0.43;" cx="16.218"/>
  <circle cy="-21.262" r="1.17" style="fill:none;stroke:#FFFFFF;stroke-width:0.43;" cx="16.218"/>
  <circle cy="-21.305" r="1.17" style="fill:none;stroke:#FFFFFF;stroke-width:0.43;" cx="6.78"/>
  <circle cy="-38.573" r="1.17" style="fill:none;stroke:#FFFFFF;stroke-width:0.43;" cx="21.319"/>
  <circle cy="-33.76" r="1.17" style="fill:none;stroke:#FFFFFF;stroke-width:0.43;" cx="21.319"/>
  <path style="fill:none;stroke:#FFFFFF;stroke-width:0.43;" d="M1.861-32.59c0.646,0,1.17-0.522,1.17-1.17    c0-0.645-0.524-1.17-1.17-1.17"/>
  <path style="fill:none;stroke:#FFFFFF;stroke-width:0.43;" d="M1.868-37.403c0.646,0,1.17-0.522,1.17-1.17    c0-0.645-0.524-1.17-1.17-1.17"/>
  <circle cy="-31.249" r="1.17" style="fill:none;stroke:#FFFFFF;stroke-width:0.43;" cx="6.984"/>
  <circle cy="-36.212" r="1.17" style="fill:none;stroke:#FFFFFF;stroke-width:0.43;" cx="8.701"/>
  <circle cy="-31.249" r="1.17" style="fill:none;stroke:#FFFFFF;stroke-width:0.43;" cx="16.068"/>
  <circle cy="-28.513" r="1.17" style="fill:none;stroke:#FFFFFF;stroke-width:0.43;" cx="11.055"/>
  <circle cy="-23.811" r="1.17" style="fill:none;stroke:#FFFFFF;stroke-width:0.43;" cx="11.039"/>
  <circle cy="-26.336" r="1.17" style="fill:none;stroke:#FFFFFF;stroke-width:0.43;" cx="17.906"/>
  <circle cy="-26.336" r="1.17" style="fill:none;stroke:#FFFFFF;stroke-width:0.43;" cx="4.083"/>
  <circle cy="-36.212" r="1.17" style="fill:none;stroke:#FFFFFF;stroke-width:0.43;" cx="33.341"/>
  <circle cy="-40.699" r="1.17" style="fill:none;stroke:#FFFFFF;stroke-width:0.43;" cx="35.718"/>
  <circle cy="-21.262" r="1.17" style="fill:none;stroke:#FFFFFF;stroke-width:0.43;" cx="35.718"/>
  <circle cy="-21.305" r="1.17" style="fill:none;stroke:#FFFFFF;stroke-width:0.43;" cx="26.28"/>
  <circle cy="-38.573" r="1.17" style="fill:none;stroke:#FFFFFF;stroke-width:0.43;" cx="40.819"/>
  <circle cy="-33.76" r="1.17" style="fill:none;stroke:#FFFFFF;stroke-width:0.43;" cx="40.819"/>
  <circle cy="-31.249" r="1.17" style="fill:none;stroke:#FFFFFF;stroke-width:0.43;" cx="26.484"/>
  <circle cy="-36.212" r="1.17" style="fill:none;stroke:#FFFFFF;stroke-width:0.43;" cx="28.201"/>
  <circle cy="-31.249" r="1.17" style="fill:none;stroke:#FFFFFF;stroke-width:0.43;" cx="35.568"/>
  <circle cy="-28.513" r="1.17" style="fill:none;stroke:#FFFFFF;stroke-width:0.43;" cx="30.555"/>
  <circle cy="-23.811" r="1.17" style="fill:none;stroke:#FFFFFF;stroke-width:0.43;" cx="30.539"/>
  <circle cy="-26.336" r="1.17" style="fill:none;stroke:#FFFFFF;stroke-width:0.43;" cx="37.406"/>
  <circle cy="-26.336" r="1.17" style="fill:none;stroke:#FFFFFF;stroke-width:0.43;" cx="23.583"/>
  <circle cy="-36.212" r="1.17" style="fill:none;stroke:#FFFFFF;stroke-width:0.43;" cx="52.841"/>
  <circle cy="-40.699" r="1.17" style="fill:none;stroke:#FFFFFF;stroke-width:0.43;" cx="55.218"/>
  <circle cy="-21.262" r="1.17" style="fill:none;stroke:#FFFFFF;stroke-width:0.43;" cx="55.218"/>
  <path style="fill:none;stroke:#FFFFFF;stroke-width:0.43;" d="M60.177-39.743c-0.646,0-1.17,0.525-1.17,1.17    c0,0.647,0.524,1.17,1.17,1.17"/>
  <path style="fill:none;stroke:#FFFFFF;stroke-width:0.43;" d="M60.194-34.93c-0.646,0-1.17,0.525-1.17,1.17    c0,0.647,0.524,1.17,1.17,1.17"/>
  <circle cy="-31.249" r="1.17" style="fill:none;stroke:#FFFFFF;stroke-width:0.43;" cx="45.984"/>
  <circle cy="-36.212" r="1.17" style="fill:none;stroke:#FFFFFF;stroke-width:0.43;" cx="47.701"/>
  <circle cy="-31.249" r="1.17" style="fill:none;stroke:#FFFFFF;stroke-width:0.43;" cx="55.068"/>
  <circle cy="-28.513" r="1.17" style="fill:none;stroke:#FFFFFF;stroke-width:0.43;" cx="50.055"/>
  <circle cy="-23.811" r="1.17" style="fill:none;stroke:#FFFFFF;stroke-width:0.43;" cx="50.039"/>
  <circle cy="-26.336" r="1.17" style="fill:none;stroke:#FFFFFF;stroke-width:0.43;" cx="56.906"/>
  <circle cy="-26.336" r="1.17" style="fill:none;stroke:#FFFFFF;stroke-width:0.43;" cx="43.083"/>
  <circle cy="-16.774" r="1.17" style="fill:none;stroke:#FFFFFF;stroke-width:0.43;" cx="13.841"/>
  <circle cy="-21.262" r="1.17" style="fill:none;stroke:#FFFFFF;stroke-width:0.43;" cx="16.218"/>
  <path style="fill:none;stroke:#FFFFFF;stroke-width:0.43;" d="M17.388-1.86c0-0.645-0.524-1.17-1.17-1.17s-1.17,0.525-1.17,1.17"/>
  <path style="fill:none;stroke:#FFFFFF;stroke-width:0.43;" d="M7.95-1.868c0-0.645-0.524-1.17-1.17-1.17s-1.17,0.525-1.17,1.17"/>
  <circle cy="-19.135" r="1.17" style="fill:none;stroke:#FFFFFF;stroke-width:0.43;" cx="21.319"/>
  <circle cy="-14.323" r="1.17" style="fill:none;stroke:#FFFFFF;stroke-width:0.43;" cx="21.319"/>
  <path style="fill:none;stroke:#FFFFFF;stroke-width:0.43;" d="M1.861-13.153c0.646,0,1.17-0.523,1.17-1.17    c0-0.645-0.524-1.17-1.17-1.17"/>
  <path style="fill:none;stroke:#FFFFFF;stroke-width:0.43;" d="M1.86-17.965c0.646,0,1.17-0.523,1.17-1.17    c0-0.645-0.524-1.17-1.17-1.17"/>
  <circle cy="-11.811" r="1.17" style="fill:none;stroke:#FFFFFF;stroke-width:0.43;" cx="6.984"/>
  <circle cy="-16.774" r="1.17" style="fill:none;stroke:#FFFFFF;stroke-width:0.43;" cx="8.701"/>
  <circle cy="-11.811" r="1.17" style="fill:none;stroke:#FFFFFF;stroke-width:0.43;" cx="16.068"/>
  <circle cy="-9.075" r="1.17" style="fill:none;stroke:#FFFFFF;stroke-width:0.43;" cx="11.055"/>
  <circle cy="-4.373" r="1.17" style="fill:none;stroke:#FFFFFF;stroke-width:0.43;" cx="11.039"/>
  <circle cy="-6.898" r="1.17" style="fill:none;stroke:#FFFFFF;stroke-width:0.43;" cx="17.906"/>
  <circle cy="-6.898" r="1.17" style="fill:none;stroke:#FFFFFF;stroke-width:0.43;" cx="4.083"/>
  <circle cy="-16.774" r="1.17" style="fill:none;stroke:#FFFFFF;stroke-width:0.43;" cx="33.341"/>
  <circle cy="-21.262" r="1.17" style="fill:none;stroke:#FFFFFF;stroke-width:0.43;" cx="35.718"/>
  <path style="fill:none;stroke:#FFFFFF;stroke-width:0.43;" d="M36.888-1.869c0-0.645-0.524-1.17-1.17-1.17s-1.17,0.525-1.17,1.17"/>
  <path style="fill:none;stroke:#FFFFFF;stroke-width:0.43;" d="M27.45-1.868c0-0.645-0.524-1.17-1.17-1.17s-1.17,0.525-1.17,1.17"/>
  <circle cy="-19.135" r="1.17" style="fill:none;stroke:#FFFFFF;stroke-width:0.43;" cx="40.819"/>
  <circle cy="-14.323" r="1.17" style="fill:none;stroke:#FFFFFF;stroke-width:0.43;" cx="40.819"/>
  <circle cy="-11.811" r="1.17" style="fill:none;stroke:#FFFFFF;stroke-width:0.43;" cx="26.484"/>
  <circle cy="-16.774" r="1.17" style="fill:none;stroke:#FFFFFF;stroke-width:0.43;" cx="28.201"/>
  <circle cy="-11.811" r="1.17" style="fill:none;stroke:#FFFFFF;stroke-width:0.43;" cx="35.568"/>
  <circle cy="-9.075" r="1.17" style="fill:none;stroke:#FFFFFF;stroke-width:0.43;" cx="30.555"/>
  <circle cy="-4.373" r="1.17" style="fill:none;stroke:#FFFFFF;stroke-width:0.43;" cx="30.539"/>
  <circle cy="-6.898" r="1.17" style="fill:none;stroke:#FFFFFF;stroke-width:0.43;" cx="37.406"/>
  <circle cy="-6.898" r="1.17" style="fill:none;stroke:#FFFFFF;stroke-width:0.43;" cx="23.583"/>
  <circle cy="-16.774" r="1.17" style="fill:none;stroke:#FFFFFF;stroke-width:0.43;" cx="52.841"/>
  <circle cy="-21.262" r="1.17" style="fill:none;stroke:#FFFFFF;stroke-width:0.43;" cx="55.218"/>
  <path style="fill:none;stroke:#FFFFFF;stroke-width:0.43;" d="M56.388-1.869c0-0.645-0.524-1.17-1.17-1.17s-1.17,0.525-1.17,1.17"/>
  <circle cy="-21.262" r="1.17" style="fill:none;stroke:#FFFFFF;stroke-width:0.43;" cx="45.78"/>
  <path style="fill:none;stroke:#FFFFFF;stroke-width:0.43;" d="M46.95-1.868c0-0.645-0.524-1.17-1.17-1.17s-1.17,0.525-1.17,1.17"/>
  <path style="fill:none;stroke:#FFFFFF;stroke-width:0.43;" d="M60.194-20.305c-0.646,0-1.17,0.525-1.17,1.17    c0,0.647,0.524,1.17,1.17,1.17"/>
  <path style="fill:none;stroke:#FFFFFF;stroke-width:0.43;" d="M60.194-15.493c-0.646,0-1.17,0.525-1.17,1.17    c0,0.648,0.524,1.17,1.17,1.17"/>
  <circle cy="-11.811" r="1.17" style="fill:none;stroke:#FFFFFF;stroke-width:0.43;" cx="45.984"/>
  <circle cy="-16.774" r="1.17" style="fill:none;stroke:#FFFFFF;stroke-width:0.43;" cx="47.701"/>
  <circle cy="-11.811" r="1.17" style="fill:none;stroke:#FFFFFF;stroke-width:0.43;" cx="55.068"/>
  <circle cy="-9.075" r="1.17" style="fill:none;stroke:#FFFFFF;stroke-width:0.43;" cx="50.055"/>
  <circle cy="-4.373" r="1.17" style="fill:none;stroke:#FFFFFF;stroke-width:0.43;" cx="50.039"/>
  <circle cy="-6.898" r="1.17" style="fill:none;stroke:#FFFFFF;stroke-width:0.43;" cx="56.906"/>
  <circle cy="-6.898" r="1.17" style="fill:none;stroke:#FFFFFF;stroke-width:0.43;" cx="43.083"/>
 </g>
</svg>
