<?xml version="1.0"?>
<!-- Converted with SVG Converter - Version 0.9.6 (Compiled Thu Aug 31 10:01:05 2017) - Copyright (C) 2011 Nokia -->
<svg xmlns="http://www.w3.org/2000/svg" xml:space="preserve" version="1.1" width="58.317" xmlns:xlink="http://www.w3.org/1999/xlink" x="0px" height="58.317" viewBox="0.034 -58.356 58.317 58.317" baseProfile="tiny" y="0px">
 <g>
  <rect width="58.317" x="0.034" style="fill:none;" height="58.317" y="-58.356"/>
  <circle r="1.17" style="fill:none;stroke:#000000;stroke-width:0.35;" cx="12.015" cy="-53.824"/>
  <path style="fill:none;stroke:#000000;stroke-width:0.35;" d="M13.222-58.347c0,0.647,0.524,1.17,1.17,1.17s1.17-0.523,1.17-1.17"/>
  <circle r="1.17" style="fill:none;stroke:#000000;stroke-width:0.35;" cx="14.392" cy="-38.874"/>
  <path style="fill:none;stroke:#000000;stroke-width:0.35;" d="M3.785-58.347c0,0.647,0.524,1.17,1.17,1.17s1.17-0.523,1.17-1.17"/>
  <circle r="1.17" style="fill:none;stroke:#000000;stroke-width:0.35;" cx="4.955" cy="-38.918"/>
  <circle r="1.17" style="fill:none;stroke:#000000;stroke-width:0.35;" cx="19.493" cy="-56.185"/>
  <circle r="1.17" style="fill:none;stroke:#000000;stroke-width:0.35;" cx="19.493" cy="-51.373"/>
  <path style="fill:none;stroke:#000000;stroke-width:0.35;" d="M0.038-50.203c0.646,0,1.17-0.523,1.17-1.17    c0-0.645-0.524-1.17-1.17-1.17"/>
  <path style="fill:none;stroke:#000000;stroke-width:0.35;" d="M0.038-55.015c0.646,0,1.17-0.523,1.17-1.17    c0-0.645-0.524-1.17-1.17-1.17"/>
  <circle r="1.17" style="fill:none;stroke:#000000;stroke-width:0.35;" cx="5.158" cy="-48.861"/>
  <circle r="1.17" style="fill:none;stroke:#000000;stroke-width:0.35;" cx="6.876" cy="-53.824"/>
  <circle r="1.17" style="fill:none;stroke:#000000;stroke-width:0.35;" cx="14.242" cy="-48.861"/>
  <circle r="1.17" style="fill:none;stroke:#000000;stroke-width:0.35;" cx="9.229" cy="-46.125"/>
  <circle r="1.17" style="fill:none;stroke:#000000;stroke-width:0.35;" cx="9.213" cy="-41.423"/>
  <circle r="1.17" style="fill:none;stroke:#000000;stroke-width:0.35;" cx="16.08" cy="-43.948"/>
  <circle r="1.17" style="fill:none;stroke:#000000;stroke-width:0.35;" cx="2.258" cy="-43.948"/>
  <circle r="1.17" style="fill:none;stroke:#000000;stroke-width:0.35;" cx="31.515" cy="-53.824"/>
  <path style="fill:none;stroke:#000000;stroke-width:0.35;" d="M32.722-58.347c0,0.647,0.524,1.17,1.17,1.17    c0.646,0,1.17-0.523,1.17-1.17"/>
  <circle r="1.17" style="fill:none;stroke:#000000;stroke-width:0.35;" cx="33.892" cy="-38.874"/>
  <path style="fill:none;stroke:#000000;stroke-width:0.35;" d="M23.285-58.344c0,0.647,0.524,1.17,1.17,1.17    c0.646,0,1.17-0.523,1.17-1.17"/>
  <circle r="1.17" style="fill:none;stroke:#000000;stroke-width:0.35;" cx="24.455" cy="-38.918"/>
  <circle r="1.17" style="fill:none;stroke:#000000;stroke-width:0.35;" cx="38.993" cy="-56.185"/>
  <circle r="1.17" style="fill:none;stroke:#000000;stroke-width:0.35;" cx="38.993" cy="-51.373"/>
  <circle r="1.17" style="fill:none;stroke:#000000;stroke-width:0.35;" cx="24.658" cy="-48.861"/>
  <circle r="1.17" style="fill:none;stroke:#000000;stroke-width:0.35;" cx="26.376" cy="-53.824"/>
  <circle r="1.17" style="fill:none;stroke:#000000;stroke-width:0.35;" cx="33.742" cy="-48.861"/>
  <circle r="1.17" style="fill:none;stroke:#000000;stroke-width:0.35;" cx="28.729" cy="-46.125"/>
  <circle r="1.17" style="fill:none;stroke:#000000;stroke-width:0.35;" cx="28.713" cy="-41.423"/>
  <circle r="1.17" style="fill:none;stroke:#000000;stroke-width:0.35;" cx="35.581" cy="-43.948"/>
  <circle r="1.17" style="fill:none;stroke:#000000;stroke-width:0.35;" cx="21.758" cy="-43.948"/>
  <circle r="1.17" style="fill:none;stroke:#000000;stroke-width:0.35;" cx="51.015" cy="-53.824"/>
  <path style="fill:none;stroke:#000000;stroke-width:0.35;" d="M52.222-58.347c0,0.647,0.524,1.17,1.17,1.17    c0.646,0,1.17-0.523,1.17-1.17"/>
  <circle r="1.17" style="fill:none;stroke:#000000;stroke-width:0.35;" cx="53.392" cy="-38.874"/>
  <path style="fill:none;stroke:#000000;stroke-width:0.35;" d="M42.785-58.347c0,0.647,0.524,1.17,1.17,1.17    c0.646,0,1.17-0.523,1.17-1.17"/>
  <circle r="1.17" style="fill:none;stroke:#000000;stroke-width:0.35;" cx="43.955" cy="-38.918"/>
  <path style="fill:none;stroke:#000000;stroke-width:0.35;" d="M58.368-57.355c-0.646,0-1.17,0.525-1.17,1.17    c0,0.647,0.524,1.17,1.17,1.17"/>
  <path style="fill:none;stroke:#000000;stroke-width:0.35;" d="M58.351-52.543c-0.646,0-1.17,0.525-1.17,1.17    c0,0.647,0.524,1.17,1.17,1.17"/>
  <circle r="1.17" style="fill:none;stroke:#000000;stroke-width:0.35;" cx="44.158" cy="-48.861"/>
  <circle r="1.17" style="fill:none;stroke:#000000;stroke-width:0.35;" cx="45.876" cy="-53.824"/>
  <circle r="1.17" style="fill:none;stroke:#000000;stroke-width:0.35;" cx="53.242" cy="-48.861"/>
  <circle r="1.17" style="fill:none;stroke:#000000;stroke-width:0.35;" cx="48.229" cy="-46.125"/>
  <circle r="1.17" style="fill:none;stroke:#000000;stroke-width:0.35;" cx="48.213" cy="-41.423"/>
  <circle r="1.17" style="fill:none;stroke:#000000;stroke-width:0.35;" cx="55.081" cy="-43.948"/>
  <circle r="1.17" style="fill:none;stroke:#000000;stroke-width:0.35;" cx="41.258" cy="-43.948"/>
  <circle r="1.17" style="fill:none;stroke:#000000;stroke-width:0.35;" cx="12.015" cy="-34.387"/>
  <circle r="1.17" style="fill:none;stroke:#000000;stroke-width:0.35;" cx="14.392" cy="-38.874"/>
  <circle r="1.17" style="fill:none;stroke:#000000;stroke-width:0.35;" cx="14.392" cy="-19.437"/>
  <circle r="1.17" style="fill:none;stroke:#000000;stroke-width:0.35;" cx="4.955" cy="-19.48"/>
  <circle r="1.17" style="fill:none;stroke:#000000;stroke-width:0.35;" cx="19.493" cy="-36.748"/>
  <circle r="1.17" style="fill:none;stroke:#000000;stroke-width:0.35;" cx="19.493" cy="-31.935"/>
  <path style="fill:none;stroke:#000000;stroke-width:0.35;" d="M0.035-30.765c0.646,0,1.17-0.523,1.17-1.17    c0-0.645-0.524-1.17-1.17-1.17"/>
  <path style="fill:none;stroke:#000000;stroke-width:0.35;" d="M0.043-35.578c0.646,0,1.17-0.523,1.17-1.17    c0-0.645-0.524-1.17-1.17-1.17"/>
  <circle r="1.17" style="fill:none;stroke:#000000;stroke-width:0.35;" cx="5.158" cy="-29.424"/>
  <circle r="1.17" style="fill:none;stroke:#000000;stroke-width:0.35;" cx="6.876" cy="-34.387"/>
  <circle r="1.17" style="fill:none;stroke:#000000;stroke-width:0.35;" cx="14.242" cy="-29.424"/>
  <circle r="1.17" style="fill:none;stroke:#000000;stroke-width:0.35;" cx="9.229" cy="-26.688"/>
  <circle r="1.17" style="fill:none;stroke:#000000;stroke-width:0.35;" cx="9.213" cy="-21.985"/>
  <circle r="1.17" style="fill:none;stroke:#000000;stroke-width:0.35;" cx="16.08" cy="-24.511"/>
  <circle r="1.17" style="fill:none;stroke:#000000;stroke-width:0.35;" cx="2.258" cy="-24.511"/>
  <circle r="1.17" style="fill:none;stroke:#000000;stroke-width:0.35;" cx="31.515" cy="-34.387"/>
  <circle r="1.17" style="fill:none;stroke:#000000;stroke-width:0.35;" cx="33.892" cy="-38.874"/>
  <circle r="1.17" style="fill:none;stroke:#000000;stroke-width:0.35;" cx="33.892" cy="-19.437"/>
  <circle r="1.17" style="fill:none;stroke:#000000;stroke-width:0.35;" cx="24.455" cy="-19.48"/>
  <circle r="1.17" style="fill:none;stroke:#000000;stroke-width:0.35;" cx="38.993" cy="-36.748"/>
  <circle r="1.17" style="fill:none;stroke:#000000;stroke-width:0.35;" cx="38.993" cy="-31.935"/>
  <circle r="1.17" style="fill:none;stroke:#000000;stroke-width:0.35;" cx="24.658" cy="-29.424"/>
  <circle r="1.17" style="fill:none;stroke:#000000;stroke-width:0.35;" cx="26.376" cy="-34.387"/>
  <circle r="1.17" style="fill:none;stroke:#000000;stroke-width:0.35;" cx="33.742" cy="-29.424"/>
  <circle r="1.17" style="fill:none;stroke:#000000;stroke-width:0.35;" cx="28.729" cy="-26.688"/>
  <circle r="1.17" style="fill:none;stroke:#000000;stroke-width:0.35;" cx="28.713" cy="-21.985"/>
  <circle r="1.17" style="fill:none;stroke:#000000;stroke-width:0.35;" cx="35.581" cy="-24.511"/>
  <circle r="1.17" style="fill:none;stroke:#000000;stroke-width:0.35;" cx="21.758" cy="-24.511"/>
  <circle r="1.17" style="fill:none;stroke:#000000;stroke-width:0.35;" cx="51.015" cy="-34.387"/>
  <circle r="1.17" style="fill:none;stroke:#000000;stroke-width:0.35;" cx="53.392" cy="-38.874"/>
  <circle r="1.17" style="fill:none;stroke:#000000;stroke-width:0.35;" cx="53.392" cy="-19.437"/>
  <path style="fill:none;stroke:#000000;stroke-width:0.35;" d="M58.351-37.918c-0.646,0-1.17,0.525-1.17,1.17    c0,0.647,0.524,1.17,1.17,1.17"/>
  <path style="fill:none;stroke:#000000;stroke-width:0.35;" d="M58.368-33.105c-0.646,0-1.17,0.525-1.17,1.17    c0,0.647,0.524,1.17,1.17,1.17"/>
  <circle r="1.17" style="fill:none;stroke:#000000;stroke-width:0.35;" cx="44.158" cy="-29.424"/>
  <circle r="1.17" style="fill:none;stroke:#000000;stroke-width:0.35;" cx="45.876" cy="-34.387"/>
  <circle r="1.17" style="fill:none;stroke:#000000;stroke-width:0.35;" cx="53.242" cy="-29.424"/>
  <circle r="1.17" style="fill:none;stroke:#000000;stroke-width:0.35;" cx="48.229" cy="-26.688"/>
  <circle r="1.17" style="fill:none;stroke:#000000;stroke-width:0.35;" cx="48.213" cy="-21.985"/>
  <circle r="1.17" style="fill:none;stroke:#000000;stroke-width:0.35;" cx="55.081" cy="-24.511"/>
  <circle r="1.17" style="fill:none;stroke:#000000;stroke-width:0.35;" cx="41.258" cy="-24.511"/>
  <circle r="1.17" style="fill:none;stroke:#000000;stroke-width:0.35;" cx="12.015" cy="-14.949"/>
  <circle r="1.17" style="fill:none;stroke:#000000;stroke-width:0.35;" cx="14.392" cy="-19.437"/>
  <path style="fill:none;stroke:#000000;stroke-width:0.35;" d="M15.562-0.035c0-0.645-0.524-1.17-1.17-1.17s-1.17,0.525-1.17,1.17"/>
  <path style="fill:none;stroke:#000000;stroke-width:0.35;" d="M6.125-0.043c0-0.645-0.524-1.17-1.17-1.17s-1.17,0.525-1.17,1.17"/>
  <circle r="1.17" style="fill:none;stroke:#000000;stroke-width:0.35;" cx="19.493" cy="-17.31"/>
  <circle r="1.17" style="fill:none;stroke:#000000;stroke-width:0.35;" cx="19.493" cy="-12.498"/>
  <path style="fill:none;stroke:#000000;stroke-width:0.35;" d="M0.035-11.328c0.646,0,1.17-0.523,1.17-1.17    c0-0.645-0.524-1.17-1.17-1.17"/>
  <path style="fill:none;stroke:#000000;stroke-width:0.35;" d="M0.034-16.14c0.646,0,1.17-0.523,1.17-1.17    c0-0.645-0.524-1.17-1.17-1.17"/>
  <circle r="1.17" style="fill:none;stroke:#000000;stroke-width:0.35;" cx="5.158" cy="-9.986"/>
  <circle r="1.17" style="fill:none;stroke:#000000;stroke-width:0.35;" cx="6.876" cy="-14.949"/>
  <circle r="1.17" style="fill:none;stroke:#000000;stroke-width:0.35;" cx="14.242" cy="-9.986"/>
  <circle r="1.17" style="fill:none;stroke:#000000;stroke-width:0.35;" cx="9.229" cy="-7.25"/>
  <circle r="1.17" style="fill:none;stroke:#000000;stroke-width:0.35;" cx="9.213" cy="-2.548"/>
  <circle r="1.17" style="fill:none;stroke:#000000;stroke-width:0.35;" cx="16.08" cy="-5.073"/>
  <circle r="1.17" style="fill:none;stroke:#000000;stroke-width:0.35;" cx="2.258" cy="-5.073"/>
  <circle r="1.17" style="fill:none;stroke:#000000;stroke-width:0.35;" cx="31.515" cy="-14.949"/>
  <circle r="1.17" style="fill:none;stroke:#000000;stroke-width:0.35;" cx="33.892" cy="-19.437"/>
  <path style="fill:none;stroke:#000000;stroke-width:0.35;" d="M35.062-0.044c0-0.645-0.524-1.17-1.17-1.17    c-0.646,0-1.17,0.525-1.17,1.17"/>
  <path style="fill:none;stroke:#000000;stroke-width:0.35;" d="M25.625-0.043c0-0.645-0.524-1.17-1.17-1.17    c-0.646,0-1.17,0.525-1.17,1.17"/>
  <circle r="1.17" style="fill:none;stroke:#000000;stroke-width:0.35;" cx="38.993" cy="-17.31"/>
  <circle r="1.17" style="fill:none;stroke:#000000;stroke-width:0.35;" cx="38.993" cy="-12.498"/>
  <circle r="1.17" style="fill:none;stroke:#000000;stroke-width:0.35;" cx="24.658" cy="-9.986"/>
  <circle r="1.17" style="fill:none;stroke:#000000;stroke-width:0.35;" cx="26.376" cy="-14.949"/>
  <circle r="1.17" style="fill:none;stroke:#000000;stroke-width:0.35;" cx="33.742" cy="-9.986"/>
  <circle r="1.17" style="fill:none;stroke:#000000;stroke-width:0.35;" cx="28.729" cy="-7.25"/>
  <circle r="1.17" style="fill:none;stroke:#000000;stroke-width:0.35;" cx="28.713" cy="-2.548"/>
  <circle r="1.17" style="fill:none;stroke:#000000;stroke-width:0.35;" cx="35.581" cy="-5.073"/>
  <circle r="1.17" style="fill:none;stroke:#000000;stroke-width:0.35;" cx="21.758" cy="-5.073"/>
  <circle r="1.17" style="fill:none;stroke:#000000;stroke-width:0.35;" cx="51.015" cy="-14.949"/>
  <circle r="1.17" style="fill:none;stroke:#000000;stroke-width:0.35;" cx="53.392" cy="-19.437"/>
  <path style="fill:none;stroke:#000000;stroke-width:0.35;" d="M54.562-0.044c0-0.645-0.524-1.17-1.17-1.17    c-0.646,0-1.17,0.525-1.17,1.17"/>
  <circle r="1.17" style="fill:none;stroke:#000000;stroke-width:0.35;" cx="43.955" cy="-19.437"/>
  <path style="fill:none;stroke:#000000;stroke-width:0.35;" d="M45.125-0.043c0-0.645-0.524-1.17-1.17-1.17    c-0.646,0-1.17,0.525-1.17,1.17"/>
  <path style="fill:none;stroke:#000000;stroke-width:0.35;" d="M58.368-18.48c-0.646,0-1.17,0.525-1.17,1.17    c0,0.647,0.524,1.17,1.17,1.17"/>
  <path style="fill:none;stroke:#000000;stroke-width:0.35;" d="M58.368-13.668c-0.646,0-1.17,0.525-1.17,1.17    c0,0.647,0.524,1.17,1.17,1.17"/>
  <circle r="1.17" style="fill:none;stroke:#000000;stroke-width:0.35;" cx="44.158" cy="-9.986"/>
  <circle r="1.17" style="fill:none;stroke:#000000;stroke-width:0.35;" cx="45.876" cy="-14.949"/>
  <circle r="1.17" style="fill:none;stroke:#000000;stroke-width:0.35;" cx="53.242" cy="-9.986"/>
  <circle r="1.17" style="fill:none;stroke:#000000;stroke-width:0.35;" cx="48.229" cy="-7.25"/>
  <circle r="1.17" style="fill:none;stroke:#000000;stroke-width:0.35;" cx="48.213" cy="-2.548"/>
  <circle r="1.17" style="fill:none;stroke:#000000;stroke-width:0.35;" cx="55.081" cy="-5.073"/>
  <circle r="1.17" style="fill:none;stroke:#000000;stroke-width:0.35;" cx="41.258" cy="-5.073"/>
 </g>
</svg>
