<?xml version="1.0"?>
<!-- Converted with SVG Converter - Version 0.9.6 (Compiled Thu Aug 31 10:01:05 2017) - Copyright (C) 2011 Nokia -->
<svg xmlns="http://www.w3.org/2000/svg" height="58.317" x="0px" xmlns:xlink="http://www.w3.org/1999/xlink" baseProfile="tiny" version="1.1" y="0px" viewBox="0.034 -58.356 58.317 58.317" xml:space="preserve" width="58.317">
 <g>
  <rect style="fill:none;" height="58.317" x="0.034" y="-58.356" width="58.317"/>
  <circle style="fill:none;stroke:#000000;stroke-width:0.35;" cy="-53.824" cx="12.015" r="1.17"/>
  <path style="fill:none;stroke:#000000;stroke-width:0.35;" d="M13.222-58.347c0,0.647,0.524,1.17,1.17,1.17s1.17-0.523,1.17-1.17"/>
  <circle style="fill:none;stroke:#000000;stroke-width:0.35;" cy="-38.874" cx="14.392" r="1.17"/>
  <path style="fill:none;stroke:#000000;stroke-width:0.35;" d="M3.785-58.347c0,0.647,0.524,1.17,1.17,1.17s1.17-0.523,1.17-1.17"/>
  <circle style="fill:none;stroke:#000000;stroke-width:0.35;" cy="-38.918" cx="4.955" r="1.17"/>
  <circle style="fill:none;stroke:#000000;stroke-width:0.35;" cy="-56.185" cx="19.493" r="1.17"/>
  <circle style="fill:none;stroke:#000000;stroke-width:0.35;" cy="-51.373" cx="19.493" r="1.17"/>
  <path style="fill:none;stroke:#000000;stroke-width:0.35;" d="M0.038-50.203c0.646,0,1.17-0.523,1.17-1.17    c0-0.645-0.524-1.17-1.17-1.17"/>
  <path style="fill:none;stroke:#000000;stroke-width:0.35;" d="M0.038-55.015c0.646,0,1.17-0.523,1.17-1.17    c0-0.645-0.524-1.17-1.17-1.17"/>
  <circle style="fill:none;stroke:#000000;stroke-width:0.35;" cy="-48.861" cx="5.158" r="1.17"/>
  <circle style="fill:none;stroke:#000000;stroke-width:0.35;" cy="-53.824" cx="6.876" r="1.17"/>
  <circle style="fill:none;stroke:#000000;stroke-width:0.35;" cy="-48.861" cx="14.242" r="1.17"/>
  <circle style="fill:none;stroke:#000000;stroke-width:0.35;" cy="-46.125" cx="9.229" r="1.17"/>
  <circle style="fill:none;stroke:#000000;stroke-width:0.35;" cy="-41.423" cx="9.213" r="1.17"/>
  <circle style="fill:none;stroke:#000000;stroke-width:0.35;" cy="-43.948" cx="16.08" r="1.17"/>
  <circle style="fill:none;stroke:#000000;stroke-width:0.35;" cy="-43.948" cx="2.258" r="1.17"/>
  <circle style="fill:none;stroke:#000000;stroke-width:0.35;" cy="-53.824" cx="31.515" r="1.17"/>
  <path style="fill:none;stroke:#000000;stroke-width:0.35;" d="M32.722-58.347c0,0.647,0.524,1.17,1.17,1.17    c0.646,0,1.17-0.523,1.17-1.17"/>
  <circle style="fill:none;stroke:#000000;stroke-width:0.35;" cy="-38.874" cx="33.892" r="1.17"/>
  <path style="fill:none;stroke:#000000;stroke-width:0.35;" d="M23.285-58.344c0,0.647,0.524,1.17,1.17,1.17    c0.646,0,1.17-0.523,1.17-1.17"/>
  <circle style="fill:none;stroke:#000000;stroke-width:0.35;" cy="-38.918" cx="24.455" r="1.17"/>
  <circle style="fill:none;stroke:#000000;stroke-width:0.35;" cy="-56.185" cx="38.993" r="1.17"/>
  <circle style="fill:none;stroke:#000000;stroke-width:0.35;" cy="-51.373" cx="38.993" r="1.17"/>
  <circle style="fill:none;stroke:#000000;stroke-width:0.35;" cy="-48.861" cx="24.658" r="1.17"/>
  <circle style="fill:none;stroke:#000000;stroke-width:0.35;" cy="-53.824" cx="26.376" r="1.17"/>
  <circle style="fill:none;stroke:#000000;stroke-width:0.35;" cy="-48.861" cx="33.742" r="1.17"/>
  <circle style="fill:none;stroke:#000000;stroke-width:0.35;" cy="-46.125" cx="28.729" r="1.17"/>
  <circle style="fill:none;stroke:#000000;stroke-width:0.35;" cy="-41.423" cx="28.713" r="1.17"/>
  <circle style="fill:none;stroke:#000000;stroke-width:0.35;" cy="-43.948" cx="35.581" r="1.17"/>
  <circle style="fill:none;stroke:#000000;stroke-width:0.35;" cy="-43.948" cx="21.758" r="1.17"/>
  <circle style="fill:none;stroke:#000000;stroke-width:0.35;" cy="-53.824" cx="51.015" r="1.17"/>
  <path style="fill:none;stroke:#000000;stroke-width:0.35;" d="M52.222-58.347c0,0.647,0.524,1.17,1.17,1.17    c0.646,0,1.17-0.523,1.17-1.17"/>
  <circle style="fill:none;stroke:#000000;stroke-width:0.35;" cy="-38.874" cx="53.392" r="1.17"/>
  <path style="fill:none;stroke:#000000;stroke-width:0.35;" d="M42.785-58.347c0,0.647,0.524,1.17,1.17,1.17    c0.646,0,1.17-0.523,1.17-1.17"/>
  <circle style="fill:none;stroke:#000000;stroke-width:0.35;" cy="-38.918" cx="43.955" r="1.17"/>
  <path style="fill:none;stroke:#000000;stroke-width:0.35;" d="M58.368-57.355c-0.646,0-1.17,0.525-1.17,1.17    c0,0.647,0.524,1.17,1.17,1.17"/>
  <path style="fill:none;stroke:#000000;stroke-width:0.35;" d="M58.351-52.543c-0.646,0-1.17,0.525-1.17,1.17    c0,0.647,0.524,1.17,1.17,1.17"/>
  <circle style="fill:none;stroke:#000000;stroke-width:0.35;" cy="-48.861" cx="44.158" r="1.17"/>
  <circle style="fill:none;stroke:#000000;stroke-width:0.35;" cy="-53.824" cx="45.876" r="1.17"/>
  <circle style="fill:none;stroke:#000000;stroke-width:0.35;" cy="-48.861" cx="53.242" r="1.17"/>
  <circle style="fill:none;stroke:#000000;stroke-width:0.35;" cy="-46.125" cx="48.229" r="1.17"/>
  <circle style="fill:none;stroke:#000000;stroke-width:0.35;" cy="-41.423" cx="48.213" r="1.17"/>
  <circle style="fill:none;stroke:#000000;stroke-width:0.35;" cy="-43.948" cx="55.081" r="1.17"/>
  <circle style="fill:none;stroke:#000000;stroke-width:0.35;" cy="-43.948" cx="41.258" r="1.17"/>
  <circle style="fill:none;stroke:#000000;stroke-width:0.35;" cy="-34.387" cx="12.015" r="1.17"/>
  <circle style="fill:none;stroke:#000000;stroke-width:0.35;" cy="-38.874" cx="14.392" r="1.17"/>
  <circle style="fill:none;stroke:#000000;stroke-width:0.35;" cy="-19.437" cx="14.392" r="1.17"/>
  <circle style="fill:none;stroke:#000000;stroke-width:0.35;" cy="-19.48" cx="4.955" r="1.17"/>
  <circle style="fill:none;stroke:#000000;stroke-width:0.35;" cy="-36.748" cx="19.493" r="1.17"/>
  <circle style="fill:none;stroke:#000000;stroke-width:0.35;" cy="-31.935" cx="19.493" r="1.17"/>
  <path style="fill:none;stroke:#000000;stroke-width:0.35;" d="M0.035-30.765c0.646,0,1.17-0.523,1.17-1.17    c0-0.645-0.524-1.17-1.17-1.17"/>
  <path style="fill:none;stroke:#000000;stroke-width:0.35;" d="M0.043-35.578c0.646,0,1.17-0.523,1.17-1.17    c0-0.645-0.524-1.17-1.17-1.17"/>
  <circle style="fill:none;stroke:#000000;stroke-width:0.35;" cy="-29.424" cx="5.158" r="1.17"/>
  <circle style="fill:none;stroke:#000000;stroke-width:0.35;" cy="-34.387" cx="6.876" r="1.17"/>
  <circle style="fill:none;stroke:#000000;stroke-width:0.35;" cy="-29.424" cx="14.242" r="1.17"/>
  <circle style="fill:none;stroke:#000000;stroke-width:0.35;" cy="-26.688" cx="9.229" r="1.17"/>
  <circle style="fill:none;stroke:#000000;stroke-width:0.35;" cy="-21.985" cx="9.213" r="1.17"/>
  <circle style="fill:none;stroke:#000000;stroke-width:0.35;" cy="-24.511" cx="16.08" r="1.17"/>
  <circle style="fill:none;stroke:#000000;stroke-width:0.35;" cy="-24.511" cx="2.258" r="1.17"/>
  <circle style="fill:none;stroke:#000000;stroke-width:0.35;" cy="-34.387" cx="31.515" r="1.17"/>
  <circle style="fill:none;stroke:#000000;stroke-width:0.35;" cy="-38.874" cx="33.892" r="1.17"/>
  <circle style="fill:none;stroke:#000000;stroke-width:0.35;" cy="-19.437" cx="33.892" r="1.17"/>
  <circle style="fill:none;stroke:#000000;stroke-width:0.35;" cy="-19.48" cx="24.455" r="1.17"/>
  <circle style="fill:none;stroke:#000000;stroke-width:0.35;" cy="-36.748" cx="38.993" r="1.17"/>
  <circle style="fill:none;stroke:#000000;stroke-width:0.35;" cy="-31.935" cx="38.993" r="1.17"/>
  <circle style="fill:none;stroke:#000000;stroke-width:0.35;" cy="-29.424" cx="24.658" r="1.17"/>
  <circle style="fill:none;stroke:#000000;stroke-width:0.35;" cy="-34.387" cx="26.376" r="1.17"/>
  <circle style="fill:none;stroke:#000000;stroke-width:0.35;" cy="-29.424" cx="33.742" r="1.17"/>
  <circle style="fill:none;stroke:#000000;stroke-width:0.35;" cy="-26.688" cx="28.729" r="1.17"/>
  <circle style="fill:none;stroke:#000000;stroke-width:0.35;" cy="-21.985" cx="28.713" r="1.17"/>
  <circle style="fill:none;stroke:#000000;stroke-width:0.35;" cy="-24.511" cx="35.581" r="1.17"/>
  <circle style="fill:none;stroke:#000000;stroke-width:0.35;" cy="-24.511" cx="21.758" r="1.17"/>
  <circle style="fill:none;stroke:#000000;stroke-width:0.35;" cy="-34.387" cx="51.015" r="1.17"/>
  <circle style="fill:none;stroke:#000000;stroke-width:0.35;" cy="-38.874" cx="53.392" r="1.17"/>
  <circle style="fill:none;stroke:#000000;stroke-width:0.35;" cy="-19.437" cx="53.392" r="1.17"/>
  <path style="fill:none;stroke:#000000;stroke-width:0.35;" d="M58.351-37.918c-0.646,0-1.17,0.525-1.17,1.17    c0,0.647,0.524,1.17,1.17,1.17"/>
  <path style="fill:none;stroke:#000000;stroke-width:0.35;" d="M58.368-33.105c-0.646,0-1.17,0.525-1.17,1.17    c0,0.647,0.524,1.17,1.17,1.17"/>
  <circle style="fill:none;stroke:#000000;stroke-width:0.35;" cy="-29.424" cx="44.158" r="1.17"/>
  <circle style="fill:none;stroke:#000000;stroke-width:0.35;" cy="-34.387" cx="45.876" r="1.17"/>
  <circle style="fill:none;stroke:#000000;stroke-width:0.35;" cy="-29.424" cx="53.242" r="1.17"/>
  <circle style="fill:none;stroke:#000000;stroke-width:0.35;" cy="-26.688" cx="48.229" r="1.17"/>
  <circle style="fill:none;stroke:#000000;stroke-width:0.35;" cy="-21.985" cx="48.213" r="1.17"/>
  <circle style="fill:none;stroke:#000000;stroke-width:0.35;" cy="-24.511" cx="55.081" r="1.17"/>
  <circle style="fill:none;stroke:#000000;stroke-width:0.35;" cy="-24.511" cx="41.258" r="1.17"/>
  <circle style="fill:none;stroke:#000000;stroke-width:0.35;" cy="-14.949" cx="12.015" r="1.17"/>
  <circle style="fill:none;stroke:#000000;stroke-width:0.35;" cy="-19.437" cx="14.392" r="1.17"/>
  <path style="fill:none;stroke:#000000;stroke-width:0.35;" d="M15.562-0.035c0-0.645-0.524-1.17-1.17-1.17s-1.17,0.525-1.17,1.17"/>
  <path style="fill:none;stroke:#000000;stroke-width:0.35;" d="M6.125-0.043c0-0.645-0.524-1.17-1.17-1.17s-1.17,0.525-1.17,1.17"/>
  <circle style="fill:none;stroke:#000000;stroke-width:0.35;" cy="-17.31" cx="19.493" r="1.17"/>
  <circle style="fill:none;stroke:#000000;stroke-width:0.35;" cy="-12.498" cx="19.493" r="1.17"/>
  <path style="fill:none;stroke:#000000;stroke-width:0.35;" d="M0.035-11.328c0.646,0,1.17-0.523,1.17-1.17    c0-0.645-0.524-1.17-1.17-1.17"/>
  <path style="fill:none;stroke:#000000;stroke-width:0.35;" d="M0.034-16.14c0.646,0,1.17-0.523,1.17-1.17    c0-0.645-0.524-1.17-1.17-1.17"/>
  <circle style="fill:none;stroke:#000000;stroke-width:0.35;" cy="-9.986" cx="5.158" r="1.17"/>
  <circle style="fill:none;stroke:#000000;stroke-width:0.35;" cy="-14.949" cx="6.876" r="1.17"/>
  <circle style="fill:none;stroke:#000000;stroke-width:0.35;" cy="-9.986" cx="14.242" r="1.17"/>
  <circle style="fill:none;stroke:#000000;stroke-width:0.35;" cy="-7.25" cx="9.229" r="1.17"/>
  <circle style="fill:none;stroke:#000000;stroke-width:0.35;" cy="-2.548" cx="9.213" r="1.17"/>
  <circle style="fill:none;stroke:#000000;stroke-width:0.35;" cy="-5.073" cx="16.08" r="1.17"/>
  <circle style="fill:none;stroke:#000000;stroke-width:0.35;" cy="-5.073" cx="2.258" r="1.17"/>
  <circle style="fill:none;stroke:#000000;stroke-width:0.35;" cy="-14.949" cx="31.515" r="1.17"/>
  <circle style="fill:none;stroke:#000000;stroke-width:0.35;" cy="-19.437" cx="33.892" r="1.17"/>
  <path style="fill:none;stroke:#000000;stroke-width:0.35;" d="M35.062-0.044c0-0.645-0.524-1.17-1.17-1.17    c-0.646,0-1.17,0.525-1.17,1.17"/>
  <path style="fill:none;stroke:#000000;stroke-width:0.35;" d="M25.625-0.043c0-0.645-0.524-1.17-1.17-1.17    c-0.646,0-1.17,0.525-1.17,1.17"/>
  <circle style="fill:none;stroke:#000000;stroke-width:0.35;" cy="-17.31" cx="38.993" r="1.17"/>
  <circle style="fill:none;stroke:#000000;stroke-width:0.35;" cy="-12.498" cx="38.993" r="1.17"/>
  <circle style="fill:none;stroke:#000000;stroke-width:0.35;" cy="-9.986" cx="24.658" r="1.17"/>
  <circle style="fill:none;stroke:#000000;stroke-width:0.35;" cy="-14.949" cx="26.376" r="1.17"/>
  <circle style="fill:none;stroke:#000000;stroke-width:0.35;" cy="-9.986" cx="33.742" r="1.17"/>
  <circle style="fill:none;stroke:#000000;stroke-width:0.35;" cy="-7.25" cx="28.729" r="1.17"/>
  <circle style="fill:none;stroke:#000000;stroke-width:0.35;" cy="-2.548" cx="28.713" r="1.17"/>
  <circle style="fill:none;stroke:#000000;stroke-width:0.35;" cy="-5.073" cx="35.581" r="1.17"/>
  <circle style="fill:none;stroke:#000000;stroke-width:0.35;" cy="-5.073" cx="21.758" r="1.17"/>
  <circle style="fill:none;stroke:#000000;stroke-width:0.35;" cy="-14.949" cx="51.015" r="1.17"/>
  <circle style="fill:none;stroke:#000000;stroke-width:0.35;" cy="-19.437" cx="53.392" r="1.17"/>
  <path style="fill:none;stroke:#000000;stroke-width:0.35;" d="M54.562-0.044c0-0.645-0.524-1.17-1.17-1.17    c-0.646,0-1.17,0.525-1.17,1.17"/>
  <circle style="fill:none;stroke:#000000;stroke-width:0.35;" cy="-19.437" cx="43.955" r="1.17"/>
  <path style="fill:none;stroke:#000000;stroke-width:0.35;" d="M45.125-0.043c0-0.645-0.524-1.17-1.17-1.17    c-0.646,0-1.17,0.525-1.17,1.17"/>
  <path style="fill:none;stroke:#000000;stroke-width:0.35;" d="M58.368-18.48c-0.646,0-1.17,0.525-1.17,1.17    c0,0.647,0.524,1.17,1.17,1.17"/>
  <path style="fill:none;stroke:#000000;stroke-width:0.35;" d="M58.368-13.668c-0.646,0-1.17,0.525-1.17,1.17    c0,0.647,0.524,1.17,1.17,1.17"/>
  <circle style="fill:none;stroke:#000000;stroke-width:0.35;" cy="-9.986" cx="44.158" r="1.17"/>
  <circle style="fill:none;stroke:#000000;stroke-width:0.35;" cy="-14.949" cx="45.876" r="1.17"/>
  <circle style="fill:none;stroke:#000000;stroke-width:0.35;" cy="-9.986" cx="53.242" r="1.17"/>
  <circle style="fill:none;stroke:#000000;stroke-width:0.35;" cy="-7.25" cx="48.229" r="1.17"/>
  <circle style="fill:none;stroke:#000000;stroke-width:0.35;" cy="-2.548" cx="48.213" r="1.17"/>
  <circle style="fill:none;stroke:#000000;stroke-width:0.35;" cy="-5.073" cx="55.081" r="1.17"/>
  <circle style="fill:none;stroke:#000000;stroke-width:0.35;" cy="-5.073" cx="41.258" r="1.17"/>
 </g>
</svg>
