<?xml version="1.0"?>
<!-- Converted with SVG Converter - Version 0.9.5 (Compiled Fri Feb 21 09:53:38 2020) - Copyright (C) 2011 Nokia -->
<svg xmlns="http://www.w3.org/2000/svg" baseProfile="tiny" x="0px" version="1.1" xmlns:xlink="http://www.w3.org/1999/xlink" viewBox="1.86 -60.181 58.316 58.317" xml:space="preserve" y="0px" height="58.317" width="58.316">
 <g>
  <rect x="1.86" style="fill:none;" y="-60.181" height="58.317" width="58.316"/>
  <rect x="1.86" y="-60.181" height="58.317" width="58.316"/>
  <circle cy="-55.649" cx="13.841" style="fill:none;stroke:#FFFFFF;stroke-width:0.43;" r="1.17"/>
  <path d="M15.048-60.173c0,0.648,0.524,1.171,1.17,1.171    s1.17-0.523,1.17-1.171" style="fill:none;stroke:#FFFFFF;stroke-width:0.43;"/>
  <circle cy="-40.699" cx="16.218" style="fill:none;stroke:#FFFFFF;stroke-width:0.43;" r="1.17"/>
  <path d="M5.61-60.173c0,0.648,0.524,1.171,1.17,1.171s1.17-0.523,1.17-1.171    " style="fill:none;stroke:#FFFFFF;stroke-width:0.43;"/>
  <circle cy="-40.743" cx="6.78" style="fill:none;stroke:#FFFFFF;stroke-width:0.43;" r="1.17"/>
  <circle cy="-58.01" cx="21.319" style="fill:none;stroke:#FFFFFF;stroke-width:0.43;" r="1.17"/>
  <circle cy="-53.198" cx="21.319" style="fill:none;stroke:#FFFFFF;stroke-width:0.43;" r="1.17"/>
  <path d="M1.863-52.028c0.646,0,1.17-0.522,1.17-1.17    c0-0.645-0.524-1.17-1.17-1.17" style="fill:none;stroke:#FFFFFF;stroke-width:0.43;"/>
  <path d="M1.863-56.84c0.646,0,1.17-0.522,1.17-1.17    c0-0.645-0.524-1.17-1.17-1.17" style="fill:none;stroke:#FFFFFF;stroke-width:0.43;"/>
  <circle cy="-50.687" cx="6.984" style="fill:none;stroke:#FFFFFF;stroke-width:0.43;" r="1.17"/>
  <circle cy="-55.649" cx="8.701" style="fill:none;stroke:#FFFFFF;stroke-width:0.43;" r="1.17"/>
  <circle cy="-50.687" cx="16.068" style="fill:none;stroke:#FFFFFF;stroke-width:0.43;" r="1.17"/>
  <circle cy="-47.95" cx="11.055" style="fill:none;stroke:#FFFFFF;stroke-width:0.43;" r="1.17"/>
  <circle cy="-43.248" cx="11.039" style="fill:none;stroke:#FFFFFF;stroke-width:0.43;" r="1.17"/>
  <circle cy="-45.773" cx="17.906" style="fill:none;stroke:#FFFFFF;stroke-width:0.43;" r="1.17"/>
  <circle cy="-45.773" cx="4.083" style="fill:none;stroke:#FFFFFF;stroke-width:0.43;" r="1.17"/>
  <circle cy="-55.649" cx="33.341" style="fill:none;stroke:#FFFFFF;stroke-width:0.43;" r="1.17"/>
  <path d="M34.548-60.173c0,0.648,0.524,1.171,1.17,1.171    s1.17-0.523,1.17-1.171" style="fill:none;stroke:#FFFFFF;stroke-width:0.43;"/>
  <circle cy="-40.699" cx="35.718" style="fill:none;stroke:#FFFFFF;stroke-width:0.43;" r="1.17"/>
  <path d="M25.11-60.169c0,0.647,0.524,1.17,1.17,1.17s1.17-0.522,1.17-1.17" style="fill:none;stroke:#FFFFFF;stroke-width:0.43;"/>
  <circle cy="-40.743" cx="26.28" style="fill:none;stroke:#FFFFFF;stroke-width:0.43;" r="1.17"/>
  <circle cy="-58.01" cx="40.819" style="fill:none;stroke:#FFFFFF;stroke-width:0.43;" r="1.17"/>
  <circle cy="-53.198" cx="40.819" style="fill:none;stroke:#FFFFFF;stroke-width:0.43;" r="1.17"/>
  <circle cy="-50.687" cx="26.484" style="fill:none;stroke:#FFFFFF;stroke-width:0.43;" r="1.17"/>
  <circle cy="-55.649" cx="28.201" style="fill:none;stroke:#FFFFFF;stroke-width:0.43;" r="1.17"/>
  <circle cy="-50.687" cx="35.568" style="fill:none;stroke:#FFFFFF;stroke-width:0.43;" r="1.17"/>
  <circle cy="-47.95" cx="30.555" style="fill:none;stroke:#FFFFFF;stroke-width:0.43;" r="1.17"/>
  <circle cy="-43.248" cx="30.539" style="fill:none;stroke:#FFFFFF;stroke-width:0.43;" r="1.17"/>
  <circle cy="-45.773" cx="37.406" style="fill:none;stroke:#FFFFFF;stroke-width:0.43;" r="1.17"/>
  <circle cy="-45.773" cx="23.583" style="fill:none;stroke:#FFFFFF;stroke-width:0.43;" r="1.17"/>
  <circle cy="-55.649" cx="52.841" style="fill:none;stroke:#FFFFFF;stroke-width:0.43;" r="1.17"/>
  <path d="M54.048-60.173c0,0.648,0.524,1.171,1.17,1.171    s1.17-0.523,1.17-1.171" style="fill:none;stroke:#FFFFFF;stroke-width:0.43;"/>
  <circle cy="-40.699" cx="55.218" style="fill:none;stroke:#FFFFFF;stroke-width:0.43;" r="1.17"/>
  <path d="M44.61-60.173c0,0.648,0.524,1.171,1.17,1.171    s1.17-0.523,1.17-1.171" style="fill:none;stroke:#FFFFFF;stroke-width:0.43;"/>
  <circle cy="-40.743" cx="45.78" style="fill:none;stroke:#FFFFFF;stroke-width:0.43;" r="1.17"/>
  <path d="M60.194-59.18c-0.646,0-1.17,0.525-1.17,1.17    c0,0.647,0.524,1.17,1.17,1.17" style="fill:none;stroke:#FFFFFF;stroke-width:0.43;"/>
  <path d="M60.177-54.368c-0.646,0-1.17,0.525-1.17,1.17    c0,0.647,0.524,1.17,1.17,1.17" style="fill:none;stroke:#FFFFFF;stroke-width:0.43;"/>
  <circle cy="-50.687" cx="45.984" style="fill:none;stroke:#FFFFFF;stroke-width:0.43;" r="1.17"/>
  <circle cy="-55.649" cx="47.701" style="fill:none;stroke:#FFFFFF;stroke-width:0.43;" r="1.17"/>
  <circle cy="-50.687" cx="55.068" style="fill:none;stroke:#FFFFFF;stroke-width:0.43;" r="1.17"/>
  <circle cy="-47.95" cx="50.055" style="fill:none;stroke:#FFFFFF;stroke-width:0.43;" r="1.17"/>
  <circle cy="-43.248" cx="50.039" style="fill:none;stroke:#FFFFFF;stroke-width:0.43;" r="1.17"/>
  <circle cy="-45.773" cx="56.906" style="fill:none;stroke:#FFFFFF;stroke-width:0.43;" r="1.17"/>
  <circle cy="-45.773" cx="43.083" style="fill:none;stroke:#FFFFFF;stroke-width:0.43;" r="1.17"/>
  <circle cy="-36.212" cx="13.841" style="fill:none;stroke:#FFFFFF;stroke-width:0.43;" r="1.17"/>
  <circle cy="-40.699" cx="16.218" style="fill:none;stroke:#FFFFFF;stroke-width:0.43;" r="1.17"/>
  <circle cy="-21.262" cx="16.218" style="fill:none;stroke:#FFFFFF;stroke-width:0.43;" r="1.17"/>
  <circle cy="-21.305" cx="6.78" style="fill:none;stroke:#FFFFFF;stroke-width:0.43;" r="1.17"/>
  <circle cy="-38.573" cx="21.319" style="fill:none;stroke:#FFFFFF;stroke-width:0.43;" r="1.17"/>
  <circle cy="-33.76" cx="21.319" style="fill:none;stroke:#FFFFFF;stroke-width:0.43;" r="1.17"/>
  <path d="M1.861-32.59c0.646,0,1.17-0.522,1.17-1.17    c0-0.645-0.524-1.17-1.17-1.17" style="fill:none;stroke:#FFFFFF;stroke-width:0.43;"/>
  <path d="M1.868-37.403c0.646,0,1.17-0.522,1.17-1.17    c0-0.645-0.524-1.17-1.17-1.17" style="fill:none;stroke:#FFFFFF;stroke-width:0.43;"/>
  <circle cy="-31.249" cx="6.984" style="fill:none;stroke:#FFFFFF;stroke-width:0.43;" r="1.17"/>
  <circle cy="-36.212" cx="8.701" style="fill:none;stroke:#FFFFFF;stroke-width:0.43;" r="1.17"/>
  <circle cy="-31.249" cx="16.068" style="fill:none;stroke:#FFFFFF;stroke-width:0.43;" r="1.17"/>
  <circle cy="-28.513" cx="11.055" style="fill:none;stroke:#FFFFFF;stroke-width:0.43;" r="1.17"/>
  <circle cy="-23.811" cx="11.039" style="fill:none;stroke:#FFFFFF;stroke-width:0.43;" r="1.17"/>
  <circle cy="-26.336" cx="17.906" style="fill:none;stroke:#FFFFFF;stroke-width:0.43;" r="1.17"/>
  <circle cy="-26.336" cx="4.083" style="fill:none;stroke:#FFFFFF;stroke-width:0.43;" r="1.17"/>
  <circle cy="-36.212" cx="33.341" style="fill:none;stroke:#FFFFFF;stroke-width:0.43;" r="1.17"/>
  <circle cy="-40.699" cx="35.718" style="fill:none;stroke:#FFFFFF;stroke-width:0.43;" r="1.17"/>
  <circle cy="-21.262" cx="35.718" style="fill:none;stroke:#FFFFFF;stroke-width:0.43;" r="1.17"/>
  <circle cy="-21.305" cx="26.28" style="fill:none;stroke:#FFFFFF;stroke-width:0.43;" r="1.17"/>
  <circle cy="-38.573" cx="40.819" style="fill:none;stroke:#FFFFFF;stroke-width:0.43;" r="1.17"/>
  <circle cy="-33.76" cx="40.819" style="fill:none;stroke:#FFFFFF;stroke-width:0.43;" r="1.17"/>
  <circle cy="-31.249" cx="26.484" style="fill:none;stroke:#FFFFFF;stroke-width:0.43;" r="1.17"/>
  <circle cy="-36.212" cx="28.201" style="fill:none;stroke:#FFFFFF;stroke-width:0.43;" r="1.17"/>
  <circle cy="-31.249" cx="35.568" style="fill:none;stroke:#FFFFFF;stroke-width:0.43;" r="1.17"/>
  <circle cy="-28.513" cx="30.555" style="fill:none;stroke:#FFFFFF;stroke-width:0.43;" r="1.17"/>
  <circle cy="-23.811" cx="30.539" style="fill:none;stroke:#FFFFFF;stroke-width:0.43;" r="1.17"/>
  <circle cy="-26.336" cx="37.406" style="fill:none;stroke:#FFFFFF;stroke-width:0.43;" r="1.17"/>
  <circle cy="-26.336" cx="23.583" style="fill:none;stroke:#FFFFFF;stroke-width:0.43;" r="1.17"/>
  <circle cy="-36.212" cx="52.841" style="fill:none;stroke:#FFFFFF;stroke-width:0.43;" r="1.17"/>
  <circle cy="-40.699" cx="55.218" style="fill:none;stroke:#FFFFFF;stroke-width:0.43;" r="1.17"/>
  <circle cy="-21.262" cx="55.218" style="fill:none;stroke:#FFFFFF;stroke-width:0.43;" r="1.17"/>
  <path d="M60.177-39.743c-0.646,0-1.17,0.525-1.17,1.17    c0,0.647,0.524,1.17,1.17,1.17" style="fill:none;stroke:#FFFFFF;stroke-width:0.43;"/>
  <path d="M60.194-34.93c-0.646,0-1.17,0.525-1.17,1.17    c0,0.647,0.524,1.17,1.17,1.17" style="fill:none;stroke:#FFFFFF;stroke-width:0.43;"/>
  <circle cy="-31.249" cx="45.984" style="fill:none;stroke:#FFFFFF;stroke-width:0.43;" r="1.17"/>
  <circle cy="-36.212" cx="47.701" style="fill:none;stroke:#FFFFFF;stroke-width:0.43;" r="1.17"/>
  <circle cy="-31.249" cx="55.068" style="fill:none;stroke:#FFFFFF;stroke-width:0.43;" r="1.17"/>
  <circle cy="-28.513" cx="50.055" style="fill:none;stroke:#FFFFFF;stroke-width:0.43;" r="1.17"/>
  <circle cy="-23.811" cx="50.039" style="fill:none;stroke:#FFFFFF;stroke-width:0.43;" r="1.17"/>
  <circle cy="-26.336" cx="56.906" style="fill:none;stroke:#FFFFFF;stroke-width:0.43;" r="1.17"/>
  <circle cy="-26.336" cx="43.083" style="fill:none;stroke:#FFFFFF;stroke-width:0.43;" r="1.17"/>
  <circle cy="-16.774" cx="13.841" style="fill:none;stroke:#FFFFFF;stroke-width:0.43;" r="1.17"/>
  <circle cy="-21.262" cx="16.218" style="fill:none;stroke:#FFFFFF;stroke-width:0.43;" r="1.17"/>
  <path d="M17.388-1.86c0-0.645-0.524-1.17-1.17-1.17s-1.17,0.525-1.17,1.17" style="fill:none;stroke:#FFFFFF;stroke-width:0.43;"/>
  <path d="M7.95-1.868c0-0.645-0.524-1.17-1.17-1.17s-1.17,0.525-1.17,1.17" style="fill:none;stroke:#FFFFFF;stroke-width:0.43;"/>
  <circle cy="-19.135" cx="21.319" style="fill:none;stroke:#FFFFFF;stroke-width:0.43;" r="1.17"/>
  <circle cy="-14.323" cx="21.319" style="fill:none;stroke:#FFFFFF;stroke-width:0.43;" r="1.17"/>
  <path d="M1.861-13.153c0.646,0,1.17-0.523,1.17-1.17    c0-0.645-0.524-1.17-1.17-1.17" style="fill:none;stroke:#FFFFFF;stroke-width:0.43;"/>
  <path d="M1.86-17.965c0.646,0,1.17-0.523,1.17-1.17    c0-0.645-0.524-1.17-1.17-1.17" style="fill:none;stroke:#FFFFFF;stroke-width:0.43;"/>
  <circle cy="-11.811" cx="6.984" style="fill:none;stroke:#FFFFFF;stroke-width:0.43;" r="1.17"/>
  <circle cy="-16.774" cx="8.701" style="fill:none;stroke:#FFFFFF;stroke-width:0.43;" r="1.17"/>
  <circle cy="-11.811" cx="16.068" style="fill:none;stroke:#FFFFFF;stroke-width:0.43;" r="1.17"/>
  <circle cy="-9.075" cx="11.055" style="fill:none;stroke:#FFFFFF;stroke-width:0.43;" r="1.17"/>
  <circle cy="-4.373" cx="11.039" style="fill:none;stroke:#FFFFFF;stroke-width:0.43;" r="1.17"/>
  <circle cy="-6.898" cx="17.906" style="fill:none;stroke:#FFFFFF;stroke-width:0.43;" r="1.17"/>
  <circle cy="-6.898" cx="4.083" style="fill:none;stroke:#FFFFFF;stroke-width:0.43;" r="1.17"/>
  <circle cy="-16.774" cx="33.341" style="fill:none;stroke:#FFFFFF;stroke-width:0.43;" r="1.17"/>
  <circle cy="-21.262" cx="35.718" style="fill:none;stroke:#FFFFFF;stroke-width:0.43;" r="1.17"/>
  <path d="M36.888-1.869c0-0.645-0.524-1.17-1.17-1.17s-1.17,0.525-1.17,1.17" style="fill:none;stroke:#FFFFFF;stroke-width:0.43;"/>
  <path d="M27.45-1.868c0-0.645-0.524-1.17-1.17-1.17s-1.17,0.525-1.17,1.17" style="fill:none;stroke:#FFFFFF;stroke-width:0.43;"/>
  <circle cy="-19.135" cx="40.819" style="fill:none;stroke:#FFFFFF;stroke-width:0.43;" r="1.17"/>
  <circle cy="-14.323" cx="40.819" style="fill:none;stroke:#FFFFFF;stroke-width:0.43;" r="1.17"/>
  <circle cy="-11.811" cx="26.484" style="fill:none;stroke:#FFFFFF;stroke-width:0.43;" r="1.17"/>
  <circle cy="-16.774" cx="28.201" style="fill:none;stroke:#FFFFFF;stroke-width:0.43;" r="1.17"/>
  <circle cy="-11.811" cx="35.568" style="fill:none;stroke:#FFFFFF;stroke-width:0.43;" r="1.17"/>
  <circle cy="-9.075" cx="30.555" style="fill:none;stroke:#FFFFFF;stroke-width:0.43;" r="1.17"/>
  <circle cy="-4.373" cx="30.539" style="fill:none;stroke:#FFFFFF;stroke-width:0.43;" r="1.17"/>
  <circle cy="-6.898" cx="37.406" style="fill:none;stroke:#FFFFFF;stroke-width:0.43;" r="1.17"/>
  <circle cy="-6.898" cx="23.583" style="fill:none;stroke:#FFFFFF;stroke-width:0.43;" r="1.17"/>
  <circle cy="-16.774" cx="52.841" style="fill:none;stroke:#FFFFFF;stroke-width:0.43;" r="1.17"/>
  <circle cy="-21.262" cx="55.218" style="fill:none;stroke:#FFFFFF;stroke-width:0.43;" r="1.17"/>
  <path d="M56.388-1.869c0-0.645-0.524-1.17-1.17-1.17s-1.17,0.525-1.17,1.17" style="fill:none;stroke:#FFFFFF;stroke-width:0.43;"/>
  <circle cy="-21.262" cx="45.78" style="fill:none;stroke:#FFFFFF;stroke-width:0.43;" r="1.17"/>
  <path d="M46.95-1.868c0-0.645-0.524-1.17-1.17-1.17s-1.17,0.525-1.17,1.17" style="fill:none;stroke:#FFFFFF;stroke-width:0.43;"/>
  <path d="M60.194-20.305c-0.646,0-1.17,0.525-1.17,1.17    c0,0.647,0.524,1.17,1.17,1.17" style="fill:none;stroke:#FFFFFF;stroke-width:0.43;"/>
  <path d="M60.194-15.493c-0.646,0-1.17,0.525-1.17,1.17    c0,0.648,0.524,1.17,1.17,1.17" style="fill:none;stroke:#FFFFFF;stroke-width:0.43;"/>
  <circle cy="-11.811" cx="45.984" style="fill:none;stroke:#FFFFFF;stroke-width:0.43;" r="1.17"/>
  <circle cy="-16.774" cx="47.701" style="fill:none;stroke:#FFFFFF;stroke-width:0.43;" r="1.17"/>
  <circle cy="-11.811" cx="55.068" style="fill:none;stroke:#FFFFFF;stroke-width:0.43;" r="1.17"/>
  <circle cy="-9.075" cx="50.055" style="fill:none;stroke:#FFFFFF;stroke-width:0.43;" r="1.17"/>
  <circle cy="-4.373" cx="50.039" style="fill:none;stroke:#FFFFFF;stroke-width:0.43;" r="1.17"/>
  <circle cy="-6.898" cx="56.906" style="fill:none;stroke:#FFFFFF;stroke-width:0.43;" r="1.17"/>
  <circle cy="-6.898" cx="43.083" style="fill:none;stroke:#FFFFFF;stroke-width:0.43;" r="1.17"/>
 </g>
</svg>
