<?xml version="1.0"?>
<!-- Converted with SVG Converter - Version 0.9.5 (Compiled Fri Feb 21 09:53:38 2020) - Copyright (C) 2011 Nokia -->
<svg xmlns="http://www.w3.org/2000/svg" y="0px" xml:space="preserve" x="0px" height="58.317" baseProfile="tiny" xmlns:xlink="http://www.w3.org/1999/xlink" version="1.1" width="58.317" viewBox="0.034 -58.356 58.317 58.317">
 <g>
  <rect y="-58.356" style="fill:none;" x="0.034" height="58.317" width="58.317"/>
  <circle style="fill:none;stroke:#000000;stroke-width:0.35;" cx="12.015" r="1.17" cy="-53.824"/>
  <path d="M13.222-58.347c0,0.647,0.524,1.17,1.17,1.17s1.17-0.523,1.17-1.17" style="fill:none;stroke:#000000;stroke-width:0.35;"/>
  <circle style="fill:none;stroke:#000000;stroke-width:0.35;" cx="14.392" r="1.17" cy="-38.874"/>
  <path d="M3.785-58.347c0,0.647,0.524,1.17,1.17,1.17s1.17-0.523,1.17-1.17" style="fill:none;stroke:#000000;stroke-width:0.35;"/>
  <circle style="fill:none;stroke:#000000;stroke-width:0.35;" cx="4.955" r="1.17" cy="-38.918"/>
  <circle style="fill:none;stroke:#000000;stroke-width:0.35;" cx="19.493" r="1.17" cy="-56.185"/>
  <circle style="fill:none;stroke:#000000;stroke-width:0.35;" cx="19.493" r="1.17" cy="-51.373"/>
  <path d="M0.038-50.203c0.646,0,1.17-0.523,1.17-1.17    c0-0.645-0.524-1.17-1.17-1.17" style="fill:none;stroke:#000000;stroke-width:0.35;"/>
  <path d="M0.038-55.015c0.646,0,1.17-0.523,1.17-1.17    c0-0.645-0.524-1.17-1.17-1.17" style="fill:none;stroke:#000000;stroke-width:0.35;"/>
  <circle style="fill:none;stroke:#000000;stroke-width:0.35;" cx="5.158" r="1.17" cy="-48.861"/>
  <circle style="fill:none;stroke:#000000;stroke-width:0.35;" cx="6.876" r="1.17" cy="-53.824"/>
  <circle style="fill:none;stroke:#000000;stroke-width:0.35;" cx="14.242" r="1.17" cy="-48.861"/>
  <circle style="fill:none;stroke:#000000;stroke-width:0.35;" cx="9.229" r="1.17" cy="-46.125"/>
  <circle style="fill:none;stroke:#000000;stroke-width:0.35;" cx="9.213" r="1.17" cy="-41.423"/>
  <circle style="fill:none;stroke:#000000;stroke-width:0.35;" cx="16.08" r="1.17" cy="-43.948"/>
  <circle style="fill:none;stroke:#000000;stroke-width:0.35;" cx="2.258" r="1.17" cy="-43.948"/>
  <circle style="fill:none;stroke:#000000;stroke-width:0.35;" cx="31.515" r="1.17" cy="-53.824"/>
  <path d="M32.722-58.347c0,0.647,0.524,1.17,1.17,1.17    c0.646,0,1.17-0.523,1.17-1.17" style="fill:none;stroke:#000000;stroke-width:0.35;"/>
  <circle style="fill:none;stroke:#000000;stroke-width:0.35;" cx="33.892" r="1.17" cy="-38.874"/>
  <path d="M23.285-58.344c0,0.647,0.524,1.17,1.17,1.17    c0.646,0,1.17-0.523,1.17-1.17" style="fill:none;stroke:#000000;stroke-width:0.35;"/>
  <circle style="fill:none;stroke:#000000;stroke-width:0.35;" cx="24.455" r="1.17" cy="-38.918"/>
  <circle style="fill:none;stroke:#000000;stroke-width:0.35;" cx="38.993" r="1.17" cy="-56.185"/>
  <circle style="fill:none;stroke:#000000;stroke-width:0.35;" cx="38.993" r="1.17" cy="-51.373"/>
  <circle style="fill:none;stroke:#000000;stroke-width:0.35;" cx="24.658" r="1.17" cy="-48.861"/>
  <circle style="fill:none;stroke:#000000;stroke-width:0.35;" cx="26.376" r="1.17" cy="-53.824"/>
  <circle style="fill:none;stroke:#000000;stroke-width:0.35;" cx="33.742" r="1.17" cy="-48.861"/>
  <circle style="fill:none;stroke:#000000;stroke-width:0.35;" cx="28.729" r="1.17" cy="-46.125"/>
  <circle style="fill:none;stroke:#000000;stroke-width:0.35;" cx="28.713" r="1.17" cy="-41.423"/>
  <circle style="fill:none;stroke:#000000;stroke-width:0.35;" cx="35.581" r="1.17" cy="-43.948"/>
  <circle style="fill:none;stroke:#000000;stroke-width:0.35;" cx="21.758" r="1.17" cy="-43.948"/>
  <circle style="fill:none;stroke:#000000;stroke-width:0.35;" cx="51.015" r="1.17" cy="-53.824"/>
  <path d="M52.222-58.347c0,0.647,0.524,1.17,1.17,1.17    c0.646,0,1.17-0.523,1.17-1.17" style="fill:none;stroke:#000000;stroke-width:0.35;"/>
  <circle style="fill:none;stroke:#000000;stroke-width:0.35;" cx="53.392" r="1.17" cy="-38.874"/>
  <path d="M42.785-58.347c0,0.647,0.524,1.17,1.17,1.17    c0.646,0,1.17-0.523,1.17-1.17" style="fill:none;stroke:#000000;stroke-width:0.35;"/>
  <circle style="fill:none;stroke:#000000;stroke-width:0.35;" cx="43.955" r="1.17" cy="-38.918"/>
  <path d="M58.368-57.355c-0.646,0-1.17,0.525-1.17,1.17    c0,0.647,0.524,1.17,1.17,1.17" style="fill:none;stroke:#000000;stroke-width:0.35;"/>
  <path d="M58.351-52.543c-0.646,0-1.17,0.525-1.17,1.17    c0,0.647,0.524,1.17,1.17,1.17" style="fill:none;stroke:#000000;stroke-width:0.35;"/>
  <circle style="fill:none;stroke:#000000;stroke-width:0.35;" cx="44.158" r="1.17" cy="-48.861"/>
  <circle style="fill:none;stroke:#000000;stroke-width:0.35;" cx="45.876" r="1.17" cy="-53.824"/>
  <circle style="fill:none;stroke:#000000;stroke-width:0.35;" cx="53.242" r="1.17" cy="-48.861"/>
  <circle style="fill:none;stroke:#000000;stroke-width:0.35;" cx="48.229" r="1.17" cy="-46.125"/>
  <circle style="fill:none;stroke:#000000;stroke-width:0.35;" cx="48.213" r="1.17" cy="-41.423"/>
  <circle style="fill:none;stroke:#000000;stroke-width:0.35;" cx="55.081" r="1.17" cy="-43.948"/>
  <circle style="fill:none;stroke:#000000;stroke-width:0.35;" cx="41.258" r="1.17" cy="-43.948"/>
  <circle style="fill:none;stroke:#000000;stroke-width:0.35;" cx="12.015" r="1.17" cy="-34.387"/>
  <circle style="fill:none;stroke:#000000;stroke-width:0.35;" cx="14.392" r="1.17" cy="-38.874"/>
  <circle style="fill:none;stroke:#000000;stroke-width:0.35;" cx="14.392" r="1.17" cy="-19.437"/>
  <circle style="fill:none;stroke:#000000;stroke-width:0.35;" cx="4.955" r="1.17" cy="-19.48"/>
  <circle style="fill:none;stroke:#000000;stroke-width:0.35;" cx="19.493" r="1.17" cy="-36.748"/>
  <circle style="fill:none;stroke:#000000;stroke-width:0.35;" cx="19.493" r="1.17" cy="-31.935"/>
  <path d="M0.035-30.765c0.646,0,1.17-0.523,1.17-1.17    c0-0.645-0.524-1.17-1.17-1.17" style="fill:none;stroke:#000000;stroke-width:0.35;"/>
  <path d="M0.043-35.578c0.646,0,1.17-0.523,1.17-1.17    c0-0.645-0.524-1.17-1.17-1.17" style="fill:none;stroke:#000000;stroke-width:0.35;"/>
  <circle style="fill:none;stroke:#000000;stroke-width:0.35;" cx="5.158" r="1.17" cy="-29.424"/>
  <circle style="fill:none;stroke:#000000;stroke-width:0.35;" cx="6.876" r="1.17" cy="-34.387"/>
  <circle style="fill:none;stroke:#000000;stroke-width:0.35;" cx="14.242" r="1.17" cy="-29.424"/>
  <circle style="fill:none;stroke:#000000;stroke-width:0.35;" cx="9.229" r="1.17" cy="-26.688"/>
  <circle style="fill:none;stroke:#000000;stroke-width:0.35;" cx="9.213" r="1.17" cy="-21.985"/>
  <circle style="fill:none;stroke:#000000;stroke-width:0.35;" cx="16.08" r="1.17" cy="-24.511"/>
  <circle style="fill:none;stroke:#000000;stroke-width:0.35;" cx="2.258" r="1.17" cy="-24.511"/>
  <circle style="fill:none;stroke:#000000;stroke-width:0.35;" cx="31.515" r="1.17" cy="-34.387"/>
  <circle style="fill:none;stroke:#000000;stroke-width:0.35;" cx="33.892" r="1.17" cy="-38.874"/>
  <circle style="fill:none;stroke:#000000;stroke-width:0.35;" cx="33.892" r="1.17" cy="-19.437"/>
  <circle style="fill:none;stroke:#000000;stroke-width:0.35;" cx="24.455" r="1.17" cy="-19.48"/>
  <circle style="fill:none;stroke:#000000;stroke-width:0.35;" cx="38.993" r="1.17" cy="-36.748"/>
  <circle style="fill:none;stroke:#000000;stroke-width:0.35;" cx="38.993" r="1.17" cy="-31.935"/>
  <circle style="fill:none;stroke:#000000;stroke-width:0.35;" cx="24.658" r="1.17" cy="-29.424"/>
  <circle style="fill:none;stroke:#000000;stroke-width:0.35;" cx="26.376" r="1.17" cy="-34.387"/>
  <circle style="fill:none;stroke:#000000;stroke-width:0.35;" cx="33.742" r="1.17" cy="-29.424"/>
  <circle style="fill:none;stroke:#000000;stroke-width:0.35;" cx="28.729" r="1.17" cy="-26.688"/>
  <circle style="fill:none;stroke:#000000;stroke-width:0.35;" cx="28.713" r="1.17" cy="-21.985"/>
  <circle style="fill:none;stroke:#000000;stroke-width:0.35;" cx="35.581" r="1.17" cy="-24.511"/>
  <circle style="fill:none;stroke:#000000;stroke-width:0.35;" cx="21.758" r="1.17" cy="-24.511"/>
  <circle style="fill:none;stroke:#000000;stroke-width:0.35;" cx="51.015" r="1.17" cy="-34.387"/>
  <circle style="fill:none;stroke:#000000;stroke-width:0.35;" cx="53.392" r="1.17" cy="-38.874"/>
  <circle style="fill:none;stroke:#000000;stroke-width:0.35;" cx="53.392" r="1.17" cy="-19.437"/>
  <path d="M58.351-37.918c-0.646,0-1.17,0.525-1.17,1.17    c0,0.647,0.524,1.17,1.17,1.17" style="fill:none;stroke:#000000;stroke-width:0.35;"/>
  <path d="M58.368-33.105c-0.646,0-1.17,0.525-1.17,1.17    c0,0.647,0.524,1.17,1.17,1.17" style="fill:none;stroke:#000000;stroke-width:0.35;"/>
  <circle style="fill:none;stroke:#000000;stroke-width:0.35;" cx="44.158" r="1.17" cy="-29.424"/>
  <circle style="fill:none;stroke:#000000;stroke-width:0.35;" cx="45.876" r="1.17" cy="-34.387"/>
  <circle style="fill:none;stroke:#000000;stroke-width:0.35;" cx="53.242" r="1.17" cy="-29.424"/>
  <circle style="fill:none;stroke:#000000;stroke-width:0.35;" cx="48.229" r="1.17" cy="-26.688"/>
  <circle style="fill:none;stroke:#000000;stroke-width:0.35;" cx="48.213" r="1.17" cy="-21.985"/>
  <circle style="fill:none;stroke:#000000;stroke-width:0.35;" cx="55.081" r="1.17" cy="-24.511"/>
  <circle style="fill:none;stroke:#000000;stroke-width:0.35;" cx="41.258" r="1.17" cy="-24.511"/>
  <circle style="fill:none;stroke:#000000;stroke-width:0.35;" cx="12.015" r="1.17" cy="-14.949"/>
  <circle style="fill:none;stroke:#000000;stroke-width:0.35;" cx="14.392" r="1.17" cy="-19.437"/>
  <path d="M15.562-0.035c0-0.645-0.524-1.17-1.17-1.17s-1.17,0.525-1.17,1.17" style="fill:none;stroke:#000000;stroke-width:0.35;"/>
  <path d="M6.125-0.043c0-0.645-0.524-1.17-1.17-1.17s-1.17,0.525-1.17,1.17" style="fill:none;stroke:#000000;stroke-width:0.35;"/>
  <circle style="fill:none;stroke:#000000;stroke-width:0.35;" cx="19.493" r="1.17" cy="-17.31"/>
  <circle style="fill:none;stroke:#000000;stroke-width:0.35;" cx="19.493" r="1.17" cy="-12.498"/>
  <path d="M0.035-11.328c0.646,0,1.17-0.523,1.17-1.17    c0-0.645-0.524-1.17-1.17-1.17" style="fill:none;stroke:#000000;stroke-width:0.35;"/>
  <path d="M0.034-16.14c0.646,0,1.17-0.523,1.17-1.17    c0-0.645-0.524-1.17-1.17-1.17" style="fill:none;stroke:#000000;stroke-width:0.35;"/>
  <circle style="fill:none;stroke:#000000;stroke-width:0.35;" cx="5.158" r="1.17" cy="-9.986"/>
  <circle style="fill:none;stroke:#000000;stroke-width:0.35;" cx="6.876" r="1.17" cy="-14.949"/>
  <circle style="fill:none;stroke:#000000;stroke-width:0.35;" cx="14.242" r="1.17" cy="-9.986"/>
  <circle style="fill:none;stroke:#000000;stroke-width:0.35;" cx="9.229" r="1.17" cy="-7.25"/>
  <circle style="fill:none;stroke:#000000;stroke-width:0.35;" cx="9.213" r="1.17" cy="-2.548"/>
  <circle style="fill:none;stroke:#000000;stroke-width:0.35;" cx="16.08" r="1.17" cy="-5.073"/>
  <circle style="fill:none;stroke:#000000;stroke-width:0.35;" cx="2.258" r="1.17" cy="-5.073"/>
  <circle style="fill:none;stroke:#000000;stroke-width:0.35;" cx="31.515" r="1.17" cy="-14.949"/>
  <circle style="fill:none;stroke:#000000;stroke-width:0.35;" cx="33.892" r="1.17" cy="-19.437"/>
  <path d="M35.062-0.044c0-0.645-0.524-1.17-1.17-1.17    c-0.646,0-1.17,0.525-1.17,1.17" style="fill:none;stroke:#000000;stroke-width:0.35;"/>
  <path d="M25.625-0.043c0-0.645-0.524-1.17-1.17-1.17    c-0.646,0-1.17,0.525-1.17,1.17" style="fill:none;stroke:#000000;stroke-width:0.35;"/>
  <circle style="fill:none;stroke:#000000;stroke-width:0.35;" cx="38.993" r="1.17" cy="-17.31"/>
  <circle style="fill:none;stroke:#000000;stroke-width:0.35;" cx="38.993" r="1.17" cy="-12.498"/>
  <circle style="fill:none;stroke:#000000;stroke-width:0.35;" cx="24.658" r="1.17" cy="-9.986"/>
  <circle style="fill:none;stroke:#000000;stroke-width:0.35;" cx="26.376" r="1.17" cy="-14.949"/>
  <circle style="fill:none;stroke:#000000;stroke-width:0.35;" cx="33.742" r="1.17" cy="-9.986"/>
  <circle style="fill:none;stroke:#000000;stroke-width:0.35;" cx="28.729" r="1.17" cy="-7.25"/>
  <circle style="fill:none;stroke:#000000;stroke-width:0.35;" cx="28.713" r="1.17" cy="-2.548"/>
  <circle style="fill:none;stroke:#000000;stroke-width:0.35;" cx="35.581" r="1.17" cy="-5.073"/>
  <circle style="fill:none;stroke:#000000;stroke-width:0.35;" cx="21.758" r="1.17" cy="-5.073"/>
  <circle style="fill:none;stroke:#000000;stroke-width:0.35;" cx="51.015" r="1.17" cy="-14.949"/>
  <circle style="fill:none;stroke:#000000;stroke-width:0.35;" cx="53.392" r="1.17" cy="-19.437"/>
  <path d="M54.562-0.044c0-0.645-0.524-1.17-1.17-1.17    c-0.646,0-1.17,0.525-1.17,1.17" style="fill:none;stroke:#000000;stroke-width:0.35;"/>
  <circle style="fill:none;stroke:#000000;stroke-width:0.35;" cx="43.955" r="1.17" cy="-19.437"/>
  <path d="M45.125-0.043c0-0.645-0.524-1.17-1.17-1.17    c-0.646,0-1.17,0.525-1.17,1.17" style="fill:none;stroke:#000000;stroke-width:0.35;"/>
  <path d="M58.368-18.48c-0.646,0-1.17,0.525-1.17,1.17    c0,0.647,0.524,1.17,1.17,1.17" style="fill:none;stroke:#000000;stroke-width:0.35;"/>
  <path d="M58.368-13.668c-0.646,0-1.17,0.525-1.17,1.17    c0,0.647,0.524,1.17,1.17,1.17" style="fill:none;stroke:#000000;stroke-width:0.35;"/>
  <circle style="fill:none;stroke:#000000;stroke-width:0.35;" cx="44.158" r="1.17" cy="-9.986"/>
  <circle style="fill:none;stroke:#000000;stroke-width:0.35;" cx="45.876" r="1.17" cy="-14.949"/>
  <circle style="fill:none;stroke:#000000;stroke-width:0.35;" cx="53.242" r="1.17" cy="-9.986"/>
  <circle style="fill:none;stroke:#000000;stroke-width:0.35;" cx="48.229" r="1.17" cy="-7.25"/>
  <circle style="fill:none;stroke:#000000;stroke-width:0.35;" cx="48.213" r="1.17" cy="-2.548"/>
  <circle style="fill:none;stroke:#000000;stroke-width:0.35;" cx="55.081" r="1.17" cy="-5.073"/>
  <circle style="fill:none;stroke:#000000;stroke-width:0.35;" cx="41.258" r="1.17" cy="-5.073"/>
 </g>
</svg>
