<?xml version="1.0"?>
<!-- Converted with SVG Converter - Version 0.9.5 (Compiled Fri Feb 21 09:53:38 2020) - Copyright (C) 2011 Nokia -->
<svg xmlns="http://www.w3.org/2000/svg" x="0px" width="58.316" viewBox="1.86 -60.181 58.316 58.317" baseProfile="tiny" xmlns:xlink="http://www.w3.org/1999/xlink" y="0px" xml:space="preserve" height="58.317" version="1.1">
 <g>
  <rect x="1.86" style="fill:none;" width="58.316" y="-60.181" height="58.317"/>
  <circle cy="-55.649" style="fill:none;stroke:#00AEEF;stroke-width:0.43;" r="1.17" cx="13.841"/>
  <path style="fill:none;stroke:#00AEEF;stroke-width:0.43;" d="M15.048-60.173c0,0.648,0.524,1.171,1.17,1.171    s1.17-0.523,1.17-1.171"/>
  <circle cy="-40.699" style="fill:none;stroke:#00AEEF;stroke-width:0.43;" r="1.17" cx="16.218"/>
  <path style="fill:none;stroke:#00AEEF;stroke-width:0.43;" d="M5.61-60.173c0,0.648,0.524,1.171,1.17,1.171s1.17-0.523,1.17-1.171    "/>
  <circle cy="-40.743" style="fill:none;stroke:#00AEEF;stroke-width:0.43;" r="1.17" cx="6.78"/>
  <circle cy="-58.01" style="fill:none;stroke:#00AEEF;stroke-width:0.43;" r="1.17" cx="21.319"/>
  <circle cy="-53.198" style="fill:none;stroke:#00AEEF;stroke-width:0.43;" r="1.17" cx="21.319"/>
  <path style="fill:none;stroke:#00AEEF;stroke-width:0.43;" d="M1.863-52.028c0.646,0,1.17-0.522,1.17-1.17    c0-0.645-0.524-1.17-1.17-1.17"/>
  <path style="fill:none;stroke:#00AEEF;stroke-width:0.43;" d="M1.863-56.84c0.646,0,1.17-0.522,1.17-1.17    c0-0.645-0.524-1.17-1.17-1.17"/>
  <circle cy="-50.687" style="fill:none;stroke:#00AEEF;stroke-width:0.43;" r="1.17" cx="6.984"/>
  <circle cy="-55.649" style="fill:none;stroke:#00AEEF;stroke-width:0.43;" r="1.17" cx="8.701"/>
  <circle cy="-50.687" style="fill:none;stroke:#00AEEF;stroke-width:0.43;" r="1.17" cx="16.068"/>
  <circle cy="-47.95" style="fill:none;stroke:#00AEEF;stroke-width:0.43;" r="1.17" cx="11.055"/>
  <circle cy="-43.248" style="fill:none;stroke:#00AEEF;stroke-width:0.43;" r="1.17" cx="11.039"/>
  <circle cy="-45.773" style="fill:none;stroke:#00AEEF;stroke-width:0.43;" r="1.17" cx="17.906"/>
  <circle cy="-45.773" style="fill:none;stroke:#00AEEF;stroke-width:0.43;" r="1.17" cx="4.083"/>
  <circle cy="-55.649" style="fill:none;stroke:#00AEEF;stroke-width:0.43;" r="1.17" cx="33.341"/>
  <path style="fill:none;stroke:#00AEEF;stroke-width:0.43;" d="M34.548-60.173c0,0.648,0.524,1.171,1.17,1.171    s1.17-0.523,1.17-1.171"/>
  <circle cy="-40.699" style="fill:none;stroke:#00AEEF;stroke-width:0.43;" r="1.17" cx="35.718"/>
  <path style="fill:none;stroke:#00AEEF;stroke-width:0.43;" d="M25.11-60.169c0,0.647,0.524,1.17,1.17,1.17s1.17-0.522,1.17-1.17"/>
  <circle cy="-40.743" style="fill:none;stroke:#00AEEF;stroke-width:0.43;" r="1.17" cx="26.28"/>
  <circle cy="-58.01" style="fill:none;stroke:#00AEEF;stroke-width:0.43;" r="1.17" cx="40.819"/>
  <circle cy="-53.198" style="fill:none;stroke:#00AEEF;stroke-width:0.43;" r="1.17" cx="40.819"/>
  <circle cy="-50.687" style="fill:none;stroke:#00AEEF;stroke-width:0.43;" r="1.17" cx="26.484"/>
  <circle cy="-55.649" style="fill:none;stroke:#00AEEF;stroke-width:0.43;" r="1.17" cx="28.201"/>
  <circle cy="-50.687" style="fill:none;stroke:#00AEEF;stroke-width:0.43;" r="1.17" cx="35.568"/>
  <circle cy="-47.95" style="fill:none;stroke:#00AEEF;stroke-width:0.43;" r="1.17" cx="30.555"/>
  <circle cy="-43.248" style="fill:none;stroke:#00AEEF;stroke-width:0.43;" r="1.17" cx="30.539"/>
  <circle cy="-45.773" style="fill:none;stroke:#00AEEF;stroke-width:0.43;" r="1.17" cx="37.406"/>
  <circle cy="-45.773" style="fill:none;stroke:#00AEEF;stroke-width:0.43;" r="1.17" cx="23.583"/>
  <circle cy="-55.649" style="fill:none;stroke:#00AEEF;stroke-width:0.43;" r="1.17" cx="52.841"/>
  <path style="fill:none;stroke:#00AEEF;stroke-width:0.43;" d="M54.048-60.173c0,0.648,0.524,1.171,1.17,1.171    s1.17-0.523,1.17-1.171"/>
  <circle cy="-40.699" style="fill:none;stroke:#00AEEF;stroke-width:0.43;" r="1.17" cx="55.218"/>
  <path style="fill:none;stroke:#00AEEF;stroke-width:0.43;" d="M44.61-60.173c0,0.648,0.524,1.171,1.17,1.171    s1.17-0.523,1.17-1.171"/>
  <circle cy="-40.743" style="fill:none;stroke:#00AEEF;stroke-width:0.43;" r="1.17" cx="45.78"/>
  <path style="fill:none;stroke:#00AEEF;stroke-width:0.43;" d="M60.194-59.18c-0.646,0-1.17,0.525-1.17,1.17    c0,0.647,0.524,1.17,1.17,1.17"/>
  <path style="fill:none;stroke:#00AEEF;stroke-width:0.43;" d="M60.177-54.368c-0.646,0-1.17,0.525-1.17,1.17    c0,0.647,0.524,1.17,1.17,1.17"/>
  <circle cy="-50.687" style="fill:none;stroke:#00AEEF;stroke-width:0.43;" r="1.17" cx="45.984"/>
  <circle cy="-55.649" style="fill:none;stroke:#00AEEF;stroke-width:0.43;" r="1.17" cx="47.701"/>
  <circle cy="-50.687" style="fill:none;stroke:#00AEEF;stroke-width:0.43;" r="1.17" cx="55.068"/>
  <circle cy="-47.95" style="fill:none;stroke:#00AEEF;stroke-width:0.43;" r="1.17" cx="50.055"/>
  <circle cy="-43.248" style="fill:none;stroke:#00AEEF;stroke-width:0.43;" r="1.17" cx="50.039"/>
  <circle cy="-45.773" style="fill:none;stroke:#00AEEF;stroke-width:0.43;" r="1.17" cx="56.906"/>
  <circle cy="-45.773" style="fill:none;stroke:#00AEEF;stroke-width:0.43;" r="1.17" cx="43.083"/>
  <circle cy="-36.212" style="fill:none;stroke:#00AEEF;stroke-width:0.43;" r="1.17" cx="13.841"/>
  <circle cy="-40.699" style="fill:none;stroke:#00AEEF;stroke-width:0.43;" r="1.17" cx="16.218"/>
  <circle cy="-21.262" style="fill:none;stroke:#00AEEF;stroke-width:0.43;" r="1.17" cx="16.218"/>
  <circle cy="-21.305" style="fill:none;stroke:#00AEEF;stroke-width:0.43;" r="1.17" cx="6.78"/>
  <circle cy="-38.573" style="fill:none;stroke:#00AEEF;stroke-width:0.43;" r="1.17" cx="21.319"/>
  <circle cy="-33.76" style="fill:none;stroke:#00AEEF;stroke-width:0.43;" r="1.17" cx="21.319"/>
  <path style="fill:none;stroke:#00AEEF;stroke-width:0.43;" d="M1.861-32.59c0.646,0,1.17-0.522,1.17-1.17    c0-0.645-0.524-1.17-1.17-1.17"/>
  <path style="fill:none;stroke:#00AEEF;stroke-width:0.43;" d="M1.868-37.403c0.646,0,1.17-0.522,1.17-1.17    c0-0.645-0.524-1.17-1.17-1.17"/>
  <circle cy="-31.249" style="fill:none;stroke:#00AEEF;stroke-width:0.43;" r="1.17" cx="6.984"/>
  <circle cy="-36.212" style="fill:none;stroke:#00AEEF;stroke-width:0.43;" r="1.17" cx="8.701"/>
  <circle cy="-31.249" style="fill:none;stroke:#00AEEF;stroke-width:0.43;" r="1.17" cx="16.068"/>
  <circle cy="-28.513" style="fill:none;stroke:#00AEEF;stroke-width:0.43;" r="1.17" cx="11.055"/>
  <circle cy="-23.811" style="fill:none;stroke:#00AEEF;stroke-width:0.43;" r="1.17" cx="11.039"/>
  <circle cy="-26.336" style="fill:none;stroke:#00AEEF;stroke-width:0.43;" r="1.17" cx="17.906"/>
  <circle cy="-26.336" style="fill:none;stroke:#00AEEF;stroke-width:0.43;" r="1.17" cx="4.083"/>
  <circle cy="-36.212" style="fill:none;stroke:#00AEEF;stroke-width:0.43;" r="1.17" cx="33.341"/>
  <circle cy="-40.699" style="fill:none;stroke:#00AEEF;stroke-width:0.43;" r="1.17" cx="35.718"/>
  <circle cy="-21.262" style="fill:none;stroke:#00AEEF;stroke-width:0.43;" r="1.17" cx="35.718"/>
  <circle cy="-21.305" style="fill:none;stroke:#00AEEF;stroke-width:0.43;" r="1.17" cx="26.28"/>
  <circle cy="-38.573" style="fill:none;stroke:#00AEEF;stroke-width:0.43;" r="1.17" cx="40.819"/>
  <circle cy="-33.76" style="fill:none;stroke:#00AEEF;stroke-width:0.43;" r="1.17" cx="40.819"/>
  <circle cy="-31.249" style="fill:none;stroke:#00AEEF;stroke-width:0.43;" r="1.17" cx="26.484"/>
  <circle cy="-36.212" style="fill:none;stroke:#00AEEF;stroke-width:0.43;" r="1.17" cx="28.201"/>
  <circle cy="-31.249" style="fill:none;stroke:#00AEEF;stroke-width:0.43;" r="1.17" cx="35.568"/>
  <circle cy="-28.513" style="fill:none;stroke:#00AEEF;stroke-width:0.43;" r="1.17" cx="30.555"/>
  <circle cy="-23.811" style="fill:none;stroke:#00AEEF;stroke-width:0.43;" r="1.17" cx="30.539"/>
  <circle cy="-26.336" style="fill:none;stroke:#00AEEF;stroke-width:0.43;" r="1.17" cx="37.406"/>
  <circle cy="-26.336" style="fill:none;stroke:#00AEEF;stroke-width:0.43;" r="1.17" cx="23.583"/>
  <circle cy="-36.212" style="fill:none;stroke:#00AEEF;stroke-width:0.43;" r="1.17" cx="52.841"/>
  <circle cy="-40.699" style="fill:none;stroke:#00AEEF;stroke-width:0.43;" r="1.17" cx="55.218"/>
  <circle cy="-21.262" style="fill:none;stroke:#00AEEF;stroke-width:0.43;" r="1.17" cx="55.218"/>
  <path style="fill:none;stroke:#00AEEF;stroke-width:0.43;" d="M60.177-39.743c-0.646,0-1.17,0.525-1.17,1.17    c0,0.647,0.524,1.17,1.17,1.17"/>
  <path style="fill:none;stroke:#00AEEF;stroke-width:0.43;" d="M60.194-34.93c-0.646,0-1.17,0.525-1.17,1.17    c0,0.647,0.524,1.17,1.17,1.17"/>
  <circle cy="-31.249" style="fill:none;stroke:#00AEEF;stroke-width:0.43;" r="1.17" cx="45.984"/>
  <circle cy="-36.212" style="fill:none;stroke:#00AEEF;stroke-width:0.43;" r="1.17" cx="47.701"/>
  <circle cy="-31.249" style="fill:none;stroke:#00AEEF;stroke-width:0.43;" r="1.17" cx="55.068"/>
  <circle cy="-28.513" style="fill:none;stroke:#00AEEF;stroke-width:0.43;" r="1.17" cx="50.055"/>
  <circle cy="-23.811" style="fill:none;stroke:#00AEEF;stroke-width:0.43;" r="1.17" cx="50.039"/>
  <circle cy="-26.336" style="fill:none;stroke:#00AEEF;stroke-width:0.43;" r="1.17" cx="56.906"/>
  <circle cy="-26.336" style="fill:none;stroke:#00AEEF;stroke-width:0.43;" r="1.17" cx="43.083"/>
  <circle cy="-16.774" style="fill:none;stroke:#00AEEF;stroke-width:0.43;" r="1.17" cx="13.841"/>
  <circle cy="-21.262" style="fill:none;stroke:#00AEEF;stroke-width:0.43;" r="1.17" cx="16.218"/>
  <path style="fill:none;stroke:#00AEEF;stroke-width:0.43;" d="M17.388-1.86c0-0.645-0.524-1.17-1.17-1.17s-1.17,0.525-1.17,1.17"/>
  <path style="fill:none;stroke:#00AEEF;stroke-width:0.43;" d="M7.95-1.868c0-0.645-0.524-1.17-1.17-1.17s-1.17,0.525-1.17,1.17"/>
  <circle cy="-19.135" style="fill:none;stroke:#00AEEF;stroke-width:0.43;" r="1.17" cx="21.319"/>
  <circle cy="-14.323" style="fill:none;stroke:#00AEEF;stroke-width:0.43;" r="1.17" cx="21.319"/>
  <path style="fill:none;stroke:#00AEEF;stroke-width:0.43;" d="M1.861-13.153c0.646,0,1.17-0.523,1.17-1.17    c0-0.645-0.524-1.17-1.17-1.17"/>
  <path style="fill:none;stroke:#00AEEF;stroke-width:0.43;" d="M1.86-17.965c0.646,0,1.17-0.523,1.17-1.17    c0-0.645-0.524-1.17-1.17-1.17"/>
  <circle cy="-11.811" style="fill:none;stroke:#00AEEF;stroke-width:0.43;" r="1.17" cx="6.984"/>
  <circle cy="-16.774" style="fill:none;stroke:#00AEEF;stroke-width:0.43;" r="1.17" cx="8.701"/>
  <circle cy="-11.811" style="fill:none;stroke:#00AEEF;stroke-width:0.43;" r="1.17" cx="16.068"/>
  <circle cy="-9.075" style="fill:none;stroke:#00AEEF;stroke-width:0.43;" r="1.17" cx="11.055"/>
  <circle cy="-4.373" style="fill:none;stroke:#00AEEF;stroke-width:0.43;" r="1.17" cx="11.039"/>
  <circle cy="-6.898" style="fill:none;stroke:#00AEEF;stroke-width:0.43;" r="1.17" cx="17.906"/>
  <circle cy="-6.898" style="fill:none;stroke:#00AEEF;stroke-width:0.43;" r="1.17" cx="4.083"/>
  <circle cy="-16.774" style="fill:none;stroke:#00AEEF;stroke-width:0.43;" r="1.17" cx="33.341"/>
  <circle cy="-21.262" style="fill:none;stroke:#00AEEF;stroke-width:0.43;" r="1.17" cx="35.718"/>
  <path style="fill:none;stroke:#00AEEF;stroke-width:0.43;" d="M36.888-1.869c0-0.645-0.524-1.17-1.17-1.17s-1.17,0.525-1.17,1.17"/>
  <path style="fill:none;stroke:#00AEEF;stroke-width:0.43;" d="M27.45-1.868c0-0.645-0.524-1.17-1.17-1.17s-1.17,0.525-1.17,1.17"/>
  <circle cy="-19.135" style="fill:none;stroke:#00AEEF;stroke-width:0.43;" r="1.17" cx="40.819"/>
  <circle cy="-14.323" style="fill:none;stroke:#00AEEF;stroke-width:0.43;" r="1.17" cx="40.819"/>
  <circle cy="-11.811" style="fill:none;stroke:#00AEEF;stroke-width:0.43;" r="1.17" cx="26.484"/>
  <circle cy="-16.774" style="fill:none;stroke:#00AEEF;stroke-width:0.43;" r="1.17" cx="28.201"/>
  <circle cy="-11.811" style="fill:none;stroke:#00AEEF;stroke-width:0.43;" r="1.17" cx="35.568"/>
  <circle cy="-9.075" style="fill:none;stroke:#00AEEF;stroke-width:0.43;" r="1.17" cx="30.555"/>
  <circle cy="-4.373" style="fill:none;stroke:#00AEEF;stroke-width:0.43;" r="1.17" cx="30.539"/>
  <circle cy="-6.898" style="fill:none;stroke:#00AEEF;stroke-width:0.43;" r="1.17" cx="37.406"/>
  <circle cy="-6.898" style="fill:none;stroke:#00AEEF;stroke-width:0.43;" r="1.17" cx="23.583"/>
  <circle cy="-16.774" style="fill:none;stroke:#00AEEF;stroke-width:0.43;" r="1.17" cx="52.841"/>
  <circle cy="-21.262" style="fill:none;stroke:#00AEEF;stroke-width:0.43;" r="1.17" cx="55.218"/>
  <path style="fill:none;stroke:#00AEEF;stroke-width:0.43;" d="M56.388-1.869c0-0.645-0.524-1.17-1.17-1.17s-1.17,0.525-1.17,1.17"/>
  <circle cy="-21.262" style="fill:none;stroke:#00AEEF;stroke-width:0.43;" r="1.17" cx="45.78"/>
  <path style="fill:none;stroke:#00AEEF;stroke-width:0.43;" d="M46.95-1.868c0-0.645-0.524-1.17-1.17-1.17s-1.17,0.525-1.17,1.17"/>
  <path style="fill:none;stroke:#00AEEF;stroke-width:0.43;" d="M60.194-20.305c-0.646,0-1.17,0.525-1.17,1.17    c0,0.647,0.524,1.17,1.17,1.17"/>
  <path style="fill:none;stroke:#00AEEF;stroke-width:0.43;" d="M60.194-15.493c-0.646,0-1.17,0.525-1.17,1.17    c0,0.648,0.524,1.17,1.17,1.17"/>
  <circle cy="-11.811" style="fill:none;stroke:#00AEEF;stroke-width:0.43;" r="1.17" cx="45.984"/>
  <circle cy="-16.774" style="fill:none;stroke:#00AEEF;stroke-width:0.43;" r="1.17" cx="47.701"/>
  <circle cy="-11.811" style="fill:none;stroke:#00AEEF;stroke-width:0.43;" r="1.17" cx="55.068"/>
  <circle cy="-9.075" style="fill:none;stroke:#00AEEF;stroke-width:0.43;" r="1.17" cx="50.055"/>
  <circle cy="-4.373" style="fill:none;stroke:#00AEEF;stroke-width:0.43;" r="1.17" cx="50.039"/>
  <circle cy="-6.898" style="fill:none;stroke:#00AEEF;stroke-width:0.43;" r="1.17" cx="56.906"/>
  <circle cy="-6.898" style="fill:none;stroke:#00AEEF;stroke-width:0.43;" r="1.17" cx="43.083"/>
 </g>
</svg>
