<?xml version="1.0"?>
<!-- Converted with SVG Converter - Version 0.9.5 (Compiled Fri Feb 21 09:53:38 2020) - Copyright (C) 2011 Nokia -->
<svg xmlns="http://www.w3.org/2000/svg" baseProfile="tiny" xmlns:xlink="http://www.w3.org/1999/xlink" height="33.5" width="33.5">
 <defs>
  <path d="M0 0h33.5v33.5H0z" id="a"/>
 </defs>
 <path d="M0 0h33.5v33.5H0z"/>
 <path d="M-.03 8.93c.32 0 .57-.26.57-.57S.3 7.8-.03 7.8M33.5 7.8c-.3 0-.56.24-.56.56s.25.57.57.57" fill="#fff"/>
 <circle cy="5.544" fill="#fff" r=".57" cx="1.938"/>
 <circle cy="2.669" fill="#fff" r=".57" cx="1.875"/>
 <circle cy="4.188" fill="#fff" r=".57" cx="7.044"/>
 <circle cy="1.732" fill="#fff" r=".57" cx="5.688"/>
 <circle cy="4.169" fill="#fff" r=".57" cx="4.375"/>
 <circle cy="6.919" fill="#fff" r=".57" cx="5.625"/>
 <circle cy="8.357" fill="#fff" r=".57" cx="2.875"/>
 <path d="M2.3 0c0 .3.26.57.58.57s.56-.25.56-.57M7.8 0c0 .3.26.57.57.57s.58-.25.58-.57" fill="#fff"/>
 <path d="M.57 0C.57.3.3.6 0 .6V0h.57z" fill="#fff"/>
 <circle cy="8.357" fill="#fff" r=".57" cx="8.375"/>
 <circle cy="5.544" fill="#fff" r=".57" cx="10.313"/>
 <circle cy="2.669" fill="#fff" r=".57" cx="10.25"/>
 <circle cy="4.188" fill="#fff" r=".57" cx="15.419"/>
 <circle cy="1.732" fill="#fff" r=".57" cx="14.063"/>
 <circle cy="4.169" fill="#fff" r=".57" cx="12.75"/>
 <circle cy="6.919" fill="#fff" r=".57" cx="14"/>
 <circle cy="8.357" fill="#fff" r=".57" cx="11.25"/>
 <path d="M10.68.02c0 .3.26.57.57.57s.57-.27.57-.58" fill="#fff"/>
 <circle cy="8.294" fill="#fff" r=".57" cx="16.75"/>
 <path d="M16.18 0c0 .3.26.57.57.57s.57-.25.57-.57" fill="#fff"/>
 <circle cy="5.544" fill="#fff" r=".57" cx="18.688"/>
 <circle cy="2.669" fill="#fff" r=".57" cx="18.625"/>
 <circle cy="4.188" fill="#fff" r=".57" cx="23.794"/>
 <circle cy="1.732" fill="#fff" r=".57" cx="22.438"/>
 <circle cy="4.169" fill="#fff" r=".57" cx="21.125"/>
 <circle cy="6.919" fill="#fff" r=".57" cx="22.375"/>
 <circle cy="8.357" fill="#fff" r=".57" cx="19.625"/>
 <path d="M19.05 0c0 .3.26.57.57.57S20.2.3 20.2 0" fill="#fff"/>
 <circle cy="8.294" fill="#fff" r=".57" cx="25.125"/>
 <path d="M24.55 0c0 .3.26.57.57.57S25.7.3 25.7 0M17.32 33.5c0-.3-.26-.56-.57-.56s-.57.25-.57.57" fill="#fff"/>
 <circle cy="5.544" fill="#fff" r=".57" cx="27.063"/>
 <circle cy="2.669" fill="#fff" r=".57" cx="27"/>
 <circle cy="4.188" fill="#fff" r=".57" cx="32.169"/>
 <circle cy="1.732" fill="#fff" r=".57" cx="30.813"/>
 <circle cy="4.169" fill="#fff" r=".57" cx="29.5"/>
 <circle cy="6.919" fill="#fff" r=".57" cx="30.75"/>
 <circle cy="8.357" fill="#fff" r=".57" cx="28"/>
 <path d="M27.43 0c0 .3.26.57.57.57s.57-.25.57-.57" fill="#fff"/>
 <path d="M33.5.57c-.32 0-.58-.26-.58-.57h.57v.57zM-.03 17.3c.32 0 .57-.25.57-.57s-.25-.57-.57-.57M33.5 16.16c-.3 0-.56.26-.56.57s.25.57.57.57" fill="#fff"/>
 <circle cy="13.919" fill="#fff" r=".57" cx="1.938"/>
 <circle cy="11.044" fill="#fff" r=".57" cx="1.875"/>
 <circle cy="12.563" fill="#fff" r=".57" cx="7.044"/>
 <circle cy="10.107" fill="#fff" r=".57" cx="5.688"/>
 <circle cy="12.544" fill="#fff" r=".57" cx="4.375"/>
 <circle cy="15.294" fill="#fff" r=".57" cx="5.625"/>
 <circle cy="16.732" fill="#fff" r=".57" cx="2.875"/>
 <circle cy="16.669" fill="#fff" r=".57" cx="8.375"/>
 <circle cy="13.919" fill="#fff" r=".57" cx="10.313"/>
 <circle cy="11.044" fill="#fff" r=".57" cx="10.25"/>
 <circle cy="12.563" fill="#fff" r=".57" cx="15.419"/>
 <circle cy="10.107" fill="#fff" r=".57" cx="14.063"/>
 <circle cy="12.544" fill="#fff" r=".57" cx="12.75"/>
 <circle cy="15.294" fill="#fff" r=".57" cx="14"/>
 <circle cy="16.732" fill="#fff" r=".57" cx="11.25"/>
 <circle cy="13.919" fill="#fff" r=".57" cx="18.688"/>
 <circle cy="11.044" fill="#fff" r=".57" cx="18.625"/>
 <circle cy="12.563" fill="#fff" r=".57" cx="23.794"/>
 <circle cy="10.107" fill="#fff" r=".57" cx="22.438"/>
 <circle cy="12.544" fill="#fff" r=".57" cx="21.125"/>
 <circle cy="15.294" fill="#fff" r=".57" cx="22.375"/>
 <circle cy="16.732" fill="#fff" r=".57" cx="19.625"/>
 <circle cy="16.669" fill="#fff" r=".57" cx="25.125"/>
 <circle cy="13.919" fill="#fff" r=".57" cx="27.063"/>
 <circle cy="11.044" fill="#fff" r=".57" cx="27"/>
 <circle cy="12.563" fill="#fff" r=".57" cx="32.169"/>
 <circle cy="10.107" fill="#fff" r=".57" cx="30.813"/>
 <circle cy="12.544" fill="#fff" r=".57" cx="29.5"/>
 <circle cy="15.294" fill="#fff" r=".57" cx="30.75"/>
 <circle cy="16.732" fill="#fff" r=".57" cx="28"/>
 <path d="M-.03 25.68c.32 0 .57-.26.57-.57s-.25-.56-.57-.56M33.5 24.54c-.3 0-.56.25-.56.57s.25.58.57.58" fill="#fff"/>
 <circle cy="22.294" fill="#fff" r=".57" cx="1.938"/>
 <circle cy="19.419" fill="#fff" r=".57" cx="1.875"/>
 <circle cy="20.938" fill="#fff" r=".57" cx="7.044"/>
 <circle cy="18.482" fill="#fff" r=".57" cx="5.688"/>
 <circle cy="20.919" fill="#fff" r=".57" cx="4.375"/>
 <circle cy="23.669" fill="#fff" r=".57" cx="5.625"/>
 <circle cy="25.107" fill="#fff" r=".57" cx="2.875"/>
 <circle cy="25.044" fill="#fff" r=".57" cx="8.375"/>
 <circle cy="22.294" fill="#fff" r=".57" cx="10.313"/>
 <circle cy="19.419" fill="#fff" r=".57" cx="10.25"/>
 <circle cy="20.938" fill="#fff" r=".57" cx="15.419"/>
 <circle cy="18.482" fill="#fff" r=".57" cx="14.063"/>
 <circle cy="20.919" fill="#fff" r=".57" cx="12.75"/>
 <circle cy="23.669" fill="#fff" r=".57" cx="14"/>
 <circle cy="25.107" fill="#fff" r=".57" cx="11.25"/>
 <circle cy="25.044" fill="#fff" r=".57" cx="16.75"/>
 <circle cy="16.794" fill="#fff" r=".57" cx="16.75"/>
 <circle cy="22.294" fill="#fff" r=".57" cx="18.688"/>
 <circle cy="19.419" fill="#fff" r=".57" cx="18.625"/>
 <circle cy="20.938" fill="#fff" r=".57" cx="23.794"/>
 <circle cy="18.482" fill="#fff" r=".57" cx="22.438"/>
 <circle cy="20.919" fill="#fff" r=".57" cx="21.125"/>
 <circle cy="23.669" fill="#fff" r=".57" cx="22.375"/>
 <circle cy="25.107" fill="#fff" r=".57" cx="19.625"/>
 <circle cy="25.044" fill="#fff" r=".57" cx="25.125"/>
 <circle cy="22.294" fill="#fff" r=".57" cx="27.063"/>
 <circle cy="19.419" fill="#fff" r=".57" cx="27"/>
 <circle cy="20.938" fill="#fff" r=".57" cx="32.169"/>
 <circle cy="18.482" fill="#fff" r=".57" cx="30.813"/>
 <circle cy="20.919" fill="#fff" r=".57" cx="29.5"/>
 <circle cy="23.669" fill="#fff" r=".57" cx="30.75"/>
 <path d="M0 32.92c.3 0 .56.26.56.57H0v-.58zM33.5 32.94c-.3 0-.56.25-.56.57h.57v-.56z" fill="#fff"/>
 <circle cy="30.669" fill="#fff" r=".57" cx="1.938"/>
 <circle cy="27.794" fill="#fff" r=".57" cx="1.875"/>
 <circle cy="29.313" fill="#fff" r=".57" cx="7.044"/>
 <circle cy="26.857" fill="#fff" r=".57" cx="5.688"/>
 <circle cy="29.294" fill="#fff" r=".57" cx="4.375"/>
 <circle cy="32.044" fill="#fff" r=".57" cx="5.625"/>
 <path d="M3.44 33.5c0-.3-.25-.56-.57-.56s-.57.25-.57.57M8.95 33.5c0-.32-.26-.57-.57-.57s-.58.26-.58.57" fill="#fff"/>
 <circle cy="30.669" fill="#fff" r=".57" cx="10.313"/>
 <circle cy="27.794" fill="#fff" r=".57" cx="10.25"/>
 <circle cy="29.313" fill="#fff" r=".57" cx="15.419"/>
 <circle cy="26.857" fill="#fff" r=".57" cx="14.063"/>
 <circle cy="29.294" fill="#fff" r=".57" cx="12.75"/>
 <circle cy="32.044" fill="#fff" r=".57" cx="14"/>
 <path d="M11.82 33.5c0-.3-.26-.56-.57-.56s-.57.25-.57.57" fill="#fff"/>
 <circle cy="30.669" fill="#fff" r=".57" cx="18.688"/>
 <circle cy="27.794" fill="#fff" r=".57" cx="18.625"/>
 <circle cy="29.313" fill="#fff" r=".57" cx="23.794"/>
 <circle cy="26.857" fill="#fff" r=".57" cx="22.438"/>
 <circle cy="29.294" fill="#fff" r=".57" cx="21.125"/>
 <circle cy="32.044" fill="#fff" r=".57" cx="22.375"/>
 <path d="M20.2 33.5c0-.3-.26-.56-.57-.56s-.57.25-.57.57M25.7 33.5c0-.32-.26-.57-.57-.57s-.57.26-.57.57" fill="#fff"/>
 <circle cy="30.669" fill="#fff" r=".57" cx="27.063"/>
 <circle cy="27.794" fill="#fff" r=".57" cx="27"/>
 <circle cy="29.313" fill="#fff" r=".57" cx="32.169"/>
 <circle cy="26.857" fill="#fff" r=".57" cx="30.813"/>
 <circle cy="29.294" fill="#fff" r=".57" cx="29.5"/>
 <circle cy="32.044" fill="#fff" r=".57" cx="30.75"/>
 <path d="M28.57 33.5c0-.3-.26-.56-.57-.56s-.57.25-.57.57" fill="#fff"/>
 <circle cy="25.169" fill="#fff" r=".57" cx="28"/>
</svg>
