<?xml version="1.0"?>
<!-- Converted with SVG Converter - Version 0.9.5 (Compiled Fri Feb 21 09:53:38 2020) - Copyright (C) 2011 Nokia -->
<svg xmlns="http://www.w3.org/2000/svg" width="39.736" baseProfile="tiny" xmlns:xlink="http://www.w3.org/1999/xlink" height="39.737">
 <defs>
  <path d="M0 0h39.74v39.74H0z" id="a"/>
 </defs>
 <circle cx="3.331" r=".557" cy="1.318"/>
 <circle cx="3.331" r=".557" cy="5.224"/>
 <path d="M.02 2.7c.3 0 .56-.26.56-.57s-.25-.56-.56-.56"/>
 <circle cx="6.617" r=".557" cy="2.131"/>
 <circle cx="6.617" r=".557" cy="4.407"/>
 <path d="M0 4.96c.3 0 .55-.25.55-.55S.3 3.86 0 3.86"/>
 <circle cx="4.549" r=".557" cy="3.318"/>
 <circle cx="2.049" r=".557" cy="3.318"/>
 <path d="M4.8 0c0 .3.26.56.57.56.3 0 .55-.25.55-.56"/>
 <circle cx="5.367" r=".557" cy="6.595"/>
 <path d="M.75 0c0 .3.25.56.56.56.3 0 .56-.25.56-.56"/>
 <circle cx="1.305" r=".557" cy="6.599"/>
 <circle cx="9.956" r=".557" cy="1.318"/>
 <circle cx="9.956" r=".557" cy="5.224"/>
 <circle cx="13.242" r=".557" cy="2.131"/>
 <circle cx="13.242" r=".557" cy="4.407"/>
 <circle cx="6.617" r=".557" cy="4.407"/>
 <circle cx="11.174" r=".557" cy="3.318"/>
 <circle cx="8.674" r=".557" cy="3.318"/>
 <path d="M11.44 0c0 .3.25.56.55.56.3 0 .55-.25.55-.56"/>
 <circle cx="11.992" r=".557" cy="6.595"/>
 <path d="M7.37 0c0 .3.25.56.56.56.3 0 .56-.25.56-.56"/>
 <circle cx="7.93" r=".557" cy="6.599"/>
 <circle cx="16.581" r=".557" cy="1.318"/>
 <circle cx="16.581" r=".557" cy="5.224"/>
 <circle cx="19.867" r=".557" cy="2.131"/>
 <circle cx="19.867" r=".557" cy="4.407"/>
 <circle cx="13.242" r=".557" cy="4.407"/>
 <circle cx="17.799" r=".557" cy="3.318"/>
 <circle cx="15.299" r=".557" cy="3.318"/>
 <path d="M18.06 0c0 .3.25.56.56.56.3 0 .55-.25.55-.56"/>
 <circle cx="18.617" r=".557" cy="6.595"/>
 <path d="M14 0c0 .3.25.56.55.56.3 0 .56-.25.56-.56"/>
 <circle cx="14.555" r=".557" cy="6.599"/>
 <circle cx="23.206" r=".557" cy="1.318"/>
 <circle cx="23.206" r=".557" cy="5.224"/>
 <circle cx="26.492" r=".557" cy="2.131"/>
 <circle cx="26.492" r=".557" cy="4.407"/>
 <circle cx="19.867" r=".557" cy="4.407"/>
 <circle cx="24.424" r=".557" cy="3.318"/>
 <circle cx="21.924" r=".557" cy="3.318"/>
 <path d="M24.68 0c0 .3.25.56.56.56.3 0 .56-.25.56-.56"/>
 <circle cx="25.242" r=".557" cy="6.595"/>
 <path d="M20.62 0c0 .3.25.56.56.56.3 0 .56-.25.56-.56"/>
 <circle cx="21.18" r=".557" cy="6.599"/>
 <circle cx="29.831" r=".557" cy="1.318"/>
 <circle cx="29.831" r=".557" cy="5.224"/>
 <circle cx="33.117" r=".557" cy="2.131"/>
 <circle cx="33.117" r=".557" cy="4.407"/>
 <circle cx="26.492" r=".557" cy="4.407"/>
 <circle cx="31.049" r=".557" cy="3.318"/>
 <circle cx="28.549" r=".557" cy="3.318"/>
 <path d="M31.3 0c0 .3.26.56.57.56.3 0 .55-.25.55-.56"/>
 <circle cx="31.867" r=".557" cy="6.595"/>
 <path d="M27.25 0c0 .3.25.56.55.56.3 0 .56-.25.56-.56"/>
 <circle cx="27.805" r=".557" cy="6.599"/>
 <circle cx="36.456" r=".557" cy="1.318"/>
 <circle cx="36.456" r=".557" cy="5.224"/>
 <path d="M39.74 1.57c-.3 0-.56.25-.56.56s.25.56.56.56M39.74 3.85c-.3 0-.56.25-.56.56s.25.57.56.57"/>
 <circle cx="33.117" r=".557" cy="4.407"/>
 <circle cx="37.674" r=".557" cy="3.318"/>
 <circle cx="35.174" r=".557" cy="3.318"/>
 <path d="M37.94 0c0 .3.25.56.55.56.3 0 .55-.25.55-.56"/>
 <circle cx="38.492" r=".557" cy="6.595"/>
 <path d="M33.87 0c0 .3.25.56.56.56.3 0 .56-.25.56-.56"/>
 <circle cx="34.43" r=".557" cy="6.599"/>
 <circle cx="3.331" r=".557" cy="7.943"/>
 <circle cx="3.331" r=".557" cy="11.849"/>
 <path d="M.02 9.3c.3 0 .56-.24.56-.54S.33 8.2.02 8.2"/>
 <circle cx="6.617" r=".557" cy="8.756"/>
 <circle cx="6.617" r=".557" cy="11.032"/>
 <path d="M0 11.6c.3 0 .55-.26.55-.57s-.25-.55-.56-.55"/>
 <circle cx="4.549" r=".557" cy="9.943"/>
 <circle cx="2.049" r=".557" cy="9.943"/>
 <circle cx="5.367" r=".557" cy="13.22"/>
 <circle cx="1.305" r=".557" cy="13.224"/>
 <circle cx="9.956" r=".557" cy="7.943"/>
 <circle cx="9.956" r=".557" cy="11.849"/>
 <circle cx="13.242" r=".557" cy="8.756"/>
 <circle cx="13.242" r=".557" cy="11.032"/>
 <circle cx="6.617" r=".557" cy="11.032"/>
 <circle cx="11.174" r=".557" cy="9.943"/>
 <circle cx="8.674" r=".557" cy="9.943"/>
 <circle cx="11.992" r=".557" cy="13.22"/>
 <circle cx="7.93" r=".557" cy="13.224"/>
 <circle cx="16.581" r=".557" cy="7.943"/>
 <circle cx="16.581" r=".557" cy="11.849"/>
 <circle cx="19.867" r=".557" cy="8.756"/>
 <circle cx="19.867" r=".557" cy="11.032"/>
 <circle cx="13.242" r=".557" cy="11.032"/>
 <circle cx="17.799" r=".557" cy="9.943"/>
 <circle cx="15.299" r=".557" cy="9.943"/>
 <circle cx="18.617" r=".557" cy="13.22"/>
 <circle cx="14.555" r=".557" cy="13.224"/>
 <circle cx="23.206" r=".557" cy="7.943"/>
 <circle cx="23.206" r=".557" cy="11.849"/>
 <circle cx="26.492" r=".557" cy="8.756"/>
 <circle cx="26.492" r=".557" cy="11.032"/>
 <circle cx="19.867" r=".557" cy="11.032"/>
 <circle cx="24.424" r=".557" cy="9.943"/>
 <circle cx="21.924" r=".557" cy="9.943"/>
 <circle cx="25.242" r=".557" cy="13.22"/>
 <circle cx="21.18" r=".557" cy="13.224"/>
 <circle cx="29.831" r=".557" cy="7.943"/>
 <circle cx="29.831" r=".557" cy="11.849"/>
 <circle cx="33.117" r=".557" cy="8.756"/>
 <circle cx="33.117" r=".557" cy="11.032"/>
 <circle cx="26.492" r=".557" cy="11.032"/>
 <circle cx="31.049" r=".557" cy="9.943"/>
 <circle cx="28.549" r=".557" cy="9.943"/>
 <circle cx="31.867" r=".557" cy="13.22"/>
 <circle cx="27.805" r=".557" cy="13.224"/>
 <circle cx="36.456" r=".557" cy="7.943"/>
 <circle cx="36.456" r=".557" cy="11.849"/>
 <path d="M39.74 8.2c-.3 0-.56.25-.56.56s.25.55.56.55M39.74 10.48c-.3 0-.56.25-.56.55s.25.56.56.56"/>
 <circle cx="33.117" r=".557" cy="11.032"/>
 <circle cx="37.674" r=".557" cy="9.943"/>
 <circle cx="35.174" r=".557" cy="9.943"/>
 <circle cx="38.492" r=".557" cy="13.22"/>
 <circle cx="34.43" r=".557" cy="13.224"/>
 <circle cx="3.331" r=".557" cy="14.568"/>
 <circle cx="3.331" r=".557" cy="18.474"/>
 <path d="M.02 15.94c.3 0 .56-.25.56-.56s-.25-.56-.56-.56"/>
 <circle cx="6.617" r=".557" cy="15.381"/>
 <circle cx="6.617" r=".557" cy="17.657"/>
 <path d="M0 18.2c.3 0 .55-.24.55-.54S.3 17.1 0 17.1"/>
 <circle cx="4.549" r=".557" cy="16.568"/>
 <circle cx="2.049" r=".557" cy="16.568"/>
 <circle cx="5.367" r=".557" cy="19.845"/>
 <circle cx="1.305" r=".557" cy="19.849"/>
 <circle cx="9.956" r=".557" cy="14.568"/>
 <circle cx="9.956" r=".557" cy="18.474"/>
 <circle cx="13.242" r=".557" cy="15.381"/>
 <circle cx="13.242" r=".557" cy="17.657"/>
 <circle cx="6.617" r=".557" cy="17.657"/>
 <circle cx="11.174" r=".557" cy="16.568"/>
 <circle cx="8.674" r=".557" cy="16.568"/>
 <circle cx="11.992" r=".557" cy="19.845"/>
 <circle cx="7.93" r=".557" cy="19.849"/>
 <circle cx="16.581" r=".557" cy="14.568"/>
 <circle cx="16.581" r=".557" cy="18.474"/>
 <circle cx="19.867" r=".557" cy="15.381"/>
 <circle cx="19.867" r=".557" cy="17.657"/>
 <circle cx="13.242" r=".557" cy="17.657"/>
 <circle cx="17.799" r=".557" cy="16.568"/>
 <circle cx="15.299" r=".557" cy="16.568"/>
 <circle cx="18.617" r=".557" cy="19.845"/>
 <circle cx="14.555" r=".557" cy="19.849"/>
 <circle cx="23.206" r=".557" cy="14.568"/>
 <circle cx="23.206" r=".557" cy="18.474"/>
 <circle cx="26.492" r=".557" cy="15.381"/>
 <circle cx="26.492" r=".557" cy="17.657"/>
 <circle cx="19.867" r=".557" cy="17.657"/>
 <circle cx="24.424" r=".557" cy="16.568"/>
 <circle cx="21.924" r=".557" cy="16.568"/>
 <circle cx="25.242" r=".557" cy="19.845"/>
 <circle cx="21.18" r=".557" cy="19.849"/>
 <circle cx="29.831" r=".557" cy="14.568"/>
 <circle cx="29.831" r=".557" cy="18.474"/>
 <circle cx="33.117" r=".557" cy="15.381"/>
 <circle cx="33.117" r=".557" cy="17.657"/>
 <circle cx="26.492" r=".557" cy="17.657"/>
 <circle cx="31.049" r=".557" cy="16.568"/>
 <circle cx="28.549" r=".557" cy="16.568"/>
 <circle cx="31.867" r=".557" cy="19.845"/>
 <circle cx="27.805" r=".557" cy="19.849"/>
 <circle cx="36.456" r=".557" cy="14.568"/>
 <circle cx="36.456" r=".557" cy="18.474"/>
 <path d="M39.74 14.82c-.3 0-.56.25-.56.56s.25.56.56.56M39.74 17.1c-.3 0-.56.25-.56.56s.25.55.56.55"/>
 <circle cx="33.117" r=".557" cy="17.657"/>
 <circle cx="37.674" r=".557" cy="16.568"/>
 <circle cx="35.174" r=".557" cy="16.568"/>
 <circle cx="38.492" r=".557" cy="19.845"/>
 <circle cx="34.43" r=".557" cy="19.849"/>
 <circle cx="3.331" r=".557" cy="21.193"/>
 <circle cx="3.331" r=".557" cy="25.099"/>
 <path d="M.02 22.56c.3 0 .56-.25.56-.55s-.25-.55-.56-.55"/>
 <circle cx="6.617" r=".557" cy="22.006"/>
 <circle cx="6.617" r=".557" cy="24.282"/>
 <path d="M.02 24.84c.3 0 .56-.25.56-.56s-.25-.56-.56-.56"/>
 <circle cx="4.549" r=".557" cy="23.193"/>
 <circle cx="2.049" r=".557" cy="23.193"/>
 <circle cx="5.367" r=".557" cy="26.47"/>
 <circle cx="1.305" r=".557" cy="26.474"/>
 <circle cx="9.956" r=".557" cy="21.193"/>
 <circle cx="9.956" r=".557" cy="25.099"/>
 <circle cx="13.242" r=".557" cy="22.006"/>
 <circle cx="13.242" r=".557" cy="24.282"/>
 <circle cx="6.617" r=".557" cy="24.282"/>
 <circle cx="11.174" r=".557" cy="23.193"/>
 <circle cx="8.674" r=".557" cy="23.193"/>
 <circle cx="11.992" r=".557" cy="26.47"/>
 <circle cx="7.93" r=".557" cy="26.474"/>
 <circle cx="16.581" r=".557" cy="21.193"/>
 <circle cx="16.581" r=".557" cy="25.099"/>
 <circle cx="19.867" r=".557" cy="22.006"/>
 <circle cx="19.867" r=".557" cy="24.282"/>
 <circle cx="13.242" r=".557" cy="24.282"/>
 <circle cx="17.799" r=".557" cy="23.193"/>
 <circle cx="15.299" r=".557" cy="23.193"/>
 <circle cx="18.617" r=".557" cy="26.47"/>
 <circle cx="14.555" r=".557" cy="26.474"/>
 <circle cx="23.206" r=".557" cy="21.193"/>
 <circle cx="23.206" r=".557" cy="25.099"/>
 <circle cx="26.492" r=".557" cy="22.006"/>
 <circle cx="26.492" r=".557" cy="24.282"/>
 <circle cx="19.867" r=".557" cy="24.282"/>
 <circle cx="24.424" r=".557" cy="23.193"/>
 <circle cx="21.924" r=".557" cy="23.193"/>
 <circle cx="25.242" r=".557" cy="26.47"/>
 <circle cx="21.18" r=".557" cy="26.474"/>
 <circle cx="29.831" r=".557" cy="21.193"/>
 <circle cx="29.831" r=".557" cy="25.099"/>
 <circle cx="33.117" r=".557" cy="22.006"/>
 <circle cx="33.117" r=".557" cy="24.282"/>
 <circle cx="26.492" r=".557" cy="24.282"/>
 <circle cx="31.049" r=".557" cy="23.193"/>
 <circle cx="28.549" r=".557" cy="23.193"/>
 <circle cx="31.867" r=".557" cy="26.47"/>
 <circle cx="27.805" r=".557" cy="26.474"/>
 <circle cx="36.456" r=".557" cy="21.193"/>
 <circle cx="36.456" r=".557" cy="25.099"/>
 <path d="M39.74 21.45c-.3 0-.56.25-.56.56s.25.56.56.56M39.74 23.73c-.3 0-.56.24-.56.55s.25.56.56.56"/>
 <circle cx="33.117" r=".557" cy="24.282"/>
 <circle cx="37.674" r=".557" cy="23.193"/>
 <circle cx="35.174" r=".557" cy="23.193"/>
 <circle cx="38.492" r=".557" cy="26.47"/>
 <circle cx="34.43" r=".557" cy="26.474"/>
 <circle cx="3.331" r=".557" cy="27.818"/>
 <circle cx="3.331" r=".557" cy="31.724"/>
 <path d="M.02 29.2c.3 0 .56-.26.56-.57s-.25-.56-.56-.56"/>
 <circle cx="6.617" r=".557" cy="28.631"/>
 <circle cx="6.617" r=".557" cy="30.907"/>
 <path d="M0 31.46c.3 0 .55-.25.55-.55s-.25-.55-.56-.55"/>
 <circle cx="4.549" r=".557" cy="29.818"/>
 <circle cx="2.049" r=".557" cy="29.818"/>
 <circle cx="5.367" r=".557" cy="33.095"/>
 <circle cx="9.956" r=".557" cy="27.818"/>
 <circle cx="9.956" r=".557" cy="31.724"/>
 <circle cx="13.242" r=".557" cy="28.631"/>
 <circle cx="13.242" r=".557" cy="30.907"/>
 <circle cx="6.617" r=".557" cy="30.907"/>
 <circle cx="11.174" r=".557" cy="29.818"/>
 <circle cx="8.674" r=".557" cy="29.818"/>
 <circle cx="11.992" r=".557" cy="33.095"/>
 <circle cx="7.93" r=".557" cy="33.099"/>
 <circle cx="16.581" r=".557" cy="27.818"/>
 <circle cx="16.581" r=".557" cy="31.724"/>
 <circle cx="19.867" r=".557" cy="28.631"/>
 <circle cx="19.867" r=".557" cy="30.907"/>
 <circle cx="13.242" r=".557" cy="30.907"/>
 <circle cx="17.799" r=".557" cy="29.818"/>
 <circle cx="15.299" r=".557" cy="29.818"/>
 <circle cx="18.617" r=".557" cy="33.095"/>
 <circle cx="23.206" r=".557" cy="27.818"/>
 <circle cx="23.206" r=".557" cy="31.724"/>
 <circle cx="26.492" r=".557" cy="28.631"/>
 <circle cx="26.492" r=".557" cy="30.907"/>
 <circle cx="19.867" r=".557" cy="30.907"/>
 <circle cx="24.424" r=".557" cy="29.818"/>
 <circle cx="21.924" r=".557" cy="29.818"/>
 <circle cx="25.242" r=".557" cy="33.095"/>
 <circle cx="21.18" r=".557" cy="33.099"/>
 <circle cx="29.831" r=".557" cy="27.818"/>
 <circle cx="29.831" r=".557" cy="31.724"/>
 <circle cx="33.117" r=".557" cy="28.631"/>
 <circle cx="33.117" r=".557" cy="30.907"/>
 <circle cx="26.492" r=".557" cy="30.907"/>
 <circle cx="31.049" r=".557" cy="29.818"/>
 <circle cx="28.549" r=".557" cy="29.818"/>
 <circle cx="31.867" r=".557" cy="33.095"/>
 <circle cx="27.805" r=".557" cy="33.099"/>
 <circle cx="36.456" r=".557" cy="27.818"/>
 <circle cx="36.456" r=".557" cy="31.724"/>
 <path d="M39.74 28.07c-.3 0-.56.25-.56.56s.25.56.56.56M39.74 30.35c-.3 0-.56.25-.56.56s.25.56.56.56"/>
 <circle cx="33.117" r=".557" cy="30.907"/>
 <circle cx="37.674" r=".557" cy="29.818"/>
 <circle cx="35.174" r=".557" cy="29.818"/>
 <circle cx="38.492" r=".557" cy="33.095"/>
 <circle cx="34.43" r=".557" cy="33.099"/>
 <circle cx="3.331" r=".557" cy="34.443"/>
 <circle cx="3.331" r=".557" cy="38.349"/>
 <path d="M.02 35.8c.3 0 .56-.24.56-.54s-.25-.56-.56-.56"/>
 <circle cx="6.617" r=".557" cy="35.256"/>
 <circle cx="6.617" r=".557" cy="37.532"/>
 <path d="M0 38.1c.3 0 .55-.26.55-.57s-.25-.55-.56-.55"/>
 <circle cx="4.549" r=".557" cy="36.443"/>
 <circle cx="2.049" r=".557" cy="36.443"/>
 <path d="M5.92 39.72c0-.3-.25-.56-.55-.56-.3 0-.56.25-.56.56"/>
 <circle cx="1.305" r=".557" cy="33.157"/>
 <path d="M1.86 39.72c0-.3-.25-.55-.56-.55-.3 0-.55.25-.55.55"/>
 <circle cx="9.956" r=".557" cy="34.443"/>
 <circle cx="9.956" r=".557" cy="38.349"/>
 <circle cx="13.242" r=".557" cy="35.256"/>
 <circle cx="13.242" r=".557" cy="37.532"/>
 <circle cx="6.617" r=".557" cy="37.532"/>
 <circle cx="11.174" r=".557" cy="36.443"/>
 <circle cx="8.674" r=".557" cy="36.443"/>
 <path d="M12.55 39.72c0-.3-.25-.56-.56-.56-.32 0-.57.25-.57.56M8.5 39.72c0-.3-.26-.55-.57-.55-.3 0-.56.25-.56.55"/>
 <circle cx="16.581" r=".557" cy="34.443"/>
 <circle cx="16.581" r=".557" cy="38.349"/>
 <circle cx="19.867" r=".557" cy="35.256"/>
 <circle cx="19.867" r=".557" cy="37.532"/>
 <circle cx="13.242" r=".557" cy="37.532"/>
 <circle cx="17.799" r=".557" cy="36.443"/>
 <circle cx="15.299" r=".557" cy="36.443"/>
 <path d="M19.17 39.72c0-.3-.25-.56-.55-.56-.3 0-.56.25-.56.56"/>
 <circle cx="14.555" r=".557" cy="33.157"/>
 <path d="M15.1 39.72c0-.3-.24-.55-.55-.55-.3 0-.55.25-.55.55"/>
 <circle cx="23.206" r=".557" cy="34.443"/>
 <circle cx="23.206" r=".557" cy="38.349"/>
 <circle cx="26.492" r=".557" cy="35.256"/>
 <circle cx="26.492" r=".557" cy="37.532"/>
 <circle cx="19.867" r=".557" cy="37.532"/>
 <circle cx="24.424" r=".557" cy="36.443"/>
 <circle cx="21.924" r=".557" cy="36.443"/>
 <path d="M25.8 39.72c0-.3-.25-.56-.56-.56-.3 0-.56.25-.56.56M21.74 39.72c0-.3-.25-.55-.56-.55-.3 0-.56.25-.56.55"/>
 <circle cx="29.831" r=".557" cy="34.443"/>
 <circle cx="29.831" r=".557" cy="38.349"/>
 <circle cx="33.117" r=".557" cy="35.256"/>
 <circle cx="33.117" r=".557" cy="37.532"/>
 <circle cx="26.492" r=".557" cy="37.532"/>
 <circle cx="31.049" r=".557" cy="36.443"/>
 <circle cx="28.549" r=".557" cy="36.443"/>
 <path d="M32.42 39.72c0-.3-.25-.56-.55-.56-.3 0-.56.25-.56.56M28.36 39.72c0-.3-.25-.55-.56-.55-.3 0-.55.25-.55.55"/>
 <circle cx="36.456" r=".557" cy="34.443"/>
 <circle cx="36.456" r=".557" cy="38.349"/>
 <path d="M39.74 34.7c-.3 0-.56.25-.56.56s.25.55.56.55M39.74 36.98c-.3 0-.56.25-.56.55s.25.56.56.56"/>
 <circle cx="33.117" r=".557" cy="37.532"/>
 <circle cx="37.674" r=".557" cy="36.443"/>
 <circle cx="35.174" r=".557" cy="36.443"/>
 <path d="M39.05 39.72c0-.3-.25-.56-.56-.56-.32 0-.57.25-.57.56M35 39.72c0-.3-.26-.55-.57-.55-.3 0-.56.25-.56.55"/>
</svg>
