<?xml version="1.0"?>
<!-- Converted with SVG Converter - Version 0.9.6 (Compiled Thu Aug 31 10:01:05 2017) - Copyright (C) 2011 Nokia -->
<svg xmlns="http://www.w3.org/2000/svg" baseProfile="tiny" height="39.737" xmlns:xlink="http://www.w3.org/1999/xlink" width="39.737">
 <defs>
  <path id="a" d="M0 0h39.74v39.74H0z"/>
 </defs>
 <circle r=".607" cy="1.318" fill="#00AEEF" cx="3.331"/>
 <circle r=".607" cy="5.224" fill="#00AEEF" cx="3.331"/>
 <path d="M0 2.74c.35 0 .62-.27.62-.6S.35 1.5.02 1.5" fill="#00AEEF"/>
 <circle r=".607" cy="2.131" fill="#00AEEF" cx="6.617"/>
 <circle r=".607" cy="4.407" fill="#00AEEF" cx="6.617"/>
 <path d="M.02 5c.33 0 .6-.26.6-.6s-.27-.6-.6-.6" fill="#00AEEF"/>
 <circle r=".607" cy="3.318" fill="#00AEEF" cx="4.549"/>
 <circle r=".607" cy="3.318" fill="#00AEEF" cx="2.049"/>
 <path d="M4.76 0c0 .35.27.62.6.62s.6-.27.6-.6" fill="#00AEEF"/>
 <circle r=".607" cy="6.595" fill="#00AEEF" cx="5.367"/>
 <path d="M.7 0c0 .35.27.62.6.62s.6-.27.6-.6" fill="#00AEEF"/>
 <circle r=".607" cy="6.599" fill="#00AEEF" cx="1.304"/>
 <circle r=".607" cy="1.318" fill="#00AEEF" cx="9.956"/>
 <circle r=".607" cy="5.224" fill="#00AEEF" cx="9.956"/>
 <circle r=".607" cy="2.131" fill="#00AEEF" cx="13.242"/>
 <circle r=".607" cy="4.407" fill="#00AEEF" cx="13.242"/>
 <circle r=".607" cy="4.407" fill="#00AEEF" cx="6.617"/>
 <circle r=".607" cy="3.318" fill="#00AEEF" cx="11.174"/>
 <circle r=".607" cy="3.318" fill="#00AEEF" cx="8.674"/>
 <path d="M11.38 0c0 .35.28.62.6.62s.62-.27.62-.6" fill="#00AEEF"/>
 <circle r=".607" cy="6.595" fill="#00AEEF" cx="11.992"/>
 <path d="M7.32 0c0 .35.27.62.6.62s.62-.27.62-.6" fill="#00AEEF"/>
 <circle r=".607" cy="6.599" fill="#00AEEF" cx="7.929"/>
 <circle r=".607" cy="1.318" fill="#00AEEF" cx="16.581"/>
 <circle r=".607" cy="5.224" fill="#00AEEF" cx="16.581"/>
 <circle r=".607" cy="2.131" fill="#00AEEF" cx="19.867"/>
 <circle r=".607" cy="4.407" fill="#00AEEF" cx="19.867"/>
 <circle r=".607" cy="4.407" fill="#00AEEF" cx="13.242"/>
 <circle r=".607" cy="3.318" fill="#00AEEF" cx="17.799"/>
 <circle r=".607" cy="3.318" fill="#00AEEF" cx="15.299"/>
 <path d="M18 0c0 .35.28.62.62.62s.6-.27.6-.6" fill="#00AEEF"/>
 <circle r=".607" cy="6.595" fill="#00AEEF" cx="18.617"/>
 <path d="M13.95 0c0 .35.27.62.6.62s.6-.27.6-.6" fill="#00AEEF"/>
 <circle r=".607" cy="6.599" fill="#00AEEF" cx="14.554"/>
 <circle r=".607" cy="1.318" fill="#00AEEF" cx="23.206"/>
 <circle r=".607" cy="5.224" fill="#00AEEF" cx="23.206"/>
 <circle r=".607" cy="2.131" fill="#00AEEF" cx="26.492"/>
 <circle r=".607" cy="4.407" fill="#00AEEF" cx="26.492"/>
 <circle r=".607" cy="4.407" fill="#00AEEF" cx="19.867"/>
 <circle r=".607" cy="3.318" fill="#00AEEF" cx="24.424"/>
 <circle r=".607" cy="3.318" fill="#00AEEF" cx="21.924"/>
 <path d="M24.63 0c0 .35.28.62.6.62s.62-.27.62-.6" fill="#00AEEF"/>
 <circle r=".607" cy="6.595" fill="#00AEEF" cx="25.242"/>
 <path d="M20.57 0c0 .35.27.62.6.62s.62-.27.62-.6" fill="#00AEEF"/>
 <circle r=".607" cy="6.599" fill="#00AEEF" cx="21.179"/>
 <circle r=".607" cy="1.318" fill="#00AEEF" cx="29.831"/>
 <circle r=".607" cy="5.224" fill="#00AEEF" cx="29.831"/>
 <circle r=".607" cy="2.131" fill="#00AEEF" cx="33.117"/>
 <circle r=".607" cy="4.407" fill="#00AEEF" cx="33.117"/>
 <circle r=".607" cy="4.407" fill="#00AEEF" cx="26.492"/>
 <circle r=".607" cy="3.318" fill="#00AEEF" cx="31.049"/>
 <circle r=".607" cy="3.318" fill="#00AEEF" cx="28.549"/>
 <path d="M31.26 0c0 .35.27.62.6.62s.6-.27.6-.6" fill="#00AEEF"/>
 <circle r=".607" cy="6.595" fill="#00AEEF" cx="31.867"/>
 <path d="M27.2 0c0 .35.27.62.6.62s.6-.27.6-.6" fill="#00AEEF"/>
 <circle r=".607" cy="6.599" fill="#00AEEF" cx="27.804"/>
 <circle r=".607" cy="1.318" fill="#00AEEF" cx="36.456"/>
 <circle r=".607" cy="5.224" fill="#00AEEF" cx="36.456"/>
 <path d="M39.72 1.52c-.34 0-.6.27-.6.6s.26.62.6.62M39.72 3.8c-.34 0-.6.27-.6.6s.26.6.6.6" fill="#00AEEF"/>
 <circle r=".607" cy="4.407" fill="#00AEEF" cx="33.117"/>
 <circle r=".607" cy="3.318" fill="#00AEEF" cx="37.674"/>
 <circle r=".607" cy="3.318" fill="#00AEEF" cx="35.174"/>
 <path d="M37.88 0c0 .35.28.62.6.62s.62-.27.62-.6" fill="#00AEEF"/>
 <circle r=".607" cy="6.595" fill="#00AEEF" cx="38.492"/>
 <path d="M33.82 0c0 .35.27.62.6.62s.62-.27.62-.6" fill="#00AEEF"/>
 <circle r=".607" cy="6.599" fill="#00AEEF" cx="34.429"/>
 <circle r=".607" cy="7.943" fill="#00AEEF" cx="3.331"/>
 <circle r=".607" cy="11.849" fill="#00AEEF" cx="3.331"/>
 <path d="M0 9.36c.35 0 .62-.27.62-.6s-.27-.6-.6-.6" fill="#00AEEF"/>
 <circle r=".607" cy="8.756" fill="#00AEEF" cx="6.617"/>
 <circle r=".607" cy="11.032" fill="#00AEEF" cx="6.617"/>
 <path d="M0 11.64c.34 0 .6-.27.6-.6s-.26-.6-.6-.6" fill="#00AEEF"/>
 <circle r=".607" cy="9.943" fill="#00AEEF" cx="4.549"/>
 <circle r=".607" cy="9.943" fill="#00AEEF" cx="2.049"/>
 <circle r=".607" cy="13.22" fill="#00AEEF" cx="5.367"/>
 <circle r=".607" cy="13.224" fill="#00AEEF" cx="1.304"/>
 <circle r=".607" cy="7.943" fill="#00AEEF" cx="9.956"/>
 <circle r=".607" cy="11.849" fill="#00AEEF" cx="9.956"/>
 <circle r=".607" cy="8.756" fill="#00AEEF" cx="13.242"/>
 <circle r=".607" cy="11.032" fill="#00AEEF" cx="13.242"/>
 <circle r=".607" cy="11.032" fill="#00AEEF" cx="6.617"/>
 <circle r=".607" cy="9.943" fill="#00AEEF" cx="11.174"/>
 <circle r=".607" cy="9.943" fill="#00AEEF" cx="8.674"/>
 <circle r=".607" cy="13.22" fill="#00AEEF" cx="11.992"/>
 <circle r=".607" cy="13.224" fill="#00AEEF" cx="7.929"/>
 <circle r=".607" cy="7.943" fill="#00AEEF" cx="16.581"/>
 <circle r=".607" cy="11.849" fill="#00AEEF" cx="16.581"/>
 <circle r=".607" cy="8.756" fill="#00AEEF" cx="19.867"/>
 <circle r=".607" cy="11.032" fill="#00AEEF" cx="19.867"/>
 <circle r=".607" cy="11.032" fill="#00AEEF" cx="13.242"/>
 <circle r=".607" cy="9.943" fill="#00AEEF" cx="17.799"/>
 <circle r=".607" cy="9.943" fill="#00AEEF" cx="15.299"/>
 <circle r=".607" cy="13.22" fill="#00AEEF" cx="18.617"/>
 <circle r=".607" cy="13.224" fill="#00AEEF" cx="14.554"/>
 <circle r=".607" cy="7.943" fill="#00AEEF" cx="23.206"/>
 <circle r=".607" cy="11.849" fill="#00AEEF" cx="23.206"/>
 <circle r=".607" cy="8.756" fill="#00AEEF" cx="26.492"/>
 <circle r=".607" cy="11.032" fill="#00AEEF" cx="26.492"/>
 <circle r=".607" cy="11.032" fill="#00AEEF" cx="19.867"/>
 <circle r=".607" cy="9.943" fill="#00AEEF" cx="24.424"/>
 <circle r=".607" cy="9.943" fill="#00AEEF" cx="21.924"/>
 <circle r=".607" cy="13.22" fill="#00AEEF" cx="25.242"/>
 <circle r=".607" cy="13.224" fill="#00AEEF" cx="21.179"/>
 <circle r=".607" cy="7.943" fill="#00AEEF" cx="29.831"/>
 <circle r=".607" cy="11.849" fill="#00AEEF" cx="29.831"/>
 <circle r=".607" cy="8.756" fill="#00AEEF" cx="33.117"/>
 <circle r=".607" cy="11.032" fill="#00AEEF" cx="33.117"/>
 <circle r=".607" cy="11.032" fill="#00AEEF" cx="26.492"/>
 <circle r=".607" cy="9.943" fill="#00AEEF" cx="31.049"/>
 <circle r=".607" cy="9.943" fill="#00AEEF" cx="28.549"/>
 <circle r=".607" cy="13.22" fill="#00AEEF" cx="31.867"/>
 <circle r=".607" cy="13.224" fill="#00AEEF" cx="27.804"/>
 <circle r=".607" cy="7.943" fill="#00AEEF" cx="36.456"/>
 <circle r=".607" cy="11.849" fill="#00AEEF" cx="36.456"/>
 <path d="M39.72 8.15c-.34 0-.6.27-.6.6s.26.6.6.6M39.72 10.43c-.34 0-.6.27-.6.6s.26.6.6.6" fill="#00AEEF"/>
 <circle r=".607" cy="11.032" fill="#00AEEF" cx="33.117"/>
 <circle r=".607" cy="9.943" fill="#00AEEF" cx="37.674"/>
 <circle r=".607" cy="9.943" fill="#00AEEF" cx="35.174"/>
 <circle r=".607" cy="13.22" fill="#00AEEF" cx="38.492"/>
 <circle r=".607" cy="13.224" fill="#00AEEF" cx="34.429"/>
 <circle r=".607" cy="14.568" fill="#00AEEF" cx="3.331"/>
 <circle r=".607" cy="18.474" fill="#00AEEF" cx="3.331"/>
 <path d="M0 16c.33 0 .6-.28.6-.62s-.27-.6-.6-.6" fill="#00AEEF"/>
 <circle r=".607" cy="15.381" fill="#00AEEF" cx="6.617"/>
 <circle r=".607" cy="17.657" fill="#00AEEF" cx="6.617"/>
 <path d="M.02 18.27c.33 0 .6-.28.6-.6s-.27-.62-.6-.62" fill="#00AEEF"/>
 <circle r=".607" cy="16.568" fill="#00AEEF" cx="4.549"/>
 <circle r=".607" cy="16.568" fill="#00AEEF" cx="2.049"/>
 <circle r=".607" cy="19.845" fill="#00AEEF" cx="5.367"/>
 <circle r=".607" cy="19.849" fill="#00AEEF" cx="1.304"/>
 <circle r=".607" cy="14.568" fill="#00AEEF" cx="9.956"/>
 <circle r=".607" cy="18.474" fill="#00AEEF" cx="9.956"/>
 <circle r=".607" cy="15.381" fill="#00AEEF" cx="13.242"/>
 <circle r=".607" cy="17.657" fill="#00AEEF" cx="13.242"/>
 <circle r=".607" cy="17.657" fill="#00AEEF" cx="6.617"/>
 <circle r=".607" cy="16.568" fill="#00AEEF" cx="11.174"/>
 <circle r=".607" cy="16.568" fill="#00AEEF" cx="8.674"/>
 <circle r=".607" cy="19.845" fill="#00AEEF" cx="11.992"/>
 <circle r=".607" cy="19.849" fill="#00AEEF" cx="7.929"/>
 <circle r=".607" cy="14.568" fill="#00AEEF" cx="16.581"/>
 <circle r=".607" cy="18.474" fill="#00AEEF" cx="16.581"/>
 <circle r=".607" cy="15.381" fill="#00AEEF" cx="19.867"/>
 <circle r=".607" cy="17.657" fill="#00AEEF" cx="19.867"/>
 <circle r=".607" cy="17.657" fill="#00AEEF" cx="13.242"/>
 <circle r=".607" cy="16.568" fill="#00AEEF" cx="17.799"/>
 <circle r=".607" cy="16.568" fill="#00AEEF" cx="15.299"/>
 <circle r=".607" cy="19.845" fill="#00AEEF" cx="18.617"/>
 <circle r=".607" cy="19.849" fill="#00AEEF" cx="14.554"/>
 <circle r=".607" cy="14.568" fill="#00AEEF" cx="23.206"/>
 <circle r=".607" cy="18.474" fill="#00AEEF" cx="23.206"/>
 <circle r=".607" cy="15.381" fill="#00AEEF" cx="26.492"/>
 <circle r=".607" cy="17.657" fill="#00AEEF" cx="26.492"/>
 <circle r=".607" cy="17.657" fill="#00AEEF" cx="19.867"/>
 <circle r=".607" cy="16.568" fill="#00AEEF" cx="24.424"/>
 <circle r=".607" cy="16.568" fill="#00AEEF" cx="21.924"/>
 <circle r=".607" cy="19.845" fill="#00AEEF" cx="25.242"/>
 <circle r=".607" cy="19.849" fill="#00AEEF" cx="21.179"/>
 <circle r=".607" cy="14.568" fill="#00AEEF" cx="29.831"/>
 <circle r=".607" cy="18.474" fill="#00AEEF" cx="29.831"/>
 <circle r=".607" cy="15.381" fill="#00AEEF" cx="33.117"/>
 <circle r=".607" cy="17.657" fill="#00AEEF" cx="33.117"/>
 <circle r=".607" cy="17.657" fill="#00AEEF" cx="26.492"/>
 <circle r=".607" cy="16.568" fill="#00AEEF" cx="31.049"/>
 <circle r=".607" cy="16.568" fill="#00AEEF" cx="28.549"/>
 <circle r=".607" cy="19.845" fill="#00AEEF" cx="31.867"/>
 <circle r=".607" cy="19.849" fill="#00AEEF" cx="27.804"/>
 <circle r=".607" cy="14.568" fill="#00AEEF" cx="36.456"/>
 <circle r=".607" cy="18.474" fill="#00AEEF" cx="36.456"/>
 <path d="M39.73 14.77c-.33 0-.6.28-.6.6s.27.62.6.62M39.73 17.05c-.33 0-.6.27-.6.6s.27.6.6.6" fill="#00AEEF"/>
 <circle r=".607" cy="17.657" fill="#00AEEF" cx="33.117"/>
 <circle r=".607" cy="16.568" fill="#00AEEF" cx="37.674"/>
 <circle r=".607" cy="16.568" fill="#00AEEF" cx="35.174"/>
 <circle r=".607" cy="19.845" fill="#00AEEF" cx="38.492"/>
 <circle r=".607" cy="19.849" fill="#00AEEF" cx="34.429"/>
 <circle r=".607" cy="21.193" fill="#00AEEF" cx="3.331"/>
 <circle r=".607" cy="25.099" fill="#00AEEF" cx="3.331"/>
 <path d="M.03 22.6c.33 0 .6-.26.6-.6s-.27-.6-.6-.6" fill="#00AEEF"/>
 <circle r=".607" cy="22.006" fill="#00AEEF" cx="6.617"/>
 <circle r=".607" cy="24.282" fill="#00AEEF" cx="6.617"/>
 <path d="M.02 24.9c.34 0 .6-.28.6-.62s-.26-.6-.6-.6" fill="#00AEEF"/>
 <circle r=".607" cy="23.193" fill="#00AEEF" cx="4.549"/>
 <circle r=".607" cy="23.193" fill="#00AEEF" cx="2.049"/>
 <circle r=".607" cy="26.47" fill="#00AEEF" cx="5.367"/>
 <circle r=".607" cy="26.474" fill="#00AEEF" cx="1.304"/>
 <circle r=".607" cy="21.193" fill="#00AEEF" cx="9.956"/>
 <circle r=".607" cy="25.099" fill="#00AEEF" cx="9.956"/>
 <circle r=".607" cy="22.006" fill="#00AEEF" cx="13.242"/>
 <circle r=".607" cy="24.282" fill="#00AEEF" cx="13.242"/>
 <circle r=".607" cy="24.282" fill="#00AEEF" cx="6.617"/>
 <circle r=".607" cy="23.193" fill="#00AEEF" cx="11.174"/>
 <circle r=".607" cy="23.193" fill="#00AEEF" cx="8.674"/>
 <circle r=".607" cy="26.47" fill="#00AEEF" cx="11.992"/>
 <circle r=".607" cy="26.474" fill="#00AEEF" cx="7.929"/>
 <circle r=".607" cy="21.193" fill="#00AEEF" cx="16.581"/>
 <circle r=".607" cy="25.099" fill="#00AEEF" cx="16.581"/>
 <circle r=".607" cy="22.006" fill="#00AEEF" cx="19.867"/>
 <circle r=".607" cy="24.282" fill="#00AEEF" cx="19.867"/>
 <circle r=".607" cy="24.282" fill="#00AEEF" cx="13.242"/>
 <circle r=".607" cy="23.193" fill="#00AEEF" cx="17.799"/>
 <circle r=".607" cy="23.193" fill="#00AEEF" cx="15.299"/>
 <circle r=".607" cy="26.47" fill="#00AEEF" cx="18.617"/>
 <circle r=".607" cy="26.474" fill="#00AEEF" cx="14.554"/>
 <circle r=".607" cy="21.193" fill="#00AEEF" cx="23.206"/>
 <circle r=".607" cy="25.099" fill="#00AEEF" cx="23.206"/>
 <circle r=".607" cy="22.006" fill="#00AEEF" cx="26.492"/>
 <circle r=".607" cy="24.282" fill="#00AEEF" cx="26.492"/>
 <circle r=".607" cy="24.282" fill="#00AEEF" cx="19.867"/>
 <circle r=".607" cy="23.193" fill="#00AEEF" cx="24.424"/>
 <circle r=".607" cy="23.193" fill="#00AEEF" cx="21.924"/>
 <circle r=".607" cy="26.47" fill="#00AEEF" cx="25.242"/>
 <circle r=".607" cy="26.474" fill="#00AEEF" cx="21.179"/>
 <circle r=".607" cy="21.193" fill="#00AEEF" cx="29.831"/>
 <circle r=".607" cy="25.099" fill="#00AEEF" cx="29.831"/>
 <circle r=".607" cy="22.006" fill="#00AEEF" cx="33.117"/>
 <circle r=".607" cy="24.282" fill="#00AEEF" cx="33.117"/>
 <circle r=".607" cy="24.282" fill="#00AEEF" cx="26.492"/>
 <circle r=".607" cy="23.193" fill="#00AEEF" cx="31.049"/>
 <circle r=".607" cy="23.193" fill="#00AEEF" cx="28.549"/>
 <circle r=".607" cy="26.47" fill="#00AEEF" cx="31.867"/>
 <circle r=".607" cy="26.474" fill="#00AEEF" cx="27.804"/>
 <circle r=".607" cy="21.193" fill="#00AEEF" cx="36.456"/>
 <circle r=".607" cy="25.099" fill="#00AEEF" cx="36.456"/>
 <path d="M39.73 21.4c-.33 0-.6.27-.6.6s.27.6.6.6M39.73 23.68c-.33 0-.6.27-.6.6s.27.6.6.6" fill="#00AEEF"/>
 <circle r=".607" cy="24.282" fill="#00AEEF" cx="33.117"/>
 <circle r=".607" cy="23.193" fill="#00AEEF" cx="37.674"/>
 <circle r=".607" cy="23.193" fill="#00AEEF" cx="35.174"/>
 <circle r=".607" cy="26.47" fill="#00AEEF" cx="38.492"/>
 <circle r=".607" cy="26.474" fill="#00AEEF" cx="34.429"/>
 <circle r=".607" cy="27.818" fill="#00AEEF" cx="3.331"/>
 <circle r=".607" cy="31.724" fill="#00AEEF" cx="3.331"/>
 <path d="M0 29.24c.35 0 .62-.27.62-.6S.35 28 .02 28" fill="#00AEEF"/>
 <circle r=".607" cy="28.631" fill="#00AEEF" cx="6.617"/>
 <circle r=".607" cy="30.907" fill="#00AEEF" cx="6.617"/>
 <path d="M.02 31.52c.33 0 .6-.28.6-.6s-.27-.62-.6-.62" fill="#00AEEF"/>
 <circle r=".607" cy="29.818" fill="#00AEEF" cx="4.549"/>
 <circle r=".607" cy="29.818" fill="#00AEEF" cx="2.049"/>
 <circle r=".607" cy="33.095" fill="#00AEEF" cx="5.367"/>
 <circle r=".607" cy="27.818" fill="#00AEEF" cx="9.956"/>
 <circle r=".607" cy="31.724" fill="#00AEEF" cx="9.956"/>
 <circle r=".607" cy="28.631" fill="#00AEEF" cx="13.242"/>
 <circle r=".607" cy="30.907" fill="#00AEEF" cx="13.242"/>
 <circle r=".607" cy="30.907" fill="#00AEEF" cx="6.617"/>
 <circle r=".607" cy="29.818" fill="#00AEEF" cx="11.174"/>
 <circle r=".607" cy="29.818" fill="#00AEEF" cx="8.674"/>
 <circle r=".607" cy="33.095" fill="#00AEEF" cx="11.992"/>
 <circle r=".607" cy="33.099" fill="#00AEEF" cx="7.929"/>
 <circle r=".607" cy="27.818" fill="#00AEEF" cx="16.581"/>
 <circle r=".607" cy="31.724" fill="#00AEEF" cx="16.581"/>
 <circle r=".607" cy="28.631" fill="#00AEEF" cx="19.867"/>
 <circle r=".607" cy="30.907" fill="#00AEEF" cx="19.867"/>
 <circle r=".607" cy="30.907" fill="#00AEEF" cx="13.242"/>
 <circle r=".607" cy="29.818" fill="#00AEEF" cx="17.799"/>
 <circle r=".607" cy="29.818" fill="#00AEEF" cx="15.299"/>
 <circle r=".607" cy="33.095" fill="#00AEEF" cx="18.617"/>
 <circle r=".607" cy="27.818" fill="#00AEEF" cx="23.206"/>
 <circle r=".607" cy="31.724" fill="#00AEEF" cx="23.206"/>
 <circle r=".607" cy="28.631" fill="#00AEEF" cx="26.492"/>
 <circle r=".607" cy="30.907" fill="#00AEEF" cx="26.492"/>
 <circle r=".607" cy="30.907" fill="#00AEEF" cx="19.867"/>
 <circle r=".607" cy="29.818" fill="#00AEEF" cx="24.424"/>
 <circle r=".607" cy="29.818" fill="#00AEEF" cx="21.924"/>
 <circle r=".607" cy="33.095" fill="#00AEEF" cx="25.242"/>
 <circle r=".607" cy="33.099" fill="#00AEEF" cx="21.179"/>
 <circle r=".607" cy="27.818" fill="#00AEEF" cx="29.831"/>
 <circle r=".607" cy="31.724" fill="#00AEEF" cx="29.831"/>
 <circle r=".607" cy="28.631" fill="#00AEEF" cx="33.117"/>
 <circle r=".607" cy="30.907" fill="#00AEEF" cx="33.117"/>
 <circle r=".607" cy="30.907" fill="#00AEEF" cx="26.492"/>
 <circle r=".607" cy="29.818" fill="#00AEEF" cx="31.049"/>
 <circle r=".607" cy="29.818" fill="#00AEEF" cx="28.549"/>
 <circle r=".607" cy="33.095" fill="#00AEEF" cx="31.867"/>
 <circle r=".607" cy="33.099" fill="#00AEEF" cx="27.804"/>
 <circle r=".607" cy="27.818" fill="#00AEEF" cx="36.456"/>
 <circle r=".607" cy="31.724" fill="#00AEEF" cx="36.456"/>
 <path d="M39.73 28.02c-.33 0-.6.28-.6.6s.27.62.6.62M39.73 30.3c-.34 0-.6.27-.6.6s.26.6.6.6" fill="#00AEEF"/>
 <circle r=".607" cy="30.907" fill="#00AEEF" cx="33.117"/>
 <circle r=".607" cy="29.818" fill="#00AEEF" cx="37.674"/>
 <circle r=".607" cy="29.818" fill="#00AEEF" cx="35.174"/>
 <circle r=".607" cy="33.095" fill="#00AEEF" cx="38.492"/>
 <circle r=".607" cy="33.099" fill="#00AEEF" cx="34.429"/>
 <circle r=".607" cy="34.443" fill="#00AEEF" cx="3.331"/>
 <circle r=".607" cy="38.349" fill="#00AEEF" cx="3.331"/>
 <path d="M0 35.86c.35 0 .62-.27.62-.6s-.27-.6-.6-.6" fill="#00AEEF"/>
 <circle r=".607" cy="35.256" fill="#00AEEF" cx="6.617"/>
 <circle r=".607" cy="37.532" fill="#00AEEF" cx="6.617"/>
 <path d="M0 38.14c.34 0 .6-.27.6-.6s-.26-.6-.6-.6" fill="#00AEEF"/>
 <circle r=".607" cy="36.443" fill="#00AEEF" cx="4.549"/>
 <circle r=".607" cy="36.443" fill="#00AEEF" cx="2.049"/>
 <path d="M5.97 39.73c0-.34-.27-.6-.6-.6s-.6.26-.6.6" fill="#00AEEF"/>
 <circle r=".607" cy="33.157" fill="#00AEEF" cx="1.304"/>
 <path d="M1.9 39.73c0-.34-.26-.6-.6-.6s-.6.26-.6.6" fill="#00AEEF"/>
 <circle r=".607" cy="34.443" fill="#00AEEF" cx="9.956"/>
 <circle r=".607" cy="38.349" fill="#00AEEF" cx="9.956"/>
 <circle r=".607" cy="35.256" fill="#00AEEF" cx="13.242"/>
 <circle r=".607" cy="37.532" fill="#00AEEF" cx="13.242"/>
 <circle r=".607" cy="37.532" fill="#00AEEF" cx="6.617"/>
 <circle r=".607" cy="36.443" fill="#00AEEF" cx="11.174"/>
 <circle r=".607" cy="36.443" fill="#00AEEF" cx="8.674"/>
 <path d="M12.6 39.73c0-.34-.27-.6-.6-.6s-.6.26-.6.6M8.54 39.73c0-.34-.27-.6-.6-.6s-.62.26-.62.6" fill="#00AEEF"/>
 <circle r=".607" cy="34.443" fill="#00AEEF" cx="16.581"/>
 <circle r=".607" cy="38.349" fill="#00AEEF" cx="16.581"/>
 <circle r=".607" cy="35.256" fill="#00AEEF" cx="19.867"/>
 <circle r=".607" cy="37.532" fill="#00AEEF" cx="19.867"/>
 <circle r=".607" cy="37.532" fill="#00AEEF" cx="13.242"/>
 <circle r=".607" cy="36.443" fill="#00AEEF" cx="17.799"/>
 <circle r=".607" cy="36.443" fill="#00AEEF" cx="15.299"/>
 <path d="M19.22 39.73c0-.34-.27-.6-.6-.6s-.6.26-.6.6" fill="#00AEEF"/>
 <circle r=".607" cy="33.157" fill="#00AEEF" cx="14.554"/>
 <path d="M15.16 39.73c0-.34-.27-.6-.6-.6s-.6.26-.6.6" fill="#00AEEF"/>
 <circle r=".607" cy="34.443" fill="#00AEEF" cx="23.206"/>
 <circle r=".607" cy="38.349" fill="#00AEEF" cx="23.206"/>
 <circle r=".607" cy="35.256" fill="#00AEEF" cx="26.492"/>
 <circle r=".607" cy="37.532" fill="#00AEEF" cx="26.492"/>
 <circle r=".607" cy="37.532" fill="#00AEEF" cx="19.867"/>
 <circle r=".607" cy="36.443" fill="#00AEEF" cx="24.424"/>
 <circle r=".607" cy="36.443" fill="#00AEEF" cx="21.924"/>
 <path d="M25.85 39.73c0-.34-.27-.6-.6-.6s-.6.26-.6.6M21.8 39.73c0-.34-.28-.6-.62-.6s-.6.26-.6.6" fill="#00AEEF"/>
 <circle r=".607" cy="34.443" fill="#00AEEF" cx="29.831"/>
 <circle r=".607" cy="38.349" fill="#00AEEF" cx="29.831"/>
 <circle r=".607" cy="35.256" fill="#00AEEF" cx="33.117"/>
 <circle r=".607" cy="37.532" fill="#00AEEF" cx="33.117"/>
 <circle r=".607" cy="37.532" fill="#00AEEF" cx="26.492"/>
 <circle r=".607" cy="36.443" fill="#00AEEF" cx="31.049"/>
 <circle r=".607" cy="36.443" fill="#00AEEF" cx="28.549"/>
 <path d="M32.47 39.73c0-.34-.27-.6-.6-.6s-.6.26-.6.6M28.4 39.73c0-.34-.26-.6-.6-.6s-.6.26-.6.6" fill="#00AEEF"/>
 <circle r=".607" cy="34.443" fill="#00AEEF" cx="36.456"/>
 <circle r=".607" cy="38.349" fill="#00AEEF" cx="36.456"/>
 <path d="M39.73 34.65c-.34 0-.6.27-.6.6s.26.6.6.6M39.73 36.92c-.34 0-.6.28-.6.6s.26.62.6.62" fill="#00AEEF"/>
 <circle r=".607" cy="37.532" fill="#00AEEF" cx="33.117"/>
 <circle r=".607" cy="36.443" fill="#00AEEF" cx="37.674"/>
 <circle r=".607" cy="36.443" fill="#00AEEF" cx="35.174"/>
 <path d="M39.1 39.73c0-.34-.27-.6-.6-.6s-.62.26-.62.6M35.04 39.73c0-.34-.27-.6-.6-.6s-.62.26-.62.6" fill="#00AEEF"/>
</svg>
