<?xml version="1.0"?>
<!-- Converted with SVG Converter - Version 0.9.5 (Compiled Fri Feb 21 09:53:38 2020) - Copyright (C) 2011 Nokia -->
<svg xmlns="http://www.w3.org/2000/svg" height="39.737" baseProfile="tiny" xmlns:xlink="http://www.w3.org/1999/xlink" width="39.737">
 <defs>
  <path id="a" d="M0 0h39.74v39.74H0z"/>
 </defs>
 <path d="M0 0h39.74v39.74H0z"/>
 <circle cy="1.318" cx="3.331" r=".607" fill="#fff"/>
 <circle cy="5.224" cx="3.331" r=".607" fill="#fff"/>
 <path d="M0 2.74c.33 0 .6-.27.6-.6S.33 1.5 0 1.5v1.22z" fill="#fff"/>
 <circle cy="2.131" cx="6.617" r=".607" fill="#fff"/>
 <circle cy="4.407" cx="6.617" r=".607" fill="#fff"/>
 <path d="M0 5c.34 0 .6-.26.6-.6s-.26-.6-.6-.6V5z" fill="#fff"/>
 <circle cy="3.318" cx="4.549" r=".607" fill="#fff"/>
 <circle cy="3.318" cx="2.049" r=".607" fill="#fff"/>
 <path d="M4.76 0c0 .33.27.6.6.6s.6-.27.6-.6h-1.2z" fill="#fff"/>
 <circle cy="6.595" cx="5.367" r=".607" fill="#fff"/>
 <path d="M.7 0c0 .33.27.6.6.6s.6-.27.6-.6H.7z" fill="#fff"/>
 <circle cy="6.599" cx="1.304" r=".607" fill="#fff"/>
 <circle cy="1.318" cx="9.956" r=".607" fill="#fff"/>
 <circle cy="5.224" cx="9.956" r=".607" fill="#fff"/>
 <circle cy="2.131" cx="13.242" r=".607" fill="#fff"/>
 <circle cy="4.407" cx="13.242" r=".607" fill="#fff"/>
 <circle cy="4.407" cx="6.617" r=".607" fill="#fff"/>
 <circle cy="3.318" cx="11.174" r=".607" fill="#fff"/>
 <circle cy="3.318" cx="8.674" r=".607" fill="#fff"/>
 <path d="M11.38 0c0 .33.28.6.6.6s.62-.27.62-.6h-1.22z" fill="#fff"/>
 <circle cy="6.595" cx="11.992" r=".607" fill="#fff"/>
 <path d="M7.32 0c0 .33.27.6.6.6s.62-.27.62-.6H7.32z" fill="#fff"/>
 <circle cy="6.599" cx="7.929" r=".607" fill="#fff"/>
 <circle cy="1.318" cx="16.581" r=".607" fill="#fff"/>
 <circle cy="5.224" cx="16.581" r=".607" fill="#fff"/>
 <circle cy="2.131" cx="19.867" r=".607" fill="#fff"/>
 <circle cy="4.407" cx="19.867" r=".607" fill="#fff"/>
 <circle cy="4.407" cx="13.242" r=".607" fill="#fff"/>
 <circle cy="3.318" cx="17.799" r=".607" fill="#fff"/>
 <circle cy="3.318" cx="15.299" r=".607" fill="#fff"/>
 <path d="M18 0c0 .33.28.6.62.6s.6-.27.6-.6h-1.2z" fill="#fff"/>
 <circle cy="6.595" cx="18.617" r=".607" fill="#fff"/>
 <path d="M13.95 0c0 .33.27.6.6.6s.6-.27.6-.6h-1.2z" fill="#fff"/>
 <circle cy="6.599" cx="14.554" r=".607" fill="#fff"/>
 <circle cy="1.318" cx="23.206" r=".607" fill="#fff"/>
 <circle cy="5.224" cx="23.206" r=".607" fill="#fff"/>
 <circle cy="2.131" cx="26.492" r=".607" fill="#fff"/>
 <circle cy="4.407" cx="26.492" r=".607" fill="#fff"/>
 <circle cy="4.407" cx="19.867" r=".607" fill="#fff"/>
 <circle cy="3.318" cx="24.424" r=".607" fill="#fff"/>
 <circle cy="3.318" cx="21.924" r=".607" fill="#fff"/>
 <path d="M24.63 0c0 .33.28.6.6.6s.62-.27.62-.6h-1.22z" fill="#fff"/>
 <circle cy="6.595" cx="25.242" r=".607" fill="#fff"/>
 <path d="M20.57 0c0 .33.27.6.6.6s.62-.27.62-.6h-1.23z" fill="#fff"/>
 <circle cy="6.599" cx="21.179" r=".607" fill="#fff"/>
 <circle cy="1.318" cx="29.831" r=".607" fill="#fff"/>
 <circle cy="5.224" cx="29.831" r=".607" fill="#fff"/>
 <circle cy="2.131" cx="33.117" r=".607" fill="#fff"/>
 <circle cy="4.407" cx="33.117" r=".607" fill="#fff"/>
 <circle cy="4.407" cx="26.492" r=".607" fill="#fff"/>
 <circle cy="3.318" cx="31.049" r=".607" fill="#fff"/>
 <circle cy="3.318" cx="28.549" r=".607" fill="#fff"/>
 <path d="M31.26 0c0 .33.27.6.6.6s.6-.27.6-.6h-1.2z" fill="#fff"/>
 <circle cy="6.595" cx="31.867" r=".607" fill="#fff"/>
 <path d="M27.2 0c0 .33.27.6.6.6s.6-.27.6-.6h-1.2z" fill="#fff"/>
 <circle cy="6.599" cx="27.804" r=".607" fill="#fff"/>
 <circle cy="1.318" cx="36.456" r=".607" fill="#fff"/>
 <circle cy="5.224" cx="36.456" r=".607" fill="#fff"/>
 <path d="M39.74 1.52c-.34 0-.6.27-.6.6s.26.62.6.62V1.52zM39.74 3.8c-.33 0-.6.27-.6.6s.27.6.6.6V3.8z" fill="#fff"/>
 <circle cy="4.407" cx="33.117" r=".607" fill="#fff"/>
 <circle cy="3.318" cx="37.674" r=".607" fill="#fff"/>
 <circle cy="3.318" cx="35.174" r=".607" fill="#fff"/>
 <path d="M37.88 0c0 .33.28.6.6.6s.62-.27.62-.6h-1.22z" fill="#fff"/>
 <circle cy="6.595" cx="38.492" r=".607" fill="#fff"/>
 <path d="M33.82 0c0 .33.27.6.6.6s.62-.27.62-.6h-1.22z" fill="#fff"/>
 <circle cy="6.599" cx="34.429" r=".607" fill="#fff"/>
 <circle cy="7.943" cx="3.331" r=".607" fill="#fff"/>
 <circle cy="11.849" cx="3.331" r=".607" fill="#fff"/>
 <path d="M0 9.36c.33 0 .6-.27.6-.6s-.27-.6-.6-.6v1.2z" fill="#fff"/>
 <circle cy="8.756" cx="6.617" r=".607" fill="#fff"/>
 <circle cy="11.032" cx="6.617" r=".607" fill="#fff"/>
 <path d="M0 11.64c.33 0 .6-.27.6-.6s-.27-.6-.6-.6v1.2z" fill="#fff"/>
 <circle cy="9.943" cx="4.549" r=".607" fill="#fff"/>
 <circle cy="9.943" cx="2.049" r=".607" fill="#fff"/>
 <circle cy="13.22" cx="5.367" r=".607" fill="#fff"/>
 <circle cy="13.224" cx="1.304" r=".607" fill="#fff"/>
 <circle cy="7.943" cx="9.956" r=".607" fill="#fff"/>
 <circle cy="11.849" cx="9.956" r=".607" fill="#fff"/>
 <circle cy="8.756" cx="13.242" r=".607" fill="#fff"/>
 <circle cy="11.032" cx="13.242" r=".607" fill="#fff"/>
 <circle cy="11.032" cx="6.617" r=".607" fill="#fff"/>
 <circle cy="9.943" cx="11.174" r=".607" fill="#fff"/>
 <circle cy="9.943" cx="8.674" r=".607" fill="#fff"/>
 <circle cy="13.22" cx="11.992" r=".607" fill="#fff"/>
 <circle cy="13.224" cx="7.929" r=".607" fill="#fff"/>
 <circle cy="7.943" cx="16.581" r=".607" fill="#fff"/>
 <circle cy="11.849" cx="16.581" r=".607" fill="#fff"/>
 <circle cy="8.756" cx="19.867" r=".607" fill="#fff"/>
 <circle cy="11.032" cx="19.867" r=".607" fill="#fff"/>
 <circle cy="11.032" cx="13.242" r=".607" fill="#fff"/>
 <circle cy="9.943" cx="17.799" r=".607" fill="#fff"/>
 <circle cy="9.943" cx="15.299" r=".607" fill="#fff"/>
 <circle cy="13.22" cx="18.617" r=".607" fill="#fff"/>
 <circle cy="13.224" cx="14.554" r=".607" fill="#fff"/>
 <circle cy="7.943" cx="23.206" r=".607" fill="#fff"/>
 <circle cy="11.849" cx="23.206" r=".607" fill="#fff"/>
 <circle cy="8.756" cx="26.492" r=".607" fill="#fff"/>
 <circle cy="11.032" cx="26.492" r=".607" fill="#fff"/>
 <circle cy="11.032" cx="19.867" r=".607" fill="#fff"/>
 <circle cy="9.943" cx="24.424" r=".607" fill="#fff"/>
 <circle cy="9.943" cx="21.924" r=".607" fill="#fff"/>
 <circle cy="13.22" cx="25.242" r=".607" fill="#fff"/>
 <circle cy="13.224" cx="21.179" r=".607" fill="#fff"/>
 <circle cy="7.943" cx="29.831" r=".607" fill="#fff"/>
 <circle cy="11.849" cx="29.831" r=".607" fill="#fff"/>
 <circle cy="8.756" cx="33.117" r=".607" fill="#fff"/>
 <circle cy="11.032" cx="33.117" r=".607" fill="#fff"/>
 <circle cy="11.032" cx="26.492" r=".607" fill="#fff"/>
 <circle cy="9.943" cx="31.049" r=".607" fill="#fff"/>
 <circle cy="9.943" cx="28.549" r=".607" fill="#fff"/>
 <circle cy="13.22" cx="31.867" r=".607" fill="#fff"/>
 <circle cy="13.224" cx="27.804" r=".607" fill="#fff"/>
 <circle cy="7.943" cx="36.456" r=".607" fill="#fff"/>
 <circle cy="11.849" cx="36.456" r=".607" fill="#fff"/>
 <path d="M39.73 8.15c-.33 0-.6.27-.6.6s.27.6.6.6v-1.2zM39.75 10.43c-.34 0-.6.27-.6.6s.26.6.6.6v-1.2z" fill="#fff"/>
 <circle cy="11.032" cx="33.117" r=".607" fill="#fff"/>
 <circle cy="9.943" cx="37.674" r=".607" fill="#fff"/>
 <circle cy="9.943" cx="35.174" r=".607" fill="#fff"/>
 <circle cy="13.22" cx="38.492" r=".607" fill="#fff"/>
 <circle cy="13.224" cx="34.429" r=".607" fill="#fff"/>
 <circle cy="14.568" cx="3.331" r=".607" fill="#fff"/>
 <circle cy="18.474" cx="3.331" r=".607" fill="#fff"/>
 <path d="M0 16c.33 0 .6-.28.6-.62s-.27-.6-.6-.6v1.2z" fill="#fff"/>
 <circle cy="15.381" cx="6.617" r=".607" fill="#fff"/>
 <circle cy="17.657" cx="6.617" r=".607" fill="#fff"/>
 <path d="M0 18.27c.34 0 .6-.28.6-.6s-.26-.62-.6-.62v1.2z" fill="#fff"/>
 <circle cy="16.568" cx="4.549" r=".607" fill="#fff"/>
 <circle cy="16.568" cx="2.049" r=".607" fill="#fff"/>
 <circle cy="19.845" cx="5.367" r=".607" fill="#fff"/>
 <circle cy="19.849" cx="1.304" r=".607" fill="#fff"/>
 <circle cy="14.568" cx="9.956" r=".607" fill="#fff"/>
 <circle cy="18.474" cx="9.956" r=".607" fill="#fff"/>
 <circle cy="15.381" cx="13.242" r=".607" fill="#fff"/>
 <circle cy="17.657" cx="13.242" r=".607" fill="#fff"/>
 <circle cy="17.657" cx="6.617" r=".607" fill="#fff"/>
 <circle cy="16.568" cx="11.174" r=".607" fill="#fff"/>
 <circle cy="16.568" cx="8.674" r=".607" fill="#fff"/>
 <circle cy="19.845" cx="11.992" r=".607" fill="#fff"/>
 <circle cy="19.849" cx="7.929" r=".607" fill="#fff"/>
 <circle cy="14.568" cx="16.581" r=".607" fill="#fff"/>
 <circle cy="18.474" cx="16.581" r=".607" fill="#fff"/>
 <circle cy="15.381" cx="19.867" r=".607" fill="#fff"/>
 <circle cy="17.657" cx="19.867" r=".607" fill="#fff"/>
 <circle cy="17.657" cx="13.242" r=".607" fill="#fff"/>
 <circle cy="16.568" cx="17.799" r=".607" fill="#fff"/>
 <circle cy="16.568" cx="15.299" r=".607" fill="#fff"/>
 <circle cy="19.845" cx="18.617" r=".607" fill="#fff"/>
 <circle cy="19.849" cx="14.554" r=".607" fill="#fff"/>
 <circle cy="14.568" cx="23.206" r=".607" fill="#fff"/>
 <circle cy="18.474" cx="23.206" r=".607" fill="#fff"/>
 <circle cy="15.381" cx="26.492" r=".607" fill="#fff"/>
 <circle cy="17.657" cx="26.492" r=".607" fill="#fff"/>
 <circle cy="17.657" cx="19.867" r=".607" fill="#fff"/>
 <circle cy="16.568" cx="24.424" r=".607" fill="#fff"/>
 <circle cy="16.568" cx="21.924" r=".607" fill="#fff"/>
 <circle cy="19.845" cx="25.242" r=".607" fill="#fff"/>
 <circle cy="19.849" cx="21.179" r=".607" fill="#fff"/>
 <circle cy="14.568" cx="29.831" r=".607" fill="#fff"/>
 <circle cy="18.474" cx="29.831" r=".607" fill="#fff"/>
 <circle cy="15.381" cx="33.117" r=".607" fill="#fff"/>
 <circle cy="17.657" cx="33.117" r=".607" fill="#fff"/>
 <circle cy="17.657" cx="26.492" r=".607" fill="#fff"/>
 <circle cy="16.568" cx="31.049" r=".607" fill="#fff"/>
 <circle cy="16.568" cx="28.549" r=".607" fill="#fff"/>
 <circle cy="19.845" cx="31.867" r=".607" fill="#fff"/>
 <circle cy="19.849" cx="27.804" r=".607" fill="#fff"/>
 <circle cy="14.568" cx="36.456" r=".607" fill="#fff"/>
 <circle cy="18.474" cx="36.456" r=".607" fill="#fff"/>
 <path d="M39.73 14.77c-.33 0-.6.28-.6.6s.27.62.6.62v-1.23zM39.73 17.05c-.33 0-.6.27-.6.6s.27.6.6.6v-1.2z" fill="#fff"/>
 <circle cy="17.657" cx="33.117" r=".607" fill="#fff"/>
 <circle cy="16.568" cx="37.674" r=".607" fill="#fff"/>
 <circle cy="16.568" cx="35.174" r=".607" fill="#fff"/>
 <circle cy="19.845" cx="38.492" r=".607" fill="#fff"/>
 <circle cy="19.849" cx="34.429" r=".607" fill="#fff"/>
 <circle cy="21.193" cx="3.331" r=".607" fill="#fff"/>
 <circle cy="25.099" cx="3.331" r=".607" fill="#fff"/>
 <path d="M0 22.6c.33 0 .6-.26.6-.6s-.27-.6-.6-.6v1.2z" fill="#fff"/>
 <circle cy="22.006" cx="6.617" r=".607" fill="#fff"/>
 <circle cy="24.282" cx="6.617" r=".607" fill="#fff"/>
 <path d="M0 24.9c.35 0 .62-.28.62-.62s-.27-.6-.6-.6v1.2z" fill="#fff"/>
 <circle cy="23.193" cx="4.549" r=".607" fill="#fff"/>
 <circle cy="23.193" cx="2.049" r=".607" fill="#fff"/>
 <circle cy="26.47" cx="5.367" r=".607" fill="#fff"/>
 <circle cy="26.474" cx="1.304" r=".607" fill="#fff"/>
 <circle cy="21.193" cx="9.956" r=".607" fill="#fff"/>
 <circle cy="25.099" cx="9.956" r=".607" fill="#fff"/>
 <circle cy="22.006" cx="13.242" r=".607" fill="#fff"/>
 <circle cy="24.282" cx="13.242" r=".607" fill="#fff"/>
 <circle cy="24.282" cx="6.617" r=".607" fill="#fff"/>
 <circle cy="23.193" cx="11.174" r=".607" fill="#fff"/>
 <circle cy="23.193" cx="8.674" r=".607" fill="#fff"/>
 <circle cy="26.47" cx="11.992" r=".607" fill="#fff"/>
 <circle cy="26.474" cx="7.929" r=".607" fill="#fff"/>
 <circle cy="21.193" cx="16.581" r=".607" fill="#fff"/>
 <circle cy="25.099" cx="16.581" r=".607" fill="#fff"/>
 <circle cy="22.006" cx="19.867" r=".607" fill="#fff"/>
 <circle cy="24.282" cx="19.867" r=".607" fill="#fff"/>
 <circle cy="24.282" cx="13.242" r=".607" fill="#fff"/>
 <circle cy="23.193" cx="17.799" r=".607" fill="#fff"/>
 <circle cy="23.193" cx="15.299" r=".607" fill="#fff"/>
 <circle cy="26.47" cx="18.617" r=".607" fill="#fff"/>
 <circle cy="26.474" cx="14.554" r=".607" fill="#fff"/>
 <circle cy="21.193" cx="23.206" r=".607" fill="#fff"/>
 <circle cy="25.099" cx="23.206" r=".607" fill="#fff"/>
 <circle cy="22.006" cx="26.492" r=".607" fill="#fff"/>
 <circle cy="24.282" cx="26.492" r=".607" fill="#fff"/>
 <circle cy="24.282" cx="19.867" r=".607" fill="#fff"/>
 <circle cy="23.193" cx="24.424" r=".607" fill="#fff"/>
 <circle cy="23.193" cx="21.924" r=".607" fill="#fff"/>
 <circle cy="26.47" cx="25.242" r=".607" fill="#fff"/>
 <circle cy="26.474" cx="21.179" r=".607" fill="#fff"/>
 <circle cy="21.193" cx="29.831" r=".607" fill="#fff"/>
 <circle cy="25.099" cx="29.831" r=".607" fill="#fff"/>
 <circle cy="22.006" cx="33.117" r=".607" fill="#fff"/>
 <circle cy="24.282" cx="33.117" r=".607" fill="#fff"/>
 <circle cy="24.282" cx="26.492" r=".607" fill="#fff"/>
 <circle cy="23.193" cx="31.049" r=".607" fill="#fff"/>
 <circle cy="23.193" cx="28.549" r=".607" fill="#fff"/>
 <circle cy="26.47" cx="31.867" r=".607" fill="#fff"/>
 <circle cy="26.474" cx="27.804" r=".607" fill="#fff"/>
 <circle cy="21.193" cx="36.456" r=".607" fill="#fff"/>
 <circle cy="25.099" cx="36.456" r=".607" fill="#fff"/>
 <path d="M39.73 21.4c-.33 0-.6.27-.6.6s.27.6.6.6v-1.2zM39.73 23.68c-.33 0-.6.27-.6.6s.27.6.6.6v-1.2z" fill="#fff"/>
 <circle cy="24.282" cx="33.117" r=".607" fill="#fff"/>
 <circle cy="23.193" cx="37.674" r=".607" fill="#fff"/>
 <circle cy="23.193" cx="35.174" r=".607" fill="#fff"/>
 <circle cy="26.47" cx="38.492" r=".607" fill="#fff"/>
 <circle cy="26.474" cx="34.429" r=".607" fill="#fff"/>
 <circle cy="27.818" cx="3.331" r=".607" fill="#fff"/>
 <circle cy="31.724" cx="3.331" r=".607" fill="#fff"/>
 <path d="M0 29.24c.33 0 .6-.27.6-.6S.33 28 0 28v1.22z" fill="#fff"/>
 <circle cy="28.631" cx="6.617" r=".607" fill="#fff"/>
 <circle cy="30.907" cx="6.617" r=".607" fill="#fff"/>
 <path d="M0 31.52c.34 0 .6-.28.6-.6s-.26-.62-.6-.62v1.2z" fill="#fff"/>
 <circle cy="29.818" cx="4.549" r=".607" fill="#fff"/>
 <circle cy="29.818" cx="2.049" r=".607" fill="#fff"/>
 <circle cy="33.095" cx="5.367" r=".607" fill="#fff"/>
 <circle cy="27.818" cx="9.956" r=".607" fill="#fff"/>
 <circle cy="31.724" cx="9.956" r=".607" fill="#fff"/>
 <circle cy="28.631" cx="13.242" r=".607" fill="#fff"/>
 <circle cy="30.907" cx="13.242" r=".607" fill="#fff"/>
 <circle cy="30.907" cx="6.617" r=".607" fill="#fff"/>
 <circle cy="29.818" cx="11.174" r=".607" fill="#fff"/>
 <circle cy="29.818" cx="8.674" r=".607" fill="#fff"/>
 <circle cy="33.095" cx="11.992" r=".607" fill="#fff"/>
 <circle cy="33.099" cx="7.929" r=".607" fill="#fff"/>
 <circle cy="27.818" cx="16.581" r=".607" fill="#fff"/>
 <circle cy="31.724" cx="16.581" r=".607" fill="#fff"/>
 <circle cy="28.631" cx="19.867" r=".607" fill="#fff"/>
 <circle cy="30.907" cx="19.867" r=".607" fill="#fff"/>
 <circle cy="30.907" cx="13.242" r=".607" fill="#fff"/>
 <circle cy="29.818" cx="17.799" r=".607" fill="#fff"/>
 <circle cy="29.818" cx="15.299" r=".607" fill="#fff"/>
 <circle cy="33.095" cx="18.617" r=".607" fill="#fff"/>
 <circle cy="27.818" cx="23.206" r=".607" fill="#fff"/>
 <circle cy="31.724" cx="23.206" r=".607" fill="#fff"/>
 <circle cy="28.631" cx="26.492" r=".607" fill="#fff"/>
 <circle cy="30.907" cx="26.492" r=".607" fill="#fff"/>
 <circle cy="30.907" cx="19.867" r=".607" fill="#fff"/>
 <circle cy="29.818" cx="24.424" r=".607" fill="#fff"/>
 <circle cy="29.818" cx="21.924" r=".607" fill="#fff"/>
 <circle cy="33.095" cx="25.242" r=".607" fill="#fff"/>
 <circle cy="33.099" cx="21.179" r=".607" fill="#fff"/>
 <circle cy="27.818" cx="29.831" r=".607" fill="#fff"/>
 <circle cy="31.724" cx="29.831" r=".607" fill="#fff"/>
 <circle cy="28.631" cx="33.117" r=".607" fill="#fff"/>
 <circle cy="30.907" cx="33.117" r=".607" fill="#fff"/>
 <circle cy="30.907" cx="26.492" r=".607" fill="#fff"/>
 <circle cy="29.818" cx="31.049" r=".607" fill="#fff"/>
 <circle cy="29.818" cx="28.549" r=".607" fill="#fff"/>
 <circle cy="33.095" cx="31.867" r=".607" fill="#fff"/>
 <circle cy="33.099" cx="27.804" r=".607" fill="#fff"/>
 <circle cy="27.818" cx="36.456" r=".607" fill="#fff"/>
 <circle cy="31.724" cx="36.456" r=".607" fill="#fff"/>
 <path d="M39.73 28.02c-.33 0-.6.28-.6.6s.27.62.6.62v-1.22zM39.74 30.3c-.33 0-.6.27-.6.6s.27.6.6.6v-1.2z" fill="#fff"/>
 <circle cy="30.907" cx="33.117" r=".607" fill="#fff"/>
 <circle cy="29.818" cx="37.674" r=".607" fill="#fff"/>
 <circle cy="29.818" cx="35.174" r=".607" fill="#fff"/>
 <circle cy="33.095" cx="38.492" r=".607" fill="#fff"/>
 <circle cy="33.099" cx="34.429" r=".607" fill="#fff"/>
 <circle cy="34.443" cx="3.331" r=".607" fill="#fff"/>
 <circle cy="38.349" cx="3.331" r=".607" fill="#fff"/>
 <path d="M0 35.86c.34 0 .6-.27.6-.6s-.26-.6-.6-.6v1.2z" fill="#fff"/>
 <circle cy="35.256" cx="6.617" r=".607" fill="#fff"/>
 <circle cy="37.532" cx="6.617" r=".607" fill="#fff"/>
 <path d="M0 38.14c.34 0 .6-.27.6-.6s-.26-.6-.6-.6v1.2z" fill="#fff"/>
 <circle cy="36.443" cx="4.549" r=".607" fill="#fff"/>
 <circle cy="36.443" cx="2.049" r=".607" fill="#fff"/>
 <path d="M5.97 39.73c0-.34-.27-.6-.6-.6s-.6.26-.6.6h1.2z" fill="#fff"/>
 <circle cy="33.157" cx="1.304" r=".607" fill="#fff"/>
 <path d="M1.9 39.73c0-.34-.26-.6-.6-.6s-.6.26-.6.6h1.2z" fill="#fff"/>
 <circle cy="34.443" cx="9.956" r=".607" fill="#fff"/>
 <circle cy="38.349" cx="9.956" r=".607" fill="#fff"/>
 <circle cy="35.256" cx="13.242" r=".607" fill="#fff"/>
 <circle cy="37.532" cx="13.242" r=".607" fill="#fff"/>
 <circle cy="37.532" cx="6.617" r=".607" fill="#fff"/>
 <circle cy="36.443" cx="11.174" r=".607" fill="#fff"/>
 <circle cy="36.443" cx="8.674" r=".607" fill="#fff"/>
 <path d="M12.6 39.73c0-.34-.27-.6-.6-.6s-.6.26-.6.6h1.2zM8.54 39.73c0-.34-.27-.6-.6-.6s-.62.26-.62.6h1.22z" fill="#fff"/>
 <circle cy="34.443" cx="16.581" r=".607" fill="#fff"/>
 <circle cy="38.349" cx="16.581" r=".607" fill="#fff"/>
 <circle cy="35.256" cx="19.867" r=".607" fill="#fff"/>
 <circle cy="37.532" cx="19.867" r=".607" fill="#fff"/>
 <circle cy="37.532" cx="13.242" r=".607" fill="#fff"/>
 <circle cy="36.443" cx="17.799" r=".607" fill="#fff"/>
 <circle cy="36.443" cx="15.299" r=".607" fill="#fff"/>
 <path d="M19.22 39.73c0-.34-.27-.6-.6-.6s-.6.26-.6.6h1.2z" fill="#fff"/>
 <circle cy="33.157" cx="14.554" r=".607" fill="#fff"/>
 <path d="M15.16 39.73c0-.34-.27-.6-.6-.6s-.6.26-.6.6h1.2z" fill="#fff"/>
 <circle cy="34.443" cx="23.206" r=".607" fill="#fff"/>
 <circle cy="38.349" cx="23.206" r=".607" fill="#fff"/>
 <circle cy="35.256" cx="26.492" r=".607" fill="#fff"/>
 <circle cy="37.532" cx="26.492" r=".607" fill="#fff"/>
 <circle cy="37.532" cx="19.867" r=".607" fill="#fff"/>
 <circle cy="36.443" cx="24.424" r=".607" fill="#fff"/>
 <circle cy="36.443" cx="21.924" r=".607" fill="#fff"/>
 <path d="M25.85 39.73c0-.34-.27-.6-.6-.6s-.6.26-.6.6h1.2zM21.8 39.73c0-.34-.28-.6-.62-.6s-.6.26-.6.6h1.2z" fill="#fff"/>
 <circle cy="34.443" cx="29.831" r=".607" fill="#fff"/>
 <circle cy="38.349" cx="29.831" r=".607" fill="#fff"/>
 <circle cy="35.256" cx="33.117" r=".607" fill="#fff"/>
 <circle cy="37.532" cx="33.117" r=".607" fill="#fff"/>
 <circle cy="37.532" cx="26.492" r=".607" fill="#fff"/>
 <circle cy="36.443" cx="31.049" r=".607" fill="#fff"/>
 <circle cy="36.443" cx="28.549" r=".607" fill="#fff"/>
 <path d="M32.47 39.73c0-.34-.27-.6-.6-.6s-.6.26-.6.6h1.2zM28.4 39.73c0-.34-.26-.6-.6-.6s-.6.26-.6.6h1.2z" fill="#fff"/>
 <circle cy="34.443" cx="36.456" r=".607" fill="#fff"/>
 <circle cy="38.349" cx="36.456" r=".607" fill="#fff"/>
 <path d="M39.74 34.65c-.33 0-.6.27-.6.6s.27.6.6.6v-1.2zM39.74 36.92c-.33 0-.6.28-.6.6s.27.62.6.62v-1.22z" fill="#fff"/>
 <circle cy="37.532" cx="33.117" r=".607" fill="#fff"/>
 <circle cy="36.443" cx="37.674" r=".607" fill="#fff"/>
 <circle cy="36.443" cx="35.174" r=".607" fill="#fff"/>
 <path d="M39.1 39.73c0-.34-.27-.6-.6-.6s-.62.26-.62.6h1.22zM35.04 39.73c0-.34-.27-.6-.6-.6s-.62.26-.62.6h1.22z" fill="#fff"/>
</svg>
