<?xml version="1.0"?>
<!-- Converted with SVG Converter - Version 0.9.5 (Compiled Fri Feb 21 09:53:38 2020) - Copyright (C) 2011 Nokia -->
<svg xmlns="http://www.w3.org/2000/svg" baseProfile="tiny" height="39.737" width="39.737" xmlns:xlink="http://www.w3.org/1999/xlink">
 <defs>
  <path d="M0 0h39.74v39.74H0z" id="a"/>
 </defs>
 <path d="M0 0h39.74v39.74H0z"/>
 <circle cx="3.331" fill="#fff" r=".607" cy="1.318"/>
 <circle cx="3.331" fill="#fff" r=".607" cy="5.224"/>
 <path d="M0 2.74c.33 0 .6-.27.6-.6S.33 1.5 0 1.5v1.22z" fill="#fff"/>
 <circle cx="6.617" fill="#fff" r=".607" cy="2.131"/>
 <circle cx="6.617" fill="#fff" r=".607" cy="4.407"/>
 <path d="M0 5c.34 0 .6-.26.6-.6s-.26-.6-.6-.6V5z" fill="#fff"/>
 <circle cx="4.549" fill="#fff" r=".607" cy="3.318"/>
 <circle cx="2.049" fill="#fff" r=".607" cy="3.318"/>
 <path d="M4.76 0c0 .33.27.6.6.6s.6-.27.6-.6h-1.2z" fill="#fff"/>
 <circle cx="5.367" fill="#fff" r=".607" cy="6.595"/>
 <path d="M.7 0c0 .33.27.6.6.6s.6-.27.6-.6H.7z" fill="#fff"/>
 <circle cx="1.304" fill="#fff" r=".607" cy="6.599"/>
 <circle cx="9.956" fill="#fff" r=".607" cy="1.318"/>
 <circle cx="9.956" fill="#fff" r=".607" cy="5.224"/>
 <circle cx="13.242" fill="#fff" r=".607" cy="2.131"/>
 <circle cx="13.242" fill="#fff" r=".607" cy="4.407"/>
 <circle cx="6.617" fill="#fff" r=".607" cy="4.407"/>
 <circle cx="11.174" fill="#fff" r=".607" cy="3.318"/>
 <circle cx="8.674" fill="#fff" r=".607" cy="3.318"/>
 <path d="M11.38 0c0 .33.28.6.6.6s.62-.27.62-.6h-1.22z" fill="#fff"/>
 <circle cx="11.992" fill="#fff" r=".607" cy="6.595"/>
 <path d="M7.32 0c0 .33.27.6.6.6s.62-.27.62-.6H7.32z" fill="#fff"/>
 <circle cx="7.929" fill="#fff" r=".607" cy="6.599"/>
 <circle cx="16.581" fill="#fff" r=".607" cy="1.318"/>
 <circle cx="16.581" fill="#fff" r=".607" cy="5.224"/>
 <circle cx="19.867" fill="#fff" r=".607" cy="2.131"/>
 <circle cx="19.867" fill="#fff" r=".607" cy="4.407"/>
 <circle cx="13.242" fill="#fff" r=".607" cy="4.407"/>
 <circle cx="17.799" fill="#fff" r=".607" cy="3.318"/>
 <circle cx="15.299" fill="#fff" r=".607" cy="3.318"/>
 <path d="M18 0c0 .33.28.6.62.6s.6-.27.6-.6h-1.2z" fill="#fff"/>
 <circle cx="18.617" fill="#fff" r=".607" cy="6.595"/>
 <path d="M13.95 0c0 .33.27.6.6.6s.6-.27.6-.6h-1.2z" fill="#fff"/>
 <circle cx="14.554" fill="#fff" r=".607" cy="6.599"/>
 <circle cx="23.206" fill="#fff" r=".607" cy="1.318"/>
 <circle cx="23.206" fill="#fff" r=".607" cy="5.224"/>
 <circle cx="26.492" fill="#fff" r=".607" cy="2.131"/>
 <circle cx="26.492" fill="#fff" r=".607" cy="4.407"/>
 <circle cx="19.867" fill="#fff" r=".607" cy="4.407"/>
 <circle cx="24.424" fill="#fff" r=".607" cy="3.318"/>
 <circle cx="21.924" fill="#fff" r=".607" cy="3.318"/>
 <path d="M24.63 0c0 .33.28.6.6.6s.62-.27.62-.6h-1.22z" fill="#fff"/>
 <circle cx="25.242" fill="#fff" r=".607" cy="6.595"/>
 <path d="M20.57 0c0 .33.27.6.6.6s.62-.27.62-.6h-1.23z" fill="#fff"/>
 <circle cx="21.179" fill="#fff" r=".607" cy="6.599"/>
 <circle cx="29.831" fill="#fff" r=".607" cy="1.318"/>
 <circle cx="29.831" fill="#fff" r=".607" cy="5.224"/>
 <circle cx="33.117" fill="#fff" r=".607" cy="2.131"/>
 <circle cx="33.117" fill="#fff" r=".607" cy="4.407"/>
 <circle cx="26.492" fill="#fff" r=".607" cy="4.407"/>
 <circle cx="31.049" fill="#fff" r=".607" cy="3.318"/>
 <circle cx="28.549" fill="#fff" r=".607" cy="3.318"/>
 <path d="M31.26 0c0 .33.27.6.6.6s.6-.27.6-.6h-1.2z" fill="#fff"/>
 <circle cx="31.867" fill="#fff" r=".607" cy="6.595"/>
 <path d="M27.2 0c0 .33.27.6.6.6s.6-.27.6-.6h-1.2z" fill="#fff"/>
 <circle cx="27.804" fill="#fff" r=".607" cy="6.599"/>
 <circle cx="36.456" fill="#fff" r=".607" cy="1.318"/>
 <circle cx="36.456" fill="#fff" r=".607" cy="5.224"/>
 <path d="M39.74 1.52c-.34 0-.6.27-.6.6s.26.62.6.62V1.52zM39.74 3.8c-.33 0-.6.27-.6.6s.27.6.6.6V3.8z" fill="#fff"/>
 <circle cx="33.117" fill="#fff" r=".607" cy="4.407"/>
 <circle cx="37.674" fill="#fff" r=".607" cy="3.318"/>
 <circle cx="35.174" fill="#fff" r=".607" cy="3.318"/>
 <path d="M37.88 0c0 .33.28.6.6.6s.62-.27.62-.6h-1.22z" fill="#fff"/>
 <circle cx="38.492" fill="#fff" r=".607" cy="6.595"/>
 <path d="M33.82 0c0 .33.27.6.6.6s.62-.27.62-.6h-1.22z" fill="#fff"/>
 <circle cx="34.429" fill="#fff" r=".607" cy="6.599"/>
 <circle cx="3.331" fill="#fff" r=".607" cy="7.943"/>
 <circle cx="3.331" fill="#fff" r=".607" cy="11.849"/>
 <path d="M0 9.36c.33 0 .6-.27.6-.6s-.27-.6-.6-.6v1.2z" fill="#fff"/>
 <circle cx="6.617" fill="#fff" r=".607" cy="8.756"/>
 <circle cx="6.617" fill="#fff" r=".607" cy="11.032"/>
 <path d="M0 11.64c.33 0 .6-.27.6-.6s-.27-.6-.6-.6v1.2z" fill="#fff"/>
 <circle cx="4.549" fill="#fff" r=".607" cy="9.943"/>
 <circle cx="2.049" fill="#fff" r=".607" cy="9.943"/>
 <circle cx="5.367" fill="#fff" r=".607" cy="13.22"/>
 <circle cx="1.304" fill="#fff" r=".607" cy="13.224"/>
 <circle cx="9.956" fill="#fff" r=".607" cy="7.943"/>
 <circle cx="9.956" fill="#fff" r=".607" cy="11.849"/>
 <circle cx="13.242" fill="#fff" r=".607" cy="8.756"/>
 <circle cx="13.242" fill="#fff" r=".607" cy="11.032"/>
 <circle cx="6.617" fill="#fff" r=".607" cy="11.032"/>
 <circle cx="11.174" fill="#fff" r=".607" cy="9.943"/>
 <circle cx="8.674" fill="#fff" r=".607" cy="9.943"/>
 <circle cx="11.992" fill="#fff" r=".607" cy="13.22"/>
 <circle cx="7.929" fill="#fff" r=".607" cy="13.224"/>
 <circle cx="16.581" fill="#fff" r=".607" cy="7.943"/>
 <circle cx="16.581" fill="#fff" r=".607" cy="11.849"/>
 <circle cx="19.867" fill="#fff" r=".607" cy="8.756"/>
 <circle cx="19.867" fill="#fff" r=".607" cy="11.032"/>
 <circle cx="13.242" fill="#fff" r=".607" cy="11.032"/>
 <circle cx="17.799" fill="#fff" r=".607" cy="9.943"/>
 <circle cx="15.299" fill="#fff" r=".607" cy="9.943"/>
 <circle cx="18.617" fill="#fff" r=".607" cy="13.22"/>
 <circle cx="14.554" fill="#fff" r=".607" cy="13.224"/>
 <circle cx="23.206" fill="#fff" r=".607" cy="7.943"/>
 <circle cx="23.206" fill="#fff" r=".607" cy="11.849"/>
 <circle cx="26.492" fill="#fff" r=".607" cy="8.756"/>
 <circle cx="26.492" fill="#fff" r=".607" cy="11.032"/>
 <circle cx="19.867" fill="#fff" r=".607" cy="11.032"/>
 <circle cx="24.424" fill="#fff" r=".607" cy="9.943"/>
 <circle cx="21.924" fill="#fff" r=".607" cy="9.943"/>
 <circle cx="25.242" fill="#fff" r=".607" cy="13.22"/>
 <circle cx="21.179" fill="#fff" r=".607" cy="13.224"/>
 <circle cx="29.831" fill="#fff" r=".607" cy="7.943"/>
 <circle cx="29.831" fill="#fff" r=".607" cy="11.849"/>
 <circle cx="33.117" fill="#fff" r=".607" cy="8.756"/>
 <circle cx="33.117" fill="#fff" r=".607" cy="11.032"/>
 <circle cx="26.492" fill="#fff" r=".607" cy="11.032"/>
 <circle cx="31.049" fill="#fff" r=".607" cy="9.943"/>
 <circle cx="28.549" fill="#fff" r=".607" cy="9.943"/>
 <circle cx="31.867" fill="#fff" r=".607" cy="13.22"/>
 <circle cx="27.804" fill="#fff" r=".607" cy="13.224"/>
 <circle cx="36.456" fill="#fff" r=".607" cy="7.943"/>
 <circle cx="36.456" fill="#fff" r=".607" cy="11.849"/>
 <path d="M39.73 8.15c-.33 0-.6.27-.6.6s.27.6.6.6v-1.2zM39.75 10.43c-.34 0-.6.27-.6.6s.26.6.6.6v-1.2z" fill="#fff"/>
 <circle cx="33.117" fill="#fff" r=".607" cy="11.032"/>
 <circle cx="37.674" fill="#fff" r=".607" cy="9.943"/>
 <circle cx="35.174" fill="#fff" r=".607" cy="9.943"/>
 <circle cx="38.492" fill="#fff" r=".607" cy="13.22"/>
 <circle cx="34.429" fill="#fff" r=".607" cy="13.224"/>
 <circle cx="3.331" fill="#fff" r=".607" cy="14.568"/>
 <circle cx="3.331" fill="#fff" r=".607" cy="18.474"/>
 <path d="M0 16c.33 0 .6-.28.6-.62s-.27-.6-.6-.6v1.2z" fill="#fff"/>
 <circle cx="6.617" fill="#fff" r=".607" cy="15.381"/>
 <circle cx="6.617" fill="#fff" r=".607" cy="17.657"/>
 <path d="M0 18.27c.34 0 .6-.28.6-.6s-.26-.62-.6-.62v1.2z" fill="#fff"/>
 <circle cx="4.549" fill="#fff" r=".607" cy="16.568"/>
 <circle cx="2.049" fill="#fff" r=".607" cy="16.568"/>
 <circle cx="5.367" fill="#fff" r=".607" cy="19.845"/>
 <circle cx="1.304" fill="#fff" r=".607" cy="19.849"/>
 <circle cx="9.956" fill="#fff" r=".607" cy="14.568"/>
 <circle cx="9.956" fill="#fff" r=".607" cy="18.474"/>
 <circle cx="13.242" fill="#fff" r=".607" cy="15.381"/>
 <circle cx="13.242" fill="#fff" r=".607" cy="17.657"/>
 <circle cx="6.617" fill="#fff" r=".607" cy="17.657"/>
 <circle cx="11.174" fill="#fff" r=".607" cy="16.568"/>
 <circle cx="8.674" fill="#fff" r=".607" cy="16.568"/>
 <circle cx="11.992" fill="#fff" r=".607" cy="19.845"/>
 <circle cx="7.929" fill="#fff" r=".607" cy="19.849"/>
 <circle cx="16.581" fill="#fff" r=".607" cy="14.568"/>
 <circle cx="16.581" fill="#fff" r=".607" cy="18.474"/>
 <circle cx="19.867" fill="#fff" r=".607" cy="15.381"/>
 <circle cx="19.867" fill="#fff" r=".607" cy="17.657"/>
 <circle cx="13.242" fill="#fff" r=".607" cy="17.657"/>
 <circle cx="17.799" fill="#fff" r=".607" cy="16.568"/>
 <circle cx="15.299" fill="#fff" r=".607" cy="16.568"/>
 <circle cx="18.617" fill="#fff" r=".607" cy="19.845"/>
 <circle cx="14.554" fill="#fff" r=".607" cy="19.849"/>
 <circle cx="23.206" fill="#fff" r=".607" cy="14.568"/>
 <circle cx="23.206" fill="#fff" r=".607" cy="18.474"/>
 <circle cx="26.492" fill="#fff" r=".607" cy="15.381"/>
 <circle cx="26.492" fill="#fff" r=".607" cy="17.657"/>
 <circle cx="19.867" fill="#fff" r=".607" cy="17.657"/>
 <circle cx="24.424" fill="#fff" r=".607" cy="16.568"/>
 <circle cx="21.924" fill="#fff" r=".607" cy="16.568"/>
 <circle cx="25.242" fill="#fff" r=".607" cy="19.845"/>
 <circle cx="21.179" fill="#fff" r=".607" cy="19.849"/>
 <circle cx="29.831" fill="#fff" r=".607" cy="14.568"/>
 <circle cx="29.831" fill="#fff" r=".607" cy="18.474"/>
 <circle cx="33.117" fill="#fff" r=".607" cy="15.381"/>
 <circle cx="33.117" fill="#fff" r=".607" cy="17.657"/>
 <circle cx="26.492" fill="#fff" r=".607" cy="17.657"/>
 <circle cx="31.049" fill="#fff" r=".607" cy="16.568"/>
 <circle cx="28.549" fill="#fff" r=".607" cy="16.568"/>
 <circle cx="31.867" fill="#fff" r=".607" cy="19.845"/>
 <circle cx="27.804" fill="#fff" r=".607" cy="19.849"/>
 <circle cx="36.456" fill="#fff" r=".607" cy="14.568"/>
 <circle cx="36.456" fill="#fff" r=".607" cy="18.474"/>
 <path d="M39.73 14.77c-.33 0-.6.28-.6.6s.27.62.6.62v-1.23zM39.73 17.05c-.33 0-.6.27-.6.6s.27.6.6.6v-1.2z" fill="#fff"/>
 <circle cx="33.117" fill="#fff" r=".607" cy="17.657"/>
 <circle cx="37.674" fill="#fff" r=".607" cy="16.568"/>
 <circle cx="35.174" fill="#fff" r=".607" cy="16.568"/>
 <circle cx="38.492" fill="#fff" r=".607" cy="19.845"/>
 <circle cx="34.429" fill="#fff" r=".607" cy="19.849"/>
 <circle cx="3.331" fill="#fff" r=".607" cy="21.193"/>
 <circle cx="3.331" fill="#fff" r=".607" cy="25.099"/>
 <path d="M0 22.6c.33 0 .6-.26.6-.6s-.27-.6-.6-.6v1.2z" fill="#fff"/>
 <circle cx="6.617" fill="#fff" r=".607" cy="22.006"/>
 <circle cx="6.617" fill="#fff" r=".607" cy="24.282"/>
 <path d="M0 24.9c.35 0 .62-.28.62-.62s-.27-.6-.6-.6v1.2z" fill="#fff"/>
 <circle cx="4.549" fill="#fff" r=".607" cy="23.193"/>
 <circle cx="2.049" fill="#fff" r=".607" cy="23.193"/>
 <circle cx="5.367" fill="#fff" r=".607" cy="26.47"/>
 <circle cx="1.304" fill="#fff" r=".607" cy="26.474"/>
 <circle cx="9.956" fill="#fff" r=".607" cy="21.193"/>
 <circle cx="9.956" fill="#fff" r=".607" cy="25.099"/>
 <circle cx="13.242" fill="#fff" r=".607" cy="22.006"/>
 <circle cx="13.242" fill="#fff" r=".607" cy="24.282"/>
 <circle cx="6.617" fill="#fff" r=".607" cy="24.282"/>
 <circle cx="11.174" fill="#fff" r=".607" cy="23.193"/>
 <circle cx="8.674" fill="#fff" r=".607" cy="23.193"/>
 <circle cx="11.992" fill="#fff" r=".607" cy="26.47"/>
 <circle cx="7.929" fill="#fff" r=".607" cy="26.474"/>
 <circle cx="16.581" fill="#fff" r=".607" cy="21.193"/>
 <circle cx="16.581" fill="#fff" r=".607" cy="25.099"/>
 <circle cx="19.867" fill="#fff" r=".607" cy="22.006"/>
 <circle cx="19.867" fill="#fff" r=".607" cy="24.282"/>
 <circle cx="13.242" fill="#fff" r=".607" cy="24.282"/>
 <circle cx="17.799" fill="#fff" r=".607" cy="23.193"/>
 <circle cx="15.299" fill="#fff" r=".607" cy="23.193"/>
 <circle cx="18.617" fill="#fff" r=".607" cy="26.47"/>
 <circle cx="14.554" fill="#fff" r=".607" cy="26.474"/>
 <circle cx="23.206" fill="#fff" r=".607" cy="21.193"/>
 <circle cx="23.206" fill="#fff" r=".607" cy="25.099"/>
 <circle cx="26.492" fill="#fff" r=".607" cy="22.006"/>
 <circle cx="26.492" fill="#fff" r=".607" cy="24.282"/>
 <circle cx="19.867" fill="#fff" r=".607" cy="24.282"/>
 <circle cx="24.424" fill="#fff" r=".607" cy="23.193"/>
 <circle cx="21.924" fill="#fff" r=".607" cy="23.193"/>
 <circle cx="25.242" fill="#fff" r=".607" cy="26.47"/>
 <circle cx="21.179" fill="#fff" r=".607" cy="26.474"/>
 <circle cx="29.831" fill="#fff" r=".607" cy="21.193"/>
 <circle cx="29.831" fill="#fff" r=".607" cy="25.099"/>
 <circle cx="33.117" fill="#fff" r=".607" cy="22.006"/>
 <circle cx="33.117" fill="#fff" r=".607" cy="24.282"/>
 <circle cx="26.492" fill="#fff" r=".607" cy="24.282"/>
 <circle cx="31.049" fill="#fff" r=".607" cy="23.193"/>
 <circle cx="28.549" fill="#fff" r=".607" cy="23.193"/>
 <circle cx="31.867" fill="#fff" r=".607" cy="26.47"/>
 <circle cx="27.804" fill="#fff" r=".607" cy="26.474"/>
 <circle cx="36.456" fill="#fff" r=".607" cy="21.193"/>
 <circle cx="36.456" fill="#fff" r=".607" cy="25.099"/>
 <path d="M39.73 21.4c-.33 0-.6.27-.6.6s.27.6.6.6v-1.2zM39.73 23.68c-.33 0-.6.27-.6.6s.27.6.6.6v-1.2z" fill="#fff"/>
 <circle cx="33.117" fill="#fff" r=".607" cy="24.282"/>
 <circle cx="37.674" fill="#fff" r=".607" cy="23.193"/>
 <circle cx="35.174" fill="#fff" r=".607" cy="23.193"/>
 <circle cx="38.492" fill="#fff" r=".607" cy="26.47"/>
 <circle cx="34.429" fill="#fff" r=".607" cy="26.474"/>
 <circle cx="3.331" fill="#fff" r=".607" cy="27.818"/>
 <circle cx="3.331" fill="#fff" r=".607" cy="31.724"/>
 <path d="M0 29.24c.33 0 .6-.27.6-.6S.33 28 0 28v1.22z" fill="#fff"/>
 <circle cx="6.617" fill="#fff" r=".607" cy="28.631"/>
 <circle cx="6.617" fill="#fff" r=".607" cy="30.907"/>
 <path d="M0 31.52c.34 0 .6-.28.6-.6s-.26-.62-.6-.62v1.2z" fill="#fff"/>
 <circle cx="4.549" fill="#fff" r=".607" cy="29.818"/>
 <circle cx="2.049" fill="#fff" r=".607" cy="29.818"/>
 <circle cx="5.367" fill="#fff" r=".607" cy="33.095"/>
 <circle cx="9.956" fill="#fff" r=".607" cy="27.818"/>
 <circle cx="9.956" fill="#fff" r=".607" cy="31.724"/>
 <circle cx="13.242" fill="#fff" r=".607" cy="28.631"/>
 <circle cx="13.242" fill="#fff" r=".607" cy="30.907"/>
 <circle cx="6.617" fill="#fff" r=".607" cy="30.907"/>
 <circle cx="11.174" fill="#fff" r=".607" cy="29.818"/>
 <circle cx="8.674" fill="#fff" r=".607" cy="29.818"/>
 <circle cx="11.992" fill="#fff" r=".607" cy="33.095"/>
 <circle cx="7.929" fill="#fff" r=".607" cy="33.099"/>
 <circle cx="16.581" fill="#fff" r=".607" cy="27.818"/>
 <circle cx="16.581" fill="#fff" r=".607" cy="31.724"/>
 <circle cx="19.867" fill="#fff" r=".607" cy="28.631"/>
 <circle cx="19.867" fill="#fff" r=".607" cy="30.907"/>
 <circle cx="13.242" fill="#fff" r=".607" cy="30.907"/>
 <circle cx="17.799" fill="#fff" r=".607" cy="29.818"/>
 <circle cx="15.299" fill="#fff" r=".607" cy="29.818"/>
 <circle cx="18.617" fill="#fff" r=".607" cy="33.095"/>
 <circle cx="23.206" fill="#fff" r=".607" cy="27.818"/>
 <circle cx="23.206" fill="#fff" r=".607" cy="31.724"/>
 <circle cx="26.492" fill="#fff" r=".607" cy="28.631"/>
 <circle cx="26.492" fill="#fff" r=".607" cy="30.907"/>
 <circle cx="19.867" fill="#fff" r=".607" cy="30.907"/>
 <circle cx="24.424" fill="#fff" r=".607" cy="29.818"/>
 <circle cx="21.924" fill="#fff" r=".607" cy="29.818"/>
 <circle cx="25.242" fill="#fff" r=".607" cy="33.095"/>
 <circle cx="21.179" fill="#fff" r=".607" cy="33.099"/>
 <circle cx="29.831" fill="#fff" r=".607" cy="27.818"/>
 <circle cx="29.831" fill="#fff" r=".607" cy="31.724"/>
 <circle cx="33.117" fill="#fff" r=".607" cy="28.631"/>
 <circle cx="33.117" fill="#fff" r=".607" cy="30.907"/>
 <circle cx="26.492" fill="#fff" r=".607" cy="30.907"/>
 <circle cx="31.049" fill="#fff" r=".607" cy="29.818"/>
 <circle cx="28.549" fill="#fff" r=".607" cy="29.818"/>
 <circle cx="31.867" fill="#fff" r=".607" cy="33.095"/>
 <circle cx="27.804" fill="#fff" r=".607" cy="33.099"/>
 <circle cx="36.456" fill="#fff" r=".607" cy="27.818"/>
 <circle cx="36.456" fill="#fff" r=".607" cy="31.724"/>
 <path d="M39.73 28.02c-.33 0-.6.28-.6.6s.27.62.6.62v-1.22zM39.74 30.3c-.33 0-.6.27-.6.6s.27.6.6.6v-1.2z" fill="#fff"/>
 <circle cx="33.117" fill="#fff" r=".607" cy="30.907"/>
 <circle cx="37.674" fill="#fff" r=".607" cy="29.818"/>
 <circle cx="35.174" fill="#fff" r=".607" cy="29.818"/>
 <circle cx="38.492" fill="#fff" r=".607" cy="33.095"/>
 <circle cx="34.429" fill="#fff" r=".607" cy="33.099"/>
 <circle cx="3.331" fill="#fff" r=".607" cy="34.443"/>
 <circle cx="3.331" fill="#fff" r=".607" cy="38.349"/>
 <path d="M0 35.86c.34 0 .6-.27.6-.6s-.26-.6-.6-.6v1.2z" fill="#fff"/>
 <circle cx="6.617" fill="#fff" r=".607" cy="35.256"/>
 <circle cx="6.617" fill="#fff" r=".607" cy="37.532"/>
 <path d="M0 38.14c.34 0 .6-.27.6-.6s-.26-.6-.6-.6v1.2z" fill="#fff"/>
 <circle cx="4.549" fill="#fff" r=".607" cy="36.443"/>
 <circle cx="2.049" fill="#fff" r=".607" cy="36.443"/>
 <path d="M5.97 39.73c0-.34-.27-.6-.6-.6s-.6.26-.6.6h1.2z" fill="#fff"/>
 <circle cx="1.304" fill="#fff" r=".607" cy="33.157"/>
 <path d="M1.9 39.73c0-.34-.26-.6-.6-.6s-.6.26-.6.6h1.2z" fill="#fff"/>
 <circle cx="9.956" fill="#fff" r=".607" cy="34.443"/>
 <circle cx="9.956" fill="#fff" r=".607" cy="38.349"/>
 <circle cx="13.242" fill="#fff" r=".607" cy="35.256"/>
 <circle cx="13.242" fill="#fff" r=".607" cy="37.532"/>
 <circle cx="6.617" fill="#fff" r=".607" cy="37.532"/>
 <circle cx="11.174" fill="#fff" r=".607" cy="36.443"/>
 <circle cx="8.674" fill="#fff" r=".607" cy="36.443"/>
 <path d="M12.6 39.73c0-.34-.27-.6-.6-.6s-.6.26-.6.6h1.2zM8.54 39.73c0-.34-.27-.6-.6-.6s-.62.26-.62.6h1.22z" fill="#fff"/>
 <circle cx="16.581" fill="#fff" r=".607" cy="34.443"/>
 <circle cx="16.581" fill="#fff" r=".607" cy="38.349"/>
 <circle cx="19.867" fill="#fff" r=".607" cy="35.256"/>
 <circle cx="19.867" fill="#fff" r=".607" cy="37.532"/>
 <circle cx="13.242" fill="#fff" r=".607" cy="37.532"/>
 <circle cx="17.799" fill="#fff" r=".607" cy="36.443"/>
 <circle cx="15.299" fill="#fff" r=".607" cy="36.443"/>
 <path d="M19.22 39.73c0-.34-.27-.6-.6-.6s-.6.26-.6.6h1.2z" fill="#fff"/>
 <circle cx="14.554" fill="#fff" r=".607" cy="33.157"/>
 <path d="M15.16 39.73c0-.34-.27-.6-.6-.6s-.6.26-.6.6h1.2z" fill="#fff"/>
 <circle cx="23.206" fill="#fff" r=".607" cy="34.443"/>
 <circle cx="23.206" fill="#fff" r=".607" cy="38.349"/>
 <circle cx="26.492" fill="#fff" r=".607" cy="35.256"/>
 <circle cx="26.492" fill="#fff" r=".607" cy="37.532"/>
 <circle cx="19.867" fill="#fff" r=".607" cy="37.532"/>
 <circle cx="24.424" fill="#fff" r=".607" cy="36.443"/>
 <circle cx="21.924" fill="#fff" r=".607" cy="36.443"/>
 <path d="M25.85 39.73c0-.34-.27-.6-.6-.6s-.6.26-.6.6h1.2zM21.8 39.73c0-.34-.28-.6-.62-.6s-.6.26-.6.6h1.2z" fill="#fff"/>
 <circle cx="29.831" fill="#fff" r=".607" cy="34.443"/>
 <circle cx="29.831" fill="#fff" r=".607" cy="38.349"/>
 <circle cx="33.117" fill="#fff" r=".607" cy="35.256"/>
 <circle cx="33.117" fill="#fff" r=".607" cy="37.532"/>
 <circle cx="26.492" fill="#fff" r=".607" cy="37.532"/>
 <circle cx="31.049" fill="#fff" r=".607" cy="36.443"/>
 <circle cx="28.549" fill="#fff" r=".607" cy="36.443"/>
 <path d="M32.47 39.73c0-.34-.27-.6-.6-.6s-.6.26-.6.6h1.2zM28.4 39.73c0-.34-.26-.6-.6-.6s-.6.26-.6.6h1.2z" fill="#fff"/>
 <circle cx="36.456" fill="#fff" r=".607" cy="34.443"/>
 <circle cx="36.456" fill="#fff" r=".607" cy="38.349"/>
 <path d="M39.74 34.65c-.33 0-.6.27-.6.6s.27.6.6.6v-1.2zM39.74 36.92c-.33 0-.6.28-.6.6s.27.62.6.62v-1.22z" fill="#fff"/>
 <circle cx="33.117" fill="#fff" r=".607" cy="37.532"/>
 <circle cx="37.674" fill="#fff" r=".607" cy="36.443"/>
 <circle cx="35.174" fill="#fff" r=".607" cy="36.443"/>
 <path d="M39.1 39.73c0-.34-.27-.6-.6-.6s-.62.26-.62.6h1.22zM35.04 39.73c0-.34-.27-.6-.6-.6s-.62.26-.62.6h1.22z" fill="#fff"/>
</svg>
