<?xml version="1.0"?>
<!-- Converted with SVG Converter - Version 0.9.5 (Compiled Fri Feb 21 09:53:38 2020) - Copyright (C) 2011 Nokia -->
<svg xmlns="http://www.w3.org/2000/svg" xmlns:xlink="http://www.w3.org/1999/xlink" height="47.721" width="48.097" baseProfile="tiny">
 <defs>
  <path id="a" d="M0 0h48.1v47.72H0z"/>
 </defs>
 <circle stroke="#00AEEF" cy="39.775" cx="6.472" fill="none" stroke-width=".43" r=".787"/>
 <path stroke="#00AEEF" fill="none" d="M5.7 47.72c0-.4.35-.74.77-.74s.77.33.8.74" stroke-width=".43"/>
 <circle stroke="#00AEEF" cy="39.775" cx="1.54" fill="none" stroke-width=".43" r=".787"/>
 <path stroke="#00AEEF" fill="none" d="M2.33 47.72s0-.02 0-.03c0-.45-.36-.8-.8-.8-.43 0-.78.35-.78.8 0 0 0 0 0 .02" stroke-width=".43"/>
 <circle stroke="#00AEEF" cy="41.2" cx="3.997" fill="none" stroke-width=".43" r=".788"/>
 <circle stroke="#00AEEF" cy="42.176" cx="8.009" fill="none" stroke-width=".43" r=".788"/>
 <circle stroke="#00AEEF" cy="43.6" cx="5.459" fill="none" stroke-width=".43" r=".788"/>
 <circle stroke="#00AEEF" cy="43.601" cx="2.478" fill="none" stroke-width=".43" r=".788"/>
 <path stroke="#00AEEF" fill="none" d="M0 42.96s0 0 .02 0c.44 0 .8-.35.8-.78 0-.44-.36-.8-.8-.8 0 0 0 0-.02 0M0 45.8s0 0 .02 0c.44 0 .8-.34.8-.77s-.36-.8-.8-.8c0 0 0 0-.02 0" stroke-width=".43"/>
 <circle stroke="#00AEEF" cy="46" cx="3.997" fill="none" stroke-width=".43" r=".788"/>
 <circle stroke="#00AEEF" cy="45.025" cx="8.009" fill="none" stroke-width=".43" r=".788"/>
 <circle stroke="#00AEEF" cy="39.775" cx="14.497" fill="none" stroke-width=".43" r=".788"/>
 <path stroke="#00AEEF" fill="none" d="M13.7 47.72c.03-.4.38-.74.8-.74.42 0 .76.33.78.74" stroke-width=".43"/>
 <circle stroke="#00AEEF" cy="39.775" cx="9.565" fill="none" stroke-width=".43" r=".787"/>
 <path stroke="#00AEEF" fill="none" d="M10.35 47.72s0-.02 0-.03c0-.45-.35-.8-.78-.8s-.8.35-.8.8c0 0 0 0 0 .02" stroke-width=".43"/>
 <circle stroke="#00AEEF" cy="41.2" cx="12.022" fill="none" stroke-width=".43" r=".788"/>
 <circle stroke="#00AEEF" cy="42.176" cx="16.034" fill="none" stroke-width=".43" r=".787"/>
 <circle stroke="#00AEEF" cy="43.6" cx="13.484" fill="none" stroke-width=".43" r=".788"/>
 <circle stroke="#00AEEF" cy="43.601" cx="10.503" fill="none" stroke-width=".43" r=".787"/>
 <circle stroke="#00AEEF" cy="46" cx="12.022" fill="none" stroke-width=".43" r=".788"/>
 <circle stroke="#00AEEF" cy="45.025" cx="16.034" fill="none" stroke-width=".43" r=".787"/>
 <circle stroke="#00AEEF" cy="39.775" cx="22.522" fill="none" stroke-width=".43" r=".788"/>
 <path stroke="#00AEEF" fill="none" d="M21.74 47.72c.02-.4.36-.74.78-.74s.77.33.8.74" stroke-width=".43"/>
 <circle stroke="#00AEEF" cy="39.775" cx="17.59" fill="none" stroke-width=".43" r=".788"/>
 <path stroke="#00AEEF" fill="none" d="M18.38 47.72s0-.02 0-.03c0-.45-.35-.8-.8-.8-.42 0-.78.35-.78.8 0 0 0 0 0 .02" stroke-width=".43"/>
 <circle stroke="#00AEEF" cy="41.2" cx="20.046" fill="none" stroke-width=".43" r=".788"/>
 <circle stroke="#00AEEF" cy="42.176" cx="24.059" fill="none" stroke-width=".43" r=".788"/>
 <circle stroke="#00AEEF" cy="43.6" cx="21.509" fill="none" stroke-width=".43" r=".788"/>
 <circle stroke="#00AEEF" cy="43.601" cx="18.528" fill="none" stroke-width=".43" r=".788"/>
 <circle stroke="#00AEEF" cy="46" cx="20.046" fill="none" stroke-width=".43" r=".788"/>
 <circle stroke="#00AEEF" cy="45.025" cx="24.059" fill="none" stroke-width=".43" r=".788"/>
 <circle stroke="#00AEEF" cy="39.775" cx="30.546" fill="none" stroke-width=".43" r=".788"/>
 <path stroke="#00AEEF" fill="none" d="M29.76 47.72c.02-.4.37-.74.8-.74s.75.33.77.74" stroke-width=".43"/>
 <circle stroke="#00AEEF" cy="39.775" cx="25.616" fill="none" stroke-width=".43" r=".788"/>
 <path stroke="#00AEEF" fill="none" d="M26.4 47.72s0-.02 0-.03c0-.45-.35-.8-.78-.8s-.8.35-.8.8c0 0 0 0 0 .02" stroke-width=".43"/>
 <circle stroke="#00AEEF" cy="41.2" cx="28.072" fill="none" stroke-width=".43" r=".788"/>
 <circle stroke="#00AEEF" cy="42.176" cx="32.084" fill="none" stroke-width=".43" r=".788"/>
 <circle stroke="#00AEEF" cy="43.6" cx="29.534" fill="none" stroke-width=".43" r=".788"/>
 <circle stroke="#00AEEF" cy="43.601" cx="26.553" fill="none" stroke-width=".43" r=".788"/>
 <circle stroke="#00AEEF" cy="46" cx="28.072" fill="none" stroke-width=".43" r=".788"/>
 <circle stroke="#00AEEF" cy="45.025" cx="32.084" fill="none" stroke-width=".43" r=".788"/>
 <circle stroke="#00AEEF" cy="39.775" cx="38.572" fill="none" stroke-width=".43" r=".788"/>
 <path stroke="#00AEEF" fill="none" d="M37.8 47.72c0-.4.35-.74.77-.74.42 0 .76.33.8.74" stroke-width=".43"/>
 <circle stroke="#00AEEF" cy="39.775" cx="33.64" fill="none" stroke-width=".43" r=".788"/>
 <path stroke="#00AEEF" fill="none" d="M34.43 47.72s0-.02 0-.03c0-.45-.35-.8-.8-.8s-.78.35-.78.8c0 0 0 0 0 .02" stroke-width=".43"/>
 <circle stroke="#00AEEF" cy="41.2" cx="36.097" fill="none" stroke-width=".43" r=".787"/>
 <circle stroke="#00AEEF" cy="42.176" cx="40.109" fill="none" stroke-width=".43" r=".788"/>
 <circle stroke="#00AEEF" cy="43.6" cx="37.56" fill="none" stroke-width=".43" r=".788"/>
 <circle stroke="#00AEEF" cy="43.601" cx="34.578" fill="none" stroke-width=".43" r=".788"/>
 <circle stroke="#00AEEF" cy="46" cx="36.097" fill="none" stroke-width=".43" r=".787"/>
 <circle stroke="#00AEEF" cy="45.025" cx="40.109" fill="none" stroke-width=".43" r=".788"/>
 <circle stroke="#00AEEF" cy="39.775" cx="46.597" fill="none" stroke-width=".43" r=".787"/>
 <path stroke="#00AEEF" fill="none" d="M45.8 47.72c.03-.4.38-.74.8-.74s.76.33.78.74" stroke-width=".43"/>
 <circle stroke="#00AEEF" cy="39.775" cx="41.666" fill="none" stroke-width=".43" r=".788"/>
 <path stroke="#00AEEF" fill="none" d="M42.45 47.72s0-.02 0-.03c0-.45-.35-.8-.78-.8-.44 0-.8.35-.8.8 0 0 0 0 0 .02" stroke-width=".43"/>
 <circle stroke="#00AEEF" cy="41.2" cx="44.122" fill="none" stroke-width=".43" r=".788"/>
 <path stroke="#00AEEF" fill="none" d="M48.1 41.4c-.42 0-.75.35-.75.78 0 .42.33.76.75.78" stroke-width=".43"/>
 <circle stroke="#00AEEF" cy="43.6" cx="45.584" fill="none" stroke-width=".43" r=".788"/>
 <circle stroke="#00AEEF" cy="43.601" cx="42.603" fill="none" stroke-width=".43" r=".788"/>
 <circle stroke="#00AEEF" cy="46" cx="44.122" fill="none" stroke-width=".43" r=".788"/>
 <path stroke="#00AEEF" fill="none" d="M48.1 44.24c-.42.02-.75.36-.75.79s.33.76.75.78" stroke-width=".43"/>
 <circle stroke="#00AEEF" cy="31.826" cx="6.472" fill="none" stroke-width=".43" r=".788"/>
 <circle stroke="#00AEEF" cy="31.825" cx="1.541" fill="none" stroke-width=".43" r=".788"/>
 <circle stroke="#00AEEF" cy="33.25" cx="3.997" fill="none" stroke-width=".43" r=".788"/>
 <circle stroke="#00AEEF" cy="34.226" cx="8.009" fill="none" stroke-width=".43" r=".788"/>
 <circle stroke="#00AEEF" cy="35.65" cx="5.459" fill="none" stroke-width=".43" r=".787"/>
 <circle stroke="#00AEEF" cy="35.65" cx="2.478" fill="none" stroke-width=".43" r=".788"/>
 <path stroke="#00AEEF" fill="none" d="M0 35s0 0 .02 0c.44 0 .8-.34.8-.77s-.36-.8-.8-.8c0 0 0 0-.02 0M0 37.86s0 0 .02 0c.44 0 .8-.35.8-.78s-.36-.8-.8-.8c0 0 0 0-.02 0" stroke-width=".43"/>
 <circle stroke="#00AEEF" cy="38.051" cx="3.997" fill="none" stroke-width=".43" r=".788"/>
 <circle stroke="#00AEEF" cy="37.075" cx="8.009" fill="none" stroke-width=".43" r=".788"/>
 <circle stroke="#00AEEF" cy="31.826" cx="14.497" fill="none" stroke-width=".43" r=".788"/>
 <circle stroke="#00AEEF" cy="31.826" cx="9.565" fill="none" stroke-width=".43" r=".788"/>
 <circle stroke="#00AEEF" cy="33.25" cx="12.022" fill="none" stroke-width=".43" r=".788"/>
 <circle stroke="#00AEEF" cy="34.226" cx="16.034" fill="none" stroke-width=".43" r=".787"/>
 <circle stroke="#00AEEF" cy="35.65" cx="13.484" fill="none" stroke-width=".43" r=".787"/>
 <circle stroke="#00AEEF" cy="35.65" cx="10.503" fill="none" stroke-width=".43" r=".787"/>
 <circle stroke="#00AEEF" cy="38.051" cx="12.022" fill="none" stroke-width=".43" r=".788"/>
 <circle stroke="#00AEEF" cy="37.075" cx="16.034" fill="none" stroke-width=".43" r=".787"/>
 <circle stroke="#00AEEF" cy="31.826" cx="22.521" fill="none" stroke-width=".43" r=".788"/>
 <circle stroke="#00AEEF" cy="31.826" cx="17.591" fill="none" stroke-width=".43" r=".788"/>
 <circle stroke="#00AEEF" cy="33.25" cx="20.046" fill="none" stroke-width=".43" r=".788"/>
 <circle stroke="#00AEEF" cy="34.226" cx="24.059" fill="none" stroke-width=".43" r=".788"/>
 <circle stroke="#00AEEF" cy="35.65" cx="21.509" fill="none" stroke-width=".43" r=".787"/>
 <circle stroke="#00AEEF" cy="35.65" cx="18.528" fill="none" stroke-width=".43" r=".788"/>
 <circle stroke="#00AEEF" cy="38.051" cx="20.046" fill="none" stroke-width=".43" r=".788"/>
 <circle stroke="#00AEEF" cy="37.075" cx="24.059" fill="none" stroke-width=".43" r=".788"/>
 <circle stroke="#00AEEF" cy="31.826" cx="30.547" fill="none" stroke-width=".43" r=".788"/>
 <circle stroke="#00AEEF" cy="31.826" cx="25.615" fill="none" stroke-width=".43" r=".788"/>
 <circle stroke="#00AEEF" cy="33.25" cx="28.072" fill="none" stroke-width=".43" r=".788"/>
 <circle stroke="#00AEEF" cy="34.226" cx="32.084" fill="none" stroke-width=".43" r=".788"/>
 <circle stroke="#00AEEF" cy="35.65" cx="29.534" fill="none" stroke-width=".43" r=".787"/>
 <circle stroke="#00AEEF" cy="35.65" cx="26.553" fill="none" stroke-width=".43" r=".788"/>
 <circle stroke="#00AEEF" cy="38.051" cx="28.072" fill="none" stroke-width=".43" r=".788"/>
 <circle stroke="#00AEEF" cy="37.075" cx="32.084" fill="none" stroke-width=".43" r=".788"/>
 <circle stroke="#00AEEF" cy="31.826" cx="38.571" fill="none" stroke-width=".43" r=".788"/>
 <circle stroke="#00AEEF" cy="31.826" cx="33.641" fill="none" stroke-width=".43" r=".788"/>
 <circle stroke="#00AEEF" cy="33.25" cx="36.097" fill="none" stroke-width=".43" r=".787"/>
 <circle stroke="#00AEEF" cy="34.226" cx="40.109" fill="none" stroke-width=".43" r=".788"/>
 <circle stroke="#00AEEF" cy="35.65" cx="37.56" fill="none" stroke-width=".43" r=".787"/>
 <circle stroke="#00AEEF" cy="35.65" cx="34.578" fill="none" stroke-width=".43" r=".788"/>
 <circle stroke="#00AEEF" cy="38.051" cx="36.097" fill="none" stroke-width=".43" r=".787"/>
 <circle stroke="#00AEEF" cy="37.075" cx="40.109" fill="none" stroke-width=".43" r=".788"/>
 <circle stroke="#00AEEF" cy="31.826" cx="46.597" fill="none" stroke-width=".43" r=".788"/>
 <circle stroke="#00AEEF" cy="31.826" cx="41.665" fill="none" stroke-width=".43" r=".788"/>
 <circle stroke="#00AEEF" cy="33.25" cx="44.122" fill="none" stroke-width=".43" r=".788"/>
 <path stroke="#00AEEF" fill="none" d="M48.1 33.44c-.42.02-.75.36-.75.8s.33.75.75.77" stroke-width=".43"/>
 <circle stroke="#00AEEF" cy="35.65" cx="45.584" fill="none" stroke-width=".43" r=".787"/>
 <circle stroke="#00AEEF" cy="35.65" cx="42.603" fill="none" stroke-width=".43" r=".788"/>
 <circle stroke="#00AEEF" cy="38.051" cx="44.122" fill="none" stroke-width=".43" r=".788"/>
 <path stroke="#00AEEF" fill="none" d="M48.1 36.3c-.42 0-.75.35-.75.78s.33.76.75.78" stroke-width=".43"/>
 <circle stroke="#00AEEF" cy="23.875" cx="6.472" fill="none" stroke-width=".43" r=".788"/>
 <circle stroke="#00AEEF" cy="23.875" cx="1.541" fill="none" stroke-width=".43" r=".788"/>
 <circle stroke="#00AEEF" cy="25.3" cx="3.997" fill="none" stroke-width=".43" r=".788"/>
 <circle stroke="#00AEEF" cy="26.275" cx="8.009" fill="none" stroke-width=".43" r=".788"/>
 <circle stroke="#00AEEF" cy="27.701" cx="5.459" fill="none" stroke-width=".43" r=".788"/>
 <circle stroke="#00AEEF" cy="27.701" cx="2.478" fill="none" stroke-width=".43" r=".788"/>
 <path stroke="#00AEEF" fill="none" d="M0 27.06s0 0 .02 0c.44 0 .8-.35.8-.78s-.36-.8-.8-.8c0 0 0 0-.02 0M0 29.9s0 0 .02 0c.44 0 .8-.34.8-.77 0-.44-.36-.8-.8-.8 0 0 0 0-.02 0" stroke-width=".43"/>
 <circle stroke="#00AEEF" cy="30.101" cx="3.997" fill="none" stroke-width=".43" r=".788"/>
 <circle stroke="#00AEEF" cy="29.125" cx="8.009" fill="none" stroke-width=".43" r=".788"/>
 <circle stroke="#00AEEF" cy="23.875" cx="14.497" fill="none" stroke-width=".43" r=".788"/>
 <circle stroke="#00AEEF" cy="23.875" cx="9.565" fill="none" stroke-width=".43" r=".788"/>
 <circle stroke="#00AEEF" cy="25.3" cx="12.021" fill="none" stroke-width=".43" r=".788"/>
 <circle stroke="#00AEEF" cy="26.275" cx="16.034" fill="none" stroke-width=".43" r=".787"/>
 <circle stroke="#00AEEF" cy="27.701" cx="13.484" fill="none" stroke-width=".43" r=".788"/>
 <circle stroke="#00AEEF" cy="27.7" cx="10.503" fill="none" stroke-width=".43" r=".787"/>
 <circle stroke="#00AEEF" cy="30.101" cx="12.022" fill="none" stroke-width=".43" r=".788"/>
 <circle stroke="#00AEEF" cy="29.125" cx="16.034" fill="none" stroke-width=".43" r=".787"/>
 <circle stroke="#00AEEF" cy="23.875" cx="22.521" fill="none" stroke-width=".43" r=".788"/>
 <circle stroke="#00AEEF" cy="23.875" cx="17.591" fill="none" stroke-width=".43" r=".788"/>
 <circle stroke="#00AEEF" cy="25.3" cx="20.047" fill="none" stroke-width=".43" r=".788"/>
 <circle stroke="#00AEEF" cy="26.275" cx="24.059" fill="none" stroke-width=".43" r=".788"/>
 <circle stroke="#00AEEF" cy="27.701" cx="21.509" fill="none" stroke-width=".43" r=".788"/>
 <circle stroke="#00AEEF" cy="27.7" cx="18.528" fill="none" stroke-width=".43" r=".788"/>
 <circle stroke="#00AEEF" cy="30.101" cx="20.046" fill="none" stroke-width=".43" r=".788"/>
 <circle stroke="#00AEEF" cy="29.125" cx="24.059" fill="none" stroke-width=".43" r=".788"/>
 <circle stroke="#00AEEF" cy="23.875" cx="30.547" fill="none" stroke-width=".43" r=".788"/>
 <circle stroke="#00AEEF" cy="23.875" cx="25.615" fill="none" stroke-width=".43" r=".788"/>
 <circle stroke="#00AEEF" cy="25.3" cx="28.071" fill="none" stroke-width=".43" r=".788"/>
 <circle stroke="#00AEEF" cy="26.275" cx="32.084" fill="none" stroke-width=".43" r=".788"/>
 <circle stroke="#00AEEF" cy="27.701" cx="29.534" fill="none" stroke-width=".43" r=".788"/>
 <circle stroke="#00AEEF" cy="27.7" cx="26.553" fill="none" stroke-width=".43" r=".788"/>
 <circle stroke="#00AEEF" cy="30.101" cx="28.072" fill="none" stroke-width=".43" r=".788"/>
 <circle stroke="#00AEEF" cy="29.125" cx="32.084" fill="none" stroke-width=".43" r=".788"/>
 <circle stroke="#00AEEF" cy="23.875" cx="38.571" fill="none" stroke-width=".43" r=".788"/>
 <circle stroke="#00AEEF" cy="23.875" cx="33.641" fill="none" stroke-width=".43" r=".788"/>
 <circle stroke="#00AEEF" cy="25.3" cx="36.097" fill="none" stroke-width=".43" r=".788"/>
 <circle stroke="#00AEEF" cy="26.275" cx="40.109" fill="none" stroke-width=".43" r=".788"/>
 <circle stroke="#00AEEF" cy="27.701" cx="37.56" fill="none" stroke-width=".43" r=".788"/>
 <circle stroke="#00AEEF" cy="27.7" cx="34.578" fill="none" stroke-width=".43" r=".788"/>
 <circle stroke="#00AEEF" cy="30.101" cx="36.097" fill="none" stroke-width=".43" r=".787"/>
 <circle stroke="#00AEEF" cy="29.125" cx="40.109" fill="none" stroke-width=".43" r=".788"/>
 <circle stroke="#00AEEF" cy="23.875" cx="46.597" fill="none" stroke-width=".43" r=".788"/>
 <circle stroke="#00AEEF" cy="23.875" cx="41.665" fill="none" stroke-width=".43" r=".788"/>
 <circle stroke="#00AEEF" cy="25.3" cx="44.122" fill="none" stroke-width=".43" r=".788"/>
 <path stroke="#00AEEF" fill="none" d="M48.1 25.5c-.42 0-.75.35-.75.77s.33.77.75.8" stroke-width=".43"/>
 <circle stroke="#00AEEF" cy="27.701" cx="45.584" fill="none" stroke-width=".43" r=".788"/>
 <circle stroke="#00AEEF" cy="27.7" cx="42.603" fill="none" stroke-width=".43" r=".788"/>
 <circle stroke="#00AEEF" cy="30.101" cx="44.122" fill="none" stroke-width=".43" r=".788"/>
 <path stroke="#00AEEF" fill="none" d="M48.1 28.34c-.42.02-.75.36-.75.79 0 .42.33.76.75.78" stroke-width=".43"/>
 <circle stroke="#00AEEF" cy="15.925" cx="6.472" fill="none" stroke-width=".43" r=".788"/>
 <circle stroke="#00AEEF" cy="15.926" cx="1.541" fill="none" stroke-width=".43" r=".788"/>
 <circle stroke="#00AEEF" cy="17.351" cx="3.997" fill="none" stroke-width=".43" r=".788"/>
 <circle stroke="#00AEEF" cy="18.325" cx="8.009" fill="none" stroke-width=".43" r=".788"/>
 <circle stroke="#00AEEF" cy="19.75" cx="5.459" fill="none" stroke-width=".43" r=".788"/>
 <circle stroke="#00AEEF" cy="19.75" cx="2.478" fill="none" stroke-width=".43" r=".788"/>
 <path stroke="#00AEEF" fill="none" d="M0 19.1s0 0 .02 0c.44 0 .8-.34.8-.78s-.36-.78-.8-.78c0 0 0 0-.02 0M0 21.96s0 0 .02 0c.44 0 .8-.35.8-.78 0-.44-.36-.8-.8-.8 0 0 0 0-.02 0" stroke-width=".43"/>
 <circle stroke="#00AEEF" cy="22.15" cx="3.997" fill="none" stroke-width=".43" r=".788"/>
 <circle stroke="#00AEEF" cy="21.176" cx="8.009" fill="none" stroke-width=".43" r=".788"/>
 <circle stroke="#00AEEF" cy="15.925" cx="14.497" fill="none" stroke-width=".43" r=".788"/>
 <circle stroke="#00AEEF" cy="15.925" cx="9.565" fill="none" stroke-width=".43" r=".788"/>
 <circle stroke="#00AEEF" cy="17.351" cx="12.022" fill="none" stroke-width=".43" r=".788"/>
 <circle stroke="#00AEEF" cy="18.325" cx="16.034" fill="none" stroke-width=".43" r=".787"/>
 <circle stroke="#00AEEF" cy="19.75" cx="13.484" fill="none" stroke-width=".43" r=".788"/>
 <circle stroke="#00AEEF" cy="19.75" cx="10.503" fill="none" stroke-width=".43" r=".788"/>
 <circle stroke="#00AEEF" cy="22.15" cx="12.022" fill="none" stroke-width=".43" r=".788"/>
 <circle stroke="#00AEEF" cy="21.176" cx="16.034" fill="none" stroke-width=".43" r=".787"/>
 <circle stroke="#00AEEF" cy="15.925" cx="22.521" fill="none" stroke-width=".43" r=".788"/>
 <circle stroke="#00AEEF" cy="15.925" cx="17.591" fill="none" stroke-width=".43" r=".788"/>
 <circle stroke="#00AEEF" cy="17.351" cx="20.046" fill="none" stroke-width=".43" r=".788"/>
 <circle stroke="#00AEEF" cy="18.325" cx="24.059" fill="none" stroke-width=".43" r=".788"/>
 <circle stroke="#00AEEF" cy="19.75" cx="21.509" fill="none" stroke-width=".43" r=".788"/>
 <circle stroke="#00AEEF" cy="19.75" cx="18.528" fill="none" stroke-width=".43" r=".788"/>
 <circle stroke="#00AEEF" cy="22.15" cx="20.046" fill="none" stroke-width=".43" r=".788"/>
 <circle stroke="#00AEEF" cy="21.176" cx="24.059" fill="none" stroke-width=".43" r=".788"/>
 <circle stroke="#00AEEF" cy="15.925" cx="30.547" fill="none" stroke-width=".43" r=".788"/>
 <circle stroke="#00AEEF" cy="15.925" cx="25.615" fill="none" stroke-width=".43" r=".788"/>
 <circle stroke="#00AEEF" cy="17.351" cx="28.072" fill="none" stroke-width=".43" r=".788"/>
 <circle stroke="#00AEEF" cy="18.325" cx="32.084" fill="none" stroke-width=".43" r=".788"/>
 <circle stroke="#00AEEF" cy="19.75" cx="29.534" fill="none" stroke-width=".43" r=".788"/>
 <circle stroke="#00AEEF" cy="19.75" cx="26.553" fill="none" stroke-width=".43" r=".788"/>
 <circle stroke="#00AEEF" cy="22.15" cx="28.072" fill="none" stroke-width=".43" r=".788"/>
 <circle stroke="#00AEEF" cy="21.176" cx="32.084" fill="none" stroke-width=".43" r=".788"/>
 <circle stroke="#00AEEF" cy="15.925" cx="38.571" fill="none" stroke-width=".43" r=".788"/>
 <circle stroke="#00AEEF" cy="15.925" cx="33.641" fill="none" stroke-width=".43" r=".788"/>
 <circle stroke="#00AEEF" cy="17.351" cx="36.097" fill="none" stroke-width=".43" r=".787"/>
 <circle stroke="#00AEEF" cy="18.325" cx="40.109" fill="none" stroke-width=".43" r=".788"/>
 <circle stroke="#00AEEF" cy="19.75" cx="37.56" fill="none" stroke-width=".43" r=".788"/>
 <circle stroke="#00AEEF" cy="19.75" cx="34.578" fill="none" stroke-width=".43" r=".788"/>
 <circle stroke="#00AEEF" cy="22.15" cx="36.097" fill="none" stroke-width=".43" r=".787"/>
 <circle stroke="#00AEEF" cy="21.176" cx="40.109" fill="none" stroke-width=".43" r=".788"/>
 <circle stroke="#00AEEF" cy="15.926" cx="46.597" fill="none" stroke-width=".43" r=".787"/>
 <circle stroke="#00AEEF" cy="15.925" cx="41.665" fill="none" stroke-width=".43" r=".788"/>
 <circle stroke="#00AEEF" cy="17.351" cx="44.122" fill="none" stroke-width=".43" r=".788"/>
 <path stroke="#00AEEF" fill="none" d="M48.1 17.54c-.42.02-.75.36-.75.79s.33.76.75.78" stroke-width=".43"/>
 <circle stroke="#00AEEF" cy="19.75" cx="45.584" fill="none" stroke-width=".43" r=".788"/>
 <circle stroke="#00AEEF" cy="19.75" cx="42.603" fill="none" stroke-width=".43" r=".788"/>
 <circle stroke="#00AEEF" cy="22.15" cx="44.122" fill="none" stroke-width=".43" r=".788"/>
 <path stroke="#00AEEF" fill="none" d="M48.1 20.4c-.42 0-.75.35-.75.78 0 .42.33.76.75.78" stroke-width=".43"/>
 <circle stroke="#00AEEF" cy="7.975" cx="6.472" fill="none" stroke-width=".43" r=".788"/>
 <circle stroke="#00AEEF" cy="7.975" cx="1.54" fill="none" stroke-width=".43" r=".788"/>
 <circle stroke="#00AEEF" cy="9.4" cx="3.997" fill="none" stroke-width=".43" r=".788"/>
 <circle stroke="#00AEEF" cy="10.375" cx="8.009" fill="none" stroke-width=".43" r=".788"/>
 <circle stroke="#00AEEF" cy="11.801" cx="5.459" fill="none" stroke-width=".43" r=".788"/>
 <circle stroke="#00AEEF" cy="11.8" cx="2.478" fill="none" stroke-width=".43" r=".788"/>
 <path stroke="#00AEEF" fill="none" d="M0 11.16s0 0 .02 0c.44 0 .8-.35.8-.78 0-.44-.36-.8-.8-.8 0 0 0 0-.02 0M0 14s0 0 .02 0c.44 0 .8-.34.8-.77s-.36-.8-.8-.8c0 0 0 0-.02 0" stroke-width=".43"/>
 <circle stroke="#00AEEF" cy="14.2" cx="3.997" fill="none" stroke-width=".43" r=".788"/>
 <circle stroke="#00AEEF" cy="13.226" cx="8.009" fill="none" stroke-width=".43" r=".788"/>
 <circle stroke="#00AEEF" cy="7.975" cx="14.497" fill="none" stroke-width=".43" r=".788"/>
 <circle stroke="#00AEEF" cy="7.975" cx="9.565" fill="none" stroke-width=".43" r=".788"/>
 <circle stroke="#00AEEF" cy="9.4" cx="12.022" fill="none" stroke-width=".43" r=".788"/>
 <circle stroke="#00AEEF" cy="10.375" cx="16.034" fill="none" stroke-width=".43" r=".787"/>
 <circle stroke="#00AEEF" cy="11.801" cx="13.484" fill="none" stroke-width=".43" r=".788"/>
 <circle stroke="#00AEEF" cy="11.8" cx="10.503" fill="none" stroke-width=".43" r=".788"/>
 <circle stroke="#00AEEF" cy="14.2" cx="12.022" fill="none" stroke-width=".43" r=".788"/>
 <circle stroke="#00AEEF" cy="13.226" cx="16.034" fill="none" stroke-width=".43" r=".787"/>
 <circle stroke="#00AEEF" cy="7.975" cx="22.521" fill="none" stroke-width=".43" r=".788"/>
 <circle stroke="#00AEEF" cy="7.975" cx="17.591" fill="none" stroke-width=".43" r=".788"/>
 <circle stroke="#00AEEF" cy="9.4" cx="20.046" fill="none" stroke-width=".43" r=".788"/>
 <circle stroke="#00AEEF" cy="10.375" cx="24.059" fill="none" stroke-width=".43" r=".788"/>
 <circle stroke="#00AEEF" cy="11.801" cx="21.509" fill="none" stroke-width=".43" r=".788"/>
 <circle stroke="#00AEEF" cy="11.8" cx="18.528" fill="none" stroke-width=".43" r=".788"/>
 <circle stroke="#00AEEF" cy="14.2" cx="20.046" fill="none" stroke-width=".43" r=".788"/>
 <circle stroke="#00AEEF" cy="13.226" cx="24.059" fill="none" stroke-width=".43" r=".788"/>
 <circle stroke="#00AEEF" cy="7.975" cx="30.547" fill="none" stroke-width=".43" r=".788"/>
 <circle stroke="#00AEEF" cy="7.975" cx="25.615" fill="none" stroke-width=".43" r=".788"/>
 <circle stroke="#00AEEF" cy="9.4" cx="28.072" fill="none" stroke-width=".43" r=".788"/>
 <circle stroke="#00AEEF" cy="10.375" cx="32.084" fill="none" stroke-width=".43" r=".788"/>
 <circle stroke="#00AEEF" cy="11.801" cx="29.534" fill="none" stroke-width=".43" r=".787"/>
 <circle stroke="#00AEEF" cy="11.8" cx="26.553" fill="none" stroke-width=".43" r=".788"/>
 <circle stroke="#00AEEF" cy="14.2" cx="28.072" fill="none" stroke-width=".43" r=".788"/>
 <circle stroke="#00AEEF" cy="13.226" cx="32.084" fill="none" stroke-width=".43" r=".788"/>
 <circle stroke="#00AEEF" cy="7.975" cx="38.571" fill="none" stroke-width=".43" r=".788"/>
 <circle stroke="#00AEEF" cy="7.975" cx="33.641" fill="none" stroke-width=".43" r=".788"/>
 <circle stroke="#00AEEF" cy="9.4" cx="36.097" fill="none" stroke-width=".43" r=".787"/>
 <circle stroke="#00AEEF" cy="10.375" cx="40.109" fill="none" stroke-width=".43" r=".788"/>
 <circle stroke="#00AEEF" cy="11.801" cx="37.559" fill="none" stroke-width=".43" r=".788"/>
 <circle stroke="#00AEEF" cy="11.8" cx="34.578" fill="none" stroke-width=".43" r=".788"/>
 <circle stroke="#00AEEF" cy="14.2" cx="36.097" fill="none" stroke-width=".43" r=".787"/>
 <circle stroke="#00AEEF" cy="13.226" cx="40.109" fill="none" stroke-width=".43" r=".788"/>
 <circle stroke="#00AEEF" cy="7.975" cx="46.597" fill="none" stroke-width=".43" r=".788"/>
 <circle stroke="#00AEEF" cy="7.975" cx="41.665" fill="none" stroke-width=".43" r=".788"/>
 <circle stroke="#00AEEF" cy="9.4" cx="44.122" fill="none" stroke-width=".43" r=".788"/>
 <path stroke="#00AEEF" fill="none" d="M48.1 9.6c-.42 0-.75.35-.75.78 0 .42.33.76.75.78" stroke-width=".43"/>
 <circle stroke="#00AEEF" cy="11.801" cx="45.584" fill="none" stroke-width=".43" r=".788"/>
 <circle stroke="#00AEEF" cy="11.8" cx="42.603" fill="none" stroke-width=".43" r=".788"/>
 <circle stroke="#00AEEF" cy="14.2" cx="44.122" fill="none" stroke-width=".43" r=".788"/>
 <path stroke="#00AEEF" fill="none" d="M48.1 12.44c-.42.02-.75.36-.75.8s.33.75.75.77M5.7 0s-.02.02-.02.03c0 .43.36.78.8.78s.78-.34.78-.78c0 0 0 0 0-.02M.75 0s0 .02 0 .03c0 .43.36.78.8.78.43 0 .78-.34.78-.78 0 0 0 0 0-.02" stroke-width=".43"/>
 <circle stroke="#00AEEF" cy="1.45" cx="3.997" fill="none" stroke-width=".43" r=".788"/>
 <circle stroke="#00AEEF" cy="2.426" cx="8.009" fill="none" stroke-width=".43" r=".788"/>
 <circle stroke="#00AEEF" cy="3.851" cx="5.459" fill="none" stroke-width=".43" r=".788"/>
 <circle stroke="#00AEEF" cy="3.85" cx="2.478" fill="none" stroke-width=".43" r=".788"/>
 <path stroke="#00AEEF" fill="none" d="M0 3.2s0 0 .02 0c.44 0 .8-.34.8-.77 0-.44-.36-.8-.8-.8 0 0 0 0-.02 0M0 6.06s0 0 .02 0c.44 0 .8-.35.8-.78s-.36-.8-.8-.8c0 0 0 0-.02 0" stroke-width=".43"/>
 <circle stroke="#00AEEF" cy="6.25" cx="3.997" fill="none" stroke-width=".43" r=".788"/>
 <circle stroke="#00AEEF" cy="5.275" cx="8.009" fill="none" stroke-width=".43" r=".788"/>
 <path stroke="#00AEEF" fill="none" d="M13.7 0s0 .02 0 .03c0 .43.36.78.8.78.43 0 .78-.34.78-.78 0 0 0 0 0-.02M8.78 0s0 .02 0 .03c0 .43.35.78.8.78s.77-.34.77-.78c0 0 0 0 0-.02" stroke-width=".43"/>
 <circle stroke="#00AEEF" cy="1.45" cx="12.022" fill="none" stroke-width=".43" r=".788"/>
 <circle stroke="#00AEEF" cy="2.426" cx="16.034" fill="none" stroke-width=".43" r=".787"/>
 <circle stroke="#00AEEF" cy="3.851" cx="13.484" fill="none" stroke-width=".43" r=".788"/>
 <circle stroke="#00AEEF" cy="3.85" cx="10.503" fill="none" stroke-width=".43" r=".788"/>
 <circle stroke="#00AEEF" cy="6.25" cx="12.022" fill="none" stroke-width=".43" r=".788"/>
 <circle stroke="#00AEEF" cy="5.275" cx="16.034" fill="none" stroke-width=".43" r=".787"/>
 <path stroke="#00AEEF" fill="none" d="M21.74 0s0 .02 0 .03c0 .43.35.78.78.78s.8-.34.8-.78c0 0 0 0 0-.02M16.8 0s0 .02 0 .03c0 .43.36.78.8.78.43 0 .78-.34.78-.78 0 0 0 0 0-.02" stroke-width=".43"/>
 <circle stroke="#00AEEF" cy="1.45" cx="20.046" fill="none" stroke-width=".43" r=".788"/>
 <circle stroke="#00AEEF" cy="2.426" cx="24.059" fill="none" stroke-width=".43" r=".788"/>
 <circle stroke="#00AEEF" cy="3.851" cx="21.509" fill="none" stroke-width=".43" r=".788"/>
 <circle stroke="#00AEEF" cy="3.85" cx="18.528" fill="none" stroke-width=".43" r=".788"/>
 <circle stroke="#00AEEF" cy="6.25" cx="20.046" fill="none" stroke-width=".43" r=".788"/>
 <circle stroke="#00AEEF" cy="5.275" cx="24.059" fill="none" stroke-width=".43" r=".788"/>
 <path stroke="#00AEEF" fill="none" d="M29.76 0s0 .02 0 .03c0 .43.35.78.8.78s.77-.34.77-.78c0 0 0 0 0-.02M24.83 0s0 .02 0 .03c0 .43.35.78.8.78s.77-.34.77-.78c0 0 0 0 0-.02" stroke-width=".43"/>
 <circle stroke="#00AEEF" cy="1.45" cx="28.072" fill="none" stroke-width=".43" r=".788"/>
 <circle stroke="#00AEEF" cy="3.851" cx="29.534" fill="none" stroke-width=".43" r=".787"/>
 <circle stroke="#00AEEF" cy="3.85" cx="26.553" fill="none" stroke-width=".43" r=".788"/>
 <circle stroke="#00AEEF" cy="6.25" cx="28.072" fill="none" stroke-width=".43" r=".788"/>
 <circle stroke="#00AEEF" cy="5.275" cx="32.084" fill="none" stroke-width=".43" r=".788"/>
 <path stroke="#00AEEF" fill="none" d="M37.8 0s0 .02 0 .03c0 .43.34.78.77.78.44 0 .8-.34.8-.78 0 0 0 0 0-.02M32.85 0s0 .02 0 .03c0 .43.36.78.8.78s.78-.34.78-.78c0 0 0 0 0-.02" stroke-width=".43"/>
 <circle stroke="#00AEEF" cy="1.45" cx="36.097" fill="none" stroke-width=".43" r=".787"/>
 <circle stroke="#00AEEF" cy="2.426" cx="40.109" fill="none" stroke-width=".43" r=".788"/>
 <circle stroke="#00AEEF" cy="3.851" cx="37.559" fill="none" stroke-width=".43" r=".788"/>
 <circle stroke="#00AEEF" cy="3.85" cx="34.578" fill="none" stroke-width=".43" r=".788"/>
 <circle stroke="#00AEEF" cy="2.426" cx="32.122" fill="none" stroke-width=".43" r=".788"/>
 <circle stroke="#00AEEF" cy="6.25" cx="36.097" fill="none" stroke-width=".43" r=".787"/>
 <circle stroke="#00AEEF" cy="5.275" cx="40.109" fill="none" stroke-width=".43" r=".788"/>
 <path stroke="#00AEEF" fill="none" d="M45.8 0s0 .02 0 .03c0 .43.36.78.8.78s.78-.34.78-.78c0 0 0 0 0-.02M40.88 0s0 .02 0 .03c0 .43.35.78.78.78.44 0 .8-.34.8-.78 0 0 0 0 0-.02" stroke-width=".43"/>
 <circle stroke="#00AEEF" cy="1.45" cx="44.122" fill="none" stroke-width=".43" r=".788"/>
 <path stroke="#00AEEF" fill="none" d="M48.1 1.64c-.42.02-.75.36-.75.8 0 .4.33.75.75.77" stroke-width=".43"/>
 <circle stroke="#00AEEF" cy="3.851" cx="45.584" fill="none" stroke-width=".43" r=".788"/>
 <circle stroke="#00AEEF" cy="3.85" cx="42.603" fill="none" stroke-width=".43" r=".788"/>
 <circle stroke="#00AEEF" cy="6.25" cx="44.122" fill="none" stroke-width=".43" r=".788"/>
 <path stroke="#00AEEF" fill="none" d="M48.1 4.5c-.42 0-.75.35-.75.78s.33.76.75.78M42.45 47.72M40.88 47.72" stroke-width=".43"/>
</svg>
