<?xml version="1.0"?>
<!-- Converted with SVG Converter - Version 0.9.5 (Compiled Fri Feb 21 09:53:38 2020) - Copyright (C) 2011 Nokia -->
<svg xmlns="http://www.w3.org/2000/svg" baseProfile="tiny" width="48.097" height="47.721" xmlns:xlink="http://www.w3.org/1999/xlink">
 <defs>
  <path id="a" d="M0 0h48.1v47.72H0z"/>
 </defs>
 <circle cx="6.472" fill="none" stroke-width=".36" stroke="#000" cy="39.775" r=".787"/>
 <path fill="none" stroke-width=".36" stroke="#000" d="M5.7 47.72c0-.4.35-.74.77-.74s.77.33.8.74"/>
 <circle cx="1.54" fill="none" stroke-width=".36" stroke="#000" cy="39.775" r=".787"/>
 <path fill="none" stroke-width=".36" stroke="#000" d="M2.33 47.72s0-.02 0-.03c0-.45-.36-.8-.8-.8-.43 0-.78.35-.78.8 0 0 0 0 0 .02"/>
 <circle cx="3.997" fill="none" stroke-width=".36" stroke="#000" cy="41.2" r=".788"/>
 <circle cx="8.009" fill="none" stroke-width=".36" stroke="#000" cy="42.176" r=".788"/>
 <circle cx="5.459" fill="none" stroke-width=".36" stroke="#000" cy="43.6" r=".788"/>
 <circle cx="2.478" fill="none" stroke-width=".36" stroke="#000" cy="43.601" r=".788"/>
 <path fill="none" stroke-width=".36" stroke="#000" d="M0 42.96s0 0 .02 0c.44 0 .8-.35.8-.78 0-.44-.36-.8-.8-.8 0 0 0 0-.02 0M0 45.8s0 0 .02 0c.44 0 .8-.34.8-.77s-.36-.8-.8-.8c0 0 0 0-.02 0"/>
 <circle cx="3.997" fill="none" stroke-width=".36" stroke="#000" cy="46" r=".788"/>
 <circle cx="8.009" fill="none" stroke-width=".36" stroke="#000" cy="45.025" r=".788"/>
 <circle cx="14.497" fill="none" stroke-width=".36" stroke="#000" cy="39.775" r=".788"/>
 <path fill="none" stroke-width=".36" stroke="#000" d="M13.7 47.72c.03-.4.38-.74.8-.74.42 0 .76.33.78.74"/>
 <circle cx="9.565" fill="none" stroke-width=".36" stroke="#000" cy="39.775" r=".787"/>
 <path fill="none" stroke-width=".36" stroke="#000" d="M10.35 47.72s0-.02 0-.03c0-.45-.35-.8-.78-.8s-.8.35-.8.8c0 0 0 0 0 .02"/>
 <circle cx="12.022" fill="none" stroke-width=".36" stroke="#000" cy="41.2" r=".788"/>
 <circle cx="16.034" fill="none" stroke-width=".36" stroke="#000" cy="42.176" r=".787"/>
 <circle cx="13.484" fill="none" stroke-width=".36" stroke="#000" cy="43.6" r=".788"/>
 <circle cx="10.503" fill="none" stroke-width=".36" stroke="#000" cy="43.601" r=".787"/>
 <circle cx="12.022" fill="none" stroke-width=".36" stroke="#000" cy="46" r=".788"/>
 <circle cx="16.034" fill="none" stroke-width=".36" stroke="#000" cy="45.025" r=".787"/>
 <circle cx="22.522" fill="none" stroke-width=".36" stroke="#000" cy="39.775" r=".788"/>
 <path fill="none" stroke-width=".36" stroke="#000" d="M21.74 47.72c.02-.4.36-.74.78-.74s.77.33.8.74"/>
 <circle cx="17.59" fill="none" stroke-width=".36" stroke="#000" cy="39.775" r=".788"/>
 <path fill="none" stroke-width=".36" stroke="#000" d="M18.38 47.72s0-.02 0-.03c0-.45-.35-.8-.8-.8-.42 0-.78.35-.78.8 0 0 0 0 0 .02"/>
 <circle cx="20.046" fill="none" stroke-width=".36" stroke="#000" cy="41.2" r=".788"/>
 <circle cx="24.059" fill="none" stroke-width=".36" stroke="#000" cy="42.176" r=".788"/>
 <circle cx="21.509" fill="none" stroke-width=".36" stroke="#000" cy="43.6" r=".788"/>
 <circle cx="18.528" fill="none" stroke-width=".36" stroke="#000" cy="43.601" r=".788"/>
 <circle cx="20.046" fill="none" stroke-width=".36" stroke="#000" cy="46" r=".788"/>
 <circle cx="24.059" fill="none" stroke-width=".36" stroke="#000" cy="45.025" r=".788"/>
 <circle cx="30.546" fill="none" stroke-width=".36" stroke="#000" cy="39.775" r=".788"/>
 <path fill="none" stroke-width=".36" stroke="#000" d="M29.76 47.72c.02-.4.37-.74.8-.74s.75.33.77.74"/>
 <circle cx="25.616" fill="none" stroke-width=".36" stroke="#000" cy="39.775" r=".788"/>
 <path fill="none" stroke-width=".36" stroke="#000" d="M26.4 47.72s0-.02 0-.03c0-.45-.35-.8-.78-.8s-.8.35-.8.8c0 0 0 0 0 .02"/>
 <circle cx="28.072" fill="none" stroke-width=".36" stroke="#000" cy="41.2" r=".788"/>
 <circle cx="32.084" fill="none" stroke-width=".36" stroke="#000" cy="42.176" r=".788"/>
 <circle cx="29.534" fill="none" stroke-width=".36" stroke="#000" cy="43.6" r=".788"/>
 <circle cx="26.553" fill="none" stroke-width=".36" stroke="#000" cy="43.601" r=".788"/>
 <circle cx="28.072" fill="none" stroke-width=".36" stroke="#000" cy="46" r=".788"/>
 <circle cx="32.084" fill="none" stroke-width=".36" stroke="#000" cy="45.025" r=".788"/>
 <circle cx="38.572" fill="none" stroke-width=".36" stroke="#000" cy="39.775" r=".788"/>
 <path fill="none" stroke-width=".36" stroke="#000" d="M37.8 47.72c0-.4.35-.74.77-.74.42 0 .76.33.8.74"/>
 <circle cx="33.64" fill="none" stroke-width=".36" stroke="#000" cy="39.775" r=".788"/>
 <path fill="none" stroke-width=".36" stroke="#000" d="M34.43 47.72s0-.02 0-.03c0-.45-.35-.8-.8-.8s-.78.35-.78.8c0 0 0 0 0 .02"/>
 <circle cx="36.097" fill="none" stroke-width=".36" stroke="#000" cy="41.2" r=".787"/>
 <circle cx="40.109" fill="none" stroke-width=".36" stroke="#000" cy="42.176" r=".788"/>
 <circle cx="37.56" fill="none" stroke-width=".36" stroke="#000" cy="43.6" r=".788"/>
 <circle cx="34.578" fill="none" stroke-width=".36" stroke="#000" cy="43.601" r=".788"/>
 <circle cx="36.097" fill="none" stroke-width=".36" stroke="#000" cy="46" r=".787"/>
 <circle cx="40.109" fill="none" stroke-width=".36" stroke="#000" cy="45.025" r=".788"/>
 <circle cx="46.597" fill="none" stroke-width=".36" stroke="#000" cy="39.775" r=".787"/>
 <path fill="none" stroke-width=".36" stroke="#000" d="M45.8 47.72c.03-.4.38-.74.8-.74s.76.33.78.74"/>
 <circle cx="41.666" fill="none" stroke-width=".36" stroke="#000" cy="39.775" r=".788"/>
 <path fill="none" stroke-width=".36" stroke="#000" d="M42.45 47.72s0-.02 0-.03c0-.45-.35-.8-.78-.8-.44 0-.8.35-.8.8 0 0 0 0 0 .02"/>
 <circle cx="44.122" fill="none" stroke-width=".36" stroke="#000" cy="41.2" r=".788"/>
 <path fill="none" stroke-width=".36" stroke="#000" d="M48.1 41.4c-.42 0-.75.35-.75.78 0 .42.33.76.75.78"/>
 <circle cx="45.584" fill="none" stroke-width=".36" stroke="#000" cy="43.6" r=".788"/>
 <circle cx="42.603" fill="none" stroke-width=".36" stroke="#000" cy="43.601" r=".788"/>
 <circle cx="44.122" fill="none" stroke-width=".36" stroke="#000" cy="46" r=".788"/>
 <path fill="none" stroke-width=".36" stroke="#000" d="M48.1 44.24c-.42.02-.75.36-.75.79s.33.76.75.78"/>
 <circle cx="6.472" fill="none" stroke-width=".36" stroke="#000" cy="31.826" r=".788"/>
 <circle cx="1.541" fill="none" stroke-width=".36" stroke="#000" cy="31.825" r=".788"/>
 <circle cx="3.997" fill="none" stroke-width=".36" stroke="#000" cy="33.25" r=".788"/>
 <circle cx="8.009" fill="none" stroke-width=".36" stroke="#000" cy="34.226" r=".788"/>
 <circle cx="5.459" fill="none" stroke-width=".36" stroke="#000" cy="35.65" r=".787"/>
 <circle cx="2.478" fill="none" stroke-width=".36" stroke="#000" cy="35.65" r=".788"/>
 <path fill="none" stroke-width=".36" stroke="#000" d="M0 35s0 0 .02 0c.44 0 .8-.34.8-.77s-.36-.8-.8-.8c0 0 0 0-.02 0M0 37.86s0 0 .02 0c.44 0 .8-.35.8-.78s-.36-.8-.8-.8c0 0 0 0-.02 0"/>
 <circle cx="3.997" fill="none" stroke-width=".36" stroke="#000" cy="38.051" r=".788"/>
 <circle cx="8.009" fill="none" stroke-width=".36" stroke="#000" cy="37.075" r=".788"/>
 <circle cx="14.497" fill="none" stroke-width=".36" stroke="#000" cy="31.826" r=".788"/>
 <circle cx="9.565" fill="none" stroke-width=".36" stroke="#000" cy="31.826" r=".788"/>
 <circle cx="12.022" fill="none" stroke-width=".36" stroke="#000" cy="33.25" r=".788"/>
 <circle cx="16.034" fill="none" stroke-width=".36" stroke="#000" cy="34.226" r=".787"/>
 <circle cx="13.484" fill="none" stroke-width=".36" stroke="#000" cy="35.65" r=".787"/>
 <circle cx="10.503" fill="none" stroke-width=".36" stroke="#000" cy="35.65" r=".787"/>
 <circle cx="12.022" fill="none" stroke-width=".36" stroke="#000" cy="38.051" r=".788"/>
 <circle cx="16.034" fill="none" stroke-width=".36" stroke="#000" cy="37.075" r=".787"/>
 <circle cx="22.521" fill="none" stroke-width=".36" stroke="#000" cy="31.826" r=".788"/>
 <circle cx="17.591" fill="none" stroke-width=".36" stroke="#000" cy="31.826" r=".788"/>
 <circle cx="20.046" fill="none" stroke-width=".36" stroke="#000" cy="33.25" r=".788"/>
 <circle cx="24.059" fill="none" stroke-width=".36" stroke="#000" cy="34.226" r=".788"/>
 <circle cx="21.509" fill="none" stroke-width=".36" stroke="#000" cy="35.65" r=".787"/>
 <circle cx="18.528" fill="none" stroke-width=".36" stroke="#000" cy="35.65" r=".788"/>
 <circle cx="20.046" fill="none" stroke-width=".36" stroke="#000" cy="38.051" r=".788"/>
 <circle cx="24.059" fill="none" stroke-width=".36" stroke="#000" cy="37.075" r=".788"/>
 <circle cx="30.547" fill="none" stroke-width=".36" stroke="#000" cy="31.826" r=".788"/>
 <circle cx="25.615" fill="none" stroke-width=".36" stroke="#000" cy="31.826" r=".788"/>
 <circle cx="28.072" fill="none" stroke-width=".36" stroke="#000" cy="33.25" r=".788"/>
 <circle cx="32.084" fill="none" stroke-width=".36" stroke="#000" cy="34.226" r=".788"/>
 <circle cx="29.534" fill="none" stroke-width=".36" stroke="#000" cy="35.65" r=".787"/>
 <circle cx="26.553" fill="none" stroke-width=".36" stroke="#000" cy="35.65" r=".788"/>
 <circle cx="28.072" fill="none" stroke-width=".36" stroke="#000" cy="38.051" r=".788"/>
 <circle cx="32.084" fill="none" stroke-width=".36" stroke="#000" cy="37.075" r=".788"/>
 <circle cx="38.571" fill="none" stroke-width=".36" stroke="#000" cy="31.826" r=".788"/>
 <circle cx="33.641" fill="none" stroke-width=".36" stroke="#000" cy="31.826" r=".788"/>
 <circle cx="36.097" fill="none" stroke-width=".36" stroke="#000" cy="33.25" r=".787"/>
 <circle cx="40.109" fill="none" stroke-width=".36" stroke="#000" cy="34.226" r=".788"/>
 <circle cx="37.56" fill="none" stroke-width=".36" stroke="#000" cy="35.65" r=".787"/>
 <circle cx="34.578" fill="none" stroke-width=".36" stroke="#000" cy="35.65" r=".788"/>
 <circle cx="36.097" fill="none" stroke-width=".36" stroke="#000" cy="38.051" r=".787"/>
 <circle cx="40.109" fill="none" stroke-width=".36" stroke="#000" cy="37.075" r=".788"/>
 <circle cx="46.597" fill="none" stroke-width=".36" stroke="#000" cy="31.826" r=".788"/>
 <circle cx="41.665" fill="none" stroke-width=".36" stroke="#000" cy="31.826" r=".788"/>
 <circle cx="44.122" fill="none" stroke-width=".36" stroke="#000" cy="33.25" r=".788"/>
 <path fill="none" stroke-width=".36" stroke="#000" d="M48.1 33.44c-.42.02-.75.36-.75.8s.33.75.75.77"/>
 <circle cx="45.584" fill="none" stroke-width=".36" stroke="#000" cy="35.65" r=".787"/>
 <circle cx="42.603" fill="none" stroke-width=".36" stroke="#000" cy="35.65" r=".788"/>
 <circle cx="44.122" fill="none" stroke-width=".36" stroke="#000" cy="38.051" r=".788"/>
 <path fill="none" stroke-width=".36" stroke="#000" d="M48.1 36.3c-.42 0-.75.35-.75.78s.33.76.75.78"/>
 <circle cx="6.472" fill="none" stroke-width=".36" stroke="#000" cy="23.875" r=".788"/>
 <circle cx="1.541" fill="none" stroke-width=".36" stroke="#000" cy="23.875" r=".788"/>
 <circle cx="3.997" fill="none" stroke-width=".36" stroke="#000" cy="25.3" r=".788"/>
 <circle cx="8.009" fill="none" stroke-width=".36" stroke="#000" cy="26.275" r=".788"/>
 <circle cx="5.459" fill="none" stroke-width=".36" stroke="#000" cy="27.701" r=".788"/>
 <circle cx="2.478" fill="none" stroke-width=".36" stroke="#000" cy="27.701" r=".788"/>
 <path fill="none" stroke-width=".36" stroke="#000" d="M0 27.06s0 0 .02 0c.44 0 .8-.35.8-.78s-.36-.8-.8-.8c0 0 0 0-.02 0M0 29.9s0 0 .02 0c.44 0 .8-.34.8-.77 0-.44-.36-.8-.8-.8 0 0 0 0-.02 0"/>
 <circle cx="3.997" fill="none" stroke-width=".36" stroke="#000" cy="30.101" r=".788"/>
 <circle cx="8.009" fill="none" stroke-width=".36" stroke="#000" cy="29.125" r=".788"/>
 <circle cx="14.497" fill="none" stroke-width=".36" stroke="#000" cy="23.875" r=".788"/>
 <circle cx="9.565" fill="none" stroke-width=".36" stroke="#000" cy="23.875" r=".788"/>
 <circle cx="12.021" fill="none" stroke-width=".36" stroke="#000" cy="25.3" r=".788"/>
 <circle cx="16.034" fill="none" stroke-width=".36" stroke="#000" cy="26.275" r=".787"/>
 <circle cx="13.484" fill="none" stroke-width=".36" stroke="#000" cy="27.701" r=".788"/>
 <circle cx="10.503" fill="none" stroke-width=".36" stroke="#000" cy="27.7" r=".787"/>
 <circle cx="12.022" fill="none" stroke-width=".36" stroke="#000" cy="30.101" r=".788"/>
 <circle cx="16.034" fill="none" stroke-width=".36" stroke="#000" cy="29.125" r=".787"/>
 <circle cx="22.521" fill="none" stroke-width=".36" stroke="#000" cy="23.875" r=".788"/>
 <circle cx="17.591" fill="none" stroke-width=".36" stroke="#000" cy="23.875" r=".788"/>
 <circle cx="20.047" fill="none" stroke-width=".36" stroke="#000" cy="25.3" r=".788"/>
 <circle cx="24.059" fill="none" stroke-width=".36" stroke="#000" cy="26.275" r=".788"/>
 <circle cx="21.509" fill="none" stroke-width=".36" stroke="#000" cy="27.701" r=".788"/>
 <circle cx="18.528" fill="none" stroke-width=".36" stroke="#000" cy="27.7" r=".788"/>
 <circle cx="20.046" fill="none" stroke-width=".36" stroke="#000" cy="30.101" r=".788"/>
 <circle cx="24.059" fill="none" stroke-width=".36" stroke="#000" cy="29.125" r=".788"/>
 <circle cx="30.547" fill="none" stroke-width=".36" stroke="#000" cy="23.875" r=".788"/>
 <circle cx="25.615" fill="none" stroke-width=".36" stroke="#000" cy="23.875" r=".788"/>
 <circle cx="28.071" fill="none" stroke-width=".36" stroke="#000" cy="25.3" r=".788"/>
 <circle cx="32.084" fill="none" stroke-width=".36" stroke="#000" cy="26.275" r=".788"/>
 <circle cx="29.534" fill="none" stroke-width=".36" stroke="#000" cy="27.701" r=".788"/>
 <circle cx="26.553" fill="none" stroke-width=".36" stroke="#000" cy="27.7" r=".788"/>
 <circle cx="28.072" fill="none" stroke-width=".36" stroke="#000" cy="30.101" r=".788"/>
 <circle cx="32.084" fill="none" stroke-width=".36" stroke="#000" cy="29.125" r=".788"/>
 <circle cx="38.571" fill="none" stroke-width=".36" stroke="#000" cy="23.875" r=".788"/>
 <circle cx="33.641" fill="none" stroke-width=".36" stroke="#000" cy="23.875" r=".788"/>
 <circle cx="36.097" fill="none" stroke-width=".36" stroke="#000" cy="25.3" r=".788"/>
 <circle cx="40.109" fill="none" stroke-width=".36" stroke="#000" cy="26.275" r=".788"/>
 <circle cx="37.56" fill="none" stroke-width=".36" stroke="#000" cy="27.701" r=".788"/>
 <circle cx="34.578" fill="none" stroke-width=".36" stroke="#000" cy="27.7" r=".788"/>
 <circle cx="36.097" fill="none" stroke-width=".36" stroke="#000" cy="30.101" r=".787"/>
 <circle cx="40.109" fill="none" stroke-width=".36" stroke="#000" cy="29.125" r=".788"/>
 <circle cx="46.597" fill="none" stroke-width=".36" stroke="#000" cy="23.875" r=".788"/>
 <circle cx="41.665" fill="none" stroke-width=".36" stroke="#000" cy="23.875" r=".788"/>
 <circle cx="44.122" fill="none" stroke-width=".36" stroke="#000" cy="25.3" r=".788"/>
 <path fill="none" stroke-width=".36" stroke="#000" d="M48.1 25.5c-.42 0-.75.35-.75.77s.33.77.75.8"/>
 <circle cx="45.584" fill="none" stroke-width=".36" stroke="#000" cy="27.701" r=".788"/>
 <circle cx="42.603" fill="none" stroke-width=".36" stroke="#000" cy="27.7" r=".788"/>
 <circle cx="44.122" fill="none" stroke-width=".36" stroke="#000" cy="30.101" r=".788"/>
 <path fill="none" stroke-width=".36" stroke="#000" d="M48.1 28.34c-.42.02-.75.36-.75.79 0 .42.33.76.75.78"/>
 <circle cx="6.472" fill="none" stroke-width=".36" stroke="#000" cy="15.925" r=".788"/>
 <circle cx="1.541" fill="none" stroke-width=".36" stroke="#000" cy="15.926" r=".788"/>
 <circle cx="3.997" fill="none" stroke-width=".36" stroke="#000" cy="17.351" r=".788"/>
 <circle cx="8.009" fill="none" stroke-width=".36" stroke="#000" cy="18.325" r=".788"/>
 <circle cx="5.459" fill="none" stroke-width=".36" stroke="#000" cy="19.75" r=".788"/>
 <circle cx="2.478" fill="none" stroke-width=".36" stroke="#000" cy="19.75" r=".788"/>
 <path fill="none" stroke-width=".36" stroke="#000" d="M0 19.1s0 0 .02 0c.44 0 .8-.34.8-.78s-.36-.78-.8-.78c0 0 0 0-.02 0M0 21.96s0 0 .02 0c.44 0 .8-.35.8-.78 0-.44-.36-.8-.8-.8 0 0 0 0-.02 0"/>
 <circle cx="3.997" fill="none" stroke-width=".36" stroke="#000" cy="22.15" r=".788"/>
 <circle cx="8.009" fill="none" stroke-width=".36" stroke="#000" cy="21.176" r=".788"/>
 <circle cx="14.497" fill="none" stroke-width=".36" stroke="#000" cy="15.925" r=".788"/>
 <circle cx="9.565" fill="none" stroke-width=".36" stroke="#000" cy="15.925" r=".788"/>
 <circle cx="12.022" fill="none" stroke-width=".36" stroke="#000" cy="17.351" r=".788"/>
 <circle cx="16.034" fill="none" stroke-width=".36" stroke="#000" cy="18.325" r=".787"/>
 <circle cx="13.484" fill="none" stroke-width=".36" stroke="#000" cy="19.75" r=".788"/>
 <circle cx="10.503" fill="none" stroke-width=".36" stroke="#000" cy="19.75" r=".788"/>
 <circle cx="12.022" fill="none" stroke-width=".36" stroke="#000" cy="22.15" r=".788"/>
 <circle cx="16.034" fill="none" stroke-width=".36" stroke="#000" cy="21.176" r=".787"/>
 <circle cx="22.521" fill="none" stroke-width=".36" stroke="#000" cy="15.925" r=".788"/>
 <circle cx="17.591" fill="none" stroke-width=".36" stroke="#000" cy="15.925" r=".788"/>
 <circle cx="20.046" fill="none" stroke-width=".36" stroke="#000" cy="17.351" r=".788"/>
 <circle cx="24.059" fill="none" stroke-width=".36" stroke="#000" cy="18.325" r=".788"/>
 <circle cx="21.509" fill="none" stroke-width=".36" stroke="#000" cy="19.75" r=".788"/>
 <circle cx="18.528" fill="none" stroke-width=".36" stroke="#000" cy="19.75" r=".788"/>
 <circle cx="20.046" fill="none" stroke-width=".36" stroke="#000" cy="22.15" r=".788"/>
 <circle cx="24.059" fill="none" stroke-width=".36" stroke="#000" cy="21.176" r=".788"/>
 <circle cx="30.547" fill="none" stroke-width=".36" stroke="#000" cy="15.925" r=".788"/>
 <circle cx="25.615" fill="none" stroke-width=".36" stroke="#000" cy="15.925" r=".788"/>
 <circle cx="28.072" fill="none" stroke-width=".36" stroke="#000" cy="17.351" r=".788"/>
 <circle cx="32.084" fill="none" stroke-width=".36" stroke="#000" cy="18.325" r=".788"/>
 <circle cx="29.534" fill="none" stroke-width=".36" stroke="#000" cy="19.75" r=".788"/>
 <circle cx="26.553" fill="none" stroke-width=".36" stroke="#000" cy="19.75" r=".788"/>
 <circle cx="28.072" fill="none" stroke-width=".36" stroke="#000" cy="22.15" r=".788"/>
 <circle cx="32.084" fill="none" stroke-width=".36" stroke="#000" cy="21.176" r=".788"/>
 <circle cx="38.571" fill="none" stroke-width=".36" stroke="#000" cy="15.925" r=".788"/>
 <circle cx="33.641" fill="none" stroke-width=".36" stroke="#000" cy="15.925" r=".788"/>
 <circle cx="36.097" fill="none" stroke-width=".36" stroke="#000" cy="17.351" r=".787"/>
 <circle cx="40.109" fill="none" stroke-width=".36" stroke="#000" cy="18.325" r=".788"/>
 <circle cx="37.56" fill="none" stroke-width=".36" stroke="#000" cy="19.75" r=".788"/>
 <circle cx="34.578" fill="none" stroke-width=".36" stroke="#000" cy="19.75" r=".788"/>
 <circle cx="36.097" fill="none" stroke-width=".36" stroke="#000" cy="22.15" r=".787"/>
 <circle cx="40.109" fill="none" stroke-width=".36" stroke="#000" cy="21.176" r=".788"/>
 <circle cx="46.597" fill="none" stroke-width=".36" stroke="#000" cy="15.926" r=".787"/>
 <circle cx="41.665" fill="none" stroke-width=".36" stroke="#000" cy="15.925" r=".788"/>
 <circle cx="44.122" fill="none" stroke-width=".36" stroke="#000" cy="17.351" r=".788"/>
 <path fill="none" stroke-width=".36" stroke="#000" d="M48.1 17.54c-.42.02-.75.36-.75.79s.33.76.75.78"/>
 <circle cx="45.584" fill="none" stroke-width=".36" stroke="#000" cy="19.75" r=".788"/>
 <circle cx="42.603" fill="none" stroke-width=".36" stroke="#000" cy="19.75" r=".788"/>
 <circle cx="44.122" fill="none" stroke-width=".36" stroke="#000" cy="22.15" r=".788"/>
 <path fill="none" stroke-width=".36" stroke="#000" d="M48.1 20.4c-.42 0-.75.35-.75.78 0 .42.33.76.75.78"/>
 <circle cx="6.472" fill="none" stroke-width=".36" stroke="#000" cy="7.975" r=".788"/>
 <circle cx="1.54" fill="none" stroke-width=".36" stroke="#000" cy="7.975" r=".788"/>
 <circle cx="3.997" fill="none" stroke-width=".36" stroke="#000" cy="9.4" r=".788"/>
 <circle cx="8.009" fill="none" stroke-width=".36" stroke="#000" cy="10.375" r=".788"/>
 <circle cx="5.459" fill="none" stroke-width=".36" stroke="#000" cy="11.801" r=".788"/>
 <circle cx="2.478" fill="none" stroke-width=".36" stroke="#000" cy="11.8" r=".788"/>
 <path fill="none" stroke-width=".36" stroke="#000" d="M0 11.16s0 0 .02 0c.44 0 .8-.35.8-.78 0-.44-.36-.8-.8-.8 0 0 0 0-.02 0M0 14s0 0 .02 0c.44 0 .8-.34.8-.77s-.36-.8-.8-.8c0 0 0 0-.02 0"/>
 <circle cx="3.997" fill="none" stroke-width=".36" stroke="#000" cy="14.2" r=".788"/>
 <circle cx="8.009" fill="none" stroke-width=".36" stroke="#000" cy="13.226" r=".788"/>
 <circle cx="14.497" fill="none" stroke-width=".36" stroke="#000" cy="7.975" r=".788"/>
 <circle cx="9.565" fill="none" stroke-width=".36" stroke="#000" cy="7.975" r=".788"/>
 <circle cx="12.022" fill="none" stroke-width=".36" stroke="#000" cy="9.4" r=".788"/>
 <circle cx="16.034" fill="none" stroke-width=".36" stroke="#000" cy="10.375" r=".787"/>
 <circle cx="13.484" fill="none" stroke-width=".36" stroke="#000" cy="11.801" r=".788"/>
 <circle cx="10.503" fill="none" stroke-width=".36" stroke="#000" cy="11.8" r=".788"/>
 <circle cx="12.022" fill="none" stroke-width=".36" stroke="#000" cy="14.2" r=".788"/>
 <circle cx="16.034" fill="none" stroke-width=".36" stroke="#000" cy="13.226" r=".787"/>
 <circle cx="22.521" fill="none" stroke-width=".36" stroke="#000" cy="7.975" r=".788"/>
 <circle cx="17.591" fill="none" stroke-width=".36" stroke="#000" cy="7.975" r=".788"/>
 <circle cx="20.046" fill="none" stroke-width=".36" stroke="#000" cy="9.4" r=".788"/>
 <circle cx="24.059" fill="none" stroke-width=".36" stroke="#000" cy="10.375" r=".788"/>
 <circle cx="21.509" fill="none" stroke-width=".36" stroke="#000" cy="11.801" r=".788"/>
 <circle cx="18.528" fill="none" stroke-width=".36" stroke="#000" cy="11.8" r=".788"/>
 <circle cx="20.046" fill="none" stroke-width=".36" stroke="#000" cy="14.2" r=".788"/>
 <circle cx="24.059" fill="none" stroke-width=".36" stroke="#000" cy="13.226" r=".788"/>
 <circle cx="30.547" fill="none" stroke-width=".36" stroke="#000" cy="7.975" r=".788"/>
 <circle cx="25.615" fill="none" stroke-width=".36" stroke="#000" cy="7.975" r=".788"/>
 <circle cx="28.072" fill="none" stroke-width=".36" stroke="#000" cy="9.4" r=".788"/>
 <circle cx="32.084" fill="none" stroke-width=".36" stroke="#000" cy="10.375" r=".788"/>
 <circle cx="29.534" fill="none" stroke-width=".36" stroke="#000" cy="11.801" r=".787"/>
 <circle cx="26.553" fill="none" stroke-width=".36" stroke="#000" cy="11.8" r=".788"/>
 <circle cx="28.072" fill="none" stroke-width=".36" stroke="#000" cy="14.2" r=".788"/>
 <circle cx="32.084" fill="none" stroke-width=".36" stroke="#000" cy="13.226" r=".788"/>
 <circle cx="38.571" fill="none" stroke-width=".36" stroke="#000" cy="7.975" r=".788"/>
 <circle cx="33.641" fill="none" stroke-width=".36" stroke="#000" cy="7.975" r=".788"/>
 <circle cx="36.097" fill="none" stroke-width=".36" stroke="#000" cy="9.4" r=".787"/>
 <circle cx="40.109" fill="none" stroke-width=".36" stroke="#000" cy="10.375" r=".788"/>
 <circle cx="37.559" fill="none" stroke-width=".36" stroke="#000" cy="11.801" r=".788"/>
 <circle cx="34.578" fill="none" stroke-width=".36" stroke="#000" cy="11.8" r=".788"/>
 <circle cx="36.097" fill="none" stroke-width=".36" stroke="#000" cy="14.2" r=".787"/>
 <circle cx="40.109" fill="none" stroke-width=".36" stroke="#000" cy="13.226" r=".788"/>
 <circle cx="46.597" fill="none" stroke-width=".36" stroke="#000" cy="7.975" r=".788"/>
 <circle cx="41.665" fill="none" stroke-width=".36" stroke="#000" cy="7.975" r=".788"/>
 <circle cx="44.122" fill="none" stroke-width=".36" stroke="#000" cy="9.4" r=".788"/>
 <path fill="none" stroke-width=".36" stroke="#000" d="M48.1 9.6c-.42 0-.75.35-.75.78 0 .42.33.76.75.78"/>
 <circle cx="45.584" fill="none" stroke-width=".36" stroke="#000" cy="11.801" r=".788"/>
 <circle cx="42.603" fill="none" stroke-width=".36" stroke="#000" cy="11.8" r=".788"/>
 <circle cx="44.122" fill="none" stroke-width=".36" stroke="#000" cy="14.2" r=".788"/>
 <path fill="none" stroke-width=".36" stroke="#000" d="M48.1 12.44c-.42.02-.75.36-.75.8s.33.75.75.77M5.7 0s-.02.02-.02.03c0 .43.36.78.8.78s.78-.34.78-.78c0 0 0 0 0-.02M.75 0s0 .02 0 .03c0 .43.36.78.8.78.43 0 .78-.34.78-.78 0 0 0 0 0-.02"/>
 <circle cx="3.997" fill="none" stroke-width=".36" stroke="#000" cy="1.45" r=".788"/>
 <circle cx="8.009" fill="none" stroke-width=".36" stroke="#000" cy="2.426" r=".788"/>
 <circle cx="5.459" fill="none" stroke-width=".36" stroke="#000" cy="3.851" r=".788"/>
 <circle cx="2.478" fill="none" stroke-width=".36" stroke="#000" cy="3.85" r=".788"/>
 <path fill="none" stroke-width=".36" stroke="#000" d="M0 3.2s0 0 .02 0c.44 0 .8-.34.8-.77 0-.44-.36-.8-.8-.8 0 0 0 0-.02 0M0 6.06s0 0 .02 0c.44 0 .8-.35.8-.78s-.36-.8-.8-.8c0 0 0 0-.02 0"/>
 <circle cx="3.997" fill="none" stroke-width=".36" stroke="#000" cy="6.25" r=".788"/>
 <circle cx="8.009" fill="none" stroke-width=".36" stroke="#000" cy="5.275" r=".788"/>
 <path fill="none" stroke-width=".36" stroke="#000" d="M13.7 0s0 .02 0 .03c0 .43.36.78.8.78.43 0 .78-.34.78-.78 0 0 0 0 0-.02M8.78 0s0 .02 0 .03c0 .43.35.78.8.78s.77-.34.77-.78c0 0 0 0 0-.02"/>
 <circle cx="12.022" fill="none" stroke-width=".36" stroke="#000" cy="1.45" r=".788"/>
 <circle cx="16.034" fill="none" stroke-width=".36" stroke="#000" cy="2.426" r=".787"/>
 <circle cx="13.484" fill="none" stroke-width=".36" stroke="#000" cy="3.851" r=".788"/>
 <circle cx="10.503" fill="none" stroke-width=".36" stroke="#000" cy="3.85" r=".788"/>
 <circle cx="12.022" fill="none" stroke-width=".36" stroke="#000" cy="6.25" r=".788"/>
 <circle cx="16.034" fill="none" stroke-width=".36" stroke="#000" cy="5.275" r=".787"/>
 <path fill="none" stroke-width=".36" stroke="#000" d="M21.74 0s0 .02 0 .03c0 .43.35.78.78.78s.8-.34.8-.78c0 0 0 0 0-.02M16.8 0s0 .02 0 .03c0 .43.36.78.8.78.43 0 .78-.34.78-.78 0 0 0 0 0-.02"/>
 <circle cx="20.046" fill="none" stroke-width=".36" stroke="#000" cy="1.45" r=".788"/>
 <circle cx="24.059" fill="none" stroke-width=".36" stroke="#000" cy="2.426" r=".788"/>
 <circle cx="21.509" fill="none" stroke-width=".36" stroke="#000" cy="3.851" r=".788"/>
 <circle cx="18.528" fill="none" stroke-width=".36" stroke="#000" cy="3.85" r=".788"/>
 <circle cx="20.046" fill="none" stroke-width=".36" stroke="#000" cy="6.25" r=".788"/>
 <circle cx="24.059" fill="none" stroke-width=".36" stroke="#000" cy="5.275" r=".788"/>
 <path fill="none" stroke-width=".36" stroke="#000" d="M29.76 0s0 .02 0 .03c0 .43.35.78.8.78s.77-.34.77-.78c0 0 0 0 0-.02M24.83 0s0 .02 0 .03c0 .43.35.78.8.78s.77-.34.77-.78c0 0 0 0 0-.02"/>
 <circle cx="28.072" fill="none" stroke-width=".36" stroke="#000" cy="1.45" r=".788"/>
 <circle cx="29.534" fill="none" stroke-width=".36" stroke="#000" cy="3.851" r=".787"/>
 <circle cx="26.553" fill="none" stroke-width=".36" stroke="#000" cy="3.85" r=".788"/>
 <circle cx="28.072" fill="none" stroke-width=".36" stroke="#000" cy="6.25" r=".788"/>
 <circle cx="32.084" fill="none" stroke-width=".36" stroke="#000" cy="5.275" r=".788"/>
 <path fill="none" stroke-width=".36" stroke="#000" d="M37.8 0s0 .02 0 .03c0 .43.34.78.77.78.44 0 .8-.34.8-.78 0 0 0 0 0-.02M32.85 0s0 .02 0 .03c0 .43.36.78.8.78s.78-.34.78-.78c0 0 0 0 0-.02"/>
 <circle cx="36.097" fill="none" stroke-width=".36" stroke="#000" cy="1.45" r=".787"/>
 <circle cx="40.109" fill="none" stroke-width=".36" stroke="#000" cy="2.426" r=".788"/>
 <circle cx="37.559" fill="none" stroke-width=".36" stroke="#000" cy="3.851" r=".788"/>
 <circle cx="34.578" fill="none" stroke-width=".36" stroke="#000" cy="3.85" r=".788"/>
 <circle cx="32.122" fill="none" stroke-width=".36" stroke="#000" cy="2.426" r=".788"/>
 <circle cx="36.097" fill="none" stroke-width=".36" stroke="#000" cy="6.25" r=".787"/>
 <circle cx="40.109" fill="none" stroke-width=".36" stroke="#000" cy="5.275" r=".788"/>
 <path fill="none" stroke-width=".36" stroke="#000" d="M45.8 0s0 .02 0 .03c0 .43.36.78.8.78s.78-.34.78-.78c0 0 0 0 0-.02M40.88 0s0 .02 0 .03c0 .43.35.78.78.78.44 0 .8-.34.8-.78 0 0 0 0 0-.02"/>
 <circle cx="44.122" fill="none" stroke-width=".36" stroke="#000" cy="1.45" r=".788"/>
 <path fill="none" stroke-width=".36" stroke="#000" d="M48.1 1.64c-.42.02-.75.36-.75.8 0 .4.33.75.75.77"/>
 <circle cx="45.584" fill="none" stroke-width=".36" stroke="#000" cy="3.851" r=".788"/>
 <circle cx="42.603" fill="none" stroke-width=".36" stroke="#000" cy="3.85" r=".788"/>
 <circle cx="44.122" fill="none" stroke-width=".36" stroke="#000" cy="6.25" r=".788"/>
 <path fill="none" stroke-width=".36" stroke="#000" d="M48.1 4.5c-.42 0-.75.35-.75.78s.33.76.75.78M42.45 47.72M40.88 47.72"/>
</svg>
