<?xml version="1.0"?>
<!-- Converted with SVG Converter - Version 0.9.6 (Compiled Thu Aug 31 10:01:05 2017) - Copyright (C) 2011 Nokia -->
<svg xmlns="http://www.w3.org/2000/svg" width="48.097" xmlns:xlink="http://www.w3.org/1999/xlink" height="47.721" baseProfile="tiny">
 <defs>
  <path id="a" d="M0 0h48.1v47.72H0z"/>
 </defs>
 <path d="M0 0h48.1v47.72H0z"/>
 <circle cy="39.775" fill="none" stroke-width=".43" cx="6.472" stroke="#fff" r=".787"/>
 <path fill="none" stroke-width=".43" d="M5.7 47.72c0-.4.35-.74.77-.74s.77.33.8.74" stroke="#fff"/>
 <circle cy="39.775" fill="none" stroke-width=".43" cx="1.54" stroke="#fff" r=".787"/>
 <path fill="none" stroke-width=".43" d="M2.33 47.72s0-.02 0-.03c0-.45-.36-.8-.8-.8-.43 0-.78.35-.78.8 0 0 0 0 0 .02" stroke="#fff"/>
 <circle cy="41.2" fill="none" stroke-width=".43" cx="3.997" stroke="#fff" r=".788"/>
 <circle cy="42.176" fill="none" stroke-width=".43" cx="8.009" stroke="#fff" r=".788"/>
 <circle cy="43.6" fill="none" stroke-width=".43" cx="5.459" stroke="#fff" r=".788"/>
 <circle cy="43.601" fill="none" stroke-width=".43" cx="2.478" stroke="#fff" r=".788"/>
 <path fill="none" stroke-width=".43" d="M0 42.96s0 0 .02 0c.44 0 .8-.35.8-.78 0-.44-.36-.8-.8-.8 0 0 0 0-.02 0M0 45.8s0 0 .02 0c.44 0 .8-.34.8-.77s-.36-.8-.8-.8c0 0 0 0-.02 0" stroke="#fff"/>
 <circle cy="46" fill="none" stroke-width=".43" cx="3.997" stroke="#fff" r=".788"/>
 <circle cy="45.025" fill="none" stroke-width=".43" cx="8.009" stroke="#fff" r=".788"/>
 <circle cy="39.775" fill="none" stroke-width=".43" cx="14.497" stroke="#fff" r=".788"/>
 <path fill="none" stroke-width=".43" d="M13.7 47.72c.03-.4.38-.74.8-.74.42 0 .76.33.78.74" stroke="#fff"/>
 <circle cy="39.775" fill="none" stroke-width=".43" cx="9.565" stroke="#fff" r=".787"/>
 <path fill="none" stroke-width=".43" d="M10.35 47.72s0-.02 0-.03c0-.45-.35-.8-.78-.8s-.8.35-.8.8c0 0 0 0 0 .02" stroke="#fff"/>
 <circle cy="41.2" fill="none" stroke-width=".43" cx="12.022" stroke="#fff" r=".788"/>
 <circle cy="42.176" fill="none" stroke-width=".43" cx="16.034" stroke="#fff" r=".787"/>
 <circle cy="43.6" fill="none" stroke-width=".43" cx="13.484" stroke="#fff" r=".788"/>
 <circle cy="43.601" fill="none" stroke-width=".43" cx="10.503" stroke="#fff" r=".787"/>
 <circle cy="46" fill="none" stroke-width=".43" cx="12.022" stroke="#fff" r=".788"/>
 <circle cy="45.025" fill="none" stroke-width=".43" cx="16.034" stroke="#fff" r=".787"/>
 <circle cy="39.775" fill="none" stroke-width=".43" cx="22.522" stroke="#fff" r=".788"/>
 <path fill="none" stroke-width=".43" d="M21.74 47.72c.02-.4.36-.74.78-.74s.77.33.8.74" stroke="#fff"/>
 <circle cy="39.775" fill="none" stroke-width=".43" cx="17.59" stroke="#fff" r=".788"/>
 <path fill="none" stroke-width=".43" d="M18.38 47.72s0-.02 0-.03c0-.45-.35-.8-.8-.8-.42 0-.78.35-.78.8 0 0 0 0 0 .02" stroke="#fff"/>
 <circle cy="41.2" fill="none" stroke-width=".43" cx="20.046" stroke="#fff" r=".788"/>
 <circle cy="42.176" fill="none" stroke-width=".43" cx="24.059" stroke="#fff" r=".788"/>
 <circle cy="43.6" fill="none" stroke-width=".43" cx="21.509" stroke="#fff" r=".788"/>
 <circle cy="43.601" fill="none" stroke-width=".43" cx="18.528" stroke="#fff" r=".788"/>
 <circle cy="46" fill="none" stroke-width=".43" cx="20.046" stroke="#fff" r=".788"/>
 <circle cy="45.025" fill="none" stroke-width=".43" cx="24.059" stroke="#fff" r=".788"/>
 <circle cy="39.775" fill="none" stroke-width=".43" cx="30.546" stroke="#fff" r=".788"/>
 <path fill="none" stroke-width=".43" d="M29.76 47.72c.02-.4.37-.74.8-.74s.75.33.77.74" stroke="#fff"/>
 <circle cy="39.775" fill="none" stroke-width=".43" cx="25.616" stroke="#fff" r=".788"/>
 <path fill="none" stroke-width=".43" d="M26.4 47.72s0-.02 0-.03c0-.45-.35-.8-.78-.8s-.8.35-.8.8c0 0 0 0 0 .02" stroke="#fff"/>
 <circle cy="41.2" fill="none" stroke-width=".43" cx="28.072" stroke="#fff" r=".788"/>
 <circle cy="42.176" fill="none" stroke-width=".43" cx="32.084" stroke="#fff" r=".788"/>
 <circle cy="43.6" fill="none" stroke-width=".43" cx="29.534" stroke="#fff" r=".788"/>
 <circle cy="43.601" fill="none" stroke-width=".43" cx="26.553" stroke="#fff" r=".788"/>
 <circle cy="46" fill="none" stroke-width=".43" cx="28.072" stroke="#fff" r=".788"/>
 <circle cy="45.025" fill="none" stroke-width=".43" cx="32.084" stroke="#fff" r=".788"/>
 <circle cy="39.775" fill="none" stroke-width=".43" cx="38.572" stroke="#fff" r=".788"/>
 <path fill="none" stroke-width=".43" d="M37.8 47.72c0-.4.35-.74.77-.74.42 0 .76.33.8.74" stroke="#fff"/>
 <circle cy="39.775" fill="none" stroke-width=".43" cx="33.64" stroke="#fff" r=".788"/>
 <path fill="none" stroke-width=".43" d="M34.43 47.72s0-.02 0-.03c0-.45-.35-.8-.8-.8s-.78.35-.78.8c0 0 0 0 0 .02" stroke="#fff"/>
 <circle cy="41.2" fill="none" stroke-width=".43" cx="36.097" stroke="#fff" r=".787"/>
 <circle cy="42.176" fill="none" stroke-width=".43" cx="40.109" stroke="#fff" r=".788"/>
 <circle cy="43.6" fill="none" stroke-width=".43" cx="37.56" stroke="#fff" r=".788"/>
 <circle cy="43.601" fill="none" stroke-width=".43" cx="34.578" stroke="#fff" r=".788"/>
 <circle cy="46" fill="none" stroke-width=".43" cx="36.097" stroke="#fff" r=".787"/>
 <circle cy="45.025" fill="none" stroke-width=".43" cx="40.109" stroke="#fff" r=".788"/>
 <circle cy="39.775" fill="none" stroke-width=".43" cx="46.597" stroke="#fff" r=".787"/>
 <path fill="none" stroke-width=".43" d="M45.8 47.72c.03-.4.38-.74.8-.74s.76.33.78.74" stroke="#fff"/>
 <circle cy="39.775" fill="none" stroke-width=".43" cx="41.666" stroke="#fff" r=".788"/>
 <path fill="none" stroke-width=".43" d="M42.45 47.72s0-.02 0-.03c0-.45-.35-.8-.78-.8-.44 0-.8.35-.8.8 0 0 0 0 0 .02" stroke="#fff"/>
 <circle cy="41.2" fill="none" stroke-width=".43" cx="44.122" stroke="#fff" r=".788"/>
 <path fill="none" stroke-width=".43" d="M48.1 41.4c-.42 0-.75.35-.75.78 0 .42.33.76.75.78" stroke="#fff"/>
 <circle cy="43.6" fill="none" stroke-width=".43" cx="45.584" stroke="#fff" r=".788"/>
 <circle cy="43.601" fill="none" stroke-width=".43" cx="42.603" stroke="#fff" r=".788"/>
 <circle cy="46" fill="none" stroke-width=".43" cx="44.122" stroke="#fff" r=".788"/>
 <path fill="none" stroke-width=".43" d="M48.1 44.24c-.42.02-.75.36-.75.79s.33.76.75.78" stroke="#fff"/>
 <circle cy="31.826" fill="none" stroke-width=".43" cx="6.472" stroke="#fff" r=".788"/>
 <circle cy="31.825" fill="none" stroke-width=".43" cx="1.541" stroke="#fff" r=".788"/>
 <circle cy="33.25" fill="none" stroke-width=".43" cx="3.997" stroke="#fff" r=".788"/>
 <circle cy="34.226" fill="none" stroke-width=".43" cx="8.009" stroke="#fff" r=".788"/>
 <circle cy="35.65" fill="none" stroke-width=".43" cx="5.459" stroke="#fff" r=".787"/>
 <circle cy="35.65" fill="none" stroke-width=".43" cx="2.478" stroke="#fff" r=".788"/>
 <path fill="none" stroke-width=".43" d="M0 35s0 0 .02 0c.44 0 .8-.34.8-.77s-.36-.8-.8-.8c0 0 0 0-.02 0M0 37.86s0 0 .02 0c.44 0 .8-.35.8-.78s-.36-.8-.8-.8c0 0 0 0-.02 0" stroke="#fff"/>
 <circle cy="38.051" fill="none" stroke-width=".43" cx="3.997" stroke="#fff" r=".788"/>
 <circle cy="37.075" fill="none" stroke-width=".43" cx="8.009" stroke="#fff" r=".788"/>
 <circle cy="31.826" fill="none" stroke-width=".43" cx="14.497" stroke="#fff" r=".788"/>
 <circle cy="31.826" fill="none" stroke-width=".43" cx="9.565" stroke="#fff" r=".788"/>
 <circle cy="33.25" fill="none" stroke-width=".43" cx="12.022" stroke="#fff" r=".788"/>
 <circle cy="34.226" fill="none" stroke-width=".43" cx="16.034" stroke="#fff" r=".787"/>
 <circle cy="35.65" fill="none" stroke-width=".43" cx="13.484" stroke="#fff" r=".787"/>
 <circle cy="35.65" fill="none" stroke-width=".43" cx="10.503" stroke="#fff" r=".787"/>
 <circle cy="38.051" fill="none" stroke-width=".43" cx="12.022" stroke="#fff" r=".788"/>
 <circle cy="37.075" fill="none" stroke-width=".43" cx="16.034" stroke="#fff" r=".787"/>
 <circle cy="31.826" fill="none" stroke-width=".43" cx="22.521" stroke="#fff" r=".788"/>
 <circle cy="31.826" fill="none" stroke-width=".43" cx="17.591" stroke="#fff" r=".788"/>
 <circle cy="33.25" fill="none" stroke-width=".43" cx="20.046" stroke="#fff" r=".788"/>
 <circle cy="34.226" fill="none" stroke-width=".43" cx="24.059" stroke="#fff" r=".788"/>
 <circle cy="35.65" fill="none" stroke-width=".43" cx="21.509" stroke="#fff" r=".787"/>
 <circle cy="35.65" fill="none" stroke-width=".43" cx="18.528" stroke="#fff" r=".788"/>
 <circle cy="38.051" fill="none" stroke-width=".43" cx="20.046" stroke="#fff" r=".788"/>
 <circle cy="37.075" fill="none" stroke-width=".43" cx="24.059" stroke="#fff" r=".788"/>
 <circle cy="31.826" fill="none" stroke-width=".43" cx="30.547" stroke="#fff" r=".788"/>
 <circle cy="31.826" fill="none" stroke-width=".43" cx="25.615" stroke="#fff" r=".788"/>
 <circle cy="33.25" fill="none" stroke-width=".43" cx="28.072" stroke="#fff" r=".788"/>
 <circle cy="34.226" fill="none" stroke-width=".43" cx="32.084" stroke="#fff" r=".788"/>
 <circle cy="35.65" fill="none" stroke-width=".43" cx="29.534" stroke="#fff" r=".787"/>
 <circle cy="35.65" fill="none" stroke-width=".43" cx="26.553" stroke="#fff" r=".788"/>
 <circle cy="38.051" fill="none" stroke-width=".43" cx="28.072" stroke="#fff" r=".788"/>
 <circle cy="37.075" fill="none" stroke-width=".43" cx="32.084" stroke="#fff" r=".788"/>
 <circle cy="31.826" fill="none" stroke-width=".43" cx="38.571" stroke="#fff" r=".788"/>
 <circle cy="31.826" fill="none" stroke-width=".43" cx="33.641" stroke="#fff" r=".788"/>
 <circle cy="33.25" fill="none" stroke-width=".43" cx="36.097" stroke="#fff" r=".787"/>
 <circle cy="34.226" fill="none" stroke-width=".43" cx="40.109" stroke="#fff" r=".788"/>
 <circle cy="35.65" fill="none" stroke-width=".43" cx="37.56" stroke="#fff" r=".787"/>
 <circle cy="35.65" fill="none" stroke-width=".43" cx="34.578" stroke="#fff" r=".788"/>
 <circle cy="38.051" fill="none" stroke-width=".43" cx="36.097" stroke="#fff" r=".787"/>
 <circle cy="37.075" fill="none" stroke-width=".43" cx="40.109" stroke="#fff" r=".788"/>
 <circle cy="31.826" fill="none" stroke-width=".43" cx="46.597" stroke="#fff" r=".788"/>
 <circle cy="31.826" fill="none" stroke-width=".43" cx="41.665" stroke="#fff" r=".788"/>
 <circle cy="33.25" fill="none" stroke-width=".43" cx="44.122" stroke="#fff" r=".788"/>
 <path fill="none" stroke-width=".43" d="M48.1 33.44c-.42.02-.75.36-.75.8s.33.75.75.77" stroke="#fff"/>
 <circle cy="35.65" fill="none" stroke-width=".43" cx="45.584" stroke="#fff" r=".787"/>
 <circle cy="35.65" fill="none" stroke-width=".43" cx="42.603" stroke="#fff" r=".788"/>
 <circle cy="38.051" fill="none" stroke-width=".43" cx="44.122" stroke="#fff" r=".788"/>
 <path fill="none" stroke-width=".43" d="M48.1 36.3c-.42 0-.75.35-.75.78s.33.76.75.78" stroke="#fff"/>
 <circle cy="23.875" fill="none" stroke-width=".43" cx="6.472" stroke="#fff" r=".788"/>
 <circle cy="23.875" fill="none" stroke-width=".43" cx="1.541" stroke="#fff" r=".788"/>
 <circle cy="25.3" fill="none" stroke-width=".43" cx="3.997" stroke="#fff" r=".788"/>
 <circle cy="26.275" fill="none" stroke-width=".43" cx="8.009" stroke="#fff" r=".788"/>
 <circle cy="27.701" fill="none" stroke-width=".43" cx="5.459" stroke="#fff" r=".788"/>
 <circle cy="27.701" fill="none" stroke-width=".43" cx="2.478" stroke="#fff" r=".788"/>
 <path fill="none" stroke-width=".43" d="M0 27.06s0 0 .02 0c.44 0 .8-.35.8-.78s-.36-.8-.8-.8c0 0 0 0-.02 0M0 29.9s0 0 .02 0c.44 0 .8-.34.8-.77 0-.44-.36-.8-.8-.8 0 0 0 0-.02 0" stroke="#fff"/>
 <circle cy="30.101" fill="none" stroke-width=".43" cx="3.997" stroke="#fff" r=".788"/>
 <circle cy="29.125" fill="none" stroke-width=".43" cx="8.009" stroke="#fff" r=".788"/>
 <circle cy="23.875" fill="none" stroke-width=".43" cx="14.497" stroke="#fff" r=".788"/>
 <circle cy="23.875" fill="none" stroke-width=".43" cx="9.565" stroke="#fff" r=".788"/>
 <circle cy="25.3" fill="none" stroke-width=".43" cx="12.021" stroke="#fff" r=".788"/>
 <circle cy="26.275" fill="none" stroke-width=".43" cx="16.034" stroke="#fff" r=".787"/>
 <circle cy="27.701" fill="none" stroke-width=".43" cx="13.484" stroke="#fff" r=".788"/>
 <circle cy="27.7" fill="none" stroke-width=".43" cx="10.503" stroke="#fff" r=".787"/>
 <circle cy="30.101" fill="none" stroke-width=".43" cx="12.022" stroke="#fff" r=".788"/>
 <circle cy="29.125" fill="none" stroke-width=".43" cx="16.034" stroke="#fff" r=".787"/>
 <circle cy="23.875" fill="none" stroke-width=".43" cx="22.521" stroke="#fff" r=".788"/>
 <circle cy="23.875" fill="none" stroke-width=".43" cx="17.591" stroke="#fff" r=".788"/>
 <circle cy="25.3" fill="none" stroke-width=".43" cx="20.047" stroke="#fff" r=".788"/>
 <circle cy="26.275" fill="none" stroke-width=".43" cx="24.059" stroke="#fff" r=".788"/>
 <circle cy="27.701" fill="none" stroke-width=".43" cx="21.509" stroke="#fff" r=".788"/>
 <circle cy="27.7" fill="none" stroke-width=".43" cx="18.528" stroke="#fff" r=".788"/>
 <circle cy="30.101" fill="none" stroke-width=".43" cx="20.046" stroke="#fff" r=".788"/>
 <circle cy="29.125" fill="none" stroke-width=".43" cx="24.059" stroke="#fff" r=".788"/>
 <circle cy="23.875" fill="none" stroke-width=".43" cx="30.547" stroke="#fff" r=".788"/>
 <circle cy="23.875" fill="none" stroke-width=".43" cx="25.615" stroke="#fff" r=".788"/>
 <circle cy="25.3" fill="none" stroke-width=".43" cx="28.071" stroke="#fff" r=".788"/>
 <circle cy="26.275" fill="none" stroke-width=".43" cx="32.084" stroke="#fff" r=".788"/>
 <circle cy="27.701" fill="none" stroke-width=".43" cx="29.534" stroke="#fff" r=".788"/>
 <circle cy="27.7" fill="none" stroke-width=".43" cx="26.553" stroke="#fff" r=".788"/>
 <circle cy="30.101" fill="none" stroke-width=".43" cx="28.072" stroke="#fff" r=".788"/>
 <circle cy="29.125" fill="none" stroke-width=".43" cx="32.084" stroke="#fff" r=".788"/>
 <circle cy="23.875" fill="none" stroke-width=".43" cx="38.571" stroke="#fff" r=".788"/>
 <circle cy="23.875" fill="none" stroke-width=".43" cx="33.641" stroke="#fff" r=".788"/>
 <circle cy="25.3" fill="none" stroke-width=".43" cx="36.097" stroke="#fff" r=".788"/>
 <circle cy="26.275" fill="none" stroke-width=".43" cx="40.109" stroke="#fff" r=".788"/>
 <circle cy="27.701" fill="none" stroke-width=".43" cx="37.56" stroke="#fff" r=".788"/>
 <circle cy="27.7" fill="none" stroke-width=".43" cx="34.578" stroke="#fff" r=".788"/>
 <circle cy="30.101" fill="none" stroke-width=".43" cx="36.097" stroke="#fff" r=".787"/>
 <circle cy="29.125" fill="none" stroke-width=".43" cx="40.109" stroke="#fff" r=".788"/>
 <circle cy="23.875" fill="none" stroke-width=".43" cx="46.597" stroke="#fff" r=".788"/>
 <circle cy="23.875" fill="none" stroke-width=".43" cx="41.665" stroke="#fff" r=".788"/>
 <circle cy="25.3" fill="none" stroke-width=".43" cx="44.122" stroke="#fff" r=".788"/>
 <path fill="none" stroke-width=".43" d="M48.1 25.5c-.42 0-.75.35-.75.77s.33.77.75.8" stroke="#fff"/>
 <circle cy="27.701" fill="none" stroke-width=".43" cx="45.584" stroke="#fff" r=".788"/>
 <circle cy="27.7" fill="none" stroke-width=".43" cx="42.603" stroke="#fff" r=".788"/>
 <circle cy="30.101" fill="none" stroke-width=".43" cx="44.122" stroke="#fff" r=".788"/>
 <path fill="none" stroke-width=".43" d="M48.1 28.34c-.42.02-.75.36-.75.79 0 .42.33.76.75.78" stroke="#fff"/>
 <circle cy="15.925" fill="none" stroke-width=".43" cx="6.472" stroke="#fff" r=".788"/>
 <circle cy="15.926" fill="none" stroke-width=".43" cx="1.541" stroke="#fff" r=".788"/>
 <circle cy="17.351" fill="none" stroke-width=".43" cx="3.997" stroke="#fff" r=".788"/>
 <circle cy="18.325" fill="none" stroke-width=".43" cx="8.009" stroke="#fff" r=".788"/>
 <circle cy="19.75" fill="none" stroke-width=".43" cx="5.459" stroke="#fff" r=".788"/>
 <circle cy="19.75" fill="none" stroke-width=".43" cx="2.478" stroke="#fff" r=".788"/>
 <path fill="none" stroke-width=".43" d="M0 19.1s0 0 .02 0c.44 0 .8-.34.8-.78s-.36-.78-.8-.78c0 0 0 0-.02 0M0 21.96s0 0 .02 0c.44 0 .8-.35.8-.78 0-.44-.36-.8-.8-.8 0 0 0 0-.02 0" stroke="#fff"/>
 <circle cy="22.15" fill="none" stroke-width=".43" cx="3.997" stroke="#fff" r=".788"/>
 <circle cy="21.176" fill="none" stroke-width=".43" cx="8.009" stroke="#fff" r=".788"/>
 <circle cy="15.925" fill="none" stroke-width=".43" cx="14.497" stroke="#fff" r=".788"/>
 <circle cy="15.925" fill="none" stroke-width=".43" cx="9.565" stroke="#fff" r=".788"/>
 <circle cy="17.351" fill="none" stroke-width=".43" cx="12.022" stroke="#fff" r=".788"/>
 <circle cy="18.325" fill="none" stroke-width=".43" cx="16.034" stroke="#fff" r=".787"/>
 <circle cy="19.75" fill="none" stroke-width=".43" cx="13.484" stroke="#fff" r=".788"/>
 <circle cy="19.75" fill="none" stroke-width=".43" cx="10.503" stroke="#fff" r=".788"/>
 <circle cy="22.15" fill="none" stroke-width=".43" cx="12.022" stroke="#fff" r=".788"/>
 <circle cy="21.176" fill="none" stroke-width=".43" cx="16.034" stroke="#fff" r=".787"/>
 <circle cy="15.925" fill="none" stroke-width=".43" cx="22.521" stroke="#fff" r=".788"/>
 <circle cy="15.925" fill="none" stroke-width=".43" cx="17.591" stroke="#fff" r=".788"/>
 <circle cy="17.351" fill="none" stroke-width=".43" cx="20.046" stroke="#fff" r=".788"/>
 <circle cy="18.325" fill="none" stroke-width=".43" cx="24.059" stroke="#fff" r=".788"/>
 <circle cy="19.75" fill="none" stroke-width=".43" cx="21.509" stroke="#fff" r=".788"/>
 <circle cy="19.75" fill="none" stroke-width=".43" cx="18.528" stroke="#fff" r=".788"/>
 <circle cy="22.15" fill="none" stroke-width=".43" cx="20.046" stroke="#fff" r=".788"/>
 <circle cy="21.176" fill="none" stroke-width=".43" cx="24.059" stroke="#fff" r=".788"/>
 <circle cy="15.925" fill="none" stroke-width=".43" cx="30.547" stroke="#fff" r=".788"/>
 <circle cy="15.925" fill="none" stroke-width=".43" cx="25.615" stroke="#fff" r=".788"/>
 <circle cy="17.351" fill="none" stroke-width=".43" cx="28.072" stroke="#fff" r=".788"/>
 <circle cy="18.325" fill="none" stroke-width=".43" cx="32.084" stroke="#fff" r=".788"/>
 <circle cy="19.75" fill="none" stroke-width=".43" cx="29.534" stroke="#fff" r=".788"/>
 <circle cy="19.75" fill="none" stroke-width=".43" cx="26.553" stroke="#fff" r=".788"/>
 <circle cy="22.15" fill="none" stroke-width=".43" cx="28.072" stroke="#fff" r=".788"/>
 <circle cy="21.176" fill="none" stroke-width=".43" cx="32.084" stroke="#fff" r=".788"/>
 <circle cy="15.925" fill="none" stroke-width=".43" cx="38.571" stroke="#fff" r=".788"/>
 <circle cy="15.925" fill="none" stroke-width=".43" cx="33.641" stroke="#fff" r=".788"/>
 <circle cy="17.351" fill="none" stroke-width=".43" cx="36.097" stroke="#fff" r=".787"/>
 <circle cy="18.325" fill="none" stroke-width=".43" cx="40.109" stroke="#fff" r=".788"/>
 <circle cy="19.75" fill="none" stroke-width=".43" cx="37.56" stroke="#fff" r=".788"/>
 <circle cy="19.75" fill="none" stroke-width=".43" cx="34.578" stroke="#fff" r=".788"/>
 <circle cy="22.15" fill="none" stroke-width=".43" cx="36.097" stroke="#fff" r=".787"/>
 <circle cy="21.176" fill="none" stroke-width=".43" cx="40.109" stroke="#fff" r=".788"/>
 <circle cy="15.926" fill="none" stroke-width=".43" cx="46.597" stroke="#fff" r=".787"/>
 <circle cy="15.925" fill="none" stroke-width=".43" cx="41.665" stroke="#fff" r=".788"/>
 <circle cy="17.351" fill="none" stroke-width=".43" cx="44.122" stroke="#fff" r=".788"/>
 <path fill="none" stroke-width=".43" d="M48.1 17.54c-.42.02-.75.36-.75.79s.33.76.75.78" stroke="#fff"/>
 <circle cy="19.75" fill="none" stroke-width=".43" cx="45.584" stroke="#fff" r=".788"/>
 <circle cy="19.75" fill="none" stroke-width=".43" cx="42.603" stroke="#fff" r=".788"/>
 <circle cy="22.15" fill="none" stroke-width=".43" cx="44.122" stroke="#fff" r=".788"/>
 <path fill="none" stroke-width=".43" d="M48.1 20.4c-.42 0-.75.35-.75.78 0 .42.33.76.75.78" stroke="#fff"/>
 <circle cy="7.975" fill="none" stroke-width=".43" cx="6.472" stroke="#fff" r=".788"/>
 <circle cy="7.975" fill="none" stroke-width=".43" cx="1.54" stroke="#fff" r=".788"/>
 <circle cy="9.4" fill="none" stroke-width=".43" cx="3.997" stroke="#fff" r=".788"/>
 <circle cy="10.375" fill="none" stroke-width=".43" cx="8.009" stroke="#fff" r=".788"/>
 <circle cy="11.801" fill="none" stroke-width=".43" cx="5.459" stroke="#fff" r=".788"/>
 <circle cy="11.8" fill="none" stroke-width=".43" cx="2.478" stroke="#fff" r=".788"/>
 <path fill="none" stroke-width=".43" d="M0 11.16s0 0 .02 0c.44 0 .8-.35.8-.78 0-.44-.36-.8-.8-.8 0 0 0 0-.02 0M0 14s0 0 .02 0c.44 0 .8-.34.8-.77s-.36-.8-.8-.8c0 0 0 0-.02 0" stroke="#fff"/>
 <circle cy="14.2" fill="none" stroke-width=".43" cx="3.997" stroke="#fff" r=".788"/>
 <circle cy="13.226" fill="none" stroke-width=".43" cx="8.009" stroke="#fff" r=".788"/>
 <circle cy="7.975" fill="none" stroke-width=".43" cx="14.497" stroke="#fff" r=".788"/>
 <circle cy="7.975" fill="none" stroke-width=".43" cx="9.565" stroke="#fff" r=".788"/>
 <circle cy="9.4" fill="none" stroke-width=".43" cx="12.022" stroke="#fff" r=".788"/>
 <circle cy="10.375" fill="none" stroke-width=".43" cx="16.034" stroke="#fff" r=".787"/>
 <circle cy="11.801" fill="none" stroke-width=".43" cx="13.484" stroke="#fff" r=".788"/>
 <circle cy="11.8" fill="none" stroke-width=".43" cx="10.503" stroke="#fff" r=".788"/>
 <circle cy="14.2" fill="none" stroke-width=".43" cx="12.022" stroke="#fff" r=".788"/>
 <circle cy="13.226" fill="none" stroke-width=".43" cx="16.034" stroke="#fff" r=".787"/>
 <circle cy="7.975" fill="none" stroke-width=".43" cx="22.521" stroke="#fff" r=".788"/>
 <circle cy="7.975" fill="none" stroke-width=".43" cx="17.591" stroke="#fff" r=".788"/>
 <circle cy="9.4" fill="none" stroke-width=".43" cx="20.046" stroke="#fff" r=".788"/>
 <circle cy="10.375" fill="none" stroke-width=".43" cx="24.059" stroke="#fff" r=".788"/>
 <circle cy="11.801" fill="none" stroke-width=".43" cx="21.509" stroke="#fff" r=".788"/>
 <circle cy="11.8" fill="none" stroke-width=".43" cx="18.528" stroke="#fff" r=".788"/>
 <circle cy="14.2" fill="none" stroke-width=".43" cx="20.046" stroke="#fff" r=".788"/>
 <circle cy="13.226" fill="none" stroke-width=".43" cx="24.059" stroke="#fff" r=".788"/>
 <circle cy="7.975" fill="none" stroke-width=".43" cx="30.547" stroke="#fff" r=".788"/>
 <circle cy="7.975" fill="none" stroke-width=".43" cx="25.615" stroke="#fff" r=".788"/>
 <circle cy="9.4" fill="none" stroke-width=".43" cx="28.072" stroke="#fff" r=".788"/>
 <circle cy="10.375" fill="none" stroke-width=".43" cx="32.084" stroke="#fff" r=".788"/>
 <circle cy="11.801" fill="none" stroke-width=".43" cx="29.534" stroke="#fff" r=".787"/>
 <circle cy="11.8" fill="none" stroke-width=".43" cx="26.553" stroke="#fff" r=".788"/>
 <circle cy="14.2" fill="none" stroke-width=".43" cx="28.072" stroke="#fff" r=".788"/>
 <circle cy="13.226" fill="none" stroke-width=".43" cx="32.084" stroke="#fff" r=".788"/>
 <circle cy="7.975" fill="none" stroke-width=".43" cx="38.571" stroke="#fff" r=".788"/>
 <circle cy="7.975" fill="none" stroke-width=".43" cx="33.641" stroke="#fff" r=".788"/>
 <circle cy="9.4" fill="none" stroke-width=".43" cx="36.097" stroke="#fff" r=".787"/>
 <circle cy="10.375" fill="none" stroke-width=".43" cx="40.109" stroke="#fff" r=".788"/>
 <circle cy="11.801" fill="none" stroke-width=".43" cx="37.559" stroke="#fff" r=".788"/>
 <circle cy="11.8" fill="none" stroke-width=".43" cx="34.578" stroke="#fff" r=".788"/>
 <circle cy="14.2" fill="none" stroke-width=".43" cx="36.097" stroke="#fff" r=".787"/>
 <circle cy="13.226" fill="none" stroke-width=".43" cx="40.109" stroke="#fff" r=".788"/>
 <circle cy="7.975" fill="none" stroke-width=".43" cx="46.597" stroke="#fff" r=".788"/>
 <circle cy="7.975" fill="none" stroke-width=".43" cx="41.665" stroke="#fff" r=".788"/>
 <circle cy="9.4" fill="none" stroke-width=".43" cx="44.122" stroke="#fff" r=".788"/>
 <path fill="none" stroke-width=".43" d="M48.1 9.6c-.42 0-.75.35-.75.78 0 .42.33.76.75.78" stroke="#fff"/>
 <circle cy="11.801" fill="none" stroke-width=".43" cx="45.584" stroke="#fff" r=".788"/>
 <circle cy="11.8" fill="none" stroke-width=".43" cx="42.603" stroke="#fff" r=".788"/>
 <circle cy="14.2" fill="none" stroke-width=".43" cx="44.122" stroke="#fff" r=".788"/>
 <path fill="none" stroke-width=".43" d="M48.1 12.44c-.42.02-.75.36-.75.8s.33.75.75.77M5.7 0s-.02.02-.02.03c0 .43.36.78.8.78s.78-.34.78-.78c0 0 0 0 0-.02M.75 0s0 .02 0 .03c0 .43.36.78.8.78.43 0 .78-.34.78-.78 0 0 0 0 0-.02" stroke="#fff"/>
 <circle cy="1.45" fill="none" stroke-width=".43" cx="3.997" stroke="#fff" r=".788"/>
 <circle cy="2.426" fill="none" stroke-width=".43" cx="8.009" stroke="#fff" r=".788"/>
 <circle cy="3.851" fill="none" stroke-width=".43" cx="5.459" stroke="#fff" r=".788"/>
 <circle cy="3.85" fill="none" stroke-width=".43" cx="2.478" stroke="#fff" r=".788"/>
 <path fill="none" stroke-width=".43" d="M0 3.2s0 0 .02 0c.44 0 .8-.34.8-.77 0-.44-.36-.8-.8-.8 0 0 0 0-.02 0M0 6.06s0 0 .02 0c.44 0 .8-.35.8-.78s-.36-.8-.8-.8c0 0 0 0-.02 0" stroke="#fff"/>
 <circle cy="6.25" fill="none" stroke-width=".43" cx="3.997" stroke="#fff" r=".788"/>
 <circle cy="5.275" fill="none" stroke-width=".43" cx="8.009" stroke="#fff" r=".788"/>
 <path fill="none" stroke-width=".43" d="M13.7 0s0 .02 0 .03c0 .43.36.78.8.78.43 0 .78-.34.78-.78 0 0 0 0 0-.02M8.78 0s0 .02 0 .03c0 .43.35.78.8.78s.77-.34.77-.78c0 0 0 0 0-.02" stroke="#fff"/>
 <circle cy="1.45" fill="none" stroke-width=".43" cx="12.022" stroke="#fff" r=".788"/>
 <circle cy="2.426" fill="none" stroke-width=".43" cx="16.034" stroke="#fff" r=".787"/>
 <circle cy="3.851" fill="none" stroke-width=".43" cx="13.484" stroke="#fff" r=".788"/>
 <circle cy="3.85" fill="none" stroke-width=".43" cx="10.503" stroke="#fff" r=".788"/>
 <circle cy="6.25" fill="none" stroke-width=".43" cx="12.022" stroke="#fff" r=".788"/>
 <circle cy="5.275" fill="none" stroke-width=".43" cx="16.034" stroke="#fff" r=".787"/>
 <path fill="none" stroke-width=".43" d="M21.74 0s0 .02 0 .03c0 .43.35.78.78.78s.8-.34.8-.78c0 0 0 0 0-.02M16.8 0s0 .02 0 .03c0 .43.36.78.8.78.43 0 .78-.34.78-.78 0 0 0 0 0-.02" stroke="#fff"/>
 <circle cy="1.45" fill="none" stroke-width=".43" cx="20.046" stroke="#fff" r=".788"/>
 <circle cy="2.426" fill="none" stroke-width=".43" cx="24.059" stroke="#fff" r=".788"/>
 <circle cy="3.851" fill="none" stroke-width=".43" cx="21.509" stroke="#fff" r=".788"/>
 <circle cy="3.85" fill="none" stroke-width=".43" cx="18.528" stroke="#fff" r=".788"/>
 <circle cy="6.25" fill="none" stroke-width=".43" cx="20.046" stroke="#fff" r=".788"/>
 <circle cy="5.275" fill="none" stroke-width=".43" cx="24.059" stroke="#fff" r=".788"/>
 <path fill="none" stroke-width=".43" d="M29.76 0s0 .02 0 .03c0 .43.35.78.8.78s.77-.34.77-.78c0 0 0 0 0-.02M24.83 0s0 .02 0 .03c0 .43.35.78.8.78s.77-.34.77-.78c0 0 0 0 0-.02" stroke="#fff"/>
 <circle cy="1.45" fill="none" stroke-width=".43" cx="28.072" stroke="#fff" r=".788"/>
 <circle cy="3.851" fill="none" stroke-width=".43" cx="29.534" stroke="#fff" r=".787"/>
 <circle cy="3.85" fill="none" stroke-width=".43" cx="26.553" stroke="#fff" r=".788"/>
 <circle cy="6.25" fill="none" stroke-width=".43" cx="28.072" stroke="#fff" r=".788"/>
 <circle cy="5.275" fill="none" stroke-width=".43" cx="32.084" stroke="#fff" r=".788"/>
 <path fill="none" stroke-width=".43" d="M37.8 0s0 .02 0 .03c0 .43.34.78.77.78.44 0 .8-.34.8-.78 0 0 0 0 0-.02M32.85 0s0 .02 0 .03c0 .43.36.78.8.78s.78-.34.78-.78c0 0 0 0 0-.02" stroke="#fff"/>
 <circle cy="1.45" fill="none" stroke-width=".43" cx="36.097" stroke="#fff" r=".787"/>
 <circle cy="2.426" fill="none" stroke-width=".43" cx="40.109" stroke="#fff" r=".788"/>
 <circle cy="3.851" fill="none" stroke-width=".43" cx="37.559" stroke="#fff" r=".788"/>
 <circle cy="3.85" fill="none" stroke-width=".43" cx="34.578" stroke="#fff" r=".788"/>
 <circle cy="2.426" fill="none" stroke-width=".43" cx="32.122" stroke="#fff" r=".788"/>
 <circle cy="6.25" fill="none" stroke-width=".43" cx="36.097" stroke="#fff" r=".787"/>
 <circle cy="5.275" fill="none" stroke-width=".43" cx="40.109" stroke="#fff" r=".788"/>
 <path fill="none" stroke-width=".43" d="M45.8 0s0 .02 0 .03c0 .43.36.78.8.78s.78-.34.78-.78c0 0 0 0 0-.02M40.88 0s0 .02 0 .03c0 .43.35.78.78.78.44 0 .8-.34.8-.78 0 0 0 0 0-.02" stroke="#fff"/>
 <circle cy="1.45" fill="none" stroke-width=".43" cx="44.122" stroke="#fff" r=".788"/>
 <path fill="none" stroke-width=".43" d="M48.1 1.64c-.42.02-.75.36-.75.8 0 .4.33.75.75.77" stroke="#fff"/>
 <circle cy="3.851" fill="none" stroke-width=".43" cx="45.584" stroke="#fff" r=".788"/>
 <circle cy="3.85" fill="none" stroke-width=".43" cx="42.603" stroke="#fff" r=".788"/>
 <circle cy="6.25" fill="none" stroke-width=".43" cx="44.122" stroke="#fff" r=".788"/>
 <path fill="none" stroke-width=".43" d="M48.1 4.5c-.42 0-.75.35-.75.78s.33.76.75.78M42.45 47.72M40.88 47.72" stroke="#fff"/>
</svg>
