<?xml version="1.0"?>
<!-- Converted with SVG Converter - Version 0.9.6 (Compiled Thu Aug 31 10:01:05 2017) - Copyright (C) 2011 Nokia -->
<svg xmlns="http://www.w3.org/2000/svg" baseProfile="tiny" xmlns:xlink="http://www.w3.org/1999/xlink" width="48.097" height="47.721">
 <defs>
  <path d="M0 0h48.1v47.72H0z" id="a"/>
 </defs>
 <circle r=".787" fill="none" stroke="#00AEEF" cy="39.775" stroke-width=".43" cx="6.472"/>
 <path fill="none" d="M5.7 47.72c0-.4.35-.74.77-.74s.77.33.8.74" stroke="#00AEEF" stroke-width=".43"/>
 <circle r=".787" fill="none" stroke="#00AEEF" cy="39.775" stroke-width=".43" cx="1.54"/>
 <path fill="none" d="M2.33 47.72s0-.02 0-.03c0-.45-.36-.8-.8-.8-.43 0-.78.35-.78.8 0 0 0 0 0 .02" stroke="#00AEEF" stroke-width=".43"/>
 <circle r=".788" fill="none" stroke="#00AEEF" cy="41.2" stroke-width=".43" cx="3.997"/>
 <circle r=".788" fill="none" stroke="#00AEEF" cy="42.176" stroke-width=".43" cx="8.009"/>
 <circle r=".788" fill="none" stroke="#00AEEF" cy="43.6" stroke-width=".43" cx="5.459"/>
 <circle r=".788" fill="none" stroke="#00AEEF" cy="43.601" stroke-width=".43" cx="2.478"/>
 <path fill="none" d="M0 42.96s0 0 .02 0c.44 0 .8-.35.8-.78 0-.44-.36-.8-.8-.8 0 0 0 0-.02 0M0 45.8s0 0 .02 0c.44 0 .8-.34.8-.77s-.36-.8-.8-.8c0 0 0 0-.02 0" stroke="#00AEEF" stroke-width=".43"/>
 <circle r=".788" fill="none" stroke="#00AEEF" cy="46" stroke-width=".43" cx="3.997"/>
 <circle r=".788" fill="none" stroke="#00AEEF" cy="45.025" stroke-width=".43" cx="8.009"/>
 <circle r=".788" fill="none" stroke="#00AEEF" cy="39.775" stroke-width=".43" cx="14.497"/>
 <path fill="none" d="M13.7 47.72c.03-.4.38-.74.8-.74.42 0 .76.33.78.74" stroke="#00AEEF" stroke-width=".43"/>
 <circle r=".787" fill="none" stroke="#00AEEF" cy="39.775" stroke-width=".43" cx="9.565"/>
 <path fill="none" d="M10.35 47.72s0-.02 0-.03c0-.45-.35-.8-.78-.8s-.8.35-.8.8c0 0 0 0 0 .02" stroke="#00AEEF" stroke-width=".43"/>
 <circle r=".788" fill="none" stroke="#00AEEF" cy="41.2" stroke-width=".43" cx="12.022"/>
 <circle r=".787" fill="none" stroke="#00AEEF" cy="42.176" stroke-width=".43" cx="16.034"/>
 <circle r=".788" fill="none" stroke="#00AEEF" cy="43.6" stroke-width=".43" cx="13.484"/>
 <circle r=".787" fill="none" stroke="#00AEEF" cy="43.601" stroke-width=".43" cx="10.503"/>
 <circle r=".788" fill="none" stroke="#00AEEF" cy="46" stroke-width=".43" cx="12.022"/>
 <circle r=".787" fill="none" stroke="#00AEEF" cy="45.025" stroke-width=".43" cx="16.034"/>
 <circle r=".788" fill="none" stroke="#00AEEF" cy="39.775" stroke-width=".43" cx="22.522"/>
 <path fill="none" d="M21.74 47.72c.02-.4.36-.74.78-.74s.77.33.8.74" stroke="#00AEEF" stroke-width=".43"/>
 <circle r=".788" fill="none" stroke="#00AEEF" cy="39.775" stroke-width=".43" cx="17.59"/>
 <path fill="none" d="M18.38 47.72s0-.02 0-.03c0-.45-.35-.8-.8-.8-.42 0-.78.35-.78.8 0 0 0 0 0 .02" stroke="#00AEEF" stroke-width=".43"/>
 <circle r=".788" fill="none" stroke="#00AEEF" cy="41.2" stroke-width=".43" cx="20.046"/>
 <circle r=".788" fill="none" stroke="#00AEEF" cy="42.176" stroke-width=".43" cx="24.059"/>
 <circle r=".788" fill="none" stroke="#00AEEF" cy="43.6" stroke-width=".43" cx="21.509"/>
 <circle r=".788" fill="none" stroke="#00AEEF" cy="43.601" stroke-width=".43" cx="18.528"/>
 <circle r=".788" fill="none" stroke="#00AEEF" cy="46" stroke-width=".43" cx="20.046"/>
 <circle r=".788" fill="none" stroke="#00AEEF" cy="45.025" stroke-width=".43" cx="24.059"/>
 <circle r=".788" fill="none" stroke="#00AEEF" cy="39.775" stroke-width=".43" cx="30.546"/>
 <path fill="none" d="M29.76 47.72c.02-.4.37-.74.8-.74s.75.33.77.74" stroke="#00AEEF" stroke-width=".43"/>
 <circle r=".788" fill="none" stroke="#00AEEF" cy="39.775" stroke-width=".43" cx="25.616"/>
 <path fill="none" d="M26.4 47.72s0-.02 0-.03c0-.45-.35-.8-.78-.8s-.8.35-.8.8c0 0 0 0 0 .02" stroke="#00AEEF" stroke-width=".43"/>
 <circle r=".788" fill="none" stroke="#00AEEF" cy="41.2" stroke-width=".43" cx="28.072"/>
 <circle r=".788" fill="none" stroke="#00AEEF" cy="42.176" stroke-width=".43" cx="32.084"/>
 <circle r=".788" fill="none" stroke="#00AEEF" cy="43.6" stroke-width=".43" cx="29.534"/>
 <circle r=".788" fill="none" stroke="#00AEEF" cy="43.601" stroke-width=".43" cx="26.553"/>
 <circle r=".788" fill="none" stroke="#00AEEF" cy="46" stroke-width=".43" cx="28.072"/>
 <circle r=".788" fill="none" stroke="#00AEEF" cy="45.025" stroke-width=".43" cx="32.084"/>
 <circle r=".788" fill="none" stroke="#00AEEF" cy="39.775" stroke-width=".43" cx="38.572"/>
 <path fill="none" d="M37.8 47.72c0-.4.35-.74.77-.74.42 0 .76.33.8.74" stroke="#00AEEF" stroke-width=".43"/>
 <circle r=".788" fill="none" stroke="#00AEEF" cy="39.775" stroke-width=".43" cx="33.64"/>
 <path fill="none" d="M34.43 47.72s0-.02 0-.03c0-.45-.35-.8-.8-.8s-.78.35-.78.8c0 0 0 0 0 .02" stroke="#00AEEF" stroke-width=".43"/>
 <circle r=".787" fill="none" stroke="#00AEEF" cy="41.2" stroke-width=".43" cx="36.097"/>
 <circle r=".788" fill="none" stroke="#00AEEF" cy="42.176" stroke-width=".43" cx="40.109"/>
 <circle r=".788" fill="none" stroke="#00AEEF" cy="43.6" stroke-width=".43" cx="37.56"/>
 <circle r=".788" fill="none" stroke="#00AEEF" cy="43.601" stroke-width=".43" cx="34.578"/>
 <circle r=".787" fill="none" stroke="#00AEEF" cy="46" stroke-width=".43" cx="36.097"/>
 <circle r=".788" fill="none" stroke="#00AEEF" cy="45.025" stroke-width=".43" cx="40.109"/>
 <circle r=".787" fill="none" stroke="#00AEEF" cy="39.775" stroke-width=".43" cx="46.597"/>
 <path fill="none" d="M45.8 47.72c.03-.4.38-.74.8-.74s.76.33.78.74" stroke="#00AEEF" stroke-width=".43"/>
 <circle r=".788" fill="none" stroke="#00AEEF" cy="39.775" stroke-width=".43" cx="41.666"/>
 <path fill="none" d="M42.45 47.72s0-.02 0-.03c0-.45-.35-.8-.78-.8-.44 0-.8.35-.8.8 0 0 0 0 0 .02" stroke="#00AEEF" stroke-width=".43"/>
 <circle r=".788" fill="none" stroke="#00AEEF" cy="41.2" stroke-width=".43" cx="44.122"/>
 <path fill="none" d="M48.1 41.4c-.42 0-.75.35-.75.78 0 .42.33.76.75.78" stroke="#00AEEF" stroke-width=".43"/>
 <circle r=".788" fill="none" stroke="#00AEEF" cy="43.6" stroke-width=".43" cx="45.584"/>
 <circle r=".788" fill="none" stroke="#00AEEF" cy="43.601" stroke-width=".43" cx="42.603"/>
 <circle r=".788" fill="none" stroke="#00AEEF" cy="46" stroke-width=".43" cx="44.122"/>
 <path fill="none" d="M48.1 44.24c-.42.02-.75.36-.75.79s.33.76.75.78" stroke="#00AEEF" stroke-width=".43"/>
 <circle r=".788" fill="none" stroke="#00AEEF" cy="31.826" stroke-width=".43" cx="6.472"/>
 <circle r=".788" fill="none" stroke="#00AEEF" cy="31.825" stroke-width=".43" cx="1.541"/>
 <circle r=".788" fill="none" stroke="#00AEEF" cy="33.25" stroke-width=".43" cx="3.997"/>
 <circle r=".788" fill="none" stroke="#00AEEF" cy="34.226" stroke-width=".43" cx="8.009"/>
 <circle r=".787" fill="none" stroke="#00AEEF" cy="35.65" stroke-width=".43" cx="5.459"/>
 <circle r=".788" fill="none" stroke="#00AEEF" cy="35.65" stroke-width=".43" cx="2.478"/>
 <path fill="none" d="M0 35s0 0 .02 0c.44 0 .8-.34.8-.77s-.36-.8-.8-.8c0 0 0 0-.02 0M0 37.86s0 0 .02 0c.44 0 .8-.35.8-.78s-.36-.8-.8-.8c0 0 0 0-.02 0" stroke="#00AEEF" stroke-width=".43"/>
 <circle r=".788" fill="none" stroke="#00AEEF" cy="38.051" stroke-width=".43" cx="3.997"/>
 <circle r=".788" fill="none" stroke="#00AEEF" cy="37.075" stroke-width=".43" cx="8.009"/>
 <circle r=".788" fill="none" stroke="#00AEEF" cy="31.826" stroke-width=".43" cx="14.497"/>
 <circle r=".788" fill="none" stroke="#00AEEF" cy="31.826" stroke-width=".43" cx="9.565"/>
 <circle r=".788" fill="none" stroke="#00AEEF" cy="33.25" stroke-width=".43" cx="12.022"/>
 <circle r=".787" fill="none" stroke="#00AEEF" cy="34.226" stroke-width=".43" cx="16.034"/>
 <circle r=".787" fill="none" stroke="#00AEEF" cy="35.65" stroke-width=".43" cx="13.484"/>
 <circle r=".787" fill="none" stroke="#00AEEF" cy="35.65" stroke-width=".43" cx="10.503"/>
 <circle r=".788" fill="none" stroke="#00AEEF" cy="38.051" stroke-width=".43" cx="12.022"/>
 <circle r=".787" fill="none" stroke="#00AEEF" cy="37.075" stroke-width=".43" cx="16.034"/>
 <circle r=".788" fill="none" stroke="#00AEEF" cy="31.826" stroke-width=".43" cx="22.521"/>
 <circle r=".788" fill="none" stroke="#00AEEF" cy="31.826" stroke-width=".43" cx="17.591"/>
 <circle r=".788" fill="none" stroke="#00AEEF" cy="33.25" stroke-width=".43" cx="20.046"/>
 <circle r=".788" fill="none" stroke="#00AEEF" cy="34.226" stroke-width=".43" cx="24.059"/>
 <circle r=".787" fill="none" stroke="#00AEEF" cy="35.65" stroke-width=".43" cx="21.509"/>
 <circle r=".788" fill="none" stroke="#00AEEF" cy="35.65" stroke-width=".43" cx="18.528"/>
 <circle r=".788" fill="none" stroke="#00AEEF" cy="38.051" stroke-width=".43" cx="20.046"/>
 <circle r=".788" fill="none" stroke="#00AEEF" cy="37.075" stroke-width=".43" cx="24.059"/>
 <circle r=".788" fill="none" stroke="#00AEEF" cy="31.826" stroke-width=".43" cx="30.547"/>
 <circle r=".788" fill="none" stroke="#00AEEF" cy="31.826" stroke-width=".43" cx="25.615"/>
 <circle r=".788" fill="none" stroke="#00AEEF" cy="33.25" stroke-width=".43" cx="28.072"/>
 <circle r=".788" fill="none" stroke="#00AEEF" cy="34.226" stroke-width=".43" cx="32.084"/>
 <circle r=".787" fill="none" stroke="#00AEEF" cy="35.65" stroke-width=".43" cx="29.534"/>
 <circle r=".788" fill="none" stroke="#00AEEF" cy="35.65" stroke-width=".43" cx="26.553"/>
 <circle r=".788" fill="none" stroke="#00AEEF" cy="38.051" stroke-width=".43" cx="28.072"/>
 <circle r=".788" fill="none" stroke="#00AEEF" cy="37.075" stroke-width=".43" cx="32.084"/>
 <circle r=".788" fill="none" stroke="#00AEEF" cy="31.826" stroke-width=".43" cx="38.571"/>
 <circle r=".788" fill="none" stroke="#00AEEF" cy="31.826" stroke-width=".43" cx="33.641"/>
 <circle r=".787" fill="none" stroke="#00AEEF" cy="33.25" stroke-width=".43" cx="36.097"/>
 <circle r=".788" fill="none" stroke="#00AEEF" cy="34.226" stroke-width=".43" cx="40.109"/>
 <circle r=".787" fill="none" stroke="#00AEEF" cy="35.65" stroke-width=".43" cx="37.56"/>
 <circle r=".788" fill="none" stroke="#00AEEF" cy="35.65" stroke-width=".43" cx="34.578"/>
 <circle r=".787" fill="none" stroke="#00AEEF" cy="38.051" stroke-width=".43" cx="36.097"/>
 <circle r=".788" fill="none" stroke="#00AEEF" cy="37.075" stroke-width=".43" cx="40.109"/>
 <circle r=".788" fill="none" stroke="#00AEEF" cy="31.826" stroke-width=".43" cx="46.597"/>
 <circle r=".788" fill="none" stroke="#00AEEF" cy="31.826" stroke-width=".43" cx="41.665"/>
 <circle r=".788" fill="none" stroke="#00AEEF" cy="33.25" stroke-width=".43" cx="44.122"/>
 <path fill="none" d="M48.1 33.44c-.42.02-.75.36-.75.8s.33.75.75.77" stroke="#00AEEF" stroke-width=".43"/>
 <circle r=".787" fill="none" stroke="#00AEEF" cy="35.65" stroke-width=".43" cx="45.584"/>
 <circle r=".788" fill="none" stroke="#00AEEF" cy="35.65" stroke-width=".43" cx="42.603"/>
 <circle r=".788" fill="none" stroke="#00AEEF" cy="38.051" stroke-width=".43" cx="44.122"/>
 <path fill="none" d="M48.1 36.3c-.42 0-.75.35-.75.78s.33.76.75.78" stroke="#00AEEF" stroke-width=".43"/>
 <circle r=".788" fill="none" stroke="#00AEEF" cy="23.875" stroke-width=".43" cx="6.472"/>
 <circle r=".788" fill="none" stroke="#00AEEF" cy="23.875" stroke-width=".43" cx="1.541"/>
 <circle r=".788" fill="none" stroke="#00AEEF" cy="25.3" stroke-width=".43" cx="3.997"/>
 <circle r=".788" fill="none" stroke="#00AEEF" cy="26.275" stroke-width=".43" cx="8.009"/>
 <circle r=".788" fill="none" stroke="#00AEEF" cy="27.701" stroke-width=".43" cx="5.459"/>
 <circle r=".788" fill="none" stroke="#00AEEF" cy="27.701" stroke-width=".43" cx="2.478"/>
 <path fill="none" d="M0 27.06s0 0 .02 0c.44 0 .8-.35.8-.78s-.36-.8-.8-.8c0 0 0 0-.02 0M0 29.9s0 0 .02 0c.44 0 .8-.34.8-.77 0-.44-.36-.8-.8-.8 0 0 0 0-.02 0" stroke="#00AEEF" stroke-width=".43"/>
 <circle r=".788" fill="none" stroke="#00AEEF" cy="30.101" stroke-width=".43" cx="3.997"/>
 <circle r=".788" fill="none" stroke="#00AEEF" cy="29.125" stroke-width=".43" cx="8.009"/>
 <circle r=".788" fill="none" stroke="#00AEEF" cy="23.875" stroke-width=".43" cx="14.497"/>
 <circle r=".788" fill="none" stroke="#00AEEF" cy="23.875" stroke-width=".43" cx="9.565"/>
 <circle r=".788" fill="none" stroke="#00AEEF" cy="25.3" stroke-width=".43" cx="12.021"/>
 <circle r=".787" fill="none" stroke="#00AEEF" cy="26.275" stroke-width=".43" cx="16.034"/>
 <circle r=".788" fill="none" stroke="#00AEEF" cy="27.701" stroke-width=".43" cx="13.484"/>
 <circle r=".787" fill="none" stroke="#00AEEF" cy="27.7" stroke-width=".43" cx="10.503"/>
 <circle r=".788" fill="none" stroke="#00AEEF" cy="30.101" stroke-width=".43" cx="12.022"/>
 <circle r=".787" fill="none" stroke="#00AEEF" cy="29.125" stroke-width=".43" cx="16.034"/>
 <circle r=".788" fill="none" stroke="#00AEEF" cy="23.875" stroke-width=".43" cx="22.521"/>
 <circle r=".788" fill="none" stroke="#00AEEF" cy="23.875" stroke-width=".43" cx="17.591"/>
 <circle r=".788" fill="none" stroke="#00AEEF" cy="25.3" stroke-width=".43" cx="20.047"/>
 <circle r=".788" fill="none" stroke="#00AEEF" cy="26.275" stroke-width=".43" cx="24.059"/>
 <circle r=".788" fill="none" stroke="#00AEEF" cy="27.701" stroke-width=".43" cx="21.509"/>
 <circle r=".788" fill="none" stroke="#00AEEF" cy="27.7" stroke-width=".43" cx="18.528"/>
 <circle r=".788" fill="none" stroke="#00AEEF" cy="30.101" stroke-width=".43" cx="20.046"/>
 <circle r=".788" fill="none" stroke="#00AEEF" cy="29.125" stroke-width=".43" cx="24.059"/>
 <circle r=".788" fill="none" stroke="#00AEEF" cy="23.875" stroke-width=".43" cx="30.547"/>
 <circle r=".788" fill="none" stroke="#00AEEF" cy="23.875" stroke-width=".43" cx="25.615"/>
 <circle r=".788" fill="none" stroke="#00AEEF" cy="25.3" stroke-width=".43" cx="28.071"/>
 <circle r=".788" fill="none" stroke="#00AEEF" cy="26.275" stroke-width=".43" cx="32.084"/>
 <circle r=".788" fill="none" stroke="#00AEEF" cy="27.701" stroke-width=".43" cx="29.534"/>
 <circle r=".788" fill="none" stroke="#00AEEF" cy="27.7" stroke-width=".43" cx="26.553"/>
 <circle r=".788" fill="none" stroke="#00AEEF" cy="30.101" stroke-width=".43" cx="28.072"/>
 <circle r=".788" fill="none" stroke="#00AEEF" cy="29.125" stroke-width=".43" cx="32.084"/>
 <circle r=".788" fill="none" stroke="#00AEEF" cy="23.875" stroke-width=".43" cx="38.571"/>
 <circle r=".788" fill="none" stroke="#00AEEF" cy="23.875" stroke-width=".43" cx="33.641"/>
 <circle r=".788" fill="none" stroke="#00AEEF" cy="25.3" stroke-width=".43" cx="36.097"/>
 <circle r=".788" fill="none" stroke="#00AEEF" cy="26.275" stroke-width=".43" cx="40.109"/>
 <circle r=".788" fill="none" stroke="#00AEEF" cy="27.701" stroke-width=".43" cx="37.56"/>
 <circle r=".788" fill="none" stroke="#00AEEF" cy="27.7" stroke-width=".43" cx="34.578"/>
 <circle r=".787" fill="none" stroke="#00AEEF" cy="30.101" stroke-width=".43" cx="36.097"/>
 <circle r=".788" fill="none" stroke="#00AEEF" cy="29.125" stroke-width=".43" cx="40.109"/>
 <circle r=".788" fill="none" stroke="#00AEEF" cy="23.875" stroke-width=".43" cx="46.597"/>
 <circle r=".788" fill="none" stroke="#00AEEF" cy="23.875" stroke-width=".43" cx="41.665"/>
 <circle r=".788" fill="none" stroke="#00AEEF" cy="25.3" stroke-width=".43" cx="44.122"/>
 <path fill="none" d="M48.1 25.5c-.42 0-.75.35-.75.77s.33.77.75.8" stroke="#00AEEF" stroke-width=".43"/>
 <circle r=".788" fill="none" stroke="#00AEEF" cy="27.701" stroke-width=".43" cx="45.584"/>
 <circle r=".788" fill="none" stroke="#00AEEF" cy="27.7" stroke-width=".43" cx="42.603"/>
 <circle r=".788" fill="none" stroke="#00AEEF" cy="30.101" stroke-width=".43" cx="44.122"/>
 <path fill="none" d="M48.1 28.34c-.42.02-.75.36-.75.79 0 .42.33.76.75.78" stroke="#00AEEF" stroke-width=".43"/>
 <circle r=".788" fill="none" stroke="#00AEEF" cy="15.925" stroke-width=".43" cx="6.472"/>
 <circle r=".788" fill="none" stroke="#00AEEF" cy="15.926" stroke-width=".43" cx="1.541"/>
 <circle r=".788" fill="none" stroke="#00AEEF" cy="17.351" stroke-width=".43" cx="3.997"/>
 <circle r=".788" fill="none" stroke="#00AEEF" cy="18.325" stroke-width=".43" cx="8.009"/>
 <circle r=".788" fill="none" stroke="#00AEEF" cy="19.75" stroke-width=".43" cx="5.459"/>
 <circle r=".788" fill="none" stroke="#00AEEF" cy="19.75" stroke-width=".43" cx="2.478"/>
 <path fill="none" d="M0 19.1s0 0 .02 0c.44 0 .8-.34.8-.78s-.36-.78-.8-.78c0 0 0 0-.02 0M0 21.96s0 0 .02 0c.44 0 .8-.35.8-.78 0-.44-.36-.8-.8-.8 0 0 0 0-.02 0" stroke="#00AEEF" stroke-width=".43"/>
 <circle r=".788" fill="none" stroke="#00AEEF" cy="22.15" stroke-width=".43" cx="3.997"/>
 <circle r=".788" fill="none" stroke="#00AEEF" cy="21.176" stroke-width=".43" cx="8.009"/>
 <circle r=".788" fill="none" stroke="#00AEEF" cy="15.925" stroke-width=".43" cx="14.497"/>
 <circle r=".788" fill="none" stroke="#00AEEF" cy="15.925" stroke-width=".43" cx="9.565"/>
 <circle r=".788" fill="none" stroke="#00AEEF" cy="17.351" stroke-width=".43" cx="12.022"/>
 <circle r=".787" fill="none" stroke="#00AEEF" cy="18.325" stroke-width=".43" cx="16.034"/>
 <circle r=".788" fill="none" stroke="#00AEEF" cy="19.75" stroke-width=".43" cx="13.484"/>
 <circle r=".788" fill="none" stroke="#00AEEF" cy="19.75" stroke-width=".43" cx="10.503"/>
 <circle r=".788" fill="none" stroke="#00AEEF" cy="22.15" stroke-width=".43" cx="12.022"/>
 <circle r=".787" fill="none" stroke="#00AEEF" cy="21.176" stroke-width=".43" cx="16.034"/>
 <circle r=".788" fill="none" stroke="#00AEEF" cy="15.925" stroke-width=".43" cx="22.521"/>
 <circle r=".788" fill="none" stroke="#00AEEF" cy="15.925" stroke-width=".43" cx="17.591"/>
 <circle r=".788" fill="none" stroke="#00AEEF" cy="17.351" stroke-width=".43" cx="20.046"/>
 <circle r=".788" fill="none" stroke="#00AEEF" cy="18.325" stroke-width=".43" cx="24.059"/>
 <circle r=".788" fill="none" stroke="#00AEEF" cy="19.75" stroke-width=".43" cx="21.509"/>
 <circle r=".788" fill="none" stroke="#00AEEF" cy="19.75" stroke-width=".43" cx="18.528"/>
 <circle r=".788" fill="none" stroke="#00AEEF" cy="22.15" stroke-width=".43" cx="20.046"/>
 <circle r=".788" fill="none" stroke="#00AEEF" cy="21.176" stroke-width=".43" cx="24.059"/>
 <circle r=".788" fill="none" stroke="#00AEEF" cy="15.925" stroke-width=".43" cx="30.547"/>
 <circle r=".788" fill="none" stroke="#00AEEF" cy="15.925" stroke-width=".43" cx="25.615"/>
 <circle r=".788" fill="none" stroke="#00AEEF" cy="17.351" stroke-width=".43" cx="28.072"/>
 <circle r=".788" fill="none" stroke="#00AEEF" cy="18.325" stroke-width=".43" cx="32.084"/>
 <circle r=".788" fill="none" stroke="#00AEEF" cy="19.75" stroke-width=".43" cx="29.534"/>
 <circle r=".788" fill="none" stroke="#00AEEF" cy="19.75" stroke-width=".43" cx="26.553"/>
 <circle r=".788" fill="none" stroke="#00AEEF" cy="22.15" stroke-width=".43" cx="28.072"/>
 <circle r=".788" fill="none" stroke="#00AEEF" cy="21.176" stroke-width=".43" cx="32.084"/>
 <circle r=".788" fill="none" stroke="#00AEEF" cy="15.925" stroke-width=".43" cx="38.571"/>
 <circle r=".788" fill="none" stroke="#00AEEF" cy="15.925" stroke-width=".43" cx="33.641"/>
 <circle r=".787" fill="none" stroke="#00AEEF" cy="17.351" stroke-width=".43" cx="36.097"/>
 <circle r=".788" fill="none" stroke="#00AEEF" cy="18.325" stroke-width=".43" cx="40.109"/>
 <circle r=".788" fill="none" stroke="#00AEEF" cy="19.75" stroke-width=".43" cx="37.56"/>
 <circle r=".788" fill="none" stroke="#00AEEF" cy="19.75" stroke-width=".43" cx="34.578"/>
 <circle r=".787" fill="none" stroke="#00AEEF" cy="22.15" stroke-width=".43" cx="36.097"/>
 <circle r=".788" fill="none" stroke="#00AEEF" cy="21.176" stroke-width=".43" cx="40.109"/>
 <circle r=".787" fill="none" stroke="#00AEEF" cy="15.926" stroke-width=".43" cx="46.597"/>
 <circle r=".788" fill="none" stroke="#00AEEF" cy="15.925" stroke-width=".43" cx="41.665"/>
 <circle r=".788" fill="none" stroke="#00AEEF" cy="17.351" stroke-width=".43" cx="44.122"/>
 <path fill="none" d="M48.1 17.54c-.42.02-.75.36-.75.79s.33.76.75.78" stroke="#00AEEF" stroke-width=".43"/>
 <circle r=".788" fill="none" stroke="#00AEEF" cy="19.75" stroke-width=".43" cx="45.584"/>
 <circle r=".788" fill="none" stroke="#00AEEF" cy="19.75" stroke-width=".43" cx="42.603"/>
 <circle r=".788" fill="none" stroke="#00AEEF" cy="22.15" stroke-width=".43" cx="44.122"/>
 <path fill="none" d="M48.1 20.4c-.42 0-.75.35-.75.78 0 .42.33.76.75.78" stroke="#00AEEF" stroke-width=".43"/>
 <circle r=".788" fill="none" stroke="#00AEEF" cy="7.975" stroke-width=".43" cx="6.472"/>
 <circle r=".788" fill="none" stroke="#00AEEF" cy="7.975" stroke-width=".43" cx="1.54"/>
 <circle r=".788" fill="none" stroke="#00AEEF" cy="9.4" stroke-width=".43" cx="3.997"/>
 <circle r=".788" fill="none" stroke="#00AEEF" cy="10.375" stroke-width=".43" cx="8.009"/>
 <circle r=".788" fill="none" stroke="#00AEEF" cy="11.801" stroke-width=".43" cx="5.459"/>
 <circle r=".788" fill="none" stroke="#00AEEF" cy="11.8" stroke-width=".43" cx="2.478"/>
 <path fill="none" d="M0 11.16s0 0 .02 0c.44 0 .8-.35.8-.78 0-.44-.36-.8-.8-.8 0 0 0 0-.02 0M0 14s0 0 .02 0c.44 0 .8-.34.8-.77s-.36-.8-.8-.8c0 0 0 0-.02 0" stroke="#00AEEF" stroke-width=".43"/>
 <circle r=".788" fill="none" stroke="#00AEEF" cy="14.2" stroke-width=".43" cx="3.997"/>
 <circle r=".788" fill="none" stroke="#00AEEF" cy="13.226" stroke-width=".43" cx="8.009"/>
 <circle r=".788" fill="none" stroke="#00AEEF" cy="7.975" stroke-width=".43" cx="14.497"/>
 <circle r=".788" fill="none" stroke="#00AEEF" cy="7.975" stroke-width=".43" cx="9.565"/>
 <circle r=".788" fill="none" stroke="#00AEEF" cy="9.4" stroke-width=".43" cx="12.022"/>
 <circle r=".787" fill="none" stroke="#00AEEF" cy="10.375" stroke-width=".43" cx="16.034"/>
 <circle r=".788" fill="none" stroke="#00AEEF" cy="11.801" stroke-width=".43" cx="13.484"/>
 <circle r=".788" fill="none" stroke="#00AEEF" cy="11.8" stroke-width=".43" cx="10.503"/>
 <circle r=".788" fill="none" stroke="#00AEEF" cy="14.2" stroke-width=".43" cx="12.022"/>
 <circle r=".787" fill="none" stroke="#00AEEF" cy="13.226" stroke-width=".43" cx="16.034"/>
 <circle r=".788" fill="none" stroke="#00AEEF" cy="7.975" stroke-width=".43" cx="22.521"/>
 <circle r=".788" fill="none" stroke="#00AEEF" cy="7.975" stroke-width=".43" cx="17.591"/>
 <circle r=".788" fill="none" stroke="#00AEEF" cy="9.4" stroke-width=".43" cx="20.046"/>
 <circle r=".788" fill="none" stroke="#00AEEF" cy="10.375" stroke-width=".43" cx="24.059"/>
 <circle r=".788" fill="none" stroke="#00AEEF" cy="11.801" stroke-width=".43" cx="21.509"/>
 <circle r=".788" fill="none" stroke="#00AEEF" cy="11.8" stroke-width=".43" cx="18.528"/>
 <circle r=".788" fill="none" stroke="#00AEEF" cy="14.2" stroke-width=".43" cx="20.046"/>
 <circle r=".788" fill="none" stroke="#00AEEF" cy="13.226" stroke-width=".43" cx="24.059"/>
 <circle r=".788" fill="none" stroke="#00AEEF" cy="7.975" stroke-width=".43" cx="30.547"/>
 <circle r=".788" fill="none" stroke="#00AEEF" cy="7.975" stroke-width=".43" cx="25.615"/>
 <circle r=".788" fill="none" stroke="#00AEEF" cy="9.4" stroke-width=".43" cx="28.072"/>
 <circle r=".788" fill="none" stroke="#00AEEF" cy="10.375" stroke-width=".43" cx="32.084"/>
 <circle r=".787" fill="none" stroke="#00AEEF" cy="11.801" stroke-width=".43" cx="29.534"/>
 <circle r=".788" fill="none" stroke="#00AEEF" cy="11.8" stroke-width=".43" cx="26.553"/>
 <circle r=".788" fill="none" stroke="#00AEEF" cy="14.2" stroke-width=".43" cx="28.072"/>
 <circle r=".788" fill="none" stroke="#00AEEF" cy="13.226" stroke-width=".43" cx="32.084"/>
 <circle r=".788" fill="none" stroke="#00AEEF" cy="7.975" stroke-width=".43" cx="38.571"/>
 <circle r=".788" fill="none" stroke="#00AEEF" cy="7.975" stroke-width=".43" cx="33.641"/>
 <circle r=".787" fill="none" stroke="#00AEEF" cy="9.4" stroke-width=".43" cx="36.097"/>
 <circle r=".788" fill="none" stroke="#00AEEF" cy="10.375" stroke-width=".43" cx="40.109"/>
 <circle r=".788" fill="none" stroke="#00AEEF" cy="11.801" stroke-width=".43" cx="37.559"/>
 <circle r=".788" fill="none" stroke="#00AEEF" cy="11.8" stroke-width=".43" cx="34.578"/>
 <circle r=".787" fill="none" stroke="#00AEEF" cy="14.2" stroke-width=".43" cx="36.097"/>
 <circle r=".788" fill="none" stroke="#00AEEF" cy="13.226" stroke-width=".43" cx="40.109"/>
 <circle r=".788" fill="none" stroke="#00AEEF" cy="7.975" stroke-width=".43" cx="46.597"/>
 <circle r=".788" fill="none" stroke="#00AEEF" cy="7.975" stroke-width=".43" cx="41.665"/>
 <circle r=".788" fill="none" stroke="#00AEEF" cy="9.4" stroke-width=".43" cx="44.122"/>
 <path fill="none" d="M48.1 9.6c-.42 0-.75.35-.75.78 0 .42.33.76.75.78" stroke="#00AEEF" stroke-width=".43"/>
 <circle r=".788" fill="none" stroke="#00AEEF" cy="11.801" stroke-width=".43" cx="45.584"/>
 <circle r=".788" fill="none" stroke="#00AEEF" cy="11.8" stroke-width=".43" cx="42.603"/>
 <circle r=".788" fill="none" stroke="#00AEEF" cy="14.2" stroke-width=".43" cx="44.122"/>
 <path fill="none" d="M48.1 12.44c-.42.02-.75.36-.75.8s.33.75.75.77M5.7 0s-.02.02-.02.03c0 .43.36.78.8.78s.78-.34.78-.78c0 0 0 0 0-.02M.75 0s0 .02 0 .03c0 .43.36.78.8.78.43 0 .78-.34.78-.78 0 0 0 0 0-.02" stroke="#00AEEF" stroke-width=".43"/>
 <circle r=".788" fill="none" stroke="#00AEEF" cy="1.45" stroke-width=".43" cx="3.997"/>
 <circle r=".788" fill="none" stroke="#00AEEF" cy="2.426" stroke-width=".43" cx="8.009"/>
 <circle r=".788" fill="none" stroke="#00AEEF" cy="3.851" stroke-width=".43" cx="5.459"/>
 <circle r=".788" fill="none" stroke="#00AEEF" cy="3.85" stroke-width=".43" cx="2.478"/>
 <path fill="none" d="M0 3.2s0 0 .02 0c.44 0 .8-.34.8-.77 0-.44-.36-.8-.8-.8 0 0 0 0-.02 0M0 6.06s0 0 .02 0c.44 0 .8-.35.8-.78s-.36-.8-.8-.8c0 0 0 0-.02 0" stroke="#00AEEF" stroke-width=".43"/>
 <circle r=".788" fill="none" stroke="#00AEEF" cy="6.25" stroke-width=".43" cx="3.997"/>
 <circle r=".788" fill="none" stroke="#00AEEF" cy="5.275" stroke-width=".43" cx="8.009"/>
 <path fill="none" d="M13.7 0s0 .02 0 .03c0 .43.36.78.8.78.43 0 .78-.34.78-.78 0 0 0 0 0-.02M8.78 0s0 .02 0 .03c0 .43.35.78.8.78s.77-.34.77-.78c0 0 0 0 0-.02" stroke="#00AEEF" stroke-width=".43"/>
 <circle r=".788" fill="none" stroke="#00AEEF" cy="1.45" stroke-width=".43" cx="12.022"/>
 <circle r=".787" fill="none" stroke="#00AEEF" cy="2.426" stroke-width=".43" cx="16.034"/>
 <circle r=".788" fill="none" stroke="#00AEEF" cy="3.851" stroke-width=".43" cx="13.484"/>
 <circle r=".788" fill="none" stroke="#00AEEF" cy="3.85" stroke-width=".43" cx="10.503"/>
 <circle r=".788" fill="none" stroke="#00AEEF" cy="6.25" stroke-width=".43" cx="12.022"/>
 <circle r=".787" fill="none" stroke="#00AEEF" cy="5.275" stroke-width=".43" cx="16.034"/>
 <path fill="none" d="M21.74 0s0 .02 0 .03c0 .43.35.78.78.78s.8-.34.8-.78c0 0 0 0 0-.02M16.8 0s0 .02 0 .03c0 .43.36.78.8.78.43 0 .78-.34.78-.78 0 0 0 0 0-.02" stroke="#00AEEF" stroke-width=".43"/>
 <circle r=".788" fill="none" stroke="#00AEEF" cy="1.45" stroke-width=".43" cx="20.046"/>
 <circle r=".788" fill="none" stroke="#00AEEF" cy="2.426" stroke-width=".43" cx="24.059"/>
 <circle r=".788" fill="none" stroke="#00AEEF" cy="3.851" stroke-width=".43" cx="21.509"/>
 <circle r=".788" fill="none" stroke="#00AEEF" cy="3.85" stroke-width=".43" cx="18.528"/>
 <circle r=".788" fill="none" stroke="#00AEEF" cy="6.25" stroke-width=".43" cx="20.046"/>
 <circle r=".788" fill="none" stroke="#00AEEF" cy="5.275" stroke-width=".43" cx="24.059"/>
 <path fill="none" d="M29.76 0s0 .02 0 .03c0 .43.35.78.8.78s.77-.34.77-.78c0 0 0 0 0-.02M24.83 0s0 .02 0 .03c0 .43.35.78.8.78s.77-.34.77-.78c0 0 0 0 0-.02" stroke="#00AEEF" stroke-width=".43"/>
 <circle r=".788" fill="none" stroke="#00AEEF" cy="1.45" stroke-width=".43" cx="28.072"/>
 <circle r=".787" fill="none" stroke="#00AEEF" cy="3.851" stroke-width=".43" cx="29.534"/>
 <circle r=".788" fill="none" stroke="#00AEEF" cy="3.85" stroke-width=".43" cx="26.553"/>
 <circle r=".788" fill="none" stroke="#00AEEF" cy="6.25" stroke-width=".43" cx="28.072"/>
 <circle r=".788" fill="none" stroke="#00AEEF" cy="5.275" stroke-width=".43" cx="32.084"/>
 <path fill="none" d="M37.8 0s0 .02 0 .03c0 .43.34.78.77.78.44 0 .8-.34.8-.78 0 0 0 0 0-.02M32.85 0s0 .02 0 .03c0 .43.36.78.8.78s.78-.34.78-.78c0 0 0 0 0-.02" stroke="#00AEEF" stroke-width=".43"/>
 <circle r=".787" fill="none" stroke="#00AEEF" cy="1.45" stroke-width=".43" cx="36.097"/>
 <circle r=".788" fill="none" stroke="#00AEEF" cy="2.426" stroke-width=".43" cx="40.109"/>
 <circle r=".788" fill="none" stroke="#00AEEF" cy="3.851" stroke-width=".43" cx="37.559"/>
 <circle r=".788" fill="none" stroke="#00AEEF" cy="3.85" stroke-width=".43" cx="34.578"/>
 <circle r=".788" fill="none" stroke="#00AEEF" cy="2.426" stroke-width=".43" cx="32.122"/>
 <circle r=".787" fill="none" stroke="#00AEEF" cy="6.25" stroke-width=".43" cx="36.097"/>
 <circle r=".788" fill="none" stroke="#00AEEF" cy="5.275" stroke-width=".43" cx="40.109"/>
 <path fill="none" d="M45.8 0s0 .02 0 .03c0 .43.36.78.8.78s.78-.34.78-.78c0 0 0 0 0-.02M40.88 0s0 .02 0 .03c0 .43.35.78.78.78.44 0 .8-.34.8-.78 0 0 0 0 0-.02" stroke="#00AEEF" stroke-width=".43"/>
 <circle r=".788" fill="none" stroke="#00AEEF" cy="1.45" stroke-width=".43" cx="44.122"/>
 <path fill="none" d="M48.1 1.64c-.42.02-.75.36-.75.8 0 .4.33.75.75.77" stroke="#00AEEF" stroke-width=".43"/>
 <circle r=".788" fill="none" stroke="#00AEEF" cy="3.851" stroke-width=".43" cx="45.584"/>
 <circle r=".788" fill="none" stroke="#00AEEF" cy="3.85" stroke-width=".43" cx="42.603"/>
 <circle r=".788" fill="none" stroke="#00AEEF" cy="6.25" stroke-width=".43" cx="44.122"/>
 <path fill="none" d="M48.1 4.5c-.42 0-.75.35-.75.78s.33.76.75.78M42.45 47.72M40.88 47.72" stroke="#00AEEF" stroke-width=".43"/>
</svg>
