<?xml version="1.0"?>
<!-- Converted with SVG Converter - Version 0.9.5 (Compiled Fri Feb 21 09:53:38 2020) - Copyright (C) 2011 Nokia -->
<svg xmlns="http://www.w3.org/2000/svg" height="59.184" version="1.1" width="59.184" viewBox="1 -60.184 59.184 59.184" xml:space="preserve" x="0px" baseProfile="tiny" xmlns:xlink="http://www.w3.org/1999/xlink" y="0px">
 <g>
  <rect height="59.184" width="59.184" x="1" style="fill:none;" y="-60.184"/>
  <path d="M1-57.945c0.23-0.004,0.417-0.192,0.417-0.424c0-0.232-0.187-0.42-0.417-0.424"/>
  <circle cy="-58.369" cx="2.842" r="0.424"/>
  <circle cy="-58.369" cx="4.681" r="0.424"/>
  <circle cy="-58.36" cx="6.531" r="0.424"/>
  <circle cy="-58.379" cx="8.38" r="0.424"/>
  <path d="M1-56.096c0.23-0.004,0.417-0.192,0.417-0.424c0-0.232-0.187-0.42-0.417-0.424"/>
  <circle cy="-56.52" cx="2.842" r="0.424"/>
  <circle cy="-56.52" cx="4.681" r="0.424"/>
  <circle cy="-56.511" cx="6.531" r="0.424"/>
  <circle cy="-56.53" cx="8.38" r="0.424"/>
  <path d="M1-54.247c0.23-0.004,0.417-0.192,0.417-0.424c0-0.231-0.187-0.42-0.417-0.424"/>
  <circle cy="-54.671" cx="2.842" r="0.424"/>
  <circle cy="-54.671" cx="4.681" r="0.424"/>
  <circle cy="-54.661" cx="6.531" r="0.424"/>
  <circle cy="-54.68" cx="8.38" r="0.424"/>
  <path d="M1-52.398c0.23-0.004,0.417-0.192,0.417-0.424c0-0.231-0.187-0.42-0.417-0.424"/>
  <circle cy="-52.822" cx="2.842" r="0.424"/>
  <circle cy="-52.822" cx="4.681" r="0.424"/>
  <circle cy="-52.812" cx="6.531" r="0.424"/>
  <circle cy="-52.831" cx="8.38" r="0.424"/>
  <circle cy="-58.369" cx="10.242" r="0.424"/>
  <circle cy="-58.369" cx="12.081" r="0.424"/>
  <circle cy="-58.36" cx="13.93" r="0.424"/>
  <circle cy="-58.379" cx="15.78" r="0.424"/>
  <circle cy="-56.52" cx="10.242" r="0.424"/>
  <circle cy="-56.52" cx="12.081" r="0.424"/>
  <circle cy="-56.511" cx="13.93" r="0.424"/>
  <circle cy="-56.53" cx="15.78" r="0.424"/>
  <circle cy="-54.671" cx="10.242" r="0.424"/>
  <circle cy="-54.671" cx="12.081" r="0.424"/>
  <circle cy="-54.661" cx="13.93" r="0.424"/>
  <circle cy="-54.68" cx="15.78" r="0.424"/>
  <circle cy="-52.822" cx="10.242" r="0.424"/>
  <circle cy="-52.822" cx="12.081" r="0.424"/>
  <circle cy="-52.812" cx="13.93" r="0.424"/>
  <circle cy="-52.831" cx="15.78" r="0.424"/>
  <path d="M1-50.543c0.23-0.004,0.417-0.192,0.417-0.424c0-0.232-0.187-0.42-0.417-0.424"/>
  <circle cy="-50.967" cx="2.842" r="0.424"/>
  <circle cy="-50.967" cx="4.681" r="0.424"/>
  <circle cy="-50.958" cx="6.531" r="0.424"/>
  <circle cy="-50.977" cx="8.38" r="0.424"/>
  <path d="M1-48.694c0.23-0.004,0.417-0.192,0.417-0.424c0-0.232-0.187-0.42-0.417-0.424"/>
  <circle cy="-49.118" cx="2.842" r="0.424"/>
  <circle cy="-49.118" cx="4.681" r="0.424"/>
  <circle cy="-49.109" cx="6.531" r="0.424"/>
  <circle cy="-49.128" cx="8.38" r="0.424"/>
  <path d="M1-46.845c0.23-0.004,0.417-0.192,0.417-0.424c0-0.232-0.187-0.42-0.417-0.424"/>
  <circle cy="-47.269" cx="2.842" r="0.424"/>
  <circle cy="-47.269" cx="4.681" r="0.424"/>
  <circle cy="-47.259" cx="6.531" r="0.424"/>
  <circle cy="-47.279" cx="8.38" r="0.424"/>
  <path d="M1-44.996C1.23-45,1.417-45.188,1.417-45.42c0-0.232-0.187-0.42-0.417-0.424"/>
  <circle cy="-45.42" cx="2.842" r="0.424"/>
  <circle cy="-45.42" cx="4.681" r="0.424"/>
  <circle cy="-45.41" cx="6.531" r="0.424"/>
  <circle cy="-45.429" cx="8.38" r="0.424"/>
  <circle cy="-50.967" cx="10.242" r="0.424"/>
  <circle cy="-50.967" cx="12.081" r="0.424"/>
  <circle cy="-50.958" cx="13.93" r="0.424"/>
  <circle cy="-50.977" cx="15.78" r="0.424"/>
  <circle cy="-49.118" cx="10.242" r="0.424"/>
  <circle cy="-49.118" cx="12.081" r="0.424"/>
  <circle cy="-49.109" cx="13.93" r="0.424"/>
  <circle cy="-49.128" cx="15.78" r="0.424"/>
  <circle cy="-47.269" cx="10.242" r="0.424"/>
  <circle cy="-47.269" cx="12.081" r="0.424"/>
  <circle cy="-47.259" cx="13.93" r="0.424"/>
  <circle cy="-47.279" cx="15.78" r="0.424"/>
  <circle cy="-45.42" cx="10.242" r="0.424"/>
  <circle cy="-45.42" cx="12.081" r="0.424"/>
  <circle cy="-45.41" cx="13.93" r="0.424"/>
  <circle cy="-45.429" cx="15.78" r="0.424"/>
  <circle cy="-58.369" cx="17.629" r="0.424"/>
  <circle cy="-58.369" cx="19.469" r="0.424"/>
  <circle cy="-58.36" cx="21.318" r="0.424"/>
  <circle cy="-58.379" cx="23.167" r="0.424"/>
  <circle cy="-56.52" cx="17.629" r="0.424"/>
  <circle cy="-56.52" cx="19.469" r="0.424"/>
  <circle cy="-56.511" cx="21.318" r="0.424"/>
  <circle cy="-56.53" cx="23.167" r="0.424"/>
  <circle cy="-54.671" cx="17.629" r="0.424"/>
  <circle cy="-54.671" cx="19.469" r="0.424"/>
  <circle cy="-54.661" cx="21.318" r="0.424"/>
  <circle cy="-54.68" cx="23.167" r="0.424"/>
  <circle cy="-52.822" cx="17.629" r="0.424"/>
  <circle cy="-52.822" cx="19.469" r="0.424"/>
  <circle cy="-52.812" cx="21.318" r="0.424"/>
  <circle cy="-52.831" cx="23.167" r="0.424"/>
  <circle cy="-58.369" cx="25.029" r="0.424"/>
  <circle cy="-58.369" cx="26.869" r="0.424"/>
  <circle cy="-58.36" cx="28.718" r="0.424"/>
  <circle cy="-58.379" cx="30.567" r="0.424"/>
  <circle cy="-56.52" cx="25.029" r="0.424"/>
  <circle cy="-56.52" cx="26.869" r="0.424"/>
  <circle cy="-56.511" cx="28.718" r="0.424"/>
  <circle cy="-56.53" cx="30.567" r="0.424"/>
  <circle cy="-54.671" cx="25.029" r="0.424"/>
  <circle cy="-54.671" cx="26.869" r="0.424"/>
  <circle cy="-54.661" cx="28.718" r="0.424"/>
  <circle cy="-54.68" cx="30.567" r="0.424"/>
  <circle cy="-52.822" cx="25.029" r="0.424"/>
  <circle cy="-52.822" cx="26.869" r="0.424"/>
  <circle cy="-52.812" cx="28.718" r="0.424"/>
  <circle cy="-52.831" cx="30.567" r="0.424"/>
  <circle cy="-50.967" cx="17.629" r="0.424"/>
  <circle cy="-50.967" cx="19.469" r="0.424"/>
  <circle cy="-50.958" cx="21.318" r="0.424"/>
  <circle cy="-50.977" cx="23.167" r="0.424"/>
  <circle cy="-49.118" cx="17.629" r="0.424"/>
  <circle cy="-49.118" cx="19.469" r="0.424"/>
  <circle cy="-49.109" cx="21.318" r="0.424"/>
  <circle cy="-49.128" cx="23.167" r="0.424"/>
  <circle cy="-47.269" cx="17.629" r="0.424"/>
  <circle cy="-47.269" cx="19.469" r="0.424"/>
  <circle cy="-47.259" cx="21.318" r="0.424"/>
  <circle cy="-47.279" cx="23.167" r="0.424"/>
  <circle cy="-45.42" cx="17.629" r="0.424"/>
  <circle cy="-45.42" cx="19.469" r="0.424"/>
  <circle cy="-45.41" cx="21.318" r="0.424"/>
  <circle cy="-45.429" cx="23.167" r="0.424"/>
  <circle cy="-50.967" cx="25.029" r="0.424"/>
  <circle cy="-50.967" cx="26.869" r="0.424"/>
  <circle cy="-50.958" cx="28.718" r="0.424"/>
  <circle cy="-50.977" cx="30.567" r="0.424"/>
  <circle cy="-49.118" cx="25.029" r="0.424"/>
  <circle cy="-49.118" cx="26.869" r="0.424"/>
  <circle cy="-49.109" cx="28.718" r="0.424"/>
  <circle cy="-49.128" cx="30.567" r="0.424"/>
  <circle cy="-47.269" cx="25.029" r="0.424"/>
  <circle cy="-47.269" cx="26.869" r="0.424"/>
  <circle cy="-47.259" cx="28.718" r="0.424"/>
  <circle cy="-47.279" cx="30.567" r="0.424"/>
  <circle cy="-45.42" cx="25.029" r="0.424"/>
  <circle cy="-45.42" cx="26.869" r="0.424"/>
  <circle cy="-45.41" cx="28.718" r="0.424"/>
  <circle cy="-45.429" cx="30.567" r="0.424"/>
  <path d="M1-43.133c0.23-0.004,0.417-0.192,0.417-0.424c0-0.232-0.187-0.42-0.417-0.424"/>
  <circle cy="-43.557" cx="2.842" r="0.424"/>
  <circle cy="-43.557" cx="4.681" r="0.424"/>
  <circle cy="-43.547" cx="6.531" r="0.424"/>
  <circle cy="-43.566" cx="8.38" r="0.424"/>
  <path d="M1-41.284c0.23-0.004,0.417-0.192,0.417-0.424c0-0.232-0.187-0.42-0.417-0.424"/>
  <circle cy="-41.708" cx="2.842" r="0.424"/>
  <circle cy="-41.708" cx="4.681" r="0.424"/>
  <circle cy="-41.698" cx="6.531" r="0.424"/>
  <circle cy="-41.717" cx="8.38" r="0.424"/>
  <path d="M1-39.435c0.23-0.004,0.417-0.192,0.417-0.424c0-0.231-0.187-0.42-0.417-0.424"/>
  <circle cy="-39.858" cx="2.842" r="0.424"/>
  <circle cy="-39.858" cx="4.681" r="0.424"/>
  <circle cy="-39.849" cx="6.531" r="0.424"/>
  <circle cy="-39.868" cx="8.38" r="0.424"/>
  <path d="M1-37.585c0.23-0.004,0.417-0.192,0.417-0.424c0-0.231-0.187-0.42-0.417-0.424"/>
  <circle cy="-38.009" cx="2.842" r="0.424"/>
  <circle cy="-38.009" cx="4.681" r="0.424"/>
  <circle cy="-38" cx="6.531" r="0.424"/>
  <circle cy="-38.019" cx="8.38" r="0.424"/>
  <circle cy="-43.557" cx="10.242" r="0.424"/>
  <circle cy="-43.557" cx="12.081" r="0.424"/>
  <circle cy="-43.547" cx="13.93" r="0.424"/>
  <circle cy="-43.566" cx="15.78" r="0.424"/>
  <circle cy="-41.708" cx="10.242" r="0.424"/>
  <circle cy="-41.708" cx="12.081" r="0.424"/>
  <circle cy="-41.698" cx="13.93" r="0.424"/>
  <circle cy="-41.717" cx="15.78" r="0.424"/>
  <circle cy="-39.858" cx="10.242" r="0.424"/>
  <circle cy="-39.858" cx="12.081" r="0.424"/>
  <circle cy="-39.849" cx="13.93" r="0.424"/>
  <circle cy="-39.868" cx="15.78" r="0.424"/>
  <circle cy="-38.009" cx="10.242" r="0.424"/>
  <circle cy="-38.009" cx="12.081" r="0.424"/>
  <circle cy="-38" cx="13.93" r="0.424"/>
  <circle cy="-38.019" cx="15.78" r="0.424"/>
  <path d="M1-35.731c0.23-0.004,0.417-0.192,0.417-0.424c0-0.232-0.187-0.42-0.417-0.424"/>
  <circle cy="-36.155" cx="2.842" r="0.424"/>
  <circle cy="-36.155" cx="4.681" r="0.424"/>
  <circle cy="-36.146" cx="6.531" r="0.424"/>
  <circle cy="-36.165" cx="8.38" r="0.424"/>
  <path d="M1-33.882c0.23-0.004,0.417-0.192,0.417-0.424c0-0.232-0.187-0.42-0.417-0.424"/>
  <circle cy="-34.306" cx="2.842" r="0.424"/>
  <circle cy="-34.306" cx="4.681" r="0.424"/>
  <circle cy="-34.296" cx="6.531" r="0.424"/>
  <circle cy="-34.315" cx="8.38" r="0.424"/>
  <path d="M1-32.033c0.23-0.004,0.417-0.192,0.417-0.424c0-0.232-0.187-0.42-0.417-0.424"/>
  <circle cy="-32.457" cx="2.842" r="0.424"/>
  <circle cy="-32.457" cx="4.681" r="0.424"/>
  <circle cy="-32.447" cx="6.531" r="0.424"/>
  <circle cy="-32.466" cx="8.38" r="0.424"/>
  <path d="M1-30.184c0.23-0.004,0.417-0.192,0.417-0.424c0-0.231-0.187-0.42-0.417-0.424"/>
  <circle cy="-30.607" cx="2.842" r="0.424"/>
  <circle cy="-30.607" cx="4.681" r="0.424"/>
  <circle cy="-30.598" cx="6.531" r="0.424"/>
  <circle cy="-30.617" cx="8.38" r="0.424"/>
  <circle cy="-36.155" cx="10.242" r="0.424"/>
  <circle cy="-36.155" cx="12.081" r="0.424"/>
  <circle cy="-36.146" cx="13.93" r="0.424"/>
  <circle cy="-36.165" cx="15.78" r="0.424"/>
  <circle cy="-34.306" cx="10.242" r="0.424"/>
  <circle cy="-34.306" cx="12.081" r="0.424"/>
  <circle cy="-34.296" cx="13.93" r="0.424"/>
  <circle cy="-34.315" cx="15.78" r="0.424"/>
  <circle cy="-32.457" cx="10.242" r="0.424"/>
  <circle cy="-32.457" cx="12.081" r="0.424"/>
  <circle cy="-32.447" cx="13.93" r="0.424"/>
  <circle cy="-32.466" cx="15.78" r="0.424"/>
  <circle cy="-30.607" cx="10.242" r="0.424"/>
  <circle cy="-30.607" cx="12.081" r="0.424"/>
  <circle cy="-30.598" cx="13.93" r="0.424"/>
  <circle cy="-30.617" cx="15.78" r="0.424"/>
  <circle cy="-43.557" cx="17.629" r="0.424"/>
  <circle cy="-43.557" cx="19.469" r="0.424"/>
  <circle cy="-43.547" cx="21.318" r="0.424"/>
  <circle cy="-43.566" cx="23.167" r="0.424"/>
  <circle cy="-41.708" cx="17.629" r="0.424"/>
  <circle cy="-41.708" cx="19.469" r="0.424"/>
  <circle cy="-41.698" cx="21.318" r="0.424"/>
  <circle cy="-41.717" cx="23.167" r="0.424"/>
  <circle cy="-39.858" cx="17.629" r="0.424"/>
  <circle cy="-39.858" cx="19.469" r="0.424"/>
  <circle cy="-39.849" cx="21.318" r="0.424"/>
  <circle cy="-39.868" cx="23.167" r="0.424"/>
  <circle cy="-38.009" cx="17.629" r="0.424"/>
  <circle cy="-38.009" cx="19.469" r="0.424"/>
  <circle cy="-38" cx="21.318" r="0.424"/>
  <circle cy="-38.019" cx="23.167" r="0.424"/>
  <circle cy="-43.557" cx="25.029" r="0.424"/>
  <circle cy="-43.557" cx="26.869" r="0.424"/>
  <circle cy="-43.547" cx="28.718" r="0.424"/>
  <circle cy="-43.566" cx="30.567" r="0.424"/>
  <circle cy="-41.708" cx="25.029" r="0.424"/>
  <circle cy="-41.708" cx="26.869" r="0.424"/>
  <circle cy="-41.698" cx="28.718" r="0.424"/>
  <circle cy="-41.717" cx="30.567" r="0.424"/>
  <circle cy="-39.858" cx="25.029" r="0.424"/>
  <circle cy="-39.858" cx="26.869" r="0.424"/>
  <circle cy="-39.849" cx="28.718" r="0.424"/>
  <circle cy="-39.868" cx="30.567" r="0.424"/>
  <circle cy="-38.009" cx="25.029" r="0.424"/>
  <circle cy="-38.009" cx="26.869" r="0.424"/>
  <circle cy="-38" cx="28.718" r="0.424"/>
  <circle cy="-38.019" cx="30.567" r="0.424"/>
  <circle cy="-36.155" cx="17.629" r="0.424"/>
  <circle cy="-36.155" cx="19.469" r="0.424"/>
  <circle cy="-36.146" cx="21.318" r="0.424"/>
  <circle cy="-36.165" cx="23.167" r="0.424"/>
  <circle cy="-34.306" cx="17.629" r="0.424"/>
  <circle cy="-34.306" cx="19.469" r="0.424"/>
  <circle cy="-34.296" cx="21.318" r="0.424"/>
  <circle cy="-34.315" cx="23.167" r="0.424"/>
  <circle cy="-32.457" cx="17.629" r="0.424"/>
  <circle cy="-32.457" cx="19.469" r="0.424"/>
  <circle cy="-32.447" cx="21.318" r="0.424"/>
  <circle cy="-32.466" cx="23.167" r="0.424"/>
  <circle cy="-30.607" cx="17.629" r="0.424"/>
  <circle cy="-30.607" cx="19.469" r="0.424"/>
  <circle cy="-30.598" cx="21.318" r="0.424"/>
  <circle cy="-30.617" cx="23.167" r="0.424"/>
  <circle cy="-36.155" cx="25.029" r="0.424"/>
  <circle cy="-36.155" cx="26.869" r="0.424"/>
  <circle cy="-36.146" cx="28.718" r="0.424"/>
  <circle cy="-36.165" cx="30.567" r="0.424"/>
  <circle cy="-34.306" cx="25.029" r="0.424"/>
  <circle cy="-34.306" cx="26.869" r="0.424"/>
  <circle cy="-34.296" cx="28.718" r="0.424"/>
  <circle cy="-34.315" cx="30.567" r="0.424"/>
  <circle cy="-32.457" cx="25.029" r="0.424"/>
  <circle cy="-32.457" cx="26.869" r="0.424"/>
  <circle cy="-32.447" cx="28.718" r="0.424"/>
  <circle cy="-32.466" cx="30.567" r="0.424"/>
  <circle cy="-30.607" cx="25.029" r="0.424"/>
  <circle cy="-30.607" cx="26.869" r="0.424"/>
  <circle cy="-30.598" cx="28.718" r="0.424"/>
  <circle cy="-30.617" cx="30.567" r="0.424"/>
  <path d="M1-28.334c0.23-0.004,0.417-0.192,0.417-0.424c0-0.231-0.187-0.419-0.417-0.423"/>
  <circle cy="-28.758" cx="2.842" r="0.424"/>
  <circle cy="-28.758" cx="4.681" r="0.424"/>
  <circle cy="-28.749" cx="6.531" r="0.424"/>
  <circle cy="-28.768" cx="8.38" r="0.424"/>
  <path d="M1-26.485c0.23-0.004,0.417-0.192,0.417-0.423c0-0.232-0.187-0.42-0.417-0.424"/>
  <circle cy="-26.909" cx="2.842" r="0.424"/>
  <circle cy="-26.909" cx="4.681" r="0.424"/>
  <circle cy="-26.899" cx="6.531" r="0.424"/>
  <circle cy="-26.918" cx="8.38" r="0.424"/>
  <path d="M1-24.636c0.23-0.004,0.417-0.192,0.417-0.423c0-0.232-0.187-0.42-0.417-0.424"/>
  <circle cy="-25.06" cx="2.842" r="0.424"/>
  <circle cy="-25.06" cx="4.681" r="0.424"/>
  <circle cy="-25.05" cx="6.531" r="0.424"/>
  <circle cy="-25.069" cx="8.38" r="0.424"/>
  <path d="M1-22.787c0.23-0.004,0.417-0.192,0.417-0.424c0-0.232-0.187-0.42-0.417-0.424"/>
  <circle cy="-23.21" cx="2.842" r="0.424"/>
  <circle cy="-23.21" cx="4.681" r="0.424"/>
  <circle cy="-23.201" cx="6.531" r="0.424"/>
  <circle cy="-23.22" cx="8.38" r="0.424"/>
  <circle cy="-28.758" cx="10.242" r="0.424"/>
  <circle cy="-28.758" cx="12.081" r="0.424"/>
  <circle cy="-28.749" cx="13.93" r="0.424"/>
  <circle cy="-28.768" cx="15.78" r="0.424"/>
  <circle cy="-26.909" cx="10.242" r="0.424"/>
  <circle cy="-26.909" cx="12.081" r="0.424"/>
  <circle cy="-26.899" cx="13.93" r="0.424"/>
  <circle cy="-26.918" cx="15.78" r="0.424"/>
  <circle cy="-25.06" cx="10.242" r="0.424"/>
  <circle cy="-25.06" cx="12.081" r="0.424"/>
  <circle cy="-25.05" cx="13.93" r="0.424"/>
  <circle cy="-25.069" cx="15.78" r="0.424"/>
  <circle cy="-23.21" cx="10.242" r="0.424"/>
  <circle cy="-23.21" cx="12.081" r="0.424"/>
  <circle cy="-23.201" cx="13.93" r="0.424"/>
  <circle cy="-23.22" cx="15.78" r="0.424"/>
  <path d="M1-20.933c0.23-0.004,0.417-0.192,0.417-0.424c0-0.232-0.187-0.42-0.417-0.424"/>
  <circle cy="-21.356" cx="2.842" r="0.424"/>
  <circle cy="-21.356" cx="4.681" r="0.424"/>
  <circle cy="-21.347" cx="6.531" r="0.424"/>
  <circle cy="-21.366" cx="8.38" r="0.424"/>
  <path d="M1-19.083c0.23-0.004,0.417-0.192,0.417-0.424c0-0.232-0.187-0.42-0.417-0.423"/>
  <circle cy="-19.507" cx="2.842" r="0.424"/>
  <circle cy="-19.507" cx="4.681" r="0.424"/>
  <circle cy="-19.498" cx="6.531" r="0.424"/>
  <circle cy="-19.517" cx="8.38" r="0.424"/>
  <path d="M1-17.234c0.23-0.004,0.417-0.192,0.417-0.423c0-0.232-0.187-0.42-0.417-0.424"/>
  <circle cy="-17.658" cx="2.842" r="0.424"/>
  <circle cy="-17.658" cx="4.681" r="0.424"/>
  <circle cy="-17.648" cx="6.531" r="0.424"/>
  <circle cy="-17.667" cx="8.38" r="0.424"/>
  <path d="M1-15.385c0.23-0.004,0.417-0.192,0.417-0.424c0-0.232-0.187-0.42-0.417-0.424"/>
  <circle cy="-15.809" cx="2.842" r="0.424"/>
  <circle cy="-15.809" cx="4.681" r="0.424"/>
  <circle cy="-15.799" cx="6.531" r="0.424"/>
  <circle cy="-15.818" cx="8.38" r="0.424"/>
  <circle cy="-21.356" cx="10.242" r="0.424"/>
  <circle cy="-21.356" cx="12.081" r="0.424"/>
  <circle cy="-21.347" cx="13.93" r="0.424"/>
  <circle cy="-21.366" cx="15.78" r="0.424"/>
  <circle cy="-19.507" cx="10.242" r="0.424"/>
  <circle cy="-19.507" cx="12.081" r="0.424"/>
  <circle cy="-19.498" cx="13.93" r="0.424"/>
  <circle cy="-19.517" cx="15.78" r="0.424"/>
  <circle cy="-17.658" cx="10.242" r="0.424"/>
  <circle cy="-17.658" cx="12.081" r="0.424"/>
  <circle cy="-17.648" cx="13.93" r="0.424"/>
  <circle cy="-17.667" cx="15.78" r="0.424"/>
  <circle cy="-15.809" cx="10.242" r="0.424"/>
  <circle cy="-15.809" cx="12.081" r="0.424"/>
  <circle cy="-15.799" cx="13.93" r="0.424"/>
  <circle cy="-15.818" cx="15.78" r="0.424"/>
  <circle cy="-28.758" cx="17.629" r="0.424"/>
  <circle cy="-28.758" cx="19.469" r="0.424"/>
  <circle cy="-28.749" cx="21.318" r="0.424"/>
  <circle cy="-28.768" cx="23.167" r="0.424"/>
  <circle cy="-26.909" cx="17.629" r="0.424"/>
  <circle cy="-26.909" cx="19.469" r="0.424"/>
  <circle cy="-26.899" cx="21.318" r="0.424"/>
  <circle cy="-26.918" cx="23.167" r="0.424"/>
  <circle cy="-25.06" cx="17.629" r="0.424"/>
  <circle cy="-25.06" cx="19.469" r="0.424"/>
  <circle cy="-25.05" cx="21.318" r="0.424"/>
  <circle cy="-25.069" cx="23.167" r="0.424"/>
  <circle cy="-23.21" cx="17.629" r="0.424"/>
  <circle cy="-23.21" cx="19.469" r="0.424"/>
  <circle cy="-23.201" cx="21.318" r="0.424"/>
  <circle cy="-23.22" cx="23.167" r="0.424"/>
  <circle cy="-28.758" cx="25.029" r="0.424"/>
  <circle cy="-28.758" cx="26.869" r="0.424"/>
  <circle cy="-28.749" cx="28.718" r="0.424"/>
  <circle cy="-28.768" cx="30.567" r="0.424"/>
  <circle cy="-26.909" cx="25.029" r="0.424"/>
  <circle cy="-26.909" cx="26.869" r="0.424"/>
  <circle cy="-26.899" cx="28.718" r="0.424"/>
  <circle cy="-26.918" cx="30.567" r="0.424"/>
  <circle cy="-25.06" cx="25.029" r="0.424"/>
  <circle cy="-25.06" cx="26.869" r="0.424"/>
  <circle cy="-25.05" cx="28.718" r="0.424"/>
  <circle cy="-25.069" cx="30.567" r="0.424"/>
  <circle cy="-23.21" cx="25.029" r="0.424"/>
  <circle cy="-23.21" cx="26.869" r="0.424"/>
  <circle cy="-23.201" cx="28.718" r="0.424"/>
  <circle cy="-23.22" cx="30.567" r="0.424"/>
  <circle cy="-21.356" cx="17.629" r="0.424"/>
  <circle cy="-21.356" cx="19.469" r="0.424"/>
  <circle cy="-21.347" cx="21.318" r="0.424"/>
  <circle cy="-21.366" cx="23.167" r="0.424"/>
  <circle cy="-19.507" cx="17.629" r="0.424"/>
  <circle cy="-19.507" cx="19.469" r="0.424"/>
  <circle cy="-19.498" cx="21.318" r="0.424"/>
  <circle cy="-19.517" cx="23.167" r="0.424"/>
  <circle cy="-17.658" cx="17.629" r="0.424"/>
  <circle cy="-17.658" cx="19.469" r="0.424"/>
  <circle cy="-17.648" cx="21.318" r="0.424"/>
  <circle cy="-17.667" cx="23.167" r="0.424"/>
  <circle cy="-15.809" cx="17.629" r="0.424"/>
  <circle cy="-15.809" cx="19.469" r="0.424"/>
  <circle cy="-15.799" cx="21.318" r="0.424"/>
  <circle cy="-15.818" cx="23.167" r="0.424"/>
  <circle cy="-21.356" cx="25.029" r="0.424"/>
  <circle cy="-21.356" cx="26.869" r="0.424"/>
  <circle cy="-21.347" cx="28.718" r="0.424"/>
  <circle cy="-21.366" cx="30.567" r="0.424"/>
  <circle cy="-19.507" cx="25.029" r="0.424"/>
  <circle cy="-19.507" cx="26.869" r="0.424"/>
  <circle cy="-19.498" cx="28.718" r="0.424"/>
  <circle cy="-19.517" cx="30.567" r="0.424"/>
  <circle cy="-17.658" cx="25.029" r="0.424"/>
  <circle cy="-17.658" cx="26.869" r="0.424"/>
  <circle cy="-17.648" cx="28.718" r="0.424"/>
  <circle cy="-17.667" cx="30.567" r="0.424"/>
  <circle cy="-15.809" cx="25.029" r="0.424"/>
  <circle cy="-15.809" cx="26.869" r="0.424"/>
  <circle cy="-15.799" cx="28.718" r="0.424"/>
  <circle cy="-15.818" cx="30.567" r="0.424"/>
  <path d="M1-13.522c0.23-0.004,0.417-0.192,0.417-0.424c0-0.231-0.187-0.419-0.417-0.423"/>
  <circle cy="-13.946" cx="2.842" r="0.424"/>
  <circle cy="-13.946" cx="4.681" r="0.424"/>
  <circle cy="-13.936" cx="6.531" r="0.424"/>
  <circle cy="-13.955" cx="8.38" r="0.424"/>
  <path d="M1-11.673c0.23-0.004,0.417-0.192,0.417-0.423c0-0.232-0.187-0.42-0.417-0.424"/>
  <circle cy="-12.096" cx="2.842" r="0.424"/>
  <circle cy="-12.096" cx="4.681" r="0.424"/>
  <circle cy="-12.087" cx="6.531" r="0.424"/>
  <circle cy="-12.106" cx="8.38" r="0.424"/>
  <path d="M1-9.824c0.23-0.004,0.417-0.192,0.417-0.423c0-0.232-0.187-0.42-0.417-0.424"/>
  <circle cy="-10.247" cx="2.842" r="0.424"/>
  <circle cy="-10.247" cx="4.681" r="0.424"/>
  <circle cy="-10.238" cx="6.531" r="0.424"/>
  <circle cy="-10.257" cx="8.38" r="0.424"/>
  <path d="M1-7.974c0.23-0.004,0.417-0.192,0.417-0.424C1.417-8.63,1.23-8.818,1-8.822"/>
  <circle cy="-8.398" cx="2.842" r="0.424"/>
  <circle cy="-8.398" cx="4.681" r="0.424"/>
  <circle cy="-8.389" cx="6.531" r="0.424"/>
  <circle cy="-8.408" cx="8.38" r="0.424"/>
  <circle cy="-13.946" cx="10.242" r="0.424"/>
  <circle cy="-13.946" cx="12.081" r="0.424"/>
  <circle cy="-13.936" cx="13.93" r="0.424"/>
  <circle cy="-13.955" cx="15.78" r="0.424"/>
  <circle cy="-12.096" cx="10.242" r="0.424"/>
  <circle cy="-12.096" cx="12.081" r="0.424"/>
  <circle cy="-12.087" cx="13.93" r="0.424"/>
  <circle cy="-12.106" cx="15.78" r="0.424"/>
  <circle cy="-10.247" cx="10.242" r="0.424"/>
  <circle cy="-10.247" cx="12.081" r="0.424"/>
  <circle cy="-10.238" cx="13.93" r="0.424"/>
  <circle cy="-10.257" cx="15.78" r="0.424"/>
  <circle cy="-8.398" cx="10.242" r="0.424"/>
  <circle cy="-8.398" cx="12.081" r="0.424"/>
  <circle cy="-8.389" cx="13.93" r="0.424"/>
  <circle cy="-8.408" cx="15.78" r="0.424"/>
  <path d="M1-6.12c0.23-0.004,0.417-0.192,0.417-0.424c0-0.232-0.187-0.42-0.417-0.424"/>
  <circle cy="-6.544" cx="2.842" r="0.424"/>
  <circle cy="-6.544" cx="4.681" r="0.424"/>
  <circle cy="-6.534" cx="6.531" r="0.424"/>
  <circle cy="-6.553" cx="8.38" r="0.424"/>
  <path d="M1-4.271c0.23-0.004,0.417-0.192,0.417-0.424C1.417-4.926,1.23-5.114,1-5.118"/>
  <circle cy="-4.695" cx="2.842" r="0.424"/>
  <circle cy="-4.695" cx="4.681" r="0.424"/>
  <circle cy="-4.685" cx="6.531" r="0.424"/>
  <circle cy="-4.704" cx="8.38" r="0.424"/>
  <path d="M1-2.422c0.23-0.004,0.417-0.192,0.417-0.423c0-0.232-0.187-0.42-0.417-0.424"/>
  <circle cy="-2.845" cx="2.842" r="0.424"/>
  <circle cy="-2.845" cx="4.681" r="0.424"/>
  <circle cy="-2.836" cx="6.531" r="0.424"/>
  <circle cy="-2.855" cx="8.38" r="0.424"/>
  <path d="M3.266-1C3.264-1.232,3.075-1.42,2.842-1.42C2.609-1.42,2.42-1.232,2.418-1"/>
  <path d="M1.009-1v-0.42c0.233,0,0.422,0.188,0.424,0.42H1.009"/>
  <path d="M4.257-1C4.26-1.232,4.448-1.42,4.681-1.42c0.233,0,0.422,0.188,0.424,0.42"/>
  <path d="M6.954-1C6.947-1.227,6.76-1.411,6.531-1.411C6.3-1.411,6.114-1.227,6.107-1"/>
  <path d="M8.804-1c0-0.002,0-0.004,0-0.006c0-0.234-0.19-0.424-0.424-0.424c-0.234,0-0.424,0.19-0.424,0.424    c0,0.002,0.001,0.004,0.001,0.006"/>
  <circle cy="-6.544" cx="10.242" r="0.424"/>
  <circle cy="-6.544" cx="12.081" r="0.424"/>
  <circle cy="-6.534" cx="13.93" r="0.424"/>
  <circle cy="-6.553" cx="15.78" r="0.424"/>
  <circle cy="-4.695" cx="10.242" r="0.424"/>
  <circle cy="-4.695" cx="12.081" r="0.424"/>
  <circle cy="-4.685" cx="13.93" r="0.424"/>
  <circle cy="-4.704" cx="15.78" r="0.424"/>
  <circle cy="-2.845" cx="10.242" r="0.424"/>
  <circle cy="-2.845" cx="12.081" r="0.424"/>
  <circle cy="-2.836" cx="13.93" r="0.424"/>
  <circle cy="-2.855" cx="15.78" r="0.424"/>
  <path d="M9.817-1c0.002-0.232,0.191-0.42,0.424-0.42c0.232,0,0.422,0.188,0.424,0.42"/>
  <path d="M12.505-1c-0.002-0.232-0.191-0.42-0.424-0.42c-0.233,0-0.422,0.188-0.424,0.42"/>
  <path d="M13.507-1c0.007-0.227,0.193-0.411,0.423-0.411c0.23,0,0.417,0.184,0.424,0.411"/>
  <path d="M16.203-1c0-0.002,0-0.004,0-0.006c0-0.234-0.19-0.424-0.424-0.424c-0.235,0-0.424,0.19-0.424,0.424    c0,0.002,0,0.004,0,0.006"/>
  <circle cy="-13.946" cx="17.629" r="0.424"/>
  <circle cy="-13.946" cx="19.469" r="0.424"/>
  <circle cy="-13.936" cx="21.318" r="0.424"/>
  <circle cy="-13.955" cx="23.167" r="0.424"/>
  <circle cy="-12.096" cx="17.629" r="0.424"/>
  <circle cy="-12.096" cx="19.469" r="0.424"/>
  <circle cy="-12.087" cx="21.318" r="0.424"/>
  <circle cy="-12.106" cx="23.167" r="0.424"/>
  <circle cy="-10.247" cx="17.629" r="0.424"/>
  <circle cy="-10.247" cx="19.469" r="0.424"/>
  <circle cy="-10.238" cx="21.318" r="0.424"/>
  <circle cy="-10.257" cx="23.167" r="0.424"/>
  <circle cy="-8.398" cx="17.629" r="0.424"/>
  <circle cy="-8.398" cx="19.469" r="0.424"/>
  <circle cy="-8.389" cx="21.318" r="0.424"/>
  <circle cy="-8.408" cx="23.167" r="0.424"/>
  <circle cy="-13.946" cx="25.029" r="0.424"/>
  <circle cy="-13.946" cx="26.869" r="0.424"/>
  <circle cy="-13.936" cx="28.718" r="0.424"/>
  <circle cy="-13.955" cx="30.567" r="0.424"/>
  <circle cy="-12.096" cx="25.029" r="0.424"/>
  <circle cy="-12.096" cx="26.869" r="0.424"/>
  <circle cy="-12.087" cx="28.718" r="0.424"/>
  <circle cy="-12.106" cx="30.567" r="0.424"/>
  <circle cy="-10.247" cx="25.029" r="0.424"/>
  <circle cy="-10.247" cx="26.869" r="0.424"/>
  <circle cy="-10.238" cx="28.718" r="0.424"/>
  <circle cy="-10.257" cx="30.567" r="0.424"/>
  <circle cy="-8.398" cx="25.029" r="0.424"/>
  <circle cy="-8.398" cx="26.869" r="0.424"/>
  <circle cy="-8.389" cx="28.718" r="0.424"/>
  <circle cy="-8.408" cx="30.567" r="0.424"/>
  <circle cy="-6.544" cx="17.629" r="0.424"/>
  <circle cy="-6.544" cx="19.469" r="0.424"/>
  <circle cy="-6.534" cx="21.318" r="0.424"/>
  <circle cy="-6.553" cx="23.167" r="0.424"/>
  <circle cy="-4.695" cx="17.629" r="0.424"/>
  <circle cy="-4.695" cx="19.469" r="0.424"/>
  <circle cy="-4.685" cx="21.318" r="0.424"/>
  <circle cy="-4.704" cx="23.167" r="0.424"/>
  <circle cy="-2.845" cx="17.629" r="0.424"/>
  <circle cy="-2.845" cx="19.469" r="0.424"/>
  <circle cy="-2.836" cx="21.318" r="0.424"/>
  <circle cy="-2.855" cx="23.167" r="0.424"/>
  <path d="M17.205-1c0.002-0.232,0.192-0.42,0.424-0.42c0.233,0,0.422,0.188,0.424,0.42"/>
  <path d="M19.893-1c-0.003-0.232-0.191-0.42-0.424-0.42c-0.233,0-0.422,0.188-0.424,0.42"/>
  <path d="M20.895-1c0.007-0.227,0.194-0.411,0.424-0.411c0.229,0,0.417,0.184,0.424,0.411"/>
  <path d="M23.591-1c0-0.002,0.001-0.004,0.001-0.006c0-0.234-0.19-0.424-0.424-0.424s-0.424,0.19-0.424,0.424    c0,0.002,0,0.004,0,0.006"/>
  <circle cy="-6.544" cx="25.029" r="0.424"/>
  <circle cy="-6.544" cx="26.869" r="0.424"/>
  <circle cy="-6.534" cx="28.718" r="0.424"/>
  <circle cy="-6.553" cx="30.567" r="0.424"/>
  <circle cy="-4.695" cx="25.029" r="0.424"/>
  <circle cy="-4.695" cx="26.869" r="0.424"/>
  <circle cy="-4.685" cx="28.718" r="0.424"/>
  <circle cy="-4.704" cx="30.567" r="0.424"/>
  <circle cy="-2.845" cx="25.029" r="0.424"/>
  <circle cy="-2.845" cx="26.869" r="0.424"/>
  <circle cy="-2.836" cx="28.718" r="0.424"/>
  <circle cy="-2.855" cx="30.567" r="0.424"/>
  <path d="M24.605-1c0.002-0.232,0.191-0.42,0.424-0.42c0.233,0,0.422,0.188,0.424,0.42"/>
  <path d="M27.293-1c-0.002-0.232-0.191-0.42-0.424-0.42c-0.233,0-0.421,0.188-0.424,0.42"/>
  <path d="M28.294-1c0.007-0.227,0.193-0.411,0.424-0.411c0.229,0,0.416,0.184,0.423,0.411"/>
  <path d="M30.991-1c0-0.002,0-0.004,0-0.006c0-0.234-0.19-0.424-0.424-0.424c-0.234,0-0.424,0.19-0.424,0.424    c0,0.002,0,0.004,0,0.006"/>
  <circle cy="-58.369" cx="32.405" r="0.424"/>
  <circle cy="-58.369" cx="34.244" r="0.424"/>
  <circle cy="-58.36" cx="36.093" r="0.424"/>
  <circle cy="-58.379" cx="37.943" r="0.424"/>
  <circle cy="-56.52" cx="32.405" r="0.424"/>
  <circle cy="-56.52" cx="34.244" r="0.424"/>
  <circle cy="-56.511" cx="36.093" r="0.424"/>
  <circle cy="-56.53" cx="37.943" r="0.424"/>
  <circle cy="-54.671" cx="32.405" r="0.424"/>
  <circle cy="-54.671" cx="34.244" r="0.424"/>
  <circle cy="-54.661" cx="36.093" r="0.424"/>
  <circle cy="-54.68" cx="37.943" r="0.424"/>
  <circle cy="-52.822" cx="32.405" r="0.424"/>
  <circle cy="-52.822" cx="34.244" r="0.424"/>
  <circle cy="-52.812" cx="36.093" r="0.424"/>
  <circle cy="-52.831" cx="37.943" r="0.424"/>
  <circle cy="-58.369" cx="39.804" r="0.424"/>
  <circle cy="-58.369" cx="41.644" r="0.424"/>
  <circle cy="-58.36" cx="43.493" r="0.424"/>
  <circle cy="-58.379" cx="45.342" r="0.424"/>
  <circle cy="-56.52" cx="39.804" r="0.424"/>
  <circle cy="-56.52" cx="41.644" r="0.424"/>
  <circle cy="-56.511" cx="43.493" r="0.424"/>
  <circle cy="-56.53" cx="45.342" r="0.424"/>
  <circle cy="-54.671" cx="39.804" r="0.424"/>
  <circle cy="-54.671" cx="41.644" r="0.424"/>
  <circle cy="-54.661" cx="43.493" r="0.424"/>
  <circle cy="-54.68" cx="45.342" r="0.424"/>
  <circle cy="-52.822" cx="39.804" r="0.424"/>
  <circle cy="-52.822" cx="41.644" r="0.424"/>
  <circle cy="-52.812" cx="43.493" r="0.424"/>
  <circle cy="-52.831" cx="45.342" r="0.424"/>
  <circle cy="-50.967" cx="32.405" r="0.424"/>
  <circle cy="-50.967" cx="34.244" r="0.424"/>
  <circle cy="-50.958" cx="36.093" r="0.424"/>
  <circle cy="-50.977" cx="37.943" r="0.424"/>
  <circle cy="-49.118" cx="32.405" r="0.424"/>
  <circle cy="-49.118" cx="34.244" r="0.424"/>
  <circle cy="-49.109" cx="36.093" r="0.424"/>
  <circle cy="-49.128" cx="37.943" r="0.424"/>
  <circle cy="-47.269" cx="32.405" r="0.424"/>
  <circle cy="-47.269" cx="34.244" r="0.424"/>
  <circle cy="-47.259" cx="36.093" r="0.424"/>
  <circle cy="-47.279" cx="37.943" r="0.424"/>
  <circle cy="-45.42" cx="32.405" r="0.424"/>
  <circle cy="-45.42" cx="34.244" r="0.424"/>
  <circle cy="-45.41" cx="36.093" r="0.424"/>
  <circle cy="-45.429" cx="37.943" r="0.424"/>
  <circle cy="-50.967" cx="39.804" r="0.424"/>
  <circle cy="-50.967" cx="41.644" r="0.424"/>
  <circle cy="-50.958" cx="43.493" r="0.424"/>
  <circle cy="-50.977" cx="45.342" r="0.424"/>
  <circle cy="-49.118" cx="39.804" r="0.424"/>
  <circle cy="-49.118" cx="41.644" r="0.424"/>
  <circle cy="-49.109" cx="43.493" r="0.424"/>
  <circle cy="-49.128" cx="45.342" r="0.424"/>
  <circle cy="-47.269" cx="39.804" r="0.424"/>
  <circle cy="-47.269" cx="41.644" r="0.424"/>
  <circle cy="-47.259" cx="43.493" r="0.424"/>
  <circle cy="-47.279" cx="45.342" r="0.424"/>
  <circle cy="-45.42" cx="39.804" r="0.424"/>
  <circle cy="-45.42" cx="41.644" r="0.424"/>
  <circle cy="-45.41" cx="43.493" r="0.424"/>
  <circle cy="-45.429" cx="45.342" r="0.424"/>
  <circle cy="-58.369" cx="47.192" r="0.424"/>
  <circle cy="-58.369" cx="49.032" r="0.424"/>
  <circle cy="-58.36" cx="50.881" r="0.424"/>
  <circle cy="-58.379" cx="52.73" r="0.424"/>
  <circle cy="-56.52" cx="47.192" r="0.424"/>
  <circle cy="-56.52" cx="49.032" r="0.424"/>
  <circle cy="-56.511" cx="50.881" r="0.424"/>
  <circle cy="-56.53" cx="52.73" r="0.424"/>
  <circle cy="-54.671" cx="47.192" r="0.424"/>
  <circle cy="-54.671" cx="49.032" r="0.424"/>
  <circle cy="-54.661" cx="50.881" r="0.424"/>
  <circle cy="-54.68" cx="52.73" r="0.424"/>
  <circle cy="-52.822" cx="47.192" r="0.424"/>
  <circle cy="-52.822" cx="49.032" r="0.424"/>
  <circle cy="-52.812" cx="50.881" r="0.424"/>
  <circle cy="-52.831" cx="52.73" r="0.424"/>
  <circle cy="-58.369" cx="54.592" r="0.424"/>
  <circle cy="-58.369" cx="56.432" r="0.424"/>
  <circle cy="-58.36" cx="58.281" r="0.424"/>
  <path d="M60.184-58.799c-0.018-0.002-0.036-0.004-0.054-0.004c-0.234,0-0.424,0.19-0.424,0.424c0,0.234,0.189,0.424,0.424,0.424    c0.018,0,0.037-0.001,0.054-0.004"/>
  <circle cy="-56.52" cx="54.592" r="0.424"/>
  <circle cy="-56.52" cx="56.432" r="0.424"/>
  <circle cy="-56.511" cx="58.281" r="0.424"/>
  <path d="M60.184-56.95c-0.018-0.002-0.036-0.004-0.054-0.004c-0.234,0-0.424,0.189-0.424,0.424c0,0.234,0.189,0.424,0.424,0.424    c0.018,0,0.037-0.001,0.054-0.004"/>
  <circle cy="-54.671" cx="54.592" r="0.424"/>
  <circle cy="-54.671" cx="56.432" r="0.424"/>
  <circle cy="-54.661" cx="58.281" r="0.424"/>
  <path d="M60.184-55.101c-0.018-0.002-0.036-0.004-0.054-0.004c-0.234,0-0.424,0.189-0.424,0.424c0,0.234,0.189,0.424,0.424,0.424    c0.018,0,0.037-0.001,0.054-0.004"/>
  <circle cy="-52.822" cx="54.592" r="0.424"/>
  <circle cy="-52.822" cx="56.432" r="0.424"/>
  <circle cy="-52.812" cx="58.281" r="0.424"/>
  <path d="M60.184-53.251c-0.018-0.002-0.036-0.004-0.054-0.004c-0.234,0-0.424,0.19-0.424,0.424c0,0.234,0.189,0.424,0.424,0.424    c0.018,0,0.037-0.001,0.054-0.004"/>
  <circle cy="-50.967" cx="47.192" r="0.424"/>
  <circle cy="-50.967" cx="49.032" r="0.424"/>
  <circle cy="-50.958" cx="50.881" r="0.424"/>
  <circle cy="-50.977" cx="52.73" r="0.424"/>
  <circle cy="-49.118" cx="47.192" r="0.424"/>
  <circle cy="-49.118" cx="49.032" r="0.424"/>
  <circle cy="-49.109" cx="50.881" r="0.424"/>
  <circle cy="-49.128" cx="52.73" r="0.424"/>
  <circle cy="-47.269" cx="47.192" r="0.424"/>
  <circle cy="-47.269" cx="49.032" r="0.424"/>
  <circle cy="-47.259" cx="50.881" r="0.424"/>
  <circle cy="-47.279" cx="52.73" r="0.424"/>
  <circle cy="-45.42" cx="47.192" r="0.424"/>
  <circle cy="-45.42" cx="49.032" r="0.424"/>
  <circle cy="-45.41" cx="50.881" r="0.424"/>
  <circle cy="-45.429" cx="52.73" r="0.424"/>
  <circle cy="-50.967" cx="54.592" r="0.424"/>
  <circle cy="-50.967" cx="56.432" r="0.424"/>
  <circle cy="-50.958" cx="58.281" r="0.424"/>
  <path d="M60.184-51.397c-0.018-0.002-0.036-0.004-0.054-0.004c-0.234,0-0.424,0.19-0.424,0.424c0,0.234,0.189,0.424,0.424,0.424    c0.018,0,0.037-0.001,0.054-0.004"/>
  <circle cy="-49.118" cx="54.592" r="0.424"/>
  <circle cy="-49.118" cx="56.432" r="0.424"/>
  <circle cy="-49.109" cx="58.281" r="0.424"/>
  <path d="M60.184-49.548c-0.018-0.002-0.036-0.004-0.054-0.004c-0.234,0-0.424,0.19-0.424,0.424c0,0.234,0.189,0.424,0.424,0.424    c0.018,0,0.037-0.001,0.054-0.004"/>
  <circle cy="-47.269" cx="54.592" r="0.424"/>
  <circle cy="-47.269" cx="56.432" r="0.424"/>
  <circle cy="-47.259" cx="58.281" r="0.424"/>
  <path d="M60.184-47.699c-0.018-0.002-0.036-0.004-0.054-0.004c-0.234,0-0.424,0.189-0.424,0.424c0,0.234,0.189,0.424,0.424,0.424    c0.018,0,0.037-0.001,0.054-0.004"/>
  <circle cy="-45.42" cx="54.592" r="0.424"/>
  <circle cy="-45.42" cx="56.432" r="0.424"/>
  <circle cy="-45.41" cx="58.281" r="0.424"/>
  <path d="M60.184-45.85c-0.018-0.002-0.036-0.004-0.054-0.004c-0.234,0-0.424,0.189-0.424,0.424c0,0.234,0.189,0.424,0.424,0.424    c0.018,0,0.037-0.001,0.054-0.004"/>
  <circle cy="-43.557" cx="32.405" r="0.424"/>
  <circle cy="-43.557" cx="34.244" r="0.424"/>
  <circle cy="-43.547" cx="36.093" r="0.424"/>
  <circle cy="-43.566" cx="37.943" r="0.424"/>
  <circle cy="-41.708" cx="32.405" r="0.424"/>
  <circle cy="-41.708" cx="34.244" r="0.424"/>
  <circle cy="-41.698" cx="36.093" r="0.424"/>
  <circle cy="-41.717" cx="37.943" r="0.424"/>
  <circle cy="-39.858" cx="32.405" r="0.424"/>
  <circle cy="-39.858" cx="34.244" r="0.424"/>
  <circle cy="-39.849" cx="36.093" r="0.424"/>
  <circle cy="-39.868" cx="37.943" r="0.424"/>
  <circle cy="-38.009" cx="32.405" r="0.424"/>
  <circle cy="-38.009" cx="34.244" r="0.424"/>
  <circle cy="-38" cx="36.093" r="0.424"/>
  <circle cy="-38.019" cx="37.943" r="0.424"/>
  <circle cy="-43.557" cx="39.804" r="0.424"/>
  <circle cy="-43.557" cx="41.644" r="0.424"/>
  <circle cy="-43.547" cx="43.493" r="0.424"/>
  <circle cy="-43.566" cx="45.342" r="0.424"/>
  <circle cy="-41.708" cx="39.804" r="0.424"/>
  <circle cy="-41.708" cx="41.644" r="0.424"/>
  <circle cy="-41.698" cx="43.493" r="0.424"/>
  <circle cy="-41.717" cx="45.342" r="0.424"/>
  <circle cy="-39.858" cx="39.804" r="0.424"/>
  <circle cy="-39.858" cx="41.644" r="0.424"/>
  <circle cy="-39.849" cx="43.493" r="0.424"/>
  <circle cy="-39.868" cx="45.342" r="0.424"/>
  <circle cy="-38.009" cx="39.804" r="0.424"/>
  <circle cy="-38.009" cx="41.644" r="0.424"/>
  <circle cy="-38" cx="43.493" r="0.424"/>
  <circle cy="-38.019" cx="45.342" r="0.424"/>
  <circle cy="-36.155" cx="32.405" r="0.424"/>
  <circle cy="-36.155" cx="34.244" r="0.424"/>
  <circle cy="-36.146" cx="36.093" r="0.424"/>
  <circle cy="-36.165" cx="37.943" r="0.424"/>
  <circle cy="-34.306" cx="32.405" r="0.424"/>
  <circle cy="-34.306" cx="34.244" r="0.424"/>
  <circle cy="-34.296" cx="36.093" r="0.424"/>
  <circle cy="-34.315" cx="37.943" r="0.424"/>
  <circle cy="-32.457" cx="32.405" r="0.424"/>
  <circle cy="-32.457" cx="34.244" r="0.424"/>
  <circle cy="-32.447" cx="36.093" r="0.424"/>
  <circle cy="-32.466" cx="37.943" r="0.424"/>
  <circle cy="-30.607" cx="32.405" r="0.424"/>
  <circle cy="-30.607" cx="34.244" r="0.424"/>
  <circle cy="-30.598" cx="36.093" r="0.424"/>
  <circle cy="-30.617" cx="37.943" r="0.424"/>
  <circle cy="-36.155" cx="39.804" r="0.424"/>
  <circle cy="-36.155" cx="41.644" r="0.424"/>
  <circle cy="-36.146" cx="43.493" r="0.424"/>
  <circle cy="-36.165" cx="45.342" r="0.424"/>
  <circle cy="-34.306" cx="39.804" r="0.424"/>
  <circle cy="-34.306" cx="41.644" r="0.424"/>
  <circle cy="-34.296" cx="43.493" r="0.424"/>
  <circle cy="-34.315" cx="45.342" r="0.424"/>
  <circle cy="-32.457" cx="39.804" r="0.424"/>
  <circle cy="-32.457" cx="41.644" r="0.424"/>
  <circle cy="-32.447" cx="43.493" r="0.424"/>
  <circle cy="-32.466" cx="45.342" r="0.424"/>
  <circle cy="-30.607" cx="39.804" r="0.424"/>
  <circle cy="-30.607" cx="41.644" r="0.424"/>
  <circle cy="-30.598" cx="43.493" r="0.424"/>
  <circle cy="-30.617" cx="45.342" r="0.424"/>
  <circle cy="-43.557" cx="47.192" r="0.424"/>
  <circle cy="-43.557" cx="49.032" r="0.424"/>
  <circle cy="-43.547" cx="50.881" r="0.424"/>
  <circle cy="-43.566" cx="52.73" r="0.424"/>
  <circle cy="-41.708" cx="47.192" r="0.424"/>
  <circle cy="-41.708" cx="49.032" r="0.424"/>
  <circle cy="-41.698" cx="50.881" r="0.424"/>
  <circle cy="-41.717" cx="52.73" r="0.424"/>
  <circle cy="-39.858" cx="47.192" r="0.424"/>
  <circle cy="-39.858" cx="49.032" r="0.424"/>
  <circle cy="-39.849" cx="50.881" r="0.424"/>
  <circle cy="-39.868" cx="52.73" r="0.424"/>
  <circle cy="-38.009" cx="47.192" r="0.424"/>
  <circle cy="-38.009" cx="49.032" r="0.424"/>
  <circle cy="-38" cx="50.881" r="0.424"/>
  <circle cy="-38.019" cx="52.73" r="0.424"/>
  <circle cy="-43.557" cx="54.592" r="0.424"/>
  <circle cy="-43.557" cx="56.432" r="0.424"/>
  <circle cy="-43.547" cx="58.281" r="0.424"/>
  <path d="M60.184-43.987c-0.018-0.002-0.036-0.004-0.054-0.004c-0.234,0-0.424,0.19-0.424,0.424c0,0.234,0.189,0.424,0.424,0.424    c0.018,0,0.037-0.001,0.054-0.004"/>
  <circle cy="-41.708" cx="54.592" r="0.424"/>
  <circle cy="-41.708" cx="56.432" r="0.424"/>
  <circle cy="-41.698" cx="58.281" r="0.424"/>
  <path d="M60.184-42.137c-0.018-0.002-0.036-0.004-0.054-0.004c-0.234,0-0.424,0.189-0.424,0.424c0,0.234,0.189,0.424,0.424,0.424    c0.018,0,0.037-0.001,0.054-0.004"/>
  <circle cy="-39.858" cx="54.592" r="0.424"/>
  <circle cy="-39.858" cx="56.432" r="0.424"/>
  <circle cy="-39.849" cx="58.281" r="0.424"/>
  <path d="M60.184-40.288c-0.018-0.002-0.036-0.004-0.054-0.004c-0.234,0-0.424,0.189-0.424,0.424c0,0.234,0.189,0.424,0.424,0.424    c0.018,0,0.037-0.001,0.054-0.004"/>
  <circle cy="-38.009" cx="54.592" r="0.424"/>
  <circle cy="-38.009" cx="56.432" r="0.424"/>
  <circle cy="-38" cx="58.281" r="0.424"/>
  <path d="M60.184-38.439c-0.018-0.002-0.036-0.004-0.054-0.004c-0.234,0-0.424,0.19-0.424,0.424c0,0.234,0.189,0.424,0.424,0.424    c0.018,0,0.037-0.001,0.054-0.004"/>
  <circle cy="-36.155" cx="47.192" r="0.424"/>
  <circle cy="-36.155" cx="49.032" r="0.424"/>
  <circle cy="-36.146" cx="50.881" r="0.424"/>
  <circle cy="-36.165" cx="52.73" r="0.424"/>
  <circle cy="-34.306" cx="47.192" r="0.424"/>
  <circle cy="-34.306" cx="49.032" r="0.424"/>
  <circle cy="-34.296" cx="50.881" r="0.424"/>
  <circle cy="-34.315" cx="52.73" r="0.424"/>
  <circle cy="-32.457" cx="47.192" r="0.424"/>
  <circle cy="-32.457" cx="49.032" r="0.424"/>
  <circle cy="-32.447" cx="50.881" r="0.424"/>
  <circle cy="-32.466" cx="52.73" r="0.424"/>
  <circle cy="-30.607" cx="47.192" r="0.424"/>
  <circle cy="-30.607" cx="49.032" r="0.424"/>
  <circle cy="-30.598" cx="50.881" r="0.424"/>
  <circle cy="-30.617" cx="52.73" r="0.424"/>
  <circle cy="-36.155" cx="54.592" r="0.424"/>
  <circle cy="-36.155" cx="56.432" r="0.424"/>
  <circle cy="-36.146" cx="58.281" r="0.424"/>
  <path d="M60.184-36.585c-0.018-0.002-0.036-0.004-0.054-0.004c-0.234,0-0.424,0.19-0.424,0.424c0,0.234,0.189,0.424,0.424,0.424    c0.018,0,0.037-0.001,0.054-0.004"/>
  <circle cy="-34.306" cx="54.592" r="0.424"/>
  <circle cy="-34.306" cx="56.432" r="0.424"/>
  <circle cy="-34.296" cx="58.281" r="0.424"/>
  <path d="M60.184-34.736c-0.018-0.002-0.036-0.004-0.054-0.004c-0.234,0-0.424,0.19-0.424,0.424c0,0.234,0.189,0.424,0.424,0.424    c0.018,0,0.037-0.001,0.054-0.004"/>
  <circle cy="-32.457" cx="54.592" r="0.424"/>
  <circle cy="-32.457" cx="56.432" r="0.424"/>
  <circle cy="-32.447" cx="58.281" r="0.424"/>
  <path d="M60.184-32.886c-0.018-0.002-0.036-0.004-0.054-0.004c-0.234,0-0.424,0.189-0.424,0.424c0,0.234,0.189,0.424,0.424,0.424    c0.018,0,0.037-0.001,0.054-0.004"/>
  <circle cy="-30.607" cx="54.592" r="0.424"/>
  <circle cy="-30.607" cx="56.432" r="0.424"/>
  <circle cy="-30.598" cx="58.281" r="0.424"/>
  <path d="M60.184-31.037c-0.018-0.003-0.036-0.004-0.054-0.004c-0.234,0-0.424,0.189-0.424,0.424c0,0.234,0.189,0.424,0.424,0.424    c0.018,0,0.037-0.001,0.054-0.004"/>
  <circle cy="-28.758" cx="32.405" r="0.424"/>
  <circle cy="-28.758" cx="34.244" r="0.424"/>
  <circle cy="-28.749" cx="36.093" r="0.424"/>
  <circle cy="-28.768" cx="37.943" r="0.424"/>
  <circle cy="-26.909" cx="32.405" r="0.424"/>
  <circle cy="-26.909" cx="34.244" r="0.424"/>
  <circle cy="-26.899" cx="36.093" r="0.424"/>
  <circle cy="-26.918" cx="37.943" r="0.424"/>
  <circle cy="-25.06" cx="32.405" r="0.424"/>
  <circle cy="-25.06" cx="34.244" r="0.424"/>
  <circle cy="-25.05" cx="36.093" r="0.424"/>
  <circle cy="-25.069" cx="37.943" r="0.424"/>
  <circle cy="-23.21" cx="32.405" r="0.424"/>
  <circle cy="-23.21" cx="34.244" r="0.424"/>
  <circle cy="-23.201" cx="36.093" r="0.424"/>
  <circle cy="-23.22" cx="37.943" r="0.424"/>
  <circle cy="-28.758" cx="39.804" r="0.424"/>
  <circle cy="-28.758" cx="41.644" r="0.424"/>
  <circle cy="-28.749" cx="43.493" r="0.424"/>
  <circle cy="-28.768" cx="45.342" r="0.424"/>
  <circle cy="-26.909" cx="39.804" r="0.424"/>
  <circle cy="-26.909" cx="41.644" r="0.424"/>
  <circle cy="-26.899" cx="43.493" r="0.424"/>
  <circle cy="-26.918" cx="45.342" r="0.424"/>
  <circle cy="-25.06" cx="39.804" r="0.424"/>
  <circle cy="-25.06" cx="41.644" r="0.424"/>
  <circle cy="-25.05" cx="43.493" r="0.424"/>
  <circle cy="-25.069" cx="45.342" r="0.424"/>
  <circle cy="-23.21" cx="39.804" r="0.424"/>
  <circle cy="-23.21" cx="41.644" r="0.424"/>
  <circle cy="-23.201" cx="43.493" r="0.424"/>
  <circle cy="-23.22" cx="45.342" r="0.424"/>
  <circle cy="-21.356" cx="32.405" r="0.424"/>
  <circle cy="-21.356" cx="34.244" r="0.424"/>
  <circle cy="-21.347" cx="36.093" r="0.424"/>
  <circle cy="-21.366" cx="37.943" r="0.424"/>
  <circle cy="-19.507" cx="32.405" r="0.424"/>
  <circle cy="-19.507" cx="34.244" r="0.424"/>
  <circle cy="-19.498" cx="36.093" r="0.424"/>
  <circle cy="-19.517" cx="37.943" r="0.424"/>
  <circle cy="-17.658" cx="32.405" r="0.424"/>
  <circle cy="-17.658" cx="34.244" r="0.424"/>
  <circle cy="-17.648" cx="36.093" r="0.424"/>
  <circle cy="-17.667" cx="37.943" r="0.424"/>
  <circle cy="-15.809" cx="32.405" r="0.424"/>
  <circle cy="-15.809" cx="34.244" r="0.424"/>
  <circle cy="-15.799" cx="36.093" r="0.424"/>
  <circle cy="-15.818" cx="37.943" r="0.424"/>
  <circle cy="-21.356" cx="39.804" r="0.424"/>
  <circle cy="-21.356" cx="41.644" r="0.424"/>
  <circle cy="-21.347" cx="43.493" r="0.424"/>
  <circle cy="-21.366" cx="45.342" r="0.424"/>
  <circle cy="-19.507" cx="39.804" r="0.424"/>
  <circle cy="-19.507" cx="41.644" r="0.424"/>
  <circle cy="-19.498" cx="43.493" r="0.424"/>
  <circle cy="-19.517" cx="45.342" r="0.424"/>
  <circle cy="-17.658" cx="39.804" r="0.424"/>
  <circle cy="-17.658" cx="41.644" r="0.424"/>
  <circle cy="-17.648" cx="43.493" r="0.424"/>
  <circle cy="-17.667" cx="45.342" r="0.424"/>
  <circle cy="-15.809" cx="39.804" r="0.424"/>
  <circle cy="-15.809" cx="41.644" r="0.424"/>
  <circle cy="-15.799" cx="43.493" r="0.424"/>
  <circle cy="-15.818" cx="45.342" r="0.424"/>
  <circle cy="-28.758" cx="47.192" r="0.424"/>
  <circle cy="-28.758" cx="49.032" r="0.424"/>
  <circle cy="-28.749" cx="50.881" r="0.424"/>
  <circle cy="-28.768" cx="52.73" r="0.424"/>
  <circle cy="-26.909" cx="47.192" r="0.424"/>
  <circle cy="-26.909" cx="49.032" r="0.424"/>
  <circle cy="-26.899" cx="50.881" r="0.424"/>
  <circle cy="-26.918" cx="52.73" r="0.424"/>
  <circle cy="-25.06" cx="47.192" r="0.424"/>
  <circle cy="-25.06" cx="49.032" r="0.424"/>
  <circle cy="-25.05" cx="50.881" r="0.424"/>
  <circle cy="-25.069" cx="52.73" r="0.424"/>
  <circle cy="-23.21" cx="47.192" r="0.424"/>
  <circle cy="-23.21" cx="49.032" r="0.424"/>
  <circle cy="-23.201" cx="50.881" r="0.424"/>
  <circle cy="-23.22" cx="52.73" r="0.424"/>
  <circle cy="-28.758" cx="54.592" r="0.424"/>
  <circle cy="-28.758" cx="56.432" r="0.424"/>
  <circle cy="-28.749" cx="58.281" r="0.424"/>
  <path d="M60.184-29.188c-0.018-0.002-0.036-0.004-0.054-0.004c-0.234,0-0.424,0.19-0.424,0.424c0,0.234,0.189,0.424,0.424,0.424    c0.018,0,0.037-0.001,0.054-0.004"/>
  <circle cy="-26.909" cx="54.592" r="0.424"/>
  <circle cy="-26.909" cx="56.432" r="0.424"/>
  <circle cy="-26.899" cx="58.281" r="0.424"/>
  <path d="M60.184-27.339c-0.018-0.002-0.036-0.004-0.054-0.004c-0.234,0-0.424,0.19-0.424,0.424c0,0.234,0.189,0.424,0.424,0.424    c0.018,0,0.037-0.001,0.054-0.004"/>
  <circle cy="-25.06" cx="54.592" r="0.424"/>
  <circle cy="-25.06" cx="56.432" r="0.424"/>
  <circle cy="-25.05" cx="58.281" r="0.424"/>
  <path d="M60.184-25.49c-0.018-0.003-0.036-0.004-0.054-0.004c-0.234,0-0.424,0.19-0.424,0.424c0,0.234,0.189,0.424,0.424,0.424    c0.018,0,0.037-0.001,0.054-0.004"/>
  <circle cy="-23.21" cx="54.592" r="0.424"/>
  <circle cy="-23.21" cx="56.432" r="0.424"/>
  <circle cy="-23.201" cx="58.281" r="0.424"/>
  <path d="M60.184-23.641c-0.018-0.003-0.036-0.004-0.054-0.004c-0.234,0-0.424,0.19-0.424,0.424s0.189,0.424,0.424,0.424    c0.018,0,0.037-0.001,0.054-0.004"/>
  <circle cy="-21.356" cx="47.192" r="0.424"/>
  <circle cy="-21.356" cx="49.032" r="0.424"/>
  <circle cy="-21.347" cx="50.881" r="0.424"/>
  <circle cy="-21.366" cx="52.73" r="0.424"/>
  <circle cy="-19.507" cx="47.192" r="0.424"/>
  <circle cy="-19.507" cx="49.032" r="0.424"/>
  <circle cy="-19.498" cx="50.881" r="0.424"/>
  <circle cy="-19.517" cx="52.73" r="0.424"/>
  <circle cy="-17.658" cx="47.192" r="0.424"/>
  <circle cy="-17.658" cx="49.032" r="0.424"/>
  <circle cy="-17.648" cx="50.881" r="0.424"/>
  <circle cy="-17.667" cx="52.73" r="0.424"/>
  <circle cy="-15.809" cx="47.192" r="0.424"/>
  <circle cy="-15.809" cx="49.032" r="0.424"/>
  <circle cy="-15.799" cx="50.881" r="0.424"/>
  <circle cy="-15.818" cx="52.73" r="0.424"/>
  <circle cy="-21.356" cx="54.592" r="0.424"/>
  <circle cy="-21.356" cx="56.432" r="0.424"/>
  <circle cy="-21.347" cx="58.281" r="0.424"/>
  <path d="M60.184-21.786c-0.018-0.003-0.036-0.004-0.054-0.004c-0.234,0-0.424,0.189-0.424,0.424c0,0.234,0.189,0.424,0.424,0.424    c0.018,0,0.037-0.001,0.054-0.004"/>
  <circle cy="-19.507" cx="54.592" r="0.424"/>
  <circle cy="-19.507" cx="56.432" r="0.424"/>
  <circle cy="-19.498" cx="58.281" r="0.424"/>
  <path d="M60.184-19.937c-0.018-0.003-0.036-0.004-0.054-0.004c-0.234,0-0.424,0.19-0.424,0.424c0,0.234,0.189,0.424,0.424,0.424    c0.018,0,0.037-0.001,0.054-0.004"/>
  <circle cy="-17.658" cx="54.592" r="0.424"/>
  <circle cy="-17.658" cx="56.432" r="0.424"/>
  <circle cy="-17.648" cx="58.281" r="0.424"/>
  <path d="M60.184-18.088c-0.018-0.002-0.036-0.004-0.054-0.004c-0.234,0-0.424,0.19-0.424,0.424s0.189,0.424,0.424,0.424    c0.018,0,0.037-0.001,0.054-0.004"/>
  <circle cy="-15.809" cx="54.592" r="0.424"/>
  <circle cy="-15.809" cx="56.432" r="0.424"/>
  <circle cy="-15.799" cx="58.281" r="0.424"/>
  <path d="M60.184-16.239c-0.018-0.002-0.036-0.004-0.054-0.004c-0.234,0-0.424,0.19-0.424,0.424c0,0.234,0.189,0.424,0.424,0.424    c0.018,0,0.037-0.002,0.054-0.004"/>
  <circle cy="-13.946" cx="32.405" r="0.424"/>
  <circle cy="-13.946" cx="34.244" r="0.424"/>
  <circle cy="-13.936" cx="36.093" r="0.424"/>
  <circle cy="-13.955" cx="37.943" r="0.424"/>
  <circle cy="-12.096" cx="32.405" r="0.424"/>
  <circle cy="-12.096" cx="34.244" r="0.424"/>
  <circle cy="-12.087" cx="36.093" r="0.424"/>
  <circle cy="-12.106" cx="37.943" r="0.424"/>
  <circle cy="-10.247" cx="32.405" r="0.424"/>
  <circle cy="-10.247" cx="34.244" r="0.424"/>
  <circle cy="-10.238" cx="36.093" r="0.424"/>
  <circle cy="-10.257" cx="37.943" r="0.424"/>
  <circle cy="-8.398" cx="32.405" r="0.424"/>
  <circle cy="-8.398" cx="34.244" r="0.424"/>
  <circle cy="-8.389" cx="36.093" r="0.424"/>
  <circle cy="-8.408" cx="37.943" r="0.424"/>
  <circle cy="-13.946" cx="39.804" r="0.424"/>
  <circle cy="-13.946" cx="41.644" r="0.424"/>
  <circle cy="-13.936" cx="43.493" r="0.424"/>
  <circle cy="-13.955" cx="45.342" r="0.424"/>
  <circle cy="-12.096" cx="39.804" r="0.424"/>
  <circle cy="-12.096" cx="41.644" r="0.424"/>
  <circle cy="-12.087" cx="43.493" r="0.424"/>
  <circle cy="-12.106" cx="45.342" r="0.424"/>
  <circle cy="-10.247" cx="39.804" r="0.424"/>
  <circle cy="-10.247" cx="41.644" r="0.424"/>
  <circle cy="-10.238" cx="43.493" r="0.424"/>
  <circle cy="-10.257" cx="45.342" r="0.424"/>
  <circle cy="-8.398" cx="39.804" r="0.424"/>
  <circle cy="-8.398" cx="41.644" r="0.424"/>
  <circle cy="-8.389" cx="43.493" r="0.424"/>
  <circle cy="-8.408" cx="45.342" r="0.424"/>
  <circle cy="-6.544" cx="32.405" r="0.424"/>
  <circle cy="-6.544" cx="34.244" r="0.424"/>
  <circle cy="-6.534" cx="36.093" r="0.424"/>
  <circle cy="-6.553" cx="37.943" r="0.424"/>
  <circle cy="-4.695" cx="32.405" r="0.424"/>
  <circle cy="-4.695" cx="34.244" r="0.424"/>
  <circle cy="-4.685" cx="36.093" r="0.424"/>
  <circle cy="-4.704" cx="37.943" r="0.424"/>
  <circle cy="-2.845" cx="32.405" r="0.424"/>
  <circle cy="-2.845" cx="34.244" r="0.424"/>
  <circle cy="-2.836" cx="36.093" r="0.424"/>
  <circle cy="-2.855" cx="37.943" r="0.424"/>
  <path d="M31.98-1c0.002-0.232,0.191-0.42,0.424-0.42c0.232,0,0.421,0.188,0.424,0.42"/>
  <path d="M34.668-1c-0.002-0.232-0.191-0.42-0.424-0.42c-0.233,0-0.422,0.188-0.424,0.42"/>
  <path d="M35.669-1c0.007-0.227,0.194-0.411,0.424-0.411c0.23,0,0.417,0.184,0.424,0.411"/>
  <path d="M38.366-1c0-0.002,0-0.004,0-0.006c0-0.234-0.19-0.424-0.424-0.424c-0.234,0-0.424,0.19-0.424,0.424    c0,0.002,0,0.004,0,0.006"/>
  <circle cy="-6.544" cx="39.804" r="0.424"/>
  <circle cy="-6.544" cx="41.644" r="0.424"/>
  <circle cy="-6.534" cx="43.493" r="0.424"/>
  <circle cy="-6.553" cx="45.342" r="0.424"/>
  <circle cy="-4.695" cx="39.804" r="0.424"/>
  <circle cy="-4.695" cx="41.644" r="0.424"/>
  <circle cy="-4.685" cx="43.493" r="0.424"/>
  <circle cy="-4.704" cx="45.342" r="0.424"/>
  <circle cy="-2.845" cx="39.804" r="0.424"/>
  <circle cy="-2.845" cx="41.644" r="0.424"/>
  <circle cy="-2.836" cx="43.493" r="0.424"/>
  <circle cy="-2.855" cx="45.342" r="0.424"/>
  <path d="M39.38-1c0.002-0.232,0.191-0.42,0.424-0.42c0.233,0,0.422,0.188,0.424,0.42"/>
  <path d="M42.068-1c-0.003-0.232-0.191-0.42-0.424-0.42c-0.233,0-0.422,0.188-0.424,0.42"/>
  <path d="M43.069-1c0.007-0.227,0.194-0.411,0.424-0.411c0.23,0,0.417,0.184,0.424,0.411"/>
  <path d="M45.766-1c0-0.002,0-0.004,0-0.006c0-0.234-0.19-0.424-0.424-0.424c-0.234,0-0.424,0.19-0.424,0.424    c0,0.002,0,0.004,0,0.006"/>
  <circle cy="-13.946" cx="47.192" r="0.424"/>
  <circle cy="-13.946" cx="49.032" r="0.424"/>
  <circle cy="-13.936" cx="50.881" r="0.424"/>
  <circle cy="-13.955" cx="52.73" r="0.424"/>
  <circle cy="-12.096" cx="47.192" r="0.424"/>
  <circle cy="-12.096" cx="49.032" r="0.424"/>
  <circle cy="-12.087" cx="50.881" r="0.424"/>
  <circle cy="-12.106" cx="52.73" r="0.424"/>
  <circle cy="-10.247" cx="47.192" r="0.424"/>
  <circle cy="-10.247" cx="49.032" r="0.424"/>
  <circle cy="-10.238" cx="50.881" r="0.424"/>
  <circle cy="-10.257" cx="52.73" r="0.424"/>
  <circle cy="-8.398" cx="47.192" r="0.424"/>
  <circle cy="-8.398" cx="49.032" r="0.424"/>
  <circle cy="-8.389" cx="50.881" r="0.424"/>
  <circle cy="-8.408" cx="52.73" r="0.424"/>
  <circle cy="-13.946" cx="54.592" r="0.424"/>
  <circle cy="-13.946" cx="56.432" r="0.424"/>
  <circle cy="-13.936" cx="58.281" r="0.424"/>
  <path d="M60.184-14.375c-0.018-0.002-0.036-0.004-0.054-0.004c-0.234,0-0.424,0.189-0.424,0.424c0,0.234,0.189,0.424,0.424,0.424    c0.018,0,0.037-0.001,0.054-0.004"/>
  <circle cy="-12.096" cx="54.592" r="0.424"/>
  <circle cy="-12.096" cx="56.432" r="0.424"/>
  <circle cy="-12.087" cx="58.281" r="0.424"/>
  <path d="M60.184-12.526c-0.018-0.002-0.036-0.004-0.054-0.004c-0.234,0-0.424,0.19-0.424,0.424c0,0.234,0.189,0.424,0.424,0.424    c0.018,0,0.037-0.002,0.054-0.004"/>
  <circle cy="-10.247" cx="54.592" r="0.424"/>
  <circle cy="-10.247" cx="56.432" r="0.424"/>
  <circle cy="-10.238" cx="58.281" r="0.424"/>
  <path d="M60.184-10.677c-0.018-0.002-0.036-0.004-0.054-0.004c-0.234,0-0.424,0.19-0.424,0.424c0,0.234,0.189,0.424,0.424,0.424    c0.018,0,0.037-0.001,0.054-0.004"/>
  <circle cy="-8.398" cx="54.592" r="0.424"/>
  <circle cy="-8.398" cx="56.432" r="0.424"/>
  <circle cy="-8.389" cx="58.281" r="0.424"/>
  <path d="M60.184-8.828c-0.018-0.002-0.036-0.004-0.054-0.004c-0.234,0-0.424,0.19-0.424,0.424c0,0.234,0.189,0.424,0.424,0.424    c0.018,0,0.037-0.002,0.054-0.004"/>
  <circle cy="-6.544" cx="47.192" r="0.424"/>
  <circle cy="-6.544" cx="49.032" r="0.424"/>
  <circle cy="-6.534" cx="50.881" r="0.424"/>
  <circle cy="-6.553" cx="52.73" r="0.424"/>
  <circle cy="-4.695" cx="47.192" r="0.424"/>
  <circle cy="-4.695" cx="49.032" r="0.424"/>
  <circle cy="-4.685" cx="50.881" r="0.424"/>
  <circle cy="-4.704" cx="52.73" r="0.424"/>
  <circle cy="-2.845" cx="47.192" r="0.424"/>
  <circle cy="-2.845" cx="49.032" r="0.424"/>
  <circle cy="-2.836" cx="50.881" r="0.424"/>
  <circle cy="-2.855" cx="52.73" r="0.424"/>
  <path d="M46.768-1c0.002-0.232,0.191-0.42,0.424-0.42c0.232,0,0.422,0.188,0.424,0.42"/>
  <path d="M49.456-1c-0.002-0.232-0.192-0.42-0.424-0.42S48.61-1.232,48.607-1"/>
  <path d="M50.458-1c0.007-0.227,0.193-0.411,0.423-0.411c0.23,0,0.417,0.184,0.424,0.411"/>
  <path d="M53.154-1c0-0.002,0-0.004,0-0.006c0-0.234-0.19-0.424-0.424-0.424c-0.235,0-0.424,0.19-0.424,0.424    c0,0.002,0,0.004,0,0.006"/>
  <circle cy="-6.544" cx="54.592" r="0.424"/>
  <circle cy="-6.544" cx="56.432" r="0.424"/>
  <circle cy="-6.534" cx="58.281" r="0.424"/>
  <path d="M60.184-6.974c-0.018-0.003-0.036-0.004-0.054-0.004c-0.234,0-0.424,0.189-0.424,0.424c0,0.234,0.189,0.424,0.424,0.424    c0.018,0,0.037-0.002,0.054-0.004"/>
  <circle cy="-4.695" cx="54.592" r="0.424"/>
  <circle cy="-4.695" cx="56.432" r="0.424"/>
  <circle cy="-4.685" cx="58.281" r="0.424"/>
  <path d="M60.184-5.124c-0.018-0.003-0.036-0.004-0.054-0.004c-0.234,0-0.424,0.19-0.424,0.424c0,0.234,0.189,0.424,0.424,0.424    c0.018,0,0.037-0.002,0.054-0.004"/>
  <circle cy="-2.845" cx="54.592" r="0.424"/>
  <circle cy="-2.845" cx="56.432" r="0.424"/>
  <circle cy="-2.836" cx="58.281" r="0.424"/>
  <path d="M60.184-3.275c-0.018-0.002-0.036-0.004-0.054-0.004c-0.234,0-0.424,0.19-0.424,0.424s0.189,0.424,0.424,0.424    c0.018,0,0.037-0.001,0.054-0.004"/>
  <path d="M54.168-1c0.002-0.232,0.191-0.42,0.424-0.42c0.232,0,0.421,0.188,0.424,0.42"/>
  <path d="M56.856-1c-0.002-0.232-0.191-0.42-0.424-0.42c-0.233,0-0.422,0.188-0.424,0.42"/>
  <path d="M57.857-1c0.007-0.227,0.194-0.411,0.424-0.411c0.23,0,0.417,0.184,0.424,0.411"/>
  <path d="M60.184-1.006v-0.42C60.167-1.429,60.148-1.43,60.13-1.43c-0.234,0-0.424,0.19-0.424,0.424c0,0.002,0,0.004,0,0.006h0.478    "/>
  <path d="M2.418-60.184c0,0.001,0,0.003,0,0.003c0,0.234,0.19,0.424,0.424,0.424s0.424-0.19,0.424-0.424c0-0.001,0-0.002,0-0.003"/>
  <path d="M1.436-60.184c0,0.001,0,0.003,0,0.003c0,0.234-0.19,0.424-0.424,0.424v-0.438L1.436-60.184z"/>
  <path d="M4.257-60.184c0,0.001,0,0.003,0,0.003c0,0.234,0.19,0.424,0.424,0.424c0.234,0,0.424-0.19,0.424-0.424    c0-0.001,0-0.002,0-0.003"/>
  <path d="M6.107-60.184c0,0.004-0.001,0.009-0.001,0.013c0,0.234,0.189,0.424,0.424,0.424c0.234,0,0.424-0.19,0.424-0.424    c0-0.004,0-0.009,0-0.013"/>
  <path d="M8.804-60.184C8.8-59.953,8.612-59.766,8.38-59.766c-0.232,0-0.42-0.186-0.424-0.418"/>
  <path d="M9.817-60.184c0,0.001,0,0.003,0,0.003c0,0.234,0.19,0.424,0.424,0.424c0.234,0,0.424-0.19,0.424-0.424    c0-0.001,0-0.002,0-0.003"/>
  <path d="M11.657-60.184c0,0.001,0,0.003,0,0.003c0,0.234,0.19,0.424,0.424,0.424c0.234,0,0.424-0.19,0.424-0.424    c0-0.001,0-0.002,0-0.003"/>
  <path d="M13.507-60.184c0,0.004,0,0.009,0,0.013c0,0.234,0.189,0.424,0.424,0.424c0.234,0,0.424-0.19,0.424-0.424    c0-0.004,0-0.009,0-0.013"/>
  <path d="M16.203-60.184c-0.003,0.232-0.191,0.418-0.423,0.418c-0.233,0-0.42-0.186-0.424-0.418"/>
  <path d="M17.205-60.184c0,0.001,0,0.003,0,0.003c0,0.234,0.19,0.424,0.424,0.424c0.234,0,0.424-0.19,0.424-0.424    c0-0.001,0-0.002,0-0.003"/>
  <path d="M19.045-60.184c0,0.001,0,0.003,0,0.003c0,0.234,0.189,0.424,0.424,0.424c0.234,0,0.424-0.19,0.424-0.424    c0-0.001,0-0.002,0-0.003"/>
  <path d="M20.895-60.184c0,0.004-0.001,0.009-0.001,0.013c0,0.234,0.19,0.424,0.424,0.424c0.234,0,0.424-0.19,0.424-0.424    c0-0.004,0-0.009,0-0.013"/>
  <path d="M23.591-60.184c-0.003,0.232-0.191,0.418-0.424,0.418c-0.232,0-0.42-0.186-0.424-0.418"/>
  <path d="M24.605-60.184c0,0.001,0,0.003,0,0.003c0,0.234,0.19,0.424,0.424,0.424s0.424-0.19,0.424-0.424c0-0.001,0-0.002,0-0.003"/>
  <path d="M26.445-60.184c0,0.001,0,0.003,0,0.003c0,0.234,0.19,0.424,0.424,0.424c0.234,0,0.424-0.19,0.424-0.424    c0-0.001,0-0.002,0-0.003"/>
  <path d="M28.294-60.184c0,0.004,0,0.009,0,0.013c0,0.234,0.19,0.424,0.424,0.424c0.234,0,0.424-0.19,0.424-0.424    c0-0.004,0-0.009,0-0.013"/>
  <path d="M30.991-60.184c-0.003,0.232-0.192,0.418-0.424,0.418c-0.232,0-0.42-0.186-0.424-0.418"/>
  <path d="M31.98-60.184c0,0.001,0,0.003,0,0.003c0,0.234,0.19,0.424,0.424,0.424c0.234,0,0.424-0.19,0.424-0.424    c0-0.001,0-0.002,0-0.003"/>
  <path d="M33.82-60.184c0,0.001,0,0.003,0,0.003c0,0.234,0.19,0.424,0.424,0.424c0.234,0,0.424-0.19,0.424-0.424    c0-0.001,0-0.002,0-0.003"/>
  <path d="M35.669-60.184c0,0.004,0,0.009,0,0.013c0,0.234,0.19,0.424,0.424,0.424c0.234,0,0.424-0.19,0.424-0.424    c0-0.004,0-0.009,0-0.013"/>
  <path d="M38.366-60.184c-0.003,0.232-0.191,0.418-0.424,0.418c-0.232,0-0.42-0.186-0.423-0.418"/>
  <path d="M39.38-60.184c0,0.001,0,0.003,0,0.003c0,0.234,0.19,0.424,0.424,0.424c0.234,0,0.424-0.19,0.424-0.424    c0-0.001,0-0.002,0-0.003"/>
  <path d="M41.22-60.184c0,0.001,0,0.003,0,0.003c0,0.234,0.19,0.424,0.424,0.424c0.234,0,0.424-0.19,0.424-0.424    c0-0.001,0-0.002,0-0.003"/>
  <path d="M43.069-60.184c0,0.004,0,0.009,0,0.013c0,0.234,0.19,0.424,0.424,0.424c0.234,0,0.424-0.19,0.424-0.424    c0-0.004,0-0.009,0-0.013"/>
  <path d="M45.766-60.184c-0.003,0.232-0.191,0.418-0.424,0.418s-0.42-0.186-0.424-0.418"/>
  <path d="M46.768-60.184c0,0.001,0,0.003,0,0.003c0,0.234,0.19,0.424,0.424,0.424c0.234,0,0.424-0.19,0.424-0.424    c0-0.001,0-0.002,0-0.003"/>
  <path d="M48.607-60.184c0,0.001,0,0.003,0,0.003c0,0.234,0.19,0.424,0.424,0.424c0.234,0,0.424-0.19,0.424-0.424    c0-0.001,0-0.002,0-0.003"/>
  <path d="M50.458-60.184c0,0.004,0,0.009,0,0.013c0,0.234,0.189,0.424,0.424,0.424c0.234,0,0.424-0.19,0.424-0.424    c0-0.004,0-0.009,0-0.013"/>
  <path d="M53.154-60.184c-0.003,0.232-0.191,0.418-0.423,0.418c-0.233,0-0.421-0.186-0.424-0.418"/>
  <path d="M54.168-60.184c0,0.001,0,0.003,0,0.003c0,0.234,0.19,0.424,0.424,0.424c0.234,0,0.424-0.19,0.424-0.424    c0-0.001,0-0.002,0-0.003"/>
  <path d="M56.007-60.184c0,0.001,0,0.003,0,0.003c0,0.234,0.19,0.424,0.424,0.424c0.234,0,0.424-0.19,0.424-0.424    c0-0.001,0-0.002,0-0.003"/>
  <path d="M57.857-60.184c0,0.004,0,0.009,0,0.013c0,0.234,0.19,0.424,0.424,0.424c0.234,0,0.424-0.19,0.424-0.424    c0-0.004,0-0.009,0-0.013"/>
  <path d="M60.171-60.184h-0.424c0,0.004,0,0.009,0,0.013c0,0.234,0.19,0.424,0.424,0.424v-0.432"/>
 </g>
</svg>
