<?xml version="1.0"?>
<!-- Converted with SVG Converter - Version 0.9.5 (Compiled Fri Feb 21 09:53:38 2020) - Copyright (C) 2011 Nokia -->
<svg xmlns="http://www.w3.org/2000/svg" xmlns:xlink="http://www.w3.org/1999/xlink" y="0px" baseProfile="tiny" width="59.184" height="59.184" version="1.1" xml:space="preserve" viewBox="1 -60.184 59.184 59.184" x="0px">
 <g>
  <rect y="-60.184" style="fill:none;" width="59.184" height="59.184" x="1"/>
  <path d="M1-57.945c0.23-0.004,0.417-0.192,0.417-0.424c0-0.232-0.187-0.42-0.417-0.424"/>
  <circle r="0.424" cx="2.842" cy="-58.369"/>
  <circle r="0.424" cx="4.681" cy="-58.369"/>
  <circle r="0.424" cx="6.531" cy="-58.36"/>
  <circle r="0.424" cx="8.38" cy="-58.379"/>
  <path d="M1-56.096c0.23-0.004,0.417-0.192,0.417-0.424c0-0.232-0.187-0.42-0.417-0.424"/>
  <circle r="0.424" cx="2.842" cy="-56.52"/>
  <circle r="0.424" cx="4.681" cy="-56.52"/>
  <circle r="0.424" cx="6.531" cy="-56.511"/>
  <circle r="0.424" cx="8.38" cy="-56.53"/>
  <path d="M1-54.247c0.23-0.004,0.417-0.192,0.417-0.424c0-0.231-0.187-0.42-0.417-0.424"/>
  <circle r="0.424" cx="2.842" cy="-54.671"/>
  <circle r="0.424" cx="4.681" cy="-54.671"/>
  <circle r="0.424" cx="6.531" cy="-54.661"/>
  <circle r="0.424" cx="8.38" cy="-54.68"/>
  <path d="M1-52.398c0.23-0.004,0.417-0.192,0.417-0.424c0-0.231-0.187-0.42-0.417-0.424"/>
  <circle r="0.424" cx="2.842" cy="-52.822"/>
  <circle r="0.424" cx="4.681" cy="-52.822"/>
  <circle r="0.424" cx="6.531" cy="-52.812"/>
  <circle r="0.424" cx="8.38" cy="-52.831"/>
  <circle r="0.424" cx="10.242" cy="-58.369"/>
  <circle r="0.424" cx="12.081" cy="-58.369"/>
  <circle r="0.424" cx="13.93" cy="-58.36"/>
  <circle r="0.424" cx="15.78" cy="-58.379"/>
  <circle r="0.424" cx="10.242" cy="-56.52"/>
  <circle r="0.424" cx="12.081" cy="-56.52"/>
  <circle r="0.424" cx="13.93" cy="-56.511"/>
  <circle r="0.424" cx="15.78" cy="-56.53"/>
  <circle r="0.424" cx="10.242" cy="-54.671"/>
  <circle r="0.424" cx="12.081" cy="-54.671"/>
  <circle r="0.424" cx="13.93" cy="-54.661"/>
  <circle r="0.424" cx="15.78" cy="-54.68"/>
  <circle r="0.424" cx="10.242" cy="-52.822"/>
  <circle r="0.424" cx="12.081" cy="-52.822"/>
  <circle r="0.424" cx="13.93" cy="-52.812"/>
  <circle r="0.424" cx="15.78" cy="-52.831"/>
  <path d="M1-50.543c0.23-0.004,0.417-0.192,0.417-0.424c0-0.232-0.187-0.42-0.417-0.424"/>
  <circle r="0.424" cx="2.842" cy="-50.967"/>
  <circle r="0.424" cx="4.681" cy="-50.967"/>
  <circle r="0.424" cx="6.531" cy="-50.958"/>
  <circle r="0.424" cx="8.38" cy="-50.977"/>
  <path d="M1-48.694c0.23-0.004,0.417-0.192,0.417-0.424c0-0.232-0.187-0.42-0.417-0.424"/>
  <circle r="0.424" cx="2.842" cy="-49.118"/>
  <circle r="0.424" cx="4.681" cy="-49.118"/>
  <circle r="0.424" cx="6.531" cy="-49.109"/>
  <circle r="0.424" cx="8.38" cy="-49.128"/>
  <path d="M1-46.845c0.23-0.004,0.417-0.192,0.417-0.424c0-0.232-0.187-0.42-0.417-0.424"/>
  <circle r="0.424" cx="2.842" cy="-47.269"/>
  <circle r="0.424" cx="4.681" cy="-47.269"/>
  <circle r="0.424" cx="6.531" cy="-47.259"/>
  <circle r="0.424" cx="8.38" cy="-47.279"/>
  <path d="M1-44.996C1.23-45,1.417-45.188,1.417-45.42c0-0.232-0.187-0.42-0.417-0.424"/>
  <circle r="0.424" cx="2.842" cy="-45.42"/>
  <circle r="0.424" cx="4.681" cy="-45.42"/>
  <circle r="0.424" cx="6.531" cy="-45.41"/>
  <circle r="0.424" cx="8.38" cy="-45.429"/>
  <circle r="0.424" cx="10.242" cy="-50.967"/>
  <circle r="0.424" cx="12.081" cy="-50.967"/>
  <circle r="0.424" cx="13.93" cy="-50.958"/>
  <circle r="0.424" cx="15.78" cy="-50.977"/>
  <circle r="0.424" cx="10.242" cy="-49.118"/>
  <circle r="0.424" cx="12.081" cy="-49.118"/>
  <circle r="0.424" cx="13.93" cy="-49.109"/>
  <circle r="0.424" cx="15.78" cy="-49.128"/>
  <circle r="0.424" cx="10.242" cy="-47.269"/>
  <circle r="0.424" cx="12.081" cy="-47.269"/>
  <circle r="0.424" cx="13.93" cy="-47.259"/>
  <circle r="0.424" cx="15.78" cy="-47.279"/>
  <circle r="0.424" cx="10.242" cy="-45.42"/>
  <circle r="0.424" cx="12.081" cy="-45.42"/>
  <circle r="0.424" cx="13.93" cy="-45.41"/>
  <circle r="0.424" cx="15.78" cy="-45.429"/>
  <circle r="0.424" cx="17.629" cy="-58.369"/>
  <circle r="0.424" cx="19.469" cy="-58.369"/>
  <circle r="0.424" cx="21.318" cy="-58.36"/>
  <circle r="0.424" cx="23.167" cy="-58.379"/>
  <circle r="0.424" cx="17.629" cy="-56.52"/>
  <circle r="0.424" cx="19.469" cy="-56.52"/>
  <circle r="0.424" cx="21.318" cy="-56.511"/>
  <circle r="0.424" cx="23.167" cy="-56.53"/>
  <circle r="0.424" cx="17.629" cy="-54.671"/>
  <circle r="0.424" cx="19.469" cy="-54.671"/>
  <circle r="0.424" cx="21.318" cy="-54.661"/>
  <circle r="0.424" cx="23.167" cy="-54.68"/>
  <circle r="0.424" cx="17.629" cy="-52.822"/>
  <circle r="0.424" cx="19.469" cy="-52.822"/>
  <circle r="0.424" cx="21.318" cy="-52.812"/>
  <circle r="0.424" cx="23.167" cy="-52.831"/>
  <circle r="0.424" cx="25.029" cy="-58.369"/>
  <circle r="0.424" cx="26.869" cy="-58.369"/>
  <circle r="0.424" cx="28.718" cy="-58.36"/>
  <circle r="0.424" cx="30.567" cy="-58.379"/>
  <circle r="0.424" cx="25.029" cy="-56.52"/>
  <circle r="0.424" cx="26.869" cy="-56.52"/>
  <circle r="0.424" cx="28.718" cy="-56.511"/>
  <circle r="0.424" cx="30.567" cy="-56.53"/>
  <circle r="0.424" cx="25.029" cy="-54.671"/>
  <circle r="0.424" cx="26.869" cy="-54.671"/>
  <circle r="0.424" cx="28.718" cy="-54.661"/>
  <circle r="0.424" cx="30.567" cy="-54.68"/>
  <circle r="0.424" cx="25.029" cy="-52.822"/>
  <circle r="0.424" cx="26.869" cy="-52.822"/>
  <circle r="0.424" cx="28.718" cy="-52.812"/>
  <circle r="0.424" cx="30.567" cy="-52.831"/>
  <circle r="0.424" cx="17.629" cy="-50.967"/>
  <circle r="0.424" cx="19.469" cy="-50.967"/>
  <circle r="0.424" cx="21.318" cy="-50.958"/>
  <circle r="0.424" cx="23.167" cy="-50.977"/>
  <circle r="0.424" cx="17.629" cy="-49.118"/>
  <circle r="0.424" cx="19.469" cy="-49.118"/>
  <circle r="0.424" cx="21.318" cy="-49.109"/>
  <circle r="0.424" cx="23.167" cy="-49.128"/>
  <circle r="0.424" cx="17.629" cy="-47.269"/>
  <circle r="0.424" cx="19.469" cy="-47.269"/>
  <circle r="0.424" cx="21.318" cy="-47.259"/>
  <circle r="0.424" cx="23.167" cy="-47.279"/>
  <circle r="0.424" cx="17.629" cy="-45.42"/>
  <circle r="0.424" cx="19.469" cy="-45.42"/>
  <circle r="0.424" cx="21.318" cy="-45.41"/>
  <circle r="0.424" cx="23.167" cy="-45.429"/>
  <circle r="0.424" cx="25.029" cy="-50.967"/>
  <circle r="0.424" cx="26.869" cy="-50.967"/>
  <circle r="0.424" cx="28.718" cy="-50.958"/>
  <circle r="0.424" cx="30.567" cy="-50.977"/>
  <circle r="0.424" cx="25.029" cy="-49.118"/>
  <circle r="0.424" cx="26.869" cy="-49.118"/>
  <circle r="0.424" cx="28.718" cy="-49.109"/>
  <circle r="0.424" cx="30.567" cy="-49.128"/>
  <circle r="0.424" cx="25.029" cy="-47.269"/>
  <circle r="0.424" cx="26.869" cy="-47.269"/>
  <circle r="0.424" cx="28.718" cy="-47.259"/>
  <circle r="0.424" cx="30.567" cy="-47.279"/>
  <circle r="0.424" cx="25.029" cy="-45.42"/>
  <circle r="0.424" cx="26.869" cy="-45.42"/>
  <circle r="0.424" cx="28.718" cy="-45.41"/>
  <circle r="0.424" cx="30.567" cy="-45.429"/>
  <path d="M1-43.133c0.23-0.004,0.417-0.192,0.417-0.424c0-0.232-0.187-0.42-0.417-0.424"/>
  <circle r="0.424" cx="2.842" cy="-43.557"/>
  <circle r="0.424" cx="4.681" cy="-43.557"/>
  <circle r="0.424" cx="6.531" cy="-43.547"/>
  <circle r="0.424" cx="8.38" cy="-43.566"/>
  <path d="M1-41.284c0.23-0.004,0.417-0.192,0.417-0.424c0-0.232-0.187-0.42-0.417-0.424"/>
  <circle r="0.424" cx="2.842" cy="-41.708"/>
  <circle r="0.424" cx="4.681" cy="-41.708"/>
  <circle r="0.424" cx="6.531" cy="-41.698"/>
  <circle r="0.424" cx="8.38" cy="-41.717"/>
  <path d="M1-39.435c0.23-0.004,0.417-0.192,0.417-0.424c0-0.231-0.187-0.42-0.417-0.424"/>
  <circle r="0.424" cx="2.842" cy="-39.858"/>
  <circle r="0.424" cx="4.681" cy="-39.858"/>
  <circle r="0.424" cx="6.531" cy="-39.849"/>
  <circle r="0.424" cx="8.38" cy="-39.868"/>
  <path d="M1-37.585c0.23-0.004,0.417-0.192,0.417-0.424c0-0.231-0.187-0.42-0.417-0.424"/>
  <circle r="0.424" cx="2.842" cy="-38.009"/>
  <circle r="0.424" cx="4.681" cy="-38.009"/>
  <circle r="0.424" cx="6.531" cy="-38"/>
  <circle r="0.424" cx="8.38" cy="-38.019"/>
  <circle r="0.424" cx="10.242" cy="-43.557"/>
  <circle r="0.424" cx="12.081" cy="-43.557"/>
  <circle r="0.424" cx="13.93" cy="-43.547"/>
  <circle r="0.424" cx="15.78" cy="-43.566"/>
  <circle r="0.424" cx="10.242" cy="-41.708"/>
  <circle r="0.424" cx="12.081" cy="-41.708"/>
  <circle r="0.424" cx="13.93" cy="-41.698"/>
  <circle r="0.424" cx="15.78" cy="-41.717"/>
  <circle r="0.424" cx="10.242" cy="-39.858"/>
  <circle r="0.424" cx="12.081" cy="-39.858"/>
  <circle r="0.424" cx="13.93" cy="-39.849"/>
  <circle r="0.424" cx="15.78" cy="-39.868"/>
  <circle r="0.424" cx="10.242" cy="-38.009"/>
  <circle r="0.424" cx="12.081" cy="-38.009"/>
  <circle r="0.424" cx="13.93" cy="-38"/>
  <circle r="0.424" cx="15.78" cy="-38.019"/>
  <path d="M1-35.731c0.23-0.004,0.417-0.192,0.417-0.424c0-0.232-0.187-0.42-0.417-0.424"/>
  <circle r="0.424" cx="2.842" cy="-36.155"/>
  <circle r="0.424" cx="4.681" cy="-36.155"/>
  <circle r="0.424" cx="6.531" cy="-36.146"/>
  <circle r="0.424" cx="8.38" cy="-36.165"/>
  <path d="M1-33.882c0.23-0.004,0.417-0.192,0.417-0.424c0-0.232-0.187-0.42-0.417-0.424"/>
  <circle r="0.424" cx="2.842" cy="-34.306"/>
  <circle r="0.424" cx="4.681" cy="-34.306"/>
  <circle r="0.424" cx="6.531" cy="-34.296"/>
  <circle r="0.424" cx="8.38" cy="-34.315"/>
  <path d="M1-32.033c0.23-0.004,0.417-0.192,0.417-0.424c0-0.232-0.187-0.42-0.417-0.424"/>
  <circle r="0.424" cx="2.842" cy="-32.457"/>
  <circle r="0.424" cx="4.681" cy="-32.457"/>
  <circle r="0.424" cx="6.531" cy="-32.447"/>
  <circle r="0.424" cx="8.38" cy="-32.466"/>
  <path d="M1-30.184c0.23-0.004,0.417-0.192,0.417-0.424c0-0.231-0.187-0.42-0.417-0.424"/>
  <circle r="0.424" cx="2.842" cy="-30.607"/>
  <circle r="0.424" cx="4.681" cy="-30.607"/>
  <circle r="0.424" cx="6.531" cy="-30.598"/>
  <circle r="0.424" cx="8.38" cy="-30.617"/>
  <circle r="0.424" cx="10.242" cy="-36.155"/>
  <circle r="0.424" cx="12.081" cy="-36.155"/>
  <circle r="0.424" cx="13.93" cy="-36.146"/>
  <circle r="0.424" cx="15.78" cy="-36.165"/>
  <circle r="0.424" cx="10.242" cy="-34.306"/>
  <circle r="0.424" cx="12.081" cy="-34.306"/>
  <circle r="0.424" cx="13.93" cy="-34.296"/>
  <circle r="0.424" cx="15.78" cy="-34.315"/>
  <circle r="0.424" cx="10.242" cy="-32.457"/>
  <circle r="0.424" cx="12.081" cy="-32.457"/>
  <circle r="0.424" cx="13.93" cy="-32.447"/>
  <circle r="0.424" cx="15.78" cy="-32.466"/>
  <circle r="0.424" cx="10.242" cy="-30.607"/>
  <circle r="0.424" cx="12.081" cy="-30.607"/>
  <circle r="0.424" cx="13.93" cy="-30.598"/>
  <circle r="0.424" cx="15.78" cy="-30.617"/>
  <circle r="0.424" cx="17.629" cy="-43.557"/>
  <circle r="0.424" cx="19.469" cy="-43.557"/>
  <circle r="0.424" cx="21.318" cy="-43.547"/>
  <circle r="0.424" cx="23.167" cy="-43.566"/>
  <circle r="0.424" cx="17.629" cy="-41.708"/>
  <circle r="0.424" cx="19.469" cy="-41.708"/>
  <circle r="0.424" cx="21.318" cy="-41.698"/>
  <circle r="0.424" cx="23.167" cy="-41.717"/>
  <circle r="0.424" cx="17.629" cy="-39.858"/>
  <circle r="0.424" cx="19.469" cy="-39.858"/>
  <circle r="0.424" cx="21.318" cy="-39.849"/>
  <circle r="0.424" cx="23.167" cy="-39.868"/>
  <circle r="0.424" cx="17.629" cy="-38.009"/>
  <circle r="0.424" cx="19.469" cy="-38.009"/>
  <circle r="0.424" cx="21.318" cy="-38"/>
  <circle r="0.424" cx="23.167" cy="-38.019"/>
  <circle r="0.424" cx="25.029" cy="-43.557"/>
  <circle r="0.424" cx="26.869" cy="-43.557"/>
  <circle r="0.424" cx="28.718" cy="-43.547"/>
  <circle r="0.424" cx="30.567" cy="-43.566"/>
  <circle r="0.424" cx="25.029" cy="-41.708"/>
  <circle r="0.424" cx="26.869" cy="-41.708"/>
  <circle r="0.424" cx="28.718" cy="-41.698"/>
  <circle r="0.424" cx="30.567" cy="-41.717"/>
  <circle r="0.424" cx="25.029" cy="-39.858"/>
  <circle r="0.424" cx="26.869" cy="-39.858"/>
  <circle r="0.424" cx="28.718" cy="-39.849"/>
  <circle r="0.424" cx="30.567" cy="-39.868"/>
  <circle r="0.424" cx="25.029" cy="-38.009"/>
  <circle r="0.424" cx="26.869" cy="-38.009"/>
  <circle r="0.424" cx="28.718" cy="-38"/>
  <circle r="0.424" cx="30.567" cy="-38.019"/>
  <circle r="0.424" cx="17.629" cy="-36.155"/>
  <circle r="0.424" cx="19.469" cy="-36.155"/>
  <circle r="0.424" cx="21.318" cy="-36.146"/>
  <circle r="0.424" cx="23.167" cy="-36.165"/>
  <circle r="0.424" cx="17.629" cy="-34.306"/>
  <circle r="0.424" cx="19.469" cy="-34.306"/>
  <circle r="0.424" cx="21.318" cy="-34.296"/>
  <circle r="0.424" cx="23.167" cy="-34.315"/>
  <circle r="0.424" cx="17.629" cy="-32.457"/>
  <circle r="0.424" cx="19.469" cy="-32.457"/>
  <circle r="0.424" cx="21.318" cy="-32.447"/>
  <circle r="0.424" cx="23.167" cy="-32.466"/>
  <circle r="0.424" cx="17.629" cy="-30.607"/>
  <circle r="0.424" cx="19.469" cy="-30.607"/>
  <circle r="0.424" cx="21.318" cy="-30.598"/>
  <circle r="0.424" cx="23.167" cy="-30.617"/>
  <circle r="0.424" cx="25.029" cy="-36.155"/>
  <circle r="0.424" cx="26.869" cy="-36.155"/>
  <circle r="0.424" cx="28.718" cy="-36.146"/>
  <circle r="0.424" cx="30.567" cy="-36.165"/>
  <circle r="0.424" cx="25.029" cy="-34.306"/>
  <circle r="0.424" cx="26.869" cy="-34.306"/>
  <circle r="0.424" cx="28.718" cy="-34.296"/>
  <circle r="0.424" cx="30.567" cy="-34.315"/>
  <circle r="0.424" cx="25.029" cy="-32.457"/>
  <circle r="0.424" cx="26.869" cy="-32.457"/>
  <circle r="0.424" cx="28.718" cy="-32.447"/>
  <circle r="0.424" cx="30.567" cy="-32.466"/>
  <circle r="0.424" cx="25.029" cy="-30.607"/>
  <circle r="0.424" cx="26.869" cy="-30.607"/>
  <circle r="0.424" cx="28.718" cy="-30.598"/>
  <circle r="0.424" cx="30.567" cy="-30.617"/>
  <path d="M1-28.334c0.23-0.004,0.417-0.192,0.417-0.424c0-0.231-0.187-0.419-0.417-0.423"/>
  <circle r="0.424" cx="2.842" cy="-28.758"/>
  <circle r="0.424" cx="4.681" cy="-28.758"/>
  <circle r="0.424" cx="6.531" cy="-28.749"/>
  <circle r="0.424" cx="8.38" cy="-28.768"/>
  <path d="M1-26.485c0.23-0.004,0.417-0.192,0.417-0.423c0-0.232-0.187-0.42-0.417-0.424"/>
  <circle r="0.424" cx="2.842" cy="-26.909"/>
  <circle r="0.424" cx="4.681" cy="-26.909"/>
  <circle r="0.424" cx="6.531" cy="-26.899"/>
  <circle r="0.424" cx="8.38" cy="-26.918"/>
  <path d="M1-24.636c0.23-0.004,0.417-0.192,0.417-0.423c0-0.232-0.187-0.42-0.417-0.424"/>
  <circle r="0.424" cx="2.842" cy="-25.06"/>
  <circle r="0.424" cx="4.681" cy="-25.06"/>
  <circle r="0.424" cx="6.531" cy="-25.05"/>
  <circle r="0.424" cx="8.38" cy="-25.069"/>
  <path d="M1-22.787c0.23-0.004,0.417-0.192,0.417-0.424c0-0.232-0.187-0.42-0.417-0.424"/>
  <circle r="0.424" cx="2.842" cy="-23.21"/>
  <circle r="0.424" cx="4.681" cy="-23.21"/>
  <circle r="0.424" cx="6.531" cy="-23.201"/>
  <circle r="0.424" cx="8.38" cy="-23.22"/>
  <circle r="0.424" cx="10.242" cy="-28.758"/>
  <circle r="0.424" cx="12.081" cy="-28.758"/>
  <circle r="0.424" cx="13.93" cy="-28.749"/>
  <circle r="0.424" cx="15.78" cy="-28.768"/>
  <circle r="0.424" cx="10.242" cy="-26.909"/>
  <circle r="0.424" cx="12.081" cy="-26.909"/>
  <circle r="0.424" cx="13.93" cy="-26.899"/>
  <circle r="0.424" cx="15.78" cy="-26.918"/>
  <circle r="0.424" cx="10.242" cy="-25.06"/>
  <circle r="0.424" cx="12.081" cy="-25.06"/>
  <circle r="0.424" cx="13.93" cy="-25.05"/>
  <circle r="0.424" cx="15.78" cy="-25.069"/>
  <circle r="0.424" cx="10.242" cy="-23.21"/>
  <circle r="0.424" cx="12.081" cy="-23.21"/>
  <circle r="0.424" cx="13.93" cy="-23.201"/>
  <circle r="0.424" cx="15.78" cy="-23.22"/>
  <path d="M1-20.933c0.23-0.004,0.417-0.192,0.417-0.424c0-0.232-0.187-0.42-0.417-0.424"/>
  <circle r="0.424" cx="2.842" cy="-21.356"/>
  <circle r="0.424" cx="4.681" cy="-21.356"/>
  <circle r="0.424" cx="6.531" cy="-21.347"/>
  <circle r="0.424" cx="8.38" cy="-21.366"/>
  <path d="M1-19.083c0.23-0.004,0.417-0.192,0.417-0.424c0-0.232-0.187-0.42-0.417-0.423"/>
  <circle r="0.424" cx="2.842" cy="-19.507"/>
  <circle r="0.424" cx="4.681" cy="-19.507"/>
  <circle r="0.424" cx="6.531" cy="-19.498"/>
  <circle r="0.424" cx="8.38" cy="-19.517"/>
  <path d="M1-17.234c0.23-0.004,0.417-0.192,0.417-0.423c0-0.232-0.187-0.42-0.417-0.424"/>
  <circle r="0.424" cx="2.842" cy="-17.658"/>
  <circle r="0.424" cx="4.681" cy="-17.658"/>
  <circle r="0.424" cx="6.531" cy="-17.648"/>
  <circle r="0.424" cx="8.38" cy="-17.667"/>
  <path d="M1-15.385c0.23-0.004,0.417-0.192,0.417-0.424c0-0.232-0.187-0.42-0.417-0.424"/>
  <circle r="0.424" cx="2.842" cy="-15.809"/>
  <circle r="0.424" cx="4.681" cy="-15.809"/>
  <circle r="0.424" cx="6.531" cy="-15.799"/>
  <circle r="0.424" cx="8.38" cy="-15.818"/>
  <circle r="0.424" cx="10.242" cy="-21.356"/>
  <circle r="0.424" cx="12.081" cy="-21.356"/>
  <circle r="0.424" cx="13.93" cy="-21.347"/>
  <circle r="0.424" cx="15.78" cy="-21.366"/>
  <circle r="0.424" cx="10.242" cy="-19.507"/>
  <circle r="0.424" cx="12.081" cy="-19.507"/>
  <circle r="0.424" cx="13.93" cy="-19.498"/>
  <circle r="0.424" cx="15.78" cy="-19.517"/>
  <circle r="0.424" cx="10.242" cy="-17.658"/>
  <circle r="0.424" cx="12.081" cy="-17.658"/>
  <circle r="0.424" cx="13.93" cy="-17.648"/>
  <circle r="0.424" cx="15.78" cy="-17.667"/>
  <circle r="0.424" cx="10.242" cy="-15.809"/>
  <circle r="0.424" cx="12.081" cy="-15.809"/>
  <circle r="0.424" cx="13.93" cy="-15.799"/>
  <circle r="0.424" cx="15.78" cy="-15.818"/>
  <circle r="0.424" cx="17.629" cy="-28.758"/>
  <circle r="0.424" cx="19.469" cy="-28.758"/>
  <circle r="0.424" cx="21.318" cy="-28.749"/>
  <circle r="0.424" cx="23.167" cy="-28.768"/>
  <circle r="0.424" cx="17.629" cy="-26.909"/>
  <circle r="0.424" cx="19.469" cy="-26.909"/>
  <circle r="0.424" cx="21.318" cy="-26.899"/>
  <circle r="0.424" cx="23.167" cy="-26.918"/>
  <circle r="0.424" cx="17.629" cy="-25.06"/>
  <circle r="0.424" cx="19.469" cy="-25.06"/>
  <circle r="0.424" cx="21.318" cy="-25.05"/>
  <circle r="0.424" cx="23.167" cy="-25.069"/>
  <circle r="0.424" cx="17.629" cy="-23.21"/>
  <circle r="0.424" cx="19.469" cy="-23.21"/>
  <circle r="0.424" cx="21.318" cy="-23.201"/>
  <circle r="0.424" cx="23.167" cy="-23.22"/>
  <circle r="0.424" cx="25.029" cy="-28.758"/>
  <circle r="0.424" cx="26.869" cy="-28.758"/>
  <circle r="0.424" cx="28.718" cy="-28.749"/>
  <circle r="0.424" cx="30.567" cy="-28.768"/>
  <circle r="0.424" cx="25.029" cy="-26.909"/>
  <circle r="0.424" cx="26.869" cy="-26.909"/>
  <circle r="0.424" cx="28.718" cy="-26.899"/>
  <circle r="0.424" cx="30.567" cy="-26.918"/>
  <circle r="0.424" cx="25.029" cy="-25.06"/>
  <circle r="0.424" cx="26.869" cy="-25.06"/>
  <circle r="0.424" cx="28.718" cy="-25.05"/>
  <circle r="0.424" cx="30.567" cy="-25.069"/>
  <circle r="0.424" cx="25.029" cy="-23.21"/>
  <circle r="0.424" cx="26.869" cy="-23.21"/>
  <circle r="0.424" cx="28.718" cy="-23.201"/>
  <circle r="0.424" cx="30.567" cy="-23.22"/>
  <circle r="0.424" cx="17.629" cy="-21.356"/>
  <circle r="0.424" cx="19.469" cy="-21.356"/>
  <circle r="0.424" cx="21.318" cy="-21.347"/>
  <circle r="0.424" cx="23.167" cy="-21.366"/>
  <circle r="0.424" cx="17.629" cy="-19.507"/>
  <circle r="0.424" cx="19.469" cy="-19.507"/>
  <circle r="0.424" cx="21.318" cy="-19.498"/>
  <circle r="0.424" cx="23.167" cy="-19.517"/>
  <circle r="0.424" cx="17.629" cy="-17.658"/>
  <circle r="0.424" cx="19.469" cy="-17.658"/>
  <circle r="0.424" cx="21.318" cy="-17.648"/>
  <circle r="0.424" cx="23.167" cy="-17.667"/>
  <circle r="0.424" cx="17.629" cy="-15.809"/>
  <circle r="0.424" cx="19.469" cy="-15.809"/>
  <circle r="0.424" cx="21.318" cy="-15.799"/>
  <circle r="0.424" cx="23.167" cy="-15.818"/>
  <circle r="0.424" cx="25.029" cy="-21.356"/>
  <circle r="0.424" cx="26.869" cy="-21.356"/>
  <circle r="0.424" cx="28.718" cy="-21.347"/>
  <circle r="0.424" cx="30.567" cy="-21.366"/>
  <circle r="0.424" cx="25.029" cy="-19.507"/>
  <circle r="0.424" cx="26.869" cy="-19.507"/>
  <circle r="0.424" cx="28.718" cy="-19.498"/>
  <circle r="0.424" cx="30.567" cy="-19.517"/>
  <circle r="0.424" cx="25.029" cy="-17.658"/>
  <circle r="0.424" cx="26.869" cy="-17.658"/>
  <circle r="0.424" cx="28.718" cy="-17.648"/>
  <circle r="0.424" cx="30.567" cy="-17.667"/>
  <circle r="0.424" cx="25.029" cy="-15.809"/>
  <circle r="0.424" cx="26.869" cy="-15.809"/>
  <circle r="0.424" cx="28.718" cy="-15.799"/>
  <circle r="0.424" cx="30.567" cy="-15.818"/>
  <path d="M1-13.522c0.23-0.004,0.417-0.192,0.417-0.424c0-0.231-0.187-0.419-0.417-0.423"/>
  <circle r="0.424" cx="2.842" cy="-13.946"/>
  <circle r="0.424" cx="4.681" cy="-13.946"/>
  <circle r="0.424" cx="6.531" cy="-13.936"/>
  <circle r="0.424" cx="8.38" cy="-13.955"/>
  <path d="M1-11.673c0.23-0.004,0.417-0.192,0.417-0.423c0-0.232-0.187-0.42-0.417-0.424"/>
  <circle r="0.424" cx="2.842" cy="-12.096"/>
  <circle r="0.424" cx="4.681" cy="-12.096"/>
  <circle r="0.424" cx="6.531" cy="-12.087"/>
  <circle r="0.424" cx="8.38" cy="-12.106"/>
  <path d="M1-9.824c0.23-0.004,0.417-0.192,0.417-0.423c0-0.232-0.187-0.42-0.417-0.424"/>
  <circle r="0.424" cx="2.842" cy="-10.247"/>
  <circle r="0.424" cx="4.681" cy="-10.247"/>
  <circle r="0.424" cx="6.531" cy="-10.238"/>
  <circle r="0.424" cx="8.38" cy="-10.257"/>
  <path d="M1-7.974c0.23-0.004,0.417-0.192,0.417-0.424C1.417-8.63,1.23-8.818,1-8.822"/>
  <circle r="0.424" cx="2.842" cy="-8.398"/>
  <circle r="0.424" cx="4.681" cy="-8.398"/>
  <circle r="0.424" cx="6.531" cy="-8.389"/>
  <circle r="0.424" cx="8.38" cy="-8.408"/>
  <circle r="0.424" cx="10.242" cy="-13.946"/>
  <circle r="0.424" cx="12.081" cy="-13.946"/>
  <circle r="0.424" cx="13.93" cy="-13.936"/>
  <circle r="0.424" cx="15.78" cy="-13.955"/>
  <circle r="0.424" cx="10.242" cy="-12.096"/>
  <circle r="0.424" cx="12.081" cy="-12.096"/>
  <circle r="0.424" cx="13.93" cy="-12.087"/>
  <circle r="0.424" cx="15.78" cy="-12.106"/>
  <circle r="0.424" cx="10.242" cy="-10.247"/>
  <circle r="0.424" cx="12.081" cy="-10.247"/>
  <circle r="0.424" cx="13.93" cy="-10.238"/>
  <circle r="0.424" cx="15.78" cy="-10.257"/>
  <circle r="0.424" cx="10.242" cy="-8.398"/>
  <circle r="0.424" cx="12.081" cy="-8.398"/>
  <circle r="0.424" cx="13.93" cy="-8.389"/>
  <circle r="0.424" cx="15.78" cy="-8.408"/>
  <path d="M1-6.12c0.23-0.004,0.417-0.192,0.417-0.424c0-0.232-0.187-0.42-0.417-0.424"/>
  <circle r="0.424" cx="2.842" cy="-6.544"/>
  <circle r="0.424" cx="4.681" cy="-6.544"/>
  <circle r="0.424" cx="6.531" cy="-6.534"/>
  <circle r="0.424" cx="8.38" cy="-6.553"/>
  <path d="M1-4.271c0.23-0.004,0.417-0.192,0.417-0.424C1.417-4.926,1.23-5.114,1-5.118"/>
  <circle r="0.424" cx="2.842" cy="-4.695"/>
  <circle r="0.424" cx="4.681" cy="-4.695"/>
  <circle r="0.424" cx="6.531" cy="-4.685"/>
  <circle r="0.424" cx="8.38" cy="-4.704"/>
  <path d="M1-2.422c0.23-0.004,0.417-0.192,0.417-0.423c0-0.232-0.187-0.42-0.417-0.424"/>
  <circle r="0.424" cx="2.842" cy="-2.845"/>
  <circle r="0.424" cx="4.681" cy="-2.845"/>
  <circle r="0.424" cx="6.531" cy="-2.836"/>
  <circle r="0.424" cx="8.38" cy="-2.855"/>
  <path d="M3.266-1C3.264-1.232,3.075-1.42,2.842-1.42C2.609-1.42,2.42-1.232,2.418-1"/>
  <path d="M1.009-1v-0.42c0.233,0,0.422,0.188,0.424,0.42H1.009"/>
  <path d="M4.257-1C4.26-1.232,4.448-1.42,4.681-1.42c0.233,0,0.422,0.188,0.424,0.42"/>
  <path d="M6.954-1C6.947-1.227,6.76-1.411,6.531-1.411C6.3-1.411,6.114-1.227,6.107-1"/>
  <path d="M8.804-1c0-0.002,0-0.004,0-0.006c0-0.234-0.19-0.424-0.424-0.424c-0.234,0-0.424,0.19-0.424,0.424    c0,0.002,0.001,0.004,0.001,0.006"/>
  <circle r="0.424" cx="10.242" cy="-6.544"/>
  <circle r="0.424" cx="12.081" cy="-6.544"/>
  <circle r="0.424" cx="13.93" cy="-6.534"/>
  <circle r="0.424" cx="15.78" cy="-6.553"/>
  <circle r="0.424" cx="10.242" cy="-4.695"/>
  <circle r="0.424" cx="12.081" cy="-4.695"/>
  <circle r="0.424" cx="13.93" cy="-4.685"/>
  <circle r="0.424" cx="15.78" cy="-4.704"/>
  <circle r="0.424" cx="10.242" cy="-2.845"/>
  <circle r="0.424" cx="12.081" cy="-2.845"/>
  <circle r="0.424" cx="13.93" cy="-2.836"/>
  <circle r="0.424" cx="15.78" cy="-2.855"/>
  <path d="M9.817-1c0.002-0.232,0.191-0.42,0.424-0.42c0.232,0,0.422,0.188,0.424,0.42"/>
  <path d="M12.505-1c-0.002-0.232-0.191-0.42-0.424-0.42c-0.233,0-0.422,0.188-0.424,0.42"/>
  <path d="M13.507-1c0.007-0.227,0.193-0.411,0.423-0.411c0.23,0,0.417,0.184,0.424,0.411"/>
  <path d="M16.203-1c0-0.002,0-0.004,0-0.006c0-0.234-0.19-0.424-0.424-0.424c-0.235,0-0.424,0.19-0.424,0.424    c0,0.002,0,0.004,0,0.006"/>
  <circle r="0.424" cx="17.629" cy="-13.946"/>
  <circle r="0.424" cx="19.469" cy="-13.946"/>
  <circle r="0.424" cx="21.318" cy="-13.936"/>
  <circle r="0.424" cx="23.167" cy="-13.955"/>
  <circle r="0.424" cx="17.629" cy="-12.096"/>
  <circle r="0.424" cx="19.469" cy="-12.096"/>
  <circle r="0.424" cx="21.318" cy="-12.087"/>
  <circle r="0.424" cx="23.167" cy="-12.106"/>
  <circle r="0.424" cx="17.629" cy="-10.247"/>
  <circle r="0.424" cx="19.469" cy="-10.247"/>
  <circle r="0.424" cx="21.318" cy="-10.238"/>
  <circle r="0.424" cx="23.167" cy="-10.257"/>
  <circle r="0.424" cx="17.629" cy="-8.398"/>
  <circle r="0.424" cx="19.469" cy="-8.398"/>
  <circle r="0.424" cx="21.318" cy="-8.389"/>
  <circle r="0.424" cx="23.167" cy="-8.408"/>
  <circle r="0.424" cx="25.029" cy="-13.946"/>
  <circle r="0.424" cx="26.869" cy="-13.946"/>
  <circle r="0.424" cx="28.718" cy="-13.936"/>
  <circle r="0.424" cx="30.567" cy="-13.955"/>
  <circle r="0.424" cx="25.029" cy="-12.096"/>
  <circle r="0.424" cx="26.869" cy="-12.096"/>
  <circle r="0.424" cx="28.718" cy="-12.087"/>
  <circle r="0.424" cx="30.567" cy="-12.106"/>
  <circle r="0.424" cx="25.029" cy="-10.247"/>
  <circle r="0.424" cx="26.869" cy="-10.247"/>
  <circle r="0.424" cx="28.718" cy="-10.238"/>
  <circle r="0.424" cx="30.567" cy="-10.257"/>
  <circle r="0.424" cx="25.029" cy="-8.398"/>
  <circle r="0.424" cx="26.869" cy="-8.398"/>
  <circle r="0.424" cx="28.718" cy="-8.389"/>
  <circle r="0.424" cx="30.567" cy="-8.408"/>
  <circle r="0.424" cx="17.629" cy="-6.544"/>
  <circle r="0.424" cx="19.469" cy="-6.544"/>
  <circle r="0.424" cx="21.318" cy="-6.534"/>
  <circle r="0.424" cx="23.167" cy="-6.553"/>
  <circle r="0.424" cx="17.629" cy="-4.695"/>
  <circle r="0.424" cx="19.469" cy="-4.695"/>
  <circle r="0.424" cx="21.318" cy="-4.685"/>
  <circle r="0.424" cx="23.167" cy="-4.704"/>
  <circle r="0.424" cx="17.629" cy="-2.845"/>
  <circle r="0.424" cx="19.469" cy="-2.845"/>
  <circle r="0.424" cx="21.318" cy="-2.836"/>
  <circle r="0.424" cx="23.167" cy="-2.855"/>
  <path d="M17.205-1c0.002-0.232,0.192-0.42,0.424-0.42c0.233,0,0.422,0.188,0.424,0.42"/>
  <path d="M19.893-1c-0.003-0.232-0.191-0.42-0.424-0.42c-0.233,0-0.422,0.188-0.424,0.42"/>
  <path d="M20.895-1c0.007-0.227,0.194-0.411,0.424-0.411c0.229,0,0.417,0.184,0.424,0.411"/>
  <path d="M23.591-1c0-0.002,0.001-0.004,0.001-0.006c0-0.234-0.19-0.424-0.424-0.424s-0.424,0.19-0.424,0.424    c0,0.002,0,0.004,0,0.006"/>
  <circle r="0.424" cx="25.029" cy="-6.544"/>
  <circle r="0.424" cx="26.869" cy="-6.544"/>
  <circle r="0.424" cx="28.718" cy="-6.534"/>
  <circle r="0.424" cx="30.567" cy="-6.553"/>
  <circle r="0.424" cx="25.029" cy="-4.695"/>
  <circle r="0.424" cx="26.869" cy="-4.695"/>
  <circle r="0.424" cx="28.718" cy="-4.685"/>
  <circle r="0.424" cx="30.567" cy="-4.704"/>
  <circle r="0.424" cx="25.029" cy="-2.845"/>
  <circle r="0.424" cx="26.869" cy="-2.845"/>
  <circle r="0.424" cx="28.718" cy="-2.836"/>
  <circle r="0.424" cx="30.567" cy="-2.855"/>
  <path d="M24.605-1c0.002-0.232,0.191-0.42,0.424-0.42c0.233,0,0.422,0.188,0.424,0.42"/>
  <path d="M27.293-1c-0.002-0.232-0.191-0.42-0.424-0.42c-0.233,0-0.421,0.188-0.424,0.42"/>
  <path d="M28.294-1c0.007-0.227,0.193-0.411,0.424-0.411c0.229,0,0.416,0.184,0.423,0.411"/>
  <path d="M30.991-1c0-0.002,0-0.004,0-0.006c0-0.234-0.19-0.424-0.424-0.424c-0.234,0-0.424,0.19-0.424,0.424    c0,0.002,0,0.004,0,0.006"/>
  <circle r="0.424" cx="32.405" cy="-58.369"/>
  <circle r="0.424" cx="34.244" cy="-58.369"/>
  <circle r="0.424" cx="36.093" cy="-58.36"/>
  <circle r="0.424" cx="37.943" cy="-58.379"/>
  <circle r="0.424" cx="32.405" cy="-56.52"/>
  <circle r="0.424" cx="34.244" cy="-56.52"/>
  <circle r="0.424" cx="36.093" cy="-56.511"/>
  <circle r="0.424" cx="37.943" cy="-56.53"/>
  <circle r="0.424" cx="32.405" cy="-54.671"/>
  <circle r="0.424" cx="34.244" cy="-54.671"/>
  <circle r="0.424" cx="36.093" cy="-54.661"/>
  <circle r="0.424" cx="37.943" cy="-54.68"/>
  <circle r="0.424" cx="32.405" cy="-52.822"/>
  <circle r="0.424" cx="34.244" cy="-52.822"/>
  <circle r="0.424" cx="36.093" cy="-52.812"/>
  <circle r="0.424" cx="37.943" cy="-52.831"/>
  <circle r="0.424" cx="39.804" cy="-58.369"/>
  <circle r="0.424" cx="41.644" cy="-58.369"/>
  <circle r="0.424" cx="43.493" cy="-58.36"/>
  <circle r="0.424" cx="45.342" cy="-58.379"/>
  <circle r="0.424" cx="39.804" cy="-56.52"/>
  <circle r="0.424" cx="41.644" cy="-56.52"/>
  <circle r="0.424" cx="43.493" cy="-56.511"/>
  <circle r="0.424" cx="45.342" cy="-56.53"/>
  <circle r="0.424" cx="39.804" cy="-54.671"/>
  <circle r="0.424" cx="41.644" cy="-54.671"/>
  <circle r="0.424" cx="43.493" cy="-54.661"/>
  <circle r="0.424" cx="45.342" cy="-54.68"/>
  <circle r="0.424" cx="39.804" cy="-52.822"/>
  <circle r="0.424" cx="41.644" cy="-52.822"/>
  <circle r="0.424" cx="43.493" cy="-52.812"/>
  <circle r="0.424" cx="45.342" cy="-52.831"/>
  <circle r="0.424" cx="32.405" cy="-50.967"/>
  <circle r="0.424" cx="34.244" cy="-50.967"/>
  <circle r="0.424" cx="36.093" cy="-50.958"/>
  <circle r="0.424" cx="37.943" cy="-50.977"/>
  <circle r="0.424" cx="32.405" cy="-49.118"/>
  <circle r="0.424" cx="34.244" cy="-49.118"/>
  <circle r="0.424" cx="36.093" cy="-49.109"/>
  <circle r="0.424" cx="37.943" cy="-49.128"/>
  <circle r="0.424" cx="32.405" cy="-47.269"/>
  <circle r="0.424" cx="34.244" cy="-47.269"/>
  <circle r="0.424" cx="36.093" cy="-47.259"/>
  <circle r="0.424" cx="37.943" cy="-47.279"/>
  <circle r="0.424" cx="32.405" cy="-45.42"/>
  <circle r="0.424" cx="34.244" cy="-45.42"/>
  <circle r="0.424" cx="36.093" cy="-45.41"/>
  <circle r="0.424" cx="37.943" cy="-45.429"/>
  <circle r="0.424" cx="39.804" cy="-50.967"/>
  <circle r="0.424" cx="41.644" cy="-50.967"/>
  <circle r="0.424" cx="43.493" cy="-50.958"/>
  <circle r="0.424" cx="45.342" cy="-50.977"/>
  <circle r="0.424" cx="39.804" cy="-49.118"/>
  <circle r="0.424" cx="41.644" cy="-49.118"/>
  <circle r="0.424" cx="43.493" cy="-49.109"/>
  <circle r="0.424" cx="45.342" cy="-49.128"/>
  <circle r="0.424" cx="39.804" cy="-47.269"/>
  <circle r="0.424" cx="41.644" cy="-47.269"/>
  <circle r="0.424" cx="43.493" cy="-47.259"/>
  <circle r="0.424" cx="45.342" cy="-47.279"/>
  <circle r="0.424" cx="39.804" cy="-45.42"/>
  <circle r="0.424" cx="41.644" cy="-45.42"/>
  <circle r="0.424" cx="43.493" cy="-45.41"/>
  <circle r="0.424" cx="45.342" cy="-45.429"/>
  <circle r="0.424" cx="47.192" cy="-58.369"/>
  <circle r="0.424" cx="49.032" cy="-58.369"/>
  <circle r="0.424" cx="50.881" cy="-58.36"/>
  <circle r="0.424" cx="52.73" cy="-58.379"/>
  <circle r="0.424" cx="47.192" cy="-56.52"/>
  <circle r="0.424" cx="49.032" cy="-56.52"/>
  <circle r="0.424" cx="50.881" cy="-56.511"/>
  <circle r="0.424" cx="52.73" cy="-56.53"/>
  <circle r="0.424" cx="47.192" cy="-54.671"/>
  <circle r="0.424" cx="49.032" cy="-54.671"/>
  <circle r="0.424" cx="50.881" cy="-54.661"/>
  <circle r="0.424" cx="52.73" cy="-54.68"/>
  <circle r="0.424" cx="47.192" cy="-52.822"/>
  <circle r="0.424" cx="49.032" cy="-52.822"/>
  <circle r="0.424" cx="50.881" cy="-52.812"/>
  <circle r="0.424" cx="52.73" cy="-52.831"/>
  <circle r="0.424" cx="54.592" cy="-58.369"/>
  <circle r="0.424" cx="56.432" cy="-58.369"/>
  <circle r="0.424" cx="58.281" cy="-58.36"/>
  <path d="M60.184-58.799c-0.018-0.002-0.036-0.004-0.054-0.004c-0.234,0-0.424,0.19-0.424,0.424c0,0.234,0.189,0.424,0.424,0.424    c0.018,0,0.037-0.001,0.054-0.004"/>
  <circle r="0.424" cx="54.592" cy="-56.52"/>
  <circle r="0.424" cx="56.432" cy="-56.52"/>
  <circle r="0.424" cx="58.281" cy="-56.511"/>
  <path d="M60.184-56.95c-0.018-0.002-0.036-0.004-0.054-0.004c-0.234,0-0.424,0.189-0.424,0.424c0,0.234,0.189,0.424,0.424,0.424    c0.018,0,0.037-0.001,0.054-0.004"/>
  <circle r="0.424" cx="54.592" cy="-54.671"/>
  <circle r="0.424" cx="56.432" cy="-54.671"/>
  <circle r="0.424" cx="58.281" cy="-54.661"/>
  <path d="M60.184-55.101c-0.018-0.002-0.036-0.004-0.054-0.004c-0.234,0-0.424,0.189-0.424,0.424c0,0.234,0.189,0.424,0.424,0.424    c0.018,0,0.037-0.001,0.054-0.004"/>
  <circle r="0.424" cx="54.592" cy="-52.822"/>
  <circle r="0.424" cx="56.432" cy="-52.822"/>
  <circle r="0.424" cx="58.281" cy="-52.812"/>
  <path d="M60.184-53.251c-0.018-0.002-0.036-0.004-0.054-0.004c-0.234,0-0.424,0.19-0.424,0.424c0,0.234,0.189,0.424,0.424,0.424    c0.018,0,0.037-0.001,0.054-0.004"/>
  <circle r="0.424" cx="47.192" cy="-50.967"/>
  <circle r="0.424" cx="49.032" cy="-50.967"/>
  <circle r="0.424" cx="50.881" cy="-50.958"/>
  <circle r="0.424" cx="52.73" cy="-50.977"/>
  <circle r="0.424" cx="47.192" cy="-49.118"/>
  <circle r="0.424" cx="49.032" cy="-49.118"/>
  <circle r="0.424" cx="50.881" cy="-49.109"/>
  <circle r="0.424" cx="52.73" cy="-49.128"/>
  <circle r="0.424" cx="47.192" cy="-47.269"/>
  <circle r="0.424" cx="49.032" cy="-47.269"/>
  <circle r="0.424" cx="50.881" cy="-47.259"/>
  <circle r="0.424" cx="52.73" cy="-47.279"/>
  <circle r="0.424" cx="47.192" cy="-45.42"/>
  <circle r="0.424" cx="49.032" cy="-45.42"/>
  <circle r="0.424" cx="50.881" cy="-45.41"/>
  <circle r="0.424" cx="52.73" cy="-45.429"/>
  <circle r="0.424" cx="54.592" cy="-50.967"/>
  <circle r="0.424" cx="56.432" cy="-50.967"/>
  <circle r="0.424" cx="58.281" cy="-50.958"/>
  <path d="M60.184-51.397c-0.018-0.002-0.036-0.004-0.054-0.004c-0.234,0-0.424,0.19-0.424,0.424c0,0.234,0.189,0.424,0.424,0.424    c0.018,0,0.037-0.001,0.054-0.004"/>
  <circle r="0.424" cx="54.592" cy="-49.118"/>
  <circle r="0.424" cx="56.432" cy="-49.118"/>
  <circle r="0.424" cx="58.281" cy="-49.109"/>
  <path d="M60.184-49.548c-0.018-0.002-0.036-0.004-0.054-0.004c-0.234,0-0.424,0.19-0.424,0.424c0,0.234,0.189,0.424,0.424,0.424    c0.018,0,0.037-0.001,0.054-0.004"/>
  <circle r="0.424" cx="54.592" cy="-47.269"/>
  <circle r="0.424" cx="56.432" cy="-47.269"/>
  <circle r="0.424" cx="58.281" cy="-47.259"/>
  <path d="M60.184-47.699c-0.018-0.002-0.036-0.004-0.054-0.004c-0.234,0-0.424,0.189-0.424,0.424c0,0.234,0.189,0.424,0.424,0.424    c0.018,0,0.037-0.001,0.054-0.004"/>
  <circle r="0.424" cx="54.592" cy="-45.42"/>
  <circle r="0.424" cx="56.432" cy="-45.42"/>
  <circle r="0.424" cx="58.281" cy="-45.41"/>
  <path d="M60.184-45.85c-0.018-0.002-0.036-0.004-0.054-0.004c-0.234,0-0.424,0.189-0.424,0.424c0,0.234,0.189,0.424,0.424,0.424    c0.018,0,0.037-0.001,0.054-0.004"/>
  <circle r="0.424" cx="32.405" cy="-43.557"/>
  <circle r="0.424" cx="34.244" cy="-43.557"/>
  <circle r="0.424" cx="36.093" cy="-43.547"/>
  <circle r="0.424" cx="37.943" cy="-43.566"/>
  <circle r="0.424" cx="32.405" cy="-41.708"/>
  <circle r="0.424" cx="34.244" cy="-41.708"/>
  <circle r="0.424" cx="36.093" cy="-41.698"/>
  <circle r="0.424" cx="37.943" cy="-41.717"/>
  <circle r="0.424" cx="32.405" cy="-39.858"/>
  <circle r="0.424" cx="34.244" cy="-39.858"/>
  <circle r="0.424" cx="36.093" cy="-39.849"/>
  <circle r="0.424" cx="37.943" cy="-39.868"/>
  <circle r="0.424" cx="32.405" cy="-38.009"/>
  <circle r="0.424" cx="34.244" cy="-38.009"/>
  <circle r="0.424" cx="36.093" cy="-38"/>
  <circle r="0.424" cx="37.943" cy="-38.019"/>
  <circle r="0.424" cx="39.804" cy="-43.557"/>
  <circle r="0.424" cx="41.644" cy="-43.557"/>
  <circle r="0.424" cx="43.493" cy="-43.547"/>
  <circle r="0.424" cx="45.342" cy="-43.566"/>
  <circle r="0.424" cx="39.804" cy="-41.708"/>
  <circle r="0.424" cx="41.644" cy="-41.708"/>
  <circle r="0.424" cx="43.493" cy="-41.698"/>
  <circle r="0.424" cx="45.342" cy="-41.717"/>
  <circle r="0.424" cx="39.804" cy="-39.858"/>
  <circle r="0.424" cx="41.644" cy="-39.858"/>
  <circle r="0.424" cx="43.493" cy="-39.849"/>
  <circle r="0.424" cx="45.342" cy="-39.868"/>
  <circle r="0.424" cx="39.804" cy="-38.009"/>
  <circle r="0.424" cx="41.644" cy="-38.009"/>
  <circle r="0.424" cx="43.493" cy="-38"/>
  <circle r="0.424" cx="45.342" cy="-38.019"/>
  <circle r="0.424" cx="32.405" cy="-36.155"/>
  <circle r="0.424" cx="34.244" cy="-36.155"/>
  <circle r="0.424" cx="36.093" cy="-36.146"/>
  <circle r="0.424" cx="37.943" cy="-36.165"/>
  <circle r="0.424" cx="32.405" cy="-34.306"/>
  <circle r="0.424" cx="34.244" cy="-34.306"/>
  <circle r="0.424" cx="36.093" cy="-34.296"/>
  <circle r="0.424" cx="37.943" cy="-34.315"/>
  <circle r="0.424" cx="32.405" cy="-32.457"/>
  <circle r="0.424" cx="34.244" cy="-32.457"/>
  <circle r="0.424" cx="36.093" cy="-32.447"/>
  <circle r="0.424" cx="37.943" cy="-32.466"/>
  <circle r="0.424" cx="32.405" cy="-30.607"/>
  <circle r="0.424" cx="34.244" cy="-30.607"/>
  <circle r="0.424" cx="36.093" cy="-30.598"/>
  <circle r="0.424" cx="37.943" cy="-30.617"/>
  <circle r="0.424" cx="39.804" cy="-36.155"/>
  <circle r="0.424" cx="41.644" cy="-36.155"/>
  <circle r="0.424" cx="43.493" cy="-36.146"/>
  <circle r="0.424" cx="45.342" cy="-36.165"/>
  <circle r="0.424" cx="39.804" cy="-34.306"/>
  <circle r="0.424" cx="41.644" cy="-34.306"/>
  <circle r="0.424" cx="43.493" cy="-34.296"/>
  <circle r="0.424" cx="45.342" cy="-34.315"/>
  <circle r="0.424" cx="39.804" cy="-32.457"/>
  <circle r="0.424" cx="41.644" cy="-32.457"/>
  <circle r="0.424" cx="43.493" cy="-32.447"/>
  <circle r="0.424" cx="45.342" cy="-32.466"/>
  <circle r="0.424" cx="39.804" cy="-30.607"/>
  <circle r="0.424" cx="41.644" cy="-30.607"/>
  <circle r="0.424" cx="43.493" cy="-30.598"/>
  <circle r="0.424" cx="45.342" cy="-30.617"/>
  <circle r="0.424" cx="47.192" cy="-43.557"/>
  <circle r="0.424" cx="49.032" cy="-43.557"/>
  <circle r="0.424" cx="50.881" cy="-43.547"/>
  <circle r="0.424" cx="52.73" cy="-43.566"/>
  <circle r="0.424" cx="47.192" cy="-41.708"/>
  <circle r="0.424" cx="49.032" cy="-41.708"/>
  <circle r="0.424" cx="50.881" cy="-41.698"/>
  <circle r="0.424" cx="52.73" cy="-41.717"/>
  <circle r="0.424" cx="47.192" cy="-39.858"/>
  <circle r="0.424" cx="49.032" cy="-39.858"/>
  <circle r="0.424" cx="50.881" cy="-39.849"/>
  <circle r="0.424" cx="52.73" cy="-39.868"/>
  <circle r="0.424" cx="47.192" cy="-38.009"/>
  <circle r="0.424" cx="49.032" cy="-38.009"/>
  <circle r="0.424" cx="50.881" cy="-38"/>
  <circle r="0.424" cx="52.73" cy="-38.019"/>
  <circle r="0.424" cx="54.592" cy="-43.557"/>
  <circle r="0.424" cx="56.432" cy="-43.557"/>
  <circle r="0.424" cx="58.281" cy="-43.547"/>
  <path d="M60.184-43.987c-0.018-0.002-0.036-0.004-0.054-0.004c-0.234,0-0.424,0.19-0.424,0.424c0,0.234,0.189,0.424,0.424,0.424    c0.018,0,0.037-0.001,0.054-0.004"/>
  <circle r="0.424" cx="54.592" cy="-41.708"/>
  <circle r="0.424" cx="56.432" cy="-41.708"/>
  <circle r="0.424" cx="58.281" cy="-41.698"/>
  <path d="M60.184-42.137c-0.018-0.002-0.036-0.004-0.054-0.004c-0.234,0-0.424,0.189-0.424,0.424c0,0.234,0.189,0.424,0.424,0.424    c0.018,0,0.037-0.001,0.054-0.004"/>
  <circle r="0.424" cx="54.592" cy="-39.858"/>
  <circle r="0.424" cx="56.432" cy="-39.858"/>
  <circle r="0.424" cx="58.281" cy="-39.849"/>
  <path d="M60.184-40.288c-0.018-0.002-0.036-0.004-0.054-0.004c-0.234,0-0.424,0.189-0.424,0.424c0,0.234,0.189,0.424,0.424,0.424    c0.018,0,0.037-0.001,0.054-0.004"/>
  <circle r="0.424" cx="54.592" cy="-38.009"/>
  <circle r="0.424" cx="56.432" cy="-38.009"/>
  <circle r="0.424" cx="58.281" cy="-38"/>
  <path d="M60.184-38.439c-0.018-0.002-0.036-0.004-0.054-0.004c-0.234,0-0.424,0.19-0.424,0.424c0,0.234,0.189,0.424,0.424,0.424    c0.018,0,0.037-0.001,0.054-0.004"/>
  <circle r="0.424" cx="47.192" cy="-36.155"/>
  <circle r="0.424" cx="49.032" cy="-36.155"/>
  <circle r="0.424" cx="50.881" cy="-36.146"/>
  <circle r="0.424" cx="52.73" cy="-36.165"/>
  <circle r="0.424" cx="47.192" cy="-34.306"/>
  <circle r="0.424" cx="49.032" cy="-34.306"/>
  <circle r="0.424" cx="50.881" cy="-34.296"/>
  <circle r="0.424" cx="52.73" cy="-34.315"/>
  <circle r="0.424" cx="47.192" cy="-32.457"/>
  <circle r="0.424" cx="49.032" cy="-32.457"/>
  <circle r="0.424" cx="50.881" cy="-32.447"/>
  <circle r="0.424" cx="52.73" cy="-32.466"/>
  <circle r="0.424" cx="47.192" cy="-30.607"/>
  <circle r="0.424" cx="49.032" cy="-30.607"/>
  <circle r="0.424" cx="50.881" cy="-30.598"/>
  <circle r="0.424" cx="52.73" cy="-30.617"/>
  <circle r="0.424" cx="54.592" cy="-36.155"/>
  <circle r="0.424" cx="56.432" cy="-36.155"/>
  <circle r="0.424" cx="58.281" cy="-36.146"/>
  <path d="M60.184-36.585c-0.018-0.002-0.036-0.004-0.054-0.004c-0.234,0-0.424,0.19-0.424,0.424c0,0.234,0.189,0.424,0.424,0.424    c0.018,0,0.037-0.001,0.054-0.004"/>
  <circle r="0.424" cx="54.592" cy="-34.306"/>
  <circle r="0.424" cx="56.432" cy="-34.306"/>
  <circle r="0.424" cx="58.281" cy="-34.296"/>
  <path d="M60.184-34.736c-0.018-0.002-0.036-0.004-0.054-0.004c-0.234,0-0.424,0.19-0.424,0.424c0,0.234,0.189,0.424,0.424,0.424    c0.018,0,0.037-0.001,0.054-0.004"/>
  <circle r="0.424" cx="54.592" cy="-32.457"/>
  <circle r="0.424" cx="56.432" cy="-32.457"/>
  <circle r="0.424" cx="58.281" cy="-32.447"/>
  <path d="M60.184-32.886c-0.018-0.002-0.036-0.004-0.054-0.004c-0.234,0-0.424,0.189-0.424,0.424c0,0.234,0.189,0.424,0.424,0.424    c0.018,0,0.037-0.001,0.054-0.004"/>
  <circle r="0.424" cx="54.592" cy="-30.607"/>
  <circle r="0.424" cx="56.432" cy="-30.607"/>
  <circle r="0.424" cx="58.281" cy="-30.598"/>
  <path d="M60.184-31.037c-0.018-0.003-0.036-0.004-0.054-0.004c-0.234,0-0.424,0.189-0.424,0.424c0,0.234,0.189,0.424,0.424,0.424    c0.018,0,0.037-0.001,0.054-0.004"/>
  <circle r="0.424" cx="32.405" cy="-28.758"/>
  <circle r="0.424" cx="34.244" cy="-28.758"/>
  <circle r="0.424" cx="36.093" cy="-28.749"/>
  <circle r="0.424" cx="37.943" cy="-28.768"/>
  <circle r="0.424" cx="32.405" cy="-26.909"/>
  <circle r="0.424" cx="34.244" cy="-26.909"/>
  <circle r="0.424" cx="36.093" cy="-26.899"/>
  <circle r="0.424" cx="37.943" cy="-26.918"/>
  <circle r="0.424" cx="32.405" cy="-25.06"/>
  <circle r="0.424" cx="34.244" cy="-25.06"/>
  <circle r="0.424" cx="36.093" cy="-25.05"/>
  <circle r="0.424" cx="37.943" cy="-25.069"/>
  <circle r="0.424" cx="32.405" cy="-23.21"/>
  <circle r="0.424" cx="34.244" cy="-23.21"/>
  <circle r="0.424" cx="36.093" cy="-23.201"/>
  <circle r="0.424" cx="37.943" cy="-23.22"/>
  <circle r="0.424" cx="39.804" cy="-28.758"/>
  <circle r="0.424" cx="41.644" cy="-28.758"/>
  <circle r="0.424" cx="43.493" cy="-28.749"/>
  <circle r="0.424" cx="45.342" cy="-28.768"/>
  <circle r="0.424" cx="39.804" cy="-26.909"/>
  <circle r="0.424" cx="41.644" cy="-26.909"/>
  <circle r="0.424" cx="43.493" cy="-26.899"/>
  <circle r="0.424" cx="45.342" cy="-26.918"/>
  <circle r="0.424" cx="39.804" cy="-25.06"/>
  <circle r="0.424" cx="41.644" cy="-25.06"/>
  <circle r="0.424" cx="43.493" cy="-25.05"/>
  <circle r="0.424" cx="45.342" cy="-25.069"/>
  <circle r="0.424" cx="39.804" cy="-23.21"/>
  <circle r="0.424" cx="41.644" cy="-23.21"/>
  <circle r="0.424" cx="43.493" cy="-23.201"/>
  <circle r="0.424" cx="45.342" cy="-23.22"/>
  <circle r="0.424" cx="32.405" cy="-21.356"/>
  <circle r="0.424" cx="34.244" cy="-21.356"/>
  <circle r="0.424" cx="36.093" cy="-21.347"/>
  <circle r="0.424" cx="37.943" cy="-21.366"/>
  <circle r="0.424" cx="32.405" cy="-19.507"/>
  <circle r="0.424" cx="34.244" cy="-19.507"/>
  <circle r="0.424" cx="36.093" cy="-19.498"/>
  <circle r="0.424" cx="37.943" cy="-19.517"/>
  <circle r="0.424" cx="32.405" cy="-17.658"/>
  <circle r="0.424" cx="34.244" cy="-17.658"/>
  <circle r="0.424" cx="36.093" cy="-17.648"/>
  <circle r="0.424" cx="37.943" cy="-17.667"/>
  <circle r="0.424" cx="32.405" cy="-15.809"/>
  <circle r="0.424" cx="34.244" cy="-15.809"/>
  <circle r="0.424" cx="36.093" cy="-15.799"/>
  <circle r="0.424" cx="37.943" cy="-15.818"/>
  <circle r="0.424" cx="39.804" cy="-21.356"/>
  <circle r="0.424" cx="41.644" cy="-21.356"/>
  <circle r="0.424" cx="43.493" cy="-21.347"/>
  <circle r="0.424" cx="45.342" cy="-21.366"/>
  <circle r="0.424" cx="39.804" cy="-19.507"/>
  <circle r="0.424" cx="41.644" cy="-19.507"/>
  <circle r="0.424" cx="43.493" cy="-19.498"/>
  <circle r="0.424" cx="45.342" cy="-19.517"/>
  <circle r="0.424" cx="39.804" cy="-17.658"/>
  <circle r="0.424" cx="41.644" cy="-17.658"/>
  <circle r="0.424" cx="43.493" cy="-17.648"/>
  <circle r="0.424" cx="45.342" cy="-17.667"/>
  <circle r="0.424" cx="39.804" cy="-15.809"/>
  <circle r="0.424" cx="41.644" cy="-15.809"/>
  <circle r="0.424" cx="43.493" cy="-15.799"/>
  <circle r="0.424" cx="45.342" cy="-15.818"/>
  <circle r="0.424" cx="47.192" cy="-28.758"/>
  <circle r="0.424" cx="49.032" cy="-28.758"/>
  <circle r="0.424" cx="50.881" cy="-28.749"/>
  <circle r="0.424" cx="52.73" cy="-28.768"/>
  <circle r="0.424" cx="47.192" cy="-26.909"/>
  <circle r="0.424" cx="49.032" cy="-26.909"/>
  <circle r="0.424" cx="50.881" cy="-26.899"/>
  <circle r="0.424" cx="52.73" cy="-26.918"/>
  <circle r="0.424" cx="47.192" cy="-25.06"/>
  <circle r="0.424" cx="49.032" cy="-25.06"/>
  <circle r="0.424" cx="50.881" cy="-25.05"/>
  <circle r="0.424" cx="52.73" cy="-25.069"/>
  <circle r="0.424" cx="47.192" cy="-23.21"/>
  <circle r="0.424" cx="49.032" cy="-23.21"/>
  <circle r="0.424" cx="50.881" cy="-23.201"/>
  <circle r="0.424" cx="52.73" cy="-23.22"/>
  <circle r="0.424" cx="54.592" cy="-28.758"/>
  <circle r="0.424" cx="56.432" cy="-28.758"/>
  <circle r="0.424" cx="58.281" cy="-28.749"/>
  <path d="M60.184-29.188c-0.018-0.002-0.036-0.004-0.054-0.004c-0.234,0-0.424,0.19-0.424,0.424c0,0.234,0.189,0.424,0.424,0.424    c0.018,0,0.037-0.001,0.054-0.004"/>
  <circle r="0.424" cx="54.592" cy="-26.909"/>
  <circle r="0.424" cx="56.432" cy="-26.909"/>
  <circle r="0.424" cx="58.281" cy="-26.899"/>
  <path d="M60.184-27.339c-0.018-0.002-0.036-0.004-0.054-0.004c-0.234,0-0.424,0.19-0.424,0.424c0,0.234,0.189,0.424,0.424,0.424    c0.018,0,0.037-0.001,0.054-0.004"/>
  <circle r="0.424" cx="54.592" cy="-25.06"/>
  <circle r="0.424" cx="56.432" cy="-25.06"/>
  <circle r="0.424" cx="58.281" cy="-25.05"/>
  <path d="M60.184-25.49c-0.018-0.003-0.036-0.004-0.054-0.004c-0.234,0-0.424,0.19-0.424,0.424c0,0.234,0.189,0.424,0.424,0.424    c0.018,0,0.037-0.001,0.054-0.004"/>
  <circle r="0.424" cx="54.592" cy="-23.21"/>
  <circle r="0.424" cx="56.432" cy="-23.21"/>
  <circle r="0.424" cx="58.281" cy="-23.201"/>
  <path d="M60.184-23.641c-0.018-0.003-0.036-0.004-0.054-0.004c-0.234,0-0.424,0.19-0.424,0.424s0.189,0.424,0.424,0.424    c0.018,0,0.037-0.001,0.054-0.004"/>
  <circle r="0.424" cx="47.192" cy="-21.356"/>
  <circle r="0.424" cx="49.032" cy="-21.356"/>
  <circle r="0.424" cx="50.881" cy="-21.347"/>
  <circle r="0.424" cx="52.73" cy="-21.366"/>
  <circle r="0.424" cx="47.192" cy="-19.507"/>
  <circle r="0.424" cx="49.032" cy="-19.507"/>
  <circle r="0.424" cx="50.881" cy="-19.498"/>
  <circle r="0.424" cx="52.73" cy="-19.517"/>
  <circle r="0.424" cx="47.192" cy="-17.658"/>
  <circle r="0.424" cx="49.032" cy="-17.658"/>
  <circle r="0.424" cx="50.881" cy="-17.648"/>
  <circle r="0.424" cx="52.73" cy="-17.667"/>
  <circle r="0.424" cx="47.192" cy="-15.809"/>
  <circle r="0.424" cx="49.032" cy="-15.809"/>
  <circle r="0.424" cx="50.881" cy="-15.799"/>
  <circle r="0.424" cx="52.73" cy="-15.818"/>
  <circle r="0.424" cx="54.592" cy="-21.356"/>
  <circle r="0.424" cx="56.432" cy="-21.356"/>
  <circle r="0.424" cx="58.281" cy="-21.347"/>
  <path d="M60.184-21.786c-0.018-0.003-0.036-0.004-0.054-0.004c-0.234,0-0.424,0.189-0.424,0.424c0,0.234,0.189,0.424,0.424,0.424    c0.018,0,0.037-0.001,0.054-0.004"/>
  <circle r="0.424" cx="54.592" cy="-19.507"/>
  <circle r="0.424" cx="56.432" cy="-19.507"/>
  <circle r="0.424" cx="58.281" cy="-19.498"/>
  <path d="M60.184-19.937c-0.018-0.003-0.036-0.004-0.054-0.004c-0.234,0-0.424,0.19-0.424,0.424c0,0.234,0.189,0.424,0.424,0.424    c0.018,0,0.037-0.001,0.054-0.004"/>
  <circle r="0.424" cx="54.592" cy="-17.658"/>
  <circle r="0.424" cx="56.432" cy="-17.658"/>
  <circle r="0.424" cx="58.281" cy="-17.648"/>
  <path d="M60.184-18.088c-0.018-0.002-0.036-0.004-0.054-0.004c-0.234,0-0.424,0.19-0.424,0.424s0.189,0.424,0.424,0.424    c0.018,0,0.037-0.001,0.054-0.004"/>
  <circle r="0.424" cx="54.592" cy="-15.809"/>
  <circle r="0.424" cx="56.432" cy="-15.809"/>
  <circle r="0.424" cx="58.281" cy="-15.799"/>
  <path d="M60.184-16.239c-0.018-0.002-0.036-0.004-0.054-0.004c-0.234,0-0.424,0.19-0.424,0.424c0,0.234,0.189,0.424,0.424,0.424    c0.018,0,0.037-0.002,0.054-0.004"/>
  <circle r="0.424" cx="32.405" cy="-13.946"/>
  <circle r="0.424" cx="34.244" cy="-13.946"/>
  <circle r="0.424" cx="36.093" cy="-13.936"/>
  <circle r="0.424" cx="37.943" cy="-13.955"/>
  <circle r="0.424" cx="32.405" cy="-12.096"/>
  <circle r="0.424" cx="34.244" cy="-12.096"/>
  <circle r="0.424" cx="36.093" cy="-12.087"/>
  <circle r="0.424" cx="37.943" cy="-12.106"/>
  <circle r="0.424" cx="32.405" cy="-10.247"/>
  <circle r="0.424" cx="34.244" cy="-10.247"/>
  <circle r="0.424" cx="36.093" cy="-10.238"/>
  <circle r="0.424" cx="37.943" cy="-10.257"/>
  <circle r="0.424" cx="32.405" cy="-8.398"/>
  <circle r="0.424" cx="34.244" cy="-8.398"/>
  <circle r="0.424" cx="36.093" cy="-8.389"/>
  <circle r="0.424" cx="37.943" cy="-8.408"/>
  <circle r="0.424" cx="39.804" cy="-13.946"/>
  <circle r="0.424" cx="41.644" cy="-13.946"/>
  <circle r="0.424" cx="43.493" cy="-13.936"/>
  <circle r="0.424" cx="45.342" cy="-13.955"/>
  <circle r="0.424" cx="39.804" cy="-12.096"/>
  <circle r="0.424" cx="41.644" cy="-12.096"/>
  <circle r="0.424" cx="43.493" cy="-12.087"/>
  <circle r="0.424" cx="45.342" cy="-12.106"/>
  <circle r="0.424" cx="39.804" cy="-10.247"/>
  <circle r="0.424" cx="41.644" cy="-10.247"/>
  <circle r="0.424" cx="43.493" cy="-10.238"/>
  <circle r="0.424" cx="45.342" cy="-10.257"/>
  <circle r="0.424" cx="39.804" cy="-8.398"/>
  <circle r="0.424" cx="41.644" cy="-8.398"/>
  <circle r="0.424" cx="43.493" cy="-8.389"/>
  <circle r="0.424" cx="45.342" cy="-8.408"/>
  <circle r="0.424" cx="32.405" cy="-6.544"/>
  <circle r="0.424" cx="34.244" cy="-6.544"/>
  <circle r="0.424" cx="36.093" cy="-6.534"/>
  <circle r="0.424" cx="37.943" cy="-6.553"/>
  <circle r="0.424" cx="32.405" cy="-4.695"/>
  <circle r="0.424" cx="34.244" cy="-4.695"/>
  <circle r="0.424" cx="36.093" cy="-4.685"/>
  <circle r="0.424" cx="37.943" cy="-4.704"/>
  <circle r="0.424" cx="32.405" cy="-2.845"/>
  <circle r="0.424" cx="34.244" cy="-2.845"/>
  <circle r="0.424" cx="36.093" cy="-2.836"/>
  <circle r="0.424" cx="37.943" cy="-2.855"/>
  <path d="M31.98-1c0.002-0.232,0.191-0.42,0.424-0.42c0.232,0,0.421,0.188,0.424,0.42"/>
  <path d="M34.668-1c-0.002-0.232-0.191-0.42-0.424-0.42c-0.233,0-0.422,0.188-0.424,0.42"/>
  <path d="M35.669-1c0.007-0.227,0.194-0.411,0.424-0.411c0.23,0,0.417,0.184,0.424,0.411"/>
  <path d="M38.366-1c0-0.002,0-0.004,0-0.006c0-0.234-0.19-0.424-0.424-0.424c-0.234,0-0.424,0.19-0.424,0.424    c0,0.002,0,0.004,0,0.006"/>
  <circle r="0.424" cx="39.804" cy="-6.544"/>
  <circle r="0.424" cx="41.644" cy="-6.544"/>
  <circle r="0.424" cx="43.493" cy="-6.534"/>
  <circle r="0.424" cx="45.342" cy="-6.553"/>
  <circle r="0.424" cx="39.804" cy="-4.695"/>
  <circle r="0.424" cx="41.644" cy="-4.695"/>
  <circle r="0.424" cx="43.493" cy="-4.685"/>
  <circle r="0.424" cx="45.342" cy="-4.704"/>
  <circle r="0.424" cx="39.804" cy="-2.845"/>
  <circle r="0.424" cx="41.644" cy="-2.845"/>
  <circle r="0.424" cx="43.493" cy="-2.836"/>
  <circle r="0.424" cx="45.342" cy="-2.855"/>
  <path d="M39.38-1c0.002-0.232,0.191-0.42,0.424-0.42c0.233,0,0.422,0.188,0.424,0.42"/>
  <path d="M42.068-1c-0.003-0.232-0.191-0.42-0.424-0.42c-0.233,0-0.422,0.188-0.424,0.42"/>
  <path d="M43.069-1c0.007-0.227,0.194-0.411,0.424-0.411c0.23,0,0.417,0.184,0.424,0.411"/>
  <path d="M45.766-1c0-0.002,0-0.004,0-0.006c0-0.234-0.19-0.424-0.424-0.424c-0.234,0-0.424,0.19-0.424,0.424    c0,0.002,0,0.004,0,0.006"/>
  <circle r="0.424" cx="47.192" cy="-13.946"/>
  <circle r="0.424" cx="49.032" cy="-13.946"/>
  <circle r="0.424" cx="50.881" cy="-13.936"/>
  <circle r="0.424" cx="52.73" cy="-13.955"/>
  <circle r="0.424" cx="47.192" cy="-12.096"/>
  <circle r="0.424" cx="49.032" cy="-12.096"/>
  <circle r="0.424" cx="50.881" cy="-12.087"/>
  <circle r="0.424" cx="52.73" cy="-12.106"/>
  <circle r="0.424" cx="47.192" cy="-10.247"/>
  <circle r="0.424" cx="49.032" cy="-10.247"/>
  <circle r="0.424" cx="50.881" cy="-10.238"/>
  <circle r="0.424" cx="52.73" cy="-10.257"/>
  <circle r="0.424" cx="47.192" cy="-8.398"/>
  <circle r="0.424" cx="49.032" cy="-8.398"/>
  <circle r="0.424" cx="50.881" cy="-8.389"/>
  <circle r="0.424" cx="52.73" cy="-8.408"/>
  <circle r="0.424" cx="54.592" cy="-13.946"/>
  <circle r="0.424" cx="56.432" cy="-13.946"/>
  <circle r="0.424" cx="58.281" cy="-13.936"/>
  <path d="M60.184-14.375c-0.018-0.002-0.036-0.004-0.054-0.004c-0.234,0-0.424,0.189-0.424,0.424c0,0.234,0.189,0.424,0.424,0.424    c0.018,0,0.037-0.001,0.054-0.004"/>
  <circle r="0.424" cx="54.592" cy="-12.096"/>
  <circle r="0.424" cx="56.432" cy="-12.096"/>
  <circle r="0.424" cx="58.281" cy="-12.087"/>
  <path d="M60.184-12.526c-0.018-0.002-0.036-0.004-0.054-0.004c-0.234,0-0.424,0.19-0.424,0.424c0,0.234,0.189,0.424,0.424,0.424    c0.018,0,0.037-0.002,0.054-0.004"/>
  <circle r="0.424" cx="54.592" cy="-10.247"/>
  <circle r="0.424" cx="56.432" cy="-10.247"/>
  <circle r="0.424" cx="58.281" cy="-10.238"/>
  <path d="M60.184-10.677c-0.018-0.002-0.036-0.004-0.054-0.004c-0.234,0-0.424,0.19-0.424,0.424c0,0.234,0.189,0.424,0.424,0.424    c0.018,0,0.037-0.001,0.054-0.004"/>
  <circle r="0.424" cx="54.592" cy="-8.398"/>
  <circle r="0.424" cx="56.432" cy="-8.398"/>
  <circle r="0.424" cx="58.281" cy="-8.389"/>
  <path d="M60.184-8.828c-0.018-0.002-0.036-0.004-0.054-0.004c-0.234,0-0.424,0.19-0.424,0.424c0,0.234,0.189,0.424,0.424,0.424    c0.018,0,0.037-0.002,0.054-0.004"/>
  <circle r="0.424" cx="47.192" cy="-6.544"/>
  <circle r="0.424" cx="49.032" cy="-6.544"/>
  <circle r="0.424" cx="50.881" cy="-6.534"/>
  <circle r="0.424" cx="52.73" cy="-6.553"/>
  <circle r="0.424" cx="47.192" cy="-4.695"/>
  <circle r="0.424" cx="49.032" cy="-4.695"/>
  <circle r="0.424" cx="50.881" cy="-4.685"/>
  <circle r="0.424" cx="52.73" cy="-4.704"/>
  <circle r="0.424" cx="47.192" cy="-2.845"/>
  <circle r="0.424" cx="49.032" cy="-2.845"/>
  <circle r="0.424" cx="50.881" cy="-2.836"/>
  <circle r="0.424" cx="52.73" cy="-2.855"/>
  <path d="M46.768-1c0.002-0.232,0.191-0.42,0.424-0.42c0.232,0,0.422,0.188,0.424,0.42"/>
  <path d="M49.456-1c-0.002-0.232-0.192-0.42-0.424-0.42S48.61-1.232,48.607-1"/>
  <path d="M50.458-1c0.007-0.227,0.193-0.411,0.423-0.411c0.23,0,0.417,0.184,0.424,0.411"/>
  <path d="M53.154-1c0-0.002,0-0.004,0-0.006c0-0.234-0.19-0.424-0.424-0.424c-0.235,0-0.424,0.19-0.424,0.424    c0,0.002,0,0.004,0,0.006"/>
  <circle r="0.424" cx="54.592" cy="-6.544"/>
  <circle r="0.424" cx="56.432" cy="-6.544"/>
  <circle r="0.424" cx="58.281" cy="-6.534"/>
  <path d="M60.184-6.974c-0.018-0.003-0.036-0.004-0.054-0.004c-0.234,0-0.424,0.189-0.424,0.424c0,0.234,0.189,0.424,0.424,0.424    c0.018,0,0.037-0.002,0.054-0.004"/>
  <circle r="0.424" cx="54.592" cy="-4.695"/>
  <circle r="0.424" cx="56.432" cy="-4.695"/>
  <circle r="0.424" cx="58.281" cy="-4.685"/>
  <path d="M60.184-5.124c-0.018-0.003-0.036-0.004-0.054-0.004c-0.234,0-0.424,0.19-0.424,0.424c0,0.234,0.189,0.424,0.424,0.424    c0.018,0,0.037-0.002,0.054-0.004"/>
  <circle r="0.424" cx="54.592" cy="-2.845"/>
  <circle r="0.424" cx="56.432" cy="-2.845"/>
  <circle r="0.424" cx="58.281" cy="-2.836"/>
  <path d="M60.184-3.275c-0.018-0.002-0.036-0.004-0.054-0.004c-0.234,0-0.424,0.19-0.424,0.424s0.189,0.424,0.424,0.424    c0.018,0,0.037-0.001,0.054-0.004"/>
  <path d="M54.168-1c0.002-0.232,0.191-0.42,0.424-0.42c0.232,0,0.421,0.188,0.424,0.42"/>
  <path d="M56.856-1c-0.002-0.232-0.191-0.42-0.424-0.42c-0.233,0-0.422,0.188-0.424,0.42"/>
  <path d="M57.857-1c0.007-0.227,0.194-0.411,0.424-0.411c0.23,0,0.417,0.184,0.424,0.411"/>
  <path d="M60.184-1.006v-0.42C60.167-1.429,60.148-1.43,60.13-1.43c-0.234,0-0.424,0.19-0.424,0.424c0,0.002,0,0.004,0,0.006h0.478    "/>
  <path d="M2.418-60.184c0,0.001,0,0.003,0,0.003c0,0.234,0.19,0.424,0.424,0.424s0.424-0.19,0.424-0.424c0-0.001,0-0.002,0-0.003"/>
  <path d="M1.436-60.184c0,0.001,0,0.003,0,0.003c0,0.234-0.19,0.424-0.424,0.424v-0.438L1.436-60.184z"/>
  <path d="M4.257-60.184c0,0.001,0,0.003,0,0.003c0,0.234,0.19,0.424,0.424,0.424c0.234,0,0.424-0.19,0.424-0.424    c0-0.001,0-0.002,0-0.003"/>
  <path d="M6.107-60.184c0,0.004-0.001,0.009-0.001,0.013c0,0.234,0.189,0.424,0.424,0.424c0.234,0,0.424-0.19,0.424-0.424    c0-0.004,0-0.009,0-0.013"/>
  <path d="M8.804-60.184C8.8-59.953,8.612-59.766,8.38-59.766c-0.232,0-0.42-0.186-0.424-0.418"/>
  <path d="M9.817-60.184c0,0.001,0,0.003,0,0.003c0,0.234,0.19,0.424,0.424,0.424c0.234,0,0.424-0.19,0.424-0.424    c0-0.001,0-0.002,0-0.003"/>
  <path d="M11.657-60.184c0,0.001,0,0.003,0,0.003c0,0.234,0.19,0.424,0.424,0.424c0.234,0,0.424-0.19,0.424-0.424    c0-0.001,0-0.002,0-0.003"/>
  <path d="M13.507-60.184c0,0.004,0,0.009,0,0.013c0,0.234,0.189,0.424,0.424,0.424c0.234,0,0.424-0.19,0.424-0.424    c0-0.004,0-0.009,0-0.013"/>
  <path d="M16.203-60.184c-0.003,0.232-0.191,0.418-0.423,0.418c-0.233,0-0.42-0.186-0.424-0.418"/>
  <path d="M17.205-60.184c0,0.001,0,0.003,0,0.003c0,0.234,0.19,0.424,0.424,0.424c0.234,0,0.424-0.19,0.424-0.424    c0-0.001,0-0.002,0-0.003"/>
  <path d="M19.045-60.184c0,0.001,0,0.003,0,0.003c0,0.234,0.189,0.424,0.424,0.424c0.234,0,0.424-0.19,0.424-0.424    c0-0.001,0-0.002,0-0.003"/>
  <path d="M20.895-60.184c0,0.004-0.001,0.009-0.001,0.013c0,0.234,0.19,0.424,0.424,0.424c0.234,0,0.424-0.19,0.424-0.424    c0-0.004,0-0.009,0-0.013"/>
  <path d="M23.591-60.184c-0.003,0.232-0.191,0.418-0.424,0.418c-0.232,0-0.42-0.186-0.424-0.418"/>
  <path d="M24.605-60.184c0,0.001,0,0.003,0,0.003c0,0.234,0.19,0.424,0.424,0.424s0.424-0.19,0.424-0.424c0-0.001,0-0.002,0-0.003"/>
  <path d="M26.445-60.184c0,0.001,0,0.003,0,0.003c0,0.234,0.19,0.424,0.424,0.424c0.234,0,0.424-0.19,0.424-0.424    c0-0.001,0-0.002,0-0.003"/>
  <path d="M28.294-60.184c0,0.004,0,0.009,0,0.013c0,0.234,0.19,0.424,0.424,0.424c0.234,0,0.424-0.19,0.424-0.424    c0-0.004,0-0.009,0-0.013"/>
  <path d="M30.991-60.184c-0.003,0.232-0.192,0.418-0.424,0.418c-0.232,0-0.42-0.186-0.424-0.418"/>
  <path d="M31.98-60.184c0,0.001,0,0.003,0,0.003c0,0.234,0.19,0.424,0.424,0.424c0.234,0,0.424-0.19,0.424-0.424    c0-0.001,0-0.002,0-0.003"/>
  <path d="M33.82-60.184c0,0.001,0,0.003,0,0.003c0,0.234,0.19,0.424,0.424,0.424c0.234,0,0.424-0.19,0.424-0.424    c0-0.001,0-0.002,0-0.003"/>
  <path d="M35.669-60.184c0,0.004,0,0.009,0,0.013c0,0.234,0.19,0.424,0.424,0.424c0.234,0,0.424-0.19,0.424-0.424    c0-0.004,0-0.009,0-0.013"/>
  <path d="M38.366-60.184c-0.003,0.232-0.191,0.418-0.424,0.418c-0.232,0-0.42-0.186-0.423-0.418"/>
  <path d="M39.38-60.184c0,0.001,0,0.003,0,0.003c0,0.234,0.19,0.424,0.424,0.424c0.234,0,0.424-0.19,0.424-0.424    c0-0.001,0-0.002,0-0.003"/>
  <path d="M41.22-60.184c0,0.001,0,0.003,0,0.003c0,0.234,0.19,0.424,0.424,0.424c0.234,0,0.424-0.19,0.424-0.424    c0-0.001,0-0.002,0-0.003"/>
  <path d="M43.069-60.184c0,0.004,0,0.009,0,0.013c0,0.234,0.19,0.424,0.424,0.424c0.234,0,0.424-0.19,0.424-0.424    c0-0.004,0-0.009,0-0.013"/>
  <path d="M45.766-60.184c-0.003,0.232-0.191,0.418-0.424,0.418s-0.42-0.186-0.424-0.418"/>
  <path d="M46.768-60.184c0,0.001,0,0.003,0,0.003c0,0.234,0.19,0.424,0.424,0.424c0.234,0,0.424-0.19,0.424-0.424    c0-0.001,0-0.002,0-0.003"/>
  <path d="M48.607-60.184c0,0.001,0,0.003,0,0.003c0,0.234,0.19,0.424,0.424,0.424c0.234,0,0.424-0.19,0.424-0.424    c0-0.001,0-0.002,0-0.003"/>
  <path d="M50.458-60.184c0,0.004,0,0.009,0,0.013c0,0.234,0.189,0.424,0.424,0.424c0.234,0,0.424-0.19,0.424-0.424    c0-0.004,0-0.009,0-0.013"/>
  <path d="M53.154-60.184c-0.003,0.232-0.191,0.418-0.423,0.418c-0.233,0-0.421-0.186-0.424-0.418"/>
  <path d="M54.168-60.184c0,0.001,0,0.003,0,0.003c0,0.234,0.19,0.424,0.424,0.424c0.234,0,0.424-0.19,0.424-0.424    c0-0.001,0-0.002,0-0.003"/>
  <path d="M56.007-60.184c0,0.001,0,0.003,0,0.003c0,0.234,0.19,0.424,0.424,0.424c0.234,0,0.424-0.19,0.424-0.424    c0-0.001,0-0.002,0-0.003"/>
  <path d="M57.857-60.184c0,0.004,0,0.009,0,0.013c0,0.234,0.19,0.424,0.424,0.424c0.234,0,0.424-0.19,0.424-0.424    c0-0.004,0-0.009,0-0.013"/>
  <path d="M60.171-60.184h-0.424c0,0.004,0,0.009,0,0.013c0,0.234,0.19,0.424,0.424,0.424v-0.432"/>
 </g>
</svg>
