<?xml version="1.0"?>
<!-- Converted with SVG Converter - Version 0.9.5 (Compiled Fri Feb 21 09:53:38 2020) - Copyright (C) 2011 Nokia -->
<svg xmlns="http://www.w3.org/2000/svg" xmlns:xlink="http://www.w3.org/1999/xlink" y="0px" height="43.2" x="0px" xml:space="preserve" width="43.2" viewBox="2.184 -46.117 43.2 43.2" version="1.1" baseProfile="tiny">
 <g>
  <rect y="-46.117" height="43.2" style="fill:none;" x="2.184" width="43.2"/>
  <line y1="-44.434" y2="-44.434" x2="14.75" style="fill:none;stroke:#EC008C;stroke-width:0.8;stroke-linecap:round;" x1="14.75"/>
  <line y1="-42.034" y2="-42.034" x2="14.75" style="fill:none;stroke:#EC008C;stroke-width:0.8;stroke-linecap:round;" x1="14.75"/>
  <line y1="-39.934" y2="-39.934" x2="14.3" style="fill:none;stroke:#EC008C;stroke-width:0.8;stroke-linecap:round;" x1="14.3"/>
  <line y1="-39.784" y2="-39.784" x2="10.85" style="fill:none;stroke:#EC008C;stroke-width:0.8;stroke-linecap:round;" x1="10.85"/>
  <line y1="-33.633" y2="-33.633" x2="16.55" style="fill:none;stroke:#EC008C;stroke-width:0.8;stroke-linecap:round;" x1="16.55"/>
  <line y1="-30.484" y2="-30.484" x2="10.1" style="fill:none;stroke:#EC008C;stroke-width:0.8;stroke-linecap:round;" x1="10.1"/>
  <line y1="-30.034" y2="-30.034" x2="16.55" style="fill:none;stroke:#EC008C;stroke-width:0.8;stroke-linecap:round;" x1="16.55"/>
  <line y1="-30.034" y2="-30.034" x2="20" style="fill:none;stroke:#EC008C;stroke-width:0.8;stroke-linecap:round;" x1="20"/>
  <line y1="-32.284" y2="-32.284" x2="20.9" style="fill:none;stroke:#EC008C;stroke-width:0.8;stroke-linecap:round;" x1="20.9"/>
  <line y1="-35.284" y2="-35.284" x2="19.7" style="fill:none;stroke:#EC008C;stroke-width:0.8;stroke-linecap:round;" x1="19.7"/>
  <line y1="-34.383" y2="-34.383" x2="22.55" style="fill:none;stroke:#EC008C;stroke-width:0.8;stroke-linecap:round;" x1="22.55"/>
  <line y1="-37.234" y2="-37.234" x2="22.55" style="fill:none;stroke:#EC008C;stroke-width:0.8;stroke-linecap:round;" x1="22.55"/>
  <line y1="-39.184" y2="-39.184" x2="21.2" style="fill:none;stroke:#EC008C;stroke-width:0.8;stroke-linecap:round;" x1="21.2"/>
  <line y1="-42.034" y2="-42.034" x2="21.5" style="fill:none;stroke:#EC008C;stroke-width:0.8;stroke-linecap:round;" x1="21.5"/>
  <line y1="-44.134" y2="-44.134" x2="20.75" style="fill:none;stroke:#EC008C;stroke-width:0.8;stroke-linecap:round;" x1="20.75"/>
  <line y1="-45.484" y2="-45.484" x2="22.55" style="fill:none;stroke:#EC008C;stroke-width:0.8;stroke-linecap:round;" x1="22.55"/>
  <line y1="-42.034" y2="-42.034" x2="27.05" style="fill:none;stroke:#EC008C;stroke-width:0.8;stroke-linecap:round;" x1="27.05"/>
  <line y1="-42.184" y2="-42.184" x2="29.45" style="fill:none;stroke:#EC008C;stroke-width:0.8;stroke-linecap:round;" x1="29.45"/>
  <line y1="-38.134" y2="-38.134" x2="27.65" style="fill:none;stroke:#EC008C;stroke-width:0.8;stroke-linecap:round;" x1="27.65"/>
  <line y1="-37.684" y2="-37.684" x2="30.35" style="fill:none;stroke:#EC008C;stroke-width:0.8;stroke-linecap:round;" x1="30.35"/>
  <line y1="-34.684" y2="-34.684" x2="30.35" style="fill:none;stroke:#EC008C;stroke-width:0.8;stroke-linecap:round;" x1="30.35"/>
  <line y1="-33.784" y2="-33.784" x2="25.55" style="fill:none;stroke:#EC008C;stroke-width:0.8;stroke-linecap:round;" x1="25.55"/>
  <line y1="-38.134" y2="-38.134" x2="32.3" style="fill:none;stroke:#EC008C;stroke-width:0.8;stroke-linecap:round;" x1="32.3"/>
  <line y1="-39.634" y2="-39.634" x2="35" style="fill:none;stroke:#EC008C;stroke-width:0.8;stroke-linecap:round;" x1="35"/>
  <line y1="-45.6" y2="-45.6" x2="36.117" style="fill:none;stroke:#EC008C;stroke-width:0.8;stroke-linecap:round;" x1="36.117"/>
  <line y1="-45.184" y2="-45.184" x2="42.65" style="fill:none;stroke:#EC008C;stroke-width:0.8;stroke-linecap:round;" x1="42.65"/>
  <line y1="-40.083" y2="-40.083" x2="42.95" style="fill:none;stroke:#EC008C;stroke-width:0.8;stroke-linecap:round;" x1="42.95"/>
  <line y1="-38.884" y2="-38.884" x2="40.7" style="fill:none;stroke:#EC008C;stroke-width:0.8;stroke-linecap:round;" x1="40.7"/>
  <line y1="-36.784" y2="-36.784" x2="41.3" style="fill:none;stroke:#EC008C;stroke-width:0.8;stroke-linecap:round;" x1="41.3"/>
  <line y1="-34.383" y2="-34.383" x2="40.55" style="fill:none;stroke:#EC008C;stroke-width:0.8;stroke-linecap:round;" x1="40.55"/>
  <line y1="-32.734" y2="-32.734" x2="40.7" style="fill:none;stroke:#EC008C;stroke-width:0.8;stroke-linecap:round;" x1="40.7"/>
  <line y1="-33.484" y2="-33.484" x2="42.95" style="fill:none;stroke:#EC008C;stroke-width:0.8;stroke-linecap:round;" x1="42.95"/>
  <line y1="-14.883" y2="-14.883" x2="6.35" style="fill:none;stroke:#EC008C;stroke-width:0.8;stroke-linecap:round;" x1="6.35"/>
  <line y1="-13.534" y2="-13.534" x2="6.5" style="fill:none;stroke:#EC008C;stroke-width:0.8;stroke-linecap:round;" x1="6.5"/>
  <line y1="-13.534" y2="-13.534" x2="3.5" style="fill:none;stroke:#EC008C;stroke-width:0.8;stroke-linecap:round;" x1="3.5"/>
  <line y1="-7.833" y2="-7.833" x2="8" style="fill:none;stroke:#EC008C;stroke-width:0.8;stroke-linecap:round;" x1="8"/>
  <line y1="-5.433" y2="-5.433" x2="2.75" style="fill:none;stroke:#EC008C;stroke-width:0.8;stroke-linecap:round;" x1="2.75"/>
  <line y1="-3.633" y2="-3.633" x2="8.75" style="fill:none;stroke:#EC008C;stroke-width:0.8;stroke-linecap:round;" x1="8.75"/>
  <path d="M13.25-6.933L13.25-6.933" style="fill:none;stroke:#EC008C;stroke-width:0.8;stroke-linecap:round;"/>
  <line y1="-8.883" y2="-8.883" x2="11.9" style="fill:none;stroke:#EC008C;stroke-width:0.8;stroke-linecap:round;" x1="11.9"/>
  <line y1="-11.583" y2="-11.583" x2="13.85" style="fill:none;stroke:#EC008C;stroke-width:0.8;stroke-linecap:round;" x1="13.85"/>
  <line y1="-9.034" y2="-9.034" x2="9.5" style="fill:none;stroke:#EC008C;stroke-width:0.8;stroke-linecap:round;" x1="9.5"/>
  <line y1="-13.383" y2="-13.383" x2="11.9" style="fill:none;stroke:#EC008C;stroke-width:0.8;stroke-linecap:round;" x1="11.9"/>
  <line y1="-15.633" y2="-15.633" x2="13.7" style="fill:none;stroke:#EC008C;stroke-width:0.8;stroke-linecap:round;" x1="13.7"/>
  <line y1="-15.633" y2="-15.633" x2="11" style="fill:none;stroke:#EC008C;stroke-width:0.8;stroke-linecap:round;" x1="11"/>
  <line y1="-17.883" y2="-17.883" x2="11.9" style="fill:none;stroke:#EC008C;stroke-width:0.8;stroke-linecap:round;" x1="11.9"/>
  <line y1="-15.784" y2="-15.784" x2="21.65" style="fill:none;stroke:#EC008C;stroke-width:0.8;stroke-linecap:round;" x1="21.65"/>
  <line y1="-13.683" y2="-13.683" x2="18.5" style="fill:none;stroke:#EC008C;stroke-width:0.8;stroke-linecap:round;" x1="18.5"/>
  <line y1="-12.784" y2="-12.784" x2="21.35" style="fill:none;stroke:#EC008C;stroke-width:0.8;stroke-linecap:round;" x1="21.35"/>
  <line y1="-10.833" y2="-10.833" x2="20.75" style="fill:none;stroke:#EC008C;stroke-width:0.8;stroke-linecap:round;" x1="20.75"/>
  <line y1="-7.984" y2="-7.984" x2="17.75" style="fill:none;stroke:#EC008C;stroke-width:0.8;stroke-linecap:round;" x1="17.75"/>
  <line y1="-12.484" y2="-12.484" x2="23.75" style="fill:none;stroke:#EC008C;stroke-width:0.8;stroke-linecap:round;" x1="23.75"/>
  <line y1="-15.784" y2="-15.784" x2="27.2" style="fill:none;stroke:#EC008C;stroke-width:0.8;stroke-linecap:round;" x1="27.2"/>
  <line y1="-19.383" y2="-19.383" x2="28.25" style="fill:none;stroke:#EC008C;stroke-width:0.8;stroke-linecap:round;" x1="28.25"/>
  <line y1="-15.333" y2="-15.333" x2="32.3" style="fill:none;stroke:#EC008C;stroke-width:0.8;stroke-linecap:round;" x1="32.3"/>
  <line y1="-17.583" y2="-17.583" x2="33.05" style="fill:none;stroke:#EC008C;stroke-width:0.8;stroke-linecap:round;" x1="33.05"/>
  <line y1="-18.034" y2="-18.034" x2="35.15" style="fill:none;stroke:#EC008C;stroke-width:0.8;stroke-linecap:round;" x1="35.15"/>
  <line y1="-13.683" y2="-13.683" x2="35.15" style="fill:none;stroke:#EC008C;stroke-width:0.8;stroke-linecap:round;" x1="35.15"/>
  <line y1="-12.484" y2="-12.484" x2="32.9" style="fill:none;stroke:#EC008C;stroke-width:0.8;stroke-linecap:round;" x1="32.9"/>
  <line y1="-10.083" y2="-10.083" x2="30.8" style="fill:none;stroke:#EC008C;stroke-width:0.8;stroke-linecap:round;" x1="30.8"/>
  <line y1="-11.284" y2="-11.284" x2="35.3" style="fill:none;stroke:#EC008C;stroke-width:0.8;stroke-linecap:round;" x1="35.3"/>
  <line y1="-9.333" y2="-9.333" x2="37.1" style="fill:none;stroke:#EC008C;stroke-width:0.8;stroke-linecap:round;" x1="37.1"/>
  <line y1="-32.734" y2="-32.734" x2="14.45" style="fill:none;stroke:#EC008C;stroke-width:0.8;stroke-linecap:round;" x1="14.45"/>
  <line y1="-31.383" y2="-31.383" x2="25.55" style="fill:none;stroke:#EC008C;stroke-width:0.8;stroke-linecap:round;" x1="25.55"/>
  <line y1="-29.883" y2="-29.883" x2="30.65" style="fill:none;stroke:#EC008C;stroke-width:0.8;stroke-linecap:round;" x1="30.65"/>
  <line y1="-29.434" y2="-29.434" x2="35.3" style="fill:none;stroke:#EC008C;stroke-width:0.8;stroke-linecap:round;" x1="35.3"/>
  <line y1="-31.083" y2="-31.083" x2="32.9" style="fill:none;stroke:#EC008C;stroke-width:0.8;stroke-linecap:round;" x1="32.9"/>
  <line y1="-28.534" y2="-28.534" x2="33.35" style="fill:none;stroke:#EC008C;stroke-width:0.8;stroke-linecap:round;" x1="33.35"/>
  <line y1="-24.934" y2="-24.934" x2="39.65" style="fill:none;stroke:#EC008C;stroke-width:0.8;stroke-linecap:round;" x1="39.65"/>
  <line y1="-22.833" y2="-22.833" x2="36.2" style="fill:none;stroke:#EC008C;stroke-width:0.8;stroke-linecap:round;" x1="36.2"/>
  <line y1="-23.883" y2="-23.883" x2="31.1" style="fill:none;stroke:#EC008C;stroke-width:0.8;stroke-linecap:round;" x1="31.1"/>
  <line y1="-21.484" y2="-21.484" x2="30.95" style="fill:none;stroke:#EC008C;stroke-width:0.8;stroke-linecap:round;" x1="30.95"/>
  <line y1="-19.684" y2="-19.684" x2="30.95" style="fill:none;stroke:#EC008C;stroke-width:0.8;stroke-linecap:round;" x1="30.95"/>
  <line y1="-18.484" y2="-18.484" x2="37.55" style="fill:none;stroke:#EC008C;stroke-width:0.8;stroke-linecap:round;" x1="37.55"/>
  <line y1="-16.833" y2="-16.833" x2="39.95" style="fill:none;stroke:#EC008C;stroke-width:0.8;stroke-linecap:round;" x1="39.95"/>
  <line y1="-19.984" y2="-19.984" x2="43.25" style="fill:none;stroke:#EC008C;stroke-width:0.8;stroke-linecap:round;" x1="43.25"/>
  <line y1="-22.833" y2="-22.833" x2="39.2" style="fill:none;stroke:#EC008C;stroke-width:0.8;stroke-linecap:round;" x1="39.2"/>
  <line y1="-18.034" y2="-18.034" x2="21.65" style="fill:none;stroke:#EC008C;stroke-width:0.8;stroke-linecap:round;" x1="21.65"/>
  <line y1="-23.583" y2="-23.583" x2="17.9" style="fill:none;stroke:#EC008C;stroke-width:0.8;stroke-linecap:round;" x1="17.9"/>
  <line y1="-24.934" y2="-24.934" x2="20" style="fill:none;stroke:#EC008C;stroke-width:0.8;stroke-linecap:round;" x1="20"/>
  <line y1="-28.534" y2="-28.534" x2="8.45" style="fill:none;stroke:#EC008C;stroke-width:0.8;stroke-linecap:round;" x1="8.45"/>
  <line y1="-27.333" y2="-27.333" x2="5.75" style="fill:none;stroke:#EC008C;stroke-width:0.8;stroke-linecap:round;" x1="5.75"/>
  <line y1="-25.083" y2="-25.083" x2="3.65" style="fill:none;stroke:#EC008C;stroke-width:0.8;stroke-linecap:round;" x1="3.65"/>
  <line y1="-21.033" y2="-21.033" x2="12.35" style="fill:none;stroke:#EC008C;stroke-width:0.8;stroke-linecap:round;" x1="12.35"/>
  <line y1="-25.833" y2="-25.833" x2="10.55" style="fill:none;stroke:#EC008C;stroke-width:0.8;stroke-linecap:round;" x1="10.55"/>
  <line y1="-28.083" y2="-28.083" x2="18.05" style="fill:none;stroke:#EC008C;stroke-width:0.8;stroke-linecap:round;" x1="18.05"/>
  <line y1="-27.333" y2="-27.333" x2="27.05" style="fill:none;stroke:#EC008C;stroke-width:0.8;stroke-linecap:round;" x1="27.05"/>
  <line y1="-27.333" y2="-27.333" x2="24.5" style="fill:none;stroke:#EC008C;stroke-width:0.8;stroke-linecap:round;" x1="24.5"/>
  <line y1="-22.383" y2="-22.383" x2="20.45" style="fill:none;stroke:#EC008C;stroke-width:0.8;stroke-linecap:round;" x1="20.45"/>
  <line y1="-33.934" y2="-33.934" x2="6.05" style="fill:none;stroke:#EC008C;stroke-width:0.8;stroke-linecap:round;" x1="6.05"/>
  <line y1="-34.984" y2="-34.984" x2="8" style="fill:none;stroke:#EC008C;stroke-width:0.8;stroke-linecap:round;" x1="8"/>
  <line y1="-32.133" y2="-32.133" x2="9.2" style="fill:none;stroke:#EC008C;stroke-width:0.8;stroke-linecap:round;" x1="9.2"/>
  <line y1="-30.784" y2="-30.784" x2="3.95" style="fill:none;stroke:#EC008C;stroke-width:0.8;stroke-linecap:round;" x1="3.95"/>
  <line y1="-28.534" y2="-28.534" x2="40.7" style="fill:none;stroke:#EC008C;stroke-width:0.8;stroke-linecap:round;" x1="40.7"/>
  <line y1="-28.383" y2="-28.383" x2="43.85" style="fill:none;stroke:#EC008C;stroke-width:0.8;stroke-linecap:round;" x1="43.85"/>
  <line y1="-40.833" y2="-40.833" x2="3.05" style="fill:none;stroke:#EC008C;stroke-width:0.8;stroke-linecap:round;" x1="3.05"/>
  <line y1="-42.184" y2="-42.184" x2="12.8" style="fill:none;stroke:#EC008C;stroke-width:0.8;stroke-linecap:round;" x1="12.8"/>
  <line y1="-42.634" y2="-42.634" x2="4.4" style="fill:none;stroke:#EC008C;stroke-width:0.8;stroke-linecap:round;" x1="4.4"/>
  <line y1="-37.684" y2="-37.684" x2="9.8" style="fill:none;stroke:#EC008C;stroke-width:0.8;stroke-linecap:round;" x1="9.8"/>
  <line y1="-34.684" y2="-34.684" x2="13.25" style="fill:none;stroke:#EC008C;stroke-width:0.8;stroke-linecap:round;" x1="13.25"/>
  <line y1="-24.033" y2="-24.033" x2="14.9" style="fill:none;stroke:#EC008C;stroke-width:0.8;stroke-linecap:round;" x1="14.9"/>
  <line y1="-19.684" y2="-19.684" x2="2.6" style="fill:none;stroke:#EC008C;stroke-width:0.8;stroke-linecap:round;" x1="2.6"/>
  <line y1="-6.784" y2="-6.784" x2="43.85" style="fill:none;stroke:#EC008C;stroke-width:0.8;stroke-linecap:round;" x1="43.85"/>
  <line y1="-4.832" y2="-4.832" x2="36.65" style="fill:none;stroke:#EC008C;stroke-width:0.8;stroke-linecap:round;" x1="36.65"/>
  <line y1="-5.433" y2="-5.433" x2="26.45" style="fill:none;stroke:#EC008C;stroke-width:0.8;stroke-linecap:round;" x1="26.45"/>
  <line y1="-10.234" y2="-10.234" x2="4.85" style="fill:none;stroke:#EC008C;stroke-width:0.8;stroke-linecap:round;" x1="4.85"/>
  <line y1="-10.534" y2="-10.534" x2="18.05" style="fill:none;stroke:#EC008C;stroke-width:0.8;stroke-linecap:round;" x1="18.05"/>
  <line y1="-17.133" y2="-17.133" x2="24.5" style="fill:none;stroke:#EC008C;stroke-width:0.8;stroke-linecap:round;" x1="24.5"/>
  <line y1="-22.083" y2="-22.083" x2="7.4" style="fill:none;stroke:#EC008C;stroke-width:0.8;stroke-linecap:round;" x1="7.4"/>
  <line y1="-23.434" y2="-23.434" x2="33.5" style="fill:none;stroke:#EC008C;stroke-width:0.8;stroke-linecap:round;" x1="33.5"/>
  <line y1="-18.784" y2="-18.784" x2="41" style="fill:none;stroke:#EC008C;stroke-width:0.8;stroke-linecap:round;" x1="41"/>
  <line y1="-6.484" y2="-6.484" x2="32.9" style="fill:none;stroke:#EC008C;stroke-width:0.8;stroke-linecap:round;" x1="32.9"/>
  <line y1="-23.583" y2="-23.583" x2="26.15" style="fill:none;stroke:#EC008C;stroke-width:0.8;stroke-linecap:round;" x1="26.15"/>
  <line y1="-38.134" y2="-38.134" x2="18.65" style="fill:none;stroke:#EC008C;stroke-width:0.8;stroke-linecap:round;" x1="18.65"/>
  <line y1="-30.333" y2="-30.333" x2="14" style="fill:none;stroke:#EC008C;stroke-width:0.8;stroke-linecap:round;" x1="14"/>
  <line y1="-45.184" y2="-45.184" x2="9.2" style="fill:none;stroke:#EC008C;stroke-width:0.8;stroke-linecap:round;" x1="9.2"/>
  <line y1="-43.984" y2="-43.984" x2="35.3" style="fill:none;stroke:#EC008C;stroke-width:0.8;stroke-linecap:round;" x1="35.3"/>
  <line y1="-4.832" y2="-4.832" x2="30.95" style="fill:none;stroke:#EC008C;stroke-width:0.8;stroke-linecap:round;" x1="30.95"/>
  <line y1="-21.783" y2="-21.783" x2="4.4" style="fill:none;stroke:#EC008C;stroke-width:0.8;stroke-linecap:round;" x1="4.4"/>
  <line y1="-38.284" y2="-38.284" x2="43.4" style="fill:none;stroke:#EC008C;stroke-width:0.8;stroke-linecap:round;" x1="43.4"/>
  <line y1="-37.833" y2="-37.833" x2="16.1" style="fill:none;stroke:#EC008C;stroke-width:0.8;stroke-linecap:round;" x1="16.1"/>
  <line y1="-36.333" y2="-36.333" x2="14" style="fill:none;stroke:#EC008C;stroke-width:0.8;stroke-linecap:round;" x1="14"/>
  <line y1="-35.883" y2="-35.883" x2="11" style="fill:none;stroke:#EC008C;stroke-width:0.8;stroke-linecap:round;" x1="11"/>
  <line y1="-39.184" y2="-39.184" x2="5.75" style="fill:none;stroke:#EC008C;stroke-width:0.8;stroke-linecap:round;" x1="5.75"/>
  <line y1="-44.583" y2="-44.583" x2="6.35" style="fill:none;stroke:#EC008C;stroke-width:0.8;stroke-linecap:round;" x1="6.35"/>
  <line y1="-41.284" y2="-41.284" x2="10.7" style="fill:none;stroke:#EC008C;stroke-width:0.8;stroke-linecap:round;" x1="10.7"/>
  <line y1="-42.034" y2="-42.034" x2="17.6" style="fill:none;stroke:#EC008C;stroke-width:0.8;stroke-linecap:round;" x1="17.6"/>
  <line y1="-41.734" y2="-41.734" x2="24.35" style="fill:none;stroke:#EC008C;stroke-width:0.8;stroke-linecap:round;" x1="24.35"/>
  <line y1="-43.684" y2="-43.684" x2="24.65" style="fill:none;stroke:#EC008C;stroke-width:0.8;stroke-linecap:round;" x1="24.65"/>
  <line y1="-45.333" y2="-45.333" x2="28.25" style="fill:none;stroke:#EC008C;stroke-width:0.8;stroke-linecap:round;" x1="28.25"/>
  <line y1="-40.833" y2="-40.833" x2="32.9" style="fill:none;stroke:#EC008C;stroke-width:0.8;stroke-linecap:round;" x1="32.9"/>
  <line y1="-39.634" y2="-39.634" x2="23.6" style="fill:none;stroke:#EC008C;stroke-width:0.8;stroke-linecap:round;" x1="23.6"/>
  <line y1="-37.234" y2="-37.234" x2="25.7" style="fill:none;stroke:#EC008C;stroke-width:0.8;stroke-linecap:round;" x1="25.7"/>
  <line y1="-35.434" y2="-35.434" x2="17" style="fill:none;stroke:#EC008C;stroke-width:0.8;stroke-linecap:round;" x1="17"/>
  <line y1="-29.583" y2="-29.583" x2="6.5" style="fill:none;stroke:#EC008C;stroke-width:0.8;stroke-linecap:round;" x1="6.5"/>
  <line y1="-27.184" y2="-27.184" x2="11.75" style="fill:none;stroke:#EC008C;stroke-width:0.8;stroke-linecap:round;" x1="11.75"/>
  <line y1="-26.133" y2="-26.133" x2="8.45" style="fill:none;stroke:#EC008C;stroke-width:0.8;stroke-linecap:round;" x1="8.45"/>
  <line y1="-24.033" y2="-24.033" x2="5.3" style="fill:none;stroke:#EC008C;stroke-width:0.8;stroke-linecap:round;" x1="5.3"/>
  <line y1="-33.934" y2="-33.934" x2="4.1" style="fill:none;stroke:#EC008C;stroke-width:0.8;stroke-linecap:round;" x1="4.1"/>
  <line y1="-27.784" y2="-27.784" x2="14.45" style="fill:none;stroke:#EC008C;stroke-width:0.8;stroke-linecap:round;" x1="14.45"/>
  <line y1="-24.934" y2="-24.934" x2="12.65" style="fill:none;stroke:#EC008C;stroke-width:0.8;stroke-linecap:round;" x1="12.65"/>
  <line y1="-22.833" y2="-22.833" x2="11.75" style="fill:none;stroke:#EC008C;stroke-width:0.8;stroke-linecap:round;" x1="11.75"/>
  <line y1="-21.484" y2="-21.484" x2="9.8" style="fill:none;stroke:#EC008C;stroke-width:0.8;stroke-linecap:round;" x1="9.8"/>
  <line y1="-18.333" y2="-18.333" x2="9.8" style="fill:none;stroke:#EC008C;stroke-width:0.8;stroke-linecap:round;" x1="9.8"/>
  <line y1="-16.833" y2="-16.833" x2="15.95" style="fill:none;stroke:#EC008C;stroke-width:0.8;stroke-linecap:round;" x1="15.95"/>
  <line y1="-13.534" y2="-13.534" x2="8.75" style="fill:none;stroke:#EC008C;stroke-width:0.8;stroke-linecap:round;" x1="8.75"/>
  <line y1="-11.133" y2="-11.133" x2="11.45" style="fill:none;stroke:#EC008C;stroke-width:0.8;stroke-linecap:round;" x1="11.45"/>
  <line y1="-8.133" y2="-8.133" x2="5.75" style="fill:none;stroke:#EC008C;stroke-width:0.8;stroke-linecap:round;" x1="5.75"/>
  <line y1="-9.034" y2="-9.034" x2="3.5" style="fill:none;stroke:#EC008C;stroke-width:0.8;stroke-linecap:round;" x1="3.5"/>
  <line y1="-5.433" y2="-5.433" x2="7.55" style="fill:none;stroke:#EC008C;stroke-width:0.8;stroke-linecap:round;" x1="7.55"/>
  <line y1="-4.534" y2="-4.534" x2="10.25" style="fill:none;stroke:#EC008C;stroke-width:0.8;stroke-linecap:round;" x1="10.25"/>
  <line y1="-3.784" y2="-3.784" x2="15.2" style="fill:none;stroke:#EC008C;stroke-width:0.8;stroke-linecap:round;" x1="15.2"/>
  <line y1="-6.784" y2="-6.784" x2="15.95" style="fill:none;stroke:#EC008C;stroke-width:0.8;stroke-linecap:round;" x1="15.95"/>
  <line y1="-10.234" y2="-10.234" x2="15.5" style="fill:none;stroke:#EC008C;stroke-width:0.8;stroke-linecap:round;" x1="15.5"/>
  <line y1="-11.734" y2="-11.734" x2="16.7" style="fill:none;stroke:#EC008C;stroke-width:0.8;stroke-linecap:round;" x1="16.7"/>
  <line y1="-17.583" y2="-17.583" x2="17.9" style="fill:none;stroke:#EC008C;stroke-width:0.8;stroke-linecap:round;" x1="17.9"/>
  <line y1="-20.133" y2="-20.133" x2="17.6" style="fill:none;stroke:#EC008C;stroke-width:0.8;stroke-linecap:round;" x1="17.6"/>
  <line y1="-27.633" y2="-27.633" x2="21.5" style="fill:none;stroke:#EC008C;stroke-width:0.8;stroke-linecap:round;" x1="21.5"/>
  <line y1="-30.034" y2="-30.034" x2="22.7" style="fill:none;stroke:#EC008C;stroke-width:0.8;stroke-linecap:round;" x1="22.7"/>
  <line y1="-31.234" y2="-31.234" x2="28.4" style="fill:none;stroke:#EC008C;stroke-width:0.8;stroke-linecap:round;" x1="28.4"/>
  <line y1="-33.784" y2="-33.784" x2="27.95" style="fill:none;stroke:#EC008C;stroke-width:0.8;stroke-linecap:round;" x1="27.95"/>
  <line y1="-32.883" y2="-32.883" x2="18.8" style="fill:none;stroke:#EC008C;stroke-width:0.8;stroke-linecap:round;" x1="18.8"/>
  <line y1="-33.034" y2="-33.034" x2="33.35" style="fill:none;stroke:#EC008C;stroke-width:0.8;stroke-linecap:round;" x1="33.35"/>
  <line y1="-35.583" y2="-35.583" x2="28.1" style="fill:none;stroke:#EC008C;stroke-width:0.8;stroke-linecap:round;" x1="28.1"/>
  <line y1="-35.434" y2="-35.434" x2="32.45" style="fill:none;stroke:#EC008C;stroke-width:0.8;stroke-linecap:round;" x1="32.45"/>
  <line y1="-35.883" y2="-35.883" x2="37.85" style="fill:none;stroke:#EC008C;stroke-width:0.8;stroke-linecap:round;" x1="37.85"/>
  <line y1="-37.833" y2="-37.833" x2="37.1" style="fill:none;stroke:#EC008C;stroke-width:0.8;stroke-linecap:round;" x1="37.1"/>
  <line y1="-39.784" y2="-39.784" x2="37.85" style="fill:none;stroke:#EC008C;stroke-width:0.8;stroke-linecap:round;" x1="37.85"/>
  <line y1="-41.734" y2="-41.734" x2="37.4" style="fill:none;stroke:#EC008C;stroke-width:0.8;stroke-linecap:round;" x1="37.4"/>
  <line y1="-43.384" y2="-43.384" x2="38.15" style="fill:none;stroke:#EC008C;stroke-width:0.8;stroke-linecap:round;" x1="38.15"/>
  <line y1="-42.634" y2="-42.634" x2="42.65" style="fill:none;stroke:#EC008C;stroke-width:0.8;stroke-linecap:round;" x1="42.65"/>
  <line y1="-40.684" y2="-40.684" x2="40.25" style="fill:none;stroke:#EC008C;stroke-width:0.8;stroke-linecap:round;" x1="40.25"/>
  <line y1="-31.984" y2="-31.984" x2="38.3" style="fill:none;stroke:#EC008C;stroke-width:0.8;stroke-linecap:round;" x1="38.3"/>
  <line y1="-31.984" y2="-31.984" x2="35.45" style="fill:none;stroke:#EC008C;stroke-width:0.8;stroke-linecap:round;" x1="35.45"/>
  <line y1="-34.984" y2="-34.984" x2="35.45" style="fill:none;stroke:#EC008C;stroke-width:0.8;stroke-linecap:round;" x1="35.45"/>
  <line y1="-30.784" y2="-30.784" x2="41.15" style="fill:none;stroke:#EC008C;stroke-width:0.8;stroke-linecap:round;" x1="41.15"/>
  <line y1="-27.784" y2="-27.784" x2="37.85" style="fill:none;stroke:#EC008C;stroke-width:0.8;stroke-linecap:round;" x1="37.85"/>
  <line y1="-26.583" y2="-26.583" x2="33.8" style="fill:none;stroke:#EC008C;stroke-width:0.8;stroke-linecap:round;" x1="33.8"/>
  <line y1="-25.984" y2="-25.984" x2="30.65" style="fill:none;stroke:#EC008C;stroke-width:0.8;stroke-linecap:round;" x1="30.65"/>
  <line y1="-22.684" y2="-22.684" x2="28.7" style="fill:none;stroke:#EC008C;stroke-width:0.8;stroke-linecap:round;" x1="28.7"/>
  <line y1="-21.333" y2="-21.333" x2="22.55" style="fill:none;stroke:#EC008C;stroke-width:0.8;stroke-linecap:round;" x1="22.55"/>
  <line y1="-17.434" y2="-17.434" x2="26.6" style="fill:none;stroke:#EC008C;stroke-width:0.8;stroke-linecap:round;" x1="26.6"/>
  <line y1="-14.883" y2="-14.883" x2="29.6" style="fill:none;stroke:#EC008C;stroke-width:0.8;stroke-linecap:round;" x1="29.6"/>
  <line y1="-12.183" y2="-12.183" x2="30.05" style="fill:none;stroke:#EC008C;stroke-width:0.8;stroke-linecap:round;" x1="30.05"/>
  <line y1="-10.534" y2="-10.534" x2="27.35" style="fill:none;stroke:#EC008C;stroke-width:0.8;stroke-linecap:round;" x1="27.35"/>
  <line y1="-8.583" y2="-8.583" x2="26.15" style="fill:none;stroke:#EC008C;stroke-width:0.8;stroke-linecap:round;" x1="26.15"/>
  <line y1="-8.583" y2="-8.583" x2="23.75" style="fill:none;stroke:#EC008C;stroke-width:0.8;stroke-linecap:round;" x1="23.75"/>
  <line y1="-14.583" y2="-14.583" x2="24.05" style="fill:none;stroke:#EC008C;stroke-width:0.8;stroke-linecap:round;" x1="24.05"/>
  <line y1="-8.883" y2="-8.883" x2="20.3" style="fill:none;stroke:#EC008C;stroke-width:0.8;stroke-linecap:round;" x1="20.3"/>
  <line y1="-5.133" y2="-5.133" x2="21.05" style="fill:none;stroke:#EC008C;stroke-width:0.8;stroke-linecap:round;" x1="21.05"/>
  <line y1="-4.234" y2="-4.234" x2="24.65" style="fill:none;stroke:#EC008C;stroke-width:0.8;stroke-linecap:round;" x1="24.65"/>
  <line y1="-12.034" y2="-12.034" x2="39.95" style="fill:none;stroke:#EC008C;stroke-width:0.8;stroke-linecap:round;" x1="39.95"/>
  <line y1="-15.784" y2="-15.784" x2="38.15" style="fill:none;stroke:#EC008C;stroke-width:0.8;stroke-linecap:round;" x1="38.15"/>
  <line y1="-15.933" y2="-15.933" x2="34.85" style="fill:none;stroke:#EC008C;stroke-width:0.8;stroke-linecap:round;" x1="34.85"/>
  <line y1="-21.184" y2="-21.184" x2="35" style="fill:none;stroke:#EC008C;stroke-width:0.8;stroke-linecap:round;" x1="35"/>
  <line y1="-20.883" y2="-20.883" x2="39.65" style="fill:none;stroke:#EC008C;stroke-width:0.8;stroke-linecap:round;" x1="39.65"/>
  <line y1="-17.133" y2="-17.133" x2="43.7" style="fill:none;stroke:#EC008C;stroke-width:0.8;stroke-linecap:round;" x1="43.7"/>
  <line y1="-13.683" y2="-13.683" x2="43.85" style="fill:none;stroke:#EC008C;stroke-width:0.8;stroke-linecap:round;" x1="43.85"/>
  <line y1="-9.183" y2="-9.183" x2="40.25" style="fill:none;stroke:#EC008C;stroke-width:0.8;stroke-linecap:round;" x1="40.25"/>
  <line y1="-10.683" y2="-10.683" x2="44.3" style="fill:none;stroke:#EC008C;stroke-width:0.8;stroke-linecap:round;" x1="44.3"/>
  <line y1="-6.933" y2="-6.933" x2="41" style="fill:none;stroke:#EC008C;stroke-width:0.8;stroke-linecap:round;" x1="41"/>
  <line y1="-5.284" y2="-5.284" x2="41.6" style="fill:none;stroke:#EC008C;stroke-width:0.8;stroke-linecap:round;" x1="41.6"/>
  <line y1="-4.082" y2="-4.082" x2="39.65" style="fill:none;stroke:#EC008C;stroke-width:0.8;stroke-linecap:round;" x1="39.65"/>
  <line y1="-4.383" y2="-4.383" x2="33.8" style="fill:none;stroke:#EC008C;stroke-width:0.8;stroke-linecap:round;" x1="33.8"/>
  <line y1="-6.332" y2="-6.332" x2="29" style="fill:none;stroke:#EC008C;stroke-width:0.8;stroke-linecap:round;" x1="29"/>
  <line y1="-3.484" y2="-3.484" x2="19.25" style="fill:none;stroke:#EC008C;stroke-width:0.8;stroke-linecap:round;" x1="19.25"/>
  <line y1="-28.684" y2="-28.684" x2="3.35" style="fill:none;stroke:#EC008C;stroke-width:0.8;stroke-linecap:round;" x1="3.35"/>
  <line y1="-43.234" y2="-43.234" x2="10.1" style="fill:none;stroke:#EC008C;stroke-width:0.8;stroke-linecap:round;" x1="10.1"/>
  <line y1="-25.533" y2="-25.533" x2="44.3" style="fill:none;stroke:#EC008C;stroke-width:0.8;stroke-linecap:round;" x1="44.3"/>
  <line y1="-21.433" y2="-21.433" x2="44.617" style="fill:none;stroke:#EC008C;stroke-width:0.8;stroke-linecap:round;" x1="44.617"/>
  <line y1="-15.633" y2="-15.633" x2="3.95" style="fill:none;stroke:#EC008C;stroke-width:0.8;stroke-linecap:round;" x1="3.95"/>
  <line y1="-30.333" y2="-30.333" x2="43.55" style="fill:none;stroke:#EC008C;stroke-width:0.8;stroke-linecap:round;" x1="43.55"/>
  <line y1="-9.183" y2="-9.183" x2="42.65" style="fill:none;stroke:#EC008C;stroke-width:0.8;stroke-linecap:round;" x1="42.65"/>
  <line y1="-11.6" y2="-11.6" x2="2.7" style="fill:none;stroke:#EC008C;stroke-width:0.8;stroke-linecap:round;" x1="2.7"/>
  <line y1="-3.484" y2="-3.484" x2="3.8" style="fill:none;stroke:#EC008C;stroke-width:0.8;stroke-linecap:round;" x1="3.8"/>
  <line y1="-32.208" y2="-32.208" x2="44.8" style="fill:none;stroke:#EC008C;stroke-width:0.8;stroke-linecap:round;" x1="44.8"/>
  <line y1="-36.184" y2="-36.184" x2="2.9" style="fill:none;stroke:#EC008C;stroke-width:0.8;stroke-linecap:round;" x1="2.9"/>
  <line y1="-38.583" y2="-38.583" x2="12.95" style="fill:none;stroke:#EC008C;stroke-width:0.8;stroke-linecap:round;" x1="12.95"/>
  <line y1="-40.234" y2="-40.234" x2="19.7" style="fill:none;stroke:#EC008C;stroke-width:0.8;stroke-linecap:round;" x1="19.7"/>
  <line y1="-43.984" y2="-43.984" x2="18.2" style="fill:none;stroke:#EC008C;stroke-width:0.8;stroke-linecap:round;" x1="18.2"/>
  <line y1="-40.083" y2="-40.083" x2="26.3" style="fill:none;stroke:#EC008C;stroke-width:0.8;stroke-linecap:round;" x1="26.3"/>
  <line y1="-40.083" y2="-40.083" x2="29.9" style="fill:none;stroke:#EC008C;stroke-width:0.8;stroke-linecap:round;" x1="29.9"/>
  <line y1="-32.583" y2="-32.583" x2="30.5" style="fill:none;stroke:#EC008C;stroke-width:0.8;stroke-linecap:round;" x1="30.5"/>
  <line y1="-42.184" y2="-42.184" x2="35" style="fill:none;stroke:#EC008C;stroke-width:0.8;stroke-linecap:round;" x1="35"/>
  <line y1="-42.333" y2="-42.333" x2="40.55" style="fill:none;stroke:#EC008C;stroke-width:0.8;stroke-linecap:round;" x1="40.55"/>
  <line y1="-45.034" y2="-45.034" x2="39.8" style="fill:none;stroke:#EC008C;stroke-width:0.8;stroke-linecap:round;" x1="39.8"/>
  <line y1="-35.434" y2="-35.434" x2="43.85" style="fill:none;stroke:#EC008C;stroke-width:0.8;stroke-linecap:round;" x1="43.85"/>
  <line y1="-18.034" y2="-18.034" x2="6.95" style="fill:none;stroke:#EC008C;stroke-width:0.8;stroke-linecap:round;" x1="6.95"/>
  <line y1="-12.183" y2="-12.183" x2="5.15" style="fill:none;stroke:#EC008C;stroke-width:0.8;stroke-linecap:round;" x1="5.15"/>
  <line y1="-6.784" y2="-6.784" x2="4.1" style="fill:none;stroke:#EC008C;stroke-width:0.8;stroke-linecap:round;" x1="4.1"/>
  <line y1="-4.383" y2="-4.383" x2="12.8" style="fill:none;stroke:#EC008C;stroke-width:0.8;stroke-linecap:round;" x1="12.8"/>
  <line y1="-8.433" y2="-8.433" x2="14.75" style="fill:none;stroke:#EC008C;stroke-width:0.8;stroke-linecap:round;" x1="14.75"/>
  <line y1="-19.083" y2="-19.083" x2="14.75" style="fill:none;stroke:#EC008C;stroke-width:0.8;stroke-linecap:round;" x1="14.75"/>
  <line y1="-15.633" y2="-15.633" x2="19.25" style="fill:none;stroke:#EC008C;stroke-width:0.8;stroke-linecap:round;" x1="19.25"/>
  <line y1="-10.234" y2="-10.234" x2="24.05" style="fill:none;stroke:#EC008C;stroke-width:0.8;stroke-linecap:round;" x1="24.05"/>
  <line y1="-6.183" y2="-6.183" x2="22.7" style="fill:none;stroke:#EC008C;stroke-width:0.8;stroke-linecap:round;" x1="22.7"/>
  <line y1="-13.234" y2="-13.234" x2="27.2" style="fill:none;stroke:#EC008C;stroke-width:0.8;stroke-linecap:round;" x1="27.2"/>
  <line y1="-10.383" y2="-10.383" x2="33.5" style="fill:none;stroke:#EC008C;stroke-width:0.8;stroke-linecap:round;" x1="33.5"/>
  <line y1="-8.284" y2="-8.284" x2="31.85" style="fill:none;stroke:#EC008C;stroke-width:0.8;stroke-linecap:round;" x1="31.85"/>
  <line y1="-7.082" y2="-7.082" x2="35.15" style="fill:none;stroke:#EC008C;stroke-width:0.8;stroke-linecap:round;" x1="35.15"/>
  <line y1="-31.534" y2="-31.534" x2="17.3" style="fill:none;stroke:#EC008C;stroke-width:0.8;stroke-linecap:round;" x1="17.3"/>
  <line y1="-32.284" y2="-32.284" x2="23.3" style="fill:none;stroke:#EC008C;stroke-width:0.8;stroke-linecap:round;" x1="23.3"/>
  <line y1="-29.284" y2="-29.284" x2="27.65" style="fill:none;stroke:#EC008C;stroke-width:0.8;stroke-linecap:round;" x1="27.65"/>
  <line y1="-20.434" y2="-20.434" x2="33.35" style="fill:none;stroke:#EC008C;stroke-width:0.8;stroke-linecap:round;" x1="33.35"/>
  <line y1="-15.183" y2="-15.183" x2="42.35" style="fill:none;stroke:#EC008C;stroke-width:0.8;stroke-linecap:round;" x1="42.35"/>
  <line y1="-17.583" y2="-17.583" x2="30.5" style="fill:none;stroke:#EC008C;stroke-width:0.8;stroke-linecap:round;" x1="30.5"/>
  <line y1="-19.533" y2="-19.533" x2="24.35" style="fill:none;stroke:#EC008C;stroke-width:0.8;stroke-linecap:round;" x1="24.35"/>
  <line y1="-29.133" y2="-29.133" x2="12.35" style="fill:none;stroke:#EC008C;stroke-width:0.8;stroke-linecap:round;" x1="12.35"/>
  <line y1="-24.184" y2="-24.184" x2="8.9" style="fill:none;stroke:#EC008C;stroke-width:0.8;stroke-linecap:round;" x1="8.9"/>
  <line y1="-26.734" y2="-26.734" x2="41.75" style="fill:none;stroke:#EC008C;stroke-width:0.8;stroke-linecap:round;" x1="41.75"/>
  <line y1="-36.784" y2="-36.784" x2="6.5" style="fill:none;stroke:#EC008C;stroke-width:0.8;stroke-linecap:round;" x1="6.5"/>
  <line y1="-43.083" y2="-43.083" x2="7.25" style="fill:none;stroke:#EC008C;stroke-width:0.8;stroke-linecap:round;" x1="7.25"/>
  <line y1="-44.734" y2="-44.734" x2="4.25" style="fill:none;stroke:#EC008C;stroke-width:0.8;stroke-linecap:round;" x1="4.25"/>
  <line y1="-23.883" y2="-23.883" x2="42.05" style="fill:none;stroke:#EC008C;stroke-width:0.8;stroke-linecap:round;" x1="42.05"/>
  <line y1="-8.433" y2="-8.433" x2="28.55" style="fill:none;stroke:#EC008C;stroke-width:0.8;stroke-linecap:round;" x1="28.55"/>
  <line y1="-4.234" y2="-4.234" x2="17.6" style="fill:none;stroke:#EC008C;stroke-width:0.8;stroke-linecap:round;" x1="17.6"/>
  <line y1="-21.184" y2="-21.184" x2="15.35" style="fill:none;stroke:#EC008C;stroke-width:0.8;stroke-linecap:round;" x1="15.35"/>
  <line y1="-25.533" y2="-25.533" x2="27.05" style="fill:none;stroke:#EC008C;stroke-width:0.8;stroke-linecap:round;" x1="27.05"/>
  <line y1="-21.934" y2="-21.934" x2="41.9" style="fill:none;stroke:#EC008C;stroke-width:0.8;stroke-linecap:round;" x1="41.9"/>
  <line y1="-37.234" y2="-37.234" x2="34.1" style="fill:none;stroke:#EC008C;stroke-width:0.8;stroke-linecap:round;" x1="34.1"/>
  <line y1="-35.583" y2="-35.583" x2="24.95" style="fill:none;stroke:#EC008C;stroke-width:0.8;stroke-linecap:round;" x1="24.95"/>
  <line y1="-34.234" y2="-34.234" x2="9.95" style="fill:none;stroke:#EC008C;stroke-width:0.8;stroke-linecap:round;" x1="9.95"/>
  <line y1="-43.534" y2="-43.534" x2="31.85" style="fill:none;stroke:#EC008C;stroke-width:0.8;stroke-linecap:round;" x1="31.85"/>
  <line y1="-33.784" y2="-33.784" x2="37.55" style="fill:none;stroke:#EC008C;stroke-width:0.8;stroke-linecap:round;" x1="37.55"/>
  <line y1="-11.883" y2="-11.883" x2="42.65" style="fill:none;stroke:#EC008C;stroke-width:0.8;stroke-linecap:round;" x1="42.65"/>
  <line y1="-4.383" y2="-4.383" x2="5.3" style="fill:none;stroke:#EC008C;stroke-width:0.8;stroke-linecap:round;" x1="5.3"/>
  <line y1="-38.284" y2="-38.284" x2="3.8" style="fill:none;stroke:#EC008C;stroke-width:0.8;stroke-linecap:round;" x1="3.8"/>
  <line y1="-44.583" y2="-44.583" x2="12.35" style="fill:none;stroke:#EC008C;stroke-width:0.8;stroke-linecap:round;" x1="12.35"/>
  <line y1="-43.534" y2="-43.534" x2="27.65" style="fill:none;stroke:#EC008C;stroke-width:0.8;stroke-linecap:round;" x1="27.65"/>
  <line y1="-27.034" y2="-27.034" x2="3.8" style="fill:none;stroke:#EC008C;stroke-width:0.8;stroke-linecap:round;" x1="3.8"/>
  <line y1="-31.234" y2="-31.234" x2="6.65" style="fill:none;stroke:#EC008C;stroke-width:0.8;stroke-linecap:round;" x1="6.65"/>
  <line y1="-17.883" y2="-17.883" x2="4.1" style="fill:none;stroke:#EC008C;stroke-width:0.8;stroke-linecap:round;" x1="4.1"/>
  <line y1="-15.933" y2="-15.933" x2="8.75" style="fill:none;stroke:#EC008C;stroke-width:0.8;stroke-linecap:round;" x1="8.75"/>
  <line y1="-10.383" y2="-10.383" x2="8.15" style="fill:none;stroke:#EC008C;stroke-width:0.8;stroke-linecap:round;" x1="8.15"/>
  <line y1="-6.784" y2="-6.784" x2="10.25" style="fill:none;stroke:#EC008C;stroke-width:0.8;stroke-linecap:round;" x1="10.25"/>
  <line y1="-14.284" y2="-14.284" x2="15.35" style="fill:none;stroke:#EC008C;stroke-width:0.8;stroke-linecap:round;" x1="15.35"/>
  <line y1="-25.833" y2="-25.833" x2="22.55" style="fill:none;stroke:#EC008C;stroke-width:0.8;stroke-linecap:round;" x1="22.55"/>
  <line y1="-25.833" y2="-25.833" x2="17.75" style="fill:none;stroke:#EC008C;stroke-width:0.8;stroke-linecap:round;" x1="17.75"/>
  <line y1="-29.133" y2="-29.133" x2="24.5" style="fill:none;stroke:#EC008C;stroke-width:0.8;stroke-linecap:round;" x1="24.5"/>
  <line y1="-30.034" y2="-30.034" x2="38.9" style="fill:none;stroke:#EC008C;stroke-width:0.8;stroke-linecap:round;" x1="38.9"/>
  <line y1="-12.034" y2="-12.034" x2="37.4" style="fill:none;stroke:#EC008C;stroke-width:0.8;stroke-linecap:round;" x1="37.4"/>
  <line y1="-20.734" y2="-20.734" x2="37.4" style="fill:none;stroke:#EC008C;stroke-width:0.8;stroke-linecap:round;" x1="37.4"/>
  <line y1="-24.934" y2="-24.934" x2="35.6" style="fill:none;stroke:#EC008C;stroke-width:0.8;stroke-linecap:round;" x1="35.6"/>
  <line y1="-3.933" y2="-3.933" x2="43.7" style="fill:none;stroke:#EC008C;stroke-width:0.8;stroke-linecap:round;" x1="43.7"/>
  <line y1="-6.784" y2="-6.784" x2="38.6" style="fill:none;stroke:#EC008C;stroke-width:0.8;stroke-linecap:round;" x1="38.6"/>
  <line y1="-4.1" y2="-4.1" x2="28.367" style="fill:none;stroke:#EC008C;stroke-width:0.8;stroke-linecap:round;" x1="28.367"/>
  <line y1="-45.634" y2="-45.634" x2="16.85" style="fill:none;stroke:#EC008C;stroke-width:0.8;stroke-linecap:round;" x1="16.85"/>
  <line y1="-5.997" y2="-5.997" x2="19.1" style="fill:none;stroke:#EC008C;stroke-width:0.8;stroke-linecap:round;" x1="19.1"/>
  <line y1="-23.883" y2="-23.883" x2="23" style="fill:none;stroke:#EC008C;stroke-width:0.8;stroke-linecap:round;" x1="23"/>
  <line y1="-21.633" y2="-21.633" x2="25.85" style="fill:none;stroke:#EC008C;stroke-width:0.8;stroke-linecap:round;" x1="25.85"/>
  <line y1="-26.133" y2="-26.133" x2="37.55" style="fill:none;stroke:#EC008C;stroke-width:0.8;stroke-linecap:round;" x1="37.55"/>
  <line y1="-20.434" y2="-20.434" x2="6.5" style="fill:none;stroke:#EC008C;stroke-width:0.8;stroke-linecap:round;" x1="6.5"/>
  <line y1="-40.684" y2="-40.684" x2="8.3" style="fill:none;stroke:#EC008C;stroke-width:0.8;stroke-linecap:round;" x1="8.3"/>
  <line y1="-27.859" y2="-27.859" x2="29.9" style="fill:none;stroke:#EC008C;stroke-width:0.8;stroke-linecap:round;" x1="29.9"/>
  <line y1="-32.734" y2="-32.734" x2="11.9" style="fill:none;stroke:#EC008C;stroke-width:0.8;stroke-linecap:round;" x1="11.9"/>
  <line y1="-39.934" y2="-39.934" x2="16.7" style="fill:none;stroke:#EC008C;stroke-width:0.8;stroke-linecap:round;" x1="16.7"/>
  <line y1="-41.134" y2="-41.134" x2="6.2" style="fill:none;stroke:#EC008C;stroke-width:0.8;stroke-linecap:round;" x1="6.2"/>
  <line y1="-25.833" y2="-25.833" x2="6.05" style="fill:none;stroke:#EC008C;stroke-width:0.8;stroke-linecap:round;" x1="6.05"/>
  <line y1="-26.133" y2="-26.133" x2="15.35" style="fill:none;stroke:#EC008C;stroke-width:0.8;stroke-linecap:round;" x1="15.35"/>
  <line y1="-19.684" y2="-19.684" x2="20" style="fill:none;stroke:#EC008C;stroke-width:0.8;stroke-linecap:round;" x1="20"/>
  <line y1="-13.984" y2="-13.984" x2="40.1" style="fill:none;stroke:#EC008C;stroke-width:0.8;stroke-linecap:round;" x1="40.1"/>
  <line y1="-5.433" y2="-5.433" x2="15.05" style="fill:none;stroke:#EC008C;stroke-width:0.8;stroke-linecap:round;" x1="15.05"/>
  <line y1="-45.484" y2="-45.484" x2="32" style="fill:none;stroke:#EC008C;stroke-width:0.8;stroke-linecap:round;" x1="32"/>
  <line y1="-8.433" y2="-8.433" x2="44.617" style="fill:none;stroke:#EC008C;stroke-width:0.8;stroke-linecap:round;" x1="44.617"/>
  <line y1="-43.833" y2="-43.833" x2="44.45" style="fill:none;stroke:#EC008C;stroke-width:0.8;stroke-linecap:round;" x1="44.45"/>
  <line y1="-15.85" y2="-15.85" x2="44.784" style="fill:none;stroke:#EC008C;stroke-width:0.8;stroke-linecap:round;" x1="44.784"/>
  <line y1="-39.634" y2="-39.634" x2="44.45" style="fill:none;stroke:#EC008C;stroke-width:0.8;stroke-linecap:round;" x1="44.45"/>
  <line y1="-23.283" y2="-23.283" x2="44.75" style="fill:none;stroke:#EC008C;stroke-width:0.8;stroke-linecap:round;" x1="44.75"/>
  <line y1="-45.184" y2="-45.184" x2="26" style="fill:none;stroke:#EC008C;stroke-width:0.8;stroke-linecap:round;" x1="26"/>
  <line y1="-44.434" y2="-44.434" x2="14.75" style="fill:none;stroke:#EC008C;stroke-width:1.55;stroke-linecap:round;" x1="14.75"/>
  <line y1="-39.184" y2="-39.184" x2="21.2" style="fill:none;stroke:#EC008C;stroke-width:1.55;stroke-linecap:round;" x1="21.2"/>
  <line y1="-33.484" y2="-33.484" x2="42.95" style="fill:none;stroke:#EC008C;stroke-width:1.55;stroke-linecap:round;" x1="42.95"/>
  <line y1="-17.258" y2="-17.258" x2="26.825" style="fill:none;stroke:#EC008C;stroke-width:1.55;stroke-linecap:round;" x1="26.825"/>
  <line y1="-10.833" y2="-10.833" x2="20.75" style="fill:none;stroke:#EC008C;stroke-width:1.55;stroke-linecap:round;" x1="20.75"/>
  <line y1="-13.683" y2="-13.683" x2="35.15" style="fill:none;stroke:#EC008C;stroke-width:1.55;stroke-linecap:round;" x1="35.15"/>
  <line y1="-28.333" y2="-28.333" x2="8.5" style="fill:none;stroke:#EC008C;stroke-width:1.55;stroke-linecap:round;" x1="8.5"/>
  <line y1="-38.884" y2="-38.884" x2="5.9" style="fill:none;stroke:#EC008C;stroke-width:1.55;stroke-linecap:round;" x1="5.9"/>
  <line y1="-36.383" y2="-36.383" x2="14.25" style="fill:none;stroke:#EC008C;stroke-width:1.55;stroke-linecap:round;" x1="14.25"/>
  <line y1="-30.034" y2="-30.034" x2="22.7" style="fill:none;stroke:#EC008C;stroke-width:1.55;stroke-linecap:round;" x1="22.7"/>
  <line y1="-35.434" y2="-35.434" x2="32.45" style="fill:none;stroke:#EC008C;stroke-width:1.55;stroke-linecap:round;" x1="32.45"/>
  <line y1="-43.384" y2="-43.384" x2="38.15" style="fill:none;stroke:#EC008C;stroke-width:1.55;stroke-linecap:round;" x1="38.15"/>
  <line y1="-23.809" y2="-23.809" x2="31.2" style="fill:none;stroke:#EC008C;stroke-width:1.55;stroke-linecap:round;" x1="31.2"/>
  <line y1="-21.433" y2="-21.433" x2="44.617" style="fill:none;stroke:#EC008C;stroke-width:1.55;stroke-linecap:round;" x1="44.617"/>
  <line y1="-15.933" y2="-15.933" x2="9.025" style="fill:none;stroke:#EC008C;stroke-width:1.55;stroke-linecap:round;" x1="9.025"/>
  <line y1="-6.784" y2="-6.784" x2="10.25" style="fill:none;stroke:#EC008C;stroke-width:1.55;stroke-linecap:round;" x1="10.25"/>
  <line y1="-4.1" y2="-4.1" x2="28.367" style="fill:none;stroke:#EC008C;stroke-width:1.55;stroke-linecap:round;" x1="28.367"/>
  <line y1="-26.133" y2="-26.133" x2="37.55" style="fill:none;stroke:#EC008C;stroke-width:1.55;stroke-linecap:round;" x1="37.55"/>
  <line y1="-23.383" y2="-23.383" x2="17.975" style="fill:none;stroke:#EC008C;stroke-width:1.55;stroke-linecap:round;" x1="17.975"/>
  <line y1="-8.433" y2="-8.433" x2="44.617" style="fill:none;stroke:#EC008C;stroke-width:1.55;stroke-linecap:round;" x1="44.617"/>
 </g>
</svg>
