<?xml version="1.0"?>
<!-- Converted with SVG Converter - Version 0.9.5 (Compiled Fri Feb 21 09:53:38 2020) - Copyright (C) 2011 Nokia -->
<svg xmlns="http://www.w3.org/2000/svg" version="1.1" x="0px" xmlns:xlink="http://www.w3.org/1999/xlink" baseProfile="tiny" y="0px" width="144" height="144" viewBox="0 -144 144 144" xml:space="preserve">
 <g>
  <rect y="-144" width="144" height="144" style="fill:none;"/>
  <circle r="0.499" cx="11.959" style="fill:#ED1B2E;" cy="-142"/>
  <circle r="0.499" cx="17.333" style="fill:#ED1B2E;" cy="-140.79"/>
  <circle r="0.499" cx="25.667" style="fill:#ED1B2E;" cy="-142.707"/>
  <circle r="0.499" cx="15" style="fill:#ED1B2E;" cy="-136.04"/>
  <circle r="0.499" cx="9" style="fill:#ED1B2E;" cy="-138.04"/>
  <circle r="0.499" cx="1.333" style="fill:#ED1B2E;" cy="-136.04"/>
  <circle r="0.499" cx="7.333" style="fill:#ED1B2E;" cy="-132.374"/>
  <circle r="0.499" cx="12.667" style="fill:#ED1B2E;" cy="-130.04"/>
  <circle r="0.499" cx="19" style="fill:#ED1B2E;" cy="-127.707"/>
  <circle r="0.499" cx="22" style="fill:#ED1B2E;" cy="-135.374"/>
  <circle r="0.499" cx="28" style="fill:#ED1B2E;" cy="-135.04"/>
  <circle r="0.499" cx="32.333" style="fill:#ED1B2E;" cy="-140.04"/>
  <circle r="0.499" cx="38.667" style="fill:#ED1B2E;" cy="-141.707"/>
  <circle r="0.499" cx="42.667" style="fill:#ED1B2E;" cy="-139.374"/>
  <circle r="0.499" cx="49.5" style="fill:#ED1B2E;" cy="-138.957"/>
  <circle r="0.499" cx="53" style="fill:#ED1B2E;" cy="-142.707"/>
  <circle r="0.499" cx="56.667" style="fill:#ED1B2E;" cy="-138.04"/>
  <circle r="0.499" cx="52.667" style="fill:#ED1B2E;" cy="-133.707"/>
  <circle r="0.499" cx="49" style="fill:#ED1B2E;" cy="-127.707"/>
  <circle r="0.499" cx="45.333" style="fill:#ED1B2E;" cy="-121.707"/>
  <circle r="0.499" cx="42.601" style="fill:#ED1B2E;" cy="-125.471"/>
  <circle r="0.499" cx="45.75" style="fill:#ED1B2E;" cy="-133.707"/>
  <circle r="0.499" cx="44" style="fill:#ED1B2E;" cy="-116.207"/>
  <circle r="0.499" cx="39.667" style="fill:#ED1B2E;" cy="-131.04"/>
  <circle r="0.499" cx="36" style="fill:#ED1B2E;" cy="-125.707"/>
  <circle r="0.499" cx="30.667" style="fill:#ED1B2E;" cy="-126.04"/>
  <circle r="0.499" cx="29" style="fill:#ED1B2E;" cy="-122.04"/>
  <circle r="0.499" cx="23.333" style="fill:#ED1B2E;" cy="-123.707"/>
  <circle r="0.499" cx="23" style="fill:#ED1B2E;" cy="-117.374"/>
  <circle r="0.499" cx="21" style="fill:#ED1B2E;" cy="-110.04"/>
  <circle r="0.499" cx="19.333" style="fill:#ED1B2E;" cy="-103.707"/>
  <circle r="0.499" cx="19.667" style="fill:#ED1B2E;" cy="-99.04"/>
  <circle r="0.499" cx="13.333" style="fill:#ED1B2E;" cy="-97.707"/>
  <circle r="0.499" cx="14" style="fill:#ED1B2E;" cy="-103.707"/>
  <circle r="0.499" cx="15" style="fill:#ED1B2E;" cy="-109.374"/>
  <circle r="0.499" cx="15.667" style="fill:#ED1B2E;" cy="-116.374"/>
  <circle r="0.499" cx="17" style="fill:#ED1B2E;" cy="-121.707"/>
  <circle r="0.499" cx="10.667" style="fill:#ED1B2E;" cy="-122.707"/>
  <circle r="0.499" cx="5.333" style="fill:#ED1B2E;" cy="-126.707"/>
  <circle r="0.499" cx="1.666" style="fill:#ED1B2E;" cy="-129.04"/>
  <circle r="0.499" cx="2.667" style="fill:#ED1B2E;" cy="-119.374"/>
  <circle r="0.499" cx="8.667" style="fill:#ED1B2E;" cy="-115.707"/>
  <circle r="0.499" cx="6.667" style="fill:#ED1B2E;" cy="-109.707"/>
  <circle r="0.499" cx="3" style="fill:#ED1B2E;" cy="-107.707"/>
  <circle r="0.499" cx="2.333" style="fill:#ED1B2E;" cy="-113.707"/>
  <circle r="0.499" cx="26.667" style="fill:#ED1B2E;" cy="-113.707"/>
  <circle r="0.499" cx="34.667" style="fill:#ED1B2E;" cy="-119.374"/>
  <circle r="0.499" cx="39" style="fill:#ED1B2E;" cy="-119.374"/>
  <circle r="0.499" cx="38" style="fill:#ED1B2E;" cy="-111.707"/>
  <circle r="0.499" cx="33.75" style="fill:#ED1B2E;" cy="-113.207"/>
  <circle r="0.499" cx="37.667" style="fill:#ED1B2E;" cy="-107.374"/>
  <circle r="0.499" cx="31" style="fill:#ED1B2E;" cy="-105.707"/>
  <circle r="0.499" cx="26.333" style="fill:#ED1B2E;" cy="-108.04"/>
  <circle r="0.499" cx="26" style="fill:#ED1B2E;" cy="-129.707"/>
  <circle r="0.499" cx="33.333" style="fill:#ED1B2E;" cy="-131.04"/>
  <circle r="0.499" cx="36" style="fill:#ED1B2E;" cy="-135.374"/>
  <circle r="0.499" cx="62" style="fill:#ED1B2E;" cy="-141.374"/>
  <circle r="0.499" cx="67.666" style="fill:#ED1B2E;" cy="-142.374"/>
  <circle r="0.499" cx="69" style="fill:#ED1B2E;" cy="-137.707"/>
  <circle r="0.499" cx="74" style="fill:#ED1B2E;" cy="-142.082"/>
  <circle r="0.499" cx="80.666" style="fill:#ED1B2E;" cy="-142.374"/>
  <circle r="0.499" cx="64.25" style="fill:#ED1B2E;" cy="-133.707"/>
  <circle r="0.499" cx="58" style="fill:#ED1B2E;" cy="-133.707"/>
  <circle r="0.499" cx="55.667" style="fill:#ED1B2E;" cy="-122.707"/>
  <circle r="0.499" cx="59.333" style="fill:#ED1B2E;" cy="-128.457"/>
  <circle r="0.499" cx="55" style="fill:#ED1B2E;" cy="-129.707"/>
  <circle r="0.499" cx="68.333" style="fill:#ED1B2E;" cy="-131.04"/>
  <circle r="0.499" cx="74.333" style="fill:#ED1B2E;" cy="-134.707"/>
  <circle r="0.499" cx="81" style="fill:#ED1B2E;" cy="-138.04"/>
  <circle r="0.499" cx="86.666" style="fill:#ED1B2E;" cy="-140.374"/>
  <circle r="0.499" cx="93" style="fill:#ED1B2E;" cy="-142.374"/>
  <circle r="0.499" cx="100.666" style="fill:#ED1B2E;" cy="-142.04"/>
  <circle r="0.499" cx="92.333" style="fill:#ED1B2E;" cy="-135.457"/>
  <circle r="0.499" cx="86.043" style="fill:#ED1B2E;" cy="-134.25"/>
  <circle r="0.499" cx="81.667" style="fill:#ED1B2E;" cy="-129.124"/>
  <circle r="0.499" cx="76.666" style="fill:#ED1B2E;" cy="-130.707"/>
  <circle r="0.499" cx="75.5" style="fill:#ED1B2E;" cy="-125.707"/>
  <circle r="0.499" cx="69" style="fill:#ED1B2E;" cy="-121.457"/>
  <circle r="0.499" cx="62.667" style="fill:#ED1B2E;" cy="-119.707"/>
  <circle r="0.499" cx="56.667" style="fill:#ED1B2E;" cy="-117.04"/>
  <circle r="0.499" cx="67" style="fill:#ED1B2E;" cy="-115.454"/>
  <circle r="0.499" cx="59.333" style="fill:#ED1B2E;" cy="-114.374"/>
  <circle r="0.499" cx="55.333" style="fill:#ED1B2E;" cy="-109.707"/>
  <circle r="0.499" cx="50.333" style="fill:#ED1B2E;" cy="-114.04"/>
  <circle r="0.499" cx="50" style="fill:#ED1B2E;" cy="-107.04"/>
  <circle r="0.499" cx="46" style="fill:#ED1B2E;" cy="-109.207"/>
  <circle r="0.499" cx="49.333" style="fill:#ED1B2E;" cy="-102.374"/>
  <circle r="0.499" cx="55" style="fill:#ED1B2E;" cy="-103.707"/>
  <circle r="0.499" cx="61.707" style="fill:#ED1B2E;" cy="-106.414"/>
  <circle r="0.499" cx="66" style="fill:#ED1B2E;" cy="-108.04"/>
  <circle r="0.499" cx="64.333" style="fill:#ED1B2E;" cy="-111.374"/>
  <circle r="0.499" cx="71.333" style="fill:#ED1B2E;" cy="-109.04"/>
  <circle r="0.499" cx="72.333" style="fill:#ED1B2E;" cy="-114.04"/>
  <circle r="0.499" cx="75.333" style="fill:#ED1B2E;" cy="-118.707"/>
  <circle r="0.499" cx="80.666" style="fill:#ED1B2E;" cy="-122.374"/>
  <circle r="0.499" cx="86" style="fill:#ED1B2E;" cy="-125.04"/>
  <circle r="0.499" cx="88.626" style="fill:#ED1B2E;" cy="-129.748"/>
  <circle r="0.499" cx="96.166" style="fill:#ED1B2E;" cy="-131.624"/>
  <circle r="0.499" cx="98.166" style="fill:#ED1B2E;" cy="-137.624"/>
  <circle r="0.499" cx="106.333" style="fill:#ED1B2E;" cy="-141.04"/>
  <circle r="0.499" cx="113" style="fill:#ED1B2E;" cy="-142.707"/>
  <circle r="0.499" cx="124.333" style="fill:#ED1B2E;" cy="-142.707"/>
  <circle r="0.499" cx="118" style="fill:#ED1B2E;" cy="-140.04"/>
  <circle r="0.499" cx="115" style="fill:#ED1B2E;" cy="-134.124"/>
  <circle r="0.499" cx="108.25" style="fill:#ED1B2E;" cy="-133.457"/>
  <circle r="0.499" cx="128.333" style="fill:#ED1B2E;" cy="-123.457"/>
  <circle r="0.499" cx="101.666" style="fill:#ED1B2E;" cy="-130.624"/>
  <circle r="0.499" cx="64.333" style="fill:#ED1B2E;" cy="-126.124"/>
  <circle r="0.499" cx="70.333" style="fill:#ED1B2E;" cy="-127.04"/>
  <circle r="0.499" cx="104.666" style="fill:#ED1B2E;" cy="-136.374"/>
  <circle r="0.499" cx="91.374" style="fill:#ED1B2E;" cy="-124.414"/>
  <circle r="0.5" cx="86.666" style="fill:#ED1B2E;" cy="-119.54"/>
  <circle r="0.499" cx="81.333" style="fill:#ED1B2E;" cy="-115.707"/>
  <circle r="0.499" cx="77.333" style="fill:#ED1B2E;" cy="-110.04"/>
  <circle r="0.499" cx="83.667" style="fill:#ED1B2E;" cy="-106.79"/>
  <circle r="0.499" cx="86" style="fill:#ED1B2E;" cy="-112.04"/>
  <circle r="0.499" cx="97" style="fill:#ED1B2E;" cy="-120.124"/>
  <circle r="0.499" cx="100.666" style="fill:#ED1B2E;" cy="-125.121"/>
  <circle r="0.499" cx="96.333" style="fill:#ED1B2E;" cy="-127.707"/>
  <circle r="0.499" cx="106.666" style="fill:#ED1B2E;" cy="-127.789"/>
  <circle r="0.499" cx="113" style="fill:#ED1B2E;" cy="-128.79"/>
  <circle r="0.499" cx="119" style="fill:#ED1B2E;" cy="-132.04"/>
  <circle r="0.499" cx="122.666" style="fill:#ED1B2E;" cy="-137.04"/>
  <circle r="0.499" cx="130.667" style="fill:#ED1B2E;" cy="-135.707"/>
  <circle r="0.499" cx="127.666" style="fill:#ED1B2E;" cy="-138.374"/>
  <circle r="0.499" cx="125" style="fill:#ED1B2E;" cy="-132.374"/>
  <circle r="0.499" cx="119.333" style="fill:#ED1B2E;" cy="-127.707"/>
  <circle r="0.499" cx="113" style="fill:#ED1B2E;" cy="-121.707"/>
  <circle r="0.499" cx="106.666" style="fill:#ED1B2E;" cy="-122.04"/>
  <circle r="0.499" cx="94.666" style="fill:#ED1B2E;" cy="-115.707"/>
  <circle r="0.499" cx="94.333" style="fill:#ED1B2E;" cy="-109.04"/>
  <circle r="0.499" cx="89.5" style="fill:#ED1B2E;" cy="-110.207"/>
  <circle r="0.499" cx="89.75" style="fill:#ED1B2E;" cy="-102.707"/>
  <circle r="0.499" cx="130.333" style="fill:#ED1B2E;" cy="-130.374"/>
  <circle r="0.499" cx="124.626" style="fill:#ED1B2E;" cy="-126.414"/>
  <circle r="0.499" cx="120" style="fill:#ED1B2E;" cy="-121.124"/>
  <circle r="0.499" cx="114.333" style="fill:#ED1B2E;" cy="-116.707"/>
  <circle r="0.499" cx="109" style="fill:#ED1B2E;" cy="-116.374"/>
  <circle r="0.499" cx="105" style="fill:#ED1B2E;" cy="-112.04"/>
  <circle r="0.499" cx="99.666" style="fill:#ED1B2E;" cy="-106.707"/>
  <circle r="0.499" cx="105.333" style="fill:#ED1B2E;" cy="-105.707"/>
  <circle r="0.499" cx="109.666" style="fill:#ED1B2E;" cy="-110.04"/>
  <circle r="0.499" cx="115" style="fill:#ED1B2E;" cy="-110.374"/>
  <circle r="0.499" cx="124" style="fill:#ED1B2E;" cy="-118.124"/>
  <circle r="0.499" cx="135.667" style="fill:#ED1B2E;" cy="-124.457"/>
  <circle r="0.499" cx="132" style="fill:#ED1B2E;" cy="-120.04"/>
  <circle r="0.499" cx="143" style="fill:#ED1B2E;" cy="-124.374"/>
  <circle r="0.499" cx="137" style="fill:#ED1B2E;" cy="-120.04"/>
  <circle r="0.499" cx="133" style="fill:#ED1B2E;" cy="-115.707"/>
  <circle r="0.499" cx="139" style="fill:#ED1B2E;" cy="-113.707"/>
  <circle r="0.499" cx="142" style="fill:#ED1B2E;" cy="-118.04"/>
  <circle r="0.499" cx="126.666" style="fill:#ED1B2E;" cy="-113.707"/>
  <circle r="0.499" cx="121.25" style="fill:#ED1B2E;" cy="-111.957"/>
  <circle r="0.499" cx="122.5" style="fill:#ED1B2E;" cy="-107.707"/>
  <circle r="0.499" cx="117" style="fill:#ED1B2E;" cy="-106.207"/>
  <circle r="0.499" cx="128.667" style="fill:#ED1B2E;" cy="-109.04"/>
  <circle r="0.499" cx="135" style="fill:#ED1B2E;" cy="-108.04"/>
  <circle r="0.499" cx="141.333" style="fill:#ED1B2E;" cy="-108.04"/>
  <circle r="0.499" cx="137" style="fill:#ED1B2E;" cy="-104.374"/>
  <circle r="0.499" cx="131" style="fill:#ED1B2E;" cy="-104.04"/>
  <circle r="0.499" cx="125" style="fill:#ED1B2E;" cy="-101.707"/>
  <circle r="0.499" cx="118.333" style="fill:#ED1B2E;" cy="-101.707"/>
  <circle r="0.499" cx="120.666" style="fill:#ED1B2E;" cy="-97.707"/>
  <circle r="0.499" cx="134" style="fill:#ED1B2E;" cy="-94.707"/>
  <circle r="0.499" cx="103" style="fill:#ED1B2E;" cy="-116.454"/>
  <circle r="0.499" cx="109.666" style="fill:#ED1B2E;" cy="-137.707"/>
  <circle r="0.499" cx="115.5" style="fill:#ED1B2E;" cy="-94.707"/>
  <circle r="0.499" cx="111.5" style="fill:#ED1B2E;" cy="-103.707"/>
  <circle r="0.499" cx="105.5" style="fill:#ED1B2E;" cy="-98.957"/>
  <circle r="0.499" cx="109.333" style="fill:#ED1B2E;" cy="-96.04"/>
  <circle r="0.499" cx="114" style="fill:#ED1B2E;" cy="-99.707"/>
  <circle r="0.499" cx="100.666" style="fill:#ED1B2E;" cy="-100.374"/>
  <circle r="0.499" cx="94.333" style="fill:#ED1B2E;" cy="-102.04"/>
  <circle r="0.499" cx="88.666" style="fill:#ED1B2E;" cy="-98.04"/>
  <circle r="0.499" cx="82.626" style="fill:#ED1B2E;" cy="-101.082"/>
  <circle r="0.499" cx="80.25" style="fill:#ED1B2E;" cy="-96.707"/>
  <circle r="0.499" cx="83.666" style="fill:#ED1B2E;" cy="-92.707"/>
  <circle r="0.499" cx="74.334" style="fill:#ED1B2E;" cy="-90.207"/>
  <circle r="0.499" cx="62.333" style="fill:#ED1B2E;" cy="-82.874"/>
  <circle r="0.499" cx="54" style="fill:#ED1B2E;" cy="-76.957"/>
  <circle r="0.499" cx="37.667" style="fill:#ED1B2E;" cy="-76.624"/>
  <circle r="0.499" cx="45.667" style="fill:#ED1B2E;" cy="-84.789"/>
  <circle r="0.5" cx="28.333" style="fill:#ED1B2E;" cy="-85.54"/>
  <circle r="0.499" cx="23.333" style="fill:#ED1B2E;" cy="-92.874"/>
  <circle r="0.499" cx="47.167" style="fill:#ED1B2E;" cy="-71.624"/>
  <circle r="0.499" cx="43" style="fill:#ED1B2E;" cy="-64.707"/>
  <circle r="0.499" cx="48.25" style="fill:#ED1B2E;" cy="-60.457"/>
  <circle r="0.499" cx="38" style="fill:#ED1B2E;" cy="-63.79"/>
  <circle r="0.499" cx="26.667" style="fill:#ED1B2E;" cy="-33.707"/>
  <circle r="0.499" cx="36.333" style="fill:#ED1B2E;" cy="-59.121"/>
  <circle r="0.499" cx="27" style="fill:#ED1B2E;" cy="-66.207"/>
  <circle r="0.499" cx="19.5" style="fill:#ED1B2E;" cy="-70.207"/>
  <circle r="0.499" cx="20.5" style="fill:#ED1B2E;" cy="-78.707"/>
  <circle r="0.499" cx="9.75" style="fill:#ED1B2E;" cy="-75.207"/>
  <circle r="0.499" cx="3.25" style="fill:#ED1B2E;" cy="-78.207"/>
  <circle r="0.499" cx="10.75" style="fill:#ED1B2E;" cy="-80.707"/>
  <circle r="0.499" cx="15" style="fill:#ED1B2E;" cy="-77.457"/>
  <circle r="0.499" cx="25.707" style="fill:#ED1B2E;" cy="-72.664"/>
  <circle r="0.499" cx="30.75" style="fill:#ED1B2E;" cy="-73.957"/>
  <circle r="0.499" cx="26.75" style="fill:#ED1B2E;" cy="-78.457"/>
  <circle r="0.499" cx="33" style="fill:#ED1B2E;" cy="-78.707"/>
  <circle r="0.499" cx="34" style="fill:#ED1B2E;" cy="-70.707"/>
  <circle r="0.499" cx="40.333" style="fill:#ED1B2E;" cy="-71.124"/>
  <circle r="0.499" cx="49.25" style="fill:#ED1B2E;" cy="-64.207"/>
  <circle r="0.499" cx="58" style="fill:#ED1B2E;" cy="-72.871"/>
  <circle r="0.499" cx="63.75" style="fill:#ED1B2E;" cy="-67.957"/>
  <circle r="0.499" cx="61.75" style="fill:#ED1B2E;" cy="-63.957"/>
  <circle r="0.499" cx="66.75" style="fill:#ED1B2E;" cy="-62.457"/>
  <circle r="0.499" cx="67.5" style="fill:#ED1B2E;" cy="-58.207"/>
  <circle r="0.499" cx="65.25" style="fill:#ED1B2E;" cy="-51.957"/>
  <circle r="0.499" cx="64.5" style="fill:#ED1B2E;" cy="-46.707"/>
  <circle r="0.499" cx="67.75" style="fill:#ED1B2E;" cy="-39.457"/>
  <circle r="0.499" cx="72" style="fill:#ED1B2E;" cy="-45.371"/>
  <circle r="0.499" cx="76.25" style="fill:#ED1B2E;" cy="-39.707"/>
  <circle r="0.499" cx="72.25" style="fill:#ED1B2E;" cy="-34.707"/>
  <circle r="0.499" cx="85" style="fill:#ED1B2E;" cy="-34.207"/>
  <circle r="0.499" cx="78.75" style="fill:#ED1B2E;" cy="-34.457"/>
  <circle r="0.499" cx="74.75" style="fill:#ED1B2E;" cy="-27.957"/>
  <circle r="0.499" cx="67" style="fill:#ED1B2E;" cy="-29.957"/>
  <circle r="0.499" cx="64.75" style="fill:#ED1B2E;" cy="-35.707"/>
  <circle r="0.499" cx="61.75" style="fill:#ED1B2E;" cy="-40.207"/>
  <circle r="0.499" cx="59.5" style="fill:#ED1B2E;" cy="-45.957"/>
  <circle r="0.499" cx="58" style="fill:#ED1B2E;" cy="-51.375"/>
  <circle r="0.499" cx="61.25" style="fill:#ED1B2E;" cy="-56.457"/>
  <circle r="0.499" cx="54.333" style="fill:#ED1B2E;" cy="-61.375"/>
  <circle r="0.499" cx="56" style="fill:#ED1B2E;" cy="-67.79"/>
  <circle r="0.499" cx="55.5" style="fill:#ED1B2E;" cy="-57.207"/>
  <circle r="0.499" cx="50.75" style="fill:#ED1B2E;" cy="-54.207"/>
  <circle r="0.499" cx="52.75" style="fill:#ED1B2E;" cy="-48.207"/>
  <circle r="0.499" cx="53" style="fill:#ED1B2E;" cy="-42.04"/>
  <circle r="0.499" cx="55.667" style="fill:#ED1B2E;" cy="-36.375"/>
  <circle r="0.499" cx="58" style="fill:#ED1B2E;" cy="-32.707"/>
  <circle r="0.499" cx="60.25" style="fill:#ED1B2E;" cy="-28.957"/>
  <circle r="0.499" cx="57.5" style="fill:#ED1B2E;" cy="-24.457"/>
  <circle r="0.499" cx="50" style="fill:#ED1B2E;" cy="-24.707"/>
  <circle r="0.499" cx="45" style="fill:#ED1B2E;" cy="-29.957"/>
  <circle r="0.499" cx="41" style="fill:#ED1B2E;" cy="-25.957"/>
  <circle r="0.499" cx="98.666" style="fill:#ED1B2E;" cy="-112.374"/>
  <circle r="0.499" cx="34.5" style="fill:#ED1B2E;" cy="-16.957"/>
  <circle r="0.499" cx="40.75" style="fill:#ED1B2E;" cy="-18.207"/>
  <circle r="0.499" cx="42.667" style="fill:#ED1B2E;" cy="-13.707"/>
  <circle r="0.499" cx="46.5" style="fill:#ED1B2E;" cy="-19.957"/>
  <circle r="0.499" cx="37" style="fill:#ED1B2E;" cy="-12.123"/>
  <circle r="0.499" cx="32.5" style="fill:#ED1B2E;" cy="-4.207"/>
  <circle r="0.499" cx="29.667" style="fill:#ED1B2E;" cy="-9.123"/>
  <circle r="0.499" cx="23" style="fill:#ED1B2E;" cy="-4.207"/>
  <circle r="0.499" cx="20.043" style="fill:#ED1B2E;" cy="-8.664"/>
  <circle r="0.499" cx="25" style="fill:#ED1B2E;" cy="-11.957"/>
  <circle r="0.499" cx="27" style="fill:#ED1B2E;" cy="-17.707"/>
  <circle r="0.499" cx="29" style="fill:#ED1B2E;" cy="-14.373"/>
  <circle r="0.499" cx="35.667" style="fill:#ED1B2E;" cy="-6.373"/>
  <circle r="0.499" cx="39" style="fill:#ED1B2E;" cy="-2.041"/>
  <circle r="0.499" cx="17.5" style="fill:#ED1B2E;" cy="-1.207"/>
  <circle r="0.499" cx="28" style="fill:#ED1B2E;" cy="-1.84"/>
  <circle r="0.499" cx="19" style="fill:#ED1B2E;" cy="-22.207"/>
  <circle r="0.499" cx="22" style="fill:#ED1B2E;" cy="-17.957"/>
  <circle r="0.499" cx="14.75" style="fill:#ED1B2E;" cy="-17.957"/>
  <circle r="0.499" cx="9.5" style="fill:#ED1B2E;" cy="-19.707"/>
  <circle r="0.499" cx="4.5" style="fill:#ED1B2E;" cy="-16.457"/>
  <circle r="0.499" cx="8.75" style="fill:#ED1B2E;" cy="-12.207"/>
  <circle r="0.499" cx="16.25" style="fill:#ED1B2E;" cy="-12.207"/>
  <circle r="0.499" cx="14.5" style="fill:#ED1B2E;" cy="-6.207"/>
  <circle r="0.499" cx="9" style="fill:#ED1B2E;" cy="-5.957"/>
  <circle r="0.499" cx="4.5" style="fill:#ED1B2E;" cy="-8.457"/>
  <circle r="0.499" cx="1" style="fill:#ED1B2E;" cy="-4.207"/>
  <circle r="0.499" cx="7.27" style="fill:#ED1B2E;" cy="-1.59"/>
  <circle r="0.499" cx="30" style="fill:#ED1B2E;" cy="-95.207"/>
  <circle r="0.5" cx="26.667" style="fill:#ED1B2E;" cy="-24.124"/>
  <circle r="0.499" cx="22.333" style="fill:#ED1B2E;" cy="-27.707"/>
  <circle r="0.499" cx="19" style="fill:#ED1B2E;" cy="-43.707"/>
  <circle r="0.499" cx="19" style="fill:#ED1B2E;" cy="-51.375"/>
  <circle r="0.499" cx="28.333" style="fill:#ED1B2E;" cy="-29.375"/>
  <circle r="0.499" cx="33" style="fill:#ED1B2E;" cy="-23.457"/>
  <circle r="0.499" cx="31.333" style="fill:#ED1B2E;" cy="-37.375"/>
  <circle r="0.499" cx="42.333" style="fill:#ED1B2E;" cy="-23.041"/>
  <circle r="0.499" cx="37.333" style="fill:#ED1B2E;" cy="-33.375"/>
  <circle r="0.499" cx="42.75" style="fill:#ED1B2E;" cy="-35.957"/>
  <circle r="0.499" cx="42" style="fill:#ED1B2E;" cy="-42.457"/>
  <circle r="0.499" cx="31.167" style="fill:#ED1B2E;" cy="-43.625"/>
  <circle r="0.499" cx="36.75" style="fill:#ED1B2E;" cy="-38.207"/>
  <circle r="0.499" cx="34.667" style="fill:#ED1B2E;" cy="-29.375"/>
  <circle r="0.499" cx="30.167" style="fill:#ED1B2E;" cy="-50.125"/>
  <circle r="0.499" cx="36" style="fill:#ED1B2E;" cy="-45.457"/>
  <circle r="0.499" cx="41.333" style="fill:#ED1B2E;" cy="-50.457"/>
  <circle r="0.499" cx="46.75" style="fill:#ED1B2E;" cy="-45.371"/>
  <circle r="0.499" cx="46.75" style="fill:#ED1B2E;" cy="-50.207"/>
  <circle r="0.499" cx="42.5" style="fill:#ED1B2E;" cy="-57.371"/>
  <circle r="0.499" cx="36" style="fill:#ED1B2E;" cy="-54.207"/>
  <circle r="0.499" cx="30.5" style="fill:#ED1B2E;" cy="-56.207"/>
  <circle r="0.499" cx="25.5" style="fill:#ED1B2E;" cy="-60.664"/>
  <circle r="0.499" cx="21" style="fill:#ED1B2E;" cy="-63.957"/>
  <circle r="0.499" cx="13.5" style="fill:#ED1B2E;" cy="-64.207"/>
  <circle r="0.499" cx="14" style="fill:#ED1B2E;" cy="-68.707"/>
  <circle r="0.499" cx="9.25" style="fill:#ED1B2E;" cy="-68.207"/>
  <circle r="0.499" cx="3" style="fill:#ED1B2E;" cy="-70.457"/>
  <circle r="0.499" cx="5" style="fill:#ED1B2E;" cy="-64.207"/>
  <circle r="0.499" cx="7" style="fill:#ED1B2E;" cy="-59.957"/>
  <circle r="0.499" cx="10.5" style="fill:#ED1B2E;" cy="-53.957"/>
  <circle r="0.499" cx="14.25" style="fill:#ED1B2E;" cy="-49.957"/>
  <circle r="0.499" cx="24.75" style="fill:#ED1B2E;" cy="-44.207"/>
  <circle r="0.499" cx="25" style="fill:#ED1B2E;" cy="-38.207"/>
  <circle r="0.499" cx="19.543" style="fill:#ED1B2E;" cy="-39"/>
  <circle r="0.499" cx="14.75" style="fill:#ED1B2E;" cy="-41.957"/>
  <circle r="0.499" cx="11" style="fill:#ED1B2E;" cy="-45.957"/>
  <circle r="0.499" cx="6.75" style="fill:#ED1B2E;" cy="-49.957"/>
  <circle r="0.499" cx="3" style="fill:#ED1B2E;" cy="-53.957"/>
  <circle r="0.499" cx="14.75" style="fill:#ED1B2E;" cy="-58.207"/>
  <circle r="0.499" cx="20" style="fill:#ED1B2E;" cy="-58.04"/>
  <circle r="0.499" cx="24.333" style="fill:#ED1B2E;" cy="-48.707"/>
  <circle r="0.499" cx="24.667" style="fill:#ED1B2E;" cy="-54.375"/>
  <circle r="0.499" cx="14.793" style="fill:#ED1B2E;" cy="-32.25"/>
  <circle r="0.499" cx="9" style="fill:#ED1B2E;" cy="-29.707"/>
  <circle r="0.499" cx="5" style="fill:#ED1B2E;" cy="-23.707"/>
  <circle r="0.499" cx="1.317" style="fill:#ED1B2E;" cy="-26.207"/>
  <circle r="0.499" cx="12.043" style="fill:#ED1B2E;" cy="-26.664"/>
  <circle r="0.499" cx="18" style="fill:#ED1B2E;" cy="-27.457"/>
  <circle r="0.499" cx="21.25" style="fill:#ED1B2E;" cy="-32.207"/>
  <circle r="0.499" cx="10.75" style="fill:#ED1B2E;" cy="-35.957"/>
  <circle r="0.499" cx="6.5" style="fill:#ED1B2E;" cy="-39.707"/>
  <circle r="0.499" cx="2.5" style="fill:#ED1B2E;" cy="-44.207"/>
  <circle r="0.499" cx="4.5" style="fill:#ED1B2E;" cy="-34.207"/>
  <circle r="0.499" cx="52.5" style="fill:#ED1B2E;" cy="-29.707"/>
  <circle r="0.499" cx="50.5" style="fill:#ED1B2E;" cy="-33.457"/>
  <circle r="0.499" cx="47.25" style="fill:#ED1B2E;" cy="-39.207"/>
  <circle r="0.499" cx="78.25" style="fill:#ED1B2E;" cy="-55.207"/>
  <circle r="0.499" cx="80.75" style="fill:#ED1B2E;" cy="-50.207"/>
  <circle r="0.499" cx="86.333" style="fill:#ED1B2E;" cy="-53.375"/>
  <circle r="0.499" cx="85" style="fill:#ED1B2E;" cy="-45.04"/>
  <circle r="0.499" cx="91" style="fill:#ED1B2E;" cy="-41.957"/>
  <circle r="0.499" cx="96.75" style="fill:#ED1B2E;" cy="-45.957"/>
  <circle r="0.499" cx="98.293" style="fill:#ED1B2E;" cy="-40.664"/>
  <circle r="0.499" cx="103" style="fill:#ED1B2E;" cy="-44.457"/>
  <circle r="0.499" cx="109" style="fill:#ED1B2E;" cy="-39.707"/>
  <circle r="0.499" cx="115.666" style="fill:#ED1B2E;" cy="-40.625"/>
  <circle r="0.499" cx="118.75" style="fill:#ED1B2E;" cy="-36.207"/>
  <circle r="0.5" cx="125.333" style="fill:#ED1B2E;" cy="-40.54"/>
  <circle r="0.499" cx="131.25" style="fill:#ED1B2E;" cy="-33.957"/>
  <circle r="0.499" cx="138.75" style="fill:#ED1B2E;" cy="-33.957"/>
  <circle r="0.499" cx="142.667" style="fill:#ED1B2E;" cy="-36.375"/>
  <circle r="0.499" cx="142.333" style="fill:#ED1B2E;" cy="-30.04"/>
  <circle r="0.499" cx="142.683" style="fill:#ED1B2E;" cy="-22.258"/>
  <circle r="0.499" cx="137" style="fill:#ED1B2E;" cy="-26.457"/>
  <circle r="0.499" cx="131.25" style="fill:#ED1B2E;" cy="-29.457"/>
  <circle r="0.499" cx="123.666" style="fill:#ED1B2E;" cy="-33.207"/>
  <circle r="0.499" cx="112.75" style="fill:#ED1B2E;" cy="-34.957"/>
  <circle r="0.499" cx="124.75" style="fill:#ED1B2E;" cy="-25.957"/>
  <circle r="0.499" cx="131" style="fill:#ED1B2E;" cy="-22.207"/>
  <circle r="0.499" cx="137.5" style="fill:#ED1B2E;" cy="-19.957"/>
  <circle r="0.499" cx="143" style="fill:#ED1B2E;" cy="-16.207"/>
  <circle r="0.499" cx="136.75" style="fill:#ED1B2E;" cy="-13.707"/>
  <circle r="0.499" cx="142.25" style="fill:#ED1B2E;" cy="-8.457"/>
  <circle r="0.499" cx="108.028" style="fill:#ED1B2E;" cy="-1.608"/>
  <circle r="0.499" cx="135.667" style="fill:#ED1B2E;" cy="-1.373"/>
  <circle r="0.499" cx="121.631" style="fill:#ED1B2E;" cy="-1.608"/>
  <circle r="0.499" cx="139" style="fill:#ED1B2E;" cy="-6.207"/>
  <circle r="0.499" cx="126.75" style="fill:#ED1B2E;" cy="-4.207"/>
  <circle r="0.499" cx="130.75" style="fill:#ED1B2E;" cy="-8.207"/>
  <circle r="0.499" cx="131.25" style="fill:#ED1B2E;" cy="-14.457"/>
  <circle r="0.499" cx="125" style="fill:#ED1B2E;" cy="-11.207"/>
  <circle r="0.499" cx="121" style="fill:#ED1B2E;" cy="-7.957"/>
  <circle r="0.499" cx="116.5" style="fill:#ED1B2E;" cy="-4.207"/>
  <circle r="0.499" cx="111.25" style="fill:#ED1B2E;" cy="-6.707"/>
  <circle r="0.499" cx="104.5" style="fill:#ED1B2E;" cy="-8.707"/>
  <circle r="0.499" cx="98.75" style="fill:#ED1B2E;" cy="-10.707"/>
  <circle r="0.499" cx="90.75" style="fill:#ED1B2E;" cy="-14.207"/>
  <circle r="0.499" cx="96.5" style="fill:#ED1B2E;" cy="-17.957"/>
  <circle r="0.499" cx="103" style="fill:#ED1B2E;" cy="-15.707"/>
  <circle r="0.499" cx="108.5" style="fill:#ED1B2E;" cy="-12.207"/>
  <circle r="0.499" cx="114.75" style="fill:#ED1B2E;" cy="-11.707"/>
  <circle r="0.499" cx="119.5" style="fill:#ED1B2E;" cy="-15.957"/>
  <circle r="0.499" cx="124.5" style="fill:#ED1B2E;" cy="-18.707"/>
  <circle r="0.499" cx="119" style="fill:#ED1B2E;" cy="-24.207"/>
  <circle r="0.499" cx="115.25" style="fill:#ED1B2E;" cy="-29.207"/>
  <circle r="0.499" cx="108.25" style="fill:#ED1B2E;" cy="-32.457"/>
  <circle r="0.499" cx="103" style="fill:#ED1B2E;" cy="-30.457"/>
  <circle r="0.499" cx="97.25" style="fill:#ED1B2E;" cy="-25.457"/>
  <circle r="0.499" cx="91" style="fill:#ED1B2E;" cy="-21.873"/>
  <circle r="0.499" cx="84.5" style="fill:#ED1B2E;" cy="-23.957"/>
  <circle r="0.499" cx="84.25" style="fill:#ED1B2E;" cy="-28.957"/>
  <circle r="0.499" cx="90.75" style="fill:#ED1B2E;" cy="-27.957"/>
  <circle r="0.499" cx="96.75" style="fill:#ED1B2E;" cy="-31.707"/>
  <circle r="0.499" cx="93" style="fill:#ED1B2E;" cy="-35.957"/>
  <circle r="0.499" cx="87.25" style="fill:#ED1B2E;" cy="-38.457"/>
  <circle r="0.499" cx="80.75" style="fill:#ED1B2E;" cy="-42.207"/>
  <circle r="0.499" cx="76.75" style="fill:#ED1B2E;" cy="-46.207"/>
  <circle r="0.499" cx="72.75" style="fill:#ED1B2E;" cy="-51.707"/>
  <circle r="0.499" cx="103.25" style="fill:#ED1B2E;" cy="-21.457"/>
  <circle r="0.499" cx="106.75" style="fill:#ED1B2E;" cy="-25.707"/>
  <circle r="0.499" cx="108.5" style="fill:#ED1B2E;" cy="-19.957"/>
  <circle r="0.499" cx="113" style="fill:#ED1B2E;" cy="-16.707"/>
  <circle r="0.499" cx="113" style="fill:#ED1B2E;" cy="-22.207"/>
  <circle r="0.499" cx="102.75" style="fill:#ED1B2E;" cy="-36.207"/>
  <circle r="0.499" cx="86.25" style="fill:#ED1B2E;" cy="-17.543"/>
  <circle r="0.499" cx="81.543" style="fill:#ED1B2E;" cy="-20"/>
  <circle r="0.499" cx="73" style="fill:#ED1B2E;" cy="-21.457"/>
  <circle r="0.499" cx="70.5" style="fill:#ED1B2E;" cy="-25.871"/>
  <circle r="0.499" cx="63.75" style="fill:#ED1B2E;" cy="-23.957"/>
  <circle r="0.499" cx="58.75" style="fill:#ED1B2E;" cy="-20.207"/>
  <circle r="0.499" cx="53.043" style="fill:#ED1B2E;" cy="-20.914"/>
  <circle r="0.499" cx="47.75" style="fill:#ED1B2E;" cy="-15.707"/>
  <circle r="0.499" cx="45" style="fill:#ED1B2E;" cy="-9.957"/>
  <circle r="0.499" cx="40.5" style="fill:#ED1B2E;" cy="-6.207"/>
  <circle r="0.499" cx="47.25" style="fill:#ED1B2E;" cy="-1.957"/>
  <circle r="0.499" cx="51" style="fill:#ED1B2E;" cy="-7.707"/>
  <circle r="0.499" cx="56.75" style="fill:#ED1B2E;" cy="-11.457"/>
  <circle r="0.499" cx="51.667" style="fill:#ED1B2E;" cy="-12.707"/>
  <circle r="0.499" cx="62" style="fill:#ED1B2E;" cy="-15.457"/>
  <circle r="0.499" cx="65.5" style="fill:#ED1B2E;" cy="-17.957"/>
  <circle r="0.499" cx="77" style="fill:#ED1B2E;" cy="-15.957"/>
  <circle r="0.499" cx="88" style="fill:#ED1B2E;" cy="-11.207"/>
  <circle r="0.499" cx="94" style="fill:#ED1B2E;" cy="-6.207"/>
  <circle r="0.499" cx="100.365" style="fill:#ED1B2E;" cy="-3.707"/>
  <circle r="0.499" cx="90.5" style="fill:#ED1B2E;" cy="-2.707"/>
  <circle r="0.499" cx="84.75" style="fill:#ED1B2E;" cy="-6.207"/>
  <circle r="0.499" cx="80.25" style="fill:#ED1B2E;" cy="-10.457"/>
  <circle r="0.499" cx="74.25" style="fill:#ED1B2E;" cy="-12.207"/>
  <circle r="0.499" cx="69.25" style="fill:#ED1B2E;" cy="-14.457"/>
  <circle r="0.499" cx="65.5" style="fill:#ED1B2E;" cy="-8.957"/>
  <circle r="0.499" cx="59.25" style="fill:#ED1B2E;" cy="-6.457"/>
  <circle r="0.499" cx="55.587" style="fill:#ED1B2E;" cy="-2.273"/>
  <circle r="0.499" cx="61" style="fill:#ED1B2E;" cy="-2.707"/>
  <circle r="0.499" cx="68.5" style="fill:#ED1B2E;" cy="-3.707"/>
  <circle r="0.499" cx="76.5" style="fill:#ED1B2E;" cy="-6.207"/>
  <circle r="0.499" cx="69" style="fill:#ED1B2E;" cy="-72.207"/>
  <circle r="0.499" cx="80.25" style="fill:#ED1B2E;" cy="-82.707"/>
  <circle r="0.499" cx="73.666" style="fill:#ED1B2E;" cy="-83.874"/>
  <circle r="0.499" cx="84.25" style="fill:#ED1B2E;" cy="-78.707"/>
  <circle r="0.499" cx="89" style="fill:#ED1B2E;" cy="-83.957"/>
  <circle r="0.499" cx="92.75" style="fill:#ED1B2E;" cy="-89.957"/>
  <circle r="0.499" cx="100.75" style="fill:#ED1B2E;" cy="-85.957"/>
  <circle r="0.499" cx="96.75" style="fill:#ED1B2E;" cy="-95.707"/>
  <circle r="0.499" cx="100.25" style="fill:#ED1B2E;" cy="-92.957"/>
  <circle r="0.499" cx="105.75" style="fill:#ED1B2E;" cy="-91.957"/>
  <circle r="0.499" cx="110.793" style="fill:#ED1B2E;" cy="-91.75"/>
  <circle r="0.499" cx="110.25" style="fill:#ED1B2E;" cy="-86.457"/>
  <circle r="0.499" cx="118.25" style="fill:#ED1B2E;" cy="-90.207"/>
  <circle r="0.499" cx="123" style="fill:#ED1B2E;" cy="-91.957"/>
  <circle r="0.499" cx="129" style="fill:#ED1B2E;" cy="-96.457"/>
  <circle r="0.499" cx="135.543" style="fill:#ED1B2E;" cy="-99.333"/>
  <circle r="0.499" cx="141.667" style="fill:#ED1B2E;" cy="-102.374"/>
  <circle r="0.499" cx="138.5" style="fill:#ED1B2E;" cy="-92.207"/>
  <circle r="0.499" cx="141.667" style="fill:#ED1B2E;" cy="-88.374"/>
  <circle r="0.499" cx="137.25" style="fill:#ED1B2E;" cy="-85.457"/>
  <circle r="0.499" cx="141.667" style="fill:#ED1B2E;" cy="-83.04"/>
  <circle r="0.499" cx="130.5" style="fill:#ED1B2E;" cy="-89.957"/>
  <circle r="0.499" cx="127" style="fill:#ED1B2E;" cy="-87.957"/>
  <circle r="0.499" cx="124.333" style="fill:#ED1B2E;" cy="-82.707"/>
  <circle r="0.499" cx="120.75" style="fill:#ED1B2E;" cy="-85.707"/>
  <circle r="0.499" cx="116.75" style="fill:#ED1B2E;" cy="-81.957"/>
  <circle r="0.499" cx="111" style="fill:#ED1B2E;" cy="-79.207"/>
  <circle r="0.499" cx="105.25" style="fill:#ED1B2E;" cy="-83.207"/>
  <circle r="0.499" cx="96" style="fill:#ED1B2E;" cy="-85.207"/>
  <circle r="0.499" cx="91.75" style="fill:#ED1B2E;" cy="-80.707"/>
  <circle r="0.499" cx="86.75" style="fill:#ED1B2E;" cy="-74.207"/>
  <circle r="0.499" cx="84" style="fill:#ED1B2E;" cy="-70.207"/>
  <circle r="0.499" cx="81" style="fill:#ED1B2E;" cy="-64.457"/>
  <circle r="0.499" cx="87" style="fill:#ED1B2E;" cy="-59.457"/>
  <circle r="0.499" cx="90.333" style="fill:#ED1B2E;" cy="-61.707"/>
  <circle r="0.499" cx="95" style="fill:#ED1B2E;" cy="-64.207"/>
  <circle r="0.499" cx="88.75" style="fill:#ED1B2E;" cy="-66.707"/>
  <circle r="0.499" cx="91" style="fill:#ED1B2E;" cy="-71.957"/>
  <circle r="0.499" cx="94.25" style="fill:#ED1B2E;" cy="-77.207"/>
  <circle r="0.499" cx="100.75" style="fill:#ED1B2E;" cy="-72.207"/>
  <circle r="0.499" cx="96.5" style="fill:#ED1B2E;" cy="-67.957"/>
  <circle r="0.499" cx="104.707" style="fill:#ED1B2E;" cy="-65.664"/>
  <circle r="0.499" cx="99.75" style="fill:#ED1B2E;" cy="-60.457"/>
  <circle r="0.499" cx="106.75" style="fill:#ED1B2E;" cy="-60.207"/>
  <circle r="0.499" cx="103.957" style="fill:#ED1B2E;" cy="-56.664"/>
  <circle r="0.499" cx="110.25" style="fill:#ED1B2E;" cy="-53.957"/>
  <circle r="0.499" cx="116.25" style="fill:#ED1B2E;" cy="-52.457"/>
  <circle r="0.499" cx="123" style="fill:#ED1B2E;" cy="-55.957"/>
  <circle r="0.499" cx="129.25" style="fill:#ED1B2E;" cy="-53.957"/>
  <circle r="0.499" cx="135.75" style="fill:#ED1B2E;" cy="-49.957"/>
  <circle r="0.499" cx="140.5" style="fill:#ED1B2E;" cy="-50.207"/>
  <circle r="0.499" cx="141.75" style="fill:#ED1B2E;" cy="-45.707"/>
  <circle r="0.499" cx="138.75" style="fill:#ED1B2E;" cy="-40.207"/>
  <circle r="0.499" cx="131.333" style="fill:#ED1B2E;" cy="-42.707"/>
  <circle r="0.499" cx="134.75" style="fill:#ED1B2E;" cy="-44.457"/>
  <circle r="0.499" cx="127" style="fill:#ED1B2E;" cy="-46.207"/>
  <circle r="0.499" cx="122.25" style="fill:#ED1B2E;" cy="-49.707"/>
  <circle r="0.499" cx="119.25" style="fill:#ED1B2E;" cy="-44.207"/>
  <circle r="0.499" cx="112.75" style="fill:#ED1B2E;" cy="-46.457"/>
  <circle r="0.499" cx="108.5" style="fill:#ED1B2E;" cy="-46.707"/>
  <circle r="0.499" cx="103" style="fill:#ED1B2E;" cy="-49.957"/>
  <circle r="0.499" cx="97" style="fill:#ED1B2E;" cy="-54.207"/>
  <circle r="0.499" cx="91.25" style="fill:#ED1B2E;" cy="-51.457"/>
  <circle r="0.499" cx="93.333" style="fill:#ED1B2E;" cy="-56.707"/>
  <circle r="0.499" cx="80.5" style="fill:#ED1B2E;" cy="-58.707"/>
  <circle r="0.499" cx="72.75" style="fill:#ED1B2E;" cy="-66.207"/>
  <circle r="0.499" cx="72.25" style="fill:#ED1B2E;" cy="-60.207"/>
  <circle r="0.499" cx="68.666" style="fill:#ED1B2E;" cy="-53.375"/>
  <circle r="0.499" cx="75.25" style="fill:#ED1B2E;" cy="-70.707"/>
  <circle r="0.499" cx="78.666" style="fill:#ED1B2E;" cy="-74.707"/>
  <circle r="0.499" cx="101" style="fill:#ED1B2E;" cy="-80.207"/>
  <circle r="0.499" cx="104" style="fill:#ED1B2E;" cy="-77.457"/>
  <circle r="0.499" cx="109" style="fill:#ED1B2E;" cy="-68.707"/>
  <circle r="0.499" cx="113.75" style="fill:#ED1B2E;" cy="-72.707"/>
  <circle r="0.499" cx="116.5" style="fill:#ED1B2E;" cy="-75.957"/>
  <circle r="0.499" cx="120.75" style="fill:#ED1B2E;" cy="-78.207"/>
  <circle r="0.499" cx="128.75" style="fill:#ED1B2E;" cy="-78.707"/>
  <circle r="0.499" cx="132.75" style="fill:#ED1B2E;" cy="-82.457"/>
  <circle r="0.499" cx="137.298" style="fill:#ED1B2E;" cy="-79.039"/>
  <circle r="0.499" cx="135" style="fill:#ED1B2E;" cy="-74.207"/>
  <circle r="0.499" cx="142" style="fill:#ED1B2E;" cy="-72.457"/>
  <circle r="0.499" cx="140.75" style="fill:#ED1B2E;" cy="-66.707"/>
  <circle r="0.499" cx="142.333" style="fill:#ED1B2E;" cy="-55.04"/>
  <circle r="0.499" cx="131" style="fill:#ED1B2E;" cy="-70.457"/>
  <circle r="0.499" cx="124" style="fill:#ED1B2E;" cy="-74.707"/>
  <circle r="0.499" cx="120.5" style="fill:#ED1B2E;" cy="-70.207"/>
  <circle r="0.499" cx="115.25" style="fill:#ED1B2E;" cy="-66.207"/>
  <circle r="0.499" cx="110" style="fill:#ED1B2E;" cy="-62.207"/>
  <circle r="0.499" cx="116.75" style="fill:#ED1B2E;" cy="-60.207"/>
  <circle r="0.499" cx="113.333" style="fill:#ED1B2E;" cy="-56.707"/>
  <circle r="0.499" cx="89.333" style="fill:#ED1B2E;" cy="-48.375"/>
  <circle r="0.499" cx="122" style="fill:#ED1B2E;" cy="-64.457"/>
  <circle r="0.499" cx="126.75" style="fill:#ED1B2E;" cy="-67.707"/>
  <circle r="0.499" cx="131.75" style="fill:#ED1B2E;" cy="-61.957"/>
  <circle r="0.499" cx="135.25" style="fill:#ED1B2E;" cy="-64.957"/>
  <circle r="0.499" cx="127.5" style="fill:#ED1B2E;" cy="-59.707"/>
  <circle r="0.499" cx="134.5" style="fill:#ED1B2E;" cy="-55.957"/>
  <circle r="0.499" cx="139.25" style="fill:#ED1B2E;" cy="-57.707"/>
  <circle r="0.499" cx="81.25" style="fill:#ED1B2E;" cy="-88.207"/>
  <circle r="0.499" cx="88.25" style="fill:#ED1B2E;" cy="-92.207"/>
  <circle r="0.499" cx="70.666" style="fill:#ED1B2E;" cy="-78.04"/>
  <circle r="0.499" cx="64.333" style="fill:#ED1B2E;" cy="-77.207"/>
  <circle r="0.499" cx="44.5" style="fill:#ED1B2E;" cy="-76.207"/>
  <circle r="0.499" cx="51.167" style="fill:#ED1B2E;" cy="-69.624"/>
  <circle r="0.499" cx="32" style="fill:#ED1B2E;" cy="-66.04"/>
  <circle r="0.499" cx="31" style="fill:#ED1B2E;" cy="-61.04"/>
  <circle r="0.499" cx="67.774" style="fill:#ED1B2E;" cy="-84.962"/>
  <circle r="0.499" cx="74.75" style="fill:#ED1B2E;" cy="-95.457"/>
  <circle r="0.499" cx="69" style="fill:#ED1B2E;" cy="-93.457"/>
  <circle r="0.499" cx="65.25" style="fill:#ED1B2E;" cy="-89.457"/>
  <circle r="0.499" cx="59" style="fill:#ED1B2E;" cy="-87.957"/>
  <circle r="0.499" cx="54.75" style="fill:#ED1B2E;" cy="-83.457"/>
  <circle r="0.499" cx="49.75" style="fill:#ED1B2E;" cy="-80.621"/>
  <circle r="0.499" cx="49" style="fill:#ED1B2E;" cy="-87.707"/>
  <circle r="0.499" cx="40.167" style="fill:#ED1B2E;" cy="-81.624"/>
  <circle r="0.499" cx="77.333" style="fill:#ED1B2E;" cy="-104.04"/>
  <circle r="0.499" cx="71.793" style="fill:#ED1B2E;" cy="-101.25"/>
  <circle r="0.499" cx="65" style="fill:#ED1B2E;" cy="-101.374"/>
  <circle r="0.499" cx="63" style="fill:#ED1B2E;" cy="-95.707"/>
  <circle r="0.499" cx="67.959" style="fill:#ED1B2E;" cy="-98"/>
  <circle r="0.499" cx="57.25" style="fill:#ED1B2E;" cy="-94.207"/>
  <circle r="0.499" cx="53.667" style="fill:#ED1B2E;" cy="-90.04"/>
  <circle r="0.499" cx="59.667" style="fill:#ED1B2E;" cy="-100.04"/>
  <circle r="0.499" cx="54.333" style="fill:#ED1B2E;" cy="-98.361"/>
  <circle r="0.499" cx="49" style="fill:#ED1B2E;" cy="-94.04"/>
  <circle r="0.499" cx="42.5" style="fill:#ED1B2E;" cy="-91.457"/>
  <circle r="0.499" cx="36.667" style="fill:#ED1B2E;" cy="-87.374"/>
  <circle r="0.499" cx="29.667" style="fill:#ED1B2E;" cy="-90.124"/>
  <circle r="0.499" cx="20" style="fill:#ED1B2E;" cy="-89.207"/>
  <circle r="0.499" cx="15" style="fill:#ED1B2E;" cy="-92.457"/>
  <circle r="0.499" cx="7" style="fill:#ED1B2E;" cy="-96.707"/>
  <circle r="0.499" cx="2" style="fill:#ED1B2E;" cy="-92.04"/>
  <circle r="0.499" cx="6.75" style="fill:#ED1B2E;" cy="-90.207"/>
  <circle r="0.499" cx="4.75" style="fill:#ED1B2E;" cy="-85.957"/>
  <circle r="0.499" cx="12.75" style="fill:#ED1B2E;" cy="-85.957"/>
  <circle r="0.499" cx="19" style="fill:#ED1B2E;" cy="-84.207"/>
  <circle r="0.499" cx="25" style="fill:#ED1B2E;" cy="-81.957"/>
  <circle r="0.5" cx="33.333" style="fill:#ED1B2E;" cy="-83.54"/>
  <circle r="0.499" cx="37" style="fill:#ED1B2E;" cy="-93.04"/>
  <circle r="0.499" cx="44" style="fill:#ED1B2E;" cy="-98.457"/>
  <circle r="0.499" cx="37.333" style="fill:#ED1B2E;" cy="-99.707"/>
  <circle r="0.499" cx="41.5" style="fill:#ED1B2E;" cy="-102.207"/>
  <circle r="0.499" cx="31.667" style="fill:#ED1B2E;" cy="-99.374"/>
  <circle r="0.499" cx="25" style="fill:#ED1B2E;" cy="-100.04"/>
  <circle r="0.499" cx="7" style="fill:#ED1B2E;" cy="-102.374"/>
  <circle r="0.499" cx="1" style="fill:#ED1B2E;" cy="-99.374"/>
  <circle r="0.499" cx="136.333" style="fill:#ED1B2E;" cy="-129.707"/>
  <circle r="0.499" cx="135.667" style="fill:#ED1B2E;" cy="-135.374"/>
  <circle r="0.499" cx="142" style="fill:#ED1B2E;" cy="-133.04"/>
  <circle r="0.499" cx="130" style="fill:#ED1B2E;" cy="-142.707"/>
  <circle r="0.499" cx="136.333" style="fill:#ED1B2E;" cy="-140.374"/>
  <circle r="0.499" cx="142" style="fill:#ED1B2E;" cy="-139.374"/>
  <circle r="0.499" cx="74.801" style="fill:#ED1B2E;" cy="-1.707"/>
  <circle r="0.499" cx="82.702" style="fill:#ED1B2E;" cy="-2.273"/>
  <circle r="0.499" cx="53" style="fill:#ED1B2E;" cy="-118.957"/>
  <circle r="0.499" cx="50.626" style="fill:#ED1B2E;" cy="-123.333"/>
  <circle r="0.499" cx="4.333" style="fill:#ED1B2E;" cy="-142.04"/>
 </g>
</svg>
