<?xml version="1.0"?>
<!-- Converted with SVG Converter - Version 0.9.5 (Compiled Fri Feb 21 09:53:38 2020) - Copyright (C) 2011 Nokia -->
<svg xmlns="http://www.w3.org/2000/svg" height="144" width="144" x="0px" viewBox="1 -145 144 144" y="0px" xml:space="preserve" version="1.1" baseProfile="tiny" xmlns:xlink="http://www.w3.org/1999/xlink">
 <g>
  <rect height="144" width="144" x="1" y="-145" style="fill:none;"/>
  <rect height="144" width="144" x="1" y="-145"/>
  <circle cx="12.959" style="fill:#FFFFFF;" cy="-143" r="0.499"/>
  <circle cx="18.333" style="fill:#FFFFFF;" cy="-141.79" r="0.499"/>
  <circle cx="26.667" style="fill:#FFFFFF;" cy="-143.707" r="0.499"/>
  <circle cx="16" style="fill:#FFFFFF;" cy="-137.04" r="0.499"/>
  <circle cx="10" style="fill:#FFFFFF;" cy="-139.04" r="0.499"/>
  <circle cx="2.333" style="fill:#FFFFFF;" cy="-137.04" r="0.499"/>
  <circle cx="8.333" style="fill:#FFFFFF;" cy="-133.374" r="0.499"/>
  <circle cx="13.667" style="fill:#FFFFFF;" cy="-131.04" r="0.499"/>
  <circle cx="20" style="fill:#FFFFFF;" cy="-128.707" r="0.499"/>
  <circle cx="23" style="fill:#FFFFFF;" cy="-136.374" r="0.499"/>
  <circle cx="29" style="fill:#FFFFFF;" cy="-136.04" r="0.499"/>
  <circle cx="33.333" style="fill:#FFFFFF;" cy="-141.04" r="0.499"/>
  <circle cx="39.667" style="fill:#FFFFFF;" cy="-142.707" r="0.499"/>
  <circle cx="43.667" style="fill:#FFFFFF;" cy="-140.374" r="0.499"/>
  <circle cx="50.5" style="fill:#FFFFFF;" cy="-139.957" r="0.499"/>
  <circle cx="54" style="fill:#FFFFFF;" cy="-143.707" r="0.499"/>
  <circle cx="57.667" style="fill:#FFFFFF;" cy="-139.04" r="0.499"/>
  <circle cx="53.667" style="fill:#FFFFFF;" cy="-134.707" r="0.499"/>
  <circle cx="50" style="fill:#FFFFFF;" cy="-128.707" r="0.499"/>
  <circle cx="46.333" style="fill:#FFFFFF;" cy="-122.707" r="0.499"/>
  <circle cx="43.601" style="fill:#FFFFFF;" cy="-126.471" r="0.499"/>
  <circle cx="46.75" style="fill:#FFFFFF;" cy="-134.707" r="0.499"/>
  <circle cx="45" style="fill:#FFFFFF;" cy="-117.207" r="0.499"/>
  <circle cx="40.667" style="fill:#FFFFFF;" cy="-132.04" r="0.499"/>
  <circle cx="37" style="fill:#FFFFFF;" cy="-126.707" r="0.499"/>
  <circle cx="31.667" style="fill:#FFFFFF;" cy="-127.04" r="0.499"/>
  <circle cx="30" style="fill:#FFFFFF;" cy="-123.04" r="0.499"/>
  <circle cx="24.333" style="fill:#FFFFFF;" cy="-124.707" r="0.499"/>
  <circle cx="24" style="fill:#FFFFFF;" cy="-118.374" r="0.499"/>
  <circle cx="22" style="fill:#FFFFFF;" cy="-111.04" r="0.499"/>
  <circle cx="20.333" style="fill:#FFFFFF;" cy="-104.707" r="0.499"/>
  <circle cx="20.667" style="fill:#FFFFFF;" cy="-100.04" r="0.499"/>
  <circle cx="14.333" style="fill:#FFFFFF;" cy="-98.707" r="0.499"/>
  <circle cx="15" style="fill:#FFFFFF;" cy="-104.707" r="0.499"/>
  <circle cx="16" style="fill:#FFFFFF;" cy="-110.374" r="0.499"/>
  <circle cx="16.667" style="fill:#FFFFFF;" cy="-117.374" r="0.499"/>
  <circle cx="18" style="fill:#FFFFFF;" cy="-122.707" r="0.499"/>
  <circle cx="11.667" style="fill:#FFFFFF;" cy="-123.707" r="0.499"/>
  <circle cx="6.333" style="fill:#FFFFFF;" cy="-127.707" r="0.499"/>
  <circle cx="2.667" style="fill:#FFFFFF;" cy="-130.04" r="0.499"/>
  <circle cx="3.667" style="fill:#FFFFFF;" cy="-120.374" r="0.499"/>
  <circle cx="9.667" style="fill:#FFFFFF;" cy="-116.707" r="0.499"/>
  <circle cx="7.667" style="fill:#FFFFFF;" cy="-110.707" r="0.499"/>
  <circle cx="4" style="fill:#FFFFFF;" cy="-108.707" r="0.499"/>
  <circle cx="3.333" style="fill:#FFFFFF;" cy="-114.707" r="0.499"/>
  <circle cx="27.667" style="fill:#FFFFFF;" cy="-114.707" r="0.499"/>
  <circle cx="35.667" style="fill:#FFFFFF;" cy="-120.374" r="0.499"/>
  <circle cx="40" style="fill:#FFFFFF;" cy="-120.374" r="0.499"/>
  <circle cx="39" style="fill:#FFFFFF;" cy="-112.707" r="0.499"/>
  <circle cx="34.75" style="fill:#FFFFFF;" cy="-114.207" r="0.499"/>
  <circle cx="38.667" style="fill:#FFFFFF;" cy="-108.374" r="0.499"/>
  <circle cx="32" style="fill:#FFFFFF;" cy="-106.707" r="0.499"/>
  <circle cx="27.333" style="fill:#FFFFFF;" cy="-109.04" r="0.499"/>
  <circle cx="27" style="fill:#FFFFFF;" cy="-130.707" r="0.499"/>
  <circle cx="34.333" style="fill:#FFFFFF;" cy="-132.04" r="0.499"/>
  <circle cx="37" style="fill:#FFFFFF;" cy="-136.374" r="0.499"/>
  <circle cx="63" style="fill:#FFFFFF;" cy="-142.374" r="0.499"/>
  <circle cx="68.666" style="fill:#FFFFFF;" cy="-143.374" r="0.499"/>
  <circle cx="70" style="fill:#FFFFFF;" cy="-138.707" r="0.499"/>
  <circle cx="75" style="fill:#FFFFFF;" cy="-143.082" r="0.499"/>
  <circle cx="81.666" style="fill:#FFFFFF;" cy="-143.374" r="0.499"/>
  <circle cx="65.25" style="fill:#FFFFFF;" cy="-134.707" r="0.499"/>
  <circle cx="59" style="fill:#FFFFFF;" cy="-134.707" r="0.499"/>
  <circle cx="56.667" style="fill:#FFFFFF;" cy="-123.707" r="0.499"/>
  <circle cx="60.333" style="fill:#FFFFFF;" cy="-129.457" r="0.499"/>
  <circle cx="56" style="fill:#FFFFFF;" cy="-130.707" r="0.499"/>
  <circle cx="69.333" style="fill:#FFFFFF;" cy="-132.04" r="0.499"/>
  <circle cx="75.333" style="fill:#FFFFFF;" cy="-135.707" r="0.499"/>
  <circle cx="82" style="fill:#FFFFFF;" cy="-139.04" r="0.499"/>
  <circle cx="87.666" style="fill:#FFFFFF;" cy="-141.374" r="0.499"/>
  <circle cx="94" style="fill:#FFFFFF;" cy="-143.374" r="0.499"/>
  <circle cx="101.666" style="fill:#FFFFFF;" cy="-143.04" r="0.499"/>
  <circle cx="93.333" style="fill:#FFFFFF;" cy="-136.457" r="0.499"/>
  <circle cx="87.043" style="fill:#FFFFFF;" cy="-135.25" r="0.499"/>
  <circle cx="82.667" style="fill:#FFFFFF;" cy="-130.124" r="0.499"/>
  <circle cx="77.666" style="fill:#FFFFFF;" cy="-131.707" r="0.499"/>
  <circle cx="76.5" style="fill:#FFFFFF;" cy="-126.707" r="0.499"/>
  <circle cx="70" style="fill:#FFFFFF;" cy="-122.457" r="0.499"/>
  <circle cx="63.667" style="fill:#FFFFFF;" cy="-120.707" r="0.499"/>
  <circle cx="57.667" style="fill:#FFFFFF;" cy="-118.04" r="0.499"/>
  <circle cx="68" style="fill:#FFFFFF;" cy="-116.454" r="0.499"/>
  <circle cx="60.333" style="fill:#FFFFFF;" cy="-115.374" r="0.499"/>
  <circle cx="56.333" style="fill:#FFFFFF;" cy="-110.707" r="0.499"/>
  <circle cx="51.333" style="fill:#FFFFFF;" cy="-115.04" r="0.499"/>
  <circle cx="51" style="fill:#FFFFFF;" cy="-108.04" r="0.499"/>
  <circle cx="47" style="fill:#FFFFFF;" cy="-110.207" r="0.499"/>
  <circle cx="50.333" style="fill:#FFFFFF;" cy="-103.374" r="0.499"/>
  <circle cx="56" style="fill:#FFFFFF;" cy="-104.707" r="0.499"/>
  <circle cx="62.707" style="fill:#FFFFFF;" cy="-107.414" r="0.499"/>
  <circle cx="67" style="fill:#FFFFFF;" cy="-109.04" r="0.499"/>
  <circle cx="65.333" style="fill:#FFFFFF;" cy="-112.374" r="0.499"/>
  <circle cx="72.333" style="fill:#FFFFFF;" cy="-110.04" r="0.499"/>
  <circle cx="73.333" style="fill:#FFFFFF;" cy="-115.04" r="0.499"/>
  <circle cx="76.333" style="fill:#FFFFFF;" cy="-119.707" r="0.499"/>
  <circle cx="81.666" style="fill:#FFFFFF;" cy="-123.374" r="0.499"/>
  <circle cx="87" style="fill:#FFFFFF;" cy="-126.04" r="0.499"/>
  <circle cx="89.626" style="fill:#FFFFFF;" cy="-130.747" r="0.499"/>
  <circle cx="97.166" style="fill:#FFFFFF;" cy="-132.624" r="0.499"/>
  <circle cx="99.166" style="fill:#FFFFFF;" cy="-138.624" r="0.499"/>
  <circle cx="107.333" style="fill:#FFFFFF;" cy="-142.04" r="0.499"/>
  <circle cx="114" style="fill:#FFFFFF;" cy="-143.707" r="0.499"/>
  <circle cx="125.333" style="fill:#FFFFFF;" cy="-143.707" r="0.499"/>
  <circle cx="119" style="fill:#FFFFFF;" cy="-141.04" r="0.499"/>
  <circle cx="116" style="fill:#FFFFFF;" cy="-135.124" r="0.499"/>
  <circle cx="109.25" style="fill:#FFFFFF;" cy="-134.457" r="0.499"/>
  <circle cx="129.333" style="fill:#FFFFFF;" cy="-124.457" r="0.499"/>
  <circle cx="102.666" style="fill:#FFFFFF;" cy="-131.624" r="0.499"/>
  <circle cx="65.333" style="fill:#FFFFFF;" cy="-127.124" r="0.499"/>
  <circle cx="71.333" style="fill:#FFFFFF;" cy="-128.04" r="0.499"/>
  <circle cx="105.666" style="fill:#FFFFFF;" cy="-137.374" r="0.499"/>
  <circle cx="92.374" style="fill:#FFFFFF;" cy="-125.414" r="0.499"/>
  <circle cx="87.666" style="fill:#FFFFFF;" cy="-120.54" r="0.499"/>
  <circle cx="82.333" style="fill:#FFFFFF;" cy="-116.707" r="0.499"/>
  <circle cx="78.333" style="fill:#FFFFFF;" cy="-111.04" r="0.499"/>
  <circle cx="84.667" style="fill:#FFFFFF;" cy="-107.79" r="0.499"/>
  <circle cx="87" style="fill:#FFFFFF;" cy="-113.04" r="0.499"/>
  <circle cx="98" style="fill:#FFFFFF;" cy="-121.124" r="0.499"/>
  <circle cx="101.666" style="fill:#FFFFFF;" cy="-126.121" r="0.499"/>
  <circle cx="97.333" style="fill:#FFFFFF;" cy="-128.707" r="0.499"/>
  <circle cx="107.666" style="fill:#FFFFFF;" cy="-128.789" r="0.499"/>
  <circle cx="114" style="fill:#FFFFFF;" cy="-129.79" r="0.499"/>
  <circle cx="120" style="fill:#FFFFFF;" cy="-133.04" r="0.499"/>
  <circle cx="123.666" style="fill:#FFFFFF;" cy="-138.04" r="0.499"/>
  <circle cx="131.667" style="fill:#FFFFFF;" cy="-136.707" r="0.499"/>
  <circle cx="128.667" style="fill:#FFFFFF;" cy="-139.374" r="0.499"/>
  <circle cx="126" style="fill:#FFFFFF;" cy="-133.374" r="0.499"/>
  <circle cx="120.333" style="fill:#FFFFFF;" cy="-128.707" r="0.499"/>
  <circle cx="114" style="fill:#FFFFFF;" cy="-122.707" r="0.499"/>
  <circle cx="107.666" style="fill:#FFFFFF;" cy="-123.04" r="0.499"/>
  <circle cx="95.666" style="fill:#FFFFFF;" cy="-116.707" r="0.499"/>
  <circle cx="95.333" style="fill:#FFFFFF;" cy="-110.04" r="0.499"/>
  <circle cx="90.5" style="fill:#FFFFFF;" cy="-111.207" r="0.499"/>
  <circle cx="90.75" style="fill:#FFFFFF;" cy="-103.707" r="0.499"/>
  <circle cx="131.333" style="fill:#FFFFFF;" cy="-131.374" r="0.499"/>
  <circle cx="125.626" style="fill:#FFFFFF;" cy="-127.414" r="0.499"/>
  <circle cx="121" style="fill:#FFFFFF;" cy="-122.124" r="0.499"/>
  <circle cx="115.333" style="fill:#FFFFFF;" cy="-117.707" r="0.499"/>
  <circle cx="110" style="fill:#FFFFFF;" cy="-117.374" r="0.499"/>
  <circle cx="106" style="fill:#FFFFFF;" cy="-113.04" r="0.499"/>
  <circle cx="100.666" style="fill:#FFFFFF;" cy="-107.707" r="0.499"/>
  <circle cx="106.333" style="fill:#FFFFFF;" cy="-106.707" r="0.499"/>
  <circle cx="110.666" style="fill:#FFFFFF;" cy="-111.04" r="0.499"/>
  <circle cx="116" style="fill:#FFFFFF;" cy="-111.374" r="0.499"/>
  <circle cx="125" style="fill:#FFFFFF;" cy="-119.124" r="0.499"/>
  <circle cx="136.667" style="fill:#FFFFFF;" cy="-125.457" r="0.499"/>
  <circle cx="133" style="fill:#FFFFFF;" cy="-121.04" r="0.499"/>
  <circle cx="144" style="fill:#FFFFFF;" cy="-125.374" r="0.499"/>
  <circle cx="138" style="fill:#FFFFFF;" cy="-121.04" r="0.499"/>
  <circle cx="134" style="fill:#FFFFFF;" cy="-116.707" r="0.499"/>
  <circle cx="140" style="fill:#FFFFFF;" cy="-114.707" r="0.499"/>
  <circle cx="143" style="fill:#FFFFFF;" cy="-119.04" r="0.499"/>
  <circle cx="127.666" style="fill:#FFFFFF;" cy="-114.707" r="0.499"/>
  <circle cx="122.25" style="fill:#FFFFFF;" cy="-112.957" r="0.499"/>
  <circle cx="123.5" style="fill:#FFFFFF;" cy="-108.707" r="0.499"/>
  <circle cx="118" style="fill:#FFFFFF;" cy="-107.207" r="0.499"/>
  <circle cx="129.667" style="fill:#FFFFFF;" cy="-110.04" r="0.499"/>
  <circle cx="136" style="fill:#FFFFFF;" cy="-109.04" r="0.499"/>
  <circle cx="142.333" style="fill:#FFFFFF;" cy="-109.04" r="0.499"/>
  <circle cx="138" style="fill:#FFFFFF;" cy="-105.374" r="0.499"/>
  <circle cx="132" style="fill:#FFFFFF;" cy="-105.04" r="0.499"/>
  <circle cx="126" style="fill:#FFFFFF;" cy="-102.707" r="0.499"/>
  <circle cx="119.333" style="fill:#FFFFFF;" cy="-102.707" r="0.499"/>
  <circle cx="121.666" style="fill:#FFFFFF;" cy="-98.707" r="0.499"/>
  <circle cx="135" style="fill:#FFFFFF;" cy="-95.707" r="0.499"/>
  <circle cx="104" style="fill:#FFFFFF;" cy="-117.454" r="0.499"/>
  <circle cx="110.666" style="fill:#FFFFFF;" cy="-138.707" r="0.499"/>
  <circle cx="116.5" style="fill:#FFFFFF;" cy="-95.707" r="0.499"/>
  <circle cx="112.5" style="fill:#FFFFFF;" cy="-104.707" r="0.499"/>
  <circle cx="106.5" style="fill:#FFFFFF;" cy="-99.957" r="0.499"/>
  <circle cx="110.333" style="fill:#FFFFFF;" cy="-97.04" r="0.499"/>
  <circle cx="115" style="fill:#FFFFFF;" cy="-100.707" r="0.499"/>
  <circle cx="101.666" style="fill:#FFFFFF;" cy="-101.374" r="0.499"/>
  <circle cx="95.333" style="fill:#FFFFFF;" cy="-103.04" r="0.499"/>
  <circle cx="89.666" style="fill:#FFFFFF;" cy="-99.04" r="0.499"/>
  <circle cx="83.626" style="fill:#FFFFFF;" cy="-102.082" r="0.499"/>
  <circle cx="81.25" style="fill:#FFFFFF;" cy="-97.707" r="0.499"/>
  <circle cx="84.666" style="fill:#FFFFFF;" cy="-93.707" r="0.499"/>
  <circle cx="75.334" style="fill:#FFFFFF;" cy="-91.207" r="0.499"/>
  <circle cx="63.333" style="fill:#FFFFFF;" cy="-83.874" r="0.499"/>
  <circle cx="55" style="fill:#FFFFFF;" cy="-77.957" r="0.499"/>
  <circle cx="38.667" style="fill:#FFFFFF;" cy="-77.624" r="0.499"/>
  <circle cx="46.667" style="fill:#FFFFFF;" cy="-85.789" r="0.499"/>
  <circle cx="29.333" style="fill:#FFFFFF;" cy="-86.54" r="0.499"/>
  <circle cx="24.333" style="fill:#FFFFFF;" cy="-93.874" r="0.499"/>
  <circle cx="48.167" style="fill:#FFFFFF;" cy="-72.624" r="0.499"/>
  <circle cx="44" style="fill:#FFFFFF;" cy="-65.707" r="0.499"/>
  <circle cx="49.25" style="fill:#FFFFFF;" cy="-61.457" r="0.499"/>
  <circle cx="39" style="fill:#FFFFFF;" cy="-64.79" r="0.499"/>
  <circle cx="27.667" style="fill:#FFFFFF;" cy="-34.707" r="0.499"/>
  <circle cx="37.333" style="fill:#FFFFFF;" cy="-60.121" r="0.499"/>
  <circle cx="28" style="fill:#FFFFFF;" cy="-67.207" r="0.499"/>
  <circle cx="20.5" style="fill:#FFFFFF;" cy="-71.207" r="0.499"/>
  <circle cx="21.5" style="fill:#FFFFFF;" cy="-79.707" r="0.499"/>
  <circle cx="10.75" style="fill:#FFFFFF;" cy="-76.207" r="0.499"/>
  <circle cx="4.25" style="fill:#FFFFFF;" cy="-79.207" r="0.499"/>
  <circle cx="11.75" style="fill:#FFFFFF;" cy="-81.707" r="0.499"/>
  <circle cx="16" style="fill:#FFFFFF;" cy="-78.457" r="0.499"/>
  <circle cx="26.707" style="fill:#FFFFFF;" cy="-73.664" r="0.499"/>
  <circle cx="31.75" style="fill:#FFFFFF;" cy="-74.957" r="0.499"/>
  <circle cx="27.75" style="fill:#FFFFFF;" cy="-79.457" r="0.499"/>
  <circle cx="34" style="fill:#FFFFFF;" cy="-79.707" r="0.499"/>
  <circle cx="35" style="fill:#FFFFFF;" cy="-71.707" r="0.499"/>
  <circle cx="41.333" style="fill:#FFFFFF;" cy="-72.124" r="0.499"/>
  <circle cx="50.25" style="fill:#FFFFFF;" cy="-65.207" r="0.499"/>
  <circle cx="59" style="fill:#FFFFFF;" cy="-73.871" r="0.499"/>
  <circle cx="64.75" style="fill:#FFFFFF;" cy="-68.957" r="0.499"/>
  <circle cx="62.75" style="fill:#FFFFFF;" cy="-64.957" r="0.499"/>
  <circle cx="67.75" style="fill:#FFFFFF;" cy="-63.457" r="0.499"/>
  <circle cx="68.5" style="fill:#FFFFFF;" cy="-59.207" r="0.499"/>
  <circle cx="66.25" style="fill:#FFFFFF;" cy="-52.957" r="0.499"/>
  <circle cx="65.5" style="fill:#FFFFFF;" cy="-47.707" r="0.499"/>
  <circle cx="68.75" style="fill:#FFFFFF;" cy="-40.457" r="0.499"/>
  <circle cx="73" style="fill:#FFFFFF;" cy="-46.371" r="0.499"/>
  <circle cx="77.25" style="fill:#FFFFFF;" cy="-40.707" r="0.499"/>
  <circle cx="73.25" style="fill:#FFFFFF;" cy="-35.707" r="0.499"/>
  <circle cx="86" style="fill:#FFFFFF;" cy="-35.207" r="0.499"/>
  <circle cx="79.75" style="fill:#FFFFFF;" cy="-35.457" r="0.499"/>
  <circle cx="75.75" style="fill:#FFFFFF;" cy="-28.957" r="0.499"/>
  <circle cx="68" style="fill:#FFFFFF;" cy="-30.957" r="0.499"/>
  <circle cx="65.75" style="fill:#FFFFFF;" cy="-36.707" r="0.499"/>
  <circle cx="62.75" style="fill:#FFFFFF;" cy="-41.207" r="0.499"/>
  <circle cx="60.5" style="fill:#FFFFFF;" cy="-46.957" r="0.499"/>
  <circle cx="59" style="fill:#FFFFFF;" cy="-52.375" r="0.499"/>
  <circle cx="62.25" style="fill:#FFFFFF;" cy="-57.457" r="0.499"/>
  <circle cx="55.333" style="fill:#FFFFFF;" cy="-62.375" r="0.499"/>
  <circle cx="57" style="fill:#FFFFFF;" cy="-68.79" r="0.499"/>
  <circle cx="56.5" style="fill:#FFFFFF;" cy="-58.207" r="0.499"/>
  <circle cx="51.75" style="fill:#FFFFFF;" cy="-55.207" r="0.499"/>
  <circle cx="53.75" style="fill:#FFFFFF;" cy="-49.207" r="0.499"/>
  <circle cx="54" style="fill:#FFFFFF;" cy="-43.04" r="0.499"/>
  <circle cx="56.667" style="fill:#FFFFFF;" cy="-37.375" r="0.499"/>
  <circle cx="59" style="fill:#FFFFFF;" cy="-33.707" r="0.499"/>
  <circle cx="61.25" style="fill:#FFFFFF;" cy="-29.957" r="0.499"/>
  <circle cx="58.5" style="fill:#FFFFFF;" cy="-25.457" r="0.499"/>
  <circle cx="51" style="fill:#FFFFFF;" cy="-25.707" r="0.499"/>
  <circle cx="46" style="fill:#FFFFFF;" cy="-30.957" r="0.499"/>
  <circle cx="42" style="fill:#FFFFFF;" cy="-26.957" r="0.499"/>
  <circle cx="99.666" style="fill:#FFFFFF;" cy="-113.374" r="0.499"/>
  <circle cx="35.5" style="fill:#FFFFFF;" cy="-17.957" r="0.499"/>
  <circle cx="41.75" style="fill:#FFFFFF;" cy="-19.207" r="0.499"/>
  <circle cx="43.667" style="fill:#FFFFFF;" cy="-14.707" r="0.499"/>
  <circle cx="47.5" style="fill:#FFFFFF;" cy="-20.957" r="0.499"/>
  <circle cx="38" style="fill:#FFFFFF;" cy="-13.123" r="0.499"/>
  <circle cx="33.5" style="fill:#FFFFFF;" cy="-5.207" r="0.499"/>
  <circle cx="30.667" style="fill:#FFFFFF;" cy="-10.123" r="0.499"/>
  <circle cx="24" style="fill:#FFFFFF;" cy="-5.207" r="0.499"/>
  <circle cx="21.043" style="fill:#FFFFFF;" cy="-9.664" r="0.499"/>
  <circle cx="26" style="fill:#FFFFFF;" cy="-12.957" r="0.499"/>
  <circle cx="28" style="fill:#FFFFFF;" cy="-18.707" r="0.499"/>
  <circle cx="30" style="fill:#FFFFFF;" cy="-15.373" r="0.499"/>
  <circle cx="36.667" style="fill:#FFFFFF;" cy="-7.373" r="0.499"/>
  <circle cx="40" style="fill:#FFFFFF;" cy="-3.041" r="0.499"/>
  <circle cx="18.5" style="fill:#FFFFFF;" cy="-2.207" r="0.499"/>
  <circle cx="29" style="fill:#FFFFFF;" cy="-2.84" r="0.499"/>
  <circle cx="20" style="fill:#FFFFFF;" cy="-23.207" r="0.499"/>
  <circle cx="23" style="fill:#FFFFFF;" cy="-18.957" r="0.499"/>
  <circle cx="15.75" style="fill:#FFFFFF;" cy="-18.957" r="0.499"/>
  <circle cx="10.5" style="fill:#FFFFFF;" cy="-20.707" r="0.499"/>
  <circle cx="5.5" style="fill:#FFFFFF;" cy="-17.457" r="0.499"/>
  <circle cx="9.75" style="fill:#FFFFFF;" cy="-13.207" r="0.499"/>
  <circle cx="17.25" style="fill:#FFFFFF;" cy="-13.207" r="0.499"/>
  <circle cx="15.5" style="fill:#FFFFFF;" cy="-7.207" r="0.499"/>
  <circle cx="10" style="fill:#FFFFFF;" cy="-6.957" r="0.499"/>
  <circle cx="5.5" style="fill:#FFFFFF;" cy="-9.457" r="0.499"/>
  <circle cx="2" style="fill:#FFFFFF;" cy="-5.207" r="0.499"/>
  <circle cx="8.27" style="fill:#FFFFFF;" cy="-2.59" r="0.499"/>
  <circle cx="31" style="fill:#FFFFFF;" cy="-96.207" r="0.499"/>
  <circle cx="27.667" style="fill:#FFFFFF;" cy="-25.124" r="0.499"/>
  <circle cx="23.333" style="fill:#FFFFFF;" cy="-28.707" r="0.499"/>
  <circle cx="20" style="fill:#FFFFFF;" cy="-44.707" r="0.499"/>
  <circle cx="20" style="fill:#FFFFFF;" cy="-52.375" r="0.499"/>
  <circle cx="29.333" style="fill:#FFFFFF;" cy="-30.375" r="0.499"/>
  <circle cx="34" style="fill:#FFFFFF;" cy="-24.457" r="0.499"/>
  <circle cx="32.333" style="fill:#FFFFFF;" cy="-38.375" r="0.499"/>
  <circle cx="43.333" style="fill:#FFFFFF;" cy="-24.041" r="0.499"/>
  <circle cx="38.333" style="fill:#FFFFFF;" cy="-34.375" r="0.499"/>
  <circle cx="43.75" style="fill:#FFFFFF;" cy="-36.957" r="0.499"/>
  <circle cx="43" style="fill:#FFFFFF;" cy="-43.457" r="0.499"/>
  <circle cx="32.167" style="fill:#FFFFFF;" cy="-44.625" r="0.499"/>
  <circle cx="37.75" style="fill:#FFFFFF;" cy="-39.207" r="0.499"/>
  <circle cx="35.667" style="fill:#FFFFFF;" cy="-30.375" r="0.499"/>
  <circle cx="31.167" style="fill:#FFFFFF;" cy="-51.125" r="0.499"/>
  <circle cx="37" style="fill:#FFFFFF;" cy="-46.457" r="0.499"/>
  <circle cx="42.333" style="fill:#FFFFFF;" cy="-51.457" r="0.499"/>
  <circle cx="47.75" style="fill:#FFFFFF;" cy="-46.371" r="0.499"/>
  <circle cx="47.75" style="fill:#FFFFFF;" cy="-51.207" r="0.499"/>
  <circle cx="43.5" style="fill:#FFFFFF;" cy="-58.371" r="0.499"/>
  <circle cx="37" style="fill:#FFFFFF;" cy="-55.207" r="0.499"/>
  <circle cx="31.5" style="fill:#FFFFFF;" cy="-57.207" r="0.499"/>
  <circle cx="26.5" style="fill:#FFFFFF;" cy="-61.664" r="0.499"/>
  <circle cx="22" style="fill:#FFFFFF;" cy="-64.957" r="0.499"/>
  <circle cx="14.5" style="fill:#FFFFFF;" cy="-65.207" r="0.499"/>
  <circle cx="15" style="fill:#FFFFFF;" cy="-69.707" r="0.499"/>
  <circle cx="10.25" style="fill:#FFFFFF;" cy="-69.207" r="0.499"/>
  <circle cx="4" style="fill:#FFFFFF;" cy="-71.457" r="0.499"/>
  <circle cx="6" style="fill:#FFFFFF;" cy="-65.207" r="0.499"/>
  <circle cx="8" style="fill:#FFFFFF;" cy="-60.957" r="0.499"/>
  <circle cx="11.5" style="fill:#FFFFFF;" cy="-54.957" r="0.499"/>
  <circle cx="15.25" style="fill:#FFFFFF;" cy="-50.957" r="0.499"/>
  <circle cx="25.75" style="fill:#FFFFFF;" cy="-45.207" r="0.499"/>
  <circle cx="26" style="fill:#FFFFFF;" cy="-39.207" r="0.499"/>
  <circle cx="20.543" style="fill:#FFFFFF;" cy="-40" r="0.499"/>
  <circle cx="15.75" style="fill:#FFFFFF;" cy="-42.957" r="0.499"/>
  <circle cx="12" style="fill:#FFFFFF;" cy="-46.957" r="0.499"/>
  <circle cx="7.75" style="fill:#FFFFFF;" cy="-50.957" r="0.499"/>
  <circle cx="4" style="fill:#FFFFFF;" cy="-54.957" r="0.499"/>
  <circle cx="15.75" style="fill:#FFFFFF;" cy="-59.207" r="0.499"/>
  <circle cx="21" style="fill:#FFFFFF;" cy="-59.04" r="0.499"/>
  <circle cx="25.333" style="fill:#FFFFFF;" cy="-49.707" r="0.499"/>
  <circle cx="25.667" style="fill:#FFFFFF;" cy="-55.375" r="0.499"/>
  <circle cx="15.793" style="fill:#FFFFFF;" cy="-33.25" r="0.499"/>
  <circle cx="10" style="fill:#FFFFFF;" cy="-30.707" r="0.499"/>
  <circle cx="6" style="fill:#FFFFFF;" cy="-24.707" r="0.499"/>
  <circle cx="2.317" style="fill:#FFFFFF;" cy="-27.207" r="0.499"/>
  <circle cx="13.043" style="fill:#FFFFFF;" cy="-27.664" r="0.499"/>
  <circle cx="19" style="fill:#FFFFFF;" cy="-28.457" r="0.499"/>
  <circle cx="22.25" style="fill:#FFFFFF;" cy="-33.207" r="0.499"/>
  <circle cx="11.75" style="fill:#FFFFFF;" cy="-36.957" r="0.499"/>
  <circle cx="7.5" style="fill:#FFFFFF;" cy="-40.707" r="0.499"/>
  <circle cx="3.5" style="fill:#FFFFFF;" cy="-45.207" r="0.499"/>
  <circle cx="5.5" style="fill:#FFFFFF;" cy="-35.207" r="0.499"/>
  <circle cx="53.5" style="fill:#FFFFFF;" cy="-30.707" r="0.499"/>
  <circle cx="51.5" style="fill:#FFFFFF;" cy="-34.457" r="0.499"/>
  <circle cx="48.25" style="fill:#FFFFFF;" cy="-40.207" r="0.499"/>
  <circle cx="79.25" style="fill:#FFFFFF;" cy="-56.207" r="0.499"/>
  <circle cx="81.75" style="fill:#FFFFFF;" cy="-51.207" r="0.499"/>
  <circle cx="87.333" style="fill:#FFFFFF;" cy="-54.375" r="0.499"/>
  <circle cx="86" style="fill:#FFFFFF;" cy="-46.04" r="0.499"/>
  <circle cx="92" style="fill:#FFFFFF;" cy="-42.957" r="0.499"/>
  <circle cx="97.75" style="fill:#FFFFFF;" cy="-46.957" r="0.499"/>
  <circle cx="99.293" style="fill:#FFFFFF;" cy="-41.664" r="0.499"/>
  <circle cx="104" style="fill:#FFFFFF;" cy="-45.457" r="0.499"/>
  <circle cx="110" style="fill:#FFFFFF;" cy="-40.707" r="0.499"/>
  <circle cx="116.666" style="fill:#FFFFFF;" cy="-41.625" r="0.499"/>
  <circle cx="119.75" style="fill:#FFFFFF;" cy="-37.207" r="0.499"/>
  <circle cx="126.333" style="fill:#FFFFFF;" cy="-41.54" r="0.499"/>
  <circle cx="132.25" style="fill:#FFFFFF;" cy="-34.957" r="0.499"/>
  <circle cx="139.75" style="fill:#FFFFFF;" cy="-34.957" r="0.499"/>
  <circle cx="143.667" style="fill:#FFFFFF;" cy="-37.375" r="0.499"/>
  <circle cx="143.333" style="fill:#FFFFFF;" cy="-31.04" r="0.499"/>
  <circle cx="143.683" style="fill:#FFFFFF;" cy="-23.258" r="0.499"/>
  <circle cx="138" style="fill:#FFFFFF;" cy="-27.457" r="0.499"/>
  <circle cx="132.25" style="fill:#FFFFFF;" cy="-30.457" r="0.499"/>
  <circle cx="124.666" style="fill:#FFFFFF;" cy="-34.207" r="0.499"/>
  <circle cx="113.75" style="fill:#FFFFFF;" cy="-35.957" r="0.499"/>
  <circle cx="125.75" style="fill:#FFFFFF;" cy="-26.957" r="0.499"/>
  <circle cx="132" style="fill:#FFFFFF;" cy="-23.207" r="0.499"/>
  <circle cx="138.5" style="fill:#FFFFFF;" cy="-20.957" r="0.499"/>
  <circle cx="144" style="fill:#FFFFFF;" cy="-17.207" r="0.499"/>
  <circle cx="137.75" style="fill:#FFFFFF;" cy="-14.707" r="0.499"/>
  <circle cx="143.25" style="fill:#FFFFFF;" cy="-9.457" r="0.499"/>
  <circle cx="109.028" style="fill:#FFFFFF;" cy="-2.607" r="0.499"/>
  <circle cx="136.667" style="fill:#FFFFFF;" cy="-2.373" r="0.499"/>
  <circle cx="122.631" style="fill:#FFFFFF;" cy="-2.607" r="0.499"/>
  <circle cx="140" style="fill:#FFFFFF;" cy="-7.207" r="0.499"/>
  <circle cx="127.75" style="fill:#FFFFFF;" cy="-5.207" r="0.499"/>
  <circle cx="131.75" style="fill:#FFFFFF;" cy="-9.207" r="0.499"/>
  <circle cx="132.25" style="fill:#FFFFFF;" cy="-15.457" r="0.499"/>
  <circle cx="126" style="fill:#FFFFFF;" cy="-12.207" r="0.499"/>
  <circle cx="122" style="fill:#FFFFFF;" cy="-8.957" r="0.499"/>
  <circle cx="117.5" style="fill:#FFFFFF;" cy="-5.207" r="0.499"/>
  <circle cx="112.25" style="fill:#FFFFFF;" cy="-7.707" r="0.499"/>
  <circle cx="105.5" style="fill:#FFFFFF;" cy="-9.707" r="0.499"/>
  <circle cx="99.75" style="fill:#FFFFFF;" cy="-11.707" r="0.499"/>
  <circle cx="91.75" style="fill:#FFFFFF;" cy="-15.207" r="0.499"/>
  <circle cx="97.5" style="fill:#FFFFFF;" cy="-18.957" r="0.499"/>
  <circle cx="104" style="fill:#FFFFFF;" cy="-16.707" r="0.499"/>
  <circle cx="109.5" style="fill:#FFFFFF;" cy="-13.207" r="0.499"/>
  <circle cx="115.75" style="fill:#FFFFFF;" cy="-12.707" r="0.499"/>
  <circle cx="120.5" style="fill:#FFFFFF;" cy="-16.957" r="0.499"/>
  <circle cx="125.5" style="fill:#FFFFFF;" cy="-19.707" r="0.499"/>
  <circle cx="120" style="fill:#FFFFFF;" cy="-25.207" r="0.499"/>
  <circle cx="116.25" style="fill:#FFFFFF;" cy="-30.207" r="0.499"/>
  <circle cx="109.25" style="fill:#FFFFFF;" cy="-33.457" r="0.499"/>
  <circle cx="104" style="fill:#FFFFFF;" cy="-31.457" r="0.499"/>
  <circle cx="98.25" style="fill:#FFFFFF;" cy="-26.457" r="0.499"/>
  <circle cx="92" style="fill:#FFFFFF;" cy="-22.873" r="0.499"/>
  <circle cx="85.5" style="fill:#FFFFFF;" cy="-24.957" r="0.499"/>
  <circle cx="85.25" style="fill:#FFFFFF;" cy="-29.957" r="0.499"/>
  <circle cx="91.75" style="fill:#FFFFFF;" cy="-28.957" r="0.499"/>
  <circle cx="97.75" style="fill:#FFFFFF;" cy="-32.707" r="0.499"/>
  <circle cx="94" style="fill:#FFFFFF;" cy="-36.957" r="0.499"/>
  <circle cx="88.25" style="fill:#FFFFFF;" cy="-39.457" r="0.499"/>
  <circle cx="81.75" style="fill:#FFFFFF;" cy="-43.207" r="0.499"/>
  <circle cx="77.75" style="fill:#FFFFFF;" cy="-47.207" r="0.499"/>
  <circle cx="73.75" style="fill:#FFFFFF;" cy="-52.707" r="0.499"/>
  <circle cx="104.25" style="fill:#FFFFFF;" cy="-22.457" r="0.499"/>
  <circle cx="107.75" style="fill:#FFFFFF;" cy="-26.707" r="0.499"/>
  <circle cx="109.5" style="fill:#FFFFFF;" cy="-20.957" r="0.499"/>
  <circle cx="114" style="fill:#FFFFFF;" cy="-17.707" r="0.499"/>
  <circle cx="114" style="fill:#FFFFFF;" cy="-23.207" r="0.499"/>
  <circle cx="103.75" style="fill:#FFFFFF;" cy="-37.207" r="0.499"/>
  <circle cx="87.25" style="fill:#FFFFFF;" cy="-18.543" r="0.499"/>
  <circle cx="82.543" style="fill:#FFFFFF;" cy="-21" r="0.499"/>
  <circle cx="74" style="fill:#FFFFFF;" cy="-22.457" r="0.499"/>
  <circle cx="71.5" style="fill:#FFFFFF;" cy="-26.871" r="0.499"/>
  <circle cx="64.75" style="fill:#FFFFFF;" cy="-24.957" r="0.499"/>
  <circle cx="59.75" style="fill:#FFFFFF;" cy="-21.207" r="0.499"/>
  <circle cx="54.043" style="fill:#FFFFFF;" cy="-21.914" r="0.499"/>
  <circle cx="48.75" style="fill:#FFFFFF;" cy="-16.707" r="0.499"/>
  <circle cx="46" style="fill:#FFFFFF;" cy="-10.957" r="0.499"/>
  <circle cx="41.5" style="fill:#FFFFFF;" cy="-7.207" r="0.499"/>
  <circle cx="48.25" style="fill:#FFFFFF;" cy="-2.957" r="0.499"/>
  <circle cx="52" style="fill:#FFFFFF;" cy="-8.707" r="0.499"/>
  <circle cx="57.75" style="fill:#FFFFFF;" cy="-12.457" r="0.499"/>
  <circle cx="52.667" style="fill:#FFFFFF;" cy="-13.707" r="0.499"/>
  <circle cx="63" style="fill:#FFFFFF;" cy="-16.457" r="0.499"/>
  <circle cx="66.5" style="fill:#FFFFFF;" cy="-18.957" r="0.499"/>
  <circle cx="78" style="fill:#FFFFFF;" cy="-16.957" r="0.499"/>
  <circle cx="89" style="fill:#FFFFFF;" cy="-12.207" r="0.499"/>
  <circle cx="95" style="fill:#FFFFFF;" cy="-7.207" r="0.499"/>
  <circle cx="101.365" style="fill:#FFFFFF;" cy="-4.707" r="0.499"/>
  <circle cx="91.5" style="fill:#FFFFFF;" cy="-3.707" r="0.499"/>
  <circle cx="85.75" style="fill:#FFFFFF;" cy="-7.207" r="0.499"/>
  <circle cx="81.25" style="fill:#FFFFFF;" cy="-11.457" r="0.499"/>
  <circle cx="75.25" style="fill:#FFFFFF;" cy="-13.207" r="0.499"/>
  <circle cx="70.25" style="fill:#FFFFFF;" cy="-15.457" r="0.499"/>
  <circle cx="66.5" style="fill:#FFFFFF;" cy="-9.957" r="0.499"/>
  <circle cx="60.25" style="fill:#FFFFFF;" cy="-7.457" r="0.499"/>
  <circle cx="56.587" style="fill:#FFFFFF;" cy="-3.273" r="0.499"/>
  <circle cx="62" style="fill:#FFFFFF;" cy="-3.707" r="0.499"/>
  <circle cx="69.5" style="fill:#FFFFFF;" cy="-4.707" r="0.499"/>
  <circle cx="77.5" style="fill:#FFFFFF;" cy="-7.207" r="0.499"/>
  <circle cx="70" style="fill:#FFFFFF;" cy="-73.207" r="0.499"/>
  <circle cx="81.25" style="fill:#FFFFFF;" cy="-83.707" r="0.499"/>
  <circle cx="74.666" style="fill:#FFFFFF;" cy="-84.874" r="0.499"/>
  <circle cx="85.25" style="fill:#FFFFFF;" cy="-79.707" r="0.499"/>
  <circle cx="90" style="fill:#FFFFFF;" cy="-84.957" r="0.499"/>
  <circle cx="93.75" style="fill:#FFFFFF;" cy="-90.957" r="0.499"/>
  <circle cx="101.75" style="fill:#FFFFFF;" cy="-86.957" r="0.499"/>
  <circle cx="97.75" style="fill:#FFFFFF;" cy="-96.707" r="0.499"/>
  <circle cx="101.25" style="fill:#FFFFFF;" cy="-93.957" r="0.499"/>
  <circle cx="106.75" style="fill:#FFFFFF;" cy="-92.957" r="0.499"/>
  <circle cx="111.793" style="fill:#FFFFFF;" cy="-92.75" r="0.499"/>
  <circle cx="111.25" style="fill:#FFFFFF;" cy="-87.457" r="0.499"/>
  <circle cx="119.25" style="fill:#FFFFFF;" cy="-91.207" r="0.499"/>
  <circle cx="124" style="fill:#FFFFFF;" cy="-92.957" r="0.499"/>
  <circle cx="130" style="fill:#FFFFFF;" cy="-97.457" r="0.499"/>
  <circle cx="136.543" style="fill:#FFFFFF;" cy="-100.333" r="0.499"/>
  <circle cx="142.667" style="fill:#FFFFFF;" cy="-103.374" r="0.499"/>
  <circle cx="139.5" style="fill:#FFFFFF;" cy="-93.207" r="0.499"/>
  <circle cx="142.667" style="fill:#FFFFFF;" cy="-89.374" r="0.499"/>
  <circle cx="138.25" style="fill:#FFFFFF;" cy="-86.457" r="0.499"/>
  <circle cx="142.667" style="fill:#FFFFFF;" cy="-84.04" r="0.499"/>
  <circle cx="131.5" style="fill:#FFFFFF;" cy="-90.957" r="0.499"/>
  <circle cx="128" style="fill:#FFFFFF;" cy="-88.957" r="0.499"/>
  <circle cx="125.333" style="fill:#FFFFFF;" cy="-83.707" r="0.499"/>
  <circle cx="121.75" style="fill:#FFFFFF;" cy="-86.707" r="0.499"/>
  <circle cx="117.75" style="fill:#FFFFFF;" cy="-82.957" r="0.499"/>
  <circle cx="112" style="fill:#FFFFFF;" cy="-80.207" r="0.499"/>
  <circle cx="106.25" style="fill:#FFFFFF;" cy="-84.207" r="0.499"/>
  <circle cx="97" style="fill:#FFFFFF;" cy="-86.207" r="0.499"/>
  <circle cx="92.75" style="fill:#FFFFFF;" cy="-81.707" r="0.499"/>
  <circle cx="87.75" style="fill:#FFFFFF;" cy="-75.207" r="0.499"/>
  <circle cx="85" style="fill:#FFFFFF;" cy="-71.207" r="0.499"/>
  <circle cx="82" style="fill:#FFFFFF;" cy="-65.457" r="0.499"/>
  <circle cx="88" style="fill:#FFFFFF;" cy="-60.457" r="0.499"/>
  <circle cx="91.333" style="fill:#FFFFFF;" cy="-62.707" r="0.499"/>
  <circle cx="96" style="fill:#FFFFFF;" cy="-65.207" r="0.499"/>
  <circle cx="89.75" style="fill:#FFFFFF;" cy="-67.707" r="0.499"/>
  <circle cx="92" style="fill:#FFFFFF;" cy="-72.957" r="0.499"/>
  <circle cx="95.25" style="fill:#FFFFFF;" cy="-78.207" r="0.499"/>
  <circle cx="101.75" style="fill:#FFFFFF;" cy="-73.207" r="0.499"/>
  <circle cx="97.5" style="fill:#FFFFFF;" cy="-68.957" r="0.499"/>
  <circle cx="105.707" style="fill:#FFFFFF;" cy="-66.664" r="0.499"/>
  <circle cx="100.75" style="fill:#FFFFFF;" cy="-61.457" r="0.499"/>
  <circle cx="107.75" style="fill:#FFFFFF;" cy="-61.207" r="0.499"/>
  <circle cx="104.957" style="fill:#FFFFFF;" cy="-57.664" r="0.499"/>
  <circle cx="111.25" style="fill:#FFFFFF;" cy="-54.957" r="0.499"/>
  <circle cx="117.25" style="fill:#FFFFFF;" cy="-53.457" r="0.499"/>
  <circle cx="124" style="fill:#FFFFFF;" cy="-56.957" r="0.499"/>
  <circle cx="130.25" style="fill:#FFFFFF;" cy="-54.957" r="0.499"/>
  <circle cx="136.75" style="fill:#FFFFFF;" cy="-50.957" r="0.499"/>
  <circle cx="141.5" style="fill:#FFFFFF;" cy="-51.207" r="0.499"/>
  <circle cx="142.75" style="fill:#FFFFFF;" cy="-46.707" r="0.499"/>
  <circle cx="139.75" style="fill:#FFFFFF;" cy="-41.207" r="0.499"/>
  <circle cx="132.333" style="fill:#FFFFFF;" cy="-43.707" r="0.499"/>
  <circle cx="135.75" style="fill:#FFFFFF;" cy="-45.457" r="0.499"/>
  <circle cx="128" style="fill:#FFFFFF;" cy="-47.207" r="0.499"/>
  <circle cx="123.25" style="fill:#FFFFFF;" cy="-50.707" r="0.499"/>
  <circle cx="120.25" style="fill:#FFFFFF;" cy="-45.207" r="0.499"/>
  <circle cx="113.75" style="fill:#FFFFFF;" cy="-47.457" r="0.499"/>
  <circle cx="109.5" style="fill:#FFFFFF;" cy="-47.707" r="0.499"/>
  <circle cx="104" style="fill:#FFFFFF;" cy="-50.957" r="0.499"/>
  <circle cx="98" style="fill:#FFFFFF;" cy="-55.207" r="0.499"/>
  <circle cx="92.25" style="fill:#FFFFFF;" cy="-52.457" r="0.499"/>
  <circle cx="94.333" style="fill:#FFFFFF;" cy="-57.707" r="0.499"/>
  <circle cx="81.5" style="fill:#FFFFFF;" cy="-59.707" r="0.499"/>
  <circle cx="73.75" style="fill:#FFFFFF;" cy="-67.207" r="0.499"/>
  <circle cx="73.25" style="fill:#FFFFFF;" cy="-61.207" r="0.499"/>
  <circle cx="69.666" style="fill:#FFFFFF;" cy="-54.375" r="0.499"/>
  <circle cx="76.25" style="fill:#FFFFFF;" cy="-71.707" r="0.499"/>
  <circle cx="79.666" style="fill:#FFFFFF;" cy="-75.707" r="0.499"/>
  <circle cx="102" style="fill:#FFFFFF;" cy="-81.207" r="0.499"/>
  <circle cx="105" style="fill:#FFFFFF;" cy="-78.457" r="0.499"/>
  <circle cx="110" style="fill:#FFFFFF;" cy="-69.707" r="0.499"/>
  <circle cx="114.75" style="fill:#FFFFFF;" cy="-73.707" r="0.499"/>
  <circle cx="117.5" style="fill:#FFFFFF;" cy="-76.957" r="0.499"/>
  <circle cx="121.75" style="fill:#FFFFFF;" cy="-79.207" r="0.499"/>
  <circle cx="129.75" style="fill:#FFFFFF;" cy="-79.707" r="0.499"/>
  <circle cx="133.75" style="fill:#FFFFFF;" cy="-83.457" r="0.499"/>
  <circle cx="138.298" style="fill:#FFFFFF;" cy="-80.039" r="0.499"/>
  <circle cx="136" style="fill:#FFFFFF;" cy="-75.207" r="0.499"/>
  <circle cx="143" style="fill:#FFFFFF;" cy="-73.457" r="0.499"/>
  <circle cx="141.75" style="fill:#FFFFFF;" cy="-67.707" r="0.499"/>
  <circle cx="143.333" style="fill:#FFFFFF;" cy="-56.04" r="0.499"/>
  <circle cx="132" style="fill:#FFFFFF;" cy="-71.457" r="0.499"/>
  <circle cx="125" style="fill:#FFFFFF;" cy="-75.707" r="0.499"/>
  <circle cx="121.5" style="fill:#FFFFFF;" cy="-71.207" r="0.499"/>
  <circle cx="116.25" style="fill:#FFFFFF;" cy="-67.207" r="0.499"/>
  <circle cx="111" style="fill:#FFFFFF;" cy="-63.207" r="0.499"/>
  <circle cx="117.75" style="fill:#FFFFFF;" cy="-61.207" r="0.499"/>
  <circle cx="114.333" style="fill:#FFFFFF;" cy="-57.707" r="0.499"/>
  <circle cx="90.333" style="fill:#FFFFFF;" cy="-49.375" r="0.499"/>
  <circle cx="123" style="fill:#FFFFFF;" cy="-65.457" r="0.499"/>
  <circle cx="127.75" style="fill:#FFFFFF;" cy="-68.707" r="0.499"/>
  <circle cx="132.75" style="fill:#FFFFFF;" cy="-62.957" r="0.499"/>
  <circle cx="136.25" style="fill:#FFFFFF;" cy="-65.957" r="0.499"/>
  <circle cx="128.5" style="fill:#FFFFFF;" cy="-60.707" r="0.499"/>
  <circle cx="135.5" style="fill:#FFFFFF;" cy="-56.957" r="0.499"/>
  <circle cx="140.25" style="fill:#FFFFFF;" cy="-58.707" r="0.499"/>
  <circle cx="82.25" style="fill:#FFFFFF;" cy="-89.207" r="0.499"/>
  <circle cx="89.25" style="fill:#FFFFFF;" cy="-93.207" r="0.499"/>
  <circle cx="71.666" style="fill:#FFFFFF;" cy="-79.04" r="0.499"/>
  <circle cx="65.333" style="fill:#FFFFFF;" cy="-78.207" r="0.499"/>
  <circle cx="45.5" style="fill:#FFFFFF;" cy="-77.207" r="0.499"/>
  <circle cx="52.167" style="fill:#FFFFFF;" cy="-70.624" r="0.499"/>
  <circle cx="33" style="fill:#FFFFFF;" cy="-67.04" r="0.499"/>
  <circle cx="32" style="fill:#FFFFFF;" cy="-62.04" r="0.499"/>
  <circle cx="68.774" style="fill:#FFFFFF;" cy="-85.962" r="0.499"/>
  <circle cx="75.75" style="fill:#FFFFFF;" cy="-96.457" r="0.499"/>
  <circle cx="70" style="fill:#FFFFFF;" cy="-94.457" r="0.499"/>
  <circle cx="66.25" style="fill:#FFFFFF;" cy="-90.457" r="0.499"/>
  <circle cx="60" style="fill:#FFFFFF;" cy="-88.957" r="0.499"/>
  <circle cx="55.75" style="fill:#FFFFFF;" cy="-84.457" r="0.499"/>
  <circle cx="50.75" style="fill:#FFFFFF;" cy="-81.621" r="0.499"/>
  <circle cx="50" style="fill:#FFFFFF;" cy="-88.707" r="0.499"/>
  <circle cx="41.167" style="fill:#FFFFFF;" cy="-82.624" r="0.499"/>
  <circle cx="78.333" style="fill:#FFFFFF;" cy="-105.04" r="0.499"/>
  <circle cx="72.793" style="fill:#FFFFFF;" cy="-102.25" r="0.499"/>
  <circle cx="66" style="fill:#FFFFFF;" cy="-102.374" r="0.499"/>
  <circle cx="64" style="fill:#FFFFFF;" cy="-96.707" r="0.499"/>
  <circle cx="68.959" style="fill:#FFFFFF;" cy="-99" r="0.499"/>
  <circle cx="58.25" style="fill:#FFFFFF;" cy="-95.207" r="0.499"/>
  <circle cx="54.667" style="fill:#FFFFFF;" cy="-91.04" r="0.499"/>
  <circle cx="60.667" style="fill:#FFFFFF;" cy="-101.04" r="0.499"/>
  <circle cx="55.333" style="fill:#FFFFFF;" cy="-99.36" r="0.499"/>
  <circle cx="50" style="fill:#FFFFFF;" cy="-95.04" r="0.499"/>
  <circle cx="43.5" style="fill:#FFFFFF;" cy="-92.457" r="0.499"/>
  <circle cx="37.667" style="fill:#FFFFFF;" cy="-88.374" r="0.499"/>
  <circle cx="30.667" style="fill:#FFFFFF;" cy="-91.124" r="0.499"/>
  <circle cx="21" style="fill:#FFFFFF;" cy="-90.207" r="0.499"/>
  <circle cx="16" style="fill:#FFFFFF;" cy="-93.457" r="0.499"/>
  <circle cx="8" style="fill:#FFFFFF;" cy="-97.707" r="0.499"/>
  <circle cx="3" style="fill:#FFFFFF;" cy="-93.04" r="0.499"/>
  <circle cx="7.75" style="fill:#FFFFFF;" cy="-91.207" r="0.499"/>
  <circle cx="5.75" style="fill:#FFFFFF;" cy="-86.957" r="0.499"/>
  <circle cx="13.75" style="fill:#FFFFFF;" cy="-86.957" r="0.499"/>
  <circle cx="20" style="fill:#FFFFFF;" cy="-85.207" r="0.499"/>
  <circle cx="26" style="fill:#FFFFFF;" cy="-82.957" r="0.499"/>
  <circle cx="34.333" style="fill:#FFFFFF;" cy="-84.54" r="0.499"/>
  <circle cx="38" style="fill:#FFFFFF;" cy="-94.04" r="0.499"/>
  <circle cx="45" style="fill:#FFFFFF;" cy="-99.457" r="0.499"/>
  <circle cx="38.333" style="fill:#FFFFFF;" cy="-100.707" r="0.499"/>
  <circle cx="42.5" style="fill:#FFFFFF;" cy="-103.207" r="0.499"/>
  <circle cx="32.667" style="fill:#FFFFFF;" cy="-100.374" r="0.499"/>
  <circle cx="26" style="fill:#FFFFFF;" cy="-101.04" r="0.499"/>
  <circle cx="8" style="fill:#FFFFFF;" cy="-103.374" r="0.499"/>
  <circle cx="2" style="fill:#FFFFFF;" cy="-100.374" r="0.499"/>
  <circle cx="137.333" style="fill:#FFFFFF;" cy="-130.707" r="0.499"/>
  <circle cx="136.667" style="fill:#FFFFFF;" cy="-136.374" r="0.499"/>
  <circle cx="143" style="fill:#FFFFFF;" cy="-134.04" r="0.499"/>
  <circle cx="131" style="fill:#FFFFFF;" cy="-143.707" r="0.499"/>
  <circle cx="137.333" style="fill:#FFFFFF;" cy="-141.374" r="0.499"/>
  <circle cx="143" style="fill:#FFFFFF;" cy="-140.374" r="0.499"/>
  <circle cx="75.801" style="fill:#FFFFFF;" cy="-2.707" r="0.499"/>
  <circle cx="83.702" style="fill:#FFFFFF;" cy="-3.273" r="0.499"/>
  <circle cx="54" style="fill:#FFFFFF;" cy="-119.957" r="0.499"/>
  <circle cx="51.626" style="fill:#FFFFFF;" cy="-124.333" r="0.499"/>
  <circle cx="5.333" style="fill:#FFFFFF;" cy="-143.04" r="0.499"/>
 </g>
</svg>
