<?xml version="1.0" encoding="utf-8"?>
<svg xmlns="http://www.w3.org/2000/svg" version="1.1" x="0px" y="0px" xml:space="preserve" width="144" height="144" viewBox="1 -145 144 144">
	<g>
		<rect x="1" y="-145" style="fill:none;" width="144" height="144"/>
		<circle cx="12.96" cy="-143" r="0.449"/>
		<circle cx="18.333" cy="-141.79" r="0.449"/>
		<circle cx="26.667" cy="-143.707" r="0.449"/>
		<circle cx="16" cy="-137.04" r="0.449"/>
		<circle cx="10" cy="-139.04" r="0.449"/>
		<circle cx="2.333" cy="-137.04" r="0.449"/>
		<circle cx="8.333" cy="-133.374" r="0.449"/>
		<circle cx="13.667" cy="-131.04" r="0.449"/>
		<circle cx="20" cy="-128.707" r="0.449"/>
		<circle cx="23" cy="-136.374" r="0.449"/>
		<circle cx="29" cy="-136.04" r="0.449"/>
		<circle cx="33.333" cy="-141.04" r="0.449"/>
		<circle cx="39.667" cy="-142.707" r="0.449"/>
		<circle cx="43.667" cy="-140.374" r="0.449"/>
		<circle cx="50.5" cy="-139.957" r="0.449"/>
		<circle cx="54" cy="-143.707" r="0.449"/>
		<circle cx="57.667" cy="-139.04" r="0.449"/>
		<circle cx="53.667" cy="-134.707" r="0.449"/>
		<circle cx="50" cy="-128.707" r="0.449"/>
		<circle cx="46.333" cy="-122.707" r="0.449"/>
		<circle cx="42.75" cy="-128.457" r="0.449"/>
		<circle cx="46.75" cy="-134.707" r="0.449"/>
		<circle cx="45" cy="-117.207" r="0.449"/>
		<circle cx="40.667" cy="-132.04" r="0.449"/>
		<circle cx="37" cy="-126.707" r="0.449"/>
		<circle cx="31.667" cy="-127.04" r="0.449"/>
		<circle cx="30" cy="-123.04" r="0.449"/>
		<circle cx="24.333" cy="-124.707" r="0.449"/>
		<circle cx="24" cy="-118.374" r="0.449"/>
		<circle cx="22" cy="-111.04" r="0.449"/>
		<circle cx="20.333" cy="-104.707" r="0.449"/>
		<circle cx="20.667" cy="-100.04" r="0.449"/>
		<circle cx="14.333" cy="-98.707" r="0.449"/>
		<circle cx="15" cy="-104.707" r="0.449"/>
		<circle cx="16" cy="-110.374" r="0.449"/>
		<circle cx="16.667" cy="-117.374" r="0.449"/>
		<circle cx="18" cy="-122.707" r="0.449"/>
		<circle cx="11.667" cy="-123.707" r="0.449"/>
		<circle cx="6.333" cy="-127.707" r="0.449"/>
		<circle cx="2.667" cy="-130.04" r="0.449"/>
		<circle cx="3.667" cy="-120.374" r="0.449"/>
		<circle cx="9.667" cy="-116.707" r="0.449"/>
		<circle cx="7.667" cy="-110.707" r="0.449"/>
		<circle cx="4" cy="-108.707" r="0.449"/>
		<circle cx="3.333" cy="-114.707" r="0.449"/>
		<circle cx="27.667" cy="-114.707" r="0.449"/>
		<circle cx="35.667" cy="-120.374" r="0.449"/>
		<circle cx="40" cy="-120.374" r="0.449"/>
		<circle cx="39" cy="-112.707" r="0.449"/>
		<circle cx="34.75" cy="-114.207" r="0.449"/>
		<circle cx="38.667" cy="-108.374" r="0.449"/>
		<circle cx="32" cy="-106.707" r="0.449"/>
		<circle cx="27.333" cy="-109.04" r="0.449"/>
		<circle cx="27" cy="-130.707" r="0.449"/>
		<circle cx="34.333" cy="-132.04" r="0.449"/>
		<circle cx="37" cy="-136.374" r="0.449"/>
		<circle cx="63" cy="-142.374" r="0.449"/>
		<circle cx="68.666" cy="-143.374" r="0.449"/>
		<circle cx="70" cy="-138.707" r="0.449"/>
		<circle cx="75" cy="-143.082" r="0.449"/>
		<circle cx="81.666" cy="-143.374" r="0.449"/>
		<circle cx="65.25" cy="-134.707" r="0.449"/>
		<circle cx="59" cy="-134.707" r="0.449"/>
		<circle cx="56.667" cy="-123.707" r="0.449"/>
		<circle cx="60.333" cy="-129.457" r="0.449"/>
		<circle cx="56" cy="-130.707" r="0.449"/>
		<circle cx="69.333" cy="-132.04" r="0.449"/>
		<circle cx="75.333" cy="-135.707" r="0.449"/>
		<circle cx="82" cy="-139.04" r="0.449"/>
		<circle cx="87.666" cy="-141.374" r="0.449"/>
		<circle cx="94" cy="-143.374" r="0.449"/>
		<circle cx="101.666" cy="-143.04" r="0.449"/>
		<circle cx="93.333" cy="-136.457" r="0.449"/>
		<circle cx="87.043" cy="-135.25" r="0.449"/>
		<circle cx="82.667" cy="-130.124" r="0.449"/>
		<circle cx="77.666" cy="-131.707" r="0.449"/>
		<circle cx="76.5" cy="-126.707" r="0.449"/>
		<circle cx="70" cy="-122.457" r="0.449"/>
		<circle cx="63.667" cy="-120.707" r="0.449"/>
		<circle cx="57.667" cy="-118.04" r="0.449"/>
		<circle cx="68" cy="-116.454" r="0.449"/>
		<circle cx="60.333" cy="-115.374" r="0.449"/>
		<circle cx="56.333" cy="-110.707" r="0.449"/>
		<circle cx="51.333" cy="-115.04" r="0.449"/>
		<circle cx="51" cy="-108.04" r="0.449"/>
		<circle cx="47" cy="-110.207" r="0.449"/>
		<circle cx="50.333" cy="-103.374" r="0.449"/>
		<circle cx="56" cy="-104.707" r="0.449"/>
		<circle cx="62.707" cy="-107.414" r="0.449"/>
		<circle cx="67" cy="-109.04" r="0.449"/>
		<circle cx="65.333" cy="-112.374" r="0.449"/>
		<circle cx="72.333" cy="-110.04" r="0.449"/>
		<circle cx="73.333" cy="-115.04" r="0.449"/>
		<circle cx="76.333" cy="-119.707" r="0.449"/>
		<circle cx="81.666" cy="-123.374" r="0.449"/>
		<circle cx="87" cy="-126.04" r="0.449"/>
		<circle cx="89.626" cy="-130.747" r="0.45"/>
		<circle cx="97.166" cy="-132.624" r="0.449"/>
		<circle cx="99.166" cy="-138.624" r="0.449"/>
		<circle cx="107.333" cy="-142.04" r="0.449"/>
		<circle cx="114" cy="-143.707" r="0.449"/>
		<circle cx="125.333" cy="-143.707" r="0.449"/>
		<circle cx="119" cy="-141.04" r="0.449"/>
		<circle cx="116" cy="-135.124" r="0.449"/>
		<circle cx="109.25" cy="-134.457" r="0.449"/>
		<circle cx="129.333" cy="-124.457" r="0.449"/>
		<circle cx="102.666" cy="-131.624" r="0.449"/>
		<circle cx="65.333" cy="-127.124" r="0.449"/>
		<circle cx="71.333" cy="-128.04" r="0.449"/>
		<circle cx="105.666" cy="-137.374" r="0.449"/>
		<circle cx="92.374" cy="-125.414" r="0.449"/>
		<circle cx="87.666" cy="-120.54" r="0.45"/>
		<circle cx="82.333" cy="-116.707" r="0.449"/>
		<circle cx="78.333" cy="-111.04" r="0.449"/>
		<circle cx="84.667" cy="-107.79" r="0.449"/>
		<circle cx="87" cy="-113.04" r="0.449"/>
		<circle cx="98" cy="-121.124" r="0.449"/>
		<circle cx="101.666" cy="-126.121" r="0.449"/>
		<circle cx="97.333" cy="-128.707" r="0.449"/>
		<circle cx="107.666" cy="-128.789" r="0.449"/>
		<circle cx="114" cy="-129.79" r="0.449"/>
		<circle cx="120" cy="-133.04" r="0.449"/>
		<circle cx="123.666" cy="-138.04" r="0.449"/>
		<circle cx="131.667" cy="-136.707" r="0.449"/>
		<circle cx="128.667" cy="-139.374" r="0.449"/>
		<circle cx="126" cy="-133.374" r="0.449"/>
		<circle cx="120.333" cy="-128.707" r="0.449"/>
		<circle cx="114" cy="-122.707" r="0.449"/>
		<circle cx="107.666" cy="-123.04" r="0.449"/>
		<circle cx="95.666" cy="-116.707" r="0.449"/>
		<circle cx="95.333" cy="-110.04" r="0.449"/>
		<circle cx="90.5" cy="-111.207" r="0.449"/>
		<circle cx="90.75" cy="-103.707" r="0.449"/>
		<circle cx="131.333" cy="-131.374" r="0.449"/>
		<circle cx="125.626" cy="-127.414" r="0.449"/>
		<circle cx="121" cy="-122.124" r="0.449"/>
		<circle cx="115.333" cy="-117.707" r="0.449"/>
		<circle cx="110" cy="-117.374" r="0.449"/>
		<circle cx="106" cy="-113.04" r="0.449"/>
		<circle cx="100.666" cy="-107.707" r="0.449"/>
		<circle cx="106.333" cy="-106.707" r="0.449"/>
		<circle cx="110.666" cy="-111.04" r="0.449"/>
		<circle cx="116" cy="-111.374" r="0.449"/>
		<circle cx="125" cy="-119.124" r="0.449"/>
		<circle cx="136.667" cy="-125.457" r="0.449"/>
		<circle cx="133" cy="-121.04" r="0.449"/>
		<circle cx="144" cy="-125.374" r="0.449"/>
		<circle cx="138" cy="-121.04" r="0.449"/>
		<circle cx="134" cy="-116.707" r="0.449"/>
		<circle cx="140" cy="-114.707" r="0.449"/>
		<circle cx="143" cy="-119.04" r="0.449"/>
		<circle cx="127.666" cy="-114.707" r="0.449"/>
		<circle cx="122.25" cy="-112.957" r="0.449"/>
		<circle cx="123.5" cy="-108.707" r="0.449"/>
		<circle cx="118" cy="-107.207" r="0.449"/>
		<circle cx="129.667" cy="-110.04" r="0.449"/>
		<circle cx="136" cy="-109.04" r="0.449"/>
		<circle cx="142.333" cy="-109.04" r="0.449"/>
		<circle cx="138" cy="-105.374" r="0.449"/>
		<circle cx="132" cy="-105.04" r="0.449"/>
		<circle cx="126" cy="-102.707" r="0.449"/>
		<circle cx="119.333" cy="-102.707" r="0.449"/>
		<circle cx="121.666" cy="-98.707" r="0.449"/>
		<circle cx="135" cy="-95.707" r="0.449"/>
		<circle cx="104" cy="-117.454" r="0.449"/>
		<circle cx="110.666" cy="-138.707" r="0.449"/>
		<circle cx="116.5" cy="-95.707" r="0.449"/>
		<circle cx="112.5" cy="-104.707" r="0.449"/>
		<circle cx="106.5" cy="-99.957" r="0.449"/>
		<circle cx="110.333" cy="-97.04" r="0.449"/>
		<circle cx="115" cy="-100.707" r="0.449"/>
		<circle cx="101.666" cy="-101.374" r="0.449"/>
		<circle cx="95.333" cy="-103.04" r="0.449"/>
		<circle cx="89.666" cy="-99.04" r="0.449"/>
		<circle cx="83.626" cy="-102.082" r="0.449"/>
		<circle cx="81.25" cy="-97.707" r="0.449"/>
		<circle cx="84.666" cy="-93.707" r="0.449"/>
		<circle cx="75.334" cy="-91.207" r="0.449"/>
		<circle cx="63.333" cy="-83.874" r="0.449"/>
		<circle cx="55" cy="-77.957" r="0.449"/>
		<circle cx="38.667" cy="-77.624" r="0.449"/>
		<circle cx="46.667" cy="-85.789" r="0.449"/>
		<circle cx="29.333" cy="-86.54" r="0.45"/>
		<circle cx="24.333" cy="-93.874" r="0.449"/>
		<circle cx="48.167" cy="-72.624" r="0.449"/>
		<circle cx="44" cy="-65.707" r="0.449"/>
		<circle cx="49.25" cy="-61.457" r="0.449"/>
		<circle cx="39" cy="-64.79" r="0.449"/>
		<circle cx="27.667" cy="-34.707" r="0.449"/>
		<circle cx="37.333" cy="-60.121" r="0.449"/>
		<circle cx="28" cy="-67.207" r="0.449"/>
		<circle cx="20.5" cy="-71.207" r="0.449"/>
		<circle cx="21.5" cy="-79.707" r="0.449"/>
		<circle cx="10.75" cy="-76.207" r="0.449"/>
		<circle cx="4.25" cy="-79.207" r="0.449"/>
		<circle cx="11.75" cy="-81.707" r="0.449"/>
		<circle cx="16" cy="-78.457" r="0.449"/>
		<circle cx="26.707" cy="-73.664" r="0.449"/>
		<circle cx="31.75" cy="-74.957" r="0.449"/>
		<circle cx="27.75" cy="-79.457" r="0.449"/>
		<circle cx="34" cy="-79.707" r="0.449"/>
		<circle cx="35" cy="-71.707" r="0.449"/>
		<circle cx="41.333" cy="-72.124" r="0.449"/>
		<circle cx="50.25" cy="-65.207" r="0.449"/>
		<circle cx="59" cy="-73.871" r="0.449"/>
		<circle cx="64.75" cy="-68.957" r="0.449"/>
		<circle cx="62.75" cy="-64.957" r="0.449"/>
		<circle cx="67.75" cy="-63.457" r="0.449"/>
		<circle cx="68.5" cy="-59.207" r="0.449"/>
		<circle cx="66.25" cy="-52.957" r="0.449"/>
		<circle cx="65.5" cy="-47.707" r="0.449"/>
		<circle cx="68.75" cy="-40.457" r="0.449"/>
		<circle cx="73" cy="-46.371" r="0.449"/>
		<circle cx="77.25" cy="-40.707" r="0.449"/>
		<circle cx="73.25" cy="-35.707" r="0.449"/>
		<circle cx="86" cy="-35.207" r="0.449"/>
		<circle cx="79.75" cy="-35.457" r="0.449"/>
		<circle cx="75.75" cy="-28.957" r="0.449"/>
		<circle cx="68" cy="-30.957" r="0.449"/>
		<circle cx="65.75" cy="-36.707" r="0.449"/>
		<circle cx="62.75" cy="-41.207" r="0.449"/>
		<circle cx="60.5" cy="-46.957" r="0.449"/>
		<circle cx="59" cy="-52.375" r="0.449"/>
		<circle cx="62.25" cy="-57.457" r="0.449"/>
		<circle cx="55.333" cy="-62.375" r="0.449"/>
		<circle cx="57" cy="-68.79" r="0.449"/>
		<circle cx="56.5" cy="-58.207" r="0.449"/>
		<circle cx="51.75" cy="-55.207" r="0.449"/>
		<circle cx="53.75" cy="-49.207" r="0.449"/>
		<circle cx="54" cy="-43.04" r="0.449"/>
		<circle cx="56.667" cy="-37.375" r="0.449"/>
		<circle cx="59" cy="-33.707" r="0.449"/>
		<circle cx="61.25" cy="-29.957" r="0.449"/>
		<circle cx="58.5" cy="-25.457" r="0.449"/>
		<circle cx="51" cy="-25.707" r="0.449"/>
		<circle cx="46" cy="-30.957" r="0.449"/>
		<circle cx="42" cy="-26.957" r="0.449"/>
		<circle cx="99.666" cy="-113.374" r="0.449"/>
		<circle cx="35.5" cy="-17.957" r="0.449"/>
		<circle cx="41.75" cy="-19.207" r="0.449"/>
		<circle cx="43.667" cy="-14.707" r="0.449"/>
		<circle cx="47.5" cy="-20.957" r="0.449"/>
		<circle cx="38" cy="-13.123" r="0.449"/>
		<circle cx="33.5" cy="-5.207" r="0.449"/>
		<circle cx="30.667" cy="-10.123" r="0.449"/>
		<circle cx="24" cy="-5.207" r="0.449"/>
		<circle cx="21.043" cy="-9.664" r="0.449"/>
		<circle cx="26" cy="-12.957" r="0.449"/>
		<circle cx="28" cy="-18.707" r="0.449"/>
		<circle cx="30" cy="-15.373" r="0.449"/>
		<circle cx="36.667" cy="-7.373" r="0.449"/>
		<circle cx="40" cy="-3.041" r="0.449"/>
		<circle cx="18.5" cy="-2.207" r="0.449"/>
		<circle cx="29" cy="-2.84" r="0.449"/>
		<circle cx="20" cy="-23.207" r="0.449"/>
		<circle cx="23" cy="-18.957" r="0.449"/>
		<circle cx="15.75" cy="-18.957" r="0.449"/>
		<circle cx="10.5" cy="-20.707" r="0.449"/>
		<circle cx="5.5" cy="-17.457" r="0.449"/>
		<circle cx="9.75" cy="-13.207" r="0.449"/>
		<circle cx="17.25" cy="-13.207" r="0.449"/>
		<circle cx="15.5" cy="-7.207" r="0.449"/>
		<circle cx="10" cy="-6.957" r="0.449"/>
		<circle cx="5.5" cy="-9.457" r="0.449"/>
		<circle cx="2" cy="-5.207" r="0.449"/>
		<circle cx="8.269" cy="-2.59" r="0.449"/>
		<circle cx="31" cy="-96.207" r="0.449"/>
		<circle cx="27.667" cy="-25.124" r="0.45"/>
		<circle cx="23.333" cy="-28.707" r="0.449"/>
		<circle cx="20" cy="-44.707" r="0.449"/>
		<circle cx="20" cy="-52.375" r="0.449"/>
		<circle cx="29.333" cy="-30.375" r="0.449"/>
		<circle cx="34" cy="-24.457" r="0.449"/>
		<circle cx="32.333" cy="-38.375" r="0.449"/>
		<circle cx="43.333" cy="-24.041" r="0.449"/>
		<circle cx="38.333" cy="-34.375" r="0.449"/>
		<circle cx="43.75" cy="-36.957" r="0.449"/>
		<circle cx="43" cy="-43.457" r="0.449"/>
		<circle cx="32.167" cy="-44.625" r="0.449"/>
		<circle cx="37.75" cy="-39.207" r="0.449"/>
		<circle cx="35.667" cy="-30.375" r="0.449"/>
		<circle cx="31.167" cy="-51.125" r="0.449"/>
		<circle cx="37" cy="-46.457" r="0.449"/>
		<circle cx="42.333" cy="-51.457" r="0.449"/>
		<circle cx="47.75" cy="-46.371" r="0.449"/>
		<circle cx="47.75" cy="-51.207" r="0.449"/>
		<circle cx="43.5" cy="-58.371" r="0.449"/>
		<circle cx="37" cy="-55.207" r="0.449"/>
		<circle cx="31.5" cy="-57.207" r="0.449"/>
		<circle cx="26.5" cy="-61.664" r="0.449"/>
		<circle cx="22" cy="-64.957" r="0.449"/>
		<circle cx="14.5" cy="-65.207" r="0.449"/>
		<circle cx="15" cy="-69.707" r="0.449"/>
		<circle cx="10.25" cy="-69.207" r="0.449"/>
		<circle cx="4" cy="-71.457" r="0.449"/>
		<circle cx="6" cy="-65.207" r="0.449"/>
		<circle cx="8" cy="-60.957" r="0.449"/>
		<circle cx="11.5" cy="-54.957" r="0.449"/>
		<circle cx="15.25" cy="-50.957" r="0.449"/>
		<circle cx="25.75" cy="-45.207" r="0.449"/>
		<circle cx="26" cy="-39.207" r="0.449"/>
		<circle cx="20.543" cy="-40" r="0.449"/>
		<circle cx="15.75" cy="-42.957" r="0.449"/>
		<circle cx="12" cy="-46.957" r="0.449"/>
		<circle cx="7.75" cy="-50.957" r="0.449"/>
		<circle cx="4" cy="-54.957" r="0.449"/>
		<circle cx="15.75" cy="-59.207" r="0.449"/>
		<circle cx="21" cy="-59.04" r="0.449"/>
		<circle cx="25.333" cy="-49.707" r="0.449"/>
		<circle cx="25.667" cy="-55.375" r="0.449"/>
		<circle cx="15.793" cy="-33.25" r="0.449"/>
		<circle cx="10" cy="-30.707" r="0.449"/>
		<circle cx="6" cy="-24.707" r="0.449"/>
		<circle cx="2.317" cy="-27.207" r="0.449"/>
		<circle cx="13.043" cy="-27.664" r="0.449"/>
		<circle cx="19" cy="-28.457" r="0.449"/>
		<circle cx="22.25" cy="-33.207" r="0.449"/>
		<circle cx="11.75" cy="-36.957" r="0.449"/>
		<circle cx="7.5" cy="-40.707" r="0.449"/>
		<circle cx="3.5" cy="-45.207" r="0.449"/>
		<circle cx="5.5" cy="-35.207" r="0.449"/>
		<circle cx="53.5" cy="-30.707" r="0.449"/>
		<circle cx="51.5" cy="-34.457" r="0.449"/>
		<circle cx="48.25" cy="-40.207" r="0.449"/>
		<circle cx="79.25" cy="-56.207" r="0.449"/>
		<circle cx="81.75" cy="-51.207" r="0.449"/>
		<circle cx="87.333" cy="-54.375" r="0.449"/>
		<circle cx="86" cy="-46.04" r="0.449"/>
		<circle cx="92" cy="-42.957" r="0.449"/>
		<circle cx="97.75" cy="-46.957" r="0.449"/>
		<circle cx="99.293" cy="-41.664" r="0.449"/>
		<circle cx="104" cy="-45.457" r="0.449"/>
		<circle cx="110" cy="-40.707" r="0.449"/>
		<circle cx="116.666" cy="-41.625" r="0.449"/>
		<circle cx="119.75" cy="-37.207" r="0.449"/>
		<circle cx="126.333" cy="-41.54" r="0.45"/>
		<circle cx="132.25" cy="-34.957" r="0.449"/>
		<circle cx="139.75" cy="-34.957" r="0.449"/>
		<circle cx="143.667" cy="-37.375" r="0.449"/>
		<circle cx="143.333" cy="-31.04" r="0.449"/>
		<circle cx="143.683" cy="-23.258" r="0.449"/>
		<circle cx="138" cy="-27.457" r="0.449"/>
		<circle cx="132.25" cy="-30.457" r="0.449"/>
		<circle cx="124.666" cy="-34.207" r="0.449"/>
		<circle cx="113.75" cy="-35.957" r="0.449"/>
		<circle cx="125.75" cy="-26.957" r="0.449"/>
		<circle cx="132" cy="-23.207" r="0.449"/>
		<circle cx="138.5" cy="-20.957" r="0.449"/>
		<circle cx="144" cy="-17.207" r="0.449"/>
		<circle cx="137.75" cy="-14.707" r="0.449"/>
		<circle cx="143.25" cy="-9.457" r="0.449"/>
		<circle cx="109.028" cy="-2.607" r="0.449"/>
		<circle cx="136.667" cy="-2.373" r="0.449"/>
		<circle cx="122.631" cy="-2.607" r="0.449"/>
		<circle cx="140" cy="-7.207" r="0.449"/>
		<circle cx="127.75" cy="-5.207" r="0.449"/>
		<circle cx="131.75" cy="-9.207" r="0.449"/>
		<circle cx="132.25" cy="-15.457" r="0.449"/>
		<circle cx="126" cy="-12.207" r="0.449"/>
		<circle cx="122" cy="-8.957" r="0.449"/>
		<circle cx="117.5" cy="-5.207" r="0.449"/>
		<circle cx="112.25" cy="-7.707" r="0.449"/>
		<circle cx="105.5" cy="-9.707" r="0.449"/>
		<circle cx="99.75" cy="-11.707" r="0.449"/>
		<circle cx="91.75" cy="-15.207" r="0.449"/>
		<circle cx="97.5" cy="-18.957" r="0.449"/>
		<circle cx="104" cy="-16.707" r="0.449"/>
		<circle cx="109.5" cy="-13.207" r="0.449"/>
		<circle cx="115.75" cy="-12.707" r="0.449"/>
		<circle cx="120.5" cy="-16.957" r="0.449"/>
		<circle cx="125.5" cy="-19.707" r="0.449"/>
		<circle cx="120" cy="-25.207" r="0.449"/>
		<circle cx="116.25" cy="-30.207" r="0.449"/>
		<circle cx="109.25" cy="-33.457" r="0.449"/>
		<circle cx="104" cy="-31.457" r="0.449"/>
		<circle cx="98.25" cy="-26.457" r="0.449"/>
		<circle cx="92" cy="-22.873" r="0.449"/>
		<circle cx="85.5" cy="-24.957" r="0.449"/>
		<circle cx="85.25" cy="-29.957" r="0.449"/>
		<circle cx="91.75" cy="-28.957" r="0.449"/>
		<circle cx="97.75" cy="-32.707" r="0.449"/>
		<circle cx="94" cy="-36.957" r="0.449"/>
		<circle cx="88.25" cy="-39.457" r="0.449"/>
		<circle cx="81.75" cy="-43.207" r="0.449"/>
		<circle cx="77.75" cy="-47.207" r="0.449"/>
		<circle cx="73.75" cy="-52.707" r="0.449"/>
		<circle cx="104.25" cy="-22.457" r="0.449"/>
		<circle cx="107.75" cy="-26.707" r="0.449"/>
		<circle cx="109.5" cy="-20.957" r="0.449"/>
		<circle cx="114" cy="-17.707" r="0.449"/>
		<circle cx="114" cy="-23.207" r="0.449"/>
		<circle cx="103.75" cy="-37.207" r="0.449"/>
		<circle cx="87.25" cy="-18.543" r="0.449"/>
		<circle cx="82.543" cy="-21" r="0.449"/>
		<circle cx="74" cy="-22.457" r="0.449"/>
		<circle cx="71.5" cy="-26.871" r="0.449"/>
		<circle cx="64.75" cy="-24.957" r="0.449"/>
		<circle cx="59.75" cy="-21.207" r="0.449"/>
		<circle cx="54.043" cy="-21.914" r="0.449"/>
		<circle cx="48.75" cy="-16.707" r="0.449"/>
		<circle cx="46" cy="-10.957" r="0.449"/>
		<circle cx="41.5" cy="-7.207" r="0.449"/>
		<circle cx="48.25" cy="-2.957" r="0.449"/>
		<circle cx="52" cy="-8.707" r="0.449"/>
		<circle cx="57.75" cy="-12.457" r="0.449"/>
		<circle cx="52.667" cy="-13.707" r="0.449"/>
		<circle cx="63" cy="-16.457" r="0.449"/>
		<circle cx="66.5" cy="-18.957" r="0.449"/>
		<circle cx="78" cy="-16.957" r="0.449"/>
		<circle cx="89" cy="-12.207" r="0.449"/>
		<circle cx="95" cy="-7.207" r="0.449"/>
		<circle cx="101.365" cy="-4.707" r="0.449"/>
		<circle cx="91.5" cy="-3.707" r="0.449"/>
		<circle cx="85.75" cy="-7.207" r="0.449"/>
		<circle cx="81.25" cy="-11.457" r="0.449"/>
		<circle cx="75.25" cy="-13.207" r="0.449"/>
		<circle cx="70.25" cy="-15.457" r="0.449"/>
		<circle cx="66.5" cy="-9.957" r="0.449"/>
		<circle cx="60.25" cy="-7.457" r="0.449"/>
		<circle cx="56.587" cy="-3.273" r="0.449"/>
		<circle cx="62" cy="-3.707" r="0.449"/>
		<circle cx="69.5" cy="-4.707" r="0.449"/>
		<circle cx="77.5" cy="-7.207" r="0.449"/>
		<circle cx="70" cy="-73.207" r="0.449"/>
		<circle cx="81.25" cy="-83.707" r="0.449"/>
		<circle cx="74.666" cy="-84.874" r="0.449"/>
		<circle cx="85.25" cy="-79.707" r="0.449"/>
		<circle cx="90" cy="-84.957" r="0.449"/>
		<circle cx="93.75" cy="-90.957" r="0.449"/>
		<circle cx="101.75" cy="-86.957" r="0.449"/>
		<circle cx="97.75" cy="-96.707" r="0.449"/>
		<circle cx="101.25" cy="-93.957" r="0.449"/>
		<circle cx="106.75" cy="-92.957" r="0.449"/>
		<circle cx="111.793" cy="-92.75" r="0.449"/>
		<circle cx="111.25" cy="-87.457" r="0.449"/>
		<circle cx="119.25" cy="-91.207" r="0.449"/>
		<circle cx="124" cy="-92.957" r="0.449"/>
		<circle cx="130" cy="-97.457" r="0.449"/>
		<circle cx="136.543" cy="-100.333" r="0.449"/>
		<circle cx="142.667" cy="-103.374" r="0.449"/>
		<circle cx="139.5" cy="-93.207" r="0.449"/>
		<circle cx="142.667" cy="-89.374" r="0.449"/>
		<circle cx="138.25" cy="-86.457" r="0.449"/>
		<circle cx="142.667" cy="-84.04" r="0.449"/>
		<circle cx="131.5" cy="-90.957" r="0.449"/>
		<circle cx="128" cy="-88.957" r="0.449"/>
		<circle cx="125.333" cy="-83.707" r="0.449"/>
		<circle cx="121.75" cy="-86.707" r="0.449"/>
		<circle cx="117.75" cy="-82.957" r="0.449"/>
		<circle cx="112" cy="-80.207" r="0.449"/>
		<circle cx="106.25" cy="-84.207" r="0.449"/>
		<circle cx="97" cy="-86.207" r="0.449"/>
		<circle cx="92.75" cy="-81.707" r="0.449"/>
		<circle cx="87.75" cy="-75.207" r="0.449"/>
		<circle cx="85" cy="-71.207" r="0.449"/>
		<circle cx="82" cy="-65.457" r="0.449"/>
		<circle cx="88" cy="-60.457" r="0.449"/>
		<circle cx="91.333" cy="-62.707" r="0.449"/>
		<circle cx="96" cy="-65.207" r="0.449"/>
		<circle cx="89.75" cy="-67.707" r="0.449"/>
		<circle cx="92" cy="-72.957" r="0.449"/>
		<circle cx="95.25" cy="-78.207" r="0.449"/>
		<circle cx="101.75" cy="-73.207" r="0.449"/>
		<circle cx="97.5" cy="-68.957" r="0.449"/>
		<circle cx="105.707" cy="-66.664" r="0.449"/>
		<circle cx="100.75" cy="-61.457" r="0.449"/>
		<circle cx="107.75" cy="-61.207" r="0.449"/>
		<circle cx="104.957" cy="-57.664" r="0.449"/>
		<circle cx="111.25" cy="-54.957" r="0.449"/>
		<circle cx="117.25" cy="-53.457" r="0.449"/>
		<circle cx="124" cy="-56.957" r="0.449"/>
		<circle cx="130.25" cy="-54.957" r="0.449"/>
		<circle cx="136.75" cy="-50.957" r="0.449"/>
		<circle cx="141.5" cy="-51.207" r="0.449"/>
		<circle cx="142.75" cy="-46.707" r="0.449"/>
		<circle cx="139.75" cy="-41.207" r="0.449"/>
		<circle cx="132.333" cy="-43.707" r="0.449"/>
		<circle cx="135.75" cy="-45.457" r="0.449"/>
		<circle cx="128" cy="-47.207" r="0.449"/>
		<circle cx="123.25" cy="-50.707" r="0.449"/>
		<circle cx="120.25" cy="-45.207" r="0.449"/>
		<circle cx="113.75" cy="-47.457" r="0.449"/>
		<circle cx="109.5" cy="-47.707" r="0.449"/>
		<circle cx="104" cy="-50.957" r="0.449"/>
		<circle cx="98" cy="-55.207" r="0.449"/>
		<circle cx="92.25" cy="-52.457" r="0.449"/>
		<circle cx="94.333" cy="-57.707" r="0.449"/>
		<circle cx="81.5" cy="-59.707" r="0.449"/>
		<circle cx="73.75" cy="-67.207" r="0.449"/>
		<circle cx="73.25" cy="-61.207" r="0.449"/>
		<circle cx="69.666" cy="-54.375" r="0.449"/>
		<circle cx="76.25" cy="-71.707" r="0.449"/>
		<circle cx="79.666" cy="-75.707" r="0.449"/>
		<circle cx="102" cy="-81.207" r="0.449"/>
		<circle cx="105" cy="-78.457" r="0.449"/>
		<circle cx="110" cy="-69.707" r="0.449"/>
		<circle cx="114.75" cy="-73.707" r="0.449"/>
		<circle cx="117.5" cy="-76.957" r="0.449"/>
		<circle cx="121.75" cy="-79.207" r="0.449"/>
		<circle cx="129.75" cy="-79.707" r="0.449"/>
		<circle cx="133.75" cy="-83.457" r="0.449"/>
		<circle cx="140" cy="-81.457" r="0.449"/>
		<circle cx="136" cy="-75.207" r="0.449"/>
		<circle cx="143" cy="-73.457" r="0.449"/>
		<circle cx="141.75" cy="-67.707" r="0.449"/>
		<circle cx="143.333" cy="-56.04" r="0.449"/>
		<circle cx="132" cy="-71.457" r="0.449"/>
		<circle cx="125" cy="-75.707" r="0.449"/>
		<circle cx="121.5" cy="-71.207" r="0.449"/>
		<circle cx="116.25" cy="-67.207" r="0.449"/>
		<circle cx="111" cy="-63.207" r="0.449"/>
		<circle cx="117.75" cy="-61.207" r="0.449"/>
		<circle cx="114.333" cy="-57.707" r="0.449"/>
		<circle cx="90.333" cy="-49.375" r="0.449"/>
		<circle cx="123" cy="-65.457" r="0.449"/>
		<circle cx="127.75" cy="-68.707" r="0.449"/>
		<circle cx="132.75" cy="-62.957" r="0.449"/>
		<circle cx="136.25" cy="-65.957" r="0.449"/>
		<circle cx="128.5" cy="-60.707" r="0.449"/>
		<circle cx="135.5" cy="-56.957" r="0.449"/>
		<circle cx="140.25" cy="-58.707" r="0.449"/>
		<circle cx="82.25" cy="-89.207" r="0.449"/>
		<circle cx="89.25" cy="-93.207" r="0.449"/>
		<circle cx="71.666" cy="-79.04" r="0.449"/>
		<circle cx="65.333" cy="-78.207" r="0.449"/>
		<circle cx="45.5" cy="-77.207" r="0.449"/>
		<circle cx="52.167" cy="-70.624" r="0.449"/>
		<circle cx="33" cy="-67.04" r="0.449"/>
		<circle cx="32" cy="-62.04" r="0.449"/>
		<circle cx="68.207" cy="-87.664" r="0.449"/>
		<circle cx="75.75" cy="-96.457" r="0.449"/>
		<circle cx="70" cy="-94.457" r="0.449"/>
		<circle cx="66.25" cy="-90.457" r="0.449"/>
		<circle cx="60" cy="-88.957" r="0.449"/>
		<circle cx="55.75" cy="-84.457" r="0.449"/>
		<circle cx="50.75" cy="-81.621" r="0.449"/>
		<circle cx="50" cy="-88.707" r="0.449"/>
		<circle cx="41.167" cy="-82.624" r="0.449"/>
		<circle cx="78.333" cy="-105.04" r="0.449"/>
		<circle cx="72.793" cy="-102.25" r="0.449"/>
		<circle cx="66" cy="-102.374" r="0.449"/>
		<circle cx="64" cy="-96.707" r="0.449"/>
		<circle cx="68.96" cy="-99" r="0.449"/>
		<circle cx="58.25" cy="-95.207" r="0.449"/>
		<circle cx="54.667" cy="-91.04" r="0.449"/>
		<circle cx="60.667" cy="-101.04" r="0.449"/>
		<circle cx="55.333" cy="-97.374" r="0.449"/>
		<circle cx="50" cy="-95.04" r="0.449"/>
		<circle cx="43.5" cy="-92.457" r="0.449"/>
		<circle cx="37.667" cy="-88.374" r="0.449"/>
		<circle cx="30.667" cy="-91.124" r="0.449"/>
		<circle cx="21" cy="-90.207" r="0.449"/>
		<circle cx="16" cy="-93.457" r="0.449"/>
		<circle cx="8" cy="-97.707" r="0.449"/>
		<circle cx="3" cy="-93.04" r="0.449"/>
		<circle cx="7.75" cy="-91.207" r="0.449"/>
		<circle cx="5.75" cy="-86.957" r="0.449"/>
		<circle cx="13.75" cy="-86.957" r="0.449"/>
		<circle cx="20" cy="-85.207" r="0.449"/>
		<circle cx="26" cy="-82.957" r="0.449"/>
		<circle cx="34.333" cy="-84.54" r="0.45"/>
		<circle cx="38" cy="-94.04" r="0.449"/>
		<circle cx="45" cy="-99.457" r="0.449"/>
		<circle cx="38.333" cy="-100.707" r="0.449"/>
		<circle cx="42.5" cy="-103.207" r="0.449"/>
		<circle cx="32.667" cy="-100.374" r="0.449"/>
		<circle cx="26" cy="-101.04" r="0.449"/>
		<circle cx="8" cy="-103.374" r="0.449"/>
		<circle cx="2" cy="-100.374" r="0.449"/>
		<circle cx="137.333" cy="-130.707" r="0.449"/>
		<circle cx="136.667" cy="-136.374" r="0.449"/>
		<circle cx="143" cy="-134.04" r="0.449"/>
		<circle cx="131" cy="-143.707" r="0.449"/>
		<circle cx="137.333" cy="-141.374" r="0.449"/>
		<circle cx="143" cy="-140.374" r="0.449"/>
		<circle cx="75.801" cy="-2.707" r="0.449"/>
		<circle cx="83.702" cy="-3.273" r="0.449"/>
		<circle cx="54" cy="-119.957" r="0.449"/>
		<circle cx="51.626" cy="-124.333" r="0.449"/>
		<circle cx="5.333" cy="-143.04" r="0.449"/>
	</g>
</svg>
