<?xml version="1.0"?>
<!-- Converted with SVG Converter - Version 0.9.6 (Compiled Thu Aug 31 10:01:05 2017) - Copyright (C) 2011 Nokia -->
<svg xmlns="http://www.w3.org/2000/svg" version="1.1" viewBox="1 -145 144 144" xmlns:xlink="http://www.w3.org/1999/xlink" xml:space="preserve" width="144" x="0px" height="144" baseProfile="tiny" y="0px">
 <g>
  <rect style="fill:none;" width="144" x="1" height="144" y="-145"/>
  <circle cy="-143" style="fill:#EC008C;" cx="12.959" r="0.499"/>
  <circle cy="-141.79" style="fill:#EC008C;" cx="18.333" r="0.499"/>
  <circle cy="-143.707" style="fill:#EC008C;" cx="26.667" r="0.499"/>
  <circle cy="-137.04" style="fill:#EC008C;" cx="16" r="0.499"/>
  <circle cy="-139.04" style="fill:#EC008C;" cx="10" r="0.499"/>
  <circle cy="-137.04" style="fill:#EC008C;" cx="2.333" r="0.499"/>
  <circle cy="-133.374" style="fill:#EC008C;" cx="8.333" r="0.499"/>
  <circle cy="-131.04" style="fill:#EC008C;" cx="13.667" r="0.499"/>
  <circle cy="-128.707" style="fill:#EC008C;" cx="20" r="0.499"/>
  <circle cy="-136.374" style="fill:#EC008C;" cx="23" r="0.499"/>
  <circle cy="-136.04" style="fill:#EC008C;" cx="29" r="0.499"/>
  <circle cy="-141.04" style="fill:#EC008C;" cx="33.333" r="0.499"/>
  <circle cy="-142.707" style="fill:#EC008C;" cx="39.667" r="0.499"/>
  <circle cy="-140.374" style="fill:#EC008C;" cx="43.667" r="0.499"/>
  <circle cy="-139.957" style="fill:#EC008C;" cx="50.5" r="0.499"/>
  <circle cy="-143.707" style="fill:#EC008C;" cx="54" r="0.499"/>
  <circle cy="-139.04" style="fill:#EC008C;" cx="57.667" r="0.499"/>
  <circle cy="-134.707" style="fill:#EC008C;" cx="53.667" r="0.499"/>
  <circle cy="-128.707" style="fill:#EC008C;" cx="50" r="0.499"/>
  <circle cy="-122.707" style="fill:#EC008C;" cx="46.333" r="0.499"/>
  <circle cy="-126.471" style="fill:#EC008C;" cx="43.601" r="0.499"/>
  <circle cy="-134.707" style="fill:#EC008C;" cx="46.75" r="0.499"/>
  <circle cy="-117.207" style="fill:#EC008C;" cx="45" r="0.499"/>
  <circle cy="-132.04" style="fill:#EC008C;" cx="40.667" r="0.499"/>
  <circle cy="-126.707" style="fill:#EC008C;" cx="37" r="0.499"/>
  <circle cy="-127.04" style="fill:#EC008C;" cx="31.667" r="0.499"/>
  <circle cy="-123.04" style="fill:#EC008C;" cx="30" r="0.499"/>
  <circle cy="-124.707" style="fill:#EC008C;" cx="24.333" r="0.499"/>
  <circle cy="-118.374" style="fill:#EC008C;" cx="24" r="0.499"/>
  <circle cy="-111.04" style="fill:#EC008C;" cx="22" r="0.499"/>
  <circle cy="-104.707" style="fill:#EC008C;" cx="20.333" r="0.499"/>
  <circle cy="-100.04" style="fill:#EC008C;" cx="20.667" r="0.499"/>
  <circle cy="-98.707" style="fill:#EC008C;" cx="14.333" r="0.499"/>
  <circle cy="-104.707" style="fill:#EC008C;" cx="15" r="0.499"/>
  <circle cy="-110.374" style="fill:#EC008C;" cx="16" r="0.499"/>
  <circle cy="-117.374" style="fill:#EC008C;" cx="16.667" r="0.499"/>
  <circle cy="-122.707" style="fill:#EC008C;" cx="18" r="0.499"/>
  <circle cy="-123.707" style="fill:#EC008C;" cx="11.667" r="0.499"/>
  <circle cy="-127.707" style="fill:#EC008C;" cx="6.333" r="0.499"/>
  <circle cy="-130.04" style="fill:#EC008C;" cx="2.667" r="0.499"/>
  <circle cy="-120.374" style="fill:#EC008C;" cx="3.667" r="0.499"/>
  <circle cy="-116.707" style="fill:#EC008C;" cx="9.667" r="0.499"/>
  <circle cy="-110.707" style="fill:#EC008C;" cx="7.667" r="0.499"/>
  <circle cy="-108.707" style="fill:#EC008C;" cx="4" r="0.499"/>
  <circle cy="-114.707" style="fill:#EC008C;" cx="3.333" r="0.499"/>
  <circle cy="-114.707" style="fill:#EC008C;" cx="27.667" r="0.499"/>
  <circle cy="-120.374" style="fill:#EC008C;" cx="35.667" r="0.499"/>
  <circle cy="-120.374" style="fill:#EC008C;" cx="40" r="0.499"/>
  <circle cy="-112.707" style="fill:#EC008C;" cx="39" r="0.499"/>
  <circle cy="-114.207" style="fill:#EC008C;" cx="34.75" r="0.499"/>
  <circle cy="-108.374" style="fill:#EC008C;" cx="38.667" r="0.499"/>
  <circle cy="-106.707" style="fill:#EC008C;" cx="32" r="0.499"/>
  <circle cy="-109.04" style="fill:#EC008C;" cx="27.333" r="0.499"/>
  <circle cy="-130.707" style="fill:#EC008C;" cx="27" r="0.499"/>
  <circle cy="-132.04" style="fill:#EC008C;" cx="34.333" r="0.499"/>
  <circle cy="-136.374" style="fill:#EC008C;" cx="37" r="0.499"/>
  <circle cy="-142.374" style="fill:#EC008C;" cx="63" r="0.499"/>
  <circle cy="-143.374" style="fill:#EC008C;" cx="68.666" r="0.499"/>
  <circle cy="-138.707" style="fill:#EC008C;" cx="70" r="0.499"/>
  <circle cy="-143.082" style="fill:#EC008C;" cx="75" r="0.499"/>
  <circle cy="-143.374" style="fill:#EC008C;" cx="81.666" r="0.499"/>
  <circle cy="-134.707" style="fill:#EC008C;" cx="65.25" r="0.499"/>
  <circle cy="-134.707" style="fill:#EC008C;" cx="59" r="0.499"/>
  <circle cy="-123.707" style="fill:#EC008C;" cx="56.667" r="0.499"/>
  <circle cy="-129.457" style="fill:#EC008C;" cx="60.333" r="0.499"/>
  <circle cy="-130.707" style="fill:#EC008C;" cx="56" r="0.499"/>
  <circle cy="-132.04" style="fill:#EC008C;" cx="69.333" r="0.499"/>
  <circle cy="-135.707" style="fill:#EC008C;" cx="75.333" r="0.499"/>
  <circle cy="-139.04" style="fill:#EC008C;" cx="82" r="0.499"/>
  <circle cy="-141.374" style="fill:#EC008C;" cx="87.666" r="0.499"/>
  <circle cy="-143.374" style="fill:#EC008C;" cx="94" r="0.499"/>
  <circle cy="-143.04" style="fill:#EC008C;" cx="101.666" r="0.499"/>
  <circle cy="-136.457" style="fill:#EC008C;" cx="93.333" r="0.499"/>
  <circle cy="-135.25" style="fill:#EC008C;" cx="87.043" r="0.499"/>
  <circle cy="-130.124" style="fill:#EC008C;" cx="82.667" r="0.499"/>
  <circle cy="-131.707" style="fill:#EC008C;" cx="77.666" r="0.499"/>
  <circle cy="-126.707" style="fill:#EC008C;" cx="76.5" r="0.499"/>
  <circle cy="-122.457" style="fill:#EC008C;" cx="70" r="0.499"/>
  <circle cy="-120.707" style="fill:#EC008C;" cx="63.667" r="0.499"/>
  <circle cy="-118.04" style="fill:#EC008C;" cx="57.667" r="0.499"/>
  <circle cy="-116.454" style="fill:#EC008C;" cx="68" r="0.499"/>
  <circle cy="-115.374" style="fill:#EC008C;" cx="60.333" r="0.499"/>
  <circle cy="-110.707" style="fill:#EC008C;" cx="56.333" r="0.499"/>
  <circle cy="-115.04" style="fill:#EC008C;" cx="51.333" r="0.499"/>
  <circle cy="-108.04" style="fill:#EC008C;" cx="51" r="0.499"/>
  <circle cy="-110.207" style="fill:#EC008C;" cx="47" r="0.499"/>
  <circle cy="-103.374" style="fill:#EC008C;" cx="50.333" r="0.499"/>
  <circle cy="-104.707" style="fill:#EC008C;" cx="56" r="0.499"/>
  <circle cy="-107.414" style="fill:#EC008C;" cx="62.707" r="0.499"/>
  <circle cy="-109.04" style="fill:#EC008C;" cx="67" r="0.499"/>
  <circle cy="-112.374" style="fill:#EC008C;" cx="65.333" r="0.499"/>
  <circle cy="-110.04" style="fill:#EC008C;" cx="72.333" r="0.499"/>
  <circle cy="-115.04" style="fill:#EC008C;" cx="73.333" r="0.499"/>
  <circle cy="-119.707" style="fill:#EC008C;" cx="76.333" r="0.499"/>
  <circle cy="-123.374" style="fill:#EC008C;" cx="81.666" r="0.499"/>
  <circle cy="-126.04" style="fill:#EC008C;" cx="87" r="0.499"/>
  <circle cy="-130.747" style="fill:#EC008C;" cx="89.626" r="0.499"/>
  <circle cy="-132.624" style="fill:#EC008C;" cx="97.166" r="0.499"/>
  <circle cy="-138.624" style="fill:#EC008C;" cx="99.166" r="0.499"/>
  <circle cy="-142.04" style="fill:#EC008C;" cx="107.333" r="0.499"/>
  <circle cy="-143.707" style="fill:#EC008C;" cx="114" r="0.499"/>
  <circle cy="-143.707" style="fill:#EC008C;" cx="125.333" r="0.499"/>
  <circle cy="-141.04" style="fill:#EC008C;" cx="119" r="0.499"/>
  <circle cy="-135.124" style="fill:#EC008C;" cx="116" r="0.499"/>
  <circle cy="-134.457" style="fill:#EC008C;" cx="109.25" r="0.499"/>
  <circle cy="-124.457" style="fill:#EC008C;" cx="129.333" r="0.499"/>
  <circle cy="-131.624" style="fill:#EC008C;" cx="102.666" r="0.499"/>
  <circle cy="-127.124" style="fill:#EC008C;" cx="65.333" r="0.499"/>
  <circle cy="-128.04" style="fill:#EC008C;" cx="71.333" r="0.499"/>
  <circle cy="-137.374" style="fill:#EC008C;" cx="105.666" r="0.499"/>
  <circle cy="-125.414" style="fill:#EC008C;" cx="92.374" r="0.499"/>
  <circle cy="-120.54" style="fill:#EC008C;" cx="87.666" r="0.499"/>
  <circle cy="-116.707" style="fill:#EC008C;" cx="82.333" r="0.499"/>
  <circle cy="-111.04" style="fill:#EC008C;" cx="78.333" r="0.499"/>
  <circle cy="-107.79" style="fill:#EC008C;" cx="84.667" r="0.499"/>
  <circle cy="-113.04" style="fill:#EC008C;" cx="87" r="0.499"/>
  <circle cy="-121.124" style="fill:#EC008C;" cx="98" r="0.499"/>
  <circle cy="-126.121" style="fill:#EC008C;" cx="101.666" r="0.499"/>
  <circle cy="-128.707" style="fill:#EC008C;" cx="97.333" r="0.499"/>
  <circle cy="-128.789" style="fill:#EC008C;" cx="107.666" r="0.499"/>
  <circle cy="-129.79" style="fill:#EC008C;" cx="114" r="0.499"/>
  <circle cy="-133.04" style="fill:#EC008C;" cx="120" r="0.499"/>
  <circle cy="-138.04" style="fill:#EC008C;" cx="123.666" r="0.499"/>
  <circle cy="-136.707" style="fill:#EC008C;" cx="131.667" r="0.499"/>
  <circle cy="-139.374" style="fill:#EC008C;" cx="128.667" r="0.499"/>
  <circle cy="-133.374" style="fill:#EC008C;" cx="126" r="0.499"/>
  <circle cy="-128.707" style="fill:#EC008C;" cx="120.333" r="0.499"/>
  <circle cy="-122.707" style="fill:#EC008C;" cx="114" r="0.499"/>
  <circle cy="-123.04" style="fill:#EC008C;" cx="107.666" r="0.499"/>
  <circle cy="-116.707" style="fill:#EC008C;" cx="95.666" r="0.499"/>
  <circle cy="-110.04" style="fill:#EC008C;" cx="95.333" r="0.499"/>
  <circle cy="-111.207" style="fill:#EC008C;" cx="90.5" r="0.499"/>
  <circle cy="-103.707" style="fill:#EC008C;" cx="90.75" r="0.499"/>
  <circle cy="-131.374" style="fill:#EC008C;" cx="131.333" r="0.499"/>
  <circle cy="-127.414" style="fill:#EC008C;" cx="125.626" r="0.499"/>
  <circle cy="-122.124" style="fill:#EC008C;" cx="121" r="0.499"/>
  <circle cy="-117.707" style="fill:#EC008C;" cx="115.333" r="0.499"/>
  <circle cy="-117.374" style="fill:#EC008C;" cx="110" r="0.499"/>
  <circle cy="-113.04" style="fill:#EC008C;" cx="106" r="0.499"/>
  <circle cy="-107.707" style="fill:#EC008C;" cx="100.666" r="0.499"/>
  <circle cy="-106.707" style="fill:#EC008C;" cx="106.333" r="0.499"/>
  <circle cy="-111.04" style="fill:#EC008C;" cx="110.666" r="0.499"/>
  <circle cy="-111.374" style="fill:#EC008C;" cx="116" r="0.499"/>
  <circle cy="-119.124" style="fill:#EC008C;" cx="125" r="0.499"/>
  <circle cy="-125.457" style="fill:#EC008C;" cx="136.667" r="0.499"/>
  <circle cy="-121.04" style="fill:#EC008C;" cx="133" r="0.499"/>
  <circle cy="-125.374" style="fill:#EC008C;" cx="144" r="0.499"/>
  <circle cy="-121.04" style="fill:#EC008C;" cx="138" r="0.499"/>
  <circle cy="-116.707" style="fill:#EC008C;" cx="134" r="0.499"/>
  <circle cy="-114.707" style="fill:#EC008C;" cx="140" r="0.499"/>
  <circle cy="-119.04" style="fill:#EC008C;" cx="143" r="0.499"/>
  <circle cy="-114.707" style="fill:#EC008C;" cx="127.666" r="0.499"/>
  <circle cy="-112.957" style="fill:#EC008C;" cx="122.25" r="0.499"/>
  <circle cy="-108.707" style="fill:#EC008C;" cx="123.5" r="0.499"/>
  <circle cy="-107.207" style="fill:#EC008C;" cx="118" r="0.499"/>
  <circle cy="-110.04" style="fill:#EC008C;" cx="129.667" r="0.499"/>
  <circle cy="-109.04" style="fill:#EC008C;" cx="136" r="0.499"/>
  <circle cy="-109.04" style="fill:#EC008C;" cx="142.333" r="0.499"/>
  <circle cy="-105.374" style="fill:#EC008C;" cx="138" r="0.499"/>
  <circle cy="-105.04" style="fill:#EC008C;" cx="132" r="0.499"/>
  <circle cy="-102.707" style="fill:#EC008C;" cx="126" r="0.499"/>
  <circle cy="-102.707" style="fill:#EC008C;" cx="119.333" r="0.499"/>
  <circle cy="-98.707" style="fill:#EC008C;" cx="121.666" r="0.499"/>
  <circle cy="-95.707" style="fill:#EC008C;" cx="135" r="0.499"/>
  <circle cy="-117.454" style="fill:#EC008C;" cx="104" r="0.499"/>
  <circle cy="-138.707" style="fill:#EC008C;" cx="110.666" r="0.499"/>
  <circle cy="-95.707" style="fill:#EC008C;" cx="116.5" r="0.499"/>
  <circle cy="-104.707" style="fill:#EC008C;" cx="112.5" r="0.499"/>
  <circle cy="-99.957" style="fill:#EC008C;" cx="106.5" r="0.499"/>
  <circle cy="-97.04" style="fill:#EC008C;" cx="110.333" r="0.499"/>
  <circle cy="-100.707" style="fill:#EC008C;" cx="115" r="0.499"/>
  <circle cy="-101.374" style="fill:#EC008C;" cx="101.666" r="0.499"/>
  <circle cy="-103.04" style="fill:#EC008C;" cx="95.333" r="0.499"/>
  <circle cy="-99.04" style="fill:#EC008C;" cx="89.666" r="0.499"/>
  <circle cy="-102.082" style="fill:#EC008C;" cx="83.626" r="0.499"/>
  <circle cy="-97.707" style="fill:#EC008C;" cx="81.25" r="0.499"/>
  <circle cy="-93.707" style="fill:#EC008C;" cx="84.666" r="0.499"/>
  <circle cy="-91.207" style="fill:#EC008C;" cx="75.334" r="0.499"/>
  <circle cy="-83.874" style="fill:#EC008C;" cx="63.333" r="0.499"/>
  <circle cy="-77.957" style="fill:#EC008C;" cx="55" r="0.499"/>
  <circle cy="-77.624" style="fill:#EC008C;" cx="38.667" r="0.499"/>
  <circle cy="-85.789" style="fill:#EC008C;" cx="46.667" r="0.499"/>
  <circle cy="-86.54" style="fill:#EC008C;" cx="29.333" r="0.499"/>
  <circle cy="-93.874" style="fill:#EC008C;" cx="24.333" r="0.499"/>
  <circle cy="-72.624" style="fill:#EC008C;" cx="48.167" r="0.499"/>
  <circle cy="-65.707" style="fill:#EC008C;" cx="44" r="0.499"/>
  <circle cy="-61.457" style="fill:#EC008C;" cx="49.25" r="0.499"/>
  <circle cy="-64.79" style="fill:#EC008C;" cx="39" r="0.499"/>
  <circle cy="-34.707" style="fill:#EC008C;" cx="27.667" r="0.499"/>
  <circle cy="-60.121" style="fill:#EC008C;" cx="37.333" r="0.499"/>
  <circle cy="-67.207" style="fill:#EC008C;" cx="28" r="0.499"/>
  <circle cy="-71.207" style="fill:#EC008C;" cx="20.5" r="0.499"/>
  <circle cy="-79.707" style="fill:#EC008C;" cx="21.5" r="0.499"/>
  <circle cy="-76.207" style="fill:#EC008C;" cx="10.75" r="0.499"/>
  <circle cy="-79.207" style="fill:#EC008C;" cx="4.25" r="0.499"/>
  <circle cy="-81.707" style="fill:#EC008C;" cx="11.75" r="0.499"/>
  <circle cy="-78.457" style="fill:#EC008C;" cx="16" r="0.499"/>
  <circle cy="-73.664" style="fill:#EC008C;" cx="26.707" r="0.499"/>
  <circle cy="-74.957" style="fill:#EC008C;" cx="31.75" r="0.499"/>
  <circle cy="-79.457" style="fill:#EC008C;" cx="27.75" r="0.499"/>
  <circle cy="-79.707" style="fill:#EC008C;" cx="34" r="0.499"/>
  <circle cy="-71.707" style="fill:#EC008C;" cx="35" r="0.499"/>
  <circle cy="-72.124" style="fill:#EC008C;" cx="41.333" r="0.499"/>
  <circle cy="-65.207" style="fill:#EC008C;" cx="50.25" r="0.499"/>
  <circle cy="-73.871" style="fill:#EC008C;" cx="59" r="0.499"/>
  <circle cy="-68.957" style="fill:#EC008C;" cx="64.75" r="0.499"/>
  <circle cy="-64.957" style="fill:#EC008C;" cx="62.75" r="0.499"/>
  <circle cy="-63.457" style="fill:#EC008C;" cx="67.75" r="0.499"/>
  <circle cy="-59.207" style="fill:#EC008C;" cx="68.5" r="0.499"/>
  <circle cy="-52.957" style="fill:#EC008C;" cx="66.25" r="0.499"/>
  <circle cy="-47.707" style="fill:#EC008C;" cx="65.5" r="0.499"/>
  <circle cy="-40.457" style="fill:#EC008C;" cx="68.75" r="0.499"/>
  <circle cy="-46.371" style="fill:#EC008C;" cx="73" r="0.499"/>
  <circle cy="-40.707" style="fill:#EC008C;" cx="77.25" r="0.499"/>
  <circle cy="-35.707" style="fill:#EC008C;" cx="73.25" r="0.499"/>
  <circle cy="-35.207" style="fill:#EC008C;" cx="86" r="0.499"/>
  <circle cy="-35.457" style="fill:#EC008C;" cx="79.75" r="0.499"/>
  <circle cy="-28.957" style="fill:#EC008C;" cx="75.75" r="0.499"/>
  <circle cy="-30.957" style="fill:#EC008C;" cx="68" r="0.499"/>
  <circle cy="-36.707" style="fill:#EC008C;" cx="65.75" r="0.499"/>
  <circle cy="-41.207" style="fill:#EC008C;" cx="62.75" r="0.499"/>
  <circle cy="-46.957" style="fill:#EC008C;" cx="60.5" r="0.499"/>
  <circle cy="-52.375" style="fill:#EC008C;" cx="59" r="0.499"/>
  <circle cy="-57.457" style="fill:#EC008C;" cx="62.25" r="0.499"/>
  <circle cy="-62.375" style="fill:#EC008C;" cx="55.333" r="0.499"/>
  <circle cy="-68.79" style="fill:#EC008C;" cx="57" r="0.499"/>
  <circle cy="-58.207" style="fill:#EC008C;" cx="56.5" r="0.499"/>
  <circle cy="-55.207" style="fill:#EC008C;" cx="51.75" r="0.499"/>
  <circle cy="-49.207" style="fill:#EC008C;" cx="53.75" r="0.499"/>
  <circle cy="-43.04" style="fill:#EC008C;" cx="54" r="0.499"/>
  <circle cy="-37.375" style="fill:#EC008C;" cx="56.667" r="0.499"/>
  <circle cy="-33.707" style="fill:#EC008C;" cx="59" r="0.499"/>
  <circle cy="-29.957" style="fill:#EC008C;" cx="61.25" r="0.499"/>
  <circle cy="-25.457" style="fill:#EC008C;" cx="58.5" r="0.499"/>
  <circle cy="-25.707" style="fill:#EC008C;" cx="51" r="0.499"/>
  <circle cy="-30.957" style="fill:#EC008C;" cx="46" r="0.499"/>
  <circle cy="-26.957" style="fill:#EC008C;" cx="42" r="0.499"/>
  <circle cy="-113.374" style="fill:#EC008C;" cx="99.666" r="0.499"/>
  <circle cy="-17.957" style="fill:#EC008C;" cx="35.5" r="0.499"/>
  <circle cy="-19.207" style="fill:#EC008C;" cx="41.75" r="0.499"/>
  <circle cy="-14.707" style="fill:#EC008C;" cx="43.667" r="0.499"/>
  <circle cy="-20.957" style="fill:#EC008C;" cx="47.5" r="0.499"/>
  <circle cy="-13.123" style="fill:#EC008C;" cx="38" r="0.499"/>
  <circle cy="-5.207" style="fill:#EC008C;" cx="33.5" r="0.499"/>
  <circle cy="-10.123" style="fill:#EC008C;" cx="30.667" r="0.499"/>
  <circle cy="-5.207" style="fill:#EC008C;" cx="24" r="0.499"/>
  <circle cy="-9.664" style="fill:#EC008C;" cx="21.043" r="0.499"/>
  <circle cy="-12.957" style="fill:#EC008C;" cx="26" r="0.499"/>
  <circle cy="-18.707" style="fill:#EC008C;" cx="28" r="0.499"/>
  <circle cy="-15.373" style="fill:#EC008C;" cx="30" r="0.499"/>
  <circle cy="-7.373" style="fill:#EC008C;" cx="36.667" r="0.499"/>
  <circle cy="-3.041" style="fill:#EC008C;" cx="40" r="0.499"/>
  <circle cy="-2.207" style="fill:#EC008C;" cx="18.5" r="0.499"/>
  <circle cy="-2.84" style="fill:#EC008C;" cx="29" r="0.499"/>
  <circle cy="-23.207" style="fill:#EC008C;" cx="20" r="0.499"/>
  <circle cy="-18.957" style="fill:#EC008C;" cx="23" r="0.499"/>
  <circle cy="-18.957" style="fill:#EC008C;" cx="15.75" r="0.499"/>
  <circle cy="-20.707" style="fill:#EC008C;" cx="10.5" r="0.499"/>
  <circle cy="-17.457" style="fill:#EC008C;" cx="5.5" r="0.499"/>
  <circle cy="-13.207" style="fill:#EC008C;" cx="9.75" r="0.499"/>
  <circle cy="-13.207" style="fill:#EC008C;" cx="17.25" r="0.499"/>
  <circle cy="-7.207" style="fill:#EC008C;" cx="15.5" r="0.499"/>
  <circle cy="-6.957" style="fill:#EC008C;" cx="10" r="0.499"/>
  <circle cy="-9.457" style="fill:#EC008C;" cx="5.5" r="0.499"/>
  <circle cy="-5.207" style="fill:#EC008C;" cx="2" r="0.499"/>
  <circle cy="-2.59" style="fill:#EC008C;" cx="8.27" r="0.499"/>
  <circle cy="-96.207" style="fill:#EC008C;" cx="31" r="0.499"/>
  <circle cy="-25.124" style="fill:#EC008C;" cx="27.667" r="0.499"/>
  <circle cy="-28.707" style="fill:#EC008C;" cx="23.333" r="0.499"/>
  <circle cy="-44.707" style="fill:#EC008C;" cx="20" r="0.499"/>
  <circle cy="-52.375" style="fill:#EC008C;" cx="20" r="0.499"/>
  <circle cy="-30.375" style="fill:#EC008C;" cx="29.333" r="0.499"/>
  <circle cy="-24.457" style="fill:#EC008C;" cx="34" r="0.499"/>
  <circle cy="-38.375" style="fill:#EC008C;" cx="32.333" r="0.499"/>
  <circle cy="-24.041" style="fill:#EC008C;" cx="43.333" r="0.499"/>
  <circle cy="-34.375" style="fill:#EC008C;" cx="38.333" r="0.499"/>
  <circle cy="-36.957" style="fill:#EC008C;" cx="43.75" r="0.499"/>
  <circle cy="-43.457" style="fill:#EC008C;" cx="43" r="0.499"/>
  <circle cy="-44.625" style="fill:#EC008C;" cx="32.167" r="0.499"/>
  <circle cy="-39.207" style="fill:#EC008C;" cx="37.75" r="0.499"/>
  <circle cy="-30.375" style="fill:#EC008C;" cx="35.667" r="0.499"/>
  <circle cy="-51.125" style="fill:#EC008C;" cx="31.167" r="0.499"/>
  <circle cy="-46.457" style="fill:#EC008C;" cx="37" r="0.499"/>
  <circle cy="-51.457" style="fill:#EC008C;" cx="42.333" r="0.499"/>
  <circle cy="-46.371" style="fill:#EC008C;" cx="47.75" r="0.499"/>
  <circle cy="-51.207" style="fill:#EC008C;" cx="47.75" r="0.499"/>
  <circle cy="-58.371" style="fill:#EC008C;" cx="43.5" r="0.499"/>
  <circle cy="-55.207" style="fill:#EC008C;" cx="37" r="0.499"/>
  <circle cy="-57.207" style="fill:#EC008C;" cx="31.5" r="0.499"/>
  <circle cy="-61.664" style="fill:#EC008C;" cx="26.5" r="0.499"/>
  <circle cy="-64.957" style="fill:#EC008C;" cx="22" r="0.499"/>
  <circle cy="-65.207" style="fill:#EC008C;" cx="14.5" r="0.499"/>
  <circle cy="-69.707" style="fill:#EC008C;" cx="15" r="0.499"/>
  <circle cy="-69.207" style="fill:#EC008C;" cx="10.25" r="0.499"/>
  <circle cy="-71.457" style="fill:#EC008C;" cx="4" r="0.499"/>
  <circle cy="-65.207" style="fill:#EC008C;" cx="6" r="0.499"/>
  <circle cy="-60.957" style="fill:#EC008C;" cx="8" r="0.499"/>
  <circle cy="-54.957" style="fill:#EC008C;" cx="11.5" r="0.499"/>
  <circle cy="-50.957" style="fill:#EC008C;" cx="15.25" r="0.499"/>
  <circle cy="-45.207" style="fill:#EC008C;" cx="25.75" r="0.499"/>
  <circle cy="-39.207" style="fill:#EC008C;" cx="26" r="0.499"/>
  <circle cy="-40" style="fill:#EC008C;" cx="20.543" r="0.499"/>
  <circle cy="-42.957" style="fill:#EC008C;" cx="15.75" r="0.499"/>
  <circle cy="-46.957" style="fill:#EC008C;" cx="12" r="0.499"/>
  <circle cy="-50.957" style="fill:#EC008C;" cx="7.75" r="0.499"/>
  <circle cy="-54.957" style="fill:#EC008C;" cx="4" r="0.499"/>
  <circle cy="-59.207" style="fill:#EC008C;" cx="15.75" r="0.499"/>
  <circle cy="-59.04" style="fill:#EC008C;" cx="21" r="0.499"/>
  <circle cy="-49.707" style="fill:#EC008C;" cx="25.333" r="0.499"/>
  <circle cy="-55.375" style="fill:#EC008C;" cx="25.667" r="0.499"/>
  <circle cy="-33.25" style="fill:#EC008C;" cx="15.793" r="0.499"/>
  <circle cy="-30.707" style="fill:#EC008C;" cx="10" r="0.499"/>
  <circle cy="-24.707" style="fill:#EC008C;" cx="6" r="0.499"/>
  <circle cy="-27.207" style="fill:#EC008C;" cx="2.317" r="0.499"/>
  <circle cy="-27.664" style="fill:#EC008C;" cx="13.043" r="0.499"/>
  <circle cy="-28.457" style="fill:#EC008C;" cx="19" r="0.499"/>
  <circle cy="-33.207" style="fill:#EC008C;" cx="22.25" r="0.499"/>
  <circle cy="-36.957" style="fill:#EC008C;" cx="11.75" r="0.499"/>
  <circle cy="-40.707" style="fill:#EC008C;" cx="7.5" r="0.499"/>
  <circle cy="-45.207" style="fill:#EC008C;" cx="3.5" r="0.499"/>
  <circle cy="-35.207" style="fill:#EC008C;" cx="5.5" r="0.499"/>
  <circle cy="-30.707" style="fill:#EC008C;" cx="53.5" r="0.499"/>
  <circle cy="-34.457" style="fill:#EC008C;" cx="51.5" r="0.499"/>
  <circle cy="-40.207" style="fill:#EC008C;" cx="48.25" r="0.499"/>
  <circle cy="-56.207" style="fill:#EC008C;" cx="79.25" r="0.499"/>
  <circle cy="-51.207" style="fill:#EC008C;" cx="81.75" r="0.499"/>
  <circle cy="-54.375" style="fill:#EC008C;" cx="87.333" r="0.499"/>
  <circle cy="-46.04" style="fill:#EC008C;" cx="86" r="0.499"/>
  <circle cy="-42.957" style="fill:#EC008C;" cx="92" r="0.499"/>
  <circle cy="-46.957" style="fill:#EC008C;" cx="97.75" r="0.499"/>
  <circle cy="-41.664" style="fill:#EC008C;" cx="99.293" r="0.499"/>
  <circle cy="-45.457" style="fill:#EC008C;" cx="104" r="0.499"/>
  <circle cy="-40.707" style="fill:#EC008C;" cx="110" r="0.499"/>
  <circle cy="-41.625" style="fill:#EC008C;" cx="116.666" r="0.499"/>
  <circle cy="-37.207" style="fill:#EC008C;" cx="119.75" r="0.499"/>
  <circle cy="-41.54" style="fill:#EC008C;" cx="126.333" r="0.499"/>
  <circle cy="-34.957" style="fill:#EC008C;" cx="132.25" r="0.499"/>
  <circle cy="-34.957" style="fill:#EC008C;" cx="139.75" r="0.499"/>
  <circle cy="-37.375" style="fill:#EC008C;" cx="143.667" r="0.499"/>
  <circle cy="-31.04" style="fill:#EC008C;" cx="143.333" r="0.499"/>
  <circle cy="-23.258" style="fill:#EC008C;" cx="143.683" r="0.499"/>
  <circle cy="-27.457" style="fill:#EC008C;" cx="138" r="0.499"/>
  <circle cy="-30.457" style="fill:#EC008C;" cx="132.25" r="0.499"/>
  <circle cy="-34.207" style="fill:#EC008C;" cx="124.666" r="0.499"/>
  <circle cy="-35.957" style="fill:#EC008C;" cx="113.75" r="0.499"/>
  <circle cy="-26.957" style="fill:#EC008C;" cx="125.75" r="0.499"/>
  <circle cy="-23.207" style="fill:#EC008C;" cx="132" r="0.499"/>
  <circle cy="-20.957" style="fill:#EC008C;" cx="138.5" r="0.499"/>
  <circle cy="-17.207" style="fill:#EC008C;" cx="144" r="0.499"/>
  <circle cy="-14.707" style="fill:#EC008C;" cx="137.75" r="0.499"/>
  <circle cy="-9.457" style="fill:#EC008C;" cx="143.25" r="0.499"/>
  <circle cy="-2.607" style="fill:#EC008C;" cx="109.028" r="0.499"/>
  <circle cy="-2.373" style="fill:#EC008C;" cx="136.667" r="0.499"/>
  <circle cy="-2.607" style="fill:#EC008C;" cx="122.631" r="0.499"/>
  <circle cy="-7.207" style="fill:#EC008C;" cx="140" r="0.499"/>
  <circle cy="-5.207" style="fill:#EC008C;" cx="127.75" r="0.499"/>
  <circle cy="-9.207" style="fill:#EC008C;" cx="131.75" r="0.499"/>
  <circle cy="-15.457" style="fill:#EC008C;" cx="132.25" r="0.499"/>
  <circle cy="-12.207" style="fill:#EC008C;" cx="126" r="0.499"/>
  <circle cy="-8.957" style="fill:#EC008C;" cx="122" r="0.499"/>
  <circle cy="-5.207" style="fill:#EC008C;" cx="117.5" r="0.499"/>
  <circle cy="-7.707" style="fill:#EC008C;" cx="112.25" r="0.499"/>
  <circle cy="-9.707" style="fill:#EC008C;" cx="105.5" r="0.499"/>
  <circle cy="-11.707" style="fill:#EC008C;" cx="99.75" r="0.499"/>
  <circle cy="-15.207" style="fill:#EC008C;" cx="91.75" r="0.499"/>
  <circle cy="-18.957" style="fill:#EC008C;" cx="97.5" r="0.499"/>
  <circle cy="-16.707" style="fill:#EC008C;" cx="104" r="0.499"/>
  <circle cy="-13.207" style="fill:#EC008C;" cx="109.5" r="0.499"/>
  <circle cy="-12.707" style="fill:#EC008C;" cx="115.75" r="0.499"/>
  <circle cy="-16.957" style="fill:#EC008C;" cx="120.5" r="0.499"/>
  <circle cy="-19.707" style="fill:#EC008C;" cx="125.5" r="0.499"/>
  <circle cy="-25.207" style="fill:#EC008C;" cx="120" r="0.499"/>
  <circle cy="-30.207" style="fill:#EC008C;" cx="116.25" r="0.499"/>
  <circle cy="-33.457" style="fill:#EC008C;" cx="109.25" r="0.499"/>
  <circle cy="-31.457" style="fill:#EC008C;" cx="104" r="0.499"/>
  <circle cy="-26.457" style="fill:#EC008C;" cx="98.25" r="0.499"/>
  <circle cy="-22.873" style="fill:#EC008C;" cx="92" r="0.499"/>
  <circle cy="-24.957" style="fill:#EC008C;" cx="85.5" r="0.499"/>
  <circle cy="-29.957" style="fill:#EC008C;" cx="85.25" r="0.499"/>
  <circle cy="-28.957" style="fill:#EC008C;" cx="91.75" r="0.499"/>
  <circle cy="-32.707" style="fill:#EC008C;" cx="97.75" r="0.499"/>
  <circle cy="-36.957" style="fill:#EC008C;" cx="94" r="0.499"/>
  <circle cy="-39.457" style="fill:#EC008C;" cx="88.25" r="0.499"/>
  <circle cy="-43.207" style="fill:#EC008C;" cx="81.75" r="0.499"/>
  <circle cy="-47.207" style="fill:#EC008C;" cx="77.75" r="0.499"/>
  <circle cy="-52.707" style="fill:#EC008C;" cx="73.75" r="0.499"/>
  <circle cy="-22.457" style="fill:#EC008C;" cx="104.25" r="0.499"/>
  <circle cy="-26.707" style="fill:#EC008C;" cx="107.75" r="0.499"/>
  <circle cy="-20.957" style="fill:#EC008C;" cx="109.5" r="0.499"/>
  <circle cy="-17.707" style="fill:#EC008C;" cx="114" r="0.499"/>
  <circle cy="-23.207" style="fill:#EC008C;" cx="114" r="0.499"/>
  <circle cy="-37.207" style="fill:#EC008C;" cx="103.75" r="0.499"/>
  <circle cy="-18.543" style="fill:#EC008C;" cx="87.25" r="0.499"/>
  <circle cy="-21" style="fill:#EC008C;" cx="82.543" r="0.499"/>
  <circle cy="-22.457" style="fill:#EC008C;" cx="74" r="0.499"/>
  <circle cy="-26.871" style="fill:#EC008C;" cx="71.5" r="0.499"/>
  <circle cy="-24.957" style="fill:#EC008C;" cx="64.75" r="0.499"/>
  <circle cy="-21.207" style="fill:#EC008C;" cx="59.75" r="0.499"/>
  <circle cy="-21.914" style="fill:#EC008C;" cx="54.043" r="0.499"/>
  <circle cy="-16.707" style="fill:#EC008C;" cx="48.75" r="0.499"/>
  <circle cy="-10.957" style="fill:#EC008C;" cx="46" r="0.499"/>
  <circle cy="-7.207" style="fill:#EC008C;" cx="41.5" r="0.499"/>
  <circle cy="-2.957" style="fill:#EC008C;" cx="48.25" r="0.499"/>
  <circle cy="-8.707" style="fill:#EC008C;" cx="52" r="0.499"/>
  <circle cy="-12.457" style="fill:#EC008C;" cx="57.75" r="0.499"/>
  <circle cy="-13.707" style="fill:#EC008C;" cx="52.667" r="0.499"/>
  <circle cy="-16.457" style="fill:#EC008C;" cx="63" r="0.499"/>
  <circle cy="-18.957" style="fill:#EC008C;" cx="66.5" r="0.499"/>
  <circle cy="-16.957" style="fill:#EC008C;" cx="78" r="0.499"/>
  <circle cy="-12.207" style="fill:#EC008C;" cx="89" r="0.499"/>
  <circle cy="-7.207" style="fill:#EC008C;" cx="95" r="0.499"/>
  <circle cy="-4.707" style="fill:#EC008C;" cx="101.365" r="0.499"/>
  <circle cy="-3.707" style="fill:#EC008C;" cx="91.5" r="0.499"/>
  <circle cy="-7.207" style="fill:#EC008C;" cx="85.75" r="0.499"/>
  <circle cy="-11.457" style="fill:#EC008C;" cx="81.25" r="0.499"/>
  <circle cy="-13.207" style="fill:#EC008C;" cx="75.25" r="0.499"/>
  <circle cy="-15.457" style="fill:#EC008C;" cx="70.25" r="0.499"/>
  <circle cy="-9.957" style="fill:#EC008C;" cx="66.5" r="0.499"/>
  <circle cy="-7.457" style="fill:#EC008C;" cx="60.25" r="0.499"/>
  <circle cy="-3.273" style="fill:#EC008C;" cx="56.587" r="0.499"/>
  <circle cy="-3.707" style="fill:#EC008C;" cx="62" r="0.499"/>
  <circle cy="-4.707" style="fill:#EC008C;" cx="69.5" r="0.499"/>
  <circle cy="-7.207" style="fill:#EC008C;" cx="77.5" r="0.499"/>
  <circle cy="-73.207" style="fill:#EC008C;" cx="70" r="0.499"/>
  <circle cy="-83.707" style="fill:#EC008C;" cx="81.25" r="0.499"/>
  <circle cy="-84.874" style="fill:#EC008C;" cx="74.666" r="0.499"/>
  <circle cy="-79.707" style="fill:#EC008C;" cx="85.25" r="0.499"/>
  <circle cy="-84.957" style="fill:#EC008C;" cx="90" r="0.499"/>
  <circle cy="-90.957" style="fill:#EC008C;" cx="93.75" r="0.499"/>
  <circle cy="-86.957" style="fill:#EC008C;" cx="101.75" r="0.499"/>
  <circle cy="-96.707" style="fill:#EC008C;" cx="97.75" r="0.499"/>
  <circle cy="-93.957" style="fill:#EC008C;" cx="101.25" r="0.499"/>
  <circle cy="-92.957" style="fill:#EC008C;" cx="106.75" r="0.499"/>
  <circle cy="-92.75" style="fill:#EC008C;" cx="111.793" r="0.499"/>
  <circle cy="-87.457" style="fill:#EC008C;" cx="111.25" r="0.499"/>
  <circle cy="-91.207" style="fill:#EC008C;" cx="119.25" r="0.499"/>
  <circle cy="-92.957" style="fill:#EC008C;" cx="124" r="0.499"/>
  <circle cy="-97.457" style="fill:#EC008C;" cx="130" r="0.499"/>
  <circle cy="-100.333" style="fill:#EC008C;" cx="136.543" r="0.499"/>
  <circle cy="-103.374" style="fill:#EC008C;" cx="142.667" r="0.499"/>
  <circle cy="-93.207" style="fill:#EC008C;" cx="139.5" r="0.499"/>
  <circle cy="-89.374" style="fill:#EC008C;" cx="142.667" r="0.499"/>
  <circle cy="-86.457" style="fill:#EC008C;" cx="138.25" r="0.499"/>
  <circle cy="-84.04" style="fill:#EC008C;" cx="142.667" r="0.499"/>
  <circle cy="-90.957" style="fill:#EC008C;" cx="131.5" r="0.499"/>
  <circle cy="-88.957" style="fill:#EC008C;" cx="128" r="0.499"/>
  <circle cy="-83.707" style="fill:#EC008C;" cx="125.333" r="0.499"/>
  <circle cy="-86.707" style="fill:#EC008C;" cx="121.75" r="0.499"/>
  <circle cy="-82.957" style="fill:#EC008C;" cx="117.75" r="0.499"/>
  <circle cy="-80.207" style="fill:#EC008C;" cx="112" r="0.499"/>
  <circle cy="-84.207" style="fill:#EC008C;" cx="106.25" r="0.499"/>
  <circle cy="-86.207" style="fill:#EC008C;" cx="97" r="0.499"/>
  <circle cy="-81.707" style="fill:#EC008C;" cx="92.75" r="0.499"/>
  <circle cy="-75.207" style="fill:#EC008C;" cx="87.75" r="0.499"/>
  <circle cy="-71.207" style="fill:#EC008C;" cx="85" r="0.499"/>
  <circle cy="-65.457" style="fill:#EC008C;" cx="82" r="0.499"/>
  <circle cy="-60.457" style="fill:#EC008C;" cx="88" r="0.499"/>
  <circle cy="-62.707" style="fill:#EC008C;" cx="91.333" r="0.499"/>
  <circle cy="-65.207" style="fill:#EC008C;" cx="96" r="0.499"/>
  <circle cy="-67.707" style="fill:#EC008C;" cx="89.75" r="0.499"/>
  <circle cy="-72.957" style="fill:#EC008C;" cx="92" r="0.499"/>
  <circle cy="-78.207" style="fill:#EC008C;" cx="95.25" r="0.499"/>
  <circle cy="-73.207" style="fill:#EC008C;" cx="101.75" r="0.499"/>
  <circle cy="-68.957" style="fill:#EC008C;" cx="97.5" r="0.499"/>
  <circle cy="-66.664" style="fill:#EC008C;" cx="105.707" r="0.499"/>
  <circle cy="-61.457" style="fill:#EC008C;" cx="100.75" r="0.499"/>
  <circle cy="-61.207" style="fill:#EC008C;" cx="107.75" r="0.499"/>
  <circle cy="-57.664" style="fill:#EC008C;" cx="104.957" r="0.499"/>
  <circle cy="-54.957" style="fill:#EC008C;" cx="111.25" r="0.499"/>
  <circle cy="-53.457" style="fill:#EC008C;" cx="117.25" r="0.499"/>
  <circle cy="-56.957" style="fill:#EC008C;" cx="124" r="0.499"/>
  <circle cy="-54.957" style="fill:#EC008C;" cx="130.25" r="0.499"/>
  <circle cy="-50.957" style="fill:#EC008C;" cx="136.75" r="0.499"/>
  <circle cy="-51.207" style="fill:#EC008C;" cx="141.5" r="0.499"/>
  <circle cy="-46.707" style="fill:#EC008C;" cx="142.75" r="0.499"/>
  <circle cy="-41.207" style="fill:#EC008C;" cx="139.75" r="0.499"/>
  <circle cy="-43.707" style="fill:#EC008C;" cx="132.333" r="0.499"/>
  <circle cy="-45.457" style="fill:#EC008C;" cx="135.75" r="0.499"/>
  <circle cy="-47.207" style="fill:#EC008C;" cx="128" r="0.499"/>
  <circle cy="-50.707" style="fill:#EC008C;" cx="123.25" r="0.499"/>
  <circle cy="-45.207" style="fill:#EC008C;" cx="120.25" r="0.499"/>
  <circle cy="-47.457" style="fill:#EC008C;" cx="113.75" r="0.499"/>
  <circle cy="-47.707" style="fill:#EC008C;" cx="109.5" r="0.499"/>
  <circle cy="-50.957" style="fill:#EC008C;" cx="104" r="0.499"/>
  <circle cy="-55.207" style="fill:#EC008C;" cx="98" r="0.499"/>
  <circle cy="-52.457" style="fill:#EC008C;" cx="92.25" r="0.499"/>
  <circle cy="-57.707" style="fill:#EC008C;" cx="94.333" r="0.499"/>
  <circle cy="-59.707" style="fill:#EC008C;" cx="81.5" r="0.499"/>
  <circle cy="-67.207" style="fill:#EC008C;" cx="73.75" r="0.499"/>
  <circle cy="-61.207" style="fill:#EC008C;" cx="73.25" r="0.499"/>
  <circle cy="-54.375" style="fill:#EC008C;" cx="69.666" r="0.499"/>
  <circle cy="-71.707" style="fill:#EC008C;" cx="76.25" r="0.499"/>
  <circle cy="-75.707" style="fill:#EC008C;" cx="79.666" r="0.499"/>
  <circle cy="-81.207" style="fill:#EC008C;" cx="102" r="0.499"/>
  <circle cy="-78.457" style="fill:#EC008C;" cx="105" r="0.499"/>
  <circle cy="-69.707" style="fill:#EC008C;" cx="110" r="0.499"/>
  <circle cy="-73.707" style="fill:#EC008C;" cx="114.75" r="0.499"/>
  <circle cy="-76.957" style="fill:#EC008C;" cx="117.5" r="0.499"/>
  <circle cy="-79.207" style="fill:#EC008C;" cx="121.75" r="0.499"/>
  <circle cy="-79.707" style="fill:#EC008C;" cx="129.75" r="0.499"/>
  <circle cy="-83.457" style="fill:#EC008C;" cx="133.75" r="0.499"/>
  <circle cy="-80.039" style="fill:#EC008C;" cx="138.298" r="0.499"/>
  <circle cy="-75.207" style="fill:#EC008C;" cx="136" r="0.499"/>
  <circle cy="-73.457" style="fill:#EC008C;" cx="143" r="0.499"/>
  <circle cy="-67.707" style="fill:#EC008C;" cx="141.75" r="0.499"/>
  <circle cy="-56.04" style="fill:#EC008C;" cx="143.333" r="0.499"/>
  <circle cy="-71.457" style="fill:#EC008C;" cx="132" r="0.499"/>
  <circle cy="-75.707" style="fill:#EC008C;" cx="125" r="0.499"/>
  <circle cy="-71.207" style="fill:#EC008C;" cx="121.5" r="0.499"/>
  <circle cy="-67.207" style="fill:#EC008C;" cx="116.25" r="0.499"/>
  <circle cy="-63.207" style="fill:#EC008C;" cx="111" r="0.499"/>
  <circle cy="-61.207" style="fill:#EC008C;" cx="117.75" r="0.499"/>
  <circle cy="-57.707" style="fill:#EC008C;" cx="114.333" r="0.499"/>
  <circle cy="-49.375" style="fill:#EC008C;" cx="90.333" r="0.499"/>
  <circle cy="-65.457" style="fill:#EC008C;" cx="123" r="0.499"/>
  <circle cy="-68.707" style="fill:#EC008C;" cx="127.75" r="0.499"/>
  <circle cy="-62.957" style="fill:#EC008C;" cx="132.75" r="0.499"/>
  <circle cy="-65.957" style="fill:#EC008C;" cx="136.25" r="0.499"/>
  <circle cy="-60.707" style="fill:#EC008C;" cx="128.5" r="0.499"/>
  <circle cy="-56.957" style="fill:#EC008C;" cx="135.5" r="0.499"/>
  <circle cy="-58.707" style="fill:#EC008C;" cx="140.25" r="0.499"/>
  <circle cy="-89.207" style="fill:#EC008C;" cx="82.25" r="0.499"/>
  <circle cy="-93.207" style="fill:#EC008C;" cx="89.25" r="0.499"/>
  <circle cy="-79.04" style="fill:#EC008C;" cx="71.666" r="0.499"/>
  <circle cy="-78.207" style="fill:#EC008C;" cx="65.333" r="0.499"/>
  <circle cy="-77.207" style="fill:#EC008C;" cx="45.5" r="0.499"/>
  <circle cy="-70.624" style="fill:#EC008C;" cx="52.167" r="0.499"/>
  <circle cy="-67.04" style="fill:#EC008C;" cx="33" r="0.499"/>
  <circle cy="-62.04" style="fill:#EC008C;" cx="32" r="0.499"/>
  <circle cy="-85.962" style="fill:#EC008C;" cx="68.774" r="0.499"/>
  <circle cy="-96.457" style="fill:#EC008C;" cx="75.75" r="0.499"/>
  <circle cy="-94.457" style="fill:#EC008C;" cx="70" r="0.499"/>
  <circle cy="-90.457" style="fill:#EC008C;" cx="66.25" r="0.499"/>
  <circle cy="-88.957" style="fill:#EC008C;" cx="60" r="0.499"/>
  <circle cy="-84.457" style="fill:#EC008C;" cx="55.75" r="0.499"/>
  <circle cy="-81.621" style="fill:#EC008C;" cx="50.75" r="0.499"/>
  <circle cy="-88.707" style="fill:#EC008C;" cx="50" r="0.499"/>
  <circle cy="-82.624" style="fill:#EC008C;" cx="41.167" r="0.499"/>
  <circle cy="-105.04" style="fill:#EC008C;" cx="78.333" r="0.499"/>
  <circle cy="-102.25" style="fill:#EC008C;" cx="72.793" r="0.499"/>
  <circle cy="-102.374" style="fill:#EC008C;" cx="66" r="0.499"/>
  <circle cy="-96.707" style="fill:#EC008C;" cx="64" r="0.499"/>
  <circle cy="-99" style="fill:#EC008C;" cx="68.959" r="0.499"/>
  <circle cy="-95.207" style="fill:#EC008C;" cx="58.25" r="0.499"/>
  <circle cy="-91.04" style="fill:#EC008C;" cx="54.667" r="0.499"/>
  <circle cy="-101.04" style="fill:#EC008C;" cx="60.667" r="0.499"/>
  <circle cy="-99.36" style="fill:#EC008C;" cx="55.333" r="0.499"/>
  <circle cy="-95.04" style="fill:#EC008C;" cx="50" r="0.499"/>
  <circle cy="-92.457" style="fill:#EC008C;" cx="43.5" r="0.499"/>
  <circle cy="-88.374" style="fill:#EC008C;" cx="37.667" r="0.499"/>
  <circle cy="-91.124" style="fill:#EC008C;" cx="30.667" r="0.499"/>
  <circle cy="-90.207" style="fill:#EC008C;" cx="21" r="0.499"/>
  <circle cy="-93.457" style="fill:#EC008C;" cx="16" r="0.499"/>
  <circle cy="-97.707" style="fill:#EC008C;" cx="8" r="0.499"/>
  <circle cy="-93.04" style="fill:#EC008C;" cx="3" r="0.499"/>
  <circle cy="-91.207" style="fill:#EC008C;" cx="7.75" r="0.499"/>
  <circle cy="-86.957" style="fill:#EC008C;" cx="5.75" r="0.499"/>
  <circle cy="-86.957" style="fill:#EC008C;" cx="13.75" r="0.499"/>
  <circle cy="-85.207" style="fill:#EC008C;" cx="20" r="0.499"/>
  <circle cy="-82.957" style="fill:#EC008C;" cx="26" r="0.499"/>
  <circle cy="-84.54" style="fill:#EC008C;" cx="34.333" r="0.499"/>
  <circle cy="-94.04" style="fill:#EC008C;" cx="38" r="0.499"/>
  <circle cy="-99.457" style="fill:#EC008C;" cx="45" r="0.499"/>
  <circle cy="-100.707" style="fill:#EC008C;" cx="38.333" r="0.499"/>
  <circle cy="-103.207" style="fill:#EC008C;" cx="42.5" r="0.499"/>
  <circle cy="-100.374" style="fill:#EC008C;" cx="32.667" r="0.499"/>
  <circle cy="-101.04" style="fill:#EC008C;" cx="26" r="0.499"/>
  <circle cy="-103.374" style="fill:#EC008C;" cx="8" r="0.499"/>
  <circle cy="-100.374" style="fill:#EC008C;" cx="2" r="0.499"/>
  <circle cy="-130.707" style="fill:#EC008C;" cx="137.333" r="0.499"/>
  <circle cy="-136.374" style="fill:#EC008C;" cx="136.667" r="0.499"/>
  <circle cy="-134.04" style="fill:#EC008C;" cx="143" r="0.499"/>
  <circle cy="-143.707" style="fill:#EC008C;" cx="131" r="0.499"/>
  <circle cy="-141.374" style="fill:#EC008C;" cx="137.333" r="0.499"/>
  <circle cy="-140.374" style="fill:#EC008C;" cx="143" r="0.499"/>
  <circle cy="-2.707" style="fill:#EC008C;" cx="75.801" r="0.499"/>
  <circle cy="-3.273" style="fill:#EC008C;" cx="83.702" r="0.499"/>
  <circle cy="-119.957" style="fill:#EC008C;" cx="54" r="0.499"/>
  <circle cy="-124.333" style="fill:#EC008C;" cx="51.626" r="0.499"/>
  <circle cy="-143.04" style="fill:#EC008C;" cx="5.333" r="0.499"/>
 </g>
</svg>
