<?xml version="1.0"?>
<!-- Converted with SVG Converter - Version 0.9.5 (Compiled Fri Feb 21 09:53:38 2020) - Copyright (C) 2011 Nokia -->
<svg xmlns="http://www.w3.org/2000/svg" width="56" x="0px" baseProfile="tiny" height="56.016" xmlns:xlink="http://www.w3.org/1999/xlink" y="0px" xml:space="preserve" version="1.1" viewBox="1 -57.016 56 56.016">
 <g>
  <rect width="56" x="1" height="56.016" y="-57.016" style="fill:none;"/>
  <rect width="56" x="1" height="56.016" y="-57.016"/>
  <circle r="0.499" style="fill-rule:evenodd;clip-rule:evenodd;fill:#FFFFFF;" cy="-54.977" cx="2.994"/>
  <circle r="0.499" style="fill-rule:evenodd;clip-rule:evenodd;fill:#FFFFFF;" cy="-54.977" cx="6.994"/>
  <circle r="0.499" style="fill-rule:evenodd;clip-rule:evenodd;fill:#FFFFFF;" cy="-54.977" cx="10.994"/>
  <circle r="0.499" style="fill-rule:evenodd;clip-rule:evenodd;fill:#FFFFFF;" cy="-54.977" cx="14.994"/>
  <circle r="0.499" style="fill-rule:evenodd;clip-rule:evenodd;fill:#FFFFFF;" cy="-54.977" cx="18.994"/>
  <circle r="0.499" style="fill-rule:evenodd;clip-rule:evenodd;fill:#FFFFFF;" cy="-54.977" cx="22.994"/>
  <circle r="0.499" style="fill-rule:evenodd;clip-rule:evenodd;fill:#FFFFFF;" cy="-54.977" cx="26.994"/>
  <circle r="0.499" style="fill-rule:evenodd;clip-rule:evenodd;fill:#FFFFFF;" cy="-54.977" cx="30.994"/>
  <circle r="0.499" style="fill-rule:evenodd;clip-rule:evenodd;fill:#FFFFFF;" cy="-54.977" cx="34.994"/>
  <circle r="0.499" style="fill-rule:evenodd;clip-rule:evenodd;fill:#FFFFFF;" cy="-54.977" cx="38.994"/>
  <circle r="0.499" style="fill-rule:evenodd;clip-rule:evenodd;fill:#FFFFFF;" cy="-54.977" cx="42.994"/>
  <circle r="0.499" style="fill-rule:evenodd;clip-rule:evenodd;fill:#FFFFFF;" cy="-54.977" cx="46.994"/>
  <circle r="0.499" style="fill-rule:evenodd;clip-rule:evenodd;fill:#FFFFFF;" cy="-54.977" cx="50.994"/>
  <circle r="0.499" style="fill-rule:evenodd;clip-rule:evenodd;fill:#FFFFFF;" cy="-54.977" cx="54.994"/>
  <circle r="0.499" style="fill-rule:evenodd;clip-rule:evenodd;fill:#FFFFFF;" cy="-50.998" cx="2.994"/>
  <circle r="0.499" style="fill-rule:evenodd;clip-rule:evenodd;fill:#FFFFFF;" cy="-50.998" cx="6.994"/>
  <circle r="0.499" style="fill-rule:evenodd;clip-rule:evenodd;fill:#FFFFFF;" cy="-50.998" cx="10.994"/>
  <circle r="0.499" style="fill-rule:evenodd;clip-rule:evenodd;fill:#FFFFFF;" cy="-50.998" cx="14.994"/>
  <circle r="0.499" style="fill-rule:evenodd;clip-rule:evenodd;fill:#FFFFFF;" cy="-50.998" cx="18.994"/>
  <circle r="0.499" style="fill-rule:evenodd;clip-rule:evenodd;fill:#FFFFFF;" cy="-50.998" cx="22.994"/>
  <circle r="0.499" style="fill-rule:evenodd;clip-rule:evenodd;fill:#FFFFFF;" cy="-50.998" cx="26.994"/>
  <circle r="0.499" style="fill-rule:evenodd;clip-rule:evenodd;fill:#FFFFFF;" cy="-50.998" cx="30.994"/>
  <circle r="0.499" style="fill-rule:evenodd;clip-rule:evenodd;fill:#FFFFFF;" cy="-50.998" cx="34.994"/>
  <circle r="0.499" style="fill-rule:evenodd;clip-rule:evenodd;fill:#FFFFFF;" cy="-50.998" cx="38.994"/>
  <circle r="0.499" style="fill-rule:evenodd;clip-rule:evenodd;fill:#FFFFFF;" cy="-50.998" cx="42.994"/>
  <circle r="0.499" style="fill-rule:evenodd;clip-rule:evenodd;fill:#FFFFFF;" cy="-50.998" cx="46.994"/>
  <circle r="0.499" style="fill-rule:evenodd;clip-rule:evenodd;fill:#FFFFFF;" cy="-50.998" cx="50.994"/>
  <circle r="0.499" style="fill-rule:evenodd;clip-rule:evenodd;fill:#FFFFFF;" cy="-50.998" cx="54.994"/>
  <circle r="0.499" style="fill-rule:evenodd;clip-rule:evenodd;fill:#FFFFFF;" cy="-46.998" cx="2.994"/>
  <circle r="0.499" style="fill-rule:evenodd;clip-rule:evenodd;fill:#FFFFFF;" cy="-46.998" cx="6.994"/>
  <circle r="0.499" style="fill-rule:evenodd;clip-rule:evenodd;fill:#FFFFFF;" cy="-46.998" cx="10.994"/>
  <circle r="0.499" style="fill-rule:evenodd;clip-rule:evenodd;fill:#FFFFFF;" cy="-46.998" cx="14.994"/>
  <circle r="0.499" style="fill-rule:evenodd;clip-rule:evenodd;fill:#FFFFFF;" cy="-46.998" cx="18.994"/>
  <circle r="0.499" style="fill-rule:evenodd;clip-rule:evenodd;fill:#FFFFFF;" cy="-46.998" cx="22.994"/>
  <circle r="0.499" style="fill-rule:evenodd;clip-rule:evenodd;fill:#FFFFFF;" cy="-46.998" cx="26.994"/>
  <circle r="0.499" style="fill-rule:evenodd;clip-rule:evenodd;fill:#FFFFFF;" cy="-46.998" cx="30.994"/>
  <circle r="0.499" style="fill-rule:evenodd;clip-rule:evenodd;fill:#FFFFFF;" cy="-46.998" cx="34.994"/>
  <circle r="0.499" style="fill-rule:evenodd;clip-rule:evenodd;fill:#FFFFFF;" cy="-46.998" cx="38.994"/>
  <circle r="0.499" style="fill-rule:evenodd;clip-rule:evenodd;fill:#FFFFFF;" cy="-46.998" cx="42.994"/>
  <circle r="0.499" style="fill-rule:evenodd;clip-rule:evenodd;fill:#FFFFFF;" cy="-46.998" cx="46.994"/>
  <circle r="0.499" style="fill-rule:evenodd;clip-rule:evenodd;fill:#FFFFFF;" cy="-46.998" cx="50.994"/>
  <circle r="0.499" style="fill-rule:evenodd;clip-rule:evenodd;fill:#FFFFFF;" cy="-46.998" cx="54.994"/>
  <circle r="0.499" style="fill-rule:evenodd;clip-rule:evenodd;fill:#FFFFFF;" cy="-42.998" cx="2.994"/>
  <circle r="0.499" style="fill-rule:evenodd;clip-rule:evenodd;fill:#FFFFFF;" cy="-42.998" cx="6.994"/>
  <circle r="0.499" style="fill-rule:evenodd;clip-rule:evenodd;fill:#FFFFFF;" cy="-42.998" cx="10.994"/>
  <circle r="0.499" style="fill-rule:evenodd;clip-rule:evenodd;fill:#FFFFFF;" cy="-42.998" cx="14.994"/>
  <circle r="0.499" style="fill-rule:evenodd;clip-rule:evenodd;fill:#FFFFFF;" cy="-42.998" cx="18.994"/>
  <circle r="0.499" style="fill-rule:evenodd;clip-rule:evenodd;fill:#FFFFFF;" cy="-42.998" cx="22.994"/>
  <circle r="0.499" style="fill-rule:evenodd;clip-rule:evenodd;fill:#FFFFFF;" cy="-42.998" cx="26.994"/>
  <circle r="0.499" style="fill-rule:evenodd;clip-rule:evenodd;fill:#FFFFFF;" cy="-42.998" cx="30.994"/>
  <circle r="0.499" style="fill-rule:evenodd;clip-rule:evenodd;fill:#FFFFFF;" cy="-42.998" cx="34.994"/>
  <circle r="0.499" style="fill-rule:evenodd;clip-rule:evenodd;fill:#FFFFFF;" cy="-42.998" cx="38.994"/>
  <circle r="0.499" style="fill-rule:evenodd;clip-rule:evenodd;fill:#FFFFFF;" cy="-42.998" cx="42.994"/>
  <circle r="0.499" style="fill-rule:evenodd;clip-rule:evenodd;fill:#FFFFFF;" cy="-42.998" cx="46.994"/>
  <circle r="0.499" style="fill-rule:evenodd;clip-rule:evenodd;fill:#FFFFFF;" cy="-42.998" cx="50.994"/>
  <circle r="0.499" style="fill-rule:evenodd;clip-rule:evenodd;fill:#FFFFFF;" cy="-42.998" cx="54.994"/>
  <circle r="0.499" style="fill-rule:evenodd;clip-rule:evenodd;fill:#FFFFFF;" cy="-39.061" cx="2.994"/>
  <circle r="0.499" style="fill-rule:evenodd;clip-rule:evenodd;fill:#FFFFFF;" cy="-39.061" cx="6.994"/>
  <circle r="0.499" style="fill-rule:evenodd;clip-rule:evenodd;fill:#FFFFFF;" cy="-39.061" cx="10.994"/>
  <circle r="0.499" style="fill-rule:evenodd;clip-rule:evenodd;fill:#FFFFFF;" cy="-39.061" cx="14.994"/>
  <circle r="0.499" style="fill-rule:evenodd;clip-rule:evenodd;fill:#FFFFFF;" cy="-39.061" cx="18.994"/>
  <circle r="0.499" style="fill-rule:evenodd;clip-rule:evenodd;fill:#FFFFFF;" cy="-39.061" cx="22.994"/>
  <circle r="0.499" style="fill-rule:evenodd;clip-rule:evenodd;fill:#FFFFFF;" cy="-39.061" cx="26.994"/>
  <circle r="0.499" style="fill-rule:evenodd;clip-rule:evenodd;fill:#FFFFFF;" cy="-39.061" cx="30.994"/>
  <circle r="0.499" style="fill-rule:evenodd;clip-rule:evenodd;fill:#FFFFFF;" cy="-39.061" cx="34.994"/>
  <circle r="0.499" style="fill:#FFFFFF;" cy="-39.061" cx="38.994"/>
  <circle r="0.499" style="fill-rule:evenodd;clip-rule:evenodd;fill:#FFFFFF;" cy="-39.061" cx="42.994"/>
  <circle r="0.499" style="fill-rule:evenodd;clip-rule:evenodd;fill:#FFFFFF;" cy="-39.061" cx="46.994"/>
  <circle r="0.499" style="fill-rule:evenodd;clip-rule:evenodd;fill:#FFFFFF;" cy="-39.061" cx="50.994"/>
  <circle r="0.499" style="fill-rule:evenodd;clip-rule:evenodd;fill:#FFFFFF;" cy="-39.061" cx="54.994"/>
  <circle r="0.499" style="fill-rule:evenodd;clip-rule:evenodd;fill:#FFFFFF;" cy="-34.977" cx="2.994"/>
  <circle r="0.499" style="fill-rule:evenodd;clip-rule:evenodd;fill:#FFFFFF;" cy="-34.977" cx="6.994"/>
  <circle r="0.499" style="fill-rule:evenodd;clip-rule:evenodd;fill:#FFFFFF;" cy="-34.977" cx="10.994"/>
  <circle r="0.499" style="fill-rule:evenodd;clip-rule:evenodd;fill:#FFFFFF;" cy="-34.977" cx="14.994"/>
  <circle r="0.499" style="fill-rule:evenodd;clip-rule:evenodd;fill:#FFFFFF;" cy="-34.977" cx="18.994"/>
  <circle r="0.499" style="fill-rule:evenodd;clip-rule:evenodd;fill:#FFFFFF;" cy="-34.977" cx="22.994"/>
  <circle r="0.499" style="fill-rule:evenodd;clip-rule:evenodd;fill:#FFFFFF;" cy="-34.977" cx="26.994"/>
  <circle r="0.499" style="fill-rule:evenodd;clip-rule:evenodd;fill:#FFFFFF;" cy="-34.977" cx="30.994"/>
  <circle r="0.499" style="fill-rule:evenodd;clip-rule:evenodd;fill:#FFFFFF;" cy="-34.977" cx="34.994"/>
  <circle r="0.499" style="fill-rule:evenodd;clip-rule:evenodd;fill:#FFFFFF;" cy="-34.977" cx="38.994"/>
  <circle r="0.499" style="fill-rule:evenodd;clip-rule:evenodd;fill:#FFFFFF;" cy="-34.977" cx="42.994"/>
  <circle r="0.499" style="fill-rule:evenodd;clip-rule:evenodd;fill:#FFFFFF;" cy="-34.977" cx="46.994"/>
  <circle r="0.499" style="fill-rule:evenodd;clip-rule:evenodd;fill:#FFFFFF;" cy="-34.977" cx="50.994"/>
  <circle r="0.499" style="fill-rule:evenodd;clip-rule:evenodd;fill:#FFFFFF;" cy="-34.977" cx="54.994"/>
  <circle r="0.499" style="fill-rule:evenodd;clip-rule:evenodd;fill:#FFFFFF;" cy="-30.977" cx="2.994"/>
  <circle r="0.499" style="fill-rule:evenodd;clip-rule:evenodd;fill:#FFFFFF;" cy="-30.977" cx="6.994"/>
  <circle r="0.499" style="fill-rule:evenodd;clip-rule:evenodd;fill:#FFFFFF;" cy="-30.977" cx="10.994"/>
  <circle r="0.499" style="fill-rule:evenodd;clip-rule:evenodd;fill:#FFFFFF;" cy="-30.977" cx="14.994"/>
  <circle r="0.499" style="fill-rule:evenodd;clip-rule:evenodd;fill:#FFFFFF;" cy="-30.977" cx="18.994"/>
  <circle r="0.499" style="fill-rule:evenodd;clip-rule:evenodd;fill:#FFFFFF;" cy="-30.977" cx="22.994"/>
  <circle r="0.499" style="fill-rule:evenodd;clip-rule:evenodd;fill:#FFFFFF;" cy="-30.977" cx="26.994"/>
  <circle r="0.499" style="fill-rule:evenodd;clip-rule:evenodd;fill:#FFFFFF;" cy="-30.977" cx="30.994"/>
  <circle r="0.499" style="fill-rule:evenodd;clip-rule:evenodd;fill:#FFFFFF;" cy="-30.977" cx="34.994"/>
  <circle r="0.499" style="fill-rule:evenodd;clip-rule:evenodd;fill:#FFFFFF;" cy="-30.977" cx="38.994"/>
  <circle r="0.499" style="fill-rule:evenodd;clip-rule:evenodd;fill:#FFFFFF;" cy="-30.977" cx="42.994"/>
  <circle r="0.499" style="fill-rule:evenodd;clip-rule:evenodd;fill:#FFFFFF;" cy="-30.977" cx="46.994"/>
  <circle r="0.499" style="fill-rule:evenodd;clip-rule:evenodd;fill:#FFFFFF;" cy="-30.977" cx="50.994"/>
  <circle r="0.499" style="fill-rule:evenodd;clip-rule:evenodd;fill:#FFFFFF;" cy="-30.977" cx="54.994"/>
  <circle r="0.499" style="fill-rule:evenodd;clip-rule:evenodd;fill:#FFFFFF;" cy="-26.977" cx="2.994"/>
  <circle r="0.499" style="fill-rule:evenodd;clip-rule:evenodd;fill:#FFFFFF;" cy="-26.977" cx="6.994"/>
  <circle r="0.499" style="fill-rule:evenodd;clip-rule:evenodd;fill:#FFFFFF;" cy="-26.977" cx="10.994"/>
  <circle r="0.499" style="fill-rule:evenodd;clip-rule:evenodd;fill:#FFFFFF;" cy="-26.977" cx="14.994"/>
  <circle r="0.499" style="fill-rule:evenodd;clip-rule:evenodd;fill:#FFFFFF;" cy="-26.977" cx="18.994"/>
  <circle r="0.499" style="fill-rule:evenodd;clip-rule:evenodd;fill:#FFFFFF;" cy="-26.977" cx="22.994"/>
  <circle r="0.499" style="fill-rule:evenodd;clip-rule:evenodd;fill:#FFFFFF;" cy="-26.977" cx="26.994"/>
  <circle r="0.499" style="fill-rule:evenodd;clip-rule:evenodd;fill:#FFFFFF;" cy="-26.977" cx="30.994"/>
  <circle r="0.499" style="fill-rule:evenodd;clip-rule:evenodd;fill:#FFFFFF;" cy="-26.977" cx="34.994"/>
  <circle r="0.499" style="fill-rule:evenodd;clip-rule:evenodd;fill:#FFFFFF;" cy="-26.977" cx="38.994"/>
  <circle r="0.499" style="fill-rule:evenodd;clip-rule:evenodd;fill:#FFFFFF;" cy="-26.977" cx="42.994"/>
  <circle r="0.499" style="fill-rule:evenodd;clip-rule:evenodd;fill:#FFFFFF;" cy="-26.977" cx="46.994"/>
  <circle r="0.499" style="fill:#FFFFFF;" cy="-26.977" cx="50.994"/>
  <circle r="0.499" style="fill-rule:evenodd;clip-rule:evenodd;fill:#FFFFFF;" cy="-26.977" cx="54.994"/>
  <circle r="0.499" style="fill-rule:evenodd;clip-rule:evenodd;fill:#FFFFFF;" cy="-22.977" cx="2.994"/>
  <circle r="0.499" style="fill-rule:evenodd;clip-rule:evenodd;fill:#FFFFFF;" cy="-22.977" cx="6.994"/>
  <circle r="0.499" style="fill-rule:evenodd;clip-rule:evenodd;fill:#FFFFFF;" cy="-22.977" cx="10.994"/>
  <circle r="0.499" style="fill:#FFFFFF;" cy="-22.977" cx="14.994"/>
  <circle r="0.499" style="fill-rule:evenodd;clip-rule:evenodd;fill:#FFFFFF;" cy="-22.977" cx="18.994"/>
  <circle r="0.499" style="fill-rule:evenodd;clip-rule:evenodd;fill:#FFFFFF;" cy="-22.977" cx="22.994"/>
  <circle r="0.499" style="fill-rule:evenodd;clip-rule:evenodd;fill:#FFFFFF;" cy="-22.977" cx="26.994"/>
  <circle r="0.499" style="fill-rule:evenodd;clip-rule:evenodd;fill:#FFFFFF;" cy="-22.977" cx="30.994"/>
  <circle r="0.499" style="fill-rule:evenodd;clip-rule:evenodd;fill:#FFFFFF;" cy="-22.977" cx="34.994"/>
  <circle r="0.499" style="fill-rule:evenodd;clip-rule:evenodd;fill:#FFFFFF;" cy="-22.977" cx="38.994"/>
  <circle r="0.499" style="fill-rule:evenodd;clip-rule:evenodd;fill:#FFFFFF;" cy="-22.977" cx="42.994"/>
  <circle r="0.499" style="fill-rule:evenodd;clip-rule:evenodd;fill:#FFFFFF;" cy="-22.977" cx="46.994"/>
  <circle r="0.499" style="fill-rule:evenodd;clip-rule:evenodd;fill:#FFFFFF;" cy="-22.977" cx="50.994"/>
  <circle r="0.499" style="fill-rule:evenodd;clip-rule:evenodd;fill:#FFFFFF;" cy="-22.977" cx="54.994"/>
  <circle r="0.499" style="fill-rule:evenodd;clip-rule:evenodd;fill:#FFFFFF;" cy="-18.977" cx="2.994"/>
  <circle r="0.499" style="fill-rule:evenodd;clip-rule:evenodd;fill:#FFFFFF;" cy="-18.977" cx="6.994"/>
  <circle r="0.499" style="fill-rule:evenodd;clip-rule:evenodd;fill:#FFFFFF;" cy="-18.977" cx="10.994"/>
  <circle r="0.499" style="fill-rule:evenodd;clip-rule:evenodd;fill:#FFFFFF;" cy="-18.977" cx="14.994"/>
  <circle r="0.499" style="fill-rule:evenodd;clip-rule:evenodd;fill:#FFFFFF;" cy="-18.977" cx="18.994"/>
  <circle r="0.499" style="fill-rule:evenodd;clip-rule:evenodd;fill:#FFFFFF;" cy="-18.977" cx="22.994"/>
  <circle r="0.499" style="fill-rule:evenodd;clip-rule:evenodd;fill:#FFFFFF;" cy="-18.977" cx="26.994"/>
  <circle r="0.499" style="fill-rule:evenodd;clip-rule:evenodd;fill:#FFFFFF;" cy="-18.977" cx="30.994"/>
  <circle r="0.499" style="fill-rule:evenodd;clip-rule:evenodd;fill:#FFFFFF;" cy="-18.977" cx="34.994"/>
  <circle r="0.499" style="fill-rule:evenodd;clip-rule:evenodd;fill:#FFFFFF;" cy="-18.977" cx="38.994"/>
  <circle r="0.499" style="fill-rule:evenodd;clip-rule:evenodd;fill:#FFFFFF;" cy="-18.977" cx="42.994"/>
  <circle r="0.499" style="fill-rule:evenodd;clip-rule:evenodd;fill:#FFFFFF;" cy="-18.977" cx="46.994"/>
  <circle r="0.499" style="fill-rule:evenodd;clip-rule:evenodd;fill:#FFFFFF;" cy="-18.977" cx="50.994"/>
  <circle r="0.499" style="fill-rule:evenodd;clip-rule:evenodd;fill:#FFFFFF;" cy="-18.977" cx="54.994"/>
  <circle r="0.499" style="fill:#FFFFFF;" cy="-14.977" cx="2.994"/>
  <circle r="0.499" style="fill-rule:evenodd;clip-rule:evenodd;fill:#FFFFFF;" cy="-14.977" cx="6.994"/>
  <circle r="0.499" style="fill-rule:evenodd;clip-rule:evenodd;fill:#FFFFFF;" cy="-14.977" cx="10.994"/>
  <circle r="0.499" style="fill-rule:evenodd;clip-rule:evenodd;fill:#FFFFFF;" cy="-14.977" cx="14.994"/>
  <circle r="0.499" style="fill-rule:evenodd;clip-rule:evenodd;fill:#FFFFFF;" cy="-14.977" cx="18.994"/>
  <circle r="0.499" style="fill-rule:evenodd;clip-rule:evenodd;fill:#FFFFFF;" cy="-14.977" cx="22.994"/>
  <circle r="0.499" style="fill-rule:evenodd;clip-rule:evenodd;fill:#FFFFFF;" cy="-14.977" cx="26.994"/>
  <circle r="0.499" style="fill:#FFFFFF;" cy="-14.977" cx="30.994"/>
  <circle r="0.499" style="fill-rule:evenodd;clip-rule:evenodd;fill:#FFFFFF;" cy="-14.977" cx="34.994"/>
  <circle r="0.499" style="fill-rule:evenodd;clip-rule:evenodd;fill:#FFFFFF;" cy="-14.977" cx="38.994"/>
  <circle r="0.499" style="fill-rule:evenodd;clip-rule:evenodd;fill:#FFFFFF;" cy="-14.977" cx="42.994"/>
  <circle r="0.499" style="fill-rule:evenodd;clip-rule:evenodd;fill:#FFFFFF;" cy="-14.977" cx="46.994"/>
  <circle r="0.499" style="fill-rule:evenodd;clip-rule:evenodd;fill:#FFFFFF;" cy="-14.977" cx="50.994"/>
  <circle r="0.499" style="fill-rule:evenodd;clip-rule:evenodd;fill:#FFFFFF;" cy="-14.977" cx="54.994"/>
  <circle r="0.499" style="fill-rule:evenodd;clip-rule:evenodd;fill:#FFFFFF;" cy="-10.977" cx="2.994"/>
  <circle r="0.499" style="fill-rule:evenodd;clip-rule:evenodd;fill:#FFFFFF;" cy="-10.977" cx="6.994"/>
  <circle r="0.499" style="fill-rule:evenodd;clip-rule:evenodd;fill:#FFFFFF;" cy="-10.977" cx="10.994"/>
  <circle r="0.499" style="fill-rule:evenodd;clip-rule:evenodd;fill:#FFFFFF;" cy="-10.977" cx="14.994"/>
  <circle r="0.499" style="fill:#FFFFFF;" cy="-10.977" cx="18.994"/>
  <circle r="0.499" style="fill-rule:evenodd;clip-rule:evenodd;fill:#FFFFFF;" cy="-10.977" cx="22.994"/>
  <circle r="0.499" style="fill-rule:evenodd;clip-rule:evenodd;fill:#FFFFFF;" cy="-10.977" cx="26.994"/>
  <circle r="0.499" style="fill-rule:evenodd;clip-rule:evenodd;fill:#FFFFFF;" cy="-10.977" cx="30.994"/>
  <circle r="0.499" style="fill-rule:evenodd;clip-rule:evenodd;fill:#FFFFFF;" cy="-10.977" cx="34.994"/>
  <circle r="0.499" style="fill-rule:evenodd;clip-rule:evenodd;fill:#FFFFFF;" cy="-10.977" cx="38.994"/>
  <circle r="0.499" style="fill-rule:evenodd;clip-rule:evenodd;fill:#FFFFFF;" cy="-10.977" cx="42.994"/>
  <circle r="0.499" style="fill-rule:evenodd;clip-rule:evenodd;fill:#FFFFFF;" cy="-10.977" cx="46.994"/>
  <circle r="0.499" style="fill-rule:evenodd;clip-rule:evenodd;fill:#FFFFFF;" cy="-10.977" cx="50.994"/>
  <circle r="0.499" style="fill-rule:evenodd;clip-rule:evenodd;fill:#FFFFFF;" cy="-10.977" cx="54.994"/>
  <circle r="0.499" style="fill-rule:evenodd;clip-rule:evenodd;fill:#FFFFFF;" cy="-6.977" cx="2.994"/>
  <circle r="0.499" style="fill-rule:evenodd;clip-rule:evenodd;fill:#FFFFFF;" cy="-6.977" cx="6.994"/>
  <circle r="0.499" style="fill-rule:evenodd;clip-rule:evenodd;fill:#FFFFFF;" cy="-6.977" cx="10.994"/>
  <circle r="0.499" style="fill-rule:evenodd;clip-rule:evenodd;fill:#FFFFFF;" cy="-6.977" cx="14.994"/>
  <circle r="0.499" style="fill-rule:evenodd;clip-rule:evenodd;fill:#FFFFFF;" cy="-6.977" cx="18.994"/>
  <circle r="0.499" style="fill-rule:evenodd;clip-rule:evenodd;fill:#FFFFFF;" cy="-6.977" cx="22.994"/>
  <circle r="0.499" style="fill-rule:evenodd;clip-rule:evenodd;fill:#FFFFFF;" cy="-6.977" cx="26.994"/>
  <circle r="0.499" style="fill-rule:evenodd;clip-rule:evenodd;fill:#FFFFFF;" cy="-6.977" cx="30.994"/>
  <circle r="0.499" style="fill-rule:evenodd;clip-rule:evenodd;fill:#FFFFFF;" cy="-6.977" cx="34.994"/>
  <circle r="0.499" style="fill-rule:evenodd;clip-rule:evenodd;fill:#FFFFFF;" cy="-6.977" cx="38.994"/>
  <circle r="0.499" style="fill-rule:evenodd;clip-rule:evenodd;fill:#FFFFFF;" cy="-6.977" cx="42.994"/>
  <circle r="0.499" style="fill-rule:evenodd;clip-rule:evenodd;fill:#FFFFFF;" cy="-6.977" cx="46.994"/>
  <circle r="0.499" style="fill-rule:evenodd;clip-rule:evenodd;fill:#FFFFFF;" cy="-6.977" cx="50.994"/>
  <circle r="0.499" style="fill-rule:evenodd;clip-rule:evenodd;fill:#FFFFFF;" cy="-6.977" cx="54.994"/>
  <circle r="0.499" style="fill-rule:evenodd;clip-rule:evenodd;fill:#FFFFFF;" cy="-2.977" cx="2.994"/>
  <circle r="0.499" style="fill-rule:evenodd;clip-rule:evenodd;fill:#FFFFFF;" cy="-2.977" cx="6.994"/>
  <circle r="0.499" style="fill-rule:evenodd;clip-rule:evenodd;fill:#FFFFFF;" cy="-2.977" cx="10.994"/>
  <circle r="0.499" style="fill-rule:evenodd;clip-rule:evenodd;fill:#FFFFFF;" cy="-2.977" cx="14.994"/>
  <circle r="0.499" style="fill-rule:evenodd;clip-rule:evenodd;fill:#FFFFFF;" cy="-2.977" cx="18.994"/>
  <circle r="0.499" style="fill-rule:evenodd;clip-rule:evenodd;fill:#FFFFFF;" cy="-2.977" cx="22.994"/>
  <circle r="0.499" style="fill-rule:evenodd;clip-rule:evenodd;fill:#FFFFFF;" cy="-2.977" cx="26.994"/>
  <circle r="0.499" style="fill-rule:evenodd;clip-rule:evenodd;fill:#FFFFFF;" cy="-2.977" cx="30.994"/>
  <circle r="0.499" style="fill-rule:evenodd;clip-rule:evenodd;fill:#FFFFFF;" cy="-2.977" cx="34.994"/>
  <circle r="0.499" style="fill-rule:evenodd;clip-rule:evenodd;fill:#FFFFFF;" cy="-2.977" cx="38.994"/>
  <circle r="0.499" style="fill-rule:evenodd;clip-rule:evenodd;fill:#FFFFFF;" cy="-2.977" cx="42.994"/>
  <circle r="0.499" style="fill-rule:evenodd;clip-rule:evenodd;fill:#FFFFFF;" cy="-2.977" cx="46.994"/>
  <circle r="0.499" style="fill-rule:evenodd;clip-rule:evenodd;fill:#FFFFFF;" cy="-2.977" cx="50.994"/>
  <circle r="0.499" style="fill-rule:evenodd;clip-rule:evenodd;fill:#FFFFFF;" cy="-2.977" cx="54.994"/>
 </g>
</svg>
