<?xml version="1.0"?>
<!-- Converted with SVG Converter - Version 0.9.5 (Compiled Fri Feb 21 09:53:38 2020) - Copyright (C) 2011 Nokia -->
<svg xmlns="http://www.w3.org/2000/svg" baseProfile="tiny" x="0px" version="1.1" xml:space="preserve" width="56" y="0px" xmlns:xlink="http://www.w3.org/1999/xlink" viewBox="1 -57.016 56 56.016" height="56.016">
 <g>
  <rect x="1" style="fill:none;" width="56" y="-57.016" height="56.016"/>
  <rect x="1" width="56" y="-57.016" height="56.016"/>
  <circle cx="2.994" cy="-54.977" r="0.499" style="fill-rule:evenodd;clip-rule:evenodd;fill:#FFFFFF;"/>
  <circle cx="6.994" cy="-54.977" r="0.499" style="fill-rule:evenodd;clip-rule:evenodd;fill:#FFFFFF;"/>
  <circle cx="10.994" cy="-54.977" r="0.499" style="fill-rule:evenodd;clip-rule:evenodd;fill:#FFFFFF;"/>
  <circle cx="14.994" cy="-54.977" r="0.499" style="fill-rule:evenodd;clip-rule:evenodd;fill:#FFFFFF;"/>
  <circle cx="18.994" cy="-54.977" r="0.499" style="fill-rule:evenodd;clip-rule:evenodd;fill:#FFFFFF;"/>
  <circle cx="22.994" cy="-54.977" r="0.499" style="fill-rule:evenodd;clip-rule:evenodd;fill:#FFFFFF;"/>
  <circle cx="26.994" cy="-54.977" r="0.499" style="fill-rule:evenodd;clip-rule:evenodd;fill:#FFFFFF;"/>
  <circle cx="30.994" cy="-54.977" r="0.499" style="fill-rule:evenodd;clip-rule:evenodd;fill:#FFFFFF;"/>
  <circle cx="34.994" cy="-54.977" r="0.499" style="fill-rule:evenodd;clip-rule:evenodd;fill:#FFFFFF;"/>
  <circle cx="38.994" cy="-54.977" r="0.499" style="fill-rule:evenodd;clip-rule:evenodd;fill:#FFFFFF;"/>
  <circle cx="42.994" cy="-54.977" r="0.499" style="fill-rule:evenodd;clip-rule:evenodd;fill:#FFFFFF;"/>
  <circle cx="46.994" cy="-54.977" r="0.499" style="fill-rule:evenodd;clip-rule:evenodd;fill:#FFFFFF;"/>
  <circle cx="50.994" cy="-54.977" r="0.499" style="fill-rule:evenodd;clip-rule:evenodd;fill:#FFFFFF;"/>
  <circle cx="54.994" cy="-54.977" r="0.499" style="fill-rule:evenodd;clip-rule:evenodd;fill:#FFFFFF;"/>
  <circle cx="2.994" cy="-50.998" r="0.499" style="fill-rule:evenodd;clip-rule:evenodd;fill:#FFFFFF;"/>
  <circle cx="6.994" cy="-50.998" r="0.499" style="fill-rule:evenodd;clip-rule:evenodd;fill:#FFFFFF;"/>
  <circle cx="10.994" cy="-50.998" r="0.499" style="fill-rule:evenodd;clip-rule:evenodd;fill:#FFFFFF;"/>
  <circle cx="14.994" cy="-50.998" r="0.499" style="fill-rule:evenodd;clip-rule:evenodd;fill:#FFFFFF;"/>
  <circle cx="18.994" cy="-50.998" r="0.499" style="fill-rule:evenodd;clip-rule:evenodd;fill:#FFFFFF;"/>
  <circle cx="22.994" cy="-50.998" r="0.499" style="fill-rule:evenodd;clip-rule:evenodd;fill:#FFFFFF;"/>
  <circle cx="26.994" cy="-50.998" r="0.499" style="fill-rule:evenodd;clip-rule:evenodd;fill:#FFFFFF;"/>
  <circle cx="30.994" cy="-50.998" r="0.499" style="fill-rule:evenodd;clip-rule:evenodd;fill:#FFFFFF;"/>
  <circle cx="34.994" cy="-50.998" r="0.499" style="fill-rule:evenodd;clip-rule:evenodd;fill:#FFFFFF;"/>
  <circle cx="38.994" cy="-50.998" r="0.499" style="fill-rule:evenodd;clip-rule:evenodd;fill:#FFFFFF;"/>
  <circle cx="42.994" cy="-50.998" r="0.499" style="fill-rule:evenodd;clip-rule:evenodd;fill:#FFFFFF;"/>
  <circle cx="46.994" cy="-50.998" r="0.499" style="fill-rule:evenodd;clip-rule:evenodd;fill:#FFFFFF;"/>
  <circle cx="50.994" cy="-50.998" r="0.499" style="fill-rule:evenodd;clip-rule:evenodd;fill:#FFFFFF;"/>
  <circle cx="54.994" cy="-50.998" r="0.499" style="fill-rule:evenodd;clip-rule:evenodd;fill:#FFFFFF;"/>
  <circle cx="2.994" cy="-46.998" r="0.499" style="fill-rule:evenodd;clip-rule:evenodd;fill:#FFFFFF;"/>
  <circle cx="6.994" cy="-46.998" r="0.499" style="fill-rule:evenodd;clip-rule:evenodd;fill:#FFFFFF;"/>
  <circle cx="10.994" cy="-46.998" r="0.499" style="fill-rule:evenodd;clip-rule:evenodd;fill:#FFFFFF;"/>
  <circle cx="14.994" cy="-46.998" r="0.499" style="fill-rule:evenodd;clip-rule:evenodd;fill:#FFFFFF;"/>
  <circle cx="18.994" cy="-46.998" r="0.499" style="fill-rule:evenodd;clip-rule:evenodd;fill:#FFFFFF;"/>
  <circle cx="22.994" cy="-46.998" r="0.499" style="fill-rule:evenodd;clip-rule:evenodd;fill:#FFFFFF;"/>
  <circle cx="26.994" cy="-46.998" r="0.499" style="fill-rule:evenodd;clip-rule:evenodd;fill:#FFFFFF;"/>
  <circle cx="30.994" cy="-46.998" r="0.499" style="fill-rule:evenodd;clip-rule:evenodd;fill:#FFFFFF;"/>
  <circle cx="34.994" cy="-46.998" r="0.499" style="fill-rule:evenodd;clip-rule:evenodd;fill:#FFFFFF;"/>
  <circle cx="38.994" cy="-46.998" r="0.499" style="fill-rule:evenodd;clip-rule:evenodd;fill:#FFFFFF;"/>
  <circle cx="42.994" cy="-46.998" r="0.499" style="fill-rule:evenodd;clip-rule:evenodd;fill:#FFFFFF;"/>
  <circle cx="46.994" cy="-46.998" r="0.499" style="fill-rule:evenodd;clip-rule:evenodd;fill:#FFFFFF;"/>
  <circle cx="50.994" cy="-46.998" r="0.499" style="fill-rule:evenodd;clip-rule:evenodd;fill:#FFFFFF;"/>
  <circle cx="54.994" cy="-46.998" r="0.499" style="fill-rule:evenodd;clip-rule:evenodd;fill:#FFFFFF;"/>
  <circle cx="2.994" cy="-42.998" r="0.499" style="fill-rule:evenodd;clip-rule:evenodd;fill:#FFFFFF;"/>
  <circle cx="6.994" cy="-42.998" r="0.499" style="fill-rule:evenodd;clip-rule:evenodd;fill:#FFFFFF;"/>
  <circle cx="10.994" cy="-42.998" r="0.499" style="fill-rule:evenodd;clip-rule:evenodd;fill:#FFFFFF;"/>
  <circle cx="14.994" cy="-42.998" r="0.499" style="fill-rule:evenodd;clip-rule:evenodd;fill:#FFFFFF;"/>
  <circle cx="18.994" cy="-42.998" r="0.499" style="fill-rule:evenodd;clip-rule:evenodd;fill:#FFFFFF;"/>
  <circle cx="22.994" cy="-42.998" r="0.499" style="fill-rule:evenodd;clip-rule:evenodd;fill:#FFFFFF;"/>
  <circle cx="26.994" cy="-42.998" r="0.499" style="fill-rule:evenodd;clip-rule:evenodd;fill:#FFFFFF;"/>
  <circle cx="30.994" cy="-42.998" r="0.499" style="fill-rule:evenodd;clip-rule:evenodd;fill:#FFFFFF;"/>
  <circle cx="34.994" cy="-42.998" r="0.499" style="fill-rule:evenodd;clip-rule:evenodd;fill:#FFFFFF;"/>
  <circle cx="38.994" cy="-42.998" r="0.499" style="fill-rule:evenodd;clip-rule:evenodd;fill:#FFFFFF;"/>
  <circle cx="42.994" cy="-42.998" r="0.499" style="fill-rule:evenodd;clip-rule:evenodd;fill:#FFFFFF;"/>
  <circle cx="46.994" cy="-42.998" r="0.499" style="fill-rule:evenodd;clip-rule:evenodd;fill:#FFFFFF;"/>
  <circle cx="50.994" cy="-42.998" r="0.499" style="fill-rule:evenodd;clip-rule:evenodd;fill:#FFFFFF;"/>
  <circle cx="54.994" cy="-42.998" r="0.499" style="fill-rule:evenodd;clip-rule:evenodd;fill:#FFFFFF;"/>
  <circle cx="2.994" cy="-39.061" r="0.499" style="fill-rule:evenodd;clip-rule:evenodd;fill:#FFFFFF;"/>
  <circle cx="6.994" cy="-39.061" r="0.499" style="fill-rule:evenodd;clip-rule:evenodd;fill:#FFFFFF;"/>
  <circle cx="10.994" cy="-39.061" r="0.499" style="fill-rule:evenodd;clip-rule:evenodd;fill:#FFFFFF;"/>
  <circle cx="14.994" cy="-39.061" r="0.499" style="fill-rule:evenodd;clip-rule:evenodd;fill:#FFFFFF;"/>
  <circle cx="18.994" cy="-39.061" r="0.499" style="fill-rule:evenodd;clip-rule:evenodd;fill:#FFFFFF;"/>
  <circle cx="22.994" cy="-39.061" r="0.499" style="fill-rule:evenodd;clip-rule:evenodd;fill:#FFFFFF;"/>
  <circle cx="26.994" cy="-39.061" r="0.499" style="fill-rule:evenodd;clip-rule:evenodd;fill:#FFFFFF;"/>
  <circle cx="30.994" cy="-39.061" r="0.499" style="fill-rule:evenodd;clip-rule:evenodd;fill:#FFFFFF;"/>
  <circle cx="34.994" cy="-39.061" r="0.499" style="fill-rule:evenodd;clip-rule:evenodd;fill:#FFFFFF;"/>
  <circle cx="38.994" cy="-39.061" r="0.499" style="fill:#FFFFFF;"/>
  <circle cx="42.994" cy="-39.061" r="0.499" style="fill-rule:evenodd;clip-rule:evenodd;fill:#FFFFFF;"/>
  <circle cx="46.994" cy="-39.061" r="0.499" style="fill-rule:evenodd;clip-rule:evenodd;fill:#FFFFFF;"/>
  <circle cx="50.994" cy="-39.061" r="0.499" style="fill-rule:evenodd;clip-rule:evenodd;fill:#FFFFFF;"/>
  <circle cx="54.994" cy="-39.061" r="0.499" style="fill-rule:evenodd;clip-rule:evenodd;fill:#FFFFFF;"/>
  <circle cx="2.994" cy="-34.977" r="0.499" style="fill-rule:evenodd;clip-rule:evenodd;fill:#FFFFFF;"/>
  <circle cx="6.994" cy="-34.977" r="0.499" style="fill-rule:evenodd;clip-rule:evenodd;fill:#FFFFFF;"/>
  <circle cx="10.994" cy="-34.977" r="0.499" style="fill-rule:evenodd;clip-rule:evenodd;fill:#FFFFFF;"/>
  <circle cx="14.994" cy="-34.977" r="0.499" style="fill-rule:evenodd;clip-rule:evenodd;fill:#FFFFFF;"/>
  <circle cx="18.994" cy="-34.977" r="0.499" style="fill-rule:evenodd;clip-rule:evenodd;fill:#FFFFFF;"/>
  <circle cx="22.994" cy="-34.977" r="0.499" style="fill-rule:evenodd;clip-rule:evenodd;fill:#FFFFFF;"/>
  <circle cx="26.994" cy="-34.977" r="0.499" style="fill-rule:evenodd;clip-rule:evenodd;fill:#FFFFFF;"/>
  <circle cx="30.994" cy="-34.977" r="0.499" style="fill-rule:evenodd;clip-rule:evenodd;fill:#FFFFFF;"/>
  <circle cx="34.994" cy="-34.977" r="0.499" style="fill-rule:evenodd;clip-rule:evenodd;fill:#FFFFFF;"/>
  <circle cx="38.994" cy="-34.977" r="0.499" style="fill-rule:evenodd;clip-rule:evenodd;fill:#FFFFFF;"/>
  <circle cx="42.994" cy="-34.977" r="0.499" style="fill-rule:evenodd;clip-rule:evenodd;fill:#FFFFFF;"/>
  <circle cx="46.994" cy="-34.977" r="0.499" style="fill-rule:evenodd;clip-rule:evenodd;fill:#FFFFFF;"/>
  <circle cx="50.994" cy="-34.977" r="0.499" style="fill-rule:evenodd;clip-rule:evenodd;fill:#FFFFFF;"/>
  <circle cx="54.994" cy="-34.977" r="0.499" style="fill-rule:evenodd;clip-rule:evenodd;fill:#FFFFFF;"/>
  <circle cx="2.994" cy="-30.977" r="0.499" style="fill-rule:evenodd;clip-rule:evenodd;fill:#FFFFFF;"/>
  <circle cx="6.994" cy="-30.977" r="0.499" style="fill-rule:evenodd;clip-rule:evenodd;fill:#FFFFFF;"/>
  <circle cx="10.994" cy="-30.977" r="0.499" style="fill-rule:evenodd;clip-rule:evenodd;fill:#FFFFFF;"/>
  <circle cx="14.994" cy="-30.977" r="0.499" style="fill-rule:evenodd;clip-rule:evenodd;fill:#FFFFFF;"/>
  <circle cx="18.994" cy="-30.977" r="0.499" style="fill-rule:evenodd;clip-rule:evenodd;fill:#FFFFFF;"/>
  <circle cx="22.994" cy="-30.977" r="0.499" style="fill-rule:evenodd;clip-rule:evenodd;fill:#FFFFFF;"/>
  <circle cx="26.994" cy="-30.977" r="0.499" style="fill-rule:evenodd;clip-rule:evenodd;fill:#FFFFFF;"/>
  <circle cx="30.994" cy="-30.977" r="0.499" style="fill-rule:evenodd;clip-rule:evenodd;fill:#FFFFFF;"/>
  <circle cx="34.994" cy="-30.977" r="0.499" style="fill-rule:evenodd;clip-rule:evenodd;fill:#FFFFFF;"/>
  <circle cx="38.994" cy="-30.977" r="0.499" style="fill-rule:evenodd;clip-rule:evenodd;fill:#FFFFFF;"/>
  <circle cx="42.994" cy="-30.977" r="0.499" style="fill-rule:evenodd;clip-rule:evenodd;fill:#FFFFFF;"/>
  <circle cx="46.994" cy="-30.977" r="0.499" style="fill-rule:evenodd;clip-rule:evenodd;fill:#FFFFFF;"/>
  <circle cx="50.994" cy="-30.977" r="0.499" style="fill-rule:evenodd;clip-rule:evenodd;fill:#FFFFFF;"/>
  <circle cx="54.994" cy="-30.977" r="0.499" style="fill-rule:evenodd;clip-rule:evenodd;fill:#FFFFFF;"/>
  <circle cx="2.994" cy="-26.977" r="0.499" style="fill-rule:evenodd;clip-rule:evenodd;fill:#FFFFFF;"/>
  <circle cx="6.994" cy="-26.977" r="0.499" style="fill-rule:evenodd;clip-rule:evenodd;fill:#FFFFFF;"/>
  <circle cx="10.994" cy="-26.977" r="0.499" style="fill-rule:evenodd;clip-rule:evenodd;fill:#FFFFFF;"/>
  <circle cx="14.994" cy="-26.977" r="0.499" style="fill-rule:evenodd;clip-rule:evenodd;fill:#FFFFFF;"/>
  <circle cx="18.994" cy="-26.977" r="0.499" style="fill-rule:evenodd;clip-rule:evenodd;fill:#FFFFFF;"/>
  <circle cx="22.994" cy="-26.977" r="0.499" style="fill-rule:evenodd;clip-rule:evenodd;fill:#FFFFFF;"/>
  <circle cx="26.994" cy="-26.977" r="0.499" style="fill-rule:evenodd;clip-rule:evenodd;fill:#FFFFFF;"/>
  <circle cx="30.994" cy="-26.977" r="0.499" style="fill-rule:evenodd;clip-rule:evenodd;fill:#FFFFFF;"/>
  <circle cx="34.994" cy="-26.977" r="0.499" style="fill-rule:evenodd;clip-rule:evenodd;fill:#FFFFFF;"/>
  <circle cx="38.994" cy="-26.977" r="0.499" style="fill-rule:evenodd;clip-rule:evenodd;fill:#FFFFFF;"/>
  <circle cx="42.994" cy="-26.977" r="0.499" style="fill-rule:evenodd;clip-rule:evenodd;fill:#FFFFFF;"/>
  <circle cx="46.994" cy="-26.977" r="0.499" style="fill-rule:evenodd;clip-rule:evenodd;fill:#FFFFFF;"/>
  <circle cx="50.994" cy="-26.977" r="0.499" style="fill:#FFFFFF;"/>
  <circle cx="54.994" cy="-26.977" r="0.499" style="fill-rule:evenodd;clip-rule:evenodd;fill:#FFFFFF;"/>
  <circle cx="2.994" cy="-22.977" r="0.499" style="fill-rule:evenodd;clip-rule:evenodd;fill:#FFFFFF;"/>
  <circle cx="6.994" cy="-22.977" r="0.499" style="fill-rule:evenodd;clip-rule:evenodd;fill:#FFFFFF;"/>
  <circle cx="10.994" cy="-22.977" r="0.499" style="fill-rule:evenodd;clip-rule:evenodd;fill:#FFFFFF;"/>
  <circle cx="14.994" cy="-22.977" r="0.499" style="fill:#FFFFFF;"/>
  <circle cx="18.994" cy="-22.977" r="0.499" style="fill-rule:evenodd;clip-rule:evenodd;fill:#FFFFFF;"/>
  <circle cx="22.994" cy="-22.977" r="0.499" style="fill-rule:evenodd;clip-rule:evenodd;fill:#FFFFFF;"/>
  <circle cx="26.994" cy="-22.977" r="0.499" style="fill-rule:evenodd;clip-rule:evenodd;fill:#FFFFFF;"/>
  <circle cx="30.994" cy="-22.977" r="0.499" style="fill-rule:evenodd;clip-rule:evenodd;fill:#FFFFFF;"/>
  <circle cx="34.994" cy="-22.977" r="0.499" style="fill-rule:evenodd;clip-rule:evenodd;fill:#FFFFFF;"/>
  <circle cx="38.994" cy="-22.977" r="0.499" style="fill-rule:evenodd;clip-rule:evenodd;fill:#FFFFFF;"/>
  <circle cx="42.994" cy="-22.977" r="0.499" style="fill-rule:evenodd;clip-rule:evenodd;fill:#FFFFFF;"/>
  <circle cx="46.994" cy="-22.977" r="0.499" style="fill-rule:evenodd;clip-rule:evenodd;fill:#FFFFFF;"/>
  <circle cx="50.994" cy="-22.977" r="0.499" style="fill-rule:evenodd;clip-rule:evenodd;fill:#FFFFFF;"/>
  <circle cx="54.994" cy="-22.977" r="0.499" style="fill-rule:evenodd;clip-rule:evenodd;fill:#FFFFFF;"/>
  <circle cx="2.994" cy="-18.977" r="0.499" style="fill-rule:evenodd;clip-rule:evenodd;fill:#FFFFFF;"/>
  <circle cx="6.994" cy="-18.977" r="0.499" style="fill-rule:evenodd;clip-rule:evenodd;fill:#FFFFFF;"/>
  <circle cx="10.994" cy="-18.977" r="0.499" style="fill-rule:evenodd;clip-rule:evenodd;fill:#FFFFFF;"/>
  <circle cx="14.994" cy="-18.977" r="0.499" style="fill-rule:evenodd;clip-rule:evenodd;fill:#FFFFFF;"/>
  <circle cx="18.994" cy="-18.977" r="0.499" style="fill-rule:evenodd;clip-rule:evenodd;fill:#FFFFFF;"/>
  <circle cx="22.994" cy="-18.977" r="0.499" style="fill-rule:evenodd;clip-rule:evenodd;fill:#FFFFFF;"/>
  <circle cx="26.994" cy="-18.977" r="0.499" style="fill-rule:evenodd;clip-rule:evenodd;fill:#FFFFFF;"/>
  <circle cx="30.994" cy="-18.977" r="0.499" style="fill-rule:evenodd;clip-rule:evenodd;fill:#FFFFFF;"/>
  <circle cx="34.994" cy="-18.977" r="0.499" style="fill-rule:evenodd;clip-rule:evenodd;fill:#FFFFFF;"/>
  <circle cx="38.994" cy="-18.977" r="0.499" style="fill-rule:evenodd;clip-rule:evenodd;fill:#FFFFFF;"/>
  <circle cx="42.994" cy="-18.977" r="0.499" style="fill-rule:evenodd;clip-rule:evenodd;fill:#FFFFFF;"/>
  <circle cx="46.994" cy="-18.977" r="0.499" style="fill-rule:evenodd;clip-rule:evenodd;fill:#FFFFFF;"/>
  <circle cx="50.994" cy="-18.977" r="0.499" style="fill-rule:evenodd;clip-rule:evenodd;fill:#FFFFFF;"/>
  <circle cx="54.994" cy="-18.977" r="0.499" style="fill-rule:evenodd;clip-rule:evenodd;fill:#FFFFFF;"/>
  <circle cx="2.994" cy="-14.977" r="0.499" style="fill:#FFFFFF;"/>
  <circle cx="6.994" cy="-14.977" r="0.499" style="fill-rule:evenodd;clip-rule:evenodd;fill:#FFFFFF;"/>
  <circle cx="10.994" cy="-14.977" r="0.499" style="fill-rule:evenodd;clip-rule:evenodd;fill:#FFFFFF;"/>
  <circle cx="14.994" cy="-14.977" r="0.499" style="fill-rule:evenodd;clip-rule:evenodd;fill:#FFFFFF;"/>
  <circle cx="18.994" cy="-14.977" r="0.499" style="fill-rule:evenodd;clip-rule:evenodd;fill:#FFFFFF;"/>
  <circle cx="22.994" cy="-14.977" r="0.499" style="fill-rule:evenodd;clip-rule:evenodd;fill:#FFFFFF;"/>
  <circle cx="26.994" cy="-14.977" r="0.499" style="fill-rule:evenodd;clip-rule:evenodd;fill:#FFFFFF;"/>
  <circle cx="30.994" cy="-14.977" r="0.499" style="fill:#FFFFFF;"/>
  <circle cx="34.994" cy="-14.977" r="0.499" style="fill-rule:evenodd;clip-rule:evenodd;fill:#FFFFFF;"/>
  <circle cx="38.994" cy="-14.977" r="0.499" style="fill-rule:evenodd;clip-rule:evenodd;fill:#FFFFFF;"/>
  <circle cx="42.994" cy="-14.977" r="0.499" style="fill-rule:evenodd;clip-rule:evenodd;fill:#FFFFFF;"/>
  <circle cx="46.994" cy="-14.977" r="0.499" style="fill-rule:evenodd;clip-rule:evenodd;fill:#FFFFFF;"/>
  <circle cx="50.994" cy="-14.977" r="0.499" style="fill-rule:evenodd;clip-rule:evenodd;fill:#FFFFFF;"/>
  <circle cx="54.994" cy="-14.977" r="0.499" style="fill-rule:evenodd;clip-rule:evenodd;fill:#FFFFFF;"/>
  <circle cx="2.994" cy="-10.977" r="0.499" style="fill-rule:evenodd;clip-rule:evenodd;fill:#FFFFFF;"/>
  <circle cx="6.994" cy="-10.977" r="0.499" style="fill-rule:evenodd;clip-rule:evenodd;fill:#FFFFFF;"/>
  <circle cx="10.994" cy="-10.977" r="0.499" style="fill-rule:evenodd;clip-rule:evenodd;fill:#FFFFFF;"/>
  <circle cx="14.994" cy="-10.977" r="0.499" style="fill-rule:evenodd;clip-rule:evenodd;fill:#FFFFFF;"/>
  <circle cx="18.994" cy="-10.977" r="0.499" style="fill:#FFFFFF;"/>
  <circle cx="22.994" cy="-10.977" r="0.499" style="fill-rule:evenodd;clip-rule:evenodd;fill:#FFFFFF;"/>
  <circle cx="26.994" cy="-10.977" r="0.499" style="fill-rule:evenodd;clip-rule:evenodd;fill:#FFFFFF;"/>
  <circle cx="30.994" cy="-10.977" r="0.499" style="fill-rule:evenodd;clip-rule:evenodd;fill:#FFFFFF;"/>
  <circle cx="34.994" cy="-10.977" r="0.499" style="fill-rule:evenodd;clip-rule:evenodd;fill:#FFFFFF;"/>
  <circle cx="38.994" cy="-10.977" r="0.499" style="fill-rule:evenodd;clip-rule:evenodd;fill:#FFFFFF;"/>
  <circle cx="42.994" cy="-10.977" r="0.499" style="fill-rule:evenodd;clip-rule:evenodd;fill:#FFFFFF;"/>
  <circle cx="46.994" cy="-10.977" r="0.499" style="fill-rule:evenodd;clip-rule:evenodd;fill:#FFFFFF;"/>
  <circle cx="50.994" cy="-10.977" r="0.499" style="fill-rule:evenodd;clip-rule:evenodd;fill:#FFFFFF;"/>
  <circle cx="54.994" cy="-10.977" r="0.499" style="fill-rule:evenodd;clip-rule:evenodd;fill:#FFFFFF;"/>
  <circle cx="2.994" cy="-6.977" r="0.499" style="fill-rule:evenodd;clip-rule:evenodd;fill:#FFFFFF;"/>
  <circle cx="6.994" cy="-6.977" r="0.499" style="fill-rule:evenodd;clip-rule:evenodd;fill:#FFFFFF;"/>
  <circle cx="10.994" cy="-6.977" r="0.499" style="fill-rule:evenodd;clip-rule:evenodd;fill:#FFFFFF;"/>
  <circle cx="14.994" cy="-6.977" r="0.499" style="fill-rule:evenodd;clip-rule:evenodd;fill:#FFFFFF;"/>
  <circle cx="18.994" cy="-6.977" r="0.499" style="fill-rule:evenodd;clip-rule:evenodd;fill:#FFFFFF;"/>
  <circle cx="22.994" cy="-6.977" r="0.499" style="fill-rule:evenodd;clip-rule:evenodd;fill:#FFFFFF;"/>
  <circle cx="26.994" cy="-6.977" r="0.499" style="fill-rule:evenodd;clip-rule:evenodd;fill:#FFFFFF;"/>
  <circle cx="30.994" cy="-6.977" r="0.499" style="fill-rule:evenodd;clip-rule:evenodd;fill:#FFFFFF;"/>
  <circle cx="34.994" cy="-6.977" r="0.499" style="fill-rule:evenodd;clip-rule:evenodd;fill:#FFFFFF;"/>
  <circle cx="38.994" cy="-6.977" r="0.499" style="fill-rule:evenodd;clip-rule:evenodd;fill:#FFFFFF;"/>
  <circle cx="42.994" cy="-6.977" r="0.499" style="fill-rule:evenodd;clip-rule:evenodd;fill:#FFFFFF;"/>
  <circle cx="46.994" cy="-6.977" r="0.499" style="fill-rule:evenodd;clip-rule:evenodd;fill:#FFFFFF;"/>
  <circle cx="50.994" cy="-6.977" r="0.499" style="fill-rule:evenodd;clip-rule:evenodd;fill:#FFFFFF;"/>
  <circle cx="54.994" cy="-6.977" r="0.499" style="fill-rule:evenodd;clip-rule:evenodd;fill:#FFFFFF;"/>
  <circle cx="2.994" cy="-2.977" r="0.499" style="fill-rule:evenodd;clip-rule:evenodd;fill:#FFFFFF;"/>
  <circle cx="6.994" cy="-2.977" r="0.499" style="fill-rule:evenodd;clip-rule:evenodd;fill:#FFFFFF;"/>
  <circle cx="10.994" cy="-2.977" r="0.499" style="fill-rule:evenodd;clip-rule:evenodd;fill:#FFFFFF;"/>
  <circle cx="14.994" cy="-2.977" r="0.499" style="fill-rule:evenodd;clip-rule:evenodd;fill:#FFFFFF;"/>
  <circle cx="18.994" cy="-2.977" r="0.499" style="fill-rule:evenodd;clip-rule:evenodd;fill:#FFFFFF;"/>
  <circle cx="22.994" cy="-2.977" r="0.499" style="fill-rule:evenodd;clip-rule:evenodd;fill:#FFFFFF;"/>
  <circle cx="26.994" cy="-2.977" r="0.499" style="fill-rule:evenodd;clip-rule:evenodd;fill:#FFFFFF;"/>
  <circle cx="30.994" cy="-2.977" r="0.499" style="fill-rule:evenodd;clip-rule:evenodd;fill:#FFFFFF;"/>
  <circle cx="34.994" cy="-2.977" r="0.499" style="fill-rule:evenodd;clip-rule:evenodd;fill:#FFFFFF;"/>
  <circle cx="38.994" cy="-2.977" r="0.499" style="fill-rule:evenodd;clip-rule:evenodd;fill:#FFFFFF;"/>
  <circle cx="42.994" cy="-2.977" r="0.499" style="fill-rule:evenodd;clip-rule:evenodd;fill:#FFFFFF;"/>
  <circle cx="46.994" cy="-2.977" r="0.499" style="fill-rule:evenodd;clip-rule:evenodd;fill:#FFFFFF;"/>
  <circle cx="50.994" cy="-2.977" r="0.499" style="fill-rule:evenodd;clip-rule:evenodd;fill:#FFFFFF;"/>
  <circle cx="54.994" cy="-2.977" r="0.499" style="fill-rule:evenodd;clip-rule:evenodd;fill:#FFFFFF;"/>
 </g>
</svg>
