<?xml version="1.0"?>
<!-- Converted with SVG Converter - Version 0.9.6 (Compiled Thu Aug 31 10:01:05 2017) - Copyright (C) 2011 Nokia -->
<svg xmlns="http://www.w3.org/2000/svg" baseProfile="tiny" viewBox="1 -57.016 56 56.016" y="0px" width="56" xmlns:xlink="http://www.w3.org/1999/xlink" x="0px" height="56.016" version="1.1" xml:space="preserve">
 <g>
  <rect y="-57.016" width="56" x="1" style="fill:none;" height="56.016"/>
  <circle cx="2.994" cy="-54.977" style="fill-rule:evenodd;clip-rule:evenodd;" r="0.449"/>
  <circle cx="6.994" cy="-54.977" style="fill-rule:evenodd;clip-rule:evenodd;" r="0.449"/>
  <circle cx="10.994" cy="-54.977" style="fill-rule:evenodd;clip-rule:evenodd;" r="0.449"/>
  <circle cx="14.994" cy="-54.977" style="fill-rule:evenodd;clip-rule:evenodd;" r="0.449"/>
  <circle cx="18.994" cy="-54.977" style="fill-rule:evenodd;clip-rule:evenodd;" r="0.449"/>
  <circle cx="22.994" cy="-54.977" style="fill-rule:evenodd;clip-rule:evenodd;" r="0.449"/>
  <circle cx="26.994" cy="-54.977" style="fill-rule:evenodd;clip-rule:evenodd;" r="0.449"/>
  <circle cx="30.994" cy="-54.977" style="fill-rule:evenodd;clip-rule:evenodd;" r="0.449"/>
  <circle cx="34.994" cy="-54.977" style="fill-rule:evenodd;clip-rule:evenodd;" r="0.449"/>
  <circle cx="38.994" cy="-54.977" style="fill-rule:evenodd;clip-rule:evenodd;" r="0.449"/>
  <circle cx="42.994" cy="-54.977" style="fill-rule:evenodd;clip-rule:evenodd;" r="0.449"/>
  <circle cx="46.994" cy="-54.977" style="fill-rule:evenodd;clip-rule:evenodd;" r="0.449"/>
  <circle cx="50.994" cy="-54.977" style="fill-rule:evenodd;clip-rule:evenodd;" r="0.449"/>
  <circle cx="54.994" cy="-54.977" style="fill-rule:evenodd;clip-rule:evenodd;" r="0.449"/>
  <circle cx="2.994" cy="-50.998" style="fill-rule:evenodd;clip-rule:evenodd;" r="0.449"/>
  <circle cx="6.994" cy="-50.998" style="fill-rule:evenodd;clip-rule:evenodd;" r="0.449"/>
  <circle cx="10.994" cy="-50.998" style="fill-rule:evenodd;clip-rule:evenodd;" r="0.449"/>
  <circle cx="14.994" cy="-50.998" style="fill-rule:evenodd;clip-rule:evenodd;" r="0.449"/>
  <circle cx="18.994" cy="-50.998" style="fill-rule:evenodd;clip-rule:evenodd;" r="0.449"/>
  <circle cx="22.994" cy="-50.998" style="fill-rule:evenodd;clip-rule:evenodd;" r="0.449"/>
  <circle cx="26.994" cy="-50.998" style="fill-rule:evenodd;clip-rule:evenodd;" r="0.449"/>
  <circle cx="30.994" cy="-50.998" style="fill-rule:evenodd;clip-rule:evenodd;" r="0.449"/>
  <circle cx="34.994" cy="-50.998" style="fill-rule:evenodd;clip-rule:evenodd;" r="0.449"/>
  <circle cx="38.994" cy="-50.998" style="fill-rule:evenodd;clip-rule:evenodd;" r="0.449"/>
  <circle cx="42.994" cy="-50.998" style="fill-rule:evenodd;clip-rule:evenodd;" r="0.449"/>
  <circle cx="46.994" cy="-50.998" style="fill-rule:evenodd;clip-rule:evenodd;" r="0.449"/>
  <circle cx="50.994" cy="-50.998" style="fill-rule:evenodd;clip-rule:evenodd;" r="0.449"/>
  <circle cx="54.994" cy="-50.998" style="fill-rule:evenodd;clip-rule:evenodd;" r="0.449"/>
  <circle cx="2.994" cy="-46.998" style="fill-rule:evenodd;clip-rule:evenodd;" r="0.449"/>
  <circle cx="6.994" cy="-46.998" style="fill-rule:evenodd;clip-rule:evenodd;" r="0.449"/>
  <circle cx="10.994" cy="-46.998" style="fill-rule:evenodd;clip-rule:evenodd;" r="0.449"/>
  <circle cx="14.994" cy="-46.998" style="fill-rule:evenodd;clip-rule:evenodd;" r="0.449"/>
  <circle cx="18.994" cy="-46.998" style="fill-rule:evenodd;clip-rule:evenodd;" r="0.449"/>
  <circle cx="22.994" cy="-46.998" style="fill-rule:evenodd;clip-rule:evenodd;" r="0.449"/>
  <circle cx="26.994" cy="-46.998" style="fill-rule:evenodd;clip-rule:evenodd;" r="0.449"/>
  <circle cx="30.994" cy="-46.998" style="fill-rule:evenodd;clip-rule:evenodd;" r="0.449"/>
  <circle cx="34.994" cy="-46.998" style="fill-rule:evenodd;clip-rule:evenodd;" r="0.449"/>
  <circle cx="38.994" cy="-46.998" style="fill-rule:evenodd;clip-rule:evenodd;" r="0.449"/>
  <circle cx="42.994" cy="-46.998" style="fill-rule:evenodd;clip-rule:evenodd;" r="0.449"/>
  <circle cx="46.994" cy="-46.998" style="fill-rule:evenodd;clip-rule:evenodd;" r="0.449"/>
  <circle cx="50.994" cy="-46.998" style="fill-rule:evenodd;clip-rule:evenodd;" r="0.449"/>
  <circle cx="54.994" cy="-46.998" style="fill-rule:evenodd;clip-rule:evenodd;" r="0.449"/>
  <circle cx="2.994" cy="-42.998" style="fill-rule:evenodd;clip-rule:evenodd;" r="0.449"/>
  <circle cx="6.994" cy="-42.998" style="fill-rule:evenodd;clip-rule:evenodd;" r="0.449"/>
  <circle cx="10.994" cy="-42.998" style="fill-rule:evenodd;clip-rule:evenodd;" r="0.449"/>
  <circle cx="14.994" cy="-42.998" style="fill-rule:evenodd;clip-rule:evenodd;" r="0.449"/>
  <circle cx="18.994" cy="-42.998" style="fill-rule:evenodd;clip-rule:evenodd;" r="0.449"/>
  <circle cx="22.994" cy="-42.998" style="fill-rule:evenodd;clip-rule:evenodd;" r="0.449"/>
  <circle cx="26.994" cy="-42.998" style="fill-rule:evenodd;clip-rule:evenodd;" r="0.449"/>
  <circle cx="30.994" cy="-42.998" style="fill-rule:evenodd;clip-rule:evenodd;" r="0.449"/>
  <circle cx="34.994" cy="-42.998" style="fill-rule:evenodd;clip-rule:evenodd;" r="0.449"/>
  <circle cx="38.994" cy="-42.998" style="fill-rule:evenodd;clip-rule:evenodd;" r="0.449"/>
  <circle cx="42.994" cy="-42.998" style="fill-rule:evenodd;clip-rule:evenodd;" r="0.449"/>
  <circle cx="46.994" cy="-42.998" style="fill-rule:evenodd;clip-rule:evenodd;" r="0.449"/>
  <circle cx="50.994" cy="-42.998" style="fill-rule:evenodd;clip-rule:evenodd;" r="0.449"/>
  <circle cx="54.994" cy="-42.998" style="fill-rule:evenodd;clip-rule:evenodd;" r="0.449"/>
  <circle cx="2.994" cy="-39.061" style="fill-rule:evenodd;clip-rule:evenodd;" r="0.449"/>
  <circle cx="6.994" cy="-39.061" style="fill-rule:evenodd;clip-rule:evenodd;" r="0.449"/>
  <circle cx="10.994" cy="-39.061" style="fill-rule:evenodd;clip-rule:evenodd;" r="0.449"/>
  <circle cx="14.994" cy="-39.061" style="fill-rule:evenodd;clip-rule:evenodd;" r="0.449"/>
  <circle cx="18.994" cy="-39.061" style="fill-rule:evenodd;clip-rule:evenodd;" r="0.449"/>
  <circle cx="22.994" cy="-39.061" style="fill-rule:evenodd;clip-rule:evenodd;" r="0.449"/>
  <circle cx="26.994" cy="-39.061" style="fill-rule:evenodd;clip-rule:evenodd;" r="0.449"/>
  <circle cx="30.994" cy="-39.061" style="fill-rule:evenodd;clip-rule:evenodd;" r="0.449"/>
  <circle cx="34.994" cy="-39.061" style="fill-rule:evenodd;clip-rule:evenodd;" r="0.449"/>
  <circle cx="38.994" cy="-39.061" r="0.449"/>
  <circle cx="42.994" cy="-39.061" style="fill-rule:evenodd;clip-rule:evenodd;" r="0.449"/>
  <circle cx="46.994" cy="-39.061" style="fill-rule:evenodd;clip-rule:evenodd;" r="0.449"/>
  <circle cx="50.994" cy="-39.061" style="fill-rule:evenodd;clip-rule:evenodd;" r="0.449"/>
  <circle cx="54.994" cy="-39.061" style="fill-rule:evenodd;clip-rule:evenodd;" r="0.449"/>
  <circle cx="2.994" cy="-34.977" style="fill-rule:evenodd;clip-rule:evenodd;" r="0.449"/>
  <circle cx="6.994" cy="-34.977" style="fill-rule:evenodd;clip-rule:evenodd;" r="0.449"/>
  <circle cx="10.994" cy="-34.977" style="fill-rule:evenodd;clip-rule:evenodd;" r="0.449"/>
  <circle cx="14.994" cy="-34.977" style="fill-rule:evenodd;clip-rule:evenodd;" r="0.449"/>
  <circle cx="18.994" cy="-34.977" style="fill-rule:evenodd;clip-rule:evenodd;" r="0.449"/>
  <circle cx="22.994" cy="-34.977" style="fill-rule:evenodd;clip-rule:evenodd;" r="0.449"/>
  <circle cx="26.994" cy="-34.977" style="fill-rule:evenodd;clip-rule:evenodd;" r="0.449"/>
  <circle cx="30.994" cy="-34.977" style="fill-rule:evenodd;clip-rule:evenodd;" r="0.449"/>
  <circle cx="34.994" cy="-34.977" style="fill-rule:evenodd;clip-rule:evenodd;" r="0.449"/>
  <circle cx="38.994" cy="-34.977" style="fill-rule:evenodd;clip-rule:evenodd;" r="0.449"/>
  <circle cx="42.994" cy="-34.977" style="fill-rule:evenodd;clip-rule:evenodd;" r="0.449"/>
  <circle cx="46.994" cy="-34.977" style="fill-rule:evenodd;clip-rule:evenodd;" r="0.449"/>
  <circle cx="50.994" cy="-34.977" style="fill-rule:evenodd;clip-rule:evenodd;" r="0.449"/>
  <circle cx="54.994" cy="-34.977" style="fill-rule:evenodd;clip-rule:evenodd;" r="0.449"/>
  <circle cx="2.994" cy="-30.977" style="fill-rule:evenodd;clip-rule:evenodd;" r="0.449"/>
  <circle cx="6.994" cy="-30.977" style="fill-rule:evenodd;clip-rule:evenodd;" r="0.449"/>
  <circle cx="10.994" cy="-30.977" style="fill-rule:evenodd;clip-rule:evenodd;" r="0.449"/>
  <circle cx="14.994" cy="-30.977" style="fill-rule:evenodd;clip-rule:evenodd;" r="0.449"/>
  <circle cx="18.994" cy="-30.977" style="fill-rule:evenodd;clip-rule:evenodd;" r="0.449"/>
  <circle cx="22.994" cy="-30.977" style="fill-rule:evenodd;clip-rule:evenodd;" r="0.449"/>
  <circle cx="26.994" cy="-30.977" style="fill-rule:evenodd;clip-rule:evenodd;" r="0.449"/>
  <circle cx="30.994" cy="-30.977" style="fill-rule:evenodd;clip-rule:evenodd;" r="0.449"/>
  <circle cx="34.994" cy="-30.977" style="fill-rule:evenodd;clip-rule:evenodd;" r="0.449"/>
  <circle cx="38.994" cy="-30.977" style="fill-rule:evenodd;clip-rule:evenodd;" r="0.449"/>
  <circle cx="42.994" cy="-30.977" style="fill-rule:evenodd;clip-rule:evenodd;" r="0.449"/>
  <circle cx="46.994" cy="-30.977" style="fill-rule:evenodd;clip-rule:evenodd;" r="0.449"/>
  <circle cx="50.994" cy="-30.977" style="fill-rule:evenodd;clip-rule:evenodd;" r="0.449"/>
  <circle cx="54.994" cy="-30.977" style="fill-rule:evenodd;clip-rule:evenodd;" r="0.449"/>
  <circle cx="2.994" cy="-26.977" style="fill-rule:evenodd;clip-rule:evenodd;" r="0.449"/>
  <circle cx="6.994" cy="-26.977" style="fill-rule:evenodd;clip-rule:evenodd;" r="0.449"/>
  <circle cx="10.994" cy="-26.977" style="fill-rule:evenodd;clip-rule:evenodd;" r="0.449"/>
  <circle cx="14.994" cy="-26.977" style="fill-rule:evenodd;clip-rule:evenodd;" r="0.449"/>
  <circle cx="18.994" cy="-26.977" style="fill-rule:evenodd;clip-rule:evenodd;" r="0.449"/>
  <circle cx="22.994" cy="-26.977" style="fill-rule:evenodd;clip-rule:evenodd;" r="0.449"/>
  <circle cx="26.994" cy="-26.977" style="fill-rule:evenodd;clip-rule:evenodd;" r="0.449"/>
  <circle cx="30.994" cy="-26.977" style="fill-rule:evenodd;clip-rule:evenodd;" r="0.449"/>
  <circle cx="34.994" cy="-26.977" style="fill-rule:evenodd;clip-rule:evenodd;" r="0.449"/>
  <circle cx="38.994" cy="-26.977" style="fill-rule:evenodd;clip-rule:evenodd;" r="0.449"/>
  <circle cx="42.994" cy="-26.977" style="fill-rule:evenodd;clip-rule:evenodd;" r="0.449"/>
  <circle cx="46.994" cy="-26.977" style="fill-rule:evenodd;clip-rule:evenodd;" r="0.449"/>
  <circle cx="50.994" cy="-26.977" r="0.449"/>
  <circle cx="54.994" cy="-26.977" style="fill-rule:evenodd;clip-rule:evenodd;" r="0.449"/>
  <circle cx="2.994" cy="-22.977" style="fill-rule:evenodd;clip-rule:evenodd;" r="0.449"/>
  <circle cx="6.994" cy="-22.977" style="fill-rule:evenodd;clip-rule:evenodd;" r="0.449"/>
  <circle cx="10.994" cy="-22.977" style="fill-rule:evenodd;clip-rule:evenodd;" r="0.449"/>
  <circle cx="14.994" cy="-22.977" r="0.449"/>
  <circle cx="18.994" cy="-22.977" style="fill-rule:evenodd;clip-rule:evenodd;" r="0.449"/>
  <circle cx="22.994" cy="-22.977" style="fill-rule:evenodd;clip-rule:evenodd;" r="0.449"/>
  <circle cx="26.994" cy="-22.977" style="fill-rule:evenodd;clip-rule:evenodd;" r="0.449"/>
  <circle cx="30.994" cy="-22.977" style="fill-rule:evenodd;clip-rule:evenodd;" r="0.449"/>
  <circle cx="34.994" cy="-22.977" style="fill-rule:evenodd;clip-rule:evenodd;" r="0.449"/>
  <circle cx="38.994" cy="-22.977" style="fill-rule:evenodd;clip-rule:evenodd;" r="0.449"/>
  <circle cx="42.994" cy="-22.977" style="fill-rule:evenodd;clip-rule:evenodd;" r="0.449"/>
  <circle cx="46.994" cy="-22.977" style="fill-rule:evenodd;clip-rule:evenodd;" r="0.449"/>
  <circle cx="50.994" cy="-22.977" style="fill-rule:evenodd;clip-rule:evenodd;" r="0.449"/>
  <circle cx="54.994" cy="-22.977" style="fill-rule:evenodd;clip-rule:evenodd;" r="0.449"/>
  <circle cx="2.994" cy="-18.977" style="fill-rule:evenodd;clip-rule:evenodd;" r="0.449"/>
  <circle cx="6.994" cy="-18.977" style="fill-rule:evenodd;clip-rule:evenodd;" r="0.449"/>
  <circle cx="10.994" cy="-18.977" style="fill-rule:evenodd;clip-rule:evenodd;" r="0.449"/>
  <circle cx="14.994" cy="-18.977" style="fill-rule:evenodd;clip-rule:evenodd;" r="0.449"/>
  <circle cx="18.994" cy="-18.977" style="fill-rule:evenodd;clip-rule:evenodd;" r="0.449"/>
  <circle cx="22.994" cy="-18.977" style="fill-rule:evenodd;clip-rule:evenodd;" r="0.449"/>
  <circle cx="26.994" cy="-18.977" style="fill-rule:evenodd;clip-rule:evenodd;" r="0.449"/>
  <circle cx="30.994" cy="-18.977" style="fill-rule:evenodd;clip-rule:evenodd;" r="0.449"/>
  <circle cx="34.994" cy="-18.977" style="fill-rule:evenodd;clip-rule:evenodd;" r="0.449"/>
  <circle cx="38.994" cy="-18.977" style="fill-rule:evenodd;clip-rule:evenodd;" r="0.449"/>
  <circle cx="42.994" cy="-18.977" style="fill-rule:evenodd;clip-rule:evenodd;" r="0.449"/>
  <circle cx="46.994" cy="-18.977" style="fill-rule:evenodd;clip-rule:evenodd;" r="0.449"/>
  <circle cx="50.994" cy="-18.977" style="fill-rule:evenodd;clip-rule:evenodd;" r="0.449"/>
  <circle cx="54.994" cy="-18.977" style="fill-rule:evenodd;clip-rule:evenodd;" r="0.449"/>
  <circle cx="2.994" cy="-14.977" r="0.449"/>
  <circle cx="6.994" cy="-14.977" style="fill-rule:evenodd;clip-rule:evenodd;" r="0.449"/>
  <circle cx="10.994" cy="-14.977" style="fill-rule:evenodd;clip-rule:evenodd;" r="0.449"/>
  <circle cx="14.994" cy="-14.977" style="fill-rule:evenodd;clip-rule:evenodd;" r="0.449"/>
  <circle cx="18.994" cy="-14.977" style="fill-rule:evenodd;clip-rule:evenodd;" r="0.449"/>
  <circle cx="22.994" cy="-14.977" style="fill-rule:evenodd;clip-rule:evenodd;" r="0.449"/>
  <circle cx="26.994" cy="-14.977" style="fill-rule:evenodd;clip-rule:evenodd;" r="0.449"/>
  <circle cx="30.994" cy="-14.977" r="0.449"/>
  <circle cx="34.994" cy="-14.977" style="fill-rule:evenodd;clip-rule:evenodd;" r="0.449"/>
  <circle cx="38.994" cy="-14.977" style="fill-rule:evenodd;clip-rule:evenodd;" r="0.449"/>
  <circle cx="42.994" cy="-14.977" style="fill-rule:evenodd;clip-rule:evenodd;" r="0.449"/>
  <circle cx="46.994" cy="-14.977" style="fill-rule:evenodd;clip-rule:evenodd;" r="0.449"/>
  <circle cx="50.994" cy="-14.977" style="fill-rule:evenodd;clip-rule:evenodd;" r="0.449"/>
  <circle cx="54.994" cy="-14.977" style="fill-rule:evenodd;clip-rule:evenodd;" r="0.449"/>
  <circle cx="2.994" cy="-10.977" style="fill-rule:evenodd;clip-rule:evenodd;" r="0.449"/>
  <circle cx="6.994" cy="-10.977" style="fill-rule:evenodd;clip-rule:evenodd;" r="0.449"/>
  <circle cx="10.994" cy="-10.977" style="fill-rule:evenodd;clip-rule:evenodd;" r="0.449"/>
  <circle cx="14.994" cy="-10.977" style="fill-rule:evenodd;clip-rule:evenodd;" r="0.449"/>
  <circle cx="18.994" cy="-10.977" r="0.449"/>
  <circle cx="22.994" cy="-10.977" style="fill-rule:evenodd;clip-rule:evenodd;" r="0.449"/>
  <circle cx="26.994" cy="-10.977" style="fill-rule:evenodd;clip-rule:evenodd;" r="0.449"/>
  <circle cx="30.994" cy="-10.977" style="fill-rule:evenodd;clip-rule:evenodd;" r="0.449"/>
  <circle cx="34.994" cy="-10.977" style="fill-rule:evenodd;clip-rule:evenodd;" r="0.449"/>
  <circle cx="38.994" cy="-10.977" style="fill-rule:evenodd;clip-rule:evenodd;" r="0.449"/>
  <circle cx="42.994" cy="-10.977" style="fill-rule:evenodd;clip-rule:evenodd;" r="0.449"/>
  <circle cx="46.994" cy="-10.977" style="fill-rule:evenodd;clip-rule:evenodd;" r="0.449"/>
  <circle cx="50.994" cy="-10.977" style="fill-rule:evenodd;clip-rule:evenodd;" r="0.449"/>
  <circle cx="54.994" cy="-10.977" style="fill-rule:evenodd;clip-rule:evenodd;" r="0.449"/>
  <circle cx="2.994" cy="-6.977" style="fill-rule:evenodd;clip-rule:evenodd;" r="0.449"/>
  <circle cx="6.994" cy="-6.977" style="fill-rule:evenodd;clip-rule:evenodd;" r="0.449"/>
  <circle cx="10.994" cy="-6.977" style="fill-rule:evenodd;clip-rule:evenodd;" r="0.449"/>
  <circle cx="14.994" cy="-6.977" style="fill-rule:evenodd;clip-rule:evenodd;" r="0.449"/>
  <circle cx="18.994" cy="-6.977" style="fill-rule:evenodd;clip-rule:evenodd;" r="0.449"/>
  <circle cx="22.994" cy="-6.977" style="fill-rule:evenodd;clip-rule:evenodd;" r="0.449"/>
  <circle cx="26.994" cy="-6.977" style="fill-rule:evenodd;clip-rule:evenodd;" r="0.449"/>
  <circle cx="30.994" cy="-6.977" style="fill-rule:evenodd;clip-rule:evenodd;" r="0.449"/>
  <circle cx="34.994" cy="-6.977" style="fill-rule:evenodd;clip-rule:evenodd;" r="0.449"/>
  <circle cx="38.994" cy="-6.977" style="fill-rule:evenodd;clip-rule:evenodd;" r="0.449"/>
  <circle cx="42.994" cy="-6.977" style="fill-rule:evenodd;clip-rule:evenodd;" r="0.449"/>
  <circle cx="46.994" cy="-6.977" style="fill-rule:evenodd;clip-rule:evenodd;" r="0.449"/>
  <circle cx="50.994" cy="-6.977" style="fill-rule:evenodd;clip-rule:evenodd;" r="0.449"/>
  <circle cx="54.994" cy="-6.977" style="fill-rule:evenodd;clip-rule:evenodd;" r="0.449"/>
  <circle cx="2.994" cy="-2.977" style="fill-rule:evenodd;clip-rule:evenodd;" r="0.449"/>
  <circle cx="6.994" cy="-2.977" style="fill-rule:evenodd;clip-rule:evenodd;" r="0.449"/>
  <circle cx="10.994" cy="-2.977" style="fill-rule:evenodd;clip-rule:evenodd;" r="0.449"/>
  <circle cx="14.994" cy="-2.977" style="fill-rule:evenodd;clip-rule:evenodd;" r="0.449"/>
  <circle cx="18.994" cy="-2.977" style="fill-rule:evenodd;clip-rule:evenodd;" r="0.449"/>
  <circle cx="22.994" cy="-2.977" style="fill-rule:evenodd;clip-rule:evenodd;" r="0.449"/>
  <circle cx="26.994" cy="-2.977" style="fill-rule:evenodd;clip-rule:evenodd;" r="0.449"/>
  <circle cx="30.994" cy="-2.977" style="fill-rule:evenodd;clip-rule:evenodd;" r="0.449"/>
  <circle cx="34.994" cy="-2.977" style="fill-rule:evenodd;clip-rule:evenodd;" r="0.449"/>
  <circle cx="38.994" cy="-2.977" style="fill-rule:evenodd;clip-rule:evenodd;" r="0.449"/>
  <circle cx="42.994" cy="-2.977" style="fill-rule:evenodd;clip-rule:evenodd;" r="0.449"/>
  <circle cx="46.994" cy="-2.977" style="fill-rule:evenodd;clip-rule:evenodd;" r="0.449"/>
  <circle cx="50.994" cy="-2.977" style="fill-rule:evenodd;clip-rule:evenodd;" r="0.449"/>
  <circle cx="54.994" cy="-2.977" style="fill-rule:evenodd;clip-rule:evenodd;" r="0.449"/>
 </g>
</svg>
