<?xml version="1.0"?>
<!-- Converted with SVG Converter - Version 0.9.5 (Compiled Fri Feb 21 09:53:38 2020) - Copyright (C) 2011 Nokia -->
<svg xmlns="http://www.w3.org/2000/svg" version="1.1" height="56.016" width="56" x="0px" y="0px" xmlns:xlink="http://www.w3.org/1999/xlink" viewBox="1 -57.016 56 56.016" xml:space="preserve" baseProfile="tiny">
 <g>
  <rect height="56.016" width="56" x="1" y="-57.016" style="fill:none;"/>
  <circle cy="-54.977" style="fill-rule:evenodd;clip-rule:evenodd;fill:#EC008C;" cx="2.994" r="0.499"/>
  <circle cy="-54.977" style="fill-rule:evenodd;clip-rule:evenodd;fill:#EC008C;" cx="6.994" r="0.499"/>
  <circle cy="-54.977" style="fill-rule:evenodd;clip-rule:evenodd;fill:#EC008C;" cx="10.994" r="0.499"/>
  <circle cy="-54.977" style="fill-rule:evenodd;clip-rule:evenodd;fill:#EC008C;" cx="14.994" r="0.499"/>
  <circle cy="-54.977" style="fill-rule:evenodd;clip-rule:evenodd;fill:#EC008C;" cx="18.994" r="0.499"/>
  <circle cy="-54.977" style="fill-rule:evenodd;clip-rule:evenodd;fill:#EC008C;" cx="22.994" r="0.499"/>
  <circle cy="-54.977" style="fill-rule:evenodd;clip-rule:evenodd;fill:#EC008C;" cx="26.994" r="0.499"/>
  <circle cy="-54.977" style="fill-rule:evenodd;clip-rule:evenodd;fill:#EC008C;" cx="30.994" r="0.499"/>
  <circle cy="-54.977" style="fill-rule:evenodd;clip-rule:evenodd;fill:#EC008C;" cx="34.994" r="0.499"/>
  <circle cy="-54.977" style="fill-rule:evenodd;clip-rule:evenodd;fill:#EC008C;" cx="38.994" r="0.499"/>
  <circle cy="-54.977" style="fill-rule:evenodd;clip-rule:evenodd;fill:#EC008C;" cx="42.994" r="0.499"/>
  <circle cy="-54.977" style="fill-rule:evenodd;clip-rule:evenodd;fill:#EC008C;" cx="46.994" r="0.499"/>
  <circle cy="-54.977" style="fill-rule:evenodd;clip-rule:evenodd;fill:#EC008C;" cx="50.994" r="0.499"/>
  <circle cy="-54.977" style="fill-rule:evenodd;clip-rule:evenodd;fill:#EC008C;" cx="54.994" r="0.499"/>
  <circle cy="-50.998" style="fill-rule:evenodd;clip-rule:evenodd;fill:#EC008C;" cx="2.994" r="0.499"/>
  <circle cy="-50.998" style="fill-rule:evenodd;clip-rule:evenodd;fill:#EC008C;" cx="6.994" r="0.499"/>
  <circle cy="-50.998" style="fill-rule:evenodd;clip-rule:evenodd;fill:#EC008C;" cx="10.994" r="0.499"/>
  <circle cy="-50.998" style="fill-rule:evenodd;clip-rule:evenodd;fill:#EC008C;" cx="14.994" r="0.499"/>
  <circle cy="-50.998" style="fill-rule:evenodd;clip-rule:evenodd;fill:#EC008C;" cx="18.994" r="0.499"/>
  <circle cy="-50.998" style="fill-rule:evenodd;clip-rule:evenodd;fill:#EC008C;" cx="22.994" r="0.499"/>
  <circle cy="-50.998" style="fill-rule:evenodd;clip-rule:evenodd;fill:#EC008C;" cx="26.994" r="0.499"/>
  <circle cy="-50.998" style="fill-rule:evenodd;clip-rule:evenodd;fill:#EC008C;" cx="30.994" r="0.499"/>
  <circle cy="-50.998" style="fill-rule:evenodd;clip-rule:evenodd;fill:#EC008C;" cx="34.994" r="0.499"/>
  <circle cy="-50.998" style="fill-rule:evenodd;clip-rule:evenodd;fill:#EC008C;" cx="38.994" r="0.499"/>
  <circle cy="-50.998" style="fill-rule:evenodd;clip-rule:evenodd;fill:#EC008C;" cx="42.994" r="0.499"/>
  <circle cy="-50.998" style="fill-rule:evenodd;clip-rule:evenodd;fill:#EC008C;" cx="46.994" r="0.499"/>
  <circle cy="-50.998" style="fill-rule:evenodd;clip-rule:evenodd;fill:#EC008C;" cx="50.994" r="0.499"/>
  <circle cy="-50.998" style="fill-rule:evenodd;clip-rule:evenodd;fill:#EC008C;" cx="54.994" r="0.499"/>
  <circle cy="-46.998" style="fill-rule:evenodd;clip-rule:evenodd;fill:#EC008C;" cx="2.994" r="0.499"/>
  <circle cy="-46.998" style="fill-rule:evenodd;clip-rule:evenodd;fill:#EC008C;" cx="6.994" r="0.499"/>
  <circle cy="-46.998" style="fill-rule:evenodd;clip-rule:evenodd;fill:#EC008C;" cx="10.994" r="0.499"/>
  <circle cy="-46.998" style="fill-rule:evenodd;clip-rule:evenodd;fill:#EC008C;" cx="14.994" r="0.499"/>
  <circle cy="-46.998" style="fill-rule:evenodd;clip-rule:evenodd;fill:#EC008C;" cx="18.994" r="0.499"/>
  <circle cy="-46.998" style="fill-rule:evenodd;clip-rule:evenodd;fill:#EC008C;" cx="22.994" r="0.499"/>
  <circle cy="-46.998" style="fill-rule:evenodd;clip-rule:evenodd;fill:#EC008C;" cx="26.994" r="0.499"/>
  <circle cy="-46.998" style="fill-rule:evenodd;clip-rule:evenodd;fill:#EC008C;" cx="30.994" r="0.499"/>
  <circle cy="-46.998" style="fill-rule:evenodd;clip-rule:evenodd;fill:#EC008C;" cx="34.994" r="0.499"/>
  <circle cy="-46.998" style="fill-rule:evenodd;clip-rule:evenodd;fill:#EC008C;" cx="38.994" r="0.499"/>
  <circle cy="-46.998" style="fill-rule:evenodd;clip-rule:evenodd;fill:#EC008C;" cx="42.994" r="0.499"/>
  <circle cy="-46.998" style="fill-rule:evenodd;clip-rule:evenodd;fill:#EC008C;" cx="46.994" r="0.499"/>
  <circle cy="-46.998" style="fill-rule:evenodd;clip-rule:evenodd;fill:#EC008C;" cx="50.994" r="0.499"/>
  <circle cy="-46.998" style="fill-rule:evenodd;clip-rule:evenodd;fill:#EC008C;" cx="54.994" r="0.499"/>
  <circle cy="-42.998" style="fill-rule:evenodd;clip-rule:evenodd;fill:#EC008C;" cx="2.994" r="0.499"/>
  <circle cy="-42.998" style="fill-rule:evenodd;clip-rule:evenodd;fill:#EC008C;" cx="6.994" r="0.499"/>
  <circle cy="-42.998" style="fill-rule:evenodd;clip-rule:evenodd;fill:#EC008C;" cx="10.994" r="0.499"/>
  <circle cy="-42.998" style="fill-rule:evenodd;clip-rule:evenodd;fill:#EC008C;" cx="14.994" r="0.499"/>
  <circle cy="-42.998" style="fill-rule:evenodd;clip-rule:evenodd;fill:#EC008C;" cx="18.994" r="0.499"/>
  <circle cy="-42.998" style="fill-rule:evenodd;clip-rule:evenodd;fill:#EC008C;" cx="22.994" r="0.499"/>
  <circle cy="-42.998" style="fill-rule:evenodd;clip-rule:evenodd;fill:#EC008C;" cx="26.994" r="0.499"/>
  <circle cy="-42.998" style="fill-rule:evenodd;clip-rule:evenodd;fill:#EC008C;" cx="30.994" r="0.499"/>
  <circle cy="-42.998" style="fill-rule:evenodd;clip-rule:evenodd;fill:#EC008C;" cx="34.994" r="0.499"/>
  <circle cy="-42.998" style="fill-rule:evenodd;clip-rule:evenodd;fill:#EC008C;" cx="38.994" r="0.499"/>
  <circle cy="-42.998" style="fill-rule:evenodd;clip-rule:evenodd;fill:#EC008C;" cx="42.994" r="0.499"/>
  <circle cy="-42.998" style="fill-rule:evenodd;clip-rule:evenodd;fill:#EC008C;" cx="46.994" r="0.499"/>
  <circle cy="-42.998" style="fill-rule:evenodd;clip-rule:evenodd;fill:#EC008C;" cx="50.994" r="0.499"/>
  <circle cy="-42.998" style="fill-rule:evenodd;clip-rule:evenodd;fill:#EC008C;" cx="54.994" r="0.499"/>
  <circle cy="-39.061" style="fill-rule:evenodd;clip-rule:evenodd;fill:#EC008C;" cx="2.994" r="0.499"/>
  <circle cy="-39.061" style="fill-rule:evenodd;clip-rule:evenodd;fill:#EC008C;" cx="6.994" r="0.499"/>
  <circle cy="-39.061" style="fill-rule:evenodd;clip-rule:evenodd;fill:#EC008C;" cx="10.994" r="0.499"/>
  <circle cy="-39.061" style="fill-rule:evenodd;clip-rule:evenodd;fill:#EC008C;" cx="14.994" r="0.499"/>
  <circle cy="-39.061" style="fill-rule:evenodd;clip-rule:evenodd;fill:#EC008C;" cx="18.994" r="0.499"/>
  <circle cy="-39.061" style="fill-rule:evenodd;clip-rule:evenodd;fill:#EC008C;" cx="22.994" r="0.499"/>
  <circle cy="-39.061" style="fill-rule:evenodd;clip-rule:evenodd;fill:#EC008C;" cx="26.994" r="0.499"/>
  <circle cy="-39.061" style="fill-rule:evenodd;clip-rule:evenodd;fill:#EC008C;" cx="30.994" r="0.499"/>
  <circle cy="-39.061" style="fill-rule:evenodd;clip-rule:evenodd;fill:#EC008C;" cx="34.994" r="0.499"/>
  <circle cy="-39.061" style="fill:#EC008C;" cx="38.994" r="0.499"/>
  <circle cy="-39.061" style="fill-rule:evenodd;clip-rule:evenodd;fill:#EC008C;" cx="42.994" r="0.499"/>
  <circle cy="-39.061" style="fill-rule:evenodd;clip-rule:evenodd;fill:#EC008C;" cx="46.994" r="0.499"/>
  <circle cy="-39.061" style="fill-rule:evenodd;clip-rule:evenodd;fill:#EC008C;" cx="50.994" r="0.499"/>
  <circle cy="-39.061" style="fill-rule:evenodd;clip-rule:evenodd;fill:#EC008C;" cx="54.994" r="0.499"/>
  <circle cy="-34.977" style="fill-rule:evenodd;clip-rule:evenodd;fill:#EC008C;" cx="2.994" r="0.499"/>
  <circle cy="-34.977" style="fill-rule:evenodd;clip-rule:evenodd;fill:#EC008C;" cx="6.994" r="0.499"/>
  <circle cy="-34.977" style="fill-rule:evenodd;clip-rule:evenodd;fill:#EC008C;" cx="10.994" r="0.499"/>
  <circle cy="-34.977" style="fill-rule:evenodd;clip-rule:evenodd;fill:#EC008C;" cx="14.994" r="0.499"/>
  <circle cy="-34.977" style="fill-rule:evenodd;clip-rule:evenodd;fill:#EC008C;" cx="18.994" r="0.499"/>
  <circle cy="-34.977" style="fill-rule:evenodd;clip-rule:evenodd;fill:#EC008C;" cx="22.994" r="0.499"/>
  <circle cy="-34.977" style="fill-rule:evenodd;clip-rule:evenodd;fill:#EC008C;" cx="26.994" r="0.499"/>
  <circle cy="-34.977" style="fill-rule:evenodd;clip-rule:evenodd;fill:#EC008C;" cx="30.994" r="0.499"/>
  <circle cy="-34.977" style="fill-rule:evenodd;clip-rule:evenodd;fill:#EC008C;" cx="34.994" r="0.499"/>
  <circle cy="-34.977" style="fill-rule:evenodd;clip-rule:evenodd;fill:#EC008C;" cx="38.994" r="0.499"/>
  <circle cy="-34.977" style="fill-rule:evenodd;clip-rule:evenodd;fill:#EC008C;" cx="42.994" r="0.499"/>
  <circle cy="-34.977" style="fill-rule:evenodd;clip-rule:evenodd;fill:#EC008C;" cx="46.994" r="0.499"/>
  <circle cy="-34.977" style="fill-rule:evenodd;clip-rule:evenodd;fill:#EC008C;" cx="50.994" r="0.499"/>
  <circle cy="-34.977" style="fill-rule:evenodd;clip-rule:evenodd;fill:#EC008C;" cx="54.994" r="0.499"/>
  <circle cy="-30.977" style="fill-rule:evenodd;clip-rule:evenodd;fill:#EC008C;" cx="2.994" r="0.499"/>
  <circle cy="-30.977" style="fill-rule:evenodd;clip-rule:evenodd;fill:#EC008C;" cx="6.994" r="0.499"/>
  <circle cy="-30.977" style="fill-rule:evenodd;clip-rule:evenodd;fill:#EC008C;" cx="10.994" r="0.499"/>
  <circle cy="-30.977" style="fill-rule:evenodd;clip-rule:evenodd;fill:#EC008C;" cx="14.994" r="0.499"/>
  <circle cy="-30.977" style="fill-rule:evenodd;clip-rule:evenodd;fill:#EC008C;" cx="18.994" r="0.499"/>
  <circle cy="-30.977" style="fill-rule:evenodd;clip-rule:evenodd;fill:#EC008C;" cx="22.994" r="0.499"/>
  <circle cy="-30.977" style="fill-rule:evenodd;clip-rule:evenodd;fill:#EC008C;" cx="26.994" r="0.499"/>
  <circle cy="-30.977" style="fill-rule:evenodd;clip-rule:evenodd;fill:#EC008C;" cx="30.994" r="0.499"/>
  <circle cy="-30.977" style="fill-rule:evenodd;clip-rule:evenodd;fill:#EC008C;" cx="34.994" r="0.499"/>
  <circle cy="-30.977" style="fill-rule:evenodd;clip-rule:evenodd;fill:#EC008C;" cx="38.994" r="0.499"/>
  <circle cy="-30.977" style="fill-rule:evenodd;clip-rule:evenodd;fill:#EC008C;" cx="42.994" r="0.499"/>
  <circle cy="-30.977" style="fill-rule:evenodd;clip-rule:evenodd;fill:#EC008C;" cx="46.994" r="0.499"/>
  <circle cy="-30.977" style="fill-rule:evenodd;clip-rule:evenodd;fill:#EC008C;" cx="50.994" r="0.499"/>
  <circle cy="-30.977" style="fill-rule:evenodd;clip-rule:evenodd;fill:#EC008C;" cx="54.994" r="0.499"/>
  <circle cy="-26.977" style="fill-rule:evenodd;clip-rule:evenodd;fill:#EC008C;" cx="2.994" r="0.499"/>
  <circle cy="-26.977" style="fill-rule:evenodd;clip-rule:evenodd;fill:#EC008C;" cx="6.994" r="0.499"/>
  <circle cy="-26.977" style="fill-rule:evenodd;clip-rule:evenodd;fill:#EC008C;" cx="10.994" r="0.499"/>
  <circle cy="-26.977" style="fill-rule:evenodd;clip-rule:evenodd;fill:#EC008C;" cx="14.994" r="0.499"/>
  <circle cy="-26.977" style="fill-rule:evenodd;clip-rule:evenodd;fill:#EC008C;" cx="18.994" r="0.499"/>
  <circle cy="-26.977" style="fill-rule:evenodd;clip-rule:evenodd;fill:#EC008C;" cx="22.994" r="0.499"/>
  <circle cy="-26.977" style="fill-rule:evenodd;clip-rule:evenodd;fill:#EC008C;" cx="26.994" r="0.499"/>
  <circle cy="-26.977" style="fill-rule:evenodd;clip-rule:evenodd;fill:#EC008C;" cx="30.994" r="0.499"/>
  <circle cy="-26.977" style="fill-rule:evenodd;clip-rule:evenodd;fill:#EC008C;" cx="34.994" r="0.499"/>
  <circle cy="-26.977" style="fill-rule:evenodd;clip-rule:evenodd;fill:#EC008C;" cx="38.994" r="0.499"/>
  <circle cy="-26.977" style="fill-rule:evenodd;clip-rule:evenodd;fill:#EC008C;" cx="42.994" r="0.499"/>
  <circle cy="-26.977" style="fill-rule:evenodd;clip-rule:evenodd;fill:#EC008C;" cx="46.994" r="0.499"/>
  <circle cy="-26.977" style="fill:#EC008C;" cx="50.994" r="0.499"/>
  <circle cy="-26.977" style="fill-rule:evenodd;clip-rule:evenodd;fill:#EC008C;" cx="54.994" r="0.499"/>
  <circle cy="-22.977" style="fill-rule:evenodd;clip-rule:evenodd;fill:#EC008C;" cx="2.994" r="0.499"/>
  <circle cy="-22.977" style="fill-rule:evenodd;clip-rule:evenodd;fill:#EC008C;" cx="6.994" r="0.499"/>
  <circle cy="-22.977" style="fill-rule:evenodd;clip-rule:evenodd;fill:#EC008C;" cx="10.994" r="0.499"/>
  <circle cy="-22.977" style="fill:#EC008C;" cx="14.994" r="0.499"/>
  <circle cy="-22.977" style="fill-rule:evenodd;clip-rule:evenodd;fill:#EC008C;" cx="18.994" r="0.499"/>
  <circle cy="-22.977" style="fill-rule:evenodd;clip-rule:evenodd;fill:#EC008C;" cx="22.994" r="0.499"/>
  <circle cy="-22.977" style="fill-rule:evenodd;clip-rule:evenodd;fill:#EC008C;" cx="26.994" r="0.499"/>
  <circle cy="-22.977" style="fill-rule:evenodd;clip-rule:evenodd;fill:#EC008C;" cx="30.994" r="0.499"/>
  <circle cy="-22.977" style="fill-rule:evenodd;clip-rule:evenodd;fill:#EC008C;" cx="34.994" r="0.499"/>
  <circle cy="-22.977" style="fill-rule:evenodd;clip-rule:evenodd;fill:#EC008C;" cx="38.994" r="0.499"/>
  <circle cy="-22.977" style="fill-rule:evenodd;clip-rule:evenodd;fill:#EC008C;" cx="42.994" r="0.499"/>
  <circle cy="-22.977" style="fill-rule:evenodd;clip-rule:evenodd;fill:#EC008C;" cx="46.994" r="0.499"/>
  <circle cy="-22.977" style="fill-rule:evenodd;clip-rule:evenodd;fill:#EC008C;" cx="50.994" r="0.499"/>
  <circle cy="-22.977" style="fill-rule:evenodd;clip-rule:evenodd;fill:#EC008C;" cx="54.994" r="0.499"/>
  <circle cy="-18.977" style="fill-rule:evenodd;clip-rule:evenodd;fill:#EC008C;" cx="2.994" r="0.499"/>
  <circle cy="-18.977" style="fill-rule:evenodd;clip-rule:evenodd;fill:#EC008C;" cx="6.994" r="0.499"/>
  <circle cy="-18.977" style="fill-rule:evenodd;clip-rule:evenodd;fill:#EC008C;" cx="10.994" r="0.499"/>
  <circle cy="-18.977" style="fill-rule:evenodd;clip-rule:evenodd;fill:#EC008C;" cx="14.994" r="0.499"/>
  <circle cy="-18.977" style="fill-rule:evenodd;clip-rule:evenodd;fill:#EC008C;" cx="18.994" r="0.499"/>
  <circle cy="-18.977" style="fill-rule:evenodd;clip-rule:evenodd;fill:#EC008C;" cx="22.994" r="0.499"/>
  <circle cy="-18.977" style="fill-rule:evenodd;clip-rule:evenodd;fill:#EC008C;" cx="26.994" r="0.499"/>
  <circle cy="-18.977" style="fill-rule:evenodd;clip-rule:evenodd;fill:#EC008C;" cx="30.994" r="0.499"/>
  <circle cy="-18.977" style="fill-rule:evenodd;clip-rule:evenodd;fill:#EC008C;" cx="34.994" r="0.499"/>
  <circle cy="-18.977" style="fill-rule:evenodd;clip-rule:evenodd;fill:#EC008C;" cx="38.994" r="0.499"/>
  <circle cy="-18.977" style="fill-rule:evenodd;clip-rule:evenodd;fill:#EC008C;" cx="42.994" r="0.499"/>
  <circle cy="-18.977" style="fill-rule:evenodd;clip-rule:evenodd;fill:#EC008C;" cx="46.994" r="0.499"/>
  <circle cy="-18.977" style="fill-rule:evenodd;clip-rule:evenodd;fill:#EC008C;" cx="50.994" r="0.499"/>
  <circle cy="-18.977" style="fill-rule:evenodd;clip-rule:evenodd;fill:#EC008C;" cx="54.994" r="0.499"/>
  <circle cy="-14.977" style="fill:#EC008C;" cx="2.994" r="0.499"/>
  <circle cy="-14.977" style="fill-rule:evenodd;clip-rule:evenodd;fill:#EC008C;" cx="6.994" r="0.499"/>
  <circle cy="-14.977" style="fill-rule:evenodd;clip-rule:evenodd;fill:#EC008C;" cx="10.994" r="0.499"/>
  <circle cy="-14.977" style="fill-rule:evenodd;clip-rule:evenodd;fill:#EC008C;" cx="14.994" r="0.499"/>
  <circle cy="-14.977" style="fill-rule:evenodd;clip-rule:evenodd;fill:#EC008C;" cx="18.994" r="0.499"/>
  <circle cy="-14.977" style="fill-rule:evenodd;clip-rule:evenodd;fill:#EC008C;" cx="22.994" r="0.499"/>
  <circle cy="-14.977" style="fill-rule:evenodd;clip-rule:evenodd;fill:#EC008C;" cx="26.994" r="0.499"/>
  <circle cy="-14.977" style="fill:#EC008C;" cx="30.994" r="0.499"/>
  <circle cy="-14.977" style="fill-rule:evenodd;clip-rule:evenodd;fill:#EC008C;" cx="34.994" r="0.499"/>
  <circle cy="-14.977" style="fill-rule:evenodd;clip-rule:evenodd;fill:#EC008C;" cx="38.994" r="0.499"/>
  <circle cy="-14.977" style="fill-rule:evenodd;clip-rule:evenodd;fill:#EC008C;" cx="42.994" r="0.499"/>
  <circle cy="-14.977" style="fill-rule:evenodd;clip-rule:evenodd;fill:#EC008C;" cx="46.994" r="0.499"/>
  <circle cy="-14.977" style="fill-rule:evenodd;clip-rule:evenodd;fill:#EC008C;" cx="50.994" r="0.499"/>
  <circle cy="-14.977" style="fill-rule:evenodd;clip-rule:evenodd;fill:#EC008C;" cx="54.994" r="0.499"/>
  <circle cy="-10.977" style="fill-rule:evenodd;clip-rule:evenodd;fill:#EC008C;" cx="2.994" r="0.499"/>
  <circle cy="-10.977" style="fill-rule:evenodd;clip-rule:evenodd;fill:#EC008C;" cx="6.994" r="0.499"/>
  <circle cy="-10.977" style="fill-rule:evenodd;clip-rule:evenodd;fill:#EC008C;" cx="10.994" r="0.499"/>
  <circle cy="-10.977" style="fill-rule:evenodd;clip-rule:evenodd;fill:#EC008C;" cx="14.994" r="0.499"/>
  <circle cy="-10.977" style="fill:#EC008C;" cx="18.994" r="0.499"/>
  <circle cy="-10.977" style="fill-rule:evenodd;clip-rule:evenodd;fill:#EC008C;" cx="22.994" r="0.499"/>
  <circle cy="-10.977" style="fill-rule:evenodd;clip-rule:evenodd;fill:#EC008C;" cx="26.994" r="0.499"/>
  <circle cy="-10.977" style="fill-rule:evenodd;clip-rule:evenodd;fill:#EC008C;" cx="30.994" r="0.499"/>
  <circle cy="-10.977" style="fill-rule:evenodd;clip-rule:evenodd;fill:#EC008C;" cx="34.994" r="0.499"/>
  <circle cy="-10.977" style="fill-rule:evenodd;clip-rule:evenodd;fill:#EC008C;" cx="38.994" r="0.499"/>
  <circle cy="-10.977" style="fill-rule:evenodd;clip-rule:evenodd;fill:#EC008C;" cx="42.994" r="0.499"/>
  <circle cy="-10.977" style="fill-rule:evenodd;clip-rule:evenodd;fill:#EC008C;" cx="46.994" r="0.499"/>
  <circle cy="-10.977" style="fill-rule:evenodd;clip-rule:evenodd;fill:#EC008C;" cx="50.994" r="0.499"/>
  <circle cy="-10.977" style="fill-rule:evenodd;clip-rule:evenodd;fill:#EC008C;" cx="54.994" r="0.499"/>
  <circle cy="-6.977" style="fill-rule:evenodd;clip-rule:evenodd;fill:#EC008C;" cx="2.994" r="0.499"/>
  <circle cy="-6.977" style="fill-rule:evenodd;clip-rule:evenodd;fill:#EC008C;" cx="6.994" r="0.499"/>
  <circle cy="-6.977" style="fill-rule:evenodd;clip-rule:evenodd;fill:#EC008C;" cx="10.994" r="0.499"/>
  <circle cy="-6.977" style="fill-rule:evenodd;clip-rule:evenodd;fill:#EC008C;" cx="14.994" r="0.499"/>
  <circle cy="-6.977" style="fill-rule:evenodd;clip-rule:evenodd;fill:#EC008C;" cx="18.994" r="0.499"/>
  <circle cy="-6.977" style="fill-rule:evenodd;clip-rule:evenodd;fill:#EC008C;" cx="22.994" r="0.499"/>
  <circle cy="-6.977" style="fill-rule:evenodd;clip-rule:evenodd;fill:#EC008C;" cx="26.994" r="0.499"/>
  <circle cy="-6.977" style="fill-rule:evenodd;clip-rule:evenodd;fill:#EC008C;" cx="30.994" r="0.499"/>
  <circle cy="-6.977" style="fill-rule:evenodd;clip-rule:evenodd;fill:#EC008C;" cx="34.994" r="0.499"/>
  <circle cy="-6.977" style="fill-rule:evenodd;clip-rule:evenodd;fill:#EC008C;" cx="38.994" r="0.499"/>
  <circle cy="-6.977" style="fill-rule:evenodd;clip-rule:evenodd;fill:#EC008C;" cx="42.994" r="0.499"/>
  <circle cy="-6.977" style="fill-rule:evenodd;clip-rule:evenodd;fill:#EC008C;" cx="46.994" r="0.499"/>
  <circle cy="-6.977" style="fill-rule:evenodd;clip-rule:evenodd;fill:#EC008C;" cx="50.994" r="0.499"/>
  <circle cy="-6.977" style="fill-rule:evenodd;clip-rule:evenodd;fill:#EC008C;" cx="54.994" r="0.499"/>
  <circle cy="-2.977" style="fill-rule:evenodd;clip-rule:evenodd;fill:#EC008C;" cx="2.994" r="0.499"/>
  <circle cy="-2.977" style="fill-rule:evenodd;clip-rule:evenodd;fill:#EC008C;" cx="6.994" r="0.499"/>
  <circle cy="-2.977" style="fill-rule:evenodd;clip-rule:evenodd;fill:#EC008C;" cx="10.994" r="0.499"/>
  <circle cy="-2.977" style="fill-rule:evenodd;clip-rule:evenodd;fill:#EC008C;" cx="14.994" r="0.499"/>
  <circle cy="-2.977" style="fill-rule:evenodd;clip-rule:evenodd;fill:#EC008C;" cx="18.994" r="0.499"/>
  <circle cy="-2.977" style="fill-rule:evenodd;clip-rule:evenodd;fill:#EC008C;" cx="22.994" r="0.499"/>
  <circle cy="-2.977" style="fill-rule:evenodd;clip-rule:evenodd;fill:#EC008C;" cx="26.994" r="0.499"/>
  <circle cy="-2.977" style="fill-rule:evenodd;clip-rule:evenodd;fill:#EC008C;" cx="30.994" r="0.499"/>
  <circle cy="-2.977" style="fill-rule:evenodd;clip-rule:evenodd;fill:#EC008C;" cx="34.994" r="0.499"/>
  <circle cy="-2.977" style="fill-rule:evenodd;clip-rule:evenodd;fill:#EC008C;" cx="38.994" r="0.499"/>
  <circle cy="-2.977" style="fill-rule:evenodd;clip-rule:evenodd;fill:#EC008C;" cx="42.994" r="0.499"/>
  <circle cy="-2.977" style="fill-rule:evenodd;clip-rule:evenodd;fill:#EC008C;" cx="46.994" r="0.499"/>
  <circle cy="-2.977" style="fill-rule:evenodd;clip-rule:evenodd;fill:#EC008C;" cx="50.994" r="0.499"/>
  <circle cy="-2.977" style="fill-rule:evenodd;clip-rule:evenodd;fill:#EC008C;" cx="54.994" r="0.499"/>
 </g>
</svg>
