<?xml version="1.0"?>
<!-- Converted with SVG Converter - Version 0.9.5 (Compiled Fri Feb 21 09:53:38 2020) - Copyright (C) 2011 Nokia -->
<svg xmlns="http://www.w3.org/2000/svg" y="0px" xml:space="preserve" xmlns:xlink="http://www.w3.org/1999/xlink" x="0px" version="1.1" height="56.016" width="56" baseProfile="tiny" viewBox="1 -57.016 56 56.016">
 <g>
  <rect y="-57.016" x="1" style="fill:none;" height="56.016" width="56"/>
  <circle r="0.449" cy="-54.977" style="fill-rule:evenodd;clip-rule:evenodd;" cx="2.994"/>
  <circle r="0.449" cy="-54.977" style="fill-rule:evenodd;clip-rule:evenodd;" cx="6.994"/>
  <circle r="0.449" cy="-54.977" style="fill-rule:evenodd;clip-rule:evenodd;" cx="10.994"/>
  <circle r="0.449" cy="-54.977" style="fill-rule:evenodd;clip-rule:evenodd;" cx="14.994"/>
  <circle r="0.449" cy="-54.977" style="fill-rule:evenodd;clip-rule:evenodd;" cx="18.994"/>
  <circle r="0.449" cy="-54.977" style="fill-rule:evenodd;clip-rule:evenodd;" cx="22.994"/>
  <circle r="0.449" cy="-54.977" style="fill-rule:evenodd;clip-rule:evenodd;" cx="26.994"/>
  <circle r="0.449" cy="-54.977" style="fill-rule:evenodd;clip-rule:evenodd;" cx="30.994"/>
  <circle r="0.449" cy="-54.977" style="fill-rule:evenodd;clip-rule:evenodd;" cx="34.994"/>
  <circle r="0.449" cy="-54.977" style="fill-rule:evenodd;clip-rule:evenodd;" cx="38.994"/>
  <circle r="0.449" cy="-54.977" style="fill-rule:evenodd;clip-rule:evenodd;" cx="42.994"/>
  <circle r="0.449" cy="-54.977" style="fill-rule:evenodd;clip-rule:evenodd;" cx="46.994"/>
  <circle r="0.449" cy="-54.977" style="fill-rule:evenodd;clip-rule:evenodd;" cx="50.994"/>
  <circle r="0.449" cy="-54.977" style="fill-rule:evenodd;clip-rule:evenodd;" cx="54.994"/>
  <circle r="0.449" cy="-50.998" style="fill-rule:evenodd;clip-rule:evenodd;" cx="2.994"/>
  <circle r="0.449" cy="-50.998" style="fill-rule:evenodd;clip-rule:evenodd;" cx="6.994"/>
  <circle r="0.449" cy="-50.998" style="fill-rule:evenodd;clip-rule:evenodd;" cx="10.994"/>
  <circle r="0.449" cy="-50.998" style="fill-rule:evenodd;clip-rule:evenodd;" cx="14.994"/>
  <circle r="0.449" cy="-50.998" style="fill-rule:evenodd;clip-rule:evenodd;" cx="18.994"/>
  <circle r="0.449" cy="-50.998" style="fill-rule:evenodd;clip-rule:evenodd;" cx="22.994"/>
  <circle r="0.449" cy="-50.998" style="fill-rule:evenodd;clip-rule:evenodd;" cx="26.994"/>
  <circle r="0.449" cy="-50.998" style="fill-rule:evenodd;clip-rule:evenodd;" cx="30.994"/>
  <circle r="0.449" cy="-50.998" style="fill-rule:evenodd;clip-rule:evenodd;" cx="34.994"/>
  <circle r="0.449" cy="-50.998" style="fill-rule:evenodd;clip-rule:evenodd;" cx="38.994"/>
  <circle r="0.449" cy="-50.998" style="fill-rule:evenodd;clip-rule:evenodd;" cx="42.994"/>
  <circle r="0.449" cy="-50.998" style="fill-rule:evenodd;clip-rule:evenodd;" cx="46.994"/>
  <circle r="0.449" cy="-50.998" style="fill-rule:evenodd;clip-rule:evenodd;" cx="50.994"/>
  <circle r="0.449" cy="-50.998" style="fill-rule:evenodd;clip-rule:evenodd;" cx="54.994"/>
  <circle r="0.449" cy="-46.998" style="fill-rule:evenodd;clip-rule:evenodd;" cx="2.994"/>
  <circle r="0.449" cy="-46.998" style="fill-rule:evenodd;clip-rule:evenodd;" cx="6.994"/>
  <circle r="0.449" cy="-46.998" style="fill-rule:evenodd;clip-rule:evenodd;" cx="10.994"/>
  <circle r="0.449" cy="-46.998" style="fill-rule:evenodd;clip-rule:evenodd;" cx="14.994"/>
  <circle r="0.449" cy="-46.998" style="fill-rule:evenodd;clip-rule:evenodd;" cx="18.994"/>
  <circle r="0.449" cy="-46.998" style="fill-rule:evenodd;clip-rule:evenodd;" cx="22.994"/>
  <circle r="0.449" cy="-46.998" style="fill-rule:evenodd;clip-rule:evenodd;" cx="26.994"/>
  <circle r="0.449" cy="-46.998" style="fill-rule:evenodd;clip-rule:evenodd;" cx="30.994"/>
  <circle r="0.449" cy="-46.998" style="fill-rule:evenodd;clip-rule:evenodd;" cx="34.994"/>
  <circle r="0.449" cy="-46.998" style="fill-rule:evenodd;clip-rule:evenodd;" cx="38.994"/>
  <circle r="0.449" cy="-46.998" style="fill-rule:evenodd;clip-rule:evenodd;" cx="42.994"/>
  <circle r="0.449" cy="-46.998" style="fill-rule:evenodd;clip-rule:evenodd;" cx="46.994"/>
  <circle r="0.449" cy="-46.998" style="fill-rule:evenodd;clip-rule:evenodd;" cx="50.994"/>
  <circle r="0.449" cy="-46.998" style="fill-rule:evenodd;clip-rule:evenodd;" cx="54.994"/>
  <circle r="0.449" cy="-42.998" style="fill-rule:evenodd;clip-rule:evenodd;" cx="2.994"/>
  <circle r="0.449" cy="-42.998" style="fill-rule:evenodd;clip-rule:evenodd;" cx="6.994"/>
  <circle r="0.449" cy="-42.998" style="fill-rule:evenodd;clip-rule:evenodd;" cx="10.994"/>
  <circle r="0.449" cy="-42.998" style="fill-rule:evenodd;clip-rule:evenodd;" cx="14.994"/>
  <circle r="0.449" cy="-42.998" style="fill-rule:evenodd;clip-rule:evenodd;" cx="18.994"/>
  <circle r="0.449" cy="-42.998" style="fill-rule:evenodd;clip-rule:evenodd;" cx="22.994"/>
  <circle r="0.449" cy="-42.998" style="fill-rule:evenodd;clip-rule:evenodd;" cx="26.994"/>
  <circle r="0.449" cy="-42.998" style="fill-rule:evenodd;clip-rule:evenodd;" cx="30.994"/>
  <circle r="0.449" cy="-42.998" style="fill-rule:evenodd;clip-rule:evenodd;" cx="34.994"/>
  <circle r="0.449" cy="-42.998" style="fill-rule:evenodd;clip-rule:evenodd;" cx="38.994"/>
  <circle r="0.449" cy="-42.998" style="fill-rule:evenodd;clip-rule:evenodd;" cx="42.994"/>
  <circle r="0.449" cy="-42.998" style="fill-rule:evenodd;clip-rule:evenodd;" cx="46.994"/>
  <circle r="0.449" cy="-42.998" style="fill-rule:evenodd;clip-rule:evenodd;" cx="50.994"/>
  <circle r="0.449" cy="-42.998" style="fill-rule:evenodd;clip-rule:evenodd;" cx="54.994"/>
  <circle r="0.449" cy="-39.061" style="fill-rule:evenodd;clip-rule:evenodd;" cx="2.994"/>
  <circle r="0.449" cy="-39.061" style="fill-rule:evenodd;clip-rule:evenodd;" cx="6.994"/>
  <circle r="0.449" cy="-39.061" style="fill-rule:evenodd;clip-rule:evenodd;" cx="10.994"/>
  <circle r="0.449" cy="-39.061" style="fill-rule:evenodd;clip-rule:evenodd;" cx="14.994"/>
  <circle r="0.449" cy="-39.061" style="fill-rule:evenodd;clip-rule:evenodd;" cx="18.994"/>
  <circle r="0.449" cy="-39.061" style="fill-rule:evenodd;clip-rule:evenodd;" cx="22.994"/>
  <circle r="0.449" cy="-39.061" style="fill-rule:evenodd;clip-rule:evenodd;" cx="26.994"/>
  <circle r="0.449" cy="-39.061" style="fill-rule:evenodd;clip-rule:evenodd;" cx="30.994"/>
  <circle r="0.449" cy="-39.061" style="fill-rule:evenodd;clip-rule:evenodd;" cx="34.994"/>
  <circle r="0.449" cy="-39.061" cx="38.994"/>
  <circle r="0.449" cy="-39.061" style="fill-rule:evenodd;clip-rule:evenodd;" cx="42.994"/>
  <circle r="0.449" cy="-39.061" style="fill-rule:evenodd;clip-rule:evenodd;" cx="46.994"/>
  <circle r="0.449" cy="-39.061" style="fill-rule:evenodd;clip-rule:evenodd;" cx="50.994"/>
  <circle r="0.449" cy="-39.061" style="fill-rule:evenodd;clip-rule:evenodd;" cx="54.994"/>
  <circle r="0.449" cy="-34.977" style="fill-rule:evenodd;clip-rule:evenodd;" cx="2.994"/>
  <circle r="0.449" cy="-34.977" style="fill-rule:evenodd;clip-rule:evenodd;" cx="6.994"/>
  <circle r="0.449" cy="-34.977" style="fill-rule:evenodd;clip-rule:evenodd;" cx="10.994"/>
  <circle r="0.449" cy="-34.977" style="fill-rule:evenodd;clip-rule:evenodd;" cx="14.994"/>
  <circle r="0.449" cy="-34.977" style="fill-rule:evenodd;clip-rule:evenodd;" cx="18.994"/>
  <circle r="0.449" cy="-34.977" style="fill-rule:evenodd;clip-rule:evenodd;" cx="22.994"/>
  <circle r="0.449" cy="-34.977" style="fill-rule:evenodd;clip-rule:evenodd;" cx="26.994"/>
  <circle r="0.449" cy="-34.977" style="fill-rule:evenodd;clip-rule:evenodd;" cx="30.994"/>
  <circle r="0.449" cy="-34.977" style="fill-rule:evenodd;clip-rule:evenodd;" cx="34.994"/>
  <circle r="0.449" cy="-34.977" style="fill-rule:evenodd;clip-rule:evenodd;" cx="38.994"/>
  <circle r="0.449" cy="-34.977" style="fill-rule:evenodd;clip-rule:evenodd;" cx="42.994"/>
  <circle r="0.449" cy="-34.977" style="fill-rule:evenodd;clip-rule:evenodd;" cx="46.994"/>
  <circle r="0.449" cy="-34.977" style="fill-rule:evenodd;clip-rule:evenodd;" cx="50.994"/>
  <circle r="0.449" cy="-34.977" style="fill-rule:evenodd;clip-rule:evenodd;" cx="54.994"/>
  <circle r="0.449" cy="-30.977" style="fill-rule:evenodd;clip-rule:evenodd;" cx="2.994"/>
  <circle r="0.449" cy="-30.977" style="fill-rule:evenodd;clip-rule:evenodd;" cx="6.994"/>
  <circle r="0.449" cy="-30.977" style="fill-rule:evenodd;clip-rule:evenodd;" cx="10.994"/>
  <circle r="0.449" cy="-30.977" style="fill-rule:evenodd;clip-rule:evenodd;" cx="14.994"/>
  <circle r="0.449" cy="-30.977" style="fill-rule:evenodd;clip-rule:evenodd;" cx="18.994"/>
  <circle r="0.449" cy="-30.977" style="fill-rule:evenodd;clip-rule:evenodd;" cx="22.994"/>
  <circle r="0.449" cy="-30.977" style="fill-rule:evenodd;clip-rule:evenodd;" cx="26.994"/>
  <circle r="0.449" cy="-30.977" style="fill-rule:evenodd;clip-rule:evenodd;" cx="30.994"/>
  <circle r="0.449" cy="-30.977" style="fill-rule:evenodd;clip-rule:evenodd;" cx="34.994"/>
  <circle r="0.449" cy="-30.977" style="fill-rule:evenodd;clip-rule:evenodd;" cx="38.994"/>
  <circle r="0.449" cy="-30.977" style="fill-rule:evenodd;clip-rule:evenodd;" cx="42.994"/>
  <circle r="0.449" cy="-30.977" style="fill-rule:evenodd;clip-rule:evenodd;" cx="46.994"/>
  <circle r="0.449" cy="-30.977" style="fill-rule:evenodd;clip-rule:evenodd;" cx="50.994"/>
  <circle r="0.449" cy="-30.977" style="fill-rule:evenodd;clip-rule:evenodd;" cx="54.994"/>
  <circle r="0.449" cy="-26.977" style="fill-rule:evenodd;clip-rule:evenodd;" cx="2.994"/>
  <circle r="0.449" cy="-26.977" style="fill-rule:evenodd;clip-rule:evenodd;" cx="6.994"/>
  <circle r="0.449" cy="-26.977" style="fill-rule:evenodd;clip-rule:evenodd;" cx="10.994"/>
  <circle r="0.449" cy="-26.977" style="fill-rule:evenodd;clip-rule:evenodd;" cx="14.994"/>
  <circle r="0.449" cy="-26.977" style="fill-rule:evenodd;clip-rule:evenodd;" cx="18.994"/>
  <circle r="0.449" cy="-26.977" style="fill-rule:evenodd;clip-rule:evenodd;" cx="22.994"/>
  <circle r="0.449" cy="-26.977" style="fill-rule:evenodd;clip-rule:evenodd;" cx="26.994"/>
  <circle r="0.449" cy="-26.977" style="fill-rule:evenodd;clip-rule:evenodd;" cx="30.994"/>
  <circle r="0.449" cy="-26.977" style="fill-rule:evenodd;clip-rule:evenodd;" cx="34.994"/>
  <circle r="0.449" cy="-26.977" style="fill-rule:evenodd;clip-rule:evenodd;" cx="38.994"/>
  <circle r="0.449" cy="-26.977" style="fill-rule:evenodd;clip-rule:evenodd;" cx="42.994"/>
  <circle r="0.449" cy="-26.977" style="fill-rule:evenodd;clip-rule:evenodd;" cx="46.994"/>
  <circle r="0.449" cy="-26.977" cx="50.994"/>
  <circle r="0.449" cy="-26.977" style="fill-rule:evenodd;clip-rule:evenodd;" cx="54.994"/>
  <circle r="0.449" cy="-22.977" style="fill-rule:evenodd;clip-rule:evenodd;" cx="2.994"/>
  <circle r="0.449" cy="-22.977" style="fill-rule:evenodd;clip-rule:evenodd;" cx="6.994"/>
  <circle r="0.449" cy="-22.977" style="fill-rule:evenodd;clip-rule:evenodd;" cx="10.994"/>
  <circle r="0.449" cy="-22.977" cx="14.994"/>
  <circle r="0.449" cy="-22.977" style="fill-rule:evenodd;clip-rule:evenodd;" cx="18.994"/>
  <circle r="0.449" cy="-22.977" style="fill-rule:evenodd;clip-rule:evenodd;" cx="22.994"/>
  <circle r="0.449" cy="-22.977" style="fill-rule:evenodd;clip-rule:evenodd;" cx="26.994"/>
  <circle r="0.449" cy="-22.977" style="fill-rule:evenodd;clip-rule:evenodd;" cx="30.994"/>
  <circle r="0.449" cy="-22.977" style="fill-rule:evenodd;clip-rule:evenodd;" cx="34.994"/>
  <circle r="0.449" cy="-22.977" style="fill-rule:evenodd;clip-rule:evenodd;" cx="38.994"/>
  <circle r="0.449" cy="-22.977" style="fill-rule:evenodd;clip-rule:evenodd;" cx="42.994"/>
  <circle r="0.449" cy="-22.977" style="fill-rule:evenodd;clip-rule:evenodd;" cx="46.994"/>
  <circle r="0.449" cy="-22.977" style="fill-rule:evenodd;clip-rule:evenodd;" cx="50.994"/>
  <circle r="0.449" cy="-22.977" style="fill-rule:evenodd;clip-rule:evenodd;" cx="54.994"/>
  <circle r="0.449" cy="-18.977" style="fill-rule:evenodd;clip-rule:evenodd;" cx="2.994"/>
  <circle r="0.449" cy="-18.977" style="fill-rule:evenodd;clip-rule:evenodd;" cx="6.994"/>
  <circle r="0.449" cy="-18.977" style="fill-rule:evenodd;clip-rule:evenodd;" cx="10.994"/>
  <circle r="0.449" cy="-18.977" style="fill-rule:evenodd;clip-rule:evenodd;" cx="14.994"/>
  <circle r="0.449" cy="-18.977" style="fill-rule:evenodd;clip-rule:evenodd;" cx="18.994"/>
  <circle r="0.449" cy="-18.977" style="fill-rule:evenodd;clip-rule:evenodd;" cx="22.994"/>
  <circle r="0.449" cy="-18.977" style="fill-rule:evenodd;clip-rule:evenodd;" cx="26.994"/>
  <circle r="0.449" cy="-18.977" style="fill-rule:evenodd;clip-rule:evenodd;" cx="30.994"/>
  <circle r="0.449" cy="-18.977" style="fill-rule:evenodd;clip-rule:evenodd;" cx="34.994"/>
  <circle r="0.449" cy="-18.977" style="fill-rule:evenodd;clip-rule:evenodd;" cx="38.994"/>
  <circle r="0.449" cy="-18.977" style="fill-rule:evenodd;clip-rule:evenodd;" cx="42.994"/>
  <circle r="0.449" cy="-18.977" style="fill-rule:evenodd;clip-rule:evenodd;" cx="46.994"/>
  <circle r="0.449" cy="-18.977" style="fill-rule:evenodd;clip-rule:evenodd;" cx="50.994"/>
  <circle r="0.449" cy="-18.977" style="fill-rule:evenodd;clip-rule:evenodd;" cx="54.994"/>
  <circle r="0.449" cy="-14.977" cx="2.994"/>
  <circle r="0.449" cy="-14.977" style="fill-rule:evenodd;clip-rule:evenodd;" cx="6.994"/>
  <circle r="0.449" cy="-14.977" style="fill-rule:evenodd;clip-rule:evenodd;" cx="10.994"/>
  <circle r="0.449" cy="-14.977" style="fill-rule:evenodd;clip-rule:evenodd;" cx="14.994"/>
  <circle r="0.449" cy="-14.977" style="fill-rule:evenodd;clip-rule:evenodd;" cx="18.994"/>
  <circle r="0.449" cy="-14.977" style="fill-rule:evenodd;clip-rule:evenodd;" cx="22.994"/>
  <circle r="0.449" cy="-14.977" style="fill-rule:evenodd;clip-rule:evenodd;" cx="26.994"/>
  <circle r="0.449" cy="-14.977" cx="30.994"/>
  <circle r="0.449" cy="-14.977" style="fill-rule:evenodd;clip-rule:evenodd;" cx="34.994"/>
  <circle r="0.449" cy="-14.977" style="fill-rule:evenodd;clip-rule:evenodd;" cx="38.994"/>
  <circle r="0.449" cy="-14.977" style="fill-rule:evenodd;clip-rule:evenodd;" cx="42.994"/>
  <circle r="0.449" cy="-14.977" style="fill-rule:evenodd;clip-rule:evenodd;" cx="46.994"/>
  <circle r="0.449" cy="-14.977" style="fill-rule:evenodd;clip-rule:evenodd;" cx="50.994"/>
  <circle r="0.449" cy="-14.977" style="fill-rule:evenodd;clip-rule:evenodd;" cx="54.994"/>
  <circle r="0.449" cy="-10.977" style="fill-rule:evenodd;clip-rule:evenodd;" cx="2.994"/>
  <circle r="0.449" cy="-10.977" style="fill-rule:evenodd;clip-rule:evenodd;" cx="6.994"/>
  <circle r="0.449" cy="-10.977" style="fill-rule:evenodd;clip-rule:evenodd;" cx="10.994"/>
  <circle r="0.449" cy="-10.977" style="fill-rule:evenodd;clip-rule:evenodd;" cx="14.994"/>
  <circle r="0.449" cy="-10.977" cx="18.994"/>
  <circle r="0.449" cy="-10.977" style="fill-rule:evenodd;clip-rule:evenodd;" cx="22.994"/>
  <circle r="0.449" cy="-10.977" style="fill-rule:evenodd;clip-rule:evenodd;" cx="26.994"/>
  <circle r="0.449" cy="-10.977" style="fill-rule:evenodd;clip-rule:evenodd;" cx="30.994"/>
  <circle r="0.449" cy="-10.977" style="fill-rule:evenodd;clip-rule:evenodd;" cx="34.994"/>
  <circle r="0.449" cy="-10.977" style="fill-rule:evenodd;clip-rule:evenodd;" cx="38.994"/>
  <circle r="0.449" cy="-10.977" style="fill-rule:evenodd;clip-rule:evenodd;" cx="42.994"/>
  <circle r="0.449" cy="-10.977" style="fill-rule:evenodd;clip-rule:evenodd;" cx="46.994"/>
  <circle r="0.449" cy="-10.977" style="fill-rule:evenodd;clip-rule:evenodd;" cx="50.994"/>
  <circle r="0.449" cy="-10.977" style="fill-rule:evenodd;clip-rule:evenodd;" cx="54.994"/>
  <circle r="0.449" cy="-6.977" style="fill-rule:evenodd;clip-rule:evenodd;" cx="2.994"/>
  <circle r="0.449" cy="-6.977" style="fill-rule:evenodd;clip-rule:evenodd;" cx="6.994"/>
  <circle r="0.449" cy="-6.977" style="fill-rule:evenodd;clip-rule:evenodd;" cx="10.994"/>
  <circle r="0.449" cy="-6.977" style="fill-rule:evenodd;clip-rule:evenodd;" cx="14.994"/>
  <circle r="0.449" cy="-6.977" style="fill-rule:evenodd;clip-rule:evenodd;" cx="18.994"/>
  <circle r="0.449" cy="-6.977" style="fill-rule:evenodd;clip-rule:evenodd;" cx="22.994"/>
  <circle r="0.449" cy="-6.977" style="fill-rule:evenodd;clip-rule:evenodd;" cx="26.994"/>
  <circle r="0.449" cy="-6.977" style="fill-rule:evenodd;clip-rule:evenodd;" cx="30.994"/>
  <circle r="0.449" cy="-6.977" style="fill-rule:evenodd;clip-rule:evenodd;" cx="34.994"/>
  <circle r="0.449" cy="-6.977" style="fill-rule:evenodd;clip-rule:evenodd;" cx="38.994"/>
  <circle r="0.449" cy="-6.977" style="fill-rule:evenodd;clip-rule:evenodd;" cx="42.994"/>
  <circle r="0.449" cy="-6.977" style="fill-rule:evenodd;clip-rule:evenodd;" cx="46.994"/>
  <circle r="0.449" cy="-6.977" style="fill-rule:evenodd;clip-rule:evenodd;" cx="50.994"/>
  <circle r="0.449" cy="-6.977" style="fill-rule:evenodd;clip-rule:evenodd;" cx="54.994"/>
  <circle r="0.449" cy="-2.977" style="fill-rule:evenodd;clip-rule:evenodd;" cx="2.994"/>
  <circle r="0.449" cy="-2.977" style="fill-rule:evenodd;clip-rule:evenodd;" cx="6.994"/>
  <circle r="0.449" cy="-2.977" style="fill-rule:evenodd;clip-rule:evenodd;" cx="10.994"/>
  <circle r="0.449" cy="-2.977" style="fill-rule:evenodd;clip-rule:evenodd;" cx="14.994"/>
  <circle r="0.449" cy="-2.977" style="fill-rule:evenodd;clip-rule:evenodd;" cx="18.994"/>
  <circle r="0.449" cy="-2.977" style="fill-rule:evenodd;clip-rule:evenodd;" cx="22.994"/>
  <circle r="0.449" cy="-2.977" style="fill-rule:evenodd;clip-rule:evenodd;" cx="26.994"/>
  <circle r="0.449" cy="-2.977" style="fill-rule:evenodd;clip-rule:evenodd;" cx="30.994"/>
  <circle r="0.449" cy="-2.977" style="fill-rule:evenodd;clip-rule:evenodd;" cx="34.994"/>
  <circle r="0.449" cy="-2.977" style="fill-rule:evenodd;clip-rule:evenodd;" cx="38.994"/>
  <circle r="0.449" cy="-2.977" style="fill-rule:evenodd;clip-rule:evenodd;" cx="42.994"/>
  <circle r="0.449" cy="-2.977" style="fill-rule:evenodd;clip-rule:evenodd;" cx="46.994"/>
  <circle r="0.449" cy="-2.977" style="fill-rule:evenodd;clip-rule:evenodd;" cx="50.994"/>
  <circle r="0.449" cy="-2.977" style="fill-rule:evenodd;clip-rule:evenodd;" cx="54.994"/>
 </g>
</svg>
