<?xml version="1.0"?>
<!-- Converted with SVG Converter - Version 0.9.6 (Compiled Thu Aug 31 10:01:05 2017) - Copyright (C) 2011 Nokia -->
<svg xmlns="http://www.w3.org/2000/svg" baseProfile="tiny" xml:space="preserve" width="56" xmlns:xlink="http://www.w3.org/1999/xlink" version="1.1" x="0px" y="0px" viewBox="1 -57.016 56 56.016" height="56.016">
 <g>
  <rect style="fill:none;" width="56" x="1" y="-57.016" height="56.016"/>
  <circle style="fill-rule:evenodd;clip-rule:evenodd;fill:#EC008C;" r="0.499" cx="2.994" cy="-54.977"/>
  <circle style="fill-rule:evenodd;clip-rule:evenodd;fill:#EC008C;" r="0.499" cx="6.994" cy="-54.977"/>
  <circle style="fill-rule:evenodd;clip-rule:evenodd;fill:#EC008C;" r="0.499" cx="10.994" cy="-54.977"/>
  <circle style="fill-rule:evenodd;clip-rule:evenodd;fill:#EC008C;" r="0.499" cx="14.994" cy="-54.977"/>
  <circle style="fill-rule:evenodd;clip-rule:evenodd;fill:#EC008C;" r="0.499" cx="18.994" cy="-54.977"/>
  <circle style="fill-rule:evenodd;clip-rule:evenodd;fill:#EC008C;" r="0.499" cx="22.994" cy="-54.977"/>
  <circle style="fill-rule:evenodd;clip-rule:evenodd;fill:#EC008C;" r="0.499" cx="26.994" cy="-54.977"/>
  <circle style="fill-rule:evenodd;clip-rule:evenodd;fill:#EC008C;" r="0.499" cx="30.994" cy="-54.977"/>
  <circle style="fill-rule:evenodd;clip-rule:evenodd;fill:#EC008C;" r="0.499" cx="34.994" cy="-54.977"/>
  <circle style="fill-rule:evenodd;clip-rule:evenodd;fill:#EC008C;" r="0.499" cx="38.994" cy="-54.977"/>
  <circle style="fill-rule:evenodd;clip-rule:evenodd;fill:#EC008C;" r="0.499" cx="42.994" cy="-54.977"/>
  <circle style="fill-rule:evenodd;clip-rule:evenodd;fill:#EC008C;" r="0.499" cx="46.994" cy="-54.977"/>
  <circle style="fill-rule:evenodd;clip-rule:evenodd;fill:#EC008C;" r="0.499" cx="50.994" cy="-54.977"/>
  <circle style="fill-rule:evenodd;clip-rule:evenodd;fill:#EC008C;" r="0.499" cx="54.994" cy="-54.977"/>
  <circle style="fill-rule:evenodd;clip-rule:evenodd;fill:#EC008C;" r="0.499" cx="2.994" cy="-50.998"/>
  <circle style="fill-rule:evenodd;clip-rule:evenodd;fill:#EC008C;" r="0.499" cx="6.994" cy="-50.998"/>
  <circle style="fill-rule:evenodd;clip-rule:evenodd;fill:#EC008C;" r="0.499" cx="10.994" cy="-50.998"/>
  <circle style="fill-rule:evenodd;clip-rule:evenodd;fill:#EC008C;" r="0.499" cx="14.994" cy="-50.998"/>
  <circle style="fill-rule:evenodd;clip-rule:evenodd;fill:#EC008C;" r="0.499" cx="18.994" cy="-50.998"/>
  <circle style="fill-rule:evenodd;clip-rule:evenodd;fill:#EC008C;" r="0.499" cx="22.994" cy="-50.998"/>
  <circle style="fill-rule:evenodd;clip-rule:evenodd;fill:#EC008C;" r="0.499" cx="26.994" cy="-50.998"/>
  <circle style="fill-rule:evenodd;clip-rule:evenodd;fill:#EC008C;" r="0.499" cx="30.994" cy="-50.998"/>
  <circle style="fill-rule:evenodd;clip-rule:evenodd;fill:#EC008C;" r="0.499" cx="34.994" cy="-50.998"/>
  <circle style="fill-rule:evenodd;clip-rule:evenodd;fill:#EC008C;" r="0.499" cx="38.994" cy="-50.998"/>
  <circle style="fill-rule:evenodd;clip-rule:evenodd;fill:#EC008C;" r="0.499" cx="42.994" cy="-50.998"/>
  <circle style="fill-rule:evenodd;clip-rule:evenodd;fill:#EC008C;" r="0.499" cx="46.994" cy="-50.998"/>
  <circle style="fill-rule:evenodd;clip-rule:evenodd;fill:#EC008C;" r="0.499" cx="50.994" cy="-50.998"/>
  <circle style="fill-rule:evenodd;clip-rule:evenodd;fill:#EC008C;" r="0.499" cx="54.994" cy="-50.998"/>
  <circle style="fill-rule:evenodd;clip-rule:evenodd;fill:#EC008C;" r="0.499" cx="2.994" cy="-46.998"/>
  <circle style="fill-rule:evenodd;clip-rule:evenodd;fill:#EC008C;" r="0.499" cx="6.994" cy="-46.998"/>
  <circle style="fill-rule:evenodd;clip-rule:evenodd;fill:#EC008C;" r="0.499" cx="10.994" cy="-46.998"/>
  <circle style="fill-rule:evenodd;clip-rule:evenodd;fill:#EC008C;" r="0.499" cx="14.994" cy="-46.998"/>
  <circle style="fill-rule:evenodd;clip-rule:evenodd;fill:#EC008C;" r="0.499" cx="18.994" cy="-46.998"/>
  <circle style="fill-rule:evenodd;clip-rule:evenodd;fill:#EC008C;" r="0.499" cx="22.994" cy="-46.998"/>
  <circle style="fill-rule:evenodd;clip-rule:evenodd;fill:#EC008C;" r="0.499" cx="26.994" cy="-46.998"/>
  <circle style="fill-rule:evenodd;clip-rule:evenodd;fill:#EC008C;" r="0.499" cx="30.994" cy="-46.998"/>
  <circle style="fill-rule:evenodd;clip-rule:evenodd;fill:#EC008C;" r="0.499" cx="34.994" cy="-46.998"/>
  <circle style="fill-rule:evenodd;clip-rule:evenodd;fill:#EC008C;" r="0.499" cx="38.994" cy="-46.998"/>
  <circle style="fill-rule:evenodd;clip-rule:evenodd;fill:#EC008C;" r="0.499" cx="42.994" cy="-46.998"/>
  <circle style="fill-rule:evenodd;clip-rule:evenodd;fill:#EC008C;" r="0.499" cx="46.994" cy="-46.998"/>
  <circle style="fill-rule:evenodd;clip-rule:evenodd;fill:#EC008C;" r="0.499" cx="50.994" cy="-46.998"/>
  <circle style="fill-rule:evenodd;clip-rule:evenodd;fill:#EC008C;" r="0.499" cx="54.994" cy="-46.998"/>
  <circle style="fill-rule:evenodd;clip-rule:evenodd;fill:#EC008C;" r="0.499" cx="2.994" cy="-42.998"/>
  <circle style="fill-rule:evenodd;clip-rule:evenodd;fill:#EC008C;" r="0.499" cx="6.994" cy="-42.998"/>
  <circle style="fill-rule:evenodd;clip-rule:evenodd;fill:#EC008C;" r="0.499" cx="10.994" cy="-42.998"/>
  <circle style="fill-rule:evenodd;clip-rule:evenodd;fill:#EC008C;" r="0.499" cx="14.994" cy="-42.998"/>
  <circle style="fill-rule:evenodd;clip-rule:evenodd;fill:#EC008C;" r="0.499" cx="18.994" cy="-42.998"/>
  <circle style="fill-rule:evenodd;clip-rule:evenodd;fill:#EC008C;" r="0.499" cx="22.994" cy="-42.998"/>
  <circle style="fill-rule:evenodd;clip-rule:evenodd;fill:#EC008C;" r="0.499" cx="26.994" cy="-42.998"/>
  <circle style="fill-rule:evenodd;clip-rule:evenodd;fill:#EC008C;" r="0.499" cx="30.994" cy="-42.998"/>
  <circle style="fill-rule:evenodd;clip-rule:evenodd;fill:#EC008C;" r="0.499" cx="34.994" cy="-42.998"/>
  <circle style="fill-rule:evenodd;clip-rule:evenodd;fill:#EC008C;" r="0.499" cx="38.994" cy="-42.998"/>
  <circle style="fill-rule:evenodd;clip-rule:evenodd;fill:#EC008C;" r="0.499" cx="42.994" cy="-42.998"/>
  <circle style="fill-rule:evenodd;clip-rule:evenodd;fill:#EC008C;" r="0.499" cx="46.994" cy="-42.998"/>
  <circle style="fill-rule:evenodd;clip-rule:evenodd;fill:#EC008C;" r="0.499" cx="50.994" cy="-42.998"/>
  <circle style="fill-rule:evenodd;clip-rule:evenodd;fill:#EC008C;" r="0.499" cx="54.994" cy="-42.998"/>
  <circle style="fill-rule:evenodd;clip-rule:evenodd;fill:#EC008C;" r="0.499" cx="2.994" cy="-39.061"/>
  <circle style="fill-rule:evenodd;clip-rule:evenodd;fill:#EC008C;" r="0.499" cx="6.994" cy="-39.061"/>
  <circle style="fill-rule:evenodd;clip-rule:evenodd;fill:#EC008C;" r="0.499" cx="10.994" cy="-39.061"/>
  <circle style="fill-rule:evenodd;clip-rule:evenodd;fill:#EC008C;" r="0.499" cx="14.994" cy="-39.061"/>
  <circle style="fill-rule:evenodd;clip-rule:evenodd;fill:#EC008C;" r="0.499" cx="18.994" cy="-39.061"/>
  <circle style="fill-rule:evenodd;clip-rule:evenodd;fill:#EC008C;" r="0.499" cx="22.994" cy="-39.061"/>
  <circle style="fill-rule:evenodd;clip-rule:evenodd;fill:#EC008C;" r="0.499" cx="26.994" cy="-39.061"/>
  <circle style="fill-rule:evenodd;clip-rule:evenodd;fill:#EC008C;" r="0.499" cx="30.994" cy="-39.061"/>
  <circle style="fill-rule:evenodd;clip-rule:evenodd;fill:#EC008C;" r="0.499" cx="34.994" cy="-39.061"/>
  <circle style="fill:#EC008C;" r="0.499" cx="38.994" cy="-39.061"/>
  <circle style="fill-rule:evenodd;clip-rule:evenodd;fill:#EC008C;" r="0.499" cx="42.994" cy="-39.061"/>
  <circle style="fill-rule:evenodd;clip-rule:evenodd;fill:#EC008C;" r="0.499" cx="46.994" cy="-39.061"/>
  <circle style="fill-rule:evenodd;clip-rule:evenodd;fill:#EC008C;" r="0.499" cx="50.994" cy="-39.061"/>
  <circle style="fill-rule:evenodd;clip-rule:evenodd;fill:#EC008C;" r="0.499" cx="54.994" cy="-39.061"/>
  <circle style="fill-rule:evenodd;clip-rule:evenodd;fill:#EC008C;" r="0.499" cx="2.994" cy="-34.977"/>
  <circle style="fill-rule:evenodd;clip-rule:evenodd;fill:#EC008C;" r="0.499" cx="6.994" cy="-34.977"/>
  <circle style="fill-rule:evenodd;clip-rule:evenodd;fill:#EC008C;" r="0.499" cx="10.994" cy="-34.977"/>
  <circle style="fill-rule:evenodd;clip-rule:evenodd;fill:#EC008C;" r="0.499" cx="14.994" cy="-34.977"/>
  <circle style="fill-rule:evenodd;clip-rule:evenodd;fill:#EC008C;" r="0.499" cx="18.994" cy="-34.977"/>
  <circle style="fill-rule:evenodd;clip-rule:evenodd;fill:#EC008C;" r="0.499" cx="22.994" cy="-34.977"/>
  <circle style="fill-rule:evenodd;clip-rule:evenodd;fill:#EC008C;" r="0.499" cx="26.994" cy="-34.977"/>
  <circle style="fill-rule:evenodd;clip-rule:evenodd;fill:#EC008C;" r="0.499" cx="30.994" cy="-34.977"/>
  <circle style="fill-rule:evenodd;clip-rule:evenodd;fill:#EC008C;" r="0.499" cx="34.994" cy="-34.977"/>
  <circle style="fill-rule:evenodd;clip-rule:evenodd;fill:#EC008C;" r="0.499" cx="38.994" cy="-34.977"/>
  <circle style="fill-rule:evenodd;clip-rule:evenodd;fill:#EC008C;" r="0.499" cx="42.994" cy="-34.977"/>
  <circle style="fill-rule:evenodd;clip-rule:evenodd;fill:#EC008C;" r="0.499" cx="46.994" cy="-34.977"/>
  <circle style="fill-rule:evenodd;clip-rule:evenodd;fill:#EC008C;" r="0.499" cx="50.994" cy="-34.977"/>
  <circle style="fill-rule:evenodd;clip-rule:evenodd;fill:#EC008C;" r="0.499" cx="54.994" cy="-34.977"/>
  <circle style="fill-rule:evenodd;clip-rule:evenodd;fill:#EC008C;" r="0.499" cx="2.994" cy="-30.977"/>
  <circle style="fill-rule:evenodd;clip-rule:evenodd;fill:#EC008C;" r="0.499" cx="6.994" cy="-30.977"/>
  <circle style="fill-rule:evenodd;clip-rule:evenodd;fill:#EC008C;" r="0.499" cx="10.994" cy="-30.977"/>
  <circle style="fill-rule:evenodd;clip-rule:evenodd;fill:#EC008C;" r="0.499" cx="14.994" cy="-30.977"/>
  <circle style="fill-rule:evenodd;clip-rule:evenodd;fill:#EC008C;" r="0.499" cx="18.994" cy="-30.977"/>
  <circle style="fill-rule:evenodd;clip-rule:evenodd;fill:#EC008C;" r="0.499" cx="22.994" cy="-30.977"/>
  <circle style="fill-rule:evenodd;clip-rule:evenodd;fill:#EC008C;" r="0.499" cx="26.994" cy="-30.977"/>
  <circle style="fill-rule:evenodd;clip-rule:evenodd;fill:#EC008C;" r="0.499" cx="30.994" cy="-30.977"/>
  <circle style="fill-rule:evenodd;clip-rule:evenodd;fill:#EC008C;" r="0.499" cx="34.994" cy="-30.977"/>
  <circle style="fill-rule:evenodd;clip-rule:evenodd;fill:#EC008C;" r="0.499" cx="38.994" cy="-30.977"/>
  <circle style="fill-rule:evenodd;clip-rule:evenodd;fill:#EC008C;" r="0.499" cx="42.994" cy="-30.977"/>
  <circle style="fill-rule:evenodd;clip-rule:evenodd;fill:#EC008C;" r="0.499" cx="46.994" cy="-30.977"/>
  <circle style="fill-rule:evenodd;clip-rule:evenodd;fill:#EC008C;" r="0.499" cx="50.994" cy="-30.977"/>
  <circle style="fill-rule:evenodd;clip-rule:evenodd;fill:#EC008C;" r="0.499" cx="54.994" cy="-30.977"/>
  <circle style="fill-rule:evenodd;clip-rule:evenodd;fill:#EC008C;" r="0.499" cx="2.994" cy="-26.977"/>
  <circle style="fill-rule:evenodd;clip-rule:evenodd;fill:#EC008C;" r="0.499" cx="6.994" cy="-26.977"/>
  <circle style="fill-rule:evenodd;clip-rule:evenodd;fill:#EC008C;" r="0.499" cx="10.994" cy="-26.977"/>
  <circle style="fill-rule:evenodd;clip-rule:evenodd;fill:#EC008C;" r="0.499" cx="14.994" cy="-26.977"/>
  <circle style="fill-rule:evenodd;clip-rule:evenodd;fill:#EC008C;" r="0.499" cx="18.994" cy="-26.977"/>
  <circle style="fill-rule:evenodd;clip-rule:evenodd;fill:#EC008C;" r="0.499" cx="22.994" cy="-26.977"/>
  <circle style="fill-rule:evenodd;clip-rule:evenodd;fill:#EC008C;" r="0.499" cx="26.994" cy="-26.977"/>
  <circle style="fill-rule:evenodd;clip-rule:evenodd;fill:#EC008C;" r="0.499" cx="30.994" cy="-26.977"/>
  <circle style="fill-rule:evenodd;clip-rule:evenodd;fill:#EC008C;" r="0.499" cx="34.994" cy="-26.977"/>
  <circle style="fill-rule:evenodd;clip-rule:evenodd;fill:#EC008C;" r="0.499" cx="38.994" cy="-26.977"/>
  <circle style="fill-rule:evenodd;clip-rule:evenodd;fill:#EC008C;" r="0.499" cx="42.994" cy="-26.977"/>
  <circle style="fill-rule:evenodd;clip-rule:evenodd;fill:#EC008C;" r="0.499" cx="46.994" cy="-26.977"/>
  <circle style="fill:#EC008C;" r="0.499" cx="50.994" cy="-26.977"/>
  <circle style="fill-rule:evenodd;clip-rule:evenodd;fill:#EC008C;" r="0.499" cx="54.994" cy="-26.977"/>
  <circle style="fill-rule:evenodd;clip-rule:evenodd;fill:#EC008C;" r="0.499" cx="2.994" cy="-22.977"/>
  <circle style="fill-rule:evenodd;clip-rule:evenodd;fill:#EC008C;" r="0.499" cx="6.994" cy="-22.977"/>
  <circle style="fill-rule:evenodd;clip-rule:evenodd;fill:#EC008C;" r="0.499" cx="10.994" cy="-22.977"/>
  <circle style="fill:#EC008C;" r="0.499" cx="14.994" cy="-22.977"/>
  <circle style="fill-rule:evenodd;clip-rule:evenodd;fill:#EC008C;" r="0.499" cx="18.994" cy="-22.977"/>
  <circle style="fill-rule:evenodd;clip-rule:evenodd;fill:#EC008C;" r="0.499" cx="22.994" cy="-22.977"/>
  <circle style="fill-rule:evenodd;clip-rule:evenodd;fill:#EC008C;" r="0.499" cx="26.994" cy="-22.977"/>
  <circle style="fill-rule:evenodd;clip-rule:evenodd;fill:#EC008C;" r="0.499" cx="30.994" cy="-22.977"/>
  <circle style="fill-rule:evenodd;clip-rule:evenodd;fill:#EC008C;" r="0.499" cx="34.994" cy="-22.977"/>
  <circle style="fill-rule:evenodd;clip-rule:evenodd;fill:#EC008C;" r="0.499" cx="38.994" cy="-22.977"/>
  <circle style="fill-rule:evenodd;clip-rule:evenodd;fill:#EC008C;" r="0.499" cx="42.994" cy="-22.977"/>
  <circle style="fill-rule:evenodd;clip-rule:evenodd;fill:#EC008C;" r="0.499" cx="46.994" cy="-22.977"/>
  <circle style="fill-rule:evenodd;clip-rule:evenodd;fill:#EC008C;" r="0.499" cx="50.994" cy="-22.977"/>
  <circle style="fill-rule:evenodd;clip-rule:evenodd;fill:#EC008C;" r="0.499" cx="54.994" cy="-22.977"/>
  <circle style="fill-rule:evenodd;clip-rule:evenodd;fill:#EC008C;" r="0.499" cx="2.994" cy="-18.977"/>
  <circle style="fill-rule:evenodd;clip-rule:evenodd;fill:#EC008C;" r="0.499" cx="6.994" cy="-18.977"/>
  <circle style="fill-rule:evenodd;clip-rule:evenodd;fill:#EC008C;" r="0.499" cx="10.994" cy="-18.977"/>
  <circle style="fill-rule:evenodd;clip-rule:evenodd;fill:#EC008C;" r="0.499" cx="14.994" cy="-18.977"/>
  <circle style="fill-rule:evenodd;clip-rule:evenodd;fill:#EC008C;" r="0.499" cx="18.994" cy="-18.977"/>
  <circle style="fill-rule:evenodd;clip-rule:evenodd;fill:#EC008C;" r="0.499" cx="22.994" cy="-18.977"/>
  <circle style="fill-rule:evenodd;clip-rule:evenodd;fill:#EC008C;" r="0.499" cx="26.994" cy="-18.977"/>
  <circle style="fill-rule:evenodd;clip-rule:evenodd;fill:#EC008C;" r="0.499" cx="30.994" cy="-18.977"/>
  <circle style="fill-rule:evenodd;clip-rule:evenodd;fill:#EC008C;" r="0.499" cx="34.994" cy="-18.977"/>
  <circle style="fill-rule:evenodd;clip-rule:evenodd;fill:#EC008C;" r="0.499" cx="38.994" cy="-18.977"/>
  <circle style="fill-rule:evenodd;clip-rule:evenodd;fill:#EC008C;" r="0.499" cx="42.994" cy="-18.977"/>
  <circle style="fill-rule:evenodd;clip-rule:evenodd;fill:#EC008C;" r="0.499" cx="46.994" cy="-18.977"/>
  <circle style="fill-rule:evenodd;clip-rule:evenodd;fill:#EC008C;" r="0.499" cx="50.994" cy="-18.977"/>
  <circle style="fill-rule:evenodd;clip-rule:evenodd;fill:#EC008C;" r="0.499" cx="54.994" cy="-18.977"/>
  <circle style="fill:#EC008C;" r="0.499" cx="2.994" cy="-14.977"/>
  <circle style="fill-rule:evenodd;clip-rule:evenodd;fill:#EC008C;" r="0.499" cx="6.994" cy="-14.977"/>
  <circle style="fill-rule:evenodd;clip-rule:evenodd;fill:#EC008C;" r="0.499" cx="10.994" cy="-14.977"/>
  <circle style="fill-rule:evenodd;clip-rule:evenodd;fill:#EC008C;" r="0.499" cx="14.994" cy="-14.977"/>
  <circle style="fill-rule:evenodd;clip-rule:evenodd;fill:#EC008C;" r="0.499" cx="18.994" cy="-14.977"/>
  <circle style="fill-rule:evenodd;clip-rule:evenodd;fill:#EC008C;" r="0.499" cx="22.994" cy="-14.977"/>
  <circle style="fill-rule:evenodd;clip-rule:evenodd;fill:#EC008C;" r="0.499" cx="26.994" cy="-14.977"/>
  <circle style="fill:#EC008C;" r="0.499" cx="30.994" cy="-14.977"/>
  <circle style="fill-rule:evenodd;clip-rule:evenodd;fill:#EC008C;" r="0.499" cx="34.994" cy="-14.977"/>
  <circle style="fill-rule:evenodd;clip-rule:evenodd;fill:#EC008C;" r="0.499" cx="38.994" cy="-14.977"/>
  <circle style="fill-rule:evenodd;clip-rule:evenodd;fill:#EC008C;" r="0.499" cx="42.994" cy="-14.977"/>
  <circle style="fill-rule:evenodd;clip-rule:evenodd;fill:#EC008C;" r="0.499" cx="46.994" cy="-14.977"/>
  <circle style="fill-rule:evenodd;clip-rule:evenodd;fill:#EC008C;" r="0.499" cx="50.994" cy="-14.977"/>
  <circle style="fill-rule:evenodd;clip-rule:evenodd;fill:#EC008C;" r="0.499" cx="54.994" cy="-14.977"/>
  <circle style="fill-rule:evenodd;clip-rule:evenodd;fill:#EC008C;" r="0.499" cx="2.994" cy="-10.977"/>
  <circle style="fill-rule:evenodd;clip-rule:evenodd;fill:#EC008C;" r="0.499" cx="6.994" cy="-10.977"/>
  <circle style="fill-rule:evenodd;clip-rule:evenodd;fill:#EC008C;" r="0.499" cx="10.994" cy="-10.977"/>
  <circle style="fill-rule:evenodd;clip-rule:evenodd;fill:#EC008C;" r="0.499" cx="14.994" cy="-10.977"/>
  <circle style="fill:#EC008C;" r="0.499" cx="18.994" cy="-10.977"/>
  <circle style="fill-rule:evenodd;clip-rule:evenodd;fill:#EC008C;" r="0.499" cx="22.994" cy="-10.977"/>
  <circle style="fill-rule:evenodd;clip-rule:evenodd;fill:#EC008C;" r="0.499" cx="26.994" cy="-10.977"/>
  <circle style="fill-rule:evenodd;clip-rule:evenodd;fill:#EC008C;" r="0.499" cx="30.994" cy="-10.977"/>
  <circle style="fill-rule:evenodd;clip-rule:evenodd;fill:#EC008C;" r="0.499" cx="34.994" cy="-10.977"/>
  <circle style="fill-rule:evenodd;clip-rule:evenodd;fill:#EC008C;" r="0.499" cx="38.994" cy="-10.977"/>
  <circle style="fill-rule:evenodd;clip-rule:evenodd;fill:#EC008C;" r="0.499" cx="42.994" cy="-10.977"/>
  <circle style="fill-rule:evenodd;clip-rule:evenodd;fill:#EC008C;" r="0.499" cx="46.994" cy="-10.977"/>
  <circle style="fill-rule:evenodd;clip-rule:evenodd;fill:#EC008C;" r="0.499" cx="50.994" cy="-10.977"/>
  <circle style="fill-rule:evenodd;clip-rule:evenodd;fill:#EC008C;" r="0.499" cx="54.994" cy="-10.977"/>
  <circle style="fill-rule:evenodd;clip-rule:evenodd;fill:#EC008C;" r="0.499" cx="2.994" cy="-6.977"/>
  <circle style="fill-rule:evenodd;clip-rule:evenodd;fill:#EC008C;" r="0.499" cx="6.994" cy="-6.977"/>
  <circle style="fill-rule:evenodd;clip-rule:evenodd;fill:#EC008C;" r="0.499" cx="10.994" cy="-6.977"/>
  <circle style="fill-rule:evenodd;clip-rule:evenodd;fill:#EC008C;" r="0.499" cx="14.994" cy="-6.977"/>
  <circle style="fill-rule:evenodd;clip-rule:evenodd;fill:#EC008C;" r="0.499" cx="18.994" cy="-6.977"/>
  <circle style="fill-rule:evenodd;clip-rule:evenodd;fill:#EC008C;" r="0.499" cx="22.994" cy="-6.977"/>
  <circle style="fill-rule:evenodd;clip-rule:evenodd;fill:#EC008C;" r="0.499" cx="26.994" cy="-6.977"/>
  <circle style="fill-rule:evenodd;clip-rule:evenodd;fill:#EC008C;" r="0.499" cx="30.994" cy="-6.977"/>
  <circle style="fill-rule:evenodd;clip-rule:evenodd;fill:#EC008C;" r="0.499" cx="34.994" cy="-6.977"/>
  <circle style="fill-rule:evenodd;clip-rule:evenodd;fill:#EC008C;" r="0.499" cx="38.994" cy="-6.977"/>
  <circle style="fill-rule:evenodd;clip-rule:evenodd;fill:#EC008C;" r="0.499" cx="42.994" cy="-6.977"/>
  <circle style="fill-rule:evenodd;clip-rule:evenodd;fill:#EC008C;" r="0.499" cx="46.994" cy="-6.977"/>
  <circle style="fill-rule:evenodd;clip-rule:evenodd;fill:#EC008C;" r="0.499" cx="50.994" cy="-6.977"/>
  <circle style="fill-rule:evenodd;clip-rule:evenodd;fill:#EC008C;" r="0.499" cx="54.994" cy="-6.977"/>
  <circle style="fill-rule:evenodd;clip-rule:evenodd;fill:#EC008C;" r="0.499" cx="2.994" cy="-2.977"/>
  <circle style="fill-rule:evenodd;clip-rule:evenodd;fill:#EC008C;" r="0.499" cx="6.994" cy="-2.977"/>
  <circle style="fill-rule:evenodd;clip-rule:evenodd;fill:#EC008C;" r="0.499" cx="10.994" cy="-2.977"/>
  <circle style="fill-rule:evenodd;clip-rule:evenodd;fill:#EC008C;" r="0.499" cx="14.994" cy="-2.977"/>
  <circle style="fill-rule:evenodd;clip-rule:evenodd;fill:#EC008C;" r="0.499" cx="18.994" cy="-2.977"/>
  <circle style="fill-rule:evenodd;clip-rule:evenodd;fill:#EC008C;" r="0.499" cx="22.994" cy="-2.977"/>
  <circle style="fill-rule:evenodd;clip-rule:evenodd;fill:#EC008C;" r="0.499" cx="26.994" cy="-2.977"/>
  <circle style="fill-rule:evenodd;clip-rule:evenodd;fill:#EC008C;" r="0.499" cx="30.994" cy="-2.977"/>
  <circle style="fill-rule:evenodd;clip-rule:evenodd;fill:#EC008C;" r="0.499" cx="34.994" cy="-2.977"/>
  <circle style="fill-rule:evenodd;clip-rule:evenodd;fill:#EC008C;" r="0.499" cx="38.994" cy="-2.977"/>
  <circle style="fill-rule:evenodd;clip-rule:evenodd;fill:#EC008C;" r="0.499" cx="42.994" cy="-2.977"/>
  <circle style="fill-rule:evenodd;clip-rule:evenodd;fill:#EC008C;" r="0.499" cx="46.994" cy="-2.977"/>
  <circle style="fill-rule:evenodd;clip-rule:evenodd;fill:#EC008C;" r="0.499" cx="50.994" cy="-2.977"/>
  <circle style="fill-rule:evenodd;clip-rule:evenodd;fill:#EC008C;" r="0.499" cx="54.994" cy="-2.977"/>
 </g>
</svg>
