<?xml version="1.0"?>
<!-- Converted with SVG Converter - Version 0.9.6 (Compiled Thu Aug 31 10:01:05 2017) - Copyright (C) 2011 Nokia -->
<svg xmlns="http://www.w3.org/2000/svg" version="1.1" x="0px" xmlns:xlink="http://www.w3.org/1999/xlink" baseProfile="tiny" height="56.016" width="56" y="0px" xml:space="preserve" viewBox="1 -57.016 56 56.016">
 <g>
  <rect x="1" height="56.016" width="56" y="-57.016" style="fill:none;"/>
  <circle r="0.449" cx="2.994" cy="-54.977" style="fill-rule:evenodd;clip-rule:evenodd;"/>
  <circle r="0.449" cx="6.994" cy="-54.977" style="fill-rule:evenodd;clip-rule:evenodd;"/>
  <circle r="0.449" cx="10.994" cy="-54.977" style="fill-rule:evenodd;clip-rule:evenodd;"/>
  <circle r="0.449" cx="14.994" cy="-54.977" style="fill-rule:evenodd;clip-rule:evenodd;"/>
  <circle r="0.449" cx="18.994" cy="-54.977" style="fill-rule:evenodd;clip-rule:evenodd;"/>
  <circle r="0.449" cx="22.994" cy="-54.977" style="fill-rule:evenodd;clip-rule:evenodd;"/>
  <circle r="0.449" cx="26.994" cy="-54.977" style="fill-rule:evenodd;clip-rule:evenodd;"/>
  <circle r="0.449" cx="30.994" cy="-54.977" style="fill-rule:evenodd;clip-rule:evenodd;"/>
  <circle r="0.449" cx="34.994" cy="-54.977" style="fill-rule:evenodd;clip-rule:evenodd;"/>
  <circle r="0.449" cx="38.994" cy="-54.977" style="fill-rule:evenodd;clip-rule:evenodd;"/>
  <circle r="0.449" cx="42.994" cy="-54.977" style="fill-rule:evenodd;clip-rule:evenodd;"/>
  <circle r="0.449" cx="46.994" cy="-54.977" style="fill-rule:evenodd;clip-rule:evenodd;"/>
  <circle r="0.449" cx="50.994" cy="-54.977" style="fill-rule:evenodd;clip-rule:evenodd;"/>
  <circle r="0.449" cx="54.994" cy="-54.977" style="fill-rule:evenodd;clip-rule:evenodd;"/>
  <circle r="0.449" cx="2.994" cy="-50.998" style="fill-rule:evenodd;clip-rule:evenodd;"/>
  <circle r="0.449" cx="6.994" cy="-50.998" style="fill-rule:evenodd;clip-rule:evenodd;"/>
  <circle r="0.449" cx="10.994" cy="-50.998" style="fill-rule:evenodd;clip-rule:evenodd;"/>
  <circle r="0.449" cx="14.994" cy="-50.998" style="fill-rule:evenodd;clip-rule:evenodd;"/>
  <circle r="0.449" cx="18.994" cy="-50.998" style="fill-rule:evenodd;clip-rule:evenodd;"/>
  <circle r="0.449" cx="22.994" cy="-50.998" style="fill-rule:evenodd;clip-rule:evenodd;"/>
  <circle r="0.449" cx="26.994" cy="-50.998" style="fill-rule:evenodd;clip-rule:evenodd;"/>
  <circle r="0.449" cx="30.994" cy="-50.998" style="fill-rule:evenodd;clip-rule:evenodd;"/>
  <circle r="0.449" cx="34.994" cy="-50.998" style="fill-rule:evenodd;clip-rule:evenodd;"/>
  <circle r="0.449" cx="38.994" cy="-50.998" style="fill-rule:evenodd;clip-rule:evenodd;"/>
  <circle r="0.449" cx="42.994" cy="-50.998" style="fill-rule:evenodd;clip-rule:evenodd;"/>
  <circle r="0.449" cx="46.994" cy="-50.998" style="fill-rule:evenodd;clip-rule:evenodd;"/>
  <circle r="0.449" cx="50.994" cy="-50.998" style="fill-rule:evenodd;clip-rule:evenodd;"/>
  <circle r="0.449" cx="54.994" cy="-50.998" style="fill-rule:evenodd;clip-rule:evenodd;"/>
  <circle r="0.449" cx="2.994" cy="-46.998" style="fill-rule:evenodd;clip-rule:evenodd;"/>
  <circle r="0.449" cx="6.994" cy="-46.998" style="fill-rule:evenodd;clip-rule:evenodd;"/>
  <circle r="0.449" cx="10.994" cy="-46.998" style="fill-rule:evenodd;clip-rule:evenodd;"/>
  <circle r="0.449" cx="14.994" cy="-46.998" style="fill-rule:evenodd;clip-rule:evenodd;"/>
  <circle r="0.449" cx="18.994" cy="-46.998" style="fill-rule:evenodd;clip-rule:evenodd;"/>
  <circle r="0.449" cx="22.994" cy="-46.998" style="fill-rule:evenodd;clip-rule:evenodd;"/>
  <circle r="0.449" cx="26.994" cy="-46.998" style="fill-rule:evenodd;clip-rule:evenodd;"/>
  <circle r="0.449" cx="30.994" cy="-46.998" style="fill-rule:evenodd;clip-rule:evenodd;"/>
  <circle r="0.449" cx="34.994" cy="-46.998" style="fill-rule:evenodd;clip-rule:evenodd;"/>
  <circle r="0.449" cx="38.994" cy="-46.998" style="fill-rule:evenodd;clip-rule:evenodd;"/>
  <circle r="0.449" cx="42.994" cy="-46.998" style="fill-rule:evenodd;clip-rule:evenodd;"/>
  <circle r="0.449" cx="46.994" cy="-46.998" style="fill-rule:evenodd;clip-rule:evenodd;"/>
  <circle r="0.449" cx="50.994" cy="-46.998" style="fill-rule:evenodd;clip-rule:evenodd;"/>
  <circle r="0.449" cx="54.994" cy="-46.998" style="fill-rule:evenodd;clip-rule:evenodd;"/>
  <circle r="0.449" cx="2.994" cy="-42.998" style="fill-rule:evenodd;clip-rule:evenodd;"/>
  <circle r="0.449" cx="6.994" cy="-42.998" style="fill-rule:evenodd;clip-rule:evenodd;"/>
  <circle r="0.449" cx="10.994" cy="-42.998" style="fill-rule:evenodd;clip-rule:evenodd;"/>
  <circle r="0.449" cx="14.994" cy="-42.998" style="fill-rule:evenodd;clip-rule:evenodd;"/>
  <circle r="0.449" cx="18.994" cy="-42.998" style="fill-rule:evenodd;clip-rule:evenodd;"/>
  <circle r="0.449" cx="22.994" cy="-42.998" style="fill-rule:evenodd;clip-rule:evenodd;"/>
  <circle r="0.449" cx="26.994" cy="-42.998" style="fill-rule:evenodd;clip-rule:evenodd;"/>
  <circle r="0.449" cx="30.994" cy="-42.998" style="fill-rule:evenodd;clip-rule:evenodd;"/>
  <circle r="0.449" cx="34.994" cy="-42.998" style="fill-rule:evenodd;clip-rule:evenodd;"/>
  <circle r="0.449" cx="38.994" cy="-42.998" style="fill-rule:evenodd;clip-rule:evenodd;"/>
  <circle r="0.449" cx="42.994" cy="-42.998" style="fill-rule:evenodd;clip-rule:evenodd;"/>
  <circle r="0.449" cx="46.994" cy="-42.998" style="fill-rule:evenodd;clip-rule:evenodd;"/>
  <circle r="0.449" cx="50.994" cy="-42.998" style="fill-rule:evenodd;clip-rule:evenodd;"/>
  <circle r="0.449" cx="54.994" cy="-42.998" style="fill-rule:evenodd;clip-rule:evenodd;"/>
  <circle r="0.449" cx="2.994" cy="-39.061" style="fill-rule:evenodd;clip-rule:evenodd;"/>
  <circle r="0.449" cx="6.994" cy="-39.061" style="fill-rule:evenodd;clip-rule:evenodd;"/>
  <circle r="0.449" cx="10.994" cy="-39.061" style="fill-rule:evenodd;clip-rule:evenodd;"/>
  <circle r="0.449" cx="14.994" cy="-39.061" style="fill-rule:evenodd;clip-rule:evenodd;"/>
  <circle r="0.449" cx="18.994" cy="-39.061" style="fill-rule:evenodd;clip-rule:evenodd;"/>
  <circle r="0.449" cx="22.994" cy="-39.061" style="fill-rule:evenodd;clip-rule:evenodd;"/>
  <circle r="0.449" cx="26.994" cy="-39.061" style="fill-rule:evenodd;clip-rule:evenodd;"/>
  <circle r="0.449" cx="30.994" cy="-39.061" style="fill-rule:evenodd;clip-rule:evenodd;"/>
  <circle r="0.449" cx="34.994" cy="-39.061" style="fill-rule:evenodd;clip-rule:evenodd;"/>
  <circle r="0.449" cx="38.994" cy="-39.061"/>
  <circle r="0.449" cx="42.994" cy="-39.061" style="fill-rule:evenodd;clip-rule:evenodd;"/>
  <circle r="0.449" cx="46.994" cy="-39.061" style="fill-rule:evenodd;clip-rule:evenodd;"/>
  <circle r="0.449" cx="50.994" cy="-39.061" style="fill-rule:evenodd;clip-rule:evenodd;"/>
  <circle r="0.449" cx="54.994" cy="-39.061" style="fill-rule:evenodd;clip-rule:evenodd;"/>
  <circle r="0.449" cx="2.994" cy="-34.977" style="fill-rule:evenodd;clip-rule:evenodd;"/>
  <circle r="0.449" cx="6.994" cy="-34.977" style="fill-rule:evenodd;clip-rule:evenodd;"/>
  <circle r="0.449" cx="10.994" cy="-34.977" style="fill-rule:evenodd;clip-rule:evenodd;"/>
  <circle r="0.449" cx="14.994" cy="-34.977" style="fill-rule:evenodd;clip-rule:evenodd;"/>
  <circle r="0.449" cx="18.994" cy="-34.977" style="fill-rule:evenodd;clip-rule:evenodd;"/>
  <circle r="0.449" cx="22.994" cy="-34.977" style="fill-rule:evenodd;clip-rule:evenodd;"/>
  <circle r="0.449" cx="26.994" cy="-34.977" style="fill-rule:evenodd;clip-rule:evenodd;"/>
  <circle r="0.449" cx="30.994" cy="-34.977" style="fill-rule:evenodd;clip-rule:evenodd;"/>
  <circle r="0.449" cx="34.994" cy="-34.977" style="fill-rule:evenodd;clip-rule:evenodd;"/>
  <circle r="0.449" cx="38.994" cy="-34.977" style="fill-rule:evenodd;clip-rule:evenodd;"/>
  <circle r="0.449" cx="42.994" cy="-34.977" style="fill-rule:evenodd;clip-rule:evenodd;"/>
  <circle r="0.449" cx="46.994" cy="-34.977" style="fill-rule:evenodd;clip-rule:evenodd;"/>
  <circle r="0.449" cx="50.994" cy="-34.977" style="fill-rule:evenodd;clip-rule:evenodd;"/>
  <circle r="0.449" cx="54.994" cy="-34.977" style="fill-rule:evenodd;clip-rule:evenodd;"/>
  <circle r="0.449" cx="2.994" cy="-30.977" style="fill-rule:evenodd;clip-rule:evenodd;"/>
  <circle r="0.449" cx="6.994" cy="-30.977" style="fill-rule:evenodd;clip-rule:evenodd;"/>
  <circle r="0.449" cx="10.994" cy="-30.977" style="fill-rule:evenodd;clip-rule:evenodd;"/>
  <circle r="0.449" cx="14.994" cy="-30.977" style="fill-rule:evenodd;clip-rule:evenodd;"/>
  <circle r="0.449" cx="18.994" cy="-30.977" style="fill-rule:evenodd;clip-rule:evenodd;"/>
  <circle r="0.449" cx="22.994" cy="-30.977" style="fill-rule:evenodd;clip-rule:evenodd;"/>
  <circle r="0.449" cx="26.994" cy="-30.977" style="fill-rule:evenodd;clip-rule:evenodd;"/>
  <circle r="0.449" cx="30.994" cy="-30.977" style="fill-rule:evenodd;clip-rule:evenodd;"/>
  <circle r="0.449" cx="34.994" cy="-30.977" style="fill-rule:evenodd;clip-rule:evenodd;"/>
  <circle r="0.449" cx="38.994" cy="-30.977" style="fill-rule:evenodd;clip-rule:evenodd;"/>
  <circle r="0.449" cx="42.994" cy="-30.977" style="fill-rule:evenodd;clip-rule:evenodd;"/>
  <circle r="0.449" cx="46.994" cy="-30.977" style="fill-rule:evenodd;clip-rule:evenodd;"/>
  <circle r="0.449" cx="50.994" cy="-30.977" style="fill-rule:evenodd;clip-rule:evenodd;"/>
  <circle r="0.449" cx="54.994" cy="-30.977" style="fill-rule:evenodd;clip-rule:evenodd;"/>
  <circle r="0.449" cx="2.994" cy="-26.977" style="fill-rule:evenodd;clip-rule:evenodd;"/>
  <circle r="0.449" cx="6.994" cy="-26.977" style="fill-rule:evenodd;clip-rule:evenodd;"/>
  <circle r="0.449" cx="10.994" cy="-26.977" style="fill-rule:evenodd;clip-rule:evenodd;"/>
  <circle r="0.449" cx="14.994" cy="-26.977" style="fill-rule:evenodd;clip-rule:evenodd;"/>
  <circle r="0.449" cx="18.994" cy="-26.977" style="fill-rule:evenodd;clip-rule:evenodd;"/>
  <circle r="0.449" cx="22.994" cy="-26.977" style="fill-rule:evenodd;clip-rule:evenodd;"/>
  <circle r="0.449" cx="26.994" cy="-26.977" style="fill-rule:evenodd;clip-rule:evenodd;"/>
  <circle r="0.449" cx="30.994" cy="-26.977" style="fill-rule:evenodd;clip-rule:evenodd;"/>
  <circle r="0.449" cx="34.994" cy="-26.977" style="fill-rule:evenodd;clip-rule:evenodd;"/>
  <circle r="0.449" cx="38.994" cy="-26.977" style="fill-rule:evenodd;clip-rule:evenodd;"/>
  <circle r="0.449" cx="42.994" cy="-26.977" style="fill-rule:evenodd;clip-rule:evenodd;"/>
  <circle r="0.449" cx="46.994" cy="-26.977" style="fill-rule:evenodd;clip-rule:evenodd;"/>
  <circle r="0.449" cx="50.994" cy="-26.977"/>
  <circle r="0.449" cx="54.994" cy="-26.977" style="fill-rule:evenodd;clip-rule:evenodd;"/>
  <circle r="0.449" cx="2.994" cy="-22.977" style="fill-rule:evenodd;clip-rule:evenodd;"/>
  <circle r="0.449" cx="6.994" cy="-22.977" style="fill-rule:evenodd;clip-rule:evenodd;"/>
  <circle r="0.449" cx="10.994" cy="-22.977" style="fill-rule:evenodd;clip-rule:evenodd;"/>
  <circle r="0.449" cx="14.994" cy="-22.977"/>
  <circle r="0.449" cx="18.994" cy="-22.977" style="fill-rule:evenodd;clip-rule:evenodd;"/>
  <circle r="0.449" cx="22.994" cy="-22.977" style="fill-rule:evenodd;clip-rule:evenodd;"/>
  <circle r="0.449" cx="26.994" cy="-22.977" style="fill-rule:evenodd;clip-rule:evenodd;"/>
  <circle r="0.449" cx="30.994" cy="-22.977" style="fill-rule:evenodd;clip-rule:evenodd;"/>
  <circle r="0.449" cx="34.994" cy="-22.977" style="fill-rule:evenodd;clip-rule:evenodd;"/>
  <circle r="0.449" cx="38.994" cy="-22.977" style="fill-rule:evenodd;clip-rule:evenodd;"/>
  <circle r="0.449" cx="42.994" cy="-22.977" style="fill-rule:evenodd;clip-rule:evenodd;"/>
  <circle r="0.449" cx="46.994" cy="-22.977" style="fill-rule:evenodd;clip-rule:evenodd;"/>
  <circle r="0.449" cx="50.994" cy="-22.977" style="fill-rule:evenodd;clip-rule:evenodd;"/>
  <circle r="0.449" cx="54.994" cy="-22.977" style="fill-rule:evenodd;clip-rule:evenodd;"/>
  <circle r="0.449" cx="2.994" cy="-18.977" style="fill-rule:evenodd;clip-rule:evenodd;"/>
  <circle r="0.449" cx="6.994" cy="-18.977" style="fill-rule:evenodd;clip-rule:evenodd;"/>
  <circle r="0.449" cx="10.994" cy="-18.977" style="fill-rule:evenodd;clip-rule:evenodd;"/>
  <circle r="0.449" cx="14.994" cy="-18.977" style="fill-rule:evenodd;clip-rule:evenodd;"/>
  <circle r="0.449" cx="18.994" cy="-18.977" style="fill-rule:evenodd;clip-rule:evenodd;"/>
  <circle r="0.449" cx="22.994" cy="-18.977" style="fill-rule:evenodd;clip-rule:evenodd;"/>
  <circle r="0.449" cx="26.994" cy="-18.977" style="fill-rule:evenodd;clip-rule:evenodd;"/>
  <circle r="0.449" cx="30.994" cy="-18.977" style="fill-rule:evenodd;clip-rule:evenodd;"/>
  <circle r="0.449" cx="34.994" cy="-18.977" style="fill-rule:evenodd;clip-rule:evenodd;"/>
  <circle r="0.449" cx="38.994" cy="-18.977" style="fill-rule:evenodd;clip-rule:evenodd;"/>
  <circle r="0.449" cx="42.994" cy="-18.977" style="fill-rule:evenodd;clip-rule:evenodd;"/>
  <circle r="0.449" cx="46.994" cy="-18.977" style="fill-rule:evenodd;clip-rule:evenodd;"/>
  <circle r="0.449" cx="50.994" cy="-18.977" style="fill-rule:evenodd;clip-rule:evenodd;"/>
  <circle r="0.449" cx="54.994" cy="-18.977" style="fill-rule:evenodd;clip-rule:evenodd;"/>
  <circle r="0.449" cx="2.994" cy="-14.977"/>
  <circle r="0.449" cx="6.994" cy="-14.977" style="fill-rule:evenodd;clip-rule:evenodd;"/>
  <circle r="0.449" cx="10.994" cy="-14.977" style="fill-rule:evenodd;clip-rule:evenodd;"/>
  <circle r="0.449" cx="14.994" cy="-14.977" style="fill-rule:evenodd;clip-rule:evenodd;"/>
  <circle r="0.449" cx="18.994" cy="-14.977" style="fill-rule:evenodd;clip-rule:evenodd;"/>
  <circle r="0.449" cx="22.994" cy="-14.977" style="fill-rule:evenodd;clip-rule:evenodd;"/>
  <circle r="0.449" cx="26.994" cy="-14.977" style="fill-rule:evenodd;clip-rule:evenodd;"/>
  <circle r="0.449" cx="30.994" cy="-14.977"/>
  <circle r="0.449" cx="34.994" cy="-14.977" style="fill-rule:evenodd;clip-rule:evenodd;"/>
  <circle r="0.449" cx="38.994" cy="-14.977" style="fill-rule:evenodd;clip-rule:evenodd;"/>
  <circle r="0.449" cx="42.994" cy="-14.977" style="fill-rule:evenodd;clip-rule:evenodd;"/>
  <circle r="0.449" cx="46.994" cy="-14.977" style="fill-rule:evenodd;clip-rule:evenodd;"/>
  <circle r="0.449" cx="50.994" cy="-14.977" style="fill-rule:evenodd;clip-rule:evenodd;"/>
  <circle r="0.449" cx="54.994" cy="-14.977" style="fill-rule:evenodd;clip-rule:evenodd;"/>
  <circle r="0.449" cx="2.994" cy="-10.977" style="fill-rule:evenodd;clip-rule:evenodd;"/>
  <circle r="0.449" cx="6.994" cy="-10.977" style="fill-rule:evenodd;clip-rule:evenodd;"/>
  <circle r="0.449" cx="10.994" cy="-10.977" style="fill-rule:evenodd;clip-rule:evenodd;"/>
  <circle r="0.449" cx="14.994" cy="-10.977" style="fill-rule:evenodd;clip-rule:evenodd;"/>
  <circle r="0.449" cx="18.994" cy="-10.977"/>
  <circle r="0.449" cx="22.994" cy="-10.977" style="fill-rule:evenodd;clip-rule:evenodd;"/>
  <circle r="0.449" cx="26.994" cy="-10.977" style="fill-rule:evenodd;clip-rule:evenodd;"/>
  <circle r="0.449" cx="30.994" cy="-10.977" style="fill-rule:evenodd;clip-rule:evenodd;"/>
  <circle r="0.449" cx="34.994" cy="-10.977" style="fill-rule:evenodd;clip-rule:evenodd;"/>
  <circle r="0.449" cx="38.994" cy="-10.977" style="fill-rule:evenodd;clip-rule:evenodd;"/>
  <circle r="0.449" cx="42.994" cy="-10.977" style="fill-rule:evenodd;clip-rule:evenodd;"/>
  <circle r="0.449" cx="46.994" cy="-10.977" style="fill-rule:evenodd;clip-rule:evenodd;"/>
  <circle r="0.449" cx="50.994" cy="-10.977" style="fill-rule:evenodd;clip-rule:evenodd;"/>
  <circle r="0.449" cx="54.994" cy="-10.977" style="fill-rule:evenodd;clip-rule:evenodd;"/>
  <circle r="0.449" cx="2.994" cy="-6.977" style="fill-rule:evenodd;clip-rule:evenodd;"/>
  <circle r="0.449" cx="6.994" cy="-6.977" style="fill-rule:evenodd;clip-rule:evenodd;"/>
  <circle r="0.449" cx="10.994" cy="-6.977" style="fill-rule:evenodd;clip-rule:evenodd;"/>
  <circle r="0.449" cx="14.994" cy="-6.977" style="fill-rule:evenodd;clip-rule:evenodd;"/>
  <circle r="0.449" cx="18.994" cy="-6.977" style="fill-rule:evenodd;clip-rule:evenodd;"/>
  <circle r="0.449" cx="22.994" cy="-6.977" style="fill-rule:evenodd;clip-rule:evenodd;"/>
  <circle r="0.449" cx="26.994" cy="-6.977" style="fill-rule:evenodd;clip-rule:evenodd;"/>
  <circle r="0.449" cx="30.994" cy="-6.977" style="fill-rule:evenodd;clip-rule:evenodd;"/>
  <circle r="0.449" cx="34.994" cy="-6.977" style="fill-rule:evenodd;clip-rule:evenodd;"/>
  <circle r="0.449" cx="38.994" cy="-6.977" style="fill-rule:evenodd;clip-rule:evenodd;"/>
  <circle r="0.449" cx="42.994" cy="-6.977" style="fill-rule:evenodd;clip-rule:evenodd;"/>
  <circle r="0.449" cx="46.994" cy="-6.977" style="fill-rule:evenodd;clip-rule:evenodd;"/>
  <circle r="0.449" cx="50.994" cy="-6.977" style="fill-rule:evenodd;clip-rule:evenodd;"/>
  <circle r="0.449" cx="54.994" cy="-6.977" style="fill-rule:evenodd;clip-rule:evenodd;"/>
  <circle r="0.449" cx="2.994" cy="-2.977" style="fill-rule:evenodd;clip-rule:evenodd;"/>
  <circle r="0.449" cx="6.994" cy="-2.977" style="fill-rule:evenodd;clip-rule:evenodd;"/>
  <circle r="0.449" cx="10.994" cy="-2.977" style="fill-rule:evenodd;clip-rule:evenodd;"/>
  <circle r="0.449" cx="14.994" cy="-2.977" style="fill-rule:evenodd;clip-rule:evenodd;"/>
  <circle r="0.449" cx="18.994" cy="-2.977" style="fill-rule:evenodd;clip-rule:evenodd;"/>
  <circle r="0.449" cx="22.994" cy="-2.977" style="fill-rule:evenodd;clip-rule:evenodd;"/>
  <circle r="0.449" cx="26.994" cy="-2.977" style="fill-rule:evenodd;clip-rule:evenodd;"/>
  <circle r="0.449" cx="30.994" cy="-2.977" style="fill-rule:evenodd;clip-rule:evenodd;"/>
  <circle r="0.449" cx="34.994" cy="-2.977" style="fill-rule:evenodd;clip-rule:evenodd;"/>
  <circle r="0.449" cx="38.994" cy="-2.977" style="fill-rule:evenodd;clip-rule:evenodd;"/>
  <circle r="0.449" cx="42.994" cy="-2.977" style="fill-rule:evenodd;clip-rule:evenodd;"/>
  <circle r="0.449" cx="46.994" cy="-2.977" style="fill-rule:evenodd;clip-rule:evenodd;"/>
  <circle r="0.449" cx="50.994" cy="-2.977" style="fill-rule:evenodd;clip-rule:evenodd;"/>
  <circle r="0.449" cx="54.994" cy="-2.977" style="fill-rule:evenodd;clip-rule:evenodd;"/>
 </g>
</svg>
