<?xml version="1.0"?>
<!-- Converted with SVG Converter - Version 0.9.5 (Compiled Fri Feb 21 09:53:38 2020) - Copyright (C) 2011 Nokia -->
<svg xmlns="http://www.w3.org/2000/svg" xmlns:xlink="http://www.w3.org/1999/xlink" version="1.1" width="56" x="0px" height="56.016" baseProfile="tiny" y="0px" viewBox="1 -57.016 56 56.016" xml:space="preserve">
 <g>
  <rect width="56" x="1" height="56.016" style="fill:none;" y="-57.016"/>
  <circle r="0.499" cx="2.994" style="fill-rule:evenodd;clip-rule:evenodd;fill:#00AEEF;" cy="-54.977"/>
  <circle r="0.499" cx="6.994" style="fill-rule:evenodd;clip-rule:evenodd;fill:#00AEEF;" cy="-54.977"/>
  <circle r="0.499" cx="10.994" style="fill-rule:evenodd;clip-rule:evenodd;fill:#00AEEF;" cy="-54.977"/>
  <circle r="0.499" cx="14.994" style="fill-rule:evenodd;clip-rule:evenodd;fill:#00AEEF;" cy="-54.977"/>
  <circle r="0.499" cx="18.994" style="fill-rule:evenodd;clip-rule:evenodd;fill:#00AEEF;" cy="-54.977"/>
  <circle r="0.499" cx="22.994" style="fill-rule:evenodd;clip-rule:evenodd;fill:#00AEEF;" cy="-54.977"/>
  <circle r="0.499" cx="26.994" style="fill-rule:evenodd;clip-rule:evenodd;fill:#00AEEF;" cy="-54.977"/>
  <circle r="0.499" cx="30.994" style="fill-rule:evenodd;clip-rule:evenodd;fill:#00AEEF;" cy="-54.977"/>
  <circle r="0.499" cx="34.994" style="fill-rule:evenodd;clip-rule:evenodd;fill:#00AEEF;" cy="-54.977"/>
  <circle r="0.499" cx="38.994" style="fill-rule:evenodd;clip-rule:evenodd;fill:#00AEEF;" cy="-54.977"/>
  <circle r="0.499" cx="42.994" style="fill-rule:evenodd;clip-rule:evenodd;fill:#00AEEF;" cy="-54.977"/>
  <circle r="0.499" cx="46.994" style="fill-rule:evenodd;clip-rule:evenodd;fill:#00AEEF;" cy="-54.977"/>
  <circle r="0.499" cx="50.994" style="fill-rule:evenodd;clip-rule:evenodd;fill:#00AEEF;" cy="-54.977"/>
  <circle r="0.499" cx="54.994" style="fill-rule:evenodd;clip-rule:evenodd;fill:#00AEEF;" cy="-54.977"/>
  <circle r="0.499" cx="2.994" style="fill-rule:evenodd;clip-rule:evenodd;fill:#00AEEF;" cy="-50.998"/>
  <circle r="0.499" cx="6.994" style="fill-rule:evenodd;clip-rule:evenodd;fill:#00AEEF;" cy="-50.998"/>
  <circle r="0.499" cx="10.994" style="fill-rule:evenodd;clip-rule:evenodd;fill:#00AEEF;" cy="-50.998"/>
  <circle r="0.499" cx="14.994" style="fill-rule:evenodd;clip-rule:evenodd;fill:#00AEEF;" cy="-50.998"/>
  <circle r="0.499" cx="18.994" style="fill-rule:evenodd;clip-rule:evenodd;fill:#00AEEF;" cy="-50.998"/>
  <circle r="0.499" cx="22.994" style="fill-rule:evenodd;clip-rule:evenodd;fill:#00AEEF;" cy="-50.998"/>
  <circle r="0.499" cx="26.994" style="fill-rule:evenodd;clip-rule:evenodd;fill:#00AEEF;" cy="-50.998"/>
  <circle r="0.499" cx="30.994" style="fill-rule:evenodd;clip-rule:evenodd;fill:#00AEEF;" cy="-50.998"/>
  <circle r="0.499" cx="34.994" style="fill-rule:evenodd;clip-rule:evenodd;fill:#00AEEF;" cy="-50.998"/>
  <circle r="0.499" cx="38.994" style="fill-rule:evenodd;clip-rule:evenodd;fill:#00AEEF;" cy="-50.998"/>
  <circle r="0.499" cx="42.994" style="fill-rule:evenodd;clip-rule:evenodd;fill:#00AEEF;" cy="-50.998"/>
  <circle r="0.499" cx="46.994" style="fill-rule:evenodd;clip-rule:evenodd;fill:#00AEEF;" cy="-50.998"/>
  <circle r="0.499" cx="50.994" style="fill-rule:evenodd;clip-rule:evenodd;fill:#00AEEF;" cy="-50.998"/>
  <circle r="0.499" cx="54.994" style="fill-rule:evenodd;clip-rule:evenodd;fill:#00AEEF;" cy="-50.998"/>
  <circle r="0.499" cx="2.994" style="fill-rule:evenodd;clip-rule:evenodd;fill:#00AEEF;" cy="-46.998"/>
  <circle r="0.499" cx="6.994" style="fill-rule:evenodd;clip-rule:evenodd;fill:#00AEEF;" cy="-46.998"/>
  <circle r="0.499" cx="10.994" style="fill-rule:evenodd;clip-rule:evenodd;fill:#00AEEF;" cy="-46.998"/>
  <circle r="0.499" cx="14.994" style="fill-rule:evenodd;clip-rule:evenodd;fill:#00AEEF;" cy="-46.998"/>
  <circle r="0.499" cx="18.994" style="fill-rule:evenodd;clip-rule:evenodd;fill:#00AEEF;" cy="-46.998"/>
  <circle r="0.499" cx="22.994" style="fill-rule:evenodd;clip-rule:evenodd;fill:#00AEEF;" cy="-46.998"/>
  <circle r="0.499" cx="26.994" style="fill-rule:evenodd;clip-rule:evenodd;fill:#00AEEF;" cy="-46.998"/>
  <circle r="0.499" cx="30.994" style="fill-rule:evenodd;clip-rule:evenodd;fill:#00AEEF;" cy="-46.998"/>
  <circle r="0.499" cx="34.994" style="fill-rule:evenodd;clip-rule:evenodd;fill:#00AEEF;" cy="-46.998"/>
  <circle r="0.499" cx="38.994" style="fill-rule:evenodd;clip-rule:evenodd;fill:#00AEEF;" cy="-46.998"/>
  <circle r="0.499" cx="42.994" style="fill-rule:evenodd;clip-rule:evenodd;fill:#00AEEF;" cy="-46.998"/>
  <circle r="0.499" cx="46.994" style="fill-rule:evenodd;clip-rule:evenodd;fill:#00AEEF;" cy="-46.998"/>
  <circle r="0.499" cx="50.994" style="fill-rule:evenodd;clip-rule:evenodd;fill:#00AEEF;" cy="-46.998"/>
  <circle r="0.499" cx="54.994" style="fill-rule:evenodd;clip-rule:evenodd;fill:#00AEEF;" cy="-46.998"/>
  <circle r="0.499" cx="2.994" style="fill-rule:evenodd;clip-rule:evenodd;fill:#00AEEF;" cy="-42.998"/>
  <circle r="0.499" cx="6.994" style="fill-rule:evenodd;clip-rule:evenodd;fill:#00AEEF;" cy="-42.998"/>
  <circle r="0.499" cx="10.994" style="fill-rule:evenodd;clip-rule:evenodd;fill:#00AEEF;" cy="-42.998"/>
  <circle r="0.499" cx="14.994" style="fill-rule:evenodd;clip-rule:evenodd;fill:#00AEEF;" cy="-42.998"/>
  <circle r="0.499" cx="18.994" style="fill-rule:evenodd;clip-rule:evenodd;fill:#00AEEF;" cy="-42.998"/>
  <circle r="0.499" cx="22.994" style="fill-rule:evenodd;clip-rule:evenodd;fill:#00AEEF;" cy="-42.998"/>
  <circle r="0.499" cx="26.994" style="fill-rule:evenodd;clip-rule:evenodd;fill:#00AEEF;" cy="-42.998"/>
  <circle r="0.499" cx="30.994" style="fill-rule:evenodd;clip-rule:evenodd;fill:#00AEEF;" cy="-42.998"/>
  <circle r="0.499" cx="34.994" style="fill-rule:evenodd;clip-rule:evenodd;fill:#00AEEF;" cy="-42.998"/>
  <circle r="0.499" cx="38.994" style="fill-rule:evenodd;clip-rule:evenodd;fill:#00AEEF;" cy="-42.998"/>
  <circle r="0.499" cx="42.994" style="fill-rule:evenodd;clip-rule:evenodd;fill:#00AEEF;" cy="-42.998"/>
  <circle r="0.499" cx="46.994" style="fill-rule:evenodd;clip-rule:evenodd;fill:#00AEEF;" cy="-42.998"/>
  <circle r="0.499" cx="50.994" style="fill-rule:evenodd;clip-rule:evenodd;fill:#00AEEF;" cy="-42.998"/>
  <circle r="0.499" cx="54.994" style="fill-rule:evenodd;clip-rule:evenodd;fill:#00AEEF;" cy="-42.998"/>
  <circle r="0.499" cx="2.994" style="fill-rule:evenodd;clip-rule:evenodd;fill:#00AEEF;" cy="-39.061"/>
  <circle r="0.499" cx="6.994" style="fill-rule:evenodd;clip-rule:evenodd;fill:#00AEEF;" cy="-39.061"/>
  <circle r="0.499" cx="10.994" style="fill-rule:evenodd;clip-rule:evenodd;fill:#00AEEF;" cy="-39.061"/>
  <circle r="0.499" cx="14.994" style="fill-rule:evenodd;clip-rule:evenodd;fill:#00AEEF;" cy="-39.061"/>
  <circle r="0.499" cx="18.994" style="fill-rule:evenodd;clip-rule:evenodd;fill:#00AEEF;" cy="-39.061"/>
  <circle r="0.499" cx="22.994" style="fill-rule:evenodd;clip-rule:evenodd;fill:#00AEEF;" cy="-39.061"/>
  <circle r="0.499" cx="26.994" style="fill-rule:evenodd;clip-rule:evenodd;fill:#00AEEF;" cy="-39.061"/>
  <circle r="0.499" cx="30.994" style="fill-rule:evenodd;clip-rule:evenodd;fill:#00AEEF;" cy="-39.061"/>
  <circle r="0.499" cx="34.994" style="fill-rule:evenodd;clip-rule:evenodd;fill:#00AEEF;" cy="-39.061"/>
  <circle r="0.499" cx="38.994" style="fill:#00AEEF;" cy="-39.061"/>
  <circle r="0.499" cx="42.994" style="fill-rule:evenodd;clip-rule:evenodd;fill:#00AEEF;" cy="-39.061"/>
  <circle r="0.499" cx="46.994" style="fill-rule:evenodd;clip-rule:evenodd;fill:#00AEEF;" cy="-39.061"/>
  <circle r="0.499" cx="50.994" style="fill-rule:evenodd;clip-rule:evenodd;fill:#00AEEF;" cy="-39.061"/>
  <circle r="0.499" cx="54.994" style="fill-rule:evenodd;clip-rule:evenodd;fill:#00AEEF;" cy="-39.061"/>
  <circle r="0.499" cx="2.994" style="fill-rule:evenodd;clip-rule:evenodd;fill:#00AEEF;" cy="-34.977"/>
  <circle r="0.499" cx="6.994" style="fill-rule:evenodd;clip-rule:evenodd;fill:#00AEEF;" cy="-34.977"/>
  <circle r="0.499" cx="10.994" style="fill-rule:evenodd;clip-rule:evenodd;fill:#00AEEF;" cy="-34.977"/>
  <circle r="0.499" cx="14.994" style="fill-rule:evenodd;clip-rule:evenodd;fill:#00AEEF;" cy="-34.977"/>
  <circle r="0.499" cx="18.994" style="fill-rule:evenodd;clip-rule:evenodd;fill:#00AEEF;" cy="-34.977"/>
  <circle r="0.499" cx="22.994" style="fill-rule:evenodd;clip-rule:evenodd;fill:#00AEEF;" cy="-34.977"/>
  <circle r="0.499" cx="26.994" style="fill-rule:evenodd;clip-rule:evenodd;fill:#00AEEF;" cy="-34.977"/>
  <circle r="0.499" cx="30.994" style="fill-rule:evenodd;clip-rule:evenodd;fill:#00AEEF;" cy="-34.977"/>
  <circle r="0.499" cx="34.994" style="fill-rule:evenodd;clip-rule:evenodd;fill:#00AEEF;" cy="-34.977"/>
  <circle r="0.499" cx="38.994" style="fill-rule:evenodd;clip-rule:evenodd;fill:#00AEEF;" cy="-34.977"/>
  <circle r="0.499" cx="42.994" style="fill-rule:evenodd;clip-rule:evenodd;fill:#00AEEF;" cy="-34.977"/>
  <circle r="0.499" cx="46.994" style="fill-rule:evenodd;clip-rule:evenodd;fill:#00AEEF;" cy="-34.977"/>
  <circle r="0.499" cx="50.994" style="fill-rule:evenodd;clip-rule:evenodd;fill:#00AEEF;" cy="-34.977"/>
  <circle r="0.499" cx="54.994" style="fill-rule:evenodd;clip-rule:evenodd;fill:#00AEEF;" cy="-34.977"/>
  <circle r="0.499" cx="2.994" style="fill-rule:evenodd;clip-rule:evenodd;fill:#00AEEF;" cy="-30.977"/>
  <circle r="0.499" cx="6.994" style="fill-rule:evenodd;clip-rule:evenodd;fill:#00AEEF;" cy="-30.977"/>
  <circle r="0.499" cx="10.994" style="fill-rule:evenodd;clip-rule:evenodd;fill:#00AEEF;" cy="-30.977"/>
  <circle r="0.499" cx="14.994" style="fill-rule:evenodd;clip-rule:evenodd;fill:#00AEEF;" cy="-30.977"/>
  <circle r="0.499" cx="18.994" style="fill-rule:evenodd;clip-rule:evenodd;fill:#00AEEF;" cy="-30.977"/>
  <circle r="0.499" cx="22.994" style="fill-rule:evenodd;clip-rule:evenodd;fill:#00AEEF;" cy="-30.977"/>
  <circle r="0.499" cx="26.994" style="fill-rule:evenodd;clip-rule:evenodd;fill:#00AEEF;" cy="-30.977"/>
  <circle r="0.499" cx="30.994" style="fill-rule:evenodd;clip-rule:evenodd;fill:#00AEEF;" cy="-30.977"/>
  <circle r="0.499" cx="34.994" style="fill-rule:evenodd;clip-rule:evenodd;fill:#00AEEF;" cy="-30.977"/>
  <circle r="0.499" cx="38.994" style="fill-rule:evenodd;clip-rule:evenodd;fill:#00AEEF;" cy="-30.977"/>
  <circle r="0.499" cx="42.994" style="fill-rule:evenodd;clip-rule:evenodd;fill:#00AEEF;" cy="-30.977"/>
  <circle r="0.499" cx="46.994" style="fill-rule:evenodd;clip-rule:evenodd;fill:#00AEEF;" cy="-30.977"/>
  <circle r="0.499" cx="50.994" style="fill-rule:evenodd;clip-rule:evenodd;fill:#00AEEF;" cy="-30.977"/>
  <circle r="0.499" cx="54.994" style="fill-rule:evenodd;clip-rule:evenodd;fill:#00AEEF;" cy="-30.977"/>
  <circle r="0.499" cx="2.994" style="fill-rule:evenodd;clip-rule:evenodd;fill:#00AEEF;" cy="-26.977"/>
  <circle r="0.499" cx="6.994" style="fill-rule:evenodd;clip-rule:evenodd;fill:#00AEEF;" cy="-26.977"/>
  <circle r="0.499" cx="10.994" style="fill-rule:evenodd;clip-rule:evenodd;fill:#00AEEF;" cy="-26.977"/>
  <circle r="0.499" cx="14.994" style="fill-rule:evenodd;clip-rule:evenodd;fill:#00AEEF;" cy="-26.977"/>
  <circle r="0.499" cx="18.994" style="fill-rule:evenodd;clip-rule:evenodd;fill:#00AEEF;" cy="-26.977"/>
  <circle r="0.499" cx="22.994" style="fill-rule:evenodd;clip-rule:evenodd;fill:#00AEEF;" cy="-26.977"/>
  <circle r="0.499" cx="26.994" style="fill-rule:evenodd;clip-rule:evenodd;fill:#00AEEF;" cy="-26.977"/>
  <circle r="0.499" cx="30.994" style="fill-rule:evenodd;clip-rule:evenodd;fill:#00AEEF;" cy="-26.977"/>
  <circle r="0.499" cx="34.994" style="fill-rule:evenodd;clip-rule:evenodd;fill:#00AEEF;" cy="-26.977"/>
  <circle r="0.499" cx="38.994" style="fill-rule:evenodd;clip-rule:evenodd;fill:#00AEEF;" cy="-26.977"/>
  <circle r="0.499" cx="42.994" style="fill-rule:evenodd;clip-rule:evenodd;fill:#00AEEF;" cy="-26.977"/>
  <circle r="0.499" cx="46.994" style="fill-rule:evenodd;clip-rule:evenodd;fill:#00AEEF;" cy="-26.977"/>
  <circle r="0.499" cx="50.994" style="fill:#00AEEF;" cy="-26.977"/>
  <circle r="0.499" cx="54.994" style="fill-rule:evenodd;clip-rule:evenodd;fill:#00AEEF;" cy="-26.977"/>
  <circle r="0.499" cx="2.994" style="fill-rule:evenodd;clip-rule:evenodd;fill:#00AEEF;" cy="-22.977"/>
  <circle r="0.499" cx="6.994" style="fill-rule:evenodd;clip-rule:evenodd;fill:#00AEEF;" cy="-22.977"/>
  <circle r="0.499" cx="10.994" style="fill-rule:evenodd;clip-rule:evenodd;fill:#00AEEF;" cy="-22.977"/>
  <circle r="0.499" cx="14.994" style="fill:#00AEEF;" cy="-22.977"/>
  <circle r="0.499" cx="18.994" style="fill-rule:evenodd;clip-rule:evenodd;fill:#00AEEF;" cy="-22.977"/>
  <circle r="0.499" cx="22.994" style="fill-rule:evenodd;clip-rule:evenodd;fill:#00AEEF;" cy="-22.977"/>
  <circle r="0.499" cx="26.994" style="fill-rule:evenodd;clip-rule:evenodd;fill:#00AEEF;" cy="-22.977"/>
  <circle r="0.499" cx="30.994" style="fill-rule:evenodd;clip-rule:evenodd;fill:#00AEEF;" cy="-22.977"/>
  <circle r="0.499" cx="34.994" style="fill-rule:evenodd;clip-rule:evenodd;fill:#00AEEF;" cy="-22.977"/>
  <circle r="0.499" cx="38.994" style="fill-rule:evenodd;clip-rule:evenodd;fill:#00AEEF;" cy="-22.977"/>
  <circle r="0.499" cx="42.994" style="fill-rule:evenodd;clip-rule:evenodd;fill:#00AEEF;" cy="-22.977"/>
  <circle r="0.499" cx="46.994" style="fill-rule:evenodd;clip-rule:evenodd;fill:#00AEEF;" cy="-22.977"/>
  <circle r="0.499" cx="50.994" style="fill-rule:evenodd;clip-rule:evenodd;fill:#00AEEF;" cy="-22.977"/>
  <circle r="0.499" cx="54.994" style="fill-rule:evenodd;clip-rule:evenodd;fill:#00AEEF;" cy="-22.977"/>
  <circle r="0.499" cx="2.994" style="fill-rule:evenodd;clip-rule:evenodd;fill:#00AEEF;" cy="-18.977"/>
  <circle r="0.499" cx="6.994" style="fill-rule:evenodd;clip-rule:evenodd;fill:#00AEEF;" cy="-18.977"/>
  <circle r="0.499" cx="10.994" style="fill-rule:evenodd;clip-rule:evenodd;fill:#00AEEF;" cy="-18.977"/>
  <circle r="0.499" cx="14.994" style="fill-rule:evenodd;clip-rule:evenodd;fill:#00AEEF;" cy="-18.977"/>
  <circle r="0.499" cx="18.994" style="fill-rule:evenodd;clip-rule:evenodd;fill:#00AEEF;" cy="-18.977"/>
  <circle r="0.499" cx="22.994" style="fill-rule:evenodd;clip-rule:evenodd;fill:#00AEEF;" cy="-18.977"/>
  <circle r="0.499" cx="26.994" style="fill-rule:evenodd;clip-rule:evenodd;fill:#00AEEF;" cy="-18.977"/>
  <circle r="0.499" cx="30.994" style="fill-rule:evenodd;clip-rule:evenodd;fill:#00AEEF;" cy="-18.977"/>
  <circle r="0.499" cx="34.994" style="fill-rule:evenodd;clip-rule:evenodd;fill:#00AEEF;" cy="-18.977"/>
  <circle r="0.499" cx="38.994" style="fill-rule:evenodd;clip-rule:evenodd;fill:#00AEEF;" cy="-18.977"/>
  <circle r="0.499" cx="42.994" style="fill-rule:evenodd;clip-rule:evenodd;fill:#00AEEF;" cy="-18.977"/>
  <circle r="0.499" cx="46.994" style="fill-rule:evenodd;clip-rule:evenodd;fill:#00AEEF;" cy="-18.977"/>
  <circle r="0.499" cx="50.994" style="fill-rule:evenodd;clip-rule:evenodd;fill:#00AEEF;" cy="-18.977"/>
  <circle r="0.499" cx="54.994" style="fill-rule:evenodd;clip-rule:evenodd;fill:#00AEEF;" cy="-18.977"/>
  <circle r="0.499" cx="2.994" style="fill:#00AEEF;" cy="-14.977"/>
  <circle r="0.499" cx="6.994" style="fill-rule:evenodd;clip-rule:evenodd;fill:#00AEEF;" cy="-14.977"/>
  <circle r="0.499" cx="10.994" style="fill-rule:evenodd;clip-rule:evenodd;fill:#00AEEF;" cy="-14.977"/>
  <circle r="0.499" cx="14.994" style="fill-rule:evenodd;clip-rule:evenodd;fill:#00AEEF;" cy="-14.977"/>
  <circle r="0.499" cx="18.994" style="fill-rule:evenodd;clip-rule:evenodd;fill:#00AEEF;" cy="-14.977"/>
  <circle r="0.499" cx="22.994" style="fill-rule:evenodd;clip-rule:evenodd;fill:#00AEEF;" cy="-14.977"/>
  <circle r="0.499" cx="26.994" style="fill-rule:evenodd;clip-rule:evenodd;fill:#00AEEF;" cy="-14.977"/>
  <circle r="0.499" cx="30.994" style="fill:#00AEEF;" cy="-14.977"/>
  <circle r="0.499" cx="34.994" style="fill-rule:evenodd;clip-rule:evenodd;fill:#00AEEF;" cy="-14.977"/>
  <circle r="0.499" cx="38.994" style="fill-rule:evenodd;clip-rule:evenodd;fill:#00AEEF;" cy="-14.977"/>
  <circle r="0.499" cx="42.994" style="fill-rule:evenodd;clip-rule:evenodd;fill:#00AEEF;" cy="-14.977"/>
  <circle r="0.499" cx="46.994" style="fill-rule:evenodd;clip-rule:evenodd;fill:#00AEEF;" cy="-14.977"/>
  <circle r="0.499" cx="50.994" style="fill-rule:evenodd;clip-rule:evenodd;fill:#00AEEF;" cy="-14.977"/>
  <circle r="0.499" cx="54.994" style="fill-rule:evenodd;clip-rule:evenodd;fill:#00AEEF;" cy="-14.977"/>
  <circle r="0.499" cx="2.994" style="fill-rule:evenodd;clip-rule:evenodd;fill:#00AEEF;" cy="-10.977"/>
  <circle r="0.499" cx="6.994" style="fill-rule:evenodd;clip-rule:evenodd;fill:#00AEEF;" cy="-10.977"/>
  <circle r="0.499" cx="10.994" style="fill-rule:evenodd;clip-rule:evenodd;fill:#00AEEF;" cy="-10.977"/>
  <circle r="0.499" cx="14.994" style="fill-rule:evenodd;clip-rule:evenodd;fill:#00AEEF;" cy="-10.977"/>
  <circle r="0.499" cx="18.994" style="fill:#00AEEF;" cy="-10.977"/>
  <circle r="0.499" cx="22.994" style="fill-rule:evenodd;clip-rule:evenodd;fill:#00AEEF;" cy="-10.977"/>
  <circle r="0.499" cx="26.994" style="fill-rule:evenodd;clip-rule:evenodd;fill:#00AEEF;" cy="-10.977"/>
  <circle r="0.499" cx="30.994" style="fill-rule:evenodd;clip-rule:evenodd;fill:#00AEEF;" cy="-10.977"/>
  <circle r="0.499" cx="34.994" style="fill-rule:evenodd;clip-rule:evenodd;fill:#00AEEF;" cy="-10.977"/>
  <circle r="0.499" cx="38.994" style="fill-rule:evenodd;clip-rule:evenodd;fill:#00AEEF;" cy="-10.977"/>
  <circle r="0.499" cx="42.994" style="fill-rule:evenodd;clip-rule:evenodd;fill:#00AEEF;" cy="-10.977"/>
  <circle r="0.499" cx="46.994" style="fill-rule:evenodd;clip-rule:evenodd;fill:#00AEEF;" cy="-10.977"/>
  <circle r="0.499" cx="50.994" style="fill-rule:evenodd;clip-rule:evenodd;fill:#00AEEF;" cy="-10.977"/>
  <circle r="0.499" cx="54.994" style="fill-rule:evenodd;clip-rule:evenodd;fill:#00AEEF;" cy="-10.977"/>
  <circle r="0.499" cx="2.994" style="fill-rule:evenodd;clip-rule:evenodd;fill:#00AEEF;" cy="-6.977"/>
  <circle r="0.499" cx="6.994" style="fill-rule:evenodd;clip-rule:evenodd;fill:#00AEEF;" cy="-6.977"/>
  <circle r="0.499" cx="10.994" style="fill-rule:evenodd;clip-rule:evenodd;fill:#00AEEF;" cy="-6.977"/>
  <circle r="0.499" cx="14.994" style="fill-rule:evenodd;clip-rule:evenodd;fill:#00AEEF;" cy="-6.977"/>
  <circle r="0.499" cx="18.994" style="fill-rule:evenodd;clip-rule:evenodd;fill:#00AEEF;" cy="-6.977"/>
  <circle r="0.499" cx="22.994" style="fill-rule:evenodd;clip-rule:evenodd;fill:#00AEEF;" cy="-6.977"/>
  <circle r="0.499" cx="26.994" style="fill-rule:evenodd;clip-rule:evenodd;fill:#00AEEF;" cy="-6.977"/>
  <circle r="0.499" cx="30.994" style="fill-rule:evenodd;clip-rule:evenodd;fill:#00AEEF;" cy="-6.977"/>
  <circle r="0.499" cx="34.994" style="fill-rule:evenodd;clip-rule:evenodd;fill:#00AEEF;" cy="-6.977"/>
  <circle r="0.499" cx="38.994" style="fill-rule:evenodd;clip-rule:evenodd;fill:#00AEEF;" cy="-6.977"/>
  <circle r="0.499" cx="42.994" style="fill-rule:evenodd;clip-rule:evenodd;fill:#00AEEF;" cy="-6.977"/>
  <circle r="0.499" cx="46.994" style="fill-rule:evenodd;clip-rule:evenodd;fill:#00AEEF;" cy="-6.977"/>
  <circle r="0.499" cx="50.994" style="fill-rule:evenodd;clip-rule:evenodd;fill:#00AEEF;" cy="-6.977"/>
  <circle r="0.499" cx="54.994" style="fill-rule:evenodd;clip-rule:evenodd;fill:#00AEEF;" cy="-6.977"/>
  <circle r="0.499" cx="2.994" style="fill-rule:evenodd;clip-rule:evenodd;fill:#00AEEF;" cy="-2.977"/>
  <circle r="0.499" cx="6.994" style="fill-rule:evenodd;clip-rule:evenodd;fill:#00AEEF;" cy="-2.977"/>
  <circle r="0.499" cx="10.994" style="fill-rule:evenodd;clip-rule:evenodd;fill:#00AEEF;" cy="-2.977"/>
  <circle r="0.499" cx="14.994" style="fill-rule:evenodd;clip-rule:evenodd;fill:#00AEEF;" cy="-2.977"/>
  <circle r="0.499" cx="18.994" style="fill-rule:evenodd;clip-rule:evenodd;fill:#00AEEF;" cy="-2.977"/>
  <circle r="0.499" cx="22.994" style="fill-rule:evenodd;clip-rule:evenodd;fill:#00AEEF;" cy="-2.977"/>
  <circle r="0.499" cx="26.994" style="fill-rule:evenodd;clip-rule:evenodd;fill:#00AEEF;" cy="-2.977"/>
  <circle r="0.499" cx="30.994" style="fill-rule:evenodd;clip-rule:evenodd;fill:#00AEEF;" cy="-2.977"/>
  <circle r="0.499" cx="34.994" style="fill-rule:evenodd;clip-rule:evenodd;fill:#00AEEF;" cy="-2.977"/>
  <circle r="0.499" cx="38.994" style="fill-rule:evenodd;clip-rule:evenodd;fill:#00AEEF;" cy="-2.977"/>
  <circle r="0.499" cx="42.994" style="fill-rule:evenodd;clip-rule:evenodd;fill:#00AEEF;" cy="-2.977"/>
  <circle r="0.499" cx="46.994" style="fill-rule:evenodd;clip-rule:evenodd;fill:#00AEEF;" cy="-2.977"/>
  <circle r="0.499" cx="50.994" style="fill-rule:evenodd;clip-rule:evenodd;fill:#00AEEF;" cy="-2.977"/>
  <circle r="0.499" cx="54.994" style="fill-rule:evenodd;clip-rule:evenodd;fill:#00AEEF;" cy="-2.977"/>
 </g>
</svg>
