<?xml version="1.0"?>
<!-- Converted with SVG Converter - Version 0.9.6 (Compiled Thu Aug 31 10:01:05 2017) - Copyright (C) 2011 Nokia -->
<svg xmlns="http://www.w3.org/2000/svg" version="1.1" y="0px" xmlns:xlink="http://www.w3.org/1999/xlink" xml:space="preserve" baseProfile="tiny" viewBox="1 -57.016 56 56.016" x="0px" width="56" height="56.016">
 <g>
  <rect style="fill:none;" y="-57.016" x="1" width="56" height="56.016"/>
  <circle style="fill-rule:evenodd;clip-rule:evenodd;fill:#00AEEF;" cx="2.994" r="0.499" cy="-54.977"/>
  <circle style="fill-rule:evenodd;clip-rule:evenodd;fill:#00AEEF;" cx="6.994" r="0.499" cy="-54.977"/>
  <circle style="fill-rule:evenodd;clip-rule:evenodd;fill:#00AEEF;" cx="10.994" r="0.499" cy="-54.977"/>
  <circle style="fill-rule:evenodd;clip-rule:evenodd;fill:#00AEEF;" cx="14.994" r="0.499" cy="-54.977"/>
  <circle style="fill-rule:evenodd;clip-rule:evenodd;fill:#00AEEF;" cx="18.994" r="0.499" cy="-54.977"/>
  <circle style="fill-rule:evenodd;clip-rule:evenodd;fill:#00AEEF;" cx="22.994" r="0.499" cy="-54.977"/>
  <circle style="fill-rule:evenodd;clip-rule:evenodd;fill:#00AEEF;" cx="26.994" r="0.499" cy="-54.977"/>
  <circle style="fill-rule:evenodd;clip-rule:evenodd;fill:#00AEEF;" cx="30.994" r="0.499" cy="-54.977"/>
  <circle style="fill-rule:evenodd;clip-rule:evenodd;fill:#00AEEF;" cx="34.994" r="0.499" cy="-54.977"/>
  <circle style="fill-rule:evenodd;clip-rule:evenodd;fill:#00AEEF;" cx="38.994" r="0.499" cy="-54.977"/>
  <circle style="fill-rule:evenodd;clip-rule:evenodd;fill:#00AEEF;" cx="42.994" r="0.499" cy="-54.977"/>
  <circle style="fill-rule:evenodd;clip-rule:evenodd;fill:#00AEEF;" cx="46.994" r="0.499" cy="-54.977"/>
  <circle style="fill-rule:evenodd;clip-rule:evenodd;fill:#00AEEF;" cx="50.994" r="0.499" cy="-54.977"/>
  <circle style="fill-rule:evenodd;clip-rule:evenodd;fill:#00AEEF;" cx="54.994" r="0.499" cy="-54.977"/>
  <circle style="fill-rule:evenodd;clip-rule:evenodd;fill:#00AEEF;" cx="2.994" r="0.499" cy="-50.998"/>
  <circle style="fill-rule:evenodd;clip-rule:evenodd;fill:#00AEEF;" cx="6.994" r="0.499" cy="-50.998"/>
  <circle style="fill-rule:evenodd;clip-rule:evenodd;fill:#00AEEF;" cx="10.994" r="0.499" cy="-50.998"/>
  <circle style="fill-rule:evenodd;clip-rule:evenodd;fill:#00AEEF;" cx="14.994" r="0.499" cy="-50.998"/>
  <circle style="fill-rule:evenodd;clip-rule:evenodd;fill:#00AEEF;" cx="18.994" r="0.499" cy="-50.998"/>
  <circle style="fill-rule:evenodd;clip-rule:evenodd;fill:#00AEEF;" cx="22.994" r="0.499" cy="-50.998"/>
  <circle style="fill-rule:evenodd;clip-rule:evenodd;fill:#00AEEF;" cx="26.994" r="0.499" cy="-50.998"/>
  <circle style="fill-rule:evenodd;clip-rule:evenodd;fill:#00AEEF;" cx="30.994" r="0.499" cy="-50.998"/>
  <circle style="fill-rule:evenodd;clip-rule:evenodd;fill:#00AEEF;" cx="34.994" r="0.499" cy="-50.998"/>
  <circle style="fill-rule:evenodd;clip-rule:evenodd;fill:#00AEEF;" cx="38.994" r="0.499" cy="-50.998"/>
  <circle style="fill-rule:evenodd;clip-rule:evenodd;fill:#00AEEF;" cx="42.994" r="0.499" cy="-50.998"/>
  <circle style="fill-rule:evenodd;clip-rule:evenodd;fill:#00AEEF;" cx="46.994" r="0.499" cy="-50.998"/>
  <circle style="fill-rule:evenodd;clip-rule:evenodd;fill:#00AEEF;" cx="50.994" r="0.499" cy="-50.998"/>
  <circle style="fill-rule:evenodd;clip-rule:evenodd;fill:#00AEEF;" cx="54.994" r="0.499" cy="-50.998"/>
  <circle style="fill-rule:evenodd;clip-rule:evenodd;fill:#00AEEF;" cx="2.994" r="0.499" cy="-46.998"/>
  <circle style="fill-rule:evenodd;clip-rule:evenodd;fill:#00AEEF;" cx="6.994" r="0.499" cy="-46.998"/>
  <circle style="fill-rule:evenodd;clip-rule:evenodd;fill:#00AEEF;" cx="10.994" r="0.499" cy="-46.998"/>
  <circle style="fill-rule:evenodd;clip-rule:evenodd;fill:#00AEEF;" cx="14.994" r="0.499" cy="-46.998"/>
  <circle style="fill-rule:evenodd;clip-rule:evenodd;fill:#00AEEF;" cx="18.994" r="0.499" cy="-46.998"/>
  <circle style="fill-rule:evenodd;clip-rule:evenodd;fill:#00AEEF;" cx="22.994" r="0.499" cy="-46.998"/>
  <circle style="fill-rule:evenodd;clip-rule:evenodd;fill:#00AEEF;" cx="26.994" r="0.499" cy="-46.998"/>
  <circle style="fill-rule:evenodd;clip-rule:evenodd;fill:#00AEEF;" cx="30.994" r="0.499" cy="-46.998"/>
  <circle style="fill-rule:evenodd;clip-rule:evenodd;fill:#00AEEF;" cx="34.994" r="0.499" cy="-46.998"/>
  <circle style="fill-rule:evenodd;clip-rule:evenodd;fill:#00AEEF;" cx="38.994" r="0.499" cy="-46.998"/>
  <circle style="fill-rule:evenodd;clip-rule:evenodd;fill:#00AEEF;" cx="42.994" r="0.499" cy="-46.998"/>
  <circle style="fill-rule:evenodd;clip-rule:evenodd;fill:#00AEEF;" cx="46.994" r="0.499" cy="-46.998"/>
  <circle style="fill-rule:evenodd;clip-rule:evenodd;fill:#00AEEF;" cx="50.994" r="0.499" cy="-46.998"/>
  <circle style="fill-rule:evenodd;clip-rule:evenodd;fill:#00AEEF;" cx="54.994" r="0.499" cy="-46.998"/>
  <circle style="fill-rule:evenodd;clip-rule:evenodd;fill:#00AEEF;" cx="2.994" r="0.499" cy="-42.998"/>
  <circle style="fill-rule:evenodd;clip-rule:evenodd;fill:#00AEEF;" cx="6.994" r="0.499" cy="-42.998"/>
  <circle style="fill-rule:evenodd;clip-rule:evenodd;fill:#00AEEF;" cx="10.994" r="0.499" cy="-42.998"/>
  <circle style="fill-rule:evenodd;clip-rule:evenodd;fill:#00AEEF;" cx="14.994" r="0.499" cy="-42.998"/>
  <circle style="fill-rule:evenodd;clip-rule:evenodd;fill:#00AEEF;" cx="18.994" r="0.499" cy="-42.998"/>
  <circle style="fill-rule:evenodd;clip-rule:evenodd;fill:#00AEEF;" cx="22.994" r="0.499" cy="-42.998"/>
  <circle style="fill-rule:evenodd;clip-rule:evenodd;fill:#00AEEF;" cx="26.994" r="0.499" cy="-42.998"/>
  <circle style="fill-rule:evenodd;clip-rule:evenodd;fill:#00AEEF;" cx="30.994" r="0.499" cy="-42.998"/>
  <circle style="fill-rule:evenodd;clip-rule:evenodd;fill:#00AEEF;" cx="34.994" r="0.499" cy="-42.998"/>
  <circle style="fill-rule:evenodd;clip-rule:evenodd;fill:#00AEEF;" cx="38.994" r="0.499" cy="-42.998"/>
  <circle style="fill-rule:evenodd;clip-rule:evenodd;fill:#00AEEF;" cx="42.994" r="0.499" cy="-42.998"/>
  <circle style="fill-rule:evenodd;clip-rule:evenodd;fill:#00AEEF;" cx="46.994" r="0.499" cy="-42.998"/>
  <circle style="fill-rule:evenodd;clip-rule:evenodd;fill:#00AEEF;" cx="50.994" r="0.499" cy="-42.998"/>
  <circle style="fill-rule:evenodd;clip-rule:evenodd;fill:#00AEEF;" cx="54.994" r="0.499" cy="-42.998"/>
  <circle style="fill-rule:evenodd;clip-rule:evenodd;fill:#00AEEF;" cx="2.994" r="0.499" cy="-39.061"/>
  <circle style="fill-rule:evenodd;clip-rule:evenodd;fill:#00AEEF;" cx="6.994" r="0.499" cy="-39.061"/>
  <circle style="fill-rule:evenodd;clip-rule:evenodd;fill:#00AEEF;" cx="10.994" r="0.499" cy="-39.061"/>
  <circle style="fill-rule:evenodd;clip-rule:evenodd;fill:#00AEEF;" cx="14.994" r="0.499" cy="-39.061"/>
  <circle style="fill-rule:evenodd;clip-rule:evenodd;fill:#00AEEF;" cx="18.994" r="0.499" cy="-39.061"/>
  <circle style="fill-rule:evenodd;clip-rule:evenodd;fill:#00AEEF;" cx="22.994" r="0.499" cy="-39.061"/>
  <circle style="fill-rule:evenodd;clip-rule:evenodd;fill:#00AEEF;" cx="26.994" r="0.499" cy="-39.061"/>
  <circle style="fill-rule:evenodd;clip-rule:evenodd;fill:#00AEEF;" cx="30.994" r="0.499" cy="-39.061"/>
  <circle style="fill-rule:evenodd;clip-rule:evenodd;fill:#00AEEF;" cx="34.994" r="0.499" cy="-39.061"/>
  <circle style="fill:#00AEEF;" cx="38.994" r="0.499" cy="-39.061"/>
  <circle style="fill-rule:evenodd;clip-rule:evenodd;fill:#00AEEF;" cx="42.994" r="0.499" cy="-39.061"/>
  <circle style="fill-rule:evenodd;clip-rule:evenodd;fill:#00AEEF;" cx="46.994" r="0.499" cy="-39.061"/>
  <circle style="fill-rule:evenodd;clip-rule:evenodd;fill:#00AEEF;" cx="50.994" r="0.499" cy="-39.061"/>
  <circle style="fill-rule:evenodd;clip-rule:evenodd;fill:#00AEEF;" cx="54.994" r="0.499" cy="-39.061"/>
  <circle style="fill-rule:evenodd;clip-rule:evenodd;fill:#00AEEF;" cx="2.994" r="0.499" cy="-34.977"/>
  <circle style="fill-rule:evenodd;clip-rule:evenodd;fill:#00AEEF;" cx="6.994" r="0.499" cy="-34.977"/>
  <circle style="fill-rule:evenodd;clip-rule:evenodd;fill:#00AEEF;" cx="10.994" r="0.499" cy="-34.977"/>
  <circle style="fill-rule:evenodd;clip-rule:evenodd;fill:#00AEEF;" cx="14.994" r="0.499" cy="-34.977"/>
  <circle style="fill-rule:evenodd;clip-rule:evenodd;fill:#00AEEF;" cx="18.994" r="0.499" cy="-34.977"/>
  <circle style="fill-rule:evenodd;clip-rule:evenodd;fill:#00AEEF;" cx="22.994" r="0.499" cy="-34.977"/>
  <circle style="fill-rule:evenodd;clip-rule:evenodd;fill:#00AEEF;" cx="26.994" r="0.499" cy="-34.977"/>
  <circle style="fill-rule:evenodd;clip-rule:evenodd;fill:#00AEEF;" cx="30.994" r="0.499" cy="-34.977"/>
  <circle style="fill-rule:evenodd;clip-rule:evenodd;fill:#00AEEF;" cx="34.994" r="0.499" cy="-34.977"/>
  <circle style="fill-rule:evenodd;clip-rule:evenodd;fill:#00AEEF;" cx="38.994" r="0.499" cy="-34.977"/>
  <circle style="fill-rule:evenodd;clip-rule:evenodd;fill:#00AEEF;" cx="42.994" r="0.499" cy="-34.977"/>
  <circle style="fill-rule:evenodd;clip-rule:evenodd;fill:#00AEEF;" cx="46.994" r="0.499" cy="-34.977"/>
  <circle style="fill-rule:evenodd;clip-rule:evenodd;fill:#00AEEF;" cx="50.994" r="0.499" cy="-34.977"/>
  <circle style="fill-rule:evenodd;clip-rule:evenodd;fill:#00AEEF;" cx="54.994" r="0.499" cy="-34.977"/>
  <circle style="fill-rule:evenodd;clip-rule:evenodd;fill:#00AEEF;" cx="2.994" r="0.499" cy="-30.977"/>
  <circle style="fill-rule:evenodd;clip-rule:evenodd;fill:#00AEEF;" cx="6.994" r="0.499" cy="-30.977"/>
  <circle style="fill-rule:evenodd;clip-rule:evenodd;fill:#00AEEF;" cx="10.994" r="0.499" cy="-30.977"/>
  <circle style="fill-rule:evenodd;clip-rule:evenodd;fill:#00AEEF;" cx="14.994" r="0.499" cy="-30.977"/>
  <circle style="fill-rule:evenodd;clip-rule:evenodd;fill:#00AEEF;" cx="18.994" r="0.499" cy="-30.977"/>
  <circle style="fill-rule:evenodd;clip-rule:evenodd;fill:#00AEEF;" cx="22.994" r="0.499" cy="-30.977"/>
  <circle style="fill-rule:evenodd;clip-rule:evenodd;fill:#00AEEF;" cx="26.994" r="0.499" cy="-30.977"/>
  <circle style="fill-rule:evenodd;clip-rule:evenodd;fill:#00AEEF;" cx="30.994" r="0.499" cy="-30.977"/>
  <circle style="fill-rule:evenodd;clip-rule:evenodd;fill:#00AEEF;" cx="34.994" r="0.499" cy="-30.977"/>
  <circle style="fill-rule:evenodd;clip-rule:evenodd;fill:#00AEEF;" cx="38.994" r="0.499" cy="-30.977"/>
  <circle style="fill-rule:evenodd;clip-rule:evenodd;fill:#00AEEF;" cx="42.994" r="0.499" cy="-30.977"/>
  <circle style="fill-rule:evenodd;clip-rule:evenodd;fill:#00AEEF;" cx="46.994" r="0.499" cy="-30.977"/>
  <circle style="fill-rule:evenodd;clip-rule:evenodd;fill:#00AEEF;" cx="50.994" r="0.499" cy="-30.977"/>
  <circle style="fill-rule:evenodd;clip-rule:evenodd;fill:#00AEEF;" cx="54.994" r="0.499" cy="-30.977"/>
  <circle style="fill-rule:evenodd;clip-rule:evenodd;fill:#00AEEF;" cx="2.994" r="0.499" cy="-26.977"/>
  <circle style="fill-rule:evenodd;clip-rule:evenodd;fill:#00AEEF;" cx="6.994" r="0.499" cy="-26.977"/>
  <circle style="fill-rule:evenodd;clip-rule:evenodd;fill:#00AEEF;" cx="10.994" r="0.499" cy="-26.977"/>
  <circle style="fill-rule:evenodd;clip-rule:evenodd;fill:#00AEEF;" cx="14.994" r="0.499" cy="-26.977"/>
  <circle style="fill-rule:evenodd;clip-rule:evenodd;fill:#00AEEF;" cx="18.994" r="0.499" cy="-26.977"/>
  <circle style="fill-rule:evenodd;clip-rule:evenodd;fill:#00AEEF;" cx="22.994" r="0.499" cy="-26.977"/>
  <circle style="fill-rule:evenodd;clip-rule:evenodd;fill:#00AEEF;" cx="26.994" r="0.499" cy="-26.977"/>
  <circle style="fill-rule:evenodd;clip-rule:evenodd;fill:#00AEEF;" cx="30.994" r="0.499" cy="-26.977"/>
  <circle style="fill-rule:evenodd;clip-rule:evenodd;fill:#00AEEF;" cx="34.994" r="0.499" cy="-26.977"/>
  <circle style="fill-rule:evenodd;clip-rule:evenodd;fill:#00AEEF;" cx="38.994" r="0.499" cy="-26.977"/>
  <circle style="fill-rule:evenodd;clip-rule:evenodd;fill:#00AEEF;" cx="42.994" r="0.499" cy="-26.977"/>
  <circle style="fill-rule:evenodd;clip-rule:evenodd;fill:#00AEEF;" cx="46.994" r="0.499" cy="-26.977"/>
  <circle style="fill:#00AEEF;" cx="50.994" r="0.499" cy="-26.977"/>
  <circle style="fill-rule:evenodd;clip-rule:evenodd;fill:#00AEEF;" cx="54.994" r="0.499" cy="-26.977"/>
  <circle style="fill-rule:evenodd;clip-rule:evenodd;fill:#00AEEF;" cx="2.994" r="0.499" cy="-22.977"/>
  <circle style="fill-rule:evenodd;clip-rule:evenodd;fill:#00AEEF;" cx="6.994" r="0.499" cy="-22.977"/>
  <circle style="fill-rule:evenodd;clip-rule:evenodd;fill:#00AEEF;" cx="10.994" r="0.499" cy="-22.977"/>
  <circle style="fill:#00AEEF;" cx="14.994" r="0.499" cy="-22.977"/>
  <circle style="fill-rule:evenodd;clip-rule:evenodd;fill:#00AEEF;" cx="18.994" r="0.499" cy="-22.977"/>
  <circle style="fill-rule:evenodd;clip-rule:evenodd;fill:#00AEEF;" cx="22.994" r="0.499" cy="-22.977"/>
  <circle style="fill-rule:evenodd;clip-rule:evenodd;fill:#00AEEF;" cx="26.994" r="0.499" cy="-22.977"/>
  <circle style="fill-rule:evenodd;clip-rule:evenodd;fill:#00AEEF;" cx="30.994" r="0.499" cy="-22.977"/>
  <circle style="fill-rule:evenodd;clip-rule:evenodd;fill:#00AEEF;" cx="34.994" r="0.499" cy="-22.977"/>
  <circle style="fill-rule:evenodd;clip-rule:evenodd;fill:#00AEEF;" cx="38.994" r="0.499" cy="-22.977"/>
  <circle style="fill-rule:evenodd;clip-rule:evenodd;fill:#00AEEF;" cx="42.994" r="0.499" cy="-22.977"/>
  <circle style="fill-rule:evenodd;clip-rule:evenodd;fill:#00AEEF;" cx="46.994" r="0.499" cy="-22.977"/>
  <circle style="fill-rule:evenodd;clip-rule:evenodd;fill:#00AEEF;" cx="50.994" r="0.499" cy="-22.977"/>
  <circle style="fill-rule:evenodd;clip-rule:evenodd;fill:#00AEEF;" cx="54.994" r="0.499" cy="-22.977"/>
  <circle style="fill-rule:evenodd;clip-rule:evenodd;fill:#00AEEF;" cx="2.994" r="0.499" cy="-18.977"/>
  <circle style="fill-rule:evenodd;clip-rule:evenodd;fill:#00AEEF;" cx="6.994" r="0.499" cy="-18.977"/>
  <circle style="fill-rule:evenodd;clip-rule:evenodd;fill:#00AEEF;" cx="10.994" r="0.499" cy="-18.977"/>
  <circle style="fill-rule:evenodd;clip-rule:evenodd;fill:#00AEEF;" cx="14.994" r="0.499" cy="-18.977"/>
  <circle style="fill-rule:evenodd;clip-rule:evenodd;fill:#00AEEF;" cx="18.994" r="0.499" cy="-18.977"/>
  <circle style="fill-rule:evenodd;clip-rule:evenodd;fill:#00AEEF;" cx="22.994" r="0.499" cy="-18.977"/>
  <circle style="fill-rule:evenodd;clip-rule:evenodd;fill:#00AEEF;" cx="26.994" r="0.499" cy="-18.977"/>
  <circle style="fill-rule:evenodd;clip-rule:evenodd;fill:#00AEEF;" cx="30.994" r="0.499" cy="-18.977"/>
  <circle style="fill-rule:evenodd;clip-rule:evenodd;fill:#00AEEF;" cx="34.994" r="0.499" cy="-18.977"/>
  <circle style="fill-rule:evenodd;clip-rule:evenodd;fill:#00AEEF;" cx="38.994" r="0.499" cy="-18.977"/>
  <circle style="fill-rule:evenodd;clip-rule:evenodd;fill:#00AEEF;" cx="42.994" r="0.499" cy="-18.977"/>
  <circle style="fill-rule:evenodd;clip-rule:evenodd;fill:#00AEEF;" cx="46.994" r="0.499" cy="-18.977"/>
  <circle style="fill-rule:evenodd;clip-rule:evenodd;fill:#00AEEF;" cx="50.994" r="0.499" cy="-18.977"/>
  <circle style="fill-rule:evenodd;clip-rule:evenodd;fill:#00AEEF;" cx="54.994" r="0.499" cy="-18.977"/>
  <circle style="fill:#00AEEF;" cx="2.994" r="0.499" cy="-14.977"/>
  <circle style="fill-rule:evenodd;clip-rule:evenodd;fill:#00AEEF;" cx="6.994" r="0.499" cy="-14.977"/>
  <circle style="fill-rule:evenodd;clip-rule:evenodd;fill:#00AEEF;" cx="10.994" r="0.499" cy="-14.977"/>
  <circle style="fill-rule:evenodd;clip-rule:evenodd;fill:#00AEEF;" cx="14.994" r="0.499" cy="-14.977"/>
  <circle style="fill-rule:evenodd;clip-rule:evenodd;fill:#00AEEF;" cx="18.994" r="0.499" cy="-14.977"/>
  <circle style="fill-rule:evenodd;clip-rule:evenodd;fill:#00AEEF;" cx="22.994" r="0.499" cy="-14.977"/>
  <circle style="fill-rule:evenodd;clip-rule:evenodd;fill:#00AEEF;" cx="26.994" r="0.499" cy="-14.977"/>
  <circle style="fill:#00AEEF;" cx="30.994" r="0.499" cy="-14.977"/>
  <circle style="fill-rule:evenodd;clip-rule:evenodd;fill:#00AEEF;" cx="34.994" r="0.499" cy="-14.977"/>
  <circle style="fill-rule:evenodd;clip-rule:evenodd;fill:#00AEEF;" cx="38.994" r="0.499" cy="-14.977"/>
  <circle style="fill-rule:evenodd;clip-rule:evenodd;fill:#00AEEF;" cx="42.994" r="0.499" cy="-14.977"/>
  <circle style="fill-rule:evenodd;clip-rule:evenodd;fill:#00AEEF;" cx="46.994" r="0.499" cy="-14.977"/>
  <circle style="fill-rule:evenodd;clip-rule:evenodd;fill:#00AEEF;" cx="50.994" r="0.499" cy="-14.977"/>
  <circle style="fill-rule:evenodd;clip-rule:evenodd;fill:#00AEEF;" cx="54.994" r="0.499" cy="-14.977"/>
  <circle style="fill-rule:evenodd;clip-rule:evenodd;fill:#00AEEF;" cx="2.994" r="0.499" cy="-10.977"/>
  <circle style="fill-rule:evenodd;clip-rule:evenodd;fill:#00AEEF;" cx="6.994" r="0.499" cy="-10.977"/>
  <circle style="fill-rule:evenodd;clip-rule:evenodd;fill:#00AEEF;" cx="10.994" r="0.499" cy="-10.977"/>
  <circle style="fill-rule:evenodd;clip-rule:evenodd;fill:#00AEEF;" cx="14.994" r="0.499" cy="-10.977"/>
  <circle style="fill:#00AEEF;" cx="18.994" r="0.499" cy="-10.977"/>
  <circle style="fill-rule:evenodd;clip-rule:evenodd;fill:#00AEEF;" cx="22.994" r="0.499" cy="-10.977"/>
  <circle style="fill-rule:evenodd;clip-rule:evenodd;fill:#00AEEF;" cx="26.994" r="0.499" cy="-10.977"/>
  <circle style="fill-rule:evenodd;clip-rule:evenodd;fill:#00AEEF;" cx="30.994" r="0.499" cy="-10.977"/>
  <circle style="fill-rule:evenodd;clip-rule:evenodd;fill:#00AEEF;" cx="34.994" r="0.499" cy="-10.977"/>
  <circle style="fill-rule:evenodd;clip-rule:evenodd;fill:#00AEEF;" cx="38.994" r="0.499" cy="-10.977"/>
  <circle style="fill-rule:evenodd;clip-rule:evenodd;fill:#00AEEF;" cx="42.994" r="0.499" cy="-10.977"/>
  <circle style="fill-rule:evenodd;clip-rule:evenodd;fill:#00AEEF;" cx="46.994" r="0.499" cy="-10.977"/>
  <circle style="fill-rule:evenodd;clip-rule:evenodd;fill:#00AEEF;" cx="50.994" r="0.499" cy="-10.977"/>
  <circle style="fill-rule:evenodd;clip-rule:evenodd;fill:#00AEEF;" cx="54.994" r="0.499" cy="-10.977"/>
  <circle style="fill-rule:evenodd;clip-rule:evenodd;fill:#00AEEF;" cx="2.994" r="0.499" cy="-6.977"/>
  <circle style="fill-rule:evenodd;clip-rule:evenodd;fill:#00AEEF;" cx="6.994" r="0.499" cy="-6.977"/>
  <circle style="fill-rule:evenodd;clip-rule:evenodd;fill:#00AEEF;" cx="10.994" r="0.499" cy="-6.977"/>
  <circle style="fill-rule:evenodd;clip-rule:evenodd;fill:#00AEEF;" cx="14.994" r="0.499" cy="-6.977"/>
  <circle style="fill-rule:evenodd;clip-rule:evenodd;fill:#00AEEF;" cx="18.994" r="0.499" cy="-6.977"/>
  <circle style="fill-rule:evenodd;clip-rule:evenodd;fill:#00AEEF;" cx="22.994" r="0.499" cy="-6.977"/>
  <circle style="fill-rule:evenodd;clip-rule:evenodd;fill:#00AEEF;" cx="26.994" r="0.499" cy="-6.977"/>
  <circle style="fill-rule:evenodd;clip-rule:evenodd;fill:#00AEEF;" cx="30.994" r="0.499" cy="-6.977"/>
  <circle style="fill-rule:evenodd;clip-rule:evenodd;fill:#00AEEF;" cx="34.994" r="0.499" cy="-6.977"/>
  <circle style="fill-rule:evenodd;clip-rule:evenodd;fill:#00AEEF;" cx="38.994" r="0.499" cy="-6.977"/>
  <circle style="fill-rule:evenodd;clip-rule:evenodd;fill:#00AEEF;" cx="42.994" r="0.499" cy="-6.977"/>
  <circle style="fill-rule:evenodd;clip-rule:evenodd;fill:#00AEEF;" cx="46.994" r="0.499" cy="-6.977"/>
  <circle style="fill-rule:evenodd;clip-rule:evenodd;fill:#00AEEF;" cx="50.994" r="0.499" cy="-6.977"/>
  <circle style="fill-rule:evenodd;clip-rule:evenodd;fill:#00AEEF;" cx="54.994" r="0.499" cy="-6.977"/>
  <circle style="fill-rule:evenodd;clip-rule:evenodd;fill:#00AEEF;" cx="2.994" r="0.499" cy="-2.977"/>
  <circle style="fill-rule:evenodd;clip-rule:evenodd;fill:#00AEEF;" cx="6.994" r="0.499" cy="-2.977"/>
  <circle style="fill-rule:evenodd;clip-rule:evenodd;fill:#00AEEF;" cx="10.994" r="0.499" cy="-2.977"/>
  <circle style="fill-rule:evenodd;clip-rule:evenodd;fill:#00AEEF;" cx="14.994" r="0.499" cy="-2.977"/>
  <circle style="fill-rule:evenodd;clip-rule:evenodd;fill:#00AEEF;" cx="18.994" r="0.499" cy="-2.977"/>
  <circle style="fill-rule:evenodd;clip-rule:evenodd;fill:#00AEEF;" cx="22.994" r="0.499" cy="-2.977"/>
  <circle style="fill-rule:evenodd;clip-rule:evenodd;fill:#00AEEF;" cx="26.994" r="0.499" cy="-2.977"/>
  <circle style="fill-rule:evenodd;clip-rule:evenodd;fill:#00AEEF;" cx="30.994" r="0.499" cy="-2.977"/>
  <circle style="fill-rule:evenodd;clip-rule:evenodd;fill:#00AEEF;" cx="34.994" r="0.499" cy="-2.977"/>
  <circle style="fill-rule:evenodd;clip-rule:evenodd;fill:#00AEEF;" cx="38.994" r="0.499" cy="-2.977"/>
  <circle style="fill-rule:evenodd;clip-rule:evenodd;fill:#00AEEF;" cx="42.994" r="0.499" cy="-2.977"/>
  <circle style="fill-rule:evenodd;clip-rule:evenodd;fill:#00AEEF;" cx="46.994" r="0.499" cy="-2.977"/>
  <circle style="fill-rule:evenodd;clip-rule:evenodd;fill:#00AEEF;" cx="50.994" r="0.499" cy="-2.977"/>
  <circle style="fill-rule:evenodd;clip-rule:evenodd;fill:#00AEEF;" cx="54.994" r="0.499" cy="-2.977"/>
 </g>
</svg>
