<?xml version="1.0"?>
<!-- Converted with SVG Converter - Version 0.9.5 (Compiled Fri Feb 21 09:53:38 2020) - Copyright (C) 2011 Nokia -->
<svg xmlns="http://www.w3.org/2000/svg" baseProfile="tiny" xml:space="preserve" height="56.016" viewBox="1 -57.016 56 56.016" x="0px" width="56" version="1.1" y="0px" xmlns:xlink="http://www.w3.org/1999/xlink">
 <g>
  <rect style="fill:none;" height="56.016" x="1" width="56" y="-57.016"/>
  <circle style="fill-rule:evenodd;clip-rule:evenodd;fill:#EC008C;" cx="2.994" cy="-54.977" r="0.499"/>
  <circle style="fill-rule:evenodd;clip-rule:evenodd;fill:#EC008C;" cx="6.994" cy="-54.977" r="0.499"/>
  <circle style="fill-rule:evenodd;clip-rule:evenodd;fill:#EC008C;" cx="10.994" cy="-54.977" r="0.499"/>
  <circle style="fill-rule:evenodd;clip-rule:evenodd;fill:#EC008C;" cx="14.994" cy="-54.977" r="0.499"/>
  <circle style="fill-rule:evenodd;clip-rule:evenodd;fill:#EC008C;" cx="18.994" cy="-54.977" r="0.499"/>
  <circle style="fill-rule:evenodd;clip-rule:evenodd;fill:#EC008C;" cx="22.994" cy="-54.977" r="0.499"/>
  <circle style="fill-rule:evenodd;clip-rule:evenodd;fill:#EC008C;" cx="26.994" cy="-54.977" r="0.499"/>
  <circle style="fill-rule:evenodd;clip-rule:evenodd;fill:#EC008C;" cx="30.994" cy="-54.977" r="0.499"/>
  <circle style="fill-rule:evenodd;clip-rule:evenodd;fill:#EC008C;" cx="34.994" cy="-54.977" r="0.499"/>
  <circle style="fill-rule:evenodd;clip-rule:evenodd;fill:#EC008C;" cx="38.994" cy="-54.977" r="0.499"/>
  <circle style="fill-rule:evenodd;clip-rule:evenodd;fill:#EC008C;" cx="42.994" cy="-54.977" r="0.499"/>
  <circle style="fill-rule:evenodd;clip-rule:evenodd;fill:#EC008C;" cx="46.994" cy="-54.977" r="0.499"/>
  <circle style="fill-rule:evenodd;clip-rule:evenodd;fill:#EC008C;" cx="50.994" cy="-54.977" r="0.499"/>
  <circle style="fill-rule:evenodd;clip-rule:evenodd;fill:#EC008C;" cx="54.994" cy="-54.977" r="0.499"/>
  <circle style="fill-rule:evenodd;clip-rule:evenodd;fill:#EC008C;" cx="2.994" cy="-50.998" r="0.499"/>
  <circle style="fill-rule:evenodd;clip-rule:evenodd;fill:#EC008C;" cx="6.994" cy="-50.998" r="0.499"/>
  <circle style="fill-rule:evenodd;clip-rule:evenodd;fill:#EC008C;" cx="10.994" cy="-50.998" r="0.499"/>
  <circle style="fill-rule:evenodd;clip-rule:evenodd;fill:#EC008C;" cx="14.994" cy="-50.998" r="0.499"/>
  <circle style="fill-rule:evenodd;clip-rule:evenodd;fill:#EC008C;" cx="18.994" cy="-50.998" r="0.499"/>
  <circle style="fill-rule:evenodd;clip-rule:evenodd;fill:#EC008C;" cx="22.994" cy="-50.998" r="0.499"/>
  <circle style="fill-rule:evenodd;clip-rule:evenodd;fill:#EC008C;" cx="26.994" cy="-50.998" r="0.499"/>
  <circle style="fill-rule:evenodd;clip-rule:evenodd;fill:#EC008C;" cx="30.994" cy="-50.998" r="0.499"/>
  <circle style="fill-rule:evenodd;clip-rule:evenodd;fill:#EC008C;" cx="34.994" cy="-50.998" r="0.499"/>
  <circle style="fill-rule:evenodd;clip-rule:evenodd;fill:#EC008C;" cx="38.994" cy="-50.998" r="0.499"/>
  <circle style="fill-rule:evenodd;clip-rule:evenodd;fill:#EC008C;" cx="42.994" cy="-50.998" r="0.499"/>
  <circle style="fill-rule:evenodd;clip-rule:evenodd;fill:#EC008C;" cx="46.994" cy="-50.998" r="0.499"/>
  <circle style="fill-rule:evenodd;clip-rule:evenodd;fill:#EC008C;" cx="50.994" cy="-50.998" r="0.499"/>
  <circle style="fill-rule:evenodd;clip-rule:evenodd;fill:#EC008C;" cx="54.994" cy="-50.998" r="0.499"/>
  <circle style="fill-rule:evenodd;clip-rule:evenodd;fill:#EC008C;" cx="2.994" cy="-46.998" r="0.499"/>
  <circle style="fill-rule:evenodd;clip-rule:evenodd;fill:#EC008C;" cx="6.994" cy="-46.998" r="0.499"/>
  <circle style="fill-rule:evenodd;clip-rule:evenodd;fill:#EC008C;" cx="10.994" cy="-46.998" r="0.499"/>
  <circle style="fill-rule:evenodd;clip-rule:evenodd;fill:#EC008C;" cx="14.994" cy="-46.998" r="0.499"/>
  <circle style="fill-rule:evenodd;clip-rule:evenodd;fill:#EC008C;" cx="18.994" cy="-46.998" r="0.499"/>
  <circle style="fill-rule:evenodd;clip-rule:evenodd;fill:#EC008C;" cx="22.994" cy="-46.998" r="0.499"/>
  <circle style="fill-rule:evenodd;clip-rule:evenodd;fill:#EC008C;" cx="26.994" cy="-46.998" r="0.499"/>
  <circle style="fill-rule:evenodd;clip-rule:evenodd;fill:#EC008C;" cx="30.994" cy="-46.998" r="0.499"/>
  <circle style="fill-rule:evenodd;clip-rule:evenodd;fill:#EC008C;" cx="34.994" cy="-46.998" r="0.499"/>
  <circle style="fill-rule:evenodd;clip-rule:evenodd;fill:#EC008C;" cx="38.994" cy="-46.998" r="0.499"/>
  <circle style="fill-rule:evenodd;clip-rule:evenodd;fill:#EC008C;" cx="42.994" cy="-46.998" r="0.499"/>
  <circle style="fill-rule:evenodd;clip-rule:evenodd;fill:#EC008C;" cx="46.994" cy="-46.998" r="0.499"/>
  <circle style="fill-rule:evenodd;clip-rule:evenodd;fill:#EC008C;" cx="50.994" cy="-46.998" r="0.499"/>
  <circle style="fill-rule:evenodd;clip-rule:evenodd;fill:#EC008C;" cx="54.994" cy="-46.998" r="0.499"/>
  <circle style="fill-rule:evenodd;clip-rule:evenodd;fill:#EC008C;" cx="2.994" cy="-42.998" r="0.499"/>
  <circle style="fill-rule:evenodd;clip-rule:evenodd;fill:#EC008C;" cx="6.994" cy="-42.998" r="0.499"/>
  <circle style="fill-rule:evenodd;clip-rule:evenodd;fill:#EC008C;" cx="10.994" cy="-42.998" r="0.499"/>
  <circle style="fill-rule:evenodd;clip-rule:evenodd;fill:#EC008C;" cx="14.994" cy="-42.998" r="0.499"/>
  <circle style="fill-rule:evenodd;clip-rule:evenodd;fill:#EC008C;" cx="18.994" cy="-42.998" r="0.499"/>
  <circle style="fill-rule:evenodd;clip-rule:evenodd;fill:#EC008C;" cx="22.994" cy="-42.998" r="0.499"/>
  <circle style="fill-rule:evenodd;clip-rule:evenodd;fill:#EC008C;" cx="26.994" cy="-42.998" r="0.499"/>
  <circle style="fill-rule:evenodd;clip-rule:evenodd;fill:#EC008C;" cx="30.994" cy="-42.998" r="0.499"/>
  <circle style="fill-rule:evenodd;clip-rule:evenodd;fill:#EC008C;" cx="34.994" cy="-42.998" r="0.499"/>
  <circle style="fill-rule:evenodd;clip-rule:evenodd;fill:#EC008C;" cx="38.994" cy="-42.998" r="0.499"/>
  <circle style="fill-rule:evenodd;clip-rule:evenodd;fill:#EC008C;" cx="42.994" cy="-42.998" r="0.499"/>
  <circle style="fill-rule:evenodd;clip-rule:evenodd;fill:#EC008C;" cx="46.994" cy="-42.998" r="0.499"/>
  <circle style="fill-rule:evenodd;clip-rule:evenodd;fill:#EC008C;" cx="50.994" cy="-42.998" r="0.499"/>
  <circle style="fill-rule:evenodd;clip-rule:evenodd;fill:#EC008C;" cx="54.994" cy="-42.998" r="0.499"/>
  <circle style="fill-rule:evenodd;clip-rule:evenodd;fill:#EC008C;" cx="2.994" cy="-39.061" r="0.499"/>
  <circle style="fill-rule:evenodd;clip-rule:evenodd;fill:#EC008C;" cx="6.994" cy="-39.061" r="0.499"/>
  <circle style="fill-rule:evenodd;clip-rule:evenodd;fill:#EC008C;" cx="10.994" cy="-39.061" r="0.499"/>
  <circle style="fill-rule:evenodd;clip-rule:evenodd;fill:#EC008C;" cx="14.994" cy="-39.061" r="0.499"/>
  <circle style="fill-rule:evenodd;clip-rule:evenodd;fill:#EC008C;" cx="18.994" cy="-39.061" r="0.499"/>
  <circle style="fill-rule:evenodd;clip-rule:evenodd;fill:#EC008C;" cx="22.994" cy="-39.061" r="0.499"/>
  <circle style="fill-rule:evenodd;clip-rule:evenodd;fill:#EC008C;" cx="26.994" cy="-39.061" r="0.499"/>
  <circle style="fill-rule:evenodd;clip-rule:evenodd;fill:#EC008C;" cx="30.994" cy="-39.061" r="0.499"/>
  <circle style="fill-rule:evenodd;clip-rule:evenodd;fill:#EC008C;" cx="34.994" cy="-39.061" r="0.499"/>
  <circle style="fill:#EC008C;" cx="38.994" cy="-39.061" r="0.499"/>
  <circle style="fill-rule:evenodd;clip-rule:evenodd;fill:#EC008C;" cx="42.994" cy="-39.061" r="0.499"/>
  <circle style="fill-rule:evenodd;clip-rule:evenodd;fill:#EC008C;" cx="46.994" cy="-39.061" r="0.499"/>
  <circle style="fill-rule:evenodd;clip-rule:evenodd;fill:#EC008C;" cx="50.994" cy="-39.061" r="0.499"/>
  <circle style="fill-rule:evenodd;clip-rule:evenodd;fill:#EC008C;" cx="54.994" cy="-39.061" r="0.499"/>
  <circle style="fill-rule:evenodd;clip-rule:evenodd;fill:#EC008C;" cx="2.994" cy="-34.977" r="0.499"/>
  <circle style="fill-rule:evenodd;clip-rule:evenodd;fill:#EC008C;" cx="6.994" cy="-34.977" r="0.499"/>
  <circle style="fill-rule:evenodd;clip-rule:evenodd;fill:#EC008C;" cx="10.994" cy="-34.977" r="0.499"/>
  <circle style="fill-rule:evenodd;clip-rule:evenodd;fill:#EC008C;" cx="14.994" cy="-34.977" r="0.499"/>
  <circle style="fill-rule:evenodd;clip-rule:evenodd;fill:#EC008C;" cx="18.994" cy="-34.977" r="0.499"/>
  <circle style="fill-rule:evenodd;clip-rule:evenodd;fill:#EC008C;" cx="22.994" cy="-34.977" r="0.499"/>
  <circle style="fill-rule:evenodd;clip-rule:evenodd;fill:#EC008C;" cx="26.994" cy="-34.977" r="0.499"/>
  <circle style="fill-rule:evenodd;clip-rule:evenodd;fill:#EC008C;" cx="30.994" cy="-34.977" r="0.499"/>
  <circle style="fill-rule:evenodd;clip-rule:evenodd;fill:#EC008C;" cx="34.994" cy="-34.977" r="0.499"/>
  <circle style="fill-rule:evenodd;clip-rule:evenodd;fill:#EC008C;" cx="38.994" cy="-34.977" r="0.499"/>
  <circle style="fill-rule:evenodd;clip-rule:evenodd;fill:#EC008C;" cx="42.994" cy="-34.977" r="0.499"/>
  <circle style="fill-rule:evenodd;clip-rule:evenodd;fill:#EC008C;" cx="46.994" cy="-34.977" r="0.499"/>
  <circle style="fill-rule:evenodd;clip-rule:evenodd;fill:#EC008C;" cx="50.994" cy="-34.977" r="0.499"/>
  <circle style="fill-rule:evenodd;clip-rule:evenodd;fill:#EC008C;" cx="54.994" cy="-34.977" r="0.499"/>
  <circle style="fill-rule:evenodd;clip-rule:evenodd;fill:#EC008C;" cx="2.994" cy="-30.977" r="0.499"/>
  <circle style="fill-rule:evenodd;clip-rule:evenodd;fill:#EC008C;" cx="6.994" cy="-30.977" r="0.499"/>
  <circle style="fill-rule:evenodd;clip-rule:evenodd;fill:#EC008C;" cx="10.994" cy="-30.977" r="0.499"/>
  <circle style="fill-rule:evenodd;clip-rule:evenodd;fill:#EC008C;" cx="14.994" cy="-30.977" r="0.499"/>
  <circle style="fill-rule:evenodd;clip-rule:evenodd;fill:#EC008C;" cx="18.994" cy="-30.977" r="0.499"/>
  <circle style="fill-rule:evenodd;clip-rule:evenodd;fill:#EC008C;" cx="22.994" cy="-30.977" r="0.499"/>
  <circle style="fill-rule:evenodd;clip-rule:evenodd;fill:#EC008C;" cx="26.994" cy="-30.977" r="0.499"/>
  <circle style="fill-rule:evenodd;clip-rule:evenodd;fill:#EC008C;" cx="30.994" cy="-30.977" r="0.499"/>
  <circle style="fill-rule:evenodd;clip-rule:evenodd;fill:#EC008C;" cx="34.994" cy="-30.977" r="0.499"/>
  <circle style="fill-rule:evenodd;clip-rule:evenodd;fill:#EC008C;" cx="38.994" cy="-30.977" r="0.499"/>
  <circle style="fill-rule:evenodd;clip-rule:evenodd;fill:#EC008C;" cx="42.994" cy="-30.977" r="0.499"/>
  <circle style="fill-rule:evenodd;clip-rule:evenodd;fill:#EC008C;" cx="46.994" cy="-30.977" r="0.499"/>
  <circle style="fill-rule:evenodd;clip-rule:evenodd;fill:#EC008C;" cx="50.994" cy="-30.977" r="0.499"/>
  <circle style="fill-rule:evenodd;clip-rule:evenodd;fill:#EC008C;" cx="54.994" cy="-30.977" r="0.499"/>
  <circle style="fill-rule:evenodd;clip-rule:evenodd;fill:#EC008C;" cx="2.994" cy="-26.977" r="0.499"/>
  <circle style="fill-rule:evenodd;clip-rule:evenodd;fill:#EC008C;" cx="6.994" cy="-26.977" r="0.499"/>
  <circle style="fill-rule:evenodd;clip-rule:evenodd;fill:#EC008C;" cx="10.994" cy="-26.977" r="0.499"/>
  <circle style="fill-rule:evenodd;clip-rule:evenodd;fill:#EC008C;" cx="14.994" cy="-26.977" r="0.499"/>
  <circle style="fill-rule:evenodd;clip-rule:evenodd;fill:#EC008C;" cx="18.994" cy="-26.977" r="0.499"/>
  <circle style="fill-rule:evenodd;clip-rule:evenodd;fill:#EC008C;" cx="22.994" cy="-26.977" r="0.499"/>
  <circle style="fill-rule:evenodd;clip-rule:evenodd;fill:#EC008C;" cx="26.994" cy="-26.977" r="0.499"/>
  <circle style="fill-rule:evenodd;clip-rule:evenodd;fill:#EC008C;" cx="30.994" cy="-26.977" r="0.499"/>
  <circle style="fill-rule:evenodd;clip-rule:evenodd;fill:#EC008C;" cx="34.994" cy="-26.977" r="0.499"/>
  <circle style="fill-rule:evenodd;clip-rule:evenodd;fill:#EC008C;" cx="38.994" cy="-26.977" r="0.499"/>
  <circle style="fill-rule:evenodd;clip-rule:evenodd;fill:#EC008C;" cx="42.994" cy="-26.977" r="0.499"/>
  <circle style="fill-rule:evenodd;clip-rule:evenodd;fill:#EC008C;" cx="46.994" cy="-26.977" r="0.499"/>
  <circle style="fill:#EC008C;" cx="50.994" cy="-26.977" r="0.499"/>
  <circle style="fill-rule:evenodd;clip-rule:evenodd;fill:#EC008C;" cx="54.994" cy="-26.977" r="0.499"/>
  <circle style="fill-rule:evenodd;clip-rule:evenodd;fill:#EC008C;" cx="2.994" cy="-22.977" r="0.499"/>
  <circle style="fill-rule:evenodd;clip-rule:evenodd;fill:#EC008C;" cx="6.994" cy="-22.977" r="0.499"/>
  <circle style="fill-rule:evenodd;clip-rule:evenodd;fill:#EC008C;" cx="10.994" cy="-22.977" r="0.499"/>
  <circle style="fill:#EC008C;" cx="14.994" cy="-22.977" r="0.499"/>
  <circle style="fill-rule:evenodd;clip-rule:evenodd;fill:#EC008C;" cx="18.994" cy="-22.977" r="0.499"/>
  <circle style="fill-rule:evenodd;clip-rule:evenodd;fill:#EC008C;" cx="22.994" cy="-22.977" r="0.499"/>
  <circle style="fill-rule:evenodd;clip-rule:evenodd;fill:#EC008C;" cx="26.994" cy="-22.977" r="0.499"/>
  <circle style="fill-rule:evenodd;clip-rule:evenodd;fill:#EC008C;" cx="30.994" cy="-22.977" r="0.499"/>
  <circle style="fill-rule:evenodd;clip-rule:evenodd;fill:#EC008C;" cx="34.994" cy="-22.977" r="0.499"/>
  <circle style="fill-rule:evenodd;clip-rule:evenodd;fill:#EC008C;" cx="38.994" cy="-22.977" r="0.499"/>
  <circle style="fill-rule:evenodd;clip-rule:evenodd;fill:#EC008C;" cx="42.994" cy="-22.977" r="0.499"/>
  <circle style="fill-rule:evenodd;clip-rule:evenodd;fill:#EC008C;" cx="46.994" cy="-22.977" r="0.499"/>
  <circle style="fill-rule:evenodd;clip-rule:evenodd;fill:#EC008C;" cx="50.994" cy="-22.977" r="0.499"/>
  <circle style="fill-rule:evenodd;clip-rule:evenodd;fill:#EC008C;" cx="54.994" cy="-22.977" r="0.499"/>
  <circle style="fill-rule:evenodd;clip-rule:evenodd;fill:#EC008C;" cx="2.994" cy="-18.977" r="0.499"/>
  <circle style="fill-rule:evenodd;clip-rule:evenodd;fill:#EC008C;" cx="6.994" cy="-18.977" r="0.499"/>
  <circle style="fill-rule:evenodd;clip-rule:evenodd;fill:#EC008C;" cx="10.994" cy="-18.977" r="0.499"/>
  <circle style="fill-rule:evenodd;clip-rule:evenodd;fill:#EC008C;" cx="14.994" cy="-18.977" r="0.499"/>
  <circle style="fill-rule:evenodd;clip-rule:evenodd;fill:#EC008C;" cx="18.994" cy="-18.977" r="0.499"/>
  <circle style="fill-rule:evenodd;clip-rule:evenodd;fill:#EC008C;" cx="22.994" cy="-18.977" r="0.499"/>
  <circle style="fill-rule:evenodd;clip-rule:evenodd;fill:#EC008C;" cx="26.994" cy="-18.977" r="0.499"/>
  <circle style="fill-rule:evenodd;clip-rule:evenodd;fill:#EC008C;" cx="30.994" cy="-18.977" r="0.499"/>
  <circle style="fill-rule:evenodd;clip-rule:evenodd;fill:#EC008C;" cx="34.994" cy="-18.977" r="0.499"/>
  <circle style="fill-rule:evenodd;clip-rule:evenodd;fill:#EC008C;" cx="38.994" cy="-18.977" r="0.499"/>
  <circle style="fill-rule:evenodd;clip-rule:evenodd;fill:#EC008C;" cx="42.994" cy="-18.977" r="0.499"/>
  <circle style="fill-rule:evenodd;clip-rule:evenodd;fill:#EC008C;" cx="46.994" cy="-18.977" r="0.499"/>
  <circle style="fill-rule:evenodd;clip-rule:evenodd;fill:#EC008C;" cx="50.994" cy="-18.977" r="0.499"/>
  <circle style="fill-rule:evenodd;clip-rule:evenodd;fill:#EC008C;" cx="54.994" cy="-18.977" r="0.499"/>
  <circle style="fill:#EC008C;" cx="2.994" cy="-14.977" r="0.499"/>
  <circle style="fill-rule:evenodd;clip-rule:evenodd;fill:#EC008C;" cx="6.994" cy="-14.977" r="0.499"/>
  <circle style="fill-rule:evenodd;clip-rule:evenodd;fill:#EC008C;" cx="10.994" cy="-14.977" r="0.499"/>
  <circle style="fill-rule:evenodd;clip-rule:evenodd;fill:#EC008C;" cx="14.994" cy="-14.977" r="0.499"/>
  <circle style="fill-rule:evenodd;clip-rule:evenodd;fill:#EC008C;" cx="18.994" cy="-14.977" r="0.499"/>
  <circle style="fill-rule:evenodd;clip-rule:evenodd;fill:#EC008C;" cx="22.994" cy="-14.977" r="0.499"/>
  <circle style="fill-rule:evenodd;clip-rule:evenodd;fill:#EC008C;" cx="26.994" cy="-14.977" r="0.499"/>
  <circle style="fill:#EC008C;" cx="30.994" cy="-14.977" r="0.499"/>
  <circle style="fill-rule:evenodd;clip-rule:evenodd;fill:#EC008C;" cx="34.994" cy="-14.977" r="0.499"/>
  <circle style="fill-rule:evenodd;clip-rule:evenodd;fill:#EC008C;" cx="38.994" cy="-14.977" r="0.499"/>
  <circle style="fill-rule:evenodd;clip-rule:evenodd;fill:#EC008C;" cx="42.994" cy="-14.977" r="0.499"/>
  <circle style="fill-rule:evenodd;clip-rule:evenodd;fill:#EC008C;" cx="46.994" cy="-14.977" r="0.499"/>
  <circle style="fill-rule:evenodd;clip-rule:evenodd;fill:#EC008C;" cx="50.994" cy="-14.977" r="0.499"/>
  <circle style="fill-rule:evenodd;clip-rule:evenodd;fill:#EC008C;" cx="54.994" cy="-14.977" r="0.499"/>
  <circle style="fill-rule:evenodd;clip-rule:evenodd;fill:#EC008C;" cx="2.994" cy="-10.977" r="0.499"/>
  <circle style="fill-rule:evenodd;clip-rule:evenodd;fill:#EC008C;" cx="6.994" cy="-10.977" r="0.499"/>
  <circle style="fill-rule:evenodd;clip-rule:evenodd;fill:#EC008C;" cx="10.994" cy="-10.977" r="0.499"/>
  <circle style="fill-rule:evenodd;clip-rule:evenodd;fill:#EC008C;" cx="14.994" cy="-10.977" r="0.499"/>
  <circle style="fill:#EC008C;" cx="18.994" cy="-10.977" r="0.499"/>
  <circle style="fill-rule:evenodd;clip-rule:evenodd;fill:#EC008C;" cx="22.994" cy="-10.977" r="0.499"/>
  <circle style="fill-rule:evenodd;clip-rule:evenodd;fill:#EC008C;" cx="26.994" cy="-10.977" r="0.499"/>
  <circle style="fill-rule:evenodd;clip-rule:evenodd;fill:#EC008C;" cx="30.994" cy="-10.977" r="0.499"/>
  <circle style="fill-rule:evenodd;clip-rule:evenodd;fill:#EC008C;" cx="34.994" cy="-10.977" r="0.499"/>
  <circle style="fill-rule:evenodd;clip-rule:evenodd;fill:#EC008C;" cx="38.994" cy="-10.977" r="0.499"/>
  <circle style="fill-rule:evenodd;clip-rule:evenodd;fill:#EC008C;" cx="42.994" cy="-10.977" r="0.499"/>
  <circle style="fill-rule:evenodd;clip-rule:evenodd;fill:#EC008C;" cx="46.994" cy="-10.977" r="0.499"/>
  <circle style="fill-rule:evenodd;clip-rule:evenodd;fill:#EC008C;" cx="50.994" cy="-10.977" r="0.499"/>
  <circle style="fill-rule:evenodd;clip-rule:evenodd;fill:#EC008C;" cx="54.994" cy="-10.977" r="0.499"/>
  <circle style="fill-rule:evenodd;clip-rule:evenodd;fill:#EC008C;" cx="2.994" cy="-6.977" r="0.499"/>
  <circle style="fill-rule:evenodd;clip-rule:evenodd;fill:#EC008C;" cx="6.994" cy="-6.977" r="0.499"/>
  <circle style="fill-rule:evenodd;clip-rule:evenodd;fill:#EC008C;" cx="10.994" cy="-6.977" r="0.499"/>
  <circle style="fill-rule:evenodd;clip-rule:evenodd;fill:#EC008C;" cx="14.994" cy="-6.977" r="0.499"/>
  <circle style="fill-rule:evenodd;clip-rule:evenodd;fill:#EC008C;" cx="18.994" cy="-6.977" r="0.499"/>
  <circle style="fill-rule:evenodd;clip-rule:evenodd;fill:#EC008C;" cx="22.994" cy="-6.977" r="0.499"/>
  <circle style="fill-rule:evenodd;clip-rule:evenodd;fill:#EC008C;" cx="26.994" cy="-6.977" r="0.499"/>
  <circle style="fill-rule:evenodd;clip-rule:evenodd;fill:#EC008C;" cx="30.994" cy="-6.977" r="0.499"/>
  <circle style="fill-rule:evenodd;clip-rule:evenodd;fill:#EC008C;" cx="34.994" cy="-6.977" r="0.499"/>
  <circle style="fill-rule:evenodd;clip-rule:evenodd;fill:#EC008C;" cx="38.994" cy="-6.977" r="0.499"/>
  <circle style="fill-rule:evenodd;clip-rule:evenodd;fill:#EC008C;" cx="42.994" cy="-6.977" r="0.499"/>
  <circle style="fill-rule:evenodd;clip-rule:evenodd;fill:#EC008C;" cx="46.994" cy="-6.977" r="0.499"/>
  <circle style="fill-rule:evenodd;clip-rule:evenodd;fill:#EC008C;" cx="50.994" cy="-6.977" r="0.499"/>
  <circle style="fill-rule:evenodd;clip-rule:evenodd;fill:#EC008C;" cx="54.994" cy="-6.977" r="0.499"/>
  <circle style="fill-rule:evenodd;clip-rule:evenodd;fill:#EC008C;" cx="2.994" cy="-2.977" r="0.499"/>
  <circle style="fill-rule:evenodd;clip-rule:evenodd;fill:#EC008C;" cx="6.994" cy="-2.977" r="0.499"/>
  <circle style="fill-rule:evenodd;clip-rule:evenodd;fill:#EC008C;" cx="10.994" cy="-2.977" r="0.499"/>
  <circle style="fill-rule:evenodd;clip-rule:evenodd;fill:#EC008C;" cx="14.994" cy="-2.977" r="0.499"/>
  <circle style="fill-rule:evenodd;clip-rule:evenodd;fill:#EC008C;" cx="18.994" cy="-2.977" r="0.499"/>
  <circle style="fill-rule:evenodd;clip-rule:evenodd;fill:#EC008C;" cx="22.994" cy="-2.977" r="0.499"/>
  <circle style="fill-rule:evenodd;clip-rule:evenodd;fill:#EC008C;" cx="26.994" cy="-2.977" r="0.499"/>
  <circle style="fill-rule:evenodd;clip-rule:evenodd;fill:#EC008C;" cx="30.994" cy="-2.977" r="0.499"/>
  <circle style="fill-rule:evenodd;clip-rule:evenodd;fill:#EC008C;" cx="34.994" cy="-2.977" r="0.499"/>
  <circle style="fill-rule:evenodd;clip-rule:evenodd;fill:#EC008C;" cx="38.994" cy="-2.977" r="0.499"/>
  <circle style="fill-rule:evenodd;clip-rule:evenodd;fill:#EC008C;" cx="42.994" cy="-2.977" r="0.499"/>
  <circle style="fill-rule:evenodd;clip-rule:evenodd;fill:#EC008C;" cx="46.994" cy="-2.977" r="0.499"/>
  <circle style="fill-rule:evenodd;clip-rule:evenodd;fill:#EC008C;" cx="50.994" cy="-2.977" r="0.499"/>
  <circle style="fill-rule:evenodd;clip-rule:evenodd;fill:#EC008C;" cx="54.994" cy="-2.977" r="0.499"/>
 </g>
</svg>
