<?xml version="1.0"?>
<!-- Converted with SVG Converter - Version 0.9.5 (Compiled Fri Feb 21 09:53:38 2020) - Copyright (C) 2011 Nokia -->
<svg xmlns="http://www.w3.org/2000/svg" xml:space="preserve" xmlns:xlink="http://www.w3.org/1999/xlink" height="56.016" width="56" baseProfile="tiny" y="0px" x="0px" version="1.1" viewBox="1 -57.016 56 56.016">
 <g>
  <rect height="56.016" width="56" y="-57.016" x="1" style="fill:none;"/>
  <rect height="56.016" width="56" y="-57.016" x="1"/>
  <circle cx="2.994" style="fill-rule:evenodd;clip-rule:evenodd;fill:#FFFFFF;" cy="-54.977" r="0.499"/>
  <circle cx="6.994" style="fill-rule:evenodd;clip-rule:evenodd;fill:#FFFFFF;" cy="-54.977" r="0.499"/>
  <circle cx="10.994" style="fill-rule:evenodd;clip-rule:evenodd;fill:#FFFFFF;" cy="-54.977" r="0.499"/>
  <circle cx="14.994" style="fill-rule:evenodd;clip-rule:evenodd;fill:#FFFFFF;" cy="-54.977" r="0.499"/>
  <circle cx="18.994" style="fill-rule:evenodd;clip-rule:evenodd;fill:#FFFFFF;" cy="-54.977" r="0.499"/>
  <circle cx="22.994" style="fill-rule:evenodd;clip-rule:evenodd;fill:#FFFFFF;" cy="-54.977" r="0.499"/>
  <circle cx="26.994" style="fill-rule:evenodd;clip-rule:evenodd;fill:#FFFFFF;" cy="-54.977" r="0.499"/>
  <circle cx="30.994" style="fill-rule:evenodd;clip-rule:evenodd;fill:#FFFFFF;" cy="-54.977" r="0.499"/>
  <circle cx="34.994" style="fill-rule:evenodd;clip-rule:evenodd;fill:#FFFFFF;" cy="-54.977" r="0.499"/>
  <circle cx="38.994" style="fill-rule:evenodd;clip-rule:evenodd;fill:#FFFFFF;" cy="-54.977" r="0.499"/>
  <circle cx="42.994" style="fill-rule:evenodd;clip-rule:evenodd;fill:#FFFFFF;" cy="-54.977" r="0.499"/>
  <circle cx="46.994" style="fill-rule:evenodd;clip-rule:evenodd;fill:#FFFFFF;" cy="-54.977" r="0.499"/>
  <circle cx="50.994" style="fill-rule:evenodd;clip-rule:evenodd;fill:#FFFFFF;" cy="-54.977" r="0.499"/>
  <circle cx="54.994" style="fill-rule:evenodd;clip-rule:evenodd;fill:#FFFFFF;" cy="-54.977" r="0.499"/>
  <circle cx="2.994" style="fill-rule:evenodd;clip-rule:evenodd;fill:#FFFFFF;" cy="-50.998" r="0.499"/>
  <circle cx="6.994" style="fill-rule:evenodd;clip-rule:evenodd;fill:#FFFFFF;" cy="-50.998" r="0.499"/>
  <circle cx="10.994" style="fill-rule:evenodd;clip-rule:evenodd;fill:#FFFFFF;" cy="-50.998" r="0.499"/>
  <circle cx="14.994" style="fill-rule:evenodd;clip-rule:evenodd;fill:#FFFFFF;" cy="-50.998" r="0.499"/>
  <circle cx="18.994" style="fill-rule:evenodd;clip-rule:evenodd;fill:#FFFFFF;" cy="-50.998" r="0.499"/>
  <circle cx="22.994" style="fill-rule:evenodd;clip-rule:evenodd;fill:#FFFFFF;" cy="-50.998" r="0.499"/>
  <circle cx="26.994" style="fill-rule:evenodd;clip-rule:evenodd;fill:#FFFFFF;" cy="-50.998" r="0.499"/>
  <circle cx="30.994" style="fill-rule:evenodd;clip-rule:evenodd;fill:#FFFFFF;" cy="-50.998" r="0.499"/>
  <circle cx="34.994" style="fill-rule:evenodd;clip-rule:evenodd;fill:#FFFFFF;" cy="-50.998" r="0.499"/>
  <circle cx="38.994" style="fill-rule:evenodd;clip-rule:evenodd;fill:#FFFFFF;" cy="-50.998" r="0.499"/>
  <circle cx="42.994" style="fill-rule:evenodd;clip-rule:evenodd;fill:#FFFFFF;" cy="-50.998" r="0.499"/>
  <circle cx="46.994" style="fill-rule:evenodd;clip-rule:evenodd;fill:#FFFFFF;" cy="-50.998" r="0.499"/>
  <circle cx="50.994" style="fill-rule:evenodd;clip-rule:evenodd;fill:#FFFFFF;" cy="-50.998" r="0.499"/>
  <circle cx="54.994" style="fill-rule:evenodd;clip-rule:evenodd;fill:#FFFFFF;" cy="-50.998" r="0.499"/>
  <circle cx="2.994" style="fill-rule:evenodd;clip-rule:evenodd;fill:#FFFFFF;" cy="-46.998" r="0.499"/>
  <circle cx="6.994" style="fill-rule:evenodd;clip-rule:evenodd;fill:#FFFFFF;" cy="-46.998" r="0.499"/>
  <circle cx="10.994" style="fill-rule:evenodd;clip-rule:evenodd;fill:#FFFFFF;" cy="-46.998" r="0.499"/>
  <circle cx="14.994" style="fill-rule:evenodd;clip-rule:evenodd;fill:#FFFFFF;" cy="-46.998" r="0.499"/>
  <circle cx="18.994" style="fill-rule:evenodd;clip-rule:evenodd;fill:#FFFFFF;" cy="-46.998" r="0.499"/>
  <circle cx="22.994" style="fill-rule:evenodd;clip-rule:evenodd;fill:#FFFFFF;" cy="-46.998" r="0.499"/>
  <circle cx="26.994" style="fill-rule:evenodd;clip-rule:evenodd;fill:#FFFFFF;" cy="-46.998" r="0.499"/>
  <circle cx="30.994" style="fill-rule:evenodd;clip-rule:evenodd;fill:#FFFFFF;" cy="-46.998" r="0.499"/>
  <circle cx="34.994" style="fill-rule:evenodd;clip-rule:evenodd;fill:#FFFFFF;" cy="-46.998" r="0.499"/>
  <circle cx="38.994" style="fill-rule:evenodd;clip-rule:evenodd;fill:#FFFFFF;" cy="-46.998" r="0.499"/>
  <circle cx="42.994" style="fill-rule:evenodd;clip-rule:evenodd;fill:#FFFFFF;" cy="-46.998" r="0.499"/>
  <circle cx="46.994" style="fill-rule:evenodd;clip-rule:evenodd;fill:#FFFFFF;" cy="-46.998" r="0.499"/>
  <circle cx="50.994" style="fill-rule:evenodd;clip-rule:evenodd;fill:#FFFFFF;" cy="-46.998" r="0.499"/>
  <circle cx="54.994" style="fill-rule:evenodd;clip-rule:evenodd;fill:#FFFFFF;" cy="-46.998" r="0.499"/>
  <circle cx="2.994" style="fill-rule:evenodd;clip-rule:evenodd;fill:#FFFFFF;" cy="-42.998" r="0.499"/>
  <circle cx="6.994" style="fill-rule:evenodd;clip-rule:evenodd;fill:#FFFFFF;" cy="-42.998" r="0.499"/>
  <circle cx="10.994" style="fill-rule:evenodd;clip-rule:evenodd;fill:#FFFFFF;" cy="-42.998" r="0.499"/>
  <circle cx="14.994" style="fill-rule:evenodd;clip-rule:evenodd;fill:#FFFFFF;" cy="-42.998" r="0.499"/>
  <circle cx="18.994" style="fill-rule:evenodd;clip-rule:evenodd;fill:#FFFFFF;" cy="-42.998" r="0.499"/>
  <circle cx="22.994" style="fill-rule:evenodd;clip-rule:evenodd;fill:#FFFFFF;" cy="-42.998" r="0.499"/>
  <circle cx="26.994" style="fill-rule:evenodd;clip-rule:evenodd;fill:#FFFFFF;" cy="-42.998" r="0.499"/>
  <circle cx="30.994" style="fill-rule:evenodd;clip-rule:evenodd;fill:#FFFFFF;" cy="-42.998" r="0.499"/>
  <circle cx="34.994" style="fill-rule:evenodd;clip-rule:evenodd;fill:#FFFFFF;" cy="-42.998" r="0.499"/>
  <circle cx="38.994" style="fill-rule:evenodd;clip-rule:evenodd;fill:#FFFFFF;" cy="-42.998" r="0.499"/>
  <circle cx="42.994" style="fill-rule:evenodd;clip-rule:evenodd;fill:#FFFFFF;" cy="-42.998" r="0.499"/>
  <circle cx="46.994" style="fill-rule:evenodd;clip-rule:evenodd;fill:#FFFFFF;" cy="-42.998" r="0.499"/>
  <circle cx="50.994" style="fill-rule:evenodd;clip-rule:evenodd;fill:#FFFFFF;" cy="-42.998" r="0.499"/>
  <circle cx="54.994" style="fill-rule:evenodd;clip-rule:evenodd;fill:#FFFFFF;" cy="-42.998" r="0.499"/>
  <circle cx="2.994" style="fill-rule:evenodd;clip-rule:evenodd;fill:#FFFFFF;" cy="-39.061" r="0.499"/>
  <circle cx="6.994" style="fill-rule:evenodd;clip-rule:evenodd;fill:#FFFFFF;" cy="-39.061" r="0.499"/>
  <circle cx="10.994" style="fill-rule:evenodd;clip-rule:evenodd;fill:#FFFFFF;" cy="-39.061" r="0.499"/>
  <circle cx="14.994" style="fill-rule:evenodd;clip-rule:evenodd;fill:#FFFFFF;" cy="-39.061" r="0.499"/>
  <circle cx="18.994" style="fill-rule:evenodd;clip-rule:evenodd;fill:#FFFFFF;" cy="-39.061" r="0.499"/>
  <circle cx="22.994" style="fill-rule:evenodd;clip-rule:evenodd;fill:#FFFFFF;" cy="-39.061" r="0.499"/>
  <circle cx="26.994" style="fill-rule:evenodd;clip-rule:evenodd;fill:#FFFFFF;" cy="-39.061" r="0.499"/>
  <circle cx="30.994" style="fill-rule:evenodd;clip-rule:evenodd;fill:#FFFFFF;" cy="-39.061" r="0.499"/>
  <circle cx="34.994" style="fill-rule:evenodd;clip-rule:evenodd;fill:#FFFFFF;" cy="-39.061" r="0.499"/>
  <circle cx="38.994" style="fill:#FFFFFF;" cy="-39.061" r="0.499"/>
  <circle cx="42.994" style="fill-rule:evenodd;clip-rule:evenodd;fill:#FFFFFF;" cy="-39.061" r="0.499"/>
  <circle cx="46.994" style="fill-rule:evenodd;clip-rule:evenodd;fill:#FFFFFF;" cy="-39.061" r="0.499"/>
  <circle cx="50.994" style="fill-rule:evenodd;clip-rule:evenodd;fill:#FFFFFF;" cy="-39.061" r="0.499"/>
  <circle cx="54.994" style="fill-rule:evenodd;clip-rule:evenodd;fill:#FFFFFF;" cy="-39.061" r="0.499"/>
  <circle cx="2.994" style="fill-rule:evenodd;clip-rule:evenodd;fill:#FFFFFF;" cy="-34.977" r="0.499"/>
  <circle cx="6.994" style="fill-rule:evenodd;clip-rule:evenodd;fill:#FFFFFF;" cy="-34.977" r="0.499"/>
  <circle cx="10.994" style="fill-rule:evenodd;clip-rule:evenodd;fill:#FFFFFF;" cy="-34.977" r="0.499"/>
  <circle cx="14.994" style="fill-rule:evenodd;clip-rule:evenodd;fill:#FFFFFF;" cy="-34.977" r="0.499"/>
  <circle cx="18.994" style="fill-rule:evenodd;clip-rule:evenodd;fill:#FFFFFF;" cy="-34.977" r="0.499"/>
  <circle cx="22.994" style="fill-rule:evenodd;clip-rule:evenodd;fill:#FFFFFF;" cy="-34.977" r="0.499"/>
  <circle cx="26.994" style="fill-rule:evenodd;clip-rule:evenodd;fill:#FFFFFF;" cy="-34.977" r="0.499"/>
  <circle cx="30.994" style="fill-rule:evenodd;clip-rule:evenodd;fill:#FFFFFF;" cy="-34.977" r="0.499"/>
  <circle cx="34.994" style="fill-rule:evenodd;clip-rule:evenodd;fill:#FFFFFF;" cy="-34.977" r="0.499"/>
  <circle cx="38.994" style="fill-rule:evenodd;clip-rule:evenodd;fill:#FFFFFF;" cy="-34.977" r="0.499"/>
  <circle cx="42.994" style="fill-rule:evenodd;clip-rule:evenodd;fill:#FFFFFF;" cy="-34.977" r="0.499"/>
  <circle cx="46.994" style="fill-rule:evenodd;clip-rule:evenodd;fill:#FFFFFF;" cy="-34.977" r="0.499"/>
  <circle cx="50.994" style="fill-rule:evenodd;clip-rule:evenodd;fill:#FFFFFF;" cy="-34.977" r="0.499"/>
  <circle cx="54.994" style="fill-rule:evenodd;clip-rule:evenodd;fill:#FFFFFF;" cy="-34.977" r="0.499"/>
  <circle cx="2.994" style="fill-rule:evenodd;clip-rule:evenodd;fill:#FFFFFF;" cy="-30.977" r="0.499"/>
  <circle cx="6.994" style="fill-rule:evenodd;clip-rule:evenodd;fill:#FFFFFF;" cy="-30.977" r="0.499"/>
  <circle cx="10.994" style="fill-rule:evenodd;clip-rule:evenodd;fill:#FFFFFF;" cy="-30.977" r="0.499"/>
  <circle cx="14.994" style="fill-rule:evenodd;clip-rule:evenodd;fill:#FFFFFF;" cy="-30.977" r="0.499"/>
  <circle cx="18.994" style="fill-rule:evenodd;clip-rule:evenodd;fill:#FFFFFF;" cy="-30.977" r="0.499"/>
  <circle cx="22.994" style="fill-rule:evenodd;clip-rule:evenodd;fill:#FFFFFF;" cy="-30.977" r="0.499"/>
  <circle cx="26.994" style="fill-rule:evenodd;clip-rule:evenodd;fill:#FFFFFF;" cy="-30.977" r="0.499"/>
  <circle cx="30.994" style="fill-rule:evenodd;clip-rule:evenodd;fill:#FFFFFF;" cy="-30.977" r="0.499"/>
  <circle cx="34.994" style="fill-rule:evenodd;clip-rule:evenodd;fill:#FFFFFF;" cy="-30.977" r="0.499"/>
  <circle cx="38.994" style="fill-rule:evenodd;clip-rule:evenodd;fill:#FFFFFF;" cy="-30.977" r="0.499"/>
  <circle cx="42.994" style="fill-rule:evenodd;clip-rule:evenodd;fill:#FFFFFF;" cy="-30.977" r="0.499"/>
  <circle cx="46.994" style="fill-rule:evenodd;clip-rule:evenodd;fill:#FFFFFF;" cy="-30.977" r="0.499"/>
  <circle cx="50.994" style="fill-rule:evenodd;clip-rule:evenodd;fill:#FFFFFF;" cy="-30.977" r="0.499"/>
  <circle cx="54.994" style="fill-rule:evenodd;clip-rule:evenodd;fill:#FFFFFF;" cy="-30.977" r="0.499"/>
  <circle cx="2.994" style="fill-rule:evenodd;clip-rule:evenodd;fill:#FFFFFF;" cy="-26.977" r="0.499"/>
  <circle cx="6.994" style="fill-rule:evenodd;clip-rule:evenodd;fill:#FFFFFF;" cy="-26.977" r="0.499"/>
  <circle cx="10.994" style="fill-rule:evenodd;clip-rule:evenodd;fill:#FFFFFF;" cy="-26.977" r="0.499"/>
  <circle cx="14.994" style="fill-rule:evenodd;clip-rule:evenodd;fill:#FFFFFF;" cy="-26.977" r="0.499"/>
  <circle cx="18.994" style="fill-rule:evenodd;clip-rule:evenodd;fill:#FFFFFF;" cy="-26.977" r="0.499"/>
  <circle cx="22.994" style="fill-rule:evenodd;clip-rule:evenodd;fill:#FFFFFF;" cy="-26.977" r="0.499"/>
  <circle cx="26.994" style="fill-rule:evenodd;clip-rule:evenodd;fill:#FFFFFF;" cy="-26.977" r="0.499"/>
  <circle cx="30.994" style="fill-rule:evenodd;clip-rule:evenodd;fill:#FFFFFF;" cy="-26.977" r="0.499"/>
  <circle cx="34.994" style="fill-rule:evenodd;clip-rule:evenodd;fill:#FFFFFF;" cy="-26.977" r="0.499"/>
  <circle cx="38.994" style="fill-rule:evenodd;clip-rule:evenodd;fill:#FFFFFF;" cy="-26.977" r="0.499"/>
  <circle cx="42.994" style="fill-rule:evenodd;clip-rule:evenodd;fill:#FFFFFF;" cy="-26.977" r="0.499"/>
  <circle cx="46.994" style="fill-rule:evenodd;clip-rule:evenodd;fill:#FFFFFF;" cy="-26.977" r="0.499"/>
  <circle cx="50.994" style="fill:#FFFFFF;" cy="-26.977" r="0.499"/>
  <circle cx="54.994" style="fill-rule:evenodd;clip-rule:evenodd;fill:#FFFFFF;" cy="-26.977" r="0.499"/>
  <circle cx="2.994" style="fill-rule:evenodd;clip-rule:evenodd;fill:#FFFFFF;" cy="-22.977" r="0.499"/>
  <circle cx="6.994" style="fill-rule:evenodd;clip-rule:evenodd;fill:#FFFFFF;" cy="-22.977" r="0.499"/>
  <circle cx="10.994" style="fill-rule:evenodd;clip-rule:evenodd;fill:#FFFFFF;" cy="-22.977" r="0.499"/>
  <circle cx="14.994" style="fill:#FFFFFF;" cy="-22.977" r="0.499"/>
  <circle cx="18.994" style="fill-rule:evenodd;clip-rule:evenodd;fill:#FFFFFF;" cy="-22.977" r="0.499"/>
  <circle cx="22.994" style="fill-rule:evenodd;clip-rule:evenodd;fill:#FFFFFF;" cy="-22.977" r="0.499"/>
  <circle cx="26.994" style="fill-rule:evenodd;clip-rule:evenodd;fill:#FFFFFF;" cy="-22.977" r="0.499"/>
  <circle cx="30.994" style="fill-rule:evenodd;clip-rule:evenodd;fill:#FFFFFF;" cy="-22.977" r="0.499"/>
  <circle cx="34.994" style="fill-rule:evenodd;clip-rule:evenodd;fill:#FFFFFF;" cy="-22.977" r="0.499"/>
  <circle cx="38.994" style="fill-rule:evenodd;clip-rule:evenodd;fill:#FFFFFF;" cy="-22.977" r="0.499"/>
  <circle cx="42.994" style="fill-rule:evenodd;clip-rule:evenodd;fill:#FFFFFF;" cy="-22.977" r="0.499"/>
  <circle cx="46.994" style="fill-rule:evenodd;clip-rule:evenodd;fill:#FFFFFF;" cy="-22.977" r="0.499"/>
  <circle cx="50.994" style="fill-rule:evenodd;clip-rule:evenodd;fill:#FFFFFF;" cy="-22.977" r="0.499"/>
  <circle cx="54.994" style="fill-rule:evenodd;clip-rule:evenodd;fill:#FFFFFF;" cy="-22.977" r="0.499"/>
  <circle cx="2.994" style="fill-rule:evenodd;clip-rule:evenodd;fill:#FFFFFF;" cy="-18.977" r="0.499"/>
  <circle cx="6.994" style="fill-rule:evenodd;clip-rule:evenodd;fill:#FFFFFF;" cy="-18.977" r="0.499"/>
  <circle cx="10.994" style="fill-rule:evenodd;clip-rule:evenodd;fill:#FFFFFF;" cy="-18.977" r="0.499"/>
  <circle cx="14.994" style="fill-rule:evenodd;clip-rule:evenodd;fill:#FFFFFF;" cy="-18.977" r="0.499"/>
  <circle cx="18.994" style="fill-rule:evenodd;clip-rule:evenodd;fill:#FFFFFF;" cy="-18.977" r="0.499"/>
  <circle cx="22.994" style="fill-rule:evenodd;clip-rule:evenodd;fill:#FFFFFF;" cy="-18.977" r="0.499"/>
  <circle cx="26.994" style="fill-rule:evenodd;clip-rule:evenodd;fill:#FFFFFF;" cy="-18.977" r="0.499"/>
  <circle cx="30.994" style="fill-rule:evenodd;clip-rule:evenodd;fill:#FFFFFF;" cy="-18.977" r="0.499"/>
  <circle cx="34.994" style="fill-rule:evenodd;clip-rule:evenodd;fill:#FFFFFF;" cy="-18.977" r="0.499"/>
  <circle cx="38.994" style="fill-rule:evenodd;clip-rule:evenodd;fill:#FFFFFF;" cy="-18.977" r="0.499"/>
  <circle cx="42.994" style="fill-rule:evenodd;clip-rule:evenodd;fill:#FFFFFF;" cy="-18.977" r="0.499"/>
  <circle cx="46.994" style="fill-rule:evenodd;clip-rule:evenodd;fill:#FFFFFF;" cy="-18.977" r="0.499"/>
  <circle cx="50.994" style="fill-rule:evenodd;clip-rule:evenodd;fill:#FFFFFF;" cy="-18.977" r="0.499"/>
  <circle cx="54.994" style="fill-rule:evenodd;clip-rule:evenodd;fill:#FFFFFF;" cy="-18.977" r="0.499"/>
  <circle cx="2.994" style="fill:#FFFFFF;" cy="-14.977" r="0.499"/>
  <circle cx="6.994" style="fill-rule:evenodd;clip-rule:evenodd;fill:#FFFFFF;" cy="-14.977" r="0.499"/>
  <circle cx="10.994" style="fill-rule:evenodd;clip-rule:evenodd;fill:#FFFFFF;" cy="-14.977" r="0.499"/>
  <circle cx="14.994" style="fill-rule:evenodd;clip-rule:evenodd;fill:#FFFFFF;" cy="-14.977" r="0.499"/>
  <circle cx="18.994" style="fill-rule:evenodd;clip-rule:evenodd;fill:#FFFFFF;" cy="-14.977" r="0.499"/>
  <circle cx="22.994" style="fill-rule:evenodd;clip-rule:evenodd;fill:#FFFFFF;" cy="-14.977" r="0.499"/>
  <circle cx="26.994" style="fill-rule:evenodd;clip-rule:evenodd;fill:#FFFFFF;" cy="-14.977" r="0.499"/>
  <circle cx="30.994" style="fill:#FFFFFF;" cy="-14.977" r="0.499"/>
  <circle cx="34.994" style="fill-rule:evenodd;clip-rule:evenodd;fill:#FFFFFF;" cy="-14.977" r="0.499"/>
  <circle cx="38.994" style="fill-rule:evenodd;clip-rule:evenodd;fill:#FFFFFF;" cy="-14.977" r="0.499"/>
  <circle cx="42.994" style="fill-rule:evenodd;clip-rule:evenodd;fill:#FFFFFF;" cy="-14.977" r="0.499"/>
  <circle cx="46.994" style="fill-rule:evenodd;clip-rule:evenodd;fill:#FFFFFF;" cy="-14.977" r="0.499"/>
  <circle cx="50.994" style="fill-rule:evenodd;clip-rule:evenodd;fill:#FFFFFF;" cy="-14.977" r="0.499"/>
  <circle cx="54.994" style="fill-rule:evenodd;clip-rule:evenodd;fill:#FFFFFF;" cy="-14.977" r="0.499"/>
  <circle cx="2.994" style="fill-rule:evenodd;clip-rule:evenodd;fill:#FFFFFF;" cy="-10.977" r="0.499"/>
  <circle cx="6.994" style="fill-rule:evenodd;clip-rule:evenodd;fill:#FFFFFF;" cy="-10.977" r="0.499"/>
  <circle cx="10.994" style="fill-rule:evenodd;clip-rule:evenodd;fill:#FFFFFF;" cy="-10.977" r="0.499"/>
  <circle cx="14.994" style="fill-rule:evenodd;clip-rule:evenodd;fill:#FFFFFF;" cy="-10.977" r="0.499"/>
  <circle cx="18.994" style="fill:#FFFFFF;" cy="-10.977" r="0.499"/>
  <circle cx="22.994" style="fill-rule:evenodd;clip-rule:evenodd;fill:#FFFFFF;" cy="-10.977" r="0.499"/>
  <circle cx="26.994" style="fill-rule:evenodd;clip-rule:evenodd;fill:#FFFFFF;" cy="-10.977" r="0.499"/>
  <circle cx="30.994" style="fill-rule:evenodd;clip-rule:evenodd;fill:#FFFFFF;" cy="-10.977" r="0.499"/>
  <circle cx="34.994" style="fill-rule:evenodd;clip-rule:evenodd;fill:#FFFFFF;" cy="-10.977" r="0.499"/>
  <circle cx="38.994" style="fill-rule:evenodd;clip-rule:evenodd;fill:#FFFFFF;" cy="-10.977" r="0.499"/>
  <circle cx="42.994" style="fill-rule:evenodd;clip-rule:evenodd;fill:#FFFFFF;" cy="-10.977" r="0.499"/>
  <circle cx="46.994" style="fill-rule:evenodd;clip-rule:evenodd;fill:#FFFFFF;" cy="-10.977" r="0.499"/>
  <circle cx="50.994" style="fill-rule:evenodd;clip-rule:evenodd;fill:#FFFFFF;" cy="-10.977" r="0.499"/>
  <circle cx="54.994" style="fill-rule:evenodd;clip-rule:evenodd;fill:#FFFFFF;" cy="-10.977" r="0.499"/>
  <circle cx="2.994" style="fill-rule:evenodd;clip-rule:evenodd;fill:#FFFFFF;" cy="-6.977" r="0.499"/>
  <circle cx="6.994" style="fill-rule:evenodd;clip-rule:evenodd;fill:#FFFFFF;" cy="-6.977" r="0.499"/>
  <circle cx="10.994" style="fill-rule:evenodd;clip-rule:evenodd;fill:#FFFFFF;" cy="-6.977" r="0.499"/>
  <circle cx="14.994" style="fill-rule:evenodd;clip-rule:evenodd;fill:#FFFFFF;" cy="-6.977" r="0.499"/>
  <circle cx="18.994" style="fill-rule:evenodd;clip-rule:evenodd;fill:#FFFFFF;" cy="-6.977" r="0.499"/>
  <circle cx="22.994" style="fill-rule:evenodd;clip-rule:evenodd;fill:#FFFFFF;" cy="-6.977" r="0.499"/>
  <circle cx="26.994" style="fill-rule:evenodd;clip-rule:evenodd;fill:#FFFFFF;" cy="-6.977" r="0.499"/>
  <circle cx="30.994" style="fill-rule:evenodd;clip-rule:evenodd;fill:#FFFFFF;" cy="-6.977" r="0.499"/>
  <circle cx="34.994" style="fill-rule:evenodd;clip-rule:evenodd;fill:#FFFFFF;" cy="-6.977" r="0.499"/>
  <circle cx="38.994" style="fill-rule:evenodd;clip-rule:evenodd;fill:#FFFFFF;" cy="-6.977" r="0.499"/>
  <circle cx="42.994" style="fill-rule:evenodd;clip-rule:evenodd;fill:#FFFFFF;" cy="-6.977" r="0.499"/>
  <circle cx="46.994" style="fill-rule:evenodd;clip-rule:evenodd;fill:#FFFFFF;" cy="-6.977" r="0.499"/>
  <circle cx="50.994" style="fill-rule:evenodd;clip-rule:evenodd;fill:#FFFFFF;" cy="-6.977" r="0.499"/>
  <circle cx="54.994" style="fill-rule:evenodd;clip-rule:evenodd;fill:#FFFFFF;" cy="-6.977" r="0.499"/>
  <circle cx="2.994" style="fill-rule:evenodd;clip-rule:evenodd;fill:#FFFFFF;" cy="-2.977" r="0.499"/>
  <circle cx="6.994" style="fill-rule:evenodd;clip-rule:evenodd;fill:#FFFFFF;" cy="-2.977" r="0.499"/>
  <circle cx="10.994" style="fill-rule:evenodd;clip-rule:evenodd;fill:#FFFFFF;" cy="-2.977" r="0.499"/>
  <circle cx="14.994" style="fill-rule:evenodd;clip-rule:evenodd;fill:#FFFFFF;" cy="-2.977" r="0.499"/>
  <circle cx="18.994" style="fill-rule:evenodd;clip-rule:evenodd;fill:#FFFFFF;" cy="-2.977" r="0.499"/>
  <circle cx="22.994" style="fill-rule:evenodd;clip-rule:evenodd;fill:#FFFFFF;" cy="-2.977" r="0.499"/>
  <circle cx="26.994" style="fill-rule:evenodd;clip-rule:evenodd;fill:#FFFFFF;" cy="-2.977" r="0.499"/>
  <circle cx="30.994" style="fill-rule:evenodd;clip-rule:evenodd;fill:#FFFFFF;" cy="-2.977" r="0.499"/>
  <circle cx="34.994" style="fill-rule:evenodd;clip-rule:evenodd;fill:#FFFFFF;" cy="-2.977" r="0.499"/>
  <circle cx="38.994" style="fill-rule:evenodd;clip-rule:evenodd;fill:#FFFFFF;" cy="-2.977" r="0.499"/>
  <circle cx="42.994" style="fill-rule:evenodd;clip-rule:evenodd;fill:#FFFFFF;" cy="-2.977" r="0.499"/>
  <circle cx="46.994" style="fill-rule:evenodd;clip-rule:evenodd;fill:#FFFFFF;" cy="-2.977" r="0.499"/>
  <circle cx="50.994" style="fill-rule:evenodd;clip-rule:evenodd;fill:#FFFFFF;" cy="-2.977" r="0.499"/>
  <circle cx="54.994" style="fill-rule:evenodd;clip-rule:evenodd;fill:#FFFFFF;" cy="-2.977" r="0.499"/>
 </g>
</svg>
