<?xml version="1.0"?>
<!-- Converted with SVG Converter - Version 0.9.5 (Compiled Fri Feb 21 09:53:38 2020) - Copyright (C) 2011 Nokia -->
<svg xmlns="http://www.w3.org/2000/svg" x="0px" baseProfile="tiny" xmlns:xlink="http://www.w3.org/1999/xlink" viewBox="0 -72 72 72" xml:space="preserve" y="0px" version="1.1" width="72" height="72">
 <g>
  <rect y="-72" style="fill:none;" width="72" height="72"/>
  <circle r="0.498" cx="5.98" cy="-71" style="fill:#ED1B2E;"/>
  <circle r="0.499" cx="8.667" cy="-70.395" style="fill:#ED1B2E;"/>
  <circle r="0.499" cx="12.833" cy="-71.354" style="fill:#ED1B2E;"/>
  <circle r="0.499" cx="7.5" cy="-68.02" style="fill:#ED1B2E;"/>
  <circle r="0.499" cx="4.5" cy="-69.02" style="fill:#ED1B2E;"/>
  <circle r="0.499" cx="0.666" cy="-68.02" style="fill:#ED1B2E;"/>
  <circle r="0.498" cx="3.667" cy="-66.187" style="fill:#ED1B2E;"/>
  <circle r="0.499" cx="6.333" cy="-65.02" style="fill:#ED1B2E;"/>
  <circle r="0.499" cx="9.5" cy="-63.854" style="fill:#ED1B2E;"/>
  <circle r="0.498" cx="11" cy="-67.687" style="fill:#ED1B2E;"/>
  <circle r="0.499" cx="14" cy="-67.52" style="fill:#ED1B2E;"/>
  <circle r="0.499" cx="16.167" cy="-70.02" style="fill:#ED1B2E;"/>
  <circle r="0.499" cx="19.333" cy="-70.854" style="fill:#ED1B2E;"/>
  <circle r="0.498" cx="21.333" cy="-69.687" style="fill:#ED1B2E;"/>
  <circle r="0.499" cx="24.75" cy="-69.479" style="fill:#ED1B2E;"/>
  <circle r="0.499" cx="26.5" cy="-71.354" style="fill:#ED1B2E;"/>
  <circle r="0.499" cx="28.333" cy="-69.02" style="fill:#ED1B2E;"/>
  <circle r="0.499" cx="26.333" cy="-66.854" style="fill:#ED1B2E;"/>
  <circle r="0.499" cx="24.5" cy="-63.854" style="fill:#ED1B2E;"/>
  <circle r="0.499" cx="22.667" cy="-60.854" style="fill:#ED1B2E;"/>
  <circle r="0.499" cx="20.875" cy="-63.729" style="fill:#ED1B2E;"/>
  <circle r="0.499" cx="22.875" cy="-66.854" style="fill:#ED1B2E;"/>
  <circle r="0.499" cx="22" cy="-58.104" style="fill:#ED1B2E;"/>
  <circle r="0.499" cx="19.833" cy="-65.52" style="fill:#ED1B2E;"/>
  <circle r="0.499" cx="18" cy="-62.854" style="fill:#ED1B2E;"/>
  <circle r="0.499" cx="15.333" cy="-63.02" style="fill:#ED1B2E;"/>
  <circle r="0.499" cx="14.5" cy="-61.02" style="fill:#ED1B2E;"/>
  <circle r="0.499" cx="11.667" cy="-61.854" style="fill:#ED1B2E;"/>
  <circle r="0.498" cx="11.5" cy="-58.687" style="fill:#ED1B2E;"/>
  <circle r="0.499" cx="10.5" cy="-55.02" style="fill:#ED1B2E;"/>
  <circle r="0.499" cx="9.667" cy="-51.854" style="fill:#ED1B2E;"/>
  <circle r="0.499" cx="9.833" cy="-49.52" style="fill:#ED1B2E;"/>
  <circle r="0.499" cx="6.667" cy="-48.854" style="fill:#ED1B2E;"/>
  <circle r="0.499" cx="7" cy="-51.854" style="fill:#ED1B2E;"/>
  <circle r="0.498" cx="7.5" cy="-54.687" style="fill:#ED1B2E;"/>
  <circle r="0.498" cx="7.833" cy="-58.187" style="fill:#ED1B2E;"/>
  <circle r="0.499" cx="8.5" cy="-60.854" style="fill:#ED1B2E;"/>
  <circle r="0.499" cx="5.333" cy="-61.354" style="fill:#ED1B2E;"/>
  <circle r="0.499" cx="2.667" cy="-63.354" style="fill:#ED1B2E;"/>
  <circle r="0.499" cx="0.833" cy="-64.52" style="fill:#ED1B2E;"/>
  <circle r="0.498" cx="1.333" cy="-59.687" style="fill:#ED1B2E;"/>
  <circle r="0.499" cx="4.333" cy="-57.854" style="fill:#ED1B2E;"/>
  <circle r="0.499" cx="3.333" cy="-54.854" style="fill:#ED1B2E;"/>
  <circle r="0.499" cx="1.5" cy="-53.854" style="fill:#ED1B2E;"/>
  <circle r="0.499" cx="1.166" cy="-56.854" style="fill:#ED1B2E;"/>
  <circle r="0.499" cx="13.333" cy="-56.854" style="fill:#ED1B2E;"/>
  <circle r="0.498" cx="17.333" cy="-59.687" style="fill:#ED1B2E;"/>
  <circle r="0.498" cx="19.5" cy="-59.687" style="fill:#ED1B2E;"/>
  <circle r="0.499" cx="19" cy="-55.854" style="fill:#ED1B2E;"/>
  <circle r="0.499" cx="16.875" cy="-56.604" style="fill:#ED1B2E;"/>
  <circle r="0.498" cx="18.833" cy="-53.687" style="fill:#ED1B2E;"/>
  <circle r="0.499" cx="15.5" cy="-52.854" style="fill:#ED1B2E;"/>
  <circle r="0.499" cx="13.167" cy="-54.02" style="fill:#ED1B2E;"/>
  <circle r="0.499" cx="13" cy="-64.854" style="fill:#ED1B2E;"/>
  <circle r="0.499" cx="16.667" cy="-65.52" style="fill:#ED1B2E;"/>
  <circle r="0.498" cx="18" cy="-67.687" style="fill:#ED1B2E;"/>
  <circle r="0.498" cx="31" cy="-70.687" style="fill:#ED1B2E;"/>
  <circle r="0.498" cx="33.833" cy="-71.187" style="fill:#ED1B2E;"/>
  <circle r="0.499" cx="34.5" cy="-68.854" style="fill:#ED1B2E;"/>
  <circle r="0.499" cx="37" cy="-71.041" style="fill:#ED1B2E;"/>
  <circle r="0.498" cx="40.333" cy="-71.187" style="fill:#ED1B2E;"/>
  <circle r="0.499" cx="32.125" cy="-66.854" style="fill:#ED1B2E;"/>
  <circle r="0.499" cx="29" cy="-66.854" style="fill:#ED1B2E;"/>
  <circle r="0.499" cx="27.833" cy="-61.354" style="fill:#ED1B2E;"/>
  <circle r="0.499" cx="29.667" cy="-64.229" style="fill:#ED1B2E;"/>
  <circle r="0.499" cx="27.5" cy="-64.854" style="fill:#ED1B2E;"/>
  <circle r="0.499" cx="34.167" cy="-65.52" style="fill:#ED1B2E;"/>
  <circle r="0.499" cx="37.167" cy="-67.354" style="fill:#ED1B2E;"/>
  <circle r="0.499" cx="40.5" cy="-69.02" style="fill:#ED1B2E;"/>
  <circle r="0.498" cx="43.333" cy="-70.187" style="fill:#ED1B2E;"/>
  <circle r="0.498" cx="46.5" cy="-71.187" style="fill:#ED1B2E;"/>
  <circle r="0.499" cx="50.333" cy="-71.02" style="fill:#ED1B2E;"/>
  <circle r="0.499" cx="46.167" cy="-67.729" style="fill:#ED1B2E;"/>
  <circle r="0.498" cx="43.021" cy="-67.125" style="fill:#ED1B2E;"/>
  <circle r="0.498" cx="40.833" cy="-64.562" style="fill:#ED1B2E;"/>
  <circle r="0.499" cx="38.333" cy="-65.354" style="fill:#ED1B2E;"/>
  <circle r="0.499" cx="37.75" cy="-62.854" style="fill:#ED1B2E;"/>
  <circle r="0.499" cx="34.5" cy="-60.729" style="fill:#ED1B2E;"/>
  <circle r="0.499" cx="31.333" cy="-59.854" style="fill:#ED1B2E;"/>
  <circle r="0.499" cx="28.333" cy="-58.52" style="fill:#ED1B2E;"/>
  <circle r="0.499" cx="33.5" cy="-57.727" style="fill:#ED1B2E;"/>
  <circle r="0.498" cx="29.667" cy="-57.187" style="fill:#ED1B2E;"/>
  <circle r="0.499" cx="27.667" cy="-54.854" style="fill:#ED1B2E;"/>
  <circle r="0.499" cx="25.167" cy="-57.02" style="fill:#ED1B2E;"/>
  <circle r="0.499" cx="25" cy="-53.52" style="fill:#ED1B2E;"/>
  <circle r="0.499" cx="23" cy="-54.604" style="fill:#ED1B2E;"/>
  <circle r="0.498" cx="24.667" cy="-51.187" style="fill:#ED1B2E;"/>
  <circle r="0.499" cx="27.5" cy="-51.854" style="fill:#ED1B2E;"/>
  <circle r="0.499" cx="30.854" cy="-53.207" style="fill:#ED1B2E;"/>
  <circle r="0.499" cx="33" cy="-54.02" style="fill:#ED1B2E;"/>
  <circle r="0.498" cx="32.167" cy="-55.687" style="fill:#ED1B2E;"/>
  <circle r="0.499" cx="35.667" cy="-54.52" style="fill:#ED1B2E;"/>
  <circle r="0.499" cx="36.167" cy="-57.02" style="fill:#ED1B2E;"/>
  <circle r="0.499" cx="37.667" cy="-59.354" style="fill:#ED1B2E;"/>
  <circle r="0.498" cx="40.333" cy="-61.187" style="fill:#ED1B2E;"/>
  <circle r="0.499" cx="43" cy="-62.52" style="fill:#ED1B2E;"/>
  <circle r="0.499" cx="44.313" cy="-64.874" style="fill:#ED1B2E;"/>
  <circle r="0.498" cx="48.083" cy="-65.812" style="fill:#ED1B2E;"/>
  <circle r="0.498" cx="49.083" cy="-68.812" style="fill:#ED1B2E;"/>
  <circle r="0.499" cx="53.167" cy="-70.52" style="fill:#ED1B2E;"/>
  <circle r="0.499" cx="56.5" cy="-71.354" style="fill:#ED1B2E;"/>
  <circle r="0.499" cx="62.167" cy="-71.354" style="fill:#ED1B2E;"/>
  <circle r="0.499" cx="59" cy="-70.02" style="fill:#ED1B2E;"/>
  <circle r="0.498" cx="57.5" cy="-67.062" style="fill:#ED1B2E;"/>
  <circle r="0.499" cx="54.125" cy="-66.729" style="fill:#ED1B2E;"/>
  <circle r="0.499" cx="64.166" cy="-61.729" style="fill:#ED1B2E;"/>
  <circle r="0.498" cx="50.833" cy="-65.312" style="fill:#ED1B2E;"/>
  <circle r="0.498" cx="32.167" cy="-63.062" style="fill:#ED1B2E;"/>
  <circle r="0.499" cx="35.167" cy="-63.52" style="fill:#ED1B2E;"/>
  <circle r="0.498" cx="52.333" cy="-68.187" style="fill:#ED1B2E;"/>
  <circle r="0.499" cx="45.687" cy="-62.207" style="fill:#ED1B2E;"/>
  <circle r="0.499" cx="43.333" cy="-59.77" style="fill:#ED1B2E;"/>
  <circle r="0.499" cx="40.667" cy="-57.854" style="fill:#ED1B2E;"/>
  <circle r="0.499" cx="38.667" cy="-55.02" style="fill:#ED1B2E;"/>
  <circle r="0.499" cx="41.833" cy="-53.395" style="fill:#ED1B2E;"/>
  <circle r="0.499" cx="43" cy="-56.02" style="fill:#ED1B2E;"/>
  <circle r="0.498" cx="48.5" cy="-60.062" style="fill:#ED1B2E;"/>
  <circle r="0.499" cx="50.333" cy="-62.561" style="fill:#ED1B2E;"/>
  <circle r="0.499" cx="48.167" cy="-63.854" style="fill:#ED1B2E;"/>
  <circle r="0.499" cx="53.333" cy="-63.894" style="fill:#ED1B2E;"/>
  <circle r="0.499" cx="56.5" cy="-64.395" style="fill:#ED1B2E;"/>
  <circle r="0.499" cx="59.5" cy="-66.02" style="fill:#ED1B2E;"/>
  <circle r="0.499" cx="61.333" cy="-68.52" style="fill:#ED1B2E;"/>
  <circle r="0.499" cx="65.333" cy="-67.854" style="fill:#ED1B2E;"/>
  <circle r="0.498" cx="63.833" cy="-69.187" style="fill:#ED1B2E;"/>
  <circle r="0.498" cx="62.5" cy="-66.187" style="fill:#ED1B2E;"/>
  <circle r="0.499" cx="59.667" cy="-63.854" style="fill:#ED1B2E;"/>
  <circle r="0.499" cx="56.5" cy="-60.854" style="fill:#ED1B2E;"/>
  <circle r="0.499" cx="53.333" cy="-61.02" style="fill:#ED1B2E;"/>
  <circle r="0.499" cx="47.333" cy="-57.854" style="fill:#ED1B2E;"/>
  <circle r="0.499" cx="47.167" cy="-54.52" style="fill:#ED1B2E;"/>
  <circle r="0.499" cx="44.75" cy="-55.104" style="fill:#ED1B2E;"/>
  <circle r="0.499" cx="44.875" cy="-51.354" style="fill:#ED1B2E;"/>
  <circle r="0.498" cx="65.166" cy="-65.187" style="fill:#ED1B2E;"/>
  <circle r="0.499" cx="62.313" cy="-63.207" style="fill:#ED1B2E;"/>
  <circle r="0.498" cx="60" cy="-60.562" style="fill:#ED1B2E;"/>
  <circle r="0.499" cx="57.167" cy="-58.354" style="fill:#ED1B2E;"/>
  <circle r="0.498" cx="54.5" cy="-58.187" style="fill:#ED1B2E;"/>
  <circle r="0.499" cx="52.5" cy="-56.02" style="fill:#ED1B2E;"/>
  <circle r="0.499" cx="49.833" cy="-53.354" style="fill:#ED1B2E;"/>
  <circle r="0.499" cx="52.667" cy="-52.854" style="fill:#ED1B2E;"/>
  <circle r="0.499" cx="54.833" cy="-55.02" style="fill:#ED1B2E;"/>
  <circle r="0.498" cx="57.5" cy="-55.187" style="fill:#ED1B2E;"/>
  <circle r="0.498" cx="62" cy="-59.062" style="fill:#ED1B2E;"/>
  <circle r="0.499" cx="67.833" cy="-62.229" style="fill:#ED1B2E;"/>
  <circle r="0.499" cx="66" cy="-60.02" style="fill:#ED1B2E;"/>
  <circle r="0.498" cx="71.5" cy="-62.187" style="fill:#ED1B2E;"/>
  <circle r="0.499" cx="68.5" cy="-60.02" style="fill:#ED1B2E;"/>
  <circle r="0.499" cx="66.5" cy="-57.854" style="fill:#ED1B2E;"/>
  <circle r="0.499" cx="69.5" cy="-56.854" style="fill:#ED1B2E;"/>
  <circle r="0.499" cx="71" cy="-59.02" style="fill:#ED1B2E;"/>
  <circle r="0.499" cx="63.333" cy="-56.854" style="fill:#ED1B2E;"/>
  <circle r="0.499" cx="60.625" cy="-55.979" style="fill:#ED1B2E;"/>
  <circle r="0.499" cx="61.25" cy="-53.854" style="fill:#ED1B2E;"/>
  <circle r="0.499" cx="58.5" cy="-53.104" style="fill:#ED1B2E;"/>
  <circle r="0.499" cx="64.333" cy="-54.52" style="fill:#ED1B2E;"/>
  <circle r="0.499" cx="67.5" cy="-54.02" style="fill:#ED1B2E;"/>
  <circle r="0.499" cx="70.666" cy="-54.02" style="fill:#ED1B2E;"/>
  <circle r="0.498" cx="68.5" cy="-52.187" style="fill:#ED1B2E;"/>
  <circle r="0.499" cx="65.5" cy="-52.02" style="fill:#ED1B2E;"/>
  <circle r="0.499" cx="62.5" cy="-50.854" style="fill:#ED1B2E;"/>
  <circle r="0.499" cx="59.167" cy="-50.854" style="fill:#ED1B2E;"/>
  <circle r="0.499" cx="60.333" cy="-48.854" style="fill:#ED1B2E;"/>
  <circle r="0.499" cx="67" cy="-47.354" style="fill:#ED1B2E;"/>
  <circle r="0.499" cx="51.5" cy="-58.227" style="fill:#ED1B2E;"/>
  <circle r="0.499" cx="54.833" cy="-68.854" style="fill:#ED1B2E;"/>
  <circle r="0.499" cx="57.75" cy="-47.354" style="fill:#ED1B2E;"/>
  <circle r="0.499" cx="55.75" cy="-51.854" style="fill:#ED1B2E;"/>
  <circle r="0.499" cx="52.75" cy="-49.479" style="fill:#ED1B2E;"/>
  <circle r="0.499" cx="54.667" cy="-48.02" style="fill:#ED1B2E;"/>
  <circle r="0.499" cx="57" cy="-49.854" style="fill:#ED1B2E;"/>
  <circle r="0.498" cx="50.333" cy="-50.187" style="fill:#ED1B2E;"/>
  <circle r="0.499" cx="47.167" cy="-51.02" style="fill:#ED1B2E;"/>
  <circle r="0.499" cx="44.333" cy="-49.02" style="fill:#ED1B2E;"/>
  <circle r="0.499" cx="41.313" cy="-50.541" style="fill:#ED1B2E;"/>
  <circle r="0.499" cx="40.125" cy="-48.354" style="fill:#ED1B2E;"/>
  <circle r="0.499" cx="41.833" cy="-46.354" style="fill:#ED1B2E;"/>
  <circle r="0.499" cx="37.167" cy="-45.104" style="fill:#ED1B2E;"/>
  <circle r="0.498" cx="31.167" cy="-41.437" style="fill:#ED1B2E;"/>
  <circle r="0.499" cx="27" cy="-38.479" style="fill:#ED1B2E;"/>
  <circle r="0.498" cx="18.833" cy="-38.312" style="fill:#ED1B2E;"/>
  <circle r="0.499" cx="22.833" cy="-42.394" style="fill:#ED1B2E;"/>
  <circle r="0.499" cx="14.167" cy="-42.77" style="fill:#ED1B2E;"/>
  <circle r="0.498" cx="11.667" cy="-46.437" style="fill:#ED1B2E;"/>
  <circle r="0.498" cx="23.583" cy="-35.812" style="fill:#ED1B2E;"/>
  <circle r="0.499" cx="21.5" cy="-32.354" style="fill:#ED1B2E;"/>
  <circle r="0.499" cx="24.125" cy="-30.229" style="fill:#ED1B2E;"/>
  <circle r="0.499" cx="19" cy="-31.895" style="fill:#ED1B2E;"/>
  <circle r="0.499" cx="13.333" cy="-16.854" style="fill:#ED1B2E;"/>
  <circle r="0.499" cx="18.167" cy="-29.561" style="fill:#ED1B2E;"/>
  <circle r="0.499" cx="13.5" cy="-33.104" style="fill:#ED1B2E;"/>
  <circle r="0.499" cx="9.75" cy="-35.104" style="fill:#ED1B2E;"/>
  <circle r="0.499" cx="10.25" cy="-39.354" style="fill:#ED1B2E;"/>
  <circle r="0.499" cx="4.875" cy="-37.604" style="fill:#ED1B2E;"/>
  <circle r="0.499" cx="1.625" cy="-39.104" style="fill:#ED1B2E;"/>
  <circle r="0.499" cx="5.375" cy="-40.354" style="fill:#ED1B2E;"/>
  <circle r="0.499" cx="7.5" cy="-38.729" style="fill:#ED1B2E;"/>
  <circle r="0.499" cx="12.854" cy="-36.332" style="fill:#ED1B2E;"/>
  <circle r="0.499" cx="15.375" cy="-36.979" style="fill:#ED1B2E;"/>
  <circle r="0.499" cx="13.375" cy="-39.229" style="fill:#ED1B2E;"/>
  <circle r="0.499" cx="16.5" cy="-39.354" style="fill:#ED1B2E;"/>
  <circle r="0.499" cx="17" cy="-35.354" style="fill:#ED1B2E;"/>
  <circle r="0.498" cx="20.167" cy="-35.562" style="fill:#ED1B2E;"/>
  <circle r="0.499" cx="24.625" cy="-32.104" style="fill:#ED1B2E;"/>
  <circle r="0.499" cx="29" cy="-36.436" style="fill:#ED1B2E;"/>
  <circle r="0.499" cx="31.875" cy="-33.979" style="fill:#ED1B2E;"/>
  <circle r="0.499" cx="30.875" cy="-31.979" style="fill:#ED1B2E;"/>
  <circle r="0.499" cx="33.375" cy="-31.229" style="fill:#ED1B2E;"/>
  <circle r="0.499" cx="33.75" cy="-29.104" style="fill:#ED1B2E;"/>
  <circle r="0.499" cx="32.625" cy="-25.979" style="fill:#ED1B2E;"/>
  <circle r="0.499" cx="32.25" cy="-23.354" style="fill:#ED1B2E;"/>
  <circle r="0.499" cx="33.875" cy="-19.729" style="fill:#ED1B2E;"/>
  <circle r="0.499" cx="36" cy="-22.686" style="fill:#ED1B2E;"/>
  <circle r="0.499" cx="38.125" cy="-19.854" style="fill:#ED1B2E;"/>
  <circle r="0.499" cx="36.125" cy="-17.354" style="fill:#ED1B2E;"/>
  <circle r="0.499" cx="42.5" cy="-17.104" style="fill:#ED1B2E;"/>
  <circle r="0.499" cx="39.375" cy="-17.229" style="fill:#ED1B2E;"/>
  <circle r="0.499" cx="37.375" cy="-13.979" style="fill:#ED1B2E;"/>
  <circle r="0.499" cx="33.5" cy="-14.979" style="fill:#ED1B2E;"/>
  <circle r="0.499" cx="32.375" cy="-17.854" style="fill:#ED1B2E;"/>
  <circle r="0.499" cx="30.875" cy="-20.104" style="fill:#ED1B2E;"/>
  <circle r="0.499" cx="29.75" cy="-22.979" style="fill:#ED1B2E;"/>
  <circle r="0.498" cx="29" cy="-25.687" style="fill:#ED1B2E;"/>
  <circle r="0.499" cx="30.625" cy="-28.229" style="fill:#ED1B2E;"/>
  <circle r="0.498" cx="27.167" cy="-30.687" style="fill:#ED1B2E;"/>
  <circle r="0.499" cx="28" cy="-33.895" style="fill:#ED1B2E;"/>
  <circle r="0.499" cx="27.75" cy="-28.604" style="fill:#ED1B2E;"/>
  <circle r="0.499" cx="25.375" cy="-27.104" style="fill:#ED1B2E;"/>
  <circle r="0.499" cx="26.375" cy="-24.104" style="fill:#ED1B2E;"/>
  <circle r="0.499" cx="26.5" cy="-21.02" style="fill:#ED1B2E;"/>
  <circle r="0.498" cx="27.833" cy="-18.187" style="fill:#ED1B2E;"/>
  <circle r="0.499" cx="29" cy="-16.354" style="fill:#ED1B2E;"/>
  <circle r="0.499" cx="30.125" cy="-14.479" style="fill:#ED1B2E;"/>
  <circle r="0.499" cx="28.75" cy="-12.229" style="fill:#ED1B2E;"/>
  <circle r="0.499" cx="25" cy="-12.354" style="fill:#ED1B2E;"/>
  <circle r="0.499" cx="22.5" cy="-14.979" style="fill:#ED1B2E;"/>
  <circle r="0.499" cx="20.5" cy="-12.979" style="fill:#ED1B2E;"/>
  <circle r="0.498" cx="49.333" cy="-56.187" style="fill:#ED1B2E;"/>
  <circle r="0.499" cx="17.25" cy="-8.479" style="fill:#ED1B2E;"/>
  <circle r="0.499" cx="20.375" cy="-9.104" style="fill:#ED1B2E;"/>
  <circle r="0.499" cx="21.333" cy="-6.854" style="fill:#ED1B2E;"/>
  <circle r="0.499" cx="23.25" cy="-9.979" style="fill:#ED1B2E;"/>
  <circle r="0.499" cx="18.5" cy="-6.062" style="fill:#ED1B2E;"/>
  <circle r="0.499" cx="16.25" cy="-2.104" style="fill:#ED1B2E;"/>
  <circle r="0.499" cx="14.833" cy="-4.562" style="fill:#ED1B2E;"/>
  <circle r="0.499" cx="11.5" cy="-2.104" style="fill:#ED1B2E;"/>
  <circle r="0.499" cx="10.021" cy="-4.332" style="fill:#ED1B2E;"/>
  <circle r="0.499" cx="12.5" cy="-5.979" style="fill:#ED1B2E;"/>
  <circle r="0.499" cx="13.5" cy="-8.854" style="fill:#ED1B2E;"/>
  <circle r="0.499" cx="14.5" cy="-7.187" style="fill:#ED1B2E;"/>
  <circle r="0.499" cx="17.833" cy="-3.187" style="fill:#ED1B2E;"/>
  <circle r="0.498" cx="19.5" cy="-1.021" style="fill:#ED1B2E;"/>
  <circle r="0.499" cx="8.75" cy="-0.604" style="fill:#ED1B2E;"/>
  <circle r="0.499" cx="14" cy="-0.92" style="fill:#ED1B2E;"/>
  <circle r="0.499" cx="9.5" cy="-11.104" style="fill:#ED1B2E;"/>
  <circle r="0.499" cx="11" cy="-8.979" style="fill:#ED1B2E;"/>
  <circle r="0.499" cx="7.375" cy="-8.979" style="fill:#ED1B2E;"/>
  <circle r="0.499" cx="4.75" cy="-9.854" style="fill:#ED1B2E;"/>
  <circle r="0.499" cx="2.25" cy="-8.229" style="fill:#ED1B2E;"/>
  <circle r="0.499" cx="4.375" cy="-6.104" style="fill:#ED1B2E;"/>
  <circle r="0.499" cx="8.125" cy="-6.104" style="fill:#ED1B2E;"/>
  <circle r="0.499" cx="7.25" cy="-3.104" style="fill:#ED1B2E;"/>
  <circle r="0.499" cx="4.5" cy="-2.979" style="fill:#ED1B2E;"/>
  <circle r="0.499" cx="2.25" cy="-4.229" style="fill:#ED1B2E;"/>
  <circle r="0.499" cx="0.5" cy="-2.104" style="fill:#ED1B2E;"/>
  <circle r="0.499" cx="3.635" cy="-0.795" style="fill:#ED1B2E;"/>
  <circle r="0.499" cx="15" cy="-47.604" style="fill:#ED1B2E;"/>
  <circle r="0.499" cx="13.333" cy="-12.062" style="fill:#ED1B2E;"/>
  <circle r="0.499" cx="11.167" cy="-13.854" style="fill:#ED1B2E;"/>
  <circle r="0.499" cx="9.5" cy="-21.854" style="fill:#ED1B2E;"/>
  <circle r="0.498" cx="9.5" cy="-25.687" style="fill:#ED1B2E;"/>
  <circle r="0.498" cx="14.167" cy="-14.687" style="fill:#ED1B2E;"/>
  <circle r="0.499" cx="16.5" cy="-11.729" style="fill:#ED1B2E;"/>
  <circle r="0.498" cx="15.667" cy="-18.687" style="fill:#ED1B2E;"/>
  <circle r="0.498" cx="21.167" cy="-11.521" style="fill:#ED1B2E;"/>
  <circle r="0.498" cx="18.667" cy="-16.687" style="fill:#ED1B2E;"/>
  <circle r="0.499" cx="21.375" cy="-17.979" style="fill:#ED1B2E;"/>
  <circle r="0.499" cx="21" cy="-21.229" style="fill:#ED1B2E;"/>
  <circle r="0.498" cx="15.583" cy="-21.812" style="fill:#ED1B2E;"/>
  <circle r="0.499" cx="18.375" cy="-19.104" style="fill:#ED1B2E;"/>
  <circle r="0.498" cx="17.333" cy="-14.687" style="fill:#ED1B2E;"/>
  <circle r="0.498" cx="15.083" cy="-25.062" style="fill:#ED1B2E;"/>
  <circle r="0.499" cx="18" cy="-22.729" style="fill:#ED1B2E;"/>
  <circle r="0.499" cx="20.667" cy="-25.229" style="fill:#ED1B2E;"/>
  <circle r="0.499" cx="23.375" cy="-22.686" style="fill:#ED1B2E;"/>
  <circle r="0.499" cx="23.375" cy="-25.104" style="fill:#ED1B2E;"/>
  <circle r="0.499" cx="21.25" cy="-28.686" style="fill:#ED1B2E;"/>
  <circle r="0.499" cx="18" cy="-27.104" style="fill:#ED1B2E;"/>
  <circle r="0.499" cx="15.25" cy="-28.104" style="fill:#ED1B2E;"/>
  <circle r="0.499" cx="12.75" cy="-30.332" style="fill:#ED1B2E;"/>
  <circle r="0.499" cx="10.5" cy="-31.979" style="fill:#ED1B2E;"/>
  <circle r="0.499" cx="6.75" cy="-32.104" style="fill:#ED1B2E;"/>
  <circle r="0.499" cx="7" cy="-34.354" style="fill:#ED1B2E;"/>
  <circle r="0.499" cx="4.625" cy="-34.104" style="fill:#ED1B2E;"/>
  <circle r="0.499" cx="1.5" cy="-35.229" style="fill:#ED1B2E;"/>
  <circle r="0.499" cx="2.5" cy="-32.104" style="fill:#ED1B2E;"/>
  <circle r="0.499" cx="3.5" cy="-29.979" style="fill:#ED1B2E;"/>
  <circle r="0.499" cx="5.25" cy="-26.979" style="fill:#ED1B2E;"/>
  <circle r="0.499" cx="7.125" cy="-24.979" style="fill:#ED1B2E;"/>
  <circle r="0.499" cx="12.375" cy="-22.104" style="fill:#ED1B2E;"/>
  <circle r="0.499" cx="12.5" cy="-19.104" style="fill:#ED1B2E;"/>
  <circle r="0.498" cx="9.771" cy="-19.5" style="fill:#ED1B2E;"/>
  <circle r="0.499" cx="7.375" cy="-20.979" style="fill:#ED1B2E;"/>
  <circle r="0.499" cx="5.5" cy="-22.979" style="fill:#ED1B2E;"/>
  <circle r="0.499" cx="3.375" cy="-24.979" style="fill:#ED1B2E;"/>
  <circle r="0.499" cx="1.5" cy="-26.979" style="fill:#ED1B2E;"/>
  <circle r="0.499" cx="7.375" cy="-29.104" style="fill:#ED1B2E;"/>
  <circle r="0.499" cx="10" cy="-29.02" style="fill:#ED1B2E;"/>
  <circle r="0.499" cx="12.167" cy="-24.354" style="fill:#ED1B2E;"/>
  <circle r="0.498" cx="12.333" cy="-27.187" style="fill:#ED1B2E;"/>
  <circle r="0.498" cx="7.396" cy="-16.125" style="fill:#ED1B2E;"/>
  <circle r="0.499" cx="4.5" cy="-14.854" style="fill:#ED1B2E;"/>
  <circle r="0.499" cx="2.5" cy="-11.854" style="fill:#ED1B2E;"/>
  <circle r="0.499" cx="0.659" cy="-13.104" style="fill:#ED1B2E;"/>
  <circle r="0.499" cx="6.021" cy="-13.332" style="fill:#ED1B2E;"/>
  <circle r="0.499" cx="9" cy="-13.729" style="fill:#ED1B2E;"/>
  <circle r="0.499" cx="10.625" cy="-16.104" style="fill:#ED1B2E;"/>
  <circle r="0.499" cx="5.375" cy="-17.979" style="fill:#ED1B2E;"/>
  <circle r="0.499" cx="3.25" cy="-19.854" style="fill:#ED1B2E;"/>
  <circle r="0.499" cx="1.25" cy="-22.104" style="fill:#ED1B2E;"/>
  <circle r="0.499" cx="2.25" cy="-17.104" style="fill:#ED1B2E;"/>
  <circle r="0.499" cx="26.25" cy="-14.854" style="fill:#ED1B2E;"/>
  <circle r="0.499" cx="25.25" cy="-16.729" style="fill:#ED1B2E;"/>
  <circle r="0.499" cx="23.625" cy="-19.604" style="fill:#ED1B2E;"/>
  <circle r="0.499" cx="39.125" cy="-27.604" style="fill:#ED1B2E;"/>
  <circle r="0.499" cx="40.375" cy="-25.104" style="fill:#ED1B2E;"/>
  <circle r="0.498" cx="43.167" cy="-26.687" style="fill:#ED1B2E;"/>
  <circle r="0.499" cx="42.5" cy="-22.52" style="fill:#ED1B2E;"/>
  <circle r="0.499" cx="45.5" cy="-20.979" style="fill:#ED1B2E;"/>
  <circle r="0.499" cx="48.375" cy="-22.979" style="fill:#ED1B2E;"/>
  <circle r="0.499" cx="49.146" cy="-20.332" style="fill:#ED1B2E;"/>
  <circle r="0.499" cx="51.5" cy="-22.229" style="fill:#ED1B2E;"/>
  <circle r="0.499" cx="54.5" cy="-19.854" style="fill:#ED1B2E;"/>
  <circle r="0.498" cx="57.833" cy="-20.312" style="fill:#ED1B2E;"/>
  <circle r="0.499" cx="59.375" cy="-18.104" style="fill:#ED1B2E;"/>
  <circle r="0.499" cx="62.667" cy="-20.27" style="fill:#ED1B2E;"/>
  <circle r="0.499" cx="65.625" cy="-16.979" style="fill:#ED1B2E;"/>
  <circle r="0.499" cx="69.375" cy="-16.979" style="fill:#ED1B2E;"/>
  <circle r="0.498" cx="71.333" cy="-18.187" style="fill:#ED1B2E;"/>
  <circle r="0.499" cx="71.166" cy="-15.02" style="fill:#ED1B2E;"/>
  <circle r="0.498" cx="71.341" cy="-11.129" style="fill:#ED1B2E;"/>
  <circle r="0.499" cx="68.5" cy="-13.229" style="fill:#ED1B2E;"/>
  <circle r="0.499" cx="65.625" cy="-14.729" style="fill:#ED1B2E;"/>
  <circle r="0.499" cx="61.833" cy="-16.604" style="fill:#ED1B2E;"/>
  <circle r="0.499" cx="56.375" cy="-17.479" style="fill:#ED1B2E;"/>
  <circle r="0.499" cx="62.375" cy="-12.979" style="fill:#ED1B2E;"/>
  <circle r="0.499" cx="65.5" cy="-11.104" style="fill:#ED1B2E;"/>
  <circle r="0.499" cx="68.75" cy="-9.979" style="fill:#ED1B2E;"/>
  <circle r="0.499" cx="71.5" cy="-8.104" style="fill:#ED1B2E;"/>
  <circle r="0.499" cx="68.375" cy="-6.854" style="fill:#ED1B2E;"/>
  <circle r="0.499" cx="71.125" cy="-4.229" style="fill:#ED1B2E;"/>
  <circle r="0.498" cx="54.014" cy="-0.804" style="fill:#ED1B2E;"/>
  <circle r="0.499" cx="67.833" cy="-0.687" style="fill:#ED1B2E;"/>
  <circle r="0.498" cx="60.815" cy="-0.804" style="fill:#ED1B2E;"/>
  <circle r="0.499" cx="69.5" cy="-3.104" style="fill:#ED1B2E;"/>
  <circle r="0.499" cx="63.375" cy="-2.104" style="fill:#ED1B2E;"/>
  <circle r="0.499" cx="65.375" cy="-4.104" style="fill:#ED1B2E;"/>
  <circle r="0.499" cx="65.625" cy="-7.229" style="fill:#ED1B2E;"/>
  <circle r="0.499" cx="62.5" cy="-5.604" style="fill:#ED1B2E;"/>
  <circle r="0.499" cx="60.5" cy="-3.979" style="fill:#ED1B2E;"/>
  <circle r="0.499" cx="58.25" cy="-2.104" style="fill:#ED1B2E;"/>
  <circle r="0.499" cx="55.625" cy="-3.354" style="fill:#ED1B2E;"/>
  <circle r="0.499" cx="52.25" cy="-4.354" style="fill:#ED1B2E;"/>
  <circle r="0.499" cx="49.375" cy="-5.354" style="fill:#ED1B2E;"/>
  <circle r="0.499" cx="45.375" cy="-7.104" style="fill:#ED1B2E;"/>
  <circle r="0.499" cx="48.25" cy="-8.979" style="fill:#ED1B2E;"/>
  <circle r="0.499" cx="51.5" cy="-7.854" style="fill:#ED1B2E;"/>
  <circle r="0.499" cx="54.25" cy="-6.104" style="fill:#ED1B2E;"/>
  <circle r="0.499" cx="57.375" cy="-5.854" style="fill:#ED1B2E;"/>
  <circle r="0.499" cx="59.75" cy="-7.979" style="fill:#ED1B2E;"/>
  <circle r="0.499" cx="62.25" cy="-9.354" style="fill:#ED1B2E;"/>
  <circle r="0.499" cx="59.5" cy="-12.104" style="fill:#ED1B2E;"/>
  <circle r="0.499" cx="57.625" cy="-14.604" style="fill:#ED1B2E;"/>
  <circle r="0.499" cx="54.125" cy="-16.229" style="fill:#ED1B2E;"/>
  <circle r="0.499" cx="51.5" cy="-15.229" style="fill:#ED1B2E;"/>
  <circle r="0.499" cx="48.625" cy="-12.729" style="fill:#ED1B2E;"/>
  <circle r="0.499" cx="45.5" cy="-10.937" style="fill:#ED1B2E;"/>
  <circle r="0.499" cx="42.25" cy="-11.979" style="fill:#ED1B2E;"/>
  <circle r="0.499" cx="42.125" cy="-14.479" style="fill:#ED1B2E;"/>
  <circle r="0.499" cx="45.375" cy="-13.979" style="fill:#ED1B2E;"/>
  <circle r="0.499" cx="48.375" cy="-15.854" style="fill:#ED1B2E;"/>
  <circle r="0.499" cx="46.5" cy="-17.979" style="fill:#ED1B2E;"/>
  <circle r="0.499" cx="43.625" cy="-19.229" style="fill:#ED1B2E;"/>
  <circle r="0.499" cx="40.375" cy="-21.104" style="fill:#ED1B2E;"/>
  <circle r="0.499" cx="38.375" cy="-23.104" style="fill:#ED1B2E;"/>
  <circle r="0.499" cx="36.375" cy="-25.854" style="fill:#ED1B2E;"/>
  <circle r="0.499" cx="51.625" cy="-10.729" style="fill:#ED1B2E;"/>
  <circle r="0.499" cx="53.375" cy="-12.854" style="fill:#ED1B2E;"/>
  <circle r="0.499" cx="54.25" cy="-9.979" style="fill:#ED1B2E;"/>
  <circle r="0.499" cx="56.5" cy="-8.354" style="fill:#ED1B2E;"/>
  <circle r="0.499" cx="56.5" cy="-11.104" style="fill:#ED1B2E;"/>
  <circle r="0.499" cx="51.375" cy="-18.104" style="fill:#ED1B2E;"/>
  <circle r="0.499" cx="43.125" cy="-8.771" style="fill:#ED1B2E;"/>
  <circle r="0.498" cx="40.771" cy="-10" style="fill:#ED1B2E;"/>
  <circle r="0.499" cx="36.5" cy="-10.729" style="fill:#ED1B2E;"/>
  <circle r="0.499" cx="35.25" cy="-12.936" style="fill:#ED1B2E;"/>
  <circle r="0.499" cx="31.875" cy="-11.979" style="fill:#ED1B2E;"/>
  <circle r="0.499" cx="29.375" cy="-10.104" style="fill:#ED1B2E;"/>
  <circle r="0.499" cx="26.521" cy="-10.457" style="fill:#ED1B2E;"/>
  <circle r="0.499" cx="23.875" cy="-7.854" style="fill:#ED1B2E;"/>
  <circle r="0.499" cx="22.5" cy="-4.979" style="fill:#ED1B2E;"/>
  <circle r="0.499" cx="20.25" cy="-3.104" style="fill:#ED1B2E;"/>
  <circle r="0.499" cx="23.625" cy="-0.979" style="fill:#ED1B2E;"/>
  <circle r="0.499" cx="25.5" cy="-3.854" style="fill:#ED1B2E;"/>
  <circle r="0.499" cx="28.375" cy="-5.729" style="fill:#ED1B2E;"/>
  <circle r="0.499" cx="25.833" cy="-6.354" style="fill:#ED1B2E;"/>
  <circle r="0.499" cx="31" cy="-7.729" style="fill:#ED1B2E;"/>
  <circle r="0.499" cx="32.75" cy="-8.979" style="fill:#ED1B2E;"/>
  <circle r="0.499" cx="38.5" cy="-7.979" style="fill:#ED1B2E;"/>
  <circle r="0.499" cx="44" cy="-5.604" style="fill:#ED1B2E;"/>
  <circle r="0.499" cx="47" cy="-3.104" style="fill:#ED1B2E;"/>
  <circle r="0.499" cx="50.183" cy="-1.854" style="fill:#ED1B2E;"/>
  <circle r="0.499" cx="45.25" cy="-1.354" style="fill:#ED1B2E;"/>
  <circle r="0.499" cx="42.375" cy="-3.104" style="fill:#ED1B2E;"/>
  <circle r="0.499" cx="40.125" cy="-5.229" style="fill:#ED1B2E;"/>
  <circle r="0.499" cx="37.125" cy="-6.104" style="fill:#ED1B2E;"/>
  <circle r="0.499" cx="34.625" cy="-7.229" style="fill:#ED1B2E;"/>
  <circle r="0.499" cx="32.75" cy="-4.479" style="fill:#ED1B2E;"/>
  <circle r="0.499" cx="29.625" cy="-3.229" style="fill:#ED1B2E;"/>
  <circle r="0.499" cx="27.793" cy="-1.137" style="fill:#ED1B2E;"/>
  <circle r="0.499" cx="30.5" cy="-1.354" style="fill:#ED1B2E;"/>
  <circle r="0.499" cx="34.25" cy="-1.854" style="fill:#ED1B2E;"/>
  <circle r="0.499" cx="38.25" cy="-3.104" style="fill:#ED1B2E;"/>
  <circle r="0.499" cx="34.5" cy="-36.104" style="fill:#ED1B2E;"/>
  <circle r="0.499" cx="40.125" cy="-41.354" style="fill:#ED1B2E;"/>
  <circle r="0.498" cx="36.833" cy="-41.937" style="fill:#ED1B2E;"/>
  <circle r="0.499" cx="42.125" cy="-39.354" style="fill:#ED1B2E;"/>
  <circle r="0.499" cx="44.5" cy="-41.979" style="fill:#ED1B2E;"/>
  <circle r="0.499" cx="46.375" cy="-44.979" style="fill:#ED1B2E;"/>
  <circle r="0.499" cx="50.375" cy="-42.979" style="fill:#ED1B2E;"/>
  <circle r="0.499" cx="48.375" cy="-47.854" style="fill:#ED1B2E;"/>
  <circle r="0.499" cx="50.125" cy="-46.479" style="fill:#ED1B2E;"/>
  <circle r="0.499" cx="52.875" cy="-45.979" style="fill:#ED1B2E;"/>
  <circle r="0.498" cx="55.396" cy="-45.875" style="fill:#ED1B2E;"/>
  <circle r="0.499" cx="55.125" cy="-43.229" style="fill:#ED1B2E;"/>
  <circle r="0.499" cx="59.125" cy="-45.104" style="fill:#ED1B2E;"/>
  <circle r="0.499" cx="61.5" cy="-45.979" style="fill:#ED1B2E;"/>
  <circle r="0.499" cx="64.5" cy="-48.229" style="fill:#ED1B2E;"/>
  <circle r="0.499" cx="67.771" cy="-49.667" style="fill:#ED1B2E;"/>
  <circle r="0.498" cx="70.833" cy="-51.187" style="fill:#ED1B2E;"/>
  <circle r="0.499" cx="69.25" cy="-46.104" style="fill:#ED1B2E;"/>
  <circle r="0.498" cx="70.833" cy="-44.187" style="fill:#ED1B2E;"/>
  <circle r="0.499" cx="68.625" cy="-42.729" style="fill:#ED1B2E;"/>
  <circle r="0.499" cx="70.833" cy="-41.52" style="fill:#ED1B2E;"/>
  <circle r="0.499" cx="65.25" cy="-44.979" style="fill:#ED1B2E;"/>
  <circle r="0.499" cx="63.5" cy="-43.979" style="fill:#ED1B2E;"/>
  <circle r="0.499" cx="62.167" cy="-41.354" style="fill:#ED1B2E;"/>
  <circle r="0.499" cx="60.375" cy="-42.854" style="fill:#ED1B2E;"/>
  <circle r="0.499" cx="58.375" cy="-40.979" style="fill:#ED1B2E;"/>
  <circle r="0.499" cx="55.5" cy="-39.604" style="fill:#ED1B2E;"/>
  <circle r="0.499" cx="52.625" cy="-41.604" style="fill:#ED1B2E;"/>
  <circle r="0.499" cx="48" cy="-42.604" style="fill:#ED1B2E;"/>
  <circle r="0.499" cx="45.875" cy="-40.354" style="fill:#ED1B2E;"/>
  <circle r="0.499" cx="43.375" cy="-37.104" style="fill:#ED1B2E;"/>
  <circle r="0.499" cx="42" cy="-35.104" style="fill:#ED1B2E;"/>
  <circle r="0.499" cx="40.5" cy="-32.229" style="fill:#ED1B2E;"/>
  <circle r="0.499" cx="43.5" cy="-29.729" style="fill:#ED1B2E;"/>
  <circle r="0.499" cx="45.167" cy="-30.854" style="fill:#ED1B2E;"/>
  <circle r="0.499" cx="47.5" cy="-32.104" style="fill:#ED1B2E;"/>
  <circle r="0.499" cx="44.375" cy="-33.354" style="fill:#ED1B2E;"/>
  <circle r="0.499" cx="45.5" cy="-35.979" style="fill:#ED1B2E;"/>
  <circle r="0.499" cx="47.125" cy="-38.604" style="fill:#ED1B2E;"/>
  <circle r="0.499" cx="50.375" cy="-36.104" style="fill:#ED1B2E;"/>
  <circle r="0.499" cx="48.25" cy="-33.979" style="fill:#ED1B2E;"/>
  <circle r="0.499" cx="52.354" cy="-32.832" style="fill:#ED1B2E;"/>
  <circle r="0.499" cx="49.875" cy="-30.229" style="fill:#ED1B2E;"/>
  <circle r="0.499" cx="53.375" cy="-30.104" style="fill:#ED1B2E;"/>
  <circle r="0.499" cx="51.979" cy="-28.332" style="fill:#ED1B2E;"/>
  <circle r="0.499" cx="55.125" cy="-26.979" style="fill:#ED1B2E;"/>
  <circle r="0.499" cx="58.125" cy="-26.229" style="fill:#ED1B2E;"/>
  <circle r="0.499" cx="61.5" cy="-27.979" style="fill:#ED1B2E;"/>
  <circle r="0.499" cx="64.625" cy="-26.979" style="fill:#ED1B2E;"/>
  <circle r="0.499" cx="67.875" cy="-24.979" style="fill:#ED1B2E;"/>
  <circle r="0.499" cx="70.25" cy="-25.104" style="fill:#ED1B2E;"/>
  <circle r="0.499" cx="70.875" cy="-22.854" style="fill:#ED1B2E;"/>
  <circle r="0.499" cx="69.375" cy="-20.104" style="fill:#ED1B2E;"/>
  <circle r="0.499" cx="65.666" cy="-21.354" style="fill:#ED1B2E;"/>
  <circle r="0.499" cx="67.375" cy="-22.229" style="fill:#ED1B2E;"/>
  <circle r="0.499" cx="63.5" cy="-23.104" style="fill:#ED1B2E;"/>
  <circle r="0.499" cx="61.125" cy="-24.854" style="fill:#ED1B2E;"/>
  <circle r="0.499" cx="59.625" cy="-22.104" style="fill:#ED1B2E;"/>
  <circle r="0.499" cx="56.375" cy="-23.229" style="fill:#ED1B2E;"/>
  <circle r="0.499" cx="54.25" cy="-23.354" style="fill:#ED1B2E;"/>
  <circle r="0.499" cx="51.5" cy="-24.979" style="fill:#ED1B2E;"/>
  <circle r="0.499" cx="48.5" cy="-27.104" style="fill:#ED1B2E;"/>
  <circle r="0.499" cx="45.625" cy="-25.729" style="fill:#ED1B2E;"/>
  <circle r="0.499" cx="46.667" cy="-28.354" style="fill:#ED1B2E;"/>
  <circle r="0.499" cx="40.25" cy="-29.354" style="fill:#ED1B2E;"/>
  <circle r="0.499" cx="36.375" cy="-33.104" style="fill:#ED1B2E;"/>
  <circle r="0.499" cx="36.125" cy="-30.104" style="fill:#ED1B2E;"/>
  <circle r="0.498" cx="34.333" cy="-26.687" style="fill:#ED1B2E;"/>
  <circle r="0.499" cx="37.625" cy="-35.354" style="fill:#ED1B2E;"/>
  <circle r="0.499" cx="39.333" cy="-37.354" style="fill:#ED1B2E;"/>
  <circle r="0.499" cx="50.5" cy="-40.104" style="fill:#ED1B2E;"/>
  <circle r="0.499" cx="52" cy="-38.729" style="fill:#ED1B2E;"/>
  <circle r="0.499" cx="54.5" cy="-34.354" style="fill:#ED1B2E;"/>
  <circle r="0.499" cx="56.875" cy="-36.354" style="fill:#ED1B2E;"/>
  <circle r="0.499" cx="58.25" cy="-37.979" style="fill:#ED1B2E;"/>
  <circle r="0.499" cx="60.375" cy="-39.104" style="fill:#ED1B2E;"/>
  <circle r="0.499" cx="64.375" cy="-39.354" style="fill:#ED1B2E;"/>
  <circle r="0.499" cx="66.375" cy="-41.229" style="fill:#ED1B2E;"/>
  <circle r="0.499" cx="69.5" cy="-40.229" style="fill:#ED1B2E;"/>
  <circle r="0.499" cx="67.5" cy="-37.104" style="fill:#ED1B2E;"/>
  <circle r="0.499" cx="71" cy="-36.229" style="fill:#ED1B2E;"/>
  <circle r="0.499" cx="70.375" cy="-33.354" style="fill:#ED1B2E;"/>
  <circle r="0.499" cx="71.166" cy="-27.52" style="fill:#ED1B2E;"/>
  <circle r="0.499" cx="65.5" cy="-35.229" style="fill:#ED1B2E;"/>
  <circle r="0.499" cx="62" cy="-37.354" style="fill:#ED1B2E;"/>
  <circle r="0.499" cx="60.25" cy="-35.104" style="fill:#ED1B2E;"/>
  <circle r="0.499" cx="57.625" cy="-33.104" style="fill:#ED1B2E;"/>
  <circle r="0.499" cx="55" cy="-31.104" style="fill:#ED1B2E;"/>
  <circle r="0.499" cx="58.375" cy="-30.104" style="fill:#ED1B2E;"/>
  <circle r="0.499" cx="56.667" cy="-28.354" style="fill:#ED1B2E;"/>
  <circle r="0.498" cx="44.667" cy="-24.187" style="fill:#ED1B2E;"/>
  <circle r="0.499" cx="61" cy="-32.229" style="fill:#ED1B2E;"/>
  <circle r="0.499" cx="63.375" cy="-33.854" style="fill:#ED1B2E;"/>
  <circle r="0.499" cx="65.875" cy="-30.979" style="fill:#ED1B2E;"/>
  <circle r="0.499" cx="67.625" cy="-32.479" style="fill:#ED1B2E;"/>
  <circle r="0.499" cx="63.75" cy="-29.854" style="fill:#ED1B2E;"/>
  <circle r="0.499" cx="67.25" cy="-27.979" style="fill:#ED1B2E;"/>
  <circle r="0.499" cx="69.625" cy="-28.854" style="fill:#ED1B2E;"/>
  <circle r="0.499" cx="40.625" cy="-44.104" style="fill:#ED1B2E;"/>
  <circle r="0.499" cx="44.125" cy="-46.104" style="fill:#ED1B2E;"/>
  <circle r="0.499" cx="35.333" cy="-39.02" style="fill:#ED1B2E;"/>
  <circle r="0.499" cx="32.167" cy="-38.604" style="fill:#ED1B2E;"/>
  <circle r="0.499" cx="22.25" cy="-38.104" style="fill:#ED1B2E;"/>
  <circle r="0.498" cx="25.583" cy="-34.812" style="fill:#ED1B2E;"/>
  <circle r="0.499" cx="16" cy="-33.02" style="fill:#ED1B2E;"/>
  <circle r="0.499" cx="15.5" cy="-30.52" style="fill:#ED1B2E;"/>
  <circle r="0.499" cx="33.604" cy="-43.332" style="fill:#ED1B2E;"/>
  <circle r="0.499" cx="37.375" cy="-47.729" style="fill:#ED1B2E;"/>
  <circle r="0.499" cx="34.5" cy="-46.729" style="fill:#ED1B2E;"/>
  <circle r="0.499" cx="32.625" cy="-44.729" style="fill:#ED1B2E;"/>
  <circle r="0.499" cx="29.5" cy="-43.979" style="fill:#ED1B2E;"/>
  <circle r="0.499" cx="27.375" cy="-41.729" style="fill:#ED1B2E;"/>
  <circle r="0.499" cx="24.875" cy="-40.311" style="fill:#ED1B2E;"/>
  <circle r="0.499" cx="24.5" cy="-43.854" style="fill:#ED1B2E;"/>
  <circle r="0.498" cx="20.083" cy="-40.812" style="fill:#ED1B2E;"/>
  <circle r="0.499" cx="38.667" cy="-52.02" style="fill:#ED1B2E;"/>
  <circle r="0.498" cx="35.896" cy="-50.625" style="fill:#ED1B2E;"/>
  <circle r="0.498" cx="32.5" cy="-50.687" style="fill:#ED1B2E;"/>
  <circle r="0.499" cx="31.5" cy="-47.854" style="fill:#ED1B2E;"/>
  <circle r="0.498" cx="33.98" cy="-49" style="fill:#ED1B2E;"/>
  <circle r="0.499" cx="28.625" cy="-47.104" style="fill:#ED1B2E;"/>
  <circle r="0.499" cx="26.833" cy="-45.02" style="fill:#ED1B2E;"/>
  <circle r="0.499" cx="29.833" cy="-50.02" style="fill:#ED1B2E;"/>
  <circle r="0.498" cx="27.167" cy="-48.187" style="fill:#ED1B2E;"/>
  <circle r="0.499" cx="24.5" cy="-47.02" style="fill:#ED1B2E;"/>
  <circle r="0.499" cx="21.25" cy="-45.729" style="fill:#ED1B2E;"/>
  <circle r="0.498" cx="18.333" cy="-43.687" style="fill:#ED1B2E;"/>
  <circle r="0.498" cx="14.833" cy="-45.062" style="fill:#ED1B2E;"/>
  <circle r="0.499" cx="10" cy="-44.604" style="fill:#ED1B2E;"/>
  <circle r="0.499" cx="7.5" cy="-46.229" style="fill:#ED1B2E;"/>
  <circle r="0.499" cx="3.5" cy="-48.354" style="fill:#ED1B2E;"/>
  <circle r="0.499" cx="1" cy="-46.02" style="fill:#ED1B2E;"/>
  <circle r="0.499" cx="3.375" cy="-45.104" style="fill:#ED1B2E;"/>
  <circle r="0.499" cx="2.375" cy="-42.979" style="fill:#ED1B2E;"/>
  <circle r="0.499" cx="6.375" cy="-42.979" style="fill:#ED1B2E;"/>
  <circle r="0.499" cx="9.5" cy="-42.104" style="fill:#ED1B2E;"/>
  <circle r="0.499" cx="12.5" cy="-40.979" style="fill:#ED1B2E;"/>
  <circle r="0.499" cx="16.667" cy="-41.77" style="fill:#ED1B2E;"/>
  <circle r="0.499" cx="18.5" cy="-46.52" style="fill:#ED1B2E;"/>
  <circle r="0.499" cx="22" cy="-49.229" style="fill:#ED1B2E;"/>
  <circle r="0.499" cx="18.667" cy="-49.854" style="fill:#ED1B2E;"/>
  <circle r="0.499" cx="20.75" cy="-51.104" style="fill:#ED1B2E;"/>
  <circle r="0.498" cx="15.833" cy="-49.687" style="fill:#ED1B2E;"/>
  <circle r="0.499" cx="12.5" cy="-50.02" style="fill:#ED1B2E;"/>
  <circle r="0.498" cx="3.5" cy="-51.187" style="fill:#ED1B2E;"/>
  <circle r="0.498" cx="0.5" cy="-49.687" style="fill:#ED1B2E;"/>
  <circle r="0.499" cx="68.166" cy="-64.854" style="fill:#ED1B2E;"/>
  <circle r="0.498" cx="67.833" cy="-67.687" style="fill:#ED1B2E;"/>
  <circle r="0.499" cx="71" cy="-66.52" style="fill:#ED1B2E;"/>
  <circle r="0.499" cx="65" cy="-71.354" style="fill:#ED1B2E;"/>
  <circle r="0.498" cx="68.166" cy="-70.187" style="fill:#ED1B2E;"/>
  <circle r="0.498" cx="71" cy="-69.687" style="fill:#ED1B2E;"/>
  <circle r="0.499" cx="37.401" cy="-0.854" style="fill:#ED1B2E;"/>
  <circle r="0.499" cx="41.351" cy="-1.137" style="fill:#ED1B2E;"/>
  <circle r="0.499" cx="26.5" cy="-59.479" style="fill:#ED1B2E;"/>
  <circle r="0.499" cx="25.313" cy="-61.667" style="fill:#ED1B2E;"/>
  <circle r="0.499" cx="2.167" cy="-71.02" style="fill:#ED1B2E;"/>
 </g>
</svg>
