<?xml version="1.0"?>
<!-- Converted with SVG Converter - Version 0.9.6 (Compiled Thu Aug 31 10:01:05 2017) - Copyright (C) 2011 Nokia -->
<svg xmlns="http://www.w3.org/2000/svg" xml:space="preserve" viewBox="1 -73 72 72" y="0px" width="72" version="1.1" height="72" xmlns:xlink="http://www.w3.org/1999/xlink" baseProfile="tiny" x="0px">
 <g>
  <rect y="-73" width="72" height="72" x="1" style="fill:none;"/>
  <rect y="-73" width="72" height="72" x="1"/>
  <circle cy="-72" cx="6.98" r="0.499" style="fill:#FFFFFF;"/>
  <circle cy="-71.395" cx="9.667" r="0.499" style="fill:#FFFFFF;"/>
  <circle cy="-72.354" cx="13.833" r="0.499" style="fill:#FFFFFF;"/>
  <circle cy="-69.02" cx="8.5" r="0.499" style="fill:#FFFFFF;"/>
  <circle cy="-70.02" cx="5.5" r="0.499" style="fill:#FFFFFF;"/>
  <circle cy="-69.02" cx="1.666" r="0.499" style="fill:#FFFFFF;"/>
  <circle cy="-67.187" cx="4.667" r="0.499" style="fill:#FFFFFF;"/>
  <circle cy="-66.02" cx="7.333" r="0.499" style="fill:#FFFFFF;"/>
  <circle cy="-64.854" cx="10.5" r="0.499" style="fill:#FFFFFF;"/>
  <circle cy="-68.687" cx="12" r="0.499" style="fill:#FFFFFF;"/>
  <circle cy="-68.52" cx="15" r="0.499" style="fill:#FFFFFF;"/>
  <circle cy="-71.02" cx="17.167" r="0.499" style="fill:#FFFFFF;"/>
  <circle cy="-71.854" cx="20.333" r="0.499" style="fill:#FFFFFF;"/>
  <circle cy="-70.687" cx="22.333" r="0.499" style="fill:#FFFFFF;"/>
  <circle cy="-70.479" cx="25.75" r="0.499" style="fill:#FFFFFF;"/>
  <circle cy="-72.354" cx="27.5" r="0.499" style="fill:#FFFFFF;"/>
  <circle cy="-70.02" cx="29.333" r="0.499" style="fill:#FFFFFF;"/>
  <circle cy="-67.854" cx="27.333" r="0.499" style="fill:#FFFFFF;"/>
  <circle cy="-64.854" cx="25.5" r="0.499" style="fill:#FFFFFF;"/>
  <circle cy="-61.854" cx="23.667" r="0.499" style="fill:#FFFFFF;"/>
  <circle cy="-64.729" cx="21.875" r="0.499" style="fill:#FFFFFF;"/>
  <circle cy="-67.854" cx="23.875" r="0.499" style="fill:#FFFFFF;"/>
  <circle cy="-59.104" cx="23" r="0.499" style="fill:#FFFFFF;"/>
  <circle cy="-66.52" cx="20.833" r="0.499" style="fill:#FFFFFF;"/>
  <circle cy="-63.854" cx="19" r="0.499" style="fill:#FFFFFF;"/>
  <circle cy="-64.02" cx="16.333" r="0.499" style="fill:#FFFFFF;"/>
  <circle cy="-62.02" cx="15.5" r="0.499" style="fill:#FFFFFF;"/>
  <circle cy="-62.854" cx="12.667" r="0.499" style="fill:#FFFFFF;"/>
  <circle cy="-59.687" cx="12.5" r="0.499" style="fill:#FFFFFF;"/>
  <circle cy="-56.02" cx="11.5" r="0.499" style="fill:#FFFFFF;"/>
  <circle cy="-52.854" cx="10.667" r="0.499" style="fill:#FFFFFF;"/>
  <circle cy="-50.52" cx="10.833" r="0.499" style="fill:#FFFFFF;"/>
  <circle cy="-49.854" cx="7.667" r="0.499" style="fill:#FFFFFF;"/>
  <circle cy="-52.854" cx="8" r="0.499" style="fill:#FFFFFF;"/>
  <circle cy="-55.687" cx="8.5" r="0.499" style="fill:#FFFFFF;"/>
  <circle cy="-59.187" cx="8.833" r="0.499" style="fill:#FFFFFF;"/>
  <circle cy="-61.854" cx="9.5" r="0.499" style="fill:#FFFFFF;"/>
  <circle cy="-62.354" cx="6.333" r="0.499" style="fill:#FFFFFF;"/>
  <circle cy="-64.354" cx="3.667" r="0.499" style="fill:#FFFFFF;"/>
  <circle cy="-65.52" cx="1.833" r="0.499" style="fill:#FFFFFF;"/>
  <circle cy="-60.687" cx="2.333" r="0.499" style="fill:#FFFFFF;"/>
  <circle cy="-58.854" cx="5.333" r="0.499" style="fill:#FFFFFF;"/>
  <circle cy="-55.854" cx="4.333" r="0.499" style="fill:#FFFFFF;"/>
  <circle cy="-54.854" cx="2.5" r="0.499" style="fill:#FFFFFF;"/>
  <circle cy="-57.854" cx="2.167" r="0.499" style="fill:#FFFFFF;"/>
  <circle cy="-57.854" cx="14.333" r="0.499" style="fill:#FFFFFF;"/>
  <circle cy="-60.687" cx="18.333" r="0.499" style="fill:#FFFFFF;"/>
  <circle cy="-60.687" cx="20.5" r="0.499" style="fill:#FFFFFF;"/>
  <circle cy="-56.854" cx="20" r="0.499" style="fill:#FFFFFF;"/>
  <circle cy="-57.604" cx="17.875" r="0.499" style="fill:#FFFFFF;"/>
  <circle cy="-54.687" cx="19.833" r="0.499" style="fill:#FFFFFF;"/>
  <circle cy="-53.854" cx="16.5" r="0.499" style="fill:#FFFFFF;"/>
  <circle cy="-55.02" cx="14.167" r="0.499" style="fill:#FFFFFF;"/>
  <circle cy="-65.854" cx="14" r="0.499" style="fill:#FFFFFF;"/>
  <circle cy="-66.52" cx="17.667" r="0.499" style="fill:#FFFFFF;"/>
  <circle cy="-68.687" cx="19" r="0.499" style="fill:#FFFFFF;"/>
  <circle cy="-71.687" cx="32" r="0.499" style="fill:#FFFFFF;"/>
  <circle cy="-72.187" cx="34.833" r="0.499" style="fill:#FFFFFF;"/>
  <circle cy="-69.854" cx="35.5" r="0.499" style="fill:#FFFFFF;"/>
  <circle cy="-72.041" cx="38" r="0.499" style="fill:#FFFFFF;"/>
  <circle cy="-72.187" cx="41.333" r="0.499" style="fill:#FFFFFF;"/>
  <circle cy="-67.854" cx="33.125" r="0.499" style="fill:#FFFFFF;"/>
  <circle cy="-67.854" cx="30" r="0.499" style="fill:#FFFFFF;"/>
  <circle cy="-62.354" cx="28.833" r="0.499" style="fill:#FFFFFF;"/>
  <circle cy="-65.229" cx="30.667" r="0.499" style="fill:#FFFFFF;"/>
  <circle cy="-65.854" cx="28.5" r="0.499" style="fill:#FFFFFF;"/>
  <circle cy="-66.52" cx="35.167" r="0.499" style="fill:#FFFFFF;"/>
  <circle cy="-68.354" cx="38.167" r="0.499" style="fill:#FFFFFF;"/>
  <circle cy="-70.02" cx="41.5" r="0.499" style="fill:#FFFFFF;"/>
  <circle cy="-71.187" cx="44.333" r="0.499" style="fill:#FFFFFF;"/>
  <circle cy="-72.187" cx="47.5" r="0.499" style="fill:#FFFFFF;"/>
  <circle cy="-72.02" cx="51.333" r="0.499" style="fill:#FFFFFF;"/>
  <circle cy="-68.729" cx="47.167" r="0.499" style="fill:#FFFFFF;"/>
  <circle cy="-68.125" cx="44.021" r="0.499" style="fill:#FFFFFF;"/>
  <circle cy="-65.562" cx="41.833" r="0.499" style="fill:#FFFFFF;"/>
  <circle cy="-66.354" cx="39.333" r="0.499" style="fill:#FFFFFF;"/>
  <circle cy="-63.854" cx="38.75" r="0.499" style="fill:#FFFFFF;"/>
  <circle cy="-61.729" cx="35.5" r="0.499" style="fill:#FFFFFF;"/>
  <circle cy="-60.854" cx="32.333" r="0.499" style="fill:#FFFFFF;"/>
  <circle cy="-59.52" cx="29.333" r="0.499" style="fill:#FFFFFF;"/>
  <circle cy="-58.727" cx="34.5" r="0.499" style="fill:#FFFFFF;"/>
  <circle cy="-58.187" cx="30.667" r="0.499" style="fill:#FFFFFF;"/>
  <circle cy="-55.854" cx="28.667" r="0.499" style="fill:#FFFFFF;"/>
  <circle cy="-58.02" cx="26.167" r="0.499" style="fill:#FFFFFF;"/>
  <circle cy="-54.52" cx="26" r="0.499" style="fill:#FFFFFF;"/>
  <circle cy="-55.604" cx="24" r="0.499" style="fill:#FFFFFF;"/>
  <circle cy="-52.187" cx="25.667" r="0.499" style="fill:#FFFFFF;"/>
  <circle cy="-52.854" cx="28.5" r="0.499" style="fill:#FFFFFF;"/>
  <circle cy="-54.207" cx="31.854" r="0.499" style="fill:#FFFFFF;"/>
  <circle cy="-55.02" cx="34" r="0.499" style="fill:#FFFFFF;"/>
  <circle cy="-56.687" cx="33.167" r="0.499" style="fill:#FFFFFF;"/>
  <circle cy="-55.52" cx="36.667" r="0.499" style="fill:#FFFFFF;"/>
  <circle cy="-58.02" cx="37.167" r="0.499" style="fill:#FFFFFF;"/>
  <circle cy="-60.354" cx="38.667" r="0.499" style="fill:#FFFFFF;"/>
  <circle cy="-62.187" cx="41.333" r="0.499" style="fill:#FFFFFF;"/>
  <circle cy="-63.52" cx="44" r="0.499" style="fill:#FFFFFF;"/>
  <circle cy="-65.874" cx="45.313" r="0.499" style="fill:#FFFFFF;"/>
  <circle cy="-66.812" cx="49.083" r="0.499" style="fill:#FFFFFF;"/>
  <circle cy="-69.812" cx="50.083" r="0.499" style="fill:#FFFFFF;"/>
  <circle cy="-71.52" cx="54.167" r="0.499" style="fill:#FFFFFF;"/>
  <circle cy="-72.354" cx="57.5" r="0.499" style="fill:#FFFFFF;"/>
  <circle cy="-72.354" cx="63.167" r="0.499" style="fill:#FFFFFF;"/>
  <circle cy="-71.02" cx="60" r="0.499" style="fill:#FFFFFF;"/>
  <circle cy="-68.062" cx="58.5" r="0.499" style="fill:#FFFFFF;"/>
  <circle cy="-67.729" cx="55.125" r="0.499" style="fill:#FFFFFF;"/>
  <circle cy="-62.729" cx="65.166" r="0.499" style="fill:#FFFFFF;"/>
  <circle cy="-66.312" cx="51.833" r="0.499" style="fill:#FFFFFF;"/>
  <circle cy="-64.062" cx="33.167" r="0.499" style="fill:#FFFFFF;"/>
  <circle cy="-64.52" cx="36.167" r="0.499" style="fill:#FFFFFF;"/>
  <circle cy="-69.187" cx="53.333" r="0.499" style="fill:#FFFFFF;"/>
  <circle cy="-63.207" cx="46.687" r="0.499" style="fill:#FFFFFF;"/>
  <circle cy="-60.77" cx="44.333" r="0.499" style="fill:#FFFFFF;"/>
  <circle cy="-58.854" cx="41.667" r="0.499" style="fill:#FFFFFF;"/>
  <circle cy="-56.02" cx="39.667" r="0.499" style="fill:#FFFFFF;"/>
  <circle cy="-54.395" cx="42.833" r="0.499" style="fill:#FFFFFF;"/>
  <circle cy="-57.02" cx="44" r="0.499" style="fill:#FFFFFF;"/>
  <circle cy="-61.062" cx="49.5" r="0.499" style="fill:#FFFFFF;"/>
  <circle cy="-63.561" cx="51.333" r="0.499" style="fill:#FFFFFF;"/>
  <circle cy="-64.854" cx="49.167" r="0.499" style="fill:#FFFFFF;"/>
  <circle cy="-64.894" cx="54.333" r="0.499" style="fill:#FFFFFF;"/>
  <circle cy="-65.395" cx="57.5" r="0.499" style="fill:#FFFFFF;"/>
  <circle cy="-67.02" cx="60.5" r="0.499" style="fill:#FFFFFF;"/>
  <circle cy="-69.52" cx="62.333" r="0.499" style="fill:#FFFFFF;"/>
  <circle cy="-68.854" cx="66.333" r="0.499" style="fill:#FFFFFF;"/>
  <circle cy="-70.187" cx="64.833" r="0.499" style="fill:#FFFFFF;"/>
  <circle cy="-67.187" cx="63.5" r="0.499" style="fill:#FFFFFF;"/>
  <circle cy="-64.854" cx="60.667" r="0.499" style="fill:#FFFFFF;"/>
  <circle cy="-61.854" cx="57.5" r="0.499" style="fill:#FFFFFF;"/>
  <circle cy="-62.02" cx="54.333" r="0.499" style="fill:#FFFFFF;"/>
  <circle cy="-58.854" cx="48.333" r="0.499" style="fill:#FFFFFF;"/>
  <circle cy="-55.52" cx="48.167" r="0.499" style="fill:#FFFFFF;"/>
  <circle cy="-56.104" cx="45.75" r="0.499" style="fill:#FFFFFF;"/>
  <circle cy="-52.354" cx="45.875" r="0.499" style="fill:#FFFFFF;"/>
  <circle cy="-66.187" cx="66.166" r="0.499" style="fill:#FFFFFF;"/>
  <circle cy="-64.207" cx="63.313" r="0.499" style="fill:#FFFFFF;"/>
  <circle cy="-61.562" cx="61" r="0.499" style="fill:#FFFFFF;"/>
  <circle cy="-59.354" cx="58.167" r="0.499" style="fill:#FFFFFF;"/>
  <circle cy="-59.187" cx="55.5" r="0.499" style="fill:#FFFFFF;"/>
  <circle cy="-57.02" cx="53.5" r="0.499" style="fill:#FFFFFF;"/>
  <circle cy="-54.354" cx="50.833" r="0.499" style="fill:#FFFFFF;"/>
  <circle cy="-53.854" cx="53.667" r="0.499" style="fill:#FFFFFF;"/>
  <circle cy="-56.02" cx="55.833" r="0.499" style="fill:#FFFFFF;"/>
  <circle cy="-56.187" cx="58.5" r="0.499" style="fill:#FFFFFF;"/>
  <circle cy="-60.062" cx="63" r="0.499" style="fill:#FFFFFF;"/>
  <circle cy="-63.229" cx="68.833" r="0.499" style="fill:#FFFFFF;"/>
  <circle cy="-61.02" cx="67" r="0.499" style="fill:#FFFFFF;"/>
  <circle cy="-63.187" cx="72.5" r="0.499" style="fill:#FFFFFF;"/>
  <circle cy="-61.02" cx="69.5" r="0.499" style="fill:#FFFFFF;"/>
  <circle cy="-58.854" cx="67.5" r="0.499" style="fill:#FFFFFF;"/>
  <circle cy="-57.854" cx="70.5" r="0.499" style="fill:#FFFFFF;"/>
  <circle cy="-60.02" cx="72" r="0.499" style="fill:#FFFFFF;"/>
  <circle cy="-57.854" cx="64.333" r="0.499" style="fill:#FFFFFF;"/>
  <circle cy="-56.979" cx="61.625" r="0.499" style="fill:#FFFFFF;"/>
  <circle cy="-54.854" cx="62.25" r="0.499" style="fill:#FFFFFF;"/>
  <circle cy="-54.104" cx="59.5" r="0.499" style="fill:#FFFFFF;"/>
  <circle cy="-55.52" cx="65.333" r="0.499" style="fill:#FFFFFF;"/>
  <circle cy="-55.02" cx="68.5" r="0.499" style="fill:#FFFFFF;"/>
  <circle cy="-55.02" cx="71.666" r="0.499" style="fill:#FFFFFF;"/>
  <circle cy="-53.187" cx="69.5" r="0.499" style="fill:#FFFFFF;"/>
  <circle cy="-53.02" cx="66.5" r="0.499" style="fill:#FFFFFF;"/>
  <circle cy="-51.854" cx="63.5" r="0.499" style="fill:#FFFFFF;"/>
  <circle cy="-51.854" cx="60.167" r="0.499" style="fill:#FFFFFF;"/>
  <circle cy="-49.854" cx="61.333" r="0.499" style="fill:#FFFFFF;"/>
  <circle cy="-48.354" cx="68" r="0.499" style="fill:#FFFFFF;"/>
  <circle cy="-59.227" cx="52.5" r="0.499" style="fill:#FFFFFF;"/>
  <circle cy="-69.854" cx="55.833" r="0.499" style="fill:#FFFFFF;"/>
  <circle cy="-48.354" cx="58.75" r="0.499" style="fill:#FFFFFF;"/>
  <circle cy="-52.854" cx="56.75" r="0.499" style="fill:#FFFFFF;"/>
  <circle cy="-50.479" cx="53.75" r="0.499" style="fill:#FFFFFF;"/>
  <circle cy="-49.02" cx="55.667" r="0.499" style="fill:#FFFFFF;"/>
  <circle cy="-50.854" cx="58" r="0.499" style="fill:#FFFFFF;"/>
  <circle cy="-51.187" cx="51.333" r="0.499" style="fill:#FFFFFF;"/>
  <circle cy="-52.02" cx="48.167" r="0.499" style="fill:#FFFFFF;"/>
  <circle cy="-50.02" cx="45.333" r="0.499" style="fill:#FFFFFF;"/>
  <circle cy="-51.541" cx="42.313" r="0.499" style="fill:#FFFFFF;"/>
  <circle cy="-49.354" cx="41.125" r="0.499" style="fill:#FFFFFF;"/>
  <circle cy="-47.354" cx="42.833" r="0.499" style="fill:#FFFFFF;"/>
  <circle cy="-46.104" cx="38.167" r="0.499" style="fill:#FFFFFF;"/>
  <circle cy="-42.437" cx="32.167" r="0.499" style="fill:#FFFFFF;"/>
  <circle cy="-39.479" cx="28" r="0.499" style="fill:#FFFFFF;"/>
  <circle cy="-39.312" cx="19.833" r="0.499" style="fill:#FFFFFF;"/>
  <circle cy="-43.394" cx="23.833" r="0.499" style="fill:#FFFFFF;"/>
  <circle cy="-43.77" cx="15.167" r="0.499" style="fill:#FFFFFF;"/>
  <circle cy="-47.437" cx="12.667" r="0.499" style="fill:#FFFFFF;"/>
  <circle cy="-36.812" cx="24.583" r="0.499" style="fill:#FFFFFF;"/>
  <circle cy="-33.354" cx="22.5" r="0.499" style="fill:#FFFFFF;"/>
  <circle cy="-31.229" cx="25.125" r="0.499" style="fill:#FFFFFF;"/>
  <circle cy="-32.895" cx="20" r="0.499" style="fill:#FFFFFF;"/>
  <circle cy="-17.854" cx="14.333" r="0.499" style="fill:#FFFFFF;"/>
  <circle cy="-30.561" cx="19.167" r="0.499" style="fill:#FFFFFF;"/>
  <circle cy="-34.104" cx="14.5" r="0.499" style="fill:#FFFFFF;"/>
  <circle cy="-36.104" cx="10.75" r="0.499" style="fill:#FFFFFF;"/>
  <circle cy="-40.354" cx="11.25" r="0.499" style="fill:#FFFFFF;"/>
  <circle cy="-38.604" cx="5.875" r="0.499" style="fill:#FFFFFF;"/>
  <circle cy="-40.104" cx="2.625" r="0.499" style="fill:#FFFFFF;"/>
  <circle cy="-41.354" cx="6.375" r="0.499" style="fill:#FFFFFF;"/>
  <circle cy="-39.729" cx="8.5" r="0.499" style="fill:#FFFFFF;"/>
  <circle cy="-37.332" cx="13.854" r="0.499" style="fill:#FFFFFF;"/>
  <circle cy="-37.979" cx="16.375" r="0.499" style="fill:#FFFFFF;"/>
  <circle cy="-40.229" cx="14.375" r="0.499" style="fill:#FFFFFF;"/>
  <circle cy="-40.354" cx="17.5" r="0.499" style="fill:#FFFFFF;"/>
  <circle cy="-36.354" cx="18" r="0.499" style="fill:#FFFFFF;"/>
  <circle cy="-36.562" cx="21.167" r="0.499" style="fill:#FFFFFF;"/>
  <circle cy="-33.104" cx="25.625" r="0.499" style="fill:#FFFFFF;"/>
  <circle cy="-37.436" cx="30" r="0.499" style="fill:#FFFFFF;"/>
  <circle cy="-34.979" cx="32.875" r="0.499" style="fill:#FFFFFF;"/>
  <circle cy="-32.979" cx="31.875" r="0.499" style="fill:#FFFFFF;"/>
  <circle cy="-32.229" cx="34.375" r="0.499" style="fill:#FFFFFF;"/>
  <circle cy="-30.104" cx="34.75" r="0.499" style="fill:#FFFFFF;"/>
  <circle cy="-26.979" cx="33.625" r="0.499" style="fill:#FFFFFF;"/>
  <circle cy="-24.354" cx="33.25" r="0.499" style="fill:#FFFFFF;"/>
  <circle cy="-20.729" cx="34.875" r="0.499" style="fill:#FFFFFF;"/>
  <circle cy="-23.686" cx="37" r="0.499" style="fill:#FFFFFF;"/>
  <circle cy="-20.854" cx="39.125" r="0.499" style="fill:#FFFFFF;"/>
  <circle cy="-18.354" cx="37.125" r="0.499" style="fill:#FFFFFF;"/>
  <circle cy="-18.104" cx="43.5" r="0.499" style="fill:#FFFFFF;"/>
  <circle cy="-18.229" cx="40.375" r="0.499" style="fill:#FFFFFF;"/>
  <circle cy="-14.979" cx="38.375" r="0.499" style="fill:#FFFFFF;"/>
  <circle cy="-15.979" cx="34.5" r="0.499" style="fill:#FFFFFF;"/>
  <circle cy="-18.854" cx="33.375" r="0.499" style="fill:#FFFFFF;"/>
  <circle cy="-21.104" cx="31.875" r="0.499" style="fill:#FFFFFF;"/>
  <circle cy="-23.979" cx="30.75" r="0.499" style="fill:#FFFFFF;"/>
  <circle cy="-26.687" cx="30" r="0.499" style="fill:#FFFFFF;"/>
  <circle cy="-29.229" cx="31.625" r="0.499" style="fill:#FFFFFF;"/>
  <circle cy="-31.687" cx="28.167" r="0.499" style="fill:#FFFFFF;"/>
  <circle cy="-34.895" cx="29" r="0.499" style="fill:#FFFFFF;"/>
  <circle cy="-29.604" cx="28.75" r="0.499" style="fill:#FFFFFF;"/>
  <circle cy="-28.104" cx="26.375" r="0.499" style="fill:#FFFFFF;"/>
  <circle cy="-25.104" cx="27.375" r="0.499" style="fill:#FFFFFF;"/>
  <circle cy="-22.02" cx="27.5" r="0.499" style="fill:#FFFFFF;"/>
  <circle cy="-19.187" cx="28.833" r="0.499" style="fill:#FFFFFF;"/>
  <circle cy="-17.354" cx="30" r="0.499" style="fill:#FFFFFF;"/>
  <circle cy="-15.479" cx="31.125" r="0.499" style="fill:#FFFFFF;"/>
  <circle cy="-13.229" cx="29.75" r="0.499" style="fill:#FFFFFF;"/>
  <circle cy="-13.354" cx="26" r="0.499" style="fill:#FFFFFF;"/>
  <circle cy="-15.979" cx="23.5" r="0.499" style="fill:#FFFFFF;"/>
  <circle cy="-13.979" cx="21.5" r="0.499" style="fill:#FFFFFF;"/>
  <circle cy="-57.187" cx="50.333" r="0.499" style="fill:#FFFFFF;"/>
  <circle cy="-9.479" cx="18.25" r="0.499" style="fill:#FFFFFF;"/>
  <circle cy="-10.104" cx="21.375" r="0.499" style="fill:#FFFFFF;"/>
  <circle cy="-7.854" cx="22.333" r="0.499" style="fill:#FFFFFF;"/>
  <circle cy="-10.979" cx="24.25" r="0.499" style="fill:#FFFFFF;"/>
  <circle cy="-7.062" cx="19.5" r="0.499" style="fill:#FFFFFF;"/>
  <circle cy="-3.104" cx="17.25" r="0.499" style="fill:#FFFFFF;"/>
  <circle cy="-5.562" cx="15.833" r="0.499" style="fill:#FFFFFF;"/>
  <circle cy="-3.104" cx="12.5" r="0.499" style="fill:#FFFFFF;"/>
  <circle cy="-5.332" cx="11.021" r="0.499" style="fill:#FFFFFF;"/>
  <circle cy="-6.979" cx="13.5" r="0.499" style="fill:#FFFFFF;"/>
  <circle cy="-9.854" cx="14.5" r="0.499" style="fill:#FFFFFF;"/>
  <circle cy="-8.187" cx="15.5" r="0.499" style="fill:#FFFFFF;"/>
  <circle cy="-4.187" cx="18.833" r="0.499" style="fill:#FFFFFF;"/>
  <circle cy="-2.02" cx="20.5" r="0.498" style="fill:#FFFFFF;"/>
  <circle cy="-1.604" cx="9.75" r="0.499" style="fill:#FFFFFF;"/>
  <circle cy="-1.92" cx="15" r="0.499" style="fill:#FFFFFF;"/>
  <circle cy="-12.104" cx="10.5" r="0.499" style="fill:#FFFFFF;"/>
  <circle cy="-9.979" cx="12" r="0.499" style="fill:#FFFFFF;"/>
  <circle cy="-9.979" cx="8.375" r="0.499" style="fill:#FFFFFF;"/>
  <circle cy="-10.854" cx="5.75" r="0.499" style="fill:#FFFFFF;"/>
  <circle cy="-9.229" cx="3.25" r="0.499" style="fill:#FFFFFF;"/>
  <circle cy="-7.104" cx="5.375" r="0.499" style="fill:#FFFFFF;"/>
  <circle cy="-7.104" cx="9.125" r="0.499" style="fill:#FFFFFF;"/>
  <circle cy="-4.104" cx="8.25" r="0.499" style="fill:#FFFFFF;"/>
  <circle cy="-3.979" cx="5.5" r="0.499" style="fill:#FFFFFF;"/>
  <circle cy="-5.229" cx="3.25" r="0.499" style="fill:#FFFFFF;"/>
  <circle cy="-3.104" cx="1.5" r="0.499" style="fill:#FFFFFF;"/>
  <circle cy="-1.795" cx="4.635" r="0.499" style="fill:#FFFFFF;"/>
  <circle cy="-48.604" cx="16" r="0.499" style="fill:#FFFFFF;"/>
  <circle cy="-13.062" cx="14.333" r="0.499" style="fill:#FFFFFF;"/>
  <circle cy="-14.854" cx="12.167" r="0.499" style="fill:#FFFFFF;"/>
  <circle cy="-22.854" cx="10.5" r="0.499" style="fill:#FFFFFF;"/>
  <circle cy="-26.687" cx="10.5" r="0.499" style="fill:#FFFFFF;"/>
  <circle cy="-15.687" cx="15.167" r="0.499" style="fill:#FFFFFF;"/>
  <circle cy="-12.729" cx="17.5" r="0.499" style="fill:#FFFFFF;"/>
  <circle cy="-19.687" cx="16.667" r="0.499" style="fill:#FFFFFF;"/>
  <circle cy="-12.521" cx="22.167" r="0.498" style="fill:#FFFFFF;"/>
  <circle cy="-17.687" cx="19.667" r="0.499" style="fill:#FFFFFF;"/>
  <circle cy="-18.979" cx="22.375" r="0.499" style="fill:#FFFFFF;"/>
  <circle cy="-22.229" cx="22" r="0.499" style="fill:#FFFFFF;"/>
  <circle cy="-22.812" cx="16.583" r="0.499" style="fill:#FFFFFF;"/>
  <circle cy="-20.104" cx="19.375" r="0.499" style="fill:#FFFFFF;"/>
  <circle cy="-15.687" cx="18.333" r="0.499" style="fill:#FFFFFF;"/>
  <circle cy="-26.062" cx="16.083" r="0.499" style="fill:#FFFFFF;"/>
  <circle cy="-23.729" cx="19" r="0.499" style="fill:#FFFFFF;"/>
  <circle cy="-26.229" cx="21.667" r="0.499" style="fill:#FFFFFF;"/>
  <circle cy="-23.686" cx="24.375" r="0.499" style="fill:#FFFFFF;"/>
  <circle cy="-26.104" cx="24.375" r="0.499" style="fill:#FFFFFF;"/>
  <circle cy="-29.686" cx="22.25" r="0.499" style="fill:#FFFFFF;"/>
  <circle cy="-28.104" cx="19" r="0.499" style="fill:#FFFFFF;"/>
  <circle cy="-29.104" cx="16.25" r="0.499" style="fill:#FFFFFF;"/>
  <circle cy="-31.332" cx="13.75" r="0.499" style="fill:#FFFFFF;"/>
  <circle cy="-32.979" cx="11.5" r="0.499" style="fill:#FFFFFF;"/>
  <circle cy="-33.104" cx="7.75" r="0.499" style="fill:#FFFFFF;"/>
  <circle cy="-35.354" cx="8" r="0.499" style="fill:#FFFFFF;"/>
  <circle cy="-35.104" cx="5.625" r="0.499" style="fill:#FFFFFF;"/>
  <circle cy="-36.229" cx="2.5" r="0.499" style="fill:#FFFFFF;"/>
  <circle cy="-33.104" cx="3.5" r="0.499" style="fill:#FFFFFF;"/>
  <circle cy="-30.979" cx="4.5" r="0.499" style="fill:#FFFFFF;"/>
  <circle cy="-27.979" cx="6.25" r="0.499" style="fill:#FFFFFF;"/>
  <circle cy="-25.979" cx="8.125" r="0.499" style="fill:#FFFFFF;"/>
  <circle cy="-23.104" cx="13.375" r="0.499" style="fill:#FFFFFF;"/>
  <circle cy="-20.104" cx="13.5" r="0.499" style="fill:#FFFFFF;"/>
  <circle cy="-20.5" cx="10.771" r="0.499" style="fill:#FFFFFF;"/>
  <circle cy="-21.979" cx="8.375" r="0.499" style="fill:#FFFFFF;"/>
  <circle cy="-23.979" cx="6.5" r="0.499" style="fill:#FFFFFF;"/>
  <circle cy="-25.979" cx="4.375" r="0.499" style="fill:#FFFFFF;"/>
  <circle cy="-27.979" cx="2.5" r="0.499" style="fill:#FFFFFF;"/>
  <circle cy="-30.104" cx="8.375" r="0.499" style="fill:#FFFFFF;"/>
  <circle cy="-30.02" cx="11" r="0.499" style="fill:#FFFFFF;"/>
  <circle cy="-25.354" cx="13.167" r="0.499" style="fill:#FFFFFF;"/>
  <circle cy="-28.187" cx="13.333" r="0.499" style="fill:#FFFFFF;"/>
  <circle cy="-17.125" cx="8.396" r="0.499" style="fill:#FFFFFF;"/>
  <circle cy="-15.854" cx="5.5" r="0.499" style="fill:#FFFFFF;"/>
  <circle cy="-12.854" cx="3.5" r="0.499" style="fill:#FFFFFF;"/>
  <circle cy="-14.104" cx="1.659" r="0.499" style="fill:#FFFFFF;"/>
  <circle cy="-14.332" cx="7.021" r="0.499" style="fill:#FFFFFF;"/>
  <circle cy="-14.729" cx="10" r="0.499" style="fill:#FFFFFF;"/>
  <circle cy="-17.104" cx="11.625" r="0.499" style="fill:#FFFFFF;"/>
  <circle cy="-18.979" cx="6.375" r="0.499" style="fill:#FFFFFF;"/>
  <circle cy="-20.854" cx="4.25" r="0.499" style="fill:#FFFFFF;"/>
  <circle cy="-23.104" cx="2.25" r="0.499" style="fill:#FFFFFF;"/>
  <circle cy="-18.104" cx="3.25" r="0.499" style="fill:#FFFFFF;"/>
  <circle cy="-15.854" cx="27.25" r="0.499" style="fill:#FFFFFF;"/>
  <circle cy="-17.729" cx="26.25" r="0.499" style="fill:#FFFFFF;"/>
  <circle cy="-20.604" cx="24.625" r="0.499" style="fill:#FFFFFF;"/>
  <circle cy="-28.604" cx="40.125" r="0.499" style="fill:#FFFFFF;"/>
  <circle cy="-26.104" cx="41.375" r="0.499" style="fill:#FFFFFF;"/>
  <circle cy="-27.687" cx="44.167" r="0.499" style="fill:#FFFFFF;"/>
  <circle cy="-23.52" cx="43.5" r="0.499" style="fill:#FFFFFF;"/>
  <circle cy="-21.979" cx="46.5" r="0.499" style="fill:#FFFFFF;"/>
  <circle cy="-23.979" cx="49.375" r="0.499" style="fill:#FFFFFF;"/>
  <circle cy="-21.332" cx="50.146" r="0.499" style="fill:#FFFFFF;"/>
  <circle cy="-23.229" cx="52.5" r="0.499" style="fill:#FFFFFF;"/>
  <circle cy="-20.854" cx="55.5" r="0.499" style="fill:#FFFFFF;"/>
  <circle cy="-21.312" cx="58.833" r="0.499" style="fill:#FFFFFF;"/>
  <circle cy="-19.104" cx="60.375" r="0.499" style="fill:#FFFFFF;"/>
  <circle cy="-21.27" cx="63.667" r="0.499" style="fill:#FFFFFF;"/>
  <circle cy="-17.979" cx="66.625" r="0.499" style="fill:#FFFFFF;"/>
  <circle cy="-17.979" cx="70.375" r="0.499" style="fill:#FFFFFF;"/>
  <circle cy="-19.187" cx="72.333" r="0.499" style="fill:#FFFFFF;"/>
  <circle cy="-16.02" cx="72.166" r="0.499" style="fill:#FFFFFF;"/>
  <circle cy="-12.129" cx="72.341" r="0.498" style="fill:#FFFFFF;"/>
  <circle cy="-14.229" cx="69.5" r="0.499" style="fill:#FFFFFF;"/>
  <circle cy="-15.729" cx="66.625" r="0.499" style="fill:#FFFFFF;"/>
  <circle cy="-17.604" cx="62.833" r="0.499" style="fill:#FFFFFF;"/>
  <circle cy="-18.479" cx="57.375" r="0.499" style="fill:#FFFFFF;"/>
  <circle cy="-13.979" cx="63.375" r="0.499" style="fill:#FFFFFF;"/>
  <circle cy="-12.104" cx="66.5" r="0.499" style="fill:#FFFFFF;"/>
  <circle cy="-10.979" cx="69.75" r="0.499" style="fill:#FFFFFF;"/>
  <circle cy="-9.104" cx="72.5" r="0.499" style="fill:#FFFFFF;"/>
  <circle cy="-7.854" cx="69.375" r="0.499" style="fill:#FFFFFF;"/>
  <circle cy="-5.229" cx="72.125" r="0.499" style="fill:#FFFFFF;"/>
  <circle cy="-1.804" cx="55.014" r="0.499" style="fill:#FFFFFF;"/>
  <circle cy="-1.687" cx="68.833" r="0.499" style="fill:#FFFFFF;"/>
  <circle cy="-1.804" cx="61.815" r="0.499" style="fill:#FFFFFF;"/>
  <circle cy="-4.104" cx="70.5" r="0.499" style="fill:#FFFFFF;"/>
  <circle cy="-3.104" cx="64.375" r="0.499" style="fill:#FFFFFF;"/>
  <circle cy="-5.104" cx="66.375" r="0.499" style="fill:#FFFFFF;"/>
  <circle cy="-8.229" cx="66.625" r="0.499" style="fill:#FFFFFF;"/>
  <circle cy="-6.604" cx="63.5" r="0.499" style="fill:#FFFFFF;"/>
  <circle cy="-4.979" cx="61.5" r="0.499" style="fill:#FFFFFF;"/>
  <circle cy="-3.104" cx="59.25" r="0.499" style="fill:#FFFFFF;"/>
  <circle cy="-4.354" cx="56.625" r="0.499" style="fill:#FFFFFF;"/>
  <circle cy="-5.354" cx="53.25" r="0.499" style="fill:#FFFFFF;"/>
  <circle cy="-6.354" cx="50.375" r="0.499" style="fill:#FFFFFF;"/>
  <circle cy="-8.104" cx="46.375" r="0.499" style="fill:#FFFFFF;"/>
  <circle cy="-9.979" cx="49.25" r="0.499" style="fill:#FFFFFF;"/>
  <circle cy="-8.854" cx="52.5" r="0.499" style="fill:#FFFFFF;"/>
  <circle cy="-7.104" cx="55.25" r="0.499" style="fill:#FFFFFF;"/>
  <circle cy="-6.854" cx="58.375" r="0.499" style="fill:#FFFFFF;"/>
  <circle cy="-8.979" cx="60.75" r="0.499" style="fill:#FFFFFF;"/>
  <circle cy="-10.354" cx="63.25" r="0.499" style="fill:#FFFFFF;"/>
  <circle cy="-13.104" cx="60.5" r="0.499" style="fill:#FFFFFF;"/>
  <circle cy="-15.604" cx="58.625" r="0.499" style="fill:#FFFFFF;"/>
  <circle cy="-17.229" cx="55.125" r="0.499" style="fill:#FFFFFF;"/>
  <circle cy="-16.229" cx="52.5" r="0.499" style="fill:#FFFFFF;"/>
  <circle cy="-13.729" cx="49.625" r="0.499" style="fill:#FFFFFF;"/>
  <circle cy="-11.937" cx="46.5" r="0.499" style="fill:#FFFFFF;"/>
  <circle cy="-12.979" cx="43.25" r="0.499" style="fill:#FFFFFF;"/>
  <circle cy="-15.479" cx="43.125" r="0.499" style="fill:#FFFFFF;"/>
  <circle cy="-14.979" cx="46.375" r="0.499" style="fill:#FFFFFF;"/>
  <circle cy="-16.854" cx="49.375" r="0.499" style="fill:#FFFFFF;"/>
  <circle cy="-18.979" cx="47.5" r="0.499" style="fill:#FFFFFF;"/>
  <circle cy="-20.229" cx="44.625" r="0.499" style="fill:#FFFFFF;"/>
  <circle cy="-22.104" cx="41.375" r="0.499" style="fill:#FFFFFF;"/>
  <circle cy="-24.104" cx="39.375" r="0.499" style="fill:#FFFFFF;"/>
  <circle cy="-26.854" cx="37.375" r="0.499" style="fill:#FFFFFF;"/>
  <circle cy="-11.729" cx="52.625" r="0.499" style="fill:#FFFFFF;"/>
  <circle cy="-13.854" cx="54.375" r="0.499" style="fill:#FFFFFF;"/>
  <circle cy="-10.979" cx="55.25" r="0.499" style="fill:#FFFFFF;"/>
  <circle cy="-9.354" cx="57.5" r="0.499" style="fill:#FFFFFF;"/>
  <circle cy="-12.104" cx="57.5" r="0.499" style="fill:#FFFFFF;"/>
  <circle cy="-19.104" cx="52.375" r="0.499" style="fill:#FFFFFF;"/>
  <circle cy="-9.771" cx="44.125" r="0.499" style="fill:#FFFFFF;"/>
  <circle cy="-11" cx="41.771" r="0.499" style="fill:#FFFFFF;"/>
  <circle cy="-11.729" cx="37.5" r="0.499" style="fill:#FFFFFF;"/>
  <circle cy="-13.936" cx="36.25" r="0.499" style="fill:#FFFFFF;"/>
  <circle cy="-12.979" cx="32.875" r="0.499" style="fill:#FFFFFF;"/>
  <circle cy="-11.104" cx="30.375" r="0.499" style="fill:#FFFFFF;"/>
  <circle cy="-11.457" cx="27.521" r="0.499" style="fill:#FFFFFF;"/>
  <circle cy="-8.854" cx="24.875" r="0.499" style="fill:#FFFFFF;"/>
  <circle cy="-5.979" cx="23.5" r="0.499" style="fill:#FFFFFF;"/>
  <circle cy="-4.104" cx="21.25" r="0.499" style="fill:#FFFFFF;"/>
  <circle cy="-1.979" cx="24.625" r="0.499" style="fill:#FFFFFF;"/>
  <circle cy="-4.854" cx="26.5" r="0.499" style="fill:#FFFFFF;"/>
  <circle cy="-6.729" cx="29.375" r="0.499" style="fill:#FFFFFF;"/>
  <circle cy="-7.354" cx="26.833" r="0.499" style="fill:#FFFFFF;"/>
  <circle cy="-8.729" cx="32" r="0.499" style="fill:#FFFFFF;"/>
  <circle cy="-9.979" cx="33.75" r="0.499" style="fill:#FFFFFF;"/>
  <circle cy="-8.979" cx="39.5" r="0.499" style="fill:#FFFFFF;"/>
  <circle cy="-6.604" cx="45" r="0.499" style="fill:#FFFFFF;"/>
  <circle cy="-4.104" cx="48" r="0.499" style="fill:#FFFFFF;"/>
  <circle cy="-2.854" cx="51.183" r="0.499" style="fill:#FFFFFF;"/>
  <circle cy="-2.354" cx="46.25" r="0.499" style="fill:#FFFFFF;"/>
  <circle cy="-4.104" cx="43.375" r="0.499" style="fill:#FFFFFF;"/>
  <circle cy="-6.229" cx="41.125" r="0.499" style="fill:#FFFFFF;"/>
  <circle cy="-7.104" cx="38.125" r="0.499" style="fill:#FFFFFF;"/>
  <circle cy="-8.229" cx="35.625" r="0.499" style="fill:#FFFFFF;"/>
  <circle cy="-5.479" cx="33.75" r="0.499" style="fill:#FFFFFF;"/>
  <circle cy="-4.229" cx="30.625" r="0.499" style="fill:#FFFFFF;"/>
  <circle cy="-2.137" cx="28.793" r="0.499" style="fill:#FFFFFF;"/>
  <circle cy="-2.354" cx="31.5" r="0.499" style="fill:#FFFFFF;"/>
  <circle cy="-2.854" cx="35.25" r="0.499" style="fill:#FFFFFF;"/>
  <circle cy="-4.104" cx="39.25" r="0.499" style="fill:#FFFFFF;"/>
  <circle cy="-37.104" cx="35.5" r="0.499" style="fill:#FFFFFF;"/>
  <circle cy="-42.354" cx="41.125" r="0.499" style="fill:#FFFFFF;"/>
  <circle cy="-42.937" cx="37.833" r="0.499" style="fill:#FFFFFF;"/>
  <circle cy="-40.354" cx="43.125" r="0.499" style="fill:#FFFFFF;"/>
  <circle cy="-42.979" cx="45.5" r="0.499" style="fill:#FFFFFF;"/>
  <circle cy="-45.979" cx="47.375" r="0.499" style="fill:#FFFFFF;"/>
  <circle cy="-43.979" cx="51.375" r="0.499" style="fill:#FFFFFF;"/>
  <circle cy="-48.854" cx="49.375" r="0.499" style="fill:#FFFFFF;"/>
  <circle cy="-47.479" cx="51.125" r="0.499" style="fill:#FFFFFF;"/>
  <circle cy="-46.979" cx="53.875" r="0.499" style="fill:#FFFFFF;"/>
  <circle cy="-46.875" cx="56.396" r="0.499" style="fill:#FFFFFF;"/>
  <circle cy="-44.229" cx="56.125" r="0.499" style="fill:#FFFFFF;"/>
  <circle cy="-46.104" cx="60.125" r="0.499" style="fill:#FFFFFF;"/>
  <circle cy="-46.979" cx="62.5" r="0.499" style="fill:#FFFFFF;"/>
  <circle cy="-49.229" cx="65.5" r="0.499" style="fill:#FFFFFF;"/>
  <circle cy="-50.667" cx="68.771" r="0.499" style="fill:#FFFFFF;"/>
  <circle cy="-52.187" cx="71.833" r="0.499" style="fill:#FFFFFF;"/>
  <circle cy="-47.104" cx="70.25" r="0.499" style="fill:#FFFFFF;"/>
  <circle cy="-45.187" cx="71.833" r="0.499" style="fill:#FFFFFF;"/>
  <circle cy="-43.729" cx="69.625" r="0.499" style="fill:#FFFFFF;"/>
  <circle cy="-42.52" cx="71.833" r="0.499" style="fill:#FFFFFF;"/>
  <circle cy="-45.979" cx="66.25" r="0.499" style="fill:#FFFFFF;"/>
  <circle cy="-44.979" cx="64.5" r="0.499" style="fill:#FFFFFF;"/>
  <circle cy="-42.354" cx="63.167" r="0.499" style="fill:#FFFFFF;"/>
  <circle cy="-43.854" cx="61.375" r="0.499" style="fill:#FFFFFF;"/>
  <circle cy="-41.979" cx="59.375" r="0.499" style="fill:#FFFFFF;"/>
  <circle cy="-40.604" cx="56.5" r="0.499" style="fill:#FFFFFF;"/>
  <circle cy="-42.604" cx="53.625" r="0.499" style="fill:#FFFFFF;"/>
  <circle cy="-43.604" cx="49" r="0.499" style="fill:#FFFFFF;"/>
  <circle cy="-41.354" cx="46.875" r="0.499" style="fill:#FFFFFF;"/>
  <circle cy="-38.104" cx="44.375" r="0.499" style="fill:#FFFFFF;"/>
  <circle cy="-36.104" cx="43" r="0.499" style="fill:#FFFFFF;"/>
  <circle cy="-33.229" cx="41.5" r="0.499" style="fill:#FFFFFF;"/>
  <circle cy="-30.729" cx="44.5" r="0.499" style="fill:#FFFFFF;"/>
  <circle cy="-31.854" cx="46.167" r="0.499" style="fill:#FFFFFF;"/>
  <circle cy="-33.104" cx="48.5" r="0.499" style="fill:#FFFFFF;"/>
  <circle cy="-34.354" cx="45.375" r="0.499" style="fill:#FFFFFF;"/>
  <circle cy="-36.979" cx="46.5" r="0.499" style="fill:#FFFFFF;"/>
  <circle cy="-39.604" cx="48.125" r="0.499" style="fill:#FFFFFF;"/>
  <circle cy="-37.104" cx="51.375" r="0.499" style="fill:#FFFFFF;"/>
  <circle cy="-34.979" cx="49.25" r="0.499" style="fill:#FFFFFF;"/>
  <circle cy="-33.832" cx="53.354" r="0.499" style="fill:#FFFFFF;"/>
  <circle cy="-31.229" cx="50.875" r="0.499" style="fill:#FFFFFF;"/>
  <circle cy="-31.104" cx="54.375" r="0.499" style="fill:#FFFFFF;"/>
  <circle cy="-29.332" cx="52.979" r="0.499" style="fill:#FFFFFF;"/>
  <circle cy="-27.979" cx="56.125" r="0.499" style="fill:#FFFFFF;"/>
  <circle cy="-27.229" cx="59.125" r="0.499" style="fill:#FFFFFF;"/>
  <circle cy="-28.979" cx="62.5" r="0.499" style="fill:#FFFFFF;"/>
  <circle cy="-27.979" cx="65.625" r="0.499" style="fill:#FFFFFF;"/>
  <circle cy="-25.979" cx="68.875" r="0.499" style="fill:#FFFFFF;"/>
  <circle cy="-26.104" cx="71.25" r="0.499" style="fill:#FFFFFF;"/>
  <circle cy="-23.854" cx="71.875" r="0.499" style="fill:#FFFFFF;"/>
  <circle cy="-21.104" cx="70.375" r="0.499" style="fill:#FFFFFF;"/>
  <circle cy="-22.354" cx="66.666" r="0.499" style="fill:#FFFFFF;"/>
  <circle cy="-23.229" cx="68.375" r="0.499" style="fill:#FFFFFF;"/>
  <circle cy="-24.104" cx="64.5" r="0.499" style="fill:#FFFFFF;"/>
  <circle cy="-25.854" cx="62.125" r="0.499" style="fill:#FFFFFF;"/>
  <circle cy="-23.104" cx="60.625" r="0.499" style="fill:#FFFFFF;"/>
  <circle cy="-24.229" cx="57.375" r="0.499" style="fill:#FFFFFF;"/>
  <circle cy="-24.354" cx="55.25" r="0.499" style="fill:#FFFFFF;"/>
  <circle cy="-25.979" cx="52.5" r="0.499" style="fill:#FFFFFF;"/>
  <circle cy="-28.104" cx="49.5" r="0.499" style="fill:#FFFFFF;"/>
  <circle cy="-26.729" cx="46.625" r="0.499" style="fill:#FFFFFF;"/>
  <circle cy="-29.354" cx="47.667" r="0.499" style="fill:#FFFFFF;"/>
  <circle cy="-30.354" cx="41.25" r="0.499" style="fill:#FFFFFF;"/>
  <circle cy="-34.104" cx="37.375" r="0.499" style="fill:#FFFFFF;"/>
  <circle cy="-31.104" cx="37.125" r="0.499" style="fill:#FFFFFF;"/>
  <circle cy="-27.687" cx="35.333" r="0.499" style="fill:#FFFFFF;"/>
  <circle cy="-36.354" cx="38.625" r="0.499" style="fill:#FFFFFF;"/>
  <circle cy="-38.354" cx="40.333" r="0.499" style="fill:#FFFFFF;"/>
  <circle cy="-41.104" cx="51.5" r="0.499" style="fill:#FFFFFF;"/>
  <circle cy="-39.729" cx="53" r="0.499" style="fill:#FFFFFF;"/>
  <circle cy="-35.354" cx="55.5" r="0.499" style="fill:#FFFFFF;"/>
  <circle cy="-37.354" cx="57.875" r="0.499" style="fill:#FFFFFF;"/>
  <circle cy="-38.979" cx="59.25" r="0.499" style="fill:#FFFFFF;"/>
  <circle cy="-40.104" cx="61.375" r="0.499" style="fill:#FFFFFF;"/>
  <circle cy="-40.354" cx="65.375" r="0.499" style="fill:#FFFFFF;"/>
  <circle cy="-42.229" cx="67.375" r="0.499" style="fill:#FFFFFF;"/>
  <circle cy="-41.229" cx="70.5" r="0.499" style="fill:#FFFFFF;"/>
  <circle cy="-38.104" cx="68.5" r="0.499" style="fill:#FFFFFF;"/>
  <circle cy="-37.229" cx="72" r="0.499" style="fill:#FFFFFF;"/>
  <circle cy="-34.354" cx="71.375" r="0.499" style="fill:#FFFFFF;"/>
  <circle cy="-28.52" cx="72.166" r="0.499" style="fill:#FFFFFF;"/>
  <circle cy="-36.229" cx="66.5" r="0.499" style="fill:#FFFFFF;"/>
  <circle cy="-38.354" cx="63" r="0.499" style="fill:#FFFFFF;"/>
  <circle cy="-36.104" cx="61.25" r="0.499" style="fill:#FFFFFF;"/>
  <circle cy="-34.104" cx="58.625" r="0.499" style="fill:#FFFFFF;"/>
  <circle cy="-32.104" cx="56" r="0.499" style="fill:#FFFFFF;"/>
  <circle cy="-31.104" cx="59.375" r="0.499" style="fill:#FFFFFF;"/>
  <circle cy="-29.354" cx="57.667" r="0.499" style="fill:#FFFFFF;"/>
  <circle cy="-25.187" cx="45.667" r="0.499" style="fill:#FFFFFF;"/>
  <circle cy="-33.229" cx="62" r="0.499" style="fill:#FFFFFF;"/>
  <circle cy="-34.854" cx="64.375" r="0.499" style="fill:#FFFFFF;"/>
  <circle cy="-31.979" cx="66.875" r="0.499" style="fill:#FFFFFF;"/>
  <circle cy="-33.479" cx="68.625" r="0.499" style="fill:#FFFFFF;"/>
  <circle cy="-30.854" cx="64.75" r="0.499" style="fill:#FFFFFF;"/>
  <circle cy="-28.979" cx="68.25" r="0.499" style="fill:#FFFFFF;"/>
  <circle cy="-29.854" cx="70.625" r="0.499" style="fill:#FFFFFF;"/>
  <circle cy="-45.104" cx="41.625" r="0.499" style="fill:#FFFFFF;"/>
  <circle cy="-47.104" cx="45.125" r="0.499" style="fill:#FFFFFF;"/>
  <circle cy="-40.02" cx="36.333" r="0.499" style="fill:#FFFFFF;"/>
  <circle cy="-39.604" cx="33.167" r="0.499" style="fill:#FFFFFF;"/>
  <circle cy="-39.104" cx="23.25" r="0.499" style="fill:#FFFFFF;"/>
  <circle cy="-35.812" cx="26.583" r="0.499" style="fill:#FFFFFF;"/>
  <circle cy="-34.02" cx="17" r="0.499" style="fill:#FFFFFF;"/>
  <circle cy="-31.52" cx="16.5" r="0.499" style="fill:#FFFFFF;"/>
  <circle cy="-44.332" cx="34.604" r="0.499" style="fill:#FFFFFF;"/>
  <circle cy="-48.729" cx="38.375" r="0.499" style="fill:#FFFFFF;"/>
  <circle cy="-47.729" cx="35.5" r="0.499" style="fill:#FFFFFF;"/>
  <circle cy="-45.729" cx="33.625" r="0.499" style="fill:#FFFFFF;"/>
  <circle cy="-44.979" cx="30.5" r="0.499" style="fill:#FFFFFF;"/>
  <circle cy="-42.729" cx="28.375" r="0.499" style="fill:#FFFFFF;"/>
  <circle cy="-41.311" cx="25.875" r="0.499" style="fill:#FFFFFF;"/>
  <circle cy="-44.854" cx="25.5" r="0.499" style="fill:#FFFFFF;"/>
  <circle cy="-41.812" cx="21.083" r="0.499" style="fill:#FFFFFF;"/>
  <circle cy="-53.02" cx="39.667" r="0.499" style="fill:#FFFFFF;"/>
  <circle cy="-51.625" cx="36.896" r="0.499" style="fill:#FFFFFF;"/>
  <circle cy="-51.687" cx="33.5" r="0.499" style="fill:#FFFFFF;"/>
  <circle cy="-48.854" cx="32.5" r="0.499" style="fill:#FFFFFF;"/>
  <circle cy="-50" cx="34.98" r="0.499" style="fill:#FFFFFF;"/>
  <circle cy="-48.104" cx="29.625" r="0.499" style="fill:#FFFFFF;"/>
  <circle cy="-46.02" cx="27.833" r="0.499" style="fill:#FFFFFF;"/>
  <circle cy="-51.02" cx="30.833" r="0.499" style="fill:#FFFFFF;"/>
  <circle cy="-49.187" cx="28.167" r="0.499" style="fill:#FFFFFF;"/>
  <circle cy="-48.02" cx="25.5" r="0.499" style="fill:#FFFFFF;"/>
  <circle cy="-46.729" cx="22.25" r="0.499" style="fill:#FFFFFF;"/>
  <circle cy="-44.687" cx="19.333" r="0.499" style="fill:#FFFFFF;"/>
  <circle cy="-46.062" cx="15.833" r="0.499" style="fill:#FFFFFF;"/>
  <circle cy="-45.604" cx="11" r="0.499" style="fill:#FFFFFF;"/>
  <circle cy="-47.229" cx="8.5" r="0.499" style="fill:#FFFFFF;"/>
  <circle cy="-49.354" cx="4.5" r="0.499" style="fill:#FFFFFF;"/>
  <circle cy="-47.02" cx="2" r="0.499" style="fill:#FFFFFF;"/>
  <circle cy="-46.104" cx="4.375" r="0.499" style="fill:#FFFFFF;"/>
  <circle cy="-43.979" cx="3.375" r="0.499" style="fill:#FFFFFF;"/>
  <circle cy="-43.979" cx="7.375" r="0.499" style="fill:#FFFFFF;"/>
  <circle cy="-43.104" cx="10.5" r="0.499" style="fill:#FFFFFF;"/>
  <circle cy="-41.979" cx="13.5" r="0.499" style="fill:#FFFFFF;"/>
  <circle cy="-42.77" cx="17.667" r="0.499" style="fill:#FFFFFF;"/>
  <circle cy="-47.52" cx="19.5" r="0.499" style="fill:#FFFFFF;"/>
  <circle cy="-50.229" cx="23" r="0.499" style="fill:#FFFFFF;"/>
  <circle cy="-50.854" cx="19.667" r="0.499" style="fill:#FFFFFF;"/>
  <circle cy="-52.104" cx="21.75" r="0.499" style="fill:#FFFFFF;"/>
  <circle cy="-50.687" cx="16.833" r="0.499" style="fill:#FFFFFF;"/>
  <circle cy="-51.02" cx="13.5" r="0.499" style="fill:#FFFFFF;"/>
  <circle cy="-52.187" cx="4.5" r="0.499" style="fill:#FFFFFF;"/>
  <circle cy="-50.687" cx="1.5" r="0.499" style="fill:#FFFFFF;"/>
  <circle cy="-65.854" cx="69.166" r="0.499" style="fill:#FFFFFF;"/>
  <circle cy="-68.687" cx="68.833" r="0.499" style="fill:#FFFFFF;"/>
  <circle cy="-67.52" cx="72" r="0.499" style="fill:#FFFFFF;"/>
  <circle cy="-72.354" cx="66" r="0.499" style="fill:#FFFFFF;"/>
  <circle cy="-71.187" cx="69.166" r="0.499" style="fill:#FFFFFF;"/>
  <circle cy="-70.687" cx="72" r="0.499" style="fill:#FFFFFF;"/>
  <circle cy="-1.854" cx="38.401" r="0.499" style="fill:#FFFFFF;"/>
  <circle cy="-2.137" cx="42.351" r="0.499" style="fill:#FFFFFF;"/>
  <circle cy="-60.479" cx="27.5" r="0.499" style="fill:#FFFFFF;"/>
  <circle cy="-62.667" cx="26.313" r="0.499" style="fill:#FFFFFF;"/>
  <circle cy="-72.02" cx="3.167" r="0.499" style="fill:#FFFFFF;"/>
 </g>
</svg>
