<?xml version="1.0"?>
<!-- Converted with SVG Converter - Version 0.9.5 (Compiled Fri Feb 21 09:53:38 2020) - Copyright (C) 2011 Nokia -->
<svg xmlns="http://www.w3.org/2000/svg" y="0px" width="72" viewBox="0 -72 72 72" xmlns:xlink="http://www.w3.org/1999/xlink" x="0px" height="72" version="1.1" xml:space="preserve" baseProfile="tiny">
 <g>
  <rect y="-72" width="72" height="72" style="fill:none;"/>
  <circle r="0.498" cy="-71" cx="5.98" style="fill:#ED1B2E;"/>
  <circle r="0.499" cy="-70.395" cx="8.667" style="fill:#ED1B2E;"/>
  <circle r="0.499" cy="-71.354" cx="12.833" style="fill:#ED1B2E;"/>
  <circle r="0.499" cy="-68.02" cx="7.5" style="fill:#ED1B2E;"/>
  <circle r="0.499" cy="-69.02" cx="4.5" style="fill:#ED1B2E;"/>
  <circle r="0.499" cy="-68.02" cx="0.666" style="fill:#ED1B2E;"/>
  <circle r="0.498" cy="-66.187" cx="3.667" style="fill:#ED1B2E;"/>
  <circle r="0.499" cy="-65.02" cx="6.333" style="fill:#ED1B2E;"/>
  <circle r="0.499" cy="-63.854" cx="9.5" style="fill:#ED1B2E;"/>
  <circle r="0.498" cy="-67.687" cx="11" style="fill:#ED1B2E;"/>
  <circle r="0.499" cy="-67.52" cx="14" style="fill:#ED1B2E;"/>
  <circle r="0.499" cy="-70.02" cx="16.167" style="fill:#ED1B2E;"/>
  <circle r="0.499" cy="-70.854" cx="19.333" style="fill:#ED1B2E;"/>
  <circle r="0.498" cy="-69.687" cx="21.333" style="fill:#ED1B2E;"/>
  <circle r="0.499" cy="-69.479" cx="24.75" style="fill:#ED1B2E;"/>
  <circle r="0.499" cy="-71.354" cx="26.5" style="fill:#ED1B2E;"/>
  <circle r="0.499" cy="-69.02" cx="28.333" style="fill:#ED1B2E;"/>
  <circle r="0.499" cy="-66.854" cx="26.333" style="fill:#ED1B2E;"/>
  <circle r="0.499" cy="-63.854" cx="24.5" style="fill:#ED1B2E;"/>
  <circle r="0.499" cy="-60.854" cx="22.667" style="fill:#ED1B2E;"/>
  <circle r="0.499" cy="-63.729" cx="20.875" style="fill:#ED1B2E;"/>
  <circle r="0.499" cy="-66.854" cx="22.875" style="fill:#ED1B2E;"/>
  <circle r="0.499" cy="-58.104" cx="22" style="fill:#ED1B2E;"/>
  <circle r="0.499" cy="-65.52" cx="19.833" style="fill:#ED1B2E;"/>
  <circle r="0.499" cy="-62.854" cx="18" style="fill:#ED1B2E;"/>
  <circle r="0.499" cy="-63.02" cx="15.333" style="fill:#ED1B2E;"/>
  <circle r="0.499" cy="-61.02" cx="14.5" style="fill:#ED1B2E;"/>
  <circle r="0.499" cy="-61.854" cx="11.667" style="fill:#ED1B2E;"/>
  <circle r="0.498" cy="-58.687" cx="11.5" style="fill:#ED1B2E;"/>
  <circle r="0.499" cy="-55.02" cx="10.5" style="fill:#ED1B2E;"/>
  <circle r="0.499" cy="-51.854" cx="9.667" style="fill:#ED1B2E;"/>
  <circle r="0.499" cy="-49.52" cx="9.833" style="fill:#ED1B2E;"/>
  <circle r="0.499" cy="-48.854" cx="6.667" style="fill:#ED1B2E;"/>
  <circle r="0.499" cy="-51.854" cx="7" style="fill:#ED1B2E;"/>
  <circle r="0.498" cy="-54.687" cx="7.5" style="fill:#ED1B2E;"/>
  <circle r="0.498" cy="-58.187" cx="7.833" style="fill:#ED1B2E;"/>
  <circle r="0.499" cy="-60.854" cx="8.5" style="fill:#ED1B2E;"/>
  <circle r="0.499" cy="-61.354" cx="5.333" style="fill:#ED1B2E;"/>
  <circle r="0.499" cy="-63.354" cx="2.667" style="fill:#ED1B2E;"/>
  <circle r="0.499" cy="-64.52" cx="0.833" style="fill:#ED1B2E;"/>
  <circle r="0.498" cy="-59.687" cx="1.333" style="fill:#ED1B2E;"/>
  <circle r="0.499" cy="-57.854" cx="4.333" style="fill:#ED1B2E;"/>
  <circle r="0.499" cy="-54.854" cx="3.333" style="fill:#ED1B2E;"/>
  <circle r="0.499" cy="-53.854" cx="1.5" style="fill:#ED1B2E;"/>
  <circle r="0.499" cy="-56.854" cx="1.166" style="fill:#ED1B2E;"/>
  <circle r="0.499" cy="-56.854" cx="13.333" style="fill:#ED1B2E;"/>
  <circle r="0.498" cy="-59.687" cx="17.333" style="fill:#ED1B2E;"/>
  <circle r="0.498" cy="-59.687" cx="19.5" style="fill:#ED1B2E;"/>
  <circle r="0.499" cy="-55.854" cx="19" style="fill:#ED1B2E;"/>
  <circle r="0.499" cy="-56.604" cx="16.875" style="fill:#ED1B2E;"/>
  <circle r="0.498" cy="-53.687" cx="18.833" style="fill:#ED1B2E;"/>
  <circle r="0.499" cy="-52.854" cx="15.5" style="fill:#ED1B2E;"/>
  <circle r="0.499" cy="-54.02" cx="13.167" style="fill:#ED1B2E;"/>
  <circle r="0.499" cy="-64.854" cx="13" style="fill:#ED1B2E;"/>
  <circle r="0.499" cy="-65.52" cx="16.667" style="fill:#ED1B2E;"/>
  <circle r="0.498" cy="-67.687" cx="18" style="fill:#ED1B2E;"/>
  <circle r="0.498" cy="-70.687" cx="31" style="fill:#ED1B2E;"/>
  <circle r="0.498" cy="-71.187" cx="33.833" style="fill:#ED1B2E;"/>
  <circle r="0.499" cy="-68.854" cx="34.5" style="fill:#ED1B2E;"/>
  <circle r="0.499" cy="-71.041" cx="37" style="fill:#ED1B2E;"/>
  <circle r="0.498" cy="-71.187" cx="40.333" style="fill:#ED1B2E;"/>
  <circle r="0.499" cy="-66.854" cx="32.125" style="fill:#ED1B2E;"/>
  <circle r="0.499" cy="-66.854" cx="29" style="fill:#ED1B2E;"/>
  <circle r="0.499" cy="-61.354" cx="27.833" style="fill:#ED1B2E;"/>
  <circle r="0.499" cy="-64.229" cx="29.667" style="fill:#ED1B2E;"/>
  <circle r="0.499" cy="-64.854" cx="27.5" style="fill:#ED1B2E;"/>
  <circle r="0.499" cy="-65.52" cx="34.167" style="fill:#ED1B2E;"/>
  <circle r="0.499" cy="-67.354" cx="37.167" style="fill:#ED1B2E;"/>
  <circle r="0.499" cy="-69.02" cx="40.5" style="fill:#ED1B2E;"/>
  <circle r="0.498" cy="-70.187" cx="43.333" style="fill:#ED1B2E;"/>
  <circle r="0.498" cy="-71.187" cx="46.5" style="fill:#ED1B2E;"/>
  <circle r="0.499" cy="-71.02" cx="50.333" style="fill:#ED1B2E;"/>
  <circle r="0.499" cy="-67.729" cx="46.167" style="fill:#ED1B2E;"/>
  <circle r="0.498" cy="-67.125" cx="43.021" style="fill:#ED1B2E;"/>
  <circle r="0.498" cy="-64.562" cx="40.833" style="fill:#ED1B2E;"/>
  <circle r="0.499" cy="-65.354" cx="38.333" style="fill:#ED1B2E;"/>
  <circle r="0.499" cy="-62.854" cx="37.75" style="fill:#ED1B2E;"/>
  <circle r="0.499" cy="-60.729" cx="34.5" style="fill:#ED1B2E;"/>
  <circle r="0.499" cy="-59.854" cx="31.333" style="fill:#ED1B2E;"/>
  <circle r="0.499" cy="-58.52" cx="28.333" style="fill:#ED1B2E;"/>
  <circle r="0.499" cy="-57.727" cx="33.5" style="fill:#ED1B2E;"/>
  <circle r="0.498" cy="-57.187" cx="29.667" style="fill:#ED1B2E;"/>
  <circle r="0.499" cy="-54.854" cx="27.667" style="fill:#ED1B2E;"/>
  <circle r="0.499" cy="-57.02" cx="25.167" style="fill:#ED1B2E;"/>
  <circle r="0.499" cy="-53.52" cx="25" style="fill:#ED1B2E;"/>
  <circle r="0.499" cy="-54.604" cx="23" style="fill:#ED1B2E;"/>
  <circle r="0.498" cy="-51.187" cx="24.667" style="fill:#ED1B2E;"/>
  <circle r="0.499" cy="-51.854" cx="27.5" style="fill:#ED1B2E;"/>
  <circle r="0.499" cy="-53.207" cx="30.854" style="fill:#ED1B2E;"/>
  <circle r="0.499" cy="-54.02" cx="33" style="fill:#ED1B2E;"/>
  <circle r="0.498" cy="-55.687" cx="32.167" style="fill:#ED1B2E;"/>
  <circle r="0.499" cy="-54.52" cx="35.667" style="fill:#ED1B2E;"/>
  <circle r="0.499" cy="-57.02" cx="36.167" style="fill:#ED1B2E;"/>
  <circle r="0.499" cy="-59.354" cx="37.667" style="fill:#ED1B2E;"/>
  <circle r="0.498" cy="-61.187" cx="40.333" style="fill:#ED1B2E;"/>
  <circle r="0.499" cy="-62.52" cx="43" style="fill:#ED1B2E;"/>
  <circle r="0.499" cy="-64.874" cx="44.313" style="fill:#ED1B2E;"/>
  <circle r="0.498" cy="-65.812" cx="48.083" style="fill:#ED1B2E;"/>
  <circle r="0.498" cy="-68.812" cx="49.083" style="fill:#ED1B2E;"/>
  <circle r="0.499" cy="-70.52" cx="53.167" style="fill:#ED1B2E;"/>
  <circle r="0.499" cy="-71.354" cx="56.5" style="fill:#ED1B2E;"/>
  <circle r="0.499" cy="-71.354" cx="62.167" style="fill:#ED1B2E;"/>
  <circle r="0.499" cy="-70.02" cx="59" style="fill:#ED1B2E;"/>
  <circle r="0.498" cy="-67.062" cx="57.5" style="fill:#ED1B2E;"/>
  <circle r="0.499" cy="-66.729" cx="54.125" style="fill:#ED1B2E;"/>
  <circle r="0.499" cy="-61.729" cx="64.166" style="fill:#ED1B2E;"/>
  <circle r="0.498" cy="-65.312" cx="50.833" style="fill:#ED1B2E;"/>
  <circle r="0.498" cy="-63.062" cx="32.167" style="fill:#ED1B2E;"/>
  <circle r="0.499" cy="-63.52" cx="35.167" style="fill:#ED1B2E;"/>
  <circle r="0.498" cy="-68.187" cx="52.333" style="fill:#ED1B2E;"/>
  <circle r="0.499" cy="-62.207" cx="45.687" style="fill:#ED1B2E;"/>
  <circle r="0.499" cy="-59.77" cx="43.333" style="fill:#ED1B2E;"/>
  <circle r="0.499" cy="-57.854" cx="40.667" style="fill:#ED1B2E;"/>
  <circle r="0.499" cy="-55.02" cx="38.667" style="fill:#ED1B2E;"/>
  <circle r="0.499" cy="-53.395" cx="41.833" style="fill:#ED1B2E;"/>
  <circle r="0.499" cy="-56.02" cx="43" style="fill:#ED1B2E;"/>
  <circle r="0.498" cy="-60.062" cx="48.5" style="fill:#ED1B2E;"/>
  <circle r="0.499" cy="-62.561" cx="50.333" style="fill:#ED1B2E;"/>
  <circle r="0.499" cy="-63.854" cx="48.167" style="fill:#ED1B2E;"/>
  <circle r="0.499" cy="-63.894" cx="53.333" style="fill:#ED1B2E;"/>
  <circle r="0.499" cy="-64.395" cx="56.5" style="fill:#ED1B2E;"/>
  <circle r="0.499" cy="-66.02" cx="59.5" style="fill:#ED1B2E;"/>
  <circle r="0.499" cy="-68.52" cx="61.333" style="fill:#ED1B2E;"/>
  <circle r="0.499" cy="-67.854" cx="65.333" style="fill:#ED1B2E;"/>
  <circle r="0.498" cy="-69.187" cx="63.833" style="fill:#ED1B2E;"/>
  <circle r="0.498" cy="-66.187" cx="62.5" style="fill:#ED1B2E;"/>
  <circle r="0.499" cy="-63.854" cx="59.667" style="fill:#ED1B2E;"/>
  <circle r="0.499" cy="-60.854" cx="56.5" style="fill:#ED1B2E;"/>
  <circle r="0.499" cy="-61.02" cx="53.333" style="fill:#ED1B2E;"/>
  <circle r="0.499" cy="-57.854" cx="47.333" style="fill:#ED1B2E;"/>
  <circle r="0.499" cy="-54.52" cx="47.167" style="fill:#ED1B2E;"/>
  <circle r="0.499" cy="-55.104" cx="44.75" style="fill:#ED1B2E;"/>
  <circle r="0.499" cy="-51.354" cx="44.875" style="fill:#ED1B2E;"/>
  <circle r="0.498" cy="-65.187" cx="65.166" style="fill:#ED1B2E;"/>
  <circle r="0.499" cy="-63.207" cx="62.313" style="fill:#ED1B2E;"/>
  <circle r="0.498" cy="-60.562" cx="60" style="fill:#ED1B2E;"/>
  <circle r="0.499" cy="-58.354" cx="57.167" style="fill:#ED1B2E;"/>
  <circle r="0.498" cy="-58.187" cx="54.5" style="fill:#ED1B2E;"/>
  <circle r="0.499" cy="-56.02" cx="52.5" style="fill:#ED1B2E;"/>
  <circle r="0.499" cy="-53.354" cx="49.833" style="fill:#ED1B2E;"/>
  <circle r="0.499" cy="-52.854" cx="52.667" style="fill:#ED1B2E;"/>
  <circle r="0.499" cy="-55.02" cx="54.833" style="fill:#ED1B2E;"/>
  <circle r="0.498" cy="-55.187" cx="57.5" style="fill:#ED1B2E;"/>
  <circle r="0.498" cy="-59.062" cx="62" style="fill:#ED1B2E;"/>
  <circle r="0.499" cy="-62.229" cx="67.833" style="fill:#ED1B2E;"/>
  <circle r="0.499" cy="-60.02" cx="66" style="fill:#ED1B2E;"/>
  <circle r="0.498" cy="-62.187" cx="71.5" style="fill:#ED1B2E;"/>
  <circle r="0.499" cy="-60.02" cx="68.5" style="fill:#ED1B2E;"/>
  <circle r="0.499" cy="-57.854" cx="66.5" style="fill:#ED1B2E;"/>
  <circle r="0.499" cy="-56.854" cx="69.5" style="fill:#ED1B2E;"/>
  <circle r="0.499" cy="-59.02" cx="71" style="fill:#ED1B2E;"/>
  <circle r="0.499" cy="-56.854" cx="63.333" style="fill:#ED1B2E;"/>
  <circle r="0.499" cy="-55.979" cx="60.625" style="fill:#ED1B2E;"/>
  <circle r="0.499" cy="-53.854" cx="61.25" style="fill:#ED1B2E;"/>
  <circle r="0.499" cy="-53.104" cx="58.5" style="fill:#ED1B2E;"/>
  <circle r="0.499" cy="-54.52" cx="64.333" style="fill:#ED1B2E;"/>
  <circle r="0.499" cy="-54.02" cx="67.5" style="fill:#ED1B2E;"/>
  <circle r="0.499" cy="-54.02" cx="70.666" style="fill:#ED1B2E;"/>
  <circle r="0.498" cy="-52.187" cx="68.5" style="fill:#ED1B2E;"/>
  <circle r="0.499" cy="-52.02" cx="65.5" style="fill:#ED1B2E;"/>
  <circle r="0.499" cy="-50.854" cx="62.5" style="fill:#ED1B2E;"/>
  <circle r="0.499" cy="-50.854" cx="59.167" style="fill:#ED1B2E;"/>
  <circle r="0.499" cy="-48.854" cx="60.333" style="fill:#ED1B2E;"/>
  <circle r="0.499" cy="-47.354" cx="67" style="fill:#ED1B2E;"/>
  <circle r="0.499" cy="-58.227" cx="51.5" style="fill:#ED1B2E;"/>
  <circle r="0.499" cy="-68.854" cx="54.833" style="fill:#ED1B2E;"/>
  <circle r="0.499" cy="-47.354" cx="57.75" style="fill:#ED1B2E;"/>
  <circle r="0.499" cy="-51.854" cx="55.75" style="fill:#ED1B2E;"/>
  <circle r="0.499" cy="-49.479" cx="52.75" style="fill:#ED1B2E;"/>
  <circle r="0.499" cy="-48.02" cx="54.667" style="fill:#ED1B2E;"/>
  <circle r="0.499" cy="-49.854" cx="57" style="fill:#ED1B2E;"/>
  <circle r="0.498" cy="-50.187" cx="50.333" style="fill:#ED1B2E;"/>
  <circle r="0.499" cy="-51.02" cx="47.167" style="fill:#ED1B2E;"/>
  <circle r="0.499" cy="-49.02" cx="44.333" style="fill:#ED1B2E;"/>
  <circle r="0.499" cy="-50.541" cx="41.313" style="fill:#ED1B2E;"/>
  <circle r="0.499" cy="-48.354" cx="40.125" style="fill:#ED1B2E;"/>
  <circle r="0.499" cy="-46.354" cx="41.833" style="fill:#ED1B2E;"/>
  <circle r="0.499" cy="-45.104" cx="37.167" style="fill:#ED1B2E;"/>
  <circle r="0.498" cy="-41.437" cx="31.167" style="fill:#ED1B2E;"/>
  <circle r="0.499" cy="-38.479" cx="27" style="fill:#ED1B2E;"/>
  <circle r="0.498" cy="-38.312" cx="18.833" style="fill:#ED1B2E;"/>
  <circle r="0.499" cy="-42.394" cx="22.833" style="fill:#ED1B2E;"/>
  <circle r="0.499" cy="-42.77" cx="14.167" style="fill:#ED1B2E;"/>
  <circle r="0.498" cy="-46.437" cx="11.667" style="fill:#ED1B2E;"/>
  <circle r="0.498" cy="-35.812" cx="23.583" style="fill:#ED1B2E;"/>
  <circle r="0.499" cy="-32.354" cx="21.5" style="fill:#ED1B2E;"/>
  <circle r="0.499" cy="-30.229" cx="24.125" style="fill:#ED1B2E;"/>
  <circle r="0.499" cy="-31.895" cx="19" style="fill:#ED1B2E;"/>
  <circle r="0.499" cy="-16.854" cx="13.333" style="fill:#ED1B2E;"/>
  <circle r="0.499" cy="-29.561" cx="18.167" style="fill:#ED1B2E;"/>
  <circle r="0.499" cy="-33.104" cx="13.5" style="fill:#ED1B2E;"/>
  <circle r="0.499" cy="-35.104" cx="9.75" style="fill:#ED1B2E;"/>
  <circle r="0.499" cy="-39.354" cx="10.25" style="fill:#ED1B2E;"/>
  <circle r="0.499" cy="-37.604" cx="4.875" style="fill:#ED1B2E;"/>
  <circle r="0.499" cy="-39.104" cx="1.625" style="fill:#ED1B2E;"/>
  <circle r="0.499" cy="-40.354" cx="5.375" style="fill:#ED1B2E;"/>
  <circle r="0.499" cy="-38.729" cx="7.5" style="fill:#ED1B2E;"/>
  <circle r="0.499" cy="-36.332" cx="12.854" style="fill:#ED1B2E;"/>
  <circle r="0.499" cy="-36.979" cx="15.375" style="fill:#ED1B2E;"/>
  <circle r="0.499" cy="-39.229" cx="13.375" style="fill:#ED1B2E;"/>
  <circle r="0.499" cy="-39.354" cx="16.5" style="fill:#ED1B2E;"/>
  <circle r="0.499" cy="-35.354" cx="17" style="fill:#ED1B2E;"/>
  <circle r="0.498" cy="-35.562" cx="20.167" style="fill:#ED1B2E;"/>
  <circle r="0.499" cy="-32.104" cx="24.625" style="fill:#ED1B2E;"/>
  <circle r="0.499" cy="-36.436" cx="29" style="fill:#ED1B2E;"/>
  <circle r="0.499" cy="-33.979" cx="31.875" style="fill:#ED1B2E;"/>
  <circle r="0.499" cy="-31.979" cx="30.875" style="fill:#ED1B2E;"/>
  <circle r="0.499" cy="-31.229" cx="33.375" style="fill:#ED1B2E;"/>
  <circle r="0.499" cy="-29.104" cx="33.75" style="fill:#ED1B2E;"/>
  <circle r="0.499" cy="-25.979" cx="32.625" style="fill:#ED1B2E;"/>
  <circle r="0.499" cy="-23.354" cx="32.25" style="fill:#ED1B2E;"/>
  <circle r="0.499" cy="-19.729" cx="33.875" style="fill:#ED1B2E;"/>
  <circle r="0.499" cy="-22.686" cx="36" style="fill:#ED1B2E;"/>
  <circle r="0.499" cy="-19.854" cx="38.125" style="fill:#ED1B2E;"/>
  <circle r="0.499" cy="-17.354" cx="36.125" style="fill:#ED1B2E;"/>
  <circle r="0.499" cy="-17.104" cx="42.5" style="fill:#ED1B2E;"/>
  <circle r="0.499" cy="-17.229" cx="39.375" style="fill:#ED1B2E;"/>
  <circle r="0.499" cy="-13.979" cx="37.375" style="fill:#ED1B2E;"/>
  <circle r="0.499" cy="-14.979" cx="33.5" style="fill:#ED1B2E;"/>
  <circle r="0.499" cy="-17.854" cx="32.375" style="fill:#ED1B2E;"/>
  <circle r="0.499" cy="-20.104" cx="30.875" style="fill:#ED1B2E;"/>
  <circle r="0.499" cy="-22.979" cx="29.75" style="fill:#ED1B2E;"/>
  <circle r="0.498" cy="-25.687" cx="29" style="fill:#ED1B2E;"/>
  <circle r="0.499" cy="-28.229" cx="30.625" style="fill:#ED1B2E;"/>
  <circle r="0.498" cy="-30.687" cx="27.167" style="fill:#ED1B2E;"/>
  <circle r="0.499" cy="-33.895" cx="28" style="fill:#ED1B2E;"/>
  <circle r="0.499" cy="-28.604" cx="27.75" style="fill:#ED1B2E;"/>
  <circle r="0.499" cy="-27.104" cx="25.375" style="fill:#ED1B2E;"/>
  <circle r="0.499" cy="-24.104" cx="26.375" style="fill:#ED1B2E;"/>
  <circle r="0.499" cy="-21.02" cx="26.5" style="fill:#ED1B2E;"/>
  <circle r="0.498" cy="-18.187" cx="27.833" style="fill:#ED1B2E;"/>
  <circle r="0.499" cy="-16.354" cx="29" style="fill:#ED1B2E;"/>
  <circle r="0.499" cy="-14.479" cx="30.125" style="fill:#ED1B2E;"/>
  <circle r="0.499" cy="-12.229" cx="28.75" style="fill:#ED1B2E;"/>
  <circle r="0.499" cy="-12.354" cx="25" style="fill:#ED1B2E;"/>
  <circle r="0.499" cy="-14.979" cx="22.5" style="fill:#ED1B2E;"/>
  <circle r="0.499" cy="-12.979" cx="20.5" style="fill:#ED1B2E;"/>
  <circle r="0.498" cy="-56.187" cx="49.333" style="fill:#ED1B2E;"/>
  <circle r="0.499" cy="-8.479" cx="17.25" style="fill:#ED1B2E;"/>
  <circle r="0.499" cy="-9.104" cx="20.375" style="fill:#ED1B2E;"/>
  <circle r="0.499" cy="-6.854" cx="21.333" style="fill:#ED1B2E;"/>
  <circle r="0.499" cy="-9.979" cx="23.25" style="fill:#ED1B2E;"/>
  <circle r="0.499" cy="-6.062" cx="18.5" style="fill:#ED1B2E;"/>
  <circle r="0.499" cy="-2.104" cx="16.25" style="fill:#ED1B2E;"/>
  <circle r="0.499" cy="-4.562" cx="14.833" style="fill:#ED1B2E;"/>
  <circle r="0.499" cy="-2.104" cx="11.5" style="fill:#ED1B2E;"/>
  <circle r="0.499" cy="-4.332" cx="10.021" style="fill:#ED1B2E;"/>
  <circle r="0.499" cy="-5.979" cx="12.5" style="fill:#ED1B2E;"/>
  <circle r="0.499" cy="-8.854" cx="13.5" style="fill:#ED1B2E;"/>
  <circle r="0.499" cy="-7.187" cx="14.5" style="fill:#ED1B2E;"/>
  <circle r="0.499" cy="-3.187" cx="17.833" style="fill:#ED1B2E;"/>
  <circle r="0.498" cy="-1.021" cx="19.5" style="fill:#ED1B2E;"/>
  <circle r="0.499" cy="-0.604" cx="8.75" style="fill:#ED1B2E;"/>
  <circle r="0.499" cy="-0.92" cx="14" style="fill:#ED1B2E;"/>
  <circle r="0.499" cy="-11.104" cx="9.5" style="fill:#ED1B2E;"/>
  <circle r="0.499" cy="-8.979" cx="11" style="fill:#ED1B2E;"/>
  <circle r="0.499" cy="-8.979" cx="7.375" style="fill:#ED1B2E;"/>
  <circle r="0.499" cy="-9.854" cx="4.75" style="fill:#ED1B2E;"/>
  <circle r="0.499" cy="-8.229" cx="2.25" style="fill:#ED1B2E;"/>
  <circle r="0.499" cy="-6.104" cx="4.375" style="fill:#ED1B2E;"/>
  <circle r="0.499" cy="-6.104" cx="8.125" style="fill:#ED1B2E;"/>
  <circle r="0.499" cy="-3.104" cx="7.25" style="fill:#ED1B2E;"/>
  <circle r="0.499" cy="-2.979" cx="4.5" style="fill:#ED1B2E;"/>
  <circle r="0.499" cy="-4.229" cx="2.25" style="fill:#ED1B2E;"/>
  <circle r="0.499" cy="-2.104" cx="0.5" style="fill:#ED1B2E;"/>
  <circle r="0.499" cy="-0.795" cx="3.635" style="fill:#ED1B2E;"/>
  <circle r="0.499" cy="-47.604" cx="15" style="fill:#ED1B2E;"/>
  <circle r="0.499" cy="-12.062" cx="13.333" style="fill:#ED1B2E;"/>
  <circle r="0.499" cy="-13.854" cx="11.167" style="fill:#ED1B2E;"/>
  <circle r="0.499" cy="-21.854" cx="9.5" style="fill:#ED1B2E;"/>
  <circle r="0.498" cy="-25.687" cx="9.5" style="fill:#ED1B2E;"/>
  <circle r="0.498" cy="-14.687" cx="14.167" style="fill:#ED1B2E;"/>
  <circle r="0.499" cy="-11.729" cx="16.5" style="fill:#ED1B2E;"/>
  <circle r="0.498" cy="-18.687" cx="15.667" style="fill:#ED1B2E;"/>
  <circle r="0.498" cy="-11.521" cx="21.167" style="fill:#ED1B2E;"/>
  <circle r="0.498" cy="-16.687" cx="18.667" style="fill:#ED1B2E;"/>
  <circle r="0.499" cy="-17.979" cx="21.375" style="fill:#ED1B2E;"/>
  <circle r="0.499" cy="-21.229" cx="21" style="fill:#ED1B2E;"/>
  <circle r="0.498" cy="-21.812" cx="15.583" style="fill:#ED1B2E;"/>
  <circle r="0.499" cy="-19.104" cx="18.375" style="fill:#ED1B2E;"/>
  <circle r="0.498" cy="-14.687" cx="17.333" style="fill:#ED1B2E;"/>
  <circle r="0.498" cy="-25.062" cx="15.083" style="fill:#ED1B2E;"/>
  <circle r="0.499" cy="-22.729" cx="18" style="fill:#ED1B2E;"/>
  <circle r="0.499" cy="-25.229" cx="20.667" style="fill:#ED1B2E;"/>
  <circle r="0.499" cy="-22.686" cx="23.375" style="fill:#ED1B2E;"/>
  <circle r="0.499" cy="-25.104" cx="23.375" style="fill:#ED1B2E;"/>
  <circle r="0.499" cy="-28.686" cx="21.25" style="fill:#ED1B2E;"/>
  <circle r="0.499" cy="-27.104" cx="18" style="fill:#ED1B2E;"/>
  <circle r="0.499" cy="-28.104" cx="15.25" style="fill:#ED1B2E;"/>
  <circle r="0.499" cy="-30.332" cx="12.75" style="fill:#ED1B2E;"/>
  <circle r="0.499" cy="-31.979" cx="10.5" style="fill:#ED1B2E;"/>
  <circle r="0.499" cy="-32.104" cx="6.75" style="fill:#ED1B2E;"/>
  <circle r="0.499" cy="-34.354" cx="7" style="fill:#ED1B2E;"/>
  <circle r="0.499" cy="-34.104" cx="4.625" style="fill:#ED1B2E;"/>
  <circle r="0.499" cy="-35.229" cx="1.5" style="fill:#ED1B2E;"/>
  <circle r="0.499" cy="-32.104" cx="2.5" style="fill:#ED1B2E;"/>
  <circle r="0.499" cy="-29.979" cx="3.5" style="fill:#ED1B2E;"/>
  <circle r="0.499" cy="-26.979" cx="5.25" style="fill:#ED1B2E;"/>
  <circle r="0.499" cy="-24.979" cx="7.125" style="fill:#ED1B2E;"/>
  <circle r="0.499" cy="-22.104" cx="12.375" style="fill:#ED1B2E;"/>
  <circle r="0.499" cy="-19.104" cx="12.5" style="fill:#ED1B2E;"/>
  <circle r="0.498" cy="-19.5" cx="9.771" style="fill:#ED1B2E;"/>
  <circle r="0.499" cy="-20.979" cx="7.375" style="fill:#ED1B2E;"/>
  <circle r="0.499" cy="-22.979" cx="5.5" style="fill:#ED1B2E;"/>
  <circle r="0.499" cy="-24.979" cx="3.375" style="fill:#ED1B2E;"/>
  <circle r="0.499" cy="-26.979" cx="1.5" style="fill:#ED1B2E;"/>
  <circle r="0.499" cy="-29.104" cx="7.375" style="fill:#ED1B2E;"/>
  <circle r="0.499" cy="-29.02" cx="10" style="fill:#ED1B2E;"/>
  <circle r="0.499" cy="-24.354" cx="12.167" style="fill:#ED1B2E;"/>
  <circle r="0.498" cy="-27.187" cx="12.333" style="fill:#ED1B2E;"/>
  <circle r="0.498" cy="-16.125" cx="7.396" style="fill:#ED1B2E;"/>
  <circle r="0.499" cy="-14.854" cx="4.5" style="fill:#ED1B2E;"/>
  <circle r="0.499" cy="-11.854" cx="2.5" style="fill:#ED1B2E;"/>
  <circle r="0.499" cy="-13.104" cx="0.659" style="fill:#ED1B2E;"/>
  <circle r="0.499" cy="-13.332" cx="6.021" style="fill:#ED1B2E;"/>
  <circle r="0.499" cy="-13.729" cx="9" style="fill:#ED1B2E;"/>
  <circle r="0.499" cy="-16.104" cx="10.625" style="fill:#ED1B2E;"/>
  <circle r="0.499" cy="-17.979" cx="5.375" style="fill:#ED1B2E;"/>
  <circle r="0.499" cy="-19.854" cx="3.25" style="fill:#ED1B2E;"/>
  <circle r="0.499" cy="-22.104" cx="1.25" style="fill:#ED1B2E;"/>
  <circle r="0.499" cy="-17.104" cx="2.25" style="fill:#ED1B2E;"/>
  <circle r="0.499" cy="-14.854" cx="26.25" style="fill:#ED1B2E;"/>
  <circle r="0.499" cy="-16.729" cx="25.25" style="fill:#ED1B2E;"/>
  <circle r="0.499" cy="-19.604" cx="23.625" style="fill:#ED1B2E;"/>
  <circle r="0.499" cy="-27.604" cx="39.125" style="fill:#ED1B2E;"/>
  <circle r="0.499" cy="-25.104" cx="40.375" style="fill:#ED1B2E;"/>
  <circle r="0.498" cy="-26.687" cx="43.167" style="fill:#ED1B2E;"/>
  <circle r="0.499" cy="-22.52" cx="42.5" style="fill:#ED1B2E;"/>
  <circle r="0.499" cy="-20.979" cx="45.5" style="fill:#ED1B2E;"/>
  <circle r="0.499" cy="-22.979" cx="48.375" style="fill:#ED1B2E;"/>
  <circle r="0.499" cy="-20.332" cx="49.146" style="fill:#ED1B2E;"/>
  <circle r="0.499" cy="-22.229" cx="51.5" style="fill:#ED1B2E;"/>
  <circle r="0.499" cy="-19.854" cx="54.5" style="fill:#ED1B2E;"/>
  <circle r="0.498" cy="-20.312" cx="57.833" style="fill:#ED1B2E;"/>
  <circle r="0.499" cy="-18.104" cx="59.375" style="fill:#ED1B2E;"/>
  <circle r="0.499" cy="-20.27" cx="62.667" style="fill:#ED1B2E;"/>
  <circle r="0.499" cy="-16.979" cx="65.625" style="fill:#ED1B2E;"/>
  <circle r="0.499" cy="-16.979" cx="69.375" style="fill:#ED1B2E;"/>
  <circle r="0.498" cy="-18.187" cx="71.333" style="fill:#ED1B2E;"/>
  <circle r="0.499" cy="-15.02" cx="71.166" style="fill:#ED1B2E;"/>
  <circle r="0.498" cy="-11.129" cx="71.341" style="fill:#ED1B2E;"/>
  <circle r="0.499" cy="-13.229" cx="68.5" style="fill:#ED1B2E;"/>
  <circle r="0.499" cy="-14.729" cx="65.625" style="fill:#ED1B2E;"/>
  <circle r="0.499" cy="-16.604" cx="61.833" style="fill:#ED1B2E;"/>
  <circle r="0.499" cy="-17.479" cx="56.375" style="fill:#ED1B2E;"/>
  <circle r="0.499" cy="-12.979" cx="62.375" style="fill:#ED1B2E;"/>
  <circle r="0.499" cy="-11.104" cx="65.5" style="fill:#ED1B2E;"/>
  <circle r="0.499" cy="-9.979" cx="68.75" style="fill:#ED1B2E;"/>
  <circle r="0.499" cy="-8.104" cx="71.5" style="fill:#ED1B2E;"/>
  <circle r="0.499" cy="-6.854" cx="68.375" style="fill:#ED1B2E;"/>
  <circle r="0.499" cy="-4.229" cx="71.125" style="fill:#ED1B2E;"/>
  <circle r="0.498" cy="-0.804" cx="54.014" style="fill:#ED1B2E;"/>
  <circle r="0.499" cy="-0.687" cx="67.833" style="fill:#ED1B2E;"/>
  <circle r="0.498" cy="-0.804" cx="60.815" style="fill:#ED1B2E;"/>
  <circle r="0.499" cy="-3.104" cx="69.5" style="fill:#ED1B2E;"/>
  <circle r="0.499" cy="-2.104" cx="63.375" style="fill:#ED1B2E;"/>
  <circle r="0.499" cy="-4.104" cx="65.375" style="fill:#ED1B2E;"/>
  <circle r="0.499" cy="-7.229" cx="65.625" style="fill:#ED1B2E;"/>
  <circle r="0.499" cy="-5.604" cx="62.5" style="fill:#ED1B2E;"/>
  <circle r="0.499" cy="-3.979" cx="60.5" style="fill:#ED1B2E;"/>
  <circle r="0.499" cy="-2.104" cx="58.25" style="fill:#ED1B2E;"/>
  <circle r="0.499" cy="-3.354" cx="55.625" style="fill:#ED1B2E;"/>
  <circle r="0.499" cy="-4.354" cx="52.25" style="fill:#ED1B2E;"/>
  <circle r="0.499" cy="-5.354" cx="49.375" style="fill:#ED1B2E;"/>
  <circle r="0.499" cy="-7.104" cx="45.375" style="fill:#ED1B2E;"/>
  <circle r="0.499" cy="-8.979" cx="48.25" style="fill:#ED1B2E;"/>
  <circle r="0.499" cy="-7.854" cx="51.5" style="fill:#ED1B2E;"/>
  <circle r="0.499" cy="-6.104" cx="54.25" style="fill:#ED1B2E;"/>
  <circle r="0.499" cy="-5.854" cx="57.375" style="fill:#ED1B2E;"/>
  <circle r="0.499" cy="-7.979" cx="59.75" style="fill:#ED1B2E;"/>
  <circle r="0.499" cy="-9.354" cx="62.25" style="fill:#ED1B2E;"/>
  <circle r="0.499" cy="-12.104" cx="59.5" style="fill:#ED1B2E;"/>
  <circle r="0.499" cy="-14.604" cx="57.625" style="fill:#ED1B2E;"/>
  <circle r="0.499" cy="-16.229" cx="54.125" style="fill:#ED1B2E;"/>
  <circle r="0.499" cy="-15.229" cx="51.5" style="fill:#ED1B2E;"/>
  <circle r="0.499" cy="-12.729" cx="48.625" style="fill:#ED1B2E;"/>
  <circle r="0.499" cy="-10.937" cx="45.5" style="fill:#ED1B2E;"/>
  <circle r="0.499" cy="-11.979" cx="42.25" style="fill:#ED1B2E;"/>
  <circle r="0.499" cy="-14.479" cx="42.125" style="fill:#ED1B2E;"/>
  <circle r="0.499" cy="-13.979" cx="45.375" style="fill:#ED1B2E;"/>
  <circle r="0.499" cy="-15.854" cx="48.375" style="fill:#ED1B2E;"/>
  <circle r="0.499" cy="-17.979" cx="46.5" style="fill:#ED1B2E;"/>
  <circle r="0.499" cy="-19.229" cx="43.625" style="fill:#ED1B2E;"/>
  <circle r="0.499" cy="-21.104" cx="40.375" style="fill:#ED1B2E;"/>
  <circle r="0.499" cy="-23.104" cx="38.375" style="fill:#ED1B2E;"/>
  <circle r="0.499" cy="-25.854" cx="36.375" style="fill:#ED1B2E;"/>
  <circle r="0.499" cy="-10.729" cx="51.625" style="fill:#ED1B2E;"/>
  <circle r="0.499" cy="-12.854" cx="53.375" style="fill:#ED1B2E;"/>
  <circle r="0.499" cy="-9.979" cx="54.25" style="fill:#ED1B2E;"/>
  <circle r="0.499" cy="-8.354" cx="56.5" style="fill:#ED1B2E;"/>
  <circle r="0.499" cy="-11.104" cx="56.5" style="fill:#ED1B2E;"/>
  <circle r="0.499" cy="-18.104" cx="51.375" style="fill:#ED1B2E;"/>
  <circle r="0.499" cy="-8.771" cx="43.125" style="fill:#ED1B2E;"/>
  <circle r="0.498" cy="-10" cx="40.771" style="fill:#ED1B2E;"/>
  <circle r="0.499" cy="-10.729" cx="36.5" style="fill:#ED1B2E;"/>
  <circle r="0.499" cy="-12.936" cx="35.25" style="fill:#ED1B2E;"/>
  <circle r="0.499" cy="-11.979" cx="31.875" style="fill:#ED1B2E;"/>
  <circle r="0.499" cy="-10.104" cx="29.375" style="fill:#ED1B2E;"/>
  <circle r="0.499" cy="-10.457" cx="26.521" style="fill:#ED1B2E;"/>
  <circle r="0.499" cy="-7.854" cx="23.875" style="fill:#ED1B2E;"/>
  <circle r="0.499" cy="-4.979" cx="22.5" style="fill:#ED1B2E;"/>
  <circle r="0.499" cy="-3.104" cx="20.25" style="fill:#ED1B2E;"/>
  <circle r="0.499" cy="-0.979" cx="23.625" style="fill:#ED1B2E;"/>
  <circle r="0.499" cy="-3.854" cx="25.5" style="fill:#ED1B2E;"/>
  <circle r="0.499" cy="-5.729" cx="28.375" style="fill:#ED1B2E;"/>
  <circle r="0.499" cy="-6.354" cx="25.833" style="fill:#ED1B2E;"/>
  <circle r="0.499" cy="-7.729" cx="31" style="fill:#ED1B2E;"/>
  <circle r="0.499" cy="-8.979" cx="32.75" style="fill:#ED1B2E;"/>
  <circle r="0.499" cy="-7.979" cx="38.5" style="fill:#ED1B2E;"/>
  <circle r="0.499" cy="-5.604" cx="44" style="fill:#ED1B2E;"/>
  <circle r="0.499" cy="-3.104" cx="47" style="fill:#ED1B2E;"/>
  <circle r="0.499" cy="-1.854" cx="50.183" style="fill:#ED1B2E;"/>
  <circle r="0.499" cy="-1.354" cx="45.25" style="fill:#ED1B2E;"/>
  <circle r="0.499" cy="-3.104" cx="42.375" style="fill:#ED1B2E;"/>
  <circle r="0.499" cy="-5.229" cx="40.125" style="fill:#ED1B2E;"/>
  <circle r="0.499" cy="-6.104" cx="37.125" style="fill:#ED1B2E;"/>
  <circle r="0.499" cy="-7.229" cx="34.625" style="fill:#ED1B2E;"/>
  <circle r="0.499" cy="-4.479" cx="32.75" style="fill:#ED1B2E;"/>
  <circle r="0.499" cy="-3.229" cx="29.625" style="fill:#ED1B2E;"/>
  <circle r="0.499" cy="-1.137" cx="27.793" style="fill:#ED1B2E;"/>
  <circle r="0.499" cy="-1.354" cx="30.5" style="fill:#ED1B2E;"/>
  <circle r="0.499" cy="-1.854" cx="34.25" style="fill:#ED1B2E;"/>
  <circle r="0.499" cy="-3.104" cx="38.25" style="fill:#ED1B2E;"/>
  <circle r="0.499" cy="-36.104" cx="34.5" style="fill:#ED1B2E;"/>
  <circle r="0.499" cy="-41.354" cx="40.125" style="fill:#ED1B2E;"/>
  <circle r="0.498" cy="-41.937" cx="36.833" style="fill:#ED1B2E;"/>
  <circle r="0.499" cy="-39.354" cx="42.125" style="fill:#ED1B2E;"/>
  <circle r="0.499" cy="-41.979" cx="44.5" style="fill:#ED1B2E;"/>
  <circle r="0.499" cy="-44.979" cx="46.375" style="fill:#ED1B2E;"/>
  <circle r="0.499" cy="-42.979" cx="50.375" style="fill:#ED1B2E;"/>
  <circle r="0.499" cy="-47.854" cx="48.375" style="fill:#ED1B2E;"/>
  <circle r="0.499" cy="-46.479" cx="50.125" style="fill:#ED1B2E;"/>
  <circle r="0.499" cy="-45.979" cx="52.875" style="fill:#ED1B2E;"/>
  <circle r="0.498" cy="-45.875" cx="55.396" style="fill:#ED1B2E;"/>
  <circle r="0.499" cy="-43.229" cx="55.125" style="fill:#ED1B2E;"/>
  <circle r="0.499" cy="-45.104" cx="59.125" style="fill:#ED1B2E;"/>
  <circle r="0.499" cy="-45.979" cx="61.5" style="fill:#ED1B2E;"/>
  <circle r="0.499" cy="-48.229" cx="64.5" style="fill:#ED1B2E;"/>
  <circle r="0.499" cy="-49.667" cx="67.771" style="fill:#ED1B2E;"/>
  <circle r="0.498" cy="-51.187" cx="70.833" style="fill:#ED1B2E;"/>
  <circle r="0.499" cy="-46.104" cx="69.25" style="fill:#ED1B2E;"/>
  <circle r="0.498" cy="-44.187" cx="70.833" style="fill:#ED1B2E;"/>
  <circle r="0.499" cy="-42.729" cx="68.625" style="fill:#ED1B2E;"/>
  <circle r="0.499" cy="-41.52" cx="70.833" style="fill:#ED1B2E;"/>
  <circle r="0.499" cy="-44.979" cx="65.25" style="fill:#ED1B2E;"/>
  <circle r="0.499" cy="-43.979" cx="63.5" style="fill:#ED1B2E;"/>
  <circle r="0.499" cy="-41.354" cx="62.167" style="fill:#ED1B2E;"/>
  <circle r="0.499" cy="-42.854" cx="60.375" style="fill:#ED1B2E;"/>
  <circle r="0.499" cy="-40.979" cx="58.375" style="fill:#ED1B2E;"/>
  <circle r="0.499" cy="-39.604" cx="55.5" style="fill:#ED1B2E;"/>
  <circle r="0.499" cy="-41.604" cx="52.625" style="fill:#ED1B2E;"/>
  <circle r="0.499" cy="-42.604" cx="48" style="fill:#ED1B2E;"/>
  <circle r="0.499" cy="-40.354" cx="45.875" style="fill:#ED1B2E;"/>
  <circle r="0.499" cy="-37.104" cx="43.375" style="fill:#ED1B2E;"/>
  <circle r="0.499" cy="-35.104" cx="42" style="fill:#ED1B2E;"/>
  <circle r="0.499" cy="-32.229" cx="40.5" style="fill:#ED1B2E;"/>
  <circle r="0.499" cy="-29.729" cx="43.5" style="fill:#ED1B2E;"/>
  <circle r="0.499" cy="-30.854" cx="45.167" style="fill:#ED1B2E;"/>
  <circle r="0.499" cy="-32.104" cx="47.5" style="fill:#ED1B2E;"/>
  <circle r="0.499" cy="-33.354" cx="44.375" style="fill:#ED1B2E;"/>
  <circle r="0.499" cy="-35.979" cx="45.5" style="fill:#ED1B2E;"/>
  <circle r="0.499" cy="-38.604" cx="47.125" style="fill:#ED1B2E;"/>
  <circle r="0.499" cy="-36.104" cx="50.375" style="fill:#ED1B2E;"/>
  <circle r="0.499" cy="-33.979" cx="48.25" style="fill:#ED1B2E;"/>
  <circle r="0.499" cy="-32.832" cx="52.354" style="fill:#ED1B2E;"/>
  <circle r="0.499" cy="-30.229" cx="49.875" style="fill:#ED1B2E;"/>
  <circle r="0.499" cy="-30.104" cx="53.375" style="fill:#ED1B2E;"/>
  <circle r="0.499" cy="-28.332" cx="51.979" style="fill:#ED1B2E;"/>
  <circle r="0.499" cy="-26.979" cx="55.125" style="fill:#ED1B2E;"/>
  <circle r="0.499" cy="-26.229" cx="58.125" style="fill:#ED1B2E;"/>
  <circle r="0.499" cy="-27.979" cx="61.5" style="fill:#ED1B2E;"/>
  <circle r="0.499" cy="-26.979" cx="64.625" style="fill:#ED1B2E;"/>
  <circle r="0.499" cy="-24.979" cx="67.875" style="fill:#ED1B2E;"/>
  <circle r="0.499" cy="-25.104" cx="70.25" style="fill:#ED1B2E;"/>
  <circle r="0.499" cy="-22.854" cx="70.875" style="fill:#ED1B2E;"/>
  <circle r="0.499" cy="-20.104" cx="69.375" style="fill:#ED1B2E;"/>
  <circle r="0.499" cy="-21.354" cx="65.666" style="fill:#ED1B2E;"/>
  <circle r="0.499" cy="-22.229" cx="67.375" style="fill:#ED1B2E;"/>
  <circle r="0.499" cy="-23.104" cx="63.5" style="fill:#ED1B2E;"/>
  <circle r="0.499" cy="-24.854" cx="61.125" style="fill:#ED1B2E;"/>
  <circle r="0.499" cy="-22.104" cx="59.625" style="fill:#ED1B2E;"/>
  <circle r="0.499" cy="-23.229" cx="56.375" style="fill:#ED1B2E;"/>
  <circle r="0.499" cy="-23.354" cx="54.25" style="fill:#ED1B2E;"/>
  <circle r="0.499" cy="-24.979" cx="51.5" style="fill:#ED1B2E;"/>
  <circle r="0.499" cy="-27.104" cx="48.5" style="fill:#ED1B2E;"/>
  <circle r="0.499" cy="-25.729" cx="45.625" style="fill:#ED1B2E;"/>
  <circle r="0.499" cy="-28.354" cx="46.667" style="fill:#ED1B2E;"/>
  <circle r="0.499" cy="-29.354" cx="40.25" style="fill:#ED1B2E;"/>
  <circle r="0.499" cy="-33.104" cx="36.375" style="fill:#ED1B2E;"/>
  <circle r="0.499" cy="-30.104" cx="36.125" style="fill:#ED1B2E;"/>
  <circle r="0.498" cy="-26.687" cx="34.333" style="fill:#ED1B2E;"/>
  <circle r="0.499" cy="-35.354" cx="37.625" style="fill:#ED1B2E;"/>
  <circle r="0.499" cy="-37.354" cx="39.333" style="fill:#ED1B2E;"/>
  <circle r="0.499" cy="-40.104" cx="50.5" style="fill:#ED1B2E;"/>
  <circle r="0.499" cy="-38.729" cx="52" style="fill:#ED1B2E;"/>
  <circle r="0.499" cy="-34.354" cx="54.5" style="fill:#ED1B2E;"/>
  <circle r="0.499" cy="-36.354" cx="56.875" style="fill:#ED1B2E;"/>
  <circle r="0.499" cy="-37.979" cx="58.25" style="fill:#ED1B2E;"/>
  <circle r="0.499" cy="-39.104" cx="60.375" style="fill:#ED1B2E;"/>
  <circle r="0.499" cy="-39.354" cx="64.375" style="fill:#ED1B2E;"/>
  <circle r="0.499" cy="-41.229" cx="66.375" style="fill:#ED1B2E;"/>
  <circle r="0.499" cy="-40.229" cx="69.5" style="fill:#ED1B2E;"/>
  <circle r="0.499" cy="-37.104" cx="67.5" style="fill:#ED1B2E;"/>
  <circle r="0.499" cy="-36.229" cx="71" style="fill:#ED1B2E;"/>
  <circle r="0.499" cy="-33.354" cx="70.375" style="fill:#ED1B2E;"/>
  <circle r="0.499" cy="-27.52" cx="71.166" style="fill:#ED1B2E;"/>
  <circle r="0.499" cy="-35.229" cx="65.5" style="fill:#ED1B2E;"/>
  <circle r="0.499" cy="-37.354" cx="62" style="fill:#ED1B2E;"/>
  <circle r="0.499" cy="-35.104" cx="60.25" style="fill:#ED1B2E;"/>
  <circle r="0.499" cy="-33.104" cx="57.625" style="fill:#ED1B2E;"/>
  <circle r="0.499" cy="-31.104" cx="55" style="fill:#ED1B2E;"/>
  <circle r="0.499" cy="-30.104" cx="58.375" style="fill:#ED1B2E;"/>
  <circle r="0.499" cy="-28.354" cx="56.667" style="fill:#ED1B2E;"/>
  <circle r="0.498" cy="-24.187" cx="44.667" style="fill:#ED1B2E;"/>
  <circle r="0.499" cy="-32.229" cx="61" style="fill:#ED1B2E;"/>
  <circle r="0.499" cy="-33.854" cx="63.375" style="fill:#ED1B2E;"/>
  <circle r="0.499" cy="-30.979" cx="65.875" style="fill:#ED1B2E;"/>
  <circle r="0.499" cy="-32.479" cx="67.625" style="fill:#ED1B2E;"/>
  <circle r="0.499" cy="-29.854" cx="63.75" style="fill:#ED1B2E;"/>
  <circle r="0.499" cy="-27.979" cx="67.25" style="fill:#ED1B2E;"/>
  <circle r="0.499" cy="-28.854" cx="69.625" style="fill:#ED1B2E;"/>
  <circle r="0.499" cy="-44.104" cx="40.625" style="fill:#ED1B2E;"/>
  <circle r="0.499" cy="-46.104" cx="44.125" style="fill:#ED1B2E;"/>
  <circle r="0.499" cy="-39.02" cx="35.333" style="fill:#ED1B2E;"/>
  <circle r="0.499" cy="-38.604" cx="32.167" style="fill:#ED1B2E;"/>
  <circle r="0.499" cy="-38.104" cx="22.25" style="fill:#ED1B2E;"/>
  <circle r="0.498" cy="-34.812" cx="25.583" style="fill:#ED1B2E;"/>
  <circle r="0.499" cy="-33.02" cx="16" style="fill:#ED1B2E;"/>
  <circle r="0.499" cy="-30.52" cx="15.5" style="fill:#ED1B2E;"/>
  <circle r="0.499" cy="-43.332" cx="33.604" style="fill:#ED1B2E;"/>
  <circle r="0.499" cy="-47.729" cx="37.375" style="fill:#ED1B2E;"/>
  <circle r="0.499" cy="-46.729" cx="34.5" style="fill:#ED1B2E;"/>
  <circle r="0.499" cy="-44.729" cx="32.625" style="fill:#ED1B2E;"/>
  <circle r="0.499" cy="-43.979" cx="29.5" style="fill:#ED1B2E;"/>
  <circle r="0.499" cy="-41.729" cx="27.375" style="fill:#ED1B2E;"/>
  <circle r="0.499" cy="-40.311" cx="24.875" style="fill:#ED1B2E;"/>
  <circle r="0.499" cy="-43.854" cx="24.5" style="fill:#ED1B2E;"/>
  <circle r="0.498" cy="-40.812" cx="20.083" style="fill:#ED1B2E;"/>
  <circle r="0.499" cy="-52.02" cx="38.667" style="fill:#ED1B2E;"/>
  <circle r="0.498" cy="-50.625" cx="35.896" style="fill:#ED1B2E;"/>
  <circle r="0.498" cy="-50.687" cx="32.5" style="fill:#ED1B2E;"/>
  <circle r="0.499" cy="-47.854" cx="31.5" style="fill:#ED1B2E;"/>
  <circle r="0.498" cy="-49" cx="33.98" style="fill:#ED1B2E;"/>
  <circle r="0.499" cy="-47.104" cx="28.625" style="fill:#ED1B2E;"/>
  <circle r="0.499" cy="-45.02" cx="26.833" style="fill:#ED1B2E;"/>
  <circle r="0.499" cy="-50.02" cx="29.833" style="fill:#ED1B2E;"/>
  <circle r="0.498" cy="-48.187" cx="27.167" style="fill:#ED1B2E;"/>
  <circle r="0.499" cy="-47.02" cx="24.5" style="fill:#ED1B2E;"/>
  <circle r="0.499" cy="-45.729" cx="21.25" style="fill:#ED1B2E;"/>
  <circle r="0.498" cy="-43.687" cx="18.333" style="fill:#ED1B2E;"/>
  <circle r="0.498" cy="-45.062" cx="14.833" style="fill:#ED1B2E;"/>
  <circle r="0.499" cy="-44.604" cx="10" style="fill:#ED1B2E;"/>
  <circle r="0.499" cy="-46.229" cx="7.5" style="fill:#ED1B2E;"/>
  <circle r="0.499" cy="-48.354" cx="3.5" style="fill:#ED1B2E;"/>
  <circle r="0.499" cy="-46.02" cx="1" style="fill:#ED1B2E;"/>
  <circle r="0.499" cy="-45.104" cx="3.375" style="fill:#ED1B2E;"/>
  <circle r="0.499" cy="-42.979" cx="2.375" style="fill:#ED1B2E;"/>
  <circle r="0.499" cy="-42.979" cx="6.375" style="fill:#ED1B2E;"/>
  <circle r="0.499" cy="-42.104" cx="9.5" style="fill:#ED1B2E;"/>
  <circle r="0.499" cy="-40.979" cx="12.5" style="fill:#ED1B2E;"/>
  <circle r="0.499" cy="-41.77" cx="16.667" style="fill:#ED1B2E;"/>
  <circle r="0.499" cy="-46.52" cx="18.5" style="fill:#ED1B2E;"/>
  <circle r="0.499" cy="-49.229" cx="22" style="fill:#ED1B2E;"/>
  <circle r="0.499" cy="-49.854" cx="18.667" style="fill:#ED1B2E;"/>
  <circle r="0.499" cy="-51.104" cx="20.75" style="fill:#ED1B2E;"/>
  <circle r="0.498" cy="-49.687" cx="15.833" style="fill:#ED1B2E;"/>
  <circle r="0.499" cy="-50.02" cx="12.5" style="fill:#ED1B2E;"/>
  <circle r="0.498" cy="-51.187" cx="3.5" style="fill:#ED1B2E;"/>
  <circle r="0.498" cy="-49.687" cx="0.5" style="fill:#ED1B2E;"/>
  <circle r="0.499" cy="-64.854" cx="68.166" style="fill:#ED1B2E;"/>
  <circle r="0.498" cy="-67.687" cx="67.833" style="fill:#ED1B2E;"/>
  <circle r="0.499" cy="-66.52" cx="71" style="fill:#ED1B2E;"/>
  <circle r="0.499" cy="-71.354" cx="65" style="fill:#ED1B2E;"/>
  <circle r="0.498" cy="-70.187" cx="68.166" style="fill:#ED1B2E;"/>
  <circle r="0.498" cy="-69.687" cx="71" style="fill:#ED1B2E;"/>
  <circle r="0.499" cy="-0.854" cx="37.401" style="fill:#ED1B2E;"/>
  <circle r="0.499" cy="-1.137" cx="41.351" style="fill:#ED1B2E;"/>
  <circle r="0.499" cy="-59.479" cx="26.5" style="fill:#ED1B2E;"/>
  <circle r="0.499" cy="-61.667" cx="25.313" style="fill:#ED1B2E;"/>
  <circle r="0.499" cy="-71.02" cx="2.167" style="fill:#ED1B2E;"/>
 </g>
</svg>
