<?xml version="1.0"?>
<!-- Converted with SVG Converter - Version 0.9.5 (Compiled Fri Feb 21 09:53:38 2020) - Copyright (C) 2011 Nokia -->
<svg xmlns="http://www.w3.org/2000/svg" width="72" xmlns:xlink="http://www.w3.org/1999/xlink" height="72" xml:space="preserve" x="0px" viewBox="1 -73 72 72" version="1.1" y="0px" baseProfile="tiny">
 <g>
  <rect width="72" height="72" x="1" y="-73" style="fill:none;"/>
  <rect width="72" height="72" x="1" y="-73"/>
  <circle cx="6.98" style="fill:#FFFFFF;" cy="-72" r="0.499"/>
  <circle cx="9.667" style="fill:#FFFFFF;" cy="-71.395" r="0.499"/>
  <circle cx="13.833" style="fill:#FFFFFF;" cy="-72.354" r="0.499"/>
  <circle cx="8.5" style="fill:#FFFFFF;" cy="-69.02" r="0.499"/>
  <circle cx="5.5" style="fill:#FFFFFF;" cy="-70.02" r="0.499"/>
  <circle cx="1.666" style="fill:#FFFFFF;" cy="-69.02" r="0.499"/>
  <circle cx="4.667" style="fill:#FFFFFF;" cy="-67.187" r="0.499"/>
  <circle cx="7.333" style="fill:#FFFFFF;" cy="-66.02" r="0.499"/>
  <circle cx="10.5" style="fill:#FFFFFF;" cy="-64.854" r="0.499"/>
  <circle cx="12" style="fill:#FFFFFF;" cy="-68.687" r="0.499"/>
  <circle cx="15" style="fill:#FFFFFF;" cy="-68.52" r="0.499"/>
  <circle cx="17.167" style="fill:#FFFFFF;" cy="-71.02" r="0.499"/>
  <circle cx="20.333" style="fill:#FFFFFF;" cy="-71.854" r="0.499"/>
  <circle cx="22.333" style="fill:#FFFFFF;" cy="-70.687" r="0.499"/>
  <circle cx="25.75" style="fill:#FFFFFF;" cy="-70.479" r="0.499"/>
  <circle cx="27.5" style="fill:#FFFFFF;" cy="-72.354" r="0.499"/>
  <circle cx="29.333" style="fill:#FFFFFF;" cy="-70.02" r="0.499"/>
  <circle cx="27.333" style="fill:#FFFFFF;" cy="-67.854" r="0.499"/>
  <circle cx="25.5" style="fill:#FFFFFF;" cy="-64.854" r="0.499"/>
  <circle cx="23.667" style="fill:#FFFFFF;" cy="-61.854" r="0.499"/>
  <circle cx="21.875" style="fill:#FFFFFF;" cy="-64.729" r="0.499"/>
  <circle cx="23.875" style="fill:#FFFFFF;" cy="-67.854" r="0.499"/>
  <circle cx="23" style="fill:#FFFFFF;" cy="-59.104" r="0.499"/>
  <circle cx="20.833" style="fill:#FFFFFF;" cy="-66.52" r="0.499"/>
  <circle cx="19" style="fill:#FFFFFF;" cy="-63.854" r="0.499"/>
  <circle cx="16.333" style="fill:#FFFFFF;" cy="-64.02" r="0.499"/>
  <circle cx="15.5" style="fill:#FFFFFF;" cy="-62.02" r="0.499"/>
  <circle cx="12.667" style="fill:#FFFFFF;" cy="-62.854" r="0.499"/>
  <circle cx="12.5" style="fill:#FFFFFF;" cy="-59.687" r="0.499"/>
  <circle cx="11.5" style="fill:#FFFFFF;" cy="-56.02" r="0.499"/>
  <circle cx="10.667" style="fill:#FFFFFF;" cy="-52.854" r="0.499"/>
  <circle cx="10.833" style="fill:#FFFFFF;" cy="-50.52" r="0.499"/>
  <circle cx="7.667" style="fill:#FFFFFF;" cy="-49.854" r="0.499"/>
  <circle cx="8" style="fill:#FFFFFF;" cy="-52.854" r="0.499"/>
  <circle cx="8.5" style="fill:#FFFFFF;" cy="-55.687" r="0.499"/>
  <circle cx="8.833" style="fill:#FFFFFF;" cy="-59.187" r="0.499"/>
  <circle cx="9.5" style="fill:#FFFFFF;" cy="-61.854" r="0.499"/>
  <circle cx="6.333" style="fill:#FFFFFF;" cy="-62.354" r="0.499"/>
  <circle cx="3.667" style="fill:#FFFFFF;" cy="-64.354" r="0.499"/>
  <circle cx="1.833" style="fill:#FFFFFF;" cy="-65.52" r="0.499"/>
  <circle cx="2.333" style="fill:#FFFFFF;" cy="-60.687" r="0.499"/>
  <circle cx="5.333" style="fill:#FFFFFF;" cy="-58.854" r="0.499"/>
  <circle cx="4.333" style="fill:#FFFFFF;" cy="-55.854" r="0.499"/>
  <circle cx="2.5" style="fill:#FFFFFF;" cy="-54.854" r="0.499"/>
  <circle cx="2.167" style="fill:#FFFFFF;" cy="-57.854" r="0.499"/>
  <circle cx="14.333" style="fill:#FFFFFF;" cy="-57.854" r="0.499"/>
  <circle cx="18.333" style="fill:#FFFFFF;" cy="-60.687" r="0.499"/>
  <circle cx="20.5" style="fill:#FFFFFF;" cy="-60.687" r="0.499"/>
  <circle cx="20" style="fill:#FFFFFF;" cy="-56.854" r="0.499"/>
  <circle cx="17.875" style="fill:#FFFFFF;" cy="-57.604" r="0.499"/>
  <circle cx="19.833" style="fill:#FFFFFF;" cy="-54.687" r="0.499"/>
  <circle cx="16.5" style="fill:#FFFFFF;" cy="-53.854" r="0.499"/>
  <circle cx="14.167" style="fill:#FFFFFF;" cy="-55.02" r="0.499"/>
  <circle cx="14" style="fill:#FFFFFF;" cy="-65.854" r="0.499"/>
  <circle cx="17.667" style="fill:#FFFFFF;" cy="-66.52" r="0.499"/>
  <circle cx="19" style="fill:#FFFFFF;" cy="-68.687" r="0.499"/>
  <circle cx="32" style="fill:#FFFFFF;" cy="-71.687" r="0.499"/>
  <circle cx="34.833" style="fill:#FFFFFF;" cy="-72.187" r="0.499"/>
  <circle cx="35.5" style="fill:#FFFFFF;" cy="-69.854" r="0.499"/>
  <circle cx="38" style="fill:#FFFFFF;" cy="-72.041" r="0.499"/>
  <circle cx="41.333" style="fill:#FFFFFF;" cy="-72.187" r="0.499"/>
  <circle cx="33.125" style="fill:#FFFFFF;" cy="-67.854" r="0.499"/>
  <circle cx="30" style="fill:#FFFFFF;" cy="-67.854" r="0.499"/>
  <circle cx="28.833" style="fill:#FFFFFF;" cy="-62.354" r="0.499"/>
  <circle cx="30.667" style="fill:#FFFFFF;" cy="-65.229" r="0.499"/>
  <circle cx="28.5" style="fill:#FFFFFF;" cy="-65.854" r="0.499"/>
  <circle cx="35.167" style="fill:#FFFFFF;" cy="-66.52" r="0.499"/>
  <circle cx="38.167" style="fill:#FFFFFF;" cy="-68.354" r="0.499"/>
  <circle cx="41.5" style="fill:#FFFFFF;" cy="-70.02" r="0.499"/>
  <circle cx="44.333" style="fill:#FFFFFF;" cy="-71.187" r="0.499"/>
  <circle cx="47.5" style="fill:#FFFFFF;" cy="-72.187" r="0.499"/>
  <circle cx="51.333" style="fill:#FFFFFF;" cy="-72.02" r="0.499"/>
  <circle cx="47.167" style="fill:#FFFFFF;" cy="-68.729" r="0.499"/>
  <circle cx="44.021" style="fill:#FFFFFF;" cy="-68.125" r="0.499"/>
  <circle cx="41.833" style="fill:#FFFFFF;" cy="-65.562" r="0.499"/>
  <circle cx="39.333" style="fill:#FFFFFF;" cy="-66.354" r="0.499"/>
  <circle cx="38.75" style="fill:#FFFFFF;" cy="-63.854" r="0.499"/>
  <circle cx="35.5" style="fill:#FFFFFF;" cy="-61.729" r="0.499"/>
  <circle cx="32.333" style="fill:#FFFFFF;" cy="-60.854" r="0.499"/>
  <circle cx="29.333" style="fill:#FFFFFF;" cy="-59.52" r="0.499"/>
  <circle cx="34.5" style="fill:#FFFFFF;" cy="-58.727" r="0.499"/>
  <circle cx="30.667" style="fill:#FFFFFF;" cy="-58.187" r="0.499"/>
  <circle cx="28.667" style="fill:#FFFFFF;" cy="-55.854" r="0.499"/>
  <circle cx="26.167" style="fill:#FFFFFF;" cy="-58.02" r="0.499"/>
  <circle cx="26" style="fill:#FFFFFF;" cy="-54.52" r="0.499"/>
  <circle cx="24" style="fill:#FFFFFF;" cy="-55.604" r="0.499"/>
  <circle cx="25.667" style="fill:#FFFFFF;" cy="-52.187" r="0.499"/>
  <circle cx="28.5" style="fill:#FFFFFF;" cy="-52.854" r="0.499"/>
  <circle cx="31.854" style="fill:#FFFFFF;" cy="-54.207" r="0.499"/>
  <circle cx="34" style="fill:#FFFFFF;" cy="-55.02" r="0.499"/>
  <circle cx="33.167" style="fill:#FFFFFF;" cy="-56.687" r="0.499"/>
  <circle cx="36.667" style="fill:#FFFFFF;" cy="-55.52" r="0.499"/>
  <circle cx="37.167" style="fill:#FFFFFF;" cy="-58.02" r="0.499"/>
  <circle cx="38.667" style="fill:#FFFFFF;" cy="-60.354" r="0.499"/>
  <circle cx="41.333" style="fill:#FFFFFF;" cy="-62.187" r="0.499"/>
  <circle cx="44" style="fill:#FFFFFF;" cy="-63.52" r="0.499"/>
  <circle cx="45.313" style="fill:#FFFFFF;" cy="-65.874" r="0.499"/>
  <circle cx="49.083" style="fill:#FFFFFF;" cy="-66.812" r="0.499"/>
  <circle cx="50.083" style="fill:#FFFFFF;" cy="-69.812" r="0.499"/>
  <circle cx="54.167" style="fill:#FFFFFF;" cy="-71.52" r="0.499"/>
  <circle cx="57.5" style="fill:#FFFFFF;" cy="-72.354" r="0.499"/>
  <circle cx="63.167" style="fill:#FFFFFF;" cy="-72.354" r="0.499"/>
  <circle cx="60" style="fill:#FFFFFF;" cy="-71.02" r="0.499"/>
  <circle cx="58.5" style="fill:#FFFFFF;" cy="-68.062" r="0.499"/>
  <circle cx="55.125" style="fill:#FFFFFF;" cy="-67.729" r="0.499"/>
  <circle cx="65.166" style="fill:#FFFFFF;" cy="-62.729" r="0.499"/>
  <circle cx="51.833" style="fill:#FFFFFF;" cy="-66.312" r="0.499"/>
  <circle cx="33.167" style="fill:#FFFFFF;" cy="-64.062" r="0.499"/>
  <circle cx="36.167" style="fill:#FFFFFF;" cy="-64.52" r="0.499"/>
  <circle cx="53.333" style="fill:#FFFFFF;" cy="-69.187" r="0.499"/>
  <circle cx="46.687" style="fill:#FFFFFF;" cy="-63.207" r="0.499"/>
  <circle cx="44.333" style="fill:#FFFFFF;" cy="-60.77" r="0.499"/>
  <circle cx="41.667" style="fill:#FFFFFF;" cy="-58.854" r="0.499"/>
  <circle cx="39.667" style="fill:#FFFFFF;" cy="-56.02" r="0.499"/>
  <circle cx="42.833" style="fill:#FFFFFF;" cy="-54.395" r="0.499"/>
  <circle cx="44" style="fill:#FFFFFF;" cy="-57.02" r="0.499"/>
  <circle cx="49.5" style="fill:#FFFFFF;" cy="-61.062" r="0.499"/>
  <circle cx="51.333" style="fill:#FFFFFF;" cy="-63.561" r="0.499"/>
  <circle cx="49.167" style="fill:#FFFFFF;" cy="-64.854" r="0.499"/>
  <circle cx="54.333" style="fill:#FFFFFF;" cy="-64.894" r="0.499"/>
  <circle cx="57.5" style="fill:#FFFFFF;" cy="-65.395" r="0.499"/>
  <circle cx="60.5" style="fill:#FFFFFF;" cy="-67.02" r="0.499"/>
  <circle cx="62.333" style="fill:#FFFFFF;" cy="-69.52" r="0.499"/>
  <circle cx="66.333" style="fill:#FFFFFF;" cy="-68.854" r="0.499"/>
  <circle cx="64.833" style="fill:#FFFFFF;" cy="-70.187" r="0.499"/>
  <circle cx="63.5" style="fill:#FFFFFF;" cy="-67.187" r="0.499"/>
  <circle cx="60.667" style="fill:#FFFFFF;" cy="-64.854" r="0.499"/>
  <circle cx="57.5" style="fill:#FFFFFF;" cy="-61.854" r="0.499"/>
  <circle cx="54.333" style="fill:#FFFFFF;" cy="-62.02" r="0.499"/>
  <circle cx="48.333" style="fill:#FFFFFF;" cy="-58.854" r="0.499"/>
  <circle cx="48.167" style="fill:#FFFFFF;" cy="-55.52" r="0.499"/>
  <circle cx="45.75" style="fill:#FFFFFF;" cy="-56.104" r="0.499"/>
  <circle cx="45.875" style="fill:#FFFFFF;" cy="-52.354" r="0.499"/>
  <circle cx="66.166" style="fill:#FFFFFF;" cy="-66.187" r="0.499"/>
  <circle cx="63.313" style="fill:#FFFFFF;" cy="-64.207" r="0.499"/>
  <circle cx="61" style="fill:#FFFFFF;" cy="-61.562" r="0.499"/>
  <circle cx="58.167" style="fill:#FFFFFF;" cy="-59.354" r="0.499"/>
  <circle cx="55.5" style="fill:#FFFFFF;" cy="-59.187" r="0.499"/>
  <circle cx="53.5" style="fill:#FFFFFF;" cy="-57.02" r="0.499"/>
  <circle cx="50.833" style="fill:#FFFFFF;" cy="-54.354" r="0.499"/>
  <circle cx="53.667" style="fill:#FFFFFF;" cy="-53.854" r="0.499"/>
  <circle cx="55.833" style="fill:#FFFFFF;" cy="-56.02" r="0.499"/>
  <circle cx="58.5" style="fill:#FFFFFF;" cy="-56.187" r="0.499"/>
  <circle cx="63" style="fill:#FFFFFF;" cy="-60.062" r="0.499"/>
  <circle cx="68.833" style="fill:#FFFFFF;" cy="-63.229" r="0.499"/>
  <circle cx="67" style="fill:#FFFFFF;" cy="-61.02" r="0.499"/>
  <circle cx="72.5" style="fill:#FFFFFF;" cy="-63.187" r="0.499"/>
  <circle cx="69.5" style="fill:#FFFFFF;" cy="-61.02" r="0.499"/>
  <circle cx="67.5" style="fill:#FFFFFF;" cy="-58.854" r="0.499"/>
  <circle cx="70.5" style="fill:#FFFFFF;" cy="-57.854" r="0.499"/>
  <circle cx="72" style="fill:#FFFFFF;" cy="-60.02" r="0.499"/>
  <circle cx="64.333" style="fill:#FFFFFF;" cy="-57.854" r="0.499"/>
  <circle cx="61.625" style="fill:#FFFFFF;" cy="-56.979" r="0.499"/>
  <circle cx="62.25" style="fill:#FFFFFF;" cy="-54.854" r="0.499"/>
  <circle cx="59.5" style="fill:#FFFFFF;" cy="-54.104" r="0.499"/>
  <circle cx="65.333" style="fill:#FFFFFF;" cy="-55.52" r="0.499"/>
  <circle cx="68.5" style="fill:#FFFFFF;" cy="-55.02" r="0.499"/>
  <circle cx="71.666" style="fill:#FFFFFF;" cy="-55.02" r="0.499"/>
  <circle cx="69.5" style="fill:#FFFFFF;" cy="-53.187" r="0.499"/>
  <circle cx="66.5" style="fill:#FFFFFF;" cy="-53.02" r="0.499"/>
  <circle cx="63.5" style="fill:#FFFFFF;" cy="-51.854" r="0.499"/>
  <circle cx="60.167" style="fill:#FFFFFF;" cy="-51.854" r="0.499"/>
  <circle cx="61.333" style="fill:#FFFFFF;" cy="-49.854" r="0.499"/>
  <circle cx="68" style="fill:#FFFFFF;" cy="-48.354" r="0.499"/>
  <circle cx="52.5" style="fill:#FFFFFF;" cy="-59.227" r="0.499"/>
  <circle cx="55.833" style="fill:#FFFFFF;" cy="-69.854" r="0.499"/>
  <circle cx="58.75" style="fill:#FFFFFF;" cy="-48.354" r="0.499"/>
  <circle cx="56.75" style="fill:#FFFFFF;" cy="-52.854" r="0.499"/>
  <circle cx="53.75" style="fill:#FFFFFF;" cy="-50.479" r="0.499"/>
  <circle cx="55.667" style="fill:#FFFFFF;" cy="-49.02" r="0.499"/>
  <circle cx="58" style="fill:#FFFFFF;" cy="-50.854" r="0.499"/>
  <circle cx="51.333" style="fill:#FFFFFF;" cy="-51.187" r="0.499"/>
  <circle cx="48.167" style="fill:#FFFFFF;" cy="-52.02" r="0.499"/>
  <circle cx="45.333" style="fill:#FFFFFF;" cy="-50.02" r="0.499"/>
  <circle cx="42.313" style="fill:#FFFFFF;" cy="-51.541" r="0.499"/>
  <circle cx="41.125" style="fill:#FFFFFF;" cy="-49.354" r="0.499"/>
  <circle cx="42.833" style="fill:#FFFFFF;" cy="-47.354" r="0.499"/>
  <circle cx="38.167" style="fill:#FFFFFF;" cy="-46.104" r="0.499"/>
  <circle cx="32.167" style="fill:#FFFFFF;" cy="-42.437" r="0.499"/>
  <circle cx="28" style="fill:#FFFFFF;" cy="-39.479" r="0.499"/>
  <circle cx="19.833" style="fill:#FFFFFF;" cy="-39.312" r="0.499"/>
  <circle cx="23.833" style="fill:#FFFFFF;" cy="-43.394" r="0.499"/>
  <circle cx="15.167" style="fill:#FFFFFF;" cy="-43.77" r="0.499"/>
  <circle cx="12.667" style="fill:#FFFFFF;" cy="-47.437" r="0.499"/>
  <circle cx="24.583" style="fill:#FFFFFF;" cy="-36.812" r="0.499"/>
  <circle cx="22.5" style="fill:#FFFFFF;" cy="-33.354" r="0.499"/>
  <circle cx="25.125" style="fill:#FFFFFF;" cy="-31.229" r="0.499"/>
  <circle cx="20" style="fill:#FFFFFF;" cy="-32.895" r="0.499"/>
  <circle cx="14.333" style="fill:#FFFFFF;" cy="-17.854" r="0.499"/>
  <circle cx="19.167" style="fill:#FFFFFF;" cy="-30.561" r="0.499"/>
  <circle cx="14.5" style="fill:#FFFFFF;" cy="-34.104" r="0.499"/>
  <circle cx="10.75" style="fill:#FFFFFF;" cy="-36.104" r="0.499"/>
  <circle cx="11.25" style="fill:#FFFFFF;" cy="-40.354" r="0.499"/>
  <circle cx="5.875" style="fill:#FFFFFF;" cy="-38.604" r="0.499"/>
  <circle cx="2.625" style="fill:#FFFFFF;" cy="-40.104" r="0.499"/>
  <circle cx="6.375" style="fill:#FFFFFF;" cy="-41.354" r="0.499"/>
  <circle cx="8.5" style="fill:#FFFFFF;" cy="-39.729" r="0.499"/>
  <circle cx="13.854" style="fill:#FFFFFF;" cy="-37.332" r="0.499"/>
  <circle cx="16.375" style="fill:#FFFFFF;" cy="-37.979" r="0.499"/>
  <circle cx="14.375" style="fill:#FFFFFF;" cy="-40.229" r="0.499"/>
  <circle cx="17.5" style="fill:#FFFFFF;" cy="-40.354" r="0.499"/>
  <circle cx="18" style="fill:#FFFFFF;" cy="-36.354" r="0.499"/>
  <circle cx="21.167" style="fill:#FFFFFF;" cy="-36.562" r="0.499"/>
  <circle cx="25.625" style="fill:#FFFFFF;" cy="-33.104" r="0.499"/>
  <circle cx="30" style="fill:#FFFFFF;" cy="-37.436" r="0.499"/>
  <circle cx="32.875" style="fill:#FFFFFF;" cy="-34.979" r="0.499"/>
  <circle cx="31.875" style="fill:#FFFFFF;" cy="-32.979" r="0.499"/>
  <circle cx="34.375" style="fill:#FFFFFF;" cy="-32.229" r="0.499"/>
  <circle cx="34.75" style="fill:#FFFFFF;" cy="-30.104" r="0.499"/>
  <circle cx="33.625" style="fill:#FFFFFF;" cy="-26.979" r="0.499"/>
  <circle cx="33.25" style="fill:#FFFFFF;" cy="-24.354" r="0.499"/>
  <circle cx="34.875" style="fill:#FFFFFF;" cy="-20.729" r="0.499"/>
  <circle cx="37" style="fill:#FFFFFF;" cy="-23.686" r="0.499"/>
  <circle cx="39.125" style="fill:#FFFFFF;" cy="-20.854" r="0.499"/>
  <circle cx="37.125" style="fill:#FFFFFF;" cy="-18.354" r="0.499"/>
  <circle cx="43.5" style="fill:#FFFFFF;" cy="-18.104" r="0.499"/>
  <circle cx="40.375" style="fill:#FFFFFF;" cy="-18.229" r="0.499"/>
  <circle cx="38.375" style="fill:#FFFFFF;" cy="-14.979" r="0.499"/>
  <circle cx="34.5" style="fill:#FFFFFF;" cy="-15.979" r="0.499"/>
  <circle cx="33.375" style="fill:#FFFFFF;" cy="-18.854" r="0.499"/>
  <circle cx="31.875" style="fill:#FFFFFF;" cy="-21.104" r="0.499"/>
  <circle cx="30.75" style="fill:#FFFFFF;" cy="-23.979" r="0.499"/>
  <circle cx="30" style="fill:#FFFFFF;" cy="-26.687" r="0.499"/>
  <circle cx="31.625" style="fill:#FFFFFF;" cy="-29.229" r="0.499"/>
  <circle cx="28.167" style="fill:#FFFFFF;" cy="-31.687" r="0.499"/>
  <circle cx="29" style="fill:#FFFFFF;" cy="-34.895" r="0.499"/>
  <circle cx="28.75" style="fill:#FFFFFF;" cy="-29.604" r="0.499"/>
  <circle cx="26.375" style="fill:#FFFFFF;" cy="-28.104" r="0.499"/>
  <circle cx="27.375" style="fill:#FFFFFF;" cy="-25.104" r="0.499"/>
  <circle cx="27.5" style="fill:#FFFFFF;" cy="-22.02" r="0.499"/>
  <circle cx="28.833" style="fill:#FFFFFF;" cy="-19.187" r="0.499"/>
  <circle cx="30" style="fill:#FFFFFF;" cy="-17.354" r="0.499"/>
  <circle cx="31.125" style="fill:#FFFFFF;" cy="-15.479" r="0.499"/>
  <circle cx="29.75" style="fill:#FFFFFF;" cy="-13.229" r="0.499"/>
  <circle cx="26" style="fill:#FFFFFF;" cy="-13.354" r="0.499"/>
  <circle cx="23.5" style="fill:#FFFFFF;" cy="-15.979" r="0.499"/>
  <circle cx="21.5" style="fill:#FFFFFF;" cy="-13.979" r="0.499"/>
  <circle cx="50.333" style="fill:#FFFFFF;" cy="-57.187" r="0.499"/>
  <circle cx="18.25" style="fill:#FFFFFF;" cy="-9.479" r="0.499"/>
  <circle cx="21.375" style="fill:#FFFFFF;" cy="-10.104" r="0.499"/>
  <circle cx="22.333" style="fill:#FFFFFF;" cy="-7.854" r="0.499"/>
  <circle cx="24.25" style="fill:#FFFFFF;" cy="-10.979" r="0.499"/>
  <circle cx="19.5" style="fill:#FFFFFF;" cy="-7.062" r="0.499"/>
  <circle cx="17.25" style="fill:#FFFFFF;" cy="-3.104" r="0.499"/>
  <circle cx="15.833" style="fill:#FFFFFF;" cy="-5.562" r="0.499"/>
  <circle cx="12.5" style="fill:#FFFFFF;" cy="-3.104" r="0.499"/>
  <circle cx="11.021" style="fill:#FFFFFF;" cy="-5.332" r="0.499"/>
  <circle cx="13.5" style="fill:#FFFFFF;" cy="-6.979" r="0.499"/>
  <circle cx="14.5" style="fill:#FFFFFF;" cy="-9.854" r="0.499"/>
  <circle cx="15.5" style="fill:#FFFFFF;" cy="-8.187" r="0.499"/>
  <circle cx="18.833" style="fill:#FFFFFF;" cy="-4.187" r="0.499"/>
  <circle cx="20.5" style="fill:#FFFFFF;" cy="-2.02" r="0.498"/>
  <circle cx="9.75" style="fill:#FFFFFF;" cy="-1.604" r="0.499"/>
  <circle cx="15" style="fill:#FFFFFF;" cy="-1.92" r="0.499"/>
  <circle cx="10.5" style="fill:#FFFFFF;" cy="-12.104" r="0.499"/>
  <circle cx="12" style="fill:#FFFFFF;" cy="-9.979" r="0.499"/>
  <circle cx="8.375" style="fill:#FFFFFF;" cy="-9.979" r="0.499"/>
  <circle cx="5.75" style="fill:#FFFFFF;" cy="-10.854" r="0.499"/>
  <circle cx="3.25" style="fill:#FFFFFF;" cy="-9.229" r="0.499"/>
  <circle cx="5.375" style="fill:#FFFFFF;" cy="-7.104" r="0.499"/>
  <circle cx="9.125" style="fill:#FFFFFF;" cy="-7.104" r="0.499"/>
  <circle cx="8.25" style="fill:#FFFFFF;" cy="-4.104" r="0.499"/>
  <circle cx="5.5" style="fill:#FFFFFF;" cy="-3.979" r="0.499"/>
  <circle cx="3.25" style="fill:#FFFFFF;" cy="-5.229" r="0.499"/>
  <circle cx="1.5" style="fill:#FFFFFF;" cy="-3.104" r="0.499"/>
  <circle cx="4.635" style="fill:#FFFFFF;" cy="-1.795" r="0.499"/>
  <circle cx="16" style="fill:#FFFFFF;" cy="-48.604" r="0.499"/>
  <circle cx="14.333" style="fill:#FFFFFF;" cy="-13.062" r="0.499"/>
  <circle cx="12.167" style="fill:#FFFFFF;" cy="-14.854" r="0.499"/>
  <circle cx="10.5" style="fill:#FFFFFF;" cy="-22.854" r="0.499"/>
  <circle cx="10.5" style="fill:#FFFFFF;" cy="-26.687" r="0.499"/>
  <circle cx="15.167" style="fill:#FFFFFF;" cy="-15.687" r="0.499"/>
  <circle cx="17.5" style="fill:#FFFFFF;" cy="-12.729" r="0.499"/>
  <circle cx="16.667" style="fill:#FFFFFF;" cy="-19.687" r="0.499"/>
  <circle cx="22.167" style="fill:#FFFFFF;" cy="-12.521" r="0.498"/>
  <circle cx="19.667" style="fill:#FFFFFF;" cy="-17.687" r="0.499"/>
  <circle cx="22.375" style="fill:#FFFFFF;" cy="-18.979" r="0.499"/>
  <circle cx="22" style="fill:#FFFFFF;" cy="-22.229" r="0.499"/>
  <circle cx="16.583" style="fill:#FFFFFF;" cy="-22.812" r="0.499"/>
  <circle cx="19.375" style="fill:#FFFFFF;" cy="-20.104" r="0.499"/>
  <circle cx="18.333" style="fill:#FFFFFF;" cy="-15.687" r="0.499"/>
  <circle cx="16.083" style="fill:#FFFFFF;" cy="-26.062" r="0.499"/>
  <circle cx="19" style="fill:#FFFFFF;" cy="-23.729" r="0.499"/>
  <circle cx="21.667" style="fill:#FFFFFF;" cy="-26.229" r="0.499"/>
  <circle cx="24.375" style="fill:#FFFFFF;" cy="-23.686" r="0.499"/>
  <circle cx="24.375" style="fill:#FFFFFF;" cy="-26.104" r="0.499"/>
  <circle cx="22.25" style="fill:#FFFFFF;" cy="-29.686" r="0.499"/>
  <circle cx="19" style="fill:#FFFFFF;" cy="-28.104" r="0.499"/>
  <circle cx="16.25" style="fill:#FFFFFF;" cy="-29.104" r="0.499"/>
  <circle cx="13.75" style="fill:#FFFFFF;" cy="-31.332" r="0.499"/>
  <circle cx="11.5" style="fill:#FFFFFF;" cy="-32.979" r="0.499"/>
  <circle cx="7.75" style="fill:#FFFFFF;" cy="-33.104" r="0.499"/>
  <circle cx="8" style="fill:#FFFFFF;" cy="-35.354" r="0.499"/>
  <circle cx="5.625" style="fill:#FFFFFF;" cy="-35.104" r="0.499"/>
  <circle cx="2.5" style="fill:#FFFFFF;" cy="-36.229" r="0.499"/>
  <circle cx="3.5" style="fill:#FFFFFF;" cy="-33.104" r="0.499"/>
  <circle cx="4.5" style="fill:#FFFFFF;" cy="-30.979" r="0.499"/>
  <circle cx="6.25" style="fill:#FFFFFF;" cy="-27.979" r="0.499"/>
  <circle cx="8.125" style="fill:#FFFFFF;" cy="-25.979" r="0.499"/>
  <circle cx="13.375" style="fill:#FFFFFF;" cy="-23.104" r="0.499"/>
  <circle cx="13.5" style="fill:#FFFFFF;" cy="-20.104" r="0.499"/>
  <circle cx="10.771" style="fill:#FFFFFF;" cy="-20.5" r="0.499"/>
  <circle cx="8.375" style="fill:#FFFFFF;" cy="-21.979" r="0.499"/>
  <circle cx="6.5" style="fill:#FFFFFF;" cy="-23.979" r="0.499"/>
  <circle cx="4.375" style="fill:#FFFFFF;" cy="-25.979" r="0.499"/>
  <circle cx="2.5" style="fill:#FFFFFF;" cy="-27.979" r="0.499"/>
  <circle cx="8.375" style="fill:#FFFFFF;" cy="-30.104" r="0.499"/>
  <circle cx="11" style="fill:#FFFFFF;" cy="-30.02" r="0.499"/>
  <circle cx="13.167" style="fill:#FFFFFF;" cy="-25.354" r="0.499"/>
  <circle cx="13.333" style="fill:#FFFFFF;" cy="-28.187" r="0.499"/>
  <circle cx="8.396" style="fill:#FFFFFF;" cy="-17.125" r="0.499"/>
  <circle cx="5.5" style="fill:#FFFFFF;" cy="-15.854" r="0.499"/>
  <circle cx="3.5" style="fill:#FFFFFF;" cy="-12.854" r="0.499"/>
  <circle cx="1.659" style="fill:#FFFFFF;" cy="-14.104" r="0.499"/>
  <circle cx="7.021" style="fill:#FFFFFF;" cy="-14.332" r="0.499"/>
  <circle cx="10" style="fill:#FFFFFF;" cy="-14.729" r="0.499"/>
  <circle cx="11.625" style="fill:#FFFFFF;" cy="-17.104" r="0.499"/>
  <circle cx="6.375" style="fill:#FFFFFF;" cy="-18.979" r="0.499"/>
  <circle cx="4.25" style="fill:#FFFFFF;" cy="-20.854" r="0.499"/>
  <circle cx="2.25" style="fill:#FFFFFF;" cy="-23.104" r="0.499"/>
  <circle cx="3.25" style="fill:#FFFFFF;" cy="-18.104" r="0.499"/>
  <circle cx="27.25" style="fill:#FFFFFF;" cy="-15.854" r="0.499"/>
  <circle cx="26.25" style="fill:#FFFFFF;" cy="-17.729" r="0.499"/>
  <circle cx="24.625" style="fill:#FFFFFF;" cy="-20.604" r="0.499"/>
  <circle cx="40.125" style="fill:#FFFFFF;" cy="-28.604" r="0.499"/>
  <circle cx="41.375" style="fill:#FFFFFF;" cy="-26.104" r="0.499"/>
  <circle cx="44.167" style="fill:#FFFFFF;" cy="-27.687" r="0.499"/>
  <circle cx="43.5" style="fill:#FFFFFF;" cy="-23.52" r="0.499"/>
  <circle cx="46.5" style="fill:#FFFFFF;" cy="-21.979" r="0.499"/>
  <circle cx="49.375" style="fill:#FFFFFF;" cy="-23.979" r="0.499"/>
  <circle cx="50.146" style="fill:#FFFFFF;" cy="-21.332" r="0.499"/>
  <circle cx="52.5" style="fill:#FFFFFF;" cy="-23.229" r="0.499"/>
  <circle cx="55.5" style="fill:#FFFFFF;" cy="-20.854" r="0.499"/>
  <circle cx="58.833" style="fill:#FFFFFF;" cy="-21.312" r="0.499"/>
  <circle cx="60.375" style="fill:#FFFFFF;" cy="-19.104" r="0.499"/>
  <circle cx="63.667" style="fill:#FFFFFF;" cy="-21.27" r="0.499"/>
  <circle cx="66.625" style="fill:#FFFFFF;" cy="-17.979" r="0.499"/>
  <circle cx="70.375" style="fill:#FFFFFF;" cy="-17.979" r="0.499"/>
  <circle cx="72.333" style="fill:#FFFFFF;" cy="-19.187" r="0.499"/>
  <circle cx="72.166" style="fill:#FFFFFF;" cy="-16.02" r="0.499"/>
  <circle cx="72.341" style="fill:#FFFFFF;" cy="-12.129" r="0.498"/>
  <circle cx="69.5" style="fill:#FFFFFF;" cy="-14.229" r="0.499"/>
  <circle cx="66.625" style="fill:#FFFFFF;" cy="-15.729" r="0.499"/>
  <circle cx="62.833" style="fill:#FFFFFF;" cy="-17.604" r="0.499"/>
  <circle cx="57.375" style="fill:#FFFFFF;" cy="-18.479" r="0.499"/>
  <circle cx="63.375" style="fill:#FFFFFF;" cy="-13.979" r="0.499"/>
  <circle cx="66.5" style="fill:#FFFFFF;" cy="-12.104" r="0.499"/>
  <circle cx="69.75" style="fill:#FFFFFF;" cy="-10.979" r="0.499"/>
  <circle cx="72.5" style="fill:#FFFFFF;" cy="-9.104" r="0.499"/>
  <circle cx="69.375" style="fill:#FFFFFF;" cy="-7.854" r="0.499"/>
  <circle cx="72.125" style="fill:#FFFFFF;" cy="-5.229" r="0.499"/>
  <circle cx="55.014" style="fill:#FFFFFF;" cy="-1.804" r="0.499"/>
  <circle cx="68.833" style="fill:#FFFFFF;" cy="-1.687" r="0.499"/>
  <circle cx="61.815" style="fill:#FFFFFF;" cy="-1.804" r="0.499"/>
  <circle cx="70.5" style="fill:#FFFFFF;" cy="-4.104" r="0.499"/>
  <circle cx="64.375" style="fill:#FFFFFF;" cy="-3.104" r="0.499"/>
  <circle cx="66.375" style="fill:#FFFFFF;" cy="-5.104" r="0.499"/>
  <circle cx="66.625" style="fill:#FFFFFF;" cy="-8.229" r="0.499"/>
  <circle cx="63.5" style="fill:#FFFFFF;" cy="-6.604" r="0.499"/>
  <circle cx="61.5" style="fill:#FFFFFF;" cy="-4.979" r="0.499"/>
  <circle cx="59.25" style="fill:#FFFFFF;" cy="-3.104" r="0.499"/>
  <circle cx="56.625" style="fill:#FFFFFF;" cy="-4.354" r="0.499"/>
  <circle cx="53.25" style="fill:#FFFFFF;" cy="-5.354" r="0.499"/>
  <circle cx="50.375" style="fill:#FFFFFF;" cy="-6.354" r="0.499"/>
  <circle cx="46.375" style="fill:#FFFFFF;" cy="-8.104" r="0.499"/>
  <circle cx="49.25" style="fill:#FFFFFF;" cy="-9.979" r="0.499"/>
  <circle cx="52.5" style="fill:#FFFFFF;" cy="-8.854" r="0.499"/>
  <circle cx="55.25" style="fill:#FFFFFF;" cy="-7.104" r="0.499"/>
  <circle cx="58.375" style="fill:#FFFFFF;" cy="-6.854" r="0.499"/>
  <circle cx="60.75" style="fill:#FFFFFF;" cy="-8.979" r="0.499"/>
  <circle cx="63.25" style="fill:#FFFFFF;" cy="-10.354" r="0.499"/>
  <circle cx="60.5" style="fill:#FFFFFF;" cy="-13.104" r="0.499"/>
  <circle cx="58.625" style="fill:#FFFFFF;" cy="-15.604" r="0.499"/>
  <circle cx="55.125" style="fill:#FFFFFF;" cy="-17.229" r="0.499"/>
  <circle cx="52.5" style="fill:#FFFFFF;" cy="-16.229" r="0.499"/>
  <circle cx="49.625" style="fill:#FFFFFF;" cy="-13.729" r="0.499"/>
  <circle cx="46.5" style="fill:#FFFFFF;" cy="-11.937" r="0.499"/>
  <circle cx="43.25" style="fill:#FFFFFF;" cy="-12.979" r="0.499"/>
  <circle cx="43.125" style="fill:#FFFFFF;" cy="-15.479" r="0.499"/>
  <circle cx="46.375" style="fill:#FFFFFF;" cy="-14.979" r="0.499"/>
  <circle cx="49.375" style="fill:#FFFFFF;" cy="-16.854" r="0.499"/>
  <circle cx="47.5" style="fill:#FFFFFF;" cy="-18.979" r="0.499"/>
  <circle cx="44.625" style="fill:#FFFFFF;" cy="-20.229" r="0.499"/>
  <circle cx="41.375" style="fill:#FFFFFF;" cy="-22.104" r="0.499"/>
  <circle cx="39.375" style="fill:#FFFFFF;" cy="-24.104" r="0.499"/>
  <circle cx="37.375" style="fill:#FFFFFF;" cy="-26.854" r="0.499"/>
  <circle cx="52.625" style="fill:#FFFFFF;" cy="-11.729" r="0.499"/>
  <circle cx="54.375" style="fill:#FFFFFF;" cy="-13.854" r="0.499"/>
  <circle cx="55.25" style="fill:#FFFFFF;" cy="-10.979" r="0.499"/>
  <circle cx="57.5" style="fill:#FFFFFF;" cy="-9.354" r="0.499"/>
  <circle cx="57.5" style="fill:#FFFFFF;" cy="-12.104" r="0.499"/>
  <circle cx="52.375" style="fill:#FFFFFF;" cy="-19.104" r="0.499"/>
  <circle cx="44.125" style="fill:#FFFFFF;" cy="-9.771" r="0.499"/>
  <circle cx="41.771" style="fill:#FFFFFF;" cy="-11" r="0.499"/>
  <circle cx="37.5" style="fill:#FFFFFF;" cy="-11.729" r="0.499"/>
  <circle cx="36.25" style="fill:#FFFFFF;" cy="-13.936" r="0.499"/>
  <circle cx="32.875" style="fill:#FFFFFF;" cy="-12.979" r="0.499"/>
  <circle cx="30.375" style="fill:#FFFFFF;" cy="-11.104" r="0.499"/>
  <circle cx="27.521" style="fill:#FFFFFF;" cy="-11.457" r="0.499"/>
  <circle cx="24.875" style="fill:#FFFFFF;" cy="-8.854" r="0.499"/>
  <circle cx="23.5" style="fill:#FFFFFF;" cy="-5.979" r="0.499"/>
  <circle cx="21.25" style="fill:#FFFFFF;" cy="-4.104" r="0.499"/>
  <circle cx="24.625" style="fill:#FFFFFF;" cy="-1.979" r="0.499"/>
  <circle cx="26.5" style="fill:#FFFFFF;" cy="-4.854" r="0.499"/>
  <circle cx="29.375" style="fill:#FFFFFF;" cy="-6.729" r="0.499"/>
  <circle cx="26.833" style="fill:#FFFFFF;" cy="-7.354" r="0.499"/>
  <circle cx="32" style="fill:#FFFFFF;" cy="-8.729" r="0.499"/>
  <circle cx="33.75" style="fill:#FFFFFF;" cy="-9.979" r="0.499"/>
  <circle cx="39.5" style="fill:#FFFFFF;" cy="-8.979" r="0.499"/>
  <circle cx="45" style="fill:#FFFFFF;" cy="-6.604" r="0.499"/>
  <circle cx="48" style="fill:#FFFFFF;" cy="-4.104" r="0.499"/>
  <circle cx="51.183" style="fill:#FFFFFF;" cy="-2.854" r="0.499"/>
  <circle cx="46.25" style="fill:#FFFFFF;" cy="-2.354" r="0.499"/>
  <circle cx="43.375" style="fill:#FFFFFF;" cy="-4.104" r="0.499"/>
  <circle cx="41.125" style="fill:#FFFFFF;" cy="-6.229" r="0.499"/>
  <circle cx="38.125" style="fill:#FFFFFF;" cy="-7.104" r="0.499"/>
  <circle cx="35.625" style="fill:#FFFFFF;" cy="-8.229" r="0.499"/>
  <circle cx="33.75" style="fill:#FFFFFF;" cy="-5.479" r="0.499"/>
  <circle cx="30.625" style="fill:#FFFFFF;" cy="-4.229" r="0.499"/>
  <circle cx="28.793" style="fill:#FFFFFF;" cy="-2.137" r="0.499"/>
  <circle cx="31.5" style="fill:#FFFFFF;" cy="-2.354" r="0.499"/>
  <circle cx="35.25" style="fill:#FFFFFF;" cy="-2.854" r="0.499"/>
  <circle cx="39.25" style="fill:#FFFFFF;" cy="-4.104" r="0.499"/>
  <circle cx="35.5" style="fill:#FFFFFF;" cy="-37.104" r="0.499"/>
  <circle cx="41.125" style="fill:#FFFFFF;" cy="-42.354" r="0.499"/>
  <circle cx="37.833" style="fill:#FFFFFF;" cy="-42.937" r="0.499"/>
  <circle cx="43.125" style="fill:#FFFFFF;" cy="-40.354" r="0.499"/>
  <circle cx="45.5" style="fill:#FFFFFF;" cy="-42.979" r="0.499"/>
  <circle cx="47.375" style="fill:#FFFFFF;" cy="-45.979" r="0.499"/>
  <circle cx="51.375" style="fill:#FFFFFF;" cy="-43.979" r="0.499"/>
  <circle cx="49.375" style="fill:#FFFFFF;" cy="-48.854" r="0.499"/>
  <circle cx="51.125" style="fill:#FFFFFF;" cy="-47.479" r="0.499"/>
  <circle cx="53.875" style="fill:#FFFFFF;" cy="-46.979" r="0.499"/>
  <circle cx="56.396" style="fill:#FFFFFF;" cy="-46.875" r="0.499"/>
  <circle cx="56.125" style="fill:#FFFFFF;" cy="-44.229" r="0.499"/>
  <circle cx="60.125" style="fill:#FFFFFF;" cy="-46.104" r="0.499"/>
  <circle cx="62.5" style="fill:#FFFFFF;" cy="-46.979" r="0.499"/>
  <circle cx="65.5" style="fill:#FFFFFF;" cy="-49.229" r="0.499"/>
  <circle cx="68.771" style="fill:#FFFFFF;" cy="-50.667" r="0.499"/>
  <circle cx="71.833" style="fill:#FFFFFF;" cy="-52.187" r="0.499"/>
  <circle cx="70.25" style="fill:#FFFFFF;" cy="-47.104" r="0.499"/>
  <circle cx="71.833" style="fill:#FFFFFF;" cy="-45.187" r="0.499"/>
  <circle cx="69.625" style="fill:#FFFFFF;" cy="-43.729" r="0.499"/>
  <circle cx="71.833" style="fill:#FFFFFF;" cy="-42.52" r="0.499"/>
  <circle cx="66.25" style="fill:#FFFFFF;" cy="-45.979" r="0.499"/>
  <circle cx="64.5" style="fill:#FFFFFF;" cy="-44.979" r="0.499"/>
  <circle cx="63.167" style="fill:#FFFFFF;" cy="-42.354" r="0.499"/>
  <circle cx="61.375" style="fill:#FFFFFF;" cy="-43.854" r="0.499"/>
  <circle cx="59.375" style="fill:#FFFFFF;" cy="-41.979" r="0.499"/>
  <circle cx="56.5" style="fill:#FFFFFF;" cy="-40.604" r="0.499"/>
  <circle cx="53.625" style="fill:#FFFFFF;" cy="-42.604" r="0.499"/>
  <circle cx="49" style="fill:#FFFFFF;" cy="-43.604" r="0.499"/>
  <circle cx="46.875" style="fill:#FFFFFF;" cy="-41.354" r="0.499"/>
  <circle cx="44.375" style="fill:#FFFFFF;" cy="-38.104" r="0.499"/>
  <circle cx="43" style="fill:#FFFFFF;" cy="-36.104" r="0.499"/>
  <circle cx="41.5" style="fill:#FFFFFF;" cy="-33.229" r="0.499"/>
  <circle cx="44.5" style="fill:#FFFFFF;" cy="-30.729" r="0.499"/>
  <circle cx="46.167" style="fill:#FFFFFF;" cy="-31.854" r="0.499"/>
  <circle cx="48.5" style="fill:#FFFFFF;" cy="-33.104" r="0.499"/>
  <circle cx="45.375" style="fill:#FFFFFF;" cy="-34.354" r="0.499"/>
  <circle cx="46.5" style="fill:#FFFFFF;" cy="-36.979" r="0.499"/>
  <circle cx="48.125" style="fill:#FFFFFF;" cy="-39.604" r="0.499"/>
  <circle cx="51.375" style="fill:#FFFFFF;" cy="-37.104" r="0.499"/>
  <circle cx="49.25" style="fill:#FFFFFF;" cy="-34.979" r="0.499"/>
  <circle cx="53.354" style="fill:#FFFFFF;" cy="-33.832" r="0.499"/>
  <circle cx="50.875" style="fill:#FFFFFF;" cy="-31.229" r="0.499"/>
  <circle cx="54.375" style="fill:#FFFFFF;" cy="-31.104" r="0.499"/>
  <circle cx="52.979" style="fill:#FFFFFF;" cy="-29.332" r="0.499"/>
  <circle cx="56.125" style="fill:#FFFFFF;" cy="-27.979" r="0.499"/>
  <circle cx="59.125" style="fill:#FFFFFF;" cy="-27.229" r="0.499"/>
  <circle cx="62.5" style="fill:#FFFFFF;" cy="-28.979" r="0.499"/>
  <circle cx="65.625" style="fill:#FFFFFF;" cy="-27.979" r="0.499"/>
  <circle cx="68.875" style="fill:#FFFFFF;" cy="-25.979" r="0.499"/>
  <circle cx="71.25" style="fill:#FFFFFF;" cy="-26.104" r="0.499"/>
  <circle cx="71.875" style="fill:#FFFFFF;" cy="-23.854" r="0.499"/>
  <circle cx="70.375" style="fill:#FFFFFF;" cy="-21.104" r="0.499"/>
  <circle cx="66.666" style="fill:#FFFFFF;" cy="-22.354" r="0.499"/>
  <circle cx="68.375" style="fill:#FFFFFF;" cy="-23.229" r="0.499"/>
  <circle cx="64.5" style="fill:#FFFFFF;" cy="-24.104" r="0.499"/>
  <circle cx="62.125" style="fill:#FFFFFF;" cy="-25.854" r="0.499"/>
  <circle cx="60.625" style="fill:#FFFFFF;" cy="-23.104" r="0.499"/>
  <circle cx="57.375" style="fill:#FFFFFF;" cy="-24.229" r="0.499"/>
  <circle cx="55.25" style="fill:#FFFFFF;" cy="-24.354" r="0.499"/>
  <circle cx="52.5" style="fill:#FFFFFF;" cy="-25.979" r="0.499"/>
  <circle cx="49.5" style="fill:#FFFFFF;" cy="-28.104" r="0.499"/>
  <circle cx="46.625" style="fill:#FFFFFF;" cy="-26.729" r="0.499"/>
  <circle cx="47.667" style="fill:#FFFFFF;" cy="-29.354" r="0.499"/>
  <circle cx="41.25" style="fill:#FFFFFF;" cy="-30.354" r="0.499"/>
  <circle cx="37.375" style="fill:#FFFFFF;" cy="-34.104" r="0.499"/>
  <circle cx="37.125" style="fill:#FFFFFF;" cy="-31.104" r="0.499"/>
  <circle cx="35.333" style="fill:#FFFFFF;" cy="-27.687" r="0.499"/>
  <circle cx="38.625" style="fill:#FFFFFF;" cy="-36.354" r="0.499"/>
  <circle cx="40.333" style="fill:#FFFFFF;" cy="-38.354" r="0.499"/>
  <circle cx="51.5" style="fill:#FFFFFF;" cy="-41.104" r="0.499"/>
  <circle cx="53" style="fill:#FFFFFF;" cy="-39.729" r="0.499"/>
  <circle cx="55.5" style="fill:#FFFFFF;" cy="-35.354" r="0.499"/>
  <circle cx="57.875" style="fill:#FFFFFF;" cy="-37.354" r="0.499"/>
  <circle cx="59.25" style="fill:#FFFFFF;" cy="-38.979" r="0.499"/>
  <circle cx="61.375" style="fill:#FFFFFF;" cy="-40.104" r="0.499"/>
  <circle cx="65.375" style="fill:#FFFFFF;" cy="-40.354" r="0.499"/>
  <circle cx="67.375" style="fill:#FFFFFF;" cy="-42.229" r="0.499"/>
  <circle cx="70.5" style="fill:#FFFFFF;" cy="-41.229" r="0.499"/>
  <circle cx="68.5" style="fill:#FFFFFF;" cy="-38.104" r="0.499"/>
  <circle cx="72" style="fill:#FFFFFF;" cy="-37.229" r="0.499"/>
  <circle cx="71.375" style="fill:#FFFFFF;" cy="-34.354" r="0.499"/>
  <circle cx="72.166" style="fill:#FFFFFF;" cy="-28.52" r="0.499"/>
  <circle cx="66.5" style="fill:#FFFFFF;" cy="-36.229" r="0.499"/>
  <circle cx="63" style="fill:#FFFFFF;" cy="-38.354" r="0.499"/>
  <circle cx="61.25" style="fill:#FFFFFF;" cy="-36.104" r="0.499"/>
  <circle cx="58.625" style="fill:#FFFFFF;" cy="-34.104" r="0.499"/>
  <circle cx="56" style="fill:#FFFFFF;" cy="-32.104" r="0.499"/>
  <circle cx="59.375" style="fill:#FFFFFF;" cy="-31.104" r="0.499"/>
  <circle cx="57.667" style="fill:#FFFFFF;" cy="-29.354" r="0.499"/>
  <circle cx="45.667" style="fill:#FFFFFF;" cy="-25.187" r="0.499"/>
  <circle cx="62" style="fill:#FFFFFF;" cy="-33.229" r="0.499"/>
  <circle cx="64.375" style="fill:#FFFFFF;" cy="-34.854" r="0.499"/>
  <circle cx="66.875" style="fill:#FFFFFF;" cy="-31.979" r="0.499"/>
  <circle cx="68.625" style="fill:#FFFFFF;" cy="-33.479" r="0.499"/>
  <circle cx="64.75" style="fill:#FFFFFF;" cy="-30.854" r="0.499"/>
  <circle cx="68.25" style="fill:#FFFFFF;" cy="-28.979" r="0.499"/>
  <circle cx="70.625" style="fill:#FFFFFF;" cy="-29.854" r="0.499"/>
  <circle cx="41.625" style="fill:#FFFFFF;" cy="-45.104" r="0.499"/>
  <circle cx="45.125" style="fill:#FFFFFF;" cy="-47.104" r="0.499"/>
  <circle cx="36.333" style="fill:#FFFFFF;" cy="-40.02" r="0.499"/>
  <circle cx="33.167" style="fill:#FFFFFF;" cy="-39.604" r="0.499"/>
  <circle cx="23.25" style="fill:#FFFFFF;" cy="-39.104" r="0.499"/>
  <circle cx="26.583" style="fill:#FFFFFF;" cy="-35.812" r="0.499"/>
  <circle cx="17" style="fill:#FFFFFF;" cy="-34.02" r="0.499"/>
  <circle cx="16.5" style="fill:#FFFFFF;" cy="-31.52" r="0.499"/>
  <circle cx="34.604" style="fill:#FFFFFF;" cy="-44.332" r="0.499"/>
  <circle cx="38.375" style="fill:#FFFFFF;" cy="-48.729" r="0.499"/>
  <circle cx="35.5" style="fill:#FFFFFF;" cy="-47.729" r="0.499"/>
  <circle cx="33.625" style="fill:#FFFFFF;" cy="-45.729" r="0.499"/>
  <circle cx="30.5" style="fill:#FFFFFF;" cy="-44.979" r="0.499"/>
  <circle cx="28.375" style="fill:#FFFFFF;" cy="-42.729" r="0.499"/>
  <circle cx="25.875" style="fill:#FFFFFF;" cy="-41.311" r="0.499"/>
  <circle cx="25.5" style="fill:#FFFFFF;" cy="-44.854" r="0.499"/>
  <circle cx="21.083" style="fill:#FFFFFF;" cy="-41.812" r="0.499"/>
  <circle cx="39.667" style="fill:#FFFFFF;" cy="-53.02" r="0.499"/>
  <circle cx="36.896" style="fill:#FFFFFF;" cy="-51.625" r="0.499"/>
  <circle cx="33.5" style="fill:#FFFFFF;" cy="-51.687" r="0.499"/>
  <circle cx="32.5" style="fill:#FFFFFF;" cy="-48.854" r="0.499"/>
  <circle cx="34.98" style="fill:#FFFFFF;" cy="-50" r="0.499"/>
  <circle cx="29.625" style="fill:#FFFFFF;" cy="-48.104" r="0.499"/>
  <circle cx="27.833" style="fill:#FFFFFF;" cy="-46.02" r="0.499"/>
  <circle cx="30.833" style="fill:#FFFFFF;" cy="-51.02" r="0.499"/>
  <circle cx="28.167" style="fill:#FFFFFF;" cy="-49.187" r="0.499"/>
  <circle cx="25.5" style="fill:#FFFFFF;" cy="-48.02" r="0.499"/>
  <circle cx="22.25" style="fill:#FFFFFF;" cy="-46.729" r="0.499"/>
  <circle cx="19.333" style="fill:#FFFFFF;" cy="-44.687" r="0.499"/>
  <circle cx="15.833" style="fill:#FFFFFF;" cy="-46.062" r="0.499"/>
  <circle cx="11" style="fill:#FFFFFF;" cy="-45.604" r="0.499"/>
  <circle cx="8.5" style="fill:#FFFFFF;" cy="-47.229" r="0.499"/>
  <circle cx="4.5" style="fill:#FFFFFF;" cy="-49.354" r="0.499"/>
  <circle cx="2" style="fill:#FFFFFF;" cy="-47.02" r="0.499"/>
  <circle cx="4.375" style="fill:#FFFFFF;" cy="-46.104" r="0.499"/>
  <circle cx="3.375" style="fill:#FFFFFF;" cy="-43.979" r="0.499"/>
  <circle cx="7.375" style="fill:#FFFFFF;" cy="-43.979" r="0.499"/>
  <circle cx="10.5" style="fill:#FFFFFF;" cy="-43.104" r="0.499"/>
  <circle cx="13.5" style="fill:#FFFFFF;" cy="-41.979" r="0.499"/>
  <circle cx="17.667" style="fill:#FFFFFF;" cy="-42.77" r="0.499"/>
  <circle cx="19.5" style="fill:#FFFFFF;" cy="-47.52" r="0.499"/>
  <circle cx="23" style="fill:#FFFFFF;" cy="-50.229" r="0.499"/>
  <circle cx="19.667" style="fill:#FFFFFF;" cy="-50.854" r="0.499"/>
  <circle cx="21.75" style="fill:#FFFFFF;" cy="-52.104" r="0.499"/>
  <circle cx="16.833" style="fill:#FFFFFF;" cy="-50.687" r="0.499"/>
  <circle cx="13.5" style="fill:#FFFFFF;" cy="-51.02" r="0.499"/>
  <circle cx="4.5" style="fill:#FFFFFF;" cy="-52.187" r="0.499"/>
  <circle cx="1.5" style="fill:#FFFFFF;" cy="-50.687" r="0.499"/>
  <circle cx="69.166" style="fill:#FFFFFF;" cy="-65.854" r="0.499"/>
  <circle cx="68.833" style="fill:#FFFFFF;" cy="-68.687" r="0.499"/>
  <circle cx="72" style="fill:#FFFFFF;" cy="-67.52" r="0.499"/>
  <circle cx="66" style="fill:#FFFFFF;" cy="-72.354" r="0.499"/>
  <circle cx="69.166" style="fill:#FFFFFF;" cy="-71.187" r="0.499"/>
  <circle cx="72" style="fill:#FFFFFF;" cy="-70.687" r="0.499"/>
  <circle cx="38.401" style="fill:#FFFFFF;" cy="-1.854" r="0.499"/>
  <circle cx="42.351" style="fill:#FFFFFF;" cy="-2.137" r="0.499"/>
  <circle cx="27.5" style="fill:#FFFFFF;" cy="-60.479" r="0.499"/>
  <circle cx="26.313" style="fill:#FFFFFF;" cy="-62.667" r="0.499"/>
  <circle cx="3.167" style="fill:#FFFFFF;" cy="-72.02" r="0.499"/>
 </g>
</svg>
