<?xml version="1.0" encoding="utf-8"?>
<svg xmlns="http://www.w3.org/2000/svg" version="1.1" x="0px" y="0px" xml:space="preserve" width="57.601" height="57.601" viewBox="0 -57.601 57.601 57.601">
	<g>
		<rect y="-57.601" style="fill:none;" width="57.601" height="57.601"/>
		<rect y="-57.601" width="57.601" height="57.601"/>
		<circle style="fill:#FFFFFF;" cx="49.634" cy="-44.225" r="0.777"/>
		<circle style="fill:#FFFFFF;" cx="48.884" cy="-55.433" r="0.777"/>
		<circle style="fill:#FFFFFF;" cx="42.467" cy="-51.224" r="0.777"/>
		<circle style="fill:#FFFFFF;" cx="28.467" cy="-51.308" r="0.777"/>
		<circle style="fill:#FFFFFF;" cx="22.459" cy="-51.467" r="0.777"/>
		<circle style="fill:#FFFFFF;" cx="14.384" cy="-50.558" r="0.777"/>
		<circle style="fill:#FFFFFF;" cx="10.05" cy="-52.224" r="0.777"/>
		<circle style="fill:#FFFFFF;" cx="4.634" cy="-48.391" r="0.777"/>
		<circle style="fill:#FFFFFF;" cx="1.55" cy="-49.475" r="0.778"/>
		<path style="fill:#FFFFFF;" d="M0-50.621c0.427-0.003,0.773-0.35,0.773-0.778c0-0.428-0.346-0.775-0.773-0.778"/>
		<path style="fill:#FFFFFF;" d="M57.601-52.176c-0.004,0-0.008,0-0.012,0c-0.43,0-0.777,0.349-0.777,0.778s0.348,0.778,0.777,0.778    c0.004,0,0.008,0,0.012,0"/>
		<circle style="fill:#FFFFFF;" cx="8.634" cy="-42.558" r="0.777"/>
		<circle style="fill:#FFFFFF;" cx="16.709" cy="-43.884" r="0.777"/>
		<circle style="fill:#FFFFFF;" cx="21.292" cy="-44.967" r="0.777"/>
		<circle style="fill:#FFFFFF;" cx="50.042" cy="-27.467" r="0.777"/>
		<circle style="fill:#FFFFFF;" cx="38.376" cy="-49.55" r="0.777"/>
		<circle style="fill:#FFFFFF;" cx="27.8" cy="-56.391" r="0.777"/>
		<circle style="fill:#FFFFFF;" cx="18.467" cy="-37.891" r="0.777"/>
		<circle style="fill:#FFFFFF;" cx="25.876" cy="-30.55" r="0.777"/>
		<circle style="fill:#FFFFFF;" cx="34.209" cy="-29.467" r="0.777"/>
		<circle style="fill:#FFFFFF;" cx="30.292" cy="-19.3" r="0.777"/>
		<circle style="fill:#FFFFFF;" cx="56.8" cy="-26.308" r="0.777"/>
		<circle style="fill:#FFFFFF;" cx="48.626" cy="-17.55" r="0.777"/>
		<circle style="fill:#FFFFFF;" cx="0.808" cy="-32.634" r="0.777"/>
		<circle style="fill:#FFFFFF;" cx="19.725" cy="-28.384" r="0.777"/>
		<circle style="fill:#FFFFFF;" cx="24.891" cy="-23.3" r="0.777"/>
		<circle style="fill:#FFFFFF;" cx="12.384" cy="-18.475" r="0.777"/>
		<circle style="fill:#FFFFFF;" cx="31.717" cy="-13.058" r="0.777"/>
		<circle style="fill:#FFFFFF;" cx="41.3" cy="-14.391" r="0.777"/>
		<circle style="fill:#FFFFFF;" cx="56.634" cy="-8.474" r="0.777"/>
		<circle style="fill:#FFFFFF;" cx="52.384" cy="-2.391" r="0.777"/>
		<circle style="fill:#FFFFFF;" cx="41.55" cy="-0.808" r="0.777"/>
		<path style="fill:#FFFFFF;" d="M45.494,0c0.019-0.413,0.358-0.741,0.775-0.741c0.417,0,0.756,0.328,0.775,0.741"/>
		<path style="fill:#FFFFFF;" d="M47.045-57.601c-0.011,0.419-0.354,0.757-0.776,0.757c-0.423,0-0.766-0.338-0.776-0.757"/>
		<circle style="fill:#FFFFFF;" cx="13.55" cy="-3.391" r="0.777"/>
		<circle style="fill:#FFFFFF;" cx="6.55" cy="-3.891" r="0.777"/>
		<circle style="fill:#FFFFFF;" cx="1.3" cy="-16.475" r="0.777"/>
		<circle style="fill:#FFFFFF;" cx="39.641" cy="-26.05" r="0.777"/>
		<circle style="fill:#FFFFFF;" cx="20.975" cy="-32.467" r="0.777"/>
		<circle style="fill:#FFFFFF;" cx="3.558" cy="-21.55" r="0.777"/>
		<circle style="fill:#FFFFFF;" cx="45.967" cy="-46.224" r="0.777"/>
		<circle style="fill:#FFFFFF;" cx="31.634" cy="-40.225" r="0.777"/>
		<circle style="fill:#FFFFFF;" cx="33.634" cy="-37.558" r="0.777"/>
		<circle style="fill:#FFFFFF;" cx="38.467" cy="-32.391" r="0.777"/>
		<circle style="fill:#FFFFFF;" cx="44.634" cy="-30.058" r="0.777"/>
		<circle style="fill:#FFFFFF;" cx="46.634" cy="-26.391" r="0.777"/>
		<circle style="fill:#FFFFFF;" cx="51.467" cy="-24.057" r="0.777"/>
		<circle style="fill:#FFFFFF;" cx="44.634" cy="-17.058" r="0.777"/>
		<circle style="fill:#FFFFFF;" cx="54.634" cy="-30.391" r="0.777"/>
		<circle style="fill:#FFFFFF;" cx="48.8" cy="-47.391" r="0.777"/>
		<circle style="fill:#FFFFFF;" cx="39.134" cy="-45.225" r="0.777"/>
		<circle style="fill:#FFFFFF;" cx="51.467" cy="-50.391" r="0.777"/>
		<circle style="fill:#FFFFFF;" cx="47.634" cy="-33.891" r="0.777"/>
		<circle style="fill:#FFFFFF;" cx="22.217" cy="-10.558" r="0.777"/>
		<circle style="fill:#FFFFFF;" cx="19.321" cy="-11.683" r="0.777"/>
		<circle style="fill:#FFFFFF;" cx="22.384" cy="-2.475" r="0.777"/>
		<circle style="fill:#FFFFFF;" cx="16.634" cy="-10.141" r="0.777"/>
		<circle style="fill:#FFFFFF;" cx="29.8" cy="-5.391" r="0.777"/>
		<circle style="fill:#FFFFFF;" cx="54.134" cy="-41.722" r="0.408"/>
		<circle style="fill:#FFFFFF;" cx="56.467" cy="-41.555" r="0.408"/>
		<circle style="fill:#FFFFFF;" cx="55.467" cy="-39.222" r="0.408"/>
		<circle style="fill:#FFFFFF;" cx="52.634" cy="-44.222" r="0.408"/>
		<circle style="fill:#FFFFFF;" cx="47.967" cy="-41.222" r="0.408"/>
		<circle style="fill:#FFFFFF;" cx="45.134" cy="-44.055" r="0.408"/>
		<circle style="fill:#FFFFFF;" cx="42.134" cy="-44.888" r="0.408"/>
		<circle style="fill:#FFFFFF;" cx="43.634" cy="-47.721" r="0.408"/>
		<circle style="fill:#FFFFFF;" cx="45.3" cy="-48.555" r="0.408"/>
		<circle style="fill:#FFFFFF;" cx="50.634" cy="-40.555" r="0.408"/>
		<circle style="fill:#FFFFFF;" cx="51.8" cy="-42.555" r="0.408"/>
		<circle style="fill:#FFFFFF;" cx="49.467" cy="-38.722" r="0.408"/>
		<circle style="fill:#FFFFFF;" cx="52.634" cy="-38.388" r="0.408"/>
		<circle style="fill:#FFFFFF;" cx="56.134" cy="-36.555" r="0.408"/>
		<circle style="fill:#FFFFFF;" cx="55.3" cy="-34.888" r="0.408"/>
		<circle style="fill:#FFFFFF;" cx="52.8" cy="-35.388" r="0.408"/>
		<circle style="fill:#FFFFFF;" cx="50.8" cy="-33.222" r="0.408"/>
		<circle style="fill:#FFFFFF;" cx="53.3" cy="-32.721" r="0.408"/>
		<circle style="fill:#FFFFFF;" cx="56.3" cy="-32.721" r="0.408"/>
		<circle style="fill:#FFFFFF;" cx="57.134" cy="-34.388" r="0.408"/>
		<circle style="fill:#FFFFFF;" cx="57.134" cy="-11.055" r="0.408"/>
		<circle style="fill:#FFFFFF;" cx="54.134" cy="-10.555" r="0.408"/>
		<circle style="fill:#FFFFFF;" cx="51.634" cy="-11.138" r="0.408"/>
		<circle style="fill:#FFFFFF;" cx="51.634" cy="-13.555" r="0.408"/>
		<circle style="fill:#FFFFFF;" cx="48.8" cy="-12.555" r="0.408"/>
		<circle style="fill:#FFFFFF;" cx="49.717" cy="-11.305" r="0.408"/>
		<circle style="fill:#FFFFFF;" cx="50.55" cy="-8.305" r="0.408"/>
		<circle style="fill:#FFFFFF;" cx="53.634" cy="-6.388" r="0.408"/>
		<circle style="fill:#FFFFFF;" cx="15.934" cy="-8.838" r="0.408"/>
		<circle style="fill:#FFFFFF;" cx="0.767" cy="-14.338" r="0.408"/>
		<circle style="fill:#FFFFFF;" cx="25.1" cy="-27.505" r="0.408"/>
		<circle style="fill:#FFFFFF;" cx="22.35" cy="-26.255" r="0.408"/>
		<circle style="fill:#FFFFFF;" cx="31.184" cy="-9.171" r="0.408"/>
		<circle style="fill:#FFFFFF;" cx="6.517" cy="-29.088" r="0.408"/>
		<circle style="fill:#FFFFFF;" cx="19.85" cy="-38.505" r="0.408"/>
		<circle style="fill:#FFFFFF;" cx="23.272" cy="-55" r="0.408"/>
		<circle style="fill:#FFFFFF;" cx="29.35" cy="-55.838" r="0.408"/>
		<circle style="fill:#FFFFFF;" cx="14.184" cy="-48.671" r="0.408"/>
		<circle style="fill:#FFFFFF;" cx="16.309" cy="-49.963" r="0.408"/>
		<circle style="fill:#FFFFFF;" cx="22.684" cy="-56.588" r="0.408"/>
		<circle style="fill:#FFFFFF;" cx="30.1" cy="-50.672" r="0.408"/>
		<circle style="fill:#FFFFFF;" cx="1.6" cy="-56.588" r="0.408"/>
		<circle style="fill:#FFFFFF;" cx="48.517" cy="-43.255" r="0.408"/>
		<circle style="fill:#FFFFFF;" cx="37.6" cy="-48.338" r="0.408"/>
		<circle style="fill:#FFFFFF;" cx="30.6" cy="-47.505" r="0.408"/>
		<circle style="fill:#FFFFFF;" cx="43.684" cy="-2.713" r="0.408"/>
		<circle style="fill:#FFFFFF;" cx="31.434" cy="-0.463" r="0.408"/>
		<circle style="fill:#FFFFFF;" cx="8.809" cy="-3.338" r="0.408"/>
		<circle style="fill:#FFFFFF;" cx="49.559" cy="-31.588" r="0.408"/>
		<circle style="fill:#FFFFFF;" cx="5.309" cy="-20.838" r="0.408"/>
		<circle style="fill:#FFFFFF;" cx="1.309" cy="-10.963" r="0.408"/>
		<circle style="fill:#FFFFFF;" cx="52.684" cy="-3.963" r="0.408"/>
		<circle style="fill:#FFFFFF;" cx="54.059" cy="-8.838" r="0.408"/>
		<circle style="fill:#FFFFFF;" cx="56.559" cy="-0.963" r="0.408"/>
		<circle style="fill:#FFFFFF;" cx="54.215" cy="-0.432" r="0.408"/>
		<circle style="fill:#FFFFFF;" cx="55.634" cy="-5.472" r="0.408"/>
		<circle style="fill:#FFFFFF;" cx="55.467" cy="-2.805" r="0.408"/>
		<circle style="fill:#FFFFFF;" cx="45.05" cy="-11.972" r="0.408"/>
		<circle style="fill:#FFFFFF;" cx="44.217" cy="-14.638" r="0.408"/>
		<circle style="fill:#FFFFFF;" cx="37.717" cy="-13.472" r="0.408"/>
		<circle style="fill:#FFFFFF;" cx="36.55" cy="-12.472" r="0.408"/>
		<circle style="fill:#FFFFFF;" cx="35.467" cy="-16.471" r="0.408"/>
		<circle style="fill:#FFFFFF;" cx="33.55" cy="-15.305" r="0.408"/>
		<circle style="fill:#FFFFFF;" cx="33.884" cy="-13.638" r="0.408"/>
		<circle style="fill:#FFFFFF;" cx="28.8" cy="-12.472" r="0.408"/>
		<circle style="fill:#FFFFFF;" cx="29.55" cy="-10.388" r="0.408"/>
		<circle style="fill:#FFFFFF;" cx="27.384" cy="-19.055" r="0.408"/>
		<circle style="fill:#FFFFFF;" cx="28.634" cy="-21.638" r="0.408"/>
		<circle style="fill:#FFFFFF;" cx="27.217" cy="-22.888" r="0.408"/>
		<circle style="fill:#FFFFFF;" cx="24.55" cy="-20.472" r="0.408"/>
		<circle style="fill:#FFFFFF;" cx="22.8" cy="-19.305" r="0.408"/>
		<circle style="fill:#FFFFFF;" cx="24.634" cy="-17.138" r="0.408"/>
		<circle style="fill:#FFFFFF;" cx="27.8" cy="-17.138" r="0.408"/>
		<circle style="fill:#FFFFFF;" cx="29.55" cy="-16.222" r="0.408"/>
		<circle style="fill:#FFFFFF;" cx="31.8" cy="-16.722" r="0.408"/>
		<circle style="fill:#FFFFFF;" cx="34.134" cy="-17.888" r="0.408"/>
		<circle style="fill:#FFFFFF;" cx="32.55" cy="-19.138" r="0.408"/>
		<circle style="fill:#FFFFFF;" cx="40.217" cy="-10.638" r="0.408"/>
		<circle style="fill:#FFFFFF;" cx="42.634" cy="-11.305" r="0.408"/>
		<circle style="fill:#FFFFFF;" cx="42.467" cy="-8.555" r="0.408"/>
		<circle style="fill:#FFFFFF;" cx="43.55" cy="-6.388" r="0.408"/>
		<circle style="fill:#FFFFFF;" cx="41.55" cy="-3.305" r="0.408"/>
		<circle style="fill:#FFFFFF;" cx="45.3" cy="-1.388" r="0.408"/>
		<circle style="fill:#FFFFFF;" cx="49.3" cy="-0.722" r="0.408"/>
		<circle style="fill:#FFFFFF;" cx="38.217" cy="-3.805" r="0.408"/>
		<circle style="fill:#FFFFFF;" cx="40.384" cy="-5.305" r="0.408"/>
		<circle style="fill:#FFFFFF;" cx="38.462" cy="-0.476" r="0.408"/>
		<circle style="fill:#FFFFFF;" cx="38.3" cy="-15.138" r="0.408"/>
		<circle style="fill:#FFFFFF;" cx="39.384" cy="-18.055" r="0.408"/>
		<circle style="fill:#FFFFFF;" cx="42.759" cy="-18.18" r="0.408"/>
		<circle style="fill:#FFFFFF;" cx="40.634" cy="-16.055" r="0.408"/>
		<circle style="fill:#FFFFFF;" cx="4.509" cy="-41.805" r="0.408"/>
		<circle style="fill:#FFFFFF;" cx="35.55" cy="-2.472" r="0.408"/>
		<circle style="fill:#FFFFFF;" cx="7.884" cy="-1.555" r="0.408"/>
		<circle style="fill:#FFFFFF;" cx="27.8" cy="-31.555" r="0.408"/>
		<circle style="fill:#FFFFFF;" cx="47.55" cy="-2.055" r="0.408"/>
		<circle style="fill:#FFFFFF;" cx="46.55" cy="-10.472" r="0.408"/>
		<circle style="fill:#FFFFFF;" cx="47.8" cy="-8.971" r="0.408"/>
		<circle style="fill:#FFFFFF;" cx="44.8" cy="-8.388" r="0.408"/>
		<circle style="fill:#FFFFFF;" cx="46.634" cy="-6.222" r="0.408"/>
		<circle style="fill:#FFFFFF;" cx="47.884" cy="-5.055" r="0.408"/>
		<circle style="fill:#FFFFFF;" cx="49.55" cy="-6.555" r="0.408"/>
		<circle style="fill:#FFFFFF;" cx="50.55" cy="-5.555" r="0.408"/>
		<circle style="fill:#FFFFFF;" cx="49.634" cy="-4.222" r="0.408"/>
		<circle style="fill:#FFFFFF;" cx="57.009" cy="-13.43" r="0.408"/>
		<circle style="fill:#FFFFFF;" cx="54.55" cy="-14.222" r="0.408"/>
		<circle style="fill:#FFFFFF;" cx="50.3" cy="-16.055" r="0.408"/>
		<circle style="fill:#FFFFFF;" cx="48.467" cy="-26.138" r="0.408"/>
		<circle style="fill:#FFFFFF;" cx="48.05" cy="-24.555" r="0.408"/>
		<circle style="fill:#FFFFFF;" cx="37.717" cy="-18.888" r="0.408"/>
		<circle style="fill:#FFFFFF;" cx="49.879" cy="-19.55" r="0.408"/>
		<circle style="fill:#FFFFFF;" cx="55.634" cy="-12.805" r="0.408"/>
		<circle style="fill:#FFFFFF;" cx="19.634" cy="-15.305" r="0.408"/>
		<circle style="fill:#FFFFFF;" cx="14.634" cy="-21.222" r="0.408"/>
		<circle style="fill:#FFFFFF;" cx="14.967" cy="-15.638" r="0.408"/>
		<circle style="fill:#FFFFFF;" cx="13.634" cy="-14.555" r="0.408"/>
		<circle style="fill:#FFFFFF;" cx="17.384" cy="-14.555" r="0.408"/>
		<circle style="fill:#FFFFFF;" cx="24.55" cy="-32.638" r="0.408"/>
		<circle style="fill:#FFFFFF;" cx="46.3" cy="-40.638" r="0.408"/>
		<circle style="fill:#FFFFFF;" cx="34.384" cy="-20.055" r="0.408"/>
		<circle style="fill:#FFFFFF;" cx="35.717" cy="-22.222" r="0.408"/>
		<circle style="fill:#FFFFFF;" cx="36.717" cy="-24.388" r="0.408"/>
		<circle style="fill:#FFFFFF;" cx="33.3" cy="-24.138" r="0.408"/>
		<circle style="fill:#FFFFFF;" cx="31.884" cy="-22.138" r="0.408"/>
		<circle style="fill:#FFFFFF;" cx="57.134" cy="-28.222" r="0.408"/>
		<circle style="fill:#FFFFFF;" cx="52.467" cy="-28.555" r="0.408"/>
		<circle style="fill:#FFFFFF;" cx="50.134" cy="-29.555" r="0.408"/>
		<circle style="fill:#FFFFFF;" cx="47.379" cy="-31.884" r="0.408"/>
		<circle style="fill:#FFFFFF;" cx="44.3" cy="-33.222" r="0.408"/>
		<circle style="fill:#FFFFFF;" cx="44.467" cy="-35.472" r="0.408"/>
		<circle style="fill:#FFFFFF;" cx="43.8" cy="-37.305" r="0.408"/>
		<circle style="fill:#FFFFFF;" cx="42.05" cy="-36.222" r="0.408"/>
		<circle style="fill:#FFFFFF;" cx="39.217" cy="-36.888" r="0.408"/>
		<circle style="fill:#FFFFFF;" cx="39.634" cy="-33.971" r="0.408"/>
		<circle style="fill:#FFFFFF;" cx="42.384" cy="-31.972" r="0.408"/>
		<circle style="fill:#FFFFFF;" cx="38.134" cy="-35.305" r="0.408"/>
		<circle style="fill:#FFFFFF;" cx="35.717" cy="-35.555" r="0.408"/>
		<circle style="fill:#FFFFFF;" cx="36.217" cy="-33.971" r="0.408"/>
		<circle style="fill:#FFFFFF;" cx="35.634" cy="-38.555" r="0.408"/>
		<circle style="fill:#FFFFFF;" cx="46.467" cy="-42.555" r="0.408"/>
		<circle style="fill:#FFFFFF;" cx="40.55" cy="-43.388" r="0.408"/>
		<circle style="fill:#FFFFFF;" cx="31.967" cy="-44.138" r="0.408"/>
		<circle style="fill:#FFFFFF;" cx="29.467" cy="-44.305" r="0.408"/>
		<circle style="fill:#FFFFFF;" cx="26.8" cy="-44.722" r="0.408"/>
		<circle style="fill:#FFFFFF;" cx="25.217" cy="-43.722" r="0.408"/>
		<circle style="fill:#FFFFFF;" cx="27.55" cy="-47.138" r="0.408"/>
		<circle style="fill:#FFFFFF;" cx="25.467" cy="-48.638" r="0.408"/>
		<circle style="fill:#FFFFFF;" cx="25.217" cy="-51.222" r="0.408"/>
		<circle style="fill:#FFFFFF;" cx="24.467" cy="-46.388" r="0.408"/>
		<circle style="fill:#FFFFFF;" cx="22.379" cy="-48.384" r="0.408"/>
		<circle style="fill:#FFFFFF;" cx="19.55" cy="-47.638" r="0.408"/>
		<circle style="fill:#FFFFFF;" cx="17.967" cy="-46.722" r="0.408"/>
		<circle style="fill:#FFFFFF;" cx="48.05" cy="-35.722" r="0.408"/>
		<circle style="fill:#FFFFFF;" cx="55.3" cy="-24.638" r="0.407"/>
		<circle style="fill:#FFFFFF;" cx="53.717" cy="-27.222" r="0.408"/>
		<circle style="fill:#FFFFFF;" cx="53.717" cy="-22.388" r="0.408"/>
		<circle style="fill:#FFFFFF;" cx="56.634" cy="-21.722" r="0.408"/>
		<circle style="fill:#FFFFFF;" cx="57.009" cy="-23.867" r="0.408"/>
		<circle style="fill:#FFFFFF;" cx="43.967" cy="-25.388" r="0.408"/>
		<circle style="fill:#FFFFFF;" cx="41.884" cy="-24.305" r="0.408"/>
		<circle style="fill:#FFFFFF;" cx="45.05" cy="-23.888" r="0.408"/>
		<circle style="fill:#FFFFFF;" cx="48.55" cy="-21.471" r="0.408"/>
		<circle style="fill:#FFFFFF;" cx="52.55" cy="-20.722" r="0.408"/>
		<circle style="fill:#FFFFFF;" cx="51.717" cy="-18.555" r="0.408"/>
		<circle style="fill:#FFFFFF;" cx="54.55" cy="-19.388" r="0.407"/>
		<circle style="fill:#FFFFFF;" cx="56.55" cy="-19.222" r="0.408"/>
		<circle style="fill:#FFFFFF;" cx="55.967" cy="-15.472" r="0.408"/>
		<circle style="fill:#FFFFFF;" cx="52.384" cy="-16.305" r="0.408"/>
		<circle style="fill:#FFFFFF;" cx="46.717" cy="-16.388" r="0.408"/>
		<circle style="fill:#FFFFFF;" cx="48.467" cy="-14.638" r="0.408"/>
		<circle style="fill:#FFFFFF;" cx="46.05" cy="-20.055" r="0.408"/>
		<circle style="fill:#FFFFFF;" cx="45.717" cy="-22.472" r="0.408"/>
		<circle style="fill:#FFFFFF;" cx="43.884" cy="-21.388" r="0.408"/>
		<circle style="fill:#FFFFFF;" cx="42.384" cy="-20.221" r="0.408"/>
		<circle style="fill:#FFFFFF;" cx="40.3" cy="-21.638" r="0.408"/>
		<circle style="fill:#FFFFFF;" cx="38.8" cy="-23.138" r="0.408"/>
		<circle style="fill:#FFFFFF;" cx="47.8" cy="-28.722" r="0.408"/>
		<circle style="fill:#FFFFFF;" cx="50.467" cy="-36.388" r="0.408"/>
		<circle style="fill:#FFFFFF;" cx="45.967" cy="-38.388" r="0.408"/>
		<circle style="fill:#FFFFFF;" cx="43.3" cy="-41.222" r="0.408"/>
		<circle style="fill:#FFFFFF;" cx="38.8" cy="-41.722" r="0.408"/>
		<circle style="fill:#FFFFFF;" cx="41.3" cy="-39.222" r="0.408"/>
		<circle style="fill:#FFFFFF;" cx="36.967" cy="-39.722" r="0.408"/>
		<circle style="fill:#FFFFFF;" cx="34.8" cy="-40.888" r="0.408"/>
		<circle style="fill:#FFFFFF;" cx="36.8" cy="-43.555" r="0.408"/>
		<circle style="fill:#FFFFFF;" cx="35.967" cy="-46.555" r="0.408"/>
		<circle style="fill:#FFFFFF;" cx="33.967" cy="-44.888" r="0.408"/>
		<circle style="fill:#FFFFFF;" cx="40.134" cy="-47.388" r="0.408"/>
		<circle style="fill:#FFFFFF;" cx="56.134" cy="-52.888" r="0.408"/>
		<circle style="fill:#FFFFFF;" cx="55.8" cy="-54.388" r="0.407"/>
		<circle style="fill:#FFFFFF;" cx="52.634" cy="-54.388" r="0.408"/>
		<circle style="fill:#FFFFFF;" cx="51.634" cy="-52.555" r="0.408"/>
		<circle style="fill:#FFFFFF;" cx="54.134" cy="-51.388" r="0.408"/>
		<circle style="fill:#FFFFFF;" cx="53.967" cy="-56.055" r="0.408"/>
		<circle style="fill:#FFFFFF;" cx="56.134" cy="-56.722" r="0.408"/>
		<circle style="fill:#FFFFFF;" cx="52.3" cy="-56.888" r="0.407"/>
		<circle style="fill:#FFFFFF;" cx="49.863" cy="-57.185" r="0.407"/>
		<circle style="fill:#FFFFFF;" cx="56.467" cy="-48.888" r="0.408"/>
		<circle style="fill:#FFFFFF;" cx="54.467" cy="-47.888" r="0.408"/>
		<circle style="fill:#FFFFFF;" cx="52.134" cy="-47.388" r="0.408"/>
		<circle style="fill:#FFFFFF;" cx="55.967" cy="-44.388" r="0.408"/>
		<circle style="fill:#FFFFFF;" cx="50.009" cy="-46.305" r="0.408"/>
		<circle style="fill:#FFFFFF;" cx="49.509" cy="-23.43" r="0.408"/>
		<circle style="fill:#FFFFFF;" cx="48.8" cy="-51.722" r="0.408"/>
		<circle style="fill:#FFFFFF;" cx="48.134" cy="-49.888" r="0.408"/>
		<circle style="fill:#FFFFFF;" cx="44.967" cy="-51.222" r="0.408"/>
		<circle style="fill:#FFFFFF;" cx="46.3" cy="-53.388" r="0.408"/>
		<circle style="fill:#FFFFFF;" cx="37.884" cy="-56.388" r="0.408"/>
		<circle style="fill:#FFFFFF;" cx="42.217" cy="-55.638" r="0.408"/>
		<circle style="fill:#FFFFFF;" cx="43.05" cy="-54.055" r="0.408"/>
		<circle style="fill:#FFFFFF;" cx="39.717" cy="-53.722" r="0.408"/>
		<circle style="fill:#FFFFFF;" cx="40.6" cy="-56.671" r="0.408"/>
		<circle style="fill:#FFFFFF;" cx="36.634" cy="-55.305" r="0.408"/>
		<circle style="fill:#FFFFFF;" cx="34.717" cy="-55.221" r="0.408"/>
		<circle style="fill:#FFFFFF;" cx="35.384" cy="-53.472" r="0.408"/>
		<circle style="fill:#FFFFFF;" cx="32.217" cy="-56.305" r="0.408"/>
		<path style="fill:#FFFFFF;" d="M35.657-57.601c-0.002,0.224-0.185,0.404-0.409,0.404c-0.224,0-0.406-0.18-0.408-0.404"/>
		<path style="fill:#FFFFFF;" d="M34.841,0c0.011-0.215,0.189-0.388,0.407-0.388c0.218,0,0.396,0.172,0.408,0.388"/>
		<circle style="fill:#FFFFFF;" cx="5.884" cy="-57.055" r="0.408"/>
		<circle style="fill:#FFFFFF;" cx="3.55" cy="-56.222" r="0.408"/>
		<circle style="fill:#FFFFFF;" cx="1.55" cy="-54.055" r="0.408"/>
		<circle style="fill:#FFFFFF;" cx="6.217" cy="-54.722" r="0.408"/>
		<circle style="fill:#FFFFFF;" cx="8.217" cy="-56.722" r="0.408"/>
		<circle style="fill:#FFFFFF;" cx="11.467" cy="-57.055" r="0.408"/>
		<circle style="fill:#FFFFFF;" cx="14.821" cy="-57.18" r="0.408"/>
		<circle style="fill:#FFFFFF;" cx="19.467" cy="-56.638" r="0.408"/>
		<circle style="fill:#FFFFFF;" cx="24.217" cy="-53.638" r="0.408"/>
		<circle style="fill:#FFFFFF;" cx="20.55" cy="-54.388" r="0.408"/>
		<circle style="fill:#FFFFFF;" cx="16.717" cy="-54.722" r="0.408"/>
		<circle style="fill:#FFFFFF;" cx="13.634" cy="-54.388" r="0.408"/>
		<circle style="fill:#FFFFFF;" cx="10.884" cy="-54.138" r="0.408"/>
		<circle style="fill:#FFFFFF;" cx="7.55" cy="-52.721" r="0.408"/>
		<circle style="fill:#FFFFFF;" cx="4.3" cy="-52.721" r="0.408"/>
		<circle style="fill:#FFFFFF;" cx="6.634" cy="-50.638" r="0.408"/>
		<circle style="fill:#FFFFFF;" cx="3.634" cy="-50.388" r="0.408"/>
		<circle style="fill:#FFFFFF;" cx="8.05" cy="-48.722" r="0.408"/>
		<circle style="fill:#FFFFFF;" cx="10.3" cy="-49.722" r="0.408"/>
		<circle style="fill:#FFFFFF;" cx="12.05" cy="-50.638" r="0.408"/>
		<circle style="fill:#FFFFFF;" cx="11.634" cy="-47.721" r="0.408"/>
		<circle style="fill:#FFFFFF;" cx="9.05" cy="-46.305" r="0.408"/>
		<circle style="fill:#FFFFFF;" cx="12.05" cy="-45.388" r="0.408"/>
		<circle style="fill:#FFFFFF;" cx="15.467" cy="-46.138" r="0.408"/>
		<circle style="fill:#FFFFFF;" cx="10.55" cy="-43.555" r="0.408"/>
		<circle style="fill:#FFFFFF;" cx="12.717" cy="-42.805" r="0.408"/>
		<circle style="fill:#FFFFFF;" cx="7.05" cy="-44.805" r="0.408"/>
		<circle style="fill:#FFFFFF;" cx="6.467" cy="-46.555" r="0.408"/>
		<circle style="fill:#FFFFFF;" cx="3.134" cy="-46.222" r="0.408"/>
		<circle style="fill:#FFFFFF;" cx="0.634" cy="-45.388" r="0.408"/>
		<circle style="fill:#FFFFFF;" cx="1.884" cy="-44.305" r="0.408"/>
		<circle style="fill:#FFFFFF;" cx="4.55" cy="-44.222" r="0.408"/>
		<circle style="fill:#FFFFFF;" cx="5.634" cy="-43.222" r="0.408"/>
		<circle style="fill:#FFFFFF;" cx="6.05" cy="-40.472" r="0.408"/>
		<circle style="fill:#FFFFFF;" cx="3.217" cy="-39.722" r="0.408"/>
		<circle style="fill:#FFFFFF;" cx="0.638" cy="-37.643" r="0.408"/>
		<circle style="fill:#FFFFFF;" cx="4.634" cy="-38.222" r="0.408"/>
		<circle style="fill:#FFFFFF;" cx="3.634" cy="-36.222" r="0.408"/>
		<circle style="fill:#FFFFFF;" cx="3.967" cy="-34.305" r="0.408"/>
		<circle style="fill:#FFFFFF;" cx="7.384" cy="-34.305" r="0.408"/>
		<circle style="fill:#FFFFFF;" cx="8.05" cy="-38.388" r="0.408"/>
		<circle style="fill:#FFFFFF;" cx="10.217" cy="-37.721" r="0.408"/>
		<circle style="fill:#FFFFFF;" cx="9.884" cy="-40.388" r="0.408"/>
		<circle style="fill:#FFFFFF;" cx="12.217" cy="-40.972" r="0.408"/>
		<circle style="fill:#FFFFFF;" cx="12.3" cy="-38.472" r="0.408"/>
		<circle style="fill:#FFFFFF;" cx="13.217" cy="-36.805" r="0.408"/>
		<circle style="fill:#FFFFFF;" cx="11.717" cy="-35.305" r="0.408"/>
		<circle style="fill:#FFFFFF;" cx="14.134" cy="-34.138" r="0.408"/>
		<circle style="fill:#FFFFFF;" cx="16.55" cy="-34.305" r="0.408"/>
		<circle style="fill:#FFFFFF;" cx="15.884" cy="-37.222" r="0.408"/>
		<circle style="fill:#FFFFFF;" cx="14.55" cy="-44.388" r="0.408"/>
		<circle style="fill:#FFFFFF;" cx="6.884" cy="-31.388" r="0.408"/>
		<circle style="fill:#FFFFFF;" cx="5.634" cy="-33.388" r="0.408"/>
		<circle style="fill:#FFFFFF;" cx="9.8" cy="-32.388" r="0.408"/>
		<circle style="fill:#FFFFFF;" cx="10.884" cy="-30.305" r="0.408"/>
		<circle style="fill:#FFFFFF;" cx="13.05" cy="-29.388" r="0.408"/>
		<circle style="fill:#FFFFFF;" cx="15.134" cy="-30.305" r="0.408"/>
		<circle style="fill:#FFFFFF;" cx="13.384" cy="-32.305" r="0.408"/>
		<circle style="fill:#FFFFFF;" cx="16.967" cy="-29.805" r="0.408"/>
		<circle style="fill:#FFFFFF;" cx="18.467" cy="-34.555" r="0.408"/>
		<circle style="fill:#FFFFFF;" cx="20.8" cy="-37.138" r="0.408"/>
		<circle style="fill:#FFFFFF;" cx="20.717" cy="-34.722" r="0.408"/>
		<circle style="fill:#FFFFFF;" cx="23.55" cy="-34.805" r="0.408"/>
		<circle style="fill:#FFFFFF;" cx="22.717" cy="-36.638" r="0.408"/>
		<circle style="fill:#FFFFFF;" cx="26.217" cy="-33.638" r="0.408"/>
		<circle style="fill:#FFFFFF;" cx="27.884" cy="-34.972" r="0.408"/>
		<circle style="fill:#FFFFFF;" cx="31.184" cy="-35.838" r="0.408"/>
		<circle style="fill:#FFFFFF;" cx="33.35" cy="-42.338" r="0.408"/>
		<circle style="fill:#FFFFFF;" cx="24.6" cy="-41.588" r="0.408"/>
		<circle style="fill:#FFFFFF;" cx="20.017" cy="-30.672" r="0.408"/>
		<circle style="fill:#FFFFFF;" cx="18.684" cy="-32.338" r="0.408"/>
		<circle style="fill:#FFFFFF;" cx="41.017" cy="-41.005" r="0.408"/>
		<circle style="fill:#FFFFFF;" cx="37.434" cy="-41.255" r="0.408"/>
		<circle style="fill:#FFFFFF;" cx="20.1" cy="-43.755" r="0.408"/>
		<circle style="fill:#FFFFFF;" cx="6.6" cy="-36.671" r="0.408"/>
		<circle style="fill:#FFFFFF;" cx="0.85" cy="-35.255" r="0.408"/>
		<circle style="fill:#FFFFFF;" cx="37.6" cy="-21.171" r="0.408"/>
		<circle style="fill:#FFFFFF;" cx="27.967" cy="-39.222" r="0.408"/>
		<circle style="fill:#FFFFFF;" cx="27.3" cy="-36.888" r="0.408"/>
		<circle style="fill:#FFFFFF;" cx="30.134" cy="-37.805" r="0.408"/>
		<circle style="fill:#FFFFFF;" cx="29.634" cy="-33.805" r="0.408"/>
		<circle style="fill:#FFFFFF;" cx="32.134" cy="-33.888" r="0.408"/>
		<circle style="fill:#FFFFFF;" cx="30.634" cy="-31.138" r="0.408"/>
		<circle style="fill:#FFFFFF;" cx="35.8" cy="-31.222" r="0.408"/>
		<circle style="fill:#FFFFFF;" cx="34.217" cy="-32.305" r="0.408"/>
		<circle style="fill:#FFFFFF;" cx="18.384" cy="-22.305" r="0.408"/>
		<circle style="fill:#FFFFFF;" cx="20.05" cy="-20.722" r="0.408"/>
		<circle style="fill:#FFFFFF;" cx="17.55" cy="-20.305" r="0.408"/>
		<circle style="fill:#FFFFFF;" cx="15.384" cy="-23.638" r="0.408"/>
		<circle style="fill:#FFFFFF;" cx="18.55" cy="-17.555" r="0.408"/>
		<circle style="fill:#FFFFFF;" cx="21.05" cy="-17.972" r="0.408"/>
		<circle style="fill:#FFFFFF;" cx="21.884" cy="-16.805" r="0.408"/>
		<circle style="fill:#FFFFFF;" cx="22.634" cy="-14.388" r="0.408"/>
		<circle style="fill:#FFFFFF;" cx="25.05" cy="-15.138" r="0.408"/>
		<circle style="fill:#FFFFFF;" cx="25.967" cy="-13.222" r="0.408"/>
		<circle style="fill:#FFFFFF;" cx="24.384" cy="-12.388" r="0.408"/>
		<circle style="fill:#FFFFFF;" cx="16.55" cy="-13.222" r="0.408"/>
		<circle style="fill:#FFFFFF;" cx="19.967" cy="-8.888" r="0.408"/>
		<circle style="fill:#FFFFFF;" cx="18.55" cy="-7.138" r="0.408"/>
		<circle style="fill:#FFFFFF;" cx="21.634" cy="-6.305" r="0.408"/>
		<circle style="fill:#FFFFFF;" cx="23.634" cy="-8.222" r="0.408"/>
		<circle style="fill:#FFFFFF;" cx="27.467" cy="-7.555" r="0.408"/>
		<circle style="fill:#FFFFFF;" cx="26.134" cy="-5.388" r="0.408"/>
		<circle style="fill:#FFFFFF;" cx="28.384" cy="-4.305" r="0.408"/>
		<circle style="fill:#FFFFFF;" cx="31.717" cy="-3.305" r="0.408"/>
		<circle style="fill:#FFFFFF;" cx="32.8" cy="-1.972" r="0.408"/>
		<circle style="fill:#FFFFFF;" cx="29.467" cy="-1.388" r="0.408"/>
		<circle style="fill:#FFFFFF;" cx="32.384" cy="-7.138" r="0.408"/>
		<circle style="fill:#FFFFFF;" cx="35.8" cy="-8.388" r="0.408"/>
		<circle style="fill:#FFFFFF;" cx="38.717" cy="-6.555" r="0.408"/>
		<circle style="fill:#FFFFFF;" cx="36.717" cy="-5.388" r="0.408"/>
		<circle style="fill:#FFFFFF;" cx="34.467" cy="-7.222" r="0.408"/>
		<circle style="fill:#FFFFFF;" cx="34.384" cy="-4.222" r="0.408"/>
		<circle style="fill:#FFFFFF;" cx="15.884" cy="-6.388" r="0.408"/>
		<circle style="fill:#FFFFFF;" cx="14.134" cy="-6.305" r="0.408"/>
		<circle style="fill:#FFFFFF;" cx="9.634" cy="-9.055" r="0.408"/>
		<circle style="fill:#FFFFFF;" cx="6.55" cy="-10.555" r="0.408"/>
		<circle style="fill:#FFFFFF;" cx="4.884" cy="-12.721" r="0.408"/>
		<circle style="fill:#FFFFFF;" cx="3.634" cy="-15.221" r="0.408"/>
		<circle style="fill:#FFFFFF;" cx="3.217" cy="-18.472" r="0.408"/>
		<circle style="fill:#FFFFFF;" cx="6.467" cy="-23.472" r="0.408"/>
		<circle style="fill:#FFFFFF;" cx="2.05" cy="-12.972" r="0.408"/>
		<circle style="fill:#FFFFFF;" cx="1.3" cy="-8.888" r="0.408"/>
		<circle style="fill:#FFFFFF;" cx="3.467" cy="-10.305" r="0.408"/>
		<circle style="fill:#FFFFFF;" cx="4.634" cy="-9.388" r="0.408"/>
		<circle style="fill:#FFFFFF;" cx="6.467" cy="-7.555" r="0.408"/>
		<circle style="fill:#FFFFFF;" cx="3.134" cy="-6.638" r="0.408"/>
		<circle style="fill:#FFFFFF;" cx="4.967" cy="-5.722" r="0.408"/>
		<circle style="fill:#FFFFFF;" cx="3.717" cy="-4.555" r="0.408"/>
		<circle style="fill:#FFFFFF;" cx="1.467" cy="-2.472" r="0.408"/>
		<circle style="fill:#FFFFFF;" cx="3.55" cy="-0.555" r="0.408"/>
		<circle style="fill:#FFFFFF;" cx="9.634" cy="-2.222" r="0.408"/>
		<circle style="fill:#FFFFFF;" cx="9.634" cy="-5.388" r="0.408"/>
		<circle style="fill:#FFFFFF;" cx="6.3" cy="-2.138" r="0.408"/>
		<circle style="fill:#FFFFFF;" cx="16.134" cy="-1.222" r="0.408"/>
		<circle style="fill:#FFFFFF;" cx="12.467" cy="-1.388" r="0.408"/>
		<circle style="fill:#FFFFFF;" cx="11.384" cy="-4.638" r="0.408"/>
		<circle style="fill:#FFFFFF;" cx="15.55" cy="-4.222" r="0.408"/>
		<circle style="fill:#FFFFFF;" cx="19.217" cy="-1.638" r="0.408"/>
		<circle style="fill:#FFFFFF;" cx="15.8" cy="-18.055" r="0.408"/>
		<circle style="fill:#FFFFFF;" cx="24.55" cy="-2.222" r="0.408"/>
		<circle style="fill:#FFFFFF;" cx="22.884" cy="-0.559" r="0.408"/>
		<circle style="fill:#FFFFFF;" cx="20.384" cy="-3.805" r="0.408"/>
		<circle style="fill:#FFFFFF;" cx="19.467" cy="-5.388" r="0.408"/>
		<circle style="fill:#FFFFFF;" cx="23.967" cy="-3.722" r="0.408"/>
		<circle style="fill:#FFFFFF;" cx="24.3" cy="-6.471" r="0.408"/>
		<circle style="fill:#FFFFFF;" cx="26.55" cy="-2.305" r="0.408"/>
		<circle style="fill:#FFFFFF;" cx="27.717" cy="-0.472" r="0.408"/>
		<circle style="fill:#FFFFFF;" cx="13.55" cy="-8.305" r="0.408"/>
		<circle style="fill:#FFFFFF;" cx="14.462" cy="-11.3" r="0.408"/>
		<circle style="fill:#FFFFFF;" cx="1.767" cy="-5.171" r="0.408"/>
		<circle style="fill:#FFFFFF;" cx="10.934" cy="-12.671" r="0.408"/>
		<circle style="fill:#FFFFFF;" cx="23.85" cy="-24.755" r="0.408"/>
		<circle style="fill:#FFFFFF;" cx="14.017" cy="-24.255" r="0.408"/>
		<circle style="fill:#FFFFFF;" cx="56.184" cy="-30.171" r="0.408"/>
		<circle style="fill:#FFFFFF;" cx="51.851" cy="-31.088" r="0.408"/>
		<circle style="fill:#FFFFFF;" cx="30.684" cy="-14.255" r="0.408"/>
		<circle style="fill:#FFFFFF;" cx="11.55" cy="-11.305" r="0.408"/>
		<circle style="fill:#FFFFFF;" cx="11.467" cy="-16.471" r="0.408"/>
		<circle style="fill:#FFFFFF;" cx="10.717" cy="-20.305" r="0.408"/>
		<circle style="fill:#FFFFFF;" cx="9.634" cy="-18.388" r="0.408"/>
		<circle style="fill:#FFFFFF;" cx="8.8" cy="-16.388" r="0.408"/>
		<circle style="fill:#FFFFFF;" cx="9.55" cy="-13.472" r="0.408"/>
		<circle style="fill:#FFFFFF;" cx="6.8" cy="-13.222" r="0.408"/>
		<circle style="fill:#FFFFFF;" cx="6.3" cy="-16.388" r="0.408"/>
		<circle style="fill:#FFFFFF;" cx="5.967" cy="-19.138" r="0.408"/>
		<circle style="fill:#FFFFFF;" cx="7.8" cy="-19.722" r="0.408"/>
		<circle style="fill:#FFFFFF;" cx="7.634" cy="-22.055" r="0.408"/>
		<circle style="fill:#FFFFFF;" cx="26.55" cy="-10.888" r="0.408"/>
		<circle style="fill:#FFFFFF;" cx="32.634" cy="-9.222" r="0.408"/>
		<circle style="fill:#FFFFFF;" cx="34.55" cy="-10.472" r="0.408"/>
		<circle style="fill:#FFFFFF;" cx="38.467" cy="-9.555" r="0.408"/>
		<circle style="fill:#FFFFFF;" cx="38.634" cy="-12.222" r="0.408"/>
		<circle style="fill:#FFFFFF;" cx="29.55" cy="-28.638" r="0.408"/>
		<circle style="fill:#FFFFFF;" cx="27.8" cy="-27.472" r="0.408"/>
		<circle style="fill:#FFFFFF;" cx="23.634" cy="-28.472" r="0.408"/>
		<circle style="fill:#FFFFFF;" cx="23.134" cy="-30.722" r="0.408"/>
		<circle style="fill:#FFFFFF;" cx="38.3" cy="-29.472" r="0.408"/>
		<circle style="fill:#FFFFFF;" cx="41.217" cy="-29.472" r="0.408"/>
		<circle style="fill:#FFFFFF;" cx="42.467" cy="-27.638" r="0.408"/>
		<circle style="fill:#FFFFFF;" cx="37.384" cy="-27.555" r="0.408"/>
		<circle style="fill:#FFFFFF;" cx="32.467" cy="-27.388" r="0.408"/>
		<circle style="fill:#FFFFFF;" cx="31.134" cy="-26.055" r="0.408"/>
		<circle style="fill:#FFFFFF;" cx="34.634" cy="-25.388" r="0.408"/>
		<circle style="fill:#FFFFFF;" cx="30.55" cy="-23.888" r="0.408"/>
		<circle style="fill:#FFFFFF;" cx="27.467" cy="-24.472" r="0.408"/>
		<circle style="fill:#FFFFFF;" cx="25.134" cy="-26.222" r="0.408"/>
		<circle style="fill:#FFFFFF;" cx="20.717" cy="-26.305" r="0.408"/>
		<circle style="fill:#FFFFFF;" cx="21.967" cy="-22.472" r="0.408"/>
		<circle style="fill:#FFFFFF;" cx="18.717" cy="-24.472" r="0.408"/>
		<circle style="fill:#FFFFFF;" cx="17.3" cy="-27.222" r="0.408"/>
		<circle style="fill:#FFFFFF;" cx="15.05" cy="-27.638" r="0.408"/>
		<circle style="fill:#FFFFFF;" cx="14.384" cy="-26.138" r="0.408"/>
		<circle style="fill:#FFFFFF;" cx="10.634" cy="-27.638" r="0.408"/>
		<circle style="fill:#FFFFFF;" cx="8.384" cy="-29.722" r="0.408"/>
		<circle style="fill:#FFFFFF;" cx="6.634" cy="-27.888" r="0.408"/>
		<circle style="fill:#FFFFFF;" cx="8.634" cy="-27.388" r="0.408"/>
		<circle style="fill:#FFFFFF;" cx="9.634" cy="-24.888" r="0.408"/>
		<circle style="fill:#FFFFFF;" cx="12.05" cy="-25.555" r="0.408"/>
		<circle style="fill:#FFFFFF;" cx="0.638" cy="-29.476" r="0.408"/>
		<circle style="fill:#FFFFFF;" cx="1.8" cy="-28.305" r="0.408"/>
		<circle style="fill:#FFFFFF;" cx="3.634" cy="-31.638" r="0.408"/>
		<circle style="fill:#FFFFFF;" cx="1.967" cy="-33.555" r="0.408"/>
		<circle style="fill:#FFFFFF;" cx="0.55" cy="-18.388" r="0.408"/>
		<circle style="fill:#FFFFFF;" cx="4.55" cy="-30.055" r="0.408"/>
		<circle style="fill:#FFFFFF;" cx="8.467" cy="-35.722" r="0.408"/>
		<circle style="fill:#FFFFFF;" cx="16.967" cy="-31.722" r="0.408"/>
		<circle style="fill:#FFFFFF;" cx="44.967" cy="-54.722" r="0.408"/>
		<circle style="fill:#FFFFFF;" cx="31.8" cy="-29.722" r="0.408"/>
		<circle style="fill:#FFFFFF;" cx="10.3" cy="-7.555" r="0.408"/>
		<circle style="fill:#FFFFFF;" cx="45.967" cy="-4.055" r="0.408"/>
		<circle style="fill:#FFFFFF;" cx="11.8" cy="-22.305" r="0.408"/>
		<circle style="fill:#FFFFFF;" cx="5.717" cy="-25.722" r="0.408"/>
		<circle style="fill:#FFFFFF;" cx="4.467" cy="-27.305" r="0.408"/>
		<circle style="fill:#FFFFFF;" cx="4.55" cy="-24.388" r="0.408"/>
		<circle style="fill:#FFFFFF;" cx="1.717" cy="-24.472" r="0.408"/>
		<circle style="fill:#FFFFFF;" cx="1.3" cy="-22.138" r="0.408"/>
		<circle style="fill:#FFFFFF;" cx="23.384" cy="-38.305" r="0.408"/>
		<circle style="fill:#FFFFFF;" cx="25.55" cy="-39.555" r="0.408"/>
		<circle style="fill:#FFFFFF;" cx="1.55" cy="-41.388" r="0.408"/>
		<circle style="fill:#FFFFFF;" cx="16.3" cy="-41.555" r="0.408"/>
		<circle style="fill:#FFFFFF;" cx="21.55" cy="-42.305" r="0.408"/>
		<circle style="fill:#FFFFFF;" cx="23.134" cy="-43.722" r="0.408"/>
		<circle style="fill:#FFFFFF;" cx="26.55" cy="-41.305" r="0.408"/>
		<circle style="fill:#FFFFFF;" cx="30.05" cy="-41.638" r="0.408"/>
		<circle style="fill:#FFFFFF;" cx="21.467" cy="-40.472" r="0.408"/>
		<circle style="fill:#FFFFFF;" cx="18.634" cy="-41.555" r="0.408"/>
		<circle style="fill:#FFFFFF;" cx="17.55" cy="-40.305" r="0.408"/>
		<circle style="fill:#FFFFFF;" cx="14.467" cy="-39.305" r="0.408"/>
		<circle style="fill:#FFFFFF;" cx="16.634" cy="-52.388" r="0.408"/>
		<circle style="fill:#FFFFFF;" cx="18.8" cy="-52.305" r="0.408"/>
		<circle style="fill:#FFFFFF;" cx="19.55" cy="-50.555" r="0.408"/>
		<circle style="fill:#FFFFFF;" cx="17.634" cy="-48.638" r="0.408"/>
		<circle style="fill:#FFFFFF;" cx="24.467" cy="-56.305" r="0.408"/>
		<circle style="fill:#FFFFFF;" cx="27.634" cy="-53.388" r="0.408"/>
		<circle style="fill:#FFFFFF;" cx="30.05" cy="-52.972" r="0.408"/>
		<circle style="fill:#FFFFFF;" cx="31.634" cy="-53.722" r="0.408"/>
		<circle style="fill:#FFFFFF;" cx="32.717" cy="-51.805" r="0.408"/>
		<circle style="fill:#FFFFFF;" cx="31.55" cy="-49.388" r="0.408"/>
		<circle style="fill:#FFFFFF;" cx="34.717" cy="-49.472" r="0.408"/>
		<circle style="fill:#FFFFFF;" cx="33.634" cy="-47.388" r="0.408"/>
		<circle style="fill:#FFFFFF;" cx="31.384" cy="-45.388" r="0.408"/>
		<circle style="fill:#FFFFFF;" cx="28.717" cy="-48.222" r="0.408"/>
		<circle style="fill:#FFFFFF;" cx="40.3" cy="-51.722" r="0.408"/>
		<circle style="fill:#FFFFFF;" cx="41.8" cy="-49.222" r="0.408"/>
		<circle style="fill:#FFFFFF;" cx="47.967" cy="-53.971" r="0.408"/>
		<circle style="fill:#FFFFFF;" cx="57.134" cy="-46.18" r="0.408"/>
		<circle style="fill:#FFFFFF;" cx="37.967" cy="-52.305" r="0.408"/>
		<circle style="fill:#FFFFFF;" cx="35.8" cy="-51.638" r="0.408"/>
	</g>
</svg>
