<?xml version="1.0"?>
<!-- Converted with SVG Converter - Version 0.9.5 (Compiled Fri Feb 21 09:53:38 2020) - Copyright (C) 2011 Nokia -->
<svg xmlns="http://www.w3.org/2000/svg" baseProfile="tiny" xml:space="preserve" viewBox="0 -57.601 57.601 57.601" x="0px" y="0px" height="57.601" version="1.1" xmlns:xlink="http://www.w3.org/1999/xlink" width="57.601">
 <g>
  <rect y="-57.601" style="fill:none;" height="57.601" width="57.601"/>
  <rect y="-57.601" height="57.601" width="57.601"/>
  <circle cx="49.634" style="fill:#FFFFFF;" r="0.777" cy="-44.225"/>
  <circle cx="48.884" style="fill:#FFFFFF;" r="0.777" cy="-55.433"/>
  <circle cx="42.467" style="fill:#FFFFFF;" r="0.777" cy="-51.224"/>
  <circle cx="28.467" style="fill:#FFFFFF;" r="0.777" cy="-51.308"/>
  <circle cx="22.459" style="fill:#FFFFFF;" r="0.777" cy="-51.467"/>
  <circle cx="14.384" style="fill:#FFFFFF;" r="0.777" cy="-50.558"/>
  <circle cx="10.05" style="fill:#FFFFFF;" r="0.777" cy="-52.224"/>
  <circle cx="4.634" style="fill:#FFFFFF;" r="0.777" cy="-48.391"/>
  <circle cx="1.55" style="fill:#FFFFFF;" r="0.778" cy="-49.475"/>
  <path d="M0-50.621c0.427-0.003,0.773-0.35,0.773-0.778c0-0.428-0.346-0.775-0.773-0.778" style="fill:#FFFFFF;"/>
  <path d="M57.601-52.176c-0.004,0-0.008,0-0.012,0c-0.43,0-0.777,0.349-0.777,0.778s0.348,0.778,0.777,0.778    c0.004,0,0.008,0,0.012,0" style="fill:#FFFFFF;"/>
  <circle cx="8.634" style="fill:#FFFFFF;" r="0.777" cy="-42.558"/>
  <circle cx="16.709" style="fill:#FFFFFF;" r="0.777" cy="-43.884"/>
  <circle cx="21.292" style="fill:#FFFFFF;" r="0.777" cy="-44.967"/>
  <circle cx="50.042" style="fill:#FFFFFF;" r="0.777" cy="-27.467"/>
  <circle cx="38.376" style="fill:#FFFFFF;" r="0.777" cy="-49.55"/>
  <circle cx="27.8" style="fill:#FFFFFF;" r="0.777" cy="-56.391"/>
  <circle cx="18.467" style="fill:#FFFFFF;" r="0.777" cy="-37.891"/>
  <circle cx="25.876" style="fill:#FFFFFF;" r="0.777" cy="-30.55"/>
  <circle cx="34.209" style="fill:#FFFFFF;" r="0.777" cy="-29.467"/>
  <circle cx="30.292" style="fill:#FFFFFF;" r="0.777" cy="-19.3"/>
  <circle cx="56.8" style="fill:#FFFFFF;" r="0.777" cy="-26.308"/>
  <circle cx="48.626" style="fill:#FFFFFF;" r="0.777" cy="-17.55"/>
  <circle cx="0.808" style="fill:#FFFFFF;" r="0.777" cy="-32.634"/>
  <circle cx="19.725" style="fill:#FFFFFF;" r="0.777" cy="-28.384"/>
  <circle cx="24.891" style="fill:#FFFFFF;" r="0.777" cy="-23.3"/>
  <circle cx="12.384" style="fill:#FFFFFF;" r="0.777" cy="-18.475"/>
  <circle cx="31.717" style="fill:#FFFFFF;" r="0.777" cy="-13.058"/>
  <circle cx="41.3" style="fill:#FFFFFF;" r="0.777" cy="-14.391"/>
  <circle cx="56.634" style="fill:#FFFFFF;" r="0.777" cy="-8.474"/>
  <circle cx="52.384" style="fill:#FFFFFF;" r="0.777" cy="-2.391"/>
  <circle cx="41.55" style="fill:#FFFFFF;" r="0.777" cy="-0.808"/>
  <path d="M45.494,0c0.019-0.413,0.358-0.741,0.775-0.741c0.417,0,0.756,0.328,0.775,0.741" style="fill:#FFFFFF;"/>
  <path d="M47.045-57.601c-0.011,0.419-0.354,0.757-0.776,0.757c-0.423,0-0.766-0.338-0.776-0.757" style="fill:#FFFFFF;"/>
  <circle cx="13.55" style="fill:#FFFFFF;" r="0.777" cy="-3.391"/>
  <circle cx="6.55" style="fill:#FFFFFF;" r="0.777" cy="-3.891"/>
  <circle cx="1.3" style="fill:#FFFFFF;" r="0.777" cy="-16.475"/>
  <circle cx="39.641" style="fill:#FFFFFF;" r="0.777" cy="-26.05"/>
  <circle cx="20.975" style="fill:#FFFFFF;" r="0.777" cy="-32.467"/>
  <circle cx="3.558" style="fill:#FFFFFF;" r="0.777" cy="-21.55"/>
  <circle cx="45.967" style="fill:#FFFFFF;" r="0.777" cy="-46.224"/>
  <circle cx="31.634" style="fill:#FFFFFF;" r="0.777" cy="-40.225"/>
  <circle cx="33.634" style="fill:#FFFFFF;" r="0.777" cy="-37.558"/>
  <circle cx="38.467" style="fill:#FFFFFF;" r="0.777" cy="-32.391"/>
  <circle cx="44.634" style="fill:#FFFFFF;" r="0.777" cy="-30.058"/>
  <circle cx="46.634" style="fill:#FFFFFF;" r="0.777" cy="-26.391"/>
  <circle cx="51.467" style="fill:#FFFFFF;" r="0.777" cy="-24.057"/>
  <circle cx="44.634" style="fill:#FFFFFF;" r="0.777" cy="-17.058"/>
  <circle cx="54.634" style="fill:#FFFFFF;" r="0.777" cy="-30.391"/>
  <circle cx="48.8" style="fill:#FFFFFF;" r="0.777" cy="-47.391"/>
  <circle cx="39.134" style="fill:#FFFFFF;" r="0.777" cy="-45.225"/>
  <circle cx="51.467" style="fill:#FFFFFF;" r="0.777" cy="-50.391"/>
  <circle cx="47.634" style="fill:#FFFFFF;" r="0.777" cy="-33.891"/>
  <circle cx="22.217" style="fill:#FFFFFF;" r="0.777" cy="-10.558"/>
  <circle cx="19.321" style="fill:#FFFFFF;" r="0.777" cy="-11.683"/>
  <circle cx="22.384" style="fill:#FFFFFF;" r="0.777" cy="-2.475"/>
  <circle cx="16.634" style="fill:#FFFFFF;" r="0.777" cy="-10.141"/>
  <circle cx="29.8" style="fill:#FFFFFF;" r="0.777" cy="-5.391"/>
  <circle cx="54.134" style="fill:#FFFFFF;" r="0.408" cy="-41.722"/>
  <circle cx="56.467" style="fill:#FFFFFF;" r="0.408" cy="-41.555"/>
  <circle cx="55.467" style="fill:#FFFFFF;" r="0.408" cy="-39.222"/>
  <circle cx="52.634" style="fill:#FFFFFF;" r="0.408" cy="-44.222"/>
  <circle cx="47.967" style="fill:#FFFFFF;" r="0.408" cy="-41.222"/>
  <circle cx="45.134" style="fill:#FFFFFF;" r="0.408" cy="-44.055"/>
  <circle cx="42.134" style="fill:#FFFFFF;" r="0.408" cy="-44.888"/>
  <circle cx="43.634" style="fill:#FFFFFF;" r="0.408" cy="-47.721"/>
  <circle cx="45.3" style="fill:#FFFFFF;" r="0.408" cy="-48.555"/>
  <circle cx="50.634" style="fill:#FFFFFF;" r="0.408" cy="-40.555"/>
  <circle cx="51.8" style="fill:#FFFFFF;" r="0.408" cy="-42.555"/>
  <circle cx="49.467" style="fill:#FFFFFF;" r="0.408" cy="-38.722"/>
  <circle cx="52.634" style="fill:#FFFFFF;" r="0.408" cy="-38.388"/>
  <circle cx="56.134" style="fill:#FFFFFF;" r="0.408" cy="-36.555"/>
  <circle cx="55.3" style="fill:#FFFFFF;" r="0.408" cy="-34.888"/>
  <circle cx="52.8" style="fill:#FFFFFF;" r="0.408" cy="-35.388"/>
  <circle cx="50.8" style="fill:#FFFFFF;" r="0.408" cy="-33.222"/>
  <circle cx="53.3" style="fill:#FFFFFF;" r="0.408" cy="-32.721"/>
  <circle cx="56.3" style="fill:#FFFFFF;" r="0.408" cy="-32.721"/>
  <circle cx="57.134" style="fill:#FFFFFF;" r="0.408" cy="-34.388"/>
  <circle cx="57.134" style="fill:#FFFFFF;" r="0.408" cy="-11.055"/>
  <circle cx="54.134" style="fill:#FFFFFF;" r="0.408" cy="-10.555"/>
  <circle cx="51.634" style="fill:#FFFFFF;" r="0.408" cy="-11.138"/>
  <circle cx="51.634" style="fill:#FFFFFF;" r="0.408" cy="-13.555"/>
  <circle cx="48.8" style="fill:#FFFFFF;" r="0.408" cy="-12.555"/>
  <circle cx="49.717" style="fill:#FFFFFF;" r="0.408" cy="-11.305"/>
  <circle cx="50.55" style="fill:#FFFFFF;" r="0.408" cy="-8.305"/>
  <circle cx="53.634" style="fill:#FFFFFF;" r="0.408" cy="-6.388"/>
  <circle cx="15.934" style="fill:#FFFFFF;" r="0.408" cy="-8.838"/>
  <circle cx="0.767" style="fill:#FFFFFF;" r="0.408" cy="-14.338"/>
  <circle cx="25.1" style="fill:#FFFFFF;" r="0.408" cy="-27.505"/>
  <circle cx="22.35" style="fill:#FFFFFF;" r="0.408" cy="-26.255"/>
  <circle cx="31.184" style="fill:#FFFFFF;" r="0.408" cy="-9.171"/>
  <circle cx="6.517" style="fill:#FFFFFF;" r="0.408" cy="-29.088"/>
  <circle cx="19.85" style="fill:#FFFFFF;" r="0.408" cy="-38.505"/>
  <circle cx="23.272" style="fill:#FFFFFF;" r="0.408" cy="-55"/>
  <circle cx="29.35" style="fill:#FFFFFF;" r="0.408" cy="-55.838"/>
  <circle cx="14.184" style="fill:#FFFFFF;" r="0.408" cy="-48.671"/>
  <circle cx="16.309" style="fill:#FFFFFF;" r="0.408" cy="-49.963"/>
  <circle cx="22.684" style="fill:#FFFFFF;" r="0.408" cy="-56.588"/>
  <circle cx="30.1" style="fill:#FFFFFF;" r="0.408" cy="-50.672"/>
  <circle cx="1.6" style="fill:#FFFFFF;" r="0.408" cy="-56.588"/>
  <circle cx="48.517" style="fill:#FFFFFF;" r="0.408" cy="-43.255"/>
  <circle cx="37.6" style="fill:#FFFFFF;" r="0.408" cy="-48.338"/>
  <circle cx="30.6" style="fill:#FFFFFF;" r="0.408" cy="-47.505"/>
  <circle cx="43.684" style="fill:#FFFFFF;" r="0.408" cy="-2.713"/>
  <circle cx="31.434" style="fill:#FFFFFF;" r="0.408" cy="-0.463"/>
  <circle cx="8.809" style="fill:#FFFFFF;" r="0.408" cy="-3.338"/>
  <circle cx="49.559" style="fill:#FFFFFF;" r="0.408" cy="-31.588"/>
  <circle cx="5.309" style="fill:#FFFFFF;" r="0.408" cy="-20.838"/>
  <circle cx="1.309" style="fill:#FFFFFF;" r="0.408" cy="-10.963"/>
  <circle cx="52.684" style="fill:#FFFFFF;" r="0.408" cy="-3.963"/>
  <circle cx="54.059" style="fill:#FFFFFF;" r="0.408" cy="-8.838"/>
  <circle cx="56.559" style="fill:#FFFFFF;" r="0.408" cy="-0.963"/>
  <circle cx="54.215" style="fill:#FFFFFF;" r="0.408" cy="-0.432"/>
  <circle cx="55.634" style="fill:#FFFFFF;" r="0.408" cy="-5.472"/>
  <circle cx="55.467" style="fill:#FFFFFF;" r="0.408" cy="-2.805"/>
  <circle cx="45.05" style="fill:#FFFFFF;" r="0.408" cy="-11.972"/>
  <circle cx="44.217" style="fill:#FFFFFF;" r="0.408" cy="-14.638"/>
  <circle cx="37.717" style="fill:#FFFFFF;" r="0.408" cy="-13.472"/>
  <circle cx="36.55" style="fill:#FFFFFF;" r="0.408" cy="-12.472"/>
  <circle cx="35.467" style="fill:#FFFFFF;" r="0.408" cy="-16.471"/>
  <circle cx="33.55" style="fill:#FFFFFF;" r="0.408" cy="-15.305"/>
  <circle cx="33.884" style="fill:#FFFFFF;" r="0.408" cy="-13.638"/>
  <circle cx="28.8" style="fill:#FFFFFF;" r="0.408" cy="-12.472"/>
  <circle cx="29.55" style="fill:#FFFFFF;" r="0.408" cy="-10.388"/>
  <circle cx="27.384" style="fill:#FFFFFF;" r="0.408" cy="-19.055"/>
  <circle cx="28.634" style="fill:#FFFFFF;" r="0.408" cy="-21.638"/>
  <circle cx="27.217" style="fill:#FFFFFF;" r="0.408" cy="-22.888"/>
  <circle cx="24.55" style="fill:#FFFFFF;" r="0.408" cy="-20.472"/>
  <circle cx="22.8" style="fill:#FFFFFF;" r="0.408" cy="-19.305"/>
  <circle cx="24.634" style="fill:#FFFFFF;" r="0.408" cy="-17.138"/>
  <circle cx="27.8" style="fill:#FFFFFF;" r="0.408" cy="-17.138"/>
  <circle cx="29.55" style="fill:#FFFFFF;" r="0.408" cy="-16.222"/>
  <circle cx="31.8" style="fill:#FFFFFF;" r="0.408" cy="-16.722"/>
  <circle cx="34.134" style="fill:#FFFFFF;" r="0.408" cy="-17.888"/>
  <circle cx="32.55" style="fill:#FFFFFF;" r="0.408" cy="-19.138"/>
  <circle cx="40.217" style="fill:#FFFFFF;" r="0.408" cy="-10.638"/>
  <circle cx="42.634" style="fill:#FFFFFF;" r="0.408" cy="-11.305"/>
  <circle cx="42.467" style="fill:#FFFFFF;" r="0.408" cy="-8.555"/>
  <circle cx="43.55" style="fill:#FFFFFF;" r="0.408" cy="-6.388"/>
  <circle cx="41.55" style="fill:#FFFFFF;" r="0.408" cy="-3.305"/>
  <circle cx="45.3" style="fill:#FFFFFF;" r="0.408" cy="-1.388"/>
  <circle cx="49.3" style="fill:#FFFFFF;" r="0.408" cy="-0.722"/>
  <circle cx="38.217" style="fill:#FFFFFF;" r="0.408" cy="-3.805"/>
  <circle cx="40.384" style="fill:#FFFFFF;" r="0.408" cy="-5.305"/>
  <circle cx="38.462" style="fill:#FFFFFF;" r="0.408" cy="-0.476"/>
  <circle cx="38.3" style="fill:#FFFFFF;" r="0.408" cy="-15.138"/>
  <circle cx="39.384" style="fill:#FFFFFF;" r="0.408" cy="-18.055"/>
  <circle cx="42.759" style="fill:#FFFFFF;" r="0.408" cy="-18.18"/>
  <circle cx="40.634" style="fill:#FFFFFF;" r="0.408" cy="-16.055"/>
  <circle cx="4.509" style="fill:#FFFFFF;" r="0.408" cy="-41.805"/>
  <circle cx="35.55" style="fill:#FFFFFF;" r="0.408" cy="-2.472"/>
  <circle cx="7.884" style="fill:#FFFFFF;" r="0.408" cy="-1.555"/>
  <circle cx="27.8" style="fill:#FFFFFF;" r="0.408" cy="-31.555"/>
  <circle cx="47.55" style="fill:#FFFFFF;" r="0.408" cy="-2.055"/>
  <circle cx="46.55" style="fill:#FFFFFF;" r="0.408" cy="-10.472"/>
  <circle cx="47.8" style="fill:#FFFFFF;" r="0.408" cy="-8.971"/>
  <circle cx="44.8" style="fill:#FFFFFF;" r="0.408" cy="-8.388"/>
  <circle cx="46.634" style="fill:#FFFFFF;" r="0.408" cy="-6.222"/>
  <circle cx="47.884" style="fill:#FFFFFF;" r="0.408" cy="-5.055"/>
  <circle cx="49.55" style="fill:#FFFFFF;" r="0.408" cy="-6.555"/>
  <circle cx="50.55" style="fill:#FFFFFF;" r="0.408" cy="-5.555"/>
  <circle cx="49.634" style="fill:#FFFFFF;" r="0.408" cy="-4.222"/>
  <circle cx="57.009" style="fill:#FFFFFF;" r="0.408" cy="-13.43"/>
  <circle cx="54.55" style="fill:#FFFFFF;" r="0.408" cy="-14.222"/>
  <circle cx="50.3" style="fill:#FFFFFF;" r="0.408" cy="-16.055"/>
  <circle cx="48.467" style="fill:#FFFFFF;" r="0.408" cy="-26.138"/>
  <circle cx="48.05" style="fill:#FFFFFF;" r="0.408" cy="-24.555"/>
  <circle cx="37.717" style="fill:#FFFFFF;" r="0.408" cy="-18.888"/>
  <circle cx="49.879" style="fill:#FFFFFF;" r="0.408" cy="-19.55"/>
  <circle cx="55.634" style="fill:#FFFFFF;" r="0.408" cy="-12.805"/>
  <circle cx="19.634" style="fill:#FFFFFF;" r="0.408" cy="-15.305"/>
  <circle cx="14.634" style="fill:#FFFFFF;" r="0.408" cy="-21.222"/>
  <circle cx="14.967" style="fill:#FFFFFF;" r="0.408" cy="-15.638"/>
  <circle cx="13.634" style="fill:#FFFFFF;" r="0.408" cy="-14.555"/>
  <circle cx="17.384" style="fill:#FFFFFF;" r="0.408" cy="-14.555"/>
  <circle cx="24.55" style="fill:#FFFFFF;" r="0.408" cy="-32.638"/>
  <circle cx="46.3" style="fill:#FFFFFF;" r="0.408" cy="-40.638"/>
  <circle cx="34.384" style="fill:#FFFFFF;" r="0.408" cy="-20.055"/>
  <circle cx="35.717" style="fill:#FFFFFF;" r="0.408" cy="-22.222"/>
  <circle cx="36.717" style="fill:#FFFFFF;" r="0.408" cy="-24.388"/>
  <circle cx="33.3" style="fill:#FFFFFF;" r="0.408" cy="-24.138"/>
  <circle cx="31.884" style="fill:#FFFFFF;" r="0.408" cy="-22.138"/>
  <circle cx="57.134" style="fill:#FFFFFF;" r="0.408" cy="-28.222"/>
  <circle cx="52.467" style="fill:#FFFFFF;" r="0.408" cy="-28.555"/>
  <circle cx="50.134" style="fill:#FFFFFF;" r="0.408" cy="-29.555"/>
  <circle cx="47.379" style="fill:#FFFFFF;" r="0.408" cy="-31.884"/>
  <circle cx="44.3" style="fill:#FFFFFF;" r="0.408" cy="-33.222"/>
  <circle cx="44.467" style="fill:#FFFFFF;" r="0.408" cy="-35.472"/>
  <circle cx="43.8" style="fill:#FFFFFF;" r="0.408" cy="-37.305"/>
  <circle cx="42.05" style="fill:#FFFFFF;" r="0.408" cy="-36.222"/>
  <circle cx="39.217" style="fill:#FFFFFF;" r="0.408" cy="-36.888"/>
  <circle cx="39.634" style="fill:#FFFFFF;" r="0.408" cy="-33.971"/>
  <circle cx="42.384" style="fill:#FFFFFF;" r="0.408" cy="-31.972"/>
  <circle cx="38.134" style="fill:#FFFFFF;" r="0.408" cy="-35.305"/>
  <circle cx="35.717" style="fill:#FFFFFF;" r="0.408" cy="-35.555"/>
  <circle cx="36.217" style="fill:#FFFFFF;" r="0.408" cy="-33.971"/>
  <circle cx="35.634" style="fill:#FFFFFF;" r="0.408" cy="-38.555"/>
  <circle cx="46.467" style="fill:#FFFFFF;" r="0.408" cy="-42.555"/>
  <circle cx="40.55" style="fill:#FFFFFF;" r="0.408" cy="-43.388"/>
  <circle cx="31.967" style="fill:#FFFFFF;" r="0.408" cy="-44.138"/>
  <circle cx="29.467" style="fill:#FFFFFF;" r="0.408" cy="-44.305"/>
  <circle cx="26.8" style="fill:#FFFFFF;" r="0.408" cy="-44.722"/>
  <circle cx="25.217" style="fill:#FFFFFF;" r="0.408" cy="-43.722"/>
  <circle cx="27.55" style="fill:#FFFFFF;" r="0.408" cy="-47.138"/>
  <circle cx="25.467" style="fill:#FFFFFF;" r="0.408" cy="-48.638"/>
  <circle cx="25.217" style="fill:#FFFFFF;" r="0.408" cy="-51.222"/>
  <circle cx="24.467" style="fill:#FFFFFF;" r="0.408" cy="-46.388"/>
  <circle cx="22.379" style="fill:#FFFFFF;" r="0.408" cy="-48.384"/>
  <circle cx="19.55" style="fill:#FFFFFF;" r="0.408" cy="-47.638"/>
  <circle cx="17.967" style="fill:#FFFFFF;" r="0.408" cy="-46.722"/>
  <circle cx="48.05" style="fill:#FFFFFF;" r="0.408" cy="-35.722"/>
  <circle cx="55.3" style="fill:#FFFFFF;" r="0.407" cy="-24.638"/>
  <circle cx="53.717" style="fill:#FFFFFF;" r="0.408" cy="-27.222"/>
  <circle cx="53.717" style="fill:#FFFFFF;" r="0.408" cy="-22.388"/>
  <circle cx="56.634" style="fill:#FFFFFF;" r="0.408" cy="-21.722"/>
  <circle cx="57.009" style="fill:#FFFFFF;" r="0.408" cy="-23.867"/>
  <circle cx="43.967" style="fill:#FFFFFF;" r="0.408" cy="-25.388"/>
  <circle cx="41.884" style="fill:#FFFFFF;" r="0.408" cy="-24.305"/>
  <circle cx="45.05" style="fill:#FFFFFF;" r="0.408" cy="-23.888"/>
  <circle cx="48.55" style="fill:#FFFFFF;" r="0.408" cy="-21.471"/>
  <circle cx="52.55" style="fill:#FFFFFF;" r="0.408" cy="-20.722"/>
  <circle cx="51.717" style="fill:#FFFFFF;" r="0.408" cy="-18.555"/>
  <circle cx="54.55" style="fill:#FFFFFF;" r="0.407" cy="-19.388"/>
  <circle cx="56.55" style="fill:#FFFFFF;" r="0.408" cy="-19.222"/>
  <circle cx="55.967" style="fill:#FFFFFF;" r="0.408" cy="-15.472"/>
  <circle cx="52.384" style="fill:#FFFFFF;" r="0.408" cy="-16.305"/>
  <circle cx="46.717" style="fill:#FFFFFF;" r="0.408" cy="-16.388"/>
  <circle cx="48.467" style="fill:#FFFFFF;" r="0.408" cy="-14.638"/>
  <circle cx="46.05" style="fill:#FFFFFF;" r="0.408" cy="-20.055"/>
  <circle cx="45.717" style="fill:#FFFFFF;" r="0.408" cy="-22.472"/>
  <circle cx="43.884" style="fill:#FFFFFF;" r="0.408" cy="-21.388"/>
  <circle cx="42.384" style="fill:#FFFFFF;" r="0.408" cy="-20.221"/>
  <circle cx="40.3" style="fill:#FFFFFF;" r="0.408" cy="-21.638"/>
  <circle cx="38.8" style="fill:#FFFFFF;" r="0.408" cy="-23.138"/>
  <circle cx="47.8" style="fill:#FFFFFF;" r="0.408" cy="-28.722"/>
  <circle cx="50.467" style="fill:#FFFFFF;" r="0.408" cy="-36.388"/>
  <circle cx="45.967" style="fill:#FFFFFF;" r="0.408" cy="-38.388"/>
  <circle cx="43.3" style="fill:#FFFFFF;" r="0.408" cy="-41.222"/>
  <circle cx="38.8" style="fill:#FFFFFF;" r="0.408" cy="-41.722"/>
  <circle cx="41.3" style="fill:#FFFFFF;" r="0.408" cy="-39.222"/>
  <circle cx="36.967" style="fill:#FFFFFF;" r="0.408" cy="-39.722"/>
  <circle cx="34.8" style="fill:#FFFFFF;" r="0.408" cy="-40.888"/>
  <circle cx="36.8" style="fill:#FFFFFF;" r="0.408" cy="-43.555"/>
  <circle cx="35.967" style="fill:#FFFFFF;" r="0.408" cy="-46.555"/>
  <circle cx="33.967" style="fill:#FFFFFF;" r="0.408" cy="-44.888"/>
  <circle cx="40.134" style="fill:#FFFFFF;" r="0.408" cy="-47.388"/>
  <circle cx="56.134" style="fill:#FFFFFF;" r="0.408" cy="-52.888"/>
  <circle cx="55.8" style="fill:#FFFFFF;" r="0.407" cy="-54.388"/>
  <circle cx="52.634" style="fill:#FFFFFF;" r="0.408" cy="-54.388"/>
  <circle cx="51.634" style="fill:#FFFFFF;" r="0.408" cy="-52.555"/>
  <circle cx="54.134" style="fill:#FFFFFF;" r="0.408" cy="-51.388"/>
  <circle cx="53.967" style="fill:#FFFFFF;" r="0.408" cy="-56.055"/>
  <circle cx="56.134" style="fill:#FFFFFF;" r="0.408" cy="-56.722"/>
  <circle cx="52.3" style="fill:#FFFFFF;" r="0.407" cy="-56.888"/>
  <circle cx="49.863" style="fill:#FFFFFF;" r="0.407" cy="-57.185"/>
  <circle cx="56.467" style="fill:#FFFFFF;" r="0.408" cy="-48.888"/>
  <circle cx="54.467" style="fill:#FFFFFF;" r="0.408" cy="-47.888"/>
  <circle cx="52.134" style="fill:#FFFFFF;" r="0.408" cy="-47.388"/>
  <circle cx="55.967" style="fill:#FFFFFF;" r="0.408" cy="-44.388"/>
  <circle cx="50.009" style="fill:#FFFFFF;" r="0.408" cy="-46.305"/>
  <circle cx="49.509" style="fill:#FFFFFF;" r="0.408" cy="-23.43"/>
  <circle cx="48.8" style="fill:#FFFFFF;" r="0.408" cy="-51.722"/>
  <circle cx="48.134" style="fill:#FFFFFF;" r="0.408" cy="-49.888"/>
  <circle cx="44.967" style="fill:#FFFFFF;" r="0.408" cy="-51.222"/>
  <circle cx="46.3" style="fill:#FFFFFF;" r="0.408" cy="-53.388"/>
  <circle cx="37.884" style="fill:#FFFFFF;" r="0.408" cy="-56.388"/>
  <circle cx="42.217" style="fill:#FFFFFF;" r="0.408" cy="-55.638"/>
  <circle cx="43.05" style="fill:#FFFFFF;" r="0.408" cy="-54.055"/>
  <circle cx="39.717" style="fill:#FFFFFF;" r="0.408" cy="-53.722"/>
  <circle cx="40.6" style="fill:#FFFFFF;" r="0.408" cy="-56.671"/>
  <circle cx="36.634" style="fill:#FFFFFF;" r="0.408" cy="-55.305"/>
  <circle cx="34.717" style="fill:#FFFFFF;" r="0.408" cy="-55.221"/>
  <circle cx="35.384" style="fill:#FFFFFF;" r="0.408" cy="-53.472"/>
  <circle cx="32.217" style="fill:#FFFFFF;" r="0.408" cy="-56.305"/>
  <path d="M35.657-57.601c-0.002,0.224-0.185,0.404-0.409,0.404c-0.224,0-0.406-0.18-0.408-0.404" style="fill:#FFFFFF;"/>
  <path d="M34.841,0c0.011-0.215,0.189-0.388,0.407-0.388c0.218,0,0.396,0.172,0.408,0.388" style="fill:#FFFFFF;"/>
  <circle cx="5.884" style="fill:#FFFFFF;" r="0.408" cy="-57.055"/>
  <circle cx="3.55" style="fill:#FFFFFF;" r="0.408" cy="-56.222"/>
  <circle cx="1.55" style="fill:#FFFFFF;" r="0.408" cy="-54.055"/>
  <circle cx="6.217" style="fill:#FFFFFF;" r="0.408" cy="-54.722"/>
  <circle cx="8.217" style="fill:#FFFFFF;" r="0.408" cy="-56.722"/>
  <circle cx="11.467" style="fill:#FFFFFF;" r="0.408" cy="-57.055"/>
  <circle cx="14.821" style="fill:#FFFFFF;" r="0.408" cy="-57.18"/>
  <circle cx="19.467" style="fill:#FFFFFF;" r="0.408" cy="-56.638"/>
  <circle cx="24.217" style="fill:#FFFFFF;" r="0.408" cy="-53.638"/>
  <circle cx="20.55" style="fill:#FFFFFF;" r="0.408" cy="-54.388"/>
  <circle cx="16.717" style="fill:#FFFFFF;" r="0.408" cy="-54.722"/>
  <circle cx="13.634" style="fill:#FFFFFF;" r="0.408" cy="-54.388"/>
  <circle cx="10.884" style="fill:#FFFFFF;" r="0.408" cy="-54.138"/>
  <circle cx="7.55" style="fill:#FFFFFF;" r="0.408" cy="-52.721"/>
  <circle cx="4.3" style="fill:#FFFFFF;" r="0.408" cy="-52.721"/>
  <circle cx="6.634" style="fill:#FFFFFF;" r="0.408" cy="-50.638"/>
  <circle cx="3.634" style="fill:#FFFFFF;" r="0.408" cy="-50.388"/>
  <circle cx="8.05" style="fill:#FFFFFF;" r="0.408" cy="-48.722"/>
  <circle cx="10.3" style="fill:#FFFFFF;" r="0.408" cy="-49.722"/>
  <circle cx="12.05" style="fill:#FFFFFF;" r="0.408" cy="-50.638"/>
  <circle cx="11.634" style="fill:#FFFFFF;" r="0.408" cy="-47.721"/>
  <circle cx="9.05" style="fill:#FFFFFF;" r="0.408" cy="-46.305"/>
  <circle cx="12.05" style="fill:#FFFFFF;" r="0.408" cy="-45.388"/>
  <circle cx="15.467" style="fill:#FFFFFF;" r="0.408" cy="-46.138"/>
  <circle cx="10.55" style="fill:#FFFFFF;" r="0.408" cy="-43.555"/>
  <circle cx="12.717" style="fill:#FFFFFF;" r="0.408" cy="-42.805"/>
  <circle cx="7.05" style="fill:#FFFFFF;" r="0.408" cy="-44.805"/>
  <circle cx="6.467" style="fill:#FFFFFF;" r="0.408" cy="-46.555"/>
  <circle cx="3.134" style="fill:#FFFFFF;" r="0.408" cy="-46.222"/>
  <circle cx="0.634" style="fill:#FFFFFF;" r="0.408" cy="-45.388"/>
  <circle cx="1.884" style="fill:#FFFFFF;" r="0.408" cy="-44.305"/>
  <circle cx="4.55" style="fill:#FFFFFF;" r="0.408" cy="-44.222"/>
  <circle cx="5.634" style="fill:#FFFFFF;" r="0.408" cy="-43.222"/>
  <circle cx="6.05" style="fill:#FFFFFF;" r="0.408" cy="-40.472"/>
  <circle cx="3.217" style="fill:#FFFFFF;" r="0.408" cy="-39.722"/>
  <circle cx="0.638" style="fill:#FFFFFF;" r="0.408" cy="-37.643"/>
  <circle cx="4.634" style="fill:#FFFFFF;" r="0.408" cy="-38.222"/>
  <circle cx="3.634" style="fill:#FFFFFF;" r="0.408" cy="-36.222"/>
  <circle cx="3.967" style="fill:#FFFFFF;" r="0.408" cy="-34.305"/>
  <circle cx="7.384" style="fill:#FFFFFF;" r="0.408" cy="-34.305"/>
  <circle cx="8.05" style="fill:#FFFFFF;" r="0.408" cy="-38.388"/>
  <circle cx="10.217" style="fill:#FFFFFF;" r="0.408" cy="-37.721"/>
  <circle cx="9.884" style="fill:#FFFFFF;" r="0.408" cy="-40.388"/>
  <circle cx="12.217" style="fill:#FFFFFF;" r="0.408" cy="-40.972"/>
  <circle cx="12.3" style="fill:#FFFFFF;" r="0.408" cy="-38.472"/>
  <circle cx="13.217" style="fill:#FFFFFF;" r="0.408" cy="-36.805"/>
  <circle cx="11.717" style="fill:#FFFFFF;" r="0.408" cy="-35.305"/>
  <circle cx="14.134" style="fill:#FFFFFF;" r="0.408" cy="-34.138"/>
  <circle cx="16.55" style="fill:#FFFFFF;" r="0.408" cy="-34.305"/>
  <circle cx="15.884" style="fill:#FFFFFF;" r="0.408" cy="-37.222"/>
  <circle cx="14.55" style="fill:#FFFFFF;" r="0.408" cy="-44.388"/>
  <circle cx="6.884" style="fill:#FFFFFF;" r="0.408" cy="-31.388"/>
  <circle cx="5.634" style="fill:#FFFFFF;" r="0.408" cy="-33.388"/>
  <circle cx="9.8" style="fill:#FFFFFF;" r="0.408" cy="-32.388"/>
  <circle cx="10.884" style="fill:#FFFFFF;" r="0.408" cy="-30.305"/>
  <circle cx="13.05" style="fill:#FFFFFF;" r="0.408" cy="-29.388"/>
  <circle cx="15.134" style="fill:#FFFFFF;" r="0.408" cy="-30.305"/>
  <circle cx="13.384" style="fill:#FFFFFF;" r="0.408" cy="-32.305"/>
  <circle cx="16.967" style="fill:#FFFFFF;" r="0.408" cy="-29.805"/>
  <circle cx="18.467" style="fill:#FFFFFF;" r="0.408" cy="-34.555"/>
  <circle cx="20.8" style="fill:#FFFFFF;" r="0.408" cy="-37.138"/>
  <circle cx="20.717" style="fill:#FFFFFF;" r="0.408" cy="-34.722"/>
  <circle cx="23.55" style="fill:#FFFFFF;" r="0.408" cy="-34.805"/>
  <circle cx="22.717" style="fill:#FFFFFF;" r="0.408" cy="-36.638"/>
  <circle cx="26.217" style="fill:#FFFFFF;" r="0.408" cy="-33.638"/>
  <circle cx="27.884" style="fill:#FFFFFF;" r="0.408" cy="-34.972"/>
  <circle cx="31.184" style="fill:#FFFFFF;" r="0.408" cy="-35.838"/>
  <circle cx="33.35" style="fill:#FFFFFF;" r="0.408" cy="-42.338"/>
  <circle cx="24.6" style="fill:#FFFFFF;" r="0.408" cy="-41.588"/>
  <circle cx="20.017" style="fill:#FFFFFF;" r="0.408" cy="-30.672"/>
  <circle cx="18.684" style="fill:#FFFFFF;" r="0.408" cy="-32.338"/>
  <circle cx="41.017" style="fill:#FFFFFF;" r="0.408" cy="-41.005"/>
  <circle cx="37.434" style="fill:#FFFFFF;" r="0.408" cy="-41.255"/>
  <circle cx="20.1" style="fill:#FFFFFF;" r="0.408" cy="-43.755"/>
  <circle cx="6.6" style="fill:#FFFFFF;" r="0.408" cy="-36.671"/>
  <circle cx="0.85" style="fill:#FFFFFF;" r="0.408" cy="-35.255"/>
  <circle cx="37.6" style="fill:#FFFFFF;" r="0.408" cy="-21.171"/>
  <circle cx="27.967" style="fill:#FFFFFF;" r="0.408" cy="-39.222"/>
  <circle cx="27.3" style="fill:#FFFFFF;" r="0.408" cy="-36.888"/>
  <circle cx="30.134" style="fill:#FFFFFF;" r="0.408" cy="-37.805"/>
  <circle cx="29.634" style="fill:#FFFFFF;" r="0.408" cy="-33.805"/>
  <circle cx="32.134" style="fill:#FFFFFF;" r="0.408" cy="-33.888"/>
  <circle cx="30.634" style="fill:#FFFFFF;" r="0.408" cy="-31.138"/>
  <circle cx="35.8" style="fill:#FFFFFF;" r="0.408" cy="-31.222"/>
  <circle cx="34.217" style="fill:#FFFFFF;" r="0.408" cy="-32.305"/>
  <circle cx="18.384" style="fill:#FFFFFF;" r="0.408" cy="-22.305"/>
  <circle cx="20.05" style="fill:#FFFFFF;" r="0.408" cy="-20.722"/>
  <circle cx="17.55" style="fill:#FFFFFF;" r="0.408" cy="-20.305"/>
  <circle cx="15.384" style="fill:#FFFFFF;" r="0.408" cy="-23.638"/>
  <circle cx="18.55" style="fill:#FFFFFF;" r="0.408" cy="-17.555"/>
  <circle cx="21.05" style="fill:#FFFFFF;" r="0.408" cy="-17.972"/>
  <circle cx="21.884" style="fill:#FFFFFF;" r="0.408" cy="-16.805"/>
  <circle cx="22.634" style="fill:#FFFFFF;" r="0.408" cy="-14.388"/>
  <circle cx="25.05" style="fill:#FFFFFF;" r="0.408" cy="-15.138"/>
  <circle cx="25.967" style="fill:#FFFFFF;" r="0.408" cy="-13.222"/>
  <circle cx="24.384" style="fill:#FFFFFF;" r="0.408" cy="-12.388"/>
  <circle cx="16.55" style="fill:#FFFFFF;" r="0.408" cy="-13.222"/>
  <circle cx="19.967" style="fill:#FFFFFF;" r="0.408" cy="-8.888"/>
  <circle cx="18.55" style="fill:#FFFFFF;" r="0.408" cy="-7.138"/>
  <circle cx="21.634" style="fill:#FFFFFF;" r="0.408" cy="-6.305"/>
  <circle cx="23.634" style="fill:#FFFFFF;" r="0.408" cy="-8.222"/>
  <circle cx="27.467" style="fill:#FFFFFF;" r="0.408" cy="-7.555"/>
  <circle cx="26.134" style="fill:#FFFFFF;" r="0.408" cy="-5.388"/>
  <circle cx="28.384" style="fill:#FFFFFF;" r="0.408" cy="-4.305"/>
  <circle cx="31.717" style="fill:#FFFFFF;" r="0.408" cy="-3.305"/>
  <circle cx="32.8" style="fill:#FFFFFF;" r="0.408" cy="-1.972"/>
  <circle cx="29.467" style="fill:#FFFFFF;" r="0.408" cy="-1.388"/>
  <circle cx="32.384" style="fill:#FFFFFF;" r="0.408" cy="-7.138"/>
  <circle cx="35.8" style="fill:#FFFFFF;" r="0.408" cy="-8.388"/>
  <circle cx="38.717" style="fill:#FFFFFF;" r="0.408" cy="-6.555"/>
  <circle cx="36.717" style="fill:#FFFFFF;" r="0.408" cy="-5.388"/>
  <circle cx="34.467" style="fill:#FFFFFF;" r="0.408" cy="-7.222"/>
  <circle cx="34.384" style="fill:#FFFFFF;" r="0.408" cy="-4.222"/>
  <circle cx="15.884" style="fill:#FFFFFF;" r="0.408" cy="-6.388"/>
  <circle cx="14.134" style="fill:#FFFFFF;" r="0.408" cy="-6.305"/>
  <circle cx="9.634" style="fill:#FFFFFF;" r="0.408" cy="-9.055"/>
  <circle cx="6.55" style="fill:#FFFFFF;" r="0.408" cy="-10.555"/>
  <circle cx="4.884" style="fill:#FFFFFF;" r="0.408" cy="-12.721"/>
  <circle cx="3.634" style="fill:#FFFFFF;" r="0.408" cy="-15.221"/>
  <circle cx="3.217" style="fill:#FFFFFF;" r="0.408" cy="-18.472"/>
  <circle cx="6.467" style="fill:#FFFFFF;" r="0.408" cy="-23.472"/>
  <circle cx="2.05" style="fill:#FFFFFF;" r="0.408" cy="-12.972"/>
  <circle cx="1.3" style="fill:#FFFFFF;" r="0.408" cy="-8.888"/>
  <circle cx="3.467" style="fill:#FFFFFF;" r="0.408" cy="-10.305"/>
  <circle cx="4.634" style="fill:#FFFFFF;" r="0.408" cy="-9.388"/>
  <circle cx="6.467" style="fill:#FFFFFF;" r="0.408" cy="-7.555"/>
  <circle cx="3.134" style="fill:#FFFFFF;" r="0.408" cy="-6.638"/>
  <circle cx="4.967" style="fill:#FFFFFF;" r="0.408" cy="-5.722"/>
  <circle cx="3.717" style="fill:#FFFFFF;" r="0.408" cy="-4.555"/>
  <circle cx="1.467" style="fill:#FFFFFF;" r="0.408" cy="-2.472"/>
  <circle cx="3.55" style="fill:#FFFFFF;" r="0.408" cy="-0.555"/>
  <circle cx="9.634" style="fill:#FFFFFF;" r="0.408" cy="-2.222"/>
  <circle cx="9.634" style="fill:#FFFFFF;" r="0.408" cy="-5.388"/>
  <circle cx="6.3" style="fill:#FFFFFF;" r="0.408" cy="-2.138"/>
  <circle cx="16.134" style="fill:#FFFFFF;" r="0.408" cy="-1.222"/>
  <circle cx="12.467" style="fill:#FFFFFF;" r="0.408" cy="-1.388"/>
  <circle cx="11.384" style="fill:#FFFFFF;" r="0.408" cy="-4.638"/>
  <circle cx="15.55" style="fill:#FFFFFF;" r="0.408" cy="-4.222"/>
  <circle cx="19.217" style="fill:#FFFFFF;" r="0.408" cy="-1.638"/>
  <circle cx="15.8" style="fill:#FFFFFF;" r="0.408" cy="-18.055"/>
  <circle cx="24.55" style="fill:#FFFFFF;" r="0.408" cy="-2.222"/>
  <circle cx="22.884" style="fill:#FFFFFF;" r="0.408" cy="-0.559"/>
  <circle cx="20.384" style="fill:#FFFFFF;" r="0.408" cy="-3.805"/>
  <circle cx="19.467" style="fill:#FFFFFF;" r="0.408" cy="-5.388"/>
  <circle cx="23.967" style="fill:#FFFFFF;" r="0.408" cy="-3.722"/>
  <circle cx="24.3" style="fill:#FFFFFF;" r="0.408" cy="-6.471"/>
  <circle cx="26.55" style="fill:#FFFFFF;" r="0.408" cy="-2.305"/>
  <circle cx="27.717" style="fill:#FFFFFF;" r="0.408" cy="-0.472"/>
  <circle cx="13.55" style="fill:#FFFFFF;" r="0.408" cy="-8.305"/>
  <circle cx="14.462" style="fill:#FFFFFF;" r="0.408" cy="-11.3"/>
  <circle cx="1.767" style="fill:#FFFFFF;" r="0.408" cy="-5.171"/>
  <circle cx="10.934" style="fill:#FFFFFF;" r="0.408" cy="-12.671"/>
  <circle cx="23.85" style="fill:#FFFFFF;" r="0.408" cy="-24.755"/>
  <circle cx="14.017" style="fill:#FFFFFF;" r="0.408" cy="-24.255"/>
  <circle cx="56.184" style="fill:#FFFFFF;" r="0.408" cy="-30.171"/>
  <circle cx="51.851" style="fill:#FFFFFF;" r="0.408" cy="-31.088"/>
  <circle cx="30.684" style="fill:#FFFFFF;" r="0.408" cy="-14.255"/>
  <circle cx="11.55" style="fill:#FFFFFF;" r="0.408" cy="-11.305"/>
  <circle cx="11.467" style="fill:#FFFFFF;" r="0.408" cy="-16.471"/>
  <circle cx="10.717" style="fill:#FFFFFF;" r="0.408" cy="-20.305"/>
  <circle cx="9.634" style="fill:#FFFFFF;" r="0.408" cy="-18.388"/>
  <circle cx="8.8" style="fill:#FFFFFF;" r="0.408" cy="-16.388"/>
  <circle cx="9.55" style="fill:#FFFFFF;" r="0.408" cy="-13.472"/>
  <circle cx="6.8" style="fill:#FFFFFF;" r="0.408" cy="-13.222"/>
  <circle cx="6.3" style="fill:#FFFFFF;" r="0.408" cy="-16.388"/>
  <circle cx="5.967" style="fill:#FFFFFF;" r="0.408" cy="-19.138"/>
  <circle cx="7.8" style="fill:#FFFFFF;" r="0.408" cy="-19.722"/>
  <circle cx="7.634" style="fill:#FFFFFF;" r="0.408" cy="-22.055"/>
  <circle cx="26.55" style="fill:#FFFFFF;" r="0.408" cy="-10.888"/>
  <circle cx="32.634" style="fill:#FFFFFF;" r="0.408" cy="-9.222"/>
  <circle cx="34.55" style="fill:#FFFFFF;" r="0.408" cy="-10.472"/>
  <circle cx="38.467" style="fill:#FFFFFF;" r="0.408" cy="-9.555"/>
  <circle cx="38.634" style="fill:#FFFFFF;" r="0.408" cy="-12.222"/>
  <circle cx="29.55" style="fill:#FFFFFF;" r="0.408" cy="-28.638"/>
  <circle cx="27.8" style="fill:#FFFFFF;" r="0.408" cy="-27.472"/>
  <circle cx="23.634" style="fill:#FFFFFF;" r="0.408" cy="-28.472"/>
  <circle cx="23.134" style="fill:#FFFFFF;" r="0.408" cy="-30.722"/>
  <circle cx="38.3" style="fill:#FFFFFF;" r="0.408" cy="-29.472"/>
  <circle cx="41.217" style="fill:#FFFFFF;" r="0.408" cy="-29.472"/>
  <circle cx="42.467" style="fill:#FFFFFF;" r="0.408" cy="-27.638"/>
  <circle cx="37.384" style="fill:#FFFFFF;" r="0.408" cy="-27.555"/>
  <circle cx="32.467" style="fill:#FFFFFF;" r="0.408" cy="-27.388"/>
  <circle cx="31.134" style="fill:#FFFFFF;" r="0.408" cy="-26.055"/>
  <circle cx="34.634" style="fill:#FFFFFF;" r="0.408" cy="-25.388"/>
  <circle cx="30.55" style="fill:#FFFFFF;" r="0.408" cy="-23.888"/>
  <circle cx="27.467" style="fill:#FFFFFF;" r="0.408" cy="-24.472"/>
  <circle cx="25.134" style="fill:#FFFFFF;" r="0.408" cy="-26.222"/>
  <circle cx="20.717" style="fill:#FFFFFF;" r="0.408" cy="-26.305"/>
  <circle cx="21.967" style="fill:#FFFFFF;" r="0.408" cy="-22.472"/>
  <circle cx="18.717" style="fill:#FFFFFF;" r="0.408" cy="-24.472"/>
  <circle cx="17.3" style="fill:#FFFFFF;" r="0.408" cy="-27.222"/>
  <circle cx="15.05" style="fill:#FFFFFF;" r="0.408" cy="-27.638"/>
  <circle cx="14.384" style="fill:#FFFFFF;" r="0.408" cy="-26.138"/>
  <circle cx="10.634" style="fill:#FFFFFF;" r="0.408" cy="-27.638"/>
  <circle cx="8.384" style="fill:#FFFFFF;" r="0.408" cy="-29.722"/>
  <circle cx="6.634" style="fill:#FFFFFF;" r="0.408" cy="-27.888"/>
  <circle cx="8.634" style="fill:#FFFFFF;" r="0.408" cy="-27.388"/>
  <circle cx="9.634" style="fill:#FFFFFF;" r="0.408" cy="-24.888"/>
  <circle cx="12.05" style="fill:#FFFFFF;" r="0.408" cy="-25.555"/>
  <circle cx="0.638" style="fill:#FFFFFF;" r="0.408" cy="-29.476"/>
  <circle cx="1.8" style="fill:#FFFFFF;" r="0.408" cy="-28.305"/>
  <circle cx="3.634" style="fill:#FFFFFF;" r="0.408" cy="-31.638"/>
  <circle cx="1.967" style="fill:#FFFFFF;" r="0.408" cy="-33.555"/>
  <circle cx="0.55" style="fill:#FFFFFF;" r="0.408" cy="-18.388"/>
  <circle cx="4.55" style="fill:#FFFFFF;" r="0.408" cy="-30.055"/>
  <circle cx="8.467" style="fill:#FFFFFF;" r="0.408" cy="-35.722"/>
  <circle cx="16.967" style="fill:#FFFFFF;" r="0.408" cy="-31.722"/>
  <circle cx="44.967" style="fill:#FFFFFF;" r="0.408" cy="-54.722"/>
  <circle cx="31.8" style="fill:#FFFFFF;" r="0.408" cy="-29.722"/>
  <circle cx="10.3" style="fill:#FFFFFF;" r="0.408" cy="-7.555"/>
  <circle cx="45.967" style="fill:#FFFFFF;" r="0.408" cy="-4.055"/>
  <circle cx="11.8" style="fill:#FFFFFF;" r="0.408" cy="-22.305"/>
  <circle cx="5.717" style="fill:#FFFFFF;" r="0.408" cy="-25.722"/>
  <circle cx="4.467" style="fill:#FFFFFF;" r="0.408" cy="-27.305"/>
  <circle cx="4.55" style="fill:#FFFFFF;" r="0.408" cy="-24.388"/>
  <circle cx="1.717" style="fill:#FFFFFF;" r="0.408" cy="-24.472"/>
  <circle cx="1.3" style="fill:#FFFFFF;" r="0.408" cy="-22.138"/>
  <circle cx="23.384" style="fill:#FFFFFF;" r="0.408" cy="-38.305"/>
  <circle cx="25.55" style="fill:#FFFFFF;" r="0.408" cy="-39.555"/>
  <circle cx="1.55" style="fill:#FFFFFF;" r="0.408" cy="-41.388"/>
  <circle cx="16.3" style="fill:#FFFFFF;" r="0.408" cy="-41.555"/>
  <circle cx="21.55" style="fill:#FFFFFF;" r="0.408" cy="-42.305"/>
  <circle cx="23.134" style="fill:#FFFFFF;" r="0.408" cy="-43.722"/>
  <circle cx="26.55" style="fill:#FFFFFF;" r="0.408" cy="-41.305"/>
  <circle cx="30.05" style="fill:#FFFFFF;" r="0.408" cy="-41.638"/>
  <circle cx="21.467" style="fill:#FFFFFF;" r="0.408" cy="-40.472"/>
  <circle cx="18.634" style="fill:#FFFFFF;" r="0.408" cy="-41.555"/>
  <circle cx="17.55" style="fill:#FFFFFF;" r="0.408" cy="-40.305"/>
  <circle cx="14.467" style="fill:#FFFFFF;" r="0.408" cy="-39.305"/>
  <circle cx="16.634" style="fill:#FFFFFF;" r="0.408" cy="-52.388"/>
  <circle cx="18.8" style="fill:#FFFFFF;" r="0.408" cy="-52.305"/>
  <circle cx="19.55" style="fill:#FFFFFF;" r="0.408" cy="-50.555"/>
  <circle cx="17.634" style="fill:#FFFFFF;" r="0.408" cy="-48.638"/>
  <circle cx="24.467" style="fill:#FFFFFF;" r="0.408" cy="-56.305"/>
  <circle cx="27.634" style="fill:#FFFFFF;" r="0.408" cy="-53.388"/>
  <circle cx="30.05" style="fill:#FFFFFF;" r="0.408" cy="-52.972"/>
  <circle cx="31.634" style="fill:#FFFFFF;" r="0.408" cy="-53.722"/>
  <circle cx="32.717" style="fill:#FFFFFF;" r="0.408" cy="-51.805"/>
  <circle cx="31.55" style="fill:#FFFFFF;" r="0.408" cy="-49.388"/>
  <circle cx="34.717" style="fill:#FFFFFF;" r="0.408" cy="-49.472"/>
  <circle cx="33.634" style="fill:#FFFFFF;" r="0.408" cy="-47.388"/>
  <circle cx="31.384" style="fill:#FFFFFF;" r="0.408" cy="-45.388"/>
  <circle cx="28.717" style="fill:#FFFFFF;" r="0.408" cy="-48.222"/>
  <circle cx="40.3" style="fill:#FFFFFF;" r="0.408" cy="-51.722"/>
  <circle cx="41.8" style="fill:#FFFFFF;" r="0.408" cy="-49.222"/>
  <circle cx="47.967" style="fill:#FFFFFF;" r="0.408" cy="-53.971"/>
  <circle cx="57.134" style="fill:#FFFFFF;" r="0.408" cy="-46.18"/>
  <circle cx="37.967" style="fill:#FFFFFF;" r="0.408" cy="-52.305"/>
  <circle cx="35.8" style="fill:#FFFFFF;" r="0.408" cy="-51.638"/>
 </g>
</svg>
