<?xml version="1.0"?>
<!-- Converted with SVG Converter - Version 0.9.5 (Compiled Fri Feb 21 09:53:38 2020) - Copyright (C) 2011 Nokia -->
<svg xmlns="http://www.w3.org/2000/svg" baseProfile="tiny" viewBox="0 -57.601 57.601 57.601" x="0px" y="0px" xml:space="preserve" version="1.1" height="57.601" xmlns:xlink="http://www.w3.org/1999/xlink" width="57.601">
 <g>
  <rect style="fill:none;" y="-57.601" height="57.601" width="57.601"/>
  <rect y="-57.601" height="57.601" width="57.601"/>
  <circle style="fill:#FFFFFF;" r="0.777" cy="-44.225" cx="49.634"/>
  <circle style="fill:#FFFFFF;" r="0.777" cy="-55.433" cx="48.884"/>
  <circle style="fill:#FFFFFF;" r="0.777" cy="-51.224" cx="42.467"/>
  <circle style="fill:#FFFFFF;" r="0.777" cy="-51.308" cx="28.467"/>
  <circle style="fill:#FFFFFF;" r="0.777" cy="-51.467" cx="22.459"/>
  <circle style="fill:#FFFFFF;" r="0.777" cy="-50.558" cx="14.384"/>
  <circle style="fill:#FFFFFF;" r="0.777" cy="-52.224" cx="10.05"/>
  <circle style="fill:#FFFFFF;" r="0.777" cy="-48.391" cx="4.634"/>
  <circle style="fill:#FFFFFF;" r="0.778" cy="-49.475" cx="1.55"/>
  <path style="fill:#FFFFFF;" d="M0-50.621c0.427-0.003,0.773-0.35,0.773-0.778c0-0.428-0.346-0.775-0.773-0.778"/>
  <path style="fill:#FFFFFF;" d="M57.601-52.176c-0.004,0-0.008,0-0.012,0c-0.43,0-0.777,0.349-0.777,0.778s0.348,0.778,0.777,0.778    c0.004,0,0.008,0,0.012,0"/>
  <circle style="fill:#FFFFFF;" r="0.777" cy="-42.558" cx="8.634"/>
  <circle style="fill:#FFFFFF;" r="0.777" cy="-43.884" cx="16.709"/>
  <circle style="fill:#FFFFFF;" r="0.777" cy="-44.967" cx="21.292"/>
  <circle style="fill:#FFFFFF;" r="0.777" cy="-27.467" cx="50.042"/>
  <circle style="fill:#FFFFFF;" r="0.777" cy="-49.55" cx="38.376"/>
  <circle style="fill:#FFFFFF;" r="0.777" cy="-56.391" cx="27.8"/>
  <circle style="fill:#FFFFFF;" r="0.777" cy="-37.891" cx="18.467"/>
  <circle style="fill:#FFFFFF;" r="0.777" cy="-30.55" cx="25.876"/>
  <circle style="fill:#FFFFFF;" r="0.777" cy="-29.467" cx="34.209"/>
  <circle style="fill:#FFFFFF;" r="0.777" cy="-19.3" cx="30.292"/>
  <circle style="fill:#FFFFFF;" r="0.777" cy="-26.308" cx="56.8"/>
  <circle style="fill:#FFFFFF;" r="0.777" cy="-17.55" cx="48.626"/>
  <circle style="fill:#FFFFFF;" r="0.777" cy="-32.634" cx="0.808"/>
  <circle style="fill:#FFFFFF;" r="0.777" cy="-28.384" cx="19.725"/>
  <circle style="fill:#FFFFFF;" r="0.777" cy="-23.3" cx="24.891"/>
  <circle style="fill:#FFFFFF;" r="0.777" cy="-18.475" cx="12.384"/>
  <circle style="fill:#FFFFFF;" r="0.777" cy="-13.058" cx="31.717"/>
  <circle style="fill:#FFFFFF;" r="0.777" cy="-14.391" cx="41.3"/>
  <circle style="fill:#FFFFFF;" r="0.777" cy="-8.474" cx="56.634"/>
  <circle style="fill:#FFFFFF;" r="0.777" cy="-2.391" cx="52.384"/>
  <circle style="fill:#FFFFFF;" r="0.777" cy="-0.808" cx="41.55"/>
  <path style="fill:#FFFFFF;" d="M45.494,0c0.019-0.413,0.358-0.741,0.775-0.741c0.417,0,0.756,0.328,0.775,0.741"/>
  <path style="fill:#FFFFFF;" d="M47.045-57.601c-0.011,0.419-0.354,0.757-0.776,0.757c-0.423,0-0.766-0.338-0.776-0.757"/>
  <circle style="fill:#FFFFFF;" r="0.777" cy="-3.391" cx="13.55"/>
  <circle style="fill:#FFFFFF;" r="0.777" cy="-3.891" cx="6.55"/>
  <circle style="fill:#FFFFFF;" r="0.777" cy="-16.475" cx="1.3"/>
  <circle style="fill:#FFFFFF;" r="0.777" cy="-26.05" cx="39.641"/>
  <circle style="fill:#FFFFFF;" r="0.777" cy="-32.467" cx="20.975"/>
  <circle style="fill:#FFFFFF;" r="0.777" cy="-21.55" cx="3.558"/>
  <circle style="fill:#FFFFFF;" r="0.777" cy="-46.224" cx="45.967"/>
  <circle style="fill:#FFFFFF;" r="0.777" cy="-40.225" cx="31.634"/>
  <circle style="fill:#FFFFFF;" r="0.777" cy="-37.558" cx="33.634"/>
  <circle style="fill:#FFFFFF;" r="0.777" cy="-32.391" cx="38.467"/>
  <circle style="fill:#FFFFFF;" r="0.777" cy="-30.058" cx="44.634"/>
  <circle style="fill:#FFFFFF;" r="0.777" cy="-26.391" cx="46.634"/>
  <circle style="fill:#FFFFFF;" r="0.777" cy="-24.057" cx="51.467"/>
  <circle style="fill:#FFFFFF;" r="0.777" cy="-17.058" cx="44.634"/>
  <circle style="fill:#FFFFFF;" r="0.777" cy="-30.391" cx="54.634"/>
  <circle style="fill:#FFFFFF;" r="0.777" cy="-47.391" cx="48.8"/>
  <circle style="fill:#FFFFFF;" r="0.777" cy="-45.225" cx="39.134"/>
  <circle style="fill:#FFFFFF;" r="0.777" cy="-50.391" cx="51.467"/>
  <circle style="fill:#FFFFFF;" r="0.777" cy="-33.891" cx="47.634"/>
  <circle style="fill:#FFFFFF;" r="0.777" cy="-10.558" cx="22.217"/>
  <circle style="fill:#FFFFFF;" r="0.777" cy="-11.683" cx="19.321"/>
  <circle style="fill:#FFFFFF;" r="0.777" cy="-2.475" cx="22.384"/>
  <circle style="fill:#FFFFFF;" r="0.777" cy="-10.141" cx="16.634"/>
  <circle style="fill:#FFFFFF;" r="0.777" cy="-5.391" cx="29.8"/>
  <circle style="fill:#FFFFFF;" r="0.408" cy="-41.722" cx="54.134"/>
  <circle style="fill:#FFFFFF;" r="0.408" cy="-41.555" cx="56.467"/>
  <circle style="fill:#FFFFFF;" r="0.408" cy="-39.222" cx="55.467"/>
  <circle style="fill:#FFFFFF;" r="0.408" cy="-44.222" cx="52.634"/>
  <circle style="fill:#FFFFFF;" r="0.408" cy="-41.222" cx="47.967"/>
  <circle style="fill:#FFFFFF;" r="0.408" cy="-44.055" cx="45.134"/>
  <circle style="fill:#FFFFFF;" r="0.408" cy="-44.888" cx="42.134"/>
  <circle style="fill:#FFFFFF;" r="0.408" cy="-47.721" cx="43.634"/>
  <circle style="fill:#FFFFFF;" r="0.408" cy="-48.555" cx="45.3"/>
  <circle style="fill:#FFFFFF;" r="0.408" cy="-40.555" cx="50.634"/>
  <circle style="fill:#FFFFFF;" r="0.408" cy="-42.555" cx="51.8"/>
  <circle style="fill:#FFFFFF;" r="0.408" cy="-38.722" cx="49.467"/>
  <circle style="fill:#FFFFFF;" r="0.408" cy="-38.388" cx="52.634"/>
  <circle style="fill:#FFFFFF;" r="0.408" cy="-36.555" cx="56.134"/>
  <circle style="fill:#FFFFFF;" r="0.408" cy="-34.888" cx="55.3"/>
  <circle style="fill:#FFFFFF;" r="0.408" cy="-35.388" cx="52.8"/>
  <circle style="fill:#FFFFFF;" r="0.408" cy="-33.222" cx="50.8"/>
  <circle style="fill:#FFFFFF;" r="0.408" cy="-32.721" cx="53.3"/>
  <circle style="fill:#FFFFFF;" r="0.408" cy="-32.721" cx="56.3"/>
  <circle style="fill:#FFFFFF;" r="0.408" cy="-34.388" cx="57.134"/>
  <circle style="fill:#FFFFFF;" r="0.408" cy="-11.055" cx="57.134"/>
  <circle style="fill:#FFFFFF;" r="0.408" cy="-10.555" cx="54.134"/>
  <circle style="fill:#FFFFFF;" r="0.408" cy="-11.138" cx="51.634"/>
  <circle style="fill:#FFFFFF;" r="0.408" cy="-13.555" cx="51.634"/>
  <circle style="fill:#FFFFFF;" r="0.408" cy="-12.555" cx="48.8"/>
  <circle style="fill:#FFFFFF;" r="0.408" cy="-11.305" cx="49.717"/>
  <circle style="fill:#FFFFFF;" r="0.408" cy="-8.305" cx="50.55"/>
  <circle style="fill:#FFFFFF;" r="0.408" cy="-6.388" cx="53.634"/>
  <circle style="fill:#FFFFFF;" r="0.408" cy="-8.838" cx="15.934"/>
  <circle style="fill:#FFFFFF;" r="0.408" cy="-14.338" cx="0.767"/>
  <circle style="fill:#FFFFFF;" r="0.408" cy="-27.505" cx="25.1"/>
  <circle style="fill:#FFFFFF;" r="0.408" cy="-26.255" cx="22.35"/>
  <circle style="fill:#FFFFFF;" r="0.408" cy="-9.171" cx="31.184"/>
  <circle style="fill:#FFFFFF;" r="0.408" cy="-29.088" cx="6.517"/>
  <circle style="fill:#FFFFFF;" r="0.408" cy="-38.505" cx="19.85"/>
  <circle style="fill:#FFFFFF;" r="0.408" cy="-55" cx="23.272"/>
  <circle style="fill:#FFFFFF;" r="0.408" cy="-55.838" cx="29.35"/>
  <circle style="fill:#FFFFFF;" r="0.408" cy="-48.671" cx="14.184"/>
  <circle style="fill:#FFFFFF;" r="0.408" cy="-49.963" cx="16.309"/>
  <circle style="fill:#FFFFFF;" r="0.408" cy="-56.588" cx="22.684"/>
  <circle style="fill:#FFFFFF;" r="0.408" cy="-50.672" cx="30.1"/>
  <circle style="fill:#FFFFFF;" r="0.408" cy="-56.588" cx="1.6"/>
  <circle style="fill:#FFFFFF;" r="0.408" cy="-43.255" cx="48.517"/>
  <circle style="fill:#FFFFFF;" r="0.408" cy="-48.338" cx="37.6"/>
  <circle style="fill:#FFFFFF;" r="0.408" cy="-47.505" cx="30.6"/>
  <circle style="fill:#FFFFFF;" r="0.408" cy="-2.713" cx="43.684"/>
  <circle style="fill:#FFFFFF;" r="0.408" cy="-0.463" cx="31.434"/>
  <circle style="fill:#FFFFFF;" r="0.408" cy="-3.338" cx="8.809"/>
  <circle style="fill:#FFFFFF;" r="0.408" cy="-31.588" cx="49.559"/>
  <circle style="fill:#FFFFFF;" r="0.408" cy="-20.838" cx="5.309"/>
  <circle style="fill:#FFFFFF;" r="0.408" cy="-10.963" cx="1.309"/>
  <circle style="fill:#FFFFFF;" r="0.408" cy="-3.963" cx="52.684"/>
  <circle style="fill:#FFFFFF;" r="0.408" cy="-8.838" cx="54.059"/>
  <circle style="fill:#FFFFFF;" r="0.408" cy="-0.963" cx="56.559"/>
  <circle style="fill:#FFFFFF;" r="0.408" cy="-0.432" cx="54.215"/>
  <circle style="fill:#FFFFFF;" r="0.408" cy="-5.472" cx="55.634"/>
  <circle style="fill:#FFFFFF;" r="0.408" cy="-2.805" cx="55.467"/>
  <circle style="fill:#FFFFFF;" r="0.408" cy="-11.972" cx="45.05"/>
  <circle style="fill:#FFFFFF;" r="0.408" cy="-14.638" cx="44.217"/>
  <circle style="fill:#FFFFFF;" r="0.408" cy="-13.472" cx="37.717"/>
  <circle style="fill:#FFFFFF;" r="0.408" cy="-12.472" cx="36.55"/>
  <circle style="fill:#FFFFFF;" r="0.408" cy="-16.471" cx="35.467"/>
  <circle style="fill:#FFFFFF;" r="0.408" cy="-15.305" cx="33.55"/>
  <circle style="fill:#FFFFFF;" r="0.408" cy="-13.638" cx="33.884"/>
  <circle style="fill:#FFFFFF;" r="0.408" cy="-12.472" cx="28.8"/>
  <circle style="fill:#FFFFFF;" r="0.408" cy="-10.388" cx="29.55"/>
  <circle style="fill:#FFFFFF;" r="0.408" cy="-19.055" cx="27.384"/>
  <circle style="fill:#FFFFFF;" r="0.408" cy="-21.638" cx="28.634"/>
  <circle style="fill:#FFFFFF;" r="0.408" cy="-22.888" cx="27.217"/>
  <circle style="fill:#FFFFFF;" r="0.408" cy="-20.472" cx="24.55"/>
  <circle style="fill:#FFFFFF;" r="0.408" cy="-19.305" cx="22.8"/>
  <circle style="fill:#FFFFFF;" r="0.408" cy="-17.138" cx="24.634"/>
  <circle style="fill:#FFFFFF;" r="0.408" cy="-17.138" cx="27.8"/>
  <circle style="fill:#FFFFFF;" r="0.408" cy="-16.222" cx="29.55"/>
  <circle style="fill:#FFFFFF;" r="0.408" cy="-16.722" cx="31.8"/>
  <circle style="fill:#FFFFFF;" r="0.408" cy="-17.888" cx="34.134"/>
  <circle style="fill:#FFFFFF;" r="0.408" cy="-19.138" cx="32.55"/>
  <circle style="fill:#FFFFFF;" r="0.408" cy="-10.638" cx="40.217"/>
  <circle style="fill:#FFFFFF;" r="0.408" cy="-11.305" cx="42.634"/>
  <circle style="fill:#FFFFFF;" r="0.408" cy="-8.555" cx="42.467"/>
  <circle style="fill:#FFFFFF;" r="0.408" cy="-6.388" cx="43.55"/>
  <circle style="fill:#FFFFFF;" r="0.408" cy="-3.305" cx="41.55"/>
  <circle style="fill:#FFFFFF;" r="0.408" cy="-1.388" cx="45.3"/>
  <circle style="fill:#FFFFFF;" r="0.408" cy="-0.722" cx="49.3"/>
  <circle style="fill:#FFFFFF;" r="0.408" cy="-3.805" cx="38.217"/>
  <circle style="fill:#FFFFFF;" r="0.408" cy="-5.305" cx="40.384"/>
  <circle style="fill:#FFFFFF;" r="0.408" cy="-0.476" cx="38.462"/>
  <circle style="fill:#FFFFFF;" r="0.408" cy="-15.138" cx="38.3"/>
  <circle style="fill:#FFFFFF;" r="0.408" cy="-18.055" cx="39.384"/>
  <circle style="fill:#FFFFFF;" r="0.408" cy="-18.18" cx="42.759"/>
  <circle style="fill:#FFFFFF;" r="0.408" cy="-16.055" cx="40.634"/>
  <circle style="fill:#FFFFFF;" r="0.408" cy="-41.805" cx="4.509"/>
  <circle style="fill:#FFFFFF;" r="0.408" cy="-2.472" cx="35.55"/>
  <circle style="fill:#FFFFFF;" r="0.408" cy="-1.555" cx="7.884"/>
  <circle style="fill:#FFFFFF;" r="0.408" cy="-31.555" cx="27.8"/>
  <circle style="fill:#FFFFFF;" r="0.408" cy="-2.055" cx="47.55"/>
  <circle style="fill:#FFFFFF;" r="0.408" cy="-10.472" cx="46.55"/>
  <circle style="fill:#FFFFFF;" r="0.408" cy="-8.971" cx="47.8"/>
  <circle style="fill:#FFFFFF;" r="0.408" cy="-8.388" cx="44.8"/>
  <circle style="fill:#FFFFFF;" r="0.408" cy="-6.222" cx="46.634"/>
  <circle style="fill:#FFFFFF;" r="0.408" cy="-5.055" cx="47.884"/>
  <circle style="fill:#FFFFFF;" r="0.408" cy="-6.555" cx="49.55"/>
  <circle style="fill:#FFFFFF;" r="0.408" cy="-5.555" cx="50.55"/>
  <circle style="fill:#FFFFFF;" r="0.408" cy="-4.222" cx="49.634"/>
  <circle style="fill:#FFFFFF;" r="0.408" cy="-13.43" cx="57.009"/>
  <circle style="fill:#FFFFFF;" r="0.408" cy="-14.222" cx="54.55"/>
  <circle style="fill:#FFFFFF;" r="0.408" cy="-16.055" cx="50.3"/>
  <circle style="fill:#FFFFFF;" r="0.408" cy="-26.138" cx="48.467"/>
  <circle style="fill:#FFFFFF;" r="0.408" cy="-24.555" cx="48.05"/>
  <circle style="fill:#FFFFFF;" r="0.408" cy="-18.888" cx="37.717"/>
  <circle style="fill:#FFFFFF;" r="0.408" cy="-19.55" cx="49.879"/>
  <circle style="fill:#FFFFFF;" r="0.408" cy="-12.805" cx="55.634"/>
  <circle style="fill:#FFFFFF;" r="0.408" cy="-15.305" cx="19.634"/>
  <circle style="fill:#FFFFFF;" r="0.408" cy="-21.222" cx="14.634"/>
  <circle style="fill:#FFFFFF;" r="0.408" cy="-15.638" cx="14.967"/>
  <circle style="fill:#FFFFFF;" r="0.408" cy="-14.555" cx="13.634"/>
  <circle style="fill:#FFFFFF;" r="0.408" cy="-14.555" cx="17.384"/>
  <circle style="fill:#FFFFFF;" r="0.408" cy="-32.638" cx="24.55"/>
  <circle style="fill:#FFFFFF;" r="0.408" cy="-40.638" cx="46.3"/>
  <circle style="fill:#FFFFFF;" r="0.408" cy="-20.055" cx="34.384"/>
  <circle style="fill:#FFFFFF;" r="0.408" cy="-22.222" cx="35.717"/>
  <circle style="fill:#FFFFFF;" r="0.408" cy="-24.388" cx="36.717"/>
  <circle style="fill:#FFFFFF;" r="0.408" cy="-24.138" cx="33.3"/>
  <circle style="fill:#FFFFFF;" r="0.408" cy="-22.138" cx="31.884"/>
  <circle style="fill:#FFFFFF;" r="0.408" cy="-28.222" cx="57.134"/>
  <circle style="fill:#FFFFFF;" r="0.408" cy="-28.555" cx="52.467"/>
  <circle style="fill:#FFFFFF;" r="0.408" cy="-29.555" cx="50.134"/>
  <circle style="fill:#FFFFFF;" r="0.408" cy="-31.884" cx="47.379"/>
  <circle style="fill:#FFFFFF;" r="0.408" cy="-33.222" cx="44.3"/>
  <circle style="fill:#FFFFFF;" r="0.408" cy="-35.472" cx="44.467"/>
  <circle style="fill:#FFFFFF;" r="0.408" cy="-37.305" cx="43.8"/>
  <circle style="fill:#FFFFFF;" r="0.408" cy="-36.222" cx="42.05"/>
  <circle style="fill:#FFFFFF;" r="0.408" cy="-36.888" cx="39.217"/>
  <circle style="fill:#FFFFFF;" r="0.408" cy="-33.971" cx="39.634"/>
  <circle style="fill:#FFFFFF;" r="0.408" cy="-31.972" cx="42.384"/>
  <circle style="fill:#FFFFFF;" r="0.408" cy="-35.305" cx="38.134"/>
  <circle style="fill:#FFFFFF;" r="0.408" cy="-35.555" cx="35.717"/>
  <circle style="fill:#FFFFFF;" r="0.408" cy="-33.971" cx="36.217"/>
  <circle style="fill:#FFFFFF;" r="0.408" cy="-38.555" cx="35.634"/>
  <circle style="fill:#FFFFFF;" r="0.408" cy="-42.555" cx="46.467"/>
  <circle style="fill:#FFFFFF;" r="0.408" cy="-43.388" cx="40.55"/>
  <circle style="fill:#FFFFFF;" r="0.408" cy="-44.138" cx="31.967"/>
  <circle style="fill:#FFFFFF;" r="0.408" cy="-44.305" cx="29.467"/>
  <circle style="fill:#FFFFFF;" r="0.408" cy="-44.722" cx="26.8"/>
  <circle style="fill:#FFFFFF;" r="0.408" cy="-43.722" cx="25.217"/>
  <circle style="fill:#FFFFFF;" r="0.408" cy="-47.138" cx="27.55"/>
  <circle style="fill:#FFFFFF;" r="0.408" cy="-48.638" cx="25.467"/>
  <circle style="fill:#FFFFFF;" r="0.408" cy="-51.222" cx="25.217"/>
  <circle style="fill:#FFFFFF;" r="0.408" cy="-46.388" cx="24.467"/>
  <circle style="fill:#FFFFFF;" r="0.408" cy="-48.384" cx="22.379"/>
  <circle style="fill:#FFFFFF;" r="0.408" cy="-47.638" cx="19.55"/>
  <circle style="fill:#FFFFFF;" r="0.408" cy="-46.722" cx="17.967"/>
  <circle style="fill:#FFFFFF;" r="0.408" cy="-35.722" cx="48.05"/>
  <circle style="fill:#FFFFFF;" r="0.407" cy="-24.638" cx="55.3"/>
  <circle style="fill:#FFFFFF;" r="0.408" cy="-27.222" cx="53.717"/>
  <circle style="fill:#FFFFFF;" r="0.408" cy="-22.388" cx="53.717"/>
  <circle style="fill:#FFFFFF;" r="0.408" cy="-21.722" cx="56.634"/>
  <circle style="fill:#FFFFFF;" r="0.408" cy="-23.867" cx="57.009"/>
  <circle style="fill:#FFFFFF;" r="0.408" cy="-25.388" cx="43.967"/>
  <circle style="fill:#FFFFFF;" r="0.408" cy="-24.305" cx="41.884"/>
  <circle style="fill:#FFFFFF;" r="0.408" cy="-23.888" cx="45.05"/>
  <circle style="fill:#FFFFFF;" r="0.408" cy="-21.471" cx="48.55"/>
  <circle style="fill:#FFFFFF;" r="0.408" cy="-20.722" cx="52.55"/>
  <circle style="fill:#FFFFFF;" r="0.408" cy="-18.555" cx="51.717"/>
  <circle style="fill:#FFFFFF;" r="0.407" cy="-19.388" cx="54.55"/>
  <circle style="fill:#FFFFFF;" r="0.408" cy="-19.222" cx="56.55"/>
  <circle style="fill:#FFFFFF;" r="0.408" cy="-15.472" cx="55.967"/>
  <circle style="fill:#FFFFFF;" r="0.408" cy="-16.305" cx="52.384"/>
  <circle style="fill:#FFFFFF;" r="0.408" cy="-16.388" cx="46.717"/>
  <circle style="fill:#FFFFFF;" r="0.408" cy="-14.638" cx="48.467"/>
  <circle style="fill:#FFFFFF;" r="0.408" cy="-20.055" cx="46.05"/>
  <circle style="fill:#FFFFFF;" r="0.408" cy="-22.472" cx="45.717"/>
  <circle style="fill:#FFFFFF;" r="0.408" cy="-21.388" cx="43.884"/>
  <circle style="fill:#FFFFFF;" r="0.408" cy="-20.221" cx="42.384"/>
  <circle style="fill:#FFFFFF;" r="0.408" cy="-21.638" cx="40.3"/>
  <circle style="fill:#FFFFFF;" r="0.408" cy="-23.138" cx="38.8"/>
  <circle style="fill:#FFFFFF;" r="0.408" cy="-28.722" cx="47.8"/>
  <circle style="fill:#FFFFFF;" r="0.408" cy="-36.388" cx="50.467"/>
  <circle style="fill:#FFFFFF;" r="0.408" cy="-38.388" cx="45.967"/>
  <circle style="fill:#FFFFFF;" r="0.408" cy="-41.222" cx="43.3"/>
  <circle style="fill:#FFFFFF;" r="0.408" cy="-41.722" cx="38.8"/>
  <circle style="fill:#FFFFFF;" r="0.408" cy="-39.222" cx="41.3"/>
  <circle style="fill:#FFFFFF;" r="0.408" cy="-39.722" cx="36.967"/>
  <circle style="fill:#FFFFFF;" r="0.408" cy="-40.888" cx="34.8"/>
  <circle style="fill:#FFFFFF;" r="0.408" cy="-43.555" cx="36.8"/>
  <circle style="fill:#FFFFFF;" r="0.408" cy="-46.555" cx="35.967"/>
  <circle style="fill:#FFFFFF;" r="0.408" cy="-44.888" cx="33.967"/>
  <circle style="fill:#FFFFFF;" r="0.408" cy="-47.388" cx="40.134"/>
  <circle style="fill:#FFFFFF;" r="0.408" cy="-52.888" cx="56.134"/>
  <circle style="fill:#FFFFFF;" r="0.407" cy="-54.388" cx="55.8"/>
  <circle style="fill:#FFFFFF;" r="0.408" cy="-54.388" cx="52.634"/>
  <circle style="fill:#FFFFFF;" r="0.408" cy="-52.555" cx="51.634"/>
  <circle style="fill:#FFFFFF;" r="0.408" cy="-51.388" cx="54.134"/>
  <circle style="fill:#FFFFFF;" r="0.408" cy="-56.055" cx="53.967"/>
  <circle style="fill:#FFFFFF;" r="0.408" cy="-56.722" cx="56.134"/>
  <circle style="fill:#FFFFFF;" r="0.407" cy="-56.888" cx="52.3"/>
  <circle style="fill:#FFFFFF;" r="0.407" cy="-57.185" cx="49.863"/>
  <circle style="fill:#FFFFFF;" r="0.408" cy="-48.888" cx="56.467"/>
  <circle style="fill:#FFFFFF;" r="0.408" cy="-47.888" cx="54.467"/>
  <circle style="fill:#FFFFFF;" r="0.408" cy="-47.388" cx="52.134"/>
  <circle style="fill:#FFFFFF;" r="0.408" cy="-44.388" cx="55.967"/>
  <circle style="fill:#FFFFFF;" r="0.408" cy="-46.305" cx="50.009"/>
  <circle style="fill:#FFFFFF;" r="0.408" cy="-23.43" cx="49.509"/>
  <circle style="fill:#FFFFFF;" r="0.408" cy="-51.722" cx="48.8"/>
  <circle style="fill:#FFFFFF;" r="0.408" cy="-49.888" cx="48.134"/>
  <circle style="fill:#FFFFFF;" r="0.408" cy="-51.222" cx="44.967"/>
  <circle style="fill:#FFFFFF;" r="0.408" cy="-53.388" cx="46.3"/>
  <circle style="fill:#FFFFFF;" r="0.408" cy="-56.388" cx="37.884"/>
  <circle style="fill:#FFFFFF;" r="0.408" cy="-55.638" cx="42.217"/>
  <circle style="fill:#FFFFFF;" r="0.408" cy="-54.055" cx="43.05"/>
  <circle style="fill:#FFFFFF;" r="0.408" cy="-53.722" cx="39.717"/>
  <circle style="fill:#FFFFFF;" r="0.408" cy="-56.671" cx="40.6"/>
  <circle style="fill:#FFFFFF;" r="0.408" cy="-55.305" cx="36.634"/>
  <circle style="fill:#FFFFFF;" r="0.408" cy="-55.221" cx="34.717"/>
  <circle style="fill:#FFFFFF;" r="0.408" cy="-53.472" cx="35.384"/>
  <circle style="fill:#FFFFFF;" r="0.408" cy="-56.305" cx="32.217"/>
  <path style="fill:#FFFFFF;" d="M35.657-57.601c-0.002,0.224-0.185,0.404-0.409,0.404c-0.224,0-0.406-0.18-0.408-0.404"/>
  <path style="fill:#FFFFFF;" d="M34.841,0c0.011-0.215,0.189-0.388,0.407-0.388c0.218,0,0.396,0.172,0.408,0.388"/>
  <circle style="fill:#FFFFFF;" r="0.408" cy="-57.055" cx="5.884"/>
  <circle style="fill:#FFFFFF;" r="0.408" cy="-56.222" cx="3.55"/>
  <circle style="fill:#FFFFFF;" r="0.408" cy="-54.055" cx="1.55"/>
  <circle style="fill:#FFFFFF;" r="0.408" cy="-54.722" cx="6.217"/>
  <circle style="fill:#FFFFFF;" r="0.408" cy="-56.722" cx="8.217"/>
  <circle style="fill:#FFFFFF;" r="0.408" cy="-57.055" cx="11.467"/>
  <circle style="fill:#FFFFFF;" r="0.408" cy="-57.18" cx="14.821"/>
  <circle style="fill:#FFFFFF;" r="0.408" cy="-56.638" cx="19.467"/>
  <circle style="fill:#FFFFFF;" r="0.408" cy="-53.638" cx="24.217"/>
  <circle style="fill:#FFFFFF;" r="0.408" cy="-54.388" cx="20.55"/>
  <circle style="fill:#FFFFFF;" r="0.408" cy="-54.722" cx="16.717"/>
  <circle style="fill:#FFFFFF;" r="0.408" cy="-54.388" cx="13.634"/>
  <circle style="fill:#FFFFFF;" r="0.408" cy="-54.138" cx="10.884"/>
  <circle style="fill:#FFFFFF;" r="0.408" cy="-52.721" cx="7.55"/>
  <circle style="fill:#FFFFFF;" r="0.408" cy="-52.721" cx="4.3"/>
  <circle style="fill:#FFFFFF;" r="0.408" cy="-50.638" cx="6.634"/>
  <circle style="fill:#FFFFFF;" r="0.408" cy="-50.388" cx="3.634"/>
  <circle style="fill:#FFFFFF;" r="0.408" cy="-48.722" cx="8.05"/>
  <circle style="fill:#FFFFFF;" r="0.408" cy="-49.722" cx="10.3"/>
  <circle style="fill:#FFFFFF;" r="0.408" cy="-50.638" cx="12.05"/>
  <circle style="fill:#FFFFFF;" r="0.408" cy="-47.721" cx="11.634"/>
  <circle style="fill:#FFFFFF;" r="0.408" cy="-46.305" cx="9.05"/>
  <circle style="fill:#FFFFFF;" r="0.408" cy="-45.388" cx="12.05"/>
  <circle style="fill:#FFFFFF;" r="0.408" cy="-46.138" cx="15.467"/>
  <circle style="fill:#FFFFFF;" r="0.408" cy="-43.555" cx="10.55"/>
  <circle style="fill:#FFFFFF;" r="0.408" cy="-42.805" cx="12.717"/>
  <circle style="fill:#FFFFFF;" r="0.408" cy="-44.805" cx="7.05"/>
  <circle style="fill:#FFFFFF;" r="0.408" cy="-46.555" cx="6.467"/>
  <circle style="fill:#FFFFFF;" r="0.408" cy="-46.222" cx="3.134"/>
  <circle style="fill:#FFFFFF;" r="0.408" cy="-45.388" cx="0.634"/>
  <circle style="fill:#FFFFFF;" r="0.408" cy="-44.305" cx="1.884"/>
  <circle style="fill:#FFFFFF;" r="0.408" cy="-44.222" cx="4.55"/>
  <circle style="fill:#FFFFFF;" r="0.408" cy="-43.222" cx="5.634"/>
  <circle style="fill:#FFFFFF;" r="0.408" cy="-40.472" cx="6.05"/>
  <circle style="fill:#FFFFFF;" r="0.408" cy="-39.722" cx="3.217"/>
  <circle style="fill:#FFFFFF;" r="0.408" cy="-37.643" cx="0.638"/>
  <circle style="fill:#FFFFFF;" r="0.408" cy="-38.222" cx="4.634"/>
  <circle style="fill:#FFFFFF;" r="0.408" cy="-36.222" cx="3.634"/>
  <circle style="fill:#FFFFFF;" r="0.408" cy="-34.305" cx="3.967"/>
  <circle style="fill:#FFFFFF;" r="0.408" cy="-34.305" cx="7.384"/>
  <circle style="fill:#FFFFFF;" r="0.408" cy="-38.388" cx="8.05"/>
  <circle style="fill:#FFFFFF;" r="0.408" cy="-37.721" cx="10.217"/>
  <circle style="fill:#FFFFFF;" r="0.408" cy="-40.388" cx="9.884"/>
  <circle style="fill:#FFFFFF;" r="0.408" cy="-40.972" cx="12.217"/>
  <circle style="fill:#FFFFFF;" r="0.408" cy="-38.472" cx="12.3"/>
  <circle style="fill:#FFFFFF;" r="0.408" cy="-36.805" cx="13.217"/>
  <circle style="fill:#FFFFFF;" r="0.408" cy="-35.305" cx="11.717"/>
  <circle style="fill:#FFFFFF;" r="0.408" cy="-34.138" cx="14.134"/>
  <circle style="fill:#FFFFFF;" r="0.408" cy="-34.305" cx="16.55"/>
  <circle style="fill:#FFFFFF;" r="0.408" cy="-37.222" cx="15.884"/>
  <circle style="fill:#FFFFFF;" r="0.408" cy="-44.388" cx="14.55"/>
  <circle style="fill:#FFFFFF;" r="0.408" cy="-31.388" cx="6.884"/>
  <circle style="fill:#FFFFFF;" r="0.408" cy="-33.388" cx="5.634"/>
  <circle style="fill:#FFFFFF;" r="0.408" cy="-32.388" cx="9.8"/>
  <circle style="fill:#FFFFFF;" r="0.408" cy="-30.305" cx="10.884"/>
  <circle style="fill:#FFFFFF;" r="0.408" cy="-29.388" cx="13.05"/>
  <circle style="fill:#FFFFFF;" r="0.408" cy="-30.305" cx="15.134"/>
  <circle style="fill:#FFFFFF;" r="0.408" cy="-32.305" cx="13.384"/>
  <circle style="fill:#FFFFFF;" r="0.408" cy="-29.805" cx="16.967"/>
  <circle style="fill:#FFFFFF;" r="0.408" cy="-34.555" cx="18.467"/>
  <circle style="fill:#FFFFFF;" r="0.408" cy="-37.138" cx="20.8"/>
  <circle style="fill:#FFFFFF;" r="0.408" cy="-34.722" cx="20.717"/>
  <circle style="fill:#FFFFFF;" r="0.408" cy="-34.805" cx="23.55"/>
  <circle style="fill:#FFFFFF;" r="0.408" cy="-36.638" cx="22.717"/>
  <circle style="fill:#FFFFFF;" r="0.408" cy="-33.638" cx="26.217"/>
  <circle style="fill:#FFFFFF;" r="0.408" cy="-34.972" cx="27.884"/>
  <circle style="fill:#FFFFFF;" r="0.408" cy="-35.838" cx="31.184"/>
  <circle style="fill:#FFFFFF;" r="0.408" cy="-42.338" cx="33.35"/>
  <circle style="fill:#FFFFFF;" r="0.408" cy="-41.588" cx="24.6"/>
  <circle style="fill:#FFFFFF;" r="0.408" cy="-30.672" cx="20.017"/>
  <circle style="fill:#FFFFFF;" r="0.408" cy="-32.338" cx="18.684"/>
  <circle style="fill:#FFFFFF;" r="0.408" cy="-41.005" cx="41.017"/>
  <circle style="fill:#FFFFFF;" r="0.408" cy="-41.255" cx="37.434"/>
  <circle style="fill:#FFFFFF;" r="0.408" cy="-43.755" cx="20.1"/>
  <circle style="fill:#FFFFFF;" r="0.408" cy="-36.671" cx="6.6"/>
  <circle style="fill:#FFFFFF;" r="0.408" cy="-35.255" cx="0.85"/>
  <circle style="fill:#FFFFFF;" r="0.408" cy="-21.171" cx="37.6"/>
  <circle style="fill:#FFFFFF;" r="0.408" cy="-39.222" cx="27.967"/>
  <circle style="fill:#FFFFFF;" r="0.408" cy="-36.888" cx="27.3"/>
  <circle style="fill:#FFFFFF;" r="0.408" cy="-37.805" cx="30.134"/>
  <circle style="fill:#FFFFFF;" r="0.408" cy="-33.805" cx="29.634"/>
  <circle style="fill:#FFFFFF;" r="0.408" cy="-33.888" cx="32.134"/>
  <circle style="fill:#FFFFFF;" r="0.408" cy="-31.138" cx="30.634"/>
  <circle style="fill:#FFFFFF;" r="0.408" cy="-31.222" cx="35.8"/>
  <circle style="fill:#FFFFFF;" r="0.408" cy="-32.305" cx="34.217"/>
  <circle style="fill:#FFFFFF;" r="0.408" cy="-22.305" cx="18.384"/>
  <circle style="fill:#FFFFFF;" r="0.408" cy="-20.722" cx="20.05"/>
  <circle style="fill:#FFFFFF;" r="0.408" cy="-20.305" cx="17.55"/>
  <circle style="fill:#FFFFFF;" r="0.408" cy="-23.638" cx="15.384"/>
  <circle style="fill:#FFFFFF;" r="0.408" cy="-17.555" cx="18.55"/>
  <circle style="fill:#FFFFFF;" r="0.408" cy="-17.972" cx="21.05"/>
  <circle style="fill:#FFFFFF;" r="0.408" cy="-16.805" cx="21.884"/>
  <circle style="fill:#FFFFFF;" r="0.408" cy="-14.388" cx="22.634"/>
  <circle style="fill:#FFFFFF;" r="0.408" cy="-15.138" cx="25.05"/>
  <circle style="fill:#FFFFFF;" r="0.408" cy="-13.222" cx="25.967"/>
  <circle style="fill:#FFFFFF;" r="0.408" cy="-12.388" cx="24.384"/>
  <circle style="fill:#FFFFFF;" r="0.408" cy="-13.222" cx="16.55"/>
  <circle style="fill:#FFFFFF;" r="0.408" cy="-8.888" cx="19.967"/>
  <circle style="fill:#FFFFFF;" r="0.408" cy="-7.138" cx="18.55"/>
  <circle style="fill:#FFFFFF;" r="0.408" cy="-6.305" cx="21.634"/>
  <circle style="fill:#FFFFFF;" r="0.408" cy="-8.222" cx="23.634"/>
  <circle style="fill:#FFFFFF;" r="0.408" cy="-7.555" cx="27.467"/>
  <circle style="fill:#FFFFFF;" r="0.408" cy="-5.388" cx="26.134"/>
  <circle style="fill:#FFFFFF;" r="0.408" cy="-4.305" cx="28.384"/>
  <circle style="fill:#FFFFFF;" r="0.408" cy="-3.305" cx="31.717"/>
  <circle style="fill:#FFFFFF;" r="0.408" cy="-1.972" cx="32.8"/>
  <circle style="fill:#FFFFFF;" r="0.408" cy="-1.388" cx="29.467"/>
  <circle style="fill:#FFFFFF;" r="0.408" cy="-7.138" cx="32.384"/>
  <circle style="fill:#FFFFFF;" r="0.408" cy="-8.388" cx="35.8"/>
  <circle style="fill:#FFFFFF;" r="0.408" cy="-6.555" cx="38.717"/>
  <circle style="fill:#FFFFFF;" r="0.408" cy="-5.388" cx="36.717"/>
  <circle style="fill:#FFFFFF;" r="0.408" cy="-7.222" cx="34.467"/>
  <circle style="fill:#FFFFFF;" r="0.408" cy="-4.222" cx="34.384"/>
  <circle style="fill:#FFFFFF;" r="0.408" cy="-6.388" cx="15.884"/>
  <circle style="fill:#FFFFFF;" r="0.408" cy="-6.305" cx="14.134"/>
  <circle style="fill:#FFFFFF;" r="0.408" cy="-9.055" cx="9.634"/>
  <circle style="fill:#FFFFFF;" r="0.408" cy="-10.555" cx="6.55"/>
  <circle style="fill:#FFFFFF;" r="0.408" cy="-12.721" cx="4.884"/>
  <circle style="fill:#FFFFFF;" r="0.408" cy="-15.221" cx="3.634"/>
  <circle style="fill:#FFFFFF;" r="0.408" cy="-18.472" cx="3.217"/>
  <circle style="fill:#FFFFFF;" r="0.408" cy="-23.472" cx="6.467"/>
  <circle style="fill:#FFFFFF;" r="0.408" cy="-12.972" cx="2.05"/>
  <circle style="fill:#FFFFFF;" r="0.408" cy="-8.888" cx="1.3"/>
  <circle style="fill:#FFFFFF;" r="0.408" cy="-10.305" cx="3.467"/>
  <circle style="fill:#FFFFFF;" r="0.408" cy="-9.388" cx="4.634"/>
  <circle style="fill:#FFFFFF;" r="0.408" cy="-7.555" cx="6.467"/>
  <circle style="fill:#FFFFFF;" r="0.408" cy="-6.638" cx="3.134"/>
  <circle style="fill:#FFFFFF;" r="0.408" cy="-5.722" cx="4.967"/>
  <circle style="fill:#FFFFFF;" r="0.408" cy="-4.555" cx="3.717"/>
  <circle style="fill:#FFFFFF;" r="0.408" cy="-2.472" cx="1.467"/>
  <circle style="fill:#FFFFFF;" r="0.408" cy="-0.555" cx="3.55"/>
  <circle style="fill:#FFFFFF;" r="0.408" cy="-2.222" cx="9.634"/>
  <circle style="fill:#FFFFFF;" r="0.408" cy="-5.388" cx="9.634"/>
  <circle style="fill:#FFFFFF;" r="0.408" cy="-2.138" cx="6.3"/>
  <circle style="fill:#FFFFFF;" r="0.408" cy="-1.222" cx="16.134"/>
  <circle style="fill:#FFFFFF;" r="0.408" cy="-1.388" cx="12.467"/>
  <circle style="fill:#FFFFFF;" r="0.408" cy="-4.638" cx="11.384"/>
  <circle style="fill:#FFFFFF;" r="0.408" cy="-4.222" cx="15.55"/>
  <circle style="fill:#FFFFFF;" r="0.408" cy="-1.638" cx="19.217"/>
  <circle style="fill:#FFFFFF;" r="0.408" cy="-18.055" cx="15.8"/>
  <circle style="fill:#FFFFFF;" r="0.408" cy="-2.222" cx="24.55"/>
  <circle style="fill:#FFFFFF;" r="0.408" cy="-0.559" cx="22.884"/>
  <circle style="fill:#FFFFFF;" r="0.408" cy="-3.805" cx="20.384"/>
  <circle style="fill:#FFFFFF;" r="0.408" cy="-5.388" cx="19.467"/>
  <circle style="fill:#FFFFFF;" r="0.408" cy="-3.722" cx="23.967"/>
  <circle style="fill:#FFFFFF;" r="0.408" cy="-6.471" cx="24.3"/>
  <circle style="fill:#FFFFFF;" r="0.408" cy="-2.305" cx="26.55"/>
  <circle style="fill:#FFFFFF;" r="0.408" cy="-0.472" cx="27.717"/>
  <circle style="fill:#FFFFFF;" r="0.408" cy="-8.305" cx="13.55"/>
  <circle style="fill:#FFFFFF;" r="0.408" cy="-11.3" cx="14.462"/>
  <circle style="fill:#FFFFFF;" r="0.408" cy="-5.171" cx="1.767"/>
  <circle style="fill:#FFFFFF;" r="0.408" cy="-12.671" cx="10.934"/>
  <circle style="fill:#FFFFFF;" r="0.408" cy="-24.755" cx="23.85"/>
  <circle style="fill:#FFFFFF;" r="0.408" cy="-24.255" cx="14.017"/>
  <circle style="fill:#FFFFFF;" r="0.408" cy="-30.171" cx="56.184"/>
  <circle style="fill:#FFFFFF;" r="0.408" cy="-31.088" cx="51.851"/>
  <circle style="fill:#FFFFFF;" r="0.408" cy="-14.255" cx="30.684"/>
  <circle style="fill:#FFFFFF;" r="0.408" cy="-11.305" cx="11.55"/>
  <circle style="fill:#FFFFFF;" r="0.408" cy="-16.471" cx="11.467"/>
  <circle style="fill:#FFFFFF;" r="0.408" cy="-20.305" cx="10.717"/>
  <circle style="fill:#FFFFFF;" r="0.408" cy="-18.388" cx="9.634"/>
  <circle style="fill:#FFFFFF;" r="0.408" cy="-16.388" cx="8.8"/>
  <circle style="fill:#FFFFFF;" r="0.408" cy="-13.472" cx="9.55"/>
  <circle style="fill:#FFFFFF;" r="0.408" cy="-13.222" cx="6.8"/>
  <circle style="fill:#FFFFFF;" r="0.408" cy="-16.388" cx="6.3"/>
  <circle style="fill:#FFFFFF;" r="0.408" cy="-19.138" cx="5.967"/>
  <circle style="fill:#FFFFFF;" r="0.408" cy="-19.722" cx="7.8"/>
  <circle style="fill:#FFFFFF;" r="0.408" cy="-22.055" cx="7.634"/>
  <circle style="fill:#FFFFFF;" r="0.408" cy="-10.888" cx="26.55"/>
  <circle style="fill:#FFFFFF;" r="0.408" cy="-9.222" cx="32.634"/>
  <circle style="fill:#FFFFFF;" r="0.408" cy="-10.472" cx="34.55"/>
  <circle style="fill:#FFFFFF;" r="0.408" cy="-9.555" cx="38.467"/>
  <circle style="fill:#FFFFFF;" r="0.408" cy="-12.222" cx="38.634"/>
  <circle style="fill:#FFFFFF;" r="0.408" cy="-28.638" cx="29.55"/>
  <circle style="fill:#FFFFFF;" r="0.408" cy="-27.472" cx="27.8"/>
  <circle style="fill:#FFFFFF;" r="0.408" cy="-28.472" cx="23.634"/>
  <circle style="fill:#FFFFFF;" r="0.408" cy="-30.722" cx="23.134"/>
  <circle style="fill:#FFFFFF;" r="0.408" cy="-29.472" cx="38.3"/>
  <circle style="fill:#FFFFFF;" r="0.408" cy="-29.472" cx="41.217"/>
  <circle style="fill:#FFFFFF;" r="0.408" cy="-27.638" cx="42.467"/>
  <circle style="fill:#FFFFFF;" r="0.408" cy="-27.555" cx="37.384"/>
  <circle style="fill:#FFFFFF;" r="0.408" cy="-27.388" cx="32.467"/>
  <circle style="fill:#FFFFFF;" r="0.408" cy="-26.055" cx="31.134"/>
  <circle style="fill:#FFFFFF;" r="0.408" cy="-25.388" cx="34.634"/>
  <circle style="fill:#FFFFFF;" r="0.408" cy="-23.888" cx="30.55"/>
  <circle style="fill:#FFFFFF;" r="0.408" cy="-24.472" cx="27.467"/>
  <circle style="fill:#FFFFFF;" r="0.408" cy="-26.222" cx="25.134"/>
  <circle style="fill:#FFFFFF;" r="0.408" cy="-26.305" cx="20.717"/>
  <circle style="fill:#FFFFFF;" r="0.408" cy="-22.472" cx="21.967"/>
  <circle style="fill:#FFFFFF;" r="0.408" cy="-24.472" cx="18.717"/>
  <circle style="fill:#FFFFFF;" r="0.408" cy="-27.222" cx="17.3"/>
  <circle style="fill:#FFFFFF;" r="0.408" cy="-27.638" cx="15.05"/>
  <circle style="fill:#FFFFFF;" r="0.408" cy="-26.138" cx="14.384"/>
  <circle style="fill:#FFFFFF;" r="0.408" cy="-27.638" cx="10.634"/>
  <circle style="fill:#FFFFFF;" r="0.408" cy="-29.722" cx="8.384"/>
  <circle style="fill:#FFFFFF;" r="0.408" cy="-27.888" cx="6.634"/>
  <circle style="fill:#FFFFFF;" r="0.408" cy="-27.388" cx="8.634"/>
  <circle style="fill:#FFFFFF;" r="0.408" cy="-24.888" cx="9.634"/>
  <circle style="fill:#FFFFFF;" r="0.408" cy="-25.555" cx="12.05"/>
  <circle style="fill:#FFFFFF;" r="0.408" cy="-29.476" cx="0.638"/>
  <circle style="fill:#FFFFFF;" r="0.408" cy="-28.305" cx="1.8"/>
  <circle style="fill:#FFFFFF;" r="0.408" cy="-31.638" cx="3.634"/>
  <circle style="fill:#FFFFFF;" r="0.408" cy="-33.555" cx="1.967"/>
  <circle style="fill:#FFFFFF;" r="0.408" cy="-18.388" cx="0.55"/>
  <circle style="fill:#FFFFFF;" r="0.408" cy="-30.055" cx="4.55"/>
  <circle style="fill:#FFFFFF;" r="0.408" cy="-35.722" cx="8.467"/>
  <circle style="fill:#FFFFFF;" r="0.408" cy="-31.722" cx="16.967"/>
  <circle style="fill:#FFFFFF;" r="0.408" cy="-54.722" cx="44.967"/>
  <circle style="fill:#FFFFFF;" r="0.408" cy="-29.722" cx="31.8"/>
  <circle style="fill:#FFFFFF;" r="0.408" cy="-7.555" cx="10.3"/>
  <circle style="fill:#FFFFFF;" r="0.408" cy="-4.055" cx="45.967"/>
  <circle style="fill:#FFFFFF;" r="0.408" cy="-22.305" cx="11.8"/>
  <circle style="fill:#FFFFFF;" r="0.408" cy="-25.722" cx="5.717"/>
  <circle style="fill:#FFFFFF;" r="0.408" cy="-27.305" cx="4.467"/>
  <circle style="fill:#FFFFFF;" r="0.408" cy="-24.388" cx="4.55"/>
  <circle style="fill:#FFFFFF;" r="0.408" cy="-24.472" cx="1.717"/>
  <circle style="fill:#FFFFFF;" r="0.408" cy="-22.138" cx="1.3"/>
  <circle style="fill:#FFFFFF;" r="0.408" cy="-38.305" cx="23.384"/>
  <circle style="fill:#FFFFFF;" r="0.408" cy="-39.555" cx="25.55"/>
  <circle style="fill:#FFFFFF;" r="0.408" cy="-41.388" cx="1.55"/>
  <circle style="fill:#FFFFFF;" r="0.408" cy="-41.555" cx="16.3"/>
  <circle style="fill:#FFFFFF;" r="0.408" cy="-42.305" cx="21.55"/>
  <circle style="fill:#FFFFFF;" r="0.408" cy="-43.722" cx="23.134"/>
  <circle style="fill:#FFFFFF;" r="0.408" cy="-41.305" cx="26.55"/>
  <circle style="fill:#FFFFFF;" r="0.408" cy="-41.638" cx="30.05"/>
  <circle style="fill:#FFFFFF;" r="0.408" cy="-40.472" cx="21.467"/>
  <circle style="fill:#FFFFFF;" r="0.408" cy="-41.555" cx="18.634"/>
  <circle style="fill:#FFFFFF;" r="0.408" cy="-40.305" cx="17.55"/>
  <circle style="fill:#FFFFFF;" r="0.408" cy="-39.305" cx="14.467"/>
  <circle style="fill:#FFFFFF;" r="0.408" cy="-52.388" cx="16.634"/>
  <circle style="fill:#FFFFFF;" r="0.408" cy="-52.305" cx="18.8"/>
  <circle style="fill:#FFFFFF;" r="0.408" cy="-50.555" cx="19.55"/>
  <circle style="fill:#FFFFFF;" r="0.408" cy="-48.638" cx="17.634"/>
  <circle style="fill:#FFFFFF;" r="0.408" cy="-56.305" cx="24.467"/>
  <circle style="fill:#FFFFFF;" r="0.408" cy="-53.388" cx="27.634"/>
  <circle style="fill:#FFFFFF;" r="0.408" cy="-52.972" cx="30.05"/>
  <circle style="fill:#FFFFFF;" r="0.408" cy="-53.722" cx="31.634"/>
  <circle style="fill:#FFFFFF;" r="0.408" cy="-51.805" cx="32.717"/>
  <circle style="fill:#FFFFFF;" r="0.408" cy="-49.388" cx="31.55"/>
  <circle style="fill:#FFFFFF;" r="0.408" cy="-49.472" cx="34.717"/>
  <circle style="fill:#FFFFFF;" r="0.408" cy="-47.388" cx="33.634"/>
  <circle style="fill:#FFFFFF;" r="0.408" cy="-45.388" cx="31.384"/>
  <circle style="fill:#FFFFFF;" r="0.408" cy="-48.222" cx="28.717"/>
  <circle style="fill:#FFFFFF;" r="0.408" cy="-51.722" cx="40.3"/>
  <circle style="fill:#FFFFFF;" r="0.408" cy="-49.222" cx="41.8"/>
  <circle style="fill:#FFFFFF;" r="0.408" cy="-53.971" cx="47.967"/>
  <circle style="fill:#FFFFFF;" r="0.408" cy="-46.18" cx="57.134"/>
  <circle style="fill:#FFFFFF;" r="0.408" cy="-52.305" cx="37.967"/>
  <circle style="fill:#FFFFFF;" r="0.408" cy="-51.638" cx="35.8"/>
 </g>
</svg>
