<?xml version="1.0"?>
<!-- Converted with SVG Converter - Version 0.9.5 (Compiled Fri Feb 21 09:53:38 2020) - Copyright (C) 2011 Nokia -->
<svg xmlns="http://www.w3.org/2000/svg" xmlns:xlink="http://www.w3.org/1999/xlink" x="0px" y="0px" width="57.601" baseProfile="tiny" viewBox="0 -57.601 57.601 57.601" version="1.1" xml:space="preserve" height="57.601">
 <g>
  <rect style="fill:none;" y="-57.601" width="57.601" height="57.601"/>
  <rect y="-57.601" width="57.601" height="57.601"/>
  <circle cy="-44.225" r="0.777" style="fill:#FFFFFF;" cx="49.634"/>
  <circle cy="-55.433" r="0.777" style="fill:#FFFFFF;" cx="48.884"/>
  <circle cy="-51.224" r="0.777" style="fill:#FFFFFF;" cx="42.467"/>
  <circle cy="-51.308" r="0.777" style="fill:#FFFFFF;" cx="28.467"/>
  <circle cy="-51.467" r="0.777" style="fill:#FFFFFF;" cx="22.459"/>
  <circle cy="-50.558" r="0.777" style="fill:#FFFFFF;" cx="14.384"/>
  <circle cy="-52.224" r="0.777" style="fill:#FFFFFF;" cx="10.05"/>
  <circle cy="-48.391" r="0.777" style="fill:#FFFFFF;" cx="4.634"/>
  <circle cy="-49.475" r="0.778" style="fill:#FFFFFF;" cx="1.55"/>
  <path d="M0-50.621c0.427-0.003,0.773-0.35,0.773-0.778c0-0.428-0.346-0.775-0.773-0.778" style="fill:#FFFFFF;"/>
  <path d="M57.601-52.176c-0.004,0-0.008,0-0.012,0c-0.43,0-0.777,0.349-0.777,0.778s0.348,0.778,0.777,0.778    c0.004,0,0.008,0,0.012,0" style="fill:#FFFFFF;"/>
  <circle cy="-42.558" r="0.777" style="fill:#FFFFFF;" cx="8.634"/>
  <circle cy="-43.884" r="0.777" style="fill:#FFFFFF;" cx="16.709"/>
  <circle cy="-44.967" r="0.777" style="fill:#FFFFFF;" cx="21.292"/>
  <circle cy="-27.467" r="0.777" style="fill:#FFFFFF;" cx="50.042"/>
  <circle cy="-49.55" r="0.777" style="fill:#FFFFFF;" cx="38.376"/>
  <circle cy="-56.391" r="0.777" style="fill:#FFFFFF;" cx="27.8"/>
  <circle cy="-37.891" r="0.777" style="fill:#FFFFFF;" cx="18.467"/>
  <circle cy="-30.55" r="0.777" style="fill:#FFFFFF;" cx="25.876"/>
  <circle cy="-29.467" r="0.777" style="fill:#FFFFFF;" cx="34.209"/>
  <circle cy="-19.3" r="0.777" style="fill:#FFFFFF;" cx="30.292"/>
  <circle cy="-26.308" r="0.777" style="fill:#FFFFFF;" cx="56.8"/>
  <circle cy="-17.55" r="0.777" style="fill:#FFFFFF;" cx="48.626"/>
  <circle cy="-32.634" r="0.777" style="fill:#FFFFFF;" cx="0.808"/>
  <circle cy="-28.384" r="0.777" style="fill:#FFFFFF;" cx="19.725"/>
  <circle cy="-23.3" r="0.777" style="fill:#FFFFFF;" cx="24.891"/>
  <circle cy="-18.475" r="0.777" style="fill:#FFFFFF;" cx="12.384"/>
  <circle cy="-13.058" r="0.777" style="fill:#FFFFFF;" cx="31.717"/>
  <circle cy="-14.391" r="0.777" style="fill:#FFFFFF;" cx="41.3"/>
  <circle cy="-8.474" r="0.777" style="fill:#FFFFFF;" cx="56.634"/>
  <circle cy="-2.391" r="0.777" style="fill:#FFFFFF;" cx="52.384"/>
  <circle cy="-0.808" r="0.777" style="fill:#FFFFFF;" cx="41.55"/>
  <path d="M45.494,0c0.019-0.413,0.358-0.741,0.775-0.741c0.417,0,0.756,0.328,0.775,0.741" style="fill:#FFFFFF;"/>
  <path d="M47.045-57.601c-0.011,0.419-0.354,0.757-0.776,0.757c-0.423,0-0.766-0.338-0.776-0.757" style="fill:#FFFFFF;"/>
  <circle cy="-3.391" r="0.777" style="fill:#FFFFFF;" cx="13.55"/>
  <circle cy="-3.891" r="0.777" style="fill:#FFFFFF;" cx="6.55"/>
  <circle cy="-16.475" r="0.777" style="fill:#FFFFFF;" cx="1.3"/>
  <circle cy="-26.05" r="0.777" style="fill:#FFFFFF;" cx="39.641"/>
  <circle cy="-32.467" r="0.777" style="fill:#FFFFFF;" cx="20.975"/>
  <circle cy="-21.55" r="0.777" style="fill:#FFFFFF;" cx="3.558"/>
  <circle cy="-46.224" r="0.777" style="fill:#FFFFFF;" cx="45.967"/>
  <circle cy="-40.225" r="0.777" style="fill:#FFFFFF;" cx="31.634"/>
  <circle cy="-37.558" r="0.777" style="fill:#FFFFFF;" cx="33.634"/>
  <circle cy="-32.391" r="0.777" style="fill:#FFFFFF;" cx="38.467"/>
  <circle cy="-30.058" r="0.777" style="fill:#FFFFFF;" cx="44.634"/>
  <circle cy="-26.391" r="0.777" style="fill:#FFFFFF;" cx="46.634"/>
  <circle cy="-24.057" r="0.777" style="fill:#FFFFFF;" cx="51.467"/>
  <circle cy="-17.058" r="0.777" style="fill:#FFFFFF;" cx="44.634"/>
  <circle cy="-30.391" r="0.777" style="fill:#FFFFFF;" cx="54.634"/>
  <circle cy="-47.391" r="0.777" style="fill:#FFFFFF;" cx="48.8"/>
  <circle cy="-45.225" r="0.777" style="fill:#FFFFFF;" cx="39.134"/>
  <circle cy="-50.391" r="0.777" style="fill:#FFFFFF;" cx="51.467"/>
  <circle cy="-33.891" r="0.777" style="fill:#FFFFFF;" cx="47.634"/>
  <circle cy="-10.558" r="0.777" style="fill:#FFFFFF;" cx="22.217"/>
  <circle cy="-11.683" r="0.777" style="fill:#FFFFFF;" cx="19.321"/>
  <circle cy="-2.475" r="0.777" style="fill:#FFFFFF;" cx="22.384"/>
  <circle cy="-10.141" r="0.777" style="fill:#FFFFFF;" cx="16.634"/>
  <circle cy="-5.391" r="0.777" style="fill:#FFFFFF;" cx="29.8"/>
  <circle cy="-41.722" r="0.408" style="fill:#FFFFFF;" cx="54.134"/>
  <circle cy="-41.555" r="0.408" style="fill:#FFFFFF;" cx="56.467"/>
  <circle cy="-39.222" r="0.408" style="fill:#FFFFFF;" cx="55.467"/>
  <circle cy="-44.222" r="0.408" style="fill:#FFFFFF;" cx="52.634"/>
  <circle cy="-41.222" r="0.408" style="fill:#FFFFFF;" cx="47.967"/>
  <circle cy="-44.055" r="0.408" style="fill:#FFFFFF;" cx="45.134"/>
  <circle cy="-44.888" r="0.408" style="fill:#FFFFFF;" cx="42.134"/>
  <circle cy="-47.721" r="0.408" style="fill:#FFFFFF;" cx="43.634"/>
  <circle cy="-48.555" r="0.408" style="fill:#FFFFFF;" cx="45.3"/>
  <circle cy="-40.555" r="0.408" style="fill:#FFFFFF;" cx="50.634"/>
  <circle cy="-42.555" r="0.408" style="fill:#FFFFFF;" cx="51.8"/>
  <circle cy="-38.722" r="0.408" style="fill:#FFFFFF;" cx="49.467"/>
  <circle cy="-38.388" r="0.408" style="fill:#FFFFFF;" cx="52.634"/>
  <circle cy="-36.555" r="0.408" style="fill:#FFFFFF;" cx="56.134"/>
  <circle cy="-34.888" r="0.408" style="fill:#FFFFFF;" cx="55.3"/>
  <circle cy="-35.388" r="0.408" style="fill:#FFFFFF;" cx="52.8"/>
  <circle cy="-33.222" r="0.408" style="fill:#FFFFFF;" cx="50.8"/>
  <circle cy="-32.721" r="0.408" style="fill:#FFFFFF;" cx="53.3"/>
  <circle cy="-32.721" r="0.408" style="fill:#FFFFFF;" cx="56.3"/>
  <circle cy="-34.388" r="0.408" style="fill:#FFFFFF;" cx="57.134"/>
  <circle cy="-11.055" r="0.408" style="fill:#FFFFFF;" cx="57.134"/>
  <circle cy="-10.555" r="0.408" style="fill:#FFFFFF;" cx="54.134"/>
  <circle cy="-11.138" r="0.408" style="fill:#FFFFFF;" cx="51.634"/>
  <circle cy="-13.555" r="0.408" style="fill:#FFFFFF;" cx="51.634"/>
  <circle cy="-12.555" r="0.408" style="fill:#FFFFFF;" cx="48.8"/>
  <circle cy="-11.305" r="0.408" style="fill:#FFFFFF;" cx="49.717"/>
  <circle cy="-8.305" r="0.408" style="fill:#FFFFFF;" cx="50.55"/>
  <circle cy="-6.388" r="0.408" style="fill:#FFFFFF;" cx="53.634"/>
  <circle cy="-8.838" r="0.408" style="fill:#FFFFFF;" cx="15.934"/>
  <circle cy="-14.338" r="0.408" style="fill:#FFFFFF;" cx="0.767"/>
  <circle cy="-27.505" r="0.408" style="fill:#FFFFFF;" cx="25.1"/>
  <circle cy="-26.255" r="0.408" style="fill:#FFFFFF;" cx="22.35"/>
  <circle cy="-9.171" r="0.408" style="fill:#FFFFFF;" cx="31.184"/>
  <circle cy="-29.088" r="0.408" style="fill:#FFFFFF;" cx="6.517"/>
  <circle cy="-38.505" r="0.408" style="fill:#FFFFFF;" cx="19.85"/>
  <circle cy="-55" r="0.408" style="fill:#FFFFFF;" cx="23.272"/>
  <circle cy="-55.838" r="0.408" style="fill:#FFFFFF;" cx="29.35"/>
  <circle cy="-48.671" r="0.408" style="fill:#FFFFFF;" cx="14.184"/>
  <circle cy="-49.963" r="0.408" style="fill:#FFFFFF;" cx="16.309"/>
  <circle cy="-56.588" r="0.408" style="fill:#FFFFFF;" cx="22.684"/>
  <circle cy="-50.672" r="0.408" style="fill:#FFFFFF;" cx="30.1"/>
  <circle cy="-56.588" r="0.408" style="fill:#FFFFFF;" cx="1.6"/>
  <circle cy="-43.255" r="0.408" style="fill:#FFFFFF;" cx="48.517"/>
  <circle cy="-48.338" r="0.408" style="fill:#FFFFFF;" cx="37.6"/>
  <circle cy="-47.505" r="0.408" style="fill:#FFFFFF;" cx="30.6"/>
  <circle cy="-2.713" r="0.408" style="fill:#FFFFFF;" cx="43.684"/>
  <circle cy="-0.463" r="0.408" style="fill:#FFFFFF;" cx="31.434"/>
  <circle cy="-3.338" r="0.408" style="fill:#FFFFFF;" cx="8.809"/>
  <circle cy="-31.588" r="0.408" style="fill:#FFFFFF;" cx="49.559"/>
  <circle cy="-20.838" r="0.408" style="fill:#FFFFFF;" cx="5.309"/>
  <circle cy="-10.963" r="0.408" style="fill:#FFFFFF;" cx="1.309"/>
  <circle cy="-3.963" r="0.408" style="fill:#FFFFFF;" cx="52.684"/>
  <circle cy="-8.838" r="0.408" style="fill:#FFFFFF;" cx="54.059"/>
  <circle cy="-0.963" r="0.408" style="fill:#FFFFFF;" cx="56.559"/>
  <circle cy="-0.432" r="0.408" style="fill:#FFFFFF;" cx="54.215"/>
  <circle cy="-5.472" r="0.408" style="fill:#FFFFFF;" cx="55.634"/>
  <circle cy="-2.805" r="0.408" style="fill:#FFFFFF;" cx="55.467"/>
  <circle cy="-11.972" r="0.408" style="fill:#FFFFFF;" cx="45.05"/>
  <circle cy="-14.638" r="0.408" style="fill:#FFFFFF;" cx="44.217"/>
  <circle cy="-13.472" r="0.408" style="fill:#FFFFFF;" cx="37.717"/>
  <circle cy="-12.472" r="0.408" style="fill:#FFFFFF;" cx="36.55"/>
  <circle cy="-16.471" r="0.408" style="fill:#FFFFFF;" cx="35.467"/>
  <circle cy="-15.305" r="0.408" style="fill:#FFFFFF;" cx="33.55"/>
  <circle cy="-13.638" r="0.408" style="fill:#FFFFFF;" cx="33.884"/>
  <circle cy="-12.472" r="0.408" style="fill:#FFFFFF;" cx="28.8"/>
  <circle cy="-10.388" r="0.408" style="fill:#FFFFFF;" cx="29.55"/>
  <circle cy="-19.055" r="0.408" style="fill:#FFFFFF;" cx="27.384"/>
  <circle cy="-21.638" r="0.408" style="fill:#FFFFFF;" cx="28.634"/>
  <circle cy="-22.888" r="0.408" style="fill:#FFFFFF;" cx="27.217"/>
  <circle cy="-20.472" r="0.408" style="fill:#FFFFFF;" cx="24.55"/>
  <circle cy="-19.305" r="0.408" style="fill:#FFFFFF;" cx="22.8"/>
  <circle cy="-17.138" r="0.408" style="fill:#FFFFFF;" cx="24.634"/>
  <circle cy="-17.138" r="0.408" style="fill:#FFFFFF;" cx="27.8"/>
  <circle cy="-16.222" r="0.408" style="fill:#FFFFFF;" cx="29.55"/>
  <circle cy="-16.722" r="0.408" style="fill:#FFFFFF;" cx="31.8"/>
  <circle cy="-17.888" r="0.408" style="fill:#FFFFFF;" cx="34.134"/>
  <circle cy="-19.138" r="0.408" style="fill:#FFFFFF;" cx="32.55"/>
  <circle cy="-10.638" r="0.408" style="fill:#FFFFFF;" cx="40.217"/>
  <circle cy="-11.305" r="0.408" style="fill:#FFFFFF;" cx="42.634"/>
  <circle cy="-8.555" r="0.408" style="fill:#FFFFFF;" cx="42.467"/>
  <circle cy="-6.388" r="0.408" style="fill:#FFFFFF;" cx="43.55"/>
  <circle cy="-3.305" r="0.408" style="fill:#FFFFFF;" cx="41.55"/>
  <circle cy="-1.388" r="0.408" style="fill:#FFFFFF;" cx="45.3"/>
  <circle cy="-0.722" r="0.408" style="fill:#FFFFFF;" cx="49.3"/>
  <circle cy="-3.805" r="0.408" style="fill:#FFFFFF;" cx="38.217"/>
  <circle cy="-5.305" r="0.408" style="fill:#FFFFFF;" cx="40.384"/>
  <circle cy="-0.476" r="0.408" style="fill:#FFFFFF;" cx="38.462"/>
  <circle cy="-15.138" r="0.408" style="fill:#FFFFFF;" cx="38.3"/>
  <circle cy="-18.055" r="0.408" style="fill:#FFFFFF;" cx="39.384"/>
  <circle cy="-18.18" r="0.408" style="fill:#FFFFFF;" cx="42.759"/>
  <circle cy="-16.055" r="0.408" style="fill:#FFFFFF;" cx="40.634"/>
  <circle cy="-41.805" r="0.408" style="fill:#FFFFFF;" cx="4.509"/>
  <circle cy="-2.472" r="0.408" style="fill:#FFFFFF;" cx="35.55"/>
  <circle cy="-1.555" r="0.408" style="fill:#FFFFFF;" cx="7.884"/>
  <circle cy="-31.555" r="0.408" style="fill:#FFFFFF;" cx="27.8"/>
  <circle cy="-2.055" r="0.408" style="fill:#FFFFFF;" cx="47.55"/>
  <circle cy="-10.472" r="0.408" style="fill:#FFFFFF;" cx="46.55"/>
  <circle cy="-8.971" r="0.408" style="fill:#FFFFFF;" cx="47.8"/>
  <circle cy="-8.388" r="0.408" style="fill:#FFFFFF;" cx="44.8"/>
  <circle cy="-6.222" r="0.408" style="fill:#FFFFFF;" cx="46.634"/>
  <circle cy="-5.055" r="0.408" style="fill:#FFFFFF;" cx="47.884"/>
  <circle cy="-6.555" r="0.408" style="fill:#FFFFFF;" cx="49.55"/>
  <circle cy="-5.555" r="0.408" style="fill:#FFFFFF;" cx="50.55"/>
  <circle cy="-4.222" r="0.408" style="fill:#FFFFFF;" cx="49.634"/>
  <circle cy="-13.43" r="0.408" style="fill:#FFFFFF;" cx="57.009"/>
  <circle cy="-14.222" r="0.408" style="fill:#FFFFFF;" cx="54.55"/>
  <circle cy="-16.055" r="0.408" style="fill:#FFFFFF;" cx="50.3"/>
  <circle cy="-26.138" r="0.408" style="fill:#FFFFFF;" cx="48.467"/>
  <circle cy="-24.555" r="0.408" style="fill:#FFFFFF;" cx="48.05"/>
  <circle cy="-18.888" r="0.408" style="fill:#FFFFFF;" cx="37.717"/>
  <circle cy="-19.55" r="0.408" style="fill:#FFFFFF;" cx="49.879"/>
  <circle cy="-12.805" r="0.408" style="fill:#FFFFFF;" cx="55.634"/>
  <circle cy="-15.305" r="0.408" style="fill:#FFFFFF;" cx="19.634"/>
  <circle cy="-21.222" r="0.408" style="fill:#FFFFFF;" cx="14.634"/>
  <circle cy="-15.638" r="0.408" style="fill:#FFFFFF;" cx="14.967"/>
  <circle cy="-14.555" r="0.408" style="fill:#FFFFFF;" cx="13.634"/>
  <circle cy="-14.555" r="0.408" style="fill:#FFFFFF;" cx="17.384"/>
  <circle cy="-32.638" r="0.408" style="fill:#FFFFFF;" cx="24.55"/>
  <circle cy="-40.638" r="0.408" style="fill:#FFFFFF;" cx="46.3"/>
  <circle cy="-20.055" r="0.408" style="fill:#FFFFFF;" cx="34.384"/>
  <circle cy="-22.222" r="0.408" style="fill:#FFFFFF;" cx="35.717"/>
  <circle cy="-24.388" r="0.408" style="fill:#FFFFFF;" cx="36.717"/>
  <circle cy="-24.138" r="0.408" style="fill:#FFFFFF;" cx="33.3"/>
  <circle cy="-22.138" r="0.408" style="fill:#FFFFFF;" cx="31.884"/>
  <circle cy="-28.222" r="0.408" style="fill:#FFFFFF;" cx="57.134"/>
  <circle cy="-28.555" r="0.408" style="fill:#FFFFFF;" cx="52.467"/>
  <circle cy="-29.555" r="0.408" style="fill:#FFFFFF;" cx="50.134"/>
  <circle cy="-31.884" r="0.408" style="fill:#FFFFFF;" cx="47.379"/>
  <circle cy="-33.222" r="0.408" style="fill:#FFFFFF;" cx="44.3"/>
  <circle cy="-35.472" r="0.408" style="fill:#FFFFFF;" cx="44.467"/>
  <circle cy="-37.305" r="0.408" style="fill:#FFFFFF;" cx="43.8"/>
  <circle cy="-36.222" r="0.408" style="fill:#FFFFFF;" cx="42.05"/>
  <circle cy="-36.888" r="0.408" style="fill:#FFFFFF;" cx="39.217"/>
  <circle cy="-33.971" r="0.408" style="fill:#FFFFFF;" cx="39.634"/>
  <circle cy="-31.972" r="0.408" style="fill:#FFFFFF;" cx="42.384"/>
  <circle cy="-35.305" r="0.408" style="fill:#FFFFFF;" cx="38.134"/>
  <circle cy="-35.555" r="0.408" style="fill:#FFFFFF;" cx="35.717"/>
  <circle cy="-33.971" r="0.408" style="fill:#FFFFFF;" cx="36.217"/>
  <circle cy="-38.555" r="0.408" style="fill:#FFFFFF;" cx="35.634"/>
  <circle cy="-42.555" r="0.408" style="fill:#FFFFFF;" cx="46.467"/>
  <circle cy="-43.388" r="0.408" style="fill:#FFFFFF;" cx="40.55"/>
  <circle cy="-44.138" r="0.408" style="fill:#FFFFFF;" cx="31.967"/>
  <circle cy="-44.305" r="0.408" style="fill:#FFFFFF;" cx="29.467"/>
  <circle cy="-44.722" r="0.408" style="fill:#FFFFFF;" cx="26.8"/>
  <circle cy="-43.722" r="0.408" style="fill:#FFFFFF;" cx="25.217"/>
  <circle cy="-47.138" r="0.408" style="fill:#FFFFFF;" cx="27.55"/>
  <circle cy="-48.638" r="0.408" style="fill:#FFFFFF;" cx="25.467"/>
  <circle cy="-51.222" r="0.408" style="fill:#FFFFFF;" cx="25.217"/>
  <circle cy="-46.388" r="0.408" style="fill:#FFFFFF;" cx="24.467"/>
  <circle cy="-48.384" r="0.408" style="fill:#FFFFFF;" cx="22.379"/>
  <circle cy="-47.638" r="0.408" style="fill:#FFFFFF;" cx="19.55"/>
  <circle cy="-46.722" r="0.408" style="fill:#FFFFFF;" cx="17.967"/>
  <circle cy="-35.722" r="0.408" style="fill:#FFFFFF;" cx="48.05"/>
  <circle cy="-24.638" r="0.407" style="fill:#FFFFFF;" cx="55.3"/>
  <circle cy="-27.222" r="0.408" style="fill:#FFFFFF;" cx="53.717"/>
  <circle cy="-22.388" r="0.408" style="fill:#FFFFFF;" cx="53.717"/>
  <circle cy="-21.722" r="0.408" style="fill:#FFFFFF;" cx="56.634"/>
  <circle cy="-23.867" r="0.408" style="fill:#FFFFFF;" cx="57.009"/>
  <circle cy="-25.388" r="0.408" style="fill:#FFFFFF;" cx="43.967"/>
  <circle cy="-24.305" r="0.408" style="fill:#FFFFFF;" cx="41.884"/>
  <circle cy="-23.888" r="0.408" style="fill:#FFFFFF;" cx="45.05"/>
  <circle cy="-21.471" r="0.408" style="fill:#FFFFFF;" cx="48.55"/>
  <circle cy="-20.722" r="0.408" style="fill:#FFFFFF;" cx="52.55"/>
  <circle cy="-18.555" r="0.408" style="fill:#FFFFFF;" cx="51.717"/>
  <circle cy="-19.388" r="0.407" style="fill:#FFFFFF;" cx="54.55"/>
  <circle cy="-19.222" r="0.408" style="fill:#FFFFFF;" cx="56.55"/>
  <circle cy="-15.472" r="0.408" style="fill:#FFFFFF;" cx="55.967"/>
  <circle cy="-16.305" r="0.408" style="fill:#FFFFFF;" cx="52.384"/>
  <circle cy="-16.388" r="0.408" style="fill:#FFFFFF;" cx="46.717"/>
  <circle cy="-14.638" r="0.408" style="fill:#FFFFFF;" cx="48.467"/>
  <circle cy="-20.055" r="0.408" style="fill:#FFFFFF;" cx="46.05"/>
  <circle cy="-22.472" r="0.408" style="fill:#FFFFFF;" cx="45.717"/>
  <circle cy="-21.388" r="0.408" style="fill:#FFFFFF;" cx="43.884"/>
  <circle cy="-20.221" r="0.408" style="fill:#FFFFFF;" cx="42.384"/>
  <circle cy="-21.638" r="0.408" style="fill:#FFFFFF;" cx="40.3"/>
  <circle cy="-23.138" r="0.408" style="fill:#FFFFFF;" cx="38.8"/>
  <circle cy="-28.722" r="0.408" style="fill:#FFFFFF;" cx="47.8"/>
  <circle cy="-36.388" r="0.408" style="fill:#FFFFFF;" cx="50.467"/>
  <circle cy="-38.388" r="0.408" style="fill:#FFFFFF;" cx="45.967"/>
  <circle cy="-41.222" r="0.408" style="fill:#FFFFFF;" cx="43.3"/>
  <circle cy="-41.722" r="0.408" style="fill:#FFFFFF;" cx="38.8"/>
  <circle cy="-39.222" r="0.408" style="fill:#FFFFFF;" cx="41.3"/>
  <circle cy="-39.722" r="0.408" style="fill:#FFFFFF;" cx="36.967"/>
  <circle cy="-40.888" r="0.408" style="fill:#FFFFFF;" cx="34.8"/>
  <circle cy="-43.555" r="0.408" style="fill:#FFFFFF;" cx="36.8"/>
  <circle cy="-46.555" r="0.408" style="fill:#FFFFFF;" cx="35.967"/>
  <circle cy="-44.888" r="0.408" style="fill:#FFFFFF;" cx="33.967"/>
  <circle cy="-47.388" r="0.408" style="fill:#FFFFFF;" cx="40.134"/>
  <circle cy="-52.888" r="0.408" style="fill:#FFFFFF;" cx="56.134"/>
  <circle cy="-54.388" r="0.407" style="fill:#FFFFFF;" cx="55.8"/>
  <circle cy="-54.388" r="0.408" style="fill:#FFFFFF;" cx="52.634"/>
  <circle cy="-52.555" r="0.408" style="fill:#FFFFFF;" cx="51.634"/>
  <circle cy="-51.388" r="0.408" style="fill:#FFFFFF;" cx="54.134"/>
  <circle cy="-56.055" r="0.408" style="fill:#FFFFFF;" cx="53.967"/>
  <circle cy="-56.722" r="0.408" style="fill:#FFFFFF;" cx="56.134"/>
  <circle cy="-56.888" r="0.407" style="fill:#FFFFFF;" cx="52.3"/>
  <circle cy="-57.185" r="0.407" style="fill:#FFFFFF;" cx="49.863"/>
  <circle cy="-48.888" r="0.408" style="fill:#FFFFFF;" cx="56.467"/>
  <circle cy="-47.888" r="0.408" style="fill:#FFFFFF;" cx="54.467"/>
  <circle cy="-47.388" r="0.408" style="fill:#FFFFFF;" cx="52.134"/>
  <circle cy="-44.388" r="0.408" style="fill:#FFFFFF;" cx="55.967"/>
  <circle cy="-46.305" r="0.408" style="fill:#FFFFFF;" cx="50.009"/>
  <circle cy="-23.43" r="0.408" style="fill:#FFFFFF;" cx="49.509"/>
  <circle cy="-51.722" r="0.408" style="fill:#FFFFFF;" cx="48.8"/>
  <circle cy="-49.888" r="0.408" style="fill:#FFFFFF;" cx="48.134"/>
  <circle cy="-51.222" r="0.408" style="fill:#FFFFFF;" cx="44.967"/>
  <circle cy="-53.388" r="0.408" style="fill:#FFFFFF;" cx="46.3"/>
  <circle cy="-56.388" r="0.408" style="fill:#FFFFFF;" cx="37.884"/>
  <circle cy="-55.638" r="0.408" style="fill:#FFFFFF;" cx="42.217"/>
  <circle cy="-54.055" r="0.408" style="fill:#FFFFFF;" cx="43.05"/>
  <circle cy="-53.722" r="0.408" style="fill:#FFFFFF;" cx="39.717"/>
  <circle cy="-56.671" r="0.408" style="fill:#FFFFFF;" cx="40.6"/>
  <circle cy="-55.305" r="0.408" style="fill:#FFFFFF;" cx="36.634"/>
  <circle cy="-55.221" r="0.408" style="fill:#FFFFFF;" cx="34.717"/>
  <circle cy="-53.472" r="0.408" style="fill:#FFFFFF;" cx="35.384"/>
  <circle cy="-56.305" r="0.408" style="fill:#FFFFFF;" cx="32.217"/>
  <path d="M35.657-57.601c-0.002,0.224-0.185,0.404-0.409,0.404c-0.224,0-0.406-0.18-0.408-0.404" style="fill:#FFFFFF;"/>
  <path d="M34.841,0c0.011-0.215,0.189-0.388,0.407-0.388c0.218,0,0.396,0.172,0.408,0.388" style="fill:#FFFFFF;"/>
  <circle cy="-57.055" r="0.408" style="fill:#FFFFFF;" cx="5.884"/>
  <circle cy="-56.222" r="0.408" style="fill:#FFFFFF;" cx="3.55"/>
  <circle cy="-54.055" r="0.408" style="fill:#FFFFFF;" cx="1.55"/>
  <circle cy="-54.722" r="0.408" style="fill:#FFFFFF;" cx="6.217"/>
  <circle cy="-56.722" r="0.408" style="fill:#FFFFFF;" cx="8.217"/>
  <circle cy="-57.055" r="0.408" style="fill:#FFFFFF;" cx="11.467"/>
  <circle cy="-57.18" r="0.408" style="fill:#FFFFFF;" cx="14.821"/>
  <circle cy="-56.638" r="0.408" style="fill:#FFFFFF;" cx="19.467"/>
  <circle cy="-53.638" r="0.408" style="fill:#FFFFFF;" cx="24.217"/>
  <circle cy="-54.388" r="0.408" style="fill:#FFFFFF;" cx="20.55"/>
  <circle cy="-54.722" r="0.408" style="fill:#FFFFFF;" cx="16.717"/>
  <circle cy="-54.388" r="0.408" style="fill:#FFFFFF;" cx="13.634"/>
  <circle cy="-54.138" r="0.408" style="fill:#FFFFFF;" cx="10.884"/>
  <circle cy="-52.721" r="0.408" style="fill:#FFFFFF;" cx="7.55"/>
  <circle cy="-52.721" r="0.408" style="fill:#FFFFFF;" cx="4.3"/>
  <circle cy="-50.638" r="0.408" style="fill:#FFFFFF;" cx="6.634"/>
  <circle cy="-50.388" r="0.408" style="fill:#FFFFFF;" cx="3.634"/>
  <circle cy="-48.722" r="0.408" style="fill:#FFFFFF;" cx="8.05"/>
  <circle cy="-49.722" r="0.408" style="fill:#FFFFFF;" cx="10.3"/>
  <circle cy="-50.638" r="0.408" style="fill:#FFFFFF;" cx="12.05"/>
  <circle cy="-47.721" r="0.408" style="fill:#FFFFFF;" cx="11.634"/>
  <circle cy="-46.305" r="0.408" style="fill:#FFFFFF;" cx="9.05"/>
  <circle cy="-45.388" r="0.408" style="fill:#FFFFFF;" cx="12.05"/>
  <circle cy="-46.138" r="0.408" style="fill:#FFFFFF;" cx="15.467"/>
  <circle cy="-43.555" r="0.408" style="fill:#FFFFFF;" cx="10.55"/>
  <circle cy="-42.805" r="0.408" style="fill:#FFFFFF;" cx="12.717"/>
  <circle cy="-44.805" r="0.408" style="fill:#FFFFFF;" cx="7.05"/>
  <circle cy="-46.555" r="0.408" style="fill:#FFFFFF;" cx="6.467"/>
  <circle cy="-46.222" r="0.408" style="fill:#FFFFFF;" cx="3.134"/>
  <circle cy="-45.388" r="0.408" style="fill:#FFFFFF;" cx="0.634"/>
  <circle cy="-44.305" r="0.408" style="fill:#FFFFFF;" cx="1.884"/>
  <circle cy="-44.222" r="0.408" style="fill:#FFFFFF;" cx="4.55"/>
  <circle cy="-43.222" r="0.408" style="fill:#FFFFFF;" cx="5.634"/>
  <circle cy="-40.472" r="0.408" style="fill:#FFFFFF;" cx="6.05"/>
  <circle cy="-39.722" r="0.408" style="fill:#FFFFFF;" cx="3.217"/>
  <circle cy="-37.643" r="0.408" style="fill:#FFFFFF;" cx="0.638"/>
  <circle cy="-38.222" r="0.408" style="fill:#FFFFFF;" cx="4.634"/>
  <circle cy="-36.222" r="0.408" style="fill:#FFFFFF;" cx="3.634"/>
  <circle cy="-34.305" r="0.408" style="fill:#FFFFFF;" cx="3.967"/>
  <circle cy="-34.305" r="0.408" style="fill:#FFFFFF;" cx="7.384"/>
  <circle cy="-38.388" r="0.408" style="fill:#FFFFFF;" cx="8.05"/>
  <circle cy="-37.721" r="0.408" style="fill:#FFFFFF;" cx="10.217"/>
  <circle cy="-40.388" r="0.408" style="fill:#FFFFFF;" cx="9.884"/>
  <circle cy="-40.972" r="0.408" style="fill:#FFFFFF;" cx="12.217"/>
  <circle cy="-38.472" r="0.408" style="fill:#FFFFFF;" cx="12.3"/>
  <circle cy="-36.805" r="0.408" style="fill:#FFFFFF;" cx="13.217"/>
  <circle cy="-35.305" r="0.408" style="fill:#FFFFFF;" cx="11.717"/>
  <circle cy="-34.138" r="0.408" style="fill:#FFFFFF;" cx="14.134"/>
  <circle cy="-34.305" r="0.408" style="fill:#FFFFFF;" cx="16.55"/>
  <circle cy="-37.222" r="0.408" style="fill:#FFFFFF;" cx="15.884"/>
  <circle cy="-44.388" r="0.408" style="fill:#FFFFFF;" cx="14.55"/>
  <circle cy="-31.388" r="0.408" style="fill:#FFFFFF;" cx="6.884"/>
  <circle cy="-33.388" r="0.408" style="fill:#FFFFFF;" cx="5.634"/>
  <circle cy="-32.388" r="0.408" style="fill:#FFFFFF;" cx="9.8"/>
  <circle cy="-30.305" r="0.408" style="fill:#FFFFFF;" cx="10.884"/>
  <circle cy="-29.388" r="0.408" style="fill:#FFFFFF;" cx="13.05"/>
  <circle cy="-30.305" r="0.408" style="fill:#FFFFFF;" cx="15.134"/>
  <circle cy="-32.305" r="0.408" style="fill:#FFFFFF;" cx="13.384"/>
  <circle cy="-29.805" r="0.408" style="fill:#FFFFFF;" cx="16.967"/>
  <circle cy="-34.555" r="0.408" style="fill:#FFFFFF;" cx="18.467"/>
  <circle cy="-37.138" r="0.408" style="fill:#FFFFFF;" cx="20.8"/>
  <circle cy="-34.722" r="0.408" style="fill:#FFFFFF;" cx="20.717"/>
  <circle cy="-34.805" r="0.408" style="fill:#FFFFFF;" cx="23.55"/>
  <circle cy="-36.638" r="0.408" style="fill:#FFFFFF;" cx="22.717"/>
  <circle cy="-33.638" r="0.408" style="fill:#FFFFFF;" cx="26.217"/>
  <circle cy="-34.972" r="0.408" style="fill:#FFFFFF;" cx="27.884"/>
  <circle cy="-35.838" r="0.408" style="fill:#FFFFFF;" cx="31.184"/>
  <circle cy="-42.338" r="0.408" style="fill:#FFFFFF;" cx="33.35"/>
  <circle cy="-41.588" r="0.408" style="fill:#FFFFFF;" cx="24.6"/>
  <circle cy="-30.672" r="0.408" style="fill:#FFFFFF;" cx="20.017"/>
  <circle cy="-32.338" r="0.408" style="fill:#FFFFFF;" cx="18.684"/>
  <circle cy="-41.005" r="0.408" style="fill:#FFFFFF;" cx="41.017"/>
  <circle cy="-41.255" r="0.408" style="fill:#FFFFFF;" cx="37.434"/>
  <circle cy="-43.755" r="0.408" style="fill:#FFFFFF;" cx="20.1"/>
  <circle cy="-36.671" r="0.408" style="fill:#FFFFFF;" cx="6.6"/>
  <circle cy="-35.255" r="0.408" style="fill:#FFFFFF;" cx="0.85"/>
  <circle cy="-21.171" r="0.408" style="fill:#FFFFFF;" cx="37.6"/>
  <circle cy="-39.222" r="0.408" style="fill:#FFFFFF;" cx="27.967"/>
  <circle cy="-36.888" r="0.408" style="fill:#FFFFFF;" cx="27.3"/>
  <circle cy="-37.805" r="0.408" style="fill:#FFFFFF;" cx="30.134"/>
  <circle cy="-33.805" r="0.408" style="fill:#FFFFFF;" cx="29.634"/>
  <circle cy="-33.888" r="0.408" style="fill:#FFFFFF;" cx="32.134"/>
  <circle cy="-31.138" r="0.408" style="fill:#FFFFFF;" cx="30.634"/>
  <circle cy="-31.222" r="0.408" style="fill:#FFFFFF;" cx="35.8"/>
  <circle cy="-32.305" r="0.408" style="fill:#FFFFFF;" cx="34.217"/>
  <circle cy="-22.305" r="0.408" style="fill:#FFFFFF;" cx="18.384"/>
  <circle cy="-20.722" r="0.408" style="fill:#FFFFFF;" cx="20.05"/>
  <circle cy="-20.305" r="0.408" style="fill:#FFFFFF;" cx="17.55"/>
  <circle cy="-23.638" r="0.408" style="fill:#FFFFFF;" cx="15.384"/>
  <circle cy="-17.555" r="0.408" style="fill:#FFFFFF;" cx="18.55"/>
  <circle cy="-17.972" r="0.408" style="fill:#FFFFFF;" cx="21.05"/>
  <circle cy="-16.805" r="0.408" style="fill:#FFFFFF;" cx="21.884"/>
  <circle cy="-14.388" r="0.408" style="fill:#FFFFFF;" cx="22.634"/>
  <circle cy="-15.138" r="0.408" style="fill:#FFFFFF;" cx="25.05"/>
  <circle cy="-13.222" r="0.408" style="fill:#FFFFFF;" cx="25.967"/>
  <circle cy="-12.388" r="0.408" style="fill:#FFFFFF;" cx="24.384"/>
  <circle cy="-13.222" r="0.408" style="fill:#FFFFFF;" cx="16.55"/>
  <circle cy="-8.888" r="0.408" style="fill:#FFFFFF;" cx="19.967"/>
  <circle cy="-7.138" r="0.408" style="fill:#FFFFFF;" cx="18.55"/>
  <circle cy="-6.305" r="0.408" style="fill:#FFFFFF;" cx="21.634"/>
  <circle cy="-8.222" r="0.408" style="fill:#FFFFFF;" cx="23.634"/>
  <circle cy="-7.555" r="0.408" style="fill:#FFFFFF;" cx="27.467"/>
  <circle cy="-5.388" r="0.408" style="fill:#FFFFFF;" cx="26.134"/>
  <circle cy="-4.305" r="0.408" style="fill:#FFFFFF;" cx="28.384"/>
  <circle cy="-3.305" r="0.408" style="fill:#FFFFFF;" cx="31.717"/>
  <circle cy="-1.972" r="0.408" style="fill:#FFFFFF;" cx="32.8"/>
  <circle cy="-1.388" r="0.408" style="fill:#FFFFFF;" cx="29.467"/>
  <circle cy="-7.138" r="0.408" style="fill:#FFFFFF;" cx="32.384"/>
  <circle cy="-8.388" r="0.408" style="fill:#FFFFFF;" cx="35.8"/>
  <circle cy="-6.555" r="0.408" style="fill:#FFFFFF;" cx="38.717"/>
  <circle cy="-5.388" r="0.408" style="fill:#FFFFFF;" cx="36.717"/>
  <circle cy="-7.222" r="0.408" style="fill:#FFFFFF;" cx="34.467"/>
  <circle cy="-4.222" r="0.408" style="fill:#FFFFFF;" cx="34.384"/>
  <circle cy="-6.388" r="0.408" style="fill:#FFFFFF;" cx="15.884"/>
  <circle cy="-6.305" r="0.408" style="fill:#FFFFFF;" cx="14.134"/>
  <circle cy="-9.055" r="0.408" style="fill:#FFFFFF;" cx="9.634"/>
  <circle cy="-10.555" r="0.408" style="fill:#FFFFFF;" cx="6.55"/>
  <circle cy="-12.721" r="0.408" style="fill:#FFFFFF;" cx="4.884"/>
  <circle cy="-15.221" r="0.408" style="fill:#FFFFFF;" cx="3.634"/>
  <circle cy="-18.472" r="0.408" style="fill:#FFFFFF;" cx="3.217"/>
  <circle cy="-23.472" r="0.408" style="fill:#FFFFFF;" cx="6.467"/>
  <circle cy="-12.972" r="0.408" style="fill:#FFFFFF;" cx="2.05"/>
  <circle cy="-8.888" r="0.408" style="fill:#FFFFFF;" cx="1.3"/>
  <circle cy="-10.305" r="0.408" style="fill:#FFFFFF;" cx="3.467"/>
  <circle cy="-9.388" r="0.408" style="fill:#FFFFFF;" cx="4.634"/>
  <circle cy="-7.555" r="0.408" style="fill:#FFFFFF;" cx="6.467"/>
  <circle cy="-6.638" r="0.408" style="fill:#FFFFFF;" cx="3.134"/>
  <circle cy="-5.722" r="0.408" style="fill:#FFFFFF;" cx="4.967"/>
  <circle cy="-4.555" r="0.408" style="fill:#FFFFFF;" cx="3.717"/>
  <circle cy="-2.472" r="0.408" style="fill:#FFFFFF;" cx="1.467"/>
  <circle cy="-0.555" r="0.408" style="fill:#FFFFFF;" cx="3.55"/>
  <circle cy="-2.222" r="0.408" style="fill:#FFFFFF;" cx="9.634"/>
  <circle cy="-5.388" r="0.408" style="fill:#FFFFFF;" cx="9.634"/>
  <circle cy="-2.138" r="0.408" style="fill:#FFFFFF;" cx="6.3"/>
  <circle cy="-1.222" r="0.408" style="fill:#FFFFFF;" cx="16.134"/>
  <circle cy="-1.388" r="0.408" style="fill:#FFFFFF;" cx="12.467"/>
  <circle cy="-4.638" r="0.408" style="fill:#FFFFFF;" cx="11.384"/>
  <circle cy="-4.222" r="0.408" style="fill:#FFFFFF;" cx="15.55"/>
  <circle cy="-1.638" r="0.408" style="fill:#FFFFFF;" cx="19.217"/>
  <circle cy="-18.055" r="0.408" style="fill:#FFFFFF;" cx="15.8"/>
  <circle cy="-2.222" r="0.408" style="fill:#FFFFFF;" cx="24.55"/>
  <circle cy="-0.559" r="0.408" style="fill:#FFFFFF;" cx="22.884"/>
  <circle cy="-3.805" r="0.408" style="fill:#FFFFFF;" cx="20.384"/>
  <circle cy="-5.388" r="0.408" style="fill:#FFFFFF;" cx="19.467"/>
  <circle cy="-3.722" r="0.408" style="fill:#FFFFFF;" cx="23.967"/>
  <circle cy="-6.471" r="0.408" style="fill:#FFFFFF;" cx="24.3"/>
  <circle cy="-2.305" r="0.408" style="fill:#FFFFFF;" cx="26.55"/>
  <circle cy="-0.472" r="0.408" style="fill:#FFFFFF;" cx="27.717"/>
  <circle cy="-8.305" r="0.408" style="fill:#FFFFFF;" cx="13.55"/>
  <circle cy="-11.3" r="0.408" style="fill:#FFFFFF;" cx="14.462"/>
  <circle cy="-5.171" r="0.408" style="fill:#FFFFFF;" cx="1.767"/>
  <circle cy="-12.671" r="0.408" style="fill:#FFFFFF;" cx="10.934"/>
  <circle cy="-24.755" r="0.408" style="fill:#FFFFFF;" cx="23.85"/>
  <circle cy="-24.255" r="0.408" style="fill:#FFFFFF;" cx="14.017"/>
  <circle cy="-30.171" r="0.408" style="fill:#FFFFFF;" cx="56.184"/>
  <circle cy="-31.088" r="0.408" style="fill:#FFFFFF;" cx="51.851"/>
  <circle cy="-14.255" r="0.408" style="fill:#FFFFFF;" cx="30.684"/>
  <circle cy="-11.305" r="0.408" style="fill:#FFFFFF;" cx="11.55"/>
  <circle cy="-16.471" r="0.408" style="fill:#FFFFFF;" cx="11.467"/>
  <circle cy="-20.305" r="0.408" style="fill:#FFFFFF;" cx="10.717"/>
  <circle cy="-18.388" r="0.408" style="fill:#FFFFFF;" cx="9.634"/>
  <circle cy="-16.388" r="0.408" style="fill:#FFFFFF;" cx="8.8"/>
  <circle cy="-13.472" r="0.408" style="fill:#FFFFFF;" cx="9.55"/>
  <circle cy="-13.222" r="0.408" style="fill:#FFFFFF;" cx="6.8"/>
  <circle cy="-16.388" r="0.408" style="fill:#FFFFFF;" cx="6.3"/>
  <circle cy="-19.138" r="0.408" style="fill:#FFFFFF;" cx="5.967"/>
  <circle cy="-19.722" r="0.408" style="fill:#FFFFFF;" cx="7.8"/>
  <circle cy="-22.055" r="0.408" style="fill:#FFFFFF;" cx="7.634"/>
  <circle cy="-10.888" r="0.408" style="fill:#FFFFFF;" cx="26.55"/>
  <circle cy="-9.222" r="0.408" style="fill:#FFFFFF;" cx="32.634"/>
  <circle cy="-10.472" r="0.408" style="fill:#FFFFFF;" cx="34.55"/>
  <circle cy="-9.555" r="0.408" style="fill:#FFFFFF;" cx="38.467"/>
  <circle cy="-12.222" r="0.408" style="fill:#FFFFFF;" cx="38.634"/>
  <circle cy="-28.638" r="0.408" style="fill:#FFFFFF;" cx="29.55"/>
  <circle cy="-27.472" r="0.408" style="fill:#FFFFFF;" cx="27.8"/>
  <circle cy="-28.472" r="0.408" style="fill:#FFFFFF;" cx="23.634"/>
  <circle cy="-30.722" r="0.408" style="fill:#FFFFFF;" cx="23.134"/>
  <circle cy="-29.472" r="0.408" style="fill:#FFFFFF;" cx="38.3"/>
  <circle cy="-29.472" r="0.408" style="fill:#FFFFFF;" cx="41.217"/>
  <circle cy="-27.638" r="0.408" style="fill:#FFFFFF;" cx="42.467"/>
  <circle cy="-27.555" r="0.408" style="fill:#FFFFFF;" cx="37.384"/>
  <circle cy="-27.388" r="0.408" style="fill:#FFFFFF;" cx="32.467"/>
  <circle cy="-26.055" r="0.408" style="fill:#FFFFFF;" cx="31.134"/>
  <circle cy="-25.388" r="0.408" style="fill:#FFFFFF;" cx="34.634"/>
  <circle cy="-23.888" r="0.408" style="fill:#FFFFFF;" cx="30.55"/>
  <circle cy="-24.472" r="0.408" style="fill:#FFFFFF;" cx="27.467"/>
  <circle cy="-26.222" r="0.408" style="fill:#FFFFFF;" cx="25.134"/>
  <circle cy="-26.305" r="0.408" style="fill:#FFFFFF;" cx="20.717"/>
  <circle cy="-22.472" r="0.408" style="fill:#FFFFFF;" cx="21.967"/>
  <circle cy="-24.472" r="0.408" style="fill:#FFFFFF;" cx="18.717"/>
  <circle cy="-27.222" r="0.408" style="fill:#FFFFFF;" cx="17.3"/>
  <circle cy="-27.638" r="0.408" style="fill:#FFFFFF;" cx="15.05"/>
  <circle cy="-26.138" r="0.408" style="fill:#FFFFFF;" cx="14.384"/>
  <circle cy="-27.638" r="0.408" style="fill:#FFFFFF;" cx="10.634"/>
  <circle cy="-29.722" r="0.408" style="fill:#FFFFFF;" cx="8.384"/>
  <circle cy="-27.888" r="0.408" style="fill:#FFFFFF;" cx="6.634"/>
  <circle cy="-27.388" r="0.408" style="fill:#FFFFFF;" cx="8.634"/>
  <circle cy="-24.888" r="0.408" style="fill:#FFFFFF;" cx="9.634"/>
  <circle cy="-25.555" r="0.408" style="fill:#FFFFFF;" cx="12.05"/>
  <circle cy="-29.476" r="0.408" style="fill:#FFFFFF;" cx="0.638"/>
  <circle cy="-28.305" r="0.408" style="fill:#FFFFFF;" cx="1.8"/>
  <circle cy="-31.638" r="0.408" style="fill:#FFFFFF;" cx="3.634"/>
  <circle cy="-33.555" r="0.408" style="fill:#FFFFFF;" cx="1.967"/>
  <circle cy="-18.388" r="0.408" style="fill:#FFFFFF;" cx="0.55"/>
  <circle cy="-30.055" r="0.408" style="fill:#FFFFFF;" cx="4.55"/>
  <circle cy="-35.722" r="0.408" style="fill:#FFFFFF;" cx="8.467"/>
  <circle cy="-31.722" r="0.408" style="fill:#FFFFFF;" cx="16.967"/>
  <circle cy="-54.722" r="0.408" style="fill:#FFFFFF;" cx="44.967"/>
  <circle cy="-29.722" r="0.408" style="fill:#FFFFFF;" cx="31.8"/>
  <circle cy="-7.555" r="0.408" style="fill:#FFFFFF;" cx="10.3"/>
  <circle cy="-4.055" r="0.408" style="fill:#FFFFFF;" cx="45.967"/>
  <circle cy="-22.305" r="0.408" style="fill:#FFFFFF;" cx="11.8"/>
  <circle cy="-25.722" r="0.408" style="fill:#FFFFFF;" cx="5.717"/>
  <circle cy="-27.305" r="0.408" style="fill:#FFFFFF;" cx="4.467"/>
  <circle cy="-24.388" r="0.408" style="fill:#FFFFFF;" cx="4.55"/>
  <circle cy="-24.472" r="0.408" style="fill:#FFFFFF;" cx="1.717"/>
  <circle cy="-22.138" r="0.408" style="fill:#FFFFFF;" cx="1.3"/>
  <circle cy="-38.305" r="0.408" style="fill:#FFFFFF;" cx="23.384"/>
  <circle cy="-39.555" r="0.408" style="fill:#FFFFFF;" cx="25.55"/>
  <circle cy="-41.388" r="0.408" style="fill:#FFFFFF;" cx="1.55"/>
  <circle cy="-41.555" r="0.408" style="fill:#FFFFFF;" cx="16.3"/>
  <circle cy="-42.305" r="0.408" style="fill:#FFFFFF;" cx="21.55"/>
  <circle cy="-43.722" r="0.408" style="fill:#FFFFFF;" cx="23.134"/>
  <circle cy="-41.305" r="0.408" style="fill:#FFFFFF;" cx="26.55"/>
  <circle cy="-41.638" r="0.408" style="fill:#FFFFFF;" cx="30.05"/>
  <circle cy="-40.472" r="0.408" style="fill:#FFFFFF;" cx="21.467"/>
  <circle cy="-41.555" r="0.408" style="fill:#FFFFFF;" cx="18.634"/>
  <circle cy="-40.305" r="0.408" style="fill:#FFFFFF;" cx="17.55"/>
  <circle cy="-39.305" r="0.408" style="fill:#FFFFFF;" cx="14.467"/>
  <circle cy="-52.388" r="0.408" style="fill:#FFFFFF;" cx="16.634"/>
  <circle cy="-52.305" r="0.408" style="fill:#FFFFFF;" cx="18.8"/>
  <circle cy="-50.555" r="0.408" style="fill:#FFFFFF;" cx="19.55"/>
  <circle cy="-48.638" r="0.408" style="fill:#FFFFFF;" cx="17.634"/>
  <circle cy="-56.305" r="0.408" style="fill:#FFFFFF;" cx="24.467"/>
  <circle cy="-53.388" r="0.408" style="fill:#FFFFFF;" cx="27.634"/>
  <circle cy="-52.972" r="0.408" style="fill:#FFFFFF;" cx="30.05"/>
  <circle cy="-53.722" r="0.408" style="fill:#FFFFFF;" cx="31.634"/>
  <circle cy="-51.805" r="0.408" style="fill:#FFFFFF;" cx="32.717"/>
  <circle cy="-49.388" r="0.408" style="fill:#FFFFFF;" cx="31.55"/>
  <circle cy="-49.472" r="0.408" style="fill:#FFFFFF;" cx="34.717"/>
  <circle cy="-47.388" r="0.408" style="fill:#FFFFFF;" cx="33.634"/>
  <circle cy="-45.388" r="0.408" style="fill:#FFFFFF;" cx="31.384"/>
  <circle cy="-48.222" r="0.408" style="fill:#FFFFFF;" cx="28.717"/>
  <circle cy="-51.722" r="0.408" style="fill:#FFFFFF;" cx="40.3"/>
  <circle cy="-49.222" r="0.408" style="fill:#FFFFFF;" cx="41.8"/>
  <circle cy="-53.971" r="0.408" style="fill:#FFFFFF;" cx="47.967"/>
  <circle cy="-46.18" r="0.408" style="fill:#FFFFFF;" cx="57.134"/>
  <circle cy="-52.305" r="0.408" style="fill:#FFFFFF;" cx="37.967"/>
  <circle cy="-51.638" r="0.408" style="fill:#FFFFFF;" cx="35.8"/>
 </g>
</svg>
