<?xml version="1.0"?>
<!-- Converted with SVG Converter - Version 0.9.5 (Compiled Fri Feb 21 09:53:38 2020) - Copyright (C) 2011 Nokia -->
<svg xmlns="http://www.w3.org/2000/svg" y="0px" height="57.601" baseProfile="tiny" xmlns:xlink="http://www.w3.org/1999/xlink" xml:space="preserve" viewBox="1 -58.601 57.601 57.601" version="1.1" x="0px" width="57.601">
 <g>
  <rect y="-58.601" height="57.601" x="1" style="fill:none;" width="57.601"/>
  <circle cy="-45.225" cx="50.634" r="0.777" style="fill:#00AEEF;"/>
  <circle cy="-56.433" cx="49.884" r="0.777" style="fill:#00AEEF;"/>
  <circle cy="-52.224" cx="43.467" r="0.777" style="fill:#00AEEF;"/>
  <circle cy="-52.308" cx="29.467" r="0.777" style="fill:#00AEEF;"/>
  <circle cy="-52.467" cx="23.459" r="0.777" style="fill:#00AEEF;"/>
  <circle cy="-51.558" cx="15.384" r="0.777" style="fill:#00AEEF;"/>
  <circle cy="-53.224" cx="11.05" r="0.777" style="fill:#00AEEF;"/>
  <circle cy="-49.391" cx="5.634" r="0.777" style="fill:#00AEEF;"/>
  <circle cy="-50.475" cx="2.55" r="0.778" style="fill:#00AEEF;"/>
  <path d="M1-51.621c0.427-0.003,0.773-0.35,0.773-0.778c0-0.428-0.346-0.775-0.773-0.778" style="fill:#00AEEF;"/>
  <path d="M58.601-53.176c-0.004,0-0.008,0-0.012,0c-0.43,0-0.777,0.349-0.777,0.778s0.348,0.778,0.777,0.778    c0.004,0,0.008,0,0.012,0" style="fill:#00AEEF;"/>
  <circle cy="-43.558" cx="9.634" r="0.777" style="fill:#00AEEF;"/>
  <circle cy="-44.884" cx="17.709" r="0.777" style="fill:#00AEEF;"/>
  <circle cy="-45.967" cx="22.292" r="0.777" style="fill:#00AEEF;"/>
  <circle cy="-28.467" cx="51.042" r="0.777" style="fill:#00AEEF;"/>
  <circle cy="-50.55" cx="39.376" r="0.777" style="fill:#00AEEF;"/>
  <circle cy="-57.391" cx="28.8" r="0.777" style="fill:#00AEEF;"/>
  <circle cy="-38.891" cx="19.467" r="0.777" style="fill:#00AEEF;"/>
  <circle cy="-31.55" cx="26.876" r="0.777" style="fill:#00AEEF;"/>
  <circle cy="-30.467" cx="35.209" r="0.777" style="fill:#00AEEF;"/>
  <circle cy="-20.3" cx="31.292" r="0.777" style="fill:#00AEEF;"/>
  <circle cy="-27.308" cx="57.8" r="0.777" style="fill:#00AEEF;"/>
  <circle cy="-18.55" cx="49.626" r="0.777" style="fill:#00AEEF;"/>
  <circle cy="-33.634" cx="1.808" r="0.777" style="fill:#00AEEF;"/>
  <circle cy="-29.384" cx="20.725" r="0.777" style="fill:#00AEEF;"/>
  <circle cy="-24.3" cx="25.891" r="0.777" style="fill:#00AEEF;"/>
  <circle cy="-19.475" cx="13.384" r="0.777" style="fill:#00AEEF;"/>
  <circle cy="-14.058" cx="32.717" r="0.777" style="fill:#00AEEF;"/>
  <circle cy="-15.391" cx="42.3" r="0.777" style="fill:#00AEEF;"/>
  <circle cy="-9.474" cx="57.634" r="0.777" style="fill:#00AEEF;"/>
  <circle cy="-3.391" cx="53.384" r="0.777" style="fill:#00AEEF;"/>
  <circle cy="-1.808" cx="42.55" r="0.777" style="fill:#00AEEF;"/>
  <path d="M46.494-1c0.019-0.413,0.358-0.741,0.775-0.741c0.417,0,0.756,0.328,0.775,0.741" style="fill:#00AEEF;"/>
  <path d="M48.045-58.601c-0.011,0.419-0.354,0.757-0.776,0.757c-0.423,0-0.766-0.338-0.776-0.757" style="fill:#00AEEF;"/>
  <circle cy="-4.391" cx="14.55" r="0.777" style="fill:#00AEEF;"/>
  <circle cy="-4.891" cx="7.55" r="0.777" style="fill:#00AEEF;"/>
  <circle cy="-17.475" cx="2.3" r="0.777" style="fill:#00AEEF;"/>
  <circle cy="-27.05" cx="40.641" r="0.777" style="fill:#00AEEF;"/>
  <circle cy="-33.467" cx="21.975" r="0.777" style="fill:#00AEEF;"/>
  <circle cy="-22.55" cx="4.558" r="0.777" style="fill:#00AEEF;"/>
  <circle cy="-47.224" cx="46.967" r="0.777" style="fill:#00AEEF;"/>
  <circle cy="-41.225" cx="32.634" r="0.777" style="fill:#00AEEF;"/>
  <circle cy="-38.558" cx="34.634" r="0.777" style="fill:#00AEEF;"/>
  <circle cy="-33.391" cx="39.467" r="0.777" style="fill:#00AEEF;"/>
  <circle cy="-31.058" cx="45.634" r="0.777" style="fill:#00AEEF;"/>
  <circle cy="-27.391" cx="47.634" r="0.777" style="fill:#00AEEF;"/>
  <circle cy="-25.057" cx="52.467" r="0.777" style="fill:#00AEEF;"/>
  <circle cy="-18.058" cx="45.634" r="0.777" style="fill:#00AEEF;"/>
  <circle cy="-31.391" cx="55.634" r="0.777" style="fill:#00AEEF;"/>
  <circle cy="-48.391" cx="49.8" r="0.777" style="fill:#00AEEF;"/>
  <circle cy="-46.225" cx="40.134" r="0.777" style="fill:#00AEEF;"/>
  <circle cy="-51.391" cx="52.467" r="0.777" style="fill:#00AEEF;"/>
  <circle cy="-34.891" cx="48.634" r="0.777" style="fill:#00AEEF;"/>
  <circle cy="-11.558" cx="23.217" r="0.777" style="fill:#00AEEF;"/>
  <circle cy="-12.683" cx="20.321" r="0.777" style="fill:#00AEEF;"/>
  <circle cy="-3.475" cx="23.384" r="0.777" style="fill:#00AEEF;"/>
  <circle cy="-11.141" cx="17.634" r="0.777" style="fill:#00AEEF;"/>
  <circle cy="-6.391" cx="30.8" r="0.777" style="fill:#00AEEF;"/>
  <circle cy="-42.722" cx="55.134" r="0.408" style="fill:#00AEEF;"/>
  <circle cy="-42.555" cx="57.467" r="0.408" style="fill:#00AEEF;"/>
  <circle cy="-40.222" cx="56.467" r="0.408" style="fill:#00AEEF;"/>
  <circle cy="-45.222" cx="53.634" r="0.408" style="fill:#00AEEF;"/>
  <circle cy="-42.222" cx="48.967" r="0.408" style="fill:#00AEEF;"/>
  <circle cy="-45.055" cx="46.134" r="0.408" style="fill:#00AEEF;"/>
  <circle cy="-45.888" cx="43.134" r="0.408" style="fill:#00AEEF;"/>
  <circle cy="-48.721" cx="44.634" r="0.408" style="fill:#00AEEF;"/>
  <circle cy="-49.555" cx="46.3" r="0.408" style="fill:#00AEEF;"/>
  <circle cy="-41.555" cx="51.634" r="0.408" style="fill:#00AEEF;"/>
  <circle cy="-43.555" cx="52.8" r="0.408" style="fill:#00AEEF;"/>
  <circle cy="-39.722" cx="50.467" r="0.408" style="fill:#00AEEF;"/>
  <circle cy="-39.388" cx="53.634" r="0.408" style="fill:#00AEEF;"/>
  <circle cy="-37.555" cx="57.134" r="0.408" style="fill:#00AEEF;"/>
  <circle cy="-35.888" cx="56.3" r="0.408" style="fill:#00AEEF;"/>
  <circle cy="-36.388" cx="53.8" r="0.408" style="fill:#00AEEF;"/>
  <circle cy="-34.222" cx="51.8" r="0.408" style="fill:#00AEEF;"/>
  <circle cy="-33.721" cx="54.3" r="0.408" style="fill:#00AEEF;"/>
  <circle cy="-33.721" cx="57.3" r="0.408" style="fill:#00AEEF;"/>
  <circle cy="-35.388" cx="58.134" r="0.408" style="fill:#00AEEF;"/>
  <circle cy="-12.055" cx="58.134" r="0.408" style="fill:#00AEEF;"/>
  <circle cy="-11.555" cx="55.134" r="0.408" style="fill:#00AEEF;"/>
  <circle cy="-12.138" cx="52.634" r="0.408" style="fill:#00AEEF;"/>
  <circle cy="-14.555" cx="52.634" r="0.408" style="fill:#00AEEF;"/>
  <circle cy="-13.555" cx="49.8" r="0.408" style="fill:#00AEEF;"/>
  <circle cy="-12.305" cx="50.717" r="0.408" style="fill:#00AEEF;"/>
  <circle cy="-9.305" cx="51.55" r="0.408" style="fill:#00AEEF;"/>
  <circle cy="-7.388" cx="54.634" r="0.408" style="fill:#00AEEF;"/>
  <circle cy="-9.838" cx="16.934" r="0.408" style="fill:#00AEEF;"/>
  <circle cy="-15.338" cx="1.767" r="0.408" style="fill:#00AEEF;"/>
  <circle cy="-28.505" cx="26.1" r="0.408" style="fill:#00AEEF;"/>
  <circle cy="-27.255" cx="23.35" r="0.408" style="fill:#00AEEF;"/>
  <circle cy="-10.171" cx="32.184" r="0.408" style="fill:#00AEEF;"/>
  <circle cy="-30.088" cx="7.517" r="0.408" style="fill:#00AEEF;"/>
  <circle cy="-39.505" cx="20.85" r="0.408" style="fill:#00AEEF;"/>
  <circle cy="-56" cx="24.272" r="0.408" style="fill:#00AEEF;"/>
  <circle cy="-56.838" cx="30.35" r="0.408" style="fill:#00AEEF;"/>
  <circle cy="-49.671" cx="15.184" r="0.408" style="fill:#00AEEF;"/>
  <circle cy="-50.963" cx="17.309" r="0.408" style="fill:#00AEEF;"/>
  <circle cy="-57.588" cx="23.684" r="0.408" style="fill:#00AEEF;"/>
  <circle cy="-51.672" cx="31.1" r="0.408" style="fill:#00AEEF;"/>
  <circle cy="-57.588" cx="2.6" r="0.408" style="fill:#00AEEF;"/>
  <circle cy="-44.255" cx="49.517" r="0.408" style="fill:#00AEEF;"/>
  <circle cy="-49.338" cx="38.6" r="0.408" style="fill:#00AEEF;"/>
  <circle cy="-48.505" cx="31.6" r="0.408" style="fill:#00AEEF;"/>
  <circle cy="-3.713" cx="44.684" r="0.408" style="fill:#00AEEF;"/>
  <circle cy="-1.463" cx="32.434" r="0.408" style="fill:#00AEEF;"/>
  <circle cy="-4.338" cx="9.809" r="0.408" style="fill:#00AEEF;"/>
  <circle cy="-32.588" cx="50.559" r="0.408" style="fill:#00AEEF;"/>
  <circle cy="-21.838" cx="6.309" r="0.408" style="fill:#00AEEF;"/>
  <circle cy="-11.963" cx="2.309" r="0.408" style="fill:#00AEEF;"/>
  <circle cy="-4.963" cx="53.684" r="0.408" style="fill:#00AEEF;"/>
  <circle cy="-9.838" cx="55.059" r="0.408" style="fill:#00AEEF;"/>
  <circle cy="-1.963" cx="57.559" r="0.408" style="fill:#00AEEF;"/>
  <circle cy="-1.432" cx="55.215" r="0.408" style="fill:#00AEEF;"/>
  <circle cy="-6.472" cx="56.634" r="0.408" style="fill:#00AEEF;"/>
  <circle cy="-3.805" cx="56.467" r="0.408" style="fill:#00AEEF;"/>
  <circle cy="-12.972" cx="46.05" r="0.408" style="fill:#00AEEF;"/>
  <circle cy="-15.638" cx="45.217" r="0.408" style="fill:#00AEEF;"/>
  <circle cy="-14.472" cx="38.717" r="0.408" style="fill:#00AEEF;"/>
  <circle cy="-13.472" cx="37.55" r="0.408" style="fill:#00AEEF;"/>
  <circle cy="-17.471" cx="36.467" r="0.408" style="fill:#00AEEF;"/>
  <circle cy="-16.305" cx="34.55" r="0.408" style="fill:#00AEEF;"/>
  <circle cy="-14.638" cx="34.884" r="0.408" style="fill:#00AEEF;"/>
  <circle cy="-13.472" cx="29.8" r="0.408" style="fill:#00AEEF;"/>
  <circle cy="-11.388" cx="30.55" r="0.408" style="fill:#00AEEF;"/>
  <circle cy="-20.055" cx="28.384" r="0.408" style="fill:#00AEEF;"/>
  <circle cy="-22.638" cx="29.634" r="0.408" style="fill:#00AEEF;"/>
  <circle cy="-23.888" cx="28.217" r="0.408" style="fill:#00AEEF;"/>
  <circle cy="-21.472" cx="25.55" r="0.408" style="fill:#00AEEF;"/>
  <circle cy="-20.305" cx="23.8" r="0.408" style="fill:#00AEEF;"/>
  <circle cy="-18.138" cx="25.634" r="0.408" style="fill:#00AEEF;"/>
  <circle cy="-18.138" cx="28.8" r="0.408" style="fill:#00AEEF;"/>
  <circle cy="-17.222" cx="30.55" r="0.408" style="fill:#00AEEF;"/>
  <circle cy="-17.722" cx="32.8" r="0.408" style="fill:#00AEEF;"/>
  <circle cy="-18.888" cx="35.134" r="0.408" style="fill:#00AEEF;"/>
  <circle cy="-20.138" cx="33.55" r="0.408" style="fill:#00AEEF;"/>
  <circle cy="-11.638" cx="41.217" r="0.408" style="fill:#00AEEF;"/>
  <circle cy="-12.305" cx="43.634" r="0.408" style="fill:#00AEEF;"/>
  <circle cy="-9.555" cx="43.467" r="0.408" style="fill:#00AEEF;"/>
  <circle cy="-7.388" cx="44.55" r="0.408" style="fill:#00AEEF;"/>
  <circle cy="-4.305" cx="42.55" r="0.408" style="fill:#00AEEF;"/>
  <circle cy="-2.388" cx="46.3" r="0.408" style="fill:#00AEEF;"/>
  <circle cy="-1.722" cx="50.3" r="0.408" style="fill:#00AEEF;"/>
  <circle cy="-4.805" cx="39.217" r="0.408" style="fill:#00AEEF;"/>
  <circle cy="-6.305" cx="41.384" r="0.408" style="fill:#00AEEF;"/>
  <circle cy="-1.476" cx="39.462" r="0.408" style="fill:#00AEEF;"/>
  <circle cy="-16.138" cx="39.3" r="0.408" style="fill:#00AEEF;"/>
  <circle cy="-19.055" cx="40.384" r="0.408" style="fill:#00AEEF;"/>
  <circle cy="-19.18" cx="43.759" r="0.408" style="fill:#00AEEF;"/>
  <circle cy="-17.055" cx="41.634" r="0.408" style="fill:#00AEEF;"/>
  <circle cy="-42.805" cx="5.509" r="0.408" style="fill:#00AEEF;"/>
  <circle cy="-3.472" cx="36.55" r="0.408" style="fill:#00AEEF;"/>
  <circle cy="-2.555" cx="8.884" r="0.408" style="fill:#00AEEF;"/>
  <circle cy="-32.555" cx="28.8" r="0.408" style="fill:#00AEEF;"/>
  <circle cy="-3.055" cx="48.55" r="0.408" style="fill:#00AEEF;"/>
  <circle cy="-11.472" cx="47.55" r="0.408" style="fill:#00AEEF;"/>
  <circle cy="-9.971" cx="48.8" r="0.408" style="fill:#00AEEF;"/>
  <circle cy="-9.388" cx="45.8" r="0.408" style="fill:#00AEEF;"/>
  <circle cy="-7.222" cx="47.634" r="0.408" style="fill:#00AEEF;"/>
  <circle cy="-6.055" cx="48.884" r="0.408" style="fill:#00AEEF;"/>
  <circle cy="-7.555" cx="50.55" r="0.408" style="fill:#00AEEF;"/>
  <circle cy="-6.555" cx="51.55" r="0.408" style="fill:#00AEEF;"/>
  <circle cy="-5.222" cx="50.634" r="0.408" style="fill:#00AEEF;"/>
  <circle cy="-14.43" cx="58.009" r="0.408" style="fill:#00AEEF;"/>
  <circle cy="-15.222" cx="55.55" r="0.408" style="fill:#00AEEF;"/>
  <circle cy="-17.055" cx="51.3" r="0.408" style="fill:#00AEEF;"/>
  <circle cy="-27.138" cx="49.467" r="0.408" style="fill:#00AEEF;"/>
  <circle cy="-25.555" cx="49.05" r="0.408" style="fill:#00AEEF;"/>
  <circle cy="-19.888" cx="38.717" r="0.408" style="fill:#00AEEF;"/>
  <circle cy="-20.55" cx="50.879" r="0.408" style="fill:#00AEEF;"/>
  <circle cy="-13.805" cx="56.634" r="0.408" style="fill:#00AEEF;"/>
  <circle cy="-16.305" cx="20.634" r="0.408" style="fill:#00AEEF;"/>
  <circle cy="-22.222" cx="15.634" r="0.408" style="fill:#00AEEF;"/>
  <circle cy="-16.638" cx="15.967" r="0.408" style="fill:#00AEEF;"/>
  <circle cy="-15.555" cx="14.634" r="0.408" style="fill:#00AEEF;"/>
  <circle cy="-15.555" cx="18.384" r="0.408" style="fill:#00AEEF;"/>
  <circle cy="-33.638" cx="25.55" r="0.408" style="fill:#00AEEF;"/>
  <circle cy="-41.638" cx="47.3" r="0.408" style="fill:#00AEEF;"/>
  <circle cy="-21.055" cx="35.384" r="0.408" style="fill:#00AEEF;"/>
  <circle cy="-23.222" cx="36.717" r="0.408" style="fill:#00AEEF;"/>
  <circle cy="-25.388" cx="37.717" r="0.408" style="fill:#00AEEF;"/>
  <circle cy="-25.138" cx="34.3" r="0.408" style="fill:#00AEEF;"/>
  <circle cy="-23.138" cx="32.884" r="0.408" style="fill:#00AEEF;"/>
  <circle cy="-29.222" cx="58.134" r="0.408" style="fill:#00AEEF;"/>
  <circle cy="-29.555" cx="53.467" r="0.408" style="fill:#00AEEF;"/>
  <circle cy="-30.555" cx="51.134" r="0.408" style="fill:#00AEEF;"/>
  <circle cy="-32.884" cx="48.379" r="0.408" style="fill:#00AEEF;"/>
  <circle cy="-34.222" cx="45.3" r="0.408" style="fill:#00AEEF;"/>
  <circle cy="-36.472" cx="45.467" r="0.408" style="fill:#00AEEF;"/>
  <circle cy="-38.305" cx="44.8" r="0.408" style="fill:#00AEEF;"/>
  <circle cy="-37.222" cx="43.05" r="0.408" style="fill:#00AEEF;"/>
  <circle cy="-37.888" cx="40.217" r="0.408" style="fill:#00AEEF;"/>
  <circle cy="-34.971" cx="40.634" r="0.408" style="fill:#00AEEF;"/>
  <circle cy="-32.972" cx="43.384" r="0.408" style="fill:#00AEEF;"/>
  <circle cy="-36.305" cx="39.134" r="0.408" style="fill:#00AEEF;"/>
  <circle cy="-36.555" cx="36.717" r="0.408" style="fill:#00AEEF;"/>
  <circle cy="-34.971" cx="37.217" r="0.408" style="fill:#00AEEF;"/>
  <circle cy="-39.555" cx="36.634" r="0.408" style="fill:#00AEEF;"/>
  <circle cy="-43.555" cx="47.467" r="0.408" style="fill:#00AEEF;"/>
  <circle cy="-44.388" cx="41.55" r="0.408" style="fill:#00AEEF;"/>
  <circle cy="-45.138" cx="32.967" r="0.408" style="fill:#00AEEF;"/>
  <circle cy="-45.305" cx="30.467" r="0.408" style="fill:#00AEEF;"/>
  <circle cy="-45.722" cx="27.8" r="0.408" style="fill:#00AEEF;"/>
  <circle cy="-44.722" cx="26.217" r="0.408" style="fill:#00AEEF;"/>
  <circle cy="-48.138" cx="28.55" r="0.408" style="fill:#00AEEF;"/>
  <circle cy="-49.638" cx="26.467" r="0.408" style="fill:#00AEEF;"/>
  <circle cy="-52.222" cx="26.217" r="0.408" style="fill:#00AEEF;"/>
  <circle cy="-47.388" cx="25.467" r="0.408" style="fill:#00AEEF;"/>
  <circle cy="-49.384" cx="23.379" r="0.408" style="fill:#00AEEF;"/>
  <circle cy="-48.638" cx="20.55" r="0.408" style="fill:#00AEEF;"/>
  <circle cy="-47.722" cx="18.967" r="0.408" style="fill:#00AEEF;"/>
  <circle cy="-36.722" cx="49.05" r="0.408" style="fill:#00AEEF;"/>
  <circle cy="-25.638" cx="56.3" r="0.407" style="fill:#00AEEF;"/>
  <circle cy="-28.222" cx="54.717" r="0.408" style="fill:#00AEEF;"/>
  <circle cy="-23.388" cx="54.717" r="0.408" style="fill:#00AEEF;"/>
  <circle cy="-22.722" cx="57.634" r="0.408" style="fill:#00AEEF;"/>
  <circle cy="-24.867" cx="58.009" r="0.408" style="fill:#00AEEF;"/>
  <circle cy="-26.388" cx="44.967" r="0.408" style="fill:#00AEEF;"/>
  <circle cy="-25.305" cx="42.884" r="0.408" style="fill:#00AEEF;"/>
  <circle cy="-24.888" cx="46.05" r="0.408" style="fill:#00AEEF;"/>
  <circle cy="-22.471" cx="49.55" r="0.408" style="fill:#00AEEF;"/>
  <circle cy="-21.722" cx="53.55" r="0.408" style="fill:#00AEEF;"/>
  <circle cy="-19.555" cx="52.717" r="0.408" style="fill:#00AEEF;"/>
  <circle cy="-20.388" cx="55.55" r="0.407" style="fill:#00AEEF;"/>
  <circle cy="-20.222" cx="57.55" r="0.408" style="fill:#00AEEF;"/>
  <circle cy="-16.472" cx="56.967" r="0.408" style="fill:#00AEEF;"/>
  <circle cy="-17.305" cx="53.384" r="0.408" style="fill:#00AEEF;"/>
  <circle cy="-17.388" cx="47.717" r="0.408" style="fill:#00AEEF;"/>
  <circle cy="-15.638" cx="49.467" r="0.408" style="fill:#00AEEF;"/>
  <circle cy="-21.055" cx="47.05" r="0.408" style="fill:#00AEEF;"/>
  <circle cy="-23.472" cx="46.717" r="0.408" style="fill:#00AEEF;"/>
  <circle cy="-22.388" cx="44.884" r="0.408" style="fill:#00AEEF;"/>
  <circle cy="-21.221" cx="43.384" r="0.408" style="fill:#00AEEF;"/>
  <circle cy="-22.638" cx="41.3" r="0.408" style="fill:#00AEEF;"/>
  <circle cy="-24.138" cx="39.8" r="0.408" style="fill:#00AEEF;"/>
  <circle cy="-29.722" cx="48.8" r="0.408" style="fill:#00AEEF;"/>
  <circle cy="-37.388" cx="51.467" r="0.408" style="fill:#00AEEF;"/>
  <circle cy="-39.388" cx="46.967" r="0.408" style="fill:#00AEEF;"/>
  <circle cy="-42.222" cx="44.3" r="0.408" style="fill:#00AEEF;"/>
  <circle cy="-42.722" cx="39.8" r="0.408" style="fill:#00AEEF;"/>
  <circle cy="-40.222" cx="42.3" r="0.408" style="fill:#00AEEF;"/>
  <circle cy="-40.722" cx="37.967" r="0.408" style="fill:#00AEEF;"/>
  <circle cy="-41.888" cx="35.8" r="0.408" style="fill:#00AEEF;"/>
  <circle cy="-44.555" cx="37.8" r="0.408" style="fill:#00AEEF;"/>
  <circle cy="-47.555" cx="36.967" r="0.408" style="fill:#00AEEF;"/>
  <circle cy="-45.888" cx="34.967" r="0.408" style="fill:#00AEEF;"/>
  <circle cy="-48.388" cx="41.134" r="0.408" style="fill:#00AEEF;"/>
  <circle cy="-53.888" cx="57.134" r="0.408" style="fill:#00AEEF;"/>
  <circle cy="-55.388" cx="56.8" r="0.407" style="fill:#00AEEF;"/>
  <circle cy="-55.388" cx="53.634" r="0.408" style="fill:#00AEEF;"/>
  <circle cy="-53.555" cx="52.634" r="0.408" style="fill:#00AEEF;"/>
  <circle cy="-52.388" cx="55.134" r="0.408" style="fill:#00AEEF;"/>
  <circle cy="-57.055" cx="54.967" r="0.408" style="fill:#00AEEF;"/>
  <circle cy="-57.722" cx="57.134" r="0.408" style="fill:#00AEEF;"/>
  <circle cy="-57.888" cx="53.3" r="0.407" style="fill:#00AEEF;"/>
  <circle cy="-58.185" cx="50.863" r="0.407" style="fill:#00AEEF;"/>
  <circle cy="-49.888" cx="57.467" r="0.408" style="fill:#00AEEF;"/>
  <circle cy="-48.888" cx="55.467" r="0.408" style="fill:#00AEEF;"/>
  <circle cy="-48.388" cx="53.134" r="0.408" style="fill:#00AEEF;"/>
  <circle cy="-45.388" cx="56.967" r="0.408" style="fill:#00AEEF;"/>
  <circle cy="-47.305" cx="51.009" r="0.408" style="fill:#00AEEF;"/>
  <circle cy="-24.43" cx="50.509" r="0.408" style="fill:#00AEEF;"/>
  <circle cy="-52.722" cx="49.8" r="0.408" style="fill:#00AEEF;"/>
  <circle cy="-50.888" cx="49.134" r="0.408" style="fill:#00AEEF;"/>
  <circle cy="-52.222" cx="45.967" r="0.408" style="fill:#00AEEF;"/>
  <circle cy="-54.388" cx="47.3" r="0.408" style="fill:#00AEEF;"/>
  <circle cy="-57.388" cx="38.884" r="0.408" style="fill:#00AEEF;"/>
  <circle cy="-56.638" cx="43.217" r="0.408" style="fill:#00AEEF;"/>
  <circle cy="-55.055" cx="44.05" r="0.408" style="fill:#00AEEF;"/>
  <circle cy="-54.722" cx="40.717" r="0.408" style="fill:#00AEEF;"/>
  <circle cy="-57.671" cx="41.6" r="0.408" style="fill:#00AEEF;"/>
  <circle cy="-56.305" cx="37.634" r="0.408" style="fill:#00AEEF;"/>
  <circle cy="-56.221" cx="35.717" r="0.408" style="fill:#00AEEF;"/>
  <circle cy="-54.472" cx="36.384" r="0.408" style="fill:#00AEEF;"/>
  <circle cy="-57.305" cx="33.217" r="0.408" style="fill:#00AEEF;"/>
  <path d="M36.657-58.601c-0.002,0.224-0.185,0.404-0.409,0.404c-0.224,0-0.406-0.18-0.408-0.404" style="fill:#00AEEF;"/>
  <path d="M35.841-1c0.011-0.215,0.189-0.388,0.407-0.388c0.218,0,0.396,0.172,0.408,0.388" style="fill:#00AEEF;"/>
  <circle cy="-58.055" cx="6.884" r="0.408" style="fill:#00AEEF;"/>
  <circle cy="-57.222" cx="4.55" r="0.408" style="fill:#00AEEF;"/>
  <circle cy="-55.055" cx="2.55" r="0.408" style="fill:#00AEEF;"/>
  <circle cy="-55.722" cx="7.217" r="0.408" style="fill:#00AEEF;"/>
  <circle cy="-57.722" cx="9.217" r="0.408" style="fill:#00AEEF;"/>
  <circle cy="-58.055" cx="12.467" r="0.408" style="fill:#00AEEF;"/>
  <circle cy="-58.18" cx="15.821" r="0.408" style="fill:#00AEEF;"/>
  <circle cy="-57.638" cx="20.467" r="0.408" style="fill:#00AEEF;"/>
  <circle cy="-54.638" cx="25.217" r="0.408" style="fill:#00AEEF;"/>
  <circle cy="-55.388" cx="21.55" r="0.408" style="fill:#00AEEF;"/>
  <circle cy="-55.722" cx="17.717" r="0.408" style="fill:#00AEEF;"/>
  <circle cy="-55.388" cx="14.634" r="0.408" style="fill:#00AEEF;"/>
  <circle cy="-55.138" cx="11.884" r="0.408" style="fill:#00AEEF;"/>
  <circle cy="-53.721" cx="8.55" r="0.408" style="fill:#00AEEF;"/>
  <circle cy="-53.721" cx="5.3" r="0.408" style="fill:#00AEEF;"/>
  <circle cy="-51.638" cx="7.634" r="0.408" style="fill:#00AEEF;"/>
  <circle cy="-51.388" cx="4.634" r="0.408" style="fill:#00AEEF;"/>
  <circle cy="-49.722" cx="9.05" r="0.408" style="fill:#00AEEF;"/>
  <circle cy="-50.722" cx="11.3" r="0.408" style="fill:#00AEEF;"/>
  <circle cy="-51.638" cx="13.05" r="0.408" style="fill:#00AEEF;"/>
  <circle cy="-48.721" cx="12.634" r="0.408" style="fill:#00AEEF;"/>
  <circle cy="-47.305" cx="10.05" r="0.408" style="fill:#00AEEF;"/>
  <circle cy="-46.388" cx="13.05" r="0.408" style="fill:#00AEEF;"/>
  <circle cy="-47.138" cx="16.467" r="0.408" style="fill:#00AEEF;"/>
  <circle cy="-44.555" cx="11.55" r="0.408" style="fill:#00AEEF;"/>
  <circle cy="-43.805" cx="13.717" r="0.408" style="fill:#00AEEF;"/>
  <circle cy="-45.805" cx="8.05" r="0.408" style="fill:#00AEEF;"/>
  <circle cy="-47.555" cx="7.467" r="0.408" style="fill:#00AEEF;"/>
  <circle cy="-47.222" cx="4.134" r="0.408" style="fill:#00AEEF;"/>
  <circle cy="-46.388" cx="1.634" r="0.408" style="fill:#00AEEF;"/>
  <circle cy="-45.305" cx="2.884" r="0.408" style="fill:#00AEEF;"/>
  <circle cy="-45.222" cx="5.55" r="0.408" style="fill:#00AEEF;"/>
  <circle cy="-44.222" cx="6.634" r="0.408" style="fill:#00AEEF;"/>
  <circle cy="-41.472" cx="7.05" r="0.408" style="fill:#00AEEF;"/>
  <circle cy="-40.722" cx="4.217" r="0.408" style="fill:#00AEEF;"/>
  <circle cy="-38.643" cx="1.638" r="0.408" style="fill:#00AEEF;"/>
  <circle cy="-39.222" cx="5.634" r="0.408" style="fill:#00AEEF;"/>
  <circle cy="-37.222" cx="4.634" r="0.408" style="fill:#00AEEF;"/>
  <circle cy="-35.305" cx="4.967" r="0.408" style="fill:#00AEEF;"/>
  <circle cy="-35.305" cx="8.384" r="0.408" style="fill:#00AEEF;"/>
  <circle cy="-39.388" cx="9.05" r="0.408" style="fill:#00AEEF;"/>
  <circle cy="-38.721" cx="11.217" r="0.408" style="fill:#00AEEF;"/>
  <circle cy="-41.388" cx="10.884" r="0.408" style="fill:#00AEEF;"/>
  <circle cy="-41.972" cx="13.217" r="0.408" style="fill:#00AEEF;"/>
  <circle cy="-39.472" cx="13.3" r="0.408" style="fill:#00AEEF;"/>
  <circle cy="-37.805" cx="14.217" r="0.408" style="fill:#00AEEF;"/>
  <circle cy="-36.305" cx="12.717" r="0.408" style="fill:#00AEEF;"/>
  <circle cy="-35.138" cx="15.134" r="0.408" style="fill:#00AEEF;"/>
  <circle cy="-35.305" cx="17.55" r="0.408" style="fill:#00AEEF;"/>
  <circle cy="-38.222" cx="16.884" r="0.408" style="fill:#00AEEF;"/>
  <circle cy="-45.388" cx="15.55" r="0.408" style="fill:#00AEEF;"/>
  <circle cy="-32.388" cx="7.884" r="0.408" style="fill:#00AEEF;"/>
  <circle cy="-34.388" cx="6.634" r="0.408" style="fill:#00AEEF;"/>
  <circle cy="-33.388" cx="10.8" r="0.408" style="fill:#00AEEF;"/>
  <circle cy="-31.305" cx="11.884" r="0.408" style="fill:#00AEEF;"/>
  <circle cy="-30.388" cx="14.05" r="0.408" style="fill:#00AEEF;"/>
  <circle cy="-31.305" cx="16.134" r="0.408" style="fill:#00AEEF;"/>
  <circle cy="-33.305" cx="14.384" r="0.408" style="fill:#00AEEF;"/>
  <circle cy="-30.805" cx="17.967" r="0.408" style="fill:#00AEEF;"/>
  <circle cy="-35.555" cx="19.467" r="0.408" style="fill:#00AEEF;"/>
  <circle cy="-38.138" cx="21.8" r="0.408" style="fill:#00AEEF;"/>
  <circle cy="-35.722" cx="21.717" r="0.408" style="fill:#00AEEF;"/>
  <circle cy="-35.805" cx="24.55" r="0.408" style="fill:#00AEEF;"/>
  <circle cy="-37.638" cx="23.717" r="0.408" style="fill:#00AEEF;"/>
  <circle cy="-34.638" cx="27.217" r="0.408" style="fill:#00AEEF;"/>
  <circle cy="-35.972" cx="28.884" r="0.408" style="fill:#00AEEF;"/>
  <circle cy="-36.838" cx="32.184" r="0.408" style="fill:#00AEEF;"/>
  <circle cy="-43.338" cx="34.35" r="0.408" style="fill:#00AEEF;"/>
  <circle cy="-42.588" cx="25.6" r="0.408" style="fill:#00AEEF;"/>
  <circle cy="-31.672" cx="21.017" r="0.408" style="fill:#00AEEF;"/>
  <circle cy="-33.338" cx="19.684" r="0.408" style="fill:#00AEEF;"/>
  <circle cy="-42.005" cx="42.017" r="0.408" style="fill:#00AEEF;"/>
  <circle cy="-42.255" cx="38.434" r="0.408" style="fill:#00AEEF;"/>
  <circle cy="-44.755" cx="21.1" r="0.408" style="fill:#00AEEF;"/>
  <circle cy="-37.671" cx="7.6" r="0.408" style="fill:#00AEEF;"/>
  <circle cy="-36.255" cx="1.85" r="0.408" style="fill:#00AEEF;"/>
  <circle cy="-22.171" cx="38.6" r="0.408" style="fill:#00AEEF;"/>
  <circle cy="-40.222" cx="28.967" r="0.408" style="fill:#00AEEF;"/>
  <circle cy="-37.888" cx="28.3" r="0.408" style="fill:#00AEEF;"/>
  <circle cy="-38.805" cx="31.134" r="0.408" style="fill:#00AEEF;"/>
  <circle cy="-34.805" cx="30.634" r="0.408" style="fill:#00AEEF;"/>
  <circle cy="-34.888" cx="33.134" r="0.408" style="fill:#00AEEF;"/>
  <circle cy="-32.138" cx="31.634" r="0.408" style="fill:#00AEEF;"/>
  <circle cy="-32.222" cx="36.8" r="0.408" style="fill:#00AEEF;"/>
  <circle cy="-33.305" cx="35.217" r="0.408" style="fill:#00AEEF;"/>
  <circle cy="-23.305" cx="19.384" r="0.408" style="fill:#00AEEF;"/>
  <circle cy="-21.722" cx="21.05" r="0.408" style="fill:#00AEEF;"/>
  <circle cy="-21.305" cx="18.55" r="0.408" style="fill:#00AEEF;"/>
  <circle cy="-24.638" cx="16.384" r="0.408" style="fill:#00AEEF;"/>
  <circle cy="-18.555" cx="19.55" r="0.408" style="fill:#00AEEF;"/>
  <circle cy="-18.972" cx="22.05" r="0.408" style="fill:#00AEEF;"/>
  <circle cy="-17.805" cx="22.884" r="0.408" style="fill:#00AEEF;"/>
  <circle cy="-15.388" cx="23.634" r="0.408" style="fill:#00AEEF;"/>
  <circle cy="-16.138" cx="26.05" r="0.408" style="fill:#00AEEF;"/>
  <circle cy="-14.222" cx="26.967" r="0.408" style="fill:#00AEEF;"/>
  <circle cy="-13.388" cx="25.384" r="0.408" style="fill:#00AEEF;"/>
  <circle cy="-14.222" cx="17.55" r="0.408" style="fill:#00AEEF;"/>
  <circle cy="-9.888" cx="20.967" r="0.408" style="fill:#00AEEF;"/>
  <circle cy="-8.138" cx="19.55" r="0.408" style="fill:#00AEEF;"/>
  <circle cy="-7.305" cx="22.634" r="0.408" style="fill:#00AEEF;"/>
  <circle cy="-9.222" cx="24.634" r="0.408" style="fill:#00AEEF;"/>
  <circle cy="-8.555" cx="28.467" r="0.408" style="fill:#00AEEF;"/>
  <circle cy="-6.388" cx="27.134" r="0.408" style="fill:#00AEEF;"/>
  <circle cy="-5.305" cx="29.384" r="0.408" style="fill:#00AEEF;"/>
  <circle cy="-4.305" cx="32.717" r="0.408" style="fill:#00AEEF;"/>
  <circle cy="-2.972" cx="33.8" r="0.408" style="fill:#00AEEF;"/>
  <circle cy="-2.388" cx="30.467" r="0.408" style="fill:#00AEEF;"/>
  <circle cy="-8.138" cx="33.384" r="0.408" style="fill:#00AEEF;"/>
  <circle cy="-9.388" cx="36.8" r="0.408" style="fill:#00AEEF;"/>
  <circle cy="-7.555" cx="39.717" r="0.408" style="fill:#00AEEF;"/>
  <circle cy="-6.388" cx="37.717" r="0.408" style="fill:#00AEEF;"/>
  <circle cy="-8.222" cx="35.467" r="0.408" style="fill:#00AEEF;"/>
  <circle cy="-5.222" cx="35.384" r="0.408" style="fill:#00AEEF;"/>
  <circle cy="-7.388" cx="16.884" r="0.408" style="fill:#00AEEF;"/>
  <circle cy="-7.305" cx="15.134" r="0.408" style="fill:#00AEEF;"/>
  <circle cy="-10.055" cx="10.634" r="0.408" style="fill:#00AEEF;"/>
  <circle cy="-11.555" cx="7.55" r="0.408" style="fill:#00AEEF;"/>
  <circle cy="-13.721" cx="5.884" r="0.408" style="fill:#00AEEF;"/>
  <circle cy="-16.221" cx="4.634" r="0.408" style="fill:#00AEEF;"/>
  <circle cy="-19.472" cx="4.217" r="0.408" style="fill:#00AEEF;"/>
  <circle cy="-24.472" cx="7.467" r="0.408" style="fill:#00AEEF;"/>
  <circle cy="-13.972" cx="3.05" r="0.408" style="fill:#00AEEF;"/>
  <circle cy="-9.888" cx="2.3" r="0.408" style="fill:#00AEEF;"/>
  <circle cy="-11.305" cx="4.467" r="0.408" style="fill:#00AEEF;"/>
  <circle cy="-10.388" cx="5.634" r="0.408" style="fill:#00AEEF;"/>
  <circle cy="-8.555" cx="7.467" r="0.408" style="fill:#00AEEF;"/>
  <circle cy="-7.638" cx="4.134" r="0.408" style="fill:#00AEEF;"/>
  <circle cy="-6.722" cx="5.967" r="0.408" style="fill:#00AEEF;"/>
  <circle cy="-5.555" cx="4.717" r="0.408" style="fill:#00AEEF;"/>
  <circle cy="-3.472" cx="2.467" r="0.408" style="fill:#00AEEF;"/>
  <circle cy="-1.555" cx="4.55" r="0.408" style="fill:#00AEEF;"/>
  <circle cy="-3.222" cx="10.634" r="0.408" style="fill:#00AEEF;"/>
  <circle cy="-6.388" cx="10.634" r="0.408" style="fill:#00AEEF;"/>
  <circle cy="-3.138" cx="7.3" r="0.408" style="fill:#00AEEF;"/>
  <circle cy="-2.222" cx="17.134" r="0.408" style="fill:#00AEEF;"/>
  <circle cy="-2.388" cx="13.467" r="0.408" style="fill:#00AEEF;"/>
  <circle cy="-5.638" cx="12.384" r="0.408" style="fill:#00AEEF;"/>
  <circle cy="-5.222" cx="16.55" r="0.408" style="fill:#00AEEF;"/>
  <circle cy="-2.638" cx="20.217" r="0.408" style="fill:#00AEEF;"/>
  <circle cy="-19.055" cx="16.8" r="0.408" style="fill:#00AEEF;"/>
  <circle cy="-3.222" cx="25.55" r="0.408" style="fill:#00AEEF;"/>
  <circle cy="-1.559" cx="23.884" r="0.408" style="fill:#00AEEF;"/>
  <circle cy="-4.805" cx="21.384" r="0.408" style="fill:#00AEEF;"/>
  <circle cy="-6.388" cx="20.467" r="0.408" style="fill:#00AEEF;"/>
  <circle cy="-4.722" cx="24.967" r="0.408" style="fill:#00AEEF;"/>
  <circle cy="-7.471" cx="25.3" r="0.408" style="fill:#00AEEF;"/>
  <circle cy="-3.305" cx="27.55" r="0.408" style="fill:#00AEEF;"/>
  <circle cy="-1.472" cx="28.717" r="0.408" style="fill:#00AEEF;"/>
  <circle cy="-9.305" cx="14.55" r="0.408" style="fill:#00AEEF;"/>
  <circle cy="-12.3" cx="15.462" r="0.408" style="fill:#00AEEF;"/>
  <circle cy="-6.171" cx="2.767" r="0.408" style="fill:#00AEEF;"/>
  <circle cy="-13.671" cx="11.934" r="0.408" style="fill:#00AEEF;"/>
  <circle cy="-25.755" cx="24.85" r="0.408" style="fill:#00AEEF;"/>
  <circle cy="-25.255" cx="15.017" r="0.408" style="fill:#00AEEF;"/>
  <circle cy="-31.171" cx="57.184" r="0.408" style="fill:#00AEEF;"/>
  <circle cy="-32.088" cx="52.851" r="0.408" style="fill:#00AEEF;"/>
  <circle cy="-15.255" cx="31.684" r="0.408" style="fill:#00AEEF;"/>
  <circle cy="-12.305" cx="12.55" r="0.408" style="fill:#00AEEF;"/>
  <circle cy="-17.471" cx="12.467" r="0.408" style="fill:#00AEEF;"/>
  <circle cy="-21.305" cx="11.717" r="0.408" style="fill:#00AEEF;"/>
  <circle cy="-19.388" cx="10.634" r="0.408" style="fill:#00AEEF;"/>
  <circle cy="-17.388" cx="9.8" r="0.408" style="fill:#00AEEF;"/>
  <circle cy="-14.472" cx="10.55" r="0.408" style="fill:#00AEEF;"/>
  <circle cy="-14.222" cx="7.8" r="0.408" style="fill:#00AEEF;"/>
  <circle cy="-17.388" cx="7.3" r="0.408" style="fill:#00AEEF;"/>
  <circle cy="-20.138" cx="6.967" r="0.408" style="fill:#00AEEF;"/>
  <circle cy="-20.722" cx="8.8" r="0.408" style="fill:#00AEEF;"/>
  <circle cy="-23.055" cx="8.634" r="0.408" style="fill:#00AEEF;"/>
  <circle cy="-11.888" cx="27.55" r="0.408" style="fill:#00AEEF;"/>
  <circle cy="-10.222" cx="33.634" r="0.408" style="fill:#00AEEF;"/>
  <circle cy="-11.472" cx="35.55" r="0.408" style="fill:#00AEEF;"/>
  <circle cy="-10.555" cx="39.467" r="0.408" style="fill:#00AEEF;"/>
  <circle cy="-13.222" cx="39.634" r="0.408" style="fill:#00AEEF;"/>
  <circle cy="-29.638" cx="30.55" r="0.408" style="fill:#00AEEF;"/>
  <circle cy="-28.472" cx="28.8" r="0.408" style="fill:#00AEEF;"/>
  <circle cy="-29.472" cx="24.634" r="0.408" style="fill:#00AEEF;"/>
  <circle cy="-31.722" cx="24.134" r="0.408" style="fill:#00AEEF;"/>
  <circle cy="-30.472" cx="39.3" r="0.408" style="fill:#00AEEF;"/>
  <circle cy="-30.472" cx="42.217" r="0.408" style="fill:#00AEEF;"/>
  <circle cy="-28.638" cx="43.467" r="0.408" style="fill:#00AEEF;"/>
  <circle cy="-28.555" cx="38.384" r="0.408" style="fill:#00AEEF;"/>
  <circle cy="-28.388" cx="33.467" r="0.408" style="fill:#00AEEF;"/>
  <circle cy="-27.055" cx="32.134" r="0.408" style="fill:#00AEEF;"/>
  <circle cy="-26.388" cx="35.634" r="0.408" style="fill:#00AEEF;"/>
  <circle cy="-24.888" cx="31.55" r="0.408" style="fill:#00AEEF;"/>
  <circle cy="-25.472" cx="28.467" r="0.408" style="fill:#00AEEF;"/>
  <circle cy="-27.222" cx="26.134" r="0.408" style="fill:#00AEEF;"/>
  <circle cy="-27.305" cx="21.717" r="0.408" style="fill:#00AEEF;"/>
  <circle cy="-23.472" cx="22.967" r="0.408" style="fill:#00AEEF;"/>
  <circle cy="-25.472" cx="19.717" r="0.408" style="fill:#00AEEF;"/>
  <circle cy="-28.222" cx="18.3" r="0.408" style="fill:#00AEEF;"/>
  <circle cy="-28.638" cx="16.05" r="0.408" style="fill:#00AEEF;"/>
  <circle cy="-27.138" cx="15.384" r="0.408" style="fill:#00AEEF;"/>
  <circle cy="-28.638" cx="11.634" r="0.408" style="fill:#00AEEF;"/>
  <circle cy="-30.722" cx="9.384" r="0.408" style="fill:#00AEEF;"/>
  <circle cy="-28.888" cx="7.634" r="0.408" style="fill:#00AEEF;"/>
  <circle cy="-28.388" cx="9.634" r="0.408" style="fill:#00AEEF;"/>
  <circle cy="-25.888" cx="10.634" r="0.408" style="fill:#00AEEF;"/>
  <circle cy="-26.555" cx="13.05" r="0.408" style="fill:#00AEEF;"/>
  <circle cy="-30.476" cx="1.638" r="0.408" style="fill:#00AEEF;"/>
  <circle cy="-29.305" cx="2.8" r="0.408" style="fill:#00AEEF;"/>
  <circle cy="-32.638" cx="4.634" r="0.408" style="fill:#00AEEF;"/>
  <circle cy="-34.555" cx="2.967" r="0.408" style="fill:#00AEEF;"/>
  <circle cy="-19.388" cx="1.55" r="0.408" style="fill:#00AEEF;"/>
  <circle cy="-31.055" cx="5.55" r="0.408" style="fill:#00AEEF;"/>
  <circle cy="-36.722" cx="9.467" r="0.408" style="fill:#00AEEF;"/>
  <circle cy="-32.722" cx="17.967" r="0.408" style="fill:#00AEEF;"/>
  <circle cy="-55.722" cx="45.967" r="0.408" style="fill:#00AEEF;"/>
  <circle cy="-30.722" cx="32.8" r="0.408" style="fill:#00AEEF;"/>
  <circle cy="-8.555" cx="11.3" r="0.408" style="fill:#00AEEF;"/>
  <circle cy="-5.055" cx="46.967" r="0.408" style="fill:#00AEEF;"/>
  <circle cy="-23.305" cx="12.8" r="0.408" style="fill:#00AEEF;"/>
  <circle cy="-26.722" cx="6.717" r="0.408" style="fill:#00AEEF;"/>
  <circle cy="-28.305" cx="5.467" r="0.408" style="fill:#00AEEF;"/>
  <circle cy="-25.388" cx="5.55" r="0.408" style="fill:#00AEEF;"/>
  <circle cy="-25.472" cx="2.717" r="0.408" style="fill:#00AEEF;"/>
  <circle cy="-23.138" cx="2.3" r="0.408" style="fill:#00AEEF;"/>
  <circle cy="-39.305" cx="24.384" r="0.408" style="fill:#00AEEF;"/>
  <circle cy="-40.555" cx="26.55" r="0.408" style="fill:#00AEEF;"/>
  <circle cy="-42.388" cx="2.55" r="0.408" style="fill:#00AEEF;"/>
  <circle cy="-42.555" cx="17.3" r="0.408" style="fill:#00AEEF;"/>
  <circle cy="-43.305" cx="22.55" r="0.408" style="fill:#00AEEF;"/>
  <circle cy="-44.722" cx="24.134" r="0.408" style="fill:#00AEEF;"/>
  <circle cy="-42.305" cx="27.55" r="0.408" style="fill:#00AEEF;"/>
  <circle cy="-42.638" cx="31.05" r="0.408" style="fill:#00AEEF;"/>
  <circle cy="-41.472" cx="22.467" r="0.408" style="fill:#00AEEF;"/>
  <circle cy="-42.555" cx="19.634" r="0.408" style="fill:#00AEEF;"/>
  <circle cy="-41.305" cx="18.55" r="0.408" style="fill:#00AEEF;"/>
  <circle cy="-40.305" cx="15.467" r="0.408" style="fill:#00AEEF;"/>
  <circle cy="-53.388" cx="17.634" r="0.408" style="fill:#00AEEF;"/>
  <circle cy="-53.305" cx="19.8" r="0.408" style="fill:#00AEEF;"/>
  <circle cy="-51.555" cx="20.55" r="0.408" style="fill:#00AEEF;"/>
  <circle cy="-49.638" cx="18.634" r="0.408" style="fill:#00AEEF;"/>
  <circle cy="-57.305" cx="25.467" r="0.408" style="fill:#00AEEF;"/>
  <circle cy="-54.388" cx="28.634" r="0.408" style="fill:#00AEEF;"/>
  <circle cy="-53.972" cx="31.05" r="0.408" style="fill:#00AEEF;"/>
  <circle cy="-54.722" cx="32.634" r="0.408" style="fill:#00AEEF;"/>
  <circle cy="-52.805" cx="33.717" r="0.408" style="fill:#00AEEF;"/>
  <circle cy="-50.388" cx="32.55" r="0.408" style="fill:#00AEEF;"/>
  <circle cy="-50.472" cx="35.717" r="0.408" style="fill:#00AEEF;"/>
  <circle cy="-48.388" cx="34.634" r="0.408" style="fill:#00AEEF;"/>
  <circle cy="-46.388" cx="32.384" r="0.408" style="fill:#00AEEF;"/>
  <circle cy="-49.222" cx="29.717" r="0.408" style="fill:#00AEEF;"/>
  <circle cy="-52.722" cx="41.3" r="0.408" style="fill:#00AEEF;"/>
  <circle cy="-50.222" cx="42.8" r="0.408" style="fill:#00AEEF;"/>
  <circle cy="-54.971" cx="48.967" r="0.408" style="fill:#00AEEF;"/>
  <circle cy="-47.18" cx="58.134" r="0.408" style="fill:#00AEEF;"/>
  <circle cy="-53.305" cx="38.967" r="0.408" style="fill:#00AEEF;"/>
  <circle cy="-52.638" cx="36.8" r="0.408" style="fill:#00AEEF;"/>
 </g>
</svg>
