<?xml version="1.0"?>
<!-- Converted with SVG Converter - Version 0.9.6 (Compiled Thu Aug 31 10:01:05 2017) - Copyright (C) 2011 Nokia -->
<svg xmlns="http://www.w3.org/2000/svg" version="1.1" viewBox="0 -57.601 57.601 57.601" baseProfile="tiny" x="0px" height="57.601" xml:space="preserve" width="57.601" xmlns:xlink="http://www.w3.org/1999/xlink" y="0px">
 <g>
  <rect style="fill:none;" height="57.601" width="57.601" y="-57.601"/>
  <rect height="57.601" width="57.601" y="-57.601"/>
  <circle cx="49.634" r="0.777" style="fill:#FFFFFF;" cy="-44.225"/>
  <circle cx="48.884" r="0.777" style="fill:#FFFFFF;" cy="-55.433"/>
  <circle cx="42.467" r="0.777" style="fill:#FFFFFF;" cy="-51.224"/>
  <circle cx="28.467" r="0.777" style="fill:#FFFFFF;" cy="-51.308"/>
  <circle cx="22.459" r="0.777" style="fill:#FFFFFF;" cy="-51.467"/>
  <circle cx="14.384" r="0.777" style="fill:#FFFFFF;" cy="-50.558"/>
  <circle cx="10.05" r="0.777" style="fill:#FFFFFF;" cy="-52.224"/>
  <circle cx="4.634" r="0.777" style="fill:#FFFFFF;" cy="-48.391"/>
  <circle cx="1.55" r="0.778" style="fill:#FFFFFF;" cy="-49.475"/>
  <path style="fill:#FFFFFF;" d="M0-50.621c0.427-0.003,0.773-0.35,0.773-0.778c0-0.428-0.346-0.775-0.773-0.778"/>
  <path style="fill:#FFFFFF;" d="M57.601-52.176c-0.004,0-0.008,0-0.012,0c-0.43,0-0.777,0.349-0.777,0.778s0.348,0.778,0.777,0.778    c0.004,0,0.008,0,0.012,0"/>
  <circle cx="8.634" r="0.777" style="fill:#FFFFFF;" cy="-42.558"/>
  <circle cx="16.709" r="0.777" style="fill:#FFFFFF;" cy="-43.884"/>
  <circle cx="21.292" r="0.777" style="fill:#FFFFFF;" cy="-44.967"/>
  <circle cx="50.042" r="0.777" style="fill:#FFFFFF;" cy="-27.467"/>
  <circle cx="38.376" r="0.777" style="fill:#FFFFFF;" cy="-49.55"/>
  <circle cx="27.8" r="0.777" style="fill:#FFFFFF;" cy="-56.391"/>
  <circle cx="18.467" r="0.777" style="fill:#FFFFFF;" cy="-37.891"/>
  <circle cx="25.876" r="0.777" style="fill:#FFFFFF;" cy="-30.55"/>
  <circle cx="34.209" r="0.777" style="fill:#FFFFFF;" cy="-29.467"/>
  <circle cx="30.292" r="0.777" style="fill:#FFFFFF;" cy="-19.3"/>
  <circle cx="56.8" r="0.777" style="fill:#FFFFFF;" cy="-26.308"/>
  <circle cx="48.626" r="0.777" style="fill:#FFFFFF;" cy="-17.55"/>
  <circle cx="0.808" r="0.777" style="fill:#FFFFFF;" cy="-32.634"/>
  <circle cx="19.725" r="0.777" style="fill:#FFFFFF;" cy="-28.384"/>
  <circle cx="24.891" r="0.777" style="fill:#FFFFFF;" cy="-23.3"/>
  <circle cx="12.384" r="0.777" style="fill:#FFFFFF;" cy="-18.475"/>
  <circle cx="31.717" r="0.777" style="fill:#FFFFFF;" cy="-13.058"/>
  <circle cx="41.3" r="0.777" style="fill:#FFFFFF;" cy="-14.391"/>
  <circle cx="56.634" r="0.777" style="fill:#FFFFFF;" cy="-8.474"/>
  <circle cx="52.384" r="0.777" style="fill:#FFFFFF;" cy="-2.391"/>
  <circle cx="41.55" r="0.777" style="fill:#FFFFFF;" cy="-0.808"/>
  <path style="fill:#FFFFFF;" d="M45.494,0c0.019-0.413,0.358-0.741,0.775-0.741c0.417,0,0.756,0.328,0.775,0.741"/>
  <path style="fill:#FFFFFF;" d="M47.045-57.601c-0.011,0.419-0.354,0.757-0.776,0.757c-0.423,0-0.766-0.338-0.776-0.757"/>
  <circle cx="13.55" r="0.777" style="fill:#FFFFFF;" cy="-3.391"/>
  <circle cx="6.55" r="0.777" style="fill:#FFFFFF;" cy="-3.891"/>
  <circle cx="1.3" r="0.777" style="fill:#FFFFFF;" cy="-16.475"/>
  <circle cx="39.641" r="0.777" style="fill:#FFFFFF;" cy="-26.05"/>
  <circle cx="20.975" r="0.777" style="fill:#FFFFFF;" cy="-32.467"/>
  <circle cx="3.558" r="0.777" style="fill:#FFFFFF;" cy="-21.55"/>
  <circle cx="45.967" r="0.777" style="fill:#FFFFFF;" cy="-46.224"/>
  <circle cx="31.634" r="0.777" style="fill:#FFFFFF;" cy="-40.225"/>
  <circle cx="33.634" r="0.777" style="fill:#FFFFFF;" cy="-37.558"/>
  <circle cx="38.467" r="0.777" style="fill:#FFFFFF;" cy="-32.391"/>
  <circle cx="44.634" r="0.777" style="fill:#FFFFFF;" cy="-30.058"/>
  <circle cx="46.634" r="0.777" style="fill:#FFFFFF;" cy="-26.391"/>
  <circle cx="51.467" r="0.777" style="fill:#FFFFFF;" cy="-24.057"/>
  <circle cx="44.634" r="0.777" style="fill:#FFFFFF;" cy="-17.058"/>
  <circle cx="54.634" r="0.777" style="fill:#FFFFFF;" cy="-30.391"/>
  <circle cx="48.8" r="0.777" style="fill:#FFFFFF;" cy="-47.391"/>
  <circle cx="39.134" r="0.777" style="fill:#FFFFFF;" cy="-45.225"/>
  <circle cx="51.467" r="0.777" style="fill:#FFFFFF;" cy="-50.391"/>
  <circle cx="47.634" r="0.777" style="fill:#FFFFFF;" cy="-33.891"/>
  <circle cx="22.217" r="0.777" style="fill:#FFFFFF;" cy="-10.558"/>
  <circle cx="19.321" r="0.777" style="fill:#FFFFFF;" cy="-11.683"/>
  <circle cx="22.384" r="0.777" style="fill:#FFFFFF;" cy="-2.475"/>
  <circle cx="16.634" r="0.777" style="fill:#FFFFFF;" cy="-10.141"/>
  <circle cx="29.8" r="0.777" style="fill:#FFFFFF;" cy="-5.391"/>
  <circle cx="54.134" r="0.408" style="fill:#FFFFFF;" cy="-41.722"/>
  <circle cx="56.467" r="0.408" style="fill:#FFFFFF;" cy="-41.555"/>
  <circle cx="55.467" r="0.408" style="fill:#FFFFFF;" cy="-39.222"/>
  <circle cx="52.634" r="0.408" style="fill:#FFFFFF;" cy="-44.222"/>
  <circle cx="47.967" r="0.408" style="fill:#FFFFFF;" cy="-41.222"/>
  <circle cx="45.134" r="0.408" style="fill:#FFFFFF;" cy="-44.055"/>
  <circle cx="42.134" r="0.408" style="fill:#FFFFFF;" cy="-44.888"/>
  <circle cx="43.634" r="0.408" style="fill:#FFFFFF;" cy="-47.721"/>
  <circle cx="45.3" r="0.408" style="fill:#FFFFFF;" cy="-48.555"/>
  <circle cx="50.634" r="0.408" style="fill:#FFFFFF;" cy="-40.555"/>
  <circle cx="51.8" r="0.408" style="fill:#FFFFFF;" cy="-42.555"/>
  <circle cx="49.467" r="0.408" style="fill:#FFFFFF;" cy="-38.722"/>
  <circle cx="52.634" r="0.408" style="fill:#FFFFFF;" cy="-38.388"/>
  <circle cx="56.134" r="0.408" style="fill:#FFFFFF;" cy="-36.555"/>
  <circle cx="55.3" r="0.408" style="fill:#FFFFFF;" cy="-34.888"/>
  <circle cx="52.8" r="0.408" style="fill:#FFFFFF;" cy="-35.388"/>
  <circle cx="50.8" r="0.408" style="fill:#FFFFFF;" cy="-33.222"/>
  <circle cx="53.3" r="0.408" style="fill:#FFFFFF;" cy="-32.721"/>
  <circle cx="56.3" r="0.408" style="fill:#FFFFFF;" cy="-32.721"/>
  <circle cx="57.134" r="0.408" style="fill:#FFFFFF;" cy="-34.388"/>
  <circle cx="57.134" r="0.408" style="fill:#FFFFFF;" cy="-11.055"/>
  <circle cx="54.134" r="0.408" style="fill:#FFFFFF;" cy="-10.555"/>
  <circle cx="51.634" r="0.408" style="fill:#FFFFFF;" cy="-11.138"/>
  <circle cx="51.634" r="0.408" style="fill:#FFFFFF;" cy="-13.555"/>
  <circle cx="48.8" r="0.408" style="fill:#FFFFFF;" cy="-12.555"/>
  <circle cx="49.717" r="0.408" style="fill:#FFFFFF;" cy="-11.305"/>
  <circle cx="50.55" r="0.408" style="fill:#FFFFFF;" cy="-8.305"/>
  <circle cx="53.634" r="0.408" style="fill:#FFFFFF;" cy="-6.388"/>
  <circle cx="15.934" r="0.408" style="fill:#FFFFFF;" cy="-8.838"/>
  <circle cx="0.767" r="0.408" style="fill:#FFFFFF;" cy="-14.338"/>
  <circle cx="25.1" r="0.408" style="fill:#FFFFFF;" cy="-27.505"/>
  <circle cx="22.35" r="0.408" style="fill:#FFFFFF;" cy="-26.255"/>
  <circle cx="31.184" r="0.408" style="fill:#FFFFFF;" cy="-9.171"/>
  <circle cx="6.517" r="0.408" style="fill:#FFFFFF;" cy="-29.088"/>
  <circle cx="19.85" r="0.408" style="fill:#FFFFFF;" cy="-38.505"/>
  <circle cx="23.272" r="0.408" style="fill:#FFFFFF;" cy="-55"/>
  <circle cx="29.35" r="0.408" style="fill:#FFFFFF;" cy="-55.838"/>
  <circle cx="14.184" r="0.408" style="fill:#FFFFFF;" cy="-48.671"/>
  <circle cx="16.309" r="0.408" style="fill:#FFFFFF;" cy="-49.963"/>
  <circle cx="22.684" r="0.408" style="fill:#FFFFFF;" cy="-56.588"/>
  <circle cx="30.1" r="0.408" style="fill:#FFFFFF;" cy="-50.672"/>
  <circle cx="1.6" r="0.408" style="fill:#FFFFFF;" cy="-56.588"/>
  <circle cx="48.517" r="0.408" style="fill:#FFFFFF;" cy="-43.255"/>
  <circle cx="37.6" r="0.408" style="fill:#FFFFFF;" cy="-48.338"/>
  <circle cx="30.6" r="0.408" style="fill:#FFFFFF;" cy="-47.505"/>
  <circle cx="43.684" r="0.408" style="fill:#FFFFFF;" cy="-2.713"/>
  <circle cx="31.434" r="0.408" style="fill:#FFFFFF;" cy="-0.463"/>
  <circle cx="8.809" r="0.408" style="fill:#FFFFFF;" cy="-3.338"/>
  <circle cx="49.559" r="0.408" style="fill:#FFFFFF;" cy="-31.588"/>
  <circle cx="5.309" r="0.408" style="fill:#FFFFFF;" cy="-20.838"/>
  <circle cx="1.309" r="0.408" style="fill:#FFFFFF;" cy="-10.963"/>
  <circle cx="52.684" r="0.408" style="fill:#FFFFFF;" cy="-3.963"/>
  <circle cx="54.059" r="0.408" style="fill:#FFFFFF;" cy="-8.838"/>
  <circle cx="56.559" r="0.408" style="fill:#FFFFFF;" cy="-0.963"/>
  <circle cx="54.215" r="0.408" style="fill:#FFFFFF;" cy="-0.432"/>
  <circle cx="55.634" r="0.408" style="fill:#FFFFFF;" cy="-5.472"/>
  <circle cx="55.467" r="0.408" style="fill:#FFFFFF;" cy="-2.805"/>
  <circle cx="45.05" r="0.408" style="fill:#FFFFFF;" cy="-11.972"/>
  <circle cx="44.217" r="0.408" style="fill:#FFFFFF;" cy="-14.638"/>
  <circle cx="37.717" r="0.408" style="fill:#FFFFFF;" cy="-13.472"/>
  <circle cx="36.55" r="0.408" style="fill:#FFFFFF;" cy="-12.472"/>
  <circle cx="35.467" r="0.408" style="fill:#FFFFFF;" cy="-16.471"/>
  <circle cx="33.55" r="0.408" style="fill:#FFFFFF;" cy="-15.305"/>
  <circle cx="33.884" r="0.408" style="fill:#FFFFFF;" cy="-13.638"/>
  <circle cx="28.8" r="0.408" style="fill:#FFFFFF;" cy="-12.472"/>
  <circle cx="29.55" r="0.408" style="fill:#FFFFFF;" cy="-10.388"/>
  <circle cx="27.384" r="0.408" style="fill:#FFFFFF;" cy="-19.055"/>
  <circle cx="28.634" r="0.408" style="fill:#FFFFFF;" cy="-21.638"/>
  <circle cx="27.217" r="0.408" style="fill:#FFFFFF;" cy="-22.888"/>
  <circle cx="24.55" r="0.408" style="fill:#FFFFFF;" cy="-20.472"/>
  <circle cx="22.8" r="0.408" style="fill:#FFFFFF;" cy="-19.305"/>
  <circle cx="24.634" r="0.408" style="fill:#FFFFFF;" cy="-17.138"/>
  <circle cx="27.8" r="0.408" style="fill:#FFFFFF;" cy="-17.138"/>
  <circle cx="29.55" r="0.408" style="fill:#FFFFFF;" cy="-16.222"/>
  <circle cx="31.8" r="0.408" style="fill:#FFFFFF;" cy="-16.722"/>
  <circle cx="34.134" r="0.408" style="fill:#FFFFFF;" cy="-17.888"/>
  <circle cx="32.55" r="0.408" style="fill:#FFFFFF;" cy="-19.138"/>
  <circle cx="40.217" r="0.408" style="fill:#FFFFFF;" cy="-10.638"/>
  <circle cx="42.634" r="0.408" style="fill:#FFFFFF;" cy="-11.305"/>
  <circle cx="42.467" r="0.408" style="fill:#FFFFFF;" cy="-8.555"/>
  <circle cx="43.55" r="0.408" style="fill:#FFFFFF;" cy="-6.388"/>
  <circle cx="41.55" r="0.408" style="fill:#FFFFFF;" cy="-3.305"/>
  <circle cx="45.3" r="0.408" style="fill:#FFFFFF;" cy="-1.388"/>
  <circle cx="49.3" r="0.408" style="fill:#FFFFFF;" cy="-0.722"/>
  <circle cx="38.217" r="0.408" style="fill:#FFFFFF;" cy="-3.805"/>
  <circle cx="40.384" r="0.408" style="fill:#FFFFFF;" cy="-5.305"/>
  <circle cx="38.462" r="0.408" style="fill:#FFFFFF;" cy="-0.476"/>
  <circle cx="38.3" r="0.408" style="fill:#FFFFFF;" cy="-15.138"/>
  <circle cx="39.384" r="0.408" style="fill:#FFFFFF;" cy="-18.055"/>
  <circle cx="42.759" r="0.408" style="fill:#FFFFFF;" cy="-18.18"/>
  <circle cx="40.634" r="0.408" style="fill:#FFFFFF;" cy="-16.055"/>
  <circle cx="4.509" r="0.408" style="fill:#FFFFFF;" cy="-41.805"/>
  <circle cx="35.55" r="0.408" style="fill:#FFFFFF;" cy="-2.472"/>
  <circle cx="7.884" r="0.408" style="fill:#FFFFFF;" cy="-1.555"/>
  <circle cx="27.8" r="0.408" style="fill:#FFFFFF;" cy="-31.555"/>
  <circle cx="47.55" r="0.408" style="fill:#FFFFFF;" cy="-2.055"/>
  <circle cx="46.55" r="0.408" style="fill:#FFFFFF;" cy="-10.472"/>
  <circle cx="47.8" r="0.408" style="fill:#FFFFFF;" cy="-8.971"/>
  <circle cx="44.8" r="0.408" style="fill:#FFFFFF;" cy="-8.388"/>
  <circle cx="46.634" r="0.408" style="fill:#FFFFFF;" cy="-6.222"/>
  <circle cx="47.884" r="0.408" style="fill:#FFFFFF;" cy="-5.055"/>
  <circle cx="49.55" r="0.408" style="fill:#FFFFFF;" cy="-6.555"/>
  <circle cx="50.55" r="0.408" style="fill:#FFFFFF;" cy="-5.555"/>
  <circle cx="49.634" r="0.408" style="fill:#FFFFFF;" cy="-4.222"/>
  <circle cx="57.009" r="0.408" style="fill:#FFFFFF;" cy="-13.43"/>
  <circle cx="54.55" r="0.408" style="fill:#FFFFFF;" cy="-14.222"/>
  <circle cx="50.3" r="0.408" style="fill:#FFFFFF;" cy="-16.055"/>
  <circle cx="48.467" r="0.408" style="fill:#FFFFFF;" cy="-26.138"/>
  <circle cx="48.05" r="0.408" style="fill:#FFFFFF;" cy="-24.555"/>
  <circle cx="37.717" r="0.408" style="fill:#FFFFFF;" cy="-18.888"/>
  <circle cx="49.879" r="0.408" style="fill:#FFFFFF;" cy="-19.55"/>
  <circle cx="55.634" r="0.408" style="fill:#FFFFFF;" cy="-12.805"/>
  <circle cx="19.634" r="0.408" style="fill:#FFFFFF;" cy="-15.305"/>
  <circle cx="14.634" r="0.408" style="fill:#FFFFFF;" cy="-21.222"/>
  <circle cx="14.967" r="0.408" style="fill:#FFFFFF;" cy="-15.638"/>
  <circle cx="13.634" r="0.408" style="fill:#FFFFFF;" cy="-14.555"/>
  <circle cx="17.384" r="0.408" style="fill:#FFFFFF;" cy="-14.555"/>
  <circle cx="24.55" r="0.408" style="fill:#FFFFFF;" cy="-32.638"/>
  <circle cx="46.3" r="0.408" style="fill:#FFFFFF;" cy="-40.638"/>
  <circle cx="34.384" r="0.408" style="fill:#FFFFFF;" cy="-20.055"/>
  <circle cx="35.717" r="0.408" style="fill:#FFFFFF;" cy="-22.222"/>
  <circle cx="36.717" r="0.408" style="fill:#FFFFFF;" cy="-24.388"/>
  <circle cx="33.3" r="0.408" style="fill:#FFFFFF;" cy="-24.138"/>
  <circle cx="31.884" r="0.408" style="fill:#FFFFFF;" cy="-22.138"/>
  <circle cx="57.134" r="0.408" style="fill:#FFFFFF;" cy="-28.222"/>
  <circle cx="52.467" r="0.408" style="fill:#FFFFFF;" cy="-28.555"/>
  <circle cx="50.134" r="0.408" style="fill:#FFFFFF;" cy="-29.555"/>
  <circle cx="47.379" r="0.408" style="fill:#FFFFFF;" cy="-31.884"/>
  <circle cx="44.3" r="0.408" style="fill:#FFFFFF;" cy="-33.222"/>
  <circle cx="44.467" r="0.408" style="fill:#FFFFFF;" cy="-35.472"/>
  <circle cx="43.8" r="0.408" style="fill:#FFFFFF;" cy="-37.305"/>
  <circle cx="42.05" r="0.408" style="fill:#FFFFFF;" cy="-36.222"/>
  <circle cx="39.217" r="0.408" style="fill:#FFFFFF;" cy="-36.888"/>
  <circle cx="39.634" r="0.408" style="fill:#FFFFFF;" cy="-33.971"/>
  <circle cx="42.384" r="0.408" style="fill:#FFFFFF;" cy="-31.972"/>
  <circle cx="38.134" r="0.408" style="fill:#FFFFFF;" cy="-35.305"/>
  <circle cx="35.717" r="0.408" style="fill:#FFFFFF;" cy="-35.555"/>
  <circle cx="36.217" r="0.408" style="fill:#FFFFFF;" cy="-33.971"/>
  <circle cx="35.634" r="0.408" style="fill:#FFFFFF;" cy="-38.555"/>
  <circle cx="46.467" r="0.408" style="fill:#FFFFFF;" cy="-42.555"/>
  <circle cx="40.55" r="0.408" style="fill:#FFFFFF;" cy="-43.388"/>
  <circle cx="31.967" r="0.408" style="fill:#FFFFFF;" cy="-44.138"/>
  <circle cx="29.467" r="0.408" style="fill:#FFFFFF;" cy="-44.305"/>
  <circle cx="26.8" r="0.408" style="fill:#FFFFFF;" cy="-44.722"/>
  <circle cx="25.217" r="0.408" style="fill:#FFFFFF;" cy="-43.722"/>
  <circle cx="27.55" r="0.408" style="fill:#FFFFFF;" cy="-47.138"/>
  <circle cx="25.467" r="0.408" style="fill:#FFFFFF;" cy="-48.638"/>
  <circle cx="25.217" r="0.408" style="fill:#FFFFFF;" cy="-51.222"/>
  <circle cx="24.467" r="0.408" style="fill:#FFFFFF;" cy="-46.388"/>
  <circle cx="22.379" r="0.408" style="fill:#FFFFFF;" cy="-48.384"/>
  <circle cx="19.55" r="0.408" style="fill:#FFFFFF;" cy="-47.638"/>
  <circle cx="17.967" r="0.408" style="fill:#FFFFFF;" cy="-46.722"/>
  <circle cx="48.05" r="0.408" style="fill:#FFFFFF;" cy="-35.722"/>
  <circle cx="55.3" r="0.407" style="fill:#FFFFFF;" cy="-24.638"/>
  <circle cx="53.717" r="0.408" style="fill:#FFFFFF;" cy="-27.222"/>
  <circle cx="53.717" r="0.408" style="fill:#FFFFFF;" cy="-22.388"/>
  <circle cx="56.634" r="0.408" style="fill:#FFFFFF;" cy="-21.722"/>
  <circle cx="57.009" r="0.408" style="fill:#FFFFFF;" cy="-23.867"/>
  <circle cx="43.967" r="0.408" style="fill:#FFFFFF;" cy="-25.388"/>
  <circle cx="41.884" r="0.408" style="fill:#FFFFFF;" cy="-24.305"/>
  <circle cx="45.05" r="0.408" style="fill:#FFFFFF;" cy="-23.888"/>
  <circle cx="48.55" r="0.408" style="fill:#FFFFFF;" cy="-21.471"/>
  <circle cx="52.55" r="0.408" style="fill:#FFFFFF;" cy="-20.722"/>
  <circle cx="51.717" r="0.408" style="fill:#FFFFFF;" cy="-18.555"/>
  <circle cx="54.55" r="0.407" style="fill:#FFFFFF;" cy="-19.388"/>
  <circle cx="56.55" r="0.408" style="fill:#FFFFFF;" cy="-19.222"/>
  <circle cx="55.967" r="0.408" style="fill:#FFFFFF;" cy="-15.472"/>
  <circle cx="52.384" r="0.408" style="fill:#FFFFFF;" cy="-16.305"/>
  <circle cx="46.717" r="0.408" style="fill:#FFFFFF;" cy="-16.388"/>
  <circle cx="48.467" r="0.408" style="fill:#FFFFFF;" cy="-14.638"/>
  <circle cx="46.05" r="0.408" style="fill:#FFFFFF;" cy="-20.055"/>
  <circle cx="45.717" r="0.408" style="fill:#FFFFFF;" cy="-22.472"/>
  <circle cx="43.884" r="0.408" style="fill:#FFFFFF;" cy="-21.388"/>
  <circle cx="42.384" r="0.408" style="fill:#FFFFFF;" cy="-20.221"/>
  <circle cx="40.3" r="0.408" style="fill:#FFFFFF;" cy="-21.638"/>
  <circle cx="38.8" r="0.408" style="fill:#FFFFFF;" cy="-23.138"/>
  <circle cx="47.8" r="0.408" style="fill:#FFFFFF;" cy="-28.722"/>
  <circle cx="50.467" r="0.408" style="fill:#FFFFFF;" cy="-36.388"/>
  <circle cx="45.967" r="0.408" style="fill:#FFFFFF;" cy="-38.388"/>
  <circle cx="43.3" r="0.408" style="fill:#FFFFFF;" cy="-41.222"/>
  <circle cx="38.8" r="0.408" style="fill:#FFFFFF;" cy="-41.722"/>
  <circle cx="41.3" r="0.408" style="fill:#FFFFFF;" cy="-39.222"/>
  <circle cx="36.967" r="0.408" style="fill:#FFFFFF;" cy="-39.722"/>
  <circle cx="34.8" r="0.408" style="fill:#FFFFFF;" cy="-40.888"/>
  <circle cx="36.8" r="0.408" style="fill:#FFFFFF;" cy="-43.555"/>
  <circle cx="35.967" r="0.408" style="fill:#FFFFFF;" cy="-46.555"/>
  <circle cx="33.967" r="0.408" style="fill:#FFFFFF;" cy="-44.888"/>
  <circle cx="40.134" r="0.408" style="fill:#FFFFFF;" cy="-47.388"/>
  <circle cx="56.134" r="0.408" style="fill:#FFFFFF;" cy="-52.888"/>
  <circle cx="55.8" r="0.407" style="fill:#FFFFFF;" cy="-54.388"/>
  <circle cx="52.634" r="0.408" style="fill:#FFFFFF;" cy="-54.388"/>
  <circle cx="51.634" r="0.408" style="fill:#FFFFFF;" cy="-52.555"/>
  <circle cx="54.134" r="0.408" style="fill:#FFFFFF;" cy="-51.388"/>
  <circle cx="53.967" r="0.408" style="fill:#FFFFFF;" cy="-56.055"/>
  <circle cx="56.134" r="0.408" style="fill:#FFFFFF;" cy="-56.722"/>
  <circle cx="52.3" r="0.407" style="fill:#FFFFFF;" cy="-56.888"/>
  <circle cx="49.863" r="0.407" style="fill:#FFFFFF;" cy="-57.185"/>
  <circle cx="56.467" r="0.408" style="fill:#FFFFFF;" cy="-48.888"/>
  <circle cx="54.467" r="0.408" style="fill:#FFFFFF;" cy="-47.888"/>
  <circle cx="52.134" r="0.408" style="fill:#FFFFFF;" cy="-47.388"/>
  <circle cx="55.967" r="0.408" style="fill:#FFFFFF;" cy="-44.388"/>
  <circle cx="50.009" r="0.408" style="fill:#FFFFFF;" cy="-46.305"/>
  <circle cx="49.509" r="0.408" style="fill:#FFFFFF;" cy="-23.43"/>
  <circle cx="48.8" r="0.408" style="fill:#FFFFFF;" cy="-51.722"/>
  <circle cx="48.134" r="0.408" style="fill:#FFFFFF;" cy="-49.888"/>
  <circle cx="44.967" r="0.408" style="fill:#FFFFFF;" cy="-51.222"/>
  <circle cx="46.3" r="0.408" style="fill:#FFFFFF;" cy="-53.388"/>
  <circle cx="37.884" r="0.408" style="fill:#FFFFFF;" cy="-56.388"/>
  <circle cx="42.217" r="0.408" style="fill:#FFFFFF;" cy="-55.638"/>
  <circle cx="43.05" r="0.408" style="fill:#FFFFFF;" cy="-54.055"/>
  <circle cx="39.717" r="0.408" style="fill:#FFFFFF;" cy="-53.722"/>
  <circle cx="40.6" r="0.408" style="fill:#FFFFFF;" cy="-56.671"/>
  <circle cx="36.634" r="0.408" style="fill:#FFFFFF;" cy="-55.305"/>
  <circle cx="34.717" r="0.408" style="fill:#FFFFFF;" cy="-55.221"/>
  <circle cx="35.384" r="0.408" style="fill:#FFFFFF;" cy="-53.472"/>
  <circle cx="32.217" r="0.408" style="fill:#FFFFFF;" cy="-56.305"/>
  <path style="fill:#FFFFFF;" d="M35.657-57.601c-0.002,0.224-0.185,0.404-0.409,0.404c-0.224,0-0.406-0.18-0.408-0.404"/>
  <path style="fill:#FFFFFF;" d="M34.841,0c0.011-0.215,0.189-0.388,0.407-0.388c0.218,0,0.396,0.172,0.408,0.388"/>
  <circle cx="5.884" r="0.408" style="fill:#FFFFFF;" cy="-57.055"/>
  <circle cx="3.55" r="0.408" style="fill:#FFFFFF;" cy="-56.222"/>
  <circle cx="1.55" r="0.408" style="fill:#FFFFFF;" cy="-54.055"/>
  <circle cx="6.217" r="0.408" style="fill:#FFFFFF;" cy="-54.722"/>
  <circle cx="8.217" r="0.408" style="fill:#FFFFFF;" cy="-56.722"/>
  <circle cx="11.467" r="0.408" style="fill:#FFFFFF;" cy="-57.055"/>
  <circle cx="14.821" r="0.408" style="fill:#FFFFFF;" cy="-57.18"/>
  <circle cx="19.467" r="0.408" style="fill:#FFFFFF;" cy="-56.638"/>
  <circle cx="24.217" r="0.408" style="fill:#FFFFFF;" cy="-53.638"/>
  <circle cx="20.55" r="0.408" style="fill:#FFFFFF;" cy="-54.388"/>
  <circle cx="16.717" r="0.408" style="fill:#FFFFFF;" cy="-54.722"/>
  <circle cx="13.634" r="0.408" style="fill:#FFFFFF;" cy="-54.388"/>
  <circle cx="10.884" r="0.408" style="fill:#FFFFFF;" cy="-54.138"/>
  <circle cx="7.55" r="0.408" style="fill:#FFFFFF;" cy="-52.721"/>
  <circle cx="4.3" r="0.408" style="fill:#FFFFFF;" cy="-52.721"/>
  <circle cx="6.634" r="0.408" style="fill:#FFFFFF;" cy="-50.638"/>
  <circle cx="3.634" r="0.408" style="fill:#FFFFFF;" cy="-50.388"/>
  <circle cx="8.05" r="0.408" style="fill:#FFFFFF;" cy="-48.722"/>
  <circle cx="10.3" r="0.408" style="fill:#FFFFFF;" cy="-49.722"/>
  <circle cx="12.05" r="0.408" style="fill:#FFFFFF;" cy="-50.638"/>
  <circle cx="11.634" r="0.408" style="fill:#FFFFFF;" cy="-47.721"/>
  <circle cx="9.05" r="0.408" style="fill:#FFFFFF;" cy="-46.305"/>
  <circle cx="12.05" r="0.408" style="fill:#FFFFFF;" cy="-45.388"/>
  <circle cx="15.467" r="0.408" style="fill:#FFFFFF;" cy="-46.138"/>
  <circle cx="10.55" r="0.408" style="fill:#FFFFFF;" cy="-43.555"/>
  <circle cx="12.717" r="0.408" style="fill:#FFFFFF;" cy="-42.805"/>
  <circle cx="7.05" r="0.408" style="fill:#FFFFFF;" cy="-44.805"/>
  <circle cx="6.467" r="0.408" style="fill:#FFFFFF;" cy="-46.555"/>
  <circle cx="3.134" r="0.408" style="fill:#FFFFFF;" cy="-46.222"/>
  <circle cx="0.634" r="0.408" style="fill:#FFFFFF;" cy="-45.388"/>
  <circle cx="1.884" r="0.408" style="fill:#FFFFFF;" cy="-44.305"/>
  <circle cx="4.55" r="0.408" style="fill:#FFFFFF;" cy="-44.222"/>
  <circle cx="5.634" r="0.408" style="fill:#FFFFFF;" cy="-43.222"/>
  <circle cx="6.05" r="0.408" style="fill:#FFFFFF;" cy="-40.472"/>
  <circle cx="3.217" r="0.408" style="fill:#FFFFFF;" cy="-39.722"/>
  <circle cx="0.638" r="0.408" style="fill:#FFFFFF;" cy="-37.643"/>
  <circle cx="4.634" r="0.408" style="fill:#FFFFFF;" cy="-38.222"/>
  <circle cx="3.634" r="0.408" style="fill:#FFFFFF;" cy="-36.222"/>
  <circle cx="3.967" r="0.408" style="fill:#FFFFFF;" cy="-34.305"/>
  <circle cx="7.384" r="0.408" style="fill:#FFFFFF;" cy="-34.305"/>
  <circle cx="8.05" r="0.408" style="fill:#FFFFFF;" cy="-38.388"/>
  <circle cx="10.217" r="0.408" style="fill:#FFFFFF;" cy="-37.721"/>
  <circle cx="9.884" r="0.408" style="fill:#FFFFFF;" cy="-40.388"/>
  <circle cx="12.217" r="0.408" style="fill:#FFFFFF;" cy="-40.972"/>
  <circle cx="12.3" r="0.408" style="fill:#FFFFFF;" cy="-38.472"/>
  <circle cx="13.217" r="0.408" style="fill:#FFFFFF;" cy="-36.805"/>
  <circle cx="11.717" r="0.408" style="fill:#FFFFFF;" cy="-35.305"/>
  <circle cx="14.134" r="0.408" style="fill:#FFFFFF;" cy="-34.138"/>
  <circle cx="16.55" r="0.408" style="fill:#FFFFFF;" cy="-34.305"/>
  <circle cx="15.884" r="0.408" style="fill:#FFFFFF;" cy="-37.222"/>
  <circle cx="14.55" r="0.408" style="fill:#FFFFFF;" cy="-44.388"/>
  <circle cx="6.884" r="0.408" style="fill:#FFFFFF;" cy="-31.388"/>
  <circle cx="5.634" r="0.408" style="fill:#FFFFFF;" cy="-33.388"/>
  <circle cx="9.8" r="0.408" style="fill:#FFFFFF;" cy="-32.388"/>
  <circle cx="10.884" r="0.408" style="fill:#FFFFFF;" cy="-30.305"/>
  <circle cx="13.05" r="0.408" style="fill:#FFFFFF;" cy="-29.388"/>
  <circle cx="15.134" r="0.408" style="fill:#FFFFFF;" cy="-30.305"/>
  <circle cx="13.384" r="0.408" style="fill:#FFFFFF;" cy="-32.305"/>
  <circle cx="16.967" r="0.408" style="fill:#FFFFFF;" cy="-29.805"/>
  <circle cx="18.467" r="0.408" style="fill:#FFFFFF;" cy="-34.555"/>
  <circle cx="20.8" r="0.408" style="fill:#FFFFFF;" cy="-37.138"/>
  <circle cx="20.717" r="0.408" style="fill:#FFFFFF;" cy="-34.722"/>
  <circle cx="23.55" r="0.408" style="fill:#FFFFFF;" cy="-34.805"/>
  <circle cx="22.717" r="0.408" style="fill:#FFFFFF;" cy="-36.638"/>
  <circle cx="26.217" r="0.408" style="fill:#FFFFFF;" cy="-33.638"/>
  <circle cx="27.884" r="0.408" style="fill:#FFFFFF;" cy="-34.972"/>
  <circle cx="31.184" r="0.408" style="fill:#FFFFFF;" cy="-35.838"/>
  <circle cx="33.35" r="0.408" style="fill:#FFFFFF;" cy="-42.338"/>
  <circle cx="24.6" r="0.408" style="fill:#FFFFFF;" cy="-41.588"/>
  <circle cx="20.017" r="0.408" style="fill:#FFFFFF;" cy="-30.672"/>
  <circle cx="18.684" r="0.408" style="fill:#FFFFFF;" cy="-32.338"/>
  <circle cx="41.017" r="0.408" style="fill:#FFFFFF;" cy="-41.005"/>
  <circle cx="37.434" r="0.408" style="fill:#FFFFFF;" cy="-41.255"/>
  <circle cx="20.1" r="0.408" style="fill:#FFFFFF;" cy="-43.755"/>
  <circle cx="6.6" r="0.408" style="fill:#FFFFFF;" cy="-36.671"/>
  <circle cx="0.85" r="0.408" style="fill:#FFFFFF;" cy="-35.255"/>
  <circle cx="37.6" r="0.408" style="fill:#FFFFFF;" cy="-21.171"/>
  <circle cx="27.967" r="0.408" style="fill:#FFFFFF;" cy="-39.222"/>
  <circle cx="27.3" r="0.408" style="fill:#FFFFFF;" cy="-36.888"/>
  <circle cx="30.134" r="0.408" style="fill:#FFFFFF;" cy="-37.805"/>
  <circle cx="29.634" r="0.408" style="fill:#FFFFFF;" cy="-33.805"/>
  <circle cx="32.134" r="0.408" style="fill:#FFFFFF;" cy="-33.888"/>
  <circle cx="30.634" r="0.408" style="fill:#FFFFFF;" cy="-31.138"/>
  <circle cx="35.8" r="0.408" style="fill:#FFFFFF;" cy="-31.222"/>
  <circle cx="34.217" r="0.408" style="fill:#FFFFFF;" cy="-32.305"/>
  <circle cx="18.384" r="0.408" style="fill:#FFFFFF;" cy="-22.305"/>
  <circle cx="20.05" r="0.408" style="fill:#FFFFFF;" cy="-20.722"/>
  <circle cx="17.55" r="0.408" style="fill:#FFFFFF;" cy="-20.305"/>
  <circle cx="15.384" r="0.408" style="fill:#FFFFFF;" cy="-23.638"/>
  <circle cx="18.55" r="0.408" style="fill:#FFFFFF;" cy="-17.555"/>
  <circle cx="21.05" r="0.408" style="fill:#FFFFFF;" cy="-17.972"/>
  <circle cx="21.884" r="0.408" style="fill:#FFFFFF;" cy="-16.805"/>
  <circle cx="22.634" r="0.408" style="fill:#FFFFFF;" cy="-14.388"/>
  <circle cx="25.05" r="0.408" style="fill:#FFFFFF;" cy="-15.138"/>
  <circle cx="25.967" r="0.408" style="fill:#FFFFFF;" cy="-13.222"/>
  <circle cx="24.384" r="0.408" style="fill:#FFFFFF;" cy="-12.388"/>
  <circle cx="16.55" r="0.408" style="fill:#FFFFFF;" cy="-13.222"/>
  <circle cx="19.967" r="0.408" style="fill:#FFFFFF;" cy="-8.888"/>
  <circle cx="18.55" r="0.408" style="fill:#FFFFFF;" cy="-7.138"/>
  <circle cx="21.634" r="0.408" style="fill:#FFFFFF;" cy="-6.305"/>
  <circle cx="23.634" r="0.408" style="fill:#FFFFFF;" cy="-8.222"/>
  <circle cx="27.467" r="0.408" style="fill:#FFFFFF;" cy="-7.555"/>
  <circle cx="26.134" r="0.408" style="fill:#FFFFFF;" cy="-5.388"/>
  <circle cx="28.384" r="0.408" style="fill:#FFFFFF;" cy="-4.305"/>
  <circle cx="31.717" r="0.408" style="fill:#FFFFFF;" cy="-3.305"/>
  <circle cx="32.8" r="0.408" style="fill:#FFFFFF;" cy="-1.972"/>
  <circle cx="29.467" r="0.408" style="fill:#FFFFFF;" cy="-1.388"/>
  <circle cx="32.384" r="0.408" style="fill:#FFFFFF;" cy="-7.138"/>
  <circle cx="35.8" r="0.408" style="fill:#FFFFFF;" cy="-8.388"/>
  <circle cx="38.717" r="0.408" style="fill:#FFFFFF;" cy="-6.555"/>
  <circle cx="36.717" r="0.408" style="fill:#FFFFFF;" cy="-5.388"/>
  <circle cx="34.467" r="0.408" style="fill:#FFFFFF;" cy="-7.222"/>
  <circle cx="34.384" r="0.408" style="fill:#FFFFFF;" cy="-4.222"/>
  <circle cx="15.884" r="0.408" style="fill:#FFFFFF;" cy="-6.388"/>
  <circle cx="14.134" r="0.408" style="fill:#FFFFFF;" cy="-6.305"/>
  <circle cx="9.634" r="0.408" style="fill:#FFFFFF;" cy="-9.055"/>
  <circle cx="6.55" r="0.408" style="fill:#FFFFFF;" cy="-10.555"/>
  <circle cx="4.884" r="0.408" style="fill:#FFFFFF;" cy="-12.721"/>
  <circle cx="3.634" r="0.408" style="fill:#FFFFFF;" cy="-15.221"/>
  <circle cx="3.217" r="0.408" style="fill:#FFFFFF;" cy="-18.472"/>
  <circle cx="6.467" r="0.408" style="fill:#FFFFFF;" cy="-23.472"/>
  <circle cx="2.05" r="0.408" style="fill:#FFFFFF;" cy="-12.972"/>
  <circle cx="1.3" r="0.408" style="fill:#FFFFFF;" cy="-8.888"/>
  <circle cx="3.467" r="0.408" style="fill:#FFFFFF;" cy="-10.305"/>
  <circle cx="4.634" r="0.408" style="fill:#FFFFFF;" cy="-9.388"/>
  <circle cx="6.467" r="0.408" style="fill:#FFFFFF;" cy="-7.555"/>
  <circle cx="3.134" r="0.408" style="fill:#FFFFFF;" cy="-6.638"/>
  <circle cx="4.967" r="0.408" style="fill:#FFFFFF;" cy="-5.722"/>
  <circle cx="3.717" r="0.408" style="fill:#FFFFFF;" cy="-4.555"/>
  <circle cx="1.467" r="0.408" style="fill:#FFFFFF;" cy="-2.472"/>
  <circle cx="3.55" r="0.408" style="fill:#FFFFFF;" cy="-0.555"/>
  <circle cx="9.634" r="0.408" style="fill:#FFFFFF;" cy="-2.222"/>
  <circle cx="9.634" r="0.408" style="fill:#FFFFFF;" cy="-5.388"/>
  <circle cx="6.3" r="0.408" style="fill:#FFFFFF;" cy="-2.138"/>
  <circle cx="16.134" r="0.408" style="fill:#FFFFFF;" cy="-1.222"/>
  <circle cx="12.467" r="0.408" style="fill:#FFFFFF;" cy="-1.388"/>
  <circle cx="11.384" r="0.408" style="fill:#FFFFFF;" cy="-4.638"/>
  <circle cx="15.55" r="0.408" style="fill:#FFFFFF;" cy="-4.222"/>
  <circle cx="19.217" r="0.408" style="fill:#FFFFFF;" cy="-1.638"/>
  <circle cx="15.8" r="0.408" style="fill:#FFFFFF;" cy="-18.055"/>
  <circle cx="24.55" r="0.408" style="fill:#FFFFFF;" cy="-2.222"/>
  <circle cx="22.884" r="0.408" style="fill:#FFFFFF;" cy="-0.559"/>
  <circle cx="20.384" r="0.408" style="fill:#FFFFFF;" cy="-3.805"/>
  <circle cx="19.467" r="0.408" style="fill:#FFFFFF;" cy="-5.388"/>
  <circle cx="23.967" r="0.408" style="fill:#FFFFFF;" cy="-3.722"/>
  <circle cx="24.3" r="0.408" style="fill:#FFFFFF;" cy="-6.471"/>
  <circle cx="26.55" r="0.408" style="fill:#FFFFFF;" cy="-2.305"/>
  <circle cx="27.717" r="0.408" style="fill:#FFFFFF;" cy="-0.472"/>
  <circle cx="13.55" r="0.408" style="fill:#FFFFFF;" cy="-8.305"/>
  <circle cx="14.462" r="0.408" style="fill:#FFFFFF;" cy="-11.3"/>
  <circle cx="1.767" r="0.408" style="fill:#FFFFFF;" cy="-5.171"/>
  <circle cx="10.934" r="0.408" style="fill:#FFFFFF;" cy="-12.671"/>
  <circle cx="23.85" r="0.408" style="fill:#FFFFFF;" cy="-24.755"/>
  <circle cx="14.017" r="0.408" style="fill:#FFFFFF;" cy="-24.255"/>
  <circle cx="56.184" r="0.408" style="fill:#FFFFFF;" cy="-30.171"/>
  <circle cx="51.851" r="0.408" style="fill:#FFFFFF;" cy="-31.088"/>
  <circle cx="30.684" r="0.408" style="fill:#FFFFFF;" cy="-14.255"/>
  <circle cx="11.55" r="0.408" style="fill:#FFFFFF;" cy="-11.305"/>
  <circle cx="11.467" r="0.408" style="fill:#FFFFFF;" cy="-16.471"/>
  <circle cx="10.717" r="0.408" style="fill:#FFFFFF;" cy="-20.305"/>
  <circle cx="9.634" r="0.408" style="fill:#FFFFFF;" cy="-18.388"/>
  <circle cx="8.8" r="0.408" style="fill:#FFFFFF;" cy="-16.388"/>
  <circle cx="9.55" r="0.408" style="fill:#FFFFFF;" cy="-13.472"/>
  <circle cx="6.8" r="0.408" style="fill:#FFFFFF;" cy="-13.222"/>
  <circle cx="6.3" r="0.408" style="fill:#FFFFFF;" cy="-16.388"/>
  <circle cx="5.967" r="0.408" style="fill:#FFFFFF;" cy="-19.138"/>
  <circle cx="7.8" r="0.408" style="fill:#FFFFFF;" cy="-19.722"/>
  <circle cx="7.634" r="0.408" style="fill:#FFFFFF;" cy="-22.055"/>
  <circle cx="26.55" r="0.408" style="fill:#FFFFFF;" cy="-10.888"/>
  <circle cx="32.634" r="0.408" style="fill:#FFFFFF;" cy="-9.222"/>
  <circle cx="34.55" r="0.408" style="fill:#FFFFFF;" cy="-10.472"/>
  <circle cx="38.467" r="0.408" style="fill:#FFFFFF;" cy="-9.555"/>
  <circle cx="38.634" r="0.408" style="fill:#FFFFFF;" cy="-12.222"/>
  <circle cx="29.55" r="0.408" style="fill:#FFFFFF;" cy="-28.638"/>
  <circle cx="27.8" r="0.408" style="fill:#FFFFFF;" cy="-27.472"/>
  <circle cx="23.634" r="0.408" style="fill:#FFFFFF;" cy="-28.472"/>
  <circle cx="23.134" r="0.408" style="fill:#FFFFFF;" cy="-30.722"/>
  <circle cx="38.3" r="0.408" style="fill:#FFFFFF;" cy="-29.472"/>
  <circle cx="41.217" r="0.408" style="fill:#FFFFFF;" cy="-29.472"/>
  <circle cx="42.467" r="0.408" style="fill:#FFFFFF;" cy="-27.638"/>
  <circle cx="37.384" r="0.408" style="fill:#FFFFFF;" cy="-27.555"/>
  <circle cx="32.467" r="0.408" style="fill:#FFFFFF;" cy="-27.388"/>
  <circle cx="31.134" r="0.408" style="fill:#FFFFFF;" cy="-26.055"/>
  <circle cx="34.634" r="0.408" style="fill:#FFFFFF;" cy="-25.388"/>
  <circle cx="30.55" r="0.408" style="fill:#FFFFFF;" cy="-23.888"/>
  <circle cx="27.467" r="0.408" style="fill:#FFFFFF;" cy="-24.472"/>
  <circle cx="25.134" r="0.408" style="fill:#FFFFFF;" cy="-26.222"/>
  <circle cx="20.717" r="0.408" style="fill:#FFFFFF;" cy="-26.305"/>
  <circle cx="21.967" r="0.408" style="fill:#FFFFFF;" cy="-22.472"/>
  <circle cx="18.717" r="0.408" style="fill:#FFFFFF;" cy="-24.472"/>
  <circle cx="17.3" r="0.408" style="fill:#FFFFFF;" cy="-27.222"/>
  <circle cx="15.05" r="0.408" style="fill:#FFFFFF;" cy="-27.638"/>
  <circle cx="14.384" r="0.408" style="fill:#FFFFFF;" cy="-26.138"/>
  <circle cx="10.634" r="0.408" style="fill:#FFFFFF;" cy="-27.638"/>
  <circle cx="8.384" r="0.408" style="fill:#FFFFFF;" cy="-29.722"/>
  <circle cx="6.634" r="0.408" style="fill:#FFFFFF;" cy="-27.888"/>
  <circle cx="8.634" r="0.408" style="fill:#FFFFFF;" cy="-27.388"/>
  <circle cx="9.634" r="0.408" style="fill:#FFFFFF;" cy="-24.888"/>
  <circle cx="12.05" r="0.408" style="fill:#FFFFFF;" cy="-25.555"/>
  <circle cx="0.638" r="0.408" style="fill:#FFFFFF;" cy="-29.476"/>
  <circle cx="1.8" r="0.408" style="fill:#FFFFFF;" cy="-28.305"/>
  <circle cx="3.634" r="0.408" style="fill:#FFFFFF;" cy="-31.638"/>
  <circle cx="1.967" r="0.408" style="fill:#FFFFFF;" cy="-33.555"/>
  <circle cx="0.55" r="0.408" style="fill:#FFFFFF;" cy="-18.388"/>
  <circle cx="4.55" r="0.408" style="fill:#FFFFFF;" cy="-30.055"/>
  <circle cx="8.467" r="0.408" style="fill:#FFFFFF;" cy="-35.722"/>
  <circle cx="16.967" r="0.408" style="fill:#FFFFFF;" cy="-31.722"/>
  <circle cx="44.967" r="0.408" style="fill:#FFFFFF;" cy="-54.722"/>
  <circle cx="31.8" r="0.408" style="fill:#FFFFFF;" cy="-29.722"/>
  <circle cx="10.3" r="0.408" style="fill:#FFFFFF;" cy="-7.555"/>
  <circle cx="45.967" r="0.408" style="fill:#FFFFFF;" cy="-4.055"/>
  <circle cx="11.8" r="0.408" style="fill:#FFFFFF;" cy="-22.305"/>
  <circle cx="5.717" r="0.408" style="fill:#FFFFFF;" cy="-25.722"/>
  <circle cx="4.467" r="0.408" style="fill:#FFFFFF;" cy="-27.305"/>
  <circle cx="4.55" r="0.408" style="fill:#FFFFFF;" cy="-24.388"/>
  <circle cx="1.717" r="0.408" style="fill:#FFFFFF;" cy="-24.472"/>
  <circle cx="1.3" r="0.408" style="fill:#FFFFFF;" cy="-22.138"/>
  <circle cx="23.384" r="0.408" style="fill:#FFFFFF;" cy="-38.305"/>
  <circle cx="25.55" r="0.408" style="fill:#FFFFFF;" cy="-39.555"/>
  <circle cx="1.55" r="0.408" style="fill:#FFFFFF;" cy="-41.388"/>
  <circle cx="16.3" r="0.408" style="fill:#FFFFFF;" cy="-41.555"/>
  <circle cx="21.55" r="0.408" style="fill:#FFFFFF;" cy="-42.305"/>
  <circle cx="23.134" r="0.408" style="fill:#FFFFFF;" cy="-43.722"/>
  <circle cx="26.55" r="0.408" style="fill:#FFFFFF;" cy="-41.305"/>
  <circle cx="30.05" r="0.408" style="fill:#FFFFFF;" cy="-41.638"/>
  <circle cx="21.467" r="0.408" style="fill:#FFFFFF;" cy="-40.472"/>
  <circle cx="18.634" r="0.408" style="fill:#FFFFFF;" cy="-41.555"/>
  <circle cx="17.55" r="0.408" style="fill:#FFFFFF;" cy="-40.305"/>
  <circle cx="14.467" r="0.408" style="fill:#FFFFFF;" cy="-39.305"/>
  <circle cx="16.634" r="0.408" style="fill:#FFFFFF;" cy="-52.388"/>
  <circle cx="18.8" r="0.408" style="fill:#FFFFFF;" cy="-52.305"/>
  <circle cx="19.55" r="0.408" style="fill:#FFFFFF;" cy="-50.555"/>
  <circle cx="17.634" r="0.408" style="fill:#FFFFFF;" cy="-48.638"/>
  <circle cx="24.467" r="0.408" style="fill:#FFFFFF;" cy="-56.305"/>
  <circle cx="27.634" r="0.408" style="fill:#FFFFFF;" cy="-53.388"/>
  <circle cx="30.05" r="0.408" style="fill:#FFFFFF;" cy="-52.972"/>
  <circle cx="31.634" r="0.408" style="fill:#FFFFFF;" cy="-53.722"/>
  <circle cx="32.717" r="0.408" style="fill:#FFFFFF;" cy="-51.805"/>
  <circle cx="31.55" r="0.408" style="fill:#FFFFFF;" cy="-49.388"/>
  <circle cx="34.717" r="0.408" style="fill:#FFFFFF;" cy="-49.472"/>
  <circle cx="33.634" r="0.408" style="fill:#FFFFFF;" cy="-47.388"/>
  <circle cx="31.384" r="0.408" style="fill:#FFFFFF;" cy="-45.388"/>
  <circle cx="28.717" r="0.408" style="fill:#FFFFFF;" cy="-48.222"/>
  <circle cx="40.3" r="0.408" style="fill:#FFFFFF;" cy="-51.722"/>
  <circle cx="41.8" r="0.408" style="fill:#FFFFFF;" cy="-49.222"/>
  <circle cx="47.967" r="0.408" style="fill:#FFFFFF;" cy="-53.971"/>
  <circle cx="57.134" r="0.408" style="fill:#FFFFFF;" cy="-46.18"/>
  <circle cx="37.967" r="0.408" style="fill:#FFFFFF;" cy="-52.305"/>
  <circle cx="35.8" r="0.408" style="fill:#FFFFFF;" cy="-51.638"/>
 </g>
</svg>
