<?xml version="1.0"?>
<!-- Converted with SVG Converter - Version 0.9.5 (Compiled Fri Feb 21 09:53:38 2020) - Copyright (C) 2011 Nokia -->
<svg xmlns="http://www.w3.org/2000/svg" width="57.6" version="1.1" xmlns:xlink="http://www.w3.org/1999/xlink" x="0px" baseProfile="tiny" y="0px" xml:space="preserve" height="57.601" viewBox="0 -57.601 57.6 57.601">
 <g>
  <rect width="57.6" x="0" y="-57.601" style="fill:none;" height="57.601"/>
  <circle cx="53.987" style="fill-rule:evenodd;clip-rule:evenodd;fill:#ED1B2E;" r="0.884" cy="-55.238"/>
  <circle cx="48.425" style="fill-rule:evenodd;clip-rule:evenodd;fill:#ED1B2E;" r="0.884" cy="-55.051"/>
  <path style="fill-rule:evenodd;clip-rule:evenodd;fill:#ED1B2E;" d="M45.641-57.601c-0.01,0.481-0.401,0.866-0.883,0.866    c-0.481,0-0.874-0.386-0.883-0.866"/>
  <path style="fill-rule:evenodd;clip-rule:evenodd;fill:#ED1B2E;" d="M50.089-57.601c0,0.012-0.001,0.024-0.001,0.035    c0,0.488,0.397,0.884,0.884,0.884c0.488,0,0.884-0.396,0.884-0.884c0-0.012,0-0.024-0.001-0.035"/>
  <path style="fill-rule:evenodd;clip-rule:evenodd;fill:#ED1B2E;" d="M50.07,0c0.025-0.465,0.412-0.835,0.882-0.835    c0.472,0,0.857,0.37,0.882,0.835"/>
  <path style="fill-rule:evenodd;clip-rule:evenodd;fill:#ED1B2E;" d="M57.6-17.96c-0.007,0-0.015,0-0.023,0    c-0.487,0-0.884,0.395-0.884,0.884s0.396,0.884,0.884,0.884c0.007,0,0.015,0,0.023,0"/>
  <path style="fill-rule:evenodd;clip-rule:evenodd;fill:#ED1B2E;" d="M57.6-8.023c-0.007,0-0.015,0-0.023,0    c-0.487,0-0.884,0.396-0.884,0.884s0.396,0.884,0.884,0.884c0.007,0,0.015,0,0.023,0"/>
  <path style="fill-rule:evenodd;clip-rule:evenodd;fill:#ED1B2E;" d="M57.6-0.008v-0.827c-0.007,0-0.015,0-0.023,0    c-0.471,0-0.857,0.37-0.882,0.835H57.6"/>
  <path style="fill-rule:evenodd;clip-rule:evenodd;fill:#ED1B2E;" d="M57.6-57.571v0.827c-0.007,0-0.015,0-0.023,0    c-0.471,0-0.857-0.37-0.882-0.835H57.6"/>
  <path style="fill-rule:evenodd;clip-rule:evenodd;fill:#ED1B2E;" d="M35.148,0c0-0.005,0-0.009,0-0.014    c0-0.488-0.396-0.884-0.884-0.884c-0.487,0-0.884,0.396-0.884,0.884c0,0.005,0,0.009,0,0.014"/>
  <path style="fill-rule:evenodd;clip-rule:evenodd;fill:#ED1B2E;" d="M40.197,0c0-0.006,0-0.012,0-0.018    c0-0.488-0.396-0.884-0.884-0.884c-0.487,0-0.884,0.396-0.884,0.884c0,0.006,0,0.012,0,0.018"/>
  <path style="fill-rule:evenodd;clip-rule:evenodd;fill:#ED1B2E;" d="M45.648,0c0-0.005,0-0.009,0-0.014    c0-0.488-0.396-0.884-0.884-0.884c-0.487,0-0.884,0.396-0.884,0.884c0,0.005,0,0.009,0,0.014"/>
  <circle cx="44.809" style="fill-rule:evenodd;clip-rule:evenodd;fill:#ED1B2E;" r="0.884" cy="-54.068"/>
  <path style="fill-rule:evenodd;clip-rule:evenodd;fill:#ED1B2E;" d="M40.254-57.601c-0.016,0.475-0.405,0.854-0.883,0.854    c-0.477,0-0.867-0.379-0.883-0.854"/>
  <circle cx="40.925" style="fill-rule:evenodd;clip-rule:evenodd;fill:#ED1B2E;" r="0.884" cy="-53.801"/>
  <circle cx="36.675" style="fill-rule:evenodd;clip-rule:evenodd;fill:#ED1B2E;" r="0.884" cy="-54.051"/>
  <path style="fill-rule:evenodd;clip-rule:evenodd;fill:#ED1B2E;" d="M35.183-57.601c-0.007,0.482-0.399,0.872-0.883,0.872    c-0.483,0-0.876-0.39-0.883-0.872"/>
  <circle cx="33.05" style="fill-rule:evenodd;clip-rule:evenodd;fill:#ED1B2E;" r="0.884" cy="-53.301"/>
  <circle cx="28.925" style="fill-rule:evenodd;clip-rule:evenodd;fill:#ED1B2E;" r="0.884" cy="-53.301"/>
  <circle cx="27.05" style="fill-rule:evenodd;clip-rule:evenodd;fill:#ED1B2E;" r="0.884" cy="-56.426"/>
  <circle cx="22.925" style="fill-rule:evenodd;clip-rule:evenodd;fill:#ED1B2E;" r="0.884" cy="-56.426"/>
  <circle cx="25.05" style="fill-rule:evenodd;clip-rule:evenodd;fill:#ED1B2E;" r="0.884" cy="-53.06"/>
  <circle cx="27.175" style="fill-rule:evenodd;clip-rule:evenodd;fill:#ED1B2E;" r="0.884" cy="-49.926"/>
  <circle cx="31.05" style="fill-rule:evenodd;clip-rule:evenodd;fill:#ED1B2E;" r="0.884" cy="-50.176"/>
  <circle cx="35.175" style="fill-rule:evenodd;clip-rule:evenodd;fill:#ED1B2E;" r="0.884" cy="-50.676"/>
  <circle cx="39.425" style="fill-rule:evenodd;clip-rule:evenodd;fill:#ED1B2E;" r="0.884" cy="-50.426"/>
  <circle cx="43.925" style="fill-rule:evenodd;clip-rule:evenodd;fill:#ED1B2E;" r="0.884" cy="-50.676"/>
  <circle cx="47.737" style="fill-rule:evenodd;clip-rule:evenodd;fill:#ED1B2E;" r="0.884" cy="-51.488"/>
  <circle cx="51.05" style="fill-rule:evenodd;clip-rule:evenodd;fill:#ED1B2E;" r="0.884" cy="-52.488"/>
  <circle cx="54.559" style="fill-rule:evenodd;clip-rule:evenodd;fill:#ED1B2E;" r="0.884" cy="-51.568"/>
  <circle cx="53.362" style="fill-rule:evenodd;clip-rule:evenodd;fill:#ED1B2E;" r="0.884" cy="-48.56"/>
  <path style="fill-rule:evenodd;clip-rule:evenodd;fill:#ED1B2E;" d="M57.6-54.564c-0.452,0.038-0.809,0.418-0.809,0.88    c0,0.463,0.356,0.843,0.809,0.881"/>
  <path style="fill-rule:evenodd;clip-rule:evenodd;fill:#ED1B2E;" d="M57.6-49.38c-0.481,0.007-0.871,0.399-0.871,0.883    c0,0.484,0.39,0.877,0.871,0.884"/>
  <circle cx="55.309" style="fill-rule:evenodd;clip-rule:evenodd;fill:#ED1B2E;" r="0.884" cy="-44.693"/>
  <path style="fill-rule:evenodd;clip-rule:evenodd;fill:#ED1B2E;" d="M57.6-42.772c-0.009,0-0.019-0.001-0.028-0.001    c-0.487,0-0.884,0.396-0.884,0.884c0,0.488,0.396,0.884,0.884,0.884c0.01,0,0.019-0.001,0.028-0.001"/>
  <circle cx="51.229" style="fill-rule:evenodd;clip-rule:evenodd;fill:#ED1B2E;" r="0.884" cy="-45.426"/>
  <circle cx="52.862" style="fill-rule:evenodd;clip-rule:evenodd;fill:#ED1B2E;" r="0.884" cy="-41.872"/>
  <circle cx="54.934" style="fill-rule:evenodd;clip-rule:evenodd;fill:#ED1B2E;" r="0.884" cy="-39.068"/>
  <circle cx="56.05" style="fill-rule:evenodd;clip-rule:evenodd;fill:#ED1B2E;" r="0.884" cy="-35.31"/>
  <circle cx="54.121" style="fill-rule:evenodd;clip-rule:evenodd;fill:#ED1B2E;" r="0.884" cy="-31.318"/>
  <circle cx="56.133" style="fill-rule:evenodd;clip-rule:evenodd;fill:#ED1B2E;" r="0.884" cy="-28.663"/>
  <circle cx="52.55" style="fill-rule:evenodd;clip-rule:evenodd;fill:#ED1B2E;" r="0.884" cy="-34.56"/>
  <circle cx="51.3" style="fill-rule:evenodd;clip-rule:evenodd;fill:#ED1B2E;" r="0.884" cy="-37.497"/>
  <circle cx="49.612" style="fill-rule:evenodd;clip-rule:evenodd;fill:#ED1B2E;" r="0.884" cy="-41.247"/>
  <circle cx="45.8" style="fill-rule:evenodd;clip-rule:evenodd;fill:#ED1B2E;" r="0.884" cy="-40.935"/>
  <circle cx="47.8" style="fill-rule:evenodd;clip-rule:evenodd;fill:#ED1B2E;" r="0.884" cy="-37.56"/>
  <circle cx="48.925" style="fill-rule:evenodd;clip-rule:evenodd;fill:#ED1B2E;" r="0.884" cy="-33.81"/>
  <circle cx="51.036" style="fill-rule:evenodd;clip-rule:evenodd;fill:#ED1B2E;" r="0.884" cy="-30.286"/>
  <circle cx="52.642" style="fill-rule:evenodd;clip-rule:evenodd;fill:#ED1B2E;" r="0.884" cy="-27.15"/>
  <circle cx="55.8" style="fill-rule:evenodd;clip-rule:evenodd;fill:#ED1B2E;" r="0.884" cy="-24.31"/>
  <circle cx="52.362" style="fill-rule:evenodd;clip-rule:evenodd;fill:#ED1B2E;" r="0.884" cy="-23.497"/>
  <circle cx="48.476" style="fill-rule:evenodd;clip-rule:evenodd;fill:#ED1B2E;" r="0.884" cy="-25.927"/>
  <circle cx="47.74" style="fill-rule:evenodd;clip-rule:evenodd;fill:#ED1B2E;" r="0.884" cy="-29.46"/>
  <circle cx="44.871" style="fill-rule:evenodd;clip-rule:evenodd;fill:#ED1B2E;" r="0.884" cy="-32.224"/>
  <circle cx="44.282" style="fill-rule:evenodd;clip-rule:evenodd;fill:#ED1B2E;" r="0.884" cy="-29.278"/>
  <circle cx="45.146" style="fill-rule:evenodd;clip-rule:evenodd;fill:#ED1B2E;" r="0.884" cy="-34.994"/>
  <circle cx="43.425" style="fill-rule:evenodd;clip-rule:evenodd;fill:#ED1B2E;" r="0.884" cy="-38.185"/>
  <circle cx="41.3" style="fill-rule:evenodd;clip-rule:evenodd;fill:#ED1B2E;" r="0.884" cy="-41.06"/>
  <circle cx="39.175" style="fill-rule:evenodd;clip-rule:evenodd;fill:#ED1B2E;" r="0.884" cy="-38.185"/>
  <circle cx="36.8" style="fill-rule:evenodd;clip-rule:evenodd;fill:#ED1B2E;" r="0.884" cy="-40.56"/>
  <circle cx="41.425" style="fill-rule:evenodd;clip-rule:evenodd;fill:#ED1B2E;" r="0.884" cy="-34.81"/>
  <circle cx="40.762" style="fill-rule:evenodd;clip-rule:evenodd;fill:#ED1B2E;" r="0.884" cy="-30.912"/>
  <circle cx="44.524" style="fill-rule:evenodd;clip-rule:evenodd;fill:#ED1B2E;" r="0.884" cy="-26.039"/>
  <circle cx="48.657" style="fill-rule:evenodd;clip-rule:evenodd;fill:#ED1B2E;" r="0.884" cy="-22.618"/>
  <circle cx="56.309" style="fill-rule:evenodd;clip-rule:evenodd;fill:#ED1B2E;" r="0.884" cy="-20.568"/>
  <circle cx="53.642" style="fill-rule:evenodd;clip-rule:evenodd;fill:#ED1B2E;" r="0.884" cy="-16.468"/>
  <path style="fill-rule:evenodd;clip-rule:evenodd;fill:#ED1B2E;" d="M0-16.224c0.016,0.001,0.032,0.001,0.048,0.001    c0.488,0,0.884-0.396,0.884-0.884c0-0.487-0.396-0.884-0.884-0.884c-0.016,0-0.032,0.001-0.048,0.002"/>
  <circle cx="55.838" style="fill-rule:evenodd;clip-rule:evenodd;fill:#ED1B2E;" r="0.884" cy="-13.727"/>
  <circle cx="47.487" style="fill-rule:evenodd;clip-rule:evenodd;fill:#ED1B2E;" r="0.884" cy="-44.81"/>
  <circle cx="45.291" style="fill-rule:evenodd;clip-rule:evenodd;fill:#ED1B2E;" r="0.884" cy="-47.426"/>
  <circle cx="49.041" style="fill-rule:evenodd;clip-rule:evenodd;fill:#ED1B2E;" r="0.884" cy="-48.426"/>
  <circle cx="43.166" style="fill-rule:evenodd;clip-rule:evenodd;fill:#ED1B2E;" r="0.884" cy="-44.551"/>
  <circle cx="41.291" style="fill-rule:evenodd;clip-rule:evenodd;fill:#ED1B2E;" r="0.884" cy="-47.801"/>
  <circle cx="37.416" style="fill-rule:evenodd;clip-rule:evenodd;fill:#ED1B2E;" r="0.884" cy="-47.301"/>
  <circle cx="39.291" style="fill-rule:evenodd;clip-rule:evenodd;fill:#ED1B2E;" r="0.884" cy="-44.426"/>
  <circle cx="35.541" style="fill-rule:evenodd;clip-rule:evenodd;fill:#ED1B2E;" r="0.884" cy="-43.926"/>
  <circle cx="33.791" style="fill-rule:evenodd;clip-rule:evenodd;fill:#ED1B2E;" r="0.884" cy="-47.301"/>
  <circle cx="29.541" style="fill-rule:evenodd;clip-rule:evenodd;fill:#ED1B2E;" r="0.884" cy="-47.176"/>
  <circle cx="31.541" style="fill-rule:evenodd;clip-rule:evenodd;fill:#ED1B2E;" r="0.884" cy="-43.551"/>
  <circle cx="27.916" style="fill-rule:evenodd;clip-rule:evenodd;fill:#ED1B2E;" r="0.884" cy="-43.051"/>
  <circle cx="29.366" style="fill:#ED1B2E;" r="0.884" cy="-39.968"/>
  <circle cx="33.175" style="fill-rule:evenodd;clip-rule:evenodd;fill:#ED1B2E;" r="0.884" cy="-40.06"/>
  <circle cx="35.175" style="fill-rule:evenodd;clip-rule:evenodd;fill:#ED1B2E;" r="0.884" cy="-36.56"/>
  <circle cx="37.896" style="fill-rule:evenodd;clip-rule:evenodd;fill:#ED1B2E;" r="0.884" cy="-34.847"/>
  <circle cx="36.958" style="fill-rule:evenodd;clip-rule:evenodd;fill:#ED1B2E;" r="0.884" cy="-31.386"/>
  <circle cx="33.458" style="fill-rule:evenodd;clip-rule:evenodd;fill:#ED1B2E;" r="0.884" cy="-33.401"/>
  <circle cx="31.3" style="fill-rule:evenodd;clip-rule:evenodd;fill:#ED1B2E;" r="0.884" cy="-36.801"/>
  <circle cx="29.612" style="fill-rule:evenodd;clip-rule:evenodd;fill:#ED1B2E;" r="0.884" cy="-33.363"/>
  <circle cx="27.179" style="fill-rule:evenodd;clip-rule:evenodd;fill:#ED1B2E;" r="0.884" cy="-36.363"/>
  <circle cx="25.366" style="fill-rule:evenodd;clip-rule:evenodd;fill:#ED1B2E;" r="0.884" cy="-39.488"/>
  <circle cx="23.929" style="fill-rule:evenodd;clip-rule:evenodd;fill:#ED1B2E;" r="0.884" cy="-42.551"/>
  <circle cx="22.083" style="fill-rule:evenodd;clip-rule:evenodd;fill:#ED1B2E;" r="0.884" cy="-45.926"/>
  <circle cx="18.987" style="fill-rule:evenodd;clip-rule:evenodd;fill:#ED1B2E;" r="0.884" cy="-48.426"/>
  <circle cx="17.3" style="fill-rule:evenodd;clip-rule:evenodd;fill:#ED1B2E;" r="0.884" cy="-51.926"/>
  <circle cx="15.487" style="fill-rule:evenodd;clip-rule:evenodd;fill:#ED1B2E;" r="0.884" cy="-54.363"/>
  <circle cx="13.425" style="fill-rule:evenodd;clip-rule:evenodd;fill:#ED1B2E;" r="0.884" cy="-56.426"/>
  <circle cx="10.621" style="fill-rule:evenodd;clip-rule:evenodd;fill:#ED1B2E;" r="0.884" cy="-54.131"/>
  <path style="fill-rule:evenodd;clip-rule:evenodd;fill:#ED1B2E;" d="M9.734-57.601c-0.009,0.481-0.401,0.866-0.883,0.866    c-0.482,0-0.874-0.386-0.883-0.866"/>
  <circle cx="12.916" style="fill-rule:evenodd;clip-rule:evenodd;fill:#ED1B2E;" r="0.884" cy="-51.926"/>
  <circle cx="14.541" style="fill-rule:evenodd;clip-rule:evenodd;fill:#ED1B2E;" r="0.884" cy="-48.801"/>
  <circle cx="18.107" style="fill-rule:evenodd;clip-rule:evenodd;fill:#ED1B2E;" r="0.884" cy="-45.391"/>
  <circle cx="19.541" style="fill-rule:evenodd;clip-rule:evenodd;fill:#ED1B2E;" r="0.884" cy="-42.301"/>
  <circle cx="21.416" style="fill-rule:evenodd;clip-rule:evenodd;fill:#ED1B2E;" r="0.884" cy="-39.551"/>
  <circle cx="22.791" style="fill-rule:evenodd;clip-rule:evenodd;fill:#ED1B2E;" r="0.884" cy="-36.551"/>
  <circle cx="24.791" style="fill-rule:evenodd;clip-rule:evenodd;fill:#ED1B2E;" r="0.884" cy="-33.426"/>
  <circle cx="20.675" style="fill-rule:evenodd;clip-rule:evenodd;fill:#ED1B2E;" r="0.884" cy="-33.051"/>
  <circle cx="17.3" style="fill-rule:evenodd;clip-rule:evenodd;fill:#ED1B2E;" r="0.884" cy="-32.676"/>
  <circle cx="12.983" style="fill-rule:evenodd;clip-rule:evenodd;fill:#ED1B2E;" r="0.884" cy="-33.266"/>
  <circle cx="10.675" style="fill-rule:evenodd;clip-rule:evenodd;fill:#ED1B2E;" r="0.884" cy="-30.801"/>
  <circle cx="7.747" style="fill-rule:evenodd;clip-rule:evenodd;fill:#ED1B2E;" r="0.884" cy="-33.398"/>
  <circle cx="3.581" style="fill-rule:evenodd;clip-rule:evenodd;fill:#ED1B2E;" r="0.884" cy="-34.869"/>
  <circle cx="9.667" style="fill-rule:evenodd;clip-rule:evenodd;fill:#ED1B2E;" r="0.884" cy="-35.492"/>
  <circle cx="1.049" style="fill-rule:evenodd;clip-rule:evenodd;fill:#ED1B2E;" r="0.884" cy="-32.452"/>
  <circle cx="1.498" style="fill-rule:evenodd;clip-rule:evenodd;fill:#ED1B2E;" r="0.884" cy="-37.811"/>
  <circle cx="3.987" style="fill-rule:evenodd;clip-rule:evenodd;fill:#ED1B2E;" r="0.884" cy="-40.926"/>
  <circle cx="6.05" style="fill-rule:evenodd;clip-rule:evenodd;fill:#ED1B2E;" r="0.884" cy="-37.426"/>
  <circle cx="11.383" style="fill-rule:evenodd;clip-rule:evenodd;fill:#ED1B2E;" r="0.884" cy="-37.959"/>
  <circle cx="19.041" style="fill-rule:evenodd;clip-rule:evenodd;fill:#ED1B2E;" r="0.884" cy="-36.426"/>
  <circle cx="15.267" style="fill-rule:evenodd;clip-rule:evenodd;fill:#ED1B2E;" r="0.884" cy="-36.15"/>
  <circle cx="13.642" style="fill-rule:evenodd;clip-rule:evenodd;fill:#ED1B2E;" r="0.884" cy="-40.377"/>
  <circle cx="17.267" style="fill-rule:evenodd;clip-rule:evenodd;fill:#ED1B2E;" r="0.884" cy="-39.275"/>
  <circle cx="16.05" style="fill-rule:evenodd;clip-rule:evenodd;fill:#ED1B2E;" r="0.884" cy="-42.935"/>
  <circle cx="13.425" style="fill-rule:evenodd;clip-rule:evenodd;fill:#ED1B2E;" r="0.884" cy="-45.435"/>
  <circle cx="11.425" style="fill-rule:evenodd;clip-rule:evenodd;fill:#ED1B2E;" r="0.884" cy="-43.185"/>
  <circle cx="8.267" style="fill-rule:evenodd;clip-rule:evenodd;fill:#ED1B2E;" r="0.884" cy="-40.685"/>
  <circle cx="6.55" style="fill-rule:evenodd;clip-rule:evenodd;fill:#ED1B2E;" r="0.884" cy="-43.81"/>
  <circle cx="2.55" style="fill-rule:evenodd;clip-rule:evenodd;fill:#ED1B2E;" r="0.884" cy="-44.247"/>
  <path style="fill-rule:evenodd;clip-rule:evenodd;fill:#ED1B2E;" d="M0-40.988c0.482-0.007,0.871-0.399,0.871-0.884    c0-0.483-0.389-0.876-0.871-0.883"/>
  <circle cx="4.425" style="fill-rule:evenodd;clip-rule:evenodd;fill:#ED1B2E;" r="0.884" cy="-46.997"/>
  <path style="fill-rule:evenodd;clip-rule:evenodd;fill:#ED1B2E;" d="M0-47.572c0.477-0.013,0.859-0.402,0.859-0.883    c0-0.479-0.382-0.87-0.859-0.883"/>
  <circle cx="9.3" style="fill-rule:evenodd;clip-rule:evenodd;fill:#ED1B2E;" r="0.884" cy="-46.185"/>
  <circle cx="6.862" style="fill-rule:evenodd;clip-rule:evenodd;fill:#ED1B2E;" r="0.884" cy="-49.31"/>
  <circle cx="11.05" style="fill-rule:evenodd;clip-rule:evenodd;fill:#ED1B2E;" r="0.884" cy="-49.06"/>
  <circle cx="8.541" style="fill-rule:evenodd;clip-rule:evenodd;fill:#ED1B2E;" r="0.884" cy="-51.551"/>
  <circle cx="4.925" style="fill-rule:evenodd;clip-rule:evenodd;fill:#ED1B2E;" r="0.884" cy="-52.747"/>
  <path style="fill-rule:evenodd;clip-rule:evenodd;fill:#ED1B2E;" d="M0-52.801c0.482-0.007,0.871-0.399,0.871-0.884    c0-0.483-0.389-0.876-0.871-0.883"/>
  <circle cx="2.55" style="fill-rule:evenodd;clip-rule:evenodd;fill:#ED1B2E;" r="0.884" cy="-50.435"/>
  <circle cx="6.779" style="fill-rule:evenodd;clip-rule:evenodd;fill:#ED1B2E;" r="0.884" cy="-55.074"/>
  <path style="fill-rule:evenodd;clip-rule:evenodd;fill:#ED1B2E;" d="M0-57.601v0.908c0.473-0.018,0.851-0.405,0.851-0.882    c0-0.009-0.001-0.018-0.001-0.026H0.001"/>
  <circle cx="2.737" style="fill-rule:evenodd;clip-rule:evenodd;fill:#ED1B2E;" r="0.884" cy="-56.122"/>
  <circle cx="26.725" style="fill-rule:evenodd;clip-rule:evenodd;fill:#ED1B2E;" r="0.884" cy="-30.766"/>
  <circle cx="30.008" style="fill-rule:evenodd;clip-rule:evenodd;fill:#ED1B2E;" r="0.884" cy="-29.584"/>
  <circle cx="33.208" style="fill-rule:evenodd;clip-rule:evenodd;fill:#ED1B2E;" r="0.884" cy="-29.784"/>
  <circle cx="29.416" style="fill-rule:evenodd;clip-rule:evenodd;fill:#ED1B2E;" r="0.884" cy="-24.551"/>
  <circle cx="33.166" style="fill-rule:evenodd;clip-rule:evenodd;fill:#ED1B2E;" r="0.884" cy="-26.574"/>
  <circle cx="36.566" style="fill-rule:evenodd;clip-rule:evenodd;fill:#ED1B2E;" r="0.884" cy="-28.174"/>
  <circle cx="36.541" style="fill-rule:evenodd;clip-rule:evenodd;fill:#ED1B2E;" r="0.884" cy="-24.926"/>
  <circle cx="36.425" style="fill-rule:evenodd;clip-rule:evenodd;fill:#ED1B2E;" r="0.884" cy="-21.435"/>
  <circle cx="40.416" style="fill-rule:evenodd;clip-rule:evenodd;fill:#ED1B2E;" r="0.884" cy="-20.676"/>
  <circle cx="45.666" style="fill-rule:evenodd;clip-rule:evenodd;fill:#ED1B2E;" r="0.884" cy="-15.926"/>
  <circle cx="47.541" style="fill-rule:evenodd;clip-rule:evenodd;fill:#ED1B2E;" r="0.884" cy="-12.301"/>
  <circle cx="50.541" style="fill-rule:evenodd;clip-rule:evenodd;fill:#ED1B2E;" r="0.884" cy="-9.551"/>
  <circle cx="41.791" style="fill-rule:evenodd;clip-rule:evenodd;fill:#ED1B2E;" r="0.884" cy="-16.426"/>
  <circle cx="40.406" style="fill-rule:evenodd;clip-rule:evenodd;fill:#ED1B2E;" r="0.884" cy="-27.464"/>
  <circle cx="40.425" style="fill-rule:evenodd;clip-rule:evenodd;fill:#ED1B2E;" r="0.884" cy="-24.06"/>
  <circle cx="44.322" style="fill-rule:evenodd;clip-rule:evenodd;fill:#ED1B2E;" r="0.884" cy="-22.532"/>
  <circle cx="44.447" style="fill-rule:evenodd;clip-rule:evenodd;fill:#ED1B2E;" r="0.884" cy="-19.22"/>
  <circle cx="48.47" style="fill-rule:evenodd;clip-rule:evenodd;fill:#ED1B2E;" r="0.884" cy="-18.868"/>
  <circle cx="52.487" style="fill-rule:evenodd;clip-rule:evenodd;fill:#ED1B2E;" r="0.884" cy="-19.81"/>
  <circle cx="49.892" style="fill-rule:evenodd;clip-rule:evenodd;fill:#ED1B2E;" r="0.884" cy="-15.718"/>
  <circle cx="52.392" style="fill-rule:evenodd;clip-rule:evenodd;fill:#ED1B2E;" r="0.884" cy="-12.968"/>
  <circle cx="55.55" style="fill-rule:evenodd;clip-rule:evenodd;fill:#ED1B2E;" r="0.884" cy="-10.002"/>
  <circle cx="53.175" style="fill-rule:evenodd;clip-rule:evenodd;fill:#ED1B2E;" r="0.884" cy="-7.301"/>
  <circle cx="51.362" style="fill:#ED1B2E;" r="0.884" cy="-3.988"/>
  <circle cx="45.425" style="fill-rule:evenodd;clip-rule:evenodd;fill:#ED1B2E;" r="0.884" cy="-4.81"/>
  <circle cx="48.925" style="fill-rule:evenodd;clip-rule:evenodd;fill:#ED1B2E;" r="0.884" cy="-6.435"/>
  <circle cx="47.899" style="fill-rule:evenodd;clip-rule:evenodd;fill:#ED1B2E;" r="0.884" cy="-2.115"/>
  <circle cx="42.3" style="fill-rule:evenodd;clip-rule:evenodd;fill:#ED1B2E;" r="0.884" cy="-2.685"/>
  <circle cx="46.175" style="fill-rule:evenodd;clip-rule:evenodd;fill:#ED1B2E;" r="0.884" cy="-9.06"/>
  <circle cx="42.675" style="fill-rule:evenodd;clip-rule:evenodd;fill:#ED1B2E;" r="0.884" cy="-8.56"/>
  <circle cx="43.3" style="fill-rule:evenodd;clip-rule:evenodd;fill:#ED1B2E;" r="0.884" cy="-12.666"/>
  <circle cx="40.3" style="fill-rule:evenodd;clip-rule:evenodd;fill:#ED1B2E;" r="0.884" cy="-5.685"/>
  <circle cx="36.925" style="fill-rule:evenodd;clip-rule:evenodd;fill:#ED1B2E;" r="0.884" cy="-3.176"/>
  <circle cx="36.175" style="fill-rule:evenodd;clip-rule:evenodd;fill:#ED1B2E;" r="0.884" cy="-7.176"/>
  <circle cx="39.175" style="fill-rule:evenodd;clip-rule:evenodd;fill:#ED1B2E;" r="0.884" cy="-9.926"/>
  <circle cx="38.237" style="fill-rule:evenodd;clip-rule:evenodd;fill:#ED1B2E;" r="0.884" cy="-13.488"/>
  <circle cx="37.05" style="fill-rule:evenodd;clip-rule:evenodd;fill:#ED1B2E;" r="0.884" cy="-17.301"/>
  <circle cx="33.05" style="fill-rule:evenodd;clip-rule:evenodd;fill:#ED1B2E;" r="0.884" cy="-19.051"/>
  <circle cx="32.925" style="fill-rule:evenodd;clip-rule:evenodd;fill:#ED1B2E;" r="0.884" cy="-23.051"/>
  <circle cx="29.425" style="fill-rule:evenodd;clip-rule:evenodd;fill:#ED1B2E;" r="0.884" cy="-20.926"/>
  <circle cx="25.425" style="fill-rule:evenodd;clip-rule:evenodd;fill:#ED1B2E;" r="0.884" cy="-19.551"/>
  <circle cx="21.675" style="fill-rule:evenodd;clip-rule:evenodd;fill:#ED1B2E;" r="0.884" cy="-18.801"/>
  <circle cx="18.55" style="fill-rule:evenodd;clip-rule:evenodd;fill:#ED1B2E;" r="0.884" cy="-19.551"/>
  <circle cx="15.925" style="fill-rule:evenodd;clip-rule:evenodd;fill:#ED1B2E;" r="0.884" cy="-16.051"/>
  <circle cx="11.3" style="fill-rule:evenodd;clip-rule:evenodd;fill:#ED1B2E;" r="0.884" cy="-17.176"/>
  <circle cx="9.175" style="fill-rule:evenodd;clip-rule:evenodd;fill:#ED1B2E;" r="0.884" cy="-14.051"/>
  <circle cx="6.675" style="fill-rule:evenodd;clip-rule:evenodd;fill:#ED1B2E;" r="0.884" cy="-17.676"/>
  <circle cx="2.996" style="fill-rule:evenodd;clip-rule:evenodd;fill:#ED1B2E;" r="0.884" cy="-17.943"/>
  <circle cx="5.568" style="fill-rule:evenodd;clip-rule:evenodd;fill:#ED1B2E;" r="0.884" cy="-21.019"/>
  <circle cx="9.623" style="fill-rule:evenodd;clip-rule:evenodd;fill:#ED1B2E;" r="0.884" cy="-20.211"/>
  <circle cx="14.05" style="fill-rule:evenodd;clip-rule:evenodd;fill:#ED1B2E;" r="0.884" cy="-19.801"/>
  <circle cx="12.737" style="fill:#ED1B2E;" r="0.884" cy="-23.613"/>
  <circle cx="16.921" style="fill-rule:evenodd;clip-rule:evenodd;fill:#ED1B2E;" r="0.884" cy="-22.488"/>
  <circle cx="20.925" style="fill-rule:evenodd;clip-rule:evenodd;fill:#ED1B2E;" r="0.884" cy="-22.426"/>
  <circle cx="25.616" style="fill-rule:evenodd;clip-rule:evenodd;fill:#ED1B2E;" r="0.884" cy="-22.741"/>
  <circle cx="23.149" style="fill-rule:evenodd;clip-rule:evenodd;fill:#ED1B2E;" r="0.884" cy="-25.685"/>
  <circle cx="19.3" style="fill:#ED1B2E;" r="0.884" cy="-25.81"/>
  <circle cx="15.55" style="fill-rule:evenodd;clip-rule:evenodd;fill:#ED1B2E;" r="0.884" cy="-26.31"/>
  <circle cx="15.175" style="fill-rule:evenodd;clip-rule:evenodd;fill:#ED1B2E;" r="0.884" cy="-29.801"/>
  <circle cx="19.3" style="fill-rule:evenodd;clip-rule:evenodd;fill:#ED1B2E;" r="0.884" cy="-29.435"/>
  <circle cx="22.925" style="fill-rule:evenodd;clip-rule:evenodd;fill:#ED1B2E;" r="0.884" cy="-29.435"/>
  <circle cx="27.399" style="fill-rule:evenodd;clip-rule:evenodd;fill:#ED1B2E;" r="0.884" cy="-26.935"/>
  <circle cx="11.675" style="fill-rule:evenodd;clip-rule:evenodd;fill:#ED1B2E;" r="0.884" cy="-27.185"/>
  <circle cx="9.221" style="fill-rule:evenodd;clip-rule:evenodd;fill:#ED1B2E;" r="0.884" cy="-23.586"/>
  <circle cx="7.175" style="fill-rule:evenodd;clip-rule:evenodd;fill:#ED1B2E;" r="0.884" cy="-25.791"/>
  <circle cx="5.188" style="fill-rule:evenodd;clip-rule:evenodd;fill:#ED1B2E;" r="0.884" cy="-28.44"/>
  <circle cx="3.953" style="fill-rule:evenodd;clip-rule:evenodd;fill:#ED1B2E;" r="0.884" cy="-24.134"/>
  <circle cx="1.645" style="fill-rule:evenodd;clip-rule:evenodd;fill:#ED1B2E;" r="0.884" cy="-21.789"/>
  <circle cx="1.854" style="fill-rule:evenodd;clip-rule:evenodd;fill:#ED1B2E;" r="0.884" cy="-26.252"/>
  <circle cx="5.319" style="fill-rule:evenodd;clip-rule:evenodd;fill:#ED1B2E;" r="0.884" cy="-31.682"/>
  <circle cx="2.219" style="fill-rule:evenodd;clip-rule:evenodd;fill:#ED1B2E;" r="0.884" cy="-29.647"/>
  <circle cx="8.494" style="fill-rule:evenodd;clip-rule:evenodd;fill:#ED1B2E;" r="0.884" cy="-28.59"/>
  <circle cx="33.925" style="fill-rule:evenodd;clip-rule:evenodd;fill:#ED1B2E;" r="0.884" cy="-15.051"/>
  <circle cx="35.3" style="fill-rule:evenodd;clip-rule:evenodd;fill:#ED1B2E;" r="0.884" cy="-11.301"/>
  <circle cx="32.175" style="fill-rule:evenodd;clip-rule:evenodd;fill:#ED1B2E;" r="0.884" cy="-8.676"/>
  <circle cx="32.675" style="fill-rule:evenodd;clip-rule:evenodd;fill:#ED1B2E;" r="0.884" cy="-3.926"/>
  <circle cx="30.3" style="fill-rule:evenodd;clip-rule:evenodd;fill:#ED1B2E;" r="0.884" cy="-1.676"/>
  <circle cx="28.987" style="fill-rule:evenodd;clip-rule:evenodd;fill:#ED1B2E;" r="0.884" cy="-5.113"/>
  <circle cx="28.425" style="fill-rule:evenodd;clip-rule:evenodd;fill:#ED1B2E;" r="0.884" cy="-9.56"/>
  <circle cx="31.05" style="fill-rule:evenodd;clip-rule:evenodd;fill:#ED1B2E;" r="0.884" cy="-12.801"/>
  <circle cx="27.05" style="fill-rule:evenodd;clip-rule:evenodd;fill:#ED1B2E;" r="0.884" cy="-14.051"/>
  <circle cx="24.8" style="fill-rule:evenodd;clip-rule:evenodd;fill:#ED1B2E;" r="0.884" cy="-9.676"/>
  <circle cx="25.3" style="fill-rule:evenodd;clip-rule:evenodd;fill:#ED1B2E;" r="0.884" cy="-5.801"/>
  <circle cx="26.425" style="fill-rule:evenodd;clip-rule:evenodd;fill:#ED1B2E;" r="0.884" cy="-2.301"/>
  <circle cx="22.675" style="fill-rule:evenodd;clip-rule:evenodd;fill:#ED1B2E;" r="0.884" cy="-2.051"/>
  <circle cx="21.425" style="fill-rule:evenodd;clip-rule:evenodd;fill:#ED1B2E;" r="0.884" cy="-5.551"/>
  <circle cx="17.425" style="fill-rule:evenodd;clip-rule:evenodd;fill:#ED1B2E;" r="0.884" cy="-5.801"/>
  <circle cx="18.925" style="fill-rule:evenodd;clip-rule:evenodd;fill:#ED1B2E;" r="0.884" cy="-2.551"/>
  <circle cx="15.05" style="fill-rule:evenodd;clip-rule:evenodd;fill:#ED1B2E;" r="0.884" cy="-2.051"/>
  <circle cx="11.05" style="fill-rule:evenodd;clip-rule:evenodd;fill:#ED1B2E;" r="0.884" cy="-2.176"/>
  <path style="fill-rule:evenodd;clip-rule:evenodd;fill:#ED1B2E;" d="M9.745,0c0.001-0.017,0.002-0.033,0.002-0.051    c0-0.487-0.396-0.884-0.884-0.884c-0.487,0-0.884,0.396-0.884,0.884C7.978-0.033,7.979-0.017,7.98,0"/>
  <circle cx="7.425" style="fill-rule:evenodd;clip-rule:evenodd;fill:#ED1B2E;" r="0.884" cy="-3.435"/>
  <circle cx="4.3" style="fill-rule:evenodd;clip-rule:evenodd;fill:#ED1B2E;" r="0.884" cy="-1.31"/>
  <circle cx="3.425" style="fill-rule:evenodd;clip-rule:evenodd;fill:#ED1B2E;" r="0.884" cy="-5.435"/>
  <circle cx="1.258" style="fill-rule:evenodd;clip-rule:evenodd;fill:#ED1B2E;" r="0.884" cy="-2.726"/>
  <path style="fill-rule:evenodd;clip-rule:evenodd;fill:#ED1B2E;" d="M0.001,0H0.83C0.817-0.459,0.455-0.83,0-0.857V0"/>
  <circle cx="1.416" style="fill-rule:evenodd;clip-rule:evenodd;fill:#ED1B2E;" r="0.884" cy="-12.176"/>
  <circle cx="4.416" style="fill-rule:evenodd;clip-rule:evenodd;fill:#ED1B2E;" r="0.884" cy="-14.051"/>
  <circle cx="6.791" style="fill-rule:evenodd;clip-rule:evenodd;fill:#ED1B2E;" r="0.884" cy="-11.301"/>
  <circle cx="11.416" style="fill-rule:evenodd;clip-rule:evenodd;fill:#ED1B2E;" r="0.884" cy="-9.801"/>
  <circle cx="13.291" style="fill-rule:evenodd;clip-rule:evenodd;fill:#ED1B2E;" r="0.884" cy="-13.301"/>
  <circle cx="17.416" style="fill-rule:evenodd;clip-rule:evenodd;fill:#ED1B2E;" r="0.884" cy="-12.051"/>
  <circle cx="22.041" style="fill-rule:evenodd;clip-rule:evenodd;fill:#ED1B2E;" r="0.884" cy="-12.676"/>
  <circle cx="24.041" style="fill-rule:evenodd;clip-rule:evenodd;fill:#ED1B2E;" r="0.884" cy="-15.926"/>
  <circle cx="29.916" style="fill-rule:evenodd;clip-rule:evenodd;fill:#ED1B2E;" r="0.884" cy="-16.926"/>
  <circle cx="19.166" style="fill-rule:evenodd;clip-rule:evenodd;fill:#ED1B2E;" r="0.884" cy="-15.301"/>
  <circle cx="6.55" style="fill-rule:evenodd;clip-rule:evenodd;fill:#ED1B2E;" r="0.884" cy="-7.435"/>
  <path style="fill-rule:evenodd;clip-rule:evenodd;fill:#ED1B2E;" d="M0-8.037c0.471,0.019,0.846,0.408,0.846,0.883    c0,0.476-0.375,0.861-0.846,0.882"/>
  <circle cx="9.791" style="fill-rule:evenodd;clip-rule:evenodd;fill:#ED1B2E;" r="0.884" cy="-6.301"/>
  <circle cx="13.041" style="fill-rule:evenodd;clip-rule:evenodd;fill:#ED1B2E;" r="0.884" cy="-5.676"/>
  <circle cx="15.041" style="fill-rule:evenodd;clip-rule:evenodd;fill:#ED1B2E;" r="0.884" cy="-8.926"/>
  <circle cx="19.916" style="fill-rule:evenodd;clip-rule:evenodd;fill:#ED1B2E;" r="0.884" cy="-9.051"/>
  <circle cx="3.3" style="fill-rule:evenodd;clip-rule:evenodd;fill:#ED1B2E;" r="0.884" cy="-9.435"/>
  <circle cx="55.8" style="fill-rule:evenodd;clip-rule:evenodd;fill:#ED1B2E;" r="0.884" cy="-4.551"/>
  <circle cx="54.05" style="fill-rule:evenodd;clip-rule:evenodd;fill:#ED1B2E;" r="0.884" cy="-1.551"/>
  <circle cx="25.916" style="fill-rule:evenodd;clip-rule:evenodd;fill:#ED1B2E;" r="0.884" cy="-46.176"/>
  <circle cx="23.854" style="fill-rule:evenodd;clip-rule:evenodd;fill:#ED1B2E;" r="0.884" cy="-48.676"/>
  <circle cx="21.612" style="fill-rule:evenodd;clip-rule:evenodd;fill:#ED1B2E;" r="0.884" cy="-50.997"/>
  <circle cx="20.175" style="fill-rule:evenodd;clip-rule:evenodd;fill:#ED1B2E;" r="0.884" cy="-54.06"/>
  <circle cx="18.425" style="fill-rule:evenodd;clip-rule:evenodd;fill:#ED1B2E;" r="0.884" cy="-56.56"/>
  <circle cx="30.976" style="fill-rule:evenodd;clip-rule:evenodd;fill:#ED1B2E;" r="0.884" cy="-56.526"/>
 </g>
</svg>
