<?xml version="1.0"?>
<!-- Converted with SVG Converter - Version 0.9.5 (Compiled Fri Feb 21 09:53:38 2020) - Copyright (C) 2011 Nokia -->
<svg xmlns="http://www.w3.org/2000/svg" version="1.1" y="0px" xml:space="preserve" baseProfile="tiny" width="57.6" height="57.601" viewBox="0 -57.601 57.6 57.601" x="0px" xmlns:xlink="http://www.w3.org/1999/xlink">
 <g>
  <rect y="-57.601" style="fill:none;" width="57.6" height="57.601" x="0"/>
  <circle cx="53.987" r="0.884" cy="-55.238" style="fill-rule:evenodd;clip-rule:evenodd;fill:#ED1B2E;"/>
  <circle cx="48.425" r="0.884" cy="-55.051" style="fill-rule:evenodd;clip-rule:evenodd;fill:#ED1B2E;"/>
  <path style="fill-rule:evenodd;clip-rule:evenodd;fill:#ED1B2E;" d="M45.641-57.601c-0.01,0.481-0.401,0.866-0.883,0.866    c-0.481,0-0.874-0.386-0.883-0.866"/>
  <path style="fill-rule:evenodd;clip-rule:evenodd;fill:#ED1B2E;" d="M50.089-57.601c0,0.012-0.001,0.024-0.001,0.035    c0,0.488,0.397,0.884,0.884,0.884c0.488,0,0.884-0.396,0.884-0.884c0-0.012,0-0.024-0.001-0.035"/>
  <path style="fill-rule:evenodd;clip-rule:evenodd;fill:#ED1B2E;" d="M50.07,0c0.025-0.465,0.412-0.835,0.882-0.835    c0.472,0,0.857,0.37,0.882,0.835"/>
  <path style="fill-rule:evenodd;clip-rule:evenodd;fill:#ED1B2E;" d="M57.6-17.96c-0.007,0-0.015,0-0.023,0    c-0.487,0-0.884,0.395-0.884,0.884s0.396,0.884,0.884,0.884c0.007,0,0.015,0,0.023,0"/>
  <path style="fill-rule:evenodd;clip-rule:evenodd;fill:#ED1B2E;" d="M57.6-8.023c-0.007,0-0.015,0-0.023,0    c-0.487,0-0.884,0.396-0.884,0.884s0.396,0.884,0.884,0.884c0.007,0,0.015,0,0.023,0"/>
  <path style="fill-rule:evenodd;clip-rule:evenodd;fill:#ED1B2E;" d="M57.6-0.008v-0.827c-0.007,0-0.015,0-0.023,0    c-0.471,0-0.857,0.37-0.882,0.835H57.6"/>
  <path style="fill-rule:evenodd;clip-rule:evenodd;fill:#ED1B2E;" d="M57.6-57.571v0.827c-0.007,0-0.015,0-0.023,0    c-0.471,0-0.857-0.37-0.882-0.835H57.6"/>
  <path style="fill-rule:evenodd;clip-rule:evenodd;fill:#ED1B2E;" d="M35.148,0c0-0.005,0-0.009,0-0.014    c0-0.488-0.396-0.884-0.884-0.884c-0.487,0-0.884,0.396-0.884,0.884c0,0.005,0,0.009,0,0.014"/>
  <path style="fill-rule:evenodd;clip-rule:evenodd;fill:#ED1B2E;" d="M40.197,0c0-0.006,0-0.012,0-0.018    c0-0.488-0.396-0.884-0.884-0.884c-0.487,0-0.884,0.396-0.884,0.884c0,0.006,0,0.012,0,0.018"/>
  <path style="fill-rule:evenodd;clip-rule:evenodd;fill:#ED1B2E;" d="M45.648,0c0-0.005,0-0.009,0-0.014    c0-0.488-0.396-0.884-0.884-0.884c-0.487,0-0.884,0.396-0.884,0.884c0,0.005,0,0.009,0,0.014"/>
  <circle cx="44.809" r="0.884" cy="-54.068" style="fill-rule:evenodd;clip-rule:evenodd;fill:#ED1B2E;"/>
  <path style="fill-rule:evenodd;clip-rule:evenodd;fill:#ED1B2E;" d="M40.254-57.601c-0.016,0.475-0.405,0.854-0.883,0.854    c-0.477,0-0.867-0.379-0.883-0.854"/>
  <circle cx="40.925" r="0.884" cy="-53.801" style="fill-rule:evenodd;clip-rule:evenodd;fill:#ED1B2E;"/>
  <circle cx="36.675" r="0.884" cy="-54.051" style="fill-rule:evenodd;clip-rule:evenodd;fill:#ED1B2E;"/>
  <path style="fill-rule:evenodd;clip-rule:evenodd;fill:#ED1B2E;" d="M35.183-57.601c-0.007,0.482-0.399,0.872-0.883,0.872    c-0.483,0-0.876-0.39-0.883-0.872"/>
  <circle cx="33.05" r="0.884" cy="-53.301" style="fill-rule:evenodd;clip-rule:evenodd;fill:#ED1B2E;"/>
  <circle cx="28.925" r="0.884" cy="-53.301" style="fill-rule:evenodd;clip-rule:evenodd;fill:#ED1B2E;"/>
  <circle cx="27.05" r="0.884" cy="-56.426" style="fill-rule:evenodd;clip-rule:evenodd;fill:#ED1B2E;"/>
  <circle cx="22.925" r="0.884" cy="-56.426" style="fill-rule:evenodd;clip-rule:evenodd;fill:#ED1B2E;"/>
  <circle cx="25.05" r="0.884" cy="-53.06" style="fill-rule:evenodd;clip-rule:evenodd;fill:#ED1B2E;"/>
  <circle cx="27.175" r="0.884" cy="-49.926" style="fill-rule:evenodd;clip-rule:evenodd;fill:#ED1B2E;"/>
  <circle cx="31.05" r="0.884" cy="-50.176" style="fill-rule:evenodd;clip-rule:evenodd;fill:#ED1B2E;"/>
  <circle cx="35.175" r="0.884" cy="-50.676" style="fill-rule:evenodd;clip-rule:evenodd;fill:#ED1B2E;"/>
  <circle cx="39.425" r="0.884" cy="-50.426" style="fill-rule:evenodd;clip-rule:evenodd;fill:#ED1B2E;"/>
  <circle cx="43.925" r="0.884" cy="-50.676" style="fill-rule:evenodd;clip-rule:evenodd;fill:#ED1B2E;"/>
  <circle cx="47.737" r="0.884" cy="-51.488" style="fill-rule:evenodd;clip-rule:evenodd;fill:#ED1B2E;"/>
  <circle cx="51.05" r="0.884" cy="-52.488" style="fill-rule:evenodd;clip-rule:evenodd;fill:#ED1B2E;"/>
  <circle cx="54.559" r="0.884" cy="-51.568" style="fill-rule:evenodd;clip-rule:evenodd;fill:#ED1B2E;"/>
  <circle cx="53.362" r="0.884" cy="-48.56" style="fill-rule:evenodd;clip-rule:evenodd;fill:#ED1B2E;"/>
  <path style="fill-rule:evenodd;clip-rule:evenodd;fill:#ED1B2E;" d="M57.6-54.564c-0.452,0.038-0.809,0.418-0.809,0.88    c0,0.463,0.356,0.843,0.809,0.881"/>
  <path style="fill-rule:evenodd;clip-rule:evenodd;fill:#ED1B2E;" d="M57.6-49.38c-0.481,0.007-0.871,0.399-0.871,0.883    c0,0.484,0.39,0.877,0.871,0.884"/>
  <circle cx="55.309" r="0.884" cy="-44.693" style="fill-rule:evenodd;clip-rule:evenodd;fill:#ED1B2E;"/>
  <path style="fill-rule:evenodd;clip-rule:evenodd;fill:#ED1B2E;" d="M57.6-42.772c-0.009,0-0.019-0.001-0.028-0.001    c-0.487,0-0.884,0.396-0.884,0.884c0,0.488,0.396,0.884,0.884,0.884c0.01,0,0.019-0.001,0.028-0.001"/>
  <circle cx="51.229" r="0.884" cy="-45.426" style="fill-rule:evenodd;clip-rule:evenodd;fill:#ED1B2E;"/>
  <circle cx="52.862" r="0.884" cy="-41.872" style="fill-rule:evenodd;clip-rule:evenodd;fill:#ED1B2E;"/>
  <circle cx="54.934" r="0.884" cy="-39.068" style="fill-rule:evenodd;clip-rule:evenodd;fill:#ED1B2E;"/>
  <circle cx="56.05" r="0.884" cy="-35.31" style="fill-rule:evenodd;clip-rule:evenodd;fill:#ED1B2E;"/>
  <circle cx="54.121" r="0.884" cy="-31.318" style="fill-rule:evenodd;clip-rule:evenodd;fill:#ED1B2E;"/>
  <circle cx="56.133" r="0.884" cy="-28.663" style="fill-rule:evenodd;clip-rule:evenodd;fill:#ED1B2E;"/>
  <circle cx="52.55" r="0.884" cy="-34.56" style="fill-rule:evenodd;clip-rule:evenodd;fill:#ED1B2E;"/>
  <circle cx="51.3" r="0.884" cy="-37.497" style="fill-rule:evenodd;clip-rule:evenodd;fill:#ED1B2E;"/>
  <circle cx="49.612" r="0.884" cy="-41.247" style="fill-rule:evenodd;clip-rule:evenodd;fill:#ED1B2E;"/>
  <circle cx="45.8" r="0.884" cy="-40.935" style="fill-rule:evenodd;clip-rule:evenodd;fill:#ED1B2E;"/>
  <circle cx="47.8" r="0.884" cy="-37.56" style="fill-rule:evenodd;clip-rule:evenodd;fill:#ED1B2E;"/>
  <circle cx="48.925" r="0.884" cy="-33.81" style="fill-rule:evenodd;clip-rule:evenodd;fill:#ED1B2E;"/>
  <circle cx="51.036" r="0.884" cy="-30.286" style="fill-rule:evenodd;clip-rule:evenodd;fill:#ED1B2E;"/>
  <circle cx="52.642" r="0.884" cy="-27.15" style="fill-rule:evenodd;clip-rule:evenodd;fill:#ED1B2E;"/>
  <circle cx="55.8" r="0.884" cy="-24.31" style="fill-rule:evenodd;clip-rule:evenodd;fill:#ED1B2E;"/>
  <circle cx="52.362" r="0.884" cy="-23.497" style="fill-rule:evenodd;clip-rule:evenodd;fill:#ED1B2E;"/>
  <circle cx="48.476" r="0.884" cy="-25.927" style="fill-rule:evenodd;clip-rule:evenodd;fill:#ED1B2E;"/>
  <circle cx="47.74" r="0.884" cy="-29.46" style="fill-rule:evenodd;clip-rule:evenodd;fill:#ED1B2E;"/>
  <circle cx="44.871" r="0.884" cy="-32.224" style="fill-rule:evenodd;clip-rule:evenodd;fill:#ED1B2E;"/>
  <circle cx="44.282" r="0.884" cy="-29.278" style="fill-rule:evenodd;clip-rule:evenodd;fill:#ED1B2E;"/>
  <circle cx="45.146" r="0.884" cy="-34.994" style="fill-rule:evenodd;clip-rule:evenodd;fill:#ED1B2E;"/>
  <circle cx="43.425" r="0.884" cy="-38.185" style="fill-rule:evenodd;clip-rule:evenodd;fill:#ED1B2E;"/>
  <circle cx="41.3" r="0.884" cy="-41.06" style="fill-rule:evenodd;clip-rule:evenodd;fill:#ED1B2E;"/>
  <circle cx="39.175" r="0.884" cy="-38.185" style="fill-rule:evenodd;clip-rule:evenodd;fill:#ED1B2E;"/>
  <circle cx="36.8" r="0.884" cy="-40.56" style="fill-rule:evenodd;clip-rule:evenodd;fill:#ED1B2E;"/>
  <circle cx="41.425" r="0.884" cy="-34.81" style="fill-rule:evenodd;clip-rule:evenodd;fill:#ED1B2E;"/>
  <circle cx="40.762" r="0.884" cy="-30.912" style="fill-rule:evenodd;clip-rule:evenodd;fill:#ED1B2E;"/>
  <circle cx="44.524" r="0.884" cy="-26.039" style="fill-rule:evenodd;clip-rule:evenodd;fill:#ED1B2E;"/>
  <circle cx="48.657" r="0.884" cy="-22.618" style="fill-rule:evenodd;clip-rule:evenodd;fill:#ED1B2E;"/>
  <circle cx="56.309" r="0.884" cy="-20.568" style="fill-rule:evenodd;clip-rule:evenodd;fill:#ED1B2E;"/>
  <circle cx="53.642" r="0.884" cy="-16.468" style="fill-rule:evenodd;clip-rule:evenodd;fill:#ED1B2E;"/>
  <path style="fill-rule:evenodd;clip-rule:evenodd;fill:#ED1B2E;" d="M0-16.224c0.016,0.001,0.032,0.001,0.048,0.001    c0.488,0,0.884-0.396,0.884-0.884c0-0.487-0.396-0.884-0.884-0.884c-0.016,0-0.032,0.001-0.048,0.002"/>
  <circle cx="55.838" r="0.884" cy="-13.727" style="fill-rule:evenodd;clip-rule:evenodd;fill:#ED1B2E;"/>
  <circle cx="47.487" r="0.884" cy="-44.81" style="fill-rule:evenodd;clip-rule:evenodd;fill:#ED1B2E;"/>
  <circle cx="45.291" r="0.884" cy="-47.426" style="fill-rule:evenodd;clip-rule:evenodd;fill:#ED1B2E;"/>
  <circle cx="49.041" r="0.884" cy="-48.426" style="fill-rule:evenodd;clip-rule:evenodd;fill:#ED1B2E;"/>
  <circle cx="43.166" r="0.884" cy="-44.551" style="fill-rule:evenodd;clip-rule:evenodd;fill:#ED1B2E;"/>
  <circle cx="41.291" r="0.884" cy="-47.801" style="fill-rule:evenodd;clip-rule:evenodd;fill:#ED1B2E;"/>
  <circle cx="37.416" r="0.884" cy="-47.301" style="fill-rule:evenodd;clip-rule:evenodd;fill:#ED1B2E;"/>
  <circle cx="39.291" r="0.884" cy="-44.426" style="fill-rule:evenodd;clip-rule:evenodd;fill:#ED1B2E;"/>
  <circle cx="35.541" r="0.884" cy="-43.926" style="fill-rule:evenodd;clip-rule:evenodd;fill:#ED1B2E;"/>
  <circle cx="33.791" r="0.884" cy="-47.301" style="fill-rule:evenodd;clip-rule:evenodd;fill:#ED1B2E;"/>
  <circle cx="29.541" r="0.884" cy="-47.176" style="fill-rule:evenodd;clip-rule:evenodd;fill:#ED1B2E;"/>
  <circle cx="31.541" r="0.884" cy="-43.551" style="fill-rule:evenodd;clip-rule:evenodd;fill:#ED1B2E;"/>
  <circle cx="27.916" r="0.884" cy="-43.051" style="fill-rule:evenodd;clip-rule:evenodd;fill:#ED1B2E;"/>
  <circle cx="29.366" r="0.884" cy="-39.968" style="fill:#ED1B2E;"/>
  <circle cx="33.175" r="0.884" cy="-40.06" style="fill-rule:evenodd;clip-rule:evenodd;fill:#ED1B2E;"/>
  <circle cx="35.175" r="0.884" cy="-36.56" style="fill-rule:evenodd;clip-rule:evenodd;fill:#ED1B2E;"/>
  <circle cx="37.896" r="0.884" cy="-34.847" style="fill-rule:evenodd;clip-rule:evenodd;fill:#ED1B2E;"/>
  <circle cx="36.958" r="0.884" cy="-31.386" style="fill-rule:evenodd;clip-rule:evenodd;fill:#ED1B2E;"/>
  <circle cx="33.458" r="0.884" cy="-33.401" style="fill-rule:evenodd;clip-rule:evenodd;fill:#ED1B2E;"/>
  <circle cx="31.3" r="0.884" cy="-36.801" style="fill-rule:evenodd;clip-rule:evenodd;fill:#ED1B2E;"/>
  <circle cx="29.612" r="0.884" cy="-33.363" style="fill-rule:evenodd;clip-rule:evenodd;fill:#ED1B2E;"/>
  <circle cx="27.179" r="0.884" cy="-36.363" style="fill-rule:evenodd;clip-rule:evenodd;fill:#ED1B2E;"/>
  <circle cx="25.366" r="0.884" cy="-39.488" style="fill-rule:evenodd;clip-rule:evenodd;fill:#ED1B2E;"/>
  <circle cx="23.929" r="0.884" cy="-42.551" style="fill-rule:evenodd;clip-rule:evenodd;fill:#ED1B2E;"/>
  <circle cx="22.083" r="0.884" cy="-45.926" style="fill-rule:evenodd;clip-rule:evenodd;fill:#ED1B2E;"/>
  <circle cx="18.987" r="0.884" cy="-48.426" style="fill-rule:evenodd;clip-rule:evenodd;fill:#ED1B2E;"/>
  <circle cx="17.3" r="0.884" cy="-51.926" style="fill-rule:evenodd;clip-rule:evenodd;fill:#ED1B2E;"/>
  <circle cx="15.487" r="0.884" cy="-54.363" style="fill-rule:evenodd;clip-rule:evenodd;fill:#ED1B2E;"/>
  <circle cx="13.425" r="0.884" cy="-56.426" style="fill-rule:evenodd;clip-rule:evenodd;fill:#ED1B2E;"/>
  <circle cx="10.621" r="0.884" cy="-54.131" style="fill-rule:evenodd;clip-rule:evenodd;fill:#ED1B2E;"/>
  <path style="fill-rule:evenodd;clip-rule:evenodd;fill:#ED1B2E;" d="M9.734-57.601c-0.009,0.481-0.401,0.866-0.883,0.866    c-0.482,0-0.874-0.386-0.883-0.866"/>
  <circle cx="12.916" r="0.884" cy="-51.926" style="fill-rule:evenodd;clip-rule:evenodd;fill:#ED1B2E;"/>
  <circle cx="14.541" r="0.884" cy="-48.801" style="fill-rule:evenodd;clip-rule:evenodd;fill:#ED1B2E;"/>
  <circle cx="18.107" r="0.884" cy="-45.391" style="fill-rule:evenodd;clip-rule:evenodd;fill:#ED1B2E;"/>
  <circle cx="19.541" r="0.884" cy="-42.301" style="fill-rule:evenodd;clip-rule:evenodd;fill:#ED1B2E;"/>
  <circle cx="21.416" r="0.884" cy="-39.551" style="fill-rule:evenodd;clip-rule:evenodd;fill:#ED1B2E;"/>
  <circle cx="22.791" r="0.884" cy="-36.551" style="fill-rule:evenodd;clip-rule:evenodd;fill:#ED1B2E;"/>
  <circle cx="24.791" r="0.884" cy="-33.426" style="fill-rule:evenodd;clip-rule:evenodd;fill:#ED1B2E;"/>
  <circle cx="20.675" r="0.884" cy="-33.051" style="fill-rule:evenodd;clip-rule:evenodd;fill:#ED1B2E;"/>
  <circle cx="17.3" r="0.884" cy="-32.676" style="fill-rule:evenodd;clip-rule:evenodd;fill:#ED1B2E;"/>
  <circle cx="12.983" r="0.884" cy="-33.266" style="fill-rule:evenodd;clip-rule:evenodd;fill:#ED1B2E;"/>
  <circle cx="10.675" r="0.884" cy="-30.801" style="fill-rule:evenodd;clip-rule:evenodd;fill:#ED1B2E;"/>
  <circle cx="7.747" r="0.884" cy="-33.398" style="fill-rule:evenodd;clip-rule:evenodd;fill:#ED1B2E;"/>
  <circle cx="3.581" r="0.884" cy="-34.869" style="fill-rule:evenodd;clip-rule:evenodd;fill:#ED1B2E;"/>
  <circle cx="9.667" r="0.884" cy="-35.492" style="fill-rule:evenodd;clip-rule:evenodd;fill:#ED1B2E;"/>
  <circle cx="1.049" r="0.884" cy="-32.452" style="fill-rule:evenodd;clip-rule:evenodd;fill:#ED1B2E;"/>
  <circle cx="1.498" r="0.884" cy="-37.811" style="fill-rule:evenodd;clip-rule:evenodd;fill:#ED1B2E;"/>
  <circle cx="3.987" r="0.884" cy="-40.926" style="fill-rule:evenodd;clip-rule:evenodd;fill:#ED1B2E;"/>
  <circle cx="6.05" r="0.884" cy="-37.426" style="fill-rule:evenodd;clip-rule:evenodd;fill:#ED1B2E;"/>
  <circle cx="11.383" r="0.884" cy="-37.959" style="fill-rule:evenodd;clip-rule:evenodd;fill:#ED1B2E;"/>
  <circle cx="19.041" r="0.884" cy="-36.426" style="fill-rule:evenodd;clip-rule:evenodd;fill:#ED1B2E;"/>
  <circle cx="15.267" r="0.884" cy="-36.15" style="fill-rule:evenodd;clip-rule:evenodd;fill:#ED1B2E;"/>
  <circle cx="13.642" r="0.884" cy="-40.377" style="fill-rule:evenodd;clip-rule:evenodd;fill:#ED1B2E;"/>
  <circle cx="17.267" r="0.884" cy="-39.275" style="fill-rule:evenodd;clip-rule:evenodd;fill:#ED1B2E;"/>
  <circle cx="16.05" r="0.884" cy="-42.935" style="fill-rule:evenodd;clip-rule:evenodd;fill:#ED1B2E;"/>
  <circle cx="13.425" r="0.884" cy="-45.435" style="fill-rule:evenodd;clip-rule:evenodd;fill:#ED1B2E;"/>
  <circle cx="11.425" r="0.884" cy="-43.185" style="fill-rule:evenodd;clip-rule:evenodd;fill:#ED1B2E;"/>
  <circle cx="8.267" r="0.884" cy="-40.685" style="fill-rule:evenodd;clip-rule:evenodd;fill:#ED1B2E;"/>
  <circle cx="6.55" r="0.884" cy="-43.81" style="fill-rule:evenodd;clip-rule:evenodd;fill:#ED1B2E;"/>
  <circle cx="2.55" r="0.884" cy="-44.247" style="fill-rule:evenodd;clip-rule:evenodd;fill:#ED1B2E;"/>
  <path style="fill-rule:evenodd;clip-rule:evenodd;fill:#ED1B2E;" d="M0-40.988c0.482-0.007,0.871-0.399,0.871-0.884    c0-0.483-0.389-0.876-0.871-0.883"/>
  <circle cx="4.425" r="0.884" cy="-46.997" style="fill-rule:evenodd;clip-rule:evenodd;fill:#ED1B2E;"/>
  <path style="fill-rule:evenodd;clip-rule:evenodd;fill:#ED1B2E;" d="M0-47.572c0.477-0.013,0.859-0.402,0.859-0.883    c0-0.479-0.382-0.87-0.859-0.883"/>
  <circle cx="9.3" r="0.884" cy="-46.185" style="fill-rule:evenodd;clip-rule:evenodd;fill:#ED1B2E;"/>
  <circle cx="6.862" r="0.884" cy="-49.31" style="fill-rule:evenodd;clip-rule:evenodd;fill:#ED1B2E;"/>
  <circle cx="11.05" r="0.884" cy="-49.06" style="fill-rule:evenodd;clip-rule:evenodd;fill:#ED1B2E;"/>
  <circle cx="8.541" r="0.884" cy="-51.551" style="fill-rule:evenodd;clip-rule:evenodd;fill:#ED1B2E;"/>
  <circle cx="4.925" r="0.884" cy="-52.747" style="fill-rule:evenodd;clip-rule:evenodd;fill:#ED1B2E;"/>
  <path style="fill-rule:evenodd;clip-rule:evenodd;fill:#ED1B2E;" d="M0-52.801c0.482-0.007,0.871-0.399,0.871-0.884    c0-0.483-0.389-0.876-0.871-0.883"/>
  <circle cx="2.55" r="0.884" cy="-50.435" style="fill-rule:evenodd;clip-rule:evenodd;fill:#ED1B2E;"/>
  <circle cx="6.779" r="0.884" cy="-55.074" style="fill-rule:evenodd;clip-rule:evenodd;fill:#ED1B2E;"/>
  <path style="fill-rule:evenodd;clip-rule:evenodd;fill:#ED1B2E;" d="M0-57.601v0.908c0.473-0.018,0.851-0.405,0.851-0.882    c0-0.009-0.001-0.018-0.001-0.026H0.001"/>
  <circle cx="2.737" r="0.884" cy="-56.122" style="fill-rule:evenodd;clip-rule:evenodd;fill:#ED1B2E;"/>
  <circle cx="26.725" r="0.884" cy="-30.766" style="fill-rule:evenodd;clip-rule:evenodd;fill:#ED1B2E;"/>
  <circle cx="30.008" r="0.884" cy="-29.584" style="fill-rule:evenodd;clip-rule:evenodd;fill:#ED1B2E;"/>
  <circle cx="33.208" r="0.884" cy="-29.784" style="fill-rule:evenodd;clip-rule:evenodd;fill:#ED1B2E;"/>
  <circle cx="29.416" r="0.884" cy="-24.551" style="fill-rule:evenodd;clip-rule:evenodd;fill:#ED1B2E;"/>
  <circle cx="33.166" r="0.884" cy="-26.574" style="fill-rule:evenodd;clip-rule:evenodd;fill:#ED1B2E;"/>
  <circle cx="36.566" r="0.884" cy="-28.174" style="fill-rule:evenodd;clip-rule:evenodd;fill:#ED1B2E;"/>
  <circle cx="36.541" r="0.884" cy="-24.926" style="fill-rule:evenodd;clip-rule:evenodd;fill:#ED1B2E;"/>
  <circle cx="36.425" r="0.884" cy="-21.435" style="fill-rule:evenodd;clip-rule:evenodd;fill:#ED1B2E;"/>
  <circle cx="40.416" r="0.884" cy="-20.676" style="fill-rule:evenodd;clip-rule:evenodd;fill:#ED1B2E;"/>
  <circle cx="45.666" r="0.884" cy="-15.926" style="fill-rule:evenodd;clip-rule:evenodd;fill:#ED1B2E;"/>
  <circle cx="47.541" r="0.884" cy="-12.301" style="fill-rule:evenodd;clip-rule:evenodd;fill:#ED1B2E;"/>
  <circle cx="50.541" r="0.884" cy="-9.551" style="fill-rule:evenodd;clip-rule:evenodd;fill:#ED1B2E;"/>
  <circle cx="41.791" r="0.884" cy="-16.426" style="fill-rule:evenodd;clip-rule:evenodd;fill:#ED1B2E;"/>
  <circle cx="40.406" r="0.884" cy="-27.464" style="fill-rule:evenodd;clip-rule:evenodd;fill:#ED1B2E;"/>
  <circle cx="40.425" r="0.884" cy="-24.06" style="fill-rule:evenodd;clip-rule:evenodd;fill:#ED1B2E;"/>
  <circle cx="44.322" r="0.884" cy="-22.532" style="fill-rule:evenodd;clip-rule:evenodd;fill:#ED1B2E;"/>
  <circle cx="44.447" r="0.884" cy="-19.22" style="fill-rule:evenodd;clip-rule:evenodd;fill:#ED1B2E;"/>
  <circle cx="48.47" r="0.884" cy="-18.868" style="fill-rule:evenodd;clip-rule:evenodd;fill:#ED1B2E;"/>
  <circle cx="52.487" r="0.884" cy="-19.81" style="fill-rule:evenodd;clip-rule:evenodd;fill:#ED1B2E;"/>
  <circle cx="49.892" r="0.884" cy="-15.718" style="fill-rule:evenodd;clip-rule:evenodd;fill:#ED1B2E;"/>
  <circle cx="52.392" r="0.884" cy="-12.968" style="fill-rule:evenodd;clip-rule:evenodd;fill:#ED1B2E;"/>
  <circle cx="55.55" r="0.884" cy="-10.002" style="fill-rule:evenodd;clip-rule:evenodd;fill:#ED1B2E;"/>
  <circle cx="53.175" r="0.884" cy="-7.301" style="fill-rule:evenodd;clip-rule:evenodd;fill:#ED1B2E;"/>
  <circle cx="51.362" r="0.884" cy="-3.988" style="fill:#ED1B2E;"/>
  <circle cx="45.425" r="0.884" cy="-4.81" style="fill-rule:evenodd;clip-rule:evenodd;fill:#ED1B2E;"/>
  <circle cx="48.925" r="0.884" cy="-6.435" style="fill-rule:evenodd;clip-rule:evenodd;fill:#ED1B2E;"/>
  <circle cx="47.899" r="0.884" cy="-2.115" style="fill-rule:evenodd;clip-rule:evenodd;fill:#ED1B2E;"/>
  <circle cx="42.3" r="0.884" cy="-2.685" style="fill-rule:evenodd;clip-rule:evenodd;fill:#ED1B2E;"/>
  <circle cx="46.175" r="0.884" cy="-9.06" style="fill-rule:evenodd;clip-rule:evenodd;fill:#ED1B2E;"/>
  <circle cx="42.675" r="0.884" cy="-8.56" style="fill-rule:evenodd;clip-rule:evenodd;fill:#ED1B2E;"/>
  <circle cx="43.3" r="0.884" cy="-12.666" style="fill-rule:evenodd;clip-rule:evenodd;fill:#ED1B2E;"/>
  <circle cx="40.3" r="0.884" cy="-5.685" style="fill-rule:evenodd;clip-rule:evenodd;fill:#ED1B2E;"/>
  <circle cx="36.925" r="0.884" cy="-3.176" style="fill-rule:evenodd;clip-rule:evenodd;fill:#ED1B2E;"/>
  <circle cx="36.175" r="0.884" cy="-7.176" style="fill-rule:evenodd;clip-rule:evenodd;fill:#ED1B2E;"/>
  <circle cx="39.175" r="0.884" cy="-9.926" style="fill-rule:evenodd;clip-rule:evenodd;fill:#ED1B2E;"/>
  <circle cx="38.237" r="0.884" cy="-13.488" style="fill-rule:evenodd;clip-rule:evenodd;fill:#ED1B2E;"/>
  <circle cx="37.05" r="0.884" cy="-17.301" style="fill-rule:evenodd;clip-rule:evenodd;fill:#ED1B2E;"/>
  <circle cx="33.05" r="0.884" cy="-19.051" style="fill-rule:evenodd;clip-rule:evenodd;fill:#ED1B2E;"/>
  <circle cx="32.925" r="0.884" cy="-23.051" style="fill-rule:evenodd;clip-rule:evenodd;fill:#ED1B2E;"/>
  <circle cx="29.425" r="0.884" cy="-20.926" style="fill-rule:evenodd;clip-rule:evenodd;fill:#ED1B2E;"/>
  <circle cx="25.425" r="0.884" cy="-19.551" style="fill-rule:evenodd;clip-rule:evenodd;fill:#ED1B2E;"/>
  <circle cx="21.675" r="0.884" cy="-18.801" style="fill-rule:evenodd;clip-rule:evenodd;fill:#ED1B2E;"/>
  <circle cx="18.55" r="0.884" cy="-19.551" style="fill-rule:evenodd;clip-rule:evenodd;fill:#ED1B2E;"/>
  <circle cx="15.925" r="0.884" cy="-16.051" style="fill-rule:evenodd;clip-rule:evenodd;fill:#ED1B2E;"/>
  <circle cx="11.3" r="0.884" cy="-17.176" style="fill-rule:evenodd;clip-rule:evenodd;fill:#ED1B2E;"/>
  <circle cx="9.175" r="0.884" cy="-14.051" style="fill-rule:evenodd;clip-rule:evenodd;fill:#ED1B2E;"/>
  <circle cx="6.675" r="0.884" cy="-17.676" style="fill-rule:evenodd;clip-rule:evenodd;fill:#ED1B2E;"/>
  <circle cx="2.996" r="0.884" cy="-17.943" style="fill-rule:evenodd;clip-rule:evenodd;fill:#ED1B2E;"/>
  <circle cx="5.568" r="0.884" cy="-21.019" style="fill-rule:evenodd;clip-rule:evenodd;fill:#ED1B2E;"/>
  <circle cx="9.623" r="0.884" cy="-20.211" style="fill-rule:evenodd;clip-rule:evenodd;fill:#ED1B2E;"/>
  <circle cx="14.05" r="0.884" cy="-19.801" style="fill-rule:evenodd;clip-rule:evenodd;fill:#ED1B2E;"/>
  <circle cx="12.737" r="0.884" cy="-23.613" style="fill:#ED1B2E;"/>
  <circle cx="16.921" r="0.884" cy="-22.488" style="fill-rule:evenodd;clip-rule:evenodd;fill:#ED1B2E;"/>
  <circle cx="20.925" r="0.884" cy="-22.426" style="fill-rule:evenodd;clip-rule:evenodd;fill:#ED1B2E;"/>
  <circle cx="25.616" r="0.884" cy="-22.741" style="fill-rule:evenodd;clip-rule:evenodd;fill:#ED1B2E;"/>
  <circle cx="23.149" r="0.884" cy="-25.685" style="fill-rule:evenodd;clip-rule:evenodd;fill:#ED1B2E;"/>
  <circle cx="19.3" r="0.884" cy="-25.81" style="fill:#ED1B2E;"/>
  <circle cx="15.55" r="0.884" cy="-26.31" style="fill-rule:evenodd;clip-rule:evenodd;fill:#ED1B2E;"/>
  <circle cx="15.175" r="0.884" cy="-29.801" style="fill-rule:evenodd;clip-rule:evenodd;fill:#ED1B2E;"/>
  <circle cx="19.3" r="0.884" cy="-29.435" style="fill-rule:evenodd;clip-rule:evenodd;fill:#ED1B2E;"/>
  <circle cx="22.925" r="0.884" cy="-29.435" style="fill-rule:evenodd;clip-rule:evenodd;fill:#ED1B2E;"/>
  <circle cx="27.399" r="0.884" cy="-26.935" style="fill-rule:evenodd;clip-rule:evenodd;fill:#ED1B2E;"/>
  <circle cx="11.675" r="0.884" cy="-27.185" style="fill-rule:evenodd;clip-rule:evenodd;fill:#ED1B2E;"/>
  <circle cx="9.221" r="0.884" cy="-23.586" style="fill-rule:evenodd;clip-rule:evenodd;fill:#ED1B2E;"/>
  <circle cx="7.175" r="0.884" cy="-25.791" style="fill-rule:evenodd;clip-rule:evenodd;fill:#ED1B2E;"/>
  <circle cx="5.188" r="0.884" cy="-28.44" style="fill-rule:evenodd;clip-rule:evenodd;fill:#ED1B2E;"/>
  <circle cx="3.953" r="0.884" cy="-24.134" style="fill-rule:evenodd;clip-rule:evenodd;fill:#ED1B2E;"/>
  <circle cx="1.645" r="0.884" cy="-21.789" style="fill-rule:evenodd;clip-rule:evenodd;fill:#ED1B2E;"/>
  <circle cx="1.854" r="0.884" cy="-26.252" style="fill-rule:evenodd;clip-rule:evenodd;fill:#ED1B2E;"/>
  <circle cx="5.319" r="0.884" cy="-31.682" style="fill-rule:evenodd;clip-rule:evenodd;fill:#ED1B2E;"/>
  <circle cx="2.219" r="0.884" cy="-29.647" style="fill-rule:evenodd;clip-rule:evenodd;fill:#ED1B2E;"/>
  <circle cx="8.494" r="0.884" cy="-28.59" style="fill-rule:evenodd;clip-rule:evenodd;fill:#ED1B2E;"/>
  <circle cx="33.925" r="0.884" cy="-15.051" style="fill-rule:evenodd;clip-rule:evenodd;fill:#ED1B2E;"/>
  <circle cx="35.3" r="0.884" cy="-11.301" style="fill-rule:evenodd;clip-rule:evenodd;fill:#ED1B2E;"/>
  <circle cx="32.175" r="0.884" cy="-8.676" style="fill-rule:evenodd;clip-rule:evenodd;fill:#ED1B2E;"/>
  <circle cx="32.675" r="0.884" cy="-3.926" style="fill-rule:evenodd;clip-rule:evenodd;fill:#ED1B2E;"/>
  <circle cx="30.3" r="0.884" cy="-1.676" style="fill-rule:evenodd;clip-rule:evenodd;fill:#ED1B2E;"/>
  <circle cx="28.987" r="0.884" cy="-5.113" style="fill-rule:evenodd;clip-rule:evenodd;fill:#ED1B2E;"/>
  <circle cx="28.425" r="0.884" cy="-9.56" style="fill-rule:evenodd;clip-rule:evenodd;fill:#ED1B2E;"/>
  <circle cx="31.05" r="0.884" cy="-12.801" style="fill-rule:evenodd;clip-rule:evenodd;fill:#ED1B2E;"/>
  <circle cx="27.05" r="0.884" cy="-14.051" style="fill-rule:evenodd;clip-rule:evenodd;fill:#ED1B2E;"/>
  <circle cx="24.8" r="0.884" cy="-9.676" style="fill-rule:evenodd;clip-rule:evenodd;fill:#ED1B2E;"/>
  <circle cx="25.3" r="0.884" cy="-5.801" style="fill-rule:evenodd;clip-rule:evenodd;fill:#ED1B2E;"/>
  <circle cx="26.425" r="0.884" cy="-2.301" style="fill-rule:evenodd;clip-rule:evenodd;fill:#ED1B2E;"/>
  <circle cx="22.675" r="0.884" cy="-2.051" style="fill-rule:evenodd;clip-rule:evenodd;fill:#ED1B2E;"/>
  <circle cx="21.425" r="0.884" cy="-5.551" style="fill-rule:evenodd;clip-rule:evenodd;fill:#ED1B2E;"/>
  <circle cx="17.425" r="0.884" cy="-5.801" style="fill-rule:evenodd;clip-rule:evenodd;fill:#ED1B2E;"/>
  <circle cx="18.925" r="0.884" cy="-2.551" style="fill-rule:evenodd;clip-rule:evenodd;fill:#ED1B2E;"/>
  <circle cx="15.05" r="0.884" cy="-2.051" style="fill-rule:evenodd;clip-rule:evenodd;fill:#ED1B2E;"/>
  <circle cx="11.05" r="0.884" cy="-2.176" style="fill-rule:evenodd;clip-rule:evenodd;fill:#ED1B2E;"/>
  <path style="fill-rule:evenodd;clip-rule:evenodd;fill:#ED1B2E;" d="M9.745,0c0.001-0.017,0.002-0.033,0.002-0.051    c0-0.487-0.396-0.884-0.884-0.884c-0.487,0-0.884,0.396-0.884,0.884C7.978-0.033,7.979-0.017,7.98,0"/>
  <circle cx="7.425" r="0.884" cy="-3.435" style="fill-rule:evenodd;clip-rule:evenodd;fill:#ED1B2E;"/>
  <circle cx="4.3" r="0.884" cy="-1.31" style="fill-rule:evenodd;clip-rule:evenodd;fill:#ED1B2E;"/>
  <circle cx="3.425" r="0.884" cy="-5.435" style="fill-rule:evenodd;clip-rule:evenodd;fill:#ED1B2E;"/>
  <circle cx="1.258" r="0.884" cy="-2.726" style="fill-rule:evenodd;clip-rule:evenodd;fill:#ED1B2E;"/>
  <path style="fill-rule:evenodd;clip-rule:evenodd;fill:#ED1B2E;" d="M0.001,0H0.83C0.817-0.459,0.455-0.83,0-0.857V0"/>
  <circle cx="1.416" r="0.884" cy="-12.176" style="fill-rule:evenodd;clip-rule:evenodd;fill:#ED1B2E;"/>
  <circle cx="4.416" r="0.884" cy="-14.051" style="fill-rule:evenodd;clip-rule:evenodd;fill:#ED1B2E;"/>
  <circle cx="6.791" r="0.884" cy="-11.301" style="fill-rule:evenodd;clip-rule:evenodd;fill:#ED1B2E;"/>
  <circle cx="11.416" r="0.884" cy="-9.801" style="fill-rule:evenodd;clip-rule:evenodd;fill:#ED1B2E;"/>
  <circle cx="13.291" r="0.884" cy="-13.301" style="fill-rule:evenodd;clip-rule:evenodd;fill:#ED1B2E;"/>
  <circle cx="17.416" r="0.884" cy="-12.051" style="fill-rule:evenodd;clip-rule:evenodd;fill:#ED1B2E;"/>
  <circle cx="22.041" r="0.884" cy="-12.676" style="fill-rule:evenodd;clip-rule:evenodd;fill:#ED1B2E;"/>
  <circle cx="24.041" r="0.884" cy="-15.926" style="fill-rule:evenodd;clip-rule:evenodd;fill:#ED1B2E;"/>
  <circle cx="29.916" r="0.884" cy="-16.926" style="fill-rule:evenodd;clip-rule:evenodd;fill:#ED1B2E;"/>
  <circle cx="19.166" r="0.884" cy="-15.301" style="fill-rule:evenodd;clip-rule:evenodd;fill:#ED1B2E;"/>
  <circle cx="6.55" r="0.884" cy="-7.435" style="fill-rule:evenodd;clip-rule:evenodd;fill:#ED1B2E;"/>
  <path style="fill-rule:evenodd;clip-rule:evenodd;fill:#ED1B2E;" d="M0-8.037c0.471,0.019,0.846,0.408,0.846,0.883    c0,0.476-0.375,0.861-0.846,0.882"/>
  <circle cx="9.791" r="0.884" cy="-6.301" style="fill-rule:evenodd;clip-rule:evenodd;fill:#ED1B2E;"/>
  <circle cx="13.041" r="0.884" cy="-5.676" style="fill-rule:evenodd;clip-rule:evenodd;fill:#ED1B2E;"/>
  <circle cx="15.041" r="0.884" cy="-8.926" style="fill-rule:evenodd;clip-rule:evenodd;fill:#ED1B2E;"/>
  <circle cx="19.916" r="0.884" cy="-9.051" style="fill-rule:evenodd;clip-rule:evenodd;fill:#ED1B2E;"/>
  <circle cx="3.3" r="0.884" cy="-9.435" style="fill-rule:evenodd;clip-rule:evenodd;fill:#ED1B2E;"/>
  <circle cx="55.8" r="0.884" cy="-4.551" style="fill-rule:evenodd;clip-rule:evenodd;fill:#ED1B2E;"/>
  <circle cx="54.05" r="0.884" cy="-1.551" style="fill-rule:evenodd;clip-rule:evenodd;fill:#ED1B2E;"/>
  <circle cx="25.916" r="0.884" cy="-46.176" style="fill-rule:evenodd;clip-rule:evenodd;fill:#ED1B2E;"/>
  <circle cx="23.854" r="0.884" cy="-48.676" style="fill-rule:evenodd;clip-rule:evenodd;fill:#ED1B2E;"/>
  <circle cx="21.612" r="0.884" cy="-50.997" style="fill-rule:evenodd;clip-rule:evenodd;fill:#ED1B2E;"/>
  <circle cx="20.175" r="0.884" cy="-54.06" style="fill-rule:evenodd;clip-rule:evenodd;fill:#ED1B2E;"/>
  <circle cx="18.425" r="0.884" cy="-56.56" style="fill-rule:evenodd;clip-rule:evenodd;fill:#ED1B2E;"/>
  <circle cx="30.976" r="0.884" cy="-56.526" style="fill-rule:evenodd;clip-rule:evenodd;fill:#ED1B2E;"/>
 </g>
</svg>
