<?xml version="1.0"?>
<!-- Converted with SVG Converter - Version 0.9.5 (Compiled Fri Feb 21 09:53:38 2020) - Copyright (C) 2011 Nokia -->
<svg xmlns="http://www.w3.org/2000/svg" width="57.6" viewBox="1 -58.6 57.6 57.6" xmlns:xlink="http://www.w3.org/1999/xlink" version="1.1" y="0px" height="57.6" x="0px" xml:space="preserve" baseProfile="tiny">
 <g>
  <rect width="57.6" y="-58.6" height="57.6" style="fill:none;" x="1"/>
  <circle r="0.884" cy="-56.238" cx="54.987" style="fill-rule:evenodd;clip-rule:evenodd;"/>
  <circle r="0.884" cy="-56.05" cx="49.425" style="fill-rule:evenodd;clip-rule:evenodd;"/>
  <path d="M46.641-58.6c-0.01,0.48-0.401,0.866-0.883,0.866    c-0.481,0-0.874-0.386-0.883-0.866" style="fill-rule:evenodd;clip-rule:evenodd;"/>
  <path d="M51.089-58.6c0,0.011-0.001,0.023-0.001,0.034    c0,0.488,0.397,0.884,0.884,0.884c0.488,0,0.884-0.396,0.884-0.884c0-0.012,0-0.023-0.001-0.034" style="fill-rule:evenodd;clip-rule:evenodd;"/>
  <path d="M51.07-1c0.025-0.465,0.411-0.835,0.882-0.835    c0.472,0,0.857,0.37,0.882,0.835" style="fill-rule:evenodd;clip-rule:evenodd;"/>
  <path d="M58.6-18.959c-0.007,0-0.015,0-0.022,0c-0.487,0-0.884,0.396-0.884,0.884    c0,0.488,0.396,0.884,0.884,0.884c0.007,0,0.015,0,0.022,0" style="fill-rule:evenodd;clip-rule:evenodd;"/>
  <path d="M58.6-9.022c-0.007,0-0.015,0-0.022,0c-0.487,0-0.884,0.396-0.884,0.884    c0,0.488,0.396,0.884,0.884,0.884c0.007,0,0.015,0,0.022-0.001" style="fill-rule:evenodd;clip-rule:evenodd;"/>
  <path d="M58.6-1.008v-0.826c-0.007,0-0.015-0.001-0.022-0.001    c-0.471,0-0.857,0.37-0.882,0.835H58.6" style="fill-rule:evenodd;clip-rule:evenodd;"/>
  <path d="M58.6-58.571v0.826c-0.007,0-0.015,0-0.022,0    c-0.471,0-0.857-0.37-0.882-0.835H58.6" style="fill-rule:evenodd;clip-rule:evenodd;"/>
  <path d="M36.148-1c0-0.005,0-0.009,0-0.014c0-0.488-0.396-0.884-0.884-0.884    c-0.487,0-0.884,0.396-0.884,0.884c0,0.005,0,0.009,0,0.014" style="fill-rule:evenodd;clip-rule:evenodd;"/>
  <path d="M41.197-1c0-0.006,0-0.012,0-0.018c0-0.488-0.396-0.884-0.884-0.884    c-0.487,0-0.884,0.396-0.884,0.884c0,0.006,0,0.012,0,0.018" style="fill-rule:evenodd;clip-rule:evenodd;"/>
  <path d="M46.648-1c0-0.005,0-0.009,0-0.014c0-0.488-0.396-0.884-0.884-0.884    c-0.487,0-0.884,0.396-0.884,0.884c0,0.005,0,0.009,0,0.014" style="fill-rule:evenodd;clip-rule:evenodd;"/>
  <circle r="0.884" cy="-55.068" cx="45.809" style="fill-rule:evenodd;clip-rule:evenodd;"/>
  <path d="M41.254-58.6c-0.016,0.474-0.405,0.854-0.883,0.854    c-0.477,0-0.867-0.379-0.883-0.854" style="fill-rule:evenodd;clip-rule:evenodd;"/>
  <circle r="0.884" cy="-54.8" cx="41.925" style="fill-rule:evenodd;clip-rule:evenodd;"/>
  <circle r="0.884" cy="-55.05" cx="37.675" style="fill-rule:evenodd;clip-rule:evenodd;"/>
  <path d="M36.183-58.6c-0.007,0.482-0.4,0.872-0.883,0.872    c-0.483,0-0.876-0.389-0.883-0.872" style="fill-rule:evenodd;clip-rule:evenodd;"/>
  <circle r="0.884" cy="-54.3" cx="34.05" style="fill-rule:evenodd;clip-rule:evenodd;"/>
  <circle r="0.884" cy="-54.3" cx="29.925" style="fill-rule:evenodd;clip-rule:evenodd;"/>
  <circle r="0.884" cy="-57.425" cx="28.05" style="fill-rule:evenodd;clip-rule:evenodd;"/>
  <circle r="0.884" cy="-57.425" cx="23.925" style="fill-rule:evenodd;clip-rule:evenodd;"/>
  <circle r="0.884" cy="-54.059" cx="26.05" style="fill-rule:evenodd;clip-rule:evenodd;"/>
  <circle r="0.884" cy="-50.925" cx="28.175" style="fill-rule:evenodd;clip-rule:evenodd;"/>
  <circle r="0.884" cy="-51.175" cx="32.05" style="fill-rule:evenodd;clip-rule:evenodd;"/>
  <circle r="0.884" cy="-51.675" cx="36.175" style="fill-rule:evenodd;clip-rule:evenodd;"/>
  <circle r="0.884" cy="-51.425" cx="40.425" style="fill-rule:evenodd;clip-rule:evenodd;"/>
  <circle r="0.884" cy="-51.675" cx="44.925" style="fill-rule:evenodd;clip-rule:evenodd;"/>
  <circle r="0.884" cy="-52.488" cx="48.737" style="fill-rule:evenodd;clip-rule:evenodd;"/>
  <circle r="0.884" cy="-53.488" cx="52.05" style="fill-rule:evenodd;clip-rule:evenodd;"/>
  <circle r="0.884" cy="-52.568" cx="55.559" style="fill-rule:evenodd;clip-rule:evenodd;"/>
  <circle r="0.884" cy="-49.559" cx="54.362" style="fill-rule:evenodd;clip-rule:evenodd;"/>
  <path d="M58.6-55.564c-0.452,0.038-0.809,0.418-0.809,0.88    c0,0.463,0.356,0.842,0.809,0.88" style="fill-rule:evenodd;clip-rule:evenodd;"/>
  <path d="M58.6-50.38c-0.481,0.007-0.871,0.4-0.871,0.883    c0,0.484,0.39,0.877,0.871,0.884" style="fill-rule:evenodd;clip-rule:evenodd;"/>
  <circle r="0.884" cy="-45.693" cx="56.309" style="fill-rule:evenodd;clip-rule:evenodd;"/>
  <path d="M58.6-43.772c-0.01,0-0.019-0.001-0.028-0.001    c-0.487,0-0.884,0.396-0.884,0.884c0,0.488,0.396,0.884,0.884,0.884c0.01,0,0.019-0.001,0.028-0.001" style="fill-rule:evenodd;clip-rule:evenodd;"/>
  <circle r="0.884" cy="-46.425" cx="52.229" style="fill-rule:evenodd;clip-rule:evenodd;"/>
  <circle r="0.884" cy="-42.872" cx="53.862" style="fill-rule:evenodd;clip-rule:evenodd;"/>
  <circle r="0.884" cy="-40.068" cx="55.934" style="fill-rule:evenodd;clip-rule:evenodd;"/>
  <circle r="0.884" cy="-36.309" cx="57.05" style="fill-rule:evenodd;clip-rule:evenodd;"/>
  <circle r="0.884" cy="-32.318" cx="55.121" style="fill-rule:evenodd;clip-rule:evenodd;"/>
  <circle r="0.884" cy="-29.663" cx="57.133" style="fill-rule:evenodd;clip-rule:evenodd;"/>
  <circle r="0.884" cy="-35.559" cx="53.55" style="fill-rule:evenodd;clip-rule:evenodd;"/>
  <circle r="0.884" cy="-38.497" cx="52.3" style="fill-rule:evenodd;clip-rule:evenodd;"/>
  <circle r="0.884" cy="-42.247" cx="50.612" style="fill-rule:evenodd;clip-rule:evenodd;"/>
  <circle r="0.884" cy="-41.934" cx="46.8" style="fill-rule:evenodd;clip-rule:evenodd;"/>
  <circle r="0.884" cy="-38.559" cx="48.8" style="fill-rule:evenodd;clip-rule:evenodd;"/>
  <circle r="0.884" cy="-34.809" cx="49.925" style="fill-rule:evenodd;clip-rule:evenodd;"/>
  <circle r="0.884" cy="-31.287" cx="52.036" style="fill-rule:evenodd;clip-rule:evenodd;"/>
  <circle r="0.884" cy="-28.15" cx="53.642" style="fill-rule:evenodd;clip-rule:evenodd;"/>
  <circle r="0.884" cy="-25.309" cx="56.8" style="fill-rule:evenodd;clip-rule:evenodd;"/>
  <circle r="0.884" cy="-24.497" cx="53.362" style="fill-rule:evenodd;clip-rule:evenodd;"/>
  <circle r="0.884" cy="-26.926" cx="49.476" style="fill-rule:evenodd;clip-rule:evenodd;"/>
  <circle r="0.884" cy="-30.459" cx="48.74" style="fill-rule:evenodd;clip-rule:evenodd;"/>
  <circle r="0.884" cy="-33.224" cx="45.871" style="fill-rule:evenodd;clip-rule:evenodd;"/>
  <circle r="0.884" cy="-30.278" cx="45.282" style="fill-rule:evenodd;clip-rule:evenodd;"/>
  <circle r="0.884" cy="-35.994" cx="46.146" style="fill-rule:evenodd;clip-rule:evenodd;"/>
  <circle r="0.884" cy="-39.184" cx="44.425" style="fill-rule:evenodd;clip-rule:evenodd;"/>
  <circle r="0.884" cy="-42.059" cx="42.3" style="fill-rule:evenodd;clip-rule:evenodd;"/>
  <circle r="0.884" cy="-39.184" cx="40.175" style="fill-rule:evenodd;clip-rule:evenodd;"/>
  <circle r="0.884" cy="-41.559" cx="37.8" style="fill-rule:evenodd;clip-rule:evenodd;"/>
  <circle r="0.884" cy="-35.809" cx="42.425" style="fill-rule:evenodd;clip-rule:evenodd;"/>
  <circle r="0.884" cy="-31.912" cx="41.762" style="fill-rule:evenodd;clip-rule:evenodd;"/>
  <circle r="0.884" cy="-27.039" cx="45.524" style="fill-rule:evenodd;clip-rule:evenodd;"/>
  <circle r="0.884" cy="-23.618" cx="49.657" style="fill-rule:evenodd;clip-rule:evenodd;"/>
  <circle r="0.884" cy="-21.568" cx="57.309" style="fill-rule:evenodd;clip-rule:evenodd;"/>
  <circle r="0.884" cy="-17.468" cx="54.642" style="fill-rule:evenodd;clip-rule:evenodd;"/>
  <path d="M1-17.224c0.016,0.001,0.032,0.001,0.048,0.001    c0.488,0,0.884-0.396,0.884-0.884c0-0.488-0.395-0.884-0.884-0.884c-0.016,0-0.032,0-0.048,0.001" style="fill-rule:evenodd;clip-rule:evenodd;"/>
  <circle r="0.884" cy="-14.727" cx="56.838" style="fill-rule:evenodd;clip-rule:evenodd;"/>
  <circle r="0.884" cy="-45.809" cx="48.487" style="fill-rule:evenodd;clip-rule:evenodd;"/>
  <circle r="0.884" cy="-48.425" cx="46.291" style="fill-rule:evenodd;clip-rule:evenodd;"/>
  <circle r="0.884" cy="-49.425" cx="50.041" style="fill-rule:evenodd;clip-rule:evenodd;"/>
  <circle r="0.884" cy="-45.55" cx="44.166" style="fill-rule:evenodd;clip-rule:evenodd;"/>
  <circle r="0.884" cy="-48.8" cx="42.291" style="fill-rule:evenodd;clip-rule:evenodd;"/>
  <circle r="0.884" cy="-48.3" cx="38.416" style="fill-rule:evenodd;clip-rule:evenodd;"/>
  <circle r="0.884" cy="-45.425" cx="40.291" style="fill-rule:evenodd;clip-rule:evenodd;"/>
  <circle r="0.884" cy="-44.925" cx="36.541" style="fill-rule:evenodd;clip-rule:evenodd;"/>
  <circle r="0.884" cy="-48.3" cx="34.791" style="fill-rule:evenodd;clip-rule:evenodd;"/>
  <circle r="0.884" cy="-48.175" cx="30.541" style="fill-rule:evenodd;clip-rule:evenodd;"/>
  <circle r="0.884" cy="-44.55" cx="32.541" style="fill-rule:evenodd;clip-rule:evenodd;"/>
  <circle r="0.884" cy="-44.05" cx="28.916" style="fill-rule:evenodd;clip-rule:evenodd;"/>
  <circle r="0.884" cy="-40.968" cx="30.366"/>
  <circle r="0.884" cy="-41.059" cx="34.175" style="fill-rule:evenodd;clip-rule:evenodd;"/>
  <circle r="0.884" cy="-37.559" cx="36.175" style="fill-rule:evenodd;clip-rule:evenodd;"/>
  <circle r="0.884" cy="-35.847" cx="38.896" style="fill-rule:evenodd;clip-rule:evenodd;"/>
  <circle r="0.884" cy="-32.386" cx="37.958" style="fill-rule:evenodd;clip-rule:evenodd;"/>
  <circle r="0.884" cy="-34.401" cx="34.458" style="fill-rule:evenodd;clip-rule:evenodd;"/>
  <circle r="0.884" cy="-37.8" cx="32.3" style="fill-rule:evenodd;clip-rule:evenodd;"/>
  <circle r="0.884" cy="-34.363" cx="30.612" style="fill-rule:evenodd;clip-rule:evenodd;"/>
  <circle r="0.884" cy="-37.363" cx="28.179" style="fill-rule:evenodd;clip-rule:evenodd;"/>
  <circle r="0.884" cy="-40.488" cx="26.366" style="fill-rule:evenodd;clip-rule:evenodd;"/>
  <circle r="0.884" cy="-43.55" cx="24.929" style="fill-rule:evenodd;clip-rule:evenodd;"/>
  <circle r="0.884" cy="-46.925" cx="23.083" style="fill-rule:evenodd;clip-rule:evenodd;"/>
  <circle r="0.884" cy="-49.425" cx="19.987" style="fill-rule:evenodd;clip-rule:evenodd;"/>
  <circle r="0.884" cy="-52.925" cx="18.3" style="fill-rule:evenodd;clip-rule:evenodd;"/>
  <circle r="0.884" cy="-55.363" cx="16.487" style="fill-rule:evenodd;clip-rule:evenodd;"/>
  <circle r="0.884" cy="-57.425" cx="14.425" style="fill-rule:evenodd;clip-rule:evenodd;"/>
  <circle r="0.884" cy="-55.131" cx="11.621" style="fill-rule:evenodd;clip-rule:evenodd;"/>
  <path d="M10.734-58.6c-0.009,0.48-0.401,0.866-0.883,0.866    c-0.481,0-0.874-0.387-0.883-0.866" style="fill-rule:evenodd;clip-rule:evenodd;"/>
  <circle r="0.884" cy="-52.925" cx="13.916" style="fill-rule:evenodd;clip-rule:evenodd;"/>
  <circle r="0.884" cy="-49.8" cx="15.541" style="fill-rule:evenodd;clip-rule:evenodd;"/>
  <circle r="0.884" cy="-46.391" cx="19.107" style="fill-rule:evenodd;clip-rule:evenodd;"/>
  <circle r="0.884" cy="-43.3" cx="20.541" style="fill-rule:evenodd;clip-rule:evenodd;"/>
  <circle r="0.884" cy="-40.55" cx="22.416" style="fill-rule:evenodd;clip-rule:evenodd;"/>
  <circle r="0.884" cy="-37.55" cx="23.791" style="fill-rule:evenodd;clip-rule:evenodd;"/>
  <circle r="0.884" cy="-34.425" cx="25.791" style="fill-rule:evenodd;clip-rule:evenodd;"/>
  <circle r="0.884" cy="-34.05" cx="21.675" style="fill-rule:evenodd;clip-rule:evenodd;"/>
  <circle r="0.884" cy="-33.675" cx="18.3" style="fill-rule:evenodd;clip-rule:evenodd;"/>
  <circle r="0.884" cy="-34.266" cx="13.983" style="fill-rule:evenodd;clip-rule:evenodd;"/>
  <circle r="0.884" cy="-31.8" cx="11.675" style="fill-rule:evenodd;clip-rule:evenodd;"/>
  <circle r="0.884" cy="-34.398" cx="8.747" style="fill-rule:evenodd;clip-rule:evenodd;"/>
  <circle r="0.884" cy="-35.869" cx="4.581" style="fill-rule:evenodd;clip-rule:evenodd;"/>
  <circle r="0.884" cy="-36.492" cx="10.667" style="fill-rule:evenodd;clip-rule:evenodd;"/>
  <circle r="0.884" cy="-33.452" cx="2.049" style="fill-rule:evenodd;clip-rule:evenodd;"/>
  <circle r="0.884" cy="-38.811" cx="2.498" style="fill-rule:evenodd;clip-rule:evenodd;"/>
  <circle r="0.884" cy="-41.925" cx="4.987" style="fill-rule:evenodd;clip-rule:evenodd;"/>
  <circle r="0.884" cy="-38.425" cx="7.05" style="fill-rule:evenodd;clip-rule:evenodd;"/>
  <circle r="0.884" cy="-38.959" cx="12.383" style="fill-rule:evenodd;clip-rule:evenodd;"/>
  <circle r="0.884" cy="-37.425" cx="20.041" style="fill-rule:evenodd;clip-rule:evenodd;"/>
  <circle r="0.884" cy="-37.15" cx="16.267" style="fill-rule:evenodd;clip-rule:evenodd;"/>
  <circle r="0.884" cy="-41.376" cx="14.642" style="fill-rule:evenodd;clip-rule:evenodd;"/>
  <circle r="0.884" cy="-40.275" cx="18.267" style="fill-rule:evenodd;clip-rule:evenodd;"/>
  <circle r="0.884" cy="-43.934" cx="17.05" style="fill-rule:evenodd;clip-rule:evenodd;"/>
  <circle r="0.884" cy="-46.434" cx="14.425" style="fill-rule:evenodd;clip-rule:evenodd;"/>
  <circle r="0.884" cy="-44.184" cx="12.425" style="fill-rule:evenodd;clip-rule:evenodd;"/>
  <circle r="0.884" cy="-41.684" cx="9.267" style="fill-rule:evenodd;clip-rule:evenodd;"/>
  <circle r="0.884" cy="-44.809" cx="7.55" style="fill-rule:evenodd;clip-rule:evenodd;"/>
  <circle r="0.884" cy="-45.247" cx="3.55" style="fill-rule:evenodd;clip-rule:evenodd;"/>
  <path d="M1-41.988c0.482-0.007,0.871-0.399,0.871-0.883    c0-0.483-0.389-0.877-0.871-0.883" style="fill-rule:evenodd;clip-rule:evenodd;"/>
  <circle r="0.884" cy="-47.997" cx="5.425" style="fill-rule:evenodd;clip-rule:evenodd;"/>
  <path d="M1-48.572c0.477-0.013,0.859-0.403,0.859-0.883    c0-0.48-0.382-0.87-0.859-0.883" style="fill-rule:evenodd;clip-rule:evenodd;"/>
  <circle r="0.884" cy="-47.184" cx="10.3" style="fill-rule:evenodd;clip-rule:evenodd;"/>
  <circle r="0.884" cy="-50.309" cx="7.862" style="fill-rule:evenodd;clip-rule:evenodd;"/>
  <circle r="0.884" cy="-50.059" cx="12.05" style="fill-rule:evenodd;clip-rule:evenodd;"/>
  <circle r="0.884" cy="-52.55" cx="9.541" style="fill-rule:evenodd;clip-rule:evenodd;"/>
  <circle r="0.884" cy="-53.747" cx="5.925" style="fill-rule:evenodd;clip-rule:evenodd;"/>
  <path d="M1-53.801c0.482-0.007,0.871-0.399,0.871-0.883    c0-0.483-0.389-0.877-0.871-0.883" style="fill-rule:evenodd;clip-rule:evenodd;"/>
  <circle r="0.884" cy="-51.434" cx="3.55" style="fill-rule:evenodd;clip-rule:evenodd;"/>
  <circle r="0.884" cy="-56.075" cx="7.779" style="fill-rule:evenodd;clip-rule:evenodd;"/>
  <path d="M1-58.6v0.908c0.473-0.018,0.851-0.405,0.851-0.882    c0-0.008,0-0.017-0.001-0.025H1.001" style="fill-rule:evenodd;clip-rule:evenodd;"/>
  <circle r="0.884" cy="-57.122" cx="3.737" style="fill-rule:evenodd;clip-rule:evenodd;"/>
  <circle r="0.884" cy="-31.766" cx="27.725" style="fill-rule:evenodd;clip-rule:evenodd;"/>
  <circle r="0.884" cy="-30.584" cx="31.008" style="fill-rule:evenodd;clip-rule:evenodd;"/>
  <circle r="0.884" cy="-30.784" cx="34.208" style="fill-rule:evenodd;clip-rule:evenodd;"/>
  <circle r="0.884" cy="-25.55" cx="30.416" style="fill-rule:evenodd;clip-rule:evenodd;"/>
  <circle r="0.884" cy="-27.574" cx="34.166" style="fill-rule:evenodd;clip-rule:evenodd;"/>
  <circle r="0.884" cy="-29.174" cx="37.566" style="fill-rule:evenodd;clip-rule:evenodd;"/>
  <circle r="0.884" cy="-25.925" cx="37.541" style="fill-rule:evenodd;clip-rule:evenodd;"/>
  <circle r="0.884" cy="-22.434" cx="37.425" style="fill-rule:evenodd;clip-rule:evenodd;"/>
  <circle r="0.884" cy="-21.675" cx="41.416" style="fill-rule:evenodd;clip-rule:evenodd;"/>
  <circle r="0.884" cy="-16.925" cx="46.666" style="fill-rule:evenodd;clip-rule:evenodd;"/>
  <circle r="0.884" cy="-13.3" cx="48.541" style="fill-rule:evenodd;clip-rule:evenodd;"/>
  <circle r="0.884" cy="-10.55" cx="51.541" style="fill-rule:evenodd;clip-rule:evenodd;"/>
  <circle r="0.884" cy="-17.425" cx="42.791" style="fill-rule:evenodd;clip-rule:evenodd;"/>
  <circle r="0.884" cy="-28.463" cx="41.406" style="fill-rule:evenodd;clip-rule:evenodd;"/>
  <circle r="0.884" cy="-25.059" cx="41.425" style="fill-rule:evenodd;clip-rule:evenodd;"/>
  <circle r="0.884" cy="-23.533" cx="45.322" style="fill-rule:evenodd;clip-rule:evenodd;"/>
  <circle r="0.884" cy="-20.22" cx="45.447" style="fill-rule:evenodd;clip-rule:evenodd;"/>
  <circle r="0.884" cy="-19.868" cx="49.47" style="fill-rule:evenodd;clip-rule:evenodd;"/>
  <circle r="0.884" cy="-20.809" cx="53.487" style="fill-rule:evenodd;clip-rule:evenodd;"/>
  <circle r="0.884" cy="-16.718" cx="50.892" style="fill-rule:evenodd;clip-rule:evenodd;"/>
  <circle r="0.884" cy="-13.968" cx="53.392" style="fill-rule:evenodd;clip-rule:evenodd;"/>
  <circle r="0.884" cy="-11.002" cx="56.55" style="fill-rule:evenodd;clip-rule:evenodd;"/>
  <circle r="0.884" cy="-8.3" cx="54.175" style="fill-rule:evenodd;clip-rule:evenodd;"/>
  <circle r="0.884" cy="-4.988" cx="52.362"/>
  <circle r="0.884" cy="-5.809" cx="46.425" style="fill-rule:evenodd;clip-rule:evenodd;"/>
  <circle r="0.884" cy="-7.434" cx="49.925" style="fill-rule:evenodd;clip-rule:evenodd;"/>
  <circle r="0.884" cy="-3.115" cx="48.899" style="fill-rule:evenodd;clip-rule:evenodd;"/>
  <circle r="0.884" cy="-3.684" cx="43.3" style="fill-rule:evenodd;clip-rule:evenodd;"/>
  <circle r="0.884" cy="-10.059" cx="47.175" style="fill-rule:evenodd;clip-rule:evenodd;"/>
  <circle r="0.884" cy="-9.559" cx="43.675" style="fill-rule:evenodd;clip-rule:evenodd;"/>
  <circle r="0.884" cy="-13.666" cx="44.3" style="fill-rule:evenodd;clip-rule:evenodd;"/>
  <circle r="0.884" cy="-6.684" cx="41.3" style="fill-rule:evenodd;clip-rule:evenodd;"/>
  <circle r="0.884" cy="-4.175" cx="37.925" style="fill-rule:evenodd;clip-rule:evenodd;"/>
  <circle r="0.884" cy="-8.175" cx="37.175" style="fill-rule:evenodd;clip-rule:evenodd;"/>
  <circle r="0.884" cy="-10.925" cx="40.175" style="fill-rule:evenodd;clip-rule:evenodd;"/>
  <circle r="0.884" cy="-14.488" cx="39.237" style="fill-rule:evenodd;clip-rule:evenodd;"/>
  <circle r="0.884" cy="-18.3" cx="38.05" style="fill-rule:evenodd;clip-rule:evenodd;"/>
  <circle r="0.884" cy="-20.05" cx="34.05" style="fill-rule:evenodd;clip-rule:evenodd;"/>
  <circle r="0.884" cy="-24.05" cx="33.925" style="fill-rule:evenodd;clip-rule:evenodd;"/>
  <circle r="0.884" cy="-21.925" cx="30.425" style="fill-rule:evenodd;clip-rule:evenodd;"/>
  <circle r="0.884" cy="-20.55" cx="26.425" style="fill-rule:evenodd;clip-rule:evenodd;"/>
  <circle r="0.884" cy="-19.8" cx="22.675" style="fill-rule:evenodd;clip-rule:evenodd;"/>
  <circle r="0.884" cy="-20.55" cx="19.55" style="fill-rule:evenodd;clip-rule:evenodd;"/>
  <circle r="0.884" cy="-17.05" cx="16.925" style="fill-rule:evenodd;clip-rule:evenodd;"/>
  <circle r="0.884" cy="-18.175" cx="12.3" style="fill-rule:evenodd;clip-rule:evenodd;"/>
  <circle r="0.884" cy="-15.05" cx="10.175" style="fill-rule:evenodd;clip-rule:evenodd;"/>
  <circle r="0.884" cy="-18.675" cx="7.675" style="fill-rule:evenodd;clip-rule:evenodd;"/>
  <circle r="0.884" cy="-18.943" cx="3.996" style="fill-rule:evenodd;clip-rule:evenodd;"/>
  <circle r="0.884" cy="-22.019" cx="6.568" style="fill-rule:evenodd;clip-rule:evenodd;"/>
  <circle r="0.884" cy="-21.211" cx="10.623" style="fill-rule:evenodd;clip-rule:evenodd;"/>
  <circle r="0.884" cy="-20.8" cx="15.05" style="fill-rule:evenodd;clip-rule:evenodd;"/>
  <circle r="0.884" cy="-24.613" cx="13.737"/>
  <circle r="0.884" cy="-23.488" cx="17.921" style="fill-rule:evenodd;clip-rule:evenodd;"/>
  <circle r="0.884" cy="-23.425" cx="21.925" style="fill-rule:evenodd;clip-rule:evenodd;"/>
  <circle r="0.884" cy="-23.742" cx="26.616" style="fill-rule:evenodd;clip-rule:evenodd;"/>
  <circle r="0.884" cy="-26.684" cx="24.149" style="fill-rule:evenodd;clip-rule:evenodd;"/>
  <circle r="0.884" cy="-26.809" cx="20.3"/>
  <circle r="0.884" cy="-27.309" cx="16.55" style="fill-rule:evenodd;clip-rule:evenodd;"/>
  <circle r="0.884" cy="-30.8" cx="16.175" style="fill-rule:evenodd;clip-rule:evenodd;"/>
  <circle r="0.884" cy="-30.434" cx="20.3" style="fill-rule:evenodd;clip-rule:evenodd;"/>
  <circle r="0.884" cy="-30.434" cx="23.925" style="fill-rule:evenodd;clip-rule:evenodd;"/>
  <circle r="0.884" cy="-27.934" cx="28.399" style="fill-rule:evenodd;clip-rule:evenodd;"/>
  <circle r="0.884" cy="-28.184" cx="12.675" style="fill-rule:evenodd;clip-rule:evenodd;"/>
  <circle r="0.884" cy="-24.585" cx="10.221" style="fill-rule:evenodd;clip-rule:evenodd;"/>
  <circle r="0.884" cy="-26.791" cx="8.175" style="fill-rule:evenodd;clip-rule:evenodd;"/>
  <circle r="0.884" cy="-29.441" cx="6.188" style="fill-rule:evenodd;clip-rule:evenodd;"/>
  <circle r="0.884" cy="-25.134" cx="4.953" style="fill-rule:evenodd;clip-rule:evenodd;"/>
  <circle r="0.884" cy="-22.789" cx="2.645" style="fill-rule:evenodd;clip-rule:evenodd;"/>
  <circle r="0.884" cy="-27.252" cx="2.854" style="fill-rule:evenodd;clip-rule:evenodd;"/>
  <circle r="0.884" cy="-32.682" cx="6.319" style="fill-rule:evenodd;clip-rule:evenodd;"/>
  <circle r="0.884" cy="-30.647" cx="3.219" style="fill-rule:evenodd;clip-rule:evenodd;"/>
  <circle r="0.884" cy="-29.59" cx="9.494" style="fill-rule:evenodd;clip-rule:evenodd;"/>
  <circle r="0.884" cy="-16.05" cx="34.925" style="fill-rule:evenodd;clip-rule:evenodd;"/>
  <circle r="0.884" cy="-12.3" cx="36.3" style="fill-rule:evenodd;clip-rule:evenodd;"/>
  <circle r="0.884" cy="-9.675" cx="33.175" style="fill-rule:evenodd;clip-rule:evenodd;"/>
  <circle r="0.884" cy="-4.925" cx="33.675" style="fill-rule:evenodd;clip-rule:evenodd;"/>
  <circle r="0.884" cy="-2.675" cx="31.3" style="fill-rule:evenodd;clip-rule:evenodd;"/>
  <circle r="0.884" cy="-6.113" cx="29.987" style="fill-rule:evenodd;clip-rule:evenodd;"/>
  <circle r="0.884" cy="-10.559" cx="29.425" style="fill-rule:evenodd;clip-rule:evenodd;"/>
  <circle r="0.884" cy="-13.8" cx="32.05" style="fill-rule:evenodd;clip-rule:evenodd;"/>
  <circle r="0.884" cy="-15.05" cx="28.05" style="fill-rule:evenodd;clip-rule:evenodd;"/>
  <circle r="0.884" cy="-10.675" cx="25.8" style="fill-rule:evenodd;clip-rule:evenodd;"/>
  <circle r="0.884" cy="-6.8" cx="26.3" style="fill-rule:evenodd;clip-rule:evenodd;"/>
  <circle r="0.884" cy="-3.3" cx="27.425" style="fill-rule:evenodd;clip-rule:evenodd;"/>
  <circle r="0.884" cy="-3.05" cx="23.675" style="fill-rule:evenodd;clip-rule:evenodd;"/>
  <circle r="0.884" cy="-6.55" cx="22.425" style="fill-rule:evenodd;clip-rule:evenodd;"/>
  <circle r="0.884" cy="-6.8" cx="18.425" style="fill-rule:evenodd;clip-rule:evenodd;"/>
  <circle r="0.884" cy="-3.55" cx="19.925" style="fill-rule:evenodd;clip-rule:evenodd;"/>
  <circle r="0.884" cy="-3.05" cx="16.05" style="fill-rule:evenodd;clip-rule:evenodd;"/>
  <circle r="0.884" cy="-3.175" cx="12.05" style="fill-rule:evenodd;clip-rule:evenodd;"/>
  <path d="M10.745-1c0.001-0.017,0.002-0.033,0.002-0.05    c0-0.488-0.396-0.884-0.884-0.884c-0.487,0-0.884,0.396-0.884,0.884c0,0.017,0.001,0.034,0.002,0.05" style="fill-rule:evenodd;clip-rule:evenodd;"/>
  <circle r="0.884" cy="-4.434" cx="8.425" style="fill-rule:evenodd;clip-rule:evenodd;"/>
  <circle r="0.884" cy="-2.309" cx="5.3" style="fill-rule:evenodd;clip-rule:evenodd;"/>
  <circle r="0.884" cy="-6.434" cx="4.425" style="fill-rule:evenodd;clip-rule:evenodd;"/>
  <circle r="0.884" cy="-3.726" cx="2.258" style="fill-rule:evenodd;clip-rule:evenodd;"/>
  <path d="M1.001-1h0.828C1.817-1.459,1.455-1.83,1-1.857V-1" style="fill-rule:evenodd;clip-rule:evenodd;"/>
  <circle r="0.884" cy="-13.175" cx="2.416" style="fill-rule:evenodd;clip-rule:evenodd;"/>
  <circle r="0.884" cy="-15.05" cx="5.416" style="fill-rule:evenodd;clip-rule:evenodd;"/>
  <circle r="0.884" cy="-12.3" cx="7.791" style="fill-rule:evenodd;clip-rule:evenodd;"/>
  <circle r="0.884" cy="-10.8" cx="12.416" style="fill-rule:evenodd;clip-rule:evenodd;"/>
  <circle r="0.884" cy="-14.3" cx="14.291" style="fill-rule:evenodd;clip-rule:evenodd;"/>
  <circle r="0.884" cy="-13.05" cx="18.416" style="fill-rule:evenodd;clip-rule:evenodd;"/>
  <circle r="0.884" cy="-13.675" cx="23.041" style="fill-rule:evenodd;clip-rule:evenodd;"/>
  <circle r="0.884" cy="-16.925" cx="25.041" style="fill-rule:evenodd;clip-rule:evenodd;"/>
  <circle r="0.884" cy="-17.925" cx="30.916" style="fill-rule:evenodd;clip-rule:evenodd;"/>
  <circle r="0.884" cy="-16.3" cx="20.166" style="fill-rule:evenodd;clip-rule:evenodd;"/>
  <circle r="0.884" cy="-8.434" cx="7.55" style="fill-rule:evenodd;clip-rule:evenodd;"/>
  <path d="M1-9.037c0.471,0.02,0.846,0.408,0.846,0.883    C1.846-7.679,1.47-7.293,1-7.273" style="fill-rule:evenodd;clip-rule:evenodd;"/>
  <circle r="0.884" cy="-7.3" cx="10.791" style="fill-rule:evenodd;clip-rule:evenodd;"/>
  <circle r="0.884" cy="-6.675" cx="14.041" style="fill-rule:evenodd;clip-rule:evenodd;"/>
  <circle r="0.884" cy="-9.925" cx="16.041" style="fill-rule:evenodd;clip-rule:evenodd;"/>
  <circle r="0.884" cy="-10.05" cx="20.916" style="fill-rule:evenodd;clip-rule:evenodd;"/>
  <circle r="0.884" cy="-10.434" cx="4.3" style="fill-rule:evenodd;clip-rule:evenodd;"/>
  <circle r="0.884" cy="-5.55" cx="56.8" style="fill-rule:evenodd;clip-rule:evenodd;"/>
  <circle r="0.884" cy="-2.55" cx="55.05" style="fill-rule:evenodd;clip-rule:evenodd;"/>
  <circle r="0.884" cy="-47.175" cx="26.916" style="fill-rule:evenodd;clip-rule:evenodd;"/>
  <circle r="0.884" cy="-49.675" cx="24.854" style="fill-rule:evenodd;clip-rule:evenodd;"/>
  <circle r="0.884" cy="-51.997" cx="22.612" style="fill-rule:evenodd;clip-rule:evenodd;"/>
  <circle r="0.884" cy="-55.059" cx="21.175" style="fill-rule:evenodd;clip-rule:evenodd;"/>
  <circle r="0.884" cy="-57.559" cx="19.425" style="fill-rule:evenodd;clip-rule:evenodd;"/>
  <circle r="0.884" cy="-57.526" cx="31.976" style="fill-rule:evenodd;clip-rule:evenodd;"/>
 </g>
</svg>
