<?xml version="1.0"?>
<!-- Converted with SVG Converter - Version 0.9.5 (Compiled Fri Feb 21 09:53:38 2020) - Copyright (C) 2011 Nokia -->
<svg xmlns="http://www.w3.org/2000/svg" width="49.676" baseProfile="tiny" height="49.502" xmlns:xlink="http://www.w3.org/1999/xlink">
 <path fill="none" d="M0 0h49.68v49.5H0z"/>
 <path d="M48.03 0c0 .22.18.4.4.4s.4-.18.4-.4M45.4 0c0 .22.2.4.4.4s.4-.18.4-.4M42.78 0c0 .22.18.4.4.4s.4-.18.4-.4M40.16 0c0 .22.18.4.4.4s.4-.18.4-.4M37.53 0c0 .22.18.4.4.4s.4-.18.4-.4M34.84 0c0 .22.18.4.4.4s.4-.18.4-.4M32.28 0c0 .22.18.4.4.4s.4-.18.4-.4M29.66 0c0 .22.18.4.4.4s.4-.18.4-.4M26.97 0c0 .22.18.4.4.4s.4-.18.4-.4M24.4 0c0 .22.2.4.4.4s.4-.18.4-.4M21.72 0c0 .22.18.4.4.4s.4-.18.4-.4M19.16 0c0 .22.18.4.4.4s.4-.18.4-.4M16.53 0c0 .22.18.4.4.4s.4-.18.4-.4M13.97 0c0 .22.18.4.4.4s.4-.18.4-.4M11.35 0c0 .22.17.4.4.4s.4-.18.4-.4M8.72 0c0 .22.18.4.4.4s.4-.18.4-.4M6.1 0c0 .22.17.4.4.4s.4-.18.4-.4M3.47 0c0 .22.18.4.4.4s.4-.18.4-.4M.78 0c0 .22.18.4.4.4s.4-.18.4-.4M0 1.7c.22 0 .4-.17.4-.4S.22.93 0 .92"/>
 <circle cy="1.314" cx="2.558" r=".4"/>
 <circle cy="1.314" cx="5.183" r=".4"/>
 <circle cy="1.314" cx="7.871" r=".4"/>
 <circle cy="1.314" cx="10.433" r=".4"/>
 <circle cy="1.314" cx="12.996" r=".4"/>
 <circle cy="1.314" cx="15.621" r=".4"/>
 <circle cy="1.314" cx="18.246" r=".4"/>
 <circle cy="1.314" cx="20.933" r=".4"/>
 <circle cy="1.314" cx="23.558" r=".4"/>
 <circle cy="1.314" cx="26.058" r=".4"/>
 <circle cy="1.314" cx="28.746" r=".4"/>
 <circle cy="1.314" cx="31.371" r=".4"/>
 <circle cy="1.314" cx="33.933" r=".4"/>
 <circle cy="1.314" cx="36.621" r=".4"/>
 <circle cy="1.314" cx="39.183" r=".4"/>
 <circle cy="1.314" cx="41.808" r=".4"/>
 <circle cy="1.314" cx="44.433" r=".4"/>
 <circle cy="1.314" cx="47.058" r=".4"/>
 <path d="M49.68.92c-.22 0-.4.18-.4.4s.18.4.4.4"/>
 <circle cy="2.564" cx="48.433" r=".4"/>
 <circle cy="2.564" cx="45.808" r=".4"/>
 <circle cy="2.564" cx="43.183" r=".4"/>
 <circle cy="2.564" cx="40.558" r=".4"/>
 <circle cy="2.564" cx="37.933" r=".4"/>
 <circle cy="2.564" cx="35.246" r=".4"/>
 <circle cy="2.564" cx="32.683" r=".4"/>
 <circle cy="2.564" cx="30.058" r=".4"/>
 <circle cy="2.564" cx="27.371" r=".4"/>
 <circle cy="2.564" cx="24.808" r=".4"/>
 <circle cy="2.564" cx="22.121" r=".4"/>
 <circle cy="2.564" cx="19.558" r=".4"/>
 <circle cy="2.564" cx="16.933" r=".4"/>
 <circle cy="2.564" cx="14.371" r=".4"/>
 <circle cy="2.564" cx="11.746" r=".4"/>
 <circle cy="2.564" cx="9.121" r=".4"/>
 <circle cy="2.564" cx="6.496" r=".4"/>
 <circle cy="2.564" cx="3.871" r=".4"/>
 <circle cy="2.564" cx="1.183" r=".4"/>
 <path d="M0 4.28c.22 0 .4-.18.4-.4s-.18-.4-.4-.4"/>
 <circle cy="3.877" cx="2.558" r=".4"/>
 <circle cy="3.877" cx="5.183" r=".4"/>
 <circle cy="3.877" cx="7.871" r=".4"/>
 <circle cy="3.877" cx="10.433" r=".4"/>
 <circle cy="3.877" cx="12.996" r=".4"/>
 <circle cy="3.877" cx="15.621" r=".4"/>
 <circle cy="3.877" cx="18.246" r=".4"/>
 <circle cy="3.877" cx="20.933" r=".4"/>
 <circle cy="3.877" cx="23.558" r=".4"/>
 <circle cy="3.877" cx="26.058" r=".4"/>
 <circle cy="3.877" cx="28.746" r=".4"/>
 <circle cy="3.877" cx="31.371" r=".4"/>
 <circle cy="3.877" cx="33.933" r=".4"/>
 <circle cy="3.877" cx="36.621" r=".4"/>
 <circle cy="3.877" cx="39.183" r=".4"/>
 <circle cy="3.877" cx="41.808" r=".4"/>
 <circle cy="3.877" cx="44.433" r=".4"/>
 <circle cy="3.877" cx="47.058" r=".4"/>
 <path d="M49.68 3.48c-.22 0-.4.18-.4.4s.18.4.4.4"/>
 <circle cy="5.127" cx="48.433" r=".4"/>
 <circle cy="5.127" cx="45.808" r=".4"/>
 <circle cy="5.127" cx="43.183" r=".4"/>
 <circle cy="5.127" cx="40.558" r=".4"/>
 <circle cy="5.127" cx="37.933" r=".4"/>
 <circle cy="5.127" cx="35.246" r=".4"/>
 <circle cy="5.127" cx="32.683" r=".4"/>
 <circle cy="5.127" cx="30.058" r=".4"/>
 <circle cy="5.127" cx="27.371" r=".4"/>
 <circle cy="5.127" cx="24.808" r=".4"/>
 <circle cy="5.127" cx="22.121" r=".4"/>
 <circle cy="5.127" cx="19.558" r=".4"/>
 <circle cy="5.127" cx="16.933" r=".4"/>
 <circle cy="5.127" cx="14.371" r=".4"/>
 <circle cy="5.127" cx="11.746" r=".4"/>
 <circle cy="5.127" cx="9.121" r=".4"/>
 <circle cy="5.127" cx="6.496" r=".4"/>
 <circle cy="5.127" cx="3.871" r=".4"/>
 <circle cy="5.127" cx="1.183" r=".4"/>
 <path d="M0 6.9c.22 0 .4-.18.4-.4s-.18-.4-.4-.4"/>
 <circle cy="6.502" cx="2.558" r=".4"/>
 <circle cy="6.502" cx="5.183" r=".4"/>
 <circle cy="6.502" cx="7.871" r=".4"/>
 <circle cy="6.502" cx="10.433" r=".4"/>
 <circle cy="6.502" cx="12.996" r=".4"/>
 <circle cy="6.502" cx="15.621" r=".4"/>
 <circle cy="6.502" cx="18.246" r=".4"/>
 <circle cy="6.502" cx="20.933" r=".4"/>
 <circle cy="6.502" cx="23.558" r=".4"/>
 <circle cy="6.502" cx="26.058" r=".4"/>
 <circle cy="6.502" cx="28.746" r=".4"/>
 <circle cy="6.502" cx="31.371" r=".4"/>
 <circle cy="6.502" cx="33.933" r=".4"/>
 <circle cy="6.502" cx="36.621" r=".4"/>
 <circle cy="6.502" cx="39.183" r=".4"/>
 <circle cy="6.502" cx="41.808" r=".4"/>
 <circle cy="6.502" cx="44.433" r=".4"/>
 <circle cy="6.502" cx="47.058" r=".4"/>
 <path d="M49.68 6.1c-.22 0-.4.18-.4.4s.18.4.4.4"/>
 <circle cy="7.752" cx="48.433" r=".4"/>
 <circle cy="7.752" cx="45.808" r=".4"/>
 <circle cy="7.752" cx="43.183" r=".4"/>
 <circle cy="7.752" cx="40.558" r=".4"/>
 <circle cy="7.752" cx="37.933" r=".4"/>
 <circle cy="7.752" cx="35.246" r=".4"/>
 <circle cy="7.752" cx="32.683" r=".4"/>
 <circle cy="7.752" cx="30.058" r=".4"/>
 <circle cy="7.752" cx="27.371" r=".4"/>
 <circle cy="7.752" cx="24.808" r=".4"/>
 <circle cy="7.752" cx="22.121" r=".4"/>
 <circle cy="7.752" cx="19.558" r=".4"/>
 <circle cy="7.752" cx="16.933" r=".4"/>
 <circle cy="7.752" cx="14.371" r=".4"/>
 <circle cy="7.752" cx="11.746" r=".4"/>
 <circle cy="7.752" cx="9.121" r=".4"/>
 <circle cy="7.752" cx="6.496" r=".4"/>
 <circle cy="7.752" cx="3.871" r=".4"/>
 <circle cy="7.752" cx="1.183" r=".4"/>
 <path d="M0 9.53c.22 0 .4-.18.4-.4s-.18-.4-.4-.4"/>
 <circle cy="9.127" cx="2.558" r=".4"/>
 <circle cy="9.127" cx="5.183" r=".4"/>
 <circle cy="9.127" cx="7.871" r=".4"/>
 <circle cy="9.127" cx="10.433" r=".4"/>
 <circle cy="9.127" cx="12.996" r=".4"/>
 <circle cy="9.127" cx="15.621" r=".4"/>
 <circle cy="9.127" cx="18.246" r=".4"/>
 <circle cy="9.127" cx="20.933" r=".4"/>
 <circle cy="9.127" cx="23.558" r=".4"/>
 <circle cy="9.127" cx="26.058" r=".4"/>
 <circle cy="9.127" cx="28.746" r=".4"/>
 <circle cy="9.127" cx="31.371" r=".4"/>
 <circle cy="9.127" cx="33.933" r=".4"/>
 <circle cy="9.127" cx="36.621" r=".4"/>
 <circle cy="9.127" cx="39.183" r=".4"/>
 <circle cy="9.127" cx="41.808" r=".4"/>
 <circle cy="9.127" cx="44.433" r=".4"/>
 <circle cy="9.127" cx="47.058" r=".4"/>
 <path d="M49.68 8.73c-.22 0-.4.18-.4.4s.18.4.4.4"/>
 <circle cy="10.377" cx="48.433" r=".4"/>
 <circle cy="10.377" cx="45.808" r=".4"/>
 <circle cy="10.377" cx="43.183" r=".4"/>
 <circle cy="10.377" cx="40.558" r=".4"/>
 <circle cy="10.377" cx="37.933" r=".4"/>
 <circle cy="10.377" cx="35.246" r=".4"/>
 <circle cy="10.377" cx="32.683" r=".4"/>
 <circle cy="10.377" cx="30.058" r=".4"/>
 <circle cy="10.377" cx="27.371" r=".4"/>
 <circle cy="10.377" cx="24.808" r=".4"/>
 <circle cy="10.377" cx="22.121" r=".4"/>
 <circle cy="10.377" cx="19.558" r=".4"/>
 <circle cy="10.377" cx="16.933" r=".4"/>
 <circle cy="10.377" cx="14.371" r=".4"/>
 <circle cy="10.377" cx="11.746" r=".4"/>
 <circle cy="10.377" cx="9.121" r=".4"/>
 <circle cy="10.377" cx="6.496" r=".4"/>
 <circle cy="10.377" cx="3.871" r=".4"/>
 <circle cy="10.377" cx="1.183" r=".4"/>
 <path d="M0 12.15c.22 0 .4-.18.4-.4s-.18-.4-.4-.4"/>
 <circle cy="11.752" cx="2.558" r=".4"/>
 <circle cy="11.752" cx="5.183" r=".4"/>
 <circle cy="11.752" cx="7.871" r=".4"/>
 <circle cy="11.752" cx="10.433" r=".4"/>
 <circle cy="11.752" cx="12.996" r=".4"/>
 <circle cy="11.752" cx="15.621" r=".4"/>
 <circle cy="11.752" cx="18.246" r=".4"/>
 <circle cy="11.752" cx="20.933" r=".4"/>
 <circle cy="11.752" cx="23.558" r=".4"/>
 <circle cy="11.752" cx="26.058" r=".4"/>
 <circle cy="11.752" cx="28.746" r=".4"/>
 <circle cy="11.752" cx="31.371" r=".4"/>
 <circle cy="11.752" cx="33.933" r=".4"/>
 <circle cy="11.752" cx="36.621" r=".4"/>
 <circle cy="11.752" cx="39.183" r=".4"/>
 <circle cy="11.752" cx="41.808" r=".4"/>
 <circle cy="11.752" cx="44.433" r=".4"/>
 <circle cy="11.752" cx="47.058" r=".4"/>
 <path d="M49.68 11.35c-.22 0-.4.18-.4.4s.18.4.4.4"/>
 <circle cy="13.002" cx="48.433" r=".4"/>
 <circle cy="13.002" cx="45.808" r=".4"/>
 <circle cy="13.002" cx="43.183" r=".4"/>
 <circle cy="13.002" cx="40.558" r=".4"/>
 <circle cy="13.002" cx="37.933" r=".4"/>
 <circle cy="13.002" cx="35.246" r=".4"/>
 <circle cy="13.002" cx="32.683" r=".4"/>
 <circle cy="13.002" cx="30.058" r=".4"/>
 <circle cy="13.002" cx="27.371" r=".4"/>
 <circle cy="13.002" cx="24.808" r=".4"/>
 <circle cy="13.002" cx="22.121" r=".4"/>
 <circle cy="13.002" cx="19.558" r=".4"/>
 <circle cy="13.002" cx="16.933" r=".4"/>
 <circle cy="13.002" cx="14.371" r=".4"/>
 <circle cy="13.002" cx="11.746" r=".4"/>
 <circle cy="13.002" cx="9.121" r=".4"/>
 <circle cy="13.002" cx="6.496" r=".4"/>
 <circle cy="13.002" cx="3.871" r=".4"/>
 <circle cy="13.002" cx="1.183" r=".4"/>
 <path d="M0 14.7c.22 0 .4-.17.4-.4s-.18-.38-.4-.4"/>
 <circle cy="14.314" cx="2.558" r=".4"/>
 <circle cy="14.314" cx="5.183" r=".4"/>
 <circle cy="14.314" cx="7.871" r=".4"/>
 <circle cy="14.314" cx="10.433" r=".4"/>
 <circle cy="14.314" cx="12.996" r=".4"/>
 <circle cy="14.314" cx="15.621" r=".4"/>
 <circle cy="14.314" cx="18.246" r=".4"/>
 <circle cy="14.314" cx="20.933" r=".4"/>
 <circle cy="14.314" cx="23.558" r=".4"/>
 <circle cy="14.314" cx="26.058" r=".4"/>
 <circle cy="14.314" cx="28.746" r=".4"/>
 <circle cy="14.314" cx="31.371" r=".4"/>
 <circle cy="14.314" cx="33.933" r=".4"/>
 <circle cy="14.314" cx="36.621" r=".4"/>
 <circle cy="14.314" cx="39.183" r=".4"/>
 <circle cy="14.314" cx="41.808" r=".4"/>
 <circle cy="14.314" cx="44.433" r=".4"/>
 <circle cy="14.314" cx="47.058" r=".4"/>
 <path d="M49.68 13.9c-.22.02-.4.2-.4.4s.18.4.4.4"/>
 <circle cy="15.564" cx="48.433" r=".4"/>
 <circle cy="15.564" cx="45.808" r=".4"/>
 <circle cy="15.564" cx="43.183" r=".4"/>
 <circle cy="15.564" cx="40.558" r=".4"/>
 <circle cy="15.564" cx="37.933" r=".4"/>
 <circle cy="15.564" cx="35.246" r=".4"/>
 <circle cy="15.564" cx="32.683" r=".4"/>
 <circle cy="15.564" cx="30.058" r=".4"/>
 <circle cy="15.564" cx="27.371" r=".4"/>
 <circle cy="15.564" cx="24.808" r=".4"/>
 <circle cy="15.564" cx="22.121" r=".4"/>
 <circle cy="15.564" cx="19.558" r=".4"/>
 <circle cy="15.564" cx="16.933" r=".4"/>
 <circle cy="15.564" cx="14.371" r=".4"/>
 <circle cy="15.564" cx="11.746" r=".4"/>
 <circle cy="15.564" cx="9.121" r=".4"/>
 <circle cy="15.564" cx="6.496" r=".4"/>
 <circle cy="15.564" cx="3.871" r=".4"/>
 <circle cy="15.564" cx="1.183" r=".4"/>
 <path d="M0 17.34c.22 0 .4-.18.4-.4s-.18-.4-.4-.4"/>
 <circle cy="16.939" cx="2.558" r=".4"/>
 <circle cy="16.939" cx="5.183" r=".4"/>
 <circle cy="16.939" cx="7.871" r=".4"/>
 <circle cy="16.939" cx="10.433" r=".4"/>
 <circle cy="16.939" cx="12.996" r=".4"/>
 <circle cy="16.939" cx="15.621" r=".4"/>
 <circle cy="16.939" cx="18.246" r=".4"/>
 <circle cy="16.939" cx="20.933" r=".4"/>
 <circle cy="16.939" cx="23.558" r=".4"/>
 <circle cy="16.939" cx="26.058" r=".4"/>
 <circle cy="16.939" cx="28.746" r=".4"/>
 <circle cy="16.939" cx="31.371" r=".4"/>
 <circle cy="16.939" cx="33.933" r=".4"/>
 <circle cy="16.939" cx="36.621" r=".4"/>
 <circle cy="16.939" cx="39.183" r=".4"/>
 <circle cy="16.939" cx="41.808" r=".4"/>
 <circle cy="16.939" cx="44.433" r=".4"/>
 <circle cy="16.939" cx="47.058" r=".4"/>
 <path d="M49.68 16.54c-.22 0-.4.18-.4.4s.18.4.4.4"/>
 <circle cy="18.189" cx="48.433" r=".4"/>
 <circle cy="18.189" cx="45.808" r=".4"/>
 <circle cy="18.189" cx="43.183" r=".4"/>
 <circle cy="18.189" cx="40.558" r=".4"/>
 <circle cy="18.189" cx="37.933" r=".4"/>
 <circle cy="18.189" cx="35.246" r=".4"/>
 <circle cy="18.189" cx="32.683" r=".4"/>
 <circle cy="18.189" cx="30.058" r=".4"/>
 <circle cy="18.189" cx="27.371" r=".4"/>
 <circle cy="18.189" cx="24.808" r=".4"/>
 <circle cy="18.189" cx="22.121" r=".4"/>
 <circle cy="18.189" cx="19.558" r=".4"/>
 <circle cy="18.189" cx="16.933" r=".4"/>
 <circle cy="18.189" cx="14.371" r=".4"/>
 <circle cy="18.189" cx="11.746" r=".4"/>
 <circle cy="18.189" cx="9.121" r=".4"/>
 <circle cy="18.189" cx="6.496" r=".4"/>
 <circle cy="18.189" cx="3.871" r=".4"/>
 <circle cy="18.189" cx="1.183" r=".4"/>
 <path d="M0 19.96c.22 0 .4-.18.4-.4s-.18-.4-.4-.4"/>
 <circle cy="19.564" cx="2.558" r=".4"/>
 <circle cy="19.564" cx="5.183" r=".4"/>
 <circle cy="19.564" cx="7.871" r=".4"/>
 <circle cy="19.564" cx="10.433" r=".4"/>
 <circle cy="19.564" cx="12.996" r=".4"/>
 <circle cy="19.564" cx="15.621" r=".4"/>
 <circle cy="19.564" cx="18.246" r=".4"/>
 <circle cy="19.564" cx="20.933" r=".4"/>
 <circle cy="19.564" cx="23.558" r=".4"/>
 <circle cy="19.564" cx="26.058" r=".4"/>
 <circle cy="19.564" cx="28.746" r=".4"/>
 <circle cy="19.564" cx="31.371" r=".4"/>
 <circle cy="19.564" cx="33.933" r=".4"/>
 <circle cy="19.564" cx="36.621" r=".4"/>
 <circle cy="19.564" cx="39.183" r=".4"/>
 <circle cy="19.564" cx="41.808" r=".4"/>
 <circle cy="19.564" cx="44.433" r=".4"/>
 <circle cy="19.564" cx="47.058" r=".4"/>
 <path d="M49.68 19.16c-.22 0-.4.2-.4.4s.18.4.4.4"/>
 <circle cy="20.814" cx="48.433" r=".4"/>
 <circle cy="20.814" cx="45.808" r=".4"/>
 <circle cy="20.814" cx="43.183" r=".4"/>
 <circle cy="20.814" cx="40.558" r=".4"/>
 <circle cy="20.814" cx="37.933" r=".4"/>
 <circle cy="20.814" cx="35.246" r=".4"/>
 <circle cy="20.814" cx="32.683" r=".4"/>
 <circle cy="20.814" cx="30.058" r=".4"/>
 <circle cy="20.814" cx="27.371" r=".4"/>
 <circle cy="20.814" cx="24.808" r=".4"/>
 <circle cy="20.814" cx="22.121" r=".4"/>
 <circle cy="20.814" cx="19.558" r=".4"/>
 <circle cy="20.814" cx="16.933" r=".4"/>
 <circle cy="20.814" cx="14.371" r=".4"/>
 <circle cy="20.814" cx="11.746" r=".4"/>
 <circle cy="20.814" cx="9.121" r=".4"/>
 <circle cy="20.814" cx="6.496" r=".4"/>
 <circle cy="20.814" cx="3.871" r=".4"/>
 <circle cy="20.814" cx="1.183" r=".4"/>
 <path d="M0 22.6c.22 0 .4-.2.4-.4s-.18-.4-.4-.4"/>
 <circle cy="22.189" cx="2.558" r=".4"/>
 <circle cy="22.189" cx="5.183" r=".4"/>
 <circle cy="22.189" cx="7.871" r=".4"/>
 <circle cy="22.189" cx="10.433" r=".4"/>
 <circle cy="22.189" cx="12.996" r=".4"/>
 <circle cy="22.189" cx="15.621" r=".4"/>
 <circle cy="22.189" cx="18.246" r=".4"/>
 <circle cy="22.189" cx="20.933" r=".4"/>
 <circle cy="22.189" cx="23.558" r=".4"/>
 <circle cy="22.189" cx="26.058" r=".4"/>
 <circle cy="22.189" cx="28.746" r=".4"/>
 <circle cy="22.189" cx="31.371" r=".4"/>
 <circle cy="22.189" cx="33.933" r=".4"/>
 <circle cy="22.189" cx="36.621" r=".4"/>
 <circle cy="22.189" cx="39.183" r=".4"/>
 <circle cy="22.189" cx="41.808" r=".4"/>
 <circle cy="22.189" cx="44.433" r=".4"/>
 <circle cy="22.189" cx="47.058" r=".4"/>
 <path d="M49.68 21.8c-.22 0-.4.17-.4.4s.18.4.4.4"/>
 <circle cy="23.439" cx="48.433" r=".4"/>
 <circle cy="23.439" cx="45.808" r=".4"/>
 <circle cy="23.439" cx="43.183" r=".4"/>
 <circle cy="23.439" cx="40.558" r=".4"/>
 <circle cy="23.439" cx="37.933" r=".4"/>
 <circle cy="23.439" cx="35.246" r=".4"/>
 <circle cy="23.439" cx="32.683" r=".4"/>
 <circle cy="23.439" cx="30.058" r=".4"/>
 <circle cy="23.439" cx="27.371" r=".4"/>
 <circle cy="23.439" cx="24.808" r=".4"/>
 <circle cy="23.439" cx="22.121" r=".4"/>
 <circle cy="23.439" cx="19.558" r=".4"/>
 <circle cy="23.439" cx="16.933" r=".4"/>
 <circle cy="23.439" cx="14.371" r=".4"/>
 <circle cy="23.439" cx="11.746" r=".4"/>
 <circle cy="23.439" cx="9.121" r=".4"/>
 <circle cy="23.439" cx="6.496" r=".4"/>
 <circle cy="23.439" cx="3.871" r=".4"/>
 <circle cy="23.439" cx="1.183" r=".4"/>
 <path d="M0 25.15c.22 0 .4-.18.4-.4s-.18-.4-.4-.4"/>
 <circle cy="24.752" cx="2.558" r=".4"/>
 <circle cy="24.752" cx="5.183" r=".4"/>
 <circle cy="24.752" cx="7.871" r=".4"/>
 <circle cy="24.752" cx="10.433" r=".4"/>
 <circle cy="24.752" cx="12.996" r=".4"/>
 <circle cy="24.752" cx="15.621" r=".4"/>
 <circle cy="24.752" cx="18.246" r=".4"/>
 <circle cy="24.752" cx="20.933" r=".4"/>
 <circle cy="24.752" cx="23.558" r=".4"/>
 <circle cy="24.752" cx="26.058" r=".4"/>
 <circle cy="24.752" cx="28.746" r=".4"/>
 <circle cy="24.752" cx="31.371" r=".4"/>
 <circle cy="24.752" cx="33.933" r=".4"/>
 <circle cy="24.752" cx="36.621" r=".4"/>
 <circle cy="24.752" cx="39.183" r=".4"/>
 <circle cy="24.752" cx="41.808" r=".4"/>
 <circle cy="24.752" cx="44.433" r=".4"/>
 <circle cy="24.752" cx="47.058" r=".4"/>
 <path d="M49.68 24.35c-.22 0-.4.18-.4.4s.18.4.4.4"/>
 <circle cy="26.002" cx="48.433" r=".4"/>
 <circle cy="26.002" cx="45.808" r=".4"/>
 <circle cy="26.002" cx="43.183" r=".4"/>
 <circle cy="26.002" cx="40.558" r=".4"/>
 <circle cy="26.002" cx="37.933" r=".4"/>
 <circle cy="26.002" cx="35.246" r=".4"/>
 <circle cy="26.002" cx="32.683" r=".4"/>
 <circle cy="26.002" cx="30.058" r=".4"/>
 <circle cy="26.002" cx="27.371" r=".4"/>
 <circle cy="26.002" cx="24.808" r=".4"/>
 <circle cy="26.002" cx="22.121" r=".4"/>
 <circle cy="26.002" cx="19.558" r=".4"/>
 <circle cy="26.002" cx="16.933" r=".4"/>
 <circle cy="26.002" cx="14.371" r=".4"/>
 <circle cy="26.002" cx="11.746" r=".4"/>
 <circle cy="26.002" cx="9.121" r=".4"/>
 <circle cy="26.002" cx="6.496" r=".4"/>
 <circle cy="26.002" cx="3.871" r=".4"/>
 <circle cy="26.002" cx="1.183" r=".4"/>
 <path d="M0 27.78c.22 0 .4-.18.4-.4s-.18-.4-.4-.4"/>
 <circle cy="27.377" cx="2.558" r=".4"/>
 <circle cy="27.377" cx="5.183" r=".4"/>
 <circle cy="27.377" cx="7.871" r=".4"/>
 <circle cy="27.377" cx="10.433" r=".4"/>
 <circle cy="27.377" cx="12.996" r=".4"/>
 <circle cy="27.377" cx="15.621" r=".4"/>
 <circle cy="27.377" cx="18.246" r=".4"/>
 <circle cy="27.377" cx="20.933" r=".4"/>
 <circle cy="27.377" cx="23.558" r=".4"/>
 <circle cy="27.377" cx="26.058" r=".4"/>
 <circle cy="27.377" cx="28.746" r=".4"/>
 <circle cy="27.377" cx="31.371" r=".4"/>
 <circle cy="27.377" cx="33.933" r=".4"/>
 <circle cy="27.377" cx="36.621" r=".4"/>
 <circle cy="27.377" cx="39.183" r=".4"/>
 <circle cy="27.377" cx="41.808" r=".4"/>
 <circle cy="27.377" cx="44.433" r=".4"/>
 <circle cy="27.377" cx="47.058" r=".4"/>
 <path d="M49.68 26.98c-.22 0-.4.18-.4.4s.18.4.4.4"/>
 <circle cy="28.627" cx="48.433" r=".4"/>
 <circle cy="28.627" cx="45.808" r=".4"/>
 <circle cy="28.627" cx="43.183" r=".4"/>
 <circle cy="28.627" cx="40.558" r=".4"/>
 <circle cy="28.627" cx="37.933" r=".4"/>
 <circle cy="28.627" cx="35.246" r=".4"/>
 <circle cy="28.627" cx="32.683" r=".4"/>
 <circle cy="28.627" cx="30.058" r=".4"/>
 <circle cy="28.627" cx="27.371" r=".4"/>
 <circle cy="28.627" cx="24.808" r=".4"/>
 <circle cy="28.627" cx="22.121" r=".4"/>
 <circle cy="28.627" cx="19.558" r=".4"/>
 <circle cy="28.627" cx="16.933" r=".4"/>
 <circle cy="28.627" cx="14.371" r=".4"/>
 <circle cy="28.627" cx="11.746" r=".4"/>
 <circle cy="28.627" cx="9.121" r=".4"/>
 <circle cy="28.627" cx="6.496" r=".4"/>
 <circle cy="28.627" cx="3.871" r=".4"/>
 <circle cy="28.627" cx="1.183" r=".4"/>
 <path d="M0 30.4c.22 0 .4-.18.4-.4s-.18-.4-.4-.4"/>
 <circle cy="30.002" cx="2.558" r=".4"/>
 <circle cy="30.002" cx="5.183" r=".4"/>
 <circle cy="30.002" cx="7.871" r=".4"/>
 <circle cy="30.002" cx="10.433" r=".4"/>
 <circle cy="30.002" cx="12.996" r=".4"/>
 <circle cy="30.002" cx="15.621" r=".4"/>
 <circle cy="30.002" cx="18.246" r=".4"/>
 <circle cy="30.002" cx="20.933" r=".4"/>
 <circle cy="30.002" cx="23.558" r=".4"/>
 <circle cy="30.002" cx="26.058" r=".4"/>
 <circle cy="30.002" cx="28.746" r=".4"/>
 <circle cy="30.002" cx="31.371" r=".4"/>
 <circle cy="30.002" cx="33.933" r=".4"/>
 <circle cy="30.002" cx="36.621" r=".4"/>
 <circle cy="30.002" cx="39.183" r=".4"/>
 <circle cy="30.002" cx="41.808" r=".4"/>
 <circle cy="30.002" cx="44.433" r=".4"/>
 <circle cy="30.002" cx="47.058" r=".4"/>
 <path d="M49.68 29.6c-.22 0-.4.18-.4.4s.18.4.4.4"/>
 <circle cy="31.252" cx="48.433" r=".4"/>
 <circle cy="31.252" cx="45.808" r=".4"/>
 <circle cy="31.252" cx="43.183" r=".4"/>
 <circle cy="31.252" cx="40.558" r=".4"/>
 <circle cy="31.252" cx="37.933" r=".4"/>
 <circle cy="31.252" cx="35.246" r=".4"/>
 <circle cy="31.252" cx="32.683" r=".4"/>
 <circle cy="31.252" cx="30.058" r=".4"/>
 <circle cy="31.252" cx="27.371" r=".4"/>
 <circle cy="31.252" cx="24.808" r=".4"/>
 <circle cy="31.252" cx="22.121" r=".4"/>
 <circle cy="31.252" cx="19.558" r=".4"/>
 <circle cy="31.252" cx="16.933" r=".4"/>
 <circle cy="31.252" cx="14.371" r=".4"/>
 <circle cy="31.252" cx="11.746" r=".4"/>
 <circle cy="31.252" cx="9.121" r=".4"/>
 <circle cy="31.252" cx="6.496" r=".4"/>
 <circle cy="31.252" cx="3.871" r=".4"/>
 <circle cy="31.252" cx="1.183" r=".4"/>
 <path d="M0 33.03c.22 0 .4-.18.4-.4s-.18-.4-.4-.4"/>
 <circle cy="32.627" cx="2.558" r=".4"/>
 <circle cy="32.627" cx="5.183" r=".4"/>
 <circle cy="32.627" cx="7.871" r=".4"/>
 <circle cy="32.627" cx="10.433" r=".4"/>
 <circle cy="32.627" cx="12.996" r=".4"/>
 <circle cy="32.627" cx="15.621" r=".4"/>
 <circle cy="32.627" cx="18.246" r=".4"/>
 <circle cy="32.627" cx="20.933" r=".4"/>
 <circle cy="32.627" cx="23.558" r=".4"/>
 <circle cy="32.627" cx="26.058" r=".4"/>
 <circle cy="32.627" cx="28.746" r=".4"/>
 <circle cy="32.627" cx="31.371" r=".4"/>
 <circle cy="32.627" cx="33.933" r=".4"/>
 <circle cy="32.627" cx="36.621" r=".4"/>
 <circle cy="32.627" cx="39.183" r=".4"/>
 <circle cy="32.627" cx="41.808" r=".4"/>
 <circle cy="32.627" cx="44.433" r=".4"/>
 <circle cy="32.627" cx="47.058" r=".4"/>
 <path d="M49.68 32.23c-.22 0-.4.18-.4.4s.18.4.4.4"/>
 <circle cy="33.877" cx="48.433" r=".4"/>
 <circle cy="33.877" cx="45.808" r=".4"/>
 <circle cy="33.877" cx="43.183" r=".4"/>
 <circle cy="33.877" cx="40.558" r=".4"/>
 <circle cy="33.877" cx="37.933" r=".4"/>
 <circle cy="33.877" cx="35.246" r=".4"/>
 <circle cy="33.877" cx="32.683" r=".4"/>
 <circle cy="33.877" cx="30.058" r=".4"/>
 <circle cy="33.877" cx="27.371" r=".4"/>
 <circle cy="33.877" cx="24.808" r=".4"/>
 <circle cy="33.877" cx="22.121" r=".4"/>
 <circle cy="33.877" cx="19.558" r=".4"/>
 <circle cy="33.877" cx="16.933" r=".4"/>
 <circle cy="33.877" cx="14.371" r=".4"/>
 <circle cy="33.877" cx="11.746" r=".4"/>
 <circle cy="33.877" cx="9.121" r=".4"/>
 <circle cy="33.877" cx="6.496" r=".4"/>
 <circle cy="33.877" cx="3.871" r=".4"/>
 <circle cy="33.877" cx="1.183" r=".4"/>
 <path d="M0 35.53c.22 0 .4-.18.4-.4s-.18-.4-.4-.4"/>
 <circle cy="35.127" cx="2.558" r=".4"/>
 <circle cy="35.127" cx="5.183" r=".4"/>
 <circle cy="35.127" cx="7.871" r=".4"/>
 <circle cy="35.127" cx="10.433" r=".4"/>
 <circle cy="35.127" cx="12.996" r=".4"/>
 <circle cy="35.127" cx="15.621" r=".4"/>
 <circle cy="35.127" cx="18.246" r=".4"/>
 <circle cy="35.127" cx="20.933" r=".4"/>
 <circle cy="35.127" cx="23.558" r=".4"/>
 <circle cy="35.127" cx="26.058" r=".4"/>
 <circle cy="35.127" cx="28.746" r=".4"/>
 <circle cy="35.127" cx="31.371" r=".4"/>
 <circle cy="35.127" cx="33.933" r=".4"/>
 <circle cy="35.127" cx="36.621" r=".4"/>
 <circle cy="35.127" cx="39.183" r=".4"/>
 <circle cy="35.127" cx="41.808" r=".4"/>
 <circle cy="35.127" cx="44.433" r=".4"/>
 <circle cy="35.127" cx="47.058" r=".4"/>
 <path d="M49.68 34.73c-.22 0-.4.18-.4.4s.18.4.4.4"/>
 <circle cy="36.377" cx="48.433" r=".4"/>
 <circle cy="36.377" cx="45.808" r=".4"/>
 <circle cy="36.377" cx="43.183" r=".4"/>
 <circle cy="36.377" cx="40.558" r=".4"/>
 <circle cy="36.377" cx="37.933" r=".4"/>
 <circle cy="36.377" cx="35.246" r=".4"/>
 <circle cy="36.377" cx="32.683" r=".4"/>
 <circle cy="36.377" cx="30.058" r=".4"/>
 <circle cy="36.377" cx="27.371" r=".4"/>
 <circle cy="36.377" cx="24.808" r=".4"/>
 <circle cy="36.377" cx="22.121" r=".4"/>
 <circle cy="36.377" cx="19.558" r=".4"/>
 <circle cy="36.377" cx="16.933" r=".4"/>
 <circle cy="36.377" cx="14.371" r=".4"/>
 <circle cy="36.377" cx="11.746" r=".4"/>
 <circle cy="36.377" cx="9.121" r=".4"/>
 <circle cy="36.377" cx="6.496" r=".4"/>
 <circle cy="36.377" cx="3.871" r=".4"/>
 <circle cy="36.377" cx="1.183" r=".4"/>
 <path d="M0 38.2c.22 0 .4-.17.4-.4s-.18-.38-.4-.38"/>
 <circle cy="37.814" cx="2.558" r=".4"/>
 <circle cy="37.814" cx="5.183" r=".4"/>
 <circle cy="37.814" cx="7.871" r=".4"/>
 <circle cy="37.814" cx="10.433" r=".4"/>
 <circle cy="37.814" cx="12.996" r=".4"/>
 <circle cy="37.814" cx="15.621" r=".4"/>
 <circle cy="37.814" cx="18.246" r=".4"/>
 <circle cy="37.814" cx="20.933" r=".4"/>
 <circle cy="37.814" cx="23.558" r=".4"/>
 <circle cy="37.814" cx="26.058" r=".4"/>
 <circle cy="37.814" cx="28.746" r=".4"/>
 <circle cy="37.814" cx="31.371" r=".4"/>
 <circle cy="37.814" cx="33.933" r=".4"/>
 <circle cy="37.814" cx="36.621" r=".4"/>
 <circle cy="37.814" cx="39.183" r=".4"/>
 <circle cy="37.814" cx="41.808" r=".4"/>
 <circle cy="37.814" cx="44.433" r=".4"/>
 <circle cy="37.814" cx="47.058" r=".4"/>
 <path d="M49.68 37.41c-.22.02-.4.2-.4.42s.18.4.4.4"/>
 <circle cy="39.064" cx="48.433" r=".4"/>
 <circle cy="39.064" cx="45.808" r=".4"/>
 <circle cy="39.064" cx="43.183" r=".4"/>
 <circle cy="39.064" cx="40.558" r=".4"/>
 <circle cy="39.064" cx="37.933" r=".4"/>
 <circle cy="39.064" cx="35.246" r=".4"/>
 <circle cy="39.064" cx="32.683" r=".4"/>
 <circle cy="39.064" cx="30.058" r=".4"/>
 <circle cy="39.064" cx="27.371" r=".4"/>
 <circle cy="39.064" cx="24.808" r=".4"/>
 <circle cy="39.064" cx="22.121" r=".4"/>
 <circle cy="39.064" cx="19.558" r=".4"/>
 <circle cy="39.064" cx="16.933" r=".4"/>
 <circle cy="39.064" cx="14.371" r=".4"/>
 <circle cy="39.064" cx="11.746" r=".4"/>
 <circle cy="39.064" cx="9.121" r=".4"/>
 <circle cy="39.064" cx="6.496" r=".4"/>
 <circle cy="39.064" cx="3.871" r=".4"/>
 <circle cy="39.064" cx="1.183" r=".4"/>
 <path d="M0 40.78c.22 0 .4-.18.4-.4s-.18-.4-.4-.4"/>
 <circle cy="40.377" cx="2.558" r=".4"/>
 <circle cy="40.377" cx="5.183" r=".4"/>
 <circle cy="40.377" cx="7.871" r=".4"/>
 <circle cy="40.377" cx="10.433" r=".4"/>
 <circle cy="40.377" cx="12.996" r=".4"/>
 <circle cy="40.377" cx="15.621" r=".4"/>
 <circle cy="40.377" cx="18.246" r=".4"/>
 <circle cy="40.377" cx="20.933" r=".4"/>
 <circle cy="40.377" cx="23.558" r=".4"/>
 <circle cy="40.377" cx="26.058" r=".4"/>
 <circle cy="40.377" cx="28.746" r=".4"/>
 <circle cy="40.377" cx="31.371" r=".4"/>
 <circle cy="40.377" cx="33.933" r=".4"/>
 <circle cy="40.377" cx="36.621" r=".4"/>
 <circle cy="40.377" cx="39.183" r=".4"/>
 <circle cy="40.377" cx="41.808" r=".4"/>
 <circle cy="40.377" cx="44.433" r=".4"/>
 <circle cy="40.377" cx="47.058" r=".4"/>
 <path d="M49.68 39.98c-.22 0-.4.18-.4.4s.18.4.4.4"/>
 <circle cy="41.627" cx="48.433" r=".4"/>
 <circle cy="41.627" cx="45.808" r=".4"/>
 <circle cy="41.627" cx="43.183" r=".4"/>
 <circle cy="41.627" cx="40.558" r=".4"/>
 <circle cy="41.627" cx="37.933" r=".4"/>
 <circle cy="41.627" cx="35.246" r=".4"/>
 <circle cy="41.627" cx="32.683" r=".4"/>
 <circle cy="41.627" cx="30.058" r=".4"/>
 <circle cy="41.627" cx="27.371" r=".4"/>
 <circle cy="41.627" cx="24.808" r=".4"/>
 <circle cy="41.627" cx="22.121" r=".4"/>
 <circle cy="41.627" cx="19.558" r=".4"/>
 <circle cy="41.627" cx="16.933" r=".4"/>
 <circle cy="41.627" cx="14.371" r=".4"/>
 <circle cy="41.627" cx="11.746" r=".4"/>
 <circle cy="41.627" cx="9.121" r=".4"/>
 <circle cy="41.627" cx="6.496" r=".4"/>
 <circle cy="41.627" cx="3.871" r=".4"/>
 <circle cy="41.627" cx="1.183" r=".4"/>
 <path d="M0 43.4c.22 0 .4-.18.4-.4s-.18-.4-.4-.4"/>
 <circle cy="43.002" cx="2.558" r=".4"/>
 <circle cy="43.002" cx="5.183" r=".4"/>
 <circle cy="43.002" cx="7.871" r=".4"/>
 <circle cy="43.002" cx="10.433" r=".4"/>
 <circle cy="43.002" cx="12.996" r=".4"/>
 <circle cy="43.002" cx="15.621" r=".4"/>
 <circle cy="43.002" cx="18.246" r=".4"/>
 <circle cy="43.002" cx="20.933" r=".4"/>
 <circle cy="43.002" cx="23.558" r=".4"/>
 <circle cy="43.002" cx="26.058" r=".4"/>
 <circle cy="43.002" cx="28.746" r=".4"/>
 <circle cy="43.002" cx="31.371" r=".4"/>
 <circle cy="43.002" cx="33.933" r=".4"/>
 <circle cy="43.002" cx="36.621" r=".4"/>
 <circle cy="43.002" cx="39.183" r=".4"/>
 <circle cy="43.002" cx="41.808" r=".4"/>
 <circle cy="43.002" cx="44.433" r=".4"/>
 <circle cy="43.002" cx="47.058" r=".4"/>
 <path d="M49.68 42.6c-.22 0-.4.18-.4.4s.18.4.4.4"/>
 <circle cy="44.252" cx="48.433" r=".4"/>
 <circle cy="44.252" cx="45.808" r=".4"/>
 <circle cy="44.252" cx="43.183" r=".4"/>
 <circle cy="44.252" cx="40.558" r=".4"/>
 <circle cy="44.252" cx="37.933" r=".4"/>
 <circle cy="44.252" cx="35.246" r=".4"/>
 <circle cy="44.252" cx="32.683" r=".4"/>
 <circle cy="44.252" cx="30.058" r=".4"/>
 <circle cy="44.252" cx="27.371" r=".4"/>
 <circle cy="44.252" cx="24.808" r=".4"/>
 <circle cy="44.252" cx="22.121" r=".4"/>
 <circle cy="44.252" cx="19.558" r=".4"/>
 <circle cy="44.252" cx="16.933" r=".4"/>
 <circle cy="44.252" cx="14.371" r=".4"/>
 <circle cy="44.252" cx="11.746" r=".4"/>
 <circle cy="44.252" cx="9.121" r=".4"/>
 <circle cy="44.252" cx="6.496" r=".4"/>
 <circle cy="44.252" cx="3.871" r=".4"/>
 <circle cy="44.252" cx="1.183" r=".4"/>
 <path d="M0 46.03c.22 0 .4-.18.4-.4s-.18-.4-.4-.4"/>
 <circle cy="45.627" cx="2.558" r=".4"/>
 <circle cy="45.627" cx="5.183" r=".4"/>
 <circle cy="45.627" cx="7.871" r=".4"/>
 <circle cy="45.627" cx="10.433" r=".4"/>
 <circle cy="45.627" cx="12.996" r=".4"/>
 <circle cy="45.627" cx="15.621" r=".4"/>
 <circle cy="45.627" cx="18.246" r=".4"/>
 <circle cy="45.627" cx="20.933" r=".4"/>
 <circle cy="45.627" cx="23.558" r=".4"/>
 <circle cy="45.627" cx="26.058" r=".4"/>
 <circle cy="45.627" cx="28.746" r=".4"/>
 <circle cy="45.627" cx="31.371" r=".4"/>
 <circle cy="45.627" cx="33.933" r=".4"/>
 <circle cy="45.627" cx="36.621" r=".4"/>
 <circle cy="45.627" cx="39.183" r=".4"/>
 <circle cy="45.627" cx="41.808" r=".4"/>
 <circle cy="45.627" cx="44.433" r=".4"/>
 <circle cy="45.627" cx="47.058" r=".4"/>
 <path d="M49.68 45.23c-.22 0-.4.18-.4.4s.18.4.4.4"/>
 <circle cy="46.877" cx="48.433" r=".4"/>
 <circle cy="46.877" cx="45.808" r=".4"/>
 <circle cy="46.877" cx="43.183" r=".4"/>
 <circle cy="46.877" cx="40.558" r=".4"/>
 <circle cy="46.877" cx="37.933" r=".4"/>
 <circle cy="46.877" cx="35.246" r=".4"/>
 <circle cy="46.877" cx="32.683" r=".4"/>
 <circle cy="46.877" cx="30.058" r=".4"/>
 <circle cy="46.877" cx="27.371" r=".4"/>
 <circle cy="46.877" cx="24.808" r=".4"/>
 <circle cy="46.877" cx="22.121" r=".4"/>
 <circle cy="46.877" cx="19.558" r=".4"/>
 <circle cy="46.877" cx="16.933" r=".4"/>
 <circle cy="46.877" cx="14.371" r=".4"/>
 <circle cy="46.877" cx="11.746" r=".4"/>
 <circle cy="46.877" cx="9.121" r=".4"/>
 <circle cy="46.877" cx="6.496" r=".4"/>
 <circle cy="46.877" cx="3.871" r=".4"/>
 <circle cy="46.877" cx="1.183" r=".4"/>
 <path d="M0 48.65c.22 0 .4-.18.4-.4s-.18-.4-.4-.4"/>
 <circle cy="48.252" cx="2.558" r=".4"/>
 <circle cy="48.252" cx="5.183" r=".4"/>
 <circle cy="48.252" cx="7.871" r=".4"/>
 <circle cy="48.252" cx="10.433" r=".4"/>
 <circle cy="48.252" cx="12.996" r=".4"/>
 <circle cy="48.252" cx="15.621" r=".4"/>
 <circle cy="48.252" cx="18.246" r=".4"/>
 <circle cy="48.252" cx="20.933" r=".4"/>
 <circle cy="48.252" cx="23.558" r=".4"/>
 <circle cy="48.252" cx="26.058" r=".4"/>
 <circle cy="48.252" cx="28.746" r=".4"/>
 <circle cy="48.252" cx="31.371" r=".4"/>
 <circle cy="48.252" cx="33.933" r=".4"/>
 <circle cy="48.252" cx="36.621" r=".4"/>
 <circle cy="48.252" cx="39.183" r=".4"/>
 <circle cy="48.252" cx="41.808" r=".4"/>
 <circle cy="48.252" cx="44.433" r=".4"/>
 <circle cy="48.252" cx="47.058" r=".4"/>
 <path d="M49.68 47.85c-.22 0-.4.18-.4.4s.18.4.4.4M48.83 49.5c0-.22-.18-.4-.4-.4s-.4.18-.4.4M46.2 49.5c0-.22-.17-.4-.4-.4s-.4.18-.4.4M43.58 49.5c0-.22-.18-.4-.4-.4s-.4.18-.4.4M40.96 49.5c0-.22-.18-.4-.4-.4s-.4.18-.4.4M38.33 49.5c0-.22-.18-.4-.4-.4s-.4.18-.4.4M35.65 49.5c0-.22-.18-.4-.4-.4s-.4.18-.4.4M33.08 49.5c0-.22-.18-.4-.4-.4s-.4.18-.4.4M30.46 49.5c0-.22-.18-.4-.4-.4s-.4.18-.4.4M27.77 49.5c0-.22-.18-.4-.4-.4s-.4.18-.4.4M25.2 49.5c0-.22-.17-.4-.4-.4s-.4.18-.4.4M22.52 49.5c0-.22-.18-.4-.4-.4s-.4.18-.4.4M19.96 49.5c0-.22-.18-.4-.4-.4s-.4.18-.4.4M17.33 49.5c0-.22-.18-.4-.4-.4s-.4.18-.4.4M14.77 49.5c0-.22-.18-.4-.4-.4s-.4.18-.4.4M12.15 49.5c0-.22-.18-.4-.4-.4s-.4.18-.4.4M9.52 49.5c0-.22-.18-.4-.4-.4s-.4.18-.4.4M6.9 49.5c0-.22-.18-.4-.4-.4s-.4.18-.4.4M4.27 49.5c0-.22-.18-.4-.4-.4s-.4.18-.4.4M1.58 49.5c0-.22-.18-.4-.4-.4s-.4.18-.4.4"/>
</svg>
