<?xml version="1.0"?>
<!-- Converted with SVG Converter - Version 0.9.5 (Compiled Fri Feb 21 09:53:38 2020) - Copyright (C) 2011 Nokia -->
<svg xmlns="http://www.w3.org/2000/svg" width="49.698" baseProfile="tiny" xmlns:xlink="http://www.w3.org/1999/xlink" height="49.495">
 <path fill="none" d="M0 0h49.7v49.5H0z"/>
 <path fill="#EC008C" d="M48 0c0 .25.2.45.44.45s.45-.2.45-.45M45.36 0c0 .25.2.45.45.45s.46-.2.46-.45M42.74 0c0 .25.2.45.45.45s.44-.2.44-.45M40.1 0c0 .25.2.45.46.45S41 .25 41 0M37.5 0c0 .25.2.45.44.45s.45-.2.45-.45M34.8 0c0 .25.2.45.45.45s.45-.2.45-.45M32.24 0c0 .25.2.45.45.45s.44-.2.44-.45M29.6 0c0 .25.2.45.46.45s.45-.2.45-.45M26.93 0c0 .25.2.45.45.45s.45-.2.45-.45M24.36 0c0 .25.2.45.45.45s.46-.2.46-.45M21.68 0c0 .25.2.45.45.45s.45-.2.45-.45M19.1 0c0 .25.2.45.46.45S20 .25 20 0M16.5 0c0 .25.2.45.44.45s.45-.2.45-.45M13.93 0c0 .25.2.45.45.45s.44-.2.44-.45M11.3 0c0 .25.2.45.45.45s.45-.2.45-.45M8.68 0c0 .25.2.45.45.45s.44-.2.44-.45M6.05 0c0 .25.2.45.45.45s.45-.2.45-.45M3.42 0c0 .25.2.45.45.45s.46-.2.46-.45M.74 0c0 .25.2.45.45.45s.44-.2.44-.45M0 1.76c.25 0 .45-.2.45-.45S.25.87 0 .87"/>
 <circle cx="2.563" r=".45" cy="1.313" fill="#EC008C"/>
 <circle cx="5.188" r=".45" cy="1.313" fill="#EC008C"/>
 <circle cx="7.875" r=".45" cy="1.313" fill="#EC008C"/>
 <circle cx="10.438" r=".45" cy="1.313" fill="#EC008C"/>
 <circle cx="13" r=".45" cy="1.313" fill="#EC008C"/>
 <circle cx="15.625" r=".45" cy="1.313" fill="#EC008C"/>
 <circle cx="18.25" r=".45" cy="1.313" fill="#EC008C"/>
 <circle cx="20.938" r=".45" cy="1.313" fill="#EC008C"/>
 <circle cx="23.563" r=".45" cy="1.313" fill="#EC008C"/>
 <circle cx="26.063" r=".45" cy="1.313" fill="#EC008C"/>
 <circle cx="28.75" r=".45" cy="1.313" fill="#EC008C"/>
 <circle cx="31.375" r=".45" cy="1.313" fill="#EC008C"/>
 <circle cx="33.938" r=".45" cy="1.313" fill="#EC008C"/>
 <circle cx="36.625" r=".45" cy="1.313" fill="#EC008C"/>
 <circle cx="39.188" r=".45" cy="1.313" fill="#EC008C"/>
 <circle cx="41.813" r=".45" cy="1.313" fill="#EC008C"/>
 <circle cx="44.438" r=".45" cy="1.313" fill="#EC008C"/>
 <circle cx="47.063" r=".45" cy="1.313" fill="#EC008C"/>
 <path fill="#EC008C" d="M49.7.86c-.26 0-.46.2-.46.45s.2.46.45.46"/>
 <circle cx="48.438" r=".45" cy="2.563" fill="#EC008C"/>
 <circle cx="45.813" r=".45" cy="2.563" fill="#EC008C"/>
 <circle cx="43.188" r=".45" cy="2.563" fill="#EC008C"/>
 <circle cx="40.563" r=".45" cy="2.563" fill="#EC008C"/>
 <circle cx="37.938" r=".45" cy="2.563" fill="#EC008C"/>
 <circle cx="35.25" r=".45" cy="2.563" fill="#EC008C"/>
 <circle cx="32.688" r=".45" cy="2.563" fill="#EC008C"/>
 <circle cx="30.063" r=".45" cy="2.563" fill="#EC008C"/>
 <circle cx="27.375" r=".45" cy="2.563" fill="#EC008C"/>
 <circle cx="24.813" r=".45" cy="2.563" fill="#EC008C"/>
 <circle cx="22.125" r=".45" cy="2.563" fill="#EC008C"/>
 <circle cx="19.563" r=".45" cy="2.563" fill="#EC008C"/>
 <circle cx="16.938" r=".45" cy="2.563" fill="#EC008C"/>
 <circle cx="14.375" r=".45" cy="2.563" fill="#EC008C"/>
 <circle cx="11.75" r=".45" cy="2.563" fill="#EC008C"/>
 <circle cx="9.125" r=".45" cy="2.563" fill="#EC008C"/>
 <circle cx="6.5" r=".45" cy="2.563" fill="#EC008C"/>
 <circle cx="3.875" r=".45" cy="2.563" fill="#EC008C"/>
 <circle cx="1.188" r=".45" cy="2.563" fill="#EC008C"/>
 <path fill="#EC008C" d="M0 4.33c.25 0 .45-.2.45-.46s-.2-.45-.45-.45"/>
 <circle cx="2.563" r=".45" cy="3.875" fill="#EC008C"/>
 <circle cx="5.188" r=".45" cy="3.875" fill="#EC008C"/>
 <circle cx="7.875" r=".45" cy="3.875" fill="#EC008C"/>
 <circle cx="10.438" r=".45" cy="3.875" fill="#EC008C"/>
 <circle cx="13" r=".45" cy="3.875" fill="#EC008C"/>
 <circle cx="15.625" r=".45" cy="3.875" fill="#EC008C"/>
 <circle cx="18.25" r=".45" cy="3.875" fill="#EC008C"/>
 <circle cx="20.938" r=".45" cy="3.875" fill="#EC008C"/>
 <circle cx="23.563" r=".45" cy="3.875" fill="#EC008C"/>
 <circle cx="26.063" r=".45" cy="3.875" fill="#EC008C"/>
 <circle cx="28.75" r=".45" cy="3.875" fill="#EC008C"/>
 <circle cx="31.375" r=".45" cy="3.875" fill="#EC008C"/>
 <circle cx="33.938" r=".45" cy="3.875" fill="#EC008C"/>
 <circle cx="36.625" r=".45" cy="3.875" fill="#EC008C"/>
 <circle cx="39.188" r=".45" cy="3.875" fill="#EC008C"/>
 <circle cx="41.813" r=".45" cy="3.875" fill="#EC008C"/>
 <circle cx="44.438" r=".45" cy="3.875" fill="#EC008C"/>
 <circle cx="47.063" r=".45" cy="3.875" fill="#EC008C"/>
 <path fill="#EC008C" d="M49.7 3.42c-.26 0-.46.2-.46.46s.2.45.45.45"/>
 <circle cx="48.438" r=".45" cy="5.125" fill="#EC008C"/>
 <circle cx="45.813" r=".45" cy="5.125" fill="#EC008C"/>
 <circle cx="43.188" r=".45" cy="5.125" fill="#EC008C"/>
 <circle cx="40.563" r=".45" cy="5.125" fill="#EC008C"/>
 <circle cx="37.938" r=".45" cy="5.125" fill="#EC008C"/>
 <circle cx="35.25" r=".45" cy="5.125" fill="#EC008C"/>
 <circle cx="32.688" r=".45" cy="5.125" fill="#EC008C"/>
 <circle cx="30.063" r=".45" cy="5.125" fill="#EC008C"/>
 <circle cx="27.375" r=".45" cy="5.125" fill="#EC008C"/>
 <circle cx="24.813" r=".45" cy="5.125" fill="#EC008C"/>
 <circle cx="22.125" r=".45" cy="5.125" fill="#EC008C"/>
 <circle cx="19.563" r=".45" cy="5.125" fill="#EC008C"/>
 <circle cx="16.938" r=".45" cy="5.125" fill="#EC008C"/>
 <circle cx="14.375" r=".45" cy="5.125" fill="#EC008C"/>
 <circle cx="11.75" r=".45" cy="5.125" fill="#EC008C"/>
 <circle cx="9.125" r=".45" cy="5.125" fill="#EC008C"/>
 <circle cx="6.5" r=".45" cy="5.125" fill="#EC008C"/>
 <circle cx="3.875" r=".45" cy="5.125" fill="#EC008C"/>
 <circle cx="1.188" r=".45" cy="5.125" fill="#EC008C"/>
 <path fill="#EC008C" d="M0 6.95c.25 0 .45-.2.45-.45s-.2-.45-.45-.45"/>
 <circle cx="2.563" r=".45" cy="6.5" fill="#EC008C"/>
 <circle cx="5.188" r=".45" cy="6.5" fill="#EC008C"/>
 <circle cx="7.875" r=".45" cy="6.5" fill="#EC008C"/>
 <circle cx="10.438" r=".45" cy="6.5" fill="#EC008C"/>
 <circle cx="13" r=".45" cy="6.5" fill="#EC008C"/>
 <circle cx="15.625" r=".45" cy="6.5" fill="#EC008C"/>
 <circle cx="18.25" r=".45" cy="6.5" fill="#EC008C"/>
 <circle cx="20.938" r=".45" cy="6.5" fill="#EC008C"/>
 <circle cx="23.563" r=".45" cy="6.5" fill="#EC008C"/>
 <circle cx="26.063" r=".45" cy="6.5" fill="#EC008C"/>
 <circle cx="28.75" r=".45" cy="6.5" fill="#EC008C"/>
 <circle cx="31.375" r=".45" cy="6.5" fill="#EC008C"/>
 <circle cx="33.938" r=".45" cy="6.5" fill="#EC008C"/>
 <circle cx="36.625" r=".45" cy="6.5" fill="#EC008C"/>
 <circle cx="39.188" r=".45" cy="6.5" fill="#EC008C"/>
 <circle cx="41.813" r=".45" cy="6.5" fill="#EC008C"/>
 <circle cx="44.438" r=".45" cy="6.5" fill="#EC008C"/>
 <circle cx="47.063" r=".45" cy="6.5" fill="#EC008C"/>
 <path fill="#EC008C" d="M49.7 6.05c-.26 0-.46.2-.46.45s.2.45.45.45"/>
 <circle cx="48.438" r=".45" cy="7.75" fill="#EC008C"/>
 <circle cx="45.813" r=".45" cy="7.75" fill="#EC008C"/>
 <circle cx="43.188" r=".45" cy="7.75" fill="#EC008C"/>
 <circle cx="40.563" r=".45" cy="7.75" fill="#EC008C"/>
 <circle cx="37.938" r=".45" cy="7.75" fill="#EC008C"/>
 <circle cx="35.25" r=".45" cy="7.75" fill="#EC008C"/>
 <circle cx="32.688" r=".45" cy="7.75" fill="#EC008C"/>
 <circle cx="30.063" r=".45" cy="7.75" fill="#EC008C"/>
 <circle cx="27.375" r=".45" cy="7.75" fill="#EC008C"/>
 <circle cx="24.813" r=".45" cy="7.75" fill="#EC008C"/>
 <circle cx="22.125" r=".45" cy="7.75" fill="#EC008C"/>
 <circle cx="19.563" r=".45" cy="7.75" fill="#EC008C"/>
 <circle cx="16.938" r=".45" cy="7.75" fill="#EC008C"/>
 <circle cx="14.375" r=".45" cy="7.75" fill="#EC008C"/>
 <circle cx="11.75" r=".45" cy="7.75" fill="#EC008C"/>
 <circle cx="9.125" r=".45" cy="7.75" fill="#EC008C"/>
 <circle cx="6.5" r=".45" cy="7.75" fill="#EC008C"/>
 <circle cx="3.875" r=".45" cy="7.75" fill="#EC008C"/>
 <circle cx="1.188" r=".45" cy="7.75" fill="#EC008C"/>
 <path fill="#EC008C" d="M0 9.58c.25 0 .45-.2.45-.45s-.2-.46-.45-.46"/>
 <circle cx="2.563" r=".45" cy="9.125" fill="#EC008C"/>
 <circle cx="5.188" r=".45" cy="9.125" fill="#EC008C"/>
 <circle cx="7.875" r=".45" cy="9.125" fill="#EC008C"/>
 <circle cx="10.438" r=".45" cy="9.125" fill="#EC008C"/>
 <circle cx="13" r=".45" cy="9.125" fill="#EC008C"/>
 <circle cx="15.625" r=".45" cy="9.125" fill="#EC008C"/>
 <circle cx="18.25" r=".45" cy="9.125" fill="#EC008C"/>
 <circle cx="20.938" r=".45" cy="9.125" fill="#EC008C"/>
 <circle cx="23.563" r=".45" cy="9.125" fill="#EC008C"/>
 <circle cx="26.063" r=".45" cy="9.125" fill="#EC008C"/>
 <circle cx="28.75" r=".45" cy="9.125" fill="#EC008C"/>
 <circle cx="31.375" r=".45" cy="9.125" fill="#EC008C"/>
 <circle cx="33.938" r=".45" cy="9.125" fill="#EC008C"/>
 <circle cx="36.625" r=".45" cy="9.125" fill="#EC008C"/>
 <circle cx="39.188" r=".45" cy="9.125" fill="#EC008C"/>
 <circle cx="41.813" r=".45" cy="9.125" fill="#EC008C"/>
 <circle cx="44.438" r=".45" cy="9.125" fill="#EC008C"/>
 <circle cx="47.063" r=".45" cy="9.125" fill="#EC008C"/>
 <path fill="#EC008C" d="M49.7 8.68c-.26 0-.46.2-.46.45s.2.45.45.45"/>
 <circle cx="48.438" r=".45" cy="10.375" fill="#EC008C"/>
 <circle cx="45.813" r=".45" cy="10.375" fill="#EC008C"/>
 <circle cx="43.188" r=".45" cy="10.375" fill="#EC008C"/>
 <circle cx="40.563" r=".45" cy="10.375" fill="#EC008C"/>
 <circle cx="37.938" r=".45" cy="10.375" fill="#EC008C"/>
 <circle cx="35.25" r=".45" cy="10.375" fill="#EC008C"/>
 <circle cx="32.688" r=".45" cy="10.375" fill="#EC008C"/>
 <circle cx="30.063" r=".45" cy="10.375" fill="#EC008C"/>
 <circle cx="27.375" r=".45" cy="10.375" fill="#EC008C"/>
 <circle cx="24.813" r=".45" cy="10.375" fill="#EC008C"/>
 <circle cx="22.125" r=".45" cy="10.375" fill="#EC008C"/>
 <circle cx="19.563" r=".45" cy="10.375" fill="#EC008C"/>
 <circle cx="16.938" r=".45" cy="10.375" fill="#EC008C"/>
 <circle cx="14.375" r=".45" cy="10.375" fill="#EC008C"/>
 <circle cx="11.75" r=".45" cy="10.375" fill="#EC008C"/>
 <circle cx="9.125" r=".45" cy="10.375" fill="#EC008C"/>
 <circle cx="6.5" r=".45" cy="10.375" fill="#EC008C"/>
 <circle cx="3.875" r=".45" cy="10.375" fill="#EC008C"/>
 <circle cx="1.188" r=".45" cy="10.375" fill="#EC008C"/>
 <path fill="#EC008C" d="M0 12.2c.25 0 .45-.2.45-.45s-.2-.45-.45-.45"/>
 <circle cx="2.563" r=".45" cy="11.75" fill="#EC008C"/>
 <circle cx="5.188" r=".45" cy="11.75" fill="#EC008C"/>
 <circle cx="7.875" r=".45" cy="11.75" fill="#EC008C"/>
 <circle cx="10.438" r=".45" cy="11.75" fill="#EC008C"/>
 <circle cx="13" r=".45" cy="11.75" fill="#EC008C"/>
 <circle cx="15.625" r=".45" cy="11.75" fill="#EC008C"/>
 <circle cx="18.25" r=".45" cy="11.75" fill="#EC008C"/>
 <circle cx="20.938" r=".45" cy="11.75" fill="#EC008C"/>
 <circle cx="23.563" r=".45" cy="11.75" fill="#EC008C"/>
 <circle cx="26.063" r=".45" cy="11.75" fill="#EC008C"/>
 <circle cx="28.75" r=".45" cy="11.75" fill="#EC008C"/>
 <circle cx="31.375" r=".45" cy="11.75" fill="#EC008C"/>
 <circle cx="33.938" r=".45" cy="11.75" fill="#EC008C"/>
 <circle cx="36.625" r=".45" cy="11.75" fill="#EC008C"/>
 <circle cx="39.188" r=".45" cy="11.75" fill="#EC008C"/>
 <circle cx="41.813" r=".45" cy="11.75" fill="#EC008C"/>
 <circle cx="44.438" r=".45" cy="11.75" fill="#EC008C"/>
 <circle cx="47.063" r=".45" cy="11.75" fill="#EC008C"/>
 <path fill="#EC008C" d="M49.7 11.3c-.26 0-.46.2-.46.45s.2.45.45.45"/>
 <circle cx="48.438" r=".45" cy="13" fill="#EC008C"/>
 <circle cx="45.813" r=".45" cy="13" fill="#EC008C"/>
 <circle cx="43.188" r=".45" cy="13" fill="#EC008C"/>
 <circle cx="40.563" r=".45" cy="13" fill="#EC008C"/>
 <circle cx="37.938" r=".45" cy="13" fill="#EC008C"/>
 <circle cx="35.25" r=".45" cy="13" fill="#EC008C"/>
 <circle cx="32.688" r=".45" cy="13" fill="#EC008C"/>
 <circle cx="30.063" r=".45" cy="13" fill="#EC008C"/>
 <circle cx="27.375" r=".45" cy="13" fill="#EC008C"/>
 <circle cx="24.813" r=".45" cy="13" fill="#EC008C"/>
 <circle cx="22.125" r=".45" cy="13" fill="#EC008C"/>
 <circle cx="19.563" r=".45" cy="13" fill="#EC008C"/>
 <circle cx="16.938" r=".45" cy="13" fill="#EC008C"/>
 <circle cx="14.375" r=".45" cy="13" fill="#EC008C"/>
 <circle cx="11.75" r=".45" cy="13" fill="#EC008C"/>
 <circle cx="9.125" r=".45" cy="13" fill="#EC008C"/>
 <circle cx="6.5" r=".45" cy="13" fill="#EC008C"/>
 <circle cx="3.875" r=".45" cy="13" fill="#EC008C"/>
 <circle cx="1.188" r=".45" cy="13" fill="#EC008C"/>
 <path fill="#EC008C" d="M0 14.76c.25 0 .45-.2.45-.45s-.2-.44-.45-.44"/>
 <circle cx="2.563" r=".45" cy="14.313" fill="#EC008C"/>
 <circle cx="5.188" r=".45" cy="14.313" fill="#EC008C"/>
 <circle cx="7.875" r=".45" cy="14.313" fill="#EC008C"/>
 <circle cx="10.438" r=".45" cy="14.313" fill="#EC008C"/>
 <circle cx="13" r=".45" cy="14.313" fill="#EC008C"/>
 <circle cx="15.625" r=".45" cy="14.313" fill="#EC008C"/>
 <circle cx="18.25" r=".45" cy="14.313" fill="#EC008C"/>
 <circle cx="20.938" r=".45" cy="14.313" fill="#EC008C"/>
 <circle cx="23.563" r=".45" cy="14.313" fill="#EC008C"/>
 <circle cx="26.063" r=".45" cy="14.313" fill="#EC008C"/>
 <circle cx="28.75" r=".45" cy="14.313" fill="#EC008C"/>
 <circle cx="31.375" r=".45" cy="14.313" fill="#EC008C"/>
 <circle cx="33.938" r=".45" cy="14.313" fill="#EC008C"/>
 <circle cx="36.625" r=".45" cy="14.313" fill="#EC008C"/>
 <circle cx="39.188" r=".45" cy="14.313" fill="#EC008C"/>
 <circle cx="41.813" r=".45" cy="14.313" fill="#EC008C"/>
 <circle cx="44.438" r=".45" cy="14.313" fill="#EC008C"/>
 <circle cx="47.063" r=".45" cy="14.313" fill="#EC008C"/>
 <path fill="#EC008C" d="M49.7 13.86c-.26 0-.46.2-.46.45s.2.46.45.46"/>
 <circle cx="48.438" r=".45" cy="15.563" fill="#EC008C"/>
 <circle cx="45.813" r=".45" cy="15.563" fill="#EC008C"/>
 <circle cx="43.188" r=".45" cy="15.563" fill="#EC008C"/>
 <circle cx="40.563" r=".45" cy="15.563" fill="#EC008C"/>
 <circle cx="37.938" r=".45" cy="15.563" fill="#EC008C"/>
 <circle cx="35.25" r=".45" cy="15.563" fill="#EC008C"/>
 <circle cx="32.688" r=".45" cy="15.563" fill="#EC008C"/>
 <circle cx="30.063" r=".45" cy="15.563" fill="#EC008C"/>
 <circle cx="27.375" r=".45" cy="15.563" fill="#EC008C"/>
 <circle cx="24.813" r=".45" cy="15.563" fill="#EC008C"/>
 <circle cx="22.125" r=".45" cy="15.563" fill="#EC008C"/>
 <circle cx="19.563" r=".45" cy="15.563" fill="#EC008C"/>
 <circle cx="16.938" r=".45" cy="15.563" fill="#EC008C"/>
 <circle cx="14.375" r=".45" cy="15.563" fill="#EC008C"/>
 <circle cx="11.75" r=".45" cy="15.563" fill="#EC008C"/>
 <circle cx="9.125" r=".45" cy="15.563" fill="#EC008C"/>
 <circle cx="6.5" r=".45" cy="15.563" fill="#EC008C"/>
 <circle cx="3.875" r=".45" cy="15.563" fill="#EC008C"/>
 <circle cx="1.188" r=".45" cy="15.563" fill="#EC008C"/>
 <path fill="#EC008C" d="M0 17.4c.25 0 .45-.2.45-.46s-.2-.45-.45-.45"/>
 <circle cx="2.563" r=".45" cy="16.938" fill="#EC008C"/>
 <circle cx="5.188" r=".45" cy="16.938" fill="#EC008C"/>
 <circle cx="7.875" r=".45" cy="16.938" fill="#EC008C"/>
 <circle cx="10.438" r=".45" cy="16.938" fill="#EC008C"/>
 <circle cx="13" r=".45" cy="16.938" fill="#EC008C"/>
 <circle cx="15.625" r=".45" cy="16.938" fill="#EC008C"/>
 <circle cx="18.25" r=".45" cy="16.938" fill="#EC008C"/>
 <circle cx="20.938" r=".45" cy="16.938" fill="#EC008C"/>
 <circle cx="23.563" r=".45" cy="16.938" fill="#EC008C"/>
 <circle cx="26.063" r=".45" cy="16.938" fill="#EC008C"/>
 <circle cx="28.75" r=".45" cy="16.938" fill="#EC008C"/>
 <circle cx="31.375" r=".45" cy="16.938" fill="#EC008C"/>
 <circle cx="33.938" r=".45" cy="16.938" fill="#EC008C"/>
 <circle cx="36.625" r=".45" cy="16.938" fill="#EC008C"/>
 <circle cx="39.188" r=".45" cy="16.938" fill="#EC008C"/>
 <circle cx="41.813" r=".45" cy="16.938" fill="#EC008C"/>
 <circle cx="44.438" r=".45" cy="16.938" fill="#EC008C"/>
 <circle cx="47.063" r=".45" cy="16.938" fill="#EC008C"/>
 <path fill="#EC008C" d="M49.7 16.5c-.26 0-.46.2-.46.44s.2.45.45.45"/>
 <circle cx="48.438" r=".45" cy="18.188" fill="#EC008C"/>
 <circle cx="45.813" r=".45" cy="18.188" fill="#EC008C"/>
 <circle cx="43.188" r=".45" cy="18.188" fill="#EC008C"/>
 <circle cx="40.563" r=".45" cy="18.188" fill="#EC008C"/>
 <circle cx="37.938" r=".45" cy="18.188" fill="#EC008C"/>
 <circle cx="35.25" r=".45" cy="18.188" fill="#EC008C"/>
 <circle cx="32.688" r=".45" cy="18.188" fill="#EC008C"/>
 <circle cx="30.063" r=".45" cy="18.188" fill="#EC008C"/>
 <circle cx="27.375" r=".45" cy="18.188" fill="#EC008C"/>
 <circle cx="24.813" r=".45" cy="18.188" fill="#EC008C"/>
 <circle cx="22.125" r=".45" cy="18.188" fill="#EC008C"/>
 <circle cx="19.563" r=".45" cy="18.188" fill="#EC008C"/>
 <circle cx="16.938" r=".45" cy="18.188" fill="#EC008C"/>
 <circle cx="14.375" r=".45" cy="18.188" fill="#EC008C"/>
 <circle cx="11.75" r=".45" cy="18.188" fill="#EC008C"/>
 <circle cx="9.125" r=".45" cy="18.188" fill="#EC008C"/>
 <circle cx="6.5" r=".45" cy="18.188" fill="#EC008C"/>
 <circle cx="3.875" r=".45" cy="18.188" fill="#EC008C"/>
 <circle cx="1.188" r=".45" cy="18.188" fill="#EC008C"/>
 <path fill="#EC008C" d="M0 20c.25 0 .45-.2.45-.44s-.2-.45-.45-.45"/>
 <circle cx="2.563" r=".45" cy="19.563" fill="#EC008C"/>
 <circle cx="5.188" r=".45" cy="19.563" fill="#EC008C"/>
 <circle cx="7.875" r=".45" cy="19.563" fill="#EC008C"/>
 <circle cx="10.438" r=".45" cy="19.563" fill="#EC008C"/>
 <circle cx="13" r=".45" cy="19.563" fill="#EC008C"/>
 <circle cx="15.625" r=".45" cy="19.563" fill="#EC008C"/>
 <circle cx="18.25" r=".45" cy="19.563" fill="#EC008C"/>
 <circle cx="20.938" r=".45" cy="19.563" fill="#EC008C"/>
 <circle cx="23.563" r=".45" cy="19.563" fill="#EC008C"/>
 <circle cx="26.063" r=".45" cy="19.563" fill="#EC008C"/>
 <circle cx="28.75" r=".45" cy="19.563" fill="#EC008C"/>
 <circle cx="31.375" r=".45" cy="19.563" fill="#EC008C"/>
 <circle cx="33.938" r=".45" cy="19.563" fill="#EC008C"/>
 <circle cx="36.625" r=".45" cy="19.563" fill="#EC008C"/>
 <circle cx="39.188" r=".45" cy="19.563" fill="#EC008C"/>
 <circle cx="41.813" r=".45" cy="19.563" fill="#EC008C"/>
 <circle cx="44.438" r=".45" cy="19.563" fill="#EC008C"/>
 <circle cx="47.063" r=".45" cy="19.563" fill="#EC008C"/>
 <path fill="#EC008C" d="M49.7 19.1c-.26 0-.46.2-.46.46s.2.45.45.45"/>
 <circle cx="48.438" r=".45" cy="20.813" fill="#EC008C"/>
 <circle cx="45.813" r=".45" cy="20.813" fill="#EC008C"/>
 <circle cx="43.188" r=".45" cy="20.813" fill="#EC008C"/>
 <circle cx="40.563" r=".45" cy="20.813" fill="#EC008C"/>
 <circle cx="37.938" r=".45" cy="20.813" fill="#EC008C"/>
 <circle cx="35.25" r=".45" cy="20.813" fill="#EC008C"/>
 <circle cx="32.688" r=".45" cy="20.813" fill="#EC008C"/>
 <circle cx="30.063" r=".45" cy="20.813" fill="#EC008C"/>
 <circle cx="27.375" r=".45" cy="20.813" fill="#EC008C"/>
 <circle cx="24.813" r=".45" cy="20.813" fill="#EC008C"/>
 <circle cx="22.125" r=".45" cy="20.813" fill="#EC008C"/>
 <circle cx="19.563" r=".45" cy="20.813" fill="#EC008C"/>
 <circle cx="16.938" r=".45" cy="20.813" fill="#EC008C"/>
 <circle cx="14.375" r=".45" cy="20.813" fill="#EC008C"/>
 <circle cx="11.75" r=".45" cy="20.813" fill="#EC008C"/>
 <circle cx="9.125" r=".45" cy="20.813" fill="#EC008C"/>
 <circle cx="6.5" r=".45" cy="20.813" fill="#EC008C"/>
 <circle cx="3.875" r=".45" cy="20.813" fill="#EC008C"/>
 <circle cx="1.188" r=".45" cy="20.813" fill="#EC008C"/>
 <path fill="#EC008C" d="M0 22.64c.25 0 .45-.2.45-.45s-.2-.46-.45-.46"/>
 <circle cx="2.563" r=".45" cy="22.188" fill="#EC008C"/>
 <circle cx="5.188" r=".45" cy="22.188" fill="#EC008C"/>
 <circle cx="7.875" r=".45" cy="22.188" fill="#EC008C"/>
 <circle cx="10.438" r=".45" cy="22.188" fill="#EC008C"/>
 <circle cx="13" r=".45" cy="22.188" fill="#EC008C"/>
 <circle cx="15.625" r=".45" cy="22.188" fill="#EC008C"/>
 <circle cx="18.25" r=".45" cy="22.188" fill="#EC008C"/>
 <circle cx="20.938" r=".45" cy="22.188" fill="#EC008C"/>
 <circle cx="23.563" r=".45" cy="22.188" fill="#EC008C"/>
 <circle cx="26.063" r=".45" cy="22.188" fill="#EC008C"/>
 <circle cx="28.75" r=".45" cy="22.188" fill="#EC008C"/>
 <circle cx="31.375" r=".45" cy="22.188" fill="#EC008C"/>
 <circle cx="33.938" r=".45" cy="22.188" fill="#EC008C"/>
 <circle cx="36.625" r=".45" cy="22.188" fill="#EC008C"/>
 <circle cx="39.188" r=".45" cy="22.188" fill="#EC008C"/>
 <circle cx="41.813" r=".45" cy="22.188" fill="#EC008C"/>
 <circle cx="44.438" r=".45" cy="22.188" fill="#EC008C"/>
 <circle cx="47.063" r=".45" cy="22.188" fill="#EC008C"/>
 <path fill="#EC008C" d="M49.7 21.74c-.26 0-.46.2-.46.45s.2.44.45.44"/>
 <circle cx="48.438" r=".45" cy="23.438" fill="#EC008C"/>
 <circle cx="45.813" r=".45" cy="23.438" fill="#EC008C"/>
 <circle cx="43.188" r=".45" cy="23.438" fill="#EC008C"/>
 <circle cx="40.563" r=".45" cy="23.438" fill="#EC008C"/>
 <circle cx="37.938" r=".45" cy="23.438" fill="#EC008C"/>
 <circle cx="35.25" r=".45" cy="23.438" fill="#EC008C"/>
 <circle cx="32.688" r=".45" cy="23.438" fill="#EC008C"/>
 <circle cx="30.063" r=".45" cy="23.438" fill="#EC008C"/>
 <circle cx="27.375" r=".45" cy="23.438" fill="#EC008C"/>
 <circle cx="24.813" r=".45" cy="23.438" fill="#EC008C"/>
 <circle cx="22.125" r=".45" cy="23.438" fill="#EC008C"/>
 <circle cx="19.563" r=".45" cy="23.438" fill="#EC008C"/>
 <circle cx="16.938" r=".45" cy="23.438" fill="#EC008C"/>
 <circle cx="14.375" r=".45" cy="23.438" fill="#EC008C"/>
 <circle cx="11.75" r=".45" cy="23.438" fill="#EC008C"/>
 <circle cx="9.125" r=".45" cy="23.438" fill="#EC008C"/>
 <circle cx="6.5" r=".45" cy="23.438" fill="#EC008C"/>
 <circle cx="3.875" r=".45" cy="23.438" fill="#EC008C"/>
 <circle cx="1.188" r=".45" cy="23.438" fill="#EC008C"/>
 <path fill="#EC008C" d="M0 25.2c.25 0 .45-.2.45-.45s-.2-.45-.45-.45"/>
 <circle cx="2.563" r=".45" cy="24.75" fill="#EC008C"/>
 <circle cx="5.188" r=".45" cy="24.75" fill="#EC008C"/>
 <circle cx="7.875" r=".45" cy="24.75" fill="#EC008C"/>
 <circle cx="10.438" r=".45" cy="24.75" fill="#EC008C"/>
 <circle cx="13" r=".45" cy="24.75" fill="#EC008C"/>
 <circle cx="15.625" r=".45" cy="24.75" fill="#EC008C"/>
 <circle cx="18.25" r=".45" cy="24.75" fill="#EC008C"/>
 <circle cx="20.938" r=".45" cy="24.75" fill="#EC008C"/>
 <circle cx="23.563" r=".45" cy="24.75" fill="#EC008C"/>
 <circle cx="26.063" r=".45" cy="24.75" fill="#EC008C"/>
 <circle cx="28.75" r=".45" cy="24.75" fill="#EC008C"/>
 <circle cx="31.375" r=".45" cy="24.75" fill="#EC008C"/>
 <circle cx="33.938" r=".45" cy="24.75" fill="#EC008C"/>
 <circle cx="36.625" r=".45" cy="24.75" fill="#EC008C"/>
 <circle cx="39.188" r=".45" cy="24.75" fill="#EC008C"/>
 <circle cx="41.813" r=".45" cy="24.75" fill="#EC008C"/>
 <circle cx="44.438" r=".45" cy="24.75" fill="#EC008C"/>
 <circle cx="47.063" r=".45" cy="24.75" fill="#EC008C"/>
 <path fill="#EC008C" d="M49.7 24.3c-.26 0-.46.2-.46.45s.2.45.45.45"/>
 <circle cx="48.438" r=".45" cy="26" fill="#EC008C"/>
 <circle cx="45.813" r=".45" cy="26" fill="#EC008C"/>
 <circle cx="43.188" r=".45" cy="26" fill="#EC008C"/>
 <circle cx="40.563" r=".45" cy="26" fill="#EC008C"/>
 <circle cx="37.938" r=".45" cy="26" fill="#EC008C"/>
 <circle cx="35.25" r=".45" cy="26" fill="#EC008C"/>
 <circle cx="32.688" r=".45" cy="26" fill="#EC008C"/>
 <circle cx="30.063" r=".45" cy="26" fill="#EC008C"/>
 <circle cx="27.375" r=".45" cy="26" fill="#EC008C"/>
 <circle cx="24.813" r=".45" cy="26" fill="#EC008C"/>
 <circle cx="22.125" r=".45" cy="26" fill="#EC008C"/>
 <circle cx="19.563" r=".45" cy="26" fill="#EC008C"/>
 <circle cx="16.938" r=".45" cy="26" fill="#EC008C"/>
 <circle cx="14.375" r=".45" cy="26" fill="#EC008C"/>
 <circle cx="11.75" r=".45" cy="26" fill="#EC008C"/>
 <circle cx="9.125" r=".45" cy="26" fill="#EC008C"/>
 <circle cx="6.5" r=".45" cy="26" fill="#EC008C"/>
 <circle cx="3.875" r=".45" cy="26" fill="#EC008C"/>
 <circle cx="1.188" r=".45" cy="26" fill="#EC008C"/>
 <path fill="#EC008C" d="M0 27.83c.25 0 .45-.2.45-.45s-.2-.46-.45-.46"/>
 <circle cx="2.563" r=".45" cy="27.375" fill="#EC008C"/>
 <circle cx="5.188" r=".45" cy="27.375" fill="#EC008C"/>
 <circle cx="7.875" r=".45" cy="27.375" fill="#EC008C"/>
 <circle cx="10.438" r=".45" cy="27.375" fill="#EC008C"/>
 <circle cx="13" r=".45" cy="27.375" fill="#EC008C"/>
 <circle cx="15.625" r=".45" cy="27.375" fill="#EC008C"/>
 <circle cx="18.25" r=".45" cy="27.375" fill="#EC008C"/>
 <circle cx="20.938" r=".45" cy="27.375" fill="#EC008C"/>
 <circle cx="23.563" r=".45" cy="27.375" fill="#EC008C"/>
 <circle cx="26.063" r=".45" cy="27.375" fill="#EC008C"/>
 <circle cx="28.75" r=".45" cy="27.375" fill="#EC008C"/>
 <circle cx="31.375" r=".45" cy="27.375" fill="#EC008C"/>
 <circle cx="33.938" r=".45" cy="27.375" fill="#EC008C"/>
 <circle cx="36.625" r=".45" cy="27.375" fill="#EC008C"/>
 <circle cx="39.188" r=".45" cy="27.375" fill="#EC008C"/>
 <circle cx="41.813" r=".45" cy="27.375" fill="#EC008C"/>
 <circle cx="44.438" r=".45" cy="27.375" fill="#EC008C"/>
 <circle cx="47.063" r=".45" cy="27.375" fill="#EC008C"/>
 <path fill="#EC008C" d="M49.7 26.93c-.26 0-.46.2-.46.45s.2.45.45.45"/>
 <circle cx="48.438" r=".45" cy="28.625" fill="#EC008C"/>
 <circle cx="45.813" r=".45" cy="28.625" fill="#EC008C"/>
 <circle cx="43.188" r=".45" cy="28.625" fill="#EC008C"/>
 <circle cx="40.563" r=".45" cy="28.625" fill="#EC008C"/>
 <circle cx="37.938" r=".45" cy="28.625" fill="#EC008C"/>
 <circle cx="35.25" r=".45" cy="28.625" fill="#EC008C"/>
 <circle cx="32.688" r=".45" cy="28.625" fill="#EC008C"/>
 <circle cx="30.063" r=".45" cy="28.625" fill="#EC008C"/>
 <circle cx="27.375" r=".45" cy="28.625" fill="#EC008C"/>
 <circle cx="24.813" r=".45" cy="28.625" fill="#EC008C"/>
 <circle cx="22.125" r=".45" cy="28.625" fill="#EC008C"/>
 <circle cx="19.563" r=".45" cy="28.625" fill="#EC008C"/>
 <circle cx="16.938" r=".45" cy="28.625" fill="#EC008C"/>
 <circle cx="14.375" r=".45" cy="28.625" fill="#EC008C"/>
 <circle cx="11.75" r=".45" cy="28.625" fill="#EC008C"/>
 <circle cx="9.125" r=".45" cy="28.625" fill="#EC008C"/>
 <circle cx="6.5" r=".45" cy="28.625" fill="#EC008C"/>
 <circle cx="3.875" r=".45" cy="28.625" fill="#EC008C"/>
 <circle cx="1.188" r=".45" cy="28.625" fill="#EC008C"/>
 <path fill="#EC008C" d="M0 30.45c.25 0 .45-.2.45-.45s-.2-.45-.45-.45"/>
 <circle cx="2.563" r=".45" cy="30" fill="#EC008C"/>
 <circle cx="5.188" r=".45" cy="30" fill="#EC008C"/>
 <circle cx="7.875" r=".45" cy="30" fill="#EC008C"/>
 <circle cx="10.438" r=".45" cy="30" fill="#EC008C"/>
 <circle cx="13" r=".45" cy="30" fill="#EC008C"/>
 <circle cx="15.625" r=".45" cy="30" fill="#EC008C"/>
 <circle cx="18.25" r=".45" cy="30" fill="#EC008C"/>
 <circle cx="20.938" r=".45" cy="30" fill="#EC008C"/>
 <circle cx="23.563" r=".45" cy="30" fill="#EC008C"/>
 <circle cx="26.063" r=".45" cy="30" fill="#EC008C"/>
 <circle cx="28.75" r=".45" cy="30" fill="#EC008C"/>
 <circle cx="31.375" r=".45" cy="30" fill="#EC008C"/>
 <circle cx="33.938" r=".45" cy="30" fill="#EC008C"/>
 <circle cx="36.625" r=".45" cy="30" fill="#EC008C"/>
 <circle cx="39.188" r=".45" cy="30" fill="#EC008C"/>
 <circle cx="41.813" r=".45" cy="30" fill="#EC008C"/>
 <circle cx="44.438" r=".45" cy="30" fill="#EC008C"/>
 <circle cx="47.063" r=".45" cy="30" fill="#EC008C"/>
 <path fill="#EC008C" d="M49.7 29.55c-.26 0-.46.2-.46.45s.2.45.45.45"/>
 <circle cx="48.438" r=".45" cy="31.25" fill="#EC008C"/>
 <circle cx="45.813" r=".45" cy="31.25" fill="#EC008C"/>
 <circle cx="43.188" r=".45" cy="31.25" fill="#EC008C"/>
 <circle cx="40.563" r=".45" cy="31.25" fill="#EC008C"/>
 <circle cx="37.938" r=".45" cy="31.25" fill="#EC008C"/>
 <circle cx="35.25" r=".45" cy="31.25" fill="#EC008C"/>
 <circle cx="32.688" r=".45" cy="31.25" fill="#EC008C"/>
 <circle cx="30.063" r=".45" cy="31.25" fill="#EC008C"/>
 <circle cx="27.375" r=".45" cy="31.25" fill="#EC008C"/>
 <circle cx="24.813" r=".45" cy="31.25" fill="#EC008C"/>
 <circle cx="22.125" r=".45" cy="31.25" fill="#EC008C"/>
 <circle cx="19.563" r=".45" cy="31.25" fill="#EC008C"/>
 <circle cx="16.938" r=".45" cy="31.25" fill="#EC008C"/>
 <circle cx="14.375" r=".45" cy="31.25" fill="#EC008C"/>
 <circle cx="11.75" r=".45" cy="31.25" fill="#EC008C"/>
 <circle cx="9.125" r=".45" cy="31.25" fill="#EC008C"/>
 <circle cx="6.5" r=".45" cy="31.25" fill="#EC008C"/>
 <circle cx="3.875" r=".45" cy="31.25" fill="#EC008C"/>
 <circle cx="1.188" r=".45" cy="31.25" fill="#EC008C"/>
 <path fill="#EC008C" d="M0 33.08c.25 0 .45-.2.45-.45s-.2-.46-.45-.46"/>
 <circle cx="2.563" r=".45" cy="32.625" fill="#EC008C"/>
 <circle cx="5.188" r=".45" cy="32.625" fill="#EC008C"/>
 <circle cx="7.875" r=".45" cy="32.625" fill="#EC008C"/>
 <circle cx="10.438" r=".45" cy="32.625" fill="#EC008C"/>
 <circle cx="13" r=".45" cy="32.625" fill="#EC008C"/>
 <circle cx="15.625" r=".45" cy="32.625" fill="#EC008C"/>
 <circle cx="18.25" r=".45" cy="32.625" fill="#EC008C"/>
 <circle cx="20.938" r=".45" cy="32.625" fill="#EC008C"/>
 <circle cx="23.563" r=".45" cy="32.625" fill="#EC008C"/>
 <circle cx="26.063" r=".45" cy="32.625" fill="#EC008C"/>
 <circle cx="28.75" r=".45" cy="32.625" fill="#EC008C"/>
 <circle cx="31.375" r=".45" cy="32.625" fill="#EC008C"/>
 <circle cx="33.938" r=".45" cy="32.625" fill="#EC008C"/>
 <circle cx="36.625" r=".45" cy="32.625" fill="#EC008C"/>
 <circle cx="39.188" r=".45" cy="32.625" fill="#EC008C"/>
 <circle cx="41.813" r=".45" cy="32.625" fill="#EC008C"/>
 <circle cx="44.438" r=".45" cy="32.625" fill="#EC008C"/>
 <circle cx="47.063" r=".45" cy="32.625" fill="#EC008C"/>
 <path fill="#EC008C" d="M49.7 32.17c-.26 0-.46.2-.46.46s.2.45.45.45"/>
 <circle cx="48.438" r=".45" cy="33.875" fill="#EC008C"/>
 <circle cx="45.813" r=".45" cy="33.875" fill="#EC008C"/>
 <circle cx="43.188" r=".45" cy="33.875" fill="#EC008C"/>
 <circle cx="40.563" r=".45" cy="33.875" fill="#EC008C"/>
 <circle cx="37.938" r=".45" cy="33.875" fill="#EC008C"/>
 <circle cx="35.25" r=".45" cy="33.875" fill="#EC008C"/>
 <circle cx="32.688" r=".45" cy="33.875" fill="#EC008C"/>
 <circle cx="30.063" r=".45" cy="33.875" fill="#EC008C"/>
 <circle cx="27.375" r=".45" cy="33.875" fill="#EC008C"/>
 <circle cx="24.813" r=".45" cy="33.875" fill="#EC008C"/>
 <circle cx="22.125" r=".45" cy="33.875" fill="#EC008C"/>
 <circle cx="19.563" r=".45" cy="33.875" fill="#EC008C"/>
 <circle cx="16.938" r=".45" cy="33.875" fill="#EC008C"/>
 <circle cx="14.375" r=".45" cy="33.875" fill="#EC008C"/>
 <circle cx="11.75" r=".45" cy="33.875" fill="#EC008C"/>
 <circle cx="9.125" r=".45" cy="33.875" fill="#EC008C"/>
 <circle cx="6.5" r=".45" cy="33.875" fill="#EC008C"/>
 <circle cx="3.875" r=".45" cy="33.875" fill="#EC008C"/>
 <circle cx="1.188" r=".45" cy="33.875" fill="#EC008C"/>
 <path fill="#EC008C" d="M0 35.58c.25 0 .45-.2.45-.45s-.2-.46-.45-.46"/>
 <circle cx="2.563" r=".45" cy="35.125" fill="#EC008C"/>
 <circle cx="5.188" r=".45" cy="35.125" fill="#EC008C"/>
 <circle cx="7.875" r=".45" cy="35.125" fill="#EC008C"/>
 <circle cx="10.438" r=".45" cy="35.125" fill="#EC008C"/>
 <circle cx="13" r=".45" cy="35.125" fill="#EC008C"/>
 <circle cx="15.625" r=".45" cy="35.125" fill="#EC008C"/>
 <circle cx="18.25" r=".45" cy="35.125" fill="#EC008C"/>
 <circle cx="20.938" r=".45" cy="35.125" fill="#EC008C"/>
 <circle cx="23.563" r=".45" cy="35.125" fill="#EC008C"/>
 <circle cx="26.063" r=".45" cy="35.125" fill="#EC008C"/>
 <circle cx="28.75" r=".45" cy="35.125" fill="#EC008C"/>
 <circle cx="31.375" r=".45" cy="35.125" fill="#EC008C"/>
 <circle cx="33.938" r=".45" cy="35.125" fill="#EC008C"/>
 <circle cx="36.625" r=".45" cy="35.125" fill="#EC008C"/>
 <circle cx="39.188" r=".45" cy="35.125" fill="#EC008C"/>
 <circle cx="41.813" r=".45" cy="35.125" fill="#EC008C"/>
 <circle cx="44.438" r=".45" cy="35.125" fill="#EC008C"/>
 <circle cx="47.063" r=".45" cy="35.125" fill="#EC008C"/>
 <path fill="#EC008C" d="M49.7 34.67c-.26 0-.46.2-.46.46s.2.45.45.45"/>
 <circle cx="48.438" r=".45" cy="36.375" fill="#EC008C"/>
 <circle cx="45.813" r=".45" cy="36.375" fill="#EC008C"/>
 <circle cx="43.188" r=".45" cy="36.375" fill="#EC008C"/>
 <circle cx="40.563" r=".45" cy="36.375" fill="#EC008C"/>
 <circle cx="37.938" r=".45" cy="36.375" fill="#EC008C"/>
 <circle cx="35.25" r=".45" cy="36.375" fill="#EC008C"/>
 <circle cx="32.688" r=".45" cy="36.375" fill="#EC008C"/>
 <circle cx="30.063" r=".45" cy="36.375" fill="#EC008C"/>
 <circle cx="27.375" r=".45" cy="36.375" fill="#EC008C"/>
 <circle cx="24.813" r=".45" cy="36.375" fill="#EC008C"/>
 <circle cx="22.125" r=".45" cy="36.375" fill="#EC008C"/>
 <circle cx="19.563" r=".45" cy="36.375" fill="#EC008C"/>
 <circle cx="16.938" r=".45" cy="36.375" fill="#EC008C"/>
 <circle cx="14.375" r=".45" cy="36.375" fill="#EC008C"/>
 <circle cx="11.75" r=".45" cy="36.375" fill="#EC008C"/>
 <circle cx="9.125" r=".45" cy="36.375" fill="#EC008C"/>
 <circle cx="6.5" r=".45" cy="36.375" fill="#EC008C"/>
 <circle cx="3.875" r=".45" cy="36.375" fill="#EC008C"/>
 <circle cx="1.188" r=".45" cy="36.375" fill="#EC008C"/>
 <path fill="#EC008C" d="M0 38.26c.25 0 .45-.2.45-.45s-.2-.44-.45-.44"/>
 <circle cx="2.563" r=".45" cy="37.813" fill="#EC008C"/>
 <circle cx="5.188" r=".45" cy="37.813" fill="#EC008C"/>
 <circle cx="7.875" r=".45" cy="37.813" fill="#EC008C"/>
 <circle cx="10.438" r=".45" cy="37.813" fill="#EC008C"/>
 <circle cx="13" r=".45" cy="37.813" fill="#EC008C"/>
 <circle cx="15.625" r=".45" cy="37.813" fill="#EC008C"/>
 <circle cx="18.25" r=".45" cy="37.813" fill="#EC008C"/>
 <circle cx="20.938" r=".45" cy="37.813" fill="#EC008C"/>
 <circle cx="23.563" r=".45" cy="37.813" fill="#EC008C"/>
 <circle cx="26.063" r=".45" cy="37.813" fill="#EC008C"/>
 <circle cx="28.75" r=".45" cy="37.813" fill="#EC008C"/>
 <circle cx="31.375" r=".45" cy="37.813" fill="#EC008C"/>
 <circle cx="33.938" r=".45" cy="37.813" fill="#EC008C"/>
 <circle cx="36.625" r=".45" cy="37.813" fill="#EC008C"/>
 <circle cx="39.188" r=".45" cy="37.813" fill="#EC008C"/>
 <circle cx="41.813" r=".45" cy="37.813" fill="#EC008C"/>
 <circle cx="44.438" r=".45" cy="37.813" fill="#EC008C"/>
 <circle cx="47.063" r=".45" cy="37.813" fill="#EC008C"/>
 <path fill="#EC008C" d="M49.7 37.36c-.26 0-.46.2-.46.45s.2.46.45.46"/>
 <circle cx="48.438" r=".45" cy="39.063" fill="#EC008C"/>
 <circle cx="45.813" r=".45" cy="39.063" fill="#EC008C"/>
 <circle cx="43.188" r=".45" cy="39.063" fill="#EC008C"/>
 <circle cx="40.563" r=".45" cy="39.063" fill="#EC008C"/>
 <circle cx="37.938" r=".45" cy="39.063" fill="#EC008C"/>
 <circle cx="35.25" r=".45" cy="39.063" fill="#EC008C"/>
 <circle cx="32.688" r=".45" cy="39.063" fill="#EC008C"/>
 <circle cx="30.063" r=".45" cy="39.063" fill="#EC008C"/>
 <circle cx="27.375" r=".45" cy="39.063" fill="#EC008C"/>
 <circle cx="24.813" r=".45" cy="39.063" fill="#EC008C"/>
 <circle cx="22.125" r=".45" cy="39.063" fill="#EC008C"/>
 <circle cx="19.563" r=".45" cy="39.063" fill="#EC008C"/>
 <circle cx="16.938" r=".45" cy="39.063" fill="#EC008C"/>
 <circle cx="14.375" r=".45" cy="39.063" fill="#EC008C"/>
 <circle cx="11.75" r=".45" cy="39.063" fill="#EC008C"/>
 <circle cx="9.125" r=".45" cy="39.063" fill="#EC008C"/>
 <circle cx="6.5" r=".45" cy="39.063" fill="#EC008C"/>
 <circle cx="3.875" r=".45" cy="39.063" fill="#EC008C"/>
 <circle cx="1.188" r=".45" cy="39.063" fill="#EC008C"/>
 <path fill="#EC008C" d="M0 40.83c.25 0 .45-.2.45-.45s-.2-.46-.45-.46"/>
 <circle cx="2.563" r=".45" cy="40.375" fill="#EC008C"/>
 <circle cx="5.188" r=".45" cy="40.375" fill="#EC008C"/>
 <circle cx="7.875" r=".45" cy="40.375" fill="#EC008C"/>
 <circle cx="10.438" r=".45" cy="40.375" fill="#EC008C"/>
 <circle cx="13" r=".45" cy="40.375" fill="#EC008C"/>
 <circle cx="15.625" r=".45" cy="40.375" fill="#EC008C"/>
 <circle cx="18.25" r=".45" cy="40.375" fill="#EC008C"/>
 <circle cx="20.938" r=".45" cy="40.375" fill="#EC008C"/>
 <circle cx="23.563" r=".45" cy="40.375" fill="#EC008C"/>
 <circle cx="26.063" r=".45" cy="40.375" fill="#EC008C"/>
 <circle cx="28.75" r=".45" cy="40.375" fill="#EC008C"/>
 <circle cx="31.375" r=".45" cy="40.375" fill="#EC008C"/>
 <circle cx="33.938" r=".45" cy="40.375" fill="#EC008C"/>
 <circle cx="36.625" r=".45" cy="40.375" fill="#EC008C"/>
 <circle cx="39.188" r=".45" cy="40.375" fill="#EC008C"/>
 <circle cx="41.813" r=".45" cy="40.375" fill="#EC008C"/>
 <circle cx="44.438" r=".45" cy="40.375" fill="#EC008C"/>
 <circle cx="47.063" r=".45" cy="40.375" fill="#EC008C"/>
 <path fill="#EC008C" d="M49.7 39.92c-.26 0-.46.2-.46.46s.2.45.45.45"/>
 <circle cx="48.438" r=".45" cy="41.625" fill="#EC008C"/>
 <circle cx="45.813" r=".45" cy="41.625" fill="#EC008C"/>
 <circle cx="43.188" r=".45" cy="41.625" fill="#EC008C"/>
 <circle cx="40.563" r=".45" cy="41.625" fill="#EC008C"/>
 <circle cx="37.938" r=".45" cy="41.625" fill="#EC008C"/>
 <circle cx="35.25" r=".45" cy="41.625" fill="#EC008C"/>
 <circle cx="32.688" r=".45" cy="41.625" fill="#EC008C"/>
 <circle cx="30.063" r=".45" cy="41.625" fill="#EC008C"/>
 <circle cx="27.375" r=".45" cy="41.625" fill="#EC008C"/>
 <circle cx="24.813" r=".45" cy="41.625" fill="#EC008C"/>
 <circle cx="22.125" r=".45" cy="41.625" fill="#EC008C"/>
 <circle cx="19.563" r=".45" cy="41.625" fill="#EC008C"/>
 <circle cx="16.938" r=".45" cy="41.625" fill="#EC008C"/>
 <circle cx="14.375" r=".45" cy="41.625" fill="#EC008C"/>
 <circle cx="11.75" r=".45" cy="41.625" fill="#EC008C"/>
 <circle cx="9.125" r=".45" cy="41.625" fill="#EC008C"/>
 <circle cx="6.5" r=".45" cy="41.625" fill="#EC008C"/>
 <circle cx="3.875" r=".45" cy="41.625" fill="#EC008C"/>
 <circle cx="1.188" r=".45" cy="41.625" fill="#EC008C"/>
 <path fill="#EC008C" d="M0 43.45c.25 0 .45-.2.45-.45s-.2-.45-.45-.45"/>
 <circle cx="2.563" r=".45" cy="43" fill="#EC008C"/>
 <circle cx="5.188" r=".45" cy="43" fill="#EC008C"/>
 <circle cx="7.875" r=".45" cy="43" fill="#EC008C"/>
 <circle cx="10.438" r=".45" cy="43" fill="#EC008C"/>
 <circle cx="13" r=".45" cy="43" fill="#EC008C"/>
 <circle cx="15.625" r=".45" cy="43" fill="#EC008C"/>
 <circle cx="18.25" r=".45" cy="43" fill="#EC008C"/>
 <circle cx="20.938" r=".45" cy="43" fill="#EC008C"/>
 <circle cx="23.563" r=".45" cy="43" fill="#EC008C"/>
 <circle cx="26.063" r=".45" cy="43" fill="#EC008C"/>
 <circle cx="28.75" r=".45" cy="43" fill="#EC008C"/>
 <circle cx="31.375" r=".45" cy="43" fill="#EC008C"/>
 <circle cx="33.938" r=".45" cy="43" fill="#EC008C"/>
 <circle cx="36.625" r=".45" cy="43" fill="#EC008C"/>
 <circle cx="39.188" r=".45" cy="43" fill="#EC008C"/>
 <circle cx="41.813" r=".45" cy="43" fill="#EC008C"/>
 <circle cx="44.438" r=".45" cy="43" fill="#EC008C"/>
 <circle cx="47.063" r=".45" cy="43" fill="#EC008C"/>
 <path fill="#EC008C" d="M49.7 42.55c-.26 0-.46.2-.46.45s.2.45.45.45"/>
 <circle cx="48.438" r=".45" cy="44.25" fill="#EC008C"/>
 <circle cx="45.813" r=".45" cy="44.25" fill="#EC008C"/>
 <circle cx="43.188" r=".45" cy="44.25" fill="#EC008C"/>
 <circle cx="40.563" r=".45" cy="44.25" fill="#EC008C"/>
 <circle cx="37.938" r=".45" cy="44.25" fill="#EC008C"/>
 <circle cx="35.25" r=".45" cy="44.25" fill="#EC008C"/>
 <circle cx="32.688" r=".45" cy="44.25" fill="#EC008C"/>
 <circle cx="30.063" r=".45" cy="44.25" fill="#EC008C"/>
 <circle cx="27.375" r=".45" cy="44.25" fill="#EC008C"/>
 <circle cx="24.813" r=".45" cy="44.25" fill="#EC008C"/>
 <circle cx="22.125" r=".45" cy="44.25" fill="#EC008C"/>
 <circle cx="19.563" r=".45" cy="44.25" fill="#EC008C"/>
 <circle cx="16.938" r=".45" cy="44.25" fill="#EC008C"/>
 <circle cx="14.375" r=".45" cy="44.25" fill="#EC008C"/>
 <circle cx="11.75" r=".45" cy="44.25" fill="#EC008C"/>
 <circle cx="9.125" r=".45" cy="44.25" fill="#EC008C"/>
 <circle cx="6.5" r=".45" cy="44.25" fill="#EC008C"/>
 <circle cx="3.875" r=".45" cy="44.25" fill="#EC008C"/>
 <circle cx="1.188" r=".45" cy="44.25" fill="#EC008C"/>
 <path fill="#EC008C" d="M0 46.08c.25 0 .45-.2.45-.45s-.2-.46-.45-.46"/>
 <circle cx="2.563" r=".45" cy="45.625" fill="#EC008C"/>
 <circle cx="5.188" r=".45" cy="45.625" fill="#EC008C"/>
 <circle cx="7.875" r=".45" cy="45.625" fill="#EC008C"/>
 <circle cx="10.438" r=".45" cy="45.625" fill="#EC008C"/>
 <circle cx="13" r=".45" cy="45.625" fill="#EC008C"/>
 <circle cx="15.625" r=".45" cy="45.625" fill="#EC008C"/>
 <circle cx="18.25" r=".45" cy="45.625" fill="#EC008C"/>
 <circle cx="20.938" r=".45" cy="45.625" fill="#EC008C"/>
 <circle cx="23.563" r=".45" cy="45.625" fill="#EC008C"/>
 <circle cx="26.063" r=".45" cy="45.625" fill="#EC008C"/>
 <circle cx="28.75" r=".45" cy="45.625" fill="#EC008C"/>
 <circle cx="31.375" r=".45" cy="45.625" fill="#EC008C"/>
 <circle cx="33.938" r=".45" cy="45.625" fill="#EC008C"/>
 <circle cx="36.625" r=".45" cy="45.625" fill="#EC008C"/>
 <circle cx="39.188" r=".45" cy="45.625" fill="#EC008C"/>
 <circle cx="41.813" r=".45" cy="45.625" fill="#EC008C"/>
 <circle cx="44.438" r=".45" cy="45.625" fill="#EC008C"/>
 <circle cx="47.063" r=".45" cy="45.625" fill="#EC008C"/>
 <path fill="#EC008C" d="M49.7 45.17c-.26 0-.46.2-.46.46s.2.45.45.45"/>
 <circle cx="48.438" r=".45" cy="46.875" fill="#EC008C"/>
 <circle cx="45.813" r=".45" cy="46.875" fill="#EC008C"/>
 <circle cx="43.188" r=".45" cy="46.875" fill="#EC008C"/>
 <circle cx="40.563" r=".45" cy="46.875" fill="#EC008C"/>
 <circle cx="37.938" r=".45" cy="46.875" fill="#EC008C"/>
 <circle cx="35.25" r=".45" cy="46.875" fill="#EC008C"/>
 <circle cx="32.688" r=".45" cy="46.875" fill="#EC008C"/>
 <circle cx="30.063" r=".45" cy="46.875" fill="#EC008C"/>
 <circle cx="27.375" r=".45" cy="46.875" fill="#EC008C"/>
 <circle cx="24.813" r=".45" cy="46.875" fill="#EC008C"/>
 <circle cx="22.125" r=".45" cy="46.875" fill="#EC008C"/>
 <circle cx="19.563" r=".45" cy="46.875" fill="#EC008C"/>
 <circle cx="16.938" r=".45" cy="46.875" fill="#EC008C"/>
 <circle cx="14.375" r=".45" cy="46.875" fill="#EC008C"/>
 <circle cx="11.75" r=".45" cy="46.875" fill="#EC008C"/>
 <circle cx="9.125" r=".45" cy="46.875" fill="#EC008C"/>
 <circle cx="6.5" r=".45" cy="46.875" fill="#EC008C"/>
 <circle cx="3.875" r=".45" cy="46.875" fill="#EC008C"/>
 <circle cx="1.188" r=".45" cy="46.875" fill="#EC008C"/>
 <path fill="#EC008C" d="M0 48.7c.25 0 .45-.2.45-.45s-.2-.45-.45-.45"/>
 <circle cx="2.563" r=".45" cy="48.25" fill="#EC008C"/>
 <circle cx="5.188" r=".45" cy="48.25" fill="#EC008C"/>
 <circle cx="7.875" r=".45" cy="48.25" fill="#EC008C"/>
 <circle cx="10.438" r=".45" cy="48.25" fill="#EC008C"/>
 <circle cx="13" r=".45" cy="48.25" fill="#EC008C"/>
 <circle cx="15.625" r=".45" cy="48.25" fill="#EC008C"/>
 <circle cx="18.25" r=".45" cy="48.25" fill="#EC008C"/>
 <circle cx="20.938" r=".45" cy="48.25" fill="#EC008C"/>
 <circle cx="23.563" r=".45" cy="48.25" fill="#EC008C"/>
 <circle cx="26.063" r=".45" cy="48.25" fill="#EC008C"/>
 <circle cx="28.75" r=".45" cy="48.25" fill="#EC008C"/>
 <circle cx="31.375" r=".45" cy="48.25" fill="#EC008C"/>
 <circle cx="33.938" r=".45" cy="48.25" fill="#EC008C"/>
 <circle cx="36.625" r=".45" cy="48.25" fill="#EC008C"/>
 <circle cx="39.188" r=".45" cy="48.25" fill="#EC008C"/>
 <circle cx="41.813" r=".45" cy="48.25" fill="#EC008C"/>
 <circle cx="44.438" r=".45" cy="48.25" fill="#EC008C"/>
 <circle cx="47.063" r=".45" cy="48.25" fill="#EC008C"/>
 <path fill="#EC008C" d="M49.7 47.8c-.26 0-.46.2-.46.45s.2.45.45.45M48 49.5c0-.25.2-.45.44-.45s.44.2.45.45M45.36 49.5c0-.25.2-.45.45-.45s.46.2.46.45M42.74 49.5c0-.25.2-.45.45-.45s.43.2.44.45M40.1 49.5c.02-.25.22-.45.46-.45s.45.2.45.45M37.5 49.5c0-.25.2-.45.44-.45s.44.2.45.45M34.8 49.5c0-.25.2-.45.45-.45s.45.2.45.45M32.24 49.5c0-.25.2-.45.45-.45s.43.2.44.45M29.6 49.5c0-.25.2-.45.46-.45s.45.2.45.45M26.93 49.5c0-.25.2-.45.45-.45s.44.2.45.45M24.36 49.5c0-.25.2-.45.45-.45s.46.2.46.45M21.68 49.5c0-.25.2-.45.45-.45s.44.2.45.45M19.1 49.5c0-.25.2-.45.46-.45s.45.2.45.45M16.5 49.5c0-.25.2-.45.44-.45s.44.2.45.45M13.93 49.5c0-.25.2-.45.45-.45s.44.2.44.45M11.3 49.5c0-.25.2-.45.45-.45s.45.2.45.45M8.68 49.5c0-.25.2-.45.45-.45s.44.2.44.45M6.05 49.5c0-.25.2-.45.45-.45s.45.2.45.45M3.42 49.5c0-.25.2-.45.45-.45s.45.2.45.45M.74 49.5c0-.25.2-.45.45-.45s.43.2.44.45"/>
</svg>
