<?xml version="1.0"?>
<!-- Converted with SVG Converter - Version 0.9.6 (Compiled Thu Aug 31 10:01:05 2017) - Copyright (C) 2011 Nokia -->
<svg xmlns="http://www.w3.org/2000/svg" xmlns:xlink="http://www.w3.org/1999/xlink" width="49.676" baseProfile="tiny" height="49.502">
 <path fill="none" d="M0 0h49.68v49.5H0z"/>
 <path d="M48.03 0c0 .22.18.4.4.4s.4-.18.4-.4M45.4 0c0 .22.2.4.4.4s.4-.18.4-.4M42.78 0c0 .22.18.4.4.4s.4-.18.4-.4M40.16 0c0 .22.18.4.4.4s.4-.18.4-.4M37.53 0c0 .22.18.4.4.4s.4-.18.4-.4M34.84 0c0 .22.18.4.4.4s.4-.18.4-.4M32.28 0c0 .22.18.4.4.4s.4-.18.4-.4M29.66 0c0 .22.18.4.4.4s.4-.18.4-.4M26.97 0c0 .22.18.4.4.4s.4-.18.4-.4M24.4 0c0 .22.2.4.4.4s.4-.18.4-.4M21.72 0c0 .22.18.4.4.4s.4-.18.4-.4M19.16 0c0 .22.18.4.4.4s.4-.18.4-.4M16.53 0c0 .22.18.4.4.4s.4-.18.4-.4M13.97 0c0 .22.18.4.4.4s.4-.18.4-.4M11.35 0c0 .22.17.4.4.4s.4-.18.4-.4M8.72 0c0 .22.18.4.4.4s.4-.18.4-.4M6.1 0c0 .22.17.4.4.4s.4-.18.4-.4M3.47 0c0 .22.18.4.4.4s.4-.18.4-.4M.78 0c0 .22.18.4.4.4s.4-.18.4-.4M0 1.7c.22 0 .4-.17.4-.4S.22.93 0 .92"/>
 <circle cx="2.558" r=".4" cy="1.314"/>
 <circle cx="5.183" r=".4" cy="1.314"/>
 <circle cx="7.871" r=".4" cy="1.314"/>
 <circle cx="10.433" r=".4" cy="1.314"/>
 <circle cx="12.996" r=".4" cy="1.314"/>
 <circle cx="15.621" r=".4" cy="1.314"/>
 <circle cx="18.246" r=".4" cy="1.314"/>
 <circle cx="20.933" r=".4" cy="1.314"/>
 <circle cx="23.558" r=".4" cy="1.314"/>
 <circle cx="26.058" r=".4" cy="1.314"/>
 <circle cx="28.746" r=".4" cy="1.314"/>
 <circle cx="31.371" r=".4" cy="1.314"/>
 <circle cx="33.933" r=".4" cy="1.314"/>
 <circle cx="36.621" r=".4" cy="1.314"/>
 <circle cx="39.183" r=".4" cy="1.314"/>
 <circle cx="41.808" r=".4" cy="1.314"/>
 <circle cx="44.433" r=".4" cy="1.314"/>
 <circle cx="47.058" r=".4" cy="1.314"/>
 <path d="M49.68.92c-.22 0-.4.18-.4.4s.18.4.4.4"/>
 <circle cx="48.433" r=".4" cy="2.564"/>
 <circle cx="45.808" r=".4" cy="2.564"/>
 <circle cx="43.183" r=".4" cy="2.564"/>
 <circle cx="40.558" r=".4" cy="2.564"/>
 <circle cx="37.933" r=".4" cy="2.564"/>
 <circle cx="35.246" r=".4" cy="2.564"/>
 <circle cx="32.683" r=".4" cy="2.564"/>
 <circle cx="30.058" r=".4" cy="2.564"/>
 <circle cx="27.371" r=".4" cy="2.564"/>
 <circle cx="24.808" r=".4" cy="2.564"/>
 <circle cx="22.121" r=".4" cy="2.564"/>
 <circle cx="19.558" r=".4" cy="2.564"/>
 <circle cx="16.933" r=".4" cy="2.564"/>
 <circle cx="14.371" r=".4" cy="2.564"/>
 <circle cx="11.746" r=".4" cy="2.564"/>
 <circle cx="9.121" r=".4" cy="2.564"/>
 <circle cx="6.496" r=".4" cy="2.564"/>
 <circle cx="3.871" r=".4" cy="2.564"/>
 <circle cx="1.183" r=".4" cy="2.564"/>
 <path d="M0 4.28c.22 0 .4-.18.4-.4s-.18-.4-.4-.4"/>
 <circle cx="2.558" r=".4" cy="3.877"/>
 <circle cx="5.183" r=".4" cy="3.877"/>
 <circle cx="7.871" r=".4" cy="3.877"/>
 <circle cx="10.433" r=".4" cy="3.877"/>
 <circle cx="12.996" r=".4" cy="3.877"/>
 <circle cx="15.621" r=".4" cy="3.877"/>
 <circle cx="18.246" r=".4" cy="3.877"/>
 <circle cx="20.933" r=".4" cy="3.877"/>
 <circle cx="23.558" r=".4" cy="3.877"/>
 <circle cx="26.058" r=".4" cy="3.877"/>
 <circle cx="28.746" r=".4" cy="3.877"/>
 <circle cx="31.371" r=".4" cy="3.877"/>
 <circle cx="33.933" r=".4" cy="3.877"/>
 <circle cx="36.621" r=".4" cy="3.877"/>
 <circle cx="39.183" r=".4" cy="3.877"/>
 <circle cx="41.808" r=".4" cy="3.877"/>
 <circle cx="44.433" r=".4" cy="3.877"/>
 <circle cx="47.058" r=".4" cy="3.877"/>
 <path d="M49.68 3.48c-.22 0-.4.18-.4.4s.18.4.4.4"/>
 <circle cx="48.433" r=".4" cy="5.127"/>
 <circle cx="45.808" r=".4" cy="5.127"/>
 <circle cx="43.183" r=".4" cy="5.127"/>
 <circle cx="40.558" r=".4" cy="5.127"/>
 <circle cx="37.933" r=".4" cy="5.127"/>
 <circle cx="35.246" r=".4" cy="5.127"/>
 <circle cx="32.683" r=".4" cy="5.127"/>
 <circle cx="30.058" r=".4" cy="5.127"/>
 <circle cx="27.371" r=".4" cy="5.127"/>
 <circle cx="24.808" r=".4" cy="5.127"/>
 <circle cx="22.121" r=".4" cy="5.127"/>
 <circle cx="19.558" r=".4" cy="5.127"/>
 <circle cx="16.933" r=".4" cy="5.127"/>
 <circle cx="14.371" r=".4" cy="5.127"/>
 <circle cx="11.746" r=".4" cy="5.127"/>
 <circle cx="9.121" r=".4" cy="5.127"/>
 <circle cx="6.496" r=".4" cy="5.127"/>
 <circle cx="3.871" r=".4" cy="5.127"/>
 <circle cx="1.183" r=".4" cy="5.127"/>
 <path d="M0 6.9c.22 0 .4-.18.4-.4s-.18-.4-.4-.4"/>
 <circle cx="2.558" r=".4" cy="6.502"/>
 <circle cx="5.183" r=".4" cy="6.502"/>
 <circle cx="7.871" r=".4" cy="6.502"/>
 <circle cx="10.433" r=".4" cy="6.502"/>
 <circle cx="12.996" r=".4" cy="6.502"/>
 <circle cx="15.621" r=".4" cy="6.502"/>
 <circle cx="18.246" r=".4" cy="6.502"/>
 <circle cx="20.933" r=".4" cy="6.502"/>
 <circle cx="23.558" r=".4" cy="6.502"/>
 <circle cx="26.058" r=".4" cy="6.502"/>
 <circle cx="28.746" r=".4" cy="6.502"/>
 <circle cx="31.371" r=".4" cy="6.502"/>
 <circle cx="33.933" r=".4" cy="6.502"/>
 <circle cx="36.621" r=".4" cy="6.502"/>
 <circle cx="39.183" r=".4" cy="6.502"/>
 <circle cx="41.808" r=".4" cy="6.502"/>
 <circle cx="44.433" r=".4" cy="6.502"/>
 <circle cx="47.058" r=".4" cy="6.502"/>
 <path d="M49.68 6.1c-.22 0-.4.18-.4.4s.18.4.4.4"/>
 <circle cx="48.433" r=".4" cy="7.752"/>
 <circle cx="45.808" r=".4" cy="7.752"/>
 <circle cx="43.183" r=".4" cy="7.752"/>
 <circle cx="40.558" r=".4" cy="7.752"/>
 <circle cx="37.933" r=".4" cy="7.752"/>
 <circle cx="35.246" r=".4" cy="7.752"/>
 <circle cx="32.683" r=".4" cy="7.752"/>
 <circle cx="30.058" r=".4" cy="7.752"/>
 <circle cx="27.371" r=".4" cy="7.752"/>
 <circle cx="24.808" r=".4" cy="7.752"/>
 <circle cx="22.121" r=".4" cy="7.752"/>
 <circle cx="19.558" r=".4" cy="7.752"/>
 <circle cx="16.933" r=".4" cy="7.752"/>
 <circle cx="14.371" r=".4" cy="7.752"/>
 <circle cx="11.746" r=".4" cy="7.752"/>
 <circle cx="9.121" r=".4" cy="7.752"/>
 <circle cx="6.496" r=".4" cy="7.752"/>
 <circle cx="3.871" r=".4" cy="7.752"/>
 <circle cx="1.183" r=".4" cy="7.752"/>
 <path d="M0 9.53c.22 0 .4-.18.4-.4s-.18-.4-.4-.4"/>
 <circle cx="2.558" r=".4" cy="9.127"/>
 <circle cx="5.183" r=".4" cy="9.127"/>
 <circle cx="7.871" r=".4" cy="9.127"/>
 <circle cx="10.433" r=".4" cy="9.127"/>
 <circle cx="12.996" r=".4" cy="9.127"/>
 <circle cx="15.621" r=".4" cy="9.127"/>
 <circle cx="18.246" r=".4" cy="9.127"/>
 <circle cx="20.933" r=".4" cy="9.127"/>
 <circle cx="23.558" r=".4" cy="9.127"/>
 <circle cx="26.058" r=".4" cy="9.127"/>
 <circle cx="28.746" r=".4" cy="9.127"/>
 <circle cx="31.371" r=".4" cy="9.127"/>
 <circle cx="33.933" r=".4" cy="9.127"/>
 <circle cx="36.621" r=".4" cy="9.127"/>
 <circle cx="39.183" r=".4" cy="9.127"/>
 <circle cx="41.808" r=".4" cy="9.127"/>
 <circle cx="44.433" r=".4" cy="9.127"/>
 <circle cx="47.058" r=".4" cy="9.127"/>
 <path d="M49.68 8.73c-.22 0-.4.18-.4.4s.18.4.4.4"/>
 <circle cx="48.433" r=".4" cy="10.377"/>
 <circle cx="45.808" r=".4" cy="10.377"/>
 <circle cx="43.183" r=".4" cy="10.377"/>
 <circle cx="40.558" r=".4" cy="10.377"/>
 <circle cx="37.933" r=".4" cy="10.377"/>
 <circle cx="35.246" r=".4" cy="10.377"/>
 <circle cx="32.683" r=".4" cy="10.377"/>
 <circle cx="30.058" r=".4" cy="10.377"/>
 <circle cx="27.371" r=".4" cy="10.377"/>
 <circle cx="24.808" r=".4" cy="10.377"/>
 <circle cx="22.121" r=".4" cy="10.377"/>
 <circle cx="19.558" r=".4" cy="10.377"/>
 <circle cx="16.933" r=".4" cy="10.377"/>
 <circle cx="14.371" r=".4" cy="10.377"/>
 <circle cx="11.746" r=".4" cy="10.377"/>
 <circle cx="9.121" r=".4" cy="10.377"/>
 <circle cx="6.496" r=".4" cy="10.377"/>
 <circle cx="3.871" r=".4" cy="10.377"/>
 <circle cx="1.183" r=".4" cy="10.377"/>
 <path d="M0 12.15c.22 0 .4-.18.4-.4s-.18-.4-.4-.4"/>
 <circle cx="2.558" r=".4" cy="11.752"/>
 <circle cx="5.183" r=".4" cy="11.752"/>
 <circle cx="7.871" r=".4" cy="11.752"/>
 <circle cx="10.433" r=".4" cy="11.752"/>
 <circle cx="12.996" r=".4" cy="11.752"/>
 <circle cx="15.621" r=".4" cy="11.752"/>
 <circle cx="18.246" r=".4" cy="11.752"/>
 <circle cx="20.933" r=".4" cy="11.752"/>
 <circle cx="23.558" r=".4" cy="11.752"/>
 <circle cx="26.058" r=".4" cy="11.752"/>
 <circle cx="28.746" r=".4" cy="11.752"/>
 <circle cx="31.371" r=".4" cy="11.752"/>
 <circle cx="33.933" r=".4" cy="11.752"/>
 <circle cx="36.621" r=".4" cy="11.752"/>
 <circle cx="39.183" r=".4" cy="11.752"/>
 <circle cx="41.808" r=".4" cy="11.752"/>
 <circle cx="44.433" r=".4" cy="11.752"/>
 <circle cx="47.058" r=".4" cy="11.752"/>
 <path d="M49.68 11.35c-.22 0-.4.18-.4.4s.18.4.4.4"/>
 <circle cx="48.433" r=".4" cy="13.002"/>
 <circle cx="45.808" r=".4" cy="13.002"/>
 <circle cx="43.183" r=".4" cy="13.002"/>
 <circle cx="40.558" r=".4" cy="13.002"/>
 <circle cx="37.933" r=".4" cy="13.002"/>
 <circle cx="35.246" r=".4" cy="13.002"/>
 <circle cx="32.683" r=".4" cy="13.002"/>
 <circle cx="30.058" r=".4" cy="13.002"/>
 <circle cx="27.371" r=".4" cy="13.002"/>
 <circle cx="24.808" r=".4" cy="13.002"/>
 <circle cx="22.121" r=".4" cy="13.002"/>
 <circle cx="19.558" r=".4" cy="13.002"/>
 <circle cx="16.933" r=".4" cy="13.002"/>
 <circle cx="14.371" r=".4" cy="13.002"/>
 <circle cx="11.746" r=".4" cy="13.002"/>
 <circle cx="9.121" r=".4" cy="13.002"/>
 <circle cx="6.496" r=".4" cy="13.002"/>
 <circle cx="3.871" r=".4" cy="13.002"/>
 <circle cx="1.183" r=".4" cy="13.002"/>
 <path d="M0 14.7c.22 0 .4-.17.4-.4s-.18-.38-.4-.4"/>
 <circle cx="2.558" r=".4" cy="14.314"/>
 <circle cx="5.183" r=".4" cy="14.314"/>
 <circle cx="7.871" r=".4" cy="14.314"/>
 <circle cx="10.433" r=".4" cy="14.314"/>
 <circle cx="12.996" r=".4" cy="14.314"/>
 <circle cx="15.621" r=".4" cy="14.314"/>
 <circle cx="18.246" r=".4" cy="14.314"/>
 <circle cx="20.933" r=".4" cy="14.314"/>
 <circle cx="23.558" r=".4" cy="14.314"/>
 <circle cx="26.058" r=".4" cy="14.314"/>
 <circle cx="28.746" r=".4" cy="14.314"/>
 <circle cx="31.371" r=".4" cy="14.314"/>
 <circle cx="33.933" r=".4" cy="14.314"/>
 <circle cx="36.621" r=".4" cy="14.314"/>
 <circle cx="39.183" r=".4" cy="14.314"/>
 <circle cx="41.808" r=".4" cy="14.314"/>
 <circle cx="44.433" r=".4" cy="14.314"/>
 <circle cx="47.058" r=".4" cy="14.314"/>
 <path d="M49.68 13.9c-.22.02-.4.2-.4.4s.18.4.4.4"/>
 <circle cx="48.433" r=".4" cy="15.564"/>
 <circle cx="45.808" r=".4" cy="15.564"/>
 <circle cx="43.183" r=".4" cy="15.564"/>
 <circle cx="40.558" r=".4" cy="15.564"/>
 <circle cx="37.933" r=".4" cy="15.564"/>
 <circle cx="35.246" r=".4" cy="15.564"/>
 <circle cx="32.683" r=".4" cy="15.564"/>
 <circle cx="30.058" r=".4" cy="15.564"/>
 <circle cx="27.371" r=".4" cy="15.564"/>
 <circle cx="24.808" r=".4" cy="15.564"/>
 <circle cx="22.121" r=".4" cy="15.564"/>
 <circle cx="19.558" r=".4" cy="15.564"/>
 <circle cx="16.933" r=".4" cy="15.564"/>
 <circle cx="14.371" r=".4" cy="15.564"/>
 <circle cx="11.746" r=".4" cy="15.564"/>
 <circle cx="9.121" r=".4" cy="15.564"/>
 <circle cx="6.496" r=".4" cy="15.564"/>
 <circle cx="3.871" r=".4" cy="15.564"/>
 <circle cx="1.183" r=".4" cy="15.564"/>
 <path d="M0 17.34c.22 0 .4-.18.4-.4s-.18-.4-.4-.4"/>
 <circle cx="2.558" r=".4" cy="16.939"/>
 <circle cx="5.183" r=".4" cy="16.939"/>
 <circle cx="7.871" r=".4" cy="16.939"/>
 <circle cx="10.433" r=".4" cy="16.939"/>
 <circle cx="12.996" r=".4" cy="16.939"/>
 <circle cx="15.621" r=".4" cy="16.939"/>
 <circle cx="18.246" r=".4" cy="16.939"/>
 <circle cx="20.933" r=".4" cy="16.939"/>
 <circle cx="23.558" r=".4" cy="16.939"/>
 <circle cx="26.058" r=".4" cy="16.939"/>
 <circle cx="28.746" r=".4" cy="16.939"/>
 <circle cx="31.371" r=".4" cy="16.939"/>
 <circle cx="33.933" r=".4" cy="16.939"/>
 <circle cx="36.621" r=".4" cy="16.939"/>
 <circle cx="39.183" r=".4" cy="16.939"/>
 <circle cx="41.808" r=".4" cy="16.939"/>
 <circle cx="44.433" r=".4" cy="16.939"/>
 <circle cx="47.058" r=".4" cy="16.939"/>
 <path d="M49.68 16.54c-.22 0-.4.18-.4.4s.18.4.4.4"/>
 <circle cx="48.433" r=".4" cy="18.189"/>
 <circle cx="45.808" r=".4" cy="18.189"/>
 <circle cx="43.183" r=".4" cy="18.189"/>
 <circle cx="40.558" r=".4" cy="18.189"/>
 <circle cx="37.933" r=".4" cy="18.189"/>
 <circle cx="35.246" r=".4" cy="18.189"/>
 <circle cx="32.683" r=".4" cy="18.189"/>
 <circle cx="30.058" r=".4" cy="18.189"/>
 <circle cx="27.371" r=".4" cy="18.189"/>
 <circle cx="24.808" r=".4" cy="18.189"/>
 <circle cx="22.121" r=".4" cy="18.189"/>
 <circle cx="19.558" r=".4" cy="18.189"/>
 <circle cx="16.933" r=".4" cy="18.189"/>
 <circle cx="14.371" r=".4" cy="18.189"/>
 <circle cx="11.746" r=".4" cy="18.189"/>
 <circle cx="9.121" r=".4" cy="18.189"/>
 <circle cx="6.496" r=".4" cy="18.189"/>
 <circle cx="3.871" r=".4" cy="18.189"/>
 <circle cx="1.183" r=".4" cy="18.189"/>
 <path d="M0 19.96c.22 0 .4-.18.4-.4s-.18-.4-.4-.4"/>
 <circle cx="2.558" r=".4" cy="19.564"/>
 <circle cx="5.183" r=".4" cy="19.564"/>
 <circle cx="7.871" r=".4" cy="19.564"/>
 <circle cx="10.433" r=".4" cy="19.564"/>
 <circle cx="12.996" r=".4" cy="19.564"/>
 <circle cx="15.621" r=".4" cy="19.564"/>
 <circle cx="18.246" r=".4" cy="19.564"/>
 <circle cx="20.933" r=".4" cy="19.564"/>
 <circle cx="23.558" r=".4" cy="19.564"/>
 <circle cx="26.058" r=".4" cy="19.564"/>
 <circle cx="28.746" r=".4" cy="19.564"/>
 <circle cx="31.371" r=".4" cy="19.564"/>
 <circle cx="33.933" r=".4" cy="19.564"/>
 <circle cx="36.621" r=".4" cy="19.564"/>
 <circle cx="39.183" r=".4" cy="19.564"/>
 <circle cx="41.808" r=".4" cy="19.564"/>
 <circle cx="44.433" r=".4" cy="19.564"/>
 <circle cx="47.058" r=".4" cy="19.564"/>
 <path d="M49.68 19.16c-.22 0-.4.2-.4.4s.18.4.4.4"/>
 <circle cx="48.433" r=".4" cy="20.814"/>
 <circle cx="45.808" r=".4" cy="20.814"/>
 <circle cx="43.183" r=".4" cy="20.814"/>
 <circle cx="40.558" r=".4" cy="20.814"/>
 <circle cx="37.933" r=".4" cy="20.814"/>
 <circle cx="35.246" r=".4" cy="20.814"/>
 <circle cx="32.683" r=".4" cy="20.814"/>
 <circle cx="30.058" r=".4" cy="20.814"/>
 <circle cx="27.371" r=".4" cy="20.814"/>
 <circle cx="24.808" r=".4" cy="20.814"/>
 <circle cx="22.121" r=".4" cy="20.814"/>
 <circle cx="19.558" r=".4" cy="20.814"/>
 <circle cx="16.933" r=".4" cy="20.814"/>
 <circle cx="14.371" r=".4" cy="20.814"/>
 <circle cx="11.746" r=".4" cy="20.814"/>
 <circle cx="9.121" r=".4" cy="20.814"/>
 <circle cx="6.496" r=".4" cy="20.814"/>
 <circle cx="3.871" r=".4" cy="20.814"/>
 <circle cx="1.183" r=".4" cy="20.814"/>
 <path d="M0 22.6c.22 0 .4-.2.4-.4s-.18-.4-.4-.4"/>
 <circle cx="2.558" r=".4" cy="22.189"/>
 <circle cx="5.183" r=".4" cy="22.189"/>
 <circle cx="7.871" r=".4" cy="22.189"/>
 <circle cx="10.433" r=".4" cy="22.189"/>
 <circle cx="12.996" r=".4" cy="22.189"/>
 <circle cx="15.621" r=".4" cy="22.189"/>
 <circle cx="18.246" r=".4" cy="22.189"/>
 <circle cx="20.933" r=".4" cy="22.189"/>
 <circle cx="23.558" r=".4" cy="22.189"/>
 <circle cx="26.058" r=".4" cy="22.189"/>
 <circle cx="28.746" r=".4" cy="22.189"/>
 <circle cx="31.371" r=".4" cy="22.189"/>
 <circle cx="33.933" r=".4" cy="22.189"/>
 <circle cx="36.621" r=".4" cy="22.189"/>
 <circle cx="39.183" r=".4" cy="22.189"/>
 <circle cx="41.808" r=".4" cy="22.189"/>
 <circle cx="44.433" r=".4" cy="22.189"/>
 <circle cx="47.058" r=".4" cy="22.189"/>
 <path d="M49.68 21.8c-.22 0-.4.17-.4.4s.18.4.4.4"/>
 <circle cx="48.433" r=".4" cy="23.439"/>
 <circle cx="45.808" r=".4" cy="23.439"/>
 <circle cx="43.183" r=".4" cy="23.439"/>
 <circle cx="40.558" r=".4" cy="23.439"/>
 <circle cx="37.933" r=".4" cy="23.439"/>
 <circle cx="35.246" r=".4" cy="23.439"/>
 <circle cx="32.683" r=".4" cy="23.439"/>
 <circle cx="30.058" r=".4" cy="23.439"/>
 <circle cx="27.371" r=".4" cy="23.439"/>
 <circle cx="24.808" r=".4" cy="23.439"/>
 <circle cx="22.121" r=".4" cy="23.439"/>
 <circle cx="19.558" r=".4" cy="23.439"/>
 <circle cx="16.933" r=".4" cy="23.439"/>
 <circle cx="14.371" r=".4" cy="23.439"/>
 <circle cx="11.746" r=".4" cy="23.439"/>
 <circle cx="9.121" r=".4" cy="23.439"/>
 <circle cx="6.496" r=".4" cy="23.439"/>
 <circle cx="3.871" r=".4" cy="23.439"/>
 <circle cx="1.183" r=".4" cy="23.439"/>
 <path d="M0 25.15c.22 0 .4-.18.4-.4s-.18-.4-.4-.4"/>
 <circle cx="2.558" r=".4" cy="24.752"/>
 <circle cx="5.183" r=".4" cy="24.752"/>
 <circle cx="7.871" r=".4" cy="24.752"/>
 <circle cx="10.433" r=".4" cy="24.752"/>
 <circle cx="12.996" r=".4" cy="24.752"/>
 <circle cx="15.621" r=".4" cy="24.752"/>
 <circle cx="18.246" r=".4" cy="24.752"/>
 <circle cx="20.933" r=".4" cy="24.752"/>
 <circle cx="23.558" r=".4" cy="24.752"/>
 <circle cx="26.058" r=".4" cy="24.752"/>
 <circle cx="28.746" r=".4" cy="24.752"/>
 <circle cx="31.371" r=".4" cy="24.752"/>
 <circle cx="33.933" r=".4" cy="24.752"/>
 <circle cx="36.621" r=".4" cy="24.752"/>
 <circle cx="39.183" r=".4" cy="24.752"/>
 <circle cx="41.808" r=".4" cy="24.752"/>
 <circle cx="44.433" r=".4" cy="24.752"/>
 <circle cx="47.058" r=".4" cy="24.752"/>
 <path d="M49.68 24.35c-.22 0-.4.18-.4.4s.18.4.4.4"/>
 <circle cx="48.433" r=".4" cy="26.002"/>
 <circle cx="45.808" r=".4" cy="26.002"/>
 <circle cx="43.183" r=".4" cy="26.002"/>
 <circle cx="40.558" r=".4" cy="26.002"/>
 <circle cx="37.933" r=".4" cy="26.002"/>
 <circle cx="35.246" r=".4" cy="26.002"/>
 <circle cx="32.683" r=".4" cy="26.002"/>
 <circle cx="30.058" r=".4" cy="26.002"/>
 <circle cx="27.371" r=".4" cy="26.002"/>
 <circle cx="24.808" r=".4" cy="26.002"/>
 <circle cx="22.121" r=".4" cy="26.002"/>
 <circle cx="19.558" r=".4" cy="26.002"/>
 <circle cx="16.933" r=".4" cy="26.002"/>
 <circle cx="14.371" r=".4" cy="26.002"/>
 <circle cx="11.746" r=".4" cy="26.002"/>
 <circle cx="9.121" r=".4" cy="26.002"/>
 <circle cx="6.496" r=".4" cy="26.002"/>
 <circle cx="3.871" r=".4" cy="26.002"/>
 <circle cx="1.183" r=".4" cy="26.002"/>
 <path d="M0 27.78c.22 0 .4-.18.4-.4s-.18-.4-.4-.4"/>
 <circle cx="2.558" r=".4" cy="27.377"/>
 <circle cx="5.183" r=".4" cy="27.377"/>
 <circle cx="7.871" r=".4" cy="27.377"/>
 <circle cx="10.433" r=".4" cy="27.377"/>
 <circle cx="12.996" r=".4" cy="27.377"/>
 <circle cx="15.621" r=".4" cy="27.377"/>
 <circle cx="18.246" r=".4" cy="27.377"/>
 <circle cx="20.933" r=".4" cy="27.377"/>
 <circle cx="23.558" r=".4" cy="27.377"/>
 <circle cx="26.058" r=".4" cy="27.377"/>
 <circle cx="28.746" r=".4" cy="27.377"/>
 <circle cx="31.371" r=".4" cy="27.377"/>
 <circle cx="33.933" r=".4" cy="27.377"/>
 <circle cx="36.621" r=".4" cy="27.377"/>
 <circle cx="39.183" r=".4" cy="27.377"/>
 <circle cx="41.808" r=".4" cy="27.377"/>
 <circle cx="44.433" r=".4" cy="27.377"/>
 <circle cx="47.058" r=".4" cy="27.377"/>
 <path d="M49.68 26.98c-.22 0-.4.18-.4.4s.18.4.4.4"/>
 <circle cx="48.433" r=".4" cy="28.627"/>
 <circle cx="45.808" r=".4" cy="28.627"/>
 <circle cx="43.183" r=".4" cy="28.627"/>
 <circle cx="40.558" r=".4" cy="28.627"/>
 <circle cx="37.933" r=".4" cy="28.627"/>
 <circle cx="35.246" r=".4" cy="28.627"/>
 <circle cx="32.683" r=".4" cy="28.627"/>
 <circle cx="30.058" r=".4" cy="28.627"/>
 <circle cx="27.371" r=".4" cy="28.627"/>
 <circle cx="24.808" r=".4" cy="28.627"/>
 <circle cx="22.121" r=".4" cy="28.627"/>
 <circle cx="19.558" r=".4" cy="28.627"/>
 <circle cx="16.933" r=".4" cy="28.627"/>
 <circle cx="14.371" r=".4" cy="28.627"/>
 <circle cx="11.746" r=".4" cy="28.627"/>
 <circle cx="9.121" r=".4" cy="28.627"/>
 <circle cx="6.496" r=".4" cy="28.627"/>
 <circle cx="3.871" r=".4" cy="28.627"/>
 <circle cx="1.183" r=".4" cy="28.627"/>
 <path d="M0 30.4c.22 0 .4-.18.4-.4s-.18-.4-.4-.4"/>
 <circle cx="2.558" r=".4" cy="30.002"/>
 <circle cx="5.183" r=".4" cy="30.002"/>
 <circle cx="7.871" r=".4" cy="30.002"/>
 <circle cx="10.433" r=".4" cy="30.002"/>
 <circle cx="12.996" r=".4" cy="30.002"/>
 <circle cx="15.621" r=".4" cy="30.002"/>
 <circle cx="18.246" r=".4" cy="30.002"/>
 <circle cx="20.933" r=".4" cy="30.002"/>
 <circle cx="23.558" r=".4" cy="30.002"/>
 <circle cx="26.058" r=".4" cy="30.002"/>
 <circle cx="28.746" r=".4" cy="30.002"/>
 <circle cx="31.371" r=".4" cy="30.002"/>
 <circle cx="33.933" r=".4" cy="30.002"/>
 <circle cx="36.621" r=".4" cy="30.002"/>
 <circle cx="39.183" r=".4" cy="30.002"/>
 <circle cx="41.808" r=".4" cy="30.002"/>
 <circle cx="44.433" r=".4" cy="30.002"/>
 <circle cx="47.058" r=".4" cy="30.002"/>
 <path d="M49.68 29.6c-.22 0-.4.18-.4.4s.18.4.4.4"/>
 <circle cx="48.433" r=".4" cy="31.252"/>
 <circle cx="45.808" r=".4" cy="31.252"/>
 <circle cx="43.183" r=".4" cy="31.252"/>
 <circle cx="40.558" r=".4" cy="31.252"/>
 <circle cx="37.933" r=".4" cy="31.252"/>
 <circle cx="35.246" r=".4" cy="31.252"/>
 <circle cx="32.683" r=".4" cy="31.252"/>
 <circle cx="30.058" r=".4" cy="31.252"/>
 <circle cx="27.371" r=".4" cy="31.252"/>
 <circle cx="24.808" r=".4" cy="31.252"/>
 <circle cx="22.121" r=".4" cy="31.252"/>
 <circle cx="19.558" r=".4" cy="31.252"/>
 <circle cx="16.933" r=".4" cy="31.252"/>
 <circle cx="14.371" r=".4" cy="31.252"/>
 <circle cx="11.746" r=".4" cy="31.252"/>
 <circle cx="9.121" r=".4" cy="31.252"/>
 <circle cx="6.496" r=".4" cy="31.252"/>
 <circle cx="3.871" r=".4" cy="31.252"/>
 <circle cx="1.183" r=".4" cy="31.252"/>
 <path d="M0 33.03c.22 0 .4-.18.4-.4s-.18-.4-.4-.4"/>
 <circle cx="2.558" r=".4" cy="32.627"/>
 <circle cx="5.183" r=".4" cy="32.627"/>
 <circle cx="7.871" r=".4" cy="32.627"/>
 <circle cx="10.433" r=".4" cy="32.627"/>
 <circle cx="12.996" r=".4" cy="32.627"/>
 <circle cx="15.621" r=".4" cy="32.627"/>
 <circle cx="18.246" r=".4" cy="32.627"/>
 <circle cx="20.933" r=".4" cy="32.627"/>
 <circle cx="23.558" r=".4" cy="32.627"/>
 <circle cx="26.058" r=".4" cy="32.627"/>
 <circle cx="28.746" r=".4" cy="32.627"/>
 <circle cx="31.371" r=".4" cy="32.627"/>
 <circle cx="33.933" r=".4" cy="32.627"/>
 <circle cx="36.621" r=".4" cy="32.627"/>
 <circle cx="39.183" r=".4" cy="32.627"/>
 <circle cx="41.808" r=".4" cy="32.627"/>
 <circle cx="44.433" r=".4" cy="32.627"/>
 <circle cx="47.058" r=".4" cy="32.627"/>
 <path d="M49.68 32.23c-.22 0-.4.18-.4.4s.18.4.4.4"/>
 <circle cx="48.433" r=".4" cy="33.877"/>
 <circle cx="45.808" r=".4" cy="33.877"/>
 <circle cx="43.183" r=".4" cy="33.877"/>
 <circle cx="40.558" r=".4" cy="33.877"/>
 <circle cx="37.933" r=".4" cy="33.877"/>
 <circle cx="35.246" r=".4" cy="33.877"/>
 <circle cx="32.683" r=".4" cy="33.877"/>
 <circle cx="30.058" r=".4" cy="33.877"/>
 <circle cx="27.371" r=".4" cy="33.877"/>
 <circle cx="24.808" r=".4" cy="33.877"/>
 <circle cx="22.121" r=".4" cy="33.877"/>
 <circle cx="19.558" r=".4" cy="33.877"/>
 <circle cx="16.933" r=".4" cy="33.877"/>
 <circle cx="14.371" r=".4" cy="33.877"/>
 <circle cx="11.746" r=".4" cy="33.877"/>
 <circle cx="9.121" r=".4" cy="33.877"/>
 <circle cx="6.496" r=".4" cy="33.877"/>
 <circle cx="3.871" r=".4" cy="33.877"/>
 <circle cx="1.183" r=".4" cy="33.877"/>
 <path d="M0 35.53c.22 0 .4-.18.4-.4s-.18-.4-.4-.4"/>
 <circle cx="2.558" r=".4" cy="35.127"/>
 <circle cx="5.183" r=".4" cy="35.127"/>
 <circle cx="7.871" r=".4" cy="35.127"/>
 <circle cx="10.433" r=".4" cy="35.127"/>
 <circle cx="12.996" r=".4" cy="35.127"/>
 <circle cx="15.621" r=".4" cy="35.127"/>
 <circle cx="18.246" r=".4" cy="35.127"/>
 <circle cx="20.933" r=".4" cy="35.127"/>
 <circle cx="23.558" r=".4" cy="35.127"/>
 <circle cx="26.058" r=".4" cy="35.127"/>
 <circle cx="28.746" r=".4" cy="35.127"/>
 <circle cx="31.371" r=".4" cy="35.127"/>
 <circle cx="33.933" r=".4" cy="35.127"/>
 <circle cx="36.621" r=".4" cy="35.127"/>
 <circle cx="39.183" r=".4" cy="35.127"/>
 <circle cx="41.808" r=".4" cy="35.127"/>
 <circle cx="44.433" r=".4" cy="35.127"/>
 <circle cx="47.058" r=".4" cy="35.127"/>
 <path d="M49.68 34.73c-.22 0-.4.18-.4.4s.18.4.4.4"/>
 <circle cx="48.433" r=".4" cy="36.377"/>
 <circle cx="45.808" r=".4" cy="36.377"/>
 <circle cx="43.183" r=".4" cy="36.377"/>
 <circle cx="40.558" r=".4" cy="36.377"/>
 <circle cx="37.933" r=".4" cy="36.377"/>
 <circle cx="35.246" r=".4" cy="36.377"/>
 <circle cx="32.683" r=".4" cy="36.377"/>
 <circle cx="30.058" r=".4" cy="36.377"/>
 <circle cx="27.371" r=".4" cy="36.377"/>
 <circle cx="24.808" r=".4" cy="36.377"/>
 <circle cx="22.121" r=".4" cy="36.377"/>
 <circle cx="19.558" r=".4" cy="36.377"/>
 <circle cx="16.933" r=".4" cy="36.377"/>
 <circle cx="14.371" r=".4" cy="36.377"/>
 <circle cx="11.746" r=".4" cy="36.377"/>
 <circle cx="9.121" r=".4" cy="36.377"/>
 <circle cx="6.496" r=".4" cy="36.377"/>
 <circle cx="3.871" r=".4" cy="36.377"/>
 <circle cx="1.183" r=".4" cy="36.377"/>
 <path d="M0 38.2c.22 0 .4-.17.4-.4s-.18-.38-.4-.38"/>
 <circle cx="2.558" r=".4" cy="37.814"/>
 <circle cx="5.183" r=".4" cy="37.814"/>
 <circle cx="7.871" r=".4" cy="37.814"/>
 <circle cx="10.433" r=".4" cy="37.814"/>
 <circle cx="12.996" r=".4" cy="37.814"/>
 <circle cx="15.621" r=".4" cy="37.814"/>
 <circle cx="18.246" r=".4" cy="37.814"/>
 <circle cx="20.933" r=".4" cy="37.814"/>
 <circle cx="23.558" r=".4" cy="37.814"/>
 <circle cx="26.058" r=".4" cy="37.814"/>
 <circle cx="28.746" r=".4" cy="37.814"/>
 <circle cx="31.371" r=".4" cy="37.814"/>
 <circle cx="33.933" r=".4" cy="37.814"/>
 <circle cx="36.621" r=".4" cy="37.814"/>
 <circle cx="39.183" r=".4" cy="37.814"/>
 <circle cx="41.808" r=".4" cy="37.814"/>
 <circle cx="44.433" r=".4" cy="37.814"/>
 <circle cx="47.058" r=".4" cy="37.814"/>
 <path d="M49.68 37.41c-.22.02-.4.2-.4.42s.18.4.4.4"/>
 <circle cx="48.433" r=".4" cy="39.064"/>
 <circle cx="45.808" r=".4" cy="39.064"/>
 <circle cx="43.183" r=".4" cy="39.064"/>
 <circle cx="40.558" r=".4" cy="39.064"/>
 <circle cx="37.933" r=".4" cy="39.064"/>
 <circle cx="35.246" r=".4" cy="39.064"/>
 <circle cx="32.683" r=".4" cy="39.064"/>
 <circle cx="30.058" r=".4" cy="39.064"/>
 <circle cx="27.371" r=".4" cy="39.064"/>
 <circle cx="24.808" r=".4" cy="39.064"/>
 <circle cx="22.121" r=".4" cy="39.064"/>
 <circle cx="19.558" r=".4" cy="39.064"/>
 <circle cx="16.933" r=".4" cy="39.064"/>
 <circle cx="14.371" r=".4" cy="39.064"/>
 <circle cx="11.746" r=".4" cy="39.064"/>
 <circle cx="9.121" r=".4" cy="39.064"/>
 <circle cx="6.496" r=".4" cy="39.064"/>
 <circle cx="3.871" r=".4" cy="39.064"/>
 <circle cx="1.183" r=".4" cy="39.064"/>
 <path d="M0 40.78c.22 0 .4-.18.4-.4s-.18-.4-.4-.4"/>
 <circle cx="2.558" r=".4" cy="40.377"/>
 <circle cx="5.183" r=".4" cy="40.377"/>
 <circle cx="7.871" r=".4" cy="40.377"/>
 <circle cx="10.433" r=".4" cy="40.377"/>
 <circle cx="12.996" r=".4" cy="40.377"/>
 <circle cx="15.621" r=".4" cy="40.377"/>
 <circle cx="18.246" r=".4" cy="40.377"/>
 <circle cx="20.933" r=".4" cy="40.377"/>
 <circle cx="23.558" r=".4" cy="40.377"/>
 <circle cx="26.058" r=".4" cy="40.377"/>
 <circle cx="28.746" r=".4" cy="40.377"/>
 <circle cx="31.371" r=".4" cy="40.377"/>
 <circle cx="33.933" r=".4" cy="40.377"/>
 <circle cx="36.621" r=".4" cy="40.377"/>
 <circle cx="39.183" r=".4" cy="40.377"/>
 <circle cx="41.808" r=".4" cy="40.377"/>
 <circle cx="44.433" r=".4" cy="40.377"/>
 <circle cx="47.058" r=".4" cy="40.377"/>
 <path d="M49.68 39.98c-.22 0-.4.18-.4.4s.18.4.4.4"/>
 <circle cx="48.433" r=".4" cy="41.627"/>
 <circle cx="45.808" r=".4" cy="41.627"/>
 <circle cx="43.183" r=".4" cy="41.627"/>
 <circle cx="40.558" r=".4" cy="41.627"/>
 <circle cx="37.933" r=".4" cy="41.627"/>
 <circle cx="35.246" r=".4" cy="41.627"/>
 <circle cx="32.683" r=".4" cy="41.627"/>
 <circle cx="30.058" r=".4" cy="41.627"/>
 <circle cx="27.371" r=".4" cy="41.627"/>
 <circle cx="24.808" r=".4" cy="41.627"/>
 <circle cx="22.121" r=".4" cy="41.627"/>
 <circle cx="19.558" r=".4" cy="41.627"/>
 <circle cx="16.933" r=".4" cy="41.627"/>
 <circle cx="14.371" r=".4" cy="41.627"/>
 <circle cx="11.746" r=".4" cy="41.627"/>
 <circle cx="9.121" r=".4" cy="41.627"/>
 <circle cx="6.496" r=".4" cy="41.627"/>
 <circle cx="3.871" r=".4" cy="41.627"/>
 <circle cx="1.183" r=".4" cy="41.627"/>
 <path d="M0 43.4c.22 0 .4-.18.4-.4s-.18-.4-.4-.4"/>
 <circle cx="2.558" r=".4" cy="43.002"/>
 <circle cx="5.183" r=".4" cy="43.002"/>
 <circle cx="7.871" r=".4" cy="43.002"/>
 <circle cx="10.433" r=".4" cy="43.002"/>
 <circle cx="12.996" r=".4" cy="43.002"/>
 <circle cx="15.621" r=".4" cy="43.002"/>
 <circle cx="18.246" r=".4" cy="43.002"/>
 <circle cx="20.933" r=".4" cy="43.002"/>
 <circle cx="23.558" r=".4" cy="43.002"/>
 <circle cx="26.058" r=".4" cy="43.002"/>
 <circle cx="28.746" r=".4" cy="43.002"/>
 <circle cx="31.371" r=".4" cy="43.002"/>
 <circle cx="33.933" r=".4" cy="43.002"/>
 <circle cx="36.621" r=".4" cy="43.002"/>
 <circle cx="39.183" r=".4" cy="43.002"/>
 <circle cx="41.808" r=".4" cy="43.002"/>
 <circle cx="44.433" r=".4" cy="43.002"/>
 <circle cx="47.058" r=".4" cy="43.002"/>
 <path d="M49.68 42.6c-.22 0-.4.18-.4.4s.18.4.4.4"/>
 <circle cx="48.433" r=".4" cy="44.252"/>
 <circle cx="45.808" r=".4" cy="44.252"/>
 <circle cx="43.183" r=".4" cy="44.252"/>
 <circle cx="40.558" r=".4" cy="44.252"/>
 <circle cx="37.933" r=".4" cy="44.252"/>
 <circle cx="35.246" r=".4" cy="44.252"/>
 <circle cx="32.683" r=".4" cy="44.252"/>
 <circle cx="30.058" r=".4" cy="44.252"/>
 <circle cx="27.371" r=".4" cy="44.252"/>
 <circle cx="24.808" r=".4" cy="44.252"/>
 <circle cx="22.121" r=".4" cy="44.252"/>
 <circle cx="19.558" r=".4" cy="44.252"/>
 <circle cx="16.933" r=".4" cy="44.252"/>
 <circle cx="14.371" r=".4" cy="44.252"/>
 <circle cx="11.746" r=".4" cy="44.252"/>
 <circle cx="9.121" r=".4" cy="44.252"/>
 <circle cx="6.496" r=".4" cy="44.252"/>
 <circle cx="3.871" r=".4" cy="44.252"/>
 <circle cx="1.183" r=".4" cy="44.252"/>
 <path d="M0 46.03c.22 0 .4-.18.4-.4s-.18-.4-.4-.4"/>
 <circle cx="2.558" r=".4" cy="45.627"/>
 <circle cx="5.183" r=".4" cy="45.627"/>
 <circle cx="7.871" r=".4" cy="45.627"/>
 <circle cx="10.433" r=".4" cy="45.627"/>
 <circle cx="12.996" r=".4" cy="45.627"/>
 <circle cx="15.621" r=".4" cy="45.627"/>
 <circle cx="18.246" r=".4" cy="45.627"/>
 <circle cx="20.933" r=".4" cy="45.627"/>
 <circle cx="23.558" r=".4" cy="45.627"/>
 <circle cx="26.058" r=".4" cy="45.627"/>
 <circle cx="28.746" r=".4" cy="45.627"/>
 <circle cx="31.371" r=".4" cy="45.627"/>
 <circle cx="33.933" r=".4" cy="45.627"/>
 <circle cx="36.621" r=".4" cy="45.627"/>
 <circle cx="39.183" r=".4" cy="45.627"/>
 <circle cx="41.808" r=".4" cy="45.627"/>
 <circle cx="44.433" r=".4" cy="45.627"/>
 <circle cx="47.058" r=".4" cy="45.627"/>
 <path d="M49.68 45.23c-.22 0-.4.18-.4.4s.18.4.4.4"/>
 <circle cx="48.433" r=".4" cy="46.877"/>
 <circle cx="45.808" r=".4" cy="46.877"/>
 <circle cx="43.183" r=".4" cy="46.877"/>
 <circle cx="40.558" r=".4" cy="46.877"/>
 <circle cx="37.933" r=".4" cy="46.877"/>
 <circle cx="35.246" r=".4" cy="46.877"/>
 <circle cx="32.683" r=".4" cy="46.877"/>
 <circle cx="30.058" r=".4" cy="46.877"/>
 <circle cx="27.371" r=".4" cy="46.877"/>
 <circle cx="24.808" r=".4" cy="46.877"/>
 <circle cx="22.121" r=".4" cy="46.877"/>
 <circle cx="19.558" r=".4" cy="46.877"/>
 <circle cx="16.933" r=".4" cy="46.877"/>
 <circle cx="14.371" r=".4" cy="46.877"/>
 <circle cx="11.746" r=".4" cy="46.877"/>
 <circle cx="9.121" r=".4" cy="46.877"/>
 <circle cx="6.496" r=".4" cy="46.877"/>
 <circle cx="3.871" r=".4" cy="46.877"/>
 <circle cx="1.183" r=".4" cy="46.877"/>
 <path d="M0 48.65c.22 0 .4-.18.4-.4s-.18-.4-.4-.4"/>
 <circle cx="2.558" r=".4" cy="48.252"/>
 <circle cx="5.183" r=".4" cy="48.252"/>
 <circle cx="7.871" r=".4" cy="48.252"/>
 <circle cx="10.433" r=".4" cy="48.252"/>
 <circle cx="12.996" r=".4" cy="48.252"/>
 <circle cx="15.621" r=".4" cy="48.252"/>
 <circle cx="18.246" r=".4" cy="48.252"/>
 <circle cx="20.933" r=".4" cy="48.252"/>
 <circle cx="23.558" r=".4" cy="48.252"/>
 <circle cx="26.058" r=".4" cy="48.252"/>
 <circle cx="28.746" r=".4" cy="48.252"/>
 <circle cx="31.371" r=".4" cy="48.252"/>
 <circle cx="33.933" r=".4" cy="48.252"/>
 <circle cx="36.621" r=".4" cy="48.252"/>
 <circle cx="39.183" r=".4" cy="48.252"/>
 <circle cx="41.808" r=".4" cy="48.252"/>
 <circle cx="44.433" r=".4" cy="48.252"/>
 <circle cx="47.058" r=".4" cy="48.252"/>
 <path d="M49.68 47.85c-.22 0-.4.18-.4.4s.18.4.4.4M48.83 49.5c0-.22-.18-.4-.4-.4s-.4.18-.4.4M46.2 49.5c0-.22-.17-.4-.4-.4s-.4.18-.4.4M43.58 49.5c0-.22-.18-.4-.4-.4s-.4.18-.4.4M40.96 49.5c0-.22-.18-.4-.4-.4s-.4.18-.4.4M38.33 49.5c0-.22-.18-.4-.4-.4s-.4.18-.4.4M35.65 49.5c0-.22-.18-.4-.4-.4s-.4.18-.4.4M33.08 49.5c0-.22-.18-.4-.4-.4s-.4.18-.4.4M30.46 49.5c0-.22-.18-.4-.4-.4s-.4.18-.4.4M27.77 49.5c0-.22-.18-.4-.4-.4s-.4.18-.4.4M25.2 49.5c0-.22-.17-.4-.4-.4s-.4.18-.4.4M22.52 49.5c0-.22-.18-.4-.4-.4s-.4.18-.4.4M19.96 49.5c0-.22-.18-.4-.4-.4s-.4.18-.4.4M17.33 49.5c0-.22-.18-.4-.4-.4s-.4.18-.4.4M14.77 49.5c0-.22-.18-.4-.4-.4s-.4.18-.4.4M12.15 49.5c0-.22-.18-.4-.4-.4s-.4.18-.4.4M9.52 49.5c0-.22-.18-.4-.4-.4s-.4.18-.4.4M6.9 49.5c0-.22-.18-.4-.4-.4s-.4.18-.4.4M4.27 49.5c0-.22-.18-.4-.4-.4s-.4.18-.4.4M1.58 49.5c0-.22-.18-.4-.4-.4s-.4.18-.4.4"/>
</svg>
