<?xml version="1.0"?>
<!-- Converted with SVG Converter - Version 0.9.5 (Compiled Fri Feb 21 09:53:38 2020) - Copyright (C) 2011 Nokia -->
<svg xmlns="http://www.w3.org/2000/svg" width="49.698" height="49.495" xmlns:xlink="http://www.w3.org/1999/xlink" baseProfile="tiny">
 <path d="M0 0h49.7v49.5H0z" fill="none"/>
 <path d="M48 0c0 .25.2.45.44.45s.45-.2.45-.45M45.36 0c0 .25.2.45.45.45s.46-.2.46-.45M42.74 0c0 .25.2.45.45.45s.44-.2.44-.45M40.1 0c0 .25.2.45.46.45S41 .25 41 0M37.5 0c0 .25.2.45.44.45s.45-.2.45-.45M34.8 0c0 .25.2.45.45.45s.45-.2.45-.45M32.24 0c0 .25.2.45.45.45s.44-.2.44-.45M29.6 0c0 .25.2.45.46.45s.45-.2.45-.45M26.93 0c0 .25.2.45.45.45s.45-.2.45-.45M24.36 0c0 .25.2.45.45.45s.46-.2.46-.45M21.68 0c0 .25.2.45.45.45s.45-.2.45-.45M19.1 0c0 .25.2.45.46.45S20 .25 20 0M16.5 0c0 .25.2.45.44.45s.45-.2.45-.45M13.93 0c0 .25.2.45.45.45s.44-.2.44-.45M11.3 0c0 .25.2.45.45.45s.45-.2.45-.45M8.68 0c0 .25.2.45.45.45s.44-.2.44-.45M6.05 0c0 .25.2.45.45.45s.45-.2.45-.45M3.42 0c0 .25.2.45.45.45s.46-.2.46-.45M.74 0c0 .25.2.45.45.45s.44-.2.44-.45M0 1.76c.25 0 .45-.2.45-.45S.25.87 0 .87" fill="#EC008C"/>
 <circle cy="1.313" cx="2.563" fill="#EC008C" r=".45"/>
 <circle cy="1.313" cx="5.188" fill="#EC008C" r=".45"/>
 <circle cy="1.313" cx="7.875" fill="#EC008C" r=".45"/>
 <circle cy="1.313" cx="10.438" fill="#EC008C" r=".45"/>
 <circle cy="1.313" cx="13" fill="#EC008C" r=".45"/>
 <circle cy="1.313" cx="15.625" fill="#EC008C" r=".45"/>
 <circle cy="1.313" cx="18.25" fill="#EC008C" r=".45"/>
 <circle cy="1.313" cx="20.938" fill="#EC008C" r=".45"/>
 <circle cy="1.313" cx="23.563" fill="#EC008C" r=".45"/>
 <circle cy="1.313" cx="26.063" fill="#EC008C" r=".45"/>
 <circle cy="1.313" cx="28.75" fill="#EC008C" r=".45"/>
 <circle cy="1.313" cx="31.375" fill="#EC008C" r=".45"/>
 <circle cy="1.313" cx="33.938" fill="#EC008C" r=".45"/>
 <circle cy="1.313" cx="36.625" fill="#EC008C" r=".45"/>
 <circle cy="1.313" cx="39.188" fill="#EC008C" r=".45"/>
 <circle cy="1.313" cx="41.813" fill="#EC008C" r=".45"/>
 <circle cy="1.313" cx="44.438" fill="#EC008C" r=".45"/>
 <circle cy="1.313" cx="47.063" fill="#EC008C" r=".45"/>
 <path d="M49.7.86c-.26 0-.46.2-.46.45s.2.46.45.46" fill="#EC008C"/>
 <circle cy="2.563" cx="48.438" fill="#EC008C" r=".45"/>
 <circle cy="2.563" cx="45.813" fill="#EC008C" r=".45"/>
 <circle cy="2.563" cx="43.188" fill="#EC008C" r=".45"/>
 <circle cy="2.563" cx="40.563" fill="#EC008C" r=".45"/>
 <circle cy="2.563" cx="37.938" fill="#EC008C" r=".45"/>
 <circle cy="2.563" cx="35.25" fill="#EC008C" r=".45"/>
 <circle cy="2.563" cx="32.688" fill="#EC008C" r=".45"/>
 <circle cy="2.563" cx="30.063" fill="#EC008C" r=".45"/>
 <circle cy="2.563" cx="27.375" fill="#EC008C" r=".45"/>
 <circle cy="2.563" cx="24.813" fill="#EC008C" r=".45"/>
 <circle cy="2.563" cx="22.125" fill="#EC008C" r=".45"/>
 <circle cy="2.563" cx="19.563" fill="#EC008C" r=".45"/>
 <circle cy="2.563" cx="16.938" fill="#EC008C" r=".45"/>
 <circle cy="2.563" cx="14.375" fill="#EC008C" r=".45"/>
 <circle cy="2.563" cx="11.75" fill="#EC008C" r=".45"/>
 <circle cy="2.563" cx="9.125" fill="#EC008C" r=".45"/>
 <circle cy="2.563" cx="6.5" fill="#EC008C" r=".45"/>
 <circle cy="2.563" cx="3.875" fill="#EC008C" r=".45"/>
 <circle cy="2.563" cx="1.188" fill="#EC008C" r=".45"/>
 <path d="M0 4.33c.25 0 .45-.2.45-.46s-.2-.45-.45-.45" fill="#EC008C"/>
 <circle cy="3.875" cx="2.563" fill="#EC008C" r=".45"/>
 <circle cy="3.875" cx="5.188" fill="#EC008C" r=".45"/>
 <circle cy="3.875" cx="7.875" fill="#EC008C" r=".45"/>
 <circle cy="3.875" cx="10.438" fill="#EC008C" r=".45"/>
 <circle cy="3.875" cx="13" fill="#EC008C" r=".45"/>
 <circle cy="3.875" cx="15.625" fill="#EC008C" r=".45"/>
 <circle cy="3.875" cx="18.25" fill="#EC008C" r=".45"/>
 <circle cy="3.875" cx="20.938" fill="#EC008C" r=".45"/>
 <circle cy="3.875" cx="23.563" fill="#EC008C" r=".45"/>
 <circle cy="3.875" cx="26.063" fill="#EC008C" r=".45"/>
 <circle cy="3.875" cx="28.75" fill="#EC008C" r=".45"/>
 <circle cy="3.875" cx="31.375" fill="#EC008C" r=".45"/>
 <circle cy="3.875" cx="33.938" fill="#EC008C" r=".45"/>
 <circle cy="3.875" cx="36.625" fill="#EC008C" r=".45"/>
 <circle cy="3.875" cx="39.188" fill="#EC008C" r=".45"/>
 <circle cy="3.875" cx="41.813" fill="#EC008C" r=".45"/>
 <circle cy="3.875" cx="44.438" fill="#EC008C" r=".45"/>
 <circle cy="3.875" cx="47.063" fill="#EC008C" r=".45"/>
 <path d="M49.7 3.42c-.26 0-.46.2-.46.46s.2.45.45.45" fill="#EC008C"/>
 <circle cy="5.125" cx="48.438" fill="#EC008C" r=".45"/>
 <circle cy="5.125" cx="45.813" fill="#EC008C" r=".45"/>
 <circle cy="5.125" cx="43.188" fill="#EC008C" r=".45"/>
 <circle cy="5.125" cx="40.563" fill="#EC008C" r=".45"/>
 <circle cy="5.125" cx="37.938" fill="#EC008C" r=".45"/>
 <circle cy="5.125" cx="35.25" fill="#EC008C" r=".45"/>
 <circle cy="5.125" cx="32.688" fill="#EC008C" r=".45"/>
 <circle cy="5.125" cx="30.063" fill="#EC008C" r=".45"/>
 <circle cy="5.125" cx="27.375" fill="#EC008C" r=".45"/>
 <circle cy="5.125" cx="24.813" fill="#EC008C" r=".45"/>
 <circle cy="5.125" cx="22.125" fill="#EC008C" r=".45"/>
 <circle cy="5.125" cx="19.563" fill="#EC008C" r=".45"/>
 <circle cy="5.125" cx="16.938" fill="#EC008C" r=".45"/>
 <circle cy="5.125" cx="14.375" fill="#EC008C" r=".45"/>
 <circle cy="5.125" cx="11.75" fill="#EC008C" r=".45"/>
 <circle cy="5.125" cx="9.125" fill="#EC008C" r=".45"/>
 <circle cy="5.125" cx="6.5" fill="#EC008C" r=".45"/>
 <circle cy="5.125" cx="3.875" fill="#EC008C" r=".45"/>
 <circle cy="5.125" cx="1.188" fill="#EC008C" r=".45"/>
 <path d="M0 6.95c.25 0 .45-.2.45-.45s-.2-.45-.45-.45" fill="#EC008C"/>
 <circle cy="6.5" cx="2.563" fill="#EC008C" r=".45"/>
 <circle cy="6.5" cx="5.188" fill="#EC008C" r=".45"/>
 <circle cy="6.5" cx="7.875" fill="#EC008C" r=".45"/>
 <circle cy="6.5" cx="10.438" fill="#EC008C" r=".45"/>
 <circle cy="6.5" cx="13" fill="#EC008C" r=".45"/>
 <circle cy="6.5" cx="15.625" fill="#EC008C" r=".45"/>
 <circle cy="6.5" cx="18.25" fill="#EC008C" r=".45"/>
 <circle cy="6.5" cx="20.938" fill="#EC008C" r=".45"/>
 <circle cy="6.5" cx="23.563" fill="#EC008C" r=".45"/>
 <circle cy="6.5" cx="26.063" fill="#EC008C" r=".45"/>
 <circle cy="6.5" cx="28.75" fill="#EC008C" r=".45"/>
 <circle cy="6.5" cx="31.375" fill="#EC008C" r=".45"/>
 <circle cy="6.5" cx="33.938" fill="#EC008C" r=".45"/>
 <circle cy="6.5" cx="36.625" fill="#EC008C" r=".45"/>
 <circle cy="6.5" cx="39.188" fill="#EC008C" r=".45"/>
 <circle cy="6.5" cx="41.813" fill="#EC008C" r=".45"/>
 <circle cy="6.5" cx="44.438" fill="#EC008C" r=".45"/>
 <circle cy="6.5" cx="47.063" fill="#EC008C" r=".45"/>
 <path d="M49.7 6.05c-.26 0-.46.2-.46.45s.2.45.45.45" fill="#EC008C"/>
 <circle cy="7.75" cx="48.438" fill="#EC008C" r=".45"/>
 <circle cy="7.75" cx="45.813" fill="#EC008C" r=".45"/>
 <circle cy="7.75" cx="43.188" fill="#EC008C" r=".45"/>
 <circle cy="7.75" cx="40.563" fill="#EC008C" r=".45"/>
 <circle cy="7.75" cx="37.938" fill="#EC008C" r=".45"/>
 <circle cy="7.75" cx="35.25" fill="#EC008C" r=".45"/>
 <circle cy="7.75" cx="32.688" fill="#EC008C" r=".45"/>
 <circle cy="7.75" cx="30.063" fill="#EC008C" r=".45"/>
 <circle cy="7.75" cx="27.375" fill="#EC008C" r=".45"/>
 <circle cy="7.75" cx="24.813" fill="#EC008C" r=".45"/>
 <circle cy="7.75" cx="22.125" fill="#EC008C" r=".45"/>
 <circle cy="7.75" cx="19.563" fill="#EC008C" r=".45"/>
 <circle cy="7.75" cx="16.938" fill="#EC008C" r=".45"/>
 <circle cy="7.75" cx="14.375" fill="#EC008C" r=".45"/>
 <circle cy="7.75" cx="11.75" fill="#EC008C" r=".45"/>
 <circle cy="7.75" cx="9.125" fill="#EC008C" r=".45"/>
 <circle cy="7.75" cx="6.5" fill="#EC008C" r=".45"/>
 <circle cy="7.75" cx="3.875" fill="#EC008C" r=".45"/>
 <circle cy="7.75" cx="1.188" fill="#EC008C" r=".45"/>
 <path d="M0 9.58c.25 0 .45-.2.45-.45s-.2-.46-.45-.46" fill="#EC008C"/>
 <circle cy="9.125" cx="2.563" fill="#EC008C" r=".45"/>
 <circle cy="9.125" cx="5.188" fill="#EC008C" r=".45"/>
 <circle cy="9.125" cx="7.875" fill="#EC008C" r=".45"/>
 <circle cy="9.125" cx="10.438" fill="#EC008C" r=".45"/>
 <circle cy="9.125" cx="13" fill="#EC008C" r=".45"/>
 <circle cy="9.125" cx="15.625" fill="#EC008C" r=".45"/>
 <circle cy="9.125" cx="18.25" fill="#EC008C" r=".45"/>
 <circle cy="9.125" cx="20.938" fill="#EC008C" r=".45"/>
 <circle cy="9.125" cx="23.563" fill="#EC008C" r=".45"/>
 <circle cy="9.125" cx="26.063" fill="#EC008C" r=".45"/>
 <circle cy="9.125" cx="28.75" fill="#EC008C" r=".45"/>
 <circle cy="9.125" cx="31.375" fill="#EC008C" r=".45"/>
 <circle cy="9.125" cx="33.938" fill="#EC008C" r=".45"/>
 <circle cy="9.125" cx="36.625" fill="#EC008C" r=".45"/>
 <circle cy="9.125" cx="39.188" fill="#EC008C" r=".45"/>
 <circle cy="9.125" cx="41.813" fill="#EC008C" r=".45"/>
 <circle cy="9.125" cx="44.438" fill="#EC008C" r=".45"/>
 <circle cy="9.125" cx="47.063" fill="#EC008C" r=".45"/>
 <path d="M49.7 8.68c-.26 0-.46.2-.46.45s.2.45.45.45" fill="#EC008C"/>
 <circle cy="10.375" cx="48.438" fill="#EC008C" r=".45"/>
 <circle cy="10.375" cx="45.813" fill="#EC008C" r=".45"/>
 <circle cy="10.375" cx="43.188" fill="#EC008C" r=".45"/>
 <circle cy="10.375" cx="40.563" fill="#EC008C" r=".45"/>
 <circle cy="10.375" cx="37.938" fill="#EC008C" r=".45"/>
 <circle cy="10.375" cx="35.25" fill="#EC008C" r=".45"/>
 <circle cy="10.375" cx="32.688" fill="#EC008C" r=".45"/>
 <circle cy="10.375" cx="30.063" fill="#EC008C" r=".45"/>
 <circle cy="10.375" cx="27.375" fill="#EC008C" r=".45"/>
 <circle cy="10.375" cx="24.813" fill="#EC008C" r=".45"/>
 <circle cy="10.375" cx="22.125" fill="#EC008C" r=".45"/>
 <circle cy="10.375" cx="19.563" fill="#EC008C" r=".45"/>
 <circle cy="10.375" cx="16.938" fill="#EC008C" r=".45"/>
 <circle cy="10.375" cx="14.375" fill="#EC008C" r=".45"/>
 <circle cy="10.375" cx="11.75" fill="#EC008C" r=".45"/>
 <circle cy="10.375" cx="9.125" fill="#EC008C" r=".45"/>
 <circle cy="10.375" cx="6.5" fill="#EC008C" r=".45"/>
 <circle cy="10.375" cx="3.875" fill="#EC008C" r=".45"/>
 <circle cy="10.375" cx="1.188" fill="#EC008C" r=".45"/>
 <path d="M0 12.2c.25 0 .45-.2.45-.45s-.2-.45-.45-.45" fill="#EC008C"/>
 <circle cy="11.75" cx="2.563" fill="#EC008C" r=".45"/>
 <circle cy="11.75" cx="5.188" fill="#EC008C" r=".45"/>
 <circle cy="11.75" cx="7.875" fill="#EC008C" r=".45"/>
 <circle cy="11.75" cx="10.438" fill="#EC008C" r=".45"/>
 <circle cy="11.75" cx="13" fill="#EC008C" r=".45"/>
 <circle cy="11.75" cx="15.625" fill="#EC008C" r=".45"/>
 <circle cy="11.75" cx="18.25" fill="#EC008C" r=".45"/>
 <circle cy="11.75" cx="20.938" fill="#EC008C" r=".45"/>
 <circle cy="11.75" cx="23.563" fill="#EC008C" r=".45"/>
 <circle cy="11.75" cx="26.063" fill="#EC008C" r=".45"/>
 <circle cy="11.75" cx="28.75" fill="#EC008C" r=".45"/>
 <circle cy="11.75" cx="31.375" fill="#EC008C" r=".45"/>
 <circle cy="11.75" cx="33.938" fill="#EC008C" r=".45"/>
 <circle cy="11.75" cx="36.625" fill="#EC008C" r=".45"/>
 <circle cy="11.75" cx="39.188" fill="#EC008C" r=".45"/>
 <circle cy="11.75" cx="41.813" fill="#EC008C" r=".45"/>
 <circle cy="11.75" cx="44.438" fill="#EC008C" r=".45"/>
 <circle cy="11.75" cx="47.063" fill="#EC008C" r=".45"/>
 <path d="M49.7 11.3c-.26 0-.46.2-.46.45s.2.45.45.45" fill="#EC008C"/>
 <circle cy="13" cx="48.438" fill="#EC008C" r=".45"/>
 <circle cy="13" cx="45.813" fill="#EC008C" r=".45"/>
 <circle cy="13" cx="43.188" fill="#EC008C" r=".45"/>
 <circle cy="13" cx="40.563" fill="#EC008C" r=".45"/>
 <circle cy="13" cx="37.938" fill="#EC008C" r=".45"/>
 <circle cy="13" cx="35.25" fill="#EC008C" r=".45"/>
 <circle cy="13" cx="32.688" fill="#EC008C" r=".45"/>
 <circle cy="13" cx="30.063" fill="#EC008C" r=".45"/>
 <circle cy="13" cx="27.375" fill="#EC008C" r=".45"/>
 <circle cy="13" cx="24.813" fill="#EC008C" r=".45"/>
 <circle cy="13" cx="22.125" fill="#EC008C" r=".45"/>
 <circle cy="13" cx="19.563" fill="#EC008C" r=".45"/>
 <circle cy="13" cx="16.938" fill="#EC008C" r=".45"/>
 <circle cy="13" cx="14.375" fill="#EC008C" r=".45"/>
 <circle cy="13" cx="11.75" fill="#EC008C" r=".45"/>
 <circle cy="13" cx="9.125" fill="#EC008C" r=".45"/>
 <circle cy="13" cx="6.5" fill="#EC008C" r=".45"/>
 <circle cy="13" cx="3.875" fill="#EC008C" r=".45"/>
 <circle cy="13" cx="1.188" fill="#EC008C" r=".45"/>
 <path d="M0 14.76c.25 0 .45-.2.45-.45s-.2-.44-.45-.44" fill="#EC008C"/>
 <circle cy="14.313" cx="2.563" fill="#EC008C" r=".45"/>
 <circle cy="14.313" cx="5.188" fill="#EC008C" r=".45"/>
 <circle cy="14.313" cx="7.875" fill="#EC008C" r=".45"/>
 <circle cy="14.313" cx="10.438" fill="#EC008C" r=".45"/>
 <circle cy="14.313" cx="13" fill="#EC008C" r=".45"/>
 <circle cy="14.313" cx="15.625" fill="#EC008C" r=".45"/>
 <circle cy="14.313" cx="18.25" fill="#EC008C" r=".45"/>
 <circle cy="14.313" cx="20.938" fill="#EC008C" r=".45"/>
 <circle cy="14.313" cx="23.563" fill="#EC008C" r=".45"/>
 <circle cy="14.313" cx="26.063" fill="#EC008C" r=".45"/>
 <circle cy="14.313" cx="28.75" fill="#EC008C" r=".45"/>
 <circle cy="14.313" cx="31.375" fill="#EC008C" r=".45"/>
 <circle cy="14.313" cx="33.938" fill="#EC008C" r=".45"/>
 <circle cy="14.313" cx="36.625" fill="#EC008C" r=".45"/>
 <circle cy="14.313" cx="39.188" fill="#EC008C" r=".45"/>
 <circle cy="14.313" cx="41.813" fill="#EC008C" r=".45"/>
 <circle cy="14.313" cx="44.438" fill="#EC008C" r=".45"/>
 <circle cy="14.313" cx="47.063" fill="#EC008C" r=".45"/>
 <path d="M49.7 13.86c-.26 0-.46.2-.46.45s.2.46.45.46" fill="#EC008C"/>
 <circle cy="15.563" cx="48.438" fill="#EC008C" r=".45"/>
 <circle cy="15.563" cx="45.813" fill="#EC008C" r=".45"/>
 <circle cy="15.563" cx="43.188" fill="#EC008C" r=".45"/>
 <circle cy="15.563" cx="40.563" fill="#EC008C" r=".45"/>
 <circle cy="15.563" cx="37.938" fill="#EC008C" r=".45"/>
 <circle cy="15.563" cx="35.25" fill="#EC008C" r=".45"/>
 <circle cy="15.563" cx="32.688" fill="#EC008C" r=".45"/>
 <circle cy="15.563" cx="30.063" fill="#EC008C" r=".45"/>
 <circle cy="15.563" cx="27.375" fill="#EC008C" r=".45"/>
 <circle cy="15.563" cx="24.813" fill="#EC008C" r=".45"/>
 <circle cy="15.563" cx="22.125" fill="#EC008C" r=".45"/>
 <circle cy="15.563" cx="19.563" fill="#EC008C" r=".45"/>
 <circle cy="15.563" cx="16.938" fill="#EC008C" r=".45"/>
 <circle cy="15.563" cx="14.375" fill="#EC008C" r=".45"/>
 <circle cy="15.563" cx="11.75" fill="#EC008C" r=".45"/>
 <circle cy="15.563" cx="9.125" fill="#EC008C" r=".45"/>
 <circle cy="15.563" cx="6.5" fill="#EC008C" r=".45"/>
 <circle cy="15.563" cx="3.875" fill="#EC008C" r=".45"/>
 <circle cy="15.563" cx="1.188" fill="#EC008C" r=".45"/>
 <path d="M0 17.4c.25 0 .45-.2.45-.46s-.2-.45-.45-.45" fill="#EC008C"/>
 <circle cy="16.938" cx="2.563" fill="#EC008C" r=".45"/>
 <circle cy="16.938" cx="5.188" fill="#EC008C" r=".45"/>
 <circle cy="16.938" cx="7.875" fill="#EC008C" r=".45"/>
 <circle cy="16.938" cx="10.438" fill="#EC008C" r=".45"/>
 <circle cy="16.938" cx="13" fill="#EC008C" r=".45"/>
 <circle cy="16.938" cx="15.625" fill="#EC008C" r=".45"/>
 <circle cy="16.938" cx="18.25" fill="#EC008C" r=".45"/>
 <circle cy="16.938" cx="20.938" fill="#EC008C" r=".45"/>
 <circle cy="16.938" cx="23.563" fill="#EC008C" r=".45"/>
 <circle cy="16.938" cx="26.063" fill="#EC008C" r=".45"/>
 <circle cy="16.938" cx="28.75" fill="#EC008C" r=".45"/>
 <circle cy="16.938" cx="31.375" fill="#EC008C" r=".45"/>
 <circle cy="16.938" cx="33.938" fill="#EC008C" r=".45"/>
 <circle cy="16.938" cx="36.625" fill="#EC008C" r=".45"/>
 <circle cy="16.938" cx="39.188" fill="#EC008C" r=".45"/>
 <circle cy="16.938" cx="41.813" fill="#EC008C" r=".45"/>
 <circle cy="16.938" cx="44.438" fill="#EC008C" r=".45"/>
 <circle cy="16.938" cx="47.063" fill="#EC008C" r=".45"/>
 <path d="M49.7 16.5c-.26 0-.46.2-.46.44s.2.45.45.45" fill="#EC008C"/>
 <circle cy="18.188" cx="48.438" fill="#EC008C" r=".45"/>
 <circle cy="18.188" cx="45.813" fill="#EC008C" r=".45"/>
 <circle cy="18.188" cx="43.188" fill="#EC008C" r=".45"/>
 <circle cy="18.188" cx="40.563" fill="#EC008C" r=".45"/>
 <circle cy="18.188" cx="37.938" fill="#EC008C" r=".45"/>
 <circle cy="18.188" cx="35.25" fill="#EC008C" r=".45"/>
 <circle cy="18.188" cx="32.688" fill="#EC008C" r=".45"/>
 <circle cy="18.188" cx="30.063" fill="#EC008C" r=".45"/>
 <circle cy="18.188" cx="27.375" fill="#EC008C" r=".45"/>
 <circle cy="18.188" cx="24.813" fill="#EC008C" r=".45"/>
 <circle cy="18.188" cx="22.125" fill="#EC008C" r=".45"/>
 <circle cy="18.188" cx="19.563" fill="#EC008C" r=".45"/>
 <circle cy="18.188" cx="16.938" fill="#EC008C" r=".45"/>
 <circle cy="18.188" cx="14.375" fill="#EC008C" r=".45"/>
 <circle cy="18.188" cx="11.75" fill="#EC008C" r=".45"/>
 <circle cy="18.188" cx="9.125" fill="#EC008C" r=".45"/>
 <circle cy="18.188" cx="6.5" fill="#EC008C" r=".45"/>
 <circle cy="18.188" cx="3.875" fill="#EC008C" r=".45"/>
 <circle cy="18.188" cx="1.188" fill="#EC008C" r=".45"/>
 <path d="M0 20c.25 0 .45-.2.45-.44s-.2-.45-.45-.45" fill="#EC008C"/>
 <circle cy="19.563" cx="2.563" fill="#EC008C" r=".45"/>
 <circle cy="19.563" cx="5.188" fill="#EC008C" r=".45"/>
 <circle cy="19.563" cx="7.875" fill="#EC008C" r=".45"/>
 <circle cy="19.563" cx="10.438" fill="#EC008C" r=".45"/>
 <circle cy="19.563" cx="13" fill="#EC008C" r=".45"/>
 <circle cy="19.563" cx="15.625" fill="#EC008C" r=".45"/>
 <circle cy="19.563" cx="18.25" fill="#EC008C" r=".45"/>
 <circle cy="19.563" cx="20.938" fill="#EC008C" r=".45"/>
 <circle cy="19.563" cx="23.563" fill="#EC008C" r=".45"/>
 <circle cy="19.563" cx="26.063" fill="#EC008C" r=".45"/>
 <circle cy="19.563" cx="28.75" fill="#EC008C" r=".45"/>
 <circle cy="19.563" cx="31.375" fill="#EC008C" r=".45"/>
 <circle cy="19.563" cx="33.938" fill="#EC008C" r=".45"/>
 <circle cy="19.563" cx="36.625" fill="#EC008C" r=".45"/>
 <circle cy="19.563" cx="39.188" fill="#EC008C" r=".45"/>
 <circle cy="19.563" cx="41.813" fill="#EC008C" r=".45"/>
 <circle cy="19.563" cx="44.438" fill="#EC008C" r=".45"/>
 <circle cy="19.563" cx="47.063" fill="#EC008C" r=".45"/>
 <path d="M49.7 19.1c-.26 0-.46.2-.46.46s.2.45.45.45" fill="#EC008C"/>
 <circle cy="20.813" cx="48.438" fill="#EC008C" r=".45"/>
 <circle cy="20.813" cx="45.813" fill="#EC008C" r=".45"/>
 <circle cy="20.813" cx="43.188" fill="#EC008C" r=".45"/>
 <circle cy="20.813" cx="40.563" fill="#EC008C" r=".45"/>
 <circle cy="20.813" cx="37.938" fill="#EC008C" r=".45"/>
 <circle cy="20.813" cx="35.25" fill="#EC008C" r=".45"/>
 <circle cy="20.813" cx="32.688" fill="#EC008C" r=".45"/>
 <circle cy="20.813" cx="30.063" fill="#EC008C" r=".45"/>
 <circle cy="20.813" cx="27.375" fill="#EC008C" r=".45"/>
 <circle cy="20.813" cx="24.813" fill="#EC008C" r=".45"/>
 <circle cy="20.813" cx="22.125" fill="#EC008C" r=".45"/>
 <circle cy="20.813" cx="19.563" fill="#EC008C" r=".45"/>
 <circle cy="20.813" cx="16.938" fill="#EC008C" r=".45"/>
 <circle cy="20.813" cx="14.375" fill="#EC008C" r=".45"/>
 <circle cy="20.813" cx="11.75" fill="#EC008C" r=".45"/>
 <circle cy="20.813" cx="9.125" fill="#EC008C" r=".45"/>
 <circle cy="20.813" cx="6.5" fill="#EC008C" r=".45"/>
 <circle cy="20.813" cx="3.875" fill="#EC008C" r=".45"/>
 <circle cy="20.813" cx="1.188" fill="#EC008C" r=".45"/>
 <path d="M0 22.64c.25 0 .45-.2.45-.45s-.2-.46-.45-.46" fill="#EC008C"/>
 <circle cy="22.188" cx="2.563" fill="#EC008C" r=".45"/>
 <circle cy="22.188" cx="5.188" fill="#EC008C" r=".45"/>
 <circle cy="22.188" cx="7.875" fill="#EC008C" r=".45"/>
 <circle cy="22.188" cx="10.438" fill="#EC008C" r=".45"/>
 <circle cy="22.188" cx="13" fill="#EC008C" r=".45"/>
 <circle cy="22.188" cx="15.625" fill="#EC008C" r=".45"/>
 <circle cy="22.188" cx="18.25" fill="#EC008C" r=".45"/>
 <circle cy="22.188" cx="20.938" fill="#EC008C" r=".45"/>
 <circle cy="22.188" cx="23.563" fill="#EC008C" r=".45"/>
 <circle cy="22.188" cx="26.063" fill="#EC008C" r=".45"/>
 <circle cy="22.188" cx="28.75" fill="#EC008C" r=".45"/>
 <circle cy="22.188" cx="31.375" fill="#EC008C" r=".45"/>
 <circle cy="22.188" cx="33.938" fill="#EC008C" r=".45"/>
 <circle cy="22.188" cx="36.625" fill="#EC008C" r=".45"/>
 <circle cy="22.188" cx="39.188" fill="#EC008C" r=".45"/>
 <circle cy="22.188" cx="41.813" fill="#EC008C" r=".45"/>
 <circle cy="22.188" cx="44.438" fill="#EC008C" r=".45"/>
 <circle cy="22.188" cx="47.063" fill="#EC008C" r=".45"/>
 <path d="M49.7 21.74c-.26 0-.46.2-.46.45s.2.44.45.44" fill="#EC008C"/>
 <circle cy="23.438" cx="48.438" fill="#EC008C" r=".45"/>
 <circle cy="23.438" cx="45.813" fill="#EC008C" r=".45"/>
 <circle cy="23.438" cx="43.188" fill="#EC008C" r=".45"/>
 <circle cy="23.438" cx="40.563" fill="#EC008C" r=".45"/>
 <circle cy="23.438" cx="37.938" fill="#EC008C" r=".45"/>
 <circle cy="23.438" cx="35.25" fill="#EC008C" r=".45"/>
 <circle cy="23.438" cx="32.688" fill="#EC008C" r=".45"/>
 <circle cy="23.438" cx="30.063" fill="#EC008C" r=".45"/>
 <circle cy="23.438" cx="27.375" fill="#EC008C" r=".45"/>
 <circle cy="23.438" cx="24.813" fill="#EC008C" r=".45"/>
 <circle cy="23.438" cx="22.125" fill="#EC008C" r=".45"/>
 <circle cy="23.438" cx="19.563" fill="#EC008C" r=".45"/>
 <circle cy="23.438" cx="16.938" fill="#EC008C" r=".45"/>
 <circle cy="23.438" cx="14.375" fill="#EC008C" r=".45"/>
 <circle cy="23.438" cx="11.75" fill="#EC008C" r=".45"/>
 <circle cy="23.438" cx="9.125" fill="#EC008C" r=".45"/>
 <circle cy="23.438" cx="6.5" fill="#EC008C" r=".45"/>
 <circle cy="23.438" cx="3.875" fill="#EC008C" r=".45"/>
 <circle cy="23.438" cx="1.188" fill="#EC008C" r=".45"/>
 <path d="M0 25.2c.25 0 .45-.2.45-.45s-.2-.45-.45-.45" fill="#EC008C"/>
 <circle cy="24.75" cx="2.563" fill="#EC008C" r=".45"/>
 <circle cy="24.75" cx="5.188" fill="#EC008C" r=".45"/>
 <circle cy="24.75" cx="7.875" fill="#EC008C" r=".45"/>
 <circle cy="24.75" cx="10.438" fill="#EC008C" r=".45"/>
 <circle cy="24.75" cx="13" fill="#EC008C" r=".45"/>
 <circle cy="24.75" cx="15.625" fill="#EC008C" r=".45"/>
 <circle cy="24.75" cx="18.25" fill="#EC008C" r=".45"/>
 <circle cy="24.75" cx="20.938" fill="#EC008C" r=".45"/>
 <circle cy="24.75" cx="23.563" fill="#EC008C" r=".45"/>
 <circle cy="24.75" cx="26.063" fill="#EC008C" r=".45"/>
 <circle cy="24.75" cx="28.75" fill="#EC008C" r=".45"/>
 <circle cy="24.75" cx="31.375" fill="#EC008C" r=".45"/>
 <circle cy="24.75" cx="33.938" fill="#EC008C" r=".45"/>
 <circle cy="24.75" cx="36.625" fill="#EC008C" r=".45"/>
 <circle cy="24.75" cx="39.188" fill="#EC008C" r=".45"/>
 <circle cy="24.75" cx="41.813" fill="#EC008C" r=".45"/>
 <circle cy="24.75" cx="44.438" fill="#EC008C" r=".45"/>
 <circle cy="24.75" cx="47.063" fill="#EC008C" r=".45"/>
 <path d="M49.7 24.3c-.26 0-.46.2-.46.45s.2.45.45.45" fill="#EC008C"/>
 <circle cy="26" cx="48.438" fill="#EC008C" r=".45"/>
 <circle cy="26" cx="45.813" fill="#EC008C" r=".45"/>
 <circle cy="26" cx="43.188" fill="#EC008C" r=".45"/>
 <circle cy="26" cx="40.563" fill="#EC008C" r=".45"/>
 <circle cy="26" cx="37.938" fill="#EC008C" r=".45"/>
 <circle cy="26" cx="35.25" fill="#EC008C" r=".45"/>
 <circle cy="26" cx="32.688" fill="#EC008C" r=".45"/>
 <circle cy="26" cx="30.063" fill="#EC008C" r=".45"/>
 <circle cy="26" cx="27.375" fill="#EC008C" r=".45"/>
 <circle cy="26" cx="24.813" fill="#EC008C" r=".45"/>
 <circle cy="26" cx="22.125" fill="#EC008C" r=".45"/>
 <circle cy="26" cx="19.563" fill="#EC008C" r=".45"/>
 <circle cy="26" cx="16.938" fill="#EC008C" r=".45"/>
 <circle cy="26" cx="14.375" fill="#EC008C" r=".45"/>
 <circle cy="26" cx="11.75" fill="#EC008C" r=".45"/>
 <circle cy="26" cx="9.125" fill="#EC008C" r=".45"/>
 <circle cy="26" cx="6.5" fill="#EC008C" r=".45"/>
 <circle cy="26" cx="3.875" fill="#EC008C" r=".45"/>
 <circle cy="26" cx="1.188" fill="#EC008C" r=".45"/>
 <path d="M0 27.83c.25 0 .45-.2.45-.45s-.2-.46-.45-.46" fill="#EC008C"/>
 <circle cy="27.375" cx="2.563" fill="#EC008C" r=".45"/>
 <circle cy="27.375" cx="5.188" fill="#EC008C" r=".45"/>
 <circle cy="27.375" cx="7.875" fill="#EC008C" r=".45"/>
 <circle cy="27.375" cx="10.438" fill="#EC008C" r=".45"/>
 <circle cy="27.375" cx="13" fill="#EC008C" r=".45"/>
 <circle cy="27.375" cx="15.625" fill="#EC008C" r=".45"/>
 <circle cy="27.375" cx="18.25" fill="#EC008C" r=".45"/>
 <circle cy="27.375" cx="20.938" fill="#EC008C" r=".45"/>
 <circle cy="27.375" cx="23.563" fill="#EC008C" r=".45"/>
 <circle cy="27.375" cx="26.063" fill="#EC008C" r=".45"/>
 <circle cy="27.375" cx="28.75" fill="#EC008C" r=".45"/>
 <circle cy="27.375" cx="31.375" fill="#EC008C" r=".45"/>
 <circle cy="27.375" cx="33.938" fill="#EC008C" r=".45"/>
 <circle cy="27.375" cx="36.625" fill="#EC008C" r=".45"/>
 <circle cy="27.375" cx="39.188" fill="#EC008C" r=".45"/>
 <circle cy="27.375" cx="41.813" fill="#EC008C" r=".45"/>
 <circle cy="27.375" cx="44.438" fill="#EC008C" r=".45"/>
 <circle cy="27.375" cx="47.063" fill="#EC008C" r=".45"/>
 <path d="M49.7 26.93c-.26 0-.46.2-.46.45s.2.45.45.45" fill="#EC008C"/>
 <circle cy="28.625" cx="48.438" fill="#EC008C" r=".45"/>
 <circle cy="28.625" cx="45.813" fill="#EC008C" r=".45"/>
 <circle cy="28.625" cx="43.188" fill="#EC008C" r=".45"/>
 <circle cy="28.625" cx="40.563" fill="#EC008C" r=".45"/>
 <circle cy="28.625" cx="37.938" fill="#EC008C" r=".45"/>
 <circle cy="28.625" cx="35.25" fill="#EC008C" r=".45"/>
 <circle cy="28.625" cx="32.688" fill="#EC008C" r=".45"/>
 <circle cy="28.625" cx="30.063" fill="#EC008C" r=".45"/>
 <circle cy="28.625" cx="27.375" fill="#EC008C" r=".45"/>
 <circle cy="28.625" cx="24.813" fill="#EC008C" r=".45"/>
 <circle cy="28.625" cx="22.125" fill="#EC008C" r=".45"/>
 <circle cy="28.625" cx="19.563" fill="#EC008C" r=".45"/>
 <circle cy="28.625" cx="16.938" fill="#EC008C" r=".45"/>
 <circle cy="28.625" cx="14.375" fill="#EC008C" r=".45"/>
 <circle cy="28.625" cx="11.75" fill="#EC008C" r=".45"/>
 <circle cy="28.625" cx="9.125" fill="#EC008C" r=".45"/>
 <circle cy="28.625" cx="6.5" fill="#EC008C" r=".45"/>
 <circle cy="28.625" cx="3.875" fill="#EC008C" r=".45"/>
 <circle cy="28.625" cx="1.188" fill="#EC008C" r=".45"/>
 <path d="M0 30.45c.25 0 .45-.2.45-.45s-.2-.45-.45-.45" fill="#EC008C"/>
 <circle cy="30" cx="2.563" fill="#EC008C" r=".45"/>
 <circle cy="30" cx="5.188" fill="#EC008C" r=".45"/>
 <circle cy="30" cx="7.875" fill="#EC008C" r=".45"/>
 <circle cy="30" cx="10.438" fill="#EC008C" r=".45"/>
 <circle cy="30" cx="13" fill="#EC008C" r=".45"/>
 <circle cy="30" cx="15.625" fill="#EC008C" r=".45"/>
 <circle cy="30" cx="18.25" fill="#EC008C" r=".45"/>
 <circle cy="30" cx="20.938" fill="#EC008C" r=".45"/>
 <circle cy="30" cx="23.563" fill="#EC008C" r=".45"/>
 <circle cy="30" cx="26.063" fill="#EC008C" r=".45"/>
 <circle cy="30" cx="28.75" fill="#EC008C" r=".45"/>
 <circle cy="30" cx="31.375" fill="#EC008C" r=".45"/>
 <circle cy="30" cx="33.938" fill="#EC008C" r=".45"/>
 <circle cy="30" cx="36.625" fill="#EC008C" r=".45"/>
 <circle cy="30" cx="39.188" fill="#EC008C" r=".45"/>
 <circle cy="30" cx="41.813" fill="#EC008C" r=".45"/>
 <circle cy="30" cx="44.438" fill="#EC008C" r=".45"/>
 <circle cy="30" cx="47.063" fill="#EC008C" r=".45"/>
 <path d="M49.7 29.55c-.26 0-.46.2-.46.45s.2.45.45.45" fill="#EC008C"/>
 <circle cy="31.25" cx="48.438" fill="#EC008C" r=".45"/>
 <circle cy="31.25" cx="45.813" fill="#EC008C" r=".45"/>
 <circle cy="31.25" cx="43.188" fill="#EC008C" r=".45"/>
 <circle cy="31.25" cx="40.563" fill="#EC008C" r=".45"/>
 <circle cy="31.25" cx="37.938" fill="#EC008C" r=".45"/>
 <circle cy="31.25" cx="35.25" fill="#EC008C" r=".45"/>
 <circle cy="31.25" cx="32.688" fill="#EC008C" r=".45"/>
 <circle cy="31.25" cx="30.063" fill="#EC008C" r=".45"/>
 <circle cy="31.25" cx="27.375" fill="#EC008C" r=".45"/>
 <circle cy="31.25" cx="24.813" fill="#EC008C" r=".45"/>
 <circle cy="31.25" cx="22.125" fill="#EC008C" r=".45"/>
 <circle cy="31.25" cx="19.563" fill="#EC008C" r=".45"/>
 <circle cy="31.25" cx="16.938" fill="#EC008C" r=".45"/>
 <circle cy="31.25" cx="14.375" fill="#EC008C" r=".45"/>
 <circle cy="31.25" cx="11.75" fill="#EC008C" r=".45"/>
 <circle cy="31.25" cx="9.125" fill="#EC008C" r=".45"/>
 <circle cy="31.25" cx="6.5" fill="#EC008C" r=".45"/>
 <circle cy="31.25" cx="3.875" fill="#EC008C" r=".45"/>
 <circle cy="31.25" cx="1.188" fill="#EC008C" r=".45"/>
 <path d="M0 33.08c.25 0 .45-.2.45-.45s-.2-.46-.45-.46" fill="#EC008C"/>
 <circle cy="32.625" cx="2.563" fill="#EC008C" r=".45"/>
 <circle cy="32.625" cx="5.188" fill="#EC008C" r=".45"/>
 <circle cy="32.625" cx="7.875" fill="#EC008C" r=".45"/>
 <circle cy="32.625" cx="10.438" fill="#EC008C" r=".45"/>
 <circle cy="32.625" cx="13" fill="#EC008C" r=".45"/>
 <circle cy="32.625" cx="15.625" fill="#EC008C" r=".45"/>
 <circle cy="32.625" cx="18.25" fill="#EC008C" r=".45"/>
 <circle cy="32.625" cx="20.938" fill="#EC008C" r=".45"/>
 <circle cy="32.625" cx="23.563" fill="#EC008C" r=".45"/>
 <circle cy="32.625" cx="26.063" fill="#EC008C" r=".45"/>
 <circle cy="32.625" cx="28.75" fill="#EC008C" r=".45"/>
 <circle cy="32.625" cx="31.375" fill="#EC008C" r=".45"/>
 <circle cy="32.625" cx="33.938" fill="#EC008C" r=".45"/>
 <circle cy="32.625" cx="36.625" fill="#EC008C" r=".45"/>
 <circle cy="32.625" cx="39.188" fill="#EC008C" r=".45"/>
 <circle cy="32.625" cx="41.813" fill="#EC008C" r=".45"/>
 <circle cy="32.625" cx="44.438" fill="#EC008C" r=".45"/>
 <circle cy="32.625" cx="47.063" fill="#EC008C" r=".45"/>
 <path d="M49.7 32.17c-.26 0-.46.2-.46.46s.2.45.45.45" fill="#EC008C"/>
 <circle cy="33.875" cx="48.438" fill="#EC008C" r=".45"/>
 <circle cy="33.875" cx="45.813" fill="#EC008C" r=".45"/>
 <circle cy="33.875" cx="43.188" fill="#EC008C" r=".45"/>
 <circle cy="33.875" cx="40.563" fill="#EC008C" r=".45"/>
 <circle cy="33.875" cx="37.938" fill="#EC008C" r=".45"/>
 <circle cy="33.875" cx="35.25" fill="#EC008C" r=".45"/>
 <circle cy="33.875" cx="32.688" fill="#EC008C" r=".45"/>
 <circle cy="33.875" cx="30.063" fill="#EC008C" r=".45"/>
 <circle cy="33.875" cx="27.375" fill="#EC008C" r=".45"/>
 <circle cy="33.875" cx="24.813" fill="#EC008C" r=".45"/>
 <circle cy="33.875" cx="22.125" fill="#EC008C" r=".45"/>
 <circle cy="33.875" cx="19.563" fill="#EC008C" r=".45"/>
 <circle cy="33.875" cx="16.938" fill="#EC008C" r=".45"/>
 <circle cy="33.875" cx="14.375" fill="#EC008C" r=".45"/>
 <circle cy="33.875" cx="11.75" fill="#EC008C" r=".45"/>
 <circle cy="33.875" cx="9.125" fill="#EC008C" r=".45"/>
 <circle cy="33.875" cx="6.5" fill="#EC008C" r=".45"/>
 <circle cy="33.875" cx="3.875" fill="#EC008C" r=".45"/>
 <circle cy="33.875" cx="1.188" fill="#EC008C" r=".45"/>
 <path d="M0 35.58c.25 0 .45-.2.45-.45s-.2-.46-.45-.46" fill="#EC008C"/>
 <circle cy="35.125" cx="2.563" fill="#EC008C" r=".45"/>
 <circle cy="35.125" cx="5.188" fill="#EC008C" r=".45"/>
 <circle cy="35.125" cx="7.875" fill="#EC008C" r=".45"/>
 <circle cy="35.125" cx="10.438" fill="#EC008C" r=".45"/>
 <circle cy="35.125" cx="13" fill="#EC008C" r=".45"/>
 <circle cy="35.125" cx="15.625" fill="#EC008C" r=".45"/>
 <circle cy="35.125" cx="18.25" fill="#EC008C" r=".45"/>
 <circle cy="35.125" cx="20.938" fill="#EC008C" r=".45"/>
 <circle cy="35.125" cx="23.563" fill="#EC008C" r=".45"/>
 <circle cy="35.125" cx="26.063" fill="#EC008C" r=".45"/>
 <circle cy="35.125" cx="28.75" fill="#EC008C" r=".45"/>
 <circle cy="35.125" cx="31.375" fill="#EC008C" r=".45"/>
 <circle cy="35.125" cx="33.938" fill="#EC008C" r=".45"/>
 <circle cy="35.125" cx="36.625" fill="#EC008C" r=".45"/>
 <circle cy="35.125" cx="39.188" fill="#EC008C" r=".45"/>
 <circle cy="35.125" cx="41.813" fill="#EC008C" r=".45"/>
 <circle cy="35.125" cx="44.438" fill="#EC008C" r=".45"/>
 <circle cy="35.125" cx="47.063" fill="#EC008C" r=".45"/>
 <path d="M49.7 34.67c-.26 0-.46.2-.46.46s.2.45.45.45" fill="#EC008C"/>
 <circle cy="36.375" cx="48.438" fill="#EC008C" r=".45"/>
 <circle cy="36.375" cx="45.813" fill="#EC008C" r=".45"/>
 <circle cy="36.375" cx="43.188" fill="#EC008C" r=".45"/>
 <circle cy="36.375" cx="40.563" fill="#EC008C" r=".45"/>
 <circle cy="36.375" cx="37.938" fill="#EC008C" r=".45"/>
 <circle cy="36.375" cx="35.25" fill="#EC008C" r=".45"/>
 <circle cy="36.375" cx="32.688" fill="#EC008C" r=".45"/>
 <circle cy="36.375" cx="30.063" fill="#EC008C" r=".45"/>
 <circle cy="36.375" cx="27.375" fill="#EC008C" r=".45"/>
 <circle cy="36.375" cx="24.813" fill="#EC008C" r=".45"/>
 <circle cy="36.375" cx="22.125" fill="#EC008C" r=".45"/>
 <circle cy="36.375" cx="19.563" fill="#EC008C" r=".45"/>
 <circle cy="36.375" cx="16.938" fill="#EC008C" r=".45"/>
 <circle cy="36.375" cx="14.375" fill="#EC008C" r=".45"/>
 <circle cy="36.375" cx="11.75" fill="#EC008C" r=".45"/>
 <circle cy="36.375" cx="9.125" fill="#EC008C" r=".45"/>
 <circle cy="36.375" cx="6.5" fill="#EC008C" r=".45"/>
 <circle cy="36.375" cx="3.875" fill="#EC008C" r=".45"/>
 <circle cy="36.375" cx="1.188" fill="#EC008C" r=".45"/>
 <path d="M0 38.26c.25 0 .45-.2.45-.45s-.2-.44-.45-.44" fill="#EC008C"/>
 <circle cy="37.813" cx="2.563" fill="#EC008C" r=".45"/>
 <circle cy="37.813" cx="5.188" fill="#EC008C" r=".45"/>
 <circle cy="37.813" cx="7.875" fill="#EC008C" r=".45"/>
 <circle cy="37.813" cx="10.438" fill="#EC008C" r=".45"/>
 <circle cy="37.813" cx="13" fill="#EC008C" r=".45"/>
 <circle cy="37.813" cx="15.625" fill="#EC008C" r=".45"/>
 <circle cy="37.813" cx="18.25" fill="#EC008C" r=".45"/>
 <circle cy="37.813" cx="20.938" fill="#EC008C" r=".45"/>
 <circle cy="37.813" cx="23.563" fill="#EC008C" r=".45"/>
 <circle cy="37.813" cx="26.063" fill="#EC008C" r=".45"/>
 <circle cy="37.813" cx="28.75" fill="#EC008C" r=".45"/>
 <circle cy="37.813" cx="31.375" fill="#EC008C" r=".45"/>
 <circle cy="37.813" cx="33.938" fill="#EC008C" r=".45"/>
 <circle cy="37.813" cx="36.625" fill="#EC008C" r=".45"/>
 <circle cy="37.813" cx="39.188" fill="#EC008C" r=".45"/>
 <circle cy="37.813" cx="41.813" fill="#EC008C" r=".45"/>
 <circle cy="37.813" cx="44.438" fill="#EC008C" r=".45"/>
 <circle cy="37.813" cx="47.063" fill="#EC008C" r=".45"/>
 <path d="M49.7 37.36c-.26 0-.46.2-.46.45s.2.46.45.46" fill="#EC008C"/>
 <circle cy="39.063" cx="48.438" fill="#EC008C" r=".45"/>
 <circle cy="39.063" cx="45.813" fill="#EC008C" r=".45"/>
 <circle cy="39.063" cx="43.188" fill="#EC008C" r=".45"/>
 <circle cy="39.063" cx="40.563" fill="#EC008C" r=".45"/>
 <circle cy="39.063" cx="37.938" fill="#EC008C" r=".45"/>
 <circle cy="39.063" cx="35.25" fill="#EC008C" r=".45"/>
 <circle cy="39.063" cx="32.688" fill="#EC008C" r=".45"/>
 <circle cy="39.063" cx="30.063" fill="#EC008C" r=".45"/>
 <circle cy="39.063" cx="27.375" fill="#EC008C" r=".45"/>
 <circle cy="39.063" cx="24.813" fill="#EC008C" r=".45"/>
 <circle cy="39.063" cx="22.125" fill="#EC008C" r=".45"/>
 <circle cy="39.063" cx="19.563" fill="#EC008C" r=".45"/>
 <circle cy="39.063" cx="16.938" fill="#EC008C" r=".45"/>
 <circle cy="39.063" cx="14.375" fill="#EC008C" r=".45"/>
 <circle cy="39.063" cx="11.75" fill="#EC008C" r=".45"/>
 <circle cy="39.063" cx="9.125" fill="#EC008C" r=".45"/>
 <circle cy="39.063" cx="6.5" fill="#EC008C" r=".45"/>
 <circle cy="39.063" cx="3.875" fill="#EC008C" r=".45"/>
 <circle cy="39.063" cx="1.188" fill="#EC008C" r=".45"/>
 <path d="M0 40.83c.25 0 .45-.2.45-.45s-.2-.46-.45-.46" fill="#EC008C"/>
 <circle cy="40.375" cx="2.563" fill="#EC008C" r=".45"/>
 <circle cy="40.375" cx="5.188" fill="#EC008C" r=".45"/>
 <circle cy="40.375" cx="7.875" fill="#EC008C" r=".45"/>
 <circle cy="40.375" cx="10.438" fill="#EC008C" r=".45"/>
 <circle cy="40.375" cx="13" fill="#EC008C" r=".45"/>
 <circle cy="40.375" cx="15.625" fill="#EC008C" r=".45"/>
 <circle cy="40.375" cx="18.25" fill="#EC008C" r=".45"/>
 <circle cy="40.375" cx="20.938" fill="#EC008C" r=".45"/>
 <circle cy="40.375" cx="23.563" fill="#EC008C" r=".45"/>
 <circle cy="40.375" cx="26.063" fill="#EC008C" r=".45"/>
 <circle cy="40.375" cx="28.75" fill="#EC008C" r=".45"/>
 <circle cy="40.375" cx="31.375" fill="#EC008C" r=".45"/>
 <circle cy="40.375" cx="33.938" fill="#EC008C" r=".45"/>
 <circle cy="40.375" cx="36.625" fill="#EC008C" r=".45"/>
 <circle cy="40.375" cx="39.188" fill="#EC008C" r=".45"/>
 <circle cy="40.375" cx="41.813" fill="#EC008C" r=".45"/>
 <circle cy="40.375" cx="44.438" fill="#EC008C" r=".45"/>
 <circle cy="40.375" cx="47.063" fill="#EC008C" r=".45"/>
 <path d="M49.7 39.92c-.26 0-.46.2-.46.46s.2.45.45.45" fill="#EC008C"/>
 <circle cy="41.625" cx="48.438" fill="#EC008C" r=".45"/>
 <circle cy="41.625" cx="45.813" fill="#EC008C" r=".45"/>
 <circle cy="41.625" cx="43.188" fill="#EC008C" r=".45"/>
 <circle cy="41.625" cx="40.563" fill="#EC008C" r=".45"/>
 <circle cy="41.625" cx="37.938" fill="#EC008C" r=".45"/>
 <circle cy="41.625" cx="35.25" fill="#EC008C" r=".45"/>
 <circle cy="41.625" cx="32.688" fill="#EC008C" r=".45"/>
 <circle cy="41.625" cx="30.063" fill="#EC008C" r=".45"/>
 <circle cy="41.625" cx="27.375" fill="#EC008C" r=".45"/>
 <circle cy="41.625" cx="24.813" fill="#EC008C" r=".45"/>
 <circle cy="41.625" cx="22.125" fill="#EC008C" r=".45"/>
 <circle cy="41.625" cx="19.563" fill="#EC008C" r=".45"/>
 <circle cy="41.625" cx="16.938" fill="#EC008C" r=".45"/>
 <circle cy="41.625" cx="14.375" fill="#EC008C" r=".45"/>
 <circle cy="41.625" cx="11.75" fill="#EC008C" r=".45"/>
 <circle cy="41.625" cx="9.125" fill="#EC008C" r=".45"/>
 <circle cy="41.625" cx="6.5" fill="#EC008C" r=".45"/>
 <circle cy="41.625" cx="3.875" fill="#EC008C" r=".45"/>
 <circle cy="41.625" cx="1.188" fill="#EC008C" r=".45"/>
 <path d="M0 43.45c.25 0 .45-.2.45-.45s-.2-.45-.45-.45" fill="#EC008C"/>
 <circle cy="43" cx="2.563" fill="#EC008C" r=".45"/>
 <circle cy="43" cx="5.188" fill="#EC008C" r=".45"/>
 <circle cy="43" cx="7.875" fill="#EC008C" r=".45"/>
 <circle cy="43" cx="10.438" fill="#EC008C" r=".45"/>
 <circle cy="43" cx="13" fill="#EC008C" r=".45"/>
 <circle cy="43" cx="15.625" fill="#EC008C" r=".45"/>
 <circle cy="43" cx="18.25" fill="#EC008C" r=".45"/>
 <circle cy="43" cx="20.938" fill="#EC008C" r=".45"/>
 <circle cy="43" cx="23.563" fill="#EC008C" r=".45"/>
 <circle cy="43" cx="26.063" fill="#EC008C" r=".45"/>
 <circle cy="43" cx="28.75" fill="#EC008C" r=".45"/>
 <circle cy="43" cx="31.375" fill="#EC008C" r=".45"/>
 <circle cy="43" cx="33.938" fill="#EC008C" r=".45"/>
 <circle cy="43" cx="36.625" fill="#EC008C" r=".45"/>
 <circle cy="43" cx="39.188" fill="#EC008C" r=".45"/>
 <circle cy="43" cx="41.813" fill="#EC008C" r=".45"/>
 <circle cy="43" cx="44.438" fill="#EC008C" r=".45"/>
 <circle cy="43" cx="47.063" fill="#EC008C" r=".45"/>
 <path d="M49.7 42.55c-.26 0-.46.2-.46.45s.2.45.45.45" fill="#EC008C"/>
 <circle cy="44.25" cx="48.438" fill="#EC008C" r=".45"/>
 <circle cy="44.25" cx="45.813" fill="#EC008C" r=".45"/>
 <circle cy="44.25" cx="43.188" fill="#EC008C" r=".45"/>
 <circle cy="44.25" cx="40.563" fill="#EC008C" r=".45"/>
 <circle cy="44.25" cx="37.938" fill="#EC008C" r=".45"/>
 <circle cy="44.25" cx="35.25" fill="#EC008C" r=".45"/>
 <circle cy="44.25" cx="32.688" fill="#EC008C" r=".45"/>
 <circle cy="44.25" cx="30.063" fill="#EC008C" r=".45"/>
 <circle cy="44.25" cx="27.375" fill="#EC008C" r=".45"/>
 <circle cy="44.25" cx="24.813" fill="#EC008C" r=".45"/>
 <circle cy="44.25" cx="22.125" fill="#EC008C" r=".45"/>
 <circle cy="44.25" cx="19.563" fill="#EC008C" r=".45"/>
 <circle cy="44.25" cx="16.938" fill="#EC008C" r=".45"/>
 <circle cy="44.25" cx="14.375" fill="#EC008C" r=".45"/>
 <circle cy="44.25" cx="11.75" fill="#EC008C" r=".45"/>
 <circle cy="44.25" cx="9.125" fill="#EC008C" r=".45"/>
 <circle cy="44.25" cx="6.5" fill="#EC008C" r=".45"/>
 <circle cy="44.25" cx="3.875" fill="#EC008C" r=".45"/>
 <circle cy="44.25" cx="1.188" fill="#EC008C" r=".45"/>
 <path d="M0 46.08c.25 0 .45-.2.45-.45s-.2-.46-.45-.46" fill="#EC008C"/>
 <circle cy="45.625" cx="2.563" fill="#EC008C" r=".45"/>
 <circle cy="45.625" cx="5.188" fill="#EC008C" r=".45"/>
 <circle cy="45.625" cx="7.875" fill="#EC008C" r=".45"/>
 <circle cy="45.625" cx="10.438" fill="#EC008C" r=".45"/>
 <circle cy="45.625" cx="13" fill="#EC008C" r=".45"/>
 <circle cy="45.625" cx="15.625" fill="#EC008C" r=".45"/>
 <circle cy="45.625" cx="18.25" fill="#EC008C" r=".45"/>
 <circle cy="45.625" cx="20.938" fill="#EC008C" r=".45"/>
 <circle cy="45.625" cx="23.563" fill="#EC008C" r=".45"/>
 <circle cy="45.625" cx="26.063" fill="#EC008C" r=".45"/>
 <circle cy="45.625" cx="28.75" fill="#EC008C" r=".45"/>
 <circle cy="45.625" cx="31.375" fill="#EC008C" r=".45"/>
 <circle cy="45.625" cx="33.938" fill="#EC008C" r=".45"/>
 <circle cy="45.625" cx="36.625" fill="#EC008C" r=".45"/>
 <circle cy="45.625" cx="39.188" fill="#EC008C" r=".45"/>
 <circle cy="45.625" cx="41.813" fill="#EC008C" r=".45"/>
 <circle cy="45.625" cx="44.438" fill="#EC008C" r=".45"/>
 <circle cy="45.625" cx="47.063" fill="#EC008C" r=".45"/>
 <path d="M49.7 45.17c-.26 0-.46.2-.46.46s.2.45.45.45" fill="#EC008C"/>
 <circle cy="46.875" cx="48.438" fill="#EC008C" r=".45"/>
 <circle cy="46.875" cx="45.813" fill="#EC008C" r=".45"/>
 <circle cy="46.875" cx="43.188" fill="#EC008C" r=".45"/>
 <circle cy="46.875" cx="40.563" fill="#EC008C" r=".45"/>
 <circle cy="46.875" cx="37.938" fill="#EC008C" r=".45"/>
 <circle cy="46.875" cx="35.25" fill="#EC008C" r=".45"/>
 <circle cy="46.875" cx="32.688" fill="#EC008C" r=".45"/>
 <circle cy="46.875" cx="30.063" fill="#EC008C" r=".45"/>
 <circle cy="46.875" cx="27.375" fill="#EC008C" r=".45"/>
 <circle cy="46.875" cx="24.813" fill="#EC008C" r=".45"/>
 <circle cy="46.875" cx="22.125" fill="#EC008C" r=".45"/>
 <circle cy="46.875" cx="19.563" fill="#EC008C" r=".45"/>
 <circle cy="46.875" cx="16.938" fill="#EC008C" r=".45"/>
 <circle cy="46.875" cx="14.375" fill="#EC008C" r=".45"/>
 <circle cy="46.875" cx="11.75" fill="#EC008C" r=".45"/>
 <circle cy="46.875" cx="9.125" fill="#EC008C" r=".45"/>
 <circle cy="46.875" cx="6.5" fill="#EC008C" r=".45"/>
 <circle cy="46.875" cx="3.875" fill="#EC008C" r=".45"/>
 <circle cy="46.875" cx="1.188" fill="#EC008C" r=".45"/>
 <path d="M0 48.7c.25 0 .45-.2.45-.45s-.2-.45-.45-.45" fill="#EC008C"/>
 <circle cy="48.25" cx="2.563" fill="#EC008C" r=".45"/>
 <circle cy="48.25" cx="5.188" fill="#EC008C" r=".45"/>
 <circle cy="48.25" cx="7.875" fill="#EC008C" r=".45"/>
 <circle cy="48.25" cx="10.438" fill="#EC008C" r=".45"/>
 <circle cy="48.25" cx="13" fill="#EC008C" r=".45"/>
 <circle cy="48.25" cx="15.625" fill="#EC008C" r=".45"/>
 <circle cy="48.25" cx="18.25" fill="#EC008C" r=".45"/>
 <circle cy="48.25" cx="20.938" fill="#EC008C" r=".45"/>
 <circle cy="48.25" cx="23.563" fill="#EC008C" r=".45"/>
 <circle cy="48.25" cx="26.063" fill="#EC008C" r=".45"/>
 <circle cy="48.25" cx="28.75" fill="#EC008C" r=".45"/>
 <circle cy="48.25" cx="31.375" fill="#EC008C" r=".45"/>
 <circle cy="48.25" cx="33.938" fill="#EC008C" r=".45"/>
 <circle cy="48.25" cx="36.625" fill="#EC008C" r=".45"/>
 <circle cy="48.25" cx="39.188" fill="#EC008C" r=".45"/>
 <circle cy="48.25" cx="41.813" fill="#EC008C" r=".45"/>
 <circle cy="48.25" cx="44.438" fill="#EC008C" r=".45"/>
 <circle cy="48.25" cx="47.063" fill="#EC008C" r=".45"/>
 <path d="M49.7 47.8c-.26 0-.46.2-.46.45s.2.45.45.45M48 49.5c0-.25.2-.45.44-.45s.44.2.45.45M45.36 49.5c0-.25.2-.45.45-.45s.46.2.46.45M42.74 49.5c0-.25.2-.45.45-.45s.43.2.44.45M40.1 49.5c.02-.25.22-.45.46-.45s.45.2.45.45M37.5 49.5c0-.25.2-.45.44-.45s.44.2.45.45M34.8 49.5c0-.25.2-.45.45-.45s.45.2.45.45M32.24 49.5c0-.25.2-.45.45-.45s.43.2.44.45M29.6 49.5c0-.25.2-.45.46-.45s.45.2.45.45M26.93 49.5c0-.25.2-.45.45-.45s.44.2.45.45M24.36 49.5c0-.25.2-.45.45-.45s.46.2.46.45M21.68 49.5c0-.25.2-.45.45-.45s.44.2.45.45M19.1 49.5c0-.25.2-.45.46-.45s.45.2.45.45M16.5 49.5c0-.25.2-.45.44-.45s.44.2.45.45M13.93 49.5c0-.25.2-.45.45-.45s.44.2.44.45M11.3 49.5c0-.25.2-.45.45-.45s.45.2.45.45M8.68 49.5c0-.25.2-.45.45-.45s.44.2.44.45M6.05 49.5c0-.25.2-.45.45-.45s.45.2.45.45M3.42 49.5c0-.25.2-.45.45-.45s.45.2.45.45M.74 49.5c0-.25.2-.45.45-.45s.43.2.44.45" fill="#EC008C"/>
</svg>
