<?xml version="1.0"?>
<!-- Converted with SVG Converter - Version 0.9.5 (Compiled Fri Feb 21 09:53:38 2020) - Copyright (C) 2011 Nokia -->
<svg xmlns="http://www.w3.org/2000/svg" y="0px" height="72" xml:space="preserve" viewBox="0 -72 72 72" version="1.1" width="72" x="0px" baseProfile="tiny" xmlns:xlink="http://www.w3.org/1999/xlink">
 <g>
  <rect y="-72" height="72" style="fill:none;" width="72"/>
  <line y1="-69.25" style="fill:none;stroke:#EC008C;stroke-linecap:round;" y2="-69.25" x2="21" x1="21.05"/>
  <line y1="-64" style="fill:none;stroke:#EC008C;stroke-linecap:round;" y2="-64" x2="20" x1="20.05"/>
  <line y1="-61.75" style="fill:none;stroke:#EC008C;stroke-linecap:round;" y2="-61.75" x2="20.25" x1="20.3"/>
  <line y1="-61.75" style="fill:none;stroke:#EC008C;stroke-linecap:round;" y2="-61.75" x2="15.25" x1="15.3"/>
  <line y1="-52.25" style="fill:none;stroke:#EC008C;stroke-linecap:round;" y2="-52.25" x2="22.75" x1="22.8"/>
  <line y1="-49.25" style="fill:none;stroke:#EC008C;stroke-linecap:round;" y2="-49.25" x2="15.25" x1="15.3"/>
  <line y1="-48.25" style="fill:none;stroke:#EC008C;stroke-linecap:round;" y2="-48.25" x2="14" x1="14.05"/>
  <line y1="-45.25" style="fill:none;stroke:#EC008C;stroke-linecap:round;" y2="-45.25" x2="24" x1="24.05"/>
  <line y1="-46.5" style="fill:none;stroke:#EC008C;stroke-linecap:round;" y2="-46.5" x2="30.75" x1="30.8"/>
  <line y1="-49" style="fill:none;stroke:#EC008C;stroke-linecap:round;" y2="-49" x2="31.25" x1="31.3"/>
  <line y1="-54" style="fill:none;stroke:#EC008C;stroke-linecap:round;" y2="-54" x2="29.25" x1="29.3"/>
  <line y1="-52.5" style="fill:none;stroke:#EC008C;stroke-linecap:round;" y2="-52.5" x2="34" x1="34.05"/>
  <line y1="-57.5" style="fill:none;stroke:#EC008C;stroke-linecap:round;" y2="-57.5" x2="31.5" x1="31.55"/>
  <line y1="-60.5" style="fill:none;stroke:#EC008C;stroke-linecap:round;" y2="-60.5" x2="31.75" x1="31.8"/>
  <line y1="-65.25" style="fill:none;stroke:#EC008C;stroke-linecap:round;" y2="-65.25" x2="32.25" x1="32.3"/>
  <line y1="-69.25" style="fill:none;stroke:#EC008C;stroke-linecap:round;" y2="-69.25" x2="32" x1="32.05"/>
  <line y1="-71" style="fill:none;stroke:#EC008C;stroke-linecap:round;" y2="-71" x2="34" x1="34.05"/>
  <line y1="-65.25" style="fill:none;stroke:#EC008C;stroke-linecap:round;" y2="-65.25" x2="41.5" x1="41.55"/>
  <line y1="-65.5" style="fill:none;stroke:#EC008C;stroke-linecap:round;" y2="-65.5" x2="45.5" x1="45.55"/>
  <line y1="-58.75" style="fill:none;stroke:#EC008C;stroke-linecap:round;" y2="-58.75" x2="42.5" x1="42.55"/>
  <line y1="-58" style="fill:none;stroke:#EC008C;stroke-linecap:round;" y2="-58" x2="47" x1="47.05"/>
  <line y1="-56" style="fill:none;stroke:#EC008C;stroke-linecap:round;" y2="-56" x2="47" x1="47.05"/>
  <line y1="-51.5" style="fill:none;stroke:#EC008C;stroke-linecap:round;" y2="-51.5" x2="39" x1="39.05"/>
  <line y1="-58.75" style="fill:none;stroke:#EC008C;stroke-linecap:round;" y2="-58.75" x2="50.25" x1="50.3"/>
  <line y1="-60.25" style="fill:none;stroke:#EC008C;stroke-linecap:round;" y2="-60.25" x2="52.25" x1="52.3"/>
  <line y1="-61.25" style="fill:none;stroke:#EC008C;stroke-linecap:round;" y2="-61.25" x2="54.75" x1="54.8"/>
  <line y1="-71.5" style="fill:none;stroke:#EC008C;stroke-linecap:round;" y2="-71.5" x2="56.5" x1="56.55"/>
  <line y1="-69.25" style="fill:none;stroke:#EC008C;stroke-linecap:round;" y2="-69.25" x2="68" x1="68.05"/>
  <line y1="-62" style="fill:none;stroke:#EC008C;stroke-linecap:round;" y2="-62" x2="68" x1="68.05"/>
  <line y1="-60" style="fill:none;stroke:#EC008C;stroke-linecap:round;" y2="-60" x2="64.25" x1="64.3"/>
  <line y1="-56.5" style="fill:none;stroke:#EC008C;stroke-linecap:round;" y2="-56.5" x2="65.25" x1="65.3"/>
  <line y1="-52.5" style="fill:none;stroke:#EC008C;stroke-linecap:round;" y2="-52.5" x2="64" x1="64.05"/>
  <line y1="-52.5" style="fill:none;stroke:#EC008C;stroke-linecap:round;" y2="-52.5" x2="66.25" x1="66.3"/>
  <line y1="-51" style="fill:none;stroke:#EC008C;stroke-linecap:round;" y2="-51" x2="68" x1="68.05"/>
  <line y1="-20" style="fill:none;stroke:#EC008C;stroke-linecap:round;" y2="-20" x2="7" x1="7.05"/>
  <line y1="-17.75" style="fill:none;stroke:#EC008C;stroke-linecap:round;" y2="-17.75" x2="7.25" x1="7.3"/>
  <line y1="-17.75" style="fill:none;stroke:#EC008C;stroke-linecap:round;" y2="-17.75" x2="2.25" x1="2.3"/>
  <line y1="-8.25" style="fill:none;stroke:#EC008C;stroke-linecap:round;" y2="-8.25" x2="9.75" x1="9.8"/>
  <line y1="-4.25" style="fill:none;stroke:#EC008C;stroke-linecap:round;" y2="-4.25" x2="1" x1="1.05"/>
  <line y1="-1.25" style="fill:none;stroke:#EC008C;stroke-linecap:round;" y2="-1.25" x2="11" x1="11.05"/>
  <line y1="-5" style="fill:none;stroke:#EC008C;stroke-linecap:round;" y2="-5" x2="18.25" x1="18.3"/>
  <line y1="-10" style="fill:none;stroke:#EC008C;stroke-linecap:round;" y2="-10" x2="16.25" x1="16.3"/>
  <line y1="-14.5" style="fill:none;stroke:#EC008C;stroke-linecap:round;" y2="-14.5" x2="19.5" x1="19.55"/>
  <line y1="-16.5" style="fill:none;stroke:#EC008C;stroke-linecap:round;" y2="-16.5" x2="18.75" x1="18.8"/>
  <line y1="-17.5" style="fill:none;stroke:#EC008C;stroke-linecap:round;" y2="-17.5" x2="16.25" x1="16.3"/>
  <line y1="-21.25" style="fill:none;stroke:#EC008C;stroke-linecap:round;" y2="-21.25" x2="19.25" x1="19.3"/>
  <line y1="-25.25" style="fill:none;stroke:#EC008C;stroke-linecap:round;" y2="-25.25" x2="19" x1="19.05"/>
  <line y1="-25" style="fill:none;stroke:#EC008C;stroke-linecap:round;" y2="-25" x2="16.25" x1="16.3"/>
  <line y1="-21.5" style="fill:none;stroke:#EC008C;stroke-linecap:round;" y2="-21.5" x2="32.5" x1="32.55"/>
  <line y1="-18" style="fill:none;stroke:#EC008C;stroke-linecap:round;" y2="-18" x2="27.25" x1="27.3"/>
  <line y1="-16.5" style="fill:none;stroke:#EC008C;stroke-linecap:round;" y2="-16.5" x2="32" x1="32.05"/>
  <line y1="-14" style="fill:none;stroke:#EC008C;stroke-linecap:round;" y2="-14" x2="34" x1="34.05"/>
  <line y1="-7.5" style="fill:none;stroke:#EC008C;stroke-linecap:round;" y2="-7.5" x2="26" x1="26.05"/>
  <line y1="-16" style="fill:none;stroke:#EC008C;stroke-linecap:round;" y2="-16" x2="36" x1="36.05"/>
  <line y1="-16.25" style="fill:none;stroke:#EC008C;stroke-linecap:round;" y2="-16.25" x2="39.25" x1="39.3"/>
  <line y1="-21.5" style="fill:none;stroke:#EC008C;stroke-linecap:round;" y2="-21.5" x2="41.75" x1="41.8"/>
  <line y1="-27.5" style="fill:none;stroke:#EC008C;stroke-linecap:round;" y2="-27.5" x2="43.5" x1="43.55"/>
  <line y1="-21.75" style="fill:none;stroke:#EC008C;stroke-linecap:round;" y2="-21.75" x2="51" x1="51.05"/>
  <line y1="-25.75" style="fill:none;stroke:#EC008C;stroke-linecap:round;" y2="-25.75" x2="52" x1="52.05"/>
  <line y1="-25.25" style="fill:none;stroke:#EC008C;stroke-linecap:round;" y2="-25.25" x2="55" x1="55.05"/>
  <line y1="-18" style="fill:none;stroke:#EC008C;stroke-linecap:round;" y2="-18" x2="55" x1="55.05"/>
  <line y1="-16" style="fill:none;stroke:#EC008C;stroke-linecap:round;" y2="-16" x2="51.25" x1="51.3"/>
  <line y1="-8.5" style="fill:none;stroke:#EC008C;stroke-linecap:round;" y2="-8.5" x2="51" x1="51.05"/>
  <line y1="-8.5" style="fill:none;stroke:#EC008C;stroke-linecap:round;" y2="-8.5" x2="53.25" x1="53.3"/>
  <line y1="-9.25" style="fill:none;stroke:#EC008C;stroke-linecap:round;" y2="-9.25" x2="56" x1="56.05"/>
  <line y1="-10.75" style="fill:none;stroke:#EC008C;stroke-linecap:round;" y2="-10.75" x2="58.25" x1="58.3"/>
  <line y1="-48.25" style="fill:none;stroke:#EC008C;stroke-linecap:round;" y2="-48.25" x2="22.75" x1="22.8"/>
  <line y1="-47.5" style="fill:none;stroke:#EC008C;stroke-linecap:round;" y2="-47.5" x2="39" x1="39.05"/>
  <line y1="-45" style="fill:none;stroke:#EC008C;stroke-linecap:round;" y2="-45" x2="47.5" x1="47.55"/>
  <line y1="-44.25" style="fill:none;stroke:#EC008C;stroke-linecap:round;" y2="-44.25" x2="55.25" x1="55.3"/>
  <line y1="-47" style="fill:none;stroke:#EC008C;stroke-linecap:round;" y2="-47" x2="51.25" x1="51.3"/>
  <line y1="-42.75" style="fill:none;stroke:#EC008C;stroke-linecap:round;" y2="-42.75" x2="52" x1="52.05"/>
  <line y1="-36.75" style="fill:none;stroke:#EC008C;stroke-linecap:round;" y2="-36.75" x2="62.5" x1="62.55"/>
  <line y1="-33.25" style="fill:none;stroke:#EC008C;stroke-linecap:round;" y2="-33.25" x2="56.75" x1="56.8"/>
  <line y1="-35" style="fill:none;stroke:#EC008C;stroke-linecap:round;" y2="-35" x2="48.25" x1="48.3"/>
  <line y1="-31" style="fill:none;stroke:#EC008C;stroke-linecap:round;" y2="-31" x2="48" x1="48.05"/>
  <line y1="-27.25" style="fill:none;stroke:#EC008C;stroke-linecap:round;" y2="-27.25" x2="53.5" x1="53.55"/>
  <line y1="-24.25" style="fill:none;stroke:#EC008C;stroke-linecap:round;" y2="-24.25" x2="62.25" x1="62.3"/>
  <line y1="-20.5" style="fill:none;stroke:#EC008C;stroke-linecap:round;" y2="-20.5" x2="65" x1="65.05"/>
  <line y1="-27.25" style="fill:none;stroke:#EC008C;stroke-linecap:round;" y2="-27.25" x2="69.5" x1="69.55"/>
  <line y1="-33.25" style="fill:none;stroke:#EC008C;stroke-linecap:round;" y2="-33.25" x2="60" x1="60.05"/>
  <line y1="-25.25" style="fill:none;stroke:#EC008C;stroke-linecap:round;" y2="-25.25" x2="32.5" x1="32.55"/>
  <line y1="-34.5" style="fill:none;stroke:#EC008C;stroke-linecap:round;" y2="-34.5" x2="26.25" x1="26.3"/>
  <line y1="-36.75" style="fill:none;stroke:#EC008C;stroke-linecap:round;" y2="-36.75" x2="29.75" x1="29.8"/>
  <line y1="-42.75" style="fill:none;stroke:#EC008C;stroke-linecap:round;" y2="-42.75" x2="10.5" x1="10.55"/>
  <line y1="-40.75" style="fill:none;stroke:#EC008C;stroke-linecap:round;" y2="-40.75" x2="6" x1="6.05"/>
  <line y1="-37" style="fill:none;stroke:#EC008C;stroke-linecap:round;" y2="-37" x2="2.5" x1="2.55"/>
  <line y1="-30.25" style="fill:none;stroke:#EC008C;stroke-linecap:round;" y2="-30.25" x2="17" x1="17.05"/>
  <line y1="-36.25" style="fill:none;stroke:#EC008C;stroke-linecap:round;" y2="-36.25" x2="12.75" x1="12.8"/>
  <line y1="-42" style="fill:none;stroke:#EC008C;stroke-linecap:round;" y2="-42" x2="26.5" x1="26.55"/>
  <line y1="-41.5" style="fill:none;stroke:#EC008C;stroke-linecap:round;" y2="-41.5" x2="39.25" x1="39.3"/>
  <line y1="-39.5" style="fill:none;stroke:#EC008C;stroke-linecap:round;" y2="-39.5" x2="38.25" x1="38.3"/>
  <line y1="-30.25" style="fill:none;stroke:#EC008C;stroke-linecap:round;" y2="-30.25" x2="28" x1="28.05"/>
  <line y1="-51.75" style="fill:none;stroke:#EC008C;stroke-linecap:round;" y2="-51.75" x2="6.5" x1="6.55"/>
  <line y1="-53.5" style="fill:none;stroke:#EC008C;stroke-linecap:round;" y2="-53.5" x2="9.75" x1="9.8"/>
  <line y1="-48.75" style="fill:none;stroke:#EC008C;stroke-linecap:round;" y2="-48.75" x2="11.75" x1="11.8"/>
  <line y1="-46.5" style="fill:none;stroke:#EC008C;stroke-linecap:round;" y2="-46.5" x2="3" x1="3.05"/>
  <line y1="-42.75" style="fill:none;stroke:#EC008C;stroke-linecap:round;" y2="-42.75" x2="64.25" x1="64.3"/>
  <line y1="-42.5" style="fill:none;stroke:#EC008C;stroke-linecap:round;" y2="-42.5" x2="69.5" x1="69.55"/>
  <line y1="-63.25" style="fill:none;stroke:#EC008C;stroke-linecap:round;" y2="-63.25" x2="1.5" x1="1.55"/>
  <line y1="-66.25" style="fill:none;stroke:#EC008C;stroke-linecap:round;" y2="-66.25" x2="16.5" x1="16.55"/>
  <line y1="-66.25" style="fill:none;stroke:#EC008C;stroke-linecap:round;" y2="-66.25" x2="3.75" x1="3.8"/>
  <line y1="-58" style="fill:none;stroke:#EC008C;stroke-linecap:round;" y2="-58" x2="12.75" x1="12.8"/>
  <line y1="-53" style="fill:none;stroke:#EC008C;stroke-linecap:round;" y2="-53" x2="18.5" x1="18.55"/>
  <line y1="-35.25" style="fill:none;stroke:#EC008C;stroke-linecap:round;" y2="-35.25" x2="21.25" x1="21.3"/>
  <line y1="-28" style="fill:none;stroke:#EC008C;stroke-linecap:round;" y2="-28" x2="0.75" x1="0.8"/>
  <line y1="-6.25" style="fill:none;stroke:#EC008C;stroke-linecap:round;" y2="-6.25" x2="68" x1="68.05"/>
  <line y1="-2.5" style="fill:none;stroke:#EC008C;stroke-linecap:round;" y2="-2.5" x2="59.75" x1="59.8"/>
  <line y1="-4.25" style="fill:none;stroke:#EC008C;stroke-linecap:round;" y2="-4.25" x2="40.5" x1="40.55"/>
  <line y1="-12.25" style="fill:none;stroke:#EC008C;stroke-linecap:round;" y2="-12.25" x2="4.5" x1="4.55"/>
  <line y1="-12.75" style="fill:none;stroke:#EC008C;stroke-linecap:round;" y2="-12.75" x2="26.5" x1="26.55"/>
  <line y1="-23.75" style="fill:none;stroke:#EC008C;stroke-linecap:round;" y2="-23.75" x2="37.25" x1="37.3"/>
  <line y1="-32" style="fill:none;stroke:#EC008C;stroke-linecap:round;" y2="-32" x2="8.75" x1="8.8"/>
  <line y1="-34.25" style="fill:none;stroke:#EC008C;stroke-linecap:round;" y2="-34.25" x2="52.25" x1="52.3"/>
  <line y1="-26.25" style="fill:none;stroke:#EC008C;stroke-linecap:round;" y2="-26.25" x2="60.75" x1="60.8"/>
  <line y1="-6" style="fill:none;stroke:#EC008C;stroke-linecap:round;" y2="-6" x2="51.25" x1="51.3"/>
  <line y1="-34.5" style="fill:none;stroke:#EC008C;stroke-linecap:round;" y2="-34.5" x2="40" x1="40.05"/>
  <line y1="-58.75" style="fill:none;stroke:#EC008C;stroke-linecap:round;" y2="-58.75" x2="27.5" x1="27.55"/>
  <line y1="-45.75" style="fill:none;stroke:#EC008C;stroke-linecap:round;" y2="-45.75" x2="19.75" x1="19.8"/>
  <line y1="-70.5" style="fill:none;stroke:#EC008C;stroke-linecap:round;" y2="-70.5" x2="11.75" x1="11.8"/>
  <line y1="-68.5" style="fill:none;stroke:#EC008C;stroke-linecap:round;" y2="-68.5" x2="55.25" x1="55.3"/>
  <line y1="-2.5" style="fill:none;stroke:#EC008C;stroke-linecap:round;" y2="-2.5" x2="47.25" x1="47.3"/>
  <line y1="-32" style="fill:none;stroke:#EC008C;stroke-linecap:round;" y2="-32" x2="4.75" x1="4.8"/>
  <line y1="-59" style="fill:none;stroke:#EC008C;stroke-linecap:round;" y2="-59" x2="68.75" x1="68.8"/>
  <line y1="-58.25" style="fill:none;stroke:#EC008C;stroke-linecap:round;" y2="-58.25" x2="23.25" x1="23.3"/>
  <line y1="-55" style="fill:none;stroke:#EC008C;stroke-linecap:round;" y2="-55" x2="20.5" x1="20.55"/>
  <line y1="-55" style="fill:none;stroke:#EC008C;stroke-linecap:round;" y2="-55" x2="14.75" x1="14.8"/>
  <line y1="-60.5" style="fill:none;stroke:#EC008C;stroke-linecap:round;" y2="-60.5" x2="6" x1="6.05"/>
  <line y1="-69.5" style="fill:none;stroke:#EC008C;stroke-linecap:round;" y2="-69.5" x2="7" x1="7.05"/>
  <line y1="-64" style="fill:none;stroke:#EC008C;stroke-linecap:round;" y2="-64" x2="10" x1="10.05"/>
  <line y1="-64" style="fill:none;stroke:#EC008C;stroke-linecap:round;" y2="-64" x2="14.25" x1="14.3"/>
  <line y1="-65.25" style="fill:none;stroke:#EC008C;stroke-linecap:round;" y2="-65.25" x2="25.75" x1="25.8"/>
  <line y1="-64.75" style="fill:none;stroke:#EC008C;stroke-linecap:round;" y2="-64.75" x2="37" x1="37.05"/>
  <line y1="-68" style="fill:none;stroke:#EC008C;stroke-linecap:round;" y2="-68" x2="37.5" x1="37.55"/>
  <line y1="-70" style="fill:none;stroke:#EC008C;stroke-linecap:round;" y2="-70" x2="43.25" x1="43.3"/>
  <line y1="-64" style="fill:none;stroke:#EC008C;stroke-linecap:round;" y2="-64" x2="49.5" x1="49.55"/>
  <line y1="-63" style="fill:none;stroke:#EC008C;stroke-linecap:round;" y2="-63" x2="46" x1="46.05"/>
  <line y1="-61.25" style="fill:none;stroke:#EC008C;stroke-linecap:round;" y2="-61.25" x2="35.75" x1="35.8"/>
  <line y1="-57.25" style="fill:none;stroke:#EC008C;stroke-linecap:round;" y2="-57.25" x2="39.25" x1="39.3"/>
  <line y1="-54.25" style="fill:none;stroke:#EC008C;stroke-linecap:round;" y2="-54.25" x2="24.75" x1="24.8"/>
  <line y1="-45" style="fill:none;stroke:#EC008C;stroke-linecap:round;" y2="-45" x2="8.25" x1="8.3"/>
  <line y1="-40.5" style="fill:none;stroke:#EC008C;stroke-linecap:round;" y2="-40.5" x2="16" x1="16.05"/>
  <line y1="-38.75" style="fill:none;stroke:#EC008C;stroke-linecap:round;" y2="-38.75" x2="10.5" x1="10.55"/>
  <line y1="-35.25" style="fill:none;stroke:#EC008C;stroke-linecap:round;" y2="-35.25" x2="5.25" x1="5.3"/>
  <line y1="-51.75" style="fill:none;stroke:#EC008C;stroke-linecap:round;" y2="-51.75" x2="3.25" x1="3.3"/>
  <line y1="-41.5" style="fill:none;stroke:#EC008C;stroke-linecap:round;" y2="-41.5" x2="20.5" x1="20.55"/>
  <line y1="-36.75" style="fill:none;stroke:#EC008C;stroke-linecap:round;" y2="-36.75" x2="17.5" x1="17.55"/>
  <line y1="-33.25" style="fill:none;stroke:#EC008C;stroke-linecap:round;" y2="-33.25" x2="16" x1="16.05"/>
  <line y1="-31" style="fill:none;stroke:#EC008C;stroke-linecap:round;" y2="-31" x2="12.75" x1="12.8"/>
  <line y1="-25.75" style="fill:none;stroke:#EC008C;stroke-linecap:round;" y2="-25.75" x2="12.75" x1="12.8"/>
  <line y1="-23.75" style="fill:none;stroke:#EC008C;stroke-linecap:round;" y2="-23.75" x2="5.75" x1="5.8"/>
  <line y1="-17.75" style="fill:none;stroke:#EC008C;stroke-linecap:round;" y2="-17.75" x2="11" x1="11.05"/>
  <line y1="-13.75" style="fill:none;stroke:#EC008C;stroke-linecap:round;" y2="-13.75" x2="15.5" x1="15.55"/>
  <line y1="-8.75" style="fill:none;stroke:#EC008C;stroke-linecap:round;" y2="-8.75" x2="6" x1="6.05"/>
  <line y1="-10.25" style="fill:none;stroke:#EC008C;stroke-linecap:round;" y2="-10.25" x2="2.25" x1="2.3"/>
  <line y1="-4.25" style="fill:none;stroke:#EC008C;stroke-linecap:round;" y2="-4.25" x2="9" x1="9.05"/>
  <line y1="-2.75" style="fill:none;stroke:#EC008C;stroke-linecap:round;" y2="-2.75" x2="13.5" x1="13.55"/>
  <line y1="-3.75" style="fill:none;stroke:#EC008C;stroke-linecap:round;" y2="-3.75" x2="21.5" x1="21.55"/>
  <line y1="-6.5" style="fill:none;stroke:#EC008C;stroke-linecap:round;" y2="-6.5" x2="23" x1="23.05"/>
  <line y1="-12.25" style="fill:none;stroke:#EC008C;stroke-linecap:round;" y2="-12.25" x2="22.25" x1="22.3"/>
  <line y1="-14.75" style="fill:none;stroke:#EC008C;stroke-linecap:round;" y2="-14.75" x2="24.25" x1="24.3"/>
  <line y1="-24.5" style="fill:none;stroke:#EC008C;stroke-linecap:round;" y2="-24.5" x2="26.25" x1="26.3"/>
  <line y1="-28.75" style="fill:none;stroke:#EC008C;stroke-linecap:round;" y2="-28.75" x2="25.75" x1="25.8"/>
  <line y1="-41.25" style="fill:none;stroke:#EC008C;stroke-linecap:round;" y2="-41.25" x2="32.25" x1="32.3"/>
  <line y1="-44.5" style="fill:none;stroke:#EC008C;stroke-linecap:round;" y2="-44.5" x2="34.25" x1="34.3"/>
  <line y1="-46.5" style="fill:none;stroke:#EC008C;stroke-linecap:round;" y2="-46.5" x2="41.75" x1="41.8"/>
  <line y1="-51.5" style="fill:none;stroke:#EC008C;stroke-linecap:round;" y2="-51.5" x2="43" x1="43.05"/>
  <line y1="-53" style="fill:none;stroke:#EC008C;stroke-linecap:round;" y2="-53" x2="36.5" x1="36.55"/>
  <line y1="-50" style="fill:none;stroke:#EC008C;stroke-linecap:round;" y2="-50" x2="27.75" x1="27.8"/>
  <line y1="-50.25" style="fill:none;stroke:#EC008C;stroke-linecap:round;" y2="-50.25" x2="52" x1="52.05"/>
  <line y1="-54.5" style="fill:none;stroke:#EC008C;stroke-linecap:round;" y2="-54.5" x2="43.25" x1="43.3"/>
  <line y1="-54.25" style="fill:none;stroke:#EC008C;stroke-linecap:round;" y2="-54.25" x2="50.5" x1="50.55"/>
  <line y1="-55" style="fill:none;stroke:#EC008C;stroke-linecap:round;" y2="-55" x2="59.5" x1="59.55"/>
  <line y1="-58.25" style="fill:none;stroke:#EC008C;stroke-linecap:round;" y2="-58.25" x2="58.25" x1="58.3"/>
  <line y1="-61.25" style="fill:none;stroke:#EC008C;stroke-linecap:round;" y2="-61.25" x2="61.5" x1="61.55"/>
  <line y1="-64.75" style="fill:none;stroke:#EC008C;stroke-linecap:round;" y2="-64.75" x2="58.75" x1="58.8"/>
  <line y1="-67.5" style="fill:none;stroke:#EC008C;stroke-linecap:round;" y2="-67.5" x2="60" x1="60.05"/>
  <line y1="-66.25" style="fill:none;stroke:#EC008C;stroke-linecap:round;" y2="-66.25" x2="67.5" x1="67.55"/>
  <line y1="-63.75" style="fill:none;stroke:#EC008C;stroke-linecap:round;" y2="-63.75" x2="70.75" x1="70.8"/>
  <line y1="-62.5" style="fill:none;stroke:#EC008C;stroke-linecap:round;" y2="-62.5" x2="65.75" x1="65.8"/>
  <line y1="-48.5" style="fill:none;stroke:#EC008C;stroke-linecap:round;" y2="-48.5" x2="60.25" x1="60.3"/>
  <line y1="-48.5" style="fill:none;stroke:#EC008C;stroke-linecap:round;" y2="-48.5" x2="55.5" x1="55.55"/>
  <line y1="-53.5" style="fill:none;stroke:#EC008C;stroke-linecap:round;" y2="-53.5" x2="55.5" x1="55.55"/>
  <line y1="-46.5" style="fill:none;stroke:#EC008C;stroke-linecap:round;" y2="-46.5" x2="65" x1="65.05"/>
  <line y1="-41.5" style="fill:none;stroke:#EC008C;stroke-linecap:round;" y2="-41.5" x2="57.75" x1="57.8"/>
  <line y1="-39.5" style="fill:none;stroke:#EC008C;stroke-linecap:round;" y2="-39.5" x2="52.75" x1="52.8"/>
  <line y1="-38.5" style="fill:none;stroke:#EC008C;stroke-linecap:round;" y2="-38.5" x2="47.5" x1="47.55"/>
  <line y1="-33" style="fill:none;stroke:#EC008C;stroke-linecap:round;" y2="-33" x2="44.25" x1="44.3"/>
  <line y1="-30.75" style="fill:none;stroke:#EC008C;stroke-linecap:round;" y2="-30.75" x2="34" x1="34.05"/>
  <line y1="-24.25" style="fill:none;stroke:#EC008C;stroke-linecap:round;" y2="-24.25" x2="40.75" x1="40.8"/>
  <line y1="-20" style="fill:none;stroke:#EC008C;stroke-linecap:round;" y2="-20" x2="45.75" x1="45.8"/>
  <line y1="-15.5" style="fill:none;stroke:#EC008C;stroke-linecap:round;" y2="-15.5" x2="46.5" x1="46.55"/>
  <line y1="-12.75" style="fill:none;stroke:#EC008C;stroke-linecap:round;" y2="-12.75" x2="42" x1="42.05"/>
  <line y1="-9.5" style="fill:none;stroke:#EC008C;stroke-linecap:round;" y2="-9.5" x2="40" x1="40.05"/>
  <line y1="-9.5" style="fill:none;stroke:#EC008C;stroke-linecap:round;" y2="-9.5" x2="36" x1="36.05"/>
  <line y1="-19.5" style="fill:none;stroke:#EC008C;stroke-linecap:round;" y2="-19.5" x2="36.5" x1="36.55"/>
  <line y1="-8.75" style="fill:none;stroke:#EC008C;stroke-linecap:round;" y2="-8.75" x2="30" x1="30.05"/>
  <line y1="-3.75" style="fill:none;stroke:#EC008C;stroke-linecap:round;" y2="-3.75" x2="31.5" x1="31.55"/>
  <line y1="-1.25" style="fill:none;stroke:#EC008C;stroke-linecap:round;" y2="-1.25" x2="37" x1="37.05"/>
  <line y1="-15.25" style="fill:none;stroke:#EC008C;stroke-linecap:round;" y2="-15.25" x2="63" x1="63.05"/>
  <line y1="-21.5" style="fill:none;stroke:#EC008C;stroke-linecap:round;" y2="-21.5" x2="60" x1="60.05"/>
  <line y1="-21.75" style="fill:none;stroke:#EC008C;stroke-linecap:round;" y2="-21.75" x2="54.5" x1="54.55"/>
  <line y1="-30.5" style="fill:none;stroke:#EC008C;stroke-linecap:round;" y2="-30.5" x2="54.75" x1="54.8"/>
  <line y1="-30" style="fill:none;stroke:#EC008C;stroke-linecap:round;" y2="-30" x2="62.5" x1="62.55"/>
  <line y1="-24.75" style="fill:none;stroke:#EC008C;stroke-linecap:round;" y2="-24.75" x2="67" x1="67.05"/>
  <line y1="-18" style="fill:none;stroke:#EC008C;stroke-linecap:round;" y2="-18" x2="69.5" x1="69.55"/>
  <line y1="-10.5" style="fill:none;stroke:#EC008C;stroke-linecap:round;" y2="-10.5" x2="63.5" x1="63.55"/>
  <line y1="-11.25" style="fill:none;stroke:#EC008C;stroke-linecap:round;" y2="-11.25" x2="70.25" x1="70.3"/>
  <line y1="-6.75" style="fill:none;stroke:#EC008C;stroke-linecap:round;" y2="-6.75" x2="64.75" x1="64.8"/>
  <line y1="-4" style="fill:none;stroke:#EC008C;stroke-linecap:round;" y2="-4" x2="65.75" x1="65.8"/>
  <line y1="-2" style="fill:none;stroke:#EC008C;stroke-linecap:round;" y2="-2" x2="62.5" x1="62.55"/>
  <line y1="-2.5" style="fill:none;stroke:#EC008C;stroke-linecap:round;" y2="-2.5" x2="52.75" x1="52.8"/>
  <line y1="-5.75" style="fill:none;stroke:#EC008C;stroke-linecap:round;" y2="-5.75" x2="44.75" x1="44.8"/>
  <line y1="-1" style="fill:none;stroke:#EC008C;stroke-linecap:round;" y2="-1" x2="28.5" x1="28.55"/>
  <line y1="-42.75" style="fill:none;stroke:#EC008C;stroke-linecap:round;" y2="-42.75" x2="3" x1="3.05"/>
  <line y1="-67.25" style="fill:none;stroke:#EC008C;stroke-linecap:round;" y2="-67.25" x2="13.25" x1="13.3"/>
  <line y1="-37.75" style="fill:none;stroke:#EC008C;stroke-linecap:round;" y2="-37.75" x2="70.25" x1="70.3"/>
  <line y1="-31" style="fill:none;stroke:#EC008C;stroke-linecap:round;" y2="-31" x2="71.25" x1="71.3"/>
  <line y1="-20.5" style="fill:none;stroke:#EC008C;stroke-linecap:round;" y2="-20.5" x2="1" x1="1.05"/>
  <line y1="-45.75" style="fill:none;stroke:#EC008C;stroke-linecap:round;" y2="-45.75" x2="69" x1="69.05"/>
  <line y1="-12" style="fill:none;stroke:#EC008C;stroke-linecap:round;" y2="-12" x2="68.5" x1="68.55"/>
  <line y1="-14.5" style="fill:none;stroke:#EC008C;stroke-linecap:round;" y2="-14.5" x2="0.5" x1="0.55"/>
  <line y1="-1" style="fill:none;stroke:#EC008C;stroke-linecap:round;" y2="-1" x2="2.75" x1="2.8"/>
  <line y1="-48.25" style="fill:none;stroke:#EC008C;stroke-linecap:round;" y2="-48.25" x2="70.25" x1="70.3"/>
  <line y1="-55.5" style="fill:none;stroke:#EC008C;stroke-linecap:round;" y2="-55.5" x2="1.25" x1="1.3"/>
  <line y1="-59.5" style="fill:none;stroke:#EC008C;stroke-linecap:round;" y2="-59.5" x2="18" x1="18.05"/>
  <line y1="-61.5" style="fill:none;stroke:#EC008C;stroke-linecap:round;" y2="-61.5" x2="29.25" x1="29.3"/>
  <line y1="-69" style="fill:none;stroke:#EC008C;stroke-linecap:round;" y2="-69" x2="29.25" x1="29.3"/>
  <line y1="-62" style="fill:none;stroke:#EC008C;stroke-linecap:round;" y2="-62" x2="40.25" x1="40.3"/>
  <line y1="-60.5" style="fill:none;stroke:#EC008C;stroke-linecap:round;" y2="-60.5" x2="45" x1="45.05"/>
  <line y1="-49.5" style="fill:none;stroke:#EC008C;stroke-linecap:round;" y2="-49.5" x2="47.25" x1="47.3"/>
  <line y1="-65.5" style="fill:none;stroke:#EC008C;stroke-linecap:round;" y2="-65.5" x2="54.75" x1="54.8"/>
  <line y1="-65.75" style="fill:none;stroke:#EC008C;stroke-linecap:round;" y2="-65.75" x2="64" x1="64.05"/>
  <line y1="-69.75" style="fill:none;stroke:#EC008C;stroke-linecap:round;" y2="-69.75" x2="65" x1="65.05"/>
  <line y1="-54.25" style="fill:none;stroke:#EC008C;stroke-linecap:round;" y2="-54.25" x2="69.5" x1="69.55"/>
  <line y1="-25.25" style="fill:none;stroke:#EC008C;stroke-linecap:round;" y2="-25.25" x2="8" x1="8.05"/>
  <line y1="-15.5" style="fill:none;stroke:#EC008C;stroke-linecap:round;" y2="-15.5" x2="5" x1="5.05"/>
  <line y1="-6.5" style="fill:none;stroke:#EC008C;stroke-linecap:round;" y2="-6.5" x2="3.25" x1="3.3"/>
  <line y1="-2.5" style="fill:none;stroke:#EC008C;stroke-linecap:round;" y2="-2.5" x2="17.75" x1="17.8"/>
  <line y1="-10" style="fill:none;stroke:#EC008C;stroke-linecap:round;" y2="-10" x2="19.25" x1="19.3"/>
  <line y1="-27" style="fill:none;stroke:#EC008C;stroke-linecap:round;" y2="-27" x2="21" x1="21.05"/>
  <line y1="-21.25" style="fill:none;stroke:#EC008C;stroke-linecap:round;" y2="-21.25" x2="28.5" x1="28.55"/>
  <line y1="-12" style="fill:none;stroke:#EC008C;stroke-linecap:round;" y2="-12" x2="34" x1="34.05"/>
  <line y1="-5.5" style="fill:none;stroke:#EC008C;stroke-linecap:round;" y2="-5.5" x2="34.25" x1="34.3"/>
  <line y1="-17.25" style="fill:none;stroke:#EC008C;stroke-linecap:round;" y2="-17.25" x2="41.75" x1="41.8"/>
  <line y1="-12.5" style="fill:none;stroke:#EC008C;stroke-linecap:round;" y2="-12.5" x2="52.25" x1="52.3"/>
  <line y1="-7" style="fill:none;stroke:#EC008C;stroke-linecap:round;" y2="-7" x2="55" x1="55.05"/>
  <line y1="-47.75" style="fill:none;stroke:#EC008C;stroke-linecap:round;" y2="-47.75" x2="25.25" x1="25.3"/>
  <line y1="-49" style="fill:none;stroke:#EC008C;stroke-linecap:round;" y2="-49" x2="35.25" x1="35.3"/>
  <line y1="-42.75" style="fill:none;stroke:#EC008C;stroke-linecap:round;" y2="-42.75" x2="45" x1="45.05"/>
  <line y1="-29.25" style="fill:none;stroke:#EC008C;stroke-linecap:round;" y2="-29.25" x2="52" x1="52.05"/>
  <line y1="-20.5" style="fill:none;stroke:#EC008C;stroke-linecap:round;" y2="-20.5" x2="67" x1="67.05"/>
  <line y1="-24.5" style="fill:none;stroke:#EC008C;stroke-linecap:round;" y2="-24.5" x2="47.25" x1="47.3"/>
  <line y1="-27.75" style="fill:none;stroke:#EC008C;stroke-linecap:round;" y2="-27.75" x2="37" x1="37.05"/>
  <line y1="-43.75" style="fill:none;stroke:#EC008C;stroke-linecap:round;" y2="-43.75" x2="17" x1="17.05"/>
  <line y1="-35.5" style="fill:none;stroke:#EC008C;stroke-linecap:round;" y2="-35.5" x2="11.25" x1="11.3"/>
  <line y1="-41.5" style="fill:none;stroke:#EC008C;stroke-linecap:round;" y2="-41.5" x2="67.5" x1="67.55"/>
  <line y1="-56.5" style="fill:none;stroke:#EC008C;stroke-linecap:round;" y2="-56.5" x2="7.25" x1="7.3"/>
  <line y1="-67" style="fill:none;stroke:#EC008C;stroke-linecap:round;" y2="-67" x2="8.5" x1="8.55"/>
  <line y1="-69.75" style="fill:none;stroke:#EC008C;stroke-linecap:round;" y2="-69.75" x2="3.5" x1="3.55"/>
  <line y1="-35" style="fill:none;stroke:#EC008C;stroke-linecap:round;" y2="-35" x2="66.5" x1="66.55"/>
  <line y1="-9.25" style="fill:none;stroke:#EC008C;stroke-linecap:round;" y2="-9.25" x2="44" x1="44.05"/>
  <line y1="-2.25" style="fill:none;stroke:#EC008C;stroke-linecap:round;" y2="-2.25" x2="25.75" x1="25.8"/>
  <line y1="-30.5" style="fill:none;stroke:#EC008C;stroke-linecap:round;" y2="-30.5" x2="22" x1="22.05"/>
  <line y1="-43.25" style="fill:none;stroke:#EC008C;stroke-linecap:round;" y2="-43.25" x2="24" x1="24.05"/>
  <line y1="-37.75" style="fill:none;stroke:#EC008C;stroke-linecap:round;" y2="-37.75" x2="41.5" x1="41.55"/>
  <line y1="-28.5" style="fill:none;stroke:#EC008C;stroke-linecap:round;" y2="-28.5" x2="67.5" x1="67.55"/>
  <line y1="-57.25" style="fill:none;stroke:#EC008C;stroke-linecap:round;" y2="-57.25" x2="53.25" x1="53.3"/>
  <line y1="-56.25" style="fill:none;stroke:#EC008C;stroke-linecap:round;" y2="-56.25" x2="34" x1="34.05"/>
  <line y1="-53" style="fill:none;stroke:#EC008C;stroke-linecap:round;" y2="-53" x2="12.75" x1="12.8"/>
  <line y1="-67.75" style="fill:none;stroke:#EC008C;stroke-linecap:round;" y2="-67.75" x2="49.5" x1="49.55"/>
  <line y1="-51.5" style="fill:none;stroke:#EC008C;stroke-linecap:round;" y2="-51.5" x2="59" x1="59.05"/>
  <line y1="-15" style="fill:none;stroke:#EC008C;stroke-linecap:round;" y2="-15" x2="67.5" x1="67.55"/>
  <line y1="-2.5" style="fill:none;stroke:#EC008C;stroke-linecap:round;" y2="-2.5" x2="5.25" x1="5.3"/>
  <line y1="-59" style="fill:none;stroke:#EC008C;stroke-linecap:round;" y2="-59" x2="2.75" x1="2.8"/>
  <line y1="-69" style="fill:none;stroke:#EC008C;stroke-linecap:round;" y2="-69" x2="16.5" x1="16.55"/>
  <line y1="-67.75" style="fill:none;stroke:#EC008C;stroke-linecap:round;" y2="-67.75" x2="40.5" x1="40.55"/>
  <line y1="-40.25" style="fill:none;stroke:#EC008C;stroke-linecap:round;" y2="-40.25" x2="2.75" x1="2.8"/>
  <line y1="-47.25" style="fill:none;stroke:#EC008C;stroke-linecap:round;" y2="-47.25" x2="7.5" x1="7.55"/>
  <line y1="-25.5" style="fill:none;stroke:#EC008C;stroke-linecap:round;" y2="-25.5" x2="4" x1="4.05"/>
  <line y1="-21.75" style="fill:none;stroke:#EC008C;stroke-linecap:round;" y2="-21.75" x2="11" x1="11.05"/>
  <line y1="-12.5" style="fill:none;stroke:#EC008C;stroke-linecap:round;" y2="-12.5" x2="10" x1="10.05"/>
  <line y1="-6.5" style="fill:none;stroke:#EC008C;stroke-linecap:round;" y2="-6.5" x2="13.5" x1="13.55"/>
  <line y1="-19" style="fill:none;stroke:#EC008C;stroke-linecap:round;" y2="-19" x2="22" x1="22.05"/>
  <line y1="-34.75" style="fill:none;stroke:#EC008C;stroke-linecap:round;" y2="-34.75" x2="31.25" x1="31.3"/>
  <line y1="-38.25" style="fill:none;stroke:#EC008C;stroke-linecap:round;" y2="-38.25" x2="26" x1="26.05"/>
  <line y1="-43.75" style="fill:none;stroke:#EC008C;stroke-linecap:round;" y2="-43.75" x2="37.25" x1="37.3"/>
  <line y1="-55.75" style="fill:none;stroke:#EC008C;stroke-linecap:round;" y2="-55.75" x2="61.75" x1="61.8"/>
  <line y1="-45.25" style="fill:none;stroke:#EC008C;stroke-linecap:round;" y2="-45.25" x2="61.25" x1="61.3"/>
  <line y1="-15.25" style="fill:none;stroke:#EC008C;stroke-linecap:round;" y2="-15.25" x2="58.75" x1="58.8"/>
  <line y1="-28" style="fill:none;stroke:#EC008C;stroke-linecap:round;" y2="-28" x2="59.25" x1="59.3"/>
  <line y1="-36.75" style="fill:none;stroke:#EC008C;stroke-linecap:round;" y2="-36.75" x2="55.75" x1="55.8"/>
  <line y1="-1.75" style="fill:none;stroke:#EC008C;stroke-linecap:round;" y2="-1.75" x2="69.25" x1="69.3"/>
  <line y1="-6.5" style="fill:none;stroke:#EC008C;stroke-linecap:round;" y2="-6.5" x2="60.75" x1="60.8"/>
  <line y1="-1" style="fill:none;stroke:#EC008C;stroke-linecap:round;" y2="-1" x2="44.5" x1="44.55"/>
  <line y1="-71.25" style="fill:none;stroke:#EC008C;stroke-linecap:round;" y2="-71.25" x2="24.5" x1="24.55"/>
  <line y1="-4.438" style="fill:none;stroke:#EC008C;stroke-linecap:round;" y2="-4.438" x2="68.75" x1="68.8"/>
  <line y1="-35.75" style="fill:none;stroke:#EC008C;stroke-linecap:round;" y2="-35.75" x2="36" x1="36.05"/>
  <line y1="-31.25" style="fill:none;stroke:#EC008C;stroke-linecap:round;" y2="-31.25" x2="39.5" x1="39.55"/>
  <line y1="-40.5" style="fill:none;stroke:#EC008C;stroke-linecap:round;" y2="-40.5" x2="62.25" x1="62.3"/>
  <line y1="-29.25" style="fill:none;stroke:#EC008C;stroke-linecap:round;" y2="-29.25" x2="7.25" x1="7.3"/>
 </g>
</svg>
