<?xml version="1.0"?>
<!-- Converted with SVG Converter - Version 0.9.5 (Compiled Fri Feb 21 09:53:38 2020) - Copyright (C) 2011 Nokia -->
<svg xmlns="http://www.w3.org/2000/svg" version="1.1" height="72" xmlns:xlink="http://www.w3.org/1999/xlink" x="0px" xml:space="preserve" width="72" y="0px" viewBox="0 -72 72 72" baseProfile="tiny">
 <g>
  <rect height="72" width="72" y="-72" style="fill:none;"/>
  <line y2="-69.25" y1="-69.25" style="fill:none;stroke:#EC008C;stroke-linecap:round;" x1="21.05" x2="21"/>
  <line y2="-64" y1="-64" style="fill:none;stroke:#EC008C;stroke-linecap:round;" x1="20.05" x2="20"/>
  <line y2="-61.75" y1="-61.75" style="fill:none;stroke:#EC008C;stroke-linecap:round;" x1="20.3" x2="20.25"/>
  <line y2="-61.75" y1="-61.75" style="fill:none;stroke:#EC008C;stroke-linecap:round;" x1="15.3" x2="15.25"/>
  <line y2="-52.25" y1="-52.25" style="fill:none;stroke:#EC008C;stroke-linecap:round;" x1="22.8" x2="22.75"/>
  <line y2="-49.25" y1="-49.25" style="fill:none;stroke:#EC008C;stroke-linecap:round;" x1="15.3" x2="15.25"/>
  <line y2="-48.25" y1="-48.25" style="fill:none;stroke:#EC008C;stroke-linecap:round;" x1="14.05" x2="14"/>
  <line y2="-45.25" y1="-45.25" style="fill:none;stroke:#EC008C;stroke-linecap:round;" x1="24.05" x2="24"/>
  <line y2="-46.5" y1="-46.5" style="fill:none;stroke:#EC008C;stroke-linecap:round;" x1="30.8" x2="30.75"/>
  <line y2="-49" y1="-49" style="fill:none;stroke:#EC008C;stroke-linecap:round;" x1="31.3" x2="31.25"/>
  <line y2="-54" y1="-54" style="fill:none;stroke:#EC008C;stroke-linecap:round;" x1="29.3" x2="29.25"/>
  <line y2="-52.5" y1="-52.5" style="fill:none;stroke:#EC008C;stroke-linecap:round;" x1="34.05" x2="34"/>
  <line y2="-57.5" y1="-57.5" style="fill:none;stroke:#EC008C;stroke-linecap:round;" x1="31.55" x2="31.5"/>
  <line y2="-60.5" y1="-60.5" style="fill:none;stroke:#EC008C;stroke-linecap:round;" x1="31.8" x2="31.75"/>
  <line y2="-65.25" y1="-65.25" style="fill:none;stroke:#EC008C;stroke-linecap:round;" x1="32.3" x2="32.25"/>
  <line y2="-69.25" y1="-69.25" style="fill:none;stroke:#EC008C;stroke-linecap:round;" x1="32.05" x2="32"/>
  <line y2="-71" y1="-71" style="fill:none;stroke:#EC008C;stroke-linecap:round;" x1="34.05" x2="34"/>
  <line y2="-65.25" y1="-65.25" style="fill:none;stroke:#EC008C;stroke-linecap:round;" x1="41.55" x2="41.5"/>
  <line y2="-65.5" y1="-65.5" style="fill:none;stroke:#EC008C;stroke-linecap:round;" x1="45.55" x2="45.5"/>
  <line y2="-58.75" y1="-58.75" style="fill:none;stroke:#EC008C;stroke-linecap:round;" x1="42.55" x2="42.5"/>
  <line y2="-58" y1="-58" style="fill:none;stroke:#EC008C;stroke-linecap:round;" x1="47.05" x2="47"/>
  <line y2="-56" y1="-56" style="fill:none;stroke:#EC008C;stroke-linecap:round;" x1="47.05" x2="47"/>
  <line y2="-51.5" y1="-51.5" style="fill:none;stroke:#EC008C;stroke-linecap:round;" x1="39.05" x2="39"/>
  <line y2="-58.75" y1="-58.75" style="fill:none;stroke:#EC008C;stroke-linecap:round;" x1="50.3" x2="50.25"/>
  <line y2="-60.25" y1="-60.25" style="fill:none;stroke:#EC008C;stroke-linecap:round;" x1="52.3" x2="52.25"/>
  <line y2="-61.25" y1="-61.25" style="fill:none;stroke:#EC008C;stroke-linecap:round;" x1="54.8" x2="54.75"/>
  <line y2="-71.5" y1="-71.5" style="fill:none;stroke:#EC008C;stroke-linecap:round;" x1="56.55" x2="56.5"/>
  <line y2="-69.25" y1="-69.25" style="fill:none;stroke:#EC008C;stroke-linecap:round;" x1="68.05" x2="68"/>
  <line y2="-62" y1="-62" style="fill:none;stroke:#EC008C;stroke-linecap:round;" x1="68.05" x2="68"/>
  <line y2="-60" y1="-60" style="fill:none;stroke:#EC008C;stroke-linecap:round;" x1="64.3" x2="64.25"/>
  <line y2="-56.5" y1="-56.5" style="fill:none;stroke:#EC008C;stroke-linecap:round;" x1="65.3" x2="65.25"/>
  <line y2="-52.5" y1="-52.5" style="fill:none;stroke:#EC008C;stroke-linecap:round;" x1="64.05" x2="64"/>
  <line y2="-52.5" y1="-52.5" style="fill:none;stroke:#EC008C;stroke-linecap:round;" x1="66.3" x2="66.25"/>
  <line y2="-51" y1="-51" style="fill:none;stroke:#EC008C;stroke-linecap:round;" x1="68.05" x2="68"/>
  <line y2="-20" y1="-20" style="fill:none;stroke:#EC008C;stroke-linecap:round;" x1="7.05" x2="7"/>
  <line y2="-17.75" y1="-17.75" style="fill:none;stroke:#EC008C;stroke-linecap:round;" x1="7.3" x2="7.25"/>
  <line y2="-17.75" y1="-17.75" style="fill:none;stroke:#EC008C;stroke-linecap:round;" x1="2.3" x2="2.25"/>
  <line y2="-8.25" y1="-8.25" style="fill:none;stroke:#EC008C;stroke-linecap:round;" x1="9.8" x2="9.75"/>
  <line y2="-4.25" y1="-4.25" style="fill:none;stroke:#EC008C;stroke-linecap:round;" x1="1.05" x2="1"/>
  <line y2="-1.25" y1="-1.25" style="fill:none;stroke:#EC008C;stroke-linecap:round;" x1="11.05" x2="11"/>
  <line y2="-5" y1="-5" style="fill:none;stroke:#EC008C;stroke-linecap:round;" x1="18.3" x2="18.25"/>
  <line y2="-10" y1="-10" style="fill:none;stroke:#EC008C;stroke-linecap:round;" x1="16.3" x2="16.25"/>
  <line y2="-14.5" y1="-14.5" style="fill:none;stroke:#EC008C;stroke-linecap:round;" x1="19.55" x2="19.5"/>
  <line y2="-16.5" y1="-16.5" style="fill:none;stroke:#EC008C;stroke-linecap:round;" x1="18.8" x2="18.75"/>
  <line y2="-17.5" y1="-17.5" style="fill:none;stroke:#EC008C;stroke-linecap:round;" x1="16.3" x2="16.25"/>
  <line y2="-21.25" y1="-21.25" style="fill:none;stroke:#EC008C;stroke-linecap:round;" x1="19.3" x2="19.25"/>
  <line y2="-25.25" y1="-25.25" style="fill:none;stroke:#EC008C;stroke-linecap:round;" x1="19.05" x2="19"/>
  <line y2="-25" y1="-25" style="fill:none;stroke:#EC008C;stroke-linecap:round;" x1="16.3" x2="16.25"/>
  <line y2="-21.5" y1="-21.5" style="fill:none;stroke:#EC008C;stroke-linecap:round;" x1="32.55" x2="32.5"/>
  <line y2="-18" y1="-18" style="fill:none;stroke:#EC008C;stroke-linecap:round;" x1="27.3" x2="27.25"/>
  <line y2="-16.5" y1="-16.5" style="fill:none;stroke:#EC008C;stroke-linecap:round;" x1="32.05" x2="32"/>
  <line y2="-14" y1="-14" style="fill:none;stroke:#EC008C;stroke-linecap:round;" x1="34.05" x2="34"/>
  <line y2="-7.5" y1="-7.5" style="fill:none;stroke:#EC008C;stroke-linecap:round;" x1="26.05" x2="26"/>
  <line y2="-16" y1="-16" style="fill:none;stroke:#EC008C;stroke-linecap:round;" x1="36.05" x2="36"/>
  <line y2="-16.25" y1="-16.25" style="fill:none;stroke:#EC008C;stroke-linecap:round;" x1="39.3" x2="39.25"/>
  <line y2="-21.5" y1="-21.5" style="fill:none;stroke:#EC008C;stroke-linecap:round;" x1="41.8" x2="41.75"/>
  <line y2="-27.5" y1="-27.5" style="fill:none;stroke:#EC008C;stroke-linecap:round;" x1="43.55" x2="43.5"/>
  <line y2="-21.75" y1="-21.75" style="fill:none;stroke:#EC008C;stroke-linecap:round;" x1="51.05" x2="51"/>
  <line y2="-25.75" y1="-25.75" style="fill:none;stroke:#EC008C;stroke-linecap:round;" x1="52.05" x2="52"/>
  <line y2="-25.25" y1="-25.25" style="fill:none;stroke:#EC008C;stroke-linecap:round;" x1="55.05" x2="55"/>
  <line y2="-18" y1="-18" style="fill:none;stroke:#EC008C;stroke-linecap:round;" x1="55.05" x2="55"/>
  <line y2="-16" y1="-16" style="fill:none;stroke:#EC008C;stroke-linecap:round;" x1="51.3" x2="51.25"/>
  <line y2="-8.5" y1="-8.5" style="fill:none;stroke:#EC008C;stroke-linecap:round;" x1="51.05" x2="51"/>
  <line y2="-8.5" y1="-8.5" style="fill:none;stroke:#EC008C;stroke-linecap:round;" x1="53.3" x2="53.25"/>
  <line y2="-9.25" y1="-9.25" style="fill:none;stroke:#EC008C;stroke-linecap:round;" x1="56.05" x2="56"/>
  <line y2="-10.75" y1="-10.75" style="fill:none;stroke:#EC008C;stroke-linecap:round;" x1="58.3" x2="58.25"/>
  <line y2="-48.25" y1="-48.25" style="fill:none;stroke:#EC008C;stroke-linecap:round;" x1="22.8" x2="22.75"/>
  <line y2="-47.5" y1="-47.5" style="fill:none;stroke:#EC008C;stroke-linecap:round;" x1="39.05" x2="39"/>
  <line y2="-45" y1="-45" style="fill:none;stroke:#EC008C;stroke-linecap:round;" x1="47.55" x2="47.5"/>
  <line y2="-44.25" y1="-44.25" style="fill:none;stroke:#EC008C;stroke-linecap:round;" x1="55.3" x2="55.25"/>
  <line y2="-47" y1="-47" style="fill:none;stroke:#EC008C;stroke-linecap:round;" x1="51.3" x2="51.25"/>
  <line y2="-42.75" y1="-42.75" style="fill:none;stroke:#EC008C;stroke-linecap:round;" x1="52.05" x2="52"/>
  <line y2="-36.75" y1="-36.75" style="fill:none;stroke:#EC008C;stroke-linecap:round;" x1="62.55" x2="62.5"/>
  <line y2="-33.25" y1="-33.25" style="fill:none;stroke:#EC008C;stroke-linecap:round;" x1="56.8" x2="56.75"/>
  <line y2="-35" y1="-35" style="fill:none;stroke:#EC008C;stroke-linecap:round;" x1="48.3" x2="48.25"/>
  <line y2="-31" y1="-31" style="fill:none;stroke:#EC008C;stroke-linecap:round;" x1="48.05" x2="48"/>
  <line y2="-27.25" y1="-27.25" style="fill:none;stroke:#EC008C;stroke-linecap:round;" x1="53.55" x2="53.5"/>
  <line y2="-24.25" y1="-24.25" style="fill:none;stroke:#EC008C;stroke-linecap:round;" x1="62.3" x2="62.25"/>
  <line y2="-20.5" y1="-20.5" style="fill:none;stroke:#EC008C;stroke-linecap:round;" x1="65.05" x2="65"/>
  <line y2="-27.25" y1="-27.25" style="fill:none;stroke:#EC008C;stroke-linecap:round;" x1="69.55" x2="69.5"/>
  <line y2="-33.25" y1="-33.25" style="fill:none;stroke:#EC008C;stroke-linecap:round;" x1="60.05" x2="60"/>
  <line y2="-25.25" y1="-25.25" style="fill:none;stroke:#EC008C;stroke-linecap:round;" x1="32.55" x2="32.5"/>
  <line y2="-34.5" y1="-34.5" style="fill:none;stroke:#EC008C;stroke-linecap:round;" x1="26.3" x2="26.25"/>
  <line y2="-36.75" y1="-36.75" style="fill:none;stroke:#EC008C;stroke-linecap:round;" x1="29.8" x2="29.75"/>
  <line y2="-42.75" y1="-42.75" style="fill:none;stroke:#EC008C;stroke-linecap:round;" x1="10.55" x2="10.5"/>
  <line y2="-40.75" y1="-40.75" style="fill:none;stroke:#EC008C;stroke-linecap:round;" x1="6.05" x2="6"/>
  <line y2="-37" y1="-37" style="fill:none;stroke:#EC008C;stroke-linecap:round;" x1="2.55" x2="2.5"/>
  <line y2="-30.25" y1="-30.25" style="fill:none;stroke:#EC008C;stroke-linecap:round;" x1="17.05" x2="17"/>
  <line y2="-36.25" y1="-36.25" style="fill:none;stroke:#EC008C;stroke-linecap:round;" x1="12.8" x2="12.75"/>
  <line y2="-42" y1="-42" style="fill:none;stroke:#EC008C;stroke-linecap:round;" x1="26.55" x2="26.5"/>
  <line y2="-41.5" y1="-41.5" style="fill:none;stroke:#EC008C;stroke-linecap:round;" x1="39.3" x2="39.25"/>
  <line y2="-39.5" y1="-39.5" style="fill:none;stroke:#EC008C;stroke-linecap:round;" x1="38.3" x2="38.25"/>
  <line y2="-30.25" y1="-30.25" style="fill:none;stroke:#EC008C;stroke-linecap:round;" x1="28.05" x2="28"/>
  <line y2="-51.75" y1="-51.75" style="fill:none;stroke:#EC008C;stroke-linecap:round;" x1="6.55" x2="6.5"/>
  <line y2="-53.5" y1="-53.5" style="fill:none;stroke:#EC008C;stroke-linecap:round;" x1="9.8" x2="9.75"/>
  <line y2="-48.75" y1="-48.75" style="fill:none;stroke:#EC008C;stroke-linecap:round;" x1="11.8" x2="11.75"/>
  <line y2="-46.5" y1="-46.5" style="fill:none;stroke:#EC008C;stroke-linecap:round;" x1="3.05" x2="3"/>
  <line y2="-42.75" y1="-42.75" style="fill:none;stroke:#EC008C;stroke-linecap:round;" x1="64.3" x2="64.25"/>
  <line y2="-42.5" y1="-42.5" style="fill:none;stroke:#EC008C;stroke-linecap:round;" x1="69.55" x2="69.5"/>
  <line y2="-63.25" y1="-63.25" style="fill:none;stroke:#EC008C;stroke-linecap:round;" x1="1.55" x2="1.5"/>
  <line y2="-66.25" y1="-66.25" style="fill:none;stroke:#EC008C;stroke-linecap:round;" x1="16.55" x2="16.5"/>
  <line y2="-66.25" y1="-66.25" style="fill:none;stroke:#EC008C;stroke-linecap:round;" x1="3.8" x2="3.75"/>
  <line y2="-58" y1="-58" style="fill:none;stroke:#EC008C;stroke-linecap:round;" x1="12.8" x2="12.75"/>
  <line y2="-53" y1="-53" style="fill:none;stroke:#EC008C;stroke-linecap:round;" x1="18.55" x2="18.5"/>
  <line y2="-35.25" y1="-35.25" style="fill:none;stroke:#EC008C;stroke-linecap:round;" x1="21.3" x2="21.25"/>
  <line y2="-28" y1="-28" style="fill:none;stroke:#EC008C;stroke-linecap:round;" x1="0.8" x2="0.75"/>
  <line y2="-6.25" y1="-6.25" style="fill:none;stroke:#EC008C;stroke-linecap:round;" x1="68.05" x2="68"/>
  <line y2="-2.5" y1="-2.5" style="fill:none;stroke:#EC008C;stroke-linecap:round;" x1="59.8" x2="59.75"/>
  <line y2="-4.25" y1="-4.25" style="fill:none;stroke:#EC008C;stroke-linecap:round;" x1="40.55" x2="40.5"/>
  <line y2="-12.25" y1="-12.25" style="fill:none;stroke:#EC008C;stroke-linecap:round;" x1="4.55" x2="4.5"/>
  <line y2="-12.75" y1="-12.75" style="fill:none;stroke:#EC008C;stroke-linecap:round;" x1="26.55" x2="26.5"/>
  <line y2="-23.75" y1="-23.75" style="fill:none;stroke:#EC008C;stroke-linecap:round;" x1="37.3" x2="37.25"/>
  <line y2="-32" y1="-32" style="fill:none;stroke:#EC008C;stroke-linecap:round;" x1="8.8" x2="8.75"/>
  <line y2="-34.25" y1="-34.25" style="fill:none;stroke:#EC008C;stroke-linecap:round;" x1="52.3" x2="52.25"/>
  <line y2="-26.25" y1="-26.25" style="fill:none;stroke:#EC008C;stroke-linecap:round;" x1="60.8" x2="60.75"/>
  <line y2="-6" y1="-6" style="fill:none;stroke:#EC008C;stroke-linecap:round;" x1="51.3" x2="51.25"/>
  <line y2="-34.5" y1="-34.5" style="fill:none;stroke:#EC008C;stroke-linecap:round;" x1="40.05" x2="40"/>
  <line y2="-58.75" y1="-58.75" style="fill:none;stroke:#EC008C;stroke-linecap:round;" x1="27.55" x2="27.5"/>
  <line y2="-45.75" y1="-45.75" style="fill:none;stroke:#EC008C;stroke-linecap:round;" x1="19.8" x2="19.75"/>
  <line y2="-70.5" y1="-70.5" style="fill:none;stroke:#EC008C;stroke-linecap:round;" x1="11.8" x2="11.75"/>
  <line y2="-68.5" y1="-68.5" style="fill:none;stroke:#EC008C;stroke-linecap:round;" x1="55.3" x2="55.25"/>
  <line y2="-2.5" y1="-2.5" style="fill:none;stroke:#EC008C;stroke-linecap:round;" x1="47.3" x2="47.25"/>
  <line y2="-32" y1="-32" style="fill:none;stroke:#EC008C;stroke-linecap:round;" x1="4.8" x2="4.75"/>
  <line y2="-59" y1="-59" style="fill:none;stroke:#EC008C;stroke-linecap:round;" x1="68.8" x2="68.75"/>
  <line y2="-58.25" y1="-58.25" style="fill:none;stroke:#EC008C;stroke-linecap:round;" x1="23.3" x2="23.25"/>
  <line y2="-55" y1="-55" style="fill:none;stroke:#EC008C;stroke-linecap:round;" x1="20.55" x2="20.5"/>
  <line y2="-55" y1="-55" style="fill:none;stroke:#EC008C;stroke-linecap:round;" x1="14.8" x2="14.75"/>
  <line y2="-60.5" y1="-60.5" style="fill:none;stroke:#EC008C;stroke-linecap:round;" x1="6.05" x2="6"/>
  <line y2="-69.5" y1="-69.5" style="fill:none;stroke:#EC008C;stroke-linecap:round;" x1="7.05" x2="7"/>
  <line y2="-64" y1="-64" style="fill:none;stroke:#EC008C;stroke-linecap:round;" x1="10.05" x2="10"/>
  <line y2="-64" y1="-64" style="fill:none;stroke:#EC008C;stroke-linecap:round;" x1="14.3" x2="14.25"/>
  <line y2="-65.25" y1="-65.25" style="fill:none;stroke:#EC008C;stroke-linecap:round;" x1="25.8" x2="25.75"/>
  <line y2="-64.75" y1="-64.75" style="fill:none;stroke:#EC008C;stroke-linecap:round;" x1="37.05" x2="37"/>
  <line y2="-68" y1="-68" style="fill:none;stroke:#EC008C;stroke-linecap:round;" x1="37.55" x2="37.5"/>
  <line y2="-70" y1="-70" style="fill:none;stroke:#EC008C;stroke-linecap:round;" x1="43.3" x2="43.25"/>
  <line y2="-64" y1="-64" style="fill:none;stroke:#EC008C;stroke-linecap:round;" x1="49.55" x2="49.5"/>
  <line y2="-63" y1="-63" style="fill:none;stroke:#EC008C;stroke-linecap:round;" x1="46.05" x2="46"/>
  <line y2="-61.25" y1="-61.25" style="fill:none;stroke:#EC008C;stroke-linecap:round;" x1="35.8" x2="35.75"/>
  <line y2="-57.25" y1="-57.25" style="fill:none;stroke:#EC008C;stroke-linecap:round;" x1="39.3" x2="39.25"/>
  <line y2="-54.25" y1="-54.25" style="fill:none;stroke:#EC008C;stroke-linecap:round;" x1="24.8" x2="24.75"/>
  <line y2="-45" y1="-45" style="fill:none;stroke:#EC008C;stroke-linecap:round;" x1="8.3" x2="8.25"/>
  <line y2="-40.5" y1="-40.5" style="fill:none;stroke:#EC008C;stroke-linecap:round;" x1="16.05" x2="16"/>
  <line y2="-38.75" y1="-38.75" style="fill:none;stroke:#EC008C;stroke-linecap:round;" x1="10.55" x2="10.5"/>
  <line y2="-35.25" y1="-35.25" style="fill:none;stroke:#EC008C;stroke-linecap:round;" x1="5.3" x2="5.25"/>
  <line y2="-51.75" y1="-51.75" style="fill:none;stroke:#EC008C;stroke-linecap:round;" x1="3.3" x2="3.25"/>
  <line y2="-41.5" y1="-41.5" style="fill:none;stroke:#EC008C;stroke-linecap:round;" x1="20.55" x2="20.5"/>
  <line y2="-36.75" y1="-36.75" style="fill:none;stroke:#EC008C;stroke-linecap:round;" x1="17.55" x2="17.5"/>
  <line y2="-33.25" y1="-33.25" style="fill:none;stroke:#EC008C;stroke-linecap:round;" x1="16.05" x2="16"/>
  <line y2="-31" y1="-31" style="fill:none;stroke:#EC008C;stroke-linecap:round;" x1="12.8" x2="12.75"/>
  <line y2="-25.75" y1="-25.75" style="fill:none;stroke:#EC008C;stroke-linecap:round;" x1="12.8" x2="12.75"/>
  <line y2="-23.75" y1="-23.75" style="fill:none;stroke:#EC008C;stroke-linecap:round;" x1="5.8" x2="5.75"/>
  <line y2="-17.75" y1="-17.75" style="fill:none;stroke:#EC008C;stroke-linecap:round;" x1="11.05" x2="11"/>
  <line y2="-13.75" y1="-13.75" style="fill:none;stroke:#EC008C;stroke-linecap:round;" x1="15.55" x2="15.5"/>
  <line y2="-8.75" y1="-8.75" style="fill:none;stroke:#EC008C;stroke-linecap:round;" x1="6.05" x2="6"/>
  <line y2="-10.25" y1="-10.25" style="fill:none;stroke:#EC008C;stroke-linecap:round;" x1="2.3" x2="2.25"/>
  <line y2="-4.25" y1="-4.25" style="fill:none;stroke:#EC008C;stroke-linecap:round;" x1="9.05" x2="9"/>
  <line y2="-2.75" y1="-2.75" style="fill:none;stroke:#EC008C;stroke-linecap:round;" x1="13.55" x2="13.5"/>
  <line y2="-3.75" y1="-3.75" style="fill:none;stroke:#EC008C;stroke-linecap:round;" x1="21.55" x2="21.5"/>
  <line y2="-6.5" y1="-6.5" style="fill:none;stroke:#EC008C;stroke-linecap:round;" x1="23.05" x2="23"/>
  <line y2="-12.25" y1="-12.25" style="fill:none;stroke:#EC008C;stroke-linecap:round;" x1="22.3" x2="22.25"/>
  <line y2="-14.75" y1="-14.75" style="fill:none;stroke:#EC008C;stroke-linecap:round;" x1="24.3" x2="24.25"/>
  <line y2="-24.5" y1="-24.5" style="fill:none;stroke:#EC008C;stroke-linecap:round;" x1="26.3" x2="26.25"/>
  <line y2="-28.75" y1="-28.75" style="fill:none;stroke:#EC008C;stroke-linecap:round;" x1="25.8" x2="25.75"/>
  <line y2="-41.25" y1="-41.25" style="fill:none;stroke:#EC008C;stroke-linecap:round;" x1="32.3" x2="32.25"/>
  <line y2="-44.5" y1="-44.5" style="fill:none;stroke:#EC008C;stroke-linecap:round;" x1="34.3" x2="34.25"/>
  <line y2="-46.5" y1="-46.5" style="fill:none;stroke:#EC008C;stroke-linecap:round;" x1="41.8" x2="41.75"/>
  <line y2="-51.5" y1="-51.5" style="fill:none;stroke:#EC008C;stroke-linecap:round;" x1="43.05" x2="43"/>
  <line y2="-53" y1="-53" style="fill:none;stroke:#EC008C;stroke-linecap:round;" x1="36.55" x2="36.5"/>
  <line y2="-50" y1="-50" style="fill:none;stroke:#EC008C;stroke-linecap:round;" x1="27.8" x2="27.75"/>
  <line y2="-50.25" y1="-50.25" style="fill:none;stroke:#EC008C;stroke-linecap:round;" x1="52.05" x2="52"/>
  <line y2="-54.5" y1="-54.5" style="fill:none;stroke:#EC008C;stroke-linecap:round;" x1="43.3" x2="43.25"/>
  <line y2="-54.25" y1="-54.25" style="fill:none;stroke:#EC008C;stroke-linecap:round;" x1="50.55" x2="50.5"/>
  <line y2="-55" y1="-55" style="fill:none;stroke:#EC008C;stroke-linecap:round;" x1="59.55" x2="59.5"/>
  <line y2="-58.25" y1="-58.25" style="fill:none;stroke:#EC008C;stroke-linecap:round;" x1="58.3" x2="58.25"/>
  <line y2="-61.25" y1="-61.25" style="fill:none;stroke:#EC008C;stroke-linecap:round;" x1="61.55" x2="61.5"/>
  <line y2="-64.75" y1="-64.75" style="fill:none;stroke:#EC008C;stroke-linecap:round;" x1="58.8" x2="58.75"/>
  <line y2="-67.5" y1="-67.5" style="fill:none;stroke:#EC008C;stroke-linecap:round;" x1="60.05" x2="60"/>
  <line y2="-66.25" y1="-66.25" style="fill:none;stroke:#EC008C;stroke-linecap:round;" x1="67.55" x2="67.5"/>
  <line y2="-63.75" y1="-63.75" style="fill:none;stroke:#EC008C;stroke-linecap:round;" x1="70.8" x2="70.75"/>
  <line y2="-62.5" y1="-62.5" style="fill:none;stroke:#EC008C;stroke-linecap:round;" x1="65.8" x2="65.75"/>
  <line y2="-48.5" y1="-48.5" style="fill:none;stroke:#EC008C;stroke-linecap:round;" x1="60.3" x2="60.25"/>
  <line y2="-48.5" y1="-48.5" style="fill:none;stroke:#EC008C;stroke-linecap:round;" x1="55.55" x2="55.5"/>
  <line y2="-53.5" y1="-53.5" style="fill:none;stroke:#EC008C;stroke-linecap:round;" x1="55.55" x2="55.5"/>
  <line y2="-46.5" y1="-46.5" style="fill:none;stroke:#EC008C;stroke-linecap:round;" x1="65.05" x2="65"/>
  <line y2="-41.5" y1="-41.5" style="fill:none;stroke:#EC008C;stroke-linecap:round;" x1="57.8" x2="57.75"/>
  <line y2="-39.5" y1="-39.5" style="fill:none;stroke:#EC008C;stroke-linecap:round;" x1="52.8" x2="52.75"/>
  <line y2="-38.5" y1="-38.5" style="fill:none;stroke:#EC008C;stroke-linecap:round;" x1="47.55" x2="47.5"/>
  <line y2="-33" y1="-33" style="fill:none;stroke:#EC008C;stroke-linecap:round;" x1="44.3" x2="44.25"/>
  <line y2="-30.75" y1="-30.75" style="fill:none;stroke:#EC008C;stroke-linecap:round;" x1="34.05" x2="34"/>
  <line y2="-24.25" y1="-24.25" style="fill:none;stroke:#EC008C;stroke-linecap:round;" x1="40.8" x2="40.75"/>
  <line y2="-20" y1="-20" style="fill:none;stroke:#EC008C;stroke-linecap:round;" x1="45.8" x2="45.75"/>
  <line y2="-15.5" y1="-15.5" style="fill:none;stroke:#EC008C;stroke-linecap:round;" x1="46.55" x2="46.5"/>
  <line y2="-12.75" y1="-12.75" style="fill:none;stroke:#EC008C;stroke-linecap:round;" x1="42.05" x2="42"/>
  <line y2="-9.5" y1="-9.5" style="fill:none;stroke:#EC008C;stroke-linecap:round;" x1="40.05" x2="40"/>
  <line y2="-9.5" y1="-9.5" style="fill:none;stroke:#EC008C;stroke-linecap:round;" x1="36.05" x2="36"/>
  <line y2="-19.5" y1="-19.5" style="fill:none;stroke:#EC008C;stroke-linecap:round;" x1="36.55" x2="36.5"/>
  <line y2="-8.75" y1="-8.75" style="fill:none;stroke:#EC008C;stroke-linecap:round;" x1="30.05" x2="30"/>
  <line y2="-3.75" y1="-3.75" style="fill:none;stroke:#EC008C;stroke-linecap:round;" x1="31.55" x2="31.5"/>
  <line y2="-1.25" y1="-1.25" style="fill:none;stroke:#EC008C;stroke-linecap:round;" x1="37.05" x2="37"/>
  <line y2="-15.25" y1="-15.25" style="fill:none;stroke:#EC008C;stroke-linecap:round;" x1="63.05" x2="63"/>
  <line y2="-21.5" y1="-21.5" style="fill:none;stroke:#EC008C;stroke-linecap:round;" x1="60.05" x2="60"/>
  <line y2="-21.75" y1="-21.75" style="fill:none;stroke:#EC008C;stroke-linecap:round;" x1="54.55" x2="54.5"/>
  <line y2="-30.5" y1="-30.5" style="fill:none;stroke:#EC008C;stroke-linecap:round;" x1="54.8" x2="54.75"/>
  <line y2="-30" y1="-30" style="fill:none;stroke:#EC008C;stroke-linecap:round;" x1="62.55" x2="62.5"/>
  <line y2="-24.75" y1="-24.75" style="fill:none;stroke:#EC008C;stroke-linecap:round;" x1="67.05" x2="67"/>
  <line y2="-18" y1="-18" style="fill:none;stroke:#EC008C;stroke-linecap:round;" x1="69.55" x2="69.5"/>
  <line y2="-10.5" y1="-10.5" style="fill:none;stroke:#EC008C;stroke-linecap:round;" x1="63.55" x2="63.5"/>
  <line y2="-11.25" y1="-11.25" style="fill:none;stroke:#EC008C;stroke-linecap:round;" x1="70.3" x2="70.25"/>
  <line y2="-6.75" y1="-6.75" style="fill:none;stroke:#EC008C;stroke-linecap:round;" x1="64.8" x2="64.75"/>
  <line y2="-4" y1="-4" style="fill:none;stroke:#EC008C;stroke-linecap:round;" x1="65.8" x2="65.75"/>
  <line y2="-2" y1="-2" style="fill:none;stroke:#EC008C;stroke-linecap:round;" x1="62.55" x2="62.5"/>
  <line y2="-2.5" y1="-2.5" style="fill:none;stroke:#EC008C;stroke-linecap:round;" x1="52.8" x2="52.75"/>
  <line y2="-5.75" y1="-5.75" style="fill:none;stroke:#EC008C;stroke-linecap:round;" x1="44.8" x2="44.75"/>
  <line y2="-1" y1="-1" style="fill:none;stroke:#EC008C;stroke-linecap:round;" x1="28.55" x2="28.5"/>
  <line y2="-42.75" y1="-42.75" style="fill:none;stroke:#EC008C;stroke-linecap:round;" x1="3.05" x2="3"/>
  <line y2="-67.25" y1="-67.25" style="fill:none;stroke:#EC008C;stroke-linecap:round;" x1="13.3" x2="13.25"/>
  <line y2="-37.75" y1="-37.75" style="fill:none;stroke:#EC008C;stroke-linecap:round;" x1="70.3" x2="70.25"/>
  <line y2="-31" y1="-31" style="fill:none;stroke:#EC008C;stroke-linecap:round;" x1="71.3" x2="71.25"/>
  <line y2="-20.5" y1="-20.5" style="fill:none;stroke:#EC008C;stroke-linecap:round;" x1="1.05" x2="1"/>
  <line y2="-45.75" y1="-45.75" style="fill:none;stroke:#EC008C;stroke-linecap:round;" x1="69.05" x2="69"/>
  <line y2="-12" y1="-12" style="fill:none;stroke:#EC008C;stroke-linecap:round;" x1="68.55" x2="68.5"/>
  <line y2="-14.5" y1="-14.5" style="fill:none;stroke:#EC008C;stroke-linecap:round;" x1="0.55" x2="0.5"/>
  <line y2="-1" y1="-1" style="fill:none;stroke:#EC008C;stroke-linecap:round;" x1="2.8" x2="2.75"/>
  <line y2="-48.25" y1="-48.25" style="fill:none;stroke:#EC008C;stroke-linecap:round;" x1="70.3" x2="70.25"/>
  <line y2="-55.5" y1="-55.5" style="fill:none;stroke:#EC008C;stroke-linecap:round;" x1="1.3" x2="1.25"/>
  <line y2="-59.5" y1="-59.5" style="fill:none;stroke:#EC008C;stroke-linecap:round;" x1="18.05" x2="18"/>
  <line y2="-61.5" y1="-61.5" style="fill:none;stroke:#EC008C;stroke-linecap:round;" x1="29.3" x2="29.25"/>
  <line y2="-69" y1="-69" style="fill:none;stroke:#EC008C;stroke-linecap:round;" x1="29.3" x2="29.25"/>
  <line y2="-62" y1="-62" style="fill:none;stroke:#EC008C;stroke-linecap:round;" x1="40.3" x2="40.25"/>
  <line y2="-60.5" y1="-60.5" style="fill:none;stroke:#EC008C;stroke-linecap:round;" x1="45.05" x2="45"/>
  <line y2="-49.5" y1="-49.5" style="fill:none;stroke:#EC008C;stroke-linecap:round;" x1="47.3" x2="47.25"/>
  <line y2="-65.5" y1="-65.5" style="fill:none;stroke:#EC008C;stroke-linecap:round;" x1="54.8" x2="54.75"/>
  <line y2="-65.75" y1="-65.75" style="fill:none;stroke:#EC008C;stroke-linecap:round;" x1="64.05" x2="64"/>
  <line y2="-69.75" y1="-69.75" style="fill:none;stroke:#EC008C;stroke-linecap:round;" x1="65.05" x2="65"/>
  <line y2="-54.25" y1="-54.25" style="fill:none;stroke:#EC008C;stroke-linecap:round;" x1="69.55" x2="69.5"/>
  <line y2="-25.25" y1="-25.25" style="fill:none;stroke:#EC008C;stroke-linecap:round;" x1="8.05" x2="8"/>
  <line y2="-15.5" y1="-15.5" style="fill:none;stroke:#EC008C;stroke-linecap:round;" x1="5.05" x2="5"/>
  <line y2="-6.5" y1="-6.5" style="fill:none;stroke:#EC008C;stroke-linecap:round;" x1="3.3" x2="3.25"/>
  <line y2="-2.5" y1="-2.5" style="fill:none;stroke:#EC008C;stroke-linecap:round;" x1="17.8" x2="17.75"/>
  <line y2="-10" y1="-10" style="fill:none;stroke:#EC008C;stroke-linecap:round;" x1="19.3" x2="19.25"/>
  <line y2="-27" y1="-27" style="fill:none;stroke:#EC008C;stroke-linecap:round;" x1="21.05" x2="21"/>
  <line y2="-21.25" y1="-21.25" style="fill:none;stroke:#EC008C;stroke-linecap:round;" x1="28.55" x2="28.5"/>
  <line y2="-12" y1="-12" style="fill:none;stroke:#EC008C;stroke-linecap:round;" x1="34.05" x2="34"/>
  <line y2="-5.5" y1="-5.5" style="fill:none;stroke:#EC008C;stroke-linecap:round;" x1="34.3" x2="34.25"/>
  <line y2="-17.25" y1="-17.25" style="fill:none;stroke:#EC008C;stroke-linecap:round;" x1="41.8" x2="41.75"/>
  <line y2="-12.5" y1="-12.5" style="fill:none;stroke:#EC008C;stroke-linecap:round;" x1="52.3" x2="52.25"/>
  <line y2="-7" y1="-7" style="fill:none;stroke:#EC008C;stroke-linecap:round;" x1="55.05" x2="55"/>
  <line y2="-47.75" y1="-47.75" style="fill:none;stroke:#EC008C;stroke-linecap:round;" x1="25.3" x2="25.25"/>
  <line y2="-49" y1="-49" style="fill:none;stroke:#EC008C;stroke-linecap:round;" x1="35.3" x2="35.25"/>
  <line y2="-42.75" y1="-42.75" style="fill:none;stroke:#EC008C;stroke-linecap:round;" x1="45.05" x2="45"/>
  <line y2="-29.25" y1="-29.25" style="fill:none;stroke:#EC008C;stroke-linecap:round;" x1="52.05" x2="52"/>
  <line y2="-20.5" y1="-20.5" style="fill:none;stroke:#EC008C;stroke-linecap:round;" x1="67.05" x2="67"/>
  <line y2="-24.5" y1="-24.5" style="fill:none;stroke:#EC008C;stroke-linecap:round;" x1="47.3" x2="47.25"/>
  <line y2="-27.75" y1="-27.75" style="fill:none;stroke:#EC008C;stroke-linecap:round;" x1="37.05" x2="37"/>
  <line y2="-43.75" y1="-43.75" style="fill:none;stroke:#EC008C;stroke-linecap:round;" x1="17.05" x2="17"/>
  <line y2="-35.5" y1="-35.5" style="fill:none;stroke:#EC008C;stroke-linecap:round;" x1="11.3" x2="11.25"/>
  <line y2="-41.5" y1="-41.5" style="fill:none;stroke:#EC008C;stroke-linecap:round;" x1="67.55" x2="67.5"/>
  <line y2="-56.5" y1="-56.5" style="fill:none;stroke:#EC008C;stroke-linecap:round;" x1="7.3" x2="7.25"/>
  <line y2="-67" y1="-67" style="fill:none;stroke:#EC008C;stroke-linecap:round;" x1="8.55" x2="8.5"/>
  <line y2="-69.75" y1="-69.75" style="fill:none;stroke:#EC008C;stroke-linecap:round;" x1="3.55" x2="3.5"/>
  <line y2="-35" y1="-35" style="fill:none;stroke:#EC008C;stroke-linecap:round;" x1="66.55" x2="66.5"/>
  <line y2="-9.25" y1="-9.25" style="fill:none;stroke:#EC008C;stroke-linecap:round;" x1="44.05" x2="44"/>
  <line y2="-2.25" y1="-2.25" style="fill:none;stroke:#EC008C;stroke-linecap:round;" x1="25.8" x2="25.75"/>
  <line y2="-30.5" y1="-30.5" style="fill:none;stroke:#EC008C;stroke-linecap:round;" x1="22.05" x2="22"/>
  <line y2="-43.25" y1="-43.25" style="fill:none;stroke:#EC008C;stroke-linecap:round;" x1="24.05" x2="24"/>
  <line y2="-37.75" y1="-37.75" style="fill:none;stroke:#EC008C;stroke-linecap:round;" x1="41.55" x2="41.5"/>
  <line y2="-28.5" y1="-28.5" style="fill:none;stroke:#EC008C;stroke-linecap:round;" x1="67.55" x2="67.5"/>
  <line y2="-57.25" y1="-57.25" style="fill:none;stroke:#EC008C;stroke-linecap:round;" x1="53.3" x2="53.25"/>
  <line y2="-56.25" y1="-56.25" style="fill:none;stroke:#EC008C;stroke-linecap:round;" x1="34.05" x2="34"/>
  <line y2="-53" y1="-53" style="fill:none;stroke:#EC008C;stroke-linecap:round;" x1="12.8" x2="12.75"/>
  <line y2="-67.75" y1="-67.75" style="fill:none;stroke:#EC008C;stroke-linecap:round;" x1="49.55" x2="49.5"/>
  <line y2="-51.5" y1="-51.5" style="fill:none;stroke:#EC008C;stroke-linecap:round;" x1="59.05" x2="59"/>
  <line y2="-15" y1="-15" style="fill:none;stroke:#EC008C;stroke-linecap:round;" x1="67.55" x2="67.5"/>
  <line y2="-2.5" y1="-2.5" style="fill:none;stroke:#EC008C;stroke-linecap:round;" x1="5.3" x2="5.25"/>
  <line y2="-59" y1="-59" style="fill:none;stroke:#EC008C;stroke-linecap:round;" x1="2.8" x2="2.75"/>
  <line y2="-69" y1="-69" style="fill:none;stroke:#EC008C;stroke-linecap:round;" x1="16.55" x2="16.5"/>
  <line y2="-67.75" y1="-67.75" style="fill:none;stroke:#EC008C;stroke-linecap:round;" x1="40.55" x2="40.5"/>
  <line y2="-40.25" y1="-40.25" style="fill:none;stroke:#EC008C;stroke-linecap:round;" x1="2.8" x2="2.75"/>
  <line y2="-47.25" y1="-47.25" style="fill:none;stroke:#EC008C;stroke-linecap:round;" x1="7.55" x2="7.5"/>
  <line y2="-25.5" y1="-25.5" style="fill:none;stroke:#EC008C;stroke-linecap:round;" x1="4.05" x2="4"/>
  <line y2="-21.75" y1="-21.75" style="fill:none;stroke:#EC008C;stroke-linecap:round;" x1="11.05" x2="11"/>
  <line y2="-12.5" y1="-12.5" style="fill:none;stroke:#EC008C;stroke-linecap:round;" x1="10.05" x2="10"/>
  <line y2="-6.5" y1="-6.5" style="fill:none;stroke:#EC008C;stroke-linecap:round;" x1="13.55" x2="13.5"/>
  <line y2="-19" y1="-19" style="fill:none;stroke:#EC008C;stroke-linecap:round;" x1="22.05" x2="22"/>
  <line y2="-34.75" y1="-34.75" style="fill:none;stroke:#EC008C;stroke-linecap:round;" x1="31.3" x2="31.25"/>
  <line y2="-38.25" y1="-38.25" style="fill:none;stroke:#EC008C;stroke-linecap:round;" x1="26.05" x2="26"/>
  <line y2="-43.75" y1="-43.75" style="fill:none;stroke:#EC008C;stroke-linecap:round;" x1="37.3" x2="37.25"/>
  <line y2="-55.75" y1="-55.75" style="fill:none;stroke:#EC008C;stroke-linecap:round;" x1="61.8" x2="61.75"/>
  <line y2="-45.25" y1="-45.25" style="fill:none;stroke:#EC008C;stroke-linecap:round;" x1="61.3" x2="61.25"/>
  <line y2="-15.25" y1="-15.25" style="fill:none;stroke:#EC008C;stroke-linecap:round;" x1="58.8" x2="58.75"/>
  <line y2="-28" y1="-28" style="fill:none;stroke:#EC008C;stroke-linecap:round;" x1="59.3" x2="59.25"/>
  <line y2="-36.75" y1="-36.75" style="fill:none;stroke:#EC008C;stroke-linecap:round;" x1="55.8" x2="55.75"/>
  <line y2="-1.75" y1="-1.75" style="fill:none;stroke:#EC008C;stroke-linecap:round;" x1="69.3" x2="69.25"/>
  <line y2="-6.5" y1="-6.5" style="fill:none;stroke:#EC008C;stroke-linecap:round;" x1="60.8" x2="60.75"/>
  <line y2="-1" y1="-1" style="fill:none;stroke:#EC008C;stroke-linecap:round;" x1="44.55" x2="44.5"/>
  <line y2="-71.25" y1="-71.25" style="fill:none;stroke:#EC008C;stroke-linecap:round;" x1="24.55" x2="24.5"/>
  <line y2="-4.438" y1="-4.438" style="fill:none;stroke:#EC008C;stroke-linecap:round;" x1="68.8" x2="68.75"/>
  <line y2="-35.75" y1="-35.75" style="fill:none;stroke:#EC008C;stroke-linecap:round;" x1="36.05" x2="36"/>
  <line y2="-31.25" y1="-31.25" style="fill:none;stroke:#EC008C;stroke-linecap:round;" x1="39.55" x2="39.5"/>
  <line y2="-40.5" y1="-40.5" style="fill:none;stroke:#EC008C;stroke-linecap:round;" x1="62.3" x2="62.25"/>
  <line y2="-29.25" y1="-29.25" style="fill:none;stroke:#EC008C;stroke-linecap:round;" x1="7.3" x2="7.25"/>
 </g>
</svg>
