<?xml version="1.0"?>
<!-- Converted with SVG Converter - Version 0.9.5 (Compiled Fri Feb 21 09:53:38 2020) - Copyright (C) 2011 Nokia -->
<svg xmlns="http://www.w3.org/2000/svg" y="0px" version="1.1" height="71.714" viewBox="1 -73.575 71.714 71.714" x="0px" xml:space="preserve" width="71.714" xmlns:xlink="http://www.w3.org/1999/xlink" baseProfile="tiny">
 <g>
  <rect y="-73.575" height="71.714" x="1" width="71.714" style="fill:none;"/>
  <rect y="-73.575" height="71.714" x="1" width="71.714"/>
  <line y2="-1.86" x2="1.979" x1="1.979" style="fill-rule:evenodd;clip-rule:evenodd;fill:none;stroke:#FFFFFF;stroke-width:0.43;" y1="-73.575"/>
  <line y2="-1.86" x2="3.917" x1="3.917" style="fill-rule:evenodd;clip-rule:evenodd;fill:none;stroke:#FFFFFF;stroke-width:0.43;" y1="-73.575"/>
  <line y2="-1.86" x2="5.854" x1="5.854" style="fill-rule:evenodd;clip-rule:evenodd;fill:none;stroke:#FFFFFF;stroke-width:0.43;" y1="-73.575"/>
  <line y2="-1.86" x2="7.792" x1="7.792" style="fill-rule:evenodd;clip-rule:evenodd;fill:none;stroke:#FFFFFF;stroke-width:0.43;" y1="-73.575"/>
  <line y2="-1.86" x2="9.729" x1="9.729" style="fill-rule:evenodd;clip-rule:evenodd;fill:none;stroke:#FFFFFF;stroke-width:0.43;" y1="-73.575"/>
  <line y2="-1.86" x2="11.667" x1="11.667" style="fill-rule:evenodd;clip-rule:evenodd;fill:none;stroke:#FFFFFF;stroke-width:0.43;" y1="-73.575"/>
  <line y2="-1.86" x2="13.604" x1="13.604" style="fill-rule:evenodd;clip-rule:evenodd;fill:none;stroke:#FFFFFF;stroke-width:0.43;" y1="-73.575"/>
  <line y2="-1.86" x2="15.542" x1="15.542" style="fill-rule:evenodd;clip-rule:evenodd;fill:none;stroke:#FFFFFF;stroke-width:0.43;" y1="-73.575"/>
  <line y2="-1.86" x2="17.479" x1="17.479" style="fill-rule:evenodd;clip-rule:evenodd;fill:none;stroke:#FFFFFF;stroke-width:0.43;" y1="-73.575"/>
  <line y2="-1.86" x2="19.417" x1="19.417" style="fill-rule:evenodd;clip-rule:evenodd;fill:none;stroke:#FFFFFF;stroke-width:0.43;" y1="-73.575"/>
  <line y2="-1.86" x2="21.354" x1="21.354" style="fill-rule:evenodd;clip-rule:evenodd;fill:none;stroke:#FFFFFF;stroke-width:0.43;" y1="-73.575"/>
  <line y2="-1.86" x2="23.292" x1="23.292" style="fill-rule:evenodd;clip-rule:evenodd;fill:none;stroke:#FFFFFF;stroke-width:0.43;" y1="-73.575"/>
  <line y2="-1.86" x2="25.229" x1="25.229" style="fill-rule:evenodd;clip-rule:evenodd;fill:none;stroke:#FFFFFF;stroke-width:0.43;" y1="-73.575"/>
  <line y2="-1.86" x2="27.167" x1="27.167" style="fill-rule:evenodd;clip-rule:evenodd;fill:none;stroke:#FFFFFF;stroke-width:0.43;" y1="-73.575"/>
  <line y2="-1.86" x2="29.104" x1="29.104" style="fill-rule:evenodd;clip-rule:evenodd;fill:none;stroke:#FFFFFF;stroke-width:0.43;" y1="-73.575"/>
  <line y2="-1.86" x2="31.042" x1="31.042" style="fill-rule:evenodd;clip-rule:evenodd;fill:none;stroke:#FFFFFF;stroke-width:0.43;" y1="-73.575"/>
  <line y2="-1.86" x2="32.979" x1="32.979" style="fill-rule:evenodd;clip-rule:evenodd;fill:none;stroke:#FFFFFF;stroke-width:0.43;" y1="-73.575"/>
  <line y2="-1.86" x2="34.917" x1="34.917" style="fill-rule:evenodd;clip-rule:evenodd;fill:none;stroke:#FFFFFF;stroke-width:0.43;" y1="-73.575"/>
  <line y2="-1.86" x2="36.854" x1="36.854" style="fill-rule:evenodd;clip-rule:evenodd;fill:none;stroke:#FFFFFF;stroke-width:0.43;" y1="-73.575"/>
  <line y2="-1.86" x2="38.792" x1="38.792" style="fill-rule:evenodd;clip-rule:evenodd;fill:none;stroke:#FFFFFF;stroke-width:0.43;" y1="-73.575"/>
  <line y2="-1.86" x2="40.729" x1="40.729" style="fill-rule:evenodd;clip-rule:evenodd;fill:none;stroke:#FFFFFF;stroke-width:0.43;" y1="-73.575"/>
  <line y2="-1.86" x2="42.667" x1="42.667" style="fill-rule:evenodd;clip-rule:evenodd;fill:none;stroke:#FFFFFF;stroke-width:0.43;" y1="-73.575"/>
  <line y2="-1.86" x2="44.604" x1="44.604" style="fill-rule:evenodd;clip-rule:evenodd;fill:none;stroke:#FFFFFF;stroke-width:0.43;" y1="-73.575"/>
  <line y2="-1.86" x2="46.542" x1="46.542" style="fill-rule:evenodd;clip-rule:evenodd;fill:none;stroke:#FFFFFF;stroke-width:0.43;" y1="-73.575"/>
  <line y2="-1.86" x2="48.479" x1="48.479" style="fill-rule:evenodd;clip-rule:evenodd;fill:none;stroke:#FFFFFF;stroke-width:0.43;" y1="-73.575"/>
  <line y2="-1.86" x2="50.417" x1="50.417" style="fill-rule:evenodd;clip-rule:evenodd;fill:none;stroke:#FFFFFF;stroke-width:0.43;" y1="-73.575"/>
  <line y2="-1.86" x2="52.354" x1="52.354" style="fill-rule:evenodd;clip-rule:evenodd;fill:none;stroke:#FFFFFF;stroke-width:0.43;" y1="-73.575"/>
  <line y2="-1.86" x2="54.292" x1="54.292" style="fill-rule:evenodd;clip-rule:evenodd;fill:none;stroke:#FFFFFF;stroke-width:0.43;" y1="-73.575"/>
  <line y2="-1.86" x2="56.229" x1="56.229" style="fill-rule:evenodd;clip-rule:evenodd;fill:none;stroke:#FFFFFF;stroke-width:0.43;" y1="-73.575"/>
  <line y2="-1.86" x2="58.167" x1="58.167" style="fill-rule:evenodd;clip-rule:evenodd;fill:none;stroke:#FFFFFF;stroke-width:0.43;" y1="-73.575"/>
  <line y2="-1.86" x2="60.104" x1="60.104" style="fill-rule:evenodd;clip-rule:evenodd;fill:none;stroke:#FFFFFF;stroke-width:0.43;" y1="-73.575"/>
  <line y2="-1.86" x2="62.042" x1="62.042" style="fill-rule:evenodd;clip-rule:evenodd;fill:none;stroke:#FFFFFF;stroke-width:0.43;" y1="-73.575"/>
  <line y2="-1.86" x2="63.979" x1="63.979" style="fill-rule:evenodd;clip-rule:evenodd;fill:none;stroke:#FFFFFF;stroke-width:0.43;" y1="-73.575"/>
  <line y2="-1.86" x2="65.916" x1="65.916" style="fill-rule:evenodd;clip-rule:evenodd;fill:none;stroke:#FFFFFF;stroke-width:0.43;" y1="-73.575"/>
  <line y2="-1.86" x2="67.854" x1="67.854" style="fill-rule:evenodd;clip-rule:evenodd;fill:none;stroke:#FFFFFF;stroke-width:0.43;" y1="-73.575"/>
  <line y2="-1.86" x2="69.791" x1="69.791" style="fill-rule:evenodd;clip-rule:evenodd;fill:none;stroke:#FFFFFF;stroke-width:0.43;" y1="-73.575"/>
  <line y2="-1.86" x2="71.729" x1="71.729" style="fill-rule:evenodd;clip-rule:evenodd;fill:none;stroke:#FFFFFF;stroke-width:0.43;" y1="-73.575"/>
 </g>
</svg>
