<?xml version="1.0"?>
<!-- Converted with SVG Converter - Version 0.9.5 (Compiled Fri Feb 21 09:53:38 2020) - Copyright (C) 2011 Nokia -->
<svg xmlns="http://www.w3.org/2000/svg" y="0px" width="71.714" x="0px" height="71.714" baseProfile="tiny" xml:space="preserve" viewBox="1 -73.374 71.714 71.714" xmlns:xlink="http://www.w3.org/1999/xlink" version="1.1">
 <g>
  <rect y="-73.374" width="71.714" x="1" height="71.714" style="fill:none;"/>
  <line x2="1.979" x1="1.979" y1="-73.374" style="fill-rule:evenodd;clip-rule:evenodd;fill:none;stroke:#000000;stroke-width:0.33;" y2="-1.66"/>
  <line x2="3.917" x1="3.917" y1="-73.374" style="fill-rule:evenodd;clip-rule:evenodd;fill:none;stroke:#000000;stroke-width:0.33;" y2="-1.66"/>
  <line x2="5.854" x1="5.854" y1="-73.374" style="fill-rule:evenodd;clip-rule:evenodd;fill:none;stroke:#000000;stroke-width:0.33;" y2="-1.66"/>
  <line x2="7.792" x1="7.792" y1="-73.374" style="fill-rule:evenodd;clip-rule:evenodd;fill:none;stroke:#000000;stroke-width:0.33;" y2="-1.66"/>
  <line x2="9.729" x1="9.729" y1="-73.374" style="fill-rule:evenodd;clip-rule:evenodd;fill:none;stroke:#000000;stroke-width:0.33;" y2="-1.66"/>
  <line x2="11.667" x1="11.667" y1="-73.374" style="fill-rule:evenodd;clip-rule:evenodd;fill:none;stroke:#000000;stroke-width:0.33;" y2="-1.66"/>
  <line x2="13.604" x1="13.604" y1="-73.374" style="fill-rule:evenodd;clip-rule:evenodd;fill:none;stroke:#000000;stroke-width:0.33;" y2="-1.66"/>
  <line x2="15.542" x1="15.542" y1="-73.374" style="fill-rule:evenodd;clip-rule:evenodd;fill:none;stroke:#000000;stroke-width:0.33;" y2="-1.66"/>
  <line x2="17.479" x1="17.479" y1="-73.374" style="fill-rule:evenodd;clip-rule:evenodd;fill:none;stroke:#000000;stroke-width:0.33;" y2="-1.66"/>
  <line x2="19.417" x1="19.417" y1="-73.374" style="fill-rule:evenodd;clip-rule:evenodd;fill:none;stroke:#000000;stroke-width:0.33;" y2="-1.66"/>
  <line x2="21.354" x1="21.354" y1="-73.374" style="fill-rule:evenodd;clip-rule:evenodd;fill:none;stroke:#000000;stroke-width:0.33;" y2="-1.66"/>
  <line x2="23.292" x1="23.292" y1="-73.374" style="fill-rule:evenodd;clip-rule:evenodd;fill:none;stroke:#000000;stroke-width:0.33;" y2="-1.66"/>
  <line x2="25.229" x1="25.229" y1="-73.374" style="fill-rule:evenodd;clip-rule:evenodd;fill:none;stroke:#000000;stroke-width:0.33;" y2="-1.66"/>
  <line x2="27.167" x1="27.167" y1="-73.374" style="fill-rule:evenodd;clip-rule:evenodd;fill:none;stroke:#000000;stroke-width:0.33;" y2="-1.66"/>
  <line x2="29.104" x1="29.104" y1="-73.374" style="fill-rule:evenodd;clip-rule:evenodd;fill:none;stroke:#000000;stroke-width:0.33;" y2="-1.66"/>
  <line x2="31.042" x1="31.042" y1="-73.374" style="fill-rule:evenodd;clip-rule:evenodd;fill:none;stroke:#000000;stroke-width:0.33;" y2="-1.66"/>
  <line x2="32.979" x1="32.979" y1="-73.374" style="fill-rule:evenodd;clip-rule:evenodd;fill:none;stroke:#000000;stroke-width:0.33;" y2="-1.66"/>
  <line x2="34.917" x1="34.917" y1="-73.374" style="fill-rule:evenodd;clip-rule:evenodd;fill:none;stroke:#000000;stroke-width:0.33;" y2="-1.66"/>
  <line x2="36.854" x1="36.854" y1="-73.374" style="fill-rule:evenodd;clip-rule:evenodd;fill:none;stroke:#000000;stroke-width:0.33;" y2="-1.66"/>
  <line x2="38.792" x1="38.792" y1="-73.374" style="fill-rule:evenodd;clip-rule:evenodd;fill:none;stroke:#000000;stroke-width:0.33;" y2="-1.66"/>
  <line x2="40.729" x1="40.729" y1="-73.374" style="fill-rule:evenodd;clip-rule:evenodd;fill:none;stroke:#000000;stroke-width:0.33;" y2="-1.66"/>
  <line x2="42.667" x1="42.667" y1="-73.374" style="fill-rule:evenodd;clip-rule:evenodd;fill:none;stroke:#000000;stroke-width:0.33;" y2="-1.66"/>
  <line x2="44.604" x1="44.604" y1="-73.374" style="fill-rule:evenodd;clip-rule:evenodd;fill:none;stroke:#000000;stroke-width:0.33;" y2="-1.66"/>
  <line x2="46.542" x1="46.542" y1="-73.374" style="fill-rule:evenodd;clip-rule:evenodd;fill:none;stroke:#000000;stroke-width:0.33;" y2="-1.66"/>
  <line x2="48.479" x1="48.479" y1="-73.374" style="fill-rule:evenodd;clip-rule:evenodd;fill:none;stroke:#000000;stroke-width:0.33;" y2="-1.66"/>
  <line x2="50.417" x1="50.417" y1="-73.374" style="fill-rule:evenodd;clip-rule:evenodd;fill:none;stroke:#000000;stroke-width:0.33;" y2="-1.66"/>
  <line x2="52.354" x1="52.354" y1="-73.374" style="fill-rule:evenodd;clip-rule:evenodd;fill:none;stroke:#000000;stroke-width:0.33;" y2="-1.66"/>
  <line x2="54.292" x1="54.292" y1="-73.374" style="fill-rule:evenodd;clip-rule:evenodd;fill:none;stroke:#000000;stroke-width:0.33;" y2="-1.66"/>
  <line x2="56.229" x1="56.229" y1="-73.374" style="fill-rule:evenodd;clip-rule:evenodd;fill:none;stroke:#000000;stroke-width:0.33;" y2="-1.66"/>
  <line x2="58.167" x1="58.167" y1="-73.374" style="fill-rule:evenodd;clip-rule:evenodd;fill:none;stroke:#000000;stroke-width:0.33;" y2="-1.66"/>
  <line x2="60.104" x1="60.104" y1="-73.374" style="fill-rule:evenodd;clip-rule:evenodd;fill:none;stroke:#000000;stroke-width:0.33;" y2="-1.66"/>
  <line x2="62.042" x1="62.042" y1="-73.374" style="fill-rule:evenodd;clip-rule:evenodd;fill:none;stroke:#000000;stroke-width:0.33;" y2="-1.66"/>
  <line x2="63.979" x1="63.979" y1="-73.374" style="fill-rule:evenodd;clip-rule:evenodd;fill:none;stroke:#000000;stroke-width:0.33;" y2="-1.66"/>
  <line x2="65.916" x1="65.916" y1="-73.374" style="fill-rule:evenodd;clip-rule:evenodd;fill:none;stroke:#000000;stroke-width:0.33;" y2="-1.66"/>
  <line x2="67.854" x1="67.854" y1="-73.374" style="fill-rule:evenodd;clip-rule:evenodd;fill:none;stroke:#000000;stroke-width:0.33;" y2="-1.66"/>
  <line x2="69.791" x1="69.791" y1="-73.374" style="fill-rule:evenodd;clip-rule:evenodd;fill:none;stroke:#000000;stroke-width:0.33;" y2="-1.66"/>
  <line x2="71.729" x1="71.729" y1="-73.374" style="fill-rule:evenodd;clip-rule:evenodd;fill:none;stroke:#000000;stroke-width:0.33;" y2="-1.66"/>
 </g>
</svg>
