<?xml version="1.0"?>
<!-- Converted with SVG Converter - Version 0.9.5 (Compiled Fri Feb 21 09:53:38 2020) - Copyright (C) 2011 Nokia -->
<svg xmlns="http://www.w3.org/2000/svg" viewBox="1.008 -75.843 73.643 73.643" height="73.643" xmlns:xlink="http://www.w3.org/1999/xlink" version="1.1" xml:space="preserve" baseProfile="tiny" x="0px" y="0px" width="73.643">
 <g>
  <rect height="73.643" style="fill:none;" x="1.008" y="-75.843" width="73.643"/>
  <line style="fill-rule:evenodd;clip-rule:evenodd;fill:none;stroke:#EC008C;stroke-width:0.6;" y2="-2.2" x1="2.2" y1="-75.843" x2="2.2"/>
  <line style="fill-rule:evenodd;clip-rule:evenodd;fill:none;stroke:#EC008C;stroke-width:0.6;" y2="-2.2" x1="4.575" y1="-75.843" x2="4.575"/>
  <line style="fill-rule:evenodd;clip-rule:evenodd;fill:none;stroke:#EC008C;stroke-width:0.6;" y2="-2.2" x1="6.95" y1="-75.843" x2="6.95"/>
  <line style="fill-rule:evenodd;clip-rule:evenodd;fill:none;stroke:#EC008C;stroke-width:0.6;" y2="-2.2" x1="9.325" y1="-75.843" x2="9.325"/>
  <line style="fill-rule:evenodd;clip-rule:evenodd;fill:none;stroke:#EC008C;stroke-width:0.6;" y2="-2.2" x1="11.7" y1="-75.843" x2="11.7"/>
  <line style="fill-rule:evenodd;clip-rule:evenodd;fill:none;stroke:#EC008C;stroke-width:0.6;" y2="-2.2" x1="14.075" y1="-75.843" x2="14.075"/>
  <line style="fill-rule:evenodd;clip-rule:evenodd;fill:none;stroke:#EC008C;stroke-width:0.6;" y2="-2.2" x1="16.45" y1="-75.843" x2="16.45"/>
  <line style="fill-rule:evenodd;clip-rule:evenodd;fill:none;stroke:#EC008C;stroke-width:0.6;" y2="-2.2" x1="18.825" y1="-75.843" x2="18.825"/>
  <line style="fill-rule:evenodd;clip-rule:evenodd;fill:none;stroke:#EC008C;stroke-width:0.6;" y2="-2.2" x1="21.2" y1="-75.843" x2="21.2"/>
  <line style="fill-rule:evenodd;clip-rule:evenodd;fill:none;stroke:#EC008C;stroke-width:0.6;" y2="-2.2" x1="23.575" y1="-75.843" x2="23.575"/>
  <line style="fill-rule:evenodd;clip-rule:evenodd;fill:none;stroke:#EC008C;stroke-width:0.6;" y2="-2.2" x1="25.95" y1="-75.843" x2="25.95"/>
  <line style="fill-rule:evenodd;clip-rule:evenodd;fill:none;stroke:#EC008C;stroke-width:0.6;" y2="-2.2" x1="28.325" y1="-75.843" x2="28.325"/>
  <line style="fill-rule:evenodd;clip-rule:evenodd;fill:none;stroke:#EC008C;stroke-width:0.6;" y2="-2.2" x1="30.7" y1="-75.843" x2="30.7"/>
  <line style="fill-rule:evenodd;clip-rule:evenodd;fill:none;stroke:#EC008C;stroke-width:0.6;" y2="-2.2" x1="33.075" y1="-75.843" x2="33.075"/>
  <line style="fill-rule:evenodd;clip-rule:evenodd;fill:none;stroke:#EC008C;stroke-width:0.6;" y2="-2.2" x1="35.45" y1="-75.843" x2="35.45"/>
  <line style="fill-rule:evenodd;clip-rule:evenodd;fill:none;stroke:#EC008C;stroke-width:0.6;" y2="-2.2" x1="37.825" y1="-75.843" x2="37.825"/>
  <line style="fill-rule:evenodd;clip-rule:evenodd;fill:none;stroke:#EC008C;stroke-width:0.6;" y2="-2.2" x1="40.2" y1="-75.843" x2="40.2"/>
  <line style="fill-rule:evenodd;clip-rule:evenodd;fill:none;stroke:#EC008C;stroke-width:0.6;" y2="-2.2" x1="42.575" y1="-75.843" x2="42.575"/>
  <line style="fill-rule:evenodd;clip-rule:evenodd;fill:none;stroke:#EC008C;stroke-width:0.6;" y2="-2.2" x1="44.95" y1="-75.843" x2="44.95"/>
  <line style="fill-rule:evenodd;clip-rule:evenodd;fill:none;stroke:#EC008C;stroke-width:0.6;" y2="-2.2" x1="47.325" y1="-75.843" x2="47.325"/>
  <line style="fill-rule:evenodd;clip-rule:evenodd;fill:none;stroke:#EC008C;stroke-width:0.6;" y2="-2.2" x1="49.7" y1="-75.843" x2="49.7"/>
  <line style="fill-rule:evenodd;clip-rule:evenodd;fill:none;stroke:#EC008C;stroke-width:0.6;" y2="-2.2" x1="52.075" y1="-75.843" x2="52.075"/>
  <line style="fill-rule:evenodd;clip-rule:evenodd;fill:none;stroke:#EC008C;stroke-width:0.6;" y2="-2.2" x1="54.45" y1="-75.843" x2="54.45"/>
  <line style="fill-rule:evenodd;clip-rule:evenodd;fill:none;stroke:#EC008C;stroke-width:0.6;" y2="-2.2" x1="56.825" y1="-75.843" x2="56.825"/>
  <line style="fill-rule:evenodd;clip-rule:evenodd;fill:none;stroke:#EC008C;stroke-width:0.6;" y2="-2.2" x1="59.2" y1="-75.843" x2="59.2"/>
  <line style="fill-rule:evenodd;clip-rule:evenodd;fill:none;stroke:#EC008C;stroke-width:0.6;" y2="-2.2" x1="61.575" y1="-75.843" x2="61.575"/>
  <line style="fill-rule:evenodd;clip-rule:evenodd;fill:none;stroke:#EC008C;stroke-width:0.6;" y2="-2.2" x1="63.95" y1="-75.843" x2="63.95"/>
  <line style="fill-rule:evenodd;clip-rule:evenodd;fill:none;stroke:#EC008C;stroke-width:0.6;" y2="-2.2" x1="66.325" y1="-75.843" x2="66.325"/>
  <line style="fill-rule:evenodd;clip-rule:evenodd;fill:none;stroke:#EC008C;stroke-width:0.6;" y2="-2.2" x1="68.7" y1="-75.843" x2="68.7"/>
  <line style="fill-rule:evenodd;clip-rule:evenodd;fill:none;stroke:#EC008C;stroke-width:0.6;" y2="-2.2" x1="71.075" y1="-75.843" x2="71.075"/>
  <line style="fill-rule:evenodd;clip-rule:evenodd;fill:none;stroke:#EC008C;stroke-width:0.6;" y2="-2.2" x1="73.45" y1="-75.843" x2="73.45"/>
 </g>
</svg>
