<?xml version="1.0"?>
<!-- Converted with SVG Converter - Version 0.9.6 (Compiled Thu Aug 31 10:01:05 2017) - Copyright (C) 2011 Nokia -->
<svg xmlns="http://www.w3.org/2000/svg" height="73.643" xmlns:xlink="http://www.w3.org/1999/xlink" version="1.1" x="0px" viewBox="0 -73.642 73.642 73.643" baseProfile="tiny" xml:space="preserve" y="0px" width="73.642">
 <g>
  <rect height="73.643" x="0" y="-73.642" style="fill:none;" width="73.642"/>
  <line y1="-73.642" y2="0" x1="1.192" x2="1.192" style="fill-rule:evenodd;clip-rule:evenodd;fill:none;stroke:#000000;stroke-width:0.6;"/>
  <line y1="-73.642" y2="0" x1="3.567" x2="3.567" style="fill-rule:evenodd;clip-rule:evenodd;fill:none;stroke:#000000;stroke-width:0.6;"/>
  <line y1="-73.642" y2="0" x1="5.942" x2="5.942" style="fill-rule:evenodd;clip-rule:evenodd;fill:none;stroke:#000000;stroke-width:0.6;"/>
  <line y1="-73.642" y2="0" x1="8.317" x2="8.317" style="fill-rule:evenodd;clip-rule:evenodd;fill:none;stroke:#000000;stroke-width:0.6;"/>
  <line y1="-73.642" y2="0" x1="10.692" x2="10.692" style="fill-rule:evenodd;clip-rule:evenodd;fill:none;stroke:#000000;stroke-width:0.6;"/>
  <line y1="-73.642" y2="0" x1="13.067" x2="13.067" style="fill-rule:evenodd;clip-rule:evenodd;fill:none;stroke:#000000;stroke-width:0.6;"/>
  <line y1="-73.642" y2="0" x1="15.442" x2="15.442" style="fill-rule:evenodd;clip-rule:evenodd;fill:none;stroke:#000000;stroke-width:0.6;"/>
  <line y1="-73.642" y2="0" x1="17.817" x2="17.817" style="fill-rule:evenodd;clip-rule:evenodd;fill:none;stroke:#000000;stroke-width:0.6;"/>
  <line y1="-73.642" y2="0" x1="20.192" x2="20.192" style="fill-rule:evenodd;clip-rule:evenodd;fill:none;stroke:#000000;stroke-width:0.6;"/>
  <line y1="-73.642" y2="0" x1="22.567" x2="22.567" style="fill-rule:evenodd;clip-rule:evenodd;fill:none;stroke:#000000;stroke-width:0.6;"/>
  <line y1="-73.642" y2="0" x1="24.942" x2="24.942" style="fill-rule:evenodd;clip-rule:evenodd;fill:none;stroke:#000000;stroke-width:0.6;"/>
  <line y1="-73.642" y2="0" x1="27.317" x2="27.317" style="fill-rule:evenodd;clip-rule:evenodd;fill:none;stroke:#000000;stroke-width:0.6;"/>
  <line y1="-73.642" y2="0" x1="29.692" x2="29.692" style="fill-rule:evenodd;clip-rule:evenodd;fill:none;stroke:#000000;stroke-width:0.6;"/>
  <line y1="-73.642" y2="0" x1="32.067" x2="32.067" style="fill-rule:evenodd;clip-rule:evenodd;fill:none;stroke:#000000;stroke-width:0.6;"/>
  <line y1="-73.642" y2="0" x1="34.442" x2="34.442" style="fill-rule:evenodd;clip-rule:evenodd;fill:none;stroke:#000000;stroke-width:0.6;"/>
  <line y1="-73.642" y2="0" x1="36.817" x2="36.817" style="fill-rule:evenodd;clip-rule:evenodd;fill:none;stroke:#000000;stroke-width:0.6;"/>
  <line y1="-73.642" y2="0" x1="39.192" x2="39.192" style="fill-rule:evenodd;clip-rule:evenodd;fill:none;stroke:#000000;stroke-width:0.6;"/>
  <line y1="-73.642" y2="0" x1="41.567" x2="41.567" style="fill-rule:evenodd;clip-rule:evenodd;fill:none;stroke:#000000;stroke-width:0.6;"/>
  <line y1="-73.642" y2="0" x1="43.942" x2="43.942" style="fill-rule:evenodd;clip-rule:evenodd;fill:none;stroke:#000000;stroke-width:0.6;"/>
  <line y1="-73.642" y2="0" x1="46.317" x2="46.317" style="fill-rule:evenodd;clip-rule:evenodd;fill:none;stroke:#000000;stroke-width:0.6;"/>
  <line y1="-73.642" y2="0" x1="48.692" x2="48.692" style="fill-rule:evenodd;clip-rule:evenodd;fill:none;stroke:#000000;stroke-width:0.6;"/>
  <line y1="-73.642" y2="0" x1="51.067" x2="51.067" style="fill-rule:evenodd;clip-rule:evenodd;fill:none;stroke:#000000;stroke-width:0.6;"/>
  <line y1="-73.642" y2="0" x1="53.442" x2="53.442" style="fill-rule:evenodd;clip-rule:evenodd;fill:none;stroke:#000000;stroke-width:0.6;"/>
  <line y1="-73.642" y2="0" x1="55.817" x2="55.817" style="fill-rule:evenodd;clip-rule:evenodd;fill:none;stroke:#000000;stroke-width:0.6;"/>
  <line y1="-73.642" y2="0" x1="58.192" x2="58.192" style="fill-rule:evenodd;clip-rule:evenodd;fill:none;stroke:#000000;stroke-width:0.6;"/>
  <line y1="-73.642" y2="0" x1="60.567" x2="60.567" style="fill-rule:evenodd;clip-rule:evenodd;fill:none;stroke:#000000;stroke-width:0.6;"/>
  <line y1="-73.642" y2="0" x1="62.942" x2="62.942" style="fill-rule:evenodd;clip-rule:evenodd;fill:none;stroke:#000000;stroke-width:0.6;"/>
  <line y1="-73.642" y2="0" x1="65.317" x2="65.317" style="fill-rule:evenodd;clip-rule:evenodd;fill:none;stroke:#000000;stroke-width:0.6;"/>
  <line y1="-73.642" y2="0" x1="67.692" x2="67.692" style="fill-rule:evenodd;clip-rule:evenodd;fill:none;stroke:#000000;stroke-width:0.6;"/>
  <line y1="-73.642" y2="0" x1="70.067" x2="70.067" style="fill-rule:evenodd;clip-rule:evenodd;fill:none;stroke:#000000;stroke-width:0.6;"/>
  <line y1="-73.642" y2="0" x1="72.442" x2="72.442" style="fill-rule:evenodd;clip-rule:evenodd;fill:none;stroke:#000000;stroke-width:0.6;"/>
 </g>
</svg>
