<?xml version="1.0"?>
<!-- Converted with SVG Converter - Version 0.9.5 (Compiled Fri Feb 21 09:53:38 2020) - Copyright (C) 2011 Nokia -->
<svg xmlns="http://www.w3.org/2000/svg" xml:space="preserve" xmlns:xlink="http://www.w3.org/1999/xlink" viewBox="1.083 -79.742 75.642 75.642" height="75.642" width="75.642" version="1.1" x="0px" y="0px" baseProfile="tiny">
 <g>
  <rect height="75.642" width="75.642" style="fill:none;" x="1.083" y="-79.742"/>
  <line y1="-79.742" x1="2.4" x2="2.4" style="fill-rule:evenodd;clip-rule:evenodd;fill:none;stroke:#00AEEF;stroke-width:0.7;" y2="-4.1"/>
  <line y1="-79.742" x1="4.919" x2="4.919" style="fill-rule:evenodd;clip-rule:evenodd;fill:none;stroke:#00AEEF;stroke-width:1.55;" y2="-4.1"/>
  <line y1="-79.742" x1="7.438" x2="7.438" style="fill-rule:evenodd;clip-rule:evenodd;fill:none;stroke:#00AEEF;stroke-width:0.7;" y2="-4.1"/>
  <line y1="-79.742" x1="9.958" x2="9.958" style="fill-rule:evenodd;clip-rule:evenodd;fill:none;stroke:#00AEEF;stroke-width:1.55;" y2="-4.1"/>
  <line y1="-79.742" x1="12.477" x2="12.477" style="fill-rule:evenodd;clip-rule:evenodd;fill:none;stroke:#00AEEF;stroke-width:0.7;" y2="-4.1"/>
  <line y1="-79.742" x1="14.996" x2="14.996" style="fill-rule:evenodd;clip-rule:evenodd;fill:none;stroke:#00AEEF;stroke-width:1.55;" y2="-4.1"/>
  <line y1="-79.742" x1="17.515" x2="17.515" style="fill-rule:evenodd;clip-rule:evenodd;fill:none;stroke:#00AEEF;stroke-width:0.7;" y2="-4.1"/>
  <line y1="-79.742" x1="20.034" x2="20.034" style="fill-rule:evenodd;clip-rule:evenodd;fill:none;stroke:#00AEEF;stroke-width:1.55;" y2="-4.1"/>
  <line y1="-79.742" x1="22.553" x2="22.553" style="fill-rule:evenodd;clip-rule:evenodd;fill:none;stroke:#00AEEF;stroke-width:0.7;" y2="-4.1"/>
  <line y1="-79.742" x1="25.072" x2="25.072" style="fill-rule:evenodd;clip-rule:evenodd;fill:none;stroke:#00AEEF;stroke-width:1.55;" y2="-4.1"/>
  <line y1="-79.742" x1="27.592" x2="27.592" style="fill-rule:evenodd;clip-rule:evenodd;fill:none;stroke:#00AEEF;stroke-width:0.7;" y2="-4.1"/>
  <line y1="-79.742" x1="30.111" x2="30.111" style="fill-rule:evenodd;clip-rule:evenodd;fill:none;stroke:#00AEEF;stroke-width:1.55;" y2="-4.1"/>
  <line y1="-79.742" x1="32.63" x2="32.63" style="fill-rule:evenodd;clip-rule:evenodd;fill:none;stroke:#00AEEF;stroke-width:0.7;" y2="-4.1"/>
  <line y1="-79.742" x1="35.149" x2="35.149" style="fill-rule:evenodd;clip-rule:evenodd;fill:none;stroke:#00AEEF;stroke-width:1.55;" y2="-4.1"/>
  <line y1="-79.742" x1="37.668" x2="37.668" style="fill-rule:evenodd;clip-rule:evenodd;fill:none;stroke:#00AEEF;stroke-width:0.7;" y2="-4.1"/>
  <line y1="-79.742" x1="40.188" x2="40.188" style="fill-rule:evenodd;clip-rule:evenodd;fill:none;stroke:#00AEEF;stroke-width:1.55;" y2="-4.1"/>
  <line y1="-79.742" x1="42.707" x2="42.707" style="fill-rule:evenodd;clip-rule:evenodd;fill:none;stroke:#00AEEF;stroke-width:0.7;" y2="-4.1"/>
  <line y1="-79.742" x1="45.226" x2="45.226" style="fill-rule:evenodd;clip-rule:evenodd;fill:none;stroke:#00AEEF;stroke-width:1.55;" y2="-4.1"/>
  <line y1="-79.742" x1="47.745" x2="47.745" style="fill-rule:evenodd;clip-rule:evenodd;fill:none;stroke:#00AEEF;stroke-width:0.7;" y2="-4.1"/>
  <line y1="-79.742" x1="50.264" x2="50.264" style="fill-rule:evenodd;clip-rule:evenodd;fill:none;stroke:#00AEEF;stroke-width:1.55;" y2="-4.1"/>
  <line y1="-79.742" x1="52.783" x2="52.783" style="fill-rule:evenodd;clip-rule:evenodd;fill:none;stroke:#00AEEF;stroke-width:0.7;" y2="-4.1"/>
  <line y1="-79.742" x1="55.302" x2="55.302" style="fill-rule:evenodd;clip-rule:evenodd;fill:none;stroke:#00AEEF;stroke-width:1.55;" y2="-4.1"/>
  <line y1="-79.742" x1="57.822" x2="57.822" style="fill-rule:evenodd;clip-rule:evenodd;fill:none;stroke:#00AEEF;stroke-width:0.7;" y2="-4.1"/>
  <line y1="-79.742" x1="60.341" x2="60.341" style="fill-rule:evenodd;clip-rule:evenodd;fill:none;stroke:#00AEEF;stroke-width:1.55;" y2="-4.1"/>
  <line y1="-79.742" x1="62.86" x2="62.86" style="fill-rule:evenodd;clip-rule:evenodd;fill:none;stroke:#00AEEF;stroke-width:0.7;" y2="-4.1"/>
  <line y1="-79.742" x1="65.379" x2="65.379" style="fill-rule:evenodd;clip-rule:evenodd;fill:none;stroke:#00AEEF;stroke-width:1.55;" y2="-4.1"/>
  <line y1="-79.742" x1="67.898" x2="67.898" style="fill-rule:evenodd;clip-rule:evenodd;fill:none;stroke:#00AEEF;stroke-width:0.7;" y2="-4.1"/>
  <line y1="-79.742" x1="70.418" x2="70.418" style="fill-rule:evenodd;clip-rule:evenodd;fill:none;stroke:#00AEEF;stroke-width:1.55;" y2="-4.1"/>
  <line y1="-79.742" x1="72.937" x2="72.937" style="fill-rule:evenodd;clip-rule:evenodd;fill:none;stroke:#00AEEF;stroke-width:0.7;" y2="-4.1"/>
  <line y1="-79.742" x1="75.456" x2="75.456" style="fill-rule:evenodd;clip-rule:evenodd;fill:none;stroke:#00AEEF;stroke-width:1.55;" y2="-4.1"/>
 </g>
</svg>
