<?xml version="1.0"?>
<!-- Converted with SVG Converter - Version 0.9.5 (Compiled Fri Feb 21 09:53:38 2020) - Copyright (C) 2011 Nokia -->
<svg xmlns="http://www.w3.org/2000/svg" y="0px" width="75.642" viewBox="0 -75.642 75.642 75.642" height="75.642" x="0px" xml:space="preserve" version="1.1" baseProfile="tiny" xmlns:xlink="http://www.w3.org/1999/xlink">
 <g>
  <rect y="-75.642" width="75.642" height="75.642" style="fill:none;"/>
  <line x1="1.317" y2="0" x2="1.317" style="fill-rule:evenodd;clip-rule:evenodd;fill:none;stroke:#000000;stroke-width:0.7;" y1="-75.642"/>
  <line x1="3.836" y2="0" x2="3.836" style="fill-rule:evenodd;clip-rule:evenodd;fill:none;stroke:#000000;stroke-width:1.55;" y1="-75.642"/>
  <line x1="6.355" y2="0" x2="6.355" style="fill-rule:evenodd;clip-rule:evenodd;fill:none;stroke:#000000;stroke-width:0.7;" y1="-75.642"/>
  <line x1="8.875" y2="0" x2="8.875" style="fill-rule:evenodd;clip-rule:evenodd;fill:none;stroke:#000000;stroke-width:1.55;" y1="-75.642"/>
  <line x1="11.394" y2="0" x2="11.394" style="fill-rule:evenodd;clip-rule:evenodd;fill:none;stroke:#000000;stroke-width:0.7;" y1="-75.642"/>
  <line x1="13.913" y2="0" x2="13.913" style="fill-rule:evenodd;clip-rule:evenodd;fill:none;stroke:#000000;stroke-width:1.55;" y1="-75.642"/>
  <line x1="16.432" y2="0" x2="16.432" style="fill-rule:evenodd;clip-rule:evenodd;fill:none;stroke:#000000;stroke-width:0.7;" y1="-75.642"/>
  <line x1="18.951" y2="0" x2="18.951" style="fill-rule:evenodd;clip-rule:evenodd;fill:none;stroke:#000000;stroke-width:1.55;" y1="-75.642"/>
  <line x1="21.47" y2="0" x2="21.47" style="fill-rule:evenodd;clip-rule:evenodd;fill:none;stroke:#000000;stroke-width:0.7;" y1="-75.642"/>
  <line x1="23.989" y2="0" x2="23.989" style="fill-rule:evenodd;clip-rule:evenodd;fill:none;stroke:#000000;stroke-width:1.55;" y1="-75.642"/>
  <line x1="26.509" y2="0" x2="26.509" style="fill-rule:evenodd;clip-rule:evenodd;fill:none;stroke:#000000;stroke-width:0.7;" y1="-75.642"/>
  <line x1="29.028" y2="0" x2="29.028" style="fill-rule:evenodd;clip-rule:evenodd;fill:none;stroke:#000000;stroke-width:1.55;" y1="-75.642"/>
  <line x1="31.547" y2="0" x2="31.547" style="fill-rule:evenodd;clip-rule:evenodd;fill:none;stroke:#000000;stroke-width:0.7;" y1="-75.642"/>
  <line x1="34.066" y2="0" x2="34.066" style="fill-rule:evenodd;clip-rule:evenodd;fill:none;stroke:#000000;stroke-width:1.55;" y1="-75.642"/>
  <line x1="36.585" y2="0" x2="36.585" style="fill-rule:evenodd;clip-rule:evenodd;fill:none;stroke:#000000;stroke-width:0.7;" y1="-75.642"/>
  <line x1="39.104" y2="0" x2="39.104" style="fill-rule:evenodd;clip-rule:evenodd;fill:none;stroke:#000000;stroke-width:1.55;" y1="-75.642"/>
  <line x1="41.624" y2="0" x2="41.624" style="fill-rule:evenodd;clip-rule:evenodd;fill:none;stroke:#000000;stroke-width:0.7;" y1="-75.642"/>
  <line x1="44.143" y2="0" x2="44.143" style="fill-rule:evenodd;clip-rule:evenodd;fill:none;stroke:#000000;stroke-width:1.55;" y1="-75.642"/>
  <line x1="46.662" y2="0" x2="46.662" style="fill-rule:evenodd;clip-rule:evenodd;fill:none;stroke:#000000;stroke-width:0.7;" y1="-75.642"/>
  <line x1="49.181" y2="0" x2="49.181" style="fill-rule:evenodd;clip-rule:evenodd;fill:none;stroke:#000000;stroke-width:1.55;" y1="-75.642"/>
  <line x1="51.7" y2="0" x2="51.7" style="fill-rule:evenodd;clip-rule:evenodd;fill:none;stroke:#000000;stroke-width:0.7;" y1="-75.642"/>
  <line x1="54.219" y2="0" x2="54.219" style="fill-rule:evenodd;clip-rule:evenodd;fill:none;stroke:#000000;stroke-width:1.55;" y1="-75.642"/>
  <line x1="56.739" y2="0" x2="56.739" style="fill-rule:evenodd;clip-rule:evenodd;fill:none;stroke:#000000;stroke-width:0.7;" y1="-75.642"/>
  <line x1="59.258" y2="0" x2="59.258" style="fill-rule:evenodd;clip-rule:evenodd;fill:none;stroke:#000000;stroke-width:1.55;" y1="-75.642"/>
  <line x1="61.777" y2="0" x2="61.777" style="fill-rule:evenodd;clip-rule:evenodd;fill:none;stroke:#000000;stroke-width:0.7;" y1="-75.642"/>
  <line x1="64.296" y2="0" x2="64.296" style="fill-rule:evenodd;clip-rule:evenodd;fill:none;stroke:#000000;stroke-width:1.55;" y1="-75.642"/>
  <line x1="66.815" y2="0" x2="66.815" style="fill-rule:evenodd;clip-rule:evenodd;fill:none;stroke:#000000;stroke-width:0.7;" y1="-75.642"/>
  <line x1="69.334" y2="0" x2="69.334" style="fill-rule:evenodd;clip-rule:evenodd;fill:none;stroke:#000000;stroke-width:1.55;" y1="-75.642"/>
  <line x1="71.854" y2="0" x2="71.854" style="fill-rule:evenodd;clip-rule:evenodd;fill:none;stroke:#000000;stroke-width:0.7;" y1="-75.642"/>
  <line x1="74.373" y2="0" x2="74.373" style="fill-rule:evenodd;clip-rule:evenodd;fill:none;stroke:#000000;stroke-width:1.55;" y1="-75.642"/>
 </g>
</svg>
