<?xml version="1.0" encoding="utf-8"?>
<svg xmlns="http://www.w3.org/2000/svg" version="1.1" x="0px" y="0px" xml:space="preserve" width="74.285" height="74.285" viewBox="1 -76.686 74.285 74.285">
	<g>
		<rect x="1" y="-76.686" style="fill:none;" width="74.285" height="74.285"/>
		<rect x="1" y="-76.686" width="74.285" height="74.285"/>

			<line style="fill-rule:evenodd;clip-rule:evenodd;fill:none;stroke:#FFFFFF;stroke-width:0.43;" x1="3.041" y1="-76.686" x2="3.041" y2="-2.4"/>

			<line style="fill-rule:evenodd;clip-rule:evenodd;fill:none;stroke:#FFFFFF;stroke-width:0.7;" x1="7.166" y1="-76.686" x2="7.166" y2="-2.4"/>

			<line style="fill-rule:evenodd;clip-rule:evenodd;fill:none;stroke:#FFFFFF;stroke-width:0.43;" x1="11.291" y1="-76.686" x2="11.291" y2="-2.4"/>

			<line style="fill-rule:evenodd;clip-rule:evenodd;fill:none;stroke:#FFFFFF;stroke-width:0.7;" x1="15.416" y1="-76.686" x2="15.416" y2="-2.4"/>

			<line style="fill-rule:evenodd;clip-rule:evenodd;fill:none;stroke:#FFFFFF;stroke-width:0.43;" x1="19.541" y1="-76.686" x2="19.541" y2="-2.4"/>

			<line style="fill-rule:evenodd;clip-rule:evenodd;fill:none;stroke:#FFFFFF;stroke-width:0.7;" x1="23.666" y1="-76.686" x2="23.666" y2="-2.4"/>

			<line style="fill-rule:evenodd;clip-rule:evenodd;fill:none;stroke:#FFFFFF;stroke-width:0.43;" x1="27.791" y1="-76.686" x2="27.791" y2="-2.4"/>

			<line style="fill-rule:evenodd;clip-rule:evenodd;fill:none;stroke:#FFFFFF;stroke-width:0.7;" x1="31.916" y1="-76.686" x2="31.916" y2="-2.4"/>

			<line style="fill-rule:evenodd;clip-rule:evenodd;fill:none;stroke:#FFFFFF;stroke-width:0.43;" x1="36.041" y1="-76.686" x2="36.041" y2="-2.4"/>

			<line style="fill-rule:evenodd;clip-rule:evenodd;fill:none;stroke:#FFFFFF;stroke-width:0.7;" x1="40.166" y1="-76.686" x2="40.166" y2="-2.4"/>

			<line style="fill-rule:evenodd;clip-rule:evenodd;fill:none;stroke:#FFFFFF;stroke-width:0.43;" x1="44.291" y1="-76.686" x2="44.291" y2="-2.4"/>

			<line style="fill-rule:evenodd;clip-rule:evenodd;fill:none;stroke:#FFFFFF;stroke-width:0.7;" x1="48.416" y1="-76.686" x2="48.416" y2="-2.4"/>

			<line style="fill-rule:evenodd;clip-rule:evenodd;fill:none;stroke:#FFFFFF;stroke-width:0.43;" x1="52.541" y1="-76.686" x2="52.541" y2="-2.4"/>

			<line style="fill-rule:evenodd;clip-rule:evenodd;fill:none;stroke:#FFFFFF;stroke-width:0.7;" x1="56.666" y1="-76.686" x2="56.666" y2="-2.4"/>

			<line style="fill-rule:evenodd;clip-rule:evenodd;fill:none;stroke:#FFFFFF;stroke-width:0.43;" x1="60.791" y1="-76.686" x2="60.791" y2="-2.4"/>

			<line style="fill-rule:evenodd;clip-rule:evenodd;fill:none;stroke:#FFFFFF;stroke-width:0.7;" x1="64.916" y1="-76.686" x2="64.916" y2="-2.4"/>

			<line style="fill-rule:evenodd;clip-rule:evenodd;fill:none;stroke:#FFFFFF;stroke-width:0.43;" x1="69.041" y1="-76.686" x2="69.041" y2="-2.4"/>

			<line style="fill-rule:evenodd;clip-rule:evenodd;fill:none;stroke:#FFFFFF;stroke-width:0.7;" x1="73.166" y1="-76.686" x2="73.166" y2="-2.4"/>
	</g>
</svg>
