<?xml version="1.0"?>
<!-- Converted with SVG Converter - Version 0.9.5 (Compiled Fri Feb 21 09:53:38 2020) - Copyright (C) 2011 Nokia -->
<svg xmlns="http://www.w3.org/2000/svg" width="74.285" baseProfile="tiny" viewBox="0 -74.285 74.285 74.285" x="0px" version="1.1" xmlns:xlink="http://www.w3.org/1999/xlink" y="0px" height="74.285" xml:space="preserve">
 <g>
  <rect width="74.285" x="0" style="fill:none;" y="-74.285" height="74.285"/>
  <line x1="2.041" y1="-74.285" x2="2.041" style="fill-rule:evenodd;clip-rule:evenodd;fill:none;stroke:#00AEEF;stroke-width:0.43;" y2="0.001"/>
  <line x1="6.166" y1="-74.285" x2="6.166" style="fill-rule:evenodd;clip-rule:evenodd;fill:none;stroke:#00AEEF;stroke-width:0.7;" y2="0.001"/>
  <line x1="10.291" y1="-74.285" x2="10.291" style="fill-rule:evenodd;clip-rule:evenodd;fill:none;stroke:#00AEEF;stroke-width:0.43;" y2="0.001"/>
  <line x1="14.416" y1="-74.285" x2="14.416" style="fill-rule:evenodd;clip-rule:evenodd;fill:none;stroke:#00AEEF;stroke-width:0.7;" y2="0.001"/>
  <line x1="18.541" y1="-74.285" x2="18.541" style="fill-rule:evenodd;clip-rule:evenodd;fill:none;stroke:#00AEEF;stroke-width:0.43;" y2="0.001"/>
  <line x1="22.666" y1="-74.285" x2="22.666" style="fill-rule:evenodd;clip-rule:evenodd;fill:none;stroke:#00AEEF;stroke-width:0.7;" y2="0.001"/>
  <line x1="26.791" y1="-74.285" x2="26.791" style="fill-rule:evenodd;clip-rule:evenodd;fill:none;stroke:#00AEEF;stroke-width:0.43;" y2="0.001"/>
  <line x1="30.916" y1="-74.285" x2="30.916" style="fill-rule:evenodd;clip-rule:evenodd;fill:none;stroke:#00AEEF;stroke-width:0.7;" y2="0.001"/>
  <line x1="35.041" y1="-74.285" x2="35.041" style="fill-rule:evenodd;clip-rule:evenodd;fill:none;stroke:#00AEEF;stroke-width:0.43;" y2="0.001"/>
  <line x1="39.166" y1="-74.285" x2="39.166" style="fill-rule:evenodd;clip-rule:evenodd;fill:none;stroke:#00AEEF;stroke-width:0.7;" y2="0.001"/>
  <line x1="43.291" y1="-74.285" x2="43.291" style="fill-rule:evenodd;clip-rule:evenodd;fill:none;stroke:#00AEEF;stroke-width:0.43;" y2="0.001"/>
  <line x1="47.416" y1="-74.285" x2="47.416" style="fill-rule:evenodd;clip-rule:evenodd;fill:none;stroke:#00AEEF;stroke-width:0.7;" y2="0.001"/>
  <line x1="51.541" y1="-74.285" x2="51.541" style="fill-rule:evenodd;clip-rule:evenodd;fill:none;stroke:#00AEEF;stroke-width:0.43;" y2="0.001"/>
  <line x1="55.666" y1="-74.285" x2="55.666" style="fill-rule:evenodd;clip-rule:evenodd;fill:none;stroke:#00AEEF;stroke-width:0.7;" y2="0.001"/>
  <line x1="59.791" y1="-74.285" x2="59.791" style="fill-rule:evenodd;clip-rule:evenodd;fill:none;stroke:#00AEEF;stroke-width:0.43;" y2="0.001"/>
  <line x1="63.916" y1="-74.285" x2="63.916" style="fill-rule:evenodd;clip-rule:evenodd;fill:none;stroke:#00AEEF;stroke-width:0.7;" y2="0.001"/>
  <line x1="68.041" y1="-74.285" x2="68.041" style="fill-rule:evenodd;clip-rule:evenodd;fill:none;stroke:#00AEEF;stroke-width:0.43;" y2="0.001"/>
  <line x1="72.166" y1="-74.285" x2="72.166" style="fill-rule:evenodd;clip-rule:evenodd;fill:none;stroke:#00AEEF;stroke-width:0.7;" y2="0.001"/>
 </g>
</svg>
