<?xml version="1.0"?>
<!-- Converted with SVG Converter - Version 0.9.6 (Compiled Thu Aug 31 10:01:05 2017) - Copyright (C) 2011 Nokia -->
<svg xmlns="http://www.w3.org/2000/svg" baseProfile="tiny" xml:space="preserve" y="0px" width="74.285" version="1.1" height="74.285" viewBox="0 -74.285 74.285 74.285" x="0px" xmlns:xlink="http://www.w3.org/1999/xlink">
 <g>
  <rect y="-74.285" width="74.285" height="74.285" style="fill:none;" x="0"/>
  <line y2="0.001" y1="-74.285" x2="2.041" x1="2.041" style="fill-rule:evenodd;clip-rule:evenodd;fill:none;stroke:#00AEEF;stroke-width:0.43;"/>
  <line y2="0.001" y1="-74.285" x2="6.166" x1="6.166" style="fill-rule:evenodd;clip-rule:evenodd;fill:none;stroke:#00AEEF;stroke-width:0.7;"/>
  <line y2="0.001" y1="-74.285" x2="10.291" x1="10.291" style="fill-rule:evenodd;clip-rule:evenodd;fill:none;stroke:#00AEEF;stroke-width:0.43;"/>
  <line y2="0.001" y1="-74.285" x2="14.416" x1="14.416" style="fill-rule:evenodd;clip-rule:evenodd;fill:none;stroke:#00AEEF;stroke-width:0.7;"/>
  <line y2="0.001" y1="-74.285" x2="18.541" x1="18.541" style="fill-rule:evenodd;clip-rule:evenodd;fill:none;stroke:#00AEEF;stroke-width:0.43;"/>
  <line y2="0.001" y1="-74.285" x2="22.666" x1="22.666" style="fill-rule:evenodd;clip-rule:evenodd;fill:none;stroke:#00AEEF;stroke-width:0.7;"/>
  <line y2="0.001" y1="-74.285" x2="26.791" x1="26.791" style="fill-rule:evenodd;clip-rule:evenodd;fill:none;stroke:#00AEEF;stroke-width:0.43;"/>
  <line y2="0.001" y1="-74.285" x2="30.916" x1="30.916" style="fill-rule:evenodd;clip-rule:evenodd;fill:none;stroke:#00AEEF;stroke-width:0.7;"/>
  <line y2="0.001" y1="-74.285" x2="35.041" x1="35.041" style="fill-rule:evenodd;clip-rule:evenodd;fill:none;stroke:#00AEEF;stroke-width:0.43;"/>
  <line y2="0.001" y1="-74.285" x2="39.166" x1="39.166" style="fill-rule:evenodd;clip-rule:evenodd;fill:none;stroke:#00AEEF;stroke-width:0.7;"/>
  <line y2="0.001" y1="-74.285" x2="43.291" x1="43.291" style="fill-rule:evenodd;clip-rule:evenodd;fill:none;stroke:#00AEEF;stroke-width:0.43;"/>
  <line y2="0.001" y1="-74.285" x2="47.416" x1="47.416" style="fill-rule:evenodd;clip-rule:evenodd;fill:none;stroke:#00AEEF;stroke-width:0.7;"/>
  <line y2="0.001" y1="-74.285" x2="51.541" x1="51.541" style="fill-rule:evenodd;clip-rule:evenodd;fill:none;stroke:#00AEEF;stroke-width:0.43;"/>
  <line y2="0.001" y1="-74.285" x2="55.666" x1="55.666" style="fill-rule:evenodd;clip-rule:evenodd;fill:none;stroke:#00AEEF;stroke-width:0.7;"/>
  <line y2="0.001" y1="-74.285" x2="59.791" x1="59.791" style="fill-rule:evenodd;clip-rule:evenodd;fill:none;stroke:#00AEEF;stroke-width:0.43;"/>
  <line y2="0.001" y1="-74.285" x2="63.916" x1="63.916" style="fill-rule:evenodd;clip-rule:evenodd;fill:none;stroke:#00AEEF;stroke-width:0.7;"/>
  <line y2="0.001" y1="-74.285" x2="68.041" x1="68.041" style="fill-rule:evenodd;clip-rule:evenodd;fill:none;stroke:#00AEEF;stroke-width:0.43;"/>
  <line y2="0.001" y1="-74.285" x2="72.166" x1="72.166" style="fill-rule:evenodd;clip-rule:evenodd;fill:none;stroke:#00AEEF;stroke-width:0.7;"/>
 </g>
</svg>
