<?xml version="1.0"?>
<!-- Converted with SVG Converter - Version 0.9.5 (Compiled Fri Feb 21 09:53:38 2020) - Copyright (C) 2011 Nokia -->
<svg xmlns="http://www.w3.org/2000/svg" width="74.285" height="74.285" xmlns:xlink="http://www.w3.org/1999/xlink" x="0px" y="0px" xml:space="preserve" version="1.1" baseProfile="tiny" viewBox="1 -76.686 74.285 74.285">
 <g>
  <rect width="74.285" height="74.285" x="1" y="-76.686" style="fill:none;"/>
  <rect width="74.285" height="74.285" x="1" y="-76.686"/>
  <line y2="-2.4" x1="3.041" x2="3.041" style="fill-rule:evenodd;clip-rule:evenodd;fill:none;stroke:#FFFFFF;stroke-width:0.43;" y1="-76.686"/>
  <line y2="-2.4" x1="7.166" x2="7.166" style="fill-rule:evenodd;clip-rule:evenodd;fill:none;stroke:#FFFFFF;stroke-width:0.7;" y1="-76.686"/>
  <line y2="-2.4" x1="11.291" x2="11.291" style="fill-rule:evenodd;clip-rule:evenodd;fill:none;stroke:#FFFFFF;stroke-width:0.43;" y1="-76.686"/>
  <line y2="-2.4" x1="15.416" x2="15.416" style="fill-rule:evenodd;clip-rule:evenodd;fill:none;stroke:#FFFFFF;stroke-width:0.7;" y1="-76.686"/>
  <line y2="-2.4" x1="19.541" x2="19.541" style="fill-rule:evenodd;clip-rule:evenodd;fill:none;stroke:#FFFFFF;stroke-width:0.43;" y1="-76.686"/>
  <line y2="-2.4" x1="23.666" x2="23.666" style="fill-rule:evenodd;clip-rule:evenodd;fill:none;stroke:#FFFFFF;stroke-width:0.7;" y1="-76.686"/>
  <line y2="-2.4" x1="27.791" x2="27.791" style="fill-rule:evenodd;clip-rule:evenodd;fill:none;stroke:#FFFFFF;stroke-width:0.43;" y1="-76.686"/>
  <line y2="-2.4" x1="31.916" x2="31.916" style="fill-rule:evenodd;clip-rule:evenodd;fill:none;stroke:#FFFFFF;stroke-width:0.7;" y1="-76.686"/>
  <line y2="-2.4" x1="36.041" x2="36.041" style="fill-rule:evenodd;clip-rule:evenodd;fill:none;stroke:#FFFFFF;stroke-width:0.43;" y1="-76.686"/>
  <line y2="-2.4" x1="40.166" x2="40.166" style="fill-rule:evenodd;clip-rule:evenodd;fill:none;stroke:#FFFFFF;stroke-width:0.7;" y1="-76.686"/>
  <line y2="-2.4" x1="44.291" x2="44.291" style="fill-rule:evenodd;clip-rule:evenodd;fill:none;stroke:#FFFFFF;stroke-width:0.43;" y1="-76.686"/>
  <line y2="-2.4" x1="48.416" x2="48.416" style="fill-rule:evenodd;clip-rule:evenodd;fill:none;stroke:#FFFFFF;stroke-width:0.7;" y1="-76.686"/>
  <line y2="-2.4" x1="52.541" x2="52.541" style="fill-rule:evenodd;clip-rule:evenodd;fill:none;stroke:#FFFFFF;stroke-width:0.43;" y1="-76.686"/>
  <line y2="-2.4" x1="56.666" x2="56.666" style="fill-rule:evenodd;clip-rule:evenodd;fill:none;stroke:#FFFFFF;stroke-width:0.7;" y1="-76.686"/>
  <line y2="-2.4" x1="60.791" x2="60.791" style="fill-rule:evenodd;clip-rule:evenodd;fill:none;stroke:#FFFFFF;stroke-width:0.43;" y1="-76.686"/>
  <line y2="-2.4" x1="64.916" x2="64.916" style="fill-rule:evenodd;clip-rule:evenodd;fill:none;stroke:#FFFFFF;stroke-width:0.7;" y1="-76.686"/>
  <line y2="-2.4" x1="69.041" x2="69.041" style="fill-rule:evenodd;clip-rule:evenodd;fill:none;stroke:#FFFFFF;stroke-width:0.43;" y1="-76.686"/>
  <line y2="-2.4" x1="73.166" x2="73.166" style="fill-rule:evenodd;clip-rule:evenodd;fill:none;stroke:#FFFFFF;stroke-width:0.7;" y1="-76.686"/>
 </g>
</svg>
