<?xml version="1.0"?>
<!-- Converted with SVG Converter - Version 0.9.6 (Compiled Thu Aug 31 10:01:05 2017) - Copyright (C) 2011 Nokia -->
<svg xmlns="http://www.w3.org/2000/svg" width="72.857" height="72.857" viewBox="1.066 -74.717 72.857 72.857" baseProfile="tiny" y="0px" xmlns:xlink="http://www.w3.org/1999/xlink" xml:space="preserve" x="0px" version="1.1">
 <g>
  <rect width="72.857" height="72.857" y="-74.717" style="fill:none;" x="1.066"/>
  <rect width="72.857" height="72.857" y="-74.717" x="1.066"/>
  <line y1="-74.717" y2="-1.86" style="fill-rule:evenodd;clip-rule:evenodd;fill:none;stroke:#FFFFFF;stroke-width:0.43;" x1="1.86" x2="1.86"/>
  <line y1="-74.717" y2="-1.86" style="fill-rule:evenodd;clip-rule:evenodd;fill:none;stroke:#FFFFFF;stroke-width:0.43;" x1="3.444" x2="3.444"/>
  <line y1="-74.717" y2="-1.86" style="fill-rule:evenodd;clip-rule:evenodd;fill:none;stroke:#FFFFFF;stroke-width:0.43;" x1="5.027" x2="5.027"/>
  <line y1="-74.717" y2="-1.86" style="fill-rule:evenodd;clip-rule:evenodd;fill:none;stroke:#FFFFFF;stroke-width:0.43;" x1="6.61" x2="6.61"/>
  <line y1="-74.717" y2="-1.86" style="fill-rule:evenodd;clip-rule:evenodd;fill:none;stroke:#FFFFFF;stroke-width:0.43;" x1="8.193" x2="8.193"/>
  <line y1="-74.717" y2="-1.86" style="fill-rule:evenodd;clip-rule:evenodd;fill:none;stroke:#FFFFFF;stroke-width:0.43;" x1="9.776" x2="9.776"/>
  <line y1="-74.717" y2="-1.86" style="fill-rule:evenodd;clip-rule:evenodd;fill:none;stroke:#FFFFFF;stroke-width:0.43;" x1="11.359" x2="11.359"/>
  <line y1="-74.717" y2="-1.86" style="fill-rule:evenodd;clip-rule:evenodd;fill:none;stroke:#FFFFFF;stroke-width:0.43;" x1="12.942" x2="12.942"/>
  <line y1="-74.717" y2="-1.86" style="fill-rule:evenodd;clip-rule:evenodd;fill:none;stroke:#FFFFFF;stroke-width:0.43;" x1="14.525" x2="14.525"/>
  <line y1="-74.717" y2="-1.86" style="fill-rule:evenodd;clip-rule:evenodd;fill:none;stroke:#FFFFFF;stroke-width:0.43;" x1="16.109" x2="16.109"/>
  <line y1="-74.717" y2="-1.86" style="fill-rule:evenodd;clip-rule:evenodd;fill:none;stroke:#FFFFFF;stroke-width:0.43;" x1="17.692" x2="17.692"/>
  <line y1="-74.717" y2="-1.86" style="fill-rule:evenodd;clip-rule:evenodd;fill:none;stroke:#FFFFFF;stroke-width:0.43;" x1="19.275" x2="19.275"/>
  <line y1="-74.717" y2="-1.86" style="fill-rule:evenodd;clip-rule:evenodd;fill:none;stroke:#FFFFFF;stroke-width:0.43;" x1="20.858" x2="20.858"/>
  <line y1="-74.717" y2="-1.86" style="fill-rule:evenodd;clip-rule:evenodd;fill:none;stroke:#FFFFFF;stroke-width:0.43;" x1="22.441" x2="22.441"/>
  <line y1="-74.717" y2="-1.86" style="fill-rule:evenodd;clip-rule:evenodd;fill:none;stroke:#FFFFFF;stroke-width:0.43;" x1="24.024" x2="24.024"/>
  <line y1="-74.717" y2="-1.86" style="fill-rule:evenodd;clip-rule:evenodd;fill:none;stroke:#FFFFFF;stroke-width:0.43;" x1="25.607" x2="25.607"/>
  <line y1="-74.717" y2="-1.86" style="fill-rule:evenodd;clip-rule:evenodd;fill:none;stroke:#FFFFFF;stroke-width:0.43;" x1="27.19" x2="27.19"/>
  <line y1="-74.717" y2="-1.86" style="fill-rule:evenodd;clip-rule:evenodd;fill:none;stroke:#FFFFFF;stroke-width:0.43;" x1="28.774" x2="28.774"/>
  <line y1="-74.717" y2="-1.86" style="fill-rule:evenodd;clip-rule:evenodd;fill:none;stroke:#FFFFFF;stroke-width:0.43;" x1="30.357" x2="30.357"/>
  <line y1="-74.717" y2="-1.86" style="fill-rule:evenodd;clip-rule:evenodd;fill:none;stroke:#FFFFFF;stroke-width:0.43;" x1="31.94" x2="31.94"/>
  <line y1="-74.717" y2="-1.86" style="fill-rule:evenodd;clip-rule:evenodd;fill:none;stroke:#FFFFFF;stroke-width:0.43;" x1="33.523" x2="33.523"/>
  <line y1="-74.717" y2="-1.86" style="fill-rule:evenodd;clip-rule:evenodd;fill:none;stroke:#FFFFFF;stroke-width:0.43;" x1="35.106" x2="35.106"/>
  <line y1="-74.717" y2="-1.86" style="fill-rule:evenodd;clip-rule:evenodd;fill:none;stroke:#FFFFFF;stroke-width:0.43;" x1="36.689" x2="36.689"/>
  <line y1="-74.717" y2="-1.86" style="fill-rule:evenodd;clip-rule:evenodd;fill:none;stroke:#FFFFFF;stroke-width:0.43;" x1="38.272" x2="38.272"/>
  <line y1="-74.717" y2="-1.86" style="fill-rule:evenodd;clip-rule:evenodd;fill:none;stroke:#FFFFFF;stroke-width:0.43;" x1="39.855" x2="39.855"/>
  <line y1="-74.717" y2="-1.86" style="fill-rule:evenodd;clip-rule:evenodd;fill:none;stroke:#FFFFFF;stroke-width:0.43;" x1="41.439" x2="41.439"/>
  <line y1="-74.717" y2="-1.86" style="fill-rule:evenodd;clip-rule:evenodd;fill:none;stroke:#FFFFFF;stroke-width:0.43;" x1="43.022" x2="43.022"/>
  <line y1="-74.717" y2="-1.86" style="fill-rule:evenodd;clip-rule:evenodd;fill:none;stroke:#FFFFFF;stroke-width:0.43;" x1="44.605" x2="44.605"/>
  <line y1="-74.717" y2="-1.86" style="fill-rule:evenodd;clip-rule:evenodd;fill:none;stroke:#FFFFFF;stroke-width:0.43;" x1="46.188" x2="46.188"/>
  <line y1="-74.717" y2="-1.86" style="fill-rule:evenodd;clip-rule:evenodd;fill:none;stroke:#FFFFFF;stroke-width:0.43;" x1="47.771" x2="47.771"/>
  <line y1="-74.717" y2="-1.86" style="fill-rule:evenodd;clip-rule:evenodd;fill:none;stroke:#FFFFFF;stroke-width:0.43;" x1="49.354" x2="49.354"/>
  <line y1="-74.717" y2="-1.86" style="fill-rule:evenodd;clip-rule:evenodd;fill:none;stroke:#FFFFFF;stroke-width:0.43;" x1="50.938" x2="50.938"/>
  <line y1="-74.717" y2="-1.86" style="fill-rule:evenodd;clip-rule:evenodd;fill:none;stroke:#FFFFFF;stroke-width:0.43;" x1="52.521" x2="52.521"/>
  <line y1="-74.717" y2="-1.86" style="fill-rule:evenodd;clip-rule:evenodd;fill:none;stroke:#FFFFFF;stroke-width:0.43;" x1="54.104" x2="54.104"/>
  <line y1="-74.717" y2="-1.86" style="fill-rule:evenodd;clip-rule:evenodd;fill:none;stroke:#FFFFFF;stroke-width:0.43;" x1="55.687" x2="55.687"/>
  <line y1="-74.717" y2="-1.86" style="fill-rule:evenodd;clip-rule:evenodd;fill:none;stroke:#FFFFFF;stroke-width:0.43;" x1="57.27" x2="57.27"/>
  <line y1="-74.717" y2="-1.86" style="fill-rule:evenodd;clip-rule:evenodd;fill:none;stroke:#FFFFFF;stroke-width:0.43;" x1="58.853" x2="58.853"/>
  <line y1="-74.717" y2="-1.86" style="fill-rule:evenodd;clip-rule:evenodd;fill:none;stroke:#FFFFFF;stroke-width:0.43;" x1="60.437" x2="60.437"/>
  <line y1="-74.717" y2="-1.86" style="fill-rule:evenodd;clip-rule:evenodd;fill:none;stroke:#FFFFFF;stroke-width:0.43;" x1="62.02" x2="62.02"/>
  <line y1="-74.717" y2="-1.86" style="fill-rule:evenodd;clip-rule:evenodd;fill:none;stroke:#FFFFFF;stroke-width:0.43;" x1="63.603" x2="63.603"/>
  <line y1="-74.717" y2="-1.86" style="fill-rule:evenodd;clip-rule:evenodd;fill:none;stroke:#FFFFFF;stroke-width:0.43;" x1="65.186" x2="65.186"/>
  <line y1="-74.717" y2="-1.86" style="fill-rule:evenodd;clip-rule:evenodd;fill:none;stroke:#FFFFFF;stroke-width:0.43;" x1="66.769" x2="66.769"/>
  <line y1="-74.717" y2="-1.86" style="fill:none;stroke:#FFFFFF;stroke-width:0.43;" x1="68.352" x2="68.352"/>
  <line y1="-74.717" y2="-1.86" style="fill-rule:evenodd;clip-rule:evenodd;fill:none;stroke:#FFFFFF;stroke-width:0.43;" x1="69.935" x2="69.935"/>
  <line y1="-74.717" y2="-1.86" style="fill-rule:evenodd;clip-rule:evenodd;fill:none;stroke:#FFFFFF;stroke-width:0.43;" x1="71.518" x2="71.518"/>
  <line y1="-74.717" y2="-1.86" style="fill-rule:evenodd;clip-rule:evenodd;fill:none;stroke:#FFFFFF;stroke-width:0.43;" x1="73.111" x2="73.111"/>
 </g>
</svg>
