<?xml version="1.0"?>
<!-- Converted with SVG Converter - Version 0.9.6 (Compiled Thu Aug 31 10:01:05 2017) - Copyright (C) 2011 Nokia -->
<svg xmlns="http://www.w3.org/2000/svg" baseProfile="tiny" version="1.1" xml:space="preserve" x="0px" y="0px" width="72.857" height="72.857" viewBox="1.066 -74.717 72.857 72.857" xmlns:xlink="http://www.w3.org/1999/xlink">
 <g>
  <rect x="1.066" y="-74.717" style="fill:none;" width="72.857" height="72.857"/>
  <rect x="1.066" y="-74.717" width="72.857" height="72.857"/>
  <line y1="-74.717" x2="1.86" x1="1.86" style="fill-rule:evenodd;clip-rule:evenodd;fill:none;stroke:#FFFFFF;stroke-width:0.43;" y2="-1.86"/>
  <line y1="-74.717" x2="3.444" x1="3.444" style="fill-rule:evenodd;clip-rule:evenodd;fill:none;stroke:#FFFFFF;stroke-width:0.43;" y2="-1.86"/>
  <line y1="-74.717" x2="5.027" x1="5.027" style="fill-rule:evenodd;clip-rule:evenodd;fill:none;stroke:#FFFFFF;stroke-width:0.43;" y2="-1.86"/>
  <line y1="-74.717" x2="6.61" x1="6.61" style="fill-rule:evenodd;clip-rule:evenodd;fill:none;stroke:#FFFFFF;stroke-width:0.43;" y2="-1.86"/>
  <line y1="-74.717" x2="8.193" x1="8.193" style="fill-rule:evenodd;clip-rule:evenodd;fill:none;stroke:#FFFFFF;stroke-width:0.43;" y2="-1.86"/>
  <line y1="-74.717" x2="9.776" x1="9.776" style="fill-rule:evenodd;clip-rule:evenodd;fill:none;stroke:#FFFFFF;stroke-width:0.43;" y2="-1.86"/>
  <line y1="-74.717" x2="11.359" x1="11.359" style="fill-rule:evenodd;clip-rule:evenodd;fill:none;stroke:#FFFFFF;stroke-width:0.43;" y2="-1.86"/>
  <line y1="-74.717" x2="12.942" x1="12.942" style="fill-rule:evenodd;clip-rule:evenodd;fill:none;stroke:#FFFFFF;stroke-width:0.43;" y2="-1.86"/>
  <line y1="-74.717" x2="14.525" x1="14.525" style="fill-rule:evenodd;clip-rule:evenodd;fill:none;stroke:#FFFFFF;stroke-width:0.43;" y2="-1.86"/>
  <line y1="-74.717" x2="16.109" x1="16.109" style="fill-rule:evenodd;clip-rule:evenodd;fill:none;stroke:#FFFFFF;stroke-width:0.43;" y2="-1.86"/>
  <line y1="-74.717" x2="17.692" x1="17.692" style="fill-rule:evenodd;clip-rule:evenodd;fill:none;stroke:#FFFFFF;stroke-width:0.43;" y2="-1.86"/>
  <line y1="-74.717" x2="19.275" x1="19.275" style="fill-rule:evenodd;clip-rule:evenodd;fill:none;stroke:#FFFFFF;stroke-width:0.43;" y2="-1.86"/>
  <line y1="-74.717" x2="20.858" x1="20.858" style="fill-rule:evenodd;clip-rule:evenodd;fill:none;stroke:#FFFFFF;stroke-width:0.43;" y2="-1.86"/>
  <line y1="-74.717" x2="22.441" x1="22.441" style="fill-rule:evenodd;clip-rule:evenodd;fill:none;stroke:#FFFFFF;stroke-width:0.43;" y2="-1.86"/>
  <line y1="-74.717" x2="24.024" x1="24.024" style="fill-rule:evenodd;clip-rule:evenodd;fill:none;stroke:#FFFFFF;stroke-width:0.43;" y2="-1.86"/>
  <line y1="-74.717" x2="25.607" x1="25.607" style="fill-rule:evenodd;clip-rule:evenodd;fill:none;stroke:#FFFFFF;stroke-width:0.43;" y2="-1.86"/>
  <line y1="-74.717" x2="27.19" x1="27.19" style="fill-rule:evenodd;clip-rule:evenodd;fill:none;stroke:#FFFFFF;stroke-width:0.43;" y2="-1.86"/>
  <line y1="-74.717" x2="28.774" x1="28.774" style="fill-rule:evenodd;clip-rule:evenodd;fill:none;stroke:#FFFFFF;stroke-width:0.43;" y2="-1.86"/>
  <line y1="-74.717" x2="30.357" x1="30.357" style="fill-rule:evenodd;clip-rule:evenodd;fill:none;stroke:#FFFFFF;stroke-width:0.43;" y2="-1.86"/>
  <line y1="-74.717" x2="31.94" x1="31.94" style="fill-rule:evenodd;clip-rule:evenodd;fill:none;stroke:#FFFFFF;stroke-width:0.43;" y2="-1.86"/>
  <line y1="-74.717" x2="33.523" x1="33.523" style="fill-rule:evenodd;clip-rule:evenodd;fill:none;stroke:#FFFFFF;stroke-width:0.43;" y2="-1.86"/>
  <line y1="-74.717" x2="35.106" x1="35.106" style="fill-rule:evenodd;clip-rule:evenodd;fill:none;stroke:#FFFFFF;stroke-width:0.43;" y2="-1.86"/>
  <line y1="-74.717" x2="36.689" x1="36.689" style="fill-rule:evenodd;clip-rule:evenodd;fill:none;stroke:#FFFFFF;stroke-width:0.43;" y2="-1.86"/>
  <line y1="-74.717" x2="38.272" x1="38.272" style="fill-rule:evenodd;clip-rule:evenodd;fill:none;stroke:#FFFFFF;stroke-width:0.43;" y2="-1.86"/>
  <line y1="-74.717" x2="39.855" x1="39.855" style="fill-rule:evenodd;clip-rule:evenodd;fill:none;stroke:#FFFFFF;stroke-width:0.43;" y2="-1.86"/>
  <line y1="-74.717" x2="41.439" x1="41.439" style="fill-rule:evenodd;clip-rule:evenodd;fill:none;stroke:#FFFFFF;stroke-width:0.43;" y2="-1.86"/>
  <line y1="-74.717" x2="43.022" x1="43.022" style="fill-rule:evenodd;clip-rule:evenodd;fill:none;stroke:#FFFFFF;stroke-width:0.43;" y2="-1.86"/>
  <line y1="-74.717" x2="44.605" x1="44.605" style="fill-rule:evenodd;clip-rule:evenodd;fill:none;stroke:#FFFFFF;stroke-width:0.43;" y2="-1.86"/>
  <line y1="-74.717" x2="46.188" x1="46.188" style="fill-rule:evenodd;clip-rule:evenodd;fill:none;stroke:#FFFFFF;stroke-width:0.43;" y2="-1.86"/>
  <line y1="-74.717" x2="47.771" x1="47.771" style="fill-rule:evenodd;clip-rule:evenodd;fill:none;stroke:#FFFFFF;stroke-width:0.43;" y2="-1.86"/>
  <line y1="-74.717" x2="49.354" x1="49.354" style="fill-rule:evenodd;clip-rule:evenodd;fill:none;stroke:#FFFFFF;stroke-width:0.43;" y2="-1.86"/>
  <line y1="-74.717" x2="50.938" x1="50.938" style="fill-rule:evenodd;clip-rule:evenodd;fill:none;stroke:#FFFFFF;stroke-width:0.43;" y2="-1.86"/>
  <line y1="-74.717" x2="52.521" x1="52.521" style="fill-rule:evenodd;clip-rule:evenodd;fill:none;stroke:#FFFFFF;stroke-width:0.43;" y2="-1.86"/>
  <line y1="-74.717" x2="54.104" x1="54.104" style="fill-rule:evenodd;clip-rule:evenodd;fill:none;stroke:#FFFFFF;stroke-width:0.43;" y2="-1.86"/>
  <line y1="-74.717" x2="55.687" x1="55.687" style="fill-rule:evenodd;clip-rule:evenodd;fill:none;stroke:#FFFFFF;stroke-width:0.43;" y2="-1.86"/>
  <line y1="-74.717" x2="57.27" x1="57.27" style="fill-rule:evenodd;clip-rule:evenodd;fill:none;stroke:#FFFFFF;stroke-width:0.43;" y2="-1.86"/>
  <line y1="-74.717" x2="58.853" x1="58.853" style="fill-rule:evenodd;clip-rule:evenodd;fill:none;stroke:#FFFFFF;stroke-width:0.43;" y2="-1.86"/>
  <line y1="-74.717" x2="60.437" x1="60.437" style="fill-rule:evenodd;clip-rule:evenodd;fill:none;stroke:#FFFFFF;stroke-width:0.43;" y2="-1.86"/>
  <line y1="-74.717" x2="62.02" x1="62.02" style="fill-rule:evenodd;clip-rule:evenodd;fill:none;stroke:#FFFFFF;stroke-width:0.43;" y2="-1.86"/>
  <line y1="-74.717" x2="63.603" x1="63.603" style="fill-rule:evenodd;clip-rule:evenodd;fill:none;stroke:#FFFFFF;stroke-width:0.43;" y2="-1.86"/>
  <line y1="-74.717" x2="65.186" x1="65.186" style="fill-rule:evenodd;clip-rule:evenodd;fill:none;stroke:#FFFFFF;stroke-width:0.43;" y2="-1.86"/>
  <line y1="-74.717" x2="66.769" x1="66.769" style="fill-rule:evenodd;clip-rule:evenodd;fill:none;stroke:#FFFFFF;stroke-width:0.43;" y2="-1.86"/>
  <line y1="-74.717" x2="68.352" x1="68.352" style="fill:none;stroke:#FFFFFF;stroke-width:0.43;" y2="-1.86"/>
  <line y1="-74.717" x2="69.935" x1="69.935" style="fill-rule:evenodd;clip-rule:evenodd;fill:none;stroke:#FFFFFF;stroke-width:0.43;" y2="-1.86"/>
  <line y1="-74.717" x2="71.518" x1="71.518" style="fill-rule:evenodd;clip-rule:evenodd;fill:none;stroke:#FFFFFF;stroke-width:0.43;" y2="-1.86"/>
  <line y1="-74.717" x2="73.111" x1="73.111" style="fill-rule:evenodd;clip-rule:evenodd;fill:none;stroke:#FFFFFF;stroke-width:0.43;" y2="-1.86"/>
 </g>
</svg>
