<?xml version="1.0"?>
<!-- Converted with SVG Converter - Version 0.9.6 (Compiled Thu Aug 31 10:01:05 2017) - Copyright (C) 2011 Nokia -->
<svg xmlns="http://www.w3.org/2000/svg" y="0px" x="0px" viewBox="1 -74.517 72.857 72.857" version="1.1" xmlns:xlink="http://www.w3.org/1999/xlink" baseProfile="tiny" xml:space="preserve" width="72.857" height="72.857">
 <g>
  <rect y="-74.517" x="1" style="fill:none;" width="72.857" height="72.857"/>
  <line x1="1.794" y2="-1.66" style="fill-rule:evenodd;clip-rule:evenodd;fill:none;stroke:#000000;stroke-width:0.33;" y1="-74.517" x2="1.794"/>
  <line x1="3.378" y2="-1.66" style="fill-rule:evenodd;clip-rule:evenodd;fill:none;stroke:#000000;stroke-width:0.33;" y1="-74.517" x2="3.378"/>
  <line x1="4.961" y2="-1.66" style="fill-rule:evenodd;clip-rule:evenodd;fill:none;stroke:#000000;stroke-width:0.33;" y1="-74.517" x2="4.961"/>
  <line x1="6.544" y2="-1.66" style="fill-rule:evenodd;clip-rule:evenodd;fill:none;stroke:#000000;stroke-width:0.33;" y1="-74.517" x2="6.544"/>
  <line x1="8.127" y2="-1.66" style="fill-rule:evenodd;clip-rule:evenodd;fill:none;stroke:#000000;stroke-width:0.33;" y1="-74.517" x2="8.127"/>
  <line x1="9.71" y2="-1.66" style="fill-rule:evenodd;clip-rule:evenodd;fill:none;stroke:#000000;stroke-width:0.33;" y1="-74.517" x2="9.71"/>
  <line x1="11.293" y2="-1.66" style="fill-rule:evenodd;clip-rule:evenodd;fill:none;stroke:#000000;stroke-width:0.33;" y1="-74.517" x2="11.293"/>
  <line x1="12.877" y2="-1.66" style="fill-rule:evenodd;clip-rule:evenodd;fill:none;stroke:#000000;stroke-width:0.33;" y1="-74.517" x2="12.877"/>
  <line x1="14.46" y2="-1.66" style="fill-rule:evenodd;clip-rule:evenodd;fill:none;stroke:#000000;stroke-width:0.33;" y1="-74.517" x2="14.46"/>
  <line x1="16.043" y2="-1.66" style="fill-rule:evenodd;clip-rule:evenodd;fill:none;stroke:#000000;stroke-width:0.33;" y1="-74.517" x2="16.043"/>
  <line x1="17.626" y2="-1.66" style="fill-rule:evenodd;clip-rule:evenodd;fill:none;stroke:#000000;stroke-width:0.33;" y1="-74.517" x2="17.626"/>
  <line x1="19.209" y2="-1.66" style="fill-rule:evenodd;clip-rule:evenodd;fill:none;stroke:#000000;stroke-width:0.33;" y1="-74.517" x2="19.209"/>
  <line x1="20.792" y2="-1.66" style="fill-rule:evenodd;clip-rule:evenodd;fill:none;stroke:#000000;stroke-width:0.33;" y1="-74.517" x2="20.792"/>
  <line x1="22.375" y2="-1.66" style="fill-rule:evenodd;clip-rule:evenodd;fill:none;stroke:#000000;stroke-width:0.33;" y1="-74.517" x2="22.375"/>
  <line x1="23.958" y2="-1.66" style="fill-rule:evenodd;clip-rule:evenodd;fill:none;stroke:#000000;stroke-width:0.33;" y1="-74.517" x2="23.958"/>
  <line x1="25.542" y2="-1.66" style="fill-rule:evenodd;clip-rule:evenodd;fill:none;stroke:#000000;stroke-width:0.33;" y1="-74.517" x2="25.542"/>
  <line x1="27.125" y2="-1.66" style="fill-rule:evenodd;clip-rule:evenodd;fill:none;stroke:#000000;stroke-width:0.33;" y1="-74.517" x2="27.125"/>
  <line x1="28.708" y2="-1.66" style="fill-rule:evenodd;clip-rule:evenodd;fill:none;stroke:#000000;stroke-width:0.33;" y1="-74.517" x2="28.708"/>
  <line x1="30.291" y2="-1.66" style="fill-rule:evenodd;clip-rule:evenodd;fill:none;stroke:#000000;stroke-width:0.33;" y1="-74.517" x2="30.291"/>
  <line x1="31.874" y2="-1.66" style="fill-rule:evenodd;clip-rule:evenodd;fill:none;stroke:#000000;stroke-width:0.33;" y1="-74.517" x2="31.874"/>
  <line x1="33.457" y2="-1.66" style="fill-rule:evenodd;clip-rule:evenodd;fill:none;stroke:#000000;stroke-width:0.33;" y1="-74.517" x2="33.457"/>
  <line x1="35.041" y2="-1.66" style="fill-rule:evenodd;clip-rule:evenodd;fill:none;stroke:#000000;stroke-width:0.33;" y1="-74.517" x2="35.041"/>
  <line x1="36.624" y2="-1.66" style="fill-rule:evenodd;clip-rule:evenodd;fill:none;stroke:#000000;stroke-width:0.33;" y1="-74.517" x2="36.624"/>
  <line x1="38.207" y2="-1.66" style="fill-rule:evenodd;clip-rule:evenodd;fill:none;stroke:#000000;stroke-width:0.33;" y1="-74.517" x2="38.207"/>
  <line x1="39.79" y2="-1.66" style="fill-rule:evenodd;clip-rule:evenodd;fill:none;stroke:#000000;stroke-width:0.33;" y1="-74.517" x2="39.79"/>
  <line x1="41.373" y2="-1.66" style="fill-rule:evenodd;clip-rule:evenodd;fill:none;stroke:#000000;stroke-width:0.33;" y1="-74.517" x2="41.373"/>
  <line x1="42.956" y2="-1.66" style="fill-rule:evenodd;clip-rule:evenodd;fill:none;stroke:#000000;stroke-width:0.33;" y1="-74.517" x2="42.956"/>
  <line x1="44.539" y2="-1.66" style="fill-rule:evenodd;clip-rule:evenodd;fill:none;stroke:#000000;stroke-width:0.33;" y1="-74.517" x2="44.539"/>
  <line x1="46.122" y2="-1.66" style="fill-rule:evenodd;clip-rule:evenodd;fill:none;stroke:#000000;stroke-width:0.33;" y1="-74.517" x2="46.122"/>
  <line x1="47.706" y2="-1.66" style="fill-rule:evenodd;clip-rule:evenodd;fill:none;stroke:#000000;stroke-width:0.33;" y1="-74.517" x2="47.706"/>
  <line x1="49.289" y2="-1.66" style="fill-rule:evenodd;clip-rule:evenodd;fill:none;stroke:#000000;stroke-width:0.33;" y1="-74.517" x2="49.289"/>
  <line x1="50.872" y2="-1.66" style="fill-rule:evenodd;clip-rule:evenodd;fill:none;stroke:#000000;stroke-width:0.33;" y1="-74.517" x2="50.872"/>
  <line x1="52.455" y2="-1.66" style="fill-rule:evenodd;clip-rule:evenodd;fill:none;stroke:#000000;stroke-width:0.33;" y1="-74.517" x2="52.455"/>
  <line x1="54.038" y2="-1.66" style="fill-rule:evenodd;clip-rule:evenodd;fill:none;stroke:#000000;stroke-width:0.33;" y1="-74.517" x2="54.038"/>
  <line x1="55.621" y2="-1.66" style="fill-rule:evenodd;clip-rule:evenodd;fill:none;stroke:#000000;stroke-width:0.33;" y1="-74.517" x2="55.621"/>
  <line x1="57.204" y2="-1.66" style="fill-rule:evenodd;clip-rule:evenodd;fill:none;stroke:#000000;stroke-width:0.33;" y1="-74.517" x2="57.204"/>
  <line x1="58.787" y2="-1.66" style="fill-rule:evenodd;clip-rule:evenodd;fill:none;stroke:#000000;stroke-width:0.33;" y1="-74.517" x2="58.787"/>
  <line x1="60.371" y2="-1.66" style="fill-rule:evenodd;clip-rule:evenodd;fill:none;stroke:#000000;stroke-width:0.33;" y1="-74.517" x2="60.371"/>
  <line x1="61.954" y2="-1.66" style="fill-rule:evenodd;clip-rule:evenodd;fill:none;stroke:#000000;stroke-width:0.33;" y1="-74.517" x2="61.954"/>
  <line x1="63.537" y2="-1.66" style="fill-rule:evenodd;clip-rule:evenodd;fill:none;stroke:#000000;stroke-width:0.33;" y1="-74.517" x2="63.537"/>
  <line x1="65.12" y2="-1.66" style="fill-rule:evenodd;clip-rule:evenodd;fill:none;stroke:#000000;stroke-width:0.33;" y1="-74.517" x2="65.12"/>
  <line x1="66.703" y2="-1.66" style="fill-rule:evenodd;clip-rule:evenodd;fill:none;stroke:#000000;stroke-width:0.33;" y1="-74.517" x2="66.703"/>
  <line x1="68.286" y2="-1.66" style="fill:none;stroke:#000000;stroke-width:0.33;" y1="-74.517" x2="68.286"/>
  <line x1="69.869" y2="-1.66" style="fill-rule:evenodd;clip-rule:evenodd;fill:none;stroke:#000000;stroke-width:0.33;" y1="-74.517" x2="69.869"/>
  <line x1="71.452" y2="-1.66" style="fill-rule:evenodd;clip-rule:evenodd;fill:none;stroke:#000000;stroke-width:0.33;" y1="-74.517" x2="71.452"/>
  <line x1="73.045" y2="-1.66" style="fill-rule:evenodd;clip-rule:evenodd;fill:none;stroke:#000000;stroke-width:0.33;" y1="-74.517" x2="73.045"/>
 </g>
</svg>
