<?xml version="1.0"?>
<!-- Converted with SVG Converter - Version 0.9.5 (Compiled Fri Feb 21 09:53:38 2020) - Copyright (C) 2011 Nokia -->
<svg xmlns="http://www.w3.org/2000/svg" height="72.857" xml:space="preserve" version="1.1" viewBox="1.066 -74.717 72.857 72.857" xmlns:xlink="http://www.w3.org/1999/xlink" y="0px" width="72.857" baseProfile="tiny" x="0px">
 <g>
  <rect height="72.857" y="-74.717" width="72.857" style="fill:none;" x="1.066"/>
  <rect height="72.857" y="-74.717" width="72.857" x="1.066"/>
  <line x1="1.86" y1="-74.717" y2="-1.86" style="fill-rule:evenodd;clip-rule:evenodd;fill:none;stroke:#FFFFFF;stroke-width:0.43;" x2="1.86"/>
  <line x1="3.444" y1="-74.717" y2="-1.86" style="fill-rule:evenodd;clip-rule:evenodd;fill:none;stroke:#FFFFFF;stroke-width:0.43;" x2="3.444"/>
  <line x1="5.027" y1="-74.717" y2="-1.86" style="fill-rule:evenodd;clip-rule:evenodd;fill:none;stroke:#FFFFFF;stroke-width:0.43;" x2="5.027"/>
  <line x1="6.61" y1="-74.717" y2="-1.86" style="fill-rule:evenodd;clip-rule:evenodd;fill:none;stroke:#FFFFFF;stroke-width:0.43;" x2="6.61"/>
  <line x1="8.193" y1="-74.717" y2="-1.86" style="fill-rule:evenodd;clip-rule:evenodd;fill:none;stroke:#FFFFFF;stroke-width:0.43;" x2="8.193"/>
  <line x1="9.776" y1="-74.717" y2="-1.86" style="fill-rule:evenodd;clip-rule:evenodd;fill:none;stroke:#FFFFFF;stroke-width:0.43;" x2="9.776"/>
  <line x1="11.359" y1="-74.717" y2="-1.86" style="fill-rule:evenodd;clip-rule:evenodd;fill:none;stroke:#FFFFFF;stroke-width:0.43;" x2="11.359"/>
  <line x1="12.942" y1="-74.717" y2="-1.86" style="fill-rule:evenodd;clip-rule:evenodd;fill:none;stroke:#FFFFFF;stroke-width:0.43;" x2="12.942"/>
  <line x1="14.525" y1="-74.717" y2="-1.86" style="fill-rule:evenodd;clip-rule:evenodd;fill:none;stroke:#FFFFFF;stroke-width:0.43;" x2="14.525"/>
  <line x1="16.109" y1="-74.717" y2="-1.86" style="fill-rule:evenodd;clip-rule:evenodd;fill:none;stroke:#FFFFFF;stroke-width:0.43;" x2="16.109"/>
  <line x1="17.692" y1="-74.717" y2="-1.86" style="fill-rule:evenodd;clip-rule:evenodd;fill:none;stroke:#FFFFFF;stroke-width:0.43;" x2="17.692"/>
  <line x1="19.275" y1="-74.717" y2="-1.86" style="fill-rule:evenodd;clip-rule:evenodd;fill:none;stroke:#FFFFFF;stroke-width:0.43;" x2="19.275"/>
  <line x1="20.858" y1="-74.717" y2="-1.86" style="fill-rule:evenodd;clip-rule:evenodd;fill:none;stroke:#FFFFFF;stroke-width:0.43;" x2="20.858"/>
  <line x1="22.441" y1="-74.717" y2="-1.86" style="fill-rule:evenodd;clip-rule:evenodd;fill:none;stroke:#FFFFFF;stroke-width:0.43;" x2="22.441"/>
  <line x1="24.024" y1="-74.717" y2="-1.86" style="fill-rule:evenodd;clip-rule:evenodd;fill:none;stroke:#FFFFFF;stroke-width:0.43;" x2="24.024"/>
  <line x1="25.607" y1="-74.717" y2="-1.86" style="fill-rule:evenodd;clip-rule:evenodd;fill:none;stroke:#FFFFFF;stroke-width:0.43;" x2="25.607"/>
  <line x1="27.19" y1="-74.717" y2="-1.86" style="fill-rule:evenodd;clip-rule:evenodd;fill:none;stroke:#FFFFFF;stroke-width:0.43;" x2="27.19"/>
  <line x1="28.774" y1="-74.717" y2="-1.86" style="fill-rule:evenodd;clip-rule:evenodd;fill:none;stroke:#FFFFFF;stroke-width:0.43;" x2="28.774"/>
  <line x1="30.357" y1="-74.717" y2="-1.86" style="fill-rule:evenodd;clip-rule:evenodd;fill:none;stroke:#FFFFFF;stroke-width:0.43;" x2="30.357"/>
  <line x1="31.94" y1="-74.717" y2="-1.86" style="fill-rule:evenodd;clip-rule:evenodd;fill:none;stroke:#FFFFFF;stroke-width:0.43;" x2="31.94"/>
  <line x1="33.523" y1="-74.717" y2="-1.86" style="fill-rule:evenodd;clip-rule:evenodd;fill:none;stroke:#FFFFFF;stroke-width:0.43;" x2="33.523"/>
  <line x1="35.106" y1="-74.717" y2="-1.86" style="fill-rule:evenodd;clip-rule:evenodd;fill:none;stroke:#FFFFFF;stroke-width:0.43;" x2="35.106"/>
  <line x1="36.689" y1="-74.717" y2="-1.86" style="fill-rule:evenodd;clip-rule:evenodd;fill:none;stroke:#FFFFFF;stroke-width:0.43;" x2="36.689"/>
  <line x1="38.272" y1="-74.717" y2="-1.86" style="fill-rule:evenodd;clip-rule:evenodd;fill:none;stroke:#FFFFFF;stroke-width:0.43;" x2="38.272"/>
  <line x1="39.855" y1="-74.717" y2="-1.86" style="fill-rule:evenodd;clip-rule:evenodd;fill:none;stroke:#FFFFFF;stroke-width:0.43;" x2="39.855"/>
  <line x1="41.439" y1="-74.717" y2="-1.86" style="fill-rule:evenodd;clip-rule:evenodd;fill:none;stroke:#FFFFFF;stroke-width:0.43;" x2="41.439"/>
  <line x1="43.022" y1="-74.717" y2="-1.86" style="fill-rule:evenodd;clip-rule:evenodd;fill:none;stroke:#FFFFFF;stroke-width:0.43;" x2="43.022"/>
  <line x1="44.605" y1="-74.717" y2="-1.86" style="fill-rule:evenodd;clip-rule:evenodd;fill:none;stroke:#FFFFFF;stroke-width:0.43;" x2="44.605"/>
  <line x1="46.188" y1="-74.717" y2="-1.86" style="fill-rule:evenodd;clip-rule:evenodd;fill:none;stroke:#FFFFFF;stroke-width:0.43;" x2="46.188"/>
  <line x1="47.771" y1="-74.717" y2="-1.86" style="fill-rule:evenodd;clip-rule:evenodd;fill:none;stroke:#FFFFFF;stroke-width:0.43;" x2="47.771"/>
  <line x1="49.354" y1="-74.717" y2="-1.86" style="fill-rule:evenodd;clip-rule:evenodd;fill:none;stroke:#FFFFFF;stroke-width:0.43;" x2="49.354"/>
  <line x1="50.938" y1="-74.717" y2="-1.86" style="fill-rule:evenodd;clip-rule:evenodd;fill:none;stroke:#FFFFFF;stroke-width:0.43;" x2="50.938"/>
  <line x1="52.521" y1="-74.717" y2="-1.86" style="fill-rule:evenodd;clip-rule:evenodd;fill:none;stroke:#FFFFFF;stroke-width:0.43;" x2="52.521"/>
  <line x1="54.104" y1="-74.717" y2="-1.86" style="fill-rule:evenodd;clip-rule:evenodd;fill:none;stroke:#FFFFFF;stroke-width:0.43;" x2="54.104"/>
  <line x1="55.687" y1="-74.717" y2="-1.86" style="fill-rule:evenodd;clip-rule:evenodd;fill:none;stroke:#FFFFFF;stroke-width:0.43;" x2="55.687"/>
  <line x1="57.27" y1="-74.717" y2="-1.86" style="fill-rule:evenodd;clip-rule:evenodd;fill:none;stroke:#FFFFFF;stroke-width:0.43;" x2="57.27"/>
  <line x1="58.853" y1="-74.717" y2="-1.86" style="fill-rule:evenodd;clip-rule:evenodd;fill:none;stroke:#FFFFFF;stroke-width:0.43;" x2="58.853"/>
  <line x1="60.437" y1="-74.717" y2="-1.86" style="fill-rule:evenodd;clip-rule:evenodd;fill:none;stroke:#FFFFFF;stroke-width:0.43;" x2="60.437"/>
  <line x1="62.02" y1="-74.717" y2="-1.86" style="fill-rule:evenodd;clip-rule:evenodd;fill:none;stroke:#FFFFFF;stroke-width:0.43;" x2="62.02"/>
  <line x1="63.603" y1="-74.717" y2="-1.86" style="fill-rule:evenodd;clip-rule:evenodd;fill:none;stroke:#FFFFFF;stroke-width:0.43;" x2="63.603"/>
  <line x1="65.186" y1="-74.717" y2="-1.86" style="fill-rule:evenodd;clip-rule:evenodd;fill:none;stroke:#FFFFFF;stroke-width:0.43;" x2="65.186"/>
  <line x1="66.769" y1="-74.717" y2="-1.86" style="fill-rule:evenodd;clip-rule:evenodd;fill:none;stroke:#FFFFFF;stroke-width:0.43;" x2="66.769"/>
  <line x1="68.352" y1="-74.717" y2="-1.86" style="fill:none;stroke:#FFFFFF;stroke-width:0.43;" x2="68.352"/>
  <line x1="69.935" y1="-74.717" y2="-1.86" style="fill-rule:evenodd;clip-rule:evenodd;fill:none;stroke:#FFFFFF;stroke-width:0.43;" x2="69.935"/>
  <line x1="71.518" y1="-74.717" y2="-1.86" style="fill-rule:evenodd;clip-rule:evenodd;fill:none;stroke:#FFFFFF;stroke-width:0.43;" x2="71.518"/>
  <line x1="73.111" y1="-74.717" y2="-1.86" style="fill-rule:evenodd;clip-rule:evenodd;fill:none;stroke:#FFFFFF;stroke-width:0.43;" x2="73.111"/>
 </g>
</svg>
