<?xml version="1.0"?>
<!-- Converted with SVG Converter - Version 0.9.5 (Compiled Fri Feb 21 09:53:38 2020) - Copyright (C) 2011 Nokia -->
<svg xmlns="http://www.w3.org/2000/svg" viewBox="0 -72.857 72.857 72.857" baseProfile="tiny" width="72.857" y="0px" height="72.857" xmlns:xlink="http://www.w3.org/1999/xlink" version="1.1" x="0px" xml:space="preserve">
 <g>
  <rect width="72.857" y="-72.857" style="fill:none;" height="72.857" x="0"/>
  <line x1="0.794" style="fill-rule:evenodd;clip-rule:evenodd;fill:none;stroke:#EC008C;stroke-width:0.43;" y1="-72.857" y2="0" x2="0.794"/>
  <line x1="2.378" style="fill-rule:evenodd;clip-rule:evenodd;fill:none;stroke:#EC008C;stroke-width:0.43;" y1="-72.857" y2="0" x2="2.378"/>
  <line x1="3.961" style="fill-rule:evenodd;clip-rule:evenodd;fill:none;stroke:#EC008C;stroke-width:0.43;" y1="-72.857" y2="0" x2="3.961"/>
  <line x1="5.544" style="fill-rule:evenodd;clip-rule:evenodd;fill:none;stroke:#EC008C;stroke-width:0.43;" y1="-72.857" y2="0" x2="5.544"/>
  <line x1="7.127" style="fill-rule:evenodd;clip-rule:evenodd;fill:none;stroke:#EC008C;stroke-width:0.43;" y1="-72.857" y2="0" x2="7.127"/>
  <line x1="8.71" style="fill-rule:evenodd;clip-rule:evenodd;fill:none;stroke:#EC008C;stroke-width:0.43;" y1="-72.857" y2="0" x2="8.71"/>
  <line x1="10.293" style="fill-rule:evenodd;clip-rule:evenodd;fill:none;stroke:#EC008C;stroke-width:0.43;" y1="-72.857" y2="0" x2="10.293"/>
  <line x1="11.877" style="fill-rule:evenodd;clip-rule:evenodd;fill:none;stroke:#EC008C;stroke-width:0.43;" y1="-72.857" y2="0" x2="11.877"/>
  <line x1="13.46" style="fill-rule:evenodd;clip-rule:evenodd;fill:none;stroke:#EC008C;stroke-width:0.43;" y1="-72.857" y2="0" x2="13.46"/>
  <line x1="15.043" style="fill-rule:evenodd;clip-rule:evenodd;fill:none;stroke:#EC008C;stroke-width:0.43;" y1="-72.857" y2="0" x2="15.043"/>
  <line x1="16.626" style="fill-rule:evenodd;clip-rule:evenodd;fill:none;stroke:#EC008C;stroke-width:0.43;" y1="-72.857" y2="0" x2="16.626"/>
  <line x1="18.209" style="fill-rule:evenodd;clip-rule:evenodd;fill:none;stroke:#EC008C;stroke-width:0.43;" y1="-72.857" y2="0" x2="18.209"/>
  <line x1="19.792" style="fill-rule:evenodd;clip-rule:evenodd;fill:none;stroke:#EC008C;stroke-width:0.43;" y1="-72.857" y2="0" x2="19.792"/>
  <line x1="21.375" style="fill-rule:evenodd;clip-rule:evenodd;fill:none;stroke:#EC008C;stroke-width:0.43;" y1="-72.857" y2="0" x2="21.375"/>
  <line x1="22.958" style="fill-rule:evenodd;clip-rule:evenodd;fill:none;stroke:#EC008C;stroke-width:0.43;" y1="-72.857" y2="0" x2="22.958"/>
  <line x1="24.542" style="fill-rule:evenodd;clip-rule:evenodd;fill:none;stroke:#EC008C;stroke-width:0.43;" y1="-72.857" y2="0" x2="24.542"/>
  <line x1="26.125" style="fill-rule:evenodd;clip-rule:evenodd;fill:none;stroke:#EC008C;stroke-width:0.43;" y1="-72.857" y2="0" x2="26.125"/>
  <line x1="27.708" style="fill-rule:evenodd;clip-rule:evenodd;fill:none;stroke:#EC008C;stroke-width:0.43;" y1="-72.857" y2="0" x2="27.708"/>
  <line x1="29.291" style="fill-rule:evenodd;clip-rule:evenodd;fill:none;stroke:#EC008C;stroke-width:0.43;" y1="-72.857" y2="0" x2="29.291"/>
  <line x1="30.874" style="fill-rule:evenodd;clip-rule:evenodd;fill:none;stroke:#EC008C;stroke-width:0.43;" y1="-72.857" y2="0" x2="30.874"/>
  <line x1="32.457" style="fill-rule:evenodd;clip-rule:evenodd;fill:none;stroke:#EC008C;stroke-width:0.43;" y1="-72.857" y2="0" x2="32.457"/>
  <line x1="34.041" style="fill-rule:evenodd;clip-rule:evenodd;fill:none;stroke:#EC008C;stroke-width:0.43;" y1="-72.857" y2="0" x2="34.041"/>
  <line x1="35.624" style="fill-rule:evenodd;clip-rule:evenodd;fill:none;stroke:#EC008C;stroke-width:0.43;" y1="-72.857" y2="0" x2="35.624"/>
  <line x1="37.207" style="fill-rule:evenodd;clip-rule:evenodd;fill:none;stroke:#EC008C;stroke-width:0.43;" y1="-72.857" y2="0" x2="37.207"/>
  <line x1="38.79" style="fill-rule:evenodd;clip-rule:evenodd;fill:none;stroke:#EC008C;stroke-width:0.43;" y1="-72.857" y2="0" x2="38.79"/>
  <line x1="40.373" style="fill-rule:evenodd;clip-rule:evenodd;fill:none;stroke:#EC008C;stroke-width:0.43;" y1="-72.857" y2="0" x2="40.373"/>
  <line x1="41.956" style="fill-rule:evenodd;clip-rule:evenodd;fill:none;stroke:#EC008C;stroke-width:0.43;" y1="-72.857" y2="0" x2="41.956"/>
  <line x1="43.539" style="fill-rule:evenodd;clip-rule:evenodd;fill:none;stroke:#EC008C;stroke-width:0.43;" y1="-72.857" y2="0" x2="43.539"/>
  <line x1="45.122" style="fill-rule:evenodd;clip-rule:evenodd;fill:none;stroke:#EC008C;stroke-width:0.43;" y1="-72.857" y2="0" x2="45.122"/>
  <line x1="46.706" style="fill-rule:evenodd;clip-rule:evenodd;fill:none;stroke:#EC008C;stroke-width:0.43;" y1="-72.857" y2="0" x2="46.706"/>
  <line x1="48.289" style="fill-rule:evenodd;clip-rule:evenodd;fill:none;stroke:#EC008C;stroke-width:0.43;" y1="-72.857" y2="0" x2="48.289"/>
  <line x1="49.872" style="fill-rule:evenodd;clip-rule:evenodd;fill:none;stroke:#EC008C;stroke-width:0.43;" y1="-72.857" y2="0" x2="49.872"/>
  <line x1="51.455" style="fill-rule:evenodd;clip-rule:evenodd;fill:none;stroke:#EC008C;stroke-width:0.43;" y1="-72.857" y2="0" x2="51.455"/>
  <line x1="53.038" style="fill-rule:evenodd;clip-rule:evenodd;fill:none;stroke:#EC008C;stroke-width:0.43;" y1="-72.857" y2="0" x2="53.038"/>
  <line x1="54.621" style="fill-rule:evenodd;clip-rule:evenodd;fill:none;stroke:#EC008C;stroke-width:0.43;" y1="-72.857" y2="0" x2="54.621"/>
  <line x1="56.204" style="fill-rule:evenodd;clip-rule:evenodd;fill:none;stroke:#EC008C;stroke-width:0.43;" y1="-72.857" y2="0" x2="56.204"/>
  <line x1="57.787" style="fill-rule:evenodd;clip-rule:evenodd;fill:none;stroke:#EC008C;stroke-width:0.43;" y1="-72.857" y2="0" x2="57.787"/>
  <line x1="59.371" style="fill-rule:evenodd;clip-rule:evenodd;fill:none;stroke:#EC008C;stroke-width:0.43;" y1="-72.857" y2="0" x2="59.371"/>
  <line x1="60.954" style="fill-rule:evenodd;clip-rule:evenodd;fill:none;stroke:#EC008C;stroke-width:0.43;" y1="-72.857" y2="0" x2="60.954"/>
  <line x1="62.537" style="fill-rule:evenodd;clip-rule:evenodd;fill:none;stroke:#EC008C;stroke-width:0.43;" y1="-72.857" y2="0" x2="62.537"/>
  <line x1="64.12" style="fill-rule:evenodd;clip-rule:evenodd;fill:none;stroke:#EC008C;stroke-width:0.43;" y1="-72.857" y2="0" x2="64.12"/>
  <line x1="65.703" style="fill-rule:evenodd;clip-rule:evenodd;fill:none;stroke:#EC008C;stroke-width:0.43;" y1="-72.857" y2="0" x2="65.703"/>
  <line x1="67.286" style="fill:none;stroke:#EC008C;stroke-width:0.43;" y1="-72.857" y2="0" x2="67.286"/>
  <line x1="68.869" style="fill-rule:evenodd;clip-rule:evenodd;fill:none;stroke:#EC008C;stroke-width:0.43;" y1="-72.857" y2="0" x2="68.869"/>
  <line x1="70.452" style="fill-rule:evenodd;clip-rule:evenodd;fill:none;stroke:#EC008C;stroke-width:0.43;" y1="-72.857" y2="0" x2="70.452"/>
  <line x1="72.045" style="fill-rule:evenodd;clip-rule:evenodd;fill:none;stroke:#EC008C;stroke-width:0.43;" y1="-72.857" y2="0" x2="72.045"/>
 </g>
</svg>
