<?xml version="1.0"?>
<!-- Converted with SVG Converter - Version 0.9.6 (Compiled Thu Aug 31 10:01:05 2017) - Copyright (C) 2011 Nokia -->
<svg xmlns="http://www.w3.org/2000/svg" height="74.499" y="0px" xmlns:xlink="http://www.w3.org/1999/xlink" xml:space="preserve" version="1.1" x="0px" width="74.499" viewBox="2.399 -78.6 74.499 74.499" baseProfile="tiny">
 <g>
  <rect height="74.499" y="-78.6" style="fill:none;" x="2.399" width="74.499"/>
  <rect height="74.499" y="-78.6" style="fill-rule:evenodd;clip-rule:evenodd;" x="2.399" width="74.499"/>
  <line y2="-4.1" x2="4.1" x1="4.1" style="fill-rule:evenodd;clip-rule:evenodd;fill:none;stroke:#FFFFFF;stroke-width:1.55;" y1="-78.6"/>
  <line y2="-4.1" x2="7.34" x1="7.34" style="fill-rule:evenodd;clip-rule:evenodd;fill:none;stroke:#FFFFFF;stroke-width:1.55;" y1="-78.6"/>
  <line y2="-4.1" x2="10.58" x1="10.58" style="fill-rule:evenodd;clip-rule:evenodd;fill:none;stroke:#FFFFFF;stroke-width:1.55;" y1="-78.6"/>
  <line y2="-4.1" x2="13.82" x1="13.82" style="fill-rule:evenodd;clip-rule:evenodd;fill:none;stroke:#FFFFFF;stroke-width:1.55;" y1="-78.6"/>
  <line y2="-4.1" x2="17.06" x1="17.06" style="fill-rule:evenodd;clip-rule:evenodd;fill:none;stroke:#FFFFFF;stroke-width:1.55;" y1="-78.6"/>
  <line y2="-4.1" x2="20.299" x1="20.299" style="fill:none;stroke:#FFFFFF;stroke-width:1.55;" y1="-78.6"/>
  <line y2="-4.1" x2="23.539" x1="23.539" style="fill-rule:evenodd;clip-rule:evenodd;fill:none;stroke:#FFFFFF;stroke-width:1.55;" y1="-78.6"/>
  <line y2="-4.1" x2="26.779" x1="26.779" style="fill-rule:evenodd;clip-rule:evenodd;fill:none;stroke:#FFFFFF;stroke-width:1.55;" y1="-78.6"/>
  <line y2="-4.1" x2="30.019" x1="30.019" style="fill-rule:evenodd;clip-rule:evenodd;fill:none;stroke:#FFFFFF;stroke-width:1.55;" y1="-78.6"/>
  <line y2="-4.1" x2="33.259" x1="33.259" style="fill-rule:evenodd;clip-rule:evenodd;fill:none;stroke:#FFFFFF;stroke-width:1.55;" y1="-78.6"/>
  <line y2="-4.1" x2="36.499" x1="36.499" style="fill-rule:evenodd;clip-rule:evenodd;fill:none;stroke:#FFFFFF;stroke-width:1.55;" y1="-78.6"/>
  <line y2="-4.1" x2="39.738" x1="39.738" style="fill-rule:evenodd;clip-rule:evenodd;fill:none;stroke:#FFFFFF;stroke-width:1.55;" y1="-78.6"/>
  <line y2="-4.1" x2="42.979" x1="42.979" style="fill-rule:evenodd;clip-rule:evenodd;fill:none;stroke:#FFFFFF;stroke-width:1.55;" y1="-78.6"/>
  <line y2="-4.1" x2="46.218" x1="46.218" style="fill-rule:evenodd;clip-rule:evenodd;fill:none;stroke:#FFFFFF;stroke-width:1.55;" y1="-78.6"/>
  <line y2="-4.1" x2="49.458" x1="49.458" style="fill-rule:evenodd;clip-rule:evenodd;fill:none;stroke:#FFFFFF;stroke-width:1.55;" y1="-78.6"/>
  <line y2="-4.1" x2="52.698" x1="52.698" style="fill-rule:evenodd;clip-rule:evenodd;fill:none;stroke:#FFFFFF;stroke-width:1.55;" y1="-78.6"/>
  <line y2="-4.1" x2="55.938" x1="55.938" style="fill-rule:evenodd;clip-rule:evenodd;fill:none;stroke:#FFFFFF;stroke-width:1.55;" y1="-78.6"/>
  <line y2="-4.1" x2="59.178" x1="59.178" style="fill-rule:evenodd;clip-rule:evenodd;fill:none;stroke:#FFFFFF;stroke-width:1.55;" y1="-78.6"/>
  <line y2="-4.1" x2="62.417" x1="62.417" style="fill-rule:evenodd;clip-rule:evenodd;fill:none;stroke:#FFFFFF;stroke-width:1.55;" y1="-78.6"/>
  <line y2="-4.1" x2="65.658" x1="65.658" style="fill-rule:evenodd;clip-rule:evenodd;fill:none;stroke:#FFFFFF;stroke-width:1.55;" y1="-78.6"/>
  <line y2="-4.1" x2="68.897" x1="68.897" style="fill-rule:evenodd;clip-rule:evenodd;fill:none;stroke:#FFFFFF;stroke-width:1.55;" y1="-78.6"/>
  <line y2="-4.1" x2="72.137" x1="72.137" style="fill-rule:evenodd;clip-rule:evenodd;fill:none;stroke:#FFFFFF;stroke-width:1.55;" y1="-78.6"/>
  <line y2="-4.1" x2="75.377" x1="75.377" style="fill-rule:evenodd;clip-rule:evenodd;fill:none;stroke:#FFFFFF;stroke-width:1.55;" y1="-78.6"/>
 </g>
</svg>
