<?xml version="1.0"?>
<!-- Converted with SVG Converter - Version 0.9.5 (Compiled Fri Feb 21 09:53:38 2020) - Copyright (C) 2011 Nokia -->
<svg xmlns="http://www.w3.org/2000/svg" height="74.499" baseProfile="tiny" width="74.499" version="1.1" viewBox="0 -74.5 74.499 74.499" x="0px" xmlns:xlink="http://www.w3.org/1999/xlink" xml:space="preserve" y="0px">
 <g>
  <rect height="74.499" width="74.499" style="fill:none;" x="0" y="-74.5"/>
  <line x2="1.701" y1="-74.5" y2="0" x1="1.701" style="fill-rule:evenodd;clip-rule:evenodd;fill:none;stroke:#000000;stroke-width:1.55;"/>
  <line x2="4.94" y1="-74.5" y2="0" x1="4.94" style="fill-rule:evenodd;clip-rule:evenodd;fill:none;stroke:#000000;stroke-width:1.55;"/>
  <line x2="8.18" y1="-74.5" y2="0" x1="8.18" style="fill-rule:evenodd;clip-rule:evenodd;fill:none;stroke:#000000;stroke-width:1.55;"/>
  <line x2="11.42" y1="-74.5" y2="0" x1="11.42" style="fill-rule:evenodd;clip-rule:evenodd;fill:none;stroke:#000000;stroke-width:1.55;"/>
  <line x2="14.66" y1="-74.5" y2="0" x1="14.66" style="fill-rule:evenodd;clip-rule:evenodd;fill:none;stroke:#000000;stroke-width:1.55;"/>
  <line x2="17.9" y1="-74.5" y2="0" x1="17.9" style="fill:none;stroke:#000000;stroke-width:1.55;"/>
  <line x2="21.14" y1="-74.5" y2="0" x1="21.14" style="fill-rule:evenodd;clip-rule:evenodd;fill:none;stroke:#000000;stroke-width:1.55;"/>
  <line x2="24.38" y1="-74.5" y2="0" x1="24.38" style="fill-rule:evenodd;clip-rule:evenodd;fill:none;stroke:#000000;stroke-width:1.55;"/>
  <line x2="27.619" y1="-74.5" y2="0" x1="27.619" style="fill-rule:evenodd;clip-rule:evenodd;fill:none;stroke:#000000;stroke-width:1.55;"/>
  <line x2="30.859" y1="-74.5" y2="0" x1="30.859" style="fill-rule:evenodd;clip-rule:evenodd;fill:none;stroke:#000000;stroke-width:1.55;"/>
  <line x2="34.099" y1="-74.5" y2="0" x1="34.099" style="fill-rule:evenodd;clip-rule:evenodd;fill:none;stroke:#000000;stroke-width:1.55;"/>
  <line x2="37.339" y1="-74.5" y2="0" x1="37.339" style="fill-rule:evenodd;clip-rule:evenodd;fill:none;stroke:#000000;stroke-width:1.55;"/>
  <line x2="40.579" y1="-74.5" y2="0" x1="40.579" style="fill-rule:evenodd;clip-rule:evenodd;fill:none;stroke:#000000;stroke-width:1.55;"/>
  <line x2="43.819" y1="-74.5" y2="0" x1="43.819" style="fill-rule:evenodd;clip-rule:evenodd;fill:none;stroke:#000000;stroke-width:1.55;"/>
  <line x2="47.059" y1="-74.5" y2="0" x1="47.059" style="fill-rule:evenodd;clip-rule:evenodd;fill:none;stroke:#000000;stroke-width:1.55;"/>
  <line x2="50.299" y1="-74.5" y2="0" x1="50.299" style="fill-rule:evenodd;clip-rule:evenodd;fill:none;stroke:#000000;stroke-width:1.55;"/>
  <line x2="53.539" y1="-74.5" y2="0" x1="53.539" style="fill-rule:evenodd;clip-rule:evenodd;fill:none;stroke:#000000;stroke-width:1.55;"/>
  <line x2="56.778" y1="-74.5" y2="0" x1="56.778" style="fill-rule:evenodd;clip-rule:evenodd;fill:none;stroke:#000000;stroke-width:1.55;"/>
  <line x2="60.018" y1="-74.5" y2="0" x1="60.018" style="fill-rule:evenodd;clip-rule:evenodd;fill:none;stroke:#000000;stroke-width:1.55;"/>
  <line x2="63.258" y1="-74.5" y2="0" x1="63.258" style="fill-rule:evenodd;clip-rule:evenodd;fill:none;stroke:#000000;stroke-width:1.55;"/>
  <line x2="66.498" y1="-74.5" y2="0" x1="66.498" style="fill-rule:evenodd;clip-rule:evenodd;fill:none;stroke:#000000;stroke-width:1.55;"/>
  <line x2="69.738" y1="-74.5" y2="0" x1="69.738" style="fill-rule:evenodd;clip-rule:evenodd;fill:none;stroke:#000000;stroke-width:1.55;"/>
  <line x2="72.978" y1="-74.5" y2="0" x1="72.978" style="fill-rule:evenodd;clip-rule:evenodd;fill:none;stroke:#000000;stroke-width:1.55;"/>
  <rect height="74.499" width="74.499" style="fill-rule:evenodd;clip-rule:evenodd;fill:none;" x="0" y="-74.5"/>
 </g>
</svg>
