<?xml version="1.0"?>
<!-- Converted with SVG Converter - Version 0.9.6 (Compiled Thu Aug 31 10:01:05 2017) - Copyright (C) 2011 Nokia -->
<svg xmlns="http://www.w3.org/2000/svg" version="1.1" baseProfile="tiny" x="0px" width="76.785" xml:space="preserve" viewBox="3.589 -83.384 76.785 76.784" xmlns:xlink="http://www.w3.org/1999/xlink" y="0px" height="76.784">
 <g>
  <rect x="3.589" width="76.785" style="fill:none;" y="-83.384" height="76.784"/>
  <line x1="6.6" style="fill-rule:evenodd;clip-rule:evenodd;fill:none;stroke:#00AEEF;stroke-width:2.8;" y1="-83.384" y2="-6.6" x2="6.6"/>
  <line x1="12.503" style="fill-rule:evenodd;clip-rule:evenodd;fill:none;stroke:#00AEEF;stroke-width:2.8;" y1="-83.384" y2="-6.6" x2="12.503"/>
  <line x1="18.406" style="fill-rule:evenodd;clip-rule:evenodd;fill:none;stroke:#00AEEF;stroke-width:2.8;" y1="-83.384" y2="-6.6" x2="18.406"/>
  <line x1="24.309" style="fill-rule:evenodd;clip-rule:evenodd;fill:none;stroke:#00AEEF;stroke-width:2.8;" y1="-83.384" y2="-6.6" x2="24.309"/>
  <line x1="30.212" style="fill-rule:evenodd;clip-rule:evenodd;fill:none;stroke:#00AEEF;stroke-width:2.8;" y1="-83.384" y2="-6.6" x2="30.212"/>
  <line x1="36.115" style="fill-rule:evenodd;clip-rule:evenodd;fill:none;stroke:#00AEEF;stroke-width:2.8;" y1="-83.384" y2="-6.6" x2="36.115"/>
  <line x1="42.018" style="fill-rule:evenodd;clip-rule:evenodd;fill:none;stroke:#00AEEF;stroke-width:2.8;" y1="-83.384" y2="-6.6" x2="42.018"/>
  <line x1="47.921" style="fill-rule:evenodd;clip-rule:evenodd;fill:none;stroke:#00AEEF;stroke-width:2.8;" y1="-83.384" y2="-6.6" x2="47.921"/>
  <line x1="53.824" style="fill-rule:evenodd;clip-rule:evenodd;fill:none;stroke:#00AEEF;stroke-width:2.8;" y1="-83.384" y2="-6.6" x2="53.824"/>
  <line x1="59.727" style="fill-rule:evenodd;clip-rule:evenodd;fill:none;stroke:#00AEEF;stroke-width:2.8;" y1="-83.384" y2="-6.6" x2="59.727"/>
  <line x1="65.629" style="fill-rule:evenodd;clip-rule:evenodd;fill:none;stroke:#00AEEF;stroke-width:2.8;" y1="-83.384" y2="-6.6" x2="65.629"/>
  <line x1="71.533" style="fill-rule:evenodd;clip-rule:evenodd;fill:none;stroke:#00AEEF;stroke-width:2.8;" y1="-83.384" y2="-6.6" x2="71.533"/>
  <line x1="77.436" style="fill-rule:evenodd;clip-rule:evenodd;fill:none;stroke:#00AEEF;stroke-width:2.8;" y1="-83.384" y2="-6.6" x2="77.436"/>
 </g>
</svg>
