<?xml version="1.0"?>
<!-- Converted with SVG Converter - Version 0.9.5 (Compiled Fri Feb 21 09:53:38 2020) - Copyright (C) 2011 Nokia -->
<svg xmlns="http://www.w3.org/2000/svg" version="1.1" xmlns:xlink="http://www.w3.org/1999/xlink" height="76.785" viewBox="0 -76.785 76.785 76.785" width="76.785" x="0px" xml:space="preserve" baseProfile="tiny" y="0px">
 <g>
  <rect style="fill:none;" height="76.785" width="76.785" x="0" y="-76.785"/>
  <line y1="-76.785" style="fill-rule:evenodd;clip-rule:evenodd;fill:none;stroke:#000000;stroke-width:2.8;" x1="3.011" y2="0" x2="3.011"/>
  <line y1="-76.785" style="fill-rule:evenodd;clip-rule:evenodd;fill:none;stroke:#000000;stroke-width:2.8;" x1="8.913" y2="0" x2="8.913"/>
  <line y1="-76.785" style="fill-rule:evenodd;clip-rule:evenodd;fill:none;stroke:#000000;stroke-width:2.8;" x1="14.816" y2="0" x2="14.816"/>
  <line y1="-76.785" style="fill-rule:evenodd;clip-rule:evenodd;fill:none;stroke:#000000;stroke-width:2.8;" x1="20.719" y2="0" x2="20.719"/>
  <line y1="-76.785" style="fill-rule:evenodd;clip-rule:evenodd;fill:none;stroke:#000000;stroke-width:2.8;" x1="26.622" y2="0" x2="26.622"/>
  <line y1="-76.785" style="fill-rule:evenodd;clip-rule:evenodd;fill:none;stroke:#000000;stroke-width:2.8;" x1="32.525" y2="0" x2="32.525"/>
  <line y1="-76.785" style="fill-rule:evenodd;clip-rule:evenodd;fill:none;stroke:#000000;stroke-width:2.8;" x1="38.428" y2="0" x2="38.428"/>
  <line y1="-76.785" style="fill-rule:evenodd;clip-rule:evenodd;fill:none;stroke:#000000;stroke-width:2.8;" x1="44.331" y2="0" x2="44.331"/>
  <line y1="-76.785" style="fill-rule:evenodd;clip-rule:evenodd;fill:none;stroke:#000000;stroke-width:2.8;" x1="50.234" y2="0" x2="50.234"/>
  <line y1="-76.785" style="fill-rule:evenodd;clip-rule:evenodd;fill:none;stroke:#000000;stroke-width:2.8;" x1="56.137" y2="0" x2="56.137"/>
  <line y1="-76.785" style="fill-rule:evenodd;clip-rule:evenodd;fill:none;stroke:#000000;stroke-width:2.8;" x1="62.04" y2="0" x2="62.04"/>
  <line y1="-76.785" style="fill-rule:evenodd;clip-rule:evenodd;fill:none;stroke:#000000;stroke-width:2.8;" x1="67.943" y2="0" x2="67.943"/>
  <line y1="-76.785" style="fill-rule:evenodd;clip-rule:evenodd;fill:none;stroke:#000000;stroke-width:2.8;" x1="73.846" y2="0" x2="73.846"/>
 </g>
</svg>
