<?xml version="1.0"?>
<!-- Converted with SVG Converter - Version 0.9.5 (Compiled Fri Feb 21 09:53:38 2020) - Copyright (C) 2011 Nokia -->
<svg xmlns="http://www.w3.org/2000/svg" width="76.785" xml:space="preserve" x="0px" viewBox="0 -76.785 76.785 76.785" height="76.785" xmlns:xlink="http://www.w3.org/1999/xlink" y="0px" version="1.1" baseProfile="tiny">
 <g>
  <rect width="76.785" x="0" style="fill:none;" height="76.785" y="-76.785"/>
  <line y2="0" style="fill-rule:evenodd;clip-rule:evenodd;fill:none;stroke:#000000;stroke-width:2.8;" x1="3.011" y1="-76.785" x2="3.011"/>
  <line y2="0" style="fill-rule:evenodd;clip-rule:evenodd;fill:none;stroke:#000000;stroke-width:2.8;" x1="8.913" y1="-76.785" x2="8.913"/>
  <line y2="0" style="fill-rule:evenodd;clip-rule:evenodd;fill:none;stroke:#000000;stroke-width:2.8;" x1="14.816" y1="-76.785" x2="14.816"/>
  <line y2="0" style="fill-rule:evenodd;clip-rule:evenodd;fill:none;stroke:#000000;stroke-width:2.8;" x1="20.719" y1="-76.785" x2="20.719"/>
  <line y2="0" style="fill-rule:evenodd;clip-rule:evenodd;fill:none;stroke:#000000;stroke-width:2.8;" x1="26.622" y1="-76.785" x2="26.622"/>
  <line y2="0" style="fill-rule:evenodd;clip-rule:evenodd;fill:none;stroke:#000000;stroke-width:2.8;" x1="32.525" y1="-76.785" x2="32.525"/>
  <line y2="0" style="fill-rule:evenodd;clip-rule:evenodd;fill:none;stroke:#000000;stroke-width:2.8;" x1="38.428" y1="-76.785" x2="38.428"/>
  <line y2="0" style="fill-rule:evenodd;clip-rule:evenodd;fill:none;stroke:#000000;stroke-width:2.8;" x1="44.331" y1="-76.785" x2="44.331"/>
  <line y2="0" style="fill-rule:evenodd;clip-rule:evenodd;fill:none;stroke:#000000;stroke-width:2.8;" x1="50.234" y1="-76.785" x2="50.234"/>
  <line y2="0" style="fill-rule:evenodd;clip-rule:evenodd;fill:none;stroke:#000000;stroke-width:2.8;" x1="56.137" y1="-76.785" x2="56.137"/>
  <line y2="0" style="fill-rule:evenodd;clip-rule:evenodd;fill:none;stroke:#000000;stroke-width:2.8;" x1="62.04" y1="-76.785" x2="62.04"/>
  <line y2="0" style="fill-rule:evenodd;clip-rule:evenodd;fill:none;stroke:#000000;stroke-width:2.8;" x1="67.943" y1="-76.785" x2="67.943"/>
  <line y2="0" style="fill-rule:evenodd;clip-rule:evenodd;fill:none;stroke:#000000;stroke-width:2.8;" x1="73.846" y1="-76.785" x2="73.846"/>
 </g>
</svg>
