<?xml version="1.0"?>
<!-- Converted with SVG Converter - Version 0.9.5 (Compiled Fri Feb 21 09:53:38 2020) - Copyright (C) 2011 Nokia -->
<svg xmlns="http://www.w3.org/2000/svg" xml:space="preserve" width="76.785" viewBox="3.589 -83.384 76.785 76.784" xmlns:xlink="http://www.w3.org/1999/xlink" x="0px" y="0px" height="76.784" version="1.1" baseProfile="tiny">
 <g>
  <rect width="76.785" x="3.589" y="-83.384" height="76.784" style="fill:none;"/>
  <rect width="76.785" x="3.589" y="-83.384" height="76.784"/>
  <line x2="6.6" y1="-83.384" style="fill-rule:evenodd;clip-rule:evenodd;fill:none;stroke:#FFFFFF;stroke-width:2.8;" y2="-6.6" x1="6.6"/>
  <line x2="12.503" y1="-83.384" style="fill-rule:evenodd;clip-rule:evenodd;fill:none;stroke:#FFFFFF;stroke-width:2.8;" y2="-6.6" x1="12.503"/>
  <line x2="18.406" y1="-83.384" style="fill-rule:evenodd;clip-rule:evenodd;fill:none;stroke:#FFFFFF;stroke-width:2.8;" y2="-6.6" x1="18.406"/>
  <line x2="24.309" y1="-83.384" style="fill-rule:evenodd;clip-rule:evenodd;fill:none;stroke:#FFFFFF;stroke-width:2.8;" y2="-6.6" x1="24.309"/>
  <line x2="30.212" y1="-83.384" style="fill-rule:evenodd;clip-rule:evenodd;fill:none;stroke:#FFFFFF;stroke-width:2.8;" y2="-6.6" x1="30.212"/>
  <line x2="36.115" y1="-83.384" style="fill-rule:evenodd;clip-rule:evenodd;fill:none;stroke:#FFFFFF;stroke-width:2.8;" y2="-6.6" x1="36.115"/>
  <line x2="42.018" y1="-83.384" style="fill-rule:evenodd;clip-rule:evenodd;fill:none;stroke:#FFFFFF;stroke-width:2.8;" y2="-6.6" x1="42.018"/>
  <line x2="47.921" y1="-83.384" style="fill-rule:evenodd;clip-rule:evenodd;fill:none;stroke:#FFFFFF;stroke-width:2.8;" y2="-6.6" x1="47.921"/>
  <line x2="53.824" y1="-83.384" style="fill-rule:evenodd;clip-rule:evenodd;fill:none;stroke:#FFFFFF;stroke-width:2.8;" y2="-6.6" x1="53.824"/>
  <line x2="59.727" y1="-83.384" style="fill-rule:evenodd;clip-rule:evenodd;fill:none;stroke:#FFFFFF;stroke-width:2.8;" y2="-6.6" x1="59.727"/>
  <line x2="65.629" y1="-83.384" style="fill-rule:evenodd;clip-rule:evenodd;fill:none;stroke:#FFFFFF;stroke-width:2.8;" y2="-6.6" x1="65.629"/>
  <line x2="71.533" y1="-83.384" style="fill-rule:evenodd;clip-rule:evenodd;fill:none;stroke:#FFFFFF;stroke-width:2.8;" y2="-6.6" x1="71.533"/>
  <line x2="77.436" y1="-83.384" style="fill-rule:evenodd;clip-rule:evenodd;fill:none;stroke:#FFFFFF;stroke-width:2.8;" y2="-6.6" x1="77.436"/>
 </g>
</svg>
