<?xml version="1.0"?>
<!-- Converted with SVG Converter - Version 0.9.6 (Compiled Thu Aug 31 10:01:05 2017) - Copyright (C) 2011 Nokia -->
<svg xmlns="http://www.w3.org/2000/svg" y="0px" height="76.784" baseProfile="tiny" viewBox="3.589 -83.384 76.785 76.784" x="0px" xmlns:xlink="http://www.w3.org/1999/xlink" version="1.1" xml:space="preserve" width="76.785">
 <g>
  <rect y="-83.384" height="76.784" style="fill:none;" x="3.589" width="76.785"/>
  <line style="fill-rule:evenodd;clip-rule:evenodd;fill:none;stroke:#EC008C;stroke-width:2.8;" y2="-6.6" x2="6.6" x1="6.6" y1="-83.384"/>
  <line style="fill-rule:evenodd;clip-rule:evenodd;fill:none;stroke:#EC008C;stroke-width:2.8;" y2="-6.6" x2="12.503" x1="12.503" y1="-83.384"/>
  <line style="fill-rule:evenodd;clip-rule:evenodd;fill:none;stroke:#EC008C;stroke-width:2.8;" y2="-6.6" x2="18.406" x1="18.406" y1="-83.384"/>
  <line style="fill-rule:evenodd;clip-rule:evenodd;fill:none;stroke:#EC008C;stroke-width:2.8;" y2="-6.6" x2="24.309" x1="24.309" y1="-83.384"/>
  <line style="fill-rule:evenodd;clip-rule:evenodd;fill:none;stroke:#EC008C;stroke-width:2.8;" y2="-6.6" x2="30.212" x1="30.212" y1="-83.384"/>
  <line style="fill-rule:evenodd;clip-rule:evenodd;fill:none;stroke:#EC008C;stroke-width:2.8;" y2="-6.6" x2="36.115" x1="36.115" y1="-83.384"/>
  <line style="fill-rule:evenodd;clip-rule:evenodd;fill:none;stroke:#EC008C;stroke-width:2.8;" y2="-6.6" x2="42.018" x1="42.018" y1="-83.384"/>
  <line style="fill-rule:evenodd;clip-rule:evenodd;fill:none;stroke:#EC008C;stroke-width:2.8;" y2="-6.6" x2="47.921" x1="47.921" y1="-83.384"/>
  <line style="fill-rule:evenodd;clip-rule:evenodd;fill:none;stroke:#EC008C;stroke-width:2.8;" y2="-6.6" x2="53.824" x1="53.824" y1="-83.384"/>
  <line style="fill-rule:evenodd;clip-rule:evenodd;fill:none;stroke:#EC008C;stroke-width:2.8;" y2="-6.6" x2="59.727" x1="59.727" y1="-83.384"/>
  <line style="fill-rule:evenodd;clip-rule:evenodd;fill:none;stroke:#EC008C;stroke-width:2.8;" y2="-6.6" x2="65.629" x1="65.629" y1="-83.384"/>
  <line style="fill-rule:evenodd;clip-rule:evenodd;fill:none;stroke:#EC008C;stroke-width:2.8;" y2="-6.6" x2="71.533" x1="71.533" y1="-83.384"/>
  <line style="fill-rule:evenodd;clip-rule:evenodd;fill:none;stroke:#EC008C;stroke-width:2.8;" y2="-6.6" x2="77.436" x1="77.436" y1="-83.384"/>
 </g>
</svg>
