<?xml version="1.0"?>
<!-- Converted with SVG Converter - Version 0.9.5 (Compiled Fri Feb 21 09:53:38 2020) - Copyright (C) 2011 Nokia -->
<svg xmlns="http://www.w3.org/2000/svg" y="0px" version="1.1" xmlns:xlink="http://www.w3.org/1999/xlink" width="76.785" viewBox="3.589 -83.384 76.785 76.784" xml:space="preserve" height="76.784" x="0px" baseProfile="tiny">
 <g>
  <rect y="-83.384" width="76.785" style="fill:none;" height="76.784" x="3.589"/>
  <rect y="-83.384" width="76.785" height="76.784" x="3.589"/>
  <line y2="-6.6" y1="-83.384" style="fill-rule:evenodd;clip-rule:evenodd;fill:none;stroke:#FFFFFF;stroke-width:2.8;" x1="6.6" x2="6.6"/>
  <line y2="-6.6" y1="-83.384" style="fill-rule:evenodd;clip-rule:evenodd;fill:none;stroke:#FFFFFF;stroke-width:2.8;" x1="12.503" x2="12.503"/>
  <line y2="-6.6" y1="-83.384" style="fill-rule:evenodd;clip-rule:evenodd;fill:none;stroke:#FFFFFF;stroke-width:2.8;" x1="18.406" x2="18.406"/>
  <line y2="-6.6" y1="-83.384" style="fill-rule:evenodd;clip-rule:evenodd;fill:none;stroke:#FFFFFF;stroke-width:2.8;" x1="24.309" x2="24.309"/>
  <line y2="-6.6" y1="-83.384" style="fill-rule:evenodd;clip-rule:evenodd;fill:none;stroke:#FFFFFF;stroke-width:2.8;" x1="30.212" x2="30.212"/>
  <line y2="-6.6" y1="-83.384" style="fill-rule:evenodd;clip-rule:evenodd;fill:none;stroke:#FFFFFF;stroke-width:2.8;" x1="36.115" x2="36.115"/>
  <line y2="-6.6" y1="-83.384" style="fill-rule:evenodd;clip-rule:evenodd;fill:none;stroke:#FFFFFF;stroke-width:2.8;" x1="42.018" x2="42.018"/>
  <line y2="-6.6" y1="-83.384" style="fill-rule:evenodd;clip-rule:evenodd;fill:none;stroke:#FFFFFF;stroke-width:2.8;" x1="47.921" x2="47.921"/>
  <line y2="-6.6" y1="-83.384" style="fill-rule:evenodd;clip-rule:evenodd;fill:none;stroke:#FFFFFF;stroke-width:2.8;" x1="53.824" x2="53.824"/>
  <line y2="-6.6" y1="-83.384" style="fill-rule:evenodd;clip-rule:evenodd;fill:none;stroke:#FFFFFF;stroke-width:2.8;" x1="59.727" x2="59.727"/>
  <line y2="-6.6" y1="-83.384" style="fill-rule:evenodd;clip-rule:evenodd;fill:none;stroke:#FFFFFF;stroke-width:2.8;" x1="65.629" x2="65.629"/>
  <line y2="-6.6" y1="-83.384" style="fill-rule:evenodd;clip-rule:evenodd;fill:none;stroke:#FFFFFF;stroke-width:2.8;" x1="71.533" x2="71.533"/>
  <line y2="-6.6" y1="-83.384" style="fill-rule:evenodd;clip-rule:evenodd;fill:none;stroke:#FFFFFF;stroke-width:2.8;" x1="77.436" x2="77.436"/>
 </g>
</svg>
