<?xml version="1.0" encoding="utf-8"?>
<svg xmlns="http://www.w3.org/2000/svg" version="1.1" x="0px" y="0px" xml:space="preserve" width="72.571" height="72.571" viewBox="0 -72.572 72.571 72.571">
	<g>
		<rect y="-72.572" style="fill:none;" width="72.571" height="72.571"/>

			<line style="fill-rule:evenodd;clip-rule:evenodd;fill:none;stroke:#EC008C;stroke-width:0.43;" x1="1.701" y1="-72.572" x2="1.701" y2="-0.001"/>

			<line style="fill-rule:evenodd;clip-rule:evenodd;fill:none;stroke:#EC008C;stroke-width:0.43;" x1="5.156" y1="-72.572" x2="5.156" y2="-0.001"/>

			<line style="fill-rule:evenodd;clip-rule:evenodd;fill:none;stroke:#EC008C;stroke-width:0.43;" x1="8.611" y1="-72.572" x2="8.611" y2="-0.001"/>

			<line style="fill-rule:evenodd;clip-rule:evenodd;fill:none;stroke:#EC008C;stroke-width:0.43;" x1="12.067" y1="-72.572" x2="12.067" y2="-0.001"/>

			<line style="fill-rule:evenodd;clip-rule:evenodd;fill:none;stroke:#EC008C;stroke-width:0.43;" x1="15.522" y1="-72.572" x2="15.522" y2="-0.001"/>

			<line style="fill-rule:evenodd;clip-rule:evenodd;fill:none;stroke:#EC008C;stroke-width:0.43;" x1="18.977" y1="-72.572" x2="18.977" y2="-0.001"/>

			<line style="fill-rule:evenodd;clip-rule:evenodd;fill:none;stroke:#EC008C;stroke-width:0.43;" x1="22.432" y1="-72.572" x2="22.432" y2="-0.001"/>

			<line style="fill-rule:evenodd;clip-rule:evenodd;fill:none;stroke:#EC008C;stroke-width:0.43;" x1="25.888" y1="-72.572" x2="25.888" y2="-0.001"/>

			<line style="fill-rule:evenodd;clip-rule:evenodd;fill:none;stroke:#EC008C;stroke-width:0.43;" x1="29.343" y1="-72.572" x2="29.343" y2="-0.001"/>

			<line style="fill-rule:evenodd;clip-rule:evenodd;fill:none;stroke:#EC008C;stroke-width:0.43;" x1="32.798" y1="-72.572" x2="32.798" y2="-0.001"/>

			<line style="fill-rule:evenodd;clip-rule:evenodd;fill:none;stroke:#EC008C;stroke-width:0.43;" x1="36.253" y1="-72.572" x2="36.253" y2="-0.001"/>

			<line style="fill-rule:evenodd;clip-rule:evenodd;fill:none;stroke:#EC008C;stroke-width:0.43;" x1="39.708" y1="-72.572" x2="39.708" y2="-0.001"/>

			<line style="fill-rule:evenodd;clip-rule:evenodd;fill:none;stroke:#EC008C;stroke-width:0.43;" x1="43.164" y1="-72.572" x2="43.164" y2="-0.001"/>

			<line style="fill-rule:evenodd;clip-rule:evenodd;fill:none;stroke:#EC008C;stroke-width:0.43;" x1="46.619" y1="-72.572" x2="46.619" y2="-0.001"/>

			<line style="fill-rule:evenodd;clip-rule:evenodd;fill:none;stroke:#EC008C;stroke-width:0.43;" x1="50.074" y1="-72.572" x2="50.074" y2="-0.001"/>

			<line style="fill-rule:evenodd;clip-rule:evenodd;fill:none;stroke:#EC008C;stroke-width:0.43;" x1="53.529" y1="-72.572" x2="53.529" y2="-0.001"/>

			<line style="fill-rule:evenodd;clip-rule:evenodd;fill:none;stroke:#EC008C;stroke-width:0.43;" x1="56.984" y1="-72.572" x2="56.984" y2="-0.001"/>

			<line style="fill-rule:evenodd;clip-rule:evenodd;fill:none;stroke:#EC008C;stroke-width:0.43;" x1="60.439" y1="-72.572" x2="60.439" y2="-0.001"/>

			<line style="fill-rule:evenodd;clip-rule:evenodd;fill:none;stroke:#EC008C;stroke-width:0.43;" x1="63.895" y1="-72.572" x2="63.895" y2="-0.001"/>

			<line style="fill-rule:evenodd;clip-rule:evenodd;fill:none;stroke:#EC008C;stroke-width:0.43;" x1="67.35" y1="-72.572" x2="67.35" y2="-0.001"/>

			<line style="fill-rule:evenodd;clip-rule:evenodd;fill:none;stroke:#EC008C;stroke-width:0.43;" x1="70.805" y1="-72.572" x2="70.805" y2="-0.001"/>
	</g>
</svg>
