<?xml version="1.0"?>
<!-- Converted with SVG Converter - Version 0.9.5 (Compiled Fri Feb 21 09:53:38 2020) - Copyright (C) 2011 Nokia -->
<svg xmlns="http://www.w3.org/2000/svg" baseProfile="tiny" height="72.571" width="72.571" xmlns:xlink="http://www.w3.org/1999/xlink" version="1.1" xml:space="preserve" y="0px" x="0px" viewBox="0 -72.571 72.571 72.571">
 <g>
  <rect style="fill:none;" height="72.571" width="72.571" y="-72.571"/>
  <line y1="-72.571" style="fill-rule:evenodd;clip-rule:evenodd;fill:none;stroke:#00AEEF;stroke-width:0.43;" y2="0" x1="1.701" x2="1.701"/>
  <line y1="-72.571" style="fill-rule:evenodd;clip-rule:evenodd;fill:none;stroke:#00AEEF;stroke-width:0.43;" y2="0" x1="5.156" x2="5.156"/>
  <line y1="-72.571" style="fill-rule:evenodd;clip-rule:evenodd;fill:none;stroke:#00AEEF;stroke-width:0.43;" y2="0" x1="8.611" x2="8.611"/>
  <line y1="-72.571" style="fill-rule:evenodd;clip-rule:evenodd;fill:none;stroke:#00AEEF;stroke-width:0.43;" y2="0" x1="12.067" x2="12.067"/>
  <line y1="-72.571" style="fill-rule:evenodd;clip-rule:evenodd;fill:none;stroke:#00AEEF;stroke-width:0.43;" y2="0" x1="15.522" x2="15.522"/>
  <line y1="-72.571" style="fill-rule:evenodd;clip-rule:evenodd;fill:none;stroke:#00AEEF;stroke-width:0.43;" y2="0" x1="18.977" x2="18.977"/>
  <line y1="-72.571" style="fill-rule:evenodd;clip-rule:evenodd;fill:none;stroke:#00AEEF;stroke-width:0.43;" y2="0" x1="22.432" x2="22.432"/>
  <line y1="-72.571" style="fill-rule:evenodd;clip-rule:evenodd;fill:none;stroke:#00AEEF;stroke-width:0.43;" y2="0" x1="25.888" x2="25.888"/>
  <line y1="-72.571" style="fill-rule:evenodd;clip-rule:evenodd;fill:none;stroke:#00AEEF;stroke-width:0.43;" y2="0" x1="29.343" x2="29.343"/>
  <line y1="-72.571" style="fill-rule:evenodd;clip-rule:evenodd;fill:none;stroke:#00AEEF;stroke-width:0.43;" y2="0" x1="32.798" x2="32.798"/>
  <line y1="-72.571" style="fill-rule:evenodd;clip-rule:evenodd;fill:none;stroke:#00AEEF;stroke-width:0.43;" y2="0" x1="36.253" x2="36.253"/>
  <line y1="-72.571" style="fill-rule:evenodd;clip-rule:evenodd;fill:none;stroke:#00AEEF;stroke-width:0.43;" y2="0" x1="39.708" x2="39.708"/>
  <line y1="-72.571" style="fill-rule:evenodd;clip-rule:evenodd;fill:none;stroke:#00AEEF;stroke-width:0.43;" y2="0" x1="43.164" x2="43.164"/>
  <line y1="-72.571" style="fill-rule:evenodd;clip-rule:evenodd;fill:none;stroke:#00AEEF;stroke-width:0.43;" y2="0" x1="46.619" x2="46.619"/>
  <line y1="-72.571" style="fill-rule:evenodd;clip-rule:evenodd;fill:none;stroke:#00AEEF;stroke-width:0.43;" y2="0" x1="50.074" x2="50.074"/>
  <line y1="-72.571" style="fill-rule:evenodd;clip-rule:evenodd;fill:none;stroke:#00AEEF;stroke-width:0.43;" y2="0" x1="53.529" x2="53.529"/>
  <line y1="-72.571" style="fill-rule:evenodd;clip-rule:evenodd;fill:none;stroke:#00AEEF;stroke-width:0.43;" y2="0" x1="56.984" x2="56.984"/>
  <line y1="-72.571" style="fill-rule:evenodd;clip-rule:evenodd;fill:none;stroke:#00AEEF;stroke-width:0.43;" y2="0" x1="60.439" x2="60.439"/>
  <line y1="-72.571" style="fill-rule:evenodd;clip-rule:evenodd;fill:none;stroke:#00AEEF;stroke-width:0.43;" y2="0" x1="63.895" x2="63.895"/>
  <line y1="-72.571" style="fill-rule:evenodd;clip-rule:evenodd;fill:none;stroke:#00AEEF;stroke-width:0.43;" y2="0" x1="67.35" x2="67.35"/>
  <line y1="-72.571" style="fill-rule:evenodd;clip-rule:evenodd;fill:none;stroke:#00AEEF;stroke-width:0.43;" y2="0" x1="70.805" x2="70.805"/>
 </g>
</svg>
