<?xml version="1.0"?>
<!-- Converted with SVG Converter - Version 0.9.6 (Compiled Thu Aug 31 10:01:05 2017) - Copyright (C) 2011 Nokia -->
<svg xmlns="http://www.w3.org/2000/svg" width="72.571" y="0px" xmlns:xlink="http://www.w3.org/1999/xlink" x="0px" xml:space="preserve" baseProfile="tiny" viewBox="0 -72.571 72.571 72.571" version="1.1" height="72.571">
 <g>
  <rect width="72.571" y="-72.571" style="fill:none;" height="72.571"/>
  <line x1="1.701" y2="0" x2="1.701" style="fill-rule:evenodd;clip-rule:evenodd;fill:none;stroke:#00AEEF;stroke-width:0.43;" y1="-72.571"/>
  <line x1="5.156" y2="0" x2="5.156" style="fill-rule:evenodd;clip-rule:evenodd;fill:none;stroke:#00AEEF;stroke-width:0.43;" y1="-72.571"/>
  <line x1="8.611" y2="0" x2="8.611" style="fill-rule:evenodd;clip-rule:evenodd;fill:none;stroke:#00AEEF;stroke-width:0.43;" y1="-72.571"/>
  <line x1="12.067" y2="0" x2="12.067" style="fill-rule:evenodd;clip-rule:evenodd;fill:none;stroke:#00AEEF;stroke-width:0.43;" y1="-72.571"/>
  <line x1="15.522" y2="0" x2="15.522" style="fill-rule:evenodd;clip-rule:evenodd;fill:none;stroke:#00AEEF;stroke-width:0.43;" y1="-72.571"/>
  <line x1="18.977" y2="0" x2="18.977" style="fill-rule:evenodd;clip-rule:evenodd;fill:none;stroke:#00AEEF;stroke-width:0.43;" y1="-72.571"/>
  <line x1="22.432" y2="0" x2="22.432" style="fill-rule:evenodd;clip-rule:evenodd;fill:none;stroke:#00AEEF;stroke-width:0.43;" y1="-72.571"/>
  <line x1="25.888" y2="0" x2="25.888" style="fill-rule:evenodd;clip-rule:evenodd;fill:none;stroke:#00AEEF;stroke-width:0.43;" y1="-72.571"/>
  <line x1="29.343" y2="0" x2="29.343" style="fill-rule:evenodd;clip-rule:evenodd;fill:none;stroke:#00AEEF;stroke-width:0.43;" y1="-72.571"/>
  <line x1="32.798" y2="0" x2="32.798" style="fill-rule:evenodd;clip-rule:evenodd;fill:none;stroke:#00AEEF;stroke-width:0.43;" y1="-72.571"/>
  <line x1="36.253" y2="0" x2="36.253" style="fill-rule:evenodd;clip-rule:evenodd;fill:none;stroke:#00AEEF;stroke-width:0.43;" y1="-72.571"/>
  <line x1="39.708" y2="0" x2="39.708" style="fill-rule:evenodd;clip-rule:evenodd;fill:none;stroke:#00AEEF;stroke-width:0.43;" y1="-72.571"/>
  <line x1="43.164" y2="0" x2="43.164" style="fill-rule:evenodd;clip-rule:evenodd;fill:none;stroke:#00AEEF;stroke-width:0.43;" y1="-72.571"/>
  <line x1="46.619" y2="0" x2="46.619" style="fill-rule:evenodd;clip-rule:evenodd;fill:none;stroke:#00AEEF;stroke-width:0.43;" y1="-72.571"/>
  <line x1="50.074" y2="0" x2="50.074" style="fill-rule:evenodd;clip-rule:evenodd;fill:none;stroke:#00AEEF;stroke-width:0.43;" y1="-72.571"/>
  <line x1="53.529" y2="0" x2="53.529" style="fill-rule:evenodd;clip-rule:evenodd;fill:none;stroke:#00AEEF;stroke-width:0.43;" y1="-72.571"/>
  <line x1="56.984" y2="0" x2="56.984" style="fill-rule:evenodd;clip-rule:evenodd;fill:none;stroke:#00AEEF;stroke-width:0.43;" y1="-72.571"/>
  <line x1="60.439" y2="0" x2="60.439" style="fill-rule:evenodd;clip-rule:evenodd;fill:none;stroke:#00AEEF;stroke-width:0.43;" y1="-72.571"/>
  <line x1="63.895" y2="0" x2="63.895" style="fill-rule:evenodd;clip-rule:evenodd;fill:none;stroke:#00AEEF;stroke-width:0.43;" y1="-72.571"/>
  <line x1="67.35" y2="0" x2="67.35" style="fill-rule:evenodd;clip-rule:evenodd;fill:none;stroke:#00AEEF;stroke-width:0.43;" y1="-72.571"/>
  <line x1="70.805" y2="0" x2="70.805" style="fill-rule:evenodd;clip-rule:evenodd;fill:none;stroke:#00AEEF;stroke-width:0.43;" y1="-72.571"/>
 </g>
</svg>
