<?xml version="1.0"?>
<!-- Converted with SVG Converter - Version 0.9.5 (Compiled Fri Feb 21 09:53:38 2020) - Copyright (C) 2011 Nokia -->
<svg xmlns="http://www.w3.org/2000/svg" baseProfile="tiny" xml:space="preserve" xmlns:xlink="http://www.w3.org/1999/xlink" viewBox="1 -74.432 72.571 72.571" y="0px" x="0px" height="72.571" version="1.1" width="72.571">
 <g>
  <rect y="-74.432" x="1" style="fill:none;" height="72.571" width="72.571"/>
  <rect y="-74.432" x="1" height="72.571" width="72.571"/>
  <line x2="2.701" style="fill-rule:evenodd;clip-rule:evenodd;fill:none;stroke:#FFFFFF;stroke-width:0.43;" y1="-74.432" y2="-1.86" x1="2.701"/>
  <line x2="6.156" style="fill-rule:evenodd;clip-rule:evenodd;fill:none;stroke:#FFFFFF;stroke-width:0.43;" y1="-74.432" y2="-1.86" x1="6.156"/>
  <line x2="9.611" style="fill-rule:evenodd;clip-rule:evenodd;fill:none;stroke:#FFFFFF;stroke-width:0.43;" y1="-74.432" y2="-1.86" x1="9.611"/>
  <line x2="13.067" style="fill-rule:evenodd;clip-rule:evenodd;fill:none;stroke:#FFFFFF;stroke-width:0.43;" y1="-74.432" y2="-1.86" x1="13.067"/>
  <line x2="16.522" style="fill-rule:evenodd;clip-rule:evenodd;fill:none;stroke:#FFFFFF;stroke-width:0.43;" y1="-74.432" y2="-1.86" x1="16.522"/>
  <line x2="19.977" style="fill-rule:evenodd;clip-rule:evenodd;fill:none;stroke:#FFFFFF;stroke-width:0.43;" y1="-74.432" y2="-1.86" x1="19.977"/>
  <line x2="23.432" style="fill-rule:evenodd;clip-rule:evenodd;fill:none;stroke:#FFFFFF;stroke-width:0.43;" y1="-74.432" y2="-1.86" x1="23.432"/>
  <line x2="26.888" style="fill-rule:evenodd;clip-rule:evenodd;fill:none;stroke:#FFFFFF;stroke-width:0.43;" y1="-74.432" y2="-1.86" x1="26.888"/>
  <line x2="30.343" style="fill-rule:evenodd;clip-rule:evenodd;fill:none;stroke:#FFFFFF;stroke-width:0.43;" y1="-74.432" y2="-1.86" x1="30.343"/>
  <line x2="33.798" style="fill-rule:evenodd;clip-rule:evenodd;fill:none;stroke:#FFFFFF;stroke-width:0.43;" y1="-74.432" y2="-1.86" x1="33.798"/>
  <line x2="37.253" style="fill-rule:evenodd;clip-rule:evenodd;fill:none;stroke:#FFFFFF;stroke-width:0.43;" y1="-74.432" y2="-1.86" x1="37.253"/>
  <line x2="40.708" style="fill-rule:evenodd;clip-rule:evenodd;fill:none;stroke:#FFFFFF;stroke-width:0.43;" y1="-74.432" y2="-1.86" x1="40.708"/>
  <line x2="44.164" style="fill-rule:evenodd;clip-rule:evenodd;fill:none;stroke:#FFFFFF;stroke-width:0.43;" y1="-74.432" y2="-1.86" x1="44.164"/>
  <line x2="47.619" style="fill-rule:evenodd;clip-rule:evenodd;fill:none;stroke:#FFFFFF;stroke-width:0.43;" y1="-74.432" y2="-1.86" x1="47.619"/>
  <line x2="51.074" style="fill-rule:evenodd;clip-rule:evenodd;fill:none;stroke:#FFFFFF;stroke-width:0.43;" y1="-74.432" y2="-1.86" x1="51.074"/>
  <line x2="54.529" style="fill-rule:evenodd;clip-rule:evenodd;fill:none;stroke:#FFFFFF;stroke-width:0.43;" y1="-74.432" y2="-1.86" x1="54.529"/>
  <line x2="57.984" style="fill-rule:evenodd;clip-rule:evenodd;fill:none;stroke:#FFFFFF;stroke-width:0.43;" y1="-74.432" y2="-1.86" x1="57.984"/>
  <line x2="61.439" style="fill-rule:evenodd;clip-rule:evenodd;fill:none;stroke:#FFFFFF;stroke-width:0.43;" y1="-74.432" y2="-1.86" x1="61.439"/>
  <line x2="64.895" style="fill-rule:evenodd;clip-rule:evenodd;fill:none;stroke:#FFFFFF;stroke-width:0.43;" y1="-74.432" y2="-1.86" x1="64.895"/>
  <line x2="68.35" style="fill-rule:evenodd;clip-rule:evenodd;fill:none;stroke:#FFFFFF;stroke-width:0.43;" y1="-74.432" y2="-1.86" x1="68.35"/>
  <line x2="71.805" style="fill-rule:evenodd;clip-rule:evenodd;fill:none;stroke:#FFFFFF;stroke-width:0.43;" y1="-74.432" y2="-1.86" x1="71.805"/>
 </g>
</svg>
