<?xml version="1.0"?>
<!-- Converted with SVG Converter - Version 0.9.5 (Compiled Fri Feb 21 09:53:38 2020) - Copyright (C) 2011 Nokia -->
<svg xmlns="http://www.w3.org/2000/svg" xml:space="preserve" height="72.571" xmlns:xlink="http://www.w3.org/1999/xlink" baseProfile="tiny" y="0px" viewBox="1 -74.432 72.571 72.571" version="1.1" x="0px" width="72.571">
 <g>
  <rect height="72.571" style="fill:none;" y="-74.432" x="1" width="72.571"/>
  <rect height="72.571" y="-74.432" x="1" width="72.571"/>
  <line x2="2.701" style="fill-rule:evenodd;clip-rule:evenodd;fill:none;stroke:#FFFFFF;stroke-width:0.43;" x1="2.701" y2="-1.86" y1="-74.432"/>
  <line x2="6.156" style="fill-rule:evenodd;clip-rule:evenodd;fill:none;stroke:#FFFFFF;stroke-width:0.43;" x1="6.156" y2="-1.86" y1="-74.432"/>
  <line x2="9.611" style="fill-rule:evenodd;clip-rule:evenodd;fill:none;stroke:#FFFFFF;stroke-width:0.43;" x1="9.611" y2="-1.86" y1="-74.432"/>
  <line x2="13.067" style="fill-rule:evenodd;clip-rule:evenodd;fill:none;stroke:#FFFFFF;stroke-width:0.43;" x1="13.067" y2="-1.86" y1="-74.432"/>
  <line x2="16.522" style="fill-rule:evenodd;clip-rule:evenodd;fill:none;stroke:#FFFFFF;stroke-width:0.43;" x1="16.522" y2="-1.86" y1="-74.432"/>
  <line x2="19.977" style="fill-rule:evenodd;clip-rule:evenodd;fill:none;stroke:#FFFFFF;stroke-width:0.43;" x1="19.977" y2="-1.86" y1="-74.432"/>
  <line x2="23.432" style="fill-rule:evenodd;clip-rule:evenodd;fill:none;stroke:#FFFFFF;stroke-width:0.43;" x1="23.432" y2="-1.86" y1="-74.432"/>
  <line x2="26.888" style="fill-rule:evenodd;clip-rule:evenodd;fill:none;stroke:#FFFFFF;stroke-width:0.43;" x1="26.888" y2="-1.86" y1="-74.432"/>
  <line x2="30.343" style="fill-rule:evenodd;clip-rule:evenodd;fill:none;stroke:#FFFFFF;stroke-width:0.43;" x1="30.343" y2="-1.86" y1="-74.432"/>
  <line x2="33.798" style="fill-rule:evenodd;clip-rule:evenodd;fill:none;stroke:#FFFFFF;stroke-width:0.43;" x1="33.798" y2="-1.86" y1="-74.432"/>
  <line x2="37.253" style="fill-rule:evenodd;clip-rule:evenodd;fill:none;stroke:#FFFFFF;stroke-width:0.43;" x1="37.253" y2="-1.86" y1="-74.432"/>
  <line x2="40.708" style="fill-rule:evenodd;clip-rule:evenodd;fill:none;stroke:#FFFFFF;stroke-width:0.43;" x1="40.708" y2="-1.86" y1="-74.432"/>
  <line x2="44.164" style="fill-rule:evenodd;clip-rule:evenodd;fill:none;stroke:#FFFFFF;stroke-width:0.43;" x1="44.164" y2="-1.86" y1="-74.432"/>
  <line x2="47.619" style="fill-rule:evenodd;clip-rule:evenodd;fill:none;stroke:#FFFFFF;stroke-width:0.43;" x1="47.619" y2="-1.86" y1="-74.432"/>
  <line x2="51.074" style="fill-rule:evenodd;clip-rule:evenodd;fill:none;stroke:#FFFFFF;stroke-width:0.43;" x1="51.074" y2="-1.86" y1="-74.432"/>
  <line x2="54.529" style="fill-rule:evenodd;clip-rule:evenodd;fill:none;stroke:#FFFFFF;stroke-width:0.43;" x1="54.529" y2="-1.86" y1="-74.432"/>
  <line x2="57.984" style="fill-rule:evenodd;clip-rule:evenodd;fill:none;stroke:#FFFFFF;stroke-width:0.43;" x1="57.984" y2="-1.86" y1="-74.432"/>
  <line x2="61.439" style="fill-rule:evenodd;clip-rule:evenodd;fill:none;stroke:#FFFFFF;stroke-width:0.43;" x1="61.439" y2="-1.86" y1="-74.432"/>
  <line x2="64.895" style="fill-rule:evenodd;clip-rule:evenodd;fill:none;stroke:#FFFFFF;stroke-width:0.43;" x1="64.895" y2="-1.86" y1="-74.432"/>
  <line x2="68.35" style="fill-rule:evenodd;clip-rule:evenodd;fill:none;stroke:#FFFFFF;stroke-width:0.43;" x1="68.35" y2="-1.86" y1="-74.432"/>
  <line x2="71.805" style="fill-rule:evenodd;clip-rule:evenodd;fill:none;stroke:#FFFFFF;stroke-width:0.43;" x1="71.805" y2="-1.86" y1="-74.432"/>
 </g>
</svg>
