<?xml version="1.0"?>
<!-- Converted with SVG Converter - Version 0.9.6 (Compiled Thu Aug 31 10:01:05 2017) - Copyright (C) 2011 Nokia -->
<svg xmlns="http://www.w3.org/2000/svg" xml:space="preserve" width="72.571" viewBox="1 -74.231 72.571 72.571" y="0px" baseProfile="tiny" xmlns:xlink="http://www.w3.org/1999/xlink" version="1.1" x="0px" height="72.571">
 <g>
  <rect width="72.571" y="-74.231" style="fill:none;" x="1" height="72.571"/>
  <line x1="2.701" y2="-1.66" y1="-74.231" style="fill-rule:evenodd;clip-rule:evenodd;fill:none;stroke:#000000;stroke-width:0.33;" x2="2.701"/>
  <line x1="6.156" y2="-1.66" y1="-74.231" style="fill-rule:evenodd;clip-rule:evenodd;fill:none;stroke:#000000;stroke-width:0.33;" x2="6.156"/>
  <line x1="9.611" y2="-1.66" y1="-74.231" style="fill-rule:evenodd;clip-rule:evenodd;fill:none;stroke:#000000;stroke-width:0.33;" x2="9.611"/>
  <line x1="13.067" y2="-1.66" y1="-74.231" style="fill-rule:evenodd;clip-rule:evenodd;fill:none;stroke:#000000;stroke-width:0.33;" x2="13.067"/>
  <line x1="16.522" y2="-1.66" y1="-74.231" style="fill-rule:evenodd;clip-rule:evenodd;fill:none;stroke:#000000;stroke-width:0.33;" x2="16.522"/>
  <line x1="19.977" y2="-1.66" y1="-74.231" style="fill-rule:evenodd;clip-rule:evenodd;fill:none;stroke:#000000;stroke-width:0.33;" x2="19.977"/>
  <line x1="23.432" y2="-1.66" y1="-74.231" style="fill-rule:evenodd;clip-rule:evenodd;fill:none;stroke:#000000;stroke-width:0.33;" x2="23.432"/>
  <line x1="26.888" y2="-1.66" y1="-74.231" style="fill-rule:evenodd;clip-rule:evenodd;fill:none;stroke:#000000;stroke-width:0.33;" x2="26.888"/>
  <line x1="30.343" y2="-1.66" y1="-74.231" style="fill-rule:evenodd;clip-rule:evenodd;fill:none;stroke:#000000;stroke-width:0.33;" x2="30.343"/>
  <line x1="33.798" y2="-1.66" y1="-74.231" style="fill-rule:evenodd;clip-rule:evenodd;fill:none;stroke:#000000;stroke-width:0.33;" x2="33.798"/>
  <line x1="37.253" y2="-1.66" y1="-74.231" style="fill-rule:evenodd;clip-rule:evenodd;fill:none;stroke:#000000;stroke-width:0.33;" x2="37.253"/>
  <line x1="40.708" y2="-1.66" y1="-74.231" style="fill-rule:evenodd;clip-rule:evenodd;fill:none;stroke:#000000;stroke-width:0.33;" x2="40.708"/>
  <line x1="44.164" y2="-1.66" y1="-74.231" style="fill-rule:evenodd;clip-rule:evenodd;fill:none;stroke:#000000;stroke-width:0.33;" x2="44.164"/>
  <line x1="47.619" y2="-1.66" y1="-74.231" style="fill-rule:evenodd;clip-rule:evenodd;fill:none;stroke:#000000;stroke-width:0.33;" x2="47.619"/>
  <line x1="51.074" y2="-1.66" y1="-74.231" style="fill-rule:evenodd;clip-rule:evenodd;fill:none;stroke:#000000;stroke-width:0.33;" x2="51.074"/>
  <line x1="54.529" y2="-1.66" y1="-74.231" style="fill-rule:evenodd;clip-rule:evenodd;fill:none;stroke:#000000;stroke-width:0.33;" x2="54.529"/>
  <line x1="57.984" y2="-1.66" y1="-74.231" style="fill-rule:evenodd;clip-rule:evenodd;fill:none;stroke:#000000;stroke-width:0.33;" x2="57.984"/>
  <line x1="61.439" y2="-1.66" y1="-74.231" style="fill-rule:evenodd;clip-rule:evenodd;fill:none;stroke:#000000;stroke-width:0.33;" x2="61.439"/>
  <line x1="64.895" y2="-1.66" y1="-74.231" style="fill-rule:evenodd;clip-rule:evenodd;fill:none;stroke:#000000;stroke-width:0.33;" x2="64.895"/>
  <line x1="68.35" y2="-1.66" y1="-74.231" style="fill-rule:evenodd;clip-rule:evenodd;fill:none;stroke:#000000;stroke-width:0.33;" x2="68.35"/>
  <line x1="71.805" y2="-1.66" y1="-74.231" style="fill-rule:evenodd;clip-rule:evenodd;fill:none;stroke:#000000;stroke-width:0.33;" x2="71.805"/>
 </g>
</svg>
