<?xml version="1.0"?>
<!-- Converted with SVG Converter - Version 0.9.5 (Compiled Fri Feb 21 09:53:38 2020) - Copyright (C) 2011 Nokia -->
<svg xmlns="http://www.w3.org/2000/svg" height="73.08" baseProfile="tiny" viewBox="1 -74.74 73.08 73.08" xmlns:xlink="http://www.w3.org/1999/xlink" y="0px" version="1.1" width="73.08" x="0px" xml:space="preserve">
 <g>
  <rect height="73.08" y="-74.74" width="73.08" x="1" style="fill:none;"/>
  <line x2="2.301" x1="2.301" style="fill-rule:evenodd;clip-rule:evenodd;fill:none;stroke:#000000;stroke-width:0.33;" y1="-74.74" y2="-1.66"/>
  <line x2="4.82" x1="4.82" style="fill-rule:evenodd;clip-rule:evenodd;fill:none;stroke:#000000;stroke-width:0.33;" y1="-74.74" y2="-1.66"/>
  <line x2="7.339" x1="7.339" style="fill-rule:evenodd;clip-rule:evenodd;fill:none;stroke:#000000;stroke-width:0.33;" y1="-74.74" y2="-1.66"/>
  <line x2="9.858" x1="9.858" style="fill-rule:evenodd;clip-rule:evenodd;fill:none;stroke:#000000;stroke-width:0.33;" y1="-74.74" y2="-1.66"/>
  <line x2="12.378" x1="12.378" style="fill-rule:evenodd;clip-rule:evenodd;fill:none;stroke:#000000;stroke-width:0.33;" y1="-74.74" y2="-1.66"/>
  <line x2="14.897" x1="14.897" style="fill-rule:evenodd;clip-rule:evenodd;fill:none;stroke:#000000;stroke-width:0.33;" y1="-74.74" y2="-1.66"/>
  <line x2="17.416" x1="17.416" style="fill-rule:evenodd;clip-rule:evenodd;fill:none;stroke:#000000;stroke-width:0.33;" y1="-74.74" y2="-1.66"/>
  <line x2="19.935" x1="19.935" style="fill-rule:evenodd;clip-rule:evenodd;fill:none;stroke:#000000;stroke-width:0.33;" y1="-74.74" y2="-1.66"/>
  <line x2="22.454" x1="22.454" style="fill-rule:evenodd;clip-rule:evenodd;fill:none;stroke:#000000;stroke-width:0.33;" y1="-74.74" y2="-1.66"/>
  <line x2="24.974" x1="24.974" style="fill-rule:evenodd;clip-rule:evenodd;fill:none;stroke:#000000;stroke-width:0.33;" y1="-74.74" y2="-1.66"/>
  <line x2="27.493" x1="27.493" style="fill-rule:evenodd;clip-rule:evenodd;fill:none;stroke:#000000;stroke-width:0.33;" y1="-74.74" y2="-1.66"/>
  <line x2="30.012" x1="30.012" style="fill-rule:evenodd;clip-rule:evenodd;fill:none;stroke:#000000;stroke-width:0.33;" y1="-74.74" y2="-1.66"/>
  <line x2="32.531" x1="32.531" style="fill-rule:evenodd;clip-rule:evenodd;fill:none;stroke:#000000;stroke-width:0.33;" y1="-74.74" y2="-1.66"/>
  <line x2="35.05" x1="35.05" style="fill-rule:evenodd;clip-rule:evenodd;fill:none;stroke:#000000;stroke-width:0.33;" y1="-74.74" y2="-1.66"/>
  <line x2="37.569" x1="37.569" style="fill-rule:evenodd;clip-rule:evenodd;fill:none;stroke:#000000;stroke-width:0.33;" y1="-74.74" y2="-1.66"/>
  <line x2="40.088" x1="40.088" style="fill-rule:evenodd;clip-rule:evenodd;fill:none;stroke:#000000;stroke-width:0.33;" y1="-74.74" y2="-1.66"/>
  <line x2="42.607" x1="42.607" style="fill-rule:evenodd;clip-rule:evenodd;fill:none;stroke:#000000;stroke-width:0.33;" y1="-74.74" y2="-1.66"/>
  <line x2="45.127" x1="45.127" style="fill-rule:evenodd;clip-rule:evenodd;fill:none;stroke:#000000;stroke-width:0.33;" y1="-74.74" y2="-1.66"/>
  <line x2="47.646" x1="47.646" style="fill-rule:evenodd;clip-rule:evenodd;fill:none;stroke:#000000;stroke-width:0.33;" y1="-74.74" y2="-1.66"/>
  <line x2="50.165" x1="50.165" style="fill-rule:evenodd;clip-rule:evenodd;fill:none;stroke:#000000;stroke-width:0.33;" y1="-74.74" y2="-1.66"/>
  <line x2="52.684" x1="52.684" style="fill-rule:evenodd;clip-rule:evenodd;fill:none;stroke:#000000;stroke-width:0.33;" y1="-74.74" y2="-1.66"/>
  <line x2="55.204" x1="55.204" style="fill-rule:evenodd;clip-rule:evenodd;fill:none;stroke:#000000;stroke-width:0.33;" y1="-74.74" y2="-1.66"/>
  <line x2="57.723" x1="57.723" style="fill-rule:evenodd;clip-rule:evenodd;fill:none;stroke:#000000;stroke-width:0.33;" y1="-74.74" y2="-1.66"/>
  <line x2="60.242" x1="60.242" style="fill-rule:evenodd;clip-rule:evenodd;fill:none;stroke:#000000;stroke-width:0.33;" y1="-74.74" y2="-1.66"/>
  <line x2="62.761" x1="62.761" style="fill-rule:evenodd;clip-rule:evenodd;fill:none;stroke:#000000;stroke-width:0.33;" y1="-74.74" y2="-1.66"/>
  <line x2="65.28" x1="65.28" style="fill-rule:evenodd;clip-rule:evenodd;fill:none;stroke:#000000;stroke-width:0.33;" y1="-74.74" y2="-1.66"/>
  <line x2="67.799" x1="67.799" style="fill-rule:evenodd;clip-rule:evenodd;fill:none;stroke:#000000;stroke-width:0.33;" y1="-74.74" y2="-1.66"/>
  <line x2="70.318" x1="70.318" style="fill-rule:evenodd;clip-rule:evenodd;fill:none;stroke:#000000;stroke-width:0.33;" y1="-74.74" y2="-1.66"/>
  <line x2="72.837" x1="72.837" style="fill-rule:evenodd;clip-rule:evenodd;fill:none;stroke:#000000;stroke-width:0.33;" y1="-74.74" y2="-1.66"/>
 </g>
</svg>
