<?xml version="1.0"?>
<!-- Converted with SVG Converter - Version 0.9.5 (Compiled Fri Feb 21 09:53:38 2020) - Copyright (C) 2011 Nokia -->
<svg xmlns="http://www.w3.org/2000/svg" height="73.08" viewBox="0 -73.08 73.08 73.08" xmlns:xlink="http://www.w3.org/1999/xlink" xml:space="preserve" baseProfile="tiny" version="1.1" y="0px" width="73.08" x="0px">
 <g>
  <rect height="73.08" style="fill:none;" y="-73.08" width="73.08" x="0"/>
  <line y2="0" x2="1.301" style="fill-rule:evenodd;clip-rule:evenodd;fill:none;stroke:#ED1B2E;stroke-width:0.43;" x1="1.301" y1="-73.08"/>
  <line y2="0" x2="3.82" style="fill-rule:evenodd;clip-rule:evenodd;fill:none;stroke:#ED1B2E;stroke-width:0.43;" x1="3.82" y1="-73.08"/>
  <line y2="0" x2="6.339" style="fill-rule:evenodd;clip-rule:evenodd;fill:none;stroke:#ED1B2E;stroke-width:0.43;" x1="6.339" y1="-73.08"/>
  <line y2="0" x2="8.858" style="fill-rule:evenodd;clip-rule:evenodd;fill:none;stroke:#ED1B2E;stroke-width:0.43;" x1="8.858" y1="-73.08"/>
  <line y2="0" x2="11.378" style="fill-rule:evenodd;clip-rule:evenodd;fill:none;stroke:#ED1B2E;stroke-width:0.43;" x1="11.378" y1="-73.08"/>
  <line y2="0" x2="13.897" style="fill-rule:evenodd;clip-rule:evenodd;fill:none;stroke:#ED1B2E;stroke-width:0.43;" x1="13.897" y1="-73.08"/>
  <line y2="0" x2="16.416" style="fill-rule:evenodd;clip-rule:evenodd;fill:none;stroke:#ED1B2E;stroke-width:0.43;" x1="16.416" y1="-73.08"/>
  <line y2="0" x2="18.935" style="fill-rule:evenodd;clip-rule:evenodd;fill:none;stroke:#ED1B2E;stroke-width:0.43;" x1="18.935" y1="-73.08"/>
  <line y2="0" x2="21.454" style="fill-rule:evenodd;clip-rule:evenodd;fill:none;stroke:#ED1B2E;stroke-width:0.43;" x1="21.454" y1="-73.08"/>
  <line y2="0" x2="23.974" style="fill-rule:evenodd;clip-rule:evenodd;fill:none;stroke:#ED1B2E;stroke-width:0.43;" x1="23.974" y1="-73.08"/>
  <line y2="0" x2="26.493" style="fill-rule:evenodd;clip-rule:evenodd;fill:none;stroke:#ED1B2E;stroke-width:0.43;" x1="26.493" y1="-73.08"/>
  <line y2="0" x2="29.012" style="fill-rule:evenodd;clip-rule:evenodd;fill:none;stroke:#ED1B2E;stroke-width:0.43;" x1="29.012" y1="-73.08"/>
  <line y2="0" x2="31.531" style="fill-rule:evenodd;clip-rule:evenodd;fill:none;stroke:#ED1B2E;stroke-width:0.43;" x1="31.531" y1="-73.08"/>
  <line y2="0" x2="34.05" style="fill-rule:evenodd;clip-rule:evenodd;fill:none;stroke:#ED1B2E;stroke-width:0.43;" x1="34.05" y1="-73.08"/>
  <line y2="0" x2="36.569" style="fill-rule:evenodd;clip-rule:evenodd;fill:none;stroke:#ED1B2E;stroke-width:0.43;" x1="36.569" y1="-73.08"/>
  <line y2="0" x2="39.088" style="fill-rule:evenodd;clip-rule:evenodd;fill:none;stroke:#ED1B2E;stroke-width:0.43;" x1="39.088" y1="-73.08"/>
  <line y2="0" x2="41.607" style="fill-rule:evenodd;clip-rule:evenodd;fill:none;stroke:#ED1B2E;stroke-width:0.43;" x1="41.607" y1="-73.08"/>
  <line y2="0" x2="44.127" style="fill-rule:evenodd;clip-rule:evenodd;fill:none;stroke:#ED1B2E;stroke-width:0.43;" x1="44.127" y1="-73.08"/>
  <line y2="0" x2="46.646" style="fill-rule:evenodd;clip-rule:evenodd;fill:none;stroke:#ED1B2E;stroke-width:0.43;" x1="46.646" y1="-73.08"/>
  <line y2="0" x2="49.165" style="fill-rule:evenodd;clip-rule:evenodd;fill:none;stroke:#ED1B2E;stroke-width:0.43;" x1="49.165" y1="-73.08"/>
  <line y2="0" x2="51.684" style="fill-rule:evenodd;clip-rule:evenodd;fill:none;stroke:#ED1B2E;stroke-width:0.43;" x1="51.684" y1="-73.08"/>
  <line y2="0" x2="54.204" style="fill-rule:evenodd;clip-rule:evenodd;fill:none;stroke:#ED1B2E;stroke-width:0.43;" x1="54.204" y1="-73.08"/>
  <line y2="0" x2="56.723" style="fill-rule:evenodd;clip-rule:evenodd;fill:none;stroke:#ED1B2E;stroke-width:0.43;" x1="56.723" y1="-73.08"/>
  <line y2="0" x2="59.242" style="fill-rule:evenodd;clip-rule:evenodd;fill:none;stroke:#ED1B2E;stroke-width:0.43;" x1="59.242" y1="-73.08"/>
  <line y2="0" x2="61.761" style="fill-rule:evenodd;clip-rule:evenodd;fill:none;stroke:#ED1B2E;stroke-width:0.43;" x1="61.761" y1="-73.08"/>
  <line y2="0" x2="64.28" style="fill-rule:evenodd;clip-rule:evenodd;fill:none;stroke:#ED1B2E;stroke-width:0.43;" x1="64.28" y1="-73.08"/>
  <line y2="0" x2="66.799" style="fill-rule:evenodd;clip-rule:evenodd;fill:none;stroke:#ED1B2E;stroke-width:0.43;" x1="66.799" y1="-73.08"/>
  <line y2="0" x2="69.318" style="fill-rule:evenodd;clip-rule:evenodd;fill:none;stroke:#ED1B2E;stroke-width:0.43;" x1="69.318" y1="-73.08"/>
  <line y2="0" x2="71.837" style="fill-rule:evenodd;clip-rule:evenodd;fill:none;stroke:#ED1B2E;stroke-width:0.43;" x1="71.837" y1="-73.08"/>
 </g>
</svg>
