<?xml version="1.0"?>
<!-- Converted with SVG Converter - Version 0.9.5 (Compiled Fri Feb 21 09:53:38 2020) - Copyright (C) 2011 Nokia -->
<svg xmlns="http://www.w3.org/2000/svg" width="73.08" viewBox="0 -73.08 73.08 73.08" xml:space="preserve" xmlns:xlink="http://www.w3.org/1999/xlink" baseProfile="tiny" height="73.08" y="0px" version="1.1" x="0px">
 <g>
  <rect style="fill:none;" width="73.08" height="73.08" y="-73.08" x="0"/>
  <rect width="73.08" height="73.08" y="-73.08" x="0"/>
  <line style="fill-rule:evenodd;clip-rule:evenodd;fill:none;stroke:#FFFFFF;stroke-width:0.43;" y2="0" y1="-73.08" x2="1.301" x1="1.301"/>
  <line style="fill-rule:evenodd;clip-rule:evenodd;fill:none;stroke:#FFFFFF;stroke-width:0.43;" y2="0" y1="-73.08" x2="3.82" x1="3.82"/>
  <line style="fill-rule:evenodd;clip-rule:evenodd;fill:none;stroke:#FFFFFF;stroke-width:0.43;" y2="0" y1="-73.08" x2="6.339" x1="6.339"/>
  <line style="fill-rule:evenodd;clip-rule:evenodd;fill:none;stroke:#FFFFFF;stroke-width:0.43;" y2="0" y1="-73.08" x2="8.858" x1="8.858"/>
  <line style="fill-rule:evenodd;clip-rule:evenodd;fill:none;stroke:#FFFFFF;stroke-width:0.43;" y2="0" y1="-73.08" x2="11.378" x1="11.378"/>
  <line style="fill-rule:evenodd;clip-rule:evenodd;fill:none;stroke:#FFFFFF;stroke-width:0.43;" y2="0" y1="-73.08" x2="13.897" x1="13.897"/>
  <line style="fill-rule:evenodd;clip-rule:evenodd;fill:none;stroke:#FFFFFF;stroke-width:0.43;" y2="0" y1="-73.08" x2="16.416" x1="16.416"/>
  <line style="fill-rule:evenodd;clip-rule:evenodd;fill:none;stroke:#FFFFFF;stroke-width:0.43;" y2="0" y1="-73.08" x2="18.935" x1="18.935"/>
  <line style="fill-rule:evenodd;clip-rule:evenodd;fill:none;stroke:#FFFFFF;stroke-width:0.43;" y2="0" y1="-73.08" x2="21.454" x1="21.454"/>
  <line style="fill-rule:evenodd;clip-rule:evenodd;fill:none;stroke:#FFFFFF;stroke-width:0.43;" y2="0" y1="-73.08" x2="23.974" x1="23.974"/>
  <line style="fill-rule:evenodd;clip-rule:evenodd;fill:none;stroke:#FFFFFF;stroke-width:0.43;" y2="0" y1="-73.08" x2="26.493" x1="26.493"/>
  <line style="fill-rule:evenodd;clip-rule:evenodd;fill:none;stroke:#FFFFFF;stroke-width:0.43;" y2="0" y1="-73.08" x2="29.012" x1="29.012"/>
  <line style="fill-rule:evenodd;clip-rule:evenodd;fill:none;stroke:#FFFFFF;stroke-width:0.43;" y2="0" y1="-73.08" x2="31.531" x1="31.531"/>
  <line style="fill-rule:evenodd;clip-rule:evenodd;fill:none;stroke:#FFFFFF;stroke-width:0.43;" y2="0" y1="-73.08" x2="34.05" x1="34.05"/>
  <line style="fill-rule:evenodd;clip-rule:evenodd;fill:none;stroke:#FFFFFF;stroke-width:0.43;" y2="0" y1="-73.08" x2="36.569" x1="36.569"/>
  <line style="fill-rule:evenodd;clip-rule:evenodd;fill:none;stroke:#FFFFFF;stroke-width:0.43;" y2="0" y1="-73.08" x2="39.088" x1="39.088"/>
  <line style="fill-rule:evenodd;clip-rule:evenodd;fill:none;stroke:#FFFFFF;stroke-width:0.43;" y2="0" y1="-73.08" x2="41.607" x1="41.607"/>
  <line style="fill-rule:evenodd;clip-rule:evenodd;fill:none;stroke:#FFFFFF;stroke-width:0.43;" y2="0" y1="-73.08" x2="44.127" x1="44.127"/>
  <line style="fill-rule:evenodd;clip-rule:evenodd;fill:none;stroke:#FFFFFF;stroke-width:0.43;" y2="0" y1="-73.08" x2="46.646" x1="46.646"/>
  <line style="fill-rule:evenodd;clip-rule:evenodd;fill:none;stroke:#FFFFFF;stroke-width:0.43;" y2="0" y1="-73.08" x2="49.165" x1="49.165"/>
  <line style="fill-rule:evenodd;clip-rule:evenodd;fill:none;stroke:#FFFFFF;stroke-width:0.43;" y2="0" y1="-73.08" x2="51.684" x1="51.684"/>
  <line style="fill-rule:evenodd;clip-rule:evenodd;fill:none;stroke:#FFFFFF;stroke-width:0.43;" y2="0" y1="-73.08" x2="54.204" x1="54.204"/>
  <line style="fill-rule:evenodd;clip-rule:evenodd;fill:none;stroke:#FFFFFF;stroke-width:0.43;" y2="0" y1="-73.08" x2="56.723" x1="56.723"/>
  <line style="fill-rule:evenodd;clip-rule:evenodd;fill:none;stroke:#FFFFFF;stroke-width:0.43;" y2="0" y1="-73.08" x2="59.242" x1="59.242"/>
  <line style="fill-rule:evenodd;clip-rule:evenodd;fill:none;stroke:#FFFFFF;stroke-width:0.43;" y2="0" y1="-73.08" x2="61.761" x1="61.761"/>
  <line style="fill-rule:evenodd;clip-rule:evenodd;fill:none;stroke:#FFFFFF;stroke-width:0.43;" y2="0" y1="-73.08" x2="64.28" x1="64.28"/>
  <line style="fill-rule:evenodd;clip-rule:evenodd;fill:none;stroke:#FFFFFF;stroke-width:0.43;" y2="0" y1="-73.08" x2="66.799" x1="66.799"/>
  <line style="fill-rule:evenodd;clip-rule:evenodd;fill:none;stroke:#FFFFFF;stroke-width:0.43;" y2="0" y1="-73.08" x2="69.318" x1="69.318"/>
  <line style="fill-rule:evenodd;clip-rule:evenodd;fill:none;stroke:#FFFFFF;stroke-width:0.43;" y2="0" y1="-73.08" x2="71.837" x1="71.837"/>
 </g>
</svg>
