<?xml version="1.0"?>
<!-- Converted with SVG Converter - Version 0.9.5 (Compiled Fri Feb 21 09:53:38 2020) - Copyright (C) 2011 Nokia -->
<svg xmlns="http://www.w3.org/2000/svg" height="73.08" version="1.1" xml:space="preserve" baseProfile="tiny" x="0px" xmlns:xlink="http://www.w3.org/1999/xlink" viewBox="0 -73.08 73.08 73.08" y="0px" width="73.08">
 <g>
  <rect height="73.08" x="0" style="fill:none;" y="-73.08" width="73.08"/>
  <line x2="1.301" y2="0" style="fill-rule:evenodd;clip-rule:evenodd;fill:none;stroke:#ED1B2E;stroke-width:0.43;" y1="-73.08" x1="1.301"/>
  <line x2="3.82" y2="0" style="fill-rule:evenodd;clip-rule:evenodd;fill:none;stroke:#ED1B2E;stroke-width:0.43;" y1="-73.08" x1="3.82"/>
  <line x2="6.339" y2="0" style="fill-rule:evenodd;clip-rule:evenodd;fill:none;stroke:#ED1B2E;stroke-width:0.43;" y1="-73.08" x1="6.339"/>
  <line x2="8.858" y2="0" style="fill-rule:evenodd;clip-rule:evenodd;fill:none;stroke:#ED1B2E;stroke-width:0.43;" y1="-73.08" x1="8.858"/>
  <line x2="11.378" y2="0" style="fill-rule:evenodd;clip-rule:evenodd;fill:none;stroke:#ED1B2E;stroke-width:0.43;" y1="-73.08" x1="11.378"/>
  <line x2="13.897" y2="0" style="fill-rule:evenodd;clip-rule:evenodd;fill:none;stroke:#ED1B2E;stroke-width:0.43;" y1="-73.08" x1="13.897"/>
  <line x2="16.416" y2="0" style="fill-rule:evenodd;clip-rule:evenodd;fill:none;stroke:#ED1B2E;stroke-width:0.43;" y1="-73.08" x1="16.416"/>
  <line x2="18.935" y2="0" style="fill-rule:evenodd;clip-rule:evenodd;fill:none;stroke:#ED1B2E;stroke-width:0.43;" y1="-73.08" x1="18.935"/>
  <line x2="21.454" y2="0" style="fill-rule:evenodd;clip-rule:evenodd;fill:none;stroke:#ED1B2E;stroke-width:0.43;" y1="-73.08" x1="21.454"/>
  <line x2="23.974" y2="0" style="fill-rule:evenodd;clip-rule:evenodd;fill:none;stroke:#ED1B2E;stroke-width:0.43;" y1="-73.08" x1="23.974"/>
  <line x2="26.493" y2="0" style="fill-rule:evenodd;clip-rule:evenodd;fill:none;stroke:#ED1B2E;stroke-width:0.43;" y1="-73.08" x1="26.493"/>
  <line x2="29.012" y2="0" style="fill-rule:evenodd;clip-rule:evenodd;fill:none;stroke:#ED1B2E;stroke-width:0.43;" y1="-73.08" x1="29.012"/>
  <line x2="31.531" y2="0" style="fill-rule:evenodd;clip-rule:evenodd;fill:none;stroke:#ED1B2E;stroke-width:0.43;" y1="-73.08" x1="31.531"/>
  <line x2="34.05" y2="0" style="fill-rule:evenodd;clip-rule:evenodd;fill:none;stroke:#ED1B2E;stroke-width:0.43;" y1="-73.08" x1="34.05"/>
  <line x2="36.569" y2="0" style="fill-rule:evenodd;clip-rule:evenodd;fill:none;stroke:#ED1B2E;stroke-width:0.43;" y1="-73.08" x1="36.569"/>
  <line x2="39.088" y2="0" style="fill-rule:evenodd;clip-rule:evenodd;fill:none;stroke:#ED1B2E;stroke-width:0.43;" y1="-73.08" x1="39.088"/>
  <line x2="41.607" y2="0" style="fill-rule:evenodd;clip-rule:evenodd;fill:none;stroke:#ED1B2E;stroke-width:0.43;" y1="-73.08" x1="41.607"/>
  <line x2="44.127" y2="0" style="fill-rule:evenodd;clip-rule:evenodd;fill:none;stroke:#ED1B2E;stroke-width:0.43;" y1="-73.08" x1="44.127"/>
  <line x2="46.646" y2="0" style="fill-rule:evenodd;clip-rule:evenodd;fill:none;stroke:#ED1B2E;stroke-width:0.43;" y1="-73.08" x1="46.646"/>
  <line x2="49.165" y2="0" style="fill-rule:evenodd;clip-rule:evenodd;fill:none;stroke:#ED1B2E;stroke-width:0.43;" y1="-73.08" x1="49.165"/>
  <line x2="51.684" y2="0" style="fill-rule:evenodd;clip-rule:evenodd;fill:none;stroke:#ED1B2E;stroke-width:0.43;" y1="-73.08" x1="51.684"/>
  <line x2="54.204" y2="0" style="fill-rule:evenodd;clip-rule:evenodd;fill:none;stroke:#ED1B2E;stroke-width:0.43;" y1="-73.08" x1="54.204"/>
  <line x2="56.723" y2="0" style="fill-rule:evenodd;clip-rule:evenodd;fill:none;stroke:#ED1B2E;stroke-width:0.43;" y1="-73.08" x1="56.723"/>
  <line x2="59.242" y2="0" style="fill-rule:evenodd;clip-rule:evenodd;fill:none;stroke:#ED1B2E;stroke-width:0.43;" y1="-73.08" x1="59.242"/>
  <line x2="61.761" y2="0" style="fill-rule:evenodd;clip-rule:evenodd;fill:none;stroke:#ED1B2E;stroke-width:0.43;" y1="-73.08" x1="61.761"/>
  <line x2="64.28" y2="0" style="fill-rule:evenodd;clip-rule:evenodd;fill:none;stroke:#ED1B2E;stroke-width:0.43;" y1="-73.08" x1="64.28"/>
  <line x2="66.799" y2="0" style="fill-rule:evenodd;clip-rule:evenodd;fill:none;stroke:#ED1B2E;stroke-width:0.43;" y1="-73.08" x1="66.799"/>
  <line x2="69.318" y2="0" style="fill-rule:evenodd;clip-rule:evenodd;fill:none;stroke:#ED1B2E;stroke-width:0.43;" y1="-73.08" x1="69.318"/>
  <line x2="71.837" y2="0" style="fill-rule:evenodd;clip-rule:evenodd;fill:none;stroke:#ED1B2E;stroke-width:0.43;" y1="-73.08" x1="71.837"/>
 </g>
</svg>
