<?xml version="1.0"?>
<!-- Converted with SVG Converter - Version 0.9.5 (Compiled Fri Feb 21 09:53:38 2020) - Copyright (C) 2011 Nokia -->
<svg xmlns="http://www.w3.org/2000/svg" y="0px" baseProfile="tiny" version="1.1" width="73.08" xmlns:xlink="http://www.w3.org/1999/xlink" height="73.08" x="0px" xml:space="preserve" viewBox="0 -73.081 73.08 73.08">
 <g>
  <rect y="-73.081" style="fill:none;" width="73.08" height="73.08" x="0"/>
  <line y1="-73.081" style="fill-rule:evenodd;clip-rule:evenodd;fill:none;stroke:#00AEEF;stroke-width:0.43;" y2="-0.001" x1="1.301" x2="1.301"/>
  <line y1="-73.081" style="fill-rule:evenodd;clip-rule:evenodd;fill:none;stroke:#00AEEF;stroke-width:0.43;" y2="-0.001" x1="3.82" x2="3.82"/>
  <line y1="-73.081" style="fill-rule:evenodd;clip-rule:evenodd;fill:none;stroke:#00AEEF;stroke-width:0.43;" y2="-0.001" x1="6.339" x2="6.339"/>
  <line y1="-73.081" style="fill-rule:evenodd;clip-rule:evenodd;fill:none;stroke:#00AEEF;stroke-width:0.43;" y2="-0.001" x1="8.858" x2="8.858"/>
  <line y1="-73.081" style="fill-rule:evenodd;clip-rule:evenodd;fill:none;stroke:#00AEEF;stroke-width:0.43;" y2="-0.001" x1="11.378" x2="11.378"/>
  <line y1="-73.081" style="fill-rule:evenodd;clip-rule:evenodd;fill:none;stroke:#00AEEF;stroke-width:0.43;" y2="-0.001" x1="13.897" x2="13.897"/>
  <line y1="-73.081" style="fill-rule:evenodd;clip-rule:evenodd;fill:none;stroke:#00AEEF;stroke-width:0.43;" y2="-0.001" x1="16.416" x2="16.416"/>
  <line y1="-73.081" style="fill-rule:evenodd;clip-rule:evenodd;fill:none;stroke:#00AEEF;stroke-width:0.43;" y2="-0.001" x1="18.935" x2="18.935"/>
  <line y1="-73.081" style="fill-rule:evenodd;clip-rule:evenodd;fill:none;stroke:#00AEEF;stroke-width:0.43;" y2="-0.001" x1="21.454" x2="21.454"/>
  <line y1="-73.081" style="fill-rule:evenodd;clip-rule:evenodd;fill:none;stroke:#00AEEF;stroke-width:0.43;" y2="-0.001" x1="23.974" x2="23.974"/>
  <line y1="-73.081" style="fill-rule:evenodd;clip-rule:evenodd;fill:none;stroke:#00AEEF;stroke-width:0.43;" y2="-0.001" x1="26.493" x2="26.493"/>
  <line y1="-73.081" style="fill-rule:evenodd;clip-rule:evenodd;fill:none;stroke:#00AEEF;stroke-width:0.43;" y2="-0.001" x1="29.012" x2="29.012"/>
  <line y1="-73.081" style="fill-rule:evenodd;clip-rule:evenodd;fill:none;stroke:#00AEEF;stroke-width:0.43;" y2="-0.001" x1="31.531" x2="31.531"/>
  <line y1="-73.081" style="fill-rule:evenodd;clip-rule:evenodd;fill:none;stroke:#00AEEF;stroke-width:0.43;" y2="-0.001" x1="34.05" x2="34.05"/>
  <line y1="-73.081" style="fill-rule:evenodd;clip-rule:evenodd;fill:none;stroke:#00AEEF;stroke-width:0.43;" y2="-0.001" x1="36.569" x2="36.569"/>
  <line y1="-73.081" style="fill-rule:evenodd;clip-rule:evenodd;fill:none;stroke:#00AEEF;stroke-width:0.43;" y2="-0.001" x1="39.088" x2="39.088"/>
  <line y1="-73.081" style="fill-rule:evenodd;clip-rule:evenodd;fill:none;stroke:#00AEEF;stroke-width:0.43;" y2="-0.001" x1="41.607" x2="41.607"/>
  <line y1="-73.081" style="fill-rule:evenodd;clip-rule:evenodd;fill:none;stroke:#00AEEF;stroke-width:0.43;" y2="-0.001" x1="44.127" x2="44.127"/>
  <line y1="-73.081" style="fill-rule:evenodd;clip-rule:evenodd;fill:none;stroke:#00AEEF;stroke-width:0.43;" y2="-0.001" x1="46.646" x2="46.646"/>
  <line y1="-73.081" style="fill-rule:evenodd;clip-rule:evenodd;fill:none;stroke:#00AEEF;stroke-width:0.43;" y2="-0.001" x1="49.165" x2="49.165"/>
  <line y1="-73.081" style="fill-rule:evenodd;clip-rule:evenodd;fill:none;stroke:#00AEEF;stroke-width:0.43;" y2="-0.001" x1="51.684" x2="51.684"/>
  <line y1="-73.081" style="fill-rule:evenodd;clip-rule:evenodd;fill:none;stroke:#00AEEF;stroke-width:0.43;" y2="-0.001" x1="54.204" x2="54.204"/>
  <line y1="-73.081" style="fill-rule:evenodd;clip-rule:evenodd;fill:none;stroke:#00AEEF;stroke-width:0.43;" y2="-0.001" x1="56.723" x2="56.723"/>
  <line y1="-73.081" style="fill-rule:evenodd;clip-rule:evenodd;fill:none;stroke:#00AEEF;stroke-width:0.43;" y2="-0.001" x1="59.242" x2="59.242"/>
  <line y1="-73.081" style="fill-rule:evenodd;clip-rule:evenodd;fill:none;stroke:#00AEEF;stroke-width:0.43;" y2="-0.001" x1="61.761" x2="61.761"/>
  <line y1="-73.081" style="fill-rule:evenodd;clip-rule:evenodd;fill:none;stroke:#00AEEF;stroke-width:0.43;" y2="-0.001" x1="64.28" x2="64.28"/>
  <line y1="-73.081" style="fill-rule:evenodd;clip-rule:evenodd;fill:none;stroke:#00AEEF;stroke-width:0.43;" y2="-0.001" x1="66.799" x2="66.799"/>
  <line y1="-73.081" style="fill-rule:evenodd;clip-rule:evenodd;fill:none;stroke:#00AEEF;stroke-width:0.43;" y2="-0.001" x1="69.318" x2="69.318"/>
  <line y1="-73.081" style="fill-rule:evenodd;clip-rule:evenodd;fill:none;stroke:#00AEEF;stroke-width:0.43;" y2="-0.001" x1="71.837" x2="71.837"/>
 </g>
</svg>
