<?xml version="1.0"?>
<!-- Converted with SVG Converter - Version 0.9.5 (Compiled Fri Feb 21 09:53:38 2020) - Copyright (C) 2011 Nokia -->
<svg xmlns="http://www.w3.org/2000/svg" version="1.1" x="0px" baseProfile="tiny" y="0px" xml:space="preserve" height="73.08" xmlns:xlink="http://www.w3.org/1999/xlink" viewBox="1 -74.74 73.08 73.08" width="73.08">
 <g>
  <rect x="1" style="fill:none;" y="-74.74" height="73.08" width="73.08"/>
  <line style="fill-rule:evenodd;clip-rule:evenodd;fill:none;stroke:#000000;stroke-width:0.33;" y1="-74.74" y2="-1.66" x1="2.301" x2="2.301"/>
  <line style="fill-rule:evenodd;clip-rule:evenodd;fill:none;stroke:#000000;stroke-width:0.33;" y1="-74.74" y2="-1.66" x1="4.82" x2="4.82"/>
  <line style="fill-rule:evenodd;clip-rule:evenodd;fill:none;stroke:#000000;stroke-width:0.33;" y1="-74.74" y2="-1.66" x1="7.339" x2="7.339"/>
  <line style="fill-rule:evenodd;clip-rule:evenodd;fill:none;stroke:#000000;stroke-width:0.33;" y1="-74.74" y2="-1.66" x1="9.858" x2="9.858"/>
  <line style="fill-rule:evenodd;clip-rule:evenodd;fill:none;stroke:#000000;stroke-width:0.33;" y1="-74.74" y2="-1.66" x1="12.378" x2="12.378"/>
  <line style="fill-rule:evenodd;clip-rule:evenodd;fill:none;stroke:#000000;stroke-width:0.33;" y1="-74.74" y2="-1.66" x1="14.897" x2="14.897"/>
  <line style="fill-rule:evenodd;clip-rule:evenodd;fill:none;stroke:#000000;stroke-width:0.33;" y1="-74.74" y2="-1.66" x1="17.416" x2="17.416"/>
  <line style="fill-rule:evenodd;clip-rule:evenodd;fill:none;stroke:#000000;stroke-width:0.33;" y1="-74.74" y2="-1.66" x1="19.935" x2="19.935"/>
  <line style="fill-rule:evenodd;clip-rule:evenodd;fill:none;stroke:#000000;stroke-width:0.33;" y1="-74.74" y2="-1.66" x1="22.454" x2="22.454"/>
  <line style="fill-rule:evenodd;clip-rule:evenodd;fill:none;stroke:#000000;stroke-width:0.33;" y1="-74.74" y2="-1.66" x1="24.974" x2="24.974"/>
  <line style="fill-rule:evenodd;clip-rule:evenodd;fill:none;stroke:#000000;stroke-width:0.33;" y1="-74.74" y2="-1.66" x1="27.493" x2="27.493"/>
  <line style="fill-rule:evenodd;clip-rule:evenodd;fill:none;stroke:#000000;stroke-width:0.33;" y1="-74.74" y2="-1.66" x1="30.012" x2="30.012"/>
  <line style="fill-rule:evenodd;clip-rule:evenodd;fill:none;stroke:#000000;stroke-width:0.33;" y1="-74.74" y2="-1.66" x1="32.531" x2="32.531"/>
  <line style="fill-rule:evenodd;clip-rule:evenodd;fill:none;stroke:#000000;stroke-width:0.33;" y1="-74.74" y2="-1.66" x1="35.05" x2="35.05"/>
  <line style="fill-rule:evenodd;clip-rule:evenodd;fill:none;stroke:#000000;stroke-width:0.33;" y1="-74.74" y2="-1.66" x1="37.569" x2="37.569"/>
  <line style="fill-rule:evenodd;clip-rule:evenodd;fill:none;stroke:#000000;stroke-width:0.33;" y1="-74.74" y2="-1.66" x1="40.088" x2="40.088"/>
  <line style="fill-rule:evenodd;clip-rule:evenodd;fill:none;stroke:#000000;stroke-width:0.33;" y1="-74.74" y2="-1.66" x1="42.607" x2="42.607"/>
  <line style="fill-rule:evenodd;clip-rule:evenodd;fill:none;stroke:#000000;stroke-width:0.33;" y1="-74.74" y2="-1.66" x1="45.127" x2="45.127"/>
  <line style="fill-rule:evenodd;clip-rule:evenodd;fill:none;stroke:#000000;stroke-width:0.33;" y1="-74.74" y2="-1.66" x1="47.646" x2="47.646"/>
  <line style="fill-rule:evenodd;clip-rule:evenodd;fill:none;stroke:#000000;stroke-width:0.33;" y1="-74.74" y2="-1.66" x1="50.165" x2="50.165"/>
  <line style="fill-rule:evenodd;clip-rule:evenodd;fill:none;stroke:#000000;stroke-width:0.33;" y1="-74.74" y2="-1.66" x1="52.684" x2="52.684"/>
  <line style="fill-rule:evenodd;clip-rule:evenodd;fill:none;stroke:#000000;stroke-width:0.33;" y1="-74.74" y2="-1.66" x1="55.204" x2="55.204"/>
  <line style="fill-rule:evenodd;clip-rule:evenodd;fill:none;stroke:#000000;stroke-width:0.33;" y1="-74.74" y2="-1.66" x1="57.723" x2="57.723"/>
  <line style="fill-rule:evenodd;clip-rule:evenodd;fill:none;stroke:#000000;stroke-width:0.33;" y1="-74.74" y2="-1.66" x1="60.242" x2="60.242"/>
  <line style="fill-rule:evenodd;clip-rule:evenodd;fill:none;stroke:#000000;stroke-width:0.33;" y1="-74.74" y2="-1.66" x1="62.761" x2="62.761"/>
  <line style="fill-rule:evenodd;clip-rule:evenodd;fill:none;stroke:#000000;stroke-width:0.33;" y1="-74.74" y2="-1.66" x1="65.28" x2="65.28"/>
  <line style="fill-rule:evenodd;clip-rule:evenodd;fill:none;stroke:#000000;stroke-width:0.33;" y1="-74.74" y2="-1.66" x1="67.799" x2="67.799"/>
  <line style="fill-rule:evenodd;clip-rule:evenodd;fill:none;stroke:#000000;stroke-width:0.33;" y1="-74.74" y2="-1.66" x1="70.318" x2="70.318"/>
  <line style="fill-rule:evenodd;clip-rule:evenodd;fill:none;stroke:#000000;stroke-width:0.33;" y1="-74.74" y2="-1.66" x1="72.837" x2="72.837"/>
 </g>
</svg>
