<?xml version="1.0"?>
<!-- Converted with SVG Converter - Version 0.9.5 (Compiled Fri Feb 21 09:53:38 2020) - Copyright (C) 2011 Nokia -->
<svg xmlns="http://www.w3.org/2000/svg" y="0px" baseProfile="tiny" height="73.428" width="73.428" viewBox="0 -73.428 73.428 73.428" version="1.1" xml:space="preserve" x="0px" xmlns:xlink="http://www.w3.org/1999/xlink">
 <g>
  <rect y="-73.428" height="73.428" width="73.428" style="fill:none;" x="0"/>
  <line y1="-73.428" y2="0" x2="2.283" style="fill-rule:evenodd;clip-rule:evenodd;fill:none;stroke:#ED1B2E;stroke-width:0.43;" x1="2.283"/>
  <line y1="-73.428" y2="0" x2="6.602" style="fill-rule:evenodd;clip-rule:evenodd;fill:none;stroke:#ED1B2E;stroke-width:0.43;" x1="6.602"/>
  <line y1="-73.428" y2="0" x2="10.922" style="fill-rule:evenodd;clip-rule:evenodd;fill:none;stroke:#ED1B2E;stroke-width:0.43;" x1="10.922"/>
  <line y1="-73.428" y2="0" x2="15.242" style="fill-rule:evenodd;clip-rule:evenodd;fill:none;stroke:#ED1B2E;stroke-width:0.43;" x1="15.242"/>
  <line y1="-73.428" y2="0" x2="19.562" style="fill-rule:evenodd;clip-rule:evenodd;fill:none;stroke:#ED1B2E;stroke-width:0.43;" x1="19.562"/>
  <line y1="-73.428" y2="0" x2="23.882" style="fill-rule:evenodd;clip-rule:evenodd;fill:none;stroke:#ED1B2E;stroke-width:0.43;" x1="23.882"/>
  <line y1="-73.428" y2="0" x2="28.202" style="fill-rule:evenodd;clip-rule:evenodd;fill:none;stroke:#ED1B2E;stroke-width:0.43;" x1="28.202"/>
  <line y1="-73.428" y2="0" x2="32.521" style="fill-rule:evenodd;clip-rule:evenodd;fill:none;stroke:#ED1B2E;stroke-width:0.43;" x1="32.521"/>
  <line y1="-73.428" y2="0" x2="36.841" style="fill-rule:evenodd;clip-rule:evenodd;fill:none;stroke:#ED1B2E;stroke-width:0.43;" x1="36.841"/>
  <line y1="-73.428" y2="0" x2="41.161" style="fill-rule:evenodd;clip-rule:evenodd;fill:none;stroke:#ED1B2E;stroke-width:0.43;" x1="41.161"/>
  <line y1="-73.428" y2="0" x2="45.481" style="fill-rule:evenodd;clip-rule:evenodd;fill:none;stroke:#ED1B2E;stroke-width:0.43;" x1="45.481"/>
  <line y1="-73.428" y2="0" x2="49.801" style="fill-rule:evenodd;clip-rule:evenodd;fill:none;stroke:#ED1B2E;stroke-width:0.43;" x1="49.801"/>
  <line y1="-73.428" y2="0" x2="54.121" style="fill-rule:evenodd;clip-rule:evenodd;fill:none;stroke:#ED1B2E;stroke-width:0.43;" x1="54.121"/>
  <line y1="-73.428" y2="0" x2="58.44" style="fill-rule:evenodd;clip-rule:evenodd;fill:none;stroke:#ED1B2E;stroke-width:0.43;" x1="58.44"/>
  <line y1="-73.428" y2="0" x2="62.76" style="fill-rule:evenodd;clip-rule:evenodd;fill:none;stroke:#ED1B2E;stroke-width:0.43;" x1="62.76"/>
  <line y1="-73.428" y2="0" x2="67.08" style="fill-rule:evenodd;clip-rule:evenodd;fill:none;stroke:#ED1B2E;stroke-width:0.43;" x1="67.08"/>
  <line y1="-73.428" y2="0" x2="71.4" style="fill-rule:evenodd;clip-rule:evenodd;fill:none;stroke:#ED1B2E;stroke-width:0.43;" x1="71.4"/>
  <rect y="-73.428" height="73.428" width="73.428" style="fill-rule:evenodd;clip-rule:evenodd;fill:none;"/>
 </g>
</svg>
