<?xml version="1.0"?>
<!-- Converted with SVG Converter - Version 0.9.5 (Compiled Fri Feb 21 09:53:38 2020) - Copyright (C) 2011 Nokia -->
<svg xmlns="http://www.w3.org/2000/svg" x="0px" baseProfile="tiny" version="1.1" y="0px" viewBox="0 -73.429 73.428 73.428" width="73.428" height="73.428" xml:space="preserve" xmlns:xlink="http://www.w3.org/1999/xlink">
 <g>
  <rect x="0" style="fill:none;" y="-73.429" width="73.428" height="73.428"/>
  <rect style="fill-rule:evenodd;clip-rule:evenodd;" y="-73.429" width="73.428" height="73.428"/>
  <line x1="2.283" style="fill-rule:evenodd;clip-rule:evenodd;fill:none;stroke:#FFFFFF;stroke-width:0.43;" x2="2.283" y2="-0.001" y1="-73.429"/>
  <line x1="6.602" style="fill-rule:evenodd;clip-rule:evenodd;fill:none;stroke:#FFFFFF;stroke-width:0.43;" x2="6.602" y2="-0.001" y1="-73.429"/>
  <line x1="10.922" style="fill-rule:evenodd;clip-rule:evenodd;fill:none;stroke:#FFFFFF;stroke-width:0.43;" x2="10.922" y2="-0.001" y1="-73.429"/>
  <line x1="15.242" style="fill-rule:evenodd;clip-rule:evenodd;fill:none;stroke:#FFFFFF;stroke-width:0.43;" x2="15.242" y2="-0.001" y1="-73.429"/>
  <line x1="19.562" style="fill-rule:evenodd;clip-rule:evenodd;fill:none;stroke:#FFFFFF;stroke-width:0.43;" x2="19.562" y2="-0.001" y1="-73.429"/>
  <line x1="23.882" style="fill-rule:evenodd;clip-rule:evenodd;fill:none;stroke:#FFFFFF;stroke-width:0.43;" x2="23.882" y2="-0.001" y1="-73.429"/>
  <line x1="28.202" style="fill-rule:evenodd;clip-rule:evenodd;fill:none;stroke:#FFFFFF;stroke-width:0.43;" x2="28.202" y2="-0.001" y1="-73.429"/>
  <line x1="32.521" style="fill-rule:evenodd;clip-rule:evenodd;fill:none;stroke:#FFFFFF;stroke-width:0.43;" x2="32.521" y2="-0.001" y1="-73.429"/>
  <line x1="36.841" style="fill-rule:evenodd;clip-rule:evenodd;fill:none;stroke:#FFFFFF;stroke-width:0.43;" x2="36.841" y2="-0.001" y1="-73.429"/>
  <line x1="41.161" style="fill-rule:evenodd;clip-rule:evenodd;fill:none;stroke:#FFFFFF;stroke-width:0.43;" x2="41.161" y2="-0.001" y1="-73.429"/>
  <line x1="45.481" style="fill-rule:evenodd;clip-rule:evenodd;fill:none;stroke:#FFFFFF;stroke-width:0.43;" x2="45.481" y2="-0.001" y1="-73.429"/>
  <line x1="49.801" style="fill-rule:evenodd;clip-rule:evenodd;fill:none;stroke:#FFFFFF;stroke-width:0.43;" x2="49.801" y2="-0.001" y1="-73.429"/>
  <line x1="54.121" style="fill-rule:evenodd;clip-rule:evenodd;fill:none;stroke:#FFFFFF;stroke-width:0.43;" x2="54.121" y2="-0.001" y1="-73.429"/>
  <line x1="58.44" style="fill-rule:evenodd;clip-rule:evenodd;fill:none;stroke:#FFFFFF;stroke-width:0.43;" x2="58.44" y2="-0.001" y1="-73.429"/>
  <line x1="62.76" style="fill-rule:evenodd;clip-rule:evenodd;fill:none;stroke:#FFFFFF;stroke-width:0.43;" x2="62.76" y2="-0.001" y1="-73.429"/>
  <line x1="67.08" style="fill-rule:evenodd;clip-rule:evenodd;fill:none;stroke:#FFFFFF;stroke-width:0.43;" x2="67.08" y2="-0.001" y1="-73.429"/>
  <line x1="71.4" style="fill-rule:evenodd;clip-rule:evenodd;fill:none;stroke:#FFFFFF;stroke-width:0.43;" x2="71.4" y2="-0.001" y1="-73.429"/>
 </g>
</svg>
