<?xml version="1.0"?>
<!-- Converted with SVG Converter - Version 0.9.5 (Compiled Fri Feb 21 09:53:38 2020) - Copyright (C) 2011 Nokia -->
<svg xmlns="http://www.w3.org/2000/svg" version="1.1" height="73.428" width="73.428" xmlns:xlink="http://www.w3.org/1999/xlink" viewBox="1 -75.088 73.428 73.428" y="0px" x="0px" xml:space="preserve" baseProfile="tiny">
 <g>
  <rect height="73.428" width="73.428" y="-75.088" x="1" style="fill:none;"/>
  <line y1="-75.088" x2="3.283" x1="3.283" y2="-1.66" style="fill-rule:evenodd;clip-rule:evenodd;fill:none;stroke:#000000;stroke-width:0.33;"/>
  <line y1="-75.088" x2="7.602" x1="7.602" y2="-1.66" style="fill-rule:evenodd;clip-rule:evenodd;fill:none;stroke:#000000;stroke-width:0.33;"/>
  <line y1="-75.088" x2="11.922" x1="11.922" y2="-1.66" style="fill-rule:evenodd;clip-rule:evenodd;fill:none;stroke:#000000;stroke-width:0.33;"/>
  <line y1="-75.088" x2="16.242" x1="16.242" y2="-1.66" style="fill-rule:evenodd;clip-rule:evenodd;fill:none;stroke:#000000;stroke-width:0.33;"/>
  <line y1="-75.088" x2="20.562" x1="20.562" y2="-1.66" style="fill-rule:evenodd;clip-rule:evenodd;fill:none;stroke:#000000;stroke-width:0.33;"/>
  <line y1="-75.088" x2="24.882" x1="24.882" y2="-1.66" style="fill-rule:evenodd;clip-rule:evenodd;fill:none;stroke:#000000;stroke-width:0.33;"/>
  <line y1="-75.088" x2="29.202" x1="29.202" y2="-1.66" style="fill-rule:evenodd;clip-rule:evenodd;fill:none;stroke:#000000;stroke-width:0.33;"/>
  <line y1="-75.088" x2="33.521" x1="33.521" y2="-1.66" style="fill-rule:evenodd;clip-rule:evenodd;fill:none;stroke:#000000;stroke-width:0.33;"/>
  <line y1="-75.088" x2="37.841" x1="37.841" y2="-1.66" style="fill-rule:evenodd;clip-rule:evenodd;fill:none;stroke:#000000;stroke-width:0.33;"/>
  <line y1="-75.088" x2="42.161" x1="42.161" y2="-1.66" style="fill-rule:evenodd;clip-rule:evenodd;fill:none;stroke:#000000;stroke-width:0.33;"/>
  <line y1="-75.088" x2="46.481" x1="46.481" y2="-1.66" style="fill-rule:evenodd;clip-rule:evenodd;fill:none;stroke:#000000;stroke-width:0.33;"/>
  <line y1="-75.088" x2="50.801" x1="50.801" y2="-1.66" style="fill-rule:evenodd;clip-rule:evenodd;fill:none;stroke:#000000;stroke-width:0.33;"/>
  <line y1="-75.088" x2="55.121" x1="55.121" y2="-1.66" style="fill-rule:evenodd;clip-rule:evenodd;fill:none;stroke:#000000;stroke-width:0.33;"/>
  <line y1="-75.088" x2="59.44" x1="59.44" y2="-1.66" style="fill-rule:evenodd;clip-rule:evenodd;fill:none;stroke:#000000;stroke-width:0.33;"/>
  <line y1="-75.088" x2="63.76" x1="63.76" y2="-1.66" style="fill-rule:evenodd;clip-rule:evenodd;fill:none;stroke:#000000;stroke-width:0.33;"/>
  <line y1="-75.088" x2="68.08" x1="68.08" y2="-1.66" style="fill-rule:evenodd;clip-rule:evenodd;fill:none;stroke:#000000;stroke-width:0.33;"/>
  <line y1="-75.088" x2="72.4" x1="72.4" y2="-1.66" style="fill-rule:evenodd;clip-rule:evenodd;fill:none;stroke:#000000;stroke-width:0.33;"/>
  <rect height="73.428" width="73.428" y="-75.088" x="1" style="fill-rule:evenodd;clip-rule:evenodd;fill:none;"/>
 </g>
</svg>
