<?xml version="1.0"?>
<!-- Converted with SVG Converter - Version 0.9.6 (Compiled Thu Aug 31 10:01:05 2017) - Copyright (C) 2011 Nokia -->
<svg xmlns="http://www.w3.org/2000/svg" x="0px" xmlns:xlink="http://www.w3.org/1999/xlink" width="73.428" baseProfile="tiny" y="0px" viewBox="0 -73.428 73.428 73.428" height="73.428" version="1.1" xml:space="preserve">
 <g>
  <rect x="0" style="fill:none;" width="73.428" y="-73.428" height="73.428"/>
  <line x1="2.283" y2="0" style="fill-rule:evenodd;clip-rule:evenodd;fill:none;stroke:#ED1B2E;stroke-width:0.43;" y1="-73.428" x2="2.283"/>
  <line x1="6.602" y2="0" style="fill-rule:evenodd;clip-rule:evenodd;fill:none;stroke:#ED1B2E;stroke-width:0.43;" y1="-73.428" x2="6.602"/>
  <line x1="10.922" y2="0" style="fill-rule:evenodd;clip-rule:evenodd;fill:none;stroke:#ED1B2E;stroke-width:0.43;" y1="-73.428" x2="10.922"/>
  <line x1="15.242" y2="0" style="fill-rule:evenodd;clip-rule:evenodd;fill:none;stroke:#ED1B2E;stroke-width:0.43;" y1="-73.428" x2="15.242"/>
  <line x1="19.562" y2="0" style="fill-rule:evenodd;clip-rule:evenodd;fill:none;stroke:#ED1B2E;stroke-width:0.43;" y1="-73.428" x2="19.562"/>
  <line x1="23.882" y2="0" style="fill-rule:evenodd;clip-rule:evenodd;fill:none;stroke:#ED1B2E;stroke-width:0.43;" y1="-73.428" x2="23.882"/>
  <line x1="28.202" y2="0" style="fill-rule:evenodd;clip-rule:evenodd;fill:none;stroke:#ED1B2E;stroke-width:0.43;" y1="-73.428" x2="28.202"/>
  <line x1="32.521" y2="0" style="fill-rule:evenodd;clip-rule:evenodd;fill:none;stroke:#ED1B2E;stroke-width:0.43;" y1="-73.428" x2="32.521"/>
  <line x1="36.841" y2="0" style="fill-rule:evenodd;clip-rule:evenodd;fill:none;stroke:#ED1B2E;stroke-width:0.43;" y1="-73.428" x2="36.841"/>
  <line x1="41.161" y2="0" style="fill-rule:evenodd;clip-rule:evenodd;fill:none;stroke:#ED1B2E;stroke-width:0.43;" y1="-73.428" x2="41.161"/>
  <line x1="45.481" y2="0" style="fill-rule:evenodd;clip-rule:evenodd;fill:none;stroke:#ED1B2E;stroke-width:0.43;" y1="-73.428" x2="45.481"/>
  <line x1="49.801" y2="0" style="fill-rule:evenodd;clip-rule:evenodd;fill:none;stroke:#ED1B2E;stroke-width:0.43;" y1="-73.428" x2="49.801"/>
  <line x1="54.121" y2="0" style="fill-rule:evenodd;clip-rule:evenodd;fill:none;stroke:#ED1B2E;stroke-width:0.43;" y1="-73.428" x2="54.121"/>
  <line x1="58.44" y2="0" style="fill-rule:evenodd;clip-rule:evenodd;fill:none;stroke:#ED1B2E;stroke-width:0.43;" y1="-73.428" x2="58.44"/>
  <line x1="62.76" y2="0" style="fill-rule:evenodd;clip-rule:evenodd;fill:none;stroke:#ED1B2E;stroke-width:0.43;" y1="-73.428" x2="62.76"/>
  <line x1="67.08" y2="0" style="fill-rule:evenodd;clip-rule:evenodd;fill:none;stroke:#ED1B2E;stroke-width:0.43;" y1="-73.428" x2="67.08"/>
  <line x1="71.4" y2="0" style="fill-rule:evenodd;clip-rule:evenodd;fill:none;stroke:#ED1B2E;stroke-width:0.43;" y1="-73.428" x2="71.4"/>
  <rect style="fill-rule:evenodd;clip-rule:evenodd;fill:none;" width="73.428" y="-73.428" height="73.428"/>
 </g>
</svg>
