<?xml version="1.0"?>
<!-- Converted with SVG Converter - Version 0.9.6 (Compiled Thu Aug 31 10:01:05 2017) - Copyright (C) 2011 Nokia -->
<svg xmlns="http://www.w3.org/2000/svg" width="73.428" height="73.428" viewBox="0 -73.428 73.428 73.428" xmlns:xlink="http://www.w3.org/1999/xlink" baseProfile="tiny" version="1.1" x="0px" xml:space="preserve" y="0px">
 <g>
  <rect width="73.428" height="73.428" x="0" style="fill:none;" y="-73.428"/>
  <line x2="2.283" x1="2.283" style="fill-rule:evenodd;clip-rule:evenodd;fill:none;stroke:#00AEEF;stroke-width:0.43;" y1="-73.428" y2="0"/>
  <line x2="6.602" x1="6.602" style="fill-rule:evenodd;clip-rule:evenodd;fill:none;stroke:#00AEEF;stroke-width:0.43;" y1="-73.428" y2="0"/>
  <line x2="10.922" x1="10.922" style="fill-rule:evenodd;clip-rule:evenodd;fill:none;stroke:#00AEEF;stroke-width:0.43;" y1="-73.428" y2="0"/>
  <line x2="15.242" x1="15.242" style="fill-rule:evenodd;clip-rule:evenodd;fill:none;stroke:#00AEEF;stroke-width:0.43;" y1="-73.428" y2="0"/>
  <line x2="19.562" x1="19.562" style="fill-rule:evenodd;clip-rule:evenodd;fill:none;stroke:#00AEEF;stroke-width:0.43;" y1="-73.428" y2="0"/>
  <line x2="23.882" x1="23.882" style="fill-rule:evenodd;clip-rule:evenodd;fill:none;stroke:#00AEEF;stroke-width:0.43;" y1="-73.428" y2="0"/>
  <line x2="28.202" x1="28.202" style="fill-rule:evenodd;clip-rule:evenodd;fill:none;stroke:#00AEEF;stroke-width:0.43;" y1="-73.428" y2="0"/>
  <line x2="32.521" x1="32.521" style="fill-rule:evenodd;clip-rule:evenodd;fill:none;stroke:#00AEEF;stroke-width:0.43;" y1="-73.428" y2="0"/>
  <line x2="36.841" x1="36.841" style="fill-rule:evenodd;clip-rule:evenodd;fill:none;stroke:#00AEEF;stroke-width:0.43;" y1="-73.428" y2="0"/>
  <line x2="41.161" x1="41.161" style="fill-rule:evenodd;clip-rule:evenodd;fill:none;stroke:#00AEEF;stroke-width:0.43;" y1="-73.428" y2="0"/>
  <line x2="45.481" x1="45.481" style="fill-rule:evenodd;clip-rule:evenodd;fill:none;stroke:#00AEEF;stroke-width:0.43;" y1="-73.428" y2="0"/>
  <line x2="49.801" x1="49.801" style="fill-rule:evenodd;clip-rule:evenodd;fill:none;stroke:#00AEEF;stroke-width:0.43;" y1="-73.428" y2="0"/>
  <line x2="54.121" x1="54.121" style="fill-rule:evenodd;clip-rule:evenodd;fill:none;stroke:#00AEEF;stroke-width:0.43;" y1="-73.428" y2="0"/>
  <line x2="58.44" x1="58.44" style="fill-rule:evenodd;clip-rule:evenodd;fill:none;stroke:#00AEEF;stroke-width:0.43;" y1="-73.428" y2="0"/>
  <line x2="62.76" x1="62.76" style="fill-rule:evenodd;clip-rule:evenodd;fill:none;stroke:#00AEEF;stroke-width:0.43;" y1="-73.428" y2="0"/>
  <line x2="67.08" x1="67.08" style="fill-rule:evenodd;clip-rule:evenodd;fill:none;stroke:#00AEEF;stroke-width:0.43;" y1="-73.428" y2="0"/>
  <line x2="71.4" x1="71.4" style="fill-rule:evenodd;clip-rule:evenodd;fill:none;stroke:#00AEEF;stroke-width:0.43;" y1="-73.428" y2="0"/>
  <rect width="73.428" height="73.428" style="fill-rule:evenodd;clip-rule:evenodd;fill:none;" y="-73.428"/>
 </g>
</svg>
