<?xml version="1.0"?>
<!-- Converted with SVG Converter - Version 0.9.5 (Compiled Fri Feb 21 09:53:38 2020) - Copyright (C) 2011 Nokia -->
<svg xmlns="http://www.w3.org/2000/svg" baseProfile="tiny" version="1.1" xml:space="preserve" width="73.428" xmlns:xlink="http://www.w3.org/1999/xlink" x="0px" y="0px" viewBox="0 -73.428 73.428 73.428" height="73.428">
 <g>
  <rect style="fill:none;" width="73.428" x="0" y="-73.428" height="73.428"/>
  <line style="fill-rule:evenodd;clip-rule:evenodd;fill:none;stroke:#EC008C;stroke-width:0.43;" y2="0" x2="2.283" y1="-73.428" x1="2.283"/>
  <line style="fill-rule:evenodd;clip-rule:evenodd;fill:none;stroke:#EC008C;stroke-width:0.43;" y2="0" x2="6.602" y1="-73.428" x1="6.602"/>
  <line style="fill-rule:evenodd;clip-rule:evenodd;fill:none;stroke:#EC008C;stroke-width:0.43;" y2="0" x2="10.922" y1="-73.428" x1="10.922"/>
  <line style="fill-rule:evenodd;clip-rule:evenodd;fill:none;stroke:#EC008C;stroke-width:0.43;" y2="0" x2="15.242" y1="-73.428" x1="15.242"/>
  <line style="fill-rule:evenodd;clip-rule:evenodd;fill:none;stroke:#EC008C;stroke-width:0.43;" y2="0" x2="19.562" y1="-73.428" x1="19.562"/>
  <line style="fill-rule:evenodd;clip-rule:evenodd;fill:none;stroke:#EC008C;stroke-width:0.43;" y2="0" x2="23.882" y1="-73.428" x1="23.882"/>
  <line style="fill-rule:evenodd;clip-rule:evenodd;fill:none;stroke:#EC008C;stroke-width:0.43;" y2="0" x2="28.202" y1="-73.428" x1="28.202"/>
  <line style="fill-rule:evenodd;clip-rule:evenodd;fill:none;stroke:#EC008C;stroke-width:0.43;" y2="0" x2="32.521" y1="-73.428" x1="32.521"/>
  <line style="fill-rule:evenodd;clip-rule:evenodd;fill:none;stroke:#EC008C;stroke-width:0.43;" y2="0" x2="36.841" y1="-73.428" x1="36.841"/>
  <line style="fill-rule:evenodd;clip-rule:evenodd;fill:none;stroke:#EC008C;stroke-width:0.43;" y2="0" x2="41.161" y1="-73.428" x1="41.161"/>
  <line style="fill-rule:evenodd;clip-rule:evenodd;fill:none;stroke:#EC008C;stroke-width:0.43;" y2="0" x2="45.481" y1="-73.428" x1="45.481"/>
  <line style="fill-rule:evenodd;clip-rule:evenodd;fill:none;stroke:#EC008C;stroke-width:0.43;" y2="0" x2="49.801" y1="-73.428" x1="49.801"/>
  <line style="fill-rule:evenodd;clip-rule:evenodd;fill:none;stroke:#EC008C;stroke-width:0.43;" y2="0" x2="54.121" y1="-73.428" x1="54.121"/>
  <line style="fill-rule:evenodd;clip-rule:evenodd;fill:none;stroke:#EC008C;stroke-width:0.43;" y2="0" x2="58.44" y1="-73.428" x1="58.44"/>
  <line style="fill-rule:evenodd;clip-rule:evenodd;fill:none;stroke:#EC008C;stroke-width:0.43;" y2="0" x2="62.76" y1="-73.428" x1="62.76"/>
  <line style="fill-rule:evenodd;clip-rule:evenodd;fill:none;stroke:#EC008C;stroke-width:0.43;" y2="0" x2="67.08" y1="-73.428" x1="67.08"/>
  <line style="fill-rule:evenodd;clip-rule:evenodd;fill:none;stroke:#EC008C;stroke-width:0.43;" y2="0" x2="71.4" y1="-73.428" x1="71.4"/>
  <rect style="fill-rule:evenodd;clip-rule:evenodd;fill:none;" width="73.428" y="-73.428" height="73.428"/>
 </g>
</svg>
