<?xml version="1.0"?>
<!-- Converted with SVG Converter - Version 0.9.5 (Compiled Fri Feb 21 09:53:38 2020) - Copyright (C) 2011 Nokia -->
<svg xmlns="http://www.w3.org/2000/svg" version="1.1" x="0px" baseProfile="tiny" y="0px" xmlns:xlink="http://www.w3.org/1999/xlink" width="73.428" viewBox="1 -75.088 73.428 73.428" height="73.428" xml:space="preserve">
 <g>
  <rect x="1" y="-75.088" width="73.428" height="73.428" style="fill:none;"/>
  <line x1="3.283" y1="-75.088" y2="-1.66" x2="3.283" style="fill-rule:evenodd;clip-rule:evenodd;fill:none;stroke:#000000;stroke-width:0.33;"/>
  <line x1="7.602" y1="-75.088" y2="-1.66" x2="7.602" style="fill-rule:evenodd;clip-rule:evenodd;fill:none;stroke:#000000;stroke-width:0.33;"/>
  <line x1="11.922" y1="-75.088" y2="-1.66" x2="11.922" style="fill-rule:evenodd;clip-rule:evenodd;fill:none;stroke:#000000;stroke-width:0.33;"/>
  <line x1="16.242" y1="-75.088" y2="-1.66" x2="16.242" style="fill-rule:evenodd;clip-rule:evenodd;fill:none;stroke:#000000;stroke-width:0.33;"/>
  <line x1="20.562" y1="-75.088" y2="-1.66" x2="20.562" style="fill-rule:evenodd;clip-rule:evenodd;fill:none;stroke:#000000;stroke-width:0.33;"/>
  <line x1="24.882" y1="-75.088" y2="-1.66" x2="24.882" style="fill-rule:evenodd;clip-rule:evenodd;fill:none;stroke:#000000;stroke-width:0.33;"/>
  <line x1="29.202" y1="-75.088" y2="-1.66" x2="29.202" style="fill-rule:evenodd;clip-rule:evenodd;fill:none;stroke:#000000;stroke-width:0.33;"/>
  <line x1="33.521" y1="-75.088" y2="-1.66" x2="33.521" style="fill-rule:evenodd;clip-rule:evenodd;fill:none;stroke:#000000;stroke-width:0.33;"/>
  <line x1="37.841" y1="-75.088" y2="-1.66" x2="37.841" style="fill-rule:evenodd;clip-rule:evenodd;fill:none;stroke:#000000;stroke-width:0.33;"/>
  <line x1="42.161" y1="-75.088" y2="-1.66" x2="42.161" style="fill-rule:evenodd;clip-rule:evenodd;fill:none;stroke:#000000;stroke-width:0.33;"/>
  <line x1="46.481" y1="-75.088" y2="-1.66" x2="46.481" style="fill-rule:evenodd;clip-rule:evenodd;fill:none;stroke:#000000;stroke-width:0.33;"/>
  <line x1="50.801" y1="-75.088" y2="-1.66" x2="50.801" style="fill-rule:evenodd;clip-rule:evenodd;fill:none;stroke:#000000;stroke-width:0.33;"/>
  <line x1="55.121" y1="-75.088" y2="-1.66" x2="55.121" style="fill-rule:evenodd;clip-rule:evenodd;fill:none;stroke:#000000;stroke-width:0.33;"/>
  <line x1="59.44" y1="-75.088" y2="-1.66" x2="59.44" style="fill-rule:evenodd;clip-rule:evenodd;fill:none;stroke:#000000;stroke-width:0.33;"/>
  <line x1="63.76" y1="-75.088" y2="-1.66" x2="63.76" style="fill-rule:evenodd;clip-rule:evenodd;fill:none;stroke:#000000;stroke-width:0.33;"/>
  <line x1="68.08" y1="-75.088" y2="-1.66" x2="68.08" style="fill-rule:evenodd;clip-rule:evenodd;fill:none;stroke:#000000;stroke-width:0.33;"/>
  <line x1="72.4" y1="-75.088" y2="-1.66" x2="72.4" style="fill-rule:evenodd;clip-rule:evenodd;fill:none;stroke:#000000;stroke-width:0.33;"/>
  <rect x="1" y="-75.088" width="73.428" height="73.428" style="fill-rule:evenodd;clip-rule:evenodd;fill:none;"/>
 </g>
</svg>
