<?xml version="1.0"?>
<!-- Converted with SVG Converter - Version 0.9.5 (Compiled Fri Feb 21 09:53:38 2020) - Copyright (C) 2011 Nokia -->
<svg xmlns="http://www.w3.org/2000/svg" xmlns:xlink="http://www.w3.org/1999/xlink" viewBox="0 -80.646 80.646 80.646" x="0px" width="80.646" version="1.1" xml:space="preserve" baseProfile="tiny" height="80.646" y="0px">
 <g>
  <rect x="0" style="fill:none;" width="80.646" height="80.646" y="-80.646"/>
  <line y1="-80.646" x1="1.843" style="fill-rule:evenodd;clip-rule:evenodd;fill:none;stroke:#00AEEF;stroke-width:0.58;" x2="1.843" y2="-77.967"/>
  <line y1="-2.529" x1="1.843" style="fill-rule:evenodd;clip-rule:evenodd;fill:none;stroke:#00AEEF;stroke-width:0.58;" x2="1.843" y2="0"/>
  <line y1="-80.646" x1="7.602" style="fill-rule:evenodd;clip-rule:evenodd;fill:none;stroke:#00AEEF;stroke-width:0.58;" x2="7.602" y2="-77.967"/>
  <line y1="-2.529" x1="7.602" style="fill-rule:evenodd;clip-rule:evenodd;fill:none;stroke:#00AEEF;stroke-width:0.58;" x2="7.602" y2="0"/>
  <line y1="-80.646" x1="13.361" style="fill-rule:evenodd;clip-rule:evenodd;fill:none;stroke:#00AEEF;stroke-width:0.58;" x2="13.361" y2="-77.967"/>
  <line y1="-2.529" x1="13.361" style="fill-rule:evenodd;clip-rule:evenodd;fill:none;stroke:#00AEEF;stroke-width:0.58;" x2="13.361" y2="0"/>
  <line y1="-80.646" x1="19.12" style="fill-rule:evenodd;clip-rule:evenodd;fill:none;stroke:#00AEEF;stroke-width:0.58;" x2="19.12" y2="-77.967"/>
  <line y1="-2.529" x1="19.12" style="fill-rule:evenodd;clip-rule:evenodd;fill:none;stroke:#00AEEF;stroke-width:0.58;" x2="19.12" y2="0"/>
  <line y1="-80.646" x1="24.879" style="fill-rule:evenodd;clip-rule:evenodd;fill:none;stroke:#00AEEF;stroke-width:0.58;" x2="24.879" y2="-77.967"/>
  <line y1="-2.529" x1="24.879" style="fill-rule:evenodd;clip-rule:evenodd;fill:none;stroke:#00AEEF;stroke-width:0.58;" x2="24.879" y2="0"/>
  <line y1="-80.646" x1="30.638" style="fill-rule:evenodd;clip-rule:evenodd;fill:none;stroke:#00AEEF;stroke-width:0.58;" x2="30.638" y2="-77.967"/>
  <line y1="-2.529" x1="30.638" style="fill-rule:evenodd;clip-rule:evenodd;fill:none;stroke:#00AEEF;stroke-width:0.58;" x2="30.638" y2="0"/>
  <line y1="-80.646" x1="36.397" style="fill-rule:evenodd;clip-rule:evenodd;fill:none;stroke:#00AEEF;stroke-width:0.58;" x2="36.397" y2="-77.967"/>
  <line y1="-2.529" x1="36.397" style="fill-rule:evenodd;clip-rule:evenodd;fill:none;stroke:#00AEEF;stroke-width:0.58;" x2="36.397" y2="0"/>
  <line y1="-80.646" x1="42.156" style="fill-rule:evenodd;clip-rule:evenodd;fill:none;stroke:#00AEEF;stroke-width:0.58;" x2="42.156" y2="-77.967"/>
  <line y1="-2.529" x1="42.156" style="fill-rule:evenodd;clip-rule:evenodd;fill:none;stroke:#00AEEF;stroke-width:0.58;" x2="42.156" y2="0"/>
  <line y1="-80.646" x1="47.915" style="fill-rule:evenodd;clip-rule:evenodd;fill:none;stroke:#00AEEF;stroke-width:0.58;" x2="47.915" y2="-77.967"/>
  <line y1="-2.529" x1="47.915" style="fill-rule:evenodd;clip-rule:evenodd;fill:none;stroke:#00AEEF;stroke-width:0.58;" x2="47.915" y2="0"/>
  <line y1="-80.646" x1="53.674" style="fill-rule:evenodd;clip-rule:evenodd;fill:none;stroke:#00AEEF;stroke-width:0.58;" x2="53.674" y2="-77.967"/>
  <line y1="-2.529" x1="53.674" style="fill-rule:evenodd;clip-rule:evenodd;fill:none;stroke:#00AEEF;stroke-width:0.58;" x2="53.674" y2="0"/>
  <line y1="-80.646" x1="59.433" style="fill-rule:evenodd;clip-rule:evenodd;fill:none;stroke:#00AEEF;stroke-width:0.58;" x2="59.433" y2="-77.967"/>
  <line y1="-2.529" x1="59.433" style="fill-rule:evenodd;clip-rule:evenodd;fill:none;stroke:#00AEEF;stroke-width:0.58;" x2="59.433" y2="0"/>
  <line y1="-80.646" x1="65.192" style="fill-rule:evenodd;clip-rule:evenodd;fill:none;stroke:#00AEEF;stroke-width:0.58;" x2="65.192" y2="-77.967"/>
  <line y1="-2.529" x1="65.192" style="fill-rule:evenodd;clip-rule:evenodd;fill:none;stroke:#00AEEF;stroke-width:0.58;" x2="65.192" y2="0"/>
  <line y1="-80.646" x1="70.951" style="fill-rule:evenodd;clip-rule:evenodd;fill:none;stroke:#00AEEF;stroke-width:0.58;" x2="70.951" y2="-77.967"/>
  <line y1="-2.529" x1="70.951" style="fill-rule:evenodd;clip-rule:evenodd;fill:none;stroke:#00AEEF;stroke-width:0.58;" x2="70.951" y2="0"/>
  <line y1="-80.646" x1="76.71" style="fill-rule:evenodd;clip-rule:evenodd;fill:none;stroke:#00AEEF;stroke-width:0.58;" x2="76.71" y2="-77.967"/>
  <line y1="-2.529" x1="76.71" style="fill-rule:evenodd;clip-rule:evenodd;fill:none;stroke:#00AEEF;stroke-width:0.58;" x2="76.71" y2="0"/>
  <line y1="-74.53" x1="1.843" style="fill-rule:evenodd;clip-rule:evenodd;fill:none;stroke:#00AEEF;stroke-width:0.58;" x2="1.843" y2="-68.967"/>
  <line y1="-65.53" x1="1.843" style="fill-rule:evenodd;clip-rule:evenodd;fill:none;stroke:#00AEEF;stroke-width:0.58;" x2="1.843" y2="-59.967"/>
  <line y1="-56.53" x1="1.843" style="fill-rule:evenodd;clip-rule:evenodd;fill:none;stroke:#00AEEF;stroke-width:0.58;" x2="1.843" y2="-50.967"/>
  <line y1="-47.53" x1="1.843" style="fill-rule:evenodd;clip-rule:evenodd;fill:none;stroke:#00AEEF;stroke-width:0.58;" x2="1.843" y2="-41.967"/>
  <line y1="-38.53" x1="1.843" style="fill-rule:evenodd;clip-rule:evenodd;fill:none;stroke:#00AEEF;stroke-width:0.58;" x2="1.843" y2="-32.967"/>
  <line y1="-29.529" x1="1.843" style="fill-rule:evenodd;clip-rule:evenodd;fill:none;stroke:#00AEEF;stroke-width:0.58;" x2="1.843" y2="-23.967"/>
  <line y1="-20.529" x1="1.843" style="fill-rule:evenodd;clip-rule:evenodd;fill:none;stroke:#00AEEF;stroke-width:0.58;" x2="1.843" y2="-14.967"/>
  <line y1="-11.529" x1="1.843" style="fill-rule:evenodd;clip-rule:evenodd;fill:none;stroke:#00AEEF;stroke-width:0.58;" x2="1.843" y2="-5.967"/>
  <line y1="-74.53" x1="7.602" style="fill-rule:evenodd;clip-rule:evenodd;fill:none;stroke:#00AEEF;stroke-width:0.58;" x2="7.602" y2="-68.967"/>
  <line y1="-65.53" x1="7.602" style="fill-rule:evenodd;clip-rule:evenodd;fill:none;stroke:#00AEEF;stroke-width:0.58;" x2="7.602" y2="-59.967"/>
  <line y1="-56.53" x1="7.602" style="fill-rule:evenodd;clip-rule:evenodd;fill:none;stroke:#00AEEF;stroke-width:0.58;" x2="7.602" y2="-50.967"/>
  <line y1="-47.53" x1="7.602" style="fill-rule:evenodd;clip-rule:evenodd;fill:none;stroke:#00AEEF;stroke-width:0.58;" x2="7.602" y2="-41.967"/>
  <line y1="-38.53" x1="7.602" style="fill-rule:evenodd;clip-rule:evenodd;fill:none;stroke:#00AEEF;stroke-width:0.58;" x2="7.602" y2="-32.967"/>
  <line y1="-29.529" x1="7.602" style="fill-rule:evenodd;clip-rule:evenodd;fill:none;stroke:#00AEEF;stroke-width:0.58;" x2="7.602" y2="-23.967"/>
  <line y1="-20.529" x1="7.602" style="fill-rule:evenodd;clip-rule:evenodd;fill:none;stroke:#00AEEF;stroke-width:0.58;" x2="7.602" y2="-14.967"/>
  <line y1="-11.529" x1="7.602" style="fill-rule:evenodd;clip-rule:evenodd;fill:none;stroke:#00AEEF;stroke-width:0.58;" x2="7.602" y2="-5.967"/>
  <line y1="-74.53" x1="13.361" style="fill-rule:evenodd;clip-rule:evenodd;fill:none;stroke:#00AEEF;stroke-width:0.58;" x2="13.361" y2="-68.967"/>
  <line y1="-65.53" x1="13.361" style="fill-rule:evenodd;clip-rule:evenodd;fill:none;stroke:#00AEEF;stroke-width:0.58;" x2="13.361" y2="-59.967"/>
  <line y1="-56.53" x1="13.361" style="fill-rule:evenodd;clip-rule:evenodd;fill:none;stroke:#00AEEF;stroke-width:0.58;" x2="13.361" y2="-50.967"/>
  <line y1="-47.53" x1="13.361" style="fill-rule:evenodd;clip-rule:evenodd;fill:none;stroke:#00AEEF;stroke-width:0.58;" x2="13.361" y2="-41.967"/>
  <line y1="-38.53" x1="13.361" style="fill-rule:evenodd;clip-rule:evenodd;fill:none;stroke:#00AEEF;stroke-width:0.58;" x2="13.361" y2="-32.967"/>
  <line y1="-29.529" x1="13.361" style="fill-rule:evenodd;clip-rule:evenodd;fill:none;stroke:#00AEEF;stroke-width:0.58;" x2="13.361" y2="-23.967"/>
  <line y1="-20.529" x1="13.361" style="fill-rule:evenodd;clip-rule:evenodd;fill:none;stroke:#00AEEF;stroke-width:0.58;" x2="13.361" y2="-14.967"/>
  <line y1="-11.529" x1="13.361" style="fill-rule:evenodd;clip-rule:evenodd;fill:none;stroke:#00AEEF;stroke-width:0.58;" x2="13.361" y2="-5.967"/>
  <line y1="-74.53" x1="19.12" style="fill-rule:evenodd;clip-rule:evenodd;fill:none;stroke:#00AEEF;stroke-width:0.58;" x2="19.12" y2="-68.967"/>
  <line y1="-65.53" x1="19.12" style="fill-rule:evenodd;clip-rule:evenodd;fill:none;stroke:#00AEEF;stroke-width:0.58;" x2="19.12" y2="-59.967"/>
  <line y1="-56.53" x1="19.12" style="fill-rule:evenodd;clip-rule:evenodd;fill:none;stroke:#00AEEF;stroke-width:0.58;" x2="19.12" y2="-50.967"/>
  <line y1="-47.53" x1="19.12" style="fill-rule:evenodd;clip-rule:evenodd;fill:none;stroke:#00AEEF;stroke-width:0.58;" x2="19.12" y2="-41.967"/>
  <line y1="-38.53" x1="19.12" style="fill-rule:evenodd;clip-rule:evenodd;fill:none;stroke:#00AEEF;stroke-width:0.58;" x2="19.12" y2="-32.967"/>
  <line y1="-29.529" x1="19.12" style="fill-rule:evenodd;clip-rule:evenodd;fill:none;stroke:#00AEEF;stroke-width:0.58;" x2="19.12" y2="-23.967"/>
  <line y1="-20.529" x1="19.12" style="fill-rule:evenodd;clip-rule:evenodd;fill:none;stroke:#00AEEF;stroke-width:0.58;" x2="19.12" y2="-14.967"/>
  <line y1="-11.529" x1="19.12" style="fill-rule:evenodd;clip-rule:evenodd;fill:none;stroke:#00AEEF;stroke-width:0.58;" x2="19.12" y2="-5.967"/>
  <line y1="-74.53" x1="24.879" style="fill-rule:evenodd;clip-rule:evenodd;fill:none;stroke:#00AEEF;stroke-width:0.58;" x2="24.879" y2="-68.967"/>
  <line y1="-65.53" x1="24.879" style="fill-rule:evenodd;clip-rule:evenodd;fill:none;stroke:#00AEEF;stroke-width:0.58;" x2="24.879" y2="-59.967"/>
  <line y1="-56.53" x1="24.879" style="fill-rule:evenodd;clip-rule:evenodd;fill:none;stroke:#00AEEF;stroke-width:0.58;" x2="24.879" y2="-50.967"/>
  <line y1="-47.53" x1="24.879" style="fill-rule:evenodd;clip-rule:evenodd;fill:none;stroke:#00AEEF;stroke-width:0.58;" x2="24.879" y2="-41.967"/>
  <line y1="-38.53" x1="24.879" style="fill-rule:evenodd;clip-rule:evenodd;fill:none;stroke:#00AEEF;stroke-width:0.58;" x2="24.879" y2="-32.967"/>
  <line y1="-29.529" x1="24.879" style="fill-rule:evenodd;clip-rule:evenodd;fill:none;stroke:#00AEEF;stroke-width:0.58;" x2="24.879" y2="-23.967"/>
  <line y1="-20.529" x1="24.879" style="fill-rule:evenodd;clip-rule:evenodd;fill:none;stroke:#00AEEF;stroke-width:0.58;" x2="24.879" y2="-14.967"/>
  <line y1="-11.529" x1="24.879" style="fill-rule:evenodd;clip-rule:evenodd;fill:none;stroke:#00AEEF;stroke-width:0.58;" x2="24.879" y2="-5.967"/>
  <line y1="-74.53" x1="30.638" style="fill-rule:evenodd;clip-rule:evenodd;fill:none;stroke:#00AEEF;stroke-width:0.58;" x2="30.638" y2="-68.967"/>
  <line y1="-65.53" x1="30.638" style="fill-rule:evenodd;clip-rule:evenodd;fill:none;stroke:#00AEEF;stroke-width:0.58;" x2="30.638" y2="-59.967"/>
  <line y1="-56.53" x1="30.638" style="fill-rule:evenodd;clip-rule:evenodd;fill:none;stroke:#00AEEF;stroke-width:0.58;" x2="30.638" y2="-50.967"/>
  <line y1="-47.53" x1="30.638" style="fill-rule:evenodd;clip-rule:evenodd;fill:none;stroke:#00AEEF;stroke-width:0.58;" x2="30.638" y2="-41.967"/>
  <line y1="-38.53" x1="30.638" style="fill-rule:evenodd;clip-rule:evenodd;fill:none;stroke:#00AEEF;stroke-width:0.58;" x2="30.638" y2="-32.967"/>
  <line y1="-29.529" x1="30.638" style="fill-rule:evenodd;clip-rule:evenodd;fill:none;stroke:#00AEEF;stroke-width:0.58;" x2="30.638" y2="-23.967"/>
  <line y1="-20.529" x1="30.638" style="fill-rule:evenodd;clip-rule:evenodd;fill:none;stroke:#00AEEF;stroke-width:0.58;" x2="30.638" y2="-14.967"/>
  <line y1="-11.529" x1="30.638" style="fill-rule:evenodd;clip-rule:evenodd;fill:none;stroke:#00AEEF;stroke-width:0.58;" x2="30.638" y2="-5.967"/>
  <line y1="-74.53" x1="36.397" style="fill-rule:evenodd;clip-rule:evenodd;fill:none;stroke:#00AEEF;stroke-width:0.58;" x2="36.397" y2="-68.967"/>
  <line y1="-65.53" x1="36.397" style="fill-rule:evenodd;clip-rule:evenodd;fill:none;stroke:#00AEEF;stroke-width:0.58;" x2="36.397" y2="-59.967"/>
  <line y1="-56.53" x1="36.397" style="fill-rule:evenodd;clip-rule:evenodd;fill:none;stroke:#00AEEF;stroke-width:0.58;" x2="36.397" y2="-50.967"/>
  <line y1="-47.53" x1="36.397" style="fill-rule:evenodd;clip-rule:evenodd;fill:none;stroke:#00AEEF;stroke-width:0.58;" x2="36.397" y2="-41.967"/>
  <line y1="-38.53" x1="36.397" style="fill-rule:evenodd;clip-rule:evenodd;fill:none;stroke:#00AEEF;stroke-width:0.58;" x2="36.397" y2="-32.967"/>
  <line y1="-29.529" x1="36.397" style="fill-rule:evenodd;clip-rule:evenodd;fill:none;stroke:#00AEEF;stroke-width:0.58;" x2="36.397" y2="-23.967"/>
  <line y1="-20.529" x1="36.397" style="fill-rule:evenodd;clip-rule:evenodd;fill:none;stroke:#00AEEF;stroke-width:0.58;" x2="36.397" y2="-14.967"/>
  <line y1="-11.529" x1="36.397" style="fill-rule:evenodd;clip-rule:evenodd;fill:none;stroke:#00AEEF;stroke-width:0.58;" x2="36.397" y2="-5.967"/>
  <line y1="-74.53" x1="42.156" style="fill-rule:evenodd;clip-rule:evenodd;fill:none;stroke:#00AEEF;stroke-width:0.58;" x2="42.156" y2="-68.967"/>
  <line y1="-65.53" x1="42.156" style="fill-rule:evenodd;clip-rule:evenodd;fill:none;stroke:#00AEEF;stroke-width:0.58;" x2="42.156" y2="-59.967"/>
  <line y1="-56.53" x1="42.156" style="fill-rule:evenodd;clip-rule:evenodd;fill:none;stroke:#00AEEF;stroke-width:0.58;" x2="42.156" y2="-50.967"/>
  <line y1="-47.53" x1="42.156" style="fill-rule:evenodd;clip-rule:evenodd;fill:none;stroke:#00AEEF;stroke-width:0.58;" x2="42.156" y2="-41.967"/>
  <line y1="-38.53" x1="42.156" style="fill-rule:evenodd;clip-rule:evenodd;fill:none;stroke:#00AEEF;stroke-width:0.58;" x2="42.156" y2="-32.967"/>
  <line y1="-29.529" x1="42.156" style="fill-rule:evenodd;clip-rule:evenodd;fill:none;stroke:#00AEEF;stroke-width:0.58;" x2="42.156" y2="-23.967"/>
  <line y1="-20.529" x1="42.156" style="fill-rule:evenodd;clip-rule:evenodd;fill:none;stroke:#00AEEF;stroke-width:0.58;" x2="42.156" y2="-14.967"/>
  <line y1="-11.529" x1="42.156" style="fill-rule:evenodd;clip-rule:evenodd;fill:none;stroke:#00AEEF;stroke-width:0.58;" x2="42.156" y2="-5.967"/>
  <line y1="-74.53" x1="47.915" style="fill-rule:evenodd;clip-rule:evenodd;fill:none;stroke:#00AEEF;stroke-width:0.58;" x2="47.915" y2="-68.967"/>
  <line y1="-65.53" x1="47.915" style="fill-rule:evenodd;clip-rule:evenodd;fill:none;stroke:#00AEEF;stroke-width:0.58;" x2="47.915" y2="-59.967"/>
  <line y1="-56.53" x1="47.915" style="fill-rule:evenodd;clip-rule:evenodd;fill:none;stroke:#00AEEF;stroke-width:0.58;" x2="47.915" y2="-50.967"/>
  <line y1="-47.53" x1="47.915" style="fill-rule:evenodd;clip-rule:evenodd;fill:none;stroke:#00AEEF;stroke-width:0.58;" x2="47.915" y2="-41.967"/>
  <line y1="-38.53" x1="47.915" style="fill-rule:evenodd;clip-rule:evenodd;fill:none;stroke:#00AEEF;stroke-width:0.58;" x2="47.915" y2="-32.967"/>
  <line y1="-29.529" x1="47.915" style="fill-rule:evenodd;clip-rule:evenodd;fill:none;stroke:#00AEEF;stroke-width:0.58;" x2="47.915" y2="-23.967"/>
  <line y1="-20.529" x1="47.915" style="fill-rule:evenodd;clip-rule:evenodd;fill:none;stroke:#00AEEF;stroke-width:0.58;" x2="47.915" y2="-14.967"/>
  <line y1="-11.529" x1="47.915" style="fill-rule:evenodd;clip-rule:evenodd;fill:none;stroke:#00AEEF;stroke-width:0.58;" x2="47.915" y2="-5.967"/>
  <line y1="-74.53" x1="53.674" style="fill-rule:evenodd;clip-rule:evenodd;fill:none;stroke:#00AEEF;stroke-width:0.58;" x2="53.674" y2="-68.967"/>
  <line y1="-65.53" x1="53.674" style="fill-rule:evenodd;clip-rule:evenodd;fill:none;stroke:#00AEEF;stroke-width:0.58;" x2="53.674" y2="-59.967"/>
  <line y1="-56.53" x1="53.674" style="fill-rule:evenodd;clip-rule:evenodd;fill:none;stroke:#00AEEF;stroke-width:0.58;" x2="53.674" y2="-50.967"/>
  <line y1="-47.53" x1="53.674" style="fill-rule:evenodd;clip-rule:evenodd;fill:none;stroke:#00AEEF;stroke-width:0.58;" x2="53.674" y2="-41.967"/>
  <line y1="-38.53" x1="53.674" style="fill-rule:evenodd;clip-rule:evenodd;fill:none;stroke:#00AEEF;stroke-width:0.58;" x2="53.674" y2="-32.967"/>
  <line y1="-29.529" x1="53.674" style="fill-rule:evenodd;clip-rule:evenodd;fill:none;stroke:#00AEEF;stroke-width:0.58;" x2="53.674" y2="-23.967"/>
  <line y1="-20.529" x1="53.674" style="fill-rule:evenodd;clip-rule:evenodd;fill:none;stroke:#00AEEF;stroke-width:0.58;" x2="53.674" y2="-14.967"/>
  <line y1="-11.529" x1="53.674" style="fill-rule:evenodd;clip-rule:evenodd;fill:none;stroke:#00AEEF;stroke-width:0.58;" x2="53.674" y2="-5.967"/>
  <line y1="-74.53" x1="59.433" style="fill-rule:evenodd;clip-rule:evenodd;fill:none;stroke:#00AEEF;stroke-width:0.58;" x2="59.433" y2="-68.967"/>
  <line y1="-65.53" x1="59.433" style="fill-rule:evenodd;clip-rule:evenodd;fill:none;stroke:#00AEEF;stroke-width:0.58;" x2="59.433" y2="-59.967"/>
  <line y1="-56.53" x1="59.433" style="fill-rule:evenodd;clip-rule:evenodd;fill:none;stroke:#00AEEF;stroke-width:0.58;" x2="59.433" y2="-50.967"/>
  <line y1="-47.53" x1="59.433" style="fill-rule:evenodd;clip-rule:evenodd;fill:none;stroke:#00AEEF;stroke-width:0.58;" x2="59.433" y2="-41.967"/>
  <line y1="-38.53" x1="59.433" style="fill-rule:evenodd;clip-rule:evenodd;fill:none;stroke:#00AEEF;stroke-width:0.58;" x2="59.433" y2="-32.967"/>
  <line y1="-29.529" x1="59.433" style="fill-rule:evenodd;clip-rule:evenodd;fill:none;stroke:#00AEEF;stroke-width:0.58;" x2="59.433" y2="-23.967"/>
  <line y1="-20.529" x1="59.433" style="fill-rule:evenodd;clip-rule:evenodd;fill:none;stroke:#00AEEF;stroke-width:0.58;" x2="59.433" y2="-14.967"/>
  <line y1="-11.529" x1="59.433" style="fill-rule:evenodd;clip-rule:evenodd;fill:none;stroke:#00AEEF;stroke-width:0.58;" x2="59.433" y2="-5.967"/>
  <line y1="-74.53" x1="65.192" style="fill-rule:evenodd;clip-rule:evenodd;fill:none;stroke:#00AEEF;stroke-width:0.58;" x2="65.192" y2="-68.967"/>
  <line y1="-65.53" x1="65.192" style="fill-rule:evenodd;clip-rule:evenodd;fill:none;stroke:#00AEEF;stroke-width:0.58;" x2="65.192" y2="-59.967"/>
  <line y1="-56.53" x1="65.192" style="fill-rule:evenodd;clip-rule:evenodd;fill:none;stroke:#00AEEF;stroke-width:0.58;" x2="65.192" y2="-50.967"/>
  <line y1="-47.53" x1="65.192" style="fill-rule:evenodd;clip-rule:evenodd;fill:none;stroke:#00AEEF;stroke-width:0.58;" x2="65.192" y2="-41.967"/>
  <line y1="-38.53" x1="65.192" style="fill-rule:evenodd;clip-rule:evenodd;fill:none;stroke:#00AEEF;stroke-width:0.58;" x2="65.192" y2="-32.967"/>
  <line y1="-29.529" x1="65.192" style="fill-rule:evenodd;clip-rule:evenodd;fill:none;stroke:#00AEEF;stroke-width:0.58;" x2="65.192" y2="-23.967"/>
  <line y1="-20.529" x1="65.192" style="fill-rule:evenodd;clip-rule:evenodd;fill:none;stroke:#00AEEF;stroke-width:0.58;" x2="65.192" y2="-14.967"/>
  <line y1="-11.529" x1="65.192" style="fill-rule:evenodd;clip-rule:evenodd;fill:none;stroke:#00AEEF;stroke-width:0.58;" x2="65.192" y2="-5.967"/>
  <line y1="-74.53" x1="70.951" style="fill-rule:evenodd;clip-rule:evenodd;fill:none;stroke:#00AEEF;stroke-width:0.58;" x2="70.951" y2="-68.967"/>
  <line y1="-65.53" x1="70.951" style="fill-rule:evenodd;clip-rule:evenodd;fill:none;stroke:#00AEEF;stroke-width:0.58;" x2="70.951" y2="-59.967"/>
  <line y1="-56.53" x1="70.951" style="fill-rule:evenodd;clip-rule:evenodd;fill:none;stroke:#00AEEF;stroke-width:0.58;" x2="70.951" y2="-50.967"/>
  <line y1="-47.53" x1="70.951" style="fill-rule:evenodd;clip-rule:evenodd;fill:none;stroke:#00AEEF;stroke-width:0.58;" x2="70.951" y2="-41.967"/>
  <line y1="-38.53" x1="70.951" style="fill-rule:evenodd;clip-rule:evenodd;fill:none;stroke:#00AEEF;stroke-width:0.58;" x2="70.951" y2="-32.967"/>
  <line y1="-29.529" x1="70.951" style="fill-rule:evenodd;clip-rule:evenodd;fill:none;stroke:#00AEEF;stroke-width:0.58;" x2="70.951" y2="-23.967"/>
  <line y1="-20.529" x1="70.951" style="fill-rule:evenodd;clip-rule:evenodd;fill:none;stroke:#00AEEF;stroke-width:0.58;" x2="70.951" y2="-14.967"/>
  <line y1="-11.529" x1="70.951" style="fill-rule:evenodd;clip-rule:evenodd;fill:none;stroke:#00AEEF;stroke-width:0.58;" x2="70.951" y2="-5.967"/>
  <line y1="-74.53" x1="76.71" style="fill-rule:evenodd;clip-rule:evenodd;fill:none;stroke:#00AEEF;stroke-width:0.58;" x2="76.71" y2="-68.967"/>
  <line y1="-65.53" x1="76.71" style="fill-rule:evenodd;clip-rule:evenodd;fill:none;stroke:#00AEEF;stroke-width:0.58;" x2="76.71" y2="-59.967"/>
  <line y1="-56.53" x1="76.71" style="fill-rule:evenodd;clip-rule:evenodd;fill:none;stroke:#00AEEF;stroke-width:0.58;" x2="76.71" y2="-50.967"/>
  <line y1="-47.53" x1="76.71" style="fill-rule:evenodd;clip-rule:evenodd;fill:none;stroke:#00AEEF;stroke-width:0.58;" x2="76.71" y2="-41.967"/>
  <line y1="-38.53" x1="76.71" style="fill-rule:evenodd;clip-rule:evenodd;fill:none;stroke:#00AEEF;stroke-width:0.58;" x2="76.71" y2="-32.967"/>
  <line y1="-29.529" x1="76.71" style="fill-rule:evenodd;clip-rule:evenodd;fill:none;stroke:#00AEEF;stroke-width:0.58;" x2="76.71" y2="-23.967"/>
  <line y1="-20.529" x1="76.71" style="fill-rule:evenodd;clip-rule:evenodd;fill:none;stroke:#00AEEF;stroke-width:0.58;" x2="76.71" y2="-14.967"/>
  <line y1="-11.529" x1="76.71" style="fill-rule:evenodd;clip-rule:evenodd;fill:none;stroke:#00AEEF;stroke-width:0.58;" x2="76.71" y2="-5.967"/>
  <line y1="-79.388" x1="4.722" style="fill-rule:evenodd;clip-rule:evenodd;fill:none;stroke:#00AEEF;stroke-width:0.58;" x2="4.722" y2="-73.825"/>
  <line y1="-70.388" x1="4.722" style="fill-rule:evenodd;clip-rule:evenodd;fill:none;stroke:#00AEEF;stroke-width:0.58;" x2="4.722" y2="-64.825"/>
  <line y1="-61.388" x1="4.722" style="fill-rule:evenodd;clip-rule:evenodd;fill:none;stroke:#00AEEF;stroke-width:0.58;" x2="4.722" y2="-55.825"/>
  <line y1="-52.388" x1="4.722" style="fill-rule:evenodd;clip-rule:evenodd;fill:none;stroke:#00AEEF;stroke-width:0.58;" x2="4.722" y2="-46.825"/>
  <line y1="-43.388" x1="4.722" style="fill-rule:evenodd;clip-rule:evenodd;fill:none;stroke:#00AEEF;stroke-width:0.58;" x2="4.722" y2="-37.825"/>
  <line y1="-34.388" x1="4.722" style="fill-rule:evenodd;clip-rule:evenodd;fill:none;stroke:#00AEEF;stroke-width:0.58;" x2="4.722" y2="-28.825"/>
  <line y1="-25.388" x1="4.722" style="fill-rule:evenodd;clip-rule:evenodd;fill:none;stroke:#00AEEF;stroke-width:0.58;" x2="4.722" y2="-19.825"/>
  <line y1="-16.388" x1="4.722" style="fill-rule:evenodd;clip-rule:evenodd;fill:none;stroke:#00AEEF;stroke-width:0.58;" x2="4.722" y2="-10.825"/>
  <line y1="-7.388" x1="4.722" style="fill-rule:evenodd;clip-rule:evenodd;fill:none;stroke:#00AEEF;stroke-width:0.58;" x2="4.722" y2="-1.825"/>
  <line y1="-79.388" x1="10.481" style="fill-rule:evenodd;clip-rule:evenodd;fill:none;stroke:#00AEEF;stroke-width:0.58;" x2="10.481" y2="-73.825"/>
  <line y1="-70.388" x1="10.481" style="fill-rule:evenodd;clip-rule:evenodd;fill:none;stroke:#00AEEF;stroke-width:0.58;" x2="10.481" y2="-64.825"/>
  <line y1="-61.388" x1="10.481" style="fill-rule:evenodd;clip-rule:evenodd;fill:none;stroke:#00AEEF;stroke-width:0.58;" x2="10.481" y2="-55.825"/>
  <line y1="-52.388" x1="10.481" style="fill-rule:evenodd;clip-rule:evenodd;fill:none;stroke:#00AEEF;stroke-width:0.58;" x2="10.481" y2="-46.825"/>
  <line y1="-43.388" x1="10.481" style="fill-rule:evenodd;clip-rule:evenodd;fill:none;stroke:#00AEEF;stroke-width:0.58;" x2="10.481" y2="-37.825"/>
  <line y1="-34.388" x1="10.481" style="fill-rule:evenodd;clip-rule:evenodd;fill:none;stroke:#00AEEF;stroke-width:0.58;" x2="10.481" y2="-28.825"/>
  <line y1="-25.388" x1="10.481" style="fill-rule:evenodd;clip-rule:evenodd;fill:none;stroke:#00AEEF;stroke-width:0.58;" x2="10.481" y2="-19.825"/>
  <line y1="-16.388" x1="10.481" style="fill-rule:evenodd;clip-rule:evenodd;fill:none;stroke:#00AEEF;stroke-width:0.58;" x2="10.481" y2="-10.825"/>
  <line y1="-7.388" x1="10.481" style="fill-rule:evenodd;clip-rule:evenodd;fill:none;stroke:#00AEEF;stroke-width:0.58;" x2="10.481" y2="-1.825"/>
  <line y1="-79.388" x1="16.24" style="fill-rule:evenodd;clip-rule:evenodd;fill:none;stroke:#00AEEF;stroke-width:0.58;" x2="16.24" y2="-73.825"/>
  <line y1="-70.388" x1="16.24" style="fill-rule:evenodd;clip-rule:evenodd;fill:none;stroke:#00AEEF;stroke-width:0.58;" x2="16.24" y2="-64.825"/>
  <line y1="-61.388" x1="16.24" style="fill-rule:evenodd;clip-rule:evenodd;fill:none;stroke:#00AEEF;stroke-width:0.58;" x2="16.24" y2="-55.825"/>
  <line y1="-52.388" x1="16.24" style="fill-rule:evenodd;clip-rule:evenodd;fill:none;stroke:#00AEEF;stroke-width:0.58;" x2="16.24" y2="-46.825"/>
  <line y1="-43.388" x1="16.24" style="fill-rule:evenodd;clip-rule:evenodd;fill:none;stroke:#00AEEF;stroke-width:0.58;" x2="16.24" y2="-37.825"/>
  <line y1="-34.388" x1="16.24" style="fill-rule:evenodd;clip-rule:evenodd;fill:none;stroke:#00AEEF;stroke-width:0.58;" x2="16.24" y2="-28.825"/>
  <line y1="-25.388" x1="16.24" style="fill-rule:evenodd;clip-rule:evenodd;fill:none;stroke:#00AEEF;stroke-width:0.58;" x2="16.24" y2="-19.825"/>
  <line y1="-16.388" x1="16.24" style="fill-rule:evenodd;clip-rule:evenodd;fill:none;stroke:#00AEEF;stroke-width:0.58;" x2="16.24" y2="-10.825"/>
  <line y1="-7.388" x1="16.24" style="fill-rule:evenodd;clip-rule:evenodd;fill:none;stroke:#00AEEF;stroke-width:0.58;" x2="16.24" y2="-1.825"/>
  <line y1="-79.388" x1="22" style="fill-rule:evenodd;clip-rule:evenodd;fill:none;stroke:#00AEEF;stroke-width:0.58;" x2="22" y2="-73.825"/>
  <line y1="-70.388" x1="22" style="fill-rule:evenodd;clip-rule:evenodd;fill:none;stroke:#00AEEF;stroke-width:0.58;" x2="22" y2="-64.825"/>
  <line y1="-61.388" x1="22" style="fill-rule:evenodd;clip-rule:evenodd;fill:none;stroke:#00AEEF;stroke-width:0.58;" x2="22" y2="-55.825"/>
  <line y1="-52.388" x1="22" style="fill-rule:evenodd;clip-rule:evenodd;fill:none;stroke:#00AEEF;stroke-width:0.58;" x2="22" y2="-46.825"/>
  <line y1="-43.388" x1="22" style="fill-rule:evenodd;clip-rule:evenodd;fill:none;stroke:#00AEEF;stroke-width:0.58;" x2="22" y2="-37.825"/>
  <line y1="-34.388" x1="22" style="fill-rule:evenodd;clip-rule:evenodd;fill:none;stroke:#00AEEF;stroke-width:0.58;" x2="22" y2="-28.825"/>
  <line y1="-25.388" x1="22" style="fill-rule:evenodd;clip-rule:evenodd;fill:none;stroke:#00AEEF;stroke-width:0.58;" x2="22" y2="-19.825"/>
  <line y1="-16.388" x1="22" style="fill-rule:evenodd;clip-rule:evenodd;fill:none;stroke:#00AEEF;stroke-width:0.58;" x2="22" y2="-10.825"/>
  <line y1="-7.388" x1="22" style="fill-rule:evenodd;clip-rule:evenodd;fill:none;stroke:#00AEEF;stroke-width:0.58;" x2="22" y2="-1.825"/>
  <line y1="-79.388" x1="27.758" style="fill-rule:evenodd;clip-rule:evenodd;fill:none;stroke:#00AEEF;stroke-width:0.58;" x2="27.758" y2="-73.825"/>
  <line y1="-70.388" x1="27.758" style="fill-rule:evenodd;clip-rule:evenodd;fill:none;stroke:#00AEEF;stroke-width:0.58;" x2="27.758" y2="-64.825"/>
  <line y1="-61.388" x1="27.758" style="fill-rule:evenodd;clip-rule:evenodd;fill:none;stroke:#00AEEF;stroke-width:0.58;" x2="27.758" y2="-55.825"/>
  <line y1="-52.388" x1="27.758" style="fill-rule:evenodd;clip-rule:evenodd;fill:none;stroke:#00AEEF;stroke-width:0.58;" x2="27.758" y2="-46.825"/>
  <line y1="-43.388" x1="27.758" style="fill-rule:evenodd;clip-rule:evenodd;fill:none;stroke:#00AEEF;stroke-width:0.58;" x2="27.758" y2="-37.825"/>
  <line y1="-34.388" x1="27.758" style="fill-rule:evenodd;clip-rule:evenodd;fill:none;stroke:#00AEEF;stroke-width:0.58;" x2="27.758" y2="-28.825"/>
  <line y1="-25.388" x1="27.758" style="fill-rule:evenodd;clip-rule:evenodd;fill:none;stroke:#00AEEF;stroke-width:0.58;" x2="27.758" y2="-19.825"/>
  <line y1="-16.388" x1="27.758" style="fill-rule:evenodd;clip-rule:evenodd;fill:none;stroke:#00AEEF;stroke-width:0.58;" x2="27.758" y2="-10.825"/>
  <line y1="-7.388" x1="27.758" style="fill-rule:evenodd;clip-rule:evenodd;fill:none;stroke:#00AEEF;stroke-width:0.58;" x2="27.758" y2="-1.825"/>
  <line y1="-79.388" x1="33.518" style="fill-rule:evenodd;clip-rule:evenodd;fill:none;stroke:#00AEEF;stroke-width:0.58;" x2="33.518" y2="-73.825"/>
  <line y1="-70.388" x1="33.518" style="fill-rule:evenodd;clip-rule:evenodd;fill:none;stroke:#00AEEF;stroke-width:0.58;" x2="33.518" y2="-64.825"/>
  <line y1="-61.388" x1="33.518" style="fill-rule:evenodd;clip-rule:evenodd;fill:none;stroke:#00AEEF;stroke-width:0.58;" x2="33.518" y2="-55.825"/>
  <line y1="-52.388" x1="33.518" style="fill-rule:evenodd;clip-rule:evenodd;fill:none;stroke:#00AEEF;stroke-width:0.58;" x2="33.518" y2="-46.825"/>
  <line y1="-43.388" x1="33.518" style="fill-rule:evenodd;clip-rule:evenodd;fill:none;stroke:#00AEEF;stroke-width:0.58;" x2="33.518" y2="-37.825"/>
  <line y1="-34.388" x1="33.518" style="fill-rule:evenodd;clip-rule:evenodd;fill:none;stroke:#00AEEF;stroke-width:0.58;" x2="33.518" y2="-28.825"/>
  <line y1="-25.388" x1="33.518" style="fill-rule:evenodd;clip-rule:evenodd;fill:none;stroke:#00AEEF;stroke-width:0.58;" x2="33.518" y2="-19.825"/>
  <line y1="-16.388" x1="33.518" style="fill-rule:evenodd;clip-rule:evenodd;fill:none;stroke:#00AEEF;stroke-width:0.58;" x2="33.518" y2="-10.825"/>
  <line y1="-7.388" x1="33.518" style="fill-rule:evenodd;clip-rule:evenodd;fill:none;stroke:#00AEEF;stroke-width:0.58;" x2="33.518" y2="-1.825"/>
  <line y1="-79.388" x1="39.276" style="fill-rule:evenodd;clip-rule:evenodd;fill:none;stroke:#00AEEF;stroke-width:0.58;" x2="39.276" y2="-73.825"/>
  <line y1="-70.388" x1="39.276" style="fill-rule:evenodd;clip-rule:evenodd;fill:none;stroke:#00AEEF;stroke-width:0.58;" x2="39.276" y2="-64.825"/>
  <line y1="-61.388" x1="39.276" style="fill-rule:evenodd;clip-rule:evenodd;fill:none;stroke:#00AEEF;stroke-width:0.58;" x2="39.276" y2="-55.825"/>
  <line y1="-52.388" x1="39.276" style="fill-rule:evenodd;clip-rule:evenodd;fill:none;stroke:#00AEEF;stroke-width:0.58;" x2="39.276" y2="-46.825"/>
  <line y1="-43.388" x1="39.276" style="fill-rule:evenodd;clip-rule:evenodd;fill:none;stroke:#00AEEF;stroke-width:0.58;" x2="39.276" y2="-37.825"/>
  <line y1="-34.388" x1="39.276" style="fill-rule:evenodd;clip-rule:evenodd;fill:none;stroke:#00AEEF;stroke-width:0.58;" x2="39.276" y2="-28.825"/>
  <line y1="-25.388" x1="39.276" style="fill-rule:evenodd;clip-rule:evenodd;fill:none;stroke:#00AEEF;stroke-width:0.58;" x2="39.276" y2="-19.825"/>
  <line y1="-16.388" x1="39.276" style="fill-rule:evenodd;clip-rule:evenodd;fill:none;stroke:#00AEEF;stroke-width:0.58;" x2="39.276" y2="-10.825"/>
  <line y1="-7.388" x1="39.276" style="fill-rule:evenodd;clip-rule:evenodd;fill:none;stroke:#00AEEF;stroke-width:0.58;" x2="39.276" y2="-1.825"/>
  <line y1="-79.388" x1="45.036" style="fill-rule:evenodd;clip-rule:evenodd;fill:none;stroke:#00AEEF;stroke-width:0.58;" x2="45.036" y2="-73.825"/>
  <line y1="-70.388" x1="45.036" style="fill-rule:evenodd;clip-rule:evenodd;fill:none;stroke:#00AEEF;stroke-width:0.58;" x2="45.036" y2="-64.825"/>
  <line y1="-61.388" x1="45.036" style="fill-rule:evenodd;clip-rule:evenodd;fill:none;stroke:#00AEEF;stroke-width:0.58;" x2="45.036" y2="-55.825"/>
  <line y1="-52.388" x1="45.036" style="fill-rule:evenodd;clip-rule:evenodd;fill:none;stroke:#00AEEF;stroke-width:0.58;" x2="45.036" y2="-46.825"/>
  <line y1="-43.388" x1="45.036" style="fill-rule:evenodd;clip-rule:evenodd;fill:none;stroke:#00AEEF;stroke-width:0.58;" x2="45.036" y2="-37.825"/>
  <line y1="-34.388" x1="45.036" style="fill-rule:evenodd;clip-rule:evenodd;fill:none;stroke:#00AEEF;stroke-width:0.58;" x2="45.036" y2="-28.825"/>
  <line y1="-25.388" x1="45.036" style="fill-rule:evenodd;clip-rule:evenodd;fill:none;stroke:#00AEEF;stroke-width:0.58;" x2="45.036" y2="-19.825"/>
  <line y1="-16.388" x1="45.036" style="fill-rule:evenodd;clip-rule:evenodd;fill:none;stroke:#00AEEF;stroke-width:0.58;" x2="45.036" y2="-10.825"/>
  <line y1="-7.388" x1="45.036" style="fill-rule:evenodd;clip-rule:evenodd;fill:none;stroke:#00AEEF;stroke-width:0.58;" x2="45.036" y2="-1.825"/>
  <line y1="-79.388" x1="50.794" style="fill-rule:evenodd;clip-rule:evenodd;fill:none;stroke:#00AEEF;stroke-width:0.58;" x2="50.794" y2="-73.825"/>
  <line y1="-70.388" x1="50.794" style="fill-rule:evenodd;clip-rule:evenodd;fill:none;stroke:#00AEEF;stroke-width:0.58;" x2="50.794" y2="-64.825"/>
  <line y1="-61.388" x1="50.794" style="fill-rule:evenodd;clip-rule:evenodd;fill:none;stroke:#00AEEF;stroke-width:0.58;" x2="50.794" y2="-55.825"/>
  <line y1="-52.388" x1="50.794" style="fill-rule:evenodd;clip-rule:evenodd;fill:none;stroke:#00AEEF;stroke-width:0.58;" x2="50.794" y2="-46.825"/>
  <line y1="-43.388" x1="50.794" style="fill-rule:evenodd;clip-rule:evenodd;fill:none;stroke:#00AEEF;stroke-width:0.58;" x2="50.794" y2="-37.825"/>
  <line y1="-34.388" x1="50.794" style="fill-rule:evenodd;clip-rule:evenodd;fill:none;stroke:#00AEEF;stroke-width:0.58;" x2="50.794" y2="-28.825"/>
  <line y1="-25.388" x1="50.794" style="fill-rule:evenodd;clip-rule:evenodd;fill:none;stroke:#00AEEF;stroke-width:0.58;" x2="50.794" y2="-19.825"/>
  <line y1="-16.388" x1="50.794" style="fill-rule:evenodd;clip-rule:evenodd;fill:none;stroke:#00AEEF;stroke-width:0.58;" x2="50.794" y2="-10.825"/>
  <line y1="-7.388" x1="50.794" style="fill-rule:evenodd;clip-rule:evenodd;fill:none;stroke:#00AEEF;stroke-width:0.58;" x2="50.794" y2="-1.825"/>
  <line y1="-79.388" x1="56.554" style="fill-rule:evenodd;clip-rule:evenodd;fill:none;stroke:#00AEEF;stroke-width:0.58;" x2="56.554" y2="-73.825"/>
  <line y1="-70.388" x1="56.554" style="fill-rule:evenodd;clip-rule:evenodd;fill:none;stroke:#00AEEF;stroke-width:0.58;" x2="56.554" y2="-64.825"/>
  <line y1="-61.388" x1="56.554" style="fill-rule:evenodd;clip-rule:evenodd;fill:none;stroke:#00AEEF;stroke-width:0.58;" x2="56.554" y2="-55.825"/>
  <line y1="-52.388" x1="56.554" style="fill-rule:evenodd;clip-rule:evenodd;fill:none;stroke:#00AEEF;stroke-width:0.58;" x2="56.554" y2="-46.825"/>
  <line y1="-43.388" x1="56.554" style="fill-rule:evenodd;clip-rule:evenodd;fill:none;stroke:#00AEEF;stroke-width:0.58;" x2="56.554" y2="-37.825"/>
  <line y1="-34.388" x1="56.554" style="fill-rule:evenodd;clip-rule:evenodd;fill:none;stroke:#00AEEF;stroke-width:0.58;" x2="56.554" y2="-28.825"/>
  <line y1="-25.388" x1="56.554" style="fill-rule:evenodd;clip-rule:evenodd;fill:none;stroke:#00AEEF;stroke-width:0.58;" x2="56.554" y2="-19.825"/>
  <line y1="-16.388" x1="56.554" style="fill-rule:evenodd;clip-rule:evenodd;fill:none;stroke:#00AEEF;stroke-width:0.58;" x2="56.554" y2="-10.825"/>
  <line y1="-7.388" x1="56.554" style="fill-rule:evenodd;clip-rule:evenodd;fill:none;stroke:#00AEEF;stroke-width:0.58;" x2="56.554" y2="-1.825"/>
  <line y1="-79.388" x1="62.312" style="fill-rule:evenodd;clip-rule:evenodd;fill:none;stroke:#00AEEF;stroke-width:0.58;" x2="62.312" y2="-73.825"/>
  <line y1="-70.388" x1="62.312" style="fill-rule:evenodd;clip-rule:evenodd;fill:none;stroke:#00AEEF;stroke-width:0.58;" x2="62.312" y2="-64.825"/>
  <line y1="-61.388" x1="62.312" style="fill-rule:evenodd;clip-rule:evenodd;fill:none;stroke:#00AEEF;stroke-width:0.58;" x2="62.312" y2="-55.825"/>
  <line y1="-52.388" x1="62.312" style="fill-rule:evenodd;clip-rule:evenodd;fill:none;stroke:#00AEEF;stroke-width:0.58;" x2="62.312" y2="-46.825"/>
  <line y1="-43.388" x1="62.312" style="fill-rule:evenodd;clip-rule:evenodd;fill:none;stroke:#00AEEF;stroke-width:0.58;" x2="62.312" y2="-37.825"/>
  <line y1="-34.388" x1="62.312" style="fill-rule:evenodd;clip-rule:evenodd;fill:none;stroke:#00AEEF;stroke-width:0.58;" x2="62.312" y2="-28.825"/>
  <line y1="-25.388" x1="62.312" style="fill-rule:evenodd;clip-rule:evenodd;fill:none;stroke:#00AEEF;stroke-width:0.58;" x2="62.312" y2="-19.825"/>
  <line y1="-16.388" x1="62.312" style="fill-rule:evenodd;clip-rule:evenodd;fill:none;stroke:#00AEEF;stroke-width:0.58;" x2="62.312" y2="-10.825"/>
  <line y1="-7.388" x1="62.312" style="fill-rule:evenodd;clip-rule:evenodd;fill:none;stroke:#00AEEF;stroke-width:0.58;" x2="62.312" y2="-1.825"/>
  <line y1="-79.388" x1="68.072" style="fill-rule:evenodd;clip-rule:evenodd;fill:none;stroke:#00AEEF;stroke-width:0.58;" x2="68.072" y2="-73.825"/>
  <line y1="-70.388" x1="68.072" style="fill-rule:evenodd;clip-rule:evenodd;fill:none;stroke:#00AEEF;stroke-width:0.58;" x2="68.072" y2="-64.825"/>
  <line y1="-61.388" x1="68.072" style="fill-rule:evenodd;clip-rule:evenodd;fill:none;stroke:#00AEEF;stroke-width:0.58;" x2="68.072" y2="-55.825"/>
  <line y1="-52.388" x1="68.072" style="fill-rule:evenodd;clip-rule:evenodd;fill:none;stroke:#00AEEF;stroke-width:0.58;" x2="68.072" y2="-46.825"/>
  <line y1="-43.388" x1="68.072" style="fill-rule:evenodd;clip-rule:evenodd;fill:none;stroke:#00AEEF;stroke-width:0.58;" x2="68.072" y2="-37.825"/>
  <line y1="-34.388" x1="68.072" style="fill-rule:evenodd;clip-rule:evenodd;fill:none;stroke:#00AEEF;stroke-width:0.58;" x2="68.072" y2="-28.825"/>
  <line y1="-25.388" x1="68.072" style="fill-rule:evenodd;clip-rule:evenodd;fill:none;stroke:#00AEEF;stroke-width:0.58;" x2="68.072" y2="-19.825"/>
  <line y1="-16.388" x1="68.072" style="fill-rule:evenodd;clip-rule:evenodd;fill:none;stroke:#00AEEF;stroke-width:0.58;" x2="68.072" y2="-10.825"/>
  <line y1="-7.388" x1="68.072" style="fill-rule:evenodd;clip-rule:evenodd;fill:none;stroke:#00AEEF;stroke-width:0.58;" x2="68.072" y2="-1.825"/>
  <line y1="-79.388" x1="73.831" style="fill-rule:evenodd;clip-rule:evenodd;fill:none;stroke:#00AEEF;stroke-width:0.58;" x2="73.831" y2="-73.825"/>
  <line y1="-70.388" x1="73.831" style="fill-rule:evenodd;clip-rule:evenodd;fill:none;stroke:#00AEEF;stroke-width:0.58;" x2="73.831" y2="-64.825"/>
  <line y1="-61.388" x1="73.831" style="fill-rule:evenodd;clip-rule:evenodd;fill:none;stroke:#00AEEF;stroke-width:0.58;" x2="73.831" y2="-55.825"/>
  <line y1="-52.388" x1="73.831" style="fill-rule:evenodd;clip-rule:evenodd;fill:none;stroke:#00AEEF;stroke-width:0.58;" x2="73.831" y2="-46.825"/>
  <line y1="-43.388" x1="73.831" style="fill-rule:evenodd;clip-rule:evenodd;fill:none;stroke:#00AEEF;stroke-width:0.58;" x2="73.831" y2="-37.825"/>
  <line y1="-34.388" x1="73.831" style="fill-rule:evenodd;clip-rule:evenodd;fill:none;stroke:#00AEEF;stroke-width:0.58;" x2="73.831" y2="-28.825"/>
  <line y1="-25.388" x1="73.831" style="fill-rule:evenodd;clip-rule:evenodd;fill:none;stroke:#00AEEF;stroke-width:0.58;" x2="73.831" y2="-19.825"/>
  <line y1="-16.388" x1="73.831" style="fill-rule:evenodd;clip-rule:evenodd;fill:none;stroke:#00AEEF;stroke-width:0.58;" x2="73.831" y2="-10.825"/>
  <line y1="-7.388" x1="73.831" style="fill-rule:evenodd;clip-rule:evenodd;fill:none;stroke:#00AEEF;stroke-width:0.58;" x2="73.831" y2="-1.825"/>
  <line y1="-79.388" x1="79.59" style="fill-rule:evenodd;clip-rule:evenodd;fill:none;stroke:#00AEEF;stroke-width:0.58;" x2="79.59" y2="-73.825"/>
  <line y1="-70.388" x1="79.59" style="fill-rule:evenodd;clip-rule:evenodd;fill:none;stroke:#00AEEF;stroke-width:0.58;" x2="79.59" y2="-64.825"/>
  <line y1="-61.388" x1="79.59" style="fill-rule:evenodd;clip-rule:evenodd;fill:none;stroke:#00AEEF;stroke-width:0.58;" x2="79.59" y2="-55.825"/>
  <line y1="-52.388" x1="79.59" style="fill-rule:evenodd;clip-rule:evenodd;fill:none;stroke:#00AEEF;stroke-width:0.58;" x2="79.59" y2="-46.825"/>
  <line y1="-43.388" x1="79.59" style="fill-rule:evenodd;clip-rule:evenodd;fill:none;stroke:#00AEEF;stroke-width:0.58;" x2="79.59" y2="-37.825"/>
  <line y1="-34.388" x1="79.59" style="fill-rule:evenodd;clip-rule:evenodd;fill:none;stroke:#00AEEF;stroke-width:0.58;" x2="79.59" y2="-28.825"/>
  <line y1="-25.388" x1="79.59" style="fill-rule:evenodd;clip-rule:evenodd;fill:none;stroke:#00AEEF;stroke-width:0.58;" x2="79.59" y2="-19.825"/>
  <line y1="-16.388" x1="79.59" style="fill-rule:evenodd;clip-rule:evenodd;fill:none;stroke:#00AEEF;stroke-width:0.58;" x2="79.59" y2="-10.825"/>
  <line y1="-7.388" x1="79.59" style="fill-rule:evenodd;clip-rule:evenodd;fill:none;stroke:#00AEEF;stroke-width:0.58;" x2="79.59" y2="-1.825"/>
  <rect x="0" style="fill-rule:evenodd;clip-rule:evenodd;fill:none;" width="80.646" height="80.646" y="-80.646"/>
  <rect x="0" style="fill-rule:evenodd;clip-rule:evenodd;fill:none;" width="80.646" height="80.646" y="-80.646"/>
 </g>
</svg>
