<?xml version="1.0"?>
<!-- Converted with SVG Converter - Version 0.9.6 (Compiled Thu Aug 31 10:01:05 2017) - Copyright (C) 2011 Nokia -->
<svg xmlns="http://www.w3.org/2000/svg" version="1.1" width="80.646" viewBox="0 -80.646 80.646 80.646" x="0px" y="0px" xml:space="preserve" baseProfile="tiny" height="80.646" xmlns:xlink="http://www.w3.org/1999/xlink">
 <g>
  <rect width="80.646" x="0" y="-80.646" style="fill:none;" height="80.646"/>
  <line y2="-77.967" x1="1.843" x2="1.843" style="fill-rule:evenodd;clip-rule:evenodd;fill:none;stroke:#000000;stroke-width:0.43;" y1="-80.646"/>
  <line y2="0.001" x1="1.843" x2="1.843" style="fill-rule:evenodd;clip-rule:evenodd;fill:none;stroke:#000000;stroke-width:0.43;" y1="-2.53"/>
  <line y2="-77.967" x1="7.602" x2="7.602" style="fill-rule:evenodd;clip-rule:evenodd;fill:none;stroke:#000000;stroke-width:0.43;" y1="-80.646"/>
  <line y2="0.001" x1="7.602" x2="7.602" style="fill-rule:evenodd;clip-rule:evenodd;fill:none;stroke:#000000;stroke-width:0.43;" y1="-2.53"/>
  <line y2="-77.967" x1="13.361" x2="13.361" style="fill-rule:evenodd;clip-rule:evenodd;fill:none;stroke:#000000;stroke-width:0.43;" y1="-80.646"/>
  <line y2="0.001" x1="13.361" x2="13.361" style="fill-rule:evenodd;clip-rule:evenodd;fill:none;stroke:#000000;stroke-width:0.43;" y1="-2.53"/>
  <line y2="-77.967" x1="19.12" x2="19.12" style="fill-rule:evenodd;clip-rule:evenodd;fill:none;stroke:#000000;stroke-width:0.43;" y1="-80.646"/>
  <line y2="0.001" x1="19.12" x2="19.12" style="fill-rule:evenodd;clip-rule:evenodd;fill:none;stroke:#000000;stroke-width:0.43;" y1="-2.53"/>
  <line y2="-77.967" x1="24.879" x2="24.879" style="fill-rule:evenodd;clip-rule:evenodd;fill:none;stroke:#000000;stroke-width:0.43;" y1="-80.646"/>
  <line y2="0.001" x1="24.879" x2="24.879" style="fill-rule:evenodd;clip-rule:evenodd;fill:none;stroke:#000000;stroke-width:0.43;" y1="-2.53"/>
  <line y2="-77.967" x1="30.638" x2="30.638" style="fill-rule:evenodd;clip-rule:evenodd;fill:none;stroke:#000000;stroke-width:0.43;" y1="-80.646"/>
  <line y2="0.001" x1="30.638" x2="30.638" style="fill-rule:evenodd;clip-rule:evenodd;fill:none;stroke:#000000;stroke-width:0.43;" y1="-2.53"/>
  <line y2="-77.967" x1="36.397" x2="36.397" style="fill-rule:evenodd;clip-rule:evenodd;fill:none;stroke:#000000;stroke-width:0.43;" y1="-80.646"/>
  <line y2="0.001" x1="36.397" x2="36.397" style="fill-rule:evenodd;clip-rule:evenodd;fill:none;stroke:#000000;stroke-width:0.43;" y1="-2.53"/>
  <line y2="-77.967" x1="42.156" x2="42.156" style="fill-rule:evenodd;clip-rule:evenodd;fill:none;stroke:#000000;stroke-width:0.43;" y1="-80.646"/>
  <line y2="0.001" x1="42.156" x2="42.156" style="fill-rule:evenodd;clip-rule:evenodd;fill:none;stroke:#000000;stroke-width:0.43;" y1="-2.53"/>
  <line y2="-77.967" x1="47.915" x2="47.915" style="fill-rule:evenodd;clip-rule:evenodd;fill:none;stroke:#000000;stroke-width:0.43;" y1="-80.646"/>
  <line y2="0.001" x1="47.915" x2="47.915" style="fill-rule:evenodd;clip-rule:evenodd;fill:none;stroke:#000000;stroke-width:0.43;" y1="-2.53"/>
  <line y2="-77.967" x1="53.674" x2="53.674" style="fill-rule:evenodd;clip-rule:evenodd;fill:none;stroke:#000000;stroke-width:0.43;" y1="-80.646"/>
  <line y2="0.001" x1="53.674" x2="53.674" style="fill-rule:evenodd;clip-rule:evenodd;fill:none;stroke:#000000;stroke-width:0.43;" y1="-2.53"/>
  <line y2="-77.967" x1="59.433" x2="59.433" style="fill-rule:evenodd;clip-rule:evenodd;fill:none;stroke:#000000;stroke-width:0.43;" y1="-80.646"/>
  <line y2="0.001" x1="59.433" x2="59.433" style="fill-rule:evenodd;clip-rule:evenodd;fill:none;stroke:#000000;stroke-width:0.43;" y1="-2.53"/>
  <line y2="-77.967" x1="65.192" x2="65.192" style="fill-rule:evenodd;clip-rule:evenodd;fill:none;stroke:#000000;stroke-width:0.43;" y1="-80.646"/>
  <line y2="0.001" x1="65.192" x2="65.192" style="fill-rule:evenodd;clip-rule:evenodd;fill:none;stroke:#000000;stroke-width:0.43;" y1="-2.53"/>
  <line y2="-77.967" x1="70.951" x2="70.951" style="fill-rule:evenodd;clip-rule:evenodd;fill:none;stroke:#000000;stroke-width:0.43;" y1="-80.646"/>
  <line y2="0.001" x1="70.951" x2="70.951" style="fill-rule:evenodd;clip-rule:evenodd;fill:none;stroke:#000000;stroke-width:0.43;" y1="-2.53"/>
  <line y2="-77.967" x1="76.71" x2="76.71" style="fill-rule:evenodd;clip-rule:evenodd;fill:none;stroke:#000000;stroke-width:0.43;" y1="-80.646"/>
  <line y2="0.001" x1="76.71" x2="76.71" style="fill-rule:evenodd;clip-rule:evenodd;fill:none;stroke:#000000;stroke-width:0.43;" y1="-2.53"/>
  <line y2="-68.967" x1="1.843" x2="1.843" style="fill-rule:evenodd;clip-rule:evenodd;fill:none;stroke:#000000;stroke-width:0.43;" y1="-74.53"/>
  <line y2="-59.967" x1="1.843" x2="1.843" style="fill-rule:evenodd;clip-rule:evenodd;fill:none;stroke:#000000;stroke-width:0.43;" y1="-65.53"/>
  <line y2="-50.967" x1="1.843" x2="1.843" style="fill-rule:evenodd;clip-rule:evenodd;fill:none;stroke:#000000;stroke-width:0.43;" y1="-56.53"/>
  <line y2="-41.967" x1="1.843" x2="1.843" style="fill-rule:evenodd;clip-rule:evenodd;fill:none;stroke:#000000;stroke-width:0.43;" y1="-47.53"/>
  <line y2="-32.967" x1="1.843" x2="1.843" style="fill-rule:evenodd;clip-rule:evenodd;fill:none;stroke:#000000;stroke-width:0.43;" y1="-38.53"/>
  <line y2="-23.967" x1="1.843" x2="1.843" style="fill-rule:evenodd;clip-rule:evenodd;fill:none;stroke:#000000;stroke-width:0.43;" y1="-29.53"/>
  <line y2="-14.967" x1="1.843" x2="1.843" style="fill-rule:evenodd;clip-rule:evenodd;fill:none;stroke:#000000;stroke-width:0.43;" y1="-20.53"/>
  <line y2="-5.967" x1="1.843" x2="1.843" style="fill-rule:evenodd;clip-rule:evenodd;fill:none;stroke:#000000;stroke-width:0.43;" y1="-11.53"/>
  <line y2="-68.967" x1="7.602" x2="7.602" style="fill-rule:evenodd;clip-rule:evenodd;fill:none;stroke:#000000;stroke-width:0.43;" y1="-74.53"/>
  <line y2="-59.967" x1="7.602" x2="7.602" style="fill-rule:evenodd;clip-rule:evenodd;fill:none;stroke:#000000;stroke-width:0.43;" y1="-65.53"/>
  <line y2="-50.967" x1="7.602" x2="7.602" style="fill-rule:evenodd;clip-rule:evenodd;fill:none;stroke:#000000;stroke-width:0.43;" y1="-56.53"/>
  <line y2="-41.967" x1="7.602" x2="7.602" style="fill-rule:evenodd;clip-rule:evenodd;fill:none;stroke:#000000;stroke-width:0.43;" y1="-47.53"/>
  <line y2="-32.967" x1="7.602" x2="7.602" style="fill-rule:evenodd;clip-rule:evenodd;fill:none;stroke:#000000;stroke-width:0.43;" y1="-38.53"/>
  <line y2="-23.967" x1="7.602" x2="7.602" style="fill-rule:evenodd;clip-rule:evenodd;fill:none;stroke:#000000;stroke-width:0.43;" y1="-29.53"/>
  <line y2="-14.967" x1="7.602" x2="7.602" style="fill-rule:evenodd;clip-rule:evenodd;fill:none;stroke:#000000;stroke-width:0.43;" y1="-20.53"/>
  <line y2="-5.967" x1="7.602" x2="7.602" style="fill-rule:evenodd;clip-rule:evenodd;fill:none;stroke:#000000;stroke-width:0.43;" y1="-11.53"/>
  <line y2="-68.967" x1="13.361" x2="13.361" style="fill-rule:evenodd;clip-rule:evenodd;fill:none;stroke:#000000;stroke-width:0.43;" y1="-74.53"/>
  <line y2="-59.967" x1="13.361" x2="13.361" style="fill-rule:evenodd;clip-rule:evenodd;fill:none;stroke:#000000;stroke-width:0.43;" y1="-65.53"/>
  <line y2="-50.967" x1="13.361" x2="13.361" style="fill-rule:evenodd;clip-rule:evenodd;fill:none;stroke:#000000;stroke-width:0.43;" y1="-56.53"/>
  <line y2="-41.967" x1="13.361" x2="13.361" style="fill-rule:evenodd;clip-rule:evenodd;fill:none;stroke:#000000;stroke-width:0.43;" y1="-47.53"/>
  <line y2="-32.967" x1="13.361" x2="13.361" style="fill-rule:evenodd;clip-rule:evenodd;fill:none;stroke:#000000;stroke-width:0.43;" y1="-38.53"/>
  <line y2="-23.967" x1="13.361" x2="13.361" style="fill-rule:evenodd;clip-rule:evenodd;fill:none;stroke:#000000;stroke-width:0.43;" y1="-29.53"/>
  <line y2="-14.967" x1="13.361" x2="13.361" style="fill-rule:evenodd;clip-rule:evenodd;fill:none;stroke:#000000;stroke-width:0.43;" y1="-20.53"/>
  <line y2="-5.967" x1="13.361" x2="13.361" style="fill-rule:evenodd;clip-rule:evenodd;fill:none;stroke:#000000;stroke-width:0.43;" y1="-11.53"/>
  <line y2="-68.967" x1="19.12" x2="19.12" style="fill-rule:evenodd;clip-rule:evenodd;fill:none;stroke:#000000;stroke-width:0.43;" y1="-74.53"/>
  <line y2="-59.967" x1="19.12" x2="19.12" style="fill-rule:evenodd;clip-rule:evenodd;fill:none;stroke:#000000;stroke-width:0.43;" y1="-65.53"/>
  <line y2="-50.967" x1="19.12" x2="19.12" style="fill-rule:evenodd;clip-rule:evenodd;fill:none;stroke:#000000;stroke-width:0.43;" y1="-56.53"/>
  <line y2="-41.967" x1="19.12" x2="19.12" style="fill-rule:evenodd;clip-rule:evenodd;fill:none;stroke:#000000;stroke-width:0.43;" y1="-47.53"/>
  <line y2="-32.967" x1="19.12" x2="19.12" style="fill-rule:evenodd;clip-rule:evenodd;fill:none;stroke:#000000;stroke-width:0.43;" y1="-38.53"/>
  <line y2="-23.967" x1="19.12" x2="19.12" style="fill-rule:evenodd;clip-rule:evenodd;fill:none;stroke:#000000;stroke-width:0.43;" y1="-29.53"/>
  <line y2="-14.967" x1="19.12" x2="19.12" style="fill-rule:evenodd;clip-rule:evenodd;fill:none;stroke:#000000;stroke-width:0.43;" y1="-20.53"/>
  <line y2="-5.967" x1="19.12" x2="19.12" style="fill-rule:evenodd;clip-rule:evenodd;fill:none;stroke:#000000;stroke-width:0.43;" y1="-11.53"/>
  <line y2="-68.967" x1="24.879" x2="24.879" style="fill-rule:evenodd;clip-rule:evenodd;fill:none;stroke:#000000;stroke-width:0.43;" y1="-74.53"/>
  <line y2="-59.967" x1="24.879" x2="24.879" style="fill-rule:evenodd;clip-rule:evenodd;fill:none;stroke:#000000;stroke-width:0.43;" y1="-65.53"/>
  <line y2="-50.967" x1="24.879" x2="24.879" style="fill-rule:evenodd;clip-rule:evenodd;fill:none;stroke:#000000;stroke-width:0.43;" y1="-56.53"/>
  <line y2="-41.967" x1="24.879" x2="24.879" style="fill-rule:evenodd;clip-rule:evenodd;fill:none;stroke:#000000;stroke-width:0.43;" y1="-47.53"/>
  <line y2="-32.967" x1="24.879" x2="24.879" style="fill-rule:evenodd;clip-rule:evenodd;fill:none;stroke:#000000;stroke-width:0.43;" y1="-38.53"/>
  <line y2="-23.967" x1="24.879" x2="24.879" style="fill-rule:evenodd;clip-rule:evenodd;fill:none;stroke:#000000;stroke-width:0.43;" y1="-29.53"/>
  <line y2="-14.967" x1="24.879" x2="24.879" style="fill-rule:evenodd;clip-rule:evenodd;fill:none;stroke:#000000;stroke-width:0.43;" y1="-20.53"/>
  <line y2="-5.967" x1="24.879" x2="24.879" style="fill-rule:evenodd;clip-rule:evenodd;fill:none;stroke:#000000;stroke-width:0.43;" y1="-11.53"/>
  <line y2="-68.967" x1="30.638" x2="30.638" style="fill-rule:evenodd;clip-rule:evenodd;fill:none;stroke:#000000;stroke-width:0.43;" y1="-74.53"/>
  <line y2="-59.967" x1="30.638" x2="30.638" style="fill-rule:evenodd;clip-rule:evenodd;fill:none;stroke:#000000;stroke-width:0.43;" y1="-65.53"/>
  <line y2="-50.967" x1="30.638" x2="30.638" style="fill-rule:evenodd;clip-rule:evenodd;fill:none;stroke:#000000;stroke-width:0.43;" y1="-56.53"/>
  <line y2="-41.967" x1="30.638" x2="30.638" style="fill-rule:evenodd;clip-rule:evenodd;fill:none;stroke:#000000;stroke-width:0.43;" y1="-47.53"/>
  <line y2="-32.967" x1="30.638" x2="30.638" style="fill-rule:evenodd;clip-rule:evenodd;fill:none;stroke:#000000;stroke-width:0.43;" y1="-38.53"/>
  <line y2="-23.967" x1="30.638" x2="30.638" style="fill-rule:evenodd;clip-rule:evenodd;fill:none;stroke:#000000;stroke-width:0.43;" y1="-29.53"/>
  <line y2="-14.967" x1="30.638" x2="30.638" style="fill-rule:evenodd;clip-rule:evenodd;fill:none;stroke:#000000;stroke-width:0.43;" y1="-20.53"/>
  <line y2="-5.967" x1="30.638" x2="30.638" style="fill-rule:evenodd;clip-rule:evenodd;fill:none;stroke:#000000;stroke-width:0.43;" y1="-11.53"/>
  <line y2="-68.967" x1="36.397" x2="36.397" style="fill-rule:evenodd;clip-rule:evenodd;fill:none;stroke:#000000;stroke-width:0.43;" y1="-74.53"/>
  <line y2="-59.967" x1="36.397" x2="36.397" style="fill-rule:evenodd;clip-rule:evenodd;fill:none;stroke:#000000;stroke-width:0.43;" y1="-65.53"/>
  <line y2="-50.967" x1="36.397" x2="36.397" style="fill-rule:evenodd;clip-rule:evenodd;fill:none;stroke:#000000;stroke-width:0.43;" y1="-56.53"/>
  <line y2="-41.967" x1="36.397" x2="36.397" style="fill-rule:evenodd;clip-rule:evenodd;fill:none;stroke:#000000;stroke-width:0.43;" y1="-47.53"/>
  <line y2="-32.967" x1="36.397" x2="36.397" style="fill-rule:evenodd;clip-rule:evenodd;fill:none;stroke:#000000;stroke-width:0.43;" y1="-38.53"/>
  <line y2="-23.967" x1="36.397" x2="36.397" style="fill-rule:evenodd;clip-rule:evenodd;fill:none;stroke:#000000;stroke-width:0.43;" y1="-29.53"/>
  <line y2="-14.967" x1="36.397" x2="36.397" style="fill-rule:evenodd;clip-rule:evenodd;fill:none;stroke:#000000;stroke-width:0.43;" y1="-20.53"/>
  <line y2="-5.967" x1="36.397" x2="36.397" style="fill-rule:evenodd;clip-rule:evenodd;fill:none;stroke:#000000;stroke-width:0.43;" y1="-11.53"/>
  <line y2="-68.967" x1="42.156" x2="42.156" style="fill-rule:evenodd;clip-rule:evenodd;fill:none;stroke:#000000;stroke-width:0.43;" y1="-74.53"/>
  <line y2="-59.967" x1="42.156" x2="42.156" style="fill-rule:evenodd;clip-rule:evenodd;fill:none;stroke:#000000;stroke-width:0.43;" y1="-65.53"/>
  <line y2="-50.967" x1="42.156" x2="42.156" style="fill-rule:evenodd;clip-rule:evenodd;fill:none;stroke:#000000;stroke-width:0.43;" y1="-56.53"/>
  <line y2="-41.967" x1="42.156" x2="42.156" style="fill-rule:evenodd;clip-rule:evenodd;fill:none;stroke:#000000;stroke-width:0.43;" y1="-47.53"/>
  <line y2="-32.967" x1="42.156" x2="42.156" style="fill-rule:evenodd;clip-rule:evenodd;fill:none;stroke:#000000;stroke-width:0.43;" y1="-38.53"/>
  <line y2="-23.967" x1="42.156" x2="42.156" style="fill-rule:evenodd;clip-rule:evenodd;fill:none;stroke:#000000;stroke-width:0.43;" y1="-29.53"/>
  <line y2="-14.967" x1="42.156" x2="42.156" style="fill-rule:evenodd;clip-rule:evenodd;fill:none;stroke:#000000;stroke-width:0.43;" y1="-20.53"/>
  <line y2="-5.967" x1="42.156" x2="42.156" style="fill-rule:evenodd;clip-rule:evenodd;fill:none;stroke:#000000;stroke-width:0.43;" y1="-11.53"/>
  <line y2="-68.967" x1="47.915" x2="47.915" style="fill-rule:evenodd;clip-rule:evenodd;fill:none;stroke:#000000;stroke-width:0.43;" y1="-74.53"/>
  <line y2="-59.967" x1="47.915" x2="47.915" style="fill-rule:evenodd;clip-rule:evenodd;fill:none;stroke:#000000;stroke-width:0.43;" y1="-65.53"/>
  <line y2="-50.967" x1="47.915" x2="47.915" style="fill-rule:evenodd;clip-rule:evenodd;fill:none;stroke:#000000;stroke-width:0.43;" y1="-56.53"/>
  <line y2="-41.967" x1="47.915" x2="47.915" style="fill-rule:evenodd;clip-rule:evenodd;fill:none;stroke:#000000;stroke-width:0.43;" y1="-47.53"/>
  <line y2="-32.967" x1="47.915" x2="47.915" style="fill-rule:evenodd;clip-rule:evenodd;fill:none;stroke:#000000;stroke-width:0.43;" y1="-38.53"/>
  <line y2="-23.967" x1="47.915" x2="47.915" style="fill-rule:evenodd;clip-rule:evenodd;fill:none;stroke:#000000;stroke-width:0.43;" y1="-29.53"/>
  <line y2="-14.967" x1="47.915" x2="47.915" style="fill-rule:evenodd;clip-rule:evenodd;fill:none;stroke:#000000;stroke-width:0.43;" y1="-20.53"/>
  <line y2="-5.967" x1="47.915" x2="47.915" style="fill-rule:evenodd;clip-rule:evenodd;fill:none;stroke:#000000;stroke-width:0.43;" y1="-11.53"/>
  <line y2="-68.967" x1="53.674" x2="53.674" style="fill-rule:evenodd;clip-rule:evenodd;fill:none;stroke:#000000;stroke-width:0.43;" y1="-74.53"/>
  <line y2="-59.967" x1="53.674" x2="53.674" style="fill-rule:evenodd;clip-rule:evenodd;fill:none;stroke:#000000;stroke-width:0.43;" y1="-65.53"/>
  <line y2="-50.967" x1="53.674" x2="53.674" style="fill-rule:evenodd;clip-rule:evenodd;fill:none;stroke:#000000;stroke-width:0.43;" y1="-56.53"/>
  <line y2="-41.967" x1="53.674" x2="53.674" style="fill-rule:evenodd;clip-rule:evenodd;fill:none;stroke:#000000;stroke-width:0.43;" y1="-47.53"/>
  <line y2="-32.967" x1="53.674" x2="53.674" style="fill-rule:evenodd;clip-rule:evenodd;fill:none;stroke:#000000;stroke-width:0.43;" y1="-38.53"/>
  <line y2="-23.967" x1="53.674" x2="53.674" style="fill-rule:evenodd;clip-rule:evenodd;fill:none;stroke:#000000;stroke-width:0.43;" y1="-29.53"/>
  <line y2="-14.967" x1="53.674" x2="53.674" style="fill-rule:evenodd;clip-rule:evenodd;fill:none;stroke:#000000;stroke-width:0.43;" y1="-20.53"/>
  <line y2="-5.967" x1="53.674" x2="53.674" style="fill-rule:evenodd;clip-rule:evenodd;fill:none;stroke:#000000;stroke-width:0.43;" y1="-11.53"/>
  <line y2="-68.967" x1="59.433" x2="59.433" style="fill-rule:evenodd;clip-rule:evenodd;fill:none;stroke:#000000;stroke-width:0.43;" y1="-74.53"/>
  <line y2="-59.967" x1="59.433" x2="59.433" style="fill-rule:evenodd;clip-rule:evenodd;fill:none;stroke:#000000;stroke-width:0.43;" y1="-65.53"/>
  <line y2="-50.967" x1="59.433" x2="59.433" style="fill-rule:evenodd;clip-rule:evenodd;fill:none;stroke:#000000;stroke-width:0.43;" y1="-56.53"/>
  <line y2="-41.967" x1="59.433" x2="59.433" style="fill-rule:evenodd;clip-rule:evenodd;fill:none;stroke:#000000;stroke-width:0.43;" y1="-47.53"/>
  <line y2="-32.967" x1="59.433" x2="59.433" style="fill-rule:evenodd;clip-rule:evenodd;fill:none;stroke:#000000;stroke-width:0.43;" y1="-38.53"/>
  <line y2="-23.967" x1="59.433" x2="59.433" style="fill-rule:evenodd;clip-rule:evenodd;fill:none;stroke:#000000;stroke-width:0.43;" y1="-29.53"/>
  <line y2="-14.967" x1="59.433" x2="59.433" style="fill-rule:evenodd;clip-rule:evenodd;fill:none;stroke:#000000;stroke-width:0.43;" y1="-20.53"/>
  <line y2="-5.967" x1="59.433" x2="59.433" style="fill-rule:evenodd;clip-rule:evenodd;fill:none;stroke:#000000;stroke-width:0.43;" y1="-11.53"/>
  <line y2="-68.967" x1="65.192" x2="65.192" style="fill-rule:evenodd;clip-rule:evenodd;fill:none;stroke:#000000;stroke-width:0.43;" y1="-74.53"/>
  <line y2="-59.967" x1="65.192" x2="65.192" style="fill-rule:evenodd;clip-rule:evenodd;fill:none;stroke:#000000;stroke-width:0.43;" y1="-65.53"/>
  <line y2="-50.967" x1="65.192" x2="65.192" style="fill-rule:evenodd;clip-rule:evenodd;fill:none;stroke:#000000;stroke-width:0.43;" y1="-56.53"/>
  <line y2="-41.967" x1="65.192" x2="65.192" style="fill-rule:evenodd;clip-rule:evenodd;fill:none;stroke:#000000;stroke-width:0.43;" y1="-47.53"/>
  <line y2="-32.967" x1="65.192" x2="65.192" style="fill-rule:evenodd;clip-rule:evenodd;fill:none;stroke:#000000;stroke-width:0.43;" y1="-38.53"/>
  <line y2="-23.967" x1="65.192" x2="65.192" style="fill-rule:evenodd;clip-rule:evenodd;fill:none;stroke:#000000;stroke-width:0.43;" y1="-29.53"/>
  <line y2="-14.967" x1="65.192" x2="65.192" style="fill-rule:evenodd;clip-rule:evenodd;fill:none;stroke:#000000;stroke-width:0.43;" y1="-20.53"/>
  <line y2="-5.967" x1="65.192" x2="65.192" style="fill-rule:evenodd;clip-rule:evenodd;fill:none;stroke:#000000;stroke-width:0.43;" y1="-11.53"/>
  <line y2="-68.967" x1="70.951" x2="70.951" style="fill-rule:evenodd;clip-rule:evenodd;fill:none;stroke:#000000;stroke-width:0.43;" y1="-74.53"/>
  <line y2="-59.967" x1="70.951" x2="70.951" style="fill-rule:evenodd;clip-rule:evenodd;fill:none;stroke:#000000;stroke-width:0.43;" y1="-65.53"/>
  <line y2="-50.967" x1="70.951" x2="70.951" style="fill-rule:evenodd;clip-rule:evenodd;fill:none;stroke:#000000;stroke-width:0.43;" y1="-56.53"/>
  <line y2="-41.967" x1="70.951" x2="70.951" style="fill-rule:evenodd;clip-rule:evenodd;fill:none;stroke:#000000;stroke-width:0.43;" y1="-47.53"/>
  <line y2="-32.967" x1="70.951" x2="70.951" style="fill-rule:evenodd;clip-rule:evenodd;fill:none;stroke:#000000;stroke-width:0.43;" y1="-38.53"/>
  <line y2="-23.967" x1="70.951" x2="70.951" style="fill-rule:evenodd;clip-rule:evenodd;fill:none;stroke:#000000;stroke-width:0.43;" y1="-29.53"/>
  <line y2="-14.967" x1="70.951" x2="70.951" style="fill-rule:evenodd;clip-rule:evenodd;fill:none;stroke:#000000;stroke-width:0.43;" y1="-20.53"/>
  <line y2="-5.967" x1="70.951" x2="70.951" style="fill-rule:evenodd;clip-rule:evenodd;fill:none;stroke:#000000;stroke-width:0.43;" y1="-11.53"/>
  <line y2="-68.967" x1="76.71" x2="76.71" style="fill-rule:evenodd;clip-rule:evenodd;fill:none;stroke:#000000;stroke-width:0.43;" y1="-74.53"/>
  <line y2="-59.967" x1="76.71" x2="76.71" style="fill-rule:evenodd;clip-rule:evenodd;fill:none;stroke:#000000;stroke-width:0.43;" y1="-65.53"/>
  <line y2="-50.967" x1="76.71" x2="76.71" style="fill-rule:evenodd;clip-rule:evenodd;fill:none;stroke:#000000;stroke-width:0.43;" y1="-56.53"/>
  <line y2="-41.967" x1="76.71" x2="76.71" style="fill-rule:evenodd;clip-rule:evenodd;fill:none;stroke:#000000;stroke-width:0.43;" y1="-47.53"/>
  <line y2="-32.967" x1="76.71" x2="76.71" style="fill-rule:evenodd;clip-rule:evenodd;fill:none;stroke:#000000;stroke-width:0.43;" y1="-38.53"/>
  <line y2="-23.967" x1="76.71" x2="76.71" style="fill-rule:evenodd;clip-rule:evenodd;fill:none;stroke:#000000;stroke-width:0.43;" y1="-29.53"/>
  <line y2="-14.967" x1="76.71" x2="76.71" style="fill-rule:evenodd;clip-rule:evenodd;fill:none;stroke:#000000;stroke-width:0.43;" y1="-20.53"/>
  <line y2="-5.967" x1="76.71" x2="76.71" style="fill-rule:evenodd;clip-rule:evenodd;fill:none;stroke:#000000;stroke-width:0.43;" y1="-11.53"/>
  <line y2="-73.825" x1="4.722" x2="4.722" style="fill-rule:evenodd;clip-rule:evenodd;fill:none;stroke:#000000;stroke-width:0.43;" y1="-79.388"/>
  <line y2="-64.825" x1="4.722" x2="4.722" style="fill-rule:evenodd;clip-rule:evenodd;fill:none;stroke:#000000;stroke-width:0.43;" y1="-70.388"/>
  <line y2="-55.825" x1="4.722" x2="4.722" style="fill-rule:evenodd;clip-rule:evenodd;fill:none;stroke:#000000;stroke-width:0.43;" y1="-61.388"/>
  <line y2="-46.825" x1="4.722" x2="4.722" style="fill-rule:evenodd;clip-rule:evenodd;fill:none;stroke:#000000;stroke-width:0.43;" y1="-52.388"/>
  <line y2="-37.825" x1="4.722" x2="4.722" style="fill-rule:evenodd;clip-rule:evenodd;fill:none;stroke:#000000;stroke-width:0.43;" y1="-43.388"/>
  <line y2="-28.825" x1="4.722" x2="4.722" style="fill-rule:evenodd;clip-rule:evenodd;fill:none;stroke:#000000;stroke-width:0.43;" y1="-34.388"/>
  <line y2="-19.825" x1="4.722" x2="4.722" style="fill-rule:evenodd;clip-rule:evenodd;fill:none;stroke:#000000;stroke-width:0.43;" y1="-25.388"/>
  <line y2="-10.825" x1="4.722" x2="4.722" style="fill-rule:evenodd;clip-rule:evenodd;fill:none;stroke:#000000;stroke-width:0.43;" y1="-16.388"/>
  <line y2="-1.825" x1="4.722" x2="4.722" style="fill-rule:evenodd;clip-rule:evenodd;fill:none;stroke:#000000;stroke-width:0.43;" y1="-7.388"/>
  <line y2="-73.825" x1="10.481" x2="10.481" style="fill-rule:evenodd;clip-rule:evenodd;fill:none;stroke:#000000;stroke-width:0.43;" y1="-79.388"/>
  <line y2="-64.825" x1="10.481" x2="10.481" style="fill-rule:evenodd;clip-rule:evenodd;fill:none;stroke:#000000;stroke-width:0.43;" y1="-70.388"/>
  <line y2="-55.825" x1="10.481" x2="10.481" style="fill-rule:evenodd;clip-rule:evenodd;fill:none;stroke:#000000;stroke-width:0.43;" y1="-61.388"/>
  <line y2="-46.825" x1="10.481" x2="10.481" style="fill-rule:evenodd;clip-rule:evenodd;fill:none;stroke:#000000;stroke-width:0.43;" y1="-52.388"/>
  <line y2="-37.825" x1="10.481" x2="10.481" style="fill-rule:evenodd;clip-rule:evenodd;fill:none;stroke:#000000;stroke-width:0.43;" y1="-43.388"/>
  <line y2="-28.825" x1="10.481" x2="10.481" style="fill-rule:evenodd;clip-rule:evenodd;fill:none;stroke:#000000;stroke-width:0.43;" y1="-34.388"/>
  <line y2="-19.825" x1="10.481" x2="10.481" style="fill-rule:evenodd;clip-rule:evenodd;fill:none;stroke:#000000;stroke-width:0.43;" y1="-25.388"/>
  <line y2="-10.825" x1="10.481" x2="10.481" style="fill-rule:evenodd;clip-rule:evenodd;fill:none;stroke:#000000;stroke-width:0.43;" y1="-16.388"/>
  <line y2="-1.825" x1="10.481" x2="10.481" style="fill-rule:evenodd;clip-rule:evenodd;fill:none;stroke:#000000;stroke-width:0.43;" y1="-7.388"/>
  <line y2="-73.825" x1="16.24" x2="16.24" style="fill-rule:evenodd;clip-rule:evenodd;fill:none;stroke:#000000;stroke-width:0.43;" y1="-79.388"/>
  <line y2="-64.825" x1="16.24" x2="16.24" style="fill-rule:evenodd;clip-rule:evenodd;fill:none;stroke:#000000;stroke-width:0.43;" y1="-70.388"/>
  <line y2="-55.825" x1="16.24" x2="16.24" style="fill-rule:evenodd;clip-rule:evenodd;fill:none;stroke:#000000;stroke-width:0.43;" y1="-61.388"/>
  <line y2="-46.825" x1="16.24" x2="16.24" style="fill-rule:evenodd;clip-rule:evenodd;fill:none;stroke:#000000;stroke-width:0.43;" y1="-52.388"/>
  <line y2="-37.825" x1="16.24" x2="16.24" style="fill-rule:evenodd;clip-rule:evenodd;fill:none;stroke:#000000;stroke-width:0.43;" y1="-43.388"/>
  <line y2="-28.825" x1="16.24" x2="16.24" style="fill-rule:evenodd;clip-rule:evenodd;fill:none;stroke:#000000;stroke-width:0.43;" y1="-34.388"/>
  <line y2="-19.825" x1="16.24" x2="16.24" style="fill-rule:evenodd;clip-rule:evenodd;fill:none;stroke:#000000;stroke-width:0.43;" y1="-25.388"/>
  <line y2="-10.825" x1="16.24" x2="16.24" style="fill-rule:evenodd;clip-rule:evenodd;fill:none;stroke:#000000;stroke-width:0.43;" y1="-16.388"/>
  <line y2="-1.825" x1="16.24" x2="16.24" style="fill-rule:evenodd;clip-rule:evenodd;fill:none;stroke:#000000;stroke-width:0.43;" y1="-7.388"/>
  <line y2="-73.825" x1="22" x2="22" style="fill-rule:evenodd;clip-rule:evenodd;fill:none;stroke:#000000;stroke-width:0.43;" y1="-79.388"/>
  <line y2="-64.825" x1="22" x2="22" style="fill-rule:evenodd;clip-rule:evenodd;fill:none;stroke:#000000;stroke-width:0.43;" y1="-70.388"/>
  <line y2="-55.825" x1="22" x2="22" style="fill-rule:evenodd;clip-rule:evenodd;fill:none;stroke:#000000;stroke-width:0.43;" y1="-61.388"/>
  <line y2="-46.825" x1="22" x2="22" style="fill-rule:evenodd;clip-rule:evenodd;fill:none;stroke:#000000;stroke-width:0.43;" y1="-52.388"/>
  <line y2="-37.825" x1="22" x2="22" style="fill-rule:evenodd;clip-rule:evenodd;fill:none;stroke:#000000;stroke-width:0.43;" y1="-43.388"/>
  <line y2="-28.825" x1="22" x2="22" style="fill-rule:evenodd;clip-rule:evenodd;fill:none;stroke:#000000;stroke-width:0.43;" y1="-34.388"/>
  <line y2="-19.825" x1="22" x2="22" style="fill-rule:evenodd;clip-rule:evenodd;fill:none;stroke:#000000;stroke-width:0.43;" y1="-25.388"/>
  <line y2="-10.825" x1="22" x2="22" style="fill-rule:evenodd;clip-rule:evenodd;fill:none;stroke:#000000;stroke-width:0.43;" y1="-16.388"/>
  <line y2="-1.825" x1="22" x2="22" style="fill-rule:evenodd;clip-rule:evenodd;fill:none;stroke:#000000;stroke-width:0.43;" y1="-7.388"/>
  <line y2="-73.825" x1="27.758" x2="27.758" style="fill-rule:evenodd;clip-rule:evenodd;fill:none;stroke:#000000;stroke-width:0.43;" y1="-79.388"/>
  <line y2="-64.825" x1="27.758" x2="27.758" style="fill-rule:evenodd;clip-rule:evenodd;fill:none;stroke:#000000;stroke-width:0.43;" y1="-70.388"/>
  <line y2="-55.825" x1="27.758" x2="27.758" style="fill-rule:evenodd;clip-rule:evenodd;fill:none;stroke:#000000;stroke-width:0.43;" y1="-61.388"/>
  <line y2="-46.825" x1="27.758" x2="27.758" style="fill-rule:evenodd;clip-rule:evenodd;fill:none;stroke:#000000;stroke-width:0.43;" y1="-52.388"/>
  <line y2="-37.825" x1="27.758" x2="27.758" style="fill-rule:evenodd;clip-rule:evenodd;fill:none;stroke:#000000;stroke-width:0.43;" y1="-43.388"/>
  <line y2="-28.825" x1="27.758" x2="27.758" style="fill-rule:evenodd;clip-rule:evenodd;fill:none;stroke:#000000;stroke-width:0.43;" y1="-34.388"/>
  <line y2="-19.825" x1="27.758" x2="27.758" style="fill-rule:evenodd;clip-rule:evenodd;fill:none;stroke:#000000;stroke-width:0.43;" y1="-25.388"/>
  <line y2="-10.825" x1="27.758" x2="27.758" style="fill-rule:evenodd;clip-rule:evenodd;fill:none;stroke:#000000;stroke-width:0.43;" y1="-16.388"/>
  <line y2="-1.825" x1="27.758" x2="27.758" style="fill-rule:evenodd;clip-rule:evenodd;fill:none;stroke:#000000;stroke-width:0.43;" y1="-7.388"/>
  <line y2="-73.825" x1="33.518" x2="33.518" style="fill-rule:evenodd;clip-rule:evenodd;fill:none;stroke:#000000;stroke-width:0.43;" y1="-79.388"/>
  <line y2="-64.825" x1="33.518" x2="33.518" style="fill-rule:evenodd;clip-rule:evenodd;fill:none;stroke:#000000;stroke-width:0.43;" y1="-70.388"/>
  <line y2="-55.825" x1="33.518" x2="33.518" style="fill-rule:evenodd;clip-rule:evenodd;fill:none;stroke:#000000;stroke-width:0.43;" y1="-61.388"/>
  <line y2="-46.825" x1="33.518" x2="33.518" style="fill-rule:evenodd;clip-rule:evenodd;fill:none;stroke:#000000;stroke-width:0.43;" y1="-52.388"/>
  <line y2="-37.825" x1="33.518" x2="33.518" style="fill-rule:evenodd;clip-rule:evenodd;fill:none;stroke:#000000;stroke-width:0.43;" y1="-43.388"/>
  <line y2="-28.825" x1="33.518" x2="33.518" style="fill-rule:evenodd;clip-rule:evenodd;fill:none;stroke:#000000;stroke-width:0.43;" y1="-34.388"/>
  <line y2="-19.825" x1="33.518" x2="33.518" style="fill-rule:evenodd;clip-rule:evenodd;fill:none;stroke:#000000;stroke-width:0.43;" y1="-25.388"/>
  <line y2="-10.825" x1="33.518" x2="33.518" style="fill-rule:evenodd;clip-rule:evenodd;fill:none;stroke:#000000;stroke-width:0.43;" y1="-16.388"/>
  <line y2="-1.825" x1="33.518" x2="33.518" style="fill-rule:evenodd;clip-rule:evenodd;fill:none;stroke:#000000;stroke-width:0.43;" y1="-7.388"/>
  <line y2="-73.825" x1="39.276" x2="39.276" style="fill-rule:evenodd;clip-rule:evenodd;fill:none;stroke:#000000;stroke-width:0.43;" y1="-79.388"/>
  <line y2="-64.825" x1="39.276" x2="39.276" style="fill-rule:evenodd;clip-rule:evenodd;fill:none;stroke:#000000;stroke-width:0.43;" y1="-70.388"/>
  <line y2="-55.825" x1="39.276" x2="39.276" style="fill-rule:evenodd;clip-rule:evenodd;fill:none;stroke:#000000;stroke-width:0.43;" y1="-61.388"/>
  <line y2="-46.825" x1="39.276" x2="39.276" style="fill-rule:evenodd;clip-rule:evenodd;fill:none;stroke:#000000;stroke-width:0.43;" y1="-52.388"/>
  <line y2="-37.825" x1="39.276" x2="39.276" style="fill-rule:evenodd;clip-rule:evenodd;fill:none;stroke:#000000;stroke-width:0.43;" y1="-43.388"/>
  <line y2="-28.825" x1="39.276" x2="39.276" style="fill-rule:evenodd;clip-rule:evenodd;fill:none;stroke:#000000;stroke-width:0.43;" y1="-34.388"/>
  <line y2="-19.825" x1="39.276" x2="39.276" style="fill-rule:evenodd;clip-rule:evenodd;fill:none;stroke:#000000;stroke-width:0.43;" y1="-25.388"/>
  <line y2="-10.825" x1="39.276" x2="39.276" style="fill-rule:evenodd;clip-rule:evenodd;fill:none;stroke:#000000;stroke-width:0.43;" y1="-16.388"/>
  <line y2="-1.825" x1="39.276" x2="39.276" style="fill-rule:evenodd;clip-rule:evenodd;fill:none;stroke:#000000;stroke-width:0.43;" y1="-7.388"/>
  <line y2="-73.825" x1="45.036" x2="45.036" style="fill-rule:evenodd;clip-rule:evenodd;fill:none;stroke:#000000;stroke-width:0.43;" y1="-79.388"/>
  <line y2="-64.825" x1="45.036" x2="45.036" style="fill-rule:evenodd;clip-rule:evenodd;fill:none;stroke:#000000;stroke-width:0.43;" y1="-70.388"/>
  <line y2="-55.825" x1="45.036" x2="45.036" style="fill-rule:evenodd;clip-rule:evenodd;fill:none;stroke:#000000;stroke-width:0.43;" y1="-61.388"/>
  <line y2="-46.825" x1="45.036" x2="45.036" style="fill-rule:evenodd;clip-rule:evenodd;fill:none;stroke:#000000;stroke-width:0.43;" y1="-52.388"/>
  <line y2="-37.825" x1="45.036" x2="45.036" style="fill-rule:evenodd;clip-rule:evenodd;fill:none;stroke:#000000;stroke-width:0.43;" y1="-43.388"/>
  <line y2="-28.825" x1="45.036" x2="45.036" style="fill-rule:evenodd;clip-rule:evenodd;fill:none;stroke:#000000;stroke-width:0.43;" y1="-34.388"/>
  <line y2="-19.825" x1="45.036" x2="45.036" style="fill-rule:evenodd;clip-rule:evenodd;fill:none;stroke:#000000;stroke-width:0.43;" y1="-25.388"/>
  <line y2="-10.825" x1="45.036" x2="45.036" style="fill-rule:evenodd;clip-rule:evenodd;fill:none;stroke:#000000;stroke-width:0.43;" y1="-16.388"/>
  <line y2="-1.825" x1="45.036" x2="45.036" style="fill-rule:evenodd;clip-rule:evenodd;fill:none;stroke:#000000;stroke-width:0.43;" y1="-7.388"/>
  <line y2="-73.825" x1="50.794" x2="50.794" style="fill-rule:evenodd;clip-rule:evenodd;fill:none;stroke:#000000;stroke-width:0.43;" y1="-79.388"/>
  <line y2="-64.825" x1="50.794" x2="50.794" style="fill-rule:evenodd;clip-rule:evenodd;fill:none;stroke:#000000;stroke-width:0.43;" y1="-70.388"/>
  <line y2="-55.825" x1="50.794" x2="50.794" style="fill-rule:evenodd;clip-rule:evenodd;fill:none;stroke:#000000;stroke-width:0.43;" y1="-61.388"/>
  <line y2="-46.825" x1="50.794" x2="50.794" style="fill-rule:evenodd;clip-rule:evenodd;fill:none;stroke:#000000;stroke-width:0.43;" y1="-52.388"/>
  <line y2="-37.825" x1="50.794" x2="50.794" style="fill-rule:evenodd;clip-rule:evenodd;fill:none;stroke:#000000;stroke-width:0.43;" y1="-43.388"/>
  <line y2="-28.825" x1="50.794" x2="50.794" style="fill-rule:evenodd;clip-rule:evenodd;fill:none;stroke:#000000;stroke-width:0.43;" y1="-34.388"/>
  <line y2="-19.825" x1="50.794" x2="50.794" style="fill-rule:evenodd;clip-rule:evenodd;fill:none;stroke:#000000;stroke-width:0.43;" y1="-25.388"/>
  <line y2="-10.825" x1="50.794" x2="50.794" style="fill-rule:evenodd;clip-rule:evenodd;fill:none;stroke:#000000;stroke-width:0.43;" y1="-16.388"/>
  <line y2="-1.825" x1="50.794" x2="50.794" style="fill-rule:evenodd;clip-rule:evenodd;fill:none;stroke:#000000;stroke-width:0.43;" y1="-7.388"/>
  <line y2="-73.825" x1="56.554" x2="56.554" style="fill-rule:evenodd;clip-rule:evenodd;fill:none;stroke:#000000;stroke-width:0.43;" y1="-79.388"/>
  <line y2="-64.825" x1="56.554" x2="56.554" style="fill-rule:evenodd;clip-rule:evenodd;fill:none;stroke:#000000;stroke-width:0.43;" y1="-70.388"/>
  <line y2="-55.825" x1="56.554" x2="56.554" style="fill-rule:evenodd;clip-rule:evenodd;fill:none;stroke:#000000;stroke-width:0.43;" y1="-61.388"/>
  <line y2="-46.825" x1="56.554" x2="56.554" style="fill-rule:evenodd;clip-rule:evenodd;fill:none;stroke:#000000;stroke-width:0.43;" y1="-52.388"/>
  <line y2="-37.825" x1="56.554" x2="56.554" style="fill-rule:evenodd;clip-rule:evenodd;fill:none;stroke:#000000;stroke-width:0.43;" y1="-43.388"/>
  <line y2="-28.825" x1="56.554" x2="56.554" style="fill-rule:evenodd;clip-rule:evenodd;fill:none;stroke:#000000;stroke-width:0.43;" y1="-34.388"/>
  <line y2="-19.825" x1="56.554" x2="56.554" style="fill-rule:evenodd;clip-rule:evenodd;fill:none;stroke:#000000;stroke-width:0.43;" y1="-25.388"/>
  <line y2="-10.825" x1="56.554" x2="56.554" style="fill-rule:evenodd;clip-rule:evenodd;fill:none;stroke:#000000;stroke-width:0.43;" y1="-16.388"/>
  <line y2="-1.825" x1="56.554" x2="56.554" style="fill-rule:evenodd;clip-rule:evenodd;fill:none;stroke:#000000;stroke-width:0.43;" y1="-7.388"/>
  <line y2="-73.825" x1="62.312" x2="62.312" style="fill-rule:evenodd;clip-rule:evenodd;fill:none;stroke:#000000;stroke-width:0.43;" y1="-79.388"/>
  <line y2="-64.825" x1="62.312" x2="62.312" style="fill-rule:evenodd;clip-rule:evenodd;fill:none;stroke:#000000;stroke-width:0.43;" y1="-70.388"/>
  <line y2="-55.825" x1="62.312" x2="62.312" style="fill-rule:evenodd;clip-rule:evenodd;fill:none;stroke:#000000;stroke-width:0.43;" y1="-61.388"/>
  <line y2="-46.825" x1="62.312" x2="62.312" style="fill-rule:evenodd;clip-rule:evenodd;fill:none;stroke:#000000;stroke-width:0.43;" y1="-52.388"/>
  <line y2="-37.825" x1="62.312" x2="62.312" style="fill-rule:evenodd;clip-rule:evenodd;fill:none;stroke:#000000;stroke-width:0.43;" y1="-43.388"/>
  <line y2="-28.825" x1="62.312" x2="62.312" style="fill-rule:evenodd;clip-rule:evenodd;fill:none;stroke:#000000;stroke-width:0.43;" y1="-34.388"/>
  <line y2="-19.825" x1="62.312" x2="62.312" style="fill-rule:evenodd;clip-rule:evenodd;fill:none;stroke:#000000;stroke-width:0.43;" y1="-25.388"/>
  <line y2="-10.825" x1="62.312" x2="62.312" style="fill-rule:evenodd;clip-rule:evenodd;fill:none;stroke:#000000;stroke-width:0.43;" y1="-16.388"/>
  <line y2="-1.825" x1="62.312" x2="62.312" style="fill-rule:evenodd;clip-rule:evenodd;fill:none;stroke:#000000;stroke-width:0.43;" y1="-7.388"/>
  <line y2="-73.825" x1="68.072" x2="68.072" style="fill-rule:evenodd;clip-rule:evenodd;fill:none;stroke:#000000;stroke-width:0.43;" y1="-79.388"/>
  <line y2="-64.825" x1="68.072" x2="68.072" style="fill-rule:evenodd;clip-rule:evenodd;fill:none;stroke:#000000;stroke-width:0.43;" y1="-70.388"/>
  <line y2="-55.825" x1="68.072" x2="68.072" style="fill-rule:evenodd;clip-rule:evenodd;fill:none;stroke:#000000;stroke-width:0.43;" y1="-61.388"/>
  <line y2="-46.825" x1="68.072" x2="68.072" style="fill-rule:evenodd;clip-rule:evenodd;fill:none;stroke:#000000;stroke-width:0.43;" y1="-52.388"/>
  <line y2="-37.825" x1="68.072" x2="68.072" style="fill-rule:evenodd;clip-rule:evenodd;fill:none;stroke:#000000;stroke-width:0.43;" y1="-43.388"/>
  <line y2="-28.825" x1="68.072" x2="68.072" style="fill-rule:evenodd;clip-rule:evenodd;fill:none;stroke:#000000;stroke-width:0.43;" y1="-34.388"/>
  <line y2="-19.825" x1="68.072" x2="68.072" style="fill-rule:evenodd;clip-rule:evenodd;fill:none;stroke:#000000;stroke-width:0.43;" y1="-25.388"/>
  <line y2="-10.825" x1="68.072" x2="68.072" style="fill-rule:evenodd;clip-rule:evenodd;fill:none;stroke:#000000;stroke-width:0.43;" y1="-16.388"/>
  <line y2="-1.825" x1="68.072" x2="68.072" style="fill-rule:evenodd;clip-rule:evenodd;fill:none;stroke:#000000;stroke-width:0.43;" y1="-7.388"/>
  <line y2="-73.825" x1="73.831" x2="73.831" style="fill-rule:evenodd;clip-rule:evenodd;fill:none;stroke:#000000;stroke-width:0.43;" y1="-79.388"/>
  <line y2="-64.825" x1="73.831" x2="73.831" style="fill-rule:evenodd;clip-rule:evenodd;fill:none;stroke:#000000;stroke-width:0.43;" y1="-70.388"/>
  <line y2="-55.825" x1="73.831" x2="73.831" style="fill-rule:evenodd;clip-rule:evenodd;fill:none;stroke:#000000;stroke-width:0.43;" y1="-61.388"/>
  <line y2="-46.825" x1="73.831" x2="73.831" style="fill-rule:evenodd;clip-rule:evenodd;fill:none;stroke:#000000;stroke-width:0.43;" y1="-52.388"/>
  <line y2="-37.825" x1="73.831" x2="73.831" style="fill-rule:evenodd;clip-rule:evenodd;fill:none;stroke:#000000;stroke-width:0.43;" y1="-43.388"/>
  <line y2="-28.825" x1="73.831" x2="73.831" style="fill-rule:evenodd;clip-rule:evenodd;fill:none;stroke:#000000;stroke-width:0.43;" y1="-34.388"/>
  <line y2="-19.825" x1="73.831" x2="73.831" style="fill-rule:evenodd;clip-rule:evenodd;fill:none;stroke:#000000;stroke-width:0.43;" y1="-25.388"/>
  <line y2="-10.825" x1="73.831" x2="73.831" style="fill-rule:evenodd;clip-rule:evenodd;fill:none;stroke:#000000;stroke-width:0.43;" y1="-16.388"/>
  <line y2="-1.825" x1="73.831" x2="73.831" style="fill-rule:evenodd;clip-rule:evenodd;fill:none;stroke:#000000;stroke-width:0.43;" y1="-7.388"/>
  <line y2="-73.825" x1="79.59" x2="79.59" style="fill-rule:evenodd;clip-rule:evenodd;fill:none;stroke:#000000;stroke-width:0.43;" y1="-79.388"/>
  <line y2="-64.825" x1="79.59" x2="79.59" style="fill-rule:evenodd;clip-rule:evenodd;fill:none;stroke:#000000;stroke-width:0.43;" y1="-70.388"/>
  <line y2="-55.825" x1="79.59" x2="79.59" style="fill-rule:evenodd;clip-rule:evenodd;fill:none;stroke:#000000;stroke-width:0.43;" y1="-61.388"/>
  <line y2="-46.825" x1="79.59" x2="79.59" style="fill-rule:evenodd;clip-rule:evenodd;fill:none;stroke:#000000;stroke-width:0.43;" y1="-52.388"/>
  <line y2="-37.825" x1="79.59" x2="79.59" style="fill-rule:evenodd;clip-rule:evenodd;fill:none;stroke:#000000;stroke-width:0.43;" y1="-43.388"/>
  <line y2="-28.825" x1="79.59" x2="79.59" style="fill-rule:evenodd;clip-rule:evenodd;fill:none;stroke:#000000;stroke-width:0.43;" y1="-34.388"/>
  <line y2="-19.825" x1="79.59" x2="79.59" style="fill-rule:evenodd;clip-rule:evenodd;fill:none;stroke:#000000;stroke-width:0.43;" y1="-25.388"/>
  <line y2="-10.825" x1="79.59" x2="79.59" style="fill-rule:evenodd;clip-rule:evenodd;fill:none;stroke:#000000;stroke-width:0.43;" y1="-16.388"/>
  <line y2="-1.825" x1="79.59" x2="79.59" style="fill-rule:evenodd;clip-rule:evenodd;fill:none;stroke:#000000;stroke-width:0.43;" y1="-7.388"/>
  <rect width="80.646" x="0" y="-80.646" style="fill-rule:evenodd;clip-rule:evenodd;fill:none;" height="80.646"/>
  <rect width="80.646" x="0" y="-80.646" style="fill-rule:evenodd;clip-rule:evenodd;fill:none;" height="80.646"/>
 </g>
</svg>
