<?xml version="1.0"?>
<!-- Converted with SVG Converter - Version 0.9.6 (Compiled Thu Aug 31 10:01:05 2017) - Copyright (C) 2011 Nokia -->
<svg xmlns="http://www.w3.org/2000/svg" x="0px" height="80.646" y="0px" viewBox="0 -80.646 80.646 80.646" baseProfile="tiny" xmlns:xlink="http://www.w3.org/1999/xlink" xml:space="preserve" width="80.646" version="1.1">
 <g>
  <rect x="0" height="80.646" y="-80.646" width="80.646" style="fill:none;"/>
  <rect x="0" height="80.646" y="-80.646" width="80.646" style="fill-rule:evenodd;clip-rule:evenodd;"/>
  <line y2="-77.968" y1="-80.646" x1="1.843" style="fill-rule:evenodd;clip-rule:evenodd;fill:none;stroke:#FFFFFF;stroke-width:0.58;" x2="1.843"/>
  <line y2="0" y1="-2.53" x1="1.843" style="fill-rule:evenodd;clip-rule:evenodd;fill:none;stroke:#FFFFFF;stroke-width:0.58;" x2="1.843"/>
  <line y2="-77.968" y1="-80.646" x1="7.602" style="fill-rule:evenodd;clip-rule:evenodd;fill:none;stroke:#FFFFFF;stroke-width:0.58;" x2="7.602"/>
  <line y2="0" y1="-2.53" x1="7.602" style="fill-rule:evenodd;clip-rule:evenodd;fill:none;stroke:#FFFFFF;stroke-width:0.58;" x2="7.602"/>
  <line y2="-77.968" y1="-80.646" x1="13.361" style="fill-rule:evenodd;clip-rule:evenodd;fill:none;stroke:#FFFFFF;stroke-width:0.58;" x2="13.361"/>
  <line y2="0" y1="-2.53" x1="13.361" style="fill-rule:evenodd;clip-rule:evenodd;fill:none;stroke:#FFFFFF;stroke-width:0.58;" x2="13.361"/>
  <line y2="-77.968" y1="-80.646" x1="19.12" style="fill-rule:evenodd;clip-rule:evenodd;fill:none;stroke:#FFFFFF;stroke-width:0.58;" x2="19.12"/>
  <line y2="0" y1="-2.53" x1="19.12" style="fill-rule:evenodd;clip-rule:evenodd;fill:none;stroke:#FFFFFF;stroke-width:0.58;" x2="19.12"/>
  <line y2="-77.968" y1="-80.646" x1="24.879" style="fill-rule:evenodd;clip-rule:evenodd;fill:none;stroke:#FFFFFF;stroke-width:0.58;" x2="24.879"/>
  <line y2="0" y1="-2.53" x1="24.879" style="fill-rule:evenodd;clip-rule:evenodd;fill:none;stroke:#FFFFFF;stroke-width:0.58;" x2="24.879"/>
  <line y2="-77.968" y1="-80.646" x1="30.638" style="fill-rule:evenodd;clip-rule:evenodd;fill:none;stroke:#FFFFFF;stroke-width:0.58;" x2="30.638"/>
  <line y2="0" y1="-2.53" x1="30.638" style="fill-rule:evenodd;clip-rule:evenodd;fill:none;stroke:#FFFFFF;stroke-width:0.58;" x2="30.638"/>
  <line y2="-77.968" y1="-80.646" x1="36.397" style="fill-rule:evenodd;clip-rule:evenodd;fill:none;stroke:#FFFFFF;stroke-width:0.58;" x2="36.397"/>
  <line y2="0" y1="-2.53" x1="36.397" style="fill-rule:evenodd;clip-rule:evenodd;fill:none;stroke:#FFFFFF;stroke-width:0.58;" x2="36.397"/>
  <line y2="-77.968" y1="-80.646" x1="42.156" style="fill-rule:evenodd;clip-rule:evenodd;fill:none;stroke:#FFFFFF;stroke-width:0.58;" x2="42.156"/>
  <line y2="0" y1="-2.53" x1="42.156" style="fill-rule:evenodd;clip-rule:evenodd;fill:none;stroke:#FFFFFF;stroke-width:0.58;" x2="42.156"/>
  <line y2="-77.968" y1="-80.646" x1="47.915" style="fill-rule:evenodd;clip-rule:evenodd;fill:none;stroke:#FFFFFF;stroke-width:0.58;" x2="47.915"/>
  <line y2="0" y1="-2.53" x1="47.915" style="fill-rule:evenodd;clip-rule:evenodd;fill:none;stroke:#FFFFFF;stroke-width:0.58;" x2="47.915"/>
  <line y2="-77.968" y1="-80.646" x1="53.674" style="fill-rule:evenodd;clip-rule:evenodd;fill:none;stroke:#FFFFFF;stroke-width:0.58;" x2="53.674"/>
  <line y2="0" y1="-2.53" x1="53.674" style="fill-rule:evenodd;clip-rule:evenodd;fill:none;stroke:#FFFFFF;stroke-width:0.58;" x2="53.674"/>
  <line y2="-77.968" y1="-80.646" x1="59.433" style="fill-rule:evenodd;clip-rule:evenodd;fill:none;stroke:#FFFFFF;stroke-width:0.58;" x2="59.433"/>
  <line y2="0" y1="-2.53" x1="59.433" style="fill-rule:evenodd;clip-rule:evenodd;fill:none;stroke:#FFFFFF;stroke-width:0.58;" x2="59.433"/>
  <line y2="-77.968" y1="-80.646" x1="65.192" style="fill-rule:evenodd;clip-rule:evenodd;fill:none;stroke:#FFFFFF;stroke-width:0.58;" x2="65.192"/>
  <line y2="0" y1="-2.53" x1="65.192" style="fill-rule:evenodd;clip-rule:evenodd;fill:none;stroke:#FFFFFF;stroke-width:0.58;" x2="65.192"/>
  <line y2="-77.968" y1="-80.646" x1="70.951" style="fill-rule:evenodd;clip-rule:evenodd;fill:none;stroke:#FFFFFF;stroke-width:0.58;" x2="70.951"/>
  <line y2="0" y1="-2.53" x1="70.951" style="fill-rule:evenodd;clip-rule:evenodd;fill:none;stroke:#FFFFFF;stroke-width:0.58;" x2="70.951"/>
  <line y2="-77.968" y1="-80.646" x1="76.71" style="fill-rule:evenodd;clip-rule:evenodd;fill:none;stroke:#FFFFFF;stroke-width:0.58;" x2="76.71"/>
  <line y2="0" y1="-2.53" x1="76.71" style="fill-rule:evenodd;clip-rule:evenodd;fill:none;stroke:#FFFFFF;stroke-width:0.58;" x2="76.71"/>
  <line y2="-68.968" y1="-74.53" x1="1.843" style="fill-rule:evenodd;clip-rule:evenodd;fill:none;stroke:#FFFFFF;stroke-width:0.58;" x2="1.843"/>
  <line y2="-59.968" y1="-65.53" x1="1.843" style="fill-rule:evenodd;clip-rule:evenodd;fill:none;stroke:#FFFFFF;stroke-width:0.58;" x2="1.843"/>
  <line y2="-50.968" y1="-56.53" x1="1.843" style="fill-rule:evenodd;clip-rule:evenodd;fill:none;stroke:#FFFFFF;stroke-width:0.58;" x2="1.843"/>
  <line y2="-41.968" y1="-47.53" x1="1.843" style="fill-rule:evenodd;clip-rule:evenodd;fill:none;stroke:#FFFFFF;stroke-width:0.58;" x2="1.843"/>
  <line y2="-32.968" y1="-38.53" x1="1.843" style="fill-rule:evenodd;clip-rule:evenodd;fill:none;stroke:#FFFFFF;stroke-width:0.58;" x2="1.843"/>
  <line y2="-23.968" y1="-29.53" x1="1.843" style="fill-rule:evenodd;clip-rule:evenodd;fill:none;stroke:#FFFFFF;stroke-width:0.58;" x2="1.843"/>
  <line y2="-14.968" y1="-20.53" x1="1.843" style="fill-rule:evenodd;clip-rule:evenodd;fill:none;stroke:#FFFFFF;stroke-width:0.58;" x2="1.843"/>
  <line y2="-5.968" y1="-11.53" x1="1.843" style="fill-rule:evenodd;clip-rule:evenodd;fill:none;stroke:#FFFFFF;stroke-width:0.58;" x2="1.843"/>
  <line y2="-68.968" y1="-74.53" x1="7.602" style="fill-rule:evenodd;clip-rule:evenodd;fill:none;stroke:#FFFFFF;stroke-width:0.58;" x2="7.602"/>
  <line y2="-59.968" y1="-65.53" x1="7.602" style="fill-rule:evenodd;clip-rule:evenodd;fill:none;stroke:#FFFFFF;stroke-width:0.58;" x2="7.602"/>
  <line y2="-50.968" y1="-56.53" x1="7.602" style="fill-rule:evenodd;clip-rule:evenodd;fill:none;stroke:#FFFFFF;stroke-width:0.58;" x2="7.602"/>
  <line y2="-41.968" y1="-47.53" x1="7.602" style="fill-rule:evenodd;clip-rule:evenodd;fill:none;stroke:#FFFFFF;stroke-width:0.58;" x2="7.602"/>
  <line y2="-32.968" y1="-38.53" x1="7.602" style="fill-rule:evenodd;clip-rule:evenodd;fill:none;stroke:#FFFFFF;stroke-width:0.58;" x2="7.602"/>
  <line y2="-23.968" y1="-29.53" x1="7.602" style="fill-rule:evenodd;clip-rule:evenodd;fill:none;stroke:#FFFFFF;stroke-width:0.58;" x2="7.602"/>
  <line y2="-14.968" y1="-20.53" x1="7.602" style="fill-rule:evenodd;clip-rule:evenodd;fill:none;stroke:#FFFFFF;stroke-width:0.58;" x2="7.602"/>
  <line y2="-5.968" y1="-11.53" x1="7.602" style="fill-rule:evenodd;clip-rule:evenodd;fill:none;stroke:#FFFFFF;stroke-width:0.58;" x2="7.602"/>
  <line y2="-68.968" y1="-74.53" x1="13.361" style="fill-rule:evenodd;clip-rule:evenodd;fill:none;stroke:#FFFFFF;stroke-width:0.58;" x2="13.361"/>
  <line y2="-59.968" y1="-65.53" x1="13.361" style="fill-rule:evenodd;clip-rule:evenodd;fill:none;stroke:#FFFFFF;stroke-width:0.58;" x2="13.361"/>
  <line y2="-50.968" y1="-56.53" x1="13.361" style="fill-rule:evenodd;clip-rule:evenodd;fill:none;stroke:#FFFFFF;stroke-width:0.58;" x2="13.361"/>
  <line y2="-41.968" y1="-47.53" x1="13.361" style="fill-rule:evenodd;clip-rule:evenodd;fill:none;stroke:#FFFFFF;stroke-width:0.58;" x2="13.361"/>
  <line y2="-32.968" y1="-38.53" x1="13.361" style="fill-rule:evenodd;clip-rule:evenodd;fill:none;stroke:#FFFFFF;stroke-width:0.58;" x2="13.361"/>
  <line y2="-23.968" y1="-29.53" x1="13.361" style="fill-rule:evenodd;clip-rule:evenodd;fill:none;stroke:#FFFFFF;stroke-width:0.58;" x2="13.361"/>
  <line y2="-14.968" y1="-20.53" x1="13.361" style="fill-rule:evenodd;clip-rule:evenodd;fill:none;stroke:#FFFFFF;stroke-width:0.58;" x2="13.361"/>
  <line y2="-5.968" y1="-11.53" x1="13.361" style="fill-rule:evenodd;clip-rule:evenodd;fill:none;stroke:#FFFFFF;stroke-width:0.58;" x2="13.361"/>
  <line y2="-68.968" y1="-74.53" x1="19.12" style="fill-rule:evenodd;clip-rule:evenodd;fill:none;stroke:#FFFFFF;stroke-width:0.58;" x2="19.12"/>
  <line y2="-59.968" y1="-65.53" x1="19.12" style="fill-rule:evenodd;clip-rule:evenodd;fill:none;stroke:#FFFFFF;stroke-width:0.58;" x2="19.12"/>
  <line y2="-50.968" y1="-56.53" x1="19.12" style="fill-rule:evenodd;clip-rule:evenodd;fill:none;stroke:#FFFFFF;stroke-width:0.58;" x2="19.12"/>
  <line y2="-41.968" y1="-47.53" x1="19.12" style="fill-rule:evenodd;clip-rule:evenodd;fill:none;stroke:#FFFFFF;stroke-width:0.58;" x2="19.12"/>
  <line y2="-32.968" y1="-38.53" x1="19.12" style="fill-rule:evenodd;clip-rule:evenodd;fill:none;stroke:#FFFFFF;stroke-width:0.58;" x2="19.12"/>
  <line y2="-23.968" y1="-29.53" x1="19.12" style="fill-rule:evenodd;clip-rule:evenodd;fill:none;stroke:#FFFFFF;stroke-width:0.58;" x2="19.12"/>
  <line y2="-14.968" y1="-20.53" x1="19.12" style="fill-rule:evenodd;clip-rule:evenodd;fill:none;stroke:#FFFFFF;stroke-width:0.58;" x2="19.12"/>
  <line y2="-5.968" y1="-11.53" x1="19.12" style="fill-rule:evenodd;clip-rule:evenodd;fill:none;stroke:#FFFFFF;stroke-width:0.58;" x2="19.12"/>
  <line y2="-68.968" y1="-74.53" x1="24.879" style="fill-rule:evenodd;clip-rule:evenodd;fill:none;stroke:#FFFFFF;stroke-width:0.58;" x2="24.879"/>
  <line y2="-59.968" y1="-65.53" x1="24.879" style="fill-rule:evenodd;clip-rule:evenodd;fill:none;stroke:#FFFFFF;stroke-width:0.58;" x2="24.879"/>
  <line y2="-50.968" y1="-56.53" x1="24.879" style="fill-rule:evenodd;clip-rule:evenodd;fill:none;stroke:#FFFFFF;stroke-width:0.58;" x2="24.879"/>
  <line y2="-41.968" y1="-47.53" x1="24.879" style="fill-rule:evenodd;clip-rule:evenodd;fill:none;stroke:#FFFFFF;stroke-width:0.58;" x2="24.879"/>
  <line y2="-32.968" y1="-38.53" x1="24.879" style="fill-rule:evenodd;clip-rule:evenodd;fill:none;stroke:#FFFFFF;stroke-width:0.58;" x2="24.879"/>
  <line y2="-23.968" y1="-29.53" x1="24.879" style="fill-rule:evenodd;clip-rule:evenodd;fill:none;stroke:#FFFFFF;stroke-width:0.58;" x2="24.879"/>
  <line y2="-14.968" y1="-20.53" x1="24.879" style="fill-rule:evenodd;clip-rule:evenodd;fill:none;stroke:#FFFFFF;stroke-width:0.58;" x2="24.879"/>
  <line y2="-5.968" y1="-11.53" x1="24.879" style="fill-rule:evenodd;clip-rule:evenodd;fill:none;stroke:#FFFFFF;stroke-width:0.58;" x2="24.879"/>
  <line y2="-68.968" y1="-74.53" x1="30.638" style="fill-rule:evenodd;clip-rule:evenodd;fill:none;stroke:#FFFFFF;stroke-width:0.58;" x2="30.638"/>
  <line y2="-59.968" y1="-65.53" x1="30.638" style="fill-rule:evenodd;clip-rule:evenodd;fill:none;stroke:#FFFFFF;stroke-width:0.58;" x2="30.638"/>
  <line y2="-50.968" y1="-56.53" x1="30.638" style="fill-rule:evenodd;clip-rule:evenodd;fill:none;stroke:#FFFFFF;stroke-width:0.58;" x2="30.638"/>
  <line y2="-41.968" y1="-47.53" x1="30.638" style="fill-rule:evenodd;clip-rule:evenodd;fill:none;stroke:#FFFFFF;stroke-width:0.58;" x2="30.638"/>
  <line y2="-32.968" y1="-38.53" x1="30.638" style="fill-rule:evenodd;clip-rule:evenodd;fill:none;stroke:#FFFFFF;stroke-width:0.58;" x2="30.638"/>
  <line y2="-23.968" y1="-29.53" x1="30.638" style="fill-rule:evenodd;clip-rule:evenodd;fill:none;stroke:#FFFFFF;stroke-width:0.58;" x2="30.638"/>
  <line y2="-14.968" y1="-20.53" x1="30.638" style="fill-rule:evenodd;clip-rule:evenodd;fill:none;stroke:#FFFFFF;stroke-width:0.58;" x2="30.638"/>
  <line y2="-5.968" y1="-11.53" x1="30.638" style="fill-rule:evenodd;clip-rule:evenodd;fill:none;stroke:#FFFFFF;stroke-width:0.58;" x2="30.638"/>
  <line y2="-68.968" y1="-74.53" x1="36.397" style="fill-rule:evenodd;clip-rule:evenodd;fill:none;stroke:#FFFFFF;stroke-width:0.58;" x2="36.397"/>
  <line y2="-59.968" y1="-65.53" x1="36.397" style="fill-rule:evenodd;clip-rule:evenodd;fill:none;stroke:#FFFFFF;stroke-width:0.58;" x2="36.397"/>
  <line y2="-50.968" y1="-56.53" x1="36.397" style="fill-rule:evenodd;clip-rule:evenodd;fill:none;stroke:#FFFFFF;stroke-width:0.58;" x2="36.397"/>
  <line y2="-41.968" y1="-47.53" x1="36.397" style="fill-rule:evenodd;clip-rule:evenodd;fill:none;stroke:#FFFFFF;stroke-width:0.58;" x2="36.397"/>
  <line y2="-32.968" y1="-38.53" x1="36.397" style="fill-rule:evenodd;clip-rule:evenodd;fill:none;stroke:#FFFFFF;stroke-width:0.58;" x2="36.397"/>
  <line y2="-23.968" y1="-29.53" x1="36.397" style="fill-rule:evenodd;clip-rule:evenodd;fill:none;stroke:#FFFFFF;stroke-width:0.58;" x2="36.397"/>
  <line y2="-14.968" y1="-20.53" x1="36.397" style="fill-rule:evenodd;clip-rule:evenodd;fill:none;stroke:#FFFFFF;stroke-width:0.58;" x2="36.397"/>
  <line y2="-5.968" y1="-11.53" x1="36.397" style="fill-rule:evenodd;clip-rule:evenodd;fill:none;stroke:#FFFFFF;stroke-width:0.58;" x2="36.397"/>
  <line y2="-68.968" y1="-74.53" x1="42.156" style="fill-rule:evenodd;clip-rule:evenodd;fill:none;stroke:#FFFFFF;stroke-width:0.58;" x2="42.156"/>
  <line y2="-59.968" y1="-65.53" x1="42.156" style="fill-rule:evenodd;clip-rule:evenodd;fill:none;stroke:#FFFFFF;stroke-width:0.58;" x2="42.156"/>
  <line y2="-50.968" y1="-56.53" x1="42.156" style="fill-rule:evenodd;clip-rule:evenodd;fill:none;stroke:#FFFFFF;stroke-width:0.58;" x2="42.156"/>
  <line y2="-41.968" y1="-47.53" x1="42.156" style="fill-rule:evenodd;clip-rule:evenodd;fill:none;stroke:#FFFFFF;stroke-width:0.58;" x2="42.156"/>
  <line y2="-32.968" y1="-38.53" x1="42.156" style="fill-rule:evenodd;clip-rule:evenodd;fill:none;stroke:#FFFFFF;stroke-width:0.58;" x2="42.156"/>
  <line y2="-23.968" y1="-29.53" x1="42.156" style="fill-rule:evenodd;clip-rule:evenodd;fill:none;stroke:#FFFFFF;stroke-width:0.58;" x2="42.156"/>
  <line y2="-14.968" y1="-20.53" x1="42.156" style="fill-rule:evenodd;clip-rule:evenodd;fill:none;stroke:#FFFFFF;stroke-width:0.58;" x2="42.156"/>
  <line y2="-5.968" y1="-11.53" x1="42.156" style="fill-rule:evenodd;clip-rule:evenodd;fill:none;stroke:#FFFFFF;stroke-width:0.58;" x2="42.156"/>
  <line y2="-68.968" y1="-74.53" x1="47.915" style="fill-rule:evenodd;clip-rule:evenodd;fill:none;stroke:#FFFFFF;stroke-width:0.58;" x2="47.915"/>
  <line y2="-59.968" y1="-65.53" x1="47.915" style="fill-rule:evenodd;clip-rule:evenodd;fill:none;stroke:#FFFFFF;stroke-width:0.58;" x2="47.915"/>
  <line y2="-50.968" y1="-56.53" x1="47.915" style="fill-rule:evenodd;clip-rule:evenodd;fill:none;stroke:#FFFFFF;stroke-width:0.58;" x2="47.915"/>
  <line y2="-41.968" y1="-47.53" x1="47.915" style="fill-rule:evenodd;clip-rule:evenodd;fill:none;stroke:#FFFFFF;stroke-width:0.58;" x2="47.915"/>
  <line y2="-32.968" y1="-38.53" x1="47.915" style="fill-rule:evenodd;clip-rule:evenodd;fill:none;stroke:#FFFFFF;stroke-width:0.58;" x2="47.915"/>
  <line y2="-23.968" y1="-29.53" x1="47.915" style="fill-rule:evenodd;clip-rule:evenodd;fill:none;stroke:#FFFFFF;stroke-width:0.58;" x2="47.915"/>
  <line y2="-14.968" y1="-20.53" x1="47.915" style="fill-rule:evenodd;clip-rule:evenodd;fill:none;stroke:#FFFFFF;stroke-width:0.58;" x2="47.915"/>
  <line y2="-5.968" y1="-11.53" x1="47.915" style="fill-rule:evenodd;clip-rule:evenodd;fill:none;stroke:#FFFFFF;stroke-width:0.58;" x2="47.915"/>
  <line y2="-68.968" y1="-74.53" x1="53.674" style="fill-rule:evenodd;clip-rule:evenodd;fill:none;stroke:#FFFFFF;stroke-width:0.58;" x2="53.674"/>
  <line y2="-59.968" y1="-65.53" x1="53.674" style="fill-rule:evenodd;clip-rule:evenodd;fill:none;stroke:#FFFFFF;stroke-width:0.58;" x2="53.674"/>
  <line y2="-50.968" y1="-56.53" x1="53.674" style="fill-rule:evenodd;clip-rule:evenodd;fill:none;stroke:#FFFFFF;stroke-width:0.58;" x2="53.674"/>
  <line y2="-41.968" y1="-47.53" x1="53.674" style="fill-rule:evenodd;clip-rule:evenodd;fill:none;stroke:#FFFFFF;stroke-width:0.58;" x2="53.674"/>
  <line y2="-32.968" y1="-38.53" x1="53.674" style="fill-rule:evenodd;clip-rule:evenodd;fill:none;stroke:#FFFFFF;stroke-width:0.58;" x2="53.674"/>
  <line y2="-23.968" y1="-29.53" x1="53.674" style="fill-rule:evenodd;clip-rule:evenodd;fill:none;stroke:#FFFFFF;stroke-width:0.58;" x2="53.674"/>
  <line y2="-14.968" y1="-20.53" x1="53.674" style="fill-rule:evenodd;clip-rule:evenodd;fill:none;stroke:#FFFFFF;stroke-width:0.58;" x2="53.674"/>
  <line y2="-5.968" y1="-11.53" x1="53.674" style="fill-rule:evenodd;clip-rule:evenodd;fill:none;stroke:#FFFFFF;stroke-width:0.58;" x2="53.674"/>
  <line y2="-68.968" y1="-74.53" x1="59.433" style="fill-rule:evenodd;clip-rule:evenodd;fill:none;stroke:#FFFFFF;stroke-width:0.58;" x2="59.433"/>
  <line y2="-59.968" y1="-65.53" x1="59.433" style="fill-rule:evenodd;clip-rule:evenodd;fill:none;stroke:#FFFFFF;stroke-width:0.58;" x2="59.433"/>
  <line y2="-50.968" y1="-56.53" x1="59.433" style="fill-rule:evenodd;clip-rule:evenodd;fill:none;stroke:#FFFFFF;stroke-width:0.58;" x2="59.433"/>
  <line y2="-41.968" y1="-47.53" x1="59.433" style="fill-rule:evenodd;clip-rule:evenodd;fill:none;stroke:#FFFFFF;stroke-width:0.58;" x2="59.433"/>
  <line y2="-32.968" y1="-38.53" x1="59.433" style="fill-rule:evenodd;clip-rule:evenodd;fill:none;stroke:#FFFFFF;stroke-width:0.58;" x2="59.433"/>
  <line y2="-23.968" y1="-29.53" x1="59.433" style="fill-rule:evenodd;clip-rule:evenodd;fill:none;stroke:#FFFFFF;stroke-width:0.58;" x2="59.433"/>
  <line y2="-14.968" y1="-20.53" x1="59.433" style="fill-rule:evenodd;clip-rule:evenodd;fill:none;stroke:#FFFFFF;stroke-width:0.58;" x2="59.433"/>
  <line y2="-5.968" y1="-11.53" x1="59.433" style="fill-rule:evenodd;clip-rule:evenodd;fill:none;stroke:#FFFFFF;stroke-width:0.58;" x2="59.433"/>
  <line y2="-68.968" y1="-74.53" x1="65.192" style="fill-rule:evenodd;clip-rule:evenodd;fill:none;stroke:#FFFFFF;stroke-width:0.58;" x2="65.192"/>
  <line y2="-59.968" y1="-65.53" x1="65.192" style="fill-rule:evenodd;clip-rule:evenodd;fill:none;stroke:#FFFFFF;stroke-width:0.58;" x2="65.192"/>
  <line y2="-50.968" y1="-56.53" x1="65.192" style="fill-rule:evenodd;clip-rule:evenodd;fill:none;stroke:#FFFFFF;stroke-width:0.58;" x2="65.192"/>
  <line y2="-41.968" y1="-47.53" x1="65.192" style="fill-rule:evenodd;clip-rule:evenodd;fill:none;stroke:#FFFFFF;stroke-width:0.58;" x2="65.192"/>
  <line y2="-32.968" y1="-38.53" x1="65.192" style="fill-rule:evenodd;clip-rule:evenodd;fill:none;stroke:#FFFFFF;stroke-width:0.58;" x2="65.192"/>
  <line y2="-23.968" y1="-29.53" x1="65.192" style="fill-rule:evenodd;clip-rule:evenodd;fill:none;stroke:#FFFFFF;stroke-width:0.58;" x2="65.192"/>
  <line y2="-14.968" y1="-20.53" x1="65.192" style="fill-rule:evenodd;clip-rule:evenodd;fill:none;stroke:#FFFFFF;stroke-width:0.58;" x2="65.192"/>
  <line y2="-5.968" y1="-11.53" x1="65.192" style="fill-rule:evenodd;clip-rule:evenodd;fill:none;stroke:#FFFFFF;stroke-width:0.58;" x2="65.192"/>
  <line y2="-68.968" y1="-74.53" x1="70.951" style="fill-rule:evenodd;clip-rule:evenodd;fill:none;stroke:#FFFFFF;stroke-width:0.58;" x2="70.951"/>
  <line y2="-59.968" y1="-65.53" x1="70.951" style="fill-rule:evenodd;clip-rule:evenodd;fill:none;stroke:#FFFFFF;stroke-width:0.58;" x2="70.951"/>
  <line y2="-50.968" y1="-56.53" x1="70.951" style="fill-rule:evenodd;clip-rule:evenodd;fill:none;stroke:#FFFFFF;stroke-width:0.58;" x2="70.951"/>
  <line y2="-41.968" y1="-47.53" x1="70.951" style="fill-rule:evenodd;clip-rule:evenodd;fill:none;stroke:#FFFFFF;stroke-width:0.58;" x2="70.951"/>
  <line y2="-32.968" y1="-38.53" x1="70.951" style="fill-rule:evenodd;clip-rule:evenodd;fill:none;stroke:#FFFFFF;stroke-width:0.58;" x2="70.951"/>
  <line y2="-23.968" y1="-29.53" x1="70.951" style="fill-rule:evenodd;clip-rule:evenodd;fill:none;stroke:#FFFFFF;stroke-width:0.58;" x2="70.951"/>
  <line y2="-14.968" y1="-20.53" x1="70.951" style="fill-rule:evenodd;clip-rule:evenodd;fill:none;stroke:#FFFFFF;stroke-width:0.58;" x2="70.951"/>
  <line y2="-5.968" y1="-11.53" x1="70.951" style="fill-rule:evenodd;clip-rule:evenodd;fill:none;stroke:#FFFFFF;stroke-width:0.58;" x2="70.951"/>
  <line y2="-68.968" y1="-74.53" x1="76.71" style="fill-rule:evenodd;clip-rule:evenodd;fill:none;stroke:#FFFFFF;stroke-width:0.58;" x2="76.71"/>
  <line y2="-59.968" y1="-65.53" x1="76.71" style="fill-rule:evenodd;clip-rule:evenodd;fill:none;stroke:#FFFFFF;stroke-width:0.58;" x2="76.71"/>
  <line y2="-50.968" y1="-56.53" x1="76.71" style="fill-rule:evenodd;clip-rule:evenodd;fill:none;stroke:#FFFFFF;stroke-width:0.58;" x2="76.71"/>
  <line y2="-41.968" y1="-47.53" x1="76.71" style="fill-rule:evenodd;clip-rule:evenodd;fill:none;stroke:#FFFFFF;stroke-width:0.58;" x2="76.71"/>
  <line y2="-32.968" y1="-38.53" x1="76.71" style="fill-rule:evenodd;clip-rule:evenodd;fill:none;stroke:#FFFFFF;stroke-width:0.58;" x2="76.71"/>
  <line y2="-23.968" y1="-29.53" x1="76.71" style="fill-rule:evenodd;clip-rule:evenodd;fill:none;stroke:#FFFFFF;stroke-width:0.58;" x2="76.71"/>
  <line y2="-14.968" y1="-20.53" x1="76.71" style="fill-rule:evenodd;clip-rule:evenodd;fill:none;stroke:#FFFFFF;stroke-width:0.58;" x2="76.71"/>
  <line y2="-5.968" y1="-11.53" x1="76.71" style="fill-rule:evenodd;clip-rule:evenodd;fill:none;stroke:#FFFFFF;stroke-width:0.58;" x2="76.71"/>
  <line y2="-73.826" y1="-79.388" x1="4.722" style="fill-rule:evenodd;clip-rule:evenodd;fill:none;stroke:#FFFFFF;stroke-width:0.58;" x2="4.722"/>
  <line y2="-64.826" y1="-70.388" x1="4.722" style="fill-rule:evenodd;clip-rule:evenodd;fill:none;stroke:#FFFFFF;stroke-width:0.58;" x2="4.722"/>
  <line y2="-55.826" y1="-61.388" x1="4.722" style="fill-rule:evenodd;clip-rule:evenodd;fill:none;stroke:#FFFFFF;stroke-width:0.58;" x2="4.722"/>
  <line y2="-46.826" y1="-52.388" x1="4.722" style="fill-rule:evenodd;clip-rule:evenodd;fill:none;stroke:#FFFFFF;stroke-width:0.58;" x2="4.722"/>
  <line y2="-37.826" y1="-43.388" x1="4.722" style="fill-rule:evenodd;clip-rule:evenodd;fill:none;stroke:#FFFFFF;stroke-width:0.58;" x2="4.722"/>
  <line y2="-28.826" y1="-34.388" x1="4.722" style="fill-rule:evenodd;clip-rule:evenodd;fill:none;stroke:#FFFFFF;stroke-width:0.58;" x2="4.722"/>
  <line y2="-19.826" y1="-25.388" x1="4.722" style="fill-rule:evenodd;clip-rule:evenodd;fill:none;stroke:#FFFFFF;stroke-width:0.58;" x2="4.722"/>
  <line y2="-10.826" y1="-16.388" x1="4.722" style="fill-rule:evenodd;clip-rule:evenodd;fill:none;stroke:#FFFFFF;stroke-width:0.58;" x2="4.722"/>
  <line y2="-1.826" y1="-7.388" x1="4.722" style="fill-rule:evenodd;clip-rule:evenodd;fill:none;stroke:#FFFFFF;stroke-width:0.58;" x2="4.722"/>
  <line y2="-73.826" y1="-79.388" x1="10.481" style="fill-rule:evenodd;clip-rule:evenodd;fill:none;stroke:#FFFFFF;stroke-width:0.58;" x2="10.481"/>
  <line y2="-64.826" y1="-70.388" x1="10.481" style="fill-rule:evenodd;clip-rule:evenodd;fill:none;stroke:#FFFFFF;stroke-width:0.58;" x2="10.481"/>
  <line y2="-55.826" y1="-61.388" x1="10.481" style="fill-rule:evenodd;clip-rule:evenodd;fill:none;stroke:#FFFFFF;stroke-width:0.58;" x2="10.481"/>
  <line y2="-46.826" y1="-52.388" x1="10.481" style="fill-rule:evenodd;clip-rule:evenodd;fill:none;stroke:#FFFFFF;stroke-width:0.58;" x2="10.481"/>
  <line y2="-37.826" y1="-43.388" x1="10.481" style="fill-rule:evenodd;clip-rule:evenodd;fill:none;stroke:#FFFFFF;stroke-width:0.58;" x2="10.481"/>
  <line y2="-28.826" y1="-34.388" x1="10.481" style="fill-rule:evenodd;clip-rule:evenodd;fill:none;stroke:#FFFFFF;stroke-width:0.58;" x2="10.481"/>
  <line y2="-19.826" y1="-25.388" x1="10.481" style="fill-rule:evenodd;clip-rule:evenodd;fill:none;stroke:#FFFFFF;stroke-width:0.58;" x2="10.481"/>
  <line y2="-10.826" y1="-16.388" x1="10.481" style="fill-rule:evenodd;clip-rule:evenodd;fill:none;stroke:#FFFFFF;stroke-width:0.58;" x2="10.481"/>
  <line y2="-1.826" y1="-7.388" x1="10.481" style="fill-rule:evenodd;clip-rule:evenodd;fill:none;stroke:#FFFFFF;stroke-width:0.58;" x2="10.481"/>
  <line y2="-73.826" y1="-79.388" x1="16.24" style="fill-rule:evenodd;clip-rule:evenodd;fill:none;stroke:#FFFFFF;stroke-width:0.58;" x2="16.24"/>
  <line y2="-64.826" y1="-70.388" x1="16.24" style="fill-rule:evenodd;clip-rule:evenodd;fill:none;stroke:#FFFFFF;stroke-width:0.58;" x2="16.24"/>
  <line y2="-55.826" y1="-61.388" x1="16.24" style="fill-rule:evenodd;clip-rule:evenodd;fill:none;stroke:#FFFFFF;stroke-width:0.58;" x2="16.24"/>
  <line y2="-46.826" y1="-52.388" x1="16.24" style="fill-rule:evenodd;clip-rule:evenodd;fill:none;stroke:#FFFFFF;stroke-width:0.58;" x2="16.24"/>
  <line y2="-37.826" y1="-43.388" x1="16.24" style="fill-rule:evenodd;clip-rule:evenodd;fill:none;stroke:#FFFFFF;stroke-width:0.58;" x2="16.24"/>
  <line y2="-28.826" y1="-34.388" x1="16.24" style="fill-rule:evenodd;clip-rule:evenodd;fill:none;stroke:#FFFFFF;stroke-width:0.58;" x2="16.24"/>
  <line y2="-19.826" y1="-25.388" x1="16.24" style="fill-rule:evenodd;clip-rule:evenodd;fill:none;stroke:#FFFFFF;stroke-width:0.58;" x2="16.24"/>
  <line y2="-10.826" y1="-16.388" x1="16.24" style="fill-rule:evenodd;clip-rule:evenodd;fill:none;stroke:#FFFFFF;stroke-width:0.58;" x2="16.24"/>
  <line y2="-1.826" y1="-7.388" x1="16.24" style="fill-rule:evenodd;clip-rule:evenodd;fill:none;stroke:#FFFFFF;stroke-width:0.58;" x2="16.24"/>
  <line y2="-73.826" y1="-79.388" x1="22" style="fill-rule:evenodd;clip-rule:evenodd;fill:none;stroke:#FFFFFF;stroke-width:0.58;" x2="22"/>
  <line y2="-64.826" y1="-70.388" x1="22" style="fill-rule:evenodd;clip-rule:evenodd;fill:none;stroke:#FFFFFF;stroke-width:0.58;" x2="22"/>
  <line y2="-55.826" y1="-61.388" x1="22" style="fill-rule:evenodd;clip-rule:evenodd;fill:none;stroke:#FFFFFF;stroke-width:0.58;" x2="22"/>
  <line y2="-46.826" y1="-52.388" x1="22" style="fill-rule:evenodd;clip-rule:evenodd;fill:none;stroke:#FFFFFF;stroke-width:0.58;" x2="22"/>
  <line y2="-37.826" y1="-43.388" x1="22" style="fill-rule:evenodd;clip-rule:evenodd;fill:none;stroke:#FFFFFF;stroke-width:0.58;" x2="22"/>
  <line y2="-28.826" y1="-34.388" x1="22" style="fill-rule:evenodd;clip-rule:evenodd;fill:none;stroke:#FFFFFF;stroke-width:0.58;" x2="22"/>
  <line y2="-19.826" y1="-25.388" x1="22" style="fill-rule:evenodd;clip-rule:evenodd;fill:none;stroke:#FFFFFF;stroke-width:0.58;" x2="22"/>
  <line y2="-10.826" y1="-16.388" x1="22" style="fill-rule:evenodd;clip-rule:evenodd;fill:none;stroke:#FFFFFF;stroke-width:0.58;" x2="22"/>
  <line y2="-1.826" y1="-7.388" x1="22" style="fill-rule:evenodd;clip-rule:evenodd;fill:none;stroke:#FFFFFF;stroke-width:0.58;" x2="22"/>
  <line y2="-73.826" y1="-79.388" x1="27.758" style="fill-rule:evenodd;clip-rule:evenodd;fill:none;stroke:#FFFFFF;stroke-width:0.58;" x2="27.758"/>
  <line y2="-64.826" y1="-70.388" x1="27.758" style="fill-rule:evenodd;clip-rule:evenodd;fill:none;stroke:#FFFFFF;stroke-width:0.58;" x2="27.758"/>
  <line y2="-55.826" y1="-61.388" x1="27.758" style="fill-rule:evenodd;clip-rule:evenodd;fill:none;stroke:#FFFFFF;stroke-width:0.58;" x2="27.758"/>
  <line y2="-46.826" y1="-52.388" x1="27.758" style="fill-rule:evenodd;clip-rule:evenodd;fill:none;stroke:#FFFFFF;stroke-width:0.58;" x2="27.758"/>
  <line y2="-37.826" y1="-43.388" x1="27.758" style="fill-rule:evenodd;clip-rule:evenodd;fill:none;stroke:#FFFFFF;stroke-width:0.58;" x2="27.758"/>
  <line y2="-28.826" y1="-34.388" x1="27.758" style="fill-rule:evenodd;clip-rule:evenodd;fill:none;stroke:#FFFFFF;stroke-width:0.58;" x2="27.758"/>
  <line y2="-19.826" y1="-25.388" x1="27.758" style="fill-rule:evenodd;clip-rule:evenodd;fill:none;stroke:#FFFFFF;stroke-width:0.58;" x2="27.758"/>
  <line y2="-10.826" y1="-16.388" x1="27.758" style="fill-rule:evenodd;clip-rule:evenodd;fill:none;stroke:#FFFFFF;stroke-width:0.58;" x2="27.758"/>
  <line y2="-1.826" y1="-7.388" x1="27.758" style="fill-rule:evenodd;clip-rule:evenodd;fill:none;stroke:#FFFFFF;stroke-width:0.58;" x2="27.758"/>
  <line y2="-73.826" y1="-79.388" x1="33.518" style="fill-rule:evenodd;clip-rule:evenodd;fill:none;stroke:#FFFFFF;stroke-width:0.58;" x2="33.518"/>
  <line y2="-64.826" y1="-70.388" x1="33.518" style="fill-rule:evenodd;clip-rule:evenodd;fill:none;stroke:#FFFFFF;stroke-width:0.58;" x2="33.518"/>
  <line y2="-55.826" y1="-61.388" x1="33.518" style="fill-rule:evenodd;clip-rule:evenodd;fill:none;stroke:#FFFFFF;stroke-width:0.58;" x2="33.518"/>
  <line y2="-46.826" y1="-52.388" x1="33.518" style="fill-rule:evenodd;clip-rule:evenodd;fill:none;stroke:#FFFFFF;stroke-width:0.58;" x2="33.518"/>
  <line y2="-37.826" y1="-43.388" x1="33.518" style="fill-rule:evenodd;clip-rule:evenodd;fill:none;stroke:#FFFFFF;stroke-width:0.58;" x2="33.518"/>
  <line y2="-28.826" y1="-34.388" x1="33.518" style="fill-rule:evenodd;clip-rule:evenodd;fill:none;stroke:#FFFFFF;stroke-width:0.58;" x2="33.518"/>
  <line y2="-19.826" y1="-25.388" x1="33.518" style="fill-rule:evenodd;clip-rule:evenodd;fill:none;stroke:#FFFFFF;stroke-width:0.58;" x2="33.518"/>
  <line y2="-10.826" y1="-16.388" x1="33.518" style="fill-rule:evenodd;clip-rule:evenodd;fill:none;stroke:#FFFFFF;stroke-width:0.58;" x2="33.518"/>
  <line y2="-1.826" y1="-7.388" x1="33.518" style="fill-rule:evenodd;clip-rule:evenodd;fill:none;stroke:#FFFFFF;stroke-width:0.58;" x2="33.518"/>
  <line y2="-73.826" y1="-79.388" x1="39.276" style="fill-rule:evenodd;clip-rule:evenodd;fill:none;stroke:#FFFFFF;stroke-width:0.58;" x2="39.276"/>
  <line y2="-64.826" y1="-70.388" x1="39.276" style="fill-rule:evenodd;clip-rule:evenodd;fill:none;stroke:#FFFFFF;stroke-width:0.58;" x2="39.276"/>
  <line y2="-55.826" y1="-61.388" x1="39.276" style="fill-rule:evenodd;clip-rule:evenodd;fill:none;stroke:#FFFFFF;stroke-width:0.58;" x2="39.276"/>
  <line y2="-46.826" y1="-52.388" x1="39.276" style="fill-rule:evenodd;clip-rule:evenodd;fill:none;stroke:#FFFFFF;stroke-width:0.58;" x2="39.276"/>
  <line y2="-37.826" y1="-43.388" x1="39.276" style="fill-rule:evenodd;clip-rule:evenodd;fill:none;stroke:#FFFFFF;stroke-width:0.58;" x2="39.276"/>
  <line y2="-28.826" y1="-34.388" x1="39.276" style="fill-rule:evenodd;clip-rule:evenodd;fill:none;stroke:#FFFFFF;stroke-width:0.58;" x2="39.276"/>
  <line y2="-19.826" y1="-25.388" x1="39.276" style="fill-rule:evenodd;clip-rule:evenodd;fill:none;stroke:#FFFFFF;stroke-width:0.58;" x2="39.276"/>
  <line y2="-10.826" y1="-16.388" x1="39.276" style="fill-rule:evenodd;clip-rule:evenodd;fill:none;stroke:#FFFFFF;stroke-width:0.58;" x2="39.276"/>
  <line y2="-1.826" y1="-7.388" x1="39.276" style="fill-rule:evenodd;clip-rule:evenodd;fill:none;stroke:#FFFFFF;stroke-width:0.58;" x2="39.276"/>
  <line y2="-73.826" y1="-79.388" x1="45.036" style="fill-rule:evenodd;clip-rule:evenodd;fill:none;stroke:#FFFFFF;stroke-width:0.58;" x2="45.036"/>
  <line y2="-64.826" y1="-70.388" x1="45.036" style="fill-rule:evenodd;clip-rule:evenodd;fill:none;stroke:#FFFFFF;stroke-width:0.58;" x2="45.036"/>
  <line y2="-55.826" y1="-61.388" x1="45.036" style="fill-rule:evenodd;clip-rule:evenodd;fill:none;stroke:#FFFFFF;stroke-width:0.58;" x2="45.036"/>
  <line y2="-46.826" y1="-52.388" x1="45.036" style="fill-rule:evenodd;clip-rule:evenodd;fill:none;stroke:#FFFFFF;stroke-width:0.58;" x2="45.036"/>
  <line y2="-37.826" y1="-43.388" x1="45.036" style="fill-rule:evenodd;clip-rule:evenodd;fill:none;stroke:#FFFFFF;stroke-width:0.58;" x2="45.036"/>
  <line y2="-28.826" y1="-34.388" x1="45.036" style="fill-rule:evenodd;clip-rule:evenodd;fill:none;stroke:#FFFFFF;stroke-width:0.58;" x2="45.036"/>
  <line y2="-19.826" y1="-25.388" x1="45.036" style="fill-rule:evenodd;clip-rule:evenodd;fill:none;stroke:#FFFFFF;stroke-width:0.58;" x2="45.036"/>
  <line y2="-10.826" y1="-16.388" x1="45.036" style="fill-rule:evenodd;clip-rule:evenodd;fill:none;stroke:#FFFFFF;stroke-width:0.58;" x2="45.036"/>
  <line y2="-1.826" y1="-7.388" x1="45.036" style="fill-rule:evenodd;clip-rule:evenodd;fill:none;stroke:#FFFFFF;stroke-width:0.58;" x2="45.036"/>
  <line y2="-73.826" y1="-79.388" x1="50.794" style="fill-rule:evenodd;clip-rule:evenodd;fill:none;stroke:#FFFFFF;stroke-width:0.58;" x2="50.794"/>
  <line y2="-64.826" y1="-70.388" x1="50.794" style="fill-rule:evenodd;clip-rule:evenodd;fill:none;stroke:#FFFFFF;stroke-width:0.58;" x2="50.794"/>
  <line y2="-55.826" y1="-61.388" x1="50.794" style="fill-rule:evenodd;clip-rule:evenodd;fill:none;stroke:#FFFFFF;stroke-width:0.58;" x2="50.794"/>
  <line y2="-46.826" y1="-52.388" x1="50.794" style="fill-rule:evenodd;clip-rule:evenodd;fill:none;stroke:#FFFFFF;stroke-width:0.58;" x2="50.794"/>
  <line y2="-37.826" y1="-43.388" x1="50.794" style="fill-rule:evenodd;clip-rule:evenodd;fill:none;stroke:#FFFFFF;stroke-width:0.58;" x2="50.794"/>
  <line y2="-28.826" y1="-34.388" x1="50.794" style="fill-rule:evenodd;clip-rule:evenodd;fill:none;stroke:#FFFFFF;stroke-width:0.58;" x2="50.794"/>
  <line y2="-19.826" y1="-25.388" x1="50.794" style="fill-rule:evenodd;clip-rule:evenodd;fill:none;stroke:#FFFFFF;stroke-width:0.58;" x2="50.794"/>
  <line y2="-10.826" y1="-16.388" x1="50.794" style="fill-rule:evenodd;clip-rule:evenodd;fill:none;stroke:#FFFFFF;stroke-width:0.58;" x2="50.794"/>
  <line y2="-1.826" y1="-7.388" x1="50.794" style="fill-rule:evenodd;clip-rule:evenodd;fill:none;stroke:#FFFFFF;stroke-width:0.58;" x2="50.794"/>
  <line y2="-73.826" y1="-79.388" x1="56.554" style="fill-rule:evenodd;clip-rule:evenodd;fill:none;stroke:#FFFFFF;stroke-width:0.58;" x2="56.554"/>
  <line y2="-64.826" y1="-70.388" x1="56.554" style="fill-rule:evenodd;clip-rule:evenodd;fill:none;stroke:#FFFFFF;stroke-width:0.58;" x2="56.554"/>
  <line y2="-55.826" y1="-61.388" x1="56.554" style="fill-rule:evenodd;clip-rule:evenodd;fill:none;stroke:#FFFFFF;stroke-width:0.58;" x2="56.554"/>
  <line y2="-46.826" y1="-52.388" x1="56.554" style="fill-rule:evenodd;clip-rule:evenodd;fill:none;stroke:#FFFFFF;stroke-width:0.58;" x2="56.554"/>
  <line y2="-37.826" y1="-43.388" x1="56.554" style="fill-rule:evenodd;clip-rule:evenodd;fill:none;stroke:#FFFFFF;stroke-width:0.58;" x2="56.554"/>
  <line y2="-28.826" y1="-34.388" x1="56.554" style="fill-rule:evenodd;clip-rule:evenodd;fill:none;stroke:#FFFFFF;stroke-width:0.58;" x2="56.554"/>
  <line y2="-19.826" y1="-25.388" x1="56.554" style="fill-rule:evenodd;clip-rule:evenodd;fill:none;stroke:#FFFFFF;stroke-width:0.58;" x2="56.554"/>
  <line y2="-10.826" y1="-16.388" x1="56.554" style="fill-rule:evenodd;clip-rule:evenodd;fill:none;stroke:#FFFFFF;stroke-width:0.58;" x2="56.554"/>
  <line y2="-1.826" y1="-7.388" x1="56.554" style="fill-rule:evenodd;clip-rule:evenodd;fill:none;stroke:#FFFFFF;stroke-width:0.58;" x2="56.554"/>
  <line y2="-73.826" y1="-79.388" x1="62.312" style="fill-rule:evenodd;clip-rule:evenodd;fill:none;stroke:#FFFFFF;stroke-width:0.58;" x2="62.312"/>
  <line y2="-64.826" y1="-70.388" x1="62.312" style="fill-rule:evenodd;clip-rule:evenodd;fill:none;stroke:#FFFFFF;stroke-width:0.58;" x2="62.312"/>
  <line y2="-55.826" y1="-61.388" x1="62.312" style="fill-rule:evenodd;clip-rule:evenodd;fill:none;stroke:#FFFFFF;stroke-width:0.58;" x2="62.312"/>
  <line y2="-46.826" y1="-52.388" x1="62.312" style="fill-rule:evenodd;clip-rule:evenodd;fill:none;stroke:#FFFFFF;stroke-width:0.58;" x2="62.312"/>
  <line y2="-37.826" y1="-43.388" x1="62.312" style="fill-rule:evenodd;clip-rule:evenodd;fill:none;stroke:#FFFFFF;stroke-width:0.58;" x2="62.312"/>
  <line y2="-28.826" y1="-34.388" x1="62.312" style="fill-rule:evenodd;clip-rule:evenodd;fill:none;stroke:#FFFFFF;stroke-width:0.58;" x2="62.312"/>
  <line y2="-19.826" y1="-25.388" x1="62.312" style="fill-rule:evenodd;clip-rule:evenodd;fill:none;stroke:#FFFFFF;stroke-width:0.58;" x2="62.312"/>
  <line y2="-10.826" y1="-16.388" x1="62.312" style="fill-rule:evenodd;clip-rule:evenodd;fill:none;stroke:#FFFFFF;stroke-width:0.58;" x2="62.312"/>
  <line y2="-1.826" y1="-7.388" x1="62.312" style="fill-rule:evenodd;clip-rule:evenodd;fill:none;stroke:#FFFFFF;stroke-width:0.58;" x2="62.312"/>
  <line y2="-73.826" y1="-79.388" x1="68.072" style="fill-rule:evenodd;clip-rule:evenodd;fill:none;stroke:#FFFFFF;stroke-width:0.58;" x2="68.072"/>
  <line y2="-64.826" y1="-70.388" x1="68.072" style="fill-rule:evenodd;clip-rule:evenodd;fill:none;stroke:#FFFFFF;stroke-width:0.58;" x2="68.072"/>
  <line y2="-55.826" y1="-61.388" x1="68.072" style="fill-rule:evenodd;clip-rule:evenodd;fill:none;stroke:#FFFFFF;stroke-width:0.58;" x2="68.072"/>
  <line y2="-46.826" y1="-52.388" x1="68.072" style="fill-rule:evenodd;clip-rule:evenodd;fill:none;stroke:#FFFFFF;stroke-width:0.58;" x2="68.072"/>
  <line y2="-37.826" y1="-43.388" x1="68.072" style="fill-rule:evenodd;clip-rule:evenodd;fill:none;stroke:#FFFFFF;stroke-width:0.58;" x2="68.072"/>
  <line y2="-28.826" y1="-34.388" x1="68.072" style="fill-rule:evenodd;clip-rule:evenodd;fill:none;stroke:#FFFFFF;stroke-width:0.58;" x2="68.072"/>
  <line y2="-19.826" y1="-25.388" x1="68.072" style="fill-rule:evenodd;clip-rule:evenodd;fill:none;stroke:#FFFFFF;stroke-width:0.58;" x2="68.072"/>
  <line y2="-10.826" y1="-16.388" x1="68.072" style="fill-rule:evenodd;clip-rule:evenodd;fill:none;stroke:#FFFFFF;stroke-width:0.58;" x2="68.072"/>
  <line y2="-1.826" y1="-7.388" x1="68.072" style="fill-rule:evenodd;clip-rule:evenodd;fill:none;stroke:#FFFFFF;stroke-width:0.58;" x2="68.072"/>
  <line y2="-73.826" y1="-79.388" x1="73.831" style="fill-rule:evenodd;clip-rule:evenodd;fill:none;stroke:#FFFFFF;stroke-width:0.58;" x2="73.831"/>
  <line y2="-64.826" y1="-70.388" x1="73.831" style="fill-rule:evenodd;clip-rule:evenodd;fill:none;stroke:#FFFFFF;stroke-width:0.58;" x2="73.831"/>
  <line y2="-55.826" y1="-61.388" x1="73.831" style="fill-rule:evenodd;clip-rule:evenodd;fill:none;stroke:#FFFFFF;stroke-width:0.58;" x2="73.831"/>
  <line y2="-46.826" y1="-52.388" x1="73.831" style="fill-rule:evenodd;clip-rule:evenodd;fill:none;stroke:#FFFFFF;stroke-width:0.58;" x2="73.831"/>
  <line y2="-37.826" y1="-43.388" x1="73.831" style="fill-rule:evenodd;clip-rule:evenodd;fill:none;stroke:#FFFFFF;stroke-width:0.58;" x2="73.831"/>
  <line y2="-28.826" y1="-34.388" x1="73.831" style="fill-rule:evenodd;clip-rule:evenodd;fill:none;stroke:#FFFFFF;stroke-width:0.58;" x2="73.831"/>
  <line y2="-19.826" y1="-25.388" x1="73.831" style="fill-rule:evenodd;clip-rule:evenodd;fill:none;stroke:#FFFFFF;stroke-width:0.58;" x2="73.831"/>
  <line y2="-10.826" y1="-16.388" x1="73.831" style="fill-rule:evenodd;clip-rule:evenodd;fill:none;stroke:#FFFFFF;stroke-width:0.58;" x2="73.831"/>
  <line y2="-1.826" y1="-7.388" x1="73.831" style="fill-rule:evenodd;clip-rule:evenodd;fill:none;stroke:#FFFFFF;stroke-width:0.58;" x2="73.831"/>
  <line y2="-73.826" y1="-79.388" x1="79.59" style="fill-rule:evenodd;clip-rule:evenodd;fill:none;stroke:#FFFFFF;stroke-width:0.58;" x2="79.59"/>
  <line y2="-64.826" y1="-70.388" x1="79.59" style="fill-rule:evenodd;clip-rule:evenodd;fill:none;stroke:#FFFFFF;stroke-width:0.58;" x2="79.59"/>
  <line y2="-55.826" y1="-61.388" x1="79.59" style="fill-rule:evenodd;clip-rule:evenodd;fill:none;stroke:#FFFFFF;stroke-width:0.58;" x2="79.59"/>
  <line y2="-46.826" y1="-52.388" x1="79.59" style="fill-rule:evenodd;clip-rule:evenodd;fill:none;stroke:#FFFFFF;stroke-width:0.58;" x2="79.59"/>
  <line y2="-37.826" y1="-43.388" x1="79.59" style="fill-rule:evenodd;clip-rule:evenodd;fill:none;stroke:#FFFFFF;stroke-width:0.58;" x2="79.59"/>
  <line y2="-28.826" y1="-34.388" x1="79.59" style="fill-rule:evenodd;clip-rule:evenodd;fill:none;stroke:#FFFFFF;stroke-width:0.58;" x2="79.59"/>
  <line y2="-19.826" y1="-25.388" x1="79.59" style="fill-rule:evenodd;clip-rule:evenodd;fill:none;stroke:#FFFFFF;stroke-width:0.58;" x2="79.59"/>
  <line y2="-10.826" y1="-16.388" x1="79.59" style="fill-rule:evenodd;clip-rule:evenodd;fill:none;stroke:#FFFFFF;stroke-width:0.58;" x2="79.59"/>
  <line y2="-1.826" y1="-7.388" x1="79.59" style="fill-rule:evenodd;clip-rule:evenodd;fill:none;stroke:#FFFFFF;stroke-width:0.58;" x2="79.59"/>
 </g>
</svg>
