<?xml version="1.0"?>
<!-- Converted with SVG Converter - Version 0.9.5 (Compiled Fri Feb 21 09:53:38 2020) - Copyright (C) 2011 Nokia -->
<svg xmlns="http://www.w3.org/2000/svg" version="1.1" xmlns:xlink="http://www.w3.org/1999/xlink" width="23.125" xml:space="preserve" y="0px" x="0px" height="23.125" viewBox="0 -23.125 23.125 23.125" baseProfile="tiny">
 <g>
  <rect width="23.125" y="-23.125" height="23.125" style="fill:none;"/>
  <line y2="-19.812" x1="0" x2="0.688" y1="-19.812" style="fill:none;stroke:#EC008C;stroke-width:0.58;"/>
  <line y2="-22.125" x1="1.062" x2="2.375" y1="-22.125" style="fill:none;stroke:#EC008C;stroke-width:0.58;"/>
  <line y2="-22.125" x1="4.312" x2="5.625" y1="-22.125" style="fill:none;stroke:#EC008C;stroke-width:0.58;"/>
  <line y2="-22.125" x1="7.562" x2="8.875" y1="-22.125" style="fill:none;stroke:#EC008C;stroke-width:0.58;"/>
  <line y2="-22.125" x1="10.812" x2="12.125" y1="-22.125" style="fill:none;stroke:#EC008C;stroke-width:0.58;"/>
  <line y2="-22.125" x1="14.062" x2="15.375" y1="-22.125" style="fill:none;stroke:#EC008C;stroke-width:0.58;"/>
  <line y2="-22.125" x1="17.312" x2="18.625" y1="-22.125" style="fill:none;stroke:#EC008C;stroke-width:0.58;"/>
  <line y2="-22.125" x1="20.562" x2="21.875" y1="-22.125" style="fill:none;stroke:#EC008C;stroke-width:0.58;"/>
  <line y2="-10.562" x1="0.688" x2="0" y1="-10.562" style="fill:none;stroke:#EC008C;stroke-width:0.58;"/>
  <line y2="-15.188" x1="0" x2="0.688" y1="-15.188" style="fill:none;stroke:#EC008C;stroke-width:0.58;"/>
  <line y2="-1.312" x1="0" x2="0.688" y1="-1.312" style="fill:none;stroke:#EC008C;stroke-width:0.58;"/>
  <line y2="-5.938" x1="0" x2="0.688" y1="-5.938" style="fill:none;stroke:#EC008C;stroke-width:0.58;"/>
  <line y2="-19.812" x1="2.679" x2="3.991" y1="-19.812" style="fill:none;stroke:#EC008C;stroke-width:0.58;"/>
  <line y2="-19.812" x1="5.981" x2="7.294" y1="-19.812" style="fill:none;stroke:#EC008C;stroke-width:0.58;"/>
  <line y2="-19.812" x1="9.285" x2="10.598" y1="-19.812" style="fill:none;stroke:#EC008C;stroke-width:0.58;"/>
  <line y2="-19.812" x1="12.589" x2="13.901" y1="-19.812" style="fill:none;stroke:#EC008C;stroke-width:0.58;"/>
  <line y2="-19.812" x1="15.893" x2="17.205" y1="-19.812" style="fill:none;stroke:#EC008C;stroke-width:0.58;"/>
  <line y2="-19.812" x1="19.196" x2="20.509" y1="-19.812" style="fill:none;stroke:#EC008C;stroke-width:0.58;"/>
  <line y2="-15.188" x1="3.991" x2="2.679" y1="-15.188" style="fill:none;stroke:#EC008C;stroke-width:0.58;"/>
  <line y2="-15.188" x1="7.294" x2="5.981" y1="-15.188" style="fill:none;stroke:#EC008C;stroke-width:0.58;"/>
  <line y2="-15.188" x1="10.598" x2="9.285" y1="-15.188" style="fill:none;stroke:#EC008C;stroke-width:0.58;"/>
  <line y2="-15.188" x1="13.901" x2="12.589" y1="-15.188" style="fill:none;stroke:#EC008C;stroke-width:0.58;"/>
  <line y2="-15.188" x1="17.205" x2="15.893" y1="-15.188" style="fill:none;stroke:#EC008C;stroke-width:0.58;"/>
  <line y2="-15.188" x1="20.509" x2="19.196" y1="-15.188" style="fill:none;stroke:#EC008C;stroke-width:0.58;"/>
  <line y2="-10.562" x1="3.991" x2="2.679" y1="-10.562" style="fill:none;stroke:#EC008C;stroke-width:0.58;"/>
  <line y2="-10.562" x1="7.294" x2="5.981" y1="-10.562" style="fill:none;stroke:#EC008C;stroke-width:0.58;"/>
  <line y2="-10.562" x1="10.598" x2="9.285" y1="-10.562" style="fill:none;stroke:#EC008C;stroke-width:0.58;"/>
  <line y2="-10.562" x1="13.901" x2="12.589" y1="-10.562" style="fill:none;stroke:#EC008C;stroke-width:0.58;"/>
  <line y2="-10.562" x1="17.205" x2="15.893" y1="-10.562" style="fill:none;stroke:#EC008C;stroke-width:0.58;"/>
  <line y2="-10.562" x1="20.509" x2="19.196" y1="-10.562" style="fill:none;stroke:#EC008C;stroke-width:0.58;"/>
  <line y2="-5.938" x1="3.991" x2="2.679" y1="-5.938" style="fill:none;stroke:#EC008C;stroke-width:0.58;"/>
  <line y2="-5.938" x1="7.294" x2="5.981" y1="-5.938" style="fill:none;stroke:#EC008C;stroke-width:0.58;"/>
  <line y2="-5.938" x1="10.598" x2="9.285" y1="-5.938" style="fill:none;stroke:#EC008C;stroke-width:0.58;"/>
  <line y2="-5.938" x1="13.901" x2="12.589" y1="-5.938" style="fill:none;stroke:#EC008C;stroke-width:0.58;"/>
  <line y2="-5.938" x1="17.205" x2="15.893" y1="-5.938" style="fill:none;stroke:#EC008C;stroke-width:0.58;"/>
  <line y2="-5.938" x1="20.509" x2="19.196" y1="-5.938" style="fill:none;stroke:#EC008C;stroke-width:0.58;"/>
  <line y2="-1.312" x1="3.991" x2="2.679" y1="-1.312" style="fill:none;stroke:#EC008C;stroke-width:0.58;"/>
  <line y2="-1.312" x1="7.294" x2="5.981" y1="-1.312" style="fill:none;stroke:#EC008C;stroke-width:0.58;"/>
  <line y2="-1.312" x1="10.598" x2="9.285" y1="-1.312" style="fill:none;stroke:#EC008C;stroke-width:0.58;"/>
  <line y2="-1.312" x1="13.901" x2="12.589" y1="-1.312" style="fill:none;stroke:#EC008C;stroke-width:0.58;"/>
  <line y2="-1.312" x1="17.205" x2="15.893" y1="-1.312" style="fill:none;stroke:#EC008C;stroke-width:0.58;"/>
  <line y2="-1.312" x1="20.509" x2="19.196" y1="-1.312" style="fill:none;stroke:#EC008C;stroke-width:0.58;"/>
  <line y2="-19.812" x1="23.125" x2="22.5" y1="-19.812" style="fill:none;stroke:#EC008C;stroke-width:0.58;"/>
  <line y2="-17.5" x1="1.116" x2="2.429" y1="-17.5" style="fill:none;stroke:#EC008C;stroke-width:0.58;"/>
  <line y2="-17.5" x1="4.419" x2="5.731" y1="-17.5" style="fill:none;stroke:#EC008C;stroke-width:0.58;"/>
  <line y2="-17.5" x1="7.723" x2="9.035" y1="-17.5" style="fill:none;stroke:#EC008C;stroke-width:0.58;"/>
  <line y2="-17.5" x1="11.026" x2="12.339" y1="-17.5" style="fill:none;stroke:#EC008C;stroke-width:0.58;"/>
  <line y2="-17.5" x1="14.33" x2="15.643" y1="-17.5" style="fill:none;stroke:#EC008C;stroke-width:0.58;"/>
  <line y2="-17.5" x1="17.634" x2="18.946" y1="-17.5" style="fill:none;stroke:#EC008C;stroke-width:0.58;"/>
  <line y2="-17.5" x1="20.938" x2="22.25" y1="-17.5" style="fill:none;stroke:#EC008C;stroke-width:0.58;"/>
  <line y2="-12.875" x1="1.116" x2="2.429" y1="-12.875" style="fill:none;stroke:#EC008C;stroke-width:0.58;"/>
  <line y2="-12.875" x1="4.419" x2="5.731" y1="-12.875" style="fill:none;stroke:#EC008C;stroke-width:0.58;"/>
  <line y2="-12.875" x1="7.723" x2="9.035" y1="-12.875" style="fill:none;stroke:#EC008C;stroke-width:0.58;"/>
  <line y2="-12.875" x1="11.026" x2="12.339" y1="-12.875" style="fill:none;stroke:#EC008C;stroke-width:0.58;"/>
  <line y2="-12.875" x1="14.33" x2="15.643" y1="-12.875" style="fill:none;stroke:#EC008C;stroke-width:0.58;"/>
  <line y2="-12.875" x1="17.634" x2="18.946" y1="-12.875" style="fill:none;stroke:#EC008C;stroke-width:0.58;"/>
  <line y2="-12.875" x1="20.938" x2="22.25" y1="-12.875" style="fill:none;stroke:#EC008C;stroke-width:0.58;"/>
  <line y2="-8.25" x1="1.116" x2="2.429" y1="-8.25" style="fill:none;stroke:#EC008C;stroke-width:0.58;"/>
  <line y2="-8.25" x1="4.419" x2="5.731" y1="-8.25" style="fill:none;stroke:#EC008C;stroke-width:0.58;"/>
  <line y2="-8.25" x1="7.723" x2="9.035" y1="-8.25" style="fill:none;stroke:#EC008C;stroke-width:0.58;"/>
  <line y2="-8.25" x1="11.026" x2="12.339" y1="-8.25" style="fill:none;stroke:#EC008C;stroke-width:0.58;"/>
  <line y2="-8.25" x1="14.33" x2="15.643" y1="-8.25" style="fill:none;stroke:#EC008C;stroke-width:0.58;"/>
  <line y2="-8.25" x1="17.634" x2="18.946" y1="-8.25" style="fill:none;stroke:#EC008C;stroke-width:0.58;"/>
  <line y2="-8.25" x1="20.938" x2="22.25" y1="-8.25" style="fill:none;stroke:#EC008C;stroke-width:0.58;"/>
  <line y2="-3.625" x1="2.429" x2="1.116" y1="-3.625" style="fill:none;stroke:#EC008C;stroke-width:0.58;"/>
  <line y2="-3.625" x1="5.731" x2="4.419" y1="-3.625" style="fill:none;stroke:#EC008C;stroke-width:0.58;"/>
  <line y2="-3.625" x1="9.035" x2="7.723" y1="-3.625" style="fill:none;stroke:#EC008C;stroke-width:0.58;"/>
  <line y2="-3.625" x1="12.339" x2="11.026" y1="-3.625" style="fill:none;stroke:#EC008C;stroke-width:0.58;"/>
  <line y2="-3.625" x1="15.643" x2="14.33" y1="-3.625" style="fill:none;stroke:#EC008C;stroke-width:0.58;"/>
  <line y2="-3.625" x1="18.946" x2="17.634" y1="-3.625" style="fill:none;stroke:#EC008C;stroke-width:0.58;"/>
  <line y2="-3.625" x1="22.25" x2="20.938" y1="-3.625" style="fill:none;stroke:#EC008C;stroke-width:0.58;"/>
  <line y2="-10.562" x1="22.5" x2="23.125" y1="-10.562" style="fill:none;stroke:#EC008C;stroke-width:0.58;"/>
  <line y2="-15.188" x1="23.125" x2="22.5" y1="-15.188" style="fill:none;stroke:#EC008C;stroke-width:0.58;"/>
  <line y2="-1.312" x1="22.5" x2="23.125" y1="-1.312" style="fill:none;stroke:#EC008C;stroke-width:0.58;"/>
  <line y2="-5.938" x1="23.125" x2="22.5" y1="-5.938" style="fill:none;stroke:#EC008C;stroke-width:0.58;"/>
 </g>
</svg>
