<?xml version="1.0"?>
<!-- Converted with SVG Converter - Version 0.9.6 (Compiled Thu Aug 31 10:01:05 2017) - Copyright (C) 2011 Nokia -->
<svg xmlns="http://www.w3.org/2000/svg" viewBox="0 -23.125 23.125 23.125" x="0px" y="0px" height="23.125" version="1.1" xmlns:xlink="http://www.w3.org/1999/xlink" baseProfile="tiny" width="23.125" xml:space="preserve">
 <g>
  <rect y="-23.125" height="23.125" style="fill:none;" width="23.125"/>
  <rect y="-23.125" height="23.125" width="23.125"/>
  <rect y="-23.125" height="23.125" style="fill:none;" width="23.125"/>
  <line y2="-19.812" style="fill:none;stroke:#FFFFFF;stroke-width:0.58;" x1="0" y1="-19.812" x2="0.688"/>
  <line y2="-22.125" style="fill:none;stroke:#FFFFFF;stroke-width:0.58;" x1="1.062" y1="-22.125" x2="2.375"/>
  <line y2="-22.125" style="fill:none;stroke:#FFFFFF;stroke-width:0.58;" x1="4.312" y1="-22.125" x2="5.625"/>
  <line y2="-22.125" style="fill:none;stroke:#FFFFFF;stroke-width:0.58;" x1="7.562" y1="-22.125" x2="8.875"/>
  <line y2="-22.125" style="fill:none;stroke:#FFFFFF;stroke-width:0.58;" x1="10.812" y1="-22.125" x2="12.125"/>
  <line y2="-22.125" style="fill:none;stroke:#FFFFFF;stroke-width:0.58;" x1="14.062" y1="-22.125" x2="15.375"/>
  <line y2="-22.125" style="fill:none;stroke:#FFFFFF;stroke-width:0.58;" x1="17.312" y1="-22.125" x2="18.625"/>
  <line y2="-22.125" style="fill:none;stroke:#FFFFFF;stroke-width:0.58;" x1="20.562" y1="-22.125" x2="21.875"/>
  <line y2="-10.562" style="fill:none;stroke:#FFFFFF;stroke-width:0.58;" x1="0.688" y1="-10.562" x2="0"/>
  <line y2="-15.188" style="fill:none;stroke:#FFFFFF;stroke-width:0.58;" x1="0" y1="-15.188" x2="0.688"/>
  <line y2="-1.312" style="fill:none;stroke:#FFFFFF;stroke-width:0.58;" x1="0" y1="-1.312" x2="0.688"/>
  <line y2="-5.938" style="fill:none;stroke:#FFFFFF;stroke-width:0.58;" x1="0" y1="-5.938" x2="0.688"/>
  <line y2="-19.812" style="fill:none;stroke:#FFFFFF;stroke-width:0.58;" x1="2.679" y1="-19.812" x2="3.991"/>
  <line y2="-19.812" style="fill:none;stroke:#FFFFFF;stroke-width:0.58;" x1="5.982" y1="-19.812" x2="7.295"/>
  <line y2="-19.812" style="fill:none;stroke:#FFFFFF;stroke-width:0.58;" x1="9.285" y1="-19.812" x2="10.598"/>
  <line y2="-19.812" style="fill:none;stroke:#FFFFFF;stroke-width:0.58;" x1="12.589" y1="-19.812" x2="13.901"/>
  <line y2="-19.812" style="fill:none;stroke:#FFFFFF;stroke-width:0.58;" x1="15.893" y1="-19.812" x2="17.205"/>
  <line y2="-19.812" style="fill:none;stroke:#FFFFFF;stroke-width:0.58;" x1="19.196" y1="-19.812" x2="20.509"/>
  <line y2="-15.188" style="fill:none;stroke:#FFFFFF;stroke-width:0.58;" x1="3.991" y1="-15.188" x2="2.679"/>
  <line y2="-15.188" style="fill:none;stroke:#FFFFFF;stroke-width:0.58;" x1="7.295" y1="-15.188" x2="5.982"/>
  <line y2="-15.188" style="fill:none;stroke:#FFFFFF;stroke-width:0.58;" x1="10.598" y1="-15.188" x2="9.285"/>
  <line y2="-15.188" style="fill:none;stroke:#FFFFFF;stroke-width:0.58;" x1="13.901" y1="-15.188" x2="12.589"/>
  <line y2="-15.188" style="fill:none;stroke:#FFFFFF;stroke-width:0.58;" x1="17.205" y1="-15.188" x2="15.893"/>
  <line y2="-15.188" style="fill:none;stroke:#FFFFFF;stroke-width:0.58;" x1="20.509" y1="-15.188" x2="19.196"/>
  <line y2="-10.562" style="fill:none;stroke:#FFFFFF;stroke-width:0.58;" x1="3.991" y1="-10.562" x2="2.679"/>
  <line y2="-10.562" style="fill:none;stroke:#FFFFFF;stroke-width:0.58;" x1="7.295" y1="-10.562" x2="5.982"/>
  <line y2="-10.562" style="fill:none;stroke:#FFFFFF;stroke-width:0.58;" x1="10.598" y1="-10.562" x2="9.285"/>
  <line y2="-10.562" style="fill:none;stroke:#FFFFFF;stroke-width:0.58;" x1="13.901" y1="-10.562" x2="12.589"/>
  <line y2="-10.562" style="fill:none;stroke:#FFFFFF;stroke-width:0.58;" x1="17.205" y1="-10.562" x2="15.893"/>
  <line y2="-10.562" style="fill:none;stroke:#FFFFFF;stroke-width:0.58;" x1="20.509" y1="-10.562" x2="19.196"/>
  <line y2="-5.938" style="fill:none;stroke:#FFFFFF;stroke-width:0.58;" x1="3.991" y1="-5.938" x2="2.679"/>
  <line y2="-5.938" style="fill:none;stroke:#FFFFFF;stroke-width:0.58;" x1="7.295" y1="-5.938" x2="5.982"/>
  <line y2="-5.938" style="fill:none;stroke:#FFFFFF;stroke-width:0.58;" x1="10.598" y1="-5.938" x2="9.285"/>
  <line y2="-5.938" style="fill:none;stroke:#FFFFFF;stroke-width:0.58;" x1="13.901" y1="-5.938" x2="12.589"/>
  <line y2="-5.938" style="fill:none;stroke:#FFFFFF;stroke-width:0.58;" x1="17.205" y1="-5.938" x2="15.893"/>
  <line y2="-5.938" style="fill:none;stroke:#FFFFFF;stroke-width:0.58;" x1="20.509" y1="-5.938" x2="19.196"/>
  <line y2="-1.312" style="fill:none;stroke:#FFFFFF;stroke-width:0.58;" x1="3.991" y1="-1.312" x2="2.679"/>
  <line y2="-1.312" style="fill:none;stroke:#FFFFFF;stroke-width:0.58;" x1="7.295" y1="-1.312" x2="5.982"/>
  <line y2="-1.312" style="fill:none;stroke:#FFFFFF;stroke-width:0.58;" x1="10.598" y1="-1.312" x2="9.285"/>
  <line y2="-1.312" style="fill:none;stroke:#FFFFFF;stroke-width:0.58;" x1="13.901" y1="-1.312" x2="12.589"/>
  <line y2="-1.312" style="fill:none;stroke:#FFFFFF;stroke-width:0.58;" x1="17.205" y1="-1.312" x2="15.893"/>
  <line y2="-1.312" style="fill:none;stroke:#FFFFFF;stroke-width:0.58;" x1="20.509" y1="-1.312" x2="19.196"/>
  <line y2="-19.812" style="fill:none;stroke:#FFFFFF;stroke-width:0.58;" x1="23.125" y1="-19.812" x2="22.5"/>
  <line y2="-17.5" style="fill:none;stroke:#FFFFFF;stroke-width:0.58;" x1="1.116" y1="-17.5" x2="2.429"/>
  <line y2="-17.5" style="fill:none;stroke:#FFFFFF;stroke-width:0.58;" x1="4.42" y1="-17.5" x2="5.732"/>
  <line y2="-17.5" style="fill:none;stroke:#FFFFFF;stroke-width:0.58;" x1="7.723" y1="-17.5" x2="9.035"/>
  <line y2="-17.5" style="fill:none;stroke:#FFFFFF;stroke-width:0.58;" x1="11.026" y1="-17.5" x2="12.339"/>
  <line y2="-17.5" style="fill:none;stroke:#FFFFFF;stroke-width:0.58;" x1="14.33" y1="-17.5" x2="15.643"/>
  <line y2="-17.5" style="fill:none;stroke:#FFFFFF;stroke-width:0.58;" x1="17.634" y1="-17.5" x2="18.946"/>
  <line y2="-17.5" style="fill:none;stroke:#FFFFFF;stroke-width:0.58;" x1="20.938" y1="-17.5" x2="22.25"/>
  <line y2="-12.875" style="fill:none;stroke:#FFFFFF;stroke-width:0.58;" x1="1.116" y1="-12.875" x2="2.429"/>
  <line y2="-12.875" style="fill:none;stroke:#FFFFFF;stroke-width:0.58;" x1="4.42" y1="-12.875" x2="5.732"/>
  <line y2="-12.875" style="fill:none;stroke:#FFFFFF;stroke-width:0.58;" x1="7.723" y1="-12.875" x2="9.035"/>
  <line y2="-12.875" style="fill:none;stroke:#FFFFFF;stroke-width:0.58;" x1="11.026" y1="-12.875" x2="12.339"/>
  <line y2="-12.875" style="fill:none;stroke:#FFFFFF;stroke-width:0.58;" x1="14.33" y1="-12.875" x2="15.643"/>
  <line y2="-12.875" style="fill:none;stroke:#FFFFFF;stroke-width:0.58;" x1="17.634" y1="-12.875" x2="18.946"/>
  <line y2="-12.875" style="fill:none;stroke:#FFFFFF;stroke-width:0.58;" x1="20.938" y1="-12.875" x2="22.25"/>
  <line y2="-8.25" style="fill:none;stroke:#FFFFFF;stroke-width:0.58;" x1="1.116" y1="-8.25" x2="2.429"/>
  <line y2="-8.25" style="fill:none;stroke:#FFFFFF;stroke-width:0.58;" x1="4.42" y1="-8.25" x2="5.732"/>
  <line y2="-8.25" style="fill:none;stroke:#FFFFFF;stroke-width:0.58;" x1="7.723" y1="-8.25" x2="9.035"/>
  <line y2="-8.25" style="fill:none;stroke:#FFFFFF;stroke-width:0.58;" x1="11.026" y1="-8.25" x2="12.339"/>
  <line y2="-8.25" style="fill:none;stroke:#FFFFFF;stroke-width:0.58;" x1="14.33" y1="-8.25" x2="15.643"/>
  <line y2="-8.25" style="fill:none;stroke:#FFFFFF;stroke-width:0.58;" x1="17.634" y1="-8.25" x2="18.946"/>
  <line y2="-8.25" style="fill:none;stroke:#FFFFFF;stroke-width:0.58;" x1="20.938" y1="-8.25" x2="22.25"/>
  <line y2="-3.625" style="fill:none;stroke:#FFFFFF;stroke-width:0.58;" x1="2.429" y1="-3.625" x2="1.116"/>
  <line y2="-3.625" style="fill:none;stroke:#FFFFFF;stroke-width:0.58;" x1="5.732" y1="-3.625" x2="4.42"/>
  <line y2="-3.625" style="fill:none;stroke:#FFFFFF;stroke-width:0.58;" x1="9.035" y1="-3.625" x2="7.723"/>
  <line y2="-3.625" style="fill:none;stroke:#FFFFFF;stroke-width:0.58;" x1="12.339" y1="-3.625" x2="11.026"/>
  <line y2="-3.625" style="fill:none;stroke:#FFFFFF;stroke-width:0.58;" x1="15.643" y1="-3.625" x2="14.33"/>
  <line y2="-3.625" style="fill:none;stroke:#FFFFFF;stroke-width:0.58;" x1="18.946" y1="-3.625" x2="17.634"/>
  <line y2="-3.625" style="fill:none;stroke:#FFFFFF;stroke-width:0.58;" x1="22.25" y1="-3.625" x2="20.938"/>
  <line y2="-10.562" style="fill:none;stroke:#FFFFFF;stroke-width:0.58;" x1="22.5" y1="-10.562" x2="23.125"/>
  <line y2="-15.188" style="fill:none;stroke:#FFFFFF;stroke-width:0.58;" x1="23.125" y1="-15.188" x2="22.5"/>
  <line y2="-1.312" style="fill:none;stroke:#FFFFFF;stroke-width:0.58;" x1="22.5" y1="-1.312" x2="23.125"/>
  <line y2="-5.938" style="fill:none;stroke:#FFFFFF;stroke-width:0.58;" x1="23.125" y1="-5.938" x2="22.5"/>
 </g>
</svg>
