<?xml version="1.0"?>
<!-- Converted with SVG Converter - Version 0.9.5 (Compiled Fri Feb 21 09:53:38 2020) - Copyright (C) 2011 Nokia -->
<svg xmlns="http://www.w3.org/2000/svg" x="0px" height="23.125" xmlns:xlink="http://www.w3.org/1999/xlink" width="23.125" baseProfile="tiny" viewBox="0 -23.125 23.125 23.125" version="1.1" xml:space="preserve" y="0px">
 <g>
  <rect height="23.125" width="23.125" y="-23.125" style="fill:none;"/>
  <line x1="0" x2="0.688" style="fill:none;stroke:#000000;stroke-width:0.43;" y1="-19.812" y2="-19.812"/>
  <line x1="1.062" x2="2.375" style="fill:none;stroke:#000000;stroke-width:0.43;" y1="-22.125" y2="-22.125"/>
  <line x1="4.312" x2="5.625" style="fill:none;stroke:#000000;stroke-width:0.43;" y1="-22.125" y2="-22.125"/>
  <line x1="7.562" x2="8.875" style="fill:none;stroke:#000000;stroke-width:0.43;" y1="-22.125" y2="-22.125"/>
  <line x1="10.812" x2="12.125" style="fill:none;stroke:#000000;stroke-width:0.43;" y1="-22.125" y2="-22.125"/>
  <line x1="14.062" x2="15.375" style="fill:none;stroke:#000000;stroke-width:0.43;" y1="-22.125" y2="-22.125"/>
  <line x1="17.312" x2="18.625" style="fill:none;stroke:#000000;stroke-width:0.43;" y1="-22.125" y2="-22.125"/>
  <line x1="20.562" x2="21.875" style="fill:none;stroke:#000000;stroke-width:0.43;" y1="-22.125" y2="-22.125"/>
  <line x1="0.688" x2="0" style="fill:none;stroke:#000000;stroke-width:0.43;" y1="-10.562" y2="-10.562"/>
  <line x1="0" x2="0.688" style="fill:none;stroke:#000000;stroke-width:0.43;" y1="-15.188" y2="-15.188"/>
  <line x1="0" x2="0.688" style="fill:none;stroke:#000000;stroke-width:0.43;" y1="-1.312" y2="-1.312"/>
  <line x1="0" x2="0.688" style="fill:none;stroke:#000000;stroke-width:0.43;" y1="-5.938" y2="-5.938"/>
  <line x1="2.679" x2="3.991" style="fill:none;stroke:#000000;stroke-width:0.43;" y1="-19.812" y2="-19.812"/>
  <line x1="5.982" x2="7.294" style="fill:none;stroke:#000000;stroke-width:0.43;" y1="-19.812" y2="-19.812"/>
  <line x1="9.286" x2="10.598" style="fill:none;stroke:#000000;stroke-width:0.43;" y1="-19.812" y2="-19.812"/>
  <line x1="12.589" x2="13.902" style="fill:none;stroke:#000000;stroke-width:0.43;" y1="-19.812" y2="-19.812"/>
  <line x1="15.893" x2="17.205" style="fill:none;stroke:#000000;stroke-width:0.43;" y1="-19.812" y2="-19.812"/>
  <line x1="19.196" x2="20.509" style="fill:none;stroke:#000000;stroke-width:0.43;" y1="-19.812" y2="-19.812"/>
  <line x1="3.991" x2="2.679" style="fill:none;stroke:#000000;stroke-width:0.43;" y1="-15.188" y2="-15.188"/>
  <line x1="7.294" x2="5.982" style="fill:none;stroke:#000000;stroke-width:0.43;" y1="-15.188" y2="-15.188"/>
  <line x1="10.598" x2="9.286" style="fill:none;stroke:#000000;stroke-width:0.43;" y1="-15.188" y2="-15.188"/>
  <line x1="13.902" x2="12.589" style="fill:none;stroke:#000000;stroke-width:0.43;" y1="-15.188" y2="-15.188"/>
  <line x1="17.205" x2="15.893" style="fill:none;stroke:#000000;stroke-width:0.43;" y1="-15.188" y2="-15.188"/>
  <line x1="20.509" x2="19.196" style="fill:none;stroke:#000000;stroke-width:0.43;" y1="-15.188" y2="-15.188"/>
  <line x1="3.991" x2="2.679" style="fill:none;stroke:#000000;stroke-width:0.43;" y1="-10.562" y2="-10.562"/>
  <line x1="7.294" x2="5.982" style="fill:none;stroke:#000000;stroke-width:0.43;" y1="-10.562" y2="-10.562"/>
  <line x1="10.598" x2="9.286" style="fill:none;stroke:#000000;stroke-width:0.43;" y1="-10.562" y2="-10.562"/>
  <line x1="13.902" x2="12.589" style="fill:none;stroke:#000000;stroke-width:0.43;" y1="-10.562" y2="-10.562"/>
  <line x1="17.205" x2="15.893" style="fill:none;stroke:#000000;stroke-width:0.43;" y1="-10.562" y2="-10.562"/>
  <line x1="20.509" x2="19.196" style="fill:none;stroke:#000000;stroke-width:0.43;" y1="-10.562" y2="-10.562"/>
  <line x1="3.991" x2="2.679" style="fill:none;stroke:#000000;stroke-width:0.43;" y1="-5.938" y2="-5.938"/>
  <line x1="7.294" x2="5.982" style="fill:none;stroke:#000000;stroke-width:0.43;" y1="-5.938" y2="-5.938"/>
  <line x1="10.598" x2="9.286" style="fill:none;stroke:#000000;stroke-width:0.43;" y1="-5.938" y2="-5.938"/>
  <line x1="13.902" x2="12.589" style="fill:none;stroke:#000000;stroke-width:0.43;" y1="-5.938" y2="-5.938"/>
  <line x1="17.205" x2="15.893" style="fill:none;stroke:#000000;stroke-width:0.43;" y1="-5.938" y2="-5.938"/>
  <line x1="20.509" x2="19.196" style="fill:none;stroke:#000000;stroke-width:0.43;" y1="-5.938" y2="-5.938"/>
  <line x1="3.991" x2="2.679" style="fill:none;stroke:#000000;stroke-width:0.43;" y1="-1.312" y2="-1.312"/>
  <line x1="7.294" x2="5.982" style="fill:none;stroke:#000000;stroke-width:0.43;" y1="-1.312" y2="-1.312"/>
  <line x1="10.598" x2="9.286" style="fill:none;stroke:#000000;stroke-width:0.43;" y1="-1.312" y2="-1.312"/>
  <line x1="13.902" x2="12.589" style="fill:none;stroke:#000000;stroke-width:0.43;" y1="-1.312" y2="-1.312"/>
  <line x1="17.205" x2="15.893" style="fill:none;stroke:#000000;stroke-width:0.43;" y1="-1.312" y2="-1.312"/>
  <line x1="20.509" x2="19.196" style="fill:none;stroke:#000000;stroke-width:0.43;" y1="-1.312" y2="-1.312"/>
  <line x1="23.125" x2="22.5" style="fill:none;stroke:#000000;stroke-width:0.43;" y1="-19.812" y2="-19.812"/>
  <line x1="1.116" x2="2.429" style="fill:none;stroke:#000000;stroke-width:0.43;" y1="-17.5" y2="-17.5"/>
  <line x1="4.419" x2="5.732" style="fill:none;stroke:#000000;stroke-width:0.43;" y1="-17.5" y2="-17.5"/>
  <line x1="7.723" x2="9.036" style="fill:none;stroke:#000000;stroke-width:0.43;" y1="-17.5" y2="-17.5"/>
  <line x1="11.027" x2="12.339" style="fill:none;stroke:#000000;stroke-width:0.43;" y1="-17.5" y2="-17.5"/>
  <line x1="14.33" x2="15.643" style="fill:none;stroke:#000000;stroke-width:0.43;" y1="-17.5" y2="-17.5"/>
  <line x1="17.634" x2="18.946" style="fill:none;stroke:#000000;stroke-width:0.43;" y1="-17.5" y2="-17.5"/>
  <line x1="20.938" x2="22.25" style="fill:none;stroke:#000000;stroke-width:0.43;" y1="-17.5" y2="-17.5"/>
  <line x1="1.116" x2="2.429" style="fill:none;stroke:#000000;stroke-width:0.43;" y1="-12.875" y2="-12.875"/>
  <line x1="4.419" x2="5.732" style="fill:none;stroke:#000000;stroke-width:0.43;" y1="-12.875" y2="-12.875"/>
  <line x1="7.723" x2="9.036" style="fill:none;stroke:#000000;stroke-width:0.43;" y1="-12.875" y2="-12.875"/>
  <line x1="11.027" x2="12.339" style="fill:none;stroke:#000000;stroke-width:0.43;" y1="-12.875" y2="-12.875"/>
  <line x1="14.33" x2="15.643" style="fill:none;stroke:#000000;stroke-width:0.43;" y1="-12.875" y2="-12.875"/>
  <line x1="17.634" x2="18.946" style="fill:none;stroke:#000000;stroke-width:0.43;" y1="-12.875" y2="-12.875"/>
  <line x1="20.938" x2="22.25" style="fill:none;stroke:#000000;stroke-width:0.43;" y1="-12.875" y2="-12.875"/>
  <line x1="1.116" x2="2.429" style="fill:none;stroke:#000000;stroke-width:0.43;" y1="-8.25" y2="-8.25"/>
  <line x1="4.419" x2="5.732" style="fill:none;stroke:#000000;stroke-width:0.43;" y1="-8.25" y2="-8.25"/>
  <line x1="7.723" x2="9.036" style="fill:none;stroke:#000000;stroke-width:0.43;" y1="-8.25" y2="-8.25"/>
  <line x1="11.027" x2="12.339" style="fill:none;stroke:#000000;stroke-width:0.43;" y1="-8.25" y2="-8.25"/>
  <line x1="14.33" x2="15.643" style="fill:none;stroke:#000000;stroke-width:0.43;" y1="-8.25" y2="-8.25"/>
  <line x1="17.634" x2="18.946" style="fill:none;stroke:#000000;stroke-width:0.43;" y1="-8.25" y2="-8.25"/>
  <line x1="20.938" x2="22.25" style="fill:none;stroke:#000000;stroke-width:0.43;" y1="-8.25" y2="-8.25"/>
  <line x1="2.429" x2="1.116" style="fill:none;stroke:#000000;stroke-width:0.43;" y1="-3.625" y2="-3.625"/>
  <line x1="5.732" x2="4.419" style="fill:none;stroke:#000000;stroke-width:0.43;" y1="-3.625" y2="-3.625"/>
  <line x1="9.036" x2="7.723" style="fill:none;stroke:#000000;stroke-width:0.43;" y1="-3.625" y2="-3.625"/>
  <line x1="12.339" x2="11.027" style="fill:none;stroke:#000000;stroke-width:0.43;" y1="-3.625" y2="-3.625"/>
  <line x1="15.643" x2="14.33" style="fill:none;stroke:#000000;stroke-width:0.43;" y1="-3.625" y2="-3.625"/>
  <line x1="18.946" x2="17.634" style="fill:none;stroke:#000000;stroke-width:0.43;" y1="-3.625" y2="-3.625"/>
  <line x1="22.25" x2="20.938" style="fill:none;stroke:#000000;stroke-width:0.43;" y1="-3.625" y2="-3.625"/>
  <line x1="22.5" x2="23.125" style="fill:none;stroke:#000000;stroke-width:0.43;" y1="-10.562" y2="-10.562"/>
  <line x1="23.125" x2="22.5" style="fill:none;stroke:#000000;stroke-width:0.43;" y1="-15.188" y2="-15.188"/>
  <line x1="22.5" x2="23.125" style="fill:none;stroke:#000000;stroke-width:0.43;" y1="-1.312" y2="-1.312"/>
  <line x1="23.125" x2="22.5" style="fill:none;stroke:#000000;stroke-width:0.43;" y1="-5.938" y2="-5.938"/>
 </g>
</svg>
