<?xml version="1.0"?>
<!-- Converted with SVG Converter - Version 0.9.6 (Compiled Thu Aug 31 10:01:05 2017) - Copyright (C) 2011 Nokia -->
<svg xmlns="http://www.w3.org/2000/svg" xmlns:xlink="http://www.w3.org/1999/xlink" version="1.1" width="79.25" viewBox="0 -79.334 79.25 79.25" height="79.25" y="0px" baseProfile="tiny" xml:space="preserve" x="0px">
 <g>
  <rect style="fill:none;" width="79.25" height="79.25" y="-79.334"/>
  <rect width="79.25" height="79.25" y="-79.334"/>
  <line x1="14.252" style="fill-rule:evenodd;clip-rule:evenodd;fill:none;stroke:#FFFFFF;stroke-width:0.9;" x2="15.125" y1="-13.222" y2="-15.006"/>
  <line x1="8.03" style="fill-rule:evenodd;clip-rule:evenodd;fill:none;stroke:#FFFFFF;stroke-width:0.9;" x2="10.008" y1="-11.883" y2="-12.072"/>
  <line x1="3.384" style="fill-rule:evenodd;clip-rule:evenodd;fill:none;stroke:#FFFFFF;stroke-width:0.9;" x2="4.769" y1="-12.277" y2="-13.701"/>
  <line x1="13.002" style="fill-rule:evenodd;clip-rule:evenodd;fill:none;stroke:#FFFFFF;stroke-width:0.9;" x2="12.558" y1="-9.055" y2="-7.119"/>
  <line x1="7.833" style="fill-rule:evenodd;clip-rule:evenodd;fill:none;stroke:#FFFFFF;stroke-width:0.9;" x2="5.914" y1="-8.143" y2="-8.654"/>
  <line x1="1.494" style="fill-rule:evenodd;clip-rule:evenodd;fill:none;stroke:#FFFFFF;stroke-width:0.9;" x2="0.749" y1="-9.757" y2="-11.599"/>
  <line x1="3.463" style="fill-rule:evenodd;clip-rule:evenodd;fill:none;stroke:#FFFFFF;stroke-width:0.9;" x2="1.663" y1="-6.292" y2="-5.452"/>
  <line x1="9.133" style="fill-rule:evenodd;clip-rule:evenodd;fill:none;stroke:#FFFFFF;stroke-width:0.9;" x2="7.436" y1="-4.127" y2="-3.094"/>
  <line x1="14.797" style="fill-rule:evenodd;clip-rule:evenodd;fill:none;stroke:#FFFFFF;stroke-width:0.9;" x2="13.067" y1="-2.71" y2="-3.685"/>
  <line x1="10.781" style="fill-rule:evenodd;clip-rule:evenodd;fill:none;stroke:#FFFFFF;stroke-width:0.9;" x2="10.598" y1="-1.056" y2="-0.083"/>
  <line x1="3.629" style="fill-rule:evenodd;clip-rule:evenodd;fill:none;stroke:#FFFFFF;stroke-width:0.9;" x2="2.671" y1="-1.232" y2="-2.972"/>
  <line x1="10.668" style="fill-rule:evenodd;clip-rule:evenodd;fill:none;stroke:#FFFFFF;stroke-width:0.9;" x2="10.402" y1="-16.333" y2="-14.935"/>
  <line x1="30.09" style="fill-rule:evenodd;clip-rule:evenodd;fill:none;stroke:#FFFFFF;stroke-width:0.9;" x2="30.964" y1="-13.222" y2="-15.006"/>
  <line x1="23.869" style="fill-rule:evenodd;clip-rule:evenodd;fill:none;stroke:#FFFFFF;stroke-width:0.9;" x2="25.847" y1="-11.883" y2="-12.072"/>
  <line x1="19.223" style="fill-rule:evenodd;clip-rule:evenodd;fill:none;stroke:#FFFFFF;stroke-width:0.9;" x2="20.608" y1="-12.277" y2="-13.701"/>
  <line x1="28.841" style="fill-rule:evenodd;clip-rule:evenodd;fill:none;stroke:#FFFFFF;stroke-width:0.9;" x2="28.397" y1="-9.055" y2="-7.119"/>
  <line x1="23.672" style="fill-rule:evenodd;clip-rule:evenodd;fill:none;stroke:#FFFFFF;stroke-width:0.9;" x2="21.753" y1="-8.143" y2="-8.654"/>
  <line x1="17.333" style="fill-rule:evenodd;clip-rule:evenodd;fill:none;stroke:#FFFFFF;stroke-width:0.9;" x2="16.589" y1="-9.757" y2="-11.599"/>
  <line x1="19.302" style="fill-rule:evenodd;clip-rule:evenodd;fill:none;stroke:#FFFFFF;stroke-width:0.9;" x2="17.502" y1="-6.292" y2="-5.452"/>
  <line x1="24.972" style="fill-rule:evenodd;clip-rule:evenodd;fill:none;stroke:#FFFFFF;stroke-width:0.9;" x2="23.275" y1="-4.127" y2="-3.094"/>
  <line x1="30.636" style="fill-rule:evenodd;clip-rule:evenodd;fill:none;stroke:#FFFFFF;stroke-width:0.9;" x2="28.906" y1="-2.71" y2="-3.685"/>
  <line x1="26.691" style="fill-rule:evenodd;clip-rule:evenodd;fill:none;stroke:#FFFFFF;stroke-width:0.9;" x2="26.508" y1="-1.056" y2="-0.083"/>
  <line x1="19.469" style="fill-rule:evenodd;clip-rule:evenodd;fill:none;stroke:#FFFFFF;stroke-width:0.9;" x2="18.51" y1="-1.232" y2="-2.972"/>
  <line x1="26.507" style="fill-rule:evenodd;clip-rule:evenodd;fill:none;stroke:#FFFFFF;stroke-width:0.9;" x2="26.241" y1="-16.333" y2="-14.935"/>
  <line x1="45.929" style="fill-rule:evenodd;clip-rule:evenodd;fill:none;stroke:#FFFFFF;stroke-width:0.9;" x2="46.803" y1="-13.222" y2="-15.006"/>
  <line x1="39.708" style="fill-rule:evenodd;clip-rule:evenodd;fill:none;stroke:#FFFFFF;stroke-width:0.9;" x2="41.686" y1="-11.883" y2="-12.072"/>
  <line x1="35.062" style="fill-rule:evenodd;clip-rule:evenodd;fill:none;stroke:#FFFFFF;stroke-width:0.9;" x2="36.447" y1="-12.277" y2="-13.701"/>
  <line x1="44.68" style="fill-rule:evenodd;clip-rule:evenodd;fill:none;stroke:#FFFFFF;stroke-width:0.9;" x2="44.236" y1="-9.055" y2="-7.119"/>
  <line x1="39.511" style="fill-rule:evenodd;clip-rule:evenodd;fill:none;stroke:#FFFFFF;stroke-width:0.9;" x2="37.592" y1="-8.143" y2="-8.654"/>
  <line x1="33.172" style="fill-rule:evenodd;clip-rule:evenodd;fill:none;stroke:#FFFFFF;stroke-width:0.9;" x2="32.428" y1="-9.757" y2="-11.599"/>
  <line x1="35.141" style="fill-rule:evenodd;clip-rule:evenodd;fill:none;stroke:#FFFFFF;stroke-width:0.9;" x2="33.341" y1="-6.292" y2="-5.452"/>
  <line x1="40.811" style="fill-rule:evenodd;clip-rule:evenodd;fill:none;stroke:#FFFFFF;stroke-width:0.9;" x2="39.114" y1="-4.127" y2="-3.094"/>
  <line x1="46.475" style="fill-rule:evenodd;clip-rule:evenodd;fill:none;stroke:#FFFFFF;stroke-width:0.9;" x2="44.745" y1="-2.71" y2="-3.685"/>
  <line x1="42.459" style="fill-rule:evenodd;clip-rule:evenodd;fill:none;stroke:#FFFFFF;stroke-width:0.9;" x2="42.275" y1="-1.056" y2="-0.083"/>
  <line x1="35.308" style="fill-rule:evenodd;clip-rule:evenodd;fill:none;stroke:#FFFFFF;stroke-width:0.9;" x2="34.349" y1="-1.232" y2="-2.972"/>
  <line x1="42.346" style="fill-rule:evenodd;clip-rule:evenodd;fill:none;stroke:#FFFFFF;stroke-width:0.9;" x2="42.08" y1="-16.333" y2="-14.935"/>
  <line x1="61.769" style="fill-rule:evenodd;clip-rule:evenodd;fill:none;stroke:#FFFFFF;stroke-width:0.9;" x2="62.642" y1="-13.222" y2="-15.006"/>
  <line x1="55.547" style="fill-rule:evenodd;clip-rule:evenodd;fill:none;stroke:#FFFFFF;stroke-width:0.9;" x2="57.524" y1="-11.883" y2="-12.072"/>
  <line x1="50.901" style="fill-rule:evenodd;clip-rule:evenodd;fill:none;stroke:#FFFFFF;stroke-width:0.9;" x2="52.286" y1="-12.277" y2="-13.701"/>
  <line x1="60.519" style="fill-rule:evenodd;clip-rule:evenodd;fill:none;stroke:#FFFFFF;stroke-width:0.9;" x2="60.075" y1="-9.055" y2="-7.119"/>
  <line x1="55.35" style="fill-rule:evenodd;clip-rule:evenodd;fill:none;stroke:#FFFFFF;stroke-width:0.9;" x2="53.431" y1="-8.143" y2="-8.654"/>
  <line x1="49.011" style="fill-rule:evenodd;clip-rule:evenodd;fill:none;stroke:#FFFFFF;stroke-width:0.9;" x2="48.267" y1="-9.757" y2="-11.599"/>
  <line x1="50.979" style="fill-rule:evenodd;clip-rule:evenodd;fill:none;stroke:#FFFFFF;stroke-width:0.9;" x2="49.18" y1="-6.292" y2="-5.452"/>
  <line x1="56.65" style="fill-rule:evenodd;clip-rule:evenodd;fill:none;stroke:#FFFFFF;stroke-width:0.9;" x2="54.953" y1="-4.127" y2="-3.094"/>
  <line x1="62.314" style="fill-rule:evenodd;clip-rule:evenodd;fill:none;stroke:#FFFFFF;stroke-width:0.9;" x2="60.583" y1="-2.71" y2="-3.685"/>
  <line x1="58.298" style="fill-rule:evenodd;clip-rule:evenodd;fill:none;stroke:#FFFFFF;stroke-width:0.9;" x2="58.114" y1="-1.056" y2="-0.083"/>
  <line x1="51.146" style="fill-rule:evenodd;clip-rule:evenodd;fill:none;stroke:#FFFFFF;stroke-width:0.9;" x2="50.188" y1="-1.232" y2="-2.972"/>
  <line x1="58.186" style="fill-rule:evenodd;clip-rule:evenodd;fill:none;stroke:#FFFFFF;stroke-width:0.9;" x2="57.919" y1="-16.333" y2="-14.935"/>
  <line x1="77.607" style="fill-rule:evenodd;clip-rule:evenodd;fill:none;stroke:#FFFFFF;stroke-width:0.9;" x2="78.481" y1="-13.222" y2="-15.006"/>
  <line x1="71.386" style="fill-rule:evenodd;clip-rule:evenodd;fill:none;stroke:#FFFFFF;stroke-width:0.9;" x2="73.364" y1="-11.883" y2="-12.072"/>
  <line x1="66.74" style="fill-rule:evenodd;clip-rule:evenodd;fill:none;stroke:#FFFFFF;stroke-width:0.9;" x2="68.124" y1="-12.277" y2="-13.701"/>
  <line x1="76.358" style="fill-rule:evenodd;clip-rule:evenodd;fill:none;stroke:#FFFFFF;stroke-width:0.9;" x2="75.914" y1="-9.055" y2="-7.119"/>
  <line x1="71.189" style="fill-rule:evenodd;clip-rule:evenodd;fill:none;stroke:#FFFFFF;stroke-width:0.9;" x2="69.27" y1="-8.143" y2="-8.654"/>
  <line x1="64.85" style="fill-rule:evenodd;clip-rule:evenodd;fill:none;stroke:#FFFFFF;stroke-width:0.9;" x2="64.105" y1="-9.757" y2="-11.599"/>
  <line x1="66.819" style="fill-rule:evenodd;clip-rule:evenodd;fill:none;stroke:#FFFFFF;stroke-width:0.9;" x2="65.019" y1="-6.292" y2="-5.452"/>
  <line x1="72.489" style="fill-rule:evenodd;clip-rule:evenodd;fill:none;stroke:#FFFFFF;stroke-width:0.9;" x2="70.792" y1="-4.127" y2="-3.094"/>
  <line x1="78.153" style="fill-rule:evenodd;clip-rule:evenodd;fill:none;stroke:#FFFFFF;stroke-width:0.9;" x2="76.423" y1="-2.71" y2="-3.685"/>
  <line x1="74.137" style="fill-rule:evenodd;clip-rule:evenodd;fill:none;stroke:#FFFFFF;stroke-width:0.9;" x2="73.954" y1="-1.056" y2="-0.083"/>
  <line x1="66.985" style="fill-rule:evenodd;clip-rule:evenodd;fill:none;stroke:#FFFFFF;stroke-width:0.9;" x2="66.027" y1="-1.232" y2="-2.972"/>
  <line x1="74.024" style="fill-rule:evenodd;clip-rule:evenodd;fill:none;stroke:#FFFFFF;stroke-width:0.9;" x2="73.758" y1="-16.333" y2="-14.935"/>
  <line x1="14.252" style="fill-rule:evenodd;clip-rule:evenodd;fill:none;stroke:#FFFFFF;stroke-width:0.9;" x2="15.125" y1="-29.061" y2="-30.845"/>
  <line x1="8.03" style="fill-rule:evenodd;clip-rule:evenodd;fill:none;stroke:#FFFFFF;stroke-width:0.9;" x2="10.008" y1="-27.722" y2="-27.911"/>
  <line x1="3.384" style="fill-rule:evenodd;clip-rule:evenodd;fill:none;stroke:#FFFFFF;stroke-width:0.9;" x2="4.769" y1="-28.116" y2="-29.541"/>
  <line x1="12.558" style="fill-rule:evenodd;clip-rule:evenodd;fill:none;stroke:#FFFFFF;stroke-width:0.9;" x2="13.002" y1="-22.958" y2="-24.894"/>
  <line x1="7.833" style="fill-rule:evenodd;clip-rule:evenodd;fill:none;stroke:#FFFFFF;stroke-width:0.9;" x2="5.914" y1="-23.982" y2="-24.494"/>
  <line x1="1.494" style="fill-rule:evenodd;clip-rule:evenodd;fill:none;stroke:#FFFFFF;stroke-width:0.9;" x2="0.749" y1="-25.596" y2="-27.438"/>
  <line x1="3.463" style="fill-rule:evenodd;clip-rule:evenodd;fill:none;stroke:#FFFFFF;stroke-width:0.9;" x2="1.663" y1="-22.131" y2="-21.291"/>
  <line x1="9.133" style="fill-rule:evenodd;clip-rule:evenodd;fill:none;stroke:#FFFFFF;stroke-width:0.9;" x2="7.436" y1="-19.965" y2="-18.933"/>
  <line x1="14.797" style="fill-rule:evenodd;clip-rule:evenodd;fill:none;stroke:#FFFFFF;stroke-width:0.9;" x2="13.067" y1="-18.549" y2="-19.523"/>
  <line x1="10.55" style="fill-rule:evenodd;clip-rule:evenodd;fill:none;stroke:#FFFFFF;stroke-width:0.9;" x2="10.781" y1="-15.674" y2="-16.895"/>
  <line x1="2.671" style="fill-rule:evenodd;clip-rule:evenodd;fill:none;stroke:#FFFFFF;stroke-width:0.9;" x2="3.629" y1="-18.811" y2="-17.071"/>
  <line x1="10.668" style="fill-rule:evenodd;clip-rule:evenodd;fill:none;stroke:#FFFFFF;stroke-width:0.9;" x2="10.402" y1="-32.171" y2="-30.774"/>
  <line x1="30.09" style="fill-rule:evenodd;clip-rule:evenodd;fill:none;stroke:#FFFFFF;stroke-width:0.9;" x2="30.964" y1="-29.061" y2="-30.845"/>
  <line x1="23.869" style="fill-rule:evenodd;clip-rule:evenodd;fill:none;stroke:#FFFFFF;stroke-width:0.9;" x2="25.847" y1="-27.722" y2="-27.911"/>
  <line x1="19.223" style="fill-rule:evenodd;clip-rule:evenodd;fill:none;stroke:#FFFFFF;stroke-width:0.9;" x2="20.608" y1="-28.116" y2="-29.541"/>
  <line x1="28.397" style="fill-rule:evenodd;clip-rule:evenodd;fill:none;stroke:#FFFFFF;stroke-width:0.9;" x2="28.841" y1="-22.958" y2="-24.894"/>
  <line x1="23.672" style="fill-rule:evenodd;clip-rule:evenodd;fill:none;stroke:#FFFFFF;stroke-width:0.9;" x2="21.753" y1="-23.982" y2="-24.494"/>
  <line x1="17.333" style="fill-rule:evenodd;clip-rule:evenodd;fill:none;stroke:#FFFFFF;stroke-width:0.9;" x2="16.589" y1="-25.596" y2="-27.438"/>
  <line x1="19.302" style="fill-rule:evenodd;clip-rule:evenodd;fill:none;stroke:#FFFFFF;stroke-width:0.9;" x2="17.502" y1="-22.131" y2="-21.291"/>
  <line x1="24.972" style="fill-rule:evenodd;clip-rule:evenodd;fill:none;stroke:#FFFFFF;stroke-width:0.9;" x2="23.275" y1="-19.965" y2="-18.933"/>
  <line x1="30.636" style="fill-rule:evenodd;clip-rule:evenodd;fill:none;stroke:#FFFFFF;stroke-width:0.9;" x2="28.906" y1="-18.549" y2="-19.523"/>
  <line x1="26.39" style="fill-rule:evenodd;clip-rule:evenodd;fill:none;stroke:#FFFFFF;stroke-width:0.9;" x2="26.62" y1="-15.674" y2="-16.895"/>
  <line x1="18.51" style="fill-rule:evenodd;clip-rule:evenodd;fill:none;stroke:#FFFFFF;stroke-width:0.9;" x2="19.469" y1="-18.811" y2="-17.071"/>
  <line x1="26.507" style="fill-rule:evenodd;clip-rule:evenodd;fill:none;stroke:#FFFFFF;stroke-width:0.9;" x2="26.241" y1="-32.171" y2="-30.774"/>
  <line x1="45.929" style="fill-rule:evenodd;clip-rule:evenodd;fill:none;stroke:#FFFFFF;stroke-width:0.9;" x2="46.803" y1="-29.061" y2="-30.845"/>
  <line x1="39.708" style="fill-rule:evenodd;clip-rule:evenodd;fill:none;stroke:#FFFFFF;stroke-width:0.9;" x2="41.686" y1="-27.722" y2="-27.911"/>
  <line x1="35.062" style="fill-rule:evenodd;clip-rule:evenodd;fill:none;stroke:#FFFFFF;stroke-width:0.9;" x2="36.447" y1="-28.116" y2="-29.541"/>
  <line x1="44.236" style="fill-rule:evenodd;clip-rule:evenodd;fill:none;stroke:#FFFFFF;stroke-width:0.9;" x2="44.68" y1="-22.958" y2="-24.894"/>
  <line x1="39.511" style="fill-rule:evenodd;clip-rule:evenodd;fill:none;stroke:#FFFFFF;stroke-width:0.9;" x2="37.592" y1="-23.982" y2="-24.494"/>
  <line x1="33.172" style="fill-rule:evenodd;clip-rule:evenodd;fill:none;stroke:#FFFFFF;stroke-width:0.9;" x2="32.428" y1="-25.596" y2="-27.438"/>
  <line x1="35.141" style="fill-rule:evenodd;clip-rule:evenodd;fill:none;stroke:#FFFFFF;stroke-width:0.9;" x2="33.341" y1="-22.131" y2="-21.291"/>
  <line x1="40.811" style="fill-rule:evenodd;clip-rule:evenodd;fill:none;stroke:#FFFFFF;stroke-width:0.9;" x2="39.114" y1="-19.965" y2="-18.933"/>
  <line x1="46.475" style="fill-rule:evenodd;clip-rule:evenodd;fill:none;stroke:#FFFFFF;stroke-width:0.9;" x2="44.745" y1="-18.549" y2="-19.523"/>
  <line x1="42.229" style="fill-rule:evenodd;clip-rule:evenodd;fill:none;stroke:#FFFFFF;stroke-width:0.9;" x2="42.459" y1="-15.674" y2="-16.895"/>
  <line x1="34.349" style="fill-rule:evenodd;clip-rule:evenodd;fill:none;stroke:#FFFFFF;stroke-width:0.9;" x2="35.308" y1="-18.811" y2="-17.071"/>
  <line x1="42.346" style="fill-rule:evenodd;clip-rule:evenodd;fill:none;stroke:#FFFFFF;stroke-width:0.9;" x2="42.08" y1="-32.171" y2="-30.774"/>
  <line x1="61.769" style="fill-rule:evenodd;clip-rule:evenodd;fill:none;stroke:#FFFFFF;stroke-width:0.9;" x2="62.642" y1="-29.061" y2="-30.845"/>
  <line x1="55.547" style="fill-rule:evenodd;clip-rule:evenodd;fill:none;stroke:#FFFFFF;stroke-width:0.9;" x2="57.524" y1="-27.722" y2="-27.911"/>
  <line x1="50.901" style="fill-rule:evenodd;clip-rule:evenodd;fill:none;stroke:#FFFFFF;stroke-width:0.9;" x2="52.286" y1="-28.116" y2="-29.541"/>
  <line x1="60.075" style="fill-rule:evenodd;clip-rule:evenodd;fill:none;stroke:#FFFFFF;stroke-width:0.9;" x2="60.519" y1="-22.958" y2="-24.894"/>
  <line x1="55.35" style="fill-rule:evenodd;clip-rule:evenodd;fill:none;stroke:#FFFFFF;stroke-width:0.9;" x2="53.431" y1="-23.982" y2="-24.494"/>
  <line x1="49.011" style="fill-rule:evenodd;clip-rule:evenodd;fill:none;stroke:#FFFFFF;stroke-width:0.9;" x2="48.267" y1="-25.596" y2="-27.438"/>
  <line x1="50.979" style="fill-rule:evenodd;clip-rule:evenodd;fill:none;stroke:#FFFFFF;stroke-width:0.9;" x2="49.18" y1="-22.131" y2="-21.291"/>
  <line x1="56.65" style="fill-rule:evenodd;clip-rule:evenodd;fill:none;stroke:#FFFFFF;stroke-width:0.9;" x2="54.953" y1="-19.965" y2="-18.933"/>
  <line x1="62.314" style="fill-rule:evenodd;clip-rule:evenodd;fill:none;stroke:#FFFFFF;stroke-width:0.9;" x2="60.583" y1="-18.549" y2="-19.523"/>
  <line x1="58.067" style="fill-rule:evenodd;clip-rule:evenodd;fill:none;stroke:#FFFFFF;stroke-width:0.9;" x2="58.298" y1="-15.674" y2="-16.895"/>
  <line x1="50.188" style="fill-rule:evenodd;clip-rule:evenodd;fill:none;stroke:#FFFFFF;stroke-width:0.9;" x2="51.146" y1="-18.811" y2="-17.071"/>
  <line x1="58.186" style="fill-rule:evenodd;clip-rule:evenodd;fill:none;stroke:#FFFFFF;stroke-width:0.9;" x2="57.919" y1="-32.171" y2="-30.774"/>
  <line x1="77.607" style="fill-rule:evenodd;clip-rule:evenodd;fill:none;stroke:#FFFFFF;stroke-width:0.9;" x2="78.481" y1="-29.061" y2="-30.845"/>
  <line x1="71.386" style="fill-rule:evenodd;clip-rule:evenodd;fill:none;stroke:#FFFFFF;stroke-width:0.9;" x2="73.364" y1="-27.722" y2="-27.911"/>
  <line x1="66.74" style="fill-rule:evenodd;clip-rule:evenodd;fill:none;stroke:#FFFFFF;stroke-width:0.9;" x2="68.124" y1="-28.116" y2="-29.541"/>
  <line x1="75.914" style="fill-rule:evenodd;clip-rule:evenodd;fill:none;stroke:#FFFFFF;stroke-width:0.9;" x2="76.358" y1="-22.958" y2="-24.894"/>
  <line x1="71.189" style="fill-rule:evenodd;clip-rule:evenodd;fill:none;stroke:#FFFFFF;stroke-width:0.9;" x2="69.27" y1="-23.982" y2="-24.494"/>
  <line x1="64.85" style="fill-rule:evenodd;clip-rule:evenodd;fill:none;stroke:#FFFFFF;stroke-width:0.9;" x2="64.105" y1="-25.596" y2="-27.438"/>
  <line x1="66.819" style="fill-rule:evenodd;clip-rule:evenodd;fill:none;stroke:#FFFFFF;stroke-width:0.9;" x2="65.019" y1="-22.131" y2="-21.291"/>
  <line x1="72.489" style="fill-rule:evenodd;clip-rule:evenodd;fill:none;stroke:#FFFFFF;stroke-width:0.9;" x2="70.792" y1="-19.965" y2="-18.933"/>
  <line x1="78.153" style="fill-rule:evenodd;clip-rule:evenodd;fill:none;stroke:#FFFFFF;stroke-width:0.9;" x2="76.423" y1="-18.549" y2="-19.523"/>
  <line x1="73.906" style="fill-rule:evenodd;clip-rule:evenodd;fill:none;stroke:#FFFFFF;stroke-width:0.9;" x2="74.137" y1="-15.674" y2="-16.895"/>
  <line x1="66.027" style="fill-rule:evenodd;clip-rule:evenodd;fill:none;stroke:#FFFFFF;stroke-width:0.9;" x2="66.985" y1="-18.811" y2="-17.071"/>
  <line x1="74.024" style="fill-rule:evenodd;clip-rule:evenodd;fill:none;stroke:#FFFFFF;stroke-width:0.9;" x2="73.758" y1="-32.171" y2="-30.774"/>
  <line x1="14.252" style="fill-rule:evenodd;clip-rule:evenodd;fill:none;stroke:#FFFFFF;stroke-width:0.9;" x2="15.125" y1="-44.9" y2="-46.684"/>
  <line x1="8.03" style="fill-rule:evenodd;clip-rule:evenodd;fill:none;stroke:#FFFFFF;stroke-width:0.9;" x2="10.008" y1="-43.562" y2="-43.75"/>
  <line x1="3.384" style="fill-rule:evenodd;clip-rule:evenodd;fill:none;stroke:#FFFFFF;stroke-width:0.9;" x2="4.769" y1="-43.955" y2="-45.379"/>
  <line x1="12.558" style="fill-rule:evenodd;clip-rule:evenodd;fill:none;stroke:#FFFFFF;stroke-width:0.9;" x2="13.002" y1="-38.797" y2="-40.733"/>
  <line x1="7.833" style="fill-rule:evenodd;clip-rule:evenodd;fill:none;stroke:#FFFFFF;stroke-width:0.9;" x2="5.914" y1="-39.821" y2="-40.333"/>
  <line x1="1.494" style="fill:none;stroke:#FFFFFF;stroke-width:0.9;" x2="0.749" y1="-41.435" y2="-43.276"/>
  <line x1="3.463" style="fill-rule:evenodd;clip-rule:evenodd;fill:none;stroke:#FFFFFF;stroke-width:0.9;" x2="1.663" y1="-37.97" y2="-37.13"/>
  <line x1="9.133" style="fill-rule:evenodd;clip-rule:evenodd;fill:none;stroke:#FFFFFF;stroke-width:0.9;" x2="7.436" y1="-35.805" y2="-34.772"/>
  <line x1="14.797" style="fill-rule:evenodd;clip-rule:evenodd;fill:none;stroke:#FFFFFF;stroke-width:0.9;" x2="13.067" y1="-34.388" y2="-35.362"/>
  <line x1="10.55" style="fill-rule:evenodd;clip-rule:evenodd;fill:none;stroke:#FFFFFF;stroke-width:0.9;" x2="10.781" y1="-31.513" y2="-32.734"/>
  <line x1="2.671" style="fill-rule:evenodd;clip-rule:evenodd;fill:none;stroke:#FFFFFF;stroke-width:0.9;" x2="3.629" y1="-34.65" y2="-32.91"/>
  <line x1="10.668" style="fill-rule:evenodd;clip-rule:evenodd;fill:none;stroke:#FFFFFF;stroke-width:0.9;" x2="10.402" y1="-48.011" y2="-46.613"/>
  <line x1="30.09" style="fill-rule:evenodd;clip-rule:evenodd;fill:none;stroke:#FFFFFF;stroke-width:0.9;" x2="30.964" y1="-44.9" y2="-46.684"/>
  <line x1="23.869" style="fill-rule:evenodd;clip-rule:evenodd;fill:none;stroke:#FFFFFF;stroke-width:0.9;" x2="25.847" y1="-43.562" y2="-43.75"/>
  <line x1="19.223" style="fill-rule:evenodd;clip-rule:evenodd;fill:none;stroke:#FFFFFF;stroke-width:0.9;" x2="20.608" y1="-43.955" y2="-45.379"/>
  <line x1="28.397" style="fill-rule:evenodd;clip-rule:evenodd;fill:none;stroke:#FFFFFF;stroke-width:0.9;" x2="28.841" y1="-38.797" y2="-40.733"/>
  <line x1="23.672" style="fill-rule:evenodd;clip-rule:evenodd;fill:none;stroke:#FFFFFF;stroke-width:0.9;" x2="21.753" y1="-39.821" y2="-40.333"/>
  <line x1="17.333" style="fill-rule:evenodd;clip-rule:evenodd;fill:none;stroke:#FFFFFF;stroke-width:0.9;" x2="16.589" y1="-41.435" y2="-43.276"/>
  <line x1="19.302" style="fill-rule:evenodd;clip-rule:evenodd;fill:none;stroke:#FFFFFF;stroke-width:0.9;" x2="17.502" y1="-37.97" y2="-37.13"/>
  <line x1="24.972" style="fill-rule:evenodd;clip-rule:evenodd;fill:none;stroke:#FFFFFF;stroke-width:0.9;" x2="23.275" y1="-35.805" y2="-34.772"/>
  <line x1="30.636" style="fill-rule:evenodd;clip-rule:evenodd;fill:none;stroke:#FFFFFF;stroke-width:0.9;" x2="28.906" y1="-34.388" y2="-35.362"/>
  <line x1="26.39" style="fill-rule:evenodd;clip-rule:evenodd;fill:none;stroke:#FFFFFF;stroke-width:0.9;" x2="26.62" y1="-31.513" y2="-32.734"/>
  <line x1="18.51" style="fill-rule:evenodd;clip-rule:evenodd;fill:none;stroke:#FFFFFF;stroke-width:0.9;" x2="19.469" y1="-34.65" y2="-32.91"/>
  <line x1="26.507" style="fill-rule:evenodd;clip-rule:evenodd;fill:none;stroke:#FFFFFF;stroke-width:0.9;" x2="26.241" y1="-48.011" y2="-46.613"/>
  <line x1="45.929" style="fill-rule:evenodd;clip-rule:evenodd;fill:none;stroke:#FFFFFF;stroke-width:0.9;" x2="46.803" y1="-44.9" y2="-46.684"/>
  <line x1="39.708" style="fill-rule:evenodd;clip-rule:evenodd;fill:none;stroke:#FFFFFF;stroke-width:0.9;" x2="41.686" y1="-43.562" y2="-43.75"/>
  <line x1="35.062" style="fill-rule:evenodd;clip-rule:evenodd;fill:none;stroke:#FFFFFF;stroke-width:0.9;" x2="36.447" y1="-43.955" y2="-45.379"/>
  <line x1="44.236" style="fill-rule:evenodd;clip-rule:evenodd;fill:none;stroke:#FFFFFF;stroke-width:0.9;" x2="44.68" y1="-38.797" y2="-40.733"/>
  <line x1="39.511" style="fill-rule:evenodd;clip-rule:evenodd;fill:none;stroke:#FFFFFF;stroke-width:0.9;" x2="37.592" y1="-39.821" y2="-40.333"/>
  <line x1="33.172" style="fill-rule:evenodd;clip-rule:evenodd;fill:none;stroke:#FFFFFF;stroke-width:0.9;" x2="32.428" y1="-41.435" y2="-43.276"/>
  <line x1="35.141" style="fill-rule:evenodd;clip-rule:evenodd;fill:none;stroke:#FFFFFF;stroke-width:0.9;" x2="33.341" y1="-37.97" y2="-37.13"/>
  <line x1="40.811" style="fill-rule:evenodd;clip-rule:evenodd;fill:none;stroke:#FFFFFF;stroke-width:0.9;" x2="39.114" y1="-35.805" y2="-34.772"/>
  <line x1="46.475" style="fill-rule:evenodd;clip-rule:evenodd;fill:none;stroke:#FFFFFF;stroke-width:0.9;" x2="44.745" y1="-34.388" y2="-35.362"/>
  <line x1="42.229" style="fill-rule:evenodd;clip-rule:evenodd;fill:none;stroke:#FFFFFF;stroke-width:0.9;" x2="42.459" y1="-31.513" y2="-32.734"/>
  <line x1="34.349" style="fill-rule:evenodd;clip-rule:evenodd;fill:none;stroke:#FFFFFF;stroke-width:0.9;" x2="35.308" y1="-34.65" y2="-32.91"/>
  <line x1="42.346" style="fill-rule:evenodd;clip-rule:evenodd;fill:none;stroke:#FFFFFF;stroke-width:0.9;" x2="42.08" y1="-48.011" y2="-46.613"/>
  <line x1="61.769" style="fill-rule:evenodd;clip-rule:evenodd;fill:none;stroke:#FFFFFF;stroke-width:0.9;" x2="62.642" y1="-44.9" y2="-46.684"/>
  <line x1="55.547" style="fill-rule:evenodd;clip-rule:evenodd;fill:none;stroke:#FFFFFF;stroke-width:0.9;" x2="57.524" y1="-43.562" y2="-43.75"/>
  <line x1="50.901" style="fill-rule:evenodd;clip-rule:evenodd;fill:none;stroke:#FFFFFF;stroke-width:0.9;" x2="52.286" y1="-43.955" y2="-45.379"/>
  <line x1="60.075" style="fill-rule:evenodd;clip-rule:evenodd;fill:none;stroke:#FFFFFF;stroke-width:0.9;" x2="60.519" y1="-38.797" y2="-40.733"/>
  <line x1="55.35" style="fill-rule:evenodd;clip-rule:evenodd;fill:none;stroke:#FFFFFF;stroke-width:0.9;" x2="53.431" y1="-39.821" y2="-40.333"/>
  <line x1="49.011" style="fill-rule:evenodd;clip-rule:evenodd;fill:none;stroke:#FFFFFF;stroke-width:0.9;" x2="48.267" y1="-41.435" y2="-43.276"/>
  <line x1="50.979" style="fill-rule:evenodd;clip-rule:evenodd;fill:none;stroke:#FFFFFF;stroke-width:0.9;" x2="49.18" y1="-37.97" y2="-37.13"/>
  <line x1="56.65" style="fill-rule:evenodd;clip-rule:evenodd;fill:none;stroke:#FFFFFF;stroke-width:0.9;" x2="54.953" y1="-35.805" y2="-34.772"/>
  <line x1="62.314" style="fill-rule:evenodd;clip-rule:evenodd;fill:none;stroke:#FFFFFF;stroke-width:0.9;" x2="60.583" y1="-34.388" y2="-35.362"/>
  <line x1="58.067" style="fill-rule:evenodd;clip-rule:evenodd;fill:none;stroke:#FFFFFF;stroke-width:0.9;" x2="58.298" y1="-31.513" y2="-32.734"/>
  <line x1="50.188" style="fill-rule:evenodd;clip-rule:evenodd;fill:none;stroke:#FFFFFF;stroke-width:0.9;" x2="51.146" y1="-34.65" y2="-32.91"/>
  <line x1="58.186" style="fill-rule:evenodd;clip-rule:evenodd;fill:none;stroke:#FFFFFF;stroke-width:0.9;" x2="57.919" y1="-48.011" y2="-46.613"/>
  <line x1="77.607" style="fill-rule:evenodd;clip-rule:evenodd;fill:none;stroke:#FFFFFF;stroke-width:0.9;" x2="78.481" y1="-44.9" y2="-46.684"/>
  <line x1="71.386" style="fill-rule:evenodd;clip-rule:evenodd;fill:none;stroke:#FFFFFF;stroke-width:0.9;" x2="73.364" y1="-43.562" y2="-43.75"/>
  <line x1="66.74" style="fill-rule:evenodd;clip-rule:evenodd;fill:none;stroke:#FFFFFF;stroke-width:0.9;" x2="68.124" y1="-43.955" y2="-45.379"/>
  <line x1="75.914" style="fill-rule:evenodd;clip-rule:evenodd;fill:none;stroke:#FFFFFF;stroke-width:0.9;" x2="76.358" y1="-38.797" y2="-40.733"/>
  <line x1="71.189" style="fill-rule:evenodd;clip-rule:evenodd;fill:none;stroke:#FFFFFF;stroke-width:0.9;" x2="69.27" y1="-39.821" y2="-40.333"/>
  <line x1="64.85" style="fill-rule:evenodd;clip-rule:evenodd;fill:none;stroke:#FFFFFF;stroke-width:0.9;" x2="64.105" y1="-41.435" y2="-43.276"/>
  <line x1="66.819" style="fill-rule:evenodd;clip-rule:evenodd;fill:none;stroke:#FFFFFF;stroke-width:0.9;" x2="65.019" y1="-37.97" y2="-37.13"/>
  <line x1="72.489" style="fill-rule:evenodd;clip-rule:evenodd;fill:none;stroke:#FFFFFF;stroke-width:0.9;" x2="70.792" y1="-35.805" y2="-34.772"/>
  <line x1="78.153" style="fill-rule:evenodd;clip-rule:evenodd;fill:none;stroke:#FFFFFF;stroke-width:0.9;" x2="76.423" y1="-34.388" y2="-35.362"/>
  <line x1="73.906" style="fill-rule:evenodd;clip-rule:evenodd;fill:none;stroke:#FFFFFF;stroke-width:0.9;" x2="74.137" y1="-31.513" y2="-32.734"/>
  <line x1="66.027" style="fill-rule:evenodd;clip-rule:evenodd;fill:none;stroke:#FFFFFF;stroke-width:0.9;" x2="66.985" y1="-34.65" y2="-32.91"/>
  <line x1="74.024" style="fill-rule:evenodd;clip-rule:evenodd;fill:none;stroke:#FFFFFF;stroke-width:0.9;" x2="73.758" y1="-48.011" y2="-46.613"/>
  <line x1="14.252" style="fill-rule:evenodd;clip-rule:evenodd;fill:none;stroke:#FFFFFF;stroke-width:0.9;" x2="15.125" y1="-60.739" y2="-62.523"/>
  <line x1="8.03" style="fill-rule:evenodd;clip-rule:evenodd;fill:none;stroke:#FFFFFF;stroke-width:0.9;" x2="10.008" y1="-59.4" y2="-59.589"/>
  <line x1="3.384" style="fill-rule:evenodd;clip-rule:evenodd;fill:none;stroke:#FFFFFF;stroke-width:0.9;" x2="4.769" y1="-59.794" y2="-61.218"/>
  <line x1="12.558" style="fill-rule:evenodd;clip-rule:evenodd;fill:none;stroke:#FFFFFF;stroke-width:0.9;" x2="13.002" y1="-54.636" y2="-56.572"/>
  <line x1="7.833" style="fill-rule:evenodd;clip-rule:evenodd;fill:none;stroke:#FFFFFF;stroke-width:0.9;" x2="5.914" y1="-55.66" y2="-56.171"/>
  <line x1="1.494" style="fill-rule:evenodd;clip-rule:evenodd;fill:none;stroke:#FFFFFF;stroke-width:0.9;" x2="0.749" y1="-57.274" y2="-59.116"/>
  <line x1="3.463" style="fill-rule:evenodd;clip-rule:evenodd;fill:none;stroke:#FFFFFF;stroke-width:0.9;" x2="1.663" y1="-53.809" y2="-52.969"/>
  <line x1="9.133" style="fill-rule:evenodd;clip-rule:evenodd;fill:none;stroke:#FFFFFF;stroke-width:0.9;" x2="7.436" y1="-51.644" y2="-50.611"/>
  <line x1="14.797" style="fill-rule:evenodd;clip-rule:evenodd;fill:none;stroke:#FFFFFF;stroke-width:0.9;" x2="13.067" y1="-50.227" y2="-51.201"/>
  <line x1="10.55" style="fill-rule:evenodd;clip-rule:evenodd;fill:none;stroke:#FFFFFF;stroke-width:0.9;" x2="10.781" y1="-47.352" y2="-48.573"/>
  <line x1="2.671" style="fill-rule:evenodd;clip-rule:evenodd;fill:none;stroke:#FFFFFF;stroke-width:0.9;" x2="3.629" y1="-50.489" y2="-48.75"/>
  <line x1="10.402" style="fill-rule:evenodd;clip-rule:evenodd;fill:none;stroke:#FFFFFF;stroke-width:0.9;" x2="10.668" y1="-62.452" y2="-63.85"/>
  <line x1="30.09" style="fill-rule:evenodd;clip-rule:evenodd;fill:none;stroke:#FFFFFF;stroke-width:0.9;" x2="30.964" y1="-60.739" y2="-62.523"/>
  <line x1="23.869" style="fill-rule:evenodd;clip-rule:evenodd;fill:none;stroke:#FFFFFF;stroke-width:0.9;" x2="25.847" y1="-59.4" y2="-59.589"/>
  <line x1="19.223" style="fill-rule:evenodd;clip-rule:evenodd;fill:none;stroke:#FFFFFF;stroke-width:0.9;" x2="20.608" y1="-59.794" y2="-61.218"/>
  <line x1="28.397" style="fill-rule:evenodd;clip-rule:evenodd;fill:none;stroke:#FFFFFF;stroke-width:0.9;" x2="28.841" y1="-54.636" y2="-56.572"/>
  <line x1="23.672" style="fill-rule:evenodd;clip-rule:evenodd;fill:none;stroke:#FFFFFF;stroke-width:0.9;" x2="21.753" y1="-55.66" y2="-56.171"/>
  <line x1="17.333" style="fill-rule:evenodd;clip-rule:evenodd;fill:none;stroke:#FFFFFF;stroke-width:0.9;" x2="16.589" y1="-57.274" y2="-59.116"/>
  <line x1="19.302" style="fill-rule:evenodd;clip-rule:evenodd;fill:none;stroke:#FFFFFF;stroke-width:0.9;" x2="17.502" y1="-53.809" y2="-52.969"/>
  <line x1="24.972" style="fill-rule:evenodd;clip-rule:evenodd;fill:none;stroke:#FFFFFF;stroke-width:0.9;" x2="23.275" y1="-51.644" y2="-50.611"/>
  <line x1="30.636" style="fill-rule:evenodd;clip-rule:evenodd;fill:none;stroke:#FFFFFF;stroke-width:0.9;" x2="28.906" y1="-50.227" y2="-51.201"/>
  <line x1="26.39" style="fill-rule:evenodd;clip-rule:evenodd;fill:none;stroke:#FFFFFF;stroke-width:0.9;" x2="26.62" y1="-47.352" y2="-48.573"/>
  <line x1="18.51" style="fill-rule:evenodd;clip-rule:evenodd;fill:none;stroke:#FFFFFF;stroke-width:0.9;" x2="19.469" y1="-50.489" y2="-48.75"/>
  <line x1="26.241" style="fill-rule:evenodd;clip-rule:evenodd;fill:none;stroke:#FFFFFF;stroke-width:0.9;" x2="26.507" y1="-62.452" y2="-63.85"/>
  <line x1="45.929" style="fill-rule:evenodd;clip-rule:evenodd;fill:none;stroke:#FFFFFF;stroke-width:0.9;" x2="46.803" y1="-60.739" y2="-62.523"/>
  <line x1="39.708" style="fill-rule:evenodd;clip-rule:evenodd;fill:none;stroke:#FFFFFF;stroke-width:0.9;" x2="41.686" y1="-59.4" y2="-59.589"/>
  <line x1="35.062" style="fill-rule:evenodd;clip-rule:evenodd;fill:none;stroke:#FFFFFF;stroke-width:0.9;" x2="36.447" y1="-59.794" y2="-61.218"/>
  <line x1="44.236" style="fill-rule:evenodd;clip-rule:evenodd;fill:none;stroke:#FFFFFF;stroke-width:0.9;" x2="44.68" y1="-54.636" y2="-56.572"/>
  <line x1="39.511" style="fill-rule:evenodd;clip-rule:evenodd;fill:none;stroke:#FFFFFF;stroke-width:0.9;" x2="37.592" y1="-55.66" y2="-56.171"/>
  <line x1="33.172" style="fill-rule:evenodd;clip-rule:evenodd;fill:none;stroke:#FFFFFF;stroke-width:0.9;" x2="32.428" y1="-57.274" y2="-59.116"/>
  <line x1="35.141" style="fill-rule:evenodd;clip-rule:evenodd;fill:none;stroke:#FFFFFF;stroke-width:0.9;" x2="33.341" y1="-53.809" y2="-52.969"/>
  <line x1="40.811" style="fill-rule:evenodd;clip-rule:evenodd;fill:none;stroke:#FFFFFF;stroke-width:0.9;" x2="39.114" y1="-51.644" y2="-50.611"/>
  <line x1="46.475" style="fill-rule:evenodd;clip-rule:evenodd;fill:none;stroke:#FFFFFF;stroke-width:0.9;" x2="44.745" y1="-50.227" y2="-51.201"/>
  <line x1="42.229" style="fill-rule:evenodd;clip-rule:evenodd;fill:none;stroke:#FFFFFF;stroke-width:0.9;" x2="42.459" y1="-47.352" y2="-48.573"/>
  <line x1="34.349" style="fill-rule:evenodd;clip-rule:evenodd;fill:none;stroke:#FFFFFF;stroke-width:0.9;" x2="35.308" y1="-50.489" y2="-48.75"/>
  <line x1="42.08" style="fill-rule:evenodd;clip-rule:evenodd;fill:none;stroke:#FFFFFF;stroke-width:0.9;" x2="42.346" y1="-62.452" y2="-63.85"/>
  <line x1="61.769" style="fill-rule:evenodd;clip-rule:evenodd;fill:none;stroke:#FFFFFF;stroke-width:0.9;" x2="62.642" y1="-60.739" y2="-62.523"/>
  <line x1="55.547" style="fill-rule:evenodd;clip-rule:evenodd;fill:none;stroke:#FFFFFF;stroke-width:0.9;" x2="57.524" y1="-59.4" y2="-59.589"/>
  <line x1="50.901" style="fill-rule:evenodd;clip-rule:evenodd;fill:none;stroke:#FFFFFF;stroke-width:0.9;" x2="52.286" y1="-59.794" y2="-61.218"/>
  <line x1="60.075" style="fill-rule:evenodd;clip-rule:evenodd;fill:none;stroke:#FFFFFF;stroke-width:0.9;" x2="60.519" y1="-54.636" y2="-56.572"/>
  <line x1="55.35" style="fill-rule:evenodd;clip-rule:evenodd;fill:none;stroke:#FFFFFF;stroke-width:0.9;" x2="53.431" y1="-55.66" y2="-56.171"/>
  <line x1="49.011" style="fill-rule:evenodd;clip-rule:evenodd;fill:none;stroke:#FFFFFF;stroke-width:0.9;" x2="48.267" y1="-57.274" y2="-59.116"/>
  <line x1="50.979" style="fill-rule:evenodd;clip-rule:evenodd;fill:none;stroke:#FFFFFF;stroke-width:0.9;" x2="49.18" y1="-53.809" y2="-52.969"/>
  <line x1="56.65" style="fill-rule:evenodd;clip-rule:evenodd;fill:none;stroke:#FFFFFF;stroke-width:0.9;" x2="54.953" y1="-51.644" y2="-50.611"/>
  <line x1="62.314" style="fill-rule:evenodd;clip-rule:evenodd;fill:none;stroke:#FFFFFF;stroke-width:0.9;" x2="60.583" y1="-50.227" y2="-51.201"/>
  <line x1="58.067" style="fill-rule:evenodd;clip-rule:evenodd;fill:none;stroke:#FFFFFF;stroke-width:0.9;" x2="58.298" y1="-47.352" y2="-48.573"/>
  <line x1="50.188" style="fill-rule:evenodd;clip-rule:evenodd;fill:none;stroke:#FFFFFF;stroke-width:0.9;" x2="51.146" y1="-50.489" y2="-48.75"/>
  <line x1="57.919" style="fill-rule:evenodd;clip-rule:evenodd;fill:none;stroke:#FFFFFF;stroke-width:0.9;" x2="58.186" y1="-62.452" y2="-63.85"/>
  <line x1="77.607" style="fill-rule:evenodd;clip-rule:evenodd;fill:none;stroke:#FFFFFF;stroke-width:0.9;" x2="78.481" y1="-60.739" y2="-62.523"/>
  <line x1="71.386" style="fill-rule:evenodd;clip-rule:evenodd;fill:none;stroke:#FFFFFF;stroke-width:0.9;" x2="73.364" y1="-59.4" y2="-59.589"/>
  <line x1="66.74" style="fill-rule:evenodd;clip-rule:evenodd;fill:none;stroke:#FFFFFF;stroke-width:0.9;" x2="68.124" y1="-59.794" y2="-61.218"/>
  <line x1="75.914" style="fill-rule:evenodd;clip-rule:evenodd;fill:none;stroke:#FFFFFF;stroke-width:0.9;" x2="76.358" y1="-54.636" y2="-56.572"/>
  <line x1="71.189" style="fill-rule:evenodd;clip-rule:evenodd;fill:none;stroke:#FFFFFF;stroke-width:0.9;" x2="69.27" y1="-55.66" y2="-56.171"/>
  <line x1="64.85" style="fill-rule:evenodd;clip-rule:evenodd;fill:none;stroke:#FFFFFF;stroke-width:0.9;" x2="64.105" y1="-57.274" y2="-59.116"/>
  <line x1="66.819" style="fill-rule:evenodd;clip-rule:evenodd;fill:none;stroke:#FFFFFF;stroke-width:0.9;" x2="65.019" y1="-53.809" y2="-52.969"/>
  <line x1="72.489" style="fill-rule:evenodd;clip-rule:evenodd;fill:none;stroke:#FFFFFF;stroke-width:0.9;" x2="70.792" y1="-51.644" y2="-50.611"/>
  <line x1="78.153" style="fill-rule:evenodd;clip-rule:evenodd;fill:none;stroke:#FFFFFF;stroke-width:0.9;" x2="76.423" y1="-50.227" y2="-51.201"/>
  <line x1="73.906" style="fill-rule:evenodd;clip-rule:evenodd;fill:none;stroke:#FFFFFF;stroke-width:0.9;" x2="74.137" y1="-47.352" y2="-48.573"/>
  <line x1="66.027" style="fill-rule:evenodd;clip-rule:evenodd;fill:none;stroke:#FFFFFF;stroke-width:0.9;" x2="66.985" y1="-50.489" y2="-48.75"/>
  <line x1="73.758" style="fill-rule:evenodd;clip-rule:evenodd;fill:none;stroke:#FFFFFF;stroke-width:0.9;" x2="74.024" y1="-62.452" y2="-63.85"/>
  <line x1="14.252" style="fill-rule:evenodd;clip-rule:evenodd;fill:none;stroke:#FFFFFF;stroke-width:0.9;" x2="15.125" y1="-76.578" y2="-78.362"/>
  <line x1="8.03" style="fill-rule:evenodd;clip-rule:evenodd;fill:none;stroke:#FFFFFF;stroke-width:0.9;" x2="10.008" y1="-75.239" y2="-75.428"/>
  <line x1="3.384" style="fill-rule:evenodd;clip-rule:evenodd;fill:none;stroke:#FFFFFF;stroke-width:0.9;" x2="4.769" y1="-75.633" y2="-77.057"/>
  <line x1="12.558" style="fill-rule:evenodd;clip-rule:evenodd;fill:none;stroke:#FFFFFF;stroke-width:0.9;" x2="13.002" y1="-70.475" y2="-72.411"/>
  <line x1="5.914" style="fill-rule:evenodd;clip-rule:evenodd;fill:none;stroke:#FFFFFF;stroke-width:0.9;" x2="7.833" y1="-72.01" y2="-71.498"/>
  <line x1="0.749" style="fill-rule:evenodd;clip-rule:evenodd;fill:none;stroke:#FFFFFF;stroke-width:0.9;" x2="1.494" y1="-74.955" y2="-73.113"/>
  <line x1="3.463" style="fill-rule:evenodd;clip-rule:evenodd;fill:none;stroke:#FFFFFF;stroke-width:0.9;" x2="1.663" y1="-69.648" y2="-68.808"/>
  <line x1="9.133" style="fill-rule:evenodd;clip-rule:evenodd;fill:none;stroke:#FFFFFF;stroke-width:0.9;" x2="7.436" y1="-67.482" y2="-66.45"/>
  <line x1="14.797" style="fill-rule:evenodd;clip-rule:evenodd;fill:none;stroke:#FFFFFF;stroke-width:0.9;" x2="13.067" y1="-66.066" y2="-67.04"/>
  <line x1="10.55" style="fill-rule:evenodd;clip-rule:evenodd;fill:none;stroke:#FFFFFF;stroke-width:0.9;" x2="10.781" y1="-63.191" y2="-64.412"/>
  <line x1="2.671" style="fill-rule:evenodd;clip-rule:evenodd;fill:none;stroke:#FFFFFF;stroke-width:0.9;" x2="3.629" y1="-66.328" y2="-64.588"/>
  <line x1="10.601" style="fill-rule:evenodd;clip-rule:evenodd;fill:none;stroke:#FFFFFF;stroke-width:0.9;" x2="10.402" y1="-79.334" y2="-78.29"/>
  <line x1="30.09" style="fill-rule:evenodd;clip-rule:evenodd;fill:none;stroke:#FFFFFF;stroke-width:0.9;" x2="30.964" y1="-76.578" y2="-78.362"/>
  <line x1="23.869" style="fill-rule:evenodd;clip-rule:evenodd;fill:none;stroke:#FFFFFF;stroke-width:0.9;" x2="25.847" y1="-75.239" y2="-75.428"/>
  <line x1="19.223" style="fill-rule:evenodd;clip-rule:evenodd;fill:none;stroke:#FFFFFF;stroke-width:0.9;" x2="20.608" y1="-75.633" y2="-77.057"/>
  <line x1="28.397" style="fill-rule:evenodd;clip-rule:evenodd;fill:none;stroke:#FFFFFF;stroke-width:0.9;" x2="28.841" y1="-70.475" y2="-72.411"/>
  <line x1="21.753" style="fill-rule:evenodd;clip-rule:evenodd;fill:none;stroke:#FFFFFF;stroke-width:0.9;" x2="23.672" y1="-72.01" y2="-71.498"/>
  <line x1="16.589" style="fill-rule:evenodd;clip-rule:evenodd;fill:none;stroke:#FFFFFF;stroke-width:0.9;" x2="17.333" y1="-74.955" y2="-73.113"/>
  <line x1="19.302" style="fill-rule:evenodd;clip-rule:evenodd;fill:none;stroke:#FFFFFF;stroke-width:0.9;" x2="17.502" y1="-69.648" y2="-68.808"/>
  <line x1="24.972" style="fill-rule:evenodd;clip-rule:evenodd;fill:none;stroke:#FFFFFF;stroke-width:0.9;" x2="23.275" y1="-67.482" y2="-66.45"/>
  <line x1="30.636" style="fill-rule:evenodd;clip-rule:evenodd;fill:none;stroke:#FFFFFF;stroke-width:0.9;" x2="28.906" y1="-66.066" y2="-67.04"/>
  <line x1="26.39" style="fill-rule:evenodd;clip-rule:evenodd;fill:none;stroke:#FFFFFF;stroke-width:0.9;" x2="26.62" y1="-63.191" y2="-64.412"/>
  <line x1="18.51" style="fill-rule:evenodd;clip-rule:evenodd;fill:none;stroke:#FFFFFF;stroke-width:0.9;" x2="19.469" y1="-66.328" y2="-64.588"/>
  <line x1="26.44" style="fill-rule:evenodd;clip-rule:evenodd;fill:none;stroke:#FFFFFF;stroke-width:0.9;" x2="26.241" y1="-79.334" y2="-78.29"/>
  <line x1="45.929" style="fill-rule:evenodd;clip-rule:evenodd;fill:none;stroke:#FFFFFF;stroke-width:0.9;" x2="46.803" y1="-76.578" y2="-78.362"/>
  <line x1="39.708" style="fill-rule:evenodd;clip-rule:evenodd;fill:none;stroke:#FFFFFF;stroke-width:0.9;" x2="41.686" y1="-75.239" y2="-75.428"/>
  <line x1="35.062" style="fill-rule:evenodd;clip-rule:evenodd;fill:none;stroke:#FFFFFF;stroke-width:0.9;" x2="36.447" y1="-75.633" y2="-77.057"/>
  <line x1="44.236" style="fill-rule:evenodd;clip-rule:evenodd;fill:none;stroke:#FFFFFF;stroke-width:0.9;" x2="44.68" y1="-70.475" y2="-72.411"/>
  <line x1="37.592" style="fill-rule:evenodd;clip-rule:evenodd;fill:none;stroke:#FFFFFF;stroke-width:0.9;" x2="39.511" y1="-72.01" y2="-71.498"/>
  <line x1="32.428" style="fill-rule:evenodd;clip-rule:evenodd;fill:none;stroke:#FFFFFF;stroke-width:0.9;" x2="33.172" y1="-74.955" y2="-73.113"/>
  <line x1="35.141" style="fill-rule:evenodd;clip-rule:evenodd;fill:none;stroke:#FFFFFF;stroke-width:0.9;" x2="33.341" y1="-69.648" y2="-68.808"/>
  <line x1="40.811" style="fill-rule:evenodd;clip-rule:evenodd;fill:none;stroke:#FFFFFF;stroke-width:0.9;" x2="39.114" y1="-67.482" y2="-66.45"/>
  <line x1="46.475" style="fill-rule:evenodd;clip-rule:evenodd;fill:none;stroke:#FFFFFF;stroke-width:0.9;" x2="44.745" y1="-66.066" y2="-67.04"/>
  <line x1="42.229" style="fill-rule:evenodd;clip-rule:evenodd;fill:none;stroke:#FFFFFF;stroke-width:0.9;" x2="42.459" y1="-63.191" y2="-64.412"/>
  <line x1="34.349" style="fill-rule:evenodd;clip-rule:evenodd;fill:none;stroke:#FFFFFF;stroke-width:0.9;" x2="35.308" y1="-66.328" y2="-64.588"/>
  <line x1="42.279" style="fill-rule:evenodd;clip-rule:evenodd;fill:none;stroke:#FFFFFF;stroke-width:0.9;" x2="42.08" y1="-79.334" y2="-78.29"/>
  <line x1="61.769" style="fill-rule:evenodd;clip-rule:evenodd;fill:none;stroke:#FFFFFF;stroke-width:0.9;" x2="62.642" y1="-76.578" y2="-78.362"/>
  <line x1="55.547" style="fill-rule:evenodd;clip-rule:evenodd;fill:none;stroke:#FFFFFF;stroke-width:0.9;" x2="57.524" y1="-75.239" y2="-75.428"/>
  <line x1="50.901" style="fill-rule:evenodd;clip-rule:evenodd;fill:none;stroke:#FFFFFF;stroke-width:0.9;" x2="52.286" y1="-75.633" y2="-77.057"/>
  <line x1="60.075" style="fill-rule:evenodd;clip-rule:evenodd;fill:none;stroke:#FFFFFF;stroke-width:0.9;" x2="60.519" y1="-70.475" y2="-72.411"/>
  <line x1="53.431" style="fill-rule:evenodd;clip-rule:evenodd;fill:none;stroke:#FFFFFF;stroke-width:0.9;" x2="55.35" y1="-72.01" y2="-71.498"/>
  <line x1="48.267" style="fill-rule:evenodd;clip-rule:evenodd;fill:none;stroke:#FFFFFF;stroke-width:0.9;" x2="49.011" y1="-74.955" y2="-73.113"/>
  <line x1="50.979" style="fill-rule:evenodd;clip-rule:evenodd;fill:none;stroke:#FFFFFF;stroke-width:0.9;" x2="49.18" y1="-69.648" y2="-68.808"/>
  <line x1="56.65" style="fill-rule:evenodd;clip-rule:evenodd;fill:none;stroke:#FFFFFF;stroke-width:0.9;" x2="54.953" y1="-67.482" y2="-66.45"/>
  <line x1="62.314" style="fill-rule:evenodd;clip-rule:evenodd;fill:none;stroke:#FFFFFF;stroke-width:0.9;" x2="60.583" y1="-66.066" y2="-67.04"/>
  <line x1="58.067" style="fill-rule:evenodd;clip-rule:evenodd;fill:none;stroke:#FFFFFF;stroke-width:0.9;" x2="58.298" y1="-63.191" y2="-64.412"/>
  <line x1="50.188" style="fill-rule:evenodd;clip-rule:evenodd;fill:none;stroke:#FFFFFF;stroke-width:0.9;" x2="51.146" y1="-66.328" y2="-64.588"/>
  <line x1="58.118" style="fill-rule:evenodd;clip-rule:evenodd;fill:none;stroke:#FFFFFF;stroke-width:0.9;" x2="57.919" y1="-79.334" y2="-78.29"/>
  <line x1="77.607" style="fill-rule:evenodd;clip-rule:evenodd;fill:none;stroke:#FFFFFF;stroke-width:0.9;" x2="78.481" y1="-76.578" y2="-78.362"/>
  <line x1="71.386" style="fill-rule:evenodd;clip-rule:evenodd;fill:none;stroke:#FFFFFF;stroke-width:0.9;" x2="73.364" y1="-75.239" y2="-75.428"/>
  <line x1="66.74" style="fill-rule:evenodd;clip-rule:evenodd;fill:none;stroke:#FFFFFF;stroke-width:0.9;" x2="68.124" y1="-75.633" y2="-77.057"/>
  <line x1="75.914" style="fill-rule:evenodd;clip-rule:evenodd;fill:none;stroke:#FFFFFF;stroke-width:0.9;" x2="76.358" y1="-70.475" y2="-72.411"/>
  <line x1="69.27" style="fill-rule:evenodd;clip-rule:evenodd;fill:none;stroke:#FFFFFF;stroke-width:0.9;" x2="71.189" y1="-72.01" y2="-71.498"/>
  <line x1="64.105" style="fill-rule:evenodd;clip-rule:evenodd;fill:none;stroke:#FFFFFF;stroke-width:0.9;" x2="64.85" y1="-74.955" y2="-73.113"/>
  <line x1="66.819" style="fill-rule:evenodd;clip-rule:evenodd;fill:none;stroke:#FFFFFF;stroke-width:0.9;" x2="65.019" y1="-69.648" y2="-68.808"/>
  <line x1="72.489" style="fill-rule:evenodd;clip-rule:evenodd;fill:none;stroke:#FFFFFF;stroke-width:0.9;" x2="70.792" y1="-67.482" y2="-66.45"/>
  <line x1="78.153" style="fill-rule:evenodd;clip-rule:evenodd;fill:none;stroke:#FFFFFF;stroke-width:0.9;" x2="76.423" y1="-66.066" y2="-67.04"/>
  <line x1="73.906" style="fill-rule:evenodd;clip-rule:evenodd;fill:none;stroke:#FFFFFF;stroke-width:0.9;" x2="74.137" y1="-63.191" y2="-64.412"/>
  <line x1="66.027" style="fill-rule:evenodd;clip-rule:evenodd;fill:none;stroke:#FFFFFF;stroke-width:0.9;" x2="66.985" y1="-66.328" y2="-64.588"/>
  <line x1="73.957" style="fill-rule:evenodd;clip-rule:evenodd;fill:none;stroke:#FFFFFF;stroke-width:0.9;" x2="73.758" y1="-79.334" y2="-78.29"/>
 </g>
</svg>
