<?xml version="1.0"?>
<!-- Converted with SVG Converter - Version 0.9.5 (Compiled Fri Feb 21 09:53:38 2020) - Copyright (C) 2011 Nokia -->
<svg xmlns="http://www.w3.org/2000/svg" viewBox="0 -79.334 79.25 79.25" x="0px" height="79.25" width="79.25" baseProfile="tiny" version="1.1" xml:space="preserve" xmlns:xlink="http://www.w3.org/1999/xlink" y="0px">
 <g>
  <rect height="79.25" style="fill:none;" width="79.25" y="-79.334"/>
  <line y1="-13.222" y2="-15.006" x2="15.125" x1="14.252" style="fill-rule:evenodd;clip-rule:evenodd;fill:none;stroke:#00AEEF;stroke-width:0.9;"/>
  <line y1="-11.883" y2="-12.072" x2="10.008" x1="8.03" style="fill-rule:evenodd;clip-rule:evenodd;fill:none;stroke:#00AEEF;stroke-width:0.9;"/>
  <line y1="-12.277" y2="-13.701" x2="4.769" x1="3.384" style="fill-rule:evenodd;clip-rule:evenodd;fill:none;stroke:#00AEEF;stroke-width:0.9;"/>
  <line y1="-9.055" y2="-7.119" x2="12.558" x1="13.002" style="fill-rule:evenodd;clip-rule:evenodd;fill:none;stroke:#00AEEF;stroke-width:0.9;"/>
  <line y1="-8.143" y2="-8.654" x2="5.914" x1="7.833" style="fill-rule:evenodd;clip-rule:evenodd;fill:none;stroke:#00AEEF;stroke-width:0.9;"/>
  <line y1="-9.757" y2="-11.599" x2="0.749" x1="1.494" style="fill-rule:evenodd;clip-rule:evenodd;fill:none;stroke:#00AEEF;stroke-width:0.9;"/>
  <line y1="-6.292" y2="-5.452" x2="1.663" x1="3.463" style="fill-rule:evenodd;clip-rule:evenodd;fill:none;stroke:#00AEEF;stroke-width:0.9;"/>
  <line y1="-4.127" y2="-3.094" x2="7.436" x1="9.133" style="fill-rule:evenodd;clip-rule:evenodd;fill:none;stroke:#00AEEF;stroke-width:0.9;"/>
  <line y1="-2.71" y2="-3.685" x2="13.067" x1="14.797" style="fill-rule:evenodd;clip-rule:evenodd;fill:none;stroke:#00AEEF;stroke-width:0.9;"/>
  <line y1="-1.056" y2="-0.083" x2="10.598" x1="10.781" style="fill-rule:evenodd;clip-rule:evenodd;fill:none;stroke:#00AEEF;stroke-width:0.9;"/>
  <line y1="-1.232" y2="-2.972" x2="2.671" x1="3.629" style="fill-rule:evenodd;clip-rule:evenodd;fill:none;stroke:#00AEEF;stroke-width:0.9;"/>
  <line y1="-16.333" y2="-14.935" x2="10.402" x1="10.668" style="fill-rule:evenodd;clip-rule:evenodd;fill:none;stroke:#00AEEF;stroke-width:0.9;"/>
  <line y1="-13.222" y2="-15.006" x2="30.964" x1="30.09" style="fill-rule:evenodd;clip-rule:evenodd;fill:none;stroke:#00AEEF;stroke-width:0.9;"/>
  <line y1="-11.883" y2="-12.072" x2="25.847" x1="23.869" style="fill-rule:evenodd;clip-rule:evenodd;fill:none;stroke:#00AEEF;stroke-width:0.9;"/>
  <line y1="-12.277" y2="-13.701" x2="20.608" x1="19.223" style="fill-rule:evenodd;clip-rule:evenodd;fill:none;stroke:#00AEEF;stroke-width:0.9;"/>
  <line y1="-9.055" y2="-7.119" x2="28.397" x1="28.841" style="fill-rule:evenodd;clip-rule:evenodd;fill:none;stroke:#00AEEF;stroke-width:0.9;"/>
  <line y1="-8.143" y2="-8.654" x2="21.753" x1="23.672" style="fill-rule:evenodd;clip-rule:evenodd;fill:none;stroke:#00AEEF;stroke-width:0.9;"/>
  <line y1="-9.757" y2="-11.599" x2="16.589" x1="17.333" style="fill-rule:evenodd;clip-rule:evenodd;fill:none;stroke:#00AEEF;stroke-width:0.9;"/>
  <line y1="-6.292" y2="-5.452" x2="17.502" x1="19.302" style="fill-rule:evenodd;clip-rule:evenodd;fill:none;stroke:#00AEEF;stroke-width:0.9;"/>
  <line y1="-4.127" y2="-3.094" x2="23.275" x1="24.972" style="fill-rule:evenodd;clip-rule:evenodd;fill:none;stroke:#00AEEF;stroke-width:0.9;"/>
  <line y1="-2.71" y2="-3.685" x2="28.906" x1="30.636" style="fill-rule:evenodd;clip-rule:evenodd;fill:none;stroke:#00AEEF;stroke-width:0.9;"/>
  <line y1="-1.056" y2="-0.083" x2="26.508" x1="26.691" style="fill-rule:evenodd;clip-rule:evenodd;fill:none;stroke:#00AEEF;stroke-width:0.9;"/>
  <line y1="-1.232" y2="-2.972" x2="18.51" x1="19.469" style="fill-rule:evenodd;clip-rule:evenodd;fill:none;stroke:#00AEEF;stroke-width:0.9;"/>
  <line y1="-16.333" y2="-14.935" x2="26.241" x1="26.507" style="fill-rule:evenodd;clip-rule:evenodd;fill:none;stroke:#00AEEF;stroke-width:0.9;"/>
  <line y1="-13.222" y2="-15.006" x2="46.803" x1="45.929" style="fill-rule:evenodd;clip-rule:evenodd;fill:none;stroke:#00AEEF;stroke-width:0.9;"/>
  <line y1="-11.883" y2="-12.072" x2="41.686" x1="39.708" style="fill-rule:evenodd;clip-rule:evenodd;fill:none;stroke:#00AEEF;stroke-width:0.9;"/>
  <line y1="-12.277" y2="-13.701" x2="36.447" x1="35.062" style="fill-rule:evenodd;clip-rule:evenodd;fill:none;stroke:#00AEEF;stroke-width:0.9;"/>
  <line y1="-9.055" y2="-7.119" x2="44.236" x1="44.68" style="fill-rule:evenodd;clip-rule:evenodd;fill:none;stroke:#00AEEF;stroke-width:0.9;"/>
  <line y1="-8.143" y2="-8.654" x2="37.592" x1="39.511" style="fill-rule:evenodd;clip-rule:evenodd;fill:none;stroke:#00AEEF;stroke-width:0.9;"/>
  <line y1="-9.757" y2="-11.599" x2="32.428" x1="33.172" style="fill-rule:evenodd;clip-rule:evenodd;fill:none;stroke:#00AEEF;stroke-width:0.9;"/>
  <line y1="-6.292" y2="-5.452" x2="33.341" x1="35.141" style="fill-rule:evenodd;clip-rule:evenodd;fill:none;stroke:#00AEEF;stroke-width:0.9;"/>
  <line y1="-4.127" y2="-3.094" x2="39.114" x1="40.811" style="fill-rule:evenodd;clip-rule:evenodd;fill:none;stroke:#00AEEF;stroke-width:0.9;"/>
  <line y1="-2.71" y2="-3.685" x2="44.745" x1="46.475" style="fill-rule:evenodd;clip-rule:evenodd;fill:none;stroke:#00AEEF;stroke-width:0.9;"/>
  <line y1="-1.056" y2="-0.083" x2="42.275" x1="42.459" style="fill-rule:evenodd;clip-rule:evenodd;fill:none;stroke:#00AEEF;stroke-width:0.9;"/>
  <line y1="-1.232" y2="-2.972" x2="34.349" x1="35.308" style="fill-rule:evenodd;clip-rule:evenodd;fill:none;stroke:#00AEEF;stroke-width:0.9;"/>
  <line y1="-16.333" y2="-14.935" x2="42.08" x1="42.346" style="fill-rule:evenodd;clip-rule:evenodd;fill:none;stroke:#00AEEF;stroke-width:0.9;"/>
  <line y1="-13.222" y2="-15.006" x2="62.642" x1="61.769" style="fill-rule:evenodd;clip-rule:evenodd;fill:none;stroke:#00AEEF;stroke-width:0.9;"/>
  <line y1="-11.883" y2="-12.072" x2="57.524" x1="55.547" style="fill-rule:evenodd;clip-rule:evenodd;fill:none;stroke:#00AEEF;stroke-width:0.9;"/>
  <line y1="-12.277" y2="-13.701" x2="52.286" x1="50.901" style="fill-rule:evenodd;clip-rule:evenodd;fill:none;stroke:#00AEEF;stroke-width:0.9;"/>
  <line y1="-9.055" y2="-7.119" x2="60.075" x1="60.519" style="fill-rule:evenodd;clip-rule:evenodd;fill:none;stroke:#00AEEF;stroke-width:0.9;"/>
  <line y1="-8.143" y2="-8.654" x2="53.431" x1="55.35" style="fill-rule:evenodd;clip-rule:evenodd;fill:none;stroke:#00AEEF;stroke-width:0.9;"/>
  <line y1="-9.757" y2="-11.599" x2="48.267" x1="49.011" style="fill-rule:evenodd;clip-rule:evenodd;fill:none;stroke:#00AEEF;stroke-width:0.9;"/>
  <line y1="-6.292" y2="-5.452" x2="49.18" x1="50.979" style="fill-rule:evenodd;clip-rule:evenodd;fill:none;stroke:#00AEEF;stroke-width:0.9;"/>
  <line y1="-4.127" y2="-3.094" x2="54.953" x1="56.65" style="fill-rule:evenodd;clip-rule:evenodd;fill:none;stroke:#00AEEF;stroke-width:0.9;"/>
  <line y1="-2.71" y2="-3.685" x2="60.583" x1="62.314" style="fill-rule:evenodd;clip-rule:evenodd;fill:none;stroke:#00AEEF;stroke-width:0.9;"/>
  <line y1="-1.056" y2="-0.083" x2="58.114" x1="58.298" style="fill-rule:evenodd;clip-rule:evenodd;fill:none;stroke:#00AEEF;stroke-width:0.9;"/>
  <line y1="-1.232" y2="-2.972" x2="50.188" x1="51.146" style="fill-rule:evenodd;clip-rule:evenodd;fill:none;stroke:#00AEEF;stroke-width:0.9;"/>
  <line y1="-16.333" y2="-14.935" x2="57.919" x1="58.186" style="fill-rule:evenodd;clip-rule:evenodd;fill:none;stroke:#00AEEF;stroke-width:0.9;"/>
  <line y1="-13.222" y2="-15.006" x2="78.481" x1="77.607" style="fill-rule:evenodd;clip-rule:evenodd;fill:none;stroke:#00AEEF;stroke-width:0.9;"/>
  <line y1="-11.883" y2="-12.072" x2="73.364" x1="71.386" style="fill-rule:evenodd;clip-rule:evenodd;fill:none;stroke:#00AEEF;stroke-width:0.9;"/>
  <line y1="-12.277" y2="-13.701" x2="68.124" x1="66.74" style="fill-rule:evenodd;clip-rule:evenodd;fill:none;stroke:#00AEEF;stroke-width:0.9;"/>
  <line y1="-9.055" y2="-7.119" x2="75.914" x1="76.358" style="fill-rule:evenodd;clip-rule:evenodd;fill:none;stroke:#00AEEF;stroke-width:0.9;"/>
  <line y1="-8.143" y2="-8.654" x2="69.27" x1="71.189" style="fill-rule:evenodd;clip-rule:evenodd;fill:none;stroke:#00AEEF;stroke-width:0.9;"/>
  <line y1="-9.757" y2="-11.599" x2="64.105" x1="64.85" style="fill-rule:evenodd;clip-rule:evenodd;fill:none;stroke:#00AEEF;stroke-width:0.9;"/>
  <line y1="-6.292" y2="-5.452" x2="65.019" x1="66.819" style="fill-rule:evenodd;clip-rule:evenodd;fill:none;stroke:#00AEEF;stroke-width:0.9;"/>
  <line y1="-4.127" y2="-3.094" x2="70.792" x1="72.489" style="fill-rule:evenodd;clip-rule:evenodd;fill:none;stroke:#00AEEF;stroke-width:0.9;"/>
  <line y1="-2.71" y2="-3.685" x2="76.423" x1="78.153" style="fill-rule:evenodd;clip-rule:evenodd;fill:none;stroke:#00AEEF;stroke-width:0.9;"/>
  <line y1="-1.056" y2="-0.083" x2="73.954" x1="74.137" style="fill-rule:evenodd;clip-rule:evenodd;fill:none;stroke:#00AEEF;stroke-width:0.9;"/>
  <line y1="-1.232" y2="-2.972" x2="66.027" x1="66.985" style="fill-rule:evenodd;clip-rule:evenodd;fill:none;stroke:#00AEEF;stroke-width:0.9;"/>
  <line y1="-16.333" y2="-14.935" x2="73.758" x1="74.024" style="fill-rule:evenodd;clip-rule:evenodd;fill:none;stroke:#00AEEF;stroke-width:0.9;"/>
  <line y1="-29.061" y2="-30.845" x2="15.125" x1="14.252" style="fill-rule:evenodd;clip-rule:evenodd;fill:none;stroke:#00AEEF;stroke-width:0.9;"/>
  <line y1="-27.722" y2="-27.911" x2="10.008" x1="8.03" style="fill-rule:evenodd;clip-rule:evenodd;fill:none;stroke:#00AEEF;stroke-width:0.9;"/>
  <line y1="-28.116" y2="-29.541" x2="4.769" x1="3.384" style="fill-rule:evenodd;clip-rule:evenodd;fill:none;stroke:#00AEEF;stroke-width:0.9;"/>
  <line y1="-22.958" y2="-24.894" x2="13.002" x1="12.558" style="fill-rule:evenodd;clip-rule:evenodd;fill:none;stroke:#00AEEF;stroke-width:0.9;"/>
  <line y1="-23.982" y2="-24.494" x2="5.914" x1="7.833" style="fill-rule:evenodd;clip-rule:evenodd;fill:none;stroke:#00AEEF;stroke-width:0.9;"/>
  <line y1="-25.596" y2="-27.438" x2="0.749" x1="1.494" style="fill-rule:evenodd;clip-rule:evenodd;fill:none;stroke:#00AEEF;stroke-width:0.9;"/>
  <line y1="-22.131" y2="-21.291" x2="1.663" x1="3.463" style="fill-rule:evenodd;clip-rule:evenodd;fill:none;stroke:#00AEEF;stroke-width:0.9;"/>
  <line y1="-19.965" y2="-18.933" x2="7.436" x1="9.133" style="fill-rule:evenodd;clip-rule:evenodd;fill:none;stroke:#00AEEF;stroke-width:0.9;"/>
  <line y1="-18.549" y2="-19.523" x2="13.067" x1="14.797" style="fill-rule:evenodd;clip-rule:evenodd;fill:none;stroke:#00AEEF;stroke-width:0.9;"/>
  <line y1="-15.674" y2="-16.895" x2="10.781" x1="10.55" style="fill-rule:evenodd;clip-rule:evenodd;fill:none;stroke:#00AEEF;stroke-width:0.9;"/>
  <line y1="-18.811" y2="-17.071" x2="3.629" x1="2.671" style="fill-rule:evenodd;clip-rule:evenodd;fill:none;stroke:#00AEEF;stroke-width:0.9;"/>
  <line y1="-32.171" y2="-30.774" x2="10.402" x1="10.668" style="fill-rule:evenodd;clip-rule:evenodd;fill:none;stroke:#00AEEF;stroke-width:0.9;"/>
  <line y1="-29.061" y2="-30.845" x2="30.964" x1="30.09" style="fill-rule:evenodd;clip-rule:evenodd;fill:none;stroke:#00AEEF;stroke-width:0.9;"/>
  <line y1="-27.722" y2="-27.911" x2="25.847" x1="23.869" style="fill-rule:evenodd;clip-rule:evenodd;fill:none;stroke:#00AEEF;stroke-width:0.9;"/>
  <line y1="-28.116" y2="-29.541" x2="20.608" x1="19.223" style="fill-rule:evenodd;clip-rule:evenodd;fill:none;stroke:#00AEEF;stroke-width:0.9;"/>
  <line y1="-22.958" y2="-24.894" x2="28.841" x1="28.397" style="fill-rule:evenodd;clip-rule:evenodd;fill:none;stroke:#00AEEF;stroke-width:0.9;"/>
  <line y1="-23.982" y2="-24.494" x2="21.753" x1="23.672" style="fill-rule:evenodd;clip-rule:evenodd;fill:none;stroke:#00AEEF;stroke-width:0.9;"/>
  <line y1="-25.596" y2="-27.438" x2="16.589" x1="17.333" style="fill-rule:evenodd;clip-rule:evenodd;fill:none;stroke:#00AEEF;stroke-width:0.9;"/>
  <line y1="-22.131" y2="-21.291" x2="17.502" x1="19.302" style="fill-rule:evenodd;clip-rule:evenodd;fill:none;stroke:#00AEEF;stroke-width:0.9;"/>
  <line y1="-19.965" y2="-18.933" x2="23.275" x1="24.972" style="fill-rule:evenodd;clip-rule:evenodd;fill:none;stroke:#00AEEF;stroke-width:0.9;"/>
  <line y1="-18.549" y2="-19.523" x2="28.906" x1="30.636" style="fill-rule:evenodd;clip-rule:evenodd;fill:none;stroke:#00AEEF;stroke-width:0.9;"/>
  <line y1="-15.674" y2="-16.895" x2="26.62" x1="26.39" style="fill-rule:evenodd;clip-rule:evenodd;fill:none;stroke:#00AEEF;stroke-width:0.9;"/>
  <line y1="-18.811" y2="-17.071" x2="19.469" x1="18.51" style="fill-rule:evenodd;clip-rule:evenodd;fill:none;stroke:#00AEEF;stroke-width:0.9;"/>
  <line y1="-32.171" y2="-30.774" x2="26.241" x1="26.507" style="fill-rule:evenodd;clip-rule:evenodd;fill:none;stroke:#00AEEF;stroke-width:0.9;"/>
  <line y1="-29.061" y2="-30.845" x2="46.803" x1="45.929" style="fill-rule:evenodd;clip-rule:evenodd;fill:none;stroke:#00AEEF;stroke-width:0.9;"/>
  <line y1="-27.722" y2="-27.911" x2="41.686" x1="39.708" style="fill-rule:evenodd;clip-rule:evenodd;fill:none;stroke:#00AEEF;stroke-width:0.9;"/>
  <line y1="-28.116" y2="-29.541" x2="36.447" x1="35.062" style="fill-rule:evenodd;clip-rule:evenodd;fill:none;stroke:#00AEEF;stroke-width:0.9;"/>
  <line y1="-22.958" y2="-24.894" x2="44.68" x1="44.236" style="fill-rule:evenodd;clip-rule:evenodd;fill:none;stroke:#00AEEF;stroke-width:0.9;"/>
  <line y1="-23.982" y2="-24.494" x2="37.592" x1="39.511" style="fill-rule:evenodd;clip-rule:evenodd;fill:none;stroke:#00AEEF;stroke-width:0.9;"/>
  <line y1="-25.596" y2="-27.438" x2="32.428" x1="33.172" style="fill-rule:evenodd;clip-rule:evenodd;fill:none;stroke:#00AEEF;stroke-width:0.9;"/>
  <line y1="-22.131" y2="-21.291" x2="33.341" x1="35.141" style="fill-rule:evenodd;clip-rule:evenodd;fill:none;stroke:#00AEEF;stroke-width:0.9;"/>
  <line y1="-19.965" y2="-18.933" x2="39.114" x1="40.811" style="fill-rule:evenodd;clip-rule:evenodd;fill:none;stroke:#00AEEF;stroke-width:0.9;"/>
  <line y1="-18.549" y2="-19.523" x2="44.745" x1="46.475" style="fill-rule:evenodd;clip-rule:evenodd;fill:none;stroke:#00AEEF;stroke-width:0.9;"/>
  <line y1="-15.674" y2="-16.895" x2="42.459" x1="42.229" style="fill-rule:evenodd;clip-rule:evenodd;fill:none;stroke:#00AEEF;stroke-width:0.9;"/>
  <line y1="-18.811" y2="-17.071" x2="35.308" x1="34.349" style="fill-rule:evenodd;clip-rule:evenodd;fill:none;stroke:#00AEEF;stroke-width:0.9;"/>
  <line y1="-32.171" y2="-30.774" x2="42.08" x1="42.346" style="fill-rule:evenodd;clip-rule:evenodd;fill:none;stroke:#00AEEF;stroke-width:0.9;"/>
  <line y1="-29.061" y2="-30.845" x2="62.642" x1="61.769" style="fill-rule:evenodd;clip-rule:evenodd;fill:none;stroke:#00AEEF;stroke-width:0.9;"/>
  <line y1="-27.722" y2="-27.911" x2="57.524" x1="55.547" style="fill-rule:evenodd;clip-rule:evenodd;fill:none;stroke:#00AEEF;stroke-width:0.9;"/>
  <line y1="-28.116" y2="-29.541" x2="52.286" x1="50.901" style="fill-rule:evenodd;clip-rule:evenodd;fill:none;stroke:#00AEEF;stroke-width:0.9;"/>
  <line y1="-22.958" y2="-24.894" x2="60.519" x1="60.075" style="fill-rule:evenodd;clip-rule:evenodd;fill:none;stroke:#00AEEF;stroke-width:0.9;"/>
  <line y1="-23.982" y2="-24.494" x2="53.431" x1="55.35" style="fill-rule:evenodd;clip-rule:evenodd;fill:none;stroke:#00AEEF;stroke-width:0.9;"/>
  <line y1="-25.596" y2="-27.438" x2="48.267" x1="49.011" style="fill-rule:evenodd;clip-rule:evenodd;fill:none;stroke:#00AEEF;stroke-width:0.9;"/>
  <line y1="-22.131" y2="-21.291" x2="49.18" x1="50.979" style="fill-rule:evenodd;clip-rule:evenodd;fill:none;stroke:#00AEEF;stroke-width:0.9;"/>
  <line y1="-19.965" y2="-18.933" x2="54.953" x1="56.65" style="fill-rule:evenodd;clip-rule:evenodd;fill:none;stroke:#00AEEF;stroke-width:0.9;"/>
  <line y1="-18.549" y2="-19.523" x2="60.583" x1="62.314" style="fill-rule:evenodd;clip-rule:evenodd;fill:none;stroke:#00AEEF;stroke-width:0.9;"/>
  <line y1="-15.674" y2="-16.895" x2="58.298" x1="58.067" style="fill-rule:evenodd;clip-rule:evenodd;fill:none;stroke:#00AEEF;stroke-width:0.9;"/>
  <line y1="-18.811" y2="-17.071" x2="51.146" x1="50.188" style="fill-rule:evenodd;clip-rule:evenodd;fill:none;stroke:#00AEEF;stroke-width:0.9;"/>
  <line y1="-32.171" y2="-30.774" x2="57.919" x1="58.186" style="fill-rule:evenodd;clip-rule:evenodd;fill:none;stroke:#00AEEF;stroke-width:0.9;"/>
  <line y1="-29.061" y2="-30.845" x2="78.481" x1="77.607" style="fill-rule:evenodd;clip-rule:evenodd;fill:none;stroke:#00AEEF;stroke-width:0.9;"/>
  <line y1="-27.722" y2="-27.911" x2="73.364" x1="71.386" style="fill-rule:evenodd;clip-rule:evenodd;fill:none;stroke:#00AEEF;stroke-width:0.9;"/>
  <line y1="-28.116" y2="-29.541" x2="68.124" x1="66.74" style="fill-rule:evenodd;clip-rule:evenodd;fill:none;stroke:#00AEEF;stroke-width:0.9;"/>
  <line y1="-22.958" y2="-24.894" x2="76.358" x1="75.914" style="fill-rule:evenodd;clip-rule:evenodd;fill:none;stroke:#00AEEF;stroke-width:0.9;"/>
  <line y1="-23.982" y2="-24.494" x2="69.27" x1="71.189" style="fill-rule:evenodd;clip-rule:evenodd;fill:none;stroke:#00AEEF;stroke-width:0.9;"/>
  <line y1="-25.596" y2="-27.438" x2="64.105" x1="64.85" style="fill-rule:evenodd;clip-rule:evenodd;fill:none;stroke:#00AEEF;stroke-width:0.9;"/>
  <line y1="-22.131" y2="-21.291" x2="65.019" x1="66.819" style="fill-rule:evenodd;clip-rule:evenodd;fill:none;stroke:#00AEEF;stroke-width:0.9;"/>
  <line y1="-19.965" y2="-18.933" x2="70.792" x1="72.489" style="fill-rule:evenodd;clip-rule:evenodd;fill:none;stroke:#00AEEF;stroke-width:0.9;"/>
  <line y1="-18.549" y2="-19.523" x2="76.423" x1="78.153" style="fill-rule:evenodd;clip-rule:evenodd;fill:none;stroke:#00AEEF;stroke-width:0.9;"/>
  <line y1="-15.674" y2="-16.895" x2="74.137" x1="73.906" style="fill-rule:evenodd;clip-rule:evenodd;fill:none;stroke:#00AEEF;stroke-width:0.9;"/>
  <line y1="-18.811" y2="-17.071" x2="66.985" x1="66.027" style="fill-rule:evenodd;clip-rule:evenodd;fill:none;stroke:#00AEEF;stroke-width:0.9;"/>
  <line y1="-32.171" y2="-30.774" x2="73.758" x1="74.024" style="fill-rule:evenodd;clip-rule:evenodd;fill:none;stroke:#00AEEF;stroke-width:0.9;"/>
  <line y1="-44.9" y2="-46.684" x2="15.125" x1="14.252" style="fill-rule:evenodd;clip-rule:evenodd;fill:none;stroke:#00AEEF;stroke-width:0.9;"/>
  <line y1="-43.562" y2="-43.75" x2="10.008" x1="8.03" style="fill-rule:evenodd;clip-rule:evenodd;fill:none;stroke:#00AEEF;stroke-width:0.9;"/>
  <line y1="-43.955" y2="-45.379" x2="4.769" x1="3.384" style="fill-rule:evenodd;clip-rule:evenodd;fill:none;stroke:#00AEEF;stroke-width:0.9;"/>
  <line y1="-38.797" y2="-40.733" x2="13.002" x1="12.558" style="fill-rule:evenodd;clip-rule:evenodd;fill:none;stroke:#00AEEF;stroke-width:0.9;"/>
  <line y1="-39.821" y2="-40.333" x2="5.914" x1="7.833" style="fill-rule:evenodd;clip-rule:evenodd;fill:none;stroke:#00AEEF;stroke-width:0.9;"/>
  <line y1="-41.435" y2="-43.276" x2="0.749" x1="1.494" style="fill:none;stroke:#00AEEF;stroke-width:0.9;"/>
  <line y1="-37.97" y2="-37.13" x2="1.663" x1="3.463" style="fill-rule:evenodd;clip-rule:evenodd;fill:none;stroke:#00AEEF;stroke-width:0.9;"/>
  <line y1="-35.805" y2="-34.772" x2="7.436" x1="9.133" style="fill-rule:evenodd;clip-rule:evenodd;fill:none;stroke:#00AEEF;stroke-width:0.9;"/>
  <line y1="-34.388" y2="-35.362" x2="13.067" x1="14.797" style="fill-rule:evenodd;clip-rule:evenodd;fill:none;stroke:#00AEEF;stroke-width:0.9;"/>
  <line y1="-31.513" y2="-32.734" x2="10.781" x1="10.55" style="fill-rule:evenodd;clip-rule:evenodd;fill:none;stroke:#00AEEF;stroke-width:0.9;"/>
  <line y1="-34.65" y2="-32.91" x2="3.629" x1="2.671" style="fill-rule:evenodd;clip-rule:evenodd;fill:none;stroke:#00AEEF;stroke-width:0.9;"/>
  <line y1="-48.011" y2="-46.613" x2="10.402" x1="10.668" style="fill-rule:evenodd;clip-rule:evenodd;fill:none;stroke:#00AEEF;stroke-width:0.9;"/>
  <line y1="-44.9" y2="-46.684" x2="30.964" x1="30.09" style="fill-rule:evenodd;clip-rule:evenodd;fill:none;stroke:#00AEEF;stroke-width:0.9;"/>
  <line y1="-43.562" y2="-43.75" x2="25.847" x1="23.869" style="fill-rule:evenodd;clip-rule:evenodd;fill:none;stroke:#00AEEF;stroke-width:0.9;"/>
  <line y1="-43.955" y2="-45.379" x2="20.608" x1="19.223" style="fill-rule:evenodd;clip-rule:evenodd;fill:none;stroke:#00AEEF;stroke-width:0.9;"/>
  <line y1="-38.797" y2="-40.733" x2="28.841" x1="28.397" style="fill-rule:evenodd;clip-rule:evenodd;fill:none;stroke:#00AEEF;stroke-width:0.9;"/>
  <line y1="-39.821" y2="-40.333" x2="21.753" x1="23.672" style="fill-rule:evenodd;clip-rule:evenodd;fill:none;stroke:#00AEEF;stroke-width:0.9;"/>
  <line y1="-41.435" y2="-43.276" x2="16.589" x1="17.333" style="fill-rule:evenodd;clip-rule:evenodd;fill:none;stroke:#00AEEF;stroke-width:0.9;"/>
  <line y1="-37.97" y2="-37.13" x2="17.502" x1="19.302" style="fill-rule:evenodd;clip-rule:evenodd;fill:none;stroke:#00AEEF;stroke-width:0.9;"/>
  <line y1="-35.805" y2="-34.772" x2="23.275" x1="24.972" style="fill-rule:evenodd;clip-rule:evenodd;fill:none;stroke:#00AEEF;stroke-width:0.9;"/>
  <line y1="-34.388" y2="-35.362" x2="28.906" x1="30.636" style="fill-rule:evenodd;clip-rule:evenodd;fill:none;stroke:#00AEEF;stroke-width:0.9;"/>
  <line y1="-31.513" y2="-32.734" x2="26.62" x1="26.39" style="fill-rule:evenodd;clip-rule:evenodd;fill:none;stroke:#00AEEF;stroke-width:0.9;"/>
  <line y1="-34.65" y2="-32.91" x2="19.469" x1="18.51" style="fill-rule:evenodd;clip-rule:evenodd;fill:none;stroke:#00AEEF;stroke-width:0.9;"/>
  <line y1="-48.011" y2="-46.613" x2="26.241" x1="26.507" style="fill-rule:evenodd;clip-rule:evenodd;fill:none;stroke:#00AEEF;stroke-width:0.9;"/>
  <line y1="-44.9" y2="-46.684" x2="46.803" x1="45.929" style="fill-rule:evenodd;clip-rule:evenodd;fill:none;stroke:#00AEEF;stroke-width:0.9;"/>
  <line y1="-43.562" y2="-43.75" x2="41.686" x1="39.708" style="fill-rule:evenodd;clip-rule:evenodd;fill:none;stroke:#00AEEF;stroke-width:0.9;"/>
  <line y1="-43.955" y2="-45.379" x2="36.447" x1="35.062" style="fill-rule:evenodd;clip-rule:evenodd;fill:none;stroke:#00AEEF;stroke-width:0.9;"/>
  <line y1="-38.797" y2="-40.733" x2="44.68" x1="44.236" style="fill-rule:evenodd;clip-rule:evenodd;fill:none;stroke:#00AEEF;stroke-width:0.9;"/>
  <line y1="-39.821" y2="-40.333" x2="37.592" x1="39.511" style="fill-rule:evenodd;clip-rule:evenodd;fill:none;stroke:#00AEEF;stroke-width:0.9;"/>
  <line y1="-41.435" y2="-43.276" x2="32.428" x1="33.172" style="fill-rule:evenodd;clip-rule:evenodd;fill:none;stroke:#00AEEF;stroke-width:0.9;"/>
  <line y1="-37.97" y2="-37.13" x2="33.341" x1="35.141" style="fill-rule:evenodd;clip-rule:evenodd;fill:none;stroke:#00AEEF;stroke-width:0.9;"/>
  <line y1="-35.805" y2="-34.772" x2="39.114" x1="40.811" style="fill-rule:evenodd;clip-rule:evenodd;fill:none;stroke:#00AEEF;stroke-width:0.9;"/>
  <line y1="-34.388" y2="-35.362" x2="44.745" x1="46.475" style="fill-rule:evenodd;clip-rule:evenodd;fill:none;stroke:#00AEEF;stroke-width:0.9;"/>
  <line y1="-31.513" y2="-32.734" x2="42.459" x1="42.229" style="fill-rule:evenodd;clip-rule:evenodd;fill:none;stroke:#00AEEF;stroke-width:0.9;"/>
  <line y1="-34.65" y2="-32.91" x2="35.308" x1="34.349" style="fill-rule:evenodd;clip-rule:evenodd;fill:none;stroke:#00AEEF;stroke-width:0.9;"/>
  <line y1="-48.011" y2="-46.613" x2="42.08" x1="42.346" style="fill-rule:evenodd;clip-rule:evenodd;fill:none;stroke:#00AEEF;stroke-width:0.9;"/>
  <line y1="-44.9" y2="-46.684" x2="62.642" x1="61.769" style="fill-rule:evenodd;clip-rule:evenodd;fill:none;stroke:#00AEEF;stroke-width:0.9;"/>
  <line y1="-43.562" y2="-43.75" x2="57.524" x1="55.547" style="fill-rule:evenodd;clip-rule:evenodd;fill:none;stroke:#00AEEF;stroke-width:0.9;"/>
  <line y1="-43.955" y2="-45.379" x2="52.286" x1="50.901" style="fill-rule:evenodd;clip-rule:evenodd;fill:none;stroke:#00AEEF;stroke-width:0.9;"/>
  <line y1="-38.797" y2="-40.733" x2="60.519" x1="60.075" style="fill-rule:evenodd;clip-rule:evenodd;fill:none;stroke:#00AEEF;stroke-width:0.9;"/>
  <line y1="-39.821" y2="-40.333" x2="53.431" x1="55.35" style="fill-rule:evenodd;clip-rule:evenodd;fill:none;stroke:#00AEEF;stroke-width:0.9;"/>
  <line y1="-41.435" y2="-43.276" x2="48.267" x1="49.011" style="fill-rule:evenodd;clip-rule:evenodd;fill:none;stroke:#00AEEF;stroke-width:0.9;"/>
  <line y1="-37.97" y2="-37.13" x2="49.18" x1="50.979" style="fill-rule:evenodd;clip-rule:evenodd;fill:none;stroke:#00AEEF;stroke-width:0.9;"/>
  <line y1="-35.805" y2="-34.772" x2="54.953" x1="56.65" style="fill-rule:evenodd;clip-rule:evenodd;fill:none;stroke:#00AEEF;stroke-width:0.9;"/>
  <line y1="-34.388" y2="-35.362" x2="60.583" x1="62.314" style="fill-rule:evenodd;clip-rule:evenodd;fill:none;stroke:#00AEEF;stroke-width:0.9;"/>
  <line y1="-31.513" y2="-32.734" x2="58.298" x1="58.067" style="fill-rule:evenodd;clip-rule:evenodd;fill:none;stroke:#00AEEF;stroke-width:0.9;"/>
  <line y1="-34.65" y2="-32.91" x2="51.146" x1="50.188" style="fill-rule:evenodd;clip-rule:evenodd;fill:none;stroke:#00AEEF;stroke-width:0.9;"/>
  <line y1="-48.011" y2="-46.613" x2="57.919" x1="58.186" style="fill-rule:evenodd;clip-rule:evenodd;fill:none;stroke:#00AEEF;stroke-width:0.9;"/>
  <line y1="-44.9" y2="-46.684" x2="78.481" x1="77.607" style="fill-rule:evenodd;clip-rule:evenodd;fill:none;stroke:#00AEEF;stroke-width:0.9;"/>
  <line y1="-43.562" y2="-43.75" x2="73.364" x1="71.386" style="fill-rule:evenodd;clip-rule:evenodd;fill:none;stroke:#00AEEF;stroke-width:0.9;"/>
  <line y1="-43.955" y2="-45.379" x2="68.124" x1="66.74" style="fill-rule:evenodd;clip-rule:evenodd;fill:none;stroke:#00AEEF;stroke-width:0.9;"/>
  <line y1="-38.797" y2="-40.733" x2="76.358" x1="75.914" style="fill-rule:evenodd;clip-rule:evenodd;fill:none;stroke:#00AEEF;stroke-width:0.9;"/>
  <line y1="-39.821" y2="-40.333" x2="69.27" x1="71.189" style="fill-rule:evenodd;clip-rule:evenodd;fill:none;stroke:#00AEEF;stroke-width:0.9;"/>
  <line y1="-41.435" y2="-43.276" x2="64.105" x1="64.85" style="fill-rule:evenodd;clip-rule:evenodd;fill:none;stroke:#00AEEF;stroke-width:0.9;"/>
  <line y1="-37.97" y2="-37.13" x2="65.019" x1="66.819" style="fill-rule:evenodd;clip-rule:evenodd;fill:none;stroke:#00AEEF;stroke-width:0.9;"/>
  <line y1="-35.805" y2="-34.772" x2="70.792" x1="72.489" style="fill-rule:evenodd;clip-rule:evenodd;fill:none;stroke:#00AEEF;stroke-width:0.9;"/>
  <line y1="-34.388" y2="-35.362" x2="76.423" x1="78.153" style="fill-rule:evenodd;clip-rule:evenodd;fill:none;stroke:#00AEEF;stroke-width:0.9;"/>
  <line y1="-31.513" y2="-32.734" x2="74.137" x1="73.906" style="fill-rule:evenodd;clip-rule:evenodd;fill:none;stroke:#00AEEF;stroke-width:0.9;"/>
  <line y1="-34.65" y2="-32.91" x2="66.985" x1="66.027" style="fill-rule:evenodd;clip-rule:evenodd;fill:none;stroke:#00AEEF;stroke-width:0.9;"/>
  <line y1="-48.011" y2="-46.613" x2="73.758" x1="74.024" style="fill-rule:evenodd;clip-rule:evenodd;fill:none;stroke:#00AEEF;stroke-width:0.9;"/>
  <line y1="-60.739" y2="-62.523" x2="15.125" x1="14.252" style="fill-rule:evenodd;clip-rule:evenodd;fill:none;stroke:#00AEEF;stroke-width:0.9;"/>
  <line y1="-59.4" y2="-59.589" x2="10.008" x1="8.03" style="fill-rule:evenodd;clip-rule:evenodd;fill:none;stroke:#00AEEF;stroke-width:0.9;"/>
  <line y1="-59.794" y2="-61.218" x2="4.769" x1="3.384" style="fill-rule:evenodd;clip-rule:evenodd;fill:none;stroke:#00AEEF;stroke-width:0.9;"/>
  <line y1="-54.636" y2="-56.572" x2="13.002" x1="12.558" style="fill-rule:evenodd;clip-rule:evenodd;fill:none;stroke:#00AEEF;stroke-width:0.9;"/>
  <line y1="-55.66" y2="-56.171" x2="5.914" x1="7.833" style="fill-rule:evenodd;clip-rule:evenodd;fill:none;stroke:#00AEEF;stroke-width:0.9;"/>
  <line y1="-57.274" y2="-59.116" x2="0.749" x1="1.494" style="fill-rule:evenodd;clip-rule:evenodd;fill:none;stroke:#00AEEF;stroke-width:0.9;"/>
  <line y1="-53.809" y2="-52.969" x2="1.663" x1="3.463" style="fill-rule:evenodd;clip-rule:evenodd;fill:none;stroke:#00AEEF;stroke-width:0.9;"/>
  <line y1="-51.644" y2="-50.611" x2="7.436" x1="9.133" style="fill-rule:evenodd;clip-rule:evenodd;fill:none;stroke:#00AEEF;stroke-width:0.9;"/>
  <line y1="-50.227" y2="-51.201" x2="13.067" x1="14.797" style="fill-rule:evenodd;clip-rule:evenodd;fill:none;stroke:#00AEEF;stroke-width:0.9;"/>
  <line y1="-47.352" y2="-48.573" x2="10.781" x1="10.55" style="fill-rule:evenodd;clip-rule:evenodd;fill:none;stroke:#00AEEF;stroke-width:0.9;"/>
  <line y1="-50.489" y2="-48.75" x2="3.629" x1="2.671" style="fill-rule:evenodd;clip-rule:evenodd;fill:none;stroke:#00AEEF;stroke-width:0.9;"/>
  <line y1="-62.452" y2="-63.85" x2="10.668" x1="10.402" style="fill-rule:evenodd;clip-rule:evenodd;fill:none;stroke:#00AEEF;stroke-width:0.9;"/>
  <line y1="-60.739" y2="-62.523" x2="30.964" x1="30.09" style="fill-rule:evenodd;clip-rule:evenodd;fill:none;stroke:#00AEEF;stroke-width:0.9;"/>
  <line y1="-59.4" y2="-59.589" x2="25.847" x1="23.869" style="fill-rule:evenodd;clip-rule:evenodd;fill:none;stroke:#00AEEF;stroke-width:0.9;"/>
  <line y1="-59.794" y2="-61.218" x2="20.608" x1="19.223" style="fill-rule:evenodd;clip-rule:evenodd;fill:none;stroke:#00AEEF;stroke-width:0.9;"/>
  <line y1="-54.636" y2="-56.572" x2="28.841" x1="28.397" style="fill-rule:evenodd;clip-rule:evenodd;fill:none;stroke:#00AEEF;stroke-width:0.9;"/>
  <line y1="-55.66" y2="-56.171" x2="21.753" x1="23.672" style="fill-rule:evenodd;clip-rule:evenodd;fill:none;stroke:#00AEEF;stroke-width:0.9;"/>
  <line y1="-57.274" y2="-59.116" x2="16.589" x1="17.333" style="fill-rule:evenodd;clip-rule:evenodd;fill:none;stroke:#00AEEF;stroke-width:0.9;"/>
  <line y1="-53.809" y2="-52.969" x2="17.502" x1="19.302" style="fill-rule:evenodd;clip-rule:evenodd;fill:none;stroke:#00AEEF;stroke-width:0.9;"/>
  <line y1="-51.644" y2="-50.611" x2="23.275" x1="24.972" style="fill-rule:evenodd;clip-rule:evenodd;fill:none;stroke:#00AEEF;stroke-width:0.9;"/>
  <line y1="-50.227" y2="-51.201" x2="28.906" x1="30.636" style="fill-rule:evenodd;clip-rule:evenodd;fill:none;stroke:#00AEEF;stroke-width:0.9;"/>
  <line y1="-47.352" y2="-48.573" x2="26.62" x1="26.39" style="fill-rule:evenodd;clip-rule:evenodd;fill:none;stroke:#00AEEF;stroke-width:0.9;"/>
  <line y1="-50.489" y2="-48.75" x2="19.469" x1="18.51" style="fill-rule:evenodd;clip-rule:evenodd;fill:none;stroke:#00AEEF;stroke-width:0.9;"/>
  <line y1="-62.452" y2="-63.85" x2="26.507" x1="26.241" style="fill-rule:evenodd;clip-rule:evenodd;fill:none;stroke:#00AEEF;stroke-width:0.9;"/>
  <line y1="-60.739" y2="-62.523" x2="46.803" x1="45.929" style="fill-rule:evenodd;clip-rule:evenodd;fill:none;stroke:#00AEEF;stroke-width:0.9;"/>
  <line y1="-59.4" y2="-59.589" x2="41.686" x1="39.708" style="fill-rule:evenodd;clip-rule:evenodd;fill:none;stroke:#00AEEF;stroke-width:0.9;"/>
  <line y1="-59.794" y2="-61.218" x2="36.447" x1="35.062" style="fill-rule:evenodd;clip-rule:evenodd;fill:none;stroke:#00AEEF;stroke-width:0.9;"/>
  <line y1="-54.636" y2="-56.572" x2="44.68" x1="44.236" style="fill-rule:evenodd;clip-rule:evenodd;fill:none;stroke:#00AEEF;stroke-width:0.9;"/>
  <line y1="-55.66" y2="-56.171" x2="37.592" x1="39.511" style="fill-rule:evenodd;clip-rule:evenodd;fill:none;stroke:#00AEEF;stroke-width:0.9;"/>
  <line y1="-57.274" y2="-59.116" x2="32.428" x1="33.172" style="fill-rule:evenodd;clip-rule:evenodd;fill:none;stroke:#00AEEF;stroke-width:0.9;"/>
  <line y1="-53.809" y2="-52.969" x2="33.341" x1="35.141" style="fill-rule:evenodd;clip-rule:evenodd;fill:none;stroke:#00AEEF;stroke-width:0.9;"/>
  <line y1="-51.644" y2="-50.611" x2="39.114" x1="40.811" style="fill-rule:evenodd;clip-rule:evenodd;fill:none;stroke:#00AEEF;stroke-width:0.9;"/>
  <line y1="-50.227" y2="-51.201" x2="44.745" x1="46.475" style="fill-rule:evenodd;clip-rule:evenodd;fill:none;stroke:#00AEEF;stroke-width:0.9;"/>
  <line y1="-47.352" y2="-48.573" x2="42.459" x1="42.229" style="fill-rule:evenodd;clip-rule:evenodd;fill:none;stroke:#00AEEF;stroke-width:0.9;"/>
  <line y1="-50.489" y2="-48.75" x2="35.308" x1="34.349" style="fill-rule:evenodd;clip-rule:evenodd;fill:none;stroke:#00AEEF;stroke-width:0.9;"/>
  <line y1="-62.452" y2="-63.85" x2="42.346" x1="42.08" style="fill-rule:evenodd;clip-rule:evenodd;fill:none;stroke:#00AEEF;stroke-width:0.9;"/>
  <line y1="-60.739" y2="-62.523" x2="62.642" x1="61.769" style="fill-rule:evenodd;clip-rule:evenodd;fill:none;stroke:#00AEEF;stroke-width:0.9;"/>
  <line y1="-59.4" y2="-59.589" x2="57.524" x1="55.547" style="fill-rule:evenodd;clip-rule:evenodd;fill:none;stroke:#00AEEF;stroke-width:0.9;"/>
  <line y1="-59.794" y2="-61.218" x2="52.286" x1="50.901" style="fill-rule:evenodd;clip-rule:evenodd;fill:none;stroke:#00AEEF;stroke-width:0.9;"/>
  <line y1="-54.636" y2="-56.572" x2="60.519" x1="60.075" style="fill-rule:evenodd;clip-rule:evenodd;fill:none;stroke:#00AEEF;stroke-width:0.9;"/>
  <line y1="-55.66" y2="-56.171" x2="53.431" x1="55.35" style="fill-rule:evenodd;clip-rule:evenodd;fill:none;stroke:#00AEEF;stroke-width:0.9;"/>
  <line y1="-57.274" y2="-59.116" x2="48.267" x1="49.011" style="fill-rule:evenodd;clip-rule:evenodd;fill:none;stroke:#00AEEF;stroke-width:0.9;"/>
  <line y1="-53.809" y2="-52.969" x2="49.18" x1="50.979" style="fill-rule:evenodd;clip-rule:evenodd;fill:none;stroke:#00AEEF;stroke-width:0.9;"/>
  <line y1="-51.644" y2="-50.611" x2="54.953" x1="56.65" style="fill-rule:evenodd;clip-rule:evenodd;fill:none;stroke:#00AEEF;stroke-width:0.9;"/>
  <line y1="-50.227" y2="-51.201" x2="60.583" x1="62.314" style="fill-rule:evenodd;clip-rule:evenodd;fill:none;stroke:#00AEEF;stroke-width:0.9;"/>
  <line y1="-47.352" y2="-48.573" x2="58.298" x1="58.067" style="fill-rule:evenodd;clip-rule:evenodd;fill:none;stroke:#00AEEF;stroke-width:0.9;"/>
  <line y1="-50.489" y2="-48.75" x2="51.146" x1="50.188" style="fill-rule:evenodd;clip-rule:evenodd;fill:none;stroke:#00AEEF;stroke-width:0.9;"/>
  <line y1="-62.452" y2="-63.85" x2="58.186" x1="57.919" style="fill-rule:evenodd;clip-rule:evenodd;fill:none;stroke:#00AEEF;stroke-width:0.9;"/>
  <line y1="-60.739" y2="-62.523" x2="78.481" x1="77.607" style="fill-rule:evenodd;clip-rule:evenodd;fill:none;stroke:#00AEEF;stroke-width:0.9;"/>
  <line y1="-59.4" y2="-59.589" x2="73.364" x1="71.386" style="fill-rule:evenodd;clip-rule:evenodd;fill:none;stroke:#00AEEF;stroke-width:0.9;"/>
  <line y1="-59.794" y2="-61.218" x2="68.124" x1="66.74" style="fill-rule:evenodd;clip-rule:evenodd;fill:none;stroke:#00AEEF;stroke-width:0.9;"/>
  <line y1="-54.636" y2="-56.572" x2="76.358" x1="75.914" style="fill-rule:evenodd;clip-rule:evenodd;fill:none;stroke:#00AEEF;stroke-width:0.9;"/>
  <line y1="-55.66" y2="-56.171" x2="69.27" x1="71.189" style="fill-rule:evenodd;clip-rule:evenodd;fill:none;stroke:#00AEEF;stroke-width:0.9;"/>
  <line y1="-57.274" y2="-59.116" x2="64.105" x1="64.85" style="fill-rule:evenodd;clip-rule:evenodd;fill:none;stroke:#00AEEF;stroke-width:0.9;"/>
  <line y1="-53.809" y2="-52.969" x2="65.019" x1="66.819" style="fill-rule:evenodd;clip-rule:evenodd;fill:none;stroke:#00AEEF;stroke-width:0.9;"/>
  <line y1="-51.644" y2="-50.611" x2="70.792" x1="72.489" style="fill-rule:evenodd;clip-rule:evenodd;fill:none;stroke:#00AEEF;stroke-width:0.9;"/>
  <line y1="-50.227" y2="-51.201" x2="76.423" x1="78.153" style="fill-rule:evenodd;clip-rule:evenodd;fill:none;stroke:#00AEEF;stroke-width:0.9;"/>
  <line y1="-47.352" y2="-48.573" x2="74.137" x1="73.906" style="fill-rule:evenodd;clip-rule:evenodd;fill:none;stroke:#00AEEF;stroke-width:0.9;"/>
  <line y1="-50.489" y2="-48.75" x2="66.985" x1="66.027" style="fill-rule:evenodd;clip-rule:evenodd;fill:none;stroke:#00AEEF;stroke-width:0.9;"/>
  <line y1="-62.452" y2="-63.85" x2="74.024" x1="73.758" style="fill-rule:evenodd;clip-rule:evenodd;fill:none;stroke:#00AEEF;stroke-width:0.9;"/>
  <line y1="-76.578" y2="-78.362" x2="15.125" x1="14.252" style="fill-rule:evenodd;clip-rule:evenodd;fill:none;stroke:#00AEEF;stroke-width:0.9;"/>
  <line y1="-75.239" y2="-75.428" x2="10.008" x1="8.03" style="fill-rule:evenodd;clip-rule:evenodd;fill:none;stroke:#00AEEF;stroke-width:0.9;"/>
  <line y1="-75.633" y2="-77.057" x2="4.769" x1="3.384" style="fill-rule:evenodd;clip-rule:evenodd;fill:none;stroke:#00AEEF;stroke-width:0.9;"/>
  <line y1="-70.475" y2="-72.411" x2="13.002" x1="12.558" style="fill-rule:evenodd;clip-rule:evenodd;fill:none;stroke:#00AEEF;stroke-width:0.9;"/>
  <line y1="-72.01" y2="-71.498" x2="7.833" x1="5.914" style="fill-rule:evenodd;clip-rule:evenodd;fill:none;stroke:#00AEEF;stroke-width:0.9;"/>
  <line y1="-74.955" y2="-73.113" x2="1.494" x1="0.749" style="fill-rule:evenodd;clip-rule:evenodd;fill:none;stroke:#00AEEF;stroke-width:0.9;"/>
  <line y1="-69.648" y2="-68.808" x2="1.663" x1="3.463" style="fill-rule:evenodd;clip-rule:evenodd;fill:none;stroke:#00AEEF;stroke-width:0.9;"/>
  <line y1="-67.482" y2="-66.45" x2="7.436" x1="9.133" style="fill-rule:evenodd;clip-rule:evenodd;fill:none;stroke:#00AEEF;stroke-width:0.9;"/>
  <line y1="-66.066" y2="-67.04" x2="13.067" x1="14.797" style="fill-rule:evenodd;clip-rule:evenodd;fill:none;stroke:#00AEEF;stroke-width:0.9;"/>
  <line y1="-63.191" y2="-64.412" x2="10.781" x1="10.55" style="fill-rule:evenodd;clip-rule:evenodd;fill:none;stroke:#00AEEF;stroke-width:0.9;"/>
  <line y1="-66.328" y2="-64.588" x2="3.629" x1="2.671" style="fill-rule:evenodd;clip-rule:evenodd;fill:none;stroke:#00AEEF;stroke-width:0.9;"/>
  <line y1="-79.334" y2="-78.29" x2="10.402" x1="10.601" style="fill-rule:evenodd;clip-rule:evenodd;fill:none;stroke:#00AEEF;stroke-width:0.9;"/>
  <line y1="-76.578" y2="-78.362" x2="30.964" x1="30.09" style="fill-rule:evenodd;clip-rule:evenodd;fill:none;stroke:#00AEEF;stroke-width:0.9;"/>
  <line y1="-75.239" y2="-75.428" x2="25.847" x1="23.869" style="fill-rule:evenodd;clip-rule:evenodd;fill:none;stroke:#00AEEF;stroke-width:0.9;"/>
  <line y1="-75.633" y2="-77.057" x2="20.608" x1="19.223" style="fill-rule:evenodd;clip-rule:evenodd;fill:none;stroke:#00AEEF;stroke-width:0.9;"/>
  <line y1="-70.475" y2="-72.411" x2="28.841" x1="28.397" style="fill-rule:evenodd;clip-rule:evenodd;fill:none;stroke:#00AEEF;stroke-width:0.9;"/>
  <line y1="-72.01" y2="-71.498" x2="23.672" x1="21.753" style="fill-rule:evenodd;clip-rule:evenodd;fill:none;stroke:#00AEEF;stroke-width:0.9;"/>
  <line y1="-74.955" y2="-73.113" x2="17.333" x1="16.589" style="fill-rule:evenodd;clip-rule:evenodd;fill:none;stroke:#00AEEF;stroke-width:0.9;"/>
  <line y1="-69.648" y2="-68.808" x2="17.502" x1="19.302" style="fill-rule:evenodd;clip-rule:evenodd;fill:none;stroke:#00AEEF;stroke-width:0.9;"/>
  <line y1="-67.482" y2="-66.45" x2="23.275" x1="24.972" style="fill-rule:evenodd;clip-rule:evenodd;fill:none;stroke:#00AEEF;stroke-width:0.9;"/>
  <line y1="-66.066" y2="-67.04" x2="28.906" x1="30.636" style="fill-rule:evenodd;clip-rule:evenodd;fill:none;stroke:#00AEEF;stroke-width:0.9;"/>
  <line y1="-63.191" y2="-64.412" x2="26.62" x1="26.39" style="fill-rule:evenodd;clip-rule:evenodd;fill:none;stroke:#00AEEF;stroke-width:0.9;"/>
  <line y1="-66.328" y2="-64.588" x2="19.469" x1="18.51" style="fill-rule:evenodd;clip-rule:evenodd;fill:none;stroke:#00AEEF;stroke-width:0.9;"/>
  <line y1="-79.334" y2="-78.29" x2="26.241" x1="26.44" style="fill-rule:evenodd;clip-rule:evenodd;fill:none;stroke:#00AEEF;stroke-width:0.9;"/>
  <line y1="-76.578" y2="-78.362" x2="46.803" x1="45.929" style="fill-rule:evenodd;clip-rule:evenodd;fill:none;stroke:#00AEEF;stroke-width:0.9;"/>
  <line y1="-75.239" y2="-75.428" x2="41.686" x1="39.708" style="fill-rule:evenodd;clip-rule:evenodd;fill:none;stroke:#00AEEF;stroke-width:0.9;"/>
  <line y1="-75.633" y2="-77.057" x2="36.447" x1="35.062" style="fill-rule:evenodd;clip-rule:evenodd;fill:none;stroke:#00AEEF;stroke-width:0.9;"/>
  <line y1="-70.475" y2="-72.411" x2="44.68" x1="44.236" style="fill-rule:evenodd;clip-rule:evenodd;fill:none;stroke:#00AEEF;stroke-width:0.9;"/>
  <line y1="-72.01" y2="-71.498" x2="39.511" x1="37.592" style="fill-rule:evenodd;clip-rule:evenodd;fill:none;stroke:#00AEEF;stroke-width:0.9;"/>
  <line y1="-74.955" y2="-73.113" x2="33.172" x1="32.428" style="fill-rule:evenodd;clip-rule:evenodd;fill:none;stroke:#00AEEF;stroke-width:0.9;"/>
  <line y1="-69.648" y2="-68.808" x2="33.341" x1="35.141" style="fill-rule:evenodd;clip-rule:evenodd;fill:none;stroke:#00AEEF;stroke-width:0.9;"/>
  <line y1="-67.482" y2="-66.45" x2="39.114" x1="40.811" style="fill-rule:evenodd;clip-rule:evenodd;fill:none;stroke:#00AEEF;stroke-width:0.9;"/>
  <line y1="-66.066" y2="-67.04" x2="44.745" x1="46.475" style="fill-rule:evenodd;clip-rule:evenodd;fill:none;stroke:#00AEEF;stroke-width:0.9;"/>
  <line y1="-63.191" y2="-64.412" x2="42.459" x1="42.229" style="fill-rule:evenodd;clip-rule:evenodd;fill:none;stroke:#00AEEF;stroke-width:0.9;"/>
  <line y1="-66.328" y2="-64.588" x2="35.308" x1="34.349" style="fill-rule:evenodd;clip-rule:evenodd;fill:none;stroke:#00AEEF;stroke-width:0.9;"/>
  <line y1="-79.334" y2="-78.29" x2="42.08" x1="42.279" style="fill-rule:evenodd;clip-rule:evenodd;fill:none;stroke:#00AEEF;stroke-width:0.9;"/>
  <line y1="-76.578" y2="-78.362" x2="62.642" x1="61.769" style="fill-rule:evenodd;clip-rule:evenodd;fill:none;stroke:#00AEEF;stroke-width:0.9;"/>
  <line y1="-75.239" y2="-75.428" x2="57.524" x1="55.547" style="fill-rule:evenodd;clip-rule:evenodd;fill:none;stroke:#00AEEF;stroke-width:0.9;"/>
  <line y1="-75.633" y2="-77.057" x2="52.286" x1="50.901" style="fill-rule:evenodd;clip-rule:evenodd;fill:none;stroke:#00AEEF;stroke-width:0.9;"/>
  <line y1="-70.475" y2="-72.411" x2="60.519" x1="60.075" style="fill-rule:evenodd;clip-rule:evenodd;fill:none;stroke:#00AEEF;stroke-width:0.9;"/>
  <line y1="-72.01" y2="-71.498" x2="55.35" x1="53.431" style="fill-rule:evenodd;clip-rule:evenodd;fill:none;stroke:#00AEEF;stroke-width:0.9;"/>
  <line y1="-74.955" y2="-73.113" x2="49.011" x1="48.267" style="fill-rule:evenodd;clip-rule:evenodd;fill:none;stroke:#00AEEF;stroke-width:0.9;"/>
  <line y1="-69.648" y2="-68.808" x2="49.18" x1="50.979" style="fill-rule:evenodd;clip-rule:evenodd;fill:none;stroke:#00AEEF;stroke-width:0.9;"/>
  <line y1="-67.482" y2="-66.45" x2="54.953" x1="56.65" style="fill-rule:evenodd;clip-rule:evenodd;fill:none;stroke:#00AEEF;stroke-width:0.9;"/>
  <line y1="-66.066" y2="-67.04" x2="60.583" x1="62.314" style="fill-rule:evenodd;clip-rule:evenodd;fill:none;stroke:#00AEEF;stroke-width:0.9;"/>
  <line y1="-63.191" y2="-64.412" x2="58.298" x1="58.067" style="fill-rule:evenodd;clip-rule:evenodd;fill:none;stroke:#00AEEF;stroke-width:0.9;"/>
  <line y1="-66.328" y2="-64.588" x2="51.146" x1="50.188" style="fill-rule:evenodd;clip-rule:evenodd;fill:none;stroke:#00AEEF;stroke-width:0.9;"/>
  <line y1="-79.334" y2="-78.29" x2="57.919" x1="58.118" style="fill-rule:evenodd;clip-rule:evenodd;fill:none;stroke:#00AEEF;stroke-width:0.9;"/>
  <line y1="-76.578" y2="-78.362" x2="78.481" x1="77.607" style="fill-rule:evenodd;clip-rule:evenodd;fill:none;stroke:#00AEEF;stroke-width:0.9;"/>
  <line y1="-75.239" y2="-75.428" x2="73.364" x1="71.386" style="fill-rule:evenodd;clip-rule:evenodd;fill:none;stroke:#00AEEF;stroke-width:0.9;"/>
  <line y1="-75.633" y2="-77.057" x2="68.124" x1="66.74" style="fill-rule:evenodd;clip-rule:evenodd;fill:none;stroke:#00AEEF;stroke-width:0.9;"/>
  <line y1="-70.475" y2="-72.411" x2="76.358" x1="75.914" style="fill-rule:evenodd;clip-rule:evenodd;fill:none;stroke:#00AEEF;stroke-width:0.9;"/>
  <line y1="-72.01" y2="-71.498" x2="71.189" x1="69.27" style="fill-rule:evenodd;clip-rule:evenodd;fill:none;stroke:#00AEEF;stroke-width:0.9;"/>
  <line y1="-74.955" y2="-73.113" x2="64.85" x1="64.105" style="fill-rule:evenodd;clip-rule:evenodd;fill:none;stroke:#00AEEF;stroke-width:0.9;"/>
  <line y1="-69.648" y2="-68.808" x2="65.019" x1="66.819" style="fill-rule:evenodd;clip-rule:evenodd;fill:none;stroke:#00AEEF;stroke-width:0.9;"/>
  <line y1="-67.482" y2="-66.45" x2="70.792" x1="72.489" style="fill-rule:evenodd;clip-rule:evenodd;fill:none;stroke:#00AEEF;stroke-width:0.9;"/>
  <line y1="-66.066" y2="-67.04" x2="76.423" x1="78.153" style="fill-rule:evenodd;clip-rule:evenodd;fill:none;stroke:#00AEEF;stroke-width:0.9;"/>
  <line y1="-63.191" y2="-64.412" x2="74.137" x1="73.906" style="fill-rule:evenodd;clip-rule:evenodd;fill:none;stroke:#00AEEF;stroke-width:0.9;"/>
  <line y1="-66.328" y2="-64.588" x2="66.985" x1="66.027" style="fill-rule:evenodd;clip-rule:evenodd;fill:none;stroke:#00AEEF;stroke-width:0.9;"/>
  <line y1="-79.334" y2="-78.29" x2="73.758" x1="73.957" style="fill-rule:evenodd;clip-rule:evenodd;fill:none;stroke:#00AEEF;stroke-width:0.9;"/>
 </g>
</svg>
