<?xml version="1.0"?>
<!-- Converted with SVG Converter - Version 0.9.6 (Compiled Thu Aug 31 10:01:05 2017) - Copyright (C) 2011 Nokia -->
<svg xmlns="http://www.w3.org/2000/svg" width="79.25" xmlns:xlink="http://www.w3.org/1999/xlink" height="79.25" viewBox="0 -79.334 79.25 79.25" baseProfile="tiny" version="1.1" x="0px" y="0px" xml:space="preserve">
 <g>
  <rect width="79.25" style="fill:none;" height="79.25" y="-79.334"/>
  <line style="fill-rule:evenodd;clip-rule:evenodd;fill:none;stroke:#EC008C;stroke-width:0.9;" y2="-15.006" y1="-13.222" x1="14.252" x2="15.125"/>
  <line style="fill-rule:evenodd;clip-rule:evenodd;fill:none;stroke:#EC008C;stroke-width:0.9;" y2="-12.072" y1="-11.883" x1="8.03" x2="10.008"/>
  <line style="fill-rule:evenodd;clip-rule:evenodd;fill:none;stroke:#EC008C;stroke-width:0.9;" y2="-13.701" y1="-12.277" x1="3.384" x2="4.769"/>
  <line style="fill-rule:evenodd;clip-rule:evenodd;fill:none;stroke:#EC008C;stroke-width:0.9;" y2="-7.119" y1="-9.055" x1="13.002" x2="12.558"/>
  <line style="fill-rule:evenodd;clip-rule:evenodd;fill:none;stroke:#EC008C;stroke-width:0.9;" y2="-8.654" y1="-8.143" x1="7.833" x2="5.914"/>
  <line style="fill-rule:evenodd;clip-rule:evenodd;fill:none;stroke:#EC008C;stroke-width:0.9;" y2="-11.599" y1="-9.757" x1="1.494" x2="0.749"/>
  <line style="fill-rule:evenodd;clip-rule:evenodd;fill:none;stroke:#EC008C;stroke-width:0.9;" y2="-5.452" y1="-6.292" x1="3.463" x2="1.663"/>
  <line style="fill-rule:evenodd;clip-rule:evenodd;fill:none;stroke:#EC008C;stroke-width:0.9;" y2="-3.094" y1="-4.127" x1="9.133" x2="7.436"/>
  <line style="fill-rule:evenodd;clip-rule:evenodd;fill:none;stroke:#EC008C;stroke-width:0.9;" y2="-3.685" y1="-2.71" x1="14.797" x2="13.067"/>
  <line style="fill-rule:evenodd;clip-rule:evenodd;fill:none;stroke:#EC008C;stroke-width:0.9;" y2="-0.083" y1="-1.056" x1="10.781" x2="10.598"/>
  <line style="fill-rule:evenodd;clip-rule:evenodd;fill:none;stroke:#EC008C;stroke-width:0.9;" y2="-2.972" y1="-1.232" x1="3.629" x2="2.671"/>
  <line style="fill-rule:evenodd;clip-rule:evenodd;fill:none;stroke:#EC008C;stroke-width:0.9;" y2="-14.935" y1="-16.333" x1="10.668" x2="10.402"/>
  <line style="fill-rule:evenodd;clip-rule:evenodd;fill:none;stroke:#EC008C;stroke-width:0.9;" y2="-15.006" y1="-13.222" x1="30.09" x2="30.964"/>
  <line style="fill-rule:evenodd;clip-rule:evenodd;fill:none;stroke:#EC008C;stroke-width:0.9;" y2="-12.072" y1="-11.883" x1="23.869" x2="25.847"/>
  <line style="fill-rule:evenodd;clip-rule:evenodd;fill:none;stroke:#EC008C;stroke-width:0.9;" y2="-13.701" y1="-12.277" x1="19.223" x2="20.608"/>
  <line style="fill-rule:evenodd;clip-rule:evenodd;fill:none;stroke:#EC008C;stroke-width:0.9;" y2="-7.119" y1="-9.055" x1="28.841" x2="28.397"/>
  <line style="fill-rule:evenodd;clip-rule:evenodd;fill:none;stroke:#EC008C;stroke-width:0.9;" y2="-8.654" y1="-8.143" x1="23.672" x2="21.753"/>
  <line style="fill-rule:evenodd;clip-rule:evenodd;fill:none;stroke:#EC008C;stroke-width:0.9;" y2="-11.599" y1="-9.757" x1="17.333" x2="16.589"/>
  <line style="fill-rule:evenodd;clip-rule:evenodd;fill:none;stroke:#EC008C;stroke-width:0.9;" y2="-5.452" y1="-6.292" x1="19.302" x2="17.502"/>
  <line style="fill-rule:evenodd;clip-rule:evenodd;fill:none;stroke:#EC008C;stroke-width:0.9;" y2="-3.094" y1="-4.127" x1="24.972" x2="23.275"/>
  <line style="fill-rule:evenodd;clip-rule:evenodd;fill:none;stroke:#EC008C;stroke-width:0.9;" y2="-3.685" y1="-2.71" x1="30.636" x2="28.906"/>
  <line style="fill-rule:evenodd;clip-rule:evenodd;fill:none;stroke:#EC008C;stroke-width:0.9;" y2="-0.083" y1="-1.056" x1="26.691" x2="26.508"/>
  <line style="fill-rule:evenodd;clip-rule:evenodd;fill:none;stroke:#EC008C;stroke-width:0.9;" y2="-2.972" y1="-1.232" x1="19.469" x2="18.51"/>
  <line style="fill-rule:evenodd;clip-rule:evenodd;fill:none;stroke:#EC008C;stroke-width:0.9;" y2="-14.935" y1="-16.333" x1="26.507" x2="26.241"/>
  <line style="fill-rule:evenodd;clip-rule:evenodd;fill:none;stroke:#EC008C;stroke-width:0.9;" y2="-15.006" y1="-13.222" x1="45.929" x2="46.803"/>
  <line style="fill-rule:evenodd;clip-rule:evenodd;fill:none;stroke:#EC008C;stroke-width:0.9;" y2="-12.072" y1="-11.883" x1="39.708" x2="41.686"/>
  <line style="fill-rule:evenodd;clip-rule:evenodd;fill:none;stroke:#EC008C;stroke-width:0.9;" y2="-13.701" y1="-12.277" x1="35.062" x2="36.447"/>
  <line style="fill-rule:evenodd;clip-rule:evenodd;fill:none;stroke:#EC008C;stroke-width:0.9;" y2="-7.119" y1="-9.055" x1="44.68" x2="44.236"/>
  <line style="fill-rule:evenodd;clip-rule:evenodd;fill:none;stroke:#EC008C;stroke-width:0.9;" y2="-8.654" y1="-8.143" x1="39.511" x2="37.592"/>
  <line style="fill-rule:evenodd;clip-rule:evenodd;fill:none;stroke:#EC008C;stroke-width:0.9;" y2="-11.599" y1="-9.757" x1="33.172" x2="32.428"/>
  <line style="fill-rule:evenodd;clip-rule:evenodd;fill:none;stroke:#EC008C;stroke-width:0.9;" y2="-5.452" y1="-6.292" x1="35.141" x2="33.341"/>
  <line style="fill-rule:evenodd;clip-rule:evenodd;fill:none;stroke:#EC008C;stroke-width:0.9;" y2="-3.094" y1="-4.127" x1="40.811" x2="39.114"/>
  <line style="fill-rule:evenodd;clip-rule:evenodd;fill:none;stroke:#EC008C;stroke-width:0.9;" y2="-3.685" y1="-2.71" x1="46.475" x2="44.745"/>
  <line style="fill-rule:evenodd;clip-rule:evenodd;fill:none;stroke:#EC008C;stroke-width:0.9;" y2="-0.083" y1="-1.056" x1="42.459" x2="42.275"/>
  <line style="fill-rule:evenodd;clip-rule:evenodd;fill:none;stroke:#EC008C;stroke-width:0.9;" y2="-2.972" y1="-1.232" x1="35.308" x2="34.349"/>
  <line style="fill-rule:evenodd;clip-rule:evenodd;fill:none;stroke:#EC008C;stroke-width:0.9;" y2="-14.935" y1="-16.333" x1="42.346" x2="42.08"/>
  <line style="fill-rule:evenodd;clip-rule:evenodd;fill:none;stroke:#EC008C;stroke-width:0.9;" y2="-15.006" y1="-13.222" x1="61.769" x2="62.642"/>
  <line style="fill-rule:evenodd;clip-rule:evenodd;fill:none;stroke:#EC008C;stroke-width:0.9;" y2="-12.072" y1="-11.883" x1="55.547" x2="57.524"/>
  <line style="fill-rule:evenodd;clip-rule:evenodd;fill:none;stroke:#EC008C;stroke-width:0.9;" y2="-13.701" y1="-12.277" x1="50.901" x2="52.286"/>
  <line style="fill-rule:evenodd;clip-rule:evenodd;fill:none;stroke:#EC008C;stroke-width:0.9;" y2="-7.119" y1="-9.055" x1="60.519" x2="60.075"/>
  <line style="fill-rule:evenodd;clip-rule:evenodd;fill:none;stroke:#EC008C;stroke-width:0.9;" y2="-8.654" y1="-8.143" x1="55.35" x2="53.431"/>
  <line style="fill-rule:evenodd;clip-rule:evenodd;fill:none;stroke:#EC008C;stroke-width:0.9;" y2="-11.599" y1="-9.757" x1="49.011" x2="48.267"/>
  <line style="fill-rule:evenodd;clip-rule:evenodd;fill:none;stroke:#EC008C;stroke-width:0.9;" y2="-5.452" y1="-6.292" x1="50.979" x2="49.18"/>
  <line style="fill-rule:evenodd;clip-rule:evenodd;fill:none;stroke:#EC008C;stroke-width:0.9;" y2="-3.094" y1="-4.127" x1="56.65" x2="54.953"/>
  <line style="fill-rule:evenodd;clip-rule:evenodd;fill:none;stroke:#EC008C;stroke-width:0.9;" y2="-3.685" y1="-2.71" x1="62.314" x2="60.583"/>
  <line style="fill-rule:evenodd;clip-rule:evenodd;fill:none;stroke:#EC008C;stroke-width:0.9;" y2="-0.083" y1="-1.056" x1="58.298" x2="58.114"/>
  <line style="fill-rule:evenodd;clip-rule:evenodd;fill:none;stroke:#EC008C;stroke-width:0.9;" y2="-2.972" y1="-1.232" x1="51.146" x2="50.188"/>
  <line style="fill-rule:evenodd;clip-rule:evenodd;fill:none;stroke:#EC008C;stroke-width:0.9;" y2="-14.935" y1="-16.333" x1="58.186" x2="57.919"/>
  <line style="fill-rule:evenodd;clip-rule:evenodd;fill:none;stroke:#EC008C;stroke-width:0.9;" y2="-15.006" y1="-13.222" x1="77.607" x2="78.481"/>
  <line style="fill-rule:evenodd;clip-rule:evenodd;fill:none;stroke:#EC008C;stroke-width:0.9;" y2="-12.072" y1="-11.883" x1="71.386" x2="73.364"/>
  <line style="fill-rule:evenodd;clip-rule:evenodd;fill:none;stroke:#EC008C;stroke-width:0.9;" y2="-13.701" y1="-12.277" x1="66.74" x2="68.124"/>
  <line style="fill-rule:evenodd;clip-rule:evenodd;fill:none;stroke:#EC008C;stroke-width:0.9;" y2="-7.119" y1="-9.055" x1="76.358" x2="75.914"/>
  <line style="fill-rule:evenodd;clip-rule:evenodd;fill:none;stroke:#EC008C;stroke-width:0.9;" y2="-8.654" y1="-8.143" x1="71.189" x2="69.27"/>
  <line style="fill-rule:evenodd;clip-rule:evenodd;fill:none;stroke:#EC008C;stroke-width:0.9;" y2="-11.599" y1="-9.757" x1="64.85" x2="64.105"/>
  <line style="fill-rule:evenodd;clip-rule:evenodd;fill:none;stroke:#EC008C;stroke-width:0.9;" y2="-5.452" y1="-6.292" x1="66.819" x2="65.019"/>
  <line style="fill-rule:evenodd;clip-rule:evenodd;fill:none;stroke:#EC008C;stroke-width:0.9;" y2="-3.094" y1="-4.127" x1="72.489" x2="70.792"/>
  <line style="fill-rule:evenodd;clip-rule:evenodd;fill:none;stroke:#EC008C;stroke-width:0.9;" y2="-3.685" y1="-2.71" x1="78.153" x2="76.423"/>
  <line style="fill-rule:evenodd;clip-rule:evenodd;fill:none;stroke:#EC008C;stroke-width:0.9;" y2="-0.083" y1="-1.056" x1="74.137" x2="73.954"/>
  <line style="fill-rule:evenodd;clip-rule:evenodd;fill:none;stroke:#EC008C;stroke-width:0.9;" y2="-2.972" y1="-1.232" x1="66.985" x2="66.027"/>
  <line style="fill-rule:evenodd;clip-rule:evenodd;fill:none;stroke:#EC008C;stroke-width:0.9;" y2="-14.935" y1="-16.333" x1="74.024" x2="73.758"/>
  <line style="fill-rule:evenodd;clip-rule:evenodd;fill:none;stroke:#EC008C;stroke-width:0.9;" y2="-30.845" y1="-29.061" x1="14.252" x2="15.125"/>
  <line style="fill-rule:evenodd;clip-rule:evenodd;fill:none;stroke:#EC008C;stroke-width:0.9;" y2="-27.911" y1="-27.722" x1="8.03" x2="10.008"/>
  <line style="fill-rule:evenodd;clip-rule:evenodd;fill:none;stroke:#EC008C;stroke-width:0.9;" y2="-29.541" y1="-28.116" x1="3.384" x2="4.769"/>
  <line style="fill-rule:evenodd;clip-rule:evenodd;fill:none;stroke:#EC008C;stroke-width:0.9;" y2="-24.894" y1="-22.958" x1="12.558" x2="13.002"/>
  <line style="fill-rule:evenodd;clip-rule:evenodd;fill:none;stroke:#EC008C;stroke-width:0.9;" y2="-24.494" y1="-23.982" x1="7.833" x2="5.914"/>
  <line style="fill-rule:evenodd;clip-rule:evenodd;fill:none;stroke:#EC008C;stroke-width:0.9;" y2="-27.438" y1="-25.596" x1="1.494" x2="0.749"/>
  <line style="fill-rule:evenodd;clip-rule:evenodd;fill:none;stroke:#EC008C;stroke-width:0.9;" y2="-21.291" y1="-22.131" x1="3.463" x2="1.663"/>
  <line style="fill-rule:evenodd;clip-rule:evenodd;fill:none;stroke:#EC008C;stroke-width:0.9;" y2="-18.933" y1="-19.965" x1="9.133" x2="7.436"/>
  <line style="fill-rule:evenodd;clip-rule:evenodd;fill:none;stroke:#EC008C;stroke-width:0.9;" y2="-19.523" y1="-18.549" x1="14.797" x2="13.067"/>
  <line style="fill-rule:evenodd;clip-rule:evenodd;fill:none;stroke:#EC008C;stroke-width:0.9;" y2="-16.895" y1="-15.674" x1="10.55" x2="10.781"/>
  <line style="fill-rule:evenodd;clip-rule:evenodd;fill:none;stroke:#EC008C;stroke-width:0.9;" y2="-17.071" y1="-18.811" x1="2.671" x2="3.629"/>
  <line style="fill-rule:evenodd;clip-rule:evenodd;fill:none;stroke:#EC008C;stroke-width:0.9;" y2="-30.774" y1="-32.171" x1="10.668" x2="10.402"/>
  <line style="fill-rule:evenodd;clip-rule:evenodd;fill:none;stroke:#EC008C;stroke-width:0.9;" y2="-30.845" y1="-29.061" x1="30.09" x2="30.964"/>
  <line style="fill-rule:evenodd;clip-rule:evenodd;fill:none;stroke:#EC008C;stroke-width:0.9;" y2="-27.911" y1="-27.722" x1="23.869" x2="25.847"/>
  <line style="fill-rule:evenodd;clip-rule:evenodd;fill:none;stroke:#EC008C;stroke-width:0.9;" y2="-29.541" y1="-28.116" x1="19.223" x2="20.608"/>
  <line style="fill-rule:evenodd;clip-rule:evenodd;fill:none;stroke:#EC008C;stroke-width:0.9;" y2="-24.894" y1="-22.958" x1="28.397" x2="28.841"/>
  <line style="fill-rule:evenodd;clip-rule:evenodd;fill:none;stroke:#EC008C;stroke-width:0.9;" y2="-24.494" y1="-23.982" x1="23.672" x2="21.753"/>
  <line style="fill-rule:evenodd;clip-rule:evenodd;fill:none;stroke:#EC008C;stroke-width:0.9;" y2="-27.438" y1="-25.596" x1="17.333" x2="16.589"/>
  <line style="fill-rule:evenodd;clip-rule:evenodd;fill:none;stroke:#EC008C;stroke-width:0.9;" y2="-21.291" y1="-22.131" x1="19.302" x2="17.502"/>
  <line style="fill-rule:evenodd;clip-rule:evenodd;fill:none;stroke:#EC008C;stroke-width:0.9;" y2="-18.933" y1="-19.965" x1="24.972" x2="23.275"/>
  <line style="fill-rule:evenodd;clip-rule:evenodd;fill:none;stroke:#EC008C;stroke-width:0.9;" y2="-19.523" y1="-18.549" x1="30.636" x2="28.906"/>
  <line style="fill-rule:evenodd;clip-rule:evenodd;fill:none;stroke:#EC008C;stroke-width:0.9;" y2="-16.895" y1="-15.674" x1="26.39" x2="26.62"/>
  <line style="fill-rule:evenodd;clip-rule:evenodd;fill:none;stroke:#EC008C;stroke-width:0.9;" y2="-17.071" y1="-18.811" x1="18.51" x2="19.469"/>
  <line style="fill-rule:evenodd;clip-rule:evenodd;fill:none;stroke:#EC008C;stroke-width:0.9;" y2="-30.774" y1="-32.171" x1="26.507" x2="26.241"/>
  <line style="fill-rule:evenodd;clip-rule:evenodd;fill:none;stroke:#EC008C;stroke-width:0.9;" y2="-30.845" y1="-29.061" x1="45.929" x2="46.803"/>
  <line style="fill-rule:evenodd;clip-rule:evenodd;fill:none;stroke:#EC008C;stroke-width:0.9;" y2="-27.911" y1="-27.722" x1="39.708" x2="41.686"/>
  <line style="fill-rule:evenodd;clip-rule:evenodd;fill:none;stroke:#EC008C;stroke-width:0.9;" y2="-29.541" y1="-28.116" x1="35.062" x2="36.447"/>
  <line style="fill-rule:evenodd;clip-rule:evenodd;fill:none;stroke:#EC008C;stroke-width:0.9;" y2="-24.894" y1="-22.958" x1="44.236" x2="44.68"/>
  <line style="fill-rule:evenodd;clip-rule:evenodd;fill:none;stroke:#EC008C;stroke-width:0.9;" y2="-24.494" y1="-23.982" x1="39.511" x2="37.592"/>
  <line style="fill-rule:evenodd;clip-rule:evenodd;fill:none;stroke:#EC008C;stroke-width:0.9;" y2="-27.438" y1="-25.596" x1="33.172" x2="32.428"/>
  <line style="fill-rule:evenodd;clip-rule:evenodd;fill:none;stroke:#EC008C;stroke-width:0.9;" y2="-21.291" y1="-22.131" x1="35.141" x2="33.341"/>
  <line style="fill-rule:evenodd;clip-rule:evenodd;fill:none;stroke:#EC008C;stroke-width:0.9;" y2="-18.933" y1="-19.965" x1="40.811" x2="39.114"/>
  <line style="fill-rule:evenodd;clip-rule:evenodd;fill:none;stroke:#EC008C;stroke-width:0.9;" y2="-19.523" y1="-18.549" x1="46.475" x2="44.745"/>
  <line style="fill-rule:evenodd;clip-rule:evenodd;fill:none;stroke:#EC008C;stroke-width:0.9;" y2="-16.895" y1="-15.674" x1="42.229" x2="42.459"/>
  <line style="fill-rule:evenodd;clip-rule:evenodd;fill:none;stroke:#EC008C;stroke-width:0.9;" y2="-17.071" y1="-18.811" x1="34.349" x2="35.308"/>
  <line style="fill-rule:evenodd;clip-rule:evenodd;fill:none;stroke:#EC008C;stroke-width:0.9;" y2="-30.774" y1="-32.171" x1="42.346" x2="42.08"/>
  <line style="fill-rule:evenodd;clip-rule:evenodd;fill:none;stroke:#EC008C;stroke-width:0.9;" y2="-30.845" y1="-29.061" x1="61.769" x2="62.642"/>
  <line style="fill-rule:evenodd;clip-rule:evenodd;fill:none;stroke:#EC008C;stroke-width:0.9;" y2="-27.911" y1="-27.722" x1="55.547" x2="57.524"/>
  <line style="fill-rule:evenodd;clip-rule:evenodd;fill:none;stroke:#EC008C;stroke-width:0.9;" y2="-29.541" y1="-28.116" x1="50.901" x2="52.286"/>
  <line style="fill-rule:evenodd;clip-rule:evenodd;fill:none;stroke:#EC008C;stroke-width:0.9;" y2="-24.894" y1="-22.958" x1="60.075" x2="60.519"/>
  <line style="fill-rule:evenodd;clip-rule:evenodd;fill:none;stroke:#EC008C;stroke-width:0.9;" y2="-24.494" y1="-23.982" x1="55.35" x2="53.431"/>
  <line style="fill-rule:evenodd;clip-rule:evenodd;fill:none;stroke:#EC008C;stroke-width:0.9;" y2="-27.438" y1="-25.596" x1="49.011" x2="48.267"/>
  <line style="fill-rule:evenodd;clip-rule:evenodd;fill:none;stroke:#EC008C;stroke-width:0.9;" y2="-21.291" y1="-22.131" x1="50.979" x2="49.18"/>
  <line style="fill-rule:evenodd;clip-rule:evenodd;fill:none;stroke:#EC008C;stroke-width:0.9;" y2="-18.933" y1="-19.965" x1="56.65" x2="54.953"/>
  <line style="fill-rule:evenodd;clip-rule:evenodd;fill:none;stroke:#EC008C;stroke-width:0.9;" y2="-19.523" y1="-18.549" x1="62.314" x2="60.583"/>
  <line style="fill-rule:evenodd;clip-rule:evenodd;fill:none;stroke:#EC008C;stroke-width:0.9;" y2="-16.895" y1="-15.674" x1="58.067" x2="58.298"/>
  <line style="fill-rule:evenodd;clip-rule:evenodd;fill:none;stroke:#EC008C;stroke-width:0.9;" y2="-17.071" y1="-18.811" x1="50.188" x2="51.146"/>
  <line style="fill-rule:evenodd;clip-rule:evenodd;fill:none;stroke:#EC008C;stroke-width:0.9;" y2="-30.774" y1="-32.171" x1="58.186" x2="57.919"/>
  <line style="fill-rule:evenodd;clip-rule:evenodd;fill:none;stroke:#EC008C;stroke-width:0.9;" y2="-30.845" y1="-29.061" x1="77.607" x2="78.481"/>
  <line style="fill-rule:evenodd;clip-rule:evenodd;fill:none;stroke:#EC008C;stroke-width:0.9;" y2="-27.911" y1="-27.722" x1="71.386" x2="73.364"/>
  <line style="fill-rule:evenodd;clip-rule:evenodd;fill:none;stroke:#EC008C;stroke-width:0.9;" y2="-29.541" y1="-28.116" x1="66.74" x2="68.124"/>
  <line style="fill-rule:evenodd;clip-rule:evenodd;fill:none;stroke:#EC008C;stroke-width:0.9;" y2="-24.894" y1="-22.958" x1="75.914" x2="76.358"/>
  <line style="fill-rule:evenodd;clip-rule:evenodd;fill:none;stroke:#EC008C;stroke-width:0.9;" y2="-24.494" y1="-23.982" x1="71.189" x2="69.27"/>
  <line style="fill-rule:evenodd;clip-rule:evenodd;fill:none;stroke:#EC008C;stroke-width:0.9;" y2="-27.438" y1="-25.596" x1="64.85" x2="64.105"/>
  <line style="fill-rule:evenodd;clip-rule:evenodd;fill:none;stroke:#EC008C;stroke-width:0.9;" y2="-21.291" y1="-22.131" x1="66.819" x2="65.019"/>
  <line style="fill-rule:evenodd;clip-rule:evenodd;fill:none;stroke:#EC008C;stroke-width:0.9;" y2="-18.933" y1="-19.965" x1="72.489" x2="70.792"/>
  <line style="fill-rule:evenodd;clip-rule:evenodd;fill:none;stroke:#EC008C;stroke-width:0.9;" y2="-19.523" y1="-18.549" x1="78.153" x2="76.423"/>
  <line style="fill-rule:evenodd;clip-rule:evenodd;fill:none;stroke:#EC008C;stroke-width:0.9;" y2="-16.895" y1="-15.674" x1="73.906" x2="74.137"/>
  <line style="fill-rule:evenodd;clip-rule:evenodd;fill:none;stroke:#EC008C;stroke-width:0.9;" y2="-17.071" y1="-18.811" x1="66.027" x2="66.985"/>
  <line style="fill-rule:evenodd;clip-rule:evenodd;fill:none;stroke:#EC008C;stroke-width:0.9;" y2="-30.774" y1="-32.171" x1="74.024" x2="73.758"/>
  <line style="fill-rule:evenodd;clip-rule:evenodd;fill:none;stroke:#EC008C;stroke-width:0.9;" y2="-46.684" y1="-44.9" x1="14.252" x2="15.125"/>
  <line style="fill-rule:evenodd;clip-rule:evenodd;fill:none;stroke:#EC008C;stroke-width:0.9;" y2="-43.75" y1="-43.562" x1="8.03" x2="10.008"/>
  <line style="fill-rule:evenodd;clip-rule:evenodd;fill:none;stroke:#EC008C;stroke-width:0.9;" y2="-45.379" y1="-43.955" x1="3.384" x2="4.769"/>
  <line style="fill-rule:evenodd;clip-rule:evenodd;fill:none;stroke:#EC008C;stroke-width:0.9;" y2="-40.733" y1="-38.797" x1="12.558" x2="13.002"/>
  <line style="fill-rule:evenodd;clip-rule:evenodd;fill:none;stroke:#EC008C;stroke-width:0.9;" y2="-40.333" y1="-39.821" x1="7.833" x2="5.914"/>
  <line style="fill:none;stroke:#EC008C;stroke-width:0.9;" y2="-43.276" y1="-41.435" x1="1.494" x2="0.749"/>
  <line style="fill-rule:evenodd;clip-rule:evenodd;fill:none;stroke:#EC008C;stroke-width:0.9;" y2="-37.13" y1="-37.97" x1="3.463" x2="1.663"/>
  <line style="fill-rule:evenodd;clip-rule:evenodd;fill:none;stroke:#EC008C;stroke-width:0.9;" y2="-34.772" y1="-35.805" x1="9.133" x2="7.436"/>
  <line style="fill-rule:evenodd;clip-rule:evenodd;fill:none;stroke:#EC008C;stroke-width:0.9;" y2="-35.362" y1="-34.388" x1="14.797" x2="13.067"/>
  <line style="fill-rule:evenodd;clip-rule:evenodd;fill:none;stroke:#EC008C;stroke-width:0.9;" y2="-32.734" y1="-31.513" x1="10.55" x2="10.781"/>
  <line style="fill-rule:evenodd;clip-rule:evenodd;fill:none;stroke:#EC008C;stroke-width:0.9;" y2="-32.91" y1="-34.65" x1="2.671" x2="3.629"/>
  <line style="fill-rule:evenodd;clip-rule:evenodd;fill:none;stroke:#EC008C;stroke-width:0.9;" y2="-46.613" y1="-48.011" x1="10.668" x2="10.402"/>
  <line style="fill-rule:evenodd;clip-rule:evenodd;fill:none;stroke:#EC008C;stroke-width:0.9;" y2="-46.684" y1="-44.9" x1="30.09" x2="30.964"/>
  <line style="fill-rule:evenodd;clip-rule:evenodd;fill:none;stroke:#EC008C;stroke-width:0.9;" y2="-43.75" y1="-43.562" x1="23.869" x2="25.847"/>
  <line style="fill-rule:evenodd;clip-rule:evenodd;fill:none;stroke:#EC008C;stroke-width:0.9;" y2="-45.379" y1="-43.955" x1="19.223" x2="20.608"/>
  <line style="fill-rule:evenodd;clip-rule:evenodd;fill:none;stroke:#EC008C;stroke-width:0.9;" y2="-40.733" y1="-38.797" x1="28.397" x2="28.841"/>
  <line style="fill-rule:evenodd;clip-rule:evenodd;fill:none;stroke:#EC008C;stroke-width:0.9;" y2="-40.333" y1="-39.821" x1="23.672" x2="21.753"/>
  <line style="fill-rule:evenodd;clip-rule:evenodd;fill:none;stroke:#EC008C;stroke-width:0.9;" y2="-43.276" y1="-41.435" x1="17.333" x2="16.589"/>
  <line style="fill-rule:evenodd;clip-rule:evenodd;fill:none;stroke:#EC008C;stroke-width:0.9;" y2="-37.13" y1="-37.97" x1="19.302" x2="17.502"/>
  <line style="fill-rule:evenodd;clip-rule:evenodd;fill:none;stroke:#EC008C;stroke-width:0.9;" y2="-34.772" y1="-35.805" x1="24.972" x2="23.275"/>
  <line style="fill-rule:evenodd;clip-rule:evenodd;fill:none;stroke:#EC008C;stroke-width:0.9;" y2="-35.362" y1="-34.388" x1="30.636" x2="28.906"/>
  <line style="fill-rule:evenodd;clip-rule:evenodd;fill:none;stroke:#EC008C;stroke-width:0.9;" y2="-32.734" y1="-31.513" x1="26.39" x2="26.62"/>
  <line style="fill-rule:evenodd;clip-rule:evenodd;fill:none;stroke:#EC008C;stroke-width:0.9;" y2="-32.91" y1="-34.65" x1="18.51" x2="19.469"/>
  <line style="fill-rule:evenodd;clip-rule:evenodd;fill:none;stroke:#EC008C;stroke-width:0.9;" y2="-46.613" y1="-48.011" x1="26.507" x2="26.241"/>
  <line style="fill-rule:evenodd;clip-rule:evenodd;fill:none;stroke:#EC008C;stroke-width:0.9;" y2="-46.684" y1="-44.9" x1="45.929" x2="46.803"/>
  <line style="fill-rule:evenodd;clip-rule:evenodd;fill:none;stroke:#EC008C;stroke-width:0.9;" y2="-43.75" y1="-43.562" x1="39.708" x2="41.686"/>
  <line style="fill-rule:evenodd;clip-rule:evenodd;fill:none;stroke:#EC008C;stroke-width:0.9;" y2="-45.379" y1="-43.955" x1="35.062" x2="36.447"/>
  <line style="fill-rule:evenodd;clip-rule:evenodd;fill:none;stroke:#EC008C;stroke-width:0.9;" y2="-40.733" y1="-38.797" x1="44.236" x2="44.68"/>
  <line style="fill-rule:evenodd;clip-rule:evenodd;fill:none;stroke:#EC008C;stroke-width:0.9;" y2="-40.333" y1="-39.821" x1="39.511" x2="37.592"/>
  <line style="fill-rule:evenodd;clip-rule:evenodd;fill:none;stroke:#EC008C;stroke-width:0.9;" y2="-43.276" y1="-41.435" x1="33.172" x2="32.428"/>
  <line style="fill-rule:evenodd;clip-rule:evenodd;fill:none;stroke:#EC008C;stroke-width:0.9;" y2="-37.13" y1="-37.97" x1="35.141" x2="33.341"/>
  <line style="fill-rule:evenodd;clip-rule:evenodd;fill:none;stroke:#EC008C;stroke-width:0.9;" y2="-34.772" y1="-35.805" x1="40.811" x2="39.114"/>
  <line style="fill-rule:evenodd;clip-rule:evenodd;fill:none;stroke:#EC008C;stroke-width:0.9;" y2="-35.362" y1="-34.388" x1="46.475" x2="44.745"/>
  <line style="fill-rule:evenodd;clip-rule:evenodd;fill:none;stroke:#EC008C;stroke-width:0.9;" y2="-32.734" y1="-31.513" x1="42.229" x2="42.459"/>
  <line style="fill-rule:evenodd;clip-rule:evenodd;fill:none;stroke:#EC008C;stroke-width:0.9;" y2="-32.91" y1="-34.65" x1="34.349" x2="35.308"/>
  <line style="fill-rule:evenodd;clip-rule:evenodd;fill:none;stroke:#EC008C;stroke-width:0.9;" y2="-46.613" y1="-48.011" x1="42.346" x2="42.08"/>
  <line style="fill-rule:evenodd;clip-rule:evenodd;fill:none;stroke:#EC008C;stroke-width:0.9;" y2="-46.684" y1="-44.9" x1="61.769" x2="62.642"/>
  <line style="fill-rule:evenodd;clip-rule:evenodd;fill:none;stroke:#EC008C;stroke-width:0.9;" y2="-43.75" y1="-43.562" x1="55.547" x2="57.524"/>
  <line style="fill-rule:evenodd;clip-rule:evenodd;fill:none;stroke:#EC008C;stroke-width:0.9;" y2="-45.379" y1="-43.955" x1="50.901" x2="52.286"/>
  <line style="fill-rule:evenodd;clip-rule:evenodd;fill:none;stroke:#EC008C;stroke-width:0.9;" y2="-40.733" y1="-38.797" x1="60.075" x2="60.519"/>
  <line style="fill-rule:evenodd;clip-rule:evenodd;fill:none;stroke:#EC008C;stroke-width:0.9;" y2="-40.333" y1="-39.821" x1="55.35" x2="53.431"/>
  <line style="fill-rule:evenodd;clip-rule:evenodd;fill:none;stroke:#EC008C;stroke-width:0.9;" y2="-43.276" y1="-41.435" x1="49.011" x2="48.267"/>
  <line style="fill-rule:evenodd;clip-rule:evenodd;fill:none;stroke:#EC008C;stroke-width:0.9;" y2="-37.13" y1="-37.97" x1="50.979" x2="49.18"/>
  <line style="fill-rule:evenodd;clip-rule:evenodd;fill:none;stroke:#EC008C;stroke-width:0.9;" y2="-34.772" y1="-35.805" x1="56.65" x2="54.953"/>
  <line style="fill-rule:evenodd;clip-rule:evenodd;fill:none;stroke:#EC008C;stroke-width:0.9;" y2="-35.362" y1="-34.388" x1="62.314" x2="60.583"/>
  <line style="fill-rule:evenodd;clip-rule:evenodd;fill:none;stroke:#EC008C;stroke-width:0.9;" y2="-32.734" y1="-31.513" x1="58.067" x2="58.298"/>
  <line style="fill-rule:evenodd;clip-rule:evenodd;fill:none;stroke:#EC008C;stroke-width:0.9;" y2="-32.91" y1="-34.65" x1="50.188" x2="51.146"/>
  <line style="fill-rule:evenodd;clip-rule:evenodd;fill:none;stroke:#EC008C;stroke-width:0.9;" y2="-46.613" y1="-48.011" x1="58.186" x2="57.919"/>
  <line style="fill-rule:evenodd;clip-rule:evenodd;fill:none;stroke:#EC008C;stroke-width:0.9;" y2="-46.684" y1="-44.9" x1="77.607" x2="78.481"/>
  <line style="fill-rule:evenodd;clip-rule:evenodd;fill:none;stroke:#EC008C;stroke-width:0.9;" y2="-43.75" y1="-43.562" x1="71.386" x2="73.364"/>
  <line style="fill-rule:evenodd;clip-rule:evenodd;fill:none;stroke:#EC008C;stroke-width:0.9;" y2="-45.379" y1="-43.955" x1="66.74" x2="68.124"/>
  <line style="fill-rule:evenodd;clip-rule:evenodd;fill:none;stroke:#EC008C;stroke-width:0.9;" y2="-40.733" y1="-38.797" x1="75.914" x2="76.358"/>
  <line style="fill-rule:evenodd;clip-rule:evenodd;fill:none;stroke:#EC008C;stroke-width:0.9;" y2="-40.333" y1="-39.821" x1="71.189" x2="69.27"/>
  <line style="fill-rule:evenodd;clip-rule:evenodd;fill:none;stroke:#EC008C;stroke-width:0.9;" y2="-43.276" y1="-41.435" x1="64.85" x2="64.105"/>
  <line style="fill-rule:evenodd;clip-rule:evenodd;fill:none;stroke:#EC008C;stroke-width:0.9;" y2="-37.13" y1="-37.97" x1="66.819" x2="65.019"/>
  <line style="fill-rule:evenodd;clip-rule:evenodd;fill:none;stroke:#EC008C;stroke-width:0.9;" y2="-34.772" y1="-35.805" x1="72.489" x2="70.792"/>
  <line style="fill-rule:evenodd;clip-rule:evenodd;fill:none;stroke:#EC008C;stroke-width:0.9;" y2="-35.362" y1="-34.388" x1="78.153" x2="76.423"/>
  <line style="fill-rule:evenodd;clip-rule:evenodd;fill:none;stroke:#EC008C;stroke-width:0.9;" y2="-32.734" y1="-31.513" x1="73.906" x2="74.137"/>
  <line style="fill-rule:evenodd;clip-rule:evenodd;fill:none;stroke:#EC008C;stroke-width:0.9;" y2="-32.91" y1="-34.65" x1="66.027" x2="66.985"/>
  <line style="fill-rule:evenodd;clip-rule:evenodd;fill:none;stroke:#EC008C;stroke-width:0.9;" y2="-46.613" y1="-48.011" x1="74.024" x2="73.758"/>
  <line style="fill-rule:evenodd;clip-rule:evenodd;fill:none;stroke:#EC008C;stroke-width:0.9;" y2="-62.523" y1="-60.739" x1="14.252" x2="15.125"/>
  <line style="fill-rule:evenodd;clip-rule:evenodd;fill:none;stroke:#EC008C;stroke-width:0.9;" y2="-59.589" y1="-59.4" x1="8.03" x2="10.008"/>
  <line style="fill-rule:evenodd;clip-rule:evenodd;fill:none;stroke:#EC008C;stroke-width:0.9;" y2="-61.218" y1="-59.794" x1="3.384" x2="4.769"/>
  <line style="fill-rule:evenodd;clip-rule:evenodd;fill:none;stroke:#EC008C;stroke-width:0.9;" y2="-56.572" y1="-54.636" x1="12.558" x2="13.002"/>
  <line style="fill-rule:evenodd;clip-rule:evenodd;fill:none;stroke:#EC008C;stroke-width:0.9;" y2="-56.171" y1="-55.66" x1="7.833" x2="5.914"/>
  <line style="fill-rule:evenodd;clip-rule:evenodd;fill:none;stroke:#EC008C;stroke-width:0.9;" y2="-59.116" y1="-57.274" x1="1.494" x2="0.749"/>
  <line style="fill-rule:evenodd;clip-rule:evenodd;fill:none;stroke:#EC008C;stroke-width:0.9;" y2="-52.969" y1="-53.809" x1="3.463" x2="1.663"/>
  <line style="fill-rule:evenodd;clip-rule:evenodd;fill:none;stroke:#EC008C;stroke-width:0.9;" y2="-50.611" y1="-51.644" x1="9.133" x2="7.436"/>
  <line style="fill-rule:evenodd;clip-rule:evenodd;fill:none;stroke:#EC008C;stroke-width:0.9;" y2="-51.201" y1="-50.227" x1="14.797" x2="13.067"/>
  <line style="fill-rule:evenodd;clip-rule:evenodd;fill:none;stroke:#EC008C;stroke-width:0.9;" y2="-48.573" y1="-47.352" x1="10.55" x2="10.781"/>
  <line style="fill-rule:evenodd;clip-rule:evenodd;fill:none;stroke:#EC008C;stroke-width:0.9;" y2="-48.75" y1="-50.489" x1="2.671" x2="3.629"/>
  <line style="fill-rule:evenodd;clip-rule:evenodd;fill:none;stroke:#EC008C;stroke-width:0.9;" y2="-63.85" y1="-62.452" x1="10.402" x2="10.668"/>
  <line style="fill-rule:evenodd;clip-rule:evenodd;fill:none;stroke:#EC008C;stroke-width:0.9;" y2="-62.523" y1="-60.739" x1="30.09" x2="30.964"/>
  <line style="fill-rule:evenodd;clip-rule:evenodd;fill:none;stroke:#EC008C;stroke-width:0.9;" y2="-59.589" y1="-59.4" x1="23.869" x2="25.847"/>
  <line style="fill-rule:evenodd;clip-rule:evenodd;fill:none;stroke:#EC008C;stroke-width:0.9;" y2="-61.218" y1="-59.794" x1="19.223" x2="20.608"/>
  <line style="fill-rule:evenodd;clip-rule:evenodd;fill:none;stroke:#EC008C;stroke-width:0.9;" y2="-56.572" y1="-54.636" x1="28.397" x2="28.841"/>
  <line style="fill-rule:evenodd;clip-rule:evenodd;fill:none;stroke:#EC008C;stroke-width:0.9;" y2="-56.171" y1="-55.66" x1="23.672" x2="21.753"/>
  <line style="fill-rule:evenodd;clip-rule:evenodd;fill:none;stroke:#EC008C;stroke-width:0.9;" y2="-59.116" y1="-57.274" x1="17.333" x2="16.589"/>
  <line style="fill-rule:evenodd;clip-rule:evenodd;fill:none;stroke:#EC008C;stroke-width:0.9;" y2="-52.969" y1="-53.809" x1="19.302" x2="17.502"/>
  <line style="fill-rule:evenodd;clip-rule:evenodd;fill:none;stroke:#EC008C;stroke-width:0.9;" y2="-50.611" y1="-51.644" x1="24.972" x2="23.275"/>
  <line style="fill-rule:evenodd;clip-rule:evenodd;fill:none;stroke:#EC008C;stroke-width:0.9;" y2="-51.201" y1="-50.227" x1="30.636" x2="28.906"/>
  <line style="fill-rule:evenodd;clip-rule:evenodd;fill:none;stroke:#EC008C;stroke-width:0.9;" y2="-48.573" y1="-47.352" x1="26.39" x2="26.62"/>
  <line style="fill-rule:evenodd;clip-rule:evenodd;fill:none;stroke:#EC008C;stroke-width:0.9;" y2="-48.75" y1="-50.489" x1="18.51" x2="19.469"/>
  <line style="fill-rule:evenodd;clip-rule:evenodd;fill:none;stroke:#EC008C;stroke-width:0.9;" y2="-63.85" y1="-62.452" x1="26.241" x2="26.507"/>
  <line style="fill-rule:evenodd;clip-rule:evenodd;fill:none;stroke:#EC008C;stroke-width:0.9;" y2="-62.523" y1="-60.739" x1="45.929" x2="46.803"/>
  <line style="fill-rule:evenodd;clip-rule:evenodd;fill:none;stroke:#EC008C;stroke-width:0.9;" y2="-59.589" y1="-59.4" x1="39.708" x2="41.686"/>
  <line style="fill-rule:evenodd;clip-rule:evenodd;fill:none;stroke:#EC008C;stroke-width:0.9;" y2="-61.218" y1="-59.794" x1="35.062" x2="36.447"/>
  <line style="fill-rule:evenodd;clip-rule:evenodd;fill:none;stroke:#EC008C;stroke-width:0.9;" y2="-56.572" y1="-54.636" x1="44.236" x2="44.68"/>
  <line style="fill-rule:evenodd;clip-rule:evenodd;fill:none;stroke:#EC008C;stroke-width:0.9;" y2="-56.171" y1="-55.66" x1="39.511" x2="37.592"/>
  <line style="fill-rule:evenodd;clip-rule:evenodd;fill:none;stroke:#EC008C;stroke-width:0.9;" y2="-59.116" y1="-57.274" x1="33.172" x2="32.428"/>
  <line style="fill-rule:evenodd;clip-rule:evenodd;fill:none;stroke:#EC008C;stroke-width:0.9;" y2="-52.969" y1="-53.809" x1="35.141" x2="33.341"/>
  <line style="fill-rule:evenodd;clip-rule:evenodd;fill:none;stroke:#EC008C;stroke-width:0.9;" y2="-50.611" y1="-51.644" x1="40.811" x2="39.114"/>
  <line style="fill-rule:evenodd;clip-rule:evenodd;fill:none;stroke:#EC008C;stroke-width:0.9;" y2="-51.201" y1="-50.227" x1="46.475" x2="44.745"/>
  <line style="fill-rule:evenodd;clip-rule:evenodd;fill:none;stroke:#EC008C;stroke-width:0.9;" y2="-48.573" y1="-47.352" x1="42.229" x2="42.459"/>
  <line style="fill-rule:evenodd;clip-rule:evenodd;fill:none;stroke:#EC008C;stroke-width:0.9;" y2="-48.75" y1="-50.489" x1="34.349" x2="35.308"/>
  <line style="fill-rule:evenodd;clip-rule:evenodd;fill:none;stroke:#EC008C;stroke-width:0.9;" y2="-63.85" y1="-62.452" x1="42.08" x2="42.346"/>
  <line style="fill-rule:evenodd;clip-rule:evenodd;fill:none;stroke:#EC008C;stroke-width:0.9;" y2="-62.523" y1="-60.739" x1="61.769" x2="62.642"/>
  <line style="fill-rule:evenodd;clip-rule:evenodd;fill:none;stroke:#EC008C;stroke-width:0.9;" y2="-59.589" y1="-59.4" x1="55.547" x2="57.524"/>
  <line style="fill-rule:evenodd;clip-rule:evenodd;fill:none;stroke:#EC008C;stroke-width:0.9;" y2="-61.218" y1="-59.794" x1="50.901" x2="52.286"/>
  <line style="fill-rule:evenodd;clip-rule:evenodd;fill:none;stroke:#EC008C;stroke-width:0.9;" y2="-56.572" y1="-54.636" x1="60.075" x2="60.519"/>
  <line style="fill-rule:evenodd;clip-rule:evenodd;fill:none;stroke:#EC008C;stroke-width:0.9;" y2="-56.171" y1="-55.66" x1="55.35" x2="53.431"/>
  <line style="fill-rule:evenodd;clip-rule:evenodd;fill:none;stroke:#EC008C;stroke-width:0.9;" y2="-59.116" y1="-57.274" x1="49.011" x2="48.267"/>
  <line style="fill-rule:evenodd;clip-rule:evenodd;fill:none;stroke:#EC008C;stroke-width:0.9;" y2="-52.969" y1="-53.809" x1="50.979" x2="49.18"/>
  <line style="fill-rule:evenodd;clip-rule:evenodd;fill:none;stroke:#EC008C;stroke-width:0.9;" y2="-50.611" y1="-51.644" x1="56.65" x2="54.953"/>
  <line style="fill-rule:evenodd;clip-rule:evenodd;fill:none;stroke:#EC008C;stroke-width:0.9;" y2="-51.201" y1="-50.227" x1="62.314" x2="60.583"/>
  <line style="fill-rule:evenodd;clip-rule:evenodd;fill:none;stroke:#EC008C;stroke-width:0.9;" y2="-48.573" y1="-47.352" x1="58.067" x2="58.298"/>
  <line style="fill-rule:evenodd;clip-rule:evenodd;fill:none;stroke:#EC008C;stroke-width:0.9;" y2="-48.75" y1="-50.489" x1="50.188" x2="51.146"/>
  <line style="fill-rule:evenodd;clip-rule:evenodd;fill:none;stroke:#EC008C;stroke-width:0.9;" y2="-63.85" y1="-62.452" x1="57.919" x2="58.186"/>
  <line style="fill-rule:evenodd;clip-rule:evenodd;fill:none;stroke:#EC008C;stroke-width:0.9;" y2="-62.523" y1="-60.739" x1="77.607" x2="78.481"/>
  <line style="fill-rule:evenodd;clip-rule:evenodd;fill:none;stroke:#EC008C;stroke-width:0.9;" y2="-59.589" y1="-59.4" x1="71.386" x2="73.364"/>
  <line style="fill-rule:evenodd;clip-rule:evenodd;fill:none;stroke:#EC008C;stroke-width:0.9;" y2="-61.218" y1="-59.794" x1="66.74" x2="68.124"/>
  <line style="fill-rule:evenodd;clip-rule:evenodd;fill:none;stroke:#EC008C;stroke-width:0.9;" y2="-56.572" y1="-54.636" x1="75.914" x2="76.358"/>
  <line style="fill-rule:evenodd;clip-rule:evenodd;fill:none;stroke:#EC008C;stroke-width:0.9;" y2="-56.171" y1="-55.66" x1="71.189" x2="69.27"/>
  <line style="fill-rule:evenodd;clip-rule:evenodd;fill:none;stroke:#EC008C;stroke-width:0.9;" y2="-59.116" y1="-57.274" x1="64.85" x2="64.105"/>
  <line style="fill-rule:evenodd;clip-rule:evenodd;fill:none;stroke:#EC008C;stroke-width:0.9;" y2="-52.969" y1="-53.809" x1="66.819" x2="65.019"/>
  <line style="fill-rule:evenodd;clip-rule:evenodd;fill:none;stroke:#EC008C;stroke-width:0.9;" y2="-50.611" y1="-51.644" x1="72.489" x2="70.792"/>
  <line style="fill-rule:evenodd;clip-rule:evenodd;fill:none;stroke:#EC008C;stroke-width:0.9;" y2="-51.201" y1="-50.227" x1="78.153" x2="76.423"/>
  <line style="fill-rule:evenodd;clip-rule:evenodd;fill:none;stroke:#EC008C;stroke-width:0.9;" y2="-48.573" y1="-47.352" x1="73.906" x2="74.137"/>
  <line style="fill-rule:evenodd;clip-rule:evenodd;fill:none;stroke:#EC008C;stroke-width:0.9;" y2="-48.75" y1="-50.489" x1="66.027" x2="66.985"/>
  <line style="fill-rule:evenodd;clip-rule:evenodd;fill:none;stroke:#EC008C;stroke-width:0.9;" y2="-63.85" y1="-62.452" x1="73.758" x2="74.024"/>
  <line style="fill-rule:evenodd;clip-rule:evenodd;fill:none;stroke:#EC008C;stroke-width:0.9;" y2="-78.362" y1="-76.578" x1="14.252" x2="15.125"/>
  <line style="fill-rule:evenodd;clip-rule:evenodd;fill:none;stroke:#EC008C;stroke-width:0.9;" y2="-75.428" y1="-75.239" x1="8.03" x2="10.008"/>
  <line style="fill-rule:evenodd;clip-rule:evenodd;fill:none;stroke:#EC008C;stroke-width:0.9;" y2="-77.057" y1="-75.633" x1="3.384" x2="4.769"/>
  <line style="fill-rule:evenodd;clip-rule:evenodd;fill:none;stroke:#EC008C;stroke-width:0.9;" y2="-72.411" y1="-70.475" x1="12.558" x2="13.002"/>
  <line style="fill-rule:evenodd;clip-rule:evenodd;fill:none;stroke:#EC008C;stroke-width:0.9;" y2="-71.498" y1="-72.01" x1="5.914" x2="7.833"/>
  <line style="fill-rule:evenodd;clip-rule:evenodd;fill:none;stroke:#EC008C;stroke-width:0.9;" y2="-73.113" y1="-74.955" x1="0.749" x2="1.494"/>
  <line style="fill-rule:evenodd;clip-rule:evenodd;fill:none;stroke:#EC008C;stroke-width:0.9;" y2="-68.808" y1="-69.648" x1="3.463" x2="1.663"/>
  <line style="fill-rule:evenodd;clip-rule:evenodd;fill:none;stroke:#EC008C;stroke-width:0.9;" y2="-66.45" y1="-67.482" x1="9.133" x2="7.436"/>
  <line style="fill-rule:evenodd;clip-rule:evenodd;fill:none;stroke:#EC008C;stroke-width:0.9;" y2="-67.04" y1="-66.066" x1="14.797" x2="13.067"/>
  <line style="fill-rule:evenodd;clip-rule:evenodd;fill:none;stroke:#EC008C;stroke-width:0.9;" y2="-64.412" y1="-63.191" x1="10.55" x2="10.781"/>
  <line style="fill-rule:evenodd;clip-rule:evenodd;fill:none;stroke:#EC008C;stroke-width:0.9;" y2="-64.588" y1="-66.328" x1="2.671" x2="3.629"/>
  <line style="fill-rule:evenodd;clip-rule:evenodd;fill:none;stroke:#EC008C;stroke-width:0.9;" y2="-78.29" y1="-79.334" x1="10.601" x2="10.402"/>
  <line style="fill-rule:evenodd;clip-rule:evenodd;fill:none;stroke:#EC008C;stroke-width:0.9;" y2="-78.362" y1="-76.578" x1="30.09" x2="30.964"/>
  <line style="fill-rule:evenodd;clip-rule:evenodd;fill:none;stroke:#EC008C;stroke-width:0.9;" y2="-75.428" y1="-75.239" x1="23.869" x2="25.847"/>
  <line style="fill-rule:evenodd;clip-rule:evenodd;fill:none;stroke:#EC008C;stroke-width:0.9;" y2="-77.057" y1="-75.633" x1="19.223" x2="20.608"/>
  <line style="fill-rule:evenodd;clip-rule:evenodd;fill:none;stroke:#EC008C;stroke-width:0.9;" y2="-72.411" y1="-70.475" x1="28.397" x2="28.841"/>
  <line style="fill-rule:evenodd;clip-rule:evenodd;fill:none;stroke:#EC008C;stroke-width:0.9;" y2="-71.498" y1="-72.01" x1="21.753" x2="23.672"/>
  <line style="fill-rule:evenodd;clip-rule:evenodd;fill:none;stroke:#EC008C;stroke-width:0.9;" y2="-73.113" y1="-74.955" x1="16.589" x2="17.333"/>
  <line style="fill-rule:evenodd;clip-rule:evenodd;fill:none;stroke:#EC008C;stroke-width:0.9;" y2="-68.808" y1="-69.648" x1="19.302" x2="17.502"/>
  <line style="fill-rule:evenodd;clip-rule:evenodd;fill:none;stroke:#EC008C;stroke-width:0.9;" y2="-66.45" y1="-67.482" x1="24.972" x2="23.275"/>
  <line style="fill-rule:evenodd;clip-rule:evenodd;fill:none;stroke:#EC008C;stroke-width:0.9;" y2="-67.04" y1="-66.066" x1="30.636" x2="28.906"/>
  <line style="fill-rule:evenodd;clip-rule:evenodd;fill:none;stroke:#EC008C;stroke-width:0.9;" y2="-64.412" y1="-63.191" x1="26.39" x2="26.62"/>
  <line style="fill-rule:evenodd;clip-rule:evenodd;fill:none;stroke:#EC008C;stroke-width:0.9;" y2="-64.588" y1="-66.328" x1="18.51" x2="19.469"/>
  <line style="fill-rule:evenodd;clip-rule:evenodd;fill:none;stroke:#EC008C;stroke-width:0.9;" y2="-78.29" y1="-79.334" x1="26.44" x2="26.241"/>
  <line style="fill-rule:evenodd;clip-rule:evenodd;fill:none;stroke:#EC008C;stroke-width:0.9;" y2="-78.362" y1="-76.578" x1="45.929" x2="46.803"/>
  <line style="fill-rule:evenodd;clip-rule:evenodd;fill:none;stroke:#EC008C;stroke-width:0.9;" y2="-75.428" y1="-75.239" x1="39.708" x2="41.686"/>
  <line style="fill-rule:evenodd;clip-rule:evenodd;fill:none;stroke:#EC008C;stroke-width:0.9;" y2="-77.057" y1="-75.633" x1="35.062" x2="36.447"/>
  <line style="fill-rule:evenodd;clip-rule:evenodd;fill:none;stroke:#EC008C;stroke-width:0.9;" y2="-72.411" y1="-70.475" x1="44.236" x2="44.68"/>
  <line style="fill-rule:evenodd;clip-rule:evenodd;fill:none;stroke:#EC008C;stroke-width:0.9;" y2="-71.498" y1="-72.01" x1="37.592" x2="39.511"/>
  <line style="fill-rule:evenodd;clip-rule:evenodd;fill:none;stroke:#EC008C;stroke-width:0.9;" y2="-73.113" y1="-74.955" x1="32.428" x2="33.172"/>
  <line style="fill-rule:evenodd;clip-rule:evenodd;fill:none;stroke:#EC008C;stroke-width:0.9;" y2="-68.808" y1="-69.648" x1="35.141" x2="33.341"/>
  <line style="fill-rule:evenodd;clip-rule:evenodd;fill:none;stroke:#EC008C;stroke-width:0.9;" y2="-66.45" y1="-67.482" x1="40.811" x2="39.114"/>
  <line style="fill-rule:evenodd;clip-rule:evenodd;fill:none;stroke:#EC008C;stroke-width:0.9;" y2="-67.04" y1="-66.066" x1="46.475" x2="44.745"/>
  <line style="fill-rule:evenodd;clip-rule:evenodd;fill:none;stroke:#EC008C;stroke-width:0.9;" y2="-64.412" y1="-63.191" x1="42.229" x2="42.459"/>
  <line style="fill-rule:evenodd;clip-rule:evenodd;fill:none;stroke:#EC008C;stroke-width:0.9;" y2="-64.588" y1="-66.328" x1="34.349" x2="35.308"/>
  <line style="fill-rule:evenodd;clip-rule:evenodd;fill:none;stroke:#EC008C;stroke-width:0.9;" y2="-78.29" y1="-79.334" x1="42.279" x2="42.08"/>
  <line style="fill-rule:evenodd;clip-rule:evenodd;fill:none;stroke:#EC008C;stroke-width:0.9;" y2="-78.362" y1="-76.578" x1="61.769" x2="62.642"/>
  <line style="fill-rule:evenodd;clip-rule:evenodd;fill:none;stroke:#EC008C;stroke-width:0.9;" y2="-75.428" y1="-75.239" x1="55.547" x2="57.524"/>
  <line style="fill-rule:evenodd;clip-rule:evenodd;fill:none;stroke:#EC008C;stroke-width:0.9;" y2="-77.057" y1="-75.633" x1="50.901" x2="52.286"/>
  <line style="fill-rule:evenodd;clip-rule:evenodd;fill:none;stroke:#EC008C;stroke-width:0.9;" y2="-72.411" y1="-70.475" x1="60.075" x2="60.519"/>
  <line style="fill-rule:evenodd;clip-rule:evenodd;fill:none;stroke:#EC008C;stroke-width:0.9;" y2="-71.498" y1="-72.01" x1="53.431" x2="55.35"/>
  <line style="fill-rule:evenodd;clip-rule:evenodd;fill:none;stroke:#EC008C;stroke-width:0.9;" y2="-73.113" y1="-74.955" x1="48.267" x2="49.011"/>
  <line style="fill-rule:evenodd;clip-rule:evenodd;fill:none;stroke:#EC008C;stroke-width:0.9;" y2="-68.808" y1="-69.648" x1="50.979" x2="49.18"/>
  <line style="fill-rule:evenodd;clip-rule:evenodd;fill:none;stroke:#EC008C;stroke-width:0.9;" y2="-66.45" y1="-67.482" x1="56.65" x2="54.953"/>
  <line style="fill-rule:evenodd;clip-rule:evenodd;fill:none;stroke:#EC008C;stroke-width:0.9;" y2="-67.04" y1="-66.066" x1="62.314" x2="60.583"/>
  <line style="fill-rule:evenodd;clip-rule:evenodd;fill:none;stroke:#EC008C;stroke-width:0.9;" y2="-64.412" y1="-63.191" x1="58.067" x2="58.298"/>
  <line style="fill-rule:evenodd;clip-rule:evenodd;fill:none;stroke:#EC008C;stroke-width:0.9;" y2="-64.588" y1="-66.328" x1="50.188" x2="51.146"/>
  <line style="fill-rule:evenodd;clip-rule:evenodd;fill:none;stroke:#EC008C;stroke-width:0.9;" y2="-78.29" y1="-79.334" x1="58.118" x2="57.919"/>
  <line style="fill-rule:evenodd;clip-rule:evenodd;fill:none;stroke:#EC008C;stroke-width:0.9;" y2="-78.362" y1="-76.578" x1="77.607" x2="78.481"/>
  <line style="fill-rule:evenodd;clip-rule:evenodd;fill:none;stroke:#EC008C;stroke-width:0.9;" y2="-75.428" y1="-75.239" x1="71.386" x2="73.364"/>
  <line style="fill-rule:evenodd;clip-rule:evenodd;fill:none;stroke:#EC008C;stroke-width:0.9;" y2="-77.057" y1="-75.633" x1="66.74" x2="68.124"/>
  <line style="fill-rule:evenodd;clip-rule:evenodd;fill:none;stroke:#EC008C;stroke-width:0.9;" y2="-72.411" y1="-70.475" x1="75.914" x2="76.358"/>
  <line style="fill-rule:evenodd;clip-rule:evenodd;fill:none;stroke:#EC008C;stroke-width:0.9;" y2="-71.498" y1="-72.01" x1="69.27" x2="71.189"/>
  <line style="fill-rule:evenodd;clip-rule:evenodd;fill:none;stroke:#EC008C;stroke-width:0.9;" y2="-73.113" y1="-74.955" x1="64.105" x2="64.85"/>
  <line style="fill-rule:evenodd;clip-rule:evenodd;fill:none;stroke:#EC008C;stroke-width:0.9;" y2="-68.808" y1="-69.648" x1="66.819" x2="65.019"/>
  <line style="fill-rule:evenodd;clip-rule:evenodd;fill:none;stroke:#EC008C;stroke-width:0.9;" y2="-66.45" y1="-67.482" x1="72.489" x2="70.792"/>
  <line style="fill-rule:evenodd;clip-rule:evenodd;fill:none;stroke:#EC008C;stroke-width:0.9;" y2="-67.04" y1="-66.066" x1="78.153" x2="76.423"/>
  <line style="fill-rule:evenodd;clip-rule:evenodd;fill:none;stroke:#EC008C;stroke-width:0.9;" y2="-64.412" y1="-63.191" x1="73.906" x2="74.137"/>
  <line style="fill-rule:evenodd;clip-rule:evenodd;fill:none;stroke:#EC008C;stroke-width:0.9;" y2="-64.588" y1="-66.328" x1="66.027" x2="66.985"/>
  <line style="fill-rule:evenodd;clip-rule:evenodd;fill:none;stroke:#EC008C;stroke-width:0.9;" y2="-78.29" y1="-79.334" x1="73.957" x2="73.758"/>
 </g>
</svg>
