<?xml version="1.0"?>
<!-- Converted with SVG Converter - Version 0.9.6 (Compiled Thu Aug 31 10:01:05 2017) - Copyright (C) 2011 Nokia -->
<svg xmlns="http://www.w3.org/2000/svg" width="79.25" xml:space="preserve" baseProfile="tiny" y="0px" xmlns:xlink="http://www.w3.org/1999/xlink" x="0px" viewBox="0 -79.334 79.25 79.25" version="1.1" height="79.25">
 <g>
  <rect width="79.25" y="-79.334" style="fill:none;" height="79.25"/>
  <rect width="79.25" y="-79.334" height="79.25"/>
  <line x2="15.125" x1="14.252" style="fill-rule:evenodd;clip-rule:evenodd;fill:none;stroke:#FFFFFF;stroke-width:0.9;" y2="-15.006" y1="-13.222"/>
  <line x2="10.008" x1="8.03" style="fill-rule:evenodd;clip-rule:evenodd;fill:none;stroke:#FFFFFF;stroke-width:0.9;" y2="-12.072" y1="-11.883"/>
  <line x2="4.769" x1="3.384" style="fill-rule:evenodd;clip-rule:evenodd;fill:none;stroke:#FFFFFF;stroke-width:0.9;" y2="-13.701" y1="-12.277"/>
  <line x2="12.558" x1="13.002" style="fill-rule:evenodd;clip-rule:evenodd;fill:none;stroke:#FFFFFF;stroke-width:0.9;" y2="-7.119" y1="-9.055"/>
  <line x2="5.914" x1="7.833" style="fill-rule:evenodd;clip-rule:evenodd;fill:none;stroke:#FFFFFF;stroke-width:0.9;" y2="-8.654" y1="-8.143"/>
  <line x2="0.749" x1="1.494" style="fill-rule:evenodd;clip-rule:evenodd;fill:none;stroke:#FFFFFF;stroke-width:0.9;" y2="-11.599" y1="-9.757"/>
  <line x2="1.663" x1="3.463" style="fill-rule:evenodd;clip-rule:evenodd;fill:none;stroke:#FFFFFF;stroke-width:0.9;" y2="-5.452" y1="-6.292"/>
  <line x2="7.436" x1="9.133" style="fill-rule:evenodd;clip-rule:evenodd;fill:none;stroke:#FFFFFF;stroke-width:0.9;" y2="-3.094" y1="-4.127"/>
  <line x2="13.067" x1="14.797" style="fill-rule:evenodd;clip-rule:evenodd;fill:none;stroke:#FFFFFF;stroke-width:0.9;" y2="-3.685" y1="-2.71"/>
  <line x2="10.598" x1="10.781" style="fill-rule:evenodd;clip-rule:evenodd;fill:none;stroke:#FFFFFF;stroke-width:0.9;" y2="-0.083" y1="-1.056"/>
  <line x2="2.671" x1="3.629" style="fill-rule:evenodd;clip-rule:evenodd;fill:none;stroke:#FFFFFF;stroke-width:0.9;" y2="-2.972" y1="-1.232"/>
  <line x2="10.402" x1="10.668" style="fill-rule:evenodd;clip-rule:evenodd;fill:none;stroke:#FFFFFF;stroke-width:0.9;" y2="-14.935" y1="-16.333"/>
  <line x2="30.964" x1="30.09" style="fill-rule:evenodd;clip-rule:evenodd;fill:none;stroke:#FFFFFF;stroke-width:0.9;" y2="-15.006" y1="-13.222"/>
  <line x2="25.847" x1="23.869" style="fill-rule:evenodd;clip-rule:evenodd;fill:none;stroke:#FFFFFF;stroke-width:0.9;" y2="-12.072" y1="-11.883"/>
  <line x2="20.608" x1="19.223" style="fill-rule:evenodd;clip-rule:evenodd;fill:none;stroke:#FFFFFF;stroke-width:0.9;" y2="-13.701" y1="-12.277"/>
  <line x2="28.397" x1="28.841" style="fill-rule:evenodd;clip-rule:evenodd;fill:none;stroke:#FFFFFF;stroke-width:0.9;" y2="-7.119" y1="-9.055"/>
  <line x2="21.753" x1="23.672" style="fill-rule:evenodd;clip-rule:evenodd;fill:none;stroke:#FFFFFF;stroke-width:0.9;" y2="-8.654" y1="-8.143"/>
  <line x2="16.589" x1="17.333" style="fill-rule:evenodd;clip-rule:evenodd;fill:none;stroke:#FFFFFF;stroke-width:0.9;" y2="-11.599" y1="-9.757"/>
  <line x2="17.502" x1="19.302" style="fill-rule:evenodd;clip-rule:evenodd;fill:none;stroke:#FFFFFF;stroke-width:0.9;" y2="-5.452" y1="-6.292"/>
  <line x2="23.275" x1="24.972" style="fill-rule:evenodd;clip-rule:evenodd;fill:none;stroke:#FFFFFF;stroke-width:0.9;" y2="-3.094" y1="-4.127"/>
  <line x2="28.906" x1="30.636" style="fill-rule:evenodd;clip-rule:evenodd;fill:none;stroke:#FFFFFF;stroke-width:0.9;" y2="-3.685" y1="-2.71"/>
  <line x2="26.508" x1="26.691" style="fill-rule:evenodd;clip-rule:evenodd;fill:none;stroke:#FFFFFF;stroke-width:0.9;" y2="-0.083" y1="-1.056"/>
  <line x2="18.51" x1="19.469" style="fill-rule:evenodd;clip-rule:evenodd;fill:none;stroke:#FFFFFF;stroke-width:0.9;" y2="-2.972" y1="-1.232"/>
  <line x2="26.241" x1="26.507" style="fill-rule:evenodd;clip-rule:evenodd;fill:none;stroke:#FFFFFF;stroke-width:0.9;" y2="-14.935" y1="-16.333"/>
  <line x2="46.803" x1="45.929" style="fill-rule:evenodd;clip-rule:evenodd;fill:none;stroke:#FFFFFF;stroke-width:0.9;" y2="-15.006" y1="-13.222"/>
  <line x2="41.686" x1="39.708" style="fill-rule:evenodd;clip-rule:evenodd;fill:none;stroke:#FFFFFF;stroke-width:0.9;" y2="-12.072" y1="-11.883"/>
  <line x2="36.447" x1="35.062" style="fill-rule:evenodd;clip-rule:evenodd;fill:none;stroke:#FFFFFF;stroke-width:0.9;" y2="-13.701" y1="-12.277"/>
  <line x2="44.236" x1="44.68" style="fill-rule:evenodd;clip-rule:evenodd;fill:none;stroke:#FFFFFF;stroke-width:0.9;" y2="-7.119" y1="-9.055"/>
  <line x2="37.592" x1="39.511" style="fill-rule:evenodd;clip-rule:evenodd;fill:none;stroke:#FFFFFF;stroke-width:0.9;" y2="-8.654" y1="-8.143"/>
  <line x2="32.428" x1="33.172" style="fill-rule:evenodd;clip-rule:evenodd;fill:none;stroke:#FFFFFF;stroke-width:0.9;" y2="-11.599" y1="-9.757"/>
  <line x2="33.341" x1="35.141" style="fill-rule:evenodd;clip-rule:evenodd;fill:none;stroke:#FFFFFF;stroke-width:0.9;" y2="-5.452" y1="-6.292"/>
  <line x2="39.114" x1="40.811" style="fill-rule:evenodd;clip-rule:evenodd;fill:none;stroke:#FFFFFF;stroke-width:0.9;" y2="-3.094" y1="-4.127"/>
  <line x2="44.745" x1="46.475" style="fill-rule:evenodd;clip-rule:evenodd;fill:none;stroke:#FFFFFF;stroke-width:0.9;" y2="-3.685" y1="-2.71"/>
  <line x2="42.275" x1="42.459" style="fill-rule:evenodd;clip-rule:evenodd;fill:none;stroke:#FFFFFF;stroke-width:0.9;" y2="-0.083" y1="-1.056"/>
  <line x2="34.349" x1="35.308" style="fill-rule:evenodd;clip-rule:evenodd;fill:none;stroke:#FFFFFF;stroke-width:0.9;" y2="-2.972" y1="-1.232"/>
  <line x2="42.08" x1="42.346" style="fill-rule:evenodd;clip-rule:evenodd;fill:none;stroke:#FFFFFF;stroke-width:0.9;" y2="-14.935" y1="-16.333"/>
  <line x2="62.642" x1="61.769" style="fill-rule:evenodd;clip-rule:evenodd;fill:none;stroke:#FFFFFF;stroke-width:0.9;" y2="-15.006" y1="-13.222"/>
  <line x2="57.524" x1="55.547" style="fill-rule:evenodd;clip-rule:evenodd;fill:none;stroke:#FFFFFF;stroke-width:0.9;" y2="-12.072" y1="-11.883"/>
  <line x2="52.286" x1="50.901" style="fill-rule:evenodd;clip-rule:evenodd;fill:none;stroke:#FFFFFF;stroke-width:0.9;" y2="-13.701" y1="-12.277"/>
  <line x2="60.075" x1="60.519" style="fill-rule:evenodd;clip-rule:evenodd;fill:none;stroke:#FFFFFF;stroke-width:0.9;" y2="-7.119" y1="-9.055"/>
  <line x2="53.431" x1="55.35" style="fill-rule:evenodd;clip-rule:evenodd;fill:none;stroke:#FFFFFF;stroke-width:0.9;" y2="-8.654" y1="-8.143"/>
  <line x2="48.267" x1="49.011" style="fill-rule:evenodd;clip-rule:evenodd;fill:none;stroke:#FFFFFF;stroke-width:0.9;" y2="-11.599" y1="-9.757"/>
  <line x2="49.18" x1="50.979" style="fill-rule:evenodd;clip-rule:evenodd;fill:none;stroke:#FFFFFF;stroke-width:0.9;" y2="-5.452" y1="-6.292"/>
  <line x2="54.953" x1="56.65" style="fill-rule:evenodd;clip-rule:evenodd;fill:none;stroke:#FFFFFF;stroke-width:0.9;" y2="-3.094" y1="-4.127"/>
  <line x2="60.583" x1="62.314" style="fill-rule:evenodd;clip-rule:evenodd;fill:none;stroke:#FFFFFF;stroke-width:0.9;" y2="-3.685" y1="-2.71"/>
  <line x2="58.114" x1="58.298" style="fill-rule:evenodd;clip-rule:evenodd;fill:none;stroke:#FFFFFF;stroke-width:0.9;" y2="-0.083" y1="-1.056"/>
  <line x2="50.188" x1="51.146" style="fill-rule:evenodd;clip-rule:evenodd;fill:none;stroke:#FFFFFF;stroke-width:0.9;" y2="-2.972" y1="-1.232"/>
  <line x2="57.919" x1="58.186" style="fill-rule:evenodd;clip-rule:evenodd;fill:none;stroke:#FFFFFF;stroke-width:0.9;" y2="-14.935" y1="-16.333"/>
  <line x2="78.481" x1="77.607" style="fill-rule:evenodd;clip-rule:evenodd;fill:none;stroke:#FFFFFF;stroke-width:0.9;" y2="-15.006" y1="-13.222"/>
  <line x2="73.364" x1="71.386" style="fill-rule:evenodd;clip-rule:evenodd;fill:none;stroke:#FFFFFF;stroke-width:0.9;" y2="-12.072" y1="-11.883"/>
  <line x2="68.124" x1="66.74" style="fill-rule:evenodd;clip-rule:evenodd;fill:none;stroke:#FFFFFF;stroke-width:0.9;" y2="-13.701" y1="-12.277"/>
  <line x2="75.914" x1="76.358" style="fill-rule:evenodd;clip-rule:evenodd;fill:none;stroke:#FFFFFF;stroke-width:0.9;" y2="-7.119" y1="-9.055"/>
  <line x2="69.27" x1="71.189" style="fill-rule:evenodd;clip-rule:evenodd;fill:none;stroke:#FFFFFF;stroke-width:0.9;" y2="-8.654" y1="-8.143"/>
  <line x2="64.105" x1="64.85" style="fill-rule:evenodd;clip-rule:evenodd;fill:none;stroke:#FFFFFF;stroke-width:0.9;" y2="-11.599" y1="-9.757"/>
  <line x2="65.019" x1="66.819" style="fill-rule:evenodd;clip-rule:evenodd;fill:none;stroke:#FFFFFF;stroke-width:0.9;" y2="-5.452" y1="-6.292"/>
  <line x2="70.792" x1="72.489" style="fill-rule:evenodd;clip-rule:evenodd;fill:none;stroke:#FFFFFF;stroke-width:0.9;" y2="-3.094" y1="-4.127"/>
  <line x2="76.423" x1="78.153" style="fill-rule:evenodd;clip-rule:evenodd;fill:none;stroke:#FFFFFF;stroke-width:0.9;" y2="-3.685" y1="-2.71"/>
  <line x2="73.954" x1="74.137" style="fill-rule:evenodd;clip-rule:evenodd;fill:none;stroke:#FFFFFF;stroke-width:0.9;" y2="-0.083" y1="-1.056"/>
  <line x2="66.027" x1="66.985" style="fill-rule:evenodd;clip-rule:evenodd;fill:none;stroke:#FFFFFF;stroke-width:0.9;" y2="-2.972" y1="-1.232"/>
  <line x2="73.758" x1="74.024" style="fill-rule:evenodd;clip-rule:evenodd;fill:none;stroke:#FFFFFF;stroke-width:0.9;" y2="-14.935" y1="-16.333"/>
  <line x2="15.125" x1="14.252" style="fill-rule:evenodd;clip-rule:evenodd;fill:none;stroke:#FFFFFF;stroke-width:0.9;" y2="-30.845" y1="-29.061"/>
  <line x2="10.008" x1="8.03" style="fill-rule:evenodd;clip-rule:evenodd;fill:none;stroke:#FFFFFF;stroke-width:0.9;" y2="-27.911" y1="-27.722"/>
  <line x2="4.769" x1="3.384" style="fill-rule:evenodd;clip-rule:evenodd;fill:none;stroke:#FFFFFF;stroke-width:0.9;" y2="-29.541" y1="-28.116"/>
  <line x2="13.002" x1="12.558" style="fill-rule:evenodd;clip-rule:evenodd;fill:none;stroke:#FFFFFF;stroke-width:0.9;" y2="-24.894" y1="-22.958"/>
  <line x2="5.914" x1="7.833" style="fill-rule:evenodd;clip-rule:evenodd;fill:none;stroke:#FFFFFF;stroke-width:0.9;" y2="-24.494" y1="-23.982"/>
  <line x2="0.749" x1="1.494" style="fill-rule:evenodd;clip-rule:evenodd;fill:none;stroke:#FFFFFF;stroke-width:0.9;" y2="-27.438" y1="-25.596"/>
  <line x2="1.663" x1="3.463" style="fill-rule:evenodd;clip-rule:evenodd;fill:none;stroke:#FFFFFF;stroke-width:0.9;" y2="-21.291" y1="-22.131"/>
  <line x2="7.436" x1="9.133" style="fill-rule:evenodd;clip-rule:evenodd;fill:none;stroke:#FFFFFF;stroke-width:0.9;" y2="-18.933" y1="-19.965"/>
  <line x2="13.067" x1="14.797" style="fill-rule:evenodd;clip-rule:evenodd;fill:none;stroke:#FFFFFF;stroke-width:0.9;" y2="-19.523" y1="-18.549"/>
  <line x2="10.781" x1="10.55" style="fill-rule:evenodd;clip-rule:evenodd;fill:none;stroke:#FFFFFF;stroke-width:0.9;" y2="-16.895" y1="-15.674"/>
  <line x2="3.629" x1="2.671" style="fill-rule:evenodd;clip-rule:evenodd;fill:none;stroke:#FFFFFF;stroke-width:0.9;" y2="-17.071" y1="-18.811"/>
  <line x2="10.402" x1="10.668" style="fill-rule:evenodd;clip-rule:evenodd;fill:none;stroke:#FFFFFF;stroke-width:0.9;" y2="-30.774" y1="-32.171"/>
  <line x2="30.964" x1="30.09" style="fill-rule:evenodd;clip-rule:evenodd;fill:none;stroke:#FFFFFF;stroke-width:0.9;" y2="-30.845" y1="-29.061"/>
  <line x2="25.847" x1="23.869" style="fill-rule:evenodd;clip-rule:evenodd;fill:none;stroke:#FFFFFF;stroke-width:0.9;" y2="-27.911" y1="-27.722"/>
  <line x2="20.608" x1="19.223" style="fill-rule:evenodd;clip-rule:evenodd;fill:none;stroke:#FFFFFF;stroke-width:0.9;" y2="-29.541" y1="-28.116"/>
  <line x2="28.841" x1="28.397" style="fill-rule:evenodd;clip-rule:evenodd;fill:none;stroke:#FFFFFF;stroke-width:0.9;" y2="-24.894" y1="-22.958"/>
  <line x2="21.753" x1="23.672" style="fill-rule:evenodd;clip-rule:evenodd;fill:none;stroke:#FFFFFF;stroke-width:0.9;" y2="-24.494" y1="-23.982"/>
  <line x2="16.589" x1="17.333" style="fill-rule:evenodd;clip-rule:evenodd;fill:none;stroke:#FFFFFF;stroke-width:0.9;" y2="-27.438" y1="-25.596"/>
  <line x2="17.502" x1="19.302" style="fill-rule:evenodd;clip-rule:evenodd;fill:none;stroke:#FFFFFF;stroke-width:0.9;" y2="-21.291" y1="-22.131"/>
  <line x2="23.275" x1="24.972" style="fill-rule:evenodd;clip-rule:evenodd;fill:none;stroke:#FFFFFF;stroke-width:0.9;" y2="-18.933" y1="-19.965"/>
  <line x2="28.906" x1="30.636" style="fill-rule:evenodd;clip-rule:evenodd;fill:none;stroke:#FFFFFF;stroke-width:0.9;" y2="-19.523" y1="-18.549"/>
  <line x2="26.62" x1="26.39" style="fill-rule:evenodd;clip-rule:evenodd;fill:none;stroke:#FFFFFF;stroke-width:0.9;" y2="-16.895" y1="-15.674"/>
  <line x2="19.469" x1="18.51" style="fill-rule:evenodd;clip-rule:evenodd;fill:none;stroke:#FFFFFF;stroke-width:0.9;" y2="-17.071" y1="-18.811"/>
  <line x2="26.241" x1="26.507" style="fill-rule:evenodd;clip-rule:evenodd;fill:none;stroke:#FFFFFF;stroke-width:0.9;" y2="-30.774" y1="-32.171"/>
  <line x2="46.803" x1="45.929" style="fill-rule:evenodd;clip-rule:evenodd;fill:none;stroke:#FFFFFF;stroke-width:0.9;" y2="-30.845" y1="-29.061"/>
  <line x2="41.686" x1="39.708" style="fill-rule:evenodd;clip-rule:evenodd;fill:none;stroke:#FFFFFF;stroke-width:0.9;" y2="-27.911" y1="-27.722"/>
  <line x2="36.447" x1="35.062" style="fill-rule:evenodd;clip-rule:evenodd;fill:none;stroke:#FFFFFF;stroke-width:0.9;" y2="-29.541" y1="-28.116"/>
  <line x2="44.68" x1="44.236" style="fill-rule:evenodd;clip-rule:evenodd;fill:none;stroke:#FFFFFF;stroke-width:0.9;" y2="-24.894" y1="-22.958"/>
  <line x2="37.592" x1="39.511" style="fill-rule:evenodd;clip-rule:evenodd;fill:none;stroke:#FFFFFF;stroke-width:0.9;" y2="-24.494" y1="-23.982"/>
  <line x2="32.428" x1="33.172" style="fill-rule:evenodd;clip-rule:evenodd;fill:none;stroke:#FFFFFF;stroke-width:0.9;" y2="-27.438" y1="-25.596"/>
  <line x2="33.341" x1="35.141" style="fill-rule:evenodd;clip-rule:evenodd;fill:none;stroke:#FFFFFF;stroke-width:0.9;" y2="-21.291" y1="-22.131"/>
  <line x2="39.114" x1="40.811" style="fill-rule:evenodd;clip-rule:evenodd;fill:none;stroke:#FFFFFF;stroke-width:0.9;" y2="-18.933" y1="-19.965"/>
  <line x2="44.745" x1="46.475" style="fill-rule:evenodd;clip-rule:evenodd;fill:none;stroke:#FFFFFF;stroke-width:0.9;" y2="-19.523" y1="-18.549"/>
  <line x2="42.459" x1="42.229" style="fill-rule:evenodd;clip-rule:evenodd;fill:none;stroke:#FFFFFF;stroke-width:0.9;" y2="-16.895" y1="-15.674"/>
  <line x2="35.308" x1="34.349" style="fill-rule:evenodd;clip-rule:evenodd;fill:none;stroke:#FFFFFF;stroke-width:0.9;" y2="-17.071" y1="-18.811"/>
  <line x2="42.08" x1="42.346" style="fill-rule:evenodd;clip-rule:evenodd;fill:none;stroke:#FFFFFF;stroke-width:0.9;" y2="-30.774" y1="-32.171"/>
  <line x2="62.642" x1="61.769" style="fill-rule:evenodd;clip-rule:evenodd;fill:none;stroke:#FFFFFF;stroke-width:0.9;" y2="-30.845" y1="-29.061"/>
  <line x2="57.524" x1="55.547" style="fill-rule:evenodd;clip-rule:evenodd;fill:none;stroke:#FFFFFF;stroke-width:0.9;" y2="-27.911" y1="-27.722"/>
  <line x2="52.286" x1="50.901" style="fill-rule:evenodd;clip-rule:evenodd;fill:none;stroke:#FFFFFF;stroke-width:0.9;" y2="-29.541" y1="-28.116"/>
  <line x2="60.519" x1="60.075" style="fill-rule:evenodd;clip-rule:evenodd;fill:none;stroke:#FFFFFF;stroke-width:0.9;" y2="-24.894" y1="-22.958"/>
  <line x2="53.431" x1="55.35" style="fill-rule:evenodd;clip-rule:evenodd;fill:none;stroke:#FFFFFF;stroke-width:0.9;" y2="-24.494" y1="-23.982"/>
  <line x2="48.267" x1="49.011" style="fill-rule:evenodd;clip-rule:evenodd;fill:none;stroke:#FFFFFF;stroke-width:0.9;" y2="-27.438" y1="-25.596"/>
  <line x2="49.18" x1="50.979" style="fill-rule:evenodd;clip-rule:evenodd;fill:none;stroke:#FFFFFF;stroke-width:0.9;" y2="-21.291" y1="-22.131"/>
  <line x2="54.953" x1="56.65" style="fill-rule:evenodd;clip-rule:evenodd;fill:none;stroke:#FFFFFF;stroke-width:0.9;" y2="-18.933" y1="-19.965"/>
  <line x2="60.583" x1="62.314" style="fill-rule:evenodd;clip-rule:evenodd;fill:none;stroke:#FFFFFF;stroke-width:0.9;" y2="-19.523" y1="-18.549"/>
  <line x2="58.298" x1="58.067" style="fill-rule:evenodd;clip-rule:evenodd;fill:none;stroke:#FFFFFF;stroke-width:0.9;" y2="-16.895" y1="-15.674"/>
  <line x2="51.146" x1="50.188" style="fill-rule:evenodd;clip-rule:evenodd;fill:none;stroke:#FFFFFF;stroke-width:0.9;" y2="-17.071" y1="-18.811"/>
  <line x2="57.919" x1="58.186" style="fill-rule:evenodd;clip-rule:evenodd;fill:none;stroke:#FFFFFF;stroke-width:0.9;" y2="-30.774" y1="-32.171"/>
  <line x2="78.481" x1="77.607" style="fill-rule:evenodd;clip-rule:evenodd;fill:none;stroke:#FFFFFF;stroke-width:0.9;" y2="-30.845" y1="-29.061"/>
  <line x2="73.364" x1="71.386" style="fill-rule:evenodd;clip-rule:evenodd;fill:none;stroke:#FFFFFF;stroke-width:0.9;" y2="-27.911" y1="-27.722"/>
  <line x2="68.124" x1="66.74" style="fill-rule:evenodd;clip-rule:evenodd;fill:none;stroke:#FFFFFF;stroke-width:0.9;" y2="-29.541" y1="-28.116"/>
  <line x2="76.358" x1="75.914" style="fill-rule:evenodd;clip-rule:evenodd;fill:none;stroke:#FFFFFF;stroke-width:0.9;" y2="-24.894" y1="-22.958"/>
  <line x2="69.27" x1="71.189" style="fill-rule:evenodd;clip-rule:evenodd;fill:none;stroke:#FFFFFF;stroke-width:0.9;" y2="-24.494" y1="-23.982"/>
  <line x2="64.105" x1="64.85" style="fill-rule:evenodd;clip-rule:evenodd;fill:none;stroke:#FFFFFF;stroke-width:0.9;" y2="-27.438" y1="-25.596"/>
  <line x2="65.019" x1="66.819" style="fill-rule:evenodd;clip-rule:evenodd;fill:none;stroke:#FFFFFF;stroke-width:0.9;" y2="-21.291" y1="-22.131"/>
  <line x2="70.792" x1="72.489" style="fill-rule:evenodd;clip-rule:evenodd;fill:none;stroke:#FFFFFF;stroke-width:0.9;" y2="-18.933" y1="-19.965"/>
  <line x2="76.423" x1="78.153" style="fill-rule:evenodd;clip-rule:evenodd;fill:none;stroke:#FFFFFF;stroke-width:0.9;" y2="-19.523" y1="-18.549"/>
  <line x2="74.137" x1="73.906" style="fill-rule:evenodd;clip-rule:evenodd;fill:none;stroke:#FFFFFF;stroke-width:0.9;" y2="-16.895" y1="-15.674"/>
  <line x2="66.985" x1="66.027" style="fill-rule:evenodd;clip-rule:evenodd;fill:none;stroke:#FFFFFF;stroke-width:0.9;" y2="-17.071" y1="-18.811"/>
  <line x2="73.758" x1="74.024" style="fill-rule:evenodd;clip-rule:evenodd;fill:none;stroke:#FFFFFF;stroke-width:0.9;" y2="-30.774" y1="-32.171"/>
  <line x2="15.125" x1="14.252" style="fill-rule:evenodd;clip-rule:evenodd;fill:none;stroke:#FFFFFF;stroke-width:0.9;" y2="-46.684" y1="-44.9"/>
  <line x2="10.008" x1="8.03" style="fill-rule:evenodd;clip-rule:evenodd;fill:none;stroke:#FFFFFF;stroke-width:0.9;" y2="-43.75" y1="-43.562"/>
  <line x2="4.769" x1="3.384" style="fill-rule:evenodd;clip-rule:evenodd;fill:none;stroke:#FFFFFF;stroke-width:0.9;" y2="-45.379" y1="-43.955"/>
  <line x2="13.002" x1="12.558" style="fill-rule:evenodd;clip-rule:evenodd;fill:none;stroke:#FFFFFF;stroke-width:0.9;" y2="-40.733" y1="-38.797"/>
  <line x2="5.914" x1="7.833" style="fill-rule:evenodd;clip-rule:evenodd;fill:none;stroke:#FFFFFF;stroke-width:0.9;" y2="-40.333" y1="-39.821"/>
  <line x2="0.749" x1="1.494" style="fill:none;stroke:#FFFFFF;stroke-width:0.9;" y2="-43.276" y1="-41.435"/>
  <line x2="1.663" x1="3.463" style="fill-rule:evenodd;clip-rule:evenodd;fill:none;stroke:#FFFFFF;stroke-width:0.9;" y2="-37.13" y1="-37.97"/>
  <line x2="7.436" x1="9.133" style="fill-rule:evenodd;clip-rule:evenodd;fill:none;stroke:#FFFFFF;stroke-width:0.9;" y2="-34.772" y1="-35.805"/>
  <line x2="13.067" x1="14.797" style="fill-rule:evenodd;clip-rule:evenodd;fill:none;stroke:#FFFFFF;stroke-width:0.9;" y2="-35.362" y1="-34.388"/>
  <line x2="10.781" x1="10.55" style="fill-rule:evenodd;clip-rule:evenodd;fill:none;stroke:#FFFFFF;stroke-width:0.9;" y2="-32.734" y1="-31.513"/>
  <line x2="3.629" x1="2.671" style="fill-rule:evenodd;clip-rule:evenodd;fill:none;stroke:#FFFFFF;stroke-width:0.9;" y2="-32.91" y1="-34.65"/>
  <line x2="10.402" x1="10.668" style="fill-rule:evenodd;clip-rule:evenodd;fill:none;stroke:#FFFFFF;stroke-width:0.9;" y2="-46.613" y1="-48.011"/>
  <line x2="30.964" x1="30.09" style="fill-rule:evenodd;clip-rule:evenodd;fill:none;stroke:#FFFFFF;stroke-width:0.9;" y2="-46.684" y1="-44.9"/>
  <line x2="25.847" x1="23.869" style="fill-rule:evenodd;clip-rule:evenodd;fill:none;stroke:#FFFFFF;stroke-width:0.9;" y2="-43.75" y1="-43.562"/>
  <line x2="20.608" x1="19.223" style="fill-rule:evenodd;clip-rule:evenodd;fill:none;stroke:#FFFFFF;stroke-width:0.9;" y2="-45.379" y1="-43.955"/>
  <line x2="28.841" x1="28.397" style="fill-rule:evenodd;clip-rule:evenodd;fill:none;stroke:#FFFFFF;stroke-width:0.9;" y2="-40.733" y1="-38.797"/>
  <line x2="21.753" x1="23.672" style="fill-rule:evenodd;clip-rule:evenodd;fill:none;stroke:#FFFFFF;stroke-width:0.9;" y2="-40.333" y1="-39.821"/>
  <line x2="16.589" x1="17.333" style="fill-rule:evenodd;clip-rule:evenodd;fill:none;stroke:#FFFFFF;stroke-width:0.9;" y2="-43.276" y1="-41.435"/>
  <line x2="17.502" x1="19.302" style="fill-rule:evenodd;clip-rule:evenodd;fill:none;stroke:#FFFFFF;stroke-width:0.9;" y2="-37.13" y1="-37.97"/>
  <line x2="23.275" x1="24.972" style="fill-rule:evenodd;clip-rule:evenodd;fill:none;stroke:#FFFFFF;stroke-width:0.9;" y2="-34.772" y1="-35.805"/>
  <line x2="28.906" x1="30.636" style="fill-rule:evenodd;clip-rule:evenodd;fill:none;stroke:#FFFFFF;stroke-width:0.9;" y2="-35.362" y1="-34.388"/>
  <line x2="26.62" x1="26.39" style="fill-rule:evenodd;clip-rule:evenodd;fill:none;stroke:#FFFFFF;stroke-width:0.9;" y2="-32.734" y1="-31.513"/>
  <line x2="19.469" x1="18.51" style="fill-rule:evenodd;clip-rule:evenodd;fill:none;stroke:#FFFFFF;stroke-width:0.9;" y2="-32.91" y1="-34.65"/>
  <line x2="26.241" x1="26.507" style="fill-rule:evenodd;clip-rule:evenodd;fill:none;stroke:#FFFFFF;stroke-width:0.9;" y2="-46.613" y1="-48.011"/>
  <line x2="46.803" x1="45.929" style="fill-rule:evenodd;clip-rule:evenodd;fill:none;stroke:#FFFFFF;stroke-width:0.9;" y2="-46.684" y1="-44.9"/>
  <line x2="41.686" x1="39.708" style="fill-rule:evenodd;clip-rule:evenodd;fill:none;stroke:#FFFFFF;stroke-width:0.9;" y2="-43.75" y1="-43.562"/>
  <line x2="36.447" x1="35.062" style="fill-rule:evenodd;clip-rule:evenodd;fill:none;stroke:#FFFFFF;stroke-width:0.9;" y2="-45.379" y1="-43.955"/>
  <line x2="44.68" x1="44.236" style="fill-rule:evenodd;clip-rule:evenodd;fill:none;stroke:#FFFFFF;stroke-width:0.9;" y2="-40.733" y1="-38.797"/>
  <line x2="37.592" x1="39.511" style="fill-rule:evenodd;clip-rule:evenodd;fill:none;stroke:#FFFFFF;stroke-width:0.9;" y2="-40.333" y1="-39.821"/>
  <line x2="32.428" x1="33.172" style="fill-rule:evenodd;clip-rule:evenodd;fill:none;stroke:#FFFFFF;stroke-width:0.9;" y2="-43.276" y1="-41.435"/>
  <line x2="33.341" x1="35.141" style="fill-rule:evenodd;clip-rule:evenodd;fill:none;stroke:#FFFFFF;stroke-width:0.9;" y2="-37.13" y1="-37.97"/>
  <line x2="39.114" x1="40.811" style="fill-rule:evenodd;clip-rule:evenodd;fill:none;stroke:#FFFFFF;stroke-width:0.9;" y2="-34.772" y1="-35.805"/>
  <line x2="44.745" x1="46.475" style="fill-rule:evenodd;clip-rule:evenodd;fill:none;stroke:#FFFFFF;stroke-width:0.9;" y2="-35.362" y1="-34.388"/>
  <line x2="42.459" x1="42.229" style="fill-rule:evenodd;clip-rule:evenodd;fill:none;stroke:#FFFFFF;stroke-width:0.9;" y2="-32.734" y1="-31.513"/>
  <line x2="35.308" x1="34.349" style="fill-rule:evenodd;clip-rule:evenodd;fill:none;stroke:#FFFFFF;stroke-width:0.9;" y2="-32.91" y1="-34.65"/>
  <line x2="42.08" x1="42.346" style="fill-rule:evenodd;clip-rule:evenodd;fill:none;stroke:#FFFFFF;stroke-width:0.9;" y2="-46.613" y1="-48.011"/>
  <line x2="62.642" x1="61.769" style="fill-rule:evenodd;clip-rule:evenodd;fill:none;stroke:#FFFFFF;stroke-width:0.9;" y2="-46.684" y1="-44.9"/>
  <line x2="57.524" x1="55.547" style="fill-rule:evenodd;clip-rule:evenodd;fill:none;stroke:#FFFFFF;stroke-width:0.9;" y2="-43.75" y1="-43.562"/>
  <line x2="52.286" x1="50.901" style="fill-rule:evenodd;clip-rule:evenodd;fill:none;stroke:#FFFFFF;stroke-width:0.9;" y2="-45.379" y1="-43.955"/>
  <line x2="60.519" x1="60.075" style="fill-rule:evenodd;clip-rule:evenodd;fill:none;stroke:#FFFFFF;stroke-width:0.9;" y2="-40.733" y1="-38.797"/>
  <line x2="53.431" x1="55.35" style="fill-rule:evenodd;clip-rule:evenodd;fill:none;stroke:#FFFFFF;stroke-width:0.9;" y2="-40.333" y1="-39.821"/>
  <line x2="48.267" x1="49.011" style="fill-rule:evenodd;clip-rule:evenodd;fill:none;stroke:#FFFFFF;stroke-width:0.9;" y2="-43.276" y1="-41.435"/>
  <line x2="49.18" x1="50.979" style="fill-rule:evenodd;clip-rule:evenodd;fill:none;stroke:#FFFFFF;stroke-width:0.9;" y2="-37.13" y1="-37.97"/>
  <line x2="54.953" x1="56.65" style="fill-rule:evenodd;clip-rule:evenodd;fill:none;stroke:#FFFFFF;stroke-width:0.9;" y2="-34.772" y1="-35.805"/>
  <line x2="60.583" x1="62.314" style="fill-rule:evenodd;clip-rule:evenodd;fill:none;stroke:#FFFFFF;stroke-width:0.9;" y2="-35.362" y1="-34.388"/>
  <line x2="58.298" x1="58.067" style="fill-rule:evenodd;clip-rule:evenodd;fill:none;stroke:#FFFFFF;stroke-width:0.9;" y2="-32.734" y1="-31.513"/>
  <line x2="51.146" x1="50.188" style="fill-rule:evenodd;clip-rule:evenodd;fill:none;stroke:#FFFFFF;stroke-width:0.9;" y2="-32.91" y1="-34.65"/>
  <line x2="57.919" x1="58.186" style="fill-rule:evenodd;clip-rule:evenodd;fill:none;stroke:#FFFFFF;stroke-width:0.9;" y2="-46.613" y1="-48.011"/>
  <line x2="78.481" x1="77.607" style="fill-rule:evenodd;clip-rule:evenodd;fill:none;stroke:#FFFFFF;stroke-width:0.9;" y2="-46.684" y1="-44.9"/>
  <line x2="73.364" x1="71.386" style="fill-rule:evenodd;clip-rule:evenodd;fill:none;stroke:#FFFFFF;stroke-width:0.9;" y2="-43.75" y1="-43.562"/>
  <line x2="68.124" x1="66.74" style="fill-rule:evenodd;clip-rule:evenodd;fill:none;stroke:#FFFFFF;stroke-width:0.9;" y2="-45.379" y1="-43.955"/>
  <line x2="76.358" x1="75.914" style="fill-rule:evenodd;clip-rule:evenodd;fill:none;stroke:#FFFFFF;stroke-width:0.9;" y2="-40.733" y1="-38.797"/>
  <line x2="69.27" x1="71.189" style="fill-rule:evenodd;clip-rule:evenodd;fill:none;stroke:#FFFFFF;stroke-width:0.9;" y2="-40.333" y1="-39.821"/>
  <line x2="64.105" x1="64.85" style="fill-rule:evenodd;clip-rule:evenodd;fill:none;stroke:#FFFFFF;stroke-width:0.9;" y2="-43.276" y1="-41.435"/>
  <line x2="65.019" x1="66.819" style="fill-rule:evenodd;clip-rule:evenodd;fill:none;stroke:#FFFFFF;stroke-width:0.9;" y2="-37.13" y1="-37.97"/>
  <line x2="70.792" x1="72.489" style="fill-rule:evenodd;clip-rule:evenodd;fill:none;stroke:#FFFFFF;stroke-width:0.9;" y2="-34.772" y1="-35.805"/>
  <line x2="76.423" x1="78.153" style="fill-rule:evenodd;clip-rule:evenodd;fill:none;stroke:#FFFFFF;stroke-width:0.9;" y2="-35.362" y1="-34.388"/>
  <line x2="74.137" x1="73.906" style="fill-rule:evenodd;clip-rule:evenodd;fill:none;stroke:#FFFFFF;stroke-width:0.9;" y2="-32.734" y1="-31.513"/>
  <line x2="66.985" x1="66.027" style="fill-rule:evenodd;clip-rule:evenodd;fill:none;stroke:#FFFFFF;stroke-width:0.9;" y2="-32.91" y1="-34.65"/>
  <line x2="73.758" x1="74.024" style="fill-rule:evenodd;clip-rule:evenodd;fill:none;stroke:#FFFFFF;stroke-width:0.9;" y2="-46.613" y1="-48.011"/>
  <line x2="15.125" x1="14.252" style="fill-rule:evenodd;clip-rule:evenodd;fill:none;stroke:#FFFFFF;stroke-width:0.9;" y2="-62.523" y1="-60.739"/>
  <line x2="10.008" x1="8.03" style="fill-rule:evenodd;clip-rule:evenodd;fill:none;stroke:#FFFFFF;stroke-width:0.9;" y2="-59.589" y1="-59.4"/>
  <line x2="4.769" x1="3.384" style="fill-rule:evenodd;clip-rule:evenodd;fill:none;stroke:#FFFFFF;stroke-width:0.9;" y2="-61.218" y1="-59.794"/>
  <line x2="13.002" x1="12.558" style="fill-rule:evenodd;clip-rule:evenodd;fill:none;stroke:#FFFFFF;stroke-width:0.9;" y2="-56.572" y1="-54.636"/>
  <line x2="5.914" x1="7.833" style="fill-rule:evenodd;clip-rule:evenodd;fill:none;stroke:#FFFFFF;stroke-width:0.9;" y2="-56.171" y1="-55.66"/>
  <line x2="0.749" x1="1.494" style="fill-rule:evenodd;clip-rule:evenodd;fill:none;stroke:#FFFFFF;stroke-width:0.9;" y2="-59.116" y1="-57.274"/>
  <line x2="1.663" x1="3.463" style="fill-rule:evenodd;clip-rule:evenodd;fill:none;stroke:#FFFFFF;stroke-width:0.9;" y2="-52.969" y1="-53.809"/>
  <line x2="7.436" x1="9.133" style="fill-rule:evenodd;clip-rule:evenodd;fill:none;stroke:#FFFFFF;stroke-width:0.9;" y2="-50.611" y1="-51.644"/>
  <line x2="13.067" x1="14.797" style="fill-rule:evenodd;clip-rule:evenodd;fill:none;stroke:#FFFFFF;stroke-width:0.9;" y2="-51.201" y1="-50.227"/>
  <line x2="10.781" x1="10.55" style="fill-rule:evenodd;clip-rule:evenodd;fill:none;stroke:#FFFFFF;stroke-width:0.9;" y2="-48.573" y1="-47.352"/>
  <line x2="3.629" x1="2.671" style="fill-rule:evenodd;clip-rule:evenodd;fill:none;stroke:#FFFFFF;stroke-width:0.9;" y2="-48.75" y1="-50.489"/>
  <line x2="10.668" x1="10.402" style="fill-rule:evenodd;clip-rule:evenodd;fill:none;stroke:#FFFFFF;stroke-width:0.9;" y2="-63.85" y1="-62.452"/>
  <line x2="30.964" x1="30.09" style="fill-rule:evenodd;clip-rule:evenodd;fill:none;stroke:#FFFFFF;stroke-width:0.9;" y2="-62.523" y1="-60.739"/>
  <line x2="25.847" x1="23.869" style="fill-rule:evenodd;clip-rule:evenodd;fill:none;stroke:#FFFFFF;stroke-width:0.9;" y2="-59.589" y1="-59.4"/>
  <line x2="20.608" x1="19.223" style="fill-rule:evenodd;clip-rule:evenodd;fill:none;stroke:#FFFFFF;stroke-width:0.9;" y2="-61.218" y1="-59.794"/>
  <line x2="28.841" x1="28.397" style="fill-rule:evenodd;clip-rule:evenodd;fill:none;stroke:#FFFFFF;stroke-width:0.9;" y2="-56.572" y1="-54.636"/>
  <line x2="21.753" x1="23.672" style="fill-rule:evenodd;clip-rule:evenodd;fill:none;stroke:#FFFFFF;stroke-width:0.9;" y2="-56.171" y1="-55.66"/>
  <line x2="16.589" x1="17.333" style="fill-rule:evenodd;clip-rule:evenodd;fill:none;stroke:#FFFFFF;stroke-width:0.9;" y2="-59.116" y1="-57.274"/>
  <line x2="17.502" x1="19.302" style="fill-rule:evenodd;clip-rule:evenodd;fill:none;stroke:#FFFFFF;stroke-width:0.9;" y2="-52.969" y1="-53.809"/>
  <line x2="23.275" x1="24.972" style="fill-rule:evenodd;clip-rule:evenodd;fill:none;stroke:#FFFFFF;stroke-width:0.9;" y2="-50.611" y1="-51.644"/>
  <line x2="28.906" x1="30.636" style="fill-rule:evenodd;clip-rule:evenodd;fill:none;stroke:#FFFFFF;stroke-width:0.9;" y2="-51.201" y1="-50.227"/>
  <line x2="26.62" x1="26.39" style="fill-rule:evenodd;clip-rule:evenodd;fill:none;stroke:#FFFFFF;stroke-width:0.9;" y2="-48.573" y1="-47.352"/>
  <line x2="19.469" x1="18.51" style="fill-rule:evenodd;clip-rule:evenodd;fill:none;stroke:#FFFFFF;stroke-width:0.9;" y2="-48.75" y1="-50.489"/>
  <line x2="26.507" x1="26.241" style="fill-rule:evenodd;clip-rule:evenodd;fill:none;stroke:#FFFFFF;stroke-width:0.9;" y2="-63.85" y1="-62.452"/>
  <line x2="46.803" x1="45.929" style="fill-rule:evenodd;clip-rule:evenodd;fill:none;stroke:#FFFFFF;stroke-width:0.9;" y2="-62.523" y1="-60.739"/>
  <line x2="41.686" x1="39.708" style="fill-rule:evenodd;clip-rule:evenodd;fill:none;stroke:#FFFFFF;stroke-width:0.9;" y2="-59.589" y1="-59.4"/>
  <line x2="36.447" x1="35.062" style="fill-rule:evenodd;clip-rule:evenodd;fill:none;stroke:#FFFFFF;stroke-width:0.9;" y2="-61.218" y1="-59.794"/>
  <line x2="44.68" x1="44.236" style="fill-rule:evenodd;clip-rule:evenodd;fill:none;stroke:#FFFFFF;stroke-width:0.9;" y2="-56.572" y1="-54.636"/>
  <line x2="37.592" x1="39.511" style="fill-rule:evenodd;clip-rule:evenodd;fill:none;stroke:#FFFFFF;stroke-width:0.9;" y2="-56.171" y1="-55.66"/>
  <line x2="32.428" x1="33.172" style="fill-rule:evenodd;clip-rule:evenodd;fill:none;stroke:#FFFFFF;stroke-width:0.9;" y2="-59.116" y1="-57.274"/>
  <line x2="33.341" x1="35.141" style="fill-rule:evenodd;clip-rule:evenodd;fill:none;stroke:#FFFFFF;stroke-width:0.9;" y2="-52.969" y1="-53.809"/>
  <line x2="39.114" x1="40.811" style="fill-rule:evenodd;clip-rule:evenodd;fill:none;stroke:#FFFFFF;stroke-width:0.9;" y2="-50.611" y1="-51.644"/>
  <line x2="44.745" x1="46.475" style="fill-rule:evenodd;clip-rule:evenodd;fill:none;stroke:#FFFFFF;stroke-width:0.9;" y2="-51.201" y1="-50.227"/>
  <line x2="42.459" x1="42.229" style="fill-rule:evenodd;clip-rule:evenodd;fill:none;stroke:#FFFFFF;stroke-width:0.9;" y2="-48.573" y1="-47.352"/>
  <line x2="35.308" x1="34.349" style="fill-rule:evenodd;clip-rule:evenodd;fill:none;stroke:#FFFFFF;stroke-width:0.9;" y2="-48.75" y1="-50.489"/>
  <line x2="42.346" x1="42.08" style="fill-rule:evenodd;clip-rule:evenodd;fill:none;stroke:#FFFFFF;stroke-width:0.9;" y2="-63.85" y1="-62.452"/>
  <line x2="62.642" x1="61.769" style="fill-rule:evenodd;clip-rule:evenodd;fill:none;stroke:#FFFFFF;stroke-width:0.9;" y2="-62.523" y1="-60.739"/>
  <line x2="57.524" x1="55.547" style="fill-rule:evenodd;clip-rule:evenodd;fill:none;stroke:#FFFFFF;stroke-width:0.9;" y2="-59.589" y1="-59.4"/>
  <line x2="52.286" x1="50.901" style="fill-rule:evenodd;clip-rule:evenodd;fill:none;stroke:#FFFFFF;stroke-width:0.9;" y2="-61.218" y1="-59.794"/>
  <line x2="60.519" x1="60.075" style="fill-rule:evenodd;clip-rule:evenodd;fill:none;stroke:#FFFFFF;stroke-width:0.9;" y2="-56.572" y1="-54.636"/>
  <line x2="53.431" x1="55.35" style="fill-rule:evenodd;clip-rule:evenodd;fill:none;stroke:#FFFFFF;stroke-width:0.9;" y2="-56.171" y1="-55.66"/>
  <line x2="48.267" x1="49.011" style="fill-rule:evenodd;clip-rule:evenodd;fill:none;stroke:#FFFFFF;stroke-width:0.9;" y2="-59.116" y1="-57.274"/>
  <line x2="49.18" x1="50.979" style="fill-rule:evenodd;clip-rule:evenodd;fill:none;stroke:#FFFFFF;stroke-width:0.9;" y2="-52.969" y1="-53.809"/>
  <line x2="54.953" x1="56.65" style="fill-rule:evenodd;clip-rule:evenodd;fill:none;stroke:#FFFFFF;stroke-width:0.9;" y2="-50.611" y1="-51.644"/>
  <line x2="60.583" x1="62.314" style="fill-rule:evenodd;clip-rule:evenodd;fill:none;stroke:#FFFFFF;stroke-width:0.9;" y2="-51.201" y1="-50.227"/>
  <line x2="58.298" x1="58.067" style="fill-rule:evenodd;clip-rule:evenodd;fill:none;stroke:#FFFFFF;stroke-width:0.9;" y2="-48.573" y1="-47.352"/>
  <line x2="51.146" x1="50.188" style="fill-rule:evenodd;clip-rule:evenodd;fill:none;stroke:#FFFFFF;stroke-width:0.9;" y2="-48.75" y1="-50.489"/>
  <line x2="58.186" x1="57.919" style="fill-rule:evenodd;clip-rule:evenodd;fill:none;stroke:#FFFFFF;stroke-width:0.9;" y2="-63.85" y1="-62.452"/>
  <line x2="78.481" x1="77.607" style="fill-rule:evenodd;clip-rule:evenodd;fill:none;stroke:#FFFFFF;stroke-width:0.9;" y2="-62.523" y1="-60.739"/>
  <line x2="73.364" x1="71.386" style="fill-rule:evenodd;clip-rule:evenodd;fill:none;stroke:#FFFFFF;stroke-width:0.9;" y2="-59.589" y1="-59.4"/>
  <line x2="68.124" x1="66.74" style="fill-rule:evenodd;clip-rule:evenodd;fill:none;stroke:#FFFFFF;stroke-width:0.9;" y2="-61.218" y1="-59.794"/>
  <line x2="76.358" x1="75.914" style="fill-rule:evenodd;clip-rule:evenodd;fill:none;stroke:#FFFFFF;stroke-width:0.9;" y2="-56.572" y1="-54.636"/>
  <line x2="69.27" x1="71.189" style="fill-rule:evenodd;clip-rule:evenodd;fill:none;stroke:#FFFFFF;stroke-width:0.9;" y2="-56.171" y1="-55.66"/>
  <line x2="64.105" x1="64.85" style="fill-rule:evenodd;clip-rule:evenodd;fill:none;stroke:#FFFFFF;stroke-width:0.9;" y2="-59.116" y1="-57.274"/>
  <line x2="65.019" x1="66.819" style="fill-rule:evenodd;clip-rule:evenodd;fill:none;stroke:#FFFFFF;stroke-width:0.9;" y2="-52.969" y1="-53.809"/>
  <line x2="70.792" x1="72.489" style="fill-rule:evenodd;clip-rule:evenodd;fill:none;stroke:#FFFFFF;stroke-width:0.9;" y2="-50.611" y1="-51.644"/>
  <line x2="76.423" x1="78.153" style="fill-rule:evenodd;clip-rule:evenodd;fill:none;stroke:#FFFFFF;stroke-width:0.9;" y2="-51.201" y1="-50.227"/>
  <line x2="74.137" x1="73.906" style="fill-rule:evenodd;clip-rule:evenodd;fill:none;stroke:#FFFFFF;stroke-width:0.9;" y2="-48.573" y1="-47.352"/>
  <line x2="66.985" x1="66.027" style="fill-rule:evenodd;clip-rule:evenodd;fill:none;stroke:#FFFFFF;stroke-width:0.9;" y2="-48.75" y1="-50.489"/>
  <line x2="74.024" x1="73.758" style="fill-rule:evenodd;clip-rule:evenodd;fill:none;stroke:#FFFFFF;stroke-width:0.9;" y2="-63.85" y1="-62.452"/>
  <line x2="15.125" x1="14.252" style="fill-rule:evenodd;clip-rule:evenodd;fill:none;stroke:#FFFFFF;stroke-width:0.9;" y2="-78.362" y1="-76.578"/>
  <line x2="10.008" x1="8.03" style="fill-rule:evenodd;clip-rule:evenodd;fill:none;stroke:#FFFFFF;stroke-width:0.9;" y2="-75.428" y1="-75.239"/>
  <line x2="4.769" x1="3.384" style="fill-rule:evenodd;clip-rule:evenodd;fill:none;stroke:#FFFFFF;stroke-width:0.9;" y2="-77.057" y1="-75.633"/>
  <line x2="13.002" x1="12.558" style="fill-rule:evenodd;clip-rule:evenodd;fill:none;stroke:#FFFFFF;stroke-width:0.9;" y2="-72.411" y1="-70.475"/>
  <line x2="7.833" x1="5.914" style="fill-rule:evenodd;clip-rule:evenodd;fill:none;stroke:#FFFFFF;stroke-width:0.9;" y2="-71.498" y1="-72.01"/>
  <line x2="1.494" x1="0.749" style="fill-rule:evenodd;clip-rule:evenodd;fill:none;stroke:#FFFFFF;stroke-width:0.9;" y2="-73.113" y1="-74.955"/>
  <line x2="1.663" x1="3.463" style="fill-rule:evenodd;clip-rule:evenodd;fill:none;stroke:#FFFFFF;stroke-width:0.9;" y2="-68.808" y1="-69.648"/>
  <line x2="7.436" x1="9.133" style="fill-rule:evenodd;clip-rule:evenodd;fill:none;stroke:#FFFFFF;stroke-width:0.9;" y2="-66.45" y1="-67.482"/>
  <line x2="13.067" x1="14.797" style="fill-rule:evenodd;clip-rule:evenodd;fill:none;stroke:#FFFFFF;stroke-width:0.9;" y2="-67.04" y1="-66.066"/>
  <line x2="10.781" x1="10.55" style="fill-rule:evenodd;clip-rule:evenodd;fill:none;stroke:#FFFFFF;stroke-width:0.9;" y2="-64.412" y1="-63.191"/>
  <line x2="3.629" x1="2.671" style="fill-rule:evenodd;clip-rule:evenodd;fill:none;stroke:#FFFFFF;stroke-width:0.9;" y2="-64.588" y1="-66.328"/>
  <line x2="10.402" x1="10.601" style="fill-rule:evenodd;clip-rule:evenodd;fill:none;stroke:#FFFFFF;stroke-width:0.9;" y2="-78.29" y1="-79.334"/>
  <line x2="30.964" x1="30.09" style="fill-rule:evenodd;clip-rule:evenodd;fill:none;stroke:#FFFFFF;stroke-width:0.9;" y2="-78.362" y1="-76.578"/>
  <line x2="25.847" x1="23.869" style="fill-rule:evenodd;clip-rule:evenodd;fill:none;stroke:#FFFFFF;stroke-width:0.9;" y2="-75.428" y1="-75.239"/>
  <line x2="20.608" x1="19.223" style="fill-rule:evenodd;clip-rule:evenodd;fill:none;stroke:#FFFFFF;stroke-width:0.9;" y2="-77.057" y1="-75.633"/>
  <line x2="28.841" x1="28.397" style="fill-rule:evenodd;clip-rule:evenodd;fill:none;stroke:#FFFFFF;stroke-width:0.9;" y2="-72.411" y1="-70.475"/>
  <line x2="23.672" x1="21.753" style="fill-rule:evenodd;clip-rule:evenodd;fill:none;stroke:#FFFFFF;stroke-width:0.9;" y2="-71.498" y1="-72.01"/>
  <line x2="17.333" x1="16.589" style="fill-rule:evenodd;clip-rule:evenodd;fill:none;stroke:#FFFFFF;stroke-width:0.9;" y2="-73.113" y1="-74.955"/>
  <line x2="17.502" x1="19.302" style="fill-rule:evenodd;clip-rule:evenodd;fill:none;stroke:#FFFFFF;stroke-width:0.9;" y2="-68.808" y1="-69.648"/>
  <line x2="23.275" x1="24.972" style="fill-rule:evenodd;clip-rule:evenodd;fill:none;stroke:#FFFFFF;stroke-width:0.9;" y2="-66.45" y1="-67.482"/>
  <line x2="28.906" x1="30.636" style="fill-rule:evenodd;clip-rule:evenodd;fill:none;stroke:#FFFFFF;stroke-width:0.9;" y2="-67.04" y1="-66.066"/>
  <line x2="26.62" x1="26.39" style="fill-rule:evenodd;clip-rule:evenodd;fill:none;stroke:#FFFFFF;stroke-width:0.9;" y2="-64.412" y1="-63.191"/>
  <line x2="19.469" x1="18.51" style="fill-rule:evenodd;clip-rule:evenodd;fill:none;stroke:#FFFFFF;stroke-width:0.9;" y2="-64.588" y1="-66.328"/>
  <line x2="26.241" x1="26.44" style="fill-rule:evenodd;clip-rule:evenodd;fill:none;stroke:#FFFFFF;stroke-width:0.9;" y2="-78.29" y1="-79.334"/>
  <line x2="46.803" x1="45.929" style="fill-rule:evenodd;clip-rule:evenodd;fill:none;stroke:#FFFFFF;stroke-width:0.9;" y2="-78.362" y1="-76.578"/>
  <line x2="41.686" x1="39.708" style="fill-rule:evenodd;clip-rule:evenodd;fill:none;stroke:#FFFFFF;stroke-width:0.9;" y2="-75.428" y1="-75.239"/>
  <line x2="36.447" x1="35.062" style="fill-rule:evenodd;clip-rule:evenodd;fill:none;stroke:#FFFFFF;stroke-width:0.9;" y2="-77.057" y1="-75.633"/>
  <line x2="44.68" x1="44.236" style="fill-rule:evenodd;clip-rule:evenodd;fill:none;stroke:#FFFFFF;stroke-width:0.9;" y2="-72.411" y1="-70.475"/>
  <line x2="39.511" x1="37.592" style="fill-rule:evenodd;clip-rule:evenodd;fill:none;stroke:#FFFFFF;stroke-width:0.9;" y2="-71.498" y1="-72.01"/>
  <line x2="33.172" x1="32.428" style="fill-rule:evenodd;clip-rule:evenodd;fill:none;stroke:#FFFFFF;stroke-width:0.9;" y2="-73.113" y1="-74.955"/>
  <line x2="33.341" x1="35.141" style="fill-rule:evenodd;clip-rule:evenodd;fill:none;stroke:#FFFFFF;stroke-width:0.9;" y2="-68.808" y1="-69.648"/>
  <line x2="39.114" x1="40.811" style="fill-rule:evenodd;clip-rule:evenodd;fill:none;stroke:#FFFFFF;stroke-width:0.9;" y2="-66.45" y1="-67.482"/>
  <line x2="44.745" x1="46.475" style="fill-rule:evenodd;clip-rule:evenodd;fill:none;stroke:#FFFFFF;stroke-width:0.9;" y2="-67.04" y1="-66.066"/>
  <line x2="42.459" x1="42.229" style="fill-rule:evenodd;clip-rule:evenodd;fill:none;stroke:#FFFFFF;stroke-width:0.9;" y2="-64.412" y1="-63.191"/>
  <line x2="35.308" x1="34.349" style="fill-rule:evenodd;clip-rule:evenodd;fill:none;stroke:#FFFFFF;stroke-width:0.9;" y2="-64.588" y1="-66.328"/>
  <line x2="42.08" x1="42.279" style="fill-rule:evenodd;clip-rule:evenodd;fill:none;stroke:#FFFFFF;stroke-width:0.9;" y2="-78.29" y1="-79.334"/>
  <line x2="62.642" x1="61.769" style="fill-rule:evenodd;clip-rule:evenodd;fill:none;stroke:#FFFFFF;stroke-width:0.9;" y2="-78.362" y1="-76.578"/>
  <line x2="57.524" x1="55.547" style="fill-rule:evenodd;clip-rule:evenodd;fill:none;stroke:#FFFFFF;stroke-width:0.9;" y2="-75.428" y1="-75.239"/>
  <line x2="52.286" x1="50.901" style="fill-rule:evenodd;clip-rule:evenodd;fill:none;stroke:#FFFFFF;stroke-width:0.9;" y2="-77.057" y1="-75.633"/>
  <line x2="60.519" x1="60.075" style="fill-rule:evenodd;clip-rule:evenodd;fill:none;stroke:#FFFFFF;stroke-width:0.9;" y2="-72.411" y1="-70.475"/>
  <line x2="55.35" x1="53.431" style="fill-rule:evenodd;clip-rule:evenodd;fill:none;stroke:#FFFFFF;stroke-width:0.9;" y2="-71.498" y1="-72.01"/>
  <line x2="49.011" x1="48.267" style="fill-rule:evenodd;clip-rule:evenodd;fill:none;stroke:#FFFFFF;stroke-width:0.9;" y2="-73.113" y1="-74.955"/>
  <line x2="49.18" x1="50.979" style="fill-rule:evenodd;clip-rule:evenodd;fill:none;stroke:#FFFFFF;stroke-width:0.9;" y2="-68.808" y1="-69.648"/>
  <line x2="54.953" x1="56.65" style="fill-rule:evenodd;clip-rule:evenodd;fill:none;stroke:#FFFFFF;stroke-width:0.9;" y2="-66.45" y1="-67.482"/>
  <line x2="60.583" x1="62.314" style="fill-rule:evenodd;clip-rule:evenodd;fill:none;stroke:#FFFFFF;stroke-width:0.9;" y2="-67.04" y1="-66.066"/>
  <line x2="58.298" x1="58.067" style="fill-rule:evenodd;clip-rule:evenodd;fill:none;stroke:#FFFFFF;stroke-width:0.9;" y2="-64.412" y1="-63.191"/>
  <line x2="51.146" x1="50.188" style="fill-rule:evenodd;clip-rule:evenodd;fill:none;stroke:#FFFFFF;stroke-width:0.9;" y2="-64.588" y1="-66.328"/>
  <line x2="57.919" x1="58.118" style="fill-rule:evenodd;clip-rule:evenodd;fill:none;stroke:#FFFFFF;stroke-width:0.9;" y2="-78.29" y1="-79.334"/>
  <line x2="78.481" x1="77.607" style="fill-rule:evenodd;clip-rule:evenodd;fill:none;stroke:#FFFFFF;stroke-width:0.9;" y2="-78.362" y1="-76.578"/>
  <line x2="73.364" x1="71.386" style="fill-rule:evenodd;clip-rule:evenodd;fill:none;stroke:#FFFFFF;stroke-width:0.9;" y2="-75.428" y1="-75.239"/>
  <line x2="68.124" x1="66.74" style="fill-rule:evenodd;clip-rule:evenodd;fill:none;stroke:#FFFFFF;stroke-width:0.9;" y2="-77.057" y1="-75.633"/>
  <line x2="76.358" x1="75.914" style="fill-rule:evenodd;clip-rule:evenodd;fill:none;stroke:#FFFFFF;stroke-width:0.9;" y2="-72.411" y1="-70.475"/>
  <line x2="71.189" x1="69.27" style="fill-rule:evenodd;clip-rule:evenodd;fill:none;stroke:#FFFFFF;stroke-width:0.9;" y2="-71.498" y1="-72.01"/>
  <line x2="64.85" x1="64.105" style="fill-rule:evenodd;clip-rule:evenodd;fill:none;stroke:#FFFFFF;stroke-width:0.9;" y2="-73.113" y1="-74.955"/>
  <line x2="65.019" x1="66.819" style="fill-rule:evenodd;clip-rule:evenodd;fill:none;stroke:#FFFFFF;stroke-width:0.9;" y2="-68.808" y1="-69.648"/>
  <line x2="70.792" x1="72.489" style="fill-rule:evenodd;clip-rule:evenodd;fill:none;stroke:#FFFFFF;stroke-width:0.9;" y2="-66.45" y1="-67.482"/>
  <line x2="76.423" x1="78.153" style="fill-rule:evenodd;clip-rule:evenodd;fill:none;stroke:#FFFFFF;stroke-width:0.9;" y2="-67.04" y1="-66.066"/>
  <line x2="74.137" x1="73.906" style="fill-rule:evenodd;clip-rule:evenodd;fill:none;stroke:#FFFFFF;stroke-width:0.9;" y2="-64.412" y1="-63.191"/>
  <line x2="66.985" x1="66.027" style="fill-rule:evenodd;clip-rule:evenodd;fill:none;stroke:#FFFFFF;stroke-width:0.9;" y2="-64.588" y1="-66.328"/>
  <line x2="73.758" x1="73.957" style="fill-rule:evenodd;clip-rule:evenodd;fill:none;stroke:#FFFFFF;stroke-width:0.9;" y2="-78.29" y1="-79.334"/>
 </g>
</svg>
