<?xml version="1.0"?>
<!-- Converted with SVG Converter - Version 0.9.6 (Compiled Thu Aug 31 10:01:05 2017) - Copyright (C) 2011 Nokia -->
<svg xmlns="http://www.w3.org/2000/svg" x="0px" baseProfile="tiny" height="79.25" version="1.1" width="79.25" xml:space="preserve" viewBox="0 -79.334 79.25 79.25" xmlns:xlink="http://www.w3.org/1999/xlink" y="0px">
 <g>
  <rect height="79.25" width="79.25" style="fill:none;" y="-79.334"/>
  <line y1="-13.222" x2="15.125" style="fill-rule:evenodd;clip-rule:evenodd;fill:none;stroke:#EC008C;stroke-width:0.9;" x1="14.252" y2="-15.006"/>
  <line y1="-11.883" x2="10.008" style="fill-rule:evenodd;clip-rule:evenodd;fill:none;stroke:#EC008C;stroke-width:0.9;" x1="8.03" y2="-12.072"/>
  <line y1="-12.277" x2="4.769" style="fill-rule:evenodd;clip-rule:evenodd;fill:none;stroke:#EC008C;stroke-width:0.9;" x1="3.384" y2="-13.701"/>
  <line y1="-9.055" x2="12.558" style="fill-rule:evenodd;clip-rule:evenodd;fill:none;stroke:#EC008C;stroke-width:0.9;" x1="13.002" y2="-7.119"/>
  <line y1="-8.143" x2="5.914" style="fill-rule:evenodd;clip-rule:evenodd;fill:none;stroke:#EC008C;stroke-width:0.9;" x1="7.833" y2="-8.654"/>
  <line y1="-9.757" x2="0.749" style="fill-rule:evenodd;clip-rule:evenodd;fill:none;stroke:#EC008C;stroke-width:0.9;" x1="1.494" y2="-11.599"/>
  <line y1="-6.292" x2="1.663" style="fill-rule:evenodd;clip-rule:evenodd;fill:none;stroke:#EC008C;stroke-width:0.9;" x1="3.463" y2="-5.452"/>
  <line y1="-4.127" x2="7.436" style="fill-rule:evenodd;clip-rule:evenodd;fill:none;stroke:#EC008C;stroke-width:0.9;" x1="9.133" y2="-3.094"/>
  <line y1="-2.71" x2="13.067" style="fill-rule:evenodd;clip-rule:evenodd;fill:none;stroke:#EC008C;stroke-width:0.9;" x1="14.797" y2="-3.685"/>
  <line y1="-1.056" x2="10.598" style="fill-rule:evenodd;clip-rule:evenodd;fill:none;stroke:#EC008C;stroke-width:0.9;" x1="10.781" y2="-0.083"/>
  <line y1="-1.232" x2="2.671" style="fill-rule:evenodd;clip-rule:evenodd;fill:none;stroke:#EC008C;stroke-width:0.9;" x1="3.629" y2="-2.972"/>
  <line y1="-16.333" x2="10.402" style="fill-rule:evenodd;clip-rule:evenodd;fill:none;stroke:#EC008C;stroke-width:0.9;" x1="10.668" y2="-14.935"/>
  <line y1="-13.222" x2="30.964" style="fill-rule:evenodd;clip-rule:evenodd;fill:none;stroke:#EC008C;stroke-width:0.9;" x1="30.09" y2="-15.006"/>
  <line y1="-11.883" x2="25.847" style="fill-rule:evenodd;clip-rule:evenodd;fill:none;stroke:#EC008C;stroke-width:0.9;" x1="23.869" y2="-12.072"/>
  <line y1="-12.277" x2="20.608" style="fill-rule:evenodd;clip-rule:evenodd;fill:none;stroke:#EC008C;stroke-width:0.9;" x1="19.223" y2="-13.701"/>
  <line y1="-9.055" x2="28.397" style="fill-rule:evenodd;clip-rule:evenodd;fill:none;stroke:#EC008C;stroke-width:0.9;" x1="28.841" y2="-7.119"/>
  <line y1="-8.143" x2="21.753" style="fill-rule:evenodd;clip-rule:evenodd;fill:none;stroke:#EC008C;stroke-width:0.9;" x1="23.672" y2="-8.654"/>
  <line y1="-9.757" x2="16.589" style="fill-rule:evenodd;clip-rule:evenodd;fill:none;stroke:#EC008C;stroke-width:0.9;" x1="17.333" y2="-11.599"/>
  <line y1="-6.292" x2="17.502" style="fill-rule:evenodd;clip-rule:evenodd;fill:none;stroke:#EC008C;stroke-width:0.9;" x1="19.302" y2="-5.452"/>
  <line y1="-4.127" x2="23.275" style="fill-rule:evenodd;clip-rule:evenodd;fill:none;stroke:#EC008C;stroke-width:0.9;" x1="24.972" y2="-3.094"/>
  <line y1="-2.71" x2="28.906" style="fill-rule:evenodd;clip-rule:evenodd;fill:none;stroke:#EC008C;stroke-width:0.9;" x1="30.636" y2="-3.685"/>
  <line y1="-1.056" x2="26.508" style="fill-rule:evenodd;clip-rule:evenodd;fill:none;stroke:#EC008C;stroke-width:0.9;" x1="26.691" y2="-0.083"/>
  <line y1="-1.232" x2="18.51" style="fill-rule:evenodd;clip-rule:evenodd;fill:none;stroke:#EC008C;stroke-width:0.9;" x1="19.469" y2="-2.972"/>
  <line y1="-16.333" x2="26.241" style="fill-rule:evenodd;clip-rule:evenodd;fill:none;stroke:#EC008C;stroke-width:0.9;" x1="26.507" y2="-14.935"/>
  <line y1="-13.222" x2="46.803" style="fill-rule:evenodd;clip-rule:evenodd;fill:none;stroke:#EC008C;stroke-width:0.9;" x1="45.929" y2="-15.006"/>
  <line y1="-11.883" x2="41.686" style="fill-rule:evenodd;clip-rule:evenodd;fill:none;stroke:#EC008C;stroke-width:0.9;" x1="39.708" y2="-12.072"/>
  <line y1="-12.277" x2="36.447" style="fill-rule:evenodd;clip-rule:evenodd;fill:none;stroke:#EC008C;stroke-width:0.9;" x1="35.062" y2="-13.701"/>
  <line y1="-9.055" x2="44.236" style="fill-rule:evenodd;clip-rule:evenodd;fill:none;stroke:#EC008C;stroke-width:0.9;" x1="44.68" y2="-7.119"/>
  <line y1="-8.143" x2="37.592" style="fill-rule:evenodd;clip-rule:evenodd;fill:none;stroke:#EC008C;stroke-width:0.9;" x1="39.511" y2="-8.654"/>
  <line y1="-9.757" x2="32.428" style="fill-rule:evenodd;clip-rule:evenodd;fill:none;stroke:#EC008C;stroke-width:0.9;" x1="33.172" y2="-11.599"/>
  <line y1="-6.292" x2="33.341" style="fill-rule:evenodd;clip-rule:evenodd;fill:none;stroke:#EC008C;stroke-width:0.9;" x1="35.141" y2="-5.452"/>
  <line y1="-4.127" x2="39.114" style="fill-rule:evenodd;clip-rule:evenodd;fill:none;stroke:#EC008C;stroke-width:0.9;" x1="40.811" y2="-3.094"/>
  <line y1="-2.71" x2="44.745" style="fill-rule:evenodd;clip-rule:evenodd;fill:none;stroke:#EC008C;stroke-width:0.9;" x1="46.475" y2="-3.685"/>
  <line y1="-1.056" x2="42.275" style="fill-rule:evenodd;clip-rule:evenodd;fill:none;stroke:#EC008C;stroke-width:0.9;" x1="42.459" y2="-0.083"/>
  <line y1="-1.232" x2="34.349" style="fill-rule:evenodd;clip-rule:evenodd;fill:none;stroke:#EC008C;stroke-width:0.9;" x1="35.308" y2="-2.972"/>
  <line y1="-16.333" x2="42.08" style="fill-rule:evenodd;clip-rule:evenodd;fill:none;stroke:#EC008C;stroke-width:0.9;" x1="42.346" y2="-14.935"/>
  <line y1="-13.222" x2="62.642" style="fill-rule:evenodd;clip-rule:evenodd;fill:none;stroke:#EC008C;stroke-width:0.9;" x1="61.769" y2="-15.006"/>
  <line y1="-11.883" x2="57.524" style="fill-rule:evenodd;clip-rule:evenodd;fill:none;stroke:#EC008C;stroke-width:0.9;" x1="55.547" y2="-12.072"/>
  <line y1="-12.277" x2="52.286" style="fill-rule:evenodd;clip-rule:evenodd;fill:none;stroke:#EC008C;stroke-width:0.9;" x1="50.901" y2="-13.701"/>
  <line y1="-9.055" x2="60.075" style="fill-rule:evenodd;clip-rule:evenodd;fill:none;stroke:#EC008C;stroke-width:0.9;" x1="60.519" y2="-7.119"/>
  <line y1="-8.143" x2="53.431" style="fill-rule:evenodd;clip-rule:evenodd;fill:none;stroke:#EC008C;stroke-width:0.9;" x1="55.35" y2="-8.654"/>
  <line y1="-9.757" x2="48.267" style="fill-rule:evenodd;clip-rule:evenodd;fill:none;stroke:#EC008C;stroke-width:0.9;" x1="49.011" y2="-11.599"/>
  <line y1="-6.292" x2="49.18" style="fill-rule:evenodd;clip-rule:evenodd;fill:none;stroke:#EC008C;stroke-width:0.9;" x1="50.979" y2="-5.452"/>
  <line y1="-4.127" x2="54.953" style="fill-rule:evenodd;clip-rule:evenodd;fill:none;stroke:#EC008C;stroke-width:0.9;" x1="56.65" y2="-3.094"/>
  <line y1="-2.71" x2="60.583" style="fill-rule:evenodd;clip-rule:evenodd;fill:none;stroke:#EC008C;stroke-width:0.9;" x1="62.314" y2="-3.685"/>
  <line y1="-1.056" x2="58.114" style="fill-rule:evenodd;clip-rule:evenodd;fill:none;stroke:#EC008C;stroke-width:0.9;" x1="58.298" y2="-0.083"/>
  <line y1="-1.232" x2="50.188" style="fill-rule:evenodd;clip-rule:evenodd;fill:none;stroke:#EC008C;stroke-width:0.9;" x1="51.146" y2="-2.972"/>
  <line y1="-16.333" x2="57.919" style="fill-rule:evenodd;clip-rule:evenodd;fill:none;stroke:#EC008C;stroke-width:0.9;" x1="58.186" y2="-14.935"/>
  <line y1="-13.222" x2="78.481" style="fill-rule:evenodd;clip-rule:evenodd;fill:none;stroke:#EC008C;stroke-width:0.9;" x1="77.607" y2="-15.006"/>
  <line y1="-11.883" x2="73.364" style="fill-rule:evenodd;clip-rule:evenodd;fill:none;stroke:#EC008C;stroke-width:0.9;" x1="71.386" y2="-12.072"/>
  <line y1="-12.277" x2="68.124" style="fill-rule:evenodd;clip-rule:evenodd;fill:none;stroke:#EC008C;stroke-width:0.9;" x1="66.74" y2="-13.701"/>
  <line y1="-9.055" x2="75.914" style="fill-rule:evenodd;clip-rule:evenodd;fill:none;stroke:#EC008C;stroke-width:0.9;" x1="76.358" y2="-7.119"/>
  <line y1="-8.143" x2="69.27" style="fill-rule:evenodd;clip-rule:evenodd;fill:none;stroke:#EC008C;stroke-width:0.9;" x1="71.189" y2="-8.654"/>
  <line y1="-9.757" x2="64.105" style="fill-rule:evenodd;clip-rule:evenodd;fill:none;stroke:#EC008C;stroke-width:0.9;" x1="64.85" y2="-11.599"/>
  <line y1="-6.292" x2="65.019" style="fill-rule:evenodd;clip-rule:evenodd;fill:none;stroke:#EC008C;stroke-width:0.9;" x1="66.819" y2="-5.452"/>
  <line y1="-4.127" x2="70.792" style="fill-rule:evenodd;clip-rule:evenodd;fill:none;stroke:#EC008C;stroke-width:0.9;" x1="72.489" y2="-3.094"/>
  <line y1="-2.71" x2="76.423" style="fill-rule:evenodd;clip-rule:evenodd;fill:none;stroke:#EC008C;stroke-width:0.9;" x1="78.153" y2="-3.685"/>
  <line y1="-1.056" x2="73.954" style="fill-rule:evenodd;clip-rule:evenodd;fill:none;stroke:#EC008C;stroke-width:0.9;" x1="74.137" y2="-0.083"/>
  <line y1="-1.232" x2="66.027" style="fill-rule:evenodd;clip-rule:evenodd;fill:none;stroke:#EC008C;stroke-width:0.9;" x1="66.985" y2="-2.972"/>
  <line y1="-16.333" x2="73.758" style="fill-rule:evenodd;clip-rule:evenodd;fill:none;stroke:#EC008C;stroke-width:0.9;" x1="74.024" y2="-14.935"/>
  <line y1="-29.061" x2="15.125" style="fill-rule:evenodd;clip-rule:evenodd;fill:none;stroke:#EC008C;stroke-width:0.9;" x1="14.252" y2="-30.845"/>
  <line y1="-27.722" x2="10.008" style="fill-rule:evenodd;clip-rule:evenodd;fill:none;stroke:#EC008C;stroke-width:0.9;" x1="8.03" y2="-27.911"/>
  <line y1="-28.116" x2="4.769" style="fill-rule:evenodd;clip-rule:evenodd;fill:none;stroke:#EC008C;stroke-width:0.9;" x1="3.384" y2="-29.541"/>
  <line y1="-22.958" x2="13.002" style="fill-rule:evenodd;clip-rule:evenodd;fill:none;stroke:#EC008C;stroke-width:0.9;" x1="12.558" y2="-24.894"/>
  <line y1="-23.982" x2="5.914" style="fill-rule:evenodd;clip-rule:evenodd;fill:none;stroke:#EC008C;stroke-width:0.9;" x1="7.833" y2="-24.494"/>
  <line y1="-25.596" x2="0.749" style="fill-rule:evenodd;clip-rule:evenodd;fill:none;stroke:#EC008C;stroke-width:0.9;" x1="1.494" y2="-27.438"/>
  <line y1="-22.131" x2="1.663" style="fill-rule:evenodd;clip-rule:evenodd;fill:none;stroke:#EC008C;stroke-width:0.9;" x1="3.463" y2="-21.291"/>
  <line y1="-19.965" x2="7.436" style="fill-rule:evenodd;clip-rule:evenodd;fill:none;stroke:#EC008C;stroke-width:0.9;" x1="9.133" y2="-18.933"/>
  <line y1="-18.549" x2="13.067" style="fill-rule:evenodd;clip-rule:evenodd;fill:none;stroke:#EC008C;stroke-width:0.9;" x1="14.797" y2="-19.523"/>
  <line y1="-15.674" x2="10.781" style="fill-rule:evenodd;clip-rule:evenodd;fill:none;stroke:#EC008C;stroke-width:0.9;" x1="10.55" y2="-16.895"/>
  <line y1="-18.811" x2="3.629" style="fill-rule:evenodd;clip-rule:evenodd;fill:none;stroke:#EC008C;stroke-width:0.9;" x1="2.671" y2="-17.071"/>
  <line y1="-32.171" x2="10.402" style="fill-rule:evenodd;clip-rule:evenodd;fill:none;stroke:#EC008C;stroke-width:0.9;" x1="10.668" y2="-30.774"/>
  <line y1="-29.061" x2="30.964" style="fill-rule:evenodd;clip-rule:evenodd;fill:none;stroke:#EC008C;stroke-width:0.9;" x1="30.09" y2="-30.845"/>
  <line y1="-27.722" x2="25.847" style="fill-rule:evenodd;clip-rule:evenodd;fill:none;stroke:#EC008C;stroke-width:0.9;" x1="23.869" y2="-27.911"/>
  <line y1="-28.116" x2="20.608" style="fill-rule:evenodd;clip-rule:evenodd;fill:none;stroke:#EC008C;stroke-width:0.9;" x1="19.223" y2="-29.541"/>
  <line y1="-22.958" x2="28.841" style="fill-rule:evenodd;clip-rule:evenodd;fill:none;stroke:#EC008C;stroke-width:0.9;" x1="28.397" y2="-24.894"/>
  <line y1="-23.982" x2="21.753" style="fill-rule:evenodd;clip-rule:evenodd;fill:none;stroke:#EC008C;stroke-width:0.9;" x1="23.672" y2="-24.494"/>
  <line y1="-25.596" x2="16.589" style="fill-rule:evenodd;clip-rule:evenodd;fill:none;stroke:#EC008C;stroke-width:0.9;" x1="17.333" y2="-27.438"/>
  <line y1="-22.131" x2="17.502" style="fill-rule:evenodd;clip-rule:evenodd;fill:none;stroke:#EC008C;stroke-width:0.9;" x1="19.302" y2="-21.291"/>
  <line y1="-19.965" x2="23.275" style="fill-rule:evenodd;clip-rule:evenodd;fill:none;stroke:#EC008C;stroke-width:0.9;" x1="24.972" y2="-18.933"/>
  <line y1="-18.549" x2="28.906" style="fill-rule:evenodd;clip-rule:evenodd;fill:none;stroke:#EC008C;stroke-width:0.9;" x1="30.636" y2="-19.523"/>
  <line y1="-15.674" x2="26.62" style="fill-rule:evenodd;clip-rule:evenodd;fill:none;stroke:#EC008C;stroke-width:0.9;" x1="26.39" y2="-16.895"/>
  <line y1="-18.811" x2="19.469" style="fill-rule:evenodd;clip-rule:evenodd;fill:none;stroke:#EC008C;stroke-width:0.9;" x1="18.51" y2="-17.071"/>
  <line y1="-32.171" x2="26.241" style="fill-rule:evenodd;clip-rule:evenodd;fill:none;stroke:#EC008C;stroke-width:0.9;" x1="26.507" y2="-30.774"/>
  <line y1="-29.061" x2="46.803" style="fill-rule:evenodd;clip-rule:evenodd;fill:none;stroke:#EC008C;stroke-width:0.9;" x1="45.929" y2="-30.845"/>
  <line y1="-27.722" x2="41.686" style="fill-rule:evenodd;clip-rule:evenodd;fill:none;stroke:#EC008C;stroke-width:0.9;" x1="39.708" y2="-27.911"/>
  <line y1="-28.116" x2="36.447" style="fill-rule:evenodd;clip-rule:evenodd;fill:none;stroke:#EC008C;stroke-width:0.9;" x1="35.062" y2="-29.541"/>
  <line y1="-22.958" x2="44.68" style="fill-rule:evenodd;clip-rule:evenodd;fill:none;stroke:#EC008C;stroke-width:0.9;" x1="44.236" y2="-24.894"/>
  <line y1="-23.982" x2="37.592" style="fill-rule:evenodd;clip-rule:evenodd;fill:none;stroke:#EC008C;stroke-width:0.9;" x1="39.511" y2="-24.494"/>
  <line y1="-25.596" x2="32.428" style="fill-rule:evenodd;clip-rule:evenodd;fill:none;stroke:#EC008C;stroke-width:0.9;" x1="33.172" y2="-27.438"/>
  <line y1="-22.131" x2="33.341" style="fill-rule:evenodd;clip-rule:evenodd;fill:none;stroke:#EC008C;stroke-width:0.9;" x1="35.141" y2="-21.291"/>
  <line y1="-19.965" x2="39.114" style="fill-rule:evenodd;clip-rule:evenodd;fill:none;stroke:#EC008C;stroke-width:0.9;" x1="40.811" y2="-18.933"/>
  <line y1="-18.549" x2="44.745" style="fill-rule:evenodd;clip-rule:evenodd;fill:none;stroke:#EC008C;stroke-width:0.9;" x1="46.475" y2="-19.523"/>
  <line y1="-15.674" x2="42.459" style="fill-rule:evenodd;clip-rule:evenodd;fill:none;stroke:#EC008C;stroke-width:0.9;" x1="42.229" y2="-16.895"/>
  <line y1="-18.811" x2="35.308" style="fill-rule:evenodd;clip-rule:evenodd;fill:none;stroke:#EC008C;stroke-width:0.9;" x1="34.349" y2="-17.071"/>
  <line y1="-32.171" x2="42.08" style="fill-rule:evenodd;clip-rule:evenodd;fill:none;stroke:#EC008C;stroke-width:0.9;" x1="42.346" y2="-30.774"/>
  <line y1="-29.061" x2="62.642" style="fill-rule:evenodd;clip-rule:evenodd;fill:none;stroke:#EC008C;stroke-width:0.9;" x1="61.769" y2="-30.845"/>
  <line y1="-27.722" x2="57.524" style="fill-rule:evenodd;clip-rule:evenodd;fill:none;stroke:#EC008C;stroke-width:0.9;" x1="55.547" y2="-27.911"/>
  <line y1="-28.116" x2="52.286" style="fill-rule:evenodd;clip-rule:evenodd;fill:none;stroke:#EC008C;stroke-width:0.9;" x1="50.901" y2="-29.541"/>
  <line y1="-22.958" x2="60.519" style="fill-rule:evenodd;clip-rule:evenodd;fill:none;stroke:#EC008C;stroke-width:0.9;" x1="60.075" y2="-24.894"/>
  <line y1="-23.982" x2="53.431" style="fill-rule:evenodd;clip-rule:evenodd;fill:none;stroke:#EC008C;stroke-width:0.9;" x1="55.35" y2="-24.494"/>
  <line y1="-25.596" x2="48.267" style="fill-rule:evenodd;clip-rule:evenodd;fill:none;stroke:#EC008C;stroke-width:0.9;" x1="49.011" y2="-27.438"/>
  <line y1="-22.131" x2="49.18" style="fill-rule:evenodd;clip-rule:evenodd;fill:none;stroke:#EC008C;stroke-width:0.9;" x1="50.979" y2="-21.291"/>
  <line y1="-19.965" x2="54.953" style="fill-rule:evenodd;clip-rule:evenodd;fill:none;stroke:#EC008C;stroke-width:0.9;" x1="56.65" y2="-18.933"/>
  <line y1="-18.549" x2="60.583" style="fill-rule:evenodd;clip-rule:evenodd;fill:none;stroke:#EC008C;stroke-width:0.9;" x1="62.314" y2="-19.523"/>
  <line y1="-15.674" x2="58.298" style="fill-rule:evenodd;clip-rule:evenodd;fill:none;stroke:#EC008C;stroke-width:0.9;" x1="58.067" y2="-16.895"/>
  <line y1="-18.811" x2="51.146" style="fill-rule:evenodd;clip-rule:evenodd;fill:none;stroke:#EC008C;stroke-width:0.9;" x1="50.188" y2="-17.071"/>
  <line y1="-32.171" x2="57.919" style="fill-rule:evenodd;clip-rule:evenodd;fill:none;stroke:#EC008C;stroke-width:0.9;" x1="58.186" y2="-30.774"/>
  <line y1="-29.061" x2="78.481" style="fill-rule:evenodd;clip-rule:evenodd;fill:none;stroke:#EC008C;stroke-width:0.9;" x1="77.607" y2="-30.845"/>
  <line y1="-27.722" x2="73.364" style="fill-rule:evenodd;clip-rule:evenodd;fill:none;stroke:#EC008C;stroke-width:0.9;" x1="71.386" y2="-27.911"/>
  <line y1="-28.116" x2="68.124" style="fill-rule:evenodd;clip-rule:evenodd;fill:none;stroke:#EC008C;stroke-width:0.9;" x1="66.74" y2="-29.541"/>
  <line y1="-22.958" x2="76.358" style="fill-rule:evenodd;clip-rule:evenodd;fill:none;stroke:#EC008C;stroke-width:0.9;" x1="75.914" y2="-24.894"/>
  <line y1="-23.982" x2="69.27" style="fill-rule:evenodd;clip-rule:evenodd;fill:none;stroke:#EC008C;stroke-width:0.9;" x1="71.189" y2="-24.494"/>
  <line y1="-25.596" x2="64.105" style="fill-rule:evenodd;clip-rule:evenodd;fill:none;stroke:#EC008C;stroke-width:0.9;" x1="64.85" y2="-27.438"/>
  <line y1="-22.131" x2="65.019" style="fill-rule:evenodd;clip-rule:evenodd;fill:none;stroke:#EC008C;stroke-width:0.9;" x1="66.819" y2="-21.291"/>
  <line y1="-19.965" x2="70.792" style="fill-rule:evenodd;clip-rule:evenodd;fill:none;stroke:#EC008C;stroke-width:0.9;" x1="72.489" y2="-18.933"/>
  <line y1="-18.549" x2="76.423" style="fill-rule:evenodd;clip-rule:evenodd;fill:none;stroke:#EC008C;stroke-width:0.9;" x1="78.153" y2="-19.523"/>
  <line y1="-15.674" x2="74.137" style="fill-rule:evenodd;clip-rule:evenodd;fill:none;stroke:#EC008C;stroke-width:0.9;" x1="73.906" y2="-16.895"/>
  <line y1="-18.811" x2="66.985" style="fill-rule:evenodd;clip-rule:evenodd;fill:none;stroke:#EC008C;stroke-width:0.9;" x1="66.027" y2="-17.071"/>
  <line y1="-32.171" x2="73.758" style="fill-rule:evenodd;clip-rule:evenodd;fill:none;stroke:#EC008C;stroke-width:0.9;" x1="74.024" y2="-30.774"/>
  <line y1="-44.9" x2="15.125" style="fill-rule:evenodd;clip-rule:evenodd;fill:none;stroke:#EC008C;stroke-width:0.9;" x1="14.252" y2="-46.684"/>
  <line y1="-43.562" x2="10.008" style="fill-rule:evenodd;clip-rule:evenodd;fill:none;stroke:#EC008C;stroke-width:0.9;" x1="8.03" y2="-43.75"/>
  <line y1="-43.955" x2="4.769" style="fill-rule:evenodd;clip-rule:evenodd;fill:none;stroke:#EC008C;stroke-width:0.9;" x1="3.384" y2="-45.379"/>
  <line y1="-38.797" x2="13.002" style="fill-rule:evenodd;clip-rule:evenodd;fill:none;stroke:#EC008C;stroke-width:0.9;" x1="12.558" y2="-40.733"/>
  <line y1="-39.821" x2="5.914" style="fill-rule:evenodd;clip-rule:evenodd;fill:none;stroke:#EC008C;stroke-width:0.9;" x1="7.833" y2="-40.333"/>
  <line y1="-41.435" x2="0.749" style="fill:none;stroke:#EC008C;stroke-width:0.9;" x1="1.494" y2="-43.276"/>
  <line y1="-37.97" x2="1.663" style="fill-rule:evenodd;clip-rule:evenodd;fill:none;stroke:#EC008C;stroke-width:0.9;" x1="3.463" y2="-37.13"/>
  <line y1="-35.805" x2="7.436" style="fill-rule:evenodd;clip-rule:evenodd;fill:none;stroke:#EC008C;stroke-width:0.9;" x1="9.133" y2="-34.772"/>
  <line y1="-34.388" x2="13.067" style="fill-rule:evenodd;clip-rule:evenodd;fill:none;stroke:#EC008C;stroke-width:0.9;" x1="14.797" y2="-35.362"/>
  <line y1="-31.513" x2="10.781" style="fill-rule:evenodd;clip-rule:evenodd;fill:none;stroke:#EC008C;stroke-width:0.9;" x1="10.55" y2="-32.734"/>
  <line y1="-34.65" x2="3.629" style="fill-rule:evenodd;clip-rule:evenodd;fill:none;stroke:#EC008C;stroke-width:0.9;" x1="2.671" y2="-32.91"/>
  <line y1="-48.011" x2="10.402" style="fill-rule:evenodd;clip-rule:evenodd;fill:none;stroke:#EC008C;stroke-width:0.9;" x1="10.668" y2="-46.613"/>
  <line y1="-44.9" x2="30.964" style="fill-rule:evenodd;clip-rule:evenodd;fill:none;stroke:#EC008C;stroke-width:0.9;" x1="30.09" y2="-46.684"/>
  <line y1="-43.562" x2="25.847" style="fill-rule:evenodd;clip-rule:evenodd;fill:none;stroke:#EC008C;stroke-width:0.9;" x1="23.869" y2="-43.75"/>
  <line y1="-43.955" x2="20.608" style="fill-rule:evenodd;clip-rule:evenodd;fill:none;stroke:#EC008C;stroke-width:0.9;" x1="19.223" y2="-45.379"/>
  <line y1="-38.797" x2="28.841" style="fill-rule:evenodd;clip-rule:evenodd;fill:none;stroke:#EC008C;stroke-width:0.9;" x1="28.397" y2="-40.733"/>
  <line y1="-39.821" x2="21.753" style="fill-rule:evenodd;clip-rule:evenodd;fill:none;stroke:#EC008C;stroke-width:0.9;" x1="23.672" y2="-40.333"/>
  <line y1="-41.435" x2="16.589" style="fill-rule:evenodd;clip-rule:evenodd;fill:none;stroke:#EC008C;stroke-width:0.9;" x1="17.333" y2="-43.276"/>
  <line y1="-37.97" x2="17.502" style="fill-rule:evenodd;clip-rule:evenodd;fill:none;stroke:#EC008C;stroke-width:0.9;" x1="19.302" y2="-37.13"/>
  <line y1="-35.805" x2="23.275" style="fill-rule:evenodd;clip-rule:evenodd;fill:none;stroke:#EC008C;stroke-width:0.9;" x1="24.972" y2="-34.772"/>
  <line y1="-34.388" x2="28.906" style="fill-rule:evenodd;clip-rule:evenodd;fill:none;stroke:#EC008C;stroke-width:0.9;" x1="30.636" y2="-35.362"/>
  <line y1="-31.513" x2="26.62" style="fill-rule:evenodd;clip-rule:evenodd;fill:none;stroke:#EC008C;stroke-width:0.9;" x1="26.39" y2="-32.734"/>
  <line y1="-34.65" x2="19.469" style="fill-rule:evenodd;clip-rule:evenodd;fill:none;stroke:#EC008C;stroke-width:0.9;" x1="18.51" y2="-32.91"/>
  <line y1="-48.011" x2="26.241" style="fill-rule:evenodd;clip-rule:evenodd;fill:none;stroke:#EC008C;stroke-width:0.9;" x1="26.507" y2="-46.613"/>
  <line y1="-44.9" x2="46.803" style="fill-rule:evenodd;clip-rule:evenodd;fill:none;stroke:#EC008C;stroke-width:0.9;" x1="45.929" y2="-46.684"/>
  <line y1="-43.562" x2="41.686" style="fill-rule:evenodd;clip-rule:evenodd;fill:none;stroke:#EC008C;stroke-width:0.9;" x1="39.708" y2="-43.75"/>
  <line y1="-43.955" x2="36.447" style="fill-rule:evenodd;clip-rule:evenodd;fill:none;stroke:#EC008C;stroke-width:0.9;" x1="35.062" y2="-45.379"/>
  <line y1="-38.797" x2="44.68" style="fill-rule:evenodd;clip-rule:evenodd;fill:none;stroke:#EC008C;stroke-width:0.9;" x1="44.236" y2="-40.733"/>
  <line y1="-39.821" x2="37.592" style="fill-rule:evenodd;clip-rule:evenodd;fill:none;stroke:#EC008C;stroke-width:0.9;" x1="39.511" y2="-40.333"/>
  <line y1="-41.435" x2="32.428" style="fill-rule:evenodd;clip-rule:evenodd;fill:none;stroke:#EC008C;stroke-width:0.9;" x1="33.172" y2="-43.276"/>
  <line y1="-37.97" x2="33.341" style="fill-rule:evenodd;clip-rule:evenodd;fill:none;stroke:#EC008C;stroke-width:0.9;" x1="35.141" y2="-37.13"/>
  <line y1="-35.805" x2="39.114" style="fill-rule:evenodd;clip-rule:evenodd;fill:none;stroke:#EC008C;stroke-width:0.9;" x1="40.811" y2="-34.772"/>
  <line y1="-34.388" x2="44.745" style="fill-rule:evenodd;clip-rule:evenodd;fill:none;stroke:#EC008C;stroke-width:0.9;" x1="46.475" y2="-35.362"/>
  <line y1="-31.513" x2="42.459" style="fill-rule:evenodd;clip-rule:evenodd;fill:none;stroke:#EC008C;stroke-width:0.9;" x1="42.229" y2="-32.734"/>
  <line y1="-34.65" x2="35.308" style="fill-rule:evenodd;clip-rule:evenodd;fill:none;stroke:#EC008C;stroke-width:0.9;" x1="34.349" y2="-32.91"/>
  <line y1="-48.011" x2="42.08" style="fill-rule:evenodd;clip-rule:evenodd;fill:none;stroke:#EC008C;stroke-width:0.9;" x1="42.346" y2="-46.613"/>
  <line y1="-44.9" x2="62.642" style="fill-rule:evenodd;clip-rule:evenodd;fill:none;stroke:#EC008C;stroke-width:0.9;" x1="61.769" y2="-46.684"/>
  <line y1="-43.562" x2="57.524" style="fill-rule:evenodd;clip-rule:evenodd;fill:none;stroke:#EC008C;stroke-width:0.9;" x1="55.547" y2="-43.75"/>
  <line y1="-43.955" x2="52.286" style="fill-rule:evenodd;clip-rule:evenodd;fill:none;stroke:#EC008C;stroke-width:0.9;" x1="50.901" y2="-45.379"/>
  <line y1="-38.797" x2="60.519" style="fill-rule:evenodd;clip-rule:evenodd;fill:none;stroke:#EC008C;stroke-width:0.9;" x1="60.075" y2="-40.733"/>
  <line y1="-39.821" x2="53.431" style="fill-rule:evenodd;clip-rule:evenodd;fill:none;stroke:#EC008C;stroke-width:0.9;" x1="55.35" y2="-40.333"/>
  <line y1="-41.435" x2="48.267" style="fill-rule:evenodd;clip-rule:evenodd;fill:none;stroke:#EC008C;stroke-width:0.9;" x1="49.011" y2="-43.276"/>
  <line y1="-37.97" x2="49.18" style="fill-rule:evenodd;clip-rule:evenodd;fill:none;stroke:#EC008C;stroke-width:0.9;" x1="50.979" y2="-37.13"/>
  <line y1="-35.805" x2="54.953" style="fill-rule:evenodd;clip-rule:evenodd;fill:none;stroke:#EC008C;stroke-width:0.9;" x1="56.65" y2="-34.772"/>
  <line y1="-34.388" x2="60.583" style="fill-rule:evenodd;clip-rule:evenodd;fill:none;stroke:#EC008C;stroke-width:0.9;" x1="62.314" y2="-35.362"/>
  <line y1="-31.513" x2="58.298" style="fill-rule:evenodd;clip-rule:evenodd;fill:none;stroke:#EC008C;stroke-width:0.9;" x1="58.067" y2="-32.734"/>
  <line y1="-34.65" x2="51.146" style="fill-rule:evenodd;clip-rule:evenodd;fill:none;stroke:#EC008C;stroke-width:0.9;" x1="50.188" y2="-32.91"/>
  <line y1="-48.011" x2="57.919" style="fill-rule:evenodd;clip-rule:evenodd;fill:none;stroke:#EC008C;stroke-width:0.9;" x1="58.186" y2="-46.613"/>
  <line y1="-44.9" x2="78.481" style="fill-rule:evenodd;clip-rule:evenodd;fill:none;stroke:#EC008C;stroke-width:0.9;" x1="77.607" y2="-46.684"/>
  <line y1="-43.562" x2="73.364" style="fill-rule:evenodd;clip-rule:evenodd;fill:none;stroke:#EC008C;stroke-width:0.9;" x1="71.386" y2="-43.75"/>
  <line y1="-43.955" x2="68.124" style="fill-rule:evenodd;clip-rule:evenodd;fill:none;stroke:#EC008C;stroke-width:0.9;" x1="66.74" y2="-45.379"/>
  <line y1="-38.797" x2="76.358" style="fill-rule:evenodd;clip-rule:evenodd;fill:none;stroke:#EC008C;stroke-width:0.9;" x1="75.914" y2="-40.733"/>
  <line y1="-39.821" x2="69.27" style="fill-rule:evenodd;clip-rule:evenodd;fill:none;stroke:#EC008C;stroke-width:0.9;" x1="71.189" y2="-40.333"/>
  <line y1="-41.435" x2="64.105" style="fill-rule:evenodd;clip-rule:evenodd;fill:none;stroke:#EC008C;stroke-width:0.9;" x1="64.85" y2="-43.276"/>
  <line y1="-37.97" x2="65.019" style="fill-rule:evenodd;clip-rule:evenodd;fill:none;stroke:#EC008C;stroke-width:0.9;" x1="66.819" y2="-37.13"/>
  <line y1="-35.805" x2="70.792" style="fill-rule:evenodd;clip-rule:evenodd;fill:none;stroke:#EC008C;stroke-width:0.9;" x1="72.489" y2="-34.772"/>
  <line y1="-34.388" x2="76.423" style="fill-rule:evenodd;clip-rule:evenodd;fill:none;stroke:#EC008C;stroke-width:0.9;" x1="78.153" y2="-35.362"/>
  <line y1="-31.513" x2="74.137" style="fill-rule:evenodd;clip-rule:evenodd;fill:none;stroke:#EC008C;stroke-width:0.9;" x1="73.906" y2="-32.734"/>
  <line y1="-34.65" x2="66.985" style="fill-rule:evenodd;clip-rule:evenodd;fill:none;stroke:#EC008C;stroke-width:0.9;" x1="66.027" y2="-32.91"/>
  <line y1="-48.011" x2="73.758" style="fill-rule:evenodd;clip-rule:evenodd;fill:none;stroke:#EC008C;stroke-width:0.9;" x1="74.024" y2="-46.613"/>
  <line y1="-60.739" x2="15.125" style="fill-rule:evenodd;clip-rule:evenodd;fill:none;stroke:#EC008C;stroke-width:0.9;" x1="14.252" y2="-62.523"/>
  <line y1="-59.4" x2="10.008" style="fill-rule:evenodd;clip-rule:evenodd;fill:none;stroke:#EC008C;stroke-width:0.9;" x1="8.03" y2="-59.589"/>
  <line y1="-59.794" x2="4.769" style="fill-rule:evenodd;clip-rule:evenodd;fill:none;stroke:#EC008C;stroke-width:0.9;" x1="3.384" y2="-61.218"/>
  <line y1="-54.636" x2="13.002" style="fill-rule:evenodd;clip-rule:evenodd;fill:none;stroke:#EC008C;stroke-width:0.9;" x1="12.558" y2="-56.572"/>
  <line y1="-55.66" x2="5.914" style="fill-rule:evenodd;clip-rule:evenodd;fill:none;stroke:#EC008C;stroke-width:0.9;" x1="7.833" y2="-56.171"/>
  <line y1="-57.274" x2="0.749" style="fill-rule:evenodd;clip-rule:evenodd;fill:none;stroke:#EC008C;stroke-width:0.9;" x1="1.494" y2="-59.116"/>
  <line y1="-53.809" x2="1.663" style="fill-rule:evenodd;clip-rule:evenodd;fill:none;stroke:#EC008C;stroke-width:0.9;" x1="3.463" y2="-52.969"/>
  <line y1="-51.644" x2="7.436" style="fill-rule:evenodd;clip-rule:evenodd;fill:none;stroke:#EC008C;stroke-width:0.9;" x1="9.133" y2="-50.611"/>
  <line y1="-50.227" x2="13.067" style="fill-rule:evenodd;clip-rule:evenodd;fill:none;stroke:#EC008C;stroke-width:0.9;" x1="14.797" y2="-51.201"/>
  <line y1="-47.352" x2="10.781" style="fill-rule:evenodd;clip-rule:evenodd;fill:none;stroke:#EC008C;stroke-width:0.9;" x1="10.55" y2="-48.573"/>
  <line y1="-50.489" x2="3.629" style="fill-rule:evenodd;clip-rule:evenodd;fill:none;stroke:#EC008C;stroke-width:0.9;" x1="2.671" y2="-48.75"/>
  <line y1="-62.452" x2="10.668" style="fill-rule:evenodd;clip-rule:evenodd;fill:none;stroke:#EC008C;stroke-width:0.9;" x1="10.402" y2="-63.85"/>
  <line y1="-60.739" x2="30.964" style="fill-rule:evenodd;clip-rule:evenodd;fill:none;stroke:#EC008C;stroke-width:0.9;" x1="30.09" y2="-62.523"/>
  <line y1="-59.4" x2="25.847" style="fill-rule:evenodd;clip-rule:evenodd;fill:none;stroke:#EC008C;stroke-width:0.9;" x1="23.869" y2="-59.589"/>
  <line y1="-59.794" x2="20.608" style="fill-rule:evenodd;clip-rule:evenodd;fill:none;stroke:#EC008C;stroke-width:0.9;" x1="19.223" y2="-61.218"/>
  <line y1="-54.636" x2="28.841" style="fill-rule:evenodd;clip-rule:evenodd;fill:none;stroke:#EC008C;stroke-width:0.9;" x1="28.397" y2="-56.572"/>
  <line y1="-55.66" x2="21.753" style="fill-rule:evenodd;clip-rule:evenodd;fill:none;stroke:#EC008C;stroke-width:0.9;" x1="23.672" y2="-56.171"/>
  <line y1="-57.274" x2="16.589" style="fill-rule:evenodd;clip-rule:evenodd;fill:none;stroke:#EC008C;stroke-width:0.9;" x1="17.333" y2="-59.116"/>
  <line y1="-53.809" x2="17.502" style="fill-rule:evenodd;clip-rule:evenodd;fill:none;stroke:#EC008C;stroke-width:0.9;" x1="19.302" y2="-52.969"/>
  <line y1="-51.644" x2="23.275" style="fill-rule:evenodd;clip-rule:evenodd;fill:none;stroke:#EC008C;stroke-width:0.9;" x1="24.972" y2="-50.611"/>
  <line y1="-50.227" x2="28.906" style="fill-rule:evenodd;clip-rule:evenodd;fill:none;stroke:#EC008C;stroke-width:0.9;" x1="30.636" y2="-51.201"/>
  <line y1="-47.352" x2="26.62" style="fill-rule:evenodd;clip-rule:evenodd;fill:none;stroke:#EC008C;stroke-width:0.9;" x1="26.39" y2="-48.573"/>
  <line y1="-50.489" x2="19.469" style="fill-rule:evenodd;clip-rule:evenodd;fill:none;stroke:#EC008C;stroke-width:0.9;" x1="18.51" y2="-48.75"/>
  <line y1="-62.452" x2="26.507" style="fill-rule:evenodd;clip-rule:evenodd;fill:none;stroke:#EC008C;stroke-width:0.9;" x1="26.241" y2="-63.85"/>
  <line y1="-60.739" x2="46.803" style="fill-rule:evenodd;clip-rule:evenodd;fill:none;stroke:#EC008C;stroke-width:0.9;" x1="45.929" y2="-62.523"/>
  <line y1="-59.4" x2="41.686" style="fill-rule:evenodd;clip-rule:evenodd;fill:none;stroke:#EC008C;stroke-width:0.9;" x1="39.708" y2="-59.589"/>
  <line y1="-59.794" x2="36.447" style="fill-rule:evenodd;clip-rule:evenodd;fill:none;stroke:#EC008C;stroke-width:0.9;" x1="35.062" y2="-61.218"/>
  <line y1="-54.636" x2="44.68" style="fill-rule:evenodd;clip-rule:evenodd;fill:none;stroke:#EC008C;stroke-width:0.9;" x1="44.236" y2="-56.572"/>
  <line y1="-55.66" x2="37.592" style="fill-rule:evenodd;clip-rule:evenodd;fill:none;stroke:#EC008C;stroke-width:0.9;" x1="39.511" y2="-56.171"/>
  <line y1="-57.274" x2="32.428" style="fill-rule:evenodd;clip-rule:evenodd;fill:none;stroke:#EC008C;stroke-width:0.9;" x1="33.172" y2="-59.116"/>
  <line y1="-53.809" x2="33.341" style="fill-rule:evenodd;clip-rule:evenodd;fill:none;stroke:#EC008C;stroke-width:0.9;" x1="35.141" y2="-52.969"/>
  <line y1="-51.644" x2="39.114" style="fill-rule:evenodd;clip-rule:evenodd;fill:none;stroke:#EC008C;stroke-width:0.9;" x1="40.811" y2="-50.611"/>
  <line y1="-50.227" x2="44.745" style="fill-rule:evenodd;clip-rule:evenodd;fill:none;stroke:#EC008C;stroke-width:0.9;" x1="46.475" y2="-51.201"/>
  <line y1="-47.352" x2="42.459" style="fill-rule:evenodd;clip-rule:evenodd;fill:none;stroke:#EC008C;stroke-width:0.9;" x1="42.229" y2="-48.573"/>
  <line y1="-50.489" x2="35.308" style="fill-rule:evenodd;clip-rule:evenodd;fill:none;stroke:#EC008C;stroke-width:0.9;" x1="34.349" y2="-48.75"/>
  <line y1="-62.452" x2="42.346" style="fill-rule:evenodd;clip-rule:evenodd;fill:none;stroke:#EC008C;stroke-width:0.9;" x1="42.08" y2="-63.85"/>
  <line y1="-60.739" x2="62.642" style="fill-rule:evenodd;clip-rule:evenodd;fill:none;stroke:#EC008C;stroke-width:0.9;" x1="61.769" y2="-62.523"/>
  <line y1="-59.4" x2="57.524" style="fill-rule:evenodd;clip-rule:evenodd;fill:none;stroke:#EC008C;stroke-width:0.9;" x1="55.547" y2="-59.589"/>
  <line y1="-59.794" x2="52.286" style="fill-rule:evenodd;clip-rule:evenodd;fill:none;stroke:#EC008C;stroke-width:0.9;" x1="50.901" y2="-61.218"/>
  <line y1="-54.636" x2="60.519" style="fill-rule:evenodd;clip-rule:evenodd;fill:none;stroke:#EC008C;stroke-width:0.9;" x1="60.075" y2="-56.572"/>
  <line y1="-55.66" x2="53.431" style="fill-rule:evenodd;clip-rule:evenodd;fill:none;stroke:#EC008C;stroke-width:0.9;" x1="55.35" y2="-56.171"/>
  <line y1="-57.274" x2="48.267" style="fill-rule:evenodd;clip-rule:evenodd;fill:none;stroke:#EC008C;stroke-width:0.9;" x1="49.011" y2="-59.116"/>
  <line y1="-53.809" x2="49.18" style="fill-rule:evenodd;clip-rule:evenodd;fill:none;stroke:#EC008C;stroke-width:0.9;" x1="50.979" y2="-52.969"/>
  <line y1="-51.644" x2="54.953" style="fill-rule:evenodd;clip-rule:evenodd;fill:none;stroke:#EC008C;stroke-width:0.9;" x1="56.65" y2="-50.611"/>
  <line y1="-50.227" x2="60.583" style="fill-rule:evenodd;clip-rule:evenodd;fill:none;stroke:#EC008C;stroke-width:0.9;" x1="62.314" y2="-51.201"/>
  <line y1="-47.352" x2="58.298" style="fill-rule:evenodd;clip-rule:evenodd;fill:none;stroke:#EC008C;stroke-width:0.9;" x1="58.067" y2="-48.573"/>
  <line y1="-50.489" x2="51.146" style="fill-rule:evenodd;clip-rule:evenodd;fill:none;stroke:#EC008C;stroke-width:0.9;" x1="50.188" y2="-48.75"/>
  <line y1="-62.452" x2="58.186" style="fill-rule:evenodd;clip-rule:evenodd;fill:none;stroke:#EC008C;stroke-width:0.9;" x1="57.919" y2="-63.85"/>
  <line y1="-60.739" x2="78.481" style="fill-rule:evenodd;clip-rule:evenodd;fill:none;stroke:#EC008C;stroke-width:0.9;" x1="77.607" y2="-62.523"/>
  <line y1="-59.4" x2="73.364" style="fill-rule:evenodd;clip-rule:evenodd;fill:none;stroke:#EC008C;stroke-width:0.9;" x1="71.386" y2="-59.589"/>
  <line y1="-59.794" x2="68.124" style="fill-rule:evenodd;clip-rule:evenodd;fill:none;stroke:#EC008C;stroke-width:0.9;" x1="66.74" y2="-61.218"/>
  <line y1="-54.636" x2="76.358" style="fill-rule:evenodd;clip-rule:evenodd;fill:none;stroke:#EC008C;stroke-width:0.9;" x1="75.914" y2="-56.572"/>
  <line y1="-55.66" x2="69.27" style="fill-rule:evenodd;clip-rule:evenodd;fill:none;stroke:#EC008C;stroke-width:0.9;" x1="71.189" y2="-56.171"/>
  <line y1="-57.274" x2="64.105" style="fill-rule:evenodd;clip-rule:evenodd;fill:none;stroke:#EC008C;stroke-width:0.9;" x1="64.85" y2="-59.116"/>
  <line y1="-53.809" x2="65.019" style="fill-rule:evenodd;clip-rule:evenodd;fill:none;stroke:#EC008C;stroke-width:0.9;" x1="66.819" y2="-52.969"/>
  <line y1="-51.644" x2="70.792" style="fill-rule:evenodd;clip-rule:evenodd;fill:none;stroke:#EC008C;stroke-width:0.9;" x1="72.489" y2="-50.611"/>
  <line y1="-50.227" x2="76.423" style="fill-rule:evenodd;clip-rule:evenodd;fill:none;stroke:#EC008C;stroke-width:0.9;" x1="78.153" y2="-51.201"/>
  <line y1="-47.352" x2="74.137" style="fill-rule:evenodd;clip-rule:evenodd;fill:none;stroke:#EC008C;stroke-width:0.9;" x1="73.906" y2="-48.573"/>
  <line y1="-50.489" x2="66.985" style="fill-rule:evenodd;clip-rule:evenodd;fill:none;stroke:#EC008C;stroke-width:0.9;" x1="66.027" y2="-48.75"/>
  <line y1="-62.452" x2="74.024" style="fill-rule:evenodd;clip-rule:evenodd;fill:none;stroke:#EC008C;stroke-width:0.9;" x1="73.758" y2="-63.85"/>
  <line y1="-76.578" x2="15.125" style="fill-rule:evenodd;clip-rule:evenodd;fill:none;stroke:#EC008C;stroke-width:0.9;" x1="14.252" y2="-78.362"/>
  <line y1="-75.239" x2="10.008" style="fill-rule:evenodd;clip-rule:evenodd;fill:none;stroke:#EC008C;stroke-width:0.9;" x1="8.03" y2="-75.428"/>
  <line y1="-75.633" x2="4.769" style="fill-rule:evenodd;clip-rule:evenodd;fill:none;stroke:#EC008C;stroke-width:0.9;" x1="3.384" y2="-77.057"/>
  <line y1="-70.475" x2="13.002" style="fill-rule:evenodd;clip-rule:evenodd;fill:none;stroke:#EC008C;stroke-width:0.9;" x1="12.558" y2="-72.411"/>
  <line y1="-72.01" x2="7.833" style="fill-rule:evenodd;clip-rule:evenodd;fill:none;stroke:#EC008C;stroke-width:0.9;" x1="5.914" y2="-71.498"/>
  <line y1="-74.955" x2="1.494" style="fill-rule:evenodd;clip-rule:evenodd;fill:none;stroke:#EC008C;stroke-width:0.9;" x1="0.749" y2="-73.113"/>
  <line y1="-69.648" x2="1.663" style="fill-rule:evenodd;clip-rule:evenodd;fill:none;stroke:#EC008C;stroke-width:0.9;" x1="3.463" y2="-68.808"/>
  <line y1="-67.482" x2="7.436" style="fill-rule:evenodd;clip-rule:evenodd;fill:none;stroke:#EC008C;stroke-width:0.9;" x1="9.133" y2="-66.45"/>
  <line y1="-66.066" x2="13.067" style="fill-rule:evenodd;clip-rule:evenodd;fill:none;stroke:#EC008C;stroke-width:0.9;" x1="14.797" y2="-67.04"/>
  <line y1="-63.191" x2="10.781" style="fill-rule:evenodd;clip-rule:evenodd;fill:none;stroke:#EC008C;stroke-width:0.9;" x1="10.55" y2="-64.412"/>
  <line y1="-66.328" x2="3.629" style="fill-rule:evenodd;clip-rule:evenodd;fill:none;stroke:#EC008C;stroke-width:0.9;" x1="2.671" y2="-64.588"/>
  <line y1="-79.334" x2="10.402" style="fill-rule:evenodd;clip-rule:evenodd;fill:none;stroke:#EC008C;stroke-width:0.9;" x1="10.601" y2="-78.29"/>
  <line y1="-76.578" x2="30.964" style="fill-rule:evenodd;clip-rule:evenodd;fill:none;stroke:#EC008C;stroke-width:0.9;" x1="30.09" y2="-78.362"/>
  <line y1="-75.239" x2="25.847" style="fill-rule:evenodd;clip-rule:evenodd;fill:none;stroke:#EC008C;stroke-width:0.9;" x1="23.869" y2="-75.428"/>
  <line y1="-75.633" x2="20.608" style="fill-rule:evenodd;clip-rule:evenodd;fill:none;stroke:#EC008C;stroke-width:0.9;" x1="19.223" y2="-77.057"/>
  <line y1="-70.475" x2="28.841" style="fill-rule:evenodd;clip-rule:evenodd;fill:none;stroke:#EC008C;stroke-width:0.9;" x1="28.397" y2="-72.411"/>
  <line y1="-72.01" x2="23.672" style="fill-rule:evenodd;clip-rule:evenodd;fill:none;stroke:#EC008C;stroke-width:0.9;" x1="21.753" y2="-71.498"/>
  <line y1="-74.955" x2="17.333" style="fill-rule:evenodd;clip-rule:evenodd;fill:none;stroke:#EC008C;stroke-width:0.9;" x1="16.589" y2="-73.113"/>
  <line y1="-69.648" x2="17.502" style="fill-rule:evenodd;clip-rule:evenodd;fill:none;stroke:#EC008C;stroke-width:0.9;" x1="19.302" y2="-68.808"/>
  <line y1="-67.482" x2="23.275" style="fill-rule:evenodd;clip-rule:evenodd;fill:none;stroke:#EC008C;stroke-width:0.9;" x1="24.972" y2="-66.45"/>
  <line y1="-66.066" x2="28.906" style="fill-rule:evenodd;clip-rule:evenodd;fill:none;stroke:#EC008C;stroke-width:0.9;" x1="30.636" y2="-67.04"/>
  <line y1="-63.191" x2="26.62" style="fill-rule:evenodd;clip-rule:evenodd;fill:none;stroke:#EC008C;stroke-width:0.9;" x1="26.39" y2="-64.412"/>
  <line y1="-66.328" x2="19.469" style="fill-rule:evenodd;clip-rule:evenodd;fill:none;stroke:#EC008C;stroke-width:0.9;" x1="18.51" y2="-64.588"/>
  <line y1="-79.334" x2="26.241" style="fill-rule:evenodd;clip-rule:evenodd;fill:none;stroke:#EC008C;stroke-width:0.9;" x1="26.44" y2="-78.29"/>
  <line y1="-76.578" x2="46.803" style="fill-rule:evenodd;clip-rule:evenodd;fill:none;stroke:#EC008C;stroke-width:0.9;" x1="45.929" y2="-78.362"/>
  <line y1="-75.239" x2="41.686" style="fill-rule:evenodd;clip-rule:evenodd;fill:none;stroke:#EC008C;stroke-width:0.9;" x1="39.708" y2="-75.428"/>
  <line y1="-75.633" x2="36.447" style="fill-rule:evenodd;clip-rule:evenodd;fill:none;stroke:#EC008C;stroke-width:0.9;" x1="35.062" y2="-77.057"/>
  <line y1="-70.475" x2="44.68" style="fill-rule:evenodd;clip-rule:evenodd;fill:none;stroke:#EC008C;stroke-width:0.9;" x1="44.236" y2="-72.411"/>
  <line y1="-72.01" x2="39.511" style="fill-rule:evenodd;clip-rule:evenodd;fill:none;stroke:#EC008C;stroke-width:0.9;" x1="37.592" y2="-71.498"/>
  <line y1="-74.955" x2="33.172" style="fill-rule:evenodd;clip-rule:evenodd;fill:none;stroke:#EC008C;stroke-width:0.9;" x1="32.428" y2="-73.113"/>
  <line y1="-69.648" x2="33.341" style="fill-rule:evenodd;clip-rule:evenodd;fill:none;stroke:#EC008C;stroke-width:0.9;" x1="35.141" y2="-68.808"/>
  <line y1="-67.482" x2="39.114" style="fill-rule:evenodd;clip-rule:evenodd;fill:none;stroke:#EC008C;stroke-width:0.9;" x1="40.811" y2="-66.45"/>
  <line y1="-66.066" x2="44.745" style="fill-rule:evenodd;clip-rule:evenodd;fill:none;stroke:#EC008C;stroke-width:0.9;" x1="46.475" y2="-67.04"/>
  <line y1="-63.191" x2="42.459" style="fill-rule:evenodd;clip-rule:evenodd;fill:none;stroke:#EC008C;stroke-width:0.9;" x1="42.229" y2="-64.412"/>
  <line y1="-66.328" x2="35.308" style="fill-rule:evenodd;clip-rule:evenodd;fill:none;stroke:#EC008C;stroke-width:0.9;" x1="34.349" y2="-64.588"/>
  <line y1="-79.334" x2="42.08" style="fill-rule:evenodd;clip-rule:evenodd;fill:none;stroke:#EC008C;stroke-width:0.9;" x1="42.279" y2="-78.29"/>
  <line y1="-76.578" x2="62.642" style="fill-rule:evenodd;clip-rule:evenodd;fill:none;stroke:#EC008C;stroke-width:0.9;" x1="61.769" y2="-78.362"/>
  <line y1="-75.239" x2="57.524" style="fill-rule:evenodd;clip-rule:evenodd;fill:none;stroke:#EC008C;stroke-width:0.9;" x1="55.547" y2="-75.428"/>
  <line y1="-75.633" x2="52.286" style="fill-rule:evenodd;clip-rule:evenodd;fill:none;stroke:#EC008C;stroke-width:0.9;" x1="50.901" y2="-77.057"/>
  <line y1="-70.475" x2="60.519" style="fill-rule:evenodd;clip-rule:evenodd;fill:none;stroke:#EC008C;stroke-width:0.9;" x1="60.075" y2="-72.411"/>
  <line y1="-72.01" x2="55.35" style="fill-rule:evenodd;clip-rule:evenodd;fill:none;stroke:#EC008C;stroke-width:0.9;" x1="53.431" y2="-71.498"/>
  <line y1="-74.955" x2="49.011" style="fill-rule:evenodd;clip-rule:evenodd;fill:none;stroke:#EC008C;stroke-width:0.9;" x1="48.267" y2="-73.113"/>
  <line y1="-69.648" x2="49.18" style="fill-rule:evenodd;clip-rule:evenodd;fill:none;stroke:#EC008C;stroke-width:0.9;" x1="50.979" y2="-68.808"/>
  <line y1="-67.482" x2="54.953" style="fill-rule:evenodd;clip-rule:evenodd;fill:none;stroke:#EC008C;stroke-width:0.9;" x1="56.65" y2="-66.45"/>
  <line y1="-66.066" x2="60.583" style="fill-rule:evenodd;clip-rule:evenodd;fill:none;stroke:#EC008C;stroke-width:0.9;" x1="62.314" y2="-67.04"/>
  <line y1="-63.191" x2="58.298" style="fill-rule:evenodd;clip-rule:evenodd;fill:none;stroke:#EC008C;stroke-width:0.9;" x1="58.067" y2="-64.412"/>
  <line y1="-66.328" x2="51.146" style="fill-rule:evenodd;clip-rule:evenodd;fill:none;stroke:#EC008C;stroke-width:0.9;" x1="50.188" y2="-64.588"/>
  <line y1="-79.334" x2="57.919" style="fill-rule:evenodd;clip-rule:evenodd;fill:none;stroke:#EC008C;stroke-width:0.9;" x1="58.118" y2="-78.29"/>
  <line y1="-76.578" x2="78.481" style="fill-rule:evenodd;clip-rule:evenodd;fill:none;stroke:#EC008C;stroke-width:0.9;" x1="77.607" y2="-78.362"/>
  <line y1="-75.239" x2="73.364" style="fill-rule:evenodd;clip-rule:evenodd;fill:none;stroke:#EC008C;stroke-width:0.9;" x1="71.386" y2="-75.428"/>
  <line y1="-75.633" x2="68.124" style="fill-rule:evenodd;clip-rule:evenodd;fill:none;stroke:#EC008C;stroke-width:0.9;" x1="66.74" y2="-77.057"/>
  <line y1="-70.475" x2="76.358" style="fill-rule:evenodd;clip-rule:evenodd;fill:none;stroke:#EC008C;stroke-width:0.9;" x1="75.914" y2="-72.411"/>
  <line y1="-72.01" x2="71.189" style="fill-rule:evenodd;clip-rule:evenodd;fill:none;stroke:#EC008C;stroke-width:0.9;" x1="69.27" y2="-71.498"/>
  <line y1="-74.955" x2="64.85" style="fill-rule:evenodd;clip-rule:evenodd;fill:none;stroke:#EC008C;stroke-width:0.9;" x1="64.105" y2="-73.113"/>
  <line y1="-69.648" x2="65.019" style="fill-rule:evenodd;clip-rule:evenodd;fill:none;stroke:#EC008C;stroke-width:0.9;" x1="66.819" y2="-68.808"/>
  <line y1="-67.482" x2="70.792" style="fill-rule:evenodd;clip-rule:evenodd;fill:none;stroke:#EC008C;stroke-width:0.9;" x1="72.489" y2="-66.45"/>
  <line y1="-66.066" x2="76.423" style="fill-rule:evenodd;clip-rule:evenodd;fill:none;stroke:#EC008C;stroke-width:0.9;" x1="78.153" y2="-67.04"/>
  <line y1="-63.191" x2="74.137" style="fill-rule:evenodd;clip-rule:evenodd;fill:none;stroke:#EC008C;stroke-width:0.9;" x1="73.906" y2="-64.412"/>
  <line y1="-66.328" x2="66.985" style="fill-rule:evenodd;clip-rule:evenodd;fill:none;stroke:#EC008C;stroke-width:0.9;" x1="66.027" y2="-64.588"/>
  <line y1="-79.334" x2="73.758" style="fill-rule:evenodd;clip-rule:evenodd;fill:none;stroke:#EC008C;stroke-width:0.9;" x1="73.957" y2="-78.29"/>
 </g>
</svg>
