<?xml version="1.0"?>
<!-- Converted with SVG Converter - Version 0.9.5 (Compiled Fri Feb 21 09:53:38 2020) - Copyright (C) 2011 Nokia -->
<svg xmlns="http://www.w3.org/2000/svg" width="79.25" y="0px" version="1.1" x="0px" xmlns:xlink="http://www.w3.org/1999/xlink" height="79.25" baseProfile="tiny" viewBox="1.85 -81.85 79.25 79.25" xml:space="preserve">
 <g>
  <rect width="79.25" y="-81.85" x="1.85" height="79.25" style="fill:none;"/>
  <line y1="-15.738" x2="16.975" style="fill-rule:evenodd;clip-rule:evenodd;fill:none;stroke:#000000;stroke-width:0.8;" y2="-17.522" x1="16.102"/>
  <line y1="-14.399" x2="11.858" style="fill-rule:evenodd;clip-rule:evenodd;fill:none;stroke:#000000;stroke-width:0.8;" y2="-14.588" x1="9.88"/>
  <line y1="-14.793" x2="6.619" style="fill-rule:evenodd;clip-rule:evenodd;fill:none;stroke:#000000;stroke-width:0.8;" y2="-16.217" x1="5.234"/>
  <line y1="-11.571" x2="14.408" style="fill-rule:evenodd;clip-rule:evenodd;fill:none;stroke:#000000;stroke-width:0.8;" y2="-9.635" x1="14.852"/>
  <line y1="-10.659" x2="7.764" style="fill-rule:evenodd;clip-rule:evenodd;fill:none;stroke:#000000;stroke-width:0.8;" y2="-11.17" x1="9.684"/>
  <line y1="-12.273" x2="2.6" style="fill-rule:evenodd;clip-rule:evenodd;fill:none;stroke:#000000;stroke-width:0.8;" y2="-14.115" x1="3.344"/>
  <line y1="-8.808" x2="3.513" style="fill-rule:evenodd;clip-rule:evenodd;fill:none;stroke:#000000;stroke-width:0.8;" y2="-7.968" x1="5.313"/>
  <line y1="-6.643" x2="9.286" style="fill-rule:evenodd;clip-rule:evenodd;fill:none;stroke:#000000;stroke-width:0.8;" y2="-5.61" x1="10.983"/>
  <line y1="-5.226" x2="14.917" style="fill-rule:evenodd;clip-rule:evenodd;fill:none;stroke:#000000;stroke-width:0.8;" y2="-6.201" x1="16.647"/>
  <line y1="-3.572" x2="12.448" style="fill-rule:evenodd;clip-rule:evenodd;fill:none;stroke:#000000;stroke-width:0.8;" y2="-2.6" x1="12.631"/>
  <line y1="-3.749" x2="4.521" style="fill-rule:evenodd;clip-rule:evenodd;fill:none;stroke:#000000;stroke-width:0.8;" y2="-5.488" x1="5.479"/>
  <line y1="-18.849" x2="12.252" style="fill-rule:evenodd;clip-rule:evenodd;fill:none;stroke:#000000;stroke-width:0.8;" y2="-17.451" x1="12.519"/>
  <line y1="-15.738" x2="32.814" style="fill-rule:evenodd;clip-rule:evenodd;fill:none;stroke:#000000;stroke-width:0.8;" y2="-17.522" x1="31.94"/>
  <line y1="-14.399" x2="27.697" style="fill-rule:evenodd;clip-rule:evenodd;fill:none;stroke:#000000;stroke-width:0.8;" y2="-14.588" x1="25.719"/>
  <line y1="-14.793" x2="22.458" style="fill-rule:evenodd;clip-rule:evenodd;fill:none;stroke:#000000;stroke-width:0.8;" y2="-16.217" x1="21.073"/>
  <line y1="-11.571" x2="30.248" style="fill-rule:evenodd;clip-rule:evenodd;fill:none;stroke:#000000;stroke-width:0.8;" y2="-9.635" x1="30.691"/>
  <line y1="-10.659" x2="23.604" style="fill-rule:evenodd;clip-rule:evenodd;fill:none;stroke:#000000;stroke-width:0.8;" y2="-11.17" x1="25.522"/>
  <line y1="-12.273" x2="18.439" style="fill-rule:evenodd;clip-rule:evenodd;fill:none;stroke:#000000;stroke-width:0.8;" y2="-14.115" x1="19.183"/>
  <line y1="-8.808" x2="19.352" style="fill-rule:evenodd;clip-rule:evenodd;fill:none;stroke:#000000;stroke-width:0.8;" y2="-7.968" x1="21.152"/>
  <line y1="-6.643" x2="25.125" style="fill-rule:evenodd;clip-rule:evenodd;fill:none;stroke:#000000;stroke-width:0.8;" y2="-5.61" x1="26.822"/>
  <line y1="-5.226" x2="30.756" style="fill-rule:evenodd;clip-rule:evenodd;fill:none;stroke:#000000;stroke-width:0.8;" y2="-6.201" x1="32.486"/>
  <line y1="-3.572" x2="28.358" style="fill-rule:evenodd;clip-rule:evenodd;fill:none;stroke:#000000;stroke-width:0.8;" y2="-2.6" x1="28.542"/>
  <line y1="-3.749" x2="20.36" style="fill-rule:evenodd;clip-rule:evenodd;fill:none;stroke:#000000;stroke-width:0.8;" y2="-5.488" x1="21.319"/>
  <line y1="-18.849" x2="28.091" style="fill-rule:evenodd;clip-rule:evenodd;fill:none;stroke:#000000;stroke-width:0.8;" y2="-17.451" x1="28.357"/>
  <line y1="-15.738" x2="48.653" style="fill-rule:evenodd;clip-rule:evenodd;fill:none;stroke:#000000;stroke-width:0.8;" y2="-17.522" x1="47.779"/>
  <line y1="-14.399" x2="43.536" style="fill-rule:evenodd;clip-rule:evenodd;fill:none;stroke:#000000;stroke-width:0.8;" y2="-14.588" x1="41.558"/>
  <line y1="-14.793" x2="38.297" style="fill-rule:evenodd;clip-rule:evenodd;fill:none;stroke:#000000;stroke-width:0.8;" y2="-16.217" x1="36.912"/>
  <line y1="-11.571" x2="46.086" style="fill-rule:evenodd;clip-rule:evenodd;fill:none;stroke:#000000;stroke-width:0.8;" y2="-9.635" x1="46.53"/>
  <line y1="-10.659" x2="39.442" style="fill-rule:evenodd;clip-rule:evenodd;fill:none;stroke:#000000;stroke-width:0.8;" y2="-11.17" x1="41.361"/>
  <line y1="-12.273" x2="34.278" style="fill-rule:evenodd;clip-rule:evenodd;fill:none;stroke:#000000;stroke-width:0.8;" y2="-14.115" x1="35.022"/>
  <line y1="-8.808" x2="35.191" style="fill-rule:evenodd;clip-rule:evenodd;fill:none;stroke:#000000;stroke-width:0.8;" y2="-7.968" x1="36.991"/>
  <line y1="-6.643" x2="40.964" style="fill-rule:evenodd;clip-rule:evenodd;fill:none;stroke:#000000;stroke-width:0.8;" y2="-5.61" x1="42.661"/>
  <line y1="-5.226" x2="46.595" style="fill-rule:evenodd;clip-rule:evenodd;fill:none;stroke:#000000;stroke-width:0.8;" y2="-6.201" x1="48.325"/>
  <line y1="-3.572" x2="44.125" style="fill-rule:evenodd;clip-rule:evenodd;fill:none;stroke:#000000;stroke-width:0.8;" y2="-2.6" x1="44.309"/>
  <line y1="-3.749" x2="36.199" style="fill-rule:evenodd;clip-rule:evenodd;fill:none;stroke:#000000;stroke-width:0.8;" y2="-5.488" x1="37.158"/>
  <line y1="-18.849" x2="43.93" style="fill-rule:evenodd;clip-rule:evenodd;fill:none;stroke:#000000;stroke-width:0.8;" y2="-17.451" x1="44.196"/>
  <line y1="-15.738" x2="64.492" style="fill-rule:evenodd;clip-rule:evenodd;fill:none;stroke:#000000;stroke-width:0.8;" y2="-17.522" x1="63.619"/>
  <line y1="-14.399" x2="59.375" style="fill-rule:evenodd;clip-rule:evenodd;fill:none;stroke:#000000;stroke-width:0.8;" y2="-14.588" x1="57.397"/>
  <line y1="-14.793" x2="54.136" style="fill-rule:evenodd;clip-rule:evenodd;fill:none;stroke:#000000;stroke-width:0.8;" y2="-16.217" x1="52.751"/>
  <line y1="-11.571" x2="61.925" style="fill-rule:evenodd;clip-rule:evenodd;fill:none;stroke:#000000;stroke-width:0.8;" y2="-9.635" x1="62.369"/>
  <line y1="-10.659" x2="55.281" style="fill-rule:evenodd;clip-rule:evenodd;fill:none;stroke:#000000;stroke-width:0.8;" y2="-11.17" x1="57.2"/>
  <line y1="-12.273" x2="50.117" style="fill-rule:evenodd;clip-rule:evenodd;fill:none;stroke:#000000;stroke-width:0.8;" y2="-14.115" x1="50.861"/>
  <line y1="-8.808" x2="51.03" style="fill-rule:evenodd;clip-rule:evenodd;fill:none;stroke:#000000;stroke-width:0.8;" y2="-7.968" x1="52.83"/>
  <line y1="-6.643" x2="56.803" style="fill-rule:evenodd;clip-rule:evenodd;fill:none;stroke:#000000;stroke-width:0.8;" y2="-5.61" x1="58.5"/>
  <line y1="-5.226" x2="62.434" style="fill-rule:evenodd;clip-rule:evenodd;fill:none;stroke:#000000;stroke-width:0.8;" y2="-6.201" x1="64.165"/>
  <line y1="-3.572" x2="59.964" style="fill-rule:evenodd;clip-rule:evenodd;fill:none;stroke:#000000;stroke-width:0.8;" y2="-2.6" x1="60.148"/>
  <line y1="-3.749" x2="52.038" style="fill-rule:evenodd;clip-rule:evenodd;fill:none;stroke:#000000;stroke-width:0.8;" y2="-5.488" x1="52.997"/>
  <line y1="-18.849" x2="59.769" style="fill-rule:evenodd;clip-rule:evenodd;fill:none;stroke:#000000;stroke-width:0.8;" y2="-17.451" x1="60.036"/>
  <line y1="-15.738" x2="80.331" style="fill-rule:evenodd;clip-rule:evenodd;fill:none;stroke:#000000;stroke-width:0.8;" y2="-17.522" x1="79.457"/>
  <line y1="-14.399" x2="75.214" style="fill-rule:evenodd;clip-rule:evenodd;fill:none;stroke:#000000;stroke-width:0.8;" y2="-14.588" x1="73.236"/>
  <line y1="-14.793" x2="69.975" style="fill-rule:evenodd;clip-rule:evenodd;fill:none;stroke:#000000;stroke-width:0.8;" y2="-16.217" x1="68.59"/>
  <line y1="-11.571" x2="77.764" style="fill-rule:evenodd;clip-rule:evenodd;fill:none;stroke:#000000;stroke-width:0.8;" y2="-9.635" x1="78.208"/>
  <line y1="-10.659" x2="71.12" style="fill-rule:evenodd;clip-rule:evenodd;fill:none;stroke:#000000;stroke-width:0.8;" y2="-11.17" x1="73.04"/>
  <line y1="-12.273" x2="65.956" style="fill-rule:evenodd;clip-rule:evenodd;fill:none;stroke:#000000;stroke-width:0.8;" y2="-14.115" x1="66.7"/>
  <line y1="-8.808" x2="66.869" style="fill-rule:evenodd;clip-rule:evenodd;fill:none;stroke:#000000;stroke-width:0.8;" y2="-7.968" x1="68.669"/>
  <line y1="-6.643" x2="72.642" style="fill-rule:evenodd;clip-rule:evenodd;fill:none;stroke:#000000;stroke-width:0.8;" y2="-5.61" x1="74.339"/>
  <line y1="-5.226" x2="78.273" style="fill-rule:evenodd;clip-rule:evenodd;fill:none;stroke:#000000;stroke-width:0.8;" y2="-6.201" x1="80.003"/>
  <line y1="-3.572" x2="75.804" style="fill-rule:evenodd;clip-rule:evenodd;fill:none;stroke:#000000;stroke-width:0.8;" y2="-2.6" x1="75.987"/>
  <line y1="-3.749" x2="67.877" style="fill-rule:evenodd;clip-rule:evenodd;fill:none;stroke:#000000;stroke-width:0.8;" y2="-5.488" x1="68.835"/>
  <line y1="-18.849" x2="75.608" style="fill-rule:evenodd;clip-rule:evenodd;fill:none;stroke:#000000;stroke-width:0.8;" y2="-17.451" x1="75.874"/>
  <line y1="-31.577" x2="16.975" style="fill-rule:evenodd;clip-rule:evenodd;fill:none;stroke:#000000;stroke-width:0.8;" y2="-33.361" x1="16.102"/>
  <line y1="-30.238" x2="11.858" style="fill-rule:evenodd;clip-rule:evenodd;fill:none;stroke:#000000;stroke-width:0.8;" y2="-30.427" x1="9.88"/>
  <line y1="-30.632" x2="6.619" style="fill-rule:evenodd;clip-rule:evenodd;fill:none;stroke:#000000;stroke-width:0.8;" y2="-32.057" x1="5.234"/>
  <line y1="-25.474" x2="14.852" style="fill-rule:evenodd;clip-rule:evenodd;fill:none;stroke:#000000;stroke-width:0.8;" y2="-27.41" x1="14.408"/>
  <line y1="-26.498" x2="7.764" style="fill-rule:evenodd;clip-rule:evenodd;fill:none;stroke:#000000;stroke-width:0.8;" y2="-27.01" x1="9.684"/>
  <line y1="-28.112" x2="2.6" style="fill-rule:evenodd;clip-rule:evenodd;fill:none;stroke:#000000;stroke-width:0.8;" y2="-29.954" x1="3.344"/>
  <line y1="-24.647" x2="3.513" style="fill-rule:evenodd;clip-rule:evenodd;fill:none;stroke:#000000;stroke-width:0.8;" y2="-23.807" x1="5.313"/>
  <line y1="-22.481" x2="9.286" style="fill-rule:evenodd;clip-rule:evenodd;fill:none;stroke:#000000;stroke-width:0.8;" y2="-21.449" x1="10.983"/>
  <line y1="-21.065" x2="14.917" style="fill-rule:evenodd;clip-rule:evenodd;fill:none;stroke:#000000;stroke-width:0.8;" y2="-22.04" x1="16.647"/>
  <line y1="-18.19" x2="12.631" style="fill-rule:evenodd;clip-rule:evenodd;fill:none;stroke:#000000;stroke-width:0.8;" y2="-19.411" x1="12.4"/>
  <line y1="-21.327" x2="5.479" style="fill-rule:evenodd;clip-rule:evenodd;fill:none;stroke:#000000;stroke-width:0.8;" y2="-19.587" x1="4.521"/>
  <line y1="-34.688" x2="12.252" style="fill-rule:evenodd;clip-rule:evenodd;fill:none;stroke:#000000;stroke-width:0.8;" y2="-33.29" x1="12.519"/>
  <line y1="-31.577" x2="32.814" style="fill-rule:evenodd;clip-rule:evenodd;fill:none;stroke:#000000;stroke-width:0.8;" y2="-33.361" x1="31.94"/>
  <line y1="-30.238" x2="27.697" style="fill-rule:evenodd;clip-rule:evenodd;fill:none;stroke:#000000;stroke-width:0.8;" y2="-30.427" x1="25.719"/>
  <line y1="-30.632" x2="22.458" style="fill-rule:evenodd;clip-rule:evenodd;fill:none;stroke:#000000;stroke-width:0.8;" y2="-32.057" x1="21.073"/>
  <line y1="-25.474" x2="30.691" style="fill-rule:evenodd;clip-rule:evenodd;fill:none;stroke:#000000;stroke-width:0.8;" y2="-27.41" x1="30.248"/>
  <line y1="-26.498" x2="23.604" style="fill-rule:evenodd;clip-rule:evenodd;fill:none;stroke:#000000;stroke-width:0.8;" y2="-27.01" x1="25.522"/>
  <line y1="-28.112" x2="18.439" style="fill-rule:evenodd;clip-rule:evenodd;fill:none;stroke:#000000;stroke-width:0.8;" y2="-29.954" x1="19.183"/>
  <line y1="-24.647" x2="19.352" style="fill-rule:evenodd;clip-rule:evenodd;fill:none;stroke:#000000;stroke-width:0.8;" y2="-23.807" x1="21.152"/>
  <line y1="-22.481" x2="25.125" style="fill-rule:evenodd;clip-rule:evenodd;fill:none;stroke:#000000;stroke-width:0.8;" y2="-21.449" x1="26.822"/>
  <line y1="-21.065" x2="30.756" style="fill-rule:evenodd;clip-rule:evenodd;fill:none;stroke:#000000;stroke-width:0.8;" y2="-22.04" x1="32.486"/>
  <line y1="-18.19" x2="28.47" style="fill-rule:evenodd;clip-rule:evenodd;fill:none;stroke:#000000;stroke-width:0.8;" y2="-19.411" x1="28.24"/>
  <line y1="-21.327" x2="21.319" style="fill-rule:evenodd;clip-rule:evenodd;fill:none;stroke:#000000;stroke-width:0.8;" y2="-19.587" x1="20.36"/>
  <line y1="-34.688" x2="28.091" style="fill-rule:evenodd;clip-rule:evenodd;fill:none;stroke:#000000;stroke-width:0.8;" y2="-33.29" x1="28.357"/>
  <line y1="-31.577" x2="48.653" style="fill-rule:evenodd;clip-rule:evenodd;fill:none;stroke:#000000;stroke-width:0.8;" y2="-33.361" x1="47.779"/>
  <line y1="-30.238" x2="43.536" style="fill-rule:evenodd;clip-rule:evenodd;fill:none;stroke:#000000;stroke-width:0.8;" y2="-30.427" x1="41.558"/>
  <line y1="-30.632" x2="38.297" style="fill-rule:evenodd;clip-rule:evenodd;fill:none;stroke:#000000;stroke-width:0.8;" y2="-32.057" x1="36.912"/>
  <line y1="-25.474" x2="46.53" style="fill-rule:evenodd;clip-rule:evenodd;fill:none;stroke:#000000;stroke-width:0.8;" y2="-27.41" x1="46.086"/>
  <line y1="-26.498" x2="39.442" style="fill-rule:evenodd;clip-rule:evenodd;fill:none;stroke:#000000;stroke-width:0.8;" y2="-27.01" x1="41.361"/>
  <line y1="-28.112" x2="34.278" style="fill-rule:evenodd;clip-rule:evenodd;fill:none;stroke:#000000;stroke-width:0.8;" y2="-29.954" x1="35.022"/>
  <line y1="-24.647" x2="35.191" style="fill-rule:evenodd;clip-rule:evenodd;fill:none;stroke:#000000;stroke-width:0.8;" y2="-23.807" x1="36.991"/>
  <line y1="-22.481" x2="40.964" style="fill-rule:evenodd;clip-rule:evenodd;fill:none;stroke:#000000;stroke-width:0.8;" y2="-21.449" x1="42.661"/>
  <line y1="-21.065" x2="46.595" style="fill-rule:evenodd;clip-rule:evenodd;fill:none;stroke:#000000;stroke-width:0.8;" y2="-22.04" x1="48.325"/>
  <line y1="-18.19" x2="44.309" style="fill-rule:evenodd;clip-rule:evenodd;fill:none;stroke:#000000;stroke-width:0.8;" y2="-19.411" x1="44.079"/>
  <line y1="-21.327" x2="37.158" style="fill-rule:evenodd;clip-rule:evenodd;fill:none;stroke:#000000;stroke-width:0.8;" y2="-19.587" x1="36.199"/>
  <line y1="-34.688" x2="43.93" style="fill-rule:evenodd;clip-rule:evenodd;fill:none;stroke:#000000;stroke-width:0.8;" y2="-33.29" x1="44.196"/>
  <line y1="-31.577" x2="64.492" style="fill-rule:evenodd;clip-rule:evenodd;fill:none;stroke:#000000;stroke-width:0.8;" y2="-33.361" x1="63.619"/>
  <line y1="-30.238" x2="59.375" style="fill-rule:evenodd;clip-rule:evenodd;fill:none;stroke:#000000;stroke-width:0.8;" y2="-30.427" x1="57.397"/>
  <line y1="-30.632" x2="54.136" style="fill-rule:evenodd;clip-rule:evenodd;fill:none;stroke:#000000;stroke-width:0.8;" y2="-32.057" x1="52.751"/>
  <line y1="-25.474" x2="62.369" style="fill-rule:evenodd;clip-rule:evenodd;fill:none;stroke:#000000;stroke-width:0.8;" y2="-27.41" x1="61.925"/>
  <line y1="-26.498" x2="55.281" style="fill-rule:evenodd;clip-rule:evenodd;fill:none;stroke:#000000;stroke-width:0.8;" y2="-27.01" x1="57.2"/>
  <line y1="-28.112" x2="50.117" style="fill-rule:evenodd;clip-rule:evenodd;fill:none;stroke:#000000;stroke-width:0.8;" y2="-29.954" x1="50.861"/>
  <line y1="-24.647" x2="51.03" style="fill-rule:evenodd;clip-rule:evenodd;fill:none;stroke:#000000;stroke-width:0.8;" y2="-23.807" x1="52.83"/>
  <line y1="-22.481" x2="56.803" style="fill-rule:evenodd;clip-rule:evenodd;fill:none;stroke:#000000;stroke-width:0.8;" y2="-21.449" x1="58.5"/>
  <line y1="-21.065" x2="62.434" style="fill-rule:evenodd;clip-rule:evenodd;fill:none;stroke:#000000;stroke-width:0.8;" y2="-22.04" x1="64.165"/>
  <line y1="-18.19" x2="60.148" style="fill-rule:evenodd;clip-rule:evenodd;fill:none;stroke:#000000;stroke-width:0.8;" y2="-19.411" x1="59.917"/>
  <line y1="-21.327" x2="52.997" style="fill-rule:evenodd;clip-rule:evenodd;fill:none;stroke:#000000;stroke-width:0.8;" y2="-19.587" x1="52.038"/>
  <line y1="-34.688" x2="59.769" style="fill-rule:evenodd;clip-rule:evenodd;fill:none;stroke:#000000;stroke-width:0.8;" y2="-33.29" x1="60.036"/>
  <line y1="-31.577" x2="80.331" style="fill-rule:evenodd;clip-rule:evenodd;fill:none;stroke:#000000;stroke-width:0.8;" y2="-33.361" x1="79.457"/>
  <line y1="-30.238" x2="75.214" style="fill-rule:evenodd;clip-rule:evenodd;fill:none;stroke:#000000;stroke-width:0.8;" y2="-30.427" x1="73.236"/>
  <line y1="-30.632" x2="69.975" style="fill-rule:evenodd;clip-rule:evenodd;fill:none;stroke:#000000;stroke-width:0.8;" y2="-32.057" x1="68.59"/>
  <line y1="-25.474" x2="78.208" style="fill-rule:evenodd;clip-rule:evenodd;fill:none;stroke:#000000;stroke-width:0.8;" y2="-27.41" x1="77.764"/>
  <line y1="-26.498" x2="71.12" style="fill-rule:evenodd;clip-rule:evenodd;fill:none;stroke:#000000;stroke-width:0.8;" y2="-27.01" x1="73.04"/>
  <line y1="-28.112" x2="65.956" style="fill-rule:evenodd;clip-rule:evenodd;fill:none;stroke:#000000;stroke-width:0.8;" y2="-29.954" x1="66.7"/>
  <line y1="-24.647" x2="66.869" style="fill-rule:evenodd;clip-rule:evenodd;fill:none;stroke:#000000;stroke-width:0.8;" y2="-23.807" x1="68.669"/>
  <line y1="-22.481" x2="72.642" style="fill-rule:evenodd;clip-rule:evenodd;fill:none;stroke:#000000;stroke-width:0.8;" y2="-21.449" x1="74.339"/>
  <line y1="-21.065" x2="78.273" style="fill-rule:evenodd;clip-rule:evenodd;fill:none;stroke:#000000;stroke-width:0.8;" y2="-22.04" x1="80.003"/>
  <line y1="-18.19" x2="75.987" style="fill-rule:evenodd;clip-rule:evenodd;fill:none;stroke:#000000;stroke-width:0.8;" y2="-19.411" x1="75.756"/>
  <line y1="-21.327" x2="68.835" style="fill-rule:evenodd;clip-rule:evenodd;fill:none;stroke:#000000;stroke-width:0.8;" y2="-19.587" x1="67.877"/>
  <line y1="-34.688" x2="75.608" style="fill-rule:evenodd;clip-rule:evenodd;fill:none;stroke:#000000;stroke-width:0.8;" y2="-33.29" x1="75.874"/>
  <line y1="-47.416" x2="16.975" style="fill-rule:evenodd;clip-rule:evenodd;fill:none;stroke:#000000;stroke-width:0.8;" y2="-49.2" x1="16.102"/>
  <line y1="-46.078" x2="11.858" style="fill-rule:evenodd;clip-rule:evenodd;fill:none;stroke:#000000;stroke-width:0.8;" y2="-46.266" x1="9.88"/>
  <line y1="-46.471" x2="6.619" style="fill-rule:evenodd;clip-rule:evenodd;fill:none;stroke:#000000;stroke-width:0.8;" y2="-47.896" x1="5.234"/>
  <line y1="-41.313" x2="14.852" style="fill-rule:evenodd;clip-rule:evenodd;fill:none;stroke:#000000;stroke-width:0.8;" y2="-43.249" x1="14.408"/>
  <line y1="-42.337" x2="7.764" style="fill-rule:evenodd;clip-rule:evenodd;fill:none;stroke:#000000;stroke-width:0.8;" y2="-42.849" x1="9.684"/>
  <line y1="-43.951" x2="2.6" style="fill:none;stroke:#000000;stroke-width:0.8;" y2="-45.792" x1="3.344"/>
  <line y1="-40.486" x2="3.513" style="fill-rule:evenodd;clip-rule:evenodd;fill:none;stroke:#000000;stroke-width:0.8;" y2="-39.646" x1="5.313"/>
  <line y1="-38.321" x2="9.286" style="fill-rule:evenodd;clip-rule:evenodd;fill:none;stroke:#000000;stroke-width:0.8;" y2="-37.288" x1="10.983"/>
  <line y1="-36.904" x2="14.917" style="fill-rule:evenodd;clip-rule:evenodd;fill:none;stroke:#000000;stroke-width:0.8;" y2="-37.878" x1="16.647"/>
  <line y1="-34.029" x2="12.631" style="fill-rule:evenodd;clip-rule:evenodd;fill:none;stroke:#000000;stroke-width:0.8;" y2="-35.25" x1="12.4"/>
  <line y1="-37.167" x2="5.479" style="fill-rule:evenodd;clip-rule:evenodd;fill:none;stroke:#000000;stroke-width:0.8;" y2="-35.426" x1="4.521"/>
  <line y1="-50.527" x2="12.252" style="fill-rule:evenodd;clip-rule:evenodd;fill:none;stroke:#000000;stroke-width:0.8;" y2="-49.129" x1="12.519"/>
  <line y1="-47.416" x2="32.814" style="fill-rule:evenodd;clip-rule:evenodd;fill:none;stroke:#000000;stroke-width:0.8;" y2="-49.2" x1="31.94"/>
  <line y1="-46.078" x2="27.697" style="fill-rule:evenodd;clip-rule:evenodd;fill:none;stroke:#000000;stroke-width:0.8;" y2="-46.266" x1="25.719"/>
  <line y1="-46.471" x2="22.458" style="fill-rule:evenodd;clip-rule:evenodd;fill:none;stroke:#000000;stroke-width:0.8;" y2="-47.896" x1="21.073"/>
  <line y1="-41.313" x2="30.691" style="fill-rule:evenodd;clip-rule:evenodd;fill:none;stroke:#000000;stroke-width:0.8;" y2="-43.249" x1="30.248"/>
  <line y1="-42.337" x2="23.604" style="fill-rule:evenodd;clip-rule:evenodd;fill:none;stroke:#000000;stroke-width:0.8;" y2="-42.849" x1="25.522"/>
  <line y1="-43.951" x2="18.439" style="fill-rule:evenodd;clip-rule:evenodd;fill:none;stroke:#000000;stroke-width:0.8;" y2="-45.792" x1="19.183"/>
  <line y1="-40.486" x2="19.352" style="fill-rule:evenodd;clip-rule:evenodd;fill:none;stroke:#000000;stroke-width:0.8;" y2="-39.646" x1="21.152"/>
  <line y1="-38.321" x2="25.125" style="fill-rule:evenodd;clip-rule:evenodd;fill:none;stroke:#000000;stroke-width:0.8;" y2="-37.288" x1="26.822"/>
  <line y1="-36.904" x2="30.756" style="fill-rule:evenodd;clip-rule:evenodd;fill:none;stroke:#000000;stroke-width:0.8;" y2="-37.878" x1="32.486"/>
  <line y1="-34.029" x2="28.47" style="fill-rule:evenodd;clip-rule:evenodd;fill:none;stroke:#000000;stroke-width:0.8;" y2="-35.25" x1="28.24"/>
  <line y1="-37.167" x2="21.319" style="fill-rule:evenodd;clip-rule:evenodd;fill:none;stroke:#000000;stroke-width:0.8;" y2="-35.426" x1="20.36"/>
  <line y1="-50.527" x2="28.091" style="fill-rule:evenodd;clip-rule:evenodd;fill:none;stroke:#000000;stroke-width:0.8;" y2="-49.129" x1="28.357"/>
  <line y1="-47.416" x2="48.653" style="fill-rule:evenodd;clip-rule:evenodd;fill:none;stroke:#000000;stroke-width:0.8;" y2="-49.2" x1="47.779"/>
  <line y1="-46.078" x2="43.536" style="fill-rule:evenodd;clip-rule:evenodd;fill:none;stroke:#000000;stroke-width:0.8;" y2="-46.266" x1="41.558"/>
  <line y1="-46.471" x2="38.297" style="fill-rule:evenodd;clip-rule:evenodd;fill:none;stroke:#000000;stroke-width:0.8;" y2="-47.896" x1="36.912"/>
  <line y1="-41.313" x2="46.53" style="fill-rule:evenodd;clip-rule:evenodd;fill:none;stroke:#000000;stroke-width:0.8;" y2="-43.249" x1="46.086"/>
  <line y1="-42.337" x2="39.442" style="fill-rule:evenodd;clip-rule:evenodd;fill:none;stroke:#000000;stroke-width:0.8;" y2="-42.849" x1="41.361"/>
  <line y1="-43.951" x2="34.278" style="fill-rule:evenodd;clip-rule:evenodd;fill:none;stroke:#000000;stroke-width:0.8;" y2="-45.792" x1="35.022"/>
  <line y1="-40.486" x2="35.191" style="fill-rule:evenodd;clip-rule:evenodd;fill:none;stroke:#000000;stroke-width:0.8;" y2="-39.646" x1="36.991"/>
  <line y1="-38.321" x2="40.964" style="fill-rule:evenodd;clip-rule:evenodd;fill:none;stroke:#000000;stroke-width:0.8;" y2="-37.288" x1="42.661"/>
  <line y1="-36.904" x2="46.595" style="fill-rule:evenodd;clip-rule:evenodd;fill:none;stroke:#000000;stroke-width:0.8;" y2="-37.878" x1="48.325"/>
  <line y1="-34.029" x2="44.309" style="fill-rule:evenodd;clip-rule:evenodd;fill:none;stroke:#000000;stroke-width:0.8;" y2="-35.25" x1="44.079"/>
  <line y1="-37.167" x2="37.158" style="fill-rule:evenodd;clip-rule:evenodd;fill:none;stroke:#000000;stroke-width:0.8;" y2="-35.426" x1="36.199"/>
  <line y1="-50.527" x2="43.93" style="fill-rule:evenodd;clip-rule:evenodd;fill:none;stroke:#000000;stroke-width:0.8;" y2="-49.129" x1="44.196"/>
  <line y1="-47.416" x2="64.492" style="fill-rule:evenodd;clip-rule:evenodd;fill:none;stroke:#000000;stroke-width:0.8;" y2="-49.2" x1="63.619"/>
  <line y1="-46.078" x2="59.375" style="fill-rule:evenodd;clip-rule:evenodd;fill:none;stroke:#000000;stroke-width:0.8;" y2="-46.266" x1="57.397"/>
  <line y1="-46.471" x2="54.136" style="fill-rule:evenodd;clip-rule:evenodd;fill:none;stroke:#000000;stroke-width:0.8;" y2="-47.896" x1="52.751"/>
  <line y1="-41.313" x2="62.369" style="fill-rule:evenodd;clip-rule:evenodd;fill:none;stroke:#000000;stroke-width:0.8;" y2="-43.249" x1="61.925"/>
  <line y1="-42.337" x2="55.281" style="fill-rule:evenodd;clip-rule:evenodd;fill:none;stroke:#000000;stroke-width:0.8;" y2="-42.849" x1="57.2"/>
  <line y1="-43.951" x2="50.117" style="fill-rule:evenodd;clip-rule:evenodd;fill:none;stroke:#000000;stroke-width:0.8;" y2="-45.792" x1="50.861"/>
  <line y1="-40.486" x2="51.03" style="fill-rule:evenodd;clip-rule:evenodd;fill:none;stroke:#000000;stroke-width:0.8;" y2="-39.646" x1="52.83"/>
  <line y1="-38.321" x2="56.803" style="fill-rule:evenodd;clip-rule:evenodd;fill:none;stroke:#000000;stroke-width:0.8;" y2="-37.288" x1="58.5"/>
  <line y1="-36.904" x2="62.434" style="fill-rule:evenodd;clip-rule:evenodd;fill:none;stroke:#000000;stroke-width:0.8;" y2="-37.878" x1="64.165"/>
  <line y1="-34.029" x2="60.148" style="fill-rule:evenodd;clip-rule:evenodd;fill:none;stroke:#000000;stroke-width:0.8;" y2="-35.25" x1="59.917"/>
  <line y1="-37.167" x2="52.997" style="fill-rule:evenodd;clip-rule:evenodd;fill:none;stroke:#000000;stroke-width:0.8;" y2="-35.426" x1="52.038"/>
  <line y1="-50.527" x2="59.769" style="fill-rule:evenodd;clip-rule:evenodd;fill:none;stroke:#000000;stroke-width:0.8;" y2="-49.129" x1="60.036"/>
  <line y1="-47.416" x2="80.331" style="fill-rule:evenodd;clip-rule:evenodd;fill:none;stroke:#000000;stroke-width:0.8;" y2="-49.2" x1="79.457"/>
  <line y1="-46.078" x2="75.214" style="fill-rule:evenodd;clip-rule:evenodd;fill:none;stroke:#000000;stroke-width:0.8;" y2="-46.266" x1="73.236"/>
  <line y1="-46.471" x2="69.975" style="fill-rule:evenodd;clip-rule:evenodd;fill:none;stroke:#000000;stroke-width:0.8;" y2="-47.896" x1="68.59"/>
  <line y1="-41.313" x2="78.208" style="fill-rule:evenodd;clip-rule:evenodd;fill:none;stroke:#000000;stroke-width:0.8;" y2="-43.249" x1="77.764"/>
  <line y1="-42.337" x2="71.12" style="fill-rule:evenodd;clip-rule:evenodd;fill:none;stroke:#000000;stroke-width:0.8;" y2="-42.849" x1="73.04"/>
  <line y1="-43.951" x2="65.956" style="fill-rule:evenodd;clip-rule:evenodd;fill:none;stroke:#000000;stroke-width:0.8;" y2="-45.792" x1="66.7"/>
  <line y1="-40.486" x2="66.869" style="fill-rule:evenodd;clip-rule:evenodd;fill:none;stroke:#000000;stroke-width:0.8;" y2="-39.646" x1="68.669"/>
  <line y1="-38.321" x2="72.642" style="fill-rule:evenodd;clip-rule:evenodd;fill:none;stroke:#000000;stroke-width:0.8;" y2="-37.288" x1="74.339"/>
  <line y1="-36.904" x2="78.273" style="fill-rule:evenodd;clip-rule:evenodd;fill:none;stroke:#000000;stroke-width:0.8;" y2="-37.878" x1="80.003"/>
  <line y1="-34.029" x2="75.987" style="fill-rule:evenodd;clip-rule:evenodd;fill:none;stroke:#000000;stroke-width:0.8;" y2="-35.25" x1="75.756"/>
  <line y1="-37.167" x2="68.835" style="fill-rule:evenodd;clip-rule:evenodd;fill:none;stroke:#000000;stroke-width:0.8;" y2="-35.426" x1="67.877"/>
  <line y1="-50.527" x2="75.608" style="fill-rule:evenodd;clip-rule:evenodd;fill:none;stroke:#000000;stroke-width:0.8;" y2="-49.129" x1="75.874"/>
  <line y1="-63.255" x2="16.975" style="fill-rule:evenodd;clip-rule:evenodd;fill:none;stroke:#000000;stroke-width:0.8;" y2="-65.039" x1="16.102"/>
  <line y1="-61.917" x2="11.858" style="fill-rule:evenodd;clip-rule:evenodd;fill:none;stroke:#000000;stroke-width:0.8;" y2="-62.105" x1="9.88"/>
  <line y1="-62.31" x2="6.619" style="fill-rule:evenodd;clip-rule:evenodd;fill:none;stroke:#000000;stroke-width:0.8;" y2="-63.734" x1="5.234"/>
  <line y1="-57.152" x2="14.852" style="fill-rule:evenodd;clip-rule:evenodd;fill:none;stroke:#000000;stroke-width:0.8;" y2="-59.088" x1="14.408"/>
  <line y1="-58.176" x2="7.764" style="fill-rule:evenodd;clip-rule:evenodd;fill:none;stroke:#000000;stroke-width:0.8;" y2="-58.688" x1="9.684"/>
  <line y1="-59.79" x2="2.6" style="fill-rule:evenodd;clip-rule:evenodd;fill:none;stroke:#000000;stroke-width:0.8;" y2="-61.632" x1="3.344"/>
  <line y1="-56.325" x2="3.513" style="fill-rule:evenodd;clip-rule:evenodd;fill:none;stroke:#000000;stroke-width:0.8;" y2="-55.485" x1="5.313"/>
  <line y1="-54.16" x2="9.286" style="fill-rule:evenodd;clip-rule:evenodd;fill:none;stroke:#000000;stroke-width:0.8;" y2="-53.127" x1="10.983"/>
  <line y1="-52.743" x2="14.917" style="fill-rule:evenodd;clip-rule:evenodd;fill:none;stroke:#000000;stroke-width:0.8;" y2="-53.717" x1="16.647"/>
  <line y1="-49.868" x2="12.631" style="fill-rule:evenodd;clip-rule:evenodd;fill:none;stroke:#000000;stroke-width:0.8;" y2="-51.089" x1="12.4"/>
  <line y1="-53.005" x2="5.479" style="fill-rule:evenodd;clip-rule:evenodd;fill:none;stroke:#000000;stroke-width:0.8;" y2="-51.266" x1="4.521"/>
  <line y1="-64.968" x2="12.519" style="fill-rule:evenodd;clip-rule:evenodd;fill:none;stroke:#000000;stroke-width:0.8;" y2="-66.366" x1="12.252"/>
  <line y1="-63.255" x2="32.814" style="fill-rule:evenodd;clip-rule:evenodd;fill:none;stroke:#000000;stroke-width:0.8;" y2="-65.039" x1="31.94"/>
  <line y1="-61.917" x2="27.697" style="fill-rule:evenodd;clip-rule:evenodd;fill:none;stroke:#000000;stroke-width:0.8;" y2="-62.105" x1="25.719"/>
  <line y1="-62.31" x2="22.458" style="fill-rule:evenodd;clip-rule:evenodd;fill:none;stroke:#000000;stroke-width:0.8;" y2="-63.734" x1="21.073"/>
  <line y1="-57.152" x2="30.691" style="fill-rule:evenodd;clip-rule:evenodd;fill:none;stroke:#000000;stroke-width:0.8;" y2="-59.088" x1="30.248"/>
  <line y1="-58.176" x2="23.604" style="fill-rule:evenodd;clip-rule:evenodd;fill:none;stroke:#000000;stroke-width:0.8;" y2="-58.688" x1="25.522"/>
  <line y1="-59.79" x2="18.439" style="fill-rule:evenodd;clip-rule:evenodd;fill:none;stroke:#000000;stroke-width:0.8;" y2="-61.632" x1="19.183"/>
  <line y1="-56.325" x2="19.352" style="fill-rule:evenodd;clip-rule:evenodd;fill:none;stroke:#000000;stroke-width:0.8;" y2="-55.485" x1="21.152"/>
  <line y1="-54.16" x2="25.125" style="fill-rule:evenodd;clip-rule:evenodd;fill:none;stroke:#000000;stroke-width:0.8;" y2="-53.127" x1="26.822"/>
  <line y1="-52.743" x2="30.756" style="fill-rule:evenodd;clip-rule:evenodd;fill:none;stroke:#000000;stroke-width:0.8;" y2="-53.717" x1="32.486"/>
  <line y1="-49.868" x2="28.47" style="fill-rule:evenodd;clip-rule:evenodd;fill:none;stroke:#000000;stroke-width:0.8;" y2="-51.089" x1="28.24"/>
  <line y1="-53.005" x2="21.319" style="fill-rule:evenodd;clip-rule:evenodd;fill:none;stroke:#000000;stroke-width:0.8;" y2="-51.266" x1="20.36"/>
  <line y1="-64.968" x2="28.357" style="fill-rule:evenodd;clip-rule:evenodd;fill:none;stroke:#000000;stroke-width:0.8;" y2="-66.366" x1="28.091"/>
  <line y1="-63.255" x2="48.653" style="fill-rule:evenodd;clip-rule:evenodd;fill:none;stroke:#000000;stroke-width:0.8;" y2="-65.039" x1="47.779"/>
  <line y1="-61.917" x2="43.536" style="fill-rule:evenodd;clip-rule:evenodd;fill:none;stroke:#000000;stroke-width:0.8;" y2="-62.105" x1="41.558"/>
  <line y1="-62.31" x2="38.297" style="fill-rule:evenodd;clip-rule:evenodd;fill:none;stroke:#000000;stroke-width:0.8;" y2="-63.734" x1="36.912"/>
  <line y1="-57.152" x2="46.53" style="fill-rule:evenodd;clip-rule:evenodd;fill:none;stroke:#000000;stroke-width:0.8;" y2="-59.088" x1="46.086"/>
  <line y1="-58.176" x2="39.442" style="fill-rule:evenodd;clip-rule:evenodd;fill:none;stroke:#000000;stroke-width:0.8;" y2="-58.688" x1="41.361"/>
  <line y1="-59.79" x2="34.278" style="fill-rule:evenodd;clip-rule:evenodd;fill:none;stroke:#000000;stroke-width:0.8;" y2="-61.632" x1="35.022"/>
  <line y1="-56.325" x2="35.191" style="fill-rule:evenodd;clip-rule:evenodd;fill:none;stroke:#000000;stroke-width:0.8;" y2="-55.485" x1="36.991"/>
  <line y1="-54.16" x2="40.964" style="fill-rule:evenodd;clip-rule:evenodd;fill:none;stroke:#000000;stroke-width:0.8;" y2="-53.127" x1="42.661"/>
  <line y1="-52.743" x2="46.595" style="fill-rule:evenodd;clip-rule:evenodd;fill:none;stroke:#000000;stroke-width:0.8;" y2="-53.717" x1="48.325"/>
  <line y1="-49.868" x2="44.309" style="fill-rule:evenodd;clip-rule:evenodd;fill:none;stroke:#000000;stroke-width:0.8;" y2="-51.089" x1="44.079"/>
  <line y1="-53.005" x2="37.158" style="fill-rule:evenodd;clip-rule:evenodd;fill:none;stroke:#000000;stroke-width:0.8;" y2="-51.266" x1="36.199"/>
  <line y1="-64.968" x2="44.196" style="fill-rule:evenodd;clip-rule:evenodd;fill:none;stroke:#000000;stroke-width:0.8;" y2="-66.366" x1="43.93"/>
  <line y1="-63.255" x2="64.492" style="fill-rule:evenodd;clip-rule:evenodd;fill:none;stroke:#000000;stroke-width:0.8;" y2="-65.039" x1="63.619"/>
  <line y1="-61.917" x2="59.375" style="fill-rule:evenodd;clip-rule:evenodd;fill:none;stroke:#000000;stroke-width:0.8;" y2="-62.105" x1="57.397"/>
  <line y1="-62.31" x2="54.136" style="fill-rule:evenodd;clip-rule:evenodd;fill:none;stroke:#000000;stroke-width:0.8;" y2="-63.734" x1="52.751"/>
  <line y1="-57.152" x2="62.369" style="fill-rule:evenodd;clip-rule:evenodd;fill:none;stroke:#000000;stroke-width:0.8;" y2="-59.088" x1="61.925"/>
  <line y1="-58.176" x2="55.281" style="fill-rule:evenodd;clip-rule:evenodd;fill:none;stroke:#000000;stroke-width:0.8;" y2="-58.688" x1="57.2"/>
  <line y1="-59.79" x2="50.117" style="fill-rule:evenodd;clip-rule:evenodd;fill:none;stroke:#000000;stroke-width:0.8;" y2="-61.632" x1="50.861"/>
  <line y1="-56.325" x2="51.03" style="fill-rule:evenodd;clip-rule:evenodd;fill:none;stroke:#000000;stroke-width:0.8;" y2="-55.485" x1="52.83"/>
  <line y1="-54.16" x2="56.803" style="fill-rule:evenodd;clip-rule:evenodd;fill:none;stroke:#000000;stroke-width:0.8;" y2="-53.127" x1="58.5"/>
  <line y1="-52.743" x2="62.434" style="fill-rule:evenodd;clip-rule:evenodd;fill:none;stroke:#000000;stroke-width:0.8;" y2="-53.717" x1="64.165"/>
  <line y1="-49.868" x2="60.148" style="fill-rule:evenodd;clip-rule:evenodd;fill:none;stroke:#000000;stroke-width:0.8;" y2="-51.089" x1="59.917"/>
  <line y1="-53.005" x2="52.997" style="fill-rule:evenodd;clip-rule:evenodd;fill:none;stroke:#000000;stroke-width:0.8;" y2="-51.266" x1="52.038"/>
  <line y1="-64.968" x2="60.036" style="fill-rule:evenodd;clip-rule:evenodd;fill:none;stroke:#000000;stroke-width:0.8;" y2="-66.366" x1="59.769"/>
  <line y1="-63.255" x2="80.331" style="fill-rule:evenodd;clip-rule:evenodd;fill:none;stroke:#000000;stroke-width:0.8;" y2="-65.039" x1="79.457"/>
  <line y1="-61.917" x2="75.214" style="fill-rule:evenodd;clip-rule:evenodd;fill:none;stroke:#000000;stroke-width:0.8;" y2="-62.105" x1="73.236"/>
  <line y1="-62.31" x2="69.975" style="fill-rule:evenodd;clip-rule:evenodd;fill:none;stroke:#000000;stroke-width:0.8;" y2="-63.734" x1="68.59"/>
  <line y1="-57.152" x2="78.208" style="fill-rule:evenodd;clip-rule:evenodd;fill:none;stroke:#000000;stroke-width:0.8;" y2="-59.088" x1="77.764"/>
  <line y1="-58.176" x2="71.12" style="fill-rule:evenodd;clip-rule:evenodd;fill:none;stroke:#000000;stroke-width:0.8;" y2="-58.688" x1="73.04"/>
  <line y1="-59.79" x2="65.956" style="fill-rule:evenodd;clip-rule:evenodd;fill:none;stroke:#000000;stroke-width:0.8;" y2="-61.632" x1="66.7"/>
  <line y1="-56.325" x2="66.869" style="fill-rule:evenodd;clip-rule:evenodd;fill:none;stroke:#000000;stroke-width:0.8;" y2="-55.485" x1="68.669"/>
  <line y1="-54.16" x2="72.642" style="fill-rule:evenodd;clip-rule:evenodd;fill:none;stroke:#000000;stroke-width:0.8;" y2="-53.127" x1="74.339"/>
  <line y1="-52.743" x2="78.273" style="fill-rule:evenodd;clip-rule:evenodd;fill:none;stroke:#000000;stroke-width:0.8;" y2="-53.717" x1="80.003"/>
  <line y1="-49.868" x2="75.987" style="fill-rule:evenodd;clip-rule:evenodd;fill:none;stroke:#000000;stroke-width:0.8;" y2="-51.089" x1="75.756"/>
  <line y1="-53.005" x2="68.835" style="fill-rule:evenodd;clip-rule:evenodd;fill:none;stroke:#000000;stroke-width:0.8;" y2="-51.266" x1="67.877"/>
  <line y1="-64.968" x2="75.874" style="fill-rule:evenodd;clip-rule:evenodd;fill:none;stroke:#000000;stroke-width:0.8;" y2="-66.366" x1="75.608"/>
  <line y1="-79.094" x2="16.975" style="fill-rule:evenodd;clip-rule:evenodd;fill:none;stroke:#000000;stroke-width:0.8;" y2="-80.878" x1="16.102"/>
  <line y1="-77.755" x2="11.858" style="fill-rule:evenodd;clip-rule:evenodd;fill:none;stroke:#000000;stroke-width:0.8;" y2="-77.944" x1="9.88"/>
  <line y1="-78.149" x2="6.619" style="fill-rule:evenodd;clip-rule:evenodd;fill:none;stroke:#000000;stroke-width:0.8;" y2="-79.573" x1="5.234"/>
  <line y1="-72.991" x2="14.852" style="fill-rule:evenodd;clip-rule:evenodd;fill:none;stroke:#000000;stroke-width:0.8;" y2="-74.927" x1="14.408"/>
  <line y1="-74.526" x2="9.684" style="fill-rule:evenodd;clip-rule:evenodd;fill:none;stroke:#000000;stroke-width:0.8;" y2="-74.015" x1="7.764"/>
  <line y1="-77.471" x2="3.344" style="fill-rule:evenodd;clip-rule:evenodd;fill:none;stroke:#000000;stroke-width:0.8;" y2="-75.629" x1="2.6"/>
  <line y1="-72.164" x2="3.513" style="fill-rule:evenodd;clip-rule:evenodd;fill:none;stroke:#000000;stroke-width:0.8;" y2="-71.324" x1="5.313"/>
  <line y1="-69.998" x2="9.286" style="fill-rule:evenodd;clip-rule:evenodd;fill:none;stroke:#000000;stroke-width:0.8;" y2="-68.966" x1="10.983"/>
  <line y1="-68.582" x2="14.917" style="fill-rule:evenodd;clip-rule:evenodd;fill:none;stroke:#000000;stroke-width:0.8;" y2="-69.557" x1="16.647"/>
  <line y1="-65.707" x2="12.631" style="fill-rule:evenodd;clip-rule:evenodd;fill:none;stroke:#000000;stroke-width:0.8;" y2="-66.928" x1="12.4"/>
  <line y1="-68.844" x2="5.479" style="fill-rule:evenodd;clip-rule:evenodd;fill:none;stroke:#000000;stroke-width:0.8;" y2="-67.104" x1="4.521"/>
  <line y1="-81.85" x2="12.252" style="fill-rule:evenodd;clip-rule:evenodd;fill:none;stroke:#000000;stroke-width:0.8;" y2="-80.807" x1="12.451"/>
  <line y1="-79.094" x2="32.814" style="fill-rule:evenodd;clip-rule:evenodd;fill:none;stroke:#000000;stroke-width:0.8;" y2="-80.878" x1="31.94"/>
  <line y1="-77.755" x2="27.697" style="fill-rule:evenodd;clip-rule:evenodd;fill:none;stroke:#000000;stroke-width:0.8;" y2="-77.944" x1="25.719"/>
  <line y1="-78.149" x2="22.458" style="fill-rule:evenodd;clip-rule:evenodd;fill:none;stroke:#000000;stroke-width:0.8;" y2="-79.573" x1="21.073"/>
  <line y1="-72.991" x2="30.691" style="fill-rule:evenodd;clip-rule:evenodd;fill:none;stroke:#000000;stroke-width:0.8;" y2="-74.927" x1="30.248"/>
  <line y1="-74.526" x2="25.522" style="fill-rule:evenodd;clip-rule:evenodd;fill:none;stroke:#000000;stroke-width:0.8;" y2="-74.015" x1="23.604"/>
  <line y1="-77.471" x2="19.183" style="fill-rule:evenodd;clip-rule:evenodd;fill:none;stroke:#000000;stroke-width:0.8;" y2="-75.629" x1="18.439"/>
  <line y1="-72.164" x2="19.352" style="fill-rule:evenodd;clip-rule:evenodd;fill:none;stroke:#000000;stroke-width:0.8;" y2="-71.324" x1="21.152"/>
  <line y1="-69.998" x2="25.125" style="fill-rule:evenodd;clip-rule:evenodd;fill:none;stroke:#000000;stroke-width:0.8;" y2="-68.966" x1="26.822"/>
  <line y1="-68.582" x2="30.756" style="fill-rule:evenodd;clip-rule:evenodd;fill:none;stroke:#000000;stroke-width:0.8;" y2="-69.557" x1="32.486"/>
  <line y1="-65.707" x2="28.47" style="fill-rule:evenodd;clip-rule:evenodd;fill:none;stroke:#000000;stroke-width:0.8;" y2="-66.928" x1="28.24"/>
  <line y1="-68.844" x2="21.319" style="fill-rule:evenodd;clip-rule:evenodd;fill:none;stroke:#000000;stroke-width:0.8;" y2="-67.104" x1="20.36"/>
  <line y1="-81.85" x2="28.091" style="fill-rule:evenodd;clip-rule:evenodd;fill:none;stroke:#000000;stroke-width:0.8;" y2="-80.807" x1="28.29"/>
  <line y1="-79.094" x2="48.653" style="fill-rule:evenodd;clip-rule:evenodd;fill:none;stroke:#000000;stroke-width:0.8;" y2="-80.878" x1="47.779"/>
  <line y1="-77.755" x2="43.536" style="fill-rule:evenodd;clip-rule:evenodd;fill:none;stroke:#000000;stroke-width:0.8;" y2="-77.944" x1="41.558"/>
  <line y1="-78.149" x2="38.297" style="fill-rule:evenodd;clip-rule:evenodd;fill:none;stroke:#000000;stroke-width:0.8;" y2="-79.573" x1="36.912"/>
  <line y1="-72.991" x2="46.53" style="fill-rule:evenodd;clip-rule:evenodd;fill:none;stroke:#000000;stroke-width:0.8;" y2="-74.927" x1="46.086"/>
  <line y1="-74.526" x2="41.361" style="fill-rule:evenodd;clip-rule:evenodd;fill:none;stroke:#000000;stroke-width:0.8;" y2="-74.015" x1="39.442"/>
  <line y1="-77.471" x2="35.022" style="fill-rule:evenodd;clip-rule:evenodd;fill:none;stroke:#000000;stroke-width:0.8;" y2="-75.629" x1="34.278"/>
  <line y1="-72.164" x2="35.191" style="fill-rule:evenodd;clip-rule:evenodd;fill:none;stroke:#000000;stroke-width:0.8;" y2="-71.324" x1="36.991"/>
  <line y1="-69.998" x2="40.964" style="fill-rule:evenodd;clip-rule:evenodd;fill:none;stroke:#000000;stroke-width:0.8;" y2="-68.966" x1="42.661"/>
  <line y1="-68.582" x2="46.595" style="fill-rule:evenodd;clip-rule:evenodd;fill:none;stroke:#000000;stroke-width:0.8;" y2="-69.557" x1="48.325"/>
  <line y1="-65.707" x2="44.309" style="fill-rule:evenodd;clip-rule:evenodd;fill:none;stroke:#000000;stroke-width:0.8;" y2="-66.928" x1="44.079"/>
  <line y1="-68.844" x2="37.158" style="fill-rule:evenodd;clip-rule:evenodd;fill:none;stroke:#000000;stroke-width:0.8;" y2="-67.104" x1="36.199"/>
  <line y1="-81.85" x2="43.93" style="fill-rule:evenodd;clip-rule:evenodd;fill:none;stroke:#000000;stroke-width:0.8;" y2="-80.807" x1="44.129"/>
  <line y1="-79.094" x2="64.492" style="fill-rule:evenodd;clip-rule:evenodd;fill:none;stroke:#000000;stroke-width:0.8;" y2="-80.878" x1="63.619"/>
  <line y1="-77.755" x2="59.375" style="fill-rule:evenodd;clip-rule:evenodd;fill:none;stroke:#000000;stroke-width:0.8;" y2="-77.944" x1="57.397"/>
  <line y1="-78.149" x2="54.136" style="fill-rule:evenodd;clip-rule:evenodd;fill:none;stroke:#000000;stroke-width:0.8;" y2="-79.573" x1="52.751"/>
  <line y1="-72.991" x2="62.369" style="fill-rule:evenodd;clip-rule:evenodd;fill:none;stroke:#000000;stroke-width:0.8;" y2="-74.927" x1="61.925"/>
  <line y1="-74.526" x2="57.2" style="fill-rule:evenodd;clip-rule:evenodd;fill:none;stroke:#000000;stroke-width:0.8;" y2="-74.015" x1="55.281"/>
  <line y1="-77.471" x2="50.861" style="fill-rule:evenodd;clip-rule:evenodd;fill:none;stroke:#000000;stroke-width:0.8;" y2="-75.629" x1="50.117"/>
  <line y1="-72.164" x2="51.03" style="fill-rule:evenodd;clip-rule:evenodd;fill:none;stroke:#000000;stroke-width:0.8;" y2="-71.324" x1="52.83"/>
  <line y1="-69.998" x2="56.803" style="fill-rule:evenodd;clip-rule:evenodd;fill:none;stroke:#000000;stroke-width:0.8;" y2="-68.966" x1="58.5"/>
  <line y1="-68.582" x2="62.434" style="fill-rule:evenodd;clip-rule:evenodd;fill:none;stroke:#000000;stroke-width:0.8;" y2="-69.557" x1="64.165"/>
  <line y1="-65.707" x2="60.148" style="fill-rule:evenodd;clip-rule:evenodd;fill:none;stroke:#000000;stroke-width:0.8;" y2="-66.928" x1="59.917"/>
  <line y1="-68.844" x2="52.997" style="fill-rule:evenodd;clip-rule:evenodd;fill:none;stroke:#000000;stroke-width:0.8;" y2="-67.104" x1="52.038"/>
  <line y1="-81.85" x2="59.769" style="fill-rule:evenodd;clip-rule:evenodd;fill:none;stroke:#000000;stroke-width:0.8;" y2="-80.807" x1="59.968"/>
  <line y1="-79.094" x2="80.331" style="fill-rule:evenodd;clip-rule:evenodd;fill:none;stroke:#000000;stroke-width:0.8;" y2="-80.878" x1="79.457"/>
  <line y1="-77.755" x2="75.214" style="fill-rule:evenodd;clip-rule:evenodd;fill:none;stroke:#000000;stroke-width:0.8;" y2="-77.944" x1="73.236"/>
  <line y1="-78.149" x2="69.975" style="fill-rule:evenodd;clip-rule:evenodd;fill:none;stroke:#000000;stroke-width:0.8;" y2="-79.573" x1="68.59"/>
  <line y1="-72.991" x2="78.208" style="fill-rule:evenodd;clip-rule:evenodd;fill:none;stroke:#000000;stroke-width:0.8;" y2="-74.927" x1="77.764"/>
  <line y1="-74.526" x2="73.04" style="fill-rule:evenodd;clip-rule:evenodd;fill:none;stroke:#000000;stroke-width:0.8;" y2="-74.015" x1="71.12"/>
  <line y1="-77.471" x2="66.7" style="fill-rule:evenodd;clip-rule:evenodd;fill:none;stroke:#000000;stroke-width:0.8;" y2="-75.629" x1="65.956"/>
  <line y1="-72.164" x2="66.869" style="fill-rule:evenodd;clip-rule:evenodd;fill:none;stroke:#000000;stroke-width:0.8;" y2="-71.324" x1="68.669"/>
  <line y1="-69.998" x2="72.642" style="fill-rule:evenodd;clip-rule:evenodd;fill:none;stroke:#000000;stroke-width:0.8;" y2="-68.966" x1="74.339"/>
  <line y1="-68.582" x2="78.273" style="fill-rule:evenodd;clip-rule:evenodd;fill:none;stroke:#000000;stroke-width:0.8;" y2="-69.557" x1="80.003"/>
  <line y1="-65.707" x2="75.987" style="fill-rule:evenodd;clip-rule:evenodd;fill:none;stroke:#000000;stroke-width:0.8;" y2="-66.928" x1="75.756"/>
  <line y1="-68.844" x2="68.835" style="fill-rule:evenodd;clip-rule:evenodd;fill:none;stroke:#000000;stroke-width:0.8;" y2="-67.104" x1="67.877"/>
  <line y1="-81.85" x2="75.608" style="fill-rule:evenodd;clip-rule:evenodd;fill:none;stroke:#000000;stroke-width:0.8;" y2="-80.807" x1="75.807"/>
 </g>
</svg>
