<?xml version="1.0" encoding="utf-8"?>
<svg xmlns="http://www.w3.org/2000/svg" version="1.1" x="0px" y="0px" xml:space="preserve" width="90.647" height="90.647" viewBox="1 -92.089 90.647 90.647">
	<g>
		<rect x="1" y="-92.089" style="fill:none;" width="90.647" height="90.647"/>

			<line style="fill-rule:evenodd;clip-rule:evenodd;fill:none;stroke:#000000;stroke-width:0.43;" x1="21.364" y1="-29.434" x2="22.612" y2="-31.981"/>

			<line style="fill-rule:evenodd;clip-rule:evenodd;fill:none;stroke:#000000;stroke-width:0.43;" x1="12.477" y1="-27.521" x2="15.302" y2="-27.79"/>

			<line style="fill-rule:evenodd;clip-rule:evenodd;fill:none;stroke:#000000;stroke-width:0.43;" x1="5.839" y1="-28.083" x2="7.817" y2="-30.118"/>

			<line style="fill-rule:evenodd;clip-rule:evenodd;fill:none;stroke:#000000;stroke-width:0.43;" x1="19.58" y1="-23.48" x2="18.945" y2="-20.715"/>

			<line style="fill-rule:evenodd;clip-rule:evenodd;fill:none;stroke:#000000;stroke-width:0.43;" x1="12.195" y1="-22.178" x2="9.454" y2="-22.908"/>

			<line style="fill-rule:evenodd;clip-rule:evenodd;fill:none;stroke:#000000;stroke-width:0.43;" x1="3.14" y1="-24.483" x2="2.076" y2="-27.114"/>

			<line style="fill-rule:evenodd;clip-rule:evenodd;fill:none;stroke:#000000;stroke-width:0.43;" x1="5.952" y1="-19.533" x2="3.38" y2="-18.334"/>

			<line style="fill-rule:evenodd;clip-rule:evenodd;fill:none;stroke:#000000;stroke-width:0.43;" x1="14.052" y1="-16.44" x2="11.628" y2="-14.965"/>

			<line style="fill-rule:evenodd;clip-rule:evenodd;fill:none;stroke:#000000;stroke-width:0.43;" x1="22.144" y1="-14.416" x2="19.672" y2="-15.809"/>

			<line style="fill-rule:evenodd;clip-rule:evenodd;fill:none;stroke:#000000;stroke-width:0.43;" x1="6.19" y1="-12.306" x2="4.821" y2="-14.791"/>

			<line style="fill-rule:evenodd;clip-rule:evenodd;fill:none;stroke:#000000;stroke-width:0.43;" x1="44.043" y1="-29.434" x2="45.292" y2="-31.981"/>

			<line style="fill-rule:evenodd;clip-rule:evenodd;fill:none;stroke:#000000;stroke-width:0.43;" x1="35.156" y1="-27.521" x2="37.981" y2="-27.79"/>

			<line style="fill-rule:evenodd;clip-rule:evenodd;fill:none;stroke:#000000;stroke-width:0.43;" x1="28.519" y1="-28.083" x2="30.497" y2="-30.118"/>

			<line style="fill-rule:evenodd;clip-rule:evenodd;fill:none;stroke:#000000;stroke-width:0.43;" x1="42.259" y1="-23.48" x2="41.625" y2="-20.715"/>

			<line style="fill-rule:evenodd;clip-rule:evenodd;fill:none;stroke:#000000;stroke-width:0.43;" x1="34.875" y1="-22.178" x2="32.133" y2="-22.908"/>

			<line style="fill-rule:evenodd;clip-rule:evenodd;fill:none;stroke:#000000;stroke-width:0.43;" x1="25.818" y1="-24.483" x2="24.755" y2="-27.114"/>

			<line style="fill-rule:evenodd;clip-rule:evenodd;fill:none;stroke:#000000;stroke-width:0.43;" x1="28.631" y1="-19.533" x2="26.06" y2="-18.334"/>

			<line style="fill-rule:evenodd;clip-rule:evenodd;fill:none;stroke:#000000;stroke-width:0.43;" x1="36.731" y1="-16.44" x2="34.307" y2="-14.965"/>

			<line style="fill-rule:evenodd;clip-rule:evenodd;fill:none;stroke:#000000;stroke-width:0.43;" x1="44.823" y1="-14.416" x2="42.351" y2="-15.809"/>

			<line style="fill-rule:evenodd;clip-rule:evenodd;fill:none;stroke:#000000;stroke-width:0.43;" x1="28.869" y1="-12.306" x2="27.5" y2="-14.791"/>

			<line style="fill-rule:evenodd;clip-rule:evenodd;fill:none;stroke:#000000;stroke-width:0.43;" x1="66.722" y1="-29.434" x2="67.971" y2="-31.981"/>

			<line style="fill-rule:evenodd;clip-rule:evenodd;fill:none;stroke:#000000;stroke-width:0.43;" x1="57.835" y1="-27.521" x2="60.66" y2="-27.79"/>

			<line style="fill-rule:evenodd;clip-rule:evenodd;fill:none;stroke:#000000;stroke-width:0.43;" x1="51.198" y1="-28.083" x2="53.176" y2="-30.118"/>

			<line style="fill-rule:evenodd;clip-rule:evenodd;fill:none;stroke:#000000;stroke-width:0.43;" x1="64.938" y1="-23.48" x2="64.304" y2="-20.715"/>

			<line style="fill-rule:evenodd;clip-rule:evenodd;fill:none;stroke:#000000;stroke-width:0.43;" x1="57.554" y1="-22.178" x2="54.812" y2="-22.908"/>

			<line style="fill-rule:evenodd;clip-rule:evenodd;fill:none;stroke:#000000;stroke-width:0.43;" x1="48.498" y1="-24.483" x2="47.434" y2="-27.114"/>

			<line style="fill-rule:evenodd;clip-rule:evenodd;fill:none;stroke:#000000;stroke-width:0.43;" x1="51.31" y1="-19.533" x2="48.739" y2="-18.334"/>

			<line style="fill-rule:evenodd;clip-rule:evenodd;fill:none;stroke:#000000;stroke-width:0.43;" x1="59.41" y1="-16.44" x2="56.986" y2="-14.965"/>

			<line style="fill-rule:evenodd;clip-rule:evenodd;fill:none;stroke:#000000;stroke-width:0.43;" x1="67.502" y1="-14.416" x2="65.03" y2="-15.809"/>

			<line style="fill-rule:evenodd;clip-rule:evenodd;fill:none;stroke:#000000;stroke-width:0.43;" x1="51.548" y1="-12.306" x2="50.179" y2="-14.791"/>

			<line style="fill-rule:evenodd;clip-rule:evenodd;fill:none;stroke:#000000;stroke-width:0.43;" x1="89.401" y1="-29.434" x2="90.649" y2="-31.981"/>

			<line style="fill-rule:evenodd;clip-rule:evenodd;fill:none;stroke:#000000;stroke-width:0.43;" x1="80.514" y1="-27.521" x2="83.339" y2="-27.79"/>

			<line style="fill-rule:evenodd;clip-rule:evenodd;fill:none;stroke:#000000;stroke-width:0.43;" x1="73.877" y1="-28.083" x2="75.855" y2="-30.118"/>

			<line style="fill-rule:evenodd;clip-rule:evenodd;fill:none;stroke:#000000;stroke-width:0.43;" x1="87.617" y1="-23.48" x2="86.983" y2="-20.715"/>

			<line style="fill-rule:evenodd;clip-rule:evenodd;fill:none;stroke:#000000;stroke-width:0.43;" x1="80.233" y1="-22.178" x2="77.491" y2="-22.908"/>

			<line style="fill-rule:evenodd;clip-rule:evenodd;fill:none;stroke:#000000;stroke-width:0.43;" x1="71.177" y1="-24.483" x2="70.113" y2="-27.114"/>

			<line style="fill-rule:evenodd;clip-rule:evenodd;fill:none;stroke:#000000;stroke-width:0.43;" x1="73.989" y1="-19.533" x2="71.418" y2="-18.334"/>

			<line style="fill-rule:evenodd;clip-rule:evenodd;fill:none;stroke:#000000;stroke-width:0.43;" x1="82.089" y1="-16.44" x2="79.665" y2="-14.965"/>

			<line style="fill-rule:evenodd;clip-rule:evenodd;fill:none;stroke:#000000;stroke-width:0.43;" x1="90.181" y1="-14.416" x2="87.709" y2="-15.809"/>

			<line style="fill-rule:evenodd;clip-rule:evenodd;fill:none;stroke:#000000;stroke-width:0.43;" x1="74.228" y1="-12.306" x2="72.858" y2="-14.791"/>

			<line style="fill-rule:evenodd;clip-rule:evenodd;fill:none;stroke:#000000;stroke-width:0.43;" x1="21.364" y1="-52.113" x2="22.612" y2="-54.661"/>

			<line style="fill-rule:evenodd;clip-rule:evenodd;fill:none;stroke:#000000;stroke-width:0.43;" x1="12.477" y1="-50.2" x2="15.302" y2="-50.469"/>

			<line style="fill-rule:evenodd;clip-rule:evenodd;fill:none;stroke:#000000;stroke-width:0.43;" x1="5.839" y1="-50.763" x2="7.817" y2="-52.797"/>

			<line style="fill-rule:evenodd;clip-rule:evenodd;fill:none;stroke:#000000;stroke-width:0.43;" x1="18.945" y1="-43.394" x2="19.58" y2="-46.16"/>

			<line style="fill-rule:evenodd;clip-rule:evenodd;fill:none;stroke:#000000;stroke-width:0.43;" x1="12.195" y1="-44.856" x2="9.454" y2="-45.587"/>

			<line style="fill-rule:evenodd;clip-rule:evenodd;fill:none;stroke:#000000;stroke-width:0.43;" x1="3.14" y1="-47.163" x2="2.076" y2="-49.793"/>

			<line style="fill-rule:evenodd;clip-rule:evenodd;fill:none;stroke:#000000;stroke-width:0.43;" x1="5.952" y1="-42.213" x2="3.38" y2="-41.013"/>

			<line style="fill-rule:evenodd;clip-rule:evenodd;fill:none;stroke:#000000;stroke-width:0.43;" x1="14.052" y1="-39.119" x2="11.628" y2="-37.644"/>

			<line style="fill-rule:evenodd;clip-rule:evenodd;fill:none;stroke:#000000;stroke-width:0.43;" x1="22.144" y1="-37.095" x2="19.672" y2="-38.487"/>

			<line style="fill-rule:evenodd;clip-rule:evenodd;fill:none;stroke:#000000;stroke-width:0.43;" x1="15.865" y1="-31.88" x2="16.407" y2="-34.732"/>

			<line style="fill-rule:evenodd;clip-rule:evenodd;fill:none;stroke:#000000;stroke-width:0.43;" x1="4.821" y1="-37.47" x2="6.19" y2="-34.984"/>

			<line style="fill-rule:evenodd;clip-rule:evenodd;fill:none;stroke:#000000;stroke-width:0.43;" x1="44.043" y1="-52.113" x2="45.292" y2="-54.661"/>

			<line style="fill-rule:evenodd;clip-rule:evenodd;fill:none;stroke:#000000;stroke-width:0.43;" x1="35.156" y1="-50.2" x2="37.981" y2="-50.469"/>

			<line style="fill-rule:evenodd;clip-rule:evenodd;fill:none;stroke:#000000;stroke-width:0.43;" x1="28.519" y1="-50.763" x2="30.497" y2="-52.797"/>

			<line style="fill-rule:evenodd;clip-rule:evenodd;fill:none;stroke:#000000;stroke-width:0.43;" x1="41.625" y1="-43.394" x2="42.259" y2="-46.16"/>

			<line style="fill-rule:evenodd;clip-rule:evenodd;fill:none;stroke:#000000;stroke-width:0.43;" x1="34.875" y1="-44.856" x2="32.133" y2="-45.587"/>

			<line style="fill-rule:evenodd;clip-rule:evenodd;fill:none;stroke:#000000;stroke-width:0.43;" x1="25.818" y1="-47.163" x2="24.755" y2="-49.793"/>

			<line style="fill-rule:evenodd;clip-rule:evenodd;fill:none;stroke:#000000;stroke-width:0.43;" x1="28.631" y1="-42.213" x2="26.06" y2="-41.013"/>

			<line style="fill-rule:evenodd;clip-rule:evenodd;fill:none;stroke:#000000;stroke-width:0.43;" x1="36.731" y1="-39.119" x2="34.307" y2="-37.644"/>

			<line style="fill-rule:evenodd;clip-rule:evenodd;fill:none;stroke:#000000;stroke-width:0.43;" x1="44.823" y1="-37.095" x2="42.351" y2="-38.487"/>

			<line style="fill-rule:evenodd;clip-rule:evenodd;fill:none;stroke:#000000;stroke-width:0.43;" x1="27.5" y1="-37.47" x2="28.869" y2="-34.984"/>

			<line style="fill-rule:evenodd;clip-rule:evenodd;fill:none;stroke:#000000;stroke-width:0.43;" x1="66.722" y1="-52.113" x2="67.971" y2="-54.661"/>

			<line style="fill-rule:evenodd;clip-rule:evenodd;fill:none;stroke:#000000;stroke-width:0.43;" x1="57.835" y1="-50.2" x2="60.66" y2="-50.469"/>

			<line style="fill-rule:evenodd;clip-rule:evenodd;fill:none;stroke:#000000;stroke-width:0.43;" x1="51.198" y1="-50.763" x2="53.176" y2="-52.797"/>

			<line style="fill-rule:evenodd;clip-rule:evenodd;fill:none;stroke:#000000;stroke-width:0.43;" x1="64.304" y1="-43.394" x2="64.938" y2="-46.16"/>

			<line style="fill-rule:evenodd;clip-rule:evenodd;fill:none;stroke:#000000;stroke-width:0.43;" x1="57.554" y1="-44.856" x2="54.812" y2="-45.587"/>

			<line style="fill-rule:evenodd;clip-rule:evenodd;fill:none;stroke:#000000;stroke-width:0.43;" x1="48.498" y1="-47.163" x2="47.434" y2="-49.793"/>

			<line style="fill-rule:evenodd;clip-rule:evenodd;fill:none;stroke:#000000;stroke-width:0.43;" x1="51.31" y1="-42.213" x2="48.739" y2="-41.013"/>

			<line style="fill-rule:evenodd;clip-rule:evenodd;fill:none;stroke:#000000;stroke-width:0.43;" x1="59.41" y1="-39.119" x2="56.986" y2="-37.644"/>

			<line style="fill-rule:evenodd;clip-rule:evenodd;fill:none;stroke:#000000;stroke-width:0.43;" x1="67.502" y1="-37.095" x2="65.03" y2="-38.487"/>

			<line style="fill-rule:evenodd;clip-rule:evenodd;fill:none;stroke:#000000;stroke-width:0.43;" x1="50.179" y1="-37.47" x2="51.548" y2="-34.984"/>

			<line style="fill-rule:evenodd;clip-rule:evenodd;fill:none;stroke:#000000;stroke-width:0.43;" x1="89.401" y1="-52.113" x2="90.649" y2="-54.661"/>

			<line style="fill-rule:evenodd;clip-rule:evenodd;fill:none;stroke:#000000;stroke-width:0.43;" x1="80.514" y1="-50.2" x2="83.339" y2="-50.469"/>

			<line style="fill-rule:evenodd;clip-rule:evenodd;fill:none;stroke:#000000;stroke-width:0.43;" x1="73.877" y1="-50.763" x2="75.855" y2="-52.797"/>

			<line style="fill-rule:evenodd;clip-rule:evenodd;fill:none;stroke:#000000;stroke-width:0.43;" x1="86.983" y1="-43.394" x2="87.617" y2="-46.16"/>

			<line style="fill-rule:evenodd;clip-rule:evenodd;fill:none;stroke:#000000;stroke-width:0.43;" x1="80.233" y1="-44.856" x2="77.491" y2="-45.587"/>

			<line style="fill-rule:evenodd;clip-rule:evenodd;fill:none;stroke:#000000;stroke-width:0.43;" x1="71.177" y1="-47.163" x2="70.113" y2="-49.793"/>

			<line style="fill-rule:evenodd;clip-rule:evenodd;fill:none;stroke:#000000;stroke-width:0.43;" x1="73.989" y1="-42.213" x2="71.418" y2="-41.013"/>

			<line style="fill-rule:evenodd;clip-rule:evenodd;fill:none;stroke:#000000;stroke-width:0.43;" x1="82.089" y1="-39.119" x2="79.665" y2="-37.644"/>

			<line style="fill-rule:evenodd;clip-rule:evenodd;fill:none;stroke:#000000;stroke-width:0.43;" x1="90.181" y1="-37.095" x2="87.709" y2="-38.487"/>

			<line style="fill-rule:evenodd;clip-rule:evenodd;fill:none;stroke:#000000;stroke-width:0.43;" x1="72.858" y1="-37.47" x2="74.228" y2="-34.984"/>

			<line style="fill-rule:evenodd;clip-rule:evenodd;fill:none;stroke:#000000;stroke-width:0.43;" x1="21.364" y1="-74.791" x2="22.612" y2="-77.34"/>

			<line style="fill-rule:evenodd;clip-rule:evenodd;fill:none;stroke:#000000;stroke-width:0.43;" x1="12.477" y1="-72.879" x2="15.302" y2="-73.148"/>

			<line style="fill-rule:evenodd;clip-rule:evenodd;fill:none;stroke:#000000;stroke-width:0.43;" x1="5.839" y1="-73.441" x2="7.817" y2="-75.476"/>

			<line style="fill-rule:evenodd;clip-rule:evenodd;fill:none;stroke:#000000;stroke-width:0.43;" x1="18.945" y1="-66.073" x2="19.58" y2="-68.839"/>

			<line style="fill-rule:evenodd;clip-rule:evenodd;fill:none;stroke:#000000;stroke-width:0.43;" x1="12.195" y1="-67.535" x2="9.454" y2="-68.267"/>

			<line style="fill-rule:evenodd;clip-rule:evenodd;fill:none;stroke:#000000;stroke-width:0.43;" x1="3.14" y1="-69.842" x2="2.076" y2="-72.472"/>

			<line style="fill-rule:evenodd;clip-rule:evenodd;fill:none;stroke:#000000;stroke-width:0.43;" x1="5.952" y1="-64.892" x2="3.38" y2="-63.692"/>

			<line style="fill-rule:evenodd;clip-rule:evenodd;fill:none;stroke:#000000;stroke-width:0.43;" x1="14.052" y1="-61.798" x2="11.628" y2="-60.323"/>

			<line style="fill-rule:evenodd;clip-rule:evenodd;fill:none;stroke:#000000;stroke-width:0.43;" x1="22.144" y1="-59.774" x2="19.672" y2="-61.166"/>

			<line style="fill-rule:evenodd;clip-rule:evenodd;fill:none;stroke:#000000;stroke-width:0.43;" x1="4.821" y1="-60.149" x2="6.19" y2="-57.664"/>

			<line style="fill-rule:evenodd;clip-rule:evenodd;fill:none;stroke:#000000;stroke-width:0.43;" x1="44.043" y1="-74.791" x2="45.292" y2="-77.34"/>

			<line style="fill-rule:evenodd;clip-rule:evenodd;fill:none;stroke:#000000;stroke-width:0.43;" x1="35.156" y1="-72.879" x2="37.981" y2="-73.148"/>

			<line style="fill-rule:evenodd;clip-rule:evenodd;fill:none;stroke:#000000;stroke-width:0.43;" x1="28.519" y1="-73.441" x2="30.497" y2="-75.476"/>

			<line style="fill-rule:evenodd;clip-rule:evenodd;fill:none;stroke:#000000;stroke-width:0.43;" x1="41.625" y1="-66.073" x2="42.259" y2="-68.839"/>

			<line style="fill-rule:evenodd;clip-rule:evenodd;fill:none;stroke:#000000;stroke-width:0.43;" x1="34.875" y1="-67.535" x2="32.133" y2="-68.267"/>

			<line style="fill-rule:evenodd;clip-rule:evenodd;fill:none;stroke:#000000;stroke-width:0.43;" x1="25.818" y1="-69.842" x2="24.755" y2="-72.472"/>

			<line style="fill-rule:evenodd;clip-rule:evenodd;fill:none;stroke:#000000;stroke-width:0.43;" x1="28.631" y1="-64.892" x2="26.06" y2="-63.692"/>

			<line style="fill-rule:evenodd;clip-rule:evenodd;fill:none;stroke:#000000;stroke-width:0.43;" x1="36.731" y1="-61.798" x2="34.307" y2="-60.323"/>

			<line style="fill-rule:evenodd;clip-rule:evenodd;fill:none;stroke:#000000;stroke-width:0.43;" x1="44.823" y1="-59.774" x2="42.351" y2="-61.166"/>

			<line style="fill-rule:evenodd;clip-rule:evenodd;fill:none;stroke:#000000;stroke-width:0.43;" x1="27.5" y1="-60.149" x2="28.869" y2="-57.664"/>

			<line style="fill-rule:evenodd;clip-rule:evenodd;fill:none;stroke:#000000;stroke-width:0.43;" x1="66.722" y1="-74.791" x2="67.971" y2="-77.34"/>

			<line style="fill-rule:evenodd;clip-rule:evenodd;fill:none;stroke:#000000;stroke-width:0.43;" x1="57.835" y1="-72.879" x2="60.66" y2="-73.148"/>

			<line style="fill-rule:evenodd;clip-rule:evenodd;fill:none;stroke:#000000;stroke-width:0.43;" x1="51.198" y1="-73.441" x2="53.176" y2="-75.476"/>

			<line style="fill-rule:evenodd;clip-rule:evenodd;fill:none;stroke:#000000;stroke-width:0.43;" x1="64.304" y1="-66.073" x2="64.938" y2="-68.839"/>

			<line style="fill-rule:evenodd;clip-rule:evenodd;fill:none;stroke:#000000;stroke-width:0.43;" x1="57.554" y1="-67.535" x2="54.812" y2="-68.267"/>

			<line style="fill-rule:evenodd;clip-rule:evenodd;fill:none;stroke:#000000;stroke-width:0.43;" x1="48.498" y1="-69.842" x2="47.434" y2="-72.472"/>

			<line style="fill-rule:evenodd;clip-rule:evenodd;fill:none;stroke:#000000;stroke-width:0.43;" x1="51.31" y1="-64.892" x2="48.739" y2="-63.692"/>

			<line style="fill-rule:evenodd;clip-rule:evenodd;fill:none;stroke:#000000;stroke-width:0.43;" x1="59.41" y1="-61.798" x2="56.986" y2="-60.323"/>

			<line style="fill-rule:evenodd;clip-rule:evenodd;fill:none;stroke:#000000;stroke-width:0.43;" x1="67.502" y1="-59.774" x2="65.03" y2="-61.166"/>

			<line style="fill-rule:evenodd;clip-rule:evenodd;fill:none;stroke:#000000;stroke-width:0.43;" x1="50.179" y1="-60.149" x2="51.548" y2="-57.664"/>

			<line style="fill-rule:evenodd;clip-rule:evenodd;fill:none;stroke:#000000;stroke-width:0.43;" x1="89.401" y1="-74.791" x2="90.649" y2="-77.34"/>

			<line style="fill-rule:evenodd;clip-rule:evenodd;fill:none;stroke:#000000;stroke-width:0.43;" x1="80.514" y1="-72.879" x2="83.339" y2="-73.148"/>

			<line style="fill-rule:evenodd;clip-rule:evenodd;fill:none;stroke:#000000;stroke-width:0.43;" x1="73.877" y1="-73.441" x2="75.855" y2="-75.476"/>

			<line style="fill-rule:evenodd;clip-rule:evenodd;fill:none;stroke:#000000;stroke-width:0.43;" x1="86.983" y1="-66.073" x2="87.617" y2="-68.839"/>

			<line style="fill-rule:evenodd;clip-rule:evenodd;fill:none;stroke:#000000;stroke-width:0.43;" x1="80.233" y1="-67.535" x2="77.491" y2="-68.267"/>

			<line style="fill-rule:evenodd;clip-rule:evenodd;fill:none;stroke:#000000;stroke-width:0.43;" x1="71.177" y1="-69.842" x2="70.113" y2="-72.472"/>

			<line style="fill-rule:evenodd;clip-rule:evenodd;fill:none;stroke:#000000;stroke-width:0.43;" x1="73.989" y1="-64.892" x2="71.418" y2="-63.692"/>

			<line style="fill-rule:evenodd;clip-rule:evenodd;fill:none;stroke:#000000;stroke-width:0.43;" x1="82.089" y1="-61.798" x2="79.665" y2="-60.323"/>

			<line style="fill-rule:evenodd;clip-rule:evenodd;fill:none;stroke:#000000;stroke-width:0.43;" x1="90.181" y1="-59.774" x2="87.709" y2="-61.166"/>

			<line style="fill-rule:evenodd;clip-rule:evenodd;fill:none;stroke:#000000;stroke-width:0.43;" x1="72.858" y1="-60.149" x2="74.228" y2="-57.664"/>

			<line style="fill-rule:evenodd;clip-rule:evenodd;fill:none;stroke:#000000;stroke-width:0.43;" x1="18.945" y1="-88.752" x2="19.58" y2="-91.518"/>

			<line style="fill-rule:evenodd;clip-rule:evenodd;fill:none;stroke:#000000;stroke-width:0.43;" x1="9.454" y1="-90.945" x2="12.195" y2="-90.214"/>

			<line style="fill-rule:evenodd;clip-rule:evenodd;fill:none;stroke:#000000;stroke-width:0.43;" x1="5.952" y1="-87.571" x2="3.38" y2="-86.371"/>

			<line style="fill-rule:evenodd;clip-rule:evenodd;fill:none;stroke:#000000;stroke-width:0.43;" x1="14.052" y1="-84.477" x2="11.628" y2="-83.002"/>

			<line style="fill-rule:evenodd;clip-rule:evenodd;fill:none;stroke:#000000;stroke-width:0.43;" x1="22.144" y1="-82.453" x2="19.672" y2="-83.845"/>

			<line style="fill-rule:evenodd;clip-rule:evenodd;fill:none;stroke:#000000;stroke-width:0.43;" x1="4.821" y1="-82.828" x2="6.19" y2="-80.343"/>

			<line style="fill-rule:evenodd;clip-rule:evenodd;fill:none;stroke:#000000;stroke-width:0.43;" x1="41.625" y1="-88.752" x2="42.259" y2="-91.518"/>

			<line style="fill-rule:evenodd;clip-rule:evenodd;fill:none;stroke:#000000;stroke-width:0.43;" x1="32.133" y1="-90.945" x2="34.875" y2="-90.214"/>

			<line style="fill-rule:evenodd;clip-rule:evenodd;fill:none;stroke:#000000;stroke-width:0.43;" x1="28.631" y1="-87.571" x2="26.06" y2="-86.371"/>

			<line style="fill-rule:evenodd;clip-rule:evenodd;fill:none;stroke:#000000;stroke-width:0.43;" x1="36.731" y1="-84.477" x2="34.307" y2="-83.002"/>

			<line style="fill-rule:evenodd;clip-rule:evenodd;fill:none;stroke:#000000;stroke-width:0.43;" x1="44.823" y1="-82.453" x2="42.351" y2="-83.845"/>

			<line style="fill-rule:evenodd;clip-rule:evenodd;fill:none;stroke:#000000;stroke-width:0.43;" x1="27.5" y1="-82.828" x2="28.869" y2="-80.343"/>

			<line style="fill-rule:evenodd;clip-rule:evenodd;fill:none;stroke:#000000;stroke-width:0.43;" x1="64.304" y1="-88.752" x2="64.938" y2="-91.518"/>

			<line style="fill-rule:evenodd;clip-rule:evenodd;fill:none;stroke:#000000;stroke-width:0.43;" x1="54.812" y1="-90.945" x2="57.554" y2="-90.214"/>

			<line style="fill-rule:evenodd;clip-rule:evenodd;fill:none;stroke:#000000;stroke-width:0.43;" x1="51.31" y1="-87.571" x2="48.739" y2="-86.371"/>

			<line style="fill-rule:evenodd;clip-rule:evenodd;fill:none;stroke:#000000;stroke-width:0.43;" x1="59.41" y1="-84.477" x2="56.986" y2="-83.002"/>

			<line style="fill-rule:evenodd;clip-rule:evenodd;fill:none;stroke:#000000;stroke-width:0.43;" x1="67.502" y1="-82.453" x2="65.03" y2="-83.845"/>

			<line style="fill-rule:evenodd;clip-rule:evenodd;fill:none;stroke:#000000;stroke-width:0.43;" x1="50.179" y1="-82.828" x2="51.548" y2="-80.343"/>

			<line style="fill-rule:evenodd;clip-rule:evenodd;fill:none;stroke:#000000;stroke-width:0.43;" x1="86.983" y1="-88.752" x2="87.617" y2="-91.518"/>

			<line style="fill-rule:evenodd;clip-rule:evenodd;fill:none;stroke:#000000;stroke-width:0.43;" x1="77.491" y1="-90.945" x2="80.233" y2="-90.214"/>

			<line style="fill-rule:evenodd;clip-rule:evenodd;fill:none;stroke:#000000;stroke-width:0.43;" x1="73.989" y1="-87.571" x2="71.418" y2="-86.371"/>

			<line style="fill-rule:evenodd;clip-rule:evenodd;fill:none;stroke:#000000;stroke-width:0.43;" x1="82.089" y1="-84.477" x2="79.665" y2="-83.002"/>

			<line style="fill-rule:evenodd;clip-rule:evenodd;fill:none;stroke:#000000;stroke-width:0.43;" x1="90.181" y1="-82.453" x2="87.709" y2="-83.845"/>

			<line style="fill-rule:evenodd;clip-rule:evenodd;fill:none;stroke:#000000;stroke-width:0.43;" x1="72.858" y1="-82.828" x2="74.228" y2="-80.343"/>

			<line style="fill-rule:evenodd;clip-rule:evenodd;fill:none;stroke:#000000;stroke-width:0.43;" x1="38.544" y1="-31.88" x2="39.086" y2="-34.732"/>

			<line style="fill-rule:evenodd;clip-rule:evenodd;fill:none;stroke:#000000;stroke-width:0.43;" x1="61.223" y1="-31.88" x2="61.765" y2="-34.732"/>

			<line style="fill-rule:evenodd;clip-rule:evenodd;fill:none;stroke:#000000;stroke-width:0.43;" x1="83.902" y1="-31.88" x2="84.444" y2="-34.732"/>

			<line style="fill-rule:evenodd;clip-rule:evenodd;fill:none;stroke:#000000;stroke-width:0.43;" x1="83.902" y1="-54.559" x2="84.444" y2="-57.412"/>

			<line style="fill-rule:evenodd;clip-rule:evenodd;fill:none;stroke:#000000;stroke-width:0.43;" x1="61.223" y1="-54.559" x2="61.765" y2="-57.412"/>

			<line style="fill-rule:evenodd;clip-rule:evenodd;fill:none;stroke:#000000;stroke-width:0.43;" x1="38.544" y1="-54.559" x2="39.086" y2="-57.412"/>

			<line style="fill-rule:evenodd;clip-rule:evenodd;fill:none;stroke:#000000;stroke-width:0.43;" x1="15.865" y1="-54.559" x2="16.407" y2="-57.412"/>

			<line style="fill-rule:evenodd;clip-rule:evenodd;fill:none;stroke:#000000;stroke-width:0.43;" x1="15.865" y1="-77.238" x2="16.407" y2="-80.09"/>

			<line style="fill-rule:evenodd;clip-rule:evenodd;fill:none;stroke:#000000;stroke-width:0.43;" x1="38.544" y1="-77.238" x2="39.086" y2="-80.09"/>

			<line style="fill-rule:evenodd;clip-rule:evenodd;fill:none;stroke:#000000;stroke-width:0.43;" x1="61.223" y1="-77.238" x2="61.765" y2="-80.09"/>

			<line style="fill-rule:evenodd;clip-rule:evenodd;fill:none;stroke:#000000;stroke-width:0.43;" x1="83.902" y1="-77.238" x2="84.444" y2="-80.09"/>

			<line style="fill-rule:evenodd;clip-rule:evenodd;fill:none;stroke:#000000;stroke-width:0.43;" x1="16.407" y1="-12.122" x2="16.182" y2="-10.936"/>

			<line style="fill-rule:evenodd;clip-rule:evenodd;fill:none;stroke:#000000;stroke-width:0.43;" x1="39.086" y1="-12.122" x2="38.861" y2="-10.936"/>

			<line style="fill-rule:evenodd;clip-rule:evenodd;fill:none;stroke:#000000;stroke-width:0.43;" x1="61.765" y1="-12.122" x2="61.54" y2="-10.936"/>

			<line style="fill-rule:evenodd;clip-rule:evenodd;fill:none;stroke:#000000;stroke-width:0.43;" x1="84.444" y1="-12.122" x2="84.219" y2="-10.936"/>

			<line style="fill-rule:evenodd;clip-rule:evenodd;fill:none;stroke:#000000;stroke-width:0.43;" x1="21.364" y1="-6.81" x2="22.612" y2="-9.358"/>

			<line style="fill-rule:evenodd;clip-rule:evenodd;fill:none;stroke:#000000;stroke-width:0.43;" x1="12.477" y1="-4.898" x2="15.302" y2="-5.167"/>

			<line style="fill-rule:evenodd;clip-rule:evenodd;fill:none;stroke:#000000;stroke-width:0.43;" x1="5.839" y1="-5.46" x2="7.817" y2="-7.495"/>

			<line style="fill-rule:evenodd;clip-rule:evenodd;fill:none;stroke:#000000;stroke-width:0.43;" x1="2.076" y1="-4.491" x2="3.14" y2="-1.86"/>

			<line style="fill-rule:evenodd;clip-rule:evenodd;fill:none;stroke:#000000;stroke-width:0.43;" x1="44.043" y1="-6.81" x2="45.292" y2="-9.358"/>

			<line style="fill-rule:evenodd;clip-rule:evenodd;fill:none;stroke:#000000;stroke-width:0.43;" x1="35.156" y1="-4.898" x2="37.981" y2="-5.167"/>

			<line style="fill-rule:evenodd;clip-rule:evenodd;fill:none;stroke:#000000;stroke-width:0.43;" x1="28.519" y1="-5.46" x2="30.497" y2="-7.495"/>

			<line style="fill-rule:evenodd;clip-rule:evenodd;fill:none;stroke:#000000;stroke-width:0.43;" x1="24.755" y1="-4.491" x2="25.818" y2="-1.86"/>

			<line style="fill-rule:evenodd;clip-rule:evenodd;fill:none;stroke:#000000;stroke-width:0.43;" x1="66.722" y1="-6.81" x2="67.971" y2="-9.358"/>

			<line style="fill-rule:evenodd;clip-rule:evenodd;fill:none;stroke:#000000;stroke-width:0.43;" x1="57.835" y1="-4.898" x2="60.66" y2="-5.167"/>

			<line style="fill-rule:evenodd;clip-rule:evenodd;fill:none;stroke:#000000;stroke-width:0.43;" x1="51.198" y1="-5.46" x2="53.176" y2="-7.495"/>

			<line style="fill-rule:evenodd;clip-rule:evenodd;fill:none;stroke:#000000;stroke-width:0.43;" x1="47.434" y1="-4.491" x2="48.498" y2="-1.86"/>

			<line style="fill-rule:evenodd;clip-rule:evenodd;fill:none;stroke:#000000;stroke-width:0.43;" x1="89.401" y1="-6.81" x2="90.649" y2="-9.358"/>

			<line style="fill-rule:evenodd;clip-rule:evenodd;fill:none;stroke:#000000;stroke-width:0.43;" x1="80.514" y1="-4.898" x2="83.339" y2="-5.167"/>

			<line style="fill-rule:evenodd;clip-rule:evenodd;fill:none;stroke:#000000;stroke-width:0.43;" x1="73.877" y1="-5.46" x2="75.855" y2="-7.495"/>

			<line style="fill-rule:evenodd;clip-rule:evenodd;fill:none;stroke:#000000;stroke-width:0.43;" x1="70.113" y1="-4.491" x2="71.177" y2="-1.86"/>

			<line style="fill-rule:evenodd;clip-rule:evenodd;fill:none;stroke:#000000;stroke-width:0.43;" x1="16.182" y1="-10.923" x2="15.865" y2="-9.257"/>

			<line style="fill-rule:evenodd;clip-rule:evenodd;fill:none;stroke:#000000;stroke-width:0.43;" x1="38.861" y1="-10.923" x2="38.544" y2="-9.257"/>

			<line style="fill-rule:evenodd;clip-rule:evenodd;fill:none;stroke:#000000;stroke-width:0.43;" x1="61.54" y1="-10.923" x2="61.223" y2="-9.257"/>

			<line style="fill-rule:evenodd;clip-rule:evenodd;fill:none;stroke:#000000;stroke-width:0.43;" x1="84.219" y1="-10.923" x2="83.902" y2="-9.257"/>
	</g>
</svg>
