<?xml version="1.0"?>
<!-- Converted with SVG Converter - Version 0.9.5 (Compiled Fri Feb 21 09:53:38 2020) - Copyright (C) 2011 Nokia -->
<svg xmlns="http://www.w3.org/2000/svg" viewBox="1 -92.089 90.647 90.647" y="0px" height="90.647" width="90.647" xmlns:xlink="http://www.w3.org/1999/xlink" version="1.1" baseProfile="tiny" xml:space="preserve" x="0px">
 <g>
  <rect y="-92.089" height="90.647" width="90.647" style="fill:none;" x="1"/>
  <line x2="22.612" y1="-29.434" style="fill-rule:evenodd;clip-rule:evenodd;fill:none;stroke:#000000;stroke-width:0.43;" x1="21.364" y2="-31.981"/>
  <line x2="15.302" y1="-27.521" style="fill-rule:evenodd;clip-rule:evenodd;fill:none;stroke:#000000;stroke-width:0.43;" x1="12.477" y2="-27.79"/>
  <line x2="7.817" y1="-28.083" style="fill-rule:evenodd;clip-rule:evenodd;fill:none;stroke:#000000;stroke-width:0.43;" x1="5.839" y2="-30.118"/>
  <line x2="18.945" y1="-23.48" style="fill-rule:evenodd;clip-rule:evenodd;fill:none;stroke:#000000;stroke-width:0.43;" x1="19.58" y2="-20.715"/>
  <line x2="9.454" y1="-22.178" style="fill-rule:evenodd;clip-rule:evenodd;fill:none;stroke:#000000;stroke-width:0.43;" x1="12.195" y2="-22.908"/>
  <line x2="2.076" y1="-24.483" style="fill-rule:evenodd;clip-rule:evenodd;fill:none;stroke:#000000;stroke-width:0.43;" x1="3.14" y2="-27.114"/>
  <line x2="3.38" y1="-19.533" style="fill-rule:evenodd;clip-rule:evenodd;fill:none;stroke:#000000;stroke-width:0.43;" x1="5.952" y2="-18.334"/>
  <line x2="11.628" y1="-16.44" style="fill-rule:evenodd;clip-rule:evenodd;fill:none;stroke:#000000;stroke-width:0.43;" x1="14.052" y2="-14.965"/>
  <line x2="19.672" y1="-14.416" style="fill-rule:evenodd;clip-rule:evenodd;fill:none;stroke:#000000;stroke-width:0.43;" x1="22.144" y2="-15.809"/>
  <line x2="4.821" y1="-12.306" style="fill-rule:evenodd;clip-rule:evenodd;fill:none;stroke:#000000;stroke-width:0.43;" x1="6.19" y2="-14.791"/>
  <line x2="45.292" y1="-29.434" style="fill-rule:evenodd;clip-rule:evenodd;fill:none;stroke:#000000;stroke-width:0.43;" x1="44.043" y2="-31.981"/>
  <line x2="37.981" y1="-27.521" style="fill-rule:evenodd;clip-rule:evenodd;fill:none;stroke:#000000;stroke-width:0.43;" x1="35.156" y2="-27.79"/>
  <line x2="30.497" y1="-28.083" style="fill-rule:evenodd;clip-rule:evenodd;fill:none;stroke:#000000;stroke-width:0.43;" x1="28.519" y2="-30.118"/>
  <line x2="41.625" y1="-23.48" style="fill-rule:evenodd;clip-rule:evenodd;fill:none;stroke:#000000;stroke-width:0.43;" x1="42.259" y2="-20.715"/>
  <line x2="32.133" y1="-22.178" style="fill-rule:evenodd;clip-rule:evenodd;fill:none;stroke:#000000;stroke-width:0.43;" x1="34.875" y2="-22.908"/>
  <line x2="24.755" y1="-24.483" style="fill-rule:evenodd;clip-rule:evenodd;fill:none;stroke:#000000;stroke-width:0.43;" x1="25.818" y2="-27.114"/>
  <line x2="26.06" y1="-19.533" style="fill-rule:evenodd;clip-rule:evenodd;fill:none;stroke:#000000;stroke-width:0.43;" x1="28.631" y2="-18.334"/>
  <line x2="34.307" y1="-16.44" style="fill-rule:evenodd;clip-rule:evenodd;fill:none;stroke:#000000;stroke-width:0.43;" x1="36.731" y2="-14.965"/>
  <line x2="42.351" y1="-14.416" style="fill-rule:evenodd;clip-rule:evenodd;fill:none;stroke:#000000;stroke-width:0.43;" x1="44.823" y2="-15.809"/>
  <line x2="27.5" y1="-12.306" style="fill-rule:evenodd;clip-rule:evenodd;fill:none;stroke:#000000;stroke-width:0.43;" x1="28.869" y2="-14.791"/>
  <line x2="67.971" y1="-29.434" style="fill-rule:evenodd;clip-rule:evenodd;fill:none;stroke:#000000;stroke-width:0.43;" x1="66.722" y2="-31.981"/>
  <line x2="60.66" y1="-27.521" style="fill-rule:evenodd;clip-rule:evenodd;fill:none;stroke:#000000;stroke-width:0.43;" x1="57.835" y2="-27.79"/>
  <line x2="53.176" y1="-28.083" style="fill-rule:evenodd;clip-rule:evenodd;fill:none;stroke:#000000;stroke-width:0.43;" x1="51.198" y2="-30.118"/>
  <line x2="64.304" y1="-23.48" style="fill-rule:evenodd;clip-rule:evenodd;fill:none;stroke:#000000;stroke-width:0.43;" x1="64.938" y2="-20.715"/>
  <line x2="54.812" y1="-22.178" style="fill-rule:evenodd;clip-rule:evenodd;fill:none;stroke:#000000;stroke-width:0.43;" x1="57.554" y2="-22.908"/>
  <line x2="47.434" y1="-24.483" style="fill-rule:evenodd;clip-rule:evenodd;fill:none;stroke:#000000;stroke-width:0.43;" x1="48.498" y2="-27.114"/>
  <line x2="48.739" y1="-19.533" style="fill-rule:evenodd;clip-rule:evenodd;fill:none;stroke:#000000;stroke-width:0.43;" x1="51.31" y2="-18.334"/>
  <line x2="56.986" y1="-16.44" style="fill-rule:evenodd;clip-rule:evenodd;fill:none;stroke:#000000;stroke-width:0.43;" x1="59.41" y2="-14.965"/>
  <line x2="65.03" y1="-14.416" style="fill-rule:evenodd;clip-rule:evenodd;fill:none;stroke:#000000;stroke-width:0.43;" x1="67.502" y2="-15.809"/>
  <line x2="50.179" y1="-12.306" style="fill-rule:evenodd;clip-rule:evenodd;fill:none;stroke:#000000;stroke-width:0.43;" x1="51.548" y2="-14.791"/>
  <line x2="90.649" y1="-29.434" style="fill-rule:evenodd;clip-rule:evenodd;fill:none;stroke:#000000;stroke-width:0.43;" x1="89.401" y2="-31.981"/>
  <line x2="83.339" y1="-27.521" style="fill-rule:evenodd;clip-rule:evenodd;fill:none;stroke:#000000;stroke-width:0.43;" x1="80.514" y2="-27.79"/>
  <line x2="75.855" y1="-28.083" style="fill-rule:evenodd;clip-rule:evenodd;fill:none;stroke:#000000;stroke-width:0.43;" x1="73.877" y2="-30.118"/>
  <line x2="86.983" y1="-23.48" style="fill-rule:evenodd;clip-rule:evenodd;fill:none;stroke:#000000;stroke-width:0.43;" x1="87.617" y2="-20.715"/>
  <line x2="77.491" y1="-22.178" style="fill-rule:evenodd;clip-rule:evenodd;fill:none;stroke:#000000;stroke-width:0.43;" x1="80.233" y2="-22.908"/>
  <line x2="70.113" y1="-24.483" style="fill-rule:evenodd;clip-rule:evenodd;fill:none;stroke:#000000;stroke-width:0.43;" x1="71.177" y2="-27.114"/>
  <line x2="71.418" y1="-19.533" style="fill-rule:evenodd;clip-rule:evenodd;fill:none;stroke:#000000;stroke-width:0.43;" x1="73.989" y2="-18.334"/>
  <line x2="79.665" y1="-16.44" style="fill-rule:evenodd;clip-rule:evenodd;fill:none;stroke:#000000;stroke-width:0.43;" x1="82.089" y2="-14.965"/>
  <line x2="87.709" y1="-14.416" style="fill-rule:evenodd;clip-rule:evenodd;fill:none;stroke:#000000;stroke-width:0.43;" x1="90.181" y2="-15.809"/>
  <line x2="72.858" y1="-12.306" style="fill-rule:evenodd;clip-rule:evenodd;fill:none;stroke:#000000;stroke-width:0.43;" x1="74.228" y2="-14.791"/>
  <line x2="22.612" y1="-52.113" style="fill-rule:evenodd;clip-rule:evenodd;fill:none;stroke:#000000;stroke-width:0.43;" x1="21.364" y2="-54.661"/>
  <line x2="15.302" y1="-50.2" style="fill-rule:evenodd;clip-rule:evenodd;fill:none;stroke:#000000;stroke-width:0.43;" x1="12.477" y2="-50.469"/>
  <line x2="7.817" y1="-50.763" style="fill-rule:evenodd;clip-rule:evenodd;fill:none;stroke:#000000;stroke-width:0.43;" x1="5.839" y2="-52.797"/>
  <line x2="19.58" y1="-43.394" style="fill-rule:evenodd;clip-rule:evenodd;fill:none;stroke:#000000;stroke-width:0.43;" x1="18.945" y2="-46.16"/>
  <line x2="9.454" y1="-44.856" style="fill-rule:evenodd;clip-rule:evenodd;fill:none;stroke:#000000;stroke-width:0.43;" x1="12.195" y2="-45.587"/>
  <line x2="2.076" y1="-47.163" style="fill-rule:evenodd;clip-rule:evenodd;fill:none;stroke:#000000;stroke-width:0.43;" x1="3.14" y2="-49.793"/>
  <line x2="3.38" y1="-42.213" style="fill-rule:evenodd;clip-rule:evenodd;fill:none;stroke:#000000;stroke-width:0.43;" x1="5.952" y2="-41.013"/>
  <line x2="11.628" y1="-39.119" style="fill-rule:evenodd;clip-rule:evenodd;fill:none;stroke:#000000;stroke-width:0.43;" x1="14.052" y2="-37.644"/>
  <line x2="19.672" y1="-37.095" style="fill-rule:evenodd;clip-rule:evenodd;fill:none;stroke:#000000;stroke-width:0.43;" x1="22.144" y2="-38.487"/>
  <line x2="16.407" y1="-31.88" style="fill-rule:evenodd;clip-rule:evenodd;fill:none;stroke:#000000;stroke-width:0.43;" x1="15.865" y2="-34.732"/>
  <line x2="6.19" y1="-37.47" style="fill-rule:evenodd;clip-rule:evenodd;fill:none;stroke:#000000;stroke-width:0.43;" x1="4.821" y2="-34.984"/>
  <line x2="45.292" y1="-52.113" style="fill-rule:evenodd;clip-rule:evenodd;fill:none;stroke:#000000;stroke-width:0.43;" x1="44.043" y2="-54.661"/>
  <line x2="37.981" y1="-50.2" style="fill-rule:evenodd;clip-rule:evenodd;fill:none;stroke:#000000;stroke-width:0.43;" x1="35.156" y2="-50.469"/>
  <line x2="30.497" y1="-50.763" style="fill-rule:evenodd;clip-rule:evenodd;fill:none;stroke:#000000;stroke-width:0.43;" x1="28.519" y2="-52.797"/>
  <line x2="42.259" y1="-43.394" style="fill-rule:evenodd;clip-rule:evenodd;fill:none;stroke:#000000;stroke-width:0.43;" x1="41.625" y2="-46.16"/>
  <line x2="32.133" y1="-44.856" style="fill-rule:evenodd;clip-rule:evenodd;fill:none;stroke:#000000;stroke-width:0.43;" x1="34.875" y2="-45.587"/>
  <line x2="24.755" y1="-47.163" style="fill-rule:evenodd;clip-rule:evenodd;fill:none;stroke:#000000;stroke-width:0.43;" x1="25.818" y2="-49.793"/>
  <line x2="26.06" y1="-42.213" style="fill-rule:evenodd;clip-rule:evenodd;fill:none;stroke:#000000;stroke-width:0.43;" x1="28.631" y2="-41.013"/>
  <line x2="34.307" y1="-39.119" style="fill-rule:evenodd;clip-rule:evenodd;fill:none;stroke:#000000;stroke-width:0.43;" x1="36.731" y2="-37.644"/>
  <line x2="42.351" y1="-37.095" style="fill-rule:evenodd;clip-rule:evenodd;fill:none;stroke:#000000;stroke-width:0.43;" x1="44.823" y2="-38.487"/>
  <line x2="28.869" y1="-37.47" style="fill-rule:evenodd;clip-rule:evenodd;fill:none;stroke:#000000;stroke-width:0.43;" x1="27.5" y2="-34.984"/>
  <line x2="67.971" y1="-52.113" style="fill-rule:evenodd;clip-rule:evenodd;fill:none;stroke:#000000;stroke-width:0.43;" x1="66.722" y2="-54.661"/>
  <line x2="60.66" y1="-50.2" style="fill-rule:evenodd;clip-rule:evenodd;fill:none;stroke:#000000;stroke-width:0.43;" x1="57.835" y2="-50.469"/>
  <line x2="53.176" y1="-50.763" style="fill-rule:evenodd;clip-rule:evenodd;fill:none;stroke:#000000;stroke-width:0.43;" x1="51.198" y2="-52.797"/>
  <line x2="64.938" y1="-43.394" style="fill-rule:evenodd;clip-rule:evenodd;fill:none;stroke:#000000;stroke-width:0.43;" x1="64.304" y2="-46.16"/>
  <line x2="54.812" y1="-44.856" style="fill-rule:evenodd;clip-rule:evenodd;fill:none;stroke:#000000;stroke-width:0.43;" x1="57.554" y2="-45.587"/>
  <line x2="47.434" y1="-47.163" style="fill-rule:evenodd;clip-rule:evenodd;fill:none;stroke:#000000;stroke-width:0.43;" x1="48.498" y2="-49.793"/>
  <line x2="48.739" y1="-42.213" style="fill-rule:evenodd;clip-rule:evenodd;fill:none;stroke:#000000;stroke-width:0.43;" x1="51.31" y2="-41.013"/>
  <line x2="56.986" y1="-39.119" style="fill-rule:evenodd;clip-rule:evenodd;fill:none;stroke:#000000;stroke-width:0.43;" x1="59.41" y2="-37.644"/>
  <line x2="65.03" y1="-37.095" style="fill-rule:evenodd;clip-rule:evenodd;fill:none;stroke:#000000;stroke-width:0.43;" x1="67.502" y2="-38.487"/>
  <line x2="51.548" y1="-37.47" style="fill-rule:evenodd;clip-rule:evenodd;fill:none;stroke:#000000;stroke-width:0.43;" x1="50.179" y2="-34.984"/>
  <line x2="90.649" y1="-52.113" style="fill-rule:evenodd;clip-rule:evenodd;fill:none;stroke:#000000;stroke-width:0.43;" x1="89.401" y2="-54.661"/>
  <line x2="83.339" y1="-50.2" style="fill-rule:evenodd;clip-rule:evenodd;fill:none;stroke:#000000;stroke-width:0.43;" x1="80.514" y2="-50.469"/>
  <line x2="75.855" y1="-50.763" style="fill-rule:evenodd;clip-rule:evenodd;fill:none;stroke:#000000;stroke-width:0.43;" x1="73.877" y2="-52.797"/>
  <line x2="87.617" y1="-43.394" style="fill-rule:evenodd;clip-rule:evenodd;fill:none;stroke:#000000;stroke-width:0.43;" x1="86.983" y2="-46.16"/>
  <line x2="77.491" y1="-44.856" style="fill-rule:evenodd;clip-rule:evenodd;fill:none;stroke:#000000;stroke-width:0.43;" x1="80.233" y2="-45.587"/>
  <line x2="70.113" y1="-47.163" style="fill-rule:evenodd;clip-rule:evenodd;fill:none;stroke:#000000;stroke-width:0.43;" x1="71.177" y2="-49.793"/>
  <line x2="71.418" y1="-42.213" style="fill-rule:evenodd;clip-rule:evenodd;fill:none;stroke:#000000;stroke-width:0.43;" x1="73.989" y2="-41.013"/>
  <line x2="79.665" y1="-39.119" style="fill-rule:evenodd;clip-rule:evenodd;fill:none;stroke:#000000;stroke-width:0.43;" x1="82.089" y2="-37.644"/>
  <line x2="87.709" y1="-37.095" style="fill-rule:evenodd;clip-rule:evenodd;fill:none;stroke:#000000;stroke-width:0.43;" x1="90.181" y2="-38.487"/>
  <line x2="74.228" y1="-37.47" style="fill-rule:evenodd;clip-rule:evenodd;fill:none;stroke:#000000;stroke-width:0.43;" x1="72.858" y2="-34.984"/>
  <line x2="22.612" y1="-74.791" style="fill-rule:evenodd;clip-rule:evenodd;fill:none;stroke:#000000;stroke-width:0.43;" x1="21.364" y2="-77.34"/>
  <line x2="15.302" y1="-72.879" style="fill-rule:evenodd;clip-rule:evenodd;fill:none;stroke:#000000;stroke-width:0.43;" x1="12.477" y2="-73.148"/>
  <line x2="7.817" y1="-73.441" style="fill-rule:evenodd;clip-rule:evenodd;fill:none;stroke:#000000;stroke-width:0.43;" x1="5.839" y2="-75.476"/>
  <line x2="19.58" y1="-66.073" style="fill-rule:evenodd;clip-rule:evenodd;fill:none;stroke:#000000;stroke-width:0.43;" x1="18.945" y2="-68.839"/>
  <line x2="9.454" y1="-67.535" style="fill-rule:evenodd;clip-rule:evenodd;fill:none;stroke:#000000;stroke-width:0.43;" x1="12.195" y2="-68.267"/>
  <line x2="2.076" y1="-69.842" style="fill-rule:evenodd;clip-rule:evenodd;fill:none;stroke:#000000;stroke-width:0.43;" x1="3.14" y2="-72.472"/>
  <line x2="3.38" y1="-64.892" style="fill-rule:evenodd;clip-rule:evenodd;fill:none;stroke:#000000;stroke-width:0.43;" x1="5.952" y2="-63.692"/>
  <line x2="11.628" y1="-61.798" style="fill-rule:evenodd;clip-rule:evenodd;fill:none;stroke:#000000;stroke-width:0.43;" x1="14.052" y2="-60.323"/>
  <line x2="19.672" y1="-59.774" style="fill-rule:evenodd;clip-rule:evenodd;fill:none;stroke:#000000;stroke-width:0.43;" x1="22.144" y2="-61.166"/>
  <line x2="6.19" y1="-60.149" style="fill-rule:evenodd;clip-rule:evenodd;fill:none;stroke:#000000;stroke-width:0.43;" x1="4.821" y2="-57.664"/>
  <line x2="45.292" y1="-74.791" style="fill-rule:evenodd;clip-rule:evenodd;fill:none;stroke:#000000;stroke-width:0.43;" x1="44.043" y2="-77.34"/>
  <line x2="37.981" y1="-72.879" style="fill-rule:evenodd;clip-rule:evenodd;fill:none;stroke:#000000;stroke-width:0.43;" x1="35.156" y2="-73.148"/>
  <line x2="30.497" y1="-73.441" style="fill-rule:evenodd;clip-rule:evenodd;fill:none;stroke:#000000;stroke-width:0.43;" x1="28.519" y2="-75.476"/>
  <line x2="42.259" y1="-66.073" style="fill-rule:evenodd;clip-rule:evenodd;fill:none;stroke:#000000;stroke-width:0.43;" x1="41.625" y2="-68.839"/>
  <line x2="32.133" y1="-67.535" style="fill-rule:evenodd;clip-rule:evenodd;fill:none;stroke:#000000;stroke-width:0.43;" x1="34.875" y2="-68.267"/>
  <line x2="24.755" y1="-69.842" style="fill-rule:evenodd;clip-rule:evenodd;fill:none;stroke:#000000;stroke-width:0.43;" x1="25.818" y2="-72.472"/>
  <line x2="26.06" y1="-64.892" style="fill-rule:evenodd;clip-rule:evenodd;fill:none;stroke:#000000;stroke-width:0.43;" x1="28.631" y2="-63.692"/>
  <line x2="34.307" y1="-61.798" style="fill-rule:evenodd;clip-rule:evenodd;fill:none;stroke:#000000;stroke-width:0.43;" x1="36.731" y2="-60.323"/>
  <line x2="42.351" y1="-59.774" style="fill-rule:evenodd;clip-rule:evenodd;fill:none;stroke:#000000;stroke-width:0.43;" x1="44.823" y2="-61.166"/>
  <line x2="28.869" y1="-60.149" style="fill-rule:evenodd;clip-rule:evenodd;fill:none;stroke:#000000;stroke-width:0.43;" x1="27.5" y2="-57.664"/>
  <line x2="67.971" y1="-74.791" style="fill-rule:evenodd;clip-rule:evenodd;fill:none;stroke:#000000;stroke-width:0.43;" x1="66.722" y2="-77.34"/>
  <line x2="60.66" y1="-72.879" style="fill-rule:evenodd;clip-rule:evenodd;fill:none;stroke:#000000;stroke-width:0.43;" x1="57.835" y2="-73.148"/>
  <line x2="53.176" y1="-73.441" style="fill-rule:evenodd;clip-rule:evenodd;fill:none;stroke:#000000;stroke-width:0.43;" x1="51.198" y2="-75.476"/>
  <line x2="64.938" y1="-66.073" style="fill-rule:evenodd;clip-rule:evenodd;fill:none;stroke:#000000;stroke-width:0.43;" x1="64.304" y2="-68.839"/>
  <line x2="54.812" y1="-67.535" style="fill-rule:evenodd;clip-rule:evenodd;fill:none;stroke:#000000;stroke-width:0.43;" x1="57.554" y2="-68.267"/>
  <line x2="47.434" y1="-69.842" style="fill-rule:evenodd;clip-rule:evenodd;fill:none;stroke:#000000;stroke-width:0.43;" x1="48.498" y2="-72.472"/>
  <line x2="48.739" y1="-64.892" style="fill-rule:evenodd;clip-rule:evenodd;fill:none;stroke:#000000;stroke-width:0.43;" x1="51.31" y2="-63.692"/>
  <line x2="56.986" y1="-61.798" style="fill-rule:evenodd;clip-rule:evenodd;fill:none;stroke:#000000;stroke-width:0.43;" x1="59.41" y2="-60.323"/>
  <line x2="65.03" y1="-59.774" style="fill-rule:evenodd;clip-rule:evenodd;fill:none;stroke:#000000;stroke-width:0.43;" x1="67.502" y2="-61.166"/>
  <line x2="51.548" y1="-60.149" style="fill-rule:evenodd;clip-rule:evenodd;fill:none;stroke:#000000;stroke-width:0.43;" x1="50.179" y2="-57.664"/>
  <line x2="90.649" y1="-74.791" style="fill-rule:evenodd;clip-rule:evenodd;fill:none;stroke:#000000;stroke-width:0.43;" x1="89.401" y2="-77.34"/>
  <line x2="83.339" y1="-72.879" style="fill-rule:evenodd;clip-rule:evenodd;fill:none;stroke:#000000;stroke-width:0.43;" x1="80.514" y2="-73.148"/>
  <line x2="75.855" y1="-73.441" style="fill-rule:evenodd;clip-rule:evenodd;fill:none;stroke:#000000;stroke-width:0.43;" x1="73.877" y2="-75.476"/>
  <line x2="87.617" y1="-66.073" style="fill-rule:evenodd;clip-rule:evenodd;fill:none;stroke:#000000;stroke-width:0.43;" x1="86.983" y2="-68.839"/>
  <line x2="77.491" y1="-67.535" style="fill-rule:evenodd;clip-rule:evenodd;fill:none;stroke:#000000;stroke-width:0.43;" x1="80.233" y2="-68.267"/>
  <line x2="70.113" y1="-69.842" style="fill-rule:evenodd;clip-rule:evenodd;fill:none;stroke:#000000;stroke-width:0.43;" x1="71.177" y2="-72.472"/>
  <line x2="71.418" y1="-64.892" style="fill-rule:evenodd;clip-rule:evenodd;fill:none;stroke:#000000;stroke-width:0.43;" x1="73.989" y2="-63.692"/>
  <line x2="79.665" y1="-61.798" style="fill-rule:evenodd;clip-rule:evenodd;fill:none;stroke:#000000;stroke-width:0.43;" x1="82.089" y2="-60.323"/>
  <line x2="87.709" y1="-59.774" style="fill-rule:evenodd;clip-rule:evenodd;fill:none;stroke:#000000;stroke-width:0.43;" x1="90.181" y2="-61.166"/>
  <line x2="74.228" y1="-60.149" style="fill-rule:evenodd;clip-rule:evenodd;fill:none;stroke:#000000;stroke-width:0.43;" x1="72.858" y2="-57.664"/>
  <line x2="19.58" y1="-88.752" style="fill-rule:evenodd;clip-rule:evenodd;fill:none;stroke:#000000;stroke-width:0.43;" x1="18.945" y2="-91.518"/>
  <line x2="12.195" y1="-90.945" style="fill-rule:evenodd;clip-rule:evenodd;fill:none;stroke:#000000;stroke-width:0.43;" x1="9.454" y2="-90.214"/>
  <line x2="3.38" y1="-87.571" style="fill-rule:evenodd;clip-rule:evenodd;fill:none;stroke:#000000;stroke-width:0.43;" x1="5.952" y2="-86.371"/>
  <line x2="11.628" y1="-84.477" style="fill-rule:evenodd;clip-rule:evenodd;fill:none;stroke:#000000;stroke-width:0.43;" x1="14.052" y2="-83.002"/>
  <line x2="19.672" y1="-82.453" style="fill-rule:evenodd;clip-rule:evenodd;fill:none;stroke:#000000;stroke-width:0.43;" x1="22.144" y2="-83.845"/>
  <line x2="6.19" y1="-82.828" style="fill-rule:evenodd;clip-rule:evenodd;fill:none;stroke:#000000;stroke-width:0.43;" x1="4.821" y2="-80.343"/>
  <line x2="42.259" y1="-88.752" style="fill-rule:evenodd;clip-rule:evenodd;fill:none;stroke:#000000;stroke-width:0.43;" x1="41.625" y2="-91.518"/>
  <line x2="34.875" y1="-90.945" style="fill-rule:evenodd;clip-rule:evenodd;fill:none;stroke:#000000;stroke-width:0.43;" x1="32.133" y2="-90.214"/>
  <line x2="26.06" y1="-87.571" style="fill-rule:evenodd;clip-rule:evenodd;fill:none;stroke:#000000;stroke-width:0.43;" x1="28.631" y2="-86.371"/>
  <line x2="34.307" y1="-84.477" style="fill-rule:evenodd;clip-rule:evenodd;fill:none;stroke:#000000;stroke-width:0.43;" x1="36.731" y2="-83.002"/>
  <line x2="42.351" y1="-82.453" style="fill-rule:evenodd;clip-rule:evenodd;fill:none;stroke:#000000;stroke-width:0.43;" x1="44.823" y2="-83.845"/>
  <line x2="28.869" y1="-82.828" style="fill-rule:evenodd;clip-rule:evenodd;fill:none;stroke:#000000;stroke-width:0.43;" x1="27.5" y2="-80.343"/>
  <line x2="64.938" y1="-88.752" style="fill-rule:evenodd;clip-rule:evenodd;fill:none;stroke:#000000;stroke-width:0.43;" x1="64.304" y2="-91.518"/>
  <line x2="57.554" y1="-90.945" style="fill-rule:evenodd;clip-rule:evenodd;fill:none;stroke:#000000;stroke-width:0.43;" x1="54.812" y2="-90.214"/>
  <line x2="48.739" y1="-87.571" style="fill-rule:evenodd;clip-rule:evenodd;fill:none;stroke:#000000;stroke-width:0.43;" x1="51.31" y2="-86.371"/>
  <line x2="56.986" y1="-84.477" style="fill-rule:evenodd;clip-rule:evenodd;fill:none;stroke:#000000;stroke-width:0.43;" x1="59.41" y2="-83.002"/>
  <line x2="65.03" y1="-82.453" style="fill-rule:evenodd;clip-rule:evenodd;fill:none;stroke:#000000;stroke-width:0.43;" x1="67.502" y2="-83.845"/>
  <line x2="51.548" y1="-82.828" style="fill-rule:evenodd;clip-rule:evenodd;fill:none;stroke:#000000;stroke-width:0.43;" x1="50.179" y2="-80.343"/>
  <line x2="87.617" y1="-88.752" style="fill-rule:evenodd;clip-rule:evenodd;fill:none;stroke:#000000;stroke-width:0.43;" x1="86.983" y2="-91.518"/>
  <line x2="80.233" y1="-90.945" style="fill-rule:evenodd;clip-rule:evenodd;fill:none;stroke:#000000;stroke-width:0.43;" x1="77.491" y2="-90.214"/>
  <line x2="71.418" y1="-87.571" style="fill-rule:evenodd;clip-rule:evenodd;fill:none;stroke:#000000;stroke-width:0.43;" x1="73.989" y2="-86.371"/>
  <line x2="79.665" y1="-84.477" style="fill-rule:evenodd;clip-rule:evenodd;fill:none;stroke:#000000;stroke-width:0.43;" x1="82.089" y2="-83.002"/>
  <line x2="87.709" y1="-82.453" style="fill-rule:evenodd;clip-rule:evenodd;fill:none;stroke:#000000;stroke-width:0.43;" x1="90.181" y2="-83.845"/>
  <line x2="74.228" y1="-82.828" style="fill-rule:evenodd;clip-rule:evenodd;fill:none;stroke:#000000;stroke-width:0.43;" x1="72.858" y2="-80.343"/>
  <line x2="39.086" y1="-31.88" style="fill-rule:evenodd;clip-rule:evenodd;fill:none;stroke:#000000;stroke-width:0.43;" x1="38.544" y2="-34.732"/>
  <line x2="61.765" y1="-31.88" style="fill-rule:evenodd;clip-rule:evenodd;fill:none;stroke:#000000;stroke-width:0.43;" x1="61.223" y2="-34.732"/>
  <line x2="84.444" y1="-31.88" style="fill-rule:evenodd;clip-rule:evenodd;fill:none;stroke:#000000;stroke-width:0.43;" x1="83.902" y2="-34.732"/>
  <line x2="84.444" y1="-54.559" style="fill-rule:evenodd;clip-rule:evenodd;fill:none;stroke:#000000;stroke-width:0.43;" x1="83.902" y2="-57.412"/>
  <line x2="61.765" y1="-54.559" style="fill-rule:evenodd;clip-rule:evenodd;fill:none;stroke:#000000;stroke-width:0.43;" x1="61.223" y2="-57.412"/>
  <line x2="39.086" y1="-54.559" style="fill-rule:evenodd;clip-rule:evenodd;fill:none;stroke:#000000;stroke-width:0.43;" x1="38.544" y2="-57.412"/>
  <line x2="16.407" y1="-54.559" style="fill-rule:evenodd;clip-rule:evenodd;fill:none;stroke:#000000;stroke-width:0.43;" x1="15.865" y2="-57.412"/>
  <line x2="16.407" y1="-77.238" style="fill-rule:evenodd;clip-rule:evenodd;fill:none;stroke:#000000;stroke-width:0.43;" x1="15.865" y2="-80.09"/>
  <line x2="39.086" y1="-77.238" style="fill-rule:evenodd;clip-rule:evenodd;fill:none;stroke:#000000;stroke-width:0.43;" x1="38.544" y2="-80.09"/>
  <line x2="61.765" y1="-77.238" style="fill-rule:evenodd;clip-rule:evenodd;fill:none;stroke:#000000;stroke-width:0.43;" x1="61.223" y2="-80.09"/>
  <line x2="84.444" y1="-77.238" style="fill-rule:evenodd;clip-rule:evenodd;fill:none;stroke:#000000;stroke-width:0.43;" x1="83.902" y2="-80.09"/>
  <line x2="16.182" y1="-12.122" style="fill-rule:evenodd;clip-rule:evenodd;fill:none;stroke:#000000;stroke-width:0.43;" x1="16.407" y2="-10.936"/>
  <line x2="38.861" y1="-12.122" style="fill-rule:evenodd;clip-rule:evenodd;fill:none;stroke:#000000;stroke-width:0.43;" x1="39.086" y2="-10.936"/>
  <line x2="61.54" y1="-12.122" style="fill-rule:evenodd;clip-rule:evenodd;fill:none;stroke:#000000;stroke-width:0.43;" x1="61.765" y2="-10.936"/>
  <line x2="84.219" y1="-12.122" style="fill-rule:evenodd;clip-rule:evenodd;fill:none;stroke:#000000;stroke-width:0.43;" x1="84.444" y2="-10.936"/>
  <line x2="22.612" y1="-6.81" style="fill-rule:evenodd;clip-rule:evenodd;fill:none;stroke:#000000;stroke-width:0.43;" x1="21.364" y2="-9.358"/>
  <line x2="15.302" y1="-4.898" style="fill-rule:evenodd;clip-rule:evenodd;fill:none;stroke:#000000;stroke-width:0.43;" x1="12.477" y2="-5.167"/>
  <line x2="7.817" y1="-5.46" style="fill-rule:evenodd;clip-rule:evenodd;fill:none;stroke:#000000;stroke-width:0.43;" x1="5.839" y2="-7.495"/>
  <line x2="3.14" y1="-4.491" style="fill-rule:evenodd;clip-rule:evenodd;fill:none;stroke:#000000;stroke-width:0.43;" x1="2.076" y2="-1.86"/>
  <line x2="45.292" y1="-6.81" style="fill-rule:evenodd;clip-rule:evenodd;fill:none;stroke:#000000;stroke-width:0.43;" x1="44.043" y2="-9.358"/>
  <line x2="37.981" y1="-4.898" style="fill-rule:evenodd;clip-rule:evenodd;fill:none;stroke:#000000;stroke-width:0.43;" x1="35.156" y2="-5.167"/>
  <line x2="30.497" y1="-5.46" style="fill-rule:evenodd;clip-rule:evenodd;fill:none;stroke:#000000;stroke-width:0.43;" x1="28.519" y2="-7.495"/>
  <line x2="25.818" y1="-4.491" style="fill-rule:evenodd;clip-rule:evenodd;fill:none;stroke:#000000;stroke-width:0.43;" x1="24.755" y2="-1.86"/>
  <line x2="67.971" y1="-6.81" style="fill-rule:evenodd;clip-rule:evenodd;fill:none;stroke:#000000;stroke-width:0.43;" x1="66.722" y2="-9.358"/>
  <line x2="60.66" y1="-4.898" style="fill-rule:evenodd;clip-rule:evenodd;fill:none;stroke:#000000;stroke-width:0.43;" x1="57.835" y2="-5.167"/>
  <line x2="53.176" y1="-5.46" style="fill-rule:evenodd;clip-rule:evenodd;fill:none;stroke:#000000;stroke-width:0.43;" x1="51.198" y2="-7.495"/>
  <line x2="48.498" y1="-4.491" style="fill-rule:evenodd;clip-rule:evenodd;fill:none;stroke:#000000;stroke-width:0.43;" x1="47.434" y2="-1.86"/>
  <line x2="90.649" y1="-6.81" style="fill-rule:evenodd;clip-rule:evenodd;fill:none;stroke:#000000;stroke-width:0.43;" x1="89.401" y2="-9.358"/>
  <line x2="83.339" y1="-4.898" style="fill-rule:evenodd;clip-rule:evenodd;fill:none;stroke:#000000;stroke-width:0.43;" x1="80.514" y2="-5.167"/>
  <line x2="75.855" y1="-5.46" style="fill-rule:evenodd;clip-rule:evenodd;fill:none;stroke:#000000;stroke-width:0.43;" x1="73.877" y2="-7.495"/>
  <line x2="71.177" y1="-4.491" style="fill-rule:evenodd;clip-rule:evenodd;fill:none;stroke:#000000;stroke-width:0.43;" x1="70.113" y2="-1.86"/>
  <line x2="15.865" y1="-10.923" style="fill-rule:evenodd;clip-rule:evenodd;fill:none;stroke:#000000;stroke-width:0.43;" x1="16.182" y2="-9.257"/>
  <line x2="38.544" y1="-10.923" style="fill-rule:evenodd;clip-rule:evenodd;fill:none;stroke:#000000;stroke-width:0.43;" x1="38.861" y2="-9.257"/>
  <line x2="61.223" y1="-10.923" style="fill-rule:evenodd;clip-rule:evenodd;fill:none;stroke:#000000;stroke-width:0.43;" x1="61.54" y2="-9.257"/>
  <line x2="83.902" y1="-10.923" style="fill-rule:evenodd;clip-rule:evenodd;fill:none;stroke:#000000;stroke-width:0.43;" x1="84.219" y2="-9.257"/>
 </g>
</svg>
