<?xml version="1.0"?>
<!-- Converted with SVG Converter - Version 0.9.5 (Compiled Fri Feb 21 09:53:38 2020) - Copyright (C) 2011 Nokia -->
<svg xmlns="http://www.w3.org/2000/svg" x="0px" xmlns:xlink="http://www.w3.org/1999/xlink" y="0px" baseProfile="tiny" viewBox="1 -92.089 90.647 90.647" xml:space="preserve" height="90.647" width="90.647" version="1.1">
 <g>
  <rect x="1" y="-92.089" style="fill:none;" height="90.647" width="90.647"/>
  <line y1="-29.434" y2="-31.981" x1="21.364" style="fill-rule:evenodd;clip-rule:evenodd;fill:none;stroke:#000000;stroke-width:0.43;" x2="22.612"/>
  <line y1="-27.521" y2="-27.79" x1="12.477" style="fill-rule:evenodd;clip-rule:evenodd;fill:none;stroke:#000000;stroke-width:0.43;" x2="15.302"/>
  <line y1="-28.083" y2="-30.118" x1="5.839" style="fill-rule:evenodd;clip-rule:evenodd;fill:none;stroke:#000000;stroke-width:0.43;" x2="7.817"/>
  <line y1="-23.48" y2="-20.715" x1="19.58" style="fill-rule:evenodd;clip-rule:evenodd;fill:none;stroke:#000000;stroke-width:0.43;" x2="18.945"/>
  <line y1="-22.178" y2="-22.908" x1="12.195" style="fill-rule:evenodd;clip-rule:evenodd;fill:none;stroke:#000000;stroke-width:0.43;" x2="9.454"/>
  <line y1="-24.483" y2="-27.114" x1="3.14" style="fill-rule:evenodd;clip-rule:evenodd;fill:none;stroke:#000000;stroke-width:0.43;" x2="2.076"/>
  <line y1="-19.533" y2="-18.334" x1="5.952" style="fill-rule:evenodd;clip-rule:evenodd;fill:none;stroke:#000000;stroke-width:0.43;" x2="3.38"/>
  <line y1="-16.44" y2="-14.965" x1="14.052" style="fill-rule:evenodd;clip-rule:evenodd;fill:none;stroke:#000000;stroke-width:0.43;" x2="11.628"/>
  <line y1="-14.416" y2="-15.809" x1="22.144" style="fill-rule:evenodd;clip-rule:evenodd;fill:none;stroke:#000000;stroke-width:0.43;" x2="19.672"/>
  <line y1="-12.306" y2="-14.791" x1="6.19" style="fill-rule:evenodd;clip-rule:evenodd;fill:none;stroke:#000000;stroke-width:0.43;" x2="4.821"/>
  <line y1="-29.434" y2="-31.981" x1="44.043" style="fill-rule:evenodd;clip-rule:evenodd;fill:none;stroke:#000000;stroke-width:0.43;" x2="45.292"/>
  <line y1="-27.521" y2="-27.79" x1="35.156" style="fill-rule:evenodd;clip-rule:evenodd;fill:none;stroke:#000000;stroke-width:0.43;" x2="37.981"/>
  <line y1="-28.083" y2="-30.118" x1="28.519" style="fill-rule:evenodd;clip-rule:evenodd;fill:none;stroke:#000000;stroke-width:0.43;" x2="30.497"/>
  <line y1="-23.48" y2="-20.715" x1="42.259" style="fill-rule:evenodd;clip-rule:evenodd;fill:none;stroke:#000000;stroke-width:0.43;" x2="41.625"/>
  <line y1="-22.178" y2="-22.908" x1="34.875" style="fill-rule:evenodd;clip-rule:evenodd;fill:none;stroke:#000000;stroke-width:0.43;" x2="32.133"/>
  <line y1="-24.483" y2="-27.114" x1="25.818" style="fill-rule:evenodd;clip-rule:evenodd;fill:none;stroke:#000000;stroke-width:0.43;" x2="24.755"/>
  <line y1="-19.533" y2="-18.334" x1="28.631" style="fill-rule:evenodd;clip-rule:evenodd;fill:none;stroke:#000000;stroke-width:0.43;" x2="26.06"/>
  <line y1="-16.44" y2="-14.965" x1="36.731" style="fill-rule:evenodd;clip-rule:evenodd;fill:none;stroke:#000000;stroke-width:0.43;" x2="34.307"/>
  <line y1="-14.416" y2="-15.809" x1="44.823" style="fill-rule:evenodd;clip-rule:evenodd;fill:none;stroke:#000000;stroke-width:0.43;" x2="42.351"/>
  <line y1="-12.306" y2="-14.791" x1="28.869" style="fill-rule:evenodd;clip-rule:evenodd;fill:none;stroke:#000000;stroke-width:0.43;" x2="27.5"/>
  <line y1="-29.434" y2="-31.981" x1="66.722" style="fill-rule:evenodd;clip-rule:evenodd;fill:none;stroke:#000000;stroke-width:0.43;" x2="67.971"/>
  <line y1="-27.521" y2="-27.79" x1="57.835" style="fill-rule:evenodd;clip-rule:evenodd;fill:none;stroke:#000000;stroke-width:0.43;" x2="60.66"/>
  <line y1="-28.083" y2="-30.118" x1="51.198" style="fill-rule:evenodd;clip-rule:evenodd;fill:none;stroke:#000000;stroke-width:0.43;" x2="53.176"/>
  <line y1="-23.48" y2="-20.715" x1="64.938" style="fill-rule:evenodd;clip-rule:evenodd;fill:none;stroke:#000000;stroke-width:0.43;" x2="64.304"/>
  <line y1="-22.178" y2="-22.908" x1="57.554" style="fill-rule:evenodd;clip-rule:evenodd;fill:none;stroke:#000000;stroke-width:0.43;" x2="54.812"/>
  <line y1="-24.483" y2="-27.114" x1="48.498" style="fill-rule:evenodd;clip-rule:evenodd;fill:none;stroke:#000000;stroke-width:0.43;" x2="47.434"/>
  <line y1="-19.533" y2="-18.334" x1="51.31" style="fill-rule:evenodd;clip-rule:evenodd;fill:none;stroke:#000000;stroke-width:0.43;" x2="48.739"/>
  <line y1="-16.44" y2="-14.965" x1="59.41" style="fill-rule:evenodd;clip-rule:evenodd;fill:none;stroke:#000000;stroke-width:0.43;" x2="56.986"/>
  <line y1="-14.416" y2="-15.809" x1="67.502" style="fill-rule:evenodd;clip-rule:evenodd;fill:none;stroke:#000000;stroke-width:0.43;" x2="65.03"/>
  <line y1="-12.306" y2="-14.791" x1="51.548" style="fill-rule:evenodd;clip-rule:evenodd;fill:none;stroke:#000000;stroke-width:0.43;" x2="50.179"/>
  <line y1="-29.434" y2="-31.981" x1="89.401" style="fill-rule:evenodd;clip-rule:evenodd;fill:none;stroke:#000000;stroke-width:0.43;" x2="90.649"/>
  <line y1="-27.521" y2="-27.79" x1="80.514" style="fill-rule:evenodd;clip-rule:evenodd;fill:none;stroke:#000000;stroke-width:0.43;" x2="83.339"/>
  <line y1="-28.083" y2="-30.118" x1="73.877" style="fill-rule:evenodd;clip-rule:evenodd;fill:none;stroke:#000000;stroke-width:0.43;" x2="75.855"/>
  <line y1="-23.48" y2="-20.715" x1="87.617" style="fill-rule:evenodd;clip-rule:evenodd;fill:none;stroke:#000000;stroke-width:0.43;" x2="86.983"/>
  <line y1="-22.178" y2="-22.908" x1="80.233" style="fill-rule:evenodd;clip-rule:evenodd;fill:none;stroke:#000000;stroke-width:0.43;" x2="77.491"/>
  <line y1="-24.483" y2="-27.114" x1="71.177" style="fill-rule:evenodd;clip-rule:evenodd;fill:none;stroke:#000000;stroke-width:0.43;" x2="70.113"/>
  <line y1="-19.533" y2="-18.334" x1="73.989" style="fill-rule:evenodd;clip-rule:evenodd;fill:none;stroke:#000000;stroke-width:0.43;" x2="71.418"/>
  <line y1="-16.44" y2="-14.965" x1="82.089" style="fill-rule:evenodd;clip-rule:evenodd;fill:none;stroke:#000000;stroke-width:0.43;" x2="79.665"/>
  <line y1="-14.416" y2="-15.809" x1="90.181" style="fill-rule:evenodd;clip-rule:evenodd;fill:none;stroke:#000000;stroke-width:0.43;" x2="87.709"/>
  <line y1="-12.306" y2="-14.791" x1="74.228" style="fill-rule:evenodd;clip-rule:evenodd;fill:none;stroke:#000000;stroke-width:0.43;" x2="72.858"/>
  <line y1="-52.113" y2="-54.661" x1="21.364" style="fill-rule:evenodd;clip-rule:evenodd;fill:none;stroke:#000000;stroke-width:0.43;" x2="22.612"/>
  <line y1="-50.2" y2="-50.469" x1="12.477" style="fill-rule:evenodd;clip-rule:evenodd;fill:none;stroke:#000000;stroke-width:0.43;" x2="15.302"/>
  <line y1="-50.763" y2="-52.797" x1="5.839" style="fill-rule:evenodd;clip-rule:evenodd;fill:none;stroke:#000000;stroke-width:0.43;" x2="7.817"/>
  <line y1="-43.394" y2="-46.16" x1="18.945" style="fill-rule:evenodd;clip-rule:evenodd;fill:none;stroke:#000000;stroke-width:0.43;" x2="19.58"/>
  <line y1="-44.856" y2="-45.587" x1="12.195" style="fill-rule:evenodd;clip-rule:evenodd;fill:none;stroke:#000000;stroke-width:0.43;" x2="9.454"/>
  <line y1="-47.163" y2="-49.793" x1="3.14" style="fill-rule:evenodd;clip-rule:evenodd;fill:none;stroke:#000000;stroke-width:0.43;" x2="2.076"/>
  <line y1="-42.213" y2="-41.013" x1="5.952" style="fill-rule:evenodd;clip-rule:evenodd;fill:none;stroke:#000000;stroke-width:0.43;" x2="3.38"/>
  <line y1="-39.119" y2="-37.644" x1="14.052" style="fill-rule:evenodd;clip-rule:evenodd;fill:none;stroke:#000000;stroke-width:0.43;" x2="11.628"/>
  <line y1="-37.095" y2="-38.487" x1="22.144" style="fill-rule:evenodd;clip-rule:evenodd;fill:none;stroke:#000000;stroke-width:0.43;" x2="19.672"/>
  <line y1="-31.88" y2="-34.732" x1="15.865" style="fill-rule:evenodd;clip-rule:evenodd;fill:none;stroke:#000000;stroke-width:0.43;" x2="16.407"/>
  <line y1="-37.47" y2="-34.984" x1="4.821" style="fill-rule:evenodd;clip-rule:evenodd;fill:none;stroke:#000000;stroke-width:0.43;" x2="6.19"/>
  <line y1="-52.113" y2="-54.661" x1="44.043" style="fill-rule:evenodd;clip-rule:evenodd;fill:none;stroke:#000000;stroke-width:0.43;" x2="45.292"/>
  <line y1="-50.2" y2="-50.469" x1="35.156" style="fill-rule:evenodd;clip-rule:evenodd;fill:none;stroke:#000000;stroke-width:0.43;" x2="37.981"/>
  <line y1="-50.763" y2="-52.797" x1="28.519" style="fill-rule:evenodd;clip-rule:evenodd;fill:none;stroke:#000000;stroke-width:0.43;" x2="30.497"/>
  <line y1="-43.394" y2="-46.16" x1="41.625" style="fill-rule:evenodd;clip-rule:evenodd;fill:none;stroke:#000000;stroke-width:0.43;" x2="42.259"/>
  <line y1="-44.856" y2="-45.587" x1="34.875" style="fill-rule:evenodd;clip-rule:evenodd;fill:none;stroke:#000000;stroke-width:0.43;" x2="32.133"/>
  <line y1="-47.163" y2="-49.793" x1="25.818" style="fill-rule:evenodd;clip-rule:evenodd;fill:none;stroke:#000000;stroke-width:0.43;" x2="24.755"/>
  <line y1="-42.213" y2="-41.013" x1="28.631" style="fill-rule:evenodd;clip-rule:evenodd;fill:none;stroke:#000000;stroke-width:0.43;" x2="26.06"/>
  <line y1="-39.119" y2="-37.644" x1="36.731" style="fill-rule:evenodd;clip-rule:evenodd;fill:none;stroke:#000000;stroke-width:0.43;" x2="34.307"/>
  <line y1="-37.095" y2="-38.487" x1="44.823" style="fill-rule:evenodd;clip-rule:evenodd;fill:none;stroke:#000000;stroke-width:0.43;" x2="42.351"/>
  <line y1="-37.47" y2="-34.984" x1="27.5" style="fill-rule:evenodd;clip-rule:evenodd;fill:none;stroke:#000000;stroke-width:0.43;" x2="28.869"/>
  <line y1="-52.113" y2="-54.661" x1="66.722" style="fill-rule:evenodd;clip-rule:evenodd;fill:none;stroke:#000000;stroke-width:0.43;" x2="67.971"/>
  <line y1="-50.2" y2="-50.469" x1="57.835" style="fill-rule:evenodd;clip-rule:evenodd;fill:none;stroke:#000000;stroke-width:0.43;" x2="60.66"/>
  <line y1="-50.763" y2="-52.797" x1="51.198" style="fill-rule:evenodd;clip-rule:evenodd;fill:none;stroke:#000000;stroke-width:0.43;" x2="53.176"/>
  <line y1="-43.394" y2="-46.16" x1="64.304" style="fill-rule:evenodd;clip-rule:evenodd;fill:none;stroke:#000000;stroke-width:0.43;" x2="64.938"/>
  <line y1="-44.856" y2="-45.587" x1="57.554" style="fill-rule:evenodd;clip-rule:evenodd;fill:none;stroke:#000000;stroke-width:0.43;" x2="54.812"/>
  <line y1="-47.163" y2="-49.793" x1="48.498" style="fill-rule:evenodd;clip-rule:evenodd;fill:none;stroke:#000000;stroke-width:0.43;" x2="47.434"/>
  <line y1="-42.213" y2="-41.013" x1="51.31" style="fill-rule:evenodd;clip-rule:evenodd;fill:none;stroke:#000000;stroke-width:0.43;" x2="48.739"/>
  <line y1="-39.119" y2="-37.644" x1="59.41" style="fill-rule:evenodd;clip-rule:evenodd;fill:none;stroke:#000000;stroke-width:0.43;" x2="56.986"/>
  <line y1="-37.095" y2="-38.487" x1="67.502" style="fill-rule:evenodd;clip-rule:evenodd;fill:none;stroke:#000000;stroke-width:0.43;" x2="65.03"/>
  <line y1="-37.47" y2="-34.984" x1="50.179" style="fill-rule:evenodd;clip-rule:evenodd;fill:none;stroke:#000000;stroke-width:0.43;" x2="51.548"/>
  <line y1="-52.113" y2="-54.661" x1="89.401" style="fill-rule:evenodd;clip-rule:evenodd;fill:none;stroke:#000000;stroke-width:0.43;" x2="90.649"/>
  <line y1="-50.2" y2="-50.469" x1="80.514" style="fill-rule:evenodd;clip-rule:evenodd;fill:none;stroke:#000000;stroke-width:0.43;" x2="83.339"/>
  <line y1="-50.763" y2="-52.797" x1="73.877" style="fill-rule:evenodd;clip-rule:evenodd;fill:none;stroke:#000000;stroke-width:0.43;" x2="75.855"/>
  <line y1="-43.394" y2="-46.16" x1="86.983" style="fill-rule:evenodd;clip-rule:evenodd;fill:none;stroke:#000000;stroke-width:0.43;" x2="87.617"/>
  <line y1="-44.856" y2="-45.587" x1="80.233" style="fill-rule:evenodd;clip-rule:evenodd;fill:none;stroke:#000000;stroke-width:0.43;" x2="77.491"/>
  <line y1="-47.163" y2="-49.793" x1="71.177" style="fill-rule:evenodd;clip-rule:evenodd;fill:none;stroke:#000000;stroke-width:0.43;" x2="70.113"/>
  <line y1="-42.213" y2="-41.013" x1="73.989" style="fill-rule:evenodd;clip-rule:evenodd;fill:none;stroke:#000000;stroke-width:0.43;" x2="71.418"/>
  <line y1="-39.119" y2="-37.644" x1="82.089" style="fill-rule:evenodd;clip-rule:evenodd;fill:none;stroke:#000000;stroke-width:0.43;" x2="79.665"/>
  <line y1="-37.095" y2="-38.487" x1="90.181" style="fill-rule:evenodd;clip-rule:evenodd;fill:none;stroke:#000000;stroke-width:0.43;" x2="87.709"/>
  <line y1="-37.47" y2="-34.984" x1="72.858" style="fill-rule:evenodd;clip-rule:evenodd;fill:none;stroke:#000000;stroke-width:0.43;" x2="74.228"/>
  <line y1="-74.791" y2="-77.34" x1="21.364" style="fill-rule:evenodd;clip-rule:evenodd;fill:none;stroke:#000000;stroke-width:0.43;" x2="22.612"/>
  <line y1="-72.879" y2="-73.148" x1="12.477" style="fill-rule:evenodd;clip-rule:evenodd;fill:none;stroke:#000000;stroke-width:0.43;" x2="15.302"/>
  <line y1="-73.441" y2="-75.476" x1="5.839" style="fill-rule:evenodd;clip-rule:evenodd;fill:none;stroke:#000000;stroke-width:0.43;" x2="7.817"/>
  <line y1="-66.073" y2="-68.839" x1="18.945" style="fill-rule:evenodd;clip-rule:evenodd;fill:none;stroke:#000000;stroke-width:0.43;" x2="19.58"/>
  <line y1="-67.535" y2="-68.267" x1="12.195" style="fill-rule:evenodd;clip-rule:evenodd;fill:none;stroke:#000000;stroke-width:0.43;" x2="9.454"/>
  <line y1="-69.842" y2="-72.472" x1="3.14" style="fill-rule:evenodd;clip-rule:evenodd;fill:none;stroke:#000000;stroke-width:0.43;" x2="2.076"/>
  <line y1="-64.892" y2="-63.692" x1="5.952" style="fill-rule:evenodd;clip-rule:evenodd;fill:none;stroke:#000000;stroke-width:0.43;" x2="3.38"/>
  <line y1="-61.798" y2="-60.323" x1="14.052" style="fill-rule:evenodd;clip-rule:evenodd;fill:none;stroke:#000000;stroke-width:0.43;" x2="11.628"/>
  <line y1="-59.774" y2="-61.166" x1="22.144" style="fill-rule:evenodd;clip-rule:evenodd;fill:none;stroke:#000000;stroke-width:0.43;" x2="19.672"/>
  <line y1="-60.149" y2="-57.664" x1="4.821" style="fill-rule:evenodd;clip-rule:evenodd;fill:none;stroke:#000000;stroke-width:0.43;" x2="6.19"/>
  <line y1="-74.791" y2="-77.34" x1="44.043" style="fill-rule:evenodd;clip-rule:evenodd;fill:none;stroke:#000000;stroke-width:0.43;" x2="45.292"/>
  <line y1="-72.879" y2="-73.148" x1="35.156" style="fill-rule:evenodd;clip-rule:evenodd;fill:none;stroke:#000000;stroke-width:0.43;" x2="37.981"/>
  <line y1="-73.441" y2="-75.476" x1="28.519" style="fill-rule:evenodd;clip-rule:evenodd;fill:none;stroke:#000000;stroke-width:0.43;" x2="30.497"/>
  <line y1="-66.073" y2="-68.839" x1="41.625" style="fill-rule:evenodd;clip-rule:evenodd;fill:none;stroke:#000000;stroke-width:0.43;" x2="42.259"/>
  <line y1="-67.535" y2="-68.267" x1="34.875" style="fill-rule:evenodd;clip-rule:evenodd;fill:none;stroke:#000000;stroke-width:0.43;" x2="32.133"/>
  <line y1="-69.842" y2="-72.472" x1="25.818" style="fill-rule:evenodd;clip-rule:evenodd;fill:none;stroke:#000000;stroke-width:0.43;" x2="24.755"/>
  <line y1="-64.892" y2="-63.692" x1="28.631" style="fill-rule:evenodd;clip-rule:evenodd;fill:none;stroke:#000000;stroke-width:0.43;" x2="26.06"/>
  <line y1="-61.798" y2="-60.323" x1="36.731" style="fill-rule:evenodd;clip-rule:evenodd;fill:none;stroke:#000000;stroke-width:0.43;" x2="34.307"/>
  <line y1="-59.774" y2="-61.166" x1="44.823" style="fill-rule:evenodd;clip-rule:evenodd;fill:none;stroke:#000000;stroke-width:0.43;" x2="42.351"/>
  <line y1="-60.149" y2="-57.664" x1="27.5" style="fill-rule:evenodd;clip-rule:evenodd;fill:none;stroke:#000000;stroke-width:0.43;" x2="28.869"/>
  <line y1="-74.791" y2="-77.34" x1="66.722" style="fill-rule:evenodd;clip-rule:evenodd;fill:none;stroke:#000000;stroke-width:0.43;" x2="67.971"/>
  <line y1="-72.879" y2="-73.148" x1="57.835" style="fill-rule:evenodd;clip-rule:evenodd;fill:none;stroke:#000000;stroke-width:0.43;" x2="60.66"/>
  <line y1="-73.441" y2="-75.476" x1="51.198" style="fill-rule:evenodd;clip-rule:evenodd;fill:none;stroke:#000000;stroke-width:0.43;" x2="53.176"/>
  <line y1="-66.073" y2="-68.839" x1="64.304" style="fill-rule:evenodd;clip-rule:evenodd;fill:none;stroke:#000000;stroke-width:0.43;" x2="64.938"/>
  <line y1="-67.535" y2="-68.267" x1="57.554" style="fill-rule:evenodd;clip-rule:evenodd;fill:none;stroke:#000000;stroke-width:0.43;" x2="54.812"/>
  <line y1="-69.842" y2="-72.472" x1="48.498" style="fill-rule:evenodd;clip-rule:evenodd;fill:none;stroke:#000000;stroke-width:0.43;" x2="47.434"/>
  <line y1="-64.892" y2="-63.692" x1="51.31" style="fill-rule:evenodd;clip-rule:evenodd;fill:none;stroke:#000000;stroke-width:0.43;" x2="48.739"/>
  <line y1="-61.798" y2="-60.323" x1="59.41" style="fill-rule:evenodd;clip-rule:evenodd;fill:none;stroke:#000000;stroke-width:0.43;" x2="56.986"/>
  <line y1="-59.774" y2="-61.166" x1="67.502" style="fill-rule:evenodd;clip-rule:evenodd;fill:none;stroke:#000000;stroke-width:0.43;" x2="65.03"/>
  <line y1="-60.149" y2="-57.664" x1="50.179" style="fill-rule:evenodd;clip-rule:evenodd;fill:none;stroke:#000000;stroke-width:0.43;" x2="51.548"/>
  <line y1="-74.791" y2="-77.34" x1="89.401" style="fill-rule:evenodd;clip-rule:evenodd;fill:none;stroke:#000000;stroke-width:0.43;" x2="90.649"/>
  <line y1="-72.879" y2="-73.148" x1="80.514" style="fill-rule:evenodd;clip-rule:evenodd;fill:none;stroke:#000000;stroke-width:0.43;" x2="83.339"/>
  <line y1="-73.441" y2="-75.476" x1="73.877" style="fill-rule:evenodd;clip-rule:evenodd;fill:none;stroke:#000000;stroke-width:0.43;" x2="75.855"/>
  <line y1="-66.073" y2="-68.839" x1="86.983" style="fill-rule:evenodd;clip-rule:evenodd;fill:none;stroke:#000000;stroke-width:0.43;" x2="87.617"/>
  <line y1="-67.535" y2="-68.267" x1="80.233" style="fill-rule:evenodd;clip-rule:evenodd;fill:none;stroke:#000000;stroke-width:0.43;" x2="77.491"/>
  <line y1="-69.842" y2="-72.472" x1="71.177" style="fill-rule:evenodd;clip-rule:evenodd;fill:none;stroke:#000000;stroke-width:0.43;" x2="70.113"/>
  <line y1="-64.892" y2="-63.692" x1="73.989" style="fill-rule:evenodd;clip-rule:evenodd;fill:none;stroke:#000000;stroke-width:0.43;" x2="71.418"/>
  <line y1="-61.798" y2="-60.323" x1="82.089" style="fill-rule:evenodd;clip-rule:evenodd;fill:none;stroke:#000000;stroke-width:0.43;" x2="79.665"/>
  <line y1="-59.774" y2="-61.166" x1="90.181" style="fill-rule:evenodd;clip-rule:evenodd;fill:none;stroke:#000000;stroke-width:0.43;" x2="87.709"/>
  <line y1="-60.149" y2="-57.664" x1="72.858" style="fill-rule:evenodd;clip-rule:evenodd;fill:none;stroke:#000000;stroke-width:0.43;" x2="74.228"/>
  <line y1="-88.752" y2="-91.518" x1="18.945" style="fill-rule:evenodd;clip-rule:evenodd;fill:none;stroke:#000000;stroke-width:0.43;" x2="19.58"/>
  <line y1="-90.945" y2="-90.214" x1="9.454" style="fill-rule:evenodd;clip-rule:evenodd;fill:none;stroke:#000000;stroke-width:0.43;" x2="12.195"/>
  <line y1="-87.571" y2="-86.371" x1="5.952" style="fill-rule:evenodd;clip-rule:evenodd;fill:none;stroke:#000000;stroke-width:0.43;" x2="3.38"/>
  <line y1="-84.477" y2="-83.002" x1="14.052" style="fill-rule:evenodd;clip-rule:evenodd;fill:none;stroke:#000000;stroke-width:0.43;" x2="11.628"/>
  <line y1="-82.453" y2="-83.845" x1="22.144" style="fill-rule:evenodd;clip-rule:evenodd;fill:none;stroke:#000000;stroke-width:0.43;" x2="19.672"/>
  <line y1="-82.828" y2="-80.343" x1="4.821" style="fill-rule:evenodd;clip-rule:evenodd;fill:none;stroke:#000000;stroke-width:0.43;" x2="6.19"/>
  <line y1="-88.752" y2="-91.518" x1="41.625" style="fill-rule:evenodd;clip-rule:evenodd;fill:none;stroke:#000000;stroke-width:0.43;" x2="42.259"/>
  <line y1="-90.945" y2="-90.214" x1="32.133" style="fill-rule:evenodd;clip-rule:evenodd;fill:none;stroke:#000000;stroke-width:0.43;" x2="34.875"/>
  <line y1="-87.571" y2="-86.371" x1="28.631" style="fill-rule:evenodd;clip-rule:evenodd;fill:none;stroke:#000000;stroke-width:0.43;" x2="26.06"/>
  <line y1="-84.477" y2="-83.002" x1="36.731" style="fill-rule:evenodd;clip-rule:evenodd;fill:none;stroke:#000000;stroke-width:0.43;" x2="34.307"/>
  <line y1="-82.453" y2="-83.845" x1="44.823" style="fill-rule:evenodd;clip-rule:evenodd;fill:none;stroke:#000000;stroke-width:0.43;" x2="42.351"/>
  <line y1="-82.828" y2="-80.343" x1="27.5" style="fill-rule:evenodd;clip-rule:evenodd;fill:none;stroke:#000000;stroke-width:0.43;" x2="28.869"/>
  <line y1="-88.752" y2="-91.518" x1="64.304" style="fill-rule:evenodd;clip-rule:evenodd;fill:none;stroke:#000000;stroke-width:0.43;" x2="64.938"/>
  <line y1="-90.945" y2="-90.214" x1="54.812" style="fill-rule:evenodd;clip-rule:evenodd;fill:none;stroke:#000000;stroke-width:0.43;" x2="57.554"/>
  <line y1="-87.571" y2="-86.371" x1="51.31" style="fill-rule:evenodd;clip-rule:evenodd;fill:none;stroke:#000000;stroke-width:0.43;" x2="48.739"/>
  <line y1="-84.477" y2="-83.002" x1="59.41" style="fill-rule:evenodd;clip-rule:evenodd;fill:none;stroke:#000000;stroke-width:0.43;" x2="56.986"/>
  <line y1="-82.453" y2="-83.845" x1="67.502" style="fill-rule:evenodd;clip-rule:evenodd;fill:none;stroke:#000000;stroke-width:0.43;" x2="65.03"/>
  <line y1="-82.828" y2="-80.343" x1="50.179" style="fill-rule:evenodd;clip-rule:evenodd;fill:none;stroke:#000000;stroke-width:0.43;" x2="51.548"/>
  <line y1="-88.752" y2="-91.518" x1="86.983" style="fill-rule:evenodd;clip-rule:evenodd;fill:none;stroke:#000000;stroke-width:0.43;" x2="87.617"/>
  <line y1="-90.945" y2="-90.214" x1="77.491" style="fill-rule:evenodd;clip-rule:evenodd;fill:none;stroke:#000000;stroke-width:0.43;" x2="80.233"/>
  <line y1="-87.571" y2="-86.371" x1="73.989" style="fill-rule:evenodd;clip-rule:evenodd;fill:none;stroke:#000000;stroke-width:0.43;" x2="71.418"/>
  <line y1="-84.477" y2="-83.002" x1="82.089" style="fill-rule:evenodd;clip-rule:evenodd;fill:none;stroke:#000000;stroke-width:0.43;" x2="79.665"/>
  <line y1="-82.453" y2="-83.845" x1="90.181" style="fill-rule:evenodd;clip-rule:evenodd;fill:none;stroke:#000000;stroke-width:0.43;" x2="87.709"/>
  <line y1="-82.828" y2="-80.343" x1="72.858" style="fill-rule:evenodd;clip-rule:evenodd;fill:none;stroke:#000000;stroke-width:0.43;" x2="74.228"/>
  <line y1="-31.88" y2="-34.732" x1="38.544" style="fill-rule:evenodd;clip-rule:evenodd;fill:none;stroke:#000000;stroke-width:0.43;" x2="39.086"/>
  <line y1="-31.88" y2="-34.732" x1="61.223" style="fill-rule:evenodd;clip-rule:evenodd;fill:none;stroke:#000000;stroke-width:0.43;" x2="61.765"/>
  <line y1="-31.88" y2="-34.732" x1="83.902" style="fill-rule:evenodd;clip-rule:evenodd;fill:none;stroke:#000000;stroke-width:0.43;" x2="84.444"/>
  <line y1="-54.559" y2="-57.412" x1="83.902" style="fill-rule:evenodd;clip-rule:evenodd;fill:none;stroke:#000000;stroke-width:0.43;" x2="84.444"/>
  <line y1="-54.559" y2="-57.412" x1="61.223" style="fill-rule:evenodd;clip-rule:evenodd;fill:none;stroke:#000000;stroke-width:0.43;" x2="61.765"/>
  <line y1="-54.559" y2="-57.412" x1="38.544" style="fill-rule:evenodd;clip-rule:evenodd;fill:none;stroke:#000000;stroke-width:0.43;" x2="39.086"/>
  <line y1="-54.559" y2="-57.412" x1="15.865" style="fill-rule:evenodd;clip-rule:evenodd;fill:none;stroke:#000000;stroke-width:0.43;" x2="16.407"/>
  <line y1="-77.238" y2="-80.09" x1="15.865" style="fill-rule:evenodd;clip-rule:evenodd;fill:none;stroke:#000000;stroke-width:0.43;" x2="16.407"/>
  <line y1="-77.238" y2="-80.09" x1="38.544" style="fill-rule:evenodd;clip-rule:evenodd;fill:none;stroke:#000000;stroke-width:0.43;" x2="39.086"/>
  <line y1="-77.238" y2="-80.09" x1="61.223" style="fill-rule:evenodd;clip-rule:evenodd;fill:none;stroke:#000000;stroke-width:0.43;" x2="61.765"/>
  <line y1="-77.238" y2="-80.09" x1="83.902" style="fill-rule:evenodd;clip-rule:evenodd;fill:none;stroke:#000000;stroke-width:0.43;" x2="84.444"/>
  <line y1="-12.122" y2="-10.936" x1="16.407" style="fill-rule:evenodd;clip-rule:evenodd;fill:none;stroke:#000000;stroke-width:0.43;" x2="16.182"/>
  <line y1="-12.122" y2="-10.936" x1="39.086" style="fill-rule:evenodd;clip-rule:evenodd;fill:none;stroke:#000000;stroke-width:0.43;" x2="38.861"/>
  <line y1="-12.122" y2="-10.936" x1="61.765" style="fill-rule:evenodd;clip-rule:evenodd;fill:none;stroke:#000000;stroke-width:0.43;" x2="61.54"/>
  <line y1="-12.122" y2="-10.936" x1="84.444" style="fill-rule:evenodd;clip-rule:evenodd;fill:none;stroke:#000000;stroke-width:0.43;" x2="84.219"/>
  <line y1="-6.81" y2="-9.358" x1="21.364" style="fill-rule:evenodd;clip-rule:evenodd;fill:none;stroke:#000000;stroke-width:0.43;" x2="22.612"/>
  <line y1="-4.898" y2="-5.167" x1="12.477" style="fill-rule:evenodd;clip-rule:evenodd;fill:none;stroke:#000000;stroke-width:0.43;" x2="15.302"/>
  <line y1="-5.46" y2="-7.495" x1="5.839" style="fill-rule:evenodd;clip-rule:evenodd;fill:none;stroke:#000000;stroke-width:0.43;" x2="7.817"/>
  <line y1="-4.491" y2="-1.86" x1="2.076" style="fill-rule:evenodd;clip-rule:evenodd;fill:none;stroke:#000000;stroke-width:0.43;" x2="3.14"/>
  <line y1="-6.81" y2="-9.358" x1="44.043" style="fill-rule:evenodd;clip-rule:evenodd;fill:none;stroke:#000000;stroke-width:0.43;" x2="45.292"/>
  <line y1="-4.898" y2="-5.167" x1="35.156" style="fill-rule:evenodd;clip-rule:evenodd;fill:none;stroke:#000000;stroke-width:0.43;" x2="37.981"/>
  <line y1="-5.46" y2="-7.495" x1="28.519" style="fill-rule:evenodd;clip-rule:evenodd;fill:none;stroke:#000000;stroke-width:0.43;" x2="30.497"/>
  <line y1="-4.491" y2="-1.86" x1="24.755" style="fill-rule:evenodd;clip-rule:evenodd;fill:none;stroke:#000000;stroke-width:0.43;" x2="25.818"/>
  <line y1="-6.81" y2="-9.358" x1="66.722" style="fill-rule:evenodd;clip-rule:evenodd;fill:none;stroke:#000000;stroke-width:0.43;" x2="67.971"/>
  <line y1="-4.898" y2="-5.167" x1="57.835" style="fill-rule:evenodd;clip-rule:evenodd;fill:none;stroke:#000000;stroke-width:0.43;" x2="60.66"/>
  <line y1="-5.46" y2="-7.495" x1="51.198" style="fill-rule:evenodd;clip-rule:evenodd;fill:none;stroke:#000000;stroke-width:0.43;" x2="53.176"/>
  <line y1="-4.491" y2="-1.86" x1="47.434" style="fill-rule:evenodd;clip-rule:evenodd;fill:none;stroke:#000000;stroke-width:0.43;" x2="48.498"/>
  <line y1="-6.81" y2="-9.358" x1="89.401" style="fill-rule:evenodd;clip-rule:evenodd;fill:none;stroke:#000000;stroke-width:0.43;" x2="90.649"/>
  <line y1="-4.898" y2="-5.167" x1="80.514" style="fill-rule:evenodd;clip-rule:evenodd;fill:none;stroke:#000000;stroke-width:0.43;" x2="83.339"/>
  <line y1="-5.46" y2="-7.495" x1="73.877" style="fill-rule:evenodd;clip-rule:evenodd;fill:none;stroke:#000000;stroke-width:0.43;" x2="75.855"/>
  <line y1="-4.491" y2="-1.86" x1="70.113" style="fill-rule:evenodd;clip-rule:evenodd;fill:none;stroke:#000000;stroke-width:0.43;" x2="71.177"/>
  <line y1="-10.923" y2="-9.257" x1="16.182" style="fill-rule:evenodd;clip-rule:evenodd;fill:none;stroke:#000000;stroke-width:0.43;" x2="15.865"/>
  <line y1="-10.923" y2="-9.257" x1="38.861" style="fill-rule:evenodd;clip-rule:evenodd;fill:none;stroke:#000000;stroke-width:0.43;" x2="38.544"/>
  <line y1="-10.923" y2="-9.257" x1="61.54" style="fill-rule:evenodd;clip-rule:evenodd;fill:none;stroke:#000000;stroke-width:0.43;" x2="61.223"/>
  <line y1="-10.923" y2="-9.257" x1="84.219" style="fill-rule:evenodd;clip-rule:evenodd;fill:none;stroke:#000000;stroke-width:0.43;" x2="83.902"/>
 </g>
</svg>
