<?xml version="1.0"?>
<!-- Converted with SVG Converter - Version 0.9.6 (Compiled Thu Aug 31 10:01:05 2017) - Copyright (C) 2011 Nokia -->
<svg xmlns="http://www.w3.org/2000/svg" x="0px" y="0px" version="1.1" baseProfile="tiny" height="90.647" viewBox="1.084 -92.389 90.647 90.647" width="90.647" xmlns:xlink="http://www.w3.org/1999/xlink" xml:space="preserve">
 <g>
  <rect x="1.084" y="-92.389" style="fill:none;" height="90.647" width="90.647"/>
  <rect x="1.084" y="-92.389" height="90.647" width="90.647"/>
  <line x1="21.448" x2="22.696" style="fill-rule:evenodd;clip-rule:evenodd;fill:none;stroke:#FFFFFF;stroke-width:0.58;" y1="-29.733" y2="-32.281"/>
  <line x1="12.561" x2="15.386" style="fill-rule:evenodd;clip-rule:evenodd;fill:none;stroke:#FFFFFF;stroke-width:0.58;" y1="-27.82" y2="-28.09"/>
  <line x1="5.923" x2="7.901" style="fill-rule:evenodd;clip-rule:evenodd;fill:none;stroke:#FFFFFF;stroke-width:0.58;" y1="-28.383" y2="-30.418"/>
  <line x1="19.664" x2="19.029" style="fill-rule:evenodd;clip-rule:evenodd;fill:none;stroke:#FFFFFF;stroke-width:0.58;" y1="-23.78" y2="-21.015"/>
  <line x1="12.279" x2="9.538" style="fill-rule:evenodd;clip-rule:evenodd;fill:none;stroke:#FFFFFF;stroke-width:0.58;" y1="-22.478" y2="-23.208"/>
  <line x1="3.224" x2="2.16" style="fill-rule:evenodd;clip-rule:evenodd;fill:none;stroke:#FFFFFF;stroke-width:0.58;" y1="-24.783" y2="-27.414"/>
  <line x1="6.036" x2="3.464" style="fill-rule:evenodd;clip-rule:evenodd;fill:none;stroke:#FFFFFF;stroke-width:0.58;" y1="-19.833" y2="-18.634"/>
  <line x1="14.136" x2="11.712" style="fill-rule:evenodd;clip-rule:evenodd;fill:none;stroke:#FFFFFF;stroke-width:0.58;" y1="-16.739" y2="-15.265"/>
  <line x1="22.228" x2="19.756" style="fill-rule:evenodd;clip-rule:evenodd;fill:none;stroke:#FFFFFF;stroke-width:0.58;" y1="-14.716" y2="-16.108"/>
  <line x1="6.274" x2="4.905" style="fill-rule:evenodd;clip-rule:evenodd;fill:none;stroke:#FFFFFF;stroke-width:0.58;" y1="-12.606" y2="-15.091"/>
  <line x1="44.127" x2="45.375" style="fill-rule:evenodd;clip-rule:evenodd;fill:none;stroke:#FFFFFF;stroke-width:0.58;" y1="-29.733" y2="-32.281"/>
  <line x1="35.24" x2="38.065" style="fill-rule:evenodd;clip-rule:evenodd;fill:none;stroke:#FFFFFF;stroke-width:0.58;" y1="-27.82" y2="-28.09"/>
  <line x1="28.603" x2="30.581" style="fill-rule:evenodd;clip-rule:evenodd;fill:none;stroke:#FFFFFF;stroke-width:0.58;" y1="-28.383" y2="-30.418"/>
  <line x1="42.343" x2="41.708" style="fill-rule:evenodd;clip-rule:evenodd;fill:none;stroke:#FFFFFF;stroke-width:0.58;" y1="-23.78" y2="-21.015"/>
  <line x1="34.958" x2="32.217" style="fill-rule:evenodd;clip-rule:evenodd;fill:none;stroke:#FFFFFF;stroke-width:0.58;" y1="-22.478" y2="-23.208"/>
  <line x1="25.902" x2="24.839" style="fill-rule:evenodd;clip-rule:evenodd;fill:none;stroke:#FFFFFF;stroke-width:0.58;" y1="-24.783" y2="-27.414"/>
  <line x1="28.715" x2="26.144" style="fill-rule:evenodd;clip-rule:evenodd;fill:none;stroke:#FFFFFF;stroke-width:0.58;" y1="-19.833" y2="-18.634"/>
  <line x1="36.815" x2="34.391" style="fill-rule:evenodd;clip-rule:evenodd;fill:none;stroke:#FFFFFF;stroke-width:0.58;" y1="-16.739" y2="-15.265"/>
  <line x1="44.907" x2="42.435" style="fill-rule:evenodd;clip-rule:evenodd;fill:none;stroke:#FFFFFF;stroke-width:0.58;" y1="-14.716" y2="-16.108"/>
  <line x1="28.953" x2="27.584" style="fill-rule:evenodd;clip-rule:evenodd;fill:none;stroke:#FFFFFF;stroke-width:0.58;" y1="-12.606" y2="-15.091"/>
  <line x1="66.806" x2="68.055" style="fill-rule:evenodd;clip-rule:evenodd;fill:none;stroke:#FFFFFF;stroke-width:0.58;" y1="-29.733" y2="-32.281"/>
  <line x1="57.919" x2="60.744" style="fill-rule:evenodd;clip-rule:evenodd;fill:none;stroke:#FFFFFF;stroke-width:0.58;" y1="-27.82" y2="-28.09"/>
  <line x1="51.282" x2="53.26" style="fill-rule:evenodd;clip-rule:evenodd;fill:none;stroke:#FFFFFF;stroke-width:0.58;" y1="-28.383" y2="-30.418"/>
  <line x1="65.021" x2="64.388" style="fill-rule:evenodd;clip-rule:evenodd;fill:none;stroke:#FFFFFF;stroke-width:0.58;" y1="-23.78" y2="-21.015"/>
  <line x1="57.638" x2="54.896" style="fill-rule:evenodd;clip-rule:evenodd;fill:none;stroke:#FFFFFF;stroke-width:0.58;" y1="-22.478" y2="-23.208"/>
  <line x1="48.582" x2="47.518" style="fill-rule:evenodd;clip-rule:evenodd;fill:none;stroke:#FFFFFF;stroke-width:0.58;" y1="-24.783" y2="-27.414"/>
  <line x1="51.394" x2="48.823" style="fill-rule:evenodd;clip-rule:evenodd;fill:none;stroke:#FFFFFF;stroke-width:0.58;" y1="-19.833" y2="-18.634"/>
  <line x1="59.494" x2="57.07" style="fill-rule:evenodd;clip-rule:evenodd;fill:none;stroke:#FFFFFF;stroke-width:0.58;" y1="-16.739" y2="-15.265"/>
  <line x1="67.586" x2="65.114" style="fill-rule:evenodd;clip-rule:evenodd;fill:none;stroke:#FFFFFF;stroke-width:0.58;" y1="-14.716" y2="-16.108"/>
  <line x1="51.632" x2="50.263" style="fill-rule:evenodd;clip-rule:evenodd;fill:none;stroke:#FFFFFF;stroke-width:0.58;" y1="-12.606" y2="-15.091"/>
  <line x1="89.485" x2="90.733" style="fill-rule:evenodd;clip-rule:evenodd;fill:none;stroke:#FFFFFF;stroke-width:0.58;" y1="-29.733" y2="-32.281"/>
  <line x1="80.598" x2="83.423" style="fill-rule:evenodd;clip-rule:evenodd;fill:none;stroke:#FFFFFF;stroke-width:0.58;" y1="-27.82" y2="-28.09"/>
  <line x1="73.961" x2="75.939" style="fill-rule:evenodd;clip-rule:evenodd;fill:none;stroke:#FFFFFF;stroke-width:0.58;" y1="-28.383" y2="-30.418"/>
  <line x1="87.701" x2="87.067" style="fill-rule:evenodd;clip-rule:evenodd;fill:none;stroke:#FFFFFF;stroke-width:0.58;" y1="-23.78" y2="-21.015"/>
  <line x1="80.317" x2="77.575" style="fill-rule:evenodd;clip-rule:evenodd;fill:none;stroke:#FFFFFF;stroke-width:0.58;" y1="-22.478" y2="-23.208"/>
  <line x1="71.261" x2="70.197" style="fill-rule:evenodd;clip-rule:evenodd;fill:none;stroke:#FFFFFF;stroke-width:0.58;" y1="-24.783" y2="-27.414"/>
  <line x1="74.073" x2="71.502" style="fill-rule:evenodd;clip-rule:evenodd;fill:none;stroke:#FFFFFF;stroke-width:0.58;" y1="-19.833" y2="-18.634"/>
  <line x1="82.173" x2="79.749" style="fill-rule:evenodd;clip-rule:evenodd;fill:none;stroke:#FFFFFF;stroke-width:0.58;" y1="-16.739" y2="-15.265"/>
  <line x1="90.265" x2="87.793" style="fill-rule:evenodd;clip-rule:evenodd;fill:none;stroke:#FFFFFF;stroke-width:0.58;" y1="-14.716" y2="-16.108"/>
  <line x1="74.312" x2="72.942" style="fill-rule:evenodd;clip-rule:evenodd;fill:none;stroke:#FFFFFF;stroke-width:0.58;" y1="-12.606" y2="-15.091"/>
  <line x1="21.448" x2="22.696" style="fill-rule:evenodd;clip-rule:evenodd;fill:none;stroke:#FFFFFF;stroke-width:0.58;" y1="-52.413" y2="-54.961"/>
  <line x1="12.561" x2="15.386" style="fill-rule:evenodd;clip-rule:evenodd;fill:none;stroke:#FFFFFF;stroke-width:0.58;" y1="-50.5" y2="-50.769"/>
  <line x1="5.923" x2="7.901" style="fill-rule:evenodd;clip-rule:evenodd;fill:none;stroke:#FFFFFF;stroke-width:0.58;" y1="-51.062" y2="-53.097"/>
  <line x1="19.029" x2="19.664" style="fill-rule:evenodd;clip-rule:evenodd;fill:none;stroke:#FFFFFF;stroke-width:0.58;" y1="-43.694" y2="-46.459"/>
  <line x1="12.279" x2="9.538" style="fill-rule:evenodd;clip-rule:evenodd;fill:none;stroke:#FFFFFF;stroke-width:0.58;" y1="-45.156" y2="-45.887"/>
  <line x1="3.224" x2="2.16" style="fill-rule:evenodd;clip-rule:evenodd;fill:none;stroke:#FFFFFF;stroke-width:0.58;" y1="-47.462" y2="-50.093"/>
  <line x1="6.036" x2="3.464" style="fill-rule:evenodd;clip-rule:evenodd;fill:none;stroke:#FFFFFF;stroke-width:0.58;" y1="-42.513" y2="-41.312"/>
  <line x1="14.136" x2="11.712" style="fill-rule:evenodd;clip-rule:evenodd;fill:none;stroke:#FFFFFF;stroke-width:0.58;" y1="-39.418" y2="-37.943"/>
  <line x1="22.228" x2="19.756" style="fill-rule:evenodd;clip-rule:evenodd;fill:none;stroke:#FFFFFF;stroke-width:0.58;" y1="-37.395" y2="-38.787"/>
  <line x1="15.949" x2="16.491" style="fill-rule:evenodd;clip-rule:evenodd;fill:none;stroke:#FFFFFF;stroke-width:0.58;" y1="-32.18" y2="-35.032"/>
  <line x1="4.905" x2="6.274" style="fill-rule:evenodd;clip-rule:evenodd;fill:none;stroke:#FFFFFF;stroke-width:0.58;" y1="-37.77" y2="-35.284"/>
  <line x1="44.127" x2="45.375" style="fill-rule:evenodd;clip-rule:evenodd;fill:none;stroke:#FFFFFF;stroke-width:0.58;" y1="-52.413" y2="-54.961"/>
  <line x1="35.24" x2="38.065" style="fill-rule:evenodd;clip-rule:evenodd;fill:none;stroke:#FFFFFF;stroke-width:0.58;" y1="-50.5" y2="-50.769"/>
  <line x1="28.603" x2="30.581" style="fill-rule:evenodd;clip-rule:evenodd;fill:none;stroke:#FFFFFF;stroke-width:0.58;" y1="-51.062" y2="-53.097"/>
  <line x1="41.708" x2="42.343" style="fill-rule:evenodd;clip-rule:evenodd;fill:none;stroke:#FFFFFF;stroke-width:0.58;" y1="-43.694" y2="-46.459"/>
  <line x1="34.958" x2="32.217" style="fill-rule:evenodd;clip-rule:evenodd;fill:none;stroke:#FFFFFF;stroke-width:0.58;" y1="-45.156" y2="-45.887"/>
  <line x1="25.902" x2="24.839" style="fill-rule:evenodd;clip-rule:evenodd;fill:none;stroke:#FFFFFF;stroke-width:0.58;" y1="-47.462" y2="-50.093"/>
  <line x1="28.715" x2="26.144" style="fill-rule:evenodd;clip-rule:evenodd;fill:none;stroke:#FFFFFF;stroke-width:0.58;" y1="-42.513" y2="-41.312"/>
  <line x1="36.815" x2="34.391" style="fill-rule:evenodd;clip-rule:evenodd;fill:none;stroke:#FFFFFF;stroke-width:0.58;" y1="-39.418" y2="-37.943"/>
  <line x1="44.907" x2="42.435" style="fill-rule:evenodd;clip-rule:evenodd;fill:none;stroke:#FFFFFF;stroke-width:0.58;" y1="-37.395" y2="-38.787"/>
  <line x1="27.584" x2="28.953" style="fill-rule:evenodd;clip-rule:evenodd;fill:none;stroke:#FFFFFF;stroke-width:0.58;" y1="-37.77" y2="-35.284"/>
  <line x1="66.806" x2="68.055" style="fill-rule:evenodd;clip-rule:evenodd;fill:none;stroke:#FFFFFF;stroke-width:0.58;" y1="-52.413" y2="-54.961"/>
  <line x1="57.919" x2="60.744" style="fill-rule:evenodd;clip-rule:evenodd;fill:none;stroke:#FFFFFF;stroke-width:0.58;" y1="-50.5" y2="-50.769"/>
  <line x1="51.282" x2="53.26" style="fill-rule:evenodd;clip-rule:evenodd;fill:none;stroke:#FFFFFF;stroke-width:0.58;" y1="-51.062" y2="-53.097"/>
  <line x1="64.388" x2="65.021" style="fill-rule:evenodd;clip-rule:evenodd;fill:none;stroke:#FFFFFF;stroke-width:0.58;" y1="-43.694" y2="-46.459"/>
  <line x1="57.638" x2="54.896" style="fill-rule:evenodd;clip-rule:evenodd;fill:none;stroke:#FFFFFF;stroke-width:0.58;" y1="-45.156" y2="-45.887"/>
  <line x1="48.582" x2="47.518" style="fill-rule:evenodd;clip-rule:evenodd;fill:none;stroke:#FFFFFF;stroke-width:0.58;" y1="-47.462" y2="-50.093"/>
  <line x1="51.394" x2="48.823" style="fill-rule:evenodd;clip-rule:evenodd;fill:none;stroke:#FFFFFF;stroke-width:0.58;" y1="-42.513" y2="-41.312"/>
  <line x1="59.494" x2="57.07" style="fill-rule:evenodd;clip-rule:evenodd;fill:none;stroke:#FFFFFF;stroke-width:0.58;" y1="-39.418" y2="-37.943"/>
  <line x1="67.586" x2="65.114" style="fill-rule:evenodd;clip-rule:evenodd;fill:none;stroke:#FFFFFF;stroke-width:0.58;" y1="-37.395" y2="-38.787"/>
  <line x1="50.263" x2="51.632" style="fill-rule:evenodd;clip-rule:evenodd;fill:none;stroke:#FFFFFF;stroke-width:0.58;" y1="-37.77" y2="-35.284"/>
  <line x1="89.485" x2="90.733" style="fill-rule:evenodd;clip-rule:evenodd;fill:none;stroke:#FFFFFF;stroke-width:0.58;" y1="-52.413" y2="-54.961"/>
  <line x1="80.598" x2="83.423" style="fill-rule:evenodd;clip-rule:evenodd;fill:none;stroke:#FFFFFF;stroke-width:0.58;" y1="-50.5" y2="-50.769"/>
  <line x1="73.961" x2="75.939" style="fill-rule:evenodd;clip-rule:evenodd;fill:none;stroke:#FFFFFF;stroke-width:0.58;" y1="-51.062" y2="-53.097"/>
  <line x1="87.067" x2="87.701" style="fill-rule:evenodd;clip-rule:evenodd;fill:none;stroke:#FFFFFF;stroke-width:0.58;" y1="-43.694" y2="-46.459"/>
  <line x1="80.317" x2="77.575" style="fill-rule:evenodd;clip-rule:evenodd;fill:none;stroke:#FFFFFF;stroke-width:0.58;" y1="-45.156" y2="-45.887"/>
  <line x1="71.261" x2="70.197" style="fill-rule:evenodd;clip-rule:evenodd;fill:none;stroke:#FFFFFF;stroke-width:0.58;" y1="-47.462" y2="-50.093"/>
  <line x1="74.073" x2="71.502" style="fill-rule:evenodd;clip-rule:evenodd;fill:none;stroke:#FFFFFF;stroke-width:0.58;" y1="-42.513" y2="-41.312"/>
  <line x1="82.173" x2="79.749" style="fill-rule:evenodd;clip-rule:evenodd;fill:none;stroke:#FFFFFF;stroke-width:0.58;" y1="-39.418" y2="-37.943"/>
  <line x1="90.265" x2="87.793" style="fill-rule:evenodd;clip-rule:evenodd;fill:none;stroke:#FFFFFF;stroke-width:0.58;" y1="-37.395" y2="-38.787"/>
  <line x1="72.942" x2="74.312" style="fill-rule:evenodd;clip-rule:evenodd;fill:none;stroke:#FFFFFF;stroke-width:0.58;" y1="-37.77" y2="-35.284"/>
  <line x1="21.448" x2="22.696" style="fill-rule:evenodd;clip-rule:evenodd;fill:none;stroke:#FFFFFF;stroke-width:0.58;" y1="-75.091" y2="-77.64"/>
  <line x1="12.561" x2="15.386" style="fill-rule:evenodd;clip-rule:evenodd;fill:none;stroke:#FFFFFF;stroke-width:0.58;" y1="-73.179" y2="-73.448"/>
  <line x1="5.923" x2="7.901" style="fill-rule:evenodd;clip-rule:evenodd;fill:none;stroke:#FFFFFF;stroke-width:0.58;" y1="-73.741" y2="-75.776"/>
  <line x1="19.029" x2="19.664" style="fill-rule:evenodd;clip-rule:evenodd;fill:none;stroke:#FFFFFF;stroke-width:0.58;" y1="-66.373" y2="-69.139"/>
  <line x1="12.279" x2="9.538" style="fill-rule:evenodd;clip-rule:evenodd;fill:none;stroke:#FFFFFF;stroke-width:0.58;" y1="-67.835" y2="-68.566"/>
  <line x1="3.224" x2="2.16" style="fill-rule:evenodd;clip-rule:evenodd;fill:none;stroke:#FFFFFF;stroke-width:0.58;" y1="-70.142" y2="-72.772"/>
  <line x1="6.036" x2="3.464" style="fill-rule:evenodd;clip-rule:evenodd;fill:none;stroke:#FFFFFF;stroke-width:0.58;" y1="-65.191" y2="-63.992"/>
  <line x1="14.136" x2="11.712" style="fill-rule:evenodd;clip-rule:evenodd;fill:none;stroke:#FFFFFF;stroke-width:0.58;" y1="-62.098" y2="-60.623"/>
  <line x1="22.228" x2="19.756" style="fill-rule:evenodd;clip-rule:evenodd;fill:none;stroke:#FFFFFF;stroke-width:0.58;" y1="-60.074" y2="-61.466"/>
  <line x1="4.905" x2="6.274" style="fill-rule:evenodd;clip-rule:evenodd;fill:none;stroke:#FFFFFF;stroke-width:0.58;" y1="-60.449" y2="-57.963"/>
  <line x1="44.127" x2="45.375" style="fill-rule:evenodd;clip-rule:evenodd;fill:none;stroke:#FFFFFF;stroke-width:0.58;" y1="-75.091" y2="-77.64"/>
  <line x1="35.24" x2="38.065" style="fill-rule:evenodd;clip-rule:evenodd;fill:none;stroke:#FFFFFF;stroke-width:0.58;" y1="-73.179" y2="-73.448"/>
  <line x1="28.603" x2="30.581" style="fill-rule:evenodd;clip-rule:evenodd;fill:none;stroke:#FFFFFF;stroke-width:0.58;" y1="-73.741" y2="-75.776"/>
  <line x1="41.708" x2="42.343" style="fill-rule:evenodd;clip-rule:evenodd;fill:none;stroke:#FFFFFF;stroke-width:0.58;" y1="-66.373" y2="-69.139"/>
  <line x1="34.958" x2="32.217" style="fill-rule:evenodd;clip-rule:evenodd;fill:none;stroke:#FFFFFF;stroke-width:0.58;" y1="-67.835" y2="-68.566"/>
  <line x1="25.902" x2="24.839" style="fill-rule:evenodd;clip-rule:evenodd;fill:none;stroke:#FFFFFF;stroke-width:0.58;" y1="-70.142" y2="-72.772"/>
  <line x1="28.715" x2="26.144" style="fill-rule:evenodd;clip-rule:evenodd;fill:none;stroke:#FFFFFF;stroke-width:0.58;" y1="-65.191" y2="-63.992"/>
  <line x1="36.815" x2="34.391" style="fill-rule:evenodd;clip-rule:evenodd;fill:none;stroke:#FFFFFF;stroke-width:0.58;" y1="-62.098" y2="-60.623"/>
  <line x1="44.907" x2="42.435" style="fill-rule:evenodd;clip-rule:evenodd;fill:none;stroke:#FFFFFF;stroke-width:0.58;" y1="-60.074" y2="-61.466"/>
  <line x1="27.584" x2="28.953" style="fill-rule:evenodd;clip-rule:evenodd;fill:none;stroke:#FFFFFF;stroke-width:0.58;" y1="-60.449" y2="-57.963"/>
  <line x1="66.806" x2="68.055" style="fill-rule:evenodd;clip-rule:evenodd;fill:none;stroke:#FFFFFF;stroke-width:0.58;" y1="-75.091" y2="-77.64"/>
  <line x1="57.919" x2="60.744" style="fill-rule:evenodd;clip-rule:evenodd;fill:none;stroke:#FFFFFF;stroke-width:0.58;" y1="-73.179" y2="-73.448"/>
  <line x1="51.282" x2="53.26" style="fill-rule:evenodd;clip-rule:evenodd;fill:none;stroke:#FFFFFF;stroke-width:0.58;" y1="-73.741" y2="-75.776"/>
  <line x1="64.388" x2="65.021" style="fill-rule:evenodd;clip-rule:evenodd;fill:none;stroke:#FFFFFF;stroke-width:0.58;" y1="-66.373" y2="-69.139"/>
  <line x1="57.638" x2="54.896" style="fill-rule:evenodd;clip-rule:evenodd;fill:none;stroke:#FFFFFF;stroke-width:0.58;" y1="-67.835" y2="-68.566"/>
  <line x1="48.582" x2="47.518" style="fill-rule:evenodd;clip-rule:evenodd;fill:none;stroke:#FFFFFF;stroke-width:0.58;" y1="-70.142" y2="-72.772"/>
  <line x1="51.394" x2="48.823" style="fill-rule:evenodd;clip-rule:evenodd;fill:none;stroke:#FFFFFF;stroke-width:0.58;" y1="-65.191" y2="-63.992"/>
  <line x1="59.494" x2="57.07" style="fill-rule:evenodd;clip-rule:evenodd;fill:none;stroke:#FFFFFF;stroke-width:0.58;" y1="-62.098" y2="-60.623"/>
  <line x1="67.586" x2="65.114" style="fill-rule:evenodd;clip-rule:evenodd;fill:none;stroke:#FFFFFF;stroke-width:0.58;" y1="-60.074" y2="-61.466"/>
  <line x1="50.263" x2="51.632" style="fill-rule:evenodd;clip-rule:evenodd;fill:none;stroke:#FFFFFF;stroke-width:0.58;" y1="-60.449" y2="-57.963"/>
  <line x1="89.485" x2="90.733" style="fill-rule:evenodd;clip-rule:evenodd;fill:none;stroke:#FFFFFF;stroke-width:0.58;" y1="-75.091" y2="-77.64"/>
  <line x1="80.598" x2="83.423" style="fill-rule:evenodd;clip-rule:evenodd;fill:none;stroke:#FFFFFF;stroke-width:0.58;" y1="-73.179" y2="-73.448"/>
  <line x1="73.961" x2="75.939" style="fill-rule:evenodd;clip-rule:evenodd;fill:none;stroke:#FFFFFF;stroke-width:0.58;" y1="-73.741" y2="-75.776"/>
  <line x1="87.067" x2="87.701" style="fill-rule:evenodd;clip-rule:evenodd;fill:none;stroke:#FFFFFF;stroke-width:0.58;" y1="-66.373" y2="-69.139"/>
  <line x1="80.317" x2="77.575" style="fill-rule:evenodd;clip-rule:evenodd;fill:none;stroke:#FFFFFF;stroke-width:0.58;" y1="-67.835" y2="-68.566"/>
  <line x1="71.261" x2="70.197" style="fill-rule:evenodd;clip-rule:evenodd;fill:none;stroke:#FFFFFF;stroke-width:0.58;" y1="-70.142" y2="-72.772"/>
  <line x1="74.073" x2="71.502" style="fill-rule:evenodd;clip-rule:evenodd;fill:none;stroke:#FFFFFF;stroke-width:0.58;" y1="-65.191" y2="-63.992"/>
  <line x1="82.173" x2="79.749" style="fill-rule:evenodd;clip-rule:evenodd;fill:none;stroke:#FFFFFF;stroke-width:0.58;" y1="-62.098" y2="-60.623"/>
  <line x1="90.265" x2="87.793" style="fill-rule:evenodd;clip-rule:evenodd;fill:none;stroke:#FFFFFF;stroke-width:0.58;" y1="-60.074" y2="-61.466"/>
  <line x1="72.942" x2="74.312" style="fill-rule:evenodd;clip-rule:evenodd;fill:none;stroke:#FFFFFF;stroke-width:0.58;" y1="-60.449" y2="-57.963"/>
  <line x1="19.029" x2="19.664" style="fill-rule:evenodd;clip-rule:evenodd;fill:none;stroke:#FFFFFF;stroke-width:0.58;" y1="-89.052" y2="-91.818"/>
  <line x1="9.538" x2="12.279" style="fill-rule:evenodd;clip-rule:evenodd;fill:none;stroke:#FFFFFF;stroke-width:0.58;" y1="-91.245" y2="-90.514"/>
  <line x1="6.036" x2="3.464" style="fill-rule:evenodd;clip-rule:evenodd;fill:none;stroke:#FFFFFF;stroke-width:0.58;" y1="-87.871" y2="-86.67"/>
  <line x1="14.136" x2="11.712" style="fill-rule:evenodd;clip-rule:evenodd;fill:none;stroke:#FFFFFF;stroke-width:0.58;" y1="-84.777" y2="-83.301"/>
  <line x1="22.228" x2="19.756" style="fill-rule:evenodd;clip-rule:evenodd;fill:none;stroke:#FFFFFF;stroke-width:0.58;" y1="-82.753" y2="-84.145"/>
  <line x1="4.905" x2="6.274" style="fill-rule:evenodd;clip-rule:evenodd;fill:none;stroke:#FFFFFF;stroke-width:0.58;" y1="-83.127" y2="-80.643"/>
  <line x1="41.708" x2="42.343" style="fill-rule:evenodd;clip-rule:evenodd;fill:none;stroke:#FFFFFF;stroke-width:0.58;" y1="-89.052" y2="-91.818"/>
  <line x1="32.217" x2="34.958" style="fill-rule:evenodd;clip-rule:evenodd;fill:none;stroke:#FFFFFF;stroke-width:0.58;" y1="-91.245" y2="-90.514"/>
  <line x1="28.715" x2="26.144" style="fill-rule:evenodd;clip-rule:evenodd;fill:none;stroke:#FFFFFF;stroke-width:0.58;" y1="-87.871" y2="-86.67"/>
  <line x1="36.815" x2="34.391" style="fill-rule:evenodd;clip-rule:evenodd;fill:none;stroke:#FFFFFF;stroke-width:0.58;" y1="-84.777" y2="-83.301"/>
  <line x1="44.907" x2="42.435" style="fill-rule:evenodd;clip-rule:evenodd;fill:none;stroke:#FFFFFF;stroke-width:0.58;" y1="-82.753" y2="-84.145"/>
  <line x1="27.584" x2="28.953" style="fill-rule:evenodd;clip-rule:evenodd;fill:none;stroke:#FFFFFF;stroke-width:0.58;" y1="-83.127" y2="-80.643"/>
  <line x1="64.388" x2="65.021" style="fill-rule:evenodd;clip-rule:evenodd;fill:none;stroke:#FFFFFF;stroke-width:0.58;" y1="-89.052" y2="-91.818"/>
  <line x1="54.896" x2="57.638" style="fill-rule:evenodd;clip-rule:evenodd;fill:none;stroke:#FFFFFF;stroke-width:0.58;" y1="-91.245" y2="-90.514"/>
  <line x1="51.394" x2="48.823" style="fill-rule:evenodd;clip-rule:evenodd;fill:none;stroke:#FFFFFF;stroke-width:0.58;" y1="-87.871" y2="-86.67"/>
  <line x1="59.494" x2="57.07" style="fill-rule:evenodd;clip-rule:evenodd;fill:none;stroke:#FFFFFF;stroke-width:0.58;" y1="-84.777" y2="-83.301"/>
  <line x1="67.586" x2="65.114" style="fill-rule:evenodd;clip-rule:evenodd;fill:none;stroke:#FFFFFF;stroke-width:0.58;" y1="-82.753" y2="-84.145"/>
  <line x1="50.263" x2="51.632" style="fill-rule:evenodd;clip-rule:evenodd;fill:none;stroke:#FFFFFF;stroke-width:0.58;" y1="-83.127" y2="-80.643"/>
  <line x1="87.067" x2="87.701" style="fill-rule:evenodd;clip-rule:evenodd;fill:none;stroke:#FFFFFF;stroke-width:0.58;" y1="-89.052" y2="-91.818"/>
  <line x1="77.575" x2="80.317" style="fill-rule:evenodd;clip-rule:evenodd;fill:none;stroke:#FFFFFF;stroke-width:0.58;" y1="-91.245" y2="-90.514"/>
  <line x1="74.073" x2="71.502" style="fill-rule:evenodd;clip-rule:evenodd;fill:none;stroke:#FFFFFF;stroke-width:0.58;" y1="-87.871" y2="-86.67"/>
  <line x1="82.173" x2="79.749" style="fill-rule:evenodd;clip-rule:evenodd;fill:none;stroke:#FFFFFF;stroke-width:0.58;" y1="-84.777" y2="-83.301"/>
  <line x1="90.265" x2="87.793" style="fill-rule:evenodd;clip-rule:evenodd;fill:none;stroke:#FFFFFF;stroke-width:0.58;" y1="-82.753" y2="-84.145"/>
  <line x1="72.942" x2="74.312" style="fill-rule:evenodd;clip-rule:evenodd;fill:none;stroke:#FFFFFF;stroke-width:0.58;" y1="-83.127" y2="-80.643"/>
  <line x1="38.628" x2="39.17" style="fill-rule:evenodd;clip-rule:evenodd;fill:none;stroke:#FFFFFF;stroke-width:0.58;" y1="-32.18" y2="-35.032"/>
  <line x1="61.307" x2="61.849" style="fill-rule:evenodd;clip-rule:evenodd;fill:none;stroke:#FFFFFF;stroke-width:0.58;" y1="-32.18" y2="-35.032"/>
  <line x1="83.986" x2="84.528" style="fill-rule:evenodd;clip-rule:evenodd;fill:none;stroke:#FFFFFF;stroke-width:0.58;" y1="-32.18" y2="-35.032"/>
  <line x1="83.986" x2="84.528" style="fill-rule:evenodd;clip-rule:evenodd;fill:none;stroke:#FFFFFF;stroke-width:0.58;" y1="-54.859" y2="-57.711"/>
  <line x1="61.307" x2="61.849" style="fill-rule:evenodd;clip-rule:evenodd;fill:none;stroke:#FFFFFF;stroke-width:0.58;" y1="-54.859" y2="-57.711"/>
  <line x1="38.628" x2="39.17" style="fill-rule:evenodd;clip-rule:evenodd;fill:none;stroke:#FFFFFF;stroke-width:0.58;" y1="-54.859" y2="-57.711"/>
  <line x1="15.949" x2="16.491" style="fill-rule:evenodd;clip-rule:evenodd;fill:none;stroke:#FFFFFF;stroke-width:0.58;" y1="-54.859" y2="-57.711"/>
  <line x1="15.949" x2="16.491" style="fill-rule:evenodd;clip-rule:evenodd;fill:none;stroke:#FFFFFF;stroke-width:0.58;" y1="-77.538" y2="-80.39"/>
  <line x1="38.628" x2="39.17" style="fill-rule:evenodd;clip-rule:evenodd;fill:none;stroke:#FFFFFF;stroke-width:0.58;" y1="-77.538" y2="-80.39"/>
  <line x1="61.307" x2="61.849" style="fill-rule:evenodd;clip-rule:evenodd;fill:none;stroke:#FFFFFF;stroke-width:0.58;" y1="-77.538" y2="-80.39"/>
  <line x1="83.986" x2="84.528" style="fill-rule:evenodd;clip-rule:evenodd;fill:none;stroke:#FFFFFF;stroke-width:0.58;" y1="-77.538" y2="-80.39"/>
  <line x1="16.491" x2="16.266" style="fill-rule:evenodd;clip-rule:evenodd;fill:none;stroke:#FFFFFF;stroke-width:0.58;" y1="-12.422" y2="-11.235"/>
  <line x1="39.17" x2="38.945" style="fill-rule:evenodd;clip-rule:evenodd;fill:none;stroke:#FFFFFF;stroke-width:0.58;" y1="-12.422" y2="-11.235"/>
  <line x1="61.849" x2="61.624" style="fill-rule:evenodd;clip-rule:evenodd;fill:none;stroke:#FFFFFF;stroke-width:0.58;" y1="-12.422" y2="-11.235"/>
  <line x1="84.528" x2="84.303" style="fill-rule:evenodd;clip-rule:evenodd;fill:none;stroke:#FFFFFF;stroke-width:0.58;" y1="-12.422" y2="-11.235"/>
  <line x1="21.448" x2="22.696" style="fill-rule:evenodd;clip-rule:evenodd;fill:none;stroke:#FFFFFF;stroke-width:0.58;" y1="-7.109" y2="-9.658"/>
  <line x1="12.561" x2="15.386" style="fill-rule:evenodd;clip-rule:evenodd;fill:none;stroke:#FFFFFF;stroke-width:0.58;" y1="-5.197" y2="-5.467"/>
  <line x1="5.923" x2="7.901" style="fill-rule:evenodd;clip-rule:evenodd;fill:none;stroke:#FFFFFF;stroke-width:0.58;" y1="-5.76" y2="-7.795"/>
  <line x1="2.16" x2="3.224" style="fill-rule:evenodd;clip-rule:evenodd;fill:none;stroke:#FFFFFF;stroke-width:0.58;" y1="-4.791" y2="-2.16"/>
  <line x1="44.127" x2="45.375" style="fill-rule:evenodd;clip-rule:evenodd;fill:none;stroke:#FFFFFF;stroke-width:0.58;" y1="-7.109" y2="-9.658"/>
  <line x1="35.24" x2="38.065" style="fill-rule:evenodd;clip-rule:evenodd;fill:none;stroke:#FFFFFF;stroke-width:0.58;" y1="-5.197" y2="-5.467"/>
  <line x1="28.603" x2="30.581" style="fill-rule:evenodd;clip-rule:evenodd;fill:none;stroke:#FFFFFF;stroke-width:0.58;" y1="-5.76" y2="-7.795"/>
  <line x1="24.839" x2="25.902" style="fill-rule:evenodd;clip-rule:evenodd;fill:none;stroke:#FFFFFF;stroke-width:0.58;" y1="-4.791" y2="-2.16"/>
  <line x1="66.806" x2="68.055" style="fill-rule:evenodd;clip-rule:evenodd;fill:none;stroke:#FFFFFF;stroke-width:0.58;" y1="-7.109" y2="-9.658"/>
  <line x1="57.919" x2="60.744" style="fill-rule:evenodd;clip-rule:evenodd;fill:none;stroke:#FFFFFF;stroke-width:0.58;" y1="-5.197" y2="-5.467"/>
  <line x1="51.282" x2="53.26" style="fill-rule:evenodd;clip-rule:evenodd;fill:none;stroke:#FFFFFF;stroke-width:0.58;" y1="-5.76" y2="-7.795"/>
  <line x1="47.518" x2="48.582" style="fill-rule:evenodd;clip-rule:evenodd;fill:none;stroke:#FFFFFF;stroke-width:0.58;" y1="-4.791" y2="-2.16"/>
  <line x1="89.485" x2="90.733" style="fill-rule:evenodd;clip-rule:evenodd;fill:none;stroke:#FFFFFF;stroke-width:0.58;" y1="-7.109" y2="-9.658"/>
  <line x1="80.598" x2="83.423" style="fill-rule:evenodd;clip-rule:evenodd;fill:none;stroke:#FFFFFF;stroke-width:0.58;" y1="-5.197" y2="-5.467"/>
  <line x1="73.961" x2="75.939" style="fill-rule:evenodd;clip-rule:evenodd;fill:none;stroke:#FFFFFF;stroke-width:0.58;" y1="-5.76" y2="-7.795"/>
  <line x1="70.197" x2="71.261" style="fill-rule:evenodd;clip-rule:evenodd;fill:none;stroke:#FFFFFF;stroke-width:0.58;" y1="-4.791" y2="-2.16"/>
  <line x1="16.266" x2="15.949" style="fill-rule:evenodd;clip-rule:evenodd;fill:none;stroke:#FFFFFF;stroke-width:0.58;" y1="-11.223" y2="-9.557"/>
  <line x1="38.945" x2="38.628" style="fill-rule:evenodd;clip-rule:evenodd;fill:none;stroke:#FFFFFF;stroke-width:0.58;" y1="-11.223" y2="-9.557"/>
  <line x1="61.624" x2="61.307" style="fill-rule:evenodd;clip-rule:evenodd;fill:none;stroke:#FFFFFF;stroke-width:0.58;" y1="-11.223" y2="-9.557"/>
  <line x1="84.303" x2="83.986" style="fill-rule:evenodd;clip-rule:evenodd;fill:none;stroke:#FFFFFF;stroke-width:0.58;" y1="-11.223" y2="-9.557"/>
 </g>
</svg>
