<?xml version="1.0"?>
<!-- Converted with SVG Converter - Version 0.9.5 (Compiled Fri Feb 21 09:53:38 2020) - Copyright (C) 2011 Nokia -->
<svg xmlns="http://www.w3.org/2000/svg" y="0px" width="90.647" x="0px" height="90.647" baseProfile="tiny" viewBox="1.084 -92.389 90.647 90.647" xml:space="preserve" xmlns:xlink="http://www.w3.org/1999/xlink" version="1.1">
 <g>
  <rect y="-92.389" width="90.647" x="1.084" height="90.647" style="fill:none;"/>
  <line y2="-32.281" x2="22.696" style="fill-rule:evenodd;clip-rule:evenodd;fill:none;stroke:#EC008C;stroke-width:0.58;" y1="-29.733" x1="21.448"/>
  <line y2="-28.09" x2="15.386" style="fill-rule:evenodd;clip-rule:evenodd;fill:none;stroke:#EC008C;stroke-width:0.58;" y1="-27.82" x1="12.561"/>
  <line y2="-30.418" x2="7.901" style="fill-rule:evenodd;clip-rule:evenodd;fill:none;stroke:#EC008C;stroke-width:0.58;" y1="-28.383" x1="5.923"/>
  <line y2="-21.015" x2="19.029" style="fill-rule:evenodd;clip-rule:evenodd;fill:none;stroke:#EC008C;stroke-width:0.58;" y1="-23.78" x1="19.664"/>
  <line y2="-23.208" x2="9.538" style="fill-rule:evenodd;clip-rule:evenodd;fill:none;stroke:#EC008C;stroke-width:0.58;" y1="-22.478" x1="12.279"/>
  <line y2="-27.414" x2="2.16" style="fill-rule:evenodd;clip-rule:evenodd;fill:none;stroke:#EC008C;stroke-width:0.58;" y1="-24.783" x1="3.224"/>
  <line y2="-18.634" x2="3.464" style="fill-rule:evenodd;clip-rule:evenodd;fill:none;stroke:#EC008C;stroke-width:0.58;" y1="-19.833" x1="6.036"/>
  <line y2="-15.265" x2="11.712" style="fill-rule:evenodd;clip-rule:evenodd;fill:none;stroke:#EC008C;stroke-width:0.58;" y1="-16.739" x1="14.136"/>
  <line y2="-16.108" x2="19.756" style="fill-rule:evenodd;clip-rule:evenodd;fill:none;stroke:#EC008C;stroke-width:0.58;" y1="-14.716" x1="22.228"/>
  <line y2="-15.091" x2="4.905" style="fill-rule:evenodd;clip-rule:evenodd;fill:none;stroke:#EC008C;stroke-width:0.58;" y1="-12.606" x1="6.274"/>
  <line y2="-32.281" x2="45.375" style="fill-rule:evenodd;clip-rule:evenodd;fill:none;stroke:#EC008C;stroke-width:0.58;" y1="-29.733" x1="44.127"/>
  <line y2="-28.09" x2="38.065" style="fill-rule:evenodd;clip-rule:evenodd;fill:none;stroke:#EC008C;stroke-width:0.58;" y1="-27.82" x1="35.24"/>
  <line y2="-30.418" x2="30.581" style="fill-rule:evenodd;clip-rule:evenodd;fill:none;stroke:#EC008C;stroke-width:0.58;" y1="-28.383" x1="28.603"/>
  <line y2="-21.015" x2="41.708" style="fill-rule:evenodd;clip-rule:evenodd;fill:none;stroke:#EC008C;stroke-width:0.58;" y1="-23.78" x1="42.343"/>
  <line y2="-23.208" x2="32.217" style="fill-rule:evenodd;clip-rule:evenodd;fill:none;stroke:#EC008C;stroke-width:0.58;" y1="-22.478" x1="34.958"/>
  <line y2="-27.414" x2="24.839" style="fill-rule:evenodd;clip-rule:evenodd;fill:none;stroke:#EC008C;stroke-width:0.58;" y1="-24.783" x1="25.902"/>
  <line y2="-18.634" x2="26.144" style="fill-rule:evenodd;clip-rule:evenodd;fill:none;stroke:#EC008C;stroke-width:0.58;" y1="-19.833" x1="28.715"/>
  <line y2="-15.265" x2="34.391" style="fill-rule:evenodd;clip-rule:evenodd;fill:none;stroke:#EC008C;stroke-width:0.58;" y1="-16.739" x1="36.815"/>
  <line y2="-16.108" x2="42.435" style="fill-rule:evenodd;clip-rule:evenodd;fill:none;stroke:#EC008C;stroke-width:0.58;" y1="-14.716" x1="44.907"/>
  <line y2="-15.091" x2="27.584" style="fill-rule:evenodd;clip-rule:evenodd;fill:none;stroke:#EC008C;stroke-width:0.58;" y1="-12.606" x1="28.953"/>
  <line y2="-32.281" x2="68.055" style="fill-rule:evenodd;clip-rule:evenodd;fill:none;stroke:#EC008C;stroke-width:0.58;" y1="-29.733" x1="66.806"/>
  <line y2="-28.09" x2="60.744" style="fill-rule:evenodd;clip-rule:evenodd;fill:none;stroke:#EC008C;stroke-width:0.58;" y1="-27.82" x1="57.919"/>
  <line y2="-30.418" x2="53.26" style="fill-rule:evenodd;clip-rule:evenodd;fill:none;stroke:#EC008C;stroke-width:0.58;" y1="-28.383" x1="51.282"/>
  <line y2="-21.015" x2="64.388" style="fill-rule:evenodd;clip-rule:evenodd;fill:none;stroke:#EC008C;stroke-width:0.58;" y1="-23.78" x1="65.021"/>
  <line y2="-23.208" x2="54.896" style="fill-rule:evenodd;clip-rule:evenodd;fill:none;stroke:#EC008C;stroke-width:0.58;" y1="-22.478" x1="57.638"/>
  <line y2="-27.414" x2="47.518" style="fill-rule:evenodd;clip-rule:evenodd;fill:none;stroke:#EC008C;stroke-width:0.58;" y1="-24.783" x1="48.582"/>
  <line y2="-18.634" x2="48.823" style="fill-rule:evenodd;clip-rule:evenodd;fill:none;stroke:#EC008C;stroke-width:0.58;" y1="-19.833" x1="51.394"/>
  <line y2="-15.265" x2="57.07" style="fill-rule:evenodd;clip-rule:evenodd;fill:none;stroke:#EC008C;stroke-width:0.58;" y1="-16.739" x1="59.494"/>
  <line y2="-16.108" x2="65.114" style="fill-rule:evenodd;clip-rule:evenodd;fill:none;stroke:#EC008C;stroke-width:0.58;" y1="-14.716" x1="67.586"/>
  <line y2="-15.091" x2="50.263" style="fill-rule:evenodd;clip-rule:evenodd;fill:none;stroke:#EC008C;stroke-width:0.58;" y1="-12.606" x1="51.632"/>
  <line y2="-32.281" x2="90.733" style="fill-rule:evenodd;clip-rule:evenodd;fill:none;stroke:#EC008C;stroke-width:0.58;" y1="-29.733" x1="89.485"/>
  <line y2="-28.09" x2="83.423" style="fill-rule:evenodd;clip-rule:evenodd;fill:none;stroke:#EC008C;stroke-width:0.58;" y1="-27.82" x1="80.598"/>
  <line y2="-30.418" x2="75.939" style="fill-rule:evenodd;clip-rule:evenodd;fill:none;stroke:#EC008C;stroke-width:0.58;" y1="-28.383" x1="73.961"/>
  <line y2="-21.015" x2="87.067" style="fill-rule:evenodd;clip-rule:evenodd;fill:none;stroke:#EC008C;stroke-width:0.58;" y1="-23.78" x1="87.701"/>
  <line y2="-23.208" x2="77.575" style="fill-rule:evenodd;clip-rule:evenodd;fill:none;stroke:#EC008C;stroke-width:0.58;" y1="-22.478" x1="80.317"/>
  <line y2="-27.414" x2="70.197" style="fill-rule:evenodd;clip-rule:evenodd;fill:none;stroke:#EC008C;stroke-width:0.58;" y1="-24.783" x1="71.261"/>
  <line y2="-18.634" x2="71.502" style="fill-rule:evenodd;clip-rule:evenodd;fill:none;stroke:#EC008C;stroke-width:0.58;" y1="-19.833" x1="74.073"/>
  <line y2="-15.265" x2="79.749" style="fill-rule:evenodd;clip-rule:evenodd;fill:none;stroke:#EC008C;stroke-width:0.58;" y1="-16.739" x1="82.173"/>
  <line y2="-16.108" x2="87.793" style="fill-rule:evenodd;clip-rule:evenodd;fill:none;stroke:#EC008C;stroke-width:0.58;" y1="-14.716" x1="90.265"/>
  <line y2="-15.091" x2="72.942" style="fill-rule:evenodd;clip-rule:evenodd;fill:none;stroke:#EC008C;stroke-width:0.58;" y1="-12.606" x1="74.312"/>
  <line y2="-54.961" x2="22.696" style="fill-rule:evenodd;clip-rule:evenodd;fill:none;stroke:#EC008C;stroke-width:0.58;" y1="-52.413" x1="21.448"/>
  <line y2="-50.769" x2="15.386" style="fill-rule:evenodd;clip-rule:evenodd;fill:none;stroke:#EC008C;stroke-width:0.58;" y1="-50.5" x1="12.561"/>
  <line y2="-53.097" x2="7.901" style="fill-rule:evenodd;clip-rule:evenodd;fill:none;stroke:#EC008C;stroke-width:0.58;" y1="-51.062" x1="5.923"/>
  <line y2="-46.459" x2="19.664" style="fill-rule:evenodd;clip-rule:evenodd;fill:none;stroke:#EC008C;stroke-width:0.58;" y1="-43.694" x1="19.029"/>
  <line y2="-45.887" x2="9.538" style="fill-rule:evenodd;clip-rule:evenodd;fill:none;stroke:#EC008C;stroke-width:0.58;" y1="-45.156" x1="12.279"/>
  <line y2="-50.093" x2="2.16" style="fill-rule:evenodd;clip-rule:evenodd;fill:none;stroke:#EC008C;stroke-width:0.58;" y1="-47.462" x1="3.224"/>
  <line y2="-41.312" x2="3.464" style="fill-rule:evenodd;clip-rule:evenodd;fill:none;stroke:#EC008C;stroke-width:0.58;" y1="-42.513" x1="6.036"/>
  <line y2="-37.943" x2="11.712" style="fill-rule:evenodd;clip-rule:evenodd;fill:none;stroke:#EC008C;stroke-width:0.58;" y1="-39.418" x1="14.136"/>
  <line y2="-38.787" x2="19.756" style="fill-rule:evenodd;clip-rule:evenodd;fill:none;stroke:#EC008C;stroke-width:0.58;" y1="-37.395" x1="22.228"/>
  <line y2="-35.032" x2="16.491" style="fill-rule:evenodd;clip-rule:evenodd;fill:none;stroke:#EC008C;stroke-width:0.58;" y1="-32.18" x1="15.949"/>
  <line y2="-35.284" x2="6.274" style="fill-rule:evenodd;clip-rule:evenodd;fill:none;stroke:#EC008C;stroke-width:0.58;" y1="-37.77" x1="4.905"/>
  <line y2="-54.961" x2="45.375" style="fill-rule:evenodd;clip-rule:evenodd;fill:none;stroke:#EC008C;stroke-width:0.58;" y1="-52.413" x1="44.127"/>
  <line y2="-50.769" x2="38.065" style="fill-rule:evenodd;clip-rule:evenodd;fill:none;stroke:#EC008C;stroke-width:0.58;" y1="-50.5" x1="35.24"/>
  <line y2="-53.097" x2="30.581" style="fill-rule:evenodd;clip-rule:evenodd;fill:none;stroke:#EC008C;stroke-width:0.58;" y1="-51.062" x1="28.603"/>
  <line y2="-46.459" x2="42.343" style="fill-rule:evenodd;clip-rule:evenodd;fill:none;stroke:#EC008C;stroke-width:0.58;" y1="-43.694" x1="41.708"/>
  <line y2="-45.887" x2="32.217" style="fill-rule:evenodd;clip-rule:evenodd;fill:none;stroke:#EC008C;stroke-width:0.58;" y1="-45.156" x1="34.958"/>
  <line y2="-50.093" x2="24.839" style="fill-rule:evenodd;clip-rule:evenodd;fill:none;stroke:#EC008C;stroke-width:0.58;" y1="-47.462" x1="25.902"/>
  <line y2="-41.312" x2="26.144" style="fill-rule:evenodd;clip-rule:evenodd;fill:none;stroke:#EC008C;stroke-width:0.58;" y1="-42.513" x1="28.715"/>
  <line y2="-37.943" x2="34.391" style="fill-rule:evenodd;clip-rule:evenodd;fill:none;stroke:#EC008C;stroke-width:0.58;" y1="-39.418" x1="36.815"/>
  <line y2="-38.787" x2="42.435" style="fill-rule:evenodd;clip-rule:evenodd;fill:none;stroke:#EC008C;stroke-width:0.58;" y1="-37.395" x1="44.907"/>
  <line y2="-35.284" x2="28.953" style="fill-rule:evenodd;clip-rule:evenodd;fill:none;stroke:#EC008C;stroke-width:0.58;" y1="-37.77" x1="27.584"/>
  <line y2="-54.961" x2="68.055" style="fill-rule:evenodd;clip-rule:evenodd;fill:none;stroke:#EC008C;stroke-width:0.58;" y1="-52.413" x1="66.806"/>
  <line y2="-50.769" x2="60.744" style="fill-rule:evenodd;clip-rule:evenodd;fill:none;stroke:#EC008C;stroke-width:0.58;" y1="-50.5" x1="57.919"/>
  <line y2="-53.097" x2="53.26" style="fill-rule:evenodd;clip-rule:evenodd;fill:none;stroke:#EC008C;stroke-width:0.58;" y1="-51.062" x1="51.282"/>
  <line y2="-46.459" x2="65.021" style="fill-rule:evenodd;clip-rule:evenodd;fill:none;stroke:#EC008C;stroke-width:0.58;" y1="-43.694" x1="64.388"/>
  <line y2="-45.887" x2="54.896" style="fill-rule:evenodd;clip-rule:evenodd;fill:none;stroke:#EC008C;stroke-width:0.58;" y1="-45.156" x1="57.638"/>
  <line y2="-50.093" x2="47.518" style="fill-rule:evenodd;clip-rule:evenodd;fill:none;stroke:#EC008C;stroke-width:0.58;" y1="-47.462" x1="48.582"/>
  <line y2="-41.312" x2="48.823" style="fill-rule:evenodd;clip-rule:evenodd;fill:none;stroke:#EC008C;stroke-width:0.58;" y1="-42.513" x1="51.394"/>
  <line y2="-37.943" x2="57.07" style="fill-rule:evenodd;clip-rule:evenodd;fill:none;stroke:#EC008C;stroke-width:0.58;" y1="-39.418" x1="59.494"/>
  <line y2="-38.787" x2="65.114" style="fill-rule:evenodd;clip-rule:evenodd;fill:none;stroke:#EC008C;stroke-width:0.58;" y1="-37.395" x1="67.586"/>
  <line y2="-35.284" x2="51.632" style="fill-rule:evenodd;clip-rule:evenodd;fill:none;stroke:#EC008C;stroke-width:0.58;" y1="-37.77" x1="50.263"/>
  <line y2="-54.961" x2="90.733" style="fill-rule:evenodd;clip-rule:evenodd;fill:none;stroke:#EC008C;stroke-width:0.58;" y1="-52.413" x1="89.485"/>
  <line y2="-50.769" x2="83.423" style="fill-rule:evenodd;clip-rule:evenodd;fill:none;stroke:#EC008C;stroke-width:0.58;" y1="-50.5" x1="80.598"/>
  <line y2="-53.097" x2="75.939" style="fill-rule:evenodd;clip-rule:evenodd;fill:none;stroke:#EC008C;stroke-width:0.58;" y1="-51.062" x1="73.961"/>
  <line y2="-46.459" x2="87.701" style="fill-rule:evenodd;clip-rule:evenodd;fill:none;stroke:#EC008C;stroke-width:0.58;" y1="-43.694" x1="87.067"/>
  <line y2="-45.887" x2="77.575" style="fill-rule:evenodd;clip-rule:evenodd;fill:none;stroke:#EC008C;stroke-width:0.58;" y1="-45.156" x1="80.317"/>
  <line y2="-50.093" x2="70.197" style="fill-rule:evenodd;clip-rule:evenodd;fill:none;stroke:#EC008C;stroke-width:0.58;" y1="-47.462" x1="71.261"/>
  <line y2="-41.312" x2="71.502" style="fill-rule:evenodd;clip-rule:evenodd;fill:none;stroke:#EC008C;stroke-width:0.58;" y1="-42.513" x1="74.073"/>
  <line y2="-37.943" x2="79.749" style="fill-rule:evenodd;clip-rule:evenodd;fill:none;stroke:#EC008C;stroke-width:0.58;" y1="-39.418" x1="82.173"/>
  <line y2="-38.787" x2="87.793" style="fill-rule:evenodd;clip-rule:evenodd;fill:none;stroke:#EC008C;stroke-width:0.58;" y1="-37.395" x1="90.265"/>
  <line y2="-35.284" x2="74.312" style="fill-rule:evenodd;clip-rule:evenodd;fill:none;stroke:#EC008C;stroke-width:0.58;" y1="-37.77" x1="72.942"/>
  <line y2="-77.64" x2="22.696" style="fill-rule:evenodd;clip-rule:evenodd;fill:none;stroke:#EC008C;stroke-width:0.58;" y1="-75.091" x1="21.448"/>
  <line y2="-73.448" x2="15.386" style="fill-rule:evenodd;clip-rule:evenodd;fill:none;stroke:#EC008C;stroke-width:0.58;" y1="-73.179" x1="12.561"/>
  <line y2="-75.776" x2="7.901" style="fill-rule:evenodd;clip-rule:evenodd;fill:none;stroke:#EC008C;stroke-width:0.58;" y1="-73.741" x1="5.923"/>
  <line y2="-69.139" x2="19.664" style="fill-rule:evenodd;clip-rule:evenodd;fill:none;stroke:#EC008C;stroke-width:0.58;" y1="-66.373" x1="19.029"/>
  <line y2="-68.566" x2="9.538" style="fill-rule:evenodd;clip-rule:evenodd;fill:none;stroke:#EC008C;stroke-width:0.58;" y1="-67.835" x1="12.279"/>
  <line y2="-72.772" x2="2.16" style="fill-rule:evenodd;clip-rule:evenodd;fill:none;stroke:#EC008C;stroke-width:0.58;" y1="-70.142" x1="3.224"/>
  <line y2="-63.992" x2="3.464" style="fill-rule:evenodd;clip-rule:evenodd;fill:none;stroke:#EC008C;stroke-width:0.58;" y1="-65.191" x1="6.036"/>
  <line y2="-60.623" x2="11.712" style="fill-rule:evenodd;clip-rule:evenodd;fill:none;stroke:#EC008C;stroke-width:0.58;" y1="-62.098" x1="14.136"/>
  <line y2="-61.466" x2="19.756" style="fill-rule:evenodd;clip-rule:evenodd;fill:none;stroke:#EC008C;stroke-width:0.58;" y1="-60.074" x1="22.228"/>
  <line y2="-57.963" x2="6.274" style="fill-rule:evenodd;clip-rule:evenodd;fill:none;stroke:#EC008C;stroke-width:0.58;" y1="-60.449" x1="4.905"/>
  <line y2="-77.64" x2="45.375" style="fill-rule:evenodd;clip-rule:evenodd;fill:none;stroke:#EC008C;stroke-width:0.58;" y1="-75.091" x1="44.127"/>
  <line y2="-73.448" x2="38.065" style="fill-rule:evenodd;clip-rule:evenodd;fill:none;stroke:#EC008C;stroke-width:0.58;" y1="-73.179" x1="35.24"/>
  <line y2="-75.776" x2="30.581" style="fill-rule:evenodd;clip-rule:evenodd;fill:none;stroke:#EC008C;stroke-width:0.58;" y1="-73.741" x1="28.603"/>
  <line y2="-69.139" x2="42.343" style="fill-rule:evenodd;clip-rule:evenodd;fill:none;stroke:#EC008C;stroke-width:0.58;" y1="-66.373" x1="41.708"/>
  <line y2="-68.566" x2="32.217" style="fill-rule:evenodd;clip-rule:evenodd;fill:none;stroke:#EC008C;stroke-width:0.58;" y1="-67.835" x1="34.958"/>
  <line y2="-72.772" x2="24.839" style="fill-rule:evenodd;clip-rule:evenodd;fill:none;stroke:#EC008C;stroke-width:0.58;" y1="-70.142" x1="25.902"/>
  <line y2="-63.992" x2="26.144" style="fill-rule:evenodd;clip-rule:evenodd;fill:none;stroke:#EC008C;stroke-width:0.58;" y1="-65.191" x1="28.715"/>
  <line y2="-60.623" x2="34.391" style="fill-rule:evenodd;clip-rule:evenodd;fill:none;stroke:#EC008C;stroke-width:0.58;" y1="-62.098" x1="36.815"/>
  <line y2="-61.466" x2="42.435" style="fill-rule:evenodd;clip-rule:evenodd;fill:none;stroke:#EC008C;stroke-width:0.58;" y1="-60.074" x1="44.907"/>
  <line y2="-57.963" x2="28.953" style="fill-rule:evenodd;clip-rule:evenodd;fill:none;stroke:#EC008C;stroke-width:0.58;" y1="-60.449" x1="27.584"/>
  <line y2="-77.64" x2="68.055" style="fill-rule:evenodd;clip-rule:evenodd;fill:none;stroke:#EC008C;stroke-width:0.58;" y1="-75.091" x1="66.806"/>
  <line y2="-73.448" x2="60.744" style="fill-rule:evenodd;clip-rule:evenodd;fill:none;stroke:#EC008C;stroke-width:0.58;" y1="-73.179" x1="57.919"/>
  <line y2="-75.776" x2="53.26" style="fill-rule:evenodd;clip-rule:evenodd;fill:none;stroke:#EC008C;stroke-width:0.58;" y1="-73.741" x1="51.282"/>
  <line y2="-69.139" x2="65.021" style="fill-rule:evenodd;clip-rule:evenodd;fill:none;stroke:#EC008C;stroke-width:0.58;" y1="-66.373" x1="64.388"/>
  <line y2="-68.566" x2="54.896" style="fill-rule:evenodd;clip-rule:evenodd;fill:none;stroke:#EC008C;stroke-width:0.58;" y1="-67.835" x1="57.638"/>
  <line y2="-72.772" x2="47.518" style="fill-rule:evenodd;clip-rule:evenodd;fill:none;stroke:#EC008C;stroke-width:0.58;" y1="-70.142" x1="48.582"/>
  <line y2="-63.992" x2="48.823" style="fill-rule:evenodd;clip-rule:evenodd;fill:none;stroke:#EC008C;stroke-width:0.58;" y1="-65.191" x1="51.394"/>
  <line y2="-60.623" x2="57.07" style="fill-rule:evenodd;clip-rule:evenodd;fill:none;stroke:#EC008C;stroke-width:0.58;" y1="-62.098" x1="59.494"/>
  <line y2="-61.466" x2="65.114" style="fill-rule:evenodd;clip-rule:evenodd;fill:none;stroke:#EC008C;stroke-width:0.58;" y1="-60.074" x1="67.586"/>
  <line y2="-57.963" x2="51.632" style="fill-rule:evenodd;clip-rule:evenodd;fill:none;stroke:#EC008C;stroke-width:0.58;" y1="-60.449" x1="50.263"/>
  <line y2="-77.64" x2="90.733" style="fill-rule:evenodd;clip-rule:evenodd;fill:none;stroke:#EC008C;stroke-width:0.58;" y1="-75.091" x1="89.485"/>
  <line y2="-73.448" x2="83.423" style="fill-rule:evenodd;clip-rule:evenodd;fill:none;stroke:#EC008C;stroke-width:0.58;" y1="-73.179" x1="80.598"/>
  <line y2="-75.776" x2="75.939" style="fill-rule:evenodd;clip-rule:evenodd;fill:none;stroke:#EC008C;stroke-width:0.58;" y1="-73.741" x1="73.961"/>
  <line y2="-69.139" x2="87.701" style="fill-rule:evenodd;clip-rule:evenodd;fill:none;stroke:#EC008C;stroke-width:0.58;" y1="-66.373" x1="87.067"/>
  <line y2="-68.566" x2="77.575" style="fill-rule:evenodd;clip-rule:evenodd;fill:none;stroke:#EC008C;stroke-width:0.58;" y1="-67.835" x1="80.317"/>
  <line y2="-72.772" x2="70.197" style="fill-rule:evenodd;clip-rule:evenodd;fill:none;stroke:#EC008C;stroke-width:0.58;" y1="-70.142" x1="71.261"/>
  <line y2="-63.992" x2="71.502" style="fill-rule:evenodd;clip-rule:evenodd;fill:none;stroke:#EC008C;stroke-width:0.58;" y1="-65.191" x1="74.073"/>
  <line y2="-60.623" x2="79.749" style="fill-rule:evenodd;clip-rule:evenodd;fill:none;stroke:#EC008C;stroke-width:0.58;" y1="-62.098" x1="82.173"/>
  <line y2="-61.466" x2="87.793" style="fill-rule:evenodd;clip-rule:evenodd;fill:none;stroke:#EC008C;stroke-width:0.58;" y1="-60.074" x1="90.265"/>
  <line y2="-57.963" x2="74.312" style="fill-rule:evenodd;clip-rule:evenodd;fill:none;stroke:#EC008C;stroke-width:0.58;" y1="-60.449" x1="72.942"/>
  <line y2="-91.818" x2="19.664" style="fill-rule:evenodd;clip-rule:evenodd;fill:none;stroke:#EC008C;stroke-width:0.58;" y1="-89.052" x1="19.029"/>
  <line y2="-90.514" x2="12.279" style="fill-rule:evenodd;clip-rule:evenodd;fill:none;stroke:#EC008C;stroke-width:0.58;" y1="-91.245" x1="9.538"/>
  <line y2="-86.67" x2="3.464" style="fill-rule:evenodd;clip-rule:evenodd;fill:none;stroke:#EC008C;stroke-width:0.58;" y1="-87.871" x1="6.036"/>
  <line y2="-83.301" x2="11.712" style="fill-rule:evenodd;clip-rule:evenodd;fill:none;stroke:#EC008C;stroke-width:0.58;" y1="-84.777" x1="14.136"/>
  <line y2="-84.145" x2="19.756" style="fill-rule:evenodd;clip-rule:evenodd;fill:none;stroke:#EC008C;stroke-width:0.58;" y1="-82.753" x1="22.228"/>
  <line y2="-80.643" x2="6.274" style="fill-rule:evenodd;clip-rule:evenodd;fill:none;stroke:#EC008C;stroke-width:0.58;" y1="-83.127" x1="4.905"/>
  <line y2="-91.818" x2="42.343" style="fill-rule:evenodd;clip-rule:evenodd;fill:none;stroke:#EC008C;stroke-width:0.58;" y1="-89.052" x1="41.708"/>
  <line y2="-90.514" x2="34.958" style="fill-rule:evenodd;clip-rule:evenodd;fill:none;stroke:#EC008C;stroke-width:0.58;" y1="-91.245" x1="32.217"/>
  <line y2="-86.67" x2="26.144" style="fill-rule:evenodd;clip-rule:evenodd;fill:none;stroke:#EC008C;stroke-width:0.58;" y1="-87.871" x1="28.715"/>
  <line y2="-83.301" x2="34.391" style="fill-rule:evenodd;clip-rule:evenodd;fill:none;stroke:#EC008C;stroke-width:0.58;" y1="-84.777" x1="36.815"/>
  <line y2="-84.145" x2="42.435" style="fill-rule:evenodd;clip-rule:evenodd;fill:none;stroke:#EC008C;stroke-width:0.58;" y1="-82.753" x1="44.907"/>
  <line y2="-80.643" x2="28.953" style="fill-rule:evenodd;clip-rule:evenodd;fill:none;stroke:#EC008C;stroke-width:0.58;" y1="-83.127" x1="27.584"/>
  <line y2="-91.818" x2="65.021" style="fill-rule:evenodd;clip-rule:evenodd;fill:none;stroke:#EC008C;stroke-width:0.58;" y1="-89.052" x1="64.388"/>
  <line y2="-90.514" x2="57.638" style="fill-rule:evenodd;clip-rule:evenodd;fill:none;stroke:#EC008C;stroke-width:0.58;" y1="-91.245" x1="54.896"/>
  <line y2="-86.67" x2="48.823" style="fill-rule:evenodd;clip-rule:evenodd;fill:none;stroke:#EC008C;stroke-width:0.58;" y1="-87.871" x1="51.394"/>
  <line y2="-83.301" x2="57.07" style="fill-rule:evenodd;clip-rule:evenodd;fill:none;stroke:#EC008C;stroke-width:0.58;" y1="-84.777" x1="59.494"/>
  <line y2="-84.145" x2="65.114" style="fill-rule:evenodd;clip-rule:evenodd;fill:none;stroke:#EC008C;stroke-width:0.58;" y1="-82.753" x1="67.586"/>
  <line y2="-80.643" x2="51.632" style="fill-rule:evenodd;clip-rule:evenodd;fill:none;stroke:#EC008C;stroke-width:0.58;" y1="-83.127" x1="50.263"/>
  <line y2="-91.818" x2="87.701" style="fill-rule:evenodd;clip-rule:evenodd;fill:none;stroke:#EC008C;stroke-width:0.58;" y1="-89.052" x1="87.067"/>
  <line y2="-90.514" x2="80.317" style="fill-rule:evenodd;clip-rule:evenodd;fill:none;stroke:#EC008C;stroke-width:0.58;" y1="-91.245" x1="77.575"/>
  <line y2="-86.67" x2="71.502" style="fill-rule:evenodd;clip-rule:evenodd;fill:none;stroke:#EC008C;stroke-width:0.58;" y1="-87.871" x1="74.073"/>
  <line y2="-83.301" x2="79.749" style="fill-rule:evenodd;clip-rule:evenodd;fill:none;stroke:#EC008C;stroke-width:0.58;" y1="-84.777" x1="82.173"/>
  <line y2="-84.145" x2="87.793" style="fill-rule:evenodd;clip-rule:evenodd;fill:none;stroke:#EC008C;stroke-width:0.58;" y1="-82.753" x1="90.265"/>
  <line y2="-80.643" x2="74.312" style="fill-rule:evenodd;clip-rule:evenodd;fill:none;stroke:#EC008C;stroke-width:0.58;" y1="-83.127" x1="72.942"/>
  <line y2="-35.032" x2="39.17" style="fill-rule:evenodd;clip-rule:evenodd;fill:none;stroke:#EC008C;stroke-width:0.58;" y1="-32.18" x1="38.628"/>
  <line y2="-35.032" x2="61.849" style="fill-rule:evenodd;clip-rule:evenodd;fill:none;stroke:#EC008C;stroke-width:0.58;" y1="-32.18" x1="61.307"/>
  <line y2="-35.032" x2="84.528" style="fill-rule:evenodd;clip-rule:evenodd;fill:none;stroke:#EC008C;stroke-width:0.58;" y1="-32.18" x1="83.986"/>
  <line y2="-57.711" x2="84.528" style="fill-rule:evenodd;clip-rule:evenodd;fill:none;stroke:#EC008C;stroke-width:0.58;" y1="-54.859" x1="83.986"/>
  <line y2="-57.711" x2="61.849" style="fill-rule:evenodd;clip-rule:evenodd;fill:none;stroke:#EC008C;stroke-width:0.58;" y1="-54.859" x1="61.307"/>
  <line y2="-57.711" x2="39.17" style="fill-rule:evenodd;clip-rule:evenodd;fill:none;stroke:#EC008C;stroke-width:0.58;" y1="-54.859" x1="38.628"/>
  <line y2="-57.711" x2="16.491" style="fill-rule:evenodd;clip-rule:evenodd;fill:none;stroke:#EC008C;stroke-width:0.58;" y1="-54.859" x1="15.949"/>
  <line y2="-80.39" x2="16.491" style="fill-rule:evenodd;clip-rule:evenodd;fill:none;stroke:#EC008C;stroke-width:0.58;" y1="-77.538" x1="15.949"/>
  <line y2="-80.39" x2="39.17" style="fill-rule:evenodd;clip-rule:evenodd;fill:none;stroke:#EC008C;stroke-width:0.58;" y1="-77.538" x1="38.628"/>
  <line y2="-80.39" x2="61.849" style="fill-rule:evenodd;clip-rule:evenodd;fill:none;stroke:#EC008C;stroke-width:0.58;" y1="-77.538" x1="61.307"/>
  <line y2="-80.39" x2="84.528" style="fill-rule:evenodd;clip-rule:evenodd;fill:none;stroke:#EC008C;stroke-width:0.58;" y1="-77.538" x1="83.986"/>
  <line y2="-11.235" x2="16.266" style="fill-rule:evenodd;clip-rule:evenodd;fill:none;stroke:#EC008C;stroke-width:0.58;" y1="-12.422" x1="16.491"/>
  <line y2="-11.235" x2="38.945" style="fill-rule:evenodd;clip-rule:evenodd;fill:none;stroke:#EC008C;stroke-width:0.58;" y1="-12.422" x1="39.17"/>
  <line y2="-11.235" x2="61.624" style="fill-rule:evenodd;clip-rule:evenodd;fill:none;stroke:#EC008C;stroke-width:0.58;" y1="-12.422" x1="61.849"/>
  <line y2="-11.235" x2="84.303" style="fill-rule:evenodd;clip-rule:evenodd;fill:none;stroke:#EC008C;stroke-width:0.58;" y1="-12.422" x1="84.528"/>
  <line y2="-9.658" x2="22.696" style="fill-rule:evenodd;clip-rule:evenodd;fill:none;stroke:#EC008C;stroke-width:0.58;" y1="-7.109" x1="21.448"/>
  <line y2="-5.467" x2="15.386" style="fill-rule:evenodd;clip-rule:evenodd;fill:none;stroke:#EC008C;stroke-width:0.58;" y1="-5.197" x1="12.561"/>
  <line y2="-7.795" x2="7.901" style="fill-rule:evenodd;clip-rule:evenodd;fill:none;stroke:#EC008C;stroke-width:0.58;" y1="-5.76" x1="5.923"/>
  <line y2="-2.16" x2="3.224" style="fill-rule:evenodd;clip-rule:evenodd;fill:none;stroke:#EC008C;stroke-width:0.58;" y1="-4.791" x1="2.16"/>
  <line y2="-9.658" x2="45.375" style="fill-rule:evenodd;clip-rule:evenodd;fill:none;stroke:#EC008C;stroke-width:0.58;" y1="-7.109" x1="44.127"/>
  <line y2="-5.467" x2="38.065" style="fill-rule:evenodd;clip-rule:evenodd;fill:none;stroke:#EC008C;stroke-width:0.58;" y1="-5.197" x1="35.24"/>
  <line y2="-7.795" x2="30.581" style="fill-rule:evenodd;clip-rule:evenodd;fill:none;stroke:#EC008C;stroke-width:0.58;" y1="-5.76" x1="28.603"/>
  <line y2="-2.16" x2="25.902" style="fill-rule:evenodd;clip-rule:evenodd;fill:none;stroke:#EC008C;stroke-width:0.58;" y1="-4.791" x1="24.839"/>
  <line y2="-9.658" x2="68.055" style="fill-rule:evenodd;clip-rule:evenodd;fill:none;stroke:#EC008C;stroke-width:0.58;" y1="-7.109" x1="66.806"/>
  <line y2="-5.467" x2="60.744" style="fill-rule:evenodd;clip-rule:evenodd;fill:none;stroke:#EC008C;stroke-width:0.58;" y1="-5.197" x1="57.919"/>
  <line y2="-7.795" x2="53.26" style="fill-rule:evenodd;clip-rule:evenodd;fill:none;stroke:#EC008C;stroke-width:0.58;" y1="-5.76" x1="51.282"/>
  <line y2="-2.16" x2="48.582" style="fill-rule:evenodd;clip-rule:evenodd;fill:none;stroke:#EC008C;stroke-width:0.58;" y1="-4.791" x1="47.518"/>
  <line y2="-9.658" x2="90.733" style="fill-rule:evenodd;clip-rule:evenodd;fill:none;stroke:#EC008C;stroke-width:0.58;" y1="-7.109" x1="89.485"/>
  <line y2="-5.467" x2="83.423" style="fill-rule:evenodd;clip-rule:evenodd;fill:none;stroke:#EC008C;stroke-width:0.58;" y1="-5.197" x1="80.598"/>
  <line y2="-7.795" x2="75.939" style="fill-rule:evenodd;clip-rule:evenodd;fill:none;stroke:#EC008C;stroke-width:0.58;" y1="-5.76" x1="73.961"/>
  <line y2="-2.16" x2="71.261" style="fill-rule:evenodd;clip-rule:evenodd;fill:none;stroke:#EC008C;stroke-width:0.58;" y1="-4.791" x1="70.197"/>
  <line y2="-9.557" x2="15.949" style="fill-rule:evenodd;clip-rule:evenodd;fill:none;stroke:#EC008C;stroke-width:0.58;" y1="-11.223" x1="16.266"/>
  <line y2="-9.557" x2="38.628" style="fill-rule:evenodd;clip-rule:evenodd;fill:none;stroke:#EC008C;stroke-width:0.58;" y1="-11.223" x1="38.945"/>
  <line y2="-9.557" x2="61.307" style="fill-rule:evenodd;clip-rule:evenodd;fill:none;stroke:#EC008C;stroke-width:0.58;" y1="-11.223" x1="61.624"/>
  <line y2="-9.557" x2="83.986" style="fill-rule:evenodd;clip-rule:evenodd;fill:none;stroke:#EC008C;stroke-width:0.58;" y1="-11.223" x1="84.303"/>
 </g>
</svg>
