<?xml version="1.0"?>
<!-- Converted with SVG Converter - Version 0.9.5 (Compiled Fri Feb 21 09:53:38 2020) - Copyright (C) 2011 Nokia -->
<svg xmlns="http://www.w3.org/2000/svg" xml:space="preserve" baseProfile="tiny" x="0px" version="1.1" xmlns:xlink="http://www.w3.org/1999/xlink" width="90.647" y="0px" height="90.647" viewBox="1.084 -92.389 90.647 90.647">
 <g>
  <rect x="1.084" style="fill:none;" width="90.647" y="-92.389" height="90.647"/>
  <line x2="22.696" y2="-32.281" style="fill-rule:evenodd;clip-rule:evenodd;fill:none;stroke:#00AEEF;stroke-width:0.58;" y1="-29.733" x1="21.448"/>
  <line x2="15.386" y2="-28.09" style="fill-rule:evenodd;clip-rule:evenodd;fill:none;stroke:#00AEEF;stroke-width:0.58;" y1="-27.82" x1="12.561"/>
  <line x2="7.901" y2="-30.418" style="fill-rule:evenodd;clip-rule:evenodd;fill:none;stroke:#00AEEF;stroke-width:0.58;" y1="-28.383" x1="5.923"/>
  <line x2="19.029" y2="-21.015" style="fill-rule:evenodd;clip-rule:evenodd;fill:none;stroke:#00AEEF;stroke-width:0.58;" y1="-23.78" x1="19.664"/>
  <line x2="9.538" y2="-23.208" style="fill-rule:evenodd;clip-rule:evenodd;fill:none;stroke:#00AEEF;stroke-width:0.58;" y1="-22.478" x1="12.279"/>
  <line x2="2.16" y2="-27.414" style="fill-rule:evenodd;clip-rule:evenodd;fill:none;stroke:#00AEEF;stroke-width:0.58;" y1="-24.783" x1="3.224"/>
  <line x2="3.464" y2="-18.634" style="fill-rule:evenodd;clip-rule:evenodd;fill:none;stroke:#00AEEF;stroke-width:0.58;" y1="-19.833" x1="6.036"/>
  <line x2="11.712" y2="-15.265" style="fill-rule:evenodd;clip-rule:evenodd;fill:none;stroke:#00AEEF;stroke-width:0.58;" y1="-16.739" x1="14.136"/>
  <line x2="19.756" y2="-16.108" style="fill-rule:evenodd;clip-rule:evenodd;fill:none;stroke:#00AEEF;stroke-width:0.58;" y1="-14.716" x1="22.228"/>
  <line x2="4.905" y2="-15.091" style="fill-rule:evenodd;clip-rule:evenodd;fill:none;stroke:#00AEEF;stroke-width:0.58;" y1="-12.606" x1="6.274"/>
  <line x2="45.375" y2="-32.281" style="fill-rule:evenodd;clip-rule:evenodd;fill:none;stroke:#00AEEF;stroke-width:0.58;" y1="-29.733" x1="44.127"/>
  <line x2="38.065" y2="-28.09" style="fill-rule:evenodd;clip-rule:evenodd;fill:none;stroke:#00AEEF;stroke-width:0.58;" y1="-27.82" x1="35.24"/>
  <line x2="30.581" y2="-30.418" style="fill-rule:evenodd;clip-rule:evenodd;fill:none;stroke:#00AEEF;stroke-width:0.58;" y1="-28.383" x1="28.603"/>
  <line x2="41.708" y2="-21.015" style="fill-rule:evenodd;clip-rule:evenodd;fill:none;stroke:#00AEEF;stroke-width:0.58;" y1="-23.78" x1="42.343"/>
  <line x2="32.217" y2="-23.208" style="fill-rule:evenodd;clip-rule:evenodd;fill:none;stroke:#00AEEF;stroke-width:0.58;" y1="-22.478" x1="34.958"/>
  <line x2="24.839" y2="-27.414" style="fill-rule:evenodd;clip-rule:evenodd;fill:none;stroke:#00AEEF;stroke-width:0.58;" y1="-24.783" x1="25.902"/>
  <line x2="26.144" y2="-18.634" style="fill-rule:evenodd;clip-rule:evenodd;fill:none;stroke:#00AEEF;stroke-width:0.58;" y1="-19.833" x1="28.715"/>
  <line x2="34.391" y2="-15.265" style="fill-rule:evenodd;clip-rule:evenodd;fill:none;stroke:#00AEEF;stroke-width:0.58;" y1="-16.739" x1="36.815"/>
  <line x2="42.435" y2="-16.108" style="fill-rule:evenodd;clip-rule:evenodd;fill:none;stroke:#00AEEF;stroke-width:0.58;" y1="-14.716" x1="44.907"/>
  <line x2="27.584" y2="-15.091" style="fill-rule:evenodd;clip-rule:evenodd;fill:none;stroke:#00AEEF;stroke-width:0.58;" y1="-12.606" x1="28.953"/>
  <line x2="68.055" y2="-32.281" style="fill-rule:evenodd;clip-rule:evenodd;fill:none;stroke:#00AEEF;stroke-width:0.58;" y1="-29.733" x1="66.806"/>
  <line x2="60.744" y2="-28.09" style="fill-rule:evenodd;clip-rule:evenodd;fill:none;stroke:#00AEEF;stroke-width:0.58;" y1="-27.82" x1="57.919"/>
  <line x2="53.26" y2="-30.418" style="fill-rule:evenodd;clip-rule:evenodd;fill:none;stroke:#00AEEF;stroke-width:0.58;" y1="-28.383" x1="51.282"/>
  <line x2="64.388" y2="-21.015" style="fill-rule:evenodd;clip-rule:evenodd;fill:none;stroke:#00AEEF;stroke-width:0.58;" y1="-23.78" x1="65.021"/>
  <line x2="54.896" y2="-23.208" style="fill-rule:evenodd;clip-rule:evenodd;fill:none;stroke:#00AEEF;stroke-width:0.58;" y1="-22.478" x1="57.638"/>
  <line x2="47.518" y2="-27.414" style="fill-rule:evenodd;clip-rule:evenodd;fill:none;stroke:#00AEEF;stroke-width:0.58;" y1="-24.783" x1="48.582"/>
  <line x2="48.823" y2="-18.634" style="fill-rule:evenodd;clip-rule:evenodd;fill:none;stroke:#00AEEF;stroke-width:0.58;" y1="-19.833" x1="51.394"/>
  <line x2="57.07" y2="-15.265" style="fill-rule:evenodd;clip-rule:evenodd;fill:none;stroke:#00AEEF;stroke-width:0.58;" y1="-16.739" x1="59.494"/>
  <line x2="65.114" y2="-16.108" style="fill-rule:evenodd;clip-rule:evenodd;fill:none;stroke:#00AEEF;stroke-width:0.58;" y1="-14.716" x1="67.586"/>
  <line x2="50.263" y2="-15.091" style="fill-rule:evenodd;clip-rule:evenodd;fill:none;stroke:#00AEEF;stroke-width:0.58;" y1="-12.606" x1="51.632"/>
  <line x2="90.733" y2="-32.281" style="fill-rule:evenodd;clip-rule:evenodd;fill:none;stroke:#00AEEF;stroke-width:0.58;" y1="-29.733" x1="89.485"/>
  <line x2="83.423" y2="-28.09" style="fill-rule:evenodd;clip-rule:evenodd;fill:none;stroke:#00AEEF;stroke-width:0.58;" y1="-27.82" x1="80.598"/>
  <line x2="75.939" y2="-30.418" style="fill-rule:evenodd;clip-rule:evenodd;fill:none;stroke:#00AEEF;stroke-width:0.58;" y1="-28.383" x1="73.961"/>
  <line x2="87.067" y2="-21.015" style="fill-rule:evenodd;clip-rule:evenodd;fill:none;stroke:#00AEEF;stroke-width:0.58;" y1="-23.78" x1="87.701"/>
  <line x2="77.575" y2="-23.208" style="fill-rule:evenodd;clip-rule:evenodd;fill:none;stroke:#00AEEF;stroke-width:0.58;" y1="-22.478" x1="80.317"/>
  <line x2="70.197" y2="-27.414" style="fill-rule:evenodd;clip-rule:evenodd;fill:none;stroke:#00AEEF;stroke-width:0.58;" y1="-24.783" x1="71.261"/>
  <line x2="71.502" y2="-18.634" style="fill-rule:evenodd;clip-rule:evenodd;fill:none;stroke:#00AEEF;stroke-width:0.58;" y1="-19.833" x1="74.073"/>
  <line x2="79.749" y2="-15.265" style="fill-rule:evenodd;clip-rule:evenodd;fill:none;stroke:#00AEEF;stroke-width:0.58;" y1="-16.739" x1="82.173"/>
  <line x2="87.793" y2="-16.108" style="fill-rule:evenodd;clip-rule:evenodd;fill:none;stroke:#00AEEF;stroke-width:0.58;" y1="-14.716" x1="90.265"/>
  <line x2="72.942" y2="-15.091" style="fill-rule:evenodd;clip-rule:evenodd;fill:none;stroke:#00AEEF;stroke-width:0.58;" y1="-12.606" x1="74.312"/>
  <line x2="22.696" y2="-54.961" style="fill-rule:evenodd;clip-rule:evenodd;fill:none;stroke:#00AEEF;stroke-width:0.58;" y1="-52.413" x1="21.448"/>
  <line x2="15.386" y2="-50.769" style="fill-rule:evenodd;clip-rule:evenodd;fill:none;stroke:#00AEEF;stroke-width:0.58;" y1="-50.5" x1="12.561"/>
  <line x2="7.901" y2="-53.097" style="fill-rule:evenodd;clip-rule:evenodd;fill:none;stroke:#00AEEF;stroke-width:0.58;" y1="-51.062" x1="5.923"/>
  <line x2="19.664" y2="-46.459" style="fill-rule:evenodd;clip-rule:evenodd;fill:none;stroke:#00AEEF;stroke-width:0.58;" y1="-43.694" x1="19.029"/>
  <line x2="9.538" y2="-45.887" style="fill-rule:evenodd;clip-rule:evenodd;fill:none;stroke:#00AEEF;stroke-width:0.58;" y1="-45.156" x1="12.279"/>
  <line x2="2.16" y2="-50.093" style="fill-rule:evenodd;clip-rule:evenodd;fill:none;stroke:#00AEEF;stroke-width:0.58;" y1="-47.462" x1="3.224"/>
  <line x2="3.464" y2="-41.312" style="fill-rule:evenodd;clip-rule:evenodd;fill:none;stroke:#00AEEF;stroke-width:0.58;" y1="-42.513" x1="6.036"/>
  <line x2="11.712" y2="-37.943" style="fill-rule:evenodd;clip-rule:evenodd;fill:none;stroke:#00AEEF;stroke-width:0.58;" y1="-39.418" x1="14.136"/>
  <line x2="19.756" y2="-38.787" style="fill-rule:evenodd;clip-rule:evenodd;fill:none;stroke:#00AEEF;stroke-width:0.58;" y1="-37.395" x1="22.228"/>
  <line x2="16.491" y2="-35.032" style="fill-rule:evenodd;clip-rule:evenodd;fill:none;stroke:#00AEEF;stroke-width:0.58;" y1="-32.18" x1="15.949"/>
  <line x2="6.274" y2="-35.284" style="fill-rule:evenodd;clip-rule:evenodd;fill:none;stroke:#00AEEF;stroke-width:0.58;" y1="-37.77" x1="4.905"/>
  <line x2="45.375" y2="-54.961" style="fill-rule:evenodd;clip-rule:evenodd;fill:none;stroke:#00AEEF;stroke-width:0.58;" y1="-52.413" x1="44.127"/>
  <line x2="38.065" y2="-50.769" style="fill-rule:evenodd;clip-rule:evenodd;fill:none;stroke:#00AEEF;stroke-width:0.58;" y1="-50.5" x1="35.24"/>
  <line x2="30.581" y2="-53.097" style="fill-rule:evenodd;clip-rule:evenodd;fill:none;stroke:#00AEEF;stroke-width:0.58;" y1="-51.062" x1="28.603"/>
  <line x2="42.343" y2="-46.459" style="fill-rule:evenodd;clip-rule:evenodd;fill:none;stroke:#00AEEF;stroke-width:0.58;" y1="-43.694" x1="41.708"/>
  <line x2="32.217" y2="-45.887" style="fill-rule:evenodd;clip-rule:evenodd;fill:none;stroke:#00AEEF;stroke-width:0.58;" y1="-45.156" x1="34.958"/>
  <line x2="24.839" y2="-50.093" style="fill-rule:evenodd;clip-rule:evenodd;fill:none;stroke:#00AEEF;stroke-width:0.58;" y1="-47.462" x1="25.902"/>
  <line x2="26.144" y2="-41.312" style="fill-rule:evenodd;clip-rule:evenodd;fill:none;stroke:#00AEEF;stroke-width:0.58;" y1="-42.513" x1="28.715"/>
  <line x2="34.391" y2="-37.943" style="fill-rule:evenodd;clip-rule:evenodd;fill:none;stroke:#00AEEF;stroke-width:0.58;" y1="-39.418" x1="36.815"/>
  <line x2="42.435" y2="-38.787" style="fill-rule:evenodd;clip-rule:evenodd;fill:none;stroke:#00AEEF;stroke-width:0.58;" y1="-37.395" x1="44.907"/>
  <line x2="28.953" y2="-35.284" style="fill-rule:evenodd;clip-rule:evenodd;fill:none;stroke:#00AEEF;stroke-width:0.58;" y1="-37.77" x1="27.584"/>
  <line x2="68.055" y2="-54.961" style="fill-rule:evenodd;clip-rule:evenodd;fill:none;stroke:#00AEEF;stroke-width:0.58;" y1="-52.413" x1="66.806"/>
  <line x2="60.744" y2="-50.769" style="fill-rule:evenodd;clip-rule:evenodd;fill:none;stroke:#00AEEF;stroke-width:0.58;" y1="-50.5" x1="57.919"/>
  <line x2="53.26" y2="-53.097" style="fill-rule:evenodd;clip-rule:evenodd;fill:none;stroke:#00AEEF;stroke-width:0.58;" y1="-51.062" x1="51.282"/>
  <line x2="65.021" y2="-46.459" style="fill-rule:evenodd;clip-rule:evenodd;fill:none;stroke:#00AEEF;stroke-width:0.58;" y1="-43.694" x1="64.388"/>
  <line x2="54.896" y2="-45.887" style="fill-rule:evenodd;clip-rule:evenodd;fill:none;stroke:#00AEEF;stroke-width:0.58;" y1="-45.156" x1="57.638"/>
  <line x2="47.518" y2="-50.093" style="fill-rule:evenodd;clip-rule:evenodd;fill:none;stroke:#00AEEF;stroke-width:0.58;" y1="-47.462" x1="48.582"/>
  <line x2="48.823" y2="-41.312" style="fill-rule:evenodd;clip-rule:evenodd;fill:none;stroke:#00AEEF;stroke-width:0.58;" y1="-42.513" x1="51.394"/>
  <line x2="57.07" y2="-37.943" style="fill-rule:evenodd;clip-rule:evenodd;fill:none;stroke:#00AEEF;stroke-width:0.58;" y1="-39.418" x1="59.494"/>
  <line x2="65.114" y2="-38.787" style="fill-rule:evenodd;clip-rule:evenodd;fill:none;stroke:#00AEEF;stroke-width:0.58;" y1="-37.395" x1="67.586"/>
  <line x2="51.632" y2="-35.284" style="fill-rule:evenodd;clip-rule:evenodd;fill:none;stroke:#00AEEF;stroke-width:0.58;" y1="-37.77" x1="50.263"/>
  <line x2="90.733" y2="-54.961" style="fill-rule:evenodd;clip-rule:evenodd;fill:none;stroke:#00AEEF;stroke-width:0.58;" y1="-52.413" x1="89.485"/>
  <line x2="83.423" y2="-50.769" style="fill-rule:evenodd;clip-rule:evenodd;fill:none;stroke:#00AEEF;stroke-width:0.58;" y1="-50.5" x1="80.598"/>
  <line x2="75.939" y2="-53.097" style="fill-rule:evenodd;clip-rule:evenodd;fill:none;stroke:#00AEEF;stroke-width:0.58;" y1="-51.062" x1="73.961"/>
  <line x2="87.701" y2="-46.459" style="fill-rule:evenodd;clip-rule:evenodd;fill:none;stroke:#00AEEF;stroke-width:0.58;" y1="-43.694" x1="87.067"/>
  <line x2="77.575" y2="-45.887" style="fill-rule:evenodd;clip-rule:evenodd;fill:none;stroke:#00AEEF;stroke-width:0.58;" y1="-45.156" x1="80.317"/>
  <line x2="70.197" y2="-50.093" style="fill-rule:evenodd;clip-rule:evenodd;fill:none;stroke:#00AEEF;stroke-width:0.58;" y1="-47.462" x1="71.261"/>
  <line x2="71.502" y2="-41.312" style="fill-rule:evenodd;clip-rule:evenodd;fill:none;stroke:#00AEEF;stroke-width:0.58;" y1="-42.513" x1="74.073"/>
  <line x2="79.749" y2="-37.943" style="fill-rule:evenodd;clip-rule:evenodd;fill:none;stroke:#00AEEF;stroke-width:0.58;" y1="-39.418" x1="82.173"/>
  <line x2="87.793" y2="-38.787" style="fill-rule:evenodd;clip-rule:evenodd;fill:none;stroke:#00AEEF;stroke-width:0.58;" y1="-37.395" x1="90.265"/>
  <line x2="74.312" y2="-35.284" style="fill-rule:evenodd;clip-rule:evenodd;fill:none;stroke:#00AEEF;stroke-width:0.58;" y1="-37.77" x1="72.942"/>
  <line x2="22.696" y2="-77.64" style="fill-rule:evenodd;clip-rule:evenodd;fill:none;stroke:#00AEEF;stroke-width:0.58;" y1="-75.091" x1="21.448"/>
  <line x2="15.386" y2="-73.448" style="fill-rule:evenodd;clip-rule:evenodd;fill:none;stroke:#00AEEF;stroke-width:0.58;" y1="-73.179" x1="12.561"/>
  <line x2="7.901" y2="-75.776" style="fill-rule:evenodd;clip-rule:evenodd;fill:none;stroke:#00AEEF;stroke-width:0.58;" y1="-73.741" x1="5.923"/>
  <line x2="19.664" y2="-69.139" style="fill-rule:evenodd;clip-rule:evenodd;fill:none;stroke:#00AEEF;stroke-width:0.58;" y1="-66.373" x1="19.029"/>
  <line x2="9.538" y2="-68.566" style="fill-rule:evenodd;clip-rule:evenodd;fill:none;stroke:#00AEEF;stroke-width:0.58;" y1="-67.835" x1="12.279"/>
  <line x2="2.16" y2="-72.772" style="fill-rule:evenodd;clip-rule:evenodd;fill:none;stroke:#00AEEF;stroke-width:0.58;" y1="-70.142" x1="3.224"/>
  <line x2="3.464" y2="-63.992" style="fill-rule:evenodd;clip-rule:evenodd;fill:none;stroke:#00AEEF;stroke-width:0.58;" y1="-65.191" x1="6.036"/>
  <line x2="11.712" y2="-60.623" style="fill-rule:evenodd;clip-rule:evenodd;fill:none;stroke:#00AEEF;stroke-width:0.58;" y1="-62.098" x1="14.136"/>
  <line x2="19.756" y2="-61.466" style="fill-rule:evenodd;clip-rule:evenodd;fill:none;stroke:#00AEEF;stroke-width:0.58;" y1="-60.074" x1="22.228"/>
  <line x2="6.274" y2="-57.963" style="fill-rule:evenodd;clip-rule:evenodd;fill:none;stroke:#00AEEF;stroke-width:0.58;" y1="-60.449" x1="4.905"/>
  <line x2="45.375" y2="-77.64" style="fill-rule:evenodd;clip-rule:evenodd;fill:none;stroke:#00AEEF;stroke-width:0.58;" y1="-75.091" x1="44.127"/>
  <line x2="38.065" y2="-73.448" style="fill-rule:evenodd;clip-rule:evenodd;fill:none;stroke:#00AEEF;stroke-width:0.58;" y1="-73.179" x1="35.24"/>
  <line x2="30.581" y2="-75.776" style="fill-rule:evenodd;clip-rule:evenodd;fill:none;stroke:#00AEEF;stroke-width:0.58;" y1="-73.741" x1="28.603"/>
  <line x2="42.343" y2="-69.139" style="fill-rule:evenodd;clip-rule:evenodd;fill:none;stroke:#00AEEF;stroke-width:0.58;" y1="-66.373" x1="41.708"/>
  <line x2="32.217" y2="-68.566" style="fill-rule:evenodd;clip-rule:evenodd;fill:none;stroke:#00AEEF;stroke-width:0.58;" y1="-67.835" x1="34.958"/>
  <line x2="24.839" y2="-72.772" style="fill-rule:evenodd;clip-rule:evenodd;fill:none;stroke:#00AEEF;stroke-width:0.58;" y1="-70.142" x1="25.902"/>
  <line x2="26.144" y2="-63.992" style="fill-rule:evenodd;clip-rule:evenodd;fill:none;stroke:#00AEEF;stroke-width:0.58;" y1="-65.191" x1="28.715"/>
  <line x2="34.391" y2="-60.623" style="fill-rule:evenodd;clip-rule:evenodd;fill:none;stroke:#00AEEF;stroke-width:0.58;" y1="-62.098" x1="36.815"/>
  <line x2="42.435" y2="-61.466" style="fill-rule:evenodd;clip-rule:evenodd;fill:none;stroke:#00AEEF;stroke-width:0.58;" y1="-60.074" x1="44.907"/>
  <line x2="28.953" y2="-57.963" style="fill-rule:evenodd;clip-rule:evenodd;fill:none;stroke:#00AEEF;stroke-width:0.58;" y1="-60.449" x1="27.584"/>
  <line x2="68.055" y2="-77.64" style="fill-rule:evenodd;clip-rule:evenodd;fill:none;stroke:#00AEEF;stroke-width:0.58;" y1="-75.091" x1="66.806"/>
  <line x2="60.744" y2="-73.448" style="fill-rule:evenodd;clip-rule:evenodd;fill:none;stroke:#00AEEF;stroke-width:0.58;" y1="-73.179" x1="57.919"/>
  <line x2="53.26" y2="-75.776" style="fill-rule:evenodd;clip-rule:evenodd;fill:none;stroke:#00AEEF;stroke-width:0.58;" y1="-73.741" x1="51.282"/>
  <line x2="65.021" y2="-69.139" style="fill-rule:evenodd;clip-rule:evenodd;fill:none;stroke:#00AEEF;stroke-width:0.58;" y1="-66.373" x1="64.388"/>
  <line x2="54.896" y2="-68.566" style="fill-rule:evenodd;clip-rule:evenodd;fill:none;stroke:#00AEEF;stroke-width:0.58;" y1="-67.835" x1="57.638"/>
  <line x2="47.518" y2="-72.772" style="fill-rule:evenodd;clip-rule:evenodd;fill:none;stroke:#00AEEF;stroke-width:0.58;" y1="-70.142" x1="48.582"/>
  <line x2="48.823" y2="-63.992" style="fill-rule:evenodd;clip-rule:evenodd;fill:none;stroke:#00AEEF;stroke-width:0.58;" y1="-65.191" x1="51.394"/>
  <line x2="57.07" y2="-60.623" style="fill-rule:evenodd;clip-rule:evenodd;fill:none;stroke:#00AEEF;stroke-width:0.58;" y1="-62.098" x1="59.494"/>
  <line x2="65.114" y2="-61.466" style="fill-rule:evenodd;clip-rule:evenodd;fill:none;stroke:#00AEEF;stroke-width:0.58;" y1="-60.074" x1="67.586"/>
  <line x2="51.632" y2="-57.963" style="fill-rule:evenodd;clip-rule:evenodd;fill:none;stroke:#00AEEF;stroke-width:0.58;" y1="-60.449" x1="50.263"/>
  <line x2="90.733" y2="-77.64" style="fill-rule:evenodd;clip-rule:evenodd;fill:none;stroke:#00AEEF;stroke-width:0.58;" y1="-75.091" x1="89.485"/>
  <line x2="83.423" y2="-73.448" style="fill-rule:evenodd;clip-rule:evenodd;fill:none;stroke:#00AEEF;stroke-width:0.58;" y1="-73.179" x1="80.598"/>
  <line x2="75.939" y2="-75.776" style="fill-rule:evenodd;clip-rule:evenodd;fill:none;stroke:#00AEEF;stroke-width:0.58;" y1="-73.741" x1="73.961"/>
  <line x2="87.701" y2="-69.139" style="fill-rule:evenodd;clip-rule:evenodd;fill:none;stroke:#00AEEF;stroke-width:0.58;" y1="-66.373" x1="87.067"/>
  <line x2="77.575" y2="-68.566" style="fill-rule:evenodd;clip-rule:evenodd;fill:none;stroke:#00AEEF;stroke-width:0.58;" y1="-67.835" x1="80.317"/>
  <line x2="70.197" y2="-72.772" style="fill-rule:evenodd;clip-rule:evenodd;fill:none;stroke:#00AEEF;stroke-width:0.58;" y1="-70.142" x1="71.261"/>
  <line x2="71.502" y2="-63.992" style="fill-rule:evenodd;clip-rule:evenodd;fill:none;stroke:#00AEEF;stroke-width:0.58;" y1="-65.191" x1="74.073"/>
  <line x2="79.749" y2="-60.623" style="fill-rule:evenodd;clip-rule:evenodd;fill:none;stroke:#00AEEF;stroke-width:0.58;" y1="-62.098" x1="82.173"/>
  <line x2="87.793" y2="-61.466" style="fill-rule:evenodd;clip-rule:evenodd;fill:none;stroke:#00AEEF;stroke-width:0.58;" y1="-60.074" x1="90.265"/>
  <line x2="74.312" y2="-57.963" style="fill-rule:evenodd;clip-rule:evenodd;fill:none;stroke:#00AEEF;stroke-width:0.58;" y1="-60.449" x1="72.942"/>
  <line x2="19.664" y2="-91.818" style="fill-rule:evenodd;clip-rule:evenodd;fill:none;stroke:#00AEEF;stroke-width:0.58;" y1="-89.052" x1="19.029"/>
  <line x2="12.279" y2="-90.514" style="fill-rule:evenodd;clip-rule:evenodd;fill:none;stroke:#00AEEF;stroke-width:0.58;" y1="-91.245" x1="9.538"/>
  <line x2="3.464" y2="-86.67" style="fill-rule:evenodd;clip-rule:evenodd;fill:none;stroke:#00AEEF;stroke-width:0.58;" y1="-87.871" x1="6.036"/>
  <line x2="11.712" y2="-83.301" style="fill-rule:evenodd;clip-rule:evenodd;fill:none;stroke:#00AEEF;stroke-width:0.58;" y1="-84.777" x1="14.136"/>
  <line x2="19.756" y2="-84.145" style="fill-rule:evenodd;clip-rule:evenodd;fill:none;stroke:#00AEEF;stroke-width:0.58;" y1="-82.753" x1="22.228"/>
  <line x2="6.274" y2="-80.643" style="fill-rule:evenodd;clip-rule:evenodd;fill:none;stroke:#00AEEF;stroke-width:0.58;" y1="-83.127" x1="4.905"/>
  <line x2="42.343" y2="-91.818" style="fill-rule:evenodd;clip-rule:evenodd;fill:none;stroke:#00AEEF;stroke-width:0.58;" y1="-89.052" x1="41.708"/>
  <line x2="34.958" y2="-90.514" style="fill-rule:evenodd;clip-rule:evenodd;fill:none;stroke:#00AEEF;stroke-width:0.58;" y1="-91.245" x1="32.217"/>
  <line x2="26.144" y2="-86.67" style="fill-rule:evenodd;clip-rule:evenodd;fill:none;stroke:#00AEEF;stroke-width:0.58;" y1="-87.871" x1="28.715"/>
  <line x2="34.391" y2="-83.301" style="fill-rule:evenodd;clip-rule:evenodd;fill:none;stroke:#00AEEF;stroke-width:0.58;" y1="-84.777" x1="36.815"/>
  <line x2="42.435" y2="-84.145" style="fill-rule:evenodd;clip-rule:evenodd;fill:none;stroke:#00AEEF;stroke-width:0.58;" y1="-82.753" x1="44.907"/>
  <line x2="28.953" y2="-80.643" style="fill-rule:evenodd;clip-rule:evenodd;fill:none;stroke:#00AEEF;stroke-width:0.58;" y1="-83.127" x1="27.584"/>
  <line x2="65.021" y2="-91.818" style="fill-rule:evenodd;clip-rule:evenodd;fill:none;stroke:#00AEEF;stroke-width:0.58;" y1="-89.052" x1="64.388"/>
  <line x2="57.638" y2="-90.514" style="fill-rule:evenodd;clip-rule:evenodd;fill:none;stroke:#00AEEF;stroke-width:0.58;" y1="-91.245" x1="54.896"/>
  <line x2="48.823" y2="-86.67" style="fill-rule:evenodd;clip-rule:evenodd;fill:none;stroke:#00AEEF;stroke-width:0.58;" y1="-87.871" x1="51.394"/>
  <line x2="57.07" y2="-83.301" style="fill-rule:evenodd;clip-rule:evenodd;fill:none;stroke:#00AEEF;stroke-width:0.58;" y1="-84.777" x1="59.494"/>
  <line x2="65.114" y2="-84.145" style="fill-rule:evenodd;clip-rule:evenodd;fill:none;stroke:#00AEEF;stroke-width:0.58;" y1="-82.753" x1="67.586"/>
  <line x2="51.632" y2="-80.643" style="fill-rule:evenodd;clip-rule:evenodd;fill:none;stroke:#00AEEF;stroke-width:0.58;" y1="-83.127" x1="50.263"/>
  <line x2="87.701" y2="-91.818" style="fill-rule:evenodd;clip-rule:evenodd;fill:none;stroke:#00AEEF;stroke-width:0.58;" y1="-89.052" x1="87.067"/>
  <line x2="80.317" y2="-90.514" style="fill-rule:evenodd;clip-rule:evenodd;fill:none;stroke:#00AEEF;stroke-width:0.58;" y1="-91.245" x1="77.575"/>
  <line x2="71.502" y2="-86.67" style="fill-rule:evenodd;clip-rule:evenodd;fill:none;stroke:#00AEEF;stroke-width:0.58;" y1="-87.871" x1="74.073"/>
  <line x2="79.749" y2="-83.301" style="fill-rule:evenodd;clip-rule:evenodd;fill:none;stroke:#00AEEF;stroke-width:0.58;" y1="-84.777" x1="82.173"/>
  <line x2="87.793" y2="-84.145" style="fill-rule:evenodd;clip-rule:evenodd;fill:none;stroke:#00AEEF;stroke-width:0.58;" y1="-82.753" x1="90.265"/>
  <line x2="74.312" y2="-80.643" style="fill-rule:evenodd;clip-rule:evenodd;fill:none;stroke:#00AEEF;stroke-width:0.58;" y1="-83.127" x1="72.942"/>
  <line x2="39.17" y2="-35.032" style="fill-rule:evenodd;clip-rule:evenodd;fill:none;stroke:#00AEEF;stroke-width:0.58;" y1="-32.18" x1="38.628"/>
  <line x2="61.849" y2="-35.032" style="fill-rule:evenodd;clip-rule:evenodd;fill:none;stroke:#00AEEF;stroke-width:0.58;" y1="-32.18" x1="61.307"/>
  <line x2="84.528" y2="-35.032" style="fill-rule:evenodd;clip-rule:evenodd;fill:none;stroke:#00AEEF;stroke-width:0.58;" y1="-32.18" x1="83.986"/>
  <line x2="84.528" y2="-57.711" style="fill-rule:evenodd;clip-rule:evenodd;fill:none;stroke:#00AEEF;stroke-width:0.58;" y1="-54.859" x1="83.986"/>
  <line x2="61.849" y2="-57.711" style="fill-rule:evenodd;clip-rule:evenodd;fill:none;stroke:#00AEEF;stroke-width:0.58;" y1="-54.859" x1="61.307"/>
  <line x2="39.17" y2="-57.711" style="fill-rule:evenodd;clip-rule:evenodd;fill:none;stroke:#00AEEF;stroke-width:0.58;" y1="-54.859" x1="38.628"/>
  <line x2="16.491" y2="-57.711" style="fill-rule:evenodd;clip-rule:evenodd;fill:none;stroke:#00AEEF;stroke-width:0.58;" y1="-54.859" x1="15.949"/>
  <line x2="16.491" y2="-80.39" style="fill-rule:evenodd;clip-rule:evenodd;fill:none;stroke:#00AEEF;stroke-width:0.58;" y1="-77.538" x1="15.949"/>
  <line x2="39.17" y2="-80.39" style="fill-rule:evenodd;clip-rule:evenodd;fill:none;stroke:#00AEEF;stroke-width:0.58;" y1="-77.538" x1="38.628"/>
  <line x2="61.849" y2="-80.39" style="fill-rule:evenodd;clip-rule:evenodd;fill:none;stroke:#00AEEF;stroke-width:0.58;" y1="-77.538" x1="61.307"/>
  <line x2="84.528" y2="-80.39" style="fill-rule:evenodd;clip-rule:evenodd;fill:none;stroke:#00AEEF;stroke-width:0.58;" y1="-77.538" x1="83.986"/>
  <line x2="16.266" y2="-11.235" style="fill-rule:evenodd;clip-rule:evenodd;fill:none;stroke:#00AEEF;stroke-width:0.58;" y1="-12.422" x1="16.491"/>
  <line x2="38.945" y2="-11.235" style="fill-rule:evenodd;clip-rule:evenodd;fill:none;stroke:#00AEEF;stroke-width:0.58;" y1="-12.422" x1="39.17"/>
  <line x2="61.624" y2="-11.235" style="fill-rule:evenodd;clip-rule:evenodd;fill:none;stroke:#00AEEF;stroke-width:0.58;" y1="-12.422" x1="61.849"/>
  <line x2="84.303" y2="-11.235" style="fill-rule:evenodd;clip-rule:evenodd;fill:none;stroke:#00AEEF;stroke-width:0.58;" y1="-12.422" x1="84.528"/>
  <line x2="22.696" y2="-9.658" style="fill-rule:evenodd;clip-rule:evenodd;fill:none;stroke:#00AEEF;stroke-width:0.58;" y1="-7.109" x1="21.448"/>
  <line x2="15.386" y2="-5.467" style="fill-rule:evenodd;clip-rule:evenodd;fill:none;stroke:#00AEEF;stroke-width:0.58;" y1="-5.197" x1="12.561"/>
  <line x2="7.901" y2="-7.795" style="fill-rule:evenodd;clip-rule:evenodd;fill:none;stroke:#00AEEF;stroke-width:0.58;" y1="-5.76" x1="5.923"/>
  <line x2="3.224" y2="-2.16" style="fill-rule:evenodd;clip-rule:evenodd;fill:none;stroke:#00AEEF;stroke-width:0.58;" y1="-4.791" x1="2.16"/>
  <line x2="45.375" y2="-9.658" style="fill-rule:evenodd;clip-rule:evenodd;fill:none;stroke:#00AEEF;stroke-width:0.58;" y1="-7.109" x1="44.127"/>
  <line x2="38.065" y2="-5.467" style="fill-rule:evenodd;clip-rule:evenodd;fill:none;stroke:#00AEEF;stroke-width:0.58;" y1="-5.197" x1="35.24"/>
  <line x2="30.581" y2="-7.795" style="fill-rule:evenodd;clip-rule:evenodd;fill:none;stroke:#00AEEF;stroke-width:0.58;" y1="-5.76" x1="28.603"/>
  <line x2="25.902" y2="-2.16" style="fill-rule:evenodd;clip-rule:evenodd;fill:none;stroke:#00AEEF;stroke-width:0.58;" y1="-4.791" x1="24.839"/>
  <line x2="68.055" y2="-9.658" style="fill-rule:evenodd;clip-rule:evenodd;fill:none;stroke:#00AEEF;stroke-width:0.58;" y1="-7.109" x1="66.806"/>
  <line x2="60.744" y2="-5.467" style="fill-rule:evenodd;clip-rule:evenodd;fill:none;stroke:#00AEEF;stroke-width:0.58;" y1="-5.197" x1="57.919"/>
  <line x2="53.26" y2="-7.795" style="fill-rule:evenodd;clip-rule:evenodd;fill:none;stroke:#00AEEF;stroke-width:0.58;" y1="-5.76" x1="51.282"/>
  <line x2="48.582" y2="-2.16" style="fill-rule:evenodd;clip-rule:evenodd;fill:none;stroke:#00AEEF;stroke-width:0.58;" y1="-4.791" x1="47.518"/>
  <line x2="90.733" y2="-9.658" style="fill-rule:evenodd;clip-rule:evenodd;fill:none;stroke:#00AEEF;stroke-width:0.58;" y1="-7.109" x1="89.485"/>
  <line x2="83.423" y2="-5.467" style="fill-rule:evenodd;clip-rule:evenodd;fill:none;stroke:#00AEEF;stroke-width:0.58;" y1="-5.197" x1="80.598"/>
  <line x2="75.939" y2="-7.795" style="fill-rule:evenodd;clip-rule:evenodd;fill:none;stroke:#00AEEF;stroke-width:0.58;" y1="-5.76" x1="73.961"/>
  <line x2="71.261" y2="-2.16" style="fill-rule:evenodd;clip-rule:evenodd;fill:none;stroke:#00AEEF;stroke-width:0.58;" y1="-4.791" x1="70.197"/>
  <line x2="15.949" y2="-9.557" style="fill-rule:evenodd;clip-rule:evenodd;fill:none;stroke:#00AEEF;stroke-width:0.58;" y1="-11.223" x1="16.266"/>
  <line x2="38.628" y2="-9.557" style="fill-rule:evenodd;clip-rule:evenodd;fill:none;stroke:#00AEEF;stroke-width:0.58;" y1="-11.223" x1="38.945"/>
  <line x2="61.307" y2="-9.557" style="fill-rule:evenodd;clip-rule:evenodd;fill:none;stroke:#00AEEF;stroke-width:0.58;" y1="-11.223" x1="61.624"/>
  <line x2="83.986" y2="-9.557" style="fill-rule:evenodd;clip-rule:evenodd;fill:none;stroke:#00AEEF;stroke-width:0.58;" y1="-11.223" x1="84.303"/>
 </g>
</svg>
