<?xml version="1.0"?>
<!-- Converted with SVG Converter - Version 0.9.5 (Compiled Fri Feb 21 09:53:38 2020) - Copyright (C) 2011 Nokia -->
<svg xmlns="http://www.w3.org/2000/svg" width="90.647" version="1.1" viewBox="1.084 -92.389 90.647 90.647" baseProfile="tiny" x="0px" xml:space="preserve" xmlns:xlink="http://www.w3.org/1999/xlink" y="0px" height="90.647">
 <g>
  <rect width="90.647" style="fill:none;" x="1.084" y="-92.389" height="90.647"/>
  <rect width="90.647" x="1.084" y="-92.389" height="90.647"/>
  <line x1="21.448" style="fill-rule:evenodd;clip-rule:evenodd;fill:none;stroke:#FFFFFF;stroke-width:0.58;" y2="-32.281" y1="-29.733" x2="22.696"/>
  <line x1="12.561" style="fill-rule:evenodd;clip-rule:evenodd;fill:none;stroke:#FFFFFF;stroke-width:0.58;" y2="-28.09" y1="-27.82" x2="15.386"/>
  <line x1="5.923" style="fill-rule:evenodd;clip-rule:evenodd;fill:none;stroke:#FFFFFF;stroke-width:0.58;" y2="-30.418" y1="-28.383" x2="7.901"/>
  <line x1="19.664" style="fill-rule:evenodd;clip-rule:evenodd;fill:none;stroke:#FFFFFF;stroke-width:0.58;" y2="-21.015" y1="-23.78" x2="19.029"/>
  <line x1="12.279" style="fill-rule:evenodd;clip-rule:evenodd;fill:none;stroke:#FFFFFF;stroke-width:0.58;" y2="-23.208" y1="-22.478" x2="9.538"/>
  <line x1="3.224" style="fill-rule:evenodd;clip-rule:evenodd;fill:none;stroke:#FFFFFF;stroke-width:0.58;" y2="-27.414" y1="-24.783" x2="2.16"/>
  <line x1="6.036" style="fill-rule:evenodd;clip-rule:evenodd;fill:none;stroke:#FFFFFF;stroke-width:0.58;" y2="-18.634" y1="-19.833" x2="3.464"/>
  <line x1="14.136" style="fill-rule:evenodd;clip-rule:evenodd;fill:none;stroke:#FFFFFF;stroke-width:0.58;" y2="-15.265" y1="-16.739" x2="11.712"/>
  <line x1="22.228" style="fill-rule:evenodd;clip-rule:evenodd;fill:none;stroke:#FFFFFF;stroke-width:0.58;" y2="-16.108" y1="-14.716" x2="19.756"/>
  <line x1="6.274" style="fill-rule:evenodd;clip-rule:evenodd;fill:none;stroke:#FFFFFF;stroke-width:0.58;" y2="-15.091" y1="-12.606" x2="4.905"/>
  <line x1="44.127" style="fill-rule:evenodd;clip-rule:evenodd;fill:none;stroke:#FFFFFF;stroke-width:0.58;" y2="-32.281" y1="-29.733" x2="45.375"/>
  <line x1="35.24" style="fill-rule:evenodd;clip-rule:evenodd;fill:none;stroke:#FFFFFF;stroke-width:0.58;" y2="-28.09" y1="-27.82" x2="38.065"/>
  <line x1="28.603" style="fill-rule:evenodd;clip-rule:evenodd;fill:none;stroke:#FFFFFF;stroke-width:0.58;" y2="-30.418" y1="-28.383" x2="30.581"/>
  <line x1="42.343" style="fill-rule:evenodd;clip-rule:evenodd;fill:none;stroke:#FFFFFF;stroke-width:0.58;" y2="-21.015" y1="-23.78" x2="41.708"/>
  <line x1="34.958" style="fill-rule:evenodd;clip-rule:evenodd;fill:none;stroke:#FFFFFF;stroke-width:0.58;" y2="-23.208" y1="-22.478" x2="32.217"/>
  <line x1="25.902" style="fill-rule:evenodd;clip-rule:evenodd;fill:none;stroke:#FFFFFF;stroke-width:0.58;" y2="-27.414" y1="-24.783" x2="24.839"/>
  <line x1="28.715" style="fill-rule:evenodd;clip-rule:evenodd;fill:none;stroke:#FFFFFF;stroke-width:0.58;" y2="-18.634" y1="-19.833" x2="26.144"/>
  <line x1="36.815" style="fill-rule:evenodd;clip-rule:evenodd;fill:none;stroke:#FFFFFF;stroke-width:0.58;" y2="-15.265" y1="-16.739" x2="34.391"/>
  <line x1="44.907" style="fill-rule:evenodd;clip-rule:evenodd;fill:none;stroke:#FFFFFF;stroke-width:0.58;" y2="-16.108" y1="-14.716" x2="42.435"/>
  <line x1="28.953" style="fill-rule:evenodd;clip-rule:evenodd;fill:none;stroke:#FFFFFF;stroke-width:0.58;" y2="-15.091" y1="-12.606" x2="27.584"/>
  <line x1="66.806" style="fill-rule:evenodd;clip-rule:evenodd;fill:none;stroke:#FFFFFF;stroke-width:0.58;" y2="-32.281" y1="-29.733" x2="68.055"/>
  <line x1="57.919" style="fill-rule:evenodd;clip-rule:evenodd;fill:none;stroke:#FFFFFF;stroke-width:0.58;" y2="-28.09" y1="-27.82" x2="60.744"/>
  <line x1="51.282" style="fill-rule:evenodd;clip-rule:evenodd;fill:none;stroke:#FFFFFF;stroke-width:0.58;" y2="-30.418" y1="-28.383" x2="53.26"/>
  <line x1="65.021" style="fill-rule:evenodd;clip-rule:evenodd;fill:none;stroke:#FFFFFF;stroke-width:0.58;" y2="-21.015" y1="-23.78" x2="64.388"/>
  <line x1="57.638" style="fill-rule:evenodd;clip-rule:evenodd;fill:none;stroke:#FFFFFF;stroke-width:0.58;" y2="-23.208" y1="-22.478" x2="54.896"/>
  <line x1="48.582" style="fill-rule:evenodd;clip-rule:evenodd;fill:none;stroke:#FFFFFF;stroke-width:0.58;" y2="-27.414" y1="-24.783" x2="47.518"/>
  <line x1="51.394" style="fill-rule:evenodd;clip-rule:evenodd;fill:none;stroke:#FFFFFF;stroke-width:0.58;" y2="-18.634" y1="-19.833" x2="48.823"/>
  <line x1="59.494" style="fill-rule:evenodd;clip-rule:evenodd;fill:none;stroke:#FFFFFF;stroke-width:0.58;" y2="-15.265" y1="-16.739" x2="57.07"/>
  <line x1="67.586" style="fill-rule:evenodd;clip-rule:evenodd;fill:none;stroke:#FFFFFF;stroke-width:0.58;" y2="-16.108" y1="-14.716" x2="65.114"/>
  <line x1="51.632" style="fill-rule:evenodd;clip-rule:evenodd;fill:none;stroke:#FFFFFF;stroke-width:0.58;" y2="-15.091" y1="-12.606" x2="50.263"/>
  <line x1="89.485" style="fill-rule:evenodd;clip-rule:evenodd;fill:none;stroke:#FFFFFF;stroke-width:0.58;" y2="-32.281" y1="-29.733" x2="90.733"/>
  <line x1="80.598" style="fill-rule:evenodd;clip-rule:evenodd;fill:none;stroke:#FFFFFF;stroke-width:0.58;" y2="-28.09" y1="-27.82" x2="83.423"/>
  <line x1="73.961" style="fill-rule:evenodd;clip-rule:evenodd;fill:none;stroke:#FFFFFF;stroke-width:0.58;" y2="-30.418" y1="-28.383" x2="75.939"/>
  <line x1="87.701" style="fill-rule:evenodd;clip-rule:evenodd;fill:none;stroke:#FFFFFF;stroke-width:0.58;" y2="-21.015" y1="-23.78" x2="87.067"/>
  <line x1="80.317" style="fill-rule:evenodd;clip-rule:evenodd;fill:none;stroke:#FFFFFF;stroke-width:0.58;" y2="-23.208" y1="-22.478" x2="77.575"/>
  <line x1="71.261" style="fill-rule:evenodd;clip-rule:evenodd;fill:none;stroke:#FFFFFF;stroke-width:0.58;" y2="-27.414" y1="-24.783" x2="70.197"/>
  <line x1="74.073" style="fill-rule:evenodd;clip-rule:evenodd;fill:none;stroke:#FFFFFF;stroke-width:0.58;" y2="-18.634" y1="-19.833" x2="71.502"/>
  <line x1="82.173" style="fill-rule:evenodd;clip-rule:evenodd;fill:none;stroke:#FFFFFF;stroke-width:0.58;" y2="-15.265" y1="-16.739" x2="79.749"/>
  <line x1="90.265" style="fill-rule:evenodd;clip-rule:evenodd;fill:none;stroke:#FFFFFF;stroke-width:0.58;" y2="-16.108" y1="-14.716" x2="87.793"/>
  <line x1="74.312" style="fill-rule:evenodd;clip-rule:evenodd;fill:none;stroke:#FFFFFF;stroke-width:0.58;" y2="-15.091" y1="-12.606" x2="72.942"/>
  <line x1="21.448" style="fill-rule:evenodd;clip-rule:evenodd;fill:none;stroke:#FFFFFF;stroke-width:0.58;" y2="-54.961" y1="-52.413" x2="22.696"/>
  <line x1="12.561" style="fill-rule:evenodd;clip-rule:evenodd;fill:none;stroke:#FFFFFF;stroke-width:0.58;" y2="-50.769" y1="-50.5" x2="15.386"/>
  <line x1="5.923" style="fill-rule:evenodd;clip-rule:evenodd;fill:none;stroke:#FFFFFF;stroke-width:0.58;" y2="-53.097" y1="-51.062" x2="7.901"/>
  <line x1="19.029" style="fill-rule:evenodd;clip-rule:evenodd;fill:none;stroke:#FFFFFF;stroke-width:0.58;" y2="-46.459" y1="-43.694" x2="19.664"/>
  <line x1="12.279" style="fill-rule:evenodd;clip-rule:evenodd;fill:none;stroke:#FFFFFF;stroke-width:0.58;" y2="-45.887" y1="-45.156" x2="9.538"/>
  <line x1="3.224" style="fill-rule:evenodd;clip-rule:evenodd;fill:none;stroke:#FFFFFF;stroke-width:0.58;" y2="-50.093" y1="-47.462" x2="2.16"/>
  <line x1="6.036" style="fill-rule:evenodd;clip-rule:evenodd;fill:none;stroke:#FFFFFF;stroke-width:0.58;" y2="-41.312" y1="-42.513" x2="3.464"/>
  <line x1="14.136" style="fill-rule:evenodd;clip-rule:evenodd;fill:none;stroke:#FFFFFF;stroke-width:0.58;" y2="-37.943" y1="-39.418" x2="11.712"/>
  <line x1="22.228" style="fill-rule:evenodd;clip-rule:evenodd;fill:none;stroke:#FFFFFF;stroke-width:0.58;" y2="-38.787" y1="-37.395" x2="19.756"/>
  <line x1="15.949" style="fill-rule:evenodd;clip-rule:evenodd;fill:none;stroke:#FFFFFF;stroke-width:0.58;" y2="-35.032" y1="-32.18" x2="16.491"/>
  <line x1="4.905" style="fill-rule:evenodd;clip-rule:evenodd;fill:none;stroke:#FFFFFF;stroke-width:0.58;" y2="-35.284" y1="-37.77" x2="6.274"/>
  <line x1="44.127" style="fill-rule:evenodd;clip-rule:evenodd;fill:none;stroke:#FFFFFF;stroke-width:0.58;" y2="-54.961" y1="-52.413" x2="45.375"/>
  <line x1="35.24" style="fill-rule:evenodd;clip-rule:evenodd;fill:none;stroke:#FFFFFF;stroke-width:0.58;" y2="-50.769" y1="-50.5" x2="38.065"/>
  <line x1="28.603" style="fill-rule:evenodd;clip-rule:evenodd;fill:none;stroke:#FFFFFF;stroke-width:0.58;" y2="-53.097" y1="-51.062" x2="30.581"/>
  <line x1="41.708" style="fill-rule:evenodd;clip-rule:evenodd;fill:none;stroke:#FFFFFF;stroke-width:0.58;" y2="-46.459" y1="-43.694" x2="42.343"/>
  <line x1="34.958" style="fill-rule:evenodd;clip-rule:evenodd;fill:none;stroke:#FFFFFF;stroke-width:0.58;" y2="-45.887" y1="-45.156" x2="32.217"/>
  <line x1="25.902" style="fill-rule:evenodd;clip-rule:evenodd;fill:none;stroke:#FFFFFF;stroke-width:0.58;" y2="-50.093" y1="-47.462" x2="24.839"/>
  <line x1="28.715" style="fill-rule:evenodd;clip-rule:evenodd;fill:none;stroke:#FFFFFF;stroke-width:0.58;" y2="-41.312" y1="-42.513" x2="26.144"/>
  <line x1="36.815" style="fill-rule:evenodd;clip-rule:evenodd;fill:none;stroke:#FFFFFF;stroke-width:0.58;" y2="-37.943" y1="-39.418" x2="34.391"/>
  <line x1="44.907" style="fill-rule:evenodd;clip-rule:evenodd;fill:none;stroke:#FFFFFF;stroke-width:0.58;" y2="-38.787" y1="-37.395" x2="42.435"/>
  <line x1="27.584" style="fill-rule:evenodd;clip-rule:evenodd;fill:none;stroke:#FFFFFF;stroke-width:0.58;" y2="-35.284" y1="-37.77" x2="28.953"/>
  <line x1="66.806" style="fill-rule:evenodd;clip-rule:evenodd;fill:none;stroke:#FFFFFF;stroke-width:0.58;" y2="-54.961" y1="-52.413" x2="68.055"/>
  <line x1="57.919" style="fill-rule:evenodd;clip-rule:evenodd;fill:none;stroke:#FFFFFF;stroke-width:0.58;" y2="-50.769" y1="-50.5" x2="60.744"/>
  <line x1="51.282" style="fill-rule:evenodd;clip-rule:evenodd;fill:none;stroke:#FFFFFF;stroke-width:0.58;" y2="-53.097" y1="-51.062" x2="53.26"/>
  <line x1="64.388" style="fill-rule:evenodd;clip-rule:evenodd;fill:none;stroke:#FFFFFF;stroke-width:0.58;" y2="-46.459" y1="-43.694" x2="65.021"/>
  <line x1="57.638" style="fill-rule:evenodd;clip-rule:evenodd;fill:none;stroke:#FFFFFF;stroke-width:0.58;" y2="-45.887" y1="-45.156" x2="54.896"/>
  <line x1="48.582" style="fill-rule:evenodd;clip-rule:evenodd;fill:none;stroke:#FFFFFF;stroke-width:0.58;" y2="-50.093" y1="-47.462" x2="47.518"/>
  <line x1="51.394" style="fill-rule:evenodd;clip-rule:evenodd;fill:none;stroke:#FFFFFF;stroke-width:0.58;" y2="-41.312" y1="-42.513" x2="48.823"/>
  <line x1="59.494" style="fill-rule:evenodd;clip-rule:evenodd;fill:none;stroke:#FFFFFF;stroke-width:0.58;" y2="-37.943" y1="-39.418" x2="57.07"/>
  <line x1="67.586" style="fill-rule:evenodd;clip-rule:evenodd;fill:none;stroke:#FFFFFF;stroke-width:0.58;" y2="-38.787" y1="-37.395" x2="65.114"/>
  <line x1="50.263" style="fill-rule:evenodd;clip-rule:evenodd;fill:none;stroke:#FFFFFF;stroke-width:0.58;" y2="-35.284" y1="-37.77" x2="51.632"/>
  <line x1="89.485" style="fill-rule:evenodd;clip-rule:evenodd;fill:none;stroke:#FFFFFF;stroke-width:0.58;" y2="-54.961" y1="-52.413" x2="90.733"/>
  <line x1="80.598" style="fill-rule:evenodd;clip-rule:evenodd;fill:none;stroke:#FFFFFF;stroke-width:0.58;" y2="-50.769" y1="-50.5" x2="83.423"/>
  <line x1="73.961" style="fill-rule:evenodd;clip-rule:evenodd;fill:none;stroke:#FFFFFF;stroke-width:0.58;" y2="-53.097" y1="-51.062" x2="75.939"/>
  <line x1="87.067" style="fill-rule:evenodd;clip-rule:evenodd;fill:none;stroke:#FFFFFF;stroke-width:0.58;" y2="-46.459" y1="-43.694" x2="87.701"/>
  <line x1="80.317" style="fill-rule:evenodd;clip-rule:evenodd;fill:none;stroke:#FFFFFF;stroke-width:0.58;" y2="-45.887" y1="-45.156" x2="77.575"/>
  <line x1="71.261" style="fill-rule:evenodd;clip-rule:evenodd;fill:none;stroke:#FFFFFF;stroke-width:0.58;" y2="-50.093" y1="-47.462" x2="70.197"/>
  <line x1="74.073" style="fill-rule:evenodd;clip-rule:evenodd;fill:none;stroke:#FFFFFF;stroke-width:0.58;" y2="-41.312" y1="-42.513" x2="71.502"/>
  <line x1="82.173" style="fill-rule:evenodd;clip-rule:evenodd;fill:none;stroke:#FFFFFF;stroke-width:0.58;" y2="-37.943" y1="-39.418" x2="79.749"/>
  <line x1="90.265" style="fill-rule:evenodd;clip-rule:evenodd;fill:none;stroke:#FFFFFF;stroke-width:0.58;" y2="-38.787" y1="-37.395" x2="87.793"/>
  <line x1="72.942" style="fill-rule:evenodd;clip-rule:evenodd;fill:none;stroke:#FFFFFF;stroke-width:0.58;" y2="-35.284" y1="-37.77" x2="74.312"/>
  <line x1="21.448" style="fill-rule:evenodd;clip-rule:evenodd;fill:none;stroke:#FFFFFF;stroke-width:0.58;" y2="-77.64" y1="-75.091" x2="22.696"/>
  <line x1="12.561" style="fill-rule:evenodd;clip-rule:evenodd;fill:none;stroke:#FFFFFF;stroke-width:0.58;" y2="-73.448" y1="-73.179" x2="15.386"/>
  <line x1="5.923" style="fill-rule:evenodd;clip-rule:evenodd;fill:none;stroke:#FFFFFF;stroke-width:0.58;" y2="-75.776" y1="-73.741" x2="7.901"/>
  <line x1="19.029" style="fill-rule:evenodd;clip-rule:evenodd;fill:none;stroke:#FFFFFF;stroke-width:0.58;" y2="-69.139" y1="-66.373" x2="19.664"/>
  <line x1="12.279" style="fill-rule:evenodd;clip-rule:evenodd;fill:none;stroke:#FFFFFF;stroke-width:0.58;" y2="-68.566" y1="-67.835" x2="9.538"/>
  <line x1="3.224" style="fill-rule:evenodd;clip-rule:evenodd;fill:none;stroke:#FFFFFF;stroke-width:0.58;" y2="-72.772" y1="-70.142" x2="2.16"/>
  <line x1="6.036" style="fill-rule:evenodd;clip-rule:evenodd;fill:none;stroke:#FFFFFF;stroke-width:0.58;" y2="-63.992" y1="-65.191" x2="3.464"/>
  <line x1="14.136" style="fill-rule:evenodd;clip-rule:evenodd;fill:none;stroke:#FFFFFF;stroke-width:0.58;" y2="-60.623" y1="-62.098" x2="11.712"/>
  <line x1="22.228" style="fill-rule:evenodd;clip-rule:evenodd;fill:none;stroke:#FFFFFF;stroke-width:0.58;" y2="-61.466" y1="-60.074" x2="19.756"/>
  <line x1="4.905" style="fill-rule:evenodd;clip-rule:evenodd;fill:none;stroke:#FFFFFF;stroke-width:0.58;" y2="-57.963" y1="-60.449" x2="6.274"/>
  <line x1="44.127" style="fill-rule:evenodd;clip-rule:evenodd;fill:none;stroke:#FFFFFF;stroke-width:0.58;" y2="-77.64" y1="-75.091" x2="45.375"/>
  <line x1="35.24" style="fill-rule:evenodd;clip-rule:evenodd;fill:none;stroke:#FFFFFF;stroke-width:0.58;" y2="-73.448" y1="-73.179" x2="38.065"/>
  <line x1="28.603" style="fill-rule:evenodd;clip-rule:evenodd;fill:none;stroke:#FFFFFF;stroke-width:0.58;" y2="-75.776" y1="-73.741" x2="30.581"/>
  <line x1="41.708" style="fill-rule:evenodd;clip-rule:evenodd;fill:none;stroke:#FFFFFF;stroke-width:0.58;" y2="-69.139" y1="-66.373" x2="42.343"/>
  <line x1="34.958" style="fill-rule:evenodd;clip-rule:evenodd;fill:none;stroke:#FFFFFF;stroke-width:0.58;" y2="-68.566" y1="-67.835" x2="32.217"/>
  <line x1="25.902" style="fill-rule:evenodd;clip-rule:evenodd;fill:none;stroke:#FFFFFF;stroke-width:0.58;" y2="-72.772" y1="-70.142" x2="24.839"/>
  <line x1="28.715" style="fill-rule:evenodd;clip-rule:evenodd;fill:none;stroke:#FFFFFF;stroke-width:0.58;" y2="-63.992" y1="-65.191" x2="26.144"/>
  <line x1="36.815" style="fill-rule:evenodd;clip-rule:evenodd;fill:none;stroke:#FFFFFF;stroke-width:0.58;" y2="-60.623" y1="-62.098" x2="34.391"/>
  <line x1="44.907" style="fill-rule:evenodd;clip-rule:evenodd;fill:none;stroke:#FFFFFF;stroke-width:0.58;" y2="-61.466" y1="-60.074" x2="42.435"/>
  <line x1="27.584" style="fill-rule:evenodd;clip-rule:evenodd;fill:none;stroke:#FFFFFF;stroke-width:0.58;" y2="-57.963" y1="-60.449" x2="28.953"/>
  <line x1="66.806" style="fill-rule:evenodd;clip-rule:evenodd;fill:none;stroke:#FFFFFF;stroke-width:0.58;" y2="-77.64" y1="-75.091" x2="68.055"/>
  <line x1="57.919" style="fill-rule:evenodd;clip-rule:evenodd;fill:none;stroke:#FFFFFF;stroke-width:0.58;" y2="-73.448" y1="-73.179" x2="60.744"/>
  <line x1="51.282" style="fill-rule:evenodd;clip-rule:evenodd;fill:none;stroke:#FFFFFF;stroke-width:0.58;" y2="-75.776" y1="-73.741" x2="53.26"/>
  <line x1="64.388" style="fill-rule:evenodd;clip-rule:evenodd;fill:none;stroke:#FFFFFF;stroke-width:0.58;" y2="-69.139" y1="-66.373" x2="65.021"/>
  <line x1="57.638" style="fill-rule:evenodd;clip-rule:evenodd;fill:none;stroke:#FFFFFF;stroke-width:0.58;" y2="-68.566" y1="-67.835" x2="54.896"/>
  <line x1="48.582" style="fill-rule:evenodd;clip-rule:evenodd;fill:none;stroke:#FFFFFF;stroke-width:0.58;" y2="-72.772" y1="-70.142" x2="47.518"/>
  <line x1="51.394" style="fill-rule:evenodd;clip-rule:evenodd;fill:none;stroke:#FFFFFF;stroke-width:0.58;" y2="-63.992" y1="-65.191" x2="48.823"/>
  <line x1="59.494" style="fill-rule:evenodd;clip-rule:evenodd;fill:none;stroke:#FFFFFF;stroke-width:0.58;" y2="-60.623" y1="-62.098" x2="57.07"/>
  <line x1="67.586" style="fill-rule:evenodd;clip-rule:evenodd;fill:none;stroke:#FFFFFF;stroke-width:0.58;" y2="-61.466" y1="-60.074" x2="65.114"/>
  <line x1="50.263" style="fill-rule:evenodd;clip-rule:evenodd;fill:none;stroke:#FFFFFF;stroke-width:0.58;" y2="-57.963" y1="-60.449" x2="51.632"/>
  <line x1="89.485" style="fill-rule:evenodd;clip-rule:evenodd;fill:none;stroke:#FFFFFF;stroke-width:0.58;" y2="-77.64" y1="-75.091" x2="90.733"/>
  <line x1="80.598" style="fill-rule:evenodd;clip-rule:evenodd;fill:none;stroke:#FFFFFF;stroke-width:0.58;" y2="-73.448" y1="-73.179" x2="83.423"/>
  <line x1="73.961" style="fill-rule:evenodd;clip-rule:evenodd;fill:none;stroke:#FFFFFF;stroke-width:0.58;" y2="-75.776" y1="-73.741" x2="75.939"/>
  <line x1="87.067" style="fill-rule:evenodd;clip-rule:evenodd;fill:none;stroke:#FFFFFF;stroke-width:0.58;" y2="-69.139" y1="-66.373" x2="87.701"/>
  <line x1="80.317" style="fill-rule:evenodd;clip-rule:evenodd;fill:none;stroke:#FFFFFF;stroke-width:0.58;" y2="-68.566" y1="-67.835" x2="77.575"/>
  <line x1="71.261" style="fill-rule:evenodd;clip-rule:evenodd;fill:none;stroke:#FFFFFF;stroke-width:0.58;" y2="-72.772" y1="-70.142" x2="70.197"/>
  <line x1="74.073" style="fill-rule:evenodd;clip-rule:evenodd;fill:none;stroke:#FFFFFF;stroke-width:0.58;" y2="-63.992" y1="-65.191" x2="71.502"/>
  <line x1="82.173" style="fill-rule:evenodd;clip-rule:evenodd;fill:none;stroke:#FFFFFF;stroke-width:0.58;" y2="-60.623" y1="-62.098" x2="79.749"/>
  <line x1="90.265" style="fill-rule:evenodd;clip-rule:evenodd;fill:none;stroke:#FFFFFF;stroke-width:0.58;" y2="-61.466" y1="-60.074" x2="87.793"/>
  <line x1="72.942" style="fill-rule:evenodd;clip-rule:evenodd;fill:none;stroke:#FFFFFF;stroke-width:0.58;" y2="-57.963" y1="-60.449" x2="74.312"/>
  <line x1="19.029" style="fill-rule:evenodd;clip-rule:evenodd;fill:none;stroke:#FFFFFF;stroke-width:0.58;" y2="-91.818" y1="-89.052" x2="19.664"/>
  <line x1="9.538" style="fill-rule:evenodd;clip-rule:evenodd;fill:none;stroke:#FFFFFF;stroke-width:0.58;" y2="-90.514" y1="-91.245" x2="12.279"/>
  <line x1="6.036" style="fill-rule:evenodd;clip-rule:evenodd;fill:none;stroke:#FFFFFF;stroke-width:0.58;" y2="-86.67" y1="-87.871" x2="3.464"/>
  <line x1="14.136" style="fill-rule:evenodd;clip-rule:evenodd;fill:none;stroke:#FFFFFF;stroke-width:0.58;" y2="-83.301" y1="-84.777" x2="11.712"/>
  <line x1="22.228" style="fill-rule:evenodd;clip-rule:evenodd;fill:none;stroke:#FFFFFF;stroke-width:0.58;" y2="-84.145" y1="-82.753" x2="19.756"/>
  <line x1="4.905" style="fill-rule:evenodd;clip-rule:evenodd;fill:none;stroke:#FFFFFF;stroke-width:0.58;" y2="-80.643" y1="-83.127" x2="6.274"/>
  <line x1="41.708" style="fill-rule:evenodd;clip-rule:evenodd;fill:none;stroke:#FFFFFF;stroke-width:0.58;" y2="-91.818" y1="-89.052" x2="42.343"/>
  <line x1="32.217" style="fill-rule:evenodd;clip-rule:evenodd;fill:none;stroke:#FFFFFF;stroke-width:0.58;" y2="-90.514" y1="-91.245" x2="34.958"/>
  <line x1="28.715" style="fill-rule:evenodd;clip-rule:evenodd;fill:none;stroke:#FFFFFF;stroke-width:0.58;" y2="-86.67" y1="-87.871" x2="26.144"/>
  <line x1="36.815" style="fill-rule:evenodd;clip-rule:evenodd;fill:none;stroke:#FFFFFF;stroke-width:0.58;" y2="-83.301" y1="-84.777" x2="34.391"/>
  <line x1="44.907" style="fill-rule:evenodd;clip-rule:evenodd;fill:none;stroke:#FFFFFF;stroke-width:0.58;" y2="-84.145" y1="-82.753" x2="42.435"/>
  <line x1="27.584" style="fill-rule:evenodd;clip-rule:evenodd;fill:none;stroke:#FFFFFF;stroke-width:0.58;" y2="-80.643" y1="-83.127" x2="28.953"/>
  <line x1="64.388" style="fill-rule:evenodd;clip-rule:evenodd;fill:none;stroke:#FFFFFF;stroke-width:0.58;" y2="-91.818" y1="-89.052" x2="65.021"/>
  <line x1="54.896" style="fill-rule:evenodd;clip-rule:evenodd;fill:none;stroke:#FFFFFF;stroke-width:0.58;" y2="-90.514" y1="-91.245" x2="57.638"/>
  <line x1="51.394" style="fill-rule:evenodd;clip-rule:evenodd;fill:none;stroke:#FFFFFF;stroke-width:0.58;" y2="-86.67" y1="-87.871" x2="48.823"/>
  <line x1="59.494" style="fill-rule:evenodd;clip-rule:evenodd;fill:none;stroke:#FFFFFF;stroke-width:0.58;" y2="-83.301" y1="-84.777" x2="57.07"/>
  <line x1="67.586" style="fill-rule:evenodd;clip-rule:evenodd;fill:none;stroke:#FFFFFF;stroke-width:0.58;" y2="-84.145" y1="-82.753" x2="65.114"/>
  <line x1="50.263" style="fill-rule:evenodd;clip-rule:evenodd;fill:none;stroke:#FFFFFF;stroke-width:0.58;" y2="-80.643" y1="-83.127" x2="51.632"/>
  <line x1="87.067" style="fill-rule:evenodd;clip-rule:evenodd;fill:none;stroke:#FFFFFF;stroke-width:0.58;" y2="-91.818" y1="-89.052" x2="87.701"/>
  <line x1="77.575" style="fill-rule:evenodd;clip-rule:evenodd;fill:none;stroke:#FFFFFF;stroke-width:0.58;" y2="-90.514" y1="-91.245" x2="80.317"/>
  <line x1="74.073" style="fill-rule:evenodd;clip-rule:evenodd;fill:none;stroke:#FFFFFF;stroke-width:0.58;" y2="-86.67" y1="-87.871" x2="71.502"/>
  <line x1="82.173" style="fill-rule:evenodd;clip-rule:evenodd;fill:none;stroke:#FFFFFF;stroke-width:0.58;" y2="-83.301" y1="-84.777" x2="79.749"/>
  <line x1="90.265" style="fill-rule:evenodd;clip-rule:evenodd;fill:none;stroke:#FFFFFF;stroke-width:0.58;" y2="-84.145" y1="-82.753" x2="87.793"/>
  <line x1="72.942" style="fill-rule:evenodd;clip-rule:evenodd;fill:none;stroke:#FFFFFF;stroke-width:0.58;" y2="-80.643" y1="-83.127" x2="74.312"/>
  <line x1="38.628" style="fill-rule:evenodd;clip-rule:evenodd;fill:none;stroke:#FFFFFF;stroke-width:0.58;" y2="-35.032" y1="-32.18" x2="39.17"/>
  <line x1="61.307" style="fill-rule:evenodd;clip-rule:evenodd;fill:none;stroke:#FFFFFF;stroke-width:0.58;" y2="-35.032" y1="-32.18" x2="61.849"/>
  <line x1="83.986" style="fill-rule:evenodd;clip-rule:evenodd;fill:none;stroke:#FFFFFF;stroke-width:0.58;" y2="-35.032" y1="-32.18" x2="84.528"/>
  <line x1="83.986" style="fill-rule:evenodd;clip-rule:evenodd;fill:none;stroke:#FFFFFF;stroke-width:0.58;" y2="-57.711" y1="-54.859" x2="84.528"/>
  <line x1="61.307" style="fill-rule:evenodd;clip-rule:evenodd;fill:none;stroke:#FFFFFF;stroke-width:0.58;" y2="-57.711" y1="-54.859" x2="61.849"/>
  <line x1="38.628" style="fill-rule:evenodd;clip-rule:evenodd;fill:none;stroke:#FFFFFF;stroke-width:0.58;" y2="-57.711" y1="-54.859" x2="39.17"/>
  <line x1="15.949" style="fill-rule:evenodd;clip-rule:evenodd;fill:none;stroke:#FFFFFF;stroke-width:0.58;" y2="-57.711" y1="-54.859" x2="16.491"/>
  <line x1="15.949" style="fill-rule:evenodd;clip-rule:evenodd;fill:none;stroke:#FFFFFF;stroke-width:0.58;" y2="-80.39" y1="-77.538" x2="16.491"/>
  <line x1="38.628" style="fill-rule:evenodd;clip-rule:evenodd;fill:none;stroke:#FFFFFF;stroke-width:0.58;" y2="-80.39" y1="-77.538" x2="39.17"/>
  <line x1="61.307" style="fill-rule:evenodd;clip-rule:evenodd;fill:none;stroke:#FFFFFF;stroke-width:0.58;" y2="-80.39" y1="-77.538" x2="61.849"/>
  <line x1="83.986" style="fill-rule:evenodd;clip-rule:evenodd;fill:none;stroke:#FFFFFF;stroke-width:0.58;" y2="-80.39" y1="-77.538" x2="84.528"/>
  <line x1="16.491" style="fill-rule:evenodd;clip-rule:evenodd;fill:none;stroke:#FFFFFF;stroke-width:0.58;" y2="-11.235" y1="-12.422" x2="16.266"/>
  <line x1="39.17" style="fill-rule:evenodd;clip-rule:evenodd;fill:none;stroke:#FFFFFF;stroke-width:0.58;" y2="-11.235" y1="-12.422" x2="38.945"/>
  <line x1="61.849" style="fill-rule:evenodd;clip-rule:evenodd;fill:none;stroke:#FFFFFF;stroke-width:0.58;" y2="-11.235" y1="-12.422" x2="61.624"/>
  <line x1="84.528" style="fill-rule:evenodd;clip-rule:evenodd;fill:none;stroke:#FFFFFF;stroke-width:0.58;" y2="-11.235" y1="-12.422" x2="84.303"/>
  <line x1="21.448" style="fill-rule:evenodd;clip-rule:evenodd;fill:none;stroke:#FFFFFF;stroke-width:0.58;" y2="-9.658" y1="-7.109" x2="22.696"/>
  <line x1="12.561" style="fill-rule:evenodd;clip-rule:evenodd;fill:none;stroke:#FFFFFF;stroke-width:0.58;" y2="-5.467" y1="-5.197" x2="15.386"/>
  <line x1="5.923" style="fill-rule:evenodd;clip-rule:evenodd;fill:none;stroke:#FFFFFF;stroke-width:0.58;" y2="-7.795" y1="-5.76" x2="7.901"/>
  <line x1="2.16" style="fill-rule:evenodd;clip-rule:evenodd;fill:none;stroke:#FFFFFF;stroke-width:0.58;" y2="-2.16" y1="-4.791" x2="3.224"/>
  <line x1="44.127" style="fill-rule:evenodd;clip-rule:evenodd;fill:none;stroke:#FFFFFF;stroke-width:0.58;" y2="-9.658" y1="-7.109" x2="45.375"/>
  <line x1="35.24" style="fill-rule:evenodd;clip-rule:evenodd;fill:none;stroke:#FFFFFF;stroke-width:0.58;" y2="-5.467" y1="-5.197" x2="38.065"/>
  <line x1="28.603" style="fill-rule:evenodd;clip-rule:evenodd;fill:none;stroke:#FFFFFF;stroke-width:0.58;" y2="-7.795" y1="-5.76" x2="30.581"/>
  <line x1="24.839" style="fill-rule:evenodd;clip-rule:evenodd;fill:none;stroke:#FFFFFF;stroke-width:0.58;" y2="-2.16" y1="-4.791" x2="25.902"/>
  <line x1="66.806" style="fill-rule:evenodd;clip-rule:evenodd;fill:none;stroke:#FFFFFF;stroke-width:0.58;" y2="-9.658" y1="-7.109" x2="68.055"/>
  <line x1="57.919" style="fill-rule:evenodd;clip-rule:evenodd;fill:none;stroke:#FFFFFF;stroke-width:0.58;" y2="-5.467" y1="-5.197" x2="60.744"/>
  <line x1="51.282" style="fill-rule:evenodd;clip-rule:evenodd;fill:none;stroke:#FFFFFF;stroke-width:0.58;" y2="-7.795" y1="-5.76" x2="53.26"/>
  <line x1="47.518" style="fill-rule:evenodd;clip-rule:evenodd;fill:none;stroke:#FFFFFF;stroke-width:0.58;" y2="-2.16" y1="-4.791" x2="48.582"/>
  <line x1="89.485" style="fill-rule:evenodd;clip-rule:evenodd;fill:none;stroke:#FFFFFF;stroke-width:0.58;" y2="-9.658" y1="-7.109" x2="90.733"/>
  <line x1="80.598" style="fill-rule:evenodd;clip-rule:evenodd;fill:none;stroke:#FFFFFF;stroke-width:0.58;" y2="-5.467" y1="-5.197" x2="83.423"/>
  <line x1="73.961" style="fill-rule:evenodd;clip-rule:evenodd;fill:none;stroke:#FFFFFF;stroke-width:0.58;" y2="-7.795" y1="-5.76" x2="75.939"/>
  <line x1="70.197" style="fill-rule:evenodd;clip-rule:evenodd;fill:none;stroke:#FFFFFF;stroke-width:0.58;" y2="-2.16" y1="-4.791" x2="71.261"/>
  <line x1="16.266" style="fill-rule:evenodd;clip-rule:evenodd;fill:none;stroke:#FFFFFF;stroke-width:0.58;" y2="-9.557" y1="-11.223" x2="15.949"/>
  <line x1="38.945" style="fill-rule:evenodd;clip-rule:evenodd;fill:none;stroke:#FFFFFF;stroke-width:0.58;" y2="-9.557" y1="-11.223" x2="38.628"/>
  <line x1="61.624" style="fill-rule:evenodd;clip-rule:evenodd;fill:none;stroke:#FFFFFF;stroke-width:0.58;" y2="-9.557" y1="-11.223" x2="61.307"/>
  <line x1="84.303" style="fill-rule:evenodd;clip-rule:evenodd;fill:none;stroke:#FFFFFF;stroke-width:0.58;" y2="-9.557" y1="-11.223" x2="83.986"/>
 </g>
</svg>
