<?xml version="1.0" encoding="utf-8"?>
<svg xmlns="http://www.w3.org/2000/svg" version="1.1" x="0px" y="0px" xml:space="preserve" width="90.647" height="90.647" viewBox="1.084 -92.389 90.647 90.647">
	<g>
		<rect x="1.084" y="-92.389" style="fill:none;" width="90.647" height="90.647"/>

			<line style="fill-rule:evenodd;clip-rule:evenodd;fill:none;stroke:#00AEEF;stroke-width:0.58;" x1="21.448" y1="-29.733" x2="22.696" y2="-32.281"/>

			<line style="fill-rule:evenodd;clip-rule:evenodd;fill:none;stroke:#00AEEF;stroke-width:0.58;" x1="12.561" y1="-27.82" x2="15.386" y2="-28.09"/>

			<line style="fill-rule:evenodd;clip-rule:evenodd;fill:none;stroke:#00AEEF;stroke-width:0.58;" x1="5.923" y1="-28.383" x2="7.901" y2="-30.418"/>

			<line style="fill-rule:evenodd;clip-rule:evenodd;fill:none;stroke:#00AEEF;stroke-width:0.58;" x1="19.664" y1="-23.78" x2="19.029" y2="-21.015"/>

			<line style="fill-rule:evenodd;clip-rule:evenodd;fill:none;stroke:#00AEEF;stroke-width:0.58;" x1="12.279" y1="-22.478" x2="9.538" y2="-23.208"/>

			<line style="fill-rule:evenodd;clip-rule:evenodd;fill:none;stroke:#00AEEF;stroke-width:0.58;" x1="3.224" y1="-24.783" x2="2.16" y2="-27.414"/>

			<line style="fill-rule:evenodd;clip-rule:evenodd;fill:none;stroke:#00AEEF;stroke-width:0.58;" x1="6.036" y1="-19.833" x2="3.464" y2="-18.634"/>

			<line style="fill-rule:evenodd;clip-rule:evenodd;fill:none;stroke:#00AEEF;stroke-width:0.58;" x1="14.136" y1="-16.739" x2="11.712" y2="-15.265"/>

			<line style="fill-rule:evenodd;clip-rule:evenodd;fill:none;stroke:#00AEEF;stroke-width:0.58;" x1="22.228" y1="-14.716" x2="19.756" y2="-16.108"/>

			<line style="fill-rule:evenodd;clip-rule:evenodd;fill:none;stroke:#00AEEF;stroke-width:0.58;" x1="6.274" y1="-12.606" x2="4.905" y2="-15.091"/>

			<line style="fill-rule:evenodd;clip-rule:evenodd;fill:none;stroke:#00AEEF;stroke-width:0.58;" x1="44.127" y1="-29.733" x2="45.375" y2="-32.281"/>

			<line style="fill-rule:evenodd;clip-rule:evenodd;fill:none;stroke:#00AEEF;stroke-width:0.58;" x1="35.24" y1="-27.82" x2="38.065" y2="-28.09"/>

			<line style="fill-rule:evenodd;clip-rule:evenodd;fill:none;stroke:#00AEEF;stroke-width:0.58;" x1="28.603" y1="-28.383" x2="30.581" y2="-30.418"/>

			<line style="fill-rule:evenodd;clip-rule:evenodd;fill:none;stroke:#00AEEF;stroke-width:0.58;" x1="42.343" y1="-23.78" x2="41.708" y2="-21.015"/>

			<line style="fill-rule:evenodd;clip-rule:evenodd;fill:none;stroke:#00AEEF;stroke-width:0.58;" x1="34.958" y1="-22.478" x2="32.217" y2="-23.208"/>

			<line style="fill-rule:evenodd;clip-rule:evenodd;fill:none;stroke:#00AEEF;stroke-width:0.58;" x1="25.902" y1="-24.783" x2="24.839" y2="-27.414"/>

			<line style="fill-rule:evenodd;clip-rule:evenodd;fill:none;stroke:#00AEEF;stroke-width:0.58;" x1="28.715" y1="-19.833" x2="26.144" y2="-18.634"/>

			<line style="fill-rule:evenodd;clip-rule:evenodd;fill:none;stroke:#00AEEF;stroke-width:0.58;" x1="36.815" y1="-16.739" x2="34.391" y2="-15.265"/>

			<line style="fill-rule:evenodd;clip-rule:evenodd;fill:none;stroke:#00AEEF;stroke-width:0.58;" x1="44.907" y1="-14.716" x2="42.435" y2="-16.108"/>

			<line style="fill-rule:evenodd;clip-rule:evenodd;fill:none;stroke:#00AEEF;stroke-width:0.58;" x1="28.953" y1="-12.606" x2="27.584" y2="-15.091"/>

			<line style="fill-rule:evenodd;clip-rule:evenodd;fill:none;stroke:#00AEEF;stroke-width:0.58;" x1="66.806" y1="-29.733" x2="68.055" y2="-32.281"/>

			<line style="fill-rule:evenodd;clip-rule:evenodd;fill:none;stroke:#00AEEF;stroke-width:0.58;" x1="57.919" y1="-27.82" x2="60.744" y2="-28.09"/>

			<line style="fill-rule:evenodd;clip-rule:evenodd;fill:none;stroke:#00AEEF;stroke-width:0.58;" x1="51.282" y1="-28.383" x2="53.26" y2="-30.418"/>

			<line style="fill-rule:evenodd;clip-rule:evenodd;fill:none;stroke:#00AEEF;stroke-width:0.58;" x1="65.021" y1="-23.78" x2="64.388" y2="-21.015"/>

			<line style="fill-rule:evenodd;clip-rule:evenodd;fill:none;stroke:#00AEEF;stroke-width:0.58;" x1="57.638" y1="-22.478" x2="54.896" y2="-23.208"/>

			<line style="fill-rule:evenodd;clip-rule:evenodd;fill:none;stroke:#00AEEF;stroke-width:0.58;" x1="48.582" y1="-24.783" x2="47.518" y2="-27.414"/>

			<line style="fill-rule:evenodd;clip-rule:evenodd;fill:none;stroke:#00AEEF;stroke-width:0.58;" x1="51.394" y1="-19.833" x2="48.823" y2="-18.634"/>

			<line style="fill-rule:evenodd;clip-rule:evenodd;fill:none;stroke:#00AEEF;stroke-width:0.58;" x1="59.494" y1="-16.739" x2="57.07" y2="-15.265"/>

			<line style="fill-rule:evenodd;clip-rule:evenodd;fill:none;stroke:#00AEEF;stroke-width:0.58;" x1="67.586" y1="-14.716" x2="65.114" y2="-16.108"/>

			<line style="fill-rule:evenodd;clip-rule:evenodd;fill:none;stroke:#00AEEF;stroke-width:0.58;" x1="51.632" y1="-12.606" x2="50.263" y2="-15.091"/>

			<line style="fill-rule:evenodd;clip-rule:evenodd;fill:none;stroke:#00AEEF;stroke-width:0.58;" x1="89.485" y1="-29.733" x2="90.733" y2="-32.281"/>

			<line style="fill-rule:evenodd;clip-rule:evenodd;fill:none;stroke:#00AEEF;stroke-width:0.58;" x1="80.598" y1="-27.82" x2="83.423" y2="-28.09"/>

			<line style="fill-rule:evenodd;clip-rule:evenodd;fill:none;stroke:#00AEEF;stroke-width:0.58;" x1="73.961" y1="-28.383" x2="75.939" y2="-30.418"/>

			<line style="fill-rule:evenodd;clip-rule:evenodd;fill:none;stroke:#00AEEF;stroke-width:0.58;" x1="87.701" y1="-23.78" x2="87.067" y2="-21.015"/>

			<line style="fill-rule:evenodd;clip-rule:evenodd;fill:none;stroke:#00AEEF;stroke-width:0.58;" x1="80.317" y1="-22.478" x2="77.575" y2="-23.208"/>

			<line style="fill-rule:evenodd;clip-rule:evenodd;fill:none;stroke:#00AEEF;stroke-width:0.58;" x1="71.261" y1="-24.783" x2="70.197" y2="-27.414"/>

			<line style="fill-rule:evenodd;clip-rule:evenodd;fill:none;stroke:#00AEEF;stroke-width:0.58;" x1="74.073" y1="-19.833" x2="71.502" y2="-18.634"/>

			<line style="fill-rule:evenodd;clip-rule:evenodd;fill:none;stroke:#00AEEF;stroke-width:0.58;" x1="82.173" y1="-16.739" x2="79.749" y2="-15.265"/>

			<line style="fill-rule:evenodd;clip-rule:evenodd;fill:none;stroke:#00AEEF;stroke-width:0.58;" x1="90.265" y1="-14.716" x2="87.793" y2="-16.108"/>

			<line style="fill-rule:evenodd;clip-rule:evenodd;fill:none;stroke:#00AEEF;stroke-width:0.58;" x1="74.312" y1="-12.606" x2="72.942" y2="-15.091"/>

			<line style="fill-rule:evenodd;clip-rule:evenodd;fill:none;stroke:#00AEEF;stroke-width:0.58;" x1="21.448" y1="-52.413" x2="22.696" y2="-54.961"/>

			<line style="fill-rule:evenodd;clip-rule:evenodd;fill:none;stroke:#00AEEF;stroke-width:0.58;" x1="12.561" y1="-50.5" x2="15.386" y2="-50.769"/>

			<line style="fill-rule:evenodd;clip-rule:evenodd;fill:none;stroke:#00AEEF;stroke-width:0.58;" x1="5.923" y1="-51.062" x2="7.901" y2="-53.097"/>

			<line style="fill-rule:evenodd;clip-rule:evenodd;fill:none;stroke:#00AEEF;stroke-width:0.58;" x1="19.029" y1="-43.694" x2="19.664" y2="-46.459"/>

			<line style="fill-rule:evenodd;clip-rule:evenodd;fill:none;stroke:#00AEEF;stroke-width:0.58;" x1="12.279" y1="-45.156" x2="9.538" y2="-45.887"/>

			<line style="fill-rule:evenodd;clip-rule:evenodd;fill:none;stroke:#00AEEF;stroke-width:0.58;" x1="3.224" y1="-47.462" x2="2.16" y2="-50.093"/>

			<line style="fill-rule:evenodd;clip-rule:evenodd;fill:none;stroke:#00AEEF;stroke-width:0.58;" x1="6.036" y1="-42.513" x2="3.464" y2="-41.312"/>

			<line style="fill-rule:evenodd;clip-rule:evenodd;fill:none;stroke:#00AEEF;stroke-width:0.58;" x1="14.136" y1="-39.418" x2="11.712" y2="-37.943"/>

			<line style="fill-rule:evenodd;clip-rule:evenodd;fill:none;stroke:#00AEEF;stroke-width:0.58;" x1="22.228" y1="-37.395" x2="19.756" y2="-38.787"/>

			<line style="fill-rule:evenodd;clip-rule:evenodd;fill:none;stroke:#00AEEF;stroke-width:0.58;" x1="15.949" y1="-32.18" x2="16.491" y2="-35.032"/>

			<line style="fill-rule:evenodd;clip-rule:evenodd;fill:none;stroke:#00AEEF;stroke-width:0.58;" x1="4.905" y1="-37.77" x2="6.274" y2="-35.284"/>

			<line style="fill-rule:evenodd;clip-rule:evenodd;fill:none;stroke:#00AEEF;stroke-width:0.58;" x1="44.127" y1="-52.413" x2="45.375" y2="-54.961"/>

			<line style="fill-rule:evenodd;clip-rule:evenodd;fill:none;stroke:#00AEEF;stroke-width:0.58;" x1="35.24" y1="-50.5" x2="38.065" y2="-50.769"/>

			<line style="fill-rule:evenodd;clip-rule:evenodd;fill:none;stroke:#00AEEF;stroke-width:0.58;" x1="28.603" y1="-51.062" x2="30.581" y2="-53.097"/>

			<line style="fill-rule:evenodd;clip-rule:evenodd;fill:none;stroke:#00AEEF;stroke-width:0.58;" x1="41.708" y1="-43.694" x2="42.343" y2="-46.459"/>

			<line style="fill-rule:evenodd;clip-rule:evenodd;fill:none;stroke:#00AEEF;stroke-width:0.58;" x1="34.958" y1="-45.156" x2="32.217" y2="-45.887"/>

			<line style="fill-rule:evenodd;clip-rule:evenodd;fill:none;stroke:#00AEEF;stroke-width:0.58;" x1="25.902" y1="-47.462" x2="24.839" y2="-50.093"/>

			<line style="fill-rule:evenodd;clip-rule:evenodd;fill:none;stroke:#00AEEF;stroke-width:0.58;" x1="28.715" y1="-42.513" x2="26.144" y2="-41.312"/>

			<line style="fill-rule:evenodd;clip-rule:evenodd;fill:none;stroke:#00AEEF;stroke-width:0.58;" x1="36.815" y1="-39.418" x2="34.391" y2="-37.943"/>

			<line style="fill-rule:evenodd;clip-rule:evenodd;fill:none;stroke:#00AEEF;stroke-width:0.58;" x1="44.907" y1="-37.395" x2="42.435" y2="-38.787"/>

			<line style="fill-rule:evenodd;clip-rule:evenodd;fill:none;stroke:#00AEEF;stroke-width:0.58;" x1="27.584" y1="-37.77" x2="28.953" y2="-35.284"/>

			<line style="fill-rule:evenodd;clip-rule:evenodd;fill:none;stroke:#00AEEF;stroke-width:0.58;" x1="66.806" y1="-52.413" x2="68.055" y2="-54.961"/>

			<line style="fill-rule:evenodd;clip-rule:evenodd;fill:none;stroke:#00AEEF;stroke-width:0.58;" x1="57.919" y1="-50.5" x2="60.744" y2="-50.769"/>

			<line style="fill-rule:evenodd;clip-rule:evenodd;fill:none;stroke:#00AEEF;stroke-width:0.58;" x1="51.282" y1="-51.062" x2="53.26" y2="-53.097"/>

			<line style="fill-rule:evenodd;clip-rule:evenodd;fill:none;stroke:#00AEEF;stroke-width:0.58;" x1="64.388" y1="-43.694" x2="65.021" y2="-46.459"/>

			<line style="fill-rule:evenodd;clip-rule:evenodd;fill:none;stroke:#00AEEF;stroke-width:0.58;" x1="57.638" y1="-45.156" x2="54.896" y2="-45.887"/>

			<line style="fill-rule:evenodd;clip-rule:evenodd;fill:none;stroke:#00AEEF;stroke-width:0.58;" x1="48.582" y1="-47.462" x2="47.518" y2="-50.093"/>

			<line style="fill-rule:evenodd;clip-rule:evenodd;fill:none;stroke:#00AEEF;stroke-width:0.58;" x1="51.394" y1="-42.513" x2="48.823" y2="-41.312"/>

			<line style="fill-rule:evenodd;clip-rule:evenodd;fill:none;stroke:#00AEEF;stroke-width:0.58;" x1="59.494" y1="-39.418" x2="57.07" y2="-37.943"/>

			<line style="fill-rule:evenodd;clip-rule:evenodd;fill:none;stroke:#00AEEF;stroke-width:0.58;" x1="67.586" y1="-37.395" x2="65.114" y2="-38.787"/>

			<line style="fill-rule:evenodd;clip-rule:evenodd;fill:none;stroke:#00AEEF;stroke-width:0.58;" x1="50.263" y1="-37.77" x2="51.632" y2="-35.284"/>

			<line style="fill-rule:evenodd;clip-rule:evenodd;fill:none;stroke:#00AEEF;stroke-width:0.58;" x1="89.485" y1="-52.413" x2="90.733" y2="-54.961"/>

			<line style="fill-rule:evenodd;clip-rule:evenodd;fill:none;stroke:#00AEEF;stroke-width:0.58;" x1="80.598" y1="-50.5" x2="83.423" y2="-50.769"/>

			<line style="fill-rule:evenodd;clip-rule:evenodd;fill:none;stroke:#00AEEF;stroke-width:0.58;" x1="73.961" y1="-51.062" x2="75.939" y2="-53.097"/>

			<line style="fill-rule:evenodd;clip-rule:evenodd;fill:none;stroke:#00AEEF;stroke-width:0.58;" x1="87.067" y1="-43.694" x2="87.701" y2="-46.459"/>

			<line style="fill-rule:evenodd;clip-rule:evenodd;fill:none;stroke:#00AEEF;stroke-width:0.58;" x1="80.317" y1="-45.156" x2="77.575" y2="-45.887"/>

			<line style="fill-rule:evenodd;clip-rule:evenodd;fill:none;stroke:#00AEEF;stroke-width:0.58;" x1="71.261" y1="-47.462" x2="70.197" y2="-50.093"/>

			<line style="fill-rule:evenodd;clip-rule:evenodd;fill:none;stroke:#00AEEF;stroke-width:0.58;" x1="74.073" y1="-42.513" x2="71.502" y2="-41.312"/>

			<line style="fill-rule:evenodd;clip-rule:evenodd;fill:none;stroke:#00AEEF;stroke-width:0.58;" x1="82.173" y1="-39.418" x2="79.749" y2="-37.943"/>

			<line style="fill-rule:evenodd;clip-rule:evenodd;fill:none;stroke:#00AEEF;stroke-width:0.58;" x1="90.265" y1="-37.395" x2="87.793" y2="-38.787"/>

			<line style="fill-rule:evenodd;clip-rule:evenodd;fill:none;stroke:#00AEEF;stroke-width:0.58;" x1="72.942" y1="-37.77" x2="74.312" y2="-35.284"/>

			<line style="fill-rule:evenodd;clip-rule:evenodd;fill:none;stroke:#00AEEF;stroke-width:0.58;" x1="21.448" y1="-75.091" x2="22.696" y2="-77.64"/>

			<line style="fill-rule:evenodd;clip-rule:evenodd;fill:none;stroke:#00AEEF;stroke-width:0.58;" x1="12.561" y1="-73.179" x2="15.386" y2="-73.448"/>

			<line style="fill-rule:evenodd;clip-rule:evenodd;fill:none;stroke:#00AEEF;stroke-width:0.58;" x1="5.923" y1="-73.741" x2="7.901" y2="-75.776"/>

			<line style="fill-rule:evenodd;clip-rule:evenodd;fill:none;stroke:#00AEEF;stroke-width:0.58;" x1="19.029" y1="-66.373" x2="19.664" y2="-69.139"/>

			<line style="fill-rule:evenodd;clip-rule:evenodd;fill:none;stroke:#00AEEF;stroke-width:0.58;" x1="12.279" y1="-67.835" x2="9.538" y2="-68.566"/>

			<line style="fill-rule:evenodd;clip-rule:evenodd;fill:none;stroke:#00AEEF;stroke-width:0.58;" x1="3.224" y1="-70.142" x2="2.16" y2="-72.772"/>

			<line style="fill-rule:evenodd;clip-rule:evenodd;fill:none;stroke:#00AEEF;stroke-width:0.58;" x1="6.036" y1="-65.191" x2="3.464" y2="-63.992"/>

			<line style="fill-rule:evenodd;clip-rule:evenodd;fill:none;stroke:#00AEEF;stroke-width:0.58;" x1="14.136" y1="-62.098" x2="11.712" y2="-60.623"/>

			<line style="fill-rule:evenodd;clip-rule:evenodd;fill:none;stroke:#00AEEF;stroke-width:0.58;" x1="22.228" y1="-60.074" x2="19.756" y2="-61.466"/>

			<line style="fill-rule:evenodd;clip-rule:evenodd;fill:none;stroke:#00AEEF;stroke-width:0.58;" x1="4.905" y1="-60.449" x2="6.274" y2="-57.963"/>

			<line style="fill-rule:evenodd;clip-rule:evenodd;fill:none;stroke:#00AEEF;stroke-width:0.58;" x1="44.127" y1="-75.091" x2="45.375" y2="-77.64"/>

			<line style="fill-rule:evenodd;clip-rule:evenodd;fill:none;stroke:#00AEEF;stroke-width:0.58;" x1="35.24" y1="-73.179" x2="38.065" y2="-73.448"/>

			<line style="fill-rule:evenodd;clip-rule:evenodd;fill:none;stroke:#00AEEF;stroke-width:0.58;" x1="28.603" y1="-73.741" x2="30.581" y2="-75.776"/>

			<line style="fill-rule:evenodd;clip-rule:evenodd;fill:none;stroke:#00AEEF;stroke-width:0.58;" x1="41.708" y1="-66.373" x2="42.343" y2="-69.139"/>

			<line style="fill-rule:evenodd;clip-rule:evenodd;fill:none;stroke:#00AEEF;stroke-width:0.58;" x1="34.958" y1="-67.835" x2="32.217" y2="-68.566"/>

			<line style="fill-rule:evenodd;clip-rule:evenodd;fill:none;stroke:#00AEEF;stroke-width:0.58;" x1="25.902" y1="-70.142" x2="24.839" y2="-72.772"/>

			<line style="fill-rule:evenodd;clip-rule:evenodd;fill:none;stroke:#00AEEF;stroke-width:0.58;" x1="28.715" y1="-65.191" x2="26.144" y2="-63.992"/>

			<line style="fill-rule:evenodd;clip-rule:evenodd;fill:none;stroke:#00AEEF;stroke-width:0.58;" x1="36.815" y1="-62.098" x2="34.391" y2="-60.623"/>

			<line style="fill-rule:evenodd;clip-rule:evenodd;fill:none;stroke:#00AEEF;stroke-width:0.58;" x1="44.907" y1="-60.074" x2="42.435" y2="-61.466"/>

			<line style="fill-rule:evenodd;clip-rule:evenodd;fill:none;stroke:#00AEEF;stroke-width:0.58;" x1="27.584" y1="-60.449" x2="28.953" y2="-57.963"/>

			<line style="fill-rule:evenodd;clip-rule:evenodd;fill:none;stroke:#00AEEF;stroke-width:0.58;" x1="66.806" y1="-75.091" x2="68.055" y2="-77.64"/>

			<line style="fill-rule:evenodd;clip-rule:evenodd;fill:none;stroke:#00AEEF;stroke-width:0.58;" x1="57.919" y1="-73.179" x2="60.744" y2="-73.448"/>

			<line style="fill-rule:evenodd;clip-rule:evenodd;fill:none;stroke:#00AEEF;stroke-width:0.58;" x1="51.282" y1="-73.741" x2="53.26" y2="-75.776"/>

			<line style="fill-rule:evenodd;clip-rule:evenodd;fill:none;stroke:#00AEEF;stroke-width:0.58;" x1="64.388" y1="-66.373" x2="65.021" y2="-69.139"/>

			<line style="fill-rule:evenodd;clip-rule:evenodd;fill:none;stroke:#00AEEF;stroke-width:0.58;" x1="57.638" y1="-67.835" x2="54.896" y2="-68.566"/>

			<line style="fill-rule:evenodd;clip-rule:evenodd;fill:none;stroke:#00AEEF;stroke-width:0.58;" x1="48.582" y1="-70.142" x2="47.518" y2="-72.772"/>

			<line style="fill-rule:evenodd;clip-rule:evenodd;fill:none;stroke:#00AEEF;stroke-width:0.58;" x1="51.394" y1="-65.191" x2="48.823" y2="-63.992"/>

			<line style="fill-rule:evenodd;clip-rule:evenodd;fill:none;stroke:#00AEEF;stroke-width:0.58;" x1="59.494" y1="-62.098" x2="57.07" y2="-60.623"/>

			<line style="fill-rule:evenodd;clip-rule:evenodd;fill:none;stroke:#00AEEF;stroke-width:0.58;" x1="67.586" y1="-60.074" x2="65.114" y2="-61.466"/>

			<line style="fill-rule:evenodd;clip-rule:evenodd;fill:none;stroke:#00AEEF;stroke-width:0.58;" x1="50.263" y1="-60.449" x2="51.632" y2="-57.963"/>

			<line style="fill-rule:evenodd;clip-rule:evenodd;fill:none;stroke:#00AEEF;stroke-width:0.58;" x1="89.485" y1="-75.091" x2="90.733" y2="-77.64"/>

			<line style="fill-rule:evenodd;clip-rule:evenodd;fill:none;stroke:#00AEEF;stroke-width:0.58;" x1="80.598" y1="-73.179" x2="83.423" y2="-73.448"/>

			<line style="fill-rule:evenodd;clip-rule:evenodd;fill:none;stroke:#00AEEF;stroke-width:0.58;" x1="73.961" y1="-73.741" x2="75.939" y2="-75.776"/>

			<line style="fill-rule:evenodd;clip-rule:evenodd;fill:none;stroke:#00AEEF;stroke-width:0.58;" x1="87.067" y1="-66.373" x2="87.701" y2="-69.139"/>

			<line style="fill-rule:evenodd;clip-rule:evenodd;fill:none;stroke:#00AEEF;stroke-width:0.58;" x1="80.317" y1="-67.835" x2="77.575" y2="-68.566"/>

			<line style="fill-rule:evenodd;clip-rule:evenodd;fill:none;stroke:#00AEEF;stroke-width:0.58;" x1="71.261" y1="-70.142" x2="70.197" y2="-72.772"/>

			<line style="fill-rule:evenodd;clip-rule:evenodd;fill:none;stroke:#00AEEF;stroke-width:0.58;" x1="74.073" y1="-65.191" x2="71.502" y2="-63.992"/>

			<line style="fill-rule:evenodd;clip-rule:evenodd;fill:none;stroke:#00AEEF;stroke-width:0.58;" x1="82.173" y1="-62.098" x2="79.749" y2="-60.623"/>

			<line style="fill-rule:evenodd;clip-rule:evenodd;fill:none;stroke:#00AEEF;stroke-width:0.58;" x1="90.265" y1="-60.074" x2="87.793" y2="-61.466"/>

			<line style="fill-rule:evenodd;clip-rule:evenodd;fill:none;stroke:#00AEEF;stroke-width:0.58;" x1="72.942" y1="-60.449" x2="74.312" y2="-57.963"/>

			<line style="fill-rule:evenodd;clip-rule:evenodd;fill:none;stroke:#00AEEF;stroke-width:0.58;" x1="19.029" y1="-89.052" x2="19.664" y2="-91.818"/>

			<line style="fill-rule:evenodd;clip-rule:evenodd;fill:none;stroke:#00AEEF;stroke-width:0.58;" x1="9.538" y1="-91.245" x2="12.279" y2="-90.514"/>

			<line style="fill-rule:evenodd;clip-rule:evenodd;fill:none;stroke:#00AEEF;stroke-width:0.58;" x1="6.036" y1="-87.871" x2="3.464" y2="-86.67"/>

			<line style="fill-rule:evenodd;clip-rule:evenodd;fill:none;stroke:#00AEEF;stroke-width:0.58;" x1="14.136" y1="-84.777" x2="11.712" y2="-83.301"/>

			<line style="fill-rule:evenodd;clip-rule:evenodd;fill:none;stroke:#00AEEF;stroke-width:0.58;" x1="22.228" y1="-82.753" x2="19.756" y2="-84.145"/>

			<line style="fill-rule:evenodd;clip-rule:evenodd;fill:none;stroke:#00AEEF;stroke-width:0.58;" x1="4.905" y1="-83.127" x2="6.274" y2="-80.643"/>

			<line style="fill-rule:evenodd;clip-rule:evenodd;fill:none;stroke:#00AEEF;stroke-width:0.58;" x1="41.708" y1="-89.052" x2="42.343" y2="-91.818"/>

			<line style="fill-rule:evenodd;clip-rule:evenodd;fill:none;stroke:#00AEEF;stroke-width:0.58;" x1="32.217" y1="-91.245" x2="34.958" y2="-90.514"/>

			<line style="fill-rule:evenodd;clip-rule:evenodd;fill:none;stroke:#00AEEF;stroke-width:0.58;" x1="28.715" y1="-87.871" x2="26.144" y2="-86.67"/>

			<line style="fill-rule:evenodd;clip-rule:evenodd;fill:none;stroke:#00AEEF;stroke-width:0.58;" x1="36.815" y1="-84.777" x2="34.391" y2="-83.301"/>

			<line style="fill-rule:evenodd;clip-rule:evenodd;fill:none;stroke:#00AEEF;stroke-width:0.58;" x1="44.907" y1="-82.753" x2="42.435" y2="-84.145"/>

			<line style="fill-rule:evenodd;clip-rule:evenodd;fill:none;stroke:#00AEEF;stroke-width:0.58;" x1="27.584" y1="-83.127" x2="28.953" y2="-80.643"/>

			<line style="fill-rule:evenodd;clip-rule:evenodd;fill:none;stroke:#00AEEF;stroke-width:0.58;" x1="64.388" y1="-89.052" x2="65.021" y2="-91.818"/>

			<line style="fill-rule:evenodd;clip-rule:evenodd;fill:none;stroke:#00AEEF;stroke-width:0.58;" x1="54.896" y1="-91.245" x2="57.638" y2="-90.514"/>

			<line style="fill-rule:evenodd;clip-rule:evenodd;fill:none;stroke:#00AEEF;stroke-width:0.58;" x1="51.394" y1="-87.871" x2="48.823" y2="-86.67"/>

			<line style="fill-rule:evenodd;clip-rule:evenodd;fill:none;stroke:#00AEEF;stroke-width:0.58;" x1="59.494" y1="-84.777" x2="57.07" y2="-83.301"/>

			<line style="fill-rule:evenodd;clip-rule:evenodd;fill:none;stroke:#00AEEF;stroke-width:0.58;" x1="67.586" y1="-82.753" x2="65.114" y2="-84.145"/>

			<line style="fill-rule:evenodd;clip-rule:evenodd;fill:none;stroke:#00AEEF;stroke-width:0.58;" x1="50.263" y1="-83.127" x2="51.632" y2="-80.643"/>

			<line style="fill-rule:evenodd;clip-rule:evenodd;fill:none;stroke:#00AEEF;stroke-width:0.58;" x1="87.067" y1="-89.052" x2="87.701" y2="-91.818"/>

			<line style="fill-rule:evenodd;clip-rule:evenodd;fill:none;stroke:#00AEEF;stroke-width:0.58;" x1="77.575" y1="-91.245" x2="80.317" y2="-90.514"/>

			<line style="fill-rule:evenodd;clip-rule:evenodd;fill:none;stroke:#00AEEF;stroke-width:0.58;" x1="74.073" y1="-87.871" x2="71.502" y2="-86.67"/>

			<line style="fill-rule:evenodd;clip-rule:evenodd;fill:none;stroke:#00AEEF;stroke-width:0.58;" x1="82.173" y1="-84.777" x2="79.749" y2="-83.301"/>

			<line style="fill-rule:evenodd;clip-rule:evenodd;fill:none;stroke:#00AEEF;stroke-width:0.58;" x1="90.265" y1="-82.753" x2="87.793" y2="-84.145"/>

			<line style="fill-rule:evenodd;clip-rule:evenodd;fill:none;stroke:#00AEEF;stroke-width:0.58;" x1="72.942" y1="-83.127" x2="74.312" y2="-80.643"/>

			<line style="fill-rule:evenodd;clip-rule:evenodd;fill:none;stroke:#00AEEF;stroke-width:0.58;" x1="38.628" y1="-32.18" x2="39.17" y2="-35.032"/>

			<line style="fill-rule:evenodd;clip-rule:evenodd;fill:none;stroke:#00AEEF;stroke-width:0.58;" x1="61.307" y1="-32.18" x2="61.849" y2="-35.032"/>

			<line style="fill-rule:evenodd;clip-rule:evenodd;fill:none;stroke:#00AEEF;stroke-width:0.58;" x1="83.986" y1="-32.18" x2="84.528" y2="-35.032"/>

			<line style="fill-rule:evenodd;clip-rule:evenodd;fill:none;stroke:#00AEEF;stroke-width:0.58;" x1="83.986" y1="-54.859" x2="84.528" y2="-57.711"/>

			<line style="fill-rule:evenodd;clip-rule:evenodd;fill:none;stroke:#00AEEF;stroke-width:0.58;" x1="61.307" y1="-54.859" x2="61.849" y2="-57.711"/>

			<line style="fill-rule:evenodd;clip-rule:evenodd;fill:none;stroke:#00AEEF;stroke-width:0.58;" x1="38.628" y1="-54.859" x2="39.17" y2="-57.711"/>

			<line style="fill-rule:evenodd;clip-rule:evenodd;fill:none;stroke:#00AEEF;stroke-width:0.58;" x1="15.949" y1="-54.859" x2="16.491" y2="-57.711"/>

			<line style="fill-rule:evenodd;clip-rule:evenodd;fill:none;stroke:#00AEEF;stroke-width:0.58;" x1="15.949" y1="-77.538" x2="16.491" y2="-80.39"/>

			<line style="fill-rule:evenodd;clip-rule:evenodd;fill:none;stroke:#00AEEF;stroke-width:0.58;" x1="38.628" y1="-77.538" x2="39.17" y2="-80.39"/>

			<line style="fill-rule:evenodd;clip-rule:evenodd;fill:none;stroke:#00AEEF;stroke-width:0.58;" x1="61.307" y1="-77.538" x2="61.849" y2="-80.39"/>

			<line style="fill-rule:evenodd;clip-rule:evenodd;fill:none;stroke:#00AEEF;stroke-width:0.58;" x1="83.986" y1="-77.538" x2="84.528" y2="-80.39"/>

			<line style="fill-rule:evenodd;clip-rule:evenodd;fill:none;stroke:#00AEEF;stroke-width:0.58;" x1="16.491" y1="-12.422" x2="16.266" y2="-11.235"/>

			<line style="fill-rule:evenodd;clip-rule:evenodd;fill:none;stroke:#00AEEF;stroke-width:0.58;" x1="39.17" y1="-12.422" x2="38.945" y2="-11.235"/>

			<line style="fill-rule:evenodd;clip-rule:evenodd;fill:none;stroke:#00AEEF;stroke-width:0.58;" x1="61.849" y1="-12.422" x2="61.624" y2="-11.235"/>

			<line style="fill-rule:evenodd;clip-rule:evenodd;fill:none;stroke:#00AEEF;stroke-width:0.58;" x1="84.528" y1="-12.422" x2="84.303" y2="-11.235"/>

			<line style="fill-rule:evenodd;clip-rule:evenodd;fill:none;stroke:#00AEEF;stroke-width:0.58;" x1="21.448" y1="-7.109" x2="22.696" y2="-9.658"/>

			<line style="fill-rule:evenodd;clip-rule:evenodd;fill:none;stroke:#00AEEF;stroke-width:0.58;" x1="12.561" y1="-5.197" x2="15.386" y2="-5.467"/>

			<line style="fill-rule:evenodd;clip-rule:evenodd;fill:none;stroke:#00AEEF;stroke-width:0.58;" x1="5.923" y1="-5.76" x2="7.901" y2="-7.795"/>

			<line style="fill-rule:evenodd;clip-rule:evenodd;fill:none;stroke:#00AEEF;stroke-width:0.58;" x1="2.16" y1="-4.791" x2="3.224" y2="-2.16"/>

			<line style="fill-rule:evenodd;clip-rule:evenodd;fill:none;stroke:#00AEEF;stroke-width:0.58;" x1="44.127" y1="-7.109" x2="45.375" y2="-9.658"/>

			<line style="fill-rule:evenodd;clip-rule:evenodd;fill:none;stroke:#00AEEF;stroke-width:0.58;" x1="35.24" y1="-5.197" x2="38.065" y2="-5.467"/>

			<line style="fill-rule:evenodd;clip-rule:evenodd;fill:none;stroke:#00AEEF;stroke-width:0.58;" x1="28.603" y1="-5.76" x2="30.581" y2="-7.795"/>

			<line style="fill-rule:evenodd;clip-rule:evenodd;fill:none;stroke:#00AEEF;stroke-width:0.58;" x1="24.839" y1="-4.791" x2="25.902" y2="-2.16"/>

			<line style="fill-rule:evenodd;clip-rule:evenodd;fill:none;stroke:#00AEEF;stroke-width:0.58;" x1="66.806" y1="-7.109" x2="68.055" y2="-9.658"/>

			<line style="fill-rule:evenodd;clip-rule:evenodd;fill:none;stroke:#00AEEF;stroke-width:0.58;" x1="57.919" y1="-5.197" x2="60.744" y2="-5.467"/>

			<line style="fill-rule:evenodd;clip-rule:evenodd;fill:none;stroke:#00AEEF;stroke-width:0.58;" x1="51.282" y1="-5.76" x2="53.26" y2="-7.795"/>

			<line style="fill-rule:evenodd;clip-rule:evenodd;fill:none;stroke:#00AEEF;stroke-width:0.58;" x1="47.518" y1="-4.791" x2="48.582" y2="-2.16"/>

			<line style="fill-rule:evenodd;clip-rule:evenodd;fill:none;stroke:#00AEEF;stroke-width:0.58;" x1="89.485" y1="-7.109" x2="90.733" y2="-9.658"/>

			<line style="fill-rule:evenodd;clip-rule:evenodd;fill:none;stroke:#00AEEF;stroke-width:0.58;" x1="80.598" y1="-5.197" x2="83.423" y2="-5.467"/>

			<line style="fill-rule:evenodd;clip-rule:evenodd;fill:none;stroke:#00AEEF;stroke-width:0.58;" x1="73.961" y1="-5.76" x2="75.939" y2="-7.795"/>

			<line style="fill-rule:evenodd;clip-rule:evenodd;fill:none;stroke:#00AEEF;stroke-width:0.58;" x1="70.197" y1="-4.791" x2="71.261" y2="-2.16"/>

			<line style="fill-rule:evenodd;clip-rule:evenodd;fill:none;stroke:#00AEEF;stroke-width:0.58;" x1="16.266" y1="-11.223" x2="15.949" y2="-9.557"/>

			<line style="fill-rule:evenodd;clip-rule:evenodd;fill:none;stroke:#00AEEF;stroke-width:0.58;" x1="38.945" y1="-11.223" x2="38.628" y2="-9.557"/>

			<line style="fill-rule:evenodd;clip-rule:evenodd;fill:none;stroke:#00AEEF;stroke-width:0.58;" x1="61.624" y1="-11.223" x2="61.307" y2="-9.557"/>

			<line style="fill-rule:evenodd;clip-rule:evenodd;fill:none;stroke:#00AEEF;stroke-width:0.58;" x1="84.303" y1="-11.223" x2="83.986" y2="-9.557"/>
	</g>
</svg>
