<?xml version="1.0"?>
<!-- Converted with SVG Converter - Version 0.9.5 (Compiled Fri Feb 21 09:53:38 2020) - Copyright (C) 2011 Nokia -->
<svg xmlns="http://www.w3.org/2000/svg" y="0px" xml:space="preserve" width="17.794" viewBox="1.341 -19.048 17.794 17.795" x="0px" version="1.1" height="17.795" xmlns:xlink="http://www.w3.org/1999/xlink" baseProfile="tiny">
 <g>
  <rect y="-19.048" width="17.794" x="1.341" style="fill:none;" height="17.795"/>
  <rect y="-19.048" width="17.794" x="1.341" height="17.795"/>
  <line x1="16.875" y1="-17.884" y2="-16.233" x2="18.161" style="fill:none;stroke:#FFFFFF;stroke-width:0.55;"/>
  <line x1="18.139" y1="-16.249" y2="-18.124" x2="19.125" style="fill:none;stroke:#FFFFFF;stroke-width:0.55;"/>
  <line x1="5.899" y1="-17.118" y2="-19" x2="4.983" style="fill:none;stroke:#FFFFFF;stroke-width:0.55;"/>
  <line x1="5.001" y1="-18.979" y2="-17.349" x2="3.65" style="fill:none;stroke:#FFFFFF;stroke-width:0.55;"/>
  <line x1="3.029" y1="-4.566" y2="-5.016" x2="5.072" style="fill:none;stroke:#FFFFFF;stroke-width:0.55;"/>
  <line x1="5.049" y1="-5.004" y2="-6.699" x2="3.78" style="fill:none;stroke:#FFFFFF;stroke-width:0.55;"/>
  <line x1="4.345" y1="-11.518" y2="-13.153" x2="3.041" style="fill:none;stroke:#FFFFFF;stroke-width:0.55;"/>
  <line x1="3.063" y1="-13.139" y2="-11.253" x2="2.1" style="fill:none;stroke:#FFFFFF;stroke-width:0.55;"/>
  <line x1="7.601" y1="-12.594" y2="-12.577" x2="9.693" style="fill:none;stroke:#FFFFFF;stroke-width:0.55;"/>
  <line x1="9.667" y1="-12.57" y2="-14.507" x2="8.807" style="fill:none;stroke:#FFFFFF;stroke-width:0.55;"/>
  <line x1="15.337" y1="-2.1" y2="-3.68" x2="16.708" style="fill:none;stroke:#FFFFFF;stroke-width:0.55;"/>
  <line x1="16.697" y1="-3.655" y2="-4.26" x2="14.668" style="fill:none;stroke:#FFFFFF;stroke-width:0.55;"/>
  <line x1="12.036" y1="-18.033" y2="-15.979" x2="11.64" style="fill:none;stroke:#FFFFFF;stroke-width:0.55;"/>
  <line x1="11.638" y1="-16.007" y2="-16.501" x2="13.697" style="fill:none;stroke:#FFFFFF;stroke-width:0.55;"/>
  <line x1="14.658" y1="-12.029" y2="-13.753" x2="15.845" style="fill:none;stroke:#FFFFFF;stroke-width:0.55;"/>
  <line x1="15.836" y1="-13.727" y2="-14.102" x2="13.753" style="fill:none;stroke:#FFFFFF;stroke-width:0.55;"/>
  <line x1="9.482" y1="-4.286" y2="-2.382" x2="8.618" style="fill:none;stroke:#FFFFFF;stroke-width:0.55;"/>
  <line x1="8.622" y1="-2.407" y2="-2.407" x2="10.74" style="fill:none;stroke:#FFFFFF;stroke-width:0.55;"/>
  <line x1="9.275" y1="-9.139" y2="-9.302" x2="7.189" style="fill:none;stroke:#FFFFFF;stroke-width:0.55;"/>
  <line x1="7.215" y1="-9.307" y2="-7.315" x2="7.937" style="fill:none;stroke:#FFFFFF;stroke-width:0.55;"/>
  <line x1="17.826" y1="-9.243" y2="-7.339" x2="16.962" style="fill:none;stroke:#FFFFFF;stroke-width:0.55;"/>
  <line x1="16.966" y1="-7.364" y2="-7.364" x2="19.083" style="fill:none;stroke:#FFFFFF;stroke-width:0.55;"/>
  <line x1="13.694" y1="-6.697" y2="-8.789" x2="13.75" style="fill:none;stroke:#FFFFFF;stroke-width:0.55;"/>
  <line x1="13.757" y1="-8.763" y2="-7.94" x2="11.807" style="fill:none;stroke:#FFFFFF;stroke-width:0.55;"/>
 </g>
</svg>
