<?xml version="1.0"?>
<!-- Converted with SVG Converter - Version 0.9.5 (Compiled Fri Feb 21 09:53:38 2020) - Copyright (C) 2011 Nokia -->
<svg xmlns="http://www.w3.org/2000/svg" xml:space="preserve" version="1.1" baseProfile="tiny" viewBox="1.341 -19.048 17.794 17.795" height="17.795" y="0px" width="17.794" xmlns:xlink="http://www.w3.org/1999/xlink" x="0px">
 <g>
  <rect style="fill:none;" height="17.795" y="-19.048" width="17.794" x="1.341"/>
  <line style="fill:none;stroke:#EC008C;stroke-width:0.55;" y2="-16.233" x1="16.875" x2="18.161" y1="-17.884"/>
  <line style="fill:none;stroke:#EC008C;stroke-width:0.55;" y2="-18.124" x1="18.139" x2="19.125" y1="-16.249"/>
  <line style="fill:none;stroke:#EC008C;stroke-width:0.55;" y2="-19" x1="5.899" x2="4.983" y1="-17.118"/>
  <line style="fill:none;stroke:#EC008C;stroke-width:0.55;" y2="-17.349" x1="5.001" x2="3.65" y1="-18.979"/>
  <line style="fill:none;stroke:#EC008C;stroke-width:0.55;" y2="-5.016" x1="3.029" x2="5.072" y1="-4.566"/>
  <line style="fill:none;stroke:#EC008C;stroke-width:0.55;" y2="-6.699" x1="5.049" x2="3.78" y1="-5.004"/>
  <line style="fill:none;stroke:#EC008C;stroke-width:0.55;" y2="-13.153" x1="4.345" x2="3.041" y1="-11.518"/>
  <line style="fill:none;stroke:#EC008C;stroke-width:0.55;" y2="-11.253" x1="3.063" x2="2.1" y1="-13.139"/>
  <line style="fill:none;stroke:#EC008C;stroke-width:0.55;" y2="-12.577" x1="7.601" x2="9.693" y1="-12.594"/>
  <line style="fill:none;stroke:#EC008C;stroke-width:0.55;" y2="-14.507" x1="9.667" x2="8.807" y1="-12.57"/>
  <line style="fill:none;stroke:#EC008C;stroke-width:0.55;" y2="-3.68" x1="15.337" x2="16.708" y1="-2.1"/>
  <line style="fill:none;stroke:#EC008C;stroke-width:0.55;" y2="-4.26" x1="16.697" x2="14.668" y1="-3.655"/>
  <line style="fill:none;stroke:#EC008C;stroke-width:0.55;" y2="-15.979" x1="12.036" x2="11.64" y1="-18.033"/>
  <line style="fill:none;stroke:#EC008C;stroke-width:0.55;" y2="-16.501" x1="11.638" x2="13.697" y1="-16.007"/>
  <line style="fill:none;stroke:#EC008C;stroke-width:0.55;" y2="-13.753" x1="14.658" x2="15.845" y1="-12.029"/>
  <line style="fill:none;stroke:#EC008C;stroke-width:0.55;" y2="-14.102" x1="15.836" x2="13.753" y1="-13.727"/>
  <line style="fill:none;stroke:#EC008C;stroke-width:0.55;" y2="-2.382" x1="9.482" x2="8.618" y1="-4.286"/>
  <line style="fill:none;stroke:#EC008C;stroke-width:0.55;" y2="-2.407" x1="8.622" x2="10.74" y1="-2.407"/>
  <line style="fill:none;stroke:#EC008C;stroke-width:0.55;" y2="-9.302" x1="9.275" x2="7.189" y1="-9.139"/>
  <line style="fill:none;stroke:#EC008C;stroke-width:0.55;" y2="-7.315" x1="7.215" x2="7.937" y1="-9.307"/>
  <line style="fill:none;stroke:#EC008C;stroke-width:0.55;" y2="-7.339" x1="17.826" x2="16.962" y1="-9.243"/>
  <line style="fill:none;stroke:#EC008C;stroke-width:0.55;" y2="-7.364" x1="16.966" x2="19.083" y1="-7.364"/>
  <line style="fill:none;stroke:#EC008C;stroke-width:0.55;" y2="-8.789" x1="13.694" x2="13.75" y1="-6.697"/>
  <line style="fill:none;stroke:#EC008C;stroke-width:0.55;" y2="-7.94" x1="13.757" x2="11.807" y1="-8.763"/>
 </g>
</svg>
