<?xml version="1.0"?>
<!-- Converted with SVG Converter - Version 0.9.5 (Compiled Fri Feb 21 09:53:38 2020) - Copyright (C) 2011 Nokia -->
<svg xmlns="http://www.w3.org/2000/svg" xml:space="preserve" xmlns:xlink="http://www.w3.org/1999/xlink" x="0px" width="17.794" height="17.795" viewBox="1.341 -19.048 17.794 17.795" baseProfile="tiny" version="1.1" y="0px">
 <g>
  <rect x="1.341" width="17.794" height="17.795" style="fill:none;" y="-19.048"/>
  <line y1="-17.884" y2="-16.233" x1="16.875" style="fill:none;stroke:#00AEEF;stroke-width:0.55;" x2="18.161"/>
  <line y1="-16.249" y2="-18.124" x1="18.139" style="fill:none;stroke:#00AEEF;stroke-width:0.55;" x2="19.125"/>
  <line y1="-17.118" y2="-19" x1="5.899" style="fill:none;stroke:#00AEEF;stroke-width:0.55;" x2="4.983"/>
  <line y1="-18.979" y2="-17.349" x1="5.001" style="fill:none;stroke:#00AEEF;stroke-width:0.55;" x2="3.65"/>
  <line y1="-4.566" y2="-5.016" x1="3.029" style="fill:none;stroke:#00AEEF;stroke-width:0.55;" x2="5.072"/>
  <line y1="-5.004" y2="-6.699" x1="5.049" style="fill:none;stroke:#00AEEF;stroke-width:0.55;" x2="3.78"/>
  <line y1="-11.518" y2="-13.153" x1="4.345" style="fill:none;stroke:#00AEEF;stroke-width:0.55;" x2="3.041"/>
  <line y1="-13.139" y2="-11.253" x1="3.063" style="fill:none;stroke:#00AEEF;stroke-width:0.55;" x2="2.1"/>
  <line y1="-12.594" y2="-12.577" x1="7.601" style="fill:none;stroke:#00AEEF;stroke-width:0.55;" x2="9.693"/>
  <line y1="-12.57" y2="-14.507" x1="9.667" style="fill:none;stroke:#00AEEF;stroke-width:0.55;" x2="8.807"/>
  <line y1="-2.1" y2="-3.68" x1="15.337" style="fill:none;stroke:#00AEEF;stroke-width:0.55;" x2="16.708"/>
  <line y1="-3.655" y2="-4.26" x1="16.697" style="fill:none;stroke:#00AEEF;stroke-width:0.55;" x2="14.668"/>
  <line y1="-18.033" y2="-15.979" x1="12.036" style="fill:none;stroke:#00AEEF;stroke-width:0.55;" x2="11.64"/>
  <line y1="-16.007" y2="-16.501" x1="11.638" style="fill:none;stroke:#00AEEF;stroke-width:0.55;" x2="13.697"/>
  <line y1="-12.029" y2="-13.753" x1="14.658" style="fill:none;stroke:#00AEEF;stroke-width:0.55;" x2="15.845"/>
  <line y1="-13.727" y2="-14.102" x1="15.836" style="fill:none;stroke:#00AEEF;stroke-width:0.55;" x2="13.753"/>
  <line y1="-4.286" y2="-2.382" x1="9.482" style="fill:none;stroke:#00AEEF;stroke-width:0.55;" x2="8.618"/>
  <line y1="-2.407" y2="-2.407" x1="8.622" style="fill:none;stroke:#00AEEF;stroke-width:0.55;" x2="10.74"/>
  <line y1="-9.139" y2="-9.302" x1="9.275" style="fill:none;stroke:#00AEEF;stroke-width:0.55;" x2="7.189"/>
  <line y1="-9.307" y2="-7.315" x1="7.215" style="fill:none;stroke:#00AEEF;stroke-width:0.55;" x2="7.937"/>
  <line y1="-9.243" y2="-7.339" x1="17.826" style="fill:none;stroke:#00AEEF;stroke-width:0.55;" x2="16.962"/>
  <line y1="-7.364" y2="-7.364" x1="16.966" style="fill:none;stroke:#00AEEF;stroke-width:0.55;" x2="19.083"/>
  <line y1="-6.697" y2="-8.789" x1="13.694" style="fill:none;stroke:#00AEEF;stroke-width:0.55;" x2="13.75"/>
  <line y1="-8.763" y2="-7.94" x1="13.757" style="fill:none;stroke:#00AEEF;stroke-width:0.55;" x2="11.807"/>
 </g>
</svg>
