<?xml version="1.0"?>
<!-- Converted with SVG Converter - Version 0.9.5 (Compiled Fri Feb 21 09:53:38 2020) - Copyright (C) 2011 Nokia -->
<svg xmlns="http://www.w3.org/2000/svg" baseProfile="tiny" xmlns:xlink="http://www.w3.org/1999/xlink" xml:space="preserve" width="17.794" x="0px" viewBox="1.341 -19.048 17.794 17.795" height="17.795" y="0px" version="1.1">
 <g>
  <rect width="17.794" x="1.341" style="fill:none;" height="17.795" y="-19.048"/>
  <rect width="17.794" x="1.341" height="17.795" y="-19.048"/>
  <line x2="18.161" y2="-16.233" style="fill:none;stroke:#FFFFFF;stroke-width:0.55;" y1="-17.884" x1="16.875"/>
  <line x2="19.125" y2="-18.124" style="fill:none;stroke:#FFFFFF;stroke-width:0.55;" y1="-16.249" x1="18.139"/>
  <line x2="4.983" y2="-19" style="fill:none;stroke:#FFFFFF;stroke-width:0.55;" y1="-17.118" x1="5.899"/>
  <line x2="3.65" y2="-17.349" style="fill:none;stroke:#FFFFFF;stroke-width:0.55;" y1="-18.979" x1="5.001"/>
  <line x2="5.072" y2="-5.016" style="fill:none;stroke:#FFFFFF;stroke-width:0.55;" y1="-4.566" x1="3.029"/>
  <line x2="3.78" y2="-6.699" style="fill:none;stroke:#FFFFFF;stroke-width:0.55;" y1="-5.004" x1="5.049"/>
  <line x2="3.041" y2="-13.153" style="fill:none;stroke:#FFFFFF;stroke-width:0.55;" y1="-11.518" x1="4.345"/>
  <line x2="2.1" y2="-11.253" style="fill:none;stroke:#FFFFFF;stroke-width:0.55;" y1="-13.139" x1="3.063"/>
  <line x2="9.693" y2="-12.577" style="fill:none;stroke:#FFFFFF;stroke-width:0.55;" y1="-12.594" x1="7.601"/>
  <line x2="8.807" y2="-14.507" style="fill:none;stroke:#FFFFFF;stroke-width:0.55;" y1="-12.57" x1="9.667"/>
  <line x2="16.708" y2="-3.68" style="fill:none;stroke:#FFFFFF;stroke-width:0.55;" y1="-2.1" x1="15.337"/>
  <line x2="14.668" y2="-4.26" style="fill:none;stroke:#FFFFFF;stroke-width:0.55;" y1="-3.655" x1="16.697"/>
  <line x2="11.64" y2="-15.979" style="fill:none;stroke:#FFFFFF;stroke-width:0.55;" y1="-18.033" x1="12.036"/>
  <line x2="13.697" y2="-16.501" style="fill:none;stroke:#FFFFFF;stroke-width:0.55;" y1="-16.007" x1="11.638"/>
  <line x2="15.845" y2="-13.753" style="fill:none;stroke:#FFFFFF;stroke-width:0.55;" y1="-12.029" x1="14.658"/>
  <line x2="13.753" y2="-14.102" style="fill:none;stroke:#FFFFFF;stroke-width:0.55;" y1="-13.727" x1="15.836"/>
  <line x2="8.618" y2="-2.382" style="fill:none;stroke:#FFFFFF;stroke-width:0.55;" y1="-4.286" x1="9.482"/>
  <line x2="10.74" y2="-2.407" style="fill:none;stroke:#FFFFFF;stroke-width:0.55;" y1="-2.407" x1="8.622"/>
  <line x2="7.189" y2="-9.302" style="fill:none;stroke:#FFFFFF;stroke-width:0.55;" y1="-9.139" x1="9.275"/>
  <line x2="7.937" y2="-7.315" style="fill:none;stroke:#FFFFFF;stroke-width:0.55;" y1="-9.307" x1="7.215"/>
  <line x2="16.962" y2="-7.339" style="fill:none;stroke:#FFFFFF;stroke-width:0.55;" y1="-9.243" x1="17.826"/>
  <line x2="19.083" y2="-7.364" style="fill:none;stroke:#FFFFFF;stroke-width:0.55;" y1="-7.364" x1="16.966"/>
  <line x2="13.75" y2="-8.789" style="fill:none;stroke:#FFFFFF;stroke-width:0.55;" y1="-6.697" x1="13.694"/>
  <line x2="11.807" y2="-7.94" style="fill:none;stroke:#FFFFFF;stroke-width:0.55;" y1="-8.763" x1="13.757"/>
 </g>
</svg>
