<?xml version="1.0"?>
<!-- Converted with SVG Converter - Version 0.9.5 (Compiled Fri Feb 21 09:53:38 2020) - Copyright (C) 2011 Nokia -->
<svg xmlns="http://www.w3.org/2000/svg" version="1.1" width="17.794" baseProfile="tiny" height="17.795" viewBox="1.341 -19.048 17.794 17.795" x="0px" y="0px" xml:space="preserve" xmlns:xlink="http://www.w3.org/1999/xlink">
 <g>
  <rect width="17.794" style="fill:none;" height="17.795" x="1.341" y="-19.048"/>
  <line x2="18.161" style="fill:none;stroke:#00AEEF;stroke-width:0.55;" y2="-16.233" x1="16.875" y1="-17.884"/>
  <line x2="19.125" style="fill:none;stroke:#00AEEF;stroke-width:0.55;" y2="-18.124" x1="18.139" y1="-16.249"/>
  <line x2="4.983" style="fill:none;stroke:#00AEEF;stroke-width:0.55;" y2="-19" x1="5.899" y1="-17.118"/>
  <line x2="3.65" style="fill:none;stroke:#00AEEF;stroke-width:0.55;" y2="-17.349" x1="5.001" y1="-18.979"/>
  <line x2="5.072" style="fill:none;stroke:#00AEEF;stroke-width:0.55;" y2="-5.016" x1="3.029" y1="-4.566"/>
  <line x2="3.78" style="fill:none;stroke:#00AEEF;stroke-width:0.55;" y2="-6.699" x1="5.049" y1="-5.004"/>
  <line x2="3.041" style="fill:none;stroke:#00AEEF;stroke-width:0.55;" y2="-13.153" x1="4.345" y1="-11.518"/>
  <line x2="2.1" style="fill:none;stroke:#00AEEF;stroke-width:0.55;" y2="-11.253" x1="3.063" y1="-13.139"/>
  <line x2="9.693" style="fill:none;stroke:#00AEEF;stroke-width:0.55;" y2="-12.577" x1="7.601" y1="-12.594"/>
  <line x2="8.807" style="fill:none;stroke:#00AEEF;stroke-width:0.55;" y2="-14.507" x1="9.667" y1="-12.57"/>
  <line x2="16.708" style="fill:none;stroke:#00AEEF;stroke-width:0.55;" y2="-3.68" x1="15.337" y1="-2.1"/>
  <line x2="14.668" style="fill:none;stroke:#00AEEF;stroke-width:0.55;" y2="-4.26" x1="16.697" y1="-3.655"/>
  <line x2="11.64" style="fill:none;stroke:#00AEEF;stroke-width:0.55;" y2="-15.979" x1="12.036" y1="-18.033"/>
  <line x2="13.697" style="fill:none;stroke:#00AEEF;stroke-width:0.55;" y2="-16.501" x1="11.638" y1="-16.007"/>
  <line x2="15.845" style="fill:none;stroke:#00AEEF;stroke-width:0.55;" y2="-13.753" x1="14.658" y1="-12.029"/>
  <line x2="13.753" style="fill:none;stroke:#00AEEF;stroke-width:0.55;" y2="-14.102" x1="15.836" y1="-13.727"/>
  <line x2="8.618" style="fill:none;stroke:#00AEEF;stroke-width:0.55;" y2="-2.382" x1="9.482" y1="-4.286"/>
  <line x2="10.74" style="fill:none;stroke:#00AEEF;stroke-width:0.55;" y2="-2.407" x1="8.622" y1="-2.407"/>
  <line x2="7.189" style="fill:none;stroke:#00AEEF;stroke-width:0.55;" y2="-9.302" x1="9.275" y1="-9.139"/>
  <line x2="7.937" style="fill:none;stroke:#00AEEF;stroke-width:0.55;" y2="-7.315" x1="7.215" y1="-9.307"/>
  <line x2="16.962" style="fill:none;stroke:#00AEEF;stroke-width:0.55;" y2="-7.339" x1="17.826" y1="-9.243"/>
  <line x2="19.083" style="fill:none;stroke:#00AEEF;stroke-width:0.55;" y2="-7.364" x1="16.966" y1="-7.364"/>
  <line x2="13.75" style="fill:none;stroke:#00AEEF;stroke-width:0.55;" y2="-8.789" x1="13.694" y1="-6.697"/>
  <line x2="11.807" style="fill:none;stroke:#00AEEF;stroke-width:0.55;" y2="-7.94" x1="13.757" y1="-8.763"/>
 </g>
</svg>
