<?xml version="1.0"?>
<!-- Converted with SVG Converter - Version 0.9.5 (Compiled Fri Feb 21 09:53:38 2020) - Copyright (C) 2011 Nokia -->
<svg xmlns="http://www.w3.org/2000/svg" y="0px" x="0px" baseProfile="tiny" height="17.795" xml:space="preserve" xmlns:xlink="http://www.w3.org/1999/xlink" version="1.1" width="17.795" viewBox="0 -17.795 17.795 17.795">
 <g>
  <rect y="-17.795" x="0" height="17.795" width="17.795" style="fill:none;"/>
  <line x2="16.819" x1="15.535" y1="-16.631" y2="-14.981" style="fill:none;stroke:#ED1B2E;stroke-width:0.55;"/>
  <line x2="17.783" x1="16.798" y1="-14.996" y2="-16.871" style="fill:none;stroke:#ED1B2E;stroke-width:0.55;"/>
  <line x2="3.642" x1="4.558" y1="-15.865" y2="-17.747" style="fill:none;stroke:#ED1B2E;stroke-width:0.55;"/>
  <line x2="2.309" x1="3.66" y1="-17.727" y2="-16.096" style="fill:none;stroke:#ED1B2E;stroke-width:0.55;"/>
  <line x2="3.731" x1="1.689" y1="-3.313" y2="-3.763" style="fill:none;stroke:#ED1B2E;stroke-width:0.55;"/>
  <line x2="2.44" x1="3.708" y1="-3.751" y2="-5.446" style="fill:none;stroke:#ED1B2E;stroke-width:0.55;"/>
  <line x2="1.7" x1="3.004" y1="-10.265" y2="-11.9" style="fill:none;stroke:#ED1B2E;stroke-width:0.55;"/>
  <line x2="0.76" x1="1.723" y1="-11.886" y2="-10" style="fill:none;stroke:#ED1B2E;stroke-width:0.55;"/>
  <line x2="8.352" x1="6.261" y1="-11.341" y2="-11.324" style="fill:none;stroke:#ED1B2E;stroke-width:0.55;"/>
  <line x2="7.466" x1="8.326" y1="-11.317" y2="-13.254" style="fill:none;stroke:#ED1B2E;stroke-width:0.55;"/>
  <line x2="15.367" x1="13.996" y1="-0.847" y2="-2.427" style="fill:none;stroke:#ED1B2E;stroke-width:0.55;"/>
  <line x2="13.327" x1="15.356" y1="-2.402" y2="-3.007" style="fill:none;stroke:#ED1B2E;stroke-width:0.55;"/>
  <line x2="10.299" x1="10.695" y1="-16.78" y2="-14.727" style="fill:none;stroke:#ED1B2E;stroke-width:0.55;"/>
  <line x2="12.356" x1="10.298" y1="-14.754" y2="-15.248" style="fill:none;stroke:#ED1B2E;stroke-width:0.55;"/>
  <line x2="14.504" x1="13.317" y1="-10.776" y2="-12.5" style="fill:none;stroke:#ED1B2E;stroke-width:0.55;"/>
  <line x2="12.412" x1="14.495" y1="-12.474" y2="-12.849" style="fill:none;stroke:#ED1B2E;stroke-width:0.55;"/>
  <line x2="7.277" x1="8.141" y1="-3.033" y2="-1.129" style="fill:none;stroke:#ED1B2E;stroke-width:0.55;"/>
  <line x2="9.399" x1="7.281" y1="-1.154" y2="-1.154" style="fill:none;stroke:#ED1B2E;stroke-width:0.55;"/>
  <line x2="5.849" x1="7.934" y1="-7.886" y2="-8.049" style="fill:none;stroke:#ED1B2E;stroke-width:0.55;"/>
  <line x2="6.596" x1="5.874" y1="-8.054" y2="-6.062" style="fill:none;stroke:#ED1B2E;stroke-width:0.55;"/>
  <line x2="15.621" x1="16.485" y1="-7.99" y2="-6.086" style="fill:none;stroke:#ED1B2E;stroke-width:0.55;"/>
  <line x2="17.742" x1="15.625" y1="-6.111" y2="-6.111" style="fill:none;stroke:#ED1B2E;stroke-width:0.55;"/>
  <line x2="12.409" x1="12.354" y1="-5.444" y2="-7.536" style="fill:none;stroke:#ED1B2E;stroke-width:0.55;"/>
  <line x2="10.466" x1="12.416" y1="-7.51" y2="-6.688" style="fill:none;stroke:#ED1B2E;stroke-width:0.55;"/>
 </g>
</svg>
