<?xml version="1.0"?>
<!-- Converted with SVG Converter - Version 0.9.5 (Compiled Fri Feb 21 09:53:38 2020) - Copyright (C) 2011 Nokia -->
<svg xmlns="http://www.w3.org/2000/svg" x="0px" height="17.795" xmlns:xlink="http://www.w3.org/1999/xlink" version="1.1" baseProfile="tiny" y="0px" width="17.795" viewBox="0 -17.795 17.795 17.795" xml:space="preserve">
 <g>
  <rect x="0" height="17.795" style="fill:none;" y="-17.795" width="17.795"/>
  <line style="fill:none;stroke:#ED1B2E;stroke-width:0.55;" x2="16.819" y2="-14.981" y1="-16.631" x1="15.535"/>
  <line style="fill:none;stroke:#ED1B2E;stroke-width:0.55;" x2="17.783" y2="-16.871" y1="-14.996" x1="16.798"/>
  <line style="fill:none;stroke:#ED1B2E;stroke-width:0.55;" x2="3.642" y2="-17.747" y1="-15.865" x1="4.558"/>
  <line style="fill:none;stroke:#ED1B2E;stroke-width:0.55;" x2="2.309" y2="-16.096" y1="-17.727" x1="3.66"/>
  <line style="fill:none;stroke:#ED1B2E;stroke-width:0.55;" x2="3.731" y2="-3.763" y1="-3.313" x1="1.689"/>
  <line style="fill:none;stroke:#ED1B2E;stroke-width:0.55;" x2="2.44" y2="-5.446" y1="-3.751" x1="3.708"/>
  <line style="fill:none;stroke:#ED1B2E;stroke-width:0.55;" x2="1.7" y2="-11.9" y1="-10.265" x1="3.004"/>
  <line style="fill:none;stroke:#ED1B2E;stroke-width:0.55;" x2="0.76" y2="-10" y1="-11.886" x1="1.723"/>
  <line style="fill:none;stroke:#ED1B2E;stroke-width:0.55;" x2="8.352" y2="-11.324" y1="-11.341" x1="6.261"/>
  <line style="fill:none;stroke:#ED1B2E;stroke-width:0.55;" x2="7.466" y2="-13.254" y1="-11.317" x1="8.326"/>
  <line style="fill:none;stroke:#ED1B2E;stroke-width:0.55;" x2="15.367" y2="-2.427" y1="-0.847" x1="13.996"/>
  <line style="fill:none;stroke:#ED1B2E;stroke-width:0.55;" x2="13.327" y2="-3.007" y1="-2.402" x1="15.356"/>
  <line style="fill:none;stroke:#ED1B2E;stroke-width:0.55;" x2="10.299" y2="-14.727" y1="-16.78" x1="10.695"/>
  <line style="fill:none;stroke:#ED1B2E;stroke-width:0.55;" x2="12.356" y2="-15.248" y1="-14.754" x1="10.298"/>
  <line style="fill:none;stroke:#ED1B2E;stroke-width:0.55;" x2="14.504" y2="-12.5" y1="-10.776" x1="13.317"/>
  <line style="fill:none;stroke:#ED1B2E;stroke-width:0.55;" x2="12.412" y2="-12.849" y1="-12.474" x1="14.495"/>
  <line style="fill:none;stroke:#ED1B2E;stroke-width:0.55;" x2="7.277" y2="-1.129" y1="-3.033" x1="8.141"/>
  <line style="fill:none;stroke:#ED1B2E;stroke-width:0.55;" x2="9.399" y2="-1.154" y1="-1.154" x1="7.281"/>
  <line style="fill:none;stroke:#ED1B2E;stroke-width:0.55;" x2="5.849" y2="-8.049" y1="-7.886" x1="7.934"/>
  <line style="fill:none;stroke:#ED1B2E;stroke-width:0.55;" x2="6.596" y2="-6.062" y1="-8.054" x1="5.874"/>
  <line style="fill:none;stroke:#ED1B2E;stroke-width:0.55;" x2="15.621" y2="-6.086" y1="-7.99" x1="16.485"/>
  <line style="fill:none;stroke:#ED1B2E;stroke-width:0.55;" x2="17.742" y2="-6.111" y1="-6.111" x1="15.625"/>
  <line style="fill:none;stroke:#ED1B2E;stroke-width:0.55;" x2="12.409" y2="-7.536" y1="-5.444" x1="12.354"/>
  <line style="fill:none;stroke:#ED1B2E;stroke-width:0.55;" x2="10.466" y2="-6.688" y1="-7.51" x1="12.416"/>
 </g>
</svg>
