<?xml version="1.0"?>
<!-- Converted with SVG Converter - Version 0.9.5 (Compiled Fri Feb 21 09:53:38 2020) - Copyright (C) 2011 Nokia -->
<svg xmlns="http://www.w3.org/2000/svg" y="0px" xml:space="preserve" width="17.795" xmlns:xlink="http://www.w3.org/1999/xlink" x="0px" baseProfile="tiny" viewBox="0 -17.795 17.795 17.795" version="1.1" height="17.795">
 <g>
  <rect y="-17.795" width="17.795" x="0" style="fill:none;" height="17.795"/>
  <line x2="16.819" y1="-16.631" x1="15.535" style="fill:none;stroke:#ED1B2E;stroke-width:0.55;" y2="-14.981"/>
  <line x2="17.783" y1="-14.996" x1="16.798" style="fill:none;stroke:#ED1B2E;stroke-width:0.55;" y2="-16.871"/>
  <line x2="3.642" y1="-15.865" x1="4.558" style="fill:none;stroke:#ED1B2E;stroke-width:0.55;" y2="-17.747"/>
  <line x2="2.309" y1="-17.727" x1="3.66" style="fill:none;stroke:#ED1B2E;stroke-width:0.55;" y2="-16.096"/>
  <line x2="3.731" y1="-3.313" x1="1.689" style="fill:none;stroke:#ED1B2E;stroke-width:0.55;" y2="-3.763"/>
  <line x2="2.44" y1="-3.751" x1="3.708" style="fill:none;stroke:#ED1B2E;stroke-width:0.55;" y2="-5.446"/>
  <line x2="1.7" y1="-10.265" x1="3.004" style="fill:none;stroke:#ED1B2E;stroke-width:0.55;" y2="-11.9"/>
  <line x2="0.76" y1="-11.886" x1="1.723" style="fill:none;stroke:#ED1B2E;stroke-width:0.55;" y2="-10"/>
  <line x2="8.352" y1="-11.341" x1="6.261" style="fill:none;stroke:#ED1B2E;stroke-width:0.55;" y2="-11.324"/>
  <line x2="7.466" y1="-11.317" x1="8.326" style="fill:none;stroke:#ED1B2E;stroke-width:0.55;" y2="-13.254"/>
  <line x2="15.367" y1="-0.847" x1="13.996" style="fill:none;stroke:#ED1B2E;stroke-width:0.55;" y2="-2.427"/>
  <line x2="13.327" y1="-2.402" x1="15.356" style="fill:none;stroke:#ED1B2E;stroke-width:0.55;" y2="-3.007"/>
  <line x2="10.299" y1="-16.78" x1="10.695" style="fill:none;stroke:#ED1B2E;stroke-width:0.55;" y2="-14.727"/>
  <line x2="12.356" y1="-14.754" x1="10.298" style="fill:none;stroke:#ED1B2E;stroke-width:0.55;" y2="-15.248"/>
  <line x2="14.504" y1="-10.776" x1="13.317" style="fill:none;stroke:#ED1B2E;stroke-width:0.55;" y2="-12.5"/>
  <line x2="12.412" y1="-12.474" x1="14.495" style="fill:none;stroke:#ED1B2E;stroke-width:0.55;" y2="-12.849"/>
  <line x2="7.277" y1="-3.033" x1="8.141" style="fill:none;stroke:#ED1B2E;stroke-width:0.55;" y2="-1.129"/>
  <line x2="9.399" y1="-1.154" x1="7.281" style="fill:none;stroke:#ED1B2E;stroke-width:0.55;" y2="-1.154"/>
  <line x2="5.849" y1="-7.886" x1="7.934" style="fill:none;stroke:#ED1B2E;stroke-width:0.55;" y2="-8.049"/>
  <line x2="6.596" y1="-8.054" x1="5.874" style="fill:none;stroke:#ED1B2E;stroke-width:0.55;" y2="-6.062"/>
  <line x2="15.621" y1="-7.99" x1="16.485" style="fill:none;stroke:#ED1B2E;stroke-width:0.55;" y2="-6.086"/>
  <line x2="17.742" y1="-6.111" x1="15.625" style="fill:none;stroke:#ED1B2E;stroke-width:0.55;" y2="-6.111"/>
  <line x2="12.409" y1="-5.444" x1="12.354" style="fill:none;stroke:#ED1B2E;stroke-width:0.55;" y2="-7.536"/>
  <line x2="10.466" y1="-7.51" x1="12.416" style="fill:none;stroke:#ED1B2E;stroke-width:0.55;" y2="-6.688"/>
 </g>
</svg>
