<?xml version="1.0"?>
<!-- Converted with SVG Converter - Version 0.9.6 (Compiled Thu Aug 31 10:01:05 2017) - Copyright (C) 2011 Nokia -->
<svg xmlns="http://www.w3.org/2000/svg" version="1.1" xml:space="preserve" width="17.794" y="0px" baseProfile="tiny" height="17.795" x="0px" viewBox="1.141 -18.848 17.794 17.795" xmlns:xlink="http://www.w3.org/1999/xlink">
 <g>
  <rect width="17.794" y="-18.848" style="fill:none;" height="17.795" x="1.141"/>
  <line y2="-16.033" y1="-17.684" x2="17.96" style="fill:none;stroke:#000000;stroke-width:0.45;" x1="16.675"/>
  <line y2="-17.924" y1="-16.049" x2="18.924" style="fill:none;stroke:#000000;stroke-width:0.45;" x1="17.938"/>
  <line y2="-18.8" y1="-16.918" x2="4.783" style="fill:none;stroke:#000000;stroke-width:0.45;" x1="5.699"/>
  <line y2="-17.148" y1="-18.779" x2="3.45" style="fill:none;stroke:#000000;stroke-width:0.45;" x1="4.801"/>
  <line y2="-4.815" y1="-4.366" x2="4.872" style="fill:none;stroke:#000000;stroke-width:0.45;" x1="2.829"/>
  <line y2="-6.499" y1="-4.804" x2="3.58" style="fill:none;stroke:#000000;stroke-width:0.45;" x1="4.849"/>
  <line y2="-12.953" y1="-11.317" x2="2.841" style="fill:none;stroke:#000000;stroke-width:0.45;" x1="4.145"/>
  <line y2="-11.053" y1="-12.939" x2="1.9" style="fill:none;stroke:#000000;stroke-width:0.45;" x1="2.863"/>
  <line y2="-12.377" y1="-12.394" x2="9.493" style="fill:none;stroke:#000000;stroke-width:0.45;" x1="7.401"/>
  <line y2="-14.307" y1="-12.37" x2="8.607" style="fill:none;stroke:#000000;stroke-width:0.45;" x1="9.467"/>
  <line y2="-3.48" y1="-1.899" x2="16.508" style="fill:none;stroke:#000000;stroke-width:0.45;" x1="15.137"/>
  <line y2="-4.06" y1="-3.455" x2="14.468" style="fill:none;stroke:#000000;stroke-width:0.45;" x1="16.497"/>
  <line y2="-15.779" y1="-17.833" x2="11.44" style="fill:none;stroke:#000000;stroke-width:0.45;" x1="11.836"/>
  <line y2="-16.301" y1="-15.807" x2="13.497" style="fill:none;stroke:#000000;stroke-width:0.45;" x1="11.438"/>
  <line y2="-13.553" y1="-11.829" x2="15.645" style="fill:none;stroke:#000000;stroke-width:0.45;" x1="14.458"/>
  <line y2="-13.901" y1="-13.526" x2="13.553" style="fill:none;stroke:#000000;stroke-width:0.45;" x1="15.636"/>
  <line y2="-2.182" y1="-4.086" x2="8.418" style="fill:none;stroke:#000000;stroke-width:0.45;" x1="9.282"/>
  <line y2="-2.207" y1="-2.207" x2="10.54" style="fill:none;stroke:#000000;stroke-width:0.45;" x1="8.422"/>
  <line y2="-9.102" y1="-8.939" x2="6.989" style="fill:none;stroke:#000000;stroke-width:0.45;" x1="9.075"/>
  <line y2="-7.115" y1="-9.106" x2="7.737" style="fill:none;stroke:#000000;stroke-width:0.45;" x1="7.015"/>
  <line y2="-7.139" y1="-9.043" x2="16.762" style="fill:none;stroke:#000000;stroke-width:0.45;" x1="17.626"/>
  <line y2="-7.164" y1="-7.164" x2="18.883" style="fill:none;stroke:#000000;stroke-width:0.45;" x1="16.766"/>
  <line y2="-8.589" y1="-6.497" x2="13.55" style="fill:none;stroke:#000000;stroke-width:0.45;" x1="13.494"/>
  <line y2="-7.74" y1="-8.562" x2="11.607" style="fill:none;stroke:#000000;stroke-width:0.45;" x1="13.557"/>
 </g>
</svg>
