<?xml version="1.0"?>
<!-- Converted with SVG Converter - Version 0.9.6 (Compiled Thu Aug 31 10:01:05 2017) - Copyright (C) 2011 Nokia -->
<svg xmlns="http://www.w3.org/2000/svg" width="17.794" baseProfile="tiny" version="1.1" xmlns:xlink="http://www.w3.org/1999/xlink" height="17.795" x="0px" viewBox="1.341 -19.048 17.794 17.795" y="0px" xml:space="preserve">
 <g>
  <rect width="17.794" height="17.795" x="1.341" y="-19.048" style="fill:none;"/>
  <line x2="18.161" x1="16.875" y1="-17.884" y2="-16.233" style="fill:none;stroke:#00AEEF;stroke-width:0.55;"/>
  <line x2="19.125" x1="18.139" y1="-16.249" y2="-18.124" style="fill:none;stroke:#00AEEF;stroke-width:0.55;"/>
  <line x2="4.983" x1="5.899" y1="-17.118" y2="-19" style="fill:none;stroke:#00AEEF;stroke-width:0.55;"/>
  <line x2="3.65" x1="5.001" y1="-18.979" y2="-17.349" style="fill:none;stroke:#00AEEF;stroke-width:0.55;"/>
  <line x2="5.072" x1="3.029" y1="-4.566" y2="-5.016" style="fill:none;stroke:#00AEEF;stroke-width:0.55;"/>
  <line x2="3.78" x1="5.049" y1="-5.004" y2="-6.699" style="fill:none;stroke:#00AEEF;stroke-width:0.55;"/>
  <line x2="3.041" x1="4.345" y1="-11.518" y2="-13.153" style="fill:none;stroke:#00AEEF;stroke-width:0.55;"/>
  <line x2="2.1" x1="3.063" y1="-13.139" y2="-11.253" style="fill:none;stroke:#00AEEF;stroke-width:0.55;"/>
  <line x2="9.693" x1="7.601" y1="-12.594" y2="-12.577" style="fill:none;stroke:#00AEEF;stroke-width:0.55;"/>
  <line x2="8.807" x1="9.667" y1="-12.57" y2="-14.507" style="fill:none;stroke:#00AEEF;stroke-width:0.55;"/>
  <line x2="16.708" x1="15.337" y1="-2.1" y2="-3.68" style="fill:none;stroke:#00AEEF;stroke-width:0.55;"/>
  <line x2="14.668" x1="16.697" y1="-3.655" y2="-4.26" style="fill:none;stroke:#00AEEF;stroke-width:0.55;"/>
  <line x2="11.64" x1="12.036" y1="-18.033" y2="-15.979" style="fill:none;stroke:#00AEEF;stroke-width:0.55;"/>
  <line x2="13.697" x1="11.638" y1="-16.007" y2="-16.501" style="fill:none;stroke:#00AEEF;stroke-width:0.55;"/>
  <line x2="15.845" x1="14.658" y1="-12.029" y2="-13.753" style="fill:none;stroke:#00AEEF;stroke-width:0.55;"/>
  <line x2="13.753" x1="15.836" y1="-13.727" y2="-14.102" style="fill:none;stroke:#00AEEF;stroke-width:0.55;"/>
  <line x2="8.618" x1="9.482" y1="-4.286" y2="-2.382" style="fill:none;stroke:#00AEEF;stroke-width:0.55;"/>
  <line x2="10.74" x1="8.622" y1="-2.407" y2="-2.407" style="fill:none;stroke:#00AEEF;stroke-width:0.55;"/>
  <line x2="7.189" x1="9.275" y1="-9.139" y2="-9.302" style="fill:none;stroke:#00AEEF;stroke-width:0.55;"/>
  <line x2="7.937" x1="7.215" y1="-9.307" y2="-7.315" style="fill:none;stroke:#00AEEF;stroke-width:0.55;"/>
  <line x2="16.962" x1="17.826" y1="-9.243" y2="-7.339" style="fill:none;stroke:#00AEEF;stroke-width:0.55;"/>
  <line x2="19.083" x1="16.966" y1="-7.364" y2="-7.364" style="fill:none;stroke:#00AEEF;stroke-width:0.55;"/>
  <line x2="13.75" x1="13.694" y1="-6.697" y2="-8.789" style="fill:none;stroke:#00AEEF;stroke-width:0.55;"/>
  <line x2="11.807" x1="13.757" y1="-8.763" y2="-7.94" style="fill:none;stroke:#00AEEF;stroke-width:0.55;"/>
 </g>
</svg>
