<?xml version="1.0"?>
<!-- Converted with SVG Converter - Version 0.9.5 (Compiled Fri Feb 21 09:53:38 2020) - Copyright (C) 2011 Nokia -->
<svg xmlns="http://www.w3.org/2000/svg" xml:space="preserve" xmlns:xlink="http://www.w3.org/1999/xlink" version="1.1" baseProfile="tiny" x="0px" width="17.794" height="17.795" viewBox="1.141 -18.848 17.794 17.795" y="0px">
 <g>
  <rect style="fill:none;" x="1.141" width="17.794" height="17.795" y="-18.848"/>
  <line y2="-16.033" style="fill:none;stroke:#000000;stroke-width:0.45;" x2="17.96" x1="16.675" y1="-17.684"/>
  <line y2="-17.924" style="fill:none;stroke:#000000;stroke-width:0.45;" x2="18.924" x1="17.938" y1="-16.049"/>
  <line y2="-18.8" style="fill:none;stroke:#000000;stroke-width:0.45;" x2="4.783" x1="5.699" y1="-16.918"/>
  <line y2="-17.148" style="fill:none;stroke:#000000;stroke-width:0.45;" x2="3.45" x1="4.801" y1="-18.779"/>
  <line y2="-4.815" style="fill:none;stroke:#000000;stroke-width:0.45;" x2="4.872" x1="2.829" y1="-4.366"/>
  <line y2="-6.499" style="fill:none;stroke:#000000;stroke-width:0.45;" x2="3.58" x1="4.849" y1="-4.804"/>
  <line y2="-12.953" style="fill:none;stroke:#000000;stroke-width:0.45;" x2="2.841" x1="4.145" y1="-11.317"/>
  <line y2="-11.053" style="fill:none;stroke:#000000;stroke-width:0.45;" x2="1.9" x1="2.863" y1="-12.939"/>
  <line y2="-12.377" style="fill:none;stroke:#000000;stroke-width:0.45;" x2="9.493" x1="7.401" y1="-12.394"/>
  <line y2="-14.307" style="fill:none;stroke:#000000;stroke-width:0.45;" x2="8.607" x1="9.467" y1="-12.37"/>
  <line y2="-3.48" style="fill:none;stroke:#000000;stroke-width:0.45;" x2="16.508" x1="15.137" y1="-1.899"/>
  <line y2="-4.06" style="fill:none;stroke:#000000;stroke-width:0.45;" x2="14.468" x1="16.497" y1="-3.455"/>
  <line y2="-15.779" style="fill:none;stroke:#000000;stroke-width:0.45;" x2="11.44" x1="11.836" y1="-17.833"/>
  <line y2="-16.301" style="fill:none;stroke:#000000;stroke-width:0.45;" x2="13.497" x1="11.438" y1="-15.807"/>
  <line y2="-13.553" style="fill:none;stroke:#000000;stroke-width:0.45;" x2="15.645" x1="14.458" y1="-11.829"/>
  <line y2="-13.901" style="fill:none;stroke:#000000;stroke-width:0.45;" x2="13.553" x1="15.636" y1="-13.526"/>
  <line y2="-2.182" style="fill:none;stroke:#000000;stroke-width:0.45;" x2="8.418" x1="9.282" y1="-4.086"/>
  <line y2="-2.207" style="fill:none;stroke:#000000;stroke-width:0.45;" x2="10.54" x1="8.422" y1="-2.207"/>
  <line y2="-9.102" style="fill:none;stroke:#000000;stroke-width:0.45;" x2="6.989" x1="9.075" y1="-8.939"/>
  <line y2="-7.115" style="fill:none;stroke:#000000;stroke-width:0.45;" x2="7.737" x1="7.015" y1="-9.106"/>
  <line y2="-7.139" style="fill:none;stroke:#000000;stroke-width:0.45;" x2="16.762" x1="17.626" y1="-9.043"/>
  <line y2="-7.164" style="fill:none;stroke:#000000;stroke-width:0.45;" x2="18.883" x1="16.766" y1="-7.164"/>
  <line y2="-8.589" style="fill:none;stroke:#000000;stroke-width:0.45;" x2="13.55" x1="13.494" y1="-6.497"/>
  <line y2="-7.74" style="fill:none;stroke:#000000;stroke-width:0.45;" x2="11.607" x1="13.557" y1="-8.562"/>
 </g>
</svg>
