<?xml version="1.0"?>
<!-- Converted with SVG Converter - Version 0.9.5 (Compiled Fri Feb 21 09:53:38 2020) - Copyright (C) 2011 Nokia -->
<svg xmlns="http://www.w3.org/2000/svg" viewBox="1.341 -19.048 17.794 17.795" y="0px" version="1.1" x="0px" xml:space="preserve" xmlns:xlink="http://www.w3.org/1999/xlink" width="17.794" baseProfile="tiny" height="17.795">
 <g>
  <rect y="-19.048" style="fill:none;" x="1.341" width="17.794" height="17.795"/>
  <line x1="16.875" y2="-16.233" style="fill:none;stroke:#00AEEF;stroke-width:0.55;" x2="18.161" y1="-17.884"/>
  <line x1="18.139" y2="-18.124" style="fill:none;stroke:#00AEEF;stroke-width:0.55;" x2="19.125" y1="-16.249"/>
  <line x1="5.899" y2="-19" style="fill:none;stroke:#00AEEF;stroke-width:0.55;" x2="4.983" y1="-17.118"/>
  <line x1="5.001" y2="-17.349" style="fill:none;stroke:#00AEEF;stroke-width:0.55;" x2="3.65" y1="-18.979"/>
  <line x1="3.029" y2="-5.016" style="fill:none;stroke:#00AEEF;stroke-width:0.55;" x2="5.072" y1="-4.566"/>
  <line x1="5.049" y2="-6.699" style="fill:none;stroke:#00AEEF;stroke-width:0.55;" x2="3.78" y1="-5.004"/>
  <line x1="4.345" y2="-13.153" style="fill:none;stroke:#00AEEF;stroke-width:0.55;" x2="3.041" y1="-11.518"/>
  <line x1="3.063" y2="-11.253" style="fill:none;stroke:#00AEEF;stroke-width:0.55;" x2="2.1" y1="-13.139"/>
  <line x1="7.601" y2="-12.577" style="fill:none;stroke:#00AEEF;stroke-width:0.55;" x2="9.693" y1="-12.594"/>
  <line x1="9.667" y2="-14.507" style="fill:none;stroke:#00AEEF;stroke-width:0.55;" x2="8.807" y1="-12.57"/>
  <line x1="15.337" y2="-3.68" style="fill:none;stroke:#00AEEF;stroke-width:0.55;" x2="16.708" y1="-2.1"/>
  <line x1="16.697" y2="-4.26" style="fill:none;stroke:#00AEEF;stroke-width:0.55;" x2="14.668" y1="-3.655"/>
  <line x1="12.036" y2="-15.979" style="fill:none;stroke:#00AEEF;stroke-width:0.55;" x2="11.64" y1="-18.033"/>
  <line x1="11.638" y2="-16.501" style="fill:none;stroke:#00AEEF;stroke-width:0.55;" x2="13.697" y1="-16.007"/>
  <line x1="14.658" y2="-13.753" style="fill:none;stroke:#00AEEF;stroke-width:0.55;" x2="15.845" y1="-12.029"/>
  <line x1="15.836" y2="-14.102" style="fill:none;stroke:#00AEEF;stroke-width:0.55;" x2="13.753" y1="-13.727"/>
  <line x1="9.482" y2="-2.382" style="fill:none;stroke:#00AEEF;stroke-width:0.55;" x2="8.618" y1="-4.286"/>
  <line x1="8.622" y2="-2.407" style="fill:none;stroke:#00AEEF;stroke-width:0.55;" x2="10.74" y1="-2.407"/>
  <line x1="9.275" y2="-9.302" style="fill:none;stroke:#00AEEF;stroke-width:0.55;" x2="7.189" y1="-9.139"/>
  <line x1="7.215" y2="-7.315" style="fill:none;stroke:#00AEEF;stroke-width:0.55;" x2="7.937" y1="-9.307"/>
  <line x1="17.826" y2="-7.339" style="fill:none;stroke:#00AEEF;stroke-width:0.55;" x2="16.962" y1="-9.243"/>
  <line x1="16.966" y2="-7.364" style="fill:none;stroke:#00AEEF;stroke-width:0.55;" x2="19.083" y1="-7.364"/>
  <line x1="13.694" y2="-8.789" style="fill:none;stroke:#00AEEF;stroke-width:0.55;" x2="13.75" y1="-6.697"/>
  <line x1="13.757" y2="-7.94" style="fill:none;stroke:#00AEEF;stroke-width:0.55;" x2="11.807" y1="-8.763"/>
 </g>
</svg>
