<?xml version="1.0"?>
<!-- Converted with SVG Converter - Version 0.9.6 (Compiled Thu Aug 31 10:01:05 2017) - Copyright (C) 2011 Nokia -->
<svg xmlns="http://www.w3.org/2000/svg" width="25.446" height="25.447" xmlns:xlink="http://www.w3.org/1999/xlink" x="0px" version="1.1" baseProfile="tiny" viewBox="1 -26.447 25.446 25.447" xml:space="preserve" y="0px">
 <g>
  <rect width="25.446" height="25.447" x="1" y="-26.447" style="fill:none;"/>
  <line x1="23.378" y1="-24.729" x2="25.032" style="fill:none;stroke:#000000;stroke-width:0.5;" y2="-22.604"/>
  <line x1="25.003" y1="-22.625" x2="26.272" style="fill:none;stroke:#000000;stroke-width:0.5;" y2="-25.038"/>
  <line x1="7.364" y1="-23.795" x2="6.185" style="fill:none;stroke:#000000;stroke-width:0.5;" y2="-26.215"/>
  <line x1="6.208" y1="-26.19" x2="4.469" style="fill:none;stroke:#000000;stroke-width:0.5;" y2="-24.091"/>
  <line x1="3.545" y1="-5.852" x2="6.174" style="fill:none;stroke:#000000;stroke-width:0.5;" y2="-6.431"/>
  <line x1="6.145" y1="-6.415" x2="4.512" style="fill:none;stroke:#000000;stroke-width:0.5;" y2="-8.597"/>
  <line x1="5.126" y1="-15.748" x2="3.448" style="fill:none;stroke:#000000;stroke-width:0.5;" y2="-17.854"/>
  <line x1="3.476" y1="-17.835" x2="2.237" style="fill:none;stroke:#000000;stroke-width:0.5;" y2="-15.407"/>
  <line x1="10.092" y1="-17.32" x2="12.784" style="fill:none;stroke:#000000;stroke-width:0.5;" y2="-17.3"/>
  <line x1="12.75" y1="-17.291" x2="11.644" style="fill:none;stroke:#000000;stroke-width:0.5;" y2="-19.783"/>
  <line x1="21.036" y1="-2.377" x2="22.8" style="fill:none;stroke:#000000;stroke-width:0.5;" y2="-4.411"/>
  <line x1="22.786" y1="-4.38" x2="20.174" style="fill:none;stroke:#000000;stroke-width:0.5;" y2="-5.157"/>
  <line x1="16.362" y1="-24.822" x2="15.852" style="fill:none;stroke:#000000;stroke-width:0.5;" y2="-22.179"/>
  <line x1="15.85" y1="-22.213" x2="18.5" style="fill:none;stroke:#000000;stroke-width:0.5;" y2="-22.849"/>
  <line x1="20.049" y1="-16.582" x2="21.577" style="fill:none;stroke:#000000;stroke-width:0.5;" y2="-18.8"/>
  <line x1="21.565" y1="-18.767" x2="18.884" style="fill:none;stroke:#000000;stroke-width:0.5;" y2="-19.249"/>
  <line x1="12.65" y1="-5.154" x2="11.538" style="fill:none;stroke:#000000;stroke-width:0.5;" y2="-2.703"/>
  <line x1="11.543" y1="-2.736" x2="14.269" style="fill:none;stroke:#000000;stroke-width:0.5;" y2="-2.736"/>
  <line x1="12.184" y1="-12.186" x2="9.499" style="fill:none;stroke:#000000;stroke-width:0.5;" y2="-12.396"/>
  <line x1="9.533" y1="-12.402" x2="10.462" style="fill:none;stroke:#000000;stroke-width:0.5;" y2="-9.841"/>
  <line x1="24.602" y1="-12.259" x2="23.489" style="fill:none;stroke:#000000;stroke-width:0.5;" y2="-9.808"/>
  <line x1="23.495" y1="-9.841" x2="26.219" style="fill:none;stroke:#000000;stroke-width:0.5;" y2="-9.841"/>
  <line x1="18.583" y1="-8.957" x2="18.656" style="fill:none;stroke:#000000;stroke-width:0.5;" y2="-11.648"/>
  <line x1="18.665" y1="-11.615" x2="16.155" style="fill:none;stroke:#000000;stroke-width:0.5;" y2="-10.558"/>
 </g>
</svg>
