<?xml version="1.0"?>
<!-- Converted with SVG Converter - Version 0.9.6 (Compiled Thu Aug 31 10:01:05 2017) - Copyright (C) 2011 Nokia -->
<svg xmlns="http://www.w3.org/2000/svg" xml:space="preserve" baseProfile="tiny" x="0px" y="0px" width="25.446" xmlns:xlink="http://www.w3.org/1999/xlink" version="1.1" viewBox="1 -26.447 25.446 25.447" height="25.447">
 <g>
  <rect x="1" y="-26.447" width="25.446" style="fill:none;" height="25.447"/>
  <line y2="-22.604" y1="-24.729" x2="25.032" style="fill:none;stroke:#00AEEF;stroke-width:0.6;" x1="23.378"/>
  <line y2="-25.038" y1="-22.625" x2="26.272" style="fill:none;stroke:#00AEEF;stroke-width:0.6;" x1="25.003"/>
  <line y2="-26.215" y1="-23.795" x2="6.185" style="fill:none;stroke:#00AEEF;stroke-width:0.6;" x1="7.364"/>
  <line y2="-24.091" y1="-26.19" x2="4.469" style="fill:none;stroke:#00AEEF;stroke-width:0.6;" x1="6.208"/>
  <line y2="-6.431" y1="-5.852" x2="6.174" style="fill:none;stroke:#00AEEF;stroke-width:0.6;" x1="3.545"/>
  <line y2="-8.597" y1="-6.415" x2="4.512" style="fill:none;stroke:#00AEEF;stroke-width:0.6;" x1="6.145"/>
  <line y2="-17.854" y1="-15.748" x2="3.448" style="fill:none;stroke:#00AEEF;stroke-width:0.6;" x1="5.126"/>
  <line y2="-15.407" y1="-17.835" x2="2.237" style="fill:none;stroke:#00AEEF;stroke-width:0.6;" x1="3.476"/>
  <line y2="-17.3" y1="-17.32" x2="12.784" style="fill:none;stroke:#00AEEF;stroke-width:0.6;" x1="10.092"/>
  <line y2="-19.783" y1="-17.291" x2="11.644" style="fill:none;stroke:#00AEEF;stroke-width:0.6;" x1="12.75"/>
  <line y2="-4.411" y1="-2.377" x2="22.8" style="fill:none;stroke:#00AEEF;stroke-width:0.6;" x1="21.036"/>
  <line y2="-5.157" y1="-4.38" x2="20.174" style="fill:none;stroke:#00AEEF;stroke-width:0.6;" x1="22.786"/>
  <line y2="-22.179" y1="-24.822" x2="15.852" style="fill:none;stroke:#00AEEF;stroke-width:0.6;" x1="16.362"/>
  <line y2="-22.849" y1="-22.213" x2="18.5" style="fill:none;stroke:#00AEEF;stroke-width:0.6;" x1="15.85"/>
  <line y2="-18.8" y1="-16.582" x2="21.577" style="fill:none;stroke:#00AEEF;stroke-width:0.6;" x1="20.049"/>
  <line y2="-19.249" y1="-18.767" x2="18.884" style="fill:none;stroke:#00AEEF;stroke-width:0.6;" x1="21.565"/>
  <line y2="-2.703" y1="-5.154" x2="11.538" style="fill:none;stroke:#00AEEF;stroke-width:0.6;" x1="12.65"/>
  <line y2="-2.736" y1="-2.736" x2="14.269" style="fill:none;stroke:#00AEEF;stroke-width:0.6;" x1="11.543"/>
  <line y2="-12.396" y1="-12.186" x2="9.499" style="fill:none;stroke:#00AEEF;stroke-width:0.6;" x1="12.184"/>
  <line y2="-9.841" y1="-12.402" x2="10.462" style="fill:none;stroke:#00AEEF;stroke-width:0.6;" x1="9.533"/>
  <line y2="-9.808" y1="-12.259" x2="23.489" style="fill:none;stroke:#00AEEF;stroke-width:0.6;" x1="24.602"/>
  <line y2="-9.841" y1="-9.841" x2="26.219" style="fill:none;stroke:#00AEEF;stroke-width:0.6;" x1="23.495"/>
  <line y2="-11.648" y1="-8.957" x2="18.656" style="fill:none;stroke:#00AEEF;stroke-width:0.6;" x1="18.583"/>
  <line y2="-10.558" y1="-11.615" x2="16.155" style="fill:none;stroke:#00AEEF;stroke-width:0.6;" x1="18.665"/>
 </g>
</svg>
