<?xml version="1.0"?>
<!-- Converted with SVG Converter - Version 0.9.5 (Compiled Fri Feb 21 09:53:38 2020) - Copyright (C) 2011 Nokia -->
<svg xmlns="http://www.w3.org/2000/svg" viewBox="1 -26.447 25.446 25.447" version="1.1" baseProfile="tiny" width="25.446" xmlns:xlink="http://www.w3.org/1999/xlink" y="0px" height="25.447" x="0px" xml:space="preserve">
 <g>
  <rect style="fill:none;" width="25.446" y="-26.447" height="25.447" x="1"/>
  <line y1="-24.729" style="fill:none;stroke:#000000;stroke-width:0.5;" y2="-22.604" x1="23.378" x2="25.032"/>
  <line y1="-22.625" style="fill:none;stroke:#000000;stroke-width:0.5;" y2="-25.038" x1="25.003" x2="26.272"/>
  <line y1="-23.795" style="fill:none;stroke:#000000;stroke-width:0.5;" y2="-26.215" x1="7.364" x2="6.185"/>
  <line y1="-26.19" style="fill:none;stroke:#000000;stroke-width:0.5;" y2="-24.091" x1="6.208" x2="4.469"/>
  <line y1="-5.852" style="fill:none;stroke:#000000;stroke-width:0.5;" y2="-6.431" x1="3.545" x2="6.174"/>
  <line y1="-6.415" style="fill:none;stroke:#000000;stroke-width:0.5;" y2="-8.597" x1="6.145" x2="4.512"/>
  <line y1="-15.748" style="fill:none;stroke:#000000;stroke-width:0.5;" y2="-17.854" x1="5.126" x2="3.448"/>
  <line y1="-17.835" style="fill:none;stroke:#000000;stroke-width:0.5;" y2="-15.407" x1="3.476" x2="2.237"/>
  <line y1="-17.32" style="fill:none;stroke:#000000;stroke-width:0.5;" y2="-17.3" x1="10.092" x2="12.784"/>
  <line y1="-17.291" style="fill:none;stroke:#000000;stroke-width:0.5;" y2="-19.783" x1="12.75" x2="11.644"/>
  <line y1="-2.377" style="fill:none;stroke:#000000;stroke-width:0.5;" y2="-4.411" x1="21.036" x2="22.8"/>
  <line y1="-4.38" style="fill:none;stroke:#000000;stroke-width:0.5;" y2="-5.157" x1="22.786" x2="20.174"/>
  <line y1="-24.822" style="fill:none;stroke:#000000;stroke-width:0.5;" y2="-22.179" x1="16.362" x2="15.852"/>
  <line y1="-22.213" style="fill:none;stroke:#000000;stroke-width:0.5;" y2="-22.849" x1="15.85" x2="18.5"/>
  <line y1="-16.582" style="fill:none;stroke:#000000;stroke-width:0.5;" y2="-18.8" x1="20.049" x2="21.577"/>
  <line y1="-18.767" style="fill:none;stroke:#000000;stroke-width:0.5;" y2="-19.249" x1="21.565" x2="18.884"/>
  <line y1="-5.154" style="fill:none;stroke:#000000;stroke-width:0.5;" y2="-2.703" x1="12.65" x2="11.538"/>
  <line y1="-2.736" style="fill:none;stroke:#000000;stroke-width:0.5;" y2="-2.736" x1="11.543" x2="14.269"/>
  <line y1="-12.186" style="fill:none;stroke:#000000;stroke-width:0.5;" y2="-12.396" x1="12.184" x2="9.499"/>
  <line y1="-12.402" style="fill:none;stroke:#000000;stroke-width:0.5;" y2="-9.841" x1="9.533" x2="10.462"/>
  <line y1="-12.259" style="fill:none;stroke:#000000;stroke-width:0.5;" y2="-9.808" x1="24.602" x2="23.489"/>
  <line y1="-9.841" style="fill:none;stroke:#000000;stroke-width:0.5;" y2="-9.841" x1="23.495" x2="26.219"/>
  <line y1="-8.957" style="fill:none;stroke:#000000;stroke-width:0.5;" y2="-11.648" x1="18.583" x2="18.656"/>
  <line y1="-11.615" style="fill:none;stroke:#000000;stroke-width:0.5;" y2="-10.558" x1="18.665" x2="16.155"/>
 </g>
</svg>
