<?xml version="1.0"?>
<!-- Converted with SVG Converter - Version 0.9.5 (Compiled Fri Feb 21 09:53:38 2020) - Copyright (C) 2011 Nokia -->
<svg xmlns="http://www.w3.org/2000/svg" width="34.352" x="0px" xml:space="preserve" viewBox="1.689 -35.847 34.352 34.354" height="34.354" y="0px" xmlns:xlink="http://www.w3.org/1999/xlink" version="1.1" baseProfile="tiny">
 <g>
  <rect style="fill:none;" width="34.352" x="1.689" height="34.354" y="-35.847"/>
  <polyline style="fill:none;stroke:#000000;stroke-width:0.6;stroke-linecap:round;" points="12.362,-22.716 16.737,-22.663    16.673,-22.819 14.801,-26.774   "/>
  <polyline style="fill:none;stroke:#000000;stroke-width:0.6;stroke-linecap:round;" points="3.87,-7.416 8.187,-8.125    8.097,-8.268 5.565,-11.836   "/>
  <polyline style="fill:none;stroke:#000000;stroke-width:0.6;stroke-linecap:round;" points="24.42,-10.543 24.848,-14.898    24.687,-14.847 20.586,-13.321   "/>
  <polyline style="fill:none;stroke:#000000;stroke-width:0.6;stroke-linecap:round;" points="26.377,-20.935 28.702,-24.643    28.535,-24.669 24.184,-25.131   "/>
  <polyline style="fill:none;stroke:#000000;stroke-width:0.6;stroke-linecap:round;" points="9.9,-30.429 8.354,-34.522    8.232,-34.405 5.232,-31.22   "/>
  <polyline style="fill:none;stroke:#000000;stroke-width:0.6;stroke-linecap:round;" points="6.9,-19.849 4.253,-23.334    4.17,-23.187 2.2,-19.28   "/>
  <polyline style="fill:none;stroke:#000000;stroke-width:0.6;stroke-linecap:round;" points="17.021,-15.618 12.7,-16.304    12.741,-16.141 14.02,-11.956   "/>
  <polyline style="fill:none;stroke:#000000;stroke-width:0.6;stroke-linecap:round;" points="21.859,-33.299 20.839,-29.044    21.005,-29.073 25.276,-30.022   "/>
  <polyline style="fill:none;stroke:#000000;stroke-width:0.6;stroke-linecap:round;" points="30.44,-32.707 33.159,-29.279    33.24,-29.428 35.126,-33.375   "/>
  <polyline style="fill:none;stroke:#000000;stroke-width:0.6;stroke-linecap:round;" points="32.024,-16.084 30.733,-11.904    30.901,-11.921 35.224,-12.595   "/>
  <polyline style="fill:none;stroke:#000000;stroke-width:0.6;stroke-linecap:round;" points="27.826,-2.2 30.679,-5.517    30.518,-5.568 26.285,-6.677   "/>
  <polyline style="fill:none;stroke:#000000;stroke-width:0.6;stroke-linecap:round;" points="16.911,-6.927 14.984,-2.999    15.153,-2.99 19.528,-2.982   "/>
 </g>
</svg>
