<?xml version="1.0"?>
<!-- Converted with SVG Converter - Version 0.9.5 (Compiled Fri Feb 21 09:53:38 2020) - Copyright (C) 2011 Nokia -->
<svg xmlns="http://www.w3.org/2000/svg" baseProfile="tiny" version="1.1" x="0px" xmlns:xlink="http://www.w3.org/1999/xlink" height="16.899" y="0px" xml:space="preserve" width="16.9" viewBox="1.729 -18.883 16.9 16.899">
 <g>
  <rect x="1.729" style="fill:none;" height="16.899" y="-18.883" width="16.9"/>
  <line x2="8.426" y2="-11.29" style="fill:none;stroke:#000000;stroke-width:0.7;stroke-linecap:round;" y1="-11.29" x1="8.426"/>
  <line x2="5.884" y2="-12.684" style="fill:none;stroke:#000000;stroke-width:0.7;stroke-linecap:round;" y1="-12.684" x1="5.884"/>
  <line x2="2.869" y2="-12.994" style="fill:none;stroke:#000000;stroke-width:0.7;stroke-linecap:round;" y1="-12.994" x1="2.869"/>
  <line x2="2.4" y2="-9.49" style="fill:none;stroke:#000000;stroke-width:0.7;stroke-linecap:round;" y1="-9.49" x1="2.4"/>
  <line x2="16.97" y2="-14.871" style="fill:none;stroke:#000000;stroke-width:0.7;stroke-linecap:round;" y1="-14.871" x1="16.97"/>
  <line x2="13.481" y2="-17.312" style="fill:none;stroke:#000000;stroke-width:0.7;stroke-linecap:round;" y1="-17.312" x1="13.481"/>
  <line x2="13.543" y2="-9.646" style="fill:none;stroke:#000000;stroke-width:0.7;stroke-linecap:round;" y1="-9.646" x1="13.543"/>
  <line x2="10.877" y2="-12.411" style="fill:none;stroke:#000000;stroke-width:0.7;stroke-linecap:round;" y1="-12.411" x1="10.877"/>
  <line x2="8.836" y2="-14.28" style="fill:none;stroke:#000000;stroke-width:0.7;stroke-linecap:round;" y1="-14.28" x1="8.836"/>
  <line x2="11.331" y2="-15.633" style="fill:none;stroke:#000000;stroke-width:0.7;stroke-linecap:round;" y1="-15.633" x1="11.331"/>
  <line x2="3.63" y2="-17.25" style="fill:none;stroke:#000000;stroke-width:0.7;stroke-linecap:round;" y1="-17.25" x1="3.63"/>
  <line x2="9.394" y2="-17.146" style="fill:none;stroke:#000000;stroke-width:0.7;stroke-linecap:round;" y1="-17.146" x1="9.394"/>
  <line x2="6.838" y2="-18.093" style="fill:none;stroke:#000000;stroke-width:0.7;stroke-linecap:round;" y1="-18.093" x1="6.838"/>
  <line x2="17.087" y2="-17.883" style="fill:none;stroke:#000000;stroke-width:0.7;stroke-linecap:round;" y1="-17.883" x1="17.087"/>
  <line x2="7.864" y2="-4.122" style="fill:none;stroke:#000000;stroke-width:0.7;stroke-linecap:round;" y1="-4.122" x1="7.864"/>
  <line x2="2.866" y2="-3.224" style="fill:none;stroke:#000000;stroke-width:0.7;stroke-linecap:round;" y1="-3.224" x1="2.866"/>
  <line x2="3.917" y2="-6.632" style="fill:none;stroke:#000000;stroke-width:0.7;stroke-linecap:round;" y1="-6.632" x1="3.917"/>
  <line x2="5.184" y2="-9.643" style="fill:none;stroke:#000000;stroke-width:0.7;stroke-linecap:round;" y1="-9.643" x1="5.184"/>
  <line x2="5.343" y2="-3.871" style="fill:none;stroke:#000000;stroke-width:0.7;stroke-linecap:round;" y1="-3.871" x1="5.343"/>
  <line x2="11.331" y2="-3.322" style="fill:none;stroke:#000000;stroke-width:0.7;stroke-linecap:round;" y1="-3.322" x1="11.331"/>
  <line x2="16.649" y2="-7.529" style="fill:none;stroke:#000000;stroke-width:0.7;stroke-linecap:round;" y1="-7.529" x1="16.649"/>
  <line x2="10.132" y2="-8.834" style="fill:none;stroke:#000000;stroke-width:0.7;stroke-linecap:round;" y1="-8.834" x1="10.132"/>
  <line x2="10.801" y2="-6.113" style="fill:none;stroke:#000000;stroke-width:0.7;stroke-linecap:round;" y1="-6.113" x1="10.801"/>
  <line x2="13.399" y2="-6.777" style="fill:none;stroke:#000000;stroke-width:0.7;stroke-linecap:round;" y1="-6.777" x1="13.399"/>
  <line x2="16.786" y2="-10.748" style="fill:none;stroke:#000000;stroke-width:0.7;stroke-linecap:round;" y1="-10.748" x1="16.786"/>
  <path style="fill:none;stroke:#000000;stroke-width:0.43;" d="M5.668-16.276c0.998-1.097,3.422,0.986,1.402,1.93    C6.025-13.858,3.933-14.373,5.668-16.276z"/>
  <path style="fill:none;stroke:#000000;stroke-width:0.43;" d="M13.557-13.767c0.765-1.271,3.55,0.299,1.753,1.619    C14.381-11.465,12.229-11.56,13.557-13.767z"/>
  <path style="fill:none;stroke:#000000;stroke-width:0.43;" d="M6.517-7.763c0.764-1.269,3.614,1.326,1.752,1.619    C7.131-5.964,5.188-5.555,6.517-7.763z"/>
  <path style="fill:none;stroke:#000000;stroke-width:0.43;" d="M14.961-4.922c2.058-0.589,2.693-0.014,1.752,1.619    C15.882-1.86,12.485-4.213,14.961-4.922z"/>
 </g>
</svg>
