<?xml version="1.0"?>
<!-- Converted with SVG Converter - Version 0.9.5 (Compiled Fri Feb 21 09:53:38 2020) - Copyright (C) 2011 Nokia -->
<svg xmlns="http://www.w3.org/2000/svg" x="0px" height="16.899" width="16.9" y="0px" xml:space="preserve" viewBox="1.729 -18.883 16.9 16.899" version="1.1" xmlns:xlink="http://www.w3.org/1999/xlink" baseProfile="tiny">
 <g>
  <rect x="1.729" height="16.899" style="fill:none;" width="16.9" y="-18.883"/>
  <line y1="-11.29" x1="8.426" style="fill:none;stroke:#000000;stroke-width:0.7;stroke-linecap:round;" x2="8.426" y2="-11.29"/>
  <line y1="-12.684" x1="5.884" style="fill:none;stroke:#000000;stroke-width:0.7;stroke-linecap:round;" x2="5.884" y2="-12.684"/>
  <line y1="-12.994" x1="2.869" style="fill:none;stroke:#000000;stroke-width:0.7;stroke-linecap:round;" x2="2.869" y2="-12.994"/>
  <line y1="-9.49" x1="2.4" style="fill:none;stroke:#000000;stroke-width:0.7;stroke-linecap:round;" x2="2.4" y2="-9.49"/>
  <line y1="-14.871" x1="16.97" style="fill:none;stroke:#000000;stroke-width:0.7;stroke-linecap:round;" x2="16.97" y2="-14.871"/>
  <line y1="-17.312" x1="13.481" style="fill:none;stroke:#000000;stroke-width:0.7;stroke-linecap:round;" x2="13.481" y2="-17.312"/>
  <line y1="-9.646" x1="13.543" style="fill:none;stroke:#000000;stroke-width:0.7;stroke-linecap:round;" x2="13.543" y2="-9.646"/>
  <line y1="-12.411" x1="10.877" style="fill:none;stroke:#000000;stroke-width:0.7;stroke-linecap:round;" x2="10.877" y2="-12.411"/>
  <line y1="-14.28" x1="8.836" style="fill:none;stroke:#000000;stroke-width:0.7;stroke-linecap:round;" x2="8.836" y2="-14.28"/>
  <line y1="-15.633" x1="11.331" style="fill:none;stroke:#000000;stroke-width:0.7;stroke-linecap:round;" x2="11.331" y2="-15.633"/>
  <line y1="-17.25" x1="3.63" style="fill:none;stroke:#000000;stroke-width:0.7;stroke-linecap:round;" x2="3.63" y2="-17.25"/>
  <line y1="-17.146" x1="9.394" style="fill:none;stroke:#000000;stroke-width:0.7;stroke-linecap:round;" x2="9.394" y2="-17.146"/>
  <line y1="-18.093" x1="6.838" style="fill:none;stroke:#000000;stroke-width:0.7;stroke-linecap:round;" x2="6.838" y2="-18.093"/>
  <line y1="-17.883" x1="17.087" style="fill:none;stroke:#000000;stroke-width:0.7;stroke-linecap:round;" x2="17.087" y2="-17.883"/>
  <line y1="-4.122" x1="7.864" style="fill:none;stroke:#000000;stroke-width:0.7;stroke-linecap:round;" x2="7.864" y2="-4.122"/>
  <line y1="-3.224" x1="2.866" style="fill:none;stroke:#000000;stroke-width:0.7;stroke-linecap:round;" x2="2.866" y2="-3.224"/>
  <line y1="-6.632" x1="3.917" style="fill:none;stroke:#000000;stroke-width:0.7;stroke-linecap:round;" x2="3.917" y2="-6.632"/>
  <line y1="-9.643" x1="5.184" style="fill:none;stroke:#000000;stroke-width:0.7;stroke-linecap:round;" x2="5.184" y2="-9.643"/>
  <line y1="-3.871" x1="5.343" style="fill:none;stroke:#000000;stroke-width:0.7;stroke-linecap:round;" x2="5.343" y2="-3.871"/>
  <line y1="-3.322" x1="11.331" style="fill:none;stroke:#000000;stroke-width:0.7;stroke-linecap:round;" x2="11.331" y2="-3.322"/>
  <line y1="-7.529" x1="16.649" style="fill:none;stroke:#000000;stroke-width:0.7;stroke-linecap:round;" x2="16.649" y2="-7.529"/>
  <line y1="-8.834" x1="10.132" style="fill:none;stroke:#000000;stroke-width:0.7;stroke-linecap:round;" x2="10.132" y2="-8.834"/>
  <line y1="-6.113" x1="10.801" style="fill:none;stroke:#000000;stroke-width:0.7;stroke-linecap:round;" x2="10.801" y2="-6.113"/>
  <line y1="-6.777" x1="13.399" style="fill:none;stroke:#000000;stroke-width:0.7;stroke-linecap:round;" x2="13.399" y2="-6.777"/>
  <line y1="-10.748" x1="16.786" style="fill:none;stroke:#000000;stroke-width:0.7;stroke-linecap:round;" x2="16.786" y2="-10.748"/>
  <path style="fill:none;stroke:#000000;stroke-width:0.43;" d="M5.668-16.276c0.998-1.097,3.422,0.986,1.402,1.93    C6.025-13.858,3.933-14.373,5.668-16.276z"/>
  <path style="fill:none;stroke:#000000;stroke-width:0.43;" d="M13.557-13.767c0.765-1.271,3.55,0.299,1.753,1.619    C14.381-11.465,12.229-11.56,13.557-13.767z"/>
  <path style="fill:none;stroke:#000000;stroke-width:0.43;" d="M6.517-7.763c0.764-1.269,3.614,1.326,1.752,1.619    C7.131-5.964,5.188-5.555,6.517-7.763z"/>
  <path style="fill:none;stroke:#000000;stroke-width:0.43;" d="M14.961-4.922c2.058-0.589,2.693-0.014,1.752,1.619    C15.882-1.86,12.485-4.213,14.961-4.922z"/>
 </g>
</svg>
