<?xml version="1.0"?>
<!-- Converted with SVG Converter - Version 0.9.5 (Compiled Fri Feb 21 09:53:38 2020) - Copyright (C) 2011 Nokia -->
<svg xmlns="http://www.w3.org/2000/svg" viewBox="0.215 -29.19 28.975 28.976" width="28.975" baseProfile="tiny" height="28.976" xmlns:xlink="http://www.w3.org/1999/xlink" xml:space="preserve" version="1.1" x="0px" y="0px">
 <g>
  <rect width="28.975" height="28.976" style="fill:none;" x="0.215" y="-29.19"/>
  <line x1="19.372" y2="-6.166" x2="19.372" style="fill:none;stroke:#000000;stroke-width:0.7;stroke-linecap:round;" y1="-6.166"/>
  <line x1="14.875" y2="-5.206" x2="14.875" style="fill:none;stroke:#000000;stroke-width:0.7;stroke-linecap:round;" y1="-5.206"/>
  <line x1="7.704" y2="-3.31" x2="7.704" style="fill:none;stroke:#000000;stroke-width:0.7;stroke-linecap:round;" y1="-3.31"/>
  <line x1="1.595" y2="-2.113" x2="1.595" style="fill:none;stroke:#000000;stroke-width:0.7;stroke-linecap:round;" y1="-2.113"/>
  <line x1="13.15" y2="-12.633" x2="13.15" style="fill:none;stroke:#000000;stroke-width:0.7;stroke-linecap:round;" y1="-12.633"/>
  <line x1="12.288" y2="-7.804" x2="12.288" style="fill:none;stroke:#000000;stroke-width:0.7;stroke-linecap:round;" y1="-7.804"/>
  <line x1="21.256" y2="-22.291" x2="21.256" style="fill:none;stroke:#000000;stroke-width:0.7;stroke-linecap:round;" y1="-22.291"/>
  <line x1="22.674" y2="-6.72" x2="22.674" style="fill:none;stroke:#000000;stroke-width:0.7;stroke-linecap:round;" y1="-6.72"/>
  <line x1="20.911" y2="-9.529" x2="20.911" style="fill:none;stroke:#000000;stroke-width:0.7;stroke-linecap:round;" y1="-9.529"/>
  <line x1="21.601" y2="-2.631" x2="21.601" style="fill:none;stroke:#000000;stroke-width:0.7;stroke-linecap:round;" y1="-2.631"/>
  <line x1="18.279" y2="-3.502" x2="18.279" style="fill:none;stroke:#000000;stroke-width:0.7;stroke-linecap:round;" y1="-3.502"/>
  <line x1="25.359" y2="-1.081" x2="25.359" style="fill:none;stroke:#000000;stroke-width:0.7;stroke-linecap:round;" y1="-1.081"/>
  <line x1="14.234" y2="-1.648" x2="14.234" style="fill:none;stroke:#000000;stroke-width:0.7;stroke-linecap:round;" y1="-1.648"/>
  <line x1="9.945" y2="-0.888" x2="9.945" style="fill:none;stroke:#000000;stroke-width:0.7;stroke-linecap:round;" y1="-0.888"/>
  <line x1="17.389" y2="-21.185" x2="17.389" style="fill:none;stroke:#000000;stroke-width:0.7;stroke-linecap:round;" y1="-21.185"/>
  <line x1="19.876" y2="-28.155" x2="19.876" style="fill:none;stroke:#000000;stroke-width:0.7;stroke-linecap:round;" y1="-28.155"/>
  <line x1="15.392" y2="-25.051" x2="15.392" style="fill:none;stroke:#000000;stroke-width:0.7;stroke-linecap:round;" y1="-25.051"/>
  <line x1="12.928" y2="-27.648" x2="12.928" style="fill:none;stroke:#000000;stroke-width:0.7;stroke-linecap:round;" y1="-27.648"/>
  <line x1="10.625" y2="-25.346" x2="10.625" style="fill:none;stroke:#000000;stroke-width:0.7;stroke-linecap:round;" y1="-25.346"/>
  <line x1="25.913" y2="-11.081" x2="25.913" style="fill:none;stroke:#000000;stroke-width:0.7;stroke-linecap:round;" y1="-11.081"/>
  <line x1="26.614" y2="-6.536" x2="26.614" style="fill:none;stroke:#000000;stroke-width:0.7;stroke-linecap:round;" y1="-6.536"/>
  <line x1="19.704" y2="-14.876" x2="19.704" style="fill:none;stroke:#000000;stroke-width:0.7;stroke-linecap:round;" y1="-14.876"/>
  <line x1="24.739" y2="-15.737" x2="24.739" style="fill:none;stroke:#000000;stroke-width:0.7;stroke-linecap:round;" y1="-15.737"/>
  <line x1="27.12" y2="-23.671" x2="27.12" style="fill:none;stroke:#000000;stroke-width:0.7;stroke-linecap:round;" y1="-23.671"/>
  <line x1="24.705" y2="-18.669" x2="24.705" style="fill:none;stroke:#000000;stroke-width:0.7;stroke-linecap:round;" y1="-18.669"/>
  <line x1="15.22" y2="-15.737" x2="15.22" style="fill:none;stroke:#000000;stroke-width:0.7;stroke-linecap:round;" y1="-15.737"/>
  <line x1="17.796" y2="-9.725" x2="17.796" style="fill:none;stroke:#000000;stroke-width:0.7;stroke-linecap:round;" y1="-9.725"/>
  <line x1="27.81" y2="-27.638" x2="27.81" style="fill:none;stroke:#000000;stroke-width:0.7;stroke-linecap:round;" y1="-27.638"/>
  <line x1="3.657" y2="-5.427" x2="3.657" style="fill:none;stroke:#000000;stroke-width:0.7;stroke-linecap:round;" y1="-5.427"/>
  <line x1="1.656" y2="-15.987" x2="1.656" style="fill:none;stroke:#000000;stroke-width:0.7;stroke-linecap:round;" y1="-15.987"/>
  <line x1="0.891" y2="-11.637" x2="0.891" style="fill:none;stroke:#000000;stroke-width:0.7;stroke-linecap:round;" y1="-11.637"/>
  <line x1="1.94" y2="-22.464" x2="1.94" style="fill:none;stroke:#000000;stroke-width:0.7;stroke-linecap:round;" y1="-22.464"/>
  <line x1="7.81" y2="-7.115" x2="7.81" style="fill:none;stroke:#000000;stroke-width:0.7;stroke-linecap:round;" y1="-7.115"/>
  <line x1="4.351" y2="-9.553" x2="4.351" style="fill:none;stroke:#000000;stroke-width:0.7;stroke-linecap:round;" y1="-9.553"/>
  <line x1="8.494" y2="-12.116" x2="8.494" style="fill:none;stroke:#000000;stroke-width:0.7;stroke-linecap:round;" y1="-12.116"/>
  <line x1="5.167" y2="-17.179" x2="5.167" style="fill:none;stroke:#000000;stroke-width:0.7;stroke-linecap:round;" y1="-17.179"/>
  <line x1="3.837" y2="-27.81" x2="3.837" style="fill:none;stroke:#000000;stroke-width:0.7;stroke-linecap:round;" y1="-27.81"/>
  <line x1="13.523" y2="-21.345" x2="13.523" style="fill:none;stroke:#000000;stroke-width:0.7;stroke-linecap:round;" y1="-21.345"/>
  <line x1="7.005" y2="-22.651" x2="7.005" style="fill:none;stroke:#000000;stroke-width:0.7;stroke-linecap:round;" y1="-22.651"/>
  <line x1="7.675" y2="-19.931" x2="7.675" style="fill:none;stroke:#000000;stroke-width:0.7;stroke-linecap:round;" y1="-19.931"/>
  <line x1="10.273" y2="-16.906" x2="10.273" style="fill:none;stroke:#000000;stroke-width:0.7;stroke-linecap:round;" y1="-16.906"/>
  <line x1="22.463" y2="-13.668" x2="24.533" style="fill:none;stroke:#000000;stroke-width:0.43;stroke-linecap:round;" y1="-11.427"/>
  <line x1="19.279" y2="-12.633" x2="16.082" style="fill:none;stroke:#000000;stroke-width:0.43;stroke-linecap:round;" y1="-11.156"/>
  <line x1="15.973" y2="-5.733" x2="17.233" style="fill:none;stroke:#000000;stroke-width:0.43;stroke-linecap:round;" y1="-8.553"/>
  <line x1="23.222" y2="-2.555" x2="26.562" style="fill:none;stroke:#000000;stroke-width:0.43;stroke-linecap:round;" y1="-5.237"/>
  <line x1="25.245" y2="-9.452" x2="28.284" style="fill:none;stroke:#000000;stroke-width:0.43;stroke-linecap:round;" y1="-8.09"/>
  <line x1="4.872" y2="-8.322" x2="1.423" style="fill:none;stroke:#000000;stroke-width:0.43;stroke-linecap:round;" y1="-7.46"/>
  <line x1="6.489" y2="-1.596" x2="4.527" style="fill:none;stroke:#000000;stroke-width:0.43;stroke-linecap:round;" y1="-4.711"/>
  <line x1="10.218" y2="-2.975" x2="12.977" style="fill:none;stroke:#000000;stroke-width:0.43;stroke-linecap:round;" y1="-5.562"/>
  <line x1="9.354" y2="-10.908" x2="12.288" style="fill:none;stroke:#000000;stroke-width:0.43;stroke-linecap:round;" y1="-9.11"/>
  <line x1="6.284" y2="-13.668" x2="5.044" style="fill:none;stroke:#000000;stroke-width:0.43;stroke-linecap:round;" y1="-10.44"/>
  <line x1="20.049" y2="-17.452" x2="17.953" style="fill:none;stroke:#000000;stroke-width:0.43;stroke-linecap:round;" y1="-20.049"/>
  <line x1="22.656" y2="-16.793" x2="22.137" style="fill:none;stroke:#000000;stroke-width:0.43;stroke-linecap:round;" y1="-20.468"/>
  <line x1="25.259" y2="-20.88" x2="28.2" style="fill:none;stroke:#000000;stroke-width:0.43;stroke-linecap:round;" y1="-21.048"/>
  <line x1="22.554" y2="-28.169" x2="23.484" style="fill:none;stroke:#000000;stroke-width:0.43;stroke-linecap:round;" y1="-24.766"/>
  <line x1="19.977" y2="-25.778" x2="17.842" style="fill:none;stroke:#000000;stroke-width:0.43;stroke-linecap:round;" y1="-23.573"/>
  <line x1="5.123" y2="-25.679" x2="2.498" style="fill:none;stroke:#000000;stroke-width:0.43;stroke-linecap:round;" y1="-23.28"/>
  <line x1="4.852" y2="-18.286" x2="2.03" style="fill:none;stroke:#000000;stroke-width:0.43;stroke-linecap:round;" y1="-20.161"/>
  <line x1="7.804" y2="-14.014" x2="10.391" style="fill:none;stroke:#000000;stroke-width:0.43;stroke-linecap:round;" y1="-16.256"/>
  <line x1="7.636" y2="-28.66" x2="8.227" style="fill:none;stroke:#000000;stroke-width:0.43;stroke-linecap:round;" y1="-24.665"/>
  <line x1="10.391" y2="-23.326" x2="13.323" style="fill:none;stroke:#000000;stroke-width:0.43;stroke-linecap:round;" y1="-21.946"/>
  <line x1="13.038" y2="-19.672" x2="14.511" style="fill:none;stroke:#000000;stroke-width:0.43;stroke-linecap:round;" y1="-16.272"/>
  <line x1="24.734" y2="-26.148" x2="24.734" style="fill:none;stroke:#000000;stroke-width:0.7;stroke-linecap:round;" y1="-26.148"/>
  <line x1="28.764" y2="-4.211" x2="28.764" style="fill:none;stroke:#000000;stroke-width:0.7;stroke-linecap:round;" y1="-4.211"/>
  <line x1="28.23" y2="-18.078" x2="28.23" style="fill:none;stroke:#000000;stroke-width:0.7;stroke-linecap:round;" y1="-18.078"/>
  <line x1="18.129" y2="-0.215" x2="16.615" style="fill:none;stroke:#000000;stroke-width:0.43;stroke-linecap:round;" y1="-1.908"/>
  <line x1="2.021" y2="-14.43" x2="0.215" style="fill:none;stroke:#000000;stroke-width:0.43;stroke-linecap:round;" y1="-13.485"/>
  <line x1="29.19" y2="-15.418" x2="27.276" style="fill:none;stroke:#000000;stroke-width:0.43;stroke-linecap:round;" y1="-14.418"/>
  <line x1="15.607" y2="-29.19" x2="16.593" style="fill:none;stroke:#000000;stroke-width:0.43;stroke-linecap:round;" y1="-28.088"/>
 </g>
</svg>
