<?xml version="1.0" encoding="utf-8"?>
<svg xmlns="http://www.w3.org/2000/svg" version="1.1" x="0px" y="0px" xml:space="preserve" width="28.975" height="28.976" viewBox="0.215 -29.19 28.975 28.976">
	<g>
		<rect x="0.215" y="-29.19" style="fill:none;" width="28.975" height="28.976"/>

			<line style="fill:none;stroke:#000000;stroke-width:0.7;stroke-linecap:round;" x1="19.372" y1="-6.166" x2="19.372" y2="-6.166"/>

			<line style="fill:none;stroke:#000000;stroke-width:0.7;stroke-linecap:round;" x1="14.875" y1="-5.206" x2="14.875" y2="-5.206"/>
		<line style="fill:none;stroke:#000000;stroke-width:0.7;stroke-linecap:round;" x1="7.704" y1="-3.31" x2="7.704" y2="-3.31"/>
		<line style="fill:none;stroke:#000000;stroke-width:0.7;stroke-linecap:round;" x1="1.595" y1="-2.113" x2="1.595" y2="-2.113"/>

			<line style="fill:none;stroke:#000000;stroke-width:0.7;stroke-linecap:round;" x1="13.15" y1="-12.633" x2="13.15" y2="-12.633"/>

			<line style="fill:none;stroke:#000000;stroke-width:0.7;stroke-linecap:round;" x1="12.288" y1="-7.804" x2="12.288" y2="-7.804"/>

			<line style="fill:none;stroke:#000000;stroke-width:0.7;stroke-linecap:round;" x1="21.256" y1="-22.291" x2="21.256" y2="-22.291"/>
		<line style="fill:none;stroke:#000000;stroke-width:0.7;stroke-linecap:round;" x1="22.674" y1="-6.72" x2="22.674" y2="-6.72"/>

			<line style="fill:none;stroke:#000000;stroke-width:0.7;stroke-linecap:round;" x1="20.911" y1="-9.529" x2="20.911" y2="-9.529"/>

			<line style="fill:none;stroke:#000000;stroke-width:0.7;stroke-linecap:round;" x1="21.601" y1="-2.631" x2="21.601" y2="-2.631"/>

			<line style="fill:none;stroke:#000000;stroke-width:0.7;stroke-linecap:round;" x1="18.279" y1="-3.502" x2="18.279" y2="-3.502"/>

			<line style="fill:none;stroke:#000000;stroke-width:0.7;stroke-linecap:round;" x1="25.359" y1="-1.081" x2="25.359" y2="-1.081"/>

			<line style="fill:none;stroke:#000000;stroke-width:0.7;stroke-linecap:round;" x1="14.234" y1="-1.648" x2="14.234" y2="-1.648"/>
		<line style="fill:none;stroke:#000000;stroke-width:0.7;stroke-linecap:round;" x1="9.945" y1="-0.888" x2="9.945" y2="-0.888"/>

			<line style="fill:none;stroke:#000000;stroke-width:0.7;stroke-linecap:round;" x1="17.389" y1="-21.185" x2="17.389" y2="-21.185"/>

			<line style="fill:none;stroke:#000000;stroke-width:0.7;stroke-linecap:round;" x1="19.876" y1="-28.155" x2="19.876" y2="-28.155"/>

			<line style="fill:none;stroke:#000000;stroke-width:0.7;stroke-linecap:round;" x1="15.392" y1="-25.051" x2="15.392" y2="-25.051"/>

			<line style="fill:none;stroke:#000000;stroke-width:0.7;stroke-linecap:round;" x1="12.928" y1="-27.648" x2="12.928" y2="-27.648"/>

			<line style="fill:none;stroke:#000000;stroke-width:0.7;stroke-linecap:round;" x1="10.625" y1="-25.346" x2="10.625" y2="-25.346"/>

			<line style="fill:none;stroke:#000000;stroke-width:0.7;stroke-linecap:round;" x1="25.913" y1="-11.081" x2="25.913" y2="-11.081"/>

			<line style="fill:none;stroke:#000000;stroke-width:0.7;stroke-linecap:round;" x1="26.614" y1="-6.536" x2="26.614" y2="-6.536"/>

			<line style="fill:none;stroke:#000000;stroke-width:0.7;stroke-linecap:round;" x1="19.704" y1="-14.876" x2="19.704" y2="-14.876"/>

			<line style="fill:none;stroke:#000000;stroke-width:0.7;stroke-linecap:round;" x1="24.739" y1="-15.737" x2="24.739" y2="-15.737"/>

			<line style="fill:none;stroke:#000000;stroke-width:0.7;stroke-linecap:round;" x1="27.12" y1="-23.671" x2="27.12" y2="-23.671"/>

			<line style="fill:none;stroke:#000000;stroke-width:0.7;stroke-linecap:round;" x1="24.705" y1="-18.669" x2="24.705" y2="-18.669"/>

			<line style="fill:none;stroke:#000000;stroke-width:0.7;stroke-linecap:round;" x1="15.22" y1="-15.737" x2="15.22" y2="-15.737"/>

			<line style="fill:none;stroke:#000000;stroke-width:0.7;stroke-linecap:round;" x1="17.796" y1="-9.725" x2="17.796" y2="-9.725"/>

			<line style="fill:none;stroke:#000000;stroke-width:0.7;stroke-linecap:round;" x1="27.81" y1="-27.638" x2="27.81" y2="-27.638"/>
		<line style="fill:none;stroke:#000000;stroke-width:0.7;stroke-linecap:round;" x1="3.657" y1="-5.427" x2="3.657" y2="-5.427"/>

			<line style="fill:none;stroke:#000000;stroke-width:0.7;stroke-linecap:round;" x1="1.656" y1="-15.987" x2="1.656" y2="-15.987"/>

			<line style="fill:none;stroke:#000000;stroke-width:0.7;stroke-linecap:round;" x1="0.891" y1="-11.637" x2="0.891" y2="-11.637"/>
		<line style="fill:none;stroke:#000000;stroke-width:0.7;stroke-linecap:round;" x1="1.94" y1="-22.464" x2="1.94" y2="-22.464"/>
		<line style="fill:none;stroke:#000000;stroke-width:0.7;stroke-linecap:round;" x1="7.81" y1="-7.115" x2="7.81" y2="-7.115"/>
		<line style="fill:none;stroke:#000000;stroke-width:0.7;stroke-linecap:round;" x1="4.351" y1="-9.553" x2="4.351" y2="-9.553"/>

			<line style="fill:none;stroke:#000000;stroke-width:0.7;stroke-linecap:round;" x1="8.494" y1="-12.116" x2="8.494" y2="-12.116"/>

			<line style="fill:none;stroke:#000000;stroke-width:0.7;stroke-linecap:round;" x1="5.167" y1="-17.179" x2="5.167" y2="-17.179"/>
		<line style="fill:none;stroke:#000000;stroke-width:0.7;stroke-linecap:round;" x1="3.837" y1="-27.81" x2="3.837" y2="-27.81"/>

			<line style="fill:none;stroke:#000000;stroke-width:0.7;stroke-linecap:round;" x1="13.523" y1="-21.345" x2="13.523" y2="-21.345"/>

			<line style="fill:none;stroke:#000000;stroke-width:0.7;stroke-linecap:round;" x1="7.005" y1="-22.651" x2="7.005" y2="-22.651"/>

			<line style="fill:none;stroke:#000000;stroke-width:0.7;stroke-linecap:round;" x1="7.675" y1="-19.931" x2="7.675" y2="-19.931"/>

			<line style="fill:none;stroke:#000000;stroke-width:0.7;stroke-linecap:round;" x1="10.273" y1="-16.906" x2="10.273" y2="-16.906"/>

			<line style="fill:none;stroke:#000000;stroke-width:0.43;stroke-linecap:round;" x1="22.463" y1="-11.427" x2="24.533" y2="-13.668"/>

			<line style="fill:none;stroke:#000000;stroke-width:0.43;stroke-linecap:round;" x1="19.279" y1="-11.156" x2="16.082" y2="-12.633"/>

			<line style="fill:none;stroke:#000000;stroke-width:0.43;stroke-linecap:round;" x1="15.973" y1="-8.553" x2="17.233" y2="-5.733"/>

			<line style="fill:none;stroke:#000000;stroke-width:0.43;stroke-linecap:round;" x1="23.222" y1="-5.237" x2="26.562" y2="-2.555"/>

			<line style="fill:none;stroke:#000000;stroke-width:0.43;stroke-linecap:round;" x1="25.245" y1="-8.09" x2="28.284" y2="-9.452"/>
		<line style="fill:none;stroke:#000000;stroke-width:0.43;stroke-linecap:round;" x1="4.872" y1="-7.46" x2="1.423" y2="-8.322"/>
		<line style="fill:none;stroke:#000000;stroke-width:0.43;stroke-linecap:round;" x1="6.489" y1="-4.711" x2="4.527" y2="-1.596"/>

			<line style="fill:none;stroke:#000000;stroke-width:0.43;stroke-linecap:round;" x1="10.218" y1="-5.562" x2="12.977" y2="-2.975"/>

			<line style="fill:none;stroke:#000000;stroke-width:0.43;stroke-linecap:round;" x1="9.354" y1="-9.11" x2="12.288" y2="-10.908"/>

			<line style="fill:none;stroke:#000000;stroke-width:0.43;stroke-linecap:round;" x1="6.284" y1="-10.44" x2="5.044" y2="-13.668"/>

			<line style="fill:none;stroke:#000000;stroke-width:0.43;stroke-linecap:round;" x1="20.049" y1="-20.049" x2="17.953" y2="-17.452"/>

			<line style="fill:none;stroke:#000000;stroke-width:0.43;stroke-linecap:round;" x1="22.656" y1="-20.468" x2="22.137" y2="-16.793"/>

			<line style="fill:none;stroke:#000000;stroke-width:0.43;stroke-linecap:round;" x1="25.259" y1="-21.048" x2="28.2" y2="-20.88"/>

			<line style="fill:none;stroke:#000000;stroke-width:0.43;stroke-linecap:round;" x1="22.554" y1="-24.766" x2="23.484" y2="-28.169"/>

			<line style="fill:none;stroke:#000000;stroke-width:0.43;stroke-linecap:round;" x1="19.977" y1="-23.573" x2="17.842" y2="-25.778"/>

			<line style="fill:none;stroke:#000000;stroke-width:0.43;stroke-linecap:round;" x1="5.123" y1="-23.28" x2="2.498" y2="-25.679"/>

			<line style="fill:none;stroke:#000000;stroke-width:0.43;stroke-linecap:round;" x1="4.852" y1="-20.161" x2="2.03" y2="-18.286"/>

			<line style="fill:none;stroke:#000000;stroke-width:0.43;stroke-linecap:round;" x1="7.804" y1="-16.256" x2="10.391" y2="-14.014"/>

			<line style="fill:none;stroke:#000000;stroke-width:0.43;stroke-linecap:round;" x1="7.636" y1="-24.665" x2="8.227" y2="-28.66"/>

			<line style="fill:none;stroke:#000000;stroke-width:0.43;stroke-linecap:round;" x1="10.391" y1="-21.946" x2="13.323" y2="-23.326"/>

			<line style="fill:none;stroke:#000000;stroke-width:0.43;stroke-linecap:round;" x1="13.038" y1="-16.272" x2="14.511" y2="-19.672"/>

			<line style="fill:none;stroke:#000000;stroke-width:0.7;stroke-linecap:round;" x1="24.734" y1="-26.148" x2="24.734" y2="-26.148"/>

			<line style="fill:none;stroke:#000000;stroke-width:0.7;stroke-linecap:round;" x1="28.764" y1="-4.211" x2="28.764" y2="-4.211"/>

			<line style="fill:none;stroke:#000000;stroke-width:0.7;stroke-linecap:round;" x1="28.23" y1="-18.078" x2="28.23" y2="-18.078"/>

			<line style="fill:none;stroke:#000000;stroke-width:0.43;stroke-linecap:round;" x1="18.129" y1="-1.908" x2="16.615" y2="-0.215"/>

			<line style="fill:none;stroke:#000000;stroke-width:0.43;stroke-linecap:round;" x1="2.021" y1="-13.485" x2="0.215" y2="-14.43"/>

			<line style="fill:none;stroke:#000000;stroke-width:0.43;stroke-linecap:round;" x1="29.19" y1="-14.418" x2="27.276" y2="-15.418"/>

			<line style="fill:none;stroke:#000000;stroke-width:0.43;stroke-linecap:round;" x1="15.607" y1="-28.088" x2="16.593" y2="-29.19"/>
	</g>
</svg>
