<?xml version="1.0"?>
<!-- Converted with SVG Converter - Version 0.9.5 (Compiled Fri Feb 21 09:53:38 2020) - Copyright (C) 2011 Nokia -->
<svg xmlns="http://www.w3.org/2000/svg" version="1.1" xmlns:xlink="http://www.w3.org/1999/xlink" viewBox="2.16 -31.136 28.975 28.976" height="28.976" x="0px" baseProfile="tiny" width="28.975" y="0px" xml:space="preserve">
 <g>
  <rect style="fill:none;" height="28.976" x="2.16" width="28.975" y="-31.136"/>
  <rect height="28.976" x="2.16" width="28.975" y="-31.136"/>
  <line y2="-8.111" style="fill:none;stroke:#FFFFFF;stroke-width:0.8;stroke-linecap:round;" x2="21.317" x1="21.317" y1="-8.111"/>
  <line y2="-7.151" style="fill:none;stroke:#FFFFFF;stroke-width:0.8;stroke-linecap:round;" x2="16.82" x1="16.82" y1="-7.151"/>
  <line y2="-5.255" style="fill:none;stroke:#FFFFFF;stroke-width:0.8;stroke-linecap:round;" x2="9.648" x1="9.648" y1="-5.255"/>
  <line y2="-4.059" style="fill:none;stroke:#FFFFFF;stroke-width:0.8;stroke-linecap:round;" x2="3.54" x1="3.54" y1="-4.059"/>
  <line y2="-14.578" style="fill:none;stroke:#FFFFFF;stroke-width:0.8;stroke-linecap:round;" x2="15.095" x1="15.095" y1="-14.578"/>
  <line y2="-9.749" style="fill:none;stroke:#FFFFFF;stroke-width:0.8;stroke-linecap:round;" x2="14.233" x1="14.233" y1="-9.749"/>
  <line y2="-24.236" style="fill:none;stroke:#FFFFFF;stroke-width:0.8;stroke-linecap:round;" x2="23.201" x1="23.201" y1="-24.236"/>
  <line y2="-8.665" style="fill:none;stroke:#FFFFFF;stroke-width:0.8;stroke-linecap:round;" x2="24.619" x1="24.619" y1="-8.665"/>
  <line y2="-11.475" style="fill:none;stroke:#FFFFFF;stroke-width:0.8;stroke-linecap:round;" x2="22.856" x1="22.856" y1="-11.475"/>
  <line y2="-4.576" style="fill:none;stroke:#FFFFFF;stroke-width:0.8;stroke-linecap:round;" x2="23.546" x1="23.546" y1="-4.576"/>
  <line y2="-5.447" style="fill:none;stroke:#FFFFFF;stroke-width:0.8;stroke-linecap:round;" x2="20.224" x1="20.224" y1="-5.447"/>
  <line y2="-3.026" style="fill:none;stroke:#FFFFFF;stroke-width:0.8;stroke-linecap:round;" x2="27.304" x1="27.304" y1="-3.026"/>
  <line y2="-3.594" style="fill:none;stroke:#FFFFFF;stroke-width:0.8;stroke-linecap:round;" x2="16.179" x1="16.179" y1="-3.594"/>
  <line y2="-2.833" style="fill:none;stroke:#FFFFFF;stroke-width:0.8;stroke-linecap:round;" x2="11.89" x1="11.89" y1="-2.833"/>
  <line y2="-23.13" style="fill:none;stroke:#FFFFFF;stroke-width:0.8;stroke-linecap:round;" x2="19.334" x1="19.334" y1="-23.13"/>
  <line y2="-30.101" style="fill:none;stroke:#FFFFFF;stroke-width:0.8;stroke-linecap:round;" x2="21.821" x1="21.821" y1="-30.101"/>
  <line y2="-26.996" style="fill:none;stroke:#FFFFFF;stroke-width:0.8;stroke-linecap:round;" x2="17.337" x1="17.337" y1="-26.996"/>
  <line y2="-29.594" style="fill:none;stroke:#FFFFFF;stroke-width:0.8;stroke-linecap:round;" x2="14.873" x1="14.873" y1="-29.594"/>
  <line y2="-27.291" style="fill:none;stroke:#FFFFFF;stroke-width:0.8;stroke-linecap:round;" x2="12.569" x1="12.569" y1="-27.291"/>
  <line y2="-13.026" style="fill:none;stroke:#FFFFFF;stroke-width:0.8;stroke-linecap:round;" x2="27.857" x1="27.857" y1="-13.026"/>
  <line y2="-8.481" style="fill:none;stroke:#FFFFFF;stroke-width:0.8;stroke-linecap:round;" x2="28.559" x1="28.559" y1="-8.481"/>
  <line y2="-16.821" style="fill:none;stroke:#FFFFFF;stroke-width:0.8;stroke-linecap:round;" x2="21.648" x1="21.648" y1="-16.821"/>
  <line y2="-17.683" style="fill:none;stroke:#FFFFFF;stroke-width:0.8;stroke-linecap:round;" x2="26.684" x1="26.684" y1="-17.683"/>
  <line y2="-25.616" style="fill:none;stroke:#FFFFFF;stroke-width:0.8;stroke-linecap:round;" x2="29.065" x1="29.065" y1="-25.616"/>
  <line y2="-20.614" style="fill:none;stroke:#FFFFFF;stroke-width:0.8;stroke-linecap:round;" x2="26.65" x1="26.65" y1="-20.614"/>
  <line y2="-17.683" style="fill:none;stroke:#FFFFFF;stroke-width:0.8;stroke-linecap:round;" x2="17.165" x1="17.165" y1="-17.683"/>
  <line y2="-11.67" style="fill:none;stroke:#FFFFFF;stroke-width:0.8;stroke-linecap:round;" x2="19.741" x1="19.741" y1="-11.67"/>
  <line y2="-29.583" style="fill:none;stroke:#FFFFFF;stroke-width:0.8;stroke-linecap:round;" x2="29.754" x1="29.754" y1="-29.583"/>
  <line y2="-7.372" style="fill:none;stroke:#FFFFFF;stroke-width:0.8;stroke-linecap:round;" x2="5.602" x1="5.602" y1="-7.372"/>
  <line y2="-17.933" style="fill:none;stroke:#FFFFFF;stroke-width:0.8;stroke-linecap:round;" x2="3.601" x1="3.601" y1="-17.933"/>
  <line y2="-13.582" style="fill:none;stroke:#FFFFFF;stroke-width:0.8;stroke-linecap:round;" x2="2.835" x1="2.835" y1="-13.582"/>
  <line y2="-24.409" style="fill:none;stroke:#FFFFFF;stroke-width:0.8;stroke-linecap:round;" x2="3.885" x1="3.885" y1="-24.409"/>
  <line y2="-9.061" style="fill:none;stroke:#FFFFFF;stroke-width:0.8;stroke-linecap:round;" x2="9.755" x1="9.755" y1="-9.061"/>
  <line y2="-11.498" style="fill:none;stroke:#FFFFFF;stroke-width:0.8;stroke-linecap:round;" x2="6.295" x1="6.295" y1="-11.498"/>
  <line y2="-14.061" style="fill:none;stroke:#FFFFFF;stroke-width:0.8;stroke-linecap:round;" x2="10.439" x1="10.439" y1="-14.061"/>
  <line y2="-19.124" style="fill:none;stroke:#FFFFFF;stroke-width:0.8;stroke-linecap:round;" x2="7.112" x1="7.112" y1="-19.124"/>
  <line y2="-29.756" style="fill:none;stroke:#FFFFFF;stroke-width:0.8;stroke-linecap:round;" x2="5.782" x1="5.782" y1="-29.756"/>
  <line y2="-23.29" style="fill:none;stroke:#FFFFFF;stroke-width:0.8;stroke-linecap:round;" x2="15.467" x1="15.467" y1="-23.29"/>
  <line y2="-24.597" style="fill:none;stroke:#FFFFFF;stroke-width:0.8;stroke-linecap:round;" x2="8.95" x1="8.95" y1="-24.597"/>
  <line y2="-21.876" style="fill:none;stroke:#FFFFFF;stroke-width:0.8;stroke-linecap:round;" x2="9.62" x1="9.62" y1="-21.876"/>
  <line y2="-18.852" style="fill:none;stroke:#FFFFFF;stroke-width:0.8;stroke-linecap:round;" x2="12.217" x1="12.217" y1="-18.852"/>
  <line y2="-15.613" style="fill:none;stroke:#FFFFFF;stroke-width:0.58;stroke-linecap:round;" x2="26.478" x1="24.408" y1="-13.372"/>
  <line y2="-14.578" style="fill:none;stroke:#FFFFFF;stroke-width:0.58;stroke-linecap:round;" x2="18.027" x1="21.224" y1="-13.102"/>
  <line y2="-7.679" style="fill:none;stroke:#FFFFFF;stroke-width:0.58;stroke-linecap:round;" x2="19.178" x1="17.918" y1="-10.498"/>
  <line y2="-4.5" style="fill:none;stroke:#FFFFFF;stroke-width:0.58;stroke-linecap:round;" x2="28.507" x1="25.167" y1="-7.183"/>
  <line y2="-11.398" style="fill:none;stroke:#FFFFFF;stroke-width:0.58;stroke-linecap:round;" x2="30.229" x1="27.19" y1="-10.035"/>
  <line y2="-10.268" style="fill:none;stroke:#FFFFFF;stroke-width:0.58;stroke-linecap:round;" x2="3.368" x1="6.817" y1="-9.405"/>
  <line y2="-3.541" style="fill:none;stroke:#FFFFFF;stroke-width:0.58;stroke-linecap:round;" x2="6.472" x1="8.434" y1="-6.656"/>
  <line y2="-4.92" style="fill:none;stroke:#FFFFFF;stroke-width:0.58;stroke-linecap:round;" x2="14.922" x1="12.163" y1="-7.507"/>
  <line y2="-12.854" style="fill:none;stroke:#FFFFFF;stroke-width:0.58;stroke-linecap:round;" x2="14.233" x1="11.299" y1="-11.056"/>
  <line y2="-15.613" style="fill:none;stroke:#FFFFFF;stroke-width:0.58;stroke-linecap:round;" x2="6.989" x1="8.229" y1="-12.386"/>
  <line y2="-19.397" style="fill:none;stroke:#FFFFFF;stroke-width:0.58;stroke-linecap:round;" x2="19.898" x1="21.994" y1="-21.994"/>
  <line y2="-18.738" style="fill:none;stroke:#FFFFFF;stroke-width:0.58;stroke-linecap:round;" x2="24.081" x1="24.601" y1="-22.413"/>
  <line y2="-22.825" style="fill:none;stroke:#FFFFFF;stroke-width:0.58;stroke-linecap:round;" x2="30.145" x1="27.204" y1="-22.993"/>
  <line y2="-30.114" style="fill:none;stroke:#FFFFFF;stroke-width:0.58;stroke-linecap:round;" x2="25.429" x1="24.499" y1="-26.711"/>
  <line y2="-27.724" style="fill:none;stroke:#FFFFFF;stroke-width:0.58;stroke-linecap:round;" x2="19.787" x1="21.921" y1="-25.519"/>
  <line y2="-27.624" style="fill:none;stroke:#FFFFFF;stroke-width:0.58;stroke-linecap:round;" x2="4.443" x1="7.068" y1="-25.226"/>
  <line y2="-20.231" style="fill:none;stroke:#FFFFFF;stroke-width:0.58;stroke-linecap:round;" x2="3.975" x1="6.797" y1="-22.106"/>
  <line y2="-15.959" style="fill:none;stroke:#FFFFFF;stroke-width:0.58;stroke-linecap:round;" x2="12.335" x1="9.748" y1="-18.201"/>
  <line y2="-30.605" style="fill:none;stroke:#FFFFFF;stroke-width:0.58;stroke-linecap:round;" x2="10.171" x1="9.581" y1="-26.61"/>
  <line y2="-25.271" style="fill:none;stroke:#FFFFFF;stroke-width:0.58;stroke-linecap:round;" x2="15.268" x1="12.335" y1="-23.892"/>
  <line y2="-21.617" style="fill:none;stroke:#FFFFFF;stroke-width:0.58;stroke-linecap:round;" x2="16.456" x1="14.982" y1="-18.218"/>
  <line y2="-28.094" style="fill:none;stroke:#FFFFFF;stroke-width:0.8;stroke-linecap:round;" x2="26.679" x1="26.679" y1="-28.094"/>
  <line y2="-6.156" style="fill:none;stroke:#FFFFFF;stroke-width:0.8;stroke-linecap:round;" x2="30.708" x1="30.708" y1="-6.156"/>
  <line y2="-20.023" style="fill:none;stroke:#FFFFFF;stroke-width:0.8;stroke-linecap:round;" x2="30.175" x1="30.175" y1="-20.023"/>
  <line y2="-2.16" style="fill:none;stroke:#FFFFFF;stroke-width:0.58;stroke-linecap:round;" x2="18.56" x1="20.074" y1="-3.853"/>
  <line y2="-16.375" style="fill:none;stroke:#FFFFFF;stroke-width:0.58;stroke-linecap:round;" x2="2.16" x1="3.966" y1="-15.431"/>
  <line y2="-17.363" style="fill:none;stroke:#FFFFFF;stroke-width:0.58;stroke-linecap:round;" x2="29.221" x1="31.134" y1="-16.363"/>
  <line y2="-31.136" style="fill:none;stroke:#FFFFFF;stroke-width:0.58;stroke-linecap:round;" x2="18.538" x1="17.552" y1="-30.033"/>
 </g>
</svg>
