<?xml version="1.0"?>
<!-- Converted with SVG Converter - Version 0.9.5 (Compiled Fri Feb 21 09:53:38 2020) - Copyright (C) 2011 Nokia -->
<svg xmlns="http://www.w3.org/2000/svg" version="1.1" baseProfile="tiny" x="0px" xmlns:xlink="http://www.w3.org/1999/xlink" xml:space="preserve" viewBox="2.16 -31.136 28.975 28.976" y="0px" width="28.975" height="28.976">
 <g>
  <rect x="2.16" style="fill:none;" y="-31.136" width="28.975" height="28.976"/>
  <line style="fill:none;stroke:#00AEEF;stroke-width:0.8;stroke-linecap:round;" x2="21.317" x1="21.317" y2="-8.111" y1="-8.111"/>
  <line style="fill:none;stroke:#00AEEF;stroke-width:0.8;stroke-linecap:round;" x2="16.82" x1="16.82" y2="-7.151" y1="-7.151"/>
  <line style="fill:none;stroke:#00AEEF;stroke-width:0.8;stroke-linecap:round;" x2="9.648" x1="9.648" y2="-5.255" y1="-5.255"/>
  <line style="fill:none;stroke:#00AEEF;stroke-width:0.8;stroke-linecap:round;" x2="3.54" x1="3.54" y2="-4.059" y1="-4.059"/>
  <line style="fill:none;stroke:#00AEEF;stroke-width:0.8;stroke-linecap:round;" x2="15.095" x1="15.095" y2="-14.578" y1="-14.578"/>
  <line style="fill:none;stroke:#00AEEF;stroke-width:0.8;stroke-linecap:round;" x2="14.233" x1="14.233" y2="-9.749" y1="-9.749"/>
  <line style="fill:none;stroke:#00AEEF;stroke-width:0.8;stroke-linecap:round;" x2="23.201" x1="23.201" y2="-24.236" y1="-24.236"/>
  <line style="fill:none;stroke:#00AEEF;stroke-width:0.8;stroke-linecap:round;" x2="24.619" x1="24.619" y2="-8.665" y1="-8.665"/>
  <line style="fill:none;stroke:#00AEEF;stroke-width:0.8;stroke-linecap:round;" x2="22.856" x1="22.856" y2="-11.475" y1="-11.475"/>
  <line style="fill:none;stroke:#00AEEF;stroke-width:0.8;stroke-linecap:round;" x2="23.546" x1="23.546" y2="-4.576" y1="-4.576"/>
  <line style="fill:none;stroke:#00AEEF;stroke-width:0.8;stroke-linecap:round;" x2="20.224" x1="20.224" y2="-5.447" y1="-5.447"/>
  <line style="fill:none;stroke:#00AEEF;stroke-width:0.8;stroke-linecap:round;" x2="27.304" x1="27.304" y2="-3.026" y1="-3.026"/>
  <line style="fill:none;stroke:#00AEEF;stroke-width:0.8;stroke-linecap:round;" x2="16.179" x1="16.179" y2="-3.594" y1="-3.594"/>
  <line style="fill:none;stroke:#00AEEF;stroke-width:0.8;stroke-linecap:round;" x2="11.89" x1="11.89" y2="-2.833" y1="-2.833"/>
  <line style="fill:none;stroke:#00AEEF;stroke-width:0.8;stroke-linecap:round;" x2="19.334" x1="19.334" y2="-23.13" y1="-23.13"/>
  <line style="fill:none;stroke:#00AEEF;stroke-width:0.8;stroke-linecap:round;" x2="21.821" x1="21.821" y2="-30.101" y1="-30.101"/>
  <line style="fill:none;stroke:#00AEEF;stroke-width:0.8;stroke-linecap:round;" x2="17.337" x1="17.337" y2="-26.996" y1="-26.996"/>
  <line style="fill:none;stroke:#00AEEF;stroke-width:0.8;stroke-linecap:round;" x2="14.873" x1="14.873" y2="-29.594" y1="-29.594"/>
  <line style="fill:none;stroke:#00AEEF;stroke-width:0.8;stroke-linecap:round;" x2="12.569" x1="12.569" y2="-27.291" y1="-27.291"/>
  <line style="fill:none;stroke:#00AEEF;stroke-width:0.8;stroke-linecap:round;" x2="27.857" x1="27.857" y2="-13.026" y1="-13.026"/>
  <line style="fill:none;stroke:#00AEEF;stroke-width:0.8;stroke-linecap:round;" x2="28.559" x1="28.559" y2="-8.481" y1="-8.481"/>
  <line style="fill:none;stroke:#00AEEF;stroke-width:0.8;stroke-linecap:round;" x2="21.648" x1="21.648" y2="-16.821" y1="-16.821"/>
  <line style="fill:none;stroke:#00AEEF;stroke-width:0.8;stroke-linecap:round;" x2="26.684" x1="26.684" y2="-17.683" y1="-17.683"/>
  <line style="fill:none;stroke:#00AEEF;stroke-width:0.8;stroke-linecap:round;" x2="29.065" x1="29.065" y2="-25.616" y1="-25.616"/>
  <line style="fill:none;stroke:#00AEEF;stroke-width:0.8;stroke-linecap:round;" x2="26.65" x1="26.65" y2="-20.614" y1="-20.614"/>
  <line style="fill:none;stroke:#00AEEF;stroke-width:0.8;stroke-linecap:round;" x2="17.165" x1="17.165" y2="-17.683" y1="-17.683"/>
  <line style="fill:none;stroke:#00AEEF;stroke-width:0.8;stroke-linecap:round;" x2="19.741" x1="19.741" y2="-11.67" y1="-11.67"/>
  <line style="fill:none;stroke:#00AEEF;stroke-width:0.8;stroke-linecap:round;" x2="29.754" x1="29.754" y2="-29.583" y1="-29.583"/>
  <line style="fill:none;stroke:#00AEEF;stroke-width:0.8;stroke-linecap:round;" x2="5.602" x1="5.602" y2="-7.372" y1="-7.372"/>
  <line style="fill:none;stroke:#00AEEF;stroke-width:0.8;stroke-linecap:round;" x2="3.601" x1="3.601" y2="-17.933" y1="-17.933"/>
  <line style="fill:none;stroke:#00AEEF;stroke-width:0.8;stroke-linecap:round;" x2="2.835" x1="2.835" y2="-13.582" y1="-13.582"/>
  <line style="fill:none;stroke:#00AEEF;stroke-width:0.8;stroke-linecap:round;" x2="3.885" x1="3.885" y2="-24.409" y1="-24.409"/>
  <line style="fill:none;stroke:#00AEEF;stroke-width:0.8;stroke-linecap:round;" x2="9.755" x1="9.755" y2="-9.061" y1="-9.061"/>
  <line style="fill:none;stroke:#00AEEF;stroke-width:0.8;stroke-linecap:round;" x2="6.295" x1="6.295" y2="-11.498" y1="-11.498"/>
  <line style="fill:none;stroke:#00AEEF;stroke-width:0.8;stroke-linecap:round;" x2="10.439" x1="10.439" y2="-14.061" y1="-14.061"/>
  <line style="fill:none;stroke:#00AEEF;stroke-width:0.8;stroke-linecap:round;" x2="7.112" x1="7.112" y2="-19.124" y1="-19.124"/>
  <line style="fill:none;stroke:#00AEEF;stroke-width:0.8;stroke-linecap:round;" x2="5.782" x1="5.782" y2="-29.756" y1="-29.756"/>
  <line style="fill:none;stroke:#00AEEF;stroke-width:0.8;stroke-linecap:round;" x2="15.467" x1="15.467" y2="-23.29" y1="-23.29"/>
  <line style="fill:none;stroke:#00AEEF;stroke-width:0.8;stroke-linecap:round;" x2="8.95" x1="8.95" y2="-24.597" y1="-24.597"/>
  <line style="fill:none;stroke:#00AEEF;stroke-width:0.8;stroke-linecap:round;" x2="9.62" x1="9.62" y2="-21.876" y1="-21.876"/>
  <line style="fill:none;stroke:#00AEEF;stroke-width:0.8;stroke-linecap:round;" x2="12.217" x1="12.217" y2="-18.852" y1="-18.852"/>
  <line style="fill:none;stroke:#00AEEF;stroke-width:0.58;stroke-linecap:round;" x2="26.478" x1="24.408" y2="-15.613" y1="-13.372"/>
  <line style="fill:none;stroke:#00AEEF;stroke-width:0.58;stroke-linecap:round;" x2="18.027" x1="21.224" y2="-14.578" y1="-13.102"/>
  <line style="fill:none;stroke:#00AEEF;stroke-width:0.58;stroke-linecap:round;" x2="19.178" x1="17.918" y2="-7.679" y1="-10.498"/>
  <line style="fill:none;stroke:#00AEEF;stroke-width:0.58;stroke-linecap:round;" x2="28.507" x1="25.167" y2="-4.5" y1="-7.183"/>
  <line style="fill:none;stroke:#00AEEF;stroke-width:0.58;stroke-linecap:round;" x2="30.229" x1="27.19" y2="-11.398" y1="-10.035"/>
  <line style="fill:none;stroke:#00AEEF;stroke-width:0.58;stroke-linecap:round;" x2="3.368" x1="6.817" y2="-10.268" y1="-9.405"/>
  <line style="fill:none;stroke:#00AEEF;stroke-width:0.58;stroke-linecap:round;" x2="6.472" x1="8.434" y2="-3.541" y1="-6.656"/>
  <line style="fill:none;stroke:#00AEEF;stroke-width:0.58;stroke-linecap:round;" x2="14.922" x1="12.163" y2="-4.92" y1="-7.507"/>
  <line style="fill:none;stroke:#00AEEF;stroke-width:0.58;stroke-linecap:round;" x2="14.233" x1="11.299" y2="-12.854" y1="-11.056"/>
  <line style="fill:none;stroke:#00AEEF;stroke-width:0.58;stroke-linecap:round;" x2="6.989" x1="8.229" y2="-15.613" y1="-12.386"/>
  <line style="fill:none;stroke:#00AEEF;stroke-width:0.58;stroke-linecap:round;" x2="19.898" x1="21.994" y2="-19.397" y1="-21.994"/>
  <line style="fill:none;stroke:#00AEEF;stroke-width:0.58;stroke-linecap:round;" x2="24.081" x1="24.601" y2="-18.738" y1="-22.413"/>
  <line style="fill:none;stroke:#00AEEF;stroke-width:0.58;stroke-linecap:round;" x2="30.145" x1="27.204" y2="-22.825" y1="-22.993"/>
  <line style="fill:none;stroke:#00AEEF;stroke-width:0.58;stroke-linecap:round;" x2="25.429" x1="24.499" y2="-30.114" y1="-26.711"/>
  <line style="fill:none;stroke:#00AEEF;stroke-width:0.58;stroke-linecap:round;" x2="19.787" x1="21.921" y2="-27.724" y1="-25.519"/>
  <line style="fill:none;stroke:#00AEEF;stroke-width:0.58;stroke-linecap:round;" x2="4.443" x1="7.068" y2="-27.624" y1="-25.226"/>
  <line style="fill:none;stroke:#00AEEF;stroke-width:0.58;stroke-linecap:round;" x2="3.975" x1="6.797" y2="-20.231" y1="-22.106"/>
  <line style="fill:none;stroke:#00AEEF;stroke-width:0.58;stroke-linecap:round;" x2="12.335" x1="9.748" y2="-15.959" y1="-18.201"/>
  <line style="fill:none;stroke:#00AEEF;stroke-width:0.58;stroke-linecap:round;" x2="10.171" x1="9.581" y2="-30.605" y1="-26.61"/>
  <line style="fill:none;stroke:#00AEEF;stroke-width:0.58;stroke-linecap:round;" x2="15.268" x1="12.335" y2="-25.271" y1="-23.892"/>
  <line style="fill:none;stroke:#00AEEF;stroke-width:0.58;stroke-linecap:round;" x2="16.456" x1="14.982" y2="-21.617" y1="-18.218"/>
  <line style="fill:none;stroke:#00AEEF;stroke-width:0.8;stroke-linecap:round;" x2="26.679" x1="26.679" y2="-28.094" y1="-28.094"/>
  <line style="fill:none;stroke:#00AEEF;stroke-width:0.8;stroke-linecap:round;" x2="30.708" x1="30.708" y2="-6.156" y1="-6.156"/>
  <line style="fill:none;stroke:#00AEEF;stroke-width:0.8;stroke-linecap:round;" x2="30.175" x1="30.175" y2="-20.023" y1="-20.023"/>
  <line style="fill:none;stroke:#00AEEF;stroke-width:0.58;stroke-linecap:round;" x2="18.56" x1="20.074" y2="-2.16" y1="-3.853"/>
  <line style="fill:none;stroke:#00AEEF;stroke-width:0.58;stroke-linecap:round;" x2="2.16" x1="3.966" y2="-16.375" y1="-15.431"/>
  <line style="fill:none;stroke:#00AEEF;stroke-width:0.58;stroke-linecap:round;" x2="29.221" x1="31.134" y2="-17.363" y1="-16.363"/>
  <line style="fill:none;stroke:#00AEEF;stroke-width:0.58;stroke-linecap:round;" x2="18.538" x1="17.552" y2="-31.136" y1="-30.033"/>
 </g>
</svg>
