<?xml version="1.0"?>
<!-- Converted with SVG Converter - Version 0.9.6 (Compiled Thu Aug 31 10:01:05 2017) - Copyright (C) 2011 Nokia -->
<svg xmlns="http://www.w3.org/2000/svg" viewBox="2.16 -31.136 28.975 28.976" width="28.975" xml:space="preserve" height="28.976" y="0px" baseProfile="tiny" version="1.1" x="0px" xmlns:xlink="http://www.w3.org/1999/xlink">
 <g>
  <rect style="fill:none;" width="28.975" height="28.976" y="-31.136" x="2.16"/>
  <line x1="21.317" style="fill:none;stroke:#00AEEF;stroke-width:0.8;stroke-linecap:round;" y2="-8.111" y1="-8.111" x2="21.317"/>
  <line x1="16.82" style="fill:none;stroke:#00AEEF;stroke-width:0.8;stroke-linecap:round;" y2="-7.151" y1="-7.151" x2="16.82"/>
  <line x1="9.648" style="fill:none;stroke:#00AEEF;stroke-width:0.8;stroke-linecap:round;" y2="-5.255" y1="-5.255" x2="9.648"/>
  <line x1="3.54" style="fill:none;stroke:#00AEEF;stroke-width:0.8;stroke-linecap:round;" y2="-4.059" y1="-4.059" x2="3.54"/>
  <line x1="15.095" style="fill:none;stroke:#00AEEF;stroke-width:0.8;stroke-linecap:round;" y2="-14.578" y1="-14.578" x2="15.095"/>
  <line x1="14.233" style="fill:none;stroke:#00AEEF;stroke-width:0.8;stroke-linecap:round;" y2="-9.749" y1="-9.749" x2="14.233"/>
  <line x1="23.201" style="fill:none;stroke:#00AEEF;stroke-width:0.8;stroke-linecap:round;" y2="-24.236" y1="-24.236" x2="23.201"/>
  <line x1="24.619" style="fill:none;stroke:#00AEEF;stroke-width:0.8;stroke-linecap:round;" y2="-8.665" y1="-8.665" x2="24.619"/>
  <line x1="22.856" style="fill:none;stroke:#00AEEF;stroke-width:0.8;stroke-linecap:round;" y2="-11.475" y1="-11.475" x2="22.856"/>
  <line x1="23.546" style="fill:none;stroke:#00AEEF;stroke-width:0.8;stroke-linecap:round;" y2="-4.576" y1="-4.576" x2="23.546"/>
  <line x1="20.224" style="fill:none;stroke:#00AEEF;stroke-width:0.8;stroke-linecap:round;" y2="-5.447" y1="-5.447" x2="20.224"/>
  <line x1="27.304" style="fill:none;stroke:#00AEEF;stroke-width:0.8;stroke-linecap:round;" y2="-3.026" y1="-3.026" x2="27.304"/>
  <line x1="16.179" style="fill:none;stroke:#00AEEF;stroke-width:0.8;stroke-linecap:round;" y2="-3.594" y1="-3.594" x2="16.179"/>
  <line x1="11.89" style="fill:none;stroke:#00AEEF;stroke-width:0.8;stroke-linecap:round;" y2="-2.833" y1="-2.833" x2="11.89"/>
  <line x1="19.334" style="fill:none;stroke:#00AEEF;stroke-width:0.8;stroke-linecap:round;" y2="-23.13" y1="-23.13" x2="19.334"/>
  <line x1="21.821" style="fill:none;stroke:#00AEEF;stroke-width:0.8;stroke-linecap:round;" y2="-30.101" y1="-30.101" x2="21.821"/>
  <line x1="17.337" style="fill:none;stroke:#00AEEF;stroke-width:0.8;stroke-linecap:round;" y2="-26.996" y1="-26.996" x2="17.337"/>
  <line x1="14.873" style="fill:none;stroke:#00AEEF;stroke-width:0.8;stroke-linecap:round;" y2="-29.594" y1="-29.594" x2="14.873"/>
  <line x1="12.569" style="fill:none;stroke:#00AEEF;stroke-width:0.8;stroke-linecap:round;" y2="-27.291" y1="-27.291" x2="12.569"/>
  <line x1="27.857" style="fill:none;stroke:#00AEEF;stroke-width:0.8;stroke-linecap:round;" y2="-13.026" y1="-13.026" x2="27.857"/>
  <line x1="28.559" style="fill:none;stroke:#00AEEF;stroke-width:0.8;stroke-linecap:round;" y2="-8.481" y1="-8.481" x2="28.559"/>
  <line x1="21.648" style="fill:none;stroke:#00AEEF;stroke-width:0.8;stroke-linecap:round;" y2="-16.821" y1="-16.821" x2="21.648"/>
  <line x1="26.684" style="fill:none;stroke:#00AEEF;stroke-width:0.8;stroke-linecap:round;" y2="-17.683" y1="-17.683" x2="26.684"/>
  <line x1="29.065" style="fill:none;stroke:#00AEEF;stroke-width:0.8;stroke-linecap:round;" y2="-25.616" y1="-25.616" x2="29.065"/>
  <line x1="26.65" style="fill:none;stroke:#00AEEF;stroke-width:0.8;stroke-linecap:round;" y2="-20.614" y1="-20.614" x2="26.65"/>
  <line x1="17.165" style="fill:none;stroke:#00AEEF;stroke-width:0.8;stroke-linecap:round;" y2="-17.683" y1="-17.683" x2="17.165"/>
  <line x1="19.741" style="fill:none;stroke:#00AEEF;stroke-width:0.8;stroke-linecap:round;" y2="-11.67" y1="-11.67" x2="19.741"/>
  <line x1="29.754" style="fill:none;stroke:#00AEEF;stroke-width:0.8;stroke-linecap:round;" y2="-29.583" y1="-29.583" x2="29.754"/>
  <line x1="5.602" style="fill:none;stroke:#00AEEF;stroke-width:0.8;stroke-linecap:round;" y2="-7.372" y1="-7.372" x2="5.602"/>
  <line x1="3.601" style="fill:none;stroke:#00AEEF;stroke-width:0.8;stroke-linecap:round;" y2="-17.933" y1="-17.933" x2="3.601"/>
  <line x1="2.835" style="fill:none;stroke:#00AEEF;stroke-width:0.8;stroke-linecap:round;" y2="-13.582" y1="-13.582" x2="2.835"/>
  <line x1="3.885" style="fill:none;stroke:#00AEEF;stroke-width:0.8;stroke-linecap:round;" y2="-24.409" y1="-24.409" x2="3.885"/>
  <line x1="9.755" style="fill:none;stroke:#00AEEF;stroke-width:0.8;stroke-linecap:round;" y2="-9.061" y1="-9.061" x2="9.755"/>
  <line x1="6.295" style="fill:none;stroke:#00AEEF;stroke-width:0.8;stroke-linecap:round;" y2="-11.498" y1="-11.498" x2="6.295"/>
  <line x1="10.439" style="fill:none;stroke:#00AEEF;stroke-width:0.8;stroke-linecap:round;" y2="-14.061" y1="-14.061" x2="10.439"/>
  <line x1="7.112" style="fill:none;stroke:#00AEEF;stroke-width:0.8;stroke-linecap:round;" y2="-19.124" y1="-19.124" x2="7.112"/>
  <line x1="5.782" style="fill:none;stroke:#00AEEF;stroke-width:0.8;stroke-linecap:round;" y2="-29.756" y1="-29.756" x2="5.782"/>
  <line x1="15.467" style="fill:none;stroke:#00AEEF;stroke-width:0.8;stroke-linecap:round;" y2="-23.29" y1="-23.29" x2="15.467"/>
  <line x1="8.95" style="fill:none;stroke:#00AEEF;stroke-width:0.8;stroke-linecap:round;" y2="-24.597" y1="-24.597" x2="8.95"/>
  <line x1="9.62" style="fill:none;stroke:#00AEEF;stroke-width:0.8;stroke-linecap:round;" y2="-21.876" y1="-21.876" x2="9.62"/>
  <line x1="12.217" style="fill:none;stroke:#00AEEF;stroke-width:0.8;stroke-linecap:round;" y2="-18.852" y1="-18.852" x2="12.217"/>
  <line x1="24.408" style="fill:none;stroke:#00AEEF;stroke-width:0.58;stroke-linecap:round;" y2="-15.613" y1="-13.372" x2="26.478"/>
  <line x1="21.224" style="fill:none;stroke:#00AEEF;stroke-width:0.58;stroke-linecap:round;" y2="-14.578" y1="-13.102" x2="18.027"/>
  <line x1="17.918" style="fill:none;stroke:#00AEEF;stroke-width:0.58;stroke-linecap:round;" y2="-7.679" y1="-10.498" x2="19.178"/>
  <line x1="25.167" style="fill:none;stroke:#00AEEF;stroke-width:0.58;stroke-linecap:round;" y2="-4.5" y1="-7.183" x2="28.507"/>
  <line x1="27.19" style="fill:none;stroke:#00AEEF;stroke-width:0.58;stroke-linecap:round;" y2="-11.398" y1="-10.035" x2="30.229"/>
  <line x1="6.817" style="fill:none;stroke:#00AEEF;stroke-width:0.58;stroke-linecap:round;" y2="-10.268" y1="-9.405" x2="3.368"/>
  <line x1="8.434" style="fill:none;stroke:#00AEEF;stroke-width:0.58;stroke-linecap:round;" y2="-3.541" y1="-6.656" x2="6.472"/>
  <line x1="12.163" style="fill:none;stroke:#00AEEF;stroke-width:0.58;stroke-linecap:round;" y2="-4.92" y1="-7.507" x2="14.922"/>
  <line x1="11.299" style="fill:none;stroke:#00AEEF;stroke-width:0.58;stroke-linecap:round;" y2="-12.854" y1="-11.056" x2="14.233"/>
  <line x1="8.229" style="fill:none;stroke:#00AEEF;stroke-width:0.58;stroke-linecap:round;" y2="-15.613" y1="-12.386" x2="6.989"/>
  <line x1="21.994" style="fill:none;stroke:#00AEEF;stroke-width:0.58;stroke-linecap:round;" y2="-19.397" y1="-21.994" x2="19.898"/>
  <line x1="24.601" style="fill:none;stroke:#00AEEF;stroke-width:0.58;stroke-linecap:round;" y2="-18.738" y1="-22.413" x2="24.081"/>
  <line x1="27.204" style="fill:none;stroke:#00AEEF;stroke-width:0.58;stroke-linecap:round;" y2="-22.825" y1="-22.993" x2="30.145"/>
  <line x1="24.499" style="fill:none;stroke:#00AEEF;stroke-width:0.58;stroke-linecap:round;" y2="-30.114" y1="-26.711" x2="25.429"/>
  <line x1="21.921" style="fill:none;stroke:#00AEEF;stroke-width:0.58;stroke-linecap:round;" y2="-27.724" y1="-25.519" x2="19.787"/>
  <line x1="7.068" style="fill:none;stroke:#00AEEF;stroke-width:0.58;stroke-linecap:round;" y2="-27.624" y1="-25.226" x2="4.443"/>
  <line x1="6.797" style="fill:none;stroke:#00AEEF;stroke-width:0.58;stroke-linecap:round;" y2="-20.231" y1="-22.106" x2="3.975"/>
  <line x1="9.748" style="fill:none;stroke:#00AEEF;stroke-width:0.58;stroke-linecap:round;" y2="-15.959" y1="-18.201" x2="12.335"/>
  <line x1="9.581" style="fill:none;stroke:#00AEEF;stroke-width:0.58;stroke-linecap:round;" y2="-30.605" y1="-26.61" x2="10.171"/>
  <line x1="12.335" style="fill:none;stroke:#00AEEF;stroke-width:0.58;stroke-linecap:round;" y2="-25.271" y1="-23.892" x2="15.268"/>
  <line x1="14.982" style="fill:none;stroke:#00AEEF;stroke-width:0.58;stroke-linecap:round;" y2="-21.617" y1="-18.218" x2="16.456"/>
  <line x1="26.679" style="fill:none;stroke:#00AEEF;stroke-width:0.8;stroke-linecap:round;" y2="-28.094" y1="-28.094" x2="26.679"/>
  <line x1="30.708" style="fill:none;stroke:#00AEEF;stroke-width:0.8;stroke-linecap:round;" y2="-6.156" y1="-6.156" x2="30.708"/>
  <line x1="30.175" style="fill:none;stroke:#00AEEF;stroke-width:0.8;stroke-linecap:round;" y2="-20.023" y1="-20.023" x2="30.175"/>
  <line x1="20.074" style="fill:none;stroke:#00AEEF;stroke-width:0.58;stroke-linecap:round;" y2="-2.16" y1="-3.853" x2="18.56"/>
  <line x1="3.966" style="fill:none;stroke:#00AEEF;stroke-width:0.58;stroke-linecap:round;" y2="-16.375" y1="-15.431" x2="2.16"/>
  <line x1="31.134" style="fill:none;stroke:#00AEEF;stroke-width:0.58;stroke-linecap:round;" y2="-17.363" y1="-16.363" x2="29.221"/>
  <line x1="17.552" style="fill:none;stroke:#00AEEF;stroke-width:0.58;stroke-linecap:round;" y2="-31.136" y1="-30.033" x2="18.538"/>
 </g>
</svg>
