<?xml version="1.0"?>
<!-- Converted with SVG Converter - Version 0.9.6 (Compiled Thu Aug 31 10:01:05 2017) - Copyright (C) 2011 Nokia -->
<svg xmlns="http://www.w3.org/2000/svg" version="1.1" height="28.976" xmlns:xlink="http://www.w3.org/1999/xlink" width="28.975" xml:space="preserve" y="0px" viewBox="2.16 -31.136 28.975 28.976" x="0px" baseProfile="tiny">
 <g>
  <rect height="28.976" style="fill:none;" width="28.975" y="-31.136" x="2.16"/>
  <rect height="28.976" width="28.975" y="-31.136" x="2.16"/>
  <line style="fill:none;stroke:#FFFFFF;stroke-width:0.8;stroke-linecap:round;" y1="-8.111" x2="21.317" y2="-8.111" x1="21.317"/>
  <line style="fill:none;stroke:#FFFFFF;stroke-width:0.8;stroke-linecap:round;" y1="-7.151" x2="16.82" y2="-7.151" x1="16.82"/>
  <line style="fill:none;stroke:#FFFFFF;stroke-width:0.8;stroke-linecap:round;" y1="-5.255" x2="9.648" y2="-5.255" x1="9.648"/>
  <line style="fill:none;stroke:#FFFFFF;stroke-width:0.8;stroke-linecap:round;" y1="-4.059" x2="3.54" y2="-4.059" x1="3.54"/>
  <line style="fill:none;stroke:#FFFFFF;stroke-width:0.8;stroke-linecap:round;" y1="-14.578" x2="15.095" y2="-14.578" x1="15.095"/>
  <line style="fill:none;stroke:#FFFFFF;stroke-width:0.8;stroke-linecap:round;" y1="-9.749" x2="14.233" y2="-9.749" x1="14.233"/>
  <line style="fill:none;stroke:#FFFFFF;stroke-width:0.8;stroke-linecap:round;" y1="-24.236" x2="23.201" y2="-24.236" x1="23.201"/>
  <line style="fill:none;stroke:#FFFFFF;stroke-width:0.8;stroke-linecap:round;" y1="-8.665" x2="24.619" y2="-8.665" x1="24.619"/>
  <line style="fill:none;stroke:#FFFFFF;stroke-width:0.8;stroke-linecap:round;" y1="-11.475" x2="22.856" y2="-11.475" x1="22.856"/>
  <line style="fill:none;stroke:#FFFFFF;stroke-width:0.8;stroke-linecap:round;" y1="-4.576" x2="23.546" y2="-4.576" x1="23.546"/>
  <line style="fill:none;stroke:#FFFFFF;stroke-width:0.8;stroke-linecap:round;" y1="-5.447" x2="20.224" y2="-5.447" x1="20.224"/>
  <line style="fill:none;stroke:#FFFFFF;stroke-width:0.8;stroke-linecap:round;" y1="-3.026" x2="27.304" y2="-3.026" x1="27.304"/>
  <line style="fill:none;stroke:#FFFFFF;stroke-width:0.8;stroke-linecap:round;" y1="-3.594" x2="16.179" y2="-3.594" x1="16.179"/>
  <line style="fill:none;stroke:#FFFFFF;stroke-width:0.8;stroke-linecap:round;" y1="-2.833" x2="11.89" y2="-2.833" x1="11.89"/>
  <line style="fill:none;stroke:#FFFFFF;stroke-width:0.8;stroke-linecap:round;" y1="-23.13" x2="19.334" y2="-23.13" x1="19.334"/>
  <line style="fill:none;stroke:#FFFFFF;stroke-width:0.8;stroke-linecap:round;" y1="-30.101" x2="21.821" y2="-30.101" x1="21.821"/>
  <line style="fill:none;stroke:#FFFFFF;stroke-width:0.8;stroke-linecap:round;" y1="-26.996" x2="17.337" y2="-26.996" x1="17.337"/>
  <line style="fill:none;stroke:#FFFFFF;stroke-width:0.8;stroke-linecap:round;" y1="-29.594" x2="14.873" y2="-29.594" x1="14.873"/>
  <line style="fill:none;stroke:#FFFFFF;stroke-width:0.8;stroke-linecap:round;" y1="-27.291" x2="12.569" y2="-27.291" x1="12.569"/>
  <line style="fill:none;stroke:#FFFFFF;stroke-width:0.8;stroke-linecap:round;" y1="-13.026" x2="27.857" y2="-13.026" x1="27.857"/>
  <line style="fill:none;stroke:#FFFFFF;stroke-width:0.8;stroke-linecap:round;" y1="-8.481" x2="28.559" y2="-8.481" x1="28.559"/>
  <line style="fill:none;stroke:#FFFFFF;stroke-width:0.8;stroke-linecap:round;" y1="-16.821" x2="21.648" y2="-16.821" x1="21.648"/>
  <line style="fill:none;stroke:#FFFFFF;stroke-width:0.8;stroke-linecap:round;" y1="-17.683" x2="26.684" y2="-17.683" x1="26.684"/>
  <line style="fill:none;stroke:#FFFFFF;stroke-width:0.8;stroke-linecap:round;" y1="-25.616" x2="29.065" y2="-25.616" x1="29.065"/>
  <line style="fill:none;stroke:#FFFFFF;stroke-width:0.8;stroke-linecap:round;" y1="-20.614" x2="26.65" y2="-20.614" x1="26.65"/>
  <line style="fill:none;stroke:#FFFFFF;stroke-width:0.8;stroke-linecap:round;" y1="-17.683" x2="17.165" y2="-17.683" x1="17.165"/>
  <line style="fill:none;stroke:#FFFFFF;stroke-width:0.8;stroke-linecap:round;" y1="-11.67" x2="19.741" y2="-11.67" x1="19.741"/>
  <line style="fill:none;stroke:#FFFFFF;stroke-width:0.8;stroke-linecap:round;" y1="-29.583" x2="29.754" y2="-29.583" x1="29.754"/>
  <line style="fill:none;stroke:#FFFFFF;stroke-width:0.8;stroke-linecap:round;" y1="-7.372" x2="5.602" y2="-7.372" x1="5.602"/>
  <line style="fill:none;stroke:#FFFFFF;stroke-width:0.8;stroke-linecap:round;" y1="-17.933" x2="3.601" y2="-17.933" x1="3.601"/>
  <line style="fill:none;stroke:#FFFFFF;stroke-width:0.8;stroke-linecap:round;" y1="-13.582" x2="2.835" y2="-13.582" x1="2.835"/>
  <line style="fill:none;stroke:#FFFFFF;stroke-width:0.8;stroke-linecap:round;" y1="-24.409" x2="3.885" y2="-24.409" x1="3.885"/>
  <line style="fill:none;stroke:#FFFFFF;stroke-width:0.8;stroke-linecap:round;" y1="-9.061" x2="9.755" y2="-9.061" x1="9.755"/>
  <line style="fill:none;stroke:#FFFFFF;stroke-width:0.8;stroke-linecap:round;" y1="-11.498" x2="6.295" y2="-11.498" x1="6.295"/>
  <line style="fill:none;stroke:#FFFFFF;stroke-width:0.8;stroke-linecap:round;" y1="-14.061" x2="10.439" y2="-14.061" x1="10.439"/>
  <line style="fill:none;stroke:#FFFFFF;stroke-width:0.8;stroke-linecap:round;" y1="-19.124" x2="7.112" y2="-19.124" x1="7.112"/>
  <line style="fill:none;stroke:#FFFFFF;stroke-width:0.8;stroke-linecap:round;" y1="-29.756" x2="5.782" y2="-29.756" x1="5.782"/>
  <line style="fill:none;stroke:#FFFFFF;stroke-width:0.8;stroke-linecap:round;" y1="-23.29" x2="15.467" y2="-23.29" x1="15.467"/>
  <line style="fill:none;stroke:#FFFFFF;stroke-width:0.8;stroke-linecap:round;" y1="-24.597" x2="8.95" y2="-24.597" x1="8.95"/>
  <line style="fill:none;stroke:#FFFFFF;stroke-width:0.8;stroke-linecap:round;" y1="-21.876" x2="9.62" y2="-21.876" x1="9.62"/>
  <line style="fill:none;stroke:#FFFFFF;stroke-width:0.8;stroke-linecap:round;" y1="-18.852" x2="12.217" y2="-18.852" x1="12.217"/>
  <line style="fill:none;stroke:#FFFFFF;stroke-width:0.58;stroke-linecap:round;" y1="-13.372" x2="26.478" y2="-15.613" x1="24.408"/>
  <line style="fill:none;stroke:#FFFFFF;stroke-width:0.58;stroke-linecap:round;" y1="-13.102" x2="18.027" y2="-14.578" x1="21.224"/>
  <line style="fill:none;stroke:#FFFFFF;stroke-width:0.58;stroke-linecap:round;" y1="-10.498" x2="19.178" y2="-7.679" x1="17.918"/>
  <line style="fill:none;stroke:#FFFFFF;stroke-width:0.58;stroke-linecap:round;" y1="-7.183" x2="28.507" y2="-4.5" x1="25.167"/>
  <line style="fill:none;stroke:#FFFFFF;stroke-width:0.58;stroke-linecap:round;" y1="-10.035" x2="30.229" y2="-11.398" x1="27.19"/>
  <line style="fill:none;stroke:#FFFFFF;stroke-width:0.58;stroke-linecap:round;" y1="-9.405" x2="3.368" y2="-10.268" x1="6.817"/>
  <line style="fill:none;stroke:#FFFFFF;stroke-width:0.58;stroke-linecap:round;" y1="-6.656" x2="6.472" y2="-3.541" x1="8.434"/>
  <line style="fill:none;stroke:#FFFFFF;stroke-width:0.58;stroke-linecap:round;" y1="-7.507" x2="14.922" y2="-4.92" x1="12.163"/>
  <line style="fill:none;stroke:#FFFFFF;stroke-width:0.58;stroke-linecap:round;" y1="-11.056" x2="14.233" y2="-12.854" x1="11.299"/>
  <line style="fill:none;stroke:#FFFFFF;stroke-width:0.58;stroke-linecap:round;" y1="-12.386" x2="6.989" y2="-15.613" x1="8.229"/>
  <line style="fill:none;stroke:#FFFFFF;stroke-width:0.58;stroke-linecap:round;" y1="-21.994" x2="19.898" y2="-19.397" x1="21.994"/>
  <line style="fill:none;stroke:#FFFFFF;stroke-width:0.58;stroke-linecap:round;" y1="-22.413" x2="24.081" y2="-18.738" x1="24.601"/>
  <line style="fill:none;stroke:#FFFFFF;stroke-width:0.58;stroke-linecap:round;" y1="-22.993" x2="30.145" y2="-22.825" x1="27.204"/>
  <line style="fill:none;stroke:#FFFFFF;stroke-width:0.58;stroke-linecap:round;" y1="-26.711" x2="25.429" y2="-30.114" x1="24.499"/>
  <line style="fill:none;stroke:#FFFFFF;stroke-width:0.58;stroke-linecap:round;" y1="-25.519" x2="19.787" y2="-27.724" x1="21.921"/>
  <line style="fill:none;stroke:#FFFFFF;stroke-width:0.58;stroke-linecap:round;" y1="-25.226" x2="4.443" y2="-27.624" x1="7.068"/>
  <line style="fill:none;stroke:#FFFFFF;stroke-width:0.58;stroke-linecap:round;" y1="-22.106" x2="3.975" y2="-20.231" x1="6.797"/>
  <line style="fill:none;stroke:#FFFFFF;stroke-width:0.58;stroke-linecap:round;" y1="-18.201" x2="12.335" y2="-15.959" x1="9.748"/>
  <line style="fill:none;stroke:#FFFFFF;stroke-width:0.58;stroke-linecap:round;" y1="-26.61" x2="10.171" y2="-30.605" x1="9.581"/>
  <line style="fill:none;stroke:#FFFFFF;stroke-width:0.58;stroke-linecap:round;" y1="-23.892" x2="15.268" y2="-25.271" x1="12.335"/>
  <line style="fill:none;stroke:#FFFFFF;stroke-width:0.58;stroke-linecap:round;" y1="-18.218" x2="16.456" y2="-21.617" x1="14.982"/>
  <line style="fill:none;stroke:#FFFFFF;stroke-width:0.8;stroke-linecap:round;" y1="-28.094" x2="26.679" y2="-28.094" x1="26.679"/>
  <line style="fill:none;stroke:#FFFFFF;stroke-width:0.8;stroke-linecap:round;" y1="-6.156" x2="30.708" y2="-6.156" x1="30.708"/>
  <line style="fill:none;stroke:#FFFFFF;stroke-width:0.8;stroke-linecap:round;" y1="-20.023" x2="30.175" y2="-20.023" x1="30.175"/>
  <line style="fill:none;stroke:#FFFFFF;stroke-width:0.58;stroke-linecap:round;" y1="-3.853" x2="18.56" y2="-2.16" x1="20.074"/>
  <line style="fill:none;stroke:#FFFFFF;stroke-width:0.58;stroke-linecap:round;" y1="-15.431" x2="2.16" y2="-16.375" x1="3.966"/>
  <line style="fill:none;stroke:#FFFFFF;stroke-width:0.58;stroke-linecap:round;" y1="-16.363" x2="29.221" y2="-17.363" x1="31.134"/>
  <line style="fill:none;stroke:#FFFFFF;stroke-width:0.58;stroke-linecap:round;" y1="-30.033" x2="18.538" y2="-31.136" x1="17.552"/>
 </g>
</svg>
