<?xml version="1.0"?>
<!-- Converted with SVG Converter - Version 0.9.5 (Compiled Fri Feb 21 09:53:38 2020) - Copyright (C) 2011 Nokia -->
<svg xmlns="http://www.w3.org/2000/svg" y="0px" width="28.975" height="28.976" version="1.1" xmlns:xlink="http://www.w3.org/1999/xlink" baseProfile="tiny" x="0px" xml:space="preserve" viewBox="2.16 -31.136 28.975 28.976">
 <g>
  <rect y="-31.136" width="28.975" height="28.976" x="2.16" style="fill:none;"/>
  <rect y="-31.136" width="28.975" height="28.976" x="2.16"/>
  <line y2="-8.111" style="fill:none;stroke:#FFFFFF;stroke-width:0.8;stroke-linecap:round;" y1="-8.111" x2="21.317" x1="21.317"/>
  <line y2="-7.151" style="fill:none;stroke:#FFFFFF;stroke-width:0.8;stroke-linecap:round;" y1="-7.151" x2="16.82" x1="16.82"/>
  <line y2="-5.255" style="fill:none;stroke:#FFFFFF;stroke-width:0.8;stroke-linecap:round;" y1="-5.255" x2="9.648" x1="9.648"/>
  <line y2="-4.059" style="fill:none;stroke:#FFFFFF;stroke-width:0.8;stroke-linecap:round;" y1="-4.059" x2="3.54" x1="3.54"/>
  <line y2="-14.578" style="fill:none;stroke:#FFFFFF;stroke-width:0.8;stroke-linecap:round;" y1="-14.578" x2="15.095" x1="15.095"/>
  <line y2="-9.749" style="fill:none;stroke:#FFFFFF;stroke-width:0.8;stroke-linecap:round;" y1="-9.749" x2="14.233" x1="14.233"/>
  <line y2="-24.236" style="fill:none;stroke:#FFFFFF;stroke-width:0.8;stroke-linecap:round;" y1="-24.236" x2="23.201" x1="23.201"/>
  <line y2="-8.665" style="fill:none;stroke:#FFFFFF;stroke-width:0.8;stroke-linecap:round;" y1="-8.665" x2="24.619" x1="24.619"/>
  <line y2="-11.475" style="fill:none;stroke:#FFFFFF;stroke-width:0.8;stroke-linecap:round;" y1="-11.475" x2="22.856" x1="22.856"/>
  <line y2="-4.576" style="fill:none;stroke:#FFFFFF;stroke-width:0.8;stroke-linecap:round;" y1="-4.576" x2="23.546" x1="23.546"/>
  <line y2="-5.447" style="fill:none;stroke:#FFFFFF;stroke-width:0.8;stroke-linecap:round;" y1="-5.447" x2="20.224" x1="20.224"/>
  <line y2="-3.026" style="fill:none;stroke:#FFFFFF;stroke-width:0.8;stroke-linecap:round;" y1="-3.026" x2="27.304" x1="27.304"/>
  <line y2="-3.594" style="fill:none;stroke:#FFFFFF;stroke-width:0.8;stroke-linecap:round;" y1="-3.594" x2="16.179" x1="16.179"/>
  <line y2="-2.833" style="fill:none;stroke:#FFFFFF;stroke-width:0.8;stroke-linecap:round;" y1="-2.833" x2="11.89" x1="11.89"/>
  <line y2="-23.13" style="fill:none;stroke:#FFFFFF;stroke-width:0.8;stroke-linecap:round;" y1="-23.13" x2="19.334" x1="19.334"/>
  <line y2="-30.101" style="fill:none;stroke:#FFFFFF;stroke-width:0.8;stroke-linecap:round;" y1="-30.101" x2="21.821" x1="21.821"/>
  <line y2="-26.996" style="fill:none;stroke:#FFFFFF;stroke-width:0.8;stroke-linecap:round;" y1="-26.996" x2="17.337" x1="17.337"/>
  <line y2="-29.594" style="fill:none;stroke:#FFFFFF;stroke-width:0.8;stroke-linecap:round;" y1="-29.594" x2="14.873" x1="14.873"/>
  <line y2="-27.291" style="fill:none;stroke:#FFFFFF;stroke-width:0.8;stroke-linecap:round;" y1="-27.291" x2="12.569" x1="12.569"/>
  <line y2="-13.026" style="fill:none;stroke:#FFFFFF;stroke-width:0.8;stroke-linecap:round;" y1="-13.026" x2="27.857" x1="27.857"/>
  <line y2="-8.481" style="fill:none;stroke:#FFFFFF;stroke-width:0.8;stroke-linecap:round;" y1="-8.481" x2="28.559" x1="28.559"/>
  <line y2="-16.821" style="fill:none;stroke:#FFFFFF;stroke-width:0.8;stroke-linecap:round;" y1="-16.821" x2="21.648" x1="21.648"/>
  <line y2="-17.683" style="fill:none;stroke:#FFFFFF;stroke-width:0.8;stroke-linecap:round;" y1="-17.683" x2="26.684" x1="26.684"/>
  <line y2="-25.616" style="fill:none;stroke:#FFFFFF;stroke-width:0.8;stroke-linecap:round;" y1="-25.616" x2="29.065" x1="29.065"/>
  <line y2="-20.614" style="fill:none;stroke:#FFFFFF;stroke-width:0.8;stroke-linecap:round;" y1="-20.614" x2="26.65" x1="26.65"/>
  <line y2="-17.683" style="fill:none;stroke:#FFFFFF;stroke-width:0.8;stroke-linecap:round;" y1="-17.683" x2="17.165" x1="17.165"/>
  <line y2="-11.67" style="fill:none;stroke:#FFFFFF;stroke-width:0.8;stroke-linecap:round;" y1="-11.67" x2="19.741" x1="19.741"/>
  <line y2="-29.583" style="fill:none;stroke:#FFFFFF;stroke-width:0.8;stroke-linecap:round;" y1="-29.583" x2="29.754" x1="29.754"/>
  <line y2="-7.372" style="fill:none;stroke:#FFFFFF;stroke-width:0.8;stroke-linecap:round;" y1="-7.372" x2="5.602" x1="5.602"/>
  <line y2="-17.933" style="fill:none;stroke:#FFFFFF;stroke-width:0.8;stroke-linecap:round;" y1="-17.933" x2="3.601" x1="3.601"/>
  <line y2="-13.582" style="fill:none;stroke:#FFFFFF;stroke-width:0.8;stroke-linecap:round;" y1="-13.582" x2="2.835" x1="2.835"/>
  <line y2="-24.409" style="fill:none;stroke:#FFFFFF;stroke-width:0.8;stroke-linecap:round;" y1="-24.409" x2="3.885" x1="3.885"/>
  <line y2="-9.061" style="fill:none;stroke:#FFFFFF;stroke-width:0.8;stroke-linecap:round;" y1="-9.061" x2="9.755" x1="9.755"/>
  <line y2="-11.498" style="fill:none;stroke:#FFFFFF;stroke-width:0.8;stroke-linecap:round;" y1="-11.498" x2="6.295" x1="6.295"/>
  <line y2="-14.061" style="fill:none;stroke:#FFFFFF;stroke-width:0.8;stroke-linecap:round;" y1="-14.061" x2="10.439" x1="10.439"/>
  <line y2="-19.124" style="fill:none;stroke:#FFFFFF;stroke-width:0.8;stroke-linecap:round;" y1="-19.124" x2="7.112" x1="7.112"/>
  <line y2="-29.756" style="fill:none;stroke:#FFFFFF;stroke-width:0.8;stroke-linecap:round;" y1="-29.756" x2="5.782" x1="5.782"/>
  <line y2="-23.29" style="fill:none;stroke:#FFFFFF;stroke-width:0.8;stroke-linecap:round;" y1="-23.29" x2="15.467" x1="15.467"/>
  <line y2="-24.597" style="fill:none;stroke:#FFFFFF;stroke-width:0.8;stroke-linecap:round;" y1="-24.597" x2="8.95" x1="8.95"/>
  <line y2="-21.876" style="fill:none;stroke:#FFFFFF;stroke-width:0.8;stroke-linecap:round;" y1="-21.876" x2="9.62" x1="9.62"/>
  <line y2="-18.852" style="fill:none;stroke:#FFFFFF;stroke-width:0.8;stroke-linecap:round;" y1="-18.852" x2="12.217" x1="12.217"/>
  <line y2="-15.613" style="fill:none;stroke:#FFFFFF;stroke-width:0.58;stroke-linecap:round;" y1="-13.372" x2="26.478" x1="24.408"/>
  <line y2="-14.578" style="fill:none;stroke:#FFFFFF;stroke-width:0.58;stroke-linecap:round;" y1="-13.102" x2="18.027" x1="21.224"/>
  <line y2="-7.679" style="fill:none;stroke:#FFFFFF;stroke-width:0.58;stroke-linecap:round;" y1="-10.498" x2="19.178" x1="17.918"/>
  <line y2="-4.5" style="fill:none;stroke:#FFFFFF;stroke-width:0.58;stroke-linecap:round;" y1="-7.183" x2="28.507" x1="25.167"/>
  <line y2="-11.398" style="fill:none;stroke:#FFFFFF;stroke-width:0.58;stroke-linecap:round;" y1="-10.035" x2="30.229" x1="27.19"/>
  <line y2="-10.268" style="fill:none;stroke:#FFFFFF;stroke-width:0.58;stroke-linecap:round;" y1="-9.405" x2="3.368" x1="6.817"/>
  <line y2="-3.541" style="fill:none;stroke:#FFFFFF;stroke-width:0.58;stroke-linecap:round;" y1="-6.656" x2="6.472" x1="8.434"/>
  <line y2="-4.92" style="fill:none;stroke:#FFFFFF;stroke-width:0.58;stroke-linecap:round;" y1="-7.507" x2="14.922" x1="12.163"/>
  <line y2="-12.854" style="fill:none;stroke:#FFFFFF;stroke-width:0.58;stroke-linecap:round;" y1="-11.056" x2="14.233" x1="11.299"/>
  <line y2="-15.613" style="fill:none;stroke:#FFFFFF;stroke-width:0.58;stroke-linecap:round;" y1="-12.386" x2="6.989" x1="8.229"/>
  <line y2="-19.397" style="fill:none;stroke:#FFFFFF;stroke-width:0.58;stroke-linecap:round;" y1="-21.994" x2="19.898" x1="21.994"/>
  <line y2="-18.738" style="fill:none;stroke:#FFFFFF;stroke-width:0.58;stroke-linecap:round;" y1="-22.413" x2="24.081" x1="24.601"/>
  <line y2="-22.825" style="fill:none;stroke:#FFFFFF;stroke-width:0.58;stroke-linecap:round;" y1="-22.993" x2="30.145" x1="27.204"/>
  <line y2="-30.114" style="fill:none;stroke:#FFFFFF;stroke-width:0.58;stroke-linecap:round;" y1="-26.711" x2="25.429" x1="24.499"/>
  <line y2="-27.724" style="fill:none;stroke:#FFFFFF;stroke-width:0.58;stroke-linecap:round;" y1="-25.519" x2="19.787" x1="21.921"/>
  <line y2="-27.624" style="fill:none;stroke:#FFFFFF;stroke-width:0.58;stroke-linecap:round;" y1="-25.226" x2="4.443" x1="7.068"/>
  <line y2="-20.231" style="fill:none;stroke:#FFFFFF;stroke-width:0.58;stroke-linecap:round;" y1="-22.106" x2="3.975" x1="6.797"/>
  <line y2="-15.959" style="fill:none;stroke:#FFFFFF;stroke-width:0.58;stroke-linecap:round;" y1="-18.201" x2="12.335" x1="9.748"/>
  <line y2="-30.605" style="fill:none;stroke:#FFFFFF;stroke-width:0.58;stroke-linecap:round;" y1="-26.61" x2="10.171" x1="9.581"/>
  <line y2="-25.271" style="fill:none;stroke:#FFFFFF;stroke-width:0.58;stroke-linecap:round;" y1="-23.892" x2="15.268" x1="12.335"/>
  <line y2="-21.617" style="fill:none;stroke:#FFFFFF;stroke-width:0.58;stroke-linecap:round;" y1="-18.218" x2="16.456" x1="14.982"/>
  <line y2="-28.094" style="fill:none;stroke:#FFFFFF;stroke-width:0.8;stroke-linecap:round;" y1="-28.094" x2="26.679" x1="26.679"/>
  <line y2="-6.156" style="fill:none;stroke:#FFFFFF;stroke-width:0.8;stroke-linecap:round;" y1="-6.156" x2="30.708" x1="30.708"/>
  <line y2="-20.023" style="fill:none;stroke:#FFFFFF;stroke-width:0.8;stroke-linecap:round;" y1="-20.023" x2="30.175" x1="30.175"/>
  <line y2="-2.16" style="fill:none;stroke:#FFFFFF;stroke-width:0.58;stroke-linecap:round;" y1="-3.853" x2="18.56" x1="20.074"/>
  <line y2="-16.375" style="fill:none;stroke:#FFFFFF;stroke-width:0.58;stroke-linecap:round;" y1="-15.431" x2="2.16" x1="3.966"/>
  <line y2="-17.363" style="fill:none;stroke:#FFFFFF;stroke-width:0.58;stroke-linecap:round;" y1="-16.363" x2="29.221" x1="31.134"/>
  <line y2="-31.136" style="fill:none;stroke:#FFFFFF;stroke-width:0.58;stroke-linecap:round;" y1="-30.033" x2="18.538" x1="17.552"/>
 </g>
</svg>
