<?xml version="1.0"?>
<!-- Converted with SVG Converter - Version 0.9.5 (Compiled Fri Feb 21 09:53:38 2020) - Copyright (C) 2011 Nokia -->
<svg xmlns="http://www.w3.org/2000/svg" viewBox="0.215 -29.19 28.975 28.976" xml:space="preserve" width="28.975" xmlns:xlink="http://www.w3.org/1999/xlink" version="1.1" x="0px" height="28.976" y="0px" baseProfile="tiny">
 <g>
  <rect style="fill:none;" width="28.975" x="0.215" height="28.976" y="-29.19"/>
  <line y1="-6.166" style="fill:none;stroke:#000000;stroke-width:0.7;stroke-linecap:round;" x1="19.372" x2="19.372" y2="-6.166"/>
  <line y1="-5.206" style="fill:none;stroke:#000000;stroke-width:0.7;stroke-linecap:round;" x1="14.875" x2="14.875" y2="-5.206"/>
  <line y1="-3.31" style="fill:none;stroke:#000000;stroke-width:0.7;stroke-linecap:round;" x1="7.704" x2="7.704" y2="-3.31"/>
  <line y1="-2.113" style="fill:none;stroke:#000000;stroke-width:0.7;stroke-linecap:round;" x1="1.595" x2="1.595" y2="-2.113"/>
  <line y1="-12.633" style="fill:none;stroke:#000000;stroke-width:0.7;stroke-linecap:round;" x1="13.15" x2="13.15" y2="-12.633"/>
  <line y1="-7.804" style="fill:none;stroke:#000000;stroke-width:0.7;stroke-linecap:round;" x1="12.288" x2="12.288" y2="-7.804"/>
  <line y1="-22.291" style="fill:none;stroke:#000000;stroke-width:0.7;stroke-linecap:round;" x1="21.256" x2="21.256" y2="-22.291"/>
  <line y1="-6.72" style="fill:none;stroke:#000000;stroke-width:0.7;stroke-linecap:round;" x1="22.674" x2="22.674" y2="-6.72"/>
  <line y1="-9.529" style="fill:none;stroke:#000000;stroke-width:0.7;stroke-linecap:round;" x1="20.911" x2="20.911" y2="-9.529"/>
  <line y1="-2.631" style="fill:none;stroke:#000000;stroke-width:0.7;stroke-linecap:round;" x1="21.601" x2="21.601" y2="-2.631"/>
  <line y1="-3.502" style="fill:none;stroke:#000000;stroke-width:0.7;stroke-linecap:round;" x1="18.279" x2="18.279" y2="-3.502"/>
  <line y1="-1.081" style="fill:none;stroke:#000000;stroke-width:0.7;stroke-linecap:round;" x1="25.359" x2="25.359" y2="-1.081"/>
  <line y1="-1.648" style="fill:none;stroke:#000000;stroke-width:0.7;stroke-linecap:round;" x1="14.234" x2="14.234" y2="-1.648"/>
  <line y1="-0.888" style="fill:none;stroke:#000000;stroke-width:0.7;stroke-linecap:round;" x1="9.945" x2="9.945" y2="-0.888"/>
  <line y1="-21.185" style="fill:none;stroke:#000000;stroke-width:0.7;stroke-linecap:round;" x1="17.389" x2="17.389" y2="-21.185"/>
  <line y1="-28.155" style="fill:none;stroke:#000000;stroke-width:0.7;stroke-linecap:round;" x1="19.876" x2="19.876" y2="-28.155"/>
  <line y1="-25.051" style="fill:none;stroke:#000000;stroke-width:0.7;stroke-linecap:round;" x1="15.392" x2="15.392" y2="-25.051"/>
  <line y1="-27.648" style="fill:none;stroke:#000000;stroke-width:0.7;stroke-linecap:round;" x1="12.928" x2="12.928" y2="-27.648"/>
  <line y1="-25.346" style="fill:none;stroke:#000000;stroke-width:0.7;stroke-linecap:round;" x1="10.625" x2="10.625" y2="-25.346"/>
  <line y1="-11.081" style="fill:none;stroke:#000000;stroke-width:0.7;stroke-linecap:round;" x1="25.913" x2="25.913" y2="-11.081"/>
  <line y1="-6.536" style="fill:none;stroke:#000000;stroke-width:0.7;stroke-linecap:round;" x1="26.614" x2="26.614" y2="-6.536"/>
  <line y1="-14.876" style="fill:none;stroke:#000000;stroke-width:0.7;stroke-linecap:round;" x1="19.704" x2="19.704" y2="-14.876"/>
  <line y1="-15.737" style="fill:none;stroke:#000000;stroke-width:0.7;stroke-linecap:round;" x1="24.739" x2="24.739" y2="-15.737"/>
  <line y1="-23.671" style="fill:none;stroke:#000000;stroke-width:0.7;stroke-linecap:round;" x1="27.12" x2="27.12" y2="-23.671"/>
  <line y1="-18.669" style="fill:none;stroke:#000000;stroke-width:0.7;stroke-linecap:round;" x1="24.705" x2="24.705" y2="-18.669"/>
  <line y1="-15.737" style="fill:none;stroke:#000000;stroke-width:0.7;stroke-linecap:round;" x1="15.22" x2="15.22" y2="-15.737"/>
  <line y1="-9.725" style="fill:none;stroke:#000000;stroke-width:0.7;stroke-linecap:round;" x1="17.796" x2="17.796" y2="-9.725"/>
  <line y1="-27.638" style="fill:none;stroke:#000000;stroke-width:0.7;stroke-linecap:round;" x1="27.81" x2="27.81" y2="-27.638"/>
  <line y1="-5.427" style="fill:none;stroke:#000000;stroke-width:0.7;stroke-linecap:round;" x1="3.657" x2="3.657" y2="-5.427"/>
  <line y1="-15.987" style="fill:none;stroke:#000000;stroke-width:0.7;stroke-linecap:round;" x1="1.656" x2="1.656" y2="-15.987"/>
  <line y1="-11.637" style="fill:none;stroke:#000000;stroke-width:0.7;stroke-linecap:round;" x1="0.891" x2="0.891" y2="-11.637"/>
  <line y1="-22.464" style="fill:none;stroke:#000000;stroke-width:0.7;stroke-linecap:round;" x1="1.94" x2="1.94" y2="-22.464"/>
  <line y1="-7.115" style="fill:none;stroke:#000000;stroke-width:0.7;stroke-linecap:round;" x1="7.81" x2="7.81" y2="-7.115"/>
  <line y1="-9.553" style="fill:none;stroke:#000000;stroke-width:0.7;stroke-linecap:round;" x1="4.351" x2="4.351" y2="-9.553"/>
  <line y1="-12.116" style="fill:none;stroke:#000000;stroke-width:0.7;stroke-linecap:round;" x1="8.494" x2="8.494" y2="-12.116"/>
  <line y1="-17.179" style="fill:none;stroke:#000000;stroke-width:0.7;stroke-linecap:round;" x1="5.167" x2="5.167" y2="-17.179"/>
  <line y1="-27.81" style="fill:none;stroke:#000000;stroke-width:0.7;stroke-linecap:round;" x1="3.837" x2="3.837" y2="-27.81"/>
  <line y1="-21.345" style="fill:none;stroke:#000000;stroke-width:0.7;stroke-linecap:round;" x1="13.523" x2="13.523" y2="-21.345"/>
  <line y1="-22.651" style="fill:none;stroke:#000000;stroke-width:0.7;stroke-linecap:round;" x1="7.005" x2="7.005" y2="-22.651"/>
  <line y1="-19.931" style="fill:none;stroke:#000000;stroke-width:0.7;stroke-linecap:round;" x1="7.675" x2="7.675" y2="-19.931"/>
  <line y1="-16.906" style="fill:none;stroke:#000000;stroke-width:0.7;stroke-linecap:round;" x1="10.273" x2="10.273" y2="-16.906"/>
  <line y1="-11.427" style="fill:none;stroke:#000000;stroke-width:0.43;stroke-linecap:round;" x1="22.463" x2="24.533" y2="-13.668"/>
  <line y1="-11.156" style="fill:none;stroke:#000000;stroke-width:0.43;stroke-linecap:round;" x1="19.279" x2="16.082" y2="-12.633"/>
  <line y1="-8.553" style="fill:none;stroke:#000000;stroke-width:0.43;stroke-linecap:round;" x1="15.973" x2="17.233" y2="-5.733"/>
  <line y1="-5.237" style="fill:none;stroke:#000000;stroke-width:0.43;stroke-linecap:round;" x1="23.222" x2="26.562" y2="-2.555"/>
  <line y1="-8.09" style="fill:none;stroke:#000000;stroke-width:0.43;stroke-linecap:round;" x1="25.245" x2="28.284" y2="-9.452"/>
  <line y1="-7.46" style="fill:none;stroke:#000000;stroke-width:0.43;stroke-linecap:round;" x1="4.872" x2="1.423" y2="-8.322"/>
  <line y1="-4.711" style="fill:none;stroke:#000000;stroke-width:0.43;stroke-linecap:round;" x1="6.489" x2="4.527" y2="-1.596"/>
  <line y1="-5.562" style="fill:none;stroke:#000000;stroke-width:0.43;stroke-linecap:round;" x1="10.218" x2="12.977" y2="-2.975"/>
  <line y1="-9.11" style="fill:none;stroke:#000000;stroke-width:0.43;stroke-linecap:round;" x1="9.354" x2="12.288" y2="-10.908"/>
  <line y1="-10.44" style="fill:none;stroke:#000000;stroke-width:0.43;stroke-linecap:round;" x1="6.284" x2="5.044" y2="-13.668"/>
  <line y1="-20.049" style="fill:none;stroke:#000000;stroke-width:0.43;stroke-linecap:round;" x1="20.049" x2="17.953" y2="-17.452"/>
  <line y1="-20.468" style="fill:none;stroke:#000000;stroke-width:0.43;stroke-linecap:round;" x1="22.656" x2="22.137" y2="-16.793"/>
  <line y1="-21.048" style="fill:none;stroke:#000000;stroke-width:0.43;stroke-linecap:round;" x1="25.259" x2="28.2" y2="-20.88"/>
  <line y1="-24.766" style="fill:none;stroke:#000000;stroke-width:0.43;stroke-linecap:round;" x1="22.554" x2="23.484" y2="-28.169"/>
  <line y1="-23.573" style="fill:none;stroke:#000000;stroke-width:0.43;stroke-linecap:round;" x1="19.977" x2="17.842" y2="-25.778"/>
  <line y1="-23.28" style="fill:none;stroke:#000000;stroke-width:0.43;stroke-linecap:round;" x1="5.123" x2="2.498" y2="-25.679"/>
  <line y1="-20.161" style="fill:none;stroke:#000000;stroke-width:0.43;stroke-linecap:round;" x1="4.852" x2="2.03" y2="-18.286"/>
  <line y1="-16.256" style="fill:none;stroke:#000000;stroke-width:0.43;stroke-linecap:round;" x1="7.804" x2="10.391" y2="-14.014"/>
  <line y1="-24.665" style="fill:none;stroke:#000000;stroke-width:0.43;stroke-linecap:round;" x1="7.636" x2="8.227" y2="-28.66"/>
  <line y1="-21.946" style="fill:none;stroke:#000000;stroke-width:0.43;stroke-linecap:round;" x1="10.391" x2="13.323" y2="-23.326"/>
  <line y1="-16.272" style="fill:none;stroke:#000000;stroke-width:0.43;stroke-linecap:round;" x1="13.038" x2="14.511" y2="-19.672"/>
  <line y1="-26.148" style="fill:none;stroke:#000000;stroke-width:0.7;stroke-linecap:round;" x1="24.734" x2="24.734" y2="-26.148"/>
  <line y1="-4.211" style="fill:none;stroke:#000000;stroke-width:0.7;stroke-linecap:round;" x1="28.764" x2="28.764" y2="-4.211"/>
  <line y1="-18.078" style="fill:none;stroke:#000000;stroke-width:0.7;stroke-linecap:round;" x1="28.23" x2="28.23" y2="-18.078"/>
  <line y1="-1.908" style="fill:none;stroke:#000000;stroke-width:0.43;stroke-linecap:round;" x1="18.129" x2="16.615" y2="-0.215"/>
  <line y1="-13.485" style="fill:none;stroke:#000000;stroke-width:0.43;stroke-linecap:round;" x1="2.021" x2="0.215" y2="-14.43"/>
  <line y1="-14.418" style="fill:none;stroke:#000000;stroke-width:0.43;stroke-linecap:round;" x1="29.19" x2="27.276" y2="-15.418"/>
  <line y1="-28.088" style="fill:none;stroke:#000000;stroke-width:0.43;stroke-linecap:round;" x1="15.607" x2="16.593" y2="-29.19"/>
 </g>
</svg>
