<?xml version="1.0"?>
<!-- Converted with SVG Converter - Version 0.9.5 (Compiled Fri Feb 21 09:53:38 2020) - Copyright (C) 2011 Nokia -->
<svg xmlns="http://www.w3.org/2000/svg" baseProfile="tiny" x="0px" width="28.975" height="28.976" viewBox="2.16 -31.136 28.975 28.976" xmlns:xlink="http://www.w3.org/1999/xlink" version="1.1" y="0px" xml:space="preserve">
 <g>
  <rect x="2.16" width="28.975" height="28.976" y="-31.136" style="fill:none;"/>
  <line y2="-8.111" x1="21.317" x2="21.317" y1="-8.111" style="fill:none;stroke:#EC008C;stroke-width:0.8;stroke-linecap:round;"/>
  <line y2="-7.151" x1="16.82" x2="16.82" y1="-7.151" style="fill:none;stroke:#EC008C;stroke-width:0.8;stroke-linecap:round;"/>
  <line y2="-5.255" x1="9.648" x2="9.648" y1="-5.255" style="fill:none;stroke:#EC008C;stroke-width:0.8;stroke-linecap:round;"/>
  <line y2="-4.059" x1="3.54" x2="3.54" y1="-4.059" style="fill:none;stroke:#EC008C;stroke-width:0.8;stroke-linecap:round;"/>
  <line y2="-14.578" x1="15.095" x2="15.095" y1="-14.578" style="fill:none;stroke:#EC008C;stroke-width:0.8;stroke-linecap:round;"/>
  <line y2="-9.749" x1="14.233" x2="14.233" y1="-9.749" style="fill:none;stroke:#EC008C;stroke-width:0.8;stroke-linecap:round;"/>
  <line y2="-24.236" x1="23.201" x2="23.201" y1="-24.236" style="fill:none;stroke:#EC008C;stroke-width:0.8;stroke-linecap:round;"/>
  <line y2="-8.665" x1="24.619" x2="24.619" y1="-8.665" style="fill:none;stroke:#EC008C;stroke-width:0.8;stroke-linecap:round;"/>
  <line y2="-11.475" x1="22.856" x2="22.856" y1="-11.475" style="fill:none;stroke:#EC008C;stroke-width:0.8;stroke-linecap:round;"/>
  <line y2="-4.576" x1="23.546" x2="23.546" y1="-4.576" style="fill:none;stroke:#EC008C;stroke-width:0.8;stroke-linecap:round;"/>
  <line y2="-5.447" x1="20.224" x2="20.224" y1="-5.447" style="fill:none;stroke:#EC008C;stroke-width:0.8;stroke-linecap:round;"/>
  <line y2="-3.026" x1="27.304" x2="27.304" y1="-3.026" style="fill:none;stroke:#EC008C;stroke-width:0.8;stroke-linecap:round;"/>
  <line y2="-3.594" x1="16.179" x2="16.179" y1="-3.594" style="fill:none;stroke:#EC008C;stroke-width:0.8;stroke-linecap:round;"/>
  <line y2="-2.833" x1="11.89" x2="11.89" y1="-2.833" style="fill:none;stroke:#EC008C;stroke-width:0.8;stroke-linecap:round;"/>
  <line y2="-23.13" x1="19.334" x2="19.334" y1="-23.13" style="fill:none;stroke:#EC008C;stroke-width:0.8;stroke-linecap:round;"/>
  <line y2="-30.101" x1="21.821" x2="21.821" y1="-30.101" style="fill:none;stroke:#EC008C;stroke-width:0.8;stroke-linecap:round;"/>
  <line y2="-26.996" x1="17.337" x2="17.337" y1="-26.996" style="fill:none;stroke:#EC008C;stroke-width:0.8;stroke-linecap:round;"/>
  <line y2="-29.594" x1="14.873" x2="14.873" y1="-29.594" style="fill:none;stroke:#EC008C;stroke-width:0.8;stroke-linecap:round;"/>
  <line y2="-27.291" x1="12.569" x2="12.569" y1="-27.291" style="fill:none;stroke:#EC008C;stroke-width:0.8;stroke-linecap:round;"/>
  <line y2="-13.026" x1="27.857" x2="27.857" y1="-13.026" style="fill:none;stroke:#EC008C;stroke-width:0.8;stroke-linecap:round;"/>
  <line y2="-8.481" x1="28.559" x2="28.559" y1="-8.481" style="fill:none;stroke:#EC008C;stroke-width:0.8;stroke-linecap:round;"/>
  <line y2="-16.821" x1="21.648" x2="21.648" y1="-16.821" style="fill:none;stroke:#EC008C;stroke-width:0.8;stroke-linecap:round;"/>
  <line y2="-17.683" x1="26.684" x2="26.684" y1="-17.683" style="fill:none;stroke:#EC008C;stroke-width:0.8;stroke-linecap:round;"/>
  <line y2="-25.616" x1="29.065" x2="29.065" y1="-25.616" style="fill:none;stroke:#EC008C;stroke-width:0.8;stroke-linecap:round;"/>
  <line y2="-20.614" x1="26.65" x2="26.65" y1="-20.614" style="fill:none;stroke:#EC008C;stroke-width:0.8;stroke-linecap:round;"/>
  <line y2="-17.683" x1="17.165" x2="17.165" y1="-17.683" style="fill:none;stroke:#EC008C;stroke-width:0.8;stroke-linecap:round;"/>
  <line y2="-11.67" x1="19.741" x2="19.741" y1="-11.67" style="fill:none;stroke:#EC008C;stroke-width:0.8;stroke-linecap:round;"/>
  <line y2="-29.583" x1="29.754" x2="29.754" y1="-29.583" style="fill:none;stroke:#EC008C;stroke-width:0.8;stroke-linecap:round;"/>
  <line y2="-7.372" x1="5.602" x2="5.602" y1="-7.372" style="fill:none;stroke:#EC008C;stroke-width:0.8;stroke-linecap:round;"/>
  <line y2="-17.933" x1="3.601" x2="3.601" y1="-17.933" style="fill:none;stroke:#EC008C;stroke-width:0.8;stroke-linecap:round;"/>
  <line y2="-13.582" x1="2.835" x2="2.835" y1="-13.582" style="fill:none;stroke:#EC008C;stroke-width:0.8;stroke-linecap:round;"/>
  <line y2="-24.409" x1="3.885" x2="3.885" y1="-24.409" style="fill:none;stroke:#EC008C;stroke-width:0.8;stroke-linecap:round;"/>
  <line y2="-9.061" x1="9.755" x2="9.755" y1="-9.061" style="fill:none;stroke:#EC008C;stroke-width:0.8;stroke-linecap:round;"/>
  <line y2="-11.498" x1="6.295" x2="6.295" y1="-11.498" style="fill:none;stroke:#EC008C;stroke-width:0.8;stroke-linecap:round;"/>
  <line y2="-14.061" x1="10.439" x2="10.439" y1="-14.061" style="fill:none;stroke:#EC008C;stroke-width:0.8;stroke-linecap:round;"/>
  <line y2="-19.124" x1="7.112" x2="7.112" y1="-19.124" style="fill:none;stroke:#EC008C;stroke-width:0.8;stroke-linecap:round;"/>
  <line y2="-29.756" x1="5.782" x2="5.782" y1="-29.756" style="fill:none;stroke:#EC008C;stroke-width:0.8;stroke-linecap:round;"/>
  <line y2="-23.29" x1="15.467" x2="15.467" y1="-23.29" style="fill:none;stroke:#EC008C;stroke-width:0.8;stroke-linecap:round;"/>
  <line y2="-24.597" x1="8.95" x2="8.95" y1="-24.597" style="fill:none;stroke:#EC008C;stroke-width:0.8;stroke-linecap:round;"/>
  <line y2="-21.876" x1="9.62" x2="9.62" y1="-21.876" style="fill:none;stroke:#EC008C;stroke-width:0.8;stroke-linecap:round;"/>
  <line y2="-18.852" x1="12.217" x2="12.217" y1="-18.852" style="fill:none;stroke:#EC008C;stroke-width:0.8;stroke-linecap:round;"/>
  <line y2="-15.613" x1="24.408" x2="26.478" y1="-13.372" style="fill:none;stroke:#EC008C;stroke-width:0.58;stroke-linecap:round;"/>
  <line y2="-14.578" x1="21.224" x2="18.027" y1="-13.102" style="fill:none;stroke:#EC008C;stroke-width:0.58;stroke-linecap:round;"/>
  <line y2="-7.679" x1="17.918" x2="19.178" y1="-10.498" style="fill:none;stroke:#EC008C;stroke-width:0.58;stroke-linecap:round;"/>
  <line y2="-4.5" x1="25.167" x2="28.507" y1="-7.183" style="fill:none;stroke:#EC008C;stroke-width:0.58;stroke-linecap:round;"/>
  <line y2="-11.398" x1="27.19" x2="30.229" y1="-10.035" style="fill:none;stroke:#EC008C;stroke-width:0.58;stroke-linecap:round;"/>
  <line y2="-10.268" x1="6.817" x2="3.368" y1="-9.405" style="fill:none;stroke:#EC008C;stroke-width:0.58;stroke-linecap:round;"/>
  <line y2="-3.541" x1="8.434" x2="6.472" y1="-6.656" style="fill:none;stroke:#EC008C;stroke-width:0.58;stroke-linecap:round;"/>
  <line y2="-4.92" x1="12.163" x2="14.922" y1="-7.507" style="fill:none;stroke:#EC008C;stroke-width:0.58;stroke-linecap:round;"/>
  <line y2="-12.854" x1="11.299" x2="14.233" y1="-11.056" style="fill:none;stroke:#EC008C;stroke-width:0.58;stroke-linecap:round;"/>
  <line y2="-15.613" x1="8.229" x2="6.989" y1="-12.386" style="fill:none;stroke:#EC008C;stroke-width:0.58;stroke-linecap:round;"/>
  <line y2="-19.397" x1="21.994" x2="19.898" y1="-21.994" style="fill:none;stroke:#EC008C;stroke-width:0.58;stroke-linecap:round;"/>
  <line y2="-18.738" x1="24.601" x2="24.081" y1="-22.413" style="fill:none;stroke:#EC008C;stroke-width:0.58;stroke-linecap:round;"/>
  <line y2="-22.825" x1="27.204" x2="30.145" y1="-22.993" style="fill:none;stroke:#EC008C;stroke-width:0.58;stroke-linecap:round;"/>
  <line y2="-30.114" x1="24.499" x2="25.429" y1="-26.711" style="fill:none;stroke:#EC008C;stroke-width:0.58;stroke-linecap:round;"/>
  <line y2="-27.724" x1="21.921" x2="19.787" y1="-25.519" style="fill:none;stroke:#EC008C;stroke-width:0.58;stroke-linecap:round;"/>
  <line y2="-27.624" x1="7.068" x2="4.443" y1="-25.226" style="fill:none;stroke:#EC008C;stroke-width:0.58;stroke-linecap:round;"/>
  <line y2="-20.231" x1="6.797" x2="3.975" y1="-22.106" style="fill:none;stroke:#EC008C;stroke-width:0.58;stroke-linecap:round;"/>
  <line y2="-15.959" x1="9.748" x2="12.335" y1="-18.201" style="fill:none;stroke:#EC008C;stroke-width:0.58;stroke-linecap:round;"/>
  <line y2="-30.605" x1="9.581" x2="10.171" y1="-26.61" style="fill:none;stroke:#EC008C;stroke-width:0.58;stroke-linecap:round;"/>
  <line y2="-25.271" x1="12.335" x2="15.268" y1="-23.892" style="fill:none;stroke:#EC008C;stroke-width:0.58;stroke-linecap:round;"/>
  <line y2="-21.617" x1="14.982" x2="16.456" y1="-18.218" style="fill:none;stroke:#EC008C;stroke-width:0.58;stroke-linecap:round;"/>
  <line y2="-28.094" x1="26.679" x2="26.679" y1="-28.094" style="fill:none;stroke:#EC008C;stroke-width:0.8;stroke-linecap:round;"/>
  <line y2="-6.156" x1="30.708" x2="30.708" y1="-6.156" style="fill:none;stroke:#EC008C;stroke-width:0.8;stroke-linecap:round;"/>
  <line y2="-20.023" x1="30.175" x2="30.175" y1="-20.023" style="fill:none;stroke:#EC008C;stroke-width:0.8;stroke-linecap:round;"/>
  <line y2="-2.16" x1="20.074" x2="18.56" y1="-3.853" style="fill:none;stroke:#EC008C;stroke-width:0.58;stroke-linecap:round;"/>
  <line y2="-16.375" x1="3.966" x2="2.16" y1="-15.431" style="fill:none;stroke:#EC008C;stroke-width:0.58;stroke-linecap:round;"/>
  <line y2="-17.363" x1="31.134" x2="29.221" y1="-16.363" style="fill:none;stroke:#EC008C;stroke-width:0.58;stroke-linecap:round;"/>
  <line y2="-31.136" x1="17.552" x2="18.538" y1="-30.033" style="fill:none;stroke:#EC008C;stroke-width:0.58;stroke-linecap:round;"/>
 </g>
</svg>
