<?xml version="1.0"?>
<!-- Converted with SVG Converter - Version 0.9.5 (Compiled Fri Feb 21 09:53:38 2020) - Copyright (C) 2011 Nokia -->
<svg xmlns="http://www.w3.org/2000/svg" y="0px" width="16.9" xmlns:xlink="http://www.w3.org/1999/xlink" version="1.1" viewBox="1 -18.06 16.9 16.899" xml:space="preserve" height="16.899" x="0px" baseProfile="tiny">
 <g>
  <rect y="-18.06" width="16.9" style="fill:none;" height="16.899" x="1"/>
  <polygon style="fill:none;stroke:#000000;stroke-width:0.43;" points="5.206,-12.655 4.605,-15.765 7.562,-14.827   "/>
  <line y1="-10.466" y2="-10.466" x2="7.13" style="fill:none;stroke:#000000;stroke-width:0.7;stroke-linecap:round;" x1="7.13"/>
  <line y1="-11.602" y2="-11.602" x2="2.424" style="fill:none;stroke:#000000;stroke-width:0.7;stroke-linecap:round;" x1="2.424"/>
  <polygon style="fill:none;stroke:#000000;stroke-width:0.43;" points="12.347,-10.659 13.233,-13.701 15.435,-11.515   "/>
  <line y1="-14.048" y2="-14.048" x2="16.242" style="fill:none;stroke:#000000;stroke-width:0.7;stroke-linecap:round;" x1="16.242"/>
  <line y1="-16.489" y2="-16.489" x2="12.752" style="fill:none;stroke:#000000;stroke-width:0.7;stroke-linecap:round;" x1="12.752"/>
  <line y1="-9.674" y2="-9.674" x2="14.8" style="fill:none;stroke:#000000;stroke-width:0.7;stroke-linecap:round;" x1="14.8"/>
  <line y1="-11.587" y2="-11.587" x2="10.716" style="fill:none;stroke:#000000;stroke-width:0.7;stroke-linecap:round;" x1="10.716"/>
  <line y1="-14.81" y2="-14.81" x2="10.602" style="fill:none;stroke:#000000;stroke-width:0.7;stroke-linecap:round;" x1="10.602"/>
  <line y1="-16.144" y2="-16.144" x2="2.901" style="fill:none;stroke:#000000;stroke-width:0.7;stroke-linecap:round;" x1="2.901"/>
  <line y1="-16.889" y2="-16.889" x2="8.666" style="fill:none;stroke:#000000;stroke-width:0.7;stroke-linecap:round;" x1="8.666"/>
  <line y1="-17.059" y2="-17.059" x2="16.358" style="fill:none;stroke:#000000;stroke-width:0.7;stroke-linecap:round;" x1="16.358"/>
  <polygon style="fill:none;stroke:#000000;stroke-width:0.43;" points="8.046,-4.785 4.878,-4.745 6.326,-7.489   "/>
  <line y1="-2.731" y2="-2.731" x2="6.285" style="fill:none;stroke:#000000;stroke-width:0.7;stroke-linecap:round;" x1="6.285"/>
  <line y1="-2.4" y2="-2.4" x2="2.705" style="fill:none;stroke:#000000;stroke-width:0.7;stroke-linecap:round;" x1="2.705"/>
  <line y1="-5.808" y2="-5.808" x2="3.188" style="fill:none;stroke:#000000;stroke-width:0.7;stroke-linecap:round;" x1="3.188"/>
  <line y1="-8.818" y2="-8.818" x2="4.456" style="fill:none;stroke:#000000;stroke-width:0.7;stroke-linecap:round;" x1="4.456"/>
  <polygon style="fill:none;stroke:#000000;stroke-width:0.43;" points="13.809,-3.193 16.22,-5.249 16.859,-2.214   "/>
  <line y1="-3.35" y2="-3.35" x2="10.602" style="fill:none;stroke:#000000;stroke-width:0.7;stroke-linecap:round;" x1="10.602"/>
  <line y1="-7.556" y2="-7.556" x2="17.055" style="fill:none;stroke:#000000;stroke-width:0.7;stroke-linecap:round;" x1="17.055"/>
  <line y1="-8.011" y2="-8.011" x2="9.403" style="fill:none;stroke:#000000;stroke-width:0.7;stroke-linecap:round;" x1="9.403"/>
  <line y1="-6.522" y2="-6.522" x2="12.67" style="fill:none;stroke:#000000;stroke-width:0.7;stroke-linecap:round;" x1="12.67"/>
 </g>
</svg>
