<?xml version="1.0"?>
<!-- Converted with SVG Converter - Version 0.9.6 (Compiled Thu Aug 31 10:01:05 2017) - Copyright (C) 2011 Nokia -->
<svg xmlns="http://www.w3.org/2000/svg" y="0px" width="16.9" viewBox="1.176 -18.26 16.9 16.899" xmlns:xlink="http://www.w3.org/1999/xlink" baseProfile="tiny" xml:space="preserve" version="1.1" height="16.899" x="0px">
 <g>
  <rect y="-18.26" width="16.9" style="fill:none;" height="16.899" x="1.176"/>
  <polygon style="fill:none;stroke:#EC008C;stroke-width:0.58;" points="5.381,-12.856 4.781,-15.965 7.738,-15.027   "/>
  <line y1="-10.666" style="fill:none;stroke:#EC008C;stroke-width:0.8;stroke-linecap:round;" x2="7.306" x1="7.306" y2="-10.666"/>
  <line y1="-11.803" style="fill:none;stroke:#EC008C;stroke-width:0.8;stroke-linecap:round;" x2="2.6" x1="2.6" y2="-11.803"/>
  <polygon style="fill:none;stroke:#EC008C;stroke-width:0.58;" points="12.523,-10.859 13.409,-13.901 15.61,-11.715   "/>
  <line y1="-14.248" style="fill:none;stroke:#EC008C;stroke-width:0.8;stroke-linecap:round;" x2="16.417" x1="16.417" y2="-14.248"/>
  <line y1="-16.69" style="fill:none;stroke:#EC008C;stroke-width:0.8;stroke-linecap:round;" x2="12.928" x1="12.928" y2="-16.69"/>
  <line y1="-9.874" style="fill:none;stroke:#EC008C;stroke-width:0.8;stroke-linecap:round;" x2="14.976" x1="14.976" y2="-9.874"/>
  <line y1="-11.787" style="fill:none;stroke:#EC008C;stroke-width:0.8;stroke-linecap:round;" x2="10.892" x1="10.892" y2="-11.787"/>
  <line y1="-15.01" style="fill:none;stroke:#EC008C;stroke-width:0.8;stroke-linecap:round;" x2="10.778" x1="10.778" y2="-15.01"/>
  <line y1="-16.344" style="fill:none;stroke:#EC008C;stroke-width:0.8;stroke-linecap:round;" x2="3.077" x1="3.077" y2="-16.344"/>
  <line y1="-17.089" style="fill:none;stroke:#EC008C;stroke-width:0.8;stroke-linecap:round;" x2="8.842" x1="8.842" y2="-17.089"/>
  <line y1="-17.259" style="fill:none;stroke:#EC008C;stroke-width:0.8;stroke-linecap:round;" x2="16.534" x1="16.534" y2="-17.259"/>
  <polygon style="fill:none;stroke:#EC008C;stroke-width:0.58;" points="8.222,-4.985 5.054,-4.945 6.502,-7.689   "/>
  <line y1="-2.932" style="fill:none;stroke:#EC008C;stroke-width:0.8;stroke-linecap:round;" x2="6.46" x1="6.46" y2="-2.932"/>
  <line y1="-2.601" style="fill:none;stroke:#EC008C;stroke-width:0.8;stroke-linecap:round;" x2="2.88" x1="2.88" y2="-2.601"/>
  <line y1="-6.008" style="fill:none;stroke:#EC008C;stroke-width:0.8;stroke-linecap:round;" x2="3.364" x1="3.364" y2="-6.008"/>
  <line y1="-9.019" style="fill:none;stroke:#EC008C;stroke-width:0.8;stroke-linecap:round;" x2="4.631" x1="4.631" y2="-9.019"/>
  <polygon style="fill:none;stroke:#EC008C;stroke-width:0.58;" points="13.984,-3.394 16.396,-5.449 17.035,-2.414   "/>
  <line y1="-3.55" style="fill:none;stroke:#EC008C;stroke-width:0.8;stroke-linecap:round;" x2="10.778" x1="10.778" y2="-3.55"/>
  <line y1="-7.756" style="fill:none;stroke:#EC008C;stroke-width:0.8;stroke-linecap:round;" x2="17.231" x1="17.231" y2="-7.756"/>
  <line y1="-8.211" style="fill:none;stroke:#EC008C;stroke-width:0.8;stroke-linecap:round;" x2="9.579" x1="9.579" y2="-8.211"/>
  <line y1="-6.722" style="fill:none;stroke:#EC008C;stroke-width:0.8;stroke-linecap:round;" x2="12.846" x1="12.846" y2="-6.722"/>
 </g>
</svg>
