<?xml version="1.0" encoding="utf-8"?>
<svg xmlns="http://www.w3.org/2000/svg" version="1.1" x="0px" y="0px" xml:space="preserve" width="16.9" height="16.899" viewBox="1.176 -18.26 16.9 16.899">
	<g>
		<rect x="1.176" y="-18.26" style="fill:none;" width="16.9" height="16.899"/>
		<rect x="1.176" y="-18.26" width="16.9" height="16.899"/>
		<polygon style="fill:none;stroke:#FFFFFF;stroke-width:0.58;" points="5.381,-12.856 4.781,-15.965 7.738,-15.027   "/>

			<line style="fill:none;stroke:#FFFFFF;stroke-width:0.8;stroke-linecap:round;" x1="7.306" y1="-10.666" x2="7.306" y2="-10.666"/>
		<line style="fill:none;stroke:#FFFFFF;stroke-width:0.8;stroke-linecap:round;" x1="2.6" y1="-11.803" x2="2.6" y2="-11.803"/>
		<polygon style="fill:none;stroke:#FFFFFF;stroke-width:0.58;" points="12.523,-10.859 13.409,-13.901 15.61,-11.715   "/>

			<line style="fill:none;stroke:#FFFFFF;stroke-width:0.8;stroke-linecap:round;" x1="16.417" y1="-14.248" x2="16.417" y2="-14.248"/>

			<line style="fill:none;stroke:#FFFFFF;stroke-width:0.8;stroke-linecap:round;" x1="12.928" y1="-16.69" x2="12.928" y2="-16.69"/>

			<line style="fill:none;stroke:#FFFFFF;stroke-width:0.8;stroke-linecap:round;" x1="14.976" y1="-9.874" x2="14.976" y2="-9.874"/>

			<line style="fill:none;stroke:#FFFFFF;stroke-width:0.8;stroke-linecap:round;" x1="10.892" y1="-11.787" x2="10.892" y2="-11.787"/>

			<line style="fill:none;stroke:#FFFFFF;stroke-width:0.8;stroke-linecap:round;" x1="10.778" y1="-15.01" x2="10.778" y2="-15.01"/>

			<line style="fill:none;stroke:#FFFFFF;stroke-width:0.8;stroke-linecap:round;" x1="3.077" y1="-16.344" x2="3.077" y2="-16.344"/>

			<line style="fill:none;stroke:#FFFFFF;stroke-width:0.8;stroke-linecap:round;" x1="8.842" y1="-17.089" x2="8.842" y2="-17.089"/>

			<line style="fill:none;stroke:#FFFFFF;stroke-width:0.8;stroke-linecap:round;" x1="16.534" y1="-17.259" x2="16.534" y2="-17.259"/>
		<polygon style="fill:none;stroke:#FFFFFF;stroke-width:0.58;" points="8.222,-4.985 5.054,-4.945 6.502,-7.689   "/>
		<line style="fill:none;stroke:#FFFFFF;stroke-width:0.8;stroke-linecap:round;" x1="6.46" y1="-2.932" x2="6.46" y2="-2.932"/>
		<line style="fill:none;stroke:#FFFFFF;stroke-width:0.8;stroke-linecap:round;" x1="2.88" y1="-2.601" x2="2.88" y2="-2.601"/>
		<line style="fill:none;stroke:#FFFFFF;stroke-width:0.8;stroke-linecap:round;" x1="3.364" y1="-6.008" x2="3.364" y2="-6.008"/>
		<line style="fill:none;stroke:#FFFFFF;stroke-width:0.8;stroke-linecap:round;" x1="4.631" y1="-9.019" x2="4.631" y2="-9.019"/>
		<polygon style="fill:none;stroke:#FFFFFF;stroke-width:0.58;" points="13.984,-3.394 16.396,-5.449 17.035,-2.414   "/>
		<line style="fill:none;stroke:#FFFFFF;stroke-width:0.8;stroke-linecap:round;" x1="10.778" y1="-3.55" x2="10.778" y2="-3.55"/>

			<line style="fill:none;stroke:#FFFFFF;stroke-width:0.8;stroke-linecap:round;" x1="17.231" y1="-7.756" x2="17.231" y2="-7.756"/>
		<line style="fill:none;stroke:#FFFFFF;stroke-width:0.8;stroke-linecap:round;" x1="9.579" y1="-8.211" x2="9.579" y2="-8.211"/>

			<line style="fill:none;stroke:#FFFFFF;stroke-width:0.8;stroke-linecap:round;" x1="12.846" y1="-6.722" x2="12.846" y2="-6.722"/>
	</g>
</svg>
