<?xml version="1.0"?>
<!-- Converted with SVG Converter - Version 0.9.5 (Compiled Fri Feb 21 09:53:38 2020) - Copyright (C) 2011 Nokia -->
<svg xmlns="http://www.w3.org/2000/svg" baseProfile="tiny" y="0px" viewBox="0 -42.917 42.917 42.917" version="1.1" width="42.917" x="0px" xml:space="preserve" height="42.917" xmlns:xlink="http://www.w3.org/1999/xlink">
 <g>
  <rect style="fill:none;" y="-42.917" width="42.917" x="0" height="42.917"/>
  <line x1="0.75" style="fill:none;stroke:#000000;stroke-width:0.33;" y2="-34.167" y1="-34.167" x2="4.667"/>
  <line x1="5.932" style="fill:none;stroke:#000000;stroke-width:0.33;" y2="-39.292" y1="-39.292" x2="9.848"/>
  <line x1="8.598" style="fill:none;stroke:#000000;stroke-width:0.33;" y2="-41.729" y1="-39.312" x2="8.598"/>
  <line x1="7.265" style="fill:none;stroke:#000000;stroke-width:0.33;" y2="-40.562" y1="-39.312" x2="7.265"/>
  <line x1="11.494" style="fill:none;stroke:#000000;stroke-width:0.33;" y2="-34.167" y1="-34.167" x2="15.411"/>
  <line x1="16.619" style="fill:none;stroke:#000000;stroke-width:0.33;" y2="-39.292" y1="-39.292" x2="20.536"/>
  <line x1="19.286" style="fill:none;stroke:#000000;stroke-width:0.33;" y2="-41.729" y1="-39.312" x2="19.286"/>
  <line x1="17.953" style="fill:none;stroke:#000000;stroke-width:0.33;" y2="-40.562" y1="-39.312" x2="17.953"/>
  <line x1="0.75" style="fill:none;stroke:#000000;stroke-width:0.33;" y2="-23.417" y1="-23.417" x2="4.667"/>
  <line x1="3.083" style="fill:none;stroke:#000000;stroke-width:0.33;" y2="-36.688" y1="-34.188" x2="3.083"/>
  <line x1="1.666" style="fill:none;stroke:#000000;stroke-width:0.33;" y2="-35.604" y1="-34.188" x2="1.666"/>
  <line x1="5.932" style="fill:none;stroke:#000000;stroke-width:0.33;" y2="-28.542" y1="-28.542" x2="9.848"/>
  <line x1="8.598" style="fill:none;stroke:#000000;stroke-width:0.33;" y2="-30.979" y1="-28.562" x2="8.598"/>
  <line x1="7.265" style="fill:none;stroke:#000000;stroke-width:0.33;" y2="-29.812" y1="-28.562" x2="7.265"/>
  <line x1="11.494" style="fill:none;stroke:#000000;stroke-width:0.33;" y2="-23.417" y1="-23.417" x2="15.411"/>
  <line x1="13.828" style="fill:none;stroke:#000000;stroke-width:0.33;" y2="-36.688" y1="-34.188" x2="13.828"/>
  <line x1="12.411" style="fill:none;stroke:#000000;stroke-width:0.33;" y2="-35.604" y1="-34.188" x2="12.411"/>
  <line x1="16.619" style="fill:none;stroke:#000000;stroke-width:0.33;" y2="-28.542" y1="-28.542" x2="20.536"/>
  <line x1="19.286" style="fill:none;stroke:#000000;stroke-width:0.33;" y2="-30.979" y1="-28.562" x2="19.286"/>
  <line x1="17.953" style="fill:none;stroke:#000000;stroke-width:0.33;" y2="-29.812" y1="-28.562" x2="17.953"/>
  <line x1="22.25" style="fill:none;stroke:#000000;stroke-width:0.33;" y2="-34.167" y1="-34.167" x2="26.167"/>
  <line x1="27.432" style="fill:none;stroke:#000000;stroke-width:0.33;" y2="-39.292" y1="-39.292" x2="31.348"/>
  <line x1="30.098" style="fill:none;stroke:#000000;stroke-width:0.33;" y2="-41.729" y1="-39.312" x2="30.098"/>
  <line x1="28.765" style="fill:none;stroke:#000000;stroke-width:0.33;" y2="-40.562" y1="-39.312" x2="28.765"/>
  <line x1="32.994" style="fill:none;stroke:#000000;stroke-width:0.33;" y2="-34.167" y1="-34.167" x2="36.911"/>
  <line x1="38.119" style="fill:none;stroke:#000000;stroke-width:0.33;" y2="-39.292" y1="-39.292" x2="42.036"/>
  <line x1="40.786" style="fill:none;stroke:#000000;stroke-width:0.33;" y2="-41.729" y1="-39.312" x2="40.786"/>
  <line x1="39.453" style="fill:none;stroke:#000000;stroke-width:0.33;" y2="-40.562" y1="-39.312" x2="39.453"/>
  <line x1="22.25" style="fill:none;stroke:#000000;stroke-width:0.33;" y2="-23.417" y1="-23.417" x2="26.167"/>
  <line x1="24.583" style="fill:none;stroke:#000000;stroke-width:0.33;" y2="-36.688" y1="-34.188" x2="24.583"/>
  <line x1="23.167" style="fill:none;stroke:#000000;stroke-width:0.33;" y2="-35.604" y1="-34.188" x2="23.167"/>
  <line x1="27.432" style="fill:none;stroke:#000000;stroke-width:0.33;" y2="-28.542" y1="-28.542" x2="31.348"/>
  <line x1="30.098" style="fill:none;stroke:#000000;stroke-width:0.33;" y2="-30.979" y1="-28.562" x2="30.098"/>
  <line x1="28.765" style="fill:none;stroke:#000000;stroke-width:0.33;" y2="-29.812" y1="-28.562" x2="28.765"/>
  <line x1="32.994" style="fill:none;stroke:#000000;stroke-width:0.33;" y2="-23.417" y1="-23.417" x2="36.911"/>
  <line x1="35.328" style="fill:none;stroke:#000000;stroke-width:0.33;" y2="-36.688" y1="-34.188" x2="35.328"/>
  <line x1="33.911" style="fill:none;stroke:#000000;stroke-width:0.33;" y2="-35.604" y1="-34.188" x2="33.911"/>
  <line x1="38.119" style="fill:none;stroke:#000000;stroke-width:0.33;" y2="-28.542" y1="-28.542" x2="42.036"/>
  <line x1="40.786" style="fill:none;stroke:#000000;stroke-width:0.33;" y2="-30.979" y1="-28.562" x2="40.786"/>
  <line x1="39.453" style="fill:none;stroke:#000000;stroke-width:0.33;" y2="-29.812" y1="-28.562" x2="39.453"/>
  <line x1="0.75" style="fill:none;stroke:#000000;stroke-width:0.33;" y2="-12.68" y1="-12.68" x2="4.667"/>
  <line x1="3.083" style="fill:none;stroke:#000000;stroke-width:0.33;" y2="-25.951" y1="-23.451" x2="3.083"/>
  <line x1="1.666" style="fill:none;stroke:#000000;stroke-width:0.33;" y2="-24.867" y1="-23.451" x2="1.666"/>
  <line x1="5.932" style="fill:none;stroke:#000000;stroke-width:0.33;" y2="-17.805" y1="-17.805" x2="9.848"/>
  <line x1="8.598" style="fill:none;stroke:#000000;stroke-width:0.33;" y2="-20.242" y1="-17.826" x2="8.598"/>
  <line x1="7.265" style="fill:none;stroke:#000000;stroke-width:0.33;" y2="-19.076" y1="-17.826" x2="7.265"/>
  <line x1="11.494" style="fill:none;stroke:#000000;stroke-width:0.33;" y2="-12.68" y1="-12.68" x2="15.411"/>
  <line x1="13.828" style="fill:none;stroke:#000000;stroke-width:0.33;" y2="-25.951" y1="-23.451" x2="13.828"/>
  <line x1="12.411" style="fill:none;stroke:#000000;stroke-width:0.33;" y2="-24.867" y1="-23.451" x2="12.411"/>
  <line x1="16.619" style="fill:none;stroke:#000000;stroke-width:0.33;" y2="-17.805" y1="-17.805" x2="20.536"/>
  <line x1="19.286" style="fill:none;stroke:#000000;stroke-width:0.33;" y2="-20.242" y1="-17.826" x2="19.286"/>
  <line x1="17.953" style="fill:none;stroke:#000000;stroke-width:0.33;" y2="-19.076" y1="-17.826" x2="17.953"/>
  <line x1="0.75" style="fill:none;stroke:#000000;stroke-width:0.33;" y2="-1.93" y1="-1.93" x2="4.667"/>
  <line x1="3.083" style="fill:none;stroke:#000000;stroke-width:0.33;" y2="-15.201" y1="-12.701" x2="3.083"/>
  <line x1="1.666" style="fill:none;stroke:#000000;stroke-width:0.33;" y2="-14.117" y1="-12.701" x2="1.666"/>
  <line x1="3.417" style="fill:none;stroke:#000000;stroke-width:0.33;" y2="-4.367" y1="-1.951" x2="3.417"/>
  <line x1="2.083" style="fill:none;stroke:#000000;stroke-width:0.33;" y2="-3.201" y1="-1.951" x2="2.083"/>
  <line x1="5.932" style="fill:none;stroke:#000000;stroke-width:0.33;" y2="-7.055" y1="-7.055" x2="9.848"/>
  <line x1="8.598" style="fill:none;stroke:#000000;stroke-width:0.33;" y2="-9.492" y1="-7.076" x2="8.598"/>
  <line x1="7.265" style="fill:none;stroke:#000000;stroke-width:0.33;" y2="-8.326" y1="-7.076" x2="7.265"/>
  <line x1="11.494" style="fill:none;stroke:#000000;stroke-width:0.33;" y2="-1.93" y1="-1.93" x2="15.411"/>
  <line x1="13.828" style="fill:none;stroke:#000000;stroke-width:0.33;" y2="-15.201" y1="-12.701" x2="13.828"/>
  <line x1="12.411" style="fill:none;stroke:#000000;stroke-width:0.33;" y2="-14.117" y1="-12.701" x2="12.411"/>
  <line x1="14.161" style="fill:none;stroke:#000000;stroke-width:0.33;" y2="-4.367" y1="-1.951" x2="14.161"/>
  <line x1="12.828" style="fill:none;stroke:#000000;stroke-width:0.33;" y2="-3.201" y1="-1.951" x2="12.828"/>
  <line x1="16.619" style="fill:none;stroke:#000000;stroke-width:0.33;" y2="-7.055" y1="-7.055" x2="20.536"/>
  <line x1="19.286" style="fill:none;stroke:#000000;stroke-width:0.33;" y2="-9.492" y1="-7.076" x2="19.286"/>
  <line x1="17.953" style="fill:none;stroke:#000000;stroke-width:0.33;" y2="-8.326" y1="-7.076" x2="17.953"/>
  <line x1="22.25" style="fill:none;stroke:#000000;stroke-width:0.33;" y2="-12.68" y1="-12.68" x2="26.167"/>
  <line x1="24.583" style="fill:none;stroke:#000000;stroke-width:0.33;" y2="-25.951" y1="-23.451" x2="24.583"/>
  <line x1="23.167" style="fill:none;stroke:#000000;stroke-width:0.33;" y2="-24.867" y1="-23.451" x2="23.167"/>
  <line x1="27.432" style="fill:none;stroke:#000000;stroke-width:0.33;" y2="-17.805" y1="-17.805" x2="31.348"/>
  <line x1="30.098" style="fill:none;stroke:#000000;stroke-width:0.33;" y2="-20.242" y1="-17.826" x2="30.098"/>
  <line x1="28.765" style="fill:none;stroke:#000000;stroke-width:0.33;" y2="-19.076" y1="-17.826" x2="28.765"/>
  <line x1="32.994" style="fill:none;stroke:#000000;stroke-width:0.33;" y2="-12.68" y1="-12.68" x2="36.911"/>
  <line x1="35.328" style="fill:none;stroke:#000000;stroke-width:0.33;" y2="-25.951" y1="-23.451" x2="35.328"/>
  <line x1="33.911" style="fill:none;stroke:#000000;stroke-width:0.33;" y2="-24.867" y1="-23.451" x2="33.911"/>
  <line x1="38.119" style="fill:none;stroke:#000000;stroke-width:0.33;" y2="-17.805" y1="-17.805" x2="42.036"/>
  <line x1="40.786" style="fill:none;stroke:#000000;stroke-width:0.33;" y2="-20.242" y1="-17.826" x2="40.786"/>
  <line x1="39.453" style="fill:none;stroke:#000000;stroke-width:0.33;" y2="-19.076" y1="-17.826" x2="39.453"/>
  <line x1="22.25" style="fill:none;stroke:#000000;stroke-width:0.33;" y2="-1.93" y1="-1.93" x2="26.167"/>
  <line x1="24.583" style="fill:none;stroke:#000000;stroke-width:0.33;" y2="-15.201" y1="-12.701" x2="24.583"/>
  <line x1="23.167" style="fill:none;stroke:#000000;stroke-width:0.33;" y2="-14.117" y1="-12.701" x2="23.167"/>
  <line x1="24.917" style="fill:none;stroke:#000000;stroke-width:0.33;" y2="-4.367" y1="-1.951" x2="24.917"/>
  <line x1="23.583" style="fill:none;stroke:#000000;stroke-width:0.33;" y2="-3.201" y1="-1.951" x2="23.583"/>
  <line x1="27.432" style="fill:none;stroke:#000000;stroke-width:0.33;" y2="-7.055" y1="-7.055" x2="31.348"/>
  <line x1="30.098" style="fill:none;stroke:#000000;stroke-width:0.33;" y2="-9.492" y1="-7.076" x2="30.098"/>
  <line x1="28.765" style="fill:none;stroke:#000000;stroke-width:0.33;" y2="-8.326" y1="-7.076" x2="28.765"/>
  <line x1="32.994" style="fill:none;stroke:#000000;stroke-width:0.33;" y2="-1.93" y1="-1.93" x2="36.911"/>
  <line x1="35.328" style="fill:none;stroke:#000000;stroke-width:0.33;" y2="-15.201" y1="-12.701" x2="35.328"/>
  <line x1="33.911" style="fill:none;stroke:#000000;stroke-width:0.33;" y2="-14.117" y1="-12.701" x2="33.911"/>
  <line x1="35.661" style="fill:none;stroke:#000000;stroke-width:0.33;" y2="-4.367" y1="-1.951" x2="35.661"/>
  <line x1="34.328" style="fill:none;stroke:#000000;stroke-width:0.33;" y2="-3.201" y1="-1.951" x2="34.328"/>
  <line x1="38.119" style="fill:none;stroke:#000000;stroke-width:0.33;" y2="-7.055" y1="-7.055" x2="42.036"/>
  <line x1="40.786" style="fill:none;stroke:#000000;stroke-width:0.33;" y2="-9.492" y1="-7.076" x2="40.786"/>
  <line x1="39.453" style="fill:none;stroke:#000000;stroke-width:0.33;" y2="-8.326" y1="-7.076" x2="39.453"/>
 </g>
</svg>
