<?xml version="1.0"?>
<!-- Converted with SVG Converter - Version 0.9.5 (Compiled Fri Feb 21 09:53:38 2020) - Copyright (C) 2011 Nokia -->
<svg xmlns="http://www.w3.org/2000/svg" height="42.917" xmlns:xlink="http://www.w3.org/1999/xlink" x="0px" xml:space="preserve" y="0px" width="42.917" viewBox="0 -42.917 42.917 42.917" baseProfile="tiny" version="1.1">
 <g>
  <rect height="42.917" style="fill:none;" x="0" y="-42.917" width="42.917"/>
  <line y1="-34.167" y2="-34.167" style="fill:none;stroke:#000000;stroke-width:0.33;" x1="0.75" x2="4.667"/>
  <line y1="-39.292" y2="-39.292" style="fill:none;stroke:#000000;stroke-width:0.33;" x1="5.932" x2="9.848"/>
  <line y1="-39.312" y2="-41.729" style="fill:none;stroke:#000000;stroke-width:0.33;" x1="8.598" x2="8.598"/>
  <line y1="-39.312" y2="-40.562" style="fill:none;stroke:#000000;stroke-width:0.33;" x1="7.265" x2="7.265"/>
  <line y1="-34.167" y2="-34.167" style="fill:none;stroke:#000000;stroke-width:0.33;" x1="11.494" x2="15.411"/>
  <line y1="-39.292" y2="-39.292" style="fill:none;stroke:#000000;stroke-width:0.33;" x1="16.619" x2="20.536"/>
  <line y1="-39.312" y2="-41.729" style="fill:none;stroke:#000000;stroke-width:0.33;" x1="19.286" x2="19.286"/>
  <line y1="-39.312" y2="-40.562" style="fill:none;stroke:#000000;stroke-width:0.33;" x1="17.953" x2="17.953"/>
  <line y1="-23.417" y2="-23.417" style="fill:none;stroke:#000000;stroke-width:0.33;" x1="0.75" x2="4.667"/>
  <line y1="-34.188" y2="-36.688" style="fill:none;stroke:#000000;stroke-width:0.33;" x1="3.083" x2="3.083"/>
  <line y1="-34.188" y2="-35.604" style="fill:none;stroke:#000000;stroke-width:0.33;" x1="1.666" x2="1.666"/>
  <line y1="-28.542" y2="-28.542" style="fill:none;stroke:#000000;stroke-width:0.33;" x1="5.932" x2="9.848"/>
  <line y1="-28.562" y2="-30.979" style="fill:none;stroke:#000000;stroke-width:0.33;" x1="8.598" x2="8.598"/>
  <line y1="-28.562" y2="-29.812" style="fill:none;stroke:#000000;stroke-width:0.33;" x1="7.265" x2="7.265"/>
  <line y1="-23.417" y2="-23.417" style="fill:none;stroke:#000000;stroke-width:0.33;" x1="11.494" x2="15.411"/>
  <line y1="-34.188" y2="-36.688" style="fill:none;stroke:#000000;stroke-width:0.33;" x1="13.828" x2="13.828"/>
  <line y1="-34.188" y2="-35.604" style="fill:none;stroke:#000000;stroke-width:0.33;" x1="12.411" x2="12.411"/>
  <line y1="-28.542" y2="-28.542" style="fill:none;stroke:#000000;stroke-width:0.33;" x1="16.619" x2="20.536"/>
  <line y1="-28.562" y2="-30.979" style="fill:none;stroke:#000000;stroke-width:0.33;" x1="19.286" x2="19.286"/>
  <line y1="-28.562" y2="-29.812" style="fill:none;stroke:#000000;stroke-width:0.33;" x1="17.953" x2="17.953"/>
  <line y1="-34.167" y2="-34.167" style="fill:none;stroke:#000000;stroke-width:0.33;" x1="22.25" x2="26.167"/>
  <line y1="-39.292" y2="-39.292" style="fill:none;stroke:#000000;stroke-width:0.33;" x1="27.432" x2="31.348"/>
  <line y1="-39.312" y2="-41.729" style="fill:none;stroke:#000000;stroke-width:0.33;" x1="30.098" x2="30.098"/>
  <line y1="-39.312" y2="-40.562" style="fill:none;stroke:#000000;stroke-width:0.33;" x1="28.765" x2="28.765"/>
  <line y1="-34.167" y2="-34.167" style="fill:none;stroke:#000000;stroke-width:0.33;" x1="32.994" x2="36.911"/>
  <line y1="-39.292" y2="-39.292" style="fill:none;stroke:#000000;stroke-width:0.33;" x1="38.119" x2="42.036"/>
  <line y1="-39.312" y2="-41.729" style="fill:none;stroke:#000000;stroke-width:0.33;" x1="40.786" x2="40.786"/>
  <line y1="-39.312" y2="-40.562" style="fill:none;stroke:#000000;stroke-width:0.33;" x1="39.453" x2="39.453"/>
  <line y1="-23.417" y2="-23.417" style="fill:none;stroke:#000000;stroke-width:0.33;" x1="22.25" x2="26.167"/>
  <line y1="-34.188" y2="-36.688" style="fill:none;stroke:#000000;stroke-width:0.33;" x1="24.583" x2="24.583"/>
  <line y1="-34.188" y2="-35.604" style="fill:none;stroke:#000000;stroke-width:0.33;" x1="23.167" x2="23.167"/>
  <line y1="-28.542" y2="-28.542" style="fill:none;stroke:#000000;stroke-width:0.33;" x1="27.432" x2="31.348"/>
  <line y1="-28.562" y2="-30.979" style="fill:none;stroke:#000000;stroke-width:0.33;" x1="30.098" x2="30.098"/>
  <line y1="-28.562" y2="-29.812" style="fill:none;stroke:#000000;stroke-width:0.33;" x1="28.765" x2="28.765"/>
  <line y1="-23.417" y2="-23.417" style="fill:none;stroke:#000000;stroke-width:0.33;" x1="32.994" x2="36.911"/>
  <line y1="-34.188" y2="-36.688" style="fill:none;stroke:#000000;stroke-width:0.33;" x1="35.328" x2="35.328"/>
  <line y1="-34.188" y2="-35.604" style="fill:none;stroke:#000000;stroke-width:0.33;" x1="33.911" x2="33.911"/>
  <line y1="-28.542" y2="-28.542" style="fill:none;stroke:#000000;stroke-width:0.33;" x1="38.119" x2="42.036"/>
  <line y1="-28.562" y2="-30.979" style="fill:none;stroke:#000000;stroke-width:0.33;" x1="40.786" x2="40.786"/>
  <line y1="-28.562" y2="-29.812" style="fill:none;stroke:#000000;stroke-width:0.33;" x1="39.453" x2="39.453"/>
  <line y1="-12.68" y2="-12.68" style="fill:none;stroke:#000000;stroke-width:0.33;" x1="0.75" x2="4.667"/>
  <line y1="-23.451" y2="-25.951" style="fill:none;stroke:#000000;stroke-width:0.33;" x1="3.083" x2="3.083"/>
  <line y1="-23.451" y2="-24.867" style="fill:none;stroke:#000000;stroke-width:0.33;" x1="1.666" x2="1.666"/>
  <line y1="-17.805" y2="-17.805" style="fill:none;stroke:#000000;stroke-width:0.33;" x1="5.932" x2="9.848"/>
  <line y1="-17.826" y2="-20.242" style="fill:none;stroke:#000000;stroke-width:0.33;" x1="8.598" x2="8.598"/>
  <line y1="-17.826" y2="-19.076" style="fill:none;stroke:#000000;stroke-width:0.33;" x1="7.265" x2="7.265"/>
  <line y1="-12.68" y2="-12.68" style="fill:none;stroke:#000000;stroke-width:0.33;" x1="11.494" x2="15.411"/>
  <line y1="-23.451" y2="-25.951" style="fill:none;stroke:#000000;stroke-width:0.33;" x1="13.828" x2="13.828"/>
  <line y1="-23.451" y2="-24.867" style="fill:none;stroke:#000000;stroke-width:0.33;" x1="12.411" x2="12.411"/>
  <line y1="-17.805" y2="-17.805" style="fill:none;stroke:#000000;stroke-width:0.33;" x1="16.619" x2="20.536"/>
  <line y1="-17.826" y2="-20.242" style="fill:none;stroke:#000000;stroke-width:0.33;" x1="19.286" x2="19.286"/>
  <line y1="-17.826" y2="-19.076" style="fill:none;stroke:#000000;stroke-width:0.33;" x1="17.953" x2="17.953"/>
  <line y1="-1.93" y2="-1.93" style="fill:none;stroke:#000000;stroke-width:0.33;" x1="0.75" x2="4.667"/>
  <line y1="-12.701" y2="-15.201" style="fill:none;stroke:#000000;stroke-width:0.33;" x1="3.083" x2="3.083"/>
  <line y1="-12.701" y2="-14.117" style="fill:none;stroke:#000000;stroke-width:0.33;" x1="1.666" x2="1.666"/>
  <line y1="-1.951" y2="-4.367" style="fill:none;stroke:#000000;stroke-width:0.33;" x1="3.417" x2="3.417"/>
  <line y1="-1.951" y2="-3.201" style="fill:none;stroke:#000000;stroke-width:0.33;" x1="2.083" x2="2.083"/>
  <line y1="-7.055" y2="-7.055" style="fill:none;stroke:#000000;stroke-width:0.33;" x1="5.932" x2="9.848"/>
  <line y1="-7.076" y2="-9.492" style="fill:none;stroke:#000000;stroke-width:0.33;" x1="8.598" x2="8.598"/>
  <line y1="-7.076" y2="-8.326" style="fill:none;stroke:#000000;stroke-width:0.33;" x1="7.265" x2="7.265"/>
  <line y1="-1.93" y2="-1.93" style="fill:none;stroke:#000000;stroke-width:0.33;" x1="11.494" x2="15.411"/>
  <line y1="-12.701" y2="-15.201" style="fill:none;stroke:#000000;stroke-width:0.33;" x1="13.828" x2="13.828"/>
  <line y1="-12.701" y2="-14.117" style="fill:none;stroke:#000000;stroke-width:0.33;" x1="12.411" x2="12.411"/>
  <line y1="-1.951" y2="-4.367" style="fill:none;stroke:#000000;stroke-width:0.33;" x1="14.161" x2="14.161"/>
  <line y1="-1.951" y2="-3.201" style="fill:none;stroke:#000000;stroke-width:0.33;" x1="12.828" x2="12.828"/>
  <line y1="-7.055" y2="-7.055" style="fill:none;stroke:#000000;stroke-width:0.33;" x1="16.619" x2="20.536"/>
  <line y1="-7.076" y2="-9.492" style="fill:none;stroke:#000000;stroke-width:0.33;" x1="19.286" x2="19.286"/>
  <line y1="-7.076" y2="-8.326" style="fill:none;stroke:#000000;stroke-width:0.33;" x1="17.953" x2="17.953"/>
  <line y1="-12.68" y2="-12.68" style="fill:none;stroke:#000000;stroke-width:0.33;" x1="22.25" x2="26.167"/>
  <line y1="-23.451" y2="-25.951" style="fill:none;stroke:#000000;stroke-width:0.33;" x1="24.583" x2="24.583"/>
  <line y1="-23.451" y2="-24.867" style="fill:none;stroke:#000000;stroke-width:0.33;" x1="23.167" x2="23.167"/>
  <line y1="-17.805" y2="-17.805" style="fill:none;stroke:#000000;stroke-width:0.33;" x1="27.432" x2="31.348"/>
  <line y1="-17.826" y2="-20.242" style="fill:none;stroke:#000000;stroke-width:0.33;" x1="30.098" x2="30.098"/>
  <line y1="-17.826" y2="-19.076" style="fill:none;stroke:#000000;stroke-width:0.33;" x1="28.765" x2="28.765"/>
  <line y1="-12.68" y2="-12.68" style="fill:none;stroke:#000000;stroke-width:0.33;" x1="32.994" x2="36.911"/>
  <line y1="-23.451" y2="-25.951" style="fill:none;stroke:#000000;stroke-width:0.33;" x1="35.328" x2="35.328"/>
  <line y1="-23.451" y2="-24.867" style="fill:none;stroke:#000000;stroke-width:0.33;" x1="33.911" x2="33.911"/>
  <line y1="-17.805" y2="-17.805" style="fill:none;stroke:#000000;stroke-width:0.33;" x1="38.119" x2="42.036"/>
  <line y1="-17.826" y2="-20.242" style="fill:none;stroke:#000000;stroke-width:0.33;" x1="40.786" x2="40.786"/>
  <line y1="-17.826" y2="-19.076" style="fill:none;stroke:#000000;stroke-width:0.33;" x1="39.453" x2="39.453"/>
  <line y1="-1.93" y2="-1.93" style="fill:none;stroke:#000000;stroke-width:0.33;" x1="22.25" x2="26.167"/>
  <line y1="-12.701" y2="-15.201" style="fill:none;stroke:#000000;stroke-width:0.33;" x1="24.583" x2="24.583"/>
  <line y1="-12.701" y2="-14.117" style="fill:none;stroke:#000000;stroke-width:0.33;" x1="23.167" x2="23.167"/>
  <line y1="-1.951" y2="-4.367" style="fill:none;stroke:#000000;stroke-width:0.33;" x1="24.917" x2="24.917"/>
  <line y1="-1.951" y2="-3.201" style="fill:none;stroke:#000000;stroke-width:0.33;" x1="23.583" x2="23.583"/>
  <line y1="-7.055" y2="-7.055" style="fill:none;stroke:#000000;stroke-width:0.33;" x1="27.432" x2="31.348"/>
  <line y1="-7.076" y2="-9.492" style="fill:none;stroke:#000000;stroke-width:0.33;" x1="30.098" x2="30.098"/>
  <line y1="-7.076" y2="-8.326" style="fill:none;stroke:#000000;stroke-width:0.33;" x1="28.765" x2="28.765"/>
  <line y1="-1.93" y2="-1.93" style="fill:none;stroke:#000000;stroke-width:0.33;" x1="32.994" x2="36.911"/>
  <line y1="-12.701" y2="-15.201" style="fill:none;stroke:#000000;stroke-width:0.33;" x1="35.328" x2="35.328"/>
  <line y1="-12.701" y2="-14.117" style="fill:none;stroke:#000000;stroke-width:0.33;" x1="33.911" x2="33.911"/>
  <line y1="-1.951" y2="-4.367" style="fill:none;stroke:#000000;stroke-width:0.33;" x1="35.661" x2="35.661"/>
  <line y1="-1.951" y2="-3.201" style="fill:none;stroke:#000000;stroke-width:0.33;" x1="34.328" x2="34.328"/>
  <line y1="-7.055" y2="-7.055" style="fill:none;stroke:#000000;stroke-width:0.33;" x1="38.119" x2="42.036"/>
  <line y1="-7.076" y2="-9.492" style="fill:none;stroke:#000000;stroke-width:0.33;" x1="40.786" x2="40.786"/>
  <line y1="-7.076" y2="-8.326" style="fill:none;stroke:#000000;stroke-width:0.33;" x1="39.453" x2="39.453"/>
 </g>
</svg>
