<?xml version="1.0"?>
<!-- Converted with SVG Converter - Version 0.9.5 (Compiled Fri Feb 21 09:53:38 2020) - Copyright (C) 2011 Nokia -->
<svg xmlns="http://www.w3.org/2000/svg" xmlns:xlink="http://www.w3.org/1999/xlink" x="0px" xml:space="preserve" viewBox="0 -42.917 42.917 42.917" y="0px" width="42.917" baseProfile="tiny" version="1.1" height="42.917">
 <g>
  <rect style="fill:none;" x="0" y="-42.917" width="42.917" height="42.917"/>
  <line x2="4.667" y2="-34.167" style="fill:none;stroke:#000000;stroke-width:0.33;" y1="-34.167" x1="0.75"/>
  <line x2="9.848" y2="-39.292" style="fill:none;stroke:#000000;stroke-width:0.33;" y1="-39.292" x1="5.932"/>
  <line x2="8.598" y2="-41.729" style="fill:none;stroke:#000000;stroke-width:0.33;" y1="-39.312" x1="8.598"/>
  <line x2="7.265" y2="-40.562" style="fill:none;stroke:#000000;stroke-width:0.33;" y1="-39.312" x1="7.265"/>
  <line x2="15.411" y2="-34.167" style="fill:none;stroke:#000000;stroke-width:0.33;" y1="-34.167" x1="11.494"/>
  <line x2="20.536" y2="-39.292" style="fill:none;stroke:#000000;stroke-width:0.33;" y1="-39.292" x1="16.619"/>
  <line x2="19.286" y2="-41.729" style="fill:none;stroke:#000000;stroke-width:0.33;" y1="-39.312" x1="19.286"/>
  <line x2="17.953" y2="-40.562" style="fill:none;stroke:#000000;stroke-width:0.33;" y1="-39.312" x1="17.953"/>
  <line x2="4.667" y2="-23.417" style="fill:none;stroke:#000000;stroke-width:0.33;" y1="-23.417" x1="0.75"/>
  <line x2="3.083" y2="-36.688" style="fill:none;stroke:#000000;stroke-width:0.33;" y1="-34.188" x1="3.083"/>
  <line x2="1.666" y2="-35.604" style="fill:none;stroke:#000000;stroke-width:0.33;" y1="-34.188" x1="1.666"/>
  <line x2="9.848" y2="-28.542" style="fill:none;stroke:#000000;stroke-width:0.33;" y1="-28.542" x1="5.932"/>
  <line x2="8.598" y2="-30.979" style="fill:none;stroke:#000000;stroke-width:0.33;" y1="-28.562" x1="8.598"/>
  <line x2="7.265" y2="-29.812" style="fill:none;stroke:#000000;stroke-width:0.33;" y1="-28.562" x1="7.265"/>
  <line x2="15.411" y2="-23.417" style="fill:none;stroke:#000000;stroke-width:0.33;" y1="-23.417" x1="11.494"/>
  <line x2="13.828" y2="-36.688" style="fill:none;stroke:#000000;stroke-width:0.33;" y1="-34.188" x1="13.828"/>
  <line x2="12.411" y2="-35.604" style="fill:none;stroke:#000000;stroke-width:0.33;" y1="-34.188" x1="12.411"/>
  <line x2="20.536" y2="-28.542" style="fill:none;stroke:#000000;stroke-width:0.33;" y1="-28.542" x1="16.619"/>
  <line x2="19.286" y2="-30.979" style="fill:none;stroke:#000000;stroke-width:0.33;" y1="-28.562" x1="19.286"/>
  <line x2="17.953" y2="-29.812" style="fill:none;stroke:#000000;stroke-width:0.33;" y1="-28.562" x1="17.953"/>
  <line x2="26.167" y2="-34.167" style="fill:none;stroke:#000000;stroke-width:0.33;" y1="-34.167" x1="22.25"/>
  <line x2="31.348" y2="-39.292" style="fill:none;stroke:#000000;stroke-width:0.33;" y1="-39.292" x1="27.432"/>
  <line x2="30.098" y2="-41.729" style="fill:none;stroke:#000000;stroke-width:0.33;" y1="-39.312" x1="30.098"/>
  <line x2="28.765" y2="-40.562" style="fill:none;stroke:#000000;stroke-width:0.33;" y1="-39.312" x1="28.765"/>
  <line x2="36.911" y2="-34.167" style="fill:none;stroke:#000000;stroke-width:0.33;" y1="-34.167" x1="32.994"/>
  <line x2="42.036" y2="-39.292" style="fill:none;stroke:#000000;stroke-width:0.33;" y1="-39.292" x1="38.119"/>
  <line x2="40.786" y2="-41.729" style="fill:none;stroke:#000000;stroke-width:0.33;" y1="-39.312" x1="40.786"/>
  <line x2="39.453" y2="-40.562" style="fill:none;stroke:#000000;stroke-width:0.33;" y1="-39.312" x1="39.453"/>
  <line x2="26.167" y2="-23.417" style="fill:none;stroke:#000000;stroke-width:0.33;" y1="-23.417" x1="22.25"/>
  <line x2="24.583" y2="-36.688" style="fill:none;stroke:#000000;stroke-width:0.33;" y1="-34.188" x1="24.583"/>
  <line x2="23.167" y2="-35.604" style="fill:none;stroke:#000000;stroke-width:0.33;" y1="-34.188" x1="23.167"/>
  <line x2="31.348" y2="-28.542" style="fill:none;stroke:#000000;stroke-width:0.33;" y1="-28.542" x1="27.432"/>
  <line x2="30.098" y2="-30.979" style="fill:none;stroke:#000000;stroke-width:0.33;" y1="-28.562" x1="30.098"/>
  <line x2="28.765" y2="-29.812" style="fill:none;stroke:#000000;stroke-width:0.33;" y1="-28.562" x1="28.765"/>
  <line x2="36.911" y2="-23.417" style="fill:none;stroke:#000000;stroke-width:0.33;" y1="-23.417" x1="32.994"/>
  <line x2="35.328" y2="-36.688" style="fill:none;stroke:#000000;stroke-width:0.33;" y1="-34.188" x1="35.328"/>
  <line x2="33.911" y2="-35.604" style="fill:none;stroke:#000000;stroke-width:0.33;" y1="-34.188" x1="33.911"/>
  <line x2="42.036" y2="-28.542" style="fill:none;stroke:#000000;stroke-width:0.33;" y1="-28.542" x1="38.119"/>
  <line x2="40.786" y2="-30.979" style="fill:none;stroke:#000000;stroke-width:0.33;" y1="-28.562" x1="40.786"/>
  <line x2="39.453" y2="-29.812" style="fill:none;stroke:#000000;stroke-width:0.33;" y1="-28.562" x1="39.453"/>
  <line x2="4.667" y2="-12.68" style="fill:none;stroke:#000000;stroke-width:0.33;" y1="-12.68" x1="0.75"/>
  <line x2="3.083" y2="-25.951" style="fill:none;stroke:#000000;stroke-width:0.33;" y1="-23.451" x1="3.083"/>
  <line x2="1.666" y2="-24.867" style="fill:none;stroke:#000000;stroke-width:0.33;" y1="-23.451" x1="1.666"/>
  <line x2="9.848" y2="-17.805" style="fill:none;stroke:#000000;stroke-width:0.33;" y1="-17.805" x1="5.932"/>
  <line x2="8.598" y2="-20.242" style="fill:none;stroke:#000000;stroke-width:0.33;" y1="-17.826" x1="8.598"/>
  <line x2="7.265" y2="-19.076" style="fill:none;stroke:#000000;stroke-width:0.33;" y1="-17.826" x1="7.265"/>
  <line x2="15.411" y2="-12.68" style="fill:none;stroke:#000000;stroke-width:0.33;" y1="-12.68" x1="11.494"/>
  <line x2="13.828" y2="-25.951" style="fill:none;stroke:#000000;stroke-width:0.33;" y1="-23.451" x1="13.828"/>
  <line x2="12.411" y2="-24.867" style="fill:none;stroke:#000000;stroke-width:0.33;" y1="-23.451" x1="12.411"/>
  <line x2="20.536" y2="-17.805" style="fill:none;stroke:#000000;stroke-width:0.33;" y1="-17.805" x1="16.619"/>
  <line x2="19.286" y2="-20.242" style="fill:none;stroke:#000000;stroke-width:0.33;" y1="-17.826" x1="19.286"/>
  <line x2="17.953" y2="-19.076" style="fill:none;stroke:#000000;stroke-width:0.33;" y1="-17.826" x1="17.953"/>
  <line x2="4.667" y2="-1.93" style="fill:none;stroke:#000000;stroke-width:0.33;" y1="-1.93" x1="0.75"/>
  <line x2="3.083" y2="-15.201" style="fill:none;stroke:#000000;stroke-width:0.33;" y1="-12.701" x1="3.083"/>
  <line x2="1.666" y2="-14.117" style="fill:none;stroke:#000000;stroke-width:0.33;" y1="-12.701" x1="1.666"/>
  <line x2="3.417" y2="-4.367" style="fill:none;stroke:#000000;stroke-width:0.33;" y1="-1.951" x1="3.417"/>
  <line x2="2.083" y2="-3.201" style="fill:none;stroke:#000000;stroke-width:0.33;" y1="-1.951" x1="2.083"/>
  <line x2="9.848" y2="-7.055" style="fill:none;stroke:#000000;stroke-width:0.33;" y1="-7.055" x1="5.932"/>
  <line x2="8.598" y2="-9.492" style="fill:none;stroke:#000000;stroke-width:0.33;" y1="-7.076" x1="8.598"/>
  <line x2="7.265" y2="-8.326" style="fill:none;stroke:#000000;stroke-width:0.33;" y1="-7.076" x1="7.265"/>
  <line x2="15.411" y2="-1.93" style="fill:none;stroke:#000000;stroke-width:0.33;" y1="-1.93" x1="11.494"/>
  <line x2="13.828" y2="-15.201" style="fill:none;stroke:#000000;stroke-width:0.33;" y1="-12.701" x1="13.828"/>
  <line x2="12.411" y2="-14.117" style="fill:none;stroke:#000000;stroke-width:0.33;" y1="-12.701" x1="12.411"/>
  <line x2="14.161" y2="-4.367" style="fill:none;stroke:#000000;stroke-width:0.33;" y1="-1.951" x1="14.161"/>
  <line x2="12.828" y2="-3.201" style="fill:none;stroke:#000000;stroke-width:0.33;" y1="-1.951" x1="12.828"/>
  <line x2="20.536" y2="-7.055" style="fill:none;stroke:#000000;stroke-width:0.33;" y1="-7.055" x1="16.619"/>
  <line x2="19.286" y2="-9.492" style="fill:none;stroke:#000000;stroke-width:0.33;" y1="-7.076" x1="19.286"/>
  <line x2="17.953" y2="-8.326" style="fill:none;stroke:#000000;stroke-width:0.33;" y1="-7.076" x1="17.953"/>
  <line x2="26.167" y2="-12.68" style="fill:none;stroke:#000000;stroke-width:0.33;" y1="-12.68" x1="22.25"/>
  <line x2="24.583" y2="-25.951" style="fill:none;stroke:#000000;stroke-width:0.33;" y1="-23.451" x1="24.583"/>
  <line x2="23.167" y2="-24.867" style="fill:none;stroke:#000000;stroke-width:0.33;" y1="-23.451" x1="23.167"/>
  <line x2="31.348" y2="-17.805" style="fill:none;stroke:#000000;stroke-width:0.33;" y1="-17.805" x1="27.432"/>
  <line x2="30.098" y2="-20.242" style="fill:none;stroke:#000000;stroke-width:0.33;" y1="-17.826" x1="30.098"/>
  <line x2="28.765" y2="-19.076" style="fill:none;stroke:#000000;stroke-width:0.33;" y1="-17.826" x1="28.765"/>
  <line x2="36.911" y2="-12.68" style="fill:none;stroke:#000000;stroke-width:0.33;" y1="-12.68" x1="32.994"/>
  <line x2="35.328" y2="-25.951" style="fill:none;stroke:#000000;stroke-width:0.33;" y1="-23.451" x1="35.328"/>
  <line x2="33.911" y2="-24.867" style="fill:none;stroke:#000000;stroke-width:0.33;" y1="-23.451" x1="33.911"/>
  <line x2="42.036" y2="-17.805" style="fill:none;stroke:#000000;stroke-width:0.33;" y1="-17.805" x1="38.119"/>
  <line x2="40.786" y2="-20.242" style="fill:none;stroke:#000000;stroke-width:0.33;" y1="-17.826" x1="40.786"/>
  <line x2="39.453" y2="-19.076" style="fill:none;stroke:#000000;stroke-width:0.33;" y1="-17.826" x1="39.453"/>
  <line x2="26.167" y2="-1.93" style="fill:none;stroke:#000000;stroke-width:0.33;" y1="-1.93" x1="22.25"/>
  <line x2="24.583" y2="-15.201" style="fill:none;stroke:#000000;stroke-width:0.33;" y1="-12.701" x1="24.583"/>
  <line x2="23.167" y2="-14.117" style="fill:none;stroke:#000000;stroke-width:0.33;" y1="-12.701" x1="23.167"/>
  <line x2="24.917" y2="-4.367" style="fill:none;stroke:#000000;stroke-width:0.33;" y1="-1.951" x1="24.917"/>
  <line x2="23.583" y2="-3.201" style="fill:none;stroke:#000000;stroke-width:0.33;" y1="-1.951" x1="23.583"/>
  <line x2="31.348" y2="-7.055" style="fill:none;stroke:#000000;stroke-width:0.33;" y1="-7.055" x1="27.432"/>
  <line x2="30.098" y2="-9.492" style="fill:none;stroke:#000000;stroke-width:0.33;" y1="-7.076" x1="30.098"/>
  <line x2="28.765" y2="-8.326" style="fill:none;stroke:#000000;stroke-width:0.33;" y1="-7.076" x1="28.765"/>
  <line x2="36.911" y2="-1.93" style="fill:none;stroke:#000000;stroke-width:0.33;" y1="-1.93" x1="32.994"/>
  <line x2="35.328" y2="-15.201" style="fill:none;stroke:#000000;stroke-width:0.33;" y1="-12.701" x1="35.328"/>
  <line x2="33.911" y2="-14.117" style="fill:none;stroke:#000000;stroke-width:0.33;" y1="-12.701" x1="33.911"/>
  <line x2="35.661" y2="-4.367" style="fill:none;stroke:#000000;stroke-width:0.33;" y1="-1.951" x1="35.661"/>
  <line x2="34.328" y2="-3.201" style="fill:none;stroke:#000000;stroke-width:0.33;" y1="-1.951" x1="34.328"/>
  <line x2="42.036" y2="-7.055" style="fill:none;stroke:#000000;stroke-width:0.33;" y1="-7.055" x1="38.119"/>
  <line x2="40.786" y2="-9.492" style="fill:none;stroke:#000000;stroke-width:0.33;" y1="-7.076" x1="40.786"/>
  <line x2="39.453" y2="-8.326" style="fill:none;stroke:#000000;stroke-width:0.33;" y1="-7.076" x1="39.453"/>
 </g>
</svg>
