<?xml version="1.0"?>
<!-- Converted with SVG Converter - Version 0.9.5 (Compiled Fri Feb 21 09:53:38 2020) - Copyright (C) 2011 Nokia -->
<svg xmlns="http://www.w3.org/2000/svg" baseProfile="tiny" version="1.1" xml:space="preserve" width="42.917" xmlns:xlink="http://www.w3.org/1999/xlink" x="0px" y="0px" viewBox="1.05 -43.917 42.917 42.917" height="42.917">
 <g>
  <rect style="fill:none;" width="42.917" x="1.05" y="-43.917" height="42.917"/>
  <line style="fill:none;stroke:#00AEEF;stroke-width:0.4;" y1="-35.167" y2="-35.167" x1="1.8" x2="5.717"/>
  <line style="fill:none;stroke:#00AEEF;stroke-width:0.4;" y1="-40.292" y2="-40.292" x1="6.982" x2="10.898"/>
  <line style="fill:none;stroke:#00AEEF;stroke-width:0.4;" y1="-40.312" y2="-42.729" x1="9.648" x2="9.648"/>
  <line style="fill:none;stroke:#00AEEF;stroke-width:0.4;" y1="-40.312" y2="-41.562" x1="8.315" x2="8.315"/>
  <line style="fill:none;stroke:#00AEEF;stroke-width:0.4;" y1="-35.167" y2="-35.167" x1="12.544" x2="16.461"/>
  <line style="fill:none;stroke:#00AEEF;stroke-width:0.4;" y1="-40.292" y2="-40.292" x1="17.669" x2="21.586"/>
  <line style="fill:none;stroke:#00AEEF;stroke-width:0.4;" y1="-40.312" y2="-42.729" x1="20.336" x2="20.336"/>
  <line style="fill:none;stroke:#00AEEF;stroke-width:0.4;" y1="-40.312" y2="-41.562" x1="19.003" x2="19.003"/>
  <line style="fill:none;stroke:#00AEEF;stroke-width:0.4;" y1="-24.417" y2="-24.417" x1="1.8" x2="5.717"/>
  <line style="fill:none;stroke:#00AEEF;stroke-width:0.4;" y1="-35.188" y2="-37.688" x1="4.134" x2="4.134"/>
  <line style="fill:none;stroke:#00AEEF;stroke-width:0.4;" y1="-35.188" y2="-36.604" x1="2.717" x2="2.717"/>
  <line style="fill:none;stroke:#00AEEF;stroke-width:0.4;" y1="-29.542" y2="-29.542" x1="6.982" x2="10.898"/>
  <line style="fill:none;stroke:#00AEEF;stroke-width:0.4;" y1="-29.562" y2="-31.979" x1="9.648" x2="9.648"/>
  <line style="fill:none;stroke:#00AEEF;stroke-width:0.4;" y1="-29.562" y2="-30.812" x1="8.315" x2="8.315"/>
  <line style="fill:none;stroke:#00AEEF;stroke-width:0.4;" y1="-24.417" y2="-24.417" x1="12.544" x2="16.461"/>
  <line style="fill:none;stroke:#00AEEF;stroke-width:0.4;" y1="-35.188" y2="-37.688" x1="14.878" x2="14.878"/>
  <line style="fill:none;stroke:#00AEEF;stroke-width:0.4;" y1="-35.188" y2="-36.604" x1="13.461" x2="13.461"/>
  <line style="fill:none;stroke:#00AEEF;stroke-width:0.4;" y1="-29.542" y2="-29.542" x1="17.669" x2="21.586"/>
  <line style="fill:none;stroke:#00AEEF;stroke-width:0.4;" y1="-29.562" y2="-31.979" x1="20.336" x2="20.336"/>
  <line style="fill:none;stroke:#00AEEF;stroke-width:0.4;" y1="-29.562" y2="-30.812" x1="19.003" x2="19.003"/>
  <line style="fill:none;stroke:#00AEEF;stroke-width:0.4;" y1="-35.167" y2="-35.167" x1="23.3" x2="27.217"/>
  <line style="fill:none;stroke:#00AEEF;stroke-width:0.4;" y1="-40.292" y2="-40.292" x1="28.482" x2="32.398"/>
  <line style="fill:none;stroke:#00AEEF;stroke-width:0.4;" y1="-40.312" y2="-42.729" x1="31.148" x2="31.148"/>
  <line style="fill:none;stroke:#00AEEF;stroke-width:0.4;" y1="-40.312" y2="-41.562" x1="29.815" x2="29.815"/>
  <line style="fill:none;stroke:#00AEEF;stroke-width:0.4;" y1="-35.167" y2="-35.167" x1="34.044" x2="37.961"/>
  <line style="fill:none;stroke:#00AEEF;stroke-width:0.4;" y1="-40.292" y2="-40.292" x1="39.169" x2="43.086"/>
  <line style="fill:none;stroke:#00AEEF;stroke-width:0.4;" y1="-40.312" y2="-42.729" x1="41.836" x2="41.836"/>
  <line style="fill:none;stroke:#00AEEF;stroke-width:0.4;" y1="-40.312" y2="-41.562" x1="40.503" x2="40.503"/>
  <line style="fill:none;stroke:#00AEEF;stroke-width:0.4;" y1="-24.417" y2="-24.417" x1="23.3" x2="27.217"/>
  <line style="fill:none;stroke:#00AEEF;stroke-width:0.4;" y1="-35.188" y2="-37.688" x1="25.634" x2="25.634"/>
  <line style="fill:none;stroke:#00AEEF;stroke-width:0.4;" y1="-35.188" y2="-36.604" x1="24.217" x2="24.217"/>
  <line style="fill:none;stroke:#00AEEF;stroke-width:0.4;" y1="-29.542" y2="-29.542" x1="28.482" x2="32.398"/>
  <line style="fill:none;stroke:#00AEEF;stroke-width:0.4;" y1="-29.562" y2="-31.979" x1="31.148" x2="31.148"/>
  <line style="fill:none;stroke:#00AEEF;stroke-width:0.4;" y1="-29.562" y2="-30.812" x1="29.815" x2="29.815"/>
  <line style="fill:none;stroke:#00AEEF;stroke-width:0.4;" y1="-24.417" y2="-24.417" x1="34.044" x2="37.961"/>
  <line style="fill:none;stroke:#00AEEF;stroke-width:0.4;" y1="-35.188" y2="-37.688" x1="36.378" x2="36.378"/>
  <line style="fill:none;stroke:#00AEEF;stroke-width:0.4;" y1="-35.188" y2="-36.604" x1="34.961" x2="34.961"/>
  <line style="fill:none;stroke:#00AEEF;stroke-width:0.4;" y1="-29.542" y2="-29.542" x1="39.169" x2="43.086"/>
  <line style="fill:none;stroke:#00AEEF;stroke-width:0.4;" y1="-29.562" y2="-31.979" x1="41.836" x2="41.836"/>
  <line style="fill:none;stroke:#00AEEF;stroke-width:0.4;" y1="-29.562" y2="-30.812" x1="40.503" x2="40.503"/>
  <line style="fill:none;stroke:#00AEEF;stroke-width:0.4;" y1="-13.68" y2="-13.68" x1="1.8" x2="5.717"/>
  <line style="fill:none;stroke:#00AEEF;stroke-width:0.4;" y1="-24.451" y2="-26.951" x1="4.134" x2="4.134"/>
  <line style="fill:none;stroke:#00AEEF;stroke-width:0.4;" y1="-24.451" y2="-25.867" x1="2.717" x2="2.717"/>
  <line style="fill:none;stroke:#00AEEF;stroke-width:0.4;" y1="-18.805" y2="-18.805" x1="6.982" x2="10.898"/>
  <line style="fill:none;stroke:#00AEEF;stroke-width:0.4;" y1="-18.826" y2="-21.242" x1="9.648" x2="9.648"/>
  <line style="fill:none;stroke:#00AEEF;stroke-width:0.4;" y1="-18.826" y2="-20.076" x1="8.315" x2="8.315"/>
  <line style="fill:none;stroke:#00AEEF;stroke-width:0.4;" y1="-13.68" y2="-13.68" x1="12.544" x2="16.461"/>
  <line style="fill:none;stroke:#00AEEF;stroke-width:0.4;" y1="-24.451" y2="-26.951" x1="14.878" x2="14.878"/>
  <line style="fill:none;stroke:#00AEEF;stroke-width:0.4;" y1="-24.451" y2="-25.867" x1="13.461" x2="13.461"/>
  <line style="fill:none;stroke:#00AEEF;stroke-width:0.4;" y1="-18.805" y2="-18.805" x1="17.669" x2="21.586"/>
  <line style="fill:none;stroke:#00AEEF;stroke-width:0.4;" y1="-18.826" y2="-21.242" x1="20.336" x2="20.336"/>
  <line style="fill:none;stroke:#00AEEF;stroke-width:0.4;" y1="-18.826" y2="-20.076" x1="19.003" x2="19.003"/>
  <line style="fill:none;stroke:#00AEEF;stroke-width:0.4;" y1="-2.93" y2="-2.93" x1="1.8" x2="5.717"/>
  <line style="fill:none;stroke:#00AEEF;stroke-width:0.4;" y1="-13.701" y2="-16.201" x1="4.134" x2="4.134"/>
  <line style="fill:none;stroke:#00AEEF;stroke-width:0.4;" y1="-13.701" y2="-15.117" x1="2.717" x2="2.717"/>
  <line style="fill:none;stroke:#00AEEF;stroke-width:0.4;" y1="-2.951" y2="-5.367" x1="4.467" x2="4.467"/>
  <line style="fill:none;stroke:#00AEEF;stroke-width:0.4;" y1="-2.951" y2="-4.201" x1="3.134" x2="3.134"/>
  <line style="fill:none;stroke:#00AEEF;stroke-width:0.4;" y1="-8.055" y2="-8.055" x1="6.982" x2="10.898"/>
  <line style="fill:none;stroke:#00AEEF;stroke-width:0.4;" y1="-8.076" y2="-10.492" x1="9.648" x2="9.648"/>
  <line style="fill:none;stroke:#00AEEF;stroke-width:0.4;" y1="-8.076" y2="-9.326" x1="8.315" x2="8.315"/>
  <line style="fill:none;stroke:#00AEEF;stroke-width:0.4;" y1="-2.93" y2="-2.93" x1="12.544" x2="16.461"/>
  <line style="fill:none;stroke:#00AEEF;stroke-width:0.4;" y1="-13.701" y2="-16.201" x1="14.878" x2="14.878"/>
  <line style="fill:none;stroke:#00AEEF;stroke-width:0.4;" y1="-13.701" y2="-15.117" x1="13.461" x2="13.461"/>
  <line style="fill:none;stroke:#00AEEF;stroke-width:0.4;" y1="-2.951" y2="-5.367" x1="15.211" x2="15.211"/>
  <line style="fill:none;stroke:#00AEEF;stroke-width:0.4;" y1="-2.951" y2="-4.201" x1="13.878" x2="13.878"/>
  <line style="fill:none;stroke:#00AEEF;stroke-width:0.4;" y1="-8.055" y2="-8.055" x1="17.669" x2="21.586"/>
  <line style="fill:none;stroke:#00AEEF;stroke-width:0.4;" y1="-8.076" y2="-10.492" x1="20.336" x2="20.336"/>
  <line style="fill:none;stroke:#00AEEF;stroke-width:0.4;" y1="-8.076" y2="-9.326" x1="19.003" x2="19.003"/>
  <line style="fill:none;stroke:#00AEEF;stroke-width:0.4;" y1="-13.68" y2="-13.68" x1="23.3" x2="27.217"/>
  <line style="fill:none;stroke:#00AEEF;stroke-width:0.4;" y1="-24.451" y2="-26.951" x1="25.634" x2="25.634"/>
  <line style="fill:none;stroke:#00AEEF;stroke-width:0.4;" y1="-24.451" y2="-25.867" x1="24.217" x2="24.217"/>
  <line style="fill:none;stroke:#00AEEF;stroke-width:0.4;" y1="-18.805" y2="-18.805" x1="28.482" x2="32.398"/>
  <line style="fill:none;stroke:#00AEEF;stroke-width:0.4;" y1="-18.826" y2="-21.242" x1="31.148" x2="31.148"/>
  <line style="fill:none;stroke:#00AEEF;stroke-width:0.4;" y1="-18.826" y2="-20.076" x1="29.815" x2="29.815"/>
  <line style="fill:none;stroke:#00AEEF;stroke-width:0.4;" y1="-13.68" y2="-13.68" x1="34.044" x2="37.961"/>
  <line style="fill:none;stroke:#00AEEF;stroke-width:0.4;" y1="-24.451" y2="-26.951" x1="36.378" x2="36.378"/>
  <line style="fill:none;stroke:#00AEEF;stroke-width:0.4;" y1="-24.451" y2="-25.867" x1="34.961" x2="34.961"/>
  <line style="fill:none;stroke:#00AEEF;stroke-width:0.4;" y1="-18.805" y2="-18.805" x1="39.169" x2="43.086"/>
  <line style="fill:none;stroke:#00AEEF;stroke-width:0.4;" y1="-18.826" y2="-21.242" x1="41.836" x2="41.836"/>
  <line style="fill:none;stroke:#00AEEF;stroke-width:0.4;" y1="-18.826" y2="-20.076" x1="40.503" x2="40.503"/>
  <line style="fill:none;stroke:#00AEEF;stroke-width:0.4;" y1="-2.93" y2="-2.93" x1="23.3" x2="27.217"/>
  <line style="fill:none;stroke:#00AEEF;stroke-width:0.4;" y1="-13.701" y2="-16.201" x1="25.634" x2="25.634"/>
  <line style="fill:none;stroke:#00AEEF;stroke-width:0.4;" y1="-13.701" y2="-15.117" x1="24.217" x2="24.217"/>
  <line style="fill:none;stroke:#00AEEF;stroke-width:0.4;" y1="-2.951" y2="-5.367" x1="25.967" x2="25.967"/>
  <line style="fill:none;stroke:#00AEEF;stroke-width:0.4;" y1="-2.951" y2="-4.201" x1="24.634" x2="24.634"/>
  <line style="fill:none;stroke:#00AEEF;stroke-width:0.4;" y1="-8.055" y2="-8.055" x1="28.482" x2="32.398"/>
  <line style="fill:none;stroke:#00AEEF;stroke-width:0.4;" y1="-8.076" y2="-10.492" x1="31.148" x2="31.148"/>
  <line style="fill:none;stroke:#00AEEF;stroke-width:0.4;" y1="-8.076" y2="-9.326" x1="29.815" x2="29.815"/>
  <line style="fill:none;stroke:#00AEEF;stroke-width:0.4;" y1="-2.93" y2="-2.93" x1="34.044" x2="37.961"/>
  <line style="fill:none;stroke:#00AEEF;stroke-width:0.4;" y1="-13.701" y2="-16.201" x1="36.378" x2="36.378"/>
  <line style="fill:none;stroke:#00AEEF;stroke-width:0.4;" y1="-13.701" y2="-15.117" x1="34.961" x2="34.961"/>
  <line style="fill:none;stroke:#00AEEF;stroke-width:0.4;" y1="-2.951" y2="-5.367" x1="36.711" x2="36.711"/>
  <line style="fill:none;stroke:#00AEEF;stroke-width:0.4;" y1="-2.951" y2="-4.201" x1="35.378" x2="35.378"/>
  <line style="fill:none;stroke:#00AEEF;stroke-width:0.4;" y1="-8.055" y2="-8.055" x1="39.169" x2="43.086"/>
  <line style="fill:none;stroke:#00AEEF;stroke-width:0.4;" y1="-8.076" y2="-10.492" x1="41.836" x2="41.836"/>
  <line style="fill:none;stroke:#00AEEF;stroke-width:0.4;" y1="-8.076" y2="-9.326" x1="40.503" x2="40.503"/>
 </g>
</svg>
