<?xml version="1.0"?>
<!-- Converted with SVG Converter - Version 0.9.5 (Compiled Fri Feb 21 09:53:38 2020) - Copyright (C) 2011 Nokia -->
<svg xmlns="http://www.w3.org/2000/svg" width="54" baseProfile="tiny" version="1.1" xml:space="preserve" viewBox="1.86 -55.86 54 54" xmlns:xlink="http://www.w3.org/1999/xlink" y="0px" height="54" x="0px">
 <g>
  <rect width="54" style="fill:none;" y="-55.86" height="54" x="1.86"/>
  <line y2="-48.673" x2="9.268" style="fill:none;stroke:#000000;stroke-width:0.43;" x1="6.617" y1="-51.493"/>
  <line y2="-51.493" x2="6.617" style="fill:none;stroke:#000000;stroke-width:0.43;" x1="2.513" y1="-55.86"/>
  <line y2="-48.673" x2="9.268" style="fill:none;stroke:#000000;stroke-width:0.43;" x1="11.974" y1="-45.793"/>
  <line y2="-45.793" x2="11.974" style="fill:none;stroke:#000000;stroke-width:0.43;" x1="16.689" y1="-40.776"/>
  <line y2="-48.597" x2="20.918" style="fill:none;stroke:#000000;stroke-width:0.43;" x1="17.534" y1="-52.264"/>
  <line y2="-42.964" x2="26.115" style="fill:none;stroke:#000000;stroke-width:0.43;" x1="23.844" y1="-45.425"/>
  <line y2="-55.86" x2="14.215" style="fill:none;stroke:#000000;stroke-width:0.43;" x1="14.455" y1="-55.601"/>
  <line y2="-52.264" x2="17.534" style="fill:none;stroke:#000000;stroke-width:0.43;" x1="14.455" y1="-55.601"/>
  <line y2="-48.597" x2="20.918" style="fill:none;stroke:#000000;stroke-width:0.43;" x1="23.844" y1="-45.425"/>
  <line y2="-4.868" x2="11.44" style="fill:none;stroke:#000000;stroke-width:0.43;" x1="14.215" y1="-1.86"/>
  <line y2="-4.868" x2="11.44" style="fill:none;stroke:#000000;stroke-width:0.43;" x1="9.564" y1="-6.901"/>
  <line y2="-39.276" x2="44.814" style="fill:none;stroke:#000000;stroke-width:0.43;" x1="37.953" y1="-47.235"/>
  <line y2="-47.235" x2="37.953" style="fill:none;stroke:#000000;stroke-width:0.43;" x1="35.069" y1="-50.581"/>
  <line y2="-52.748" x2="33.2" style="fill:none;stroke:#000000;stroke-width:0.43;" x1="35.069" y1="-50.581"/>
  <line y2="-55.318" x2="30.985" style="fill:none;stroke:#000000;stroke-width:0.43;" x1="30.518" y1="-55.86"/>
  <line y2="-55.318" x2="30.985" style="fill:none;stroke:#000000;stroke-width:0.43;" x1="33.2" y1="-52.748"/>
  <line y2="-50.147" x2="40.205" style="fill:none;stroke:#000000;stroke-width:0.43;" x1="46.698" y1="-42.546"/>
  <line y2="-39.839" x2="49.01" style="fill:none;stroke:#000000;stroke-width:0.43;" x1="46.698" y1="-42.546"/>
  <line y2="-50.147" x2="40.205" style="fill:none;stroke:#000000;stroke-width:0.43;" x1="35.503" y1="-55.652"/>
  <line y2="-55.86" x2="35.325" style="fill:none;stroke:#000000;stroke-width:0.43;" x1="35.503" y1="-55.652"/>
  <line y2="-39.839" x2="49.01" style="fill:none;stroke:#000000;stroke-width:0.43;" x1="49.064" y1="-39.776"/>
  <line y2="-50.091" x2="46.045" style="fill:none;stroke:#000000;stroke-width:0.43;" x1="41.099" y1="-55.86"/>
  <line y2="-48.026" x2="47.814" style="fill:none;stroke:#000000;stroke-width:0.43;" x1="46.045" y1="-50.091"/>
  <line y2="-43.029" x2="52.378" style="fill:none;stroke:#000000;stroke-width:0.43;" x1="50.698" y1="-44.881"/>
  <line y2="-41.526" x2="53.74" style="fill:none;stroke:#000000;stroke-width:0.43;" x1="52.378" y1="-43.029"/>
  <line y2="-54.839" x2="21.053" style="fill:none;stroke:#000000;stroke-width:0.43;" x1="20.339" y1="-55.735"/>
  <line y2="-55.735" x2="20.339" style="fill:none;stroke:#000000;stroke-width:0.43;" x1="20.24" y1="-55.86"/>
  <line y2="-44.764" x2="36.042" style="fill:none;stroke:#000000;stroke-width:0.43;" x1="32.84" y1="-47.997"/>
  <line y2="-48.443" x2="32.397" style="fill:none;stroke:#000000;stroke-width:0.43;" x1="32.84" y1="-47.997"/>
  <line y2="-41.943" x2="38.835" style="fill:none;stroke:#000000;stroke-width:0.43;" x1="36.042" y1="-44.764"/>
  <line y2="-55.067" x2="25.617" style="fill:none;stroke:#000000;stroke-width:0.43;" x1="28.364" y1="-51.687"/>
  <line y2="-55.067" x2="25.617" style="fill:none;stroke:#000000;stroke-width:0.43;" x1="24.972" y1="-55.86"/>
  <line y2="-49.901" x2="29.814" style="fill:none;stroke:#000000;stroke-width:0.43;" x1="28.364" y1="-51.687"/>
  <line y2="-48.68" x2="26.193" style="fill:none;stroke:#000000;stroke-width:0.43;" x1="23.179" y1="-51.71"/>
  <line y2="-52.276" x2="22.615" style="fill:none;stroke:#000000;stroke-width:0.43;" x1="23.179" y1="-51.71"/>
  <line y2="-48.68" x2="26.193" style="fill:none;stroke:#000000;stroke-width:0.43;" x1="30.069" y1="-44.785"/>
  <line y2="-44.785" x2="30.069" style="fill:none;stroke:#000000;stroke-width:0.43;" x1="34.865" y1="-39.964"/>
  <path style="fill:none;stroke:#000000;stroke-width:0.43;" d="M51.011-54.87c-0.26-0.33-0.52-0.661-0.775-0.99"/>
  <path style="fill:none;stroke:#000000;stroke-width:0.43;" d="M51.011-54.87c0.778,0.99,1.558,1.969,2.246,2.84"/>
  <path style="fill:none;stroke:#000000;stroke-width:0.43;" d="M54.814-50.026c-0.399-0.533-0.941-1.225-1.558-2.004"/>
  <line y2="-51.493" x2="6.617" style="fill:none;stroke:#000000;stroke-width:0.43;" x1="9.371" y1="-54.733"/>
  <line y2="-55.401" x2="9.939" style="fill:none;stroke:#000000;stroke-width:0.43;" x1="9.371" y1="-54.733"/>
  <line y2="-50.401" x2="5.689" style="fill:none;stroke:#000000;stroke-width:0.43;" x1="6.617" y1="-51.493"/>
  <line y2="-51.401" x2="11.189" style="fill:none;stroke:#000000;stroke-width:0.43;" x1="11.745" y1="-52.116"/>
  <line y2="-55.601" x2="14.455" style="fill:none;stroke:#000000;stroke-width:0.43;" x1="11.745" y1="-52.116"/>
  <line y2="-55.86" x2="14.657" style="fill:none;stroke:#000000;stroke-width:0.43;" x1="14.455" y1="-55.601"/>
  <line y2="-41.484" x2="8.913" style="fill:none;stroke:#000000;stroke-width:0.43;" x1="8.365" y1="-40.714"/>
  <line y2="-41.484" x2="8.913" style="fill:none;stroke:#000000;stroke-width:0.43;" x1="11.974" y1="-45.793"/>
  <line y2="-45.793" x2="11.974" style="fill:none;stroke:#000000;stroke-width:0.43;" x1="12.939" y1="-47.151"/>
  <line y2="-55.735" x2="20.339" style="fill:none;stroke:#000000;stroke-width:0.43;" x1="17.534" y1="-52.264"/>
  <line y2="-55.735" x2="20.339" style="fill:none;stroke:#000000;stroke-width:0.43;" x1="20.44" y1="-55.86"/>
  <line y2="-52.264" x2="17.534" style="fill:none;stroke:#000000;stroke-width:0.43;" x1="14.314" y1="-48.276"/>
  <line y2="-45.425" x2="23.844" style="fill:none;stroke:#000000;stroke-width:0.43;" x1="22.564" y1="-43.651"/>
  <line y2="-55.86" x2="31.376" style="fill:none;stroke:#000000;stroke-width:0.43;" x1="30.985" y1="-55.318"/>
  <line y2="-48.68" x2="26.193" style="fill:none;stroke:#000000;stroke-width:0.43;" x1="23.844" y1="-45.425"/>
  <line y2="-51.687" x2="28.364" style="fill:none;stroke:#000000;stroke-width:0.43;" x1="30.985" y1="-55.318"/>
  <line y2="-48.68" x2="26.193" style="fill:none;stroke:#000000;stroke-width:0.43;" x1="28.364" y1="-51.687"/>
  <line y2="-52.748" x2="33.2" style="fill:none;stroke:#000000;stroke-width:0.43;" x1="35.503" y1="-55.652"/>
  <line y2="-55.86" x2="35.668" style="fill:none;stroke:#000000;stroke-width:0.43;" x1="35.503" y1="-55.652"/>
  <line y2="-50.526" x2="31.439" style="fill:none;stroke:#000000;stroke-width:0.43;" x1="33.2" y1="-52.748"/>
  <line y2="-50.147" x2="40.205" style="fill:none;stroke:#000000;stroke-width:0.43;" x1="42.335" y1="-52.901"/>
  <line y2="-50.147" x2="40.205" style="fill:none;stroke:#000000;stroke-width:0.43;" x1="37.953" y1="-47.235"/>
  <line y2="-44.764" x2="36.042" style="fill:none;stroke:#000000;stroke-width:0.43;" x1="35.085" y1="-43.526"/>
  <line y2="-44.764" x2="36.042" style="fill:none;stroke:#000000;stroke-width:0.43;" x1="37.953" y1="-47.235"/>
  <line y2="-49.026" x2="44.939" style="fill:none;stroke:#000000;stroke-width:0.43;" x1="46.045" y1="-50.091"/>
  <line y2="-55.401" x2="51.564" style="fill:none;stroke:#000000;stroke-width:0.43;" x1="51.011" y1="-54.87"/>
  <line y2="-50.091" x2="46.045" style="fill:none;stroke:#000000;stroke-width:0.43;" x1="51.011" y1="-54.87"/>
  <line y2="-52.03" x2="53.257" style="fill:none;stroke:#000000;stroke-width:0.43;" x1="49.439" y1="-47.651"/>
  <line y2="-52.526" x2="53.689" style="fill:none;stroke:#000000;stroke-width:0.43;" x1="53.257" y1="-52.03"/>
  <line y2="-42.546" x2="46.698" style="fill:none;stroke:#000000;stroke-width:0.43;" x1="46.522" y1="-42.36"/>
  <line y2="-42.546" x2="46.698" style="fill:none;stroke:#000000;stroke-width:0.43;" x1="49.782" y1="-45.798"/>
  <line y2="-43.029" x2="52.378" style="fill:none;stroke:#000000;stroke-width:0.43;" x1="51.751" y1="-42.339"/>
  <line y2="-43.029" x2="52.378" style="fill:none;stroke:#000000;stroke-width:0.43;" x1="54.303" y1="-45.151"/>
  <line y2="-32.294" x2="51.153" style="fill:none;stroke:#000000;stroke-width:0.43;" x1="53.427" y1="-35.367"/>
  <line y2="-32.294" x2="51.153" style="fill:none;stroke:#000000;stroke-width:0.43;" x1="49.252" y1="-29.726"/>
  <line y2="-29.726" x2="49.252" style="fill:none;stroke:#000000;stroke-width:0.43;" x1="47.918" y1="-27.923"/>
  <line y2="-35.367" x2="53.427" style="fill:none;stroke:#000000;stroke-width:0.43;" x1="55.86" y1="-38.657"/>
  <line y2="-38.661" x2="1.86" style="fill:none;stroke:#000000;stroke-width:0.43;" x1="2.261" y1="-39.203"/>
  <line y2="-48.673" x2="9.268" style="fill:none;stroke:#000000;stroke-width:0.43;" x1="10.038" y1="-49.714"/>
  <line y2="-48.673" x2="9.268" style="fill:none;stroke:#000000;stroke-width:0.43;" x1="6.073" y1="-44.355"/>
  <line y2="-44.355" x2="6.073" style="fill:none;stroke:#000000;stroke-width:0.43;" x1="2.261" y1="-39.203"/>
  <line y2="-20.412" x2="48.678" style="fill:none;stroke:#000000;stroke-width:0.43;" x1="50.545" y1="-23.182"/>
  <line y2="-31.068" x2="55.86" style="fill:none;stroke:#000000;stroke-width:0.43;" x1="50.545" y1="-23.182"/>
  <line y2="-15.917" x2="45.648" style="fill:none;stroke:#000000;stroke-width:0.43;" x1="44.289" y1="-13.901"/>
  <line y2="-15.917" x2="45.648" style="fill:none;stroke:#000000;stroke-width:0.43;" x1="48.678" y1="-20.412"/>
  <line y2="-36.201" x2="5.345" style="fill:none;stroke:#000000;stroke-width:0.43;" x1="1.86" y1="-31.03"/>
  <line y2="-36.201" x2="5.345" style="fill:none;stroke:#000000;stroke-width:0.43;" x1="6.365" y1="-37.714"/>
  <line y2="-40.026" x2="39.189" style="fill:none;stroke:#000000;stroke-width:0.43;" x1="42.191" y1="-36.954"/>
  <line y2="-36.954" x2="42.191" style="fill:none;stroke:#000000;stroke-width:0.43;" x1="44.847" y1="-34.235"/>
  <line y2="-29.726" x2="49.252" style="fill:none;stroke:#000000;stroke-width:0.43;" x1="44.847" y1="-34.235"/>
  <line y2="-29.726" x2="49.252" style="fill:none;stroke:#000000;stroke-width:0.43;" x1="49.814" y1="-29.151"/>
  <line y2="-32.294" x2="51.153" style="fill:none;stroke:#000000;stroke-width:0.43;" x1="46.869" y1="-36.956"/>
  <line y2="-30.839" x2="52.49" style="fill:none;stroke:#000000;stroke-width:0.43;" x1="51.153" y1="-32.294"/>
  <line y2="-37.151" x2="46.689" style="fill:none;stroke:#000000;stroke-width:0.43;" x1="46.869" y1="-36.956"/>
  <line y2="-36.589" x2="52.094" style="fill:none;stroke:#000000;stroke-width:0.43;" x1="53.427" y1="-35.367"/>
  <line y2="-35.367" x2="53.427" style="fill:none;stroke:#000000;stroke-width:0.43;" x1="55.86" y1="-33.136"/>
  <line y2="-31.045" x2="42.478" style="fill:none;stroke:#000000;stroke-width:0.43;" x1="44.847" y1="-34.235"/>
  <line y2="-31.045" x2="42.478" style="fill:none;stroke:#000000;stroke-width:0.43;" x1="40.814" y1="-28.806"/>
  <line y2="-39.839" x2="49.01" style="fill:none;stroke:#000000;stroke-width:0.43;" x1="46.869" y1="-36.956"/>
  <line y2="-28.806" x2="40.814" style="fill:none;stroke:#000000;stroke-width:0.43;" x1="38.564" y1="-25.776"/>
  <line y2="-36.956" x2="46.869" style="fill:none;stroke:#000000;stroke-width:0.43;" x1="44.847" y1="-34.235"/>
  <line y2="-39.839" x2="49.01" style="fill:none;stroke:#000000;stroke-width:0.43;" x1="50.032" y1="-41.214"/>
  <line y2="-31.805" x2="37.63" style="fill:none;stroke:#000000;stroke-width:0.43;" x1="42.191" y1="-36.954"/>
  <line y2="-38.151" x2="43.251" style="fill:none;stroke:#000000;stroke-width:0.43;" x1="42.191" y1="-36.954"/>
  <line y2="-31.805" x2="37.63" style="fill:none;stroke:#000000;stroke-width:0.43;" x1="35.501" y1="-29.401"/>
  <line y2="-38.659" x2="30.352" style="fill:none;stroke:#000000;stroke-width:0.43;" x1="32.49" y1="-40.964"/>
  <line y2="-38.659" x2="30.352" style="fill:none;stroke:#000000;stroke-width:0.43;" x1="26.46" y1="-34.464"/>
  <line y2="-38.45" x2="11.916" style="fill:none;stroke:#000000;stroke-width:0.43;" x1="14.577" y1="-35.761"/>
  <line y2="-34.964" x2="15.365" style="fill:none;stroke:#000000;stroke-width:0.43;" x1="14.577" y1="-35.761"/>
  <line y2="-41.484" x2="8.913" style="fill:none;stroke:#000000;stroke-width:0.43;" x1="11.916" y1="-38.45"/>
  <line y2="-47.901" x2="2.564" style="fill:none;stroke:#000000;stroke-width:0.43;" x1="6.073" y1="-44.355"/>
  <line y2="-41.484" x2="8.913" style="fill:none;stroke:#000000;stroke-width:0.43;" x1="6.073" y1="-44.355"/>
  <line y2="-22.974" x2="11.465" style="fill:none;stroke:#000000;stroke-width:0.43;" x1="14.412" y1="-19.821"/>
  <line y2="-29.325" x2="5.528" style="fill:none;stroke:#000000;stroke-width:0.43;" x1="4.698" y1="-30.214"/>
  <line y2="-29.325" x2="5.528" style="fill:none;stroke:#000000;stroke-width:0.43;" x1="9.463" y1="-25.115"/>
  <line y2="-25.115" x2="9.463" style="fill:none;stroke:#000000;stroke-width:0.43;" x1="11.465" y1="-22.974"/>
  <line y2="-14.212" x2="19.654" style="fill:none;stroke:#000000;stroke-width:0.43;" x1="14.412" y1="-19.821"/>
  <line y2="-11.901" x2="21.814" style="fill:none;stroke:#000000;stroke-width:0.43;" x1="19.654" y1="-14.212"/>
  <line y2="-36.201" x2="5.345" style="fill:none;stroke:#000000;stroke-width:0.43;" x1="8.316" y1="-33.309"/>
  <line y2="-39.593" x2="1.86" style="fill:none;stroke:#000000;stroke-width:0.43;" x1="2.261" y1="-39.203"/>
  <line y2="-36.201" x2="5.345" style="fill:none;stroke:#000000;stroke-width:0.43;" x1="2.261" y1="-39.203"/>
  <line y2="-33.309" x2="8.316" style="fill:none;stroke:#000000;stroke-width:0.43;" x1="11.689" y1="-30.026"/>
  <line y2="-27.068" x2="3.948" style="fill:none;stroke:#000000;stroke-width:0.43;" x1="5.528" y1="-29.325"/>
  <line y2="-29.325" x2="5.528" style="fill:none;stroke:#000000;stroke-width:0.43;" x1="8.316" y1="-33.309"/>
  <line y2="-38.45" x2="11.916" style="fill:none;stroke:#000000;stroke-width:0.43;" x1="8.316" y1="-33.309"/>
  <line y2="-38.45" x2="11.916" style="fill:none;stroke:#000000;stroke-width:0.43;" x1="13.282" y1="-40.401"/>
  <line y2="-43.923" x2="20.24" style="fill:none;stroke:#000000;stroke-width:0.43;" x1="14.577" y1="-35.761"/>
  <line y2="-35.761" x2="14.577" style="fill:none;stroke:#000000;stroke-width:0.43;" x1="11.74" y1="-31.673"/>
  <line y2="-44.785" x2="30.069" style="fill:none;stroke:#000000;stroke-width:0.43;" x1="24.625" y1="-38.476"/>
  <line y2="-50.581" x2="35.069" style="fill:none;stroke:#000000;stroke-width:0.43;" x1="32.84" y1="-47.997"/>
  <line y2="-30.212" x2="17.496" style="fill:none;stroke:#000000;stroke-width:0.43;" x1="21.722" y1="-35.11"/>
  <line y2="-44.785" x2="30.069" style="fill:none;stroke:#000000;stroke-width:0.43;" x1="32.84" y1="-47.997"/>
  <line y2="-25.714" x2="13.615" style="fill:none;stroke:#000000;stroke-width:0.43;" x1="14.864" y1="-27.161"/>
  <line y2="-35.11" x2="21.722" style="fill:none;stroke:#000000;stroke-width:0.43;" x1="24.625" y1="-38.476"/>
  <line y2="-30.212" x2="17.496" style="fill:none;stroke:#000000;stroke-width:0.43;" x1="14.864" y1="-27.161"/>
  <line y2="-51.214" x2="35.615" style="fill:none;stroke:#000000;stroke-width:0.43;" x1="35.069" y1="-50.581"/>
  <line y2="-38.659" x2="30.352" style="fill:none;stroke:#000000;stroke-width:0.43;" x1="33.948" y1="-35.272"/>
  <line y2="-31.805" x2="37.63" style="fill:none;stroke:#000000;stroke-width:0.43;" x1="33.948" y1="-35.272"/>
  <line y2="-31.805" x2="37.63" style="fill:none;stroke:#000000;stroke-width:0.43;" x1="40.814" y1="-28.806"/>
  <line y2="-39.401" x2="29.564" style="fill:none;stroke:#000000;stroke-width:0.43;" x1="30.352" y1="-38.659"/>
  <line y2="-27.276" x2="42.439" style="fill:none;stroke:#000000;stroke-width:0.43;" x1="40.814" y1="-28.806"/>
  <line y2="-30.526" x2="26.314" style="fill:none;stroke:#000000;stroke-width:0.43;" x1="24.399" y1="-32.438"/>
  <line y2="-36.714" x2="20.115" style="fill:none;stroke:#000000;stroke-width:0.43;" x1="21.722" y1="-35.11"/>
  <line y2="-32.438" x2="24.399" style="fill:none;stroke:#000000;stroke-width:0.43;" x1="21.722" y1="-35.11"/>
  <line y2="-32.798" x2="14.803" style="fill:none;stroke:#000000;stroke-width:0.43;" x1="17.496" y1="-30.212"/>
  <line y2="-28.298" x2="19.49" style="fill:none;stroke:#000000;stroke-width:0.43;" x1="17.496" y1="-30.212"/>
  <line y2="-22.672" x2="27.092" style="fill:none;stroke:#000000;stroke-width:0.43;" x1="24.183" y1="-25.446"/>
  <line y2="-25.446" x2="24.183" style="fill:none;stroke:#000000;stroke-width:0.43;" x1="23.115" y1="-26.464"/>
  <line y2="-18.649" x2="31.31" style="fill:none;stroke:#000000;stroke-width:0.43;" x1="27.092" y1="-22.672"/>
  <line y2="-25.446" x2="24.183" style="fill:none;stroke:#000000;stroke-width:0.43;" x1="29.893" y1="-31.192"/>
  <line y2="-31.192" x2="29.893" style="fill:none;stroke:#000000;stroke-width:0.43;" x1="33.948" y1="-35.272"/>
  <line y2="-38.964" x2="37.615" style="fill:none;stroke:#000000;stroke-width:0.43;" x1="33.948" y1="-35.272"/>
  <line y2="-21.318" x2="20.082" style="fill:none;stroke:#000000;stroke-width:0.43;" x1="24.183" y1="-25.446"/>
  <line y2="-19.318" x2="18.094" style="fill:none;stroke:#000000;stroke-width:0.43;" x1="20.082" y1="-21.318"/>
  <line y2="-33.276" x2="25.064" style="fill:none;stroke:#000000;stroke-width:0.43;" x1="24.399" y1="-32.438"/>
  <line y2="-23.98" x2="17.705" style="fill:none;stroke:#000000;stroke-width:0.43;" x1="14.412" y1="-19.821"/>
  <line y2="-23.98" x2="17.705" style="fill:none;stroke:#000000;stroke-width:0.43;" x1="24.399" y1="-32.438"/>
  <line y2="-18.276" x2="13.189" style="fill:none;stroke:#000000;stroke-width:0.43;" x1="14.412" y1="-19.821"/>
  <line y2="-27.161" x2="14.864" style="fill:none;stroke:#000000;stroke-width:0.43;" x1="14.314" y1="-27.776"/>
  <line y2="-21.318" x2="20.082" style="fill:none;stroke:#000000;stroke-width:0.43;" x1="23.015" y1="-18.035"/>
  <line y2="-8.814" x2="31.251" style="fill:none;stroke:#000000;stroke-width:0.43;" x1="23.015" y1="-18.035"/>
  <line y2="-23.98" x2="17.705" style="fill:none;stroke:#000000;stroke-width:0.43;" x1="20.082" y1="-21.318"/>
  <line y2="-23.98" x2="17.705" style="fill:none;stroke:#000000;stroke-width:0.43;" x1="14.864" y1="-27.161"/>
  <line y2="-7.381" x2="32.532" style="fill:none;stroke:#000000;stroke-width:0.43;" x1="31.251" y1="-8.814"/>
  <line y2="-22.672" x2="27.092" style="fill:none;stroke:#000000;stroke-width:0.43;" x1="30.175" y1="-26.179"/>
  <line y2="-4.214" x2="10.865" style="fill:none;stroke:#000000;stroke-width:0.43;" x1="11.44" y1="-4.868"/>
  <line y2="-22.672" x2="27.092" style="fill:none;stroke:#000000;stroke-width:0.43;" x1="23.015" y1="-18.035"/>
  <line y2="-14.212" x2="19.654" style="fill:none;stroke:#000000;stroke-width:0.43;" x1="23.015" y1="-18.035"/>
  <line y2="-26.179" x2="30.175" style="fill:none;stroke:#000000;stroke-width:0.43;" x1="31.689" y1="-27.901"/>
  <line y2="-8.692" x2="14.803" style="fill:none;stroke:#000000;stroke-width:0.43;" x1="11.44" y1="-4.868"/>
  <line y2="-8.692" x2="14.803" style="fill:none;stroke:#000000;stroke-width:0.43;" x1="19.654" y1="-14.212"/>
  <line y2="-24.901" x2="37.314" style="fill:none;stroke:#000000;stroke-width:0.43;" x1="36.934" y1="-24.365"/>
  <line y2="-12.901" x2="28.814" style="fill:none;stroke:#000000;stroke-width:0.43;" x1="34.701" y1="-21.212"/>
  <line y2="-21.212" x2="34.701" style="fill:none;stroke:#000000;stroke-width:0.43;" x1="36.934" y1="-24.365"/>
  <line y2="-18.776" x2="55.064" style="fill:none;stroke:#000000;stroke-width:0.43;" x1="54.647" y1="-19.183"/>
  <line y2="-31.045" x2="42.478" style="fill:none;stroke:#000000;stroke-width:0.43;" x1="50.545" y1="-23.182"/>
  <line y2="-33.276" x2="40.189" style="fill:none;stroke:#000000;stroke-width:0.43;" x1="42.478" y1="-31.045"/>
  <line y2="-19.183" x2="54.647" style="fill:none;stroke:#000000;stroke-width:0.43;" x1="50.545" y1="-23.182"/>
  <line y2="-15.917" x2="45.648" style="fill:none;stroke:#000000;stroke-width:0.43;" x1="43.362" y1="-18.134"/>
  <line y2="-15.464" x2="46.115" style="fill:none;stroke:#000000;stroke-width:0.43;" x1="45.648" y1="-15.917"/>
  <line y2="-18.134" x2="43.362" style="fill:none;stroke:#000000;stroke-width:0.43;" x1="40.226" y1="-21.174"/>
  <line y2="-24.365" x2="36.934" style="fill:none;stroke:#000000;stroke-width:0.43;" x1="40.226" y1="-21.174"/>
  <line y2="-31.192" x2="29.893" style="fill:none;stroke:#000000;stroke-width:0.43;" x1="29.698" y1="-31.381"/>
  <line y2="-24.365" x2="36.934" style="fill:none;stroke:#000000;stroke-width:0.43;" x1="29.893" y1="-31.192"/>
  <line y2="-25.276" x2="43.814" style="fill:none;stroke:#000000;stroke-width:0.43;" x1="46.845" y1="-22.246"/>
  <line y2="-20.412" x2="48.678" style="fill:none;stroke:#000000;stroke-width:0.43;" x1="50.689" y1="-18.401"/>
  <line y2="-22.246" x2="46.845" style="fill:none;stroke:#000000;stroke-width:0.43;" x1="48.678" y1="-20.412"/>
  <line y2="-7.896" x2="25.315" style="fill:none;stroke:#000000;stroke-width:0.43;" x1="22.939" y1="-10.651"/>
  <line y2="-4.577" x2="28.175" style="fill:none;stroke:#000000;stroke-width:0.43;" x1="25.315" y1="-7.896"/>
  <line y2="-4.577" x2="28.175" style="fill:none;stroke:#000000;stroke-width:0.43;" x1="30.518" y1="-1.86"/>
  <line y2="-1.86" x2="35.325" style="fill:none;stroke:#000000;stroke-width:0.43;" x1="34.293" y1="-3.068"/>
  <line y2="-1.86" x2="41.099" style="fill:none;stroke:#000000;stroke-width:0.43;" x1="38.277" y1="-5.152"/>
  <line y2="-5.152" x2="38.277" style="fill:none;stroke:#000000;stroke-width:0.43;" x1="36.564" y1="-7.151"/>
  <line y2="-8.692" x2="14.803" style="fill:none;stroke:#000000;stroke-width:0.43;" x1="11.679" y1="-12.616"/>
  <line y2="-15.901" x2="9.064" style="fill:none;stroke:#000000;stroke-width:0.43;" x1="11.679" y1="-12.616"/>
  <line y2="-8.692" x2="14.803" style="fill:none;stroke:#000000;stroke-width:0.43;" x1="20.241" y1="-1.86"/>
  <line y2="-4.658" x2="22.699" style="fill:none;stroke:#000000;stroke-width:0.43;" x1="21.689" y1="-5.901"/>
  <line y2="-1.86" x2="24.972" style="fill:none;stroke:#000000;stroke-width:0.43;" x1="22.699" y1="-4.658"/>
  <line y2="-14.485" x2="40.339" style="fill:none;stroke:#000000;stroke-width:0.43;" x1="37.693" y1="-17.685"/>
  <path style="fill:none;stroke:#000000;stroke-width:0.43;" d="M46.528-6.998l0.286,0.347c0.528,0.997,1.91,2.849,3.422,4.791"/>
  <line y2="-18.901" x2="36.689" style="fill:none;stroke:#000000;stroke-width:0.43;" x1="37.693" y1="-17.685"/>
  <line y2="-6.998" x2="46.528" style="fill:none;stroke:#000000;stroke-width:0.43;" x1="40.339" y1="-14.485"/>
  <line y2="-1.86" x2="14.657" style="fill:none;stroke:#000000;stroke-width:0.43;" x1="16.439" y1="-4.151"/>
  <line y2="-7.896" x2="25.315" style="fill:none;stroke:#000000;stroke-width:0.43;" x1="27.439" y1="-10.526"/>
  <line y2="-1.86" x2="20.44" style="fill:none;stroke:#000000;stroke-width:0.43;" x1="22.699" y1="-4.658"/>
  <line y2="-4.658" x2="22.699" style="fill:none;stroke:#000000;stroke-width:0.43;" x1="25.315" y1="-7.896"/>
  <line y2="-21.174" x2="40.226" style="fill:none;stroke:#000000;stroke-width:0.43;" x1="37.693" y1="-17.685"/>
  <line y2="-24.464" x2="42.615" style="fill:none;stroke:#000000;stroke-width:0.43;" x1="40.226" y1="-21.174"/>
  <line y2="-8.814" x2="31.251" style="fill:none;stroke:#000000;stroke-width:0.43;" x1="37.693" y1="-17.685"/>
  <line y2="-4.577" x2="28.175" style="fill:none;stroke:#000000;stroke-width:0.43;" x1="31.251" y1="-8.814"/>
  <line y2="-1.86" x2="26.202" style="fill:none;stroke:#000000;stroke-width:0.43;" x1="28.175" y1="-4.577"/>
  <line y2="-1.86" x2="31.376" style="fill:none;stroke:#000000;stroke-width:0.43;" x1="34.564" y1="-6.276"/>
  <line y2="-10.401" x2="42.439" style="fill:none;stroke:#000000;stroke-width:0.43;" x1="38.277" y1="-5.152"/>
  <line y2="-1.86" x2="35.668" style="fill:none;stroke:#000000;stroke-width:0.43;" x1="38.277" y1="-5.152"/>
  <line y2="-8.568" x2="20.085" style="fill:none;stroke:#000000;stroke-width:0.43;" x1="24.698" y1="-13.714"/>
  <path style="fill:none;stroke:#000000;stroke-width:0.43;" d="M47.532-23.048c0,0-0.255,0.297-0.687,0.802"/>
  <path style="fill:none;stroke:#000000;stroke-width:0.43;" d="M43.362-18.134c1.423-1.697,2.725-3.226,3.483-4.112"/>
  <path style="fill:none;stroke:#000000;stroke-width:0.43;" d="M40.339-14.485c-1.456,1.785-2.721,3.392-3.308,4.272"/>
  <path style="fill:none;stroke:#000000;stroke-width:0.43;" d="M43.362-18.134c-0.996,1.188-2.052,2.458-3.022,3.648"/>
  <path style="fill:none;stroke:#000000;stroke-width:0.43;" d="M1.86-20.918c0.347-0.517,0.671-1.001,0.966-1.442"/>
  <path style="fill:none;stroke:#000000;stroke-width:0.43;" d="M4.615-25.026c0,0-0.702,1.045-1.789,2.666"/>
  <line y2="-5.514" x2="5.058" style="fill:none;stroke:#000000;stroke-width:0.43;" x1="8.024" y1="-8.695"/>
  <line y2="-12.616" x2="11.679" style="fill:none;stroke:#000000;stroke-width:0.43;" x1="15.032" y1="-16.214"/>
  <line y2="-5.514" x2="5.058" style="fill:none;stroke:#000000;stroke-width:0.43;" x1="3.439" y1="-3.776"/>
  <line y2="-8.695" x2="8.024" style="fill:none;stroke:#000000;stroke-width:0.43;" x1="11.679" y1="-12.616"/>
  <line y2="-9.856" x2="55.86" style="fill:none;stroke:#000000;stroke-width:0.43;" x1="55.461" y1="-9.307"/>
  <line y2="-3.526" x2="51.259" style="fill:none;stroke:#000000;stroke-width:0.43;" x1="55.461" y1="-9.307"/>
  <line y2="-9.761" x2="1.86" style="fill:none;stroke:#000000;stroke-width:0.43;" x1="4.15" y1="-12.911"/>
  <line y2="-22.974" x2="11.465" style="fill:none;stroke:#000000;stroke-width:0.43;" x1="12.64" y1="-24.589"/>
  <line y2="-12.911" x2="4.15" style="fill:none;stroke:#000000;stroke-width:0.43;" x1="11.465" y1="-22.974"/>
  <line y2="-17.256" x2="48.248" style="fill:none;stroke:#000000;stroke-width:0.43;" x1="51.191" y1="-14.013"/>
  <line y2="-14.013" x2="51.191" style="fill:none;stroke:#000000;stroke-width:0.43;" x1="55.461" y1="-9.307"/>
  <line y2="-8.867" x2="55.86" style="fill:none;stroke:#000000;stroke-width:0.43;" x1="55.461" y1="-9.307"/>
  <line y2="-33.161" x2="1.86" style="fill:none;stroke:#000000;stroke-width:0.43;" x1="2.689" y1="-32.401"/>
  <line y2="-5.514" x2="5.058" style="fill:none;stroke:#000000;stroke-width:0.43;" x1="8.373" y1="-1.86"/>
  <line y2="-5.514" x2="5.058" style="fill:none;stroke:#000000;stroke-width:0.43;" x1="1.86" y1="-9.038"/>
  <line y2="-52.116" x2="11.745" style="fill:none;stroke:#000000;stroke-width:0.43;" x1="12.678" y1="-51.089"/>
  <line y2="-54.733" x2="9.371" style="fill:none;stroke:#000000;stroke-width:0.43;" x1="8.348" y1="-55.86"/>
  <line y2="-54.733" x2="9.371" style="fill:none;stroke:#000000;stroke-width:0.43;" x1="11.745" y1="-52.116"/>
  <line y2="-15.046" x2="1.86" style="fill:none;stroke:#000000;stroke-width:0.43;" x1="9.463" y1="-25.115"/>
  <line y2="-26.776" x2="10.718" style="fill:none;stroke:#000000;stroke-width:0.43;" x1="9.463" y1="-25.115"/>
  <path style="fill:none;stroke:#000000;stroke-width:0.43;" d="M49.042-10.789c-0.942,1.415-1.808,2.721-2.514,3.791"/>
  <path style="fill:none;stroke:#000000;stroke-width:0.43;" d="M49.042-10.789c0.688-1.033,1.415-2.124,2.149-3.224"/>
  <path style="fill:none;stroke:#000000;stroke-width:0.43;" d="M44.765-4.276c0.174-0.299,0.828-1.305,1.763-2.722"/>
  <path style="fill:none;stroke:#000000;stroke-width:0.43;" d="M54.647-19.183c-1.077,1.609-2.275,3.401-3.457,5.17"/>
  <path style="fill:none;stroke:#000000;stroke-width:0.43;" d="M55.86-20.993c-0.38,0.567-0.787,1.175-1.213,1.811"/>
  <line y2="-12.901" x2="54.19" style="fill:none;stroke:#000000;stroke-width:0.43;" x1="55.86" y1="-15.112"/>
  <line y2="-28.714" x2="27.865" style="fill:none;stroke:#000000;stroke-width:0.43;" x1="30.175" y1="-26.179"/>
  <line y2="-20.401" x2="35.439" style="fill:none;stroke:#000000;stroke-width:0.43;" x1="34.701" y1="-21.212"/>
  <line y2="-26.179" x2="30.175" style="fill:none;stroke:#000000;stroke-width:0.43;" x1="34.701" y1="-21.212"/>
  <line y2="-13.089" x2="47.064" style="fill:none;stroke:#000000;stroke-width:0.43;" x1="49.042" y1="-10.789"/>
  <line y2="-10.789" x2="49.042" style="fill:none;stroke:#000000;stroke-width:0.43;" x1="51.74" y1="-7.651"/>
  <line y2="-4.714" x2="42.751" style="fill:none;stroke:#000000;stroke-width:0.43;" x1="45.206" y1="-1.86"/>
  <line y2="-55.86" x2="45.206" style="fill:none;stroke:#000000;stroke-width:0.43;" x1="47.428" y1="-53.276"/>
  <line y2="-23.387" x2="55.86" style="fill:none;stroke:#000000;stroke-width:0.43;" x1="54.002" y1="-25.548"/>
  <line y2="-22.36" x2="2.826" style="fill:none;stroke:#000000;stroke-width:0.43;" x1="4.761" y1="-20.11"/>
  <line y2="-22.36" x2="2.826" style="fill:none;stroke:#000000;stroke-width:0.43;" x1="1.86" y1="-23.483"/>
  <line y2="-41.048" x2="54.361" style="fill:none;stroke:#000000;stroke-width:0.43;" x1="55.86" y1="-39.589"/>
  <line y2="-7.735" x2="8.907" style="fill:none;stroke:#000000;stroke-width:0.43;" x1="8.024" y1="-8.695"/>
  <line y2="-8.695" x2="8.024" style="fill:none;stroke:#000000;stroke-width:0.43;" x1="4.15" y1="-12.911"/>
  <line y2="-14.048" x2="3.106" style="fill:none;stroke:#000000;stroke-width:0.43;" x1="4.15" y1="-12.911"/>
  <line y2="-36.798" x2="26.032" style="fill:none;stroke:#000000;stroke-width:0.43;" x1="24.625" y1="-38.476"/>
  <line y2="-42.464" x2="21.282" style="fill:none;stroke:#000000;stroke-width:0.43;" x1="24.625" y1="-38.476"/>
  <line y2="-5.276" x2="53.303" style="fill:none;stroke:#000000;stroke-width:0.43;" x1="55.86" y1="-2.555"/>
  <line y2="-48.597" x2="20.918" style="fill:none;stroke:#000000;stroke-width:0.43;" x1="17.064" y1="-43.289"/>
  <line y2="-51.71" x2="23.179" style="fill:none;stroke:#000000;stroke-width:0.43;" x1="20.918" y1="-48.597"/>
  <line y2="-55.86" x2="26.192" style="fill:none;stroke:#000000;stroke-width:0.43;" x1="25.617" y1="-55.067"/>
  <line y2="-51.71" x2="23.179" style="fill:none;stroke:#000000;stroke-width:0.43;" x1="25.617" y1="-55.067"/>
 </g>
</svg>
