<?xml version="1.0"?>
<!-- Converted with SVG Converter - Version 0.9.5 (Compiled Fri Feb 21 09:53:38 2020) - Copyright (C) 2011 Nokia -->
<svg xmlns="http://www.w3.org/2000/svg" height="54" width="54" version="1.1" y="0px" viewBox="1.86 -55.86 54 54" xmlns:xlink="http://www.w3.org/1999/xlink" baseProfile="tiny" x="0px" xml:space="preserve">
 <g>
  <rect style="fill:none;" height="54" width="54" y="-55.86" x="1.86"/>
  <line style="fill:none;stroke:#000000;stroke-width:0.43;" y2="-48.673" y1="-51.493" x1="6.617" x2="9.268"/>
  <line style="fill:none;stroke:#000000;stroke-width:0.43;" y2="-51.493" y1="-55.86" x1="2.513" x2="6.617"/>
  <line style="fill:none;stroke:#000000;stroke-width:0.43;" y2="-48.673" y1="-45.793" x1="11.974" x2="9.268"/>
  <line style="fill:none;stroke:#000000;stroke-width:0.43;" y2="-45.793" y1="-40.776" x1="16.689" x2="11.974"/>
  <line style="fill:none;stroke:#000000;stroke-width:0.43;" y2="-48.597" y1="-52.264" x1="17.534" x2="20.918"/>
  <line style="fill:none;stroke:#000000;stroke-width:0.43;" y2="-42.964" y1="-45.425" x1="23.844" x2="26.115"/>
  <line style="fill:none;stroke:#000000;stroke-width:0.43;" y2="-55.86" y1="-55.601" x1="14.455" x2="14.215"/>
  <line style="fill:none;stroke:#000000;stroke-width:0.43;" y2="-52.264" y1="-55.601" x1="14.455" x2="17.534"/>
  <line style="fill:none;stroke:#000000;stroke-width:0.43;" y2="-48.597" y1="-45.425" x1="23.844" x2="20.918"/>
  <line style="fill:none;stroke:#000000;stroke-width:0.43;" y2="-4.868" y1="-1.86" x1="14.215" x2="11.44"/>
  <line style="fill:none;stroke:#000000;stroke-width:0.43;" y2="-4.868" y1="-6.901" x1="9.564" x2="11.44"/>
  <line style="fill:none;stroke:#000000;stroke-width:0.43;" y2="-39.276" y1="-47.235" x1="37.953" x2="44.814"/>
  <line style="fill:none;stroke:#000000;stroke-width:0.43;" y2="-47.235" y1="-50.581" x1="35.069" x2="37.953"/>
  <line style="fill:none;stroke:#000000;stroke-width:0.43;" y2="-52.748" y1="-50.581" x1="35.069" x2="33.2"/>
  <line style="fill:none;stroke:#000000;stroke-width:0.43;" y2="-55.318" y1="-55.86" x1="30.518" x2="30.985"/>
  <line style="fill:none;stroke:#000000;stroke-width:0.43;" y2="-55.318" y1="-52.748" x1="33.2" x2="30.985"/>
  <line style="fill:none;stroke:#000000;stroke-width:0.43;" y2="-50.147" y1="-42.546" x1="46.698" x2="40.205"/>
  <line style="fill:none;stroke:#000000;stroke-width:0.43;" y2="-39.839" y1="-42.546" x1="46.698" x2="49.01"/>
  <line style="fill:none;stroke:#000000;stroke-width:0.43;" y2="-50.147" y1="-55.652" x1="35.503" x2="40.205"/>
  <line style="fill:none;stroke:#000000;stroke-width:0.43;" y2="-55.86" y1="-55.652" x1="35.503" x2="35.325"/>
  <line style="fill:none;stroke:#000000;stroke-width:0.43;" y2="-39.839" y1="-39.776" x1="49.064" x2="49.01"/>
  <line style="fill:none;stroke:#000000;stroke-width:0.43;" y2="-50.091" y1="-55.86" x1="41.099" x2="46.045"/>
  <line style="fill:none;stroke:#000000;stroke-width:0.43;" y2="-48.026" y1="-50.091" x1="46.045" x2="47.814"/>
  <line style="fill:none;stroke:#000000;stroke-width:0.43;" y2="-43.029" y1="-44.881" x1="50.698" x2="52.378"/>
  <line style="fill:none;stroke:#000000;stroke-width:0.43;" y2="-41.526" y1="-43.029" x1="52.378" x2="53.74"/>
  <line style="fill:none;stroke:#000000;stroke-width:0.43;" y2="-54.839" y1="-55.735" x1="20.339" x2="21.053"/>
  <line style="fill:none;stroke:#000000;stroke-width:0.43;" y2="-55.735" y1="-55.86" x1="20.24" x2="20.339"/>
  <line style="fill:none;stroke:#000000;stroke-width:0.43;" y2="-44.764" y1="-47.997" x1="32.84" x2="36.042"/>
  <line style="fill:none;stroke:#000000;stroke-width:0.43;" y2="-48.443" y1="-47.997" x1="32.84" x2="32.397"/>
  <line style="fill:none;stroke:#000000;stroke-width:0.43;" y2="-41.943" y1="-44.764" x1="36.042" x2="38.835"/>
  <line style="fill:none;stroke:#000000;stroke-width:0.43;" y2="-55.067" y1="-51.687" x1="28.364" x2="25.617"/>
  <line style="fill:none;stroke:#000000;stroke-width:0.43;" y2="-55.067" y1="-55.86" x1="24.972" x2="25.617"/>
  <line style="fill:none;stroke:#000000;stroke-width:0.43;" y2="-49.901" y1="-51.687" x1="28.364" x2="29.814"/>
  <line style="fill:none;stroke:#000000;stroke-width:0.43;" y2="-48.68" y1="-51.71" x1="23.179" x2="26.193"/>
  <line style="fill:none;stroke:#000000;stroke-width:0.43;" y2="-52.276" y1="-51.71" x1="23.179" x2="22.615"/>
  <line style="fill:none;stroke:#000000;stroke-width:0.43;" y2="-48.68" y1="-44.785" x1="30.069" x2="26.193"/>
  <line style="fill:none;stroke:#000000;stroke-width:0.43;" y2="-44.785" y1="-39.964" x1="34.865" x2="30.069"/>
  <path style="fill:none;stroke:#000000;stroke-width:0.43;" d="M51.011-54.87c-0.26-0.33-0.52-0.661-0.775-0.99"/>
  <path style="fill:none;stroke:#000000;stroke-width:0.43;" d="M51.011-54.87c0.778,0.99,1.558,1.969,2.246,2.84"/>
  <path style="fill:none;stroke:#000000;stroke-width:0.43;" d="M54.814-50.026c-0.399-0.533-0.941-1.225-1.558-2.004"/>
  <line style="fill:none;stroke:#000000;stroke-width:0.43;" y2="-51.493" y1="-54.733" x1="9.371" x2="6.617"/>
  <line style="fill:none;stroke:#000000;stroke-width:0.43;" y2="-55.401" y1="-54.733" x1="9.371" x2="9.939"/>
  <line style="fill:none;stroke:#000000;stroke-width:0.43;" y2="-50.401" y1="-51.493" x1="6.617" x2="5.689"/>
  <line style="fill:none;stroke:#000000;stroke-width:0.43;" y2="-51.401" y1="-52.116" x1="11.745" x2="11.189"/>
  <line style="fill:none;stroke:#000000;stroke-width:0.43;" y2="-55.601" y1="-52.116" x1="11.745" x2="14.455"/>
  <line style="fill:none;stroke:#000000;stroke-width:0.43;" y2="-55.86" y1="-55.601" x1="14.455" x2="14.657"/>
  <line style="fill:none;stroke:#000000;stroke-width:0.43;" y2="-41.484" y1="-40.714" x1="8.365" x2="8.913"/>
  <line style="fill:none;stroke:#000000;stroke-width:0.43;" y2="-41.484" y1="-45.793" x1="11.974" x2="8.913"/>
  <line style="fill:none;stroke:#000000;stroke-width:0.43;" y2="-45.793" y1="-47.151" x1="12.939" x2="11.974"/>
  <line style="fill:none;stroke:#000000;stroke-width:0.43;" y2="-55.735" y1="-52.264" x1="17.534" x2="20.339"/>
  <line style="fill:none;stroke:#000000;stroke-width:0.43;" y2="-55.735" y1="-55.86" x1="20.44" x2="20.339"/>
  <line style="fill:none;stroke:#000000;stroke-width:0.43;" y2="-52.264" y1="-48.276" x1="14.314" x2="17.534"/>
  <line style="fill:none;stroke:#000000;stroke-width:0.43;" y2="-45.425" y1="-43.651" x1="22.564" x2="23.844"/>
  <line style="fill:none;stroke:#000000;stroke-width:0.43;" y2="-55.86" y1="-55.318" x1="30.985" x2="31.376"/>
  <line style="fill:none;stroke:#000000;stroke-width:0.43;" y2="-48.68" y1="-45.425" x1="23.844" x2="26.193"/>
  <line style="fill:none;stroke:#000000;stroke-width:0.43;" y2="-51.687" y1="-55.318" x1="30.985" x2="28.364"/>
  <line style="fill:none;stroke:#000000;stroke-width:0.43;" y2="-48.68" y1="-51.687" x1="28.364" x2="26.193"/>
  <line style="fill:none;stroke:#000000;stroke-width:0.43;" y2="-52.748" y1="-55.652" x1="35.503" x2="33.2"/>
  <line style="fill:none;stroke:#000000;stroke-width:0.43;" y2="-55.86" y1="-55.652" x1="35.503" x2="35.668"/>
  <line style="fill:none;stroke:#000000;stroke-width:0.43;" y2="-50.526" y1="-52.748" x1="33.2" x2="31.439"/>
  <line style="fill:none;stroke:#000000;stroke-width:0.43;" y2="-50.147" y1="-52.901" x1="42.335" x2="40.205"/>
  <line style="fill:none;stroke:#000000;stroke-width:0.43;" y2="-50.147" y1="-47.235" x1="37.953" x2="40.205"/>
  <line style="fill:none;stroke:#000000;stroke-width:0.43;" y2="-44.764" y1="-43.526" x1="35.085" x2="36.042"/>
  <line style="fill:none;stroke:#000000;stroke-width:0.43;" y2="-44.764" y1="-47.235" x1="37.953" x2="36.042"/>
  <line style="fill:none;stroke:#000000;stroke-width:0.43;" y2="-49.026" y1="-50.091" x1="46.045" x2="44.939"/>
  <line style="fill:none;stroke:#000000;stroke-width:0.43;" y2="-55.401" y1="-54.87" x1="51.011" x2="51.564"/>
  <line style="fill:none;stroke:#000000;stroke-width:0.43;" y2="-50.091" y1="-54.87" x1="51.011" x2="46.045"/>
  <line style="fill:none;stroke:#000000;stroke-width:0.43;" y2="-52.03" y1="-47.651" x1="49.439" x2="53.257"/>
  <line style="fill:none;stroke:#000000;stroke-width:0.43;" y2="-52.526" y1="-52.03" x1="53.257" x2="53.689"/>
  <line style="fill:none;stroke:#000000;stroke-width:0.43;" y2="-42.546" y1="-42.36" x1="46.522" x2="46.698"/>
  <line style="fill:none;stroke:#000000;stroke-width:0.43;" y2="-42.546" y1="-45.798" x1="49.782" x2="46.698"/>
  <line style="fill:none;stroke:#000000;stroke-width:0.43;" y2="-43.029" y1="-42.339" x1="51.751" x2="52.378"/>
  <line style="fill:none;stroke:#000000;stroke-width:0.43;" y2="-43.029" y1="-45.151" x1="54.303" x2="52.378"/>
  <line style="fill:none;stroke:#000000;stroke-width:0.43;" y2="-32.294" y1="-35.367" x1="53.427" x2="51.153"/>
  <line style="fill:none;stroke:#000000;stroke-width:0.43;" y2="-32.294" y1="-29.726" x1="49.252" x2="51.153"/>
  <line style="fill:none;stroke:#000000;stroke-width:0.43;" y2="-29.726" y1="-27.923" x1="47.918" x2="49.252"/>
  <line style="fill:none;stroke:#000000;stroke-width:0.43;" y2="-35.367" y1="-38.657" x1="55.86" x2="53.427"/>
  <line style="fill:none;stroke:#000000;stroke-width:0.43;" y2="-38.661" y1="-39.203" x1="2.261" x2="1.86"/>
  <line style="fill:none;stroke:#000000;stroke-width:0.43;" y2="-48.673" y1="-49.714" x1="10.038" x2="9.268"/>
  <line style="fill:none;stroke:#000000;stroke-width:0.43;" y2="-48.673" y1="-44.355" x1="6.073" x2="9.268"/>
  <line style="fill:none;stroke:#000000;stroke-width:0.43;" y2="-44.355" y1="-39.203" x1="2.261" x2="6.073"/>
  <line style="fill:none;stroke:#000000;stroke-width:0.43;" y2="-20.412" y1="-23.182" x1="50.545" x2="48.678"/>
  <line style="fill:none;stroke:#000000;stroke-width:0.43;" y2="-31.068" y1="-23.182" x1="50.545" x2="55.86"/>
  <line style="fill:none;stroke:#000000;stroke-width:0.43;" y2="-15.917" y1="-13.901" x1="44.289" x2="45.648"/>
  <line style="fill:none;stroke:#000000;stroke-width:0.43;" y2="-15.917" y1="-20.412" x1="48.678" x2="45.648"/>
  <line style="fill:none;stroke:#000000;stroke-width:0.43;" y2="-36.201" y1="-31.03" x1="1.86" x2="5.345"/>
  <line style="fill:none;stroke:#000000;stroke-width:0.43;" y2="-36.201" y1="-37.714" x1="6.365" x2="5.345"/>
  <line style="fill:none;stroke:#000000;stroke-width:0.43;" y2="-40.026" y1="-36.954" x1="42.191" x2="39.189"/>
  <line style="fill:none;stroke:#000000;stroke-width:0.43;" y2="-36.954" y1="-34.235" x1="44.847" x2="42.191"/>
  <line style="fill:none;stroke:#000000;stroke-width:0.43;" y2="-29.726" y1="-34.235" x1="44.847" x2="49.252"/>
  <line style="fill:none;stroke:#000000;stroke-width:0.43;" y2="-29.726" y1="-29.151" x1="49.814" x2="49.252"/>
  <line style="fill:none;stroke:#000000;stroke-width:0.43;" y2="-32.294" y1="-36.956" x1="46.869" x2="51.153"/>
  <line style="fill:none;stroke:#000000;stroke-width:0.43;" y2="-30.839" y1="-32.294" x1="51.153" x2="52.49"/>
  <line style="fill:none;stroke:#000000;stroke-width:0.43;" y2="-37.151" y1="-36.956" x1="46.869" x2="46.689"/>
  <line style="fill:none;stroke:#000000;stroke-width:0.43;" y2="-36.589" y1="-35.367" x1="53.427" x2="52.094"/>
  <line style="fill:none;stroke:#000000;stroke-width:0.43;" y2="-35.367" y1="-33.136" x1="55.86" x2="53.427"/>
  <line style="fill:none;stroke:#000000;stroke-width:0.43;" y2="-31.045" y1="-34.235" x1="44.847" x2="42.478"/>
  <line style="fill:none;stroke:#000000;stroke-width:0.43;" y2="-31.045" y1="-28.806" x1="40.814" x2="42.478"/>
  <line style="fill:none;stroke:#000000;stroke-width:0.43;" y2="-39.839" y1="-36.956" x1="46.869" x2="49.01"/>
  <line style="fill:none;stroke:#000000;stroke-width:0.43;" y2="-28.806" y1="-25.776" x1="38.564" x2="40.814"/>
  <line style="fill:none;stroke:#000000;stroke-width:0.43;" y2="-36.956" y1="-34.235" x1="44.847" x2="46.869"/>
  <line style="fill:none;stroke:#000000;stroke-width:0.43;" y2="-39.839" y1="-41.214" x1="50.032" x2="49.01"/>
  <line style="fill:none;stroke:#000000;stroke-width:0.43;" y2="-31.805" y1="-36.954" x1="42.191" x2="37.63"/>
  <line style="fill:none;stroke:#000000;stroke-width:0.43;" y2="-38.151" y1="-36.954" x1="42.191" x2="43.251"/>
  <line style="fill:none;stroke:#000000;stroke-width:0.43;" y2="-31.805" y1="-29.401" x1="35.501" x2="37.63"/>
  <line style="fill:none;stroke:#000000;stroke-width:0.43;" y2="-38.659" y1="-40.964" x1="32.49" x2="30.352"/>
  <line style="fill:none;stroke:#000000;stroke-width:0.43;" y2="-38.659" y1="-34.464" x1="26.46" x2="30.352"/>
  <line style="fill:none;stroke:#000000;stroke-width:0.43;" y2="-38.45" y1="-35.761" x1="14.577" x2="11.916"/>
  <line style="fill:none;stroke:#000000;stroke-width:0.43;" y2="-34.964" y1="-35.761" x1="14.577" x2="15.365"/>
  <line style="fill:none;stroke:#000000;stroke-width:0.43;" y2="-41.484" y1="-38.45" x1="11.916" x2="8.913"/>
  <line style="fill:none;stroke:#000000;stroke-width:0.43;" y2="-47.901" y1="-44.355" x1="6.073" x2="2.564"/>
  <line style="fill:none;stroke:#000000;stroke-width:0.43;" y2="-41.484" y1="-44.355" x1="6.073" x2="8.913"/>
  <line style="fill:none;stroke:#000000;stroke-width:0.43;" y2="-22.974" y1="-19.821" x1="14.412" x2="11.465"/>
  <line style="fill:none;stroke:#000000;stroke-width:0.43;" y2="-29.325" y1="-30.214" x1="4.698" x2="5.528"/>
  <line style="fill:none;stroke:#000000;stroke-width:0.43;" y2="-29.325" y1="-25.115" x1="9.463" x2="5.528"/>
  <line style="fill:none;stroke:#000000;stroke-width:0.43;" y2="-25.115" y1="-22.974" x1="11.465" x2="9.463"/>
  <line style="fill:none;stroke:#000000;stroke-width:0.43;" y2="-14.212" y1="-19.821" x1="14.412" x2="19.654"/>
  <line style="fill:none;stroke:#000000;stroke-width:0.43;" y2="-11.901" y1="-14.212" x1="19.654" x2="21.814"/>
  <line style="fill:none;stroke:#000000;stroke-width:0.43;" y2="-36.201" y1="-33.309" x1="8.316" x2="5.345"/>
  <line style="fill:none;stroke:#000000;stroke-width:0.43;" y2="-39.593" y1="-39.203" x1="2.261" x2="1.86"/>
  <line style="fill:none;stroke:#000000;stroke-width:0.43;" y2="-36.201" y1="-39.203" x1="2.261" x2="5.345"/>
  <line style="fill:none;stroke:#000000;stroke-width:0.43;" y2="-33.309" y1="-30.026" x1="11.689" x2="8.316"/>
  <line style="fill:none;stroke:#000000;stroke-width:0.43;" y2="-27.068" y1="-29.325" x1="5.528" x2="3.948"/>
  <line style="fill:none;stroke:#000000;stroke-width:0.43;" y2="-29.325" y1="-33.309" x1="8.316" x2="5.528"/>
  <line style="fill:none;stroke:#000000;stroke-width:0.43;" y2="-38.45" y1="-33.309" x1="8.316" x2="11.916"/>
  <line style="fill:none;stroke:#000000;stroke-width:0.43;" y2="-38.45" y1="-40.401" x1="13.282" x2="11.916"/>
  <line style="fill:none;stroke:#000000;stroke-width:0.43;" y2="-43.923" y1="-35.761" x1="14.577" x2="20.24"/>
  <line style="fill:none;stroke:#000000;stroke-width:0.43;" y2="-35.761" y1="-31.673" x1="11.74" x2="14.577"/>
  <line style="fill:none;stroke:#000000;stroke-width:0.43;" y2="-44.785" y1="-38.476" x1="24.625" x2="30.069"/>
  <line style="fill:none;stroke:#000000;stroke-width:0.43;" y2="-50.581" y1="-47.997" x1="32.84" x2="35.069"/>
  <line style="fill:none;stroke:#000000;stroke-width:0.43;" y2="-30.212" y1="-35.11" x1="21.722" x2="17.496"/>
  <line style="fill:none;stroke:#000000;stroke-width:0.43;" y2="-44.785" y1="-47.997" x1="32.84" x2="30.069"/>
  <line style="fill:none;stroke:#000000;stroke-width:0.43;" y2="-25.714" y1="-27.161" x1="14.864" x2="13.615"/>
  <line style="fill:none;stroke:#000000;stroke-width:0.43;" y2="-35.11" y1="-38.476" x1="24.625" x2="21.722"/>
  <line style="fill:none;stroke:#000000;stroke-width:0.43;" y2="-30.212" y1="-27.161" x1="14.864" x2="17.496"/>
  <line style="fill:none;stroke:#000000;stroke-width:0.43;" y2="-51.214" y1="-50.581" x1="35.069" x2="35.615"/>
  <line style="fill:none;stroke:#000000;stroke-width:0.43;" y2="-38.659" y1="-35.272" x1="33.948" x2="30.352"/>
  <line style="fill:none;stroke:#000000;stroke-width:0.43;" y2="-31.805" y1="-35.272" x1="33.948" x2="37.63"/>
  <line style="fill:none;stroke:#000000;stroke-width:0.43;" y2="-31.805" y1="-28.806" x1="40.814" x2="37.63"/>
  <line style="fill:none;stroke:#000000;stroke-width:0.43;" y2="-39.401" y1="-38.659" x1="30.352" x2="29.564"/>
  <line style="fill:none;stroke:#000000;stroke-width:0.43;" y2="-27.276" y1="-28.806" x1="40.814" x2="42.439"/>
  <line style="fill:none;stroke:#000000;stroke-width:0.43;" y2="-30.526" y1="-32.438" x1="24.399" x2="26.314"/>
  <line style="fill:none;stroke:#000000;stroke-width:0.43;" y2="-36.714" y1="-35.11" x1="21.722" x2="20.115"/>
  <line style="fill:none;stroke:#000000;stroke-width:0.43;" y2="-32.438" y1="-35.11" x1="21.722" x2="24.399"/>
  <line style="fill:none;stroke:#000000;stroke-width:0.43;" y2="-32.798" y1="-30.212" x1="17.496" x2="14.803"/>
  <line style="fill:none;stroke:#000000;stroke-width:0.43;" y2="-28.298" y1="-30.212" x1="17.496" x2="19.49"/>
  <line style="fill:none;stroke:#000000;stroke-width:0.43;" y2="-22.672" y1="-25.446" x1="24.183" x2="27.092"/>
  <line style="fill:none;stroke:#000000;stroke-width:0.43;" y2="-25.446" y1="-26.464" x1="23.115" x2="24.183"/>
  <line style="fill:none;stroke:#000000;stroke-width:0.43;" y2="-18.649" y1="-22.672" x1="27.092" x2="31.31"/>
  <line style="fill:none;stroke:#000000;stroke-width:0.43;" y2="-25.446" y1="-31.192" x1="29.893" x2="24.183"/>
  <line style="fill:none;stroke:#000000;stroke-width:0.43;" y2="-31.192" y1="-35.272" x1="33.948" x2="29.893"/>
  <line style="fill:none;stroke:#000000;stroke-width:0.43;" y2="-38.964" y1="-35.272" x1="33.948" x2="37.615"/>
  <line style="fill:none;stroke:#000000;stroke-width:0.43;" y2="-21.318" y1="-25.446" x1="24.183" x2="20.082"/>
  <line style="fill:none;stroke:#000000;stroke-width:0.43;" y2="-19.318" y1="-21.318" x1="20.082" x2="18.094"/>
  <line style="fill:none;stroke:#000000;stroke-width:0.43;" y2="-33.276" y1="-32.438" x1="24.399" x2="25.064"/>
  <line style="fill:none;stroke:#000000;stroke-width:0.43;" y2="-23.98" y1="-19.821" x1="14.412" x2="17.705"/>
  <line style="fill:none;stroke:#000000;stroke-width:0.43;" y2="-23.98" y1="-32.438" x1="24.399" x2="17.705"/>
  <line style="fill:none;stroke:#000000;stroke-width:0.43;" y2="-18.276" y1="-19.821" x1="14.412" x2="13.189"/>
  <line style="fill:none;stroke:#000000;stroke-width:0.43;" y2="-27.161" y1="-27.776" x1="14.314" x2="14.864"/>
  <line style="fill:none;stroke:#000000;stroke-width:0.43;" y2="-21.318" y1="-18.035" x1="23.015" x2="20.082"/>
  <line style="fill:none;stroke:#000000;stroke-width:0.43;" y2="-8.814" y1="-18.035" x1="23.015" x2="31.251"/>
  <line style="fill:none;stroke:#000000;stroke-width:0.43;" y2="-23.98" y1="-21.318" x1="20.082" x2="17.705"/>
  <line style="fill:none;stroke:#000000;stroke-width:0.43;" y2="-23.98" y1="-27.161" x1="14.864" x2="17.705"/>
  <line style="fill:none;stroke:#000000;stroke-width:0.43;" y2="-7.381" y1="-8.814" x1="31.251" x2="32.532"/>
  <line style="fill:none;stroke:#000000;stroke-width:0.43;" y2="-22.672" y1="-26.179" x1="30.175" x2="27.092"/>
  <line style="fill:none;stroke:#000000;stroke-width:0.43;" y2="-4.214" y1="-4.868" x1="11.44" x2="10.865"/>
  <line style="fill:none;stroke:#000000;stroke-width:0.43;" y2="-22.672" y1="-18.035" x1="23.015" x2="27.092"/>
  <line style="fill:none;stroke:#000000;stroke-width:0.43;" y2="-14.212" y1="-18.035" x1="23.015" x2="19.654"/>
  <line style="fill:none;stroke:#000000;stroke-width:0.43;" y2="-26.179" y1="-27.901" x1="31.689" x2="30.175"/>
  <line style="fill:none;stroke:#000000;stroke-width:0.43;" y2="-8.692" y1="-4.868" x1="11.44" x2="14.803"/>
  <line style="fill:none;stroke:#000000;stroke-width:0.43;" y2="-8.692" y1="-14.212" x1="19.654" x2="14.803"/>
  <line style="fill:none;stroke:#000000;stroke-width:0.43;" y2="-24.901" y1="-24.365" x1="36.934" x2="37.314"/>
  <line style="fill:none;stroke:#000000;stroke-width:0.43;" y2="-12.901" y1="-21.212" x1="34.701" x2="28.814"/>
  <line style="fill:none;stroke:#000000;stroke-width:0.43;" y2="-21.212" y1="-24.365" x1="36.934" x2="34.701"/>
  <line style="fill:none;stroke:#000000;stroke-width:0.43;" y2="-18.776" y1="-19.183" x1="54.647" x2="55.064"/>
  <line style="fill:none;stroke:#000000;stroke-width:0.43;" y2="-31.045" y1="-23.182" x1="50.545" x2="42.478"/>
  <line style="fill:none;stroke:#000000;stroke-width:0.43;" y2="-33.276" y1="-31.045" x1="42.478" x2="40.189"/>
  <line style="fill:none;stroke:#000000;stroke-width:0.43;" y2="-19.183" y1="-23.182" x1="50.545" x2="54.647"/>
  <line style="fill:none;stroke:#000000;stroke-width:0.43;" y2="-15.917" y1="-18.134" x1="43.362" x2="45.648"/>
  <line style="fill:none;stroke:#000000;stroke-width:0.43;" y2="-15.464" y1="-15.917" x1="45.648" x2="46.115"/>
  <line style="fill:none;stroke:#000000;stroke-width:0.43;" y2="-18.134" y1="-21.174" x1="40.226" x2="43.362"/>
  <line style="fill:none;stroke:#000000;stroke-width:0.43;" y2="-24.365" y1="-21.174" x1="40.226" x2="36.934"/>
  <line style="fill:none;stroke:#000000;stroke-width:0.43;" y2="-31.192" y1="-31.381" x1="29.698" x2="29.893"/>
  <line style="fill:none;stroke:#000000;stroke-width:0.43;" y2="-24.365" y1="-31.192" x1="29.893" x2="36.934"/>
  <line style="fill:none;stroke:#000000;stroke-width:0.43;" y2="-25.276" y1="-22.246" x1="46.845" x2="43.814"/>
  <line style="fill:none;stroke:#000000;stroke-width:0.43;" y2="-20.412" y1="-18.401" x1="50.689" x2="48.678"/>
  <line style="fill:none;stroke:#000000;stroke-width:0.43;" y2="-22.246" y1="-20.412" x1="48.678" x2="46.845"/>
  <line style="fill:none;stroke:#000000;stroke-width:0.43;" y2="-7.896" y1="-10.651" x1="22.939" x2="25.315"/>
  <line style="fill:none;stroke:#000000;stroke-width:0.43;" y2="-4.577" y1="-7.896" x1="25.315" x2="28.175"/>
  <line style="fill:none;stroke:#000000;stroke-width:0.43;" y2="-4.577" y1="-1.86" x1="30.518" x2="28.175"/>
  <line style="fill:none;stroke:#000000;stroke-width:0.43;" y2="-1.86" y1="-3.068" x1="34.293" x2="35.325"/>
  <line style="fill:none;stroke:#000000;stroke-width:0.43;" y2="-1.86" y1="-5.152" x1="38.277" x2="41.099"/>
  <line style="fill:none;stroke:#000000;stroke-width:0.43;" y2="-5.152" y1="-7.151" x1="36.564" x2="38.277"/>
  <line style="fill:none;stroke:#000000;stroke-width:0.43;" y2="-8.692" y1="-12.616" x1="11.679" x2="14.803"/>
  <line style="fill:none;stroke:#000000;stroke-width:0.43;" y2="-15.901" y1="-12.616" x1="11.679" x2="9.064"/>
  <line style="fill:none;stroke:#000000;stroke-width:0.43;" y2="-8.692" y1="-1.86" x1="20.241" x2="14.803"/>
  <line style="fill:none;stroke:#000000;stroke-width:0.43;" y2="-4.658" y1="-5.901" x1="21.689" x2="22.699"/>
  <line style="fill:none;stroke:#000000;stroke-width:0.43;" y2="-1.86" y1="-4.658" x1="22.699" x2="24.972"/>
  <line style="fill:none;stroke:#000000;stroke-width:0.43;" y2="-14.485" y1="-17.685" x1="37.693" x2="40.339"/>
  <path style="fill:none;stroke:#000000;stroke-width:0.43;" d="M46.528-6.998l0.286,0.347c0.528,0.997,1.91,2.849,3.422,4.791"/>
  <line style="fill:none;stroke:#000000;stroke-width:0.43;" y2="-18.901" y1="-17.685" x1="37.693" x2="36.689"/>
  <line style="fill:none;stroke:#000000;stroke-width:0.43;" y2="-6.998" y1="-14.485" x1="40.339" x2="46.528"/>
  <line style="fill:none;stroke:#000000;stroke-width:0.43;" y2="-1.86" y1="-4.151" x1="16.439" x2="14.657"/>
  <line style="fill:none;stroke:#000000;stroke-width:0.43;" y2="-7.896" y1="-10.526" x1="27.439" x2="25.315"/>
  <line style="fill:none;stroke:#000000;stroke-width:0.43;" y2="-1.86" y1="-4.658" x1="22.699" x2="20.44"/>
  <line style="fill:none;stroke:#000000;stroke-width:0.43;" y2="-4.658" y1="-7.896" x1="25.315" x2="22.699"/>
  <line style="fill:none;stroke:#000000;stroke-width:0.43;" y2="-21.174" y1="-17.685" x1="37.693" x2="40.226"/>
  <line style="fill:none;stroke:#000000;stroke-width:0.43;" y2="-24.464" y1="-21.174" x1="40.226" x2="42.615"/>
  <line style="fill:none;stroke:#000000;stroke-width:0.43;" y2="-8.814" y1="-17.685" x1="37.693" x2="31.251"/>
  <line style="fill:none;stroke:#000000;stroke-width:0.43;" y2="-4.577" y1="-8.814" x1="31.251" x2="28.175"/>
  <line style="fill:none;stroke:#000000;stroke-width:0.43;" y2="-1.86" y1="-4.577" x1="28.175" x2="26.202"/>
  <line style="fill:none;stroke:#000000;stroke-width:0.43;" y2="-1.86" y1="-6.276" x1="34.564" x2="31.376"/>
  <line style="fill:none;stroke:#000000;stroke-width:0.43;" y2="-10.401" y1="-5.152" x1="38.277" x2="42.439"/>
  <line style="fill:none;stroke:#000000;stroke-width:0.43;" y2="-1.86" y1="-5.152" x1="38.277" x2="35.668"/>
  <line style="fill:none;stroke:#000000;stroke-width:0.43;" y2="-8.568" y1="-13.714" x1="24.698" x2="20.085"/>
  <path style="fill:none;stroke:#000000;stroke-width:0.43;" d="M47.532-23.048c0,0-0.255,0.297-0.687,0.802"/>
  <path style="fill:none;stroke:#000000;stroke-width:0.43;" d="M43.362-18.134c1.423-1.697,2.725-3.226,3.483-4.112"/>
  <path style="fill:none;stroke:#000000;stroke-width:0.43;" d="M40.339-14.485c-1.456,1.785-2.721,3.392-3.308,4.272"/>
  <path style="fill:none;stroke:#000000;stroke-width:0.43;" d="M43.362-18.134c-0.996,1.188-2.052,2.458-3.022,3.648"/>
  <path style="fill:none;stroke:#000000;stroke-width:0.43;" d="M1.86-20.918c0.347-0.517,0.671-1.001,0.966-1.442"/>
  <path style="fill:none;stroke:#000000;stroke-width:0.43;" d="M4.615-25.026c0,0-0.702,1.045-1.789,2.666"/>
  <line style="fill:none;stroke:#000000;stroke-width:0.43;" y2="-5.514" y1="-8.695" x1="8.024" x2="5.058"/>
  <line style="fill:none;stroke:#000000;stroke-width:0.43;" y2="-12.616" y1="-16.214" x1="15.032" x2="11.679"/>
  <line style="fill:none;stroke:#000000;stroke-width:0.43;" y2="-5.514" y1="-3.776" x1="3.439" x2="5.058"/>
  <line style="fill:none;stroke:#000000;stroke-width:0.43;" y2="-8.695" y1="-12.616" x1="11.679" x2="8.024"/>
  <line style="fill:none;stroke:#000000;stroke-width:0.43;" y2="-9.856" y1="-9.307" x1="55.461" x2="55.86"/>
  <line style="fill:none;stroke:#000000;stroke-width:0.43;" y2="-3.526" y1="-9.307" x1="55.461" x2="51.259"/>
  <line style="fill:none;stroke:#000000;stroke-width:0.43;" y2="-9.761" y1="-12.911" x1="4.15" x2="1.86"/>
  <line style="fill:none;stroke:#000000;stroke-width:0.43;" y2="-22.974" y1="-24.589" x1="12.64" x2="11.465"/>
  <line style="fill:none;stroke:#000000;stroke-width:0.43;" y2="-12.911" y1="-22.974" x1="11.465" x2="4.15"/>
  <line style="fill:none;stroke:#000000;stroke-width:0.43;" y2="-17.256" y1="-14.013" x1="51.191" x2="48.248"/>
  <line style="fill:none;stroke:#000000;stroke-width:0.43;" y2="-14.013" y1="-9.307" x1="55.461" x2="51.191"/>
  <line style="fill:none;stroke:#000000;stroke-width:0.43;" y2="-8.867" y1="-9.307" x1="55.461" x2="55.86"/>
  <line style="fill:none;stroke:#000000;stroke-width:0.43;" y2="-33.161" y1="-32.401" x1="2.689" x2="1.86"/>
  <line style="fill:none;stroke:#000000;stroke-width:0.43;" y2="-5.514" y1="-1.86" x1="8.373" x2="5.058"/>
  <line style="fill:none;stroke:#000000;stroke-width:0.43;" y2="-5.514" y1="-9.038" x1="1.86" x2="5.058"/>
  <line style="fill:none;stroke:#000000;stroke-width:0.43;" y2="-52.116" y1="-51.089" x1="12.678" x2="11.745"/>
  <line style="fill:none;stroke:#000000;stroke-width:0.43;" y2="-54.733" y1="-55.86" x1="8.348" x2="9.371"/>
  <line style="fill:none;stroke:#000000;stroke-width:0.43;" y2="-54.733" y1="-52.116" x1="11.745" x2="9.371"/>
  <line style="fill:none;stroke:#000000;stroke-width:0.43;" y2="-15.046" y1="-25.115" x1="9.463" x2="1.86"/>
  <line style="fill:none;stroke:#000000;stroke-width:0.43;" y2="-26.776" y1="-25.115" x1="9.463" x2="10.718"/>
  <path style="fill:none;stroke:#000000;stroke-width:0.43;" d="M49.042-10.789c-0.942,1.415-1.808,2.721-2.514,3.791"/>
  <path style="fill:none;stroke:#000000;stroke-width:0.43;" d="M49.042-10.789c0.688-1.033,1.415-2.124,2.149-3.224"/>
  <path style="fill:none;stroke:#000000;stroke-width:0.43;" d="M44.765-4.276c0.174-0.299,0.828-1.305,1.763-2.722"/>
  <path style="fill:none;stroke:#000000;stroke-width:0.43;" d="M54.647-19.183c-1.077,1.609-2.275,3.401-3.457,5.17"/>
  <path style="fill:none;stroke:#000000;stroke-width:0.43;" d="M55.86-20.993c-0.38,0.567-0.787,1.175-1.213,1.811"/>
  <line style="fill:none;stroke:#000000;stroke-width:0.43;" y2="-12.901" y1="-15.112" x1="55.86" x2="54.19"/>
  <line style="fill:none;stroke:#000000;stroke-width:0.43;" y2="-28.714" y1="-26.179" x1="30.175" x2="27.865"/>
  <line style="fill:none;stroke:#000000;stroke-width:0.43;" y2="-20.401" y1="-21.212" x1="34.701" x2="35.439"/>
  <line style="fill:none;stroke:#000000;stroke-width:0.43;" y2="-26.179" y1="-21.212" x1="34.701" x2="30.175"/>
  <line style="fill:none;stroke:#000000;stroke-width:0.43;" y2="-13.089" y1="-10.789" x1="49.042" x2="47.064"/>
  <line style="fill:none;stroke:#000000;stroke-width:0.43;" y2="-10.789" y1="-7.651" x1="51.74" x2="49.042"/>
  <line style="fill:none;stroke:#000000;stroke-width:0.43;" y2="-4.714" y1="-1.86" x1="45.206" x2="42.751"/>
  <line style="fill:none;stroke:#000000;stroke-width:0.43;" y2="-55.86" y1="-53.276" x1="47.428" x2="45.206"/>
  <line style="fill:none;stroke:#000000;stroke-width:0.43;" y2="-23.387" y1="-25.548" x1="54.002" x2="55.86"/>
  <line style="fill:none;stroke:#000000;stroke-width:0.43;" y2="-22.36" y1="-20.11" x1="4.761" x2="2.826"/>
  <line style="fill:none;stroke:#000000;stroke-width:0.43;" y2="-22.36" y1="-23.483" x1="1.86" x2="2.826"/>
  <line style="fill:none;stroke:#000000;stroke-width:0.43;" y2="-41.048" y1="-39.589" x1="55.86" x2="54.361"/>
  <line style="fill:none;stroke:#000000;stroke-width:0.43;" y2="-7.735" y1="-8.695" x1="8.024" x2="8.907"/>
  <line style="fill:none;stroke:#000000;stroke-width:0.43;" y2="-8.695" y1="-12.911" x1="4.15" x2="8.024"/>
  <line style="fill:none;stroke:#000000;stroke-width:0.43;" y2="-14.048" y1="-12.911" x1="4.15" x2="3.106"/>
  <line style="fill:none;stroke:#000000;stroke-width:0.43;" y2="-36.798" y1="-38.476" x1="24.625" x2="26.032"/>
  <line style="fill:none;stroke:#000000;stroke-width:0.43;" y2="-42.464" y1="-38.476" x1="24.625" x2="21.282"/>
  <line style="fill:none;stroke:#000000;stroke-width:0.43;" y2="-5.276" y1="-2.555" x1="55.86" x2="53.303"/>
  <line style="fill:none;stroke:#000000;stroke-width:0.43;" y2="-48.597" y1="-43.289" x1="17.064" x2="20.918"/>
  <line style="fill:none;stroke:#000000;stroke-width:0.43;" y2="-51.71" y1="-48.597" x1="20.918" x2="23.179"/>
  <line style="fill:none;stroke:#000000;stroke-width:0.43;" y2="-55.86" y1="-55.067" x1="25.617" x2="26.192"/>
  <line style="fill:none;stroke:#000000;stroke-width:0.43;" y2="-51.71" y1="-55.067" x1="25.617" x2="23.179"/>
 </g>
</svg>
