<?xml version="1.0"?>
<!-- Converted with SVG Converter - Version 0.9.5 (Compiled Fri Feb 21 09:53:38 2020) - Copyright (C) 2011 Nokia -->
<svg xmlns="http://www.w3.org/2000/svg" width="54" version="1.1" x="0px" xml:space="preserve" y="0px" baseProfile="tiny" xmlns:xlink="http://www.w3.org/1999/xlink" viewBox="1.86 -55.86 54 54" height="54">
 <g>
  <rect width="54" x="1.86" y="-55.86" style="fill:none;" height="54"/>
  <line x2="9.268" x1="6.617" y1="-51.493" style="fill:none;stroke:#000000;stroke-width:0.43;" y2="-48.673"/>
  <line x2="6.617" x1="2.513" y1="-55.86" style="fill:none;stroke:#000000;stroke-width:0.43;" y2="-51.493"/>
  <line x2="9.268" x1="11.974" y1="-45.793" style="fill:none;stroke:#000000;stroke-width:0.43;" y2="-48.673"/>
  <line x2="11.974" x1="16.689" y1="-40.776" style="fill:none;stroke:#000000;stroke-width:0.43;" y2="-45.793"/>
  <line x2="20.918" x1="17.534" y1="-52.264" style="fill:none;stroke:#000000;stroke-width:0.43;" y2="-48.597"/>
  <line x2="26.115" x1="23.844" y1="-45.425" style="fill:none;stroke:#000000;stroke-width:0.43;" y2="-42.964"/>
  <line x2="14.215" x1="14.455" y1="-55.601" style="fill:none;stroke:#000000;stroke-width:0.43;" y2="-55.86"/>
  <line x2="17.534" x1="14.455" y1="-55.601" style="fill:none;stroke:#000000;stroke-width:0.43;" y2="-52.264"/>
  <line x2="20.918" x1="23.844" y1="-45.425" style="fill:none;stroke:#000000;stroke-width:0.43;" y2="-48.597"/>
  <line x2="11.44" x1="14.215" y1="-1.86" style="fill:none;stroke:#000000;stroke-width:0.43;" y2="-4.868"/>
  <line x2="11.44" x1="9.564" y1="-6.901" style="fill:none;stroke:#000000;stroke-width:0.43;" y2="-4.868"/>
  <line x2="44.814" x1="37.953" y1="-47.235" style="fill:none;stroke:#000000;stroke-width:0.43;" y2="-39.276"/>
  <line x2="37.953" x1="35.069" y1="-50.581" style="fill:none;stroke:#000000;stroke-width:0.43;" y2="-47.235"/>
  <line x2="33.2" x1="35.069" y1="-50.581" style="fill:none;stroke:#000000;stroke-width:0.43;" y2="-52.748"/>
  <line x2="30.985" x1="30.518" y1="-55.86" style="fill:none;stroke:#000000;stroke-width:0.43;" y2="-55.318"/>
  <line x2="30.985" x1="33.2" y1="-52.748" style="fill:none;stroke:#000000;stroke-width:0.43;" y2="-55.318"/>
  <line x2="40.205" x1="46.698" y1="-42.546" style="fill:none;stroke:#000000;stroke-width:0.43;" y2="-50.147"/>
  <line x2="49.01" x1="46.698" y1="-42.546" style="fill:none;stroke:#000000;stroke-width:0.43;" y2="-39.839"/>
  <line x2="40.205" x1="35.503" y1="-55.652" style="fill:none;stroke:#000000;stroke-width:0.43;" y2="-50.147"/>
  <line x2="35.325" x1="35.503" y1="-55.652" style="fill:none;stroke:#000000;stroke-width:0.43;" y2="-55.86"/>
  <line x2="49.01" x1="49.064" y1="-39.776" style="fill:none;stroke:#000000;stroke-width:0.43;" y2="-39.839"/>
  <line x2="46.045" x1="41.099" y1="-55.86" style="fill:none;stroke:#000000;stroke-width:0.43;" y2="-50.091"/>
  <line x2="47.814" x1="46.045" y1="-50.091" style="fill:none;stroke:#000000;stroke-width:0.43;" y2="-48.026"/>
  <line x2="52.378" x1="50.698" y1="-44.881" style="fill:none;stroke:#000000;stroke-width:0.43;" y2="-43.029"/>
  <line x2="53.74" x1="52.378" y1="-43.029" style="fill:none;stroke:#000000;stroke-width:0.43;" y2="-41.526"/>
  <line x2="21.053" x1="20.339" y1="-55.735" style="fill:none;stroke:#000000;stroke-width:0.43;" y2="-54.839"/>
  <line x2="20.339" x1="20.24" y1="-55.86" style="fill:none;stroke:#000000;stroke-width:0.43;" y2="-55.735"/>
  <line x2="36.042" x1="32.84" y1="-47.997" style="fill:none;stroke:#000000;stroke-width:0.43;" y2="-44.764"/>
  <line x2="32.397" x1="32.84" y1="-47.997" style="fill:none;stroke:#000000;stroke-width:0.43;" y2="-48.443"/>
  <line x2="38.835" x1="36.042" y1="-44.764" style="fill:none;stroke:#000000;stroke-width:0.43;" y2="-41.943"/>
  <line x2="25.617" x1="28.364" y1="-51.687" style="fill:none;stroke:#000000;stroke-width:0.43;" y2="-55.067"/>
  <line x2="25.617" x1="24.972" y1="-55.86" style="fill:none;stroke:#000000;stroke-width:0.43;" y2="-55.067"/>
  <line x2="29.814" x1="28.364" y1="-51.687" style="fill:none;stroke:#000000;stroke-width:0.43;" y2="-49.901"/>
  <line x2="26.193" x1="23.179" y1="-51.71" style="fill:none;stroke:#000000;stroke-width:0.43;" y2="-48.68"/>
  <line x2="22.615" x1="23.179" y1="-51.71" style="fill:none;stroke:#000000;stroke-width:0.43;" y2="-52.276"/>
  <line x2="26.193" x1="30.069" y1="-44.785" style="fill:none;stroke:#000000;stroke-width:0.43;" y2="-48.68"/>
  <line x2="30.069" x1="34.865" y1="-39.964" style="fill:none;stroke:#000000;stroke-width:0.43;" y2="-44.785"/>
  <path d="M51.011-54.87c-0.26-0.33-0.52-0.661-0.775-0.99" style="fill:none;stroke:#000000;stroke-width:0.43;"/>
  <path d="M51.011-54.87c0.778,0.99,1.558,1.969,2.246,2.84" style="fill:none;stroke:#000000;stroke-width:0.43;"/>
  <path d="M54.814-50.026c-0.399-0.533-0.941-1.225-1.558-2.004" style="fill:none;stroke:#000000;stroke-width:0.43;"/>
  <line x2="6.617" x1="9.371" y1="-54.733" style="fill:none;stroke:#000000;stroke-width:0.43;" y2="-51.493"/>
  <line x2="9.939" x1="9.371" y1="-54.733" style="fill:none;stroke:#000000;stroke-width:0.43;" y2="-55.401"/>
  <line x2="5.689" x1="6.617" y1="-51.493" style="fill:none;stroke:#000000;stroke-width:0.43;" y2="-50.401"/>
  <line x2="11.189" x1="11.745" y1="-52.116" style="fill:none;stroke:#000000;stroke-width:0.43;" y2="-51.401"/>
  <line x2="14.455" x1="11.745" y1="-52.116" style="fill:none;stroke:#000000;stroke-width:0.43;" y2="-55.601"/>
  <line x2="14.657" x1="14.455" y1="-55.601" style="fill:none;stroke:#000000;stroke-width:0.43;" y2="-55.86"/>
  <line x2="8.913" x1="8.365" y1="-40.714" style="fill:none;stroke:#000000;stroke-width:0.43;" y2="-41.484"/>
  <line x2="8.913" x1="11.974" y1="-45.793" style="fill:none;stroke:#000000;stroke-width:0.43;" y2="-41.484"/>
  <line x2="11.974" x1="12.939" y1="-47.151" style="fill:none;stroke:#000000;stroke-width:0.43;" y2="-45.793"/>
  <line x2="20.339" x1="17.534" y1="-52.264" style="fill:none;stroke:#000000;stroke-width:0.43;" y2="-55.735"/>
  <line x2="20.339" x1="20.44" y1="-55.86" style="fill:none;stroke:#000000;stroke-width:0.43;" y2="-55.735"/>
  <line x2="17.534" x1="14.314" y1="-48.276" style="fill:none;stroke:#000000;stroke-width:0.43;" y2="-52.264"/>
  <line x2="23.844" x1="22.564" y1="-43.651" style="fill:none;stroke:#000000;stroke-width:0.43;" y2="-45.425"/>
  <line x2="31.376" x1="30.985" y1="-55.318" style="fill:none;stroke:#000000;stroke-width:0.43;" y2="-55.86"/>
  <line x2="26.193" x1="23.844" y1="-45.425" style="fill:none;stroke:#000000;stroke-width:0.43;" y2="-48.68"/>
  <line x2="28.364" x1="30.985" y1="-55.318" style="fill:none;stroke:#000000;stroke-width:0.43;" y2="-51.687"/>
  <line x2="26.193" x1="28.364" y1="-51.687" style="fill:none;stroke:#000000;stroke-width:0.43;" y2="-48.68"/>
  <line x2="33.2" x1="35.503" y1="-55.652" style="fill:none;stroke:#000000;stroke-width:0.43;" y2="-52.748"/>
  <line x2="35.668" x1="35.503" y1="-55.652" style="fill:none;stroke:#000000;stroke-width:0.43;" y2="-55.86"/>
  <line x2="31.439" x1="33.2" y1="-52.748" style="fill:none;stroke:#000000;stroke-width:0.43;" y2="-50.526"/>
  <line x2="40.205" x1="42.335" y1="-52.901" style="fill:none;stroke:#000000;stroke-width:0.43;" y2="-50.147"/>
  <line x2="40.205" x1="37.953" y1="-47.235" style="fill:none;stroke:#000000;stroke-width:0.43;" y2="-50.147"/>
  <line x2="36.042" x1="35.085" y1="-43.526" style="fill:none;stroke:#000000;stroke-width:0.43;" y2="-44.764"/>
  <line x2="36.042" x1="37.953" y1="-47.235" style="fill:none;stroke:#000000;stroke-width:0.43;" y2="-44.764"/>
  <line x2="44.939" x1="46.045" y1="-50.091" style="fill:none;stroke:#000000;stroke-width:0.43;" y2="-49.026"/>
  <line x2="51.564" x1="51.011" y1="-54.87" style="fill:none;stroke:#000000;stroke-width:0.43;" y2="-55.401"/>
  <line x2="46.045" x1="51.011" y1="-54.87" style="fill:none;stroke:#000000;stroke-width:0.43;" y2="-50.091"/>
  <line x2="53.257" x1="49.439" y1="-47.651" style="fill:none;stroke:#000000;stroke-width:0.43;" y2="-52.03"/>
  <line x2="53.689" x1="53.257" y1="-52.03" style="fill:none;stroke:#000000;stroke-width:0.43;" y2="-52.526"/>
  <line x2="46.698" x1="46.522" y1="-42.36" style="fill:none;stroke:#000000;stroke-width:0.43;" y2="-42.546"/>
  <line x2="46.698" x1="49.782" y1="-45.798" style="fill:none;stroke:#000000;stroke-width:0.43;" y2="-42.546"/>
  <line x2="52.378" x1="51.751" y1="-42.339" style="fill:none;stroke:#000000;stroke-width:0.43;" y2="-43.029"/>
  <line x2="52.378" x1="54.303" y1="-45.151" style="fill:none;stroke:#000000;stroke-width:0.43;" y2="-43.029"/>
  <line x2="51.153" x1="53.427" y1="-35.367" style="fill:none;stroke:#000000;stroke-width:0.43;" y2="-32.294"/>
  <line x2="51.153" x1="49.252" y1="-29.726" style="fill:none;stroke:#000000;stroke-width:0.43;" y2="-32.294"/>
  <line x2="49.252" x1="47.918" y1="-27.923" style="fill:none;stroke:#000000;stroke-width:0.43;" y2="-29.726"/>
  <line x2="53.427" x1="55.86" y1="-38.657" style="fill:none;stroke:#000000;stroke-width:0.43;" y2="-35.367"/>
  <line x2="1.86" x1="2.261" y1="-39.203" style="fill:none;stroke:#000000;stroke-width:0.43;" y2="-38.661"/>
  <line x2="9.268" x1="10.038" y1="-49.714" style="fill:none;stroke:#000000;stroke-width:0.43;" y2="-48.673"/>
  <line x2="9.268" x1="6.073" y1="-44.355" style="fill:none;stroke:#000000;stroke-width:0.43;" y2="-48.673"/>
  <line x2="6.073" x1="2.261" y1="-39.203" style="fill:none;stroke:#000000;stroke-width:0.43;" y2="-44.355"/>
  <line x2="48.678" x1="50.545" y1="-23.182" style="fill:none;stroke:#000000;stroke-width:0.43;" y2="-20.412"/>
  <line x2="55.86" x1="50.545" y1="-23.182" style="fill:none;stroke:#000000;stroke-width:0.43;" y2="-31.068"/>
  <line x2="45.648" x1="44.289" y1="-13.901" style="fill:none;stroke:#000000;stroke-width:0.43;" y2="-15.917"/>
  <line x2="45.648" x1="48.678" y1="-20.412" style="fill:none;stroke:#000000;stroke-width:0.43;" y2="-15.917"/>
  <line x2="5.345" x1="1.86" y1="-31.03" style="fill:none;stroke:#000000;stroke-width:0.43;" y2="-36.201"/>
  <line x2="5.345" x1="6.365" y1="-37.714" style="fill:none;stroke:#000000;stroke-width:0.43;" y2="-36.201"/>
  <line x2="39.189" x1="42.191" y1="-36.954" style="fill:none;stroke:#000000;stroke-width:0.43;" y2="-40.026"/>
  <line x2="42.191" x1="44.847" y1="-34.235" style="fill:none;stroke:#000000;stroke-width:0.43;" y2="-36.954"/>
  <line x2="49.252" x1="44.847" y1="-34.235" style="fill:none;stroke:#000000;stroke-width:0.43;" y2="-29.726"/>
  <line x2="49.252" x1="49.814" y1="-29.151" style="fill:none;stroke:#000000;stroke-width:0.43;" y2="-29.726"/>
  <line x2="51.153" x1="46.869" y1="-36.956" style="fill:none;stroke:#000000;stroke-width:0.43;" y2="-32.294"/>
  <line x2="52.49" x1="51.153" y1="-32.294" style="fill:none;stroke:#000000;stroke-width:0.43;" y2="-30.839"/>
  <line x2="46.689" x1="46.869" y1="-36.956" style="fill:none;stroke:#000000;stroke-width:0.43;" y2="-37.151"/>
  <line x2="52.094" x1="53.427" y1="-35.367" style="fill:none;stroke:#000000;stroke-width:0.43;" y2="-36.589"/>
  <line x2="53.427" x1="55.86" y1="-33.136" style="fill:none;stroke:#000000;stroke-width:0.43;" y2="-35.367"/>
  <line x2="42.478" x1="44.847" y1="-34.235" style="fill:none;stroke:#000000;stroke-width:0.43;" y2="-31.045"/>
  <line x2="42.478" x1="40.814" y1="-28.806" style="fill:none;stroke:#000000;stroke-width:0.43;" y2="-31.045"/>
  <line x2="49.01" x1="46.869" y1="-36.956" style="fill:none;stroke:#000000;stroke-width:0.43;" y2="-39.839"/>
  <line x2="40.814" x1="38.564" y1="-25.776" style="fill:none;stroke:#000000;stroke-width:0.43;" y2="-28.806"/>
  <line x2="46.869" x1="44.847" y1="-34.235" style="fill:none;stroke:#000000;stroke-width:0.43;" y2="-36.956"/>
  <line x2="49.01" x1="50.032" y1="-41.214" style="fill:none;stroke:#000000;stroke-width:0.43;" y2="-39.839"/>
  <line x2="37.63" x1="42.191" y1="-36.954" style="fill:none;stroke:#000000;stroke-width:0.43;" y2="-31.805"/>
  <line x2="43.251" x1="42.191" y1="-36.954" style="fill:none;stroke:#000000;stroke-width:0.43;" y2="-38.151"/>
  <line x2="37.63" x1="35.501" y1="-29.401" style="fill:none;stroke:#000000;stroke-width:0.43;" y2="-31.805"/>
  <line x2="30.352" x1="32.49" y1="-40.964" style="fill:none;stroke:#000000;stroke-width:0.43;" y2="-38.659"/>
  <line x2="30.352" x1="26.46" y1="-34.464" style="fill:none;stroke:#000000;stroke-width:0.43;" y2="-38.659"/>
  <line x2="11.916" x1="14.577" y1="-35.761" style="fill:none;stroke:#000000;stroke-width:0.43;" y2="-38.45"/>
  <line x2="15.365" x1="14.577" y1="-35.761" style="fill:none;stroke:#000000;stroke-width:0.43;" y2="-34.964"/>
  <line x2="8.913" x1="11.916" y1="-38.45" style="fill:none;stroke:#000000;stroke-width:0.43;" y2="-41.484"/>
  <line x2="2.564" x1="6.073" y1="-44.355" style="fill:none;stroke:#000000;stroke-width:0.43;" y2="-47.901"/>
  <line x2="8.913" x1="6.073" y1="-44.355" style="fill:none;stroke:#000000;stroke-width:0.43;" y2="-41.484"/>
  <line x2="11.465" x1="14.412" y1="-19.821" style="fill:none;stroke:#000000;stroke-width:0.43;" y2="-22.974"/>
  <line x2="5.528" x1="4.698" y1="-30.214" style="fill:none;stroke:#000000;stroke-width:0.43;" y2="-29.325"/>
  <line x2="5.528" x1="9.463" y1="-25.115" style="fill:none;stroke:#000000;stroke-width:0.43;" y2="-29.325"/>
  <line x2="9.463" x1="11.465" y1="-22.974" style="fill:none;stroke:#000000;stroke-width:0.43;" y2="-25.115"/>
  <line x2="19.654" x1="14.412" y1="-19.821" style="fill:none;stroke:#000000;stroke-width:0.43;" y2="-14.212"/>
  <line x2="21.814" x1="19.654" y1="-14.212" style="fill:none;stroke:#000000;stroke-width:0.43;" y2="-11.901"/>
  <line x2="5.345" x1="8.316" y1="-33.309" style="fill:none;stroke:#000000;stroke-width:0.43;" y2="-36.201"/>
  <line x2="1.86" x1="2.261" y1="-39.203" style="fill:none;stroke:#000000;stroke-width:0.43;" y2="-39.593"/>
  <line x2="5.345" x1="2.261" y1="-39.203" style="fill:none;stroke:#000000;stroke-width:0.43;" y2="-36.201"/>
  <line x2="8.316" x1="11.689" y1="-30.026" style="fill:none;stroke:#000000;stroke-width:0.43;" y2="-33.309"/>
  <line x2="3.948" x1="5.528" y1="-29.325" style="fill:none;stroke:#000000;stroke-width:0.43;" y2="-27.068"/>
  <line x2="5.528" x1="8.316" y1="-33.309" style="fill:none;stroke:#000000;stroke-width:0.43;" y2="-29.325"/>
  <line x2="11.916" x1="8.316" y1="-33.309" style="fill:none;stroke:#000000;stroke-width:0.43;" y2="-38.45"/>
  <line x2="11.916" x1="13.282" y1="-40.401" style="fill:none;stroke:#000000;stroke-width:0.43;" y2="-38.45"/>
  <line x2="20.24" x1="14.577" y1="-35.761" style="fill:none;stroke:#000000;stroke-width:0.43;" y2="-43.923"/>
  <line x2="14.577" x1="11.74" y1="-31.673" style="fill:none;stroke:#000000;stroke-width:0.43;" y2="-35.761"/>
  <line x2="30.069" x1="24.625" y1="-38.476" style="fill:none;stroke:#000000;stroke-width:0.43;" y2="-44.785"/>
  <line x2="35.069" x1="32.84" y1="-47.997" style="fill:none;stroke:#000000;stroke-width:0.43;" y2="-50.581"/>
  <line x2="17.496" x1="21.722" y1="-35.11" style="fill:none;stroke:#000000;stroke-width:0.43;" y2="-30.212"/>
  <line x2="30.069" x1="32.84" y1="-47.997" style="fill:none;stroke:#000000;stroke-width:0.43;" y2="-44.785"/>
  <line x2="13.615" x1="14.864" y1="-27.161" style="fill:none;stroke:#000000;stroke-width:0.43;" y2="-25.714"/>
  <line x2="21.722" x1="24.625" y1="-38.476" style="fill:none;stroke:#000000;stroke-width:0.43;" y2="-35.11"/>
  <line x2="17.496" x1="14.864" y1="-27.161" style="fill:none;stroke:#000000;stroke-width:0.43;" y2="-30.212"/>
  <line x2="35.615" x1="35.069" y1="-50.581" style="fill:none;stroke:#000000;stroke-width:0.43;" y2="-51.214"/>
  <line x2="30.352" x1="33.948" y1="-35.272" style="fill:none;stroke:#000000;stroke-width:0.43;" y2="-38.659"/>
  <line x2="37.63" x1="33.948" y1="-35.272" style="fill:none;stroke:#000000;stroke-width:0.43;" y2="-31.805"/>
  <line x2="37.63" x1="40.814" y1="-28.806" style="fill:none;stroke:#000000;stroke-width:0.43;" y2="-31.805"/>
  <line x2="29.564" x1="30.352" y1="-38.659" style="fill:none;stroke:#000000;stroke-width:0.43;" y2="-39.401"/>
  <line x2="42.439" x1="40.814" y1="-28.806" style="fill:none;stroke:#000000;stroke-width:0.43;" y2="-27.276"/>
  <line x2="26.314" x1="24.399" y1="-32.438" style="fill:none;stroke:#000000;stroke-width:0.43;" y2="-30.526"/>
  <line x2="20.115" x1="21.722" y1="-35.11" style="fill:none;stroke:#000000;stroke-width:0.43;" y2="-36.714"/>
  <line x2="24.399" x1="21.722" y1="-35.11" style="fill:none;stroke:#000000;stroke-width:0.43;" y2="-32.438"/>
  <line x2="14.803" x1="17.496" y1="-30.212" style="fill:none;stroke:#000000;stroke-width:0.43;" y2="-32.798"/>
  <line x2="19.49" x1="17.496" y1="-30.212" style="fill:none;stroke:#000000;stroke-width:0.43;" y2="-28.298"/>
  <line x2="27.092" x1="24.183" y1="-25.446" style="fill:none;stroke:#000000;stroke-width:0.43;" y2="-22.672"/>
  <line x2="24.183" x1="23.115" y1="-26.464" style="fill:none;stroke:#000000;stroke-width:0.43;" y2="-25.446"/>
  <line x2="31.31" x1="27.092" y1="-22.672" style="fill:none;stroke:#000000;stroke-width:0.43;" y2="-18.649"/>
  <line x2="24.183" x1="29.893" y1="-31.192" style="fill:none;stroke:#000000;stroke-width:0.43;" y2="-25.446"/>
  <line x2="29.893" x1="33.948" y1="-35.272" style="fill:none;stroke:#000000;stroke-width:0.43;" y2="-31.192"/>
  <line x2="37.615" x1="33.948" y1="-35.272" style="fill:none;stroke:#000000;stroke-width:0.43;" y2="-38.964"/>
  <line x2="20.082" x1="24.183" y1="-25.446" style="fill:none;stroke:#000000;stroke-width:0.43;" y2="-21.318"/>
  <line x2="18.094" x1="20.082" y1="-21.318" style="fill:none;stroke:#000000;stroke-width:0.43;" y2="-19.318"/>
  <line x2="25.064" x1="24.399" y1="-32.438" style="fill:none;stroke:#000000;stroke-width:0.43;" y2="-33.276"/>
  <line x2="17.705" x1="14.412" y1="-19.821" style="fill:none;stroke:#000000;stroke-width:0.43;" y2="-23.98"/>
  <line x2="17.705" x1="24.399" y1="-32.438" style="fill:none;stroke:#000000;stroke-width:0.43;" y2="-23.98"/>
  <line x2="13.189" x1="14.412" y1="-19.821" style="fill:none;stroke:#000000;stroke-width:0.43;" y2="-18.276"/>
  <line x2="14.864" x1="14.314" y1="-27.776" style="fill:none;stroke:#000000;stroke-width:0.43;" y2="-27.161"/>
  <line x2="20.082" x1="23.015" y1="-18.035" style="fill:none;stroke:#000000;stroke-width:0.43;" y2="-21.318"/>
  <line x2="31.251" x1="23.015" y1="-18.035" style="fill:none;stroke:#000000;stroke-width:0.43;" y2="-8.814"/>
  <line x2="17.705" x1="20.082" y1="-21.318" style="fill:none;stroke:#000000;stroke-width:0.43;" y2="-23.98"/>
  <line x2="17.705" x1="14.864" y1="-27.161" style="fill:none;stroke:#000000;stroke-width:0.43;" y2="-23.98"/>
  <line x2="32.532" x1="31.251" y1="-8.814" style="fill:none;stroke:#000000;stroke-width:0.43;" y2="-7.381"/>
  <line x2="27.092" x1="30.175" y1="-26.179" style="fill:none;stroke:#000000;stroke-width:0.43;" y2="-22.672"/>
  <line x2="10.865" x1="11.44" y1="-4.868" style="fill:none;stroke:#000000;stroke-width:0.43;" y2="-4.214"/>
  <line x2="27.092" x1="23.015" y1="-18.035" style="fill:none;stroke:#000000;stroke-width:0.43;" y2="-22.672"/>
  <line x2="19.654" x1="23.015" y1="-18.035" style="fill:none;stroke:#000000;stroke-width:0.43;" y2="-14.212"/>
  <line x2="30.175" x1="31.689" y1="-27.901" style="fill:none;stroke:#000000;stroke-width:0.43;" y2="-26.179"/>
  <line x2="14.803" x1="11.44" y1="-4.868" style="fill:none;stroke:#000000;stroke-width:0.43;" y2="-8.692"/>
  <line x2="14.803" x1="19.654" y1="-14.212" style="fill:none;stroke:#000000;stroke-width:0.43;" y2="-8.692"/>
  <line x2="37.314" x1="36.934" y1="-24.365" style="fill:none;stroke:#000000;stroke-width:0.43;" y2="-24.901"/>
  <line x2="28.814" x1="34.701" y1="-21.212" style="fill:none;stroke:#000000;stroke-width:0.43;" y2="-12.901"/>
  <line x2="34.701" x1="36.934" y1="-24.365" style="fill:none;stroke:#000000;stroke-width:0.43;" y2="-21.212"/>
  <line x2="55.064" x1="54.647" y1="-19.183" style="fill:none;stroke:#000000;stroke-width:0.43;" y2="-18.776"/>
  <line x2="42.478" x1="50.545" y1="-23.182" style="fill:none;stroke:#000000;stroke-width:0.43;" y2="-31.045"/>
  <line x2="40.189" x1="42.478" y1="-31.045" style="fill:none;stroke:#000000;stroke-width:0.43;" y2="-33.276"/>
  <line x2="54.647" x1="50.545" y1="-23.182" style="fill:none;stroke:#000000;stroke-width:0.43;" y2="-19.183"/>
  <line x2="45.648" x1="43.362" y1="-18.134" style="fill:none;stroke:#000000;stroke-width:0.43;" y2="-15.917"/>
  <line x2="46.115" x1="45.648" y1="-15.917" style="fill:none;stroke:#000000;stroke-width:0.43;" y2="-15.464"/>
  <line x2="43.362" x1="40.226" y1="-21.174" style="fill:none;stroke:#000000;stroke-width:0.43;" y2="-18.134"/>
  <line x2="36.934" x1="40.226" y1="-21.174" style="fill:none;stroke:#000000;stroke-width:0.43;" y2="-24.365"/>
  <line x2="29.893" x1="29.698" y1="-31.381" style="fill:none;stroke:#000000;stroke-width:0.43;" y2="-31.192"/>
  <line x2="36.934" x1="29.893" y1="-31.192" style="fill:none;stroke:#000000;stroke-width:0.43;" y2="-24.365"/>
  <line x2="43.814" x1="46.845" y1="-22.246" style="fill:none;stroke:#000000;stroke-width:0.43;" y2="-25.276"/>
  <line x2="48.678" x1="50.689" y1="-18.401" style="fill:none;stroke:#000000;stroke-width:0.43;" y2="-20.412"/>
  <line x2="46.845" x1="48.678" y1="-20.412" style="fill:none;stroke:#000000;stroke-width:0.43;" y2="-22.246"/>
  <line x2="25.315" x1="22.939" y1="-10.651" style="fill:none;stroke:#000000;stroke-width:0.43;" y2="-7.896"/>
  <line x2="28.175" x1="25.315" y1="-7.896" style="fill:none;stroke:#000000;stroke-width:0.43;" y2="-4.577"/>
  <line x2="28.175" x1="30.518" y1="-1.86" style="fill:none;stroke:#000000;stroke-width:0.43;" y2="-4.577"/>
  <line x2="35.325" x1="34.293" y1="-3.068" style="fill:none;stroke:#000000;stroke-width:0.43;" y2="-1.86"/>
  <line x2="41.099" x1="38.277" y1="-5.152" style="fill:none;stroke:#000000;stroke-width:0.43;" y2="-1.86"/>
  <line x2="38.277" x1="36.564" y1="-7.151" style="fill:none;stroke:#000000;stroke-width:0.43;" y2="-5.152"/>
  <line x2="14.803" x1="11.679" y1="-12.616" style="fill:none;stroke:#000000;stroke-width:0.43;" y2="-8.692"/>
  <line x2="9.064" x1="11.679" y1="-12.616" style="fill:none;stroke:#000000;stroke-width:0.43;" y2="-15.901"/>
  <line x2="14.803" x1="20.241" y1="-1.86" style="fill:none;stroke:#000000;stroke-width:0.43;" y2="-8.692"/>
  <line x2="22.699" x1="21.689" y1="-5.901" style="fill:none;stroke:#000000;stroke-width:0.43;" y2="-4.658"/>
  <line x2="24.972" x1="22.699" y1="-4.658" style="fill:none;stroke:#000000;stroke-width:0.43;" y2="-1.86"/>
  <line x2="40.339" x1="37.693" y1="-17.685" style="fill:none;stroke:#000000;stroke-width:0.43;" y2="-14.485"/>
  <path d="M46.528-6.998l0.286,0.347c0.528,0.997,1.91,2.849,3.422,4.791" style="fill:none;stroke:#000000;stroke-width:0.43;"/>
  <line x2="36.689" x1="37.693" y1="-17.685" style="fill:none;stroke:#000000;stroke-width:0.43;" y2="-18.901"/>
  <line x2="46.528" x1="40.339" y1="-14.485" style="fill:none;stroke:#000000;stroke-width:0.43;" y2="-6.998"/>
  <line x2="14.657" x1="16.439" y1="-4.151" style="fill:none;stroke:#000000;stroke-width:0.43;" y2="-1.86"/>
  <line x2="25.315" x1="27.439" y1="-10.526" style="fill:none;stroke:#000000;stroke-width:0.43;" y2="-7.896"/>
  <line x2="20.44" x1="22.699" y1="-4.658" style="fill:none;stroke:#000000;stroke-width:0.43;" y2="-1.86"/>
  <line x2="22.699" x1="25.315" y1="-7.896" style="fill:none;stroke:#000000;stroke-width:0.43;" y2="-4.658"/>
  <line x2="40.226" x1="37.693" y1="-17.685" style="fill:none;stroke:#000000;stroke-width:0.43;" y2="-21.174"/>
  <line x2="42.615" x1="40.226" y1="-21.174" style="fill:none;stroke:#000000;stroke-width:0.43;" y2="-24.464"/>
  <line x2="31.251" x1="37.693" y1="-17.685" style="fill:none;stroke:#000000;stroke-width:0.43;" y2="-8.814"/>
  <line x2="28.175" x1="31.251" y1="-8.814" style="fill:none;stroke:#000000;stroke-width:0.43;" y2="-4.577"/>
  <line x2="26.202" x1="28.175" y1="-4.577" style="fill:none;stroke:#000000;stroke-width:0.43;" y2="-1.86"/>
  <line x2="31.376" x1="34.564" y1="-6.276" style="fill:none;stroke:#000000;stroke-width:0.43;" y2="-1.86"/>
  <line x2="42.439" x1="38.277" y1="-5.152" style="fill:none;stroke:#000000;stroke-width:0.43;" y2="-10.401"/>
  <line x2="35.668" x1="38.277" y1="-5.152" style="fill:none;stroke:#000000;stroke-width:0.43;" y2="-1.86"/>
  <line x2="20.085" x1="24.698" y1="-13.714" style="fill:none;stroke:#000000;stroke-width:0.43;" y2="-8.568"/>
  <path d="M47.532-23.048c0,0-0.255,0.297-0.687,0.802" style="fill:none;stroke:#000000;stroke-width:0.43;"/>
  <path d="M43.362-18.134c1.423-1.697,2.725-3.226,3.483-4.112" style="fill:none;stroke:#000000;stroke-width:0.43;"/>
  <path d="M40.339-14.485c-1.456,1.785-2.721,3.392-3.308,4.272" style="fill:none;stroke:#000000;stroke-width:0.43;"/>
  <path d="M43.362-18.134c-0.996,1.188-2.052,2.458-3.022,3.648" style="fill:none;stroke:#000000;stroke-width:0.43;"/>
  <path d="M1.86-20.918c0.347-0.517,0.671-1.001,0.966-1.442" style="fill:none;stroke:#000000;stroke-width:0.43;"/>
  <path d="M4.615-25.026c0,0-0.702,1.045-1.789,2.666" style="fill:none;stroke:#000000;stroke-width:0.43;"/>
  <line x2="5.058" x1="8.024" y1="-8.695" style="fill:none;stroke:#000000;stroke-width:0.43;" y2="-5.514"/>
  <line x2="11.679" x1="15.032" y1="-16.214" style="fill:none;stroke:#000000;stroke-width:0.43;" y2="-12.616"/>
  <line x2="5.058" x1="3.439" y1="-3.776" style="fill:none;stroke:#000000;stroke-width:0.43;" y2="-5.514"/>
  <line x2="8.024" x1="11.679" y1="-12.616" style="fill:none;stroke:#000000;stroke-width:0.43;" y2="-8.695"/>
  <line x2="55.86" x1="55.461" y1="-9.307" style="fill:none;stroke:#000000;stroke-width:0.43;" y2="-9.856"/>
  <line x2="51.259" x1="55.461" y1="-9.307" style="fill:none;stroke:#000000;stroke-width:0.43;" y2="-3.526"/>
  <line x2="1.86" x1="4.15" y1="-12.911" style="fill:none;stroke:#000000;stroke-width:0.43;" y2="-9.761"/>
  <line x2="11.465" x1="12.64" y1="-24.589" style="fill:none;stroke:#000000;stroke-width:0.43;" y2="-22.974"/>
  <line x2="4.15" x1="11.465" y1="-22.974" style="fill:none;stroke:#000000;stroke-width:0.43;" y2="-12.911"/>
  <line x2="48.248" x1="51.191" y1="-14.013" style="fill:none;stroke:#000000;stroke-width:0.43;" y2="-17.256"/>
  <line x2="51.191" x1="55.461" y1="-9.307" style="fill:none;stroke:#000000;stroke-width:0.43;" y2="-14.013"/>
  <line x2="55.86" x1="55.461" y1="-9.307" style="fill:none;stroke:#000000;stroke-width:0.43;" y2="-8.867"/>
  <line x2="1.86" x1="2.689" y1="-32.401" style="fill:none;stroke:#000000;stroke-width:0.43;" y2="-33.161"/>
  <line x2="5.058" x1="8.373" y1="-1.86" style="fill:none;stroke:#000000;stroke-width:0.43;" y2="-5.514"/>
  <line x2="5.058" x1="1.86" y1="-9.038" style="fill:none;stroke:#000000;stroke-width:0.43;" y2="-5.514"/>
  <line x2="11.745" x1="12.678" y1="-51.089" style="fill:none;stroke:#000000;stroke-width:0.43;" y2="-52.116"/>
  <line x2="9.371" x1="8.348" y1="-55.86" style="fill:none;stroke:#000000;stroke-width:0.43;" y2="-54.733"/>
  <line x2="9.371" x1="11.745" y1="-52.116" style="fill:none;stroke:#000000;stroke-width:0.43;" y2="-54.733"/>
  <line x2="1.86" x1="9.463" y1="-25.115" style="fill:none;stroke:#000000;stroke-width:0.43;" y2="-15.046"/>
  <line x2="10.718" x1="9.463" y1="-25.115" style="fill:none;stroke:#000000;stroke-width:0.43;" y2="-26.776"/>
  <path d="M49.042-10.789c-0.942,1.415-1.808,2.721-2.514,3.791" style="fill:none;stroke:#000000;stroke-width:0.43;"/>
  <path d="M49.042-10.789c0.688-1.033,1.415-2.124,2.149-3.224" style="fill:none;stroke:#000000;stroke-width:0.43;"/>
  <path d="M44.765-4.276c0.174-0.299,0.828-1.305,1.763-2.722" style="fill:none;stroke:#000000;stroke-width:0.43;"/>
  <path d="M54.647-19.183c-1.077,1.609-2.275,3.401-3.457,5.17" style="fill:none;stroke:#000000;stroke-width:0.43;"/>
  <path d="M55.86-20.993c-0.38,0.567-0.787,1.175-1.213,1.811" style="fill:none;stroke:#000000;stroke-width:0.43;"/>
  <line x2="54.19" x1="55.86" y1="-15.112" style="fill:none;stroke:#000000;stroke-width:0.43;" y2="-12.901"/>
  <line x2="27.865" x1="30.175" y1="-26.179" style="fill:none;stroke:#000000;stroke-width:0.43;" y2="-28.714"/>
  <line x2="35.439" x1="34.701" y1="-21.212" style="fill:none;stroke:#000000;stroke-width:0.43;" y2="-20.401"/>
  <line x2="30.175" x1="34.701" y1="-21.212" style="fill:none;stroke:#000000;stroke-width:0.43;" y2="-26.179"/>
  <line x2="47.064" x1="49.042" y1="-10.789" style="fill:none;stroke:#000000;stroke-width:0.43;" y2="-13.089"/>
  <line x2="49.042" x1="51.74" y1="-7.651" style="fill:none;stroke:#000000;stroke-width:0.43;" y2="-10.789"/>
  <line x2="42.751" x1="45.206" y1="-1.86" style="fill:none;stroke:#000000;stroke-width:0.43;" y2="-4.714"/>
  <line x2="45.206" x1="47.428" y1="-53.276" style="fill:none;stroke:#000000;stroke-width:0.43;" y2="-55.86"/>
  <line x2="55.86" x1="54.002" y1="-25.548" style="fill:none;stroke:#000000;stroke-width:0.43;" y2="-23.387"/>
  <line x2="2.826" x1="4.761" y1="-20.11" style="fill:none;stroke:#000000;stroke-width:0.43;" y2="-22.36"/>
  <line x2="2.826" x1="1.86" y1="-23.483" style="fill:none;stroke:#000000;stroke-width:0.43;" y2="-22.36"/>
  <line x2="54.361" x1="55.86" y1="-39.589" style="fill:none;stroke:#000000;stroke-width:0.43;" y2="-41.048"/>
  <line x2="8.907" x1="8.024" y1="-8.695" style="fill:none;stroke:#000000;stroke-width:0.43;" y2="-7.735"/>
  <line x2="8.024" x1="4.15" y1="-12.911" style="fill:none;stroke:#000000;stroke-width:0.43;" y2="-8.695"/>
  <line x2="3.106" x1="4.15" y1="-12.911" style="fill:none;stroke:#000000;stroke-width:0.43;" y2="-14.048"/>
  <line x2="26.032" x1="24.625" y1="-38.476" style="fill:none;stroke:#000000;stroke-width:0.43;" y2="-36.798"/>
  <line x2="21.282" x1="24.625" y1="-38.476" style="fill:none;stroke:#000000;stroke-width:0.43;" y2="-42.464"/>
  <line x2="53.303" x1="55.86" y1="-2.555" style="fill:none;stroke:#000000;stroke-width:0.43;" y2="-5.276"/>
  <line x2="20.918" x1="17.064" y1="-43.289" style="fill:none;stroke:#000000;stroke-width:0.43;" y2="-48.597"/>
  <line x2="23.179" x1="20.918" y1="-48.597" style="fill:none;stroke:#000000;stroke-width:0.43;" y2="-51.71"/>
  <line x2="26.192" x1="25.617" y1="-55.067" style="fill:none;stroke:#000000;stroke-width:0.43;" y2="-55.86"/>
  <line x2="23.179" x1="25.617" y1="-55.067" style="fill:none;stroke:#000000;stroke-width:0.43;" y2="-51.71"/>
 </g>
</svg>
