<?xml version="1.0"?>
<!-- Converted with SVG Converter - Version 0.9.5 (Compiled Fri Feb 21 09:53:38 2020) - Copyright (C) 2011 Nokia -->
<svg xmlns="http://www.w3.org/2000/svg" x="0px" y="0px" xml:space="preserve" viewBox="2 -61.333 59.333 59.333" height="59.333" width="59.333" baseProfile="tiny" xmlns:xlink="http://www.w3.org/1999/xlink" version="1.1">
 <g>
  <rect x="2" y="-61.333" height="59.333" width="59.333" style="fill:none;"/>
  <line x1="25.298" style="fill:none;stroke:#EC008C;stroke-width:0.5;" x2="26.23" y2="-61.333" y1="-59.771"/>
  <line x1="43.581" style="fill:none;stroke:#EC008C;stroke-width:0.5;" x2="44.552" y2="-61.333" y1="-59.829"/>
  <line x1="6.34" style="fill:none;stroke:#EC008C;stroke-width:0.5;" x2="7.744" y2="-61.333" y1="-60.196"/>
  <line x1="35.236" style="fill:none;stroke:#EC008C;stroke-width:0.5;" x2="35.776" y2="-61.333" y1="-59.672"/>
  <line x1="54.347" style="fill:none;stroke:#EC008C;stroke-width:0.5;" x2="53.054" y2="-60.205" y1="-61.333"/>
  <line x1="15.77" style="fill:none;stroke:#EC008C;stroke-width:0.5;" x2="17.298" y2="-61.333" y1="-60.56"/>
  <line x1="27.195" style="fill:none;stroke:#EC008C;stroke-width:0.5;" x2="26.181" y2="-2" y1="-3.698"/>
  <line x1="45.589" style="fill:none;stroke:#EC008C;stroke-width:0.5;" x2="44.499" y2="-2" y1="-3.688"/>
  <line x1="9.216" style="fill:none;stroke:#EC008C;stroke-width:0.5;" x2="7.641" y2="-2" y1="-3.275"/>
  <line x1="36.38" style="fill:none;stroke:#EC008C;stroke-width:0.5;" x2="35.75" y2="-2" y1="-3.94"/>
  <line x1="55.843" style="fill:none;stroke:#EC008C;stroke-width:0.5;" x2="54.252" y2="-2" y1="-3.388"/>
  <line x1="19.072" style="fill:none;stroke:#EC008C;stroke-width:0.5;" x2="17.134" y2="-2" y1="-2.98"/>
  <line x1="26.797" style="fill:none;stroke:#EC008C;stroke-width:0.5;" x2="28.695" y2="-53.19" y1="-56.368"/>
  <line x1="9.237" style="fill:none;stroke:#EC008C;stroke-width:0.5;" x2="11.245" y2="-53.207" y1="-56.316"/>
  <line x1="44.839" style="fill:none;stroke:#EC008C;stroke-width:0.5;" x2="47.714" y2="-53.616" y1="-55.945"/>
  <line x1="18.631" style="fill:none;stroke:#EC008C;stroke-width:0.5;" x2="17.487" y2="-56.61" y1="-53.091"/>
  <line x1="52.61" style="fill:none;stroke:#EC008C;stroke-width:0.5;" x2="54.37" y2="-56.47" y1="-53.214"/>
  <line x1="3.572" style="fill:none;stroke:#EC008C;stroke-width:0.5;" x2="2" y2="-54.348" y1="-53.562"/>
  <line x1="38.785" style="fill:none;stroke:#EC008C;stroke-width:0.5;" x2="35.482" y2="-55.649" y1="-53.979"/>
  <line x1="27.442" style="fill:none;stroke:#EC008C;stroke-width:0.5;" x2="25.545" y2="-46.375" y1="-49.552"/>
  <line x1="45.836" style="fill:none;stroke:#EC008C;stroke-width:0.5;" x2="43.828" y2="-46.434" y1="-49.542"/>
  <line x1="7.44" style="fill:none;stroke:#EC008C;stroke-width:0.5;" x2="10.996" y2="-48.971" y1="-47.946"/>
  <line x1="34.506" style="fill:none;stroke:#EC008C;stroke-width:0.5;" x2="36.957" y2="-46.646" y1="-49.419"/>
  <line x1="2" style="fill:none;stroke:#EC008C;stroke-width:0.5;" x2="3.332" y2="-44.104" y1="-45.611"/>
  <line x1="56.09" style="fill:none;stroke:#EC008C;stroke-width:0.5;" x2="53.301" y2="-46.81" y1="-49.242"/>
  <line x1="16.215" style="fill:none;stroke:#EC008C;stroke-width:0.5;" x2="18.42" y2="-46.644" y1="-49.616"/>
  <line x1="35.942" style="fill:none;stroke:#EC008C;stroke-width:0.5;" x2="34.045" y2="-30.646" y1="-33.823"/>
  <line x1="54.333" style="fill:none;stroke:#EC008C;stroke-width:0.5;" x2="52.58" y2="-33.91" y1="-30.651"/>
  <line x1="17.739" style="fill:none;stroke:#EC008C;stroke-width:0.5;" x2="15.165" y2="-33.473" y1="-30.813"/>
  <line x1="45.127" style="fill:none;stroke:#EC008C;stroke-width:0.5;" x2="43.983" y2="-30.547" y1="-34.065"/>
  <line x1="26.361" style="fill:none;stroke:#EC008C;stroke-width:0.5;" x2="23.059" y2="-31.622" y1="-33.293"/>
  <line x1="8.942" style="fill:none;stroke:#EC008C;stroke-width:0.5;" x2="7.045" y2="-31.833" y1="-35.011"/>
  <line x1="27.753" style="fill:none;stroke:#EC008C;stroke-width:0.5;" x2="29.65" y2="-38.482" y1="-41.659"/>
  <line x1="9.042" style="fill:none;stroke:#EC008C;stroke-width:0.5;" x2="11.917" y2="-39.657" y1="-41.987"/>
  <line x1="20.542" style="fill:none;stroke:#EC008C;stroke-width:0.5;" x2="17.5" y2="-39.043" y1="-41.148"/>
  <line x1="45.931" style="fill:none;stroke:#EC008C;stroke-width:0.5;" x2="48.75" y2="-38.833" y1="-41.23"/>
  <line x1="55.268" style="fill:none;stroke:#EC008C;stroke-width:0.5;" x2="54.124" y2="-42.652" y1="-39.133"/>
  <line x1="2" style="fill:none;stroke:#EC008C;stroke-width:0.5;" x2="2.917" y2="-36.833" y1="-36.261"/>
  <line x1="39.655" style="fill:none;stroke:#EC008C;stroke-width:0.5;" x2="36.661" y2="-39.435" y1="-41.609"/>
  <line x1="27.529" style="fill:none;stroke:#EC008C;stroke-width:0.5;" x2="25.632" y2="-26.931" y1="-23.753"/>
  <line x1="9.885" style="fill:none;stroke:#EC008C;stroke-width:0.5;" x2="7.877" y2="-26.6" y1="-23.491"/>
  <line x1="45.593" style="fill:none;stroke:#EC008C;stroke-width:0.5;" x2="46.712" y2="-23.12" y1="-26.647"/>
  <line x1="19.983" style="fill:none;stroke:#EC008C;stroke-width:0.5;" x2="18.887" y2="-22.602" y1="-26.136"/>
  <line x1="54.833" style="fill:none;stroke:#EC008C;stroke-width:0.5;" x2="53.045" y2="-22.609" y1="-25.849"/>
  <line x1="3.556" style="fill:none;stroke:#EC008C;stroke-width:0.5;" x2="2" y2="-25.128" y1="-24.555"/>
  <line x1="38.821" style="fill:none;stroke:#EC008C;stroke-width:0.5;" x2="35.519" y2="-25.867" y1="-24.197"/>
  <line x1="26.795" style="fill:none;stroke:#EC008C;stroke-width:0.5;" x2="28.692" y2="-19.144" y1="-15.966"/>
  <line x1="2" style="fill:none;stroke:#EC008C;stroke-width:0.5;" x2="3.103" y2="-13.637" y1="-15.201"/>
  <line x1="43.828" style="fill:none;stroke:#EC008C;stroke-width:0.5;" x2="45.836" y2="-18.342" y1="-15.233"/>
  <line x1="11.004" style="fill:none;stroke:#EC008C;stroke-width:0.5;" x2="8.129" y2="-15.787" y1="-18.117"/>
  <line x1="37.147" style="fill:none;stroke:#EC008C;stroke-width:0.5;" x2="34.725" y2="-18.275" y1="-15.479"/>
  <line x1="56.09" style="fill:none;stroke:#EC008C;stroke-width:0.5;" x2="53.301" y2="-15.609" y1="-18.042"/>
  <line x1="19.058" style="fill:none;stroke:#EC008C;stroke-width:0.5;" x2="16.528" y2="-18.208" y1="-15.508"/>
  <line x1="29.608" style="fill:none;stroke:#EC008C;stroke-width:0.5;" x2="27.711" y2="-10.931" y1="-7.753"/>
  <line x1="9.042" style="fill:none;stroke:#EC008C;stroke-width:0.5;" x2="11.917" y2="-8.157" y1="-10.487"/>
  <line x1="19.545" style="fill:none;stroke:#EC008C;stroke-width:0.5;" x2="18.401" y2="-11.152" y1="-7.633"/>
  <line x1="47.583" style="fill:none;stroke:#EC008C;stroke-width:0.5;" x2="46.439" y2="-11.152" y1="-7.633"/>
  <line x1="55.268" style="fill:none;stroke:#EC008C;stroke-width:0.5;" x2="54.124" y2="-11.152" y1="-7.633"/>
  <line x1="3.872" style="fill:none;stroke:#EC008C;stroke-width:0.5;" x2="2" y2="-6.367" y1="-4.734"/>
  <line x1="39.693" style="fill:none;stroke:#EC008C;stroke-width:0.5;" x2="36.454" y2="-8.657" y1="-10.447"/>
  <line x1="59.679" style="fill:none;stroke:#EC008C;stroke-width:0.5;" x2="61.333" y2="-54.39" y1="-55.218"/>
  <line x1="60.298" style="fill:none;stroke:#EC008C;stroke-width:0.5;" x2="61.333" y2="-45.705" y1="-46.877"/>
  <line x1="59.194" style="fill:none;stroke:#EC008C;stroke-width:0.5;" x2="61.333" y2="-36.209" y1="-34.874"/>
  <line x1="59.5" style="fill:none;stroke:#EC008C;stroke-width:0.5;" x2="61.333" y2="-25.158" y1="-25.833"/>
  <line x1="60.388" style="fill:none;stroke:#EC008C;stroke-width:0.5;" x2="61.333" y2="-15.319" y1="-16.661"/>
  <line x1="60.5" style="fill:none;stroke:#EC008C;stroke-width:0.5;" x2="61.333" y2="-6.44" y1="-7.167"/>
  <line x1="2.622" style="fill:none;stroke:#EC008C;stroke-width:0.3;" x2="2.622" y2="-2" y1="-61.333"/>
  <line x1="3.786" style="fill:none;stroke:#EC008C;stroke-width:0.3;" x2="3.786" y2="-2" y1="-61.333"/>
  <line x1="4.95" style="fill:none;stroke:#EC008C;stroke-width:0.3;" x2="4.95" y2="-2" y1="-61.333"/>
  <line x1="6.113" style="fill:none;stroke:#EC008C;stroke-width:0.3;" x2="6.113" y2="-2" y1="-61.333"/>
  <line x1="7.277" style="fill:none;stroke:#EC008C;stroke-width:0.3;" x2="7.277" y2="-2" y1="-61.333"/>
  <line x1="8.44" style="fill:none;stroke:#EC008C;stroke-width:0.3;" x2="8.44" y2="-2" y1="-61.333"/>
  <line x1="9.604" style="fill:none;stroke:#EC008C;stroke-width:0.3;" x2="9.604" y2="-2" y1="-61.333"/>
  <line x1="10.768" style="fill:none;stroke:#EC008C;stroke-width:0.3;" x2="10.768" y2="-2" y1="-61.333"/>
  <line x1="11.931" style="fill:none;stroke:#EC008C;stroke-width:0.3;" x2="11.931" y2="-2" y1="-61.333"/>
  <line x1="13.095" style="fill:none;stroke:#EC008C;stroke-width:0.3;" x2="13.095" y2="-2" y1="-61.333"/>
  <line x1="14.259" style="fill:none;stroke:#EC008C;stroke-width:0.3;" x2="14.259" y2="-2" y1="-61.333"/>
  <line x1="15.422" style="fill:none;stroke:#EC008C;stroke-width:0.3;" x2="15.422" y2="-2" y1="-61.333"/>
  <line x1="16.586" style="fill:none;stroke:#EC008C;stroke-width:0.3;" x2="16.586" y2="-2" y1="-61.333"/>
  <line x1="17.75" style="fill:none;stroke:#EC008C;stroke-width:0.3;" x2="17.75" y2="-2" y1="-61.333"/>
  <line x1="18.913" style="fill:none;stroke:#EC008C;stroke-width:0.3;" x2="18.913" y2="-2" y1="-61.333"/>
  <line x1="20.077" style="fill:none;stroke:#EC008C;stroke-width:0.3;" x2="20.077" y2="-2" y1="-61.333"/>
  <line x1="21.241" style="fill:none;stroke:#EC008C;stroke-width:0.3;" x2="21.241" y2="-2" y1="-61.333"/>
  <line x1="22.404" style="fill:none;stroke:#EC008C;stroke-width:0.3;" x2="22.404" y2="-2" y1="-61.333"/>
  <line x1="23.568" style="fill:none;stroke:#EC008C;stroke-width:0.3;" x2="23.568" y2="-2" y1="-61.333"/>
  <line x1="24.731" style="fill:none;stroke:#EC008C;stroke-width:0.3;" x2="24.731" y2="-2" y1="-61.333"/>
  <line x1="25.895" style="fill:none;stroke:#EC008C;stroke-width:0.3;" x2="25.895" y2="-2" y1="-61.333"/>
  <line x1="27.059" style="fill:none;stroke:#EC008C;stroke-width:0.3;" x2="27.059" y2="-2" y1="-61.333"/>
  <line x1="28.222" style="fill:none;stroke:#EC008C;stroke-width:0.3;" x2="28.222" y2="-2" y1="-61.333"/>
  <line x1="29.386" style="fill:none;stroke:#EC008C;stroke-width:0.3;" x2="29.386" y2="-2" y1="-61.333"/>
  <line x1="30.55" style="fill:none;stroke:#EC008C;stroke-width:0.3;" x2="30.55" y2="-2" y1="-61.333"/>
  <line x1="31.713" style="fill:none;stroke:#EC008C;stroke-width:0.3;" x2="31.713" y2="-2" y1="-61.333"/>
  <line x1="32.878" style="fill:none;stroke:#EC008C;stroke-width:0.3;" x2="32.878" y2="-2" y1="-61.333"/>
  <line x1="34.042" style="fill:none;stroke:#EC008C;stroke-width:0.3;" x2="34.042" y2="-2" y1="-61.333"/>
  <line x1="35.205" style="fill:none;stroke:#EC008C;stroke-width:0.3;" x2="35.205" y2="-2" y1="-61.333"/>
  <line x1="36.369" style="fill:none;stroke:#EC008C;stroke-width:0.3;" x2="36.369" y2="-2" y1="-61.333"/>
  <line x1="37.532" style="fill:none;stroke:#EC008C;stroke-width:0.3;" x2="37.532" y2="-2" y1="-61.333"/>
  <line x1="38.696" style="fill:none;stroke:#EC008C;stroke-width:0.3;" x2="38.696" y2="-2" y1="-61.333"/>
  <line x1="39.86" style="fill:none;stroke:#EC008C;stroke-width:0.3;" x2="39.86" y2="-2" y1="-61.333"/>
  <line x1="41.023" style="fill:none;stroke:#EC008C;stroke-width:0.3;" x2="41.023" y2="-2" y1="-61.333"/>
  <line x1="42.187" style="fill:none;stroke:#EC008C;stroke-width:0.3;" x2="42.187" y2="-2" y1="-61.333"/>
  <line x1="43.351" style="fill:none;stroke:#EC008C;stroke-width:0.3;" x2="43.351" y2="-2" y1="-61.333"/>
  <line x1="44.514" style="fill:none;stroke:#EC008C;stroke-width:0.3;" x2="44.514" y2="-2" y1="-61.333"/>
  <line x1="45.678" style="fill:none;stroke:#EC008C;stroke-width:0.3;" x2="45.678" y2="-2" y1="-61.333"/>
  <line x1="46.841" style="fill:none;stroke:#EC008C;stroke-width:0.3;" x2="46.841" y2="-2" y1="-61.333"/>
  <line x1="48.005" style="fill:none;stroke:#EC008C;stroke-width:0.3;" x2="48.005" y2="-2" y1="-61.333"/>
  <line x1="49.169" style="fill:none;stroke:#EC008C;stroke-width:0.3;" x2="49.169" y2="-2" y1="-61.333"/>
  <line x1="50.333" style="fill:none;stroke:#EC008C;stroke-width:0.3;" x2="50.333" y2="-2" y1="-61.333"/>
  <line x1="51.496" style="fill:none;stroke:#EC008C;stroke-width:0.3;" x2="51.496" y2="-2" y1="-61.333"/>
  <line x1="52.66" style="fill:none;stroke:#EC008C;stroke-width:0.3;" x2="52.66" y2="-2" y1="-61.333"/>
  <line x1="53.823" style="fill:none;stroke:#EC008C;stroke-width:0.3;" x2="53.823" y2="-2" y1="-61.333"/>
  <line x1="54.987" style="fill:none;stroke:#EC008C;stroke-width:0.3;" x2="54.987" y2="-2" y1="-61.333"/>
  <line x1="56.151" style="fill:none;stroke:#EC008C;stroke-width:0.3;" x2="56.151" y2="-2" y1="-61.333"/>
  <line x1="57.314" style="fill:none;stroke:#EC008C;stroke-width:0.3;" x2="57.314" y2="-2" y1="-61.333"/>
  <line x1="58.478" style="fill:none;stroke:#EC008C;stroke-width:0.3;" x2="58.478" y2="-2" y1="-61.333"/>
  <line x1="59.642" style="fill:none;stroke:#EC008C;stroke-width:0.3;" x2="59.642" y2="-2" y1="-61.333"/>
  <line x1="60.805" style="fill:none;stroke:#EC008C;stroke-width:0.3;" x2="60.805" y2="-2" y1="-61.333"/>
 </g>
</svg>
