<?xml version="1.0"?>
<!-- Converted with SVG Converter - Version 0.9.5 (Compiled Fri Feb 21 09:53:38 2020) - Copyright (C) 2011 Nokia -->
<svg xmlns="http://www.w3.org/2000/svg" height="59.333" x="0px" y="0px" width="59.333" xml:space="preserve" baseProfile="tiny" version="1.1" xmlns:xlink="http://www.w3.org/1999/xlink" viewBox="2 -61.333 59.333 59.333">
 <g>
  <rect height="59.333" x="2" y="-61.333" width="59.333" style="fill:none;"/>
  <line x2="26.23" y2="-61.333" style="fill:none;stroke:#000000;stroke-width:0.5;" y1="-59.771" x1="25.298"/>
  <line x2="44.552" y2="-61.333" style="fill:none;stroke:#000000;stroke-width:0.5;" y1="-59.829" x1="43.581"/>
  <line x2="7.744" y2="-61.333" style="fill:none;stroke:#000000;stroke-width:0.5;" y1="-60.196" x1="6.34"/>
  <line x2="35.776" y2="-61.333" style="fill:none;stroke:#000000;stroke-width:0.5;" y1="-59.672" x1="35.236"/>
  <line x2="53.054" y2="-60.205" style="fill:none;stroke:#000000;stroke-width:0.5;" y1="-61.333" x1="54.347"/>
  <line x2="17.298" y2="-61.333" style="fill:none;stroke:#000000;stroke-width:0.5;" y1="-60.56" x1="15.77"/>
  <line x2="26.181" y2="-2" style="fill:none;stroke:#000000;stroke-width:0.5;" y1="-3.698" x1="27.195"/>
  <line x2="44.499" y2="-2" style="fill:none;stroke:#000000;stroke-width:0.5;" y1="-3.688" x1="45.589"/>
  <line x2="7.641" y2="-2" style="fill:none;stroke:#000000;stroke-width:0.5;" y1="-3.275" x1="9.216"/>
  <line x2="35.75" y2="-2" style="fill:none;stroke:#000000;stroke-width:0.5;" y1="-3.94" x1="36.38"/>
  <line x2="54.252" y2="-2" style="fill:none;stroke:#000000;stroke-width:0.5;" y1="-3.388" x1="55.843"/>
  <line x2="17.134" y2="-2" style="fill:none;stroke:#000000;stroke-width:0.5;" y1="-2.98" x1="19.072"/>
  <line x2="28.695" y2="-53.19" style="fill:none;stroke:#000000;stroke-width:0.5;" y1="-56.368" x1="26.797"/>
  <line x2="11.245" y2="-53.207" style="fill:none;stroke:#000000;stroke-width:0.5;" y1="-56.316" x1="9.237"/>
  <line x2="47.714" y2="-53.616" style="fill:none;stroke:#000000;stroke-width:0.5;" y1="-55.945" x1="44.839"/>
  <line x2="17.487" y2="-56.61" style="fill:none;stroke:#000000;stroke-width:0.5;" y1="-53.091" x1="18.631"/>
  <line x2="54.37" y2="-56.47" style="fill:none;stroke:#000000;stroke-width:0.5;" y1="-53.214" x1="52.61"/>
  <line x2="2" y2="-54.348" style="fill:none;stroke:#000000;stroke-width:0.5;" y1="-53.562" x1="3.572"/>
  <line x2="35.482" y2="-55.649" style="fill:none;stroke:#000000;stroke-width:0.5;" y1="-53.979" x1="38.785"/>
  <line x2="25.545" y2="-46.375" style="fill:none;stroke:#000000;stroke-width:0.5;" y1="-49.552" x1="27.442"/>
  <line x2="43.828" y2="-46.434" style="fill:none;stroke:#000000;stroke-width:0.5;" y1="-49.542" x1="45.836"/>
  <line x2="10.996" y2="-48.971" style="fill:none;stroke:#000000;stroke-width:0.5;" y1="-47.946" x1="7.44"/>
  <line x2="36.957" y2="-46.646" style="fill:none;stroke:#000000;stroke-width:0.5;" y1="-49.419" x1="34.506"/>
  <line x2="3.332" y2="-44.104" style="fill:none;stroke:#000000;stroke-width:0.5;" y1="-45.611" x1="2"/>
  <line x2="53.301" y2="-46.81" style="fill:none;stroke:#000000;stroke-width:0.5;" y1="-49.242" x1="56.09"/>
  <line x2="18.42" y2="-46.644" style="fill:none;stroke:#000000;stroke-width:0.5;" y1="-49.616" x1="16.215"/>
  <line x2="34.045" y2="-30.646" style="fill:none;stroke:#000000;stroke-width:0.5;" y1="-33.823" x1="35.942"/>
  <line x2="52.58" y2="-33.91" style="fill:none;stroke:#000000;stroke-width:0.5;" y1="-30.651" x1="54.333"/>
  <line x2="15.165" y2="-33.473" style="fill:none;stroke:#000000;stroke-width:0.5;" y1="-30.813" x1="17.739"/>
  <line x2="43.983" y2="-30.547" style="fill:none;stroke:#000000;stroke-width:0.5;" y1="-34.065" x1="45.127"/>
  <line x2="23.059" y2="-31.622" style="fill:none;stroke:#000000;stroke-width:0.5;" y1="-33.293" x1="26.361"/>
  <line x2="7.045" y2="-31.833" style="fill:none;stroke:#000000;stroke-width:0.5;" y1="-35.011" x1="8.942"/>
  <line x2="29.65" y2="-38.482" style="fill:none;stroke:#000000;stroke-width:0.5;" y1="-41.659" x1="27.753"/>
  <line x2="11.917" y2="-39.657" style="fill:none;stroke:#000000;stroke-width:0.5;" y1="-41.987" x1="9.042"/>
  <line x2="17.5" y2="-39.043" style="fill:none;stroke:#000000;stroke-width:0.5;" y1="-41.148" x1="20.542"/>
  <line x2="48.75" y2="-38.833" style="fill:none;stroke:#000000;stroke-width:0.5;" y1="-41.23" x1="45.931"/>
  <line x2="54.124" y2="-42.652" style="fill:none;stroke:#000000;stroke-width:0.5;" y1="-39.133" x1="55.268"/>
  <line x2="2.917" y2="-36.833" style="fill:none;stroke:#000000;stroke-width:0.5;" y1="-36.261" x1="2"/>
  <line x2="36.661" y2="-39.435" style="fill:none;stroke:#000000;stroke-width:0.5;" y1="-41.609" x1="39.655"/>
  <line x2="25.632" y2="-26.931" style="fill:none;stroke:#000000;stroke-width:0.5;" y1="-23.753" x1="27.529"/>
  <line x2="7.877" y2="-26.6" style="fill:none;stroke:#000000;stroke-width:0.5;" y1="-23.491" x1="9.885"/>
  <line x2="46.712" y2="-23.12" style="fill:none;stroke:#000000;stroke-width:0.5;" y1="-26.647" x1="45.593"/>
  <line x2="18.887" y2="-22.602" style="fill:none;stroke:#000000;stroke-width:0.5;" y1="-26.136" x1="19.983"/>
  <line x2="53.045" y2="-22.609" style="fill:none;stroke:#000000;stroke-width:0.5;" y1="-25.849" x1="54.833"/>
  <line x2="2" y2="-25.128" style="fill:none;stroke:#000000;stroke-width:0.5;" y1="-24.555" x1="3.556"/>
  <line x2="35.519" y2="-25.867" style="fill:none;stroke:#000000;stroke-width:0.5;" y1="-24.197" x1="38.821"/>
  <line x2="28.692" y2="-19.144" style="fill:none;stroke:#000000;stroke-width:0.5;" y1="-15.966" x1="26.795"/>
  <line x2="3.103" y2="-13.637" style="fill:none;stroke:#000000;stroke-width:0.5;" y1="-15.201" x1="2"/>
  <line x2="45.836" y2="-18.342" style="fill:none;stroke:#000000;stroke-width:0.5;" y1="-15.233" x1="43.828"/>
  <line x2="8.129" y2="-15.787" style="fill:none;stroke:#000000;stroke-width:0.5;" y1="-18.117" x1="11.004"/>
  <line x2="34.725" y2="-18.275" style="fill:none;stroke:#000000;stroke-width:0.5;" y1="-15.479" x1="37.147"/>
  <line x2="53.301" y2="-15.609" style="fill:none;stroke:#000000;stroke-width:0.5;" y1="-18.042" x1="56.09"/>
  <line x2="16.528" y2="-18.208" style="fill:none;stroke:#000000;stroke-width:0.5;" y1="-15.508" x1="19.058"/>
  <line x2="27.711" y2="-10.931" style="fill:none;stroke:#000000;stroke-width:0.5;" y1="-7.753" x1="29.608"/>
  <line x2="11.917" y2="-8.157" style="fill:none;stroke:#000000;stroke-width:0.5;" y1="-10.487" x1="9.042"/>
  <line x2="18.401" y2="-11.152" style="fill:none;stroke:#000000;stroke-width:0.5;" y1="-7.633" x1="19.545"/>
  <line x2="46.439" y2="-11.152" style="fill:none;stroke:#000000;stroke-width:0.5;" y1="-7.633" x1="47.583"/>
  <line x2="54.124" y2="-11.152" style="fill:none;stroke:#000000;stroke-width:0.5;" y1="-7.633" x1="55.268"/>
  <line x2="2" y2="-6.367" style="fill:none;stroke:#000000;stroke-width:0.5;" y1="-4.734" x1="3.872"/>
  <line x2="36.454" y2="-8.657" style="fill:none;stroke:#000000;stroke-width:0.5;" y1="-10.447" x1="39.693"/>
  <line x2="61.333" y2="-54.39" style="fill:none;stroke:#000000;stroke-width:0.5;" y1="-55.218" x1="59.679"/>
  <line x2="61.333" y2="-45.705" style="fill:none;stroke:#000000;stroke-width:0.5;" y1="-46.877" x1="60.298"/>
  <line x2="61.333" y2="-36.209" style="fill:none;stroke:#000000;stroke-width:0.5;" y1="-34.874" x1="59.194"/>
  <line x2="61.333" y2="-25.158" style="fill:none;stroke:#000000;stroke-width:0.5;" y1="-25.833" x1="59.5"/>
  <line x2="61.333" y2="-15.319" style="fill:none;stroke:#000000;stroke-width:0.5;" y1="-16.661" x1="60.388"/>
  <line x2="61.333" y2="-6.44" style="fill:none;stroke:#000000;stroke-width:0.5;" y1="-7.167" x1="60.5"/>
  <line x2="2.622" y2="-2" style="fill:none;stroke:#000000;stroke-width:0.3;" y1="-61.333" x1="2.622"/>
  <line x2="3.786" y2="-2" style="fill:none;stroke:#000000;stroke-width:0.3;" y1="-61.333" x1="3.786"/>
  <line x2="4.95" y2="-2" style="fill:none;stroke:#000000;stroke-width:0.3;" y1="-61.333" x1="4.95"/>
  <line x2="6.113" y2="-2" style="fill:none;stroke:#000000;stroke-width:0.3;" y1="-61.333" x1="6.113"/>
  <line x2="7.277" y2="-2" style="fill:none;stroke:#000000;stroke-width:0.3;" y1="-61.333" x1="7.277"/>
  <line x2="8.44" y2="-2" style="fill:none;stroke:#000000;stroke-width:0.3;" y1="-61.333" x1="8.44"/>
  <line x2="9.604" y2="-2" style="fill:none;stroke:#000000;stroke-width:0.3;" y1="-61.333" x1="9.604"/>
  <line x2="10.768" y2="-2" style="fill:none;stroke:#000000;stroke-width:0.3;" y1="-61.333" x1="10.768"/>
  <line x2="11.931" y2="-2" style="fill:none;stroke:#000000;stroke-width:0.3;" y1="-61.333" x1="11.931"/>
  <line x2="13.095" y2="-2" style="fill:none;stroke:#000000;stroke-width:0.3;" y1="-61.333" x1="13.095"/>
  <line x2="14.259" y2="-2" style="fill:none;stroke:#000000;stroke-width:0.3;" y1="-61.333" x1="14.259"/>
  <line x2="15.422" y2="-2" style="fill:none;stroke:#000000;stroke-width:0.3;" y1="-61.333" x1="15.422"/>
  <line x2="16.586" y2="-2" style="fill:none;stroke:#000000;stroke-width:0.3;" y1="-61.333" x1="16.586"/>
  <line x2="17.75" y2="-2" style="fill:none;stroke:#000000;stroke-width:0.3;" y1="-61.333" x1="17.75"/>
  <line x2="18.913" y2="-2" style="fill:none;stroke:#000000;stroke-width:0.3;" y1="-61.333" x1="18.913"/>
  <line x2="20.077" y2="-2" style="fill:none;stroke:#000000;stroke-width:0.3;" y1="-61.333" x1="20.077"/>
  <line x2="21.241" y2="-2" style="fill:none;stroke:#000000;stroke-width:0.3;" y1="-61.333" x1="21.241"/>
  <line x2="22.404" y2="-2" style="fill:none;stroke:#000000;stroke-width:0.3;" y1="-61.333" x1="22.404"/>
  <line x2="23.568" y2="-2" style="fill:none;stroke:#000000;stroke-width:0.3;" y1="-61.333" x1="23.568"/>
  <line x2="24.731" y2="-2" style="fill:none;stroke:#000000;stroke-width:0.3;" y1="-61.333" x1="24.731"/>
  <line x2="25.895" y2="-2" style="fill:none;stroke:#000000;stroke-width:0.3;" y1="-61.333" x1="25.895"/>
  <line x2="27.059" y2="-2" style="fill:none;stroke:#000000;stroke-width:0.3;" y1="-61.333" x1="27.059"/>
  <line x2="28.222" y2="-2" style="fill:none;stroke:#000000;stroke-width:0.3;" y1="-61.333" x1="28.222"/>
  <line x2="29.386" y2="-2" style="fill:none;stroke:#000000;stroke-width:0.3;" y1="-61.333" x1="29.386"/>
  <line x2="30.55" y2="-2" style="fill:none;stroke:#000000;stroke-width:0.3;" y1="-61.333" x1="30.55"/>
  <line x2="31.713" y2="-2" style="fill:none;stroke:#000000;stroke-width:0.3;" y1="-61.333" x1="31.713"/>
  <line x2="32.878" y2="-2" style="fill:none;stroke:#000000;stroke-width:0.3;" y1="-61.333" x1="32.878"/>
  <line x2="34.042" y2="-2" style="fill:none;stroke:#000000;stroke-width:0.3;" y1="-61.333" x1="34.042"/>
  <line x2="35.205" y2="-2" style="fill:none;stroke:#000000;stroke-width:0.3;" y1="-61.333" x1="35.205"/>
  <line x2="36.369" y2="-2" style="fill:none;stroke:#000000;stroke-width:0.3;" y1="-61.333" x1="36.369"/>
  <line x2="37.532" y2="-2" style="fill:none;stroke:#000000;stroke-width:0.3;" y1="-61.333" x1="37.532"/>
  <line x2="38.696" y2="-2" style="fill:none;stroke:#000000;stroke-width:0.3;" y1="-61.333" x1="38.696"/>
  <line x2="39.86" y2="-2" style="fill:none;stroke:#000000;stroke-width:0.3;" y1="-61.333" x1="39.86"/>
  <line x2="41.023" y2="-2" style="fill:none;stroke:#000000;stroke-width:0.3;" y1="-61.333" x1="41.023"/>
  <line x2="42.187" y2="-2" style="fill:none;stroke:#000000;stroke-width:0.3;" y1="-61.333" x1="42.187"/>
  <line x2="43.351" y2="-2" style="fill:none;stroke:#000000;stroke-width:0.3;" y1="-61.333" x1="43.351"/>
  <line x2="44.514" y2="-2" style="fill:none;stroke:#000000;stroke-width:0.3;" y1="-61.333" x1="44.514"/>
  <line x2="45.678" y2="-2" style="fill:none;stroke:#000000;stroke-width:0.3;" y1="-61.333" x1="45.678"/>
  <line x2="46.841" y2="-2" style="fill:none;stroke:#000000;stroke-width:0.3;" y1="-61.333" x1="46.841"/>
  <line x2="48.005" y2="-2" style="fill:none;stroke:#000000;stroke-width:0.3;" y1="-61.333" x1="48.005"/>
  <line x2="49.169" y2="-2" style="fill:none;stroke:#000000;stroke-width:0.3;" y1="-61.333" x1="49.169"/>
  <line x2="50.333" y2="-2" style="fill:none;stroke:#000000;stroke-width:0.3;" y1="-61.333" x1="50.333"/>
  <line x2="51.496" y2="-2" style="fill:none;stroke:#000000;stroke-width:0.3;" y1="-61.333" x1="51.496"/>
  <line x2="52.66" y2="-2" style="fill:none;stroke:#000000;stroke-width:0.3;" y1="-61.333" x1="52.66"/>
  <line x2="53.823" y2="-2" style="fill:none;stroke:#000000;stroke-width:0.3;" y1="-61.333" x1="53.823"/>
  <line x2="54.987" y2="-2" style="fill:none;stroke:#000000;stroke-width:0.3;" y1="-61.333" x1="54.987"/>
  <line x2="56.151" y2="-2" style="fill:none;stroke:#000000;stroke-width:0.3;" y1="-61.333" x1="56.151"/>
  <line x2="57.314" y2="-2" style="fill:none;stroke:#000000;stroke-width:0.3;" y1="-61.333" x1="57.314"/>
  <line x2="58.478" y2="-2" style="fill:none;stroke:#000000;stroke-width:0.3;" y1="-61.333" x1="58.478"/>
  <line x2="59.642" y2="-2" style="fill:none;stroke:#000000;stroke-width:0.3;" y1="-61.333" x1="59.642"/>
  <line x2="60.805" y2="-2" style="fill:none;stroke:#000000;stroke-width:0.3;" y1="-61.333" x1="60.805"/>
 </g>
</svg>
