<?xml version="1.0"?>
<!-- Converted with SVG Converter - Version 0.9.6 (Compiled Thu Aug 31 10:01:05 2017) - Copyright (C) 2011 Nokia -->
<svg xmlns="http://www.w3.org/2000/svg" baseProfile="tiny" x="0px" height="59.333" xmlns:xlink="http://www.w3.org/1999/xlink" version="1.1" y="0px" width="59.333" xml:space="preserve" viewBox="2 -61.333 59.333 59.333">
 <g>
  <rect x="2" height="59.333" y="-61.333" style="fill:none;" width="59.333"/>
  <line x1="25.298" y1="-59.771" style="fill:none;stroke:#00AEEF;stroke-width:0.5;" y2="-61.333" x2="26.23"/>
  <line x1="43.581" y1="-59.829" style="fill:none;stroke:#00AEEF;stroke-width:0.5;" y2="-61.333" x2="44.552"/>
  <line x1="6.34" y1="-60.196" style="fill:none;stroke:#00AEEF;stroke-width:0.5;" y2="-61.333" x2="7.744"/>
  <line x1="35.236" y1="-59.672" style="fill:none;stroke:#00AEEF;stroke-width:0.5;" y2="-61.333" x2="35.776"/>
  <line x1="54.347" y1="-61.333" style="fill:none;stroke:#00AEEF;stroke-width:0.5;" y2="-60.205" x2="53.054"/>
  <line x1="15.77" y1="-60.56" style="fill:none;stroke:#00AEEF;stroke-width:0.5;" y2="-61.333" x2="17.298"/>
  <line x1="27.195" y1="-3.698" style="fill:none;stroke:#00AEEF;stroke-width:0.5;" y2="-2" x2="26.181"/>
  <line x1="45.589" y1="-3.688" style="fill:none;stroke:#00AEEF;stroke-width:0.5;" y2="-2" x2="44.499"/>
  <line x1="9.216" y1="-3.275" style="fill:none;stroke:#00AEEF;stroke-width:0.5;" y2="-2" x2="7.641"/>
  <line x1="36.38" y1="-3.94" style="fill:none;stroke:#00AEEF;stroke-width:0.5;" y2="-2" x2="35.75"/>
  <line x1="55.843" y1="-3.388" style="fill:none;stroke:#00AEEF;stroke-width:0.5;" y2="-2" x2="54.252"/>
  <line x1="19.072" y1="-2.98" style="fill:none;stroke:#00AEEF;stroke-width:0.5;" y2="-2" x2="17.134"/>
  <line x1="26.797" y1="-56.368" style="fill:none;stroke:#00AEEF;stroke-width:0.5;" y2="-53.19" x2="28.695"/>
  <line x1="9.237" y1="-56.316" style="fill:none;stroke:#00AEEF;stroke-width:0.5;" y2="-53.207" x2="11.245"/>
  <line x1="44.839" y1="-55.945" style="fill:none;stroke:#00AEEF;stroke-width:0.5;" y2="-53.616" x2="47.714"/>
  <line x1="18.631" y1="-53.091" style="fill:none;stroke:#00AEEF;stroke-width:0.5;" y2="-56.61" x2="17.487"/>
  <line x1="52.61" y1="-53.214" style="fill:none;stroke:#00AEEF;stroke-width:0.5;" y2="-56.47" x2="54.37"/>
  <line x1="3.572" y1="-53.562" style="fill:none;stroke:#00AEEF;stroke-width:0.5;" y2="-54.348" x2="2"/>
  <line x1="38.785" y1="-53.979" style="fill:none;stroke:#00AEEF;stroke-width:0.5;" y2="-55.649" x2="35.482"/>
  <line x1="27.442" y1="-49.552" style="fill:none;stroke:#00AEEF;stroke-width:0.5;" y2="-46.375" x2="25.545"/>
  <line x1="45.836" y1="-49.542" style="fill:none;stroke:#00AEEF;stroke-width:0.5;" y2="-46.434" x2="43.828"/>
  <line x1="7.44" y1="-47.946" style="fill:none;stroke:#00AEEF;stroke-width:0.5;" y2="-48.971" x2="10.996"/>
  <line x1="34.506" y1="-49.419" style="fill:none;stroke:#00AEEF;stroke-width:0.5;" y2="-46.646" x2="36.957"/>
  <line x1="2" y1="-45.611" style="fill:none;stroke:#00AEEF;stroke-width:0.5;" y2="-44.104" x2="3.332"/>
  <line x1="56.09" y1="-49.242" style="fill:none;stroke:#00AEEF;stroke-width:0.5;" y2="-46.81" x2="53.301"/>
  <line x1="16.215" y1="-49.616" style="fill:none;stroke:#00AEEF;stroke-width:0.5;" y2="-46.644" x2="18.42"/>
  <line x1="35.942" y1="-33.823" style="fill:none;stroke:#00AEEF;stroke-width:0.5;" y2="-30.646" x2="34.045"/>
  <line x1="54.333" y1="-30.651" style="fill:none;stroke:#00AEEF;stroke-width:0.5;" y2="-33.91" x2="52.58"/>
  <line x1="17.739" y1="-30.813" style="fill:none;stroke:#00AEEF;stroke-width:0.5;" y2="-33.473" x2="15.165"/>
  <line x1="45.127" y1="-34.065" style="fill:none;stroke:#00AEEF;stroke-width:0.5;" y2="-30.547" x2="43.983"/>
  <line x1="26.361" y1="-33.293" style="fill:none;stroke:#00AEEF;stroke-width:0.5;" y2="-31.622" x2="23.059"/>
  <line x1="8.942" y1="-35.011" style="fill:none;stroke:#00AEEF;stroke-width:0.5;" y2="-31.833" x2="7.045"/>
  <line x1="27.753" y1="-41.659" style="fill:none;stroke:#00AEEF;stroke-width:0.5;" y2="-38.482" x2="29.65"/>
  <line x1="9.042" y1="-41.987" style="fill:none;stroke:#00AEEF;stroke-width:0.5;" y2="-39.657" x2="11.917"/>
  <line x1="20.542" y1="-41.148" style="fill:none;stroke:#00AEEF;stroke-width:0.5;" y2="-39.043" x2="17.5"/>
  <line x1="45.931" y1="-41.23" style="fill:none;stroke:#00AEEF;stroke-width:0.5;" y2="-38.833" x2="48.75"/>
  <line x1="55.268" y1="-39.133" style="fill:none;stroke:#00AEEF;stroke-width:0.5;" y2="-42.652" x2="54.124"/>
  <line x1="2" y1="-36.261" style="fill:none;stroke:#00AEEF;stroke-width:0.5;" y2="-36.833" x2="2.917"/>
  <line x1="39.655" y1="-41.609" style="fill:none;stroke:#00AEEF;stroke-width:0.5;" y2="-39.435" x2="36.661"/>
  <line x1="27.529" y1="-23.753" style="fill:none;stroke:#00AEEF;stroke-width:0.5;" y2="-26.931" x2="25.632"/>
  <line x1="9.885" y1="-23.491" style="fill:none;stroke:#00AEEF;stroke-width:0.5;" y2="-26.6" x2="7.877"/>
  <line x1="45.593" y1="-26.647" style="fill:none;stroke:#00AEEF;stroke-width:0.5;" y2="-23.12" x2="46.712"/>
  <line x1="19.983" y1="-26.136" style="fill:none;stroke:#00AEEF;stroke-width:0.5;" y2="-22.602" x2="18.887"/>
  <line x1="54.833" y1="-25.849" style="fill:none;stroke:#00AEEF;stroke-width:0.5;" y2="-22.609" x2="53.045"/>
  <line x1="3.556" y1="-24.555" style="fill:none;stroke:#00AEEF;stroke-width:0.5;" y2="-25.128" x2="2"/>
  <line x1="38.821" y1="-24.197" style="fill:none;stroke:#00AEEF;stroke-width:0.5;" y2="-25.867" x2="35.519"/>
  <line x1="26.795" y1="-15.966" style="fill:none;stroke:#00AEEF;stroke-width:0.5;" y2="-19.144" x2="28.692"/>
  <line x1="2" y1="-15.201" style="fill:none;stroke:#00AEEF;stroke-width:0.5;" y2="-13.637" x2="3.103"/>
  <line x1="43.828" y1="-15.233" style="fill:none;stroke:#00AEEF;stroke-width:0.5;" y2="-18.342" x2="45.836"/>
  <line x1="11.004" y1="-18.117" style="fill:none;stroke:#00AEEF;stroke-width:0.5;" y2="-15.787" x2="8.129"/>
  <line x1="37.147" y1="-15.479" style="fill:none;stroke:#00AEEF;stroke-width:0.5;" y2="-18.275" x2="34.725"/>
  <line x1="56.09" y1="-18.042" style="fill:none;stroke:#00AEEF;stroke-width:0.5;" y2="-15.609" x2="53.301"/>
  <line x1="19.058" y1="-15.508" style="fill:none;stroke:#00AEEF;stroke-width:0.5;" y2="-18.208" x2="16.528"/>
  <line x1="29.608" y1="-7.753" style="fill:none;stroke:#00AEEF;stroke-width:0.5;" y2="-10.931" x2="27.711"/>
  <line x1="9.042" y1="-10.487" style="fill:none;stroke:#00AEEF;stroke-width:0.5;" y2="-8.157" x2="11.917"/>
  <line x1="19.545" y1="-7.633" style="fill:none;stroke:#00AEEF;stroke-width:0.5;" y2="-11.152" x2="18.401"/>
  <line x1="47.583" y1="-7.633" style="fill:none;stroke:#00AEEF;stroke-width:0.5;" y2="-11.152" x2="46.439"/>
  <line x1="55.268" y1="-7.633" style="fill:none;stroke:#00AEEF;stroke-width:0.5;" y2="-11.152" x2="54.124"/>
  <line x1="3.872" y1="-4.734" style="fill:none;stroke:#00AEEF;stroke-width:0.5;" y2="-6.367" x2="2"/>
  <line x1="39.693" y1="-10.447" style="fill:none;stroke:#00AEEF;stroke-width:0.5;" y2="-8.657" x2="36.454"/>
  <line x1="59.679" y1="-55.218" style="fill:none;stroke:#00AEEF;stroke-width:0.5;" y2="-54.39" x2="61.333"/>
  <line x1="60.298" y1="-46.877" style="fill:none;stroke:#00AEEF;stroke-width:0.5;" y2="-45.705" x2="61.333"/>
  <line x1="59.194" y1="-34.874" style="fill:none;stroke:#00AEEF;stroke-width:0.5;" y2="-36.209" x2="61.333"/>
  <line x1="59.5" y1="-25.833" style="fill:none;stroke:#00AEEF;stroke-width:0.5;" y2="-25.158" x2="61.333"/>
  <line x1="60.388" y1="-16.661" style="fill:none;stroke:#00AEEF;stroke-width:0.5;" y2="-15.319" x2="61.333"/>
  <line x1="60.5" y1="-7.167" style="fill:none;stroke:#00AEEF;stroke-width:0.5;" y2="-6.44" x2="61.333"/>
  <line x1="2.622" y1="-61.333" style="fill:none;stroke:#00AEEF;stroke-width:0.3;" y2="-2" x2="2.622"/>
  <line x1="3.786" y1="-61.333" style="fill:none;stroke:#00AEEF;stroke-width:0.3;" y2="-2" x2="3.786"/>
  <line x1="4.95" y1="-61.333" style="fill:none;stroke:#00AEEF;stroke-width:0.3;" y2="-2" x2="4.95"/>
  <line x1="6.113" y1="-61.333" style="fill:none;stroke:#00AEEF;stroke-width:0.3;" y2="-2" x2="6.113"/>
  <line x1="7.277" y1="-61.333" style="fill:none;stroke:#00AEEF;stroke-width:0.3;" y2="-2" x2="7.277"/>
  <line x1="8.44" y1="-61.333" style="fill:none;stroke:#00AEEF;stroke-width:0.3;" y2="-2" x2="8.44"/>
  <line x1="9.604" y1="-61.333" style="fill:none;stroke:#00AEEF;stroke-width:0.3;" y2="-2" x2="9.604"/>
  <line x1="10.768" y1="-61.333" style="fill:none;stroke:#00AEEF;stroke-width:0.3;" y2="-2" x2="10.768"/>
  <line x1="11.931" y1="-61.333" style="fill:none;stroke:#00AEEF;stroke-width:0.3;" y2="-2" x2="11.931"/>
  <line x1="13.095" y1="-61.333" style="fill:none;stroke:#00AEEF;stroke-width:0.3;" y2="-2" x2="13.095"/>
  <line x1="14.259" y1="-61.333" style="fill:none;stroke:#00AEEF;stroke-width:0.3;" y2="-2" x2="14.259"/>
  <line x1="15.422" y1="-61.333" style="fill:none;stroke:#00AEEF;stroke-width:0.3;" y2="-2" x2="15.422"/>
  <line x1="16.586" y1="-61.333" style="fill:none;stroke:#00AEEF;stroke-width:0.3;" y2="-2" x2="16.586"/>
  <line x1="17.75" y1="-61.333" style="fill:none;stroke:#00AEEF;stroke-width:0.3;" y2="-2" x2="17.75"/>
  <line x1="18.913" y1="-61.333" style="fill:none;stroke:#00AEEF;stroke-width:0.3;" y2="-2" x2="18.913"/>
  <line x1="20.077" y1="-61.333" style="fill:none;stroke:#00AEEF;stroke-width:0.3;" y2="-2" x2="20.077"/>
  <line x1="21.241" y1="-61.333" style="fill:none;stroke:#00AEEF;stroke-width:0.3;" y2="-2" x2="21.241"/>
  <line x1="22.404" y1="-61.333" style="fill:none;stroke:#00AEEF;stroke-width:0.3;" y2="-2" x2="22.404"/>
  <line x1="23.568" y1="-61.333" style="fill:none;stroke:#00AEEF;stroke-width:0.3;" y2="-2" x2="23.568"/>
  <line x1="24.731" y1="-61.333" style="fill:none;stroke:#00AEEF;stroke-width:0.3;" y2="-2" x2="24.731"/>
  <line x1="25.895" y1="-61.333" style="fill:none;stroke:#00AEEF;stroke-width:0.3;" y2="-2" x2="25.895"/>
  <line x1="27.059" y1="-61.333" style="fill:none;stroke:#00AEEF;stroke-width:0.3;" y2="-2" x2="27.059"/>
  <line x1="28.222" y1="-61.333" style="fill:none;stroke:#00AEEF;stroke-width:0.3;" y2="-2" x2="28.222"/>
  <line x1="29.386" y1="-61.333" style="fill:none;stroke:#00AEEF;stroke-width:0.3;" y2="-2" x2="29.386"/>
  <line x1="30.55" y1="-61.333" style="fill:none;stroke:#00AEEF;stroke-width:0.3;" y2="-2" x2="30.55"/>
  <line x1="31.713" y1="-61.333" style="fill:none;stroke:#00AEEF;stroke-width:0.3;" y2="-2" x2="31.713"/>
  <line x1="32.878" y1="-61.333" style="fill:none;stroke:#00AEEF;stroke-width:0.3;" y2="-2" x2="32.878"/>
  <line x1="34.042" y1="-61.333" style="fill:none;stroke:#00AEEF;stroke-width:0.3;" y2="-2" x2="34.042"/>
  <line x1="35.205" y1="-61.333" style="fill:none;stroke:#00AEEF;stroke-width:0.3;" y2="-2" x2="35.205"/>
  <line x1="36.369" y1="-61.333" style="fill:none;stroke:#00AEEF;stroke-width:0.3;" y2="-2" x2="36.369"/>
  <line x1="37.532" y1="-61.333" style="fill:none;stroke:#00AEEF;stroke-width:0.3;" y2="-2" x2="37.532"/>
  <line x1="38.696" y1="-61.333" style="fill:none;stroke:#00AEEF;stroke-width:0.3;" y2="-2" x2="38.696"/>
  <line x1="39.86" y1="-61.333" style="fill:none;stroke:#00AEEF;stroke-width:0.3;" y2="-2" x2="39.86"/>
  <line x1="41.023" y1="-61.333" style="fill:none;stroke:#00AEEF;stroke-width:0.3;" y2="-2" x2="41.023"/>
  <line x1="42.187" y1="-61.333" style="fill:none;stroke:#00AEEF;stroke-width:0.3;" y2="-2" x2="42.187"/>
  <line x1="43.351" y1="-61.333" style="fill:none;stroke:#00AEEF;stroke-width:0.3;" y2="-2" x2="43.351"/>
  <line x1="44.514" y1="-61.333" style="fill:none;stroke:#00AEEF;stroke-width:0.3;" y2="-2" x2="44.514"/>
  <line x1="45.678" y1="-61.333" style="fill:none;stroke:#00AEEF;stroke-width:0.3;" y2="-2" x2="45.678"/>
  <line x1="46.841" y1="-61.333" style="fill:none;stroke:#00AEEF;stroke-width:0.3;" y2="-2" x2="46.841"/>
  <line x1="48.005" y1="-61.333" style="fill:none;stroke:#00AEEF;stroke-width:0.3;" y2="-2" x2="48.005"/>
  <line x1="49.169" y1="-61.333" style="fill:none;stroke:#00AEEF;stroke-width:0.3;" y2="-2" x2="49.169"/>
  <line x1="50.333" y1="-61.333" style="fill:none;stroke:#00AEEF;stroke-width:0.3;" y2="-2" x2="50.333"/>
  <line x1="51.496" y1="-61.333" style="fill:none;stroke:#00AEEF;stroke-width:0.3;" y2="-2" x2="51.496"/>
  <line x1="52.66" y1="-61.333" style="fill:none;stroke:#00AEEF;stroke-width:0.3;" y2="-2" x2="52.66"/>
  <line x1="53.823" y1="-61.333" style="fill:none;stroke:#00AEEF;stroke-width:0.3;" y2="-2" x2="53.823"/>
  <line x1="54.987" y1="-61.333" style="fill:none;stroke:#00AEEF;stroke-width:0.3;" y2="-2" x2="54.987"/>
  <line x1="56.151" y1="-61.333" style="fill:none;stroke:#00AEEF;stroke-width:0.3;" y2="-2" x2="56.151"/>
  <line x1="57.314" y1="-61.333" style="fill:none;stroke:#00AEEF;stroke-width:0.3;" y2="-2" x2="57.314"/>
  <line x1="58.478" y1="-61.333" style="fill:none;stroke:#00AEEF;stroke-width:0.3;" y2="-2" x2="58.478"/>
  <line x1="59.642" y1="-61.333" style="fill:none;stroke:#00AEEF;stroke-width:0.3;" y2="-2" x2="59.642"/>
  <line x1="60.805" y1="-61.333" style="fill:none;stroke:#00AEEF;stroke-width:0.3;" y2="-2" x2="60.805"/>
 </g>
</svg>
