<?xml version="1.0"?>
<!-- Converted with SVG Converter - Version 0.9.5 (Compiled Fri Feb 21 09:53:38 2020) - Copyright (C) 2011 Nokia -->
<svg xmlns="http://www.w3.org/2000/svg" height="25.921" baseProfile="tiny" xmlns:xlink="http://www.w3.org/1999/xlink" width="22.448">
 <defs>
  <path d="M0 0h22.45v25.92H0z" id="a"/>
 </defs>
 <path fill="#EC008C" d="M0 9.33c.4 0 .74-.32.74-.7 0-.4-.33-.72-.75-.72"/>
 <circle cx="4.788" stroke="#EC008C" r=".177" stroke-width=".35" cy="4.057" fill="#EC008C"/>
 <ellipse cx="12.101" stroke="#EC008C" stroke-width=".35" ry=".795" cy="1.807" fill="#EC008C" rx=".707"/>
 <ellipse cx="8.351" stroke="#EC008C" stroke-width=".35" ry=".398" cy="1.838" fill="#EC008C" rx=".442"/>
 <ellipse cx="16.565" stroke="#EC008C" stroke-width=".35" ry=".221" cy="2.112" fill="#EC008C" rx=".133"/>
 <ellipse cx="19.258" stroke="#EC008C" stroke-width=".35" ry=".486" cy="1.838" fill="#EC008C" rx=".75"/>
 <ellipse cx="14.788" stroke="#EC008C" stroke-width=".35" ry=".795" cy="4.307" fill="#EC008C" rx=".707"/>
 <ellipse cx="18.476" stroke="#EC008C" stroke-width=".35" ry=".795" cy="6.62" fill="#EC008C" rx=".531"/>
 <path fill="#EC008C" d="M22.46 7.9c-.42 0-.76.33-.76.72 0 .4.34.7.76.7"/>
 <ellipse cx="19.226" stroke="#EC008C" stroke-width=".35" ry=".619" cy="10.182" fill="#EC008C" rx=".884"/>
 <ellipse cx="15.633" stroke="#EC008C" stroke-width=".35" ry=".795" cy="8.557" fill="#EC008C" rx=".662"/>
 <ellipse cx="12.163" stroke="#EC008C" stroke-width=".35" ry=".619" cy="6.682" fill="#EC008C" rx=".796"/>
 <ellipse cx="6.82" stroke="#EC008C" stroke-width=".35" ry=".575" cy="8.338" fill="#EC008C" rx=".841"/>
 <ellipse cx="3.413" stroke="#EC008C" stroke-width=".35" ry=".751" cy="5.963" fill="#EC008C" rx=".706"/>
 <ellipse cx="11.195" stroke="#EC008C" stroke-width=".35" ry=".177" cy="3.994" fill="#EC008C" rx=".309"/>
 <ellipse cx="18.351" stroke="#EC008C" stroke-width=".35" ry=".354" cy="3.994" fill="#EC008C" rx=".531"/>
 <ellipse cx="21.038" stroke="#EC008C" stroke-width=".35" ry=".265" cy="6.182" fill="#EC008C" rx=".178"/>
 <ellipse cx="12.788" stroke="#EC008C" stroke-width=".35" ry=".398" cy="11.088" fill="#EC008C" rx=".354"/>
 <ellipse cx="10.788" stroke="#EC008C" stroke-width=".35" ry=".265" cy="8.995" fill="#EC008C" rx=".354"/>
 <ellipse cx="18.913" stroke="#EC008C" stroke-width=".35" ry=".221" cy="12.463" fill="#EC008C" rx=".178"/>
 <ellipse cx="15.445" stroke="#EC008C" stroke-width=".35" ry=".619" cy="12.182" fill="#EC008C" rx=".929"/>
 <ellipse cx="10.008" stroke="#EC008C" stroke-width=".35" ry=".663" cy="11.088" fill="#EC008C" rx=".752"/>
 <circle cx="5.82" stroke="#EC008C" r=".221" stroke-width=".35" cy="11.088" fill="#EC008C"/>
 <ellipse cx="3.663" stroke="#EC008C" stroke-width=".35" ry=".486" cy="8.463" fill="#EC008C" rx=".441"/>
 <ellipse cx="3.101" stroke="#EC008C" stroke-width=".35" ry=".839" cy="11.026" fill="#EC008C" rx=".619"/>
 <circle cx="2.07" stroke="#EC008C" r=".221" stroke-width=".35" cy="13.463" fill="#EC008C"/>
 <ellipse cx="4.413" stroke="#EC008C" stroke-width=".35" ry=".619" cy="14.745" fill="#EC008C" rx=".796"/>
 <ellipse cx="9.663" stroke="#EC008C" stroke-width=".35" ry=".442" cy="13.745" fill="#EC008C" rx=".266"/>
 <circle cx="5.663" stroke="#EC008C" r=".354" stroke-width=".35" cy="17.682" fill="#EC008C"/>
 <ellipse cx="11.788" stroke="#EC008C" stroke-width=".35" ry=".132" cy="16.651" fill="#EC008C" rx=".178"/>
 <ellipse cx="12.258" stroke="#EC008C" stroke-width=".35" ry=".751" cy="14.651" fill="#EC008C" rx=".662"/>
 <ellipse cx="8.913" stroke="#EC008C" stroke-width=".35" ry=".575" cy="16.776" fill="#EC008C" rx=".795"/>
 <ellipse cx="15.195" stroke="#EC008C" stroke-width=".35" ry=".221" cy="14.901" fill="#EC008C" rx=".132"/>
 <ellipse cx="18.383" stroke="#EC008C" stroke-width=".35" ry=".751" cy="14.901" fill="#EC008C" rx=".839"/>
 <ellipse cx="15.829" stroke="#EC008C" stroke-width=".35" ry=".672" cy="17.119" fill="#EC008C" rx=".494"/>
 <circle cx="21.601" stroke="#EC008C" r=".177" stroke-width=".35" cy="15.432" fill="#EC008C"/>
 <ellipse cx="21.788" stroke="#EC008C" stroke-width=".35" ry=".354" cy="10.807" fill="#EC008C" rx=".265"/>
 <ellipse cx="18.758" stroke="#EC008C" stroke-width=".35" ry=".619" cy="19.807" fill="#EC008C" rx=".662"/>
 <circle cx="2.133" stroke="#EC008C" r=".221" stroke-width=".35" cy="16.588" fill="#EC008C"/>
 <ellipse cx="2.82" stroke="#EC008C" stroke-width=".35" ry=".839" cy="19.088" fill="#EC008C" rx=".662"/>
 <ellipse cx="4.57" stroke="#EC008C" stroke-width=".35" ry=".309" cy="21.213" fill="#EC008C" rx=".487"/>
 <ellipse cx="3.163" stroke="#EC008C" stroke-width=".35" ry=".708" cy="23.745" fill="#EC008C" rx=".531"/>
 <circle cx="9.195" stroke="#EC008C" r=".221" stroke-width=".35" cy="18.963" fill="#EC008C"/>
 <ellipse cx="11.892" stroke="#EC008C" stroke-width=".35" ry=".601" cy="19.231" fill="#EC008C" rx=".743"/>
 <ellipse cx="14.886" stroke="#EC008C" stroke-width=".35" ry=".177" cy="19.38" fill="#EC008C" rx=".311"/>
 <ellipse cx="21.32" stroke="#EC008C" stroke-width=".35" ry=".177" cy="19.682" fill="#EC008C" rx=".132"/>
 <ellipse cx="21.913" stroke="#EC008C" stroke-width=".35" ry=".177" cy="23.869" fill="#EC008C" rx=".265"/>
 <ellipse cx="19.133" stroke="#EC008C" stroke-width=".35" ry=".663" cy="23.65" fill="#EC008C" rx=".752"/>
 <ellipse cx="15.851" stroke="#EC008C" stroke-width=".35" ry=".708" cy="21.807" fill="#EC008C" rx=".795"/>
 <ellipse cx="14.101" stroke="#EC008C" stroke-width=".35" ry=".221" cy="23.776" fill="#EC008C" rx=".176"/>
 <ellipse cx="11.663" stroke="#EC008C" stroke-width=".35" ry=".619" cy="23.745" fill="#EC008C" rx=".53"/>
 <ellipse cx="10.163" stroke="#EC008C" stroke-width=".35" ry=".309" cy="25.276" fill="#EC008C" rx=".354"/>
 <circle cx="7.445" stroke="#EC008C" r=".221" stroke-width=".35" cy="23.088" fill="#EC008C"/>
 <ellipse cx="10.945" stroke="#EC008C" stroke-width=".35" ry=".177" cy="21.557" fill="#EC008C" rx=".31"/>
 <circle cx="18.758" stroke="#EC008C" r=".221" stroke-width=".35" cy="17.401" fill="#EC008C"/>
 <ellipse cx="3.695" stroke="#EC008C" stroke-width=".35" ry=".619" cy="1.807" fill="#EC008C" rx=".929"/>
 <ellipse cx="7.892" stroke="#EC008C" stroke-width=".35" ry=".601" cy="4.356" fill="#EC008C" rx=".743"/>
 <circle cx="8.913" stroke="#EC008C" r=".354" stroke-width=".35" cy="6.682" fill="#EC008C"/>
 <ellipse cx="7.288" stroke="#EC008C" stroke-width=".35" ry=".619" cy="13.245" fill="#EC008C" rx=".53"/>
 <ellipse cx="7.454" stroke="#EC008C" stroke-width=".35" ry=".672" cy="20.619" fill="#EC008C" rx=".494"/>
 <path fill="#EC008C" d="M7.6 25.92c.15-.1.23-.26.23-.4 0-.4-.47-.7-1.04-.7-.6 0-1.06.3-1.06.7 0 .14.08.3.2.4h1.68zM5.94 0h1.68-.02c-.2.15-.5.26-.82.26-.34 0-.64-.1-.84-.27zM0 4.55c.07.02.14.03.22.03.43 0 .8-.32.8-.7 0-.4-.36-.72-.8-.72-.08 0-.15 0-.22.03v1.35zM22.45 4.55V3.2c-.33.07-.58.35-.58.67s.25.6.58.68zM16.5 25.93c0-.1.02-.2.02-.28 0-.56-.32-1-.7-1-.38 0-.7.44-.7 1 0 .1.02.2.03.27h1.33zM16.48 0h-1.33c.08.4.35.72.67.72.32 0 .6-.3.67-.73h-.02zM22.46 13.6c-.07 0-.14.02-.22.02-.44 0-.8-.32-.8-.7 0-.4.36-.72.8-.72.08 0 .15 0 .22.03v1.35zM0 13.6v-1.37c.33.08.57.36.57.68s-.24.6-.57.7zM0 22.23c.06 0 .13.02.2.02.45 0 .8-.24.8-.55s-.35-.54-.8-.54c-.07 0-.14 0-.2.02v1.05zM22.45 22.23v-1.06c-.33.07-.58.28-.58.53s.25.46.58.53zM22.46 18.15c-.07.03-.15.04-.22.04-.44 0-.8-.44-.8-.96s.36-.94.8-.94c.07 0 .15 0 .22.03v1.82zM0 18.14v-1.8c.33.1.57.47.57.9 0 .43-.24.8-.58.9zM22.46 25.92v-.95c-.38 0-.7.44-.7.97v-.02s.7 0 .7 0zM0 25.92v-.95c.37 0 .7.44.7.97v-.02H0zM22.46 0v.94c-.38 0-.7-.44-.7-.97V0s.7 0 .7 0zM0 0v.94C.36.94.7.5.7-.03V0H0z"/>
</svg>
