<?xml version="1.0"?>
<!-- Converted with SVG Converter - Version 0.9.5 (Compiled Fri Feb 21 09:53:38 2020) - Copyright (C) 2011 Nokia -->
<svg xmlns="http://www.w3.org/2000/svg" height="25.921" xmlns:xlink="http://www.w3.org/1999/xlink" baseProfile="tiny" width="22.448">
 <defs>
  <path id="a" d="M0 0h22.45v25.92H0z"/>
 </defs>
 <path fill="#EC008C" d="M0 9.33c.4 0 .74-.32.74-.7 0-.4-.33-.72-.75-.72"/>
 <circle stroke-width=".35" r=".177" fill="#EC008C" cy="4.057" stroke="#EC008C" cx="4.788"/>
 <ellipse stroke-width=".35" rx=".707" fill="#EC008C" cy="1.807" stroke="#EC008C" ry=".795" cx="12.101"/>
 <ellipse stroke-width=".35" rx=".442" fill="#EC008C" cy="1.838" stroke="#EC008C" ry=".398" cx="8.351"/>
 <ellipse stroke-width=".35" rx=".133" fill="#EC008C" cy="2.112" stroke="#EC008C" ry=".221" cx="16.565"/>
 <ellipse stroke-width=".35" rx=".75" fill="#EC008C" cy="1.838" stroke="#EC008C" ry=".486" cx="19.258"/>
 <ellipse stroke-width=".35" rx=".707" fill="#EC008C" cy="4.307" stroke="#EC008C" ry=".795" cx="14.788"/>
 <ellipse stroke-width=".35" rx=".531" fill="#EC008C" cy="6.62" stroke="#EC008C" ry=".795" cx="18.476"/>
 <path fill="#EC008C" d="M22.46 7.9c-.42 0-.76.33-.76.72 0 .4.34.7.76.7"/>
 <ellipse stroke-width=".35" rx=".884" fill="#EC008C" cy="10.182" stroke="#EC008C" ry=".619" cx="19.226"/>
 <ellipse stroke-width=".35" rx=".662" fill="#EC008C" cy="8.557" stroke="#EC008C" ry=".795" cx="15.633"/>
 <ellipse stroke-width=".35" rx=".796" fill="#EC008C" cy="6.682" stroke="#EC008C" ry=".619" cx="12.163"/>
 <ellipse stroke-width=".35" rx=".841" fill="#EC008C" cy="8.338" stroke="#EC008C" ry=".575" cx="6.82"/>
 <ellipse stroke-width=".35" rx=".706" fill="#EC008C" cy="5.963" stroke="#EC008C" ry=".751" cx="3.413"/>
 <ellipse stroke-width=".35" rx=".309" fill="#EC008C" cy="3.994" stroke="#EC008C" ry=".177" cx="11.195"/>
 <ellipse stroke-width=".35" rx=".531" fill="#EC008C" cy="3.994" stroke="#EC008C" ry=".354" cx="18.351"/>
 <ellipse stroke-width=".35" rx=".178" fill="#EC008C" cy="6.182" stroke="#EC008C" ry=".265" cx="21.038"/>
 <ellipse stroke-width=".35" rx=".354" fill="#EC008C" cy="11.088" stroke="#EC008C" ry=".398" cx="12.788"/>
 <ellipse stroke-width=".35" rx=".354" fill="#EC008C" cy="8.995" stroke="#EC008C" ry=".265" cx="10.788"/>
 <ellipse stroke-width=".35" rx=".178" fill="#EC008C" cy="12.463" stroke="#EC008C" ry=".221" cx="18.913"/>
 <ellipse stroke-width=".35" rx=".929" fill="#EC008C" cy="12.182" stroke="#EC008C" ry=".619" cx="15.445"/>
 <ellipse stroke-width=".35" rx=".752" fill="#EC008C" cy="11.088" stroke="#EC008C" ry=".663" cx="10.008"/>
 <circle stroke-width=".35" r=".221" fill="#EC008C" cy="11.088" stroke="#EC008C" cx="5.82"/>
 <ellipse stroke-width=".35" rx=".441" fill="#EC008C" cy="8.463" stroke="#EC008C" ry=".486" cx="3.663"/>
 <ellipse stroke-width=".35" rx=".619" fill="#EC008C" cy="11.026" stroke="#EC008C" ry=".839" cx="3.101"/>
 <circle stroke-width=".35" r=".221" fill="#EC008C" cy="13.463" stroke="#EC008C" cx="2.07"/>
 <ellipse stroke-width=".35" rx=".796" fill="#EC008C" cy="14.745" stroke="#EC008C" ry=".619" cx="4.413"/>
 <ellipse stroke-width=".35" rx=".266" fill="#EC008C" cy="13.745" stroke="#EC008C" ry=".442" cx="9.663"/>
 <circle stroke-width=".35" r=".354" fill="#EC008C" cy="17.682" stroke="#EC008C" cx="5.663"/>
 <ellipse stroke-width=".35" rx=".178" fill="#EC008C" cy="16.651" stroke="#EC008C" ry=".132" cx="11.788"/>
 <ellipse stroke-width=".35" rx=".662" fill="#EC008C" cy="14.651" stroke="#EC008C" ry=".751" cx="12.258"/>
 <ellipse stroke-width=".35" rx=".795" fill="#EC008C" cy="16.776" stroke="#EC008C" ry=".575" cx="8.913"/>
 <ellipse stroke-width=".35" rx=".132" fill="#EC008C" cy="14.901" stroke="#EC008C" ry=".221" cx="15.195"/>
 <ellipse stroke-width=".35" rx=".839" fill="#EC008C" cy="14.901" stroke="#EC008C" ry=".751" cx="18.383"/>
 <ellipse stroke-width=".35" rx=".494" fill="#EC008C" cy="17.119" stroke="#EC008C" ry=".672" cx="15.829"/>
 <circle stroke-width=".35" r=".177" fill="#EC008C" cy="15.432" stroke="#EC008C" cx="21.601"/>
 <ellipse stroke-width=".35" rx=".265" fill="#EC008C" cy="10.807" stroke="#EC008C" ry=".354" cx="21.788"/>
 <ellipse stroke-width=".35" rx=".662" fill="#EC008C" cy="19.807" stroke="#EC008C" ry=".619" cx="18.758"/>
 <circle stroke-width=".35" r=".221" fill="#EC008C" cy="16.588" stroke="#EC008C" cx="2.133"/>
 <ellipse stroke-width=".35" rx=".662" fill="#EC008C" cy="19.088" stroke="#EC008C" ry=".839" cx="2.82"/>
 <ellipse stroke-width=".35" rx=".487" fill="#EC008C" cy="21.213" stroke="#EC008C" ry=".309" cx="4.57"/>
 <ellipse stroke-width=".35" rx=".531" fill="#EC008C" cy="23.745" stroke="#EC008C" ry=".708" cx="3.163"/>
 <circle stroke-width=".35" r=".221" fill="#EC008C" cy="18.963" stroke="#EC008C" cx="9.195"/>
 <ellipse stroke-width=".35" rx=".743" fill="#EC008C" cy="19.231" stroke="#EC008C" ry=".601" cx="11.892"/>
 <ellipse stroke-width=".35" rx=".311" fill="#EC008C" cy="19.38" stroke="#EC008C" ry=".177" cx="14.886"/>
 <ellipse stroke-width=".35" rx=".132" fill="#EC008C" cy="19.682" stroke="#EC008C" ry=".177" cx="21.32"/>
 <ellipse stroke-width=".35" rx=".265" fill="#EC008C" cy="23.869" stroke="#EC008C" ry=".177" cx="21.913"/>
 <ellipse stroke-width=".35" rx=".752" fill="#EC008C" cy="23.65" stroke="#EC008C" ry=".663" cx="19.133"/>
 <ellipse stroke-width=".35" rx=".795" fill="#EC008C" cy="21.807" stroke="#EC008C" ry=".708" cx="15.851"/>
 <ellipse stroke-width=".35" rx=".176" fill="#EC008C" cy="23.776" stroke="#EC008C" ry=".221" cx="14.101"/>
 <ellipse stroke-width=".35" rx=".53" fill="#EC008C" cy="23.745" stroke="#EC008C" ry=".619" cx="11.663"/>
 <ellipse stroke-width=".35" rx=".354" fill="#EC008C" cy="25.276" stroke="#EC008C" ry=".309" cx="10.163"/>
 <circle stroke-width=".35" r=".221" fill="#EC008C" cy="23.088" stroke="#EC008C" cx="7.445"/>
 <ellipse stroke-width=".35" rx=".31" fill="#EC008C" cy="21.557" stroke="#EC008C" ry=".177" cx="10.945"/>
 <circle stroke-width=".35" r=".221" fill="#EC008C" cy="17.401" stroke="#EC008C" cx="18.758"/>
 <ellipse stroke-width=".35" rx=".929" fill="#EC008C" cy="1.807" stroke="#EC008C" ry=".619" cx="3.695"/>
 <ellipse stroke-width=".35" rx=".743" fill="#EC008C" cy="4.356" stroke="#EC008C" ry=".601" cx="7.892"/>
 <circle stroke-width=".35" r=".354" fill="#EC008C" cy="6.682" stroke="#EC008C" cx="8.913"/>
 <ellipse stroke-width=".35" rx=".53" fill="#EC008C" cy="13.245" stroke="#EC008C" ry=".619" cx="7.288"/>
 <ellipse stroke-width=".35" rx=".494" fill="#EC008C" cy="20.619" stroke="#EC008C" ry=".672" cx="7.454"/>
 <path fill="#EC008C" d="M7.6 25.92c.15-.1.23-.26.23-.4 0-.4-.47-.7-1.04-.7-.6 0-1.06.3-1.06.7 0 .14.08.3.2.4h1.68zM5.94 0h1.68-.02c-.2.15-.5.26-.82.26-.34 0-.64-.1-.84-.27zM0 4.55c.07.02.14.03.22.03.43 0 .8-.32.8-.7 0-.4-.36-.72-.8-.72-.08 0-.15 0-.22.03v1.35zM22.45 4.55V3.2c-.33.07-.58.35-.58.67s.25.6.58.68zM16.5 25.93c0-.1.02-.2.02-.28 0-.56-.32-1-.7-1-.38 0-.7.44-.7 1 0 .1.02.2.03.27h1.33zM16.48 0h-1.33c.08.4.35.72.67.72.32 0 .6-.3.67-.73h-.02zM22.46 13.6c-.07 0-.14.02-.22.02-.44 0-.8-.32-.8-.7 0-.4.36-.72.8-.72.08 0 .15 0 .22.03v1.35zM0 13.6v-1.37c.33.08.57.36.57.68s-.24.6-.57.7zM0 22.23c.06 0 .13.02.2.02.45 0 .8-.24.8-.55s-.35-.54-.8-.54c-.07 0-.14 0-.2.02v1.05zM22.45 22.23v-1.06c-.33.07-.58.28-.58.53s.25.46.58.53zM22.46 18.15c-.07.03-.15.04-.22.04-.44 0-.8-.44-.8-.96s.36-.94.8-.94c.07 0 .15 0 .22.03v1.82zM0 18.14v-1.8c.33.1.57.47.57.9 0 .43-.24.8-.58.9zM22.46 25.92v-.95c-.38 0-.7.44-.7.97v-.02s.7 0 .7 0zM0 25.92v-.95c.37 0 .7.44.7.97v-.02H0zM22.46 0v.94c-.38 0-.7-.44-.7-.97V0s.7 0 .7 0zM0 0v.94C.36.94.7.5.7-.03V0H0z"/>
</svg>
