<?xml version="1.0"?>
<!-- Converted with SVG Converter - Version 0.9.5 (Compiled Fri Feb 21 09:53:38 2020) - Copyright (C) 2011 Nokia -->
<svg xmlns="http://www.w3.org/2000/svg" width="56.693" viewBox="0.208 -56.829 56.693 56.692" height="56.692" baseProfile="tiny" x="0px" version="1.1" xml:space="preserve" xmlns:xlink="http://www.w3.org/1999/xlink" y="0px">
 <g>
  <rect width="56.693" style="fill:none;" height="56.692" x="0.208" y="-56.829"/>
  <circle r="1.063" cy="-4.233" style="fill:none;stroke:#00AEEF;stroke-width:0.58;" cx="45.806"/>
  <circle r="1.063" cy="-16.671" style="fill:none;stroke:#00AEEF;stroke-width:0.58;" cx="11.834"/>
  <circle r="1.063" cy="-2.046" style="fill:none;stroke:#00AEEF;stroke-width:0.58;" cx="11.002"/>
  <circle r="1.063" cy="-3.608" style="fill:none;stroke:#00AEEF;stroke-width:0.58;" cx="28.91"/>
  <circle r="1.063" cy="-10.845" style="fill:none;stroke:#00AEEF;stroke-width:0.58;" cx="23.523"/>
  <circle r="1.063" cy="-8.358" style="fill:none;stroke:#00AEEF;stroke-width:0.58;" cx="36.991"/>
  <circle r="1.063" cy="-13.733" style="fill:none;stroke:#00AEEF;stroke-width:0.58;" cx="42.252"/>
  <circle r="1.063" cy="-15.4" style="fill:none;stroke:#00AEEF;stroke-width:0.58;" cx="51.639"/>
  <circle r="1.063" cy="-19.9" style="fill:none;stroke:#00AEEF;stroke-width:0.58;" cx="31.639"/>
  <line style="fill:none;stroke:#00AEEF;stroke-width:0.58;" x2="7.514" y2="-21.295" y1="-20.962" x1="4.681"/>
  <path style="fill:none;stroke:#00AEEF;stroke-width:0.58;" d="M34.639-15.17c0,0,2.5-3,2.167-4"/>
  <line style="fill:none;stroke:#00AEEF;stroke-width:0.58;" x2="41.22" y2="-20.191" y1="-16.691" x1="42.387"/>
  <path style="fill:none;stroke:#00AEEF;stroke-width:0.58;" d="M52.243-4.577c0.667-0.334-1.5,2-1.333,3.333"/>
  <path style="fill:none;stroke:#00AEEF;stroke-width:0.58;" d="M45.972-9.17c-0.833-0.167,2.833-1.334,3.5-2.167"/>
  <path style="fill:none;stroke:#00AEEF;stroke-width:0.58;" d="M10.472-6.17c-0.834-0.167,2.833-1.334,3.5-2.167"/>
  <path style="fill:none;stroke:#00AEEF;stroke-width:0.58;" d="M24.472-6.837c-1,0-4.833-1.167-4.833-1.167"/>
  <path style="fill:none;stroke:#00AEEF;stroke-width:0.58;" d="M5.991-12.316c0,0-2.833-2.333-2.666-3.333"/>
  <line style="fill:none;stroke:#00AEEF;stroke-width:0.58;" x2="26.181" y2="-19.587" y1="-19.92" x1="21.181"/>
  <path style="fill:none;stroke:#00AEEF;stroke-width:0.58;" d="M35.056-10.107c-1,0-3.667-1.334-3.833-2.167"/>
  <path style="fill:none;stroke:#00AEEF;stroke-width:0.58;" d="M6.37-1.232c-1,0-3.666-1.334-3.833-2.167"/>
  <line style="fill:none;stroke:#00AEEF;stroke-width:0.58;" x2="15.139" y2="-13.337" y1="-16.337" x1="17.139"/>
  <circle r="1.063" cy="-23.504" style="fill:none;stroke:#00AEEF;stroke-width:0.58;" cx="47.641"/>
  <circle r="1.063" cy="-39.671" style="fill:none;stroke:#00AEEF;stroke-width:0.58;" cx="10.762"/>
  <circle r="1.063" cy="-29.005" style="fill:none;stroke:#00AEEF;stroke-width:0.58;" cx="13.932"/>
  <circle r="1.063" cy="-32.994" style="fill:none;stroke:#00AEEF;stroke-width:0.58;" cx="24.638"/>
  <circle r="1.063" cy="-30.838" style="fill:none;stroke:#00AEEF;stroke-width:0.58;" cx="35.254"/>
  <circle r="1.063" cy="-33.004" style="fill:none;stroke:#00AEEF;stroke-width:0.58;" cx="43.368"/>
  <circle r="1.063" cy="-34.671" style="fill:none;stroke:#00AEEF;stroke-width:0.58;" cx="52.035"/>
  <circle r="1.063" cy="-39.171" style="fill:none;stroke:#00AEEF;stroke-width:0.58;" cx="32.035"/>
  <line style="fill:none;stroke:#00AEEF;stroke-width:0.58;" x2="5.076" y2="-40.232" y1="-40.566" x1="7.91"/>
  <path style="fill:none;stroke:#00AEEF;stroke-width:0.58;" d="M35.768-35.273c0,0,3.636-1.426,3.826-2.463"/>
  <path style="fill:none;stroke:#00AEEF;stroke-width:0.58;" d="M32.429-29.754c-0.189,1.037-5.578-1.707-5.578-1.707"/>
  <line style="fill:none;stroke:#00AEEF;stroke-width:0.58;" x2="45.951" y2="-41.92" y1="-39.587" x1="42.951"/>
  <path style="fill:none;stroke:#00AEEF;stroke-width:0.58;" d="M51.306-19.795c-0.167-1.334,2-3.667,1.333-3.334"/>
  <path style="fill:none;stroke:#00AEEF;stroke-width:0.58;" d="M2.014-36.629c0.413-0.206-0.834,0.37-1.806,1.154"/>
  <path style="fill:none;stroke:#00AEEF;stroke-width:0.58;" d="M55.851-33.92c-0.063-0.505,0.423-1.063,1.015-1.544    c0.011-0.009,0.023-0.019,0.034-0.027"/>
  <path style="fill:none;stroke:#00AEEF;stroke-width:0.58;" d="M46.368-28.441c-0.833-0.166,2.833-1.333,3.5-2.166"/>
  <path style="fill:none;stroke:#00AEEF;stroke-width:0.58;" d="M24.22-27.191c0,0-4.167,2.667-5.167,2.667"/>
  <path style="fill:none;stroke:#00AEEF;stroke-width:0.58;" d="M13.565-23.867c-1.731,0.01-3.106-1.324-3.606-1.99"/>
  <path style="fill:none;stroke:#00AEEF;stroke-width:0.58;" d="M6.368-31.274c0,0,3.019-1.583,3.186-2.583"/>
  <line style="fill:none;stroke:#00AEEF;stroke-width:0.58;" x2="26.576" y2="-38.857" y1="-39.191" x1="21.576"/>
  <path style="fill:none;stroke:#00AEEF;stroke-width:0.58;" d="M32.72-23.524c0.167,0.833,3.167-1.5,4.167-1.5"/>
  <line style="fill:none;stroke:#00AEEF;stroke-width:0.58;" x2="18.974" y2="-36.327" y1="-33.327" x1="16.974"/>
  <path style="fill:none;stroke:#00AEEF;stroke-width:0.58;" d="M0.208-26.921c0.574-0.016,1.034-0.485,1.034-1.062    c0-0.577-0.46-1.047-1.034-1.062"/>
  <path style="fill:none;stroke:#00AEEF;stroke-width:0.58;" d="M56.877-29.046c-0.004,0-0.007,0-0.011,0    c-0.587,0-1.063,0.476-1.063,1.062c0,0.587,0.476,1.063,1.063,1.063c0.004,0,0.007,0,0.011,0"/>
  <path style="fill:none;stroke:#00AEEF;stroke-width:0.58;" d="M56.877-26.92c0.008,0,0.016-0.001,0.023-0.001"/>
  <path style="fill:none;stroke:#00AEEF;stroke-width:0.58;" d="M56.877-29.046c0.008,0,0.016,0.001,0.023,0.001"/>
  <circle r="1.063" cy="-8.733" style="fill:none;stroke:#00AEEF;stroke-width:0.58;" cx="2.991"/>
  <path style="fill:none;stroke:#00AEEF;stroke-width:0.58;" d="M55.887-33.92c-0.063-0.504,0.422-1.062,1.013-1.542"/>
  <path style="fill:none;stroke:#00AEEF;stroke-width:0.58;" d="M56.9-29.046c-0.004,0-0.009,0-0.013,0c-0.003,0-0.007,0-0.01,0"/>
  <path style="fill:none;stroke:#00AEEF;stroke-width:0.58;" d="M56.877-26.92c0.003,0,0.007,0,0.01,0c0.004,0,0.009,0,0.013,0"/>
  <circle r="1.063" cy="-45.099" style="fill:none;stroke:#00AEEF;stroke-width:0.58;" cx="45.856"/>
  <circle r="1.063" cy="-49.381" style="fill:none;stroke:#00AEEF;stroke-width:0.58;" cx="13.962"/>
  <circle r="1.063" cy="-42.921" style="fill:none;stroke:#00AEEF;stroke-width:0.58;" cx="22.115"/>
  <circle r="1.063" cy="-48.983" style="fill:none;stroke:#00AEEF;stroke-width:0.58;" cx="1.991"/>
  <circle r="1.063" cy="-50.421" style="fill:none;stroke:#00AEEF;stroke-width:0.58;" cx="24.618"/>
  <circle r="1.063" cy="-51.713" style="fill:none;stroke:#00AEEF;stroke-width:0.58;" cx="34.91"/>
  <circle r="1.063" cy="-53.879" style="fill:none;stroke:#00AEEF;stroke-width:0.58;" cx="43.743"/>
  <circle r="1.063" cy="-55.546" style="fill:none;stroke:#00AEEF;stroke-width:0.58;" cx="52.41"/>
  <path style="fill:none;stroke:#00AEEF;stroke-width:0.58;" d="M37.576-2.691c0.158,0.473-0.382,1.55-0.996,2.555"/>
  <path style="fill:none;stroke:#00AEEF;stroke-width:0.58;" d="M35.118-54.482c0,0,0.868-1.153,1.578-2.347"/>
  <path style="fill:none;stroke:#00AEEF;stroke-width:0.58;" d="M51.681-40.67c-0.167-1.334,2-3.667,1.333-3.334"/>
  <path style="fill:none;stroke:#00AEEF;stroke-width:0.58;" d="M46.743-49.316c-0.833-0.166,2.833-1.333,3.5-2.166"/>
  <path style="fill:none;stroke:#00AEEF;stroke-width:0.58;" d="M23.368-54.129c-0.833-0.166,2.833-1.333,3.5-2.166"/>
  <path style="fill:none;stroke:#00AEEF;stroke-width:0.58;" d="M25.243-46.982c-1,0-4.833-1.167-4.833-1.167"/>
  <path style="fill:none;stroke:#00AEEF;stroke-width:0.58;" d="M14.41-44.119c-1-0.167-3-0.5-3.5-1.167"/>
  <path style="fill:none;stroke:#00AEEF;stroke-width:0.58;" d="M29.054-43.191c0.5,0.667,3-1.333,4-1.166"/>
  <path style="fill:none;stroke:#00AEEF;stroke-width:0.58;" d="M6.743-52.149c0,0,2.167-2.5,2.333-3.5"/>
  <path style="fill:none;stroke:#00AEEF;stroke-width:0.58;" d="M35.743-48.482c0.167,0.833,2.833,2.166,3.833,2.166"/>
  <line style="fill:none;stroke:#00AEEF;stroke-width:0.58;" x2="17.91" y2="-56.482" y1="-53.482" x1="15.91"/>
  <line style="fill:none;stroke:#00AEEF;stroke-width:0.58;" x2="56.9" y2="-35.491" y1="-35.462" x1="56.9"/>
  <circle r="0.525" cy="-43.636" style="fill:#00AEEF;" cx="36.745"/>
  <circle r="0.525" cy="-46.783" style="fill:#00AEEF;" cx="31.575"/>
  <circle r="0.525" cy="-50.764" style="fill:#00AEEF;" cx="28.735"/>
  <circle r="0.525" cy="-54.445" style="fill:#00AEEF;" cx="12.575"/>
  <circle r="0.525" cy="-50.447" style="fill:#00AEEF;" cx="17.124"/>
  <circle r="0.525" cy="-45.531" style="fill:#00AEEF;" cx="7.073"/>
  <circle r="0.526" cy="-48.944" style="fill:#00AEEF;" cx="8.908"/>
  <circle r="0.525" cy="-44.945" style="fill:#00AEEF;" cx="17.404"/>
  <circle r="0.525" cy="-44.616" style="fill:#00AEEF;" cx="40.971"/>
  <circle r="0.525" cy="-48.619" style="fill:#00AEEF;" cx="42.747"/>
  <circle r="0.525" cy="-53.777" style="fill:#00AEEF;" cx="38.741"/>
  <circle r="0.525" cy="-55.779" style="fill:#00AEEF;" cx="31.082"/>
  <circle r="0.525" cy="-47.61" style="fill:#00AEEF;" cx="51.074"/>
  <circle r="0.525" cy="-45.939" style="fill:#00AEEF;" cx="55.746"/>
  <circle r="0.525" cy="-55.728" style="fill:#00AEEF;" cx="47.915"/>
  <circle r="0.525" cy="-51.774" style="fill:#00AEEF;" cx="54.905"/>
  <circle r="0.525" cy="-53.609" style="fill:#00AEEF;" cx="20.072"/>
  <circle r="0.525" cy="-0.988" style="fill:#00AEEF;" cx="43.247"/>
  <circle r="0.525" cy="-27.574" style="fill:#00AEEF;" cx="37.307"/>
  <circle r="0.525" cy="-27.15" style="fill:#00AEEF;" cx="29.554"/>
  <circle r="0.525" cy="-36.738" style="fill:#00AEEF;" cx="42.871"/>
  <circle r="0.525" cy="-36.066" style="fill:#00AEEF;" cx="24.699"/>
  <circle r="0.525" cy="-37.902" style="fill:#00AEEF;" cx="15.364"/>
  <circle r="0.525" cy="-33.58" style="fill:#00AEEF;" cx="12.195"/>
  <circle r="0.525" cy="-29.57" style="fill:#00AEEF;" cx="17.477"/>
  <circle r="0.525" cy="-24.659" style="fill:#00AEEF;" cx="6.7"/>
  <circle r="0.525" cy="-21.063" style="fill:#00AEEF;" cx="11.051"/>
  <circle r="0.525" cy="-28.546" style="fill:#00AEEF;" cx="8.988"/>
  <circle r="0.525" cy="-28.159" style="fill:#00AEEF;" cx="4.058"/>
  <circle r="0.525" cy="-27.826" style="fill:#00AEEF;" cx="20.305"/>
  <circle r="0.525" cy="-23.744" style="fill:#00AEEF;" cx="43.47"/>
  <circle r="0.525" cy="-27.746" style="fill:#00AEEF;" cx="41.652"/>
  <circle r="0.525" cy="-31.826" style="fill:#00AEEF;" cx="39.804"/>
  <circle r="0.525" cy="-34.903" style="fill:#00AEEF;" cx="30.695"/>
  <circle r="0.525" cy="-40.398" style="fill:#00AEEF;" cx="38.7"/>
  <circle r="0.525" cy="-40.076" style="fill:#00AEEF;" cx="19.297"/>
  <circle r="0.525" cy="-26.741" style="fill:#00AEEF;" cx="50.705"/>
  <circle r="0.525" cy="-25.078" style="fill:#00AEEF;" cx="55.373"/>
  <circle r="0.525" cy="-39.4" style="fill:#00AEEF;" cx="54.872"/>
  <circle r="0.525" cy="-35.568" style="fill:#00AEEF;" cx="47.543"/>
  <circle r="0.525" cy="-39.579" style="fill:#00AEEF;" cx="49.7"/>
  <circle r="0.525" cy="-30.897" style="fill:#00AEEF;" cx="54.536"/>
  <circle r="0.525" cy="-32.74" style="fill:#00AEEF;" cx="19.695"/>
  <circle r="0.525" cy="-36.573" style="fill:#00AEEF;" cx="7.201"/>
  <circle r="0.525" cy="-33.069" style="fill:#00AEEF;" cx="4.303"/>
  <circle r="0.525" cy="-22.08" style="fill:#00AEEF;" cx="2.31"/>
  <circle r="0.525" cy="-42.821" style="fill:#00AEEF;" cx="2.181"/>
  <path style="fill:#00AEEF;" d="M56.887-14.857c0,0,0.005-0.002,0.013-0.006"/>
  <circle r="0.525" cy="-3.469" style="fill:#00AEEF;" cx="35.968"/>
  <circle r="0.525" cy="-6.635" style="fill:#00AEEF;" cx="30.814"/>
  <circle r="0.525" cy="-10.633" style="fill:#00AEEF;" cx="27.97"/>
  <circle r="0.525" cy="-16.803" style="fill:#00AEEF;" cx="24.311"/>
  <circle r="0.525" cy="-3.393" style="fill:#00AEEF;" cx="22.801"/>
  <circle r="0.525" cy="-18.632" style="fill:#00AEEF;" cx="15.697"/>
  <circle r="0.525" cy="-12.147" style="fill:#00AEEF;" cx="11.805"/>
  <circle r="0.525" cy="-10.3" style="fill:#00AEEF;" cx="15.636"/>
  <circle r="0.525" cy="-4.675" style="fill:#00AEEF;" cx="6.3"/>
  <circle r="0.525" cy="-8.801" style="fill:#00AEEF;" cx="8.132"/>
  <circle r="0.525" cy="-4.814" style="fill:#00AEEF;" cx="16.642"/>
  <circle r="0.525" cy="-4.466" style="fill:#00AEEF;" cx="41.641"/>
  <circle r="0.525" cy="-10.075" style="fill:#00AEEF;" cx="40.805"/>
  <circle r="0.525" cy="-13.634" style="fill:#00AEEF;" cx="37.26"/>
  <circle r="0.525" cy="-15.644" style="fill:#00AEEF;" cx="30.302"/>
  <circle r="0.525" cy="-21.139" style="fill:#00AEEF;" cx="38.307"/>
  <circle r="0.525" cy="-22.842" style="fill:#00AEEF;" cx="28.904"/>
  <circle r="0.525" cy="-22.63" style="fill:#00AEEF;" cx="23.302"/>
  <circle r="0.461" cy="-55.568" style="fill:#00AEEF;" cx="2.054"/>
  <circle r="0.525" cy="-22.313" style="fill:#00AEEF;" cx="17.639"/>
  <circle r="0.525" cy="-7.456" style="fill:#00AEEF;" cx="50.312"/>
  <circle r="0.525" cy="-5.8" style="fill:#00AEEF;" cx="54.965"/>
  <circle r="0.525" cy="-20.141" style="fill:#00AEEF;" cx="54.458"/>
  <circle r="0.525" cy="-16.302" style="fill:#00AEEF;" cx="47.136"/>
  <circle r="0.525" cy="-20.299" style="fill:#00AEEF;" cx="49.307"/>
  <circle r="0.526" cy="-11.642" style="fill:#00AEEF;" cx="54.139"/>
  <circle r="0.525" cy="-13.469" style="fill:#00AEEF;" cx="19.307"/>
  <circle r="0.525" cy="-17.301" style="fill:#00AEEF;" cx="6.804"/>
  <path style="fill:#00AEEF;" d="M56.887-14.857c0.004,0,0.009-0.001,0.013-0.001"/>
  <path style="fill:#00AEEF;" d="M0.208-14.885c0.179-0.064,0.307-0.233,0.307-0.434"/>
  <line style="fill:#00AEEF;" x2="56.9" y2="-14.863" y1="-14.858" x1="56.9"/>
  <path style="fill:#00AEEF;" d="M56.901-15.317v-0.524c-0.005,0-0.01-0.001-0.016-0.001c-0.29,0-0.525,0.234-0.525,0.525    c0,0.359,0.357,0.525,0.525,0.525"/>
  <line style="fill:#00AEEF;" x2="56.9" y2="-14.863" y1="-15.318" x1="56.9"/>
  <line style="fill:#00AEEF;" x2="0.208" y2="-14.941" y1="-14.885" x1="0.208"/>
  <path style="fill:#00AEEF;" d="M0.562-15.317c0-0.229-0.147-0.423-0.35-0.495l-0.003,0.487l0.003,0.438"/>
 </g>
</svg>
