<?xml version="1.0"?>
<!-- Converted with SVG Converter - Version 0.9.5 (Compiled Fri Feb 21 09:53:38 2020) - Copyright (C) 2011 Nokia -->
<svg xmlns="http://www.w3.org/2000/svg" xml:space="preserve" y="0px" baseProfile="tiny" version="1.1" xmlns:xlink="http://www.w3.org/1999/xlink" viewBox="0 -10.562 10.312 10.312" width="10.312" x="0px" height="10.312">
 <g>
  <rect y="-10.562" style="fill:none;" width="10.312" height="10.312"/>
  <line y1="-7.125" y2="-7.125" x1="1.781" style="fill:none;stroke:#000000;stroke-width:0.5;" x2="0"/>
  <line y1="-1.969" y2="-0.25" x1="3.468" style="fill:none;stroke:#000000;stroke-width:0.5;" x2="1.781"/>
  <line y1="-3.688" y2="-3.688" x1="1.781" style="fill:none;stroke:#000000;stroke-width:0.5;" x2="0"/>
  <line y1="-7.125" y2="-5.406" x1="1.781" style="fill:none;stroke:#000000;stroke-width:0.5;" x2="3.468"/>
  <line y1="-8.844" y2="-7.125" x1="3.468" style="fill:none;stroke:#000000;stroke-width:0.5;" x2="1.781"/>
  <line y1="-8.844" y2="-10.562" x1="3.468" style="fill:none;stroke:#000000;stroke-width:0.5;" x2="1.781"/>
  <line y1="-8.844" y2="-8.844" x1="3.468" style="fill:none;stroke:#000000;stroke-width:0.5;" x2="6.968"/>
  <line y1="-1.969" y2="-1.969" x1="6.968" style="fill:none;stroke:#000000;stroke-width:0.5;" x2="3.468"/>
  <line y1="-5.406" y2="-3.688" x1="3.468" style="fill:none;stroke:#000000;stroke-width:0.5;" x2="1.781"/>
  <line y1="-3.688" y2="-1.969" x1="1.781" style="fill:none;stroke:#000000;stroke-width:0.5;" x2="3.468"/>
  <line y1="-5.406" y2="-5.406" x1="3.468" style="fill:none;stroke:#000000;stroke-width:0.5;" x2="6.968"/>
  <line y1="-5.406" y2="-7.125" x1="6.968" style="fill:none;stroke:#000000;stroke-width:0.5;" x2="8.656"/>
  <line y1="-5.406" y2="-3.688" x1="6.968" style="fill:none;stroke:#000000;stroke-width:0.5;" x2="8.656"/>
  <line y1="-8.844" y2="-7.125" x1="6.968" style="fill:none;stroke:#000000;stroke-width:0.5;" x2="8.656"/>
  <line y1="-8.844" y2="-10.562" x1="6.968" style="fill:none;stroke:#000000;stroke-width:0.5;" x2="8.656"/>
  <line y1="-7.125" y2="-7.125" x1="10.312" style="fill:none;stroke:#000000;stroke-width:0.5;" x2="8.656"/>
  <line y1="-1.969" y2="-0.25" x1="6.968" style="fill:none;stroke:#000000;stroke-width:0.5;" x2="8.656"/>
  <line y1="-1.969" y2="-3.688" x1="6.968" style="fill:none;stroke:#000000;stroke-width:0.5;" x2="8.656"/>
  <line y1="-3.688" y2="-3.688" x1="8.656" style="fill:none;stroke:#000000;stroke-width:0.5;" x2="10.312"/>
  <line y1="-10.562" y2="-10.562" x1="0" style="fill:none;stroke:#000000;stroke-width:0.5;" x2="1.781"/>
  <line y1="-0.25" y2="-0.25" x1="0" style="fill:none;stroke:#000000;stroke-width:0.5;" x2="1.781"/>
  <line y1="-10.562" y2="-10.562" x1="10.312" style="fill:none;stroke:#000000;stroke-width:0.5;" x2="8.656"/>
  <line y1="-0.25" y2="-0.25" x1="8.656" style="fill:none;stroke:#000000;stroke-width:0.5;" x2="10.312"/>
 </g>
</svg>
