<?xml version="1.0"?>
<!-- Converted with SVG Converter - Version 0.9.5 (Compiled Fri Feb 21 09:53:38 2020) - Copyright (C) 2011 Nokia -->
<svg xmlns="http://www.w3.org/2000/svg" x="0px" xml:space="preserve" y="0px" height="10.312" baseProfile="tiny" width="10.312" version="1.1" viewBox="0 -10.562 10.312 10.312" xmlns:xlink="http://www.w3.org/1999/xlink">
 <g>
  <rect y="-10.562" height="10.312" width="10.312" style="fill:none;"/>
  <line x2="0" y1="-7.125" y2="-7.125" x1="1.781" style="fill:none;stroke:#000000;stroke-width:0.5;"/>
  <line x2="1.781" y1="-1.969" y2="-0.25" x1="3.468" style="fill:none;stroke:#000000;stroke-width:0.5;"/>
  <line x2="0" y1="-3.688" y2="-3.688" x1="1.781" style="fill:none;stroke:#000000;stroke-width:0.5;"/>
  <line x2="3.468" y1="-7.125" y2="-5.406" x1="1.781" style="fill:none;stroke:#000000;stroke-width:0.5;"/>
  <line x2="1.781" y1="-8.844" y2="-7.125" x1="3.468" style="fill:none;stroke:#000000;stroke-width:0.5;"/>
  <line x2="1.781" y1="-8.844" y2="-10.562" x1="3.468" style="fill:none;stroke:#000000;stroke-width:0.5;"/>
  <line x2="6.968" y1="-8.844" y2="-8.844" x1="3.468" style="fill:none;stroke:#000000;stroke-width:0.5;"/>
  <line x2="3.468" y1="-1.969" y2="-1.969" x1="6.968" style="fill:none;stroke:#000000;stroke-width:0.5;"/>
  <line x2="1.781" y1="-5.406" y2="-3.688" x1="3.468" style="fill:none;stroke:#000000;stroke-width:0.5;"/>
  <line x2="3.468" y1="-3.688" y2="-1.969" x1="1.781" style="fill:none;stroke:#000000;stroke-width:0.5;"/>
  <line x2="6.968" y1="-5.406" y2="-5.406" x1="3.468" style="fill:none;stroke:#000000;stroke-width:0.5;"/>
  <line x2="8.656" y1="-5.406" y2="-7.125" x1="6.968" style="fill:none;stroke:#000000;stroke-width:0.5;"/>
  <line x2="8.656" y1="-5.406" y2="-3.688" x1="6.968" style="fill:none;stroke:#000000;stroke-width:0.5;"/>
  <line x2="8.656" y1="-8.844" y2="-7.125" x1="6.968" style="fill:none;stroke:#000000;stroke-width:0.5;"/>
  <line x2="8.656" y1="-8.844" y2="-10.562" x1="6.968" style="fill:none;stroke:#000000;stroke-width:0.5;"/>
  <line x2="8.656" y1="-7.125" y2="-7.125" x1="10.312" style="fill:none;stroke:#000000;stroke-width:0.5;"/>
  <line x2="8.656" y1="-1.969" y2="-0.25" x1="6.968" style="fill:none;stroke:#000000;stroke-width:0.5;"/>
  <line x2="8.656" y1="-1.969" y2="-3.688" x1="6.968" style="fill:none;stroke:#000000;stroke-width:0.5;"/>
  <line x2="10.312" y1="-3.688" y2="-3.688" x1="8.656" style="fill:none;stroke:#000000;stroke-width:0.5;"/>
  <line x2="1.781" y1="-10.562" y2="-10.562" x1="0" style="fill:none;stroke:#000000;stroke-width:0.5;"/>
  <line x2="1.781" y1="-0.25" y2="-0.25" x1="0" style="fill:none;stroke:#000000;stroke-width:0.5;"/>
  <line x2="8.656" y1="-10.562" y2="-10.562" x1="10.312" style="fill:none;stroke:#000000;stroke-width:0.5;"/>
  <line x2="10.312" y1="-0.25" y2="-0.25" x1="8.656" style="fill:none;stroke:#000000;stroke-width:0.5;"/>
 </g>
</svg>
