<?xml version="1.0"?>
<!-- Converted with SVG Converter - Version 0.9.6 (Compiled Thu Aug 31 10:01:05 2017) - Copyright (C) 2011 Nokia -->
<svg xmlns="http://www.w3.org/2000/svg" y="0px" viewBox="0 -10.562 10.312 10.312" baseProfile="tiny" width="10.312" x="0px" xmlns:xlink="http://www.w3.org/1999/xlink" version="1.1" height="10.312" xml:space="preserve">
 <g>
  <rect y="-10.562" width="10.312" height="10.312" style="fill:none;"/>
  <line x1="1.781" y2="-7.125" y1="-7.125" style="fill:none;stroke:#000000;stroke-width:0.5;" x2="0"/>
  <line x1="3.468" y2="-0.25" y1="-1.969" style="fill:none;stroke:#000000;stroke-width:0.5;" x2="1.781"/>
  <line x1="1.781" y2="-3.688" y1="-3.688" style="fill:none;stroke:#000000;stroke-width:0.5;" x2="0"/>
  <line x1="1.781" y2="-5.406" y1="-7.125" style="fill:none;stroke:#000000;stroke-width:0.5;" x2="3.468"/>
  <line x1="3.468" y2="-7.125" y1="-8.844" style="fill:none;stroke:#000000;stroke-width:0.5;" x2="1.781"/>
  <line x1="3.468" y2="-10.562" y1="-8.844" style="fill:none;stroke:#000000;stroke-width:0.5;" x2="1.781"/>
  <line x1="3.468" y2="-8.844" y1="-8.844" style="fill:none;stroke:#000000;stroke-width:0.5;" x2="6.968"/>
  <line x1="6.968" y2="-1.969" y1="-1.969" style="fill:none;stroke:#000000;stroke-width:0.5;" x2="3.468"/>
  <line x1="3.468" y2="-3.688" y1="-5.406" style="fill:none;stroke:#000000;stroke-width:0.5;" x2="1.781"/>
  <line x1="1.781" y2="-1.969" y1="-3.688" style="fill:none;stroke:#000000;stroke-width:0.5;" x2="3.468"/>
  <line x1="3.468" y2="-5.406" y1="-5.406" style="fill:none;stroke:#000000;stroke-width:0.5;" x2="6.968"/>
  <line x1="6.968" y2="-7.125" y1="-5.406" style="fill:none;stroke:#000000;stroke-width:0.5;" x2="8.656"/>
  <line x1="6.968" y2="-3.688" y1="-5.406" style="fill:none;stroke:#000000;stroke-width:0.5;" x2="8.656"/>
  <line x1="6.968" y2="-7.125" y1="-8.844" style="fill:none;stroke:#000000;stroke-width:0.5;" x2="8.656"/>
  <line x1="6.968" y2="-10.562" y1="-8.844" style="fill:none;stroke:#000000;stroke-width:0.5;" x2="8.656"/>
  <line x1="10.312" y2="-7.125" y1="-7.125" style="fill:none;stroke:#000000;stroke-width:0.5;" x2="8.656"/>
  <line x1="6.968" y2="-0.25" y1="-1.969" style="fill:none;stroke:#000000;stroke-width:0.5;" x2="8.656"/>
  <line x1="6.968" y2="-3.688" y1="-1.969" style="fill:none;stroke:#000000;stroke-width:0.5;" x2="8.656"/>
  <line x1="8.656" y2="-3.688" y1="-3.688" style="fill:none;stroke:#000000;stroke-width:0.5;" x2="10.312"/>
  <line x1="0" y2="-10.562" y1="-10.562" style="fill:none;stroke:#000000;stroke-width:0.5;" x2="1.781"/>
  <line x1="0" y2="-0.25" y1="-0.25" style="fill:none;stroke:#000000;stroke-width:0.5;" x2="1.781"/>
  <line x1="10.312" y2="-10.562" y1="-10.562" style="fill:none;stroke:#000000;stroke-width:0.5;" x2="8.656"/>
  <line x1="8.656" y2="-0.25" y1="-0.25" style="fill:none;stroke:#000000;stroke-width:0.5;" x2="10.312"/>
 </g>
</svg>
