<?xml version="1.0"?>
<!-- Converted with SVG Converter - Version 0.9.6 (Compiled Thu Aug 31 10:01:05 2017) - Copyright (C) 2011 Nokia -->
<svg xmlns="http://www.w3.org/2000/svg" width="10.312" y="0px" height="10.312" viewBox="0 -10.562 10.312 10.312" version="1.1" x="0px" baseProfile="tiny" xml:space="preserve" xmlns:xlink="http://www.w3.org/1999/xlink">
 <g>
  <rect width="10.312" y="-10.562" style="fill:none;" height="10.312"/>
  <line y2="-7.125" y1="-7.125" x2="0" style="fill:none;stroke:#00AEEF;stroke-width:0.5;" x1="1.781"/>
  <line y2="-0.25" y1="-1.969" x2="1.781" style="fill:none;stroke:#00AEEF;stroke-width:0.5;" x1="3.468"/>
  <line y2="-3.688" y1="-3.688" x2="0" style="fill:none;stroke:#00AEEF;stroke-width:0.5;" x1="1.781"/>
  <line y2="-5.407" y1="-7.125" x2="3.468" style="fill:none;stroke:#00AEEF;stroke-width:0.5;" x1="1.781"/>
  <line y2="-7.125" y1="-8.844" x2="1.781" style="fill:none;stroke:#00AEEF;stroke-width:0.5;" x1="3.468"/>
  <line y2="-10.562" y1="-8.844" x2="1.781" style="fill:none;stroke:#00AEEF;stroke-width:0.5;" x1="3.468"/>
  <line y2="-8.844" y1="-8.844" x2="6.968" style="fill:none;stroke:#00AEEF;stroke-width:0.5;" x1="3.468"/>
  <line y2="-1.969" y1="-1.969" x2="3.468" style="fill:none;stroke:#00AEEF;stroke-width:0.5;" x1="6.968"/>
  <line y2="-3.688" y1="-5.407" x2="1.781" style="fill:none;stroke:#00AEEF;stroke-width:0.5;" x1="3.468"/>
  <line y2="-1.969" y1="-3.688" x2="3.468" style="fill:none;stroke:#00AEEF;stroke-width:0.5;" x1="1.781"/>
  <line y2="-5.407" y1="-5.407" x2="6.968" style="fill:none;stroke:#00AEEF;stroke-width:0.5;" x1="3.468"/>
  <line y2="-7.125" y1="-5.407" x2="8.656" style="fill:none;stroke:#00AEEF;stroke-width:0.5;" x1="6.968"/>
  <line y2="-3.688" y1="-5.407" x2="8.656" style="fill:none;stroke:#00AEEF;stroke-width:0.5;" x1="6.968"/>
  <line y2="-7.125" y1="-8.844" x2="8.656" style="fill:none;stroke:#00AEEF;stroke-width:0.5;" x1="6.968"/>
  <line y2="-10.562" y1="-8.844" x2="8.656" style="fill:none;stroke:#00AEEF;stroke-width:0.5;" x1="6.968"/>
  <line y2="-7.125" y1="-7.125" x2="8.656" style="fill:none;stroke:#00AEEF;stroke-width:0.5;" x1="10.312"/>
  <line y2="-0.25" y1="-1.969" x2="8.656" style="fill:none;stroke:#00AEEF;stroke-width:0.5;" x1="6.968"/>
  <line y2="-3.688" y1="-1.969" x2="8.656" style="fill:none;stroke:#00AEEF;stroke-width:0.5;" x1="6.968"/>
  <line y2="-3.688" y1="-3.688" x2="10.312" style="fill:none;stroke:#00AEEF;stroke-width:0.5;" x1="8.656"/>
  <line y2="-10.562" y1="-10.562" x2="1.781" style="fill:none;stroke:#00AEEF;stroke-width:0.5;" x1="0"/>
  <line y2="-0.25" y1="-0.25" x2="1.781" style="fill:none;stroke:#00AEEF;stroke-width:0.5;" x1="0"/>
  <line y2="-10.562" y1="-10.562" x2="8.656" style="fill:none;stroke:#00AEEF;stroke-width:0.5;" x1="10.312"/>
  <line y2="-0.25" y1="-0.25" x2="10.312" style="fill:none;stroke:#00AEEF;stroke-width:0.5;" x1="8.656"/>
 </g>
</svg>
