<?xml version="1.0" encoding="utf-8"?>
<svg xmlns="http://www.w3.org/2000/svg" version="1.1" x="0px" y="0px" xml:space="preserve" width="20.625" height="20.625" viewBox="0 -20.635 20.625 20.625">
	<g>
		<rect y="-20.635" style="fill:none;" width="20.625" height="20.625"/>
		<polygon style="fill:none;stroke:#000000;stroke-width:0.58;" points="8.372,-2.965 8.356,-5.102 5.924,-5.506 4.693,-3.828    6.272,-2.159   "/>
		<polygon style="fill:none;stroke:#000000;stroke-width:0.58;" points="18.134,-12.373 16.134,-12.498 16.083,-10.052    17.634,-9.248 18.634,-11.123   "/>
		<polygon style="fill:none;stroke:#000000;stroke-width:0.58;" points="1.144,-19.03 1.019,-17.28 2.269,-16.03 4.144,-16.53    4.019,-19.28   "/>
		<polygon style="fill:none;stroke:#000000;stroke-width:0.58;" points="2.375,-10.03 3.167,-8.718 4.667,-9.135 5.375,-10.28    3.375,-11.28   "/>
		<polygon style="fill:none;stroke:#000000;stroke-width:0.58;" points="10.246,-13.731 8.896,-12.493 9.795,-11.143    11.483,-11.256 11.933,-12.606   "/>
		<polygon style="fill:none;stroke:#000000;stroke-width:0.58;" points="13.633,-17.385 13.508,-19.26 12.133,-19.635    10.883,-18.385 11.508,-16.76   "/>
		<polygon style="fill:none;stroke:#000000;stroke-width:0.58;" points="15.479,-3.718 16.083,-2.135 18.167,-1.468 18.729,-4.093    16.854,-4.593   "/>
		<path d="M16.378,0c0.004-0.023,0.007-0.047,0.007-0.072c0-0.223-0.182-0.405-0.405-0.405c-0.224,0-0.405,0.183-0.405,0.405    c0,0.025,0.003,0.049,0.007,0.072"/>
		<circle cx="13.792" cy="-2.197" r="0.354"/>
		<circle cx="10.729" cy="-1.697" r="0.405"/>
		<circle cx="14.604" cy="-5.947" r="0.405"/>
		<circle cx="18.354" cy="-7.447" r="0.405"/>
		<circle cx="20.167" cy="-5.447" r="0.406"/>
		<circle cx="11.229" cy="-15.572" r="0.406"/>
		<circle cx="14.604" cy="-9.947" r="0.405"/>
		<circle cx="12.5" cy="-7.655" r="0.405"/>
		<circle cx="11.417" cy="-9.739" r="0.405"/>
		<path d="M7.331-20.643c-0.004,0.023-0.007,0.047-0.007,0.072c0,0.223,0.182,0.404,0.405,0.404c0.224,0,0.405-0.182,0.405-0.404    c0-0.025-0.003-0.049-0.007-0.072"/>
		<path d="M4.028-20.629c-0.024,0.202-0.195,0.357-0.402,0.357s-0.378-0.155-0.401-0.357"/>
		<circle cx="8.667" cy="-14.239" r="0.405"/>
		<circle cx="5.167" cy="-14.823" r="0.405"/>
		<circle cx="1.26" cy="-13.352" r="0.405"/>
		<circle cx="5.354" cy="-11.948" r="0.405"/>
		<circle cx="5.979" cy="-8.322" r="0.405"/>
		<circle cx="4.479" cy="-6.072" r="0.406"/>
		<circle cx="1" cy="-7.427" r="0.405"/>
		<circle cx="1.875" cy="-4.802" r="0.405"/>
		<circle cx="0.812" cy="-1.739" r="0.405"/>
		<circle cx="9.167" cy="-7.239" r="0.405"/>
		<circle cx="11.479" cy="-4.697" r="0.406"/>
		<path d="M20.634-17.263c-0.024-0.004-0.047-0.006-0.072-0.006c-0.224,0-0.404,0.182-0.404,0.405c0,0.224,0.181,0.404,0.404,0.404    c0.025,0,0.049-0.002,0.072-0.006"/>
		<path d="M15.581-20.645c-0.004,0.023-0.007,0.047-0.007,0.072c0,0.224,0.182,0.404,0.405,0.404c0.224,0,0.405-0.181,0.405-0.404    c0-0.025-0.003-0.049-0.007-0.072"/>
		<path d="M0.009-16.464c0.189-0.034,0.334-0.199,0.334-0.398c0-0.199-0.145-0.365-0.334-0.399"/>
		<path d="M4.027-0.003C4.028-0.019,4.03-0.034,4.03-0.052c0-0.223-0.182-0.404-0.405-0.404c-0.224,0-0.405,0.182-0.405,0.404    c0,0.018,0.001,0.033,0.004,0.049"/>
		<path d="M7.336-0.021C7.379-0.198,7.539-0.331,7.73-0.331c0.19,0,0.351,0.133,0.393,0.311"/>
		<circle cx="7.604" cy="-10.447" r="0.405"/>
		<circle cx="5.583" cy="-18.739" r="0.405"/>
		<circle cx="8" cy="-17.489" r="0.405"/>
		<circle cx="15.25" cy="-19.114" r="0.405"/>
		<circle cx="18.688" cy="-19.302" r="0.405"/>
		<circle cx="16.437" cy="-17.177" r="0.405"/>
		<circle cx="18.604" cy="-15.072" r="0.406"/>
		<circle cx="16.104" cy="-14.947" r="0.406"/>
		<circle cx="13.479" cy="-13.322" r="0.406"/>
	</g>
</svg>
