<?xml version="1.0" encoding="utf-8"?>
<svg xmlns="http://www.w3.org/2000/svg" version="1.1" x="0px" y="0px" xml:space="preserve" width="54.125" height="54.125" viewBox="1.888 -55.518 54.125 54.125">
	<g>
		<rect x="1.888" y="-55.518" style="fill:none;" width="54.125" height="54.125"/>

			<line style="fill:none;stroke:#000000;stroke-width:0.7;stroke-linecap:round;" x1="27.105" y1="-29.17" x2="27.105" y2="-29.17"/>
		<line style="fill:none;stroke:#000000;stroke-width:0.7;stroke-linecap:round;" x1="2.72" y1="-43.255" x2="2.72" y2="-43.255"/>
		<line style="fill:none;stroke:#000000;stroke-width:0.7;stroke-linecap:round;" x1="5.25" y1="-41.825" x2="5.25" y2="-41.825"/>

			<line style="fill:none;stroke:#000000;stroke-width:0.7;stroke-linecap:round;" x1="7.945" y1="-43.585" x2="7.945" y2="-43.585"/>

			<line style="fill:none;stroke:#000000;stroke-width:0.7;stroke-linecap:round;" x1="7.945" y1="-40.505" x2="7.945" y2="-40.505"/>
		<line style="fill:none;stroke:#000000;stroke-width:0.7;stroke-linecap:round;" x1="11.3" y1="-42.595" x2="11.3" y2="-42.595"/>
		<line style="fill:none;stroke:#000000;stroke-width:0.7;stroke-linecap:round;" x1="14.27" y1="-43.64" x2="14.27" y2="-43.64"/>

			<line style="fill:none;stroke:#000000;stroke-width:0.7;stroke-linecap:round;" x1="11.355" y1="-39.075" x2="11.355" y2="-39.075"/>

			<line style="fill:none;stroke:#000000;stroke-width:0.7;stroke-linecap:round;" x1="14.733" y1="-37.067" x2="14.733" y2="-37.067"/>

			<line style="fill:none;stroke:#000000;stroke-width:0.7;stroke-linecap:round;" x1="14.567" y1="-40.233" x2="14.567" y2="-40.233"/>

			<line style="fill:none;stroke:#000000;stroke-width:0.7;stroke-linecap:round;" x1="17.13" y1="-42.375" x2="17.13" y2="-42.375"/>
		<line style="fill:none;stroke:#000000;stroke-width:0.7;stroke-linecap:round;" x1="20.212" y1="-44.4" x2="20.212" y2="-44.4"/>

			<line style="fill:none;stroke:#000000;stroke-width:0.7;stroke-linecap:round;" x1="6.075" y1="-38.415" x2="6.075" y2="-38.415"/>
		<line style="fill:none;stroke:#000000;stroke-width:0.7;stroke-linecap:round;" x1="3.05" y1="-38.91" x2="3.05" y2="-38.91"/>
		<line style="fill:none;stroke:#000000;stroke-width:0.7;stroke-linecap:round;" x1="4.535" y1="-35.94" x2="4.535" y2="-35.94"/>
		<line style="fill:none;stroke:#000000;stroke-width:0.7;stroke-linecap:round;" x1="7.67" y1="-35.28" x2="7.67" y2="-35.28"/>

			<line style="fill:none;stroke:#000000;stroke-width:0.7;stroke-linecap:round;" x1="10.915" y1="-35.39" x2="10.915" y2="-35.39"/>

			<line style="fill:none;stroke:#000000;stroke-width:0.7;stroke-linecap:round;" x1="18.12" y1="-37.535" x2="18.12" y2="-37.535"/>

			<line style="fill:none;stroke:#000000;stroke-width:0.7;stroke-linecap:round;" x1="16.733" y1="-34.567" x2="16.733" y2="-34.567"/>

			<line style="fill:none;stroke:#000000;stroke-width:0.7;stroke-linecap:round;" x1="13.995" y1="-33.245" x2="13.995" y2="-33.245"/>

			<line style="fill:none;stroke:#000000;stroke-width:0.7;stroke-linecap:round;" x1="19.66" y1="-34.455" x2="19.66" y2="-34.455"/>

			<line style="fill:none;stroke:#000000;stroke-width:0.7;stroke-linecap:round;" x1="21.53" y1="-37.315" x2="21.53" y2="-37.315"/>

			<line style="fill:none;stroke:#000000;stroke-width:0.7;stroke-linecap:round;" x1="20.485" y1="-41.66" x2="20.485" y2="-41.66"/>

			<line style="fill:none;stroke:#000000;stroke-width:0.7;stroke-linecap:round;" x1="11.275" y1="-46.088" x2="11.275" y2="-46.088"/>
		<line style="fill:none;stroke:#000000;stroke-width:0.7;stroke-linecap:round;" x1="24.83" y1="-43.2" x2="24.83" y2="-43.2"/>

			<line style="fill:none;stroke:#000000;stroke-width:0.7;stroke-linecap:round;" x1="23.455" y1="-40.45" x2="23.455" y2="-40.45"/>
		<line style="fill:none;stroke:#000000;stroke-width:0.7;stroke-linecap:round;" x1="24.5" y1="-37.315" x2="24.5" y2="-37.315"/>

			<line style="fill:none;stroke:#000000;stroke-width:0.7;stroke-linecap:round;" x1="22.96" y1="-34.345" x2="22.96" y2="-34.345"/>

			<line style="fill:none;stroke:#000000;stroke-width:0.7;stroke-linecap:round;" x1="26.865" y1="-40.065" x2="26.865" y2="-40.065"/>

			<line style="fill:none;stroke:#000000;stroke-width:0.7;stroke-linecap:round;" x1="28.845" y1="-42.65" x2="28.845" y2="-42.65"/>
		<line style="fill:none;stroke:#000000;stroke-width:0.7;stroke-linecap:round;" x1="28.02" y1="-37.37" x2="28.02" y2="-37.37"/>

			<line style="fill:none;stroke:#000000;stroke-width:0.7;stroke-linecap:round;" x1="26.205" y1="-34.18" x2="26.205" y2="-34.18"/>
		<line style="fill:none;stroke:#000000;stroke-width:0.7;stroke-linecap:round;" x1="30.55" y1="-39.13" x2="30.55" y2="-39.13"/>
		<line style="fill:none;stroke:#000000;stroke-width:0.7;stroke-linecap:round;" x1="2.94" y1="-33.135" x2="2.94" y2="-33.135"/>
		<line style="fill:none;stroke:#000000;stroke-width:0.7;stroke-linecap:round;" x1="6.13" y1="-32.64" x2="6.13" y2="-32.64"/>
		<line style="fill:none;stroke:#000000;stroke-width:0.7;stroke-linecap:round;" x1="9.375" y1="-32.42" x2="9.375" y2="-32.42"/>

			<line style="fill:none;stroke:#000000;stroke-width:0.7;stroke-linecap:round;" x1="32.42" y1="-42.045" x2="32.42" y2="-42.045"/>
		<line style="fill:none;stroke:#000000;stroke-width:0.7;stroke-linecap:round;" x1="32.15" y1="-36.9" x2="32.15" y2="-36.9"/>
		<line style="fill:none;stroke:#000000;stroke-width:0.7;stroke-linecap:round;" x1="34.9" y1="-38.4" x2="34.9" y2="-38.4"/>

			<line style="fill:none;stroke:#000000;stroke-width:0.7;stroke-linecap:round;" x1="33.41" y1="-33.685" x2="33.41" y2="-33.685"/>

			<line style="fill:none;stroke:#000000;stroke-width:0.7;stroke-linecap:round;" x1="36.765" y1="-34.62" x2="36.765" y2="-34.62"/>

			<line style="fill:none;stroke:#000000;stroke-width:0.7;stroke-linecap:round;" x1="38.195" y1="-37.975" x2="38.195" y2="-37.975"/>

			<line style="fill:none;stroke:#000000;stroke-width:0.7;stroke-linecap:round;" x1="38.085" y1="-42.485" x2="38.085" y2="-42.485"/>

			<line style="fill:none;stroke:#000000;stroke-width:0.7;stroke-linecap:round;" x1="41.165" y1="-39.625" x2="41.165" y2="-39.625"/>

			<line style="fill:none;stroke:#000000;stroke-width:0.7;stroke-linecap:round;" x1="43.145" y1="-42.65" x2="43.145" y2="-42.65"/>

			<line style="fill:none;stroke:#000000;stroke-width:0.7;stroke-linecap:round;" x1="45.235" y1="-39.515" x2="45.235" y2="-39.515"/>

			<line style="fill:none;stroke:#000000;stroke-width:0.7;stroke-linecap:round;" x1="42.43" y1="-36.215" x2="42.43" y2="-36.215"/>

			<line style="fill:none;stroke:#000000;stroke-width:0.7;stroke-linecap:round;" x1="40.065" y1="-33.465" x2="40.065" y2="-33.465"/>

			<line style="fill:none;stroke:#000000;stroke-width:0.7;stroke-linecap:round;" x1="46.72" y1="-42.375" x2="46.72" y2="-42.375"/>
		<line style="fill:none;stroke:#000000;stroke-width:0.7;stroke-linecap:round;" x1="50.65" y1="-46.4" x2="50.65" y2="-46.4"/>
		<line style="fill:none;stroke:#000000;stroke-width:0.7;stroke-linecap:round;" x1="53.9" y1="-49.15" x2="53.9" y2="-49.15"/>
		<line style="fill:none;stroke:#000000;stroke-width:0.7;stroke-linecap:round;" x1="54.4" y1="-45.15" x2="54.4" y2="-45.15"/>

			<line style="fill:none;stroke:#000000;stroke-width:0.7;stroke-linecap:round;" x1="51.525" y1="-50.65" x2="51.525" y2="-50.65"/>
		<line style="fill:none;stroke:#000000;stroke-width:0.7;stroke-linecap:round;" x1="48.4" y1="-48.15" x2="48.4" y2="-48.15"/>
		<line style="fill:none;stroke:#000000;stroke-width:0.7;stroke-linecap:round;" x1="44.9" y1="-49.775" x2="44.9" y2="-49.775"/>

			<line style="fill:none;stroke:#000000;stroke-width:0.7;stroke-linecap:round;" x1="47.588" y1="-51.025" x2="47.588" y2="-51.025"/>

			<line style="fill:none;stroke:#000000;stroke-width:0.7;stroke-linecap:round;" x1="54.338" y1="-53.588" x2="54.338" y2="-53.588"/>

			<line style="fill:none;stroke:#000000;stroke-width:0.7;stroke-linecap:round;" x1="49.025" y1="-54.275" x2="49.025" y2="-54.275"/>

			<line style="fill:none;stroke:#000000;stroke-width:0.7;stroke-linecap:round;" x1="45.213" y1="-53.838" x2="45.213" y2="-53.838"/>

			<line style="fill:none;stroke:#000000;stroke-width:0.7;stroke-linecap:round;" x1="45.088" y1="-45.588" x2="45.088" y2="-45.588"/>
		<line style="fill:none;stroke:#000000;stroke-width:0.7;stroke-linecap:round;" x1="42.213" y1="-51.9" x2="42.213" y2="-51.9"/>
		<line style="fill:none;stroke:#000000;stroke-width:0.7;stroke-linecap:round;" x1="39.15" y1="-53.4" x2="39.15" y2="-53.4"/>

			<line style="fill:none;stroke:#000000;stroke-width:0.7;stroke-linecap:round;" x1="36.233" y1="-54.67" x2="36.233" y2="-54.67"/>

			<line style="fill:none;stroke:#000000;stroke-width:0.7;stroke-linecap:round;" x1="38.838" y1="-50.463" x2="38.838" y2="-50.463"/>

			<line style="fill:none;stroke:#000000;stroke-width:0.7;stroke-linecap:round;" x1="37.15" y1="-47.713" x2="37.15" y2="-47.713"/>

			<line style="fill:none;stroke:#000000;stroke-width:0.7;stroke-linecap:round;" x1="34.963" y1="-44.338" x2="34.963" y2="-44.338"/>

			<line style="fill:none;stroke:#000000;stroke-width:0.7;stroke-linecap:round;" x1="33.775" y1="-48.15" x2="33.775" y2="-48.15"/>

			<line style="fill:none;stroke:#000000;stroke-width:0.7;stroke-linecap:round;" x1="33.463" y1="-51.775" x2="33.463" y2="-51.775"/>

			<line style="fill:none;stroke:#000000;stroke-width:0.7;stroke-linecap:round;" x1="29.65" y1="-49.275" x2="29.65" y2="-49.275"/>
		<line style="fill:none;stroke:#000000;stroke-width:0.7;stroke-linecap:round;" x1="31.275" y1="-45.4" x2="31.275" y2="-45.4"/>
		<line style="fill:none;stroke:#000000;stroke-width:0.7;stroke-linecap:round;" x1="31.4" y1="-54.4" x2="31.4" y2="-54.4"/>
		<line style="fill:none;stroke:#000000;stroke-width:0.7;stroke-linecap:round;" x1="30.15" y1="-51.4" x2="30.15" y2="-51.4"/>
		<line style="fill:none;stroke:#000000;stroke-width:0.7;stroke-linecap:round;" x1="27.9" y1="-54.15" x2="27.9" y2="-54.15"/>

			<line style="fill:none;stroke:#000000;stroke-width:0.7;stroke-linecap:round;" x1="24.587" y1="-54.713" x2="24.587" y2="-54.713"/>

			<line style="fill:none;stroke:#000000;stroke-width:0.7;stroke-linecap:round;" x1="26.212" y1="-48.65" x2="26.212" y2="-48.65"/>

			<line style="fill:none;stroke:#000000;stroke-width:0.7;stroke-linecap:round;" x1="24.337" y1="-46.213" x2="24.337" y2="-46.213"/>

			<line style="fill:none;stroke:#000000;stroke-width:0.7;stroke-linecap:round;" x1="22.837" y1="-48.525" x2="22.837" y2="-48.525"/>

			<line style="fill:none;stroke:#000000;stroke-width:0.7;stroke-linecap:round;" x1="24.712" y1="-51.713" x2="24.712" y2="-51.713"/>

			<line style="fill:none;stroke:#000000;stroke-width:0.7;stroke-linecap:round;" x1="20.837" y1="-51.713" x2="20.837" y2="-51.713"/>
		<line style="fill:none;stroke:#000000;stroke-width:0.7;stroke-linecap:round;" x1="7.9" y1="-46.463" x2="7.9" y2="-46.463"/>
		<line style="fill:none;stroke:#000000;stroke-width:0.7;stroke-linecap:round;" x1="4.9" y1="-45.463" x2="4.9" y2="-45.463"/>
		<line style="fill:none;stroke:#000000;stroke-width:0.7;stroke-linecap:round;" x1="2.4" y1="-47.525" x2="2.4" y2="-47.525"/>
		<line style="fill:none;stroke:#000000;stroke-width:0.7;stroke-linecap:round;" x1="10.212" y1="-48.9" x2="10.212" y2="-48.9"/>

			<line style="fill:none;stroke:#000000;stroke-width:0.7;stroke-linecap:round;" x1="12.712" y1="-51.025" x2="12.712" y2="-51.025"/>

			<line style="fill:none;stroke:#000000;stroke-width:0.7;stroke-linecap:round;" x1="11.15" y1="-54.713" x2="11.15" y2="-54.713"/>
		<line style="fill:none;stroke:#000000;stroke-width:0.7;stroke-linecap:round;" x1="9.65" y1="-52.15" x2="9.65" y2="-52.15"/>

			<line style="fill:none;stroke:#000000;stroke-width:0.7;stroke-linecap:round;" x1="7.567" y1="-55.067" x2="7.567" y2="-55.067"/>

			<line style="fill:none;stroke:#000000;stroke-width:0.7;stroke-linecap:round;" x1="5.713" y1="-50.025" x2="5.713" y2="-50.025"/>
		<line style="fill:none;stroke:#000000;stroke-width:0.7;stroke-linecap:round;" x1="6.4" y1="-52.4" x2="6.4" y2="-52.4"/>
		<line style="fill:none;stroke:#000000;stroke-width:0.7;stroke-linecap:round;" x1="3.4" y1="-54.9" x2="3.4" y2="-54.9"/>
		<line style="fill:none;stroke:#000000;stroke-width:0.7;stroke-linecap:round;" x1="2.4" y1="-51.275" x2="2.4" y2="-51.275"/>

			<line style="fill:none;stroke:#000000;stroke-width:0.7;stroke-linecap:round;" x1="19.962" y1="-49.525" x2="19.962" y2="-49.525"/>

			<line style="fill:none;stroke:#000000;stroke-width:0.7;stroke-linecap:round;" x1="19.837" y1="-47.213" x2="19.837" y2="-47.213"/>

			<line style="fill:none;stroke:#000000;stroke-width:0.7;stroke-linecap:round;" x1="15.837" y1="-45.838" x2="15.837" y2="-45.838"/>
		<line style="fill:none;stroke:#000000;stroke-width:0.7;stroke-linecap:round;" x1="16.525" y1="-49.9" x2="16.525" y2="-49.9"/>
		<line style="fill:none;stroke:#000000;stroke-width:0.7;stroke-linecap:round;" x1="18.212" y1="-53.9" x2="18.212" y2="-53.9"/>
		<line style="fill:none;stroke:#000000;stroke-width:0.7;stroke-linecap:round;" x1="15.9" y1="-52.4" x2="15.9" y2="-52.4"/>
		<line style="fill:none;stroke:#000000;stroke-width:0.7;stroke-linecap:round;" x1="14.4" y1="-54.9" x2="14.4" y2="-54.9"/>

			<line style="fill:none;stroke:#000000;stroke-width:0.7;stroke-linecap:round;" x1="41.525" y1="-48.525" x2="41.525" y2="-48.525"/>
		<line style="fill:none;stroke:#000000;stroke-width:0.7;stroke-linecap:round;" x1="39.9" y1="-45.15" x2="39.9" y2="-45.15"/>
		<line style="fill:none;stroke:#000000;stroke-width:0.7;stroke-linecap:round;" x1="49.58" y1="-40.34" x2="49.58" y2="-40.34"/>
		<line style="fill:none;stroke:#000000;stroke-width:0.7;stroke-linecap:round;" x1="50.15" y1="-43.9" x2="50.15" y2="-43.9"/>
		<line style="fill:none;stroke:#000000;stroke-width:0.7;stroke-linecap:round;" x1="53.9" y1="-26.65" x2="53.9" y2="-26.65"/>
		<line style="fill:none;stroke:#000000;stroke-width:0.7;stroke-linecap:round;" x1="54.9" y1="-23.9" x2="54.9" y2="-23.9"/>
		<line style="fill:none;stroke:#000000;stroke-width:0.7;stroke-linecap:round;" x1="54.65" y1="-30.15" x2="54.65" y2="-30.15"/>

			<line style="fill:none;stroke:#000000;stroke-width:0.7;stroke-linecap:round;" x1="48.81" y1="-36.985" x2="48.81" y2="-36.985"/>
		<line style="fill:none;stroke:#000000;stroke-width:0.7;stroke-linecap:round;" x1="52.65" y1="-38.65" x2="52.65" y2="-38.65"/>
		<line style="fill:none;stroke:#000000;stroke-width:0.7;stroke-linecap:round;" x1="52.4" y1="-32.9" x2="52.4" y2="-32.9"/>
		<line style="fill:none;stroke:#000000;stroke-width:0.7;stroke-linecap:round;" x1="51.9" y1="-5.15" x2="51.9" y2="-5.15"/>

			<line style="fill:none;stroke:#000000;stroke-width:0.7;stroke-linecap:round;" x1="49.745" y1="-33.74" x2="49.745" y2="-33.74"/>
		<line style="fill:none;stroke:#000000;stroke-width:0.7;stroke-linecap:round;" x1="54.4" y1="-35.15" x2="54.4" y2="-35.15"/>
		<line style="fill:none;stroke:#000000;stroke-width:0.7;stroke-linecap:round;" x1="49.25" y1="-27.69" x2="49.25" y2="-27.69"/>

			<line style="fill:none;stroke:#000000;stroke-width:0.7;stroke-linecap:round;" x1="47.847" y1="-31.32" x2="47.847" y2="-31.32"/>

			<line style="fill:none;stroke:#000000;stroke-width:0.7;stroke-linecap:round;" x1="44.052" y1="-32.145" x2="44.052" y2="-32.145"/>

			<line style="fill:none;stroke:#000000;stroke-width:0.7;stroke-linecap:round;" x1="41.825" y1="-29.175" x2="41.825" y2="-29.175"/>

			<line style="fill:none;stroke:#000000;stroke-width:0.7;stroke-linecap:round;" x1="45.29" y1="-28.597" x2="45.29" y2="-28.597"/>

			<line style="fill:none;stroke:#000000;stroke-width:0.7;stroke-linecap:round;" x1="35.06" y1="-30.495" x2="35.06" y2="-30.495"/>

			<line style="fill:none;stroke:#000000;stroke-width:0.7;stroke-linecap:round;" x1="32.007" y1="-30.743" x2="32.007" y2="-30.743"/>

			<line style="fill:none;stroke:#000000;stroke-width:0.7;stroke-linecap:round;" x1="28.542" y1="-31.073" x2="28.542" y2="-31.073"/>

			<line style="fill:none;stroke:#000000;stroke-width:0.7;stroke-linecap:round;" x1="24.747" y1="-31.237" x2="24.747" y2="-31.237"/>

			<line style="fill:none;stroke:#000000;stroke-width:0.7;stroke-linecap:round;" x1="21.86" y1="-31.815" x2="21.86" y2="-31.815"/>

			<line style="fill:none;stroke:#000000;stroke-width:0.7;stroke-linecap:round;" x1="17.817" y1="-31.733" x2="17.817" y2="-31.733"/>

			<line style="fill:none;stroke:#000000;stroke-width:0.7;stroke-linecap:round;" x1="13.527" y1="-30.577" x2="13.527" y2="-30.577"/>
		<line style="fill:none;stroke:#000000;stroke-width:0.7;stroke-linecap:round;" x1="4.452" y1="-30.33" x2="4.452" y2="-30.33"/>

			<line style="fill:none;stroke:#000000;stroke-width:0.7;stroke-linecap:round;" x1="7.422" y1="-29.093" x2="7.422" y2="-29.093"/>
		<line style="fill:none;stroke:#000000;stroke-width:0.7;stroke-linecap:round;" x1="6.35" y1="-26.452" x2="6.35" y2="-26.452"/>

			<line style="fill:none;stroke:#000000;stroke-width:0.7;stroke-linecap:round;" x1="3.462" y1="-27.608" x2="3.462" y2="-27.608"/>
		<line style="fill:none;stroke:#000000;stroke-width:0.7;stroke-linecap:round;" x1="4.37" y1="-24.638" x2="4.37" y2="-24.638"/>
		<line style="fill:none;stroke:#000000;stroke-width:0.7;stroke-linecap:round;" x1="8" y1="-23.317" x2="8" y2="-23.317"/>

			<line style="fill:none;stroke:#000000;stroke-width:0.7;stroke-linecap:round;" x1="9.732" y1="-26.288" x2="9.732" y2="-26.288"/>
		<line style="fill:none;stroke:#000000;stroke-width:0.7;stroke-linecap:round;" x1="11.3" y1="-23.647" x2="11.3" y2="-23.647"/>

			<line style="fill:none;stroke:#000000;stroke-width:0.7;stroke-linecap:round;" x1="12.867" y1="-27.112" x2="12.867" y2="-27.112"/>

			<line style="fill:none;stroke:#000000;stroke-width:0.7;stroke-linecap:round;" x1="14.187" y1="-24.308" x2="14.187" y2="-24.308"/>

			<line style="fill:none;stroke:#000000;stroke-width:0.7;stroke-linecap:round;" x1="16.415" y1="-25.298" x2="16.415" y2="-25.298"/>

			<line style="fill:none;stroke:#000000;stroke-width:0.7;stroke-linecap:round;" x1="15.507" y1="-28.02" x2="15.507" y2="-28.02"/>

			<line style="fill:none;stroke:#000000;stroke-width:0.7;stroke-linecap:round;" x1="18.56" y1="-27.525" x2="18.56" y2="-27.525"/>
		<line style="fill:none;stroke:#000000;stroke-width:0.7;stroke-linecap:round;" x1="21.53" y1="-26.37" x2="21.53" y2="-26.37"/>

			<line style="fill:none;stroke:#000000;stroke-width:0.7;stroke-linecap:round;" x1="23.097" y1="-28.597" x2="23.097" y2="-28.597"/>

			<line style="fill:none;stroke:#000000;stroke-width:0.7;stroke-linecap:round;" x1="19.962" y1="-24.142" x2="19.962" y2="-24.142"/>

			<line style="fill:none;stroke:#000000;stroke-width:0.7;stroke-linecap:round;" x1="17.487" y1="-22.823" x2="17.487" y2="-22.823"/>

			<line style="fill:none;stroke:#000000;stroke-width:0.7;stroke-linecap:round;" x1="14.765" y1="-21.585" x2="14.765" y2="-21.585"/>

			<line style="fill:none;stroke:#000000;stroke-width:0.7;stroke-linecap:round;" x1="12.207" y1="-21.42" x2="12.207" y2="-21.42"/>

			<line style="fill:none;stroke:#000000;stroke-width:0.7;stroke-linecap:round;" x1="9.072" y1="-20.925" x2="9.072" y2="-20.925"/>

			<line style="fill:none;stroke:#000000;stroke-width:0.7;stroke-linecap:round;" x1="6.432" y1="-20.347" x2="6.432" y2="-20.347"/>

			<line style="fill:none;stroke:#000000;stroke-width:0.7;stroke-linecap:round;" x1="3.545" y1="-18.945" x2="3.545" y2="-18.945"/>

			<line style="fill:none;stroke:#000000;stroke-width:0.7;stroke-linecap:round;" x1="2.802" y1="-15.645" x2="2.802" y2="-15.645"/>

			<line style="fill:none;stroke:#000000;stroke-width:0.7;stroke-linecap:round;" x1="5.525" y1="-17.048" x2="5.525" y2="-17.048"/>

			<line style="fill:none;stroke:#000000;stroke-width:0.7;stroke-linecap:round;" x1="8.577" y1="-17.955" x2="8.577" y2="-17.955"/>
		<line style="fill:none;stroke:#000000;stroke-width:0.7;stroke-linecap:round;" x1="8.33" y1="-15.315" x2="8.33" y2="-15.315"/>

			<line style="fill:none;stroke:#000000;stroke-width:0.7;stroke-linecap:round;" x1="5.855" y1="-13.665" x2="5.855" y2="-13.665"/>
		<line style="fill:none;stroke:#000000;stroke-width:0.7;stroke-linecap:round;" x1="3.05" y1="-11.932" x2="3.05" y2="-11.932"/>
		<line style="fill:none;stroke:#000000;stroke-width:0.7;stroke-linecap:round;" x1="5.855" y1="-10.86" x2="5.855" y2="-10.86"/>

			<line style="fill:none;stroke:#000000;stroke-width:0.7;stroke-linecap:round;" x1="9.155" y1="-12.427" x2="9.155" y2="-12.427"/>
		<line style="fill:none;stroke:#000000;stroke-width:0.7;stroke-linecap:round;" x1="11.3" y1="-14.242" x2="11.3" y2="-14.242"/>

			<line style="fill:none;stroke:#000000;stroke-width:0.7;stroke-linecap:round;" x1="12.537" y1="-11.355" x2="12.537" y2="-11.355"/>

			<line style="fill:none;stroke:#000000;stroke-width:0.7;stroke-linecap:round;" x1="15.095" y1="-12.922" x2="15.095" y2="-12.922"/>

			<line style="fill:none;stroke:#000000;stroke-width:0.7;stroke-linecap:round;" x1="17.075" y1="-11.107" x2="17.075" y2="-11.107"/>

			<line style="fill:none;stroke:#000000;stroke-width:0.7;stroke-linecap:round;" x1="19.302" y1="-13.335" x2="19.302" y2="-13.335"/>

			<line style="fill:none;stroke:#000000;stroke-width:0.7;stroke-linecap:round;" x1="16.415" y1="-15.397" x2="16.415" y2="-15.397"/>

			<line style="fill:none;stroke:#000000;stroke-width:0.7;stroke-linecap:round;" x1="13.692" y1="-15.975" x2="13.692" y2="-15.975"/>

			<line style="fill:none;stroke:#000000;stroke-width:0.7;stroke-linecap:round;" x1="13.527" y1="-18.945" x2="13.527" y2="-18.945"/>

			<line style="fill:none;stroke:#000000;stroke-width:0.7;stroke-linecap:round;" x1="16.497" y1="-18.532" x2="16.497" y2="-18.532"/>

			<line style="fill:none;stroke:#000000;stroke-width:0.7;stroke-linecap:round;" x1="18.972" y1="-19.935" x2="18.972" y2="-19.935"/>

			<line style="fill:none;stroke:#000000;stroke-width:0.7;stroke-linecap:round;" x1="19.467" y1="-16.388" x2="19.467" y2="-16.388"/>

			<line style="fill:none;stroke:#000000;stroke-width:0.7;stroke-linecap:round;" x1="22.685" y1="-16.718" x2="22.685" y2="-16.718"/>

			<line style="fill:none;stroke:#000000;stroke-width:0.7;stroke-linecap:round;" x1="22.107" y1="-14.077" x2="22.107" y2="-14.077"/>

			<line style="fill:none;stroke:#000000;stroke-width:0.7;stroke-linecap:round;" x1="23.015" y1="-11.437" x2="23.015" y2="-11.437"/>

			<line style="fill:none;stroke:#000000;stroke-width:0.7;stroke-linecap:round;" x1="25.242" y1="-12.592" x2="25.242" y2="-12.592"/>

			<line style="fill:none;stroke:#000000;stroke-width:0.7;stroke-linecap:round;" x1="28.295" y1="-13.17" x2="28.295" y2="-13.17"/>
		<line style="fill:none;stroke:#000000;stroke-width:0.7;stroke-linecap:round;" x1="27.47" y1="-10.2" x2="27.47" y2="-10.2"/>

			<line style="fill:none;stroke:#000000;stroke-width:0.7;stroke-linecap:round;" x1="25.572" y1="-15.397" x2="25.572" y2="-15.397"/>

			<line style="fill:none;stroke:#000000;stroke-width:0.7;stroke-linecap:round;" x1="26.232" y1="-18.038" x2="26.232" y2="-18.038"/>

			<line style="fill:none;stroke:#000000;stroke-width:0.7;stroke-linecap:round;" x1="28.625" y1="-21.09" x2="28.625" y2="-21.09"/>

			<line style="fill:none;stroke:#000000;stroke-width:0.7;stroke-linecap:round;" x1="24.665" y1="-20.43" x2="24.665" y2="-20.43"/>

			<line style="fill:none;stroke:#000000;stroke-width:0.7;stroke-linecap:round;" x1="22.602" y1="-22.08" x2="22.602" y2="-22.08"/>

			<line style="fill:none;stroke:#000000;stroke-width:0.7;stroke-linecap:round;" x1="23.427" y1="-24.555" x2="23.427" y2="-24.555"/>

			<line style="fill:none;stroke:#000000;stroke-width:0.7;stroke-linecap:round;" x1="26.397" y1="-22.987" x2="26.397" y2="-22.987"/>

			<line style="fill:none;stroke:#000000;stroke-width:0.7;stroke-linecap:round;" x1="28.46" y1="-24.968" x2="28.46" y2="-24.968"/>

			<line style="fill:none;stroke:#000000;stroke-width:0.7;stroke-linecap:round;" x1="25.902" y1="-26.618" x2="25.902" y2="-26.618"/>

			<line style="fill:none;stroke:#000000;stroke-width:0.7;stroke-linecap:round;" x1="30.605" y1="-27.772" x2="30.605" y2="-27.772"/>

			<line style="fill:none;stroke:#000000;stroke-width:0.7;stroke-linecap:round;" x1="33.575" y1="-28.02" x2="33.575" y2="-28.02"/>

			<line style="fill:none;stroke:#000000;stroke-width:0.7;stroke-linecap:round;" x1="34.977" y1="-24.472" x2="34.977" y2="-24.472"/>

			<line style="fill:none;stroke:#000000;stroke-width:0.7;stroke-linecap:round;" x1="32.915" y1="-22.327" x2="32.915" y2="-22.327"/>

			<line style="fill:none;stroke:#000000;stroke-width:0.7;stroke-linecap:round;" x1="34.152" y1="-19.522" x2="34.152" y2="-19.522"/>

			<line style="fill:none;stroke:#000000;stroke-width:0.7;stroke-linecap:round;" x1="36.627" y1="-20.677" x2="36.627" y2="-20.677"/>

			<line style="fill:none;stroke:#000000;stroke-width:0.7;stroke-linecap:round;" x1="38.69" y1="-23.647" x2="38.69" y2="-23.647"/>

			<line style="fill:none;stroke:#000000;stroke-width:0.7;stroke-linecap:round;" x1="37.535" y1="-27.442" x2="37.535" y2="-27.442"/>

			<line style="fill:none;stroke:#000000;stroke-width:0.7;stroke-linecap:round;" x1="41.165" y1="-26.452" x2="41.165" y2="-26.452"/>

			<line style="fill:none;stroke:#000000;stroke-width:0.7;stroke-linecap:round;" x1="45.372" y1="-25.628" x2="45.372" y2="-25.628"/>

			<line style="fill:none;stroke:#000000;stroke-width:0.7;stroke-linecap:round;" x1="42.072" y1="-22.905" x2="42.072" y2="-22.905"/>

			<line style="fill:none;stroke:#000000;stroke-width:0.7;stroke-linecap:round;" x1="40.175" y1="-20.347" x2="40.175" y2="-20.347"/>

			<line style="fill:none;stroke:#000000;stroke-width:0.7;stroke-linecap:round;" x1="43.722" y1="-19.77" x2="43.722" y2="-19.77"/>

			<line style="fill:none;stroke:#000000;stroke-width:0.7;stroke-linecap:round;" x1="47.187" y1="-19.11" x2="47.187" y2="-19.11"/>

			<line style="fill:none;stroke:#000000;stroke-width:0.7;stroke-linecap:round;" x1="49.992" y1="-21.173" x2="49.992" y2="-21.173"/>

			<line style="fill:none;stroke:#000000;stroke-width:0.7;stroke-linecap:round;" x1="54.117" y1="-20.677" x2="54.117" y2="-20.677"/>

			<line style="fill:none;stroke:#000000;stroke-width:0.7;stroke-linecap:round;" x1="51.807" y1="-23.812" x2="51.807" y2="-23.812"/>

			<line style="fill:none;stroke:#000000;stroke-width:0.7;stroke-linecap:round;" x1="48.672" y1="-24.472" x2="48.672" y2="-24.472"/>

			<line style="fill:none;stroke:#000000;stroke-width:0.7;stroke-linecap:round;" x1="49.085" y1="-16.14" x2="49.085" y2="-16.14"/>
		<line style="fill:none;stroke:#000000;stroke-width:0.7;stroke-linecap:round;" x1="51.233" y1="-18.9" x2="51.233" y2="-18.9"/>

			<line style="fill:none;stroke:#000000;stroke-width:0.7;stroke-linecap:round;" x1="51.642" y1="-13.252" x2="51.642" y2="-13.252"/>
		<line style="fill:none;stroke:#000000;stroke-width:0.7;stroke-linecap:round;" x1="53.787" y1="-10.2" x2="53.787" y2="-10.2"/>

			<line style="fill:none;stroke:#000000;stroke-width:0.7;stroke-linecap:round;" x1="49.167" y1="-11.685" x2="49.167" y2="-11.685"/>

			<line style="fill:none;stroke:#000000;stroke-width:0.7;stroke-linecap:round;" x1="46.032" y1="-14.242" x2="46.032" y2="-14.242"/>

			<line style="fill:none;stroke:#000000;stroke-width:0.7;stroke-linecap:round;" x1="44.795" y1="-16.882" x2="44.795" y2="-16.882"/>

			<line style="fill:none;stroke:#000000;stroke-width:0.7;stroke-linecap:round;" x1="41.247" y1="-16.635" x2="41.247" y2="-16.635"/>

			<line style="fill:none;stroke:#000000;stroke-width:0.7;stroke-linecap:round;" x1="42.732" y1="-13.747" x2="42.732" y2="-13.747"/>

			<line style="fill:none;stroke:#000000;stroke-width:0.7;stroke-linecap:round;" x1="43.475" y1="-10.942" x2="43.475" y2="-10.942"/>

			<line style="fill:none;stroke:#000000;stroke-width:0.7;stroke-linecap:round;" x1="40.175" y1="-11.437" x2="40.175" y2="-11.437"/>

			<line style="fill:none;stroke:#000000;stroke-width:0.7;stroke-linecap:round;" x1="38.442" y1="-13.995" x2="38.442" y2="-13.995"/>

			<line style="fill:none;stroke:#000000;stroke-width:0.7;stroke-linecap:round;" x1="35.637" y1="-15.81" x2="35.637" y2="-15.81"/>

			<line style="fill:none;stroke:#000000;stroke-width:0.7;stroke-linecap:round;" x1="36.71" y1="-12.097" x2="36.71" y2="-12.097"/>

			<line style="fill:none;stroke:#000000;stroke-width:0.7;stroke-linecap:round;" x1="32.997" y1="-13.912" x2="32.997" y2="-13.912"/>
		<line style="fill:none;stroke:#000000;stroke-width:0.7;stroke-linecap:round;" x1="29.15" y1="-16.65" x2="29.15" y2="-16.65"/>

			<line style="fill:none;stroke:#000000;stroke-width:0.7;stroke-linecap:round;" x1="31.347" y1="-10.777" x2="31.347" y2="-10.777"/>

			<line style="fill:none;stroke:#000000;stroke-width:0.7;stroke-linecap:round;" x1="34.482" y1="-10.035" x2="34.482" y2="-10.035"/>
		<line style="fill:none;stroke:#000000;stroke-width:0.7;stroke-linecap:round;" x1="54.447" y1="-5.91" x2="54.447" y2="-5.91"/>

			<line style="fill:none;stroke:#000000;stroke-width:0.7;stroke-linecap:round;" x1="54.447" y1="-2.445" x2="54.447" y2="-2.445"/>
		<line style="fill:none;stroke:#000000;stroke-width:0.7;stroke-linecap:round;" x1="50.817" y1="-8.22" x2="50.817" y2="-8.22"/>

			<line style="fill:none;stroke:#000000;stroke-width:0.7;stroke-linecap:round;" x1="47.682" y1="-6.075" x2="47.682" y2="-6.075"/>
		<line style="fill:none;stroke:#000000;stroke-width:0.7;stroke-linecap:round;" x1="49.332" y1="-3.27" x2="49.332" y2="-3.27"/>

			<line style="fill:none;stroke:#000000;stroke-width:0.7;stroke-linecap:round;" x1="46.197" y1="-9.375" x2="46.197" y2="-9.375"/>

			<line style="fill:none;stroke:#000000;stroke-width:0.7;stroke-linecap:round;" x1="42.815" y1="-7.477" x2="42.815" y2="-7.477"/>
		<line style="fill:none;stroke:#000000;stroke-width:0.7;stroke-linecap:round;" x1="44.217" y1="-4.59" x2="44.217" y2="-4.59"/>

			<line style="fill:none;stroke:#000000;stroke-width:0.7;stroke-linecap:round;" x1="46.567" y1="-3.067" x2="46.567" y2="-3.067"/>
		<line style="fill:none;stroke:#000000;stroke-width:0.7;stroke-linecap:round;" x1="41.9" y1="-2.4" x2="41.9" y2="-2.4"/>

			<line style="fill:none;stroke:#000000;stroke-width:0.7;stroke-linecap:round;" x1="39.233" y1="-2.733" x2="39.233" y2="-2.733"/>
		<line style="fill:none;stroke:#000000;stroke-width:0.7;stroke-linecap:round;" x1="39.9" y1="-4.733" x2="39.9" y2="-4.733"/>
		<line style="fill:none;stroke:#000000;stroke-width:0.7;stroke-linecap:round;" x1="36.9" y1="-4.4" x2="36.9" y2="-4.4"/>
		<line style="fill:none;stroke:#000000;stroke-width:0.7;stroke-linecap:round;" x1="31.15" y1="-19.4" x2="31.15" y2="-19.4"/>
		<line style="fill:none;stroke:#000000;stroke-width:0.7;stroke-linecap:round;" x1="32.9" y1="-16.9" x2="32.9" y2="-16.9"/>
		<line style="fill:none;stroke:#000000;stroke-width:0.7;stroke-linecap:round;" x1="33.41" y1="-3.105" x2="33.41" y2="-3.105"/>

			<line style="fill:none;stroke:#000000;stroke-width:0.7;stroke-linecap:round;" x1="34.977" y1="-6.487" x2="34.977" y2="-6.487"/>

			<line style="fill:none;stroke:#000000;stroke-width:0.7;stroke-linecap:round;" x1="38.277" y1="-9.045" x2="38.277" y2="-9.045"/>

			<line style="fill:none;stroke:#000000;stroke-width:0.7;stroke-linecap:round;" x1="32.172" y1="-7.807" x2="32.172" y2="-7.807"/>

			<line style="fill:none;stroke:#000000;stroke-width:0.7;stroke-linecap:round;" x1="28.625" y1="-7.642" x2="28.625" y2="-7.642"/>

			<line style="fill:none;stroke:#000000;stroke-width:0.7;stroke-linecap:round;" x1="26.067" y1="-6.075" x2="26.067" y2="-6.075"/>
		<line style="fill:none;stroke:#000000;stroke-width:0.7;stroke-linecap:round;" x1="27.8" y1="-2.857" x2="27.8" y2="-2.857"/>
		<line style="fill:none;stroke:#000000;stroke-width:0.7;stroke-linecap:round;" x1="24.417" y1="-8.55" x2="24.417" y2="-8.55"/>
		<line style="fill:none;stroke:#000000;stroke-width:0.7;stroke-linecap:round;" x1="22.19" y1="-7.065" x2="22.19" y2="-7.065"/>
		<line style="fill:none;stroke:#000000;stroke-width:0.7;stroke-linecap:round;" x1="23.84" y1="-4.177" x2="23.84" y2="-4.177"/>
		<line style="fill:none;stroke:#000000;stroke-width:0.7;stroke-linecap:round;" x1="21.9" y1="-2.733" x2="21.9" y2="-2.733"/>

			<line style="fill:none;stroke:#000000;stroke-width:0.7;stroke-linecap:round;" x1="18.807" y1="-8.137" x2="18.807" y2="-8.137"/>
		<line style="fill:none;stroke:#000000;stroke-width:0.7;stroke-linecap:round;" x1="20.21" y1="-5.167" x2="20.21" y2="-5.167"/>

			<line style="fill:none;stroke:#000000;stroke-width:0.7;stroke-linecap:round;" x1="18.725" y1="-2.692" x2="18.725" y2="-2.692"/>

			<line style="fill:none;stroke:#000000;stroke-width:0.7;stroke-linecap:round;" x1="16.745" y1="-5.827" x2="16.745" y2="-5.827"/>

			<line style="fill:none;stroke:#000000;stroke-width:0.7;stroke-linecap:round;" x1="15.177" y1="-8.962" x2="15.177" y2="-8.962"/>
		<line style="fill:none;stroke:#000000;stroke-width:0.7;stroke-linecap:round;" x1="11.795" y1="-8.88" x2="11.795" y2="-8.88"/>
		<line style="fill:none;stroke:#000000;stroke-width:0.7;stroke-linecap:round;" x1="8.66" y1="-9.622" x2="8.66" y2="-9.622"/>
		<line style="fill:none;stroke:#000000;stroke-width:0.7;stroke-linecap:round;" x1="2.72" y1="-8.467" x2="2.72" y2="-8.467"/>
		<line style="fill:none;stroke:#000000;stroke-width:0.7;stroke-linecap:round;" x1="7.175" y1="-6.322" x2="7.175" y2="-6.322"/>
		<line style="fill:none;stroke:#000000;stroke-width:0.7;stroke-linecap:round;" x1="10.31" y1="-6.24" x2="10.31" y2="-6.24"/>
		<line style="fill:none;stroke:#000000;stroke-width:0.7;stroke-linecap:round;" x1="9.65" y1="-2.94" x2="9.65" y2="-2.94"/>
		<line style="fill:none;stroke:#000000;stroke-width:0.7;stroke-linecap:round;" x1="14.27" y1="-2.857" x2="14.27" y2="-2.857"/>
		<line style="fill:none;stroke:#000000;stroke-width:0.7;stroke-linecap:round;" x1="6.432" y1="-3.765" x2="6.432" y2="-3.765"/>
		<line style="fill:none;stroke:#000000;stroke-width:0.7;stroke-linecap:round;" x1="3.132" y1="-5.167" x2="3.132" y2="-5.167"/>
		<line style="fill:none;stroke:#000000;stroke-width:0.7;stroke-linecap:round;" x1="3.71" y1="-2.692" x2="3.71" y2="-2.692"/>
		<path style="fill:none;stroke:#000000;stroke-width:0.3;" d="M22.15-54.65c1.312,0,1.562,1.562,0.188,1.625    S21.087-54.588,22.15-54.65z"/>
		<path style="fill:none;stroke:#000000;stroke-width:0.3;" d="M35.65-52.838c1.312-0.062,1.375,1.625,0.125,1.625    S34.525-52.713,35.65-52.838z"/>
		<path style="fill:none;stroke:#000000;stroke-width:0.3;" d="M43.713-47.963c1.312-0.062,1.625,1.562,0.312,1.625    S42.713-47.9,43.713-47.963z"/>
		<path style="fill:none;stroke:#000000;stroke-width:0.3;" d="M28.275-46.025c1-0.062,1.438,1.375,0.188,1.5    S27.087-45.9,28.275-46.025z"/>
		<path style="fill:none;stroke:#000000;stroke-width:0.3;" d="M35.963-41.963c0.812-0.062,1.562,1.438,0.125,1.562    S34.838-41.838,35.963-41.963z"/>
		<path style="fill:none;stroke:#000000;stroke-width:0.3;" d="M14.025-49.275c1.188,0.062,1.25,1.5,0.125,1.562    S12.837-49.213,14.025-49.275z"/>
		<path style="fill:none;stroke:#000000;stroke-width:0.3;" d="M4.588-48.213c1,0.062,1.5,1.188,0.188,1.438    S3.275-48.088,4.588-48.213z"/>
		<path style="fill:none;stroke:#000000;stroke-width:0.3;" d="M18.837-40.713c1.062-0.062,1.312,1.5,0.062,1.562    S17.962-40.65,18.837-40.713z"/>
		<path style="fill:none;stroke:#000000;stroke-width:0.3;" d="M9.025-39.775c1.25,0,1.625,1.375,0.125,1.562    S7.65-39.713,9.025-39.775z"/>
		<path style="fill:none;stroke:#000000;stroke-width:0.3;" d="M30.025-35.088c0,1.312-1.812,1.25-1.938,0.062    S29.9-36.338,30.025-35.088z"/>
		<path style="fill:none;stroke:#000000;stroke-width:0.3;" d="M38.088-31.587c1.188,0,1.312,1.5,0.125,1.625    S36.713-31.525,38.088-31.587z"/>
		<path style="fill:none;stroke:#000000;stroke-width:0.3;" d="M47.275-35.4c0,1.25-1.75,1.375-1.875,0.125    S47.15-36.713,47.275-35.4z"/>
		<path style="fill:none;stroke:#000000;stroke-width:0.3;" d="M52.9-42.65c1.125-0.062,1.625,1.5,0.188,1.5    S51.838-42.525,52.9-42.65z"/>
		<path style="fill:none;stroke:#000000;stroke-width:0.3;" d="M51.213-52.963c-1.116,0.154-1.188-1.375-0.312-1.5    S53.025-53.213,51.213-52.963z"/>
		<path style="fill:none;stroke:#000000;stroke-width:0.3;" d="M51.9-30.15c1.188-0.062,1.312,1.438,0.188,1.5    S50.65-29.9,51.9-30.15z"/>
		<path style="fill:none;stroke:#000000;stroke-width:0.3;" d="M46.9-22.4c0,1.125-1.938,1.125-1.938,0.062S46.838-23.775,46.9-22.4    z"/>
		<path style="fill:none;stroke:#000000;stroke-width:0.3;" d="M38.525-18.4c1.312-0.062,1.25,1.438,0.188,1.5    S37.15-18.275,38.525-18.4z"/>
		<path style="fill:none;stroke:#000000;stroke-width:0.3;" d="M54.775-15.525c0,1.312-1.875,1.188-1.938,0.125    S54.588-16.775,54.775-15.525z"/>
		<path style="fill:none;stroke:#000000;stroke-width:0.3;" d="M31.025-25.837c1.188,0,1.563,1.5,0.188,1.625    C29.837-24.087,29.962-25.775,31.025-25.837z"/>
		<path style="fill:none;stroke:#000000;stroke-width:0.3;" d="M21.087-30.15c0,1.312-1.812,1.375-1.812,0.062    S21.025-31.587,21.087-30.15z"/>
		<path style="fill:none;stroke:#000000;stroke-width:0.3;" d="M30.712-15.212c0.875,0,1.625,1.812,0.062,1.75    C29.212-13.525,29.275-15.275,30.712-15.212z"/>
		<path style="fill:none;stroke:#000000;stroke-width:0.3;" d="M21.65-21.025c1.062,0.062,1.375,1.688,0.062,1.75    S20.587-20.962,21.65-21.025z"/>
		<path style="fill:none;stroke:#000000;stroke-width:0.3;" d="M12.025-17.587c0,1.125-1.875,1.625-1.938,0.125    S11.9-18.9,12.025-17.587z"/>
		<path style="fill:none;stroke:#000000;stroke-width:0.3;" d="M11.525-29.212c0.062,1.688-1.75,1.625-1.812,0.312    S11.275-30.212,11.525-29.212z"/>
		<path style="fill:none;stroke:#000000;stroke-width:0.3;" d="M3.963-23.275c1.125,0,1.375,2,0.062,2S2.338-23.087,3.963-23.275z"/>
		<path style="fill:none;stroke:#000000;stroke-width:0.3;" d="M6.025-8.087C6.088-6.963,3.9-6.65,3.838-7.963    S5.9-9.587,6.025-8.087z"/>
		<path style="fill:none;stroke:#000000;stroke-width:0.3;" d="M14.212-6.025c1.125,0,1.5,1.688,0.125,1.812    S12.587-5.9,14.212-6.025z"/>
		<path style="fill:none;stroke:#000000;stroke-width:0.3;" d="M21.337-11.275c1.188-0.062,1.25,1.562,0.125,1.625    S19.66-11.113,21.337-11.275z"/>
		<path style="fill:none;stroke:#000000;stroke-width:0.3;" d="M31.712-5.338c0,1.188-1.875,1.312-1.875,0.125    S31.65-6.525,31.712-5.338z"/>
		<path style="fill:none;stroke:#000000;stroke-width:0.3;" d="M40.525-7.588c0,1.25-1.75,1.25-1.875,0.125    S40.338-9.025,40.525-7.588z"/>
		<path style="fill:none;stroke:#000000;stroke-width:0.3;" d="M49.15-10.337c1.188-0.062,1.438,1.625,0.25,1.75    S47.713-10.212,49.15-10.337z"/>
	</g>
</svg>
