<?xml version="1.0"?>
<!-- Converted with SVG Converter - Version 0.9.5 (Compiled Fri Feb 21 09:53:38 2020) - Copyright (C) 2011 Nokia -->
<svg xmlns="http://www.w3.org/2000/svg" y="0px" xml:space="preserve" x="0px" version="1.1" height="54.125" baseProfile="tiny" width="54.125" viewBox="1.525 -55.525 54.125 54.125" xmlns:xlink="http://www.w3.org/1999/xlink">
 <g>
  <rect y="-55.525" x="1.525" height="54.125" style="fill:none;" width="54.125"/>
  <line x1="29.983" y2="-45.067" style="fill:none;stroke:#000000;stroke-width:0.7;stroke-linecap:round;" x2="29.983" y1="-45.067"/>
  <line x1="24.9" y2="-47.65" style="fill:none;stroke:#000000;stroke-width:0.7;stroke-linecap:round;" x2="24.9" y1="-47.65"/>
  <line x1="23.775" y2="-43.275" style="fill:none;stroke:#000000;stroke-width:0.7;stroke-linecap:round;" x2="23.775" y1="-43.275"/>
  <line x1="20.025" y2="-47.65" style="fill:none;stroke:#000000;stroke-width:0.7;stroke-linecap:round;" x2="20.025" y1="-47.65"/>
  <line x1="22.65" y2="-51.775" style="fill:none;stroke:#000000;stroke-width:0.7;stroke-linecap:round;" x2="22.65" y1="-51.775"/>
  <line x1="17.275" y2="-50.775" style="fill:none;stroke:#000000;stroke-width:0.7;stroke-linecap:round;" x2="17.275" y1="-50.775"/>
  <line x1="14.65" y2="-47.025" style="fill:none;stroke:#000000;stroke-width:0.7;stroke-linecap:round;" x2="14.65" y1="-47.025"/>
  <line x1="12.525" y2="-52.65" style="fill:none;stroke:#000000;stroke-width:0.7;stroke-linecap:round;" x2="12.525" y1="-52.65"/>
  <line x1="18.775" y2="-54.275" style="fill:none;stroke:#000000;stroke-width:0.7;stroke-linecap:round;" x2="18.775" y1="-54.275"/>
  <line x1="7.275" y2="-53.9" style="fill:none;stroke:#000000;stroke-width:0.7;stroke-linecap:round;" x2="7.275" y1="-53.9"/>
  <line x1="2.775" y2="-53.65" style="fill:none;stroke:#000000;stroke-width:0.7;stroke-linecap:round;" x2="2.775" y1="-53.65"/>
  <line x1="4.15" y2="-48.025" style="fill:none;stroke:#000000;stroke-width:0.7;stroke-linecap:round;" x2="4.15" y1="-48.025"/>
  <line x1="9.65" y2="-46.025" style="fill:none;stroke:#000000;stroke-width:0.7;stroke-linecap:round;" x2="9.65" y1="-46.025"/>
  <line x1="11.025" y2="-40.65" style="fill:none;stroke:#000000;stroke-width:0.7;stroke-linecap:round;" x2="11.025" y1="-40.65"/>
  <line x1="7.15" y2="-42.65" style="fill:none;stroke:#000000;stroke-width:0.7;stroke-linecap:round;" x2="7.15" y1="-42.65"/>
  <line x1="9.15" y2="-30.025" style="fill:none;stroke:#000000;stroke-width:0.7;stroke-linecap:round;" x2="9.15" y1="-30.025"/>
  <line x1="14.4" y2="-29.775" style="fill:none;stroke:#000000;stroke-width:0.7;stroke-linecap:round;" x2="14.4" y1="-29.775"/>
  <line x1="11.025" y2="-25.9" style="fill:none;stroke:#000000;stroke-width:0.7;stroke-linecap:round;" x2="11.025" y1="-25.9"/>
  <line x1="6.025" y2="-26.4" style="fill:none;stroke:#000000;stroke-width:0.7;stroke-linecap:round;" x2="6.025" y1="-26.4"/>
  <line x1="2.4" y2="-29.15" style="fill:none;stroke:#000000;stroke-width:0.7;stroke-linecap:round;" x2="2.4" y1="-29.15"/>
  <line x1="2.9" y2="-22.9" style="fill:none;stroke:#000000;stroke-width:0.7;stroke-linecap:round;" x2="2.9" y1="-22.9"/>
  <line x1="8.4" y2="-21.525" style="fill:none;stroke:#000000;stroke-width:0.7;stroke-linecap:round;" x2="8.4" y1="-21.525"/>
  <line x1="12.525" y2="-18.775" style="fill:none;stroke:#000000;stroke-width:0.7;stroke-linecap:round;" x2="12.525" y1="-18.775"/>
  <line x1="8.4" y2="-16.275" style="fill:none;stroke:#000000;stroke-width:0.7;stroke-linecap:round;" x2="8.4" y1="-16.275"/>
  <line x1="3.525" y2="-16.15" style="fill:none;stroke:#000000;stroke-width:0.7;stroke-linecap:round;" x2="3.525" y1="-16.15"/>
  <line x1="6.15" y2="-12.025" style="fill:none;stroke:#000000;stroke-width:0.7;stroke-linecap:round;" x2="6.15" y1="-12.025"/>
  <line x1="3.65" y2="-7.775" style="fill:none;stroke:#000000;stroke-width:0.7;stroke-linecap:round;" x2="3.65" y1="-7.775"/>
  <line x1="9.65" y2="-8.525" style="fill:none;stroke:#000000;stroke-width:0.7;stroke-linecap:round;" x2="9.65" y1="-8.525"/>
  <line x1="10.775" y2="-4.025" style="fill:none;stroke:#000000;stroke-width:0.7;stroke-linecap:round;" x2="10.775" y1="-4.025"/>
  <line x1="14.525" y2="-7.65" style="fill:none;stroke:#000000;stroke-width:0.7;stroke-linecap:round;" x2="14.525" y1="-7.65"/>
  <line x1="15.275" y2="-13.15" style="fill:none;stroke:#000000;stroke-width:0.7;stroke-linecap:round;" x2="15.275" y1="-13.15"/>
  <line x1="17.025" y2="-19.525" style="fill:none;stroke:#000000;stroke-width:0.7;stroke-linecap:round;" x2="17.025" y1="-19.525"/>
  <line x1="17.775" y2="-25.9" style="fill:none;stroke:#000000;stroke-width:0.7;stroke-linecap:round;" x2="17.775" y1="-25.9"/>
  <line x1="19.65" y2="-31.025" style="fill:none;stroke:#000000;stroke-width:0.7;stroke-linecap:round;" x2="19.65" y1="-31.025"/>
  <line x1="24.025" y2="-34.275" style="fill:none;stroke:#000000;stroke-width:0.7;stroke-linecap:round;" x2="24.025" y1="-34.275"/>
  <line x1="22.9" y2="-26.9" style="fill:none;stroke:#000000;stroke-width:0.7;stroke-linecap:round;" x2="22.9" y1="-26.9"/>
  <line x1="22.025" y2="-22.15" style="fill:none;stroke:#000000;stroke-width:0.7;stroke-linecap:round;" x2="22.025" y1="-22.15"/>
  <line x1="25.275" y2="-18.275" style="fill:none;stroke:#000000;stroke-width:0.7;stroke-linecap:round;" x2="25.275" y1="-18.275"/>
  <line x1="22.65" y2="-13.15" style="fill:none;stroke:#000000;stroke-width:0.7;stroke-linecap:round;" x2="22.65" y1="-13.15"/>
  <line x1="18.65" y2="-10.15" style="fill:none;stroke:#000000;stroke-width:0.7;stroke-linecap:round;" x2="18.65" y1="-10.15"/>
  <line x1="23.65" y2="-8.525" style="fill:none;stroke:#000000;stroke-width:0.7;stroke-linecap:round;" x2="23.65" y1="-8.525"/>
  <line x1="20.4" y2="-3.65" style="fill:none;stroke:#000000;stroke-width:0.7;stroke-linecap:round;" x2="20.4" y1="-3.65"/>
  <line x1="26.9" y2="-3.4" style="fill:none;stroke:#000000;stroke-width:0.7;stroke-linecap:round;" x2="26.9" y1="-3.4"/>
  <line x1="29.025" y2="-8.9" style="fill:none;stroke:#000000;stroke-width:0.7;stroke-linecap:round;" x2="29.025" y1="-8.9"/>
  <line x1="31.9" y2="-13.4" style="fill:none;stroke:#000000;stroke-width:0.7;stroke-linecap:round;" x2="31.9" y1="-13.4"/>
  <line x1="30.275" y2="-16.9" style="fill:none;stroke:#000000;stroke-width:0.7;stroke-linecap:round;" x2="30.275" y1="-16.9"/>
  <line x1="35.025" y2="-16.15" style="fill:none;stroke:#000000;stroke-width:0.7;stroke-linecap:round;" x2="35.025" y1="-16.15"/>
  <line x1="33.275" y2="-20.525" style="fill:none;stroke:#000000;stroke-width:0.7;stroke-linecap:round;" x2="33.275" y1="-20.525"/>
  <line x1="38.9" y2="-18.4" style="fill:none;stroke:#000000;stroke-width:0.7;stroke-linecap:round;" x2="38.9" y1="-18.4"/>
  <line x1="41.775" y2="-14.275" style="fill:none;stroke:#000000;stroke-width:0.7;stroke-linecap:round;" x2="41.775" y1="-14.275"/>
  <line x1="41.15" y2="-9.15" style="fill:none;stroke:#000000;stroke-width:0.7;stroke-linecap:round;" x2="41.15" y1="-9.15"/>
  <line x1="35.15" y2="-8.15" style="fill:none;stroke:#000000;stroke-width:0.7;stroke-linecap:round;" x2="35.15" y1="-8.15"/>
  <line x1="34.4" y2="-4.15" style="fill:none;stroke:#000000;stroke-width:0.7;stroke-linecap:round;" x2="34.4" y1="-4.15"/>
  <line x1="38.025" y2="-2.4" style="fill:none;stroke:#000000;stroke-width:0.7;stroke-linecap:round;" x2="38.025" y1="-2.4"/>
  <line x1="45.775" y2="-11.275" style="fill:none;stroke:#000000;stroke-width:0.7;stroke-linecap:round;" x2="45.775" y1="-11.275"/>
  <line x1="47.275" y2="-7.4" style="fill:none;stroke:#000000;stroke-width:0.7;stroke-linecap:round;" x2="47.275" y1="-7.4"/>
  <line x1="46.15" y2="-2.775" style="fill:none;stroke:#000000;stroke-width:0.7;stroke-linecap:round;" x2="46.15" y1="-2.775"/>
  <line x1="50.4" y2="-5.275" style="fill:none;stroke:#000000;stroke-width:0.7;stroke-linecap:round;" x2="50.4" y1="-5.275"/>
  <line x1="54.275" y2="-7.15" style="fill:none;stroke:#000000;stroke-width:0.7;stroke-linecap:round;" x2="54.275" y1="-7.15"/>
  <line x1="53.4" y2="-14.025" style="fill:none;stroke:#000000;stroke-width:0.7;stroke-linecap:round;" x2="53.4" y1="-14.025"/>
  <line x1="49.275" y2="-15.65" style="fill:none;stroke:#000000;stroke-width:0.7;stroke-linecap:round;" x2="49.275" y1="-15.65"/>
  <line x1="54.4" y2="-19.15" style="fill:none;stroke:#000000;stroke-width:0.7;stroke-linecap:round;" x2="54.4" y1="-19.15"/>
  <line x1="49.275" y2="-20.4" style="fill:none;stroke:#000000;stroke-width:0.7;stroke-linecap:round;" x2="49.275" y1="-20.4"/>
  <line x1="44.275" y2="-20.65" style="fill:none;stroke:#000000;stroke-width:0.7;stroke-linecap:round;" x2="44.275" y1="-20.65"/>
  <line x1="44.4" y2="-25.4" style="fill:none;stroke:#000000;stroke-width:0.7;stroke-linecap:round;" x2="44.4" y1="-25.4"/>
  <line x1="39.275" y2="-26.025" style="fill:none;stroke:#000000;stroke-width:0.7;stroke-linecap:round;" x2="39.275" y1="-26.025"/>
  <line x1="33.025" y2="-25.65" style="fill:none;stroke:#000000;stroke-width:0.7;stroke-linecap:round;" x2="33.025" y1="-25.65"/>
  <line x1="26.775" y2="-25.9" style="fill:none;stroke:#000000;stroke-width:0.7;stroke-linecap:round;" x2="26.775" y1="-25.9"/>
  <line x1="31.025" y2="-29.65" style="fill:none;stroke:#000000;stroke-width:0.7;stroke-linecap:round;" x2="31.025" y1="-29.65"/>
  <line x1="35.525" y2="-29.65" style="fill:none;stroke:#000000;stroke-width:0.7;stroke-linecap:round;" x2="35.525" y1="-29.65"/>
  <line x1="33.025" y2="-34.275" style="fill:none;stroke:#000000;stroke-width:0.7;stroke-linecap:round;" x2="33.025" y1="-34.275"/>
  <line x1="28.4" y2="-34.025" style="fill:none;stroke:#000000;stroke-width:0.7;stroke-linecap:round;" x2="28.4" y1="-34.025"/>
  <line x1="31.15" y2="-38.4" style="fill:none;stroke:#000000;stroke-width:0.7;stroke-linecap:round;" x2="31.15" y1="-38.4"/>
  <line x1="36.4" y2="-40.525" style="fill:none;stroke:#000000;stroke-width:0.7;stroke-linecap:round;" x2="36.4" y1="-40.525"/>
  <line x1="37.025" y2="-36.775" style="fill:none;stroke:#000000;stroke-width:0.7;stroke-linecap:round;" x2="37.025" y1="-36.775"/>
  <line x1="42.15" y2="-35.025" style="fill:none;stroke:#000000;stroke-width:0.7;stroke-linecap:round;" x2="42.15" y1="-35.025"/>
  <line x1="42.025" y2="-29.9" style="fill:none;stroke:#000000;stroke-width:0.7;stroke-linecap:round;" x2="42.025" y1="-29.9"/>
  <line x1="47.65" y2="-30.525" style="fill:none;stroke:#000000;stroke-width:0.7;stroke-linecap:round;" x2="47.65" y1="-30.525"/>
  <line x1="52.4" y2="-28.275" style="fill:none;stroke:#000000;stroke-width:0.7;stroke-linecap:round;" x2="52.4" y1="-28.275"/>
  <line x1="53.9" y2="-33.775" style="fill:none;stroke:#000000;stroke-width:0.7;stroke-linecap:round;" x2="53.9" y1="-33.775"/>
  <line x1="47.775" y2="-36.4" style="fill:none;stroke:#000000;stroke-width:0.7;stroke-linecap:round;" x2="47.775" y1="-36.4"/>
  <line x1="52.275" y2="-38.525" style="fill:none;stroke:#000000;stroke-width:0.7;stroke-linecap:round;" x2="52.275" y1="-38.525"/>
  <line x1="48.775" y2="-42.525" style="fill:none;stroke:#000000;stroke-width:0.7;stroke-linecap:round;" x2="48.775" y1="-42.525"/>
  <line x1="43.65" y2="-43.9" style="fill:none;stroke:#000000;stroke-width:0.7;stroke-linecap:round;" x2="43.65" y1="-43.9"/>
  <line x1="41.4" y2="-40.025" style="fill:none;stroke:#000000;stroke-width:0.7;stroke-linecap:round;" x2="41.4" y1="-40.025"/>
  <line x1="39.775" y2="-47.4" style="fill:none;stroke:#000000;stroke-width:0.7;stroke-linecap:round;" x2="39.775" y1="-47.4"/>
  <line x1="50.9" y2="-46.65" style="fill:none;stroke:#000000;stroke-width:0.7;stroke-linecap:round;" x2="50.9" y1="-46.65"/>
  <line x1="54.65" y2="-42.775" style="fill:none;stroke:#000000;stroke-width:0.7;stroke-linecap:round;" x2="54.65" y1="-42.775"/>
  <line x1="54.15" y2="-50.4" style="fill:none;stroke:#000000;stroke-width:0.7;stroke-linecap:round;" x2="54.15" y1="-50.4"/>
  <line x1="49.65" y2="-53.9" style="fill:none;stroke:#000000;stroke-width:0.7;stroke-linecap:round;" x2="49.65" y1="-53.9"/>
  <line x1="43.65" y2="-54.15" style="fill:none;stroke:#000000;stroke-width:0.7;stroke-linecap:round;" x2="43.65" y1="-54.15"/>
  <line x1="42.4" y2="-50.4" style="fill:none;stroke:#000000;stroke-width:0.7;stroke-linecap:round;" x2="42.4" y1="-50.4"/>
  <line x1="38.775" y2="-53.525" style="fill:none;stroke:#000000;stroke-width:0.7;stroke-linecap:round;" x2="38.775" y1="-53.525"/>
  <line x1="36.65" y2="-50.525" style="fill:none;stroke:#000000;stroke-width:0.7;stroke-linecap:round;" x2="36.65" y1="-50.525"/>
  <line x1="31.025" y2="-49.4" style="fill:none;stroke:#000000;stroke-width:0.7;stroke-linecap:round;" x2="31.025" y1="-49.4"/>
  <line x1="32.275" y2="-53.275" style="fill:none;stroke:#000000;stroke-width:0.7;stroke-linecap:round;" x2="32.275" y1="-53.275"/>
  <line x1="26.4" y2="-54.15" style="fill:none;stroke:#000000;stroke-width:0.7;stroke-linecap:round;" x2="26.4" y1="-54.15"/>
  <line x1="35.025" y2="-46.525" style="fill:none;stroke:#000000;stroke-width:0.7;stroke-linecap:round;" x2="35.025" y1="-46.525"/>
  <line x1="4.4" y2="-37.9" style="fill:none;stroke:#000000;stroke-width:0.7;stroke-linecap:round;" x2="4.4" y1="-37.9"/>
  <line x1="9.275" y2="-36.275" style="fill:none;stroke:#000000;stroke-width:0.7;stroke-linecap:round;" x2="9.275" y1="-36.275"/>
  <line x1="2.775" y2="-34.025" style="fill:none;stroke:#000000;stroke-width:0.7;stroke-linecap:round;" x2="2.775" y1="-34.025"/>
  <line x1="12.65" y2="-33.775" style="fill:none;stroke:#000000;stroke-width:0.7;stroke-linecap:round;" x2="12.65" y1="-33.775"/>
  <line x1="14.9" y2="-39.025" style="fill:none;stroke:#000000;stroke-width:0.7;stroke-linecap:round;" x2="14.9" y1="-39.025"/>
  <line x1="20.15" y2="-40.275" style="fill:none;stroke:#000000;stroke-width:0.7;stroke-linecap:round;" x2="20.15" y1="-40.275"/>
  <line x1="23.65" y2="-38.15" style="fill:none;stroke:#000000;stroke-width:0.7;stroke-linecap:round;" x2="23.65" y1="-38.15"/>
  <path style="fill:none;stroke:#000000;stroke-width:0.3;" d="M6.296-7.379l-2.5,2l4,1.75c0,0,0.75-2,0-2.5    S6.296-7.379,6.296-7.379z"/>
  <path style="fill:none;stroke:#000000;stroke-width:0.3;" d="M50.608-11.962c1,0.5,2.75,0.75,2.25,2s-2.5,1-2.5,1L50.608-11.962z"/>
  <path style="fill:none;stroke:#000000;stroke-width:0.3;" d="M39.025-7.504l5.2,1.6l-0.8,3l-2.4-1.6    C41.025-4.504,39.425-5.304,39.025-7.504z"/>
  <polygon points="51.15,-35.671 51.15,-33.171 48.9,-33.171   " style="fill:none;stroke:#000000;stroke-width:0.3;"/>
  <polygon points="3.796,-44.567 5.296,-40.317 1.796,-40.067   " style="fill:none;stroke:#000000;stroke-width:0.3;"/>
  <polygon points="46.233,-27.254 48.233,-23.504 51.483,-25.004    49.233,-27.004   " style="fill:none;stroke:#000000;stroke-width:0.3;"/>
  <polygon points="44.933,-40.891 44.033,-38.731 45.473,-38.191    47.093,-39.271 46.373,-40.531   " style="fill:none;stroke:#000000;stroke-width:0.3;"/>
  <polygon points="25.152,-31.85 26.952,-31.85 26.952,-28.475 23.352,-29.825    23.802,-31.4   " style="fill:none;stroke:#000000;stroke-width:0.3;"/>
  <polygon points="18.608,-17.431 19.958,-15.106 22.058,-17.806   " style="fill:none;stroke:#000000;stroke-width:0.3;"/>
  <polygon points="36.158,-24.331 39.308,-22.531 37.958,-21.406    36.383,-22.756   " style="fill:none;stroke:#000000;stroke-width:0.3;"/>
  <polygon points="37.463,-34.051 39.983,-32.431 37.283,-30.631    35.483,-32.971 36.383,-34.411   " style="fill:none;stroke:#000000;stroke-width:0.3;"/>
  <polygon points="4.663,-21.189 7.003,-19.749 5.563,-18.669 2.863,-18.669    " style="fill:none;stroke:#000000;stroke-width:0.3;"/>
  <polygon points="4.523,-34.209 6.683,-33.849 6.683,-30.969 5.424,-29.529    5.063,-32.409   " style="fill:none;stroke:#000000;stroke-width:0.3;"/>
  <polygon points="46.058,-18.706 43.178,-16.546 45.698,-14.566    46.958,-16.906   " style="fill:none;stroke:#000000;stroke-width:0.3;"/>
  <polygon points="28.973,-25.006 30.863,-22.846 30.053,-19.336    26.813,-20.956 28.433,-22.306   " style="fill:none;stroke:#000000;stroke-width:0.3;"/>
  <polygon points="27.833,-10.606 28.958,-13.082 26.708,-13.981    25.358,-11.957 26.033,-10.606   " style="fill:none;stroke:#000000;stroke-width:0.3;"/>
  <polygon points="35.033,-45.256 37.058,-45.706 36.833,-42.781    34.808,-41.881 34.133,-43.681   " style="fill:none;stroke:#000000;stroke-width:0.3;"/>
  <polygon points="14.333,-25.231 15.458,-22.981 13.883,-21.631    13.434,-23.881   " style="fill:none;stroke:#000000;stroke-width:0.3;"/>
  <polygon points="17.754,-6.463 18.402,-1.926 16.134,-4.518   " style="fill:none;stroke:#000000;stroke-width:0.3;"/>
  <polygon points="46.142,-51.321 44.567,-49.071 45.692,-48.171    51.317,-48.846 50.192,-50.421 47.942,-50.421   " style="fill:none;stroke:#000000;stroke-width:0.3;"/>
  <polygon points="9.692,-12.837 9.917,-11.038 13.067,-11.038 12.392,-13.062      " style="fill:none;stroke:#000000;stroke-width:0.3;"/>
  <polygon points="15.692,-35.504 17.042,-33.254 19.517,-35.504    17.492,-36.404   " style="fill:none;stroke:#000000;stroke-width:0.3;"/>
  <polygon points="8.394,-51.308 10.419,-49.733 7.494,-48.608 5.244,-51.083      " style="fill:none;stroke:#000000;stroke-width:0.3;"/>
  <polygon points="35.037,-12.906 36.117,-10.746 39.177,-12.006    38.817,-13.626   " style="fill:none;stroke:#000000;stroke-width:0.3;"/>
  <polygon points="17.825,-47.079 18.5,-43.029 13.775,-42.354 13.55,-45.054    16.025,-45.504   " style="fill:none;stroke:#000000;stroke-width:0.3;"/>
  <polygon points="27.833,-41.206 27.833,-38.956 25.808,-38.956   " style="fill:none;stroke:#000000;stroke-width:0.3;"/>
  <polygon points="52.983,-3.983 52.983,-1.733 50.958,-1.733   " style="fill:none;stroke:#000000;stroke-width:0.3;"/>
  <polygon points="28.297,-52.331 26.812,-50.171 28.702,-49.901    29.377,-50.441 29.107,-51.791   " style="fill:none;stroke:#000000;stroke-width:0.3;"/>
  <polygon points="28.2,-5.171 29.55,-2.921 32.025,-5.171 30,-6.071   " style="fill:none;stroke:#000000;stroke-width:0.3;"/>
 </g>
</svg>
