<?xml version="1.0"?>
<!-- Converted with SVG Converter - Version 0.9.5 (Compiled Fri Feb 21 09:53:38 2020) - Copyright (C) 2011 Nokia -->
<svg xmlns="http://www.w3.org/2000/svg" width="49.68" y="0px" baseProfile="tiny" version="1.1" xml:space="preserve" height="49.68" xmlns:xlink="http://www.w3.org/1999/xlink" x="0px" viewBox="2.055 -51.39 49.68 49.68">
 <g>
  <rect width="49.68" y="-51.39" height="49.68" x="2.055" style="fill:none;"/>
  <line x1="16.545" x2="16.545" y2="-49.493" style="fill:none;stroke:#000000;stroke-width:0.7;stroke-linecap:round;" y1="-49.493"/>
  <line x1="16.545" x2="16.545" y2="-46.733" style="fill:none;stroke:#000000;stroke-width:0.7;stroke-linecap:round;" y1="-46.733"/>
  <line x1="16.027" x2="16.027" y2="-44.318" style="fill:none;stroke:#000000;stroke-width:0.7;stroke-linecap:round;" y1="-44.318"/>
  <line x1="12.06" x2="12.06" y2="-44.145" style="fill:none;stroke:#000000;stroke-width:0.7;stroke-linecap:round;" y1="-44.145"/>
  <line x1="18.615" x2="18.615" y2="-37.073" style="fill:none;stroke:#000000;stroke-width:0.7;stroke-linecap:round;" y1="-37.073"/>
  <line x1="11.197" x2="11.197" y2="-33.45" style="fill:none;stroke:#000000;stroke-width:0.7;stroke-linecap:round;" y1="-33.45"/>
  <line x1="18.615" x2="18.615" y2="-32.933" style="fill:none;stroke:#000000;stroke-width:0.7;stroke-linecap:round;" y1="-32.933"/>
  <line x1="22.583" x2="22.583" y2="-32.933" style="fill:none;stroke:#000000;stroke-width:0.7;stroke-linecap:round;" y1="-32.933"/>
  <line x1="23.618" x2="23.618" y2="-35.52" style="fill:none;stroke:#000000;stroke-width:0.7;stroke-linecap:round;" y1="-35.52"/>
  <line x1="22.237" x2="22.237" y2="-38.97" style="fill:none;stroke:#000000;stroke-width:0.7;stroke-linecap:round;" y1="-38.97"/>
  <line x1="25.515" x2="25.515" y2="-37.935" style="fill:none;stroke:#000000;stroke-width:0.7;stroke-linecap:round;" y1="-37.935"/>
  <line x1="25.515" x2="25.515" y2="-41.213" style="fill:none;stroke:#000000;stroke-width:0.7;stroke-linecap:round;" y1="-41.213"/>
  <line x1="23.962" x2="23.962" y2="-43.455" style="fill:none;stroke:#000000;stroke-width:0.7;stroke-linecap:round;" y1="-43.455"/>
  <line x1="24.308" x2="24.308" y2="-46.733" style="fill:none;stroke:#000000;stroke-width:0.7;stroke-linecap:round;" y1="-46.733"/>
  <line x1="23.445" x2="23.445" y2="-49.148" style="fill:none;stroke:#000000;stroke-width:0.7;stroke-linecap:round;" y1="-49.148"/>
  <line x1="25.515" x2="25.515" y2="-50.7" style="fill:none;stroke:#000000;stroke-width:0.7;stroke-linecap:round;" y1="-50.7"/>
  <line x1="30.69" x2="30.69" y2="-46.733" style="fill:none;stroke:#000000;stroke-width:0.7;stroke-linecap:round;" y1="-46.733"/>
  <line x1="33.45" x2="33.45" y2="-46.905" style="fill:none;stroke:#000000;stroke-width:0.7;stroke-linecap:round;" y1="-46.905"/>
  <line x1="31.38" x2="31.38" y2="-42.248" style="fill:none;stroke:#000000;stroke-width:0.7;stroke-linecap:round;" y1="-42.248"/>
  <line x1="34.485" x2="34.485" y2="-41.73" style="fill:none;stroke:#000000;stroke-width:0.7;stroke-linecap:round;" y1="-41.73"/>
  <line x1="34.485" x2="34.485" y2="-38.28" style="fill:none;stroke:#000000;stroke-width:0.7;stroke-linecap:round;" y1="-38.28"/>
  <line x1="28.965" x2="28.965" y2="-37.245" style="fill:none;stroke:#000000;stroke-width:0.7;stroke-linecap:round;" y1="-37.245"/>
  <line x1="36.728" x2="36.728" y2="-42.248" style="fill:none;stroke:#000000;stroke-width:0.7;stroke-linecap:round;" y1="-42.248"/>
  <line x1="39.833" x2="39.833" y2="-43.973" style="fill:none;stroke:#000000;stroke-width:0.7;stroke-linecap:round;" y1="-43.973"/>
  <line x1="41.04" x2="41.04" y2="-51.045" style="fill:none;stroke:#000000;stroke-width:0.7;stroke-linecap:round;" y1="-51.045"/>
  <line x1="48.63" x2="48.63" y2="-50.355" style="fill:none;stroke:#000000;stroke-width:0.7;stroke-linecap:round;" y1="-50.355"/>
  <line x1="48.975" x2="48.975" y2="-44.49" style="fill:none;stroke:#000000;stroke-width:0.7;stroke-linecap:round;" y1="-44.49"/>
  <line x1="46.388" x2="46.388" y2="-43.11" style="fill:none;stroke:#000000;stroke-width:0.7;stroke-linecap:round;" y1="-43.11"/>
  <line x1="47.078" x2="47.078" y2="-40.695" style="fill:none;stroke:#000000;stroke-width:0.7;stroke-linecap:round;" y1="-40.695"/>
  <line x1="46.215" x2="46.215" y2="-37.935" style="fill:none;stroke:#000000;stroke-width:0.7;stroke-linecap:round;" y1="-37.935"/>
  <line x1="46.388" x2="46.388" y2="-36.038" style="fill:none;stroke:#000000;stroke-width:0.7;stroke-linecap:round;" y1="-36.038"/>
  <line x1="48.975" x2="48.975" y2="-36.9" style="fill:none;stroke:#000000;stroke-width:0.7;stroke-linecap:round;" y1="-36.9"/>
  <line x1="6.885" x2="6.885" y2="-15.51" style="fill:none;stroke:#000000;stroke-width:0.7;stroke-linecap:round;" y1="-15.51"/>
  <line x1="7.057" x2="7.057" y2="-13.958" style="fill:none;stroke:#000000;stroke-width:0.7;stroke-linecap:round;" y1="-13.958"/>
  <line x1="3.607" x2="3.607" y2="-13.958" style="fill:none;stroke:#000000;stroke-width:0.7;stroke-linecap:round;" y1="-13.958"/>
  <line x1="8.782" x2="8.782" y2="-7.403" style="fill:none;stroke:#000000;stroke-width:0.7;stroke-linecap:round;" y1="-7.403"/>
  <line x1="2.745" x2="2.745" y2="-4.642" style="fill:none;stroke:#000000;stroke-width:0.7;stroke-linecap:round;" y1="-4.642"/>
  <line x1="9.645" x2="9.645" y2="-2.572" style="fill:none;stroke:#000000;stroke-width:0.7;stroke-linecap:round;" y1="-2.572"/>
  <path style="fill:none;stroke:#000000;stroke-width:0.7;stroke-linecap:round;" d="M14.82-6.368L14.82-6.368"/>
  <line x1="13.267" x2="13.267" y2="-8.61" style="fill:none;stroke:#000000;stroke-width:0.7;stroke-linecap:round;" y1="-8.61"/>
  <line x1="15.51" x2="15.51" y2="-11.715" style="fill:none;stroke:#000000;stroke-width:0.7;stroke-linecap:round;" y1="-11.715"/>
  <line x1="10.507" x2="10.507" y2="-8.783" style="fill:none;stroke:#000000;stroke-width:0.7;stroke-linecap:round;" y1="-8.783"/>
  <line x1="13.267" x2="13.267" y2="-13.785" style="fill:none;stroke:#000000;stroke-width:0.7;stroke-linecap:round;" y1="-13.785"/>
  <line x1="15.337" x2="15.337" y2="-16.372" style="fill:none;stroke:#000000;stroke-width:0.7;stroke-linecap:round;" y1="-16.372"/>
  <line x1="12.232" x2="12.232" y2="-16.372" style="fill:none;stroke:#000000;stroke-width:0.7;stroke-linecap:round;" y1="-16.372"/>
  <line x1="13.267" x2="13.267" y2="-18.96" style="fill:none;stroke:#000000;stroke-width:0.7;stroke-linecap:round;" y1="-18.96"/>
  <line x1="24.48" x2="24.48" y2="-16.545" style="fill:none;stroke:#000000;stroke-width:0.7;stroke-linecap:round;" y1="-16.545"/>
  <line x1="20.858" x2="20.858" y2="-14.13" style="fill:none;stroke:#000000;stroke-width:0.7;stroke-linecap:round;" y1="-14.13"/>
  <line x1="24.135" x2="24.135" y2="-13.095" style="fill:none;stroke:#000000;stroke-width:0.7;stroke-linecap:round;" y1="-13.095"/>
  <line x1="23.445" x2="23.445" y2="-10.852" style="fill:none;stroke:#000000;stroke-width:0.7;stroke-linecap:round;" y1="-10.852"/>
  <line x1="19.995" x2="19.995" y2="-7.575" style="fill:none;stroke:#000000;stroke-width:0.7;stroke-linecap:round;" y1="-7.575"/>
  <line x1="26.895" x2="26.895" y2="-12.75" style="fill:none;stroke:#000000;stroke-width:0.7;stroke-linecap:round;" y1="-12.75"/>
  <line x1="30.862" x2="30.862" y2="-16.545" style="fill:none;stroke:#000000;stroke-width:0.7;stroke-linecap:round;" y1="-16.545"/>
  <line x1="32.07" x2="32.07" y2="-20.685" style="fill:none;stroke:#000000;stroke-width:0.7;stroke-linecap:round;" y1="-20.685"/>
  <line x1="36.728" x2="36.728" y2="-16.028" style="fill:none;stroke:#000000;stroke-width:0.7;stroke-linecap:round;" y1="-16.028"/>
  <line x1="37.59" x2="37.59" y2="-18.615" style="fill:none;stroke:#000000;stroke-width:0.7;stroke-linecap:round;" y1="-18.615"/>
  <line x1="40.005" x2="40.005" y2="-19.133" style="fill:none;stroke:#000000;stroke-width:0.7;stroke-linecap:round;" y1="-19.133"/>
  <line x1="40.005" x2="40.005" y2="-14.13" style="fill:none;stroke:#000000;stroke-width:0.7;stroke-linecap:round;" y1="-14.13"/>
  <line x1="37.417" x2="37.417" y2="-12.75" style="fill:none;stroke:#000000;stroke-width:0.7;stroke-linecap:round;" y1="-12.75"/>
  <line x1="35.002" x2="35.002" y2="-9.99" style="fill:none;stroke:#000000;stroke-width:0.7;stroke-linecap:round;" y1="-9.99"/>
  <line x1="40.178" x2="40.178" y2="-11.37" style="fill:none;stroke:#000000;stroke-width:0.7;stroke-linecap:round;" y1="-11.37"/>
  <line x1="42.248" x2="42.248" y2="-9.127" style="fill:none;stroke:#000000;stroke-width:0.7;stroke-linecap:round;" y1="-9.127"/>
  <line x1="16.2" x2="16.2" y2="-36.038" style="fill:none;stroke:#000000;stroke-width:0.7;stroke-linecap:round;" y1="-36.038"/>
  <line x1="28.965" x2="28.965" y2="-34.485" style="fill:none;stroke:#000000;stroke-width:0.7;stroke-linecap:round;" y1="-34.485"/>
  <line x1="34.83" x2="34.83" y2="-32.76" style="fill:none;stroke:#000000;stroke-width:0.7;stroke-linecap:round;" y1="-32.76"/>
  <line x1="40.178" x2="40.178" y2="-32.243" style="fill:none;stroke:#000000;stroke-width:0.7;stroke-linecap:round;" y1="-32.243"/>
  <line x1="37.417" x2="37.417" y2="-34.14" style="fill:none;stroke:#000000;stroke-width:0.7;stroke-linecap:round;" y1="-34.14"/>
  <line x1="37.935" x2="37.935" y2="-31.208" style="fill:none;stroke:#000000;stroke-width:0.7;stroke-linecap:round;" y1="-31.208"/>
  <line x1="45.18" x2="45.18" y2="-27.067" style="fill:none;stroke:#000000;stroke-width:0.7;stroke-linecap:round;" y1="-27.067"/>
  <line x1="41.213" x2="41.213" y2="-24.653" style="fill:none;stroke:#000000;stroke-width:0.7;stroke-linecap:round;" y1="-24.653"/>
  <line x1="35.347" x2="35.347" y2="-25.86" style="fill:none;stroke:#000000;stroke-width:0.7;stroke-linecap:round;" y1="-25.86"/>
  <line x1="35.175" x2="35.175" y2="-23.1" style="fill:none;stroke:#000000;stroke-width:0.7;stroke-linecap:round;" y1="-23.1"/>
  <line x1="35.175" x2="35.175" y2="-21.03" style="fill:none;stroke:#000000;stroke-width:0.7;stroke-linecap:round;" y1="-21.03"/>
  <line x1="42.765" x2="42.765" y2="-19.65" style="fill:none;stroke:#000000;stroke-width:0.7;stroke-linecap:round;" y1="-19.65"/>
  <line x1="45.525" x2="45.525" y2="-17.753" style="fill:none;stroke:#000000;stroke-width:0.7;stroke-linecap:round;" y1="-17.753"/>
  <line x1="49.32" x2="49.32" y2="-21.375" style="fill:none;stroke:#000000;stroke-width:0.7;stroke-linecap:round;" y1="-21.375"/>
  <line x1="44.663" x2="44.663" y2="-24.653" style="fill:none;stroke:#000000;stroke-width:0.7;stroke-linecap:round;" y1="-24.653"/>
  <line x1="24.48" x2="24.48" y2="-19.133" style="fill:none;stroke:#000000;stroke-width:0.7;stroke-linecap:round;" y1="-19.133"/>
  <line x1="20.742" x2="20.742" y2="-23.503" style="fill:none;stroke:#000000;stroke-width:0.7;stroke-linecap:round;" y1="-23.503"/>
  <line x1="22.583" x2="22.583" y2="-27.067" style="fill:none;stroke:#000000;stroke-width:0.7;stroke-linecap:round;" y1="-27.067"/>
  <line x1="9.242" x2="9.242" y2="-32.559" style="fill:none;stroke:#000000;stroke-width:0.7;stroke-linecap:round;" y1="-32.559"/>
  <line x1="6.195" x2="6.195" y2="-29.828" style="fill:none;stroke:#000000;stroke-width:0.7;stroke-linecap:round;" y1="-29.828"/>
  <line x1="3.78" x2="3.78" y2="-27.24" style="fill:none;stroke:#000000;stroke-width:0.7;stroke-linecap:round;" y1="-27.24"/>
  <line x1="13.785" x2="13.785" y2="-22.583" style="fill:none;stroke:#000000;stroke-width:0.7;stroke-linecap:round;" y1="-22.583"/>
  <line x1="11.715" x2="11.715" y2="-28.103" style="fill:none;stroke:#000000;stroke-width:0.7;stroke-linecap:round;" y1="-28.103"/>
  <line x1="20.34" x2="20.34" y2="-30.69" style="fill:none;stroke:#000000;stroke-width:0.7;stroke-linecap:round;" y1="-30.69"/>
  <line x1="30.69" x2="30.69" y2="-29.828" style="fill:none;stroke:#000000;stroke-width:0.7;stroke-linecap:round;" y1="-29.828"/>
  <line x1="27.757" x2="27.757" y2="-29.828" style="fill:none;stroke:#000000;stroke-width:0.7;stroke-linecap:round;" y1="-29.828"/>
  <line x1="23.1" x2="23.1" y2="-24.135" style="fill:none;stroke:#000000;stroke-width:0.7;stroke-linecap:round;" y1="-24.135"/>
  <line x1="6.54" x2="6.54" y2="-37.418" style="fill:none;stroke:#000000;stroke-width:0.7;stroke-linecap:round;" y1="-37.418"/>
  <line x1="8.782" x2="8.782" y2="-38.625" style="fill:none;stroke:#000000;stroke-width:0.7;stroke-linecap:round;" y1="-38.625"/>
  <line x1="10.162" x2="10.162" y2="-35.348" style="fill:none;stroke:#000000;stroke-width:0.7;stroke-linecap:round;" y1="-35.348"/>
  <line x1="4.125" x2="4.125" y2="-33.795" style="fill:none;stroke:#000000;stroke-width:0.7;stroke-linecap:round;" y1="-33.795"/>
  <line x1="46.388" x2="46.388" y2="-31.208" style="fill:none;stroke:#000000;stroke-width:0.7;stroke-linecap:round;" y1="-31.208"/>
  <line x1="50.01" x2="50.01" y2="-31.035" style="fill:none;stroke:#000000;stroke-width:0.7;stroke-linecap:round;" y1="-31.035"/>
  <line x1="3.09" x2="3.09" y2="-45.353" style="fill:none;stroke:#000000;stroke-width:0.7;stroke-linecap:round;" y1="-45.353"/>
  <line x1="14.302" x2="14.302" y2="-46.905" style="fill:none;stroke:#000000;stroke-width:0.7;stroke-linecap:round;" y1="-46.905"/>
  <line x1="4.642" x2="4.642" y2="-47.423" style="fill:none;stroke:#000000;stroke-width:0.7;stroke-linecap:round;" y1="-47.423"/>
  <line x1="10.852" x2="10.852" y2="-41.73" style="fill:none;stroke:#000000;stroke-width:0.7;stroke-linecap:round;" y1="-41.73"/>
  <line x1="14.82" x2="14.82" y2="-38.28" style="fill:none;stroke:#000000;stroke-width:0.7;stroke-linecap:round;" y1="-38.28"/>
  <line x1="16.717" x2="16.717" y2="-26.033" style="fill:none;stroke:#000000;stroke-width:0.7;stroke-linecap:round;" y1="-26.033"/>
  <line x1="2.572" x2="2.572" y2="-21.03" style="fill:none;stroke:#000000;stroke-width:0.7;stroke-linecap:round;" y1="-21.03"/>
  <line x1="50.01" x2="50.01" y2="-6.195" style="fill:none;stroke:#000000;stroke-width:0.7;stroke-linecap:round;" y1="-6.195"/>
  <line x1="41.73" x2="41.73" y2="-3.953" style="fill:none;stroke:#000000;stroke-width:0.7;stroke-linecap:round;" y1="-3.953"/>
  <line x1="30" x2="30" y2="-4.642" style="fill:none;stroke:#000000;stroke-width:0.7;stroke-linecap:round;" y1="-4.642"/>
  <line x1="5.16" x2="5.16" y2="-10.163" style="fill:none;stroke:#000000;stroke-width:0.7;stroke-linecap:round;" y1="-10.163"/>
  <line x1="20.34" x2="20.34" y2="-10.507" style="fill:none;stroke:#000000;stroke-width:0.7;stroke-linecap:round;" y1="-10.507"/>
  <line x1="27.757" x2="27.757" y2="-18.098" style="fill:none;stroke:#000000;stroke-width:0.7;stroke-linecap:round;" y1="-18.098"/>
  <line x1="8.092" x2="8.092" y2="-23.79" style="fill:none;stroke:#000000;stroke-width:0.7;stroke-linecap:round;" y1="-23.79"/>
  <line x1="38.107" x2="38.107" y2="-25.343" style="fill:none;stroke:#000000;stroke-width:0.7;stroke-linecap:round;" y1="-25.343"/>
  <line x1="46.733" x2="46.733" y2="-19.995" style="fill:none;stroke:#000000;stroke-width:0.7;stroke-linecap:round;" y1="-19.995"/>
  <line x1="37.417" x2="37.417" y2="-5.85" style="fill:none;stroke:#000000;stroke-width:0.7;stroke-linecap:round;" y1="-5.85"/>
  <line x1="29.655" x2="29.655" y2="-25.515" style="fill:none;stroke:#000000;stroke-width:0.7;stroke-linecap:round;" y1="-25.515"/>
  <line x1="21.03" x2="21.03" y2="-42.248" style="fill:none;stroke:#000000;stroke-width:0.7;stroke-linecap:round;" y1="-42.248"/>
  <line x1="15.682" x2="15.682" y2="-33.278" style="fill:none;stroke:#000000;stroke-width:0.7;stroke-linecap:round;" y1="-33.278"/>
  <line x1="10.162" x2="10.162" y2="-50.355" style="fill:none;stroke:#000000;stroke-width:0.7;stroke-linecap:round;" y1="-50.355"/>
  <line x1="40.178" x2="40.178" y2="-48.975" style="fill:none;stroke:#000000;stroke-width:0.7;stroke-linecap:round;" y1="-48.975"/>
  <line x1="35.175" x2="35.175" y2="-3.953" style="fill:none;stroke:#000000;stroke-width:0.7;stroke-linecap:round;" y1="-3.953"/>
  <line x1="4.642" x2="4.642" y2="-23.445" style="fill:none;stroke:#000000;stroke-width:0.7;stroke-linecap:round;" y1="-23.445"/>
  <line x1="49.493" x2="49.493" y2="-42.42" style="fill:none;stroke:#000000;stroke-width:0.7;stroke-linecap:round;" y1="-42.42"/>
  <line x1="18.097" x2="18.097" y2="-41.903" style="fill:none;stroke:#000000;stroke-width:0.7;stroke-linecap:round;" y1="-41.903"/>
  <line x1="14.992" x2="14.992" y2="-40.695" style="fill:none;stroke:#000000;stroke-width:0.7;stroke-linecap:round;" y1="-40.695"/>
  <line x1="12.232" x2="12.232" y2="-39.66" style="fill:none;stroke:#000000;stroke-width:0.7;stroke-linecap:round;" y1="-39.66"/>
  <line x1="5.505" x2="5.505" y2="-43.771" style="fill:none;stroke:#000000;stroke-width:0.7;stroke-linecap:round;" y1="-43.771"/>
  <line x1="6.885" x2="6.885" y2="-49.665" style="fill:none;stroke:#000000;stroke-width:0.7;stroke-linecap:round;" y1="-49.665"/>
  <line x1="11.887" x2="11.887" y2="-45.87" style="fill:none;stroke:#000000;stroke-width:0.7;stroke-linecap:round;" y1="-45.87"/>
  <line x1="19.823" x2="19.823" y2="-46.733" style="fill:none;stroke:#000000;stroke-width:0.7;stroke-linecap:round;" y1="-46.733"/>
  <line x1="27.585" x2="27.585" y2="-46.388" style="fill:none;stroke:#000000;stroke-width:0.7;stroke-linecap:round;" y1="-46.388"/>
  <line x1="27.93" x2="27.93" y2="-48.63" style="fill:none;stroke:#000000;stroke-width:0.7;stroke-linecap:round;" y1="-48.63"/>
  <line x1="32.07" x2="32.07" y2="-50.528" style="fill:none;stroke:#000000;stroke-width:0.7;stroke-linecap:round;" y1="-50.528"/>
  <line x1="37.417" x2="37.417" y2="-45.353" style="fill:none;stroke:#000000;stroke-width:0.7;stroke-linecap:round;" y1="-45.353"/>
  <line x1="26.722" x2="26.722" y2="-43.973" style="fill:none;stroke:#000000;stroke-width:0.7;stroke-linecap:round;" y1="-43.973"/>
  <line x1="29.137" x2="29.137" y2="-41.213" style="fill:none;stroke:#000000;stroke-width:0.7;stroke-linecap:round;" y1="-41.213"/>
  <line x1="19.132" x2="19.132" y2="-39.143" style="fill:none;stroke:#000000;stroke-width:0.7;stroke-linecap:round;" y1="-39.143"/>
  <line x1="7.057" x2="7.057" y2="-32.415" style="fill:none;stroke:#000000;stroke-width:0.7;stroke-linecap:round;" y1="-32.415"/>
  <line x1="13.095" x2="13.095" y2="-29.655" style="fill:none;stroke:#000000;stroke-width:0.7;stroke-linecap:round;" y1="-29.655"/>
  <line x1="9.3" x2="9.3" y2="-28.448" style="fill:none;stroke:#000000;stroke-width:0.7;stroke-linecap:round;" y1="-28.448"/>
  <line x1="5.677" x2="5.677" y2="-26.033" style="fill:none;stroke:#000000;stroke-width:0.7;stroke-linecap:round;" y1="-26.033"/>
  <line x1="4.297" x2="4.297" y2="-37.418" style="fill:none;stroke:#000000;stroke-width:0.7;stroke-linecap:round;" y1="-37.418"/>
  <line x1="16.2" x2="16.2" y2="-30.345" style="fill:none;stroke:#000000;stroke-width:0.7;stroke-linecap:round;" y1="-30.345"/>
  <line x1="14.13" x2="14.13" y2="-27.067" style="fill:none;stroke:#000000;stroke-width:0.7;stroke-linecap:round;" y1="-27.067"/>
  <line x1="13.095" x2="13.095" y2="-24.653" style="fill:none;stroke:#000000;stroke-width:0.7;stroke-linecap:round;" y1="-24.653"/>
  <line x1="10.852" x2="10.852" y2="-23.1" style="fill:none;stroke:#000000;stroke-width:0.7;stroke-linecap:round;" y1="-23.1"/>
  <line x1="10.852" x2="10.852" y2="-19.478" style="fill:none;stroke:#000000;stroke-width:0.7;stroke-linecap:round;" y1="-19.478"/>
  <line x1="17.925" x2="17.925" y2="-17.753" style="fill:none;stroke:#000000;stroke-width:0.7;stroke-linecap:round;" y1="-17.753"/>
  <line x1="9.645" x2="9.645" y2="-13.958" style="fill:none;stroke:#000000;stroke-width:0.7;stroke-linecap:round;" y1="-13.958"/>
  <line x1="12.75" x2="12.75" y2="-11.198" style="fill:none;stroke:#000000;stroke-width:0.7;stroke-linecap:round;" y1="-11.198"/>
  <line x1="6.195" x2="6.195" y2="-7.748" style="fill:none;stroke:#000000;stroke-width:0.7;stroke-linecap:round;" y1="-7.748"/>
  <line x1="3.607" x2="3.607" y2="-8.783" style="fill:none;stroke:#000000;stroke-width:0.7;stroke-linecap:round;" y1="-8.783"/>
  <line x1="8.265" x2="8.265" y2="-4.642" style="fill:none;stroke:#000000;stroke-width:0.7;stroke-linecap:round;" y1="-4.642"/>
  <line x1="11.37" x2="11.37" y2="-3.608" style="fill:none;stroke:#000000;stroke-width:0.7;stroke-linecap:round;" y1="-3.608"/>
  <line x1="17.062" x2="17.062" y2="-2.745" style="fill:none;stroke:#000000;stroke-width:0.7;stroke-linecap:round;" y1="-2.745"/>
  <line x1="17.925" x2="17.925" y2="-6.195" style="fill:none;stroke:#000000;stroke-width:0.7;stroke-linecap:round;" y1="-6.195"/>
  <line x1="17.407" x2="17.407" y2="-10.163" style="fill:none;stroke:#000000;stroke-width:0.7;stroke-linecap:round;" y1="-10.163"/>
  <line x1="18.787" x2="18.787" y2="-11.887" style="fill:none;stroke:#000000;stroke-width:0.7;stroke-linecap:round;" y1="-11.887"/>
  <line x1="20.167" x2="20.167" y2="-18.615" style="fill:none;stroke:#000000;stroke-width:0.7;stroke-linecap:round;" y1="-18.615"/>
  <line x1="19.823" x2="19.823" y2="-21.548" style="fill:none;stroke:#000000;stroke-width:0.7;stroke-linecap:round;" y1="-21.548"/>
  <line x1="24.308" x2="24.308" y2="-30.173" style="fill:none;stroke:#000000;stroke-width:0.7;stroke-linecap:round;" y1="-30.173"/>
  <line x1="25.688" x2="25.688" y2="-32.933" style="fill:none;stroke:#000000;stroke-width:0.7;stroke-linecap:round;" y1="-32.933"/>
  <line x1="32.243" x2="32.243" y2="-34.313" style="fill:none;stroke:#000000;stroke-width:0.7;stroke-linecap:round;" y1="-34.313"/>
  <line x1="31.725" x2="31.725" y2="-37.245" style="fill:none;stroke:#000000;stroke-width:0.7;stroke-linecap:round;" y1="-37.245"/>
  <line x1="21.202" x2="21.202" y2="-36.21" style="fill:none;stroke:#000000;stroke-width:0.7;stroke-linecap:round;" y1="-36.21"/>
  <line x1="37.935" x2="37.935" y2="-36.383" style="fill:none;stroke:#000000;stroke-width:0.7;stroke-linecap:round;" y1="-36.383"/>
  <line x1="31.897" x2="31.897" y2="-39.315" style="fill:none;stroke:#000000;stroke-width:0.7;stroke-linecap:round;" y1="-39.315"/>
  <line x1="36.9" x2="36.9" y2="-39.143" style="fill:none;stroke:#000000;stroke-width:0.7;stroke-linecap:round;" y1="-39.143"/>
  <line x1="43.11" x2="43.11" y2="-39.66" style="fill:none;stroke:#000000;stroke-width:0.7;stroke-linecap:round;" y1="-39.66"/>
  <line x1="42.248" x2="42.248" y2="-41.903" style="fill:none;stroke:#000000;stroke-width:0.7;stroke-linecap:round;" y1="-41.903"/>
  <line x1="43.11" x2="43.11" y2="-44.145" style="fill:none;stroke:#000000;stroke-width:0.7;stroke-linecap:round;" y1="-44.145"/>
  <line x1="42.593" x2="42.593" y2="-46.388" style="fill:none;stroke:#000000;stroke-width:0.7;stroke-linecap:round;" y1="-46.388"/>
  <line x1="43.455" x2="43.455" y2="-48.285" style="fill:none;stroke:#000000;stroke-width:0.7;stroke-linecap:round;" y1="-48.285"/>
  <line x1="48.63" x2="48.63" y2="-47.423" style="fill:none;stroke:#000000;stroke-width:0.7;stroke-linecap:round;" y1="-47.423"/>
  <line x1="45.87" x2="45.87" y2="-45.18" style="fill:none;stroke:#000000;stroke-width:0.7;stroke-linecap:round;" y1="-45.18"/>
  <line x1="43.628" x2="43.628" y2="-35.175" style="fill:none;stroke:#000000;stroke-width:0.7;stroke-linecap:round;" y1="-35.175"/>
  <line x1="40.35" x2="40.35" y2="-35.175" style="fill:none;stroke:#000000;stroke-width:0.7;stroke-linecap:round;" y1="-35.175"/>
  <line x1="40.35" x2="40.35" y2="-38.625" style="fill:none;stroke:#000000;stroke-width:0.7;stroke-linecap:round;" y1="-38.625"/>
  <line x1="46.905" x2="46.905" y2="-33.795" style="fill:none;stroke:#000000;stroke-width:0.7;stroke-linecap:round;" y1="-33.795"/>
  <line x1="43.11" x2="43.11" y2="-30.345" style="fill:none;stroke:#000000;stroke-width:0.7;stroke-linecap:round;" y1="-30.345"/>
  <line x1="38.452" x2="38.452" y2="-28.965" style="fill:none;stroke:#000000;stroke-width:0.7;stroke-linecap:round;" y1="-28.965"/>
  <line x1="34.83" x2="34.83" y2="-28.275" style="fill:none;stroke:#000000;stroke-width:0.7;stroke-linecap:round;" y1="-28.275"/>
  <line x1="32.588" x2="32.588" y2="-24.48" style="fill:none;stroke:#000000;stroke-width:0.7;stroke-linecap:round;" y1="-24.48"/>
  <line x1="25.515" x2="25.515" y2="-22.928" style="fill:none;stroke:#000000;stroke-width:0.7;stroke-linecap:round;" y1="-22.928"/>
  <line x1="29.684" x2="29.684" y2="-19.823" style="fill:none;stroke:#000000;stroke-width:0.7;stroke-linecap:round;" y1="-19.823"/>
  <line x1="33.623" x2="33.623" y2="-15.51" style="fill:none;stroke:#000000;stroke-width:0.7;stroke-linecap:round;" y1="-15.51"/>
  <line x1="34.14" x2="34.14" y2="-12.405" style="fill:none;stroke:#000000;stroke-width:0.7;stroke-linecap:round;" y1="-12.405"/>
  <line x1="31.035" x2="31.035" y2="-10.507" style="fill:none;stroke:#000000;stroke-width:0.7;stroke-linecap:round;" y1="-10.507"/>
  <line x1="29.655" x2="29.655" y2="-8.265" style="fill:none;stroke:#000000;stroke-width:0.7;stroke-linecap:round;" y1="-8.265"/>
  <line x1="26.895" x2="26.895" y2="-8.265" style="fill:none;stroke:#000000;stroke-width:0.7;stroke-linecap:round;" y1="-8.265"/>
  <line x1="27.24" x2="27.24" y2="-15.165" style="fill:none;stroke:#000000;stroke-width:0.7;stroke-linecap:round;" y1="-15.165"/>
  <line x1="22.927" x2="22.927" y2="-8.61" style="fill:none;stroke:#000000;stroke-width:0.7;stroke-linecap:round;" y1="-8.61"/>
  <line x1="23.79" x2="23.79" y2="-4.298" style="fill:none;stroke:#000000;stroke-width:0.7;stroke-linecap:round;" y1="-4.298"/>
  <line x1="27.93" x2="27.93" y2="-3.263" style="fill:none;stroke:#000000;stroke-width:0.7;stroke-linecap:round;" y1="-3.263"/>
  <line x1="45.525" x2="45.525" y2="-12.233" style="fill:none;stroke:#000000;stroke-width:0.7;stroke-linecap:round;" y1="-12.233"/>
  <line x1="43.455" x2="43.455" y2="-16.545" style="fill:none;stroke:#000000;stroke-width:0.7;stroke-linecap:round;" y1="-16.545"/>
  <line x1="39.66" x2="39.66" y2="-16.718" style="fill:none;stroke:#000000;stroke-width:0.7;stroke-linecap:round;" y1="-16.718"/>
  <line x1="39.833" x2="39.833" y2="-22.755" style="fill:none;stroke:#000000;stroke-width:0.7;stroke-linecap:round;" y1="-22.755"/>
  <line x1="45.18" x2="45.18" y2="-22.41" style="fill:none;stroke:#000000;stroke-width:0.7;stroke-linecap:round;" y1="-22.41"/>
  <line x1="49.838" x2="49.838" y2="-18.098" style="fill:none;stroke:#000000;stroke-width:0.7;stroke-linecap:round;" y1="-18.098"/>
  <line x1="50.01" x2="50.01" y2="-14.13" style="fill:none;stroke:#000000;stroke-width:0.7;stroke-linecap:round;" y1="-14.13"/>
  <line x1="45.87" x2="45.87" y2="-8.955" style="fill:none;stroke:#000000;stroke-width:0.7;stroke-linecap:round;" y1="-8.955"/>
  <line x1="50.528" x2="50.528" y2="-10.68" style="fill:none;stroke:#000000;stroke-width:0.7;stroke-linecap:round;" y1="-10.68"/>
  <line x1="46.733" x2="46.733" y2="-6.368" style="fill:none;stroke:#000000;stroke-width:0.7;stroke-linecap:round;" y1="-6.368"/>
  <line x1="47.423" x2="47.423" y2="-4.47" style="fill:none;stroke:#000000;stroke-width:0.7;stroke-linecap:round;" y1="-4.47"/>
  <line x1="45.18" x2="45.18" y2="-3.09" style="fill:none;stroke:#000000;stroke-width:0.7;stroke-linecap:round;" y1="-3.09"/>
  <line x1="38.452" x2="38.452" y2="-3.435" style="fill:none;stroke:#000000;stroke-width:0.7;stroke-linecap:round;" y1="-3.435"/>
  <line x1="32.932" x2="32.932" y2="-5.677" style="fill:none;stroke:#000000;stroke-width:0.7;stroke-linecap:round;" y1="-5.677"/>
  <line x1="21.72" x2="21.72" y2="-2.4" style="fill:none;stroke:#000000;stroke-width:0.7;stroke-linecap:round;" y1="-2.4"/>
  <line x1="3.435" x2="3.435" y2="-31.38" style="fill:none;stroke:#000000;stroke-width:0.7;stroke-linecap:round;" y1="-31.38"/>
  <line x1="11.197" x2="11.197" y2="-48.113" style="fill:none;stroke:#000000;stroke-width:0.7;stroke-linecap:round;" y1="-48.113"/>
  <line x1="50.528" x2="50.528" y2="-27.758" style="fill:none;stroke:#000000;stroke-width:0.7;stroke-linecap:round;" y1="-27.758"/>
  <line x1="51.217" x2="51.217" y2="-23.1" style="fill:none;stroke:#000000;stroke-width:0.7;stroke-linecap:round;" y1="-23.1"/>
  <line x1="4.125" x2="4.125" y2="-16.372" style="fill:none;stroke:#000000;stroke-width:0.7;stroke-linecap:round;" y1="-16.372"/>
  <line x1="49.665" x2="49.665" y2="-33.278" style="fill:none;stroke:#000000;stroke-width:0.7;stroke-linecap:round;" y1="-33.278"/>
  <line x1="48.63" x2="48.63" y2="-8.955" style="fill:none;stroke:#000000;stroke-width:0.7;stroke-linecap:round;" y1="-8.955"/>
  <line x1="2.4" x2="2.4" y2="-11.715" style="fill:none;stroke:#000000;stroke-width:0.7;stroke-linecap:round;" y1="-11.715"/>
  <line x1="3.952" x2="3.952" y2="-2.4" style="fill:none;stroke:#000000;stroke-width:0.7;stroke-linecap:round;" y1="-2.4"/>
  <line x1="51.103" x2="51.103" y2="-35.434" style="fill:none;stroke:#000000;stroke-width:0.7;stroke-linecap:round;" y1="-35.434"/>
  <line x1="2.917" x2="2.917" y2="-40.005" style="fill:none;stroke:#000000;stroke-width:0.7;stroke-linecap:round;" y1="-40.005"/>
  <line x1="14.475" x2="14.475" y2="-42.765" style="fill:none;stroke:#000000;stroke-width:0.7;stroke-linecap:round;" y1="-42.765"/>
  <line x1="22.237" x2="22.237" y2="-44.663" style="fill:none;stroke:#000000;stroke-width:0.7;stroke-linecap:round;" y1="-44.663"/>
  <line x1="20.513" x2="20.513" y2="-48.975" style="fill:none;stroke:#000000;stroke-width:0.7;stroke-linecap:round;" y1="-48.975"/>
  <line x1="29.827" x2="29.827" y2="-44.49" style="fill:none;stroke:#000000;stroke-width:0.7;stroke-linecap:round;" y1="-44.49"/>
  <line x1="33.967" x2="33.967" y2="-44.49" style="fill:none;stroke:#000000;stroke-width:0.7;stroke-linecap:round;" y1="-44.49"/>
  <line x1="34.658" x2="34.658" y2="-35.865" style="fill:none;stroke:#000000;stroke-width:0.7;stroke-linecap:round;" y1="-35.865"/>
  <line x1="39.833" x2="39.833" y2="-46.905" style="fill:none;stroke:#000000;stroke-width:0.7;stroke-linecap:round;" y1="-46.905"/>
  <line x1="46.215" x2="46.215" y2="-47.078" style="fill:none;stroke:#000000;stroke-width:0.7;stroke-linecap:round;" y1="-47.078"/>
  <line x1="45.353" x2="45.353" y2="-50.183" style="fill:none;stroke:#000000;stroke-width:0.7;stroke-linecap:round;" y1="-50.183"/>
  <line x1="50.01" x2="50.01" y2="-39.143" style="fill:none;stroke:#000000;stroke-width:0.7;stroke-linecap:round;" y1="-39.143"/>
  <line x1="7.575" x2="7.575" y2="-19.133" style="fill:none;stroke:#000000;stroke-width:0.7;stroke-linecap:round;" y1="-19.133"/>
  <line x1="5.505" x2="5.505" y2="-12.405" style="fill:none;stroke:#000000;stroke-width:0.7;stroke-linecap:round;" y1="-12.405"/>
  <line x1="4.297" x2="4.297" y2="-6.195" style="fill:none;stroke:#000000;stroke-width:0.7;stroke-linecap:round;" y1="-6.195"/>
  <line x1="14.302" x2="14.302" y2="-3.435" style="fill:none;stroke:#000000;stroke-width:0.7;stroke-linecap:round;" y1="-3.435"/>
  <line x1="16.545" x2="16.545" y2="-8.093" style="fill:none;stroke:#000000;stroke-width:0.7;stroke-linecap:round;" y1="-8.093"/>
  <line x1="16.545" x2="16.545" y2="-20.34" style="fill:none;stroke:#000000;stroke-width:0.7;stroke-linecap:round;" y1="-20.34"/>
  <line x1="21.72" x2="21.72" y2="-16.372" style="fill:none;stroke:#000000;stroke-width:0.7;stroke-linecap:round;" y1="-16.372"/>
  <line x1="27.24" x2="27.24" y2="-10.163" style="fill:none;stroke:#000000;stroke-width:0.7;stroke-linecap:round;" y1="-10.163"/>
  <line x1="25.688" x2="25.688" y2="-5.505" style="fill:none;stroke:#000000;stroke-width:0.7;stroke-linecap:round;" y1="-5.505"/>
  <line x1="30.862" x2="30.862" y2="-13.613" style="fill:none;stroke:#000000;stroke-width:0.7;stroke-linecap:round;" y1="-13.613"/>
  <line x1="38.107" x2="38.107" y2="-10.335" style="fill:none;stroke:#000000;stroke-width:0.7;stroke-linecap:round;" y1="-10.335"/>
  <line x1="36.21" x2="36.21" y2="-7.92" style="fill:none;stroke:#000000;stroke-width:0.7;stroke-linecap:round;" y1="-7.92"/>
  <line x1="40.005" x2="40.005" y2="-6.54" style="fill:none;stroke:#000000;stroke-width:0.7;stroke-linecap:round;" y1="-6.54"/>
  <line x1="19.478" x2="19.478" y2="-34.658" style="fill:none;stroke:#000000;stroke-width:0.7;stroke-linecap:round;" y1="-34.658"/>
  <line x1="26.378" x2="26.378" y2="-35.52" style="fill:none;stroke:#000000;stroke-width:0.7;stroke-linecap:round;" y1="-35.52"/>
  <line x1="31.38" x2="31.38" y2="-32.07" style="fill:none;stroke:#000000;stroke-width:0.7;stroke-linecap:round;" y1="-32.07"/>
  <line x1="37.935" x2="37.935" y2="-21.893" style="fill:none;stroke:#000000;stroke-width:0.7;stroke-linecap:round;" y1="-21.893"/>
  <line x1="48.285" x2="48.285" y2="-15.855" style="fill:none;stroke:#000000;stroke-width:0.7;stroke-linecap:round;" y1="-15.855"/>
  <line x1="34.658" x2="34.658" y2="-18.615" style="fill:none;stroke:#000000;stroke-width:0.7;stroke-linecap:round;" y1="-18.615"/>
  <line x1="27.585" x2="27.585" y2="-20.858" style="fill:none;stroke:#000000;stroke-width:0.7;stroke-linecap:round;" y1="-20.858"/>
  <line x1="13.785" x2="13.785" y2="-31.898" style="fill:none;stroke:#000000;stroke-width:0.7;stroke-linecap:round;" y1="-31.898"/>
  <line x1="9.817" x2="9.817" y2="-26.205" style="fill:none;stroke:#000000;stroke-width:0.7;stroke-linecap:round;" y1="-26.205"/>
  <line x1="47.595" x2="47.595" y2="-29.138" style="fill:none;stroke:#000000;stroke-width:0.7;stroke-linecap:round;" y1="-29.138"/>
  <line x1="7.057" x2="7.057" y2="-40.695" style="fill:none;stroke:#000000;stroke-width:0.7;stroke-linecap:round;" y1="-40.695"/>
  <line x1="7.92" x2="7.92" y2="-47.94" style="fill:none;stroke:#000000;stroke-width:0.7;stroke-linecap:round;" y1="-47.94"/>
  <line x1="4.47" x2="4.47" y2="-49.838" style="fill:none;stroke:#000000;stroke-width:0.7;stroke-linecap:round;" y1="-49.838"/>
  <line x1="47.94" x2="47.94" y2="-25.86" style="fill:none;stroke:#000000;stroke-width:0.7;stroke-linecap:round;" y1="-25.86"/>
  <line x1="32.415" x2="32.415" y2="-8.093" style="fill:none;stroke:#000000;stroke-width:0.7;stroke-linecap:round;" y1="-8.093"/>
  <line x1="19.823" x2="19.823" y2="-3.263" style="fill:none;stroke:#000000;stroke-width:0.7;stroke-linecap:round;" y1="-3.263"/>
  <line x1="17.235" x2="17.235" y2="-22.755" style="fill:none;stroke:#000000;stroke-width:0.7;stroke-linecap:round;" y1="-22.755"/>
  <line x1="30.69" x2="30.69" y2="-27.758" style="fill:none;stroke:#000000;stroke-width:0.7;stroke-linecap:round;" y1="-27.758"/>
  <line x1="47.768" x2="47.768" y2="-23.618" style="fill:none;stroke:#000000;stroke-width:0.7;stroke-linecap:round;" y1="-23.618"/>
  <line x1="38.798" x2="38.798" y2="-41.213" style="fill:none;stroke:#000000;stroke-width:0.7;stroke-linecap:round;" y1="-41.213"/>
  <line x1="28.275" x2="28.275" y2="-39.315" style="fill:none;stroke:#000000;stroke-width:0.7;stroke-linecap:round;" y1="-39.315"/>
  <line x1="11.025" x2="11.025" y2="-37.763" style="fill:none;stroke:#000000;stroke-width:0.7;stroke-linecap:round;" y1="-37.763"/>
  <line x1="36.21" x2="36.21" y2="-48.458" style="fill:none;stroke:#000000;stroke-width:0.7;stroke-linecap:round;" y1="-48.458"/>
  <line x1="42.765" x2="42.765" y2="-37.245" style="fill:none;stroke:#000000;stroke-width:0.7;stroke-linecap:round;" y1="-37.245"/>
  <line x1="48.63" x2="48.63" y2="-12.06" style="fill:none;stroke:#000000;stroke-width:0.7;stroke-linecap:round;" y1="-12.06"/>
  <line x1="5.677" x2="5.677" y2="-3.435" style="fill:none;stroke:#000000;stroke-width:0.7;stroke-linecap:round;" y1="-3.435"/>
  <line x1="3.952" x2="3.952" y2="-42.42" style="fill:none;stroke:#000000;stroke-width:0.7;stroke-linecap:round;" y1="-42.42"/>
  <line x1="13.785" x2="13.785" y2="-49.665" style="fill:none;stroke:#000000;stroke-width:0.7;stroke-linecap:round;" y1="-49.665"/>
  <line x1="31.38" x2="31.38" y2="-48.458" style="fill:none;stroke:#000000;stroke-width:0.7;stroke-linecap:round;" y1="-48.458"/>
  <line x1="3.952" x2="3.952" y2="-29.483" style="fill:none;stroke:#000000;stroke-width:0.7;stroke-linecap:round;" y1="-29.483"/>
  <line x1="7.23" x2="7.23" y2="-34.313" style="fill:none;stroke:#000000;stroke-width:0.7;stroke-linecap:round;" y1="-34.313"/>
  <line x1="4.297" x2="4.297" y2="-18.96" style="fill:none;stroke:#000000;stroke-width:0.7;stroke-linecap:round;" y1="-18.96"/>
  <line x1="10.536" x2="10.536" y2="-15.597" style="fill:none;stroke:#000000;stroke-width:0.7;stroke-linecap:round;" y1="-15.597"/>
  <line x1="8.955" x2="8.955" y2="-10.335" style="fill:none;stroke:#000000;stroke-width:0.7;stroke-linecap:round;" y1="-10.335"/>
  <line x1="11.37" x2="11.37" y2="-6.195" style="fill:none;stroke:#000000;stroke-width:0.7;stroke-linecap:round;" y1="-6.195"/>
  <line x1="17.235" x2="17.235" y2="-14.82" style="fill:none;stroke:#000000;stroke-width:0.7;stroke-linecap:round;" y1="-14.82"/>
  <line x1="25.515" x2="25.515" y2="-28.103" style="fill:none;stroke:#000000;stroke-width:0.7;stroke-linecap:round;" y1="-28.103"/>
  <line x1="19.995" x2="19.995" y2="-28.103" style="fill:none;stroke:#000000;stroke-width:0.7;stroke-linecap:round;" y1="-28.103"/>
  <line x1="27.757" x2="27.757" y2="-31.898" style="fill:none;stroke:#000000;stroke-width:0.7;stroke-linecap:round;" y1="-31.898"/>
  <line x1="44.318" x2="44.318" y2="-32.933" style="fill:none;stroke:#000000;stroke-width:0.7;stroke-linecap:round;" y1="-32.933"/>
  <line x1="42.593" x2="42.593" y2="-12.233" style="fill:none;stroke:#000000;stroke-width:0.7;stroke-linecap:round;" y1="-12.233"/>
  <line x1="42.593" x2="42.593" y2="-22.238" style="fill:none;stroke:#000000;stroke-width:0.7;stroke-linecap:round;" y1="-22.238"/>
  <line x1="40.522" x2="40.522" y2="-27.067" style="fill:none;stroke:#000000;stroke-width:0.7;stroke-linecap:round;" y1="-27.067"/>
  <line x1="49.838" x2="49.838" y2="-2.918" style="fill:none;stroke:#000000;stroke-width:0.7;stroke-linecap:round;" y1="-2.918"/>
  <line x1="43.973" x2="43.973" y2="-6.195" style="fill:none;stroke:#000000;stroke-width:0.7;stroke-linecap:round;" y1="-6.195"/>
  <line x1="32.76" x2="32.76" y2="-2.4" style="fill:none;stroke:#000000;stroke-width:0.7;stroke-linecap:round;" y1="-2.4"/>
  <line x1="18.96" x2="18.96" y2="-50.873" style="fill:none;stroke:#000000;stroke-width:0.7;stroke-linecap:round;" y1="-50.873"/>
  <line x1="21.548" x2="21.548" y2="-5.29" style="fill:none;stroke:#000000;stroke-width:0.7;stroke-linecap:round;" y1="-5.29"/>
  <line x1="26.032" x2="26.032" y2="-25.86" style="fill:none;stroke:#000000;stroke-width:0.7;stroke-linecap:round;" y1="-25.86"/>
  <line x1="29.31" x2="29.31" y2="-23.273" style="fill:none;stroke:#000000;stroke-width:0.7;stroke-linecap:round;" y1="-23.273"/>
  <line x1="42.765" x2="42.765" y2="-28.448" style="fill:none;stroke:#000000;stroke-width:0.7;stroke-linecap:round;" y1="-28.448"/>
  <line x1="7.057" x2="7.057" y2="-21.893" style="fill:none;stroke:#000000;stroke-width:0.7;stroke-linecap:round;" y1="-21.893"/>
  <line x1="9.127" x2="9.127" y2="-45.18" style="fill:none;stroke:#000000;stroke-width:0.7;stroke-linecap:round;" y1="-45.18"/>
  <line x1="33.967" x2="33.967" y2="-30.431" style="fill:none;stroke:#000000;stroke-width:0.7;stroke-linecap:round;" y1="-30.431"/>
  <line x1="13.267" x2="13.267" y2="-36.038" style="fill:none;stroke:#000000;stroke-width:0.7;stroke-linecap:round;" y1="-36.038"/>
  <line x1="18.787" x2="18.787" y2="-44.318" style="fill:none;stroke:#000000;stroke-width:0.7;stroke-linecap:round;" y1="-44.318"/>
  <line x1="6.712" x2="6.712" y2="-45.698" style="fill:none;stroke:#000000;stroke-width:0.7;stroke-linecap:round;" y1="-45.698"/>
  <line x1="6.54" x2="6.54" y2="-28.103" style="fill:none;stroke:#000000;stroke-width:0.7;stroke-linecap:round;" y1="-28.103"/>
  <line x1="17.235" x2="17.235" y2="-28.448" style="fill:none;stroke:#000000;stroke-width:0.7;stroke-linecap:round;" y1="-28.448"/>
  <line x1="22.583" x2="22.583" y2="-21.03" style="fill:none;stroke:#000000;stroke-width:0.7;stroke-linecap:round;" y1="-21.03"/>
  <line x1="45.698" x2="45.698" y2="-14.475" style="fill:none;stroke:#000000;stroke-width:0.7;stroke-linecap:round;" y1="-14.475"/>
  <line x1="16.89" x2="16.89" y2="-4.642" style="fill:none;stroke:#000000;stroke-width:0.7;stroke-linecap:round;" y1="-4.642"/>
  <line x1="36.382" x2="36.382" y2="-50.7" style="fill:none;stroke:#000000;stroke-width:0.7;stroke-linecap:round;" y1="-50.7"/>
  <line x1="51.217" x2="51.217" y2="-8.093" style="fill:none;stroke:#000000;stroke-width:0.7;stroke-linecap:round;" y1="-8.093"/>
  <line x1="50.7" x2="50.7" y2="-48.803" style="fill:none;stroke:#000000;stroke-width:0.7;stroke-linecap:round;" y1="-48.803"/>
  <line x1="51.39" x2="51.39" y2="-16.718" style="fill:none;stroke:#000000;stroke-width:0.7;stroke-linecap:round;" y1="-16.718"/>
  <line x1="50.7" x2="50.7" y2="-43.973" style="fill:none;stroke:#000000;stroke-width:0.7;stroke-linecap:round;" y1="-43.973"/>
  <line x1="51.045" x2="51.045" y2="-25.17" style="fill:none;stroke:#000000;stroke-width:0.7;stroke-linecap:round;" y1="-25.17"/>
  <line x1="29.482" x2="29.482" y2="-50.355" style="fill:none;stroke:#000000;stroke-width:0.7;stroke-linecap:round;" y1="-50.355"/>
  <line x1="16.545" x2="16.545" y2="-49.493" style="fill:none;stroke:#000000;stroke-width:0.7;stroke-linecap:round;" y1="-49.493"/>
  <line x1="23.962" x2="23.962" y2="-43.455" style="fill:none;stroke:#000000;stroke-width:0.7;stroke-linecap:round;" y1="-43.455"/>
  <line x1="48.975" x2="48.975" y2="-36.9" style="fill:none;stroke:#000000;stroke-width:0.7;stroke-linecap:round;" y1="-36.9"/>
  <line x1="31.523" x2="31.523" y2="-18.328" style="fill:none;stroke:#000000;stroke-width:0.7;stroke-linecap:round;" y1="-18.328"/>
  <line x1="23.445" x2="23.445" y2="-10.852" style="fill:none;stroke:#000000;stroke-width:0.7;stroke-linecap:round;" y1="-10.852"/>
  <line x1="40.005" x2="40.005" y2="-14.13" style="fill:none;stroke:#000000;stroke-width:0.7;stroke-linecap:round;" y1="-14.13"/>
  <line x1="10.68" x2="10.68" y2="-30.115" style="fill:none;stroke:#000000;stroke-width:0.7;stroke-linecap:round;" y1="-30.115"/>
  <line x1="8.667" x2="8.667" y2="-42.19" style="fill:none;stroke:#000000;stroke-width:0.7;stroke-linecap:round;" y1="-42.19"/>
  <line x1="17.005" x2="17.005" y2="-38.597" style="fill:none;stroke:#000000;stroke-width:0.7;stroke-linecap:round;" y1="-38.597"/>
  <line x1="25.688" x2="25.688" y2="-32.933" style="fill:none;stroke:#000000;stroke-width:0.7;stroke-linecap:round;" y1="-32.933"/>
  <line x1="36.9" x2="36.9" y2="-39.143" style="fill:none;stroke:#000000;stroke-width:0.7;stroke-linecap:round;" y1="-39.143"/>
  <line x1="43.455" x2="43.455" y2="-48.285" style="fill:none;stroke:#000000;stroke-width:0.7;stroke-linecap:round;" y1="-48.285"/>
  <line x1="33.248" x2="33.248" y2="-26.809" style="fill:none;stroke:#000000;stroke-width:0.7;stroke-linecap:round;" y1="-26.809"/>
  <line x1="51.217" x2="51.217" y2="-23.1" style="fill:none;stroke:#000000;stroke-width:0.7;stroke-linecap:round;" y1="-23.1"/>
  <line x1="9.386" x2="9.386" y2="-17.465" style="fill:none;stroke:#000000;stroke-width:0.7;stroke-linecap:round;" y1="-17.465"/>
  <line x1="11.37" x2="11.37" y2="-6.195" style="fill:none;stroke:#000000;stroke-width:0.7;stroke-linecap:round;" y1="-6.195"/>
  <line x1="32.76" x2="32.76" y2="-2.4" style="fill:none;stroke:#000000;stroke-width:0.7;stroke-linecap:round;" y1="-2.4"/>
  <line x1="42.765" x2="42.765" y2="-28.448" style="fill:none;stroke:#000000;stroke-width:0.7;stroke-linecap:round;" y1="-28.448"/>
  <line x1="19.305" x2="19.305" y2="-25.803" style="fill:none;stroke:#000000;stroke-width:0.7;stroke-linecap:round;" y1="-25.803"/>
  <line x1="51.217" x2="51.217" y2="-8.093" style="fill:none;stroke:#000000;stroke-width:0.7;stroke-linecap:round;" y1="-8.093"/>
 </g>
</svg>
