<?xml version="1.0"?>
<!-- Converted with SVG Converter - Version 0.9.5 (Compiled Fri Feb 21 09:53:38 2020) - Copyright (C) 2011 Nokia -->
<svg xmlns="http://www.w3.org/2000/svg" width="49.68" version="1.1" xml:space="preserve" viewBox="2.055 -51.39 49.68 49.68" baseProfile="tiny" x="0px" xmlns:xlink="http://www.w3.org/1999/xlink" y="0px" height="49.68">
 <g>
  <rect width="49.68" style="fill:none;" x="2.055" y="-51.39" height="49.68"/>
  <line y1="-49.493" x2="16.545" y2="-49.493" x1="16.545" style="fill:none;stroke:#000000;stroke-width:0.7;stroke-linecap:round;"/>
  <line y1="-46.733" x2="16.545" y2="-46.733" x1="16.545" style="fill:none;stroke:#000000;stroke-width:0.7;stroke-linecap:round;"/>
  <line y1="-44.318" x2="16.027" y2="-44.318" x1="16.027" style="fill:none;stroke:#000000;stroke-width:0.7;stroke-linecap:round;"/>
  <line y1="-44.145" x2="12.06" y2="-44.145" x1="12.06" style="fill:none;stroke:#000000;stroke-width:0.7;stroke-linecap:round;"/>
  <line y1="-37.073" x2="18.615" y2="-37.073" x1="18.615" style="fill:none;stroke:#000000;stroke-width:0.7;stroke-linecap:round;"/>
  <line y1="-33.45" x2="11.197" y2="-33.45" x1="11.197" style="fill:none;stroke:#000000;stroke-width:0.7;stroke-linecap:round;"/>
  <line y1="-32.933" x2="18.615" y2="-32.933" x1="18.615" style="fill:none;stroke:#000000;stroke-width:0.7;stroke-linecap:round;"/>
  <line y1="-32.933" x2="22.583" y2="-32.933" x1="22.583" style="fill:none;stroke:#000000;stroke-width:0.7;stroke-linecap:round;"/>
  <line y1="-35.52" x2="23.618" y2="-35.52" x1="23.618" style="fill:none;stroke:#000000;stroke-width:0.7;stroke-linecap:round;"/>
  <line y1="-38.97" x2="22.237" y2="-38.97" x1="22.237" style="fill:none;stroke:#000000;stroke-width:0.7;stroke-linecap:round;"/>
  <line y1="-37.935" x2="25.515" y2="-37.935" x1="25.515" style="fill:none;stroke:#000000;stroke-width:0.7;stroke-linecap:round;"/>
  <line y1="-41.213" x2="25.515" y2="-41.213" x1="25.515" style="fill:none;stroke:#000000;stroke-width:0.7;stroke-linecap:round;"/>
  <line y1="-43.455" x2="23.962" y2="-43.455" x1="23.962" style="fill:none;stroke:#000000;stroke-width:0.7;stroke-linecap:round;"/>
  <line y1="-46.733" x2="24.308" y2="-46.733" x1="24.308" style="fill:none;stroke:#000000;stroke-width:0.7;stroke-linecap:round;"/>
  <line y1="-49.148" x2="23.445" y2="-49.148" x1="23.445" style="fill:none;stroke:#000000;stroke-width:0.7;stroke-linecap:round;"/>
  <line y1="-50.7" x2="25.515" y2="-50.7" x1="25.515" style="fill:none;stroke:#000000;stroke-width:0.7;stroke-linecap:round;"/>
  <line y1="-46.733" x2="30.69" y2="-46.733" x1="30.69" style="fill:none;stroke:#000000;stroke-width:0.7;stroke-linecap:round;"/>
  <line y1="-46.905" x2="33.45" y2="-46.905" x1="33.45" style="fill:none;stroke:#000000;stroke-width:0.7;stroke-linecap:round;"/>
  <line y1="-42.248" x2="31.38" y2="-42.248" x1="31.38" style="fill:none;stroke:#000000;stroke-width:0.7;stroke-linecap:round;"/>
  <line y1="-41.73" x2="34.485" y2="-41.73" x1="34.485" style="fill:none;stroke:#000000;stroke-width:0.7;stroke-linecap:round;"/>
  <line y1="-38.28" x2="34.485" y2="-38.28" x1="34.485" style="fill:none;stroke:#000000;stroke-width:0.7;stroke-linecap:round;"/>
  <line y1="-37.245" x2="28.965" y2="-37.245" x1="28.965" style="fill:none;stroke:#000000;stroke-width:0.7;stroke-linecap:round;"/>
  <line y1="-42.248" x2="36.728" y2="-42.248" x1="36.728" style="fill:none;stroke:#000000;stroke-width:0.7;stroke-linecap:round;"/>
  <line y1="-43.973" x2="39.833" y2="-43.973" x1="39.833" style="fill:none;stroke:#000000;stroke-width:0.7;stroke-linecap:round;"/>
  <line y1="-51.045" x2="41.04" y2="-51.045" x1="41.04" style="fill:none;stroke:#000000;stroke-width:0.7;stroke-linecap:round;"/>
  <line y1="-50.355" x2="48.63" y2="-50.355" x1="48.63" style="fill:none;stroke:#000000;stroke-width:0.7;stroke-linecap:round;"/>
  <line y1="-44.49" x2="48.975" y2="-44.49" x1="48.975" style="fill:none;stroke:#000000;stroke-width:0.7;stroke-linecap:round;"/>
  <line y1="-43.11" x2="46.388" y2="-43.11" x1="46.388" style="fill:none;stroke:#000000;stroke-width:0.7;stroke-linecap:round;"/>
  <line y1="-40.695" x2="47.078" y2="-40.695" x1="47.078" style="fill:none;stroke:#000000;stroke-width:0.7;stroke-linecap:round;"/>
  <line y1="-37.935" x2="46.215" y2="-37.935" x1="46.215" style="fill:none;stroke:#000000;stroke-width:0.7;stroke-linecap:round;"/>
  <line y1="-36.038" x2="46.388" y2="-36.038" x1="46.388" style="fill:none;stroke:#000000;stroke-width:0.7;stroke-linecap:round;"/>
  <line y1="-36.9" x2="48.975" y2="-36.9" x1="48.975" style="fill:none;stroke:#000000;stroke-width:0.7;stroke-linecap:round;"/>
  <line y1="-15.51" x2="6.885" y2="-15.51" x1="6.885" style="fill:none;stroke:#000000;stroke-width:0.7;stroke-linecap:round;"/>
  <line y1="-13.958" x2="7.057" y2="-13.958" x1="7.057" style="fill:none;stroke:#000000;stroke-width:0.7;stroke-linecap:round;"/>
  <line y1="-13.958" x2="3.607" y2="-13.958" x1="3.607" style="fill:none;stroke:#000000;stroke-width:0.7;stroke-linecap:round;"/>
  <line y1="-7.403" x2="8.782" y2="-7.403" x1="8.782" style="fill:none;stroke:#000000;stroke-width:0.7;stroke-linecap:round;"/>
  <line y1="-4.642" x2="2.745" y2="-4.642" x1="2.745" style="fill:none;stroke:#000000;stroke-width:0.7;stroke-linecap:round;"/>
  <line y1="-2.572" x2="9.645" y2="-2.572" x1="9.645" style="fill:none;stroke:#000000;stroke-width:0.7;stroke-linecap:round;"/>
  <path style="fill:none;stroke:#000000;stroke-width:0.7;stroke-linecap:round;" d="M14.82-6.368L14.82-6.368"/>
  <line y1="-8.61" x2="13.267" y2="-8.61" x1="13.267" style="fill:none;stroke:#000000;stroke-width:0.7;stroke-linecap:round;"/>
  <line y1="-11.715" x2="15.51" y2="-11.715" x1="15.51" style="fill:none;stroke:#000000;stroke-width:0.7;stroke-linecap:round;"/>
  <line y1="-8.783" x2="10.507" y2="-8.783" x1="10.507" style="fill:none;stroke:#000000;stroke-width:0.7;stroke-linecap:round;"/>
  <line y1="-13.785" x2="13.267" y2="-13.785" x1="13.267" style="fill:none;stroke:#000000;stroke-width:0.7;stroke-linecap:round;"/>
  <line y1="-16.372" x2="15.337" y2="-16.372" x1="15.337" style="fill:none;stroke:#000000;stroke-width:0.7;stroke-linecap:round;"/>
  <line y1="-16.372" x2="12.232" y2="-16.372" x1="12.232" style="fill:none;stroke:#000000;stroke-width:0.7;stroke-linecap:round;"/>
  <line y1="-18.96" x2="13.267" y2="-18.96" x1="13.267" style="fill:none;stroke:#000000;stroke-width:0.7;stroke-linecap:round;"/>
  <line y1="-16.545" x2="24.48" y2="-16.545" x1="24.48" style="fill:none;stroke:#000000;stroke-width:0.7;stroke-linecap:round;"/>
  <line y1="-14.13" x2="20.858" y2="-14.13" x1="20.858" style="fill:none;stroke:#000000;stroke-width:0.7;stroke-linecap:round;"/>
  <line y1="-13.095" x2="24.135" y2="-13.095" x1="24.135" style="fill:none;stroke:#000000;stroke-width:0.7;stroke-linecap:round;"/>
  <line y1="-10.852" x2="23.445" y2="-10.852" x1="23.445" style="fill:none;stroke:#000000;stroke-width:0.7;stroke-linecap:round;"/>
  <line y1="-7.575" x2="19.995" y2="-7.575" x1="19.995" style="fill:none;stroke:#000000;stroke-width:0.7;stroke-linecap:round;"/>
  <line y1="-12.75" x2="26.895" y2="-12.75" x1="26.895" style="fill:none;stroke:#000000;stroke-width:0.7;stroke-linecap:round;"/>
  <line y1="-16.545" x2="30.862" y2="-16.545" x1="30.862" style="fill:none;stroke:#000000;stroke-width:0.7;stroke-linecap:round;"/>
  <line y1="-20.685" x2="32.07" y2="-20.685" x1="32.07" style="fill:none;stroke:#000000;stroke-width:0.7;stroke-linecap:round;"/>
  <line y1="-16.028" x2="36.728" y2="-16.028" x1="36.728" style="fill:none;stroke:#000000;stroke-width:0.7;stroke-linecap:round;"/>
  <line y1="-18.615" x2="37.59" y2="-18.615" x1="37.59" style="fill:none;stroke:#000000;stroke-width:0.7;stroke-linecap:round;"/>
  <line y1="-19.133" x2="40.005" y2="-19.133" x1="40.005" style="fill:none;stroke:#000000;stroke-width:0.7;stroke-linecap:round;"/>
  <line y1="-14.13" x2="40.005" y2="-14.13" x1="40.005" style="fill:none;stroke:#000000;stroke-width:0.7;stroke-linecap:round;"/>
  <line y1="-12.75" x2="37.417" y2="-12.75" x1="37.417" style="fill:none;stroke:#000000;stroke-width:0.7;stroke-linecap:round;"/>
  <line y1="-9.99" x2="35.002" y2="-9.99" x1="35.002" style="fill:none;stroke:#000000;stroke-width:0.7;stroke-linecap:round;"/>
  <line y1="-11.37" x2="40.178" y2="-11.37" x1="40.178" style="fill:none;stroke:#000000;stroke-width:0.7;stroke-linecap:round;"/>
  <line y1="-9.127" x2="42.248" y2="-9.127" x1="42.248" style="fill:none;stroke:#000000;stroke-width:0.7;stroke-linecap:round;"/>
  <line y1="-36.038" x2="16.2" y2="-36.038" x1="16.2" style="fill:none;stroke:#000000;stroke-width:0.7;stroke-linecap:round;"/>
  <line y1="-34.485" x2="28.965" y2="-34.485" x1="28.965" style="fill:none;stroke:#000000;stroke-width:0.7;stroke-linecap:round;"/>
  <line y1="-32.76" x2="34.83" y2="-32.76" x1="34.83" style="fill:none;stroke:#000000;stroke-width:0.7;stroke-linecap:round;"/>
  <line y1="-32.243" x2="40.178" y2="-32.243" x1="40.178" style="fill:none;stroke:#000000;stroke-width:0.7;stroke-linecap:round;"/>
  <line y1="-34.14" x2="37.417" y2="-34.14" x1="37.417" style="fill:none;stroke:#000000;stroke-width:0.7;stroke-linecap:round;"/>
  <line y1="-31.208" x2="37.935" y2="-31.208" x1="37.935" style="fill:none;stroke:#000000;stroke-width:0.7;stroke-linecap:round;"/>
  <line y1="-27.067" x2="45.18" y2="-27.067" x1="45.18" style="fill:none;stroke:#000000;stroke-width:0.7;stroke-linecap:round;"/>
  <line y1="-24.653" x2="41.213" y2="-24.653" x1="41.213" style="fill:none;stroke:#000000;stroke-width:0.7;stroke-linecap:round;"/>
  <line y1="-25.86" x2="35.347" y2="-25.86" x1="35.347" style="fill:none;stroke:#000000;stroke-width:0.7;stroke-linecap:round;"/>
  <line y1="-23.1" x2="35.175" y2="-23.1" x1="35.175" style="fill:none;stroke:#000000;stroke-width:0.7;stroke-linecap:round;"/>
  <line y1="-21.03" x2="35.175" y2="-21.03" x1="35.175" style="fill:none;stroke:#000000;stroke-width:0.7;stroke-linecap:round;"/>
  <line y1="-19.65" x2="42.765" y2="-19.65" x1="42.765" style="fill:none;stroke:#000000;stroke-width:0.7;stroke-linecap:round;"/>
  <line y1="-17.753" x2="45.525" y2="-17.753" x1="45.525" style="fill:none;stroke:#000000;stroke-width:0.7;stroke-linecap:round;"/>
  <line y1="-21.375" x2="49.32" y2="-21.375" x1="49.32" style="fill:none;stroke:#000000;stroke-width:0.7;stroke-linecap:round;"/>
  <line y1="-24.653" x2="44.663" y2="-24.653" x1="44.663" style="fill:none;stroke:#000000;stroke-width:0.7;stroke-linecap:round;"/>
  <line y1="-19.133" x2="24.48" y2="-19.133" x1="24.48" style="fill:none;stroke:#000000;stroke-width:0.7;stroke-linecap:round;"/>
  <line y1="-23.503" x2="20.742" y2="-23.503" x1="20.742" style="fill:none;stroke:#000000;stroke-width:0.7;stroke-linecap:round;"/>
  <line y1="-27.067" x2="22.583" y2="-27.067" x1="22.583" style="fill:none;stroke:#000000;stroke-width:0.7;stroke-linecap:round;"/>
  <line y1="-32.559" x2="9.242" y2="-32.559" x1="9.242" style="fill:none;stroke:#000000;stroke-width:0.7;stroke-linecap:round;"/>
  <line y1="-29.828" x2="6.195" y2="-29.828" x1="6.195" style="fill:none;stroke:#000000;stroke-width:0.7;stroke-linecap:round;"/>
  <line y1="-27.24" x2="3.78" y2="-27.24" x1="3.78" style="fill:none;stroke:#000000;stroke-width:0.7;stroke-linecap:round;"/>
  <line y1="-22.583" x2="13.785" y2="-22.583" x1="13.785" style="fill:none;stroke:#000000;stroke-width:0.7;stroke-linecap:round;"/>
  <line y1="-28.103" x2="11.715" y2="-28.103" x1="11.715" style="fill:none;stroke:#000000;stroke-width:0.7;stroke-linecap:round;"/>
  <line y1="-30.69" x2="20.34" y2="-30.69" x1="20.34" style="fill:none;stroke:#000000;stroke-width:0.7;stroke-linecap:round;"/>
  <line y1="-29.828" x2="30.69" y2="-29.828" x1="30.69" style="fill:none;stroke:#000000;stroke-width:0.7;stroke-linecap:round;"/>
  <line y1="-29.828" x2="27.757" y2="-29.828" x1="27.757" style="fill:none;stroke:#000000;stroke-width:0.7;stroke-linecap:round;"/>
  <line y1="-24.135" x2="23.1" y2="-24.135" x1="23.1" style="fill:none;stroke:#000000;stroke-width:0.7;stroke-linecap:round;"/>
  <line y1="-37.418" x2="6.54" y2="-37.418" x1="6.54" style="fill:none;stroke:#000000;stroke-width:0.7;stroke-linecap:round;"/>
  <line y1="-38.625" x2="8.782" y2="-38.625" x1="8.782" style="fill:none;stroke:#000000;stroke-width:0.7;stroke-linecap:round;"/>
  <line y1="-35.348" x2="10.162" y2="-35.348" x1="10.162" style="fill:none;stroke:#000000;stroke-width:0.7;stroke-linecap:round;"/>
  <line y1="-33.795" x2="4.125" y2="-33.795" x1="4.125" style="fill:none;stroke:#000000;stroke-width:0.7;stroke-linecap:round;"/>
  <line y1="-31.208" x2="46.388" y2="-31.208" x1="46.388" style="fill:none;stroke:#000000;stroke-width:0.7;stroke-linecap:round;"/>
  <line y1="-31.035" x2="50.01" y2="-31.035" x1="50.01" style="fill:none;stroke:#000000;stroke-width:0.7;stroke-linecap:round;"/>
  <line y1="-45.353" x2="3.09" y2="-45.353" x1="3.09" style="fill:none;stroke:#000000;stroke-width:0.7;stroke-linecap:round;"/>
  <line y1="-46.905" x2="14.302" y2="-46.905" x1="14.302" style="fill:none;stroke:#000000;stroke-width:0.7;stroke-linecap:round;"/>
  <line y1="-47.423" x2="4.642" y2="-47.423" x1="4.642" style="fill:none;stroke:#000000;stroke-width:0.7;stroke-linecap:round;"/>
  <line y1="-41.73" x2="10.852" y2="-41.73" x1="10.852" style="fill:none;stroke:#000000;stroke-width:0.7;stroke-linecap:round;"/>
  <line y1="-38.28" x2="14.82" y2="-38.28" x1="14.82" style="fill:none;stroke:#000000;stroke-width:0.7;stroke-linecap:round;"/>
  <line y1="-26.033" x2="16.717" y2="-26.033" x1="16.717" style="fill:none;stroke:#000000;stroke-width:0.7;stroke-linecap:round;"/>
  <line y1="-21.03" x2="2.572" y2="-21.03" x1="2.572" style="fill:none;stroke:#000000;stroke-width:0.7;stroke-linecap:round;"/>
  <line y1="-6.195" x2="50.01" y2="-6.195" x1="50.01" style="fill:none;stroke:#000000;stroke-width:0.7;stroke-linecap:round;"/>
  <line y1="-3.953" x2="41.73" y2="-3.953" x1="41.73" style="fill:none;stroke:#000000;stroke-width:0.7;stroke-linecap:round;"/>
  <line y1="-4.642" x2="30" y2="-4.642" x1="30" style="fill:none;stroke:#000000;stroke-width:0.7;stroke-linecap:round;"/>
  <line y1="-10.163" x2="5.16" y2="-10.163" x1="5.16" style="fill:none;stroke:#000000;stroke-width:0.7;stroke-linecap:round;"/>
  <line y1="-10.507" x2="20.34" y2="-10.507" x1="20.34" style="fill:none;stroke:#000000;stroke-width:0.7;stroke-linecap:round;"/>
  <line y1="-18.098" x2="27.757" y2="-18.098" x1="27.757" style="fill:none;stroke:#000000;stroke-width:0.7;stroke-linecap:round;"/>
  <line y1="-23.79" x2="8.092" y2="-23.79" x1="8.092" style="fill:none;stroke:#000000;stroke-width:0.7;stroke-linecap:round;"/>
  <line y1="-25.343" x2="38.107" y2="-25.343" x1="38.107" style="fill:none;stroke:#000000;stroke-width:0.7;stroke-linecap:round;"/>
  <line y1="-19.995" x2="46.733" y2="-19.995" x1="46.733" style="fill:none;stroke:#000000;stroke-width:0.7;stroke-linecap:round;"/>
  <line y1="-5.85" x2="37.417" y2="-5.85" x1="37.417" style="fill:none;stroke:#000000;stroke-width:0.7;stroke-linecap:round;"/>
  <line y1="-25.515" x2="29.655" y2="-25.515" x1="29.655" style="fill:none;stroke:#000000;stroke-width:0.7;stroke-linecap:round;"/>
  <line y1="-42.248" x2="21.03" y2="-42.248" x1="21.03" style="fill:none;stroke:#000000;stroke-width:0.7;stroke-linecap:round;"/>
  <line y1="-33.278" x2="15.682" y2="-33.278" x1="15.682" style="fill:none;stroke:#000000;stroke-width:0.7;stroke-linecap:round;"/>
  <line y1="-50.355" x2="10.162" y2="-50.355" x1="10.162" style="fill:none;stroke:#000000;stroke-width:0.7;stroke-linecap:round;"/>
  <line y1="-48.975" x2="40.178" y2="-48.975" x1="40.178" style="fill:none;stroke:#000000;stroke-width:0.7;stroke-linecap:round;"/>
  <line y1="-3.953" x2="35.175" y2="-3.953" x1="35.175" style="fill:none;stroke:#000000;stroke-width:0.7;stroke-linecap:round;"/>
  <line y1="-23.445" x2="4.642" y2="-23.445" x1="4.642" style="fill:none;stroke:#000000;stroke-width:0.7;stroke-linecap:round;"/>
  <line y1="-42.42" x2="49.493" y2="-42.42" x1="49.493" style="fill:none;stroke:#000000;stroke-width:0.7;stroke-linecap:round;"/>
  <line y1="-41.903" x2="18.097" y2="-41.903" x1="18.097" style="fill:none;stroke:#000000;stroke-width:0.7;stroke-linecap:round;"/>
  <line y1="-40.695" x2="14.992" y2="-40.695" x1="14.992" style="fill:none;stroke:#000000;stroke-width:0.7;stroke-linecap:round;"/>
  <line y1="-39.66" x2="12.232" y2="-39.66" x1="12.232" style="fill:none;stroke:#000000;stroke-width:0.7;stroke-linecap:round;"/>
  <line y1="-43.771" x2="5.505" y2="-43.771" x1="5.505" style="fill:none;stroke:#000000;stroke-width:0.7;stroke-linecap:round;"/>
  <line y1="-49.665" x2="6.885" y2="-49.665" x1="6.885" style="fill:none;stroke:#000000;stroke-width:0.7;stroke-linecap:round;"/>
  <line y1="-45.87" x2="11.887" y2="-45.87" x1="11.887" style="fill:none;stroke:#000000;stroke-width:0.7;stroke-linecap:round;"/>
  <line y1="-46.733" x2="19.823" y2="-46.733" x1="19.823" style="fill:none;stroke:#000000;stroke-width:0.7;stroke-linecap:round;"/>
  <line y1="-46.388" x2="27.585" y2="-46.388" x1="27.585" style="fill:none;stroke:#000000;stroke-width:0.7;stroke-linecap:round;"/>
  <line y1="-48.63" x2="27.93" y2="-48.63" x1="27.93" style="fill:none;stroke:#000000;stroke-width:0.7;stroke-linecap:round;"/>
  <line y1="-50.528" x2="32.07" y2="-50.528" x1="32.07" style="fill:none;stroke:#000000;stroke-width:0.7;stroke-linecap:round;"/>
  <line y1="-45.353" x2="37.417" y2="-45.353" x1="37.417" style="fill:none;stroke:#000000;stroke-width:0.7;stroke-linecap:round;"/>
  <line y1="-43.973" x2="26.722" y2="-43.973" x1="26.722" style="fill:none;stroke:#000000;stroke-width:0.7;stroke-linecap:round;"/>
  <line y1="-41.213" x2="29.137" y2="-41.213" x1="29.137" style="fill:none;stroke:#000000;stroke-width:0.7;stroke-linecap:round;"/>
  <line y1="-39.143" x2="19.132" y2="-39.143" x1="19.132" style="fill:none;stroke:#000000;stroke-width:0.7;stroke-linecap:round;"/>
  <line y1="-32.415" x2="7.057" y2="-32.415" x1="7.057" style="fill:none;stroke:#000000;stroke-width:0.7;stroke-linecap:round;"/>
  <line y1="-29.655" x2="13.095" y2="-29.655" x1="13.095" style="fill:none;stroke:#000000;stroke-width:0.7;stroke-linecap:round;"/>
  <line y1="-28.448" x2="9.3" y2="-28.448" x1="9.3" style="fill:none;stroke:#000000;stroke-width:0.7;stroke-linecap:round;"/>
  <line y1="-26.033" x2="5.677" y2="-26.033" x1="5.677" style="fill:none;stroke:#000000;stroke-width:0.7;stroke-linecap:round;"/>
  <line y1="-37.418" x2="4.297" y2="-37.418" x1="4.297" style="fill:none;stroke:#000000;stroke-width:0.7;stroke-linecap:round;"/>
  <line y1="-30.345" x2="16.2" y2="-30.345" x1="16.2" style="fill:none;stroke:#000000;stroke-width:0.7;stroke-linecap:round;"/>
  <line y1="-27.067" x2="14.13" y2="-27.067" x1="14.13" style="fill:none;stroke:#000000;stroke-width:0.7;stroke-linecap:round;"/>
  <line y1="-24.653" x2="13.095" y2="-24.653" x1="13.095" style="fill:none;stroke:#000000;stroke-width:0.7;stroke-linecap:round;"/>
  <line y1="-23.1" x2="10.852" y2="-23.1" x1="10.852" style="fill:none;stroke:#000000;stroke-width:0.7;stroke-linecap:round;"/>
  <line y1="-19.478" x2="10.852" y2="-19.478" x1="10.852" style="fill:none;stroke:#000000;stroke-width:0.7;stroke-linecap:round;"/>
  <line y1="-17.753" x2="17.925" y2="-17.753" x1="17.925" style="fill:none;stroke:#000000;stroke-width:0.7;stroke-linecap:round;"/>
  <line y1="-13.958" x2="9.645" y2="-13.958" x1="9.645" style="fill:none;stroke:#000000;stroke-width:0.7;stroke-linecap:round;"/>
  <line y1="-11.198" x2="12.75" y2="-11.198" x1="12.75" style="fill:none;stroke:#000000;stroke-width:0.7;stroke-linecap:round;"/>
  <line y1="-7.748" x2="6.195" y2="-7.748" x1="6.195" style="fill:none;stroke:#000000;stroke-width:0.7;stroke-linecap:round;"/>
  <line y1="-8.783" x2="3.607" y2="-8.783" x1="3.607" style="fill:none;stroke:#000000;stroke-width:0.7;stroke-linecap:round;"/>
  <line y1="-4.642" x2="8.265" y2="-4.642" x1="8.265" style="fill:none;stroke:#000000;stroke-width:0.7;stroke-linecap:round;"/>
  <line y1="-3.608" x2="11.37" y2="-3.608" x1="11.37" style="fill:none;stroke:#000000;stroke-width:0.7;stroke-linecap:round;"/>
  <line y1="-2.745" x2="17.062" y2="-2.745" x1="17.062" style="fill:none;stroke:#000000;stroke-width:0.7;stroke-linecap:round;"/>
  <line y1="-6.195" x2="17.925" y2="-6.195" x1="17.925" style="fill:none;stroke:#000000;stroke-width:0.7;stroke-linecap:round;"/>
  <line y1="-10.163" x2="17.407" y2="-10.163" x1="17.407" style="fill:none;stroke:#000000;stroke-width:0.7;stroke-linecap:round;"/>
  <line y1="-11.887" x2="18.787" y2="-11.887" x1="18.787" style="fill:none;stroke:#000000;stroke-width:0.7;stroke-linecap:round;"/>
  <line y1="-18.615" x2="20.167" y2="-18.615" x1="20.167" style="fill:none;stroke:#000000;stroke-width:0.7;stroke-linecap:round;"/>
  <line y1="-21.548" x2="19.823" y2="-21.548" x1="19.823" style="fill:none;stroke:#000000;stroke-width:0.7;stroke-linecap:round;"/>
  <line y1="-30.173" x2="24.308" y2="-30.173" x1="24.308" style="fill:none;stroke:#000000;stroke-width:0.7;stroke-linecap:round;"/>
  <line y1="-32.933" x2="25.688" y2="-32.933" x1="25.688" style="fill:none;stroke:#000000;stroke-width:0.7;stroke-linecap:round;"/>
  <line y1="-34.313" x2="32.243" y2="-34.313" x1="32.243" style="fill:none;stroke:#000000;stroke-width:0.7;stroke-linecap:round;"/>
  <line y1="-37.245" x2="31.725" y2="-37.245" x1="31.725" style="fill:none;stroke:#000000;stroke-width:0.7;stroke-linecap:round;"/>
  <line y1="-36.21" x2="21.202" y2="-36.21" x1="21.202" style="fill:none;stroke:#000000;stroke-width:0.7;stroke-linecap:round;"/>
  <line y1="-36.383" x2="37.935" y2="-36.383" x1="37.935" style="fill:none;stroke:#000000;stroke-width:0.7;stroke-linecap:round;"/>
  <line y1="-39.315" x2="31.897" y2="-39.315" x1="31.897" style="fill:none;stroke:#000000;stroke-width:0.7;stroke-linecap:round;"/>
  <line y1="-39.143" x2="36.9" y2="-39.143" x1="36.9" style="fill:none;stroke:#000000;stroke-width:0.7;stroke-linecap:round;"/>
  <line y1="-39.66" x2="43.11" y2="-39.66" x1="43.11" style="fill:none;stroke:#000000;stroke-width:0.7;stroke-linecap:round;"/>
  <line y1="-41.903" x2="42.248" y2="-41.903" x1="42.248" style="fill:none;stroke:#000000;stroke-width:0.7;stroke-linecap:round;"/>
  <line y1="-44.145" x2="43.11" y2="-44.145" x1="43.11" style="fill:none;stroke:#000000;stroke-width:0.7;stroke-linecap:round;"/>
  <line y1="-46.388" x2="42.593" y2="-46.388" x1="42.593" style="fill:none;stroke:#000000;stroke-width:0.7;stroke-linecap:round;"/>
  <line y1="-48.285" x2="43.455" y2="-48.285" x1="43.455" style="fill:none;stroke:#000000;stroke-width:0.7;stroke-linecap:round;"/>
  <line y1="-47.423" x2="48.63" y2="-47.423" x1="48.63" style="fill:none;stroke:#000000;stroke-width:0.7;stroke-linecap:round;"/>
  <line y1="-45.18" x2="45.87" y2="-45.18" x1="45.87" style="fill:none;stroke:#000000;stroke-width:0.7;stroke-linecap:round;"/>
  <line y1="-35.175" x2="43.628" y2="-35.175" x1="43.628" style="fill:none;stroke:#000000;stroke-width:0.7;stroke-linecap:round;"/>
  <line y1="-35.175" x2="40.35" y2="-35.175" x1="40.35" style="fill:none;stroke:#000000;stroke-width:0.7;stroke-linecap:round;"/>
  <line y1="-38.625" x2="40.35" y2="-38.625" x1="40.35" style="fill:none;stroke:#000000;stroke-width:0.7;stroke-linecap:round;"/>
  <line y1="-33.795" x2="46.905" y2="-33.795" x1="46.905" style="fill:none;stroke:#000000;stroke-width:0.7;stroke-linecap:round;"/>
  <line y1="-30.345" x2="43.11" y2="-30.345" x1="43.11" style="fill:none;stroke:#000000;stroke-width:0.7;stroke-linecap:round;"/>
  <line y1="-28.965" x2="38.452" y2="-28.965" x1="38.452" style="fill:none;stroke:#000000;stroke-width:0.7;stroke-linecap:round;"/>
  <line y1="-28.275" x2="34.83" y2="-28.275" x1="34.83" style="fill:none;stroke:#000000;stroke-width:0.7;stroke-linecap:round;"/>
  <line y1="-24.48" x2="32.588" y2="-24.48" x1="32.588" style="fill:none;stroke:#000000;stroke-width:0.7;stroke-linecap:round;"/>
  <line y1="-22.928" x2="25.515" y2="-22.928" x1="25.515" style="fill:none;stroke:#000000;stroke-width:0.7;stroke-linecap:round;"/>
  <line y1="-19.823" x2="29.684" y2="-19.823" x1="29.684" style="fill:none;stroke:#000000;stroke-width:0.7;stroke-linecap:round;"/>
  <line y1="-15.51" x2="33.623" y2="-15.51" x1="33.623" style="fill:none;stroke:#000000;stroke-width:0.7;stroke-linecap:round;"/>
  <line y1="-12.405" x2="34.14" y2="-12.405" x1="34.14" style="fill:none;stroke:#000000;stroke-width:0.7;stroke-linecap:round;"/>
  <line y1="-10.507" x2="31.035" y2="-10.507" x1="31.035" style="fill:none;stroke:#000000;stroke-width:0.7;stroke-linecap:round;"/>
  <line y1="-8.265" x2="29.655" y2="-8.265" x1="29.655" style="fill:none;stroke:#000000;stroke-width:0.7;stroke-linecap:round;"/>
  <line y1="-8.265" x2="26.895" y2="-8.265" x1="26.895" style="fill:none;stroke:#000000;stroke-width:0.7;stroke-linecap:round;"/>
  <line y1="-15.165" x2="27.24" y2="-15.165" x1="27.24" style="fill:none;stroke:#000000;stroke-width:0.7;stroke-linecap:round;"/>
  <line y1="-8.61" x2="22.927" y2="-8.61" x1="22.927" style="fill:none;stroke:#000000;stroke-width:0.7;stroke-linecap:round;"/>
  <line y1="-4.298" x2="23.79" y2="-4.298" x1="23.79" style="fill:none;stroke:#000000;stroke-width:0.7;stroke-linecap:round;"/>
  <line y1="-3.263" x2="27.93" y2="-3.263" x1="27.93" style="fill:none;stroke:#000000;stroke-width:0.7;stroke-linecap:round;"/>
  <line y1="-12.233" x2="45.525" y2="-12.233" x1="45.525" style="fill:none;stroke:#000000;stroke-width:0.7;stroke-linecap:round;"/>
  <line y1="-16.545" x2="43.455" y2="-16.545" x1="43.455" style="fill:none;stroke:#000000;stroke-width:0.7;stroke-linecap:round;"/>
  <line y1="-16.718" x2="39.66" y2="-16.718" x1="39.66" style="fill:none;stroke:#000000;stroke-width:0.7;stroke-linecap:round;"/>
  <line y1="-22.755" x2="39.833" y2="-22.755" x1="39.833" style="fill:none;stroke:#000000;stroke-width:0.7;stroke-linecap:round;"/>
  <line y1="-22.41" x2="45.18" y2="-22.41" x1="45.18" style="fill:none;stroke:#000000;stroke-width:0.7;stroke-linecap:round;"/>
  <line y1="-18.098" x2="49.838" y2="-18.098" x1="49.838" style="fill:none;stroke:#000000;stroke-width:0.7;stroke-linecap:round;"/>
  <line y1="-14.13" x2="50.01" y2="-14.13" x1="50.01" style="fill:none;stroke:#000000;stroke-width:0.7;stroke-linecap:round;"/>
  <line y1="-8.955" x2="45.87" y2="-8.955" x1="45.87" style="fill:none;stroke:#000000;stroke-width:0.7;stroke-linecap:round;"/>
  <line y1="-10.68" x2="50.528" y2="-10.68" x1="50.528" style="fill:none;stroke:#000000;stroke-width:0.7;stroke-linecap:round;"/>
  <line y1="-6.368" x2="46.733" y2="-6.368" x1="46.733" style="fill:none;stroke:#000000;stroke-width:0.7;stroke-linecap:round;"/>
  <line y1="-4.47" x2="47.423" y2="-4.47" x1="47.423" style="fill:none;stroke:#000000;stroke-width:0.7;stroke-linecap:round;"/>
  <line y1="-3.09" x2="45.18" y2="-3.09" x1="45.18" style="fill:none;stroke:#000000;stroke-width:0.7;stroke-linecap:round;"/>
  <line y1="-3.435" x2="38.452" y2="-3.435" x1="38.452" style="fill:none;stroke:#000000;stroke-width:0.7;stroke-linecap:round;"/>
  <line y1="-5.677" x2="32.932" y2="-5.677" x1="32.932" style="fill:none;stroke:#000000;stroke-width:0.7;stroke-linecap:round;"/>
  <line y1="-2.4" x2="21.72" y2="-2.4" x1="21.72" style="fill:none;stroke:#000000;stroke-width:0.7;stroke-linecap:round;"/>
  <line y1="-31.38" x2="3.435" y2="-31.38" x1="3.435" style="fill:none;stroke:#000000;stroke-width:0.7;stroke-linecap:round;"/>
  <line y1="-48.113" x2="11.197" y2="-48.113" x1="11.197" style="fill:none;stroke:#000000;stroke-width:0.7;stroke-linecap:round;"/>
  <line y1="-27.758" x2="50.528" y2="-27.758" x1="50.528" style="fill:none;stroke:#000000;stroke-width:0.7;stroke-linecap:round;"/>
  <line y1="-23.1" x2="51.217" y2="-23.1" x1="51.217" style="fill:none;stroke:#000000;stroke-width:0.7;stroke-linecap:round;"/>
  <line y1="-16.372" x2="4.125" y2="-16.372" x1="4.125" style="fill:none;stroke:#000000;stroke-width:0.7;stroke-linecap:round;"/>
  <line y1="-33.278" x2="49.665" y2="-33.278" x1="49.665" style="fill:none;stroke:#000000;stroke-width:0.7;stroke-linecap:round;"/>
  <line y1="-8.955" x2="48.63" y2="-8.955" x1="48.63" style="fill:none;stroke:#000000;stroke-width:0.7;stroke-linecap:round;"/>
  <line y1="-11.715" x2="2.4" y2="-11.715" x1="2.4" style="fill:none;stroke:#000000;stroke-width:0.7;stroke-linecap:round;"/>
  <line y1="-2.4" x2="3.952" y2="-2.4" x1="3.952" style="fill:none;stroke:#000000;stroke-width:0.7;stroke-linecap:round;"/>
  <line y1="-35.434" x2="51.103" y2="-35.434" x1="51.103" style="fill:none;stroke:#000000;stroke-width:0.7;stroke-linecap:round;"/>
  <line y1="-40.005" x2="2.917" y2="-40.005" x1="2.917" style="fill:none;stroke:#000000;stroke-width:0.7;stroke-linecap:round;"/>
  <line y1="-42.765" x2="14.475" y2="-42.765" x1="14.475" style="fill:none;stroke:#000000;stroke-width:0.7;stroke-linecap:round;"/>
  <line y1="-44.663" x2="22.237" y2="-44.663" x1="22.237" style="fill:none;stroke:#000000;stroke-width:0.7;stroke-linecap:round;"/>
  <line y1="-48.975" x2="20.513" y2="-48.975" x1="20.513" style="fill:none;stroke:#000000;stroke-width:0.7;stroke-linecap:round;"/>
  <line y1="-44.49" x2="29.827" y2="-44.49" x1="29.827" style="fill:none;stroke:#000000;stroke-width:0.7;stroke-linecap:round;"/>
  <line y1="-44.49" x2="33.967" y2="-44.49" x1="33.967" style="fill:none;stroke:#000000;stroke-width:0.7;stroke-linecap:round;"/>
  <line y1="-35.865" x2="34.658" y2="-35.865" x1="34.658" style="fill:none;stroke:#000000;stroke-width:0.7;stroke-linecap:round;"/>
  <line y1="-46.905" x2="39.833" y2="-46.905" x1="39.833" style="fill:none;stroke:#000000;stroke-width:0.7;stroke-linecap:round;"/>
  <line y1="-47.078" x2="46.215" y2="-47.078" x1="46.215" style="fill:none;stroke:#000000;stroke-width:0.7;stroke-linecap:round;"/>
  <line y1="-50.183" x2="45.353" y2="-50.183" x1="45.353" style="fill:none;stroke:#000000;stroke-width:0.7;stroke-linecap:round;"/>
  <line y1="-39.143" x2="50.01" y2="-39.143" x1="50.01" style="fill:none;stroke:#000000;stroke-width:0.7;stroke-linecap:round;"/>
  <line y1="-19.133" x2="7.575" y2="-19.133" x1="7.575" style="fill:none;stroke:#000000;stroke-width:0.7;stroke-linecap:round;"/>
  <line y1="-12.405" x2="5.505" y2="-12.405" x1="5.505" style="fill:none;stroke:#000000;stroke-width:0.7;stroke-linecap:round;"/>
  <line y1="-6.195" x2="4.297" y2="-6.195" x1="4.297" style="fill:none;stroke:#000000;stroke-width:0.7;stroke-linecap:round;"/>
  <line y1="-3.435" x2="14.302" y2="-3.435" x1="14.302" style="fill:none;stroke:#000000;stroke-width:0.7;stroke-linecap:round;"/>
  <line y1="-8.093" x2="16.545" y2="-8.093" x1="16.545" style="fill:none;stroke:#000000;stroke-width:0.7;stroke-linecap:round;"/>
  <line y1="-20.34" x2="16.545" y2="-20.34" x1="16.545" style="fill:none;stroke:#000000;stroke-width:0.7;stroke-linecap:round;"/>
  <line y1="-16.372" x2="21.72" y2="-16.372" x1="21.72" style="fill:none;stroke:#000000;stroke-width:0.7;stroke-linecap:round;"/>
  <line y1="-10.163" x2="27.24" y2="-10.163" x1="27.24" style="fill:none;stroke:#000000;stroke-width:0.7;stroke-linecap:round;"/>
  <line y1="-5.505" x2="25.688" y2="-5.505" x1="25.688" style="fill:none;stroke:#000000;stroke-width:0.7;stroke-linecap:round;"/>
  <line y1="-13.613" x2="30.862" y2="-13.613" x1="30.862" style="fill:none;stroke:#000000;stroke-width:0.7;stroke-linecap:round;"/>
  <line y1="-10.335" x2="38.107" y2="-10.335" x1="38.107" style="fill:none;stroke:#000000;stroke-width:0.7;stroke-linecap:round;"/>
  <line y1="-7.92" x2="36.21" y2="-7.92" x1="36.21" style="fill:none;stroke:#000000;stroke-width:0.7;stroke-linecap:round;"/>
  <line y1="-6.54" x2="40.005" y2="-6.54" x1="40.005" style="fill:none;stroke:#000000;stroke-width:0.7;stroke-linecap:round;"/>
  <line y1="-34.658" x2="19.478" y2="-34.658" x1="19.478" style="fill:none;stroke:#000000;stroke-width:0.7;stroke-linecap:round;"/>
  <line y1="-35.52" x2="26.378" y2="-35.52" x1="26.378" style="fill:none;stroke:#000000;stroke-width:0.7;stroke-linecap:round;"/>
  <line y1="-32.07" x2="31.38" y2="-32.07" x1="31.38" style="fill:none;stroke:#000000;stroke-width:0.7;stroke-linecap:round;"/>
  <line y1="-21.893" x2="37.935" y2="-21.893" x1="37.935" style="fill:none;stroke:#000000;stroke-width:0.7;stroke-linecap:round;"/>
  <line y1="-15.855" x2="48.285" y2="-15.855" x1="48.285" style="fill:none;stroke:#000000;stroke-width:0.7;stroke-linecap:round;"/>
  <line y1="-18.615" x2="34.658" y2="-18.615" x1="34.658" style="fill:none;stroke:#000000;stroke-width:0.7;stroke-linecap:round;"/>
  <line y1="-20.858" x2="27.585" y2="-20.858" x1="27.585" style="fill:none;stroke:#000000;stroke-width:0.7;stroke-linecap:round;"/>
  <line y1="-31.898" x2="13.785" y2="-31.898" x1="13.785" style="fill:none;stroke:#000000;stroke-width:0.7;stroke-linecap:round;"/>
  <line y1="-26.205" x2="9.817" y2="-26.205" x1="9.817" style="fill:none;stroke:#000000;stroke-width:0.7;stroke-linecap:round;"/>
  <line y1="-29.138" x2="47.595" y2="-29.138" x1="47.595" style="fill:none;stroke:#000000;stroke-width:0.7;stroke-linecap:round;"/>
  <line y1="-40.695" x2="7.057" y2="-40.695" x1="7.057" style="fill:none;stroke:#000000;stroke-width:0.7;stroke-linecap:round;"/>
  <line y1="-47.94" x2="7.92" y2="-47.94" x1="7.92" style="fill:none;stroke:#000000;stroke-width:0.7;stroke-linecap:round;"/>
  <line y1="-49.838" x2="4.47" y2="-49.838" x1="4.47" style="fill:none;stroke:#000000;stroke-width:0.7;stroke-linecap:round;"/>
  <line y1="-25.86" x2="47.94" y2="-25.86" x1="47.94" style="fill:none;stroke:#000000;stroke-width:0.7;stroke-linecap:round;"/>
  <line y1="-8.093" x2="32.415" y2="-8.093" x1="32.415" style="fill:none;stroke:#000000;stroke-width:0.7;stroke-linecap:round;"/>
  <line y1="-3.263" x2="19.823" y2="-3.263" x1="19.823" style="fill:none;stroke:#000000;stroke-width:0.7;stroke-linecap:round;"/>
  <line y1="-22.755" x2="17.235" y2="-22.755" x1="17.235" style="fill:none;stroke:#000000;stroke-width:0.7;stroke-linecap:round;"/>
  <line y1="-27.758" x2="30.69" y2="-27.758" x1="30.69" style="fill:none;stroke:#000000;stroke-width:0.7;stroke-linecap:round;"/>
  <line y1="-23.618" x2="47.768" y2="-23.618" x1="47.768" style="fill:none;stroke:#000000;stroke-width:0.7;stroke-linecap:round;"/>
  <line y1="-41.213" x2="38.798" y2="-41.213" x1="38.798" style="fill:none;stroke:#000000;stroke-width:0.7;stroke-linecap:round;"/>
  <line y1="-39.315" x2="28.275" y2="-39.315" x1="28.275" style="fill:none;stroke:#000000;stroke-width:0.7;stroke-linecap:round;"/>
  <line y1="-37.763" x2="11.025" y2="-37.763" x1="11.025" style="fill:none;stroke:#000000;stroke-width:0.7;stroke-linecap:round;"/>
  <line y1="-48.458" x2="36.21" y2="-48.458" x1="36.21" style="fill:none;stroke:#000000;stroke-width:0.7;stroke-linecap:round;"/>
  <line y1="-37.245" x2="42.765" y2="-37.245" x1="42.765" style="fill:none;stroke:#000000;stroke-width:0.7;stroke-linecap:round;"/>
  <line y1="-12.06" x2="48.63" y2="-12.06" x1="48.63" style="fill:none;stroke:#000000;stroke-width:0.7;stroke-linecap:round;"/>
  <line y1="-3.435" x2="5.677" y2="-3.435" x1="5.677" style="fill:none;stroke:#000000;stroke-width:0.7;stroke-linecap:round;"/>
  <line y1="-42.42" x2="3.952" y2="-42.42" x1="3.952" style="fill:none;stroke:#000000;stroke-width:0.7;stroke-linecap:round;"/>
  <line y1="-49.665" x2="13.785" y2="-49.665" x1="13.785" style="fill:none;stroke:#000000;stroke-width:0.7;stroke-linecap:round;"/>
  <line y1="-48.458" x2="31.38" y2="-48.458" x1="31.38" style="fill:none;stroke:#000000;stroke-width:0.7;stroke-linecap:round;"/>
  <line y1="-29.483" x2="3.952" y2="-29.483" x1="3.952" style="fill:none;stroke:#000000;stroke-width:0.7;stroke-linecap:round;"/>
  <line y1="-34.313" x2="7.23" y2="-34.313" x1="7.23" style="fill:none;stroke:#000000;stroke-width:0.7;stroke-linecap:round;"/>
  <line y1="-18.96" x2="4.297" y2="-18.96" x1="4.297" style="fill:none;stroke:#000000;stroke-width:0.7;stroke-linecap:round;"/>
  <line y1="-15.597" x2="10.536" y2="-15.597" x1="10.536" style="fill:none;stroke:#000000;stroke-width:0.7;stroke-linecap:round;"/>
  <line y1="-10.335" x2="8.955" y2="-10.335" x1="8.955" style="fill:none;stroke:#000000;stroke-width:0.7;stroke-linecap:round;"/>
  <line y1="-6.195" x2="11.37" y2="-6.195" x1="11.37" style="fill:none;stroke:#000000;stroke-width:0.7;stroke-linecap:round;"/>
  <line y1="-14.82" x2="17.235" y2="-14.82" x1="17.235" style="fill:none;stroke:#000000;stroke-width:0.7;stroke-linecap:round;"/>
  <line y1="-28.103" x2="25.515" y2="-28.103" x1="25.515" style="fill:none;stroke:#000000;stroke-width:0.7;stroke-linecap:round;"/>
  <line y1="-28.103" x2="19.995" y2="-28.103" x1="19.995" style="fill:none;stroke:#000000;stroke-width:0.7;stroke-linecap:round;"/>
  <line y1="-31.898" x2="27.757" y2="-31.898" x1="27.757" style="fill:none;stroke:#000000;stroke-width:0.7;stroke-linecap:round;"/>
  <line y1="-32.933" x2="44.318" y2="-32.933" x1="44.318" style="fill:none;stroke:#000000;stroke-width:0.7;stroke-linecap:round;"/>
  <line y1="-12.233" x2="42.593" y2="-12.233" x1="42.593" style="fill:none;stroke:#000000;stroke-width:0.7;stroke-linecap:round;"/>
  <line y1="-22.238" x2="42.593" y2="-22.238" x1="42.593" style="fill:none;stroke:#000000;stroke-width:0.7;stroke-linecap:round;"/>
  <line y1="-27.067" x2="40.522" y2="-27.067" x1="40.522" style="fill:none;stroke:#000000;stroke-width:0.7;stroke-linecap:round;"/>
  <line y1="-2.918" x2="49.838" y2="-2.918" x1="49.838" style="fill:none;stroke:#000000;stroke-width:0.7;stroke-linecap:round;"/>
  <line y1="-6.195" x2="43.973" y2="-6.195" x1="43.973" style="fill:none;stroke:#000000;stroke-width:0.7;stroke-linecap:round;"/>
  <line y1="-2.4" x2="32.76" y2="-2.4" x1="32.76" style="fill:none;stroke:#000000;stroke-width:0.7;stroke-linecap:round;"/>
  <line y1="-50.873" x2="18.96" y2="-50.873" x1="18.96" style="fill:none;stroke:#000000;stroke-width:0.7;stroke-linecap:round;"/>
  <line y1="-5.29" x2="21.548" y2="-5.29" x1="21.548" style="fill:none;stroke:#000000;stroke-width:0.7;stroke-linecap:round;"/>
  <line y1="-25.86" x2="26.032" y2="-25.86" x1="26.032" style="fill:none;stroke:#000000;stroke-width:0.7;stroke-linecap:round;"/>
  <line y1="-23.273" x2="29.31" y2="-23.273" x1="29.31" style="fill:none;stroke:#000000;stroke-width:0.7;stroke-linecap:round;"/>
  <line y1="-28.448" x2="42.765" y2="-28.448" x1="42.765" style="fill:none;stroke:#000000;stroke-width:0.7;stroke-linecap:round;"/>
  <line y1="-21.893" x2="7.057" y2="-21.893" x1="7.057" style="fill:none;stroke:#000000;stroke-width:0.7;stroke-linecap:round;"/>
  <line y1="-45.18" x2="9.127" y2="-45.18" x1="9.127" style="fill:none;stroke:#000000;stroke-width:0.7;stroke-linecap:round;"/>
  <line y1="-30.431" x2="33.967" y2="-30.431" x1="33.967" style="fill:none;stroke:#000000;stroke-width:0.7;stroke-linecap:round;"/>
  <line y1="-36.038" x2="13.267" y2="-36.038" x1="13.267" style="fill:none;stroke:#000000;stroke-width:0.7;stroke-linecap:round;"/>
  <line y1="-44.318" x2="18.787" y2="-44.318" x1="18.787" style="fill:none;stroke:#000000;stroke-width:0.7;stroke-linecap:round;"/>
  <line y1="-45.698" x2="6.712" y2="-45.698" x1="6.712" style="fill:none;stroke:#000000;stroke-width:0.7;stroke-linecap:round;"/>
  <line y1="-28.103" x2="6.54" y2="-28.103" x1="6.54" style="fill:none;stroke:#000000;stroke-width:0.7;stroke-linecap:round;"/>
  <line y1="-28.448" x2="17.235" y2="-28.448" x1="17.235" style="fill:none;stroke:#000000;stroke-width:0.7;stroke-linecap:round;"/>
  <line y1="-21.03" x2="22.583" y2="-21.03" x1="22.583" style="fill:none;stroke:#000000;stroke-width:0.7;stroke-linecap:round;"/>
  <line y1="-14.475" x2="45.698" y2="-14.475" x1="45.698" style="fill:none;stroke:#000000;stroke-width:0.7;stroke-linecap:round;"/>
  <line y1="-4.642" x2="16.89" y2="-4.642" x1="16.89" style="fill:none;stroke:#000000;stroke-width:0.7;stroke-linecap:round;"/>
  <line y1="-50.7" x2="36.382" y2="-50.7" x1="36.382" style="fill:none;stroke:#000000;stroke-width:0.7;stroke-linecap:round;"/>
  <line y1="-8.093" x2="51.217" y2="-8.093" x1="51.217" style="fill:none;stroke:#000000;stroke-width:0.7;stroke-linecap:round;"/>
  <line y1="-48.803" x2="50.7" y2="-48.803" x1="50.7" style="fill:none;stroke:#000000;stroke-width:0.7;stroke-linecap:round;"/>
  <line y1="-16.718" x2="51.39" y2="-16.718" x1="51.39" style="fill:none;stroke:#000000;stroke-width:0.7;stroke-linecap:round;"/>
  <line y1="-43.973" x2="50.7" y2="-43.973" x1="50.7" style="fill:none;stroke:#000000;stroke-width:0.7;stroke-linecap:round;"/>
  <line y1="-25.17" x2="51.045" y2="-25.17" x1="51.045" style="fill:none;stroke:#000000;stroke-width:0.7;stroke-linecap:round;"/>
  <line y1="-50.355" x2="29.482" y2="-50.355" x1="29.482" style="fill:none;stroke:#000000;stroke-width:0.7;stroke-linecap:round;"/>
  <line y1="-49.493" x2="16.545" y2="-49.493" x1="16.545" style="fill:none;stroke:#000000;stroke-width:0.7;stroke-linecap:round;"/>
  <line y1="-43.455" x2="23.962" y2="-43.455" x1="23.962" style="fill:none;stroke:#000000;stroke-width:0.7;stroke-linecap:round;"/>
  <line y1="-36.9" x2="48.975" y2="-36.9" x1="48.975" style="fill:none;stroke:#000000;stroke-width:0.7;stroke-linecap:round;"/>
  <line y1="-18.328" x2="31.523" y2="-18.328" x1="31.523" style="fill:none;stroke:#000000;stroke-width:0.7;stroke-linecap:round;"/>
  <line y1="-10.852" x2="23.445" y2="-10.852" x1="23.445" style="fill:none;stroke:#000000;stroke-width:0.7;stroke-linecap:round;"/>
  <line y1="-14.13" x2="40.005" y2="-14.13" x1="40.005" style="fill:none;stroke:#000000;stroke-width:0.7;stroke-linecap:round;"/>
  <line y1="-30.115" x2="10.68" y2="-30.115" x1="10.68" style="fill:none;stroke:#000000;stroke-width:0.7;stroke-linecap:round;"/>
  <line y1="-42.19" x2="8.667" y2="-42.19" x1="8.667" style="fill:none;stroke:#000000;stroke-width:0.7;stroke-linecap:round;"/>
  <line y1="-38.597" x2="17.005" y2="-38.597" x1="17.005" style="fill:none;stroke:#000000;stroke-width:0.7;stroke-linecap:round;"/>
  <line y1="-32.933" x2="25.688" y2="-32.933" x1="25.688" style="fill:none;stroke:#000000;stroke-width:0.7;stroke-linecap:round;"/>
  <line y1="-39.143" x2="36.9" y2="-39.143" x1="36.9" style="fill:none;stroke:#000000;stroke-width:0.7;stroke-linecap:round;"/>
  <line y1="-48.285" x2="43.455" y2="-48.285" x1="43.455" style="fill:none;stroke:#000000;stroke-width:0.7;stroke-linecap:round;"/>
  <line y1="-26.809" x2="33.248" y2="-26.809" x1="33.248" style="fill:none;stroke:#000000;stroke-width:0.7;stroke-linecap:round;"/>
  <line y1="-23.1" x2="51.217" y2="-23.1" x1="51.217" style="fill:none;stroke:#000000;stroke-width:0.7;stroke-linecap:round;"/>
  <line y1="-17.465" x2="9.386" y2="-17.465" x1="9.386" style="fill:none;stroke:#000000;stroke-width:0.7;stroke-linecap:round;"/>
  <line y1="-6.195" x2="11.37" y2="-6.195" x1="11.37" style="fill:none;stroke:#000000;stroke-width:0.7;stroke-linecap:round;"/>
  <line y1="-2.4" x2="32.76" y2="-2.4" x1="32.76" style="fill:none;stroke:#000000;stroke-width:0.7;stroke-linecap:round;"/>
  <line y1="-28.448" x2="42.765" y2="-28.448" x1="42.765" style="fill:none;stroke:#000000;stroke-width:0.7;stroke-linecap:round;"/>
  <line y1="-25.803" x2="19.305" y2="-25.803" x1="19.305" style="fill:none;stroke:#000000;stroke-width:0.7;stroke-linecap:round;"/>
  <line y1="-8.093" x2="51.217" y2="-8.093" x1="51.217" style="fill:none;stroke:#000000;stroke-width:0.7;stroke-linecap:round;"/>
 </g>
</svg>
