<?xml version="1.0"?>
<!-- Converted with SVG Converter - Version 0.9.5 (Compiled Fri Feb 21 09:53:38 2020) - Copyright (C) 2011 Nokia -->
<svg xmlns="http://www.w3.org/2000/svg" viewBox="0 -54.125 54.125 54.125" xmlns:xlink="http://www.w3.org/1999/xlink" xml:space="preserve" baseProfile="tiny" x="0px" height="54.125" width="54.125" y="0px" version="1.1">
 <g>
  <rect height="54.125" style="fill:none;" width="54.125" y="-54.125"/>
  <line y2="-3.316" x2="15.194" y1="-3.316" style="fill:none;stroke:#000000;stroke-width:0.3;" x1="32.575"/>
  <line y2="-7.057" x2="7.274" y1="-7.057" style="fill:none;stroke:#000000;stroke-width:0.3;" x1="0"/>
  <line y2="-10.997" x2="42.488" y1="-10.997" style="fill:none;stroke:#000000;stroke-width:0.3;" x1="23.349"/>
  <line y2="-17.195" x2="53.915" y1="-17.195" style="fill:none;stroke:#000000;stroke-width:0.3;" x1="41.375"/>
  <line y2="-16.755" x2="8.814" y1="-16.755" style="fill:none;stroke:#000000;stroke-width:0.3;" x1="23.555"/>
  <line y2="-23.776" x2="40.715" y1="-23.776" style="fill:none;stroke:#000000;stroke-width:0.3;" x1="23.335"/>
  <line y2="-46.693" x2="24.397" y1="-46.693" style="fill:none;stroke:#000000;stroke-width:0.3;" x1="41.777"/>
  <line y2="-50.047" x2="0" y1="-50.047" style="fill:none;stroke:#000000;stroke-width:0.3;" x1="6.923"/>
  <line y2="-25.316" x2="0.455" y1="-25.316" style="fill:none;stroke:#000000;stroke-width:0.3;" x1="14.975"/>
  <line y2="-29.937" x2="53.915" y1="-29.937" style="fill:none;stroke:#000000;stroke-width:0.3;" x1="39.615"/>
  <line y2="-33.677" x2="26.635" y1="-33.677" style="fill:none;stroke:#000000;stroke-width:0.3;" x1="11.455"/>
  <line y2="-39.651" x2="0.173" y1="-39.651" style="fill:none;stroke:#000000;stroke-width:0.3;" x1="14.253"/>
  <line y2="-39.871" x2="48.134" y1="-39.871" style="fill:none;stroke:#000000;stroke-width:0.3;" x1="32.293"/>
  <line y2="-7.057" x2="54.125" y1="-7.057" style="fill:none;stroke:#000000;stroke-width:0.3;" x1="44.323"/>
  <line y2="-50.047" x2="54.125" y1="-50.047" style="fill:none;stroke:#000000;stroke-width:0.3;" x1="47.989"/>
  <line y2="-41.432" x2="50.285" y1="-41.432" style="fill:none;stroke:#000000;stroke-width:0.7;stroke-linecap:round;" x1="50.285"/>
  <line y2="-41.102" x2="45.995" y1="-41.102" style="fill:none;stroke:#000000;stroke-width:0.7;stroke-linecap:round;" x1="45.995"/>
  <line y2="-37.527" x2="51.385" y1="-37.527" style="fill:none;stroke:#000000;stroke-width:0.7;stroke-linecap:round;" x1="51.385"/>
  <line y2="-37.197" x2="47.315" y1="-37.197" style="fill:none;stroke:#000000;stroke-width:0.7;stroke-linecap:round;" x1="47.315"/>
  <line y2="-34.227" x2="48.854" y1="-34.227" style="fill:none;stroke:#000000;stroke-width:0.7;stroke-linecap:round;" x1="48.854"/>
  <line y2="-33.787" x2="52.485" y1="-33.787" style="fill:none;stroke:#000000;stroke-width:0.7;stroke-linecap:round;" x1="52.485"/>
  <line y2="-42.39" x2="39.448" y1="-42.39" style="fill:none;stroke:#000000;stroke-width:0.7;stroke-linecap:round;" x1="39.448"/>
  <line y2="-38.223" x2="43.948" y1="-38.223" style="fill:none;stroke:#000000;stroke-width:0.7;stroke-linecap:round;" x1="43.948"/>
  <line y2="-41.557" x2="34.281" y1="-41.557" style="fill:none;stroke:#000000;stroke-width:0.7;stroke-linecap:round;" x1="34.281"/>
  <line y2="-38.057" x2="35.448" y1="-38.057" style="fill:none;stroke:#000000;stroke-width:0.7;stroke-linecap:round;" x1="35.448"/>
  <line y2="-39.507" x2="28.505" y1="-39.507" style="fill:none;stroke:#000000;stroke-width:0.7;stroke-linecap:round;" x1="28.505"/>
  <line y2="-36.537" x2="32.575" y1="-36.537" style="fill:none;stroke:#000000;stroke-width:0.7;stroke-linecap:round;" x1="32.575"/>
  <line y2="-30.597" x2="30.155" y1="-30.597" style="fill:none;stroke:#000000;stroke-width:0.7;stroke-linecap:round;" x1="30.155"/>
  <line y2="-32.907" x2="27.955" y1="-32.907" style="fill:none;stroke:#000000;stroke-width:0.7;stroke-linecap:round;" x1="27.955"/>
  <line y2="-36.757" x2="26.524" y1="-36.757" style="fill:none;stroke:#000000;stroke-width:0.7;stroke-linecap:round;" x1="26.524"/>
  <line y2="-40.057" x2="24.104" y1="-40.057" style="fill:none;stroke:#000000;stroke-width:0.7;stroke-linecap:round;" x1="24.104"/>
  <line y2="-35.767" x2="21.685" y1="-35.767" style="fill:none;stroke:#000000;stroke-width:0.7;stroke-linecap:round;" x1="21.685"/>
  <line y2="-39.177" x2="20.475" y1="-39.177" style="fill:none;stroke:#000000;stroke-width:0.7;stroke-linecap:round;" x1="20.475"/>
  <line y2="-36.427" x2="17.835" y1="-36.427" style="fill:none;stroke:#000000;stroke-width:0.7;stroke-linecap:round;" x1="17.835"/>
  <line y2="-40.277" x2="15.745" y1="-40.277" style="fill:none;stroke:#000000;stroke-width:0.7;stroke-linecap:round;" x1="15.745"/>
  <line y2="-37.557" x2="11.781" y1="-37.557" style="fill:none;stroke:#000000;stroke-width:0.7;stroke-linecap:round;" x1="11.781"/>
  <line y2="-40.937" x2="8.484" y1="-40.937" style="fill:none;stroke:#000000;stroke-width:0.7;stroke-linecap:round;" x1="8.484"/>
  <line y2="-42.057" x2="5.448" y1="-42.057" style="fill:none;stroke:#000000;stroke-width:0.7;stroke-linecap:round;" x1="5.448"/>
  <line y2="-43.723" x2="1.948" y1="-43.723" style="fill:none;stroke:#000000;stroke-width:0.7;stroke-linecap:round;" x1="1.948"/>
  <line y2="-35.987" x2="1.444" y1="-35.987" style="fill:none;stroke:#000000;stroke-width:0.7;stroke-linecap:round;" x1="1.444"/>
  <line y2="-37.557" x2="5.281" y1="-37.557" style="fill:none;stroke:#000000;stroke-width:0.7;stroke-linecap:round;" x1="5.281"/>
  <line y2="-36.207" x2="9.035" y1="-36.207" style="fill:none;stroke:#000000;stroke-width:0.7;stroke-linecap:round;" x1="9.035"/>
  <line y2="-35.547" x2="13.325" y1="-35.547" style="fill:none;stroke:#000000;stroke-width:0.7;stroke-linecap:round;" x1="13.325"/>
  <line y2="-32.577" x2="7.604" y1="-32.577" style="fill:none;stroke:#000000;stroke-width:0.7;stroke-linecap:round;" x1="7.604"/>
  <line y2="-32.577" x2="3.315" y1="-32.577" style="fill:none;stroke:#000000;stroke-width:0.7;stroke-linecap:round;" x1="3.315"/>
  <line y2="-43.557" x2="12.948" y1="-43.557" style="fill:none;stroke:#000000;stroke-width:0.7;stroke-linecap:round;" x1="12.948"/>
  <line y2="-29.497" x2="1.005" y1="-29.497" style="fill:none;stroke:#000000;stroke-width:0.7;stroke-linecap:round;" x1="1.005"/>
  <line y2="-26.637" x2="1.225" y1="-26.637" style="fill:none;stroke:#000000;stroke-width:0.7;stroke-linecap:round;" x1="1.225"/>
  <line y2="-26.417" x2="6.394" y1="-26.417" style="fill:none;stroke:#000000;stroke-width:0.7;stroke-linecap:round;" x1="6.394"/>
  <line y2="-29.387" x2="5.404" y1="-29.387" style="fill:none;stroke:#000000;stroke-width:0.7;stroke-linecap:round;" x1="5.404"/>
  <line y2="-28.947" x2="9.365" y1="-28.947" style="fill:none;stroke:#000000;stroke-width:0.7;stroke-linecap:round;" x1="9.365"/>
  <line y2="-31.037" x2="12.665" y1="-31.037" style="fill:none;stroke:#000000;stroke-width:0.7;stroke-linecap:round;" x1="12.665"/>
  <line y2="-27.517" x2="12.995" y1="-27.517" style="fill:none;stroke:#000000;stroke-width:0.7;stroke-linecap:round;" x1="12.995"/>
  <line y2="-30.157" x2="16.185" y1="-30.157" style="fill:none;stroke:#000000;stroke-width:0.7;stroke-linecap:round;" x1="16.185"/>
  <line y2="-26.307" x2="16.955" y1="-26.307" style="fill:none;stroke:#000000;stroke-width:0.7;stroke-linecap:round;" x1="16.955"/>
  <line y2="-30.89" x2="19.781" y1="-30.89" style="fill:none;stroke:#000000;stroke-width:0.7;stroke-linecap:round;" x1="19.781"/>
  <line y2="-25.427" x2="19.925" y1="-25.427" style="fill:none;stroke:#000000;stroke-width:0.7;stroke-linecap:round;" x1="19.925"/>
  <line y2="-28.506" x2="23.225" y1="-28.506" style="fill:none;stroke:#000000;stroke-width:0.7;stroke-linecap:round;" x1="23.225"/>
  <line y2="-31.807" x2="24.215" y1="-31.807" style="fill:none;stroke:#000000;stroke-width:0.7;stroke-linecap:round;" x1="24.215"/>
  <line y2="-29.167" x2="27.075" y1="-29.167" style="fill:none;stroke:#000000;stroke-width:0.7;stroke-linecap:round;" x1="27.075"/>
  <line y2="-25.427" x2="24.325" y1="-25.427" style="fill:none;stroke:#000000;stroke-width:0.7;stroke-linecap:round;" x1="24.325"/>
  <line y2="-25.427" x2="28.725" y1="-25.427" style="fill:none;stroke:#000000;stroke-width:0.7;stroke-linecap:round;" x1="28.725"/>
  <line y2="-27.517" x2="32.245" y1="-27.517" style="fill:none;stroke:#000000;stroke-width:0.7;stroke-linecap:round;" x1="32.245"/>
  <line y2="-25.206" x2="34.445" y1="-25.206" style="fill:none;stroke:#000000;stroke-width:0.7;stroke-linecap:round;" x1="34.445"/>
  <line y2="-22.896" x2="16.295" y1="-22.896" style="fill:none;stroke:#000000;stroke-width:0.7;stroke-linecap:round;" x1="16.295"/>
  <line y2="-19.927" x2="14.425" y1="-19.927" style="fill:none;stroke:#000000;stroke-width:0.7;stroke-linecap:round;" x1="14.425"/>
  <line y2="-22.896" x2="12.225" y1="-22.896" style="fill:none;stroke:#000000;stroke-width:0.7;stroke-linecap:round;" x1="12.225"/>
  <line y2="-18.716" x2="10.904" y1="-18.716" style="fill:none;stroke:#000000;stroke-width:0.7;stroke-linecap:round;" x1="10.904"/>
  <line y2="-21.137" x2="8.595" y1="-21.137" style="fill:none;stroke:#000000;stroke-width:0.7;stroke-linecap:round;" x1="8.595"/>
  <line y2="-23.776" x2="6.725" y1="-23.776" style="fill:none;stroke:#000000;stroke-width:0.7;stroke-linecap:round;" x1="6.725"/>
  <line y2="-18.387" x2="6.615" y1="-18.387" style="fill:none;stroke:#000000;stroke-width:0.7;stroke-linecap:round;" x1="6.615"/>
  <line y2="-21.137" x2="4.305" y1="-21.137" style="fill:none;stroke:#000000;stroke-width:0.7;stroke-linecap:round;" x1="4.305"/>
  <line y2="-23.006" x2="1.114" y1="-23.006" style="fill:none;stroke:#000000;stroke-width:0.7;stroke-linecap:round;" x1="1.114"/>
  <line y2="-42.89" x2="18.614" y1="-42.89" style="fill:none;stroke:#000000;stroke-width:0.7;stroke-linecap:round;" x1="18.614"/>
  <line y2="-19.057" x2="2.281" y1="-19.057" style="fill:none;stroke:#000000;stroke-width:0.7;stroke-linecap:round;" x1="2.281"/>
  <line y2="-40.223" x2="53.114" y1="-40.223" style="fill:none;stroke:#000000;stroke-width:0.7;stroke-linecap:round;" x1="53.114"/>
  <line y2="-14.557" x2="4.948" y1="-14.557" style="fill:none;stroke:#000000;stroke-width:0.7;stroke-linecap:round;" x1="4.948"/>
  <line y2="-45.723" x2="5.448" y1="-45.723" style="fill:none;stroke:#000000;stroke-width:0.7;stroke-linecap:round;" x1="5.448"/>
  <line y2="-9.366" x2="3.425" y1="-9.366" style="fill:none;stroke:#000000;stroke-width:0.7;stroke-linecap:round;" x1="3.425"/>
  <line y2="-12.116" x2="6.394" y1="-12.116" style="fill:none;stroke:#000000;stroke-width:0.7;stroke-linecap:round;" x1="6.394"/>
  <line y2="-9.586" x2="8.375" y1="-9.586" style="fill:none;stroke:#000000;stroke-width:0.7;stroke-linecap:round;" x1="8.375"/>
  <line y2="-13.436" x2="10.575" y1="-13.436" style="fill:none;stroke:#000000;stroke-width:0.7;stroke-linecap:round;" x1="10.575"/>
  <line y2="-14.977" x2="14.975" y1="-14.977" style="fill:none;stroke:#000000;stroke-width:0.7;stroke-linecap:round;" x1="14.975"/>
  <line y2="-9.146" x2="12.115" y1="-9.146" style="fill:none;stroke:#000000;stroke-width:0.7;stroke-linecap:round;" x1="12.115"/>
  <line y2="-11.566" x2="15.085" y1="-11.566" style="fill:none;stroke:#000000;stroke-width:0.7;stroke-linecap:round;" x1="15.085"/>
  <line y2="-11.457" x2="18.604" y1="-11.457" style="fill:none;stroke:#000000;stroke-width:0.7;stroke-linecap:round;" x1="18.604"/>
  <line y2="-14.977" x2="19.595" y1="-14.977" style="fill:none;stroke:#000000;stroke-width:0.7;stroke-linecap:round;" x1="19.595"/>
  <line y2="-14.426" x2="23.555" y1="-14.426" style="fill:none;stroke:#000000;stroke-width:0.7;stroke-linecap:round;" x1="23.555"/>
  <line y2="-11.787" x2="22.125" y1="-11.787" style="fill:none;stroke:#000000;stroke-width:0.7;stroke-linecap:round;" x1="22.125"/>
  <line y2="-13.223" x2="27.948" y1="-13.223" style="fill:none;stroke:#000000;stroke-width:0.7;stroke-linecap:round;" x1="27.948"/>
  <line y2="-15.723" x2="0.948" y1="-15.723" style="fill:none;stroke:#000000;stroke-width:0.7;stroke-linecap:round;" x1="0.948"/>
  <line y2="-11.557" x2="1.114" y1="-11.557" style="fill:none;stroke:#000000;stroke-width:0.7;stroke-linecap:round;" x1="1.114"/>
  <line y2="-12.39" x2="34.281" y1="-12.39" style="fill:none;stroke:#000000;stroke-width:0.7;stroke-linecap:round;" x1="34.281"/>
  <line y2="-43.223" x2="25.781" y1="-43.223" style="fill:none;stroke:#000000;stroke-width:0.7;stroke-linecap:round;" x1="25.781"/>
  <line y2="-13.39" x2="38.948" y1="-13.39" style="fill:none;stroke:#000000;stroke-width:0.7;stroke-linecap:round;" x1="38.948"/>
  <line y2="-44.723" x2="22.448" y1="-44.723" style="fill:none;stroke:#000000;stroke-width:0.7;stroke-linecap:round;" x1="22.448"/>
  <line y2="-15.196" x2="43.465" y1="-15.196" style="fill:none;stroke:#000000;stroke-width:0.7;stroke-linecap:round;" x1="43.465"/>
  <line y2="-12.336" x2="44.895" y1="-12.336" style="fill:none;stroke:#000000;stroke-width:0.7;stroke-linecap:round;" x1="44.895"/>
  <line y2="-14.426" x2="47.975" y1="-14.426" style="fill:none;stroke:#000000;stroke-width:0.7;stroke-linecap:round;" x1="47.975"/>
  <line y2="-16.407" x2="51.604" y1="-16.407" style="fill:none;stroke:#000000;stroke-width:0.7;stroke-linecap:round;" x1="51.604"/>
  <line y2="-13.546" x2="52.375" y1="-13.546" style="fill:none;stroke:#000000;stroke-width:0.7;stroke-linecap:round;" x1="52.375"/>
  <line y2="-9.39" x2="51.948" y1="-9.39" style="fill:none;stroke:#000000;stroke-width:0.7;stroke-linecap:round;" x1="51.948"/>
  <line y2="-11.127" x2="48.965" y1="-11.127" style="fill:none;stroke:#000000;stroke-width:0.7;stroke-linecap:round;" x1="48.965"/>
  <line y2="-8.377" x2="45.885" y1="-8.377" style="fill:none;stroke:#000000;stroke-width:0.7;stroke-linecap:round;" x1="45.885"/>
  <line y2="-43.057" x2="29.948" y1="-43.057" style="fill:none;stroke:#000000;stroke-width:0.7;stroke-linecap:round;" x1="29.948"/>
  <line y2="-48.723" x2="10.281" y1="-48.723" style="fill:none;stroke:#000000;stroke-width:0.7;stroke-linecap:round;" x1="10.281"/>
  <line y2="-44.89" x2="9.114" y1="-44.89" style="fill:none;stroke:#000000;stroke-width:0.7;stroke-linecap:round;" x1="9.114"/>
  <line y2="-6.176" x2="51.715" y1="-6.176" style="fill:none;stroke:#000000;stroke-width:0.7;stroke-linecap:round;" x1="51.715"/>
  <line y2="-3.39" x2="52.781" y1="-3.39" style="fill:none;stroke:#000000;stroke-width:0.7;stroke-linecap:round;" x1="52.781"/>
  <line y2="-1.39" x2="50.448" y1="-1.39" style="fill:none;stroke:#000000;stroke-width:0.7;stroke-linecap:round;" x1="50.448"/>
  <line y2="-3.427" x2="48.525" y1="-3.427" style="fill:none;stroke:#000000;stroke-width:0.7;stroke-linecap:round;" x1="48.525"/>
  <line y2="-1.227" x2="45.555" y1="-1.227" style="fill:none;stroke:#000000;stroke-width:0.7;stroke-linecap:round;" x1="45.555"/>
  <line y2="-4.966" x2="45.555" y1="-4.966" style="fill:none;stroke:#000000;stroke-width:0.7;stroke-linecap:round;" x1="45.555"/>
  <line y2="-7.386" x2="42.035" y1="-7.386" style="fill:none;stroke:#000000;stroke-width:0.7;stroke-linecap:round;" x1="42.035"/>
  <line y2="-53.057" x2="19.781" y1="-53.057" style="fill:none;stroke:#000000;stroke-width:0.7;stroke-linecap:round;" x1="19.781"/>
  <line y2="-1.557" x2="40.715" y1="-1.557" style="fill:none;stroke:#000000;stroke-width:0.7;stroke-linecap:round;" x1="40.715"/>
  <line y2="-46.723" x2="16.114" y1="-46.723" style="fill:none;stroke:#000000;stroke-width:0.7;stroke-linecap:round;" x1="16.114"/>
  <line y2="-8.926" x2="39.395" y1="-8.926" style="fill:none;stroke:#000000;stroke-width:0.7;stroke-linecap:round;" x1="39.395"/>
  <line y2="-4.89" x2="39.114" y1="-4.89" style="fill:none;stroke:#000000;stroke-width:0.7;stroke-linecap:round;" x1="39.114"/>
  <line y2="-47.89" x2="19.948" y1="-47.89" style="fill:none;stroke:#000000;stroke-width:0.7;stroke-linecap:round;" x1="19.948"/>
  <line y2="-50.89" x2="22.781" y1="-50.89" style="fill:none;stroke:#000000;stroke-width:0.7;stroke-linecap:round;" x1="22.781"/>
  <line y2="-51.223" x2="17.448" y1="-51.223" style="fill:none;stroke:#000000;stroke-width:0.7;stroke-linecap:round;" x1="17.448"/>
  <line y2="-50.223" x2="13.781" y1="-50.223" style="fill:none;stroke:#000000;stroke-width:0.7;stroke-linecap:round;" x1="13.781"/>
  <line y2="-52.39" x2="10.281" y1="-52.39" style="fill:none;stroke:#000000;stroke-width:0.7;stroke-linecap:round;" x1="10.281"/>
  <line y2="-48.223" x2="6.781" y1="-48.223" style="fill:none;stroke:#000000;stroke-width:0.7;stroke-linecap:round;" x1="6.781"/>
  <line y2="-47.723" x2="2.114" y1="-47.723" style="fill:none;stroke:#000000;stroke-width:0.7;stroke-linecap:round;" x1="2.114"/>
  <line y2="-52.39" x2="2.114" y1="-52.39" style="fill:none;stroke:#000000;stroke-width:0.7;stroke-linecap:round;" x1="2.114"/>
  <line y2="-53.39" x2="5.448" y1="-53.39" style="fill:none;stroke:#000000;stroke-width:0.7;stroke-linecap:round;" x1="5.448"/>
  <line y2="-50.723" x2="27.448" y1="-50.723" style="fill:none;stroke:#000000;stroke-width:0.7;stroke-linecap:round;" x1="27.448"/>
  <line y2="-48.223" x2="32.281" y1="-48.223" style="fill:none;stroke:#000000;stroke-width:0.7;stroke-linecap:round;" x1="32.281"/>
  <line y2="-52.057" x2="32.114" y1="-52.057" style="fill:none;stroke:#000000;stroke-width:0.7;stroke-linecap:round;" x1="32.114"/>
  <line y2="-53.39" x2="25.614" y1="-53.39" style="fill:none;stroke:#000000;stroke-width:0.7;stroke-linecap:round;" x1="25.614"/>
  <line y2="-50.39" x2="36.281" y1="-50.39" style="fill:none;stroke:#000000;stroke-width:0.7;stroke-linecap:round;" x1="36.281"/>
  <line y2="-45.723" x2="37.781" y1="-45.723" style="fill:none;stroke:#000000;stroke-width:0.7;stroke-linecap:round;" x1="37.781"/>
  <line y2="-49.223" x2="40.781" y1="-49.223" style="fill:none;stroke:#000000;stroke-width:0.7;stroke-linecap:round;" x1="40.781"/>
  <line y2="-44.89" x2="42.114" y1="-44.89" style="fill:none;stroke:#000000;stroke-width:0.7;stroke-linecap:round;" x1="42.114"/>
  <line y2="-47.723" x2="45.114" y1="-47.723" style="fill:none;stroke:#000000;stroke-width:0.7;stroke-linecap:round;" x1="45.114"/>
  <line y2="-52.723" x2="43.114" y1="-52.723" style="fill:none;stroke:#000000;stroke-width:0.7;stroke-linecap:round;" x1="43.114"/>
  <line y2="-53.223" x2="38.281" y1="-53.223" style="fill:none;stroke:#000000;stroke-width:0.7;stroke-linecap:round;" x1="38.281"/>
  <line y2="-51.057" x2="47.614" y1="-51.057" style="fill:none;stroke:#000000;stroke-width:0.7;stroke-linecap:round;" x1="47.614"/>
  <line y2="-44.39" x2="47.281" y1="-44.39" style="fill:none;stroke:#000000;stroke-width:0.7;stroke-linecap:round;" x1="47.281"/>
  <line y2="-48.057" x2="49.781" y1="-48.057" style="fill:none;stroke:#000000;stroke-width:0.7;stroke-linecap:round;" x1="49.781"/>
  <line y2="-44.223" x2="52.114" y1="-44.223" style="fill:none;stroke:#000000;stroke-width:0.7;stroke-linecap:round;" x1="52.114"/>
  <line y2="-51.557" x2="52.781" y1="-51.557" style="fill:none;stroke:#000000;stroke-width:0.7;stroke-linecap:round;" x1="52.781"/>
  <line y2="-53.057" x2="49.781" y1="-53.057" style="fill:none;stroke:#000000;stroke-width:0.7;stroke-linecap:round;" x1="49.781"/>
  <line y2="-2.724" x2="37.281" y1="-2.724" style="fill:none;stroke:#000000;stroke-width:0.7;stroke-linecap:round;" x1="37.281"/>
  <line y2="-7.497" x2="35.435" y1="-7.497" style="fill:none;stroke:#000000;stroke-width:0.7;stroke-linecap:round;" x1="35.435"/>
  <line y2="-9.366" x2="32.575" y1="-9.366" style="fill:none;stroke:#000000;stroke-width:0.7;stroke-linecap:round;" x1="32.575"/>
  <line y2="-5.517" x2="32.795" y1="-5.517" style="fill:none;stroke:#000000;stroke-width:0.7;stroke-linecap:round;" x1="32.795"/>
  <line y2="-1.227" x2="34.335" y1="-1.227" style="fill:none;stroke:#000000;stroke-width:0.7;stroke-linecap:round;" x1="34.335"/>
  <line y2="-6.946" x2="29.604" y1="-6.946" style="fill:none;stroke:#000000;stroke-width:0.7;stroke-linecap:round;" x1="29.604"/>
  <line y2="-10.026" x2="28.065" y1="-10.026" style="fill:none;stroke:#000000;stroke-width:0.7;stroke-linecap:round;" x1="28.065"/>
  <line y2="-7.937" x2="24.875" y1="-7.937" style="fill:none;stroke:#000000;stroke-width:0.7;stroke-linecap:round;" x1="24.875"/>
  <line y2="-4.526" x2="26.635" y1="-4.526" style="fill:none;stroke:#000000;stroke-width:0.7;stroke-linecap:round;" x1="26.635"/>
  <line y2="-5.736" x2="22.125" y1="-5.736" style="fill:none;stroke:#000000;stroke-width:0.7;stroke-linecap:round;" x1="22.125"/>
  <line y2="-8.156" x2="18.825" y1="-8.156" style="fill:none;stroke:#000000;stroke-width:0.7;stroke-linecap:round;" x1="18.825"/>
  <line y2="-4.526" x2="17.395" y1="-4.526" style="fill:none;stroke:#000000;stroke-width:0.7;stroke-linecap:round;" x1="17.395"/>
  <line y2="-7.606" x2="15.194" y1="-7.606" style="fill:none;stroke:#000000;stroke-width:0.7;stroke-linecap:round;" x1="15.194"/>
  <line y2="-1.996" x2="19.154" y1="-1.996" style="fill:none;stroke:#000000;stroke-width:0.7;stroke-linecap:round;" x1="19.154"/>
  <line y2="-1.007" x2="23.665" y1="-1.007" style="fill:none;stroke:#000000;stroke-width:0.7;stroke-linecap:round;" x1="23.665"/>
  <line y2="-1.996" x2="29.604" y1="-1.996" style="fill:none;stroke:#000000;stroke-width:0.7;stroke-linecap:round;" x1="29.604"/>
  <line y2="-1.116" x2="14.205" y1="-1.116" style="fill:none;stroke:#000000;stroke-width:0.7;stroke-linecap:round;" x1="14.205"/>
  <line y2="-4.747" x2="12.995" y1="-4.747" style="fill:none;stroke:#000000;stroke-width:0.7;stroke-linecap:round;" x1="12.995"/>
  <line y2="-5.736" x2="9.255" y1="-5.736" style="fill:none;stroke:#000000;stroke-width:0.7;stroke-linecap:round;" x1="9.255"/>
  <line y2="-1.116" x2="9.365" y1="-1.116" style="fill:none;stroke:#000000;stroke-width:0.7;stroke-linecap:round;" x1="9.365"/>
  <line y2="-3.647" x2="6.615" y1="-3.647" style="fill:none;stroke:#000000;stroke-width:0.7;stroke-linecap:round;" x1="6.615"/>
  <line y2="-5.296" x2="2.215" y1="-5.296" style="fill:none;stroke:#000000;stroke-width:0.7;stroke-linecap:round;" x1="2.215"/>
  <line y2="-1.666" x2="2.765" y1="-1.666" style="fill:none;stroke:#000000;stroke-width:0.7;stroke-linecap:round;" x1="2.765"/>
  <line y2="-34.723" x2="39.114" y1="-34.723" style="fill:none;stroke:#000000;stroke-width:0.7;stroke-linecap:round;" x1="39.114"/>
  <line y2="-37.557" x2="40.448" y1="-37.557" style="fill:none;stroke:#000000;stroke-width:0.7;stroke-linecap:round;" x1="40.448"/>
  <line y2="-34.887" x2="44.455" y1="-34.887" style="fill:none;stroke:#000000;stroke-width:0.7;stroke-linecap:round;" x1="44.455"/>
  <line y2="-31.146" x2="51.165" y1="-31.146" style="fill:none;stroke:#000000;stroke-width:0.7;stroke-linecap:round;" x1="51.165"/>
  <line y2="-31.586" x2="46.435" y1="-31.586" style="fill:none;stroke:#000000;stroke-width:0.7;stroke-linecap:round;" x1="46.435"/>
  <line y2="-32.137" x2="42.035" y1="-32.137" style="fill:none;stroke:#000000;stroke-width:0.7;stroke-linecap:round;" x1="42.035"/>
  <line y2="-32.026" x2="38.075" y1="-32.026" style="fill:none;stroke:#000000;stroke-width:0.7;stroke-linecap:round;" x1="38.075"/>
  <line y2="-30.816" x2="34.115" y1="-30.816" style="fill:none;stroke:#000000;stroke-width:0.7;stroke-linecap:round;" x1="34.115"/>
  <line y2="-33.347" x2="32.685" y1="-33.347" style="fill:none;stroke:#000000;stroke-width:0.7;stroke-linecap:round;" x1="32.685"/>
  <line y2="-28.287" x2="36.755" y1="-28.287" style="fill:none;stroke:#000000;stroke-width:0.7;stroke-linecap:round;" x1="36.755"/>
  <line y2="-25.756" x2="39.395" y1="-25.756" style="fill:none;stroke:#000000;stroke-width:0.7;stroke-linecap:round;" x1="39.395"/>
  <line y2="-27.407" x2="42.805" y1="-27.407" style="fill:none;stroke:#000000;stroke-width:0.7;stroke-linecap:round;" x1="42.805"/>
  <line y2="-23.997" x2="42.805" y1="-23.997" style="fill:none;stroke:#000000;stroke-width:0.7;stroke-linecap:round;" x1="42.805"/>
  <line y2="-24.546" x2="46.215" y1="-24.546" style="fill:none;stroke:#000000;stroke-width:0.7;stroke-linecap:round;" x1="46.215"/>
  <line y2="-27.736" x2="46.985" y1="-27.736" style="fill:none;stroke:#000000;stroke-width:0.7;stroke-linecap:round;" x1="46.985"/>
  <line y2="-25.867" x2="49.515" y1="-25.867" style="fill:none;stroke:#000000;stroke-width:0.7;stroke-linecap:round;" x1="49.515"/>
  <line y2="-27.956" x2="52.375" y1="-27.956" style="fill:none;stroke:#000000;stroke-width:0.7;stroke-linecap:round;" x1="52.375"/>
  <line y2="-24.216" x2="51.825" y1="-24.216" style="fill:none;stroke:#000000;stroke-width:0.7;stroke-linecap:round;" x1="51.825"/>
  <line y2="-20.477" x2="52.375" y1="-20.477" style="fill:none;stroke:#000000;stroke-width:0.7;stroke-linecap:round;" x1="52.375"/>
  <line y2="-19.267" x2="49.845" y1="-19.267" style="fill:none;stroke:#000000;stroke-width:0.7;stroke-linecap:round;" x1="49.845"/>
  <line y2="-48.223" x2="25.448" y1="-48.223" style="fill:none;stroke:#000000;stroke-width:0.7;stroke-linecap:round;" x1="25.448"/>
  <line y2="-22.057" x2="48.281" y1="-22.057" style="fill:none;stroke:#000000;stroke-width:0.7;stroke-linecap:round;" x1="48.281"/>
  <line y2="-19.723" x2="45.614" y1="-19.723" style="fill:none;stroke:#000000;stroke-width:0.7;stroke-linecap:round;" x1="45.614"/>
  <line y2="-44.723" x2="34.114" y1="-44.723" style="fill:none;stroke:#000000;stroke-width:0.7;stroke-linecap:round;" x1="34.114"/>
  <line y2="-20.477" x2="41.375" y1="-20.477" style="fill:none;stroke:#000000;stroke-width:0.7;stroke-linecap:round;" x1="41.375"/>
  <line y2="-21.577" x2="38.295" y1="-21.577" style="fill:none;stroke:#000000;stroke-width:0.7;stroke-linecap:round;" x1="38.295"/>
  <line y2="-18.057" x2="38.955" y1="-18.057" style="fill:none;stroke:#000000;stroke-width:0.7;stroke-linecap:round;" x1="38.955"/>
  <line y2="-17.287" x2="35.325" y1="-17.287" style="fill:none;stroke:#000000;stroke-width:0.7;stroke-linecap:round;" x1="35.325"/>
  <line y2="-20.477" x2="34.665" y1="-20.477" style="fill:none;stroke:#000000;stroke-width:0.7;stroke-linecap:round;" x1="34.665"/>
  <line y2="-20.477" x2="30.925" y1="-20.477" style="fill:none;stroke:#000000;stroke-width:0.7;stroke-linecap:round;" x1="30.925"/>
  <line y2="-15.223" x2="31.448" y1="-15.223" style="fill:none;stroke:#000000;stroke-width:0.7;stroke-linecap:round;" x1="31.448"/>
  <line y2="-21.247" x2="27.185" y1="-21.247" style="fill:none;stroke:#000000;stroke-width:0.7;stroke-linecap:round;" x1="27.185"/>
  <line y2="-17.066" x2="28.065" y1="-17.066" style="fill:none;stroke:#000000;stroke-width:0.7;stroke-linecap:round;" x1="28.065"/>
  <line y2="-18.167" x2="24.984" y1="-18.167" style="fill:none;stroke:#000000;stroke-width:0.7;stroke-linecap:round;" x1="24.984"/>
  <line y2="-20.917" x2="22.785" y1="-20.917" style="fill:none;stroke:#000000;stroke-width:0.7;stroke-linecap:round;" x1="22.785"/>
  <line y2="-17.727" x2="20.585" y1="-17.727" style="fill:none;stroke:#000000;stroke-width:0.7;stroke-linecap:round;" x1="20.585"/>
  <line y2="-18.497" x2="17.065" y1="-18.497" style="fill:none;stroke:#000000;stroke-width:0.7;stroke-linecap:round;" x1="17.065"/>
  <line y2="-21.687" x2="19.154" y1="-21.687" style="fill:none;stroke:#000000;stroke-width:0.7;stroke-linecap:round;" x1="19.154"/>
  <rect height="54.125" style="fill:none;" width="54.125" y="-54.125"/>
 </g>
</svg>
