<?xml version="1.0"?>
<!-- Converted with SVG Converter - Version 0.9.6 (Compiled Thu Aug 31 10:01:05 2017) - Copyright (C) 2011 Nokia -->
<svg xmlns="http://www.w3.org/2000/svg" y="0px" baseProfile="tiny" height="54.125" x="0px" xml:space="preserve" xmlns:xlink="http://www.w3.org/1999/xlink" viewBox="0.025 -54.125 54.125 54.125" width="54.125" version="1.1">
 <g>
  <rect y="-54.125" height="54.125" x="0.025" style="fill:none;" width="54.125"/>
  <line x2="50.311" style="fill:none;stroke:#000000;stroke-width:0.7;stroke-linecap:round;" y2="-41.432" y1="-41.432" x1="50.311"/>
  <line x2="46.021" style="fill:none;stroke:#000000;stroke-width:0.7;stroke-linecap:round;" y2="-41.102" y1="-41.102" x1="46.021"/>
  <line x2="51.41" style="fill:none;stroke:#000000;stroke-width:0.7;stroke-linecap:round;" y2="-37.527" y1="-37.527" x1="51.41"/>
  <line x2="47.341" style="fill:none;stroke:#000000;stroke-width:0.7;stroke-linecap:round;" y2="-37.197" y1="-37.197" x1="47.341"/>
  <line x2="48.881" style="fill:none;stroke:#000000;stroke-width:0.7;stroke-linecap:round;" y2="-34.227" y1="-34.227" x1="48.881"/>
  <line x2="52.511" style="fill:none;stroke:#000000;stroke-width:0.7;stroke-linecap:round;" y2="-33.787" y1="-33.787" x1="52.511"/>
  <line x2="39.474" style="fill:none;stroke:#000000;stroke-width:0.7;stroke-linecap:round;" y2="-42.39" y1="-42.39" x1="39.474"/>
  <line x2="43.974" style="fill:none;stroke:#000000;stroke-width:0.7;stroke-linecap:round;" y2="-38.223" y1="-38.223" x1="43.974"/>
  <line x2="34.307" style="fill:none;stroke:#000000;stroke-width:0.7;stroke-linecap:round;" y2="-41.557" y1="-41.557" x1="34.307"/>
  <line x2="35.474" style="fill:none;stroke:#000000;stroke-width:0.7;stroke-linecap:round;" y2="-38.057" y1="-38.057" x1="35.474"/>
  <line x2="28.53" style="fill:none;stroke:#000000;stroke-width:0.7;stroke-linecap:round;" y2="-39.507" y1="-39.507" x1="28.53"/>
  <line x2="32.601" style="fill:none;stroke:#000000;stroke-width:0.7;stroke-linecap:round;" y2="-36.537" y1="-36.537" x1="32.601"/>
  <line x2="30.181" style="fill:none;stroke:#000000;stroke-width:0.7;stroke-linecap:round;" y2="-30.597" y1="-30.597" x1="30.181"/>
  <line x2="10.984" style="fill:none;stroke:#000000;stroke-width:0.7;stroke-linecap:round;" y2="-33.333" y1="-33.333" x1="10.984"/>
  <line x2="26.984" style="fill:none;stroke:#000000;stroke-width:0.7;stroke-linecap:round;" y2="-36" y1="-36" x1="26.984"/>
  <line x2="24.131" style="fill:none;stroke:#000000;stroke-width:0.7;stroke-linecap:round;" y2="-40.057" y1="-40.057" x1="24.131"/>
  <line x2="21.711" style="fill:none;stroke:#000000;stroke-width:0.7;stroke-linecap:round;" y2="-35.767" y1="-35.767" x1="21.711"/>
  <line x2="20.501" style="fill:none;stroke:#000000;stroke-width:0.7;stroke-linecap:round;" y2="-39.177" y1="-39.177" x1="20.501"/>
  <line x2="15.817" style="fill:none;stroke:#000000;stroke-width:0.7;stroke-linecap:round;" y2="-36.167" y1="-36.167" x1="15.817"/>
  <line x2="15.771" style="fill:none;stroke:#000000;stroke-width:0.7;stroke-linecap:round;" y2="-40.277" y1="-40.277" x1="15.771"/>
  <line x2="11.807" style="fill:none;stroke:#000000;stroke-width:0.7;stroke-linecap:round;" y2="-37.557" y1="-37.557" x1="11.807"/>
  <line x2="8.511" style="fill:none;stroke:#000000;stroke-width:0.7;stroke-linecap:round;" y2="-40.937" y1="-40.937" x1="8.511"/>
  <line x2="5.474" style="fill:none;stroke:#000000;stroke-width:0.7;stroke-linecap:round;" y2="-42.057" y1="-42.057" x1="5.474"/>
  <line x2="1.974" style="fill:none;stroke:#000000;stroke-width:0.7;stroke-linecap:round;" y2="-43.723" y1="-43.723" x1="1.974"/>
  <line x2="1.471" style="fill:none;stroke:#000000;stroke-width:0.7;stroke-linecap:round;" y2="-35.987" y1="-35.987" x1="1.471"/>
  <line x2="5.307" style="fill:none;stroke:#000000;stroke-width:0.7;stroke-linecap:round;" y2="-37.557" y1="-37.557" x1="5.307"/>
  <line x2="9.061" style="fill:none;stroke:#000000;stroke-width:0.7;stroke-linecap:round;" y2="-36.207" y1="-36.207" x1="9.061"/>
  <line x2="7.631" style="fill:none;stroke:#000000;stroke-width:0.7;stroke-linecap:round;" y2="-32.577" y1="-32.577" x1="7.631"/>
  <line x2="3.341" style="fill:none;stroke:#000000;stroke-width:0.7;stroke-linecap:round;" y2="-32.577" y1="-32.577" x1="3.341"/>
  <line x2="12.974" style="fill:none;stroke:#000000;stroke-width:0.7;stroke-linecap:round;" y2="-43.557" y1="-43.557" x1="12.974"/>
  <line x2="1.03" style="fill:none;stroke:#000000;stroke-width:0.7;stroke-linecap:round;" y2="-29.497" y1="-29.497" x1="1.03"/>
  <line x2="1.25" style="fill:none;stroke:#000000;stroke-width:0.7;stroke-linecap:round;" y2="-26.637" y1="-26.637" x1="1.25"/>
  <line x2="6.421" style="fill:none;stroke:#000000;stroke-width:0.7;stroke-linecap:round;" y2="-26.417" y1="-26.417" x1="6.421"/>
  <line x2="5.431" style="fill:none;stroke:#000000;stroke-width:0.7;stroke-linecap:round;" y2="-29.387" y1="-29.387" x1="5.431"/>
  <line x2="9.391" style="fill:none;stroke:#000000;stroke-width:0.7;stroke-linecap:round;" y2="-28.947" y1="-28.947" x1="9.391"/>
  <line x2="12.69" style="fill:none;stroke:#000000;stroke-width:0.7;stroke-linecap:round;" y2="-31.037" y1="-31.037" x1="12.69"/>
  <line x2="13.021" style="fill:none;stroke:#000000;stroke-width:0.7;stroke-linecap:round;" y2="-27.517" y1="-27.517" x1="13.021"/>
  <line x2="16.21" style="fill:none;stroke:#000000;stroke-width:0.7;stroke-linecap:round;" y2="-30.157" y1="-30.157" x1="16.21"/>
  <line x2="16.98" style="fill:none;stroke:#000000;stroke-width:0.7;stroke-linecap:round;" y2="-26.307" y1="-26.307" x1="16.98"/>
  <line x2="19.807" style="fill:none;stroke:#000000;stroke-width:0.7;stroke-linecap:round;" y2="-30.89" y1="-30.89" x1="19.807"/>
  <line x2="19.95" style="fill:none;stroke:#000000;stroke-width:0.7;stroke-linecap:round;" y2="-25.427" y1="-25.427" x1="19.95"/>
  <line x2="23.251" style="fill:none;stroke:#000000;stroke-width:0.7;stroke-linecap:round;" y2="-28.506" y1="-28.506" x1="23.251"/>
  <line x2="25.484" style="fill:none;stroke:#000000;stroke-width:0.7;stroke-linecap:round;" y2="-32" y1="-32" x1="25.484"/>
  <line x2="27.101" style="fill:none;stroke:#000000;stroke-width:0.7;stroke-linecap:round;" y2="-29.167" y1="-29.167" x1="27.101"/>
  <line x2="24.351" style="fill:none;stroke:#000000;stroke-width:0.7;stroke-linecap:round;" y2="-25.427" y1="-25.427" x1="24.351"/>
  <line x2="28.751" style="fill:none;stroke:#000000;stroke-width:0.7;stroke-linecap:round;" y2="-25.427" y1="-25.427" x1="28.751"/>
  <line x2="32.271" style="fill:none;stroke:#000000;stroke-width:0.7;stroke-linecap:round;" y2="-27.517" y1="-27.517" x1="32.271"/>
  <line x2="34.471" style="fill:none;stroke:#000000;stroke-width:0.7;stroke-linecap:round;" y2="-25.207" y1="-25.207" x1="34.471"/>
  <line x2="16.32" style="fill:none;stroke:#000000;stroke-width:0.7;stroke-linecap:round;" y2="-22.896" y1="-22.896" x1="16.32"/>
  <line x2="14.45" style="fill:none;stroke:#000000;stroke-width:0.7;stroke-linecap:round;" y2="-19.927" y1="-19.927" x1="14.45"/>
  <line x2="12.25" style="fill:none;stroke:#000000;stroke-width:0.7;stroke-linecap:round;" y2="-22.896" y1="-22.896" x1="12.25"/>
  <line x2="35.984" style="fill:none;stroke:#000000;stroke-width:0.7;stroke-linecap:round;" y2="-14.833" y1="-14.833" x1="35.984"/>
  <line x2="8.62" style="fill:none;stroke:#000000;stroke-width:0.7;stroke-linecap:round;" y2="-21.137" y1="-21.137" x1="8.62"/>
  <line x2="6.75" style="fill:none;stroke:#000000;stroke-width:0.7;stroke-linecap:round;" y2="-23.776" y1="-23.776" x1="6.75"/>
  <line x2="6.641" style="fill:none;stroke:#000000;stroke-width:0.7;stroke-linecap:round;" y2="-18.387" y1="-18.387" x1="6.641"/>
  <line x2="4.33" style="fill:none;stroke:#000000;stroke-width:0.7;stroke-linecap:round;" y2="-21.137" y1="-21.137" x1="4.33"/>
  <line x2="1.141" style="fill:none;stroke:#000000;stroke-width:0.7;stroke-linecap:round;" y2="-23.007" y1="-23.007" x1="1.141"/>
  <line x2="18.641" style="fill:none;stroke:#000000;stroke-width:0.7;stroke-linecap:round;" y2="-42.89" y1="-42.89" x1="18.641"/>
  <line x2="2.307" style="fill:none;stroke:#000000;stroke-width:0.7;stroke-linecap:round;" y2="-19.057" y1="-19.057" x1="2.307"/>
  <line x2="53.141" style="fill:none;stroke:#000000;stroke-width:0.7;stroke-linecap:round;" y2="-40.223" y1="-40.223" x1="53.141"/>
  <line x2="4.974" style="fill:none;stroke:#000000;stroke-width:0.7;stroke-linecap:round;" y2="-14.557" y1="-14.557" x1="4.974"/>
  <line x2="5.474" style="fill:none;stroke:#000000;stroke-width:0.7;stroke-linecap:round;" y2="-45.723" y1="-45.723" x1="5.474"/>
  <line x2="3.45" style="fill:none;stroke:#000000;stroke-width:0.7;stroke-linecap:round;" y2="-9.366" y1="-9.366" x1="3.45"/>
  <line x2="6.421" style="fill:none;stroke:#000000;stroke-width:0.7;stroke-linecap:round;" y2="-12.116" y1="-12.116" x1="6.421"/>
  <line x2="8.4" style="fill:none;stroke:#000000;stroke-width:0.7;stroke-linecap:round;" y2="-9.587" y1="-9.587" x1="8.4"/>
  <line x2="10.601" style="fill:none;stroke:#000000;stroke-width:0.7;stroke-linecap:round;" y2="-13.436" y1="-13.436" x1="10.601"/>
  <line x2="15" style="fill:none;stroke:#000000;stroke-width:0.7;stroke-linecap:round;" y2="-14.977" y1="-14.977" x1="15"/>
  <line x2="12.141" style="fill:none;stroke:#000000;stroke-width:0.7;stroke-linecap:round;" y2="-9.146" y1="-9.146" x1="12.141"/>
  <line x2="15.11" style="fill:none;stroke:#000000;stroke-width:0.7;stroke-linecap:round;" y2="-11.566" y1="-11.566" x1="15.11"/>
  <line x2="18.631" style="fill:none;stroke:#000000;stroke-width:0.7;stroke-linecap:round;" y2="-11.456" y1="-11.456" x1="18.631"/>
  <line x2="19.62" style="fill:none;stroke:#000000;stroke-width:0.7;stroke-linecap:round;" y2="-14.977" y1="-14.977" x1="19.62"/>
  <line x2="23.58" style="fill:none;stroke:#000000;stroke-width:0.7;stroke-linecap:round;" y2="-14.427" y1="-14.427" x1="23.58"/>
  <line x2="22.15" style="fill:none;stroke:#000000;stroke-width:0.7;stroke-linecap:round;" y2="-11.786" y1="-11.786" x1="22.15"/>
  <line x2="29.15" style="fill:none;stroke:#000000;stroke-width:0.7;stroke-linecap:round;" y2="-12.666" y1="-12.666" x1="29.15"/>
  <line x2="0.974" style="fill:none;stroke:#000000;stroke-width:0.7;stroke-linecap:round;" y2="-15.723" y1="-15.723" x1="0.974"/>
  <line x2="1.141" style="fill:none;stroke:#000000;stroke-width:0.7;stroke-linecap:round;" y2="-11.557" y1="-11.557" x1="1.141"/>
  <line x2="34.307" style="fill:none;stroke:#000000;stroke-width:0.7;stroke-linecap:round;" y2="-12.39" y1="-12.39" x1="34.307"/>
  <line x2="25.807" style="fill:none;stroke:#000000;stroke-width:0.7;stroke-linecap:round;" y2="-43.223" y1="-43.223" x1="25.807"/>
  <line x2="38.974" style="fill:none;stroke:#000000;stroke-width:0.7;stroke-linecap:round;" y2="-13.39" y1="-13.39" x1="38.974"/>
  <line x2="22.474" style="fill:none;stroke:#000000;stroke-width:0.7;stroke-linecap:round;" y2="-44.723" y1="-44.723" x1="22.474"/>
  <line x2="43.49" style="fill:none;stroke:#000000;stroke-width:0.7;stroke-linecap:round;" y2="-15.196" y1="-15.196" x1="43.49"/>
  <line x2="44.921" style="fill:none;stroke:#000000;stroke-width:0.7;stroke-linecap:round;" y2="-12.337" y1="-12.337" x1="44.921"/>
  <line x2="48.001" style="fill:none;stroke:#000000;stroke-width:0.7;stroke-linecap:round;" y2="-14.427" y1="-14.427" x1="48.001"/>
  <line x2="51.631" style="fill:none;stroke:#000000;stroke-width:0.7;stroke-linecap:round;" y2="-16.406" y1="-16.406" x1="51.631"/>
  <line x2="52.4" style="fill:none;stroke:#000000;stroke-width:0.7;stroke-linecap:round;" y2="-13.547" y1="-13.547" x1="52.4"/>
  <line x2="51.974" style="fill:none;stroke:#000000;stroke-width:0.7;stroke-linecap:round;" y2="-9.39" y1="-9.39" x1="51.974"/>
  <line x2="48.99" style="fill:none;stroke:#000000;stroke-width:0.7;stroke-linecap:round;" y2="-11.126" y1="-11.126" x1="48.99"/>
  <line x2="45.91" style="fill:none;stroke:#000000;stroke-width:0.7;stroke-linecap:round;" y2="-8.376" y1="-8.376" x1="45.91"/>
  <line x2="29.974" style="fill:none;stroke:#000000;stroke-width:0.7;stroke-linecap:round;" y2="-43.057" y1="-43.057" x1="29.974"/>
  <line x2="10.307" style="fill:none;stroke:#000000;stroke-width:0.7;stroke-linecap:round;" y2="-48.723" y1="-48.723" x1="10.307"/>
  <line x2="9.141" style="fill:none;stroke:#000000;stroke-width:0.7;stroke-linecap:round;" y2="-44.89" y1="-44.89" x1="9.141"/>
  <line x2="51.74" style="fill:none;stroke:#000000;stroke-width:0.7;stroke-linecap:round;" y2="-6.177" y1="-6.177" x1="51.74"/>
  <line x2="52.807" style="fill:none;stroke:#000000;stroke-width:0.7;stroke-linecap:round;" y2="-3.39" y1="-3.39" x1="52.807"/>
  <line x2="50.474" style="fill:none;stroke:#000000;stroke-width:0.7;stroke-linecap:round;" y2="-1.39" y1="-1.39" x1="50.474"/>
  <line x2="48.551" style="fill:none;stroke:#000000;stroke-width:0.7;stroke-linecap:round;" y2="-3.427" y1="-3.427" x1="48.551"/>
  <line x2="45.581" style="fill:none;stroke:#000000;stroke-width:0.7;stroke-linecap:round;" y2="-1.227" y1="-1.227" x1="45.581"/>
  <line x2="45.581" style="fill:none;stroke:#000000;stroke-width:0.7;stroke-linecap:round;" y2="-4.967" y1="-4.967" x1="45.581"/>
  <line x2="42.061" style="fill:none;stroke:#000000;stroke-width:0.7;stroke-linecap:round;" y2="-7.387" y1="-7.387" x1="42.061"/>
  <line x2="19.807" style="fill:none;stroke:#000000;stroke-width:0.7;stroke-linecap:round;" y2="-53.057" y1="-53.057" x1="19.807"/>
  <line x2="40.74" style="fill:none;stroke:#000000;stroke-width:0.7;stroke-linecap:round;" y2="-1.557" y1="-1.557" x1="40.74"/>
  <line x2="16.141" style="fill:none;stroke:#000000;stroke-width:0.7;stroke-linecap:round;" y2="-46.723" y1="-46.723" x1="16.141"/>
  <line x2="39.421" style="fill:none;stroke:#000000;stroke-width:0.7;stroke-linecap:round;" y2="-8.927" y1="-8.927" x1="39.421"/>
  <line x2="39.141" style="fill:none;stroke:#000000;stroke-width:0.7;stroke-linecap:round;" y2="-4.89" y1="-4.89" x1="39.141"/>
  <line x2="19.974" style="fill:none;stroke:#000000;stroke-width:0.7;stroke-linecap:round;" y2="-47.89" y1="-47.89" x1="19.974"/>
  <line x2="22.807" style="fill:none;stroke:#000000;stroke-width:0.7;stroke-linecap:round;" y2="-50.89" y1="-50.89" x1="22.807"/>
  <line x2="17.474" style="fill:none;stroke:#000000;stroke-width:0.7;stroke-linecap:round;" y2="-51.223" y1="-51.223" x1="17.474"/>
  <line x2="13.807" style="fill:none;stroke:#000000;stroke-width:0.7;stroke-linecap:round;" y2="-50.223" y1="-50.223" x1="13.807"/>
  <line x2="10.307" style="fill:none;stroke:#000000;stroke-width:0.7;stroke-linecap:round;" y2="-52.39" y1="-52.39" x1="10.307"/>
  <line x2="6.807" style="fill:none;stroke:#000000;stroke-width:0.7;stroke-linecap:round;" y2="-48.223" y1="-48.223" x1="6.807"/>
  <line x2="2.141" style="fill:none;stroke:#000000;stroke-width:0.7;stroke-linecap:round;" y2="-47.723" y1="-47.723" x1="2.141"/>
  <line x2="2.141" style="fill:none;stroke:#000000;stroke-width:0.7;stroke-linecap:round;" y2="-52.39" y1="-52.39" x1="2.141"/>
  <line x2="5.474" style="fill:none;stroke:#000000;stroke-width:0.7;stroke-linecap:round;" y2="-53.39" y1="-53.39" x1="5.474"/>
  <line x2="29.817" style="fill:none;stroke:#000000;stroke-width:0.7;stroke-linecap:round;" y2="-50" y1="-50" x1="29.817"/>
  <line x2="32.307" style="fill:none;stroke:#000000;stroke-width:0.7;stroke-linecap:round;" y2="-48.223" y1="-48.223" x1="32.307"/>
  <line x2="32.141" style="fill:none;stroke:#000000;stroke-width:0.7;stroke-linecap:round;" y2="-52.057" y1="-52.057" x1="32.141"/>
  <line x2="25.641" style="fill:none;stroke:#000000;stroke-width:0.7;stroke-linecap:round;" y2="-53.39" y1="-53.39" x1="25.641"/>
  <line x2="36.307" style="fill:none;stroke:#000000;stroke-width:0.7;stroke-linecap:round;" y2="-50.39" y1="-50.39" x1="36.307"/>
  <line x2="37.807" style="fill:none;stroke:#000000;stroke-width:0.7;stroke-linecap:round;" y2="-45.723" y1="-45.723" x1="37.807"/>
  <line x2="40.807" style="fill:none;stroke:#000000;stroke-width:0.7;stroke-linecap:round;" y2="-49.223" y1="-49.223" x1="40.807"/>
  <line x2="42.141" style="fill:none;stroke:#000000;stroke-width:0.7;stroke-linecap:round;" y2="-44.89" y1="-44.89" x1="42.141"/>
  <line x2="45.141" style="fill:none;stroke:#000000;stroke-width:0.7;stroke-linecap:round;" y2="-47.723" y1="-47.723" x1="45.141"/>
  <line x2="43.141" style="fill:none;stroke:#000000;stroke-width:0.7;stroke-linecap:round;" y2="-52.723" y1="-52.723" x1="43.141"/>
  <line x2="38.307" style="fill:none;stroke:#000000;stroke-width:0.7;stroke-linecap:round;" y2="-53.223" y1="-53.223" x1="38.307"/>
  <line x2="45.817" style="fill:none;stroke:#000000;stroke-width:0.7;stroke-linecap:round;" y2="-50.833" y1="-50.833" x1="45.817"/>
  <line x2="47.307" style="fill:none;stroke:#000000;stroke-width:0.7;stroke-linecap:round;" y2="-44.39" y1="-44.39" x1="47.307"/>
  <line x2="49.807" style="fill:none;stroke:#000000;stroke-width:0.7;stroke-linecap:round;" y2="-48.057" y1="-48.057" x1="49.807"/>
  <line x2="52.141" style="fill:none;stroke:#000000;stroke-width:0.7;stroke-linecap:round;" y2="-44.223" y1="-44.223" x1="52.141"/>
  <line x2="52.807" style="fill:none;stroke:#000000;stroke-width:0.7;stroke-linecap:round;" y2="-51.557" y1="-51.557" x1="52.807"/>
  <line x2="46.65" style="fill:none;stroke:#000000;stroke-width:0.7;stroke-linecap:round;" y2="-53" y1="-53" x1="46.65"/>
  <line x2="37.307" style="fill:none;stroke:#000000;stroke-width:0.7;stroke-linecap:round;" y2="-2.724" y1="-2.724" x1="37.307"/>
  <line x2="35.461" style="fill:none;stroke:#000000;stroke-width:0.7;stroke-linecap:round;" y2="-7.496" y1="-7.496" x1="35.461"/>
  <line x2="32.601" style="fill:none;stroke:#000000;stroke-width:0.7;stroke-linecap:round;" y2="-9.366" y1="-9.366" x1="32.601"/>
  <line x2="32.82" style="fill:none;stroke:#000000;stroke-width:0.7;stroke-linecap:round;" y2="-5.517" y1="-5.517" x1="32.82"/>
  <line x2="34.36" style="fill:none;stroke:#000000;stroke-width:0.7;stroke-linecap:round;" y2="-1.227" y1="-1.227" x1="34.36"/>
  <line x2="29.631" style="fill:none;stroke:#000000;stroke-width:0.7;stroke-linecap:round;" y2="-6.946" y1="-6.946" x1="29.631"/>
  <line x2="28.091" style="fill:none;stroke:#000000;stroke-width:0.7;stroke-linecap:round;" y2="-10.026" y1="-10.026" x1="28.091"/>
  <line x2="24.9" style="fill:none;stroke:#000000;stroke-width:0.7;stroke-linecap:round;" y2="-7.937" y1="-7.937" x1="24.9"/>
  <line x2="26.66" style="fill:none;stroke:#000000;stroke-width:0.7;stroke-linecap:round;" y2="-4.526" y1="-4.526" x1="26.66"/>
  <line x2="22.15" style="fill:none;stroke:#000000;stroke-width:0.7;stroke-linecap:round;" y2="-5.736" y1="-5.736" x1="22.15"/>
  <line x2="18.851" style="fill:none;stroke:#000000;stroke-width:0.7;stroke-linecap:round;" y2="-8.156" y1="-8.156" x1="18.851"/>
  <line x2="15.221" style="fill:none;stroke:#000000;stroke-width:0.7;stroke-linecap:round;" y2="-7.606" y1="-7.606" x1="15.221"/>
  <line x2="19.181" style="fill:none;stroke:#000000;stroke-width:0.7;stroke-linecap:round;" y2="-1.996" y1="-1.996" x1="19.181"/>
  <line x2="23.69" style="fill:none;stroke:#000000;stroke-width:0.7;stroke-linecap:round;" y2="-1.007" y1="-1.007" x1="23.69"/>
  <line x2="29.631" style="fill:none;stroke:#000000;stroke-width:0.7;stroke-linecap:round;" y2="-1.996" y1="-1.996" x1="29.631"/>
  <line x2="14.231" style="fill:none;stroke:#000000;stroke-width:0.7;stroke-linecap:round;" y2="-1.116" y1="-1.116" x1="14.231"/>
  <line x2="13.021" style="fill:none;stroke:#000000;stroke-width:0.7;stroke-linecap:round;" y2="-4.746" y1="-4.746" x1="13.021"/>
  <line x2="9.28" style="fill:none;stroke:#000000;stroke-width:0.7;stroke-linecap:round;" y2="-5.736" y1="-5.736" x1="9.28"/>
  <line x2="9.391" style="fill:none;stroke:#000000;stroke-width:0.7;stroke-linecap:round;" y2="-1.116" y1="-1.116" x1="9.391"/>
  <line x2="6.641" style="fill:none;stroke:#000000;stroke-width:0.7;stroke-linecap:round;" y2="-3.647" y1="-3.647" x1="6.641"/>
  <line x2="2.24" style="fill:none;stroke:#000000;stroke-width:0.7;stroke-linecap:round;" y2="-5.297" y1="-5.297" x1="2.24"/>
  <line x2="2.79" style="fill:none;stroke:#000000;stroke-width:0.7;stroke-linecap:round;" y2="-1.666" y1="-1.666" x1="2.79"/>
  <line x2="39.141" style="fill:none;stroke:#000000;stroke-width:0.7;stroke-linecap:round;" y2="-34.723" y1="-34.723" x1="39.141"/>
  <line x2="40.474" style="fill:none;stroke:#000000;stroke-width:0.7;stroke-linecap:round;" y2="-37.557" y1="-37.557" x1="40.474"/>
  <line x2="44.48" style="fill:none;stroke:#000000;stroke-width:0.7;stroke-linecap:round;" y2="-34.887" y1="-34.887" x1="44.48"/>
  <line x2="51.19" style="fill:none;stroke:#000000;stroke-width:0.7;stroke-linecap:round;" y2="-31.146" y1="-31.146" x1="51.19"/>
  <line x2="46.461" style="fill:none;stroke:#000000;stroke-width:0.7;stroke-linecap:round;" y2="-31.586" y1="-31.586" x1="46.461"/>
  <line x2="38.101" style="fill:none;stroke:#000000;stroke-width:0.7;stroke-linecap:round;" y2="-32.026" y1="-32.026" x1="38.101"/>
  <line x2="34.141" style="fill:none;stroke:#000000;stroke-width:0.7;stroke-linecap:round;" y2="-30.816" y1="-30.816" x1="34.141"/>
  <line x2="32.711" style="fill:none;stroke:#000000;stroke-width:0.7;stroke-linecap:round;" y2="-33.347" y1="-33.347" x1="32.711"/>
  <line x2="36.78" style="fill:none;stroke:#000000;stroke-width:0.7;stroke-linecap:round;" y2="-28.287" y1="-28.287" x1="36.78"/>
  <line x2="39.421" style="fill:none;stroke:#000000;stroke-width:0.7;stroke-linecap:round;" y2="-25.757" y1="-25.757" x1="39.421"/>
  <line x2="42.831" style="fill:none;stroke:#000000;stroke-width:0.7;stroke-linecap:round;" y2="-27.407" y1="-27.407" x1="42.831"/>
  <line x2="42.831" style="fill:none;stroke:#000000;stroke-width:0.7;stroke-linecap:round;" y2="-23.996" y1="-23.996" x1="42.831"/>
  <line x2="46.24" style="fill:none;stroke:#000000;stroke-width:0.7;stroke-linecap:round;" y2="-24.547" y1="-24.547" x1="46.24"/>
  <line x2="47.011" style="fill:none;stroke:#000000;stroke-width:0.7;stroke-linecap:round;" y2="-27.736" y1="-27.736" x1="47.011"/>
  <line x2="49.541" style="fill:none;stroke:#000000;stroke-width:0.7;stroke-linecap:round;" y2="-25.866" y1="-25.866" x1="49.541"/>
  <line x2="52.4" style="fill:none;stroke:#000000;stroke-width:0.7;stroke-linecap:round;" y2="-27.956" y1="-27.956" x1="52.4"/>
  <line x2="51.851" style="fill:none;stroke:#000000;stroke-width:0.7;stroke-linecap:round;" y2="-24.217" y1="-24.217" x1="51.851"/>
  <line x2="52.4" style="fill:none;stroke:#000000;stroke-width:0.7;stroke-linecap:round;" y2="-20.477" y1="-20.477" x1="52.4"/>
  <line x2="48.15" style="fill:none;stroke:#000000;stroke-width:0.7;stroke-linecap:round;" y2="-19" y1="-19" x1="48.15"/>
  <line x2="25.474" style="fill:none;stroke:#000000;stroke-width:0.7;stroke-linecap:round;" y2="-48.223" y1="-48.223" x1="25.474"/>
  <line x2="48.307" style="fill:none;stroke:#000000;stroke-width:0.7;stroke-linecap:round;" y2="-22.057" y1="-22.057" x1="48.307"/>
  <line x2="34.141" style="fill:none;stroke:#000000;stroke-width:0.7;stroke-linecap:round;" y2="-44.723" y1="-44.723" x1="34.141"/>
  <line x2="41.4" style="fill:none;stroke:#000000;stroke-width:0.7;stroke-linecap:round;" y2="-20.477" y1="-20.477" x1="41.4"/>
  <line x2="38.32" style="fill:none;stroke:#000000;stroke-width:0.7;stroke-linecap:round;" y2="-21.576" y1="-21.576" x1="38.32"/>
  <line x2="38.98" style="fill:none;stroke:#000000;stroke-width:0.7;stroke-linecap:round;" y2="-18.057" y1="-18.057" x1="38.98"/>
  <line x2="35.351" style="fill:none;stroke:#000000;stroke-width:0.7;stroke-linecap:round;" y2="-17.286" y1="-17.286" x1="35.351"/>
  <line x2="34.69" style="fill:none;stroke:#000000;stroke-width:0.7;stroke-linecap:round;" y2="-20.477" y1="-20.477" x1="34.69"/>
  <line x2="30.95" style="fill:none;stroke:#000000;stroke-width:0.7;stroke-linecap:round;" y2="-20.477" y1="-20.477" x1="30.95"/>
  <line x2="31.474" style="fill:none;stroke:#000000;stroke-width:0.7;stroke-linecap:round;" y2="-15.223" y1="-15.223" x1="31.474"/>
  <line x2="27.211" style="fill:none;stroke:#000000;stroke-width:0.7;stroke-linecap:round;" y2="-21.246" y1="-21.246" x1="27.211"/>
  <line x2="28.091" style="fill:none;stroke:#000000;stroke-width:0.7;stroke-linecap:round;" y2="-17.066" y1="-17.066" x1="28.091"/>
  <line x2="25.011" style="fill:none;stroke:#000000;stroke-width:0.7;stroke-linecap:round;" y2="-18.167" y1="-18.167" x1="25.011"/>
  <line x2="22.81" style="fill:none;stroke:#000000;stroke-width:0.7;stroke-linecap:round;" y2="-20.917" y1="-20.917" x1="22.81"/>
  <line x2="20.61" style="fill:none;stroke:#000000;stroke-width:0.7;stroke-linecap:round;" y2="-17.727" y1="-17.727" x1="20.61"/>
  <line x2="17.091" style="fill:none;stroke:#000000;stroke-width:0.7;stroke-linecap:round;" y2="-18.496" y1="-18.496" x1="17.091"/>
  <line x2="19.181" style="fill:none;stroke:#000000;stroke-width:0.7;stroke-linecap:round;" y2="-21.687" y1="-21.687" x1="19.181"/>
  <line x2="32.601" style="fill:none;stroke:#000000;stroke-width:0.3;" y2="-3.316" y1="-3.316" x1="15.221"/>
  <line x2="0.016" style="fill:none;stroke:#000000;stroke-width:0.3;" y2="-7.5" y1="-7.5" x1="11.811"/>
  <line x2="23.374" style="fill:none;stroke:#000000;stroke-width:0.3;" y2="-10.997" y1="-10.997" x1="42.515"/>
  <line x2="53.94" style="fill:none;stroke:#000000;stroke-width:0.3;" y2="-17.194" y1="-17.194" x1="41.4"/>
  <line x2="8.841" style="fill:none;stroke:#000000;stroke-width:0.3;" y2="-16.755" y1="-16.755" x1="23.58"/>
  <line x2="40.74" style="fill:none;stroke:#000000;stroke-width:0.3;" y2="-23.776" y1="-23.776" x1="23.36"/>
  <line x2="36.602" style="fill:none;stroke:#000000;stroke-width:0.3;" y2="-46.599" y1="-46.599" x1="19.222"/>
  <line x2="6.949" style="fill:none;stroke:#000000;stroke-width:0.3;" y2="-50.047" y1="-50.047" x1="0"/>
  <line x2="0.481" style="fill:none;stroke:#000000;stroke-width:0.3;" y2="-25.316" y1="-25.316" x1="15"/>
  <line x2="53.94" style="fill:none;stroke:#000000;stroke-width:0.3;" y2="-29.937" y1="-29.937" x1="39.641"/>
  <line x2="15.523" style="fill:none;stroke:#000000;stroke-width:0.3;" y2="-33.822" y1="-33.822" x1="30.702"/>
  <line x2="0.199" style="fill:none;stroke:#000000;stroke-width:0.3;" y2="-39.651" y1="-39.651" x1="14.279"/>
  <line x2="48.159" style="fill:none;stroke:#000000;stroke-width:0.3;" y2="-39.871" y1="-39.871" x1="32.319"/>
  <line x2="48.859" style="fill:none;stroke:#000000;stroke-width:0.3;" y2="-7.5" y1="-7.5" x1="54.141"/>
  <line x2="54.141" style="fill:none;stroke:#000000;stroke-width:0.3;" y2="-50.047" y1="-50.047" x1="48.016"/>
  <line x2="50.38" style="fill:none;stroke:#000000;stroke-width:0.3;" y2="-52.253" y1="-49.917" x1="50.38"/>
  <line x2="35.88" style="fill:none;stroke:#000000;stroke-width:0.3;" y2="-42.208" y1="-39.872" x1="35.88"/>
  <line x2="2.859" style="fill:none;stroke:#000000;stroke-width:0.3;" y2="-42" y1="-39.663" x1="2.859"/>
  <line x2="18.547" style="fill:none;stroke:#000000;stroke-width:0.3;" y2="-36.214" y1="-33.877" x1="18.547"/>
  <line x2="42.692" style="fill:none;stroke:#000000;stroke-width:0.3;" y2="-32.36" y1="-30.023" x1="42.692"/>
  <line x2="26.505" style="fill:none;stroke:#000000;stroke-width:0.3;" y2="-26.145" y1="-23.808" x1="26.505"/>
  <line x2="3.38" style="fill:none;stroke:#000000;stroke-width:0.3;" y2="-27.599" y1="-25.263" x1="3.38"/>
  <line x2="45.025" style="fill:none;stroke:#000000;stroke-width:0.3;" y2="-19.437" y1="-17.1" x1="45.025"/>
  <line x2="12.047" style="fill:none;stroke:#000000;stroke-width:0.3;" y2="-19.221" y1="-16.884" x1="12.047"/>
  <line x2="26.859" style="fill:none;stroke:#000000;stroke-width:0.3;" y2="-13.449" y1="-11.112" x1="26.859"/>
  <line x2="52.39" style="fill:none;stroke:#000000;stroke-width:0.3;" y2="-9.684" y1="-7.348" x1="52.39"/>
  <line x2="18.359" style="fill:none;stroke:#000000;stroke-width:0.3;" y2="-5.699" y1="-3.362" x1="18.359"/>
  <line x2="22.15" style="fill:none;stroke:#000000;stroke-width:0.3;" y2="-48.825" y1="-46.488" x1="22.15"/>
 </g>
</svg>
