<?xml version="1.0"?>
<!-- Converted with SVG Converter - Version 0.9.5 (Compiled Fri Feb 21 09:53:38 2020) - Copyright (C) 2011 Nokia -->
<svg xmlns="http://www.w3.org/2000/svg" width="54.125" baseProfile="tiny" xmlns:xlink="http://www.w3.org/1999/xlink" version="1.1" x="0px" viewBox="0 -54.125 54.125 54.125" xml:space="preserve" y="0px" height="54.125">
 <g>
  <rect width="54.125" style="fill:none;" y="-54.125" height="54.125"/>
  <line x2="14.709" style="fill:none;stroke:#000000;stroke-width:0.3;" y1="-52.771" y2="-52.771" x1="5.625"/>
  <line x2="32.834" style="fill:none;stroke:#000000;stroke-width:0.3;" y1="-52.771" y2="-52.771" x1="23.75"/>
  <line x2="41.875" style="fill:none;stroke:#000000;stroke-width:0.3;" y1="-52.771" y2="-52.771" x1="50.959"/>
  <line x2="0" style="fill:none;stroke:#000000;stroke-width:0.3;" y1="-49.583" y2="-49.583" x1="6.834"/>
  <line x2="15.625" style="fill:none;stroke:#000000;stroke-width:0.3;" y1="-49.583" y2="-49.583" x1="24.709"/>
  <line x2="42.834" style="fill:none;stroke:#000000;stroke-width:0.3;" y1="-49.583" y2="-49.583" x1="33.75"/>
  <line x2="7.875" style="fill:none;stroke:#000000;stroke-width:0.3;" y1="-46.583" y2="-46.583" x1="16.959"/>
  <line x2="25.875" style="fill:none;stroke:#000000;stroke-width:0.3;" y1="-46.583" y2="-46.583" x1="34.959"/>
  <line x2="52.834" style="fill:none;stroke:#000000;stroke-width:0.3;" y1="-46.583" y2="-46.583" x1="43.75"/>
  <line x2="0" style="fill:none;stroke:#000000;stroke-width:0.3;" y1="-43.708" y2="-43.708" x1="6.834"/>
  <line x2="15.625" style="fill:none;stroke:#000000;stroke-width:0.3;" y1="-43.708" y2="-43.708" x1="24.709"/>
  <line x2="42.709" style="fill:none;stroke:#000000;stroke-width:0.3;" y1="-43.708" y2="-43.708" x1="33.625"/>
  <line x2="41.625" style="fill:none;stroke:#000000;stroke-width:0.3;" y1="-40.708" y2="-40.708" x1="50.709"/>
  <line x2="23.625" style="fill:none;stroke:#000000;stroke-width:0.3;" y1="-40.708" y2="-40.708" x1="32.709"/>
  <line x2="5.5" style="fill:none;stroke:#000000;stroke-width:0.3;" y1="-40.708" y2="-40.708" x1="14.584"/>
  <line x2="5.084" style="fill:none;stroke:#000000;stroke-width:0.3;" y1="-37.583" y2="-37.583" x1="0"/>
  <line x2="14" style="fill:none;stroke:#000000;stroke-width:0.3;" y1="-37.583" y2="-37.583" x1="23.084"/>
  <line x2="40.959" style="fill:none;stroke:#000000;stroke-width:0.3;" y1="-37.583" y2="-37.583" x1="31.875"/>
  <line x2="50.709" style="fill:none;stroke:#000000;stroke-width:0.3;" y1="-34.708" y2="-34.708" x1="41.625"/>
  <line x2="32.834" style="fill:none;stroke:#000000;stroke-width:0.3;" y1="-34.708" y2="-34.708" x1="23.75"/>
  <line x2="14.959" style="fill:none;stroke:#000000;stroke-width:0.3;" y1="-34.708" y2="-34.708" x1="5.875"/>
  <line x2="0" style="fill:none;stroke:#000000;stroke-width:0.3;" y1="-31.583" y2="-31.583" x1="4.959"/>
  <line x2="22.834" style="fill:none;stroke:#000000;stroke-width:0.3;" y1="-31.583" y2="-31.583" x1="13.75"/>
  <line x2="40.834" style="fill:none;stroke:#000000;stroke-width:0.3;" y1="-31.583" y2="-31.583" x1="31.75"/>
  <line x2="48.834" style="fill:none;stroke:#000000;stroke-width:0.3;" y1="-28.583" y2="-28.583" x1="39.75"/>
  <line x2="21.75" style="fill:none;stroke:#000000;stroke-width:0.3;" y1="-28.583" y2="-28.583" x1="30.834"/>
  <line x2="3.5" style="fill:none;stroke:#000000;stroke-width:0.3;" y1="-28.583" y2="-28.583" x1="12.584"/>
  <line x2="2.959" style="fill:none;stroke:#000000;stroke-width:0.3;" y1="-25.458" y2="-25.458" x1="0"/>
  <line x2="11.75" style="fill:none;stroke:#000000;stroke-width:0.3;" y1="-25.458" y2="-25.458" x1="20.834"/>
  <line x2="38.959" style="fill:none;stroke:#000000;stroke-width:0.3;" y1="-25.458" y2="-25.458" x1="29.875"/>
  <line x2="46.709" style="fill:none;stroke:#000000;stroke-width:0.3;" y1="-22.583" y2="-22.583" x1="37.625"/>
  <line x2="28.709" style="fill:none;stroke:#000000;stroke-width:0.3;" y1="-22.583" y2="-22.583" x1="19.625"/>
  <line x2="1.75" style="fill:none;stroke:#000000;stroke-width:0.3;" y1="-22.583" y2="-22.583" x1="10.834"/>
  <line x2="0" style="fill:none;stroke:#000000;stroke-width:0.3;" y1="-19.458" y2="-19.458" x1="2.584"/>
  <line x2="11.5" style="fill:none;stroke:#000000;stroke-width:0.3;" y1="-19.458" y2="-19.458" x1="20.584"/>
  <line x2="38.584" style="fill:none;stroke:#000000;stroke-width:0.3;" y1="-19.458" y2="-19.458" x1="29.5"/>
  <line x2="48.834" style="fill:none;stroke:#000000;stroke-width:0.3;" y1="-16.458" y2="-16.458" x1="39.75"/>
  <line x2="30.834" style="fill:none;stroke:#000000;stroke-width:0.3;" y1="-16.458" y2="-16.458" x1="21.75"/>
  <line x2="3.75" style="fill:none;stroke:#000000;stroke-width:0.3;" y1="-16.458" y2="-16.458" x1="12.834"/>
  <line x2="0" style="fill:none;stroke:#000000;stroke-width:0.3;" y1="-13.458" y2="-13.458" x1="5.084"/>
  <line x2="22.959" style="fill:none;stroke:#000000;stroke-width:0.3;" y1="-13.458" y2="-13.458" x1="13.875"/>
  <line x2="40.834" style="fill:none;stroke:#000000;stroke-width:0.3;" y1="-13.458" y2="-13.458" x1="31.75"/>
  <line x2="50.709" style="fill:none;stroke:#000000;stroke-width:0.3;" y1="-10.583" y2="-10.583" x1="41.625"/>
  <line x2="23.875" style="fill:none;stroke:#000000;stroke-width:0.3;" y1="-10.583" y2="-10.583" x1="32.959"/>
  <line x2="5.875" style="fill:none;stroke:#000000;stroke-width:0.3;" y1="-10.583" y2="-10.583" x1="14.959"/>
  <line x2="0" style="fill:none;stroke:#000000;stroke-width:0.3;" y1="-7.333" y2="-7.333" x1="6.459"/>
  <line x2="24.584" style="fill:none;stroke:#000000;stroke-width:0.3;" y1="-7.333" y2="-7.333" x1="15.5"/>
  <line x2="42.709" style="fill:none;stroke:#000000;stroke-width:0.3;" y1="-7.333" y2="-7.333" x1="33.625"/>
  <line x2="41.625" style="fill:none;stroke:#000000;stroke-width:0.3;" y1="-4.458" y2="-4.458" x1="50.709"/>
  <line x2="23.875" style="fill:none;stroke:#000000;stroke-width:0.3;" y1="-4.458" y2="-4.458" x1="32.959"/>
  <line x2="5.75" style="fill:none;stroke:#000000;stroke-width:0.3;" y1="-4.458" y2="-4.458" x1="14.834"/>
  <line x2="5.084" style="fill:none;stroke:#000000;stroke-width:0.3;" y1="-1.333" y2="-1.333" x1="0"/>
  <line x2="13.75" style="fill:none;stroke:#000000;stroke-width:0.3;" y1="-1.333" y2="-1.333" x1="22.834"/>
  <line x2="31.625" style="fill:none;stroke:#000000;stroke-width:0.3;" y1="-1.333" y2="-1.333" x1="40.709"/>
  <line x2="54.125" style="fill:none;stroke:#000000;stroke-width:0.3;" y1="-49.583" y2="-49.583" x1="51.917"/>
  <line x2="54.125" style="fill:none;stroke:#000000;stroke-width:0.3;" y1="-43.708" y2="-43.708" x1="51.917"/>
  <line x2="54.125" style="fill:none;stroke:#000000;stroke-width:0.3;" y1="-37.583" y2="-37.583" x1="50.167"/>
  <line x2="50.042" style="fill:none;stroke:#000000;stroke-width:0.3;" y1="-31.583" y2="-31.583" x1="54.125"/>
  <line x2="54.125" style="fill:none;stroke:#000000;stroke-width:0.3;" y1="-25.458" y2="-25.458" x1="48.042"/>
  <line x2="54.125" style="fill:none;stroke:#000000;stroke-width:0.3;" y1="-19.458" y2="-19.458" x1="47.667"/>
  <line x2="54.125" style="fill:none;stroke:#000000;stroke-width:0.3;" y1="-13.458" y2="-13.458" x1="50.167"/>
  <line x2="54.125" style="fill:none;stroke:#000000;stroke-width:0.3;" y1="-7.333" y2="-7.333" x1="51.542"/>
  <line x2="54.125" style="fill:none;stroke:#000000;stroke-width:0.3;" y1="-1.333" y2="-1.333" x1="50.167"/>
  <line x2="11.289" style="fill:none;stroke:#000000;stroke-width:0.7;stroke-linecap:round;" y1="-49.583" y2="-49.583" x1="11.289"/>
  <line x2="13.568" style="fill:none;stroke:#000000;stroke-width:0.7;stroke-linecap:round;" y1="-49.583" y2="-49.583" x1="13.568"/>
  <line x2="8.902" style="fill:none;stroke:#000000;stroke-width:0.7;stroke-linecap:round;" y1="-49.583" y2="-49.583" x1="8.902"/>
  <line x2="29.292" style="fill:none;stroke:#000000;stroke-width:0.7;stroke-linecap:round;" y1="-49.583" y2="-49.583" x1="29.292"/>
  <line x2="31.572" style="fill:none;stroke:#000000;stroke-width:0.7;stroke-linecap:round;" y1="-49.583" y2="-49.583" x1="31.572"/>
  <line x2="26.905" style="fill:none;stroke:#000000;stroke-width:0.7;stroke-linecap:round;" y1="-49.583" y2="-49.583" x1="26.905"/>
  <line x2="47.375" style="fill:none;stroke:#000000;stroke-width:0.7;stroke-linecap:round;" y1="-49.583" y2="-49.583" x1="47.375"/>
  <line x2="49.655" style="fill:none;stroke:#000000;stroke-width:0.7;stroke-linecap:round;" y1="-49.583" y2="-49.583" x1="49.655"/>
  <line x2="44.989" style="fill:none;stroke:#000000;stroke-width:0.7;stroke-linecap:round;" y1="-49.583" y2="-49.583" x1="44.989"/>
  <line x2="39.459" style="fill:none;stroke:#000000;stroke-width:0.7;stroke-linecap:round;" y1="-46.583" y2="-46.583" x1="39.459"/>
  <line x2="41.738" style="fill:none;stroke:#000000;stroke-width:0.7;stroke-linecap:round;" y1="-46.583" y2="-46.583" x1="41.738"/>
  <line x2="37.072" style="fill:none;stroke:#000000;stroke-width:0.7;stroke-linecap:round;" y1="-46.583" y2="-46.583" x1="37.072"/>
  <line x2="21.459" style="fill:none;stroke:#000000;stroke-width:0.7;stroke-linecap:round;" y1="-46.583" y2="-46.583" x1="21.459"/>
  <line x2="23.738" style="fill:none;stroke:#000000;stroke-width:0.7;stroke-linecap:round;" y1="-46.583" y2="-46.583" x1="23.738"/>
  <line x2="19.072" style="fill:none;stroke:#000000;stroke-width:0.7;stroke-linecap:round;" y1="-46.583" y2="-46.583" x1="19.072"/>
  <line x2="3.499" style="fill:none;stroke:#000000;stroke-width:0.7;stroke-linecap:round;" y1="-46.583" y2="-46.583" x1="3.499"/>
  <line x2="5.778" style="fill:none;stroke:#000000;stroke-width:0.7;stroke-linecap:round;" y1="-46.583" y2="-46.583" x1="5.778"/>
  <line x2="1.112" style="fill:none;stroke:#000000;stroke-width:0.7;stroke-linecap:round;" y1="-46.583" y2="-46.583" x1="1.112"/>
  <line x2="19.125" style="fill:none;stroke:#000000;stroke-width:0.7;stroke-linecap:round;" y1="-52.707" y2="-52.707" x1="19.125"/>
  <line x2="21.405" style="fill:none;stroke:#000000;stroke-width:0.7;stroke-linecap:round;" y1="-52.707" y2="-52.707" x1="21.405"/>
  <line x2="16.739" style="fill:none;stroke:#000000;stroke-width:0.7;stroke-linecap:round;" y1="-52.707" y2="-52.707" x1="16.739"/>
  <line x2="1.249" style="fill:none;stroke:#000000;stroke-width:0.7;stroke-linecap:round;" y1="-52.707" y2="-52.707" x1="1.249"/>
  <line x2="3.528" style="fill:none;stroke:#000000;stroke-width:0.7;stroke-linecap:round;" y1="-52.707" y2="-52.707" x1="3.528"/>
  <line x2="37.375" style="fill:none;stroke:#000000;stroke-width:0.7;stroke-linecap:round;" y1="-52.707" y2="-52.707" x1="37.375"/>
  <line x2="39.655" style="fill:none;stroke:#000000;stroke-width:0.7;stroke-linecap:round;" y1="-52.707" y2="-52.707" x1="39.655"/>
  <line x2="34.989" style="fill:none;stroke:#000000;stroke-width:0.7;stroke-linecap:round;" y1="-52.707" y2="-52.707" x1="34.989"/>
  <line x2="52.779" style="fill:none;stroke:#000000;stroke-width:0.7;stroke-linecap:round;" y1="-52.707" y2="-52.707" x1="52.779"/>
  <line x2="29.152" style="fill:none;stroke:#000000;stroke-width:0.7;stroke-linecap:round;" y1="-43.684" y2="-43.684" x1="29.152"/>
  <line x2="31.432" style="fill:none;stroke:#000000;stroke-width:0.7;stroke-linecap:round;" y1="-43.684" y2="-43.684" x1="31.432"/>
  <line x2="26.766" style="fill:none;stroke:#000000;stroke-width:0.7;stroke-linecap:round;" y1="-43.684" y2="-43.684" x1="26.766"/>
  <line x2="11.275" style="fill:none;stroke:#000000;stroke-width:0.7;stroke-linecap:round;" y1="-43.684" y2="-43.684" x1="11.275"/>
  <line x2="13.556" style="fill:none;stroke:#000000;stroke-width:0.7;stroke-linecap:round;" y1="-43.684" y2="-43.684" x1="13.556"/>
  <line x2="8.889" style="fill:none;stroke:#000000;stroke-width:0.7;stroke-linecap:round;" y1="-43.684" y2="-43.684" x1="8.889"/>
  <line x2="47.402" style="fill:none;stroke:#000000;stroke-width:0.7;stroke-linecap:round;" y1="-43.684" y2="-43.684" x1="47.402"/>
  <line x2="49.682" style="fill:none;stroke:#000000;stroke-width:0.7;stroke-linecap:round;" y1="-43.684" y2="-43.684" x1="49.682"/>
  <line x2="45.016" style="fill:none;stroke:#000000;stroke-width:0.7;stroke-linecap:round;" y1="-43.684" y2="-43.684" x1="45.016"/>
  <line x2="19" style="fill:none;stroke:#000000;stroke-width:0.7;stroke-linecap:round;" y1="-40.688" y2="-40.688" x1="19"/>
  <line x2="21.28" style="fill:none;stroke:#000000;stroke-width:0.7;stroke-linecap:round;" y1="-40.688" y2="-40.688" x1="21.28"/>
  <line x2="16.614" style="fill:none;stroke:#000000;stroke-width:0.7;stroke-linecap:round;" y1="-40.688" y2="-40.688" x1="16.614"/>
  <line x2="1.124" style="fill:none;stroke:#000000;stroke-width:0.7;stroke-linecap:round;" y1="-40.688" y2="-40.688" x1="1.124"/>
  <line x2="3.403" style="fill:none;stroke:#000000;stroke-width:0.7;stroke-linecap:round;" y1="-40.688" y2="-40.688" x1="3.403"/>
  <line x2="37.25" style="fill:none;stroke:#000000;stroke-width:0.7;stroke-linecap:round;" y1="-40.688" y2="-40.688" x1="37.25"/>
  <line x2="39.53" style="fill:none;stroke:#000000;stroke-width:0.7;stroke-linecap:round;" y1="-40.688" y2="-40.688" x1="39.53"/>
  <line x2="34.864" style="fill:none;stroke:#000000;stroke-width:0.7;stroke-linecap:round;" y1="-40.688" y2="-40.688" x1="34.864"/>
  <line x2="52.654" style="fill:none;stroke:#000000;stroke-width:0.7;stroke-linecap:round;" y1="-40.688" y2="-40.688" x1="52.654"/>
  <line x2="27.438" style="fill:none;stroke:#000000;stroke-width:0.7;stroke-linecap:round;" y1="-37.562" y2="-37.562" x1="27.438"/>
  <line x2="29.718" style="fill:none;stroke:#000000;stroke-width:0.7;stroke-linecap:round;" y1="-37.562" y2="-37.562" x1="29.718"/>
  <line x2="25.052" style="fill:none;stroke:#000000;stroke-width:0.7;stroke-linecap:round;" y1="-37.562" y2="-37.562" x1="25.052"/>
  <line x2="9.561" style="fill:none;stroke:#000000;stroke-width:0.7;stroke-linecap:round;" y1="-37.562" y2="-37.562" x1="9.561"/>
  <line x2="11.841" style="fill:none;stroke:#000000;stroke-width:0.7;stroke-linecap:round;" y1="-37.562" y2="-37.562" x1="11.841"/>
  <line x2="7.175" style="fill:none;stroke:#000000;stroke-width:0.7;stroke-linecap:round;" y1="-37.562" y2="-37.562" x1="7.175"/>
  <line x2="45.688" style="fill:none;stroke:#000000;stroke-width:0.7;stroke-linecap:round;" y1="-37.562" y2="-37.562" x1="45.688"/>
  <line x2="47.968" style="fill:none;stroke:#000000;stroke-width:0.7;stroke-linecap:round;" y1="-37.562" y2="-37.562" x1="47.968"/>
  <line x2="43.302" style="fill:none;stroke:#000000;stroke-width:0.7;stroke-linecap:round;" y1="-37.562" y2="-37.562" x1="43.302"/>
  <line x2="18.875" style="fill:none;stroke:#000000;stroke-width:0.7;stroke-linecap:round;" y1="-34.688" y2="-34.688" x1="18.875"/>
  <line x2="21.155" style="fill:none;stroke:#000000;stroke-width:0.7;stroke-linecap:round;" y1="-34.688" y2="-34.688" x1="21.155"/>
  <line x2="16.489" style="fill:none;stroke:#000000;stroke-width:0.7;stroke-linecap:round;" y1="-34.688" y2="-34.688" x1="16.489"/>
  <line x2="0.999" style="fill:none;stroke:#000000;stroke-width:0.7;stroke-linecap:round;" y1="-34.688" y2="-34.688" x1="0.999"/>
  <line x2="3.278" style="fill:none;stroke:#000000;stroke-width:0.7;stroke-linecap:round;" y1="-34.688" y2="-34.688" x1="3.278"/>
  <line x2="37.125" style="fill:none;stroke:#000000;stroke-width:0.7;stroke-linecap:round;" y1="-34.688" y2="-34.688" x1="37.125"/>
  <line x2="39.405" style="fill:none;stroke:#000000;stroke-width:0.7;stroke-linecap:round;" y1="-34.688" y2="-34.688" x1="39.405"/>
  <line x2="34.739" style="fill:none;stroke:#000000;stroke-width:0.7;stroke-linecap:round;" y1="-34.688" y2="-34.688" x1="34.739"/>
  <line x2="52.529" style="fill:none;stroke:#000000;stroke-width:0.7;stroke-linecap:round;" y1="-34.688" y2="-34.688" x1="52.529"/>
  <line x2="27.312" style="fill:none;stroke:#000000;stroke-width:0.7;stroke-linecap:round;" y1="-31.625" y2="-31.625" x1="27.312"/>
  <line x2="29.593" style="fill:none;stroke:#000000;stroke-width:0.7;stroke-linecap:round;" y1="-31.625" y2="-31.625" x1="29.593"/>
  <line x2="24.927" style="fill:none;stroke:#000000;stroke-width:0.7;stroke-linecap:round;" y1="-31.625" y2="-31.625" x1="24.927"/>
  <line x2="9.436" style="fill:none;stroke:#000000;stroke-width:0.7;stroke-linecap:round;" y1="-31.625" y2="-31.625" x1="9.436"/>
  <line x2="11.716" style="fill:none;stroke:#000000;stroke-width:0.7;stroke-linecap:round;" y1="-31.625" y2="-31.625" x1="11.716"/>
  <line x2="7.05" style="fill:none;stroke:#000000;stroke-width:0.7;stroke-linecap:round;" y1="-31.625" y2="-31.625" x1="7.05"/>
  <line x2="45.562" style="fill:none;stroke:#000000;stroke-width:0.7;stroke-linecap:round;" y1="-31.625" y2="-31.625" x1="45.562"/>
  <line x2="47.843" style="fill:none;stroke:#000000;stroke-width:0.7;stroke-linecap:round;" y1="-31.625" y2="-31.625" x1="47.843"/>
  <line x2="43.177" style="fill:none;stroke:#000000;stroke-width:0.7;stroke-linecap:round;" y1="-31.625" y2="-31.625" x1="43.177"/>
  <line x2="17.062" style="fill:none;stroke:#000000;stroke-width:0.7;stroke-linecap:round;" y1="-28.625" y2="-28.625" x1="17.062"/>
  <line x2="19.343" style="fill:none;stroke:#000000;stroke-width:0.7;stroke-linecap:round;" y1="-28.625" y2="-28.625" x1="19.343"/>
  <line x2="14.677" style="fill:none;stroke:#000000;stroke-width:0.7;stroke-linecap:round;" y1="-28.625" y2="-28.625" x1="14.677"/>
  <line x2="1.466" style="fill:none;stroke:#000000;stroke-width:0.7;stroke-linecap:round;" y1="-28.625" y2="-28.625" x1="1.466"/>
  <line x2="35.312" style="fill:none;stroke:#000000;stroke-width:0.7;stroke-linecap:round;" y1="-28.625" y2="-28.625" x1="35.312"/>
  <line x2="37.593" style="fill:none;stroke:#000000;stroke-width:0.7;stroke-linecap:round;" y1="-28.625" y2="-28.625" x1="37.593"/>
  <line x2="32.927" style="fill:none;stroke:#000000;stroke-width:0.7;stroke-linecap:round;" y1="-28.625" y2="-28.625" x1="32.927"/>
  <line x2="53.103" style="fill:none;stroke:#000000;stroke-width:0.7;stroke-linecap:round;" y1="-28.625" y2="-28.625" x1="53.103"/>
  <line x2="50.717" style="fill:none;stroke:#000000;stroke-width:0.7;stroke-linecap:round;" y1="-28.625" y2="-28.625" x1="50.717"/>
  <line x2="25.25" style="fill:none;stroke:#000000;stroke-width:0.7;stroke-linecap:round;" y1="-25.5" y2="-25.5" x1="25.25"/>
  <line x2="27.53" style="fill:none;stroke:#000000;stroke-width:0.7;stroke-linecap:round;" y1="-25.5" y2="-25.5" x1="27.53"/>
  <line x2="22.864" style="fill:none;stroke:#000000;stroke-width:0.7;stroke-linecap:round;" y1="-25.5" y2="-25.5" x1="22.864"/>
  <line x2="7.374" style="fill:none;stroke:#000000;stroke-width:0.7;stroke-linecap:round;" y1="-25.5" y2="-25.5" x1="7.374"/>
  <line x2="9.653" style="fill:none;stroke:#000000;stroke-width:0.7;stroke-linecap:round;" y1="-25.5" y2="-25.5" x1="9.653"/>
  <line x2="4.987" style="fill:none;stroke:#000000;stroke-width:0.7;stroke-linecap:round;" y1="-25.5" y2="-25.5" x1="4.987"/>
  <line x2="43.5" style="fill:none;stroke:#000000;stroke-width:0.7;stroke-linecap:round;" y1="-25.5" y2="-25.5" x1="43.5"/>
  <line x2="45.78" style="fill:none;stroke:#000000;stroke-width:0.7;stroke-linecap:round;" y1="-25.5" y2="-25.5" x1="45.78"/>
  <line x2="41.114" style="fill:none;stroke:#000000;stroke-width:0.7;stroke-linecap:round;" y1="-25.5" y2="-25.5" x1="41.114"/>
  <line x2="14.938" style="fill:none;stroke:#000000;stroke-width:0.7;stroke-linecap:round;" y1="-22.562" y2="-22.562" x1="14.938"/>
  <line x2="17.218" style="fill:none;stroke:#000000;stroke-width:0.7;stroke-linecap:round;" y1="-22.562" y2="-22.562" x1="17.218"/>
  <line x2="12.552" style="fill:none;stroke:#000000;stroke-width:0.7;stroke-linecap:round;" y1="-22.562" y2="-22.562" x1="12.552"/>
  <line x2="33.188" style="fill:none;stroke:#000000;stroke-width:0.7;stroke-linecap:round;" y1="-22.562" y2="-22.562" x1="33.188"/>
  <line x2="35.468" style="fill:none;stroke:#000000;stroke-width:0.7;stroke-linecap:round;" y1="-22.562" y2="-22.562" x1="35.468"/>
  <line x2="30.802" style="fill:none;stroke:#000000;stroke-width:0.7;stroke-linecap:round;" y1="-22.562" y2="-22.562" x1="30.802"/>
  <line x2="50.978" style="fill:none;stroke:#000000;stroke-width:0.7;stroke-linecap:round;" y1="-22.562" y2="-22.562" x1="50.978"/>
  <line x2="53.258" style="fill:none;stroke:#000000;stroke-width:0.7;stroke-linecap:round;" y1="-22.562" y2="-22.562" x1="53.258"/>
  <line x2="48.592" style="fill:none;stroke:#000000;stroke-width:0.7;stroke-linecap:round;" y1="-22.562" y2="-22.562" x1="48.592"/>
  <line x2="24.938" style="fill:none;stroke:#000000;stroke-width:0.7;stroke-linecap:round;" y1="-19.438" y2="-19.438" x1="24.938"/>
  <line x2="27.218" style="fill:none;stroke:#000000;stroke-width:0.7;stroke-linecap:round;" y1="-19.438" y2="-19.438" x1="27.218"/>
  <line x2="22.552" style="fill:none;stroke:#000000;stroke-width:0.7;stroke-linecap:round;" y1="-19.438" y2="-19.438" x1="22.552"/>
  <line x2="7.062" style="fill:none;stroke:#000000;stroke-width:0.7;stroke-linecap:round;" y1="-19.438" y2="-19.438" x1="7.062"/>
  <line x2="9.341" style="fill:none;stroke:#000000;stroke-width:0.7;stroke-linecap:round;" y1="-19.438" y2="-19.438" x1="9.341"/>
  <line x2="4.675" style="fill:none;stroke:#000000;stroke-width:0.7;stroke-linecap:round;" y1="-19.438" y2="-19.438" x1="4.675"/>
  <line x2="43.188" style="fill:none;stroke:#000000;stroke-width:0.7;stroke-linecap:round;" y1="-19.438" y2="-19.438" x1="43.188"/>
  <line x2="45.468" style="fill:none;stroke:#000000;stroke-width:0.7;stroke-linecap:round;" y1="-19.438" y2="-19.438" x1="45.468"/>
  <line x2="40.802" style="fill:none;stroke:#000000;stroke-width:0.7;stroke-linecap:round;" y1="-19.438" y2="-19.438" x1="40.802"/>
  <line x2="17.125" style="fill:none;stroke:#000000;stroke-width:0.7;stroke-linecap:round;" y1="-16.438" y2="-16.438" x1="17.125"/>
  <line x2="19.405" style="fill:none;stroke:#000000;stroke-width:0.7;stroke-linecap:round;" y1="-16.438" y2="-16.438" x1="19.405"/>
  <line x2="14.739" style="fill:none;stroke:#000000;stroke-width:0.7;stroke-linecap:round;" y1="-16.438" y2="-16.438" x1="14.739"/>
  <line x2="1.528" style="fill:none;stroke:#000000;stroke-width:0.7;stroke-linecap:round;" y1="-16.438" y2="-16.438" x1="1.528"/>
  <line x2="35.375" style="fill:none;stroke:#000000;stroke-width:0.7;stroke-linecap:round;" y1="-16.438" y2="-16.438" x1="35.375"/>
  <line x2="37.655" style="fill:none;stroke:#000000;stroke-width:0.7;stroke-linecap:round;" y1="-16.438" y2="-16.438" x1="37.655"/>
  <line x2="32.989" style="fill:none;stroke:#000000;stroke-width:0.7;stroke-linecap:round;" y1="-16.438" y2="-16.438" x1="32.989"/>
  <line x2="53.165" style="fill:none;stroke:#000000;stroke-width:0.7;stroke-linecap:round;" y1="-16.438" y2="-16.438" x1="53.165"/>
  <line x2="50.779" style="fill:none;stroke:#000000;stroke-width:0.7;stroke-linecap:round;" y1="-16.438" y2="-16.438" x1="50.779"/>
  <line x2="27.312" style="fill:none;stroke:#000000;stroke-width:0.7;stroke-linecap:round;" y1="-13.438" y2="-13.438" x1="27.312"/>
  <line x2="29.593" style="fill:none;stroke:#000000;stroke-width:0.7;stroke-linecap:round;" y1="-13.438" y2="-13.438" x1="29.593"/>
  <line x2="24.927" style="fill:none;stroke:#000000;stroke-width:0.7;stroke-linecap:round;" y1="-13.438" y2="-13.438" x1="24.927"/>
  <line x2="9.436" style="fill:none;stroke:#000000;stroke-width:0.7;stroke-linecap:round;" y1="-13.438" y2="-13.438" x1="9.436"/>
  <line x2="11.716" style="fill:none;stroke:#000000;stroke-width:0.7;stroke-linecap:round;" y1="-13.438" y2="-13.438" x1="11.716"/>
  <line x2="7.05" style="fill:none;stroke:#000000;stroke-width:0.7;stroke-linecap:round;" y1="-13.438" y2="-13.438" x1="7.05"/>
  <line x2="45.562" style="fill:none;stroke:#000000;stroke-width:0.7;stroke-linecap:round;" y1="-13.438" y2="-13.438" x1="45.562"/>
  <line x2="47.843" style="fill:none;stroke:#000000;stroke-width:0.7;stroke-linecap:round;" y1="-13.438" y2="-13.438" x1="47.843"/>
  <line x2="43.177" style="fill:none;stroke:#000000;stroke-width:0.7;stroke-linecap:round;" y1="-13.438" y2="-13.438" x1="43.177"/>
  <line x2="19.125" style="fill:none;stroke:#000000;stroke-width:0.7;stroke-linecap:round;" y1="-10.625" y2="-10.625" x1="19.125"/>
  <line x2="21.405" style="fill:none;stroke:#000000;stroke-width:0.7;stroke-linecap:round;" y1="-10.625" y2="-10.625" x1="21.405"/>
  <line x2="16.739" style="fill:none;stroke:#000000;stroke-width:0.7;stroke-linecap:round;" y1="-10.625" y2="-10.625" x1="16.739"/>
  <line x2="1.249" style="fill:none;stroke:#000000;stroke-width:0.7;stroke-linecap:round;" y1="-10.625" y2="-10.625" x1="1.249"/>
  <line x2="3.528" style="fill:none;stroke:#000000;stroke-width:0.7;stroke-linecap:round;" y1="-10.625" y2="-10.625" x1="3.528"/>
  <line x2="37.375" style="fill:none;stroke:#000000;stroke-width:0.7;stroke-linecap:round;" y1="-10.625" y2="-10.625" x1="37.375"/>
  <line x2="39.655" style="fill:none;stroke:#000000;stroke-width:0.7;stroke-linecap:round;" y1="-10.625" y2="-10.625" x1="39.655"/>
  <line x2="34.989" style="fill:none;stroke:#000000;stroke-width:0.7;stroke-linecap:round;" y1="-10.625" y2="-10.625" x1="34.989"/>
  <line x2="52.779" style="fill:none;stroke:#000000;stroke-width:0.7;stroke-linecap:round;" y1="-10.625" y2="-10.625" x1="52.779"/>
  <line x2="29" style="fill:none;stroke:#000000;stroke-width:0.7;stroke-linecap:round;" y1="-7.312" y2="-7.312" x1="29"/>
  <line x2="31.28" style="fill:none;stroke:#000000;stroke-width:0.7;stroke-linecap:round;" y1="-7.312" y2="-7.312" x1="31.28"/>
  <line x2="26.614" style="fill:none;stroke:#000000;stroke-width:0.7;stroke-linecap:round;" y1="-7.312" y2="-7.312" x1="26.614"/>
  <line x2="11.124" style="fill:none;stroke:#000000;stroke-width:0.7;stroke-linecap:round;" y1="-7.312" y2="-7.312" x1="11.124"/>
  <line x2="13.403" style="fill:none;stroke:#000000;stroke-width:0.7;stroke-linecap:round;" y1="-7.312" y2="-7.312" x1="13.403"/>
  <line x2="8.737" style="fill:none;stroke:#000000;stroke-width:0.7;stroke-linecap:round;" y1="-7.312" y2="-7.312" x1="8.737"/>
  <line x2="47.25" style="fill:none;stroke:#000000;stroke-width:0.7;stroke-linecap:round;" y1="-7.312" y2="-7.312" x1="47.25"/>
  <line x2="49.53" style="fill:none;stroke:#000000;stroke-width:0.7;stroke-linecap:round;" y1="-7.312" y2="-7.312" x1="49.53"/>
  <line x2="44.864" style="fill:none;stroke:#000000;stroke-width:0.7;stroke-linecap:round;" y1="-7.312" y2="-7.312" x1="44.864"/>
  <line x2="19.188" style="fill:none;stroke:#000000;stroke-width:0.7;stroke-linecap:round;" y1="-4.438" y2="-4.438" x1="19.188"/>
  <line x2="21.468" style="fill:none;stroke:#000000;stroke-width:0.7;stroke-linecap:round;" y1="-4.438" y2="-4.438" x1="21.468"/>
  <line x2="16.802" style="fill:none;stroke:#000000;stroke-width:0.7;stroke-linecap:round;" y1="-4.438" y2="-4.438" x1="16.802"/>
  <line x2="1.311" style="fill:none;stroke:#000000;stroke-width:0.7;stroke-linecap:round;" y1="-4.438" y2="-4.438" x1="1.311"/>
  <line x2="3.591" style="fill:none;stroke:#000000;stroke-width:0.7;stroke-linecap:round;" y1="-4.438" y2="-4.438" x1="3.591"/>
  <line x2="37.438" style="fill:none;stroke:#000000;stroke-width:0.7;stroke-linecap:round;" y1="-4.438" y2="-4.438" x1="37.438"/>
  <line x2="39.718" style="fill:none;stroke:#000000;stroke-width:0.7;stroke-linecap:round;" y1="-4.438" y2="-4.438" x1="39.718"/>
  <line x2="35.052" style="fill:none;stroke:#000000;stroke-width:0.7;stroke-linecap:round;" y1="-4.438" y2="-4.438" x1="35.052"/>
  <line x2="52.842" style="fill:none;stroke:#000000;stroke-width:0.7;stroke-linecap:round;" y1="-4.438" y2="-4.438" x1="52.842"/>
  <line x2="27.375" style="fill:none;stroke:#000000;stroke-width:0.7;stroke-linecap:round;" y1="-1.312" y2="-1.312" x1="27.375"/>
  <line x2="29.655" style="fill:none;stroke:#000000;stroke-width:0.7;stroke-linecap:round;" y1="-1.312" y2="-1.312" x1="29.655"/>
  <line x2="24.989" style="fill:none;stroke:#000000;stroke-width:0.7;stroke-linecap:round;" y1="-1.312" y2="-1.312" x1="24.989"/>
  <line x2="9.499" style="fill:none;stroke:#000000;stroke-width:0.7;stroke-linecap:round;" y1="-1.312" y2="-1.312" x1="9.499"/>
  <line x2="11.778" style="fill:none;stroke:#000000;stroke-width:0.7;stroke-linecap:round;" y1="-1.312" y2="-1.312" x1="11.778"/>
  <line x2="7.112" style="fill:none;stroke:#000000;stroke-width:0.7;stroke-linecap:round;" y1="-1.312" y2="-1.312" x1="7.112"/>
  <line x2="45.625" style="fill:none;stroke:#000000;stroke-width:0.7;stroke-linecap:round;" y1="-1.312" y2="-1.312" x1="45.625"/>
  <line x2="47.905" style="fill:none;stroke:#000000;stroke-width:0.7;stroke-linecap:round;" y1="-1.312" y2="-1.312" x1="47.905"/>
  <line x2="43.239" style="fill:none;stroke:#000000;stroke-width:0.7;stroke-linecap:round;" y1="-1.312" y2="-1.312" x1="43.239"/>
 </g>
</svg>
