<?xml version="1.0"?>
<!-- Converted with SVG Converter - Version 0.9.6 (Compiled Thu Aug 31 10:01:05 2017) - Copyright (C) 2011 Nokia -->
<svg xmlns="http://www.w3.org/2000/svg" width="54.125" version="1.1" y="0px" baseProfile="tiny" xml:space="preserve" viewBox="0 -54.125 54.125 54.125" x="0px" height="54.125" xmlns:xlink="http://www.w3.org/1999/xlink">
 <g>
  <rect width="54.125" y="-54.125" style="fill:none;" height="54.125"/>
  <line y2="-52.525" style="fill:none;stroke:#000000;stroke-width:0.3;" x1="5.666" y1="-52.525" x2="14.75"/>
  <line y2="-53.937" style="fill:none;stroke:#000000;stroke-width:0.3;" x1="6.812" y1="-52.713" x2="6.812"/>
  <line y2="-52.525" style="fill:none;stroke:#000000;stroke-width:0.3;" x1="23.791" y1="-52.525" x2="32.875"/>
  <line y2="-53.937" style="fill:none;stroke:#000000;stroke-width:0.3;" x1="24.938" y1="-52.713" x2="24.938"/>
  <line y2="-52.525" style="fill:none;stroke:#000000;stroke-width:0.3;" x1="41.916" y1="-52.525" x2="51"/>
  <line y2="-53.937" style="fill:none;stroke:#000000;stroke-width:0.3;" x1="43.062" y1="-52.713" x2="43.062"/>
  <line y2="-49.417" style="fill:none;stroke:#000000;stroke-width:0.3;" x1="6.875" y1="-49.417" x2="0"/>
  <line y2="-49.417" style="fill:none;stroke:#000000;stroke-width:0.3;" x1="24.75" y1="-49.417" x2="15.666"/>
  <line y2="-50.829" style="fill:none;stroke:#000000;stroke-width:0.3;" x1="16.812" y1="-49.605" x2="16.812"/>
  <line y2="-49.417" style="fill:none;stroke:#000000;stroke-width:0.3;" x1="42.875" y1="-49.417" x2="33.791"/>
  <line y2="-50.829" style="fill:none;stroke:#000000;stroke-width:0.3;" x1="34.938" y1="-49.605" x2="34.938"/>
  <line y2="-46.417" style="fill:none;stroke:#000000;stroke-width:0.3;" x1="17" y1="-46.417" x2="7.916"/>
  <line y2="-46.605" style="fill:none;stroke:#000000;stroke-width:0.3;" x1="9.062" y1="-47.829" x2="9.062"/>
  <line y2="-46.417" style="fill:none;stroke:#000000;stroke-width:0.3;" x1="35" y1="-46.417" x2="25.916"/>
  <line y2="-46.605" style="fill:none;stroke:#000000;stroke-width:0.3;" x1="27.062" y1="-47.829" x2="27.062"/>
  <line y2="-46.417" style="fill:none;stroke:#000000;stroke-width:0.3;" x1="43.791" y1="-46.417" x2="52.875"/>
  <line y2="-46.605" style="fill:none;stroke:#000000;stroke-width:0.3;" x1="44.938" y1="-47.829" x2="44.938"/>
  <line y2="-43.542" style="fill:none;stroke:#000000;stroke-width:0.3;" x1="0" y1="-43.542" x2="6.875"/>
  <line y2="-43.542" style="fill:none;stroke:#000000;stroke-width:0.3;" x1="15.666" y1="-43.542" x2="24.75"/>
  <line y2="-44.954" style="fill:none;stroke:#000000;stroke-width:0.3;" x1="16.812" y1="-43.73" x2="16.812"/>
  <line y2="-43.542" style="fill:none;stroke:#000000;stroke-width:0.3;" x1="33.666" y1="-43.542" x2="42.75"/>
  <line y2="-44.954" style="fill:none;stroke:#000000;stroke-width:0.3;" x1="34.812" y1="-43.73" x2="34.812"/>
  <line y2="-40.542" style="fill:none;stroke:#000000;stroke-width:0.3;" x1="41.666" y1="-40.542" x2="50.75"/>
  <line y2="-41.954" style="fill:none;stroke:#000000;stroke-width:0.3;" x1="42.812" y1="-40.73" x2="42.812"/>
  <line y2="-40.542" style="fill:none;stroke:#000000;stroke-width:0.3;" x1="23.666" y1="-40.542" x2="32.75"/>
  <line y2="-41.954" style="fill:none;stroke:#000000;stroke-width:0.3;" x1="24.812" y1="-40.73" x2="24.812"/>
  <line y2="-40.542" style="fill:none;stroke:#000000;stroke-width:0.3;" x1="14.625" y1="-40.542" x2="5.541"/>
  <line y2="-41.954" style="fill:none;stroke:#000000;stroke-width:0.3;" x1="6.688" y1="-40.73" x2="6.688"/>
  <line y2="-37.417" style="fill:none;stroke:#000000;stroke-width:0.3;" x1="5.125" y1="-37.417" x2="0"/>
  <line y2="-37.417" style="fill:none;stroke:#000000;stroke-width:0.3;" x1="23.125" y1="-37.417" x2="14.041"/>
  <line y2="-37.605" style="fill:none;stroke:#000000;stroke-width:0.3;" x1="15.188" y1="-38.829" x2="15.188"/>
  <line y2="-37.417" style="fill:none;stroke:#000000;stroke-width:0.3;" x1="31.916" y1="-37.417" x2="41"/>
  <line y2="-38.829" style="fill:none;stroke:#000000;stroke-width:0.3;" x1="33.062" y1="-37.605" x2="33.062"/>
  <line y2="-34.542" style="fill:none;stroke:#000000;stroke-width:0.3;" x1="50.75" y1="-34.542" x2="41.666"/>
  <line y2="-35.954" style="fill:none;stroke:#000000;stroke-width:0.3;" x1="42.812" y1="-34.73" x2="42.812"/>
  <line y2="-34.542" style="fill:none;stroke:#000000;stroke-width:0.3;" x1="23.791" y1="-34.542" x2="32.875"/>
  <line y2="-35.954" style="fill:none;stroke:#000000;stroke-width:0.3;" x1="24.938" y1="-34.73" x2="24.938"/>
  <line y2="-34.542" style="fill:none;stroke:#000000;stroke-width:0.3;" x1="15" y1="-34.542" x2="5.916"/>
  <line y2="-35.954" style="fill:none;stroke:#000000;stroke-width:0.3;" x1="7.062" y1="-34.73" x2="7.062"/>
  <line y2="-31.417" style="fill:none;stroke:#000000;stroke-width:0.3;" x1="0" y1="-31.417" x2="5"/>
  <line y2="-31.417" style="fill:none;stroke:#000000;stroke-width:0.3;" x1="13.791" y1="-31.417" x2="22.875"/>
  <line y2="-32.829" style="fill:none;stroke:#000000;stroke-width:0.3;" x1="14.938" y1="-31.605" x2="14.938"/>
  <line y2="-31.417" style="fill:none;stroke:#000000;stroke-width:0.3;" x1="31.791" y1="-31.417" x2="40.875"/>
  <line y2="-31.605" style="fill:none;stroke:#000000;stroke-width:0.3;" x1="32.938" y1="-32.829" x2="32.938"/>
  <line y2="-28.417" style="fill:none;stroke:#000000;stroke-width:0.3;" x1="39.791" y1="-28.417" x2="48.875"/>
  <line y2="-28.605" style="fill:none;stroke:#000000;stroke-width:0.3;" x1="40.938" y1="-29.829" x2="40.938"/>
  <line y2="-28.417" style="fill:none;stroke:#000000;stroke-width:0.3;" x1="30.875" y1="-28.417" x2="21.791"/>
  <line y2="-29.829" style="fill:none;stroke:#000000;stroke-width:0.3;" x1="22.938" y1="-28.605" x2="22.938"/>
  <line y2="-28.417" style="fill:none;stroke:#000000;stroke-width:0.3;" x1="12.625" y1="-28.417" x2="3.541"/>
  <line y2="-29.829" style="fill:none;stroke:#000000;stroke-width:0.3;" x1="4.688" y1="-28.605" x2="4.688"/>
  <line y2="-25.292" style="fill:none;stroke:#000000;stroke-width:0.3;" x1="3" y1="-25.292" x2="0"/>
  <line y2="-25.292" style="fill:none;stroke:#000000;stroke-width:0.3;" x1="20.875" y1="-25.292" x2="11.791"/>
  <line y2="-25.48" style="fill:none;stroke:#000000;stroke-width:0.3;" x1="12.938" y1="-26.704" x2="12.938"/>
  <line y2="-25.292" style="fill:none;stroke:#000000;stroke-width:0.3;" x1="29.916" y1="-25.292" x2="39"/>
  <line y2="-25.48" style="fill:none;stroke:#000000;stroke-width:0.3;" x1="31.062" y1="-26.704" x2="31.062"/>
  <line y2="-22.417" style="fill:none;stroke:#000000;stroke-width:0.3;" x1="46.75" y1="-22.417" x2="37.666"/>
  <line y2="-22.605" style="fill:none;stroke:#000000;stroke-width:0.3;" x1="38.812" y1="-23.829" x2="38.812"/>
  <line y2="-22.417" style="fill:none;stroke:#000000;stroke-width:0.3;" x1="28.75" y1="-22.417" x2="19.666"/>
  <line y2="-23.829" style="fill:none;stroke:#000000;stroke-width:0.3;" x1="20.812" y1="-22.605" x2="20.812"/>
  <line y2="-22.417" style="fill:none;stroke:#000000;stroke-width:0.3;" x1="10.875" y1="-22.417" x2="1.791"/>
  <line y2="-23.829" style="fill:none;stroke:#000000;stroke-width:0.3;" x1="2.938" y1="-22.605" x2="2.938"/>
  <line y2="-19.292" style="fill:none;stroke:#000000;stroke-width:0.3;" x1="0" y1="-19.292" x2="2.625"/>
  <line y2="-19.292" style="fill:none;stroke:#000000;stroke-width:0.3;" x1="20.625" y1="-19.292" x2="11.541"/>
  <line y2="-20.704" style="fill:none;stroke:#000000;stroke-width:0.3;" x1="12.688" y1="-19.48" x2="12.688"/>
  <line y2="-19.292" style="fill:none;stroke:#000000;stroke-width:0.3;" x1="29.541" y1="-19.292" x2="38.625"/>
  <line y2="-19.48" style="fill:none;stroke:#000000;stroke-width:0.3;" x1="30.688" y1="-20.704" x2="30.688"/>
  <line y2="-16.292" style="fill:none;stroke:#000000;stroke-width:0.3;" x1="39.791" y1="-16.292" x2="48.875"/>
  <line y2="-16.48" style="fill:none;stroke:#000000;stroke-width:0.3;" x1="40.938" y1="-17.704" x2="40.938"/>
  <line y2="-16.292" style="fill:none;stroke:#000000;stroke-width:0.3;" x1="21.791" y1="-16.292" x2="30.875"/>
  <line y2="-16.48" style="fill:none;stroke:#000000;stroke-width:0.3;" x1="22.938" y1="-17.704" x2="22.938"/>
  <line y2="-16.292" style="fill:none;stroke:#000000;stroke-width:0.3;" x1="12.875" y1="-16.292" x2="3.791"/>
  <line y2="-17.704" style="fill:none;stroke:#000000;stroke-width:0.3;" x1="4.938" y1="-16.48" x2="4.938"/>
  <line y2="-13.292" style="fill:none;stroke:#000000;stroke-width:0.3;" x1="5.125" y1="-13.292" x2="0"/>
  <line y2="-13.292" style="fill:none;stroke:#000000;stroke-width:0.3;" x1="13.916" y1="-13.292" x2="23"/>
  <line y2="-14.704" style="fill:none;stroke:#000000;stroke-width:0.3;" x1="15.062" y1="-13.48" x2="15.062"/>
  <line y2="-13.292" style="fill:none;stroke:#000000;stroke-width:0.3;" x1="31.791" y1="-13.292" x2="40.875"/>
  <line y2="-13.48" style="fill:none;stroke:#000000;stroke-width:0.3;" x1="32.938" y1="-14.704" x2="32.938"/>
  <line y2="-10.417" style="fill:none;stroke:#000000;stroke-width:0.3;" x1="41.666" y1="-10.417" x2="50.75"/>
  <line y2="-10.605" style="fill:none;stroke:#000000;stroke-width:0.3;" x1="42.812" y1="-11.829" x2="42.812"/>
  <line y2="-10.417" style="fill:none;stroke:#000000;stroke-width:0.3;" x1="33" y1="-10.417" x2="23.916"/>
  <line y2="-11.829" style="fill:none;stroke:#000000;stroke-width:0.3;" x1="25.062" y1="-10.605" x2="25.062"/>
  <line y2="-10.417" style="fill:none;stroke:#000000;stroke-width:0.3;" x1="15" y1="-10.417" x2="5.916"/>
  <line y2="-11.829" style="fill:none;stroke:#000000;stroke-width:0.3;" x1="7.062" y1="-10.605" x2="7.062"/>
  <line y2="-7.167" style="fill:none;stroke:#000000;stroke-width:0.3;" x1="6.5" y1="-7.167" x2="0"/>
  <line y2="-7.167" style="fill:none;stroke:#000000;stroke-width:0.3;" x1="15.541" y1="-7.167" x2="24.625"/>
  <line y2="-7.355" style="fill:none;stroke:#000000;stroke-width:0.3;" x1="16.688" y1="-8.579" x2="16.688"/>
  <line y2="-7.167" style="fill:none;stroke:#000000;stroke-width:0.3;" x1="33.666" y1="-7.167" x2="42.75"/>
  <line y2="-7.355" style="fill:none;stroke:#000000;stroke-width:0.3;" x1="34.812" y1="-8.579" x2="34.812"/>
  <line y2="-4.292" style="fill:none;stroke:#000000;stroke-width:0.3;" x1="50.75" y1="-4.292" x2="41.666"/>
  <line y2="-4.48" style="fill:none;stroke:#000000;stroke-width:0.3;" x1="42.812" y1="-5.704" x2="42.812"/>
  <line y2="-4.292" style="fill:none;stroke:#000000;stroke-width:0.3;" x1="33" y1="-4.292" x2="23.916"/>
  <line y2="-4.48" style="fill:none;stroke:#000000;stroke-width:0.3;" x1="25.062" y1="-5.704" x2="25.062"/>
  <line y2="-4.292" style="fill:none;stroke:#000000;stroke-width:0.3;" x1="14.875" y1="-4.292" x2="5.791"/>
  <line y2="-4.48" style="fill:none;stroke:#000000;stroke-width:0.3;" x1="6.938" y1="-5.704" x2="6.938"/>
  <line y2="-1.167" style="fill:none;stroke:#000000;stroke-width:0.3;" x1="0" y1="-1.167" x2="5.125"/>
  <line y2="-1.167" style="fill:none;stroke:#000000;stroke-width:0.3;" x1="22.875" y1="-1.167" x2="13.791"/>
  <line y2="-1.355" style="fill:none;stroke:#000000;stroke-width:0.3;" x1="14.938" y1="-2.579" x2="14.938"/>
  <line y2="-1.167" style="fill:none;stroke:#000000;stroke-width:0.3;" x1="40.75" y1="-1.167" x2="31.666"/>
  <line y2="-2.579" style="fill:none;stroke:#000000;stroke-width:0.3;" x1="32.812" y1="-1.355" x2="32.812"/>
  <line y2="-49.417" style="fill:none;stroke:#000000;stroke-width:0.3;" x1="51.958" y1="-49.417" x2="54.125"/>
  <line y2="-50.829" style="fill:none;stroke:#000000;stroke-width:0.3;" x1="53.104" y1="-49.605" x2="53.104"/>
  <line y2="-43.542" style="fill:none;stroke:#000000;stroke-width:0.3;" x1="54.125" y1="-43.542" x2="51.958"/>
  <line y2="-43.73" style="fill:none;stroke:#000000;stroke-width:0.3;" x1="53.104" y1="-44.954" x2="53.104"/>
  <line y2="-37.417" style="fill:none;stroke:#000000;stroke-width:0.3;" x1="50.208" y1="-37.417" x2="54.125"/>
  <line y2="-37.605" style="fill:none;stroke:#000000;stroke-width:0.3;" x1="51.354" y1="-38.829" x2="51.354"/>
  <line y2="-31.417" style="fill:none;stroke:#000000;stroke-width:0.3;" x1="54.125" y1="-31.417" x2="50.083"/>
  <line y2="-32.829" style="fill:none;stroke:#000000;stroke-width:0.3;" x1="51.229" y1="-31.605" x2="51.229"/>
  <line y2="-25.292" style="fill:none;stroke:#000000;stroke-width:0.3;" x1="54.125" y1="-25.292" x2="48.083"/>
  <line y2="-25.48" style="fill:none;stroke:#000000;stroke-width:0.3;" x1="49.229" y1="-26.704" x2="49.229"/>
  <line y2="-19.292" style="fill:none;stroke:#000000;stroke-width:0.3;" x1="54.125" y1="-19.292" x2="47.708"/>
  <line y2="-19.48" style="fill:none;stroke:#000000;stroke-width:0.3;" x1="48.854" y1="-20.704" x2="48.854"/>
  <line y2="-13.292" style="fill:none;stroke:#000000;stroke-width:0.3;" x1="50.208" y1="-13.292" x2="54.125"/>
  <line y2="-13.48" style="fill:none;stroke:#000000;stroke-width:0.3;" x1="51.354" y1="-14.704" x2="51.354"/>
  <line y2="-7.167" style="fill:none;stroke:#000000;stroke-width:0.3;" x1="54.125" y1="-7.167" x2="51.583"/>
  <line y2="-7.355" style="fill:none;stroke:#000000;stroke-width:0.3;" x1="52.729" y1="-8.579" x2="52.729"/>
  <line y2="-1.167" style="fill:none;stroke:#000000;stroke-width:0.3;" x1="50.208" y1="-1.167" x2="54.125"/>
  <line y2="-1.355" style="fill:none;stroke:#000000;stroke-width:0.3;" x1="51.354" y1="-2.579" x2="51.354"/>
  <line y2="-49.402" style="fill:none;stroke:#000000;stroke-width:0.7;stroke-linecap:round;" x1="11.298" y1="-49.402" x2="11.298"/>
  <line y2="-49.402" style="fill:none;stroke:#000000;stroke-width:0.7;stroke-linecap:round;" x1="13.578" y1="-49.402" x2="13.578"/>
  <line y2="-49.402" style="fill:none;stroke:#000000;stroke-width:0.7;stroke-linecap:round;" x1="8.911" y1="-49.402" x2="8.911"/>
  <line y2="-49.402" style="fill:none;stroke:#000000;stroke-width:0.7;stroke-linecap:round;" x1="29.302" y1="-49.402" x2="29.302"/>
  <line y2="-49.402" style="fill:none;stroke:#000000;stroke-width:0.7;stroke-linecap:round;" x1="31.581" y1="-49.402" x2="31.581"/>
  <line y2="-49.402" style="fill:none;stroke:#000000;stroke-width:0.7;stroke-linecap:round;" x1="26.915" y1="-49.402" x2="26.915"/>
  <line y2="-49.402" style="fill:none;stroke:#000000;stroke-width:0.7;stroke-linecap:round;" x1="47.385" y1="-49.402" x2="47.385"/>
  <line y2="-49.402" style="fill:none;stroke:#000000;stroke-width:0.7;stroke-linecap:round;" x1="49.665" y1="-49.402" x2="49.665"/>
  <line y2="-49.402" style="fill:none;stroke:#000000;stroke-width:0.7;stroke-linecap:round;" x1="44.998" y1="-49.402" x2="44.998"/>
  <line y2="-46.402" style="fill:none;stroke:#000000;stroke-width:0.7;stroke-linecap:round;" x1="39.468" y1="-46.402" x2="39.468"/>
  <line y2="-46.402" style="fill:none;stroke:#000000;stroke-width:0.7;stroke-linecap:round;" x1="41.748" y1="-46.402" x2="41.748"/>
  <line y2="-46.402" style="fill:none;stroke:#000000;stroke-width:0.7;stroke-linecap:round;" x1="37.081" y1="-46.402" x2="37.081"/>
  <line y2="-46.402" style="fill:none;stroke:#000000;stroke-width:0.7;stroke-linecap:round;" x1="21.468" y1="-46.402" x2="21.468"/>
  <line y2="-46.402" style="fill:none;stroke:#000000;stroke-width:0.7;stroke-linecap:round;" x1="23.748" y1="-46.402" x2="23.748"/>
  <line y2="-46.402" style="fill:none;stroke:#000000;stroke-width:0.7;stroke-linecap:round;" x1="19.081" y1="-46.402" x2="19.081"/>
  <line y2="-46.402" style="fill:none;stroke:#000000;stroke-width:0.7;stroke-linecap:round;" x1="3.508" y1="-46.402" x2="3.508"/>
  <line y2="-46.402" style="fill:none;stroke:#000000;stroke-width:0.7;stroke-linecap:round;" x1="5.788" y1="-46.402" x2="5.788"/>
  <line y2="-46.402" style="fill:none;stroke:#000000;stroke-width:0.7;stroke-linecap:round;" x1="1.121" y1="-46.402" x2="1.121"/>
  <line y2="-52.446" style="fill:none;stroke:#000000;stroke-width:0.7;stroke-linecap:round;" x1="19.135" y1="-52.446" x2="19.135"/>
  <line y2="-52.446" style="fill:none;stroke:#000000;stroke-width:0.7;stroke-linecap:round;" x1="21.415" y1="-52.446" x2="21.415"/>
  <line y2="-52.446" style="fill:none;stroke:#000000;stroke-width:0.7;stroke-linecap:round;" x1="16.748" y1="-52.446" x2="16.748"/>
  <line y2="-52.446" style="fill:none;stroke:#000000;stroke-width:0.7;stroke-linecap:round;" x1="1.258" y1="-52.446" x2="1.258"/>
  <line y2="-52.446" style="fill:none;stroke:#000000;stroke-width:0.7;stroke-linecap:round;" x1="3.538" y1="-52.446" x2="3.538"/>
  <line y2="-52.446" style="fill:none;stroke:#000000;stroke-width:0.7;stroke-linecap:round;" x1="37.385" y1="-52.446" x2="37.385"/>
  <line y2="-52.446" style="fill:none;stroke:#000000;stroke-width:0.7;stroke-linecap:round;" x1="39.665" y1="-52.446" x2="39.665"/>
  <line y2="-52.446" style="fill:none;stroke:#000000;stroke-width:0.7;stroke-linecap:round;" x1="34.998" y1="-52.446" x2="34.998"/>
  <line y2="-52.446" style="fill:none;stroke:#000000;stroke-width:0.7;stroke-linecap:round;" x1="52.788" y1="-52.446" x2="52.788"/>
  <line y2="-43.502" style="fill:none;stroke:#000000;stroke-width:0.7;stroke-linecap:round;" x1="29.161" y1="-43.502" x2="29.161"/>
  <line y2="-43.502" style="fill:none;stroke:#000000;stroke-width:0.7;stroke-linecap:round;" x1="31.441" y1="-43.502" x2="31.441"/>
  <line y2="-43.502" style="fill:none;stroke:#000000;stroke-width:0.7;stroke-linecap:round;" x1="26.775" y1="-43.502" x2="26.775"/>
  <line y2="-43.502" style="fill:none;stroke:#000000;stroke-width:0.7;stroke-linecap:round;" x1="11.285" y1="-43.502" x2="11.285"/>
  <line y2="-43.502" style="fill:none;stroke:#000000;stroke-width:0.7;stroke-linecap:round;" x1="13.564" y1="-43.502" x2="13.564"/>
  <line y2="-43.502" style="fill:none;stroke:#000000;stroke-width:0.7;stroke-linecap:round;" x1="8.898" y1="-43.502" x2="8.898"/>
  <line y2="-43.502" style="fill:none;stroke:#000000;stroke-width:0.7;stroke-linecap:round;" x1="47.411" y1="-43.502" x2="47.411"/>
  <line y2="-43.502" style="fill:none;stroke:#000000;stroke-width:0.7;stroke-linecap:round;" x1="49.691" y1="-43.502" x2="49.691"/>
  <line y2="-43.502" style="fill:none;stroke:#000000;stroke-width:0.7;stroke-linecap:round;" x1="45.024" y1="-43.502" x2="45.024"/>
  <line y2="-40.506" style="fill:none;stroke:#000000;stroke-width:0.7;stroke-linecap:round;" x1="19.01" y1="-40.506" x2="19.01"/>
  <line y2="-40.506" style="fill:none;stroke:#000000;stroke-width:0.7;stroke-linecap:round;" x1="21.29" y1="-40.506" x2="21.29"/>
  <line y2="-40.506" style="fill:none;stroke:#000000;stroke-width:0.7;stroke-linecap:round;" x1="16.623" y1="-40.506" x2="16.623"/>
  <line y2="-40.506" style="fill:none;stroke:#000000;stroke-width:0.7;stroke-linecap:round;" x1="1.133" y1="-40.506" x2="1.133"/>
  <line y2="-40.506" style="fill:none;stroke:#000000;stroke-width:0.7;stroke-linecap:round;" x1="3.413" y1="-40.506" x2="3.413"/>
  <line y2="-40.506" style="fill:none;stroke:#000000;stroke-width:0.7;stroke-linecap:round;" x1="37.26" y1="-40.506" x2="37.26"/>
  <line y2="-40.506" style="fill:none;stroke:#000000;stroke-width:0.7;stroke-linecap:round;" x1="39.54" y1="-40.506" x2="39.54"/>
  <line y2="-40.506" style="fill:none;stroke:#000000;stroke-width:0.7;stroke-linecap:round;" x1="34.873" y1="-40.506" x2="34.873"/>
  <line y2="-40.506" style="fill:none;stroke:#000000;stroke-width:0.7;stroke-linecap:round;" x1="52.663" y1="-40.506" x2="52.663"/>
  <line y2="-37.381" style="fill:none;stroke:#000000;stroke-width:0.7;stroke-linecap:round;" x1="27.447" y1="-37.381" x2="27.447"/>
  <line y2="-37.381" style="fill:none;stroke:#000000;stroke-width:0.7;stroke-linecap:round;" x1="29.728" y1="-37.381" x2="29.728"/>
  <line y2="-37.381" style="fill:none;stroke:#000000;stroke-width:0.7;stroke-linecap:round;" x1="25.061" y1="-37.381" x2="25.061"/>
  <line y2="-37.381" style="fill:none;stroke:#000000;stroke-width:0.7;stroke-linecap:round;" x1="9.57" y1="-37.381" x2="9.57"/>
  <line y2="-37.381" style="fill:none;stroke:#000000;stroke-width:0.7;stroke-linecap:round;" x1="11.851" y1="-37.381" x2="11.851"/>
  <line y2="-37.381" style="fill:none;stroke:#000000;stroke-width:0.7;stroke-linecap:round;" x1="7.184" y1="-37.381" x2="7.184"/>
  <line y2="-37.381" style="fill:none;stroke:#000000;stroke-width:0.7;stroke-linecap:round;" x1="45.697" y1="-37.381" x2="45.697"/>
  <line y2="-37.381" style="fill:none;stroke:#000000;stroke-width:0.7;stroke-linecap:round;" x1="47.978" y1="-37.381" x2="47.978"/>
  <line y2="-37.381" style="fill:none;stroke:#000000;stroke-width:0.7;stroke-linecap:round;" x1="43.311" y1="-37.381" x2="43.311"/>
  <line y2="-34.506" style="fill:none;stroke:#000000;stroke-width:0.7;stroke-linecap:round;" x1="18.885" y1="-34.506" x2="18.885"/>
  <line y2="-34.506" style="fill:none;stroke:#000000;stroke-width:0.7;stroke-linecap:round;" x1="21.165" y1="-34.506" x2="21.165"/>
  <line y2="-34.506" style="fill:none;stroke:#000000;stroke-width:0.7;stroke-linecap:round;" x1="16.498" y1="-34.506" x2="16.498"/>
  <line y2="-34.506" style="fill:none;stroke:#000000;stroke-width:0.7;stroke-linecap:round;" x1="1.008" y1="-34.506" x2="1.008"/>
  <line y2="-34.506" style="fill:none;stroke:#000000;stroke-width:0.7;stroke-linecap:round;" x1="3.288" y1="-34.506" x2="3.288"/>
  <line y2="-34.506" style="fill:none;stroke:#000000;stroke-width:0.7;stroke-linecap:round;" x1="37.135" y1="-34.506" x2="37.135"/>
  <line y2="-34.506" style="fill:none;stroke:#000000;stroke-width:0.7;stroke-linecap:round;" x1="39.415" y1="-34.506" x2="39.415"/>
  <line y2="-34.506" style="fill:none;stroke:#000000;stroke-width:0.7;stroke-linecap:round;" x1="34.748" y1="-34.506" x2="34.748"/>
  <line y2="-34.506" style="fill:none;stroke:#000000;stroke-width:0.7;stroke-linecap:round;" x1="52.538" y1="-34.506" x2="52.538"/>
  <line y2="-31.444" style="fill:none;stroke:#000000;stroke-width:0.7;stroke-linecap:round;" x1="27.322" y1="-31.444" x2="27.322"/>
  <line y2="-31.444" style="fill:none;stroke:#000000;stroke-width:0.7;stroke-linecap:round;" x1="29.603" y1="-31.444" x2="29.603"/>
  <line y2="-31.444" style="fill:none;stroke:#000000;stroke-width:0.7;stroke-linecap:round;" x1="24.936" y1="-31.444" x2="24.936"/>
  <line y2="-31.444" style="fill:none;stroke:#000000;stroke-width:0.7;stroke-linecap:round;" x1="9.445" y1="-31.444" x2="9.445"/>
  <line y2="-31.444" style="fill:none;stroke:#000000;stroke-width:0.7;stroke-linecap:round;" x1="11.726" y1="-31.444" x2="11.726"/>
  <line y2="-31.444" style="fill:none;stroke:#000000;stroke-width:0.7;stroke-linecap:round;" x1="7.059" y1="-31.444" x2="7.059"/>
  <line y2="-31.444" style="fill:none;stroke:#000000;stroke-width:0.7;stroke-linecap:round;" x1="45.572" y1="-31.444" x2="45.572"/>
  <line y2="-31.444" style="fill:none;stroke:#000000;stroke-width:0.7;stroke-linecap:round;" x1="47.853" y1="-31.444" x2="47.853"/>
  <line y2="-31.444" style="fill:none;stroke:#000000;stroke-width:0.7;stroke-linecap:round;" x1="43.186" y1="-31.444" x2="43.186"/>
  <line y2="-28.444" style="fill:none;stroke:#000000;stroke-width:0.7;stroke-linecap:round;" x1="17.072" y1="-28.444" x2="17.072"/>
  <line y2="-28.444" style="fill:none;stroke:#000000;stroke-width:0.7;stroke-linecap:round;" x1="19.353" y1="-28.444" x2="19.353"/>
  <line y2="-28.444" style="fill:none;stroke:#000000;stroke-width:0.7;stroke-linecap:round;" x1="14.686" y1="-28.444" x2="14.686"/>
  <line y2="-28.444" style="fill:none;stroke:#000000;stroke-width:0.7;stroke-linecap:round;" x1="1.476" y1="-28.444" x2="1.476"/>
  <line y2="-28.444" style="fill:none;stroke:#000000;stroke-width:0.7;stroke-linecap:round;" x1="35.322" y1="-28.444" x2="35.322"/>
  <line y2="-28.444" style="fill:none;stroke:#000000;stroke-width:0.7;stroke-linecap:round;" x1="37.603" y1="-28.444" x2="37.603"/>
  <line y2="-28.444" style="fill:none;stroke:#000000;stroke-width:0.7;stroke-linecap:round;" x1="32.936" y1="-28.444" x2="32.936"/>
  <line y2="-28.444" style="fill:none;stroke:#000000;stroke-width:0.7;stroke-linecap:round;" x1="53.112" y1="-28.444" x2="53.112"/>
  <line y2="-28.444" style="fill:none;stroke:#000000;stroke-width:0.7;stroke-linecap:round;" x1="50.726" y1="-28.444" x2="50.726"/>
  <line y2="-25.319" style="fill:none;stroke:#000000;stroke-width:0.7;stroke-linecap:round;" x1="25.26" y1="-25.319" x2="25.26"/>
  <line y2="-25.319" style="fill:none;stroke:#000000;stroke-width:0.7;stroke-linecap:round;" x1="27.54" y1="-25.319" x2="27.54"/>
  <line y2="-25.319" style="fill:none;stroke:#000000;stroke-width:0.7;stroke-linecap:round;" x1="22.873" y1="-25.319" x2="22.873"/>
  <line y2="-25.319" style="fill:none;stroke:#000000;stroke-width:0.7;stroke-linecap:round;" x1="7.383" y1="-25.319" x2="7.383"/>
  <line y2="-25.319" style="fill:none;stroke:#000000;stroke-width:0.7;stroke-linecap:round;" x1="9.663" y1="-25.319" x2="9.663"/>
  <line y2="-25.319" style="fill:none;stroke:#000000;stroke-width:0.7;stroke-linecap:round;" x1="4.996" y1="-25.319" x2="4.996"/>
  <line y2="-25.319" style="fill:none;stroke:#000000;stroke-width:0.7;stroke-linecap:round;" x1="43.51" y1="-25.319" x2="43.51"/>
  <line y2="-25.319" style="fill:none;stroke:#000000;stroke-width:0.7;stroke-linecap:round;" x1="45.79" y1="-25.319" x2="45.79"/>
  <line y2="-25.319" style="fill:none;stroke:#000000;stroke-width:0.7;stroke-linecap:round;" x1="41.123" y1="-25.319" x2="41.123"/>
  <line y2="-22.381" style="fill:none;stroke:#000000;stroke-width:0.7;stroke-linecap:round;" x1="14.947" y1="-22.381" x2="14.947"/>
  <line y2="-22.381" style="fill:none;stroke:#000000;stroke-width:0.7;stroke-linecap:round;" x1="17.228" y1="-22.381" x2="17.228"/>
  <line y2="-22.381" style="fill:none;stroke:#000000;stroke-width:0.7;stroke-linecap:round;" x1="12.561" y1="-22.381" x2="12.561"/>
  <line y2="-22.381" style="fill:none;stroke:#000000;stroke-width:0.7;stroke-linecap:round;" x1="33.197" y1="-22.381" x2="33.197"/>
  <line y2="-22.381" style="fill:none;stroke:#000000;stroke-width:0.7;stroke-linecap:round;" x1="35.478" y1="-22.381" x2="35.478"/>
  <line y2="-22.381" style="fill:none;stroke:#000000;stroke-width:0.7;stroke-linecap:round;" x1="30.811" y1="-22.381" x2="30.811"/>
  <line y2="-22.381" style="fill:none;stroke:#000000;stroke-width:0.7;stroke-linecap:round;" x1="50.987" y1="-22.381" x2="50.987"/>
  <line y2="-22.381" style="fill:none;stroke:#000000;stroke-width:0.7;stroke-linecap:round;" x1="53.268" y1="-22.381" x2="53.268"/>
  <line y2="-22.381" style="fill:none;stroke:#000000;stroke-width:0.7;stroke-linecap:round;" x1="48.601" y1="-22.381" x2="48.601"/>
  <line y2="-19.256" style="fill:none;stroke:#000000;stroke-width:0.7;stroke-linecap:round;" x1="24.947" y1="-19.256" x2="24.947"/>
  <line y2="-19.256" style="fill:none;stroke:#000000;stroke-width:0.7;stroke-linecap:round;" x1="27.228" y1="-19.256" x2="27.228"/>
  <line y2="-19.256" style="fill:none;stroke:#000000;stroke-width:0.7;stroke-linecap:round;" x1="22.561" y1="-19.256" x2="22.561"/>
  <line y2="-19.256" style="fill:none;stroke:#000000;stroke-width:0.7;stroke-linecap:round;" x1="7.07" y1="-19.256" x2="7.07"/>
  <line y2="-19.256" style="fill:none;stroke:#000000;stroke-width:0.7;stroke-linecap:round;" x1="9.351" y1="-19.256" x2="9.351"/>
  <line y2="-19.256" style="fill:none;stroke:#000000;stroke-width:0.7;stroke-linecap:round;" x1="4.684" y1="-19.256" x2="4.684"/>
  <line y2="-19.256" style="fill:none;stroke:#000000;stroke-width:0.7;stroke-linecap:round;" x1="43.197" y1="-19.256" x2="43.197"/>
  <line y2="-19.256" style="fill:none;stroke:#000000;stroke-width:0.7;stroke-linecap:round;" x1="45.478" y1="-19.256" x2="45.478"/>
  <line y2="-19.256" style="fill:none;stroke:#000000;stroke-width:0.7;stroke-linecap:round;" x1="40.811" y1="-19.256" x2="40.811"/>
  <line y2="-16.256" style="fill:none;stroke:#000000;stroke-width:0.7;stroke-linecap:round;" x1="17.135" y1="-16.256" x2="17.135"/>
  <line y2="-16.256" style="fill:none;stroke:#000000;stroke-width:0.7;stroke-linecap:round;" x1="19.415" y1="-16.256" x2="19.415"/>
  <line y2="-16.256" style="fill:none;stroke:#000000;stroke-width:0.7;stroke-linecap:round;" x1="14.748" y1="-16.256" x2="14.748"/>
  <line y2="-16.256" style="fill:none;stroke:#000000;stroke-width:0.7;stroke-linecap:round;" x1="1.538" y1="-16.256" x2="1.538"/>
  <line y2="-16.256" style="fill:none;stroke:#000000;stroke-width:0.7;stroke-linecap:round;" x1="35.385" y1="-16.256" x2="35.385"/>
  <line y2="-16.256" style="fill:none;stroke:#000000;stroke-width:0.7;stroke-linecap:round;" x1="37.665" y1="-16.256" x2="37.665"/>
  <line y2="-16.256" style="fill:none;stroke:#000000;stroke-width:0.7;stroke-linecap:round;" x1="32.998" y1="-16.256" x2="32.998"/>
  <line y2="-16.256" style="fill:none;stroke:#000000;stroke-width:0.7;stroke-linecap:round;" x1="53.175" y1="-16.256" x2="53.175"/>
  <line y2="-16.256" style="fill:none;stroke:#000000;stroke-width:0.7;stroke-linecap:round;" x1="50.788" y1="-16.256" x2="50.788"/>
  <line y2="-13.256" style="fill:none;stroke:#000000;stroke-width:0.7;stroke-linecap:round;" x1="27.322" y1="-13.256" x2="27.322"/>
  <line y2="-13.256" style="fill:none;stroke:#000000;stroke-width:0.7;stroke-linecap:round;" x1="29.603" y1="-13.256" x2="29.603"/>
  <line y2="-13.256" style="fill:none;stroke:#000000;stroke-width:0.7;stroke-linecap:round;" x1="24.936" y1="-13.256" x2="24.936"/>
  <line y2="-13.256" style="fill:none;stroke:#000000;stroke-width:0.7;stroke-linecap:round;" x1="9.445" y1="-13.256" x2="9.445"/>
  <line y2="-13.256" style="fill:none;stroke:#000000;stroke-width:0.7;stroke-linecap:round;" x1="11.726" y1="-13.256" x2="11.726"/>
  <line y2="-13.256" style="fill:none;stroke:#000000;stroke-width:0.7;stroke-linecap:round;" x1="7.059" y1="-13.256" x2="7.059"/>
  <line y2="-13.256" style="fill:none;stroke:#000000;stroke-width:0.7;stroke-linecap:round;" x1="45.572" y1="-13.256" x2="45.572"/>
  <line y2="-13.256" style="fill:none;stroke:#000000;stroke-width:0.7;stroke-linecap:round;" x1="47.853" y1="-13.256" x2="47.853"/>
  <line y2="-13.256" style="fill:none;stroke:#000000;stroke-width:0.7;stroke-linecap:round;" x1="43.186" y1="-13.256" x2="43.186"/>
  <line y2="-10.444" style="fill:none;stroke:#000000;stroke-width:0.7;stroke-linecap:round;" x1="19.135" y1="-10.444" x2="19.135"/>
  <line y2="-10.444" style="fill:none;stroke:#000000;stroke-width:0.7;stroke-linecap:round;" x1="21.415" y1="-10.444" x2="21.415"/>
  <line y2="-10.444" style="fill:none;stroke:#000000;stroke-width:0.7;stroke-linecap:round;" x1="16.748" y1="-10.444" x2="16.748"/>
  <line y2="-10.444" style="fill:none;stroke:#000000;stroke-width:0.7;stroke-linecap:round;" x1="1.258" y1="-10.444" x2="1.258"/>
  <line y2="-10.444" style="fill:none;stroke:#000000;stroke-width:0.7;stroke-linecap:round;" x1="3.538" y1="-10.444" x2="3.538"/>
  <line y2="-10.444" style="fill:none;stroke:#000000;stroke-width:0.7;stroke-linecap:round;" x1="37.385" y1="-10.444" x2="37.385"/>
  <line y2="-10.444" style="fill:none;stroke:#000000;stroke-width:0.7;stroke-linecap:round;" x1="39.665" y1="-10.444" x2="39.665"/>
  <line y2="-10.444" style="fill:none;stroke:#000000;stroke-width:0.7;stroke-linecap:round;" x1="34.998" y1="-10.444" x2="34.998"/>
  <line y2="-10.444" style="fill:none;stroke:#000000;stroke-width:0.7;stroke-linecap:round;" x1="52.788" y1="-10.444" x2="52.788"/>
  <line y2="-7.131" style="fill:none;stroke:#000000;stroke-width:0.7;stroke-linecap:round;" x1="29.01" y1="-7.131" x2="29.01"/>
  <line y2="-7.131" style="fill:none;stroke:#000000;stroke-width:0.7;stroke-linecap:round;" x1="31.29" y1="-7.131" x2="31.29"/>
  <line y2="-7.131" style="fill:none;stroke:#000000;stroke-width:0.7;stroke-linecap:round;" x1="26.623" y1="-7.131" x2="26.623"/>
  <line y2="-7.131" style="fill:none;stroke:#000000;stroke-width:0.7;stroke-linecap:round;" x1="11.133" y1="-7.131" x2="11.133"/>
  <line y2="-7.131" style="fill:none;stroke:#000000;stroke-width:0.7;stroke-linecap:round;" x1="13.413" y1="-7.131" x2="13.413"/>
  <line y2="-7.131" style="fill:none;stroke:#000000;stroke-width:0.7;stroke-linecap:round;" x1="8.746" y1="-7.131" x2="8.746"/>
  <line y2="-7.131" style="fill:none;stroke:#000000;stroke-width:0.7;stroke-linecap:round;" x1="47.26" y1="-7.131" x2="47.26"/>
  <line y2="-7.131" style="fill:none;stroke:#000000;stroke-width:0.7;stroke-linecap:round;" x1="49.54" y1="-7.131" x2="49.54"/>
  <line y2="-7.131" style="fill:none;stroke:#000000;stroke-width:0.7;stroke-linecap:round;" x1="44.873" y1="-7.131" x2="44.873"/>
  <line y2="-4.256" style="fill:none;stroke:#000000;stroke-width:0.7;stroke-linecap:round;" x1="19.197" y1="-4.256" x2="19.197"/>
  <line y2="-4.256" style="fill:none;stroke:#000000;stroke-width:0.7;stroke-linecap:round;" x1="21.478" y1="-4.256" x2="21.478"/>
  <line y2="-4.256" style="fill:none;stroke:#000000;stroke-width:0.7;stroke-linecap:round;" x1="16.811" y1="-4.256" x2="16.811"/>
  <line y2="-4.256" style="fill:none;stroke:#000000;stroke-width:0.7;stroke-linecap:round;" x1="1.32" y1="-4.256" x2="1.32"/>
  <line y2="-4.256" style="fill:none;stroke:#000000;stroke-width:0.7;stroke-linecap:round;" x1="3.601" y1="-4.256" x2="3.601"/>
  <line y2="-4.256" style="fill:none;stroke:#000000;stroke-width:0.7;stroke-linecap:round;" x1="37.447" y1="-4.256" x2="37.447"/>
  <line y2="-4.256" style="fill:none;stroke:#000000;stroke-width:0.7;stroke-linecap:round;" x1="39.728" y1="-4.256" x2="39.728"/>
  <line y2="-4.256" style="fill:none;stroke:#000000;stroke-width:0.7;stroke-linecap:round;" x1="35.061" y1="-4.256" x2="35.061"/>
  <line y2="-4.256" style="fill:none;stroke:#000000;stroke-width:0.7;stroke-linecap:round;" x1="52.851" y1="-4.256" x2="52.851"/>
  <line y2="-1.131" style="fill:none;stroke:#000000;stroke-width:0.7;stroke-linecap:round;" x1="27.385" y1="-1.131" x2="27.385"/>
  <line y2="-1.131" style="fill:none;stroke:#000000;stroke-width:0.7;stroke-linecap:round;" x1="29.665" y1="-1.131" x2="29.665"/>
  <line y2="-1.131" style="fill:none;stroke:#000000;stroke-width:0.7;stroke-linecap:round;" x1="24.998" y1="-1.131" x2="24.998"/>
  <line y2="-1.131" style="fill:none;stroke:#000000;stroke-width:0.7;stroke-linecap:round;" x1="9.508" y1="-1.131" x2="9.508"/>
  <line y2="-1.131" style="fill:none;stroke:#000000;stroke-width:0.7;stroke-linecap:round;" x1="11.788" y1="-1.131" x2="11.788"/>
  <line y2="-1.131" style="fill:none;stroke:#000000;stroke-width:0.7;stroke-linecap:round;" x1="7.121" y1="-1.131" x2="7.121"/>
  <line y2="-1.131" style="fill:none;stroke:#000000;stroke-width:0.7;stroke-linecap:round;" x1="45.635" y1="-1.131" x2="45.635"/>
  <line y2="-1.131" style="fill:none;stroke:#000000;stroke-width:0.7;stroke-linecap:round;" x1="47.915" y1="-1.131" x2="47.915"/>
  <line y2="-1.131" style="fill:none;stroke:#000000;stroke-width:0.7;stroke-linecap:round;" x1="43.248" y1="-1.131" x2="43.248"/>
 </g>
</svg>
