<?xml version="1.0"?>
<!-- Converted with SVG Converter - Version 0.9.5 (Compiled Fri Feb 21 09:53:38 2020) - Copyright (C) 2011 Nokia -->
<svg xmlns="http://www.w3.org/2000/svg" y="0px" height="54.125" baseProfile="tiny" viewBox="0 -54.125 54.125 54.125" width="54.125" x="0px" xmlns:xlink="http://www.w3.org/1999/xlink" xml:space="preserve" version="1.1">
 <g>
  <rect y="-54.125" height="54.125" style="fill:none;" width="54.125"/>
  <line x2="14.75" style="fill:none;stroke:#000000;stroke-width:0.3;" y1="-52.525" x1="5.666" y2="-52.525"/>
  <line x2="6.812" style="fill:none;stroke:#000000;stroke-width:0.3;" y1="-52.713" x1="6.812" y2="-53.937"/>
  <line x2="32.875" style="fill:none;stroke:#000000;stroke-width:0.3;" y1="-52.525" x1="23.791" y2="-52.525"/>
  <line x2="24.938" style="fill:none;stroke:#000000;stroke-width:0.3;" y1="-52.713" x1="24.938" y2="-53.937"/>
  <line x2="51" style="fill:none;stroke:#000000;stroke-width:0.3;" y1="-52.525" x1="41.916" y2="-52.525"/>
  <line x2="43.062" style="fill:none;stroke:#000000;stroke-width:0.3;" y1="-52.713" x1="43.062" y2="-53.937"/>
  <line x2="0" style="fill:none;stroke:#000000;stroke-width:0.3;" y1="-49.417" x1="6.875" y2="-49.417"/>
  <line x2="15.666" style="fill:none;stroke:#000000;stroke-width:0.3;" y1="-49.417" x1="24.75" y2="-49.417"/>
  <line x2="16.812" style="fill:none;stroke:#000000;stroke-width:0.3;" y1="-49.605" x1="16.812" y2="-50.829"/>
  <line x2="33.791" style="fill:none;stroke:#000000;stroke-width:0.3;" y1="-49.417" x1="42.875" y2="-49.417"/>
  <line x2="34.938" style="fill:none;stroke:#000000;stroke-width:0.3;" y1="-49.605" x1="34.938" y2="-50.829"/>
  <line x2="7.916" style="fill:none;stroke:#000000;stroke-width:0.3;" y1="-46.417" x1="17" y2="-46.417"/>
  <line x2="9.062" style="fill:none;stroke:#000000;stroke-width:0.3;" y1="-47.829" x1="9.062" y2="-46.605"/>
  <line x2="25.916" style="fill:none;stroke:#000000;stroke-width:0.3;" y1="-46.417" x1="35" y2="-46.417"/>
  <line x2="27.062" style="fill:none;stroke:#000000;stroke-width:0.3;" y1="-47.829" x1="27.062" y2="-46.605"/>
  <line x2="52.875" style="fill:none;stroke:#000000;stroke-width:0.3;" y1="-46.417" x1="43.791" y2="-46.417"/>
  <line x2="44.938" style="fill:none;stroke:#000000;stroke-width:0.3;" y1="-47.829" x1="44.938" y2="-46.605"/>
  <line x2="6.875" style="fill:none;stroke:#000000;stroke-width:0.3;" y1="-43.542" x1="0" y2="-43.542"/>
  <line x2="24.75" style="fill:none;stroke:#000000;stroke-width:0.3;" y1="-43.542" x1="15.666" y2="-43.542"/>
  <line x2="16.812" style="fill:none;stroke:#000000;stroke-width:0.3;" y1="-43.73" x1="16.812" y2="-44.954"/>
  <line x2="42.75" style="fill:none;stroke:#000000;stroke-width:0.3;" y1="-43.542" x1="33.666" y2="-43.542"/>
  <line x2="34.812" style="fill:none;stroke:#000000;stroke-width:0.3;" y1="-43.73" x1="34.812" y2="-44.954"/>
  <line x2="50.75" style="fill:none;stroke:#000000;stroke-width:0.3;" y1="-40.542" x1="41.666" y2="-40.542"/>
  <line x2="42.812" style="fill:none;stroke:#000000;stroke-width:0.3;" y1="-40.73" x1="42.812" y2="-41.954"/>
  <line x2="32.75" style="fill:none;stroke:#000000;stroke-width:0.3;" y1="-40.542" x1="23.666" y2="-40.542"/>
  <line x2="24.812" style="fill:none;stroke:#000000;stroke-width:0.3;" y1="-40.73" x1="24.812" y2="-41.954"/>
  <line x2="5.541" style="fill:none;stroke:#000000;stroke-width:0.3;" y1="-40.542" x1="14.625" y2="-40.542"/>
  <line x2="6.688" style="fill:none;stroke:#000000;stroke-width:0.3;" y1="-40.73" x1="6.688" y2="-41.954"/>
  <line x2="0" style="fill:none;stroke:#000000;stroke-width:0.3;" y1="-37.417" x1="5.125" y2="-37.417"/>
  <line x2="14.041" style="fill:none;stroke:#000000;stroke-width:0.3;" y1="-37.417" x1="23.125" y2="-37.417"/>
  <line x2="15.188" style="fill:none;stroke:#000000;stroke-width:0.3;" y1="-38.829" x1="15.188" y2="-37.605"/>
  <line x2="41" style="fill:none;stroke:#000000;stroke-width:0.3;" y1="-37.417" x1="31.916" y2="-37.417"/>
  <line x2="33.062" style="fill:none;stroke:#000000;stroke-width:0.3;" y1="-37.605" x1="33.062" y2="-38.829"/>
  <line x2="41.666" style="fill:none;stroke:#000000;stroke-width:0.3;" y1="-34.542" x1="50.75" y2="-34.542"/>
  <line x2="42.812" style="fill:none;stroke:#000000;stroke-width:0.3;" y1="-34.73" x1="42.812" y2="-35.954"/>
  <line x2="32.875" style="fill:none;stroke:#000000;stroke-width:0.3;" y1="-34.542" x1="23.791" y2="-34.542"/>
  <line x2="24.938" style="fill:none;stroke:#000000;stroke-width:0.3;" y1="-34.73" x1="24.938" y2="-35.954"/>
  <line x2="5.916" style="fill:none;stroke:#000000;stroke-width:0.3;" y1="-34.542" x1="15" y2="-34.542"/>
  <line x2="7.062" style="fill:none;stroke:#000000;stroke-width:0.3;" y1="-34.73" x1="7.062" y2="-35.954"/>
  <line x2="5" style="fill:none;stroke:#000000;stroke-width:0.3;" y1="-31.417" x1="0" y2="-31.417"/>
  <line x2="22.875" style="fill:none;stroke:#000000;stroke-width:0.3;" y1="-31.417" x1="13.791" y2="-31.417"/>
  <line x2="14.938" style="fill:none;stroke:#000000;stroke-width:0.3;" y1="-31.605" x1="14.938" y2="-32.829"/>
  <line x2="40.875" style="fill:none;stroke:#000000;stroke-width:0.3;" y1="-31.417" x1="31.791" y2="-31.417"/>
  <line x2="32.938" style="fill:none;stroke:#000000;stroke-width:0.3;" y1="-32.829" x1="32.938" y2="-31.605"/>
  <line x2="48.875" style="fill:none;stroke:#000000;stroke-width:0.3;" y1="-28.417" x1="39.791" y2="-28.417"/>
  <line x2="40.938" style="fill:none;stroke:#000000;stroke-width:0.3;" y1="-29.829" x1="40.938" y2="-28.605"/>
  <line x2="21.791" style="fill:none;stroke:#000000;stroke-width:0.3;" y1="-28.417" x1="30.875" y2="-28.417"/>
  <line x2="22.938" style="fill:none;stroke:#000000;stroke-width:0.3;" y1="-28.605" x1="22.938" y2="-29.829"/>
  <line x2="3.541" style="fill:none;stroke:#000000;stroke-width:0.3;" y1="-28.417" x1="12.625" y2="-28.417"/>
  <line x2="4.688" style="fill:none;stroke:#000000;stroke-width:0.3;" y1="-28.605" x1="4.688" y2="-29.829"/>
  <line x2="0" style="fill:none;stroke:#000000;stroke-width:0.3;" y1="-25.292" x1="3" y2="-25.292"/>
  <line x2="11.791" style="fill:none;stroke:#000000;stroke-width:0.3;" y1="-25.292" x1="20.875" y2="-25.292"/>
  <line x2="12.938" style="fill:none;stroke:#000000;stroke-width:0.3;" y1="-26.704" x1="12.938" y2="-25.48"/>
  <line x2="39" style="fill:none;stroke:#000000;stroke-width:0.3;" y1="-25.292" x1="29.916" y2="-25.292"/>
  <line x2="31.062" style="fill:none;stroke:#000000;stroke-width:0.3;" y1="-26.704" x1="31.062" y2="-25.48"/>
  <line x2="37.666" style="fill:none;stroke:#000000;stroke-width:0.3;" y1="-22.417" x1="46.75" y2="-22.417"/>
  <line x2="38.812" style="fill:none;stroke:#000000;stroke-width:0.3;" y1="-23.829" x1="38.812" y2="-22.605"/>
  <line x2="19.666" style="fill:none;stroke:#000000;stroke-width:0.3;" y1="-22.417" x1="28.75" y2="-22.417"/>
  <line x2="20.812" style="fill:none;stroke:#000000;stroke-width:0.3;" y1="-22.605" x1="20.812" y2="-23.829"/>
  <line x2="1.791" style="fill:none;stroke:#000000;stroke-width:0.3;" y1="-22.417" x1="10.875" y2="-22.417"/>
  <line x2="2.938" style="fill:none;stroke:#000000;stroke-width:0.3;" y1="-22.605" x1="2.938" y2="-23.829"/>
  <line x2="2.625" style="fill:none;stroke:#000000;stroke-width:0.3;" y1="-19.292" x1="0" y2="-19.292"/>
  <line x2="11.541" style="fill:none;stroke:#000000;stroke-width:0.3;" y1="-19.292" x1="20.625" y2="-19.292"/>
  <line x2="12.688" style="fill:none;stroke:#000000;stroke-width:0.3;" y1="-19.48" x1="12.688" y2="-20.704"/>
  <line x2="38.625" style="fill:none;stroke:#000000;stroke-width:0.3;" y1="-19.292" x1="29.541" y2="-19.292"/>
  <line x2="30.688" style="fill:none;stroke:#000000;stroke-width:0.3;" y1="-20.704" x1="30.688" y2="-19.48"/>
  <line x2="48.875" style="fill:none;stroke:#000000;stroke-width:0.3;" y1="-16.292" x1="39.791" y2="-16.292"/>
  <line x2="40.938" style="fill:none;stroke:#000000;stroke-width:0.3;" y1="-17.704" x1="40.938" y2="-16.48"/>
  <line x2="30.875" style="fill:none;stroke:#000000;stroke-width:0.3;" y1="-16.292" x1="21.791" y2="-16.292"/>
  <line x2="22.938" style="fill:none;stroke:#000000;stroke-width:0.3;" y1="-17.704" x1="22.938" y2="-16.48"/>
  <line x2="3.791" style="fill:none;stroke:#000000;stroke-width:0.3;" y1="-16.292" x1="12.875" y2="-16.292"/>
  <line x2="4.938" style="fill:none;stroke:#000000;stroke-width:0.3;" y1="-16.48" x1="4.938" y2="-17.704"/>
  <line x2="0" style="fill:none;stroke:#000000;stroke-width:0.3;" y1="-13.292" x1="5.125" y2="-13.292"/>
  <line x2="23" style="fill:none;stroke:#000000;stroke-width:0.3;" y1="-13.292" x1="13.916" y2="-13.292"/>
  <line x2="15.062" style="fill:none;stroke:#000000;stroke-width:0.3;" y1="-13.48" x1="15.062" y2="-14.704"/>
  <line x2="40.875" style="fill:none;stroke:#000000;stroke-width:0.3;" y1="-13.292" x1="31.791" y2="-13.292"/>
  <line x2="32.938" style="fill:none;stroke:#000000;stroke-width:0.3;" y1="-14.704" x1="32.938" y2="-13.48"/>
  <line x2="50.75" style="fill:none;stroke:#000000;stroke-width:0.3;" y1="-10.417" x1="41.666" y2="-10.417"/>
  <line x2="42.812" style="fill:none;stroke:#000000;stroke-width:0.3;" y1="-11.829" x1="42.812" y2="-10.605"/>
  <line x2="23.916" style="fill:none;stroke:#000000;stroke-width:0.3;" y1="-10.417" x1="33" y2="-10.417"/>
  <line x2="25.062" style="fill:none;stroke:#000000;stroke-width:0.3;" y1="-10.605" x1="25.062" y2="-11.829"/>
  <line x2="5.916" style="fill:none;stroke:#000000;stroke-width:0.3;" y1="-10.417" x1="15" y2="-10.417"/>
  <line x2="7.062" style="fill:none;stroke:#000000;stroke-width:0.3;" y1="-10.605" x1="7.062" y2="-11.829"/>
  <line x2="0" style="fill:none;stroke:#000000;stroke-width:0.3;" y1="-7.167" x1="6.5" y2="-7.167"/>
  <line x2="24.625" style="fill:none;stroke:#000000;stroke-width:0.3;" y1="-7.167" x1="15.541" y2="-7.167"/>
  <line x2="16.688" style="fill:none;stroke:#000000;stroke-width:0.3;" y1="-8.579" x1="16.688" y2="-7.355"/>
  <line x2="42.75" style="fill:none;stroke:#000000;stroke-width:0.3;" y1="-7.167" x1="33.666" y2="-7.167"/>
  <line x2="34.812" style="fill:none;stroke:#000000;stroke-width:0.3;" y1="-8.579" x1="34.812" y2="-7.355"/>
  <line x2="41.666" style="fill:none;stroke:#000000;stroke-width:0.3;" y1="-4.292" x1="50.75" y2="-4.292"/>
  <line x2="42.812" style="fill:none;stroke:#000000;stroke-width:0.3;" y1="-5.704" x1="42.812" y2="-4.48"/>
  <line x2="23.916" style="fill:none;stroke:#000000;stroke-width:0.3;" y1="-4.292" x1="33" y2="-4.292"/>
  <line x2="25.062" style="fill:none;stroke:#000000;stroke-width:0.3;" y1="-5.704" x1="25.062" y2="-4.48"/>
  <line x2="5.791" style="fill:none;stroke:#000000;stroke-width:0.3;" y1="-4.292" x1="14.875" y2="-4.292"/>
  <line x2="6.938" style="fill:none;stroke:#000000;stroke-width:0.3;" y1="-5.704" x1="6.938" y2="-4.48"/>
  <line x2="5.125" style="fill:none;stroke:#000000;stroke-width:0.3;" y1="-1.167" x1="0" y2="-1.167"/>
  <line x2="13.791" style="fill:none;stroke:#000000;stroke-width:0.3;" y1="-1.167" x1="22.875" y2="-1.167"/>
  <line x2="14.938" style="fill:none;stroke:#000000;stroke-width:0.3;" y1="-2.579" x1="14.938" y2="-1.355"/>
  <line x2="31.666" style="fill:none;stroke:#000000;stroke-width:0.3;" y1="-1.167" x1="40.75" y2="-1.167"/>
  <line x2="32.812" style="fill:none;stroke:#000000;stroke-width:0.3;" y1="-1.355" x1="32.812" y2="-2.579"/>
  <line x2="54.125" style="fill:none;stroke:#000000;stroke-width:0.3;" y1="-49.417" x1="51.958" y2="-49.417"/>
  <line x2="53.104" style="fill:none;stroke:#000000;stroke-width:0.3;" y1="-49.605" x1="53.104" y2="-50.829"/>
  <line x2="51.958" style="fill:none;stroke:#000000;stroke-width:0.3;" y1="-43.542" x1="54.125" y2="-43.542"/>
  <line x2="53.104" style="fill:none;stroke:#000000;stroke-width:0.3;" y1="-44.954" x1="53.104" y2="-43.73"/>
  <line x2="54.125" style="fill:none;stroke:#000000;stroke-width:0.3;" y1="-37.417" x1="50.208" y2="-37.417"/>
  <line x2="51.354" style="fill:none;stroke:#000000;stroke-width:0.3;" y1="-38.829" x1="51.354" y2="-37.605"/>
  <line x2="50.083" style="fill:none;stroke:#000000;stroke-width:0.3;" y1="-31.417" x1="54.125" y2="-31.417"/>
  <line x2="51.229" style="fill:none;stroke:#000000;stroke-width:0.3;" y1="-31.605" x1="51.229" y2="-32.829"/>
  <line x2="48.083" style="fill:none;stroke:#000000;stroke-width:0.3;" y1="-25.292" x1="54.125" y2="-25.292"/>
  <line x2="49.229" style="fill:none;stroke:#000000;stroke-width:0.3;" y1="-26.704" x1="49.229" y2="-25.48"/>
  <line x2="47.708" style="fill:none;stroke:#000000;stroke-width:0.3;" y1="-19.292" x1="54.125" y2="-19.292"/>
  <line x2="48.854" style="fill:none;stroke:#000000;stroke-width:0.3;" y1="-20.704" x1="48.854" y2="-19.48"/>
  <line x2="54.125" style="fill:none;stroke:#000000;stroke-width:0.3;" y1="-13.292" x1="50.208" y2="-13.292"/>
  <line x2="51.354" style="fill:none;stroke:#000000;stroke-width:0.3;" y1="-14.704" x1="51.354" y2="-13.48"/>
  <line x2="51.583" style="fill:none;stroke:#000000;stroke-width:0.3;" y1="-7.167" x1="54.125" y2="-7.167"/>
  <line x2="52.729" style="fill:none;stroke:#000000;stroke-width:0.3;" y1="-8.579" x1="52.729" y2="-7.355"/>
  <line x2="54.125" style="fill:none;stroke:#000000;stroke-width:0.3;" y1="-1.167" x1="50.208" y2="-1.167"/>
  <line x2="51.354" style="fill:none;stroke:#000000;stroke-width:0.3;" y1="-2.579" x1="51.354" y2="-1.355"/>
  <line x2="11.298" style="fill:none;stroke:#000000;stroke-width:0.7;stroke-linecap:round;" y1="-49.402" x1="11.298" y2="-49.402"/>
  <line x2="13.578" style="fill:none;stroke:#000000;stroke-width:0.7;stroke-linecap:round;" y1="-49.402" x1="13.578" y2="-49.402"/>
  <line x2="8.911" style="fill:none;stroke:#000000;stroke-width:0.7;stroke-linecap:round;" y1="-49.402" x1="8.911" y2="-49.402"/>
  <line x2="29.302" style="fill:none;stroke:#000000;stroke-width:0.7;stroke-linecap:round;" y1="-49.402" x1="29.302" y2="-49.402"/>
  <line x2="31.581" style="fill:none;stroke:#000000;stroke-width:0.7;stroke-linecap:round;" y1="-49.402" x1="31.581" y2="-49.402"/>
  <line x2="26.915" style="fill:none;stroke:#000000;stroke-width:0.7;stroke-linecap:round;" y1="-49.402" x1="26.915" y2="-49.402"/>
  <line x2="47.385" style="fill:none;stroke:#000000;stroke-width:0.7;stroke-linecap:round;" y1="-49.402" x1="47.385" y2="-49.402"/>
  <line x2="49.665" style="fill:none;stroke:#000000;stroke-width:0.7;stroke-linecap:round;" y1="-49.402" x1="49.665" y2="-49.402"/>
  <line x2="44.998" style="fill:none;stroke:#000000;stroke-width:0.7;stroke-linecap:round;" y1="-49.402" x1="44.998" y2="-49.402"/>
  <line x2="39.468" style="fill:none;stroke:#000000;stroke-width:0.7;stroke-linecap:round;" y1="-46.402" x1="39.468" y2="-46.402"/>
  <line x2="41.748" style="fill:none;stroke:#000000;stroke-width:0.7;stroke-linecap:round;" y1="-46.402" x1="41.748" y2="-46.402"/>
  <line x2="37.081" style="fill:none;stroke:#000000;stroke-width:0.7;stroke-linecap:round;" y1="-46.402" x1="37.081" y2="-46.402"/>
  <line x2="21.468" style="fill:none;stroke:#000000;stroke-width:0.7;stroke-linecap:round;" y1="-46.402" x1="21.468" y2="-46.402"/>
  <line x2="23.748" style="fill:none;stroke:#000000;stroke-width:0.7;stroke-linecap:round;" y1="-46.402" x1="23.748" y2="-46.402"/>
  <line x2="19.081" style="fill:none;stroke:#000000;stroke-width:0.7;stroke-linecap:round;" y1="-46.402" x1="19.081" y2="-46.402"/>
  <line x2="3.508" style="fill:none;stroke:#000000;stroke-width:0.7;stroke-linecap:round;" y1="-46.402" x1="3.508" y2="-46.402"/>
  <line x2="5.788" style="fill:none;stroke:#000000;stroke-width:0.7;stroke-linecap:round;" y1="-46.402" x1="5.788" y2="-46.402"/>
  <line x2="1.121" style="fill:none;stroke:#000000;stroke-width:0.7;stroke-linecap:round;" y1="-46.402" x1="1.121" y2="-46.402"/>
  <line x2="19.135" style="fill:none;stroke:#000000;stroke-width:0.7;stroke-linecap:round;" y1="-52.446" x1="19.135" y2="-52.446"/>
  <line x2="21.415" style="fill:none;stroke:#000000;stroke-width:0.7;stroke-linecap:round;" y1="-52.446" x1="21.415" y2="-52.446"/>
  <line x2="16.748" style="fill:none;stroke:#000000;stroke-width:0.7;stroke-linecap:round;" y1="-52.446" x1="16.748" y2="-52.446"/>
  <line x2="1.258" style="fill:none;stroke:#000000;stroke-width:0.7;stroke-linecap:round;" y1="-52.446" x1="1.258" y2="-52.446"/>
  <line x2="3.538" style="fill:none;stroke:#000000;stroke-width:0.7;stroke-linecap:round;" y1="-52.446" x1="3.538" y2="-52.446"/>
  <line x2="37.385" style="fill:none;stroke:#000000;stroke-width:0.7;stroke-linecap:round;" y1="-52.446" x1="37.385" y2="-52.446"/>
  <line x2="39.665" style="fill:none;stroke:#000000;stroke-width:0.7;stroke-linecap:round;" y1="-52.446" x1="39.665" y2="-52.446"/>
  <line x2="34.998" style="fill:none;stroke:#000000;stroke-width:0.7;stroke-linecap:round;" y1="-52.446" x1="34.998" y2="-52.446"/>
  <line x2="52.788" style="fill:none;stroke:#000000;stroke-width:0.7;stroke-linecap:round;" y1="-52.446" x1="52.788" y2="-52.446"/>
  <line x2="29.161" style="fill:none;stroke:#000000;stroke-width:0.7;stroke-linecap:round;" y1="-43.502" x1="29.161" y2="-43.502"/>
  <line x2="31.441" style="fill:none;stroke:#000000;stroke-width:0.7;stroke-linecap:round;" y1="-43.502" x1="31.441" y2="-43.502"/>
  <line x2="26.775" style="fill:none;stroke:#000000;stroke-width:0.7;stroke-linecap:round;" y1="-43.502" x1="26.775" y2="-43.502"/>
  <line x2="11.285" style="fill:none;stroke:#000000;stroke-width:0.7;stroke-linecap:round;" y1="-43.502" x1="11.285" y2="-43.502"/>
  <line x2="13.564" style="fill:none;stroke:#000000;stroke-width:0.7;stroke-linecap:round;" y1="-43.502" x1="13.564" y2="-43.502"/>
  <line x2="8.898" style="fill:none;stroke:#000000;stroke-width:0.7;stroke-linecap:round;" y1="-43.502" x1="8.898" y2="-43.502"/>
  <line x2="47.411" style="fill:none;stroke:#000000;stroke-width:0.7;stroke-linecap:round;" y1="-43.502" x1="47.411" y2="-43.502"/>
  <line x2="49.691" style="fill:none;stroke:#000000;stroke-width:0.7;stroke-linecap:round;" y1="-43.502" x1="49.691" y2="-43.502"/>
  <line x2="45.024" style="fill:none;stroke:#000000;stroke-width:0.7;stroke-linecap:round;" y1="-43.502" x1="45.024" y2="-43.502"/>
  <line x2="19.01" style="fill:none;stroke:#000000;stroke-width:0.7;stroke-linecap:round;" y1="-40.506" x1="19.01" y2="-40.506"/>
  <line x2="21.29" style="fill:none;stroke:#000000;stroke-width:0.7;stroke-linecap:round;" y1="-40.506" x1="21.29" y2="-40.506"/>
  <line x2="16.623" style="fill:none;stroke:#000000;stroke-width:0.7;stroke-linecap:round;" y1="-40.506" x1="16.623" y2="-40.506"/>
  <line x2="1.133" style="fill:none;stroke:#000000;stroke-width:0.7;stroke-linecap:round;" y1="-40.506" x1="1.133" y2="-40.506"/>
  <line x2="3.413" style="fill:none;stroke:#000000;stroke-width:0.7;stroke-linecap:round;" y1="-40.506" x1="3.413" y2="-40.506"/>
  <line x2="37.26" style="fill:none;stroke:#000000;stroke-width:0.7;stroke-linecap:round;" y1="-40.506" x1="37.26" y2="-40.506"/>
  <line x2="39.54" style="fill:none;stroke:#000000;stroke-width:0.7;stroke-linecap:round;" y1="-40.506" x1="39.54" y2="-40.506"/>
  <line x2="34.873" style="fill:none;stroke:#000000;stroke-width:0.7;stroke-linecap:round;" y1="-40.506" x1="34.873" y2="-40.506"/>
  <line x2="52.663" style="fill:none;stroke:#000000;stroke-width:0.7;stroke-linecap:round;" y1="-40.506" x1="52.663" y2="-40.506"/>
  <line x2="27.447" style="fill:none;stroke:#000000;stroke-width:0.7;stroke-linecap:round;" y1="-37.381" x1="27.447" y2="-37.381"/>
  <line x2="29.728" style="fill:none;stroke:#000000;stroke-width:0.7;stroke-linecap:round;" y1="-37.381" x1="29.728" y2="-37.381"/>
  <line x2="25.061" style="fill:none;stroke:#000000;stroke-width:0.7;stroke-linecap:round;" y1="-37.381" x1="25.061" y2="-37.381"/>
  <line x2="9.57" style="fill:none;stroke:#000000;stroke-width:0.7;stroke-linecap:round;" y1="-37.381" x1="9.57" y2="-37.381"/>
  <line x2="11.851" style="fill:none;stroke:#000000;stroke-width:0.7;stroke-linecap:round;" y1="-37.381" x1="11.851" y2="-37.381"/>
  <line x2="7.184" style="fill:none;stroke:#000000;stroke-width:0.7;stroke-linecap:round;" y1="-37.381" x1="7.184" y2="-37.381"/>
  <line x2="45.697" style="fill:none;stroke:#000000;stroke-width:0.7;stroke-linecap:round;" y1="-37.381" x1="45.697" y2="-37.381"/>
  <line x2="47.978" style="fill:none;stroke:#000000;stroke-width:0.7;stroke-linecap:round;" y1="-37.381" x1="47.978" y2="-37.381"/>
  <line x2="43.311" style="fill:none;stroke:#000000;stroke-width:0.7;stroke-linecap:round;" y1="-37.381" x1="43.311" y2="-37.381"/>
  <line x2="18.885" style="fill:none;stroke:#000000;stroke-width:0.7;stroke-linecap:round;" y1="-34.506" x1="18.885" y2="-34.506"/>
  <line x2="21.165" style="fill:none;stroke:#000000;stroke-width:0.7;stroke-linecap:round;" y1="-34.506" x1="21.165" y2="-34.506"/>
  <line x2="16.498" style="fill:none;stroke:#000000;stroke-width:0.7;stroke-linecap:round;" y1="-34.506" x1="16.498" y2="-34.506"/>
  <line x2="1.008" style="fill:none;stroke:#000000;stroke-width:0.7;stroke-linecap:round;" y1="-34.506" x1="1.008" y2="-34.506"/>
  <line x2="3.288" style="fill:none;stroke:#000000;stroke-width:0.7;stroke-linecap:round;" y1="-34.506" x1="3.288" y2="-34.506"/>
  <line x2="37.135" style="fill:none;stroke:#000000;stroke-width:0.7;stroke-linecap:round;" y1="-34.506" x1="37.135" y2="-34.506"/>
  <line x2="39.415" style="fill:none;stroke:#000000;stroke-width:0.7;stroke-linecap:round;" y1="-34.506" x1="39.415" y2="-34.506"/>
  <line x2="34.748" style="fill:none;stroke:#000000;stroke-width:0.7;stroke-linecap:round;" y1="-34.506" x1="34.748" y2="-34.506"/>
  <line x2="52.538" style="fill:none;stroke:#000000;stroke-width:0.7;stroke-linecap:round;" y1="-34.506" x1="52.538" y2="-34.506"/>
  <line x2="27.322" style="fill:none;stroke:#000000;stroke-width:0.7;stroke-linecap:round;" y1="-31.444" x1="27.322" y2="-31.444"/>
  <line x2="29.603" style="fill:none;stroke:#000000;stroke-width:0.7;stroke-linecap:round;" y1="-31.444" x1="29.603" y2="-31.444"/>
  <line x2="24.936" style="fill:none;stroke:#000000;stroke-width:0.7;stroke-linecap:round;" y1="-31.444" x1="24.936" y2="-31.444"/>
  <line x2="9.445" style="fill:none;stroke:#000000;stroke-width:0.7;stroke-linecap:round;" y1="-31.444" x1="9.445" y2="-31.444"/>
  <line x2="11.726" style="fill:none;stroke:#000000;stroke-width:0.7;stroke-linecap:round;" y1="-31.444" x1="11.726" y2="-31.444"/>
  <line x2="7.059" style="fill:none;stroke:#000000;stroke-width:0.7;stroke-linecap:round;" y1="-31.444" x1="7.059" y2="-31.444"/>
  <line x2="45.572" style="fill:none;stroke:#000000;stroke-width:0.7;stroke-linecap:round;" y1="-31.444" x1="45.572" y2="-31.444"/>
  <line x2="47.853" style="fill:none;stroke:#000000;stroke-width:0.7;stroke-linecap:round;" y1="-31.444" x1="47.853" y2="-31.444"/>
  <line x2="43.186" style="fill:none;stroke:#000000;stroke-width:0.7;stroke-linecap:round;" y1="-31.444" x1="43.186" y2="-31.444"/>
  <line x2="17.072" style="fill:none;stroke:#000000;stroke-width:0.7;stroke-linecap:round;" y1="-28.444" x1="17.072" y2="-28.444"/>
  <line x2="19.353" style="fill:none;stroke:#000000;stroke-width:0.7;stroke-linecap:round;" y1="-28.444" x1="19.353" y2="-28.444"/>
  <line x2="14.686" style="fill:none;stroke:#000000;stroke-width:0.7;stroke-linecap:round;" y1="-28.444" x1="14.686" y2="-28.444"/>
  <line x2="1.476" style="fill:none;stroke:#000000;stroke-width:0.7;stroke-linecap:round;" y1="-28.444" x1="1.476" y2="-28.444"/>
  <line x2="35.322" style="fill:none;stroke:#000000;stroke-width:0.7;stroke-linecap:round;" y1="-28.444" x1="35.322" y2="-28.444"/>
  <line x2="37.603" style="fill:none;stroke:#000000;stroke-width:0.7;stroke-linecap:round;" y1="-28.444" x1="37.603" y2="-28.444"/>
  <line x2="32.936" style="fill:none;stroke:#000000;stroke-width:0.7;stroke-linecap:round;" y1="-28.444" x1="32.936" y2="-28.444"/>
  <line x2="53.112" style="fill:none;stroke:#000000;stroke-width:0.7;stroke-linecap:round;" y1="-28.444" x1="53.112" y2="-28.444"/>
  <line x2="50.726" style="fill:none;stroke:#000000;stroke-width:0.7;stroke-linecap:round;" y1="-28.444" x1="50.726" y2="-28.444"/>
  <line x2="25.26" style="fill:none;stroke:#000000;stroke-width:0.7;stroke-linecap:round;" y1="-25.319" x1="25.26" y2="-25.319"/>
  <line x2="27.54" style="fill:none;stroke:#000000;stroke-width:0.7;stroke-linecap:round;" y1="-25.319" x1="27.54" y2="-25.319"/>
  <line x2="22.873" style="fill:none;stroke:#000000;stroke-width:0.7;stroke-linecap:round;" y1="-25.319" x1="22.873" y2="-25.319"/>
  <line x2="7.383" style="fill:none;stroke:#000000;stroke-width:0.7;stroke-linecap:round;" y1="-25.319" x1="7.383" y2="-25.319"/>
  <line x2="9.663" style="fill:none;stroke:#000000;stroke-width:0.7;stroke-linecap:round;" y1="-25.319" x1="9.663" y2="-25.319"/>
  <line x2="4.996" style="fill:none;stroke:#000000;stroke-width:0.7;stroke-linecap:round;" y1="-25.319" x1="4.996" y2="-25.319"/>
  <line x2="43.51" style="fill:none;stroke:#000000;stroke-width:0.7;stroke-linecap:round;" y1="-25.319" x1="43.51" y2="-25.319"/>
  <line x2="45.79" style="fill:none;stroke:#000000;stroke-width:0.7;stroke-linecap:round;" y1="-25.319" x1="45.79" y2="-25.319"/>
  <line x2="41.123" style="fill:none;stroke:#000000;stroke-width:0.7;stroke-linecap:round;" y1="-25.319" x1="41.123" y2="-25.319"/>
  <line x2="14.947" style="fill:none;stroke:#000000;stroke-width:0.7;stroke-linecap:round;" y1="-22.381" x1="14.947" y2="-22.381"/>
  <line x2="17.228" style="fill:none;stroke:#000000;stroke-width:0.7;stroke-linecap:round;" y1="-22.381" x1="17.228" y2="-22.381"/>
  <line x2="12.561" style="fill:none;stroke:#000000;stroke-width:0.7;stroke-linecap:round;" y1="-22.381" x1="12.561" y2="-22.381"/>
  <line x2="33.197" style="fill:none;stroke:#000000;stroke-width:0.7;stroke-linecap:round;" y1="-22.381" x1="33.197" y2="-22.381"/>
  <line x2="35.478" style="fill:none;stroke:#000000;stroke-width:0.7;stroke-linecap:round;" y1="-22.381" x1="35.478" y2="-22.381"/>
  <line x2="30.811" style="fill:none;stroke:#000000;stroke-width:0.7;stroke-linecap:round;" y1="-22.381" x1="30.811" y2="-22.381"/>
  <line x2="50.987" style="fill:none;stroke:#000000;stroke-width:0.7;stroke-linecap:round;" y1="-22.381" x1="50.987" y2="-22.381"/>
  <line x2="53.268" style="fill:none;stroke:#000000;stroke-width:0.7;stroke-linecap:round;" y1="-22.381" x1="53.268" y2="-22.381"/>
  <line x2="48.601" style="fill:none;stroke:#000000;stroke-width:0.7;stroke-linecap:round;" y1="-22.381" x1="48.601" y2="-22.381"/>
  <line x2="24.947" style="fill:none;stroke:#000000;stroke-width:0.7;stroke-linecap:round;" y1="-19.256" x1="24.947" y2="-19.256"/>
  <line x2="27.228" style="fill:none;stroke:#000000;stroke-width:0.7;stroke-linecap:round;" y1="-19.256" x1="27.228" y2="-19.256"/>
  <line x2="22.561" style="fill:none;stroke:#000000;stroke-width:0.7;stroke-linecap:round;" y1="-19.256" x1="22.561" y2="-19.256"/>
  <line x2="7.07" style="fill:none;stroke:#000000;stroke-width:0.7;stroke-linecap:round;" y1="-19.256" x1="7.07" y2="-19.256"/>
  <line x2="9.351" style="fill:none;stroke:#000000;stroke-width:0.7;stroke-linecap:round;" y1="-19.256" x1="9.351" y2="-19.256"/>
  <line x2="4.684" style="fill:none;stroke:#000000;stroke-width:0.7;stroke-linecap:round;" y1="-19.256" x1="4.684" y2="-19.256"/>
  <line x2="43.197" style="fill:none;stroke:#000000;stroke-width:0.7;stroke-linecap:round;" y1="-19.256" x1="43.197" y2="-19.256"/>
  <line x2="45.478" style="fill:none;stroke:#000000;stroke-width:0.7;stroke-linecap:round;" y1="-19.256" x1="45.478" y2="-19.256"/>
  <line x2="40.811" style="fill:none;stroke:#000000;stroke-width:0.7;stroke-linecap:round;" y1="-19.256" x1="40.811" y2="-19.256"/>
  <line x2="17.135" style="fill:none;stroke:#000000;stroke-width:0.7;stroke-linecap:round;" y1="-16.256" x1="17.135" y2="-16.256"/>
  <line x2="19.415" style="fill:none;stroke:#000000;stroke-width:0.7;stroke-linecap:round;" y1="-16.256" x1="19.415" y2="-16.256"/>
  <line x2="14.748" style="fill:none;stroke:#000000;stroke-width:0.7;stroke-linecap:round;" y1="-16.256" x1="14.748" y2="-16.256"/>
  <line x2="1.538" style="fill:none;stroke:#000000;stroke-width:0.7;stroke-linecap:round;" y1="-16.256" x1="1.538" y2="-16.256"/>
  <line x2="35.385" style="fill:none;stroke:#000000;stroke-width:0.7;stroke-linecap:round;" y1="-16.256" x1="35.385" y2="-16.256"/>
  <line x2="37.665" style="fill:none;stroke:#000000;stroke-width:0.7;stroke-linecap:round;" y1="-16.256" x1="37.665" y2="-16.256"/>
  <line x2="32.998" style="fill:none;stroke:#000000;stroke-width:0.7;stroke-linecap:round;" y1="-16.256" x1="32.998" y2="-16.256"/>
  <line x2="53.175" style="fill:none;stroke:#000000;stroke-width:0.7;stroke-linecap:round;" y1="-16.256" x1="53.175" y2="-16.256"/>
  <line x2="50.788" style="fill:none;stroke:#000000;stroke-width:0.7;stroke-linecap:round;" y1="-16.256" x1="50.788" y2="-16.256"/>
  <line x2="27.322" style="fill:none;stroke:#000000;stroke-width:0.7;stroke-linecap:round;" y1="-13.256" x1="27.322" y2="-13.256"/>
  <line x2="29.603" style="fill:none;stroke:#000000;stroke-width:0.7;stroke-linecap:round;" y1="-13.256" x1="29.603" y2="-13.256"/>
  <line x2="24.936" style="fill:none;stroke:#000000;stroke-width:0.7;stroke-linecap:round;" y1="-13.256" x1="24.936" y2="-13.256"/>
  <line x2="9.445" style="fill:none;stroke:#000000;stroke-width:0.7;stroke-linecap:round;" y1="-13.256" x1="9.445" y2="-13.256"/>
  <line x2="11.726" style="fill:none;stroke:#000000;stroke-width:0.7;stroke-linecap:round;" y1="-13.256" x1="11.726" y2="-13.256"/>
  <line x2="7.059" style="fill:none;stroke:#000000;stroke-width:0.7;stroke-linecap:round;" y1="-13.256" x1="7.059" y2="-13.256"/>
  <line x2="45.572" style="fill:none;stroke:#000000;stroke-width:0.7;stroke-linecap:round;" y1="-13.256" x1="45.572" y2="-13.256"/>
  <line x2="47.853" style="fill:none;stroke:#000000;stroke-width:0.7;stroke-linecap:round;" y1="-13.256" x1="47.853" y2="-13.256"/>
  <line x2="43.186" style="fill:none;stroke:#000000;stroke-width:0.7;stroke-linecap:round;" y1="-13.256" x1="43.186" y2="-13.256"/>
  <line x2="19.135" style="fill:none;stroke:#000000;stroke-width:0.7;stroke-linecap:round;" y1="-10.444" x1="19.135" y2="-10.444"/>
  <line x2="21.415" style="fill:none;stroke:#000000;stroke-width:0.7;stroke-linecap:round;" y1="-10.444" x1="21.415" y2="-10.444"/>
  <line x2="16.748" style="fill:none;stroke:#000000;stroke-width:0.7;stroke-linecap:round;" y1="-10.444" x1="16.748" y2="-10.444"/>
  <line x2="1.258" style="fill:none;stroke:#000000;stroke-width:0.7;stroke-linecap:round;" y1="-10.444" x1="1.258" y2="-10.444"/>
  <line x2="3.538" style="fill:none;stroke:#000000;stroke-width:0.7;stroke-linecap:round;" y1="-10.444" x1="3.538" y2="-10.444"/>
  <line x2="37.385" style="fill:none;stroke:#000000;stroke-width:0.7;stroke-linecap:round;" y1="-10.444" x1="37.385" y2="-10.444"/>
  <line x2="39.665" style="fill:none;stroke:#000000;stroke-width:0.7;stroke-linecap:round;" y1="-10.444" x1="39.665" y2="-10.444"/>
  <line x2="34.998" style="fill:none;stroke:#000000;stroke-width:0.7;stroke-linecap:round;" y1="-10.444" x1="34.998" y2="-10.444"/>
  <line x2="52.788" style="fill:none;stroke:#000000;stroke-width:0.7;stroke-linecap:round;" y1="-10.444" x1="52.788" y2="-10.444"/>
  <line x2="29.01" style="fill:none;stroke:#000000;stroke-width:0.7;stroke-linecap:round;" y1="-7.131" x1="29.01" y2="-7.131"/>
  <line x2="31.29" style="fill:none;stroke:#000000;stroke-width:0.7;stroke-linecap:round;" y1="-7.131" x1="31.29" y2="-7.131"/>
  <line x2="26.623" style="fill:none;stroke:#000000;stroke-width:0.7;stroke-linecap:round;" y1="-7.131" x1="26.623" y2="-7.131"/>
  <line x2="11.133" style="fill:none;stroke:#000000;stroke-width:0.7;stroke-linecap:round;" y1="-7.131" x1="11.133" y2="-7.131"/>
  <line x2="13.413" style="fill:none;stroke:#000000;stroke-width:0.7;stroke-linecap:round;" y1="-7.131" x1="13.413" y2="-7.131"/>
  <line x2="8.746" style="fill:none;stroke:#000000;stroke-width:0.7;stroke-linecap:round;" y1="-7.131" x1="8.746" y2="-7.131"/>
  <line x2="47.26" style="fill:none;stroke:#000000;stroke-width:0.7;stroke-linecap:round;" y1="-7.131" x1="47.26" y2="-7.131"/>
  <line x2="49.54" style="fill:none;stroke:#000000;stroke-width:0.7;stroke-linecap:round;" y1="-7.131" x1="49.54" y2="-7.131"/>
  <line x2="44.873" style="fill:none;stroke:#000000;stroke-width:0.7;stroke-linecap:round;" y1="-7.131" x1="44.873" y2="-7.131"/>
  <line x2="19.197" style="fill:none;stroke:#000000;stroke-width:0.7;stroke-linecap:round;" y1="-4.256" x1="19.197" y2="-4.256"/>
  <line x2="21.478" style="fill:none;stroke:#000000;stroke-width:0.7;stroke-linecap:round;" y1="-4.256" x1="21.478" y2="-4.256"/>
  <line x2="16.811" style="fill:none;stroke:#000000;stroke-width:0.7;stroke-linecap:round;" y1="-4.256" x1="16.811" y2="-4.256"/>
  <line x2="1.32" style="fill:none;stroke:#000000;stroke-width:0.7;stroke-linecap:round;" y1="-4.256" x1="1.32" y2="-4.256"/>
  <line x2="3.601" style="fill:none;stroke:#000000;stroke-width:0.7;stroke-linecap:round;" y1="-4.256" x1="3.601" y2="-4.256"/>
  <line x2="37.447" style="fill:none;stroke:#000000;stroke-width:0.7;stroke-linecap:round;" y1="-4.256" x1="37.447" y2="-4.256"/>
  <line x2="39.728" style="fill:none;stroke:#000000;stroke-width:0.7;stroke-linecap:round;" y1="-4.256" x1="39.728" y2="-4.256"/>
  <line x2="35.061" style="fill:none;stroke:#000000;stroke-width:0.7;stroke-linecap:round;" y1="-4.256" x1="35.061" y2="-4.256"/>
  <line x2="52.851" style="fill:none;stroke:#000000;stroke-width:0.7;stroke-linecap:round;" y1="-4.256" x1="52.851" y2="-4.256"/>
  <line x2="27.385" style="fill:none;stroke:#000000;stroke-width:0.7;stroke-linecap:round;" y1="-1.131" x1="27.385" y2="-1.131"/>
  <line x2="29.665" style="fill:none;stroke:#000000;stroke-width:0.7;stroke-linecap:round;" y1="-1.131" x1="29.665" y2="-1.131"/>
  <line x2="24.998" style="fill:none;stroke:#000000;stroke-width:0.7;stroke-linecap:round;" y1="-1.131" x1="24.998" y2="-1.131"/>
  <line x2="9.508" style="fill:none;stroke:#000000;stroke-width:0.7;stroke-linecap:round;" y1="-1.131" x1="9.508" y2="-1.131"/>
  <line x2="11.788" style="fill:none;stroke:#000000;stroke-width:0.7;stroke-linecap:round;" y1="-1.131" x1="11.788" y2="-1.131"/>
  <line x2="7.121" style="fill:none;stroke:#000000;stroke-width:0.7;stroke-linecap:round;" y1="-1.131" x1="7.121" y2="-1.131"/>
  <line x2="45.635" style="fill:none;stroke:#000000;stroke-width:0.7;stroke-linecap:round;" y1="-1.131" x1="45.635" y2="-1.131"/>
  <line x2="47.915" style="fill:none;stroke:#000000;stroke-width:0.7;stroke-linecap:round;" y1="-1.131" x1="47.915" y2="-1.131"/>
  <line x2="43.248" style="fill:none;stroke:#000000;stroke-width:0.7;stroke-linecap:round;" y1="-1.131" x1="43.248" y2="-1.131"/>
 </g>
</svg>
