<?xml version="1.0"?>
<!-- Converted with SVG Converter - Version 0.9.5 (Compiled Fri Feb 21 09:53:38 2020) - Copyright (C) 2011 Nokia -->
<svg xmlns="http://www.w3.org/2000/svg" xmlns:xlink="http://www.w3.org/1999/xlink" version="1.1" baseProfile="tiny" x="0px" y="0px" width="54.125" height="54.125" xml:space="preserve" viewBox="0 -54.125 54.125 54.125">
 <g>
  <rect y="-54.125" width="54.125" height="54.125" style="fill:none;"/>
  <line x2="14.75" x1="5.666" style="fill:none;stroke:#000000;stroke-width:0.3;" y1="-52.771" y2="-52.771"/>
  <line x2="7.602" x1="6.792" style="fill:none;stroke:#000000;stroke-width:0.3;" y1="-52.833" y2="-53.973"/>
  <line x2="32.875" x1="23.791" style="fill:none;stroke:#000000;stroke-width:0.3;" y1="-52.771" y2="-52.771"/>
  <line x2="25.727" x1="24.917" style="fill:none;stroke:#000000;stroke-width:0.3;" y1="-52.833" y2="-53.973"/>
  <line x2="51" x1="41.916" style="fill:none;stroke:#000000;stroke-width:0.3;" y1="-52.771" y2="-52.771"/>
  <line x2="43.852" x1="43.042" style="fill:none;stroke:#000000;stroke-width:0.3;" y1="-52.833" y2="-53.973"/>
  <line x2="0" x1="6.875" style="fill:none;stroke:#000000;stroke-width:0.3;" y1="-49.583" y2="-49.583"/>
  <line x2="15.666" x1="24.75" style="fill:none;stroke:#000000;stroke-width:0.3;" y1="-49.583" y2="-49.583"/>
  <line x2="17.602" x1="16.792" style="fill:none;stroke:#000000;stroke-width:0.3;" y1="-49.646" y2="-50.785"/>
  <line x2="33.791" x1="42.875" style="fill:none;stroke:#000000;stroke-width:0.3;" y1="-49.583" y2="-49.583"/>
  <line x2="35.727" x1="34.917" style="fill:none;stroke:#000000;stroke-width:0.3;" y1="-49.646" y2="-50.785"/>
  <line x2="7.916" x1="17" style="fill:none;stroke:#000000;stroke-width:0.3;" y1="-46.583" y2="-46.583"/>
  <line x2="9.042" x1="9.852" style="fill:none;stroke:#000000;stroke-width:0.3;" y1="-47.785" y2="-46.646"/>
  <line x2="25.916" x1="35" style="fill:none;stroke:#000000;stroke-width:0.3;" y1="-46.583" y2="-46.583"/>
  <line x2="27.042" x1="27.852" style="fill:none;stroke:#000000;stroke-width:0.3;" y1="-47.785" y2="-46.646"/>
  <line x2="52.875" x1="43.791" style="fill:none;stroke:#000000;stroke-width:0.3;" y1="-46.583" y2="-46.583"/>
  <line x2="44.917" x1="45.727" style="fill:none;stroke:#000000;stroke-width:0.3;" y1="-47.785" y2="-46.646"/>
  <line x2="0" x1="6.875" style="fill:none;stroke:#000000;stroke-width:0.3;" y1="-43.708" y2="-43.708"/>
  <line x2="24.75" x1="15.666" style="fill:none;stroke:#000000;stroke-width:0.3;" y1="-43.708" y2="-43.708"/>
  <line x2="17.602" x1="16.792" style="fill:none;stroke:#000000;stroke-width:0.3;" y1="-43.771" y2="-44.91"/>
  <line x2="42.75" x1="33.666" style="fill:none;stroke:#000000;stroke-width:0.3;" y1="-43.708" y2="-43.708"/>
  <line x2="35.602" x1="34.792" style="fill:none;stroke:#000000;stroke-width:0.3;" y1="-43.771" y2="-44.91"/>
  <line x2="50.75" x1="41.666" style="fill:none;stroke:#000000;stroke-width:0.3;" y1="-40.708" y2="-40.708"/>
  <line x2="43.602" x1="42.792" style="fill:none;stroke:#000000;stroke-width:0.3;" y1="-40.771" y2="-41.91"/>
  <line x2="32.75" x1="23.666" style="fill:none;stroke:#000000;stroke-width:0.3;" y1="-40.708" y2="-40.708"/>
  <line x2="25.602" x1="24.792" style="fill:none;stroke:#000000;stroke-width:0.3;" y1="-40.771" y2="-41.91"/>
  <line x2="5.541" x1="14.625" style="fill:none;stroke:#000000;stroke-width:0.3;" y1="-40.708" y2="-40.708"/>
  <line x2="6.667" x1="7.477" style="fill:none;stroke:#000000;stroke-width:0.3;" y1="-41.91" y2="-40.771"/>
  <line x2="5.125" x1="0" style="fill:none;stroke:#000000;stroke-width:0.3;" y1="-37.583" y2="-37.583"/>
  <line x2="14.041" x1="23.125" style="fill:none;stroke:#000000;stroke-width:0.3;" y1="-37.583" y2="-37.583"/>
  <line x2="15.167" x1="15.977" style="fill:none;stroke:#000000;stroke-width:0.3;" y1="-38.785" y2="-37.646"/>
  <line x2="41" x1="31.916" style="fill:none;stroke:#000000;stroke-width:0.3;" y1="-37.583" y2="-37.583"/>
  <line x2="33.042" x1="33.852" style="fill:none;stroke:#000000;stroke-width:0.3;" y1="-38.785" y2="-37.646"/>
  <line x2="50.75" x1="41.666" style="fill:none;stroke:#000000;stroke-width:0.3;" y1="-34.708" y2="-34.708"/>
  <line x2="43.602" x1="42.792" style="fill:none;stroke:#000000;stroke-width:0.3;" y1="-34.771" y2="-35.91"/>
  <line x2="23.791" x1="32.875" style="fill:none;stroke:#000000;stroke-width:0.3;" y1="-34.708" y2="-34.708"/>
  <line x2="25.727" x1="24.917" style="fill:none;stroke:#000000;stroke-width:0.3;" y1="-34.771" y2="-35.91"/>
  <line x2="15" x1="5.916" style="fill:none;stroke:#000000;stroke-width:0.3;" y1="-34.708" y2="-34.708"/>
  <line x2="7.852" x1="7.042" style="fill:none;stroke:#000000;stroke-width:0.3;" y1="-34.771" y2="-35.91"/>
  <line x2="0" x1="5" style="fill:none;stroke:#000000;stroke-width:0.3;" y1="-31.583" y2="-31.583"/>
  <line x2="22.875" x1="13.791" style="fill:none;stroke:#000000;stroke-width:0.3;" y1="-31.583" y2="-31.583"/>
  <line x2="15.727" x1="14.917" style="fill:none;stroke:#000000;stroke-width:0.3;" y1="-31.646" y2="-32.785"/>
  <line x2="40.875" x1="31.791" style="fill:none;stroke:#000000;stroke-width:0.3;" y1="-31.583" y2="-31.583"/>
  <line x2="32.917" x1="33.727" style="fill:none;stroke:#000000;stroke-width:0.3;" y1="-32.785" y2="-31.646"/>
  <line x2="48.875" x1="39.791" style="fill:none;stroke:#000000;stroke-width:0.3;" y1="-28.583" y2="-28.583"/>
  <line x2="40.917" x1="41.727" style="fill:none;stroke:#000000;stroke-width:0.3;" y1="-29.785" y2="-28.646"/>
  <line x2="21.791" x1="30.875" style="fill:none;stroke:#000000;stroke-width:0.3;" y1="-28.583" y2="-28.583"/>
  <line x2="22.917" x1="23.727" style="fill:none;stroke:#000000;stroke-width:0.3;" y1="-29.785" y2="-28.646"/>
  <line x2="3.541" x1="12.625" style="fill:none;stroke:#000000;stroke-width:0.3;" y1="-28.583" y2="-28.583"/>
  <line x2="5.477" x1="4.667" style="fill:none;stroke:#000000;stroke-width:0.3;" y1="-28.646" y2="-29.785"/>
  <line x2="3" x1="0" style="fill:none;stroke:#000000;stroke-width:0.3;" y1="-25.458" y2="-25.458"/>
  <line x2="11.791" x1="20.875" style="fill:none;stroke:#000000;stroke-width:0.3;" y1="-25.458" y2="-25.458"/>
  <line x2="12.917" x1="13.727" style="fill:none;stroke:#000000;stroke-width:0.3;" y1="-26.66" y2="-25.521"/>
  <line x2="39" x1="29.916" style="fill:none;stroke:#000000;stroke-width:0.3;" y1="-25.458" y2="-25.458"/>
  <line x2="31.042" x1="31.852" style="fill:none;stroke:#000000;stroke-width:0.3;" y1="-26.66" y2="-25.521"/>
  <line x2="37.666" x1="46.75" style="fill:none;stroke:#000000;stroke-width:0.3;" y1="-22.583" y2="-22.583"/>
  <line x2="38.792" x1="39.602" style="fill:none;stroke:#000000;stroke-width:0.3;" y1="-23.785" y2="-22.646"/>
  <line x2="28.75" x1="19.666" style="fill:none;stroke:#000000;stroke-width:0.3;" y1="-22.583" y2="-22.583"/>
  <line x2="21.602" x1="20.792" style="fill:none;stroke:#000000;stroke-width:0.3;" y1="-22.646" y2="-23.785"/>
  <line x2="1.791" x1="10.875" style="fill:none;stroke:#000000;stroke-width:0.3;" y1="-22.583" y2="-22.583"/>
  <line x2="2.917" x1="3.727" style="fill:none;stroke:#000000;stroke-width:0.3;" y1="-23.785" y2="-22.646"/>
  <line x2="0" x1="2.625" style="fill:none;stroke:#000000;stroke-width:0.3;" y1="-19.458" y2="-19.458"/>
  <line x2="11.541" x1="20.625" style="fill:none;stroke:#000000;stroke-width:0.3;" y1="-19.458" y2="-19.458"/>
  <line x2="13.477" x1="12.667" style="fill:none;stroke:#000000;stroke-width:0.3;" y1="-19.521" y2="-20.66"/>
  <line x2="38.625" x1="29.541" style="fill:none;stroke:#000000;stroke-width:0.3;" y1="-19.458" y2="-19.458"/>
  <line x2="30.667" x1="31.477" style="fill:none;stroke:#000000;stroke-width:0.3;" y1="-20.66" y2="-19.521"/>
  <line x2="48.875" x1="39.791" style="fill:none;stroke:#000000;stroke-width:0.3;" y1="-16.458" y2="-16.458"/>
  <line x2="40.917" x1="41.727" style="fill:none;stroke:#000000;stroke-width:0.3;" y1="-17.66" y2="-16.521"/>
  <line x2="30.875" x1="21.791" style="fill:none;stroke:#000000;stroke-width:0.3;" y1="-16.458" y2="-16.458"/>
  <line x2="22.917" x1="23.727" style="fill:none;stroke:#000000;stroke-width:0.3;" y1="-17.66" y2="-16.521"/>
  <line x2="3.791" x1="12.875" style="fill:none;stroke:#000000;stroke-width:0.3;" y1="-16.458" y2="-16.458"/>
  <line x2="5.727" x1="4.917" style="fill:none;stroke:#000000;stroke-width:0.3;" y1="-16.521" y2="-17.66"/>
  <line x2="0" x1="5.125" style="fill:none;stroke:#000000;stroke-width:0.3;" y1="-13.458" y2="-13.458"/>
  <line x2="23" x1="13.916" style="fill:none;stroke:#000000;stroke-width:0.3;" y1="-13.458" y2="-13.458"/>
  <line x2="15.852" x1="15.042" style="fill:none;stroke:#000000;stroke-width:0.3;" y1="-13.521" y2="-14.66"/>
  <line x2="40.875" x1="31.791" style="fill:none;stroke:#000000;stroke-width:0.3;" y1="-13.458" y2="-13.458"/>
  <line x2="32.917" x1="33.727" style="fill:none;stroke:#000000;stroke-width:0.3;" y1="-14.66" y2="-13.521"/>
  <line x2="50.75" x1="41.666" style="fill:none;stroke:#000000;stroke-width:0.3;" y1="-10.583" y2="-10.583"/>
  <line x2="42.792" x1="43.602" style="fill:none;stroke:#000000;stroke-width:0.3;" y1="-11.785" y2="-10.646"/>
  <line x2="23.916" x1="33" style="fill:none;stroke:#000000;stroke-width:0.3;" y1="-10.583" y2="-10.583"/>
  <line x2="25.852" x1="25.042" style="fill:none;stroke:#000000;stroke-width:0.3;" y1="-10.646" y2="-11.785"/>
  <line x2="5.916" x1="15" style="fill:none;stroke:#000000;stroke-width:0.3;" y1="-10.583" y2="-10.583"/>
  <line x2="7.852" x1="7.042" style="fill:none;stroke:#000000;stroke-width:0.3;" y1="-10.646" y2="-11.785"/>
  <line x2="0" x1="6.5" style="fill:none;stroke:#000000;stroke-width:0.3;" y1="-7.333" y2="-7.333"/>
  <line x2="24.625" x1="15.541" style="fill:none;stroke:#000000;stroke-width:0.3;" y1="-7.333" y2="-7.333"/>
  <line x2="16.667" x1="17.477" style="fill:none;stroke:#000000;stroke-width:0.3;" y1="-8.535" y2="-7.396"/>
  <line x2="42.75" x1="33.666" style="fill:none;stroke:#000000;stroke-width:0.3;" y1="-7.333" y2="-7.333"/>
  <line x2="34.792" x1="35.602" style="fill:none;stroke:#000000;stroke-width:0.3;" y1="-8.535" y2="-7.396"/>
  <line x2="41.666" x1="50.75" style="fill:none;stroke:#000000;stroke-width:0.3;" y1="-4.458" y2="-4.458"/>
  <line x2="42.792" x1="43.602" style="fill:none;stroke:#000000;stroke-width:0.3;" y1="-5.66" y2="-4.521"/>
  <line x2="23.916" x1="33" style="fill:none;stroke:#000000;stroke-width:0.3;" y1="-4.458" y2="-4.458"/>
  <line x2="25.042" x1="25.852" style="fill:none;stroke:#000000;stroke-width:0.3;" y1="-5.66" y2="-4.521"/>
  <line x2="5.791" x1="14.875" style="fill:none;stroke:#000000;stroke-width:0.3;" y1="-4.458" y2="-4.458"/>
  <line x2="6.917" x1="7.727" style="fill:none;stroke:#000000;stroke-width:0.3;" y1="-5.66" y2="-4.521"/>
  <line x2="5.125" x1="0" style="fill:none;stroke:#000000;stroke-width:0.3;" y1="-1.333" y2="-1.333"/>
  <line x2="13.791" x1="22.875" style="fill:none;stroke:#000000;stroke-width:0.3;" y1="-1.333" y2="-1.333"/>
  <line x2="14.917" x1="15.727" style="fill:none;stroke:#000000;stroke-width:0.3;" y1="-2.535" y2="-1.395"/>
  <line x2="31.666" x1="40.75" style="fill:none;stroke:#000000;stroke-width:0.3;" y1="-1.333" y2="-1.333"/>
  <line x2="33.602" x1="32.792" style="fill:none;stroke:#000000;stroke-width:0.3;" y1="-1.395" y2="-2.535"/>
  <line x2="54.125" x1="51.958" style="fill:none;stroke:#000000;stroke-width:0.3;" y1="-49.583" y2="-49.583"/>
  <line x2="53.894" x1="53.083" style="fill:none;stroke:#000000;stroke-width:0.3;" y1="-49.646" y2="-50.785"/>
  <line x2="51.958" x1="54.125" style="fill:none;stroke:#000000;stroke-width:0.3;" y1="-43.708" y2="-43.708"/>
  <line x2="53.083" x1="53.894" style="fill:none;stroke:#000000;stroke-width:0.3;" y1="-44.91" y2="-43.771"/>
  <line x2="54.125" x1="50.208" style="fill:none;stroke:#000000;stroke-width:0.3;" y1="-37.583" y2="-37.583"/>
  <line x2="52.144" x1="51.333" style="fill:none;stroke:#000000;stroke-width:0.3;" y1="-37.646" y2="-38.785"/>
  <line x2="50.083" x1="54.125" style="fill:none;stroke:#000000;stroke-width:0.3;" y1="-31.583" y2="-31.583"/>
  <line x2="52.019" x1="51.208" style="fill:none;stroke:#000000;stroke-width:0.3;" y1="-31.646" y2="-32.785"/>
  <line x2="48.083" x1="54.125" style="fill:none;stroke:#000000;stroke-width:0.3;" y1="-25.458" y2="-25.458"/>
  <line x2="49.208" x1="50.019" style="fill:none;stroke:#000000;stroke-width:0.3;" y1="-26.66" y2="-25.521"/>
  <line x2="47.708" x1="54.125" style="fill:none;stroke:#000000;stroke-width:0.3;" y1="-19.458" y2="-19.458"/>
  <line x2="48.833" x1="49.644" style="fill:none;stroke:#000000;stroke-width:0.3;" y1="-20.66" y2="-19.521"/>
  <line x2="54.125" x1="50.208" style="fill:none;stroke:#000000;stroke-width:0.3;" y1="-13.458" y2="-13.458"/>
  <line x2="51.333" x1="52.144" style="fill:none;stroke:#000000;stroke-width:0.3;" y1="-14.66" y2="-13.521"/>
  <line x2="51.583" x1="54.125" style="fill:none;stroke:#000000;stroke-width:0.3;" y1="-7.333" y2="-7.333"/>
  <line x2="52.708" x1="53.519" style="fill:none;stroke:#000000;stroke-width:0.3;" y1="-8.535" y2="-7.396"/>
  <line x2="54.125" x1="50.208" style="fill:none;stroke:#000000;stroke-width:0.3;" y1="-1.333" y2="-1.333"/>
  <line x2="52.144" x1="51.333" style="fill:none;stroke:#000000;stroke-width:0.3;" y1="-1.395" y2="-2.535"/>
  <line x2="11.338" x1="11.338" style="fill:none;stroke:#000000;stroke-width:0.7;stroke-linecap:round;" y1="-49.566" y2="-49.566"/>
  <line x2="13.618" x1="13.618" style="fill:none;stroke:#000000;stroke-width:0.7;stroke-linecap:round;" y1="-49.566" y2="-49.566"/>
  <line x2="8.951" x1="8.951" style="fill:none;stroke:#000000;stroke-width:0.7;stroke-linecap:round;" y1="-49.566" y2="-49.566"/>
  <line x2="29.342" x1="29.342" style="fill:none;stroke:#000000;stroke-width:0.7;stroke-linecap:round;" y1="-49.566" y2="-49.566"/>
  <line x2="31.621" x1="31.621" style="fill:none;stroke:#000000;stroke-width:0.7;stroke-linecap:round;" y1="-49.566" y2="-49.566"/>
  <line x2="26.955" x1="26.955" style="fill:none;stroke:#000000;stroke-width:0.7;stroke-linecap:round;" y1="-49.566" y2="-49.566"/>
  <line x2="47.425" x1="47.425" style="fill:none;stroke:#000000;stroke-width:0.7;stroke-linecap:round;" y1="-49.566" y2="-49.566"/>
  <line x2="49.705" x1="49.705" style="fill:none;stroke:#000000;stroke-width:0.7;stroke-linecap:round;" y1="-49.566" y2="-49.566"/>
  <line x2="45.038" x1="45.038" style="fill:none;stroke:#000000;stroke-width:0.7;stroke-linecap:round;" y1="-49.566" y2="-49.566"/>
  <line x2="39.508" x1="39.508" style="fill:none;stroke:#000000;stroke-width:0.7;stroke-linecap:round;" y1="-46.566" y2="-46.566"/>
  <line x2="41.788" x1="41.788" style="fill:none;stroke:#000000;stroke-width:0.7;stroke-linecap:round;" y1="-46.566" y2="-46.566"/>
  <line x2="37.121" x1="37.121" style="fill:none;stroke:#000000;stroke-width:0.7;stroke-linecap:round;" y1="-46.566" y2="-46.566"/>
  <line x2="21.508" x1="21.508" style="fill:none;stroke:#000000;stroke-width:0.7;stroke-linecap:round;" y1="-46.566" y2="-46.566"/>
  <line x2="23.788" x1="23.788" style="fill:none;stroke:#000000;stroke-width:0.7;stroke-linecap:round;" y1="-46.566" y2="-46.566"/>
  <line x2="19.121" x1="19.121" style="fill:none;stroke:#000000;stroke-width:0.7;stroke-linecap:round;" y1="-46.566" y2="-46.566"/>
  <line x2="3.548" x1="3.548" style="fill:none;stroke:#000000;stroke-width:0.7;stroke-linecap:round;" y1="-46.566" y2="-46.566"/>
  <line x2="5.828" x1="5.828" style="fill:none;stroke:#000000;stroke-width:0.7;stroke-linecap:round;" y1="-46.566" y2="-46.566"/>
  <line x2="1.161" x1="1.161" style="fill:none;stroke:#000000;stroke-width:0.7;stroke-linecap:round;" y1="-46.566" y2="-46.566"/>
  <line x2="19.175" x1="19.175" style="fill:none;stroke:#000000;stroke-width:0.7;stroke-linecap:round;" y1="-52.689" y2="-52.689"/>
  <line x2="21.455" x1="21.455" style="fill:none;stroke:#000000;stroke-width:0.7;stroke-linecap:round;" y1="-52.689" y2="-52.689"/>
  <line x2="16.788" x1="16.788" style="fill:none;stroke:#000000;stroke-width:0.7;stroke-linecap:round;" y1="-52.689" y2="-52.689"/>
  <line x2="1.298" x1="1.298" style="fill:none;stroke:#000000;stroke-width:0.7;stroke-linecap:round;" y1="-52.689" y2="-52.689"/>
  <line x2="3.578" x1="3.578" style="fill:none;stroke:#000000;stroke-width:0.7;stroke-linecap:round;" y1="-52.689" y2="-52.689"/>
  <line x2="37.425" x1="37.425" style="fill:none;stroke:#000000;stroke-width:0.7;stroke-linecap:round;" y1="-52.689" y2="-52.689"/>
  <line x2="39.705" x1="39.705" style="fill:none;stroke:#000000;stroke-width:0.7;stroke-linecap:round;" y1="-52.689" y2="-52.689"/>
  <line x2="35.038" x1="35.038" style="fill:none;stroke:#000000;stroke-width:0.7;stroke-linecap:round;" y1="-52.689" y2="-52.689"/>
  <line x2="52.828" x1="52.828" style="fill:none;stroke:#000000;stroke-width:0.7;stroke-linecap:round;" y1="-52.689" y2="-52.689"/>
  <line x2="29.201" x1="29.201" style="fill:none;stroke:#000000;stroke-width:0.7;stroke-linecap:round;" y1="-43.666" y2="-43.666"/>
  <line x2="31.482" x1="31.482" style="fill:none;stroke:#000000;stroke-width:0.7;stroke-linecap:round;" y1="-43.666" y2="-43.666"/>
  <line x2="26.815" x1="26.815" style="fill:none;stroke:#000000;stroke-width:0.7;stroke-linecap:round;" y1="-43.666" y2="-43.666"/>
  <line x2="11.324" x1="11.324" style="fill:none;stroke:#000000;stroke-width:0.7;stroke-linecap:round;" y1="-43.666" y2="-43.666"/>
  <line x2="13.604" x1="13.604" style="fill:none;stroke:#000000;stroke-width:0.7;stroke-linecap:round;" y1="-43.666" y2="-43.666"/>
  <line x2="8.939" x1="8.939" style="fill:none;stroke:#000000;stroke-width:0.7;stroke-linecap:round;" y1="-43.666" y2="-43.666"/>
  <line x2="47.451" x1="47.451" style="fill:none;stroke:#000000;stroke-width:0.7;stroke-linecap:round;" y1="-43.666" y2="-43.666"/>
  <line x2="49.731" x1="49.731" style="fill:none;stroke:#000000;stroke-width:0.7;stroke-linecap:round;" y1="-43.666" y2="-43.666"/>
  <line x2="45.064" x1="45.064" style="fill:none;stroke:#000000;stroke-width:0.7;stroke-linecap:round;" y1="-43.666" y2="-43.666"/>
  <line x2="19.05" x1="19.05" style="fill:none;stroke:#000000;stroke-width:0.7;stroke-linecap:round;" y1="-40.671" y2="-40.671"/>
  <line x2="21.33" x1="21.33" style="fill:none;stroke:#000000;stroke-width:0.7;stroke-linecap:round;" y1="-40.671" y2="-40.671"/>
  <line x2="16.663" x1="16.663" style="fill:none;stroke:#000000;stroke-width:0.7;stroke-linecap:round;" y1="-40.671" y2="-40.671"/>
  <line x2="1.173" x1="1.173" style="fill:none;stroke:#000000;stroke-width:0.7;stroke-linecap:round;" y1="-40.671" y2="-40.671"/>
  <line x2="3.453" x1="3.453" style="fill:none;stroke:#000000;stroke-width:0.7;stroke-linecap:round;" y1="-40.671" y2="-40.671"/>
  <line x2="37.3" x1="37.3" style="fill:none;stroke:#000000;stroke-width:0.7;stroke-linecap:round;" y1="-40.671" y2="-40.671"/>
  <line x2="39.58" x1="39.58" style="fill:none;stroke:#000000;stroke-width:0.7;stroke-linecap:round;" y1="-40.671" y2="-40.671"/>
  <line x2="34.913" x1="34.913" style="fill:none;stroke:#000000;stroke-width:0.7;stroke-linecap:round;" y1="-40.671" y2="-40.671"/>
  <line x2="52.703" x1="52.703" style="fill:none;stroke:#000000;stroke-width:0.7;stroke-linecap:round;" y1="-40.671" y2="-40.671"/>
  <line x2="27.487" x1="27.487" style="fill:none;stroke:#000000;stroke-width:0.7;stroke-linecap:round;" y1="-37.546" y2="-37.546"/>
  <line x2="29.768" x1="29.768" style="fill:none;stroke:#000000;stroke-width:0.7;stroke-linecap:round;" y1="-37.546" y2="-37.546"/>
  <line x2="25.101" x1="25.101" style="fill:none;stroke:#000000;stroke-width:0.7;stroke-linecap:round;" y1="-37.546" y2="-37.546"/>
  <line x2="9.61" x1="9.61" style="fill:none;stroke:#000000;stroke-width:0.7;stroke-linecap:round;" y1="-37.546" y2="-37.546"/>
  <line x2="11.891" x1="11.891" style="fill:none;stroke:#000000;stroke-width:0.7;stroke-linecap:round;" y1="-37.546" y2="-37.546"/>
  <line x2="7.224" x1="7.224" style="fill:none;stroke:#000000;stroke-width:0.7;stroke-linecap:round;" y1="-37.546" y2="-37.546"/>
  <line x2="45.737" x1="45.737" style="fill:none;stroke:#000000;stroke-width:0.7;stroke-linecap:round;" y1="-37.546" y2="-37.546"/>
  <line x2="48.018" x1="48.018" style="fill:none;stroke:#000000;stroke-width:0.7;stroke-linecap:round;" y1="-37.546" y2="-37.546"/>
  <line x2="43.351" x1="43.351" style="fill:none;stroke:#000000;stroke-width:0.7;stroke-linecap:round;" y1="-37.546" y2="-37.546"/>
  <line x2="18.925" x1="18.925" style="fill:none;stroke:#000000;stroke-width:0.7;stroke-linecap:round;" y1="-34.671" y2="-34.671"/>
  <line x2="21.205" x1="21.205" style="fill:none;stroke:#000000;stroke-width:0.7;stroke-linecap:round;" y1="-34.671" y2="-34.671"/>
  <line x2="16.538" x1="16.538" style="fill:none;stroke:#000000;stroke-width:0.7;stroke-linecap:round;" y1="-34.671" y2="-34.671"/>
  <line x2="1.048" x1="1.048" style="fill:none;stroke:#000000;stroke-width:0.7;stroke-linecap:round;" y1="-34.671" y2="-34.671"/>
  <line x2="3.328" x1="3.328" style="fill:none;stroke:#000000;stroke-width:0.7;stroke-linecap:round;" y1="-34.671" y2="-34.671"/>
  <line x2="37.175" x1="37.175" style="fill:none;stroke:#000000;stroke-width:0.7;stroke-linecap:round;" y1="-34.671" y2="-34.671"/>
  <line x2="39.455" x1="39.455" style="fill:none;stroke:#000000;stroke-width:0.7;stroke-linecap:round;" y1="-34.671" y2="-34.671"/>
  <line x2="34.788" x1="34.788" style="fill:none;stroke:#000000;stroke-width:0.7;stroke-linecap:round;" y1="-34.671" y2="-34.671"/>
  <line x2="52.578" x1="52.578" style="fill:none;stroke:#000000;stroke-width:0.7;stroke-linecap:round;" y1="-34.671" y2="-34.671"/>
  <line x2="27.362" x1="27.362" style="fill:none;stroke:#000000;stroke-width:0.7;stroke-linecap:round;" y1="-31.608" y2="-31.608"/>
  <line x2="29.643" x1="29.643" style="fill:none;stroke:#000000;stroke-width:0.7;stroke-linecap:round;" y1="-31.608" y2="-31.608"/>
  <line x2="24.976" x1="24.976" style="fill:none;stroke:#000000;stroke-width:0.7;stroke-linecap:round;" y1="-31.608" y2="-31.608"/>
  <line x2="9.485" x1="9.485" style="fill:none;stroke:#000000;stroke-width:0.7;stroke-linecap:round;" y1="-31.608" y2="-31.608"/>
  <line x2="11.766" x1="11.766" style="fill:none;stroke:#000000;stroke-width:0.7;stroke-linecap:round;" y1="-31.608" y2="-31.608"/>
  <line x2="7.099" x1="7.099" style="fill:none;stroke:#000000;stroke-width:0.7;stroke-linecap:round;" y1="-31.608" y2="-31.608"/>
  <line x2="45.612" x1="45.612" style="fill:none;stroke:#000000;stroke-width:0.7;stroke-linecap:round;" y1="-31.608" y2="-31.608"/>
  <line x2="47.893" x1="47.893" style="fill:none;stroke:#000000;stroke-width:0.7;stroke-linecap:round;" y1="-31.608" y2="-31.608"/>
  <line x2="43.226" x1="43.226" style="fill:none;stroke:#000000;stroke-width:0.7;stroke-linecap:round;" y1="-31.608" y2="-31.608"/>
  <line x2="17.112" x1="17.112" style="fill:none;stroke:#000000;stroke-width:0.7;stroke-linecap:round;" y1="-28.608" y2="-28.608"/>
  <line x2="19.393" x1="19.393" style="fill:none;stroke:#000000;stroke-width:0.7;stroke-linecap:round;" y1="-28.608" y2="-28.608"/>
  <line x2="14.726" x1="14.726" style="fill:none;stroke:#000000;stroke-width:0.7;stroke-linecap:round;" y1="-28.608" y2="-28.608"/>
  <line x2="1.516" x1="1.516" style="fill:none;stroke:#000000;stroke-width:0.7;stroke-linecap:round;" y1="-28.608" y2="-28.608"/>
  <line x2="35.362" x1="35.362" style="fill:none;stroke:#000000;stroke-width:0.7;stroke-linecap:round;" y1="-28.608" y2="-28.608"/>
  <line x2="37.643" x1="37.643" style="fill:none;stroke:#000000;stroke-width:0.7;stroke-linecap:round;" y1="-28.608" y2="-28.608"/>
  <line x2="32.976" x1="32.976" style="fill:none;stroke:#000000;stroke-width:0.7;stroke-linecap:round;" y1="-28.608" y2="-28.608"/>
  <line x2="53.152" x1="53.152" style="fill:none;stroke:#000000;stroke-width:0.7;stroke-linecap:round;" y1="-28.608" y2="-28.608"/>
  <line x2="50.766" x1="50.766" style="fill:none;stroke:#000000;stroke-width:0.7;stroke-linecap:round;" y1="-28.608" y2="-28.608"/>
  <line x2="25.3" x1="25.3" style="fill:none;stroke:#000000;stroke-width:0.7;stroke-linecap:round;" y1="-25.483" y2="-25.483"/>
  <line x2="27.58" x1="27.58" style="fill:none;stroke:#000000;stroke-width:0.7;stroke-linecap:round;" y1="-25.483" y2="-25.483"/>
  <line x2="22.913" x1="22.913" style="fill:none;stroke:#000000;stroke-width:0.7;stroke-linecap:round;" y1="-25.483" y2="-25.483"/>
  <line x2="7.423" x1="7.423" style="fill:none;stroke:#000000;stroke-width:0.7;stroke-linecap:round;" y1="-25.483" y2="-25.483"/>
  <line x2="9.703" x1="9.703" style="fill:none;stroke:#000000;stroke-width:0.7;stroke-linecap:round;" y1="-25.483" y2="-25.483"/>
  <line x2="5.036" x1="5.036" style="fill:none;stroke:#000000;stroke-width:0.7;stroke-linecap:round;" y1="-25.483" y2="-25.483"/>
  <line x2="43.55" x1="43.55" style="fill:none;stroke:#000000;stroke-width:0.7;stroke-linecap:round;" y1="-25.483" y2="-25.483"/>
  <line x2="45.83" x1="45.83" style="fill:none;stroke:#000000;stroke-width:0.7;stroke-linecap:round;" y1="-25.483" y2="-25.483"/>
  <line x2="41.163" x1="41.163" style="fill:none;stroke:#000000;stroke-width:0.7;stroke-linecap:round;" y1="-25.483" y2="-25.483"/>
  <line x2="14.987" x1="14.987" style="fill:none;stroke:#000000;stroke-width:0.7;stroke-linecap:round;" y1="-22.546" y2="-22.546"/>
  <line x2="17.268" x1="17.268" style="fill:none;stroke:#000000;stroke-width:0.7;stroke-linecap:round;" y1="-22.546" y2="-22.546"/>
  <line x2="12.601" x1="12.601" style="fill:none;stroke:#000000;stroke-width:0.7;stroke-linecap:round;" y1="-22.546" y2="-22.546"/>
  <line x2="33.237" x1="33.237" style="fill:none;stroke:#000000;stroke-width:0.7;stroke-linecap:round;" y1="-22.546" y2="-22.546"/>
  <line x2="35.518" x1="35.518" style="fill:none;stroke:#000000;stroke-width:0.7;stroke-linecap:round;" y1="-22.546" y2="-22.546"/>
  <line x2="30.851" x1="30.851" style="fill:none;stroke:#000000;stroke-width:0.7;stroke-linecap:round;" y1="-22.546" y2="-22.546"/>
  <line x2="51.027" x1="51.027" style="fill:none;stroke:#000000;stroke-width:0.7;stroke-linecap:round;" y1="-22.546" y2="-22.546"/>
  <line x2="53.307" x1="53.307" style="fill:none;stroke:#000000;stroke-width:0.7;stroke-linecap:round;" y1="-22.546" y2="-22.546"/>
  <line x2="48.641" x1="48.641" style="fill:none;stroke:#000000;stroke-width:0.7;stroke-linecap:round;" y1="-22.546" y2="-22.546"/>
  <line x2="24.987" x1="24.987" style="fill:none;stroke:#000000;stroke-width:0.7;stroke-linecap:round;" y1="-19.421" y2="-19.421"/>
  <line x2="27.268" x1="27.268" style="fill:none;stroke:#000000;stroke-width:0.7;stroke-linecap:round;" y1="-19.421" y2="-19.421"/>
  <line x2="22.601" x1="22.601" style="fill:none;stroke:#000000;stroke-width:0.7;stroke-linecap:round;" y1="-19.421" y2="-19.421"/>
  <line x2="7.11" x1="7.11" style="fill:none;stroke:#000000;stroke-width:0.7;stroke-linecap:round;" y1="-19.421" y2="-19.421"/>
  <line x2="9.391" x1="9.391" style="fill:none;stroke:#000000;stroke-width:0.7;stroke-linecap:round;" y1="-19.421" y2="-19.421"/>
  <line x2="4.724" x1="4.724" style="fill:none;stroke:#000000;stroke-width:0.7;stroke-linecap:round;" y1="-19.421" y2="-19.421"/>
  <line x2="43.237" x1="43.237" style="fill:none;stroke:#000000;stroke-width:0.7;stroke-linecap:round;" y1="-19.421" y2="-19.421"/>
  <line x2="45.518" x1="45.518" style="fill:none;stroke:#000000;stroke-width:0.7;stroke-linecap:round;" y1="-19.421" y2="-19.421"/>
  <line x2="40.851" x1="40.851" style="fill:none;stroke:#000000;stroke-width:0.7;stroke-linecap:round;" y1="-19.421" y2="-19.421"/>
  <line x2="17.175" x1="17.175" style="fill:none;stroke:#000000;stroke-width:0.7;stroke-linecap:round;" y1="-16.421" y2="-16.421"/>
  <line x2="19.455" x1="19.455" style="fill:none;stroke:#000000;stroke-width:0.7;stroke-linecap:round;" y1="-16.421" y2="-16.421"/>
  <line x2="14.788" x1="14.788" style="fill:none;stroke:#000000;stroke-width:0.7;stroke-linecap:round;" y1="-16.421" y2="-16.421"/>
  <line x2="1.578" x1="1.578" style="fill:none;stroke:#000000;stroke-width:0.7;stroke-linecap:round;" y1="-16.421" y2="-16.421"/>
  <line x2="35.425" x1="35.425" style="fill:none;stroke:#000000;stroke-width:0.7;stroke-linecap:round;" y1="-16.421" y2="-16.421"/>
  <line x2="37.705" x1="37.705" style="fill:none;stroke:#000000;stroke-width:0.7;stroke-linecap:round;" y1="-16.421" y2="-16.421"/>
  <line x2="33.038" x1="33.038" style="fill:none;stroke:#000000;stroke-width:0.7;stroke-linecap:round;" y1="-16.421" y2="-16.421"/>
  <line x2="53.215" x1="53.215" style="fill:none;stroke:#000000;stroke-width:0.7;stroke-linecap:round;" y1="-16.421" y2="-16.421"/>
  <line x2="50.828" x1="50.828" style="fill:none;stroke:#000000;stroke-width:0.7;stroke-linecap:round;" y1="-16.421" y2="-16.421"/>
  <line x2="27.362" x1="27.362" style="fill:none;stroke:#000000;stroke-width:0.7;stroke-linecap:round;" y1="-13.421" y2="-13.421"/>
  <line x2="29.643" x1="29.643" style="fill:none;stroke:#000000;stroke-width:0.7;stroke-linecap:round;" y1="-13.421" y2="-13.421"/>
  <line x2="24.976" x1="24.976" style="fill:none;stroke:#000000;stroke-width:0.7;stroke-linecap:round;" y1="-13.421" y2="-13.421"/>
  <line x2="9.485" x1="9.485" style="fill:none;stroke:#000000;stroke-width:0.7;stroke-linecap:round;" y1="-13.421" y2="-13.421"/>
  <line x2="11.766" x1="11.766" style="fill:none;stroke:#000000;stroke-width:0.7;stroke-linecap:round;" y1="-13.421" y2="-13.421"/>
  <line x2="7.099" x1="7.099" style="fill:none;stroke:#000000;stroke-width:0.7;stroke-linecap:round;" y1="-13.421" y2="-13.421"/>
  <line x2="45.612" x1="45.612" style="fill:none;stroke:#000000;stroke-width:0.7;stroke-linecap:round;" y1="-13.421" y2="-13.421"/>
  <line x2="47.893" x1="47.893" style="fill:none;stroke:#000000;stroke-width:0.7;stroke-linecap:round;" y1="-13.421" y2="-13.421"/>
  <line x2="43.226" x1="43.226" style="fill:none;stroke:#000000;stroke-width:0.7;stroke-linecap:round;" y1="-13.421" y2="-13.421"/>
  <line x2="19.175" x1="19.175" style="fill:none;stroke:#000000;stroke-width:0.7;stroke-linecap:round;" y1="-10.608" y2="-10.608"/>
  <line x2="21.455" x1="21.455" style="fill:none;stroke:#000000;stroke-width:0.7;stroke-linecap:round;" y1="-10.608" y2="-10.608"/>
  <line x2="16.788" x1="16.788" style="fill:none;stroke:#000000;stroke-width:0.7;stroke-linecap:round;" y1="-10.608" y2="-10.608"/>
  <line x2="1.298" x1="1.298" style="fill:none;stroke:#000000;stroke-width:0.7;stroke-linecap:round;" y1="-10.608" y2="-10.608"/>
  <line x2="3.578" x1="3.578" style="fill:none;stroke:#000000;stroke-width:0.7;stroke-linecap:round;" y1="-10.608" y2="-10.608"/>
  <line x2="37.425" x1="37.425" style="fill:none;stroke:#000000;stroke-width:0.7;stroke-linecap:round;" y1="-10.608" y2="-10.608"/>
  <line x2="39.705" x1="39.705" style="fill:none;stroke:#000000;stroke-width:0.7;stroke-linecap:round;" y1="-10.608" y2="-10.608"/>
  <line x2="35.038" x1="35.038" style="fill:none;stroke:#000000;stroke-width:0.7;stroke-linecap:round;" y1="-10.608" y2="-10.608"/>
  <line x2="52.828" x1="52.828" style="fill:none;stroke:#000000;stroke-width:0.7;stroke-linecap:round;" y1="-10.608" y2="-10.608"/>
  <line x2="29.05" x1="29.05" style="fill:none;stroke:#000000;stroke-width:0.7;stroke-linecap:round;" y1="-7.296" y2="-7.296"/>
  <line x2="31.33" x1="31.33" style="fill:none;stroke:#000000;stroke-width:0.7;stroke-linecap:round;" y1="-7.296" y2="-7.296"/>
  <line x2="26.663" x1="26.663" style="fill:none;stroke:#000000;stroke-width:0.7;stroke-linecap:round;" y1="-7.296" y2="-7.296"/>
  <line x2="11.173" x1="11.173" style="fill:none;stroke:#000000;stroke-width:0.7;stroke-linecap:round;" y1="-7.296" y2="-7.296"/>
  <line x2="13.453" x1="13.453" style="fill:none;stroke:#000000;stroke-width:0.7;stroke-linecap:round;" y1="-7.296" y2="-7.296"/>
  <line x2="8.786" x1="8.786" style="fill:none;stroke:#000000;stroke-width:0.7;stroke-linecap:round;" y1="-7.296" y2="-7.296"/>
  <line x2="47.3" x1="47.3" style="fill:none;stroke:#000000;stroke-width:0.7;stroke-linecap:round;" y1="-7.296" y2="-7.296"/>
  <line x2="49.58" x1="49.58" style="fill:none;stroke:#000000;stroke-width:0.7;stroke-linecap:round;" y1="-7.296" y2="-7.296"/>
  <line x2="44.913" x1="44.913" style="fill:none;stroke:#000000;stroke-width:0.7;stroke-linecap:round;" y1="-7.296" y2="-7.296"/>
  <line x2="19.237" x1="19.237" style="fill:none;stroke:#000000;stroke-width:0.7;stroke-linecap:round;" y1="-4.421" y2="-4.421"/>
  <line x2="21.518" x1="21.518" style="fill:none;stroke:#000000;stroke-width:0.7;stroke-linecap:round;" y1="-4.421" y2="-4.421"/>
  <line x2="16.851" x1="16.851" style="fill:none;stroke:#000000;stroke-width:0.7;stroke-linecap:round;" y1="-4.421" y2="-4.421"/>
  <line x2="1.36" x1="1.36" style="fill:none;stroke:#000000;stroke-width:0.7;stroke-linecap:round;" y1="-4.421" y2="-4.421"/>
  <line x2="3.641" x1="3.641" style="fill:none;stroke:#000000;stroke-width:0.7;stroke-linecap:round;" y1="-4.421" y2="-4.421"/>
  <line x2="37.487" x1="37.487" style="fill:none;stroke:#000000;stroke-width:0.7;stroke-linecap:round;" y1="-4.421" y2="-4.421"/>
  <line x2="39.768" x1="39.768" style="fill:none;stroke:#000000;stroke-width:0.7;stroke-linecap:round;" y1="-4.421" y2="-4.421"/>
  <line x2="35.101" x1="35.101" style="fill:none;stroke:#000000;stroke-width:0.7;stroke-linecap:round;" y1="-4.421" y2="-4.421"/>
  <line x2="52.891" x1="52.891" style="fill:none;stroke:#000000;stroke-width:0.7;stroke-linecap:round;" y1="-4.421" y2="-4.421"/>
  <line x2="27.425" x1="27.425" style="fill:none;stroke:#000000;stroke-width:0.7;stroke-linecap:round;" y1="-1.296" y2="-1.296"/>
  <line x2="29.705" x1="29.705" style="fill:none;stroke:#000000;stroke-width:0.7;stroke-linecap:round;" y1="-1.296" y2="-1.296"/>
  <line x2="25.038" x1="25.038" style="fill:none;stroke:#000000;stroke-width:0.7;stroke-linecap:round;" y1="-1.296" y2="-1.296"/>
  <line x2="9.548" x1="9.548" style="fill:none;stroke:#000000;stroke-width:0.7;stroke-linecap:round;" y1="-1.296" y2="-1.296"/>
  <line x2="11.828" x1="11.828" style="fill:none;stroke:#000000;stroke-width:0.7;stroke-linecap:round;" y1="-1.296" y2="-1.296"/>
  <line x2="7.161" x1="7.161" style="fill:none;stroke:#000000;stroke-width:0.7;stroke-linecap:round;" y1="-1.296" y2="-1.296"/>
  <line x2="45.675" x1="45.675" style="fill:none;stroke:#000000;stroke-width:0.7;stroke-linecap:round;" y1="-1.296" y2="-1.296"/>
  <line x2="47.955" x1="47.955" style="fill:none;stroke:#000000;stroke-width:0.7;stroke-linecap:round;" y1="-1.296" y2="-1.296"/>
  <line x2="43.288" x1="43.288" style="fill:none;stroke:#000000;stroke-width:0.7;stroke-linecap:round;" y1="-1.296" y2="-1.296"/>
 </g>
</svg>
