<?xml version="1.0"?>
<!-- Converted with SVG Converter - Version 0.9.6 (Compiled Thu Aug 31 10:01:05 2017) - Copyright (C) 2011 Nokia -->
<svg xmlns="http://www.w3.org/2000/svg" y="0px" version="1.1" xml:space="preserve" height="54.125" baseProfile="tiny" xmlns:xlink="http://www.w3.org/1999/xlink" x="0px" width="54.125" viewBox="0 -54.125 54.125 54.125">
 <g>
  <rect y="-54.125" style="fill:none;" height="54.125" width="54.125"/>
  <line style="fill:none;stroke:#000000;stroke-width:0.3;" x1="5.666" x2="14.75" y1="-52.771" y2="-52.771"/>
  <line style="fill:none;stroke:#000000;stroke-width:0.3;" x1="6.792" x2="7.602" y1="-52.833" y2="-53.973"/>
  <line style="fill:none;stroke:#000000;stroke-width:0.3;" x1="23.791" x2="32.875" y1="-52.771" y2="-52.771"/>
  <line style="fill:none;stroke:#000000;stroke-width:0.3;" x1="24.917" x2="25.727" y1="-52.833" y2="-53.973"/>
  <line style="fill:none;stroke:#000000;stroke-width:0.3;" x1="41.916" x2="51" y1="-52.771" y2="-52.771"/>
  <line style="fill:none;stroke:#000000;stroke-width:0.3;" x1="43.042" x2="43.852" y1="-52.833" y2="-53.973"/>
  <line style="fill:none;stroke:#000000;stroke-width:0.3;" x1="6.875" x2="0" y1="-49.583" y2="-49.583"/>
  <line style="fill:none;stroke:#000000;stroke-width:0.3;" x1="24.75" x2="15.666" y1="-49.583" y2="-49.583"/>
  <line style="fill:none;stroke:#000000;stroke-width:0.3;" x1="16.792" x2="17.602" y1="-49.646" y2="-50.785"/>
  <line style="fill:none;stroke:#000000;stroke-width:0.3;" x1="42.875" x2="33.791" y1="-49.583" y2="-49.583"/>
  <line style="fill:none;stroke:#000000;stroke-width:0.3;" x1="34.917" x2="35.727" y1="-49.646" y2="-50.785"/>
  <line style="fill:none;stroke:#000000;stroke-width:0.3;" x1="17" x2="7.916" y1="-46.583" y2="-46.583"/>
  <line style="fill:none;stroke:#000000;stroke-width:0.3;" x1="9.852" x2="9.042" y1="-47.785" y2="-46.646"/>
  <line style="fill:none;stroke:#000000;stroke-width:0.3;" x1="35" x2="25.916" y1="-46.583" y2="-46.583"/>
  <line style="fill:none;stroke:#000000;stroke-width:0.3;" x1="27.852" x2="27.042" y1="-47.785" y2="-46.646"/>
  <line style="fill:none;stroke:#000000;stroke-width:0.3;" x1="43.791" x2="52.875" y1="-46.583" y2="-46.583"/>
  <line style="fill:none;stroke:#000000;stroke-width:0.3;" x1="45.727" x2="44.917" y1="-47.785" y2="-46.646"/>
  <line style="fill:none;stroke:#000000;stroke-width:0.3;" x1="6.875" x2="0" y1="-43.708" y2="-43.708"/>
  <line style="fill:none;stroke:#000000;stroke-width:0.3;" x1="15.666" x2="24.75" y1="-43.708" y2="-43.708"/>
  <line style="fill:none;stroke:#000000;stroke-width:0.3;" x1="16.792" x2="17.602" y1="-43.771" y2="-44.91"/>
  <line style="fill:none;stroke:#000000;stroke-width:0.3;" x1="33.666" x2="42.75" y1="-43.708" y2="-43.708"/>
  <line style="fill:none;stroke:#000000;stroke-width:0.3;" x1="34.792" x2="35.602" y1="-43.771" y2="-44.91"/>
  <line style="fill:none;stroke:#000000;stroke-width:0.3;" x1="41.666" x2="50.75" y1="-40.708" y2="-40.708"/>
  <line style="fill:none;stroke:#000000;stroke-width:0.3;" x1="42.792" x2="43.602" y1="-40.771" y2="-41.91"/>
  <line style="fill:none;stroke:#000000;stroke-width:0.3;" x1="23.666" x2="32.75" y1="-40.708" y2="-40.708"/>
  <line style="fill:none;stroke:#000000;stroke-width:0.3;" x1="24.792" x2="25.602" y1="-40.771" y2="-41.91"/>
  <line style="fill:none;stroke:#000000;stroke-width:0.3;" x1="14.625" x2="5.541" y1="-40.708" y2="-40.708"/>
  <line style="fill:none;stroke:#000000;stroke-width:0.3;" x1="7.477" x2="6.667" y1="-41.91" y2="-40.771"/>
  <line style="fill:none;stroke:#000000;stroke-width:0.3;" x1="0" x2="5.125" y1="-37.583" y2="-37.583"/>
  <line style="fill:none;stroke:#000000;stroke-width:0.3;" x1="23.125" x2="14.041" y1="-37.583" y2="-37.583"/>
  <line style="fill:none;stroke:#000000;stroke-width:0.3;" x1="15.977" x2="15.167" y1="-38.785" y2="-37.646"/>
  <line style="fill:none;stroke:#000000;stroke-width:0.3;" x1="31.916" x2="41" y1="-37.583" y2="-37.583"/>
  <line style="fill:none;stroke:#000000;stroke-width:0.3;" x1="33.852" x2="33.042" y1="-38.785" y2="-37.646"/>
  <line style="fill:none;stroke:#000000;stroke-width:0.3;" x1="41.666" x2="50.75" y1="-34.708" y2="-34.708"/>
  <line style="fill:none;stroke:#000000;stroke-width:0.3;" x1="42.792" x2="43.602" y1="-34.771" y2="-35.91"/>
  <line style="fill:none;stroke:#000000;stroke-width:0.3;" x1="32.875" x2="23.791" y1="-34.708" y2="-34.708"/>
  <line style="fill:none;stroke:#000000;stroke-width:0.3;" x1="24.917" x2="25.727" y1="-34.771" y2="-35.91"/>
  <line style="fill:none;stroke:#000000;stroke-width:0.3;" x1="5.916" x2="15" y1="-34.708" y2="-34.708"/>
  <line style="fill:none;stroke:#000000;stroke-width:0.3;" x1="7.042" x2="7.852" y1="-34.771" y2="-35.91"/>
  <line style="fill:none;stroke:#000000;stroke-width:0.3;" x1="5" x2="0" y1="-31.583" y2="-31.583"/>
  <line style="fill:none;stroke:#000000;stroke-width:0.3;" x1="13.791" x2="22.875" y1="-31.583" y2="-31.583"/>
  <line style="fill:none;stroke:#000000;stroke-width:0.3;" x1="14.917" x2="15.727" y1="-31.646" y2="-32.785"/>
  <line style="fill:none;stroke:#000000;stroke-width:0.3;" x1="31.791" x2="40.875" y1="-31.583" y2="-31.583"/>
  <line style="fill:none;stroke:#000000;stroke-width:0.3;" x1="33.727" x2="32.917" y1="-32.785" y2="-31.646"/>
  <line style="fill:none;stroke:#000000;stroke-width:0.3;" x1="39.791" x2="48.875" y1="-28.583" y2="-28.583"/>
  <line style="fill:none;stroke:#000000;stroke-width:0.3;" x1="41.727" x2="40.917" y1="-29.785" y2="-28.646"/>
  <line style="fill:none;stroke:#000000;stroke-width:0.3;" x1="30.875" x2="21.791" y1="-28.583" y2="-28.583"/>
  <line style="fill:none;stroke:#000000;stroke-width:0.3;" x1="23.727" x2="22.917" y1="-29.785" y2="-28.646"/>
  <line style="fill:none;stroke:#000000;stroke-width:0.3;" x1="12.625" x2="3.541" y1="-28.583" y2="-28.583"/>
  <line style="fill:none;stroke:#000000;stroke-width:0.3;" x1="4.667" x2="5.477" y1="-28.646" y2="-29.785"/>
  <line style="fill:none;stroke:#000000;stroke-width:0.3;" x1="0" x2="3" y1="-25.458" y2="-25.458"/>
  <line style="fill:none;stroke:#000000;stroke-width:0.3;" x1="20.875" x2="11.791" y1="-25.458" y2="-25.458"/>
  <line style="fill:none;stroke:#000000;stroke-width:0.3;" x1="13.727" x2="12.917" y1="-26.66" y2="-25.521"/>
  <line style="fill:none;stroke:#000000;stroke-width:0.3;" x1="29.916" x2="39" y1="-25.458" y2="-25.458"/>
  <line style="fill:none;stroke:#000000;stroke-width:0.3;" x1="31.852" x2="31.042" y1="-26.66" y2="-25.521"/>
  <line style="fill:none;stroke:#000000;stroke-width:0.3;" x1="46.75" x2="37.666" y1="-22.583" y2="-22.583"/>
  <line style="fill:none;stroke:#000000;stroke-width:0.3;" x1="39.602" x2="38.792" y1="-23.785" y2="-22.646"/>
  <line style="fill:none;stroke:#000000;stroke-width:0.3;" x1="19.666" x2="28.75" y1="-22.583" y2="-22.583"/>
  <line style="fill:none;stroke:#000000;stroke-width:0.3;" x1="20.792" x2="21.602" y1="-22.646" y2="-23.785"/>
  <line style="fill:none;stroke:#000000;stroke-width:0.3;" x1="10.875" x2="1.791" y1="-22.583" y2="-22.583"/>
  <line style="fill:none;stroke:#000000;stroke-width:0.3;" x1="3.727" x2="2.917" y1="-23.785" y2="-22.646"/>
  <line style="fill:none;stroke:#000000;stroke-width:0.3;" x1="2.625" x2="0" y1="-19.458" y2="-19.458"/>
  <line style="fill:none;stroke:#000000;stroke-width:0.3;" x1="20.625" x2="11.541" y1="-19.458" y2="-19.458"/>
  <line style="fill:none;stroke:#000000;stroke-width:0.3;" x1="12.667" x2="13.477" y1="-19.521" y2="-20.66"/>
  <line style="fill:none;stroke:#000000;stroke-width:0.3;" x1="29.541" x2="38.625" y1="-19.458" y2="-19.458"/>
  <line style="fill:none;stroke:#000000;stroke-width:0.3;" x1="31.477" x2="30.667" y1="-20.66" y2="-19.521"/>
  <line style="fill:none;stroke:#000000;stroke-width:0.3;" x1="39.791" x2="48.875" y1="-16.458" y2="-16.458"/>
  <line style="fill:none;stroke:#000000;stroke-width:0.3;" x1="41.727" x2="40.917" y1="-17.66" y2="-16.521"/>
  <line style="fill:none;stroke:#000000;stroke-width:0.3;" x1="21.791" x2="30.875" y1="-16.458" y2="-16.458"/>
  <line style="fill:none;stroke:#000000;stroke-width:0.3;" x1="23.727" x2="22.917" y1="-17.66" y2="-16.521"/>
  <line style="fill:none;stroke:#000000;stroke-width:0.3;" x1="12.875" x2="3.791" y1="-16.458" y2="-16.458"/>
  <line style="fill:none;stroke:#000000;stroke-width:0.3;" x1="4.917" x2="5.727" y1="-16.521" y2="-17.66"/>
  <line style="fill:none;stroke:#000000;stroke-width:0.3;" x1="5.125" x2="0" y1="-13.458" y2="-13.458"/>
  <line style="fill:none;stroke:#000000;stroke-width:0.3;" x1="13.916" x2="23" y1="-13.458" y2="-13.458"/>
  <line style="fill:none;stroke:#000000;stroke-width:0.3;" x1="15.042" x2="15.852" y1="-13.521" y2="-14.66"/>
  <line style="fill:none;stroke:#000000;stroke-width:0.3;" x1="31.791" x2="40.875" y1="-13.458" y2="-13.458"/>
  <line style="fill:none;stroke:#000000;stroke-width:0.3;" x1="33.727" x2="32.917" y1="-14.66" y2="-13.521"/>
  <line style="fill:none;stroke:#000000;stroke-width:0.3;" x1="41.666" x2="50.75" y1="-10.583" y2="-10.583"/>
  <line style="fill:none;stroke:#000000;stroke-width:0.3;" x1="43.602" x2="42.792" y1="-11.785" y2="-10.646"/>
  <line style="fill:none;stroke:#000000;stroke-width:0.3;" x1="33" x2="23.916" y1="-10.583" y2="-10.583"/>
  <line style="fill:none;stroke:#000000;stroke-width:0.3;" x1="25.042" x2="25.852" y1="-10.646" y2="-11.785"/>
  <line style="fill:none;stroke:#000000;stroke-width:0.3;" x1="15" x2="5.916" y1="-10.583" y2="-10.583"/>
  <line style="fill:none;stroke:#000000;stroke-width:0.3;" x1="7.042" x2="7.852" y1="-10.646" y2="-11.785"/>
  <line style="fill:none;stroke:#000000;stroke-width:0.3;" x1="6.5" x2="0" y1="-7.333" y2="-7.333"/>
  <line style="fill:none;stroke:#000000;stroke-width:0.3;" x1="15.541" x2="24.625" y1="-7.333" y2="-7.333"/>
  <line style="fill:none;stroke:#000000;stroke-width:0.3;" x1="17.477" x2="16.667" y1="-8.535" y2="-7.396"/>
  <line style="fill:none;stroke:#000000;stroke-width:0.3;" x1="33.666" x2="42.75" y1="-7.333" y2="-7.333"/>
  <line style="fill:none;stroke:#000000;stroke-width:0.3;" x1="35.602" x2="34.792" y1="-8.535" y2="-7.396"/>
  <line style="fill:none;stroke:#000000;stroke-width:0.3;" x1="50.75" x2="41.666" y1="-4.458" y2="-4.458"/>
  <line style="fill:none;stroke:#000000;stroke-width:0.3;" x1="43.602" x2="42.792" y1="-5.66" y2="-4.521"/>
  <line style="fill:none;stroke:#000000;stroke-width:0.3;" x1="33" x2="23.916" y1="-4.458" y2="-4.458"/>
  <line style="fill:none;stroke:#000000;stroke-width:0.3;" x1="25.852" x2="25.042" y1="-5.66" y2="-4.521"/>
  <line style="fill:none;stroke:#000000;stroke-width:0.3;" x1="14.875" x2="5.791" y1="-4.458" y2="-4.458"/>
  <line style="fill:none;stroke:#000000;stroke-width:0.3;" x1="7.727" x2="6.917" y1="-5.66" y2="-4.521"/>
  <line style="fill:none;stroke:#000000;stroke-width:0.3;" x1="0" x2="5.125" y1="-1.333" y2="-1.333"/>
  <line style="fill:none;stroke:#000000;stroke-width:0.3;" x1="22.875" x2="13.791" y1="-1.333" y2="-1.333"/>
  <line style="fill:none;stroke:#000000;stroke-width:0.3;" x1="15.727" x2="14.917" y1="-2.535" y2="-1.395"/>
  <line style="fill:none;stroke:#000000;stroke-width:0.3;" x1="40.75" x2="31.666" y1="-1.333" y2="-1.333"/>
  <line style="fill:none;stroke:#000000;stroke-width:0.3;" x1="32.792" x2="33.602" y1="-1.395" y2="-2.535"/>
  <line style="fill:none;stroke:#000000;stroke-width:0.3;" x1="51.958" x2="54.125" y1="-49.583" y2="-49.583"/>
  <line style="fill:none;stroke:#000000;stroke-width:0.3;" x1="53.083" x2="53.894" y1="-49.646" y2="-50.785"/>
  <line style="fill:none;stroke:#000000;stroke-width:0.3;" x1="54.125" x2="51.958" y1="-43.708" y2="-43.708"/>
  <line style="fill:none;stroke:#000000;stroke-width:0.3;" x1="53.894" x2="53.083" y1="-44.91" y2="-43.771"/>
  <line style="fill:none;stroke:#000000;stroke-width:0.3;" x1="50.208" x2="54.125" y1="-37.583" y2="-37.583"/>
  <line style="fill:none;stroke:#000000;stroke-width:0.3;" x1="51.333" x2="52.144" y1="-37.646" y2="-38.785"/>
  <line style="fill:none;stroke:#000000;stroke-width:0.3;" x1="54.125" x2="50.083" y1="-31.583" y2="-31.583"/>
  <line style="fill:none;stroke:#000000;stroke-width:0.3;" x1="51.208" x2="52.019" y1="-31.646" y2="-32.785"/>
  <line style="fill:none;stroke:#000000;stroke-width:0.3;" x1="54.125" x2="48.083" y1="-25.458" y2="-25.458"/>
  <line style="fill:none;stroke:#000000;stroke-width:0.3;" x1="50.019" x2="49.208" y1="-26.66" y2="-25.521"/>
  <line style="fill:none;stroke:#000000;stroke-width:0.3;" x1="54.125" x2="47.708" y1="-19.458" y2="-19.458"/>
  <line style="fill:none;stroke:#000000;stroke-width:0.3;" x1="49.644" x2="48.833" y1="-20.66" y2="-19.521"/>
  <line style="fill:none;stroke:#000000;stroke-width:0.3;" x1="50.208" x2="54.125" y1="-13.458" y2="-13.458"/>
  <line style="fill:none;stroke:#000000;stroke-width:0.3;" x1="52.144" x2="51.333" y1="-14.66" y2="-13.521"/>
  <line style="fill:none;stroke:#000000;stroke-width:0.3;" x1="54.125" x2="51.583" y1="-7.333" y2="-7.333"/>
  <line style="fill:none;stroke:#000000;stroke-width:0.3;" x1="53.519" x2="52.708" y1="-8.535" y2="-7.396"/>
  <line style="fill:none;stroke:#000000;stroke-width:0.3;" x1="50.208" x2="54.125" y1="-1.333" y2="-1.333"/>
  <line style="fill:none;stroke:#000000;stroke-width:0.3;" x1="51.333" x2="52.144" y1="-1.395" y2="-2.535"/>
  <line style="fill:none;stroke:#000000;stroke-width:0.7;stroke-linecap:round;" x1="11.338" x2="11.338" y1="-49.566" y2="-49.566"/>
  <line style="fill:none;stroke:#000000;stroke-width:0.7;stroke-linecap:round;" x1="13.618" x2="13.618" y1="-49.566" y2="-49.566"/>
  <line style="fill:none;stroke:#000000;stroke-width:0.7;stroke-linecap:round;" x1="8.951" x2="8.951" y1="-49.566" y2="-49.566"/>
  <line style="fill:none;stroke:#000000;stroke-width:0.7;stroke-linecap:round;" x1="29.342" x2="29.342" y1="-49.566" y2="-49.566"/>
  <line style="fill:none;stroke:#000000;stroke-width:0.7;stroke-linecap:round;" x1="31.621" x2="31.621" y1="-49.566" y2="-49.566"/>
  <line style="fill:none;stroke:#000000;stroke-width:0.7;stroke-linecap:round;" x1="26.955" x2="26.955" y1="-49.566" y2="-49.566"/>
  <line style="fill:none;stroke:#000000;stroke-width:0.7;stroke-linecap:round;" x1="47.425" x2="47.425" y1="-49.566" y2="-49.566"/>
  <line style="fill:none;stroke:#000000;stroke-width:0.7;stroke-linecap:round;" x1="49.705" x2="49.705" y1="-49.566" y2="-49.566"/>
  <line style="fill:none;stroke:#000000;stroke-width:0.7;stroke-linecap:round;" x1="45.038" x2="45.038" y1="-49.566" y2="-49.566"/>
  <line style="fill:none;stroke:#000000;stroke-width:0.7;stroke-linecap:round;" x1="39.508" x2="39.508" y1="-46.566" y2="-46.566"/>
  <line style="fill:none;stroke:#000000;stroke-width:0.7;stroke-linecap:round;" x1="41.788" x2="41.788" y1="-46.566" y2="-46.566"/>
  <line style="fill:none;stroke:#000000;stroke-width:0.7;stroke-linecap:round;" x1="37.121" x2="37.121" y1="-46.566" y2="-46.566"/>
  <line style="fill:none;stroke:#000000;stroke-width:0.7;stroke-linecap:round;" x1="21.508" x2="21.508" y1="-46.566" y2="-46.566"/>
  <line style="fill:none;stroke:#000000;stroke-width:0.7;stroke-linecap:round;" x1="23.788" x2="23.788" y1="-46.566" y2="-46.566"/>
  <line style="fill:none;stroke:#000000;stroke-width:0.7;stroke-linecap:round;" x1="19.121" x2="19.121" y1="-46.566" y2="-46.566"/>
  <line style="fill:none;stroke:#000000;stroke-width:0.7;stroke-linecap:round;" x1="3.548" x2="3.548" y1="-46.566" y2="-46.566"/>
  <line style="fill:none;stroke:#000000;stroke-width:0.7;stroke-linecap:round;" x1="5.828" x2="5.828" y1="-46.566" y2="-46.566"/>
  <line style="fill:none;stroke:#000000;stroke-width:0.7;stroke-linecap:round;" x1="1.161" x2="1.161" y1="-46.566" y2="-46.566"/>
  <line style="fill:none;stroke:#000000;stroke-width:0.7;stroke-linecap:round;" x1="19.175" x2="19.175" y1="-52.689" y2="-52.689"/>
  <line style="fill:none;stroke:#000000;stroke-width:0.7;stroke-linecap:round;" x1="21.455" x2="21.455" y1="-52.689" y2="-52.689"/>
  <line style="fill:none;stroke:#000000;stroke-width:0.7;stroke-linecap:round;" x1="16.788" x2="16.788" y1="-52.689" y2="-52.689"/>
  <line style="fill:none;stroke:#000000;stroke-width:0.7;stroke-linecap:round;" x1="1.298" x2="1.298" y1="-52.689" y2="-52.689"/>
  <line style="fill:none;stroke:#000000;stroke-width:0.7;stroke-linecap:round;" x1="3.578" x2="3.578" y1="-52.689" y2="-52.689"/>
  <line style="fill:none;stroke:#000000;stroke-width:0.7;stroke-linecap:round;" x1="37.425" x2="37.425" y1="-52.689" y2="-52.689"/>
  <line style="fill:none;stroke:#000000;stroke-width:0.7;stroke-linecap:round;" x1="39.705" x2="39.705" y1="-52.689" y2="-52.689"/>
  <line style="fill:none;stroke:#000000;stroke-width:0.7;stroke-linecap:round;" x1="35.038" x2="35.038" y1="-52.689" y2="-52.689"/>
  <line style="fill:none;stroke:#000000;stroke-width:0.7;stroke-linecap:round;" x1="52.828" x2="52.828" y1="-52.689" y2="-52.689"/>
  <line style="fill:none;stroke:#000000;stroke-width:0.7;stroke-linecap:round;" x1="29.201" x2="29.201" y1="-43.666" y2="-43.666"/>
  <line style="fill:none;stroke:#000000;stroke-width:0.7;stroke-linecap:round;" x1="31.482" x2="31.482" y1="-43.666" y2="-43.666"/>
  <line style="fill:none;stroke:#000000;stroke-width:0.7;stroke-linecap:round;" x1="26.815" x2="26.815" y1="-43.666" y2="-43.666"/>
  <line style="fill:none;stroke:#000000;stroke-width:0.7;stroke-linecap:round;" x1="11.324" x2="11.324" y1="-43.666" y2="-43.666"/>
  <line style="fill:none;stroke:#000000;stroke-width:0.7;stroke-linecap:round;" x1="13.604" x2="13.604" y1="-43.666" y2="-43.666"/>
  <line style="fill:none;stroke:#000000;stroke-width:0.7;stroke-linecap:round;" x1="8.939" x2="8.939" y1="-43.666" y2="-43.666"/>
  <line style="fill:none;stroke:#000000;stroke-width:0.7;stroke-linecap:round;" x1="47.451" x2="47.451" y1="-43.666" y2="-43.666"/>
  <line style="fill:none;stroke:#000000;stroke-width:0.7;stroke-linecap:round;" x1="49.731" x2="49.731" y1="-43.666" y2="-43.666"/>
  <line style="fill:none;stroke:#000000;stroke-width:0.7;stroke-linecap:round;" x1="45.064" x2="45.064" y1="-43.666" y2="-43.666"/>
  <line style="fill:none;stroke:#000000;stroke-width:0.7;stroke-linecap:round;" x1="19.05" x2="19.05" y1="-40.671" y2="-40.671"/>
  <line style="fill:none;stroke:#000000;stroke-width:0.7;stroke-linecap:round;" x1="21.33" x2="21.33" y1="-40.671" y2="-40.671"/>
  <line style="fill:none;stroke:#000000;stroke-width:0.7;stroke-linecap:round;" x1="16.663" x2="16.663" y1="-40.671" y2="-40.671"/>
  <line style="fill:none;stroke:#000000;stroke-width:0.7;stroke-linecap:round;" x1="1.173" x2="1.173" y1="-40.671" y2="-40.671"/>
  <line style="fill:none;stroke:#000000;stroke-width:0.7;stroke-linecap:round;" x1="3.453" x2="3.453" y1="-40.671" y2="-40.671"/>
  <line style="fill:none;stroke:#000000;stroke-width:0.7;stroke-linecap:round;" x1="37.3" x2="37.3" y1="-40.671" y2="-40.671"/>
  <line style="fill:none;stroke:#000000;stroke-width:0.7;stroke-linecap:round;" x1="39.58" x2="39.58" y1="-40.671" y2="-40.671"/>
  <line style="fill:none;stroke:#000000;stroke-width:0.7;stroke-linecap:round;" x1="34.913" x2="34.913" y1="-40.671" y2="-40.671"/>
  <line style="fill:none;stroke:#000000;stroke-width:0.7;stroke-linecap:round;" x1="52.703" x2="52.703" y1="-40.671" y2="-40.671"/>
  <line style="fill:none;stroke:#000000;stroke-width:0.7;stroke-linecap:round;" x1="27.487" x2="27.487" y1="-37.546" y2="-37.546"/>
  <line style="fill:none;stroke:#000000;stroke-width:0.7;stroke-linecap:round;" x1="29.768" x2="29.768" y1="-37.546" y2="-37.546"/>
  <line style="fill:none;stroke:#000000;stroke-width:0.7;stroke-linecap:round;" x1="25.101" x2="25.101" y1="-37.546" y2="-37.546"/>
  <line style="fill:none;stroke:#000000;stroke-width:0.7;stroke-linecap:round;" x1="9.61" x2="9.61" y1="-37.546" y2="-37.546"/>
  <line style="fill:none;stroke:#000000;stroke-width:0.7;stroke-linecap:round;" x1="11.891" x2="11.891" y1="-37.546" y2="-37.546"/>
  <line style="fill:none;stroke:#000000;stroke-width:0.7;stroke-linecap:round;" x1="7.224" x2="7.224" y1="-37.546" y2="-37.546"/>
  <line style="fill:none;stroke:#000000;stroke-width:0.7;stroke-linecap:round;" x1="45.737" x2="45.737" y1="-37.546" y2="-37.546"/>
  <line style="fill:none;stroke:#000000;stroke-width:0.7;stroke-linecap:round;" x1="48.018" x2="48.018" y1="-37.546" y2="-37.546"/>
  <line style="fill:none;stroke:#000000;stroke-width:0.7;stroke-linecap:round;" x1="43.351" x2="43.351" y1="-37.546" y2="-37.546"/>
  <line style="fill:none;stroke:#000000;stroke-width:0.7;stroke-linecap:round;" x1="18.925" x2="18.925" y1="-34.671" y2="-34.671"/>
  <line style="fill:none;stroke:#000000;stroke-width:0.7;stroke-linecap:round;" x1="21.205" x2="21.205" y1="-34.671" y2="-34.671"/>
  <line style="fill:none;stroke:#000000;stroke-width:0.7;stroke-linecap:round;" x1="16.538" x2="16.538" y1="-34.671" y2="-34.671"/>
  <line style="fill:none;stroke:#000000;stroke-width:0.7;stroke-linecap:round;" x1="1.048" x2="1.048" y1="-34.671" y2="-34.671"/>
  <line style="fill:none;stroke:#000000;stroke-width:0.7;stroke-linecap:round;" x1="3.328" x2="3.328" y1="-34.671" y2="-34.671"/>
  <line style="fill:none;stroke:#000000;stroke-width:0.7;stroke-linecap:round;" x1="37.175" x2="37.175" y1="-34.671" y2="-34.671"/>
  <line style="fill:none;stroke:#000000;stroke-width:0.7;stroke-linecap:round;" x1="39.455" x2="39.455" y1="-34.671" y2="-34.671"/>
  <line style="fill:none;stroke:#000000;stroke-width:0.7;stroke-linecap:round;" x1="34.788" x2="34.788" y1="-34.671" y2="-34.671"/>
  <line style="fill:none;stroke:#000000;stroke-width:0.7;stroke-linecap:round;" x1="52.578" x2="52.578" y1="-34.671" y2="-34.671"/>
  <line style="fill:none;stroke:#000000;stroke-width:0.7;stroke-linecap:round;" x1="27.362" x2="27.362" y1="-31.608" y2="-31.608"/>
  <line style="fill:none;stroke:#000000;stroke-width:0.7;stroke-linecap:round;" x1="29.643" x2="29.643" y1="-31.608" y2="-31.608"/>
  <line style="fill:none;stroke:#000000;stroke-width:0.7;stroke-linecap:round;" x1="24.976" x2="24.976" y1="-31.608" y2="-31.608"/>
  <line style="fill:none;stroke:#000000;stroke-width:0.7;stroke-linecap:round;" x1="9.485" x2="9.485" y1="-31.608" y2="-31.608"/>
  <line style="fill:none;stroke:#000000;stroke-width:0.7;stroke-linecap:round;" x1="11.766" x2="11.766" y1="-31.608" y2="-31.608"/>
  <line style="fill:none;stroke:#000000;stroke-width:0.7;stroke-linecap:round;" x1="7.099" x2="7.099" y1="-31.608" y2="-31.608"/>
  <line style="fill:none;stroke:#000000;stroke-width:0.7;stroke-linecap:round;" x1="45.612" x2="45.612" y1="-31.608" y2="-31.608"/>
  <line style="fill:none;stroke:#000000;stroke-width:0.7;stroke-linecap:round;" x1="47.893" x2="47.893" y1="-31.608" y2="-31.608"/>
  <line style="fill:none;stroke:#000000;stroke-width:0.7;stroke-linecap:round;" x1="43.226" x2="43.226" y1="-31.608" y2="-31.608"/>
  <line style="fill:none;stroke:#000000;stroke-width:0.7;stroke-linecap:round;" x1="17.112" x2="17.112" y1="-28.608" y2="-28.608"/>
  <line style="fill:none;stroke:#000000;stroke-width:0.7;stroke-linecap:round;" x1="19.393" x2="19.393" y1="-28.608" y2="-28.608"/>
  <line style="fill:none;stroke:#000000;stroke-width:0.7;stroke-linecap:round;" x1="14.726" x2="14.726" y1="-28.608" y2="-28.608"/>
  <line style="fill:none;stroke:#000000;stroke-width:0.7;stroke-linecap:round;" x1="1.516" x2="1.516" y1="-28.608" y2="-28.608"/>
  <line style="fill:none;stroke:#000000;stroke-width:0.7;stroke-linecap:round;" x1="35.362" x2="35.362" y1="-28.608" y2="-28.608"/>
  <line style="fill:none;stroke:#000000;stroke-width:0.7;stroke-linecap:round;" x1="37.643" x2="37.643" y1="-28.608" y2="-28.608"/>
  <line style="fill:none;stroke:#000000;stroke-width:0.7;stroke-linecap:round;" x1="32.976" x2="32.976" y1="-28.608" y2="-28.608"/>
  <line style="fill:none;stroke:#000000;stroke-width:0.7;stroke-linecap:round;" x1="53.152" x2="53.152" y1="-28.608" y2="-28.608"/>
  <line style="fill:none;stroke:#000000;stroke-width:0.7;stroke-linecap:round;" x1="50.766" x2="50.766" y1="-28.608" y2="-28.608"/>
  <line style="fill:none;stroke:#000000;stroke-width:0.7;stroke-linecap:round;" x1="25.3" x2="25.3" y1="-25.483" y2="-25.483"/>
  <line style="fill:none;stroke:#000000;stroke-width:0.7;stroke-linecap:round;" x1="27.58" x2="27.58" y1="-25.483" y2="-25.483"/>
  <line style="fill:none;stroke:#000000;stroke-width:0.7;stroke-linecap:round;" x1="22.913" x2="22.913" y1="-25.483" y2="-25.483"/>
  <line style="fill:none;stroke:#000000;stroke-width:0.7;stroke-linecap:round;" x1="7.423" x2="7.423" y1="-25.483" y2="-25.483"/>
  <line style="fill:none;stroke:#000000;stroke-width:0.7;stroke-linecap:round;" x1="9.703" x2="9.703" y1="-25.483" y2="-25.483"/>
  <line style="fill:none;stroke:#000000;stroke-width:0.7;stroke-linecap:round;" x1="5.036" x2="5.036" y1="-25.483" y2="-25.483"/>
  <line style="fill:none;stroke:#000000;stroke-width:0.7;stroke-linecap:round;" x1="43.55" x2="43.55" y1="-25.483" y2="-25.483"/>
  <line style="fill:none;stroke:#000000;stroke-width:0.7;stroke-linecap:round;" x1="45.83" x2="45.83" y1="-25.483" y2="-25.483"/>
  <line style="fill:none;stroke:#000000;stroke-width:0.7;stroke-linecap:round;" x1="41.163" x2="41.163" y1="-25.483" y2="-25.483"/>
  <line style="fill:none;stroke:#000000;stroke-width:0.7;stroke-linecap:round;" x1="14.987" x2="14.987" y1="-22.546" y2="-22.546"/>
  <line style="fill:none;stroke:#000000;stroke-width:0.7;stroke-linecap:round;" x1="17.268" x2="17.268" y1="-22.546" y2="-22.546"/>
  <line style="fill:none;stroke:#000000;stroke-width:0.7;stroke-linecap:round;" x1="12.601" x2="12.601" y1="-22.546" y2="-22.546"/>
  <line style="fill:none;stroke:#000000;stroke-width:0.7;stroke-linecap:round;" x1="33.237" x2="33.237" y1="-22.546" y2="-22.546"/>
  <line style="fill:none;stroke:#000000;stroke-width:0.7;stroke-linecap:round;" x1="35.518" x2="35.518" y1="-22.546" y2="-22.546"/>
  <line style="fill:none;stroke:#000000;stroke-width:0.7;stroke-linecap:round;" x1="30.851" x2="30.851" y1="-22.546" y2="-22.546"/>
  <line style="fill:none;stroke:#000000;stroke-width:0.7;stroke-linecap:round;" x1="51.027" x2="51.027" y1="-22.546" y2="-22.546"/>
  <line style="fill:none;stroke:#000000;stroke-width:0.7;stroke-linecap:round;" x1="53.307" x2="53.307" y1="-22.546" y2="-22.546"/>
  <line style="fill:none;stroke:#000000;stroke-width:0.7;stroke-linecap:round;" x1="48.641" x2="48.641" y1="-22.546" y2="-22.546"/>
  <line style="fill:none;stroke:#000000;stroke-width:0.7;stroke-linecap:round;" x1="24.987" x2="24.987" y1="-19.421" y2="-19.421"/>
  <line style="fill:none;stroke:#000000;stroke-width:0.7;stroke-linecap:round;" x1="27.268" x2="27.268" y1="-19.421" y2="-19.421"/>
  <line style="fill:none;stroke:#000000;stroke-width:0.7;stroke-linecap:round;" x1="22.601" x2="22.601" y1="-19.421" y2="-19.421"/>
  <line style="fill:none;stroke:#000000;stroke-width:0.7;stroke-linecap:round;" x1="7.11" x2="7.11" y1="-19.421" y2="-19.421"/>
  <line style="fill:none;stroke:#000000;stroke-width:0.7;stroke-linecap:round;" x1="9.391" x2="9.391" y1="-19.421" y2="-19.421"/>
  <line style="fill:none;stroke:#000000;stroke-width:0.7;stroke-linecap:round;" x1="4.724" x2="4.724" y1="-19.421" y2="-19.421"/>
  <line style="fill:none;stroke:#000000;stroke-width:0.7;stroke-linecap:round;" x1="43.237" x2="43.237" y1="-19.421" y2="-19.421"/>
  <line style="fill:none;stroke:#000000;stroke-width:0.7;stroke-linecap:round;" x1="45.518" x2="45.518" y1="-19.421" y2="-19.421"/>
  <line style="fill:none;stroke:#000000;stroke-width:0.7;stroke-linecap:round;" x1="40.851" x2="40.851" y1="-19.421" y2="-19.421"/>
  <line style="fill:none;stroke:#000000;stroke-width:0.7;stroke-linecap:round;" x1="17.175" x2="17.175" y1="-16.421" y2="-16.421"/>
  <line style="fill:none;stroke:#000000;stroke-width:0.7;stroke-linecap:round;" x1="19.455" x2="19.455" y1="-16.421" y2="-16.421"/>
  <line style="fill:none;stroke:#000000;stroke-width:0.7;stroke-linecap:round;" x1="14.788" x2="14.788" y1="-16.421" y2="-16.421"/>
  <line style="fill:none;stroke:#000000;stroke-width:0.7;stroke-linecap:round;" x1="1.578" x2="1.578" y1="-16.421" y2="-16.421"/>
  <line style="fill:none;stroke:#000000;stroke-width:0.7;stroke-linecap:round;" x1="35.425" x2="35.425" y1="-16.421" y2="-16.421"/>
  <line style="fill:none;stroke:#000000;stroke-width:0.7;stroke-linecap:round;" x1="37.705" x2="37.705" y1="-16.421" y2="-16.421"/>
  <line style="fill:none;stroke:#000000;stroke-width:0.7;stroke-linecap:round;" x1="33.038" x2="33.038" y1="-16.421" y2="-16.421"/>
  <line style="fill:none;stroke:#000000;stroke-width:0.7;stroke-linecap:round;" x1="53.215" x2="53.215" y1="-16.421" y2="-16.421"/>
  <line style="fill:none;stroke:#000000;stroke-width:0.7;stroke-linecap:round;" x1="50.828" x2="50.828" y1="-16.421" y2="-16.421"/>
  <line style="fill:none;stroke:#000000;stroke-width:0.7;stroke-linecap:round;" x1="27.362" x2="27.362" y1="-13.421" y2="-13.421"/>
  <line style="fill:none;stroke:#000000;stroke-width:0.7;stroke-linecap:round;" x1="29.643" x2="29.643" y1="-13.421" y2="-13.421"/>
  <line style="fill:none;stroke:#000000;stroke-width:0.7;stroke-linecap:round;" x1="24.976" x2="24.976" y1="-13.421" y2="-13.421"/>
  <line style="fill:none;stroke:#000000;stroke-width:0.7;stroke-linecap:round;" x1="9.485" x2="9.485" y1="-13.421" y2="-13.421"/>
  <line style="fill:none;stroke:#000000;stroke-width:0.7;stroke-linecap:round;" x1="11.766" x2="11.766" y1="-13.421" y2="-13.421"/>
  <line style="fill:none;stroke:#000000;stroke-width:0.7;stroke-linecap:round;" x1="7.099" x2="7.099" y1="-13.421" y2="-13.421"/>
  <line style="fill:none;stroke:#000000;stroke-width:0.7;stroke-linecap:round;" x1="45.612" x2="45.612" y1="-13.421" y2="-13.421"/>
  <line style="fill:none;stroke:#000000;stroke-width:0.7;stroke-linecap:round;" x1="47.893" x2="47.893" y1="-13.421" y2="-13.421"/>
  <line style="fill:none;stroke:#000000;stroke-width:0.7;stroke-linecap:round;" x1="43.226" x2="43.226" y1="-13.421" y2="-13.421"/>
  <line style="fill:none;stroke:#000000;stroke-width:0.7;stroke-linecap:round;" x1="19.175" x2="19.175" y1="-10.608" y2="-10.608"/>
  <line style="fill:none;stroke:#000000;stroke-width:0.7;stroke-linecap:round;" x1="21.455" x2="21.455" y1="-10.608" y2="-10.608"/>
  <line style="fill:none;stroke:#000000;stroke-width:0.7;stroke-linecap:round;" x1="16.788" x2="16.788" y1="-10.608" y2="-10.608"/>
  <line style="fill:none;stroke:#000000;stroke-width:0.7;stroke-linecap:round;" x1="1.298" x2="1.298" y1="-10.608" y2="-10.608"/>
  <line style="fill:none;stroke:#000000;stroke-width:0.7;stroke-linecap:round;" x1="3.578" x2="3.578" y1="-10.608" y2="-10.608"/>
  <line style="fill:none;stroke:#000000;stroke-width:0.7;stroke-linecap:round;" x1="37.425" x2="37.425" y1="-10.608" y2="-10.608"/>
  <line style="fill:none;stroke:#000000;stroke-width:0.7;stroke-linecap:round;" x1="39.705" x2="39.705" y1="-10.608" y2="-10.608"/>
  <line style="fill:none;stroke:#000000;stroke-width:0.7;stroke-linecap:round;" x1="35.038" x2="35.038" y1="-10.608" y2="-10.608"/>
  <line style="fill:none;stroke:#000000;stroke-width:0.7;stroke-linecap:round;" x1="52.828" x2="52.828" y1="-10.608" y2="-10.608"/>
  <line style="fill:none;stroke:#000000;stroke-width:0.7;stroke-linecap:round;" x1="29.05" x2="29.05" y1="-7.296" y2="-7.296"/>
  <line style="fill:none;stroke:#000000;stroke-width:0.7;stroke-linecap:round;" x1="31.33" x2="31.33" y1="-7.296" y2="-7.296"/>
  <line style="fill:none;stroke:#000000;stroke-width:0.7;stroke-linecap:round;" x1="26.663" x2="26.663" y1="-7.296" y2="-7.296"/>
  <line style="fill:none;stroke:#000000;stroke-width:0.7;stroke-linecap:round;" x1="11.173" x2="11.173" y1="-7.296" y2="-7.296"/>
  <line style="fill:none;stroke:#000000;stroke-width:0.7;stroke-linecap:round;" x1="13.453" x2="13.453" y1="-7.296" y2="-7.296"/>
  <line style="fill:none;stroke:#000000;stroke-width:0.7;stroke-linecap:round;" x1="8.786" x2="8.786" y1="-7.296" y2="-7.296"/>
  <line style="fill:none;stroke:#000000;stroke-width:0.7;stroke-linecap:round;" x1="47.3" x2="47.3" y1="-7.296" y2="-7.296"/>
  <line style="fill:none;stroke:#000000;stroke-width:0.7;stroke-linecap:round;" x1="49.58" x2="49.58" y1="-7.296" y2="-7.296"/>
  <line style="fill:none;stroke:#000000;stroke-width:0.7;stroke-linecap:round;" x1="44.913" x2="44.913" y1="-7.296" y2="-7.296"/>
  <line style="fill:none;stroke:#000000;stroke-width:0.7;stroke-linecap:round;" x1="19.237" x2="19.237" y1="-4.421" y2="-4.421"/>
  <line style="fill:none;stroke:#000000;stroke-width:0.7;stroke-linecap:round;" x1="21.518" x2="21.518" y1="-4.421" y2="-4.421"/>
  <line style="fill:none;stroke:#000000;stroke-width:0.7;stroke-linecap:round;" x1="16.851" x2="16.851" y1="-4.421" y2="-4.421"/>
  <line style="fill:none;stroke:#000000;stroke-width:0.7;stroke-linecap:round;" x1="1.36" x2="1.36" y1="-4.421" y2="-4.421"/>
  <line style="fill:none;stroke:#000000;stroke-width:0.7;stroke-linecap:round;" x1="3.641" x2="3.641" y1="-4.421" y2="-4.421"/>
  <line style="fill:none;stroke:#000000;stroke-width:0.7;stroke-linecap:round;" x1="37.487" x2="37.487" y1="-4.421" y2="-4.421"/>
  <line style="fill:none;stroke:#000000;stroke-width:0.7;stroke-linecap:round;" x1="39.768" x2="39.768" y1="-4.421" y2="-4.421"/>
  <line style="fill:none;stroke:#000000;stroke-width:0.7;stroke-linecap:round;" x1="35.101" x2="35.101" y1="-4.421" y2="-4.421"/>
  <line style="fill:none;stroke:#000000;stroke-width:0.7;stroke-linecap:round;" x1="52.891" x2="52.891" y1="-4.421" y2="-4.421"/>
  <line style="fill:none;stroke:#000000;stroke-width:0.7;stroke-linecap:round;" x1="27.425" x2="27.425" y1="-1.296" y2="-1.296"/>
  <line style="fill:none;stroke:#000000;stroke-width:0.7;stroke-linecap:round;" x1="29.705" x2="29.705" y1="-1.296" y2="-1.296"/>
  <line style="fill:none;stroke:#000000;stroke-width:0.7;stroke-linecap:round;" x1="25.038" x2="25.038" y1="-1.296" y2="-1.296"/>
  <line style="fill:none;stroke:#000000;stroke-width:0.7;stroke-linecap:round;" x1="9.548" x2="9.548" y1="-1.296" y2="-1.296"/>
  <line style="fill:none;stroke:#000000;stroke-width:0.7;stroke-linecap:round;" x1="11.828" x2="11.828" y1="-1.296" y2="-1.296"/>
  <line style="fill:none;stroke:#000000;stroke-width:0.7;stroke-linecap:round;" x1="7.161" x2="7.161" y1="-1.296" y2="-1.296"/>
  <line style="fill:none;stroke:#000000;stroke-width:0.7;stroke-linecap:round;" x1="45.675" x2="45.675" y1="-1.296" y2="-1.296"/>
  <line style="fill:none;stroke:#000000;stroke-width:0.7;stroke-linecap:round;" x1="47.955" x2="47.955" y1="-1.296" y2="-1.296"/>
  <line style="fill:none;stroke:#000000;stroke-width:0.7;stroke-linecap:round;" x1="43.288" x2="43.288" y1="-1.296" y2="-1.296"/>
 </g>
</svg>
