<?xml version="1.0" encoding="utf-8"?>
<svg xmlns="http://www.w3.org/2000/svg" version="1.1" x="0px" y="0px" xml:space="preserve" width="53.584" height="53.583" viewBox="0.163 -53.583 53.584 53.583">
	<g>
		<rect x="0.163" y="-53.583" style="fill:none;" width="53.584" height="53.583"/>
		<line style="fill:none;stroke:#000000;stroke-width:0.3;" x1="4.279" y1="-51.754" x2="0.163" y2="-51.754"/>
		<line style="fill:none;stroke:#000000;stroke-width:0.3;" x1="7.483" y1="-51.754" x2="13.229" y2="-51.754"/>
		<line style="fill:none;stroke:#000000;stroke-width:0.3;" x1="16.399" y1="-51.754" x2="22.146" y2="-51.754"/>
		<line style="fill:none;stroke:#000000;stroke-width:0.3;" x1="25.316" y1="-51.754" x2="31.062" y2="-51.754"/>
		<line style="fill:none;stroke:#000000;stroke-width:0.3;" x1="34.233" y1="-51.754" x2="39.979" y2="-51.754"/>
		<line style="fill:none;stroke:#000000;stroke-width:0.3;" x1="43.149" y1="-51.754" x2="48.895" y2="-51.754"/>
		<line style="fill:none;stroke:#000000;stroke-width:0.3;" x1="52.066" y1="-51.754" x2="53.747" y2="-51.754"/>
		<line style="fill:none;stroke:#000000;stroke-width:0.3;" x1="8.611" y1="-48.618" x2="2.865" y2="-48.618"/>
		<line style="fill:none;stroke:#000000;stroke-width:0.3;" x1="17.527" y1="-48.618" x2="11.782" y2="-48.618"/>
		<line style="fill:none;stroke:#000000;stroke-width:0.3;" x1="26.444" y1="-48.618" x2="20.699" y2="-48.618"/>
		<line style="fill:none;stroke:#000000;stroke-width:0.3;" x1="35.36" y1="-48.618" x2="29.615" y2="-48.618"/>
		<line style="fill:none;stroke:#000000;stroke-width:0.3;" x1="44.277" y1="-48.618" x2="38.532" y2="-48.618"/>
		<line style="fill:none;stroke:#000000;stroke-width:0.3;" x1="47.449" y1="-48.618" x2="53.194" y2="-48.618"/>
		<line style="fill:none;stroke:#000000;stroke-width:0.3;" x1="2.527" y1="-45.648" x2="0.163" y2="-45.648"/>
		<line style="fill:none;stroke:#000000;stroke-width:0.3;" x1="11.478" y1="-45.648" x2="5.732" y2="-45.648"/>
		<line style="fill:none;stroke:#000000;stroke-width:0.3;" x1="14.649" y1="-45.648" x2="20.394" y2="-45.648"/>
		<line style="fill:none;stroke:#000000;stroke-width:0.3;" x1="23.566" y1="-45.648" x2="29.311" y2="-45.648"/>
		<line style="fill:none;stroke:#000000;stroke-width:0.3;" x1="32.481" y1="-45.648" x2="38.227" y2="-45.648"/>
		<line style="fill:none;stroke:#000000;stroke-width:0.3;" x1="41.398" y1="-45.648" x2="47.144" y2="-45.648"/>
		<line style="fill:none;stroke:#000000;stroke-width:0.3;" x1="50.314" y1="-45.648" x2="53.747" y2="-45.648"/>
		<line style="fill:none;stroke:#000000;stroke-width:0.3;" x1="7.814" y1="-42.843" x2="2.069" y2="-42.843"/>
		<line style="fill:none;stroke:#000000;stroke-width:0.3;" x1="16.732" y1="-42.843" x2="10.986" y2="-42.843"/>
		<line style="fill:none;stroke:#000000;stroke-width:0.3;" x1="25.649" y1="-42.843" x2="19.902" y2="-42.843"/>
		<line style="fill:none;stroke:#000000;stroke-width:0.3;" x1="34.564" y1="-42.843" x2="28.819" y2="-42.843"/>
		<line style="fill:none;stroke:#000000;stroke-width:0.3;" x1="43.481" y1="-42.843" x2="37.736" y2="-42.843"/>
		<line style="fill:none;stroke:#000000;stroke-width:0.3;" x1="52.397" y1="-42.843" x2="46.652" y2="-42.843"/>
		<line style="fill:none;stroke:#000000;stroke-width:0.3;" x1="2.209" y1="-39.873" x2="0.163" y2="-39.873"/>
		<line style="fill:none;stroke:#000000;stroke-width:0.3;" x1="5.413" y1="-39.873" x2="11.158" y2="-39.873"/>
		<line style="fill:none;stroke:#000000;stroke-width:0.3;" x1="20.075" y1="-39.873" x2="14.33" y2="-39.873"/>
		<line style="fill:none;stroke:#000000;stroke-width:0.3;" x1="23.246" y1="-39.873" x2="28.992" y2="-39.873"/>
		<line style="fill:none;stroke:#000000;stroke-width:0.3;" x1="32.163" y1="-39.873" x2="37.908" y2="-39.873"/>
		<line style="fill:none;stroke:#000000;stroke-width:0.3;" x1="41.08" y1="-39.873" x2="46.825" y2="-39.873"/>
		<line style="fill:none;stroke:#000000;stroke-width:0.3;" x1="49.996" y1="-39.873" x2="53.747" y2="-39.873"/>
		<line style="fill:none;stroke:#000000;stroke-width:0.3;" x1="0.163" y1="-36.869" x2="0" y2="-36.869"/>
		<line style="fill:none;stroke:#000000;stroke-width:0.3;" x1="5.745" y1="-36.869" x2="0.163" y2="-36.869"/>
		<line style="fill:none;stroke:#000000;stroke-width:0.3;" x1="14.661" y1="-36.869" x2="8.916" y2="-36.869"/>
		<line style="fill:none;stroke:#000000;stroke-width:0.3;" x1="23.578" y1="-36.869" x2="17.833" y2="-36.869"/>
		<line style="fill:none;stroke:#000000;stroke-width:0.3;" x1="26.749" y1="-36.869" x2="32.495" y2="-36.869"/>
		<line style="fill:none;stroke:#000000;stroke-width:0.3;" x1="35.666" y1="-36.869" x2="41.411" y2="-36.869"/>
		<line style="fill:none;stroke:#000000;stroke-width:0.3;" x1="44.583" y1="-36.869" x2="50.328" y2="-36.869"/>
		<line style="fill:none;stroke:#000000;stroke-width:0.3;" x1="53.499" y1="-36.869" x2="53.747" y2="-36.869"/>
		<line style="fill:none;stroke:#000000;stroke-width:0.3;" x1="2.687" y1="-33.986" x2="0.163" y2="-33.986"/>
		<line style="fill:none;stroke:#000000;stroke-width:0.3;" x1="11.637" y1="-33.986" x2="5.891" y2="-33.986"/>
		<line style="fill:none;stroke:#000000;stroke-width:0.3;" x1="20.553" y1="-33.986" x2="14.808" y2="-33.986"/>
		<line style="fill:none;stroke:#000000;stroke-width:0.3;" x1="23.725" y1="-33.986" x2="29.47" y2="-33.986"/>
		<line style="fill:none;stroke:#000000;stroke-width:0.3;" x1="32.641" y1="-33.986" x2="38.386" y2="-33.986"/>
		<line style="fill:none;stroke:#000000;stroke-width:0.3;" x1="41.558" y1="-33.986" x2="47.303" y2="-33.986"/>
		<line style="fill:none;stroke:#000000;stroke-width:0.3;" x1="50.474" y1="-33.986" x2="53.747" y2="-33.986"/>
		<line style="fill:none;stroke:#000000;stroke-width:0.3;" x1="7.178" y1="-30.789" x2="1.433" y2="-30.789"/>
		<line style="fill:none;stroke:#000000;stroke-width:0.3;" x1="16.095" y1="-30.789" x2="10.35" y2="-30.789"/>
		<line style="fill:none;stroke:#000000;stroke-width:0.3;" x1="25.011" y1="-30.789" x2="19.266" y2="-30.789"/>
		<line style="fill:none;stroke:#000000;stroke-width:0.3;" x1="28.183" y1="-30.789" x2="33.928" y2="-30.789"/>
		<line style="fill:none;stroke:#000000;stroke-width:0.3;" x1="37.099" y1="-30.789" x2="42.845" y2="-30.789"/>
		<line style="fill:none;stroke:#000000;stroke-width:0.3;" x1="46.016" y1="-30.789" x2="51.761" y2="-30.789"/>
		<line style="fill:none;stroke:#000000;stroke-width:0.3;" x1="3.961" y1="-27.819" x2="0.163" y2="-27.819"/>
		<line style="fill:none;stroke:#000000;stroke-width:0.3;" x1="12.91" y1="-27.819" x2="7.165" y2="-27.819"/>
		<line style="fill:none;stroke:#000000;stroke-width:0.3;" x1="16.081" y1="-27.819" x2="21.827" y2="-27.819"/>
		<line style="fill:none;stroke:#000000;stroke-width:0.3;" x1="24.998" y1="-27.819" x2="30.743" y2="-27.819"/>
		<line style="fill:none;stroke:#000000;stroke-width:0.3;" x1="39.66" y1="-27.819" x2="33.915" y2="-27.819"/>
		<line style="fill:none;stroke:#000000;stroke-width:0.3;" x1="48.576" y1="-27.819" x2="42.831" y2="-27.819"/>
		<line style="fill:none;stroke:#000000;stroke-width:0.3;" x1="51.748" y1="-27.819" x2="53.747" y2="-27.819"/>
		<line style="fill:none;stroke:#000000;stroke-width:0.3;" x1="2.706" y1="-24.684" x2="8.452" y2="-24.684"/>
		<line style="fill:none;stroke:#000000;stroke-width:0.3;" x1="17.368" y1="-24.684" x2="11.623" y2="-24.684"/>
		<line style="fill:none;stroke:#000000;stroke-width:0.3;" x1="26.285" y1="-24.684" x2="20.54" y2="-24.684"/>
		<line style="fill:none;stroke:#000000;stroke-width:0.3;" x1="29.456" y1="-24.684" x2="35.201" y2="-24.684"/>
		<line style="fill:none;stroke:#000000;stroke-width:0.3;" x1="38.373" y1="-24.684" x2="44.118" y2="-24.684"/>
		<line style="fill:none;stroke:#000000;stroke-width:0.3;" x1="47.29" y1="-24.684" x2="53.035" y2="-24.684"/>
		<line style="fill:none;stroke:#000000;stroke-width:0.3;" x1="3.483" y1="-21.879" x2="0.163" y2="-21.879"/>
		<line style="fill:none;stroke:#000000;stroke-width:0.3;" x1="12.433" y1="-21.879" x2="6.688" y2="-21.879"/>
		<line style="fill:none;stroke:#000000;stroke-width:0.3;" x1="21.349" y1="-21.879" x2="15.604" y2="-21.879"/>
		<line style="fill:none;stroke:#000000;stroke-width:0.3;" x1="24.521" y1="-21.879" x2="30.266" y2="-21.879"/>
		<line style="fill:none;stroke:#000000;stroke-width:0.3;" x1="33.437" y1="-21.879" x2="39.183" y2="-21.879"/>
		<line style="fill:none;stroke:#000000;stroke-width:0.3;" x1="42.354" y1="-21.879" x2="48.099" y2="-21.879"/>
		<line style="fill:none;stroke:#000000;stroke-width:0.3;" x1="51.271" y1="-21.879" x2="53.747" y2="-21.879"/>
		<line style="fill:none;stroke:#000000;stroke-width:0.3;" x1="7.337" y1="-18.744" x2="1.592" y2="-18.744"/>
		<line style="fill:none;stroke:#000000;stroke-width:0.3;" x1="16.254" y1="-18.744" x2="10.509" y2="-18.744"/>
		<line style="fill:none;stroke:#000000;stroke-width:0.3;" x1="25.17" y1="-18.744" x2="19.425" y2="-18.744"/>
		<line style="fill:none;stroke:#000000;stroke-width:0.3;" x1="28.342" y1="-18.744" x2="34.087" y2="-18.744"/>
		<line style="fill:none;stroke:#000000;stroke-width:0.3;" x1="43.004" y1="-18.744" x2="37.259" y2="-18.744"/>
		<line style="fill:none;stroke:#000000;stroke-width:0.3;" x1="46.175" y1="-18.744" x2="51.92" y2="-18.744"/>
		<line style="fill:none;stroke:#000000;stroke-width:0.3;" x1="2.687" y1="-15.774" x2="0.163" y2="-15.774"/>
		<line style="fill:none;stroke:#000000;stroke-width:0.3;" x1="5.891" y1="-15.774" x2="11.637" y2="-15.774"/>
		<line style="fill:none;stroke:#000000;stroke-width:0.3;" x1="14.808" y1="-15.774" x2="20.553" y2="-15.774"/>
		<line style="fill:none;stroke:#000000;stroke-width:0.3;" x1="23.725" y1="-15.774" x2="29.47" y2="-15.774"/>
		<line style="fill:none;stroke:#000000;stroke-width:0.3;" x1="32.641" y1="-15.774" x2="38.386" y2="-15.774"/>
		<line style="fill:none;stroke:#000000;stroke-width:0.3;" x1="41.558" y1="-15.774" x2="47.303" y2="-15.774"/>
		<line style="fill:none;stroke:#000000;stroke-width:0.3;" x1="50.474" y1="-15.774" x2="53.747" y2="-15.774"/>
		<line style="fill:none;stroke:#000000;stroke-width:0.3;" x1="6.541" y1="-12.804" x2="0.796" y2="-12.804"/>
		<line style="fill:none;stroke:#000000;stroke-width:0.3;" x1="15.458" y1="-12.804" x2="9.712" y2="-12.804"/>
		<line style="fill:none;stroke:#000000;stroke-width:0.3;" x1="24.374" y1="-12.804" x2="18.629" y2="-12.804"/>
		<line style="fill:none;stroke:#000000;stroke-width:0.3;" x1="33.291" y1="-12.804" x2="27.546" y2="-12.804"/>
		<line style="fill:none;stroke:#000000;stroke-width:0.3;" x1="36.462" y1="-12.804" x2="42.207" y2="-12.804"/>
		<line style="fill:none;stroke:#000000;stroke-width:0.3;" x1="51.124" y1="-12.804" x2="45.379" y2="-12.804"/>
		<line style="fill:none;stroke:#000000;stroke-width:0.3;" x1="3.643" y1="-10.008" x2="0.163" y2="-10.008"/>
		<line style="fill:none;stroke:#000000;stroke-width:0.3;" x1="12.592" y1="-10.008" x2="6.847" y2="-10.008"/>
		<line style="fill:none;stroke:#000000;stroke-width:0.3;" x1="15.763" y1="-10.008" x2="21.508" y2="-10.008"/>
		<line style="fill:none;stroke:#000000;stroke-width:0.3;" x1="24.68" y1="-10.008" x2="30.425" y2="-10.008"/>
		<line style="fill:none;stroke:#000000;stroke-width:0.3;" x1="33.597" y1="-10.008" x2="39.342" y2="-10.008"/>
		<line style="fill:none;stroke:#000000;stroke-width:0.3;" x1="42.513" y1="-10.008" x2="48.258" y2="-10.008"/>
		<line style="fill:none;stroke:#000000;stroke-width:0.3;" x1="51.43" y1="-10.008" x2="53.747" y2="-10.008"/>
		<line style="fill:none;stroke:#000000;stroke-width:0.3;" x1="8.771" y1="-6.873" x2="3.024" y2="-6.873"/>
		<line style="fill:none;stroke:#000000;stroke-width:0.3;" x1="17.687" y1="-6.873" x2="11.941" y2="-6.873"/>
		<line style="fill:none;stroke:#000000;stroke-width:0.3;" x1="26.604" y1="-6.873" x2="20.858" y2="-6.873"/>
		<line style="fill:none;stroke:#000000;stroke-width:0.3;" x1="35.521" y1="-6.873" x2="29.774" y2="-6.873"/>
		<line style="fill:none;stroke:#000000;stroke-width:0.3;" x1="38.691" y1="-6.873" x2="44.437" y2="-6.873"/>
		<line style="fill:none;stroke:#000000;stroke-width:0.3;" x1="47.608" y1="-6.873" x2="53.354" y2="-6.873"/>
		<line style="fill:none;stroke:#000000;stroke-width:0.3;" x1="0.163" y1="-3.903" x2="5.234" y2="-3.903"/>
		<line style="fill:none;stroke:#000000;stroke-width:0.3;" x1="8.439" y1="-3.903" x2="14.184" y2="-3.903"/>
		<line style="fill:none;stroke:#000000;stroke-width:0.3;" x1="17.355" y1="-3.903" x2="23.101" y2="-3.903"/>
		<line style="fill:none;stroke:#000000;stroke-width:0.3;" x1="26.271" y1="-3.903" x2="32.018" y2="-3.903"/>
		<line style="fill:none;stroke:#000000;stroke-width:0.3;" x1="35.188" y1="-3.903" x2="40.934" y2="-3.903"/>
		<line style="fill:none;stroke:#000000;stroke-width:0.3;" x1="44.105" y1="-3.903" x2="49.851" y2="-3.903"/>
		<line style="fill:none;stroke:#000000;stroke-width:0.3;" x1="53.021" y1="-3.903" x2="53.747" y2="-3.903"/>
		<line style="fill:none;stroke:#000000;stroke-width:0.3;" x1="9.089" y1="-0.933" x2="3.344" y2="-0.933"/>
		<line style="fill:none;stroke:#000000;stroke-width:0.3;" x1="18.005" y1="-0.933" x2="12.26" y2="-0.933"/>
		<line style="fill:none;stroke:#000000;stroke-width:0.3;" x1="26.922" y1="-0.933" x2="21.177" y2="-0.933"/>
		<line style="fill:none;stroke:#000000;stroke-width:0.3;" x1="35.839" y1="-0.933" x2="30.093" y2="-0.933"/>
		<line style="fill:none;stroke:#000000;stroke-width:0.3;" x1="44.755" y1="-0.933" x2="39.01" y2="-0.933"/>
		<line style="fill:none;stroke:#000000;stroke-width:0.3;" x1="53.672" y1="-0.933" x2="47.927" y2="-0.933"/>

			<line style="fill:none;stroke:#000000;stroke-width:0.7;stroke-linecap:round;" x1="5.919" y1="-51.687" x2="5.919" y2="-51.687"/>

			<line style="fill:none;stroke:#000000;stroke-width:0.7;stroke-linecap:round;" x1="14.896" y1="-51.687" x2="14.896" y2="-51.687"/>

			<line style="fill:none;stroke:#000000;stroke-width:0.7;stroke-linecap:round;" x1="23.812" y1="-51.687" x2="23.812" y2="-51.687"/>

			<line style="fill:none;stroke:#000000;stroke-width:0.7;stroke-linecap:round;" x1="32.755" y1="-51.687" x2="32.755" y2="-51.687"/>

			<line style="fill:none;stroke:#000000;stroke-width:0.7;stroke-linecap:round;" x1="41.642" y1="-51.687" x2="41.642" y2="-51.687"/>

			<line style="fill:none;stroke:#000000;stroke-width:0.7;stroke-linecap:round;" x1="50.589" y1="-51.687" x2="50.589" y2="-51.687"/>
		<line style="fill:none;stroke:#000000;stroke-width:0.7;stroke-linecap:round;" x1="1.222" y1="-48.61" x2="1.222" y2="-48.61"/>

			<line style="fill:none;stroke:#000000;stroke-width:0.7;stroke-linecap:round;" x1="10.198" y1="-48.61" x2="10.198" y2="-48.61"/>

			<line style="fill:none;stroke:#000000;stroke-width:0.7;stroke-linecap:round;" x1="19.115" y1="-48.61" x2="19.115" y2="-48.61"/>

			<line style="fill:none;stroke:#000000;stroke-width:0.7;stroke-linecap:round;" x1="28.059" y1="-48.61" x2="28.059" y2="-48.61"/>

			<line style="fill:none;stroke:#000000;stroke-width:0.7;stroke-linecap:round;" x1="36.945" y1="-48.61" x2="36.945" y2="-48.61"/>

			<line style="fill:none;stroke:#000000;stroke-width:0.7;stroke-linecap:round;" x1="45.892" y1="-48.61" x2="45.892" y2="-48.61"/>
		<line style="fill:none;stroke:#000000;stroke-width:0.7;stroke-linecap:round;" x1="4.195" y1="-45.61" x2="4.195" y2="-45.61"/>

			<line style="fill:none;stroke:#000000;stroke-width:0.7;stroke-linecap:round;" x1="13.172" y1="-45.61" x2="13.172" y2="-45.61"/>

			<line style="fill:none;stroke:#000000;stroke-width:0.7;stroke-linecap:round;" x1="22.089" y1="-45.61" x2="22.089" y2="-45.61"/>

			<line style="fill:none;stroke:#000000;stroke-width:0.7;stroke-linecap:round;" x1="31.032" y1="-45.61" x2="31.032" y2="-45.61"/>

			<line style="fill:none;stroke:#000000;stroke-width:0.7;stroke-linecap:round;" x1="39.919" y1="-45.61" x2="39.919" y2="-45.61"/>

			<line style="fill:none;stroke:#000000;stroke-width:0.7;stroke-linecap:round;" x1="48.865" y1="-45.61" x2="48.865" y2="-45.61"/>

			<line style="fill:none;stroke:#000000;stroke-width:0.7;stroke-linecap:round;" x1="0.555" y1="-42.776" x2="0.555" y2="-42.776"/>

			<line style="fill:none;stroke:#000000;stroke-width:0.7;stroke-linecap:round;" x1="9.532" y1="-42.776" x2="9.532" y2="-42.776"/>

			<line style="fill:none;stroke:#000000;stroke-width:0.7;stroke-linecap:round;" x1="18.448" y1="-42.776" x2="18.448" y2="-42.776"/>

			<line style="fill:none;stroke:#000000;stroke-width:0.7;stroke-linecap:round;" x1="27.392" y1="-42.776" x2="27.392" y2="-42.776"/>

			<line style="fill:none;stroke:#000000;stroke-width:0.7;stroke-linecap:round;" x1="36.278" y1="-42.776" x2="36.278" y2="-42.776"/>

			<line style="fill:none;stroke:#000000;stroke-width:0.7;stroke-linecap:round;" x1="45.226" y1="-42.776" x2="45.226" y2="-42.776"/>
		<line style="fill:none;stroke:#000000;stroke-width:0.7;stroke-linecap:round;" x1="3.778" y1="-39.86" x2="3.778" y2="-39.86"/>

			<line style="fill:none;stroke:#000000;stroke-width:0.7;stroke-linecap:round;" x1="12.755" y1="-39.86" x2="12.755" y2="-39.86"/>

			<line style="fill:none;stroke:#000000;stroke-width:0.7;stroke-linecap:round;" x1="21.672" y1="-39.86" x2="21.672" y2="-39.86"/>

			<line style="fill:none;stroke:#000000;stroke-width:0.7;stroke-linecap:round;" x1="30.615" y1="-39.86" x2="30.615" y2="-39.86"/>

			<line style="fill:none;stroke:#000000;stroke-width:0.7;stroke-linecap:round;" x1="39.502" y1="-39.86" x2="39.502" y2="-39.86"/>

			<line style="fill:none;stroke:#000000;stroke-width:0.7;stroke-linecap:round;" x1="48.448" y1="-39.86" x2="48.448" y2="-39.86"/>
		<line style="fill:none;stroke:#000000;stroke-width:0.7;stroke-linecap:round;" x1="7.332" y1="-36.86" x2="7.332" y2="-36.86"/>

			<line style="fill:none;stroke:#000000;stroke-width:0.7;stroke-linecap:round;" x1="16.309" y1="-36.86" x2="16.309" y2="-36.86"/>

			<line style="fill:none;stroke:#000000;stroke-width:0.7;stroke-linecap:round;" x1="25.226" y1="-36.86" x2="25.226" y2="-36.86"/>

			<line style="fill:none;stroke:#000000;stroke-width:0.7;stroke-linecap:round;" x1="34.169" y1="-36.86" x2="34.169" y2="-36.86"/>

			<line style="fill:none;stroke:#000000;stroke-width:0.7;stroke-linecap:round;" x1="43.055" y1="-36.86" x2="43.055" y2="-36.86"/>

			<line style="fill:none;stroke:#000000;stroke-width:0.7;stroke-linecap:round;" x1="52.002" y1="-36.86" x2="52.002" y2="-36.86"/>

			<line style="fill:none;stroke:#000000;stroke-width:0.7;stroke-linecap:round;" x1="4.222" y1="-34.026" x2="4.222" y2="-34.026"/>

			<line style="fill:none;stroke:#000000;stroke-width:0.7;stroke-linecap:round;" x1="13.198" y1="-34.026" x2="13.198" y2="-34.026"/>

			<line style="fill:none;stroke:#000000;stroke-width:0.7;stroke-linecap:round;" x1="22.115" y1="-34.026" x2="22.115" y2="-34.026"/>

			<line style="fill:none;stroke:#000000;stroke-width:0.7;stroke-linecap:round;" x1="31.059" y1="-34.026" x2="31.059" y2="-34.026"/>

			<line style="fill:none;stroke:#000000;stroke-width:0.7;stroke-linecap:round;" x1="39.945" y1="-34.026" x2="39.945" y2="-34.026"/>

			<line style="fill:none;stroke:#000000;stroke-width:0.7;stroke-linecap:round;" x1="48.892" y1="-34.026" x2="48.892" y2="-34.026"/>
		<line style="fill:none;stroke:#000000;stroke-width:0.7;stroke-linecap:round;" x1="8.809" y1="-30.86" x2="8.809" y2="-30.86"/>

			<line style="fill:none;stroke:#000000;stroke-width:0.7;stroke-linecap:round;" x1="17.785" y1="-30.86" x2="17.785" y2="-30.86"/>

			<line style="fill:none;stroke:#000000;stroke-width:0.7;stroke-linecap:round;" x1="26.702" y1="-30.86" x2="26.702" y2="-30.86"/>

			<line style="fill:none;stroke:#000000;stroke-width:0.7;stroke-linecap:round;" x1="35.646" y1="-30.86" x2="35.646" y2="-30.86"/>

			<line style="fill:none;stroke:#000000;stroke-width:0.7;stroke-linecap:round;" x1="44.532" y1="-30.86" x2="44.532" y2="-30.86"/>

			<line style="fill:none;stroke:#000000;stroke-width:0.7;stroke-linecap:round;" x1="53.479" y1="-30.86" x2="53.479" y2="-30.86"/>

			<line style="fill:none;stroke:#000000;stroke-width:0.7;stroke-linecap:round;" x1="5.502" y1="-27.776" x2="5.502" y2="-27.776"/>

			<line style="fill:none;stroke:#000000;stroke-width:0.7;stroke-linecap:round;" x1="14.479" y1="-27.776" x2="14.479" y2="-27.776"/>

			<line style="fill:none;stroke:#000000;stroke-width:0.7;stroke-linecap:round;" x1="23.396" y1="-27.776" x2="23.396" y2="-27.776"/>

			<line style="fill:none;stroke:#000000;stroke-width:0.7;stroke-linecap:round;" x1="32.339" y1="-27.776" x2="32.339" y2="-27.776"/>

			<line style="fill:none;stroke:#000000;stroke-width:0.7;stroke-linecap:round;" x1="41.226" y1="-27.776" x2="41.226" y2="-27.776"/>

			<line style="fill:none;stroke:#000000;stroke-width:0.7;stroke-linecap:round;" x1="50.172" y1="-27.776" x2="50.172" y2="-27.776"/>

			<line style="fill:none;stroke:#000000;stroke-width:0.7;stroke-linecap:round;" x1="9.919" y1="-24.637" x2="9.919" y2="-24.637"/>

			<line style="fill:none;stroke:#000000;stroke-width:0.7;stroke-linecap:round;" x1="1.163" y1="-24.637" x2="1.163" y2="-24.637"/>

			<line style="fill:none;stroke:#000000;stroke-width:0.7;stroke-linecap:round;" x1="18.896" y1="-24.637" x2="18.896" y2="-24.637"/>

			<line style="fill:none;stroke:#000000;stroke-width:0.7;stroke-linecap:round;" x1="27.812" y1="-24.637" x2="27.812" y2="-24.637"/>

			<line style="fill:none;stroke:#000000;stroke-width:0.7;stroke-linecap:round;" x1="36.755" y1="-24.637" x2="36.755" y2="-24.637"/>

			<line style="fill:none;stroke:#000000;stroke-width:0.7;stroke-linecap:round;" x1="45.642" y1="-24.637" x2="45.642" y2="-24.637"/>

			<line style="fill:none;stroke:#000000;stroke-width:0.7;stroke-linecap:round;" x1="5.119" y1="-21.887" x2="5.119" y2="-21.887"/>

			<line style="fill:none;stroke:#000000;stroke-width:0.7;stroke-linecap:round;" x1="14.096" y1="-21.887" x2="14.096" y2="-21.887"/>

			<line style="fill:none;stroke:#000000;stroke-width:0.7;stroke-linecap:round;" x1="23.012" y1="-21.887" x2="23.012" y2="-21.887"/>

			<line style="fill:none;stroke:#000000;stroke-width:0.7;stroke-linecap:round;" x1="31.955" y1="-21.887" x2="31.955" y2="-21.887"/>

			<line style="fill:none;stroke:#000000;stroke-width:0.7;stroke-linecap:round;" x1="40.842" y1="-21.887" x2="40.842" y2="-21.887"/>

			<line style="fill:none;stroke:#000000;stroke-width:0.7;stroke-linecap:round;" x1="49.789" y1="-21.887" x2="49.789" y2="-21.887"/>

			<line style="fill:none;stroke:#000000;stroke-width:0.7;stroke-linecap:round;" x1="8.722" y1="-18.693" x2="8.722" y2="-18.693"/>

			<line style="fill:none;stroke:#000000;stroke-width:0.7;stroke-linecap:round;" x1="17.698" y1="-18.693" x2="17.698" y2="-18.693"/>

			<line style="fill:none;stroke:#000000;stroke-width:0.7;stroke-linecap:round;" x1="26.615" y1="-18.693" x2="26.615" y2="-18.693"/>

			<line style="fill:none;stroke:#000000;stroke-width:0.7;stroke-linecap:round;" x1="35.559" y1="-18.693" x2="35.559" y2="-18.693"/>

			<line style="fill:none;stroke:#000000;stroke-width:0.7;stroke-linecap:round;" x1="44.445" y1="-18.693" x2="44.445" y2="-18.693"/>

			<line style="fill:none;stroke:#000000;stroke-width:0.7;stroke-linecap:round;" x1="53.392" y1="-18.693" x2="53.392" y2="-18.693"/>

			<line style="fill:none;stroke:#000000;stroke-width:0.7;stroke-linecap:round;" x1="4.305" y1="-15.693" x2="4.305" y2="-15.693"/>

			<line style="fill:none;stroke:#000000;stroke-width:0.7;stroke-linecap:round;" x1="13.282" y1="-15.693" x2="13.282" y2="-15.693"/>

			<line style="fill:none;stroke:#000000;stroke-width:0.7;stroke-linecap:round;" x1="22.198" y1="-15.693" x2="22.198" y2="-15.693"/>

			<line style="fill:none;stroke:#000000;stroke-width:0.7;stroke-linecap:round;" x1="31.142" y1="-15.693" x2="31.142" y2="-15.693"/>

			<line style="fill:none;stroke:#000000;stroke-width:0.7;stroke-linecap:round;" x1="40.028" y1="-15.693" x2="40.028" y2="-15.693"/>

			<line style="fill:none;stroke:#000000;stroke-width:0.7;stroke-linecap:round;" x1="48.976" y1="-15.693" x2="48.976" y2="-15.693"/>

			<line style="fill:none;stroke:#000000;stroke-width:0.7;stroke-linecap:round;" x1="8.055" y1="-12.776" x2="8.055" y2="-12.776"/>

			<line style="fill:none;stroke:#000000;stroke-width:0.7;stroke-linecap:round;" x1="17.032" y1="-12.776" x2="17.032" y2="-12.776"/>

			<line style="fill:none;stroke:#000000;stroke-width:0.7;stroke-linecap:round;" x1="25.948" y1="-12.776" x2="25.948" y2="-12.776"/>

			<line style="fill:none;stroke:#000000;stroke-width:0.7;stroke-linecap:round;" x1="34.892" y1="-12.776" x2="34.892" y2="-12.776"/>

			<line style="fill:none;stroke:#000000;stroke-width:0.7;stroke-linecap:round;" x1="43.778" y1="-12.776" x2="43.778" y2="-12.776"/>

			<line style="fill:none;stroke:#000000;stroke-width:0.7;stroke-linecap:round;" x1="52.726" y1="-12.776" x2="52.726" y2="-12.776"/>
		<line style="fill:none;stroke:#000000;stroke-width:0.7;stroke-linecap:round;" x1="5.222" y1="-9.943" x2="5.222" y2="-9.943"/>

			<line style="fill:none;stroke:#000000;stroke-width:0.7;stroke-linecap:round;" x1="14.198" y1="-9.943" x2="14.198" y2="-9.943"/>

			<line style="fill:none;stroke:#000000;stroke-width:0.7;stroke-linecap:round;" x1="23.115" y1="-9.943" x2="23.115" y2="-9.943"/>

			<line style="fill:none;stroke:#000000;stroke-width:0.7;stroke-linecap:round;" x1="32.059" y1="-9.943" x2="32.059" y2="-9.943"/>

			<line style="fill:none;stroke:#000000;stroke-width:0.7;stroke-linecap:round;" x1="40.945" y1="-9.943" x2="40.945" y2="-9.943"/>

			<line style="fill:none;stroke:#000000;stroke-width:0.7;stroke-linecap:round;" x1="49.892" y1="-9.943" x2="49.892" y2="-9.943"/>
		<line style="fill:none;stroke:#000000;stroke-width:0.7;stroke-linecap:round;" x1="1.389" y1="-6.833" x2="1.389" y2="-6.833"/>

			<line style="fill:none;stroke:#000000;stroke-width:0.7;stroke-linecap:round;" x1="10.365" y1="-6.833" x2="10.365" y2="-6.833"/>

			<line style="fill:none;stroke:#000000;stroke-width:0.7;stroke-linecap:round;" x1="19.282" y1="-6.833" x2="19.282" y2="-6.833"/>

			<line style="fill:none;stroke:#000000;stroke-width:0.7;stroke-linecap:round;" x1="28.226" y1="-6.833" x2="28.226" y2="-6.833"/>

			<line style="fill:none;stroke:#000000;stroke-width:0.7;stroke-linecap:round;" x1="37.111" y1="-6.833" x2="37.111" y2="-6.833"/>

			<line style="fill:none;stroke:#000000;stroke-width:0.7;stroke-linecap:round;" x1="46.059" y1="-6.833" x2="46.059" y2="-6.833"/>
		<line style="fill:none;stroke:#000000;stroke-width:0.7;stroke-linecap:round;" x1="6.805" y1="-3.86" x2="6.805" y2="-3.86"/>
		<line style="fill:none;stroke:#000000;stroke-width:0.7;stroke-linecap:round;" x1="15.782" y1="-3.86" x2="15.782" y2="-3.86"/>
		<line style="fill:none;stroke:#000000;stroke-width:0.7;stroke-linecap:round;" x1="24.698" y1="-3.86" x2="24.698" y2="-3.86"/>
		<line style="fill:none;stroke:#000000;stroke-width:0.7;stroke-linecap:round;" x1="33.642" y1="-3.86" x2="33.642" y2="-3.86"/>
		<line style="fill:none;stroke:#000000;stroke-width:0.7;stroke-linecap:round;" x1="42.528" y1="-3.86" x2="42.528" y2="-3.86"/>
		<line style="fill:none;stroke:#000000;stroke-width:0.7;stroke-linecap:round;" x1="51.476" y1="-3.86" x2="51.476" y2="-3.86"/>
		<line style="fill:none;stroke:#000000;stroke-width:0.7;stroke-linecap:round;" x1="1.639" y1="-0.86" x2="1.639" y2="-0.86"/>
		<line style="fill:none;stroke:#000000;stroke-width:0.7;stroke-linecap:round;" x1="10.615" y1="-0.86" x2="10.615" y2="-0.86"/>
		<line style="fill:none;stroke:#000000;stroke-width:0.7;stroke-linecap:round;" x1="19.532" y1="-0.86" x2="19.532" y2="-0.86"/>
		<line style="fill:none;stroke:#000000;stroke-width:0.7;stroke-linecap:round;" x1="28.476" y1="-0.86" x2="28.476" y2="-0.86"/>
		<line style="fill:none;stroke:#000000;stroke-width:0.7;stroke-linecap:round;" x1="37.361" y1="-0.86" x2="37.361" y2="-0.86"/>
		<line style="fill:none;stroke:#000000;stroke-width:0.7;stroke-linecap:round;" x1="46.309" y1="-0.86" x2="46.309" y2="-0.86"/>
	</g>
</svg>
