<?xml version="1.0"?>
<!-- Converted with SVG Converter - Version 0.9.5 (Compiled Fri Feb 21 09:53:38 2020) - Copyright (C) 2011 Nokia -->
<svg xmlns="http://www.w3.org/2000/svg" xmlns:xlink="http://www.w3.org/1999/xlink" y="0px" xml:space="preserve" viewBox="0 -53.584 53.584 53.584" x="0px" baseProfile="tiny" height="53.584" width="53.584" version="1.1">
 <g>
  <rect y="-53.584" x="0" style="fill:none;" height="53.584" width="53.584"/>
  <line x1="3.776" y1="-52.32" style="fill:none;stroke:#000000;stroke-width:0.3;" y2="-52.32" x2="0"/>
  <line x1="6.357" y1="-52.32" style="fill:none;stroke:#000000;stroke-width:0.3;" y2="-52.32" x2="12.726"/>
  <line x1="15.273" y1="-52.32" style="fill:none;stroke:#000000;stroke-width:0.3;" y2="-52.32" x2="21.643"/>
  <line x1="24.19" y1="-52.32" style="fill:none;stroke:#000000;stroke-width:0.3;" y2="-52.32" x2="30.559"/>
  <line x1="33.106" y1="-52.32" style="fill:none;stroke:#000000;stroke-width:0.3;" y2="-52.32" x2="39.476"/>
  <line x1="42.023" y1="-52.32" style="fill:none;stroke:#000000;stroke-width:0.3;" y2="-52.32" x2="48.393"/>
  <line x1="53.584" y1="-52.32" style="fill:none;stroke:#000000;stroke-width:0.3;" y2="-52.32" x2="50.939"/>
  <line x1="8.108" y1="-49.186" style="fill:none;stroke:#000000;stroke-width:0.3;" y2="-49.186" x2="1.739"/>
  <line x1="17.024" y1="-49.186" style="fill:none;stroke:#000000;stroke-width:0.3;" y2="-49.186" x2="10.655"/>
  <line x1="25.941" y1="-49.186" style="fill:none;stroke:#000000;stroke-width:0.3;" y2="-49.186" x2="19.572"/>
  <line x1="34.858" y1="-49.186" style="fill:none;stroke:#000000;stroke-width:0.3;" y2="-49.186" x2="28.489"/>
  <line x1="43.774" y1="-49.186" style="fill:none;stroke:#000000;stroke-width:0.3;" y2="-49.186" x2="37.405"/>
  <line x1="46.322" y1="-49.186" style="fill:none;stroke:#000000;stroke-width:0.3;" y2="-49.186" x2="52.691"/>
  <line x1="0" y1="-46.216" style="fill:none;stroke:#000000;stroke-width:0.3;" y2="-46.216" x2="2.024"/>
  <line x1="10.975" y1="-46.216" style="fill:none;stroke:#000000;stroke-width:0.3;" y2="-46.216" x2="4.606"/>
  <line x1="13.521" y1="-46.216" style="fill:none;stroke:#000000;stroke-width:0.3;" y2="-46.216" x2="19.891"/>
  <line x1="22.438" y1="-46.216" style="fill:none;stroke:#000000;stroke-width:0.3;" y2="-46.216" x2="28.808"/>
  <line x1="31.355" y1="-46.216" style="fill:none;stroke:#000000;stroke-width:0.3;" y2="-46.216" x2="37.724"/>
  <line x1="40.271" y1="-46.216" style="fill:none;stroke:#000000;stroke-width:0.3;" y2="-46.216" x2="46.641"/>
  <line x1="49.188" y1="-46.216" style="fill:none;stroke:#000000;stroke-width:0.3;" y2="-46.216" x2="53.584"/>
  <line x1="7.312" y1="-43.411" style="fill:none;stroke:#000000;stroke-width:0.3;" y2="-43.411" x2="0.943"/>
  <line x1="16.229" y1="-43.411" style="fill:none;stroke:#000000;stroke-width:0.3;" y2="-43.411" x2="9.859"/>
  <line x1="25.146" y1="-43.411" style="fill:none;stroke:#000000;stroke-width:0.3;" y2="-43.411" x2="18.776"/>
  <line x1="34.062" y1="-43.411" style="fill:none;stroke:#000000;stroke-width:0.3;" y2="-43.411" x2="27.692"/>
  <line x1="42.979" y1="-43.411" style="fill:none;stroke:#000000;stroke-width:0.3;" y2="-43.411" x2="36.609"/>
  <line x1="45.526" y1="-43.411" style="fill:none;stroke:#000000;stroke-width:0.3;" y2="-43.411" x2="51.896"/>
  <line x1="1.706" y1="-40.44" style="fill:none;stroke:#000000;stroke-width:0.3;" y2="-40.44" x2="0"/>
  <line x1="4.287" y1="-40.44" style="fill:none;stroke:#000000;stroke-width:0.3;" y2="-40.44" x2="10.655"/>
  <line x1="19.572" y1="-40.44" style="fill:none;stroke:#000000;stroke-width:0.3;" y2="-40.44" x2="13.203"/>
  <line x1="22.12" y1="-40.44" style="fill:none;stroke:#000000;stroke-width:0.3;" y2="-40.44" x2="28.489"/>
  <line x1="31.036" y1="-40.44" style="fill:none;stroke:#000000;stroke-width:0.3;" y2="-40.44" x2="37.405"/>
  <line x1="39.953" y1="-40.44" style="fill:none;stroke:#000000;stroke-width:0.3;" y2="-40.44" x2="46.322"/>
  <line x1="48.87" y1="-40.44" style="fill:none;stroke:#000000;stroke-width:0.3;" y2="-40.44" x2="53.584"/>
  <line x1="5.242" y1="-37.437" style="fill:none;stroke:#000000;stroke-width:0.3;" y2="-37.437" x2="0"/>
  <line x1="14.159" y1="-37.437" style="fill:none;stroke:#000000;stroke-width:0.3;" y2="-37.437" x2="7.79"/>
  <line x1="23.075" y1="-37.437" style="fill:none;stroke:#000000;stroke-width:0.3;" y2="-37.437" x2="16.706"/>
  <line x1="25.623" y1="-37.437" style="fill:none;stroke:#000000;stroke-width:0.3;" y2="-37.437" x2="31.992"/>
  <line x1="34.539" y1="-37.437" style="fill:none;stroke:#000000;stroke-width:0.3;" y2="-37.437" x2="40.908"/>
  <line x1="43.456" y1="-37.437" style="fill:none;stroke:#000000;stroke-width:0.3;" y2="-37.437" x2="49.825"/>
  <line x1="53.584" y1="-37.437" style="fill:none;stroke:#000000;stroke-width:0.3;" y2="-37.437" x2="52.373"/>
  <line x1="2.184" y1="-34.27" style="fill:none;stroke:#000000;stroke-width:0.3;" y2="-34.27" x2="0"/>
  <line x1="11.134" y1="-34.27" style="fill:none;stroke:#000000;stroke-width:0.3;" y2="-34.27" x2="4.765"/>
  <line x1="13.681" y1="-34.27" style="fill:none;stroke:#000000;stroke-width:0.3;" y2="-34.27" x2="20.05"/>
  <line x1="28.967" y1="-34.27" style="fill:none;stroke:#000000;stroke-width:0.3;" y2="-34.27" x2="22.598"/>
  <line x1="37.883" y1="-34.27" style="fill:none;stroke:#000000;stroke-width:0.3;" y2="-34.27" x2="31.515"/>
  <line x1="46.8" y1="-34.27" style="fill:none;stroke:#000000;stroke-width:0.3;" y2="-34.27" x2="40.431"/>
  <line x1="53.584" y1="-34.27" style="fill:none;stroke:#000000;stroke-width:0.3;" y2="-34.27" x2="49.348"/>
  <line x1="6.675" y1="-31.356" style="fill:none;stroke:#000000;stroke-width:0.3;" y2="-31.356" x2="0.306"/>
  <line x1="15.592" y1="-31.356" style="fill:none;stroke:#000000;stroke-width:0.3;" y2="-31.356" x2="9.223"/>
  <line x1="24.509" y1="-31.356" style="fill:none;stroke:#000000;stroke-width:0.3;" y2="-31.356" x2="18.14"/>
  <line x1="27.056" y1="-31.356" style="fill:none;stroke:#000000;stroke-width:0.3;" y2="-31.356" x2="33.425"/>
  <line x1="35.973" y1="-31.356" style="fill:none;stroke:#000000;stroke-width:0.3;" y2="-31.356" x2="42.342"/>
  <line x1="44.889" y1="-31.356" style="fill:none;stroke:#000000;stroke-width:0.3;" y2="-31.356" x2="51.258"/>
  <line x1="3.458" y1="-28.387" style="fill:none;stroke:#000000;stroke-width:0.3;" y2="-28.387" x2="0"/>
  <line x1="6.038" y1="-28.387" style="fill:none;stroke:#000000;stroke-width:0.3;" y2="-28.387" x2="12.407"/>
  <line x1="21.324" y1="-28.387" style="fill:none;stroke:#000000;stroke-width:0.3;" y2="-28.387" x2="14.955"/>
  <line x1="30.24" y1="-28.387" style="fill:none;stroke:#000000;stroke-width:0.3;" y2="-28.387" x2="23.871"/>
  <line x1="32.788" y1="-28.387" style="fill:none;stroke:#000000;stroke-width:0.3;" y2="-28.387" x2="39.157"/>
  <line x1="41.705" y1="-28.387" style="fill:none;stroke:#000000;stroke-width:0.3;" y2="-28.387" x2="48.073"/>
  <line x1="50.621" y1="-28.387" style="fill:none;stroke:#000000;stroke-width:0.3;" y2="-28.387" x2="53.584"/>
  <line x1="7.949" y1="-25.535" style="fill:none;stroke:#000000;stroke-width:0.3;" y2="-25.535" x2="1.58"/>
  <line x1="16.865" y1="-25.535" style="fill:none;stroke:#000000;stroke-width:0.3;" y2="-25.535" x2="10.496"/>
  <line x1="25.782" y1="-25.535" style="fill:none;stroke:#000000;stroke-width:0.3;" y2="-25.535" x2="19.413"/>
  <line x1="28.33" y1="-25.535" style="fill:none;stroke:#000000;stroke-width:0.3;" y2="-25.535" x2="34.698"/>
  <line x1="43.615" y1="-25.535" style="fill:none;stroke:#000000;stroke-width:0.3;" y2="-25.535" x2="37.246"/>
  <line x1="46.163" y1="-25.535" style="fill:none;stroke:#000000;stroke-width:0.3;" y2="-25.535" x2="52.532"/>
  <line x1="2.98" y1="-22.446" style="fill:none;stroke:#000000;stroke-width:0.3;" y2="-22.446" x2="0"/>
  <line x1="11.93" y1="-22.446" style="fill:none;stroke:#000000;stroke-width:0.3;" y2="-22.446" x2="5.561"/>
  <line x1="14.477" y1="-22.446" style="fill:none;stroke:#000000;stroke-width:0.3;" y2="-22.446" x2="20.846"/>
  <line x1="23.394" y1="-22.446" style="fill:none;stroke:#000000;stroke-width:0.3;" y2="-22.446" x2="29.763"/>
  <line x1="32.311" y1="-22.446" style="fill:none;stroke:#000000;stroke-width:0.3;" y2="-22.446" x2="38.68"/>
  <line x1="41.227" y1="-22.446" style="fill:none;stroke:#000000;stroke-width:0.3;" y2="-22.446" x2="47.596"/>
  <line x1="50.144" y1="-22.446" style="fill:none;stroke:#000000;stroke-width:0.3;" y2="-22.446" x2="53.584"/>
  <line x1="6.834" y1="-19.312" style="fill:none;stroke:#000000;stroke-width:0.3;" y2="-19.312" x2="0.465"/>
  <line x1="15.751" y1="-19.312" style="fill:none;stroke:#000000;stroke-width:0.3;" y2="-19.312" x2="9.382"/>
  <line x1="24.668" y1="-19.312" style="fill:none;stroke:#000000;stroke-width:0.3;" y2="-19.312" x2="18.299"/>
  <line x1="27.215" y1="-19.312" style="fill:none;stroke:#000000;stroke-width:0.3;" y2="-19.312" x2="33.584"/>
  <line x1="42.501" y1="-19.312" style="fill:none;stroke:#000000;stroke-width:0.3;" y2="-19.312" x2="36.132"/>
  <line x1="45.049" y1="-19.312" style="fill:none;stroke:#000000;stroke-width:0.3;" y2="-19.312" x2="51.417"/>
  <line x1="0" y1="-16.342" style="fill:none;stroke:#000000;stroke-width:0.3;" y2="-16.342" x2="2.184"/>
  <line x1="4.765" y1="-16.342" style="fill:none;stroke:#000000;stroke-width:0.3;" y2="-16.342" x2="11.134"/>
  <line x1="20.05" y1="-16.342" style="fill:none;stroke:#000000;stroke-width:0.3;" y2="-16.342" x2="13.681"/>
  <line x1="22.598" y1="-16.342" style="fill:none;stroke:#000000;stroke-width:0.3;" y2="-16.342" x2="28.967"/>
  <line x1="31.515" y1="-16.342" style="fill:none;stroke:#000000;stroke-width:0.3;" y2="-16.342" x2="37.883"/>
  <line x1="40.431" y1="-16.342" style="fill:none;stroke:#000000;stroke-width:0.3;" y2="-16.342" x2="46.8"/>
  <line x1="49.348" y1="-16.342" style="fill:none;stroke:#000000;stroke-width:0.3;" y2="-16.342" x2="53.584"/>
  <line x1="6.038" y1="-13.371" style="fill:none;stroke:#000000;stroke-width:0.3;" y2="-13.371" x2="0"/>
  <line x1="14.955" y1="-13.371" style="fill:none;stroke:#000000;stroke-width:0.3;" y2="-13.371" x2="8.586"/>
  <line x1="23.871" y1="-13.371" style="fill:none;stroke:#000000;stroke-width:0.3;" y2="-13.371" x2="17.502"/>
  <line x1="26.419" y1="-13.371" style="fill:none;stroke:#000000;stroke-width:0.3;" y2="-13.371" x2="32.788"/>
  <line x1="35.336" y1="-13.371" style="fill:none;stroke:#000000;stroke-width:0.3;" y2="-13.371" x2="41.705"/>
  <line x1="44.252" y1="-13.371" style="fill:none;stroke:#000000;stroke-width:0.3;" y2="-13.371" x2="50.621"/>
  <line x1="53.584" y1="-13.371" style="fill:none;stroke:#000000;stroke-width:0.3;" y2="-13.371" x2="53.169"/>
  <line x1="0" y1="-10.575" style="fill:none;stroke:#000000;stroke-width:0.3;" y2="-10.575" x2="3.14"/>
  <line x1="12.089" y1="-10.575" style="fill:none;stroke:#000000;stroke-width:0.3;" y2="-10.575" x2="5.72"/>
  <line x1="14.637" y1="-10.575" style="fill:none;stroke:#000000;stroke-width:0.3;" y2="-10.575" x2="21.006"/>
  <line x1="23.553" y1="-10.575" style="fill:none;stroke:#000000;stroke-width:0.3;" y2="-10.575" x2="29.922"/>
  <line x1="32.47" y1="-10.575" style="fill:none;stroke:#000000;stroke-width:0.3;" y2="-10.575" x2="38.839"/>
  <line x1="47.755" y1="-10.575" style="fill:none;stroke:#000000;stroke-width:0.3;" y2="-10.575" x2="41.386"/>
  <line x1="50.303" y1="-10.575" style="fill:none;stroke:#000000;stroke-width:0.3;" y2="-10.575" x2="53.584"/>
  <line x1="8.268" y1="-7.44" style="fill:none;stroke:#000000;stroke-width:0.3;" y2="-7.44" x2="1.898"/>
  <line x1="17.184" y1="-7.44" style="fill:none;stroke:#000000;stroke-width:0.3;" y2="-7.44" x2="10.814"/>
  <line x1="26.101" y1="-7.44" style="fill:none;stroke:#000000;stroke-width:0.3;" y2="-7.44" x2="19.732"/>
  <line x1="35.018" y1="-7.44" style="fill:none;stroke:#000000;stroke-width:0.3;" y2="-7.44" x2="28.648"/>
  <line x1="37.564" y1="-7.44" style="fill:none;stroke:#000000;stroke-width:0.3;" y2="-7.44" x2="43.934"/>
  <line x1="46.481" y1="-7.44" style="fill:none;stroke:#000000;stroke-width:0.3;" y2="-7.44" x2="52.851"/>
  <line x1="4.732" y1="-4.471" style="fill:none;stroke:#000000;stroke-width:0.3;" y2="-4.471" x2="0"/>
  <line x1="7.312" y1="-4.471" style="fill:none;stroke:#000000;stroke-width:0.3;" y2="-4.471" x2="13.681"/>
  <line x1="16.229" y1="-4.471" style="fill:none;stroke:#000000;stroke-width:0.3;" y2="-4.471" x2="22.598"/>
  <line x1="25.146" y1="-4.471" style="fill:none;stroke:#000000;stroke-width:0.3;" y2="-4.471" x2="31.515"/>
  <line x1="34.062" y1="-4.471" style="fill:none;stroke:#000000;stroke-width:0.3;" y2="-4.471" x2="40.431"/>
  <line x1="42.979" y1="-4.471" style="fill:none;stroke:#000000;stroke-width:0.3;" y2="-4.471" x2="49.348"/>
  <line x1="51.896" y1="-4.471" style="fill:none;stroke:#000000;stroke-width:0.3;" y2="-4.471" x2="53.584"/>
  <line x1="8.586" y1="-1.501" style="fill:none;stroke:#000000;stroke-width:0.3;" y2="-1.501" x2="2.217"/>
  <line x1="17.502" y1="-1.501" style="fill:none;stroke:#000000;stroke-width:0.3;" y2="-1.501" x2="11.134"/>
  <line x1="26.419" y1="-1.501" style="fill:none;stroke:#000000;stroke-width:0.3;" y2="-1.501" x2="20.05"/>
  <line x1="35.336" y1="-1.501" style="fill:none;stroke:#000000;stroke-width:0.3;" y2="-1.501" x2="28.967"/>
  <line x1="44.252" y1="-1.501" style="fill:none;stroke:#000000;stroke-width:0.3;" y2="-1.501" x2="37.883"/>
  <line x1="53.169" y1="-1.501" style="fill:none;stroke:#000000;stroke-width:0.3;" y2="-1.501" x2="46.8"/>
 </g>
</svg>
