<?xml version="1.0"?>
<!-- Converted with SVG Converter - Version 0.9.5 (Compiled Fri Feb 21 09:53:38 2020) - Copyright (C) 2011 Nokia -->
<svg xmlns="http://www.w3.org/2000/svg" xmlns:xlink="http://www.w3.org/1999/xlink" xml:space="preserve" viewBox="0 -53.584 53.584 53.584" y="0px" x="0px" width="53.584" baseProfile="tiny" height="53.584" version="1.1">
 <g>
  <rect style="fill:none;" y="-53.584" x="0" width="53.584" height="53.584"/>
  <line style="fill:none;stroke:#000000;stroke-width:0.3;" y2="-51.754" x1="3.775" y1="-51.754" x2="0"/>
  <line style="fill:none;stroke:#000000;stroke-width:0.3;" y2="-51.754" x1="6.357" y1="-51.754" x2="12.726"/>
  <line style="fill:none;stroke:#000000;stroke-width:0.3;" y2="-51.754" x1="15.273" y1="-51.754" x2="21.642"/>
  <line style="fill:none;stroke:#000000;stroke-width:0.3;" y2="-51.754" x1="24.19" y1="-51.754" x2="30.559"/>
  <line style="fill:none;stroke:#000000;stroke-width:0.3;" y2="-51.754" x1="33.106" y1="-51.754" x2="39.476"/>
  <line style="fill:none;stroke:#000000;stroke-width:0.3;" y2="-51.754" x1="42.022" y1="-51.754" x2="48.392"/>
  <line style="fill:none;stroke:#000000;stroke-width:0.3;" y2="-51.754" x1="53.584" y1="-51.754" x2="50.939"/>
  <line style="fill:none;stroke:#000000;stroke-width:0.3;" y2="-48.619" x1="8.107" y1="-48.619" x2="1.738"/>
  <line style="fill:none;stroke:#000000;stroke-width:0.3;" y2="-48.619" x1="17.024" y1="-48.619" x2="10.655"/>
  <line style="fill:none;stroke:#000000;stroke-width:0.3;" y2="-48.619" x1="25.941" y1="-48.619" x2="19.572"/>
  <line style="fill:none;stroke:#000000;stroke-width:0.3;" y2="-48.619" x1="34.857" y1="-48.619" x2="28.488"/>
  <line style="fill:none;stroke:#000000;stroke-width:0.3;" y2="-48.619" x1="43.774" y1="-48.619" x2="37.405"/>
  <line style="fill:none;stroke:#000000;stroke-width:0.3;" y2="-48.619" x1="46.322" y1="-48.619" x2="52.69"/>
  <line style="fill:none;stroke:#000000;stroke-width:0.3;" y2="-45.648" x1="2.024" y1="-45.648" x2="0"/>
  <line style="fill:none;stroke:#000000;stroke-width:0.3;" y2="-45.648" x1="4.604" y1="-45.648" x2="5.972"/>
  <line style="fill:none;stroke:#000000;stroke-width:0.3;" y2="-45.648" x1="10.974" y1="-45.648" x2="5.972"/>
  <line style="fill:none;stroke:#000000;stroke-width:0.3;" y2="-45.648" x1="13.521" y1="-45.648" x2="19.891"/>
  <line style="fill:none;stroke:#000000;stroke-width:0.3;" y2="-45.648" x1="23.825" y1="-45.648" x2="28.807"/>
  <line style="fill:none;stroke:#000000;stroke-width:0.3;" y2="-45.648" x1="23.825" y1="-45.648" x2="22.438"/>
  <line style="fill:none;stroke:#000000;stroke-width:0.3;" y2="-45.648" x1="31.354" y1="-45.648" x2="37.724"/>
  <line style="fill:none;stroke:#000000;stroke-width:0.3;" y2="-45.648" x1="41.597" y1="-45.648" x2="40.271"/>
  <line style="fill:none;stroke:#000000;stroke-width:0.3;" y2="-45.648" x1="41.597" y1="-45.648" x2="46.641"/>
  <line style="fill:none;stroke:#000000;stroke-width:0.3;" y2="-45.648" x1="49.188" y1="-45.648" x2="53.584"/>
  <line style="fill:none;stroke:#000000;stroke-width:0.3;" y2="-42.844" x1="7.312" y1="-42.844" x2="0.942"/>
  <line style="fill:none;stroke:#000000;stroke-width:0.3;" y2="-42.844" x1="16.229" y1="-42.844" x2="9.859"/>
  <line style="fill:none;stroke:#000000;stroke-width:0.3;" y2="-42.844" x1="25.145" y1="-42.844" x2="18.775"/>
  <line style="fill:none;stroke:#000000;stroke-width:0.3;" y2="-42.844" x1="34.062" y1="-42.844" x2="27.692"/>
  <line style="fill:none;stroke:#000000;stroke-width:0.3;" y2="-42.844" x1="42.979" y1="-42.844" x2="36.609"/>
  <line style="fill:none;stroke:#000000;stroke-width:0.3;" y2="-42.844" x1="51.895" y1="-42.844" x2="45.525"/>
  <line style="fill:none;stroke:#000000;stroke-width:0.3;" y2="-39.874" x1="1.706" y1="-39.874" x2="0"/>
  <line style="fill:none;stroke:#000000;stroke-width:0.3;" y2="-39.874" x1="4.286" y1="-39.874" x2="5.35"/>
  <line style="fill:none;stroke:#000000;stroke-width:0.3;" y2="-39.874" x1="5.35" y1="-39.874" x2="10.655"/>
  <line style="fill:none;stroke:#000000;stroke-width:0.3;" y2="-39.874" x1="19.572" y1="-39.874" x2="13.203"/>
  <line style="fill:none;stroke:#000000;stroke-width:0.3;" y2="-39.874" x1="23.39" y1="-39.874" x2="22.119"/>
  <line style="fill:none;stroke:#000000;stroke-width:0.3;" y2="-39.874" x1="23.39" y1="-39.874" x2="28.488"/>
  <line style="fill:none;stroke:#000000;stroke-width:0.3;" y2="-39.874" x1="31.036" y1="-39.874" x2="37.405"/>
  <line style="fill:none;stroke:#000000;stroke-width:0.3;" y2="-39.874" x1="41.16" y1="-39.874" x2="46.322"/>
  <line style="fill:none;stroke:#000000;stroke-width:0.3;" y2="-39.874" x1="39.953" y1="-39.874" x2="41.16"/>
  <line style="fill:none;stroke:#000000;stroke-width:0.3;" y2="-39.874" x1="48.869" y1="-39.874" x2="53.584"/>
  <line style="fill:none;stroke:#000000;stroke-width:0.3;" y2="-36.869" x1="5.242" y1="-36.869" x2="0"/>
  <line style="fill:none;stroke:#000000;stroke-width:0.3;" y2="-36.869" x1="14.158" y1="-36.869" x2="7.789"/>
  <line style="fill:none;stroke:#000000;stroke-width:0.3;" y2="-36.869" x1="16.706" y1="-36.869" x2="23.075"/>
  <line style="fill:none;stroke:#000000;stroke-width:0.3;" y2="-36.869" x1="31.991" y1="-36.869" x2="25.622"/>
  <line style="fill:none;stroke:#000000;stroke-width:0.3;" y2="-36.869" x1="34.539" y1="-36.869" x2="40.908"/>
  <line style="fill:none;stroke:#000000;stroke-width:0.3;" y2="-36.869" x1="43.456" y1="-36.869" x2="49.825"/>
  <line style="fill:none;stroke:#000000;stroke-width:0.3;" y2="-36.869" x1="52.372" y1="-36.869" x2="53.584"/>
  <line style="fill:none;stroke:#000000;stroke-width:0.3;" y2="-33.986" x1="2.184" y1="-33.986" x2="0"/>
  <line style="fill:none;stroke:#000000;stroke-width:0.3;" y2="-33.986" x1="11.133" y1="-33.986" x2="4.764"/>
  <line style="fill:none;stroke:#000000;stroke-width:0.3;" y2="-33.986" x1="13.681" y1="-33.986" x2="14.836"/>
  <line style="fill:none;stroke:#000000;stroke-width:0.3;" y2="-33.986" x1="20.05" y1="-33.986" x2="14.836"/>
  <line style="fill:none;stroke:#000000;stroke-width:0.3;" y2="-33.986" x1="28.966" y1="-33.986" x2="22.598"/>
  <line style="fill:none;stroke:#000000;stroke-width:0.3;" y2="-33.986" x1="32.794" y1="-33.986" x2="31.514"/>
  <line style="fill:none;stroke:#000000;stroke-width:0.3;" y2="-33.986" x1="37.883" y1="-33.986" x2="32.794"/>
  <line style="fill:none;stroke:#000000;stroke-width:0.3;" y2="-33.986" x1="46.8" y1="-33.986" x2="40.431"/>
  <line style="fill:none;stroke:#000000;stroke-width:0.3;" y2="-33.986" x1="49.347" y1="-33.986" x2="50.565"/>
  <line style="fill:none;stroke:#000000;stroke-width:0.3;" y2="-33.986" x1="50.565" y1="-33.986" x2="53.584"/>
  <line style="fill:none;stroke:#000000;stroke-width:0.3;" y2="-30.789" x1="6.675" y1="-30.789" x2="0.306"/>
  <line style="fill:none;stroke:#000000;stroke-width:0.3;" y2="-30.789" x1="15.592" y1="-30.789" x2="9.223"/>
  <line style="fill:none;stroke:#000000;stroke-width:0.3;" y2="-30.789" x1="24.508" y1="-30.789" x2="18.139"/>
  <line style="fill:none;stroke:#000000;stroke-width:0.3;" y2="-30.789" x1="27.056" y1="-30.789" x2="33.425"/>
  <line style="fill:none;stroke:#000000;stroke-width:0.3;" y2="-30.789" x1="35.972" y1="-30.789" x2="42.341"/>
  <line style="fill:none;stroke:#000000;stroke-width:0.3;" y2="-30.789" x1="44.889" y1="-30.789" x2="51.258"/>
  <line style="fill:none;stroke:#000000;stroke-width:0.3;" y2="-27.819" x1="3.457" y1="-27.819" x2="0"/>
  <line style="fill:none;stroke:#000000;stroke-width:0.3;" y2="-27.819" x1="12.407" y1="-27.819" x2="6.038"/>
  <line style="fill:none;stroke:#000000;stroke-width:0.3;" y2="-27.819" x1="14.954" y1="-27.819" x2="15.986"/>
  <line style="fill:none;stroke:#000000;stroke-width:0.3;" y2="-27.819" x1="21.323" y1="-27.819" x2="15.986"/>
  <line style="fill:none;stroke:#000000;stroke-width:0.3;" y2="-27.819" x1="23.871" y1="-27.819" x2="30.24"/>
  <line style="fill:none;stroke:#000000;stroke-width:0.3;" y2="-27.819" x1="34.007" y1="-27.819" x2="39.156"/>
  <line style="fill:none;stroke:#000000;stroke-width:0.3;" y2="-27.819" x1="34.007" y1="-27.819" x2="32.788"/>
  <line style="fill:none;stroke:#000000;stroke-width:0.3;" y2="-27.819" x1="41.704" y1="-27.819" x2="48.073"/>
  <line style="fill:none;stroke:#000000;stroke-width:0.3;" y2="-27.819" x1="50.621" y1="-27.819" x2="51.944"/>
  <line style="fill:none;stroke:#000000;stroke-width:0.3;" y2="-27.819" x1="51.944" y1="-27.819" x2="53.584"/>
  <line style="fill:none;stroke:#000000;stroke-width:0.3;" y2="-24.685" x1="1.579" y1="-24.685" x2="7.948"/>
  <line style="fill:none;stroke:#000000;stroke-width:0.3;" y2="-24.685" x1="16.865" y1="-24.685" x2="10.496"/>
  <line style="fill:none;stroke:#000000;stroke-width:0.3;" y2="-24.685" x1="25.782" y1="-24.685" x2="19.413"/>
  <line style="fill:none;stroke:#000000;stroke-width:0.3;" y2="-24.685" x1="34.698" y1="-24.685" x2="28.329"/>
  <line style="fill:none;stroke:#000000;stroke-width:0.3;" y2="-24.685" x1="43.615" y1="-24.685" x2="37.246"/>
  <line style="fill:none;stroke:#000000;stroke-width:0.3;" y2="-24.685" x1="46.163" y1="-24.685" x2="52.531"/>
  <line style="fill:none;stroke:#000000;stroke-width:0.3;" y2="-21.88" x1="2.98" y1="-21.88" x2="0"/>
  <line style="fill:none;stroke:#000000;stroke-width:0.3;" y2="-21.88" x1="11.929" y1="-21.88" x2="5.561"/>
  <line style="fill:none;stroke:#000000;stroke-width:0.3;" y2="-21.88" x1="14.477" y1="-21.88" x2="20.846"/>
  <line style="fill:none;stroke:#000000;stroke-width:0.3;" y2="-21.88" x1="23.394" y1="-21.88" x2="29.763"/>
  <line style="fill:none;stroke:#000000;stroke-width:0.3;" y2="-21.88" x1="32.31" y1="-21.88" x2="38.679"/>
  <line style="fill:none;stroke:#000000;stroke-width:0.3;" y2="-21.88" x1="41.227" y1="-21.88" x2="47.596"/>
  <line style="fill:none;stroke:#000000;stroke-width:0.3;" y2="-21.88" x1="50.144" y1="-21.88" x2="53.584"/>
  <line style="fill:none;stroke:#000000;stroke-width:0.3;" y2="-18.744" x1="6.834" y1="-18.744" x2="0.465"/>
  <line style="fill:none;stroke:#000000;stroke-width:0.3;" y2="-18.744" x1="15.751" y1="-18.744" x2="9.382"/>
  <line style="fill:none;stroke:#000000;stroke-width:0.3;" y2="-18.744" x1="24.667" y1="-18.744" x2="18.298"/>
  <line style="fill:none;stroke:#000000;stroke-width:0.3;" y2="-18.744" x1="27.215" y1="-18.744" x2="33.584"/>
  <line style="fill:none;stroke:#000000;stroke-width:0.3;" y2="-18.744" x1="42.5" y1="-18.744" x2="36.132"/>
  <line style="fill:none;stroke:#000000;stroke-width:0.3;" y2="-18.744" x1="45.048" y1="-18.744" x2="51.417"/>
  <line style="fill:none;stroke:#000000;stroke-width:0.3;" y2="-15.774" x1="2.184" y1="-15.774" x2="0"/>
  <line style="fill:none;stroke:#000000;stroke-width:0.3;" y2="-15.774" x1="11.133" y1="-15.774" x2="4.764"/>
  <line style="fill:none;stroke:#000000;stroke-width:0.3;" y2="-15.774" x1="20.05" y1="-15.774" x2="13.681"/>
  <line style="fill:none;stroke:#000000;stroke-width:0.3;" y2="-15.774" x1="22.598" y1="-15.774" x2="28.966"/>
  <line style="fill:none;stroke:#000000;stroke-width:0.3;" y2="-15.774" x1="31.514" y1="-15.774" x2="37.883"/>
  <line style="fill:none;stroke:#000000;stroke-width:0.3;" y2="-15.774" x1="40.431" y1="-15.774" x2="46.8"/>
  <line style="fill:none;stroke:#000000;stroke-width:0.3;" y2="-15.774" x1="49.347" y1="-15.774" x2="53.584"/>
  <line style="fill:none;stroke:#000000;stroke-width:0.3;" y2="-12.805" x1="0" y1="-12.805" x2="1.339"/>
  <line style="fill:none;stroke:#000000;stroke-width:0.3;" y2="-12.805" x1="6.038" y1="-12.805" x2="1.339"/>
  <line style="fill:none;stroke:#000000;stroke-width:0.3;" y2="-12.805" x1="8.585" y1="-12.805" x2="14.954"/>
  <line style="fill:none;stroke:#000000;stroke-width:0.3;" y2="-12.805" x1="18.734" y1="-12.805" x2="17.502"/>
  <line style="fill:none;stroke:#000000;stroke-width:0.3;" y2="-12.805" x1="23.871" y1="-12.805" x2="18.734"/>
  <line style="fill:none;stroke:#000000;stroke-width:0.3;" y2="-12.805" x1="32.788" y1="-12.805" x2="26.419"/>
  <line style="fill:none;stroke:#000000;stroke-width:0.3;" y2="-12.805" x1="36.547" y1="-12.805" x2="35.335"/>
  <line style="fill:none;stroke:#000000;stroke-width:0.3;" y2="-12.805" x1="36.547" y1="-12.805" x2="41.704"/>
  <line style="fill:none;stroke:#000000;stroke-width:0.3;" y2="-12.805" x1="44.252" y1="-12.805" x2="50.621"/>
  <line style="fill:none;stroke:#000000;stroke-width:0.3;" y2="-12.805" x1="53.584" y1="-12.805" x2="53.169"/>
  <line style="fill:none;stroke:#000000;stroke-width:0.3;" y2="-10.009" x1="0" y1="-10.009" x2="3.139"/>
  <line style="fill:none;stroke:#000000;stroke-width:0.3;" y2="-10.009" x1="12.088" y1="-10.009" x2="5.72"/>
  <line style="fill:none;stroke:#000000;stroke-width:0.3;" y2="-10.009" x1="14.636" y1="-10.009" x2="21.005"/>
  <line style="fill:none;stroke:#000000;stroke-width:0.3;" y2="-10.009" x1="23.553" y1="-10.009" x2="29.922"/>
  <line style="fill:none;stroke:#000000;stroke-width:0.3;" y2="-10.009" x1="32.47" y1="-10.009" x2="38.838"/>
  <line style="fill:none;stroke:#000000;stroke-width:0.3;" y2="-10.009" x1="41.386" y1="-10.009" x2="47.755"/>
  <line style="fill:none;stroke:#000000;stroke-width:0.3;" y2="-10.009" x1="50.303" y1="-10.009" x2="53.584"/>
  <line style="fill:none;stroke:#000000;stroke-width:0.3;" y2="-6.873" x1="8.267" y1="-6.873" x2="1.898"/>
  <line style="fill:none;stroke:#000000;stroke-width:0.3;" y2="-6.873" x1="17.184" y1="-6.873" x2="10.814"/>
  <line style="fill:none;stroke:#000000;stroke-width:0.3;" y2="-6.873" x1="26.101" y1="-6.873" x2="19.732"/>
  <line style="fill:none;stroke:#000000;stroke-width:0.3;" y2="-6.873" x1="35.017" y1="-6.873" x2="28.647"/>
  <line style="fill:none;stroke:#000000;stroke-width:0.3;" y2="-6.873" x1="43.934" y1="-6.873" x2="37.564"/>
  <line style="fill:none;stroke:#000000;stroke-width:0.3;" y2="-6.873" x1="46.481" y1="-6.873" x2="52.85"/>
  <line style="fill:none;stroke:#000000;stroke-width:0.3;" y2="-3.903" x1="4.732" y1="-3.903" x2="0"/>
  <line style="fill:none;stroke:#000000;stroke-width:0.3;" y2="-3.903" x1="7.312" y1="-3.903" x2="13.681"/>
  <line style="fill:none;stroke:#000000;stroke-width:0.3;" y2="-3.903" x1="16.229" y1="-3.903" x2="22.598"/>
  <line style="fill:none;stroke:#000000;stroke-width:0.3;" y2="-3.903" x1="25.145" y1="-3.903" x2="31.514"/>
  <line style="fill:none;stroke:#000000;stroke-width:0.3;" y2="-3.903" x1="34.062" y1="-3.903" x2="40.431"/>
  <line style="fill:none;stroke:#000000;stroke-width:0.3;" y2="-3.903" x1="42.979" y1="-3.903" x2="49.347"/>
  <line style="fill:none;stroke:#000000;stroke-width:0.3;" y2="-3.903" x1="51.895" y1="-3.903" x2="53.584"/>
  <line style="fill:none;stroke:#000000;stroke-width:0.3;" y2="-0.934" x1="8.585" y1="-0.934" x2="2.217"/>
  <line style="fill:none;stroke:#000000;stroke-width:0.3;" y2="-0.934" x1="17.502" y1="-0.934" x2="11.133"/>
  <line style="fill:none;stroke:#000000;stroke-width:0.3;" y2="-0.934" x1="26.419" y1="-0.934" x2="20.05"/>
  <line style="fill:none;stroke:#000000;stroke-width:0.3;" y2="-0.934" x1="35.335" y1="-0.934" x2="28.966"/>
  <line style="fill:none;stroke:#000000;stroke-width:0.3;" y2="-0.934" x1="44.252" y1="-0.934" x2="37.883"/>
  <line style="fill:none;stroke:#000000;stroke-width:0.3;" y2="-0.934" x1="53.169" y1="-0.934" x2="46.8"/>
  <line style="fill:none;stroke:#000000;stroke-width:0.3;" y2="-53.225" x1="7.666" y1="-51.812" x2="8.752"/>
  <line style="fill:none;stroke:#000000;stroke-width:0.3;" y2="-53.225" x1="25.604" y1="-51.812" x2="26.69"/>
  <line style="fill:none;stroke:#000000;stroke-width:0.3;" y2="-53.225" x1="43.625" y1="-51.812" x2="44.71"/>
  <line style="fill:none;stroke:#000000;stroke-width:0.3;" y2="-50.037" x1="47.791" y1="-48.625" x2="48.877"/>
  <line style="fill:none;stroke:#000000;stroke-width:0.3;" y2="-50.037" x1="29.979" y1="-48.625" x2="31.065"/>
  <line style="fill:none;stroke:#000000;stroke-width:0.3;" y2="-50.037" x1="11.833" y1="-48.625" x2="12.918"/>
  <line style="fill:none;stroke:#000000;stroke-width:0.3;" y2="-45.648" x1="5.938" y1="-45.604" x2="5.972"/>
  <line style="fill:none;stroke:#000000;stroke-width:0.3;" y2="-47.017" x1="5.972" y1="-45.648" x2="7.023"/>
  <line style="fill:none;stroke:#000000;stroke-width:0.3;" y2="-47.017" x1="23.825" y1="-45.648" x2="24.877"/>
  <line style="fill:none;stroke:#000000;stroke-width:0.3;" y2="-45.648" x1="23.791" y1="-45.604" x2="23.825"/>
  <line style="fill:none;stroke:#000000;stroke-width:0.3;" y2="-45.648" x1="41.562" y1="-45.604" x2="41.597"/>
  <line style="fill:none;stroke:#000000;stroke-width:0.3;" y2="-47.017" x1="41.597" y1="-45.648" x2="42.647"/>
  <line style="fill:none;stroke:#000000;stroke-width:0.3;" y2="-44.308" x1="37.916" y1="-42.896" x2="39.002"/>
  <line style="fill:none;stroke:#000000;stroke-width:0.3;" y2="-44.308" x1="20.166" y1="-42.896" x2="21.252"/>
  <line style="fill:none;stroke:#000000;stroke-width:0.3;" y2="-44.308" x1="2.208" y1="-42.896" x2="3.293"/>
  <line style="fill:none;stroke:#000000;stroke-width:0.3;" y2="-39.854" x1="41.16" y1="-39.874" x2="41.146"/>
  <line style="fill:none;stroke:#000000;stroke-width:0.3;" y2="-41.267" x1="41.16" y1="-39.874" x2="42.23"/>
  <line style="fill:none;stroke:#000000;stroke-width:0.3;" y2="-41.267" x1="23.39" y1="-39.874" x2="24.46"/>
  <line style="fill:none;stroke:#000000;stroke-width:0.3;" y2="-39.874" x1="23.375" y1="-39.854" x2="23.39"/>
  <line style="fill:none;stroke:#000000;stroke-width:0.3;" y2="-39.874" x1="5.335" y1="-39.854" x2="5.35"/>
  <line style="fill:none;stroke:#000000;stroke-width:0.3;" y2="-41.267" x1="5.35" y1="-39.874" x2="6.421"/>
  <line style="fill:none;stroke:#000000;stroke-width:0.3;" y2="-36.896" x1="45.775" y1="-38.308" x2="44.689"/>
  <line style="fill:none;stroke:#000000;stroke-width:0.3;" y2="-36.896" x1="28.024" y1="-38.308" x2="26.94"/>
  <line style="fill:none;stroke:#000000;stroke-width:0.3;" y2="-38.308" x1="9.044" y1="-36.896" x2="10.129"/>
  <line style="fill:none;stroke:#000000;stroke-width:0.3;" y2="-33.958" x1="32.794" y1="-33.986" x2="32.772"/>
  <line style="fill:none;stroke:#000000;stroke-width:0.3;" y2="-33.986" x1="33.858" y1="-35.37" x2="32.794"/>
  <line style="fill:none;stroke:#000000;stroke-width:0.3;" y2="-35.37" x1="50.565" y1="-33.986" x2="51.629"/>
  <line style="fill:none;stroke:#000000;stroke-width:0.3;" y2="-33.958" x1="50.565" y1="-33.986" x2="50.544"/>
  <line style="fill:none;stroke:#000000;stroke-width:0.3;" y2="-33.986" x1="14.814" y1="-33.958" x2="14.836"/>
  <line style="fill:none;stroke:#000000;stroke-width:0.3;" y2="-33.986" x1="15.899" y1="-35.37" x2="14.836"/>
  <line style="fill:none;stroke:#000000;stroke-width:0.3;" y2="-30.833" x1="47.087" y1="-32.245" x2="46.002"/>
  <line style="fill:none;stroke:#000000;stroke-width:0.3;" y2="-30.833" x1="29.379" y1="-32.245" x2="28.294"/>
  <line style="fill:none;stroke:#000000;stroke-width:0.3;" y2="-32.245" x1="10.481" y1="-30.833" x2="11.566"/>
  <line style="fill:none;stroke:#000000;stroke-width:0.3;" y2="-27.819" x1="15.981" y1="-27.812" x2="15.986"/>
  <line style="fill:none;stroke:#000000;stroke-width:0.3;" y2="-27.819" x1="17.066" y1="-29.225" x2="15.986"/>
  <line style="fill:none;stroke:#000000;stroke-width:0.3;" y2="-29.225" x1="34.007" y1="-27.819" x2="35.087"/>
  <line style="fill:none;stroke:#000000;stroke-width:0.3;" y2="-27.812" x1="34.007" y1="-27.819" x2="34.002"/>
  <line style="fill:none;stroke:#000000;stroke-width:0.3;" y2="-29.225" x1="51.944" y1="-27.819" x2="53.024"/>
  <line style="fill:none;stroke:#000000;stroke-width:0.3;" y2="-27.812" x1="51.944" y1="-27.819" x2="51.939"/>
  <line style="fill:none;stroke:#000000;stroke-width:0.3;" y2="-26.12" x1="38.564" y1="-24.708" x2="39.649"/>
  <line style="fill:none;stroke:#000000;stroke-width:0.3;" y2="-26.12" x1="20.752" y1="-24.708" x2="21.837"/>
  <line style="fill:none;stroke:#000000;stroke-width:0.3;" y2="-26.12" x1="2.9" y1="-24.708" x2="3.985"/>
  <line style="fill:none;stroke:#000000;stroke-width:0.3;" y2="-23.299" x1="6.921" y1="-21.887" x2="8.006"/>
  <line style="fill:none;stroke:#000000;stroke-width:0.3;" y2="-23.299" x1="24.796" y1="-21.887" x2="25.881"/>
  <line style="fill:none;stroke:#000000;stroke-width:0.3;" y2="-21.887" x1="43.506" y1="-23.299" x2="42.421"/>
  <line style="fill:none;stroke:#000000;stroke-width:0.3;" y2="-18.782" x1="38.506" y1="-20.194" x2="37.421"/>
  <line style="fill:none;stroke:#000000;stroke-width:0.3;" y2="-20.194" x1="19.525" y1="-18.782" x2="20.61"/>
  <line style="fill:none;stroke:#000000;stroke-width:0.3;" y2="-20.194" x1="1.691" y1="-18.782" x2="2.777"/>
  <line style="fill:none;stroke:#000000;stroke-width:0.3;" y2="-15.907" x1="7.298" y1="-17.319" x2="6.213"/>
  <line style="fill:none;stroke:#000000;stroke-width:0.3;" y2="-17.319" x1="24.066" y1="-15.907" x2="25.152"/>
  <line style="fill:none;stroke:#000000;stroke-width:0.3;" y2="-15.907" x1="42.84" y1="-17.319" x2="41.754"/>
  <line style="fill:none;stroke:#000000;stroke-width:0.3;" y2="-14.216" x1="36.547" y1="-12.805" x2="37.631"/>
  <line style="fill:none;stroke:#000000;stroke-width:0.3;" y2="-12.804" x1="36.547" y1="-12.805" x2="36.546"/>
  <line style="fill:none;stroke:#000000;stroke-width:0.3;" y2="-12.805" x1="19.818" y1="-14.216" x2="18.734"/>
  <line style="fill:none;stroke:#000000;stroke-width:0.3;" y2="-12.804" x1="18.734" y1="-12.805" x2="18.733"/>
  <line style="fill:none;stroke:#000000;stroke-width:0.3;" y2="-12.804" x1="1.339" y1="-12.805" x2="1.338"/>
  <line style="fill:none;stroke:#000000;stroke-width:0.3;" y2="-12.805" x1="2.423" y1="-14.216" x2="1.339"/>
  <line style="fill:none;stroke:#000000;stroke-width:0.3;" y2="-11.507" x1="42.733" y1="-10.095" x2="43.818"/>
  <line style="fill:none;stroke:#000000;stroke-width:0.3;" y2="-10.095" x1="25.943" y1="-11.507" x2="24.858"/>
  <line style="fill:none;stroke:#000000;stroke-width:0.3;" y2="-10.095" x1="7.965" y1="-11.507" x2="6.879"/>
  <line style="fill:none;stroke:#000000;stroke-width:0.3;" y2="-8.325" x1="12.088" y1="-6.913" x2="13.173"/>
  <line style="fill:none;stroke:#000000;stroke-width:0.3;" y2="-6.913" x1="31.048" y1="-8.325" x2="29.963"/>
  <line style="fill:none;stroke:#000000;stroke-width:0.3;" y2="-5.331" x1="44.275" y1="-3.919" x2="45.36"/>
  <line style="fill:none;stroke:#000000;stroke-width:0.3;" y2="-2.352" x1="39.177" y1="-0.939" x2="40.263"/>
  <line style="fill:none;stroke:#000000;stroke-width:0.3;" y2="-2.352" x1="21.302" y1="-0.939" x2="22.388"/>
  <line style="fill:none;stroke:#000000;stroke-width:0.3;" y2="-2.352" x1="3.364" y1="-0.939" x2="4.45"/>
  <line style="fill:none;stroke:#000000;stroke-width:0.3;" y2="-3.919" x1="27.631" y1="-5.331" x2="26.546"/>
  <line style="fill:none;stroke:#000000;stroke-width:0.3;" y2="-3.919" x1="9.568" y1="-5.331" x2="8.483"/>
  <line style="fill:none;stroke:#000000;stroke-width:0.3;" y2="-6.913" x1="49.215" y1="-8.325" x2="48.129"/>
 </g>
</svg>
