<?xml version="1.0"?>
<!-- Converted with SVG Converter - Version 0.9.5 (Compiled Fri Feb 21 09:53:38 2020) - Copyright (C) 2011 Nokia -->
<svg xmlns="http://www.w3.org/2000/svg" version="1.1" x="0px" xml:space="preserve" width="53.584" y="0px" baseProfile="tiny" height="53.584" viewBox="0 -53.584 53.584 53.584" xmlns:xlink="http://www.w3.org/1999/xlink">
 <g>
  <rect x="0" width="53.584" y="-53.584" height="53.584" style="fill:none;"/>
  <line y2="-51.754" x2="0" x1="3.775" y1="-51.754" style="fill:none;stroke:#000000;stroke-width:0.3;"/>
  <line y2="-51.754" x2="12.726" x1="6.357" y1="-51.754" style="fill:none;stroke:#000000;stroke-width:0.3;"/>
  <line y2="-51.754" x2="21.642" x1="15.273" y1="-51.754" style="fill:none;stroke:#000000;stroke-width:0.3;"/>
  <line y2="-51.754" x2="30.559" x1="24.19" y1="-51.754" style="fill:none;stroke:#000000;stroke-width:0.3;"/>
  <line y2="-51.754" x2="39.476" x1="33.106" y1="-51.754" style="fill:none;stroke:#000000;stroke-width:0.3;"/>
  <line y2="-51.754" x2="48.392" x1="42.022" y1="-51.754" style="fill:none;stroke:#000000;stroke-width:0.3;"/>
  <line y2="-51.754" x2="50.939" x1="53.584" y1="-51.754" style="fill:none;stroke:#000000;stroke-width:0.3;"/>
  <line y2="-48.619" x2="1.738" x1="8.107" y1="-48.619" style="fill:none;stroke:#000000;stroke-width:0.3;"/>
  <line y2="-48.619" x2="10.655" x1="17.024" y1="-48.619" style="fill:none;stroke:#000000;stroke-width:0.3;"/>
  <line y2="-48.619" x2="19.572" x1="25.941" y1="-48.619" style="fill:none;stroke:#000000;stroke-width:0.3;"/>
  <line y2="-48.619" x2="28.488" x1="34.857" y1="-48.619" style="fill:none;stroke:#000000;stroke-width:0.3;"/>
  <line y2="-48.619" x2="37.405" x1="43.774" y1="-48.619" style="fill:none;stroke:#000000;stroke-width:0.3;"/>
  <line y2="-48.619" x2="52.69" x1="46.322" y1="-48.619" style="fill:none;stroke:#000000;stroke-width:0.3;"/>
  <line y2="-45.648" x2="0" x1="2.024" y1="-45.648" style="fill:none;stroke:#000000;stroke-width:0.3;"/>
  <line y2="-45.648" x2="5.972" x1="4.604" y1="-45.648" style="fill:none;stroke:#000000;stroke-width:0.3;"/>
  <line y2="-45.648" x2="5.972" x1="10.974" y1="-45.648" style="fill:none;stroke:#000000;stroke-width:0.3;"/>
  <line y2="-45.648" x2="19.891" x1="13.521" y1="-45.648" style="fill:none;stroke:#000000;stroke-width:0.3;"/>
  <line y2="-45.648" x2="28.807" x1="23.825" y1="-45.648" style="fill:none;stroke:#000000;stroke-width:0.3;"/>
  <line y2="-45.648" x2="22.438" x1="23.825" y1="-45.648" style="fill:none;stroke:#000000;stroke-width:0.3;"/>
  <line y2="-45.648" x2="37.724" x1="31.354" y1="-45.648" style="fill:none;stroke:#000000;stroke-width:0.3;"/>
  <line y2="-45.648" x2="40.271" x1="41.597" y1="-45.648" style="fill:none;stroke:#000000;stroke-width:0.3;"/>
  <line y2="-45.648" x2="46.641" x1="41.597" y1="-45.648" style="fill:none;stroke:#000000;stroke-width:0.3;"/>
  <line y2="-45.648" x2="53.584" x1="49.188" y1="-45.648" style="fill:none;stroke:#000000;stroke-width:0.3;"/>
  <line y2="-42.844" x2="0.942" x1="7.312" y1="-42.844" style="fill:none;stroke:#000000;stroke-width:0.3;"/>
  <line y2="-42.844" x2="9.859" x1="16.229" y1="-42.844" style="fill:none;stroke:#000000;stroke-width:0.3;"/>
  <line y2="-42.844" x2="18.775" x1="25.145" y1="-42.844" style="fill:none;stroke:#000000;stroke-width:0.3;"/>
  <line y2="-42.844" x2="27.692" x1="34.062" y1="-42.844" style="fill:none;stroke:#000000;stroke-width:0.3;"/>
  <line y2="-42.844" x2="36.609" x1="42.979" y1="-42.844" style="fill:none;stroke:#000000;stroke-width:0.3;"/>
  <line y2="-42.844" x2="45.525" x1="51.895" y1="-42.844" style="fill:none;stroke:#000000;stroke-width:0.3;"/>
  <line y2="-39.874" x2="0" x1="1.706" y1="-39.874" style="fill:none;stroke:#000000;stroke-width:0.3;"/>
  <line y2="-39.874" x2="5.35" x1="4.286" y1="-39.874" style="fill:none;stroke:#000000;stroke-width:0.3;"/>
  <line y2="-39.874" x2="10.655" x1="5.35" y1="-39.874" style="fill:none;stroke:#000000;stroke-width:0.3;"/>
  <line y2="-39.874" x2="13.203" x1="19.572" y1="-39.874" style="fill:none;stroke:#000000;stroke-width:0.3;"/>
  <line y2="-39.874" x2="22.119" x1="23.39" y1="-39.874" style="fill:none;stroke:#000000;stroke-width:0.3;"/>
  <line y2="-39.874" x2="28.488" x1="23.39" y1="-39.874" style="fill:none;stroke:#000000;stroke-width:0.3;"/>
  <line y2="-39.874" x2="37.405" x1="31.036" y1="-39.874" style="fill:none;stroke:#000000;stroke-width:0.3;"/>
  <line y2="-39.874" x2="46.322" x1="41.16" y1="-39.874" style="fill:none;stroke:#000000;stroke-width:0.3;"/>
  <line y2="-39.874" x2="41.16" x1="39.953" y1="-39.874" style="fill:none;stroke:#000000;stroke-width:0.3;"/>
  <line y2="-39.874" x2="53.584" x1="48.869" y1="-39.874" style="fill:none;stroke:#000000;stroke-width:0.3;"/>
  <line y2="-36.869" x2="0" x1="5.242" y1="-36.869" style="fill:none;stroke:#000000;stroke-width:0.3;"/>
  <line y2="-36.869" x2="7.789" x1="14.158" y1="-36.869" style="fill:none;stroke:#000000;stroke-width:0.3;"/>
  <line y2="-36.869" x2="23.075" x1="16.706" y1="-36.869" style="fill:none;stroke:#000000;stroke-width:0.3;"/>
  <line y2="-36.869" x2="25.622" x1="31.991" y1="-36.869" style="fill:none;stroke:#000000;stroke-width:0.3;"/>
  <line y2="-36.869" x2="40.908" x1="34.539" y1="-36.869" style="fill:none;stroke:#000000;stroke-width:0.3;"/>
  <line y2="-36.869" x2="49.825" x1="43.456" y1="-36.869" style="fill:none;stroke:#000000;stroke-width:0.3;"/>
  <line y2="-36.869" x2="53.584" x1="52.372" y1="-36.869" style="fill:none;stroke:#000000;stroke-width:0.3;"/>
  <line y2="-33.986" x2="0" x1="2.184" y1="-33.986" style="fill:none;stroke:#000000;stroke-width:0.3;"/>
  <line y2="-33.986" x2="4.764" x1="11.133" y1="-33.986" style="fill:none;stroke:#000000;stroke-width:0.3;"/>
  <line y2="-33.986" x2="14.836" x1="13.681" y1="-33.986" style="fill:none;stroke:#000000;stroke-width:0.3;"/>
  <line y2="-33.986" x2="14.836" x1="20.05" y1="-33.986" style="fill:none;stroke:#000000;stroke-width:0.3;"/>
  <line y2="-33.986" x2="22.598" x1="28.966" y1="-33.986" style="fill:none;stroke:#000000;stroke-width:0.3;"/>
  <line y2="-33.986" x2="31.514" x1="32.794" y1="-33.986" style="fill:none;stroke:#000000;stroke-width:0.3;"/>
  <line y2="-33.986" x2="32.794" x1="37.883" y1="-33.986" style="fill:none;stroke:#000000;stroke-width:0.3;"/>
  <line y2="-33.986" x2="40.431" x1="46.8" y1="-33.986" style="fill:none;stroke:#000000;stroke-width:0.3;"/>
  <line y2="-33.986" x2="50.565" x1="49.347" y1="-33.986" style="fill:none;stroke:#000000;stroke-width:0.3;"/>
  <line y2="-33.986" x2="53.584" x1="50.565" y1="-33.986" style="fill:none;stroke:#000000;stroke-width:0.3;"/>
  <line y2="-30.789" x2="0.306" x1="6.675" y1="-30.789" style="fill:none;stroke:#000000;stroke-width:0.3;"/>
  <line y2="-30.789" x2="9.223" x1="15.592" y1="-30.789" style="fill:none;stroke:#000000;stroke-width:0.3;"/>
  <line y2="-30.789" x2="18.139" x1="24.508" y1="-30.789" style="fill:none;stroke:#000000;stroke-width:0.3;"/>
  <line y2="-30.789" x2="33.425" x1="27.056" y1="-30.789" style="fill:none;stroke:#000000;stroke-width:0.3;"/>
  <line y2="-30.789" x2="42.341" x1="35.972" y1="-30.789" style="fill:none;stroke:#000000;stroke-width:0.3;"/>
  <line y2="-30.789" x2="51.258" x1="44.889" y1="-30.789" style="fill:none;stroke:#000000;stroke-width:0.3;"/>
  <line y2="-27.819" x2="0" x1="3.457" y1="-27.819" style="fill:none;stroke:#000000;stroke-width:0.3;"/>
  <line y2="-27.819" x2="6.038" x1="12.407" y1="-27.819" style="fill:none;stroke:#000000;stroke-width:0.3;"/>
  <line y2="-27.819" x2="15.986" x1="14.954" y1="-27.819" style="fill:none;stroke:#000000;stroke-width:0.3;"/>
  <line y2="-27.819" x2="15.986" x1="21.323" y1="-27.819" style="fill:none;stroke:#000000;stroke-width:0.3;"/>
  <line y2="-27.819" x2="30.24" x1="23.871" y1="-27.819" style="fill:none;stroke:#000000;stroke-width:0.3;"/>
  <line y2="-27.819" x2="39.156" x1="34.007" y1="-27.819" style="fill:none;stroke:#000000;stroke-width:0.3;"/>
  <line y2="-27.819" x2="32.788" x1="34.007" y1="-27.819" style="fill:none;stroke:#000000;stroke-width:0.3;"/>
  <line y2="-27.819" x2="48.073" x1="41.704" y1="-27.819" style="fill:none;stroke:#000000;stroke-width:0.3;"/>
  <line y2="-27.819" x2="51.944" x1="50.621" y1="-27.819" style="fill:none;stroke:#000000;stroke-width:0.3;"/>
  <line y2="-27.819" x2="53.584" x1="51.944" y1="-27.819" style="fill:none;stroke:#000000;stroke-width:0.3;"/>
  <line y2="-24.685" x2="7.948" x1="1.579" y1="-24.685" style="fill:none;stroke:#000000;stroke-width:0.3;"/>
  <line y2="-24.685" x2="10.496" x1="16.865" y1="-24.685" style="fill:none;stroke:#000000;stroke-width:0.3;"/>
  <line y2="-24.685" x2="19.413" x1="25.782" y1="-24.685" style="fill:none;stroke:#000000;stroke-width:0.3;"/>
  <line y2="-24.685" x2="28.329" x1="34.698" y1="-24.685" style="fill:none;stroke:#000000;stroke-width:0.3;"/>
  <line y2="-24.685" x2="37.246" x1="43.615" y1="-24.685" style="fill:none;stroke:#000000;stroke-width:0.3;"/>
  <line y2="-24.685" x2="52.531" x1="46.163" y1="-24.685" style="fill:none;stroke:#000000;stroke-width:0.3;"/>
  <line y2="-21.88" x2="0" x1="2.98" y1="-21.88" style="fill:none;stroke:#000000;stroke-width:0.3;"/>
  <line y2="-21.88" x2="5.561" x1="11.929" y1="-21.88" style="fill:none;stroke:#000000;stroke-width:0.3;"/>
  <line y2="-21.88" x2="20.846" x1="14.477" y1="-21.88" style="fill:none;stroke:#000000;stroke-width:0.3;"/>
  <line y2="-21.88" x2="29.763" x1="23.394" y1="-21.88" style="fill:none;stroke:#000000;stroke-width:0.3;"/>
  <line y2="-21.88" x2="38.679" x1="32.31" y1="-21.88" style="fill:none;stroke:#000000;stroke-width:0.3;"/>
  <line y2="-21.88" x2="47.596" x1="41.227" y1="-21.88" style="fill:none;stroke:#000000;stroke-width:0.3;"/>
  <line y2="-21.88" x2="53.584" x1="50.144" y1="-21.88" style="fill:none;stroke:#000000;stroke-width:0.3;"/>
  <line y2="-18.744" x2="0.465" x1="6.834" y1="-18.744" style="fill:none;stroke:#000000;stroke-width:0.3;"/>
  <line y2="-18.744" x2="9.382" x1="15.751" y1="-18.744" style="fill:none;stroke:#000000;stroke-width:0.3;"/>
  <line y2="-18.744" x2="18.298" x1="24.667" y1="-18.744" style="fill:none;stroke:#000000;stroke-width:0.3;"/>
  <line y2="-18.744" x2="33.584" x1="27.215" y1="-18.744" style="fill:none;stroke:#000000;stroke-width:0.3;"/>
  <line y2="-18.744" x2="36.132" x1="42.5" y1="-18.744" style="fill:none;stroke:#000000;stroke-width:0.3;"/>
  <line y2="-18.744" x2="51.417" x1="45.048" y1="-18.744" style="fill:none;stroke:#000000;stroke-width:0.3;"/>
  <line y2="-15.774" x2="0" x1="2.184" y1="-15.774" style="fill:none;stroke:#000000;stroke-width:0.3;"/>
  <line y2="-15.774" x2="4.764" x1="11.133" y1="-15.774" style="fill:none;stroke:#000000;stroke-width:0.3;"/>
  <line y2="-15.774" x2="13.681" x1="20.05" y1="-15.774" style="fill:none;stroke:#000000;stroke-width:0.3;"/>
  <line y2="-15.774" x2="28.966" x1="22.598" y1="-15.774" style="fill:none;stroke:#000000;stroke-width:0.3;"/>
  <line y2="-15.774" x2="37.883" x1="31.514" y1="-15.774" style="fill:none;stroke:#000000;stroke-width:0.3;"/>
  <line y2="-15.774" x2="46.8" x1="40.431" y1="-15.774" style="fill:none;stroke:#000000;stroke-width:0.3;"/>
  <line y2="-15.774" x2="53.584" x1="49.347" y1="-15.774" style="fill:none;stroke:#000000;stroke-width:0.3;"/>
  <line y2="-12.805" x2="1.339" x1="0" y1="-12.805" style="fill:none;stroke:#000000;stroke-width:0.3;"/>
  <line y2="-12.805" x2="1.339" x1="6.038" y1="-12.805" style="fill:none;stroke:#000000;stroke-width:0.3;"/>
  <line y2="-12.805" x2="14.954" x1="8.585" y1="-12.805" style="fill:none;stroke:#000000;stroke-width:0.3;"/>
  <line y2="-12.805" x2="17.502" x1="18.734" y1="-12.805" style="fill:none;stroke:#000000;stroke-width:0.3;"/>
  <line y2="-12.805" x2="18.734" x1="23.871" y1="-12.805" style="fill:none;stroke:#000000;stroke-width:0.3;"/>
  <line y2="-12.805" x2="26.419" x1="32.788" y1="-12.805" style="fill:none;stroke:#000000;stroke-width:0.3;"/>
  <line y2="-12.805" x2="35.335" x1="36.547" y1="-12.805" style="fill:none;stroke:#000000;stroke-width:0.3;"/>
  <line y2="-12.805" x2="41.704" x1="36.547" y1="-12.805" style="fill:none;stroke:#000000;stroke-width:0.3;"/>
  <line y2="-12.805" x2="50.621" x1="44.252" y1="-12.805" style="fill:none;stroke:#000000;stroke-width:0.3;"/>
  <line y2="-12.805" x2="53.169" x1="53.584" y1="-12.805" style="fill:none;stroke:#000000;stroke-width:0.3;"/>
  <line y2="-10.009" x2="3.139" x1="0" y1="-10.009" style="fill:none;stroke:#000000;stroke-width:0.3;"/>
  <line y2="-10.009" x2="5.72" x1="12.088" y1="-10.009" style="fill:none;stroke:#000000;stroke-width:0.3;"/>
  <line y2="-10.009" x2="21.005" x1="14.636" y1="-10.009" style="fill:none;stroke:#000000;stroke-width:0.3;"/>
  <line y2="-10.009" x2="29.922" x1="23.553" y1="-10.009" style="fill:none;stroke:#000000;stroke-width:0.3;"/>
  <line y2="-10.009" x2="38.838" x1="32.47" y1="-10.009" style="fill:none;stroke:#000000;stroke-width:0.3;"/>
  <line y2="-10.009" x2="47.755" x1="41.386" y1="-10.009" style="fill:none;stroke:#000000;stroke-width:0.3;"/>
  <line y2="-10.009" x2="53.584" x1="50.303" y1="-10.009" style="fill:none;stroke:#000000;stroke-width:0.3;"/>
  <line y2="-6.873" x2="1.898" x1="8.267" y1="-6.873" style="fill:none;stroke:#000000;stroke-width:0.3;"/>
  <line y2="-6.873" x2="10.814" x1="17.184" y1="-6.873" style="fill:none;stroke:#000000;stroke-width:0.3;"/>
  <line y2="-6.873" x2="19.732" x1="26.101" y1="-6.873" style="fill:none;stroke:#000000;stroke-width:0.3;"/>
  <line y2="-6.873" x2="28.647" x1="35.017" y1="-6.873" style="fill:none;stroke:#000000;stroke-width:0.3;"/>
  <line y2="-6.873" x2="37.564" x1="43.934" y1="-6.873" style="fill:none;stroke:#000000;stroke-width:0.3;"/>
  <line y2="-6.873" x2="52.85" x1="46.481" y1="-6.873" style="fill:none;stroke:#000000;stroke-width:0.3;"/>
  <line y2="-3.903" x2="0" x1="4.732" y1="-3.903" style="fill:none;stroke:#000000;stroke-width:0.3;"/>
  <line y2="-3.903" x2="13.681" x1="7.312" y1="-3.903" style="fill:none;stroke:#000000;stroke-width:0.3;"/>
  <line y2="-3.903" x2="22.598" x1="16.229" y1="-3.903" style="fill:none;stroke:#000000;stroke-width:0.3;"/>
  <line y2="-3.903" x2="31.514" x1="25.145" y1="-3.903" style="fill:none;stroke:#000000;stroke-width:0.3;"/>
  <line y2="-3.903" x2="40.431" x1="34.062" y1="-3.903" style="fill:none;stroke:#000000;stroke-width:0.3;"/>
  <line y2="-3.903" x2="49.347" x1="42.979" y1="-3.903" style="fill:none;stroke:#000000;stroke-width:0.3;"/>
  <line y2="-3.903" x2="53.584" x1="51.895" y1="-3.903" style="fill:none;stroke:#000000;stroke-width:0.3;"/>
  <line y2="-0.934" x2="2.217" x1="8.585" y1="-0.934" style="fill:none;stroke:#000000;stroke-width:0.3;"/>
  <line y2="-0.934" x2="11.133" x1="17.502" y1="-0.934" style="fill:none;stroke:#000000;stroke-width:0.3;"/>
  <line y2="-0.934" x2="20.05" x1="26.419" y1="-0.934" style="fill:none;stroke:#000000;stroke-width:0.3;"/>
  <line y2="-0.934" x2="28.966" x1="35.335" y1="-0.934" style="fill:none;stroke:#000000;stroke-width:0.3;"/>
  <line y2="-0.934" x2="37.883" x1="44.252" y1="-0.934" style="fill:none;stroke:#000000;stroke-width:0.3;"/>
  <line y2="-0.934" x2="46.8" x1="53.169" y1="-0.934" style="fill:none;stroke:#000000;stroke-width:0.3;"/>
  <line y2="-53.225" x2="8.752" x1="7.666" y1="-51.812" style="fill:none;stroke:#000000;stroke-width:0.3;"/>
  <line y2="-53.225" x2="26.69" x1="25.604" y1="-51.812" style="fill:none;stroke:#000000;stroke-width:0.3;"/>
  <line y2="-53.225" x2="44.71" x1="43.625" y1="-51.812" style="fill:none;stroke:#000000;stroke-width:0.3;"/>
  <line y2="-50.037" x2="48.877" x1="47.791" y1="-48.625" style="fill:none;stroke:#000000;stroke-width:0.3;"/>
  <line y2="-50.037" x2="31.065" x1="29.979" y1="-48.625" style="fill:none;stroke:#000000;stroke-width:0.3;"/>
  <line y2="-50.037" x2="12.918" x1="11.833" y1="-48.625" style="fill:none;stroke:#000000;stroke-width:0.3;"/>
  <line y2="-45.648" x2="5.972" x1="5.938" y1="-45.604" style="fill:none;stroke:#000000;stroke-width:0.3;"/>
  <line y2="-47.017" x2="7.023" x1="5.972" y1="-45.648" style="fill:none;stroke:#000000;stroke-width:0.3;"/>
  <line y2="-47.017" x2="24.877" x1="23.825" y1="-45.648" style="fill:none;stroke:#000000;stroke-width:0.3;"/>
  <line y2="-45.648" x2="23.825" x1="23.791" y1="-45.604" style="fill:none;stroke:#000000;stroke-width:0.3;"/>
  <line y2="-45.648" x2="41.597" x1="41.562" y1="-45.604" style="fill:none;stroke:#000000;stroke-width:0.3;"/>
  <line y2="-47.017" x2="42.647" x1="41.597" y1="-45.648" style="fill:none;stroke:#000000;stroke-width:0.3;"/>
  <line y2="-44.308" x2="39.002" x1="37.916" y1="-42.896" style="fill:none;stroke:#000000;stroke-width:0.3;"/>
  <line y2="-44.308" x2="21.252" x1="20.166" y1="-42.896" style="fill:none;stroke:#000000;stroke-width:0.3;"/>
  <line y2="-44.308" x2="3.293" x1="2.208" y1="-42.896" style="fill:none;stroke:#000000;stroke-width:0.3;"/>
  <line y2="-39.854" x2="41.146" x1="41.16" y1="-39.874" style="fill:none;stroke:#000000;stroke-width:0.3;"/>
  <line y2="-41.267" x2="42.23" x1="41.16" y1="-39.874" style="fill:none;stroke:#000000;stroke-width:0.3;"/>
  <line y2="-41.267" x2="24.46" x1="23.39" y1="-39.874" style="fill:none;stroke:#000000;stroke-width:0.3;"/>
  <line y2="-39.874" x2="23.39" x1="23.375" y1="-39.854" style="fill:none;stroke:#000000;stroke-width:0.3;"/>
  <line y2="-39.874" x2="5.35" x1="5.335" y1="-39.854" style="fill:none;stroke:#000000;stroke-width:0.3;"/>
  <line y2="-41.267" x2="6.421" x1="5.35" y1="-39.874" style="fill:none;stroke:#000000;stroke-width:0.3;"/>
  <line y2="-36.896" x2="44.689" x1="45.775" y1="-38.308" style="fill:none;stroke:#000000;stroke-width:0.3;"/>
  <line y2="-36.896" x2="26.94" x1="28.024" y1="-38.308" style="fill:none;stroke:#000000;stroke-width:0.3;"/>
  <line y2="-38.308" x2="10.129" x1="9.044" y1="-36.896" style="fill:none;stroke:#000000;stroke-width:0.3;"/>
  <line y2="-33.958" x2="32.772" x1="32.794" y1="-33.986" style="fill:none;stroke:#000000;stroke-width:0.3;"/>
  <line y2="-33.986" x2="32.794" x1="33.858" y1="-35.37" style="fill:none;stroke:#000000;stroke-width:0.3;"/>
  <line y2="-35.37" x2="51.629" x1="50.565" y1="-33.986" style="fill:none;stroke:#000000;stroke-width:0.3;"/>
  <line y2="-33.958" x2="50.544" x1="50.565" y1="-33.986" style="fill:none;stroke:#000000;stroke-width:0.3;"/>
  <line y2="-33.986" x2="14.836" x1="14.814" y1="-33.958" style="fill:none;stroke:#000000;stroke-width:0.3;"/>
  <line y2="-33.986" x2="14.836" x1="15.899" y1="-35.37" style="fill:none;stroke:#000000;stroke-width:0.3;"/>
  <line y2="-30.833" x2="46.002" x1="47.087" y1="-32.245" style="fill:none;stroke:#000000;stroke-width:0.3;"/>
  <line y2="-30.833" x2="28.294" x1="29.379" y1="-32.245" style="fill:none;stroke:#000000;stroke-width:0.3;"/>
  <line y2="-32.245" x2="11.566" x1="10.481" y1="-30.833" style="fill:none;stroke:#000000;stroke-width:0.3;"/>
  <line y2="-27.819" x2="15.986" x1="15.981" y1="-27.812" style="fill:none;stroke:#000000;stroke-width:0.3;"/>
  <line y2="-27.819" x2="15.986" x1="17.066" y1="-29.225" style="fill:none;stroke:#000000;stroke-width:0.3;"/>
  <line y2="-29.225" x2="35.087" x1="34.007" y1="-27.819" style="fill:none;stroke:#000000;stroke-width:0.3;"/>
  <line y2="-27.812" x2="34.002" x1="34.007" y1="-27.819" style="fill:none;stroke:#000000;stroke-width:0.3;"/>
  <line y2="-29.225" x2="53.024" x1="51.944" y1="-27.819" style="fill:none;stroke:#000000;stroke-width:0.3;"/>
  <line y2="-27.812" x2="51.939" x1="51.944" y1="-27.819" style="fill:none;stroke:#000000;stroke-width:0.3;"/>
  <line y2="-26.12" x2="39.649" x1="38.564" y1="-24.708" style="fill:none;stroke:#000000;stroke-width:0.3;"/>
  <line y2="-26.12" x2="21.837" x1="20.752" y1="-24.708" style="fill:none;stroke:#000000;stroke-width:0.3;"/>
  <line y2="-26.12" x2="3.985" x1="2.9" y1="-24.708" style="fill:none;stroke:#000000;stroke-width:0.3;"/>
  <line y2="-23.299" x2="8.006" x1="6.921" y1="-21.887" style="fill:none;stroke:#000000;stroke-width:0.3;"/>
  <line y2="-23.299" x2="25.881" x1="24.796" y1="-21.887" style="fill:none;stroke:#000000;stroke-width:0.3;"/>
  <line y2="-21.887" x2="42.421" x1="43.506" y1="-23.299" style="fill:none;stroke:#000000;stroke-width:0.3;"/>
  <line y2="-18.782" x2="37.421" x1="38.506" y1="-20.194" style="fill:none;stroke:#000000;stroke-width:0.3;"/>
  <line y2="-20.194" x2="20.61" x1="19.525" y1="-18.782" style="fill:none;stroke:#000000;stroke-width:0.3;"/>
  <line y2="-20.194" x2="2.777" x1="1.691" y1="-18.782" style="fill:none;stroke:#000000;stroke-width:0.3;"/>
  <line y2="-15.907" x2="6.213" x1="7.298" y1="-17.319" style="fill:none;stroke:#000000;stroke-width:0.3;"/>
  <line y2="-17.319" x2="25.152" x1="24.066" y1="-15.907" style="fill:none;stroke:#000000;stroke-width:0.3;"/>
  <line y2="-15.907" x2="41.754" x1="42.84" y1="-17.319" style="fill:none;stroke:#000000;stroke-width:0.3;"/>
  <line y2="-14.216" x2="37.631" x1="36.547" y1="-12.805" style="fill:none;stroke:#000000;stroke-width:0.3;"/>
  <line y2="-12.804" x2="36.546" x1="36.547" y1="-12.805" style="fill:none;stroke:#000000;stroke-width:0.3;"/>
  <line y2="-12.805" x2="18.734" x1="19.818" y1="-14.216" style="fill:none;stroke:#000000;stroke-width:0.3;"/>
  <line y2="-12.804" x2="18.733" x1="18.734" y1="-12.805" style="fill:none;stroke:#000000;stroke-width:0.3;"/>
  <line y2="-12.804" x2="1.338" x1="1.339" y1="-12.805" style="fill:none;stroke:#000000;stroke-width:0.3;"/>
  <line y2="-12.805" x2="1.339" x1="2.423" y1="-14.216" style="fill:none;stroke:#000000;stroke-width:0.3;"/>
  <line y2="-11.507" x2="43.818" x1="42.733" y1="-10.095" style="fill:none;stroke:#000000;stroke-width:0.3;"/>
  <line y2="-10.095" x2="24.858" x1="25.943" y1="-11.507" style="fill:none;stroke:#000000;stroke-width:0.3;"/>
  <line y2="-10.095" x2="6.879" x1="7.965" y1="-11.507" style="fill:none;stroke:#000000;stroke-width:0.3;"/>
  <line y2="-8.325" x2="13.173" x1="12.088" y1="-6.913" style="fill:none;stroke:#000000;stroke-width:0.3;"/>
  <line y2="-6.913" x2="29.963" x1="31.048" y1="-8.325" style="fill:none;stroke:#000000;stroke-width:0.3;"/>
  <line y2="-5.331" x2="45.36" x1="44.275" y1="-3.919" style="fill:none;stroke:#000000;stroke-width:0.3;"/>
  <line y2="-2.352" x2="40.263" x1="39.177" y1="-0.939" style="fill:none;stroke:#000000;stroke-width:0.3;"/>
  <line y2="-2.352" x2="22.388" x1="21.302" y1="-0.939" style="fill:none;stroke:#000000;stroke-width:0.3;"/>
  <line y2="-2.352" x2="4.45" x1="3.364" y1="-0.939" style="fill:none;stroke:#000000;stroke-width:0.3;"/>
  <line y2="-3.919" x2="26.546" x1="27.631" y1="-5.331" style="fill:none;stroke:#000000;stroke-width:0.3;"/>
  <line y2="-3.919" x2="8.483" x1="9.568" y1="-5.331" style="fill:none;stroke:#000000;stroke-width:0.3;"/>
  <line y2="-6.913" x2="48.129" x1="49.215" y1="-8.325" style="fill:none;stroke:#000000;stroke-width:0.3;"/>
 </g>
</svg>
