<?xml version="1.0"?>
<!-- Converted with SVG Converter - Version 0.9.5 (Compiled Fri Feb 21 09:53:38 2020) - Copyright (C) 2011 Nokia -->
<svg xmlns="http://www.w3.org/2000/svg" version="1.1" xml:space="preserve" height="53.584" xmlns:xlink="http://www.w3.org/1999/xlink" baseProfile="tiny" width="53.584" viewBox="0 -53.584 53.584 53.584" x="0px" y="0px">
 <g>
  <rect height="53.584" width="53.584" style="fill:none;" x="0" y="-53.584"/>
  <line y1="-51.754" style="fill:none;stroke:#000000;stroke-width:0.3;" x2="0" y2="-51.754" x1="3.775"/>
  <line y1="-51.754" style="fill:none;stroke:#000000;stroke-width:0.3;" x2="12.726" y2="-51.754" x1="6.357"/>
  <line y1="-51.754" style="fill:none;stroke:#000000;stroke-width:0.3;" x2="21.642" y2="-51.754" x1="15.273"/>
  <line y1="-51.754" style="fill:none;stroke:#000000;stroke-width:0.3;" x2="30.559" y2="-51.754" x1="24.19"/>
  <line y1="-51.754" style="fill:none;stroke:#000000;stroke-width:0.3;" x2="39.476" y2="-51.754" x1="33.106"/>
  <line y1="-51.754" style="fill:none;stroke:#000000;stroke-width:0.3;" x2="48.392" y2="-51.754" x1="42.022"/>
  <line y1="-51.754" style="fill:none;stroke:#000000;stroke-width:0.3;" x2="50.939" y2="-51.754" x1="53.584"/>
  <line y1="-48.619" style="fill:none;stroke:#000000;stroke-width:0.3;" x2="1.738" y2="-48.619" x1="8.107"/>
  <line y1="-48.619" style="fill:none;stroke:#000000;stroke-width:0.3;" x2="10.655" y2="-48.619" x1="17.024"/>
  <line y1="-48.619" style="fill:none;stroke:#000000;stroke-width:0.3;" x2="19.572" y2="-48.619" x1="25.941"/>
  <line y1="-48.619" style="fill:none;stroke:#000000;stroke-width:0.3;" x2="28.488" y2="-48.619" x1="34.857"/>
  <line y1="-48.619" style="fill:none;stroke:#000000;stroke-width:0.3;" x2="37.405" y2="-48.619" x1="43.774"/>
  <line y1="-48.619" style="fill:none;stroke:#000000;stroke-width:0.3;" x2="52.69" y2="-48.619" x1="46.322"/>
  <line y1="-45.648" style="fill:none;stroke:#000000;stroke-width:0.3;" x2="0" y2="-45.648" x1="2.024"/>
  <line y1="-45.648" style="fill:none;stroke:#000000;stroke-width:0.3;" x2="5.938" y2="-45.648" x1="4.604"/>
  <line y1="-45.648" style="fill:none;stroke:#000000;stroke-width:0.3;" x2="5.938" y2="-45.648" x1="10.974"/>
  <line y1="-45.648" style="fill:none;stroke:#000000;stroke-width:0.3;" x2="19.891" y2="-45.648" x1="13.521"/>
  <line y1="-45.648" style="fill:none;stroke:#000000;stroke-width:0.3;" x2="22.438" y2="-45.648" x1="23.791"/>
  <line y1="-45.648" style="fill:none;stroke:#000000;stroke-width:0.3;" x2="28.807" y2="-45.648" x1="23.791"/>
  <line y1="-45.648" style="fill:none;stroke:#000000;stroke-width:0.3;" x2="37.724" y2="-45.648" x1="31.354"/>
  <line y1="-45.648" style="fill:none;stroke:#000000;stroke-width:0.3;" x2="46.641" y2="-45.648" x1="41.562"/>
  <line y1="-45.648" style="fill:none;stroke:#000000;stroke-width:0.3;" x2="40.271" y2="-45.648" x1="41.562"/>
  <line y1="-45.648" style="fill:none;stroke:#000000;stroke-width:0.3;" x2="53.584" y2="-45.648" x1="49.188"/>
  <line y1="-42.844" style="fill:none;stroke:#000000;stroke-width:0.3;" x2="0.942" y2="-42.844" x1="7.312"/>
  <line y1="-42.844" style="fill:none;stroke:#000000;stroke-width:0.3;" x2="9.859" y2="-42.844" x1="16.229"/>
  <line y1="-42.844" style="fill:none;stroke:#000000;stroke-width:0.3;" x2="18.775" y2="-42.844" x1="25.145"/>
  <line y1="-42.844" style="fill:none;stroke:#000000;stroke-width:0.3;" x2="27.692" y2="-42.844" x1="34.062"/>
  <line y1="-42.844" style="fill:none;stroke:#000000;stroke-width:0.3;" x2="36.609" y2="-42.844" x1="42.979"/>
  <line y1="-42.844" style="fill:none;stroke:#000000;stroke-width:0.3;" x2="45.525" y2="-42.844" x1="51.895"/>
  <line y1="-39.874" style="fill:none;stroke:#000000;stroke-width:0.3;" x2="0" y2="-39.874" x1="1.706"/>
  <line y1="-39.874" style="fill:none;stroke:#000000;stroke-width:0.3;" x2="10.655" y2="-39.874" x1="5.335"/>
  <line y1="-39.874" style="fill:none;stroke:#000000;stroke-width:0.3;" x2="5.335" y2="-39.874" x1="4.286"/>
  <line y1="-39.874" style="fill:none;stroke:#000000;stroke-width:0.3;" x2="13.203" y2="-39.874" x1="19.572"/>
  <line y1="-39.874" style="fill:none;stroke:#000000;stroke-width:0.3;" x2="28.488" y2="-39.874" x1="23.375"/>
  <line y1="-39.874" style="fill:none;stroke:#000000;stroke-width:0.3;" x2="22.119" y2="-39.874" x1="23.375"/>
  <line y1="-39.874" style="fill:none;stroke:#000000;stroke-width:0.3;" x2="37.405" y2="-39.874" x1="31.036"/>
  <line y1="-39.874" style="fill:none;stroke:#000000;stroke-width:0.3;" x2="46.322" y2="-39.874" x1="41.146"/>
  <line y1="-39.874" style="fill:none;stroke:#000000;stroke-width:0.3;" x2="41.146" y2="-39.874" x1="39.953"/>
  <line y1="-39.874" style="fill:none;stroke:#000000;stroke-width:0.3;" x2="53.584" y2="-39.874" x1="48.869"/>
  <line y1="-36.869" style="fill:none;stroke:#000000;stroke-width:0.3;" x2="0" y2="-36.869" x1="5.242"/>
  <line y1="-36.869" style="fill:none;stroke:#000000;stroke-width:0.3;" x2="7.789" y2="-36.869" x1="14.158"/>
  <line y1="-36.869" style="fill:none;stroke:#000000;stroke-width:0.3;" x2="23.075" y2="-36.869" x1="16.706"/>
  <line y1="-36.869" style="fill:none;stroke:#000000;stroke-width:0.3;" x2="25.622" y2="-36.869" x1="31.991"/>
  <line y1="-36.869" style="fill:none;stroke:#000000;stroke-width:0.3;" x2="40.908" y2="-36.869" x1="34.539"/>
  <line y1="-36.869" style="fill:none;stroke:#000000;stroke-width:0.3;" x2="49.825" y2="-36.869" x1="43.456"/>
  <line y1="-36.869" style="fill:none;stroke:#000000;stroke-width:0.3;" x2="53.584" y2="-36.869" x1="52.372"/>
  <line y1="-33.986" style="fill:none;stroke:#000000;stroke-width:0.3;" x2="0" y2="-33.986" x1="2.184"/>
  <line y1="-33.986" style="fill:none;stroke:#000000;stroke-width:0.3;" x2="4.764" y2="-33.986" x1="11.133"/>
  <line y1="-33.986" style="fill:none;stroke:#000000;stroke-width:0.3;" x2="14.814" y2="-33.986" x1="13.681"/>
  <line y1="-33.986" style="fill:none;stroke:#000000;stroke-width:0.3;" x2="14.814" y2="-33.986" x1="20.05"/>
  <line y1="-33.986" style="fill:none;stroke:#000000;stroke-width:0.3;" x2="22.598" y2="-33.986" x1="28.966"/>
  <line y1="-33.986" style="fill:none;stroke:#000000;stroke-width:0.3;" x2="32.772" y2="-33.986" x1="37.883"/>
  <line y1="-33.986" style="fill:none;stroke:#000000;stroke-width:0.3;" x2="31.514" y2="-33.986" x1="32.772"/>
  <line y1="-33.986" style="fill:none;stroke:#000000;stroke-width:0.3;" x2="40.431" y2="-33.986" x1="46.8"/>
  <line y1="-33.986" style="fill:none;stroke:#000000;stroke-width:0.3;" x2="50.544" y2="-33.986" x1="49.347"/>
  <line y1="-33.986" style="fill:none;stroke:#000000;stroke-width:0.3;" x2="53.584" y2="-33.986" x1="50.544"/>
  <line y1="-30.789" style="fill:none;stroke:#000000;stroke-width:0.3;" x2="0.306" y2="-30.789" x1="6.675"/>
  <line y1="-30.789" style="fill:none;stroke:#000000;stroke-width:0.3;" x2="9.223" y2="-30.789" x1="15.592"/>
  <line y1="-30.789" style="fill:none;stroke:#000000;stroke-width:0.3;" x2="18.139" y2="-30.789" x1="24.508"/>
  <line y1="-30.789" style="fill:none;stroke:#000000;stroke-width:0.3;" x2="33.425" y2="-30.789" x1="27.056"/>
  <line y1="-30.789" style="fill:none;stroke:#000000;stroke-width:0.3;" x2="42.341" y2="-30.789" x1="35.972"/>
  <line y1="-30.789" style="fill:none;stroke:#000000;stroke-width:0.3;" x2="51.258" y2="-30.789" x1="44.889"/>
  <line y1="-27.819" style="fill:none;stroke:#000000;stroke-width:0.3;" x2="0" y2="-27.819" x1="3.457"/>
  <line y1="-27.819" style="fill:none;stroke:#000000;stroke-width:0.3;" x2="6.038" y2="-27.819" x1="12.407"/>
  <line y1="-27.819" style="fill:none;stroke:#000000;stroke-width:0.3;" x2="15.981" y2="-27.819" x1="21.323"/>
  <line y1="-27.819" style="fill:none;stroke:#000000;stroke-width:0.3;" x2="15.981" y2="-27.819" x1="14.954"/>
  <line y1="-27.819" style="fill:none;stroke:#000000;stroke-width:0.3;" x2="30.24" y2="-27.819" x1="23.871"/>
  <line y1="-27.819" style="fill:none;stroke:#000000;stroke-width:0.3;" x2="39.156" y2="-27.819" x1="34.002"/>
  <line y1="-27.819" style="fill:none;stroke:#000000;stroke-width:0.3;" x2="32.788" y2="-27.819" x1="34.002"/>
  <line y1="-27.819" style="fill:none;stroke:#000000;stroke-width:0.3;" x2="48.073" y2="-27.819" x1="41.704"/>
  <line y1="-27.819" style="fill:none;stroke:#000000;stroke-width:0.3;" x2="53.584" y2="-27.819" x1="51.939"/>
  <line y1="-27.819" style="fill:none;stroke:#000000;stroke-width:0.3;" x2="51.939" y2="-27.819" x1="50.621"/>
  <line y1="-24.685" style="fill:none;stroke:#000000;stroke-width:0.3;" x2="7.948" y2="-24.685" x1="1.579"/>
  <line y1="-24.685" style="fill:none;stroke:#000000;stroke-width:0.3;" x2="10.496" y2="-24.685" x1="16.865"/>
  <line y1="-24.685" style="fill:none;stroke:#000000;stroke-width:0.3;" x2="19.413" y2="-24.685" x1="25.782"/>
  <line y1="-24.685" style="fill:none;stroke:#000000;stroke-width:0.3;" x2="28.329" y2="-24.685" x1="34.698"/>
  <line y1="-24.685" style="fill:none;stroke:#000000;stroke-width:0.3;" x2="37.246" y2="-24.685" x1="43.615"/>
  <line y1="-24.685" style="fill:none;stroke:#000000;stroke-width:0.3;" x2="52.531" y2="-24.685" x1="46.163"/>
  <line y1="-21.88" style="fill:none;stroke:#000000;stroke-width:0.3;" x2="0" y2="-21.88" x1="2.98"/>
  <line y1="-21.88" style="fill:none;stroke:#000000;stroke-width:0.3;" x2="5.561" y2="-21.88" x1="11.929"/>
  <line y1="-21.88" style="fill:none;stroke:#000000;stroke-width:0.3;" x2="20.846" y2="-21.88" x1="14.477"/>
  <line y1="-21.88" style="fill:none;stroke:#000000;stroke-width:0.3;" x2="29.763" y2="-21.88" x1="23.394"/>
  <line y1="-21.88" style="fill:none;stroke:#000000;stroke-width:0.3;" x2="38.679" y2="-21.88" x1="32.31"/>
  <line y1="-21.88" style="fill:none;stroke:#000000;stroke-width:0.3;" x2="47.596" y2="-21.88" x1="41.227"/>
  <line y1="-21.88" style="fill:none;stroke:#000000;stroke-width:0.3;" x2="53.584" y2="-21.88" x1="50.144"/>
  <line y1="-18.744" style="fill:none;stroke:#000000;stroke-width:0.3;" x2="0.465" y2="-18.744" x1="6.834"/>
  <line y1="-18.744" style="fill:none;stroke:#000000;stroke-width:0.3;" x2="9.382" y2="-18.744" x1="15.751"/>
  <line y1="-18.744" style="fill:none;stroke:#000000;stroke-width:0.3;" x2="18.298" y2="-18.744" x1="24.667"/>
  <line y1="-18.744" style="fill:none;stroke:#000000;stroke-width:0.3;" x2="33.584" y2="-18.744" x1="27.215"/>
  <line y1="-18.744" style="fill:none;stroke:#000000;stroke-width:0.3;" x2="36.132" y2="-18.744" x1="42.5"/>
  <line y1="-18.744" style="fill:none;stroke:#000000;stroke-width:0.3;" x2="51.417" y2="-18.744" x1="45.048"/>
  <line y1="-15.774" style="fill:none;stroke:#000000;stroke-width:0.3;" x2="2.184" y2="-15.774" x1="0"/>
  <line y1="-15.774" style="fill:none;stroke:#000000;stroke-width:0.3;" x2="11.133" y2="-15.774" x1="4.764"/>
  <line y1="-15.774" style="fill:none;stroke:#000000;stroke-width:0.3;" x2="13.681" y2="-15.774" x1="20.05"/>
  <line y1="-15.774" style="fill:none;stroke:#000000;stroke-width:0.3;" x2="28.966" y2="-15.774" x1="22.598"/>
  <line y1="-15.774" style="fill:none;stroke:#000000;stroke-width:0.3;" x2="37.883" y2="-15.774" x1="31.514"/>
  <line y1="-15.774" style="fill:none;stroke:#000000;stroke-width:0.3;" x2="46.8" y2="-15.774" x1="40.431"/>
  <line y1="-15.774" style="fill:none;stroke:#000000;stroke-width:0.3;" x2="53.584" y2="-15.774" x1="49.347"/>
  <line y1="-12.805" style="fill:none;stroke:#000000;stroke-width:0.3;" x2="0" y2="-12.805" x1="1.338"/>
  <line y1="-12.805" style="fill:none;stroke:#000000;stroke-width:0.3;" x2="1.338" y2="-12.805" x1="6.038"/>
  <line y1="-12.805" style="fill:none;stroke:#000000;stroke-width:0.3;" x2="8.585" y2="-12.805" x1="14.954"/>
  <line y1="-12.805" style="fill:none;stroke:#000000;stroke-width:0.3;" x2="18.733" y2="-12.805" x1="23.871"/>
  <line y1="-12.805" style="fill:none;stroke:#000000;stroke-width:0.3;" x2="17.502" y2="-12.805" x1="18.733"/>
  <line y1="-12.805" style="fill:none;stroke:#000000;stroke-width:0.3;" x2="26.419" y2="-12.805" x1="32.788"/>
  <line y1="-12.805" style="fill:none;stroke:#000000;stroke-width:0.3;" x2="41.704" y2="-12.805" x1="36.546"/>
  <line y1="-12.805" style="fill:none;stroke:#000000;stroke-width:0.3;" x2="35.335" y2="-12.805" x1="36.546"/>
  <line y1="-12.805" style="fill:none;stroke:#000000;stroke-width:0.3;" x2="50.621" y2="-12.805" x1="44.252"/>
  <line y1="-12.805" style="fill:none;stroke:#000000;stroke-width:0.3;" x2="53.169" y2="-12.805" x1="53.584"/>
  <line y1="-10.009" style="fill:none;stroke:#000000;stroke-width:0.3;" x2="0" y2="-10.009" x1="3.139"/>
  <line y1="-10.009" style="fill:none;stroke:#000000;stroke-width:0.3;" x2="5.72" y2="-10.009" x1="12.088"/>
  <line y1="-10.009" style="fill:none;stroke:#000000;stroke-width:0.3;" x2="21.005" y2="-10.009" x1="14.636"/>
  <line y1="-10.009" style="fill:none;stroke:#000000;stroke-width:0.3;" x2="29.922" y2="-10.009" x1="23.553"/>
  <line y1="-10.009" style="fill:none;stroke:#000000;stroke-width:0.3;" x2="38.838" y2="-10.009" x1="32.47"/>
  <line y1="-10.009" style="fill:none;stroke:#000000;stroke-width:0.3;" x2="47.755" y2="-10.009" x1="41.386"/>
  <line y1="-10.009" style="fill:none;stroke:#000000;stroke-width:0.3;" x2="53.584" y2="-10.009" x1="50.303"/>
  <line y1="-6.873" style="fill:none;stroke:#000000;stroke-width:0.3;" x2="1.898" y2="-6.873" x1="8.267"/>
  <line y1="-6.873" style="fill:none;stroke:#000000;stroke-width:0.3;" x2="10.814" y2="-6.873" x1="17.184"/>
  <line y1="-6.873" style="fill:none;stroke:#000000;stroke-width:0.3;" x2="19.732" y2="-6.873" x1="26.101"/>
  <line y1="-6.873" style="fill:none;stroke:#000000;stroke-width:0.3;" x2="28.647" y2="-6.873" x1="35.017"/>
  <line y1="-6.873" style="fill:none;stroke:#000000;stroke-width:0.3;" x2="37.564" y2="-6.873" x1="43.934"/>
  <line y1="-6.873" style="fill:none;stroke:#000000;stroke-width:0.3;" x2="52.85" y2="-6.873" x1="46.481"/>
  <line y1="-3.903" style="fill:none;stroke:#000000;stroke-width:0.3;" x2="4.732" y2="-3.903" x1="0"/>
  <line y1="-3.903" style="fill:none;stroke:#000000;stroke-width:0.3;" x2="13.681" y2="-3.903" x1="7.312"/>
  <line y1="-3.903" style="fill:none;stroke:#000000;stroke-width:0.3;" x2="22.598" y2="-3.903" x1="16.229"/>
  <line y1="-3.903" style="fill:none;stroke:#000000;stroke-width:0.3;" x2="31.514" y2="-3.903" x1="25.145"/>
  <line y1="-3.903" style="fill:none;stroke:#000000;stroke-width:0.3;" x2="40.431" y2="-3.903" x1="34.062"/>
  <line y1="-3.903" style="fill:none;stroke:#000000;stroke-width:0.3;" x2="49.347" y2="-3.903" x1="42.979"/>
  <line y1="-3.903" style="fill:none;stroke:#000000;stroke-width:0.3;" x2="53.584" y2="-3.903" x1="51.895"/>
  <line y1="-0.934" style="fill:none;stroke:#000000;stroke-width:0.3;" x2="2.217" y2="-0.934" x1="8.585"/>
  <line y1="-0.934" style="fill:none;stroke:#000000;stroke-width:0.3;" x2="11.133" y2="-0.934" x1="17.502"/>
  <line y1="-0.934" style="fill:none;stroke:#000000;stroke-width:0.3;" x2="20.05" y2="-0.934" x1="26.419"/>
  <line y1="-0.934" style="fill:none;stroke:#000000;stroke-width:0.3;" x2="28.966" y2="-0.934" x1="35.335"/>
  <line y1="-0.934" style="fill:none;stroke:#000000;stroke-width:0.3;" x2="37.883" y2="-0.934" x1="44.252"/>
  <line y1="-0.934" style="fill:none;stroke:#000000;stroke-width:0.3;" x2="46.8" y2="-0.934" x1="53.169"/>
  <line y1="-51.812" style="fill:none;stroke:#000000;stroke-width:0.3;" x2="7.675" y2="-53.508" x1="7.666"/>
  <line y1="-51.812" style="fill:none;stroke:#000000;stroke-width:0.3;" x2="25.612" y2="-53.508" x1="25.604"/>
  <line y1="-51.812" style="fill:none;stroke:#000000;stroke-width:0.3;" x2="43.633" y2="-53.508" x1="43.625"/>
  <line y1="-50.32" style="fill:none;stroke:#000000;stroke-width:0.3;" x2="47.791" y2="-48.625" x1="47.8"/>
  <line y1="-50.32" style="fill:none;stroke:#000000;stroke-width:0.3;" x2="29.979" y2="-48.625" x1="29.987"/>
  <line y1="-50.32" style="fill:none;stroke:#000000;stroke-width:0.3;" x2="11.833" y2="-48.625" x1="11.841"/>
  <line y1="-45.604" style="fill:none;stroke:#000000;stroke-width:0.3;" x2="5.938" y2="-45.648" x1="5.938"/>
  <line y1="-45.648" style="fill:none;stroke:#000000;stroke-width:0.3;" x2="5.945" y2="-47.3" x1="5.938"/>
  <line y1="-45.604" style="fill:none;stroke:#000000;stroke-width:0.3;" x2="23.791" y2="-45.648" x1="23.791"/>
  <line y1="-45.648" style="fill:none;stroke:#000000;stroke-width:0.3;" x2="23.8" y2="-47.3" x1="23.791"/>
  <line y1="-45.648" style="fill:none;stroke:#000000;stroke-width:0.3;" x2="41.57" y2="-47.3" x1="41.562"/>
  <line y1="-45.604" style="fill:none;stroke:#000000;stroke-width:0.3;" x2="41.562" y2="-45.648" x1="41.562"/>
  <line y1="-42.896" style="fill:none;stroke:#000000;stroke-width:0.3;" x2="37.925" y2="-44.592" x1="37.916"/>
  <line y1="-42.896" style="fill:none;stroke:#000000;stroke-width:0.3;" x2="20.175" y2="-44.592" x1="20.166"/>
  <line y1="-42.896" style="fill:none;stroke:#000000;stroke-width:0.3;" x2="2.216" y2="-44.592" x1="2.208"/>
  <line y1="-39.874" style="fill:none;stroke:#000000;stroke-width:0.3;" x2="41.146" y2="-39.854" x1="41.146"/>
  <line y1="-39.874" style="fill:none;stroke:#000000;stroke-width:0.3;" x2="41.153" y2="-41.55" x1="41.146"/>
  <line y1="-39.874" style="fill:none;stroke:#000000;stroke-width:0.3;" x2="23.383" y2="-41.55" x1="23.375"/>
  <line y1="-39.854" style="fill:none;stroke:#000000;stroke-width:0.3;" x2="23.375" y2="-39.874" x1="23.375"/>
  <line y1="-39.854" style="fill:none;stroke:#000000;stroke-width:0.3;" x2="5.335" y2="-39.874" x1="5.335"/>
  <line y1="-39.874" style="fill:none;stroke:#000000;stroke-width:0.3;" x2="5.344" y2="-41.55" x1="5.335"/>
  <line y1="-38.592" style="fill:none;stroke:#000000;stroke-width:0.3;" x2="44.689" y2="-36.896" x1="44.697"/>
  <line y1="-38.592" style="fill:none;stroke:#000000;stroke-width:0.3;" x2="26.94" y2="-36.896" x1="26.947"/>
  <line y1="-36.896" style="fill:none;stroke:#000000;stroke-width:0.3;" x2="9.052" y2="-38.592" x1="9.044"/>
  <line y1="-35.654" style="fill:none;stroke:#000000;stroke-width:0.3;" x2="32.772" y2="-33.986" x1="32.781"/>
  <line y1="-33.986" style="fill:none;stroke:#000000;stroke-width:0.3;" x2="32.772" y2="-33.958" x1="32.772"/>
  <line y1="-33.986" style="fill:none;stroke:#000000;stroke-width:0.3;" x2="50.544" y2="-33.958" x1="50.544"/>
  <line y1="-33.986" style="fill:none;stroke:#000000;stroke-width:0.3;" x2="50.552" y2="-35.654" x1="50.544"/>
  <line y1="-35.654" style="fill:none;stroke:#000000;stroke-width:0.3;" x2="14.814" y2="-33.986" x1="14.822"/>
  <line y1="-33.958" style="fill:none;stroke:#000000;stroke-width:0.3;" x2="14.814" y2="-33.986" x1="14.814"/>
  <line y1="-32.529" style="fill:none;stroke:#000000;stroke-width:0.3;" x2="46.002" y2="-30.833" x1="46.01"/>
  <line y1="-32.529" style="fill:none;stroke:#000000;stroke-width:0.3;" x2="28.294" y2="-30.833" x1="28.302"/>
  <line y1="-30.833" style="fill:none;stroke:#000000;stroke-width:0.3;" x2="10.489" y2="-32.529" x1="10.481"/>
  <line y1="-27.812" style="fill:none;stroke:#000000;stroke-width:0.3;" x2="15.981" y2="-27.819" x1="15.981"/>
  <line y1="-29.508" style="fill:none;stroke:#000000;stroke-width:0.3;" x2="15.981" y2="-27.819" x1="15.989"/>
  <line y1="-27.819" style="fill:none;stroke:#000000;stroke-width:0.3;" x2="34.002" y2="-27.812" x1="34.002"/>
  <line y1="-27.819" style="fill:none;stroke:#000000;stroke-width:0.3;" x2="34.01" y2="-29.508" x1="34.002"/>
  <line y1="-27.819" style="fill:none;stroke:#000000;stroke-width:0.3;" x2="51.947" y2="-29.508" x1="51.939"/>
  <line y1="-27.819" style="fill:none;stroke:#000000;stroke-width:0.3;" x2="51.939" y2="-27.812" x1="51.939"/>
  <line y1="-24.708" style="fill:none;stroke:#000000;stroke-width:0.3;" x2="38.572" y2="-26.404" x1="38.564"/>
  <line y1="-24.708" style="fill:none;stroke:#000000;stroke-width:0.3;" x2="20.76" y2="-26.404" x1="20.752"/>
  <line y1="-24.708" style="fill:none;stroke:#000000;stroke-width:0.3;" x2="2.908" y2="-26.404" x1="2.9"/>
  <line y1="-23.582" style="fill:none;stroke:#000000;stroke-width:0.3;" x2="6.921" y2="-21.887" x1="6.929"/>
  <line y1="-21.887" style="fill:none;stroke:#000000;stroke-width:0.3;" x2="24.804" y2="-23.582" x1="24.796"/>
  <line y1="-23.582" style="fill:none;stroke:#000000;stroke-width:0.3;" x2="42.421" y2="-21.887" x1="42.429"/>
  <line y1="-20.478" style="fill:none;stroke:#000000;stroke-width:0.3;" x2="37.421" y2="-18.782" x1="37.429"/>
  <line y1="-18.782" style="fill:none;stroke:#000000;stroke-width:0.3;" x2="19.533" y2="-20.478" x1="19.525"/>
  <line y1="-18.782" style="fill:none;stroke:#000000;stroke-width:0.3;" x2="1.7" y2="-20.478" x1="1.691"/>
  <line y1="-15.907" style="fill:none;stroke:#000000;stroke-width:0.3;" x2="6.221" y2="-17.603" x1="6.213"/>
  <line y1="-15.907" style="fill:none;stroke:#000000;stroke-width:0.3;" x2="24.075" y2="-17.603" x1="24.066"/>
  <line y1="-17.603" style="fill:none;stroke:#000000;stroke-width:0.3;" x2="41.754" y2="-15.907" x1="41.763"/>
  <line y1="-12.805" style="fill:none;stroke:#000000;stroke-width:0.3;" x2="36.554" y2="-14.499" x1="36.546"/>
  <line y1="-12.805" style="fill:none;stroke:#000000;stroke-width:0.3;" x2="36.546" y2="-12.804" x1="36.546"/>
  <line y1="-14.499" style="fill:none;stroke:#000000;stroke-width:0.3;" x2="18.733" y2="-12.805" x1="18.741"/>
  <line y1="-12.805" style="fill:none;stroke:#000000;stroke-width:0.3;" x2="18.733" y2="-12.804" x1="18.733"/>
  <line y1="-12.805" style="fill:none;stroke:#000000;stroke-width:0.3;" x2="1.338" y2="-12.804" x1="1.338"/>
  <line y1="-12.805" style="fill:none;stroke:#000000;stroke-width:0.3;" x2="1.346" y2="-14.499" x1="1.338"/>
  <line y1="-10.095" style="fill:none;stroke:#000000;stroke-width:0.3;" x2="42.741" y2="-11.791" x1="42.733"/>
  <line y1="-11.791" style="fill:none;stroke:#000000;stroke-width:0.3;" x2="24.858" y2="-10.095" x1="24.866"/>
  <line y1="-10.095" style="fill:none;stroke:#000000;stroke-width:0.3;" x2="6.888" y2="-11.791" x1="6.879"/>
  <line y1="-6.913" style="fill:none;stroke:#000000;stroke-width:0.3;" x2="12.096" y2="-8.609" x1="12.088"/>
  <line y1="-8.609" style="fill:none;stroke:#000000;stroke-width:0.3;" x2="29.963" y2="-6.913" x1="29.971"/>
  <line y1="-3.919" style="fill:none;stroke:#000000;stroke-width:0.3;" x2="44.283" y2="-5.614" x1="44.275"/>
  <line y1="-0.939" style="fill:none;stroke:#000000;stroke-width:0.3;" x2="39.185" y2="-2.635" x1="39.177"/>
  <line y1="-0.939" style="fill:none;stroke:#000000;stroke-width:0.3;" x2="21.31" y2="-2.635" x1="21.302"/>
  <line y1="-0.939" style="fill:none;stroke:#000000;stroke-width:0.3;" x2="3.372" y2="-2.635" x1="3.364"/>
  <line y1="-5.614" style="fill:none;stroke:#000000;stroke-width:0.3;" x2="26.546" y2="-3.919" x1="26.554"/>
  <line y1="-5.614" style="fill:none;stroke:#000000;stroke-width:0.3;" x2="8.483" y2="-3.919" x1="8.491"/>
  <line y1="-8.609" style="fill:none;stroke:#000000;stroke-width:0.3;" x2="48.129" y2="-6.913" x1="48.138"/>
 </g>
</svg>
