<?xml version="1.0"?>
<!-- Converted with SVG Converter - Version 0.9.5 (Compiled Fri Feb 21 09:53:38 2020) - Copyright (C) 2011 Nokia -->
<svg xmlns="http://www.w3.org/2000/svg" xml:space="preserve" height="53.584" y="0px" x="0px" viewBox="0 -53.584 53.584 53.584" xmlns:xlink="http://www.w3.org/1999/xlink" width="53.584" version="1.1" baseProfile="tiny">
 <g>
  <rect height="53.584" y="-53.584" x="0" style="fill:none;" width="53.584"/>
  <line y1="-51.754" style="fill:none;stroke:#000000;stroke-width:0.3;" x1="3.775" y2="-51.754" x2="0"/>
  <line y1="-51.754" style="fill:none;stroke:#000000;stroke-width:0.3;" x1="6.357" y2="-51.754" x2="12.726"/>
  <line y1="-51.754" style="fill:none;stroke:#000000;stroke-width:0.3;" x1="15.273" y2="-51.754" x2="21.642"/>
  <line y1="-51.754" style="fill:none;stroke:#000000;stroke-width:0.3;" x1="24.19" y2="-51.754" x2="30.559"/>
  <line y1="-51.754" style="fill:none;stroke:#000000;stroke-width:0.3;" x1="33.106" y2="-51.754" x2="39.476"/>
  <line y1="-51.754" style="fill:none;stroke:#000000;stroke-width:0.3;" x1="42.022" y2="-51.754" x2="48.392"/>
  <line y1="-51.754" style="fill:none;stroke:#000000;stroke-width:0.3;" x1="53.584" y2="-51.754" x2="50.939"/>
  <line y1="-48.619" style="fill:none;stroke:#000000;stroke-width:0.3;" x1="8.107" y2="-48.619" x2="1.738"/>
  <line y1="-48.619" style="fill:none;stroke:#000000;stroke-width:0.3;" x1="17.024" y2="-48.619" x2="10.655"/>
  <line y1="-48.619" style="fill:none;stroke:#000000;stroke-width:0.3;" x1="25.941" y2="-48.619" x2="19.572"/>
  <line y1="-48.619" style="fill:none;stroke:#000000;stroke-width:0.3;" x1="34.857" y2="-48.619" x2="28.488"/>
  <line y1="-48.619" style="fill:none;stroke:#000000;stroke-width:0.3;" x1="43.774" y2="-48.619" x2="37.405"/>
  <line y1="-48.619" style="fill:none;stroke:#000000;stroke-width:0.3;" x1="46.322" y2="-48.619" x2="52.69"/>
  <line y1="-45.648" style="fill:none;stroke:#000000;stroke-width:0.3;" x1="2.024" y2="-45.648" x2="0"/>
  <line y1="-45.648" style="fill:none;stroke:#000000;stroke-width:0.3;" x1="4.604" y2="-45.648" x2="5.938"/>
  <line y1="-45.648" style="fill:none;stroke:#000000;stroke-width:0.3;" x1="10.974" y2="-45.648" x2="5.938"/>
  <line y1="-45.648" style="fill:none;stroke:#000000;stroke-width:0.3;" x1="13.521" y2="-45.648" x2="19.891"/>
  <line y1="-45.648" style="fill:none;stroke:#000000;stroke-width:0.3;" x1="23.791" y2="-45.648" x2="22.438"/>
  <line y1="-45.648" style="fill:none;stroke:#000000;stroke-width:0.3;" x1="23.791" y2="-45.648" x2="28.807"/>
  <line y1="-45.648" style="fill:none;stroke:#000000;stroke-width:0.3;" x1="31.354" y2="-45.648" x2="37.724"/>
  <line y1="-45.648" style="fill:none;stroke:#000000;stroke-width:0.3;" x1="41.562" y2="-45.648" x2="46.641"/>
  <line y1="-45.648" style="fill:none;stroke:#000000;stroke-width:0.3;" x1="41.562" y2="-45.648" x2="40.271"/>
  <line y1="-45.648" style="fill:none;stroke:#000000;stroke-width:0.3;" x1="49.188" y2="-45.648" x2="53.584"/>
  <line y1="-42.844" style="fill:none;stroke:#000000;stroke-width:0.3;" x1="7.312" y2="-42.844" x2="0.942"/>
  <line y1="-42.844" style="fill:none;stroke:#000000;stroke-width:0.3;" x1="16.229" y2="-42.844" x2="9.859"/>
  <line y1="-42.844" style="fill:none;stroke:#000000;stroke-width:0.3;" x1="25.145" y2="-42.844" x2="18.775"/>
  <line y1="-42.844" style="fill:none;stroke:#000000;stroke-width:0.3;" x1="34.062" y2="-42.844" x2="27.692"/>
  <line y1="-42.844" style="fill:none;stroke:#000000;stroke-width:0.3;" x1="42.979" y2="-42.844" x2="36.609"/>
  <line y1="-42.844" style="fill:none;stroke:#000000;stroke-width:0.3;" x1="51.895" y2="-42.844" x2="45.525"/>
  <line y1="-39.874" style="fill:none;stroke:#000000;stroke-width:0.3;" x1="1.706" y2="-39.874" x2="0"/>
  <line y1="-39.874" style="fill:none;stroke:#000000;stroke-width:0.3;" x1="5.335" y2="-39.874" x2="10.655"/>
  <line y1="-39.874" style="fill:none;stroke:#000000;stroke-width:0.3;" x1="4.286" y2="-39.874" x2="5.335"/>
  <line y1="-39.874" style="fill:none;stroke:#000000;stroke-width:0.3;" x1="19.572" y2="-39.874" x2="13.203"/>
  <line y1="-39.874" style="fill:none;stroke:#000000;stroke-width:0.3;" x1="23.375" y2="-39.874" x2="28.488"/>
  <line y1="-39.874" style="fill:none;stroke:#000000;stroke-width:0.3;" x1="23.375" y2="-39.874" x2="22.119"/>
  <line y1="-39.874" style="fill:none;stroke:#000000;stroke-width:0.3;" x1="31.036" y2="-39.874" x2="37.405"/>
  <line y1="-39.874" style="fill:none;stroke:#000000;stroke-width:0.3;" x1="41.146" y2="-39.874" x2="46.322"/>
  <line y1="-39.874" style="fill:none;stroke:#000000;stroke-width:0.3;" x1="39.953" y2="-39.874" x2="41.146"/>
  <line y1="-39.874" style="fill:none;stroke:#000000;stroke-width:0.3;" x1="48.869" y2="-39.874" x2="53.584"/>
  <line y1="-36.869" style="fill:none;stroke:#000000;stroke-width:0.3;" x1="5.242" y2="-36.869" x2="0"/>
  <line y1="-36.869" style="fill:none;stroke:#000000;stroke-width:0.3;" x1="14.158" y2="-36.869" x2="7.789"/>
  <line y1="-36.869" style="fill:none;stroke:#000000;stroke-width:0.3;" x1="16.706" y2="-36.869" x2="23.075"/>
  <line y1="-36.869" style="fill:none;stroke:#000000;stroke-width:0.3;" x1="31.991" y2="-36.869" x2="25.622"/>
  <line y1="-36.869" style="fill:none;stroke:#000000;stroke-width:0.3;" x1="34.539" y2="-36.869" x2="40.908"/>
  <line y1="-36.869" style="fill:none;stroke:#000000;stroke-width:0.3;" x1="43.456" y2="-36.869" x2="49.825"/>
  <line y1="-36.869" style="fill:none;stroke:#000000;stroke-width:0.3;" x1="52.372" y2="-36.869" x2="53.584"/>
  <line y1="-33.986" style="fill:none;stroke:#000000;stroke-width:0.3;" x1="2.184" y2="-33.986" x2="0"/>
  <line y1="-33.986" style="fill:none;stroke:#000000;stroke-width:0.3;" x1="11.133" y2="-33.986" x2="4.764"/>
  <line y1="-33.986" style="fill:none;stroke:#000000;stroke-width:0.3;" x1="13.681" y2="-33.986" x2="14.814"/>
  <line y1="-33.986" style="fill:none;stroke:#000000;stroke-width:0.3;" x1="20.05" y2="-33.986" x2="14.814"/>
  <line y1="-33.986" style="fill:none;stroke:#000000;stroke-width:0.3;" x1="28.966" y2="-33.986" x2="22.598"/>
  <line y1="-33.986" style="fill:none;stroke:#000000;stroke-width:0.3;" x1="37.883" y2="-33.986" x2="32.772"/>
  <line y1="-33.986" style="fill:none;stroke:#000000;stroke-width:0.3;" x1="32.772" y2="-33.986" x2="31.514"/>
  <line y1="-33.986" style="fill:none;stroke:#000000;stroke-width:0.3;" x1="46.8" y2="-33.986" x2="40.431"/>
  <line y1="-33.986" style="fill:none;stroke:#000000;stroke-width:0.3;" x1="49.347" y2="-33.986" x2="50.544"/>
  <line y1="-33.986" style="fill:none;stroke:#000000;stroke-width:0.3;" x1="50.544" y2="-33.986" x2="53.584"/>
  <line y1="-30.789" style="fill:none;stroke:#000000;stroke-width:0.3;" x1="6.675" y2="-30.789" x2="0.306"/>
  <line y1="-30.789" style="fill:none;stroke:#000000;stroke-width:0.3;" x1="15.592" y2="-30.789" x2="9.223"/>
  <line y1="-30.789" style="fill:none;stroke:#000000;stroke-width:0.3;" x1="24.508" y2="-30.789" x2="18.139"/>
  <line y1="-30.789" style="fill:none;stroke:#000000;stroke-width:0.3;" x1="27.056" y2="-30.789" x2="33.425"/>
  <line y1="-30.789" style="fill:none;stroke:#000000;stroke-width:0.3;" x1="35.972" y2="-30.789" x2="42.341"/>
  <line y1="-30.789" style="fill:none;stroke:#000000;stroke-width:0.3;" x1="44.889" y2="-30.789" x2="51.258"/>
  <line y1="-27.819" style="fill:none;stroke:#000000;stroke-width:0.3;" x1="3.457" y2="-27.819" x2="0"/>
  <line y1="-27.819" style="fill:none;stroke:#000000;stroke-width:0.3;" x1="12.407" y2="-27.819" x2="6.038"/>
  <line y1="-27.819" style="fill:none;stroke:#000000;stroke-width:0.3;" x1="21.323" y2="-27.819" x2="15.981"/>
  <line y1="-27.819" style="fill:none;stroke:#000000;stroke-width:0.3;" x1="14.954" y2="-27.819" x2="15.981"/>
  <line y1="-27.819" style="fill:none;stroke:#000000;stroke-width:0.3;" x1="23.871" y2="-27.819" x2="30.24"/>
  <line y1="-27.819" style="fill:none;stroke:#000000;stroke-width:0.3;" x1="34.002" y2="-27.819" x2="39.156"/>
  <line y1="-27.819" style="fill:none;stroke:#000000;stroke-width:0.3;" x1="34.002" y2="-27.819" x2="32.788"/>
  <line y1="-27.819" style="fill:none;stroke:#000000;stroke-width:0.3;" x1="41.704" y2="-27.819" x2="48.073"/>
  <line y1="-27.819" style="fill:none;stroke:#000000;stroke-width:0.3;" x1="51.939" y2="-27.819" x2="53.584"/>
  <line y1="-27.819" style="fill:none;stroke:#000000;stroke-width:0.3;" x1="50.621" y2="-27.819" x2="51.939"/>
  <line y1="-24.685" style="fill:none;stroke:#000000;stroke-width:0.3;" x1="1.579" y2="-24.685" x2="7.948"/>
  <line y1="-24.685" style="fill:none;stroke:#000000;stroke-width:0.3;" x1="16.865" y2="-24.685" x2="10.496"/>
  <line y1="-24.685" style="fill:none;stroke:#000000;stroke-width:0.3;" x1="25.782" y2="-24.685" x2="19.413"/>
  <line y1="-24.685" style="fill:none;stroke:#000000;stroke-width:0.3;" x1="34.698" y2="-24.685" x2="28.329"/>
  <line y1="-24.685" style="fill:none;stroke:#000000;stroke-width:0.3;" x1="43.615" y2="-24.685" x2="37.246"/>
  <line y1="-24.685" style="fill:none;stroke:#000000;stroke-width:0.3;" x1="46.163" y2="-24.685" x2="52.531"/>
  <line y1="-21.88" style="fill:none;stroke:#000000;stroke-width:0.3;" x1="2.98" y2="-21.88" x2="0"/>
  <line y1="-21.88" style="fill:none;stroke:#000000;stroke-width:0.3;" x1="11.929" y2="-21.88" x2="5.561"/>
  <line y1="-21.88" style="fill:none;stroke:#000000;stroke-width:0.3;" x1="14.477" y2="-21.88" x2="20.846"/>
  <line y1="-21.88" style="fill:none;stroke:#000000;stroke-width:0.3;" x1="23.394" y2="-21.88" x2="29.763"/>
  <line y1="-21.88" style="fill:none;stroke:#000000;stroke-width:0.3;" x1="32.31" y2="-21.88" x2="38.679"/>
  <line y1="-21.88" style="fill:none;stroke:#000000;stroke-width:0.3;" x1="41.227" y2="-21.88" x2="47.596"/>
  <line y1="-21.88" style="fill:none;stroke:#000000;stroke-width:0.3;" x1="50.144" y2="-21.88" x2="53.584"/>
  <line y1="-18.744" style="fill:none;stroke:#000000;stroke-width:0.3;" x1="6.834" y2="-18.744" x2="0.465"/>
  <line y1="-18.744" style="fill:none;stroke:#000000;stroke-width:0.3;" x1="15.751" y2="-18.744" x2="9.382"/>
  <line y1="-18.744" style="fill:none;stroke:#000000;stroke-width:0.3;" x1="24.667" y2="-18.744" x2="18.298"/>
  <line y1="-18.744" style="fill:none;stroke:#000000;stroke-width:0.3;" x1="27.215" y2="-18.744" x2="33.584"/>
  <line y1="-18.744" style="fill:none;stroke:#000000;stroke-width:0.3;" x1="42.5" y2="-18.744" x2="36.132"/>
  <line y1="-18.744" style="fill:none;stroke:#000000;stroke-width:0.3;" x1="45.048" y2="-18.744" x2="51.417"/>
  <line y1="-15.774" style="fill:none;stroke:#000000;stroke-width:0.3;" x1="0" y2="-15.774" x2="2.184"/>
  <line y1="-15.774" style="fill:none;stroke:#000000;stroke-width:0.3;" x1="4.764" y2="-15.774" x2="11.133"/>
  <line y1="-15.774" style="fill:none;stroke:#000000;stroke-width:0.3;" x1="20.05" y2="-15.774" x2="13.681"/>
  <line y1="-15.774" style="fill:none;stroke:#000000;stroke-width:0.3;" x1="22.598" y2="-15.774" x2="28.966"/>
  <line y1="-15.774" style="fill:none;stroke:#000000;stroke-width:0.3;" x1="31.514" y2="-15.774" x2="37.883"/>
  <line y1="-15.774" style="fill:none;stroke:#000000;stroke-width:0.3;" x1="40.431" y2="-15.774" x2="46.8"/>
  <line y1="-15.774" style="fill:none;stroke:#000000;stroke-width:0.3;" x1="49.347" y2="-15.774" x2="53.584"/>
  <line y1="-12.805" style="fill:none;stroke:#000000;stroke-width:0.3;" x1="1.338" y2="-12.805" x2="0"/>
  <line y1="-12.805" style="fill:none;stroke:#000000;stroke-width:0.3;" x1="6.038" y2="-12.805" x2="1.338"/>
  <line y1="-12.805" style="fill:none;stroke:#000000;stroke-width:0.3;" x1="14.954" y2="-12.805" x2="8.585"/>
  <line y1="-12.805" style="fill:none;stroke:#000000;stroke-width:0.3;" x1="23.871" y2="-12.805" x2="18.733"/>
  <line y1="-12.805" style="fill:none;stroke:#000000;stroke-width:0.3;" x1="18.733" y2="-12.805" x2="17.502"/>
  <line y1="-12.805" style="fill:none;stroke:#000000;stroke-width:0.3;" x1="32.788" y2="-12.805" x2="26.419"/>
  <line y1="-12.805" style="fill:none;stroke:#000000;stroke-width:0.3;" x1="36.546" y2="-12.805" x2="41.704"/>
  <line y1="-12.805" style="fill:none;stroke:#000000;stroke-width:0.3;" x1="36.546" y2="-12.805" x2="35.335"/>
  <line y1="-12.805" style="fill:none;stroke:#000000;stroke-width:0.3;" x1="44.252" y2="-12.805" x2="50.621"/>
  <line y1="-12.805" style="fill:none;stroke:#000000;stroke-width:0.3;" x1="53.584" y2="-12.805" x2="53.169"/>
  <line y1="-10.009" style="fill:none;stroke:#000000;stroke-width:0.3;" x1="3.139" y2="-10.009" x2="0"/>
  <line y1="-10.009" style="fill:none;stroke:#000000;stroke-width:0.3;" x1="12.088" y2="-10.009" x2="5.72"/>
  <line y1="-10.009" style="fill:none;stroke:#000000;stroke-width:0.3;" x1="14.636" y2="-10.009" x2="21.005"/>
  <line y1="-10.009" style="fill:none;stroke:#000000;stroke-width:0.3;" x1="23.553" y2="-10.009" x2="29.922"/>
  <line y1="-10.009" style="fill:none;stroke:#000000;stroke-width:0.3;" x1="32.47" y2="-10.009" x2="38.838"/>
  <line y1="-10.009" style="fill:none;stroke:#000000;stroke-width:0.3;" x1="41.386" y2="-10.009" x2="47.755"/>
  <line y1="-10.009" style="fill:none;stroke:#000000;stroke-width:0.3;" x1="50.303" y2="-10.009" x2="53.584"/>
  <line y1="-6.873" style="fill:none;stroke:#000000;stroke-width:0.3;" x1="8.267" y2="-6.873" x2="1.898"/>
  <line y1="-6.873" style="fill:none;stroke:#000000;stroke-width:0.3;" x1="17.184" y2="-6.873" x2="10.814"/>
  <line y1="-6.873" style="fill:none;stroke:#000000;stroke-width:0.3;" x1="26.101" y2="-6.873" x2="19.732"/>
  <line y1="-6.873" style="fill:none;stroke:#000000;stroke-width:0.3;" x1="35.017" y2="-6.873" x2="28.647"/>
  <line y1="-6.873" style="fill:none;stroke:#000000;stroke-width:0.3;" x1="43.934" y2="-6.873" x2="37.564"/>
  <line y1="-6.873" style="fill:none;stroke:#000000;stroke-width:0.3;" x1="46.481" y2="-6.873" x2="52.85"/>
  <line y1="-3.903" style="fill:none;stroke:#000000;stroke-width:0.3;" x1="0" y2="-3.903" x2="4.732"/>
  <line y1="-3.903" style="fill:none;stroke:#000000;stroke-width:0.3;" x1="7.312" y2="-3.903" x2="13.681"/>
  <line y1="-3.903" style="fill:none;stroke:#000000;stroke-width:0.3;" x1="16.229" y2="-3.903" x2="22.598"/>
  <line y1="-3.903" style="fill:none;stroke:#000000;stroke-width:0.3;" x1="25.145" y2="-3.903" x2="31.514"/>
  <line y1="-3.903" style="fill:none;stroke:#000000;stroke-width:0.3;" x1="34.062" y2="-3.903" x2="40.431"/>
  <line y1="-3.903" style="fill:none;stroke:#000000;stroke-width:0.3;" x1="42.979" y2="-3.903" x2="49.347"/>
  <line y1="-3.903" style="fill:none;stroke:#000000;stroke-width:0.3;" x1="51.895" y2="-3.903" x2="53.584"/>
  <line y1="-0.934" style="fill:none;stroke:#000000;stroke-width:0.3;" x1="8.585" y2="-0.934" x2="2.217"/>
  <line y1="-0.934" style="fill:none;stroke:#000000;stroke-width:0.3;" x1="17.502" y2="-0.934" x2="11.133"/>
  <line y1="-0.934" style="fill:none;stroke:#000000;stroke-width:0.3;" x1="26.419" y2="-0.934" x2="20.05"/>
  <line y1="-0.934" style="fill:none;stroke:#000000;stroke-width:0.3;" x1="35.335" y2="-0.934" x2="28.966"/>
  <line y1="-0.934" style="fill:none;stroke:#000000;stroke-width:0.3;" x1="44.252" y2="-0.934" x2="37.883"/>
  <line y1="-0.934" style="fill:none;stroke:#000000;stroke-width:0.3;" x1="53.169" y2="-0.934" x2="46.8"/>
  <line y1="-51.812" style="fill:none;stroke:#000000;stroke-width:0.3;" x1="7.666" y2="-53.508" x2="7.675"/>
  <line y1="-51.812" style="fill:none;stroke:#000000;stroke-width:0.3;" x1="25.604" y2="-53.508" x2="25.612"/>
  <line y1="-51.812" style="fill:none;stroke:#000000;stroke-width:0.3;" x1="43.625" y2="-53.508" x2="43.633"/>
  <line y1="-50.32" style="fill:none;stroke:#000000;stroke-width:0.3;" x1="47.8" y2="-48.625" x2="47.791"/>
  <line y1="-50.32" style="fill:none;stroke:#000000;stroke-width:0.3;" x1="29.987" y2="-48.625" x2="29.979"/>
  <line y1="-50.32" style="fill:none;stroke:#000000;stroke-width:0.3;" x1="11.841" y2="-48.625" x2="11.833"/>
  <line y1="-45.604" style="fill:none;stroke:#000000;stroke-width:0.3;" x1="5.938" y2="-45.648" x2="5.938"/>
  <line y1="-45.648" style="fill:none;stroke:#000000;stroke-width:0.3;" x1="5.938" y2="-47.3" x2="5.945"/>
  <line y1="-45.604" style="fill:none;stroke:#000000;stroke-width:0.3;" x1="23.791" y2="-45.648" x2="23.791"/>
  <line y1="-45.648" style="fill:none;stroke:#000000;stroke-width:0.3;" x1="23.791" y2="-47.3" x2="23.8"/>
  <line y1="-45.648" style="fill:none;stroke:#000000;stroke-width:0.3;" x1="41.562" y2="-47.3" x2="41.57"/>
  <line y1="-45.604" style="fill:none;stroke:#000000;stroke-width:0.3;" x1="41.562" y2="-45.648" x2="41.562"/>
  <line y1="-42.896" style="fill:none;stroke:#000000;stroke-width:0.3;" x1="37.916" y2="-44.592" x2="37.925"/>
  <line y1="-42.896" style="fill:none;stroke:#000000;stroke-width:0.3;" x1="20.166" y2="-44.592" x2="20.175"/>
  <line y1="-42.896" style="fill:none;stroke:#000000;stroke-width:0.3;" x1="2.208" y2="-44.592" x2="2.216"/>
  <line y1="-39.874" style="fill:none;stroke:#000000;stroke-width:0.3;" x1="41.146" y2="-39.854" x2="41.146"/>
  <line y1="-39.874" style="fill:none;stroke:#000000;stroke-width:0.3;" x1="41.146" y2="-41.55" x2="41.153"/>
  <line y1="-39.874" style="fill:none;stroke:#000000;stroke-width:0.3;" x1="23.375" y2="-41.55" x2="23.383"/>
  <line y1="-39.854" style="fill:none;stroke:#000000;stroke-width:0.3;" x1="23.375" y2="-39.874" x2="23.375"/>
  <line y1="-39.854" style="fill:none;stroke:#000000;stroke-width:0.3;" x1="5.335" y2="-39.874" x2="5.335"/>
  <line y1="-39.874" style="fill:none;stroke:#000000;stroke-width:0.3;" x1="5.335" y2="-41.55" x2="5.344"/>
  <line y1="-38.592" style="fill:none;stroke:#000000;stroke-width:0.3;" x1="44.697" y2="-36.896" x2="44.689"/>
  <line y1="-38.592" style="fill:none;stroke:#000000;stroke-width:0.3;" x1="26.947" y2="-36.896" x2="26.94"/>
  <line y1="-36.896" style="fill:none;stroke:#000000;stroke-width:0.3;" x1="9.044" y2="-38.592" x2="9.052"/>
  <line y1="-35.654" style="fill:none;stroke:#000000;stroke-width:0.3;" x1="32.781" y2="-33.986" x2="32.772"/>
  <line y1="-33.986" style="fill:none;stroke:#000000;stroke-width:0.3;" x1="32.772" y2="-33.958" x2="32.772"/>
  <line y1="-33.986" style="fill:none;stroke:#000000;stroke-width:0.3;" x1="50.544" y2="-33.958" x2="50.544"/>
  <line y1="-33.986" style="fill:none;stroke:#000000;stroke-width:0.3;" x1="50.544" y2="-35.654" x2="50.552"/>
  <line y1="-35.654" style="fill:none;stroke:#000000;stroke-width:0.3;" x1="14.822" y2="-33.986" x2="14.814"/>
  <line y1="-33.958" style="fill:none;stroke:#000000;stroke-width:0.3;" x1="14.814" y2="-33.986" x2="14.814"/>
  <line y1="-32.529" style="fill:none;stroke:#000000;stroke-width:0.3;" x1="46.01" y2="-30.833" x2="46.002"/>
  <line y1="-32.529" style="fill:none;stroke:#000000;stroke-width:0.3;" x1="28.302" y2="-30.833" x2="28.294"/>
  <line y1="-30.833" style="fill:none;stroke:#000000;stroke-width:0.3;" x1="10.481" y2="-32.529" x2="10.489"/>
  <line y1="-27.812" style="fill:none;stroke:#000000;stroke-width:0.3;" x1="15.981" y2="-27.819" x2="15.981"/>
  <line y1="-29.508" style="fill:none;stroke:#000000;stroke-width:0.3;" x1="15.989" y2="-27.819" x2="15.981"/>
  <line y1="-27.819" style="fill:none;stroke:#000000;stroke-width:0.3;" x1="34.002" y2="-27.812" x2="34.002"/>
  <line y1="-27.819" style="fill:none;stroke:#000000;stroke-width:0.3;" x1="34.002" y2="-29.508" x2="34.01"/>
  <line y1="-27.819" style="fill:none;stroke:#000000;stroke-width:0.3;" x1="51.939" y2="-29.508" x2="51.947"/>
  <line y1="-27.819" style="fill:none;stroke:#000000;stroke-width:0.3;" x1="51.939" y2="-27.812" x2="51.939"/>
  <line y1="-24.708" style="fill:none;stroke:#000000;stroke-width:0.3;" x1="38.564" y2="-26.404" x2="38.572"/>
  <line y1="-24.708" style="fill:none;stroke:#000000;stroke-width:0.3;" x1="20.752" y2="-26.404" x2="20.76"/>
  <line y1="-24.708" style="fill:none;stroke:#000000;stroke-width:0.3;" x1="2.9" y2="-26.404" x2="2.908"/>
  <line y1="-23.582" style="fill:none;stroke:#000000;stroke-width:0.3;" x1="6.929" y2="-21.887" x2="6.921"/>
  <line y1="-21.887" style="fill:none;stroke:#000000;stroke-width:0.3;" x1="24.796" y2="-23.582" x2="24.804"/>
  <line y1="-23.582" style="fill:none;stroke:#000000;stroke-width:0.3;" x1="42.429" y2="-21.887" x2="42.421"/>
  <line y1="-20.478" style="fill:none;stroke:#000000;stroke-width:0.3;" x1="37.429" y2="-18.782" x2="37.421"/>
  <line y1="-18.782" style="fill:none;stroke:#000000;stroke-width:0.3;" x1="19.525" y2="-20.478" x2="19.533"/>
  <line y1="-18.782" style="fill:none;stroke:#000000;stroke-width:0.3;" x1="1.691" y2="-20.478" x2="1.7"/>
  <line y1="-15.907" style="fill:none;stroke:#000000;stroke-width:0.3;" x1="6.213" y2="-17.603" x2="6.221"/>
  <line y1="-15.907" style="fill:none;stroke:#000000;stroke-width:0.3;" x1="24.066" y2="-17.603" x2="24.075"/>
  <line y1="-17.603" style="fill:none;stroke:#000000;stroke-width:0.3;" x1="41.763" y2="-15.907" x2="41.754"/>
  <line y1="-12.805" style="fill:none;stroke:#000000;stroke-width:0.3;" x1="36.546" y2="-14.499" x2="36.554"/>
  <line y1="-12.805" style="fill:none;stroke:#000000;stroke-width:0.3;" x1="36.546" y2="-12.804" x2="36.546"/>
  <line y1="-14.499" style="fill:none;stroke:#000000;stroke-width:0.3;" x1="18.741" y2="-12.805" x2="18.733"/>
  <line y1="-12.805" style="fill:none;stroke:#000000;stroke-width:0.3;" x1="18.733" y2="-12.804" x2="18.733"/>
  <line y1="-12.805" style="fill:none;stroke:#000000;stroke-width:0.3;" x1="1.338" y2="-12.804" x2="1.338"/>
  <line y1="-12.805" style="fill:none;stroke:#000000;stroke-width:0.3;" x1="1.338" y2="-14.499" x2="1.346"/>
  <line y1="-10.095" style="fill:none;stroke:#000000;stroke-width:0.3;" x1="42.733" y2="-11.791" x2="42.741"/>
  <line y1="-11.791" style="fill:none;stroke:#000000;stroke-width:0.3;" x1="24.866" y2="-10.095" x2="24.858"/>
  <line y1="-10.095" style="fill:none;stroke:#000000;stroke-width:0.3;" x1="6.879" y2="-11.791" x2="6.888"/>
  <line y1="-6.913" style="fill:none;stroke:#000000;stroke-width:0.3;" x1="12.088" y2="-8.609" x2="12.096"/>
  <line y1="-8.609" style="fill:none;stroke:#000000;stroke-width:0.3;" x1="29.971" y2="-6.913" x2="29.963"/>
  <line y1="-3.919" style="fill:none;stroke:#000000;stroke-width:0.3;" x1="44.275" y2="-5.614" x2="44.283"/>
  <line y1="-0.939" style="fill:none;stroke:#000000;stroke-width:0.3;" x1="39.177" y2="-2.635" x2="39.185"/>
  <line y1="-0.939" style="fill:none;stroke:#000000;stroke-width:0.3;" x1="21.302" y2="-2.635" x2="21.31"/>
  <line y1="-0.939" style="fill:none;stroke:#000000;stroke-width:0.3;" x1="3.364" y2="-2.635" x2="3.372"/>
  <line y1="-5.614" style="fill:none;stroke:#000000;stroke-width:0.3;" x1="26.554" y2="-3.919" x2="26.546"/>
  <line y1="-5.614" style="fill:none;stroke:#000000;stroke-width:0.3;" x1="8.491" y2="-3.919" x2="8.483"/>
  <line y1="-8.609" style="fill:none;stroke:#000000;stroke-width:0.3;" x1="48.138" y2="-6.913" x2="48.129"/>
 </g>
</svg>
