<?xml version="1.0"?>
<!-- Converted with SVG Converter - Version 0.9.6 (Compiled Thu Aug 31 10:01:05 2017) - Copyright (C) 2011 Nokia -->
<svg xmlns="http://www.w3.org/2000/svg" version="1.1" x="0px" width="54.125" xmlns:xlink="http://www.w3.org/1999/xlink" height="54.125" xml:space="preserve" viewBox="0 -55.983 54.125 54.125" baseProfile="tiny" y="0px">
 <g>
  <rect width="54.125" style="fill:none;" height="54.125" y="-55.983"/>
  <line y2="-44.598" x2="54.125" y1="-44.598" style="fill:none;stroke:#000000;stroke-width:4;" x1="0"/>
  <line y2="-2" x2="0" y1="-2" style="fill:none;stroke:#000000;stroke-width:4;" x1="54.125"/>
  <line y2="-55.973" x2="54.125" y1="-55.973" style="fill:none;stroke:#000000;stroke-width:4;" x1="0"/>
  <line y2="-11.668" x2="0" y1="-11.668" style="fill:none;stroke:#000000;stroke-width:4.5;" x1="54.125"/>
  <line y2="-19.173" x2="0" y1="-19.173" style="fill:none;stroke:#000000;stroke-width:2;" x1="54.125"/>
  <line y2="-26.11" x2="0" y1="-26.11" style="fill:none;stroke:#000000;stroke-width:2;" x1="54.125"/>
  <line y2="-31.11" x2="0" y1="-31.11" style="fill:none;stroke:#000000;stroke-width:0.8;" x1="54.125"/>
  <line y2="-35.61" x2="0" y1="-35.61" style="fill:none;stroke:#000000;stroke-width:0.7;" x1="54.125"/>
  <line y2="-51.219" x2="54.125" y1="-51.219" style="fill:none;stroke:#000000;stroke-width:0.7;" x1="0"/>
  <line y2="-38.61" x2="0" y1="-38.61" style="fill:none;stroke:#000000;stroke-width:0.7;" x1="54.125"/>
  <line y2="-22.36" x2="0" y1="-22.36" style="fill:none;stroke:#000000;stroke-width:0.7;" x1="54.125"/>
  <line y2="-6.985" x2="0" y1="-6.985" style="fill:none;stroke:#000000;stroke-width:0.4;" x1="54.125"/>
  <line y2="-16.735" x2="0" y1="-16.735" style="fill:none;stroke:#000000;stroke-width:0.4;" x1="54.125"/>
  <line y2="-15.735" x2="54.125" y1="-15.735" style="fill:none;stroke:#000000;stroke-width:0.4;" x1="0"/>
  <line y2="-23.61" x2="0" y1="-23.61" style="fill:none;stroke:#000000;stroke-width:0.4;" x1="54.125"/>
  <line y2="-28.735" x2="0" y1="-28.735" style="fill:none;stroke:#000000;stroke-width:0.4;" x1="54.125"/>
  <line y2="-36.485" x2="0" y1="-36.485" style="fill:none;stroke:#000000;stroke-width:0.4;" x1="54.125"/>
  <line y2="-40.735" x2="54.125" y1="-40.735" style="fill:none;stroke:#000000;stroke-width:0.3;" x1="0"/>
  <line y2="-39.735" x2="54.125" y1="-39.735" style="fill:none;stroke:#000000;stroke-width:0.3;" x1="0"/>
  <line y2="-53.048" x2="54.125" y1="-53.048" style="fill:none;stroke:#000000;stroke-width:0.3;" x1="0"/>
  <line y2="-33.36" x2="0" y1="-33.36" style="fill:none;stroke:#000000;stroke-width:0.3;" x1="54.125"/>
  <line y2="-32.235" x2="0" y1="-32.235" style="fill:none;stroke:#000000;stroke-width:0.3;" x1="54.125"/>
  <line y2="-6.048" x2="0" y1="-6.048" style="fill:none;stroke:#000000;stroke-width:0.3;" x1="54.125"/>
  <line y2="-29.985" x2="0" y1="-29.985" style="fill:none;stroke:#000000;stroke-width:0.3;" x1="54.125"/>
  <line y2="-21.11" x2="0" y1="-21.11" style="fill:none;stroke:#000000;stroke-width:0.3;" x1="54.125"/>
  <line y2="-14.735" x2="0" y1="-14.735" style="fill:none;stroke:#000000;stroke-width:0.3;" x1="54.125"/>
  <line y2="-8.61" x2="0" y1="-8.61" style="fill:none;stroke:#000000;stroke-width:0.3;" x1="54.125"/>
  <line y2="-24.36" x2="0" y1="-24.36" style="fill:none;stroke:#000000;stroke-width:0.3;" x1="54.125"/>
  <line y2="-47.696" x2="54.125" y1="-47.696" style="fill:none;stroke:#000000;stroke-width:0.7;" x1="0"/>
  <line y2="-48.946" x2="54.125" y1="-48.946" style="fill:none;stroke:#000000;stroke-width:0.4;" x1="0"/>
  <line y2="-50.094" x2="54.125" y1="-50.094" style="fill:none;stroke:#000000;stroke-width:0.3;" x1="0"/>
 </g>
</svg>
