<?xml version="1.0"?>
<!-- Converted with SVG Converter - Version 0.9.5 (Compiled Fri Feb 21 09:53:38 2020) - Copyright (C) 2011 Nokia -->
<svg xmlns="http://www.w3.org/2000/svg" y="0px" xml:space="preserve" xmlns:xlink="http://www.w3.org/1999/xlink" baseProfile="tiny" height="54.125" x="0px" viewBox="0 -54.125 54.125 54.125" version="1.1" width="54.125">
 <g>
  <rect y="-54.125" height="54.125" style="fill:none;" width="54.125"/>
  <line x2="18.203" x1="18.203" y1="-49.609" y2="-51.945" style="fill:none;stroke:#000000;stroke-width:0.3;"/>
  <line x2="14.709" x1="0.953" y1="-52.771" y2="-52.771" style="fill:none;stroke:#000000;stroke-width:0.3;"/>
  <line x2="32.834" x1="19.786" y1="-52.771" y2="-52.771" style="fill:none;stroke:#000000;stroke-width:0.3;"/>
  <line x2="52.286" x1="37.453" y1="-52.771" y2="-52.771" style="fill:none;stroke:#000000;stroke-width:0.3;"/>
  <line x2="0" x1="10.619" y1="-49.583" y2="-49.583" style="fill:none;stroke:#000000;stroke-width:0.3;"/>
  <line x2="15.625" x1="28.619" y1="-49.583" y2="-49.583" style="fill:none;stroke:#000000;stroke-width:0.3;"/>
  <line x2="33.75" x1="48.119" y1="-49.583" y2="-49.583" style="fill:none;stroke:#000000;stroke-width:0.3;"/>
  <line x2="2.119" x1="16.959" y1="-46.583" y2="-46.583" style="fill:none;stroke:#000000;stroke-width:0.3;"/>
  <line x2="35.953" x1="22.619" y1="-46.583" y2="-46.583" style="fill:none;stroke:#000000;stroke-width:0.3;"/>
  <line x2="52.834" x1="39.786" y1="-46.583" y2="-46.583" style="fill:none;stroke:#000000;stroke-width:0.3;"/>
  <line x2="6.619" x1="27.453" y1="-43.708" y2="-43.708" style="fill:none;stroke:#000000;stroke-width:0.3;"/>
  <line x2="53.953" x1="37.292" y1="-43.708" y2="-43.708" style="fill:none;stroke:#000000;stroke-width:0.3;"/>
  <line x2="39.286" x1="52.619" y1="-40.708" y2="-40.708" style="fill:none;stroke:#000000;stroke-width:0.3;"/>
  <line x2="19.786" x1="35.286" y1="-40.708" y2="-40.708" style="fill:none;stroke:#000000;stroke-width:0.3;"/>
  <line x2="1.619" x1="14.584" y1="-40.708" y2="-40.708" style="fill:none;stroke:#000000;stroke-width:0.3;"/>
  <line x2="0" x1="7.786" y1="-37.583" y2="-37.583" style="fill:none;stroke:#000000;stroke-width:0.3;"/>
  <line x2="26.786" x1="14" y1="-37.583" y2="-37.583" style="fill:none;stroke:#000000;stroke-width:0.3;"/>
  <line x2="47.786" x1="31.875" y1="-37.583" y2="-37.583" style="fill:none;stroke:#000000;stroke-width:0.3;"/>
  <line x2="24.911" x1="37.411" y1="-34.708" y2="-34.708" style="fill:none;stroke:#000000;stroke-width:0.3;"/>
  <line x2="51.661" x1="40.911" y1="-34.708" y2="-34.708" style="fill:none;stroke:#000000;stroke-width:0.3;"/>
  <line x2="1.453" x1="19.619" y1="-34.708" y2="-34.708" style="fill:none;stroke:#000000;stroke-width:0.3;"/>
  <line x2="0" x1="9.786" y1="-31.583" y2="-31.583" style="fill:none;stroke:#000000;stroke-width:0.3;"/>
  <line x2="13.75" x1="26.286" y1="-31.583" y2="-31.583" style="fill:none;stroke:#000000;stroke-width:0.3;"/>
  <line x2="46.286" x1="29.786" y1="-31.583" y2="-31.583" style="fill:none;stroke:#000000;stroke-width:0.3;"/>
  <line x2="51.953" x1="41.911" y1="-28.583" y2="-28.583" style="fill:none;stroke:#000000;stroke-width:0.3;"/>
  <line x2="37.286" x1="17.619" y1="-28.583" y2="-28.583" style="fill:none;stroke:#000000;stroke-width:0.3;"/>
  <line x2="12.584" x1="0.286" y1="-28.583" y2="-28.583" style="fill:none;stroke:#000000;stroke-width:0.3;"/>
  <line x2="0" x1="9.119" y1="-25.458" y2="-25.458" style="fill:none;stroke:#000000;stroke-width:0.3;"/>
  <line x2="14.959" x1="29.453" y1="-25.458" y2="-25.458" style="fill:none;stroke:#000000;stroke-width:0.3;"/>
  <line x2="35.619" x1="46.834" y1="-25.458" y2="-25.458" style="fill:none;stroke:#000000;stroke-width:0.3;"/>
  <line x2="52.453" x1="37.625" y1="-22.583" y2="-22.583" style="fill:none;stroke:#000000;stroke-width:0.3;"/>
  <line x2="32.953" x1="19.625" y1="-22.583" y2="-22.583" style="fill:none;stroke:#000000;stroke-width:0.3;"/>
  <line x2="2.619" x1="14.119" y1="-22.583" y2="-22.583" style="fill:none;stroke:#000000;stroke-width:0.3;"/>
  <line x2="6.953" x1="0" y1="-19.458" y2="-19.458" style="fill:none;stroke:#000000;stroke-width:0.3;"/>
  <line x2="11.5" x1="24.119" y1="-19.458" y2="-19.458" style="fill:none;stroke:#000000;stroke-width:0.3;"/>
  <line x2="44.786" x1="29.5" y1="-19.458" y2="-19.458" style="fill:none;stroke:#000000;stroke-width:0.3;"/>
  <line x2="39.75" x1="52.453" y1="-16.458" y2="-16.458" style="fill:none;stroke:#000000;stroke-width:0.3;"/>
  <line x2="21.75" x1="34.953" y1="-16.458" y2="-16.458" style="fill:none;stroke:#000000;stroke-width:0.3;"/>
  <line x2="2.119" x1="17.619" y1="-16.458" y2="-16.458" style="fill:none;stroke:#000000;stroke-width:0.3;"/>
  <line x2="0" x1="9.786" y1="-13.458" y2="-13.458" style="fill:none;stroke:#000000;stroke-width:0.3;"/>
  <line x2="29.453" x1="15.536" y1="-13.458" y2="-13.458" style="fill:none;stroke:#000000;stroke-width:0.3;"/>
  <line x2="46.953" x1="33.411" y1="-13.458" y2="-13.458" style="fill:none;stroke:#000000;stroke-width:0.3;"/>
  <line x2="51.119" x1="40.334" y1="-10.583" y2="-10.583" style="fill:none;stroke:#000000;stroke-width:0.3;"/>
  <line x2="23.661" x1="36.953" y1="-10.583" y2="-10.583" style="fill:none;stroke:#000000;stroke-width:0.3;"/>
  <line x2="3.619" x1="19.036" y1="-10.583" y2="-10.583" style="fill:none;stroke:#000000;stroke-width:0.3;"/>
  <line x2="0" x1="6.459" y1="-7.333" y2="-7.333" style="fill:none;stroke:#000000;stroke-width:0.3;"/>
  <line x2="12.786" x1="25.786" y1="-7.333" y2="-7.333" style="fill:none;stroke:#000000;stroke-width:0.3;"/>
  <line x2="30.453" x1="46.953" y1="-7.333" y2="-7.333" style="fill:none;stroke:#000000;stroke-width:0.3;"/>
  <line x2="50.709" x1="41.625" y1="-4.458" y2="-4.458" style="fill:none;stroke:#000000;stroke-width:0.3;"/>
  <line x2="36.953" x1="23.875" y1="-4.458" y2="-4.458" style="fill:none;stroke:#000000;stroke-width:0.3;"/>
  <line x2="1.953" x1="18.119" y1="-4.458" y2="-4.458" style="fill:none;stroke:#000000;stroke-width:0.3;"/>
  <line x2="10.953" x1="0" y1="-1.333" y2="-1.333" style="fill:none;stroke:#000000;stroke-width:0.3;"/>
  <line x2="16.125" x1="25.209" y1="-1.333" y2="-1.333" style="fill:none;stroke:#000000;stroke-width:0.3;"/>
  <line x2="31.625" x1="45.453" y1="-1.333" y2="-1.333" style="fill:none;stroke:#000000;stroke-width:0.3;"/>
  <line x2="54.125" x1="51.875" y1="-49.583" y2="-49.583" style="fill:none;stroke:#000000;stroke-width:0.3;"/>
  <line x2="54.125" x1="50.125" y1="-37.583" y2="-37.583" style="fill:none;stroke:#000000;stroke-width:0.3;"/>
  <line x2="54.125" x1="50" y1="-31.583" y2="-31.583" style="fill:none;stroke:#000000;stroke-width:0.3;"/>
  <line x2="54.125" x1="51.078" y1="-25.458" y2="-25.458" style="fill:none;stroke:#000000;stroke-width:0.3;"/>
  <line x2="54.125" x1="47.625" y1="-19.458" y2="-19.458" style="fill:none;stroke:#000000;stroke-width:0.3;"/>
  <line x2="54.125" x1="50.125" y1="-13.458" y2="-13.458" style="fill:none;stroke:#000000;stroke-width:0.3;"/>
  <line x2="54.125" x1="51.5" y1="-7.333" y2="-7.333" style="fill:none;stroke:#000000;stroke-width:0.3;"/>
  <line x2="54.125" x1="50.125" y1="-1.333" y2="-1.333" style="fill:none;stroke:#000000;stroke-width:0.3;"/>
  <line x2="30.453" x1="30.453" y1="-49.07" y2="-46.734" style="fill:none;stroke:#000000;stroke-width:0.3;"/>
  <line x2="29.578" x1="29.578" y1="-40.769" y2="-43.105" style="fill:none;stroke:#000000;stroke-width:0.3;"/>
  <line x2="10.328" x1="10.328" y1="-34.78" y2="-37.117" style="fill:none;stroke:#000000;stroke-width:0.3;"/>
  <line x2="28.078" x1="28.078" y1="-31.004" y2="-28.667" style="fill:none;stroke:#000000;stroke-width:0.3;"/>
  <line x2="48.953" x1="48.953" y1="-25.049" y2="-22.712" style="fill:none;stroke:#000000;stroke-width:0.3;"/>
  <line x2="9.078" x1="9.078" y1="-16.497" y2="-18.834" style="fill:none;stroke:#000000;stroke-width:0.3;"/>
  <line x2="49.828" x1="49.828" y1="-49.016" y2="-46.679" style="fill:none;stroke:#000000;stroke-width:0.3;"/>
  <line x2="39.953" x1="39.953" y1="-27.879" y2="-25.542" style="fill:none;stroke:#000000;stroke-width:0.3;"/>
  <line x2="17.953" x1="17.953" y1="-21.959" y2="-19.622" style="fill:none;stroke:#000000;stroke-width:0.3;"/>
  <line x2="37.078" x1="37.078" y1="-15.834" y2="-13.497" style="fill:none;stroke:#000000;stroke-width:0.3;"/>
  <line x2="11.703" x1="11.703" y1="-10.644" y2="-12.981" style="fill:none;stroke:#000000;stroke-width:0.3;"/>
  <line x2="22.078" x1="22.078" y1="-7.394" y2="-9.731" style="fill:none;stroke:#000000;stroke-width:0.3;"/>
  <line x2="39.578" x1="39.578" y1="-3.856" y2="-1.52" style="fill:none;stroke:#000000;stroke-width:0.3;"/>
  <line x2="39.453" x1="39.453" y1="-34.004" y2="-31.667" style="fill:none;stroke:#000000;stroke-width:0.3;"/>
  <line x2="53.453" x1="53.453" y1="-34.004" y2="-31.667" style="fill:none;stroke:#000000;stroke-width:0.3;"/>
  <line x2="0.619" x1="0.619" y1="-7.455" y2="-9.792" style="fill:none;stroke:#000000;stroke-width:0.3;"/>
  <line x2="4.328" x1="4.328" y1="-43.072" y2="-40.735" style="fill:none;stroke:#000000;stroke-width:0.3;"/>
 </g>
</svg>
