<?xml version="1.0"?>
<!-- Converted with SVG Converter - Version 0.9.5 (Compiled Fri Feb 21 09:53:38 2020) - Copyright (C) 2011 Nokia -->
<svg xmlns="http://www.w3.org/2000/svg" height="54.125" viewBox="0 -54.125 54.125 54.125" version="1.1" x="0px" baseProfile="tiny" xml:space="preserve" y="0px" width="54.125" xmlns:xlink="http://www.w3.org/1999/xlink">
 <g>
  <rect style="fill:none;" height="54.125" y="-54.125" width="54.125"/>
  <line style="fill:none;stroke:#000000;stroke-width:0.3;" x2="18.203" y1="-49.609" y2="-51.945" x1="18.203"/>
  <line style="fill:none;stroke:#000000;stroke-width:0.3;" x2="14.709" y1="-52.771" y2="-52.771" x1="0.953"/>
  <line style="fill:none;stroke:#000000;stroke-width:0.3;" x2="32.834" y1="-52.771" y2="-52.771" x1="19.786"/>
  <line style="fill:none;stroke:#000000;stroke-width:0.3;" x2="52.286" y1="-52.771" y2="-52.771" x1="37.453"/>
  <line style="fill:none;stroke:#000000;stroke-width:0.3;" x2="0" y1="-49.583" y2="-49.583" x1="10.619"/>
  <line style="fill:none;stroke:#000000;stroke-width:0.3;" x2="15.625" y1="-49.583" y2="-49.583" x1="28.619"/>
  <line style="fill:none;stroke:#000000;stroke-width:0.3;" x2="33.75" y1="-49.583" y2="-49.583" x1="48.119"/>
  <line style="fill:none;stroke:#000000;stroke-width:0.3;" x2="2.119" y1="-46.583" y2="-46.583" x1="16.959"/>
  <line style="fill:none;stroke:#000000;stroke-width:0.3;" x2="35.953" y1="-46.583" y2="-46.583" x1="22.619"/>
  <line style="fill:none;stroke:#000000;stroke-width:0.3;" x2="52.834" y1="-46.583" y2="-46.583" x1="39.786"/>
  <line style="fill:none;stroke:#000000;stroke-width:0.3;" x2="6.619" y1="-43.708" y2="-43.708" x1="27.453"/>
  <line style="fill:none;stroke:#000000;stroke-width:0.3;" x2="53.953" y1="-43.708" y2="-43.708" x1="37.292"/>
  <line style="fill:none;stroke:#000000;stroke-width:0.3;" x2="39.286" y1="-40.708" y2="-40.708" x1="52.619"/>
  <line style="fill:none;stroke:#000000;stroke-width:0.3;" x2="19.786" y1="-40.708" y2="-40.708" x1="35.286"/>
  <line style="fill:none;stroke:#000000;stroke-width:0.3;" x2="1.619" y1="-40.708" y2="-40.708" x1="14.584"/>
  <line style="fill:none;stroke:#000000;stroke-width:0.3;" x2="0" y1="-37.583" y2="-37.583" x1="7.786"/>
  <line style="fill:none;stroke:#000000;stroke-width:0.3;" x2="26.786" y1="-37.583" y2="-37.583" x1="14"/>
  <line style="fill:none;stroke:#000000;stroke-width:0.3;" x2="47.786" y1="-37.583" y2="-37.583" x1="31.875"/>
  <line style="fill:none;stroke:#000000;stroke-width:0.3;" x2="24.911" y1="-34.708" y2="-34.708" x1="37.411"/>
  <line style="fill:none;stroke:#000000;stroke-width:0.3;" x2="51.661" y1="-34.708" y2="-34.708" x1="40.911"/>
  <line style="fill:none;stroke:#000000;stroke-width:0.3;" x2="1.453" y1="-34.708" y2="-34.708" x1="19.619"/>
  <line style="fill:none;stroke:#000000;stroke-width:0.3;" x2="0" y1="-31.583" y2="-31.583" x1="9.786"/>
  <line style="fill:none;stroke:#000000;stroke-width:0.3;" x2="13.75" y1="-31.583" y2="-31.583" x1="26.286"/>
  <line style="fill:none;stroke:#000000;stroke-width:0.3;" x2="46.286" y1="-31.583" y2="-31.583" x1="29.786"/>
  <line style="fill:none;stroke:#000000;stroke-width:0.3;" x2="51.953" y1="-28.583" y2="-28.583" x1="41.911"/>
  <line style="fill:none;stroke:#000000;stroke-width:0.3;" x2="37.286" y1="-28.583" y2="-28.583" x1="17.619"/>
  <line style="fill:none;stroke:#000000;stroke-width:0.3;" x2="12.584" y1="-28.583" y2="-28.583" x1="0.286"/>
  <line style="fill:none;stroke:#000000;stroke-width:0.3;" x2="0" y1="-25.458" y2="-25.458" x1="9.119"/>
  <line style="fill:none;stroke:#000000;stroke-width:0.3;" x2="14.959" y1="-25.458" y2="-25.458" x1="29.453"/>
  <line style="fill:none;stroke:#000000;stroke-width:0.3;" x2="35.619" y1="-25.458" y2="-25.458" x1="46.834"/>
  <line style="fill:none;stroke:#000000;stroke-width:0.3;" x2="52.453" y1="-22.583" y2="-22.583" x1="37.625"/>
  <line style="fill:none;stroke:#000000;stroke-width:0.3;" x2="32.953" y1="-22.583" y2="-22.583" x1="19.625"/>
  <line style="fill:none;stroke:#000000;stroke-width:0.3;" x2="2.619" y1="-22.583" y2="-22.583" x1="14.119"/>
  <line style="fill:none;stroke:#000000;stroke-width:0.3;" x2="6.953" y1="-19.458" y2="-19.458" x1="0"/>
  <line style="fill:none;stroke:#000000;stroke-width:0.3;" x2="11.5" y1="-19.458" y2="-19.458" x1="24.119"/>
  <line style="fill:none;stroke:#000000;stroke-width:0.3;" x2="44.786" y1="-19.458" y2="-19.458" x1="29.5"/>
  <line style="fill:none;stroke:#000000;stroke-width:0.3;" x2="39.75" y1="-16.458" y2="-16.458" x1="52.453"/>
  <line style="fill:none;stroke:#000000;stroke-width:0.3;" x2="21.75" y1="-16.458" y2="-16.458" x1="34.953"/>
  <line style="fill:none;stroke:#000000;stroke-width:0.3;" x2="2.119" y1="-16.458" y2="-16.458" x1="17.619"/>
  <line style="fill:none;stroke:#000000;stroke-width:0.3;" x2="0" y1="-13.458" y2="-13.458" x1="9.786"/>
  <line style="fill:none;stroke:#000000;stroke-width:0.3;" x2="29.453" y1="-13.458" y2="-13.458" x1="15.536"/>
  <line style="fill:none;stroke:#000000;stroke-width:0.3;" x2="46.953" y1="-13.458" y2="-13.458" x1="33.411"/>
  <line style="fill:none;stroke:#000000;stroke-width:0.3;" x2="51.119" y1="-10.583" y2="-10.583" x1="40.334"/>
  <line style="fill:none;stroke:#000000;stroke-width:0.3;" x2="23.661" y1="-10.583" y2="-10.583" x1="36.953"/>
  <line style="fill:none;stroke:#000000;stroke-width:0.3;" x2="3.619" y1="-10.583" y2="-10.583" x1="19.036"/>
  <line style="fill:none;stroke:#000000;stroke-width:0.3;" x2="0" y1="-7.333" y2="-7.333" x1="6.459"/>
  <line style="fill:none;stroke:#000000;stroke-width:0.3;" x2="12.786" y1="-7.333" y2="-7.333" x1="25.786"/>
  <line style="fill:none;stroke:#000000;stroke-width:0.3;" x2="30.453" y1="-7.333" y2="-7.333" x1="46.953"/>
  <line style="fill:none;stroke:#000000;stroke-width:0.3;" x2="50.709" y1="-4.458" y2="-4.458" x1="41.625"/>
  <line style="fill:none;stroke:#000000;stroke-width:0.3;" x2="36.953" y1="-4.458" y2="-4.458" x1="23.875"/>
  <line style="fill:none;stroke:#000000;stroke-width:0.3;" x2="1.953" y1="-4.458" y2="-4.458" x1="18.119"/>
  <line style="fill:none;stroke:#000000;stroke-width:0.3;" x2="10.953" y1="-1.333" y2="-1.333" x1="0"/>
  <line style="fill:none;stroke:#000000;stroke-width:0.3;" x2="16.125" y1="-1.333" y2="-1.333" x1="25.209"/>
  <line style="fill:none;stroke:#000000;stroke-width:0.3;" x2="31.625" y1="-1.333" y2="-1.333" x1="45.453"/>
  <line style="fill:none;stroke:#000000;stroke-width:0.3;" x2="54.125" y1="-49.583" y2="-49.583" x1="51.875"/>
  <line style="fill:none;stroke:#000000;stroke-width:0.3;" x2="54.125" y1="-37.583" y2="-37.583" x1="50.125"/>
  <line style="fill:none;stroke:#000000;stroke-width:0.3;" x2="54.125" y1="-31.583" y2="-31.583" x1="50"/>
  <line style="fill:none;stroke:#000000;stroke-width:0.3;" x2="54.125" y1="-25.458" y2="-25.458" x1="51.078"/>
  <line style="fill:none;stroke:#000000;stroke-width:0.3;" x2="54.125" y1="-19.458" y2="-19.458" x1="47.625"/>
  <line style="fill:none;stroke:#000000;stroke-width:0.3;" x2="54.125" y1="-13.458" y2="-13.458" x1="50.125"/>
  <line style="fill:none;stroke:#000000;stroke-width:0.3;" x2="54.125" y1="-7.333" y2="-7.333" x1="51.5"/>
  <line style="fill:none;stroke:#000000;stroke-width:0.3;" x2="54.125" y1="-1.333" y2="-1.333" x1="50.125"/>
  <line style="fill:none;stroke:#000000;stroke-width:0.3;" x2="30.453" y1="-49.07" y2="-46.734" x1="30.453"/>
  <line style="fill:none;stroke:#000000;stroke-width:0.3;" x2="29.578" y1="-40.769" y2="-43.105" x1="29.578"/>
  <line style="fill:none;stroke:#000000;stroke-width:0.3;" x2="10.328" y1="-34.78" y2="-37.117" x1="10.328"/>
  <line style="fill:none;stroke:#000000;stroke-width:0.3;" x2="28.078" y1="-31.004" y2="-28.667" x1="28.078"/>
  <line style="fill:none;stroke:#000000;stroke-width:0.3;" x2="48.953" y1="-25.049" y2="-22.712" x1="48.953"/>
  <line style="fill:none;stroke:#000000;stroke-width:0.3;" x2="9.078" y1="-16.497" y2="-18.834" x1="9.078"/>
  <line style="fill:none;stroke:#000000;stroke-width:0.3;" x2="49.828" y1="-49.016" y2="-46.679" x1="49.828"/>
  <line style="fill:none;stroke:#000000;stroke-width:0.3;" x2="39.953" y1="-27.879" y2="-25.542" x1="39.953"/>
  <line style="fill:none;stroke:#000000;stroke-width:0.3;" x2="17.953" y1="-21.959" y2="-19.622" x1="17.953"/>
  <line style="fill:none;stroke:#000000;stroke-width:0.3;" x2="37.078" y1="-15.834" y2="-13.497" x1="37.078"/>
  <line style="fill:none;stroke:#000000;stroke-width:0.3;" x2="11.703" y1="-10.644" y2="-12.981" x1="11.703"/>
  <line style="fill:none;stroke:#000000;stroke-width:0.3;" x2="22.078" y1="-7.394" y2="-9.731" x1="22.078"/>
  <line style="fill:none;stroke:#000000;stroke-width:0.3;" x2="39.578" y1="-3.856" y2="-1.52" x1="39.578"/>
  <line style="fill:none;stroke:#000000;stroke-width:0.3;" x2="39.453" y1="-34.004" y2="-31.667" x1="39.453"/>
  <line style="fill:none;stroke:#000000;stroke-width:0.3;" x2="53.453" y1="-34.004" y2="-31.667" x1="53.453"/>
  <line style="fill:none;stroke:#000000;stroke-width:0.3;" x2="0.619" y1="-7.455" y2="-9.792" x1="0.619"/>
  <line style="fill:none;stroke:#000000;stroke-width:0.3;" x2="4.328" y1="-43.072" y2="-40.735" x1="4.328"/>
 </g>
</svg>
