<?xml version="1.0"?>
<!-- Converted with SVG Converter - Version 0.9.6 (Compiled Thu Aug 31 10:01:05 2017) - Copyright (C) 2011 Nokia -->
<svg xmlns="http://www.w3.org/2000/svg" height="54.125" y="0px" version="1.1" viewBox="1.6 -55.725 54.125 54.125" xmlns:xlink="http://www.w3.org/1999/xlink" baseProfile="tiny" width="54.125" x="0px" xml:space="preserve">
 <g>
  <rect style="fill:none;" height="54.125" y="-55.725" width="54.125" x="1.6"/>
  <line style="fill:none;stroke:#000000;stroke-width:0.3;" y1="-51.975" y2="-51.975" x2="55.725" x1="1.6"/>
  <line style="fill:none;stroke:#000000;stroke-width:0.3;" y1="-47.8" y2="-47.8" x2="55.725" x1="1.6"/>
  <line style="fill:none;stroke:#000000;stroke-width:0.3;" y1="-43.612" y2="-43.612" x2="55.725" x1="1.6"/>
  <line style="fill:none;stroke:#000000;stroke-width:0.3;" y1="-14" y2="-14" x2="55.787" x1="1.6"/>
  <line style="fill:none;stroke:#000000;stroke-width:0.3;" y1="-10.225" y2="-10.225" x2="55.725" x1="1.6"/>
  <line style="fill:none;stroke:#000000;stroke-width:0.3;" y1="-39.594" y2="-39.594" x2="55.725" x1="1.6"/>
  <line style="fill:none;stroke:#000000;stroke-width:0.3;" y1="-36.312" y2="-36.312" x2="55.725" x1="1.6"/>
  <line style="fill:none;stroke:#000000;stroke-width:0.3;" y1="-32.887" y2="-32.887" x2="55.725" x1="1.6"/>
  <line style="fill:none;stroke:#000000;stroke-width:0.3;" y1="-28.837" y2="-28.837" x2="55.725" x1="1.6"/>
  <line style="fill:none;stroke:#000000;stroke-width:0.3;" y1="-25.037" y2="-25.037" x2="55.725" x1="1.6"/>
  <line style="fill:none;stroke:#000000;stroke-width:0.3;" y1="-20.837" y2="-20.837" x2="55.787" x1="1.6"/>
  <line style="fill:none;stroke:#000000;stroke-width:0.3;" y1="-17.612" y2="-17.612" x2="55.725" x1="1.6"/>
  <line style="fill:none;stroke:#000000;stroke-width:0.3;" y1="-2.437" y2="-2.437" x2="55.725" x1="1.6"/>
  <line style="fill:none;stroke:#000000;stroke-width:0.3;" y1="-55.725" y2="-51.975" x2="7.525" x1="7.525"/>
  <line style="fill:none;stroke:#000000;stroke-width:0.3;" y1="-55.725" y2="-51.975" x2="20.275" x1="20.275"/>
  <line style="fill:none;stroke:#000000;stroke-width:0.3;" y1="-55.725" y2="-51.975" x2="33.775" x1="33.775"/>
  <line style="fill:none;stroke:#000000;stroke-width:0.3;" y1="-55.725" y2="-51.975" x2="48.15" x1="48.15"/>
  <line style="fill:none;stroke:#000000;stroke-width:0.3;" y1="-2.45" y2="-1.6" x2="7.525" x1="7.525"/>
  <line style="fill:none;stroke:#000000;stroke-width:0.3;" y1="-2.45" y2="-1.6" x2="20.275" x1="20.275"/>
  <line style="fill:none;stroke:#000000;stroke-width:0.3;" y1="-2.45" y2="-1.6" x2="33.775" x1="33.775"/>
  <line style="fill:none;stroke:#000000;stroke-width:0.3;" y1="-2.45" y2="-1.6" x2="48.15" x1="48.15"/>
  <line style="fill:none;stroke:#000000;stroke-width:0.3;" y1="-52.037" y2="-47.812" x2="14.2" x1="14.2"/>
  <line style="fill:none;stroke:#000000;stroke-width:0.3;" y1="-52.037" y2="-47.812" x2="29.075" x1="29.075"/>
  <line style="fill:none;stroke:#000000;stroke-width:0.3;" y1="-52.037" y2="-47.812" x2="42.7" x1="42.7"/>
  <line style="fill:none;stroke:#000000;stroke-width:0.3;" y1="-52.037" y2="-47.812" x2="55.525" x1="55.525"/>
  <line style="fill:none;stroke:#000000;stroke-width:0.3;" y1="-47.675" y2="-43.625" x2="8.637" x1="8.637"/>
  <line style="fill:none;stroke:#000000;stroke-width:0.3;" y1="-47.675" y2="-43.625" x2="21.888" x1="21.888"/>
  <line style="fill:none;stroke:#000000;stroke-width:0.3;" y1="-47.675" y2="-43.625" x2="35.45" x1="35.45"/>
  <line style="fill:none;stroke:#000000;stroke-width:0.3;" y1="-47.675" y2="-43.625" x2="50.388" x1="50.388"/>
  <line style="fill:none;stroke:#000000;stroke-width:0.3;" y1="-43.625" y2="-39.625" x2="41.763" x1="41.763"/>
  <line style="fill:none;stroke:#000000;stroke-width:0.3;" y1="-43.625" y2="-39.625" x2="28.388" x1="28.388"/>
  <line style="fill:none;stroke:#000000;stroke-width:0.3;" y1="-43.625" y2="-39.625" x2="13.512" x1="13.512"/>
  <line style="fill:none;stroke:#000000;stroke-width:0.3;" y1="-43.625" y2="-39.625" x2="55.013" x1="55.013"/>
  <line style="fill:none;stroke:#000000;stroke-width:0.3;" y1="-39.625" y2="-36.325" x2="48.15" x1="48.15"/>
  <line style="fill:none;stroke:#000000;stroke-width:0.3;" y1="-39.625" y2="-36.325" x2="33.525" x1="33.525"/>
  <line style="fill:none;stroke:#000000;stroke-width:0.3;" y1="-39.625" y2="-36.325" x2="20.275" x1="20.275"/>
  <line style="fill:none;stroke:#000000;stroke-width:0.3;" y1="-39.625" y2="-36.325" x2="7.525" x1="7.525"/>
  <line style="fill:none;stroke:#000000;stroke-width:0.3;" y1="-36.325" y2="-32.9" x2="14.075" x1="14.075"/>
  <line style="fill:none;stroke:#000000;stroke-width:0.3;" y1="-36.325" y2="-32.9" x2="29.075" x1="29.075"/>
  <line style="fill:none;stroke:#000000;stroke-width:0.3;" y1="-36.325" y2="-32.9" x2="42.825" x1="42.825"/>
  <line style="fill:none;stroke:#000000;stroke-width:0.3;" y1="-36.325" y2="-32.9" x2="55.575" x1="55.575"/>
  <line style="fill:none;stroke:#000000;stroke-width:0.3;" y1="-32.9" y2="-28.85" x2="8.262" x1="8.262"/>
  <line style="fill:none;stroke:#000000;stroke-width:0.3;" y1="-32.9" y2="-28.85" x2="21.763" x1="21.763"/>
  <line style="fill:none;stroke:#000000;stroke-width:0.3;" y1="-32.9" y2="-28.85" x2="35.388" x1="35.388"/>
  <line style="fill:none;stroke:#000000;stroke-width:0.3;" y1="-32.9" y2="-28.85" x2="50.263" x1="50.263"/>
  <line style="fill:none;stroke:#000000;stroke-width:0.3;" y1="-28.787" y2="-25.05" x2="41.638" x1="41.638"/>
  <line style="fill:none;stroke:#000000;stroke-width:0.3;" y1="-28.787" y2="-25.05" x2="28.313" x1="28.313"/>
  <line style="fill:none;stroke:#000000;stroke-width:0.3;" y1="-28.787" y2="-25.05" x2="13.313" x1="13.313"/>
  <line style="fill:none;stroke:#000000;stroke-width:0.3;" y1="-28.787" y2="-25.05" x2="54.867" x1="54.867"/>
  <line style="fill:none;stroke:#000000;stroke-width:0.3;" y1="-24.987" y2="-20.85" x2="7.125" x1="7.125"/>
  <line style="fill:none;stroke:#000000;stroke-width:0.3;" y1="-24.987" y2="-20.85" x2="20.125" x1="20.125"/>
  <line style="fill:none;stroke:#000000;stroke-width:0.3;" y1="-24.987" y2="-20.85" x2="33.75" x1="33.75"/>
  <line style="fill:none;stroke:#000000;stroke-width:0.3;" y1="-24.987" y2="-20.85" x2="48" x1="48"/>
  <line style="fill:none;stroke:#000000;stroke-width:0.3;" y1="-20.787" y2="-17.625" x2="43.8" x1="43.8"/>
  <line style="fill:none;stroke:#000000;stroke-width:0.3;" y1="-20.787" y2="-17.625" x2="29.65" x1="29.65"/>
  <line style="fill:none;stroke:#000000;stroke-width:0.3;" y1="-20.787" y2="-17.625" x2="14.525" x1="14.525"/>
  <line style="fill:none;stroke:#000000;stroke-width:0.3;" y1="-20.787" y2="-17.625" x2="2.108" x1="2.108"/>
  <line style="fill:none;stroke:#000000;stroke-width:0.3;" y1="-17.562" y2="-14" x2="8.483" x1="8.483"/>
  <line style="fill:none;stroke:#000000;stroke-width:0.3;" y1="-17.562" y2="-14" x2="21.733" x1="21.733"/>
  <line style="fill:none;stroke:#000000;stroke-width:0.3;" y1="-17.562" y2="-14" x2="35.358" x1="35.358"/>
  <line style="fill:none;stroke:#000000;stroke-width:0.3;" y1="-17.562" y2="-14" x2="50.233" x1="50.233"/>
  <line style="fill:none;stroke:#000000;stroke-width:0.3;" y1="-13.95" y2="-10.187" x2="41.883" x1="41.883"/>
  <line style="fill:none;stroke:#000000;stroke-width:0.3;" y1="-13.95" y2="-10.187" x2="28.008" x1="28.008"/>
  <line style="fill:none;stroke:#000000;stroke-width:0.3;" y1="-13.95" y2="-10.187" x2="13.458" x1="13.458"/>
  <line style="fill:none;stroke:#000000;stroke-width:0.3;" y1="-13.95" y2="-10.187" x2="55.333" x1="55.333"/>
  <line style="fill:none;stroke:#000000;stroke-width:0.3;" y1="-5.812" y2="-5.812" x2="55.725" x1="1.6"/>
  <line style="fill:none;stroke:#000000;stroke-width:0.3;" y1="-5.838" y2="-2.375" x2="11.896" x1="11.896"/>
  <line style="fill:none;stroke:#000000;stroke-width:0.3;" y1="-5.838" y2="-2.375" x2="26.333" x1="26.333"/>
  <line style="fill:none;stroke:#000000;stroke-width:0.3;" y1="-5.838" y2="-2.375" x2="39.958" x1="39.958"/>
  <line style="fill:none;stroke:#000000;stroke-width:0.3;" y1="-5.838" y2="-2.375" x2="53.333" x1="53.333"/>
  <line style="fill:none;stroke:#000000;stroke-width:0.3;" y1="-10.187" y2="-5.838" x2="6.171" x1="6.171"/>
  <line style="fill:none;stroke:#000000;stroke-width:0.3;" y1="-10.187" y2="-5.838" x2="19.171" x1="19.171"/>
  <line style="fill:none;stroke:#000000;stroke-width:0.3;" y1="-10.187" y2="-5.838" x2="33.171" x1="33.171"/>
  <line style="fill:none;stroke:#000000;stroke-width:0.3;" y1="-10.187" y2="-5.838" x2="47.733" x1="47.733"/>
 </g>
</svg>
