<?xml version="1.0"?>
<!-- Converted with SVG Converter - Version 0.9.5 (Compiled Fri Feb 21 09:53:38 2020) - Copyright (C) 2011 Nokia -->
<svg xmlns="http://www.w3.org/2000/svg" xmlns:xlink="http://www.w3.org/1999/xlink" version="1.1" xml:space="preserve" baseProfile="tiny" y="0px" width="54.125" height="54.125" viewBox="1.6 -55.725 54.125 54.125" x="0px">
 <g>
  <rect y="-55.725" width="54.125" height="54.125" x="1.6" style="fill:none;"/>
  <line x1="1.6" x2="55.725" y1="-51.975" y2="-51.975" style="fill:none;stroke:#000000;stroke-width:0.3;"/>
  <line x1="1.6" x2="55.725" y1="-47.8" y2="-47.8" style="fill:none;stroke:#000000;stroke-width:0.3;"/>
  <line x1="1.6" x2="55.725" y1="-43.612" y2="-43.612" style="fill:none;stroke:#000000;stroke-width:0.3;"/>
  <line x1="1.6" x2="55.787" y1="-14" y2="-14" style="fill:none;stroke:#000000;stroke-width:0.3;"/>
  <line x1="1.6" x2="55.725" y1="-10.225" y2="-10.225" style="fill:none;stroke:#000000;stroke-width:0.3;"/>
  <line x1="1.6" x2="55.725" y1="-39.594" y2="-39.594" style="fill:none;stroke:#000000;stroke-width:0.3;"/>
  <line x1="1.6" x2="55.725" y1="-36.312" y2="-36.312" style="fill:none;stroke:#000000;stroke-width:0.3;"/>
  <line x1="1.6" x2="55.725" y1="-32.887" y2="-32.887" style="fill:none;stroke:#000000;stroke-width:0.3;"/>
  <line x1="1.6" x2="55.725" y1="-28.837" y2="-28.837" style="fill:none;stroke:#000000;stroke-width:0.3;"/>
  <line x1="1.6" x2="55.725" y1="-25.037" y2="-25.037" style="fill:none;stroke:#000000;stroke-width:0.3;"/>
  <line x1="1.6" x2="55.787" y1="-20.837" y2="-20.837" style="fill:none;stroke:#000000;stroke-width:0.3;"/>
  <line x1="1.6" x2="55.725" y1="-17.612" y2="-17.612" style="fill:none;stroke:#000000;stroke-width:0.3;"/>
  <line x1="1.6" x2="55.725" y1="-2.437" y2="-2.437" style="fill:none;stroke:#000000;stroke-width:0.3;"/>
  <line x1="7.525" x2="7.525" y1="-55.725" y2="-51.975" style="fill:none;stroke:#000000;stroke-width:0.3;"/>
  <line x1="20.275" x2="20.275" y1="-55.725" y2="-51.975" style="fill:none;stroke:#000000;stroke-width:0.3;"/>
  <line x1="33.775" x2="33.775" y1="-55.725" y2="-51.975" style="fill:none;stroke:#000000;stroke-width:0.3;"/>
  <line x1="48.15" x2="48.15" y1="-55.725" y2="-51.975" style="fill:none;stroke:#000000;stroke-width:0.3;"/>
  <line x1="7.525" x2="7.525" y1="-2.45" y2="-1.6" style="fill:none;stroke:#000000;stroke-width:0.3;"/>
  <line x1="20.275" x2="20.275" y1="-2.45" y2="-1.6" style="fill:none;stroke:#000000;stroke-width:0.3;"/>
  <line x1="33.775" x2="33.775" y1="-2.45" y2="-1.6" style="fill:none;stroke:#000000;stroke-width:0.3;"/>
  <line x1="48.15" x2="48.15" y1="-2.45" y2="-1.6" style="fill:none;stroke:#000000;stroke-width:0.3;"/>
  <line x1="14.2" x2="14.2" y1="-52.037" y2="-47.812" style="fill:none;stroke:#000000;stroke-width:0.3;"/>
  <line x1="29.075" x2="29.075" y1="-52.037" y2="-47.812" style="fill:none;stroke:#000000;stroke-width:0.3;"/>
  <line x1="42.7" x2="42.7" y1="-52.037" y2="-47.812" style="fill:none;stroke:#000000;stroke-width:0.3;"/>
  <line x1="55.525" x2="55.525" y1="-52.037" y2="-47.812" style="fill:none;stroke:#000000;stroke-width:0.3;"/>
  <line x1="8.637" x2="8.637" y1="-47.675" y2="-43.625" style="fill:none;stroke:#000000;stroke-width:0.3;"/>
  <line x1="21.888" x2="21.888" y1="-47.675" y2="-43.625" style="fill:none;stroke:#000000;stroke-width:0.3;"/>
  <line x1="35.45" x2="35.45" y1="-47.675" y2="-43.625" style="fill:none;stroke:#000000;stroke-width:0.3;"/>
  <line x1="50.388" x2="50.388" y1="-47.675" y2="-43.625" style="fill:none;stroke:#000000;stroke-width:0.3;"/>
  <line x1="41.763" x2="41.763" y1="-43.625" y2="-39.625" style="fill:none;stroke:#000000;stroke-width:0.3;"/>
  <line x1="28.388" x2="28.388" y1="-43.625" y2="-39.625" style="fill:none;stroke:#000000;stroke-width:0.3;"/>
  <line x1="13.512" x2="13.512" y1="-43.625" y2="-39.625" style="fill:none;stroke:#000000;stroke-width:0.3;"/>
  <line x1="55.013" x2="55.013" y1="-43.625" y2="-39.625" style="fill:none;stroke:#000000;stroke-width:0.3;"/>
  <line x1="48.15" x2="48.15" y1="-39.625" y2="-36.325" style="fill:none;stroke:#000000;stroke-width:0.3;"/>
  <line x1="33.525" x2="33.525" y1="-39.625" y2="-36.325" style="fill:none;stroke:#000000;stroke-width:0.3;"/>
  <line x1="20.275" x2="20.275" y1="-39.625" y2="-36.325" style="fill:none;stroke:#000000;stroke-width:0.3;"/>
  <line x1="7.525" x2="7.525" y1="-39.625" y2="-36.325" style="fill:none;stroke:#000000;stroke-width:0.3;"/>
  <line x1="14.075" x2="14.075" y1="-36.325" y2="-32.9" style="fill:none;stroke:#000000;stroke-width:0.3;"/>
  <line x1="29.075" x2="29.075" y1="-36.325" y2="-32.9" style="fill:none;stroke:#000000;stroke-width:0.3;"/>
  <line x1="42.825" x2="42.825" y1="-36.325" y2="-32.9" style="fill:none;stroke:#000000;stroke-width:0.3;"/>
  <line x1="55.575" x2="55.575" y1="-36.325" y2="-32.9" style="fill:none;stroke:#000000;stroke-width:0.3;"/>
  <line x1="8.262" x2="8.262" y1="-32.9" y2="-28.85" style="fill:none;stroke:#000000;stroke-width:0.3;"/>
  <line x1="21.763" x2="21.763" y1="-32.9" y2="-28.85" style="fill:none;stroke:#000000;stroke-width:0.3;"/>
  <line x1="35.388" x2="35.388" y1="-32.9" y2="-28.85" style="fill:none;stroke:#000000;stroke-width:0.3;"/>
  <line x1="50.263" x2="50.263" y1="-32.9" y2="-28.85" style="fill:none;stroke:#000000;stroke-width:0.3;"/>
  <line x1="41.638" x2="41.638" y1="-28.787" y2="-25.05" style="fill:none;stroke:#000000;stroke-width:0.3;"/>
  <line x1="28.313" x2="28.313" y1="-28.787" y2="-25.05" style="fill:none;stroke:#000000;stroke-width:0.3;"/>
  <line x1="13.313" x2="13.313" y1="-28.787" y2="-25.05" style="fill:none;stroke:#000000;stroke-width:0.3;"/>
  <line x1="54.867" x2="54.867" y1="-28.787" y2="-25.05" style="fill:none;stroke:#000000;stroke-width:0.3;"/>
  <line x1="7.125" x2="7.125" y1="-24.987" y2="-20.85" style="fill:none;stroke:#000000;stroke-width:0.3;"/>
  <line x1="20.125" x2="20.125" y1="-24.987" y2="-20.85" style="fill:none;stroke:#000000;stroke-width:0.3;"/>
  <line x1="33.75" x2="33.75" y1="-24.987" y2="-20.85" style="fill:none;stroke:#000000;stroke-width:0.3;"/>
  <line x1="48" x2="48" y1="-24.987" y2="-20.85" style="fill:none;stroke:#000000;stroke-width:0.3;"/>
  <line x1="43.8" x2="43.8" y1="-20.787" y2="-17.625" style="fill:none;stroke:#000000;stroke-width:0.3;"/>
  <line x1="29.65" x2="29.65" y1="-20.787" y2="-17.625" style="fill:none;stroke:#000000;stroke-width:0.3;"/>
  <line x1="14.525" x2="14.525" y1="-20.787" y2="-17.625" style="fill:none;stroke:#000000;stroke-width:0.3;"/>
  <line x1="2.108" x2="2.108" y1="-20.787" y2="-17.625" style="fill:none;stroke:#000000;stroke-width:0.3;"/>
  <line x1="8.483" x2="8.483" y1="-17.562" y2="-14" style="fill:none;stroke:#000000;stroke-width:0.3;"/>
  <line x1="21.733" x2="21.733" y1="-17.562" y2="-14" style="fill:none;stroke:#000000;stroke-width:0.3;"/>
  <line x1="35.358" x2="35.358" y1="-17.562" y2="-14" style="fill:none;stroke:#000000;stroke-width:0.3;"/>
  <line x1="50.233" x2="50.233" y1="-17.562" y2="-14" style="fill:none;stroke:#000000;stroke-width:0.3;"/>
  <line x1="41.883" x2="41.883" y1="-13.95" y2="-10.187" style="fill:none;stroke:#000000;stroke-width:0.3;"/>
  <line x1="28.008" x2="28.008" y1="-13.95" y2="-10.187" style="fill:none;stroke:#000000;stroke-width:0.3;"/>
  <line x1="13.458" x2="13.458" y1="-13.95" y2="-10.187" style="fill:none;stroke:#000000;stroke-width:0.3;"/>
  <line x1="55.333" x2="55.333" y1="-13.95" y2="-10.187" style="fill:none;stroke:#000000;stroke-width:0.3;"/>
  <line x1="1.6" x2="55.725" y1="-5.812" y2="-5.812" style="fill:none;stroke:#000000;stroke-width:0.3;"/>
  <line x1="11.896" x2="11.896" y1="-5.838" y2="-2.375" style="fill:none;stroke:#000000;stroke-width:0.3;"/>
  <line x1="26.333" x2="26.333" y1="-5.838" y2="-2.375" style="fill:none;stroke:#000000;stroke-width:0.3;"/>
  <line x1="39.958" x2="39.958" y1="-5.838" y2="-2.375" style="fill:none;stroke:#000000;stroke-width:0.3;"/>
  <line x1="53.333" x2="53.333" y1="-5.838" y2="-2.375" style="fill:none;stroke:#000000;stroke-width:0.3;"/>
  <line x1="6.171" x2="6.171" y1="-10.187" y2="-5.838" style="fill:none;stroke:#000000;stroke-width:0.3;"/>
  <line x1="19.171" x2="19.171" y1="-10.187" y2="-5.838" style="fill:none;stroke:#000000;stroke-width:0.3;"/>
  <line x1="33.171" x2="33.171" y1="-10.187" y2="-5.838" style="fill:none;stroke:#000000;stroke-width:0.3;"/>
  <line x1="47.733" x2="47.733" y1="-10.187" y2="-5.838" style="fill:none;stroke:#000000;stroke-width:0.3;"/>
 </g>
</svg>
