<?xml version="1.0"?>
<!-- Converted with SVG Converter - Version 0.9.5 (Compiled Fri Feb 21 09:53:38 2020) - Copyright (C) 2011 Nokia -->
<svg xmlns="http://www.w3.org/2000/svg" x="0px" xml:space="preserve" version="1.1" xmlns:xlink="http://www.w3.org/1999/xlink" y="0px" width="54.125" height="54.125" viewBox="2.2 -55.725 54.125 54.125" baseProfile="tiny">
 <g>
  <rect x="2.2" y="-55.725" width="54.125" height="54.125" style="fill:none;"/>
  <line x2="56.325" x1="2.2" style="fill:none;stroke:#000000;stroke-width:0.3;" y1="-51.975" y2="-51.975"/>
  <line x2="56.325" x1="2.2" style="fill:none;stroke:#000000;stroke-width:0.3;" y1="-47.8" y2="-47.8"/>
  <line x2="56.325" x1="2.2" style="fill:none;stroke:#000000;stroke-width:0.3;" y1="-43.612" y2="-43.612"/>
  <line x2="56.388" x1="2.2" style="fill:none;stroke:#000000;stroke-width:0.3;" y1="-14" y2="-14"/>
  <line x2="56.325" x1="2.2" style="fill:none;stroke:#000000;stroke-width:0.3;" y1="-10.225" y2="-10.225"/>
  <line x2="56.325" x1="2.2" style="fill:none;stroke:#000000;stroke-width:0.3;" y1="-39.594" y2="-39.594"/>
  <line x2="56.325" x1="2.2" style="fill:none;stroke:#000000;stroke-width:0.3;" y1="-36.312" y2="-36.312"/>
  <line x2="56.325" x1="2.2" style="fill:none;stroke:#000000;stroke-width:0.3;" y1="-32.887" y2="-32.887"/>
  <line x2="56.325" x1="2.2" style="fill:none;stroke:#000000;stroke-width:0.3;" y1="-28.837" y2="-28.837"/>
  <line x2="56.325" x1="2.2" style="fill:none;stroke:#000000;stroke-width:0.3;" y1="-25.037" y2="-25.037"/>
  <line x2="56.388" x1="2.2" style="fill:none;stroke:#000000;stroke-width:0.3;" y1="-20.837" y2="-20.837"/>
  <line x2="56.325" x1="2.2" style="fill:none;stroke:#000000;stroke-width:0.3;" y1="-17.612" y2="-17.612"/>
  <line x2="56.325" x1="2.2" style="fill:none;stroke:#000000;stroke-width:0.3;" y1="-2.437" y2="-2.437"/>
  <line x2="8.125" x1="8.125" style="fill:none;stroke:#000000;stroke-width:0.3;" y1="-55.725" y2="-51.975"/>
  <line x2="20.875" x1="20.875" style="fill:none;stroke:#000000;stroke-width:0.3;" y1="-55.725" y2="-51.975"/>
  <line x2="34.375" x1="34.375" style="fill:none;stroke:#000000;stroke-width:0.3;" y1="-55.725" y2="-51.975"/>
  <line x2="48.75" x1="48.75" style="fill:none;stroke:#000000;stroke-width:0.3;" y1="-55.725" y2="-51.975"/>
  <line x2="8.125" x1="8.125" style="fill:none;stroke:#000000;stroke-width:0.3;" y1="-2.45" y2="-1.6"/>
  <line x2="20.875" x1="20.875" style="fill:none;stroke:#000000;stroke-width:0.3;" y1="-2.45" y2="-1.6"/>
  <line x2="34.375" x1="34.375" style="fill:none;stroke:#000000;stroke-width:0.3;" y1="-2.45" y2="-1.6"/>
  <line x2="48.75" x1="48.75" style="fill:none;stroke:#000000;stroke-width:0.3;" y1="-2.45" y2="-1.6"/>
  <line x2="14.8" x1="14.8" style="fill:none;stroke:#000000;stroke-width:0.3;" y1="-52.037" y2="-47.812"/>
  <line x2="29.675" x1="29.675" style="fill:none;stroke:#000000;stroke-width:0.3;" y1="-52.037" y2="-47.812"/>
  <line x2="43.3" x1="43.3" style="fill:none;stroke:#000000;stroke-width:0.3;" y1="-52.037" y2="-47.812"/>
  <line x2="56.125" x1="56.125" style="fill:none;stroke:#000000;stroke-width:0.3;" y1="-52.037" y2="-47.812"/>
  <line x2="9.238" x1="9.238" style="fill:none;stroke:#000000;stroke-width:0.3;" y1="-47.675" y2="-43.625"/>
  <line x2="22.487" x1="22.487" style="fill:none;stroke:#000000;stroke-width:0.3;" y1="-47.675" y2="-43.625"/>
  <line x2="36.05" x1="36.05" style="fill:none;stroke:#000000;stroke-width:0.3;" y1="-47.675" y2="-43.625"/>
  <line x2="50.987" x1="50.987" style="fill:none;stroke:#000000;stroke-width:0.3;" y1="-47.675" y2="-43.625"/>
  <line x2="42.362" x1="42.362" style="fill:none;stroke:#000000;stroke-width:0.3;" y1="-43.625" y2="-39.625"/>
  <line x2="28.987" x1="28.987" style="fill:none;stroke:#000000;stroke-width:0.3;" y1="-43.625" y2="-39.625"/>
  <line x2="14.113" x1="14.113" style="fill:none;stroke:#000000;stroke-width:0.3;" y1="-43.625" y2="-39.625"/>
  <line x2="55.612" x1="55.612" style="fill:none;stroke:#000000;stroke-width:0.3;" y1="-43.625" y2="-39.625"/>
  <line x2="48.75" x1="48.75" style="fill:none;stroke:#000000;stroke-width:0.3;" y1="-39.625" y2="-36.325"/>
  <line x2="34.125" x1="34.125" style="fill:none;stroke:#000000;stroke-width:0.3;" y1="-39.625" y2="-36.325"/>
  <line x2="20.875" x1="20.875" style="fill:none;stroke:#000000;stroke-width:0.3;" y1="-39.625" y2="-36.325"/>
  <line x2="8.125" x1="8.125" style="fill:none;stroke:#000000;stroke-width:0.3;" y1="-39.625" y2="-36.325"/>
  <line x2="14.675" x1="14.675" style="fill:none;stroke:#000000;stroke-width:0.3;" y1="-36.325" y2="-32.9"/>
  <line x2="29.675" x1="29.675" style="fill:none;stroke:#000000;stroke-width:0.3;" y1="-36.325" y2="-32.9"/>
  <line x2="43.425" x1="43.425" style="fill:none;stroke:#000000;stroke-width:0.3;" y1="-36.325" y2="-32.9"/>
  <line x2="56.175" x1="56.175" style="fill:none;stroke:#000000;stroke-width:0.3;" y1="-36.325" y2="-32.9"/>
  <line x2="8.863" x1="8.863" style="fill:none;stroke:#000000;stroke-width:0.3;" y1="-32.9" y2="-28.85"/>
  <line x2="22.362" x1="22.362" style="fill:none;stroke:#000000;stroke-width:0.3;" y1="-32.9" y2="-28.85"/>
  <line x2="35.987" x1="35.987" style="fill:none;stroke:#000000;stroke-width:0.3;" y1="-32.9" y2="-28.85"/>
  <line x2="50.862" x1="50.862" style="fill:none;stroke:#000000;stroke-width:0.3;" y1="-32.9" y2="-28.85"/>
  <line x2="42.237" x1="42.237" style="fill:none;stroke:#000000;stroke-width:0.3;" y1="-28.787" y2="-25.05"/>
  <line x2="28.913" x1="28.913" style="fill:none;stroke:#000000;stroke-width:0.3;" y1="-28.787" y2="-25.05"/>
  <line x2="13.913" x1="13.913" style="fill:none;stroke:#000000;stroke-width:0.3;" y1="-28.787" y2="-25.05"/>
  <line x2="55.467" x1="55.467" style="fill:none;stroke:#000000;stroke-width:0.3;" y1="-28.787" y2="-25.05"/>
  <line x2="7.725" x1="7.725" style="fill:none;stroke:#000000;stroke-width:0.3;" y1="-24.987" y2="-20.85"/>
  <line x2="20.725" x1="20.725" style="fill:none;stroke:#000000;stroke-width:0.3;" y1="-24.987" y2="-20.85"/>
  <line x2="34.35" x1="34.35" style="fill:none;stroke:#000000;stroke-width:0.3;" y1="-24.987" y2="-20.85"/>
  <line x2="48.6" x1="48.6" style="fill:none;stroke:#000000;stroke-width:0.3;" y1="-24.987" y2="-20.85"/>
  <line x2="44.4" x1="44.4" style="fill:none;stroke:#000000;stroke-width:0.3;" y1="-20.787" y2="-17.625"/>
  <line x2="30.25" x1="30.25" style="fill:none;stroke:#000000;stroke-width:0.3;" y1="-20.787" y2="-17.625"/>
  <line x2="15.125" x1="15.125" style="fill:none;stroke:#000000;stroke-width:0.3;" y1="-20.787" y2="-17.625"/>
  <line x2="2.708" x1="2.708" style="fill:none;stroke:#000000;stroke-width:0.3;" y1="-20.787" y2="-17.625"/>
  <line x2="9.083" x1="9.083" style="fill:none;stroke:#000000;stroke-width:0.3;" y1="-17.562" y2="-14"/>
  <line x2="22.333" x1="22.333" style="fill:none;stroke:#000000;stroke-width:0.3;" y1="-17.562" y2="-14"/>
  <line x2="35.958" x1="35.958" style="fill:none;stroke:#000000;stroke-width:0.3;" y1="-17.562" y2="-14"/>
  <line x2="50.833" x1="50.833" style="fill:none;stroke:#000000;stroke-width:0.3;" y1="-17.562" y2="-14"/>
  <line x2="42.483" x1="42.483" style="fill:none;stroke:#000000;stroke-width:0.3;" y1="-13.95" y2="-10.187"/>
  <line x2="28.608" x1="28.608" style="fill:none;stroke:#000000;stroke-width:0.3;" y1="-13.95" y2="-10.187"/>
  <line x2="14.058" x1="14.058" style="fill:none;stroke:#000000;stroke-width:0.3;" y1="-13.95" y2="-10.187"/>
  <line x2="55.933" x1="55.933" style="fill:none;stroke:#000000;stroke-width:0.3;" y1="-13.95" y2="-10.187"/>
  <line x2="56.325" x1="2.2" style="fill:none;stroke:#000000;stroke-width:0.3;" y1="-5.812" y2="-5.812"/>
  <line x2="12.496" x1="12.496" style="fill:none;stroke:#000000;stroke-width:0.3;" y1="-5.838" y2="-2.375"/>
  <line x2="26.933" x1="26.933" style="fill:none;stroke:#000000;stroke-width:0.3;" y1="-5.838" y2="-2.375"/>
  <line x2="40.558" x1="40.558" style="fill:none;stroke:#000000;stroke-width:0.3;" y1="-5.838" y2="-2.375"/>
  <line x2="53.933" x1="53.933" style="fill:none;stroke:#000000;stroke-width:0.3;" y1="-5.838" y2="-2.375"/>
  <line x2="6.771" x1="6.771" style="fill:none;stroke:#000000;stroke-width:0.3;" y1="-10.187" y2="-5.838"/>
  <line x2="19.771" x1="19.771" style="fill:none;stroke:#000000;stroke-width:0.3;" y1="-10.187" y2="-5.838"/>
  <line x2="33.771" x1="33.771" style="fill:none;stroke:#000000;stroke-width:0.3;" y1="-10.187" y2="-5.838"/>
  <line x2="48.333" x1="48.333" style="fill:none;stroke:#000000;stroke-width:0.3;" y1="-10.187" y2="-5.838"/>
  <line x2="11.387" x1="13.262" style="fill:none;stroke:#000000;stroke-width:0.3;" y1="-46.437" y2="-44.812"/>
  <line x2="15.45" x1="16.575" style="fill:none;stroke:#000000;stroke-width:0.3;" y1="-44.75" y2="-46.5"/>
  <line x2="18.763" x1="21.138" style="fill:none;stroke:#000000;stroke-width:0.3;" y1="-46.312" y2="-44.812"/>
  <line x2="38.575" x1="40.45" style="fill:none;stroke:#000000;stroke-width:0.3;" y1="-46.437" y2="-44.812"/>
  <line x2="42.638" x1="43.763" style="fill:none;stroke:#000000;stroke-width:0.3;" y1="-44.75" y2="-46.5"/>
  <line x2="46.45" x1="48.825" style="fill:none;stroke:#000000;stroke-width:0.3;" y1="-46.312" y2="-44.812"/>
  <line x2="44.2" x1="46.075" style="fill:none;stroke:#000000;stroke-width:0.3;" y1="-42.312" y2="-40.687"/>
  <line x2="48.263" x1="49.388" style="fill:none;stroke:#000000;stroke-width:0.3;" y1="-40.625" y2="-42.375"/>
  <line x2="51.575" x1="53.95" style="fill:none;stroke:#000000;stroke-width:0.3;" y1="-42.187" y2="-40.687"/>
  <line x2="16.825" x1="18.7" style="fill:none;stroke:#000000;stroke-width:0.3;" y1="-42.437" y2="-40.812"/>
  <line x2="20.888" x1="22.013" style="fill:none;stroke:#000000;stroke-width:0.3;" y1="-40.75" y2="-42.5"/>
  <line x2="24.2" x1="26.575" style="fill:none;stroke:#000000;stroke-width:0.3;" y1="-42.312" y2="-40.812"/>
  <line x2="22.7" x1="24.575" style="fill:none;stroke:#000000;stroke-width:0.3;" y1="-38.812" y2="-37.187"/>
  <line x2="26.763" x1="27.888" style="fill:none;stroke:#000000;stroke-width:0.3;" y1="-37.125" y2="-38.875"/>
  <line x2="30.075" x1="32.45" style="fill:none;stroke:#000000;stroke-width:0.3;" y1="-38.687" y2="-37.187"/>
  <line x2="8.512" x1="10.387" style="fill:none;stroke:#000000;stroke-width:0.3;" y1="-8.75" y2="-7.125"/>
  <line x2="12.575" x1="13.7" style="fill:none;stroke:#000000;stroke-width:0.3;" y1="-7.062" y2="-8.812"/>
  <line x2="15.887" x1="18.263" style="fill:none;stroke:#000000;stroke-width:0.3;" y1="-8.625" y2="-7.125"/>
  <line x2="14.95" x1="16.825" style="fill:none;stroke:#000000;stroke-width:0.3;" y1="-4.812" y2="-3.187"/>
  <line x2="19.013" x1="20.138" style="fill:none;stroke:#000000;stroke-width:0.3;" y1="-3.125" y2="-4.875"/>
  <line x2="22.325" x1="24.7" style="fill:none;stroke:#000000;stroke-width:0.3;" y1="-4.687" y2="-3.187"/>
  <line x2="42.2" x1="44.075" style="fill:none;stroke:#000000;stroke-width:0.3;" y1="-5" y2="-3.375"/>
  <line x2="46.263" x1="47.388" style="fill:none;stroke:#000000;stroke-width:0.3;" y1="-3.312" y2="-5.062"/>
  <line x2="49.575" x1="51.95" style="fill:none;stroke:#000000;stroke-width:0.3;" y1="-4.875" y2="-3.375"/>
  <line x2="36.325" x1="38.2" style="fill:none;stroke:#000000;stroke-width:0.3;" y1="-8.625" y2="-7"/>
  <line x2="40.388" x1="41.513" style="fill:none;stroke:#000000;stroke-width:0.3;" y1="-6.937" y2="-8.687"/>
  <line x2="43.7" x1="46.075" style="fill:none;stroke:#000000;stroke-width:0.3;" y1="-8.5" y2="-7"/>
  <line x2="30.95" x1="32.825" style="fill:none;stroke:#000000;stroke-width:0.3;" y1="-12.875" y2="-11.25"/>
  <line x2="35.013" x1="36.138" style="fill:none;stroke:#000000;stroke-width:0.3;" y1="-11.187" y2="-12.937"/>
  <line x2="38.325" x1="40.7" style="fill:none;stroke:#000000;stroke-width:0.3;" y1="-12.75" y2="-11.25"/>
  <line x2="3.2" x1="5.075" style="fill:none;stroke:#000000;stroke-width:0.3;" y1="-13" y2="-11.375"/>
  <line x2="6.762" x1="7.887" style="fill:none;stroke:#000000;stroke-width:0.3;" y1="-11.312" y2="-13.062"/>
  <line x2="10.075" x1="12.45" style="fill:none;stroke:#000000;stroke-width:0.3;" y1="-12.875" y2="-11.375"/>
  <line x2="11.012" x1="12.887" style="fill:none;stroke:#000000;stroke-width:0.3;" y1="-16.437" y2="-14.812"/>
  <line x2="15.075" x1="16.2" style="fill:none;stroke:#000000;stroke-width:0.3;" y1="-14.75" y2="-16.5"/>
  <line x2="18.388" x1="20.763" style="fill:none;stroke:#000000;stroke-width:0.3;" y1="-16.312" y2="-14.812"/>
  <line x2="38.388" x1="40.263" style="fill:none;stroke:#000000;stroke-width:0.3;" y1="-16.625" y2="-15"/>
  <line x2="42.45" x1="43.575" style="fill:none;stroke:#000000;stroke-width:0.3;" y1="-14.937" y2="-16.687"/>
  <line x2="45.763" x1="48.138" style="fill:none;stroke:#000000;stroke-width:0.3;" y1="-16.5" y2="-15"/>
  <line x2="46.2" x1="48.075" style="fill:none;stroke:#000000;stroke-width:0.3;" y1="-20.062" y2="-18.437"/>
  <line x2="49.912" x1="51.037" style="fill:none;stroke:#000000;stroke-width:0.3;" y1="-18.375" y2="-20.125"/>
  <line x2="52.625" x1="55" style="fill:none;stroke:#000000;stroke-width:0.3;" y1="-19.937" y2="-18.437"/>
  <line x2="18.075" x1="19.95" style="fill:none;stroke:#000000;stroke-width:0.3;" y1="-19.937" y2="-18.312"/>
  <line x2="22.138" x1="23.263" style="fill:none;stroke:#000000;stroke-width:0.3;" y1="-18.25" y2="-20"/>
  <line x2="25.45" x1="27.825" style="fill:none;stroke:#000000;stroke-width:0.3;" y1="-19.812" y2="-18.312"/>
  <line x2="22.825" x1="24.7" style="fill:none;stroke:#000000;stroke-width:0.3;" y1="-23.687" y2="-22.062"/>
  <line x2="26.888" x1="28.013" style="fill:none;stroke:#000000;stroke-width:0.3;" y1="-22" y2="-23.75"/>
  <line x2="30.2" x1="32.575" style="fill:none;stroke:#000000;stroke-width:0.3;" y1="-23.562" y2="-22.062"/>
  <line x2="30.825" x1="32.7" style="fill:none;stroke:#000000;stroke-width:0.3;" y1="-27.812" y2="-26.187"/>
  <line x2="34.888" x1="36.013" style="fill:none;stroke:#000000;stroke-width:0.3;" y1="-26.125" y2="-27.875"/>
  <line x2="38.2" x1="40.575" style="fill:none;stroke:#000000;stroke-width:0.3;" y1="-27.687" y2="-26.187"/>
  <line x2="2.7" x1="4.575" style="fill:none;stroke:#000000;stroke-width:0.3;" y1="-27.687" y2="-26.062"/>
  <line x2="6.762" x1="7.887" style="fill:none;stroke:#000000;stroke-width:0.3;" y1="-26" y2="-27.75"/>
  <line x2="10.075" x1="12.45" style="fill:none;stroke:#000000;stroke-width:0.3;" y1="-27.562" y2="-26.062"/>
  <line x2="5.95" x1="7.45" style="fill:none;stroke:#000000;stroke-width:0.3;" y1="-31.562" y2="-29.85"/>
  <line x2="3.45" x1="5.825" style="fill:none;stroke:#000000;stroke-width:0.3;" y1="-23.687" y2="-22.187"/>
  <line x2="17.2" x1="19.075" style="fill:none;stroke:#000000;stroke-width:0.3;" y1="-35.312" y2="-33.687"/>
  <line x2="21.263" x1="22.388" style="fill:none;stroke:#000000;stroke-width:0.3;" y1="-33.625" y2="-35.375"/>
  <line x2="24.575" x1="26.95" style="fill:none;stroke:#000000;stroke-width:0.3;" y1="-35.187" y2="-33.687"/>
  <line x2="24.075" x1="25.95" style="fill:none;stroke:#000000;stroke-width:0.3;" y1="-31.687" y2="-30.062"/>
  <line x2="28.138" x1="29.263" style="fill:none;stroke:#000000;stroke-width:0.3;" y1="-30" y2="-31.75"/>
  <line x2="31.45" x1="33.825" style="fill:none;stroke:#000000;stroke-width:0.3;" y1="-31.562" y2="-30.062"/>
  <line x2="44.825" x1="46.7" style="fill:none;stroke:#000000;stroke-width:0.3;" y1="-35.437" y2="-33.812"/>
  <line x2="48.888" x1="50.013" style="fill:none;stroke:#000000;stroke-width:0.3;" y1="-33.75" y2="-35.5"/>
  <line x2="52.2" x1="54.575" style="fill:none;stroke:#000000;stroke-width:0.3;" y1="-35.312" y2="-33.812"/>
  <line x2="3.45" x1="5.825" style="fill:none;stroke:#000000;stroke-width:0.3;" y1="-38.562" y2="-37.062"/>
  <line x2="17.325" x1="19.2" style="fill:none;stroke:#000000;stroke-width:0.3;" y1="-50.687" y2="-49.062"/>
  <line x2="21.388" x1="22.513" style="fill:none;stroke:#000000;stroke-width:0.3;" y1="-49" y2="-50.75"/>
  <line x2="24.7" x1="27.075" style="fill:none;stroke:#000000;stroke-width:0.3;" y1="-50.562" y2="-49.062"/>
  <line x2="44.825" x1="46.7" style="fill:none;stroke:#000000;stroke-width:0.3;" y1="-50.562" y2="-48.937"/>
  <line x2="48.888" x1="50.013" style="fill:none;stroke:#000000;stroke-width:0.3;" y1="-48.875" y2="-50.625"/>
  <line x2="52.2" x1="54.575" style="fill:none;stroke:#000000;stroke-width:0.3;" y1="-50.437" y2="-48.937"/>
  <line x2="23.013" x1="24.888" style="fill:none;stroke:#000000;stroke-width:0.3;" y1="-54.857" y2="-53.232"/>
  <line x2="27.075" x1="28.2" style="fill:none;stroke:#000000;stroke-width:0.3;" y1="-53.17" y2="-54.92"/>
  <line x2="30.388" x1="32.763" style="fill:none;stroke:#000000;stroke-width:0.3;" y1="-54.732" y2="-53.232"/>
  <line x2="50.638" x1="52.513" style="fill:none;stroke:#000000;stroke-width:0.3;" y1="-54.795" y2="-53.17"/>
  <line x2="54.7" x1="55.825" style="fill:none;stroke:#000000;stroke-width:0.3;" y1="-53.107" y2="-54.857"/>
  <line x2="4.012" x1="6.387" style="fill:none;stroke:#000000;stroke-width:0.3;" y1="-54.732" y2="-53.232"/>
  <line x2="52.451" x1="54.326" style="fill:none;stroke:#000000;stroke-width:0.3;" y1="-44.687" y2="-46.312"/>
  <line x2="2.514" x1="3.639" style="fill:none;stroke:#000000;stroke-width:0.3;" y1="-46.375" y2="-44.625"/>
  <line x2="5.076" x1="7.451" style="fill:none;stroke:#000000;stroke-width:0.3;" y1="-44.812" y2="-46.312"/>
  <line x2="24.138" x1="26.013" style="fill:none;stroke:#000000;stroke-width:0.3;" y1="-44.687" y2="-46.312"/>
  <line x2="28.638" x1="29.763" style="fill:none;stroke:#000000;stroke-width:0.3;" y1="-46.312" y2="-44.562"/>
  <line x2="31.888" x1="34.263" style="fill:none;stroke:#000000;stroke-width:0.3;" y1="-44.75" y2="-46.25"/>
  <line x2="3.184" x1="5.059" style="fill:none;stroke:#000000;stroke-width:0.3;" y1="-40.75" y2="-42.375"/>
  <line x2="6.746" x1="7.871" style="fill:none;stroke:#000000;stroke-width:0.3;" y1="-42.437" y2="-40.687"/>
  <line x2="10.059" x1="12.434" style="fill:none;stroke:#000000;stroke-width:0.3;" y1="-40.875" y2="-42.375"/>
  <line x2="30.888" x1="32.763" style="fill:none;stroke:#000000;stroke-width:0.3;" y1="-40.75" y2="-42.375"/>
  <line x2="34.95" x1="36.075" style="fill:none;stroke:#000000;stroke-width:0.3;" y1="-42.437" y2="-40.687"/>
  <line x2="38.263" x1="40.638" style="fill:none;stroke:#000000;stroke-width:0.3;" y1="-40.875" y2="-42.375"/>
  <line x2="36.45" x1="38.325" style="fill:none;stroke:#000000;stroke-width:0.3;" y1="-37.062" y2="-38.687"/>
  <line x2="40.513" x1="41.638" style="fill:none;stroke:#000000;stroke-width:0.3;" y1="-38.75" y2="-37"/>
  <line x2="43.825" x1="46.2" style="fill:none;stroke:#000000;stroke-width:0.3;" y1="-37.187" y2="-38.687"/>
  <line x2="31.825" x1="33.7" style="fill:none;stroke:#000000;stroke-width:0.3;" y1="-33.687" y2="-35.312"/>
  <line x2="35.888" x1="37.013" style="fill:none;stroke:#000000;stroke-width:0.3;" y1="-35.375" y2="-33.625"/>
  <line x2="39.2" x1="41.575" style="fill:none;stroke:#000000;stroke-width:0.3;" y1="-33.812" y2="-35.312"/>
  <line x2="9.575" x1="11.45" style="fill:none;stroke:#000000;stroke-width:0.3;" y1="-37" y2="-38.625"/>
  <line x2="13.637" x1="14.762" style="fill:none;stroke:#000000;stroke-width:0.3;" y1="-38.687" y2="-36.937"/>
  <line x2="16.95" x1="19.325" style="fill:none;stroke:#000000;stroke-width:0.3;" y1="-37.125" y2="-38.625"/>
  <line x2="3.787" x1="5.662" style="fill:none;stroke:#000000;stroke-width:0.3;" y1="-33.75" y2="-35.375"/>
  <line x2="7.2" x1="8.325" style="fill:none;stroke:#000000;stroke-width:0.3;" y1="-35.437" y2="-33.687"/>
  <line x2="10.512" x1="12.887" style="fill:none;stroke:#000000;stroke-width:0.3;" y1="-33.875" y2="-35.375"/>
  <line x2="10.575" x1="12.45" style="fill:none;stroke:#000000;stroke-width:0.3;" y1="-29.812" y2="-31.437"/>
  <line x2="14.637" x1="15.762" style="fill:none;stroke:#000000;stroke-width:0.3;" y1="-31.5" y2="-29.75"/>
  <line x2="17.95" x1="20.325" style="fill:none;stroke:#000000;stroke-width:0.3;" y1="-29.937" y2="-31.437"/>
  <line x2="16.325" x1="18.2" style="fill:none;stroke:#000000;stroke-width:0.3;" y1="-26.125" y2="-27.75"/>
  <line x2="20.388" x1="21.513" style="fill:none;stroke:#000000;stroke-width:0.3;" y1="-27.812" y2="-26.062"/>
  <line x2="23.7" x1="26.075" style="fill:none;stroke:#000000;stroke-width:0.3;" y1="-26.25" y2="-27.75"/>
  <line x2="9.2" x1="11.075" style="fill:none;stroke:#000000;stroke-width:0.3;" y1="-22.125" y2="-23.75"/>
  <line x2="13.262" x1="14.387" style="fill:none;stroke:#000000;stroke-width:0.3;" y1="-23.812" y2="-22.062"/>
  <line x2="16.575" x1="18.95" style="fill:none;stroke:#000000;stroke-width:0.3;" y1="-22.25" y2="-23.75"/>
  <line x2="4.525" x1="6.4" style="fill:none;stroke:#000000;stroke-width:0.3;" y1="-18.375" y2="-20"/>
  <line x2="8.455" x1="9.58" style="fill:none;stroke:#000000;stroke-width:0.3;" y1="-20.062" y2="-18.312"/>
  <line x2="11.2" x1="13.575" style="fill:none;stroke:#000000;stroke-width:0.3;" y1="-18.5" y2="-20"/>
  <line x2="36.575" x1="38.45" style="fill:none;stroke:#000000;stroke-width:0.3;" y1="-22" y2="-23.625"/>
  <line x2="40.638" x1="41.763" style="fill:none;stroke:#000000;stroke-width:0.3;" y1="-23.687" y2="-21.937"/>
  <line x2="43.95" x1="46.325" style="fill:none;stroke:#000000;stroke-width:0.3;" y1="-22.125" y2="-23.625"/>
  <line x2="43.763" x1="45.638" style="fill:none;stroke:#000000;stroke-width:0.3;" y1="-26" y2="-27.625"/>
  <line x2="47.825" x1="48.95" style="fill:none;stroke:#000000;stroke-width:0.3;" y1="-27.687" y2="-25.937"/>
  <line x2="51.138" x1="53.513" style="fill:none;stroke:#000000;stroke-width:0.3;" y1="-26.125" y2="-27.625"/>
  <line x2="38.763" x1="40.638" style="fill:none;stroke:#000000;stroke-width:0.3;" y1="-29.812" y2="-31.437"/>
  <line x2="42.825" x1="43.95" style="fill:none;stroke:#000000;stroke-width:0.3;" y1="-31.5" y2="-29.75"/>
  <line x2="46.138" x1="48.513" style="fill:none;stroke:#000000;stroke-width:0.3;" y1="-29.937" y2="-31.437"/>
  <line x2="32.513" x1="34.388" style="fill:none;stroke:#000000;stroke-width:0.3;" y1="-18.312" y2="-19.937"/>
  <line x2="36.575" x1="37.7" style="fill:none;stroke:#000000;stroke-width:0.3;" y1="-20" y2="-18.25"/>
  <line x2="39.888" x1="42.263" style="fill:none;stroke:#000000;stroke-width:0.3;" y1="-18.437" y2="-19.937"/>
  <line x2="24.075" x1="25.95" style="fill:none;stroke:#000000;stroke-width:0.3;" y1="-14.812" y2="-16.437"/>
  <line x2="28.138" x1="29.263" style="fill:none;stroke:#000000;stroke-width:0.3;" y1="-16.5" y2="-14.75"/>
  <line x2="31.45" x1="33.825" style="fill:none;stroke:#000000;stroke-width:0.3;" y1="-14.937" y2="-16.437"/>
  <line x2="1.95" x1="3.075" style="fill:none;stroke:#000000;stroke-width:0.3;" y1="-16.625" y2="-14.875"/>
  <line x2="5.262" x1="7.637" style="fill:none;stroke:#000000;stroke-width:0.3;" y1="-15.062" y2="-16.562"/>
  <line x2="16.138" x1="18.013" style="fill:none;stroke:#000000;stroke-width:0.3;" y1="-11.187" y2="-12.812"/>
  <line x2="20.2" x1="21.325" style="fill:none;stroke:#000000;stroke-width:0.3;" y1="-12.875" y2="-11.125"/>
  <line x2="23.513" x1="25.888" style="fill:none;stroke:#000000;stroke-width:0.3;" y1="-11.312" y2="-12.812"/>
  <line x2="44.388" x1="46.263" style="fill:none;stroke:#000000;stroke-width:0.3;" y1="-11.187" y2="-12.812"/>
  <line x2="48.45" x1="49.575" style="fill:none;stroke:#000000;stroke-width:0.3;" y1="-12.875" y2="-11.125"/>
  <line x2="51.763" x1="54.138" style="fill:none;stroke:#000000;stroke-width:0.3;" y1="-11.312" y2="-12.812"/>
  <line x2="21.7" x1="23.575" style="fill:none;stroke:#000000;stroke-width:0.3;" y1="-7.062" y2="-8.687"/>
  <line x2="25.763" x1="26.888" style="fill:none;stroke:#000000;stroke-width:0.3;" y1="-8.75" y2="-7"/>
  <line x2="29.075" x1="31.45" style="fill:none;stroke:#000000;stroke-width:0.3;" y1="-7.187" y2="-8.687"/>
  <line x2="28.825" x1="30.7" style="fill:none;stroke:#000000;stroke-width:0.3;" y1="-3.125" y2="-4.75"/>
  <line x2="32.888" x1="34.013" style="fill:none;stroke:#000000;stroke-width:0.3;" y1="-4.812" y2="-3.062"/>
  <line x2="36.2" x1="38.575" style="fill:none;stroke:#000000;stroke-width:0.3;" y1="-3.25" y2="-4.75"/>
  <line x2="1.6" x1="3.475" style="fill:none;stroke:#000000;stroke-width:0.3;" y1="-3.187" y2="-4.812"/>
  <line x2="5.662" x1="6.787" style="fill:none;stroke:#000000;stroke-width:0.3;" y1="-4.875" y2="-3.125"/>
  <line x2="8.725" x1="11.1" style="fill:none;stroke:#000000;stroke-width:0.3;" y1="-3.312" y2="-4.812"/>
  <line x2="2.513" x1="4.887" style="fill:none;stroke:#000000;stroke-width:0.3;" y1="-7.25" y2="-8.75"/>
  <line x2="36.575" x1="38.45" style="fill:none;stroke:#000000;stroke-width:0.3;" y1="-52.982" y2="-54.607"/>
  <line x2="40.638" x1="41.763" style="fill:none;stroke:#000000;stroke-width:0.3;" y1="-54.67" y2="-52.92"/>
  <line x2="43.95" x1="46.325" style="fill:none;stroke:#000000;stroke-width:0.3;" y1="-53.107" y2="-54.607"/>
  <line x2="9.637" x1="11.512" style="fill:none;stroke:#000000;stroke-width:0.3;" y1="-53.232" y2="-54.857"/>
  <line x2="13.7" x1="14.825" style="fill:none;stroke:#000000;stroke-width:0.3;" y1="-54.92" y2="-53.17"/>
  <line x2="17.013" x1="19.388" style="fill:none;stroke:#000000;stroke-width:0.3;" y1="-53.357" y2="-54.857"/>
  <line x2="3.688" x1="5.562" style="fill:none;stroke:#000000;stroke-width:0.3;" y1="-48.875" y2="-50.5"/>
  <line x2="7.2" x1="8.325" style="fill:none;stroke:#000000;stroke-width:0.3;" y1="-50.562" y2="-48.812"/>
  <line x2="10.512" x1="12.887" style="fill:none;stroke:#000000;stroke-width:0.3;" y1="-49" y2="-50.5"/>
  <line x2="31.388" x1="33.263" style="fill:none;stroke:#000000;stroke-width:0.3;" y1="-48.937" y2="-50.562"/>
  <line x2="35.45" x1="36.575" style="fill:none;stroke:#000000;stroke-width:0.3;" y1="-50.625" y2="-48.875"/>
  <line x2="38.763" x1="41.138" style="fill:none;stroke:#000000;stroke-width:0.3;" y1="-49.062" y2="-50.562"/>
  <line x2="53.2" x1="55.075" style="fill:none;stroke:#000000;stroke-width:0.3;" y1="-31.562" y2="-29.937"/>
  <line x2="2.888" x1="4.012" style="fill:none;stroke:#000000;stroke-width:0.3;" y1="-29.875" y2="-31.625"/>
  <line x2="50.2" x1="52.075" style="fill:none;stroke:#000000;stroke-width:0.3;" y1="-23.812" y2="-22.187"/>
  <line x2="54.263" x1="55.388" style="fill:none;stroke:#000000;stroke-width:0.3;" y1="-22.125" y2="-23.875"/>
  <line x2="50.2" x1="52.075" style="fill:none;stroke:#000000;stroke-width:0.3;" y1="-38.687" y2="-37.062"/>
  <line x2="54.263" x1="55.388" style="fill:none;stroke:#000000;stroke-width:0.3;" y1="-37" y2="-38.75"/>
  <line x2="52.013" x1="53.888" style="fill:none;stroke:#000000;stroke-width:0.3;" y1="-14.937" y2="-16.562"/>
  <line x2="56.075" x1="57.2" style="fill:none;stroke:#000000;stroke-width:0.3;" y1="-16.625" y2="-14.875"/>
  <line x2="55.725" x1="57.6" style="fill:none;stroke:#000000;stroke-width:0.3;" y1="-3.187" y2="-4.812"/>
  <line x2="49.263" x1="51.138" style="fill:none;stroke:#000000;stroke-width:0.3;" y1="-7.125" y2="-8.75"/>
  <line x2="53.325" x1="54.45" style="fill:none;stroke:#000000;stroke-width:0.3;" y1="-8.812" y2="-7.062"/>
 </g>
</svg>
