<?xml version="1.0"?>
<!-- Converted with SVG Converter - Version 0.9.5 (Compiled Fri Feb 21 09:53:38 2020) - Copyright (C) 2011 Nokia -->
<svg xmlns="http://www.w3.org/2000/svg" xml:space="preserve" height="54.125" baseProfile="tiny" viewBox="1.817 -55.725 54.125 54.125" xmlns:xlink="http://www.w3.org/1999/xlink" x="0px" width="54.125" y="0px" version="1.1">
 <g>
  <rect height="54.125" x="1.817" style="fill:none;" width="54.125" y="-55.725"/>
  <line y2="-51.975" y1="-51.975" style="fill:none;stroke:#000000;stroke-width:0.3;" x1="1.817" x2="55.942"/>
  <line y2="-47.8" y1="-47.8" style="fill:none;stroke:#000000;stroke-width:0.3;" x1="1.817" x2="55.942"/>
  <line y2="-43.612" y1="-43.612" style="fill:none;stroke:#000000;stroke-width:0.3;" x1="1.817" x2="55.942"/>
  <line y2="-14" y1="-14" style="fill:none;stroke:#000000;stroke-width:0.3;" x1="1.817" x2="56.004"/>
  <line y2="-10.225" y1="-10.225" style="fill:none;stroke:#000000;stroke-width:0.3;" x1="1.817" x2="55.942"/>
  <line y2="-39.594" y1="-39.594" style="fill:none;stroke:#000000;stroke-width:0.3;" x1="1.817" x2="55.942"/>
  <line y2="-36.312" y1="-36.312" style="fill:none;stroke:#000000;stroke-width:0.3;" x1="1.817" x2="55.942"/>
  <line y2="-32.887" y1="-32.887" style="fill:none;stroke:#000000;stroke-width:0.3;" x1="1.817" x2="55.942"/>
  <line y2="-28.837" y1="-28.837" style="fill:none;stroke:#000000;stroke-width:0.3;" x1="1.817" x2="55.942"/>
  <line y2="-25.037" y1="-25.037" style="fill:none;stroke:#000000;stroke-width:0.3;" x1="1.817" x2="55.942"/>
  <line y2="-20.837" y1="-20.837" style="fill:none;stroke:#000000;stroke-width:0.3;" x1="1.817" x2="56.004"/>
  <line y2="-17.612" y1="-17.612" style="fill:none;stroke:#000000;stroke-width:0.3;" x1="1.817" x2="55.942"/>
  <line y2="-2.437" y1="-2.437" style="fill:none;stroke:#000000;stroke-width:0.3;" x1="1.817" x2="55.942"/>
  <line y2="-51.975" y1="-55.725" style="fill:none;stroke:#000000;stroke-width:0.3;" x1="7.742" x2="7.742"/>
  <line y2="-51.975" y1="-55.725" style="fill:none;stroke:#000000;stroke-width:0.3;" x1="20.492" x2="20.492"/>
  <line y2="-51.975" y1="-55.725" style="fill:none;stroke:#000000;stroke-width:0.3;" x1="33.992" x2="33.992"/>
  <line y2="-51.975" y1="-55.725" style="fill:none;stroke:#000000;stroke-width:0.3;" x1="48.367" x2="48.367"/>
  <line y2="-1.6" y1="-2.45" style="fill:none;stroke:#000000;stroke-width:0.3;" x1="7.742" x2="7.742"/>
  <line y2="-1.6" y1="-2.45" style="fill:none;stroke:#000000;stroke-width:0.3;" x1="20.492" x2="20.492"/>
  <line y2="-1.6" y1="-2.45" style="fill:none;stroke:#000000;stroke-width:0.3;" x1="33.992" x2="33.992"/>
  <line y2="-1.6" y1="-2.45" style="fill:none;stroke:#000000;stroke-width:0.3;" x1="48.367" x2="48.367"/>
  <line y2="-47.812" y1="-52.037" style="fill:none;stroke:#000000;stroke-width:0.3;" x1="14.417" x2="14.417"/>
  <line y2="-47.812" y1="-52.037" style="fill:none;stroke:#000000;stroke-width:0.3;" x1="29.292" x2="29.292"/>
  <line y2="-47.812" y1="-52.037" style="fill:none;stroke:#000000;stroke-width:0.3;" x1="42.917" x2="42.917"/>
  <line y2="-47.812" y1="-52.037" style="fill:none;stroke:#000000;stroke-width:0.3;" x1="55.742" x2="55.742"/>
  <line y2="-43.625" y1="-47.675" style="fill:none;stroke:#000000;stroke-width:0.3;" x1="8.854" x2="8.854"/>
  <line y2="-43.625" y1="-47.675" style="fill:none;stroke:#000000;stroke-width:0.3;" x1="22.104" x2="22.104"/>
  <line y2="-43.625" y1="-47.675" style="fill:none;stroke:#000000;stroke-width:0.3;" x1="35.667" x2="35.667"/>
  <line y2="-43.625" y1="-47.675" style="fill:none;stroke:#000000;stroke-width:0.3;" x1="50.604" x2="50.604"/>
  <line y2="-39.625" y1="-43.625" style="fill:none;stroke:#000000;stroke-width:0.3;" x1="41.979" x2="41.979"/>
  <line y2="-39.625" y1="-43.625" style="fill:none;stroke:#000000;stroke-width:0.3;" x1="28.604" x2="28.604"/>
  <line y2="-39.625" y1="-43.625" style="fill:none;stroke:#000000;stroke-width:0.3;" x1="13.729" x2="13.729"/>
  <line y2="-39.625" y1="-43.625" style="fill:none;stroke:#000000;stroke-width:0.3;" x1="55.229" x2="55.229"/>
  <line y2="-36.325" y1="-39.625" style="fill:none;stroke:#000000;stroke-width:0.3;" x1="48.367" x2="48.367"/>
  <line y2="-36.325" y1="-39.625" style="fill:none;stroke:#000000;stroke-width:0.3;" x1="33.742" x2="33.742"/>
  <line y2="-36.325" y1="-39.625" style="fill:none;stroke:#000000;stroke-width:0.3;" x1="20.492" x2="20.492"/>
  <line y2="-36.325" y1="-39.625" style="fill:none;stroke:#000000;stroke-width:0.3;" x1="7.742" x2="7.742"/>
  <line y2="-32.9" y1="-36.325" style="fill:none;stroke:#000000;stroke-width:0.3;" x1="14.292" x2="14.292"/>
  <line y2="-32.9" y1="-36.325" style="fill:none;stroke:#000000;stroke-width:0.3;" x1="29.292" x2="29.292"/>
  <line y2="-32.9" y1="-36.325" style="fill:none;stroke:#000000;stroke-width:0.3;" x1="43.042" x2="43.042"/>
  <line y2="-32.9" y1="-36.325" style="fill:none;stroke:#000000;stroke-width:0.3;" x1="55.792" x2="55.792"/>
  <line y2="-28.85" y1="-32.9" style="fill:none;stroke:#000000;stroke-width:0.3;" x1="8.479" x2="8.479"/>
  <line y2="-28.85" y1="-32.9" style="fill:none;stroke:#000000;stroke-width:0.3;" x1="21.979" x2="21.979"/>
  <line y2="-28.85" y1="-32.9" style="fill:none;stroke:#000000;stroke-width:0.3;" x1="35.604" x2="35.604"/>
  <line y2="-28.85" y1="-32.9" style="fill:none;stroke:#000000;stroke-width:0.3;" x1="50.479" x2="50.479"/>
  <line y2="-25.05" y1="-28.787" style="fill:none;stroke:#000000;stroke-width:0.3;" x1="41.854" x2="41.854"/>
  <line y2="-25.05" y1="-28.787" style="fill:none;stroke:#000000;stroke-width:0.3;" x1="28.529" x2="28.529"/>
  <line y2="-25.05" y1="-28.787" style="fill:none;stroke:#000000;stroke-width:0.3;" x1="13.529" x2="13.529"/>
  <line y2="-25.05" y1="-28.787" style="fill:none;stroke:#000000;stroke-width:0.3;" x1="55.083" x2="55.083"/>
  <line y2="-20.85" y1="-24.987" style="fill:none;stroke:#000000;stroke-width:0.3;" x1="7.342" x2="7.342"/>
  <line y2="-20.85" y1="-24.987" style="fill:none;stroke:#000000;stroke-width:0.3;" x1="20.342" x2="20.342"/>
  <line y2="-20.85" y1="-24.987" style="fill:none;stroke:#000000;stroke-width:0.3;" x1="33.967" x2="33.967"/>
  <line y2="-20.85" y1="-24.987" style="fill:none;stroke:#000000;stroke-width:0.3;" x1="48.217" x2="48.217"/>
  <line y2="-17.625" y1="-20.787" style="fill:none;stroke:#000000;stroke-width:0.3;" x1="44.017" x2="44.017"/>
  <line y2="-17.625" y1="-20.787" style="fill:none;stroke:#000000;stroke-width:0.3;" x1="29.867" x2="29.867"/>
  <line y2="-17.625" y1="-20.787" style="fill:none;stroke:#000000;stroke-width:0.3;" x1="14.742" x2="14.742"/>
  <line y2="-17.625" y1="-20.787" style="fill:none;stroke:#000000;stroke-width:0.3;" x1="2.325" x2="2.325"/>
  <line y2="-14" y1="-17.562" style="fill:none;stroke:#000000;stroke-width:0.3;" x1="8.7" x2="8.7"/>
  <line y2="-14" y1="-17.562" style="fill:none;stroke:#000000;stroke-width:0.3;" x1="21.95" x2="21.95"/>
  <line y2="-14" y1="-17.562" style="fill:none;stroke:#000000;stroke-width:0.3;" x1="35.575" x2="35.575"/>
  <line y2="-14" y1="-17.562" style="fill:none;stroke:#000000;stroke-width:0.3;" x1="50.45" x2="50.45"/>
  <line y2="-10.187" y1="-13.95" style="fill:none;stroke:#000000;stroke-width:0.3;" x1="42.1" x2="42.1"/>
  <line y2="-10.187" y1="-13.95" style="fill:none;stroke:#000000;stroke-width:0.3;" x1="28.225" x2="28.225"/>
  <line y2="-10.187" y1="-13.95" style="fill:none;stroke:#000000;stroke-width:0.3;" x1="13.675" x2="13.675"/>
  <line y2="-10.187" y1="-13.95" style="fill:none;stroke:#000000;stroke-width:0.3;" x1="55.55" x2="55.55"/>
  <line y2="-5.812" y1="-5.812" style="fill:none;stroke:#000000;stroke-width:0.3;" x1="1.817" x2="55.942"/>
  <line y2="-2.375" y1="-5.838" style="fill:none;stroke:#000000;stroke-width:0.3;" x1="12.113" x2="12.113"/>
  <line y2="-2.375" y1="-5.838" style="fill:none;stroke:#000000;stroke-width:0.3;" x1="26.55" x2="26.55"/>
  <line y2="-2.375" y1="-5.838" style="fill:none;stroke:#000000;stroke-width:0.3;" x1="40.175" x2="40.175"/>
  <line y2="-2.375" y1="-5.838" style="fill:none;stroke:#000000;stroke-width:0.3;" x1="53.55" x2="53.55"/>
  <line y2="-5.838" y1="-10.187" style="fill:none;stroke:#000000;stroke-width:0.3;" x1="6.387" x2="6.387"/>
  <line y2="-5.838" y1="-10.187" style="fill:none;stroke:#000000;stroke-width:0.3;" x1="19.388" x2="19.388"/>
  <line y2="-5.838" y1="-10.187" style="fill:none;stroke:#000000;stroke-width:0.3;" x1="33.388" x2="33.388"/>
  <line y2="-5.838" y1="-10.187" style="fill:none;stroke:#000000;stroke-width:0.3;" x1="47.95" x2="47.95"/>
  <line y2="-54.892" y1="-54.892" style="fill:none;stroke:#000000;stroke-width:0.7;stroke-linecap:round;" x1="9.15" x2="9.15"/>
  <line y2="-53.058" y1="-53.058" style="fill:none;stroke:#000000;stroke-width:0.7;stroke-linecap:round;" x1="11.567" x2="11.567"/>
  <line y2="-54.975" y1="-54.975" style="fill:none;stroke:#000000;stroke-width:0.7;stroke-linecap:round;" x1="15.067" x2="15.067"/>
  <line y2="-53.142" y1="-53.142" style="fill:none;stroke:#000000;stroke-width:0.7;stroke-linecap:round;" x1="18.483" x2="18.483"/>
  <line y2="-54.642" y1="-54.642" style="fill:none;stroke:#000000;stroke-width:0.7;stroke-linecap:round;" x1="22.067" x2="22.067"/>
  <line y2="-53.058" y1="-53.058" style="fill:none;stroke:#000000;stroke-width:0.7;stroke-linecap:round;" x1="24.483" x2="24.483"/>
  <line y2="-54.725" y1="-54.725" style="fill:none;stroke:#000000;stroke-width:0.7;stroke-linecap:round;" x1="27.9" x2="27.9"/>
  <line y2="-52.808" y1="-52.808" style="fill:none;stroke:#000000;stroke-width:0.7;stroke-linecap:round;" x1="31.483" x2="31.483"/>
  <line y2="-49.1" y1="-49.1" style="fill:none;stroke:#000000;stroke-width:0.7;stroke-linecap:round;" x1="19.192" x2="19.192"/>
  <line y2="-50.642" y1="-50.642" style="fill:none;stroke:#000000;stroke-width:0.7;stroke-linecap:round;" x1="16.067" x2="16.067"/>
  <line y2="-48.808" y1="-48.808" style="fill:none;stroke:#000000;stroke-width:0.7;stroke-linecap:round;" x1="11.817" x2="11.817"/>
  <line y2="-50.725" y1="-50.725" style="fill:none;stroke:#000000;stroke-width:0.7;stroke-linecap:round;" x1="9.15" x2="9.15"/>
  <line y2="-49.1" y1="-49.1" style="fill:none;stroke:#000000;stroke-width:0.7;stroke-linecap:round;" x1="6.067" x2="6.067"/>
  <line y2="-50.725" y1="-50.725" style="fill:none;stroke:#000000;stroke-width:0.7;stroke-linecap:round;" x1="3.233" x2="3.233"/>
  <line y2="-52.725" y1="-52.725" style="fill:none;stroke:#000000;stroke-width:0.7;stroke-linecap:round;" x1="5.317" x2="5.317"/>
  <line y2="-54.725" y1="-54.725" style="fill:none;stroke:#000000;stroke-width:0.7;stroke-linecap:round;" x1="2.65" x2="2.65"/>
  <line y2="-50.725" y1="-50.725" style="fill:none;stroke:#000000;stroke-width:0.7;stroke-linecap:round;" x1="22.567" x2="22.567"/>
  <line y2="-49.1" y1="-49.1" style="fill:none;stroke:#000000;stroke-width:0.7;stroke-linecap:round;" x1="27.067" x2="27.067"/>
  <line y2="-50.808" y1="-50.808" style="fill:none;stroke:#000000;stroke-width:0.7;stroke-linecap:round;" x1="31.15" x2="31.15"/>
  <line y2="-48.975" y1="-48.975" style="fill:none;stroke:#000000;stroke-width:0.7;stroke-linecap:round;" x1="33.817" x2="33.817"/>
  <line y2="-50.35" y1="-50.35" style="fill:none;stroke:#000000;stroke-width:0.7;stroke-linecap:round;" x1="37.942" x2="37.942"/>
  <line y2="-48.808" y1="-48.808" style="fill:none;stroke:#000000;stroke-width:0.7;stroke-linecap:round;" x1="40.983" x2="40.983"/>
  <line y2="-50.475" y1="-50.475" style="fill:none;stroke:#000000;stroke-width:0.7;stroke-linecap:round;" x1="44.692" x2="44.692"/>
  <line y2="-49.1" y1="-49.1" style="fill:none;stroke:#000000;stroke-width:0.7;stroke-linecap:round;" x1="47.942" x2="47.942"/>
  <line y2="-50.725" y1="-50.725" style="fill:none;stroke:#000000;stroke-width:0.7;stroke-linecap:round;" x1="50.942" x2="50.942"/>
  <line y2="-49.225" y1="-49.225" style="fill:none;stroke:#000000;stroke-width:0.7;stroke-linecap:round;" x1="54.317" x2="54.317"/>
  <line y2="-46.725" y1="-46.725" style="fill:none;stroke:#000000;stroke-width:0.7;stroke-linecap:round;" x1="52.233" x2="52.233"/>
  <line y2="-44.725" y1="-44.725" style="fill:none;stroke:#000000;stroke-width:0.7;stroke-linecap:round;" x1="54.983" x2="54.983"/>
  <line y2="-46.975" y1="-46.975" style="fill:none;stroke:#000000;stroke-width:0.7;stroke-linecap:round;" x1="3.483" x2="3.483"/>
  <line y2="-44.642" y1="-44.642" style="fill:none;stroke:#000000;stroke-width:0.7;stroke-linecap:round;" x1="6.4" x2="6.4"/>
  <line y2="-46.725" y1="-46.725" style="fill:none;stroke:#000000;stroke-width:0.7;stroke-linecap:round;" x1="10.567" x2="10.567"/>
  <line y2="-44.85" y1="-44.85" style="fill:none;stroke:#000000;stroke-width:0.7;stroke-linecap:round;" x1="14.192" x2="14.192"/>
  <line y2="-46.6" y1="-46.6" style="fill:none;stroke:#000000;stroke-width:0.7;stroke-linecap:round;" x1="17.692" x2="17.692"/>
  <line y2="-44.558" y1="-44.558" style="fill:none;stroke:#000000;stroke-width:0.7;stroke-linecap:round;" x1="20.15" x2="20.15"/>
  <line y2="-46.892" y1="-46.892" style="fill:none;stroke:#000000;stroke-width:0.7;stroke-linecap:round;" x1="23.983" x2="23.983"/>
  <line y2="-45.1" y1="-45.1" style="fill:none;stroke:#000000;stroke-width:0.7;stroke-linecap:round;" x1="26.942" x2="26.942"/>
  <line y2="-46.892" y1="-46.892" style="fill:none;stroke:#000000;stroke-width:0.7;stroke-linecap:round;" x1="30.067" x2="30.067"/>
  <line y2="-45.225" y1="-45.225" style="fill:none;stroke:#000000;stroke-width:0.7;stroke-linecap:round;" x1="33.067" x2="33.067"/>
  <line y2="-46.475" y1="-46.475" style="fill:none;stroke:#000000;stroke-width:0.7;stroke-linecap:round;" x1="36.942" x2="36.942"/>
  <line y2="-44.975" y1="-44.975" style="fill:none;stroke:#000000;stroke-width:0.7;stroke-linecap:round;" x1="40.442" x2="40.442"/>
  <line y2="-46.6" y1="-46.6" style="fill:none;stroke:#000000;stroke-width:0.7;stroke-linecap:round;" x1="44.067" x2="44.067"/>
  <line y2="-44.85" y1="-44.85" style="fill:none;stroke:#000000;stroke-width:0.7;stroke-linecap:round;" x1="48.067" x2="48.067"/>
  <line y2="-40.85" y1="-40.85" style="fill:none;stroke:#000000;stroke-width:0.7;stroke-linecap:round;" x1="6.192" x2="6.192"/>
  <line y2="-42.1" y1="-42.1" style="fill:none;stroke:#000000;stroke-width:0.7;stroke-linecap:round;" x1="3.192" x2="3.192"/>
  <line y2="-42.225" y1="-42.225" style="fill:none;stroke:#000000;stroke-width:0.7;stroke-linecap:round;" x1="9.442" x2="9.442"/>
  <line y2="-40.642" y1="-40.642" style="fill:none;stroke:#000000;stroke-width:0.7;stroke-linecap:round;" x1="11.9" x2="11.9"/>
  <line y2="-42.225" y1="-42.225" style="fill:none;stroke:#000000;stroke-width:0.7;stroke-linecap:round;" x1="15.317" x2="15.317"/>
  <line y2="-40.85" y1="-40.85" style="fill:none;stroke:#000000;stroke-width:0.7;stroke-linecap:round;" x1="18.567" x2="18.567"/>
  <line y2="-42.642" y1="-42.642" style="fill:none;stroke:#000000;stroke-width:0.7;stroke-linecap:round;" x1="22.317" x2="22.317"/>
  <line y2="-40.642" y1="-40.642" style="fill:none;stroke:#000000;stroke-width:0.7;stroke-linecap:round;" x1="25.233" x2="25.233"/>
  <line y2="-42.35" y1="-42.35" style="fill:none;stroke:#000000;stroke-width:0.7;stroke-linecap:round;" x1="30.067" x2="30.067"/>
  <line y2="-40.975" y1="-40.975" style="fill:none;stroke:#000000;stroke-width:0.7;stroke-linecap:round;" x1="33.067" x2="33.067"/>
  <line y2="-42.642" y1="-42.642" style="fill:none;stroke:#000000;stroke-width:0.7;stroke-linecap:round;" x1="36.733" x2="36.733"/>
  <line y2="-40.975" y1="-40.975" style="fill:none;stroke:#000000;stroke-width:0.7;stroke-linecap:round;" x1="39.817" x2="39.817"/>
  <line y2="-42.558" y1="-42.558" style="fill:none;stroke:#000000;stroke-width:0.7;stroke-linecap:round;" x1="43.9" x2="43.9"/>
  <line y2="-40.975" y1="-40.975" style="fill:none;stroke:#000000;stroke-width:0.7;stroke-linecap:round;" x1="46.942" x2="46.942"/>
  <line y2="-42.558" y1="-42.558" style="fill:none;stroke:#000000;stroke-width:0.7;stroke-linecap:round;" x1="50.15" x2="50.15"/>
  <line y2="-40.85" y1="-40.85" style="fill:none;stroke:#000000;stroke-width:0.7;stroke-linecap:round;" x1="53.692" x2="53.692"/>
  <line y2="-38.6" y1="-38.6" style="fill:none;stroke:#000000;stroke-width:0.7;stroke-linecap:round;" x1="50.817" x2="50.817"/>
  <line y2="-37.225" y1="-37.225" style="fill:none;stroke:#000000;stroke-width:0.7;stroke-linecap:round;" x1="46.65" x2="46.65"/>
  <line y2="-38.475" y1="-38.475" style="fill:none;stroke:#000000;stroke-width:0.7;stroke-linecap:round;" x1="41.567" x2="41.567"/>
  <line y2="-38.1" y1="-38.1" style="fill:none;stroke:#000000;stroke-width:0.7;stroke-linecap:round;" x1="36.692" x2="36.692"/>
  <line y2="-38.35" y1="-38.35" style="fill:none;stroke:#000000;stroke-width:0.7;stroke-linecap:round;" x1="31.442" x2="31.442"/>
  <line y2="-37.725" y1="-37.725" style="fill:none;stroke:#000000;stroke-width:0.7;stroke-linecap:round;" x1="26.942" x2="26.942"/>
  <line y2="-38.558" y1="-38.558" style="fill:none;stroke:#000000;stroke-width:0.7;stroke-linecap:round;" x1="22.4" x2="22.4"/>
  <line y2="-37.475" y1="-37.475" style="fill:none;stroke:#000000;stroke-width:0.7;stroke-linecap:round;" x1="18.442" x2="18.442"/>
  <line y2="-38.225" y1="-38.225" style="fill:none;stroke:#000000;stroke-width:0.7;stroke-linecap:round;" x1="14.067" x2="14.067"/>
  <line y2="-37.6" y1="-37.6" style="fill:none;stroke:#000000;stroke-width:0.7;stroke-linecap:round;" x1="10.067" x2="10.067"/>
  <line y2="-37.85" y1="-37.85" style="fill:none;stroke:#000000;stroke-width:0.7;stroke-linecap:round;" x1="5.567" x2="5.567"/>
  <line y2="-37.475" y1="-37.475" style="fill:none;stroke:#000000;stroke-width:0.7;stroke-linecap:round;" x1="54.692" x2="54.692"/>
  <line y2="-35.35" y1="-35.35" style="fill:none;stroke:#000000;stroke-width:0.7;stroke-linecap:round;" x1="2.442" x2="2.442"/>
  <line y2="-35.058" y1="-35.058" style="fill:none;stroke:#000000;stroke-width:0.7;stroke-linecap:round;" x1="7.15" x2="7.15"/>
  <line y2="-33.975" y1="-33.975" style="fill:none;stroke:#000000;stroke-width:0.7;stroke-linecap:round;" x1="12.067" x2="12.067"/>
  <line y2="-34.725" y1="-34.725" style="fill:none;stroke:#000000;stroke-width:0.7;stroke-linecap:round;" x1="16.483" x2="16.483"/>
  <line y2="-34.058" y1="-34.058" style="fill:none;stroke:#000000;stroke-width:0.7;stroke-linecap:round;" x1="21.483" x2="21.483"/>
  <line y2="-35.058" y1="-35.058" style="fill:none;stroke:#000000;stroke-width:0.7;stroke-linecap:round;" x1="25.983" x2="25.983"/>
  <line y2="-34.892" y1="-34.892" style="fill:none;stroke:#000000;stroke-width:0.7;stroke-linecap:round;" x1="32.15" x2="32.15"/>
  <line y2="-35.225" y1="-35.225" style="fill:none;stroke:#000000;stroke-width:0.7;stroke-linecap:round;" x1="36.483" x2="36.483"/>
  <line y2="-34.392" y1="-34.392" style="fill:none;stroke:#000000;stroke-width:0.7;stroke-linecap:round;" x1="40.65" x2="40.65"/>
  <line y2="-34.725" y1="-34.725" style="fill:none;stroke:#000000;stroke-width:0.7;stroke-linecap:round;" x1="44.983" x2="44.983"/>
  <line y2="-35.058" y1="-35.058" style="fill:none;stroke:#000000;stroke-width:0.7;stroke-linecap:round;" x1="49.15" x2="49.15"/>
  <line y2="-34.725" y1="-34.725" style="fill:none;stroke:#000000;stroke-width:0.7;stroke-linecap:round;" x1="53.817" x2="53.817"/>
  <line y2="-31.892" y1="-31.892" style="fill:none;stroke:#000000;stroke-width:0.7;stroke-linecap:round;" x1="51.567" x2="51.567"/>
  <line y2="-29.975" y1="-29.975" style="fill:none;stroke:#000000;stroke-width:0.7;stroke-linecap:round;" x1="54.567" x2="54.567"/>
  <line y2="-29.892" y1="-29.892" style="fill:none;stroke:#000000;stroke-width:0.7;stroke-linecap:round;" x1="48.733" x2="48.733"/>
  <line y2="-27.892" y1="-27.892" style="fill:none;stroke:#000000;stroke-width:0.7;stroke-linecap:round;" x1="43.567" x2="43.567"/>
  <line y2="-26.058" y1="-26.058" style="fill:none;stroke:#000000;stroke-width:0.7;stroke-linecap:round;" x1="46.317" x2="46.317"/>
  <line y2="-27.892" y1="-27.892" style="fill:none;stroke:#000000;stroke-width:0.7;stroke-linecap:round;" x1="49.733" x2="49.733"/>
  <line y2="-26.142" y1="-26.142" style="fill:none;stroke:#000000;stroke-width:0.7;stroke-linecap:round;" x1="52.9" x2="52.9"/>
  <line y2="-23.975" y1="-23.975" style="fill:none;stroke:#000000;stroke-width:0.7;stroke-linecap:round;" x1="49.65" x2="49.65"/>
  <line y2="-22.35" y1="-22.35" style="fill:none;stroke:#000000;stroke-width:0.7;stroke-linecap:round;" x1="52.692" x2="52.692"/>
  <line y2="-22.225" y1="-22.225" style="fill:none;stroke:#000000;stroke-width:0.7;stroke-linecap:round;" x1="46.317" x2="46.317"/>
  <line y2="-23.975" y1="-23.975" style="fill:none;stroke:#000000;stroke-width:0.7;stroke-linecap:round;" x1="43.067" x2="43.067"/>
  <line y2="-11.725" y1="-11.725" style="fill:none;stroke:#000000;stroke-width:0.7;stroke-linecap:round;" x1="3.15" x2="3.15"/>
  <line y2="-12.558" y1="-12.558" style="fill:none;stroke:#000000;stroke-width:0.7;stroke-linecap:round;" x1="8.317" x2="8.317"/>
  <line y2="-11.142" y1="-11.142" style="fill:none;stroke:#000000;stroke-width:0.7;stroke-linecap:round;" x1="11.9" x2="11.9"/>
  <line y2="-13.142" y1="-13.142" style="fill:none;stroke:#000000;stroke-width:0.7;stroke-linecap:round;" x1="15.4" x2="15.4"/>
  <line y2="-11.225" y1="-11.225" style="fill:none;stroke:#000000;stroke-width:0.7;stroke-linecap:round;" x1="18.4" x2="18.4"/>
  <line y2="-13.058" y1="-13.058" style="fill:none;stroke:#000000;stroke-width:0.7;stroke-linecap:round;" x1="22.4" x2="22.4"/>
  <line y2="-11.475" y1="-11.475" style="fill:none;stroke:#000000;stroke-width:0.7;stroke-linecap:round;" x1="25.692" x2="25.692"/>
  <line y2="-13.058" y1="-13.058" style="fill:none;stroke:#000000;stroke-width:0.7;stroke-linecap:round;" x1="30.15" x2="30.15"/>
  <line y2="-11.475" y1="-11.475" style="fill:none;stroke:#000000;stroke-width:0.7;stroke-linecap:round;" x1="32.567" x2="32.567"/>
  <line y2="-13.225" y1="-13.225" style="fill:none;stroke:#000000;stroke-width:0.7;stroke-linecap:round;" x1="37.067" x2="37.067"/>
  <line y2="-11.6" y1="-11.6" style="fill:none;stroke:#000000;stroke-width:0.7;stroke-linecap:round;" x1="39.942" x2="39.942"/>
  <line y2="-13.142" y1="-13.142" style="fill:none;stroke:#000000;stroke-width:0.7;stroke-linecap:round;" x1="44.067" x2="44.067"/>
  <line y2="-11.35" y1="-11.35" style="fill:none;stroke:#000000;stroke-width:0.7;stroke-linecap:round;" x1="47.067" x2="47.067"/>
  <line y2="-13.142" y1="-13.142" style="fill:none;stroke:#000000;stroke-width:0.7;stroke-linecap:round;" x1="50.65" x2="50.65"/>
  <line y2="-11.225" y1="-11.225" style="fill:none;stroke:#000000;stroke-width:0.7;stroke-linecap:round;" x1="53.733" x2="53.733"/>
  <line y2="-7.225" y1="-7.225" style="fill:none;stroke:#000000;stroke-width:0.7;stroke-linecap:round;" x1="4.192" x2="4.192"/>
  <line y2="-9.225" y1="-9.225" style="fill:none;stroke:#000000;stroke-width:0.7;stroke-linecap:round;" x1="8.317" x2="8.317"/>
  <line y2="-7.225" y1="-7.225" style="fill:none;stroke:#000000;stroke-width:0.7;stroke-linecap:round;" x1="11.192" x2="11.192"/>
  <line y2="-9.475" y1="-9.475" style="fill:none;stroke:#000000;stroke-width:0.7;stroke-linecap:round;" x1="14.483" x2="14.483"/>
  <line y2="-6.975" y1="-6.975" style="fill:none;stroke:#000000;stroke-width:0.7;stroke-linecap:round;" x1="17.233" x2="17.233"/>
  <line y2="-9.308" y1="-9.308" style="fill:none;stroke:#000000;stroke-width:0.7;stroke-linecap:round;" x1="21.067" x2="21.067"/>
  <line y2="-7.1" y1="-7.1" style="fill:none;stroke:#000000;stroke-width:0.7;stroke-linecap:round;" x1="23.942" x2="23.942"/>
  <line y2="-9.225" y1="-9.225" style="fill:none;stroke:#000000;stroke-width:0.7;stroke-linecap:round;" x1="27.9" x2="27.9"/>
  <line y2="-7.1" y1="-7.1" style="fill:none;stroke:#000000;stroke-width:0.7;stroke-linecap:round;" x1="31.317" x2="31.317"/>
  <line y2="-9.142" y1="-9.142" style="fill:none;stroke:#000000;stroke-width:0.7;stroke-linecap:round;" x1="35.4" x2="35.4"/>
  <line y2="-7.1" y1="-7.1" style="fill:none;stroke:#000000;stroke-width:0.7;stroke-linecap:round;" x1="38.567" x2="38.567"/>
  <line y2="-9.142" y1="-9.142" style="fill:none;stroke:#000000;stroke-width:0.7;stroke-linecap:round;" x1="42.483" x2="42.483"/>
  <line y2="-7.35" y1="-7.35" style="fill:none;stroke:#000000;stroke-width:0.7;stroke-linecap:round;" x1="46.067" x2="46.067"/>
  <line y2="-9.142" y1="-9.142" style="fill:none;stroke:#000000;stroke-width:0.7;stroke-linecap:round;" x1="50.15" x2="50.15"/>
  <line y2="-6.808" y1="-6.808" style="fill:none;stroke:#000000;stroke-width:0.7;stroke-linecap:round;" x1="53.233" x2="53.233"/>
  <line y2="-4.85" y1="-4.85" style="fill:none;stroke:#000000;stroke-width:0.7;stroke-linecap:round;" x1="54.567" x2="54.567"/>
  <line y2="-3.6" y1="-3.6" style="fill:none;stroke:#000000;stroke-width:0.7;stroke-linecap:round;" x1="2.942" x2="2.942"/>
  <line y2="-5.058" y1="-5.058" style="fill:none;stroke:#000000;stroke-width:0.7;stroke-linecap:round;" x1="7.233" x2="7.233"/>
  <line y2="-3.892" y1="-3.892" style="fill:none;stroke:#000000;stroke-width:0.7;stroke-linecap:round;" x1="10.317" x2="10.317"/>
  <line y2="-4.558" y1="-4.558" style="fill:none;stroke:#000000;stroke-width:0.7;stroke-linecap:round;" x1="14.317" x2="14.317"/>
  <line y2="-4.558" y1="-4.558" style="fill:none;stroke:#000000;stroke-width:0.7;stroke-linecap:round;" x1="19.983" x2="19.983"/>
  <line y2="-3.725" y1="-3.725" style="fill:none;stroke:#000000;stroke-width:0.7;stroke-linecap:round;" x1="24.817" x2="24.817"/>
  <line y2="-4.725" y1="-4.725" style="fill:none;stroke:#000000;stroke-width:0.7;stroke-linecap:round;" x1="27.942" x2="27.942"/>
  <line y2="-3.475" y1="-3.475" style="fill:none;stroke:#000000;stroke-width:0.7;stroke-linecap:round;" x1="31.317" x2="31.317"/>
  <line y2="-4.85" y1="-4.85" style="fill:none;stroke:#000000;stroke-width:0.7;stroke-linecap:round;" x1="35.067" x2="35.067"/>
  <line y2="-3.6" y1="-3.6" style="fill:none;stroke:#000000;stroke-width:0.7;stroke-linecap:round;" x1="38.317" x2="38.317"/>
  <line y2="-4.85" y1="-4.85" style="fill:none;stroke:#000000;stroke-width:0.7;stroke-linecap:round;" x1="42.192" x2="42.192"/>
  <line y2="-3.892" y1="-3.892" style="fill:none;stroke:#000000;stroke-width:0.7;stroke-linecap:round;" x1="46.483" x2="46.483"/>
  <line y2="-4.225" y1="-4.225" style="fill:none;stroke:#000000;stroke-width:0.7;stroke-linecap:round;" x1="50.817" x2="50.817"/>
  <line y2="-19.1" y1="-19.1" style="fill:none;stroke:#000000;stroke-width:0.7;stroke-linecap:round;" x1="46.692" x2="46.692"/>
  <line y2="-19.725" y1="-19.725" style="fill:none;stroke:#000000;stroke-width:0.7;stroke-linecap:round;" x1="50.567" x2="50.567"/>
  <line y2="-19.1" y1="-19.1" style="fill:none;stroke:#000000;stroke-width:0.7;stroke-linecap:round;" x1="54.442" x2="54.442"/>
  <line y2="-19.1" y1="-19.1" style="fill:none;stroke:#000000;stroke-width:0.7;stroke-linecap:round;" x1="41.692" x2="41.692"/>
  <line y2="-19.85" y1="-19.85" style="fill:none;stroke:#000000;stroke-width:0.7;stroke-linecap:round;" x1="36.817" x2="36.817"/>
  <line y2="-19.1" y1="-19.1" style="fill:none;stroke:#000000;stroke-width:0.7;stroke-linecap:round;" x1="31.817" x2="31.817"/>
  <line y2="-22.225" y1="-22.225" style="fill:none;stroke:#000000;stroke-width:0.7;stroke-linecap:round;" x1="31.567" x2="31.567"/>
  <line y2="-22.1" y1="-22.1" style="fill:none;stroke:#000000;stroke-width:0.7;stroke-linecap:round;" x1="25.067" x2="25.067"/>
  <line y2="-23.892" y1="-23.892" style="fill:none;stroke:#000000;stroke-width:0.7;stroke-linecap:round;" x1="28.317" x2="28.317"/>
  <line y2="-23.892" y1="-23.892" style="fill:none;stroke:#000000;stroke-width:0.7;stroke-linecap:round;" x1="22.233" x2="22.233"/>
  <line y2="-22.225" y1="-22.225" style="fill:none;stroke:#000000;stroke-width:0.7;stroke-linecap:round;" x1="18.442" x2="18.442"/>
  <line y2="-23.892" y1="-23.892" style="fill:none;stroke:#000000;stroke-width:0.7;stroke-linecap:round;" x1="15.4" x2="15.4"/>
  <line y2="-21.808" y1="-21.808" style="fill:none;stroke:#000000;stroke-width:0.7;stroke-linecap:round;" x1="12.4" x2="12.4"/>
  <line y2="-23.892" y1="-23.892" style="fill:none;stroke:#000000;stroke-width:0.7;stroke-linecap:round;" x1="9.233" x2="9.233"/>
  <line y2="-22.058" y1="-22.058" style="fill:none;stroke:#000000;stroke-width:0.7;stroke-linecap:round;" x1="5.233" x2="5.233"/>
  <line y2="-24.058" y1="-24.058" style="fill:none;stroke:#000000;stroke-width:0.7;stroke-linecap:round;" x1="2.4" x2="2.4"/>
  <line y2="-19.1" y1="-19.1" style="fill:none;stroke:#000000;stroke-width:0.7;stroke-linecap:round;" x1="3.692" x2="3.692"/>
  <line y2="-19.725" y1="-19.725" style="fill:none;stroke:#000000;stroke-width:0.7;stroke-linecap:round;" x1="7.817" x2="7.817"/>
  <line y2="-15.392" y1="-15.392" style="fill:none;stroke:#000000;stroke-width:0.7;stroke-linecap:round;" x1="7.317" x2="7.317"/>
  <line y2="-16.475" y1="-16.475" style="fill:none;stroke:#000000;stroke-width:0.7;stroke-linecap:round;" x1="4.067" x2="4.067"/>
  <line y2="-16.308" y1="-16.308" style="fill:none;stroke:#000000;stroke-width:0.7;stroke-linecap:round;" x1="51.733" x2="51.733"/>
  <line y2="-15.35" y1="-15.35" style="fill:none;stroke:#000000;stroke-width:0.7;stroke-linecap:round;" x1="48.567" x2="48.567"/>
  <line y2="-15.725" y1="-15.725" style="fill:none;stroke:#000000;stroke-width:0.7;stroke-linecap:round;" x1="42.65" x2="42.65"/>
  <line y2="-16.6" y1="-16.6" style="fill:none;stroke:#000000;stroke-width:0.7;stroke-linecap:round;" x1="37.192" x2="37.192"/>
  <line y2="-15.392" y1="-15.392" style="fill:none;stroke:#000000;stroke-width:0.7;stroke-linecap:round;" x1="32.817" x2="32.817"/>
  <line y2="-15.558" y1="-15.558" style="fill:none;stroke:#000000;stroke-width:0.7;stroke-linecap:round;" x1="28.15" x2="28.15"/>
  <line y2="-16.725" y1="-16.725" style="fill:none;stroke:#000000;stroke-width:0.7;stroke-linecap:round;" x1="23.817" x2="23.817"/>
  <line y2="-15.35" y1="-15.35" style="fill:none;stroke:#000000;stroke-width:0.7;stroke-linecap:round;" x1="19.692" x2="19.692"/>
  <line y2="-16.225" y1="-16.225" style="fill:none;stroke:#000000;stroke-width:0.7;stroke-linecap:round;" x1="15.317" x2="15.317"/>
  <line y2="-15.892" y1="-15.892" style="fill:none;stroke:#000000;stroke-width:0.7;stroke-linecap:round;" x1="10.317" x2="10.317"/>
  <line y2="-15.6" y1="-15.6" style="fill:none;stroke:#000000;stroke-width:0.7;stroke-linecap:round;" x1="55.192" x2="55.192"/>
  <line y2="-18.6" y1="-18.6" style="fill:none;stroke:#000000;stroke-width:0.7;stroke-linecap:round;" x1="12.317" x2="12.317"/>
  <line y2="-18.975" y1="-18.975" style="fill:none;stroke:#000000;stroke-width:0.7;stroke-linecap:round;" x1="17.567" x2="17.567"/>
  <line y2="-19.225" y1="-19.225" style="fill:none;stroke:#000000;stroke-width:0.7;stroke-linecap:round;" x1="21.942" x2="21.942"/>
  <line y2="-19.725" y1="-19.725" style="fill:none;stroke:#000000;stroke-width:0.7;stroke-linecap:round;" x1="27.192" x2="27.192"/>
  <line y2="-23.808" y1="-23.808" style="fill:none;stroke:#000000;stroke-width:0.7;stroke-linecap:round;" x1="36.233" x2="36.233"/>
  <line y2="-21.892" y1="-21.892" style="fill:none;stroke:#000000;stroke-width:0.7;stroke-linecap:round;" x1="39.317" x2="39.317"/>
  <line y2="-31.642" y1="-31.642" style="fill:none;stroke:#000000;stroke-width:0.7;stroke-linecap:round;" x1="45.317" x2="45.317"/>
  <line y2="-31.558" y1="-31.558" style="fill:none;stroke:#000000;stroke-width:0.7;stroke-linecap:round;" x1="37.233" x2="37.233"/>
  <line y2="-30.142" y1="-30.142" style="fill:none;stroke:#000000;stroke-width:0.7;stroke-linecap:round;" x1="41.733" x2="41.733"/>
  <line y2="-29.975" y1="-29.975" style="fill:none;stroke:#000000;stroke-width:0.7;stroke-linecap:round;" x1="33.067" x2="33.067"/>
  <line y2="-31.558" y1="-31.558" style="fill:none;stroke:#000000;stroke-width:0.7;stroke-linecap:round;" x1="30.483" x2="30.483"/>
  <line y2="-30.1" y1="-30.1" style="fill:none;stroke:#000000;stroke-width:0.7;stroke-linecap:round;" x1="26.692" x2="26.692"/>
  <line y2="-31.558" y1="-31.558" style="fill:none;stroke:#000000;stroke-width:0.7;stroke-linecap:round;" x1="23.9" x2="23.9"/>
  <line y2="-30.225" y1="-30.225" style="fill:none;stroke:#000000;stroke-width:0.7;stroke-linecap:round;" x1="20.317" x2="20.317"/>
  <line y2="-31.808" y1="-31.808" style="fill:none;stroke:#000000;stroke-width:0.7;stroke-linecap:round;" x1="17.733" x2="17.733"/>
  <line y2="-29.892" y1="-29.892" style="fill:none;stroke:#000000;stroke-width:0.7;stroke-linecap:round;" x1="14.15" x2="14.15"/>
  <line y2="-31.475" y1="-31.475" style="fill:none;stroke:#000000;stroke-width:0.7;stroke-linecap:round;" x1="10.317" x2="10.317"/>
  <line y2="-29.975" y1="-29.975" style="fill:none;stroke:#000000;stroke-width:0.7;stroke-linecap:round;" x1="6.567" x2="6.567"/>
  <line y2="-31.6" y1="-31.6" style="fill:none;stroke:#000000;stroke-width:0.7;stroke-linecap:round;" x1="3.192" x2="3.192"/>
  <line y2="-27.725" y1="-27.725" style="fill:none;stroke:#000000;stroke-width:0.7;stroke-linecap:round;" x1="2.692" x2="2.692"/>
  <line y2="-25.642" y1="-25.642" style="fill:none;stroke:#000000;stroke-width:0.7;stroke-linecap:round;" x1="5.317" x2="5.317"/>
  <line y2="-27.642" y1="-27.642" style="fill:none;stroke:#000000;stroke-width:0.7;stroke-linecap:round;" x1="8.483" x2="8.483"/>
  <line y2="-25.975" y1="-25.975" style="fill:none;stroke:#000000;stroke-width:0.7;stroke-linecap:round;" x1="11.65" x2="11.65"/>
  <line y2="-27.892" y1="-27.892" style="fill:none;stroke:#000000;stroke-width:0.7;stroke-linecap:round;" x1="15.483" x2="15.483"/>
  <line y2="-25.975" y1="-25.975" style="fill:none;stroke:#000000;stroke-width:0.7;stroke-linecap:round;" x1="18.483" x2="18.483"/>
  <line y2="-27.808" y1="-27.808" style="fill:none;stroke:#000000;stroke-width:0.7;stroke-linecap:round;" x1="22.067" x2="22.067"/>
  <line y2="-25.975" y1="-25.975" style="fill:none;stroke:#000000;stroke-width:0.7;stroke-linecap:round;" x1="25.733" x2="25.733"/>
  <line y2="-27.642" y1="-27.642" style="fill:none;stroke:#000000;stroke-width:0.7;stroke-linecap:round;" x1="30.233" x2="30.233"/>
  <line y2="-25.892" y1="-25.892" style="fill:none;stroke:#000000;stroke-width:0.7;stroke-linecap:round;" x1="33.567" x2="33.567"/>
  <line y2="-27.725" y1="-27.725" style="fill:none;stroke:#000000;stroke-width:0.7;stroke-linecap:round;" x1="37.733" x2="37.733"/>
  <line y2="-25.975" y1="-25.975" style="fill:none;stroke:#000000;stroke-width:0.7;stroke-linecap:round;" x1="40.15" x2="40.15"/>
  <line y2="-55.058" y1="-55.058" style="fill:none;stroke:#000000;stroke-width:0.7;stroke-linecap:round;" x1="36.4" x2="36.4"/>
  <line y2="-52.642" y1="-52.642" style="fill:none;stroke:#000000;stroke-width:0.7;stroke-linecap:round;" x1="39.733" x2="39.733"/>
  <line y2="-54.725" y1="-54.725" style="fill:none;stroke:#000000;stroke-width:0.7;stroke-linecap:round;" x1="42.983" x2="42.983"/>
  <line y2="-52.808" y1="-52.808" style="fill:none;stroke:#000000;stroke-width:0.7;stroke-linecap:round;" x1="46.233" x2="46.233"/>
  <line y2="-55.058" y1="-55.058" style="fill:none;stroke:#000000;stroke-width:0.7;stroke-linecap:round;" x1="49.983" x2="49.983"/>
  <line y2="-52.808" y1="-52.808" style="fill:none;stroke:#000000;stroke-width:0.7;stroke-linecap:round;" x1="53.15" x2="53.15"/>
 </g>
</svg>
