<?xml version="1.0"?>
<!-- Converted with SVG Converter - Version 0.9.6 (Compiled Thu Aug 31 10:01:05 2017) - Copyright (C) 2011 Nokia -->
<svg xmlns="http://www.w3.org/2000/svg" xmlns:xlink="http://www.w3.org/1999/xlink" x="0px" xml:space="preserve" version="1.1" width="54.242" y="0px" height="54.125" baseProfile="tiny" viewBox="1.6 -55.725 54.242 54.125">
 <g>
  <rect x="1.6" style="fill:none;" width="54.242" y="-55.725" height="54.125"/>
  <line x2="26.996" y1="-54.037" style="fill:none;stroke:#000000;stroke-width:0.7;stroke-linecap:round;" x1="26.996" y2="-54.037"/>
  <line x2="23.879" y1="-54.037" style="fill:none;stroke:#000000;stroke-width:0.7;stroke-linecap:round;" x1="23.879" y2="-54.037"/>
  <line x2="29.746" y1="-54.037" style="fill:none;stroke:#000000;stroke-width:0.7;stroke-linecap:round;" x1="29.746" y2="-54.037"/>
  <line x2="3.546" y1="-54.037" style="fill:none;stroke:#000000;stroke-width:0.7;stroke-linecap:round;" x1="3.546" y2="-54.037"/>
  <line x2="55.046" y1="-54.037" style="fill:none;stroke:#000000;stroke-width:0.7;stroke-linecap:round;" x1="55.046" y2="-54.037"/>
  <line x2="52.713" y1="-54.037" style="fill:none;stroke:#000000;stroke-width:0.7;stroke-linecap:round;" x1="52.713" y2="-54.037"/>
  <line x2="36.046" y1="-49.771" style="fill:none;stroke:#000000;stroke-width:0.7;stroke-linecap:round;" x1="36.046" y2="-49.771"/>
  <line x2="7.713" y1="-49.771" style="fill:none;stroke:#000000;stroke-width:0.7;stroke-linecap:round;" x1="7.713" y2="-49.771"/>
  <line x2="10.646" y1="-49.771" style="fill:none;stroke:#000000;stroke-width:0.7;stroke-linecap:round;" x1="10.646" y2="-49.771"/>
  <line x2="15.379" y1="-45.754" style="fill:none;stroke:#000000;stroke-width:0.7;stroke-linecap:round;" x1="15.379" y2="-45.754"/>
  <line x2="18.379" y1="-45.754" style="fill:none;stroke:#000000;stroke-width:0.7;stroke-linecap:round;" x1="18.379" y2="-45.754"/>
  <line x2="12.212" y1="-45.754" style="fill:none;stroke:#000000;stroke-width:0.7;stroke-linecap:round;" x1="12.212" y2="-45.754"/>
  <line x2="36.213" y1="-34.654" style="fill:none;stroke:#000000;stroke-width:0.7;stroke-linecap:round;" x1="36.213" y2="-34.654"/>
  <line x2="39.213" y1="-34.654" style="fill:none;stroke:#000000;stroke-width:0.7;stroke-linecap:round;" x1="39.213" y2="-34.654"/>
  <line x2="33.046" y1="-34.654" style="fill:none;stroke:#000000;stroke-width:0.7;stroke-linecap:round;" x1="33.046" y2="-34.654"/>
  <line x2="7.713" y1="-34.654" style="fill:none;stroke:#000000;stroke-width:0.7;stroke-linecap:round;" x1="7.713" y2="-34.654"/>
  <line x2="10.712" y1="-34.654" style="fill:none;stroke:#000000;stroke-width:0.7;stroke-linecap:round;" x1="10.712" y2="-34.654"/>
  <line x2="4.546" y1="-34.654" style="fill:none;stroke:#000000;stroke-width:0.7;stroke-linecap:round;" x1="4.546" y2="-34.654"/>
  <line x2="15.212" y1="-30.854" style="fill:none;stroke:#000000;stroke-width:0.7;stroke-linecap:round;" x1="15.212" y2="-30.854"/>
  <line x2="18.212" y1="-30.854" style="fill:none;stroke:#000000;stroke-width:0.7;stroke-linecap:round;" x1="18.212" y2="-30.854"/>
  <line x2="12.046" y1="-30.854" style="fill:none;stroke:#000000;stroke-width:0.7;stroke-linecap:round;" x1="12.046" y2="-30.854"/>
  <line x2="43.046" y1="-30.854" style="fill:none;stroke:#000000;stroke-width:0.7;stroke-linecap:round;" x1="43.046" y2="-30.854"/>
  <line x2="46.046" y1="-30.854" style="fill:none;stroke:#000000;stroke-width:0.7;stroke-linecap:round;" x1="46.046" y2="-30.854"/>
  <line x2="39.879" y1="-30.854" style="fill:none;stroke:#000000;stroke-width:0.7;stroke-linecap:round;" x1="39.879" y2="-30.854"/>
  <line x2="35.213" y1="-26.854" style="fill:none;stroke:#000000;stroke-width:0.7;stroke-linecap:round;" x1="35.213" y2="-26.854"/>
  <line x2="38.213" y1="-26.854" style="fill:none;stroke:#000000;stroke-width:0.7;stroke-linecap:round;" x1="38.213" y2="-26.854"/>
  <line x2="32.046" y1="-26.854" style="fill:none;stroke:#000000;stroke-width:0.7;stroke-linecap:round;" x1="32.046" y2="-26.854"/>
  <line x2="7.046" y1="-26.854" style="fill:none;stroke:#000000;stroke-width:0.7;stroke-linecap:round;" x1="7.046" y2="-26.854"/>
  <line x2="10.046" y1="-26.854" style="fill:none;stroke:#000000;stroke-width:0.7;stroke-linecap:round;" x1="10.046" y2="-26.854"/>
  <line x2="3.879" y1="-26.854" style="fill:none;stroke:#000000;stroke-width:0.7;stroke-linecap:round;" x1="3.879" y2="-26.854"/>
  <line x2="27.212" y1="-22.854" style="fill:none;stroke:#000000;stroke-width:0.7;stroke-linecap:round;" x1="27.212" y2="-22.854"/>
  <line x2="30.212" y1="-22.854" style="fill:none;stroke:#000000;stroke-width:0.7;stroke-linecap:round;" x1="30.212" y2="-22.854"/>
  <line x2="24.046" y1="-22.854" style="fill:none;stroke:#000000;stroke-width:0.7;stroke-linecap:round;" x1="24.046" y2="-22.854"/>
  <line x2="22.546" y1="-19.188" style="fill:none;stroke:#000000;stroke-width:0.7;stroke-linecap:round;" x1="22.546" y2="-19.188"/>
  <line x2="25.546" y1="-19.188" style="fill:none;stroke:#000000;stroke-width:0.7;stroke-linecap:round;" x1="25.546" y2="-19.188"/>
  <line x2="19.379" y1="-19.188" style="fill:none;stroke:#000000;stroke-width:0.7;stroke-linecap:round;" x1="19.379" y2="-19.188"/>
  <line x2="50.379" y1="-19.188" style="fill:none;stroke:#000000;stroke-width:0.7;stroke-linecap:round;" x1="50.379" y2="-19.188"/>
  <line x2="53.379" y1="-19.188" style="fill:none;stroke:#000000;stroke-width:0.7;stroke-linecap:round;" x1="53.379" y2="-19.188"/>
  <line x2="47.213" y1="-19.188" style="fill:none;stroke:#000000;stroke-width:0.7;stroke-linecap:round;" x1="47.213" y2="-19.188"/>
  <line x2="43.213" y1="-15.688" style="fill:none;stroke:#000000;stroke-width:0.7;stroke-linecap:round;" x1="43.213" y2="-15.688"/>
  <line x2="46.213" y1="-15.688" style="fill:none;stroke:#000000;stroke-width:0.7;stroke-linecap:round;" x1="46.213" y2="-15.688"/>
  <line x2="40.046" y1="-15.688" style="fill:none;stroke:#000000;stroke-width:0.7;stroke-linecap:round;" x1="40.046" y2="-15.688"/>
  <line x2="15.546" y1="-15.688" style="fill:none;stroke:#000000;stroke-width:0.7;stroke-linecap:round;" x1="15.546" y2="-15.688"/>
  <line x2="18.546" y1="-15.688" style="fill:none;stroke:#000000;stroke-width:0.7;stroke-linecap:round;" x1="18.546" y2="-15.688"/>
  <line x2="12.379" y1="-15.688" style="fill:none;stroke:#000000;stroke-width:0.7;stroke-linecap:round;" x1="12.379" y2="-15.688"/>
  <line x2="7.379" y1="-12.021" style="fill:none;stroke:#000000;stroke-width:0.7;stroke-linecap:round;" x1="7.379" y2="-12.021"/>
  <line x2="10.379" y1="-12.021" style="fill:none;stroke:#000000;stroke-width:0.7;stroke-linecap:round;" x1="10.379" y2="-12.021"/>
  <line x2="4.213" y1="-12.021" style="fill:none;stroke:#000000;stroke-width:0.7;stroke-linecap:round;" x1="4.213" y2="-12.021"/>
  <line x2="35.213" y1="-12.021" style="fill:none;stroke:#000000;stroke-width:0.7;stroke-linecap:round;" x1="35.213" y2="-12.021"/>
  <line x2="38.213" y1="-12.021" style="fill:none;stroke:#000000;stroke-width:0.7;stroke-linecap:round;" x1="38.213" y2="-12.021"/>
  <line x2="32.046" y1="-12.021" style="fill:none;stroke:#000000;stroke-width:0.7;stroke-linecap:round;" x1="32.046" y2="-12.021"/>
  <line x2="26.712" y1="-7.921" style="fill:none;stroke:#000000;stroke-width:0.7;stroke-linecap:round;" x1="26.712" y2="-7.921"/>
  <line x2="29.712" y1="-7.921" style="fill:none;stroke:#000000;stroke-width:0.7;stroke-linecap:round;" x1="29.712" y2="-7.921"/>
  <line x2="23.546" y1="-7.921" style="fill:none;stroke:#000000;stroke-width:0.7;stroke-linecap:round;" x1="23.546" y2="-7.921"/>
  <line x2="19.712" y1="-4.137" style="fill:none;stroke:#000000;stroke-width:0.7;stroke-linecap:round;" x1="19.712" y2="-4.137"/>
  <line x2="22.712" y1="-4.137" style="fill:none;stroke:#000000;stroke-width:0.7;stroke-linecap:round;" x1="22.712" y2="-4.137"/>
  <line x2="16.546" y1="-4.137" style="fill:none;stroke:#000000;stroke-width:0.7;stroke-linecap:round;" x1="16.546" y2="-4.137"/>
  <line x2="46.746" y1="-4.088" style="fill:none;stroke:#000000;stroke-width:0.7;stroke-linecap:round;" x1="46.746" y2="-4.088"/>
  <line x2="49.746" y1="-4.088" style="fill:none;stroke:#000000;stroke-width:0.7;stroke-linecap:round;" x1="49.746" y2="-4.088"/>
  <line x2="43.579" y1="-4.088" style="fill:none;stroke:#000000;stroke-width:0.7;stroke-linecap:round;" x1="43.579" y2="-4.088"/>
  <line x2="54.713" y1="-7.921" style="fill:none;stroke:#000000;stroke-width:0.7;stroke-linecap:round;" x1="54.713" y2="-7.921"/>
  <line x2="3.379" y1="-7.921" style="fill:none;stroke:#000000;stroke-width:0.7;stroke-linecap:round;" x1="3.379" y2="-7.921"/>
  <line x2="51.546" y1="-7.921" style="fill:none;stroke:#000000;stroke-width:0.7;stroke-linecap:round;" x1="51.546" y2="-7.921"/>
  <line x2="54.713" y1="-22.854" style="fill:none;stroke:#000000;stroke-width:0.7;stroke-linecap:round;" x1="54.713" y2="-22.854"/>
  <line x2="51.546" y1="-22.854" style="fill:none;stroke:#000000;stroke-width:0.7;stroke-linecap:round;" x1="51.546" y2="-22.854"/>
  <line x2="4.046" y1="-22.854" style="fill:none;stroke:#000000;stroke-width:0.7;stroke-linecap:round;" x1="4.046" y2="-22.854"/>
  <line x2="43.046" y1="-45.754" style="fill:none;stroke:#000000;stroke-width:0.7;stroke-linecap:round;" x1="43.046" y2="-45.754"/>
  <line x2="46.213" y1="-45.754" style="fill:none;stroke:#000000;stroke-width:0.7;stroke-linecap:round;" x1="46.213" y2="-45.754"/>
  <line x2="39.379" y1="-45.754" style="fill:none;stroke:#000000;stroke-width:0.7;stroke-linecap:round;" x1="39.379" y2="-45.754"/>
  <line x2="48.546" y1="-41.604" style="fill:none;stroke:#000000;stroke-width:0.7;stroke-linecap:round;" x1="48.546" y2="-41.604"/>
  <line x2="51.379" y1="-41.604" style="fill:none;stroke:#000000;stroke-width:0.7;stroke-linecap:round;" x1="51.379" y2="-41.604"/>
  <line x2="45.213" y1="-41.604" style="fill:none;stroke:#000000;stroke-width:0.7;stroke-linecap:round;" x1="45.213" y2="-41.604"/>
  <line x2="21.546" y1="-41.604" style="fill:none;stroke:#000000;stroke-width:0.7;stroke-linecap:round;" x1="21.546" y2="-41.604"/>
  <line x2="24.379" y1="-41.604" style="fill:none;stroke:#000000;stroke-width:0.7;stroke-linecap:round;" x1="24.379" y2="-41.604"/>
  <line x2="18.212" y1="-41.604" style="fill:none;stroke:#000000;stroke-width:0.7;stroke-linecap:round;" x1="18.212" y2="-41.604"/>
  <line x2="27.046" y1="-37.854" style="fill:none;stroke:#000000;stroke-width:0.7;stroke-linecap:round;" x1="27.046" y2="-37.854"/>
  <line x2="29.879" y1="-37.854" style="fill:none;stroke:#000000;stroke-width:0.7;stroke-linecap:round;" x1="29.879" y2="-37.854"/>
  <line x2="23.712" y1="-37.854" style="fill:none;stroke:#000000;stroke-width:0.7;stroke-linecap:round;" x1="23.712" y2="-37.854"/>
  <line x2="54.879" y1="-37.854" style="fill:none;stroke:#000000;stroke-width:0.7;stroke-linecap:round;" x1="54.879" y2="-37.854"/>
  <line x2="3.612" y1="-37.854" style="fill:none;stroke:#000000;stroke-width:0.7;stroke-linecap:round;" x1="3.612" y2="-37.854"/>
  <line x2="51.546" y1="-37.854" style="fill:none;stroke:#000000;stroke-width:0.7;stroke-linecap:round;" x1="51.546" y2="-37.854"/>
  <line x2="4.546" y1="-49.771" style="fill:none;stroke:#000000;stroke-width:0.7;stroke-linecap:round;" x1="4.546" y2="-49.771"/>
  <line x2="38.879" y1="-49.771" style="fill:none;stroke:#000000;stroke-width:0.7;stroke-linecap:round;" x1="38.879" y2="-49.771"/>
  <line x2="32.879" y1="-49.771" style="fill:none;stroke:#000000;stroke-width:0.7;stroke-linecap:round;" x1="32.879" y2="-49.771"/>
  <line x2="55.779" y1="-51.975" style="fill:none;stroke:#000000;stroke-width:0.3;" x1="1.654" y2="-51.975"/>
  <line x2="55.779" y1="-47.8" style="fill:none;stroke:#000000;stroke-width:0.3;" x1="1.654" y2="-47.8"/>
  <line x2="55.779" y1="-43.612" style="fill:none;stroke:#000000;stroke-width:0.3;" x1="1.654" y2="-43.612"/>
  <line x2="55.842" y1="-14" style="fill:none;stroke:#000000;stroke-width:0.3;" x1="1.654" y2="-14"/>
  <line x2="55.779" y1="-10.225" style="fill:none;stroke:#000000;stroke-width:0.3;" x1="1.654" y2="-10.225"/>
  <line x2="55.779" y1="-39.594" style="fill:none;stroke:#000000;stroke-width:0.3;" x1="1.654" y2="-39.594"/>
  <line x2="55.779" y1="-36.312" style="fill:none;stroke:#000000;stroke-width:0.3;" x1="1.654" y2="-36.312"/>
  <line x2="55.779" y1="-32.887" style="fill:none;stroke:#000000;stroke-width:0.3;" x1="1.654" y2="-32.887"/>
  <line x2="55.779" y1="-28.837" style="fill:none;stroke:#000000;stroke-width:0.3;" x1="1.654" y2="-28.837"/>
  <line x2="55.779" y1="-25.037" style="fill:none;stroke:#000000;stroke-width:0.3;" x1="1.654" y2="-25.037"/>
  <line x2="55.842" y1="-20.837" style="fill:none;stroke:#000000;stroke-width:0.3;" x1="1.654" y2="-20.837"/>
  <line x2="55.779" y1="-17.612" style="fill:none;stroke:#000000;stroke-width:0.3;" x1="1.654" y2="-17.612"/>
  <line x2="55.779" y1="-2.437" style="fill:none;stroke:#000000;stroke-width:0.3;" x1="1.654" y2="-2.437"/>
  <line x2="7.579" y1="-55.725" style="fill:none;stroke:#000000;stroke-width:0.3;" x1="7.579" y2="-51.975"/>
  <line x2="20.329" y1="-55.725" style="fill:none;stroke:#000000;stroke-width:0.3;" x1="20.329" y2="-51.975"/>
  <line x2="33.829" y1="-55.725" style="fill:none;stroke:#000000;stroke-width:0.3;" x1="33.829" y2="-51.975"/>
  <line x2="48.204" y1="-55.725" style="fill:none;stroke:#000000;stroke-width:0.3;" x1="48.204" y2="-51.975"/>
  <line x2="7.579" y1="-2.45" style="fill:none;stroke:#000000;stroke-width:0.3;" x1="7.579" y2="-1.6"/>
  <line x2="20.329" y1="-2.45" style="fill:none;stroke:#000000;stroke-width:0.3;" x1="20.329" y2="-1.6"/>
  <line x2="33.829" y1="-2.45" style="fill:none;stroke:#000000;stroke-width:0.3;" x1="33.829" y2="-1.6"/>
  <line x2="48.204" y1="-2.45" style="fill:none;stroke:#000000;stroke-width:0.3;" x1="48.204" y2="-1.6"/>
  <line x2="14.254" y1="-52.037" style="fill:none;stroke:#000000;stroke-width:0.3;" x1="14.254" y2="-47.812"/>
  <line x2="29.129" y1="-52.037" style="fill:none;stroke:#000000;stroke-width:0.3;" x1="29.129" y2="-47.812"/>
  <line x2="42.754" y1="-52.037" style="fill:none;stroke:#000000;stroke-width:0.3;" x1="42.754" y2="-47.812"/>
  <line x2="55.579" y1="-52.037" style="fill:none;stroke:#000000;stroke-width:0.3;" x1="55.579" y2="-47.812"/>
  <line x2="8.692" y1="-47.675" style="fill:none;stroke:#000000;stroke-width:0.3;" x1="8.692" y2="-43.625"/>
  <line x2="21.942" y1="-47.675" style="fill:none;stroke:#000000;stroke-width:0.3;" x1="21.942" y2="-43.625"/>
  <line x2="35.504" y1="-47.675" style="fill:none;stroke:#000000;stroke-width:0.3;" x1="35.504" y2="-43.625"/>
  <line x2="50.442" y1="-47.675" style="fill:none;stroke:#000000;stroke-width:0.3;" x1="50.442" y2="-43.625"/>
  <line x2="41.817" y1="-43.625" style="fill:none;stroke:#000000;stroke-width:0.3;" x1="41.817" y2="-39.625"/>
  <line x2="28.442" y1="-43.625" style="fill:none;stroke:#000000;stroke-width:0.3;" x1="28.442" y2="-39.625"/>
  <line x2="13.567" y1="-43.625" style="fill:none;stroke:#000000;stroke-width:0.3;" x1="13.567" y2="-39.625"/>
  <line x2="55.067" y1="-43.625" style="fill:none;stroke:#000000;stroke-width:0.3;" x1="55.067" y2="-39.625"/>
  <line x2="48.204" y1="-39.625" style="fill:none;stroke:#000000;stroke-width:0.3;" x1="48.204" y2="-36.325"/>
  <line x2="33.579" y1="-39.625" style="fill:none;stroke:#000000;stroke-width:0.3;" x1="33.579" y2="-36.325"/>
  <line x2="20.329" y1="-39.625" style="fill:none;stroke:#000000;stroke-width:0.3;" x1="20.329" y2="-36.325"/>
  <line x2="7.579" y1="-39.625" style="fill:none;stroke:#000000;stroke-width:0.3;" x1="7.579" y2="-36.325"/>
  <line x2="14.129" y1="-36.325" style="fill:none;stroke:#000000;stroke-width:0.3;" x1="14.129" y2="-32.9"/>
  <line x2="29.129" y1="-36.325" style="fill:none;stroke:#000000;stroke-width:0.3;" x1="29.129" y2="-32.9"/>
  <line x2="42.879" y1="-36.325" style="fill:none;stroke:#000000;stroke-width:0.3;" x1="42.879" y2="-32.9"/>
  <line x2="55.629" y1="-36.325" style="fill:none;stroke:#000000;stroke-width:0.3;" x1="55.629" y2="-32.9"/>
  <line x2="8.317" y1="-32.9" style="fill:none;stroke:#000000;stroke-width:0.3;" x1="8.317" y2="-28.85"/>
  <line x2="21.817" y1="-32.9" style="fill:none;stroke:#000000;stroke-width:0.3;" x1="21.817" y2="-28.85"/>
  <line x2="35.442" y1="-32.9" style="fill:none;stroke:#000000;stroke-width:0.3;" x1="35.442" y2="-28.85"/>
  <line x2="50.317" y1="-32.9" style="fill:none;stroke:#000000;stroke-width:0.3;" x1="50.317" y2="-28.85"/>
  <line x2="41.692" y1="-28.787" style="fill:none;stroke:#000000;stroke-width:0.3;" x1="41.692" y2="-25.05"/>
  <line x2="28.367" y1="-28.787" style="fill:none;stroke:#000000;stroke-width:0.3;" x1="28.367" y2="-25.05"/>
  <line x2="13.367" y1="-28.787" style="fill:none;stroke:#000000;stroke-width:0.3;" x1="13.367" y2="-25.05"/>
  <line x2="54.921" y1="-28.787" style="fill:none;stroke:#000000;stroke-width:0.3;" x1="54.921" y2="-25.05"/>
  <line x2="7.179" y1="-24.987" style="fill:none;stroke:#000000;stroke-width:0.3;" x1="7.179" y2="-20.85"/>
  <line x2="20.179" y1="-24.987" style="fill:none;stroke:#000000;stroke-width:0.3;" x1="20.179" y2="-20.85"/>
  <line x2="33.804" y1="-24.987" style="fill:none;stroke:#000000;stroke-width:0.3;" x1="33.804" y2="-20.85"/>
  <line x2="48.054" y1="-24.987" style="fill:none;stroke:#000000;stroke-width:0.3;" x1="48.054" y2="-20.85"/>
  <line x2="43.854" y1="-20.787" style="fill:none;stroke:#000000;stroke-width:0.3;" x1="43.854" y2="-17.625"/>
  <line x2="29.704" y1="-20.787" style="fill:none;stroke:#000000;stroke-width:0.3;" x1="29.704" y2="-17.625"/>
  <line x2="14.579" y1="-20.787" style="fill:none;stroke:#000000;stroke-width:0.3;" x1="14.579" y2="-17.625"/>
  <line x2="2.162" y1="-20.787" style="fill:none;stroke:#000000;stroke-width:0.3;" x1="2.162" y2="-17.625"/>
  <line x2="8.538" y1="-17.562" style="fill:none;stroke:#000000;stroke-width:0.3;" x1="8.538" y2="-14"/>
  <line x2="21.788" y1="-17.562" style="fill:none;stroke:#000000;stroke-width:0.3;" x1="21.788" y2="-14"/>
  <line x2="35.412" y1="-17.562" style="fill:none;stroke:#000000;stroke-width:0.3;" x1="35.412" y2="-14"/>
  <line x2="50.287" y1="-17.562" style="fill:none;stroke:#000000;stroke-width:0.3;" x1="50.287" y2="-14"/>
  <line x2="41.938" y1="-13.95" style="fill:none;stroke:#000000;stroke-width:0.3;" x1="41.938" y2="-10.187"/>
  <line x2="28.063" y1="-13.95" style="fill:none;stroke:#000000;stroke-width:0.3;" x1="28.063" y2="-10.187"/>
  <line x2="13.512" y1="-13.95" style="fill:none;stroke:#000000;stroke-width:0.3;" x1="13.512" y2="-10.187"/>
  <line x2="55.388" y1="-13.95" style="fill:none;stroke:#000000;stroke-width:0.3;" x1="55.388" y2="-10.187"/>
  <line x2="55.779" y1="-5.812" style="fill:none;stroke:#000000;stroke-width:0.3;" x1="1.654" y2="-5.812"/>
  <line x2="11.95" y1="-5.838" style="fill:none;stroke:#000000;stroke-width:0.3;" x1="11.95" y2="-2.375"/>
  <line x2="26.388" y1="-5.838" style="fill:none;stroke:#000000;stroke-width:0.3;" x1="26.388" y2="-2.375"/>
  <line x2="40.013" y1="-5.838" style="fill:none;stroke:#000000;stroke-width:0.3;" x1="40.013" y2="-2.375"/>
  <line x2="53.388" y1="-5.838" style="fill:none;stroke:#000000;stroke-width:0.3;" x1="53.388" y2="-2.375"/>
  <line x2="6.225" y1="-10.187" style="fill:none;stroke:#000000;stroke-width:0.3;" x1="6.225" y2="-5.838"/>
  <line x2="19.225" y1="-10.187" style="fill:none;stroke:#000000;stroke-width:0.3;" x1="19.225" y2="-5.838"/>
  <line x2="33.225" y1="-10.187" style="fill:none;stroke:#000000;stroke-width:0.3;" x1="33.225" y2="-5.838"/>
  <line x2="47.787" y1="-10.187" style="fill:none;stroke:#000000;stroke-width:0.3;" x1="47.787" y2="-5.838"/>
  <line x2="17.663" y1="-54.067" style="fill:none;stroke:#000000;stroke-width:0.3;" x1="10.413" y2="-54.067"/>
  <line x2="44.787" y1="-54.067" style="fill:none;stroke:#000000;stroke-width:0.3;" x1="37.537" y2="-54.067"/>
  <line x2="25.163" y1="-49.804" style="fill:none;stroke:#000000;stroke-width:0.3;" x1="17.913" y2="-49.804"/>
  <line x2="52.912" y1="-49.804" style="fill:none;stroke:#000000;stroke-width:0.3;" x1="45.662" y2="-49.804"/>
  <line x2="32.412" y1="-45.742" style="fill:none;stroke:#000000;stroke-width:0.3;" x1="25.163" y2="-45.742"/>
  <line x2="6.088" y1="-45.742" style="fill:none;stroke:#000000;stroke-width:0.3;" x1="1.6" y2="-45.742"/>
  <line x2="39.088" y1="-41.492" style="fill:none;stroke:#000000;stroke-width:0.3;" x1="31.837" y2="-41.492"/>
  <line x2="10.712" y1="-41.492" style="fill:none;stroke:#000000;stroke-width:0.3;" x1="3.463" y2="-41.492"/>
  <line x2="44.338" y1="-37.992" style="fill:none;stroke:#000000;stroke-width:0.3;" x1="37.088" y2="-37.992"/>
  <line x2="53.088" y1="-34.617" style="fill:none;stroke:#000000;stroke-width:0.3;" x1="45.838" y2="-34.617"/>
  <line x2="55.746" y1="-30.742" style="fill:none;stroke:#000000;stroke-width:0.3;" x1="52.963" y2="-30.742"/>
  <line x2="52.088" y1="-26.992" style="fill:none;stroke:#000000;stroke-width:0.3;" x1="44.838" y2="-26.992"/>
  <line x2="44.713" y1="-22.992" style="fill:none;stroke:#000000;stroke-width:0.3;" x1="37.463" y2="-22.992"/>
  <line x2="40.588" y1="-19.242" style="fill:none;stroke:#000000;stroke-width:0.3;" x1="33.338" y2="-19.242"/>
  <line x2="32.463" y1="-15.742" style="fill:none;stroke:#000000;stroke-width:0.3;" x1="25.212" y2="-15.742"/>
  <line x2="24.337" y1="-12.117" style="fill:none;stroke:#000000;stroke-width:0.3;" x1="17.087" y2="-12.117"/>
  <line x2="16.212" y1="-7.742" style="fill:none;stroke:#000000;stroke-width:0.3;" x1="8.962" y2="-7.742"/>
  <line x2="9.087" y1="-4.067" style="fill:none;stroke:#000000;stroke-width:0.3;" x1="1.837" y2="-4.067"/>
  <line x2="17.462" y1="-37.879" style="fill:none;stroke:#000000;stroke-width:0.3;" x1="10.212" y2="-37.879"/>
  <line x2="24.837" y1="-34.629" style="fill:none;stroke:#000000;stroke-width:0.3;" x1="17.587" y2="-34.629"/>
  <line x2="32.213" y1="-30.879" style="fill:none;stroke:#000000;stroke-width:0.3;" x1="24.962" y2="-30.879"/>
  <line x2="24.712" y1="-26.879" style="fill:none;stroke:#000000;stroke-width:0.3;" x1="17.462" y2="-26.879"/>
  <line x2="17.337" y1="-22.879" style="fill:none;stroke:#000000;stroke-width:0.3;" x1="10.087" y2="-22.879"/>
  <line x2="12.087" y1="-19.129" style="fill:none;stroke:#000000;stroke-width:0.3;" x1="4.838" y2="-19.129"/>
  <line x2="5.463" y1="-15.629" style="fill:none;stroke:#000000;stroke-width:0.3;" x1="1.6" y2="-15.629"/>
  <line x2="52.588" y1="-12.004" style="fill:none;stroke:#000000;stroke-width:0.3;" x1="45.338" y2="-12.004"/>
  <line x2="44.213" y1="-7.879" style="fill:none;stroke:#000000;stroke-width:0.3;" x1="36.963" y2="-7.879"/>
  <line x2="36.838" y1="-4.129" style="fill:none;stroke:#000000;stroke-width:0.3;" x1="29.587" y2="-4.129"/>
  <line x2="55.725" y1="-45.742" style="fill:none;stroke:#000000;stroke-width:0.3;" x1="52.912" y2="-45.742"/>
  <line x2="55.725" y1="-15.629" style="fill:none;stroke:#000000;stroke-width:0.3;" x1="52.912" y2="-15.629"/>
  <line x2="4.287" y1="-30.742" style="fill:none;stroke:#000000;stroke-width:0.3;" x1="1.663" y2="-30.742"/>
 </g>
</svg>
