<?xml version="1.0"?>
<!-- Converted with SVG Converter - Version 0.9.6 (Compiled Thu Aug 31 10:01:05 2017) - Copyright (C) 2011 Nokia -->
<svg xmlns="http://www.w3.org/2000/svg" width="54.242" xml:space="preserve" viewBox="1.6 -55.725 54.242 54.125" height="54.125" version="1.1" x="0px" y="0px" baseProfile="tiny" xmlns:xlink="http://www.w3.org/1999/xlink">
 <g>
  <rect width="54.242" style="fill:none;" height="54.125" x="1.6" y="-55.725"/>
  <line y1="-51.975" style="fill:none;stroke:#000000;stroke-width:0.3;" y2="-51.975" x1="1.654" x2="55.779"/>
  <line y1="-47.8" style="fill:none;stroke:#000000;stroke-width:0.3;" y2="-47.8" x1="1.654" x2="55.779"/>
  <line y1="-43.612" style="fill:none;stroke:#000000;stroke-width:0.3;" y2="-43.612" x1="1.654" x2="55.779"/>
  <line y1="-14" style="fill:none;stroke:#000000;stroke-width:0.3;" y2="-14" x1="1.654" x2="55.842"/>
  <line y1="-10.225" style="fill:none;stroke:#000000;stroke-width:0.3;" y2="-10.225" x1="1.654" x2="55.779"/>
  <line y1="-39.594" style="fill:none;stroke:#000000;stroke-width:0.3;" y2="-39.594" x1="1.654" x2="55.779"/>
  <line y1="-36.312" style="fill:none;stroke:#000000;stroke-width:0.3;" y2="-36.312" x1="1.654" x2="55.779"/>
  <line y1="-32.887" style="fill:none;stroke:#000000;stroke-width:0.3;" y2="-32.887" x1="1.654" x2="55.779"/>
  <line y1="-28.837" style="fill:none;stroke:#000000;stroke-width:0.3;" y2="-28.837" x1="1.654" x2="55.779"/>
  <line y1="-25.037" style="fill:none;stroke:#000000;stroke-width:0.3;" y2="-25.037" x1="1.654" x2="55.779"/>
  <line y1="-20.837" style="fill:none;stroke:#000000;stroke-width:0.3;" y2="-20.837" x1="1.654" x2="55.842"/>
  <line y1="-17.612" style="fill:none;stroke:#000000;stroke-width:0.3;" y2="-17.612" x1="1.654" x2="55.779"/>
  <line y1="-2.437" style="fill:none;stroke:#000000;stroke-width:0.3;" y2="-2.437" x1="1.654" x2="55.779"/>
  <line y1="-55.725" style="fill:none;stroke:#000000;stroke-width:0.3;" y2="-51.975" x1="7.579" x2="7.579"/>
  <line y1="-55.725" style="fill:none;stroke:#000000;stroke-width:0.3;" y2="-51.975" x1="20.329" x2="20.329"/>
  <line y1="-55.725" style="fill:none;stroke:#000000;stroke-width:0.3;" y2="-51.975" x1="33.829" x2="33.829"/>
  <line y1="-55.725" style="fill:none;stroke:#000000;stroke-width:0.3;" y2="-51.975" x1="48.204" x2="48.204"/>
  <line y1="-2.45" style="fill:none;stroke:#000000;stroke-width:0.3;" y2="-1.6" x1="7.579" x2="7.579"/>
  <line y1="-2.45" style="fill:none;stroke:#000000;stroke-width:0.3;" y2="-1.6" x1="20.329" x2="20.329"/>
  <line y1="-2.45" style="fill:none;stroke:#000000;stroke-width:0.3;" y2="-1.6" x1="33.829" x2="33.829"/>
  <line y1="-2.45" style="fill:none;stroke:#000000;stroke-width:0.3;" y2="-1.6" x1="48.204" x2="48.204"/>
  <line y1="-52.037" style="fill:none;stroke:#000000;stroke-width:0.3;" y2="-47.812" x1="14.254" x2="14.254"/>
  <line y1="-52.037" style="fill:none;stroke:#000000;stroke-width:0.3;" y2="-47.812" x1="29.129" x2="29.129"/>
  <line y1="-52.037" style="fill:none;stroke:#000000;stroke-width:0.3;" y2="-47.812" x1="42.754" x2="42.754"/>
  <line y1="-52.037" style="fill:none;stroke:#000000;stroke-width:0.3;" y2="-47.812" x1="55.579" x2="55.579"/>
  <line y1="-47.675" style="fill:none;stroke:#000000;stroke-width:0.3;" y2="-43.625" x1="8.692" x2="8.692"/>
  <line y1="-47.675" style="fill:none;stroke:#000000;stroke-width:0.3;" y2="-43.625" x1="21.942" x2="21.942"/>
  <line y1="-47.675" style="fill:none;stroke:#000000;stroke-width:0.3;" y2="-43.625" x1="35.504" x2="35.504"/>
  <line y1="-47.675" style="fill:none;stroke:#000000;stroke-width:0.3;" y2="-43.625" x1="50.442" x2="50.442"/>
  <line y1="-43.625" style="fill:none;stroke:#000000;stroke-width:0.3;" y2="-39.625" x1="41.817" x2="41.817"/>
  <line y1="-43.625" style="fill:none;stroke:#000000;stroke-width:0.3;" y2="-39.625" x1="28.442" x2="28.442"/>
  <line y1="-43.625" style="fill:none;stroke:#000000;stroke-width:0.3;" y2="-39.625" x1="13.567" x2="13.567"/>
  <line y1="-43.625" style="fill:none;stroke:#000000;stroke-width:0.3;" y2="-39.625" x1="55.067" x2="55.067"/>
  <line y1="-39.625" style="fill:none;stroke:#000000;stroke-width:0.3;" y2="-36.325" x1="48.204" x2="48.204"/>
  <line y1="-39.625" style="fill:none;stroke:#000000;stroke-width:0.3;" y2="-36.325" x1="33.579" x2="33.579"/>
  <line y1="-39.625" style="fill:none;stroke:#000000;stroke-width:0.3;" y2="-36.325" x1="20.329" x2="20.329"/>
  <line y1="-39.625" style="fill:none;stroke:#000000;stroke-width:0.3;" y2="-36.325" x1="7.579" x2="7.579"/>
  <line y1="-36.325" style="fill:none;stroke:#000000;stroke-width:0.3;" y2="-32.9" x1="14.129" x2="14.129"/>
  <line y1="-36.325" style="fill:none;stroke:#000000;stroke-width:0.3;" y2="-32.9" x1="29.129" x2="29.129"/>
  <line y1="-36.325" style="fill:none;stroke:#000000;stroke-width:0.3;" y2="-32.9" x1="42.879" x2="42.879"/>
  <line y1="-36.325" style="fill:none;stroke:#000000;stroke-width:0.3;" y2="-32.9" x1="55.629" x2="55.629"/>
  <line y1="-32.9" style="fill:none;stroke:#000000;stroke-width:0.3;" y2="-28.85" x1="8.317" x2="8.317"/>
  <line y1="-32.9" style="fill:none;stroke:#000000;stroke-width:0.3;" y2="-28.85" x1="21.817" x2="21.817"/>
  <line y1="-32.9" style="fill:none;stroke:#000000;stroke-width:0.3;" y2="-28.85" x1="35.442" x2="35.442"/>
  <line y1="-32.9" style="fill:none;stroke:#000000;stroke-width:0.3;" y2="-28.85" x1="50.317" x2="50.317"/>
  <line y1="-28.787" style="fill:none;stroke:#000000;stroke-width:0.3;" y2="-25.05" x1="41.692" x2="41.692"/>
  <line y1="-28.787" style="fill:none;stroke:#000000;stroke-width:0.3;" y2="-25.05" x1="28.367" x2="28.367"/>
  <line y1="-28.787" style="fill:none;stroke:#000000;stroke-width:0.3;" y2="-25.05" x1="13.367" x2="13.367"/>
  <line y1="-28.787" style="fill:none;stroke:#000000;stroke-width:0.3;" y2="-25.05" x1="54.921" x2="54.921"/>
  <line y1="-24.987" style="fill:none;stroke:#000000;stroke-width:0.3;" y2="-20.85" x1="7.179" x2="7.179"/>
  <line y1="-24.987" style="fill:none;stroke:#000000;stroke-width:0.3;" y2="-20.85" x1="20.179" x2="20.179"/>
  <line y1="-24.987" style="fill:none;stroke:#000000;stroke-width:0.3;" y2="-20.85" x1="33.804" x2="33.804"/>
  <line y1="-24.987" style="fill:none;stroke:#000000;stroke-width:0.3;" y2="-20.85" x1="48.054" x2="48.054"/>
  <line y1="-20.787" style="fill:none;stroke:#000000;stroke-width:0.3;" y2="-17.625" x1="43.854" x2="43.854"/>
  <line y1="-20.787" style="fill:none;stroke:#000000;stroke-width:0.3;" y2="-17.625" x1="29.704" x2="29.704"/>
  <line y1="-20.787" style="fill:none;stroke:#000000;stroke-width:0.3;" y2="-17.625" x1="14.579" x2="14.579"/>
  <line y1="-20.787" style="fill:none;stroke:#000000;stroke-width:0.3;" y2="-17.625" x1="2.162" x2="2.162"/>
  <line y1="-17.562" style="fill:none;stroke:#000000;stroke-width:0.3;" y2="-14" x1="8.538" x2="8.538"/>
  <line y1="-17.562" style="fill:none;stroke:#000000;stroke-width:0.3;" y2="-14" x1="21.788" x2="21.788"/>
  <line y1="-17.562" style="fill:none;stroke:#000000;stroke-width:0.3;" y2="-14" x1="35.412" x2="35.412"/>
  <line y1="-17.562" style="fill:none;stroke:#000000;stroke-width:0.3;" y2="-14" x1="50.287" x2="50.287"/>
  <line y1="-13.95" style="fill:none;stroke:#000000;stroke-width:0.3;" y2="-10.187" x1="41.938" x2="41.938"/>
  <line y1="-13.95" style="fill:none;stroke:#000000;stroke-width:0.3;" y2="-10.187" x1="28.063" x2="28.063"/>
  <line y1="-13.95" style="fill:none;stroke:#000000;stroke-width:0.3;" y2="-10.187" x1="13.512" x2="13.512"/>
  <line y1="-13.95" style="fill:none;stroke:#000000;stroke-width:0.3;" y2="-10.187" x1="55.388" x2="55.388"/>
  <line y1="-5.812" style="fill:none;stroke:#000000;stroke-width:0.3;" y2="-5.812" x1="1.654" x2="55.779"/>
  <line y1="-5.838" style="fill:none;stroke:#000000;stroke-width:0.3;" y2="-2.375" x1="11.95" x2="11.95"/>
  <line y1="-5.838" style="fill:none;stroke:#000000;stroke-width:0.3;" y2="-2.375" x1="26.388" x2="26.388"/>
  <line y1="-5.838" style="fill:none;stroke:#000000;stroke-width:0.3;" y2="-2.375" x1="40.013" x2="40.013"/>
  <line y1="-5.838" style="fill:none;stroke:#000000;stroke-width:0.3;" y2="-2.375" x1="53.388" x2="53.388"/>
  <line y1="-10.187" style="fill:none;stroke:#000000;stroke-width:0.3;" y2="-5.838" x1="6.225" x2="6.225"/>
  <line y1="-10.187" style="fill:none;stroke:#000000;stroke-width:0.3;" y2="-5.838" x1="19.225" x2="19.225"/>
  <line y1="-10.187" style="fill:none;stroke:#000000;stroke-width:0.3;" y2="-5.838" x1="33.225" x2="33.225"/>
  <line y1="-10.187" style="fill:none;stroke:#000000;stroke-width:0.3;" y2="-5.838" x1="47.787" x2="47.787"/>
  <line y1="-54.067" style="fill:none;stroke:#000000;stroke-width:0.3;" y2="-54.067" x1="10.413" x2="17.663"/>
  <line y1="-54.067" style="fill:none;stroke:#000000;stroke-width:0.3;" y2="-54.067" x1="37.537" x2="44.787"/>
  <line y1="-49.804" style="fill:none;stroke:#000000;stroke-width:0.3;" y2="-49.804" x1="17.913" x2="25.163"/>
  <line y1="-49.804" style="fill:none;stroke:#000000;stroke-width:0.3;" y2="-49.804" x1="45.662" x2="52.912"/>
  <line y1="-45.742" style="fill:none;stroke:#000000;stroke-width:0.3;" y2="-45.742" x1="25.163" x2="32.412"/>
  <line y1="-45.742" style="fill:none;stroke:#000000;stroke-width:0.3;" y2="-45.742" x1="1.6" x2="6.088"/>
  <line y1="-41.492" style="fill:none;stroke:#000000;stroke-width:0.3;" y2="-41.492" x1="31.837" x2="39.088"/>
  <line y1="-41.492" style="fill:none;stroke:#000000;stroke-width:0.3;" y2="-41.492" x1="3.463" x2="10.712"/>
  <line y1="-37.992" style="fill:none;stroke:#000000;stroke-width:0.3;" y2="-37.992" x1="37.088" x2="44.338"/>
  <line y1="-34.617" style="fill:none;stroke:#000000;stroke-width:0.3;" y2="-34.617" x1="45.838" x2="53.088"/>
  <line y1="-30.742" style="fill:none;stroke:#000000;stroke-width:0.3;" y2="-30.742" x1="52.963" x2="55.746"/>
  <line y1="-26.992" style="fill:none;stroke:#000000;stroke-width:0.3;" y2="-26.992" x1="44.838" x2="52.088"/>
  <line y1="-22.992" style="fill:none;stroke:#000000;stroke-width:0.3;" y2="-22.992" x1="37.463" x2="44.713"/>
  <line y1="-19.242" style="fill:none;stroke:#000000;stroke-width:0.3;" y2="-19.242" x1="33.338" x2="40.588"/>
  <line y1="-15.742" style="fill:none;stroke:#000000;stroke-width:0.3;" y2="-15.742" x1="25.212" x2="32.463"/>
  <line y1="-12.117" style="fill:none;stroke:#000000;stroke-width:0.3;" y2="-12.117" x1="17.087" x2="24.337"/>
  <line y1="-7.742" style="fill:none;stroke:#000000;stroke-width:0.3;" y2="-7.742" x1="8.962" x2="16.212"/>
  <line y1="-4.067" style="fill:none;stroke:#000000;stroke-width:0.3;" y2="-4.067" x1="1.837" x2="9.087"/>
  <line y1="-37.879" style="fill:none;stroke:#000000;stroke-width:0.3;" y2="-37.879" x1="10.212" x2="17.462"/>
  <line y1="-34.629" style="fill:none;stroke:#000000;stroke-width:0.3;" y2="-34.629" x1="17.587" x2="24.837"/>
  <line y1="-30.879" style="fill:none;stroke:#000000;stroke-width:0.3;" y2="-30.879" x1="24.962" x2="32.213"/>
  <line y1="-26.879" style="fill:none;stroke:#000000;stroke-width:0.3;" y2="-26.879" x1="17.462" x2="24.712"/>
  <line y1="-22.879" style="fill:none;stroke:#000000;stroke-width:0.3;" y2="-22.879" x1="10.087" x2="17.337"/>
  <line y1="-19.129" style="fill:none;stroke:#000000;stroke-width:0.3;" y2="-19.129" x1="4.838" x2="12.087"/>
  <line y1="-15.629" style="fill:none;stroke:#000000;stroke-width:0.3;" y2="-15.629" x1="1.6" x2="5.463"/>
  <line y1="-12.004" style="fill:none;stroke:#000000;stroke-width:0.3;" y2="-12.004" x1="45.338" x2="52.588"/>
  <line y1="-7.879" style="fill:none;stroke:#000000;stroke-width:0.3;" y2="-7.879" x1="36.963" x2="44.213"/>
  <line y1="-4.129" style="fill:none;stroke:#000000;stroke-width:0.3;" y2="-4.129" x1="29.587" x2="36.838"/>
  <line y1="-45.742" style="fill:none;stroke:#000000;stroke-width:0.3;" y2="-45.742" x1="52.912" x2="55.725"/>
  <line y1="-15.629" style="fill:none;stroke:#000000;stroke-width:0.3;" y2="-15.629" x1="52.912" x2="55.725"/>
  <line y1="-30.742" style="fill:none;stroke:#000000;stroke-width:0.3;" y2="-30.742" x1="1.663" x2="4.287"/>
 </g>
</svg>
