<?xml version="1.0"?>
<!-- Converted with SVG Converter - Version 0.9.6 (Compiled Thu Aug 31 10:01:05 2017) - Copyright (C) 2011 Nokia -->
<svg xmlns="http://www.w3.org/2000/svg" x="0px" baseProfile="tiny" y="0px" xml:space="preserve" height="54.125" viewBox="0 -54.205 54.125 54.125" xmlns:xlink="http://www.w3.org/1999/xlink" version="1.1" width="54.125">
 <g>
  <rect y="-54.205" height="54.125" style="fill:none;" width="54.125"/>
  <line y2="-50.455" x2="53.926" y1="-50.455" x1="54.125" style="fill:none;stroke:#000000;stroke-width:0.3;"/>
  <line y2="-50.455" x2="18.676" y1="-50.455" x1="27.476" style="fill:none;stroke:#000000;stroke-width:0.3;"/>
  <line y2="-50.455" x2="46.551" y1="-50.455" x1="53.926" style="fill:none;stroke:#000000;stroke-width:0.3;"/>
  <line y2="-50.455" x2="18.676" y1="-50.455" x1="13.625" style="fill:none;stroke:#000000;stroke-width:0.3;"/>
  <line y2="-50.455" x2="0" y1="-50.455" x1="4.425" style="fill:none;stroke:#000000;stroke-width:0.3;"/>
  <line y2="-50.455" x2="46.551" y1="-50.455" x1="30.675" style="fill:none;stroke:#000000;stroke-width:0.3;"/>
  <line y2="-50.455" x2="4.425" y1="-50.455" x1="13.625" style="fill:none;stroke:#000000;stroke-width:0.3;"/>
  <line y2="-50.455" x2="30.675" y1="-50.455" x1="27.476" style="fill:none;stroke:#000000;stroke-width:0.3;"/>
  <line y2="-46.28" x2="0" y1="-46.28" x1="54.125" style="fill:none;stroke:#000000;stroke-width:0.3;"/>
  <line y2="-42.093" x2="53.413" y1="-42.093" x1="54.125" style="fill:none;stroke:#000000;stroke-width:0.3;"/>
  <line y2="-42.093" x2="53.413" y1="-42.093" x1="41.156" style="fill:none;stroke:#000000;stroke-width:0.3;"/>
  <line y2="-42.093" x2="41.156" y1="-42.093" x1="26.788" style="fill:none;stroke:#000000;stroke-width:0.3;"/>
  <line y2="-42.093" x2="0" y1="-42.093" x1="26.788" style="fill:none;stroke:#000000;stroke-width:0.3;"/>
  <line y2="-12.481" x2="32.259" y1="-12.481" x1="20.134" style="fill:none;stroke:#000000;stroke-width:0.3;"/>
  <line y2="-12.481" x2="20.134" y1="-12.481" x1="12.665" style="fill:none;stroke:#000000;stroke-width:0.3;"/>
  <line y2="-12.481" x2="41.103" y1="-12.481" x1="32.259" style="fill:none;stroke:#000000;stroke-width:0.3;"/>
  <line y2="-12.481" x2="48.634" y1="-12.481" x1="41.103" style="fill:none;stroke:#000000;stroke-width:0.3;"/>
  <line y2="-12.481" x2="12.665" y1="-12.481" x1="5.384" style="fill:none;stroke:#000000;stroke-width:0.3;"/>
  <line y2="-12.481" x2="0" y1="-12.481" x1="5.384" style="fill:none;stroke:#000000;stroke-width:0.3;"/>
  <line y2="-12.481" x2="54.125" y1="-12.481" x1="48.634" style="fill:none;stroke:#000000;stroke-width:0.3;"/>
  <line y2="-8.705" x2="26.409" y1="-8.705" x1="38.807" style="fill:none;stroke:#000000;stroke-width:0.3;"/>
  <line y2="-8.705" x2="26.409" y1="-8.705" x1="10.381" style="fill:none;stroke:#000000;stroke-width:0.3;"/>
  <line y2="-8.705" x2="53.733" y1="-8.705" x1="38.807" style="fill:none;stroke:#000000;stroke-width:0.3;"/>
  <line y2="-8.705" x2="54.125" y1="-8.705" x1="53.733" style="fill:none;stroke:#000000;stroke-width:0.3;"/>
  <line y2="-8.705" x2="0" y1="-8.705" x1="10.381" style="fill:none;stroke:#000000;stroke-width:0.3;"/>
  <line y2="-38.074" x2="31.926" y1="-38.074" x1="5.926" style="fill:none;stroke:#000000;stroke-width:0.3;"/>
  <line y2="-38.074" x2="31.926" y1="-38.074" x1="46.996" style="fill:none;stroke:#000000;stroke-width:0.3;"/>
  <line y2="-38.074" x2="54.125" y1="-38.074" x1="46.996" style="fill:none;stroke:#000000;stroke-width:0.3;"/>
  <line y2="-38.074" x2="0" y1="-38.074" x1="5.926" style="fill:none;stroke:#000000;stroke-width:0.3;"/>
  <line y2="-34.793" x2="0" y1="-34.793" x1="12.476" style="fill:none;stroke:#000000;stroke-width:0.3;"/>
  <line y2="-34.793" x2="28.04" y1="-34.793" x1="41.226" style="fill:none;stroke:#000000;stroke-width:0.3;"/>
  <line y2="-34.793" x2="53.968" y1="-34.793" x1="54.125" style="fill:none;stroke:#000000;stroke-width:0.3;"/>
  <line y2="-34.793" x2="53.968" y1="-34.793" x1="41.226" style="fill:none;stroke:#000000;stroke-width:0.3;"/>
  <line y2="-34.793" x2="12.476" y1="-34.793" x1="28.04" style="fill:none;stroke:#000000;stroke-width:0.3;"/>
  <line y2="-31.368" x2="54.125" y1="-31.368" x1="48.663" style="fill:none;stroke:#000000;stroke-width:0.3;"/>
  <line y2="-31.368" x2="20.163" y1="-31.368" x1="48.663" style="fill:none;stroke:#000000;stroke-width:0.3;"/>
  <line y2="-31.368" x2="0" y1="-31.368" x1="20.163" style="fill:none;stroke:#000000;stroke-width:0.3;"/>
  <line y2="-27.317" x2="0" y1="-27.317" x1="54.125" style="fill:none;stroke:#000000;stroke-width:0.3;"/>
  <line y2="-23.518" x2="0" y1="-23.518" x1="54.125" style="fill:none;stroke:#000000;stroke-width:0.3;"/>
  <line y2="-19.317" x2="0" y1="-19.317" x1="54.125" style="fill:none;stroke:#000000;stroke-width:0.3;"/>
  <line y2="-16.093" x2="0" y1="-16.093" x1="54.125" style="fill:none;stroke:#000000;stroke-width:0.3;"/>
  <line y2="-0.918" x2="50.271" y1="-0.918" x1="46.551" style="fill:none;stroke:#000000;stroke-width:0.3;"/>
  <line y2="-0.918" x2="50.271" y1="-0.918" x1="54.125" style="fill:none;stroke:#000000;stroke-width:0.3;"/>
  <line y2="-0.918" x2="10.296" y1="-0.918" x1="7.312" style="fill:none;stroke:#000000;stroke-width:0.3;"/>
  <line y2="-0.918" x2="18.676" y1="-0.918" x1="10.296" style="fill:none;stroke:#000000;stroke-width:0.3;"/>
  <line y2="-0.918" x2="46.551" y1="-0.918" x1="38.358" style="fill:none;stroke:#000000;stroke-width:0.3;"/>
  <line y2="-0.918" x2="23.271" y1="-0.918" x1="18.676" style="fill:none;stroke:#000000;stroke-width:0.3;"/>
  <line y2="-0.918" x2="23.271" y1="-0.918" x1="33.44" style="fill:none;stroke:#000000;stroke-width:0.3;"/>
  <line y2="-0.918" x2="33.44" y1="-0.918" x1="38.358" style="fill:none;stroke:#000000;stroke-width:0.3;"/>
  <line y2="-0.918" x2="0" y1="-0.918" x1="7.312" style="fill:none;stroke:#000000;stroke-width:0.3;"/>
  <line y2="-50.455" x2="4.425" y1="-54.205" x1="6.773" style="fill:none;stroke:#000000;stroke-width:0.3;"/>
  <line y2="-50.455" x2="18.676" y1="-54.205" x1="18.676" style="fill:none;stroke:#000000;stroke-width:0.3;"/>
  <line y2="-54.205" x2="32.943" y1="-50.455" x1="30.675" style="fill:none;stroke:#000000;stroke-width:0.3;"/>
  <line y2="-50.455" x2="46.551" y1="-54.205" x1="46.551" style="fill:none;stroke:#000000;stroke-width:0.3;"/>
  <line y2="-46.293" x2="11.101" y1="-50.455" x1="13.625" style="fill:none;stroke:#000000;stroke-width:0.3;"/>
  <line y2="-50.518" x2="27.476" y1="-50.455" x1="27.476" style="fill:none;stroke:#000000;stroke-width:0.3;"/>
  <line y2="-46.293" x2="27.476" y1="-50.455" x1="27.476" style="fill:none;stroke:#000000;stroke-width:0.3;"/>
  <line y2="-46.293" x2="39.601" y1="-50.393" x1="42.188" style="fill:none;stroke:#000000;stroke-width:0.3;"/>
  <line y2="-46.293" x2="53.926" y1="-50.455" x1="53.926" style="fill:none;stroke:#000000;stroke-width:0.3;"/>
  <line y2="-50.455" x2="53.926" y1="-50.518" x1="53.926" style="fill:none;stroke:#000000;stroke-width:0.3;"/>
  <line y2="-46.268" x2="8.125" y1="-42.105" x1="5.538" style="fill:none;stroke:#000000;stroke-width:0.3;"/>
  <line y2="-46.155" x2="20.288" y1="-42.105" x1="20.288" style="fill:none;stroke:#000000;stroke-width:0.3;"/>
  <line y2="-46.268" x2="34.875" y1="-42.105" x1="32.351" style="fill:none;stroke:#000000;stroke-width:0.3;"/>
  <line y2="-46.155" x2="48.788" y1="-42.105" x1="48.788" style="fill:none;stroke:#000000;stroke-width:0.3;"/>
  <line y2="-42.093" x2="41.156" y1="-38.105" x1="38.663" style="fill:none;stroke:#000000;stroke-width:0.3;"/>
  <line y2="-42.143" x2="41.188" y1="-42.093" x1="41.156" style="fill:none;stroke:#000000;stroke-width:0.3;"/>
  <line y2="-42.105" x2="26.788" y1="-42.093" x1="26.788" style="fill:none;stroke:#000000;stroke-width:0.3;"/>
  <line y2="-38.105" x2="26.788" y1="-42.093" x1="26.788" style="fill:none;stroke:#000000;stroke-width:0.3;"/>
  <line y2="-42.08" x2="12.875" y1="-38.105" x1="10.413" style="fill:none;stroke:#000000;stroke-width:0.3;"/>
  <line y2="-42.093" x2="53.413" y1="-38.105" x1="53.413" style="fill:none;stroke:#000000;stroke-width:0.3;"/>
  <line y2="-42.093" x2="53.413" y1="-42.105" x1="53.413" style="fill:none;stroke:#000000;stroke-width:0.3;"/>
  <line y2="-34.806" x2="45.051" y1="-38.074" x1="46.996" style="fill:none;stroke:#000000;stroke-width:0.3;"/>
  <line y2="-38.08" x2="47" y1="-38.074" x1="46.996" style="fill:none;stroke:#000000;stroke-width:0.3;"/>
  <line y2="-38.074" x2="31.926" y1="-34.806" x1="31.926" style="fill:none;stroke:#000000;stroke-width:0.3;"/>
  <line y2="-38.105" x2="31.926" y1="-38.074" x1="31.926" style="fill:none;stroke:#000000;stroke-width:0.3;"/>
  <line y2="-38.018" x2="19.188" y1="-34.806" x1="17.176" style="fill:none;stroke:#000000;stroke-width:0.3;"/>
  <line y2="-38.105" x2="5.926" y1="-38.074" x1="5.926" style="fill:none;stroke:#000000;stroke-width:0.3;"/>
  <line y2="-34.806" x2="5.926" y1="-38.074" x1="5.926" style="fill:none;stroke:#000000;stroke-width:0.3;"/>
  <line y2="-31.38" x2="12.476" y1="-34.793" x1="12.476" style="fill:none;stroke:#000000;stroke-width:0.3;"/>
  <line y2="-34.806" x2="12.476" y1="-34.793" x1="12.476" style="fill:none;stroke:#000000;stroke-width:0.3;"/>
  <line y2="-31.38" x2="25.976" y1="-34.793" x1="28.04" style="fill:none;stroke:#000000;stroke-width:0.3;"/>
  <line y2="-34.83" x2="28.062" y1="-34.793" x1="28.04" style="fill:none;stroke:#000000;stroke-width:0.3;"/>
  <line y2="-34.806" x2="41.226" y1="-34.793" x1="41.226" style="fill:none;stroke:#000000;stroke-width:0.3;"/>
  <line y2="-31.38" x2="41.226" y1="-34.793" x1="41.226" style="fill:none;stroke:#000000;stroke-width:0.3;"/>
  <line y2="-34.793" x2="53.968" y1="-31.393" x1="51.812" style="fill:none;stroke:#000000;stroke-width:0.3;"/>
  <line y2="-34.793" x2="53.968" y1="-34.806" x1="53.976" style="fill:none;stroke:#000000;stroke-width:0.3;"/>
  <line y2="-31.33" x2="7.688" y1="-27.33" x1="5.163" style="fill:none;stroke:#000000;stroke-width:0.3;"/>
  <line y2="-27.33" x2="20.163" y1="-31.368" x1="20.163" style="fill:none;stroke:#000000;stroke-width:0.3;"/>
  <line y2="-31.38" x2="20.163" y1="-31.368" x1="20.163" style="fill:none;stroke:#000000;stroke-width:0.3;"/>
  <line y2="-27.33" x2="32.288" y1="-31.33" x1="34.812" style="fill:none;stroke:#000000;stroke-width:0.3;"/>
  <line y2="-31.38" x2="48.663" y1="-31.368" x1="48.663" style="fill:none;stroke:#000000;stroke-width:0.3;"/>
  <line y2="-27.33" x2="48.663" y1="-31.368" x1="48.663" style="fill:none;stroke:#000000;stroke-width:0.3;"/>
  <line y2="-27.268" x2="40.812" y1="-23.53" x1="38.538" style="fill:none;stroke:#000000;stroke-width:0.3;"/>
  <line y2="-27.268" x2="26.713" y1="-23.53" x1="26.713" style="fill:none;stroke:#000000;stroke-width:0.3;"/>
  <line y2="-27.268" x2="12.5" y1="-23.53" x1="10.213" style="fill:none;stroke:#000000;stroke-width:0.3;"/>
  <line y2="-27.268" x2="53.267" y1="-23.53" x1="53.267" style="fill:none;stroke:#000000;stroke-width:0.3;"/>
  <line y2="-23.393" x2="6.562" y1="-19.33" x1="4.025" style="fill:none;stroke:#000000;stroke-width:0.3;"/>
  <line y2="-23.468" x2="18.525" y1="-19.33" x1="18.525" style="fill:none;stroke:#000000;stroke-width:0.3;"/>
  <line y2="-23.455" x2="33.25" y1="-19.33" x1="30.65" style="fill:none;stroke:#000000;stroke-width:0.3;"/>
  <line y2="-23.468" x2="46.4" y1="-19.33" x1="46.4" style="fill:none;stroke:#000000;stroke-width:0.3;"/>
  <line y2="-19.268" x2="42.625" y1="-16.105" x1="40.7" style="fill:none;stroke:#000000;stroke-width:0.3;"/>
  <line y2="-19.268" x2="28.051" y1="-16.105" x1="28.051" style="fill:none;stroke:#000000;stroke-width:0.3;"/>
  <line y2="-19.205" x2="13.312" y1="-16.105" x1="11.426" style="fill:none;stroke:#000000;stroke-width:0.3;"/>
  <line y2="-19.268" x2="0.509" y1="-16.105" x1="0.509" style="fill:none;stroke:#000000;stroke-width:0.3;"/>
  <line y2="-16.08" x2="7.688" y1="-12.481" x1="5.384" style="fill:none;stroke:#000000;stroke-width:0.3;"/>
  <line y2="-16.043" x2="20.134" y1="-12.481" x1="20.134" style="fill:none;stroke:#000000;stroke-width:0.3;"/>
  <line y2="-16.08" x2="34.5" y1="-12.481" x1="32.259" style="fill:none;stroke:#000000;stroke-width:0.3;"/>
  <line y2="-16.043" x2="48.634" y1="-12.481" x1="48.634" style="fill:none;stroke:#000000;stroke-width:0.3;"/>
  <line y2="-12.481" x2="41.103" y1="-8.705" x1="38.807" style="fill:none;stroke:#000000;stroke-width:0.3;"/>
  <line y2="-12.518" x2="41.125" y1="-12.481" x1="41.103" style="fill:none;stroke:#000000;stroke-width:0.3;"/>
  <line y2="-8.668" x2="38.784" y1="-8.705" x1="38.807" style="fill:none;stroke:#000000;stroke-width:0.3;"/>
  <line y2="-8.668" x2="26.409" y1="-8.705" x1="26.409" style="fill:none;stroke:#000000;stroke-width:0.3;"/>
  <line y2="-12.43" x2="26.409" y1="-8.705" x1="26.409" style="fill:none;stroke:#000000;stroke-width:0.3;"/>
  <line y2="-8.668" x2="10.358" y1="-8.705" x1="10.381" style="fill:none;stroke:#000000;stroke-width:0.3;"/>
  <line y2="-12.481" x2="12.665" y1="-8.705" x1="10.381" style="fill:none;stroke:#000000;stroke-width:0.3;"/>
  <line y2="-12.518" x2="12.688" y1="-12.481" x1="12.665" style="fill:none;stroke:#000000;stroke-width:0.3;"/>
  <line y2="-8.668" x2="53.733" y1="-8.705" x1="53.733" style="fill:none;stroke:#000000;stroke-width:0.3;"/>
  <line y2="-12.43" x2="53.733" y1="-8.705" x1="53.733" style="fill:none;stroke:#000000;stroke-width:0.3;"/>
  <line y2="-4.293" x2="52.353" y1="-4.293" x1="38.358" style="fill:none;stroke:#000000;stroke-width:0.3;"/>
  <line y2="-4.293" x2="25.29" y1="-4.293" x1="38.358" style="fill:none;stroke:#000000;stroke-width:0.3;"/>
  <line y2="-4.293" x2="25.29" y1="-4.293" x1="10.296" style="fill:none;stroke:#000000;stroke-width:0.3;"/>
  <line y2="-4.293" x2="52.353" y1="-4.293" x1="54.125" style="fill:none;stroke:#000000;stroke-width:0.3;"/>
  <line y2="-4.293" x2="0" y1="-4.293" x1="10.296" style="fill:none;stroke:#000000;stroke-width:0.3;"/>
  <line y2="-4.318" x2="10.296" y1="-4.293" x1="10.296" style="fill:none;stroke:#000000;stroke-width:0.3;"/>
  <line y2="-0.918" x2="10.296" y1="-0.855" x1="10.296" style="fill:none;stroke:#000000;stroke-width:0.3;"/>
  <line y2="-0.918" x2="10.296" y1="-4.293" x1="10.296" style="fill:none;stroke:#000000;stroke-width:0.3;"/>
  <line y2="-4.293" x2="25.29" y1="-4.33" x1="25.312" style="fill:none;stroke:#000000;stroke-width:0.3;"/>
  <line y2="-0.918" x2="23.271" y1="-4.293" x1="25.29" style="fill:none;stroke:#000000;stroke-width:0.3;"/>
  <line y2="-0.918" x2="23.271" y1="-0.855" x1="23.233" style="fill:none;stroke:#000000;stroke-width:0.3;"/>
  <line y2="-0.855" x2="38.358" y1="-0.918" x1="38.358" style="fill:none;stroke:#000000;stroke-width:0.3;"/>
  <line y2="-4.318" x2="38.358" y1="-4.293" x1="38.358" style="fill:none;stroke:#000000;stroke-width:0.3;"/>
  <line y2="-0.918" x2="38.358" y1="-4.293" x1="38.358" style="fill:none;stroke:#000000;stroke-width:0.3;"/>
  <line y2="-4.293" x2="52.353" y1="-4.33" x1="52.375" style="fill:none;stroke:#000000;stroke-width:0.3;"/>
  <line y2="-0.918" x2="50.271" y1="-4.293" x1="52.353" style="fill:none;stroke:#000000;stroke-width:0.3;"/>
  <line y2="-0.918" x2="50.271" y1="-0.855" x1="50.233" style="fill:none;stroke:#000000;stroke-width:0.3;"/>
  <line y2="-8.668" x2="4.571" y1="-4.318" x1="4.571" style="fill:none;stroke:#000000;stroke-width:0.3;"/>
  <line y2="-4.318" x2="16.071" y1="-8.58" x1="18.75" style="fill:none;stroke:#000000;stroke-width:0.3;"/>
  <line y2="-4.318" x2="31.571" y1="-8.668" x1="31.571" style="fill:none;stroke:#000000;stroke-width:0.3;"/>
  <line y2="-4.318" x2="44.634" y1="-8.643" x1="47.25" style="fill:none;stroke:#000000;stroke-width:0.3;"/>
  <line y2="-0.08" x2="18.676" y1="-0.918" x1="18.676" style="fill:none;stroke:#000000;stroke-width:0.3;"/>
  <line y2="-0.08" x2="46.551" y1="-0.918" x1="46.551" style="fill:none;stroke:#000000;stroke-width:0.3;"/>
  <line y2="-0.08" x2="6.785" y1="-0.918" x1="7.312" style="fill:none;stroke:#000000;stroke-width:0.3;"/>
  <line y2="-1.018" x2="7.375" y1="-0.918" x1="7.312" style="fill:none;stroke:#000000;stroke-width:0.3;"/>
  <line y2="-0.918" x2="33.44" y1="-0.08" x1="32.935" style="fill:none;stroke:#000000;stroke-width:0.3;"/>
  <line y2="-0.918" x2="33.44" y1="-1.018" x1="33.5" style="fill:none;stroke:#000000;stroke-width:0.3;"/>
 </g>
</svg>
