<?xml version="1.0"?>
<!-- Converted with SVG Converter - Version 0.9.5 (Compiled Fri Feb 21 09:53:38 2020) - Copyright (C) 2011 Nokia -->
<svg xmlns="http://www.w3.org/2000/svg" x="0px" xml:space="preserve" viewBox="0 -54.205 54.125 54.125" baseProfile="tiny" height="54.125" y="0px" width="54.125" xmlns:xlink="http://www.w3.org/1999/xlink" version="1.1">
 <g>
  <rect height="54.125" y="-54.205" width="54.125" style="fill:none;"/>
  <line y2="-50.455" x1="54.125" y1="-50.455" style="fill:none;stroke:#000000;stroke-width:0.3;" x2="53.926"/>
  <line y2="-50.455" x1="27.476" y1="-50.455" style="fill:none;stroke:#000000;stroke-width:0.3;" x2="18.676"/>
  <line y2="-50.455" x1="53.926" y1="-50.455" style="fill:none;stroke:#000000;stroke-width:0.3;" x2="46.551"/>
  <line y2="-50.455" x1="13.625" y1="-50.455" style="fill:none;stroke:#000000;stroke-width:0.3;" x2="18.676"/>
  <line y2="-50.455" x1="4.425" y1="-50.455" style="fill:none;stroke:#000000;stroke-width:0.3;" x2="0"/>
  <line y2="-50.455" x1="30.675" y1="-50.455" style="fill:none;stroke:#000000;stroke-width:0.3;" x2="46.551"/>
  <line y2="-50.455" x1="13.625" y1="-50.455" style="fill:none;stroke:#000000;stroke-width:0.3;" x2="4.425"/>
  <line y2="-50.455" x1="27.476" y1="-50.455" style="fill:none;stroke:#000000;stroke-width:0.3;" x2="30.675"/>
  <line y2="-46.28" x1="54.125" y1="-46.28" style="fill:none;stroke:#000000;stroke-width:0.3;" x2="0"/>
  <line y2="-42.093" x1="54.125" y1="-42.093" style="fill:none;stroke:#000000;stroke-width:0.3;" x2="53.413"/>
  <line y2="-42.093" x1="41.156" y1="-42.093" style="fill:none;stroke:#000000;stroke-width:0.3;" x2="53.413"/>
  <line y2="-42.093" x1="26.788" y1="-42.093" style="fill:none;stroke:#000000;stroke-width:0.3;" x2="41.156"/>
  <line y2="-42.093" x1="26.788" y1="-42.093" style="fill:none;stroke:#000000;stroke-width:0.3;" x2="0"/>
  <line y2="-12.481" x1="20.134" y1="-12.481" style="fill:none;stroke:#000000;stroke-width:0.3;" x2="32.259"/>
  <line y2="-12.481" x1="12.665" y1="-12.481" style="fill:none;stroke:#000000;stroke-width:0.3;" x2="20.134"/>
  <line y2="-12.481" x1="32.259" y1="-12.481" style="fill:none;stroke:#000000;stroke-width:0.3;" x2="41.103"/>
  <line y2="-12.481" x1="41.103" y1="-12.481" style="fill:none;stroke:#000000;stroke-width:0.3;" x2="48.634"/>
  <line y2="-12.481" x1="5.384" y1="-12.481" style="fill:none;stroke:#000000;stroke-width:0.3;" x2="12.665"/>
  <line y2="-12.481" x1="5.384" y1="-12.481" style="fill:none;stroke:#000000;stroke-width:0.3;" x2="0"/>
  <line y2="-12.481" x1="48.634" y1="-12.481" style="fill:none;stroke:#000000;stroke-width:0.3;" x2="54.125"/>
  <line y2="-8.705" x1="38.807" y1="-8.705" style="fill:none;stroke:#000000;stroke-width:0.3;" x2="26.409"/>
  <line y2="-8.705" x1="10.381" y1="-8.705" style="fill:none;stroke:#000000;stroke-width:0.3;" x2="26.409"/>
  <line y2="-8.705" x1="38.807" y1="-8.705" style="fill:none;stroke:#000000;stroke-width:0.3;" x2="53.733"/>
  <line y2="-8.705" x1="53.733" y1="-8.705" style="fill:none;stroke:#000000;stroke-width:0.3;" x2="54.125"/>
  <line y2="-8.705" x1="10.381" y1="-8.705" style="fill:none;stroke:#000000;stroke-width:0.3;" x2="0"/>
  <line y2="-38.074" x1="5.926" y1="-38.074" style="fill:none;stroke:#000000;stroke-width:0.3;" x2="31.926"/>
  <line y2="-38.074" x1="46.996" y1="-38.074" style="fill:none;stroke:#000000;stroke-width:0.3;" x2="31.926"/>
  <line y2="-38.074" x1="46.996" y1="-38.074" style="fill:none;stroke:#000000;stroke-width:0.3;" x2="54.125"/>
  <line y2="-38.074" x1="5.926" y1="-38.074" style="fill:none;stroke:#000000;stroke-width:0.3;" x2="0"/>
  <line y2="-34.793" x1="12.476" y1="-34.793" style="fill:none;stroke:#000000;stroke-width:0.3;" x2="0"/>
  <line y2="-34.793" x1="41.226" y1="-34.793" style="fill:none;stroke:#000000;stroke-width:0.3;" x2="28.04"/>
  <line y2="-34.793" x1="54.125" y1="-34.793" style="fill:none;stroke:#000000;stroke-width:0.3;" x2="53.968"/>
  <line y2="-34.793" x1="41.226" y1="-34.793" style="fill:none;stroke:#000000;stroke-width:0.3;" x2="53.968"/>
  <line y2="-34.793" x1="28.04" y1="-34.793" style="fill:none;stroke:#000000;stroke-width:0.3;" x2="12.476"/>
  <line y2="-31.368" x1="48.663" y1="-31.368" style="fill:none;stroke:#000000;stroke-width:0.3;" x2="54.125"/>
  <line y2="-31.368" x1="48.663" y1="-31.368" style="fill:none;stroke:#000000;stroke-width:0.3;" x2="20.163"/>
  <line y2="-31.368" x1="20.163" y1="-31.368" style="fill:none;stroke:#000000;stroke-width:0.3;" x2="0"/>
  <line y2="-27.317" x1="54.125" y1="-27.317" style="fill:none;stroke:#000000;stroke-width:0.3;" x2="0"/>
  <line y2="-23.518" x1="54.125" y1="-23.518" style="fill:none;stroke:#000000;stroke-width:0.3;" x2="0"/>
  <line y2="-19.317" x1="54.125" y1="-19.317" style="fill:none;stroke:#000000;stroke-width:0.3;" x2="0"/>
  <line y2="-16.093" x1="54.125" y1="-16.093" style="fill:none;stroke:#000000;stroke-width:0.3;" x2="0"/>
  <line y2="-0.918" x1="46.551" y1="-0.918" style="fill:none;stroke:#000000;stroke-width:0.3;" x2="50.271"/>
  <line y2="-0.918" x1="54.125" y1="-0.918" style="fill:none;stroke:#000000;stroke-width:0.3;" x2="50.271"/>
  <line y2="-0.918" x1="7.312" y1="-0.918" style="fill:none;stroke:#000000;stroke-width:0.3;" x2="10.296"/>
  <line y2="-0.918" x1="10.296" y1="-0.918" style="fill:none;stroke:#000000;stroke-width:0.3;" x2="18.676"/>
  <line y2="-0.918" x1="38.358" y1="-0.918" style="fill:none;stroke:#000000;stroke-width:0.3;" x2="46.551"/>
  <line y2="-0.918" x1="18.676" y1="-0.918" style="fill:none;stroke:#000000;stroke-width:0.3;" x2="23.271"/>
  <line y2="-0.918" x1="33.44" y1="-0.918" style="fill:none;stroke:#000000;stroke-width:0.3;" x2="23.271"/>
  <line y2="-0.918" x1="38.358" y1="-0.918" style="fill:none;stroke:#000000;stroke-width:0.3;" x2="33.44"/>
  <line y2="-0.918" x1="7.312" y1="-0.918" style="fill:none;stroke:#000000;stroke-width:0.3;" x2="0"/>
  <line y2="-50.455" x1="6.773" y1="-54.205" style="fill:none;stroke:#000000;stroke-width:0.3;" x2="4.425"/>
  <line y2="-50.455" x1="18.676" y1="-54.205" style="fill:none;stroke:#000000;stroke-width:0.3;" x2="18.676"/>
  <line y2="-54.205" x1="30.675" y1="-50.455" style="fill:none;stroke:#000000;stroke-width:0.3;" x2="32.943"/>
  <line y2="-50.455" x1="46.551" y1="-54.205" style="fill:none;stroke:#000000;stroke-width:0.3;" x2="46.551"/>
  <line y2="-46.293" x1="13.625" y1="-50.455" style="fill:none;stroke:#000000;stroke-width:0.3;" x2="11.101"/>
  <line y2="-50.518" x1="27.476" y1="-50.455" style="fill:none;stroke:#000000;stroke-width:0.3;" x2="27.476"/>
  <line y2="-46.293" x1="27.476" y1="-50.455" style="fill:none;stroke:#000000;stroke-width:0.3;" x2="27.476"/>
  <line y2="-46.293" x1="42.188" y1="-50.393" style="fill:none;stroke:#000000;stroke-width:0.3;" x2="39.601"/>
  <line y2="-46.293" x1="53.926" y1="-50.455" style="fill:none;stroke:#000000;stroke-width:0.3;" x2="53.926"/>
  <line y2="-50.455" x1="53.926" y1="-50.518" style="fill:none;stroke:#000000;stroke-width:0.3;" x2="53.926"/>
  <line y2="-46.268" x1="5.538" y1="-42.105" style="fill:none;stroke:#000000;stroke-width:0.3;" x2="8.125"/>
  <line y2="-46.155" x1="20.288" y1="-42.105" style="fill:none;stroke:#000000;stroke-width:0.3;" x2="20.288"/>
  <line y2="-46.268" x1="32.351" y1="-42.105" style="fill:none;stroke:#000000;stroke-width:0.3;" x2="34.875"/>
  <line y2="-46.155" x1="48.788" y1="-42.105" style="fill:none;stroke:#000000;stroke-width:0.3;" x2="48.788"/>
  <line y2="-42.093" x1="38.663" y1="-38.105" style="fill:none;stroke:#000000;stroke-width:0.3;" x2="41.156"/>
  <line y2="-42.143" x1="41.156" y1="-42.093" style="fill:none;stroke:#000000;stroke-width:0.3;" x2="41.188"/>
  <line y2="-42.105" x1="26.788" y1="-42.093" style="fill:none;stroke:#000000;stroke-width:0.3;" x2="26.788"/>
  <line y2="-38.105" x1="26.788" y1="-42.093" style="fill:none;stroke:#000000;stroke-width:0.3;" x2="26.788"/>
  <line y2="-42.08" x1="10.413" y1="-38.105" style="fill:none;stroke:#000000;stroke-width:0.3;" x2="12.875"/>
  <line y2="-42.093" x1="53.413" y1="-38.105" style="fill:none;stroke:#000000;stroke-width:0.3;" x2="53.413"/>
  <line y2="-42.093" x1="53.413" y1="-42.105" style="fill:none;stroke:#000000;stroke-width:0.3;" x2="53.413"/>
  <line y2="-34.806" x1="46.996" y1="-38.074" style="fill:none;stroke:#000000;stroke-width:0.3;" x2="45.051"/>
  <line y2="-38.08" x1="46.996" y1="-38.074" style="fill:none;stroke:#000000;stroke-width:0.3;" x2="47"/>
  <line y2="-38.074" x1="31.926" y1="-34.806" style="fill:none;stroke:#000000;stroke-width:0.3;" x2="31.926"/>
  <line y2="-38.105" x1="31.926" y1="-38.074" style="fill:none;stroke:#000000;stroke-width:0.3;" x2="31.926"/>
  <line y2="-38.018" x1="17.176" y1="-34.806" style="fill:none;stroke:#000000;stroke-width:0.3;" x2="19.188"/>
  <line y2="-38.105" x1="5.926" y1="-38.074" style="fill:none;stroke:#000000;stroke-width:0.3;" x2="5.926"/>
  <line y2="-34.806" x1="5.926" y1="-38.074" style="fill:none;stroke:#000000;stroke-width:0.3;" x2="5.926"/>
  <line y2="-31.38" x1="12.476" y1="-34.793" style="fill:none;stroke:#000000;stroke-width:0.3;" x2="12.476"/>
  <line y2="-34.806" x1="12.476" y1="-34.793" style="fill:none;stroke:#000000;stroke-width:0.3;" x2="12.476"/>
  <line y2="-31.38" x1="28.04" y1="-34.793" style="fill:none;stroke:#000000;stroke-width:0.3;" x2="25.976"/>
  <line y2="-34.83" x1="28.04" y1="-34.793" style="fill:none;stroke:#000000;stroke-width:0.3;" x2="28.062"/>
  <line y2="-34.806" x1="41.226" y1="-34.793" style="fill:none;stroke:#000000;stroke-width:0.3;" x2="41.226"/>
  <line y2="-31.38" x1="41.226" y1="-34.793" style="fill:none;stroke:#000000;stroke-width:0.3;" x2="41.226"/>
  <line y2="-34.793" x1="51.812" y1="-31.393" style="fill:none;stroke:#000000;stroke-width:0.3;" x2="53.968"/>
  <line y2="-34.793" x1="53.976" y1="-34.806" style="fill:none;stroke:#000000;stroke-width:0.3;" x2="53.968"/>
  <line y2="-31.33" x1="5.163" y1="-27.33" style="fill:none;stroke:#000000;stroke-width:0.3;" x2="7.688"/>
  <line y2="-27.33" x1="20.163" y1="-31.368" style="fill:none;stroke:#000000;stroke-width:0.3;" x2="20.163"/>
  <line y2="-31.38" x1="20.163" y1="-31.368" style="fill:none;stroke:#000000;stroke-width:0.3;" x2="20.163"/>
  <line y2="-27.33" x1="34.812" y1="-31.33" style="fill:none;stroke:#000000;stroke-width:0.3;" x2="32.288"/>
  <line y2="-31.38" x1="48.663" y1="-31.368" style="fill:none;stroke:#000000;stroke-width:0.3;" x2="48.663"/>
  <line y2="-27.33" x1="48.663" y1="-31.368" style="fill:none;stroke:#000000;stroke-width:0.3;" x2="48.663"/>
  <line y2="-27.268" x1="38.538" y1="-23.53" style="fill:none;stroke:#000000;stroke-width:0.3;" x2="40.812"/>
  <line y2="-27.268" x1="26.713" y1="-23.53" style="fill:none;stroke:#000000;stroke-width:0.3;" x2="26.713"/>
  <line y2="-27.268" x1="10.213" y1="-23.53" style="fill:none;stroke:#000000;stroke-width:0.3;" x2="12.5"/>
  <line y2="-27.268" x1="53.267" y1="-23.53" style="fill:none;stroke:#000000;stroke-width:0.3;" x2="53.267"/>
  <line y2="-23.393" x1="4.025" y1="-19.33" style="fill:none;stroke:#000000;stroke-width:0.3;" x2="6.562"/>
  <line y2="-23.468" x1="18.525" y1="-19.33" style="fill:none;stroke:#000000;stroke-width:0.3;" x2="18.525"/>
  <line y2="-23.455" x1="30.65" y1="-19.33" style="fill:none;stroke:#000000;stroke-width:0.3;" x2="33.25"/>
  <line y2="-23.468" x1="46.4" y1="-19.33" style="fill:none;stroke:#000000;stroke-width:0.3;" x2="46.4"/>
  <line y2="-19.268" x1="40.7" y1="-16.105" style="fill:none;stroke:#000000;stroke-width:0.3;" x2="42.625"/>
  <line y2="-19.268" x1="28.051" y1="-16.105" style="fill:none;stroke:#000000;stroke-width:0.3;" x2="28.051"/>
  <line y2="-19.205" x1="11.426" y1="-16.105" style="fill:none;stroke:#000000;stroke-width:0.3;" x2="13.312"/>
  <line y2="-19.268" x1="0.509" y1="-16.105" style="fill:none;stroke:#000000;stroke-width:0.3;" x2="0.509"/>
  <line y2="-16.08" x1="5.384" y1="-12.481" style="fill:none;stroke:#000000;stroke-width:0.3;" x2="7.688"/>
  <line y2="-16.043" x1="20.134" y1="-12.481" style="fill:none;stroke:#000000;stroke-width:0.3;" x2="20.134"/>
  <line y2="-16.08" x1="32.259" y1="-12.481" style="fill:none;stroke:#000000;stroke-width:0.3;" x2="34.5"/>
  <line y2="-16.043" x1="48.634" y1="-12.481" style="fill:none;stroke:#000000;stroke-width:0.3;" x2="48.634"/>
  <line y2="-12.481" x1="38.807" y1="-8.705" style="fill:none;stroke:#000000;stroke-width:0.3;" x2="41.103"/>
  <line y2="-12.518" x1="41.103" y1="-12.481" style="fill:none;stroke:#000000;stroke-width:0.3;" x2="41.125"/>
  <line y2="-8.668" x1="38.807" y1="-8.705" style="fill:none;stroke:#000000;stroke-width:0.3;" x2="38.784"/>
  <line y2="-8.668" x1="26.409" y1="-8.705" style="fill:none;stroke:#000000;stroke-width:0.3;" x2="26.409"/>
  <line y2="-12.43" x1="26.409" y1="-8.705" style="fill:none;stroke:#000000;stroke-width:0.3;" x2="26.409"/>
  <line y2="-8.668" x1="10.381" y1="-8.705" style="fill:none;stroke:#000000;stroke-width:0.3;" x2="10.358"/>
  <line y2="-12.481" x1="10.381" y1="-8.705" style="fill:none;stroke:#000000;stroke-width:0.3;" x2="12.665"/>
  <line y2="-12.518" x1="12.665" y1="-12.481" style="fill:none;stroke:#000000;stroke-width:0.3;" x2="12.688"/>
  <line y2="-8.668" x1="53.733" y1="-8.705" style="fill:none;stroke:#000000;stroke-width:0.3;" x2="53.733"/>
  <line y2="-12.43" x1="53.733" y1="-8.705" style="fill:none;stroke:#000000;stroke-width:0.3;" x2="53.733"/>
  <line y2="-4.293" x1="38.358" y1="-4.293" style="fill:none;stroke:#000000;stroke-width:0.3;" x2="52.353"/>
  <line y2="-4.293" x1="38.358" y1="-4.293" style="fill:none;stroke:#000000;stroke-width:0.3;" x2="25.29"/>
  <line y2="-4.293" x1="10.296" y1="-4.293" style="fill:none;stroke:#000000;stroke-width:0.3;" x2="25.29"/>
  <line y2="-4.293" x1="54.125" y1="-4.293" style="fill:none;stroke:#000000;stroke-width:0.3;" x2="52.353"/>
  <line y2="-4.293" x1="10.296" y1="-4.293" style="fill:none;stroke:#000000;stroke-width:0.3;" x2="0"/>
  <line y2="-4.318" x1="10.296" y1="-4.293" style="fill:none;stroke:#000000;stroke-width:0.3;" x2="10.296"/>
  <line y2="-0.918" x1="10.296" y1="-0.855" style="fill:none;stroke:#000000;stroke-width:0.3;" x2="10.296"/>
  <line y2="-0.918" x1="10.296" y1="-4.293" style="fill:none;stroke:#000000;stroke-width:0.3;" x2="10.296"/>
  <line y2="-4.293" x1="25.312" y1="-4.33" style="fill:none;stroke:#000000;stroke-width:0.3;" x2="25.29"/>
  <line y2="-0.918" x1="25.29" y1="-4.293" style="fill:none;stroke:#000000;stroke-width:0.3;" x2="23.271"/>
  <line y2="-0.918" x1="23.233" y1="-0.855" style="fill:none;stroke:#000000;stroke-width:0.3;" x2="23.271"/>
  <line y2="-0.855" x1="38.358" y1="-0.918" style="fill:none;stroke:#000000;stroke-width:0.3;" x2="38.358"/>
  <line y2="-4.318" x1="38.358" y1="-4.293" style="fill:none;stroke:#000000;stroke-width:0.3;" x2="38.358"/>
  <line y2="-0.918" x1="38.358" y1="-4.293" style="fill:none;stroke:#000000;stroke-width:0.3;" x2="38.358"/>
  <line y2="-4.293" x1="52.375" y1="-4.33" style="fill:none;stroke:#000000;stroke-width:0.3;" x2="52.353"/>
  <line y2="-0.918" x1="52.353" y1="-4.293" style="fill:none;stroke:#000000;stroke-width:0.3;" x2="50.271"/>
  <line y2="-0.918" x1="50.233" y1="-0.855" style="fill:none;stroke:#000000;stroke-width:0.3;" x2="50.271"/>
  <line y2="-8.668" x1="4.571" y1="-4.318" style="fill:none;stroke:#000000;stroke-width:0.3;" x2="4.571"/>
  <line y2="-4.318" x1="18.75" y1="-8.58" style="fill:none;stroke:#000000;stroke-width:0.3;" x2="16.071"/>
  <line y2="-4.318" x1="31.571" y1="-8.668" style="fill:none;stroke:#000000;stroke-width:0.3;" x2="31.571"/>
  <line y2="-4.318" x1="47.25" y1="-8.643" style="fill:none;stroke:#000000;stroke-width:0.3;" x2="44.634"/>
  <line y2="-0.08" x1="18.676" y1="-0.918" style="fill:none;stroke:#000000;stroke-width:0.3;" x2="18.676"/>
  <line y2="-0.08" x1="46.551" y1="-0.918" style="fill:none;stroke:#000000;stroke-width:0.3;" x2="46.551"/>
  <line y2="-0.08" x1="7.312" y1="-0.918" style="fill:none;stroke:#000000;stroke-width:0.3;" x2="6.785"/>
  <line y2="-1.018" x1="7.312" y1="-0.918" style="fill:none;stroke:#000000;stroke-width:0.3;" x2="7.375"/>
  <line y2="-0.918" x1="32.935" y1="-0.08" style="fill:none;stroke:#000000;stroke-width:0.3;" x2="33.44"/>
  <line y2="-0.918" x1="33.5" y1="-1.018" style="fill:none;stroke:#000000;stroke-width:0.3;" x2="33.44"/>
 </g>
</svg>
