<?xml version="1.0"?>
<!-- Converted with SVG Converter - Version 0.9.6 (Compiled Thu Aug 31 10:01:05 2017) - Copyright (C) 2011 Nokia -->
<svg xmlns="http://www.w3.org/2000/svg" xml:space="preserve" height="54.125" version="1.1" y="0px" xmlns:xlink="http://www.w3.org/1999/xlink" width="54.125" x="0px" baseProfile="tiny" viewBox="0 -54.202 54.125 54.125">
 <g>
  <rect height="54.125" style="fill:none;" y="-54.202" width="54.125"/>
  <line y1="-50.452" style="fill:none;stroke:#000000;stroke-width:0.3;" y2="-50.452" x1="30.774" x2="28.35"/>
  <line y1="-50.452" style="fill:none;stroke:#000000;stroke-width:0.3;" y2="-50.452" x1="42.017" x2="30.774"/>
  <line y1="-50.452" style="fill:none;stroke:#000000;stroke-width:0.3;" y2="-50.452" x1="42.017" x2="45.149"/>
  <line y1="-50.452" style="fill:none;stroke:#000000;stroke-width:0.3;" y2="-50.452" x1="17.337" x2="28.35"/>
  <line y1="-50.452" style="fill:none;stroke:#000000;stroke-width:0.3;" y2="-50.452" x1="54.125" x2="45.149"/>
  <line y1="-50.452" style="fill:none;stroke:#000000;stroke-width:0.3;" y2="-50.452" x1="4.587" x2="17.337"/>
  <line y1="-50.452" style="fill:none;stroke:#000000;stroke-width:0.3;" y2="-50.452" x1="4.587" x2="0"/>
  <line y1="-46.276" style="fill:none;stroke:#000000;stroke-width:0.3;" y2="-46.276" x1="34.781" x2="7.969"/>
  <line y1="-46.276" style="fill:none;stroke:#000000;stroke-width:0.3;" y2="-46.276" x1="54.125" x2="34.781"/>
  <line y1="-46.276" style="fill:none;stroke:#000000;stroke-width:0.3;" y2="-46.276" x1="7.969" x2="0"/>
  <line y1="-42.089" style="fill:none;stroke:#000000;stroke-width:0.3;" y2="-42.089" x1="27.532" x2="12.72"/>
  <line y1="-42.089" style="fill:none;stroke:#000000;stroke-width:0.3;" y2="-42.089" x1="27.532" x2="40.97"/>
  <line y1="-42.089" style="fill:none;stroke:#000000;stroke-width:0.3;" y2="-42.089" x1="40.97" x2="53.782"/>
  <line y1="-42.089" style="fill:none;stroke:#000000;stroke-width:0.3;" y2="-42.089" x1="53.782" x2="54.125"/>
  <line y1="-42.089" style="fill:none;stroke:#000000;stroke-width:0.3;" y2="-42.089" x1="12.72" x2="0"/>
  <line y1="-12.477" style="fill:none;stroke:#000000;stroke-width:0.3;" y2="-12.477" x1="12.602" x2="27.102"/>
  <line y1="-12.477" style="fill:none;stroke:#000000;stroke-width:0.3;" y2="-12.477" x1="41.102" x2="53.683"/>
  <line y1="-12.477" style="fill:none;stroke:#000000;stroke-width:0.3;" y2="-12.477" x1="53.683" x2="54.125"/>
  <line y1="-12.477" style="fill:none;stroke:#000000;stroke-width:0.3;" y2="-12.477" x1="12.602" x2="0"/>
  <line y1="-12.477" style="fill:none;stroke:#000000;stroke-width:0.3;" y2="-12.477" x1="27.102" x2="41.102"/>
  <line y1="-8.701" style="fill:none;stroke:#000000;stroke-width:0.3;" y2="-8.701" x1="5.463" x2="10.288"/>
  <line y1="-8.701" style="fill:none;stroke:#000000;stroke-width:0.3;" y2="-8.701" x1="10.288" x2="18.463"/>
  <line y1="-8.701" style="fill:none;stroke:#000000;stroke-width:0.3;" y2="-8.701" x1="32.463" x2="24.788"/>
  <line y1="-8.701" style="fill:none;stroke:#000000;stroke-width:0.3;" y2="-8.701" x1="18.463" x2="24.788"/>
  <line y1="-8.701" style="fill:none;stroke:#000000;stroke-width:0.3;" y2="-8.701" x1="51.228" x2="54.125"/>
  <line y1="-8.701" style="fill:none;stroke:#000000;stroke-width:0.3;" y2="-8.701" x1="5.463" x2="0"/>
  <line y1="-8.701" style="fill:none;stroke:#000000;stroke-width:0.3;" y2="-8.701" x1="51.228" x2="47.062"/>
  <line y1="-8.701" style="fill:none;stroke:#000000;stroke-width:0.3;" y2="-8.701" x1="47.062" x2="38.788"/>
  <line y1="-8.701" style="fill:none;stroke:#000000;stroke-width:0.3;" y2="-8.701" x1="32.463" x2="38.788"/>
  <line y1="-38.07" style="fill:none;stroke:#000000;stroke-width:0.3;" y2="-38.07" x1="6.621" x2="0"/>
  <line y1="-38.07" style="fill:none;stroke:#000000;stroke-width:0.3;" y2="-38.07" x1="6.621" x2="19.309"/>
  <line y1="-38.07" style="fill:none;stroke:#000000;stroke-width:0.3;" y2="-38.07" x1="47.246" x2="54.125"/>
  <line y1="-38.07" style="fill:none;stroke:#000000;stroke-width:0.3;" y2="-38.07" x1="32.621" x2="19.309"/>
  <line y1="-38.07" style="fill:none;stroke:#000000;stroke-width:0.3;" y2="-38.07" x1="47.246" x2="32.621"/>
  <line y1="-34.789" style="fill:none;stroke:#000000;stroke-width:0.3;" y2="-34.789" x1="28.04" x2="13.04"/>
  <line y1="-34.789" style="fill:none;stroke:#000000;stroke-width:0.3;" y2="-34.789" x1="28.04" x2="41.853"/>
  <line y1="-34.789" style="fill:none;stroke:#000000;stroke-width:0.3;" y2="-34.789" x1="53.912" x2="54.125"/>
  <line y1="-34.789" style="fill:none;stroke:#000000;stroke-width:0.3;" y2="-34.789" x1="53.912" x2="41.853"/>
  <line y1="-34.789" style="fill:none;stroke:#000000;stroke-width:0.3;" y2="-34.789" x1="13.04" x2="0"/>
  <line y1="-31.364" style="fill:none;stroke:#000000;stroke-width:0.3;" y2="-31.364" x1="51.711" x2="54.125"/>
  <line y1="-31.364" style="fill:none;stroke:#000000;stroke-width:0.3;" y2="-31.364" x1="7.484" x2="0"/>
  <line y1="-31.364" style="fill:none;stroke:#000000;stroke-width:0.3;" y2="-31.364" x1="34.609" x2="49.547"/>
  <line y1="-31.364" style="fill:none;stroke:#000000;stroke-width:0.3;" y2="-31.364" x1="34.609" x2="20.922"/>
  <line y1="-31.364" style="fill:none;stroke:#000000;stroke-width:0.3;" y2="-31.364" x1="51.711" x2="49.547"/>
  <line y1="-31.364" style="fill:none;stroke:#000000;stroke-width:0.3;" y2="-31.364" x1="7.484" x2="20.922"/>
  <line y1="-27.315" style="fill:none;stroke:#000000;stroke-width:0.3;" y2="-27.315" x1="27.492" x2="12.492"/>
  <line y1="-27.315" style="fill:none;stroke:#000000;stroke-width:0.3;" y2="-27.315" x1="40.867" x2="27.492"/>
  <line y1="-27.315" style="fill:none;stroke:#000000;stroke-width:0.3;" y2="-27.315" x1="12.492" x2="0"/>
  <line y1="-27.315" style="fill:none;stroke:#000000;stroke-width:0.3;" y2="-27.315" x1="54.055" x2="54.125"/>
  <line y1="-27.315" style="fill:none;stroke:#000000;stroke-width:0.3;" y2="-27.315" x1="54.055" x2="40.867"/>
  <line y1="-23.514" style="fill:none;stroke:#000000;stroke-width:0.3;" y2="-23.514" x1="54.125" x2="0"/>
  <line y1="-19.315" style="fill:none;stroke:#000000;stroke-width:0.3;" y2="-19.315" x1="54.125" x2="0"/>
  <line y1="-16.089" style="fill:none;stroke:#000000;stroke-width:0.3;" y2="-16.089" x1="51.82" x2="0"/>
  <line y1="-16.089" style="fill:none;stroke:#000000;stroke-width:0.3;" y2="-16.089" x1="51.82" x2="54.125"/>
  <line y1="-0.914" style="fill:none;stroke:#000000;stroke-width:0.3;" y2="-0.914" x1="9.015" x2="0"/>
  <line y1="-0.914" style="fill:none;stroke:#000000;stroke-width:0.3;" y2="-0.914" x1="50.39" x2="54.125"/>
  <line y1="-0.914" style="fill:none;stroke:#000000;stroke-width:0.3;" y2="-0.914" x1="9.015" x2="23.327"/>
  <line y1="-0.914" style="fill:none;stroke:#000000;stroke-width:0.3;" y2="-0.914" x1="23.327" x2="37.015"/>
  <line y1="-0.914" style="fill:none;stroke:#000000;stroke-width:0.3;" y2="-0.914" x1="37.015" x2="50.39"/>
  <line y1="-4.289" style="fill:none;stroke:#000000;stroke-width:0.3;" y2="-4.289" x1="54.125" x2="0"/>
  <line y1="-8.701" style="fill:none;stroke:#000000;stroke-width:0.3;" y2="-8.765" x1="5.463" x2="5.5"/>
  <line y1="-8.701" style="fill:none;stroke:#000000;stroke-width:0.3;" y2="-4.314" x1="5.463" x2="2.871"/>
  <line y1="-4.314" style="fill:none;stroke:#000000;stroke-width:0.3;" y2="-8.701" x1="15.871" x2="18.463"/>
  <line y1="-8.701" style="fill:none;stroke:#000000;stroke-width:0.3;" y2="-8.765" x1="18.463" x2="18.5"/>
  <line y1="-8.701" style="fill:none;stroke:#000000;stroke-width:0.3;" y2="-8.765" x1="32.463" x2="32.5"/>
  <line y1="-8.701" style="fill:none;stroke:#000000;stroke-width:0.3;" y2="-4.314" x1="32.463" x2="29.871"/>
  <line y1="-8.702" style="fill:none;stroke:#000000;stroke-width:0.3;" y2="-8.701" x1="47.062" x2="47.062"/>
  <line y1="-8.701" style="fill:none;stroke:#000000;stroke-width:0.3;" y2="-4.314" x1="47.062" x2="44.434"/>
  <line y1="-0.914" style="fill:none;stroke:#000000;stroke-width:0.3;" y2="-4.265" x1="50.39" x2="52.438"/>
  <line y1="-0.914" style="fill:none;stroke:#000000;stroke-width:0.3;" y2="-0.89" x1="50.39" x2="50.375"/>
  <line y1="-0.914" style="fill:none;stroke:#000000;stroke-width:0.3;" y2="-4.265" x1="37.015" x2="39.062"/>
  <line y1="-0.914" style="fill:none;stroke:#000000;stroke-width:0.3;" y2="-0.89" x1="37.015" x2="37"/>
  <line y1="-0.914" style="fill:none;stroke:#000000;stroke-width:0.3;" y2="-0.89" x1="23.327" x2="23.312"/>
  <line y1="-0.914" style="fill:none;stroke:#000000;stroke-width:0.3;" y2="-4.265" x1="23.327" x2="25.375"/>
  <line y1="-0.914" style="fill:none;stroke:#000000;stroke-width:0.3;" y2="-0.89" x1="9.015" x2="9"/>
  <line y1="-0.914" style="fill:none;stroke:#000000;stroke-width:0.3;" y2="-4.265" x1="9.015" x2="11.062"/>
  <line y1="-12.477" style="fill:none;stroke:#000000;stroke-width:0.3;" y2="-12.497" x1="53.683" x2="53.696"/>
  <line y1="-8.701" style="fill:none;stroke:#000000;stroke-width:0.3;" y2="-8.64" x1="51.228" x2="51.188"/>
  <line y1="-8.701" style="fill:none;stroke:#000000;stroke-width:0.3;" y2="-12.477" x1="51.228" x2="53.683"/>
  <line y1="-12.515" style="fill:none;stroke:#000000;stroke-width:0.3;" y2="-16.077" x1="47.312" x2="49.438"/>
  <line y1="-19.39" style="fill:none;stroke:#000000;stroke-width:0.3;" y2="-23.452" x1="44.812" x2="47.375"/>
  <line y1="-16.089" style="fill:none;stroke:#000000;stroke-width:0.3;" y2="-16.077" x1="51.82" x2="51.812"/>
  <line y1="-16.089" style="fill:none;stroke:#000000;stroke-width:0.3;" y2="-19.289" x1="51.82" x2="53.863"/>
  <line y1="-27.315" style="fill:none;stroke:#000000;stroke-width:0.3;" y2="-23.577" x1="54.055" x2="51.812"/>
  <line y1="-27.327" style="fill:none;stroke:#000000;stroke-width:0.3;" y2="-27.315" x1="54.062" x2="54.055"/>
  <line y1="-31.364" style="fill:none;stroke:#000000;stroke-width:0.3;" y2="-31.39" x1="49.547" x2="49.562"/>
  <line y1="-31.364" style="fill:none;stroke:#000000;stroke-width:0.3;" y2="-27.327" x1="49.547" x2="47.125"/>
  <line y1="-34.789" style="fill:none;stroke:#000000;stroke-width:0.3;" y2="-34.81" x1="53.912" x2="53.926"/>
  <line y1="-31.364" style="fill:none;stroke:#000000;stroke-width:0.3;" y2="-34.789" x1="51.711" x2="53.912"/>
  <line y1="-31.364" style="fill:none;stroke:#000000;stroke-width:0.3;" y2="-31.327" x1="51.711" x2="51.688"/>
  <line y1="-38.07" style="fill:none;stroke:#000000;stroke-width:0.3;" y2="-34.827" x1="47.246" x2="45.25"/>
  <line y1="-38.07" style="fill:none;stroke:#000000;stroke-width:0.3;" y2="-38.077" x1="47.246" x2="47.25"/>
  <line y1="-38.077" style="fill:none;stroke:#000000;stroke-width:0.3;" y2="-42.089" x1="51.359" x2="53.782"/>
  <line y1="-42.089" style="fill:none;stroke:#000000;stroke-width:0.3;" y2="-42.14" x1="53.782" x2="53.812"/>
  <line y1="-42.14" style="fill:none;stroke:#000000;stroke-width:0.3;" y2="-46.247" x1="46.188" x2="48.842"/>
  <line y1="-50.435" style="fill:none;stroke:#000000;stroke-width:0.3;" y2="-46.327" x1="53.904" x2="51.292"/>
  <line y1="-50.452" style="fill:none;stroke:#000000;stroke-width:0.3;" y2="-54.202" x1="45.149" x2="47.434"/>
  <line y1="-50.452" style="fill:none;stroke:#000000;stroke-width:0.3;" y2="-50.439" x1="45.149" x2="45.142"/>
  <line y1="-12.477" style="fill:none;stroke:#000000;stroke-width:0.3;" y2="-12.515" x1="41.102" x2="41.125"/>
  <line y1="-8.701" style="fill:none;stroke:#000000;stroke-width:0.3;" y2="-12.477" x1="38.788" x2="41.102"/>
  <line y1="-8.64" style="fill:none;stroke:#000000;stroke-width:0.3;" y2="-8.701" x1="38.75" x2="38.788"/>
  <line y1="-12.477" style="fill:none;stroke:#000000;stroke-width:0.3;" y2="-12.515" x1="27.102" x2="27.125"/>
  <line y1="-8.64" style="fill:none;stroke:#000000;stroke-width:0.3;" y2="-8.701" x1="24.75" x2="24.788"/>
  <line y1="-8.701" style="fill:none;stroke:#000000;stroke-width:0.3;" y2="-12.477" x1="24.788" x2="27.102"/>
  <line y1="-12.477" style="fill:none;stroke:#000000;stroke-width:0.3;" y2="-12.515" x1="12.602" x2="12.625"/>
  <line y1="-12.477" style="fill:none;stroke:#000000;stroke-width:0.3;" y2="-8.701" x1="12.602" x2="10.288"/>
  <line y1="-8.64" style="fill:none;stroke:#000000;stroke-width:0.3;" y2="-8.701" x1="10.25" x2="10.288"/>
  <line y1="-12.515" style="fill:none;stroke:#000000;stroke-width:0.3;" y2="-16.077" x1="32.438" x2="34.562"/>
  <line y1="-12.515" style="fill:none;stroke:#000000;stroke-width:0.3;" y2="-16.077" x1="18.75" x2="20.875"/>
  <line y1="-12.515" style="fill:none;stroke:#000000;stroke-width:0.3;" y2="-16.077" x1="5.5" x2="7.625"/>
  <line y1="-16.14" style="fill:none;stroke:#000000;stroke-width:0.3;" y2="-19.265" x1="40" x2="41.938"/>
  <line y1="-16.14" style="fill:none;stroke:#000000;stroke-width:0.3;" y2="-19.265" x1="25.75" x2="27.688"/>
  <line y1="-16.14" style="fill:none;stroke:#000000;stroke-width:0.3;" y2="-19.265" x1="10.688" x2="12.625"/>
  <line y1="-19.39" style="fill:none;stroke:#000000;stroke-width:0.3;" y2="-23.452" x1="30.5" x2="33.062"/>
  <line y1="-19.39" style="fill:none;stroke:#000000;stroke-width:0.3;" y2="-23.452" x1="16.875" x2="19.438"/>
  <line y1="-19.39" style="fill:none;stroke:#000000;stroke-width:0.3;" y2="-23.452" x1="3.875" x2="6.438"/>
  <line y1="-27.315" style="fill:none;stroke:#000000;stroke-width:0.3;" y2="-23.577" x1="40.867" x2="38.625"/>
  <line y1="-27.327" style="fill:none;stroke:#000000;stroke-width:0.3;" y2="-27.315" x1="40.875" x2="40.867"/>
  <line y1="-27.327" style="fill:none;stroke:#000000;stroke-width:0.3;" y2="-27.315" x1="27.5" x2="27.492"/>
  <line y1="-27.315" style="fill:none;stroke:#000000;stroke-width:0.3;" y2="-23.577" x1="27.492" x2="25.25"/>
  <line y1="-27.315" style="fill:none;stroke:#000000;stroke-width:0.3;" y2="-23.577" x1="12.492" x2="10.25"/>
  <line y1="-27.315" style="fill:none;stroke:#000000;stroke-width:0.3;" y2="-27.327" x1="12.492" x2="12.5"/>
  <line y1="-31.364" style="fill:none;stroke:#000000;stroke-width:0.3;" y2="-31.39" x1="34.609" x2="34.625"/>
  <line y1="-31.364" style="fill:none;stroke:#000000;stroke-width:0.3;" y2="-27.327" x1="34.609" x2="32.188"/>
  <line y1="-27.327" style="fill:none;stroke:#000000;stroke-width:0.3;" y2="-31.364" x1="18.5" x2="20.922"/>
  <line y1="-31.39" style="fill:none;stroke:#000000;stroke-width:0.3;" y2="-31.364" x1="20.938" x2="20.922"/>
  <line y1="-31.364" style="fill:none;stroke:#000000;stroke-width:0.3;" y2="-27.327" x1="7.484" x2="5.062"/>
  <line y1="-31.364" style="fill:none;stroke:#000000;stroke-width:0.3;" y2="-31.39" x1="7.484" x2="7.5"/>
  <line y1="-34.827" style="fill:none;stroke:#000000;stroke-width:0.3;" y2="-34.789" x1="41.875" x2="41.853"/>
  <line y1="-31.39" style="fill:none;stroke:#000000;stroke-width:0.3;" y2="-34.789" x1="39.875" x2="41.853"/>
  <line y1="-34.789" style="fill:none;stroke:#000000;stroke-width:0.3;" y2="-31.39" x1="28.04" x2="26.062"/>
  <line y1="-34.789" style="fill:none;stroke:#000000;stroke-width:0.3;" y2="-34.827" x1="28.04" x2="28.062"/>
  <line y1="-34.789" style="fill:none;stroke:#000000;stroke-width:0.3;" y2="-31.39" x1="13.04" x2="11.062"/>
  <line y1="-34.789" style="fill:none;stroke:#000000;stroke-width:0.3;" y2="-34.827" x1="13.04" x2="13.062"/>
  <line y1="-38.07" style="fill:none;stroke:#000000;stroke-width:0.3;" y2="-38.077" x1="32.621" x2="32.625"/>
  <line y1="-38.07" style="fill:none;stroke:#000000;stroke-width:0.3;" y2="-34.827" x1="32.621" x2="30.625"/>
  <line y1="-34.827" style="fill:none;stroke:#000000;stroke-width:0.3;" y2="-38.07" x1="17.312" x2="19.309"/>
  <line y1="-38.077" style="fill:none;stroke:#000000;stroke-width:0.3;" y2="-38.07" x1="19.312" x2="19.309"/>
  <line y1="-38.07" style="fill:none;stroke:#000000;stroke-width:0.3;" y2="-34.827" x1="6.621" x2="4.625"/>
  <line y1="-38.07" style="fill:none;stroke:#000000;stroke-width:0.3;" y2="-38.077" x1="6.621" x2="6.625"/>
  <line y1="-42.089" style="fill:none;stroke:#000000;stroke-width:0.3;" y2="-42.14" x1="40.97" x2="41"/>
  <line y1="-38.077" style="fill:none;stroke:#000000;stroke-width:0.3;" y2="-42.089" x1="38.562" x2="40.97"/>
  <line y1="-42.089" style="fill:none;stroke:#000000;stroke-width:0.3;" y2="-42.14" x1="27.532" x2="27.562"/>
  <line y1="-42.089" style="fill:none;stroke:#000000;stroke-width:0.3;" y2="-38.077" x1="27.532" x2="25.125"/>
  <line y1="-42.089" style="fill:none;stroke:#000000;stroke-width:0.3;" y2="-38.077" x1="12.72" x2="10.312"/>
  <line y1="-42.089" style="fill:none;stroke:#000000;stroke-width:0.3;" y2="-42.14" x1="12.72" x2="12.75"/>
  <line y1="-46.276" style="fill:none;stroke:#000000;stroke-width:0.3;" y2="-46.327" x1="34.781" x2="34.812"/>
  <line y1="-46.276" style="fill:none;stroke:#000000;stroke-width:0.3;" y2="-42.14" x1="34.781" x2="32.25"/>
  <line y1="-42.14" style="fill:none;stroke:#000000;stroke-width:0.3;" y2="-46.265" x1="18.625" x2="21.125"/>
  <line y1="-46.276" style="fill:none;stroke:#000000;stroke-width:0.3;" y2="-46.327" x1="7.969" x2="8"/>
  <line y1="-46.276" style="fill:none;stroke:#000000;stroke-width:0.3;" y2="-42.14" x1="7.969" x2="5.438"/>
  <line y1="-50.452" style="fill:none;stroke:#000000;stroke-width:0.3;" y2="-46.327" x1="42.017" x2="39.5"/>
  <line y1="-50.452" style="fill:none;stroke:#000000;stroke-width:0.3;" y2="-50.493" x1="42.017" x2="42.042"/>
  <line y1="-46.327" style="fill:none;stroke:#000000;stroke-width:0.3;" y2="-50.452" x1="25.812" x2="28.35"/>
  <line y1="-50.493" style="fill:none;stroke:#000000;stroke-width:0.3;" y2="-50.452" x1="28.375" x2="28.35"/>
  <line y1="-50.41" style="fill:none;stroke:#000000;stroke-width:0.3;" y2="-46.327" x1="13.459" x2="10.938"/>
  <line y1="-50.439" style="fill:none;stroke:#000000;stroke-width:0.3;" y2="-50.452" x1="30.767" x2="30.774"/>
  <line y1="-50.452" style="fill:none;stroke:#000000;stroke-width:0.3;" y2="-54.202" x1="30.774" x2="33.059"/>
  <line y1="-50.452" style="fill:none;stroke:#000000;stroke-width:0.3;" y2="-54.202" x1="17.337" x2="19.621"/>
  <line y1="-50.439" style="fill:none;stroke:#000000;stroke-width:0.3;" y2="-50.452" x1="17.329" x2="17.337"/>
  <line y1="-50.452" style="fill:none;stroke:#000000;stroke-width:0.3;" y2="-50.439" x1="4.587" x2="4.579"/>
  <line y1="-54.202" style="fill:none;stroke:#000000;stroke-width:0.3;" y2="-50.452" x1="6.871" x2="4.587"/>
  <line y1="-0.827" style="fill:none;stroke:#000000;stroke-width:0.3;" y2="-0.077" x1="47.875" x2="47.423"/>
  <line y1="-0.827" style="fill:none;stroke:#000000;stroke-width:0.3;" y2="-0.077" x1="33.5" x2="33.048"/>
  <line y1="-0.827" style="fill:none;stroke:#000000;stroke-width:0.3;" y2="-0.077" x1="20.062" x2="19.61"/>
  <line y1="-0.827" style="fill:none;stroke:#000000;stroke-width:0.3;" y2="-0.077" x1="7.312" x2="6.86"/>
 </g>
</svg>
