<?xml version="1.0"?>
<!-- Converted with SVG Converter - Version 0.9.6 (Compiled Thu Aug 31 10:01:05 2017) - Copyright (C) 2011 Nokia -->
<svg xmlns="http://www.w3.org/2000/svg" width="54.125" baseProfile="tiny" viewBox="0 -54.202 54.125 54.125" y="0px" xml:space="preserve" height="54.125" xmlns:xlink="http://www.w3.org/1999/xlink" version="1.1" x="0px">
 <g>
  <rect width="54.125" y="-54.202" height="54.125" style="fill:none;"/>
  <line y1="-50.452" x1="30.774" y2="-50.452" x2="28.35" style="fill:none;stroke:#000000;stroke-width:0.3;"/>
  <line y1="-50.452" x1="42.017" y2="-50.452" x2="30.774" style="fill:none;stroke:#000000;stroke-width:0.3;"/>
  <line y1="-50.452" x1="42.017" y2="-50.452" x2="45.149" style="fill:none;stroke:#000000;stroke-width:0.3;"/>
  <line y1="-50.452" x1="17.337" y2="-50.452" x2="28.35" style="fill:none;stroke:#000000;stroke-width:0.3;"/>
  <line y1="-50.452" x1="54.125" y2="-50.452" x2="45.149" style="fill:none;stroke:#000000;stroke-width:0.3;"/>
  <line y1="-50.452" x1="4.587" y2="-50.452" x2="17.337" style="fill:none;stroke:#000000;stroke-width:0.3;"/>
  <line y1="-50.452" x1="4.587" y2="-50.452" x2="0" style="fill:none;stroke:#000000;stroke-width:0.3;"/>
  <line y1="-46.276" x1="34.781" y2="-46.276" x2="7.969" style="fill:none;stroke:#000000;stroke-width:0.3;"/>
  <line y1="-46.276" x1="54.125" y2="-46.276" x2="34.781" style="fill:none;stroke:#000000;stroke-width:0.3;"/>
  <line y1="-46.276" x1="7.969" y2="-46.276" x2="0" style="fill:none;stroke:#000000;stroke-width:0.3;"/>
  <line y1="-42.089" x1="27.532" y2="-42.089" x2="12.72" style="fill:none;stroke:#000000;stroke-width:0.3;"/>
  <line y1="-42.089" x1="27.532" y2="-42.089" x2="40.97" style="fill:none;stroke:#000000;stroke-width:0.3;"/>
  <line y1="-42.089" x1="40.97" y2="-42.089" x2="53.782" style="fill:none;stroke:#000000;stroke-width:0.3;"/>
  <line y1="-42.089" x1="53.782" y2="-42.089" x2="54.125" style="fill:none;stroke:#000000;stroke-width:0.3;"/>
  <line y1="-42.089" x1="12.72" y2="-42.089" x2="0" style="fill:none;stroke:#000000;stroke-width:0.3;"/>
  <line y1="-12.477" x1="12.602" y2="-12.477" x2="27.102" style="fill:none;stroke:#000000;stroke-width:0.3;"/>
  <line y1="-12.477" x1="41.102" y2="-12.477" x2="53.683" style="fill:none;stroke:#000000;stroke-width:0.3;"/>
  <line y1="-12.477" x1="53.683" y2="-12.477" x2="54.125" style="fill:none;stroke:#000000;stroke-width:0.3;"/>
  <line y1="-12.477" x1="12.602" y2="-12.477" x2="0" style="fill:none;stroke:#000000;stroke-width:0.3;"/>
  <line y1="-12.477" x1="27.102" y2="-12.477" x2="41.102" style="fill:none;stroke:#000000;stroke-width:0.3;"/>
  <line y1="-8.701" x1="5.463" y2="-8.701" x2="10.288" style="fill:none;stroke:#000000;stroke-width:0.3;"/>
  <line y1="-8.701" x1="10.288" y2="-8.701" x2="18.463" style="fill:none;stroke:#000000;stroke-width:0.3;"/>
  <line y1="-8.701" x1="32.463" y2="-8.701" x2="24.788" style="fill:none;stroke:#000000;stroke-width:0.3;"/>
  <line y1="-8.701" x1="18.463" y2="-8.701" x2="24.788" style="fill:none;stroke:#000000;stroke-width:0.3;"/>
  <line y1="-8.701" x1="51.228" y2="-8.701" x2="54.125" style="fill:none;stroke:#000000;stroke-width:0.3;"/>
  <line y1="-8.701" x1="5.463" y2="-8.701" x2="0" style="fill:none;stroke:#000000;stroke-width:0.3;"/>
  <line y1="-8.701" x1="51.228" y2="-8.701" x2="47.062" style="fill:none;stroke:#000000;stroke-width:0.3;"/>
  <line y1="-8.701" x1="47.062" y2="-8.701" x2="38.788" style="fill:none;stroke:#000000;stroke-width:0.3;"/>
  <line y1="-8.701" x1="32.463" y2="-8.701" x2="38.788" style="fill:none;stroke:#000000;stroke-width:0.3;"/>
  <line y1="-38.07" x1="6.621" y2="-38.07" x2="0" style="fill:none;stroke:#000000;stroke-width:0.3;"/>
  <line y1="-38.07" x1="6.621" y2="-38.07" x2="19.309" style="fill:none;stroke:#000000;stroke-width:0.3;"/>
  <line y1="-38.07" x1="47.246" y2="-38.07" x2="54.125" style="fill:none;stroke:#000000;stroke-width:0.3;"/>
  <line y1="-38.07" x1="32.621" y2="-38.07" x2="19.309" style="fill:none;stroke:#000000;stroke-width:0.3;"/>
  <line y1="-38.07" x1="47.246" y2="-38.07" x2="32.621" style="fill:none;stroke:#000000;stroke-width:0.3;"/>
  <line y1="-34.789" x1="28.04" y2="-34.789" x2="13.04" style="fill:none;stroke:#000000;stroke-width:0.3;"/>
  <line y1="-34.789" x1="28.04" y2="-34.789" x2="41.853" style="fill:none;stroke:#000000;stroke-width:0.3;"/>
  <line y1="-34.789" x1="53.912" y2="-34.789" x2="54.125" style="fill:none;stroke:#000000;stroke-width:0.3;"/>
  <line y1="-34.789" x1="53.912" y2="-34.789" x2="41.853" style="fill:none;stroke:#000000;stroke-width:0.3;"/>
  <line y1="-34.789" x1="13.04" y2="-34.789" x2="0" style="fill:none;stroke:#000000;stroke-width:0.3;"/>
  <line y1="-31.364" x1="51.711" y2="-31.364" x2="54.125" style="fill:none;stroke:#000000;stroke-width:0.3;"/>
  <line y1="-31.364" x1="7.484" y2="-31.364" x2="0" style="fill:none;stroke:#000000;stroke-width:0.3;"/>
  <line y1="-31.364" x1="34.609" y2="-31.364" x2="49.547" style="fill:none;stroke:#000000;stroke-width:0.3;"/>
  <line y1="-31.364" x1="34.609" y2="-31.364" x2="20.922" style="fill:none;stroke:#000000;stroke-width:0.3;"/>
  <line y1="-31.364" x1="51.711" y2="-31.364" x2="49.547" style="fill:none;stroke:#000000;stroke-width:0.3;"/>
  <line y1="-31.364" x1="7.484" y2="-31.364" x2="20.922" style="fill:none;stroke:#000000;stroke-width:0.3;"/>
  <line y1="-27.315" x1="27.492" y2="-27.315" x2="12.492" style="fill:none;stroke:#000000;stroke-width:0.3;"/>
  <line y1="-27.315" x1="40.867" y2="-27.315" x2="27.492" style="fill:none;stroke:#000000;stroke-width:0.3;"/>
  <line y1="-27.315" x1="12.492" y2="-27.315" x2="0" style="fill:none;stroke:#000000;stroke-width:0.3;"/>
  <line y1="-27.315" x1="54.055" y2="-27.315" x2="54.125" style="fill:none;stroke:#000000;stroke-width:0.3;"/>
  <line y1="-27.315" x1="54.055" y2="-27.315" x2="40.867" style="fill:none;stroke:#000000;stroke-width:0.3;"/>
  <line y1="-23.514" x1="54.125" y2="-23.514" x2="0" style="fill:none;stroke:#000000;stroke-width:0.3;"/>
  <line y1="-19.315" x1="54.125" y2="-19.315" x2="0" style="fill:none;stroke:#000000;stroke-width:0.3;"/>
  <line y1="-16.089" x1="51.82" y2="-16.089" x2="0" style="fill:none;stroke:#000000;stroke-width:0.3;"/>
  <line y1="-16.089" x1="51.82" y2="-16.089" x2="54.125" style="fill:none;stroke:#000000;stroke-width:0.3;"/>
  <line y1="-0.914" x1="9.015" y2="-0.914" x2="0" style="fill:none;stroke:#000000;stroke-width:0.3;"/>
  <line y1="-0.914" x1="50.39" y2="-0.914" x2="54.125" style="fill:none;stroke:#000000;stroke-width:0.3;"/>
  <line y1="-0.914" x1="9.015" y2="-0.914" x2="23.327" style="fill:none;stroke:#000000;stroke-width:0.3;"/>
  <line y1="-0.914" x1="23.327" y2="-0.914" x2="37.015" style="fill:none;stroke:#000000;stroke-width:0.3;"/>
  <line y1="-0.914" x1="37.015" y2="-0.914" x2="50.39" style="fill:none;stroke:#000000;stroke-width:0.3;"/>
  <line y1="-4.289" x1="54.125" y2="-4.289" x2="0" style="fill:none;stroke:#000000;stroke-width:0.3;"/>
  <line y1="-8.701" x1="5.463" y2="-8.765" x2="5.5" style="fill:none;stroke:#000000;stroke-width:0.3;"/>
  <line y1="-8.701" x1="5.463" y2="-4.314" x2="2.871" style="fill:none;stroke:#000000;stroke-width:0.3;"/>
  <line y1="-4.314" x1="15.871" y2="-8.701" x2="18.463" style="fill:none;stroke:#000000;stroke-width:0.3;"/>
  <line y1="-8.701" x1="18.463" y2="-8.765" x2="18.5" style="fill:none;stroke:#000000;stroke-width:0.3;"/>
  <line y1="-8.701" x1="32.463" y2="-8.765" x2="32.5" style="fill:none;stroke:#000000;stroke-width:0.3;"/>
  <line y1="-8.701" x1="32.463" y2="-4.314" x2="29.871" style="fill:none;stroke:#000000;stroke-width:0.3;"/>
  <line y1="-8.702" x1="47.062" y2="-8.701" x2="47.062" style="fill:none;stroke:#000000;stroke-width:0.3;"/>
  <line y1="-8.701" x1="47.062" y2="-4.314" x2="44.434" style="fill:none;stroke:#000000;stroke-width:0.3;"/>
  <line y1="-0.914" x1="50.39" y2="-4.265" x2="52.438" style="fill:none;stroke:#000000;stroke-width:0.3;"/>
  <line y1="-0.914" x1="50.39" y2="-0.89" x2="50.375" style="fill:none;stroke:#000000;stroke-width:0.3;"/>
  <line y1="-0.914" x1="37.015" y2="-4.265" x2="39.062" style="fill:none;stroke:#000000;stroke-width:0.3;"/>
  <line y1="-0.914" x1="37.015" y2="-0.89" x2="37" style="fill:none;stroke:#000000;stroke-width:0.3;"/>
  <line y1="-0.914" x1="23.327" y2="-0.89" x2="23.312" style="fill:none;stroke:#000000;stroke-width:0.3;"/>
  <line y1="-0.914" x1="23.327" y2="-4.265" x2="25.375" style="fill:none;stroke:#000000;stroke-width:0.3;"/>
  <line y1="-0.914" x1="9.015" y2="-0.89" x2="9" style="fill:none;stroke:#000000;stroke-width:0.3;"/>
  <line y1="-0.914" x1="9.015" y2="-4.265" x2="11.062" style="fill:none;stroke:#000000;stroke-width:0.3;"/>
  <line y1="-12.477" x1="53.683" y2="-12.497" x2="53.696" style="fill:none;stroke:#000000;stroke-width:0.3;"/>
  <line y1="-8.701" x1="51.228" y2="-8.64" x2="51.188" style="fill:none;stroke:#000000;stroke-width:0.3;"/>
  <line y1="-8.701" x1="51.228" y2="-12.477" x2="53.683" style="fill:none;stroke:#000000;stroke-width:0.3;"/>
  <line y1="-12.515" x1="47.312" y2="-16.077" x2="49.438" style="fill:none;stroke:#000000;stroke-width:0.3;"/>
  <line y1="-19.39" x1="44.812" y2="-23.452" x2="47.375" style="fill:none;stroke:#000000;stroke-width:0.3;"/>
  <line y1="-16.089" x1="51.82" y2="-16.077" x2="51.812" style="fill:none;stroke:#000000;stroke-width:0.3;"/>
  <line y1="-16.089" x1="51.82" y2="-19.289" x2="53.863" style="fill:none;stroke:#000000;stroke-width:0.3;"/>
  <line y1="-27.315" x1="54.055" y2="-23.577" x2="51.812" style="fill:none;stroke:#000000;stroke-width:0.3;"/>
  <line y1="-27.327" x1="54.062" y2="-27.315" x2="54.055" style="fill:none;stroke:#000000;stroke-width:0.3;"/>
  <line y1="-31.364" x1="49.547" y2="-31.39" x2="49.562" style="fill:none;stroke:#000000;stroke-width:0.3;"/>
  <line y1="-31.364" x1="49.547" y2="-27.327" x2="47.125" style="fill:none;stroke:#000000;stroke-width:0.3;"/>
  <line y1="-34.789" x1="53.912" y2="-34.81" x2="53.926" style="fill:none;stroke:#000000;stroke-width:0.3;"/>
  <line y1="-31.364" x1="51.711" y2="-34.789" x2="53.912" style="fill:none;stroke:#000000;stroke-width:0.3;"/>
  <line y1="-31.364" x1="51.711" y2="-31.327" x2="51.688" style="fill:none;stroke:#000000;stroke-width:0.3;"/>
  <line y1="-38.07" x1="47.246" y2="-34.827" x2="45.25" style="fill:none;stroke:#000000;stroke-width:0.3;"/>
  <line y1="-38.07" x1="47.246" y2="-38.077" x2="47.25" style="fill:none;stroke:#000000;stroke-width:0.3;"/>
  <line y1="-38.077" x1="51.359" y2="-42.089" x2="53.782" style="fill:none;stroke:#000000;stroke-width:0.3;"/>
  <line y1="-42.089" x1="53.782" y2="-42.14" x2="53.812" style="fill:none;stroke:#000000;stroke-width:0.3;"/>
  <line y1="-42.14" x1="46.188" y2="-46.247" x2="48.842" style="fill:none;stroke:#000000;stroke-width:0.3;"/>
  <line y1="-50.435" x1="53.904" y2="-46.327" x2="51.292" style="fill:none;stroke:#000000;stroke-width:0.3;"/>
  <line y1="-50.452" x1="45.149" y2="-54.202" x2="47.434" style="fill:none;stroke:#000000;stroke-width:0.3;"/>
  <line y1="-50.452" x1="45.149" y2="-50.439" x2="45.142" style="fill:none;stroke:#000000;stroke-width:0.3;"/>
  <line y1="-12.477" x1="41.102" y2="-12.515" x2="41.125" style="fill:none;stroke:#000000;stroke-width:0.3;"/>
  <line y1="-8.701" x1="38.788" y2="-12.477" x2="41.102" style="fill:none;stroke:#000000;stroke-width:0.3;"/>
  <line y1="-8.64" x1="38.75" y2="-8.701" x2="38.788" style="fill:none;stroke:#000000;stroke-width:0.3;"/>
  <line y1="-12.477" x1="27.102" y2="-12.515" x2="27.125" style="fill:none;stroke:#000000;stroke-width:0.3;"/>
  <line y1="-8.64" x1="24.75" y2="-8.701" x2="24.788" style="fill:none;stroke:#000000;stroke-width:0.3;"/>
  <line y1="-8.701" x1="24.788" y2="-12.477" x2="27.102" style="fill:none;stroke:#000000;stroke-width:0.3;"/>
  <line y1="-12.477" x1="12.602" y2="-12.515" x2="12.625" style="fill:none;stroke:#000000;stroke-width:0.3;"/>
  <line y1="-12.477" x1="12.602" y2="-8.701" x2="10.288" style="fill:none;stroke:#000000;stroke-width:0.3;"/>
  <line y1="-8.64" x1="10.25" y2="-8.701" x2="10.288" style="fill:none;stroke:#000000;stroke-width:0.3;"/>
  <line y1="-12.515" x1="32.438" y2="-16.077" x2="34.562" style="fill:none;stroke:#000000;stroke-width:0.3;"/>
  <line y1="-12.515" x1="18.75" y2="-16.077" x2="20.875" style="fill:none;stroke:#000000;stroke-width:0.3;"/>
  <line y1="-12.515" x1="5.5" y2="-16.077" x2="7.625" style="fill:none;stroke:#000000;stroke-width:0.3;"/>
  <line y1="-16.14" x1="40" y2="-19.265" x2="41.938" style="fill:none;stroke:#000000;stroke-width:0.3;"/>
  <line y1="-16.14" x1="25.75" y2="-19.265" x2="27.688" style="fill:none;stroke:#000000;stroke-width:0.3;"/>
  <line y1="-16.14" x1="10.688" y2="-19.265" x2="12.625" style="fill:none;stroke:#000000;stroke-width:0.3;"/>
  <line y1="-19.39" x1="30.5" y2="-23.452" x2="33.062" style="fill:none;stroke:#000000;stroke-width:0.3;"/>
  <line y1="-19.39" x1="16.875" y2="-23.452" x2="19.438" style="fill:none;stroke:#000000;stroke-width:0.3;"/>
  <line y1="-19.39" x1="3.875" y2="-23.452" x2="6.438" style="fill:none;stroke:#000000;stroke-width:0.3;"/>
  <line y1="-27.315" x1="40.867" y2="-23.577" x2="38.625" style="fill:none;stroke:#000000;stroke-width:0.3;"/>
  <line y1="-27.327" x1="40.875" y2="-27.315" x2="40.867" style="fill:none;stroke:#000000;stroke-width:0.3;"/>
  <line y1="-27.327" x1="27.5" y2="-27.315" x2="27.492" style="fill:none;stroke:#000000;stroke-width:0.3;"/>
  <line y1="-27.315" x1="27.492" y2="-23.577" x2="25.25" style="fill:none;stroke:#000000;stroke-width:0.3;"/>
  <line y1="-27.315" x1="12.492" y2="-23.577" x2="10.25" style="fill:none;stroke:#000000;stroke-width:0.3;"/>
  <line y1="-27.315" x1="12.492" y2="-27.327" x2="12.5" style="fill:none;stroke:#000000;stroke-width:0.3;"/>
  <line y1="-31.364" x1="34.609" y2="-31.39" x2="34.625" style="fill:none;stroke:#000000;stroke-width:0.3;"/>
  <line y1="-31.364" x1="34.609" y2="-27.327" x2="32.188" style="fill:none;stroke:#000000;stroke-width:0.3;"/>
  <line y1="-27.327" x1="18.5" y2="-31.364" x2="20.922" style="fill:none;stroke:#000000;stroke-width:0.3;"/>
  <line y1="-31.39" x1="20.938" y2="-31.364" x2="20.922" style="fill:none;stroke:#000000;stroke-width:0.3;"/>
  <line y1="-31.364" x1="7.484" y2="-27.327" x2="5.062" style="fill:none;stroke:#000000;stroke-width:0.3;"/>
  <line y1="-31.364" x1="7.484" y2="-31.39" x2="7.5" style="fill:none;stroke:#000000;stroke-width:0.3;"/>
  <line y1="-34.827" x1="41.875" y2="-34.789" x2="41.853" style="fill:none;stroke:#000000;stroke-width:0.3;"/>
  <line y1="-31.39" x1="39.875" y2="-34.789" x2="41.853" style="fill:none;stroke:#000000;stroke-width:0.3;"/>
  <line y1="-34.789" x1="28.04" y2="-31.39" x2="26.062" style="fill:none;stroke:#000000;stroke-width:0.3;"/>
  <line y1="-34.789" x1="28.04" y2="-34.827" x2="28.062" style="fill:none;stroke:#000000;stroke-width:0.3;"/>
  <line y1="-34.789" x1="13.04" y2="-31.39" x2="11.062" style="fill:none;stroke:#000000;stroke-width:0.3;"/>
  <line y1="-34.789" x1="13.04" y2="-34.827" x2="13.062" style="fill:none;stroke:#000000;stroke-width:0.3;"/>
  <line y1="-38.07" x1="32.621" y2="-38.077" x2="32.625" style="fill:none;stroke:#000000;stroke-width:0.3;"/>
  <line y1="-38.07" x1="32.621" y2="-34.827" x2="30.625" style="fill:none;stroke:#000000;stroke-width:0.3;"/>
  <line y1="-34.827" x1="17.312" y2="-38.07" x2="19.309" style="fill:none;stroke:#000000;stroke-width:0.3;"/>
  <line y1="-38.077" x1="19.312" y2="-38.07" x2="19.309" style="fill:none;stroke:#000000;stroke-width:0.3;"/>
  <line y1="-38.07" x1="6.621" y2="-34.827" x2="4.625" style="fill:none;stroke:#000000;stroke-width:0.3;"/>
  <line y1="-38.07" x1="6.621" y2="-38.077" x2="6.625" style="fill:none;stroke:#000000;stroke-width:0.3;"/>
  <line y1="-42.089" x1="40.97" y2="-42.14" x2="41" style="fill:none;stroke:#000000;stroke-width:0.3;"/>
  <line y1="-38.077" x1="38.562" y2="-42.089" x2="40.97" style="fill:none;stroke:#000000;stroke-width:0.3;"/>
  <line y1="-42.089" x1="27.532" y2="-42.14" x2="27.562" style="fill:none;stroke:#000000;stroke-width:0.3;"/>
  <line y1="-42.089" x1="27.532" y2="-38.077" x2="25.125" style="fill:none;stroke:#000000;stroke-width:0.3;"/>
  <line y1="-42.089" x1="12.72" y2="-38.077" x2="10.312" style="fill:none;stroke:#000000;stroke-width:0.3;"/>
  <line y1="-42.089" x1="12.72" y2="-42.14" x2="12.75" style="fill:none;stroke:#000000;stroke-width:0.3;"/>
  <line y1="-46.276" x1="34.781" y2="-46.327" x2="34.812" style="fill:none;stroke:#000000;stroke-width:0.3;"/>
  <line y1="-46.276" x1="34.781" y2="-42.14" x2="32.25" style="fill:none;stroke:#000000;stroke-width:0.3;"/>
  <line y1="-42.14" x1="18.625" y2="-46.265" x2="21.125" style="fill:none;stroke:#000000;stroke-width:0.3;"/>
  <line y1="-46.276" x1="7.969" y2="-46.327" x2="8" style="fill:none;stroke:#000000;stroke-width:0.3;"/>
  <line y1="-46.276" x1="7.969" y2="-42.14" x2="5.438" style="fill:none;stroke:#000000;stroke-width:0.3;"/>
  <line y1="-50.452" x1="42.017" y2="-46.327" x2="39.5" style="fill:none;stroke:#000000;stroke-width:0.3;"/>
  <line y1="-50.452" x1="42.017" y2="-50.493" x2="42.042" style="fill:none;stroke:#000000;stroke-width:0.3;"/>
  <line y1="-46.327" x1="25.812" y2="-50.452" x2="28.35" style="fill:none;stroke:#000000;stroke-width:0.3;"/>
  <line y1="-50.493" x1="28.375" y2="-50.452" x2="28.35" style="fill:none;stroke:#000000;stroke-width:0.3;"/>
  <line y1="-50.41" x1="13.459" y2="-46.327" x2="10.938" style="fill:none;stroke:#000000;stroke-width:0.3;"/>
  <line y1="-50.439" x1="30.767" y2="-50.452" x2="30.774" style="fill:none;stroke:#000000;stroke-width:0.3;"/>
  <line y1="-50.452" x1="30.774" y2="-54.202" x2="33.059" style="fill:none;stroke:#000000;stroke-width:0.3;"/>
  <line y1="-50.452" x1="17.337" y2="-54.202" x2="19.621" style="fill:none;stroke:#000000;stroke-width:0.3;"/>
  <line y1="-50.439" x1="17.329" y2="-50.452" x2="17.337" style="fill:none;stroke:#000000;stroke-width:0.3;"/>
  <line y1="-50.452" x1="4.587" y2="-50.439" x2="4.579" style="fill:none;stroke:#000000;stroke-width:0.3;"/>
  <line y1="-54.202" x1="6.871" y2="-50.452" x2="4.587" style="fill:none;stroke:#000000;stroke-width:0.3;"/>
  <line y1="-0.827" x1="47.875" y2="-0.077" x2="47.423" style="fill:none;stroke:#000000;stroke-width:0.3;"/>
  <line y1="-0.827" x1="33.5" y2="-0.077" x2="33.048" style="fill:none;stroke:#000000;stroke-width:0.3;"/>
  <line y1="-0.827" x1="20.062" y2="-0.077" x2="19.61" style="fill:none;stroke:#000000;stroke-width:0.3;"/>
  <line y1="-0.827" x1="7.312" y2="-0.077" x2="6.86" style="fill:none;stroke:#000000;stroke-width:0.3;"/>
 </g>
</svg>
