<?xml version="1.0" encoding="utf-8"?>
<svg xmlns="http://www.w3.org/2000/svg" version="1.1" x="0px" y="0px" xml:space="preserve" width="54" height="54" viewBox="0.064 -54.148 54 54">
	<g>
		<rect x="0.064" y="-54.148" style="fill:none;" width="54" height="54"/>
		<path style="fill:none;stroke:#000000;stroke-width:0.3;" d="M5.23-39.648c4.092-0.487,10.134-1.62,16.872-3.235"/>
		<path style="fill:none;stroke:#000000;stroke-width:0.3;" d="M38.394-47.419c-3.167,1.015-6.389,1.958-9.553,2.815"/>
		<path style="fill:none;stroke:#000000;stroke-width:0.3;" d="M54.063-53.398c-2.21,1.032-4.602,2.03-7.107,2.988"/>
		<path style="fill:none;stroke:#000000;stroke-width:0.3;" d="M38.394-47.419c2.931-0.939,5.815-1.94,8.563-2.991"/>
		<path style="fill:none;stroke:#000000;stroke-width:0.3;" d="M22.102-42.883c2.187-0.524,4.448-1.1,6.739-1.72"/>
		<line style="fill:none;stroke:#000000;stroke-width:0.3;" x1="0.064" y1="-53.398" x2="1.67" y2="-54.148"/>
		<line style="fill:none;stroke:#000000;stroke-width:0.3;" x1="3.736" y1="-1.061" x2="3.813" y2="-1.097"/>
		<line style="fill:none;stroke:#000000;stroke-width:0.3;" x1="3.736" y1="-1.061" x2="1.78" y2="-0.148"/>
		<path style="fill:none;stroke:#000000;stroke-width:0.3;" d="M41.466-1.135c0.995,0.213,2,0.415,3.017,0.605"/>
		<path style="fill:none;stroke:#000000;stroke-width:0.3;" d="M44.483-0.531c0.72,0.134,1.445,0.262,2.175,0.383"/>
		<path style="fill:none;stroke:#000000;stroke-width:0.3;" d="M19.801-7.773C16.096-9.215,12.705-10.67,9.667-12"/>
		<path style="fill:none;stroke:#000000;stroke-width:0.3;" d="M32.573-3.394c2.85,0.833,5.819,1.599,8.893,2.258"/>
		<path style="fill:none;stroke:#000000;stroke-width:0.3;" d="M19.801-7.773c3.922,1.527,8.195,3.041,12.772,4.379"/>
		<path style="fill:none;stroke:#000000;stroke-width:0.3;" d="M9.667-12c-1.837-0.804-3.544-1.563-5.113-2.246"/>
		<path style="fill:none;stroke:#000000;stroke-width:0.3;" d="M4.554-14.246c-0.053-0.023-0.105-0.046-0.158-0.069"/>
		<path style="fill:none;stroke:#000000;stroke-width:0.3;" d="M29.012-18.714c-2.278,0.547-4.601,1.075-6.94,1.57"/>
		<path style="fill:none;stroke:#000000;stroke-width:0.3;" d="M4.554-14.246c4.432-0.483,9.087-1.229,13.741-2.132"/>
		<path style="fill:none;stroke:#000000;stroke-width:0.3;" d="M46.245-23.407c2.994-0.913,5.644-1.776,7.819-2.529"/>
		<path style="fill:none;stroke:#000000;stroke-width:0.3;" d="M18.295-16.378c1.26-0.245,2.521-0.501,3.776-0.767"/>
		<path style="fill:none;stroke:#000000;stroke-width:0.3;" d="M29.012-18.714c0.746-0.179,1.487-0.36,2.222-0.544"/>
		<path style="fill:none;stroke:#000000;stroke-width:0.3;" d="M4.554-14.246c-1.526,0.166-3.026,0.301-4.491,0.401"/>
		<path style="fill:none;stroke:#000000;stroke-width:0.3;" d="M31.233-19.258c5.467-1.36,10.61-2.808,15.011-4.149"/>
		<path style="fill:none;stroke:#000000;stroke-width:0.3;" d="M54.063-41.348c-0.444-0.156-0.881-0.312-1.312-0.466"/>
		<path style="fill:none;stroke:#000000;stroke-width:0.3;" d="M38.394-47.419c2.96,1.283,7.969,3.317,14.358,5.604"/>
		<path style="fill:none;stroke:#000000;stroke-width:0.3;" d="M38.394-47.419c-0.048-0.021-0.096-0.042-0.143-0.062"/>
		<path style="fill:none;stroke:#000000;stroke-width:0.3;" d="M37.988-13.969c-4.143-0.299-11.518-1.045-15.917-3.175"/>
		<line style="fill:none;stroke:#000000;stroke-width:0.3;" x1="22.071" y1="-17.144" x2="22.063" y2="-17.148"/>
		<path style="fill:none;stroke:#000000;stroke-width:0.3;" d="M37.988-13.969c1.039,0.075,1.875,0.122,2.409,0.155    c2.667,0.167,7.688,0.167,7.688,0.167c1.904,0.014,3.906-0.055,5.979-0.196"/>
		<path style="fill:none;stroke:#000000;stroke-width:0.3;" d="M19.832-35.116c-7.308-2.021-14.045-4.206-19.769-6.225"/>
		<path style="fill:none;stroke:#000000;stroke-width:0.3;" d="M19.832-35.116c8.946,2.473,18.749,4.701,28.602,6.078"/>
		<path style="fill:none;stroke:#000000;stroke-width:0.3;" d="M48.434-29.038c1.876,0.262,3.755,0.494,5.63,0.69"/>
		<path style="fill:none;stroke:#000000;stroke-width:0.3;" d="M0.064-41.94c7.492-0.733,22.25-2.554,34.68-5.284"/>
		<path style="fill:none;stroke:#000000;stroke-width:0.3;" d="M34.743-47.225c4.223-0.928,8.178-1.96,11.487-3.09"/>
		<path style="fill:none;stroke:#000000;stroke-width:0.3;" d="M37.853-50.556c-10.327,2.197-22.033,3.323-31.562,3.933"/>
		<path style="fill:none;stroke:#000000;stroke-width:0.3;" d="M0.064-46.276c1.93-0.093,4.02-0.207,6.228-0.348"/>
		<path style="fill:none;stroke:#000000;stroke-width:0.3;" d="M37.853-50.556c4.098-0.872,7.979-1.913,11.419-3.157"/>
		<path style="fill:none;stroke:#000000;stroke-width:0.3;" d="M17.874-51.02c-1.535,0.102-3.06,0.191-4.566,0.268"/>
		<path style="fill:none;stroke:#000000;stroke-width:0.3;" d="M17.874-51.02c8.724-0.58,17.719-1.573,24.92-3.128"/>
		<path style="fill:none;stroke:#000000;stroke-width:0.3;" d="M0.064-50.355c3.99-0.031,8.52-0.155,13.244-0.397"/>
		<path style="fill:none;stroke:#000000;stroke-width:0.3;" d="M48.563-1.648c-1.26,0.398-2.627,0.771-4.081,1.117"/>
		<path style="fill:none;stroke:#000000;stroke-width:0.3;" d="M42.794-0.148c0.575-0.124,1.138-0.252,1.689-0.383"/>
		<path style="fill:none;stroke:#000000;stroke-width:0.3;" d="M31.556-1.136C21.963-0.507,12.005-0.65,3.736-1.061"/>
		<path style="fill:none;stroke:#000000;stroke-width:0.3;" d="M31.556-1.136c2.327-0.152,4.632-0.351,6.887-0.602"/>
		<path style="fill:none;stroke:#000000;stroke-width:0.3;" d="M0.064-1.266c1.18,0.074,2.406,0.143,3.673,0.206"/>
		<path style="fill:none;stroke:#000000;stroke-width:0.3;" d="M20.449-39.196c6.851,2.554,14.168,4.45,21.423,5.826"/>
		<path style="fill:none;stroke:#000000;stroke-width:0.3;" d="M20.449-39.196c-1.774-0.661-3.517-1.366-5.219-2.118"/>
		<path style="fill:none;stroke:#000000;stroke-width:0.3;" d="M41.872-33.37c4.117,0.781,8.213,1.395,12.192,1.866"/>
		<path style="fill:none;stroke:#000000;stroke-width:0.3;" d="M22.102-42.883c5.637,2.656,18.858,6.339,31.962,8.453"/>
		<path style="fill:none;stroke:#000000;stroke-width:0.3;" d="M22.102-42.883c-0.069-0.033-0.138-0.065-0.205-0.098"/>
		<path style="fill:none;stroke:#000000;stroke-width:0.3;" d="M28.841-44.604c-0.037-0.015-0.074-0.03-0.111-0.044"/>
		<path style="fill:none;stroke:#000000;stroke-width:0.3;" d="M41.555-39.766c-5.255-1.77-9.682-3.622-12.714-4.837"/>
		<path style="fill:none;stroke:#000000;stroke-width:0.3;" d="M41.555-39.766c3.807,1.282,8.048,2.52,12.509,3.441"/>
		<path style="fill:none;stroke:#000000;stroke-width:0.3;" d="M34.396-46.148c7.446,3.004,10.899,5.19,19.667,6.717"/>
		<path style="fill:none;stroke:#000000;stroke-width:0.3;" d="M8.058-33.354c6.916,0.74,13.333,0.861,18.016-0.054"/>
		<path style="fill:none;stroke:#000000;stroke-width:0.3;" d="M8.058-33.354c-2.616-0.28-5.302-0.649-7.994-1.083"/>
		<path style="fill:none;stroke:#000000;stroke-width:0.3;" d="M9.551-34.968c3.417,0.259,6.872,0.246,10.281-0.148"/>
		<path style="fill:none;stroke:#000000;stroke-width:0.3;" d="M9.551-34.968c-3.22-0.244-6.407-0.729-9.488-1.367"/>
		<path style="fill:none;stroke:#000000;stroke-width:0.3;" d="M19.832-35.116c0.091-0.011,0.182-0.021,0.273-0.032"/>
		<path style="fill:none;stroke:#000000;stroke-width:0.3;" d="M8.771-38.314c-2.227-0.211-4.199-0.442-5.972-0.693"/>
		<path style="fill:none;stroke:#000000;stroke-width:0.3;" d="M0.064-39.438c0.858,0.15,1.768,0.293,2.736,0.431"/>
		<path style="fill:none;stroke:#000000;stroke-width:0.3;" d="M54.063-41.938c-0.466,0.045-0.905,0.087-1.312,0.124"/>
		<line style="fill:none;stroke:#000000;stroke-width:0.3;" x1="52.751" y1="-41.814" x2="52.751" y2="-41.814"/>
		<path style="fill:none;stroke:#000000;stroke-width:0.3;" d="M54.063-46.275c-5.791,0.278-10.127,0.369-11.812,0.461"/>
		<path style="fill:none;stroke:#000000;stroke-width:0.3;" d="M54.063-50.355c-2.639,0.02-5.042,0-7.107-0.055"/>
		<path style="fill:none;stroke:#000000;stroke-width:0.3;" d="M46.885-50.412c0.024,0,0.048,0.001,0.072,0.002"/>
		<path style="fill:none;stroke:#000000;stroke-width:0.3;" d="M0.632-28.24c-0.19-0.015-0.379-0.029-0.569-0.044"/>
		<path style="fill:none;stroke:#000000;stroke-width:0.3;" d="M0.632-28.24c1.532,0.118,3.084,0.22,4.646,0.307"/>
		<path style="fill:none;stroke:#000000;stroke-width:0.3;" d="M5.278-27.934c13.605,0.753,27.94,0.282,36.355-2.128"/>
		<path style="fill:none;stroke:#000000;stroke-width:0.3;" d="M24.2-24.215C16.248-23.42,7.845-23.1,0.064-23.181"/>
		<path style="fill:none;stroke:#000000;stroke-width:0.3;" d="M48.434-29.038c0.006-0.003,0.013-0.005,0.019-0.007"/>
		<path style="fill:none;stroke:#000000;stroke-width:0.3;" d="M48.434-29.038c-6.347,2.329-14.986,3.897-24.233,4.822"/>
		<path style="fill:none;stroke:#000000;stroke-width:0.3;" d="M12.985-19.311c-4.355,0.624-8.72,1.131-12.922,1.453"/>
		<path style="fill:none;stroke:#000000;stroke-width:0.3;" d="M52.625-27.564c0.541-0.149,1.022-0.284,1.438-0.403"/>
		<path style="fill:none;stroke:#000000;stroke-width:0.3;" d="M12.985-19.311c16.485-2.36,32.828-6.382,39.64-8.253"/>
		<path style="fill:none;stroke:#000000;stroke-width:0.3;" d="M51.887-23.215c-1.933-0.04-3.819-0.104-5.642-0.192"/>
		<path style="fill:none;stroke:#000000;stroke-width:0.3;" d="M46.245-23.407c-0.02-0.001-0.039-0.002-0.059-0.003"/>
		<path style="fill:none;stroke:#000000;stroke-width:0.3;" d="M51.887-23.215c0.719,0.015,1.445,0.026,2.176,0.033"/>
		<path style="fill:none;stroke:#000000;stroke-width:0.3;" d="M31.233-19.258c-0.015-0.005-0.03-0.01-0.045-0.015"/>
		<path style="fill:none;stroke:#000000;stroke-width:0.3;" d="M31.233-19.258c2.691,0.926,7.092,1.298,9.268,1.485    c2.188,0.188,5.062,0.292,5.062,0.292c2.714-0.019,5.567-0.153,8.5-0.377"/>
		<path style="fill:none;stroke:#000000;stroke-width:0.3;" d="M32.573-3.394c0.039-0.002,0.077-0.003,0.115-0.004"/>
		<path style="fill:none;stroke:#000000;stroke-width:0.3;" d="M32.573-3.394c-6.38,0.234-16.75,0.214-28.033-0.792"/>
		<path style="fill:none;stroke:#000000;stroke-width:0.3;" d="M0.064-4.632c1.503,0.167,2.998,0.316,4.477,0.447"/>
		<path style="fill:none;stroke:#000000;stroke-width:0.3;" d="M0.064-7.38c6.405,1.022,11.472,1.439,15.621,1.55"/>
		<path style="fill:none;stroke:#000000;stroke-width:0.3;" d="M24.438-6.023C22-5.86,19.165-5.737,15.684-5.83"/>
		<path style="fill:none;stroke:#000000;stroke-width:0.3;" d="M19.801-7.773c-3.087,0.078-9.46-0.244-17.107-1.5"/>
		<line style="fill:none;stroke:#000000;stroke-width:0.3;" x1="19.801" y1="-7.773" x2="19.813" y2="-7.773"/>
		<path style="fill:none;stroke:#000000;stroke-width:0.3;" d="M0.064-9.733c0.891,0.167,1.769,0.32,2.631,0.461"/>
		<path style="fill:none;stroke:#000000;stroke-width:0.3;" d="M8.159-10.328c2.764,0.666,4.97,0.805,7.28,0.805"/>
		<path style="fill:none;stroke:#000000;stroke-width:0.3;" d="M8.159-10.328c-2.223-0.535-4.806-1.41-8.095-2.827"/>
		<path style="fill:none;stroke:#000000;stroke-width:0.3;" d="M12.939-15.398c11.75,5.875,25.875,8.375,25.875,8.375    c5.005,1.05,10.177,1.826,15.25,2.39"/>
		<path style="fill:none;stroke:#000000;stroke-width:0.3;" d="M54.063-7.381c-4.749-0.758-10.232-1.848-16.625-3.392    c0,0-12.375-3.5-17.25-5.875"/>
		<line style="fill:none;stroke:#000000;stroke-width:0.3;" x1="37.988" y1="-13.969" x2="37.438" y2="-14.148"/>
		<path style="fill:none;stroke:#000000;stroke-width:0.3;" d="M54.063-9.733c-1.795-0.334-3.645-0.72-5.524-1.164"/>
		<path style="fill:none;stroke:#000000;stroke-width:0.3;" d="M37.988-13.969l4.451,1.446c2.049,0.613,4.092,1.152,6.101,1.626"/>
		<path style="fill:none;stroke:#000000;stroke-width:0.3;" d="M54.063-13.155c-0.366-0.158-0.741-0.322-1.125-0.493"/>
		<path style="fill:none;stroke:#000000;stroke-width:0.3;" d="M23.126-6.585c12.938,3,18.938,4.188,18.938,4.188l0.333,0.125    c0.013,0.001,0.025,0.003,0.038,0.004"/>
		<path style="fill:none;stroke:#000000;stroke-width:0.3;" d="M53.063-1.33c-4.395-0.29-8.073-0.636-10.628-0.938"/>
		<path style="fill:none;stroke:#000000;stroke-width:0.3;" d="M53.063-1.33c0.33,0.022,0.663,0.043,1,0.064"/>
		<path style="fill:none;stroke:#000000;stroke-width:0.3;" d="M36.23-31.148c-5.767,1.117-19.995,1.558-36.167-0.356"/>
		<path style="fill:none;stroke:#000000;stroke-width:0.3;" d="M0.632-28.24l-0.365,0.214c-0.066,0.019-0.134,0.039-0.204,0.059"/>
		<line style="fill:none;stroke:#000000;stroke-width:0.3;" x1="0.632" y1="-28.24" x2="0.688" y2="-28.273"/>
		<line style="fill:none;stroke:#000000;stroke-width:0.3;" x1="12.189" y1="-27.711" x2="14.564" y2="-30.294"/>
		<path style="fill:none;stroke:#000000;stroke-width:0.3;" d="M5.278-27.934l-0.214,0.119c-1.09,0.471-2.802,1.118-5,1.879"/>
		<line style="fill:none;stroke:#000000;stroke-width:0.3;" x1="5.278" y1="-27.934" x2="5.438" y2="-28.023"/>
		<path style="fill:none;stroke:#000000;stroke-width:0.3;" d="M46.658-54.148c2.289,0.379,4.629,0.693,7.016,0.926"/>
		<line style="fill:none;stroke:#000000;stroke-width:0.3;" x1="17.874" y1="-51.02" x2="14.417" y2="-47.335"/>
		<line style="fill:none;stroke:#000000;stroke-width:0.3;" x1="17.874" y1="-51.02" x2="17.876" y2="-51.023"/>
		<line style="fill:none;stroke:#000000;stroke-width:0.3;" x1="28.605" y1="-52.023" x2="30.619" y2="-54.148"/>
		<line style="fill:none;stroke:#000000;stroke-width:0.3;" x1="31.556" y1="-1.136" x2="31.626" y2="-1.211"/>
		<line style="fill:none;stroke:#000000;stroke-width:0.3;" x1="31.556" y1="-1.136" x2="30.619" y2="-0.148"/>
		<line style="fill:none;stroke:#000000;stroke-width:0.3;" x1="34.73" y1="-47.21" x2="34.743" y2="-47.225"/>
		<line style="fill:none;stroke:#000000;stroke-width:0.3;" x1="37.853" y1="-50.556" x2="37.938" y2="-50.648"/>
		<line style="fill:none;stroke:#000000;stroke-width:0.3;" x1="37.853" y1="-50.556" x2="34.743" y2="-47.225"/>
		<line style="fill:none;stroke:#000000;stroke-width:0.3;" x1="6.292" y1="-46.624" x2="6.313" y2="-46.648"/>
		<line style="fill:none;stroke:#000000;stroke-width:0.3;" x1="6.292" y1="-46.624" x2="2.334" y2="-42.252"/>
		<line style="fill:none;stroke:#000000;stroke-width:0.3;" x1="17.584" y1="-41.918" x2="19.98" y2="-44.481"/>
		<line style="fill:none;stroke:#000000;stroke-width:0.3;" x1="52.063" y1="-50.314" x2="48.188" y2="-46.064"/>
		<line style="fill:none;stroke:#000000;stroke-width:0.3;" x1="34.563" y1="-42.314" x2="31.959" y2="-39.439"/>
		<line style="fill:none;stroke:#000000;stroke-width:0.3;" x1="25.146" y1="-37.689" x2="27.751" y2="-40.564"/>
		<line style="fill:none;stroke:#000000;stroke-width:0.3;" x1="37.001" y1="-34.46" x2="39.501" y2="-37.189"/>
		<line style="fill:none;stroke:#000000;stroke-width:0.3;" x1="52.625" y1="-27.564" x2="50.021" y2="-24.69"/>
		<line style="fill:none;stroke:#000000;stroke-width:0.3;" x1="52.625" y1="-27.564" x2="52.626" y2="-27.565"/>
		<line style="fill:none;stroke:#000000;stroke-width:0.3;" x1="24.251" y1="-24.273" x2="24.2" y2="-24.215"/>
		<line style="fill:none;stroke:#000000;stroke-width:0.3;" x1="24.2" y1="-24.215" x2="21.146" y2="-20.752"/>
		<line style="fill:none;stroke:#000000;stroke-width:0.3;" x1="10.501" y1="-23.273" x2="6.501" y2="-18.586"/>
		<line style="fill:none;stroke:#000000;stroke-width:0.3;" x1="12.985" y1="-19.311" x2="9.021" y2="-14.877"/>
		<line style="fill:none;stroke:#000000;stroke-width:0.3;" x1="12.985" y1="-19.311" x2="13.064" y2="-19.398"/>
		<line style="fill:none;stroke:#000000;stroke-width:0.3;" x1="36.459" y1="-20.69" x2="39.688" y2="-24.336"/>
		<line style="fill:none;stroke:#000000;stroke-width:0.3;" x1="52.938" y1="-31.565" x2="50.438" y2="-28.898"/>
		<line style="fill:none;stroke:#000000;stroke-width:0.3;" x1="41.555" y1="-39.766" x2="43.73" y2="-42.231"/>
		<line style="fill:none;stroke:#000000;stroke-width:0.3;" x1="41.555" y1="-39.766" x2="41.542" y2="-39.752"/>
		<line style="fill:none;stroke:#000000;stroke-width:0.3;" x1="0.396" y1="-36.293" x2="2.8" y2="-39.007"/>
		<line style="fill:none;stroke:#000000;stroke-width:0.3;" x1="2.813" y1="-39.023" x2="2.8" y2="-39.007"/>
		<line style="fill:none;stroke:#000000;stroke-width:0.3;" x1="41.872" y1="-33.37" x2="39.396" y2="-30.606"/>
		<line style="fill:none;stroke:#000000;stroke-width:0.3;" x1="41.872" y1="-33.37" x2="41.896" y2="-33.398"/>
		<line style="fill:none;stroke:#000000;stroke-width:0.3;" x1="20.449" y1="-39.196" x2="17.417" y2="-35.835"/>
		<line style="fill:none;stroke:#000000;stroke-width:0.3;" x1="20.449" y1="-39.196" x2="20.48" y2="-39.231"/>
		<line style="fill:none;stroke:#000000;stroke-width:0.3;" x1="9.551" y1="-34.968" x2="8.058" y2="-33.354"/>
		<line style="fill:none;stroke:#000000;stroke-width:0.3;" x1="8.058" y1="-33.354" x2="8.021" y2="-33.314"/>
		<line style="fill:none;stroke:#000000;stroke-width:0.3;" x1="9.551" y1="-34.968" x2="9.564" y2="-34.981"/>
		<line style="fill:none;stroke:#000000;stroke-width:0.3;" x1="28.313" y1="-32.898" x2="26.084" y2="-30.336"/>
		<line style="fill:none;stroke:#000000;stroke-width:0.3;" x1="17.188" y1="-27.586" x2="13.439" y2="-23.481"/>
		<line style="fill:none;stroke:#000000;stroke-width:0.3;" x1="33.751" y1="-28.523" x2="30.896" y2="-25.086"/>
		<line style="fill:none;stroke:#000000;stroke-width:0.3;" x1="51.887" y1="-23.215" x2="46.834" y2="-17.502"/>
		<line style="fill:none;stroke:#000000;stroke-width:0.3;" x1="51.887" y1="-23.215" x2="51.938" y2="-23.273"/>
		<line style="fill:none;stroke:#000000;stroke-width:0.3;" x1="29.012" y1="-18.714" x2="29.063" y2="-18.773"/>
		<line style="fill:none;stroke:#000000;stroke-width:0.3;" x1="29.012" y1="-18.714" x2="26.334" y2="-15.689"/>
		<line style="fill:none;stroke:#000000;stroke-width:0.3;" x1="50.938" y1="-13.648" x2="48.539" y2="-10.897"/>
		<line style="fill:none;stroke:#000000;stroke-width:0.3;" x1="48.521" y1="-10.877" x2="48.539" y2="-10.897"/>
		<line style="fill:none;stroke:#000000;stroke-width:0.3;" x1="34.501" y1="-11.585" x2="31.834" y2="-8.627"/>
		<line style="fill:none;stroke:#000000;stroke-width:0.3;" x1="18.313" y1="-16.398" x2="18.295" y2="-16.378"/>
		<line style="fill:none;stroke:#000000;stroke-width:0.3;" x1="18.295" y1="-16.378" x2="16.084" y2="-13.939"/>
		<line style="fill:none;stroke:#000000;stroke-width:0.3;" x1="42.435" y1="-2.269" x2="41.466" y2="-1.135"/>
		<line style="fill:none;stroke:#000000;stroke-width:0.3;" x1="41.459" y1="-1.127" x2="41.466" y2="-1.135"/>
		<line style="fill:none;stroke:#000000;stroke-width:0.3;" x1="42.435" y1="-2.269" x2="42.438" y2="-2.273"/>
		<line style="fill:none;stroke:#000000;stroke-width:0.3;" x1="24.584" y1="-0.814" x2="26.813" y2="-3.211"/>
		<line style="fill:none;stroke:#000000;stroke-width:0.3;" x1="15.684" y1="-5.83" x2="13.646" y2="-3.565"/>
		<line style="fill:none;stroke:#000000;stroke-width:0.3;" x1="15.684" y1="-5.83" x2="15.689" y2="-5.835"/>
		<line style="fill:none;stroke:#000000;stroke-width:0.3;" x1="4.563" y1="-4.21" x2="4.541" y2="-4.185"/>
		<line style="fill:none;stroke:#000000;stroke-width:0.3;" x1="1.896" y1="-1.252" x2="4.541" y2="-4.185"/>
		<line style="fill:none;stroke:#000000;stroke-width:0.3;" x1="0.959" y1="-7.314" x2="2.695" y2="-9.272"/>
		<line style="fill:none;stroke:#000000;stroke-width:0.3;" x1="2.751" y1="-9.335" x2="2.695" y2="-9.272"/>
		<line style="fill:none;stroke:#000000;stroke-width:0.3;" x1="8.159" y1="-10.328" x2="8.146" y2="-10.314"/>
		<line style="fill:none;stroke:#000000;stroke-width:0.3;" x1="8.159" y1="-10.328" x2="9.667" y2="-12"/>
		<line style="fill:none;stroke:#000000;stroke-width:0.3;" x1="9.667" y1="-12" x2="9.689" y2="-12.023"/>
		<line style="fill:none;stroke:#000000;stroke-width:0.3;" x1="18.688" y1="-8.273" x2="21.813" y2="-11.648"/>
		<line style="fill:none;stroke:#000000;stroke-width:0.3;" x1="36.751" y1="-3.523" x2="39.626" y2="-6.71"/>
		<line style="fill:none;stroke:#000000;stroke-width:0.3;" x1="16.416" y1="-0.148" x2="16.813" y2="-0.586"/>
		<line style="fill:none;stroke:#000000;stroke-width:0.3;" x1="13.307" y1="-50.752" x2="16.395" y2="-54.148"/>
		<line style="fill:none;stroke:#000000;stroke-width:0.3;" x1="13.307" y1="-50.752" x2="13.285" y2="-50.727"/>
	</g>
</svg>
