<?xml version="1.0"?>
<!-- Converted with SVG Converter - Version 0.9.5 (Compiled Fri Feb 21 09:53:38 2020) - Copyright (C) 2011 Nokia -->
<svg xmlns="http://www.w3.org/2000/svg" y="0px" xml:space="preserve" viewBox="0 -54.203 54.125 54.125" xmlns:xlink="http://www.w3.org/1999/xlink" x="0px" width="54.125" height="54.125" version="1.1" baseProfile="tiny">
 <g>
  <rect y="-54.203" style="fill:none;" width="54.125" height="54.125"/>
  <line x2="4.587" style="fill:none;stroke:#000000;stroke-width:0.3;" y1="-50.453" y2="-50.453" x1="17.337"/>
  <line x2="45.149" style="fill:none;stroke:#000000;stroke-width:0.3;" y1="-50.453" y2="-50.453" x1="42.017"/>
  <line x2="45.149" style="fill:none;stroke:#000000;stroke-width:0.3;" y1="-50.453" y2="-50.453" x1="54.125"/>
  <line x2="0" style="fill:none;stroke:#000000;stroke-width:0.3;" y1="-50.453" y2="-50.453" x1="4.587"/>
  <line x2="30.774" style="fill:none;stroke:#000000;stroke-width:0.3;" y1="-50.453" y2="-50.453" x1="42.017"/>
  <line x2="28.35" style="fill:none;stroke:#000000;stroke-width:0.3;" y1="-50.453" y2="-50.453" x1="17.337"/>
  <line x2="28.35" style="fill:none;stroke:#000000;stroke-width:0.3;" y1="-50.453" y2="-50.453" x1="30.774"/>
  <line x2="7.97" style="fill:none;stroke:#000000;stroke-width:0.3;" y1="-46.278" y2="-46.278" x1="34.782"/>
  <line x2="34.782" style="fill:none;stroke:#000000;stroke-width:0.3;" y1="-46.278" y2="-46.278" x1="54.125"/>
  <line x2="0" style="fill:none;stroke:#000000;stroke-width:0.3;" y1="-46.278" y2="-46.278" x1="7.97"/>
  <line x2="54.125" style="fill:none;stroke:#000000;stroke-width:0.3;" y1="-42.09" y2="-42.09" x1="53.782"/>
  <line x2="12.72" style="fill:none;stroke:#000000;stroke-width:0.3;" y1="-42.09" y2="-42.09" x1="27.532"/>
  <line x2="53.782" style="fill:none;stroke:#000000;stroke-width:0.3;" y1="-42.09" y2="-42.09" x1="40.97"/>
  <line x2="0" style="fill:none;stroke:#000000;stroke-width:0.3;" y1="-42.09" y2="-42.09" x1="12.72"/>
  <line x2="40.97" style="fill:none;stroke:#000000;stroke-width:0.3;" y1="-42.09" y2="-42.09" x1="27.532"/>
  <line x2="27.102" style="fill:none;stroke:#000000;stroke-width:0.3;" y1="-12.477" y2="-12.477" x1="41.102"/>
  <line x2="53.683" style="fill:none;stroke:#000000;stroke-width:0.3;" y1="-12.477" y2="-12.477" x1="41.102"/>
  <line x2="54.125" style="fill:none;stroke:#000000;stroke-width:0.3;" y1="-12.477" y2="-12.477" x1="53.683"/>
  <line x2="54.188" style="fill:none;stroke:#000000;stroke-width:0.3;" y1="-12.477" y2="-12.477" x1="54.125"/>
  <line x2="27.102" style="fill:none;stroke:#000000;stroke-width:0.3;" y1="-12.477" y2="-12.477" x1="12.602"/>
  <line x2="0" style="fill:none;stroke:#000000;stroke-width:0.3;" y1="-12.477" y2="-12.477" x1="12.602"/>
  <line x2="24.788" style="fill:none;stroke:#000000;stroke-width:0.3;" y1="-8.703" y2="-8.703" x1="18.463"/>
  <line x2="47.062" style="fill:none;stroke:#000000;stroke-width:0.3;" y1="-8.703" y2="-8.703" x1="38.788"/>
  <line x2="5.463" style="fill:none;stroke:#000000;stroke-width:0.3;" y1="-8.703" y2="-8.703" x1="10.288"/>
  <line x2="32.463" style="fill:none;stroke:#000000;stroke-width:0.3;" y1="-8.703" y2="-8.703" x1="38.788"/>
  <line x2="32.463" style="fill:none;stroke:#000000;stroke-width:0.3;" y1="-8.703" y2="-8.703" x1="24.788"/>
  <line x2="0" style="fill:none;stroke:#000000;stroke-width:0.3;" y1="-8.703" y2="-8.703" x1="5.463"/>
  <line x2="18.463" style="fill:none;stroke:#000000;stroke-width:0.3;" y1="-8.703" y2="-8.703" x1="10.288"/>
  <line x2="54.125" style="fill:none;stroke:#000000;stroke-width:0.3;" y1="-8.703" y2="-8.703" x1="51.229"/>
  <line x2="47.062" style="fill:none;stroke:#000000;stroke-width:0.3;" y1="-8.703" y2="-8.703" x1="51.229"/>
  <line x2="19.309" style="fill:none;stroke:#000000;stroke-width:0.3;" y1="-38.071" y2="-38.071" x1="32.621"/>
  <line x2="47.246" style="fill:none;stroke:#000000;stroke-width:0.3;" y1="-38.071" y2="-38.071" x1="54.125"/>
  <line x2="19.309" style="fill:none;stroke:#000000;stroke-width:0.3;" y1="-38.071" y2="-38.071" x1="6.621"/>
  <line x2="47.246" style="fill:none;stroke:#000000;stroke-width:0.3;" y1="-38.071" y2="-38.071" x1="32.621"/>
  <line x2="0" style="fill:none;stroke:#000000;stroke-width:0.3;" y1="-38.071" y2="-38.071" x1="6.621"/>
  <line x2="53.912" style="fill:none;stroke:#000000;stroke-width:0.3;" y1="-34.79" y2="-34.79" x1="54.125"/>
  <line x2="41.854" style="fill:none;stroke:#000000;stroke-width:0.3;" y1="-34.79" y2="-34.79" x1="28.041"/>
  <line x2="0" style="fill:none;stroke:#000000;stroke-width:0.3;" y1="-34.79" y2="-34.79" x1="13.041"/>
  <line x2="53.912" style="fill:none;stroke:#000000;stroke-width:0.3;" y1="-34.79" y2="-34.79" x1="41.854"/>
  <line x2="13.041" style="fill:none;stroke:#000000;stroke-width:0.3;" y1="-34.79" y2="-34.79" x1="28.041"/>
  <line x2="49.548" style="fill:none;stroke:#000000;stroke-width:0.3;" y1="-31.365" y2="-31.365" x1="34.61"/>
  <line x2="20.923" style="fill:none;stroke:#000000;stroke-width:0.3;" y1="-31.365" y2="-31.365" x1="7.485"/>
  <line x2="51.712" style="fill:none;stroke:#000000;stroke-width:0.3;" y1="-31.365" y2="-31.365" x1="49.548"/>
  <line x2="20.923" style="fill:none;stroke:#000000;stroke-width:0.3;" y1="-31.365" y2="-31.365" x1="34.61"/>
  <line x2="0" style="fill:none;stroke:#000000;stroke-width:0.3;" y1="-31.365" y2="-31.365" x1="7.485"/>
  <line x2="54.125" style="fill:none;stroke:#000000;stroke-width:0.3;" y1="-31.365" y2="-31.365" x1="51.712"/>
  <line x2="12.492" style="fill:none;stroke:#000000;stroke-width:0.3;" y1="-27.315" y2="-27.315" x1="27.492"/>
  <line x2="27.492" style="fill:none;stroke:#000000;stroke-width:0.3;" y1="-27.315" y2="-27.315" x1="40.867"/>
  <line x2="54.125" style="fill:none;stroke:#000000;stroke-width:0.3;" y1="-27.315" y2="-27.315" x1="54.055"/>
  <line x2="40.867" style="fill:none;stroke:#000000;stroke-width:0.3;" y1="-27.315" y2="-27.315" x1="54.055"/>
  <line x2="0" style="fill:none;stroke:#000000;stroke-width:0.3;" y1="-27.315" y2="-27.315" x1="12.492"/>
  <line x2="0" style="fill:none;stroke:#000000;stroke-width:0.3;" y1="-23.515" y2="-23.515" x1="54.125"/>
  <line x2="54.125" style="fill:none;stroke:#000000;stroke-width:0.3;" y1="-19.315" y2="-19.315" x1="54.188"/>
  <line x2="54.125" style="fill:none;stroke:#000000;stroke-width:0.3;" y1="-19.315" y2="-19.315" x1="0"/>
  <line x2="54.125" style="fill:none;stroke:#000000;stroke-width:0.3;" y1="-16.09" y2="-16.09" x1="51.82"/>
  <line x2="51.82" style="fill:none;stroke:#000000;stroke-width:0.3;" y1="-16.09" y2="-16.09" x1="0"/>
  <line x2="50.391" style="fill:none;stroke:#000000;stroke-width:0.3;" y1="-0.915" y2="-0.915" x1="37.016"/>
  <line x2="23.328" style="fill:none;stroke:#000000;stroke-width:0.3;" y1="-0.915" y2="-0.915" x1="9.016"/>
  <line x2="9.016" style="fill:none;stroke:#000000;stroke-width:0.3;" y1="-0.915" y2="-0.915" x1="0"/>
  <line x2="37.016" style="fill:none;stroke:#000000;stroke-width:0.3;" y1="-0.915" y2="-0.915" x1="23.328"/>
  <line x2="54.125" style="fill:none;stroke:#000000;stroke-width:0.3;" y1="-0.915" y2="-0.915" x1="50.391"/>
  <line x2="54.125" style="fill:none;stroke:#000000;stroke-width:0.3;" y1="-4.29" y2="-4.29" x1="0"/>
  <line x2="5.463" style="fill:none;stroke:#000000;stroke-width:0.3;" y1="-8.765" y2="-8.703" x1="5.5"/>
  <line x2="2.871" style="fill:none;stroke:#000000;stroke-width:0.3;" y1="-8.703" y2="-4.315" x1="5.463"/>
  <line x2="15.871" style="fill:none;stroke:#000000;stroke-width:0.3;" y1="-8.703" y2="-4.315" x1="18.463"/>
  <line x2="18.463" style="fill:none;stroke:#000000;stroke-width:0.3;" y1="-8.765" y2="-8.703" x1="18.5"/>
  <line x2="32.463" style="fill:none;stroke:#000000;stroke-width:0.3;" y1="-8.765" y2="-8.703" x1="32.5"/>
  <line x2="32.463" style="fill:none;stroke:#000000;stroke-width:0.3;" y1="-4.315" y2="-8.703" x1="29.871"/>
  <line x2="44.434" style="fill:none;stroke:#000000;stroke-width:0.3;" y1="-8.703" y2="-4.315" x1="47.062"/>
  <line x2="50.375" style="fill:none;stroke:#000000;stroke-width:0.3;" y1="-0.915" y2="-0.89" x1="50.391"/>
  <line x2="52.438" style="fill:none;stroke:#000000;stroke-width:0.3;" y1="-0.915" y2="-4.265" x1="50.391"/>
  <line x2="37" style="fill:none;stroke:#000000;stroke-width:0.3;" y1="-0.915" y2="-0.89" x1="37.016"/>
  <line x2="39.062" style="fill:none;stroke:#000000;stroke-width:0.3;" y1="-0.915" y2="-4.265" x1="37.016"/>
  <line x2="23.312" style="fill:none;stroke:#000000;stroke-width:0.3;" y1="-0.915" y2="-0.89" x1="23.328"/>
  <line x2="25.375" style="fill:none;stroke:#000000;stroke-width:0.3;" y1="-0.915" y2="-4.265" x1="23.328"/>
  <line x2="11.062" style="fill:none;stroke:#000000;stroke-width:0.3;" y1="-0.915" y2="-4.265" x1="9.016"/>
  <line x2="9" style="fill:none;stroke:#000000;stroke-width:0.3;" y1="-0.915" y2="-0.89" x1="9.016"/>
  <line x2="51.188" style="fill:none;stroke:#000000;stroke-width:0.3;" y1="-8.703" y2="-8.64" x1="51.229"/>
  <line x2="53.696" style="fill:none;stroke:#000000;stroke-width:0.3;" y1="-12.477" y2="-12.498" x1="53.683"/>
  <line x2="53.683" style="fill:none;stroke:#000000;stroke-width:0.3;" y1="-8.703" y2="-12.477" x1="51.229"/>
  <line x2="49.438" style="fill:none;stroke:#000000;stroke-width:0.3;" y1="-12.515" y2="-16.078" x1="47.312"/>
  <line x2="44.812" style="fill:none;stroke:#000000;stroke-width:0.3;" y1="-23.453" y2="-19.39" x1="47.375"/>
  <line x2="51.82" style="fill:none;stroke:#000000;stroke-width:0.3;" y1="-16.078" y2="-16.09" x1="51.812"/>
  <line x2="51.82" style="fill:none;stroke:#000000;stroke-width:0.3;" y1="-19.29" y2="-16.09" x1="53.863"/>
  <line x2="51.812" style="fill:none;stroke:#000000;stroke-width:0.3;" y1="-27.315" y2="-23.578" x1="54.055"/>
  <line x2="54.062" style="fill:none;stroke:#000000;stroke-width:0.3;" y1="-27.315" y2="-27.328" x1="54.055"/>
  <line x2="49.562" style="fill:none;stroke:#000000;stroke-width:0.3;" y1="-31.365" y2="-31.39" x1="49.548"/>
  <line x2="47.125" style="fill:none;stroke:#000000;stroke-width:0.3;" y1="-31.365" y2="-27.328" x1="49.548"/>
  <line x2="51.712" style="fill:none;stroke:#000000;stroke-width:0.3;" y1="-34.79" y2="-31.365" x1="53.912"/>
  <line x2="51.712" style="fill:none;stroke:#000000;stroke-width:0.3;" y1="-31.328" y2="-31.365" x1="51.688"/>
  <line x2="53.926" style="fill:none;stroke:#000000;stroke-width:0.3;" y1="-34.79" y2="-34.811" x1="53.912"/>
  <line x2="47.246" style="fill:none;stroke:#000000;stroke-width:0.3;" y1="-38.078" y2="-38.071" x1="47.25"/>
  <line x2="47.246" style="fill:none;stroke:#000000;stroke-width:0.3;" y1="-34.828" y2="-38.071" x1="45.25"/>
  <line x2="53.812" style="fill:none;stroke:#000000;stroke-width:0.3;" y1="-42.09" y2="-42.14" x1="53.782"/>
  <line x2="51.359" style="fill:none;stroke:#000000;stroke-width:0.3;" y1="-42.09" y2="-38.078" x1="53.782"/>
  <line x2="48.842" style="fill:none;stroke:#000000;stroke-width:0.3;" y1="-42.14" y2="-46.249" x1="46.188"/>
  <line x2="53.904" style="fill:none;stroke:#000000;stroke-width:0.3;" y1="-46.328" y2="-50.436" x1="51.292"/>
  <line x2="47.434" style="fill:none;stroke:#000000;stroke-width:0.3;" y1="-50.453" y2="-54.203" x1="45.149"/>
  <line x2="45.142" style="fill:none;stroke:#000000;stroke-width:0.3;" y1="-50.453" y2="-50.44" x1="45.149"/>
  <line x2="41.125" style="fill:none;stroke:#000000;stroke-width:0.3;" y1="-12.477" y2="-12.515" x1="41.102"/>
  <line x2="38.75" style="fill:none;stroke:#000000;stroke-width:0.3;" y1="-8.703" y2="-8.64" x1="38.788"/>
  <line x2="38.788" style="fill:none;stroke:#000000;stroke-width:0.3;" y1="-12.477" y2="-8.703" x1="41.102"/>
  <line x2="24.788" style="fill:none;stroke:#000000;stroke-width:0.3;" y1="-12.477" y2="-8.703" x1="27.102"/>
  <line x2="24.788" style="fill:none;stroke:#000000;stroke-width:0.3;" y1="-8.64" y2="-8.703" x1="24.75"/>
  <line x2="27.102" style="fill:none;stroke:#000000;stroke-width:0.3;" y1="-12.515" y2="-12.477" x1="27.125"/>
  <line x2="10.288" style="fill:none;stroke:#000000;stroke-width:0.3;" y1="-12.477" y2="-8.703" x1="12.602"/>
  <line x2="10.25" style="fill:none;stroke:#000000;stroke-width:0.3;" y1="-8.703" y2="-8.64" x1="10.288"/>
  <line x2="12.625" style="fill:none;stroke:#000000;stroke-width:0.3;" y1="-12.477" y2="-12.515" x1="12.602"/>
  <line x2="34.562" style="fill:none;stroke:#000000;stroke-width:0.3;" y1="-12.515" y2="-16.078" x1="32.438"/>
  <line x2="20.875" style="fill:none;stroke:#000000;stroke-width:0.3;" y1="-12.515" y2="-16.078" x1="18.75"/>
  <line x2="7.625" style="fill:none;stroke:#000000;stroke-width:0.3;" y1="-12.515" y2="-16.078" x1="5.5"/>
  <line x2="40" style="fill:none;stroke:#000000;stroke-width:0.3;" y1="-19.265" y2="-16.14" x1="41.938"/>
  <line x2="25.75" style="fill:none;stroke:#000000;stroke-width:0.3;" y1="-19.265" y2="-16.14" x1="27.688"/>
  <line x2="10.688" style="fill:none;stroke:#000000;stroke-width:0.3;" y1="-19.265" y2="-16.14" x1="12.625"/>
  <line x2="30.5" style="fill:none;stroke:#000000;stroke-width:0.3;" y1="-23.453" y2="-19.39" x1="33.062"/>
  <line x2="16.875" style="fill:none;stroke:#000000;stroke-width:0.3;" y1="-23.453" y2="-19.39" x1="19.438"/>
  <line x2="3.875" style="fill:none;stroke:#000000;stroke-width:0.3;" y1="-23.453" y2="-19.39" x1="6.438"/>
  <line x2="38.625" style="fill:none;stroke:#000000;stroke-width:0.3;" y1="-27.315" y2="-23.578" x1="40.867"/>
  <line x2="40.867" style="fill:none;stroke:#000000;stroke-width:0.3;" y1="-27.328" y2="-27.315" x1="40.875"/>
  <line x2="25.25" style="fill:none;stroke:#000000;stroke-width:0.3;" y1="-27.315" y2="-23.578" x1="27.492"/>
  <line x2="27.492" style="fill:none;stroke:#000000;stroke-width:0.3;" y1="-27.328" y2="-27.315" x1="27.5"/>
  <line x2="10.25" style="fill:none;stroke:#000000;stroke-width:0.3;" y1="-27.315" y2="-23.578" x1="12.492"/>
  <line x2="12.5" style="fill:none;stroke:#000000;stroke-width:0.3;" y1="-27.315" y2="-27.328" x1="12.492"/>
  <line x2="32.188" style="fill:none;stroke:#000000;stroke-width:0.3;" y1="-31.365" y2="-27.328" x1="34.61"/>
  <line x2="34.625" style="fill:none;stroke:#000000;stroke-width:0.3;" y1="-31.365" y2="-31.39" x1="34.61"/>
  <line x2="20.923" style="fill:none;stroke:#000000;stroke-width:0.3;" y1="-27.328" y2="-31.365" x1="18.5"/>
  <line x2="20.923" style="fill:none;stroke:#000000;stroke-width:0.3;" y1="-31.39" y2="-31.365" x1="20.938"/>
  <line x2="5.062" style="fill:none;stroke:#000000;stroke-width:0.3;" y1="-31.365" y2="-27.328" x1="7.485"/>
  <line x2="7.5" style="fill:none;stroke:#000000;stroke-width:0.3;" y1="-31.365" y2="-31.39" x1="7.485"/>
  <line x2="41.875" style="fill:none;stroke:#000000;stroke-width:0.3;" y1="-34.79" y2="-34.828" x1="41.854"/>
  <line x2="39.875" style="fill:none;stroke:#000000;stroke-width:0.3;" y1="-34.79" y2="-31.39" x1="41.854"/>
  <line x2="26.062" style="fill:none;stroke:#000000;stroke-width:0.3;" y1="-34.79" y2="-31.39" x1="28.041"/>
  <line x2="28.062" style="fill:none;stroke:#000000;stroke-width:0.3;" y1="-34.79" y2="-34.828" x1="28.041"/>
  <line x2="13.062" style="fill:none;stroke:#000000;stroke-width:0.3;" y1="-34.79" y2="-34.828" x1="13.041"/>
  <line x2="11.062" style="fill:none;stroke:#000000;stroke-width:0.3;" y1="-34.79" y2="-31.39" x1="13.041"/>
  <line x2="30.625" style="fill:none;stroke:#000000;stroke-width:0.3;" y1="-38.071" y2="-34.828" x1="32.621"/>
  <line x2="32.625" style="fill:none;stroke:#000000;stroke-width:0.3;" y1="-38.071" y2="-38.078" x1="32.621"/>
  <line x2="19.309" style="fill:none;stroke:#000000;stroke-width:0.3;" y1="-38.078" y2="-38.071" x1="19.312"/>
  <line x2="19.309" style="fill:none;stroke:#000000;stroke-width:0.3;" y1="-34.828" y2="-38.071" x1="17.312"/>
  <line x2="6.625" style="fill:none;stroke:#000000;stroke-width:0.3;" y1="-38.071" y2="-38.078" x1="6.621"/>
  <line x2="4.625" style="fill:none;stroke:#000000;stroke-width:0.3;" y1="-38.071" y2="-34.828" x1="6.621"/>
  <line x2="41" style="fill:none;stroke:#000000;stroke-width:0.3;" y1="-42.09" y2="-42.14" x1="40.97"/>
  <line x2="40.97" style="fill:none;stroke:#000000;stroke-width:0.3;" y1="-38.078" y2="-42.09" x1="38.562"/>
  <line x2="25.125" style="fill:none;stroke:#000000;stroke-width:0.3;" y1="-42.09" y2="-38.078" x1="27.532"/>
  <line x2="27.562" style="fill:none;stroke:#000000;stroke-width:0.3;" y1="-42.09" y2="-42.14" x1="27.532"/>
  <line x2="12.75" style="fill:none;stroke:#000000;stroke-width:0.3;" y1="-42.09" y2="-42.14" x1="12.72"/>
  <line x2="10.312" style="fill:none;stroke:#000000;stroke-width:0.3;" y1="-42.09" y2="-38.078" x1="12.72"/>
  <line x2="34.812" style="fill:none;stroke:#000000;stroke-width:0.3;" y1="-46.278" y2="-46.328" x1="34.782"/>
  <line x2="32.25" style="fill:none;stroke:#000000;stroke-width:0.3;" y1="-46.278" y2="-42.14" x1="34.782"/>
  <line x2="21.125" style="fill:none;stroke:#000000;stroke-width:0.3;" y1="-42.14" y2="-46.265" x1="18.625"/>
  <line x2="5.438" style="fill:none;stroke:#000000;stroke-width:0.3;" y1="-46.278" y2="-42.14" x1="7.97"/>
  <line x2="8" style="fill:none;stroke:#000000;stroke-width:0.3;" y1="-46.278" y2="-46.328" x1="7.97"/>
  <line x2="39.5" style="fill:none;stroke:#000000;stroke-width:0.3;" y1="-50.453" y2="-46.328" x1="42.017"/>
  <line x2="42.042" style="fill:none;stroke:#000000;stroke-width:0.3;" y1="-50.453" y2="-50.495" x1="42.017"/>
  <line x2="28.35" style="fill:none;stroke:#000000;stroke-width:0.3;" y1="-46.328" y2="-50.453" x1="25.812"/>
  <line x2="28.35" style="fill:none;stroke:#000000;stroke-width:0.3;" y1="-50.495" y2="-50.453" x1="28.375"/>
  <line x2="10.938" style="fill:none;stroke:#000000;stroke-width:0.3;" y1="-50.411" y2="-46.328" x1="13.459"/>
  <line x2="33.059" style="fill:none;stroke:#000000;stroke-width:0.3;" y1="-50.453" y2="-54.203" x1="30.774"/>
  <line x2="30.774" style="fill:none;stroke:#000000;stroke-width:0.3;" y1="-50.44" y2="-50.453" x1="30.767"/>
  <line x2="17.329" style="fill:none;stroke:#000000;stroke-width:0.3;" y1="-50.453" y2="-50.44" x1="17.337"/>
  <line x2="19.621" style="fill:none;stroke:#000000;stroke-width:0.3;" y1="-50.453" y2="-54.203" x1="17.337"/>
  <line x2="4.587" style="fill:none;stroke:#000000;stroke-width:0.3;" y1="-50.44" y2="-50.453" x1="4.579"/>
  <line x2="6.871" style="fill:none;stroke:#000000;stroke-width:0.3;" y1="-50.453" y2="-54.203" x1="4.587"/>
  <line x2="47.423" style="fill:none;stroke:#000000;stroke-width:0.3;" y1="-0.828" y2="-0.078" x1="47.875"/>
  <line x2="33.048" style="fill:none;stroke:#000000;stroke-width:0.3;" y1="-0.828" y2="-0.078" x1="33.5"/>
  <line x2="19.61" style="fill:none;stroke:#000000;stroke-width:0.3;" y1="-0.828" y2="-0.078" x1="20.062"/>
  <line x2="6.86" style="fill:none;stroke:#000000;stroke-width:0.3;" y1="-0.828" y2="-0.078" x1="7.312"/>
  <line x2="15.372" style="fill:none;stroke:#000000;stroke-width:0.3;" y1="-52.27" y2="-52.27" x1="8.122"/>
  <line x2="42.497" style="fill:none;stroke:#000000;stroke-width:0.3;" y1="-52.27" y2="-52.27" x1="35.247"/>
  <line x2="15.422" style="fill:none;stroke:#000000;stroke-width:0.3;" y1="-48.257" y2="-48.257" x1="22.672"/>
  <line x2="43.172" style="fill:none;stroke:#000000;stroke-width:0.3;" y1="-48.257" y2="-48.257" x1="50.422"/>
  <line x2="30.062" style="fill:none;stroke:#000000;stroke-width:0.3;" y1="-44.194" y2="-44.194" x1="22.812"/>
  <line x2="0" style="fill:none;stroke:#000000;stroke-width:0.3;" y1="-44.194" y2="-44.194" x1="3.398"/>
  <line x2="29.247" style="fill:none;stroke:#000000;stroke-width:0.3;" y1="-39.944" y2="-39.944" x1="36.497"/>
  <line x2="8.122" style="fill:none;stroke:#000000;stroke-width:0.3;" y1="-39.944" y2="-39.944" x1="0.872"/>
  <line x2="34.947" style="fill:none;stroke:#000000;stroke-width:0.3;" y1="-36.444" y2="-36.444" x1="42.197"/>
  <line x2="43.997" style="fill:none;stroke:#000000;stroke-width:0.3;" y1="-33.069" y2="-33.069" x1="51.247"/>
  <line x2="54.125" style="fill:none;stroke:#000000;stroke-width:0.3;" y1="-29.194" y2="-29.194" x1="51.196"/>
  <line x2="42.397" style="fill:none;stroke:#000000;stroke-width:0.3;" y1="-25.444" y2="-25.444" x1="49.647"/>
  <line x2="35.155" style="fill:none;stroke:#000000;stroke-width:0.3;" y1="-21.444" y2="-21.444" x1="42.405"/>
  <line x2="30.081" style="fill:none;stroke:#000000;stroke-width:0.3;" y1="-17.694" y2="-17.694" x1="37.331"/>
  <line x2="30.072" style="fill:none;stroke:#000000;stroke-width:0.3;" y1="-14.194" y2="-14.194" x1="22.822"/>
  <line x2="22.167" style="fill:none;stroke:#000000;stroke-width:0.3;" y1="-10.569" y2="-10.569" x1="14.917"/>
  <line x2="6.719" style="fill:none;stroke:#000000;stroke-width:0.3;" y1="-6.194" y2="-6.194" x1="13.969"/>
  <line x2="0.015" style="fill:none;stroke:#000000;stroke-width:0.3;" y1="-2.52" y2="-2.52" x1="7.265"/>
  <line x2="15.322" style="fill:none;stroke:#000000;stroke-width:0.3;" y1="-36.332" y2="-36.332" x1="8.072"/>
  <line x2="15.974" style="fill:none;stroke:#000000;stroke-width:0.3;" y1="-33.082" y2="-33.082" x1="23.224"/>
  <line x2="30.162" style="fill:none;stroke:#000000;stroke-width:0.3;" y1="-29.332" y2="-29.332" x1="22.912"/>
  <line x2="15.023" style="fill:none;stroke:#000000;stroke-width:0.3;" y1="-25.332" y2="-25.332" x1="22.272"/>
  <line x2="7.894" style="fill:none;stroke:#000000;stroke-width:0.3;" y1="-21.332" y2="-21.332" x1="15.144"/>
  <line x2="1.297" style="fill:none;stroke:#000000;stroke-width:0.3;" y1="-17.582" y2="-17.582" x1="8.547"/>
  <line x2="0" style="fill:none;stroke:#000000;stroke-width:0.3;" y1="-14.082" y2="-14.082" x1="3.072"/>
  <line x2="50.247" style="fill:none;stroke:#000000;stroke-width:0.3;" y1="-10.457" y2="-10.457" x1="42.997"/>
  <line x2="34.719" style="fill:none;stroke:#000000;stroke-width:0.3;" y1="-6.332" y2="-6.332" x1="41.969"/>
  <line x2="27.197" style="fill:none;stroke:#000000;stroke-width:0.3;" y1="-2.582" y2="-2.582" x1="34.447"/>
  <line x2="54.125" style="fill:none;stroke:#000000;stroke-width:0.3;" y1="-44.194" y2="-44.194" x1="50.222"/>
  <line x2="54.125" style="fill:none;stroke:#000000;stroke-width:0.3;" y1="-14.082" y2="-14.082" x1="50.522"/>
  <line x2="0" style="fill:none;stroke:#000000;stroke-width:0.3;" y1="-29.194" y2="-29.194" x1="2.52"/>
  <line x2="54.125" style="fill:none;stroke:#000000;stroke-width:0.3;" y1="-2.52" y2="-2.52" x1="53.723"/>
 </g>
</svg>
