<?xml version="1.0"?>
<!-- Converted with SVG Converter - Version 0.9.5 (Compiled Fri Feb 21 09:53:38 2020) - Copyright (C) 2011 Nokia -->
<svg xmlns="http://www.w3.org/2000/svg" y="0px" viewBox="0 -54.203 54.125 54.125" x="0px" xml:space="preserve" width="54.125" height="54.125" xmlns:xlink="http://www.w3.org/1999/xlink" baseProfile="tiny" version="1.1">
 <g>
  <rect y="-54.203" width="54.125" style="fill:none;" height="54.125"/>
  <line y1="-50.453" x1="17.337" y2="-50.453" style="fill:none;stroke:#000000;stroke-width:0.3;" x2="4.587"/>
  <line y1="-50.453" x1="42.017" y2="-50.453" style="fill:none;stroke:#000000;stroke-width:0.3;" x2="45.149"/>
  <line y1="-50.453" x1="54.125" y2="-50.453" style="fill:none;stroke:#000000;stroke-width:0.3;" x2="45.149"/>
  <line y1="-50.453" x1="4.587" y2="-50.453" style="fill:none;stroke:#000000;stroke-width:0.3;" x2="0"/>
  <line y1="-50.453" x1="42.017" y2="-50.453" style="fill:none;stroke:#000000;stroke-width:0.3;" x2="30.774"/>
  <line y1="-50.453" x1="17.337" y2="-50.453" style="fill:none;stroke:#000000;stroke-width:0.3;" x2="28.35"/>
  <line y1="-50.453" x1="30.774" y2="-50.453" style="fill:none;stroke:#000000;stroke-width:0.3;" x2="28.35"/>
  <line y1="-46.278" x1="34.782" y2="-46.278" style="fill:none;stroke:#000000;stroke-width:0.3;" x2="7.97"/>
  <line y1="-46.278" x1="54.125" y2="-46.278" style="fill:none;stroke:#000000;stroke-width:0.3;" x2="34.782"/>
  <line y1="-46.278" x1="7.97" y2="-46.278" style="fill:none;stroke:#000000;stroke-width:0.3;" x2="0"/>
  <line y1="-42.09" x1="53.782" y2="-42.09" style="fill:none;stroke:#000000;stroke-width:0.3;" x2="54.125"/>
  <line y1="-42.09" x1="27.532" y2="-42.09" style="fill:none;stroke:#000000;stroke-width:0.3;" x2="12.72"/>
  <line y1="-42.09" x1="40.97" y2="-42.09" style="fill:none;stroke:#000000;stroke-width:0.3;" x2="53.782"/>
  <line y1="-42.09" x1="12.72" y2="-42.09" style="fill:none;stroke:#000000;stroke-width:0.3;" x2="0"/>
  <line y1="-42.09" x1="27.532" y2="-42.09" style="fill:none;stroke:#000000;stroke-width:0.3;" x2="40.97"/>
  <line y1="-12.477" x1="41.102" y2="-12.477" style="fill:none;stroke:#000000;stroke-width:0.3;" x2="27.102"/>
  <line y1="-12.477" x1="41.102" y2="-12.477" style="fill:none;stroke:#000000;stroke-width:0.3;" x2="53.683"/>
  <line y1="-12.477" x1="53.683" y2="-12.477" style="fill:none;stroke:#000000;stroke-width:0.3;" x2="54.125"/>
  <line y1="-12.477" x1="54.125" y2="-12.477" style="fill:none;stroke:#000000;stroke-width:0.3;" x2="54.188"/>
  <line y1="-12.477" x1="12.602" y2="-12.477" style="fill:none;stroke:#000000;stroke-width:0.3;" x2="27.102"/>
  <line y1="-12.477" x1="12.602" y2="-12.477" style="fill:none;stroke:#000000;stroke-width:0.3;" x2="0"/>
  <line y1="-8.703" x1="18.463" y2="-8.703" style="fill:none;stroke:#000000;stroke-width:0.3;" x2="24.788"/>
  <line y1="-8.703" x1="38.788" y2="-8.703" style="fill:none;stroke:#000000;stroke-width:0.3;" x2="47.062"/>
  <line y1="-8.703" x1="10.288" y2="-8.703" style="fill:none;stroke:#000000;stroke-width:0.3;" x2="5.463"/>
  <line y1="-8.703" x1="38.788" y2="-8.703" style="fill:none;stroke:#000000;stroke-width:0.3;" x2="32.463"/>
  <line y1="-8.703" x1="24.788" y2="-8.703" style="fill:none;stroke:#000000;stroke-width:0.3;" x2="32.463"/>
  <line y1="-8.703" x1="5.463" y2="-8.703" style="fill:none;stroke:#000000;stroke-width:0.3;" x2="0"/>
  <line y1="-8.703" x1="10.288" y2="-8.703" style="fill:none;stroke:#000000;stroke-width:0.3;" x2="18.463"/>
  <line y1="-8.703" x1="51.229" y2="-8.703" style="fill:none;stroke:#000000;stroke-width:0.3;" x2="54.125"/>
  <line y1="-8.703" x1="51.229" y2="-8.703" style="fill:none;stroke:#000000;stroke-width:0.3;" x2="47.062"/>
  <line y1="-38.071" x1="32.621" y2="-38.071" style="fill:none;stroke:#000000;stroke-width:0.3;" x2="19.309"/>
  <line y1="-38.071" x1="54.125" y2="-38.071" style="fill:none;stroke:#000000;stroke-width:0.3;" x2="47.246"/>
  <line y1="-38.071" x1="6.621" y2="-38.071" style="fill:none;stroke:#000000;stroke-width:0.3;" x2="19.309"/>
  <line y1="-38.071" x1="32.621" y2="-38.071" style="fill:none;stroke:#000000;stroke-width:0.3;" x2="47.246"/>
  <line y1="-38.071" x1="6.621" y2="-38.071" style="fill:none;stroke:#000000;stroke-width:0.3;" x2="0"/>
  <line y1="-34.79" x1="54.125" y2="-34.79" style="fill:none;stroke:#000000;stroke-width:0.3;" x2="53.912"/>
  <line y1="-34.79" x1="28.041" y2="-34.79" style="fill:none;stroke:#000000;stroke-width:0.3;" x2="41.854"/>
  <line y1="-34.79" x1="13.041" y2="-34.79" style="fill:none;stroke:#000000;stroke-width:0.3;" x2="0"/>
  <line y1="-34.79" x1="41.854" y2="-34.79" style="fill:none;stroke:#000000;stroke-width:0.3;" x2="53.912"/>
  <line y1="-34.79" x1="28.041" y2="-34.79" style="fill:none;stroke:#000000;stroke-width:0.3;" x2="13.041"/>
  <line y1="-31.365" x1="34.61" y2="-31.365" style="fill:none;stroke:#000000;stroke-width:0.3;" x2="49.548"/>
  <line y1="-31.365" x1="7.485" y2="-31.365" style="fill:none;stroke:#000000;stroke-width:0.3;" x2="20.923"/>
  <line y1="-31.365" x1="49.548" y2="-31.365" style="fill:none;stroke:#000000;stroke-width:0.3;" x2="51.712"/>
  <line y1="-31.365" x1="34.61" y2="-31.365" style="fill:none;stroke:#000000;stroke-width:0.3;" x2="20.923"/>
  <line y1="-31.365" x1="7.485" y2="-31.365" style="fill:none;stroke:#000000;stroke-width:0.3;" x2="0"/>
  <line y1="-31.365" x1="51.712" y2="-31.365" style="fill:none;stroke:#000000;stroke-width:0.3;" x2="54.125"/>
  <line y1="-27.315" x1="27.492" y2="-27.315" style="fill:none;stroke:#000000;stroke-width:0.3;" x2="12.492"/>
  <line y1="-27.315" x1="40.867" y2="-27.315" style="fill:none;stroke:#000000;stroke-width:0.3;" x2="27.492"/>
  <line y1="-27.315" x1="54.055" y2="-27.315" style="fill:none;stroke:#000000;stroke-width:0.3;" x2="54.125"/>
  <line y1="-27.315" x1="54.055" y2="-27.315" style="fill:none;stroke:#000000;stroke-width:0.3;" x2="40.867"/>
  <line y1="-27.315" x1="12.492" y2="-27.315" style="fill:none;stroke:#000000;stroke-width:0.3;" x2="0"/>
  <line y1="-23.515" x1="54.125" y2="-23.515" style="fill:none;stroke:#000000;stroke-width:0.3;" x2="0"/>
  <line y1="-19.315" x1="54.188" y2="-19.315" style="fill:none;stroke:#000000;stroke-width:0.3;" x2="54.125"/>
  <line y1="-19.315" x1="0" y2="-19.315" style="fill:none;stroke:#000000;stroke-width:0.3;" x2="54.125"/>
  <line y1="-16.09" x1="51.82" y2="-16.09" style="fill:none;stroke:#000000;stroke-width:0.3;" x2="54.125"/>
  <line y1="-16.09" x1="0" y2="-16.09" style="fill:none;stroke:#000000;stroke-width:0.3;" x2="51.82"/>
  <line y1="-0.915" x1="37.016" y2="-0.915" style="fill:none;stroke:#000000;stroke-width:0.3;" x2="50.391"/>
  <line y1="-0.915" x1="9.016" y2="-0.915" style="fill:none;stroke:#000000;stroke-width:0.3;" x2="23.328"/>
  <line y1="-0.915" x1="0" y2="-0.915" style="fill:none;stroke:#000000;stroke-width:0.3;" x2="9.016"/>
  <line y1="-0.915" x1="23.328" y2="-0.915" style="fill:none;stroke:#000000;stroke-width:0.3;" x2="37.016"/>
  <line y1="-0.915" x1="50.391" y2="-0.915" style="fill:none;stroke:#000000;stroke-width:0.3;" x2="54.125"/>
  <line y1="-4.29" x1="0" y2="-4.29" style="fill:none;stroke:#000000;stroke-width:0.3;" x2="54.125"/>
  <line y1="-8.765" x1="5.5" y2="-8.703" style="fill:none;stroke:#000000;stroke-width:0.3;" x2="5.463"/>
  <line y1="-8.703" x1="5.463" y2="-4.315" style="fill:none;stroke:#000000;stroke-width:0.3;" x2="2.871"/>
  <line y1="-8.703" x1="18.463" y2="-4.315" style="fill:none;stroke:#000000;stroke-width:0.3;" x2="15.871"/>
  <line y1="-8.765" x1="18.5" y2="-8.703" style="fill:none;stroke:#000000;stroke-width:0.3;" x2="18.463"/>
  <line y1="-8.765" x1="32.5" y2="-8.703" style="fill:none;stroke:#000000;stroke-width:0.3;" x2="32.463"/>
  <line y1="-4.315" x1="29.871" y2="-8.703" style="fill:none;stroke:#000000;stroke-width:0.3;" x2="32.463"/>
  <line y1="-8.703" x1="47.062" y2="-4.315" style="fill:none;stroke:#000000;stroke-width:0.3;" x2="44.434"/>
  <line y1="-0.915" x1="50.391" y2="-0.89" style="fill:none;stroke:#000000;stroke-width:0.3;" x2="50.375"/>
  <line y1="-0.915" x1="50.391" y2="-4.265" style="fill:none;stroke:#000000;stroke-width:0.3;" x2="52.438"/>
  <line y1="-0.915" x1="37.016" y2="-0.89" style="fill:none;stroke:#000000;stroke-width:0.3;" x2="37"/>
  <line y1="-0.915" x1="37.016" y2="-4.265" style="fill:none;stroke:#000000;stroke-width:0.3;" x2="39.062"/>
  <line y1="-0.915" x1="23.328" y2="-0.89" style="fill:none;stroke:#000000;stroke-width:0.3;" x2="23.312"/>
  <line y1="-0.915" x1="23.328" y2="-4.265" style="fill:none;stroke:#000000;stroke-width:0.3;" x2="25.375"/>
  <line y1="-0.915" x1="9.016" y2="-4.265" style="fill:none;stroke:#000000;stroke-width:0.3;" x2="11.062"/>
  <line y1="-0.915" x1="9.016" y2="-0.89" style="fill:none;stroke:#000000;stroke-width:0.3;" x2="9"/>
  <line y1="-8.703" x1="51.229" y2="-8.64" style="fill:none;stroke:#000000;stroke-width:0.3;" x2="51.188"/>
  <line y1="-12.477" x1="53.683" y2="-12.498" style="fill:none;stroke:#000000;stroke-width:0.3;" x2="53.696"/>
  <line y1="-8.703" x1="51.229" y2="-12.477" style="fill:none;stroke:#000000;stroke-width:0.3;" x2="53.683"/>
  <line y1="-12.515" x1="47.312" y2="-16.078" style="fill:none;stroke:#000000;stroke-width:0.3;" x2="49.438"/>
  <line y1="-23.453" x1="47.375" y2="-19.39" style="fill:none;stroke:#000000;stroke-width:0.3;" x2="44.812"/>
  <line y1="-16.078" x1="51.812" y2="-16.09" style="fill:none;stroke:#000000;stroke-width:0.3;" x2="51.82"/>
  <line y1="-19.29" x1="53.863" y2="-16.09" style="fill:none;stroke:#000000;stroke-width:0.3;" x2="51.82"/>
  <line y1="-27.315" x1="54.055" y2="-23.578" style="fill:none;stroke:#000000;stroke-width:0.3;" x2="51.812"/>
  <line y1="-27.315" x1="54.055" y2="-27.328" style="fill:none;stroke:#000000;stroke-width:0.3;" x2="54.062"/>
  <line y1="-31.365" x1="49.548" y2="-31.39" style="fill:none;stroke:#000000;stroke-width:0.3;" x2="49.562"/>
  <line y1="-31.365" x1="49.548" y2="-27.328" style="fill:none;stroke:#000000;stroke-width:0.3;" x2="47.125"/>
  <line y1="-34.79" x1="53.912" y2="-31.365" style="fill:none;stroke:#000000;stroke-width:0.3;" x2="51.712"/>
  <line y1="-31.328" x1="51.688" y2="-31.365" style="fill:none;stroke:#000000;stroke-width:0.3;" x2="51.712"/>
  <line y1="-34.79" x1="53.912" y2="-34.811" style="fill:none;stroke:#000000;stroke-width:0.3;" x2="53.926"/>
  <line y1="-38.078" x1="47.25" y2="-38.071" style="fill:none;stroke:#000000;stroke-width:0.3;" x2="47.246"/>
  <line y1="-34.828" x1="45.25" y2="-38.071" style="fill:none;stroke:#000000;stroke-width:0.3;" x2="47.246"/>
  <line y1="-42.09" x1="53.782" y2="-42.14" style="fill:none;stroke:#000000;stroke-width:0.3;" x2="53.812"/>
  <line y1="-42.09" x1="53.782" y2="-38.078" style="fill:none;stroke:#000000;stroke-width:0.3;" x2="51.359"/>
  <line y1="-42.14" x1="46.188" y2="-46.249" style="fill:none;stroke:#000000;stroke-width:0.3;" x2="48.842"/>
  <line y1="-46.328" x1="51.292" y2="-50.436" style="fill:none;stroke:#000000;stroke-width:0.3;" x2="53.904"/>
  <line y1="-50.453" x1="45.149" y2="-54.203" style="fill:none;stroke:#000000;stroke-width:0.3;" x2="47.434"/>
  <line y1="-50.453" x1="45.149" y2="-50.44" style="fill:none;stroke:#000000;stroke-width:0.3;" x2="45.142"/>
  <line y1="-12.477" x1="41.102" y2="-12.515" style="fill:none;stroke:#000000;stroke-width:0.3;" x2="41.125"/>
  <line y1="-8.703" x1="38.788" y2="-8.64" style="fill:none;stroke:#000000;stroke-width:0.3;" x2="38.75"/>
  <line y1="-12.477" x1="41.102" y2="-8.703" style="fill:none;stroke:#000000;stroke-width:0.3;" x2="38.788"/>
  <line y1="-12.477" x1="27.102" y2="-8.703" style="fill:none;stroke:#000000;stroke-width:0.3;" x2="24.788"/>
  <line y1="-8.64" x1="24.75" y2="-8.703" style="fill:none;stroke:#000000;stroke-width:0.3;" x2="24.788"/>
  <line y1="-12.515" x1="27.125" y2="-12.477" style="fill:none;stroke:#000000;stroke-width:0.3;" x2="27.102"/>
  <line y1="-12.477" x1="12.602" y2="-8.703" style="fill:none;stroke:#000000;stroke-width:0.3;" x2="10.288"/>
  <line y1="-8.703" x1="10.288" y2="-8.64" style="fill:none;stroke:#000000;stroke-width:0.3;" x2="10.25"/>
  <line y1="-12.477" x1="12.602" y2="-12.515" style="fill:none;stroke:#000000;stroke-width:0.3;" x2="12.625"/>
  <line y1="-12.515" x1="32.438" y2="-16.078" style="fill:none;stroke:#000000;stroke-width:0.3;" x2="34.562"/>
  <line y1="-12.515" x1="18.75" y2="-16.078" style="fill:none;stroke:#000000;stroke-width:0.3;" x2="20.875"/>
  <line y1="-12.515" x1="5.5" y2="-16.078" style="fill:none;stroke:#000000;stroke-width:0.3;" x2="7.625"/>
  <line y1="-19.265" x1="41.938" y2="-16.14" style="fill:none;stroke:#000000;stroke-width:0.3;" x2="40"/>
  <line y1="-19.265" x1="27.688" y2="-16.14" style="fill:none;stroke:#000000;stroke-width:0.3;" x2="25.75"/>
  <line y1="-19.265" x1="12.625" y2="-16.14" style="fill:none;stroke:#000000;stroke-width:0.3;" x2="10.688"/>
  <line y1="-23.453" x1="33.062" y2="-19.39" style="fill:none;stroke:#000000;stroke-width:0.3;" x2="30.5"/>
  <line y1="-23.453" x1="19.438" y2="-19.39" style="fill:none;stroke:#000000;stroke-width:0.3;" x2="16.875"/>
  <line y1="-23.453" x1="6.438" y2="-19.39" style="fill:none;stroke:#000000;stroke-width:0.3;" x2="3.875"/>
  <line y1="-27.315" x1="40.867" y2="-23.578" style="fill:none;stroke:#000000;stroke-width:0.3;" x2="38.625"/>
  <line y1="-27.328" x1="40.875" y2="-27.315" style="fill:none;stroke:#000000;stroke-width:0.3;" x2="40.867"/>
  <line y1="-27.315" x1="27.492" y2="-23.578" style="fill:none;stroke:#000000;stroke-width:0.3;" x2="25.25"/>
  <line y1="-27.328" x1="27.5" y2="-27.315" style="fill:none;stroke:#000000;stroke-width:0.3;" x2="27.492"/>
  <line y1="-27.315" x1="12.492" y2="-23.578" style="fill:none;stroke:#000000;stroke-width:0.3;" x2="10.25"/>
  <line y1="-27.315" x1="12.492" y2="-27.328" style="fill:none;stroke:#000000;stroke-width:0.3;" x2="12.5"/>
  <line y1="-31.365" x1="34.61" y2="-27.328" style="fill:none;stroke:#000000;stroke-width:0.3;" x2="32.188"/>
  <line y1="-31.365" x1="34.61" y2="-31.39" style="fill:none;stroke:#000000;stroke-width:0.3;" x2="34.625"/>
  <line y1="-27.328" x1="18.5" y2="-31.365" style="fill:none;stroke:#000000;stroke-width:0.3;" x2="20.923"/>
  <line y1="-31.39" x1="20.938" y2="-31.365" style="fill:none;stroke:#000000;stroke-width:0.3;" x2="20.923"/>
  <line y1="-31.365" x1="7.485" y2="-27.328" style="fill:none;stroke:#000000;stroke-width:0.3;" x2="5.062"/>
  <line y1="-31.365" x1="7.485" y2="-31.39" style="fill:none;stroke:#000000;stroke-width:0.3;" x2="7.5"/>
  <line y1="-34.79" x1="41.854" y2="-34.828" style="fill:none;stroke:#000000;stroke-width:0.3;" x2="41.875"/>
  <line y1="-34.79" x1="41.854" y2="-31.39" style="fill:none;stroke:#000000;stroke-width:0.3;" x2="39.875"/>
  <line y1="-34.79" x1="28.041" y2="-31.39" style="fill:none;stroke:#000000;stroke-width:0.3;" x2="26.062"/>
  <line y1="-34.79" x1="28.041" y2="-34.828" style="fill:none;stroke:#000000;stroke-width:0.3;" x2="28.062"/>
  <line y1="-34.79" x1="13.041" y2="-34.828" style="fill:none;stroke:#000000;stroke-width:0.3;" x2="13.062"/>
  <line y1="-34.79" x1="13.041" y2="-31.39" style="fill:none;stroke:#000000;stroke-width:0.3;" x2="11.062"/>
  <line y1="-38.071" x1="32.621" y2="-34.828" style="fill:none;stroke:#000000;stroke-width:0.3;" x2="30.625"/>
  <line y1="-38.071" x1="32.621" y2="-38.078" style="fill:none;stroke:#000000;stroke-width:0.3;" x2="32.625"/>
  <line y1="-38.078" x1="19.312" y2="-38.071" style="fill:none;stroke:#000000;stroke-width:0.3;" x2="19.309"/>
  <line y1="-34.828" x1="17.312" y2="-38.071" style="fill:none;stroke:#000000;stroke-width:0.3;" x2="19.309"/>
  <line y1="-38.071" x1="6.621" y2="-38.078" style="fill:none;stroke:#000000;stroke-width:0.3;" x2="6.625"/>
  <line y1="-38.071" x1="6.621" y2="-34.828" style="fill:none;stroke:#000000;stroke-width:0.3;" x2="4.625"/>
  <line y1="-42.09" x1="40.97" y2="-42.14" style="fill:none;stroke:#000000;stroke-width:0.3;" x2="41"/>
  <line y1="-38.078" x1="38.562" y2="-42.09" style="fill:none;stroke:#000000;stroke-width:0.3;" x2="40.97"/>
  <line y1="-42.09" x1="27.532" y2="-38.078" style="fill:none;stroke:#000000;stroke-width:0.3;" x2="25.125"/>
  <line y1="-42.09" x1="27.532" y2="-42.14" style="fill:none;stroke:#000000;stroke-width:0.3;" x2="27.562"/>
  <line y1="-42.09" x1="12.72" y2="-42.14" style="fill:none;stroke:#000000;stroke-width:0.3;" x2="12.75"/>
  <line y1="-42.09" x1="12.72" y2="-38.078" style="fill:none;stroke:#000000;stroke-width:0.3;" x2="10.312"/>
  <line y1="-46.278" x1="34.782" y2="-46.328" style="fill:none;stroke:#000000;stroke-width:0.3;" x2="34.812"/>
  <line y1="-46.278" x1="34.782" y2="-42.14" style="fill:none;stroke:#000000;stroke-width:0.3;" x2="32.25"/>
  <line y1="-42.14" x1="18.625" y2="-46.265" style="fill:none;stroke:#000000;stroke-width:0.3;" x2="21.125"/>
  <line y1="-46.278" x1="7.97" y2="-42.14" style="fill:none;stroke:#000000;stroke-width:0.3;" x2="5.438"/>
  <line y1="-46.278" x1="7.97" y2="-46.328" style="fill:none;stroke:#000000;stroke-width:0.3;" x2="8"/>
  <line y1="-50.453" x1="42.017" y2="-46.328" style="fill:none;stroke:#000000;stroke-width:0.3;" x2="39.5"/>
  <line y1="-50.453" x1="42.017" y2="-50.495" style="fill:none;stroke:#000000;stroke-width:0.3;" x2="42.042"/>
  <line y1="-46.328" x1="25.812" y2="-50.453" style="fill:none;stroke:#000000;stroke-width:0.3;" x2="28.35"/>
  <line y1="-50.495" x1="28.375" y2="-50.453" style="fill:none;stroke:#000000;stroke-width:0.3;" x2="28.35"/>
  <line y1="-50.411" x1="13.459" y2="-46.328" style="fill:none;stroke:#000000;stroke-width:0.3;" x2="10.938"/>
  <line y1="-50.453" x1="30.774" y2="-54.203" style="fill:none;stroke:#000000;stroke-width:0.3;" x2="33.059"/>
  <line y1="-50.44" x1="30.767" y2="-50.453" style="fill:none;stroke:#000000;stroke-width:0.3;" x2="30.774"/>
  <line y1="-50.453" x1="17.337" y2="-50.44" style="fill:none;stroke:#000000;stroke-width:0.3;" x2="17.329"/>
  <line y1="-50.453" x1="17.337" y2="-54.203" style="fill:none;stroke:#000000;stroke-width:0.3;" x2="19.621"/>
  <line y1="-50.44" x1="4.579" y2="-50.453" style="fill:none;stroke:#000000;stroke-width:0.3;" x2="4.587"/>
  <line y1="-50.453" x1="4.587" y2="-54.203" style="fill:none;stroke:#000000;stroke-width:0.3;" x2="6.871"/>
  <line y1="-0.828" x1="47.875" y2="-0.078" style="fill:none;stroke:#000000;stroke-width:0.3;" x2="47.423"/>
  <line y1="-0.828" x1="33.5" y2="-0.078" style="fill:none;stroke:#000000;stroke-width:0.3;" x2="33.048"/>
  <line y1="-0.828" x1="20.062" y2="-0.078" style="fill:none;stroke:#000000;stroke-width:0.3;" x2="19.61"/>
  <line y1="-0.828" x1="7.312" y2="-0.078" style="fill:none;stroke:#000000;stroke-width:0.3;" x2="6.86"/>
  <line y1="-52.27" x1="8.122" y2="-52.27" style="fill:none;stroke:#000000;stroke-width:0.3;" x2="15.372"/>
  <line y1="-52.27" x1="35.247" y2="-52.27" style="fill:none;stroke:#000000;stroke-width:0.3;" x2="42.497"/>
  <line y1="-48.257" x1="22.672" y2="-48.257" style="fill:none;stroke:#000000;stroke-width:0.3;" x2="15.422"/>
  <line y1="-48.257" x1="50.422" y2="-48.257" style="fill:none;stroke:#000000;stroke-width:0.3;" x2="43.172"/>
  <line y1="-44.194" x1="22.812" y2="-44.194" style="fill:none;stroke:#000000;stroke-width:0.3;" x2="30.062"/>
  <line y1="-44.194" x1="3.398" y2="-44.194" style="fill:none;stroke:#000000;stroke-width:0.3;" x2="0"/>
  <line y1="-39.944" x1="36.497" y2="-39.944" style="fill:none;stroke:#000000;stroke-width:0.3;" x2="29.247"/>
  <line y1="-39.944" x1="0.872" y2="-39.944" style="fill:none;stroke:#000000;stroke-width:0.3;" x2="8.122"/>
  <line y1="-36.444" x1="42.197" y2="-36.444" style="fill:none;stroke:#000000;stroke-width:0.3;" x2="34.947"/>
  <line y1="-33.069" x1="51.247" y2="-33.069" style="fill:none;stroke:#000000;stroke-width:0.3;" x2="43.997"/>
  <line y1="-29.194" x1="51.196" y2="-29.194" style="fill:none;stroke:#000000;stroke-width:0.3;" x2="54.125"/>
  <line y1="-25.444" x1="49.647" y2="-25.444" style="fill:none;stroke:#000000;stroke-width:0.3;" x2="42.397"/>
  <line y1="-21.444" x1="42.405" y2="-21.444" style="fill:none;stroke:#000000;stroke-width:0.3;" x2="35.155"/>
  <line y1="-17.694" x1="37.331" y2="-17.694" style="fill:none;stroke:#000000;stroke-width:0.3;" x2="30.081"/>
  <line y1="-14.194" x1="22.822" y2="-14.194" style="fill:none;stroke:#000000;stroke-width:0.3;" x2="30.072"/>
  <line y1="-10.569" x1="14.917" y2="-10.569" style="fill:none;stroke:#000000;stroke-width:0.3;" x2="22.167"/>
  <line y1="-6.194" x1="13.969" y2="-6.194" style="fill:none;stroke:#000000;stroke-width:0.3;" x2="6.719"/>
  <line y1="-2.52" x1="7.265" y2="-2.52" style="fill:none;stroke:#000000;stroke-width:0.3;" x2="0.015"/>
  <line y1="-36.332" x1="8.072" y2="-36.332" style="fill:none;stroke:#000000;stroke-width:0.3;" x2="15.322"/>
  <line y1="-33.082" x1="23.224" y2="-33.082" style="fill:none;stroke:#000000;stroke-width:0.3;" x2="15.974"/>
  <line y1="-29.332" x1="22.912" y2="-29.332" style="fill:none;stroke:#000000;stroke-width:0.3;" x2="30.162"/>
  <line y1="-25.332" x1="22.272" y2="-25.332" style="fill:none;stroke:#000000;stroke-width:0.3;" x2="15.023"/>
  <line y1="-21.332" x1="15.144" y2="-21.332" style="fill:none;stroke:#000000;stroke-width:0.3;" x2="7.894"/>
  <line y1="-17.582" x1="8.547" y2="-17.582" style="fill:none;stroke:#000000;stroke-width:0.3;" x2="1.297"/>
  <line y1="-14.082" x1="3.072" y2="-14.082" style="fill:none;stroke:#000000;stroke-width:0.3;" x2="0"/>
  <line y1="-10.457" x1="42.997" y2="-10.457" style="fill:none;stroke:#000000;stroke-width:0.3;" x2="50.247"/>
  <line y1="-6.332" x1="41.969" y2="-6.332" style="fill:none;stroke:#000000;stroke-width:0.3;" x2="34.719"/>
  <line y1="-2.582" x1="34.447" y2="-2.582" style="fill:none;stroke:#000000;stroke-width:0.3;" x2="27.197"/>
  <line y1="-44.194" x1="50.222" y2="-44.194" style="fill:none;stroke:#000000;stroke-width:0.3;" x2="54.125"/>
  <line y1="-14.082" x1="50.522" y2="-14.082" style="fill:none;stroke:#000000;stroke-width:0.3;" x2="54.125"/>
  <line y1="-29.194" x1="2.52" y2="-29.194" style="fill:none;stroke:#000000;stroke-width:0.3;" x2="0"/>
  <line y1="-2.52" x1="53.723" y2="-2.52" style="fill:none;stroke:#000000;stroke-width:0.3;" x2="54.125"/>
 </g>
</svg>
