<?xml version="1.0"?>
<!-- Converted with SVG Converter - Version 0.9.5 (Compiled Fri Feb 21 09:53:38 2020) - Copyright (C) 2011 Nokia -->
<svg xmlns="http://www.w3.org/2000/svg" x="0px" xml:space="preserve" baseProfile="tiny" version="1.1" height="54.125" y="0px" viewBox="0.004 -54.203 54.125 54.125" width="54.125" xmlns:xlink="http://www.w3.org/1999/xlink">
 <g>
  <rect x="0.004" style="fill:none;" height="54.125" y="-54.203" width="54.125"/>
  <path style="fill:none;stroke:#000000;stroke-width:0.3;" d="M0.004-43.417c0.075,0.002,0.151,0.004,0.228,0.004    c1.316,0,2.384-0.356,2.384-0.794c0-0.439-1.067-0.795-2.384-0.795c-0.077,0-0.153,0.001-0.228,0.004"/>
  <ellipse ry="0.794" style="fill:none;stroke:#000000;stroke-width:0.3;" rx="2.383" cy="-48.353" cx="19.576"/>
  <ellipse ry="0.795" style="fill:none;stroke:#000000;stroke-width:0.3;" rx="2.384" cy="-52.636" cx="39.313"/>
  <ellipse ry="0.795" style="fill:none;stroke:#000000;stroke-width:0.3;" rx="2.384" cy="-40.083" cx="18.937"/>
  <ellipse ry="0.794" style="fill:none;stroke:#000000;stroke-width:0.3;" rx="2.383" cy="-36.433" cx="38.755"/>
  <ellipse ry="0.794" style="fill:none;stroke:#000000;stroke-width:0.3;" rx="2.383" cy="-33.095" cx="5.255"/>
  <ellipse ry="0.795" style="fill:none;stroke:#000000;stroke-width:0.3;" rx="2.383" cy="-29.333" cx="26.38"/>
  <ellipse ry="0.795" style="fill:none;stroke:#000000;stroke-width:0.3;" rx="2.384" cy="-25.458" cx="46.56"/>
  <ellipse ry="0.795" style="fill:none;stroke:#000000;stroke-width:0.3;" rx="2.383" cy="-21.333" cx="11.505"/>
  <ellipse ry="0.794" style="fill:none;stroke:#000000;stroke-width:0.3;" rx="2.383" cy="-17.72" cx="34.141"/>
  <ellipse ry="0.795" style="fill:none;stroke:#000000;stroke-width:0.3;" rx="2.384" cy="-10.583" cx="18.733"/>
  <path style="fill:none;stroke:#000000;stroke-width:0.3;" d="M0.004-13.479c0.085,0.003,0.171,0.005,0.259,0.005    c1.316,0,2.384-0.356,2.384-0.794c0-0.439-1.067-0.795-2.384-0.795c-0.088,0-0.174,0.001-0.259,0.005"/>
  <ellipse ry="0.795" style="fill:none;stroke:#000000;stroke-width:0.3;" rx="2.383" cy="-6.458" cx="38.38"/>
  <ellipse ry="0.795" style="fill:none;stroke:#000000;stroke-width:0.3;" rx="2.384" cy="-2.569" cx="17.107"/>
  <path style="fill:none;stroke:#000000;stroke-width:0.3;" d="M54.129-44.999c-1.209,0.038-2.155,0.378-2.155,0.791    c0,0.413,0.946,0.752,2.155,0.791"/>
  <path style="fill:none;stroke:#000000;stroke-width:0.3;" d="M54.129-15.059c-1.194,0.043-2.125,0.38-2.125,0.79    c0,0.409,0.931,0.747,2.125,0.79"/>
  <line x1="30.779" x2="28.354" style="fill:none;stroke:#000000;stroke-width:0.3;" y2="-50.453" y1="-50.453"/>
  <line x1="17.341" x2="4.591" style="fill:none;stroke:#000000;stroke-width:0.3;" y2="-50.453" y1="-50.453"/>
  <line x1="42.021" x2="45.154" style="fill:none;stroke:#000000;stroke-width:0.3;" y2="-50.453" y1="-50.453"/>
  <line x1="4.591" x2="0.004" style="fill:none;stroke:#000000;stroke-width:0.3;" y2="-50.453" y1="-50.453"/>
  <line x1="54.129" x2="45.154" style="fill:none;stroke:#000000;stroke-width:0.3;" y2="-50.453" y1="-50.453"/>
  <line x1="17.341" x2="28.354" style="fill:none;stroke:#000000;stroke-width:0.3;" y2="-50.453" y1="-50.453"/>
  <line x1="42.021" x2="30.779" style="fill:none;stroke:#000000;stroke-width:0.3;" y2="-50.453" y1="-50.453"/>
  <line x1="34.787" x2="7.974" style="fill:none;stroke:#000000;stroke-width:0.3;" y2="-46.278" y1="-46.278"/>
  <line x1="54.129" x2="34.787" style="fill:none;stroke:#000000;stroke-width:0.3;" y2="-46.278" y1="-46.278"/>
  <line x1="7.974" x2="0.004" style="fill:none;stroke:#000000;stroke-width:0.3;" y2="-46.278" y1="-46.278"/>
  <line x1="12.724" x2="0.004" style="fill:none;stroke:#000000;stroke-width:0.3;" y2="-42.09" y1="-42.09"/>
  <line x1="27.537" x2="40.974" style="fill:none;stroke:#000000;stroke-width:0.3;" y2="-42.09" y1="-42.09"/>
  <line x1="12.724" x2="27.537" style="fill:none;stroke:#000000;stroke-width:0.3;" y2="-42.09" y1="-42.09"/>
  <line x1="53.787" x2="54.129" style="fill:none;stroke:#000000;stroke-width:0.3;" y2="-42.09" y1="-42.09"/>
  <line x1="53.787" x2="40.974" style="fill:none;stroke:#000000;stroke-width:0.3;" y2="-42.09" y1="-42.09"/>
  <line x1="54.129" x2="54.192" style="fill:none;stroke:#000000;stroke-width:0.3;" y2="-12.477" y1="-12.477"/>
  <line x1="41.106" x2="27.106" style="fill:none;stroke:#000000;stroke-width:0.3;" y2="-12.477" y1="-12.477"/>
  <line x1="41.106" x2="53.687" style="fill:none;stroke:#000000;stroke-width:0.3;" y2="-12.477" y1="-12.477"/>
  <line x1="53.687" x2="54.129" style="fill:none;stroke:#000000;stroke-width:0.3;" y2="-12.477" y1="-12.477"/>
  <line x1="12.606" x2="0.004" style="fill:none;stroke:#000000;stroke-width:0.3;" y2="-12.477" y1="-12.477"/>
  <line x1="12.606" x2="27.106" style="fill:none;stroke:#000000;stroke-width:0.3;" y2="-12.477" y1="-12.477"/>
  <line x1="38.792" x2="47.067" style="fill:none;stroke:#000000;stroke-width:0.3;" y2="-8.703" y1="-8.703"/>
  <line x1="24.792" x2="32.467" style="fill:none;stroke:#000000;stroke-width:0.3;" y2="-8.703" y1="-8.703"/>
  <line x1="51.233" x2="47.067" style="fill:none;stroke:#000000;stroke-width:0.3;" y2="-8.703" y1="-8.703"/>
  <line x1="18.467" x2="10.292" style="fill:none;stroke:#000000;stroke-width:0.3;" y2="-8.703" y1="-8.703"/>
  <line x1="5.467" x2="0.004" style="fill:none;stroke:#000000;stroke-width:0.3;" y2="-8.703" y1="-8.703"/>
  <line x1="10.292" x2="5.467" style="fill:none;stroke:#000000;stroke-width:0.3;" y2="-8.703" y1="-8.703"/>
  <line x1="38.792" x2="32.467" style="fill:none;stroke:#000000;stroke-width:0.3;" y2="-8.703" y1="-8.703"/>
  <line x1="24.792" x2="18.467" style="fill:none;stroke:#000000;stroke-width:0.3;" y2="-8.703" y1="-8.703"/>
  <line x1="51.233" x2="54.129" style="fill:none;stroke:#000000;stroke-width:0.3;" y2="-8.703" y1="-8.703"/>
  <line x1="32.625" x2="19.313" style="fill:none;stroke:#000000;stroke-width:0.3;" y2="-38.071" y1="-38.071"/>
  <line x1="47.25" x2="32.625" style="fill:none;stroke:#000000;stroke-width:0.3;" y2="-38.071" y1="-38.071"/>
  <line x1="47.25" x2="54.129" style="fill:none;stroke:#000000;stroke-width:0.3;" y2="-38.071" y1="-38.071"/>
  <line x1="6.626" x2="0.004" style="fill:none;stroke:#000000;stroke-width:0.3;" y2="-38.071" y1="-38.071"/>
  <line x1="19.313" x2="6.626" style="fill:none;stroke:#000000;stroke-width:0.3;" y2="-38.071" y1="-38.071"/>
  <line x1="13.045" x2="0.004" style="fill:none;stroke:#000000;stroke-width:0.3;" y2="-34.79" y1="-34.79"/>
  <line x1="41.858" x2="53.917" style="fill:none;stroke:#000000;stroke-width:0.3;" y2="-34.79" y1="-34.79"/>
  <line x1="28.045" x2="41.858" style="fill:none;stroke:#000000;stroke-width:0.3;" y2="-34.79" y1="-34.79"/>
  <line x1="28.045" x2="13.045" style="fill:none;stroke:#000000;stroke-width:0.3;" y2="-34.79" y1="-34.79"/>
  <line x1="53.917" x2="54.129" style="fill:none;stroke:#000000;stroke-width:0.3;" y2="-34.79" y1="-34.79"/>
  <line x1="7.49" x2="0.004" style="fill:none;stroke:#000000;stroke-width:0.3;" y2="-31.365" y1="-31.365"/>
  <line x1="51.716" x2="49.552" style="fill:none;stroke:#000000;stroke-width:0.3;" y2="-31.365" y1="-31.365"/>
  <line x1="7.49" x2="20.927" style="fill:none;stroke:#000000;stroke-width:0.3;" y2="-31.365" y1="-31.365"/>
  <line x1="49.552" x2="34.615" style="fill:none;stroke:#000000;stroke-width:0.3;" y2="-31.365" y1="-31.365"/>
  <line x1="20.927" x2="34.615" style="fill:none;stroke:#000000;stroke-width:0.3;" y2="-31.365" y1="-31.365"/>
  <line x1="51.716" x2="54.129" style="fill:none;stroke:#000000;stroke-width:0.3;" y2="-31.365" y1="-31.365"/>
  <line x1="54.059" x2="54.129" style="fill:none;stroke:#000000;stroke-width:0.3;" y2="-27.315" y1="-27.315"/>
  <line x1="40.872" x2="54.059" style="fill:none;stroke:#000000;stroke-width:0.3;" y2="-27.315" y1="-27.315"/>
  <line x1="12.497" x2="0.004" style="fill:none;stroke:#000000;stroke-width:0.3;" y2="-27.315" y1="-27.315"/>
  <line x1="40.872" x2="27.497" style="fill:none;stroke:#000000;stroke-width:0.3;" y2="-27.315" y1="-27.315"/>
  <line x1="27.497" x2="12.497" style="fill:none;stroke:#000000;stroke-width:0.3;" y2="-27.315" y1="-27.315"/>
  <line x1="0.004" x2="54.129" style="fill:none;stroke:#000000;stroke-width:0.3;" y2="-23.515" y1="-23.515"/>
  <line x1="0.004" x2="54.129" style="fill:none;stroke:#000000;stroke-width:0.3;" y2="-19.315" y1="-19.315"/>
  <line x1="54.192" x2="54.129" style="fill:none;stroke:#000000;stroke-width:0.3;" y2="-19.315" y1="-19.315"/>
  <line x1="51.825" x2="54.129" style="fill:none;stroke:#000000;stroke-width:0.3;" y2="-16.09" y1="-16.09"/>
  <line x1="51.825" x2="0.004" style="fill:none;stroke:#000000;stroke-width:0.3;" y2="-16.09" y1="-16.09"/>
  <line x1="23.333" x2="37.02" style="fill:none;stroke:#000000;stroke-width:0.3;" y2="-0.915" y1="-0.915"/>
  <line x1="37.02" x2="50.395" style="fill:none;stroke:#000000;stroke-width:0.3;" y2="-0.915" y1="-0.915"/>
  <line x1="50.395" x2="54.129" style="fill:none;stroke:#000000;stroke-width:0.3;" y2="-0.915" y1="-0.915"/>
  <line x1="0.004" x2="9.02" style="fill:none;stroke:#000000;stroke-width:0.3;" y2="-0.915" y1="-0.915"/>
  <line x1="9.02" x2="23.333" style="fill:none;stroke:#000000;stroke-width:0.3;" y2="-0.915" y1="-0.915"/>
  <line x1="0.004" x2="54.129" style="fill:none;stroke:#000000;stroke-width:0.3;" y2="-4.29" y1="-4.29"/>
  <line x1="5.467" x2="2.875" style="fill:none;stroke:#000000;stroke-width:0.3;" y2="-4.315" y1="-8.703"/>
  <line x1="5.504" x2="5.467" style="fill:none;stroke:#000000;stroke-width:0.3;" y2="-8.703" y1="-8.765"/>
  <line x1="18.504" x2="18.467" style="fill:none;stroke:#000000;stroke-width:0.3;" y2="-8.703" y1="-8.765"/>
  <line x1="18.467" x2="15.875" style="fill:none;stroke:#000000;stroke-width:0.3;" y2="-4.315" y1="-8.703"/>
  <line x1="29.875" x2="32.467" style="fill:none;stroke:#000000;stroke-width:0.3;" y2="-8.703" y1="-4.315"/>
  <line x1="32.504" x2="32.467" style="fill:none;stroke:#000000;stroke-width:0.3;" y2="-8.703" y1="-8.765"/>
  <line x1="47.067" x2="44.438" style="fill:none;stroke:#000000;stroke-width:0.3;" y2="-4.315" y1="-8.703"/>
  <line x1="50.395" x2="50.379" style="fill:none;stroke:#000000;stroke-width:0.3;" y2="-0.89" y1="-0.915"/>
  <line x1="50.395" x2="52.442" style="fill:none;stroke:#000000;stroke-width:0.3;" y2="-4.265" y1="-0.915"/>
  <line x1="37.02" x2="39.067" style="fill:none;stroke:#000000;stroke-width:0.3;" y2="-4.265" y1="-0.915"/>
  <line x1="37.02" x2="37.004" style="fill:none;stroke:#000000;stroke-width:0.3;" y2="-0.89" y1="-0.915"/>
  <line x1="23.333" x2="25.379" style="fill:none;stroke:#000000;stroke-width:0.3;" y2="-4.265" y1="-0.915"/>
  <line x1="23.333" x2="23.317" style="fill:none;stroke:#000000;stroke-width:0.3;" y2="-0.89" y1="-0.915"/>
  <line x1="9.02" x2="9.004" style="fill:none;stroke:#000000;stroke-width:0.3;" y2="-0.89" y1="-0.915"/>
  <line x1="9.02" x2="11.067" style="fill:none;stroke:#000000;stroke-width:0.3;" y2="-4.265" y1="-0.915"/>
  <line x1="51.233" x2="53.687" style="fill:none;stroke:#000000;stroke-width:0.3;" y2="-12.477" y1="-8.703"/>
  <line x1="51.233" x2="51.192" style="fill:none;stroke:#000000;stroke-width:0.3;" y2="-8.64" y1="-8.703"/>
  <line x1="53.687" x2="53.701" style="fill:none;stroke:#000000;stroke-width:0.3;" y2="-12.498" y1="-12.477"/>
  <line x1="47.317" x2="49.442" style="fill:none;stroke:#000000;stroke-width:0.3;" y2="-16.078" y1="-12.515"/>
  <line x1="47.379" x2="44.817" style="fill:none;stroke:#000000;stroke-width:0.3;" y2="-19.39" y1="-23.453"/>
  <line x1="51.825" x2="53.868" style="fill:none;stroke:#000000;stroke-width:0.3;" y2="-19.29" y1="-16.09"/>
  <line x1="51.825" x2="51.817" style="fill:none;stroke:#000000;stroke-width:0.3;" y2="-16.078" y1="-16.09"/>
  <line x1="51.817" x2="54.059" style="fill:none;stroke:#000000;stroke-width:0.3;" y2="-27.315" y1="-23.578"/>
  <line x1="54.067" x2="54.059" style="fill:none;stroke:#000000;stroke-width:0.3;" y2="-27.315" y1="-27.328"/>
  <line x1="49.552" x2="47.129" style="fill:none;stroke:#000000;stroke-width:0.3;" y2="-27.328" y1="-31.365"/>
  <line x1="49.567" x2="49.552" style="fill:none;stroke:#000000;stroke-width:0.3;" y2="-31.365" y1="-31.39"/>
  <line x1="51.716" x2="53.917" style="fill:none;stroke:#000000;stroke-width:0.3;" y2="-34.79" y1="-31.365"/>
  <line x1="51.716" x2="51.692" style="fill:none;stroke:#000000;stroke-width:0.3;" y2="-31.328" y1="-31.365"/>
  <line x1="53.93" x2="53.917" style="fill:none;stroke:#000000;stroke-width:0.3;" y2="-34.79" y1="-34.811"/>
  <line x1="47.25" x2="47.254" style="fill:none;stroke:#000000;stroke-width:0.3;" y2="-38.078" y1="-38.071"/>
  <line x1="47.25" x2="45.254" style="fill:none;stroke:#000000;stroke-width:0.3;" y2="-34.828" y1="-38.071"/>
  <line x1="53.787" x2="53.817" style="fill:none;stroke:#000000;stroke-width:0.3;" y2="-42.14" y1="-42.09"/>
  <line x1="53.787" x2="51.364" style="fill:none;stroke:#000000;stroke-width:0.3;" y2="-38.078" y1="-42.09"/>
  <line x1="46.192" x2="48.846" style="fill:none;stroke:#000000;stroke-width:0.3;" y2="-46.249" y1="-42.14"/>
  <line x1="53.909" x2="51.296" style="fill:none;stroke:#000000;stroke-width:0.3;" y2="-46.328" y1="-50.436"/>
  <line x1="45.154" x2="45.146" style="fill:none;stroke:#000000;stroke-width:0.3;" y2="-50.44" y1="-50.453"/>
  <line x1="45.154" x2="47.438" style="fill:none;stroke:#000000;stroke-width:0.3;" y2="-54.203" y1="-50.453"/>
  <line x1="38.792" x2="38.754" style="fill:none;stroke:#000000;stroke-width:0.3;" y2="-8.64" y1="-8.703"/>
  <line x1="41.106" x2="41.129" style="fill:none;stroke:#000000;stroke-width:0.3;" y2="-12.515" y1="-12.477"/>
  <line x1="41.106" x2="38.792" style="fill:none;stroke:#000000;stroke-width:0.3;" y2="-8.703" y1="-12.477"/>
  <line x1="27.129" x2="27.106" style="fill:none;stroke:#000000;stroke-width:0.3;" y2="-12.477" y1="-12.515"/>
  <line x1="24.792" x2="24.754" style="fill:none;stroke:#000000;stroke-width:0.3;" y2="-8.64" y1="-8.703"/>
  <line x1="27.106" x2="24.792" style="fill:none;stroke:#000000;stroke-width:0.3;" y2="-8.703" y1="-12.477"/>
  <line x1="12.606" x2="10.292" style="fill:none;stroke:#000000;stroke-width:0.3;" y2="-8.703" y1="-12.477"/>
  <line x1="10.292" x2="10.254" style="fill:none;stroke:#000000;stroke-width:0.3;" y2="-8.64" y1="-8.703"/>
  <line x1="12.606" x2="12.629" style="fill:none;stroke:#000000;stroke-width:0.3;" y2="-12.515" y1="-12.477"/>
  <line x1="32.442" x2="34.567" style="fill:none;stroke:#000000;stroke-width:0.3;" y2="-16.078" y1="-12.515"/>
  <line x1="18.754" x2="20.879" style="fill:none;stroke:#000000;stroke-width:0.3;" y2="-16.078" y1="-12.515"/>
  <line x1="5.504" x2="7.629" style="fill:none;stroke:#000000;stroke-width:0.3;" y2="-16.078" y1="-12.515"/>
  <line x1="40.004" x2="41.942" style="fill:none;stroke:#000000;stroke-width:0.3;" y2="-19.265" y1="-16.14"/>
  <line x1="25.754" x2="27.692" style="fill:none;stroke:#000000;stroke-width:0.3;" y2="-19.265" y1="-16.14"/>
  <line x1="10.692" x2="12.629" style="fill:none;stroke:#000000;stroke-width:0.3;" y2="-19.265" y1="-16.14"/>
  <line x1="33.067" x2="30.504" style="fill:none;stroke:#000000;stroke-width:0.3;" y2="-19.39" y1="-23.453"/>
  <line x1="19.442" x2="16.879" style="fill:none;stroke:#000000;stroke-width:0.3;" y2="-19.39" y1="-23.453"/>
  <line x1="6.442" x2="3.879" style="fill:none;stroke:#000000;stroke-width:0.3;" y2="-19.39" y1="-23.453"/>
  <line x1="40.872" x2="40.879" style="fill:none;stroke:#000000;stroke-width:0.3;" y2="-27.328" y1="-27.315"/>
  <line x1="40.872" x2="38.629" style="fill:none;stroke:#000000;stroke-width:0.3;" y2="-23.578" y1="-27.315"/>
  <line x1="27.504" x2="27.497" style="fill:none;stroke:#000000;stroke-width:0.3;" y2="-27.315" y1="-27.328"/>
  <line x1="27.497" x2="25.254" style="fill:none;stroke:#000000;stroke-width:0.3;" y2="-23.578" y1="-27.315"/>
  <line x1="12.504" x2="12.497" style="fill:none;stroke:#000000;stroke-width:0.3;" y2="-27.315" y1="-27.328"/>
  <line x1="12.497" x2="10.254" style="fill:none;stroke:#000000;stroke-width:0.3;" y2="-23.578" y1="-27.315"/>
  <line x1="34.629" x2="34.615" style="fill:none;stroke:#000000;stroke-width:0.3;" y2="-31.365" y1="-31.39"/>
  <line x1="32.192" x2="34.615" style="fill:none;stroke:#000000;stroke-width:0.3;" y2="-31.365" y1="-27.328"/>
  <line x1="20.927" x2="18.504" style="fill:none;stroke:#000000;stroke-width:0.3;" y2="-27.328" y1="-31.365"/>
  <line x1="20.927" x2="20.942" style="fill:none;stroke:#000000;stroke-width:0.3;" y2="-31.39" y1="-31.365"/>
  <line x1="7.49" x2="5.067" style="fill:none;stroke:#000000;stroke-width:0.3;" y2="-27.328" y1="-31.365"/>
  <line x1="7.49" x2="7.504" style="fill:none;stroke:#000000;stroke-width:0.3;" y2="-31.39" y1="-31.365"/>
  <line x1="41.858" x2="41.879" style="fill:none;stroke:#000000;stroke-width:0.3;" y2="-34.828" y1="-34.79"/>
  <line x1="41.858" x2="39.879" style="fill:none;stroke:#000000;stroke-width:0.3;" y2="-31.39" y1="-34.79"/>
  <line x1="28.045" x2="28.067" style="fill:none;stroke:#000000;stroke-width:0.3;" y2="-34.828" y1="-34.79"/>
  <line x1="28.045" x2="26.067" style="fill:none;stroke:#000000;stroke-width:0.3;" y2="-31.39" y1="-34.79"/>
  <line x1="13.045" x2="13.067" style="fill:none;stroke:#000000;stroke-width:0.3;" y2="-34.828" y1="-34.79"/>
  <line x1="13.045" x2="11.067" style="fill:none;stroke:#000000;stroke-width:0.3;" y2="-31.39" y1="-34.79"/>
  <line x1="32.625" x2="30.629" style="fill:none;stroke:#000000;stroke-width:0.3;" y2="-34.828" y1="-38.071"/>
  <line x1="32.625" x2="32.629" style="fill:none;stroke:#000000;stroke-width:0.3;" y2="-38.078" y1="-38.071"/>
  <line x1="19.313" x2="17.317" style="fill:none;stroke:#000000;stroke-width:0.3;" y2="-34.828" y1="-38.071"/>
  <line x1="19.313" x2="19.317" style="fill:none;stroke:#000000;stroke-width:0.3;" y2="-38.078" y1="-38.071"/>
  <line x1="6.626" x2="6.629" style="fill:none;stroke:#000000;stroke-width:0.3;" y2="-38.078" y1="-38.071"/>
  <line x1="6.626" x2="4.629" style="fill:none;stroke:#000000;stroke-width:0.3;" y2="-34.828" y1="-38.071"/>
  <line x1="40.974" x2="41.004" style="fill:none;stroke:#000000;stroke-width:0.3;" y2="-42.14" y1="-42.09"/>
  <line x1="38.567" x2="40.974" style="fill:none;stroke:#000000;stroke-width:0.3;" y2="-42.09" y1="-38.078"/>
  <line x1="27.537" x2="27.567" style="fill:none;stroke:#000000;stroke-width:0.3;" y2="-42.14" y1="-42.09"/>
  <line x1="25.129" x2="27.537" style="fill:none;stroke:#000000;stroke-width:0.3;" y2="-42.09" y1="-38.078"/>
  <line x1="12.724" x2="12.754" style="fill:none;stroke:#000000;stroke-width:0.3;" y2="-42.14" y1="-42.09"/>
  <line x1="12.724" x2="10.317" style="fill:none;stroke:#000000;stroke-width:0.3;" y2="-38.078" y1="-42.09"/>
  <line x1="34.787" x2="32.254" style="fill:none;stroke:#000000;stroke-width:0.3;" y2="-42.14" y1="-46.278"/>
  <line x1="34.787" x2="34.817" style="fill:none;stroke:#000000;stroke-width:0.3;" y2="-46.328" y1="-46.278"/>
  <line x1="18.629" x2="21.129" style="fill:none;stroke:#000000;stroke-width:0.3;" y2="-46.265" y1="-42.14"/>
  <line x1="7.974" x2="8.004" style="fill:none;stroke:#000000;stroke-width:0.3;" y2="-46.328" y1="-46.278"/>
  <line x1="7.974" x2="5.442" style="fill:none;stroke:#000000;stroke-width:0.3;" y2="-42.14" y1="-46.278"/>
  <line x1="42.021" x2="39.504" style="fill:none;stroke:#000000;stroke-width:0.3;" y2="-46.328" y1="-50.453"/>
  <line x1="42.021" x2="42.046" style="fill:none;stroke:#000000;stroke-width:0.3;" y2="-50.495" y1="-50.453"/>
  <line x1="25.817" x2="28.354" style="fill:none;stroke:#000000;stroke-width:0.3;" y2="-50.453" y1="-46.328"/>
  <line x1="28.379" x2="28.354" style="fill:none;stroke:#000000;stroke-width:0.3;" y2="-50.453" y1="-50.495"/>
  <line x1="13.463" x2="10.942" style="fill:none;stroke:#000000;stroke-width:0.3;" y2="-46.328" y1="-50.411"/>
  <line x1="30.779" x2="33.063" style="fill:none;stroke:#000000;stroke-width:0.3;" y2="-54.203" y1="-50.453"/>
  <line x1="30.771" x2="30.779" style="fill:none;stroke:#000000;stroke-width:0.3;" y2="-50.453" y1="-50.44"/>
  <line x1="17.341" x2="19.625" style="fill:none;stroke:#000000;stroke-width:0.3;" y2="-54.203" y1="-50.453"/>
  <line x1="17.341" x2="17.333" style="fill:none;stroke:#000000;stroke-width:0.3;" y2="-50.44" y1="-50.453"/>
  <line x1="4.583" x2="4.591" style="fill:none;stroke:#000000;stroke-width:0.3;" y2="-50.453" y1="-50.44"/>
  <line x1="4.591" x2="6.876" style="fill:none;stroke:#000000;stroke-width:0.3;" y2="-54.203" y1="-50.453"/>
  <line x1="47.879" x2="47.427" style="fill:none;stroke:#000000;stroke-width:0.3;" y2="-0.078" y1="-0.828"/>
  <line x1="33.504" x2="33.052" style="fill:none;stroke:#000000;stroke-width:0.3;" y2="-0.078" y1="-0.828"/>
  <line x1="20.067" x2="19.615" style="fill:none;stroke:#000000;stroke-width:0.3;" y2="-0.078" y1="-0.828"/>
  <line x1="7.317" x2="6.865" style="fill:none;stroke:#000000;stroke-width:0.3;" y2="-0.078" y1="-0.828"/>
 </g>
</svg>
