<?xml version="1.0"?>
<!-- Converted with SVG Converter - Version 0.9.5 (Compiled Fri Feb 21 09:53:38 2020) - Copyright (C) 2011 Nokia -->
<svg xmlns="http://www.w3.org/2000/svg" xmlns:xlink="http://www.w3.org/1999/xlink" version="1.1" width="54.125" y="0px" height="54.125" viewBox="0.004 -54.203 54.125 54.125" xml:space="preserve" baseProfile="tiny" x="0px">
 <g>
  <rect width="54.125" y="-54.203" height="54.125" x="0.004" style="fill:none;"/>
  <path d="M0.004-43.417c0.075,0.002,0.151,0.004,0.228,0.004    c1.316,0,2.384-0.356,2.384-0.794c0-0.439-1.067-0.795-2.384-0.795c-0.077,0-0.153,0.001-0.228,0.004" style="fill:none;stroke:#000000;stroke-width:0.3;"/>
  <ellipse cy="-48.353" cx="19.576" ry="0.794" style="fill:none;stroke:#000000;stroke-width:0.3;" rx="2.383"/>
  <ellipse cy="-52.636" cx="39.313" ry="0.795" style="fill:none;stroke:#000000;stroke-width:0.3;" rx="2.384"/>
  <ellipse cy="-40.083" cx="18.937" ry="0.795" style="fill:none;stroke:#000000;stroke-width:0.3;" rx="2.384"/>
  <ellipse cy="-36.433" cx="38.755" ry="0.794" style="fill:none;stroke:#000000;stroke-width:0.3;" rx="2.383"/>
  <ellipse cy="-33.095" cx="5.255" ry="0.794" style="fill:none;stroke:#000000;stroke-width:0.3;" rx="2.383"/>
  <ellipse cy="-29.333" cx="26.38" ry="0.795" style="fill:none;stroke:#000000;stroke-width:0.3;" rx="2.383"/>
  <ellipse cy="-25.458" cx="46.56" ry="0.795" style="fill:none;stroke:#000000;stroke-width:0.3;" rx="2.384"/>
  <ellipse cy="-21.333" cx="11.505" ry="0.795" style="fill:none;stroke:#000000;stroke-width:0.3;" rx="2.383"/>
  <ellipse cy="-17.72" cx="34.141" ry="0.794" style="fill:none;stroke:#000000;stroke-width:0.3;" rx="2.383"/>
  <ellipse cy="-10.583" cx="18.733" ry="0.795" style="fill:none;stroke:#000000;stroke-width:0.3;" rx="2.384"/>
  <path d="M0.004-13.479c0.085,0.003,0.171,0.005,0.259,0.005    c1.316,0,2.384-0.356,2.384-0.794c0-0.439-1.067-0.795-2.384-0.795c-0.088,0-0.174,0.001-0.259,0.005" style="fill:none;stroke:#000000;stroke-width:0.3;"/>
  <ellipse cy="-6.458" cx="38.38" ry="0.795" style="fill:none;stroke:#000000;stroke-width:0.3;" rx="2.383"/>
  <ellipse cy="-2.569" cx="17.107" ry="0.795" style="fill:none;stroke:#000000;stroke-width:0.3;" rx="2.384"/>
  <path d="M54.129-44.999c-1.209,0.038-2.155,0.378-2.155,0.791    c0,0.413,0.946,0.752,2.155,0.791" style="fill:none;stroke:#000000;stroke-width:0.3;"/>
  <path d="M54.129-15.059c-1.194,0.043-2.125,0.38-2.125,0.79    c0,0.409,0.931,0.747,2.125,0.79" style="fill:none;stroke:#000000;stroke-width:0.3;"/>
  <line y1="-50.453" x2="28.354" y2="-50.453" x1="30.779" style="fill:none;stroke:#000000;stroke-width:0.3;"/>
  <line y1="-50.453" x2="4.591" y2="-50.453" x1="17.341" style="fill:none;stroke:#000000;stroke-width:0.3;"/>
  <line y1="-50.453" x2="45.154" y2="-50.453" x1="42.021" style="fill:none;stroke:#000000;stroke-width:0.3;"/>
  <line y1="-50.453" x2="0.004" y2="-50.453" x1="4.591" style="fill:none;stroke:#000000;stroke-width:0.3;"/>
  <line y1="-50.453" x2="45.154" y2="-50.453" x1="54.129" style="fill:none;stroke:#000000;stroke-width:0.3;"/>
  <line y1="-50.453" x2="28.354" y2="-50.453" x1="17.341" style="fill:none;stroke:#000000;stroke-width:0.3;"/>
  <line y1="-50.453" x2="30.779" y2="-50.453" x1="42.021" style="fill:none;stroke:#000000;stroke-width:0.3;"/>
  <line y1="-46.278" x2="7.974" y2="-46.278" x1="34.787" style="fill:none;stroke:#000000;stroke-width:0.3;"/>
  <line y1="-46.278" x2="34.787" y2="-46.278" x1="54.129" style="fill:none;stroke:#000000;stroke-width:0.3;"/>
  <line y1="-46.278" x2="0.004" y2="-46.278" x1="7.974" style="fill:none;stroke:#000000;stroke-width:0.3;"/>
  <line y1="-42.09" x2="0.004" y2="-42.09" x1="12.724" style="fill:none;stroke:#000000;stroke-width:0.3;"/>
  <line y1="-42.09" x2="40.974" y2="-42.09" x1="27.537" style="fill:none;stroke:#000000;stroke-width:0.3;"/>
  <line y1="-42.09" x2="27.537" y2="-42.09" x1="12.724" style="fill:none;stroke:#000000;stroke-width:0.3;"/>
  <line y1="-42.09" x2="54.129" y2="-42.09" x1="53.787" style="fill:none;stroke:#000000;stroke-width:0.3;"/>
  <line y1="-42.09" x2="40.974" y2="-42.09" x1="53.787" style="fill:none;stroke:#000000;stroke-width:0.3;"/>
  <line y1="-12.477" x2="54.192" y2="-12.477" x1="54.129" style="fill:none;stroke:#000000;stroke-width:0.3;"/>
  <line y1="-12.477" x2="27.106" y2="-12.477" x1="41.106" style="fill:none;stroke:#000000;stroke-width:0.3;"/>
  <line y1="-12.477" x2="53.687" y2="-12.477" x1="41.106" style="fill:none;stroke:#000000;stroke-width:0.3;"/>
  <line y1="-12.477" x2="54.129" y2="-12.477" x1="53.687" style="fill:none;stroke:#000000;stroke-width:0.3;"/>
  <line y1="-12.477" x2="0.004" y2="-12.477" x1="12.606" style="fill:none;stroke:#000000;stroke-width:0.3;"/>
  <line y1="-12.477" x2="27.106" y2="-12.477" x1="12.606" style="fill:none;stroke:#000000;stroke-width:0.3;"/>
  <line y1="-8.703" x2="47.067" y2="-8.703" x1="38.792" style="fill:none;stroke:#000000;stroke-width:0.3;"/>
  <line y1="-8.703" x2="32.467" y2="-8.703" x1="24.792" style="fill:none;stroke:#000000;stroke-width:0.3;"/>
  <line y1="-8.703" x2="47.067" y2="-8.703" x1="51.233" style="fill:none;stroke:#000000;stroke-width:0.3;"/>
  <line y1="-8.703" x2="10.292" y2="-8.703" x1="18.467" style="fill:none;stroke:#000000;stroke-width:0.3;"/>
  <line y1="-8.703" x2="0.004" y2="-8.703" x1="5.467" style="fill:none;stroke:#000000;stroke-width:0.3;"/>
  <line y1="-8.703" x2="5.467" y2="-8.703" x1="10.292" style="fill:none;stroke:#000000;stroke-width:0.3;"/>
  <line y1="-8.703" x2="32.467" y2="-8.703" x1="38.792" style="fill:none;stroke:#000000;stroke-width:0.3;"/>
  <line y1="-8.703" x2="18.467" y2="-8.703" x1="24.792" style="fill:none;stroke:#000000;stroke-width:0.3;"/>
  <line y1="-8.703" x2="54.129" y2="-8.703" x1="51.233" style="fill:none;stroke:#000000;stroke-width:0.3;"/>
  <line y1="-38.071" x2="19.313" y2="-38.071" x1="32.625" style="fill:none;stroke:#000000;stroke-width:0.3;"/>
  <line y1="-38.071" x2="32.625" y2="-38.071" x1="47.25" style="fill:none;stroke:#000000;stroke-width:0.3;"/>
  <line y1="-38.071" x2="54.129" y2="-38.071" x1="47.25" style="fill:none;stroke:#000000;stroke-width:0.3;"/>
  <line y1="-38.071" x2="0.004" y2="-38.071" x1="6.626" style="fill:none;stroke:#000000;stroke-width:0.3;"/>
  <line y1="-38.071" x2="6.626" y2="-38.071" x1="19.313" style="fill:none;stroke:#000000;stroke-width:0.3;"/>
  <line y1="-34.79" x2="0.004" y2="-34.79" x1="13.045" style="fill:none;stroke:#000000;stroke-width:0.3;"/>
  <line y1="-34.79" x2="53.917" y2="-34.79" x1="41.858" style="fill:none;stroke:#000000;stroke-width:0.3;"/>
  <line y1="-34.79" x2="41.858" y2="-34.79" x1="28.045" style="fill:none;stroke:#000000;stroke-width:0.3;"/>
  <line y1="-34.79" x2="13.045" y2="-34.79" x1="28.045" style="fill:none;stroke:#000000;stroke-width:0.3;"/>
  <line y1="-34.79" x2="54.129" y2="-34.79" x1="53.917" style="fill:none;stroke:#000000;stroke-width:0.3;"/>
  <line y1="-31.365" x2="0.004" y2="-31.365" x1="7.49" style="fill:none;stroke:#000000;stroke-width:0.3;"/>
  <line y1="-31.365" x2="49.552" y2="-31.365" x1="51.716" style="fill:none;stroke:#000000;stroke-width:0.3;"/>
  <line y1="-31.365" x2="20.927" y2="-31.365" x1="7.49" style="fill:none;stroke:#000000;stroke-width:0.3;"/>
  <line y1="-31.365" x2="34.615" y2="-31.365" x1="49.552" style="fill:none;stroke:#000000;stroke-width:0.3;"/>
  <line y1="-31.365" x2="34.615" y2="-31.365" x1="20.927" style="fill:none;stroke:#000000;stroke-width:0.3;"/>
  <line y1="-31.365" x2="54.129" y2="-31.365" x1="51.716" style="fill:none;stroke:#000000;stroke-width:0.3;"/>
  <line y1="-27.315" x2="54.129" y2="-27.315" x1="54.059" style="fill:none;stroke:#000000;stroke-width:0.3;"/>
  <line y1="-27.315" x2="54.059" y2="-27.315" x1="40.872" style="fill:none;stroke:#000000;stroke-width:0.3;"/>
  <line y1="-27.315" x2="0.004" y2="-27.315" x1="12.497" style="fill:none;stroke:#000000;stroke-width:0.3;"/>
  <line y1="-27.315" x2="27.497" y2="-27.315" x1="40.872" style="fill:none;stroke:#000000;stroke-width:0.3;"/>
  <line y1="-27.315" x2="12.497" y2="-27.315" x1="27.497" style="fill:none;stroke:#000000;stroke-width:0.3;"/>
  <line y1="-23.515" x2="54.129" y2="-23.515" x1="0.004" style="fill:none;stroke:#000000;stroke-width:0.3;"/>
  <line y1="-19.315" x2="54.129" y2="-19.315" x1="0.004" style="fill:none;stroke:#000000;stroke-width:0.3;"/>
  <line y1="-19.315" x2="54.129" y2="-19.315" x1="54.192" style="fill:none;stroke:#000000;stroke-width:0.3;"/>
  <line y1="-16.09" x2="54.129" y2="-16.09" x1="51.825" style="fill:none;stroke:#000000;stroke-width:0.3;"/>
  <line y1="-16.09" x2="0.004" y2="-16.09" x1="51.825" style="fill:none;stroke:#000000;stroke-width:0.3;"/>
  <line y1="-0.915" x2="37.02" y2="-0.915" x1="23.333" style="fill:none;stroke:#000000;stroke-width:0.3;"/>
  <line y1="-0.915" x2="50.395" y2="-0.915" x1="37.02" style="fill:none;stroke:#000000;stroke-width:0.3;"/>
  <line y1="-0.915" x2="54.129" y2="-0.915" x1="50.395" style="fill:none;stroke:#000000;stroke-width:0.3;"/>
  <line y1="-0.915" x2="9.02" y2="-0.915" x1="0.004" style="fill:none;stroke:#000000;stroke-width:0.3;"/>
  <line y1="-0.915" x2="23.333" y2="-0.915" x1="9.02" style="fill:none;stroke:#000000;stroke-width:0.3;"/>
  <line y1="-4.29" x2="54.129" y2="-4.29" x1="0.004" style="fill:none;stroke:#000000;stroke-width:0.3;"/>
  <line y1="-8.703" x2="2.875" y2="-4.315" x1="5.467" style="fill:none;stroke:#000000;stroke-width:0.3;"/>
  <line y1="-8.765" x2="5.467" y2="-8.703" x1="5.504" style="fill:none;stroke:#000000;stroke-width:0.3;"/>
  <line y1="-8.765" x2="18.467" y2="-8.703" x1="18.504" style="fill:none;stroke:#000000;stroke-width:0.3;"/>
  <line y1="-8.703" x2="15.875" y2="-4.315" x1="18.467" style="fill:none;stroke:#000000;stroke-width:0.3;"/>
  <line y1="-4.315" x2="32.467" y2="-8.703" x1="29.875" style="fill:none;stroke:#000000;stroke-width:0.3;"/>
  <line y1="-8.765" x2="32.467" y2="-8.703" x1="32.504" style="fill:none;stroke:#000000;stroke-width:0.3;"/>
  <line y1="-8.703" x2="44.438" y2="-4.315" x1="47.067" style="fill:none;stroke:#000000;stroke-width:0.3;"/>
  <line y1="-0.915" x2="50.379" y2="-0.89" x1="50.395" style="fill:none;stroke:#000000;stroke-width:0.3;"/>
  <line y1="-0.915" x2="52.442" y2="-4.265" x1="50.395" style="fill:none;stroke:#000000;stroke-width:0.3;"/>
  <line y1="-0.915" x2="39.067" y2="-4.265" x1="37.02" style="fill:none;stroke:#000000;stroke-width:0.3;"/>
  <line y1="-0.915" x2="37.004" y2="-0.89" x1="37.02" style="fill:none;stroke:#000000;stroke-width:0.3;"/>
  <line y1="-0.915" x2="25.379" y2="-4.265" x1="23.333" style="fill:none;stroke:#000000;stroke-width:0.3;"/>
  <line y1="-0.915" x2="23.317" y2="-0.89" x1="23.333" style="fill:none;stroke:#000000;stroke-width:0.3;"/>
  <line y1="-0.915" x2="9.004" y2="-0.89" x1="9.02" style="fill:none;stroke:#000000;stroke-width:0.3;"/>
  <line y1="-0.915" x2="11.067" y2="-4.265" x1="9.02" style="fill:none;stroke:#000000;stroke-width:0.3;"/>
  <line y1="-8.703" x2="53.687" y2="-12.477" x1="51.233" style="fill:none;stroke:#000000;stroke-width:0.3;"/>
  <line y1="-8.703" x2="51.192" y2="-8.64" x1="51.233" style="fill:none;stroke:#000000;stroke-width:0.3;"/>
  <line y1="-12.477" x2="53.701" y2="-12.498" x1="53.687" style="fill:none;stroke:#000000;stroke-width:0.3;"/>
  <line y1="-12.515" x2="49.442" y2="-16.078" x1="47.317" style="fill:none;stroke:#000000;stroke-width:0.3;"/>
  <line y1="-23.453" x2="44.817" y2="-19.39" x1="47.379" style="fill:none;stroke:#000000;stroke-width:0.3;"/>
  <line y1="-16.09" x2="53.868" y2="-19.29" x1="51.825" style="fill:none;stroke:#000000;stroke-width:0.3;"/>
  <line y1="-16.09" x2="51.817" y2="-16.078" x1="51.825" style="fill:none;stroke:#000000;stroke-width:0.3;"/>
  <line y1="-23.578" x2="54.059" y2="-27.315" x1="51.817" style="fill:none;stroke:#000000;stroke-width:0.3;"/>
  <line y1="-27.328" x2="54.059" y2="-27.315" x1="54.067" style="fill:none;stroke:#000000;stroke-width:0.3;"/>
  <line y1="-31.365" x2="47.129" y2="-27.328" x1="49.552" style="fill:none;stroke:#000000;stroke-width:0.3;"/>
  <line y1="-31.39" x2="49.552" y2="-31.365" x1="49.567" style="fill:none;stroke:#000000;stroke-width:0.3;"/>
  <line y1="-31.365" x2="53.917" y2="-34.79" x1="51.716" style="fill:none;stroke:#000000;stroke-width:0.3;"/>
  <line y1="-31.365" x2="51.692" y2="-31.328" x1="51.716" style="fill:none;stroke:#000000;stroke-width:0.3;"/>
  <line y1="-34.811" x2="53.917" y2="-34.79" x1="53.93" style="fill:none;stroke:#000000;stroke-width:0.3;"/>
  <line y1="-38.071" x2="47.254" y2="-38.078" x1="47.25" style="fill:none;stroke:#000000;stroke-width:0.3;"/>
  <line y1="-38.071" x2="45.254" y2="-34.828" x1="47.25" style="fill:none;stroke:#000000;stroke-width:0.3;"/>
  <line y1="-42.09" x2="53.817" y2="-42.14" x1="53.787" style="fill:none;stroke:#000000;stroke-width:0.3;"/>
  <line y1="-42.09" x2="51.364" y2="-38.078" x1="53.787" style="fill:none;stroke:#000000;stroke-width:0.3;"/>
  <line y1="-42.14" x2="48.846" y2="-46.249" x1="46.192" style="fill:none;stroke:#000000;stroke-width:0.3;"/>
  <line y1="-50.436" x2="51.296" y2="-46.328" x1="53.909" style="fill:none;stroke:#000000;stroke-width:0.3;"/>
  <line y1="-50.453" x2="45.146" y2="-50.44" x1="45.154" style="fill:none;stroke:#000000;stroke-width:0.3;"/>
  <line y1="-50.453" x2="47.438" y2="-54.203" x1="45.154" style="fill:none;stroke:#000000;stroke-width:0.3;"/>
  <line y1="-8.703" x2="38.754" y2="-8.64" x1="38.792" style="fill:none;stroke:#000000;stroke-width:0.3;"/>
  <line y1="-12.477" x2="41.129" y2="-12.515" x1="41.106" style="fill:none;stroke:#000000;stroke-width:0.3;"/>
  <line y1="-12.477" x2="38.792" y2="-8.703" x1="41.106" style="fill:none;stroke:#000000;stroke-width:0.3;"/>
  <line y1="-12.515" x2="27.106" y2="-12.477" x1="27.129" style="fill:none;stroke:#000000;stroke-width:0.3;"/>
  <line y1="-8.703" x2="24.754" y2="-8.64" x1="24.792" style="fill:none;stroke:#000000;stroke-width:0.3;"/>
  <line y1="-12.477" x2="24.792" y2="-8.703" x1="27.106" style="fill:none;stroke:#000000;stroke-width:0.3;"/>
  <line y1="-12.477" x2="10.292" y2="-8.703" x1="12.606" style="fill:none;stroke:#000000;stroke-width:0.3;"/>
  <line y1="-8.703" x2="10.254" y2="-8.64" x1="10.292" style="fill:none;stroke:#000000;stroke-width:0.3;"/>
  <line y1="-12.477" x2="12.629" y2="-12.515" x1="12.606" style="fill:none;stroke:#000000;stroke-width:0.3;"/>
  <line y1="-12.515" x2="34.567" y2="-16.078" x1="32.442" style="fill:none;stroke:#000000;stroke-width:0.3;"/>
  <line y1="-12.515" x2="20.879" y2="-16.078" x1="18.754" style="fill:none;stroke:#000000;stroke-width:0.3;"/>
  <line y1="-12.515" x2="7.629" y2="-16.078" x1="5.504" style="fill:none;stroke:#000000;stroke-width:0.3;"/>
  <line y1="-16.14" x2="41.942" y2="-19.265" x1="40.004" style="fill:none;stroke:#000000;stroke-width:0.3;"/>
  <line y1="-16.14" x2="27.692" y2="-19.265" x1="25.754" style="fill:none;stroke:#000000;stroke-width:0.3;"/>
  <line y1="-16.14" x2="12.629" y2="-19.265" x1="10.692" style="fill:none;stroke:#000000;stroke-width:0.3;"/>
  <line y1="-23.453" x2="30.504" y2="-19.39" x1="33.067" style="fill:none;stroke:#000000;stroke-width:0.3;"/>
  <line y1="-23.453" x2="16.879" y2="-19.39" x1="19.442" style="fill:none;stroke:#000000;stroke-width:0.3;"/>
  <line y1="-23.453" x2="3.879" y2="-19.39" x1="6.442" style="fill:none;stroke:#000000;stroke-width:0.3;"/>
  <line y1="-27.315" x2="40.879" y2="-27.328" x1="40.872" style="fill:none;stroke:#000000;stroke-width:0.3;"/>
  <line y1="-27.315" x2="38.629" y2="-23.578" x1="40.872" style="fill:none;stroke:#000000;stroke-width:0.3;"/>
  <line y1="-27.328" x2="27.497" y2="-27.315" x1="27.504" style="fill:none;stroke:#000000;stroke-width:0.3;"/>
  <line y1="-27.315" x2="25.254" y2="-23.578" x1="27.497" style="fill:none;stroke:#000000;stroke-width:0.3;"/>
  <line y1="-27.328" x2="12.497" y2="-27.315" x1="12.504" style="fill:none;stroke:#000000;stroke-width:0.3;"/>
  <line y1="-27.315" x2="10.254" y2="-23.578" x1="12.497" style="fill:none;stroke:#000000;stroke-width:0.3;"/>
  <line y1="-31.39" x2="34.615" y2="-31.365" x1="34.629" style="fill:none;stroke:#000000;stroke-width:0.3;"/>
  <line y1="-27.328" x2="34.615" y2="-31.365" x1="32.192" style="fill:none;stroke:#000000;stroke-width:0.3;"/>
  <line y1="-31.365" x2="18.504" y2="-27.328" x1="20.927" style="fill:none;stroke:#000000;stroke-width:0.3;"/>
  <line y1="-31.365" x2="20.942" y2="-31.39" x1="20.927" style="fill:none;stroke:#000000;stroke-width:0.3;"/>
  <line y1="-31.365" x2="5.067" y2="-27.328" x1="7.49" style="fill:none;stroke:#000000;stroke-width:0.3;"/>
  <line y1="-31.365" x2="7.504" y2="-31.39" x1="7.49" style="fill:none;stroke:#000000;stroke-width:0.3;"/>
  <line y1="-34.79" x2="41.879" y2="-34.828" x1="41.858" style="fill:none;stroke:#000000;stroke-width:0.3;"/>
  <line y1="-34.79" x2="39.879" y2="-31.39" x1="41.858" style="fill:none;stroke:#000000;stroke-width:0.3;"/>
  <line y1="-34.79" x2="28.067" y2="-34.828" x1="28.045" style="fill:none;stroke:#000000;stroke-width:0.3;"/>
  <line y1="-34.79" x2="26.067" y2="-31.39" x1="28.045" style="fill:none;stroke:#000000;stroke-width:0.3;"/>
  <line y1="-34.79" x2="13.067" y2="-34.828" x1="13.045" style="fill:none;stroke:#000000;stroke-width:0.3;"/>
  <line y1="-34.79" x2="11.067" y2="-31.39" x1="13.045" style="fill:none;stroke:#000000;stroke-width:0.3;"/>
  <line y1="-38.071" x2="30.629" y2="-34.828" x1="32.625" style="fill:none;stroke:#000000;stroke-width:0.3;"/>
  <line y1="-38.071" x2="32.629" y2="-38.078" x1="32.625" style="fill:none;stroke:#000000;stroke-width:0.3;"/>
  <line y1="-38.071" x2="17.317" y2="-34.828" x1="19.313" style="fill:none;stroke:#000000;stroke-width:0.3;"/>
  <line y1="-38.071" x2="19.317" y2="-38.078" x1="19.313" style="fill:none;stroke:#000000;stroke-width:0.3;"/>
  <line y1="-38.071" x2="6.629" y2="-38.078" x1="6.626" style="fill:none;stroke:#000000;stroke-width:0.3;"/>
  <line y1="-38.071" x2="4.629" y2="-34.828" x1="6.626" style="fill:none;stroke:#000000;stroke-width:0.3;"/>
  <line y1="-42.09" x2="41.004" y2="-42.14" x1="40.974" style="fill:none;stroke:#000000;stroke-width:0.3;"/>
  <line y1="-38.078" x2="40.974" y2="-42.09" x1="38.567" style="fill:none;stroke:#000000;stroke-width:0.3;"/>
  <line y1="-42.09" x2="27.567" y2="-42.14" x1="27.537" style="fill:none;stroke:#000000;stroke-width:0.3;"/>
  <line y1="-38.078" x2="27.537" y2="-42.09" x1="25.129" style="fill:none;stroke:#000000;stroke-width:0.3;"/>
  <line y1="-42.09" x2="12.754" y2="-42.14" x1="12.724" style="fill:none;stroke:#000000;stroke-width:0.3;"/>
  <line y1="-42.09" x2="10.317" y2="-38.078" x1="12.724" style="fill:none;stroke:#000000;stroke-width:0.3;"/>
  <line y1="-46.278" x2="32.254" y2="-42.14" x1="34.787" style="fill:none;stroke:#000000;stroke-width:0.3;"/>
  <line y1="-46.278" x2="34.817" y2="-46.328" x1="34.787" style="fill:none;stroke:#000000;stroke-width:0.3;"/>
  <line y1="-42.14" x2="21.129" y2="-46.265" x1="18.629" style="fill:none;stroke:#000000;stroke-width:0.3;"/>
  <line y1="-46.278" x2="8.004" y2="-46.328" x1="7.974" style="fill:none;stroke:#000000;stroke-width:0.3;"/>
  <line y1="-46.278" x2="5.442" y2="-42.14" x1="7.974" style="fill:none;stroke:#000000;stroke-width:0.3;"/>
  <line y1="-50.453" x2="39.504" y2="-46.328" x1="42.021" style="fill:none;stroke:#000000;stroke-width:0.3;"/>
  <line y1="-50.453" x2="42.046" y2="-50.495" x1="42.021" style="fill:none;stroke:#000000;stroke-width:0.3;"/>
  <line y1="-46.328" x2="28.354" y2="-50.453" x1="25.817" style="fill:none;stroke:#000000;stroke-width:0.3;"/>
  <line y1="-50.495" x2="28.354" y2="-50.453" x1="28.379" style="fill:none;stroke:#000000;stroke-width:0.3;"/>
  <line y1="-50.411" x2="10.942" y2="-46.328" x1="13.463" style="fill:none;stroke:#000000;stroke-width:0.3;"/>
  <line y1="-50.453" x2="33.063" y2="-54.203" x1="30.779" style="fill:none;stroke:#000000;stroke-width:0.3;"/>
  <line y1="-50.44" x2="30.779" y2="-50.453" x1="30.771" style="fill:none;stroke:#000000;stroke-width:0.3;"/>
  <line y1="-50.453" x2="19.625" y2="-54.203" x1="17.341" style="fill:none;stroke:#000000;stroke-width:0.3;"/>
  <line y1="-50.453" x2="17.333" y2="-50.44" x1="17.341" style="fill:none;stroke:#000000;stroke-width:0.3;"/>
  <line y1="-50.44" x2="4.591" y2="-50.453" x1="4.583" style="fill:none;stroke:#000000;stroke-width:0.3;"/>
  <line y1="-50.453" x2="6.876" y2="-54.203" x1="4.591" style="fill:none;stroke:#000000;stroke-width:0.3;"/>
  <line y1="-0.828" x2="47.427" y2="-0.078" x1="47.879" style="fill:none;stroke:#000000;stroke-width:0.3;"/>
  <line y1="-0.828" x2="33.052" y2="-0.078" x1="33.504" style="fill:none;stroke:#000000;stroke-width:0.3;"/>
  <line y1="-0.828" x2="19.615" y2="-0.078" x1="20.067" style="fill:none;stroke:#000000;stroke-width:0.3;"/>
  <line y1="-0.828" x2="6.865" y2="-0.078" x1="7.317" style="fill:none;stroke:#000000;stroke-width:0.3;"/>
 </g>
</svg>
