<?xml version="1.0"?>
<!-- Converted with SVG Converter - Version 0.9.6 (Compiled Thu Aug 31 10:01:05 2017) - Copyright (C) 2011 Nokia -->
<svg xmlns="http://www.w3.org/2000/svg" baseProfile="tiny" x="0px" version="1.1" y="0px" xmlns:xlink="http://www.w3.org/1999/xlink" height="54.125" width="54.125" viewBox="0.004 -54.203 54.125 54.125" xml:space="preserve">
 <g>
  <rect x="0.004" y="-54.203" height="54.125" width="54.125" style="fill:none;"/>
  <path d="M0.004-43.417c0.075,0.002,0.151,0.004,0.228,0.004    c1.316,0,2.384-0.356,2.384-0.794c0-0.439-1.067-0.795-2.384-0.795c-0.077,0-0.153,0.001-0.228,0.004" style="fill:none;stroke:#000000;stroke-width:0.3;"/>
  <ellipse rx="2.383" style="fill:none;stroke:#000000;stroke-width:0.3;" cx="19.576" cy="-48.353" ry="0.794"/>
  <ellipse rx="2.384" style="fill:none;stroke:#000000;stroke-width:0.3;" cx="39.313" cy="-52.636" ry="0.795"/>
  <ellipse rx="2.384" style="fill:none;stroke:#000000;stroke-width:0.3;" cx="18.937" cy="-40.083" ry="0.795"/>
  <ellipse rx="2.383" style="fill:none;stroke:#000000;stroke-width:0.3;" cx="38.755" cy="-36.433" ry="0.794"/>
  <ellipse rx="2.383" style="fill:none;stroke:#000000;stroke-width:0.3;" cx="5.255" cy="-33.095" ry="0.794"/>
  <ellipse rx="2.383" style="fill:none;stroke:#000000;stroke-width:0.3;" cx="26.38" cy="-29.333" ry="0.795"/>
  <ellipse rx="2.384" style="fill:none;stroke:#000000;stroke-width:0.3;" cx="46.56" cy="-25.458" ry="0.795"/>
  <ellipse rx="2.383" style="fill:none;stroke:#000000;stroke-width:0.3;" cx="11.505" cy="-21.333" ry="0.795"/>
  <ellipse rx="2.383" style="fill:none;stroke:#000000;stroke-width:0.3;" cx="34.141" cy="-17.72" ry="0.794"/>
  <ellipse rx="2.384" style="fill:none;stroke:#000000;stroke-width:0.3;" cx="18.733" cy="-10.583" ry="0.795"/>
  <path d="M0.004-13.479c0.085,0.003,0.171,0.005,0.259,0.005    c1.316,0,2.384-0.356,2.384-0.794c0-0.439-1.067-0.795-2.384-0.795c-0.088,0-0.174,0.001-0.259,0.005" style="fill:none;stroke:#000000;stroke-width:0.3;"/>
  <ellipse rx="2.383" style="fill:none;stroke:#000000;stroke-width:0.3;" cx="38.38" cy="-6.458" ry="0.795"/>
  <ellipse rx="2.384" style="fill:none;stroke:#000000;stroke-width:0.3;" cx="17.107" cy="-2.569" ry="0.795"/>
  <path d="M54.129-44.999c-1.209,0.038-2.155,0.378-2.155,0.791    c0,0.413,0.946,0.752,2.155,0.791" style="fill:none;stroke:#000000;stroke-width:0.3;"/>
  <path d="M54.129-15.059c-1.194,0.043-2.125,0.38-2.125,0.79    c0,0.409,0.931,0.747,2.125,0.79" style="fill:none;stroke:#000000;stroke-width:0.3;"/>
  <line y1="-50.453" x1="30.779" style="fill:none;stroke:#000000;stroke-width:0.3;" y2="-50.453" x2="28.354"/>
  <line y1="-50.453" x1="17.341" style="fill:none;stroke:#000000;stroke-width:0.3;" y2="-50.453" x2="4.591"/>
  <line y1="-50.453" x1="42.021" style="fill:none;stroke:#000000;stroke-width:0.3;" y2="-50.453" x2="45.154"/>
  <line y1="-50.453" x1="4.591" style="fill:none;stroke:#000000;stroke-width:0.3;" y2="-50.453" x2="0.004"/>
  <line y1="-50.453" x1="54.129" style="fill:none;stroke:#000000;stroke-width:0.3;" y2="-50.453" x2="45.154"/>
  <line y1="-50.453" x1="17.341" style="fill:none;stroke:#000000;stroke-width:0.3;" y2="-50.453" x2="28.354"/>
  <line y1="-50.453" x1="42.021" style="fill:none;stroke:#000000;stroke-width:0.3;" y2="-50.453" x2="30.779"/>
  <line y1="-46.278" x1="34.787" style="fill:none;stroke:#000000;stroke-width:0.3;" y2="-46.278" x2="7.974"/>
  <line y1="-46.278" x1="54.129" style="fill:none;stroke:#000000;stroke-width:0.3;" y2="-46.278" x2="34.787"/>
  <line y1="-46.278" x1="7.974" style="fill:none;stroke:#000000;stroke-width:0.3;" y2="-46.278" x2="0.004"/>
  <line y1="-42.09" x1="12.724" style="fill:none;stroke:#000000;stroke-width:0.3;" y2="-42.09" x2="0.004"/>
  <line y1="-42.09" x1="27.537" style="fill:none;stroke:#000000;stroke-width:0.3;" y2="-42.09" x2="40.974"/>
  <line y1="-42.09" x1="12.724" style="fill:none;stroke:#000000;stroke-width:0.3;" y2="-42.09" x2="27.537"/>
  <line y1="-42.09" x1="53.787" style="fill:none;stroke:#000000;stroke-width:0.3;" y2="-42.09" x2="54.129"/>
  <line y1="-42.09" x1="53.787" style="fill:none;stroke:#000000;stroke-width:0.3;" y2="-42.09" x2="40.974"/>
  <line y1="-12.477" x1="54.129" style="fill:none;stroke:#000000;stroke-width:0.3;" y2="-12.477" x2="54.192"/>
  <line y1="-12.477" x1="41.106" style="fill:none;stroke:#000000;stroke-width:0.3;" y2="-12.477" x2="27.106"/>
  <line y1="-12.477" x1="41.106" style="fill:none;stroke:#000000;stroke-width:0.3;" y2="-12.477" x2="53.687"/>
  <line y1="-12.477" x1="53.687" style="fill:none;stroke:#000000;stroke-width:0.3;" y2="-12.477" x2="54.129"/>
  <line y1="-12.477" x1="12.606" style="fill:none;stroke:#000000;stroke-width:0.3;" y2="-12.477" x2="0.004"/>
  <line y1="-12.477" x1="12.606" style="fill:none;stroke:#000000;stroke-width:0.3;" y2="-12.477" x2="27.106"/>
  <line y1="-8.703" x1="38.792" style="fill:none;stroke:#000000;stroke-width:0.3;" y2="-8.703" x2="47.067"/>
  <line y1="-8.703" x1="24.792" style="fill:none;stroke:#000000;stroke-width:0.3;" y2="-8.703" x2="32.467"/>
  <line y1="-8.703" x1="51.233" style="fill:none;stroke:#000000;stroke-width:0.3;" y2="-8.703" x2="47.067"/>
  <line y1="-8.703" x1="18.467" style="fill:none;stroke:#000000;stroke-width:0.3;" y2="-8.703" x2="10.292"/>
  <line y1="-8.703" x1="5.467" style="fill:none;stroke:#000000;stroke-width:0.3;" y2="-8.703" x2="0.004"/>
  <line y1="-8.703" x1="10.292" style="fill:none;stroke:#000000;stroke-width:0.3;" y2="-8.703" x2="5.467"/>
  <line y1="-8.703" x1="38.792" style="fill:none;stroke:#000000;stroke-width:0.3;" y2="-8.703" x2="32.467"/>
  <line y1="-8.703" x1="24.792" style="fill:none;stroke:#000000;stroke-width:0.3;" y2="-8.703" x2="18.467"/>
  <line y1="-8.703" x1="51.233" style="fill:none;stroke:#000000;stroke-width:0.3;" y2="-8.703" x2="54.129"/>
  <line y1="-38.071" x1="32.625" style="fill:none;stroke:#000000;stroke-width:0.3;" y2="-38.071" x2="19.313"/>
  <line y1="-38.071" x1="47.25" style="fill:none;stroke:#000000;stroke-width:0.3;" y2="-38.071" x2="32.625"/>
  <line y1="-38.071" x1="47.25" style="fill:none;stroke:#000000;stroke-width:0.3;" y2="-38.071" x2="54.129"/>
  <line y1="-38.071" x1="6.626" style="fill:none;stroke:#000000;stroke-width:0.3;" y2="-38.071" x2="0.004"/>
  <line y1="-38.071" x1="19.313" style="fill:none;stroke:#000000;stroke-width:0.3;" y2="-38.071" x2="6.626"/>
  <line y1="-34.79" x1="13.045" style="fill:none;stroke:#000000;stroke-width:0.3;" y2="-34.79" x2="0.004"/>
  <line y1="-34.79" x1="41.858" style="fill:none;stroke:#000000;stroke-width:0.3;" y2="-34.79" x2="53.917"/>
  <line y1="-34.79" x1="28.045" style="fill:none;stroke:#000000;stroke-width:0.3;" y2="-34.79" x2="41.858"/>
  <line y1="-34.79" x1="28.045" style="fill:none;stroke:#000000;stroke-width:0.3;" y2="-34.79" x2="13.045"/>
  <line y1="-34.79" x1="53.917" style="fill:none;stroke:#000000;stroke-width:0.3;" y2="-34.79" x2="54.129"/>
  <line y1="-31.365" x1="7.49" style="fill:none;stroke:#000000;stroke-width:0.3;" y2="-31.365" x2="0.004"/>
  <line y1="-31.365" x1="51.716" style="fill:none;stroke:#000000;stroke-width:0.3;" y2="-31.365" x2="49.552"/>
  <line y1="-31.365" x1="7.49" style="fill:none;stroke:#000000;stroke-width:0.3;" y2="-31.365" x2="20.927"/>
  <line y1="-31.365" x1="49.552" style="fill:none;stroke:#000000;stroke-width:0.3;" y2="-31.365" x2="34.615"/>
  <line y1="-31.365" x1="20.927" style="fill:none;stroke:#000000;stroke-width:0.3;" y2="-31.365" x2="34.615"/>
  <line y1="-31.365" x1="51.716" style="fill:none;stroke:#000000;stroke-width:0.3;" y2="-31.365" x2="54.129"/>
  <line y1="-27.315" x1="54.059" style="fill:none;stroke:#000000;stroke-width:0.3;" y2="-27.315" x2="54.129"/>
  <line y1="-27.315" x1="40.872" style="fill:none;stroke:#000000;stroke-width:0.3;" y2="-27.315" x2="54.059"/>
  <line y1="-27.315" x1="12.497" style="fill:none;stroke:#000000;stroke-width:0.3;" y2="-27.315" x2="0.004"/>
  <line y1="-27.315" x1="40.872" style="fill:none;stroke:#000000;stroke-width:0.3;" y2="-27.315" x2="27.497"/>
  <line y1="-27.315" x1="27.497" style="fill:none;stroke:#000000;stroke-width:0.3;" y2="-27.315" x2="12.497"/>
  <line y1="-23.515" x1="0.004" style="fill:none;stroke:#000000;stroke-width:0.3;" y2="-23.515" x2="54.129"/>
  <line y1="-19.315" x1="0.004" style="fill:none;stroke:#000000;stroke-width:0.3;" y2="-19.315" x2="54.129"/>
  <line y1="-19.315" x1="54.192" style="fill:none;stroke:#000000;stroke-width:0.3;" y2="-19.315" x2="54.129"/>
  <line y1="-16.09" x1="51.825" style="fill:none;stroke:#000000;stroke-width:0.3;" y2="-16.09" x2="54.129"/>
  <line y1="-16.09" x1="51.825" style="fill:none;stroke:#000000;stroke-width:0.3;" y2="-16.09" x2="0.004"/>
  <line y1="-0.915" x1="23.333" style="fill:none;stroke:#000000;stroke-width:0.3;" y2="-0.915" x2="37.02"/>
  <line y1="-0.915" x1="37.02" style="fill:none;stroke:#000000;stroke-width:0.3;" y2="-0.915" x2="50.395"/>
  <line y1="-0.915" x1="50.395" style="fill:none;stroke:#000000;stroke-width:0.3;" y2="-0.915" x2="54.129"/>
  <line y1="-0.915" x1="0.004" style="fill:none;stroke:#000000;stroke-width:0.3;" y2="-0.915" x2="9.02"/>
  <line y1="-0.915" x1="9.02" style="fill:none;stroke:#000000;stroke-width:0.3;" y2="-0.915" x2="23.333"/>
  <line y1="-4.29" x1="0.004" style="fill:none;stroke:#000000;stroke-width:0.3;" y2="-4.29" x2="54.129"/>
  <line y1="-8.703" x1="5.467" style="fill:none;stroke:#000000;stroke-width:0.3;" y2="-4.315" x2="2.875"/>
  <line y1="-8.765" x1="5.504" style="fill:none;stroke:#000000;stroke-width:0.3;" y2="-8.703" x2="5.467"/>
  <line y1="-8.765" x1="18.504" style="fill:none;stroke:#000000;stroke-width:0.3;" y2="-8.703" x2="18.467"/>
  <line y1="-8.703" x1="18.467" style="fill:none;stroke:#000000;stroke-width:0.3;" y2="-4.315" x2="15.875"/>
  <line y1="-4.315" x1="29.875" style="fill:none;stroke:#000000;stroke-width:0.3;" y2="-8.703" x2="32.467"/>
  <line y1="-8.765" x1="32.504" style="fill:none;stroke:#000000;stroke-width:0.3;" y2="-8.703" x2="32.467"/>
  <line y1="-8.703" x1="47.067" style="fill:none;stroke:#000000;stroke-width:0.3;" y2="-4.315" x2="44.438"/>
  <line y1="-0.915" x1="50.395" style="fill:none;stroke:#000000;stroke-width:0.3;" y2="-0.89" x2="50.379"/>
  <line y1="-0.915" x1="50.395" style="fill:none;stroke:#000000;stroke-width:0.3;" y2="-4.265" x2="52.442"/>
  <line y1="-0.915" x1="37.02" style="fill:none;stroke:#000000;stroke-width:0.3;" y2="-4.265" x2="39.067"/>
  <line y1="-0.915" x1="37.02" style="fill:none;stroke:#000000;stroke-width:0.3;" y2="-0.89" x2="37.004"/>
  <line y1="-0.915" x1="23.333" style="fill:none;stroke:#000000;stroke-width:0.3;" y2="-4.265" x2="25.379"/>
  <line y1="-0.915" x1="23.333" style="fill:none;stroke:#000000;stroke-width:0.3;" y2="-0.89" x2="23.317"/>
  <line y1="-0.915" x1="9.02" style="fill:none;stroke:#000000;stroke-width:0.3;" y2="-0.89" x2="9.004"/>
  <line y1="-0.915" x1="9.02" style="fill:none;stroke:#000000;stroke-width:0.3;" y2="-4.265" x2="11.067"/>
  <line y1="-8.703" x1="51.233" style="fill:none;stroke:#000000;stroke-width:0.3;" y2="-12.477" x2="53.687"/>
  <line y1="-8.703" x1="51.233" style="fill:none;stroke:#000000;stroke-width:0.3;" y2="-8.64" x2="51.192"/>
  <line y1="-12.477" x1="53.687" style="fill:none;stroke:#000000;stroke-width:0.3;" y2="-12.498" x2="53.701"/>
  <line y1="-12.515" x1="47.317" style="fill:none;stroke:#000000;stroke-width:0.3;" y2="-16.078" x2="49.442"/>
  <line y1="-23.453" x1="47.379" style="fill:none;stroke:#000000;stroke-width:0.3;" y2="-19.39" x2="44.817"/>
  <line y1="-16.09" x1="51.825" style="fill:none;stroke:#000000;stroke-width:0.3;" y2="-19.29" x2="53.868"/>
  <line y1="-16.09" x1="51.825" style="fill:none;stroke:#000000;stroke-width:0.3;" y2="-16.078" x2="51.817"/>
  <line y1="-23.578" x1="51.817" style="fill:none;stroke:#000000;stroke-width:0.3;" y2="-27.315" x2="54.059"/>
  <line y1="-27.328" x1="54.067" style="fill:none;stroke:#000000;stroke-width:0.3;" y2="-27.315" x2="54.059"/>
  <line y1="-31.365" x1="49.552" style="fill:none;stroke:#000000;stroke-width:0.3;" y2="-27.328" x2="47.129"/>
  <line y1="-31.39" x1="49.567" style="fill:none;stroke:#000000;stroke-width:0.3;" y2="-31.365" x2="49.552"/>
  <line y1="-31.365" x1="51.716" style="fill:none;stroke:#000000;stroke-width:0.3;" y2="-34.79" x2="53.917"/>
  <line y1="-31.365" x1="51.716" style="fill:none;stroke:#000000;stroke-width:0.3;" y2="-31.328" x2="51.692"/>
  <line y1="-34.811" x1="53.93" style="fill:none;stroke:#000000;stroke-width:0.3;" y2="-34.79" x2="53.917"/>
  <line y1="-38.071" x1="47.25" style="fill:none;stroke:#000000;stroke-width:0.3;" y2="-38.078" x2="47.254"/>
  <line y1="-38.071" x1="47.25" style="fill:none;stroke:#000000;stroke-width:0.3;" y2="-34.828" x2="45.254"/>
  <line y1="-42.09" x1="53.787" style="fill:none;stroke:#000000;stroke-width:0.3;" y2="-42.14" x2="53.817"/>
  <line y1="-42.09" x1="53.787" style="fill:none;stroke:#000000;stroke-width:0.3;" y2="-38.078" x2="51.364"/>
  <line y1="-42.14" x1="46.192" style="fill:none;stroke:#000000;stroke-width:0.3;" y2="-46.249" x2="48.846"/>
  <line y1="-50.436" x1="53.909" style="fill:none;stroke:#000000;stroke-width:0.3;" y2="-46.328" x2="51.296"/>
  <line y1="-50.453" x1="45.154" style="fill:none;stroke:#000000;stroke-width:0.3;" y2="-50.44" x2="45.146"/>
  <line y1="-50.453" x1="45.154" style="fill:none;stroke:#000000;stroke-width:0.3;" y2="-54.203" x2="47.438"/>
  <line y1="-8.703" x1="38.792" style="fill:none;stroke:#000000;stroke-width:0.3;" y2="-8.64" x2="38.754"/>
  <line y1="-12.477" x1="41.106" style="fill:none;stroke:#000000;stroke-width:0.3;" y2="-12.515" x2="41.129"/>
  <line y1="-12.477" x1="41.106" style="fill:none;stroke:#000000;stroke-width:0.3;" y2="-8.703" x2="38.792"/>
  <line y1="-12.515" x1="27.129" style="fill:none;stroke:#000000;stroke-width:0.3;" y2="-12.477" x2="27.106"/>
  <line y1="-8.703" x1="24.792" style="fill:none;stroke:#000000;stroke-width:0.3;" y2="-8.64" x2="24.754"/>
  <line y1="-12.477" x1="27.106" style="fill:none;stroke:#000000;stroke-width:0.3;" y2="-8.703" x2="24.792"/>
  <line y1="-12.477" x1="12.606" style="fill:none;stroke:#000000;stroke-width:0.3;" y2="-8.703" x2="10.292"/>
  <line y1="-8.703" x1="10.292" style="fill:none;stroke:#000000;stroke-width:0.3;" y2="-8.64" x2="10.254"/>
  <line y1="-12.477" x1="12.606" style="fill:none;stroke:#000000;stroke-width:0.3;" y2="-12.515" x2="12.629"/>
  <line y1="-12.515" x1="32.442" style="fill:none;stroke:#000000;stroke-width:0.3;" y2="-16.078" x2="34.567"/>
  <line y1="-12.515" x1="18.754" style="fill:none;stroke:#000000;stroke-width:0.3;" y2="-16.078" x2="20.879"/>
  <line y1="-12.515" x1="5.504" style="fill:none;stroke:#000000;stroke-width:0.3;" y2="-16.078" x2="7.629"/>
  <line y1="-16.14" x1="40.004" style="fill:none;stroke:#000000;stroke-width:0.3;" y2="-19.265" x2="41.942"/>
  <line y1="-16.14" x1="25.754" style="fill:none;stroke:#000000;stroke-width:0.3;" y2="-19.265" x2="27.692"/>
  <line y1="-16.14" x1="10.692" style="fill:none;stroke:#000000;stroke-width:0.3;" y2="-19.265" x2="12.629"/>
  <line y1="-23.453" x1="33.067" style="fill:none;stroke:#000000;stroke-width:0.3;" y2="-19.39" x2="30.504"/>
  <line y1="-23.453" x1="19.442" style="fill:none;stroke:#000000;stroke-width:0.3;" y2="-19.39" x2="16.879"/>
  <line y1="-23.453" x1="6.442" style="fill:none;stroke:#000000;stroke-width:0.3;" y2="-19.39" x2="3.879"/>
  <line y1="-27.315" x1="40.872" style="fill:none;stroke:#000000;stroke-width:0.3;" y2="-27.328" x2="40.879"/>
  <line y1="-27.315" x1="40.872" style="fill:none;stroke:#000000;stroke-width:0.3;" y2="-23.578" x2="38.629"/>
  <line y1="-27.328" x1="27.504" style="fill:none;stroke:#000000;stroke-width:0.3;" y2="-27.315" x2="27.497"/>
  <line y1="-27.315" x1="27.497" style="fill:none;stroke:#000000;stroke-width:0.3;" y2="-23.578" x2="25.254"/>
  <line y1="-27.328" x1="12.504" style="fill:none;stroke:#000000;stroke-width:0.3;" y2="-27.315" x2="12.497"/>
  <line y1="-27.315" x1="12.497" style="fill:none;stroke:#000000;stroke-width:0.3;" y2="-23.578" x2="10.254"/>
  <line y1="-31.39" x1="34.629" style="fill:none;stroke:#000000;stroke-width:0.3;" y2="-31.365" x2="34.615"/>
  <line y1="-27.328" x1="32.192" style="fill:none;stroke:#000000;stroke-width:0.3;" y2="-31.365" x2="34.615"/>
  <line y1="-31.365" x1="20.927" style="fill:none;stroke:#000000;stroke-width:0.3;" y2="-27.328" x2="18.504"/>
  <line y1="-31.365" x1="20.927" style="fill:none;stroke:#000000;stroke-width:0.3;" y2="-31.39" x2="20.942"/>
  <line y1="-31.365" x1="7.49" style="fill:none;stroke:#000000;stroke-width:0.3;" y2="-27.328" x2="5.067"/>
  <line y1="-31.365" x1="7.49" style="fill:none;stroke:#000000;stroke-width:0.3;" y2="-31.39" x2="7.504"/>
  <line y1="-34.79" x1="41.858" style="fill:none;stroke:#000000;stroke-width:0.3;" y2="-34.828" x2="41.879"/>
  <line y1="-34.79" x1="41.858" style="fill:none;stroke:#000000;stroke-width:0.3;" y2="-31.39" x2="39.879"/>
  <line y1="-34.79" x1="28.045" style="fill:none;stroke:#000000;stroke-width:0.3;" y2="-34.828" x2="28.067"/>
  <line y1="-34.79" x1="28.045" style="fill:none;stroke:#000000;stroke-width:0.3;" y2="-31.39" x2="26.067"/>
  <line y1="-34.79" x1="13.045" style="fill:none;stroke:#000000;stroke-width:0.3;" y2="-34.828" x2="13.067"/>
  <line y1="-34.79" x1="13.045" style="fill:none;stroke:#000000;stroke-width:0.3;" y2="-31.39" x2="11.067"/>
  <line y1="-38.071" x1="32.625" style="fill:none;stroke:#000000;stroke-width:0.3;" y2="-34.828" x2="30.629"/>
  <line y1="-38.071" x1="32.625" style="fill:none;stroke:#000000;stroke-width:0.3;" y2="-38.078" x2="32.629"/>
  <line y1="-38.071" x1="19.313" style="fill:none;stroke:#000000;stroke-width:0.3;" y2="-34.828" x2="17.317"/>
  <line y1="-38.071" x1="19.313" style="fill:none;stroke:#000000;stroke-width:0.3;" y2="-38.078" x2="19.317"/>
  <line y1="-38.071" x1="6.626" style="fill:none;stroke:#000000;stroke-width:0.3;" y2="-38.078" x2="6.629"/>
  <line y1="-38.071" x1="6.626" style="fill:none;stroke:#000000;stroke-width:0.3;" y2="-34.828" x2="4.629"/>
  <line y1="-42.09" x1="40.974" style="fill:none;stroke:#000000;stroke-width:0.3;" y2="-42.14" x2="41.004"/>
  <line y1="-38.078" x1="38.567" style="fill:none;stroke:#000000;stroke-width:0.3;" y2="-42.09" x2="40.974"/>
  <line y1="-42.09" x1="27.537" style="fill:none;stroke:#000000;stroke-width:0.3;" y2="-42.14" x2="27.567"/>
  <line y1="-38.078" x1="25.129" style="fill:none;stroke:#000000;stroke-width:0.3;" y2="-42.09" x2="27.537"/>
  <line y1="-42.09" x1="12.724" style="fill:none;stroke:#000000;stroke-width:0.3;" y2="-42.14" x2="12.754"/>
  <line y1="-42.09" x1="12.724" style="fill:none;stroke:#000000;stroke-width:0.3;" y2="-38.078" x2="10.317"/>
  <line y1="-46.278" x1="34.787" style="fill:none;stroke:#000000;stroke-width:0.3;" y2="-42.14" x2="32.254"/>
  <line y1="-46.278" x1="34.787" style="fill:none;stroke:#000000;stroke-width:0.3;" y2="-46.328" x2="34.817"/>
  <line y1="-42.14" x1="18.629" style="fill:none;stroke:#000000;stroke-width:0.3;" y2="-46.265" x2="21.129"/>
  <line y1="-46.278" x1="7.974" style="fill:none;stroke:#000000;stroke-width:0.3;" y2="-46.328" x2="8.004"/>
  <line y1="-46.278" x1="7.974" style="fill:none;stroke:#000000;stroke-width:0.3;" y2="-42.14" x2="5.442"/>
  <line y1="-50.453" x1="42.021" style="fill:none;stroke:#000000;stroke-width:0.3;" y2="-46.328" x2="39.504"/>
  <line y1="-50.453" x1="42.021" style="fill:none;stroke:#000000;stroke-width:0.3;" y2="-50.495" x2="42.046"/>
  <line y1="-46.328" x1="25.817" style="fill:none;stroke:#000000;stroke-width:0.3;" y2="-50.453" x2="28.354"/>
  <line y1="-50.495" x1="28.379" style="fill:none;stroke:#000000;stroke-width:0.3;" y2="-50.453" x2="28.354"/>
  <line y1="-50.411" x1="13.463" style="fill:none;stroke:#000000;stroke-width:0.3;" y2="-46.328" x2="10.942"/>
  <line y1="-50.453" x1="30.779" style="fill:none;stroke:#000000;stroke-width:0.3;" y2="-54.203" x2="33.063"/>
  <line y1="-50.44" x1="30.771" style="fill:none;stroke:#000000;stroke-width:0.3;" y2="-50.453" x2="30.779"/>
  <line y1="-50.453" x1="17.341" style="fill:none;stroke:#000000;stroke-width:0.3;" y2="-54.203" x2="19.625"/>
  <line y1="-50.453" x1="17.341" style="fill:none;stroke:#000000;stroke-width:0.3;" y2="-50.44" x2="17.333"/>
  <line y1="-50.44" x1="4.583" style="fill:none;stroke:#000000;stroke-width:0.3;" y2="-50.453" x2="4.591"/>
  <line y1="-50.453" x1="4.591" style="fill:none;stroke:#000000;stroke-width:0.3;" y2="-54.203" x2="6.876"/>
  <line y1="-0.828" x1="47.879" style="fill:none;stroke:#000000;stroke-width:0.3;" y2="-0.078" x2="47.427"/>
  <line y1="-0.828" x1="33.504" style="fill:none;stroke:#000000;stroke-width:0.3;" y2="-0.078" x2="33.052"/>
  <line y1="-0.828" x1="20.067" style="fill:none;stroke:#000000;stroke-width:0.3;" y2="-0.078" x2="19.615"/>
  <line y1="-0.828" x1="7.317" style="fill:none;stroke:#000000;stroke-width:0.3;" y2="-0.078" x2="6.865"/>
 </g>
</svg>
