<?xml version="1.0"?>
<!-- Converted with SVG Converter - Version 0.9.5 (Compiled Fri Feb 21 09:53:38 2020) - Copyright (C) 2011 Nokia -->
<svg xmlns="http://www.w3.org/2000/svg" y="0px" viewBox="0.004 -54.203 54.125 54.125" baseProfile="tiny" x="0px" height="54.125" version="1.1" xml:space="preserve" width="54.125" xmlns:xlink="http://www.w3.org/1999/xlink">
 <g>
  <rect y="-54.203" x="0.004" style="fill:none;" height="54.125" width="54.125"/>
  <path style="fill:none;stroke:#000000;stroke-width:0.3;" d="M0.004-43.417c0.075,0.002,0.151,0.004,0.228,0.004    c1.316,0,2.384-0.356,2.384-0.794c0-0.439-1.067-0.795-2.384-0.795c-0.077,0-0.153,0.001-0.228,0.004"/>
  <ellipse cx="19.576" cy="-48.353" style="fill:none;stroke:#000000;stroke-width:0.3;" rx="2.383" ry="0.794"/>
  <ellipse cx="39.313" cy="-52.636" style="fill:none;stroke:#000000;stroke-width:0.3;" rx="2.384" ry="0.795"/>
  <ellipse cx="18.937" cy="-40.083" style="fill:none;stroke:#000000;stroke-width:0.3;" rx="2.384" ry="0.795"/>
  <ellipse cx="38.755" cy="-36.433" style="fill:none;stroke:#000000;stroke-width:0.3;" rx="2.383" ry="0.794"/>
  <ellipse cx="5.255" cy="-33.095" style="fill:none;stroke:#000000;stroke-width:0.3;" rx="2.383" ry="0.794"/>
  <ellipse cx="26.38" cy="-29.333" style="fill:none;stroke:#000000;stroke-width:0.3;" rx="2.383" ry="0.795"/>
  <ellipse cx="46.56" cy="-25.458" style="fill:none;stroke:#000000;stroke-width:0.3;" rx="2.384" ry="0.795"/>
  <ellipse cx="11.505" cy="-21.333" style="fill:none;stroke:#000000;stroke-width:0.3;" rx="2.383" ry="0.795"/>
  <ellipse cx="34.141" cy="-17.72" style="fill:none;stroke:#000000;stroke-width:0.3;" rx="2.383" ry="0.794"/>
  <ellipse cx="18.733" cy="-10.583" style="fill:none;stroke:#000000;stroke-width:0.3;" rx="2.384" ry="0.795"/>
  <path style="fill:none;stroke:#000000;stroke-width:0.3;" d="M0.004-13.479c0.085,0.003,0.171,0.005,0.259,0.005    c1.316,0,2.384-0.356,2.384-0.794c0-0.439-1.067-0.795-2.384-0.795c-0.088,0-0.174,0.001-0.259,0.005"/>
  <ellipse cx="38.38" cy="-6.458" style="fill:none;stroke:#000000;stroke-width:0.3;" rx="2.383" ry="0.795"/>
  <ellipse cx="17.107" cy="-2.569" style="fill:none;stroke:#000000;stroke-width:0.3;" rx="2.384" ry="0.795"/>
  <path style="fill:none;stroke:#000000;stroke-width:0.3;" d="M54.129-44.999c-1.209,0.038-2.155,0.378-2.155,0.791    c0,0.413,0.946,0.752,2.155,0.791"/>
  <path style="fill:none;stroke:#000000;stroke-width:0.3;" d="M54.129-15.059c-1.194,0.043-2.125,0.38-2.125,0.79    c0,0.409,0.931,0.747,2.125,0.79"/>
  <line style="fill:none;stroke:#000000;stroke-width:0.3;" x1="30.779" y2="-50.453" y1="-50.453" x2="28.354"/>
  <line style="fill:none;stroke:#000000;stroke-width:0.3;" x1="17.341" y2="-50.453" y1="-50.453" x2="4.591"/>
  <line style="fill:none;stroke:#000000;stroke-width:0.3;" x1="42.021" y2="-50.453" y1="-50.453" x2="45.154"/>
  <line style="fill:none;stroke:#000000;stroke-width:0.3;" x1="4.591" y2="-50.453" y1="-50.453" x2="0.004"/>
  <line style="fill:none;stroke:#000000;stroke-width:0.3;" x1="54.129" y2="-50.453" y1="-50.453" x2="45.154"/>
  <line style="fill:none;stroke:#000000;stroke-width:0.3;" x1="17.341" y2="-50.453" y1="-50.453" x2="28.354"/>
  <line style="fill:none;stroke:#000000;stroke-width:0.3;" x1="42.021" y2="-50.453" y1="-50.453" x2="30.779"/>
  <line style="fill:none;stroke:#000000;stroke-width:0.3;" x1="34.787" y2="-46.278" y1="-46.278" x2="7.974"/>
  <line style="fill:none;stroke:#000000;stroke-width:0.3;" x1="54.129" y2="-46.278" y1="-46.278" x2="34.787"/>
  <line style="fill:none;stroke:#000000;stroke-width:0.3;" x1="7.974" y2="-46.278" y1="-46.278" x2="0.004"/>
  <line style="fill:none;stroke:#000000;stroke-width:0.3;" x1="12.724" y2="-42.09" y1="-42.09" x2="0.004"/>
  <line style="fill:none;stroke:#000000;stroke-width:0.3;" x1="27.537" y2="-42.09" y1="-42.09" x2="40.974"/>
  <line style="fill:none;stroke:#000000;stroke-width:0.3;" x1="12.724" y2="-42.09" y1="-42.09" x2="27.537"/>
  <line style="fill:none;stroke:#000000;stroke-width:0.3;" x1="53.787" y2="-42.09" y1="-42.09" x2="54.129"/>
  <line style="fill:none;stroke:#000000;stroke-width:0.3;" x1="53.787" y2="-42.09" y1="-42.09" x2="40.974"/>
  <line style="fill:none;stroke:#000000;stroke-width:0.3;" x1="54.129" y2="-12.477" y1="-12.477" x2="54.192"/>
  <line style="fill:none;stroke:#000000;stroke-width:0.3;" x1="41.106" y2="-12.477" y1="-12.477" x2="27.106"/>
  <line style="fill:none;stroke:#000000;stroke-width:0.3;" x1="41.106" y2="-12.477" y1="-12.477" x2="53.687"/>
  <line style="fill:none;stroke:#000000;stroke-width:0.3;" x1="53.687" y2="-12.477" y1="-12.477" x2="54.129"/>
  <line style="fill:none;stroke:#000000;stroke-width:0.3;" x1="12.606" y2="-12.477" y1="-12.477" x2="0.004"/>
  <line style="fill:none;stroke:#000000;stroke-width:0.3;" x1="12.606" y2="-12.477" y1="-12.477" x2="27.106"/>
  <line style="fill:none;stroke:#000000;stroke-width:0.3;" x1="38.792" y2="-8.703" y1="-8.703" x2="47.067"/>
  <line style="fill:none;stroke:#000000;stroke-width:0.3;" x1="24.792" y2="-8.703" y1="-8.703" x2="32.467"/>
  <line style="fill:none;stroke:#000000;stroke-width:0.3;" x1="51.233" y2="-8.703" y1="-8.703" x2="47.067"/>
  <line style="fill:none;stroke:#000000;stroke-width:0.3;" x1="18.467" y2="-8.703" y1="-8.703" x2="10.292"/>
  <line style="fill:none;stroke:#000000;stroke-width:0.3;" x1="5.467" y2="-8.703" y1="-8.703" x2="0.004"/>
  <line style="fill:none;stroke:#000000;stroke-width:0.3;" x1="10.292" y2="-8.703" y1="-8.703" x2="5.467"/>
  <line style="fill:none;stroke:#000000;stroke-width:0.3;" x1="38.792" y2="-8.703" y1="-8.703" x2="32.467"/>
  <line style="fill:none;stroke:#000000;stroke-width:0.3;" x1="24.792" y2="-8.703" y1="-8.703" x2="18.467"/>
  <line style="fill:none;stroke:#000000;stroke-width:0.3;" x1="51.233" y2="-8.703" y1="-8.703" x2="54.129"/>
  <line style="fill:none;stroke:#000000;stroke-width:0.3;" x1="32.625" y2="-38.071" y1="-38.071" x2="19.313"/>
  <line style="fill:none;stroke:#000000;stroke-width:0.3;" x1="47.25" y2="-38.071" y1="-38.071" x2="32.625"/>
  <line style="fill:none;stroke:#000000;stroke-width:0.3;" x1="47.25" y2="-38.071" y1="-38.071" x2="54.129"/>
  <line style="fill:none;stroke:#000000;stroke-width:0.3;" x1="6.626" y2="-38.071" y1="-38.071" x2="0.004"/>
  <line style="fill:none;stroke:#000000;stroke-width:0.3;" x1="19.313" y2="-38.071" y1="-38.071" x2="6.626"/>
  <line style="fill:none;stroke:#000000;stroke-width:0.3;" x1="13.045" y2="-34.79" y1="-34.79" x2="0.004"/>
  <line style="fill:none;stroke:#000000;stroke-width:0.3;" x1="41.858" y2="-34.79" y1="-34.79" x2="53.917"/>
  <line style="fill:none;stroke:#000000;stroke-width:0.3;" x1="28.045" y2="-34.79" y1="-34.79" x2="41.858"/>
  <line style="fill:none;stroke:#000000;stroke-width:0.3;" x1="28.045" y2="-34.79" y1="-34.79" x2="13.045"/>
  <line style="fill:none;stroke:#000000;stroke-width:0.3;" x1="53.917" y2="-34.79" y1="-34.79" x2="54.129"/>
  <line style="fill:none;stroke:#000000;stroke-width:0.3;" x1="7.49" y2="-31.365" y1="-31.365" x2="0.004"/>
  <line style="fill:none;stroke:#000000;stroke-width:0.3;" x1="51.716" y2="-31.365" y1="-31.365" x2="49.552"/>
  <line style="fill:none;stroke:#000000;stroke-width:0.3;" x1="7.49" y2="-31.365" y1="-31.365" x2="20.927"/>
  <line style="fill:none;stroke:#000000;stroke-width:0.3;" x1="49.552" y2="-31.365" y1="-31.365" x2="34.615"/>
  <line style="fill:none;stroke:#000000;stroke-width:0.3;" x1="20.927" y2="-31.365" y1="-31.365" x2="34.615"/>
  <line style="fill:none;stroke:#000000;stroke-width:0.3;" x1="51.716" y2="-31.365" y1="-31.365" x2="54.129"/>
  <line style="fill:none;stroke:#000000;stroke-width:0.3;" x1="54.059" y2="-27.315" y1="-27.315" x2="54.129"/>
  <line style="fill:none;stroke:#000000;stroke-width:0.3;" x1="40.872" y2="-27.315" y1="-27.315" x2="54.059"/>
  <line style="fill:none;stroke:#000000;stroke-width:0.3;" x1="12.497" y2="-27.315" y1="-27.315" x2="0.004"/>
  <line style="fill:none;stroke:#000000;stroke-width:0.3;" x1="40.872" y2="-27.315" y1="-27.315" x2="27.497"/>
  <line style="fill:none;stroke:#000000;stroke-width:0.3;" x1="27.497" y2="-27.315" y1="-27.315" x2="12.497"/>
  <line style="fill:none;stroke:#000000;stroke-width:0.3;" x1="0.004" y2="-23.515" y1="-23.515" x2="54.129"/>
  <line style="fill:none;stroke:#000000;stroke-width:0.3;" x1="0.004" y2="-19.315" y1="-19.315" x2="54.129"/>
  <line style="fill:none;stroke:#000000;stroke-width:0.3;" x1="54.192" y2="-19.315" y1="-19.315" x2="54.129"/>
  <line style="fill:none;stroke:#000000;stroke-width:0.3;" x1="51.825" y2="-16.09" y1="-16.09" x2="54.129"/>
  <line style="fill:none;stroke:#000000;stroke-width:0.3;" x1="51.825" y2="-16.09" y1="-16.09" x2="0.004"/>
  <line style="fill:none;stroke:#000000;stroke-width:0.3;" x1="23.333" y2="-0.915" y1="-0.915" x2="37.02"/>
  <line style="fill:none;stroke:#000000;stroke-width:0.3;" x1="37.02" y2="-0.915" y1="-0.915" x2="50.395"/>
  <line style="fill:none;stroke:#000000;stroke-width:0.3;" x1="50.395" y2="-0.915" y1="-0.915" x2="54.129"/>
  <line style="fill:none;stroke:#000000;stroke-width:0.3;" x1="0.004" y2="-0.915" y1="-0.915" x2="9.02"/>
  <line style="fill:none;stroke:#000000;stroke-width:0.3;" x1="9.02" y2="-0.915" y1="-0.915" x2="23.333"/>
  <line style="fill:none;stroke:#000000;stroke-width:0.3;" x1="0.004" y2="-4.29" y1="-4.29" x2="54.129"/>
  <line style="fill:none;stroke:#000000;stroke-width:0.3;" x1="5.467" y2="-4.315" y1="-8.703" x2="2.875"/>
  <line style="fill:none;stroke:#000000;stroke-width:0.3;" x1="5.504" y2="-8.703" y1="-8.765" x2="5.467"/>
  <line style="fill:none;stroke:#000000;stroke-width:0.3;" x1="18.504" y2="-8.703" y1="-8.765" x2="18.467"/>
  <line style="fill:none;stroke:#000000;stroke-width:0.3;" x1="18.467" y2="-4.315" y1="-8.703" x2="15.875"/>
  <line style="fill:none;stroke:#000000;stroke-width:0.3;" x1="29.875" y2="-8.703" y1="-4.315" x2="32.467"/>
  <line style="fill:none;stroke:#000000;stroke-width:0.3;" x1="32.504" y2="-8.703" y1="-8.765" x2="32.467"/>
  <line style="fill:none;stroke:#000000;stroke-width:0.3;" x1="47.067" y2="-4.315" y1="-8.703" x2="44.438"/>
  <line style="fill:none;stroke:#000000;stroke-width:0.3;" x1="50.395" y2="-0.89" y1="-0.915" x2="50.379"/>
  <line style="fill:none;stroke:#000000;stroke-width:0.3;" x1="50.395" y2="-4.265" y1="-0.915" x2="52.442"/>
  <line style="fill:none;stroke:#000000;stroke-width:0.3;" x1="37.02" y2="-4.265" y1="-0.915" x2="39.067"/>
  <line style="fill:none;stroke:#000000;stroke-width:0.3;" x1="37.02" y2="-0.89" y1="-0.915" x2="37.004"/>
  <line style="fill:none;stroke:#000000;stroke-width:0.3;" x1="23.333" y2="-4.265" y1="-0.915" x2="25.379"/>
  <line style="fill:none;stroke:#000000;stroke-width:0.3;" x1="23.333" y2="-0.89" y1="-0.915" x2="23.317"/>
  <line style="fill:none;stroke:#000000;stroke-width:0.3;" x1="9.02" y2="-0.89" y1="-0.915" x2="9.004"/>
  <line style="fill:none;stroke:#000000;stroke-width:0.3;" x1="9.02" y2="-4.265" y1="-0.915" x2="11.067"/>
  <line style="fill:none;stroke:#000000;stroke-width:0.3;" x1="51.233" y2="-12.477" y1="-8.703" x2="53.687"/>
  <line style="fill:none;stroke:#000000;stroke-width:0.3;" x1="51.233" y2="-8.64" y1="-8.703" x2="51.192"/>
  <line style="fill:none;stroke:#000000;stroke-width:0.3;" x1="53.687" y2="-12.498" y1="-12.477" x2="53.701"/>
  <line style="fill:none;stroke:#000000;stroke-width:0.3;" x1="47.317" y2="-16.078" y1="-12.515" x2="49.442"/>
  <line style="fill:none;stroke:#000000;stroke-width:0.3;" x1="47.379" y2="-19.39" y1="-23.453" x2="44.817"/>
  <line style="fill:none;stroke:#000000;stroke-width:0.3;" x1="51.825" y2="-19.29" y1="-16.09" x2="53.868"/>
  <line style="fill:none;stroke:#000000;stroke-width:0.3;" x1="51.825" y2="-16.078" y1="-16.09" x2="51.817"/>
  <line style="fill:none;stroke:#000000;stroke-width:0.3;" x1="51.817" y2="-27.315" y1="-23.578" x2="54.059"/>
  <line style="fill:none;stroke:#000000;stroke-width:0.3;" x1="54.067" y2="-27.315" y1="-27.328" x2="54.059"/>
  <line style="fill:none;stroke:#000000;stroke-width:0.3;" x1="49.552" y2="-27.328" y1="-31.365" x2="47.129"/>
  <line style="fill:none;stroke:#000000;stroke-width:0.3;" x1="49.567" y2="-31.365" y1="-31.39" x2="49.552"/>
  <line style="fill:none;stroke:#000000;stroke-width:0.3;" x1="51.716" y2="-34.79" y1="-31.365" x2="53.917"/>
  <line style="fill:none;stroke:#000000;stroke-width:0.3;" x1="51.716" y2="-31.328" y1="-31.365" x2="51.692"/>
  <line style="fill:none;stroke:#000000;stroke-width:0.3;" x1="53.93" y2="-34.79" y1="-34.811" x2="53.917"/>
  <line style="fill:none;stroke:#000000;stroke-width:0.3;" x1="47.25" y2="-38.078" y1="-38.071" x2="47.254"/>
  <line style="fill:none;stroke:#000000;stroke-width:0.3;" x1="47.25" y2="-34.828" y1="-38.071" x2="45.254"/>
  <line style="fill:none;stroke:#000000;stroke-width:0.3;" x1="53.787" y2="-42.14" y1="-42.09" x2="53.817"/>
  <line style="fill:none;stroke:#000000;stroke-width:0.3;" x1="53.787" y2="-38.078" y1="-42.09" x2="51.364"/>
  <line style="fill:none;stroke:#000000;stroke-width:0.3;" x1="46.192" y2="-46.249" y1="-42.14" x2="48.846"/>
  <line style="fill:none;stroke:#000000;stroke-width:0.3;" x1="53.909" y2="-46.328" y1="-50.436" x2="51.296"/>
  <line style="fill:none;stroke:#000000;stroke-width:0.3;" x1="45.154" y2="-50.44" y1="-50.453" x2="45.146"/>
  <line style="fill:none;stroke:#000000;stroke-width:0.3;" x1="45.154" y2="-54.203" y1="-50.453" x2="47.438"/>
  <line style="fill:none;stroke:#000000;stroke-width:0.3;" x1="38.792" y2="-8.64" y1="-8.703" x2="38.754"/>
  <line style="fill:none;stroke:#000000;stroke-width:0.3;" x1="41.106" y2="-12.515" y1="-12.477" x2="41.129"/>
  <line style="fill:none;stroke:#000000;stroke-width:0.3;" x1="41.106" y2="-8.703" y1="-12.477" x2="38.792"/>
  <line style="fill:none;stroke:#000000;stroke-width:0.3;" x1="27.129" y2="-12.477" y1="-12.515" x2="27.106"/>
  <line style="fill:none;stroke:#000000;stroke-width:0.3;" x1="24.792" y2="-8.64" y1="-8.703" x2="24.754"/>
  <line style="fill:none;stroke:#000000;stroke-width:0.3;" x1="27.106" y2="-8.703" y1="-12.477" x2="24.792"/>
  <line style="fill:none;stroke:#000000;stroke-width:0.3;" x1="12.606" y2="-8.703" y1="-12.477" x2="10.292"/>
  <line style="fill:none;stroke:#000000;stroke-width:0.3;" x1="10.292" y2="-8.64" y1="-8.703" x2="10.254"/>
  <line style="fill:none;stroke:#000000;stroke-width:0.3;" x1="12.606" y2="-12.515" y1="-12.477" x2="12.629"/>
  <line style="fill:none;stroke:#000000;stroke-width:0.3;" x1="32.442" y2="-16.078" y1="-12.515" x2="34.567"/>
  <line style="fill:none;stroke:#000000;stroke-width:0.3;" x1="18.754" y2="-16.078" y1="-12.515" x2="20.879"/>
  <line style="fill:none;stroke:#000000;stroke-width:0.3;" x1="5.504" y2="-16.078" y1="-12.515" x2="7.629"/>
  <line style="fill:none;stroke:#000000;stroke-width:0.3;" x1="40.004" y2="-19.265" y1="-16.14" x2="41.942"/>
  <line style="fill:none;stroke:#000000;stroke-width:0.3;" x1="25.754" y2="-19.265" y1="-16.14" x2="27.692"/>
  <line style="fill:none;stroke:#000000;stroke-width:0.3;" x1="10.692" y2="-19.265" y1="-16.14" x2="12.629"/>
  <line style="fill:none;stroke:#000000;stroke-width:0.3;" x1="33.067" y2="-19.39" y1="-23.453" x2="30.504"/>
  <line style="fill:none;stroke:#000000;stroke-width:0.3;" x1="19.442" y2="-19.39" y1="-23.453" x2="16.879"/>
  <line style="fill:none;stroke:#000000;stroke-width:0.3;" x1="6.442" y2="-19.39" y1="-23.453" x2="3.879"/>
  <line style="fill:none;stroke:#000000;stroke-width:0.3;" x1="40.872" y2="-27.328" y1="-27.315" x2="40.879"/>
  <line style="fill:none;stroke:#000000;stroke-width:0.3;" x1="40.872" y2="-23.578" y1="-27.315" x2="38.629"/>
  <line style="fill:none;stroke:#000000;stroke-width:0.3;" x1="27.504" y2="-27.315" y1="-27.328" x2="27.497"/>
  <line style="fill:none;stroke:#000000;stroke-width:0.3;" x1="27.497" y2="-23.578" y1="-27.315" x2="25.254"/>
  <line style="fill:none;stroke:#000000;stroke-width:0.3;" x1="12.504" y2="-27.315" y1="-27.328" x2="12.497"/>
  <line style="fill:none;stroke:#000000;stroke-width:0.3;" x1="12.497" y2="-23.578" y1="-27.315" x2="10.254"/>
  <line style="fill:none;stroke:#000000;stroke-width:0.3;" x1="34.629" y2="-31.365" y1="-31.39" x2="34.615"/>
  <line style="fill:none;stroke:#000000;stroke-width:0.3;" x1="32.192" y2="-31.365" y1="-27.328" x2="34.615"/>
  <line style="fill:none;stroke:#000000;stroke-width:0.3;" x1="20.927" y2="-27.328" y1="-31.365" x2="18.504"/>
  <line style="fill:none;stroke:#000000;stroke-width:0.3;" x1="20.927" y2="-31.39" y1="-31.365" x2="20.942"/>
  <line style="fill:none;stroke:#000000;stroke-width:0.3;" x1="7.49" y2="-27.328" y1="-31.365" x2="5.067"/>
  <line style="fill:none;stroke:#000000;stroke-width:0.3;" x1="7.49" y2="-31.39" y1="-31.365" x2="7.504"/>
  <line style="fill:none;stroke:#000000;stroke-width:0.3;" x1="41.858" y2="-34.828" y1="-34.79" x2="41.879"/>
  <line style="fill:none;stroke:#000000;stroke-width:0.3;" x1="41.858" y2="-31.39" y1="-34.79" x2="39.879"/>
  <line style="fill:none;stroke:#000000;stroke-width:0.3;" x1="28.045" y2="-34.828" y1="-34.79" x2="28.067"/>
  <line style="fill:none;stroke:#000000;stroke-width:0.3;" x1="28.045" y2="-31.39" y1="-34.79" x2="26.067"/>
  <line style="fill:none;stroke:#000000;stroke-width:0.3;" x1="13.045" y2="-34.828" y1="-34.79" x2="13.067"/>
  <line style="fill:none;stroke:#000000;stroke-width:0.3;" x1="13.045" y2="-31.39" y1="-34.79" x2="11.067"/>
  <line style="fill:none;stroke:#000000;stroke-width:0.3;" x1="32.625" y2="-34.828" y1="-38.071" x2="30.629"/>
  <line style="fill:none;stroke:#000000;stroke-width:0.3;" x1="32.625" y2="-38.078" y1="-38.071" x2="32.629"/>
  <line style="fill:none;stroke:#000000;stroke-width:0.3;" x1="19.313" y2="-34.828" y1="-38.071" x2="17.317"/>
  <line style="fill:none;stroke:#000000;stroke-width:0.3;" x1="19.313" y2="-38.078" y1="-38.071" x2="19.317"/>
  <line style="fill:none;stroke:#000000;stroke-width:0.3;" x1="6.626" y2="-38.078" y1="-38.071" x2="6.629"/>
  <line style="fill:none;stroke:#000000;stroke-width:0.3;" x1="6.626" y2="-34.828" y1="-38.071" x2="4.629"/>
  <line style="fill:none;stroke:#000000;stroke-width:0.3;" x1="40.974" y2="-42.14" y1="-42.09" x2="41.004"/>
  <line style="fill:none;stroke:#000000;stroke-width:0.3;" x1="38.567" y2="-42.09" y1="-38.078" x2="40.974"/>
  <line style="fill:none;stroke:#000000;stroke-width:0.3;" x1="27.537" y2="-42.14" y1="-42.09" x2="27.567"/>
  <line style="fill:none;stroke:#000000;stroke-width:0.3;" x1="25.129" y2="-42.09" y1="-38.078" x2="27.537"/>
  <line style="fill:none;stroke:#000000;stroke-width:0.3;" x1="12.724" y2="-42.14" y1="-42.09" x2="12.754"/>
  <line style="fill:none;stroke:#000000;stroke-width:0.3;" x1="12.724" y2="-38.078" y1="-42.09" x2="10.317"/>
  <line style="fill:none;stroke:#000000;stroke-width:0.3;" x1="34.787" y2="-42.14" y1="-46.278" x2="32.254"/>
  <line style="fill:none;stroke:#000000;stroke-width:0.3;" x1="34.787" y2="-46.328" y1="-46.278" x2="34.817"/>
  <line style="fill:none;stroke:#000000;stroke-width:0.3;" x1="18.629" y2="-46.265" y1="-42.14" x2="21.129"/>
  <line style="fill:none;stroke:#000000;stroke-width:0.3;" x1="7.974" y2="-46.328" y1="-46.278" x2="8.004"/>
  <line style="fill:none;stroke:#000000;stroke-width:0.3;" x1="7.974" y2="-42.14" y1="-46.278" x2="5.442"/>
  <line style="fill:none;stroke:#000000;stroke-width:0.3;" x1="42.021" y2="-46.328" y1="-50.453" x2="39.504"/>
  <line style="fill:none;stroke:#000000;stroke-width:0.3;" x1="42.021" y2="-50.495" y1="-50.453" x2="42.046"/>
  <line style="fill:none;stroke:#000000;stroke-width:0.3;" x1="25.817" y2="-50.453" y1="-46.328" x2="28.354"/>
  <line style="fill:none;stroke:#000000;stroke-width:0.3;" x1="28.379" y2="-50.453" y1="-50.495" x2="28.354"/>
  <line style="fill:none;stroke:#000000;stroke-width:0.3;" x1="13.463" y2="-46.328" y1="-50.411" x2="10.942"/>
  <line style="fill:none;stroke:#000000;stroke-width:0.3;" x1="30.779" y2="-54.203" y1="-50.453" x2="33.063"/>
  <line style="fill:none;stroke:#000000;stroke-width:0.3;" x1="30.771" y2="-50.453" y1="-50.44" x2="30.779"/>
  <line style="fill:none;stroke:#000000;stroke-width:0.3;" x1="17.341" y2="-54.203" y1="-50.453" x2="19.625"/>
  <line style="fill:none;stroke:#000000;stroke-width:0.3;" x1="17.341" y2="-50.44" y1="-50.453" x2="17.333"/>
  <line style="fill:none;stroke:#000000;stroke-width:0.3;" x1="4.583" y2="-50.453" y1="-50.44" x2="4.591"/>
  <line style="fill:none;stroke:#000000;stroke-width:0.3;" x1="4.591" y2="-54.203" y1="-50.453" x2="6.876"/>
  <line style="fill:none;stroke:#000000;stroke-width:0.3;" x1="47.879" y2="-0.078" y1="-0.828" x2="47.427"/>
  <line style="fill:none;stroke:#000000;stroke-width:0.3;" x1="33.504" y2="-0.078" y1="-0.828" x2="33.052"/>
  <line style="fill:none;stroke:#000000;stroke-width:0.3;" x1="20.067" y2="-0.078" y1="-0.828" x2="19.615"/>
  <line style="fill:none;stroke:#000000;stroke-width:0.3;" x1="7.317" y2="-0.078" y1="-0.828" x2="6.865"/>
 </g>
</svg>
