<?xml version="1.0"?>
<!-- Converted with SVG Converter - Version 0.9.6 (Compiled Thu Aug 31 10:01:05 2017) - Copyright (C) 2011 Nokia -->
<svg xmlns="http://www.w3.org/2000/svg" baseProfile="tiny" height="46.75" viewBox="0 -46.75 46.75 46.75" x="0px" xml:space="preserve" xmlns:xlink="http://www.w3.org/1999/xlink" width="46.75" version="1.1" y="0px">
 <g>
  <rect height="46.75" style="fill:none;" width="46.75" y="-46.75"/>
  <line x2="45.638" y2="-45.444" style="fill:none;stroke:#000000;stroke-width:0.3;" y1="-45.444" x1="37.819"/>
  <line x2="25.888" y2="-45.444" style="fill:none;stroke:#000000;stroke-width:0.3;" y1="-45.444" x1="18.069"/>
  <line x2="9.25" y2="-45.444" style="fill:none;stroke:#000000;stroke-width:0.3;" y1="-45.444" x1="2.369"/>
  <line x2="43.388" y2="-33.819" style="fill:none;stroke:#000000;stroke-width:0.3;" y1="-33.819" x1="36.494"/>
  <line x2="16.738" y2="-33.819" style="fill:none;stroke:#000000;stroke-width:0.3;" y1="-33.819" x1="23.638"/>
  <line x2="0.706" y2="-33.819" style="fill:none;stroke:#000000;stroke-width:0.3;" y1="-33.819" x1="7.761"/>
  <line x2="45.941" y2="-19.167" style="fill:none;stroke:#000000;stroke-width:0.3;" y1="-19.167" x1="38.838"/>
  <line x2="19.124" y2="-19.167" style="fill:none;stroke:#000000;stroke-width:0.3;" y1="-19.167" x1="26.27"/>
  <line x2="4.713" y2="-19.167" style="fill:none;stroke:#000000;stroke-width:0.3;" y1="-19.167" x1="10.304"/>
  <line x2="40.086" y2="-4.855" style="fill:none;stroke:#000000;stroke-width:0.3;" y1="-4.855" x1="33.249"/>
  <line x2="7.761" y2="-4.855" style="fill:none;stroke:#000000;stroke-width:0.3;" y1="-4.855" x1="14.544"/>
  <line x2="17" y2="-42.479" style="fill:none;stroke:#000000;stroke-width:0.3;" y1="-42.479" x1="10.104"/>
  <line x2="31.65" y2="-42.479" style="fill:none;stroke:#000000;stroke-width:0.3;" y1="-42.479" x1="24.474"/>
  <line x2="32.898" y2="-39.551" style="fill:none;stroke:#000000;stroke-width:0.3;" y1="-39.551" x1="38.494"/>
  <line x2="1.692" y2="-39.614" style="fill:none;stroke:#000000;stroke-width:0.3;" y1="-39.614" x1="7.987"/>
  <line x2="17.286" y2="-36.614" style="fill:none;stroke:#000000;stroke-width:0.3;" y1="-36.614" x1="11.561"/>
  <line x2="46.75" y2="-36.614" style="fill:none;stroke:#000000;stroke-width:0.3;" y1="-36.614" x1="42.429"/>
  <line x2="31.65" y2="-30.864" style="fill:none;stroke:#000000;stroke-width:0.3;" y1="-30.864" x1="26.199"/>
  <line x2="4.324" y2="-30.864" style="fill:none;stroke:#000000;stroke-width:0.3;" y1="-30.864" x1="10.619"/>
  <line x2="23.448" y2="-27.981" style="fill:none;stroke:#000000;stroke-width:0.3;" y1="-27.981" x1="16.738"/>
  <line x2="0" y2="-27.981" style="fill:none;stroke:#000000;stroke-width:0.3;" y1="-27.981" x1="3.948"/>
  <line x2="32.898" y2="-27.981" style="fill:none;stroke:#000000;stroke-width:0.3;" y1="-27.981" x1="38.456"/>
  <line x2="28.059" y2="-24.981" style="fill:none;stroke:#000000;stroke-width:0.3;" y1="-24.981" x1="33.698"/>
  <line x2="4.029" y2="-24.981" style="fill:none;stroke:#000000;stroke-width:0.3;" y1="-24.981" x1="10.323"/>
  <line x2="12.779" y2="-22.231" style="fill:none;stroke:#000000;stroke-width:0.3;" y1="-22.231" x1="20.33"/>
  <line x2="34.694" y2="-22.231" style="fill:none;stroke:#000000;stroke-width:0.3;" y1="-22.231" x1="40.323"/>
  <line x2="32.898" y2="-16.231" style="fill:none;stroke:#000000;stroke-width:0.3;" y1="-16.231" x1="27.529"/>
  <line x2="9.029" y2="-16.231" style="fill:none;stroke:#000000;stroke-width:0.3;" y1="-16.231" x1="15.323"/>
  <line x2="0" y2="-13.481" style="fill:none;stroke:#000000;stroke-width:0.3;" y1="-13.481" x1="2.82"/>
  <line x2="13.695" y2="-13.481" style="fill:none;stroke:#000000;stroke-width:0.3;" y1="-13.481" x1="19.235"/>
  <line x2="37.235" y2="-13.481" style="fill:none;stroke:#000000;stroke-width:0.3;" y1="-13.481" x1="31.65"/>
  <line x2="27.86" y2="-10.481" style="fill:none;stroke:#000000;stroke-width:0.3;" y1="-10.481" x1="20.33"/>
  <line x2="42.11" y2="-10.481" style="fill:none;stroke:#000000;stroke-width:0.3;" y1="-10.481" x1="36.494"/>
  <line x2="20.883" y2="-7.565" style="fill:none;stroke:#000000;stroke-width:0.3;" y1="-7.565" x1="15.354"/>
  <line x2="1.024" y2="-7.565" style="fill:none;stroke:#000000;stroke-width:0.3;" y1="-7.565" x1="0"/>
  <line x2="28.059" y2="-7.565" style="fill:none;stroke:#000000;stroke-width:0.3;" y1="-7.565" x1="33.649"/>
  <line x2="28.059" y2="-1.815" style="fill:none;stroke:#000000;stroke-width:0.3;" y1="-1.815" x1="33.446"/>
  <line x2="11.9" y2="-1.815" style="fill:none;stroke:#000000;stroke-width:0.3;" y1="-1.815" x1="17.286"/>
  <line x2="5.96" y2="-10.356" style="fill:none;stroke:#000000;stroke-width:0.3;" y1="-10.356" x1="11.485"/>
  <line x2="46.75" y2="-27.981" style="fill:none;stroke:#000000;stroke-width:0.3;" y1="-27.981" x1="45.323"/>
  <line x2="46.75" y2="-13.481" style="fill:none;stroke:#000000;stroke-width:0.3;" y1="-13.481" x1="43.4"/>
  <line x2="46.75" y2="-7.565" style="fill:none;stroke:#000000;stroke-width:0.3;" y1="-7.565" x1="42.172"/>
  <line x2="1.122" y2="-42.499" style="fill:none;stroke:#000000;stroke-width:0.7;stroke-linecap:round;" y1="-42.499" x1="1.122"/>
  <line x2="4.713" y2="-42.499" style="fill:none;stroke:#000000;stroke-width:0.7;stroke-linecap:round;" y1="-42.499" x1="4.713"/>
  <line x2="2.917" y2="-42.499" style="fill:none;stroke:#000000;stroke-width:0.7;stroke-linecap:round;" y1="-42.499" x1="2.917"/>
  <line x2="8.309" y2="-42.499" style="fill:none;stroke:#000000;stroke-width:0.7;stroke-linecap:round;" y1="-42.499" x1="8.309"/>
  <line x2="6.514" y2="-42.499" style="fill:none;stroke:#000000;stroke-width:0.7;stroke-linecap:round;" y1="-42.499" x1="6.514"/>
  <line x2="19.082" y2="-42.499" style="fill:none;stroke:#000000;stroke-width:0.7;stroke-linecap:round;" y1="-42.499" x1="19.082"/>
  <line x2="22.679" y2="-42.499" style="fill:none;stroke:#000000;stroke-width:0.7;stroke-linecap:round;" y1="-42.499" x1="22.679"/>
  <line x2="20.883" y2="-42.499" style="fill:none;stroke:#000000;stroke-width:0.7;stroke-linecap:round;" y1="-42.499" x1="20.883"/>
  <line x2="33.446" y2="-42.499" style="fill:none;stroke:#000000;stroke-width:0.7;stroke-linecap:round;" y1="-42.499" x1="33.446"/>
  <line x2="37.043" y2="-42.499" style="fill:none;stroke:#000000;stroke-width:0.7;stroke-linecap:round;" y1="-42.499" x1="37.043"/>
  <line x2="35.247" y2="-42.499" style="fill:none;stroke:#000000;stroke-width:0.7;stroke-linecap:round;" y1="-42.499" x1="35.247"/>
  <line x2="40.634" y2="-42.499" style="fill:none;stroke:#000000;stroke-width:0.7;stroke-linecap:round;" y1="-42.499" x1="40.634"/>
  <line x2="38.838" y2="-42.499" style="fill:none;stroke:#000000;stroke-width:0.7;stroke-linecap:round;" y1="-42.499" x1="38.838"/>
  <line x2="44.225" y2="-42.499" style="fill:none;stroke:#000000;stroke-width:0.7;stroke-linecap:round;" y1="-42.499" x1="44.225"/>
  <line x2="42.429" y2="-42.499" style="fill:none;stroke:#000000;stroke-width:0.7;stroke-linecap:round;" y1="-42.499" x1="42.429"/>
  <line x2="46.021" y2="-42.499" style="fill:none;stroke:#000000;stroke-width:0.7;stroke-linecap:round;" y1="-42.499" x1="46.021"/>
  <line x2="1.122" y2="-36.624" style="fill:none;stroke:#000000;stroke-width:0.7;stroke-linecap:round;" y1="-36.624" x1="1.122"/>
  <line x2="4.713" y2="-36.624" style="fill:none;stroke:#000000;stroke-width:0.7;stroke-linecap:round;" y1="-36.624" x1="4.713"/>
  <line x2="2.917" y2="-36.624" style="fill:none;stroke:#000000;stroke-width:0.7;stroke-linecap:round;" y1="-36.624" x1="2.917"/>
  <line x2="8.309" y2="-36.624" style="fill:none;stroke:#000000;stroke-width:0.7;stroke-linecap:round;" y1="-36.624" x1="8.309"/>
  <line x2="6.514" y2="-36.624" style="fill:none;stroke:#000000;stroke-width:0.7;stroke-linecap:round;" y1="-36.624" x1="6.514"/>
  <line x2="10.104" y2="-36.624" style="fill:none;stroke:#000000;stroke-width:0.7;stroke-linecap:round;" y1="-36.624" x1="10.104"/>
  <line x2="19.082" y2="-36.624" style="fill:none;stroke:#000000;stroke-width:0.7;stroke-linecap:round;" y1="-36.624" x1="19.082"/>
  <line x2="22.679" y2="-36.624" style="fill:none;stroke:#000000;stroke-width:0.7;stroke-linecap:round;" y1="-36.624" x1="22.679"/>
  <line x2="20.883" y2="-36.624" style="fill:none;stroke:#000000;stroke-width:0.7;stroke-linecap:round;" y1="-36.624" x1="20.883"/>
  <line x2="26.27" y2="-36.624" style="fill:none;stroke:#000000;stroke-width:0.7;stroke-linecap:round;" y1="-36.624" x1="26.27"/>
  <line x2="24.474" y2="-36.624" style="fill:none;stroke:#000000;stroke-width:0.7;stroke-linecap:round;" y1="-36.624" x1="24.474"/>
  <line x2="29.855" y2="-36.624" style="fill:none;stroke:#000000;stroke-width:0.7;stroke-linecap:round;" y1="-36.624" x1="29.855"/>
  <line x2="28.059" y2="-36.624" style="fill:none;stroke:#000000;stroke-width:0.7;stroke-linecap:round;" y1="-36.624" x1="28.059"/>
  <line x2="33.446" y2="-36.624" style="fill:none;stroke:#000000;stroke-width:0.7;stroke-linecap:round;" y1="-36.624" x1="33.446"/>
  <line x2="31.65" y2="-36.624" style="fill:none;stroke:#000000;stroke-width:0.7;stroke-linecap:round;" y1="-36.624" x1="31.65"/>
  <line x2="37.043" y2="-36.624" style="fill:none;stroke:#000000;stroke-width:0.7;stroke-linecap:round;" y1="-36.624" x1="37.043"/>
  <line x2="35.247" y2="-36.624" style="fill:none;stroke:#000000;stroke-width:0.7;stroke-linecap:round;" y1="-36.624" x1="35.247"/>
  <line x2="40.634" y2="-36.624" style="fill:none;stroke:#000000;stroke-width:0.7;stroke-linecap:round;" y1="-36.624" x1="40.634"/>
  <line x2="38.838" y2="-36.624" style="fill:none;stroke:#000000;stroke-width:0.7;stroke-linecap:round;" y1="-36.624" x1="38.838"/>
  <line x2="1.122" y2="-30.929" style="fill:none;stroke:#000000;stroke-width:0.7;stroke-linecap:round;" y1="-30.929" x1="1.122"/>
  <line x2="2.917" y2="-30.929" style="fill:none;stroke:#000000;stroke-width:0.7;stroke-linecap:round;" y1="-30.929" x1="2.917"/>
  <line x2="11.9" y2="-30.929" style="fill:none;stroke:#000000;stroke-width:0.7;stroke-linecap:round;" y1="-30.929" x1="11.9"/>
  <line x2="15.491" y2="-30.929" style="fill:none;stroke:#000000;stroke-width:0.7;stroke-linecap:round;" y1="-30.929" x1="15.491"/>
  <line x2="13.695" y2="-30.929" style="fill:none;stroke:#000000;stroke-width:0.7;stroke-linecap:round;" y1="-30.929" x1="13.695"/>
  <line x2="19.082" y2="-30.929" style="fill:none;stroke:#000000;stroke-width:0.7;stroke-linecap:round;" y1="-30.929" x1="19.082"/>
  <line x2="17.286" y2="-30.929" style="fill:none;stroke:#000000;stroke-width:0.7;stroke-linecap:round;" y1="-30.929" x1="17.286"/>
  <line x2="22.679" y2="-30.929" style="fill:none;stroke:#000000;stroke-width:0.7;stroke-linecap:round;" y1="-30.929" x1="22.679"/>
  <line x2="20.883" y2="-30.929" style="fill:none;stroke:#000000;stroke-width:0.7;stroke-linecap:round;" y1="-30.929" x1="20.883"/>
  <line x2="24.474" y2="-30.929" style="fill:none;stroke:#000000;stroke-width:0.7;stroke-linecap:round;" y1="-30.929" x1="24.474"/>
  <line x2="33.446" y2="-30.929" style="fill:none;stroke:#000000;stroke-width:0.7;stroke-linecap:round;" y1="-30.929" x1="33.446"/>
  <line x2="37.043" y2="-30.929" style="fill:none;stroke:#000000;stroke-width:0.7;stroke-linecap:round;" y1="-30.929" x1="37.043"/>
  <line x2="35.247" y2="-30.929" style="fill:none;stroke:#000000;stroke-width:0.7;stroke-linecap:round;" y1="-30.929" x1="35.247"/>
  <line x2="40.634" y2="-30.929" style="fill:none;stroke:#000000;stroke-width:0.7;stroke-linecap:round;" y1="-30.929" x1="40.634"/>
  <line x2="38.838" y2="-30.929" style="fill:none;stroke:#000000;stroke-width:0.7;stroke-linecap:round;" y1="-30.929" x1="38.838"/>
  <line x2="44.225" y2="-30.929" style="fill:none;stroke:#000000;stroke-width:0.7;stroke-linecap:round;" y1="-30.929" x1="44.225"/>
  <line x2="42.429" y2="-30.929" style="fill:none;stroke:#000000;stroke-width:0.7;stroke-linecap:round;" y1="-30.929" x1="42.429"/>
  <line x2="46.021" y2="-30.929" style="fill:none;stroke:#000000;stroke-width:0.7;stroke-linecap:round;" y1="-30.929" x1="46.021"/>
  <line x2="1.122" y2="-25.044" style="fill:none;stroke:#000000;stroke-width:0.7;stroke-linecap:round;" y1="-25.044" x1="1.122"/>
  <line x2="2.917" y2="-25.044" style="fill:none;stroke:#000000;stroke-width:0.7;stroke-linecap:round;" y1="-25.044" x1="2.917"/>
  <line x2="11.9" y2="-25.044" style="fill:none;stroke:#000000;stroke-width:0.7;stroke-linecap:round;" y1="-25.044" x1="11.9"/>
  <line x2="15.491" y2="-25.044" style="fill:none;stroke:#000000;stroke-width:0.7;stroke-linecap:round;" y1="-25.044" x1="15.491"/>
  <line x2="13.695" y2="-25.044" style="fill:none;stroke:#000000;stroke-width:0.7;stroke-linecap:round;" y1="-25.044" x1="13.695"/>
  <line x2="19.082" y2="-25.044" style="fill:none;stroke:#000000;stroke-width:0.7;stroke-linecap:round;" y1="-25.044" x1="19.082"/>
  <line x2="17.286" y2="-25.044" style="fill:none;stroke:#000000;stroke-width:0.7;stroke-linecap:round;" y1="-25.044" x1="17.286"/>
  <line x2="22.679" y2="-25.044" style="fill:none;stroke:#000000;stroke-width:0.7;stroke-linecap:round;" y1="-25.044" x1="22.679"/>
  <line x2="20.883" y2="-25.044" style="fill:none;stroke:#000000;stroke-width:0.7;stroke-linecap:round;" y1="-25.044" x1="20.883"/>
  <line x2="26.27" y2="-25.044" style="fill:none;stroke:#000000;stroke-width:0.7;stroke-linecap:round;" y1="-25.044" x1="26.27"/>
  <line x2="24.474" y2="-25.044" style="fill:none;stroke:#000000;stroke-width:0.7;stroke-linecap:round;" y1="-25.044" x1="24.474"/>
  <line x2="37.043" y2="-25.044" style="fill:none;stroke:#000000;stroke-width:0.7;stroke-linecap:round;" y1="-25.044" x1="37.043"/>
  <line x2="35.247" y2="-25.044" style="fill:none;stroke:#000000;stroke-width:0.7;stroke-linecap:round;" y1="-25.044" x1="35.247"/>
  <line x2="40.634" y2="-25.044" style="fill:none;stroke:#000000;stroke-width:0.7;stroke-linecap:round;" y1="-25.044" x1="40.634"/>
  <line x2="38.838" y2="-25.044" style="fill:none;stroke:#000000;stroke-width:0.7;stroke-linecap:round;" y1="-25.044" x1="38.838"/>
  <line x2="44.225" y2="-25.044" style="fill:none;stroke:#000000;stroke-width:0.7;stroke-linecap:round;" y1="-25.044" x1="44.225"/>
  <line x2="42.429" y2="-25.044" style="fill:none;stroke:#000000;stroke-width:0.7;stroke-linecap:round;" y1="-25.044" x1="42.429"/>
  <line x2="46.021" y2="-25.044" style="fill:none;stroke:#000000;stroke-width:0.7;stroke-linecap:round;" y1="-25.044" x1="46.021"/>
  <line x2="1.122" y2="-19.224" style="fill:none;stroke:#000000;stroke-width:0.7;stroke-linecap:round;" y1="-19.224" x1="1.122"/>
  <line x2="2.917" y2="-19.224" style="fill:none;stroke:#000000;stroke-width:0.7;stroke-linecap:round;" y1="-19.224" x1="2.917"/>
  <line x2="11.9" y2="-19.224" style="fill:none;stroke:#000000;stroke-width:0.7;stroke-linecap:round;" y1="-19.224" x1="11.9"/>
  <line x2="15.491" y2="-19.224" style="fill:none;stroke:#000000;stroke-width:0.7;stroke-linecap:round;" y1="-19.224" x1="15.491"/>
  <line x2="13.695" y2="-19.224" style="fill:none;stroke:#000000;stroke-width:0.7;stroke-linecap:round;" y1="-19.224" x1="13.695"/>
  <line x2="17.286" y2="-19.224" style="fill:none;stroke:#000000;stroke-width:0.7;stroke-linecap:round;" y1="-19.224" x1="17.286"/>
  <line x2="29.855" y2="-19.224" style="fill:none;stroke:#000000;stroke-width:0.7;stroke-linecap:round;" y1="-19.224" x1="29.855"/>
  <line x2="28.059" y2="-19.224" style="fill:none;stroke:#000000;stroke-width:0.7;stroke-linecap:round;" y1="-19.224" x1="28.059"/>
  <line x2="33.446" y2="-19.224" style="fill:none;stroke:#000000;stroke-width:0.7;stroke-linecap:round;" y1="-19.224" x1="33.446"/>
  <line x2="31.65" y2="-19.224" style="fill:none;stroke:#000000;stroke-width:0.7;stroke-linecap:round;" y1="-19.224" x1="31.65"/>
  <line x2="37.043" y2="-19.224" style="fill:none;stroke:#000000;stroke-width:0.7;stroke-linecap:round;" y1="-19.224" x1="37.043"/>
  <line x2="35.247" y2="-19.224" style="fill:none;stroke:#000000;stroke-width:0.7;stroke-linecap:round;" y1="-19.224" x1="35.247"/>
  <line x2="4.713" y2="-13.464" style="fill:none;stroke:#000000;stroke-width:0.7;stroke-linecap:round;" y1="-13.464" x1="4.713"/>
  <line x2="8.309" y2="-13.464" style="fill:none;stroke:#000000;stroke-width:0.7;stroke-linecap:round;" y1="-13.464" x1="8.309"/>
  <line x2="6.514" y2="-13.464" style="fill:none;stroke:#000000;stroke-width:0.7;stroke-linecap:round;" y1="-13.464" x1="6.514"/>
  <line x2="11.9" y2="-13.464" style="fill:none;stroke:#000000;stroke-width:0.7;stroke-linecap:round;" y1="-13.464" x1="11.9"/>
  <line x2="10.104" y2="-13.464" style="fill:none;stroke:#000000;stroke-width:0.7;stroke-linecap:round;" y1="-13.464" x1="10.104"/>
  <line x2="22.679" y2="-13.464" style="fill:none;stroke:#000000;stroke-width:0.7;stroke-linecap:round;" y1="-13.464" x1="22.679"/>
  <line x2="20.883" y2="-13.464" style="fill:none;stroke:#000000;stroke-width:0.7;stroke-linecap:round;" y1="-13.464" x1="20.883"/>
  <line x2="26.27" y2="-13.464" style="fill:none;stroke:#000000;stroke-width:0.7;stroke-linecap:round;" y1="-13.464" x1="26.27"/>
  <line x2="24.474" y2="-13.464" style="fill:none;stroke:#000000;stroke-width:0.7;stroke-linecap:round;" y1="-13.464" x1="24.474"/>
  <line x2="29.855" y2="-13.464" style="fill:none;stroke:#000000;stroke-width:0.7;stroke-linecap:round;" y1="-13.464" x1="29.855"/>
  <line x2="28.059" y2="-13.464" style="fill:none;stroke:#000000;stroke-width:0.7;stroke-linecap:round;" y1="-13.464" x1="28.059"/>
  <line x2="40.634" y2="-13.464" style="fill:none;stroke:#000000;stroke-width:0.7;stroke-linecap:round;" y1="-13.464" x1="40.634"/>
  <line x2="38.838" y2="-13.464" style="fill:none;stroke:#000000;stroke-width:0.7;stroke-linecap:round;" y1="-13.464" x1="38.838"/>
  <line x2="42.429" y2="-13.464" style="fill:none;stroke:#000000;stroke-width:0.7;stroke-linecap:round;" y1="-13.464" x1="42.429"/>
  <line x2="4.713" y2="-7.583" style="fill:none;stroke:#000000;stroke-width:0.7;stroke-linecap:round;" y1="-7.583" x1="4.713"/>
  <line x2="2.917" y2="-7.583" style="fill:none;stroke:#000000;stroke-width:0.7;stroke-linecap:round;" y1="-7.583" x1="2.917"/>
  <line x2="8.309" y2="-7.583" style="fill:none;stroke:#000000;stroke-width:0.7;stroke-linecap:round;" y1="-7.583" x1="8.309"/>
  <line x2="6.514" y2="-7.583" style="fill:none;stroke:#000000;stroke-width:0.7;stroke-linecap:round;" y1="-7.583" x1="6.514"/>
  <line x2="11.9" y2="-7.583" style="fill:none;stroke:#000000;stroke-width:0.7;stroke-linecap:round;" y1="-7.583" x1="11.9"/>
  <line x2="10.104" y2="-7.583" style="fill:none;stroke:#000000;stroke-width:0.7;stroke-linecap:round;" y1="-7.583" x1="10.104"/>
  <line x2="13.695" y2="-7.583" style="fill:none;stroke:#000000;stroke-width:0.7;stroke-linecap:round;" y1="-7.583" x1="13.695"/>
  <line x2="22.679" y2="-7.583" style="fill:none;stroke:#000000;stroke-width:0.7;stroke-linecap:round;" y1="-7.583" x1="22.679"/>
  <line x2="26.27" y2="-7.583" style="fill:none;stroke:#000000;stroke-width:0.7;stroke-linecap:round;" y1="-7.583" x1="26.27"/>
  <line x2="24.474" y2="-7.583" style="fill:none;stroke:#000000;stroke-width:0.7;stroke-linecap:round;" y1="-7.583" x1="24.474"/>
  <line x2="37.043" y2="-7.583" style="fill:none;stroke:#000000;stroke-width:0.7;stroke-linecap:round;" y1="-7.583" x1="37.043"/>
  <line x2="35.247" y2="-7.583" style="fill:none;stroke:#000000;stroke-width:0.7;stroke-linecap:round;" y1="-7.583" x1="35.247"/>
  <line x2="40.634" y2="-7.583" style="fill:none;stroke:#000000;stroke-width:0.7;stroke-linecap:round;" y1="-7.583" x1="40.634"/>
  <line x2="38.838" y2="-7.583" style="fill:none;stroke:#000000;stroke-width:0.7;stroke-linecap:round;" y1="-7.583" x1="38.838"/>
  <line x2="1.122" y2="-1.824" style="fill:none;stroke:#000000;stroke-width:0.7;stroke-linecap:round;" y1="-1.824" x1="1.122"/>
  <line x2="4.713" y2="-1.824" style="fill:none;stroke:#000000;stroke-width:0.7;stroke-linecap:round;" y1="-1.824" x1="4.713"/>
  <line x2="2.917" y2="-1.824" style="fill:none;stroke:#000000;stroke-width:0.7;stroke-linecap:round;" y1="-1.824" x1="2.917"/>
  <line x2="8.309" y2="-1.824" style="fill:none;stroke:#000000;stroke-width:0.7;stroke-linecap:round;" y1="-1.824" x1="8.309"/>
  <line x2="6.514" y2="-1.824" style="fill:none;stroke:#000000;stroke-width:0.7;stroke-linecap:round;" y1="-1.824" x1="6.514"/>
  <line x2="10.104" y2="-1.824" style="fill:none;stroke:#000000;stroke-width:0.7;stroke-linecap:round;" y1="-1.824" x1="10.104"/>
  <line x2="19.082" y2="-1.824" style="fill:none;stroke:#000000;stroke-width:0.7;stroke-linecap:round;" y1="-1.824" x1="19.082"/>
  <line x2="22.679" y2="-1.824" style="fill:none;stroke:#000000;stroke-width:0.7;stroke-linecap:round;" y1="-1.824" x1="22.679"/>
  <line x2="20.883" y2="-1.824" style="fill:none;stroke:#000000;stroke-width:0.7;stroke-linecap:round;" y1="-1.824" x1="20.883"/>
  <line x2="26.27" y2="-1.824" style="fill:none;stroke:#000000;stroke-width:0.7;stroke-linecap:round;" y1="-1.824" x1="26.27"/>
  <line x2="24.474" y2="-1.824" style="fill:none;stroke:#000000;stroke-width:0.7;stroke-linecap:round;" y1="-1.824" x1="24.474"/>
  <line x2="37.043" y2="-1.824" style="fill:none;stroke:#000000;stroke-width:0.7;stroke-linecap:round;" y1="-1.824" x1="37.043"/>
  <line x2="35.247" y2="-1.824" style="fill:none;stroke:#000000;stroke-width:0.7;stroke-linecap:round;" y1="-1.824" x1="35.247"/>
  <line x2="40.634" y2="-1.824" style="fill:none;stroke:#000000;stroke-width:0.7;stroke-linecap:round;" y1="-1.824" x1="40.634"/>
  <line x2="38.838" y2="-1.824" style="fill:none;stroke:#000000;stroke-width:0.7;stroke-linecap:round;" y1="-1.824" x1="38.838"/>
  <line x2="44.225" y2="-1.824" style="fill:none;stroke:#000000;stroke-width:0.7;stroke-linecap:round;" y1="-1.824" x1="44.225"/>
  <line x2="42.429" y2="-1.824" style="fill:none;stroke:#000000;stroke-width:0.7;stroke-linecap:round;" y1="-1.824" x1="42.429"/>
  <line x2="46.021" y2="-1.824" style="fill:none;stroke:#000000;stroke-width:0.7;stroke-linecap:round;" y1="-1.824" x1="46.021"/>
  <line x2="0.573" y2="-45.447" style="fill:none;stroke:#000000;stroke-width:0.7;stroke-linecap:round;" y1="-45.447" x1="0.573"/>
  <line x2="13.147" y2="-45.447" style="fill:none;stroke:#000000;stroke-width:0.7;stroke-linecap:round;" y1="-45.447" x1="13.147"/>
  <line x2="11.351" y2="-45.447" style="fill:none;stroke:#000000;stroke-width:0.7;stroke-linecap:round;" y1="-45.447" x1="11.351"/>
  <line x2="16.738" y2="-45.447" style="fill:none;stroke:#000000;stroke-width:0.7;stroke-linecap:round;" y1="-45.447" x1="16.738"/>
  <line x2="14.943" y2="-45.447" style="fill:none;stroke:#000000;stroke-width:0.7;stroke-linecap:round;" y1="-45.447" x1="14.943"/>
  <line x2="27.517" y2="-45.447" style="fill:none;stroke:#000000;stroke-width:0.7;stroke-linecap:round;" y1="-45.447" x1="27.517"/>
  <line x2="31.103" y2="-45.447" style="fill:none;stroke:#000000;stroke-width:0.7;stroke-linecap:round;" y1="-45.447" x1="31.103"/>
  <line x2="29.308" y2="-45.447" style="fill:none;stroke:#000000;stroke-width:0.7;stroke-linecap:round;" y1="-45.447" x1="29.308"/>
  <line x2="34.694" y2="-45.447" style="fill:none;stroke:#000000;stroke-width:0.7;stroke-linecap:round;" y1="-45.447" x1="34.694"/>
  <line x2="32.898" y2="-45.447" style="fill:none;stroke:#000000;stroke-width:0.7;stroke-linecap:round;" y1="-45.447" x1="32.898"/>
  <line x2="36.494" y2="-45.447" style="fill:none;stroke:#000000;stroke-width:0.7;stroke-linecap:round;" y1="-45.447" x1="36.494"/>
  <line x2="0.573" y2="-39.573" style="fill:none;stroke:#000000;stroke-width:0.7;stroke-linecap:round;" y1="-39.573" x1="0.573"/>
  <line x2="9.557" y2="-39.573" style="fill:none;stroke:#000000;stroke-width:0.7;stroke-linecap:round;" y1="-39.573" x1="9.557"/>
  <line x2="13.147" y2="-39.573" style="fill:none;stroke:#000000;stroke-width:0.7;stroke-linecap:round;" y1="-39.573" x1="13.147"/>
  <line x2="11.351" y2="-39.573" style="fill:none;stroke:#000000;stroke-width:0.7;stroke-linecap:round;" y1="-39.573" x1="11.351"/>
  <line x2="16.738" y2="-39.573" style="fill:none;stroke:#000000;stroke-width:0.7;stroke-linecap:round;" y1="-39.573" x1="16.738"/>
  <line x2="14.943" y2="-39.573" style="fill:none;stroke:#000000;stroke-width:0.7;stroke-linecap:round;" y1="-39.573" x1="14.943"/>
  <line x2="20.33" y2="-39.573" style="fill:none;stroke:#000000;stroke-width:0.7;stroke-linecap:round;" y1="-39.573" x1="20.33"/>
  <line x2="18.534" y2="-39.573" style="fill:none;stroke:#000000;stroke-width:0.7;stroke-linecap:round;" y1="-39.573" x1="18.534"/>
  <line x2="23.926" y2="-39.573" style="fill:none;stroke:#000000;stroke-width:0.7;stroke-linecap:round;" y1="-39.573" x1="23.926"/>
  <line x2="22.131" y2="-39.573" style="fill:none;stroke:#000000;stroke-width:0.7;stroke-linecap:round;" y1="-39.573" x1="22.131"/>
  <line x2="27.517" y2="-39.573" style="fill:none;stroke:#000000;stroke-width:0.7;stroke-linecap:round;" y1="-39.573" x1="27.517"/>
  <line x2="25.722" y2="-39.573" style="fill:none;stroke:#000000;stroke-width:0.7;stroke-linecap:round;" y1="-39.573" x1="25.722"/>
  <line x2="31.103" y2="-39.573" style="fill:none;stroke:#000000;stroke-width:0.7;stroke-linecap:round;" y1="-39.573" x1="31.103"/>
  <line x2="29.308" y2="-39.573" style="fill:none;stroke:#000000;stroke-width:0.7;stroke-linecap:round;" y1="-39.573" x1="29.308"/>
  <line x2="41.881" y2="-39.573" style="fill:none;stroke:#000000;stroke-width:0.7;stroke-linecap:round;" y1="-39.573" x1="41.881"/>
  <line x2="40.086" y2="-39.573" style="fill:none;stroke:#000000;stroke-width:0.7;stroke-linecap:round;" y1="-39.573" x1="40.086"/>
  <line x2="45.473" y2="-39.573" style="fill:none;stroke:#000000;stroke-width:0.7;stroke-linecap:round;" y1="-39.573" x1="45.473"/>
  <line x2="43.677" y2="-39.573" style="fill:none;stroke:#000000;stroke-width:0.7;stroke-linecap:round;" y1="-39.573" x1="43.677"/>
  <line x2="9.557" y2="-33.878" style="fill:none;stroke:#000000;stroke-width:0.7;stroke-linecap:round;" y1="-33.878" x1="9.557"/>
  <line x2="13.147" y2="-33.878" style="fill:none;stroke:#000000;stroke-width:0.7;stroke-linecap:round;" y1="-33.878" x1="13.147"/>
  <line x2="11.351" y2="-33.878" style="fill:none;stroke:#000000;stroke-width:0.7;stroke-linecap:round;" y1="-33.878" x1="11.351"/>
  <line x2="14.943" y2="-33.878" style="fill:none;stroke:#000000;stroke-width:0.7;stroke-linecap:round;" y1="-33.878" x1="14.943"/>
  <line x2="27.517" y2="-33.878" style="fill:none;stroke:#000000;stroke-width:0.7;stroke-linecap:round;" y1="-33.878" x1="27.517"/>
  <line x2="25.722" y2="-33.878" style="fill:none;stroke:#000000;stroke-width:0.7;stroke-linecap:round;" y1="-33.878" x1="25.722"/>
  <line x2="31.103" y2="-33.878" style="fill:none;stroke:#000000;stroke-width:0.7;stroke-linecap:round;" y1="-33.878" x1="31.103"/>
  <line x2="29.308" y2="-33.878" style="fill:none;stroke:#000000;stroke-width:0.7;stroke-linecap:round;" y1="-33.878" x1="29.308"/>
  <line x2="34.694" y2="-33.878" style="fill:none;stroke:#000000;stroke-width:0.7;stroke-linecap:round;" y1="-33.878" x1="34.694"/>
  <line x2="32.898" y2="-33.878" style="fill:none;stroke:#000000;stroke-width:0.7;stroke-linecap:round;" y1="-33.878" x1="32.898"/>
  <line x2="45.473" y2="-33.878" style="fill:none;stroke:#000000;stroke-width:0.7;stroke-linecap:round;" y1="-33.878" x1="45.473"/>
  <line x2="5.96" y2="-27.993" style="fill:none;stroke:#000000;stroke-width:0.7;stroke-linecap:round;" y1="-27.993" x1="5.96"/>
  <line x2="9.557" y2="-27.993" style="fill:none;stroke:#000000;stroke-width:0.7;stroke-linecap:round;" y1="-27.993" x1="9.557"/>
  <line x2="7.761" y2="-27.993" style="fill:none;stroke:#000000;stroke-width:0.7;stroke-linecap:round;" y1="-27.993" x1="7.761"/>
  <line x2="13.147" y2="-27.993" style="fill:none;stroke:#000000;stroke-width:0.7;stroke-linecap:round;" y1="-27.993" x1="13.147"/>
  <line x2="11.351" y2="-27.993" style="fill:none;stroke:#000000;stroke-width:0.7;stroke-linecap:round;" y1="-27.993" x1="11.351"/>
  <line x2="14.943" y2="-27.993" style="fill:none;stroke:#000000;stroke-width:0.7;stroke-linecap:round;" y1="-27.993" x1="14.943"/>
  <line x2="27.517" y2="-27.993" style="fill:none;stroke:#000000;stroke-width:0.7;stroke-linecap:round;" y1="-27.993" x1="27.517"/>
  <line x2="25.722" y2="-27.993" style="fill:none;stroke:#000000;stroke-width:0.7;stroke-linecap:round;" y1="-27.993" x1="25.722"/>
  <line x2="31.103" y2="-27.993" style="fill:none;stroke:#000000;stroke-width:0.7;stroke-linecap:round;" y1="-27.993" x1="31.103"/>
  <line x2="29.308" y2="-27.993" style="fill:none;stroke:#000000;stroke-width:0.7;stroke-linecap:round;" y1="-27.993" x1="29.308"/>
  <line x2="41.881" y2="-27.993" style="fill:none;stroke:#000000;stroke-width:0.7;stroke-linecap:round;" y1="-27.993" x1="41.881"/>
  <line x2="40.086" y2="-27.993" style="fill:none;stroke:#000000;stroke-width:0.7;stroke-linecap:round;" y1="-27.993" x1="40.086"/>
  <line x2="43.677" y2="-27.993" style="fill:none;stroke:#000000;stroke-width:0.7;stroke-linecap:round;" y1="-27.993" x1="43.677"/>
  <line x2="2.369" y2="-22.173" style="fill:none;stroke:#000000;stroke-width:0.7;stroke-linecap:round;" y1="-22.173" x1="2.369"/>
  <line x2="0.573" y2="-22.173" style="fill:none;stroke:#000000;stroke-width:0.7;stroke-linecap:round;" y1="-22.173" x1="0.573"/>
  <line x2="5.96" y2="-22.173" style="fill:none;stroke:#000000;stroke-width:0.7;stroke-linecap:round;" y1="-22.173" x1="5.96"/>
  <line x2="4.165" y2="-22.173" style="fill:none;stroke:#000000;stroke-width:0.7;stroke-linecap:round;" y1="-22.173" x1="4.165"/>
  <line x2="9.557" y2="-22.173" style="fill:none;stroke:#000000;stroke-width:0.7;stroke-linecap:round;" y1="-22.173" x1="9.557"/>
  <line x2="7.761" y2="-22.173" style="fill:none;stroke:#000000;stroke-width:0.7;stroke-linecap:round;" y1="-22.173" x1="7.761"/>
  <line x2="11.351" y2="-22.173" style="fill:none;stroke:#000000;stroke-width:0.7;stroke-linecap:round;" y1="-22.173" x1="11.351"/>
  <line x2="23.926" y2="-22.173" style="fill:none;stroke:#000000;stroke-width:0.7;stroke-linecap:round;" y1="-22.173" x1="23.926"/>
  <line x2="22.131" y2="-22.173" style="fill:none;stroke:#000000;stroke-width:0.7;stroke-linecap:round;" y1="-22.173" x1="22.131"/>
  <line x2="27.517" y2="-22.173" style="fill:none;stroke:#000000;stroke-width:0.7;stroke-linecap:round;" y1="-22.173" x1="27.517"/>
  <line x2="25.722" y2="-22.173" style="fill:none;stroke:#000000;stroke-width:0.7;stroke-linecap:round;" y1="-22.173" x1="25.722"/>
  <line x2="31.103" y2="-22.173" style="fill:none;stroke:#000000;stroke-width:0.7;stroke-linecap:round;" y1="-22.173" x1="31.103"/>
  <line x2="29.308" y2="-22.173" style="fill:none;stroke:#000000;stroke-width:0.7;stroke-linecap:round;" y1="-22.173" x1="29.308"/>
  <line x2="32.898" y2="-22.173" style="fill:none;stroke:#000000;stroke-width:0.7;stroke-linecap:round;" y1="-22.173" x1="32.898"/>
  <line x2="41.881" y2="-22.173" style="fill:none;stroke:#000000;stroke-width:0.7;stroke-linecap:round;" y1="-22.173" x1="41.881"/>
  <line x2="45.473" y2="-22.173" style="fill:none;stroke:#000000;stroke-width:0.7;stroke-linecap:round;" y1="-22.173" x1="45.473"/>
  <line x2="43.677" y2="-22.173" style="fill:none;stroke:#000000;stroke-width:0.7;stroke-linecap:round;" y1="-22.173" x1="43.677"/>
  <line x2="2.369" y2="-16.413" style="fill:none;stroke:#000000;stroke-width:0.7;stroke-linecap:round;" y1="-16.413" x1="2.369"/>
  <line x2="0.573" y2="-16.413" style="fill:none;stroke:#000000;stroke-width:0.7;stroke-linecap:round;" y1="-16.413" x1="0.573"/>
  <line x2="5.96" y2="-16.413" style="fill:none;stroke:#000000;stroke-width:0.7;stroke-linecap:round;" y1="-16.413" x1="5.96"/>
  <line x2="4.165" y2="-16.413" style="fill:none;stroke:#000000;stroke-width:0.7;stroke-linecap:round;" y1="-16.413" x1="4.165"/>
  <line x2="7.761" y2="-16.413" style="fill:none;stroke:#000000;stroke-width:0.7;stroke-linecap:round;" y1="-16.413" x1="7.761"/>
  <line x2="16.738" y2="-16.413" style="fill:none;stroke:#000000;stroke-width:0.7;stroke-linecap:round;" y1="-16.413" x1="16.738"/>
  <line x2="20.33" y2="-16.413" style="fill:none;stroke:#000000;stroke-width:0.7;stroke-linecap:round;" y1="-16.413" x1="20.33"/>
  <line x2="18.534" y2="-16.413" style="fill:none;stroke:#000000;stroke-width:0.7;stroke-linecap:round;" y1="-16.413" x1="18.534"/>
  <line x2="23.926" y2="-16.413" style="fill:none;stroke:#000000;stroke-width:0.7;stroke-linecap:round;" y1="-16.413" x1="23.926"/>
  <line x2="22.131" y2="-16.413" style="fill:none;stroke:#000000;stroke-width:0.7;stroke-linecap:round;" y1="-16.413" x1="22.131"/>
  <line x2="25.722" y2="-16.413" style="fill:none;stroke:#000000;stroke-width:0.7;stroke-linecap:round;" y1="-16.413" x1="25.722"/>
  <line x2="34.694" y2="-16.413" style="fill:none;stroke:#000000;stroke-width:0.7;stroke-linecap:round;" y1="-16.413" x1="34.694"/>
  <line x2="38.29" y2="-16.413" style="fill:none;stroke:#000000;stroke-width:0.7;stroke-linecap:round;" y1="-16.413" x1="38.29"/>
  <line x2="36.494" y2="-16.413" style="fill:none;stroke:#000000;stroke-width:0.7;stroke-linecap:round;" y1="-16.413" x1="36.494"/>
  <line x2="41.881" y2="-16.413" style="fill:none;stroke:#000000;stroke-width:0.7;stroke-linecap:round;" y1="-16.413" x1="41.881"/>
  <line x2="40.086" y2="-16.413" style="fill:none;stroke:#000000;stroke-width:0.7;stroke-linecap:round;" y1="-16.413" x1="40.086"/>
  <line x2="45.473" y2="-16.413" style="fill:none;stroke:#000000;stroke-width:0.7;stroke-linecap:round;" y1="-16.413" x1="45.473"/>
  <line x2="43.677" y2="-16.413" style="fill:none;stroke:#000000;stroke-width:0.7;stroke-linecap:round;" y1="-16.413" x1="43.677"/>
  <line x2="2.369" y2="-10.533" style="fill:none;stroke:#000000;stroke-width:0.7;stroke-linecap:round;" y1="-10.533" x1="2.369"/>
  <line x2="0.573" y2="-10.533" style="fill:none;stroke:#000000;stroke-width:0.7;stroke-linecap:round;" y1="-10.533" x1="0.573"/>
  <line x2="4.165" y2="-10.533" style="fill:none;stroke:#000000;stroke-width:0.7;stroke-linecap:round;" y1="-10.533" x1="4.165"/>
  <line x2="13.147" y2="-10.533" style="fill:none;stroke:#000000;stroke-width:0.7;stroke-linecap:round;" y1="-10.533" x1="13.147"/>
  <line x2="16.738" y2="-10.533" style="fill:none;stroke:#000000;stroke-width:0.7;stroke-linecap:round;" y1="-10.533" x1="16.738"/>
  <line x2="14.943" y2="-10.533" style="fill:none;stroke:#000000;stroke-width:0.7;stroke-linecap:round;" y1="-10.533" x1="14.943"/>
  <line x2="18.534" y2="-10.533" style="fill:none;stroke:#000000;stroke-width:0.7;stroke-linecap:round;" y1="-10.533" x1="18.534"/>
  <line x2="31.103" y2="-10.533" style="fill:none;stroke:#000000;stroke-width:0.7;stroke-linecap:round;" y1="-10.533" x1="31.103"/>
  <line x2="29.308" y2="-10.533" style="fill:none;stroke:#000000;stroke-width:0.7;stroke-linecap:round;" y1="-10.533" x1="29.308"/>
  <line x2="34.694" y2="-10.533" style="fill:none;stroke:#000000;stroke-width:0.7;stroke-linecap:round;" y1="-10.533" x1="34.694"/>
  <line x2="32.898" y2="-10.533" style="fill:none;stroke:#000000;stroke-width:0.7;stroke-linecap:round;" y1="-10.533" x1="32.898"/>
  <line x2="45.473" y2="-10.533" style="fill:none;stroke:#000000;stroke-width:0.7;stroke-linecap:round;" y1="-10.533" x1="45.473"/>
  <line x2="43.677" y2="-10.533" style="fill:none;stroke:#000000;stroke-width:0.7;stroke-linecap:round;" y1="-10.533" x1="43.677"/>
  <line x2="2.369" y2="-4.773" style="fill:none;stroke:#000000;stroke-width:0.7;stroke-linecap:round;" y1="-4.773" x1="2.369"/>
  <line x2="0.573" y2="-4.773" style="fill:none;stroke:#000000;stroke-width:0.7;stroke-linecap:round;" y1="-4.773" x1="0.573"/>
  <line x2="5.96" y2="-4.773" style="fill:none;stroke:#000000;stroke-width:0.7;stroke-linecap:round;" y1="-4.773" x1="5.96"/>
  <line x2="4.165" y2="-4.773" style="fill:none;stroke:#000000;stroke-width:0.7;stroke-linecap:round;" y1="-4.773" x1="4.165"/>
  <line x2="16.738" y2="-4.773" style="fill:none;stroke:#000000;stroke-width:0.7;stroke-linecap:round;" y1="-4.773" x1="16.738"/>
  <line x2="20.33" y2="-4.773" style="fill:none;stroke:#000000;stroke-width:0.7;stroke-linecap:round;" y1="-4.773" x1="20.33"/>
  <line x2="18.534" y2="-4.773" style="fill:none;stroke:#000000;stroke-width:0.7;stroke-linecap:round;" y1="-4.773" x1="18.534"/>
  <line x2="23.926" y2="-4.773" style="fill:none;stroke:#000000;stroke-width:0.7;stroke-linecap:round;" y1="-4.773" x1="23.926"/>
  <line x2="22.131" y2="-4.773" style="fill:none;stroke:#000000;stroke-width:0.7;stroke-linecap:round;" y1="-4.773" x1="22.131"/>
  <line x2="27.517" y2="-4.773" style="fill:none;stroke:#000000;stroke-width:0.7;stroke-linecap:round;" y1="-4.773" x1="27.517"/>
  <line x2="25.722" y2="-4.773" style="fill:none;stroke:#000000;stroke-width:0.7;stroke-linecap:round;" y1="-4.773" x1="25.722"/>
  <line x2="31.103" y2="-4.773" style="fill:none;stroke:#000000;stroke-width:0.7;stroke-linecap:round;" y1="-4.773" x1="31.103"/>
  <line x2="29.308" y2="-4.773" style="fill:none;stroke:#000000;stroke-width:0.7;stroke-linecap:round;" y1="-4.773" x1="29.308"/>
  <line x2="41.881" y2="-4.773" style="fill:none;stroke:#000000;stroke-width:0.7;stroke-linecap:round;" y1="-4.773" x1="41.881"/>
  <line x2="45.473" y2="-4.773" style="fill:none;stroke:#000000;stroke-width:0.7;stroke-linecap:round;" y1="-4.773" x1="45.473"/>
  <line x2="43.677" y2="-4.773" style="fill:none;stroke:#000000;stroke-width:0.7;stroke-linecap:round;" y1="-4.773" x1="43.677"/>
 </g>
</svg>
