<?xml version="1.0" encoding="utf-8"?>
<svg xmlns="http://www.w3.org/2000/svg" version="1.1" x="0px" y="0px" xml:space="preserve" width="46.75" height="46.75" viewBox="0 -46.75 46.75 46.75">
	<g>
		<rect y="-46.75" style="fill:none;" width="46.75" height="46.75"/>
		<line style="fill:none;stroke:#000000;stroke-width:0.3;" x1="37.819" y1="-45.444" x2="45.638" y2="-45.444"/>
		<line style="fill:none;stroke:#000000;stroke-width:0.3;" x1="18.069" y1="-45.444" x2="25.888" y2="-45.444"/>
		<line style="fill:none;stroke:#000000;stroke-width:0.3;" x1="2.369" y1="-45.444" x2="9.25" y2="-45.444"/>
		<line style="fill:none;stroke:#000000;stroke-width:0.3;" x1="36.494" y1="-33.819" x2="43.388" y2="-33.819"/>
		<line style="fill:none;stroke:#000000;stroke-width:0.3;" x1="23.638" y1="-33.819" x2="16.738" y2="-33.819"/>
		<line style="fill:none;stroke:#000000;stroke-width:0.3;" x1="7.761" y1="-33.819" x2="0.706" y2="-33.819"/>
		<line style="fill:none;stroke:#000000;stroke-width:0.3;" x1="38.838" y1="-19.167" x2="45.941" y2="-19.167"/>
		<line style="fill:none;stroke:#000000;stroke-width:0.3;" x1="26.27" y1="-19.167" x2="19.124" y2="-19.167"/>
		<line style="fill:none;stroke:#000000;stroke-width:0.3;" x1="10.304" y1="-19.167" x2="4.713" y2="-19.167"/>
		<line style="fill:none;stroke:#000000;stroke-width:0.3;" x1="33.249" y1="-4.855" x2="40.086" y2="-4.855"/>
		<line style="fill:none;stroke:#000000;stroke-width:0.3;" x1="14.544" y1="-4.855" x2="7.761" y2="-4.855"/>
		<line style="fill:none;stroke:#000000;stroke-width:0.3;" x1="10.104" y1="-42.479" x2="17" y2="-42.479"/>
		<line style="fill:none;stroke:#000000;stroke-width:0.3;" x1="24.474" y1="-42.479" x2="31.65" y2="-42.479"/>
		<line style="fill:none;stroke:#000000;stroke-width:0.3;" x1="38.494" y1="-39.551" x2="32.898" y2="-39.551"/>
		<line style="fill:none;stroke:#000000;stroke-width:0.3;" x1="7.987" y1="-39.614" x2="1.692" y2="-39.614"/>
		<line style="fill:none;stroke:#000000;stroke-width:0.3;" x1="11.561" y1="-36.614" x2="17.286" y2="-36.614"/>
		<line style="fill:none;stroke:#000000;stroke-width:0.3;" x1="42.429" y1="-36.614" x2="46.75" y2="-36.614"/>
		<line style="fill:none;stroke:#000000;stroke-width:0.3;" x1="26.199" y1="-30.864" x2="31.65" y2="-30.864"/>
		<line style="fill:none;stroke:#000000;stroke-width:0.3;" x1="10.619" y1="-30.864" x2="4.324" y2="-30.864"/>
		<line style="fill:none;stroke:#000000;stroke-width:0.3;" x1="16.738" y1="-27.981" x2="23.448" y2="-27.981"/>
		<line style="fill:none;stroke:#000000;stroke-width:0.3;" x1="3.948" y1="-27.981" x2="0" y2="-27.981"/>
		<line style="fill:none;stroke:#000000;stroke-width:0.3;" x1="38.456" y1="-27.981" x2="32.898" y2="-27.981"/>
		<line style="fill:none;stroke:#000000;stroke-width:0.3;" x1="33.698" y1="-24.981" x2="28.059" y2="-24.981"/>
		<line style="fill:none;stroke:#000000;stroke-width:0.3;" x1="10.323" y1="-24.981" x2="4.029" y2="-24.981"/>
		<line style="fill:none;stroke:#000000;stroke-width:0.3;" x1="20.33" y1="-22.231" x2="12.779" y2="-22.231"/>
		<line style="fill:none;stroke:#000000;stroke-width:0.3;" x1="40.323" y1="-22.231" x2="34.694" y2="-22.231"/>
		<line style="fill:none;stroke:#000000;stroke-width:0.3;" x1="27.529" y1="-16.231" x2="32.898" y2="-16.231"/>
		<line style="fill:none;stroke:#000000;stroke-width:0.3;" x1="15.323" y1="-16.231" x2="9.029" y2="-16.231"/>
		<line style="fill:none;stroke:#000000;stroke-width:0.3;" x1="2.82" y1="-13.481" x2="0" y2="-13.481"/>
		<line style="fill:none;stroke:#000000;stroke-width:0.3;" x1="19.235" y1="-13.481" x2="13.695" y2="-13.481"/>
		<line style="fill:none;stroke:#000000;stroke-width:0.3;" x1="31.65" y1="-13.481" x2="37.235" y2="-13.481"/>
		<line style="fill:none;stroke:#000000;stroke-width:0.3;" x1="20.33" y1="-10.481" x2="27.86" y2="-10.481"/>
		<line style="fill:none;stroke:#000000;stroke-width:0.3;" x1="36.494" y1="-10.481" x2="42.11" y2="-10.481"/>
		<line style="fill:none;stroke:#000000;stroke-width:0.3;" x1="15.354" y1="-7.565" x2="20.883" y2="-7.565"/>
		<line style="fill:none;stroke:#000000;stroke-width:0.3;" x1="0" y1="-7.565" x2="1.024" y2="-7.565"/>
		<line style="fill:none;stroke:#000000;stroke-width:0.3;" x1="33.649" y1="-7.565" x2="28.059" y2="-7.565"/>
		<line style="fill:none;stroke:#000000;stroke-width:0.3;" x1="33.446" y1="-1.815" x2="28.059" y2="-1.815"/>
		<line style="fill:none;stroke:#000000;stroke-width:0.3;" x1="17.286" y1="-1.815" x2="11.9" y2="-1.815"/>
		<line style="fill:none;stroke:#000000;stroke-width:0.3;" x1="11.485" y1="-10.356" x2="5.96" y2="-10.356"/>
		<line style="fill:none;stroke:#000000;stroke-width:0.3;" x1="45.323" y1="-27.981" x2="46.75" y2="-27.981"/>
		<line style="fill:none;stroke:#000000;stroke-width:0.3;" x1="43.4" y1="-13.481" x2="46.75" y2="-13.481"/>
		<line style="fill:none;stroke:#000000;stroke-width:0.3;" x1="42.172" y1="-7.565" x2="46.75" y2="-7.565"/>

			<line style="fill:none;stroke:#000000;stroke-width:0.7;stroke-linecap:round;" x1="1.122" y1="-42.499" x2="1.122" y2="-42.499"/>

			<line style="fill:none;stroke:#000000;stroke-width:0.7;stroke-linecap:round;" x1="4.713" y1="-42.499" x2="4.713" y2="-42.499"/>

			<line style="fill:none;stroke:#000000;stroke-width:0.7;stroke-linecap:round;" x1="2.917" y1="-42.499" x2="2.917" y2="-42.499"/>

			<line style="fill:none;stroke:#000000;stroke-width:0.7;stroke-linecap:round;" x1="8.309" y1="-42.499" x2="8.309" y2="-42.499"/>

			<line style="fill:none;stroke:#000000;stroke-width:0.7;stroke-linecap:round;" x1="6.514" y1="-42.499" x2="6.514" y2="-42.499"/>

			<line style="fill:none;stroke:#000000;stroke-width:0.7;stroke-linecap:round;" x1="19.082" y1="-42.499" x2="19.082" y2="-42.499"/>

			<line style="fill:none;stroke:#000000;stroke-width:0.7;stroke-linecap:round;" x1="22.679" y1="-42.499" x2="22.679" y2="-42.499"/>

			<line style="fill:none;stroke:#000000;stroke-width:0.7;stroke-linecap:round;" x1="20.883" y1="-42.499" x2="20.883" y2="-42.499"/>

			<line style="fill:none;stroke:#000000;stroke-width:0.7;stroke-linecap:round;" x1="33.446" y1="-42.499" x2="33.446" y2="-42.499"/>

			<line style="fill:none;stroke:#000000;stroke-width:0.7;stroke-linecap:round;" x1="37.043" y1="-42.499" x2="37.043" y2="-42.499"/>

			<line style="fill:none;stroke:#000000;stroke-width:0.7;stroke-linecap:round;" x1="35.247" y1="-42.499" x2="35.247" y2="-42.499"/>

			<line style="fill:none;stroke:#000000;stroke-width:0.7;stroke-linecap:round;" x1="40.634" y1="-42.499" x2="40.634" y2="-42.499"/>

			<line style="fill:none;stroke:#000000;stroke-width:0.7;stroke-linecap:round;" x1="38.838" y1="-42.499" x2="38.838" y2="-42.499"/>

			<line style="fill:none;stroke:#000000;stroke-width:0.7;stroke-linecap:round;" x1="44.225" y1="-42.499" x2="44.225" y2="-42.499"/>

			<line style="fill:none;stroke:#000000;stroke-width:0.7;stroke-linecap:round;" x1="42.429" y1="-42.499" x2="42.429" y2="-42.499"/>

			<line style="fill:none;stroke:#000000;stroke-width:0.7;stroke-linecap:round;" x1="46.021" y1="-42.499" x2="46.021" y2="-42.499"/>

			<line style="fill:none;stroke:#000000;stroke-width:0.7;stroke-linecap:round;" x1="1.122" y1="-36.624" x2="1.122" y2="-36.624"/>

			<line style="fill:none;stroke:#000000;stroke-width:0.7;stroke-linecap:round;" x1="4.713" y1="-36.624" x2="4.713" y2="-36.624"/>

			<line style="fill:none;stroke:#000000;stroke-width:0.7;stroke-linecap:round;" x1="2.917" y1="-36.624" x2="2.917" y2="-36.624"/>

			<line style="fill:none;stroke:#000000;stroke-width:0.7;stroke-linecap:round;" x1="8.309" y1="-36.624" x2="8.309" y2="-36.624"/>

			<line style="fill:none;stroke:#000000;stroke-width:0.7;stroke-linecap:round;" x1="6.514" y1="-36.624" x2="6.514" y2="-36.624"/>

			<line style="fill:none;stroke:#000000;stroke-width:0.7;stroke-linecap:round;" x1="10.104" y1="-36.624" x2="10.104" y2="-36.624"/>

			<line style="fill:none;stroke:#000000;stroke-width:0.7;stroke-linecap:round;" x1="19.082" y1="-36.624" x2="19.082" y2="-36.624"/>

			<line style="fill:none;stroke:#000000;stroke-width:0.7;stroke-linecap:round;" x1="22.679" y1="-36.624" x2="22.679" y2="-36.624"/>

			<line style="fill:none;stroke:#000000;stroke-width:0.7;stroke-linecap:round;" x1="20.883" y1="-36.624" x2="20.883" y2="-36.624"/>

			<line style="fill:none;stroke:#000000;stroke-width:0.7;stroke-linecap:round;" x1="26.27" y1="-36.624" x2="26.27" y2="-36.624"/>

			<line style="fill:none;stroke:#000000;stroke-width:0.7;stroke-linecap:round;" x1="24.474" y1="-36.624" x2="24.474" y2="-36.624"/>

			<line style="fill:none;stroke:#000000;stroke-width:0.7;stroke-linecap:round;" x1="29.855" y1="-36.624" x2="29.855" y2="-36.624"/>

			<line style="fill:none;stroke:#000000;stroke-width:0.7;stroke-linecap:round;" x1="28.059" y1="-36.624" x2="28.059" y2="-36.624"/>

			<line style="fill:none;stroke:#000000;stroke-width:0.7;stroke-linecap:round;" x1="33.446" y1="-36.624" x2="33.446" y2="-36.624"/>

			<line style="fill:none;stroke:#000000;stroke-width:0.7;stroke-linecap:round;" x1="31.65" y1="-36.624" x2="31.65" y2="-36.624"/>

			<line style="fill:none;stroke:#000000;stroke-width:0.7;stroke-linecap:round;" x1="37.043" y1="-36.624" x2="37.043" y2="-36.624"/>

			<line style="fill:none;stroke:#000000;stroke-width:0.7;stroke-linecap:round;" x1="35.247" y1="-36.624" x2="35.247" y2="-36.624"/>

			<line style="fill:none;stroke:#000000;stroke-width:0.7;stroke-linecap:round;" x1="40.634" y1="-36.624" x2="40.634" y2="-36.624"/>

			<line style="fill:none;stroke:#000000;stroke-width:0.7;stroke-linecap:round;" x1="38.838" y1="-36.624" x2="38.838" y2="-36.624"/>

			<line style="fill:none;stroke:#000000;stroke-width:0.7;stroke-linecap:round;" x1="1.122" y1="-30.929" x2="1.122" y2="-30.929"/>

			<line style="fill:none;stroke:#000000;stroke-width:0.7;stroke-linecap:round;" x1="2.917" y1="-30.929" x2="2.917" y2="-30.929"/>
		<line style="fill:none;stroke:#000000;stroke-width:0.7;stroke-linecap:round;" x1="11.9" y1="-30.929" x2="11.9" y2="-30.929"/>

			<line style="fill:none;stroke:#000000;stroke-width:0.7;stroke-linecap:round;" x1="15.491" y1="-30.929" x2="15.491" y2="-30.929"/>

			<line style="fill:none;stroke:#000000;stroke-width:0.7;stroke-linecap:round;" x1="13.695" y1="-30.929" x2="13.695" y2="-30.929"/>

			<line style="fill:none;stroke:#000000;stroke-width:0.7;stroke-linecap:round;" x1="19.082" y1="-30.929" x2="19.082" y2="-30.929"/>

			<line style="fill:none;stroke:#000000;stroke-width:0.7;stroke-linecap:round;" x1="17.286" y1="-30.929" x2="17.286" y2="-30.929"/>

			<line style="fill:none;stroke:#000000;stroke-width:0.7;stroke-linecap:round;" x1="22.679" y1="-30.929" x2="22.679" y2="-30.929"/>

			<line style="fill:none;stroke:#000000;stroke-width:0.7;stroke-linecap:round;" x1="20.883" y1="-30.929" x2="20.883" y2="-30.929"/>

			<line style="fill:none;stroke:#000000;stroke-width:0.7;stroke-linecap:round;" x1="24.474" y1="-30.929" x2="24.474" y2="-30.929"/>

			<line style="fill:none;stroke:#000000;stroke-width:0.7;stroke-linecap:round;" x1="33.446" y1="-30.929" x2="33.446" y2="-30.929"/>

			<line style="fill:none;stroke:#000000;stroke-width:0.7;stroke-linecap:round;" x1="37.043" y1="-30.929" x2="37.043" y2="-30.929"/>

			<line style="fill:none;stroke:#000000;stroke-width:0.7;stroke-linecap:round;" x1="35.247" y1="-30.929" x2="35.247" y2="-30.929"/>

			<line style="fill:none;stroke:#000000;stroke-width:0.7;stroke-linecap:round;" x1="40.634" y1="-30.929" x2="40.634" y2="-30.929"/>

			<line style="fill:none;stroke:#000000;stroke-width:0.7;stroke-linecap:round;" x1="38.838" y1="-30.929" x2="38.838" y2="-30.929"/>

			<line style="fill:none;stroke:#000000;stroke-width:0.7;stroke-linecap:round;" x1="44.225" y1="-30.929" x2="44.225" y2="-30.929"/>

			<line style="fill:none;stroke:#000000;stroke-width:0.7;stroke-linecap:round;" x1="42.429" y1="-30.929" x2="42.429" y2="-30.929"/>

			<line style="fill:none;stroke:#000000;stroke-width:0.7;stroke-linecap:round;" x1="46.021" y1="-30.929" x2="46.021" y2="-30.929"/>

			<line style="fill:none;stroke:#000000;stroke-width:0.7;stroke-linecap:round;" x1="1.122" y1="-25.044" x2="1.122" y2="-25.044"/>

			<line style="fill:none;stroke:#000000;stroke-width:0.7;stroke-linecap:round;" x1="2.917" y1="-25.044" x2="2.917" y2="-25.044"/>
		<line style="fill:none;stroke:#000000;stroke-width:0.7;stroke-linecap:round;" x1="11.9" y1="-25.044" x2="11.9" y2="-25.044"/>

			<line style="fill:none;stroke:#000000;stroke-width:0.7;stroke-linecap:round;" x1="15.491" y1="-25.044" x2="15.491" y2="-25.044"/>

			<line style="fill:none;stroke:#000000;stroke-width:0.7;stroke-linecap:round;" x1="13.695" y1="-25.044" x2="13.695" y2="-25.044"/>

			<line style="fill:none;stroke:#000000;stroke-width:0.7;stroke-linecap:round;" x1="19.082" y1="-25.044" x2="19.082" y2="-25.044"/>

			<line style="fill:none;stroke:#000000;stroke-width:0.7;stroke-linecap:round;" x1="17.286" y1="-25.044" x2="17.286" y2="-25.044"/>

			<line style="fill:none;stroke:#000000;stroke-width:0.7;stroke-linecap:round;" x1="22.679" y1="-25.044" x2="22.679" y2="-25.044"/>

			<line style="fill:none;stroke:#000000;stroke-width:0.7;stroke-linecap:round;" x1="20.883" y1="-25.044" x2="20.883" y2="-25.044"/>

			<line style="fill:none;stroke:#000000;stroke-width:0.7;stroke-linecap:round;" x1="26.27" y1="-25.044" x2="26.27" y2="-25.044"/>

			<line style="fill:none;stroke:#000000;stroke-width:0.7;stroke-linecap:round;" x1="24.474" y1="-25.044" x2="24.474" y2="-25.044"/>

			<line style="fill:none;stroke:#000000;stroke-width:0.7;stroke-linecap:round;" x1="37.043" y1="-25.044" x2="37.043" y2="-25.044"/>

			<line style="fill:none;stroke:#000000;stroke-width:0.7;stroke-linecap:round;" x1="35.247" y1="-25.044" x2="35.247" y2="-25.044"/>

			<line style="fill:none;stroke:#000000;stroke-width:0.7;stroke-linecap:round;" x1="40.634" y1="-25.044" x2="40.634" y2="-25.044"/>

			<line style="fill:none;stroke:#000000;stroke-width:0.7;stroke-linecap:round;" x1="38.838" y1="-25.044" x2="38.838" y2="-25.044"/>

			<line style="fill:none;stroke:#000000;stroke-width:0.7;stroke-linecap:round;" x1="44.225" y1="-25.044" x2="44.225" y2="-25.044"/>

			<line style="fill:none;stroke:#000000;stroke-width:0.7;stroke-linecap:round;" x1="42.429" y1="-25.044" x2="42.429" y2="-25.044"/>

			<line style="fill:none;stroke:#000000;stroke-width:0.7;stroke-linecap:round;" x1="46.021" y1="-25.044" x2="46.021" y2="-25.044"/>

			<line style="fill:none;stroke:#000000;stroke-width:0.7;stroke-linecap:round;" x1="1.122" y1="-19.224" x2="1.122" y2="-19.224"/>

			<line style="fill:none;stroke:#000000;stroke-width:0.7;stroke-linecap:round;" x1="2.917" y1="-19.224" x2="2.917" y2="-19.224"/>
		<line style="fill:none;stroke:#000000;stroke-width:0.7;stroke-linecap:round;" x1="11.9" y1="-19.224" x2="11.9" y2="-19.224"/>

			<line style="fill:none;stroke:#000000;stroke-width:0.7;stroke-linecap:round;" x1="15.491" y1="-19.224" x2="15.491" y2="-19.224"/>

			<line style="fill:none;stroke:#000000;stroke-width:0.7;stroke-linecap:round;" x1="13.695" y1="-19.224" x2="13.695" y2="-19.224"/>

			<line style="fill:none;stroke:#000000;stroke-width:0.7;stroke-linecap:round;" x1="17.286" y1="-19.224" x2="17.286" y2="-19.224"/>

			<line style="fill:none;stroke:#000000;stroke-width:0.7;stroke-linecap:round;" x1="29.855" y1="-19.224" x2="29.855" y2="-19.224"/>

			<line style="fill:none;stroke:#000000;stroke-width:0.7;stroke-linecap:round;" x1="28.059" y1="-19.224" x2="28.059" y2="-19.224"/>

			<line style="fill:none;stroke:#000000;stroke-width:0.7;stroke-linecap:round;" x1="33.446" y1="-19.224" x2="33.446" y2="-19.224"/>

			<line style="fill:none;stroke:#000000;stroke-width:0.7;stroke-linecap:round;" x1="31.65" y1="-19.224" x2="31.65" y2="-19.224"/>

			<line style="fill:none;stroke:#000000;stroke-width:0.7;stroke-linecap:round;" x1="37.043" y1="-19.224" x2="37.043" y2="-19.224"/>

			<line style="fill:none;stroke:#000000;stroke-width:0.7;stroke-linecap:round;" x1="35.247" y1="-19.224" x2="35.247" y2="-19.224"/>

			<line style="fill:none;stroke:#000000;stroke-width:0.7;stroke-linecap:round;" x1="4.713" y1="-13.464" x2="4.713" y2="-13.464"/>

			<line style="fill:none;stroke:#000000;stroke-width:0.7;stroke-linecap:round;" x1="8.309" y1="-13.464" x2="8.309" y2="-13.464"/>

			<line style="fill:none;stroke:#000000;stroke-width:0.7;stroke-linecap:round;" x1="6.514" y1="-13.464" x2="6.514" y2="-13.464"/>
		<line style="fill:none;stroke:#000000;stroke-width:0.7;stroke-linecap:round;" x1="11.9" y1="-13.464" x2="11.9" y2="-13.464"/>

			<line style="fill:none;stroke:#000000;stroke-width:0.7;stroke-linecap:round;" x1="10.104" y1="-13.464" x2="10.104" y2="-13.464"/>

			<line style="fill:none;stroke:#000000;stroke-width:0.7;stroke-linecap:round;" x1="22.679" y1="-13.464" x2="22.679" y2="-13.464"/>

			<line style="fill:none;stroke:#000000;stroke-width:0.7;stroke-linecap:round;" x1="20.883" y1="-13.464" x2="20.883" y2="-13.464"/>

			<line style="fill:none;stroke:#000000;stroke-width:0.7;stroke-linecap:round;" x1="26.27" y1="-13.464" x2="26.27" y2="-13.464"/>

			<line style="fill:none;stroke:#000000;stroke-width:0.7;stroke-linecap:round;" x1="24.474" y1="-13.464" x2="24.474" y2="-13.464"/>

			<line style="fill:none;stroke:#000000;stroke-width:0.7;stroke-linecap:round;" x1="29.855" y1="-13.464" x2="29.855" y2="-13.464"/>

			<line style="fill:none;stroke:#000000;stroke-width:0.7;stroke-linecap:round;" x1="28.059" y1="-13.464" x2="28.059" y2="-13.464"/>

			<line style="fill:none;stroke:#000000;stroke-width:0.7;stroke-linecap:round;" x1="40.634" y1="-13.464" x2="40.634" y2="-13.464"/>

			<line style="fill:none;stroke:#000000;stroke-width:0.7;stroke-linecap:round;" x1="38.838" y1="-13.464" x2="38.838" y2="-13.464"/>

			<line style="fill:none;stroke:#000000;stroke-width:0.7;stroke-linecap:round;" x1="42.429" y1="-13.464" x2="42.429" y2="-13.464"/>
		<line style="fill:none;stroke:#000000;stroke-width:0.7;stroke-linecap:round;" x1="4.713" y1="-7.583" x2="4.713" y2="-7.583"/>
		<line style="fill:none;stroke:#000000;stroke-width:0.7;stroke-linecap:round;" x1="2.917" y1="-7.583" x2="2.917" y2="-7.583"/>
		<line style="fill:none;stroke:#000000;stroke-width:0.7;stroke-linecap:round;" x1="8.309" y1="-7.583" x2="8.309" y2="-7.583"/>
		<line style="fill:none;stroke:#000000;stroke-width:0.7;stroke-linecap:round;" x1="6.514" y1="-7.583" x2="6.514" y2="-7.583"/>
		<line style="fill:none;stroke:#000000;stroke-width:0.7;stroke-linecap:round;" x1="11.9" y1="-7.583" x2="11.9" y2="-7.583"/>

			<line style="fill:none;stroke:#000000;stroke-width:0.7;stroke-linecap:round;" x1="10.104" y1="-7.583" x2="10.104" y2="-7.583"/>

			<line style="fill:none;stroke:#000000;stroke-width:0.7;stroke-linecap:round;" x1="13.695" y1="-7.583" x2="13.695" y2="-7.583"/>

			<line style="fill:none;stroke:#000000;stroke-width:0.7;stroke-linecap:round;" x1="22.679" y1="-7.583" x2="22.679" y2="-7.583"/>
		<line style="fill:none;stroke:#000000;stroke-width:0.7;stroke-linecap:round;" x1="26.27" y1="-7.583" x2="26.27" y2="-7.583"/>

			<line style="fill:none;stroke:#000000;stroke-width:0.7;stroke-linecap:round;" x1="24.474" y1="-7.583" x2="24.474" y2="-7.583"/>

			<line style="fill:none;stroke:#000000;stroke-width:0.7;stroke-linecap:round;" x1="37.043" y1="-7.583" x2="37.043" y2="-7.583"/>

			<line style="fill:none;stroke:#000000;stroke-width:0.7;stroke-linecap:round;" x1="35.247" y1="-7.583" x2="35.247" y2="-7.583"/>

			<line style="fill:none;stroke:#000000;stroke-width:0.7;stroke-linecap:round;" x1="40.634" y1="-7.583" x2="40.634" y2="-7.583"/>

			<line style="fill:none;stroke:#000000;stroke-width:0.7;stroke-linecap:round;" x1="38.838" y1="-7.583" x2="38.838" y2="-7.583"/>
		<line style="fill:none;stroke:#000000;stroke-width:0.7;stroke-linecap:round;" x1="1.122" y1="-1.824" x2="1.122" y2="-1.824"/>
		<line style="fill:none;stroke:#000000;stroke-width:0.7;stroke-linecap:round;" x1="4.713" y1="-1.824" x2="4.713" y2="-1.824"/>
		<line style="fill:none;stroke:#000000;stroke-width:0.7;stroke-linecap:round;" x1="2.917" y1="-1.824" x2="2.917" y2="-1.824"/>
		<line style="fill:none;stroke:#000000;stroke-width:0.7;stroke-linecap:round;" x1="8.309" y1="-1.824" x2="8.309" y2="-1.824"/>
		<line style="fill:none;stroke:#000000;stroke-width:0.7;stroke-linecap:round;" x1="6.514" y1="-1.824" x2="6.514" y2="-1.824"/>

			<line style="fill:none;stroke:#000000;stroke-width:0.7;stroke-linecap:round;" x1="10.104" y1="-1.824" x2="10.104" y2="-1.824"/>

			<line style="fill:none;stroke:#000000;stroke-width:0.7;stroke-linecap:round;" x1="19.082" y1="-1.824" x2="19.082" y2="-1.824"/>

			<line style="fill:none;stroke:#000000;stroke-width:0.7;stroke-linecap:round;" x1="22.679" y1="-1.824" x2="22.679" y2="-1.824"/>

			<line style="fill:none;stroke:#000000;stroke-width:0.7;stroke-linecap:round;" x1="20.883" y1="-1.824" x2="20.883" y2="-1.824"/>
		<line style="fill:none;stroke:#000000;stroke-width:0.7;stroke-linecap:round;" x1="26.27" y1="-1.824" x2="26.27" y2="-1.824"/>

			<line style="fill:none;stroke:#000000;stroke-width:0.7;stroke-linecap:round;" x1="24.474" y1="-1.824" x2="24.474" y2="-1.824"/>

			<line style="fill:none;stroke:#000000;stroke-width:0.7;stroke-linecap:round;" x1="37.043" y1="-1.824" x2="37.043" y2="-1.824"/>

			<line style="fill:none;stroke:#000000;stroke-width:0.7;stroke-linecap:round;" x1="35.247" y1="-1.824" x2="35.247" y2="-1.824"/>

			<line style="fill:none;stroke:#000000;stroke-width:0.7;stroke-linecap:round;" x1="40.634" y1="-1.824" x2="40.634" y2="-1.824"/>

			<line style="fill:none;stroke:#000000;stroke-width:0.7;stroke-linecap:round;" x1="38.838" y1="-1.824" x2="38.838" y2="-1.824"/>

			<line style="fill:none;stroke:#000000;stroke-width:0.7;stroke-linecap:round;" x1="44.225" y1="-1.824" x2="44.225" y2="-1.824"/>

			<line style="fill:none;stroke:#000000;stroke-width:0.7;stroke-linecap:round;" x1="42.429" y1="-1.824" x2="42.429" y2="-1.824"/>

			<line style="fill:none;stroke:#000000;stroke-width:0.7;stroke-linecap:round;" x1="46.021" y1="-1.824" x2="46.021" y2="-1.824"/>

			<line style="fill:none;stroke:#000000;stroke-width:0.7;stroke-linecap:round;" x1="0.573" y1="-45.447" x2="0.573" y2="-45.447"/>

			<line style="fill:none;stroke:#000000;stroke-width:0.7;stroke-linecap:round;" x1="13.147" y1="-45.447" x2="13.147" y2="-45.447"/>

			<line style="fill:none;stroke:#000000;stroke-width:0.7;stroke-linecap:round;" x1="11.351" y1="-45.447" x2="11.351" y2="-45.447"/>

			<line style="fill:none;stroke:#000000;stroke-width:0.7;stroke-linecap:round;" x1="16.738" y1="-45.447" x2="16.738" y2="-45.447"/>

			<line style="fill:none;stroke:#000000;stroke-width:0.7;stroke-linecap:round;" x1="14.943" y1="-45.447" x2="14.943" y2="-45.447"/>

			<line style="fill:none;stroke:#000000;stroke-width:0.7;stroke-linecap:round;" x1="27.517" y1="-45.447" x2="27.517" y2="-45.447"/>

			<line style="fill:none;stroke:#000000;stroke-width:0.7;stroke-linecap:round;" x1="31.103" y1="-45.447" x2="31.103" y2="-45.447"/>

			<line style="fill:none;stroke:#000000;stroke-width:0.7;stroke-linecap:round;" x1="29.308" y1="-45.447" x2="29.308" y2="-45.447"/>

			<line style="fill:none;stroke:#000000;stroke-width:0.7;stroke-linecap:round;" x1="34.694" y1="-45.447" x2="34.694" y2="-45.447"/>

			<line style="fill:none;stroke:#000000;stroke-width:0.7;stroke-linecap:round;" x1="32.898" y1="-45.447" x2="32.898" y2="-45.447"/>

			<line style="fill:none;stroke:#000000;stroke-width:0.7;stroke-linecap:round;" x1="36.494" y1="-45.447" x2="36.494" y2="-45.447"/>

			<line style="fill:none;stroke:#000000;stroke-width:0.7;stroke-linecap:round;" x1="0.573" y1="-39.573" x2="0.573" y2="-39.573"/>

			<line style="fill:none;stroke:#000000;stroke-width:0.7;stroke-linecap:round;" x1="9.557" y1="-39.573" x2="9.557" y2="-39.573"/>

			<line style="fill:none;stroke:#000000;stroke-width:0.7;stroke-linecap:round;" x1="13.147" y1="-39.573" x2="13.147" y2="-39.573"/>

			<line style="fill:none;stroke:#000000;stroke-width:0.7;stroke-linecap:round;" x1="11.351" y1="-39.573" x2="11.351" y2="-39.573"/>

			<line style="fill:none;stroke:#000000;stroke-width:0.7;stroke-linecap:round;" x1="16.738" y1="-39.573" x2="16.738" y2="-39.573"/>

			<line style="fill:none;stroke:#000000;stroke-width:0.7;stroke-linecap:round;" x1="14.943" y1="-39.573" x2="14.943" y2="-39.573"/>

			<line style="fill:none;stroke:#000000;stroke-width:0.7;stroke-linecap:round;" x1="20.33" y1="-39.573" x2="20.33" y2="-39.573"/>

			<line style="fill:none;stroke:#000000;stroke-width:0.7;stroke-linecap:round;" x1="18.534" y1="-39.573" x2="18.534" y2="-39.573"/>

			<line style="fill:none;stroke:#000000;stroke-width:0.7;stroke-linecap:round;" x1="23.926" y1="-39.573" x2="23.926" y2="-39.573"/>

			<line style="fill:none;stroke:#000000;stroke-width:0.7;stroke-linecap:round;" x1="22.131" y1="-39.573" x2="22.131" y2="-39.573"/>

			<line style="fill:none;stroke:#000000;stroke-width:0.7;stroke-linecap:round;" x1="27.517" y1="-39.573" x2="27.517" y2="-39.573"/>

			<line style="fill:none;stroke:#000000;stroke-width:0.7;stroke-linecap:round;" x1="25.722" y1="-39.573" x2="25.722" y2="-39.573"/>

			<line style="fill:none;stroke:#000000;stroke-width:0.7;stroke-linecap:round;" x1="31.103" y1="-39.573" x2="31.103" y2="-39.573"/>

			<line style="fill:none;stroke:#000000;stroke-width:0.7;stroke-linecap:round;" x1="29.308" y1="-39.573" x2="29.308" y2="-39.573"/>

			<line style="fill:none;stroke:#000000;stroke-width:0.7;stroke-linecap:round;" x1="41.881" y1="-39.573" x2="41.881" y2="-39.573"/>

			<line style="fill:none;stroke:#000000;stroke-width:0.7;stroke-linecap:round;" x1="40.086" y1="-39.573" x2="40.086" y2="-39.573"/>

			<line style="fill:none;stroke:#000000;stroke-width:0.7;stroke-linecap:round;" x1="45.473" y1="-39.573" x2="45.473" y2="-39.573"/>

			<line style="fill:none;stroke:#000000;stroke-width:0.7;stroke-linecap:round;" x1="43.677" y1="-39.573" x2="43.677" y2="-39.573"/>

			<line style="fill:none;stroke:#000000;stroke-width:0.7;stroke-linecap:round;" x1="9.557" y1="-33.878" x2="9.557" y2="-33.878"/>

			<line style="fill:none;stroke:#000000;stroke-width:0.7;stroke-linecap:round;" x1="13.147" y1="-33.878" x2="13.147" y2="-33.878"/>

			<line style="fill:none;stroke:#000000;stroke-width:0.7;stroke-linecap:round;" x1="11.351" y1="-33.878" x2="11.351" y2="-33.878"/>

			<line style="fill:none;stroke:#000000;stroke-width:0.7;stroke-linecap:round;" x1="14.943" y1="-33.878" x2="14.943" y2="-33.878"/>

			<line style="fill:none;stroke:#000000;stroke-width:0.7;stroke-linecap:round;" x1="27.517" y1="-33.878" x2="27.517" y2="-33.878"/>

			<line style="fill:none;stroke:#000000;stroke-width:0.7;stroke-linecap:round;" x1="25.722" y1="-33.878" x2="25.722" y2="-33.878"/>

			<line style="fill:none;stroke:#000000;stroke-width:0.7;stroke-linecap:round;" x1="31.103" y1="-33.878" x2="31.103" y2="-33.878"/>

			<line style="fill:none;stroke:#000000;stroke-width:0.7;stroke-linecap:round;" x1="29.308" y1="-33.878" x2="29.308" y2="-33.878"/>

			<line style="fill:none;stroke:#000000;stroke-width:0.7;stroke-linecap:round;" x1="34.694" y1="-33.878" x2="34.694" y2="-33.878"/>

			<line style="fill:none;stroke:#000000;stroke-width:0.7;stroke-linecap:round;" x1="32.898" y1="-33.878" x2="32.898" y2="-33.878"/>

			<line style="fill:none;stroke:#000000;stroke-width:0.7;stroke-linecap:round;" x1="45.473" y1="-33.878" x2="45.473" y2="-33.878"/>
		<line style="fill:none;stroke:#000000;stroke-width:0.7;stroke-linecap:round;" x1="5.96" y1="-27.993" x2="5.96" y2="-27.993"/>

			<line style="fill:none;stroke:#000000;stroke-width:0.7;stroke-linecap:round;" x1="9.557" y1="-27.993" x2="9.557" y2="-27.993"/>

			<line style="fill:none;stroke:#000000;stroke-width:0.7;stroke-linecap:round;" x1="7.761" y1="-27.993" x2="7.761" y2="-27.993"/>

			<line style="fill:none;stroke:#000000;stroke-width:0.7;stroke-linecap:round;" x1="13.147" y1="-27.993" x2="13.147" y2="-27.993"/>

			<line style="fill:none;stroke:#000000;stroke-width:0.7;stroke-linecap:round;" x1="11.351" y1="-27.993" x2="11.351" y2="-27.993"/>

			<line style="fill:none;stroke:#000000;stroke-width:0.7;stroke-linecap:round;" x1="14.943" y1="-27.993" x2="14.943" y2="-27.993"/>

			<line style="fill:none;stroke:#000000;stroke-width:0.7;stroke-linecap:round;" x1="27.517" y1="-27.993" x2="27.517" y2="-27.993"/>

			<line style="fill:none;stroke:#000000;stroke-width:0.7;stroke-linecap:round;" x1="25.722" y1="-27.993" x2="25.722" y2="-27.993"/>

			<line style="fill:none;stroke:#000000;stroke-width:0.7;stroke-linecap:round;" x1="31.103" y1="-27.993" x2="31.103" y2="-27.993"/>

			<line style="fill:none;stroke:#000000;stroke-width:0.7;stroke-linecap:round;" x1="29.308" y1="-27.993" x2="29.308" y2="-27.993"/>

			<line style="fill:none;stroke:#000000;stroke-width:0.7;stroke-linecap:round;" x1="41.881" y1="-27.993" x2="41.881" y2="-27.993"/>

			<line style="fill:none;stroke:#000000;stroke-width:0.7;stroke-linecap:round;" x1="40.086" y1="-27.993" x2="40.086" y2="-27.993"/>

			<line style="fill:none;stroke:#000000;stroke-width:0.7;stroke-linecap:round;" x1="43.677" y1="-27.993" x2="43.677" y2="-27.993"/>

			<line style="fill:none;stroke:#000000;stroke-width:0.7;stroke-linecap:round;" x1="2.369" y1="-22.173" x2="2.369" y2="-22.173"/>

			<line style="fill:none;stroke:#000000;stroke-width:0.7;stroke-linecap:round;" x1="0.573" y1="-22.173" x2="0.573" y2="-22.173"/>
		<line style="fill:none;stroke:#000000;stroke-width:0.7;stroke-linecap:round;" x1="5.96" y1="-22.173" x2="5.96" y2="-22.173"/>

			<line style="fill:none;stroke:#000000;stroke-width:0.7;stroke-linecap:round;" x1="4.165" y1="-22.173" x2="4.165" y2="-22.173"/>

			<line style="fill:none;stroke:#000000;stroke-width:0.7;stroke-linecap:round;" x1="9.557" y1="-22.173" x2="9.557" y2="-22.173"/>

			<line style="fill:none;stroke:#000000;stroke-width:0.7;stroke-linecap:round;" x1="7.761" y1="-22.173" x2="7.761" y2="-22.173"/>

			<line style="fill:none;stroke:#000000;stroke-width:0.7;stroke-linecap:round;" x1="11.351" y1="-22.173" x2="11.351" y2="-22.173"/>

			<line style="fill:none;stroke:#000000;stroke-width:0.7;stroke-linecap:round;" x1="23.926" y1="-22.173" x2="23.926" y2="-22.173"/>

			<line style="fill:none;stroke:#000000;stroke-width:0.7;stroke-linecap:round;" x1="22.131" y1="-22.173" x2="22.131" y2="-22.173"/>

			<line style="fill:none;stroke:#000000;stroke-width:0.7;stroke-linecap:round;" x1="27.517" y1="-22.173" x2="27.517" y2="-22.173"/>

			<line style="fill:none;stroke:#000000;stroke-width:0.7;stroke-linecap:round;" x1="25.722" y1="-22.173" x2="25.722" y2="-22.173"/>

			<line style="fill:none;stroke:#000000;stroke-width:0.7;stroke-linecap:round;" x1="31.103" y1="-22.173" x2="31.103" y2="-22.173"/>

			<line style="fill:none;stroke:#000000;stroke-width:0.7;stroke-linecap:round;" x1="29.308" y1="-22.173" x2="29.308" y2="-22.173"/>

			<line style="fill:none;stroke:#000000;stroke-width:0.7;stroke-linecap:round;" x1="32.898" y1="-22.173" x2="32.898" y2="-22.173"/>

			<line style="fill:none;stroke:#000000;stroke-width:0.7;stroke-linecap:round;" x1="41.881" y1="-22.173" x2="41.881" y2="-22.173"/>

			<line style="fill:none;stroke:#000000;stroke-width:0.7;stroke-linecap:round;" x1="45.473" y1="-22.173" x2="45.473" y2="-22.173"/>

			<line style="fill:none;stroke:#000000;stroke-width:0.7;stroke-linecap:round;" x1="43.677" y1="-22.173" x2="43.677" y2="-22.173"/>

			<line style="fill:none;stroke:#000000;stroke-width:0.7;stroke-linecap:round;" x1="2.369" y1="-16.413" x2="2.369" y2="-16.413"/>

			<line style="fill:none;stroke:#000000;stroke-width:0.7;stroke-linecap:round;" x1="0.573" y1="-16.413" x2="0.573" y2="-16.413"/>
		<line style="fill:none;stroke:#000000;stroke-width:0.7;stroke-linecap:round;" x1="5.96" y1="-16.413" x2="5.96" y2="-16.413"/>

			<line style="fill:none;stroke:#000000;stroke-width:0.7;stroke-linecap:round;" x1="4.165" y1="-16.413" x2="4.165" y2="-16.413"/>

			<line style="fill:none;stroke:#000000;stroke-width:0.7;stroke-linecap:round;" x1="7.761" y1="-16.413" x2="7.761" y2="-16.413"/>

			<line style="fill:none;stroke:#000000;stroke-width:0.7;stroke-linecap:round;" x1="16.738" y1="-16.413" x2="16.738" y2="-16.413"/>

			<line style="fill:none;stroke:#000000;stroke-width:0.7;stroke-linecap:round;" x1="20.33" y1="-16.413" x2="20.33" y2="-16.413"/>

			<line style="fill:none;stroke:#000000;stroke-width:0.7;stroke-linecap:round;" x1="18.534" y1="-16.413" x2="18.534" y2="-16.413"/>

			<line style="fill:none;stroke:#000000;stroke-width:0.7;stroke-linecap:round;" x1="23.926" y1="-16.413" x2="23.926" y2="-16.413"/>

			<line style="fill:none;stroke:#000000;stroke-width:0.7;stroke-linecap:round;" x1="22.131" y1="-16.413" x2="22.131" y2="-16.413"/>

			<line style="fill:none;stroke:#000000;stroke-width:0.7;stroke-linecap:round;" x1="25.722" y1="-16.413" x2="25.722" y2="-16.413"/>

			<line style="fill:none;stroke:#000000;stroke-width:0.7;stroke-linecap:round;" x1="34.694" y1="-16.413" x2="34.694" y2="-16.413"/>

			<line style="fill:none;stroke:#000000;stroke-width:0.7;stroke-linecap:round;" x1="38.29" y1="-16.413" x2="38.29" y2="-16.413"/>

			<line style="fill:none;stroke:#000000;stroke-width:0.7;stroke-linecap:round;" x1="36.494" y1="-16.413" x2="36.494" y2="-16.413"/>

			<line style="fill:none;stroke:#000000;stroke-width:0.7;stroke-linecap:round;" x1="41.881" y1="-16.413" x2="41.881" y2="-16.413"/>

			<line style="fill:none;stroke:#000000;stroke-width:0.7;stroke-linecap:round;" x1="40.086" y1="-16.413" x2="40.086" y2="-16.413"/>

			<line style="fill:none;stroke:#000000;stroke-width:0.7;stroke-linecap:round;" x1="45.473" y1="-16.413" x2="45.473" y2="-16.413"/>

			<line style="fill:none;stroke:#000000;stroke-width:0.7;stroke-linecap:round;" x1="43.677" y1="-16.413" x2="43.677" y2="-16.413"/>

			<line style="fill:none;stroke:#000000;stroke-width:0.7;stroke-linecap:round;" x1="2.369" y1="-10.533" x2="2.369" y2="-10.533"/>

			<line style="fill:none;stroke:#000000;stroke-width:0.7;stroke-linecap:round;" x1="0.573" y1="-10.533" x2="0.573" y2="-10.533"/>

			<line style="fill:none;stroke:#000000;stroke-width:0.7;stroke-linecap:round;" x1="4.165" y1="-10.533" x2="4.165" y2="-10.533"/>

			<line style="fill:none;stroke:#000000;stroke-width:0.7;stroke-linecap:round;" x1="13.147" y1="-10.533" x2="13.147" y2="-10.533"/>

			<line style="fill:none;stroke:#000000;stroke-width:0.7;stroke-linecap:round;" x1="16.738" y1="-10.533" x2="16.738" y2="-10.533"/>

			<line style="fill:none;stroke:#000000;stroke-width:0.7;stroke-linecap:round;" x1="14.943" y1="-10.533" x2="14.943" y2="-10.533"/>

			<line style="fill:none;stroke:#000000;stroke-width:0.7;stroke-linecap:round;" x1="18.534" y1="-10.533" x2="18.534" y2="-10.533"/>

			<line style="fill:none;stroke:#000000;stroke-width:0.7;stroke-linecap:round;" x1="31.103" y1="-10.533" x2="31.103" y2="-10.533"/>

			<line style="fill:none;stroke:#000000;stroke-width:0.7;stroke-linecap:round;" x1="29.308" y1="-10.533" x2="29.308" y2="-10.533"/>

			<line style="fill:none;stroke:#000000;stroke-width:0.7;stroke-linecap:round;" x1="34.694" y1="-10.533" x2="34.694" y2="-10.533"/>

			<line style="fill:none;stroke:#000000;stroke-width:0.7;stroke-linecap:round;" x1="32.898" y1="-10.533" x2="32.898" y2="-10.533"/>

			<line style="fill:none;stroke:#000000;stroke-width:0.7;stroke-linecap:round;" x1="45.473" y1="-10.533" x2="45.473" y2="-10.533"/>

			<line style="fill:none;stroke:#000000;stroke-width:0.7;stroke-linecap:round;" x1="43.677" y1="-10.533" x2="43.677" y2="-10.533"/>
		<line style="fill:none;stroke:#000000;stroke-width:0.7;stroke-linecap:round;" x1="2.369" y1="-4.773" x2="2.369" y2="-4.773"/>
		<line style="fill:none;stroke:#000000;stroke-width:0.7;stroke-linecap:round;" x1="0.573" y1="-4.773" x2="0.573" y2="-4.773"/>
		<line style="fill:none;stroke:#000000;stroke-width:0.7;stroke-linecap:round;" x1="5.96" y1="-4.773" x2="5.96" y2="-4.773"/>
		<line style="fill:none;stroke:#000000;stroke-width:0.7;stroke-linecap:round;" x1="4.165" y1="-4.773" x2="4.165" y2="-4.773"/>

			<line style="fill:none;stroke:#000000;stroke-width:0.7;stroke-linecap:round;" x1="16.738" y1="-4.773" x2="16.738" y2="-4.773"/>
		<line style="fill:none;stroke:#000000;stroke-width:0.7;stroke-linecap:round;" x1="20.33" y1="-4.773" x2="20.33" y2="-4.773"/>

			<line style="fill:none;stroke:#000000;stroke-width:0.7;stroke-linecap:round;" x1="18.534" y1="-4.773" x2="18.534" y2="-4.773"/>

			<line style="fill:none;stroke:#000000;stroke-width:0.7;stroke-linecap:round;" x1="23.926" y1="-4.773" x2="23.926" y2="-4.773"/>

			<line style="fill:none;stroke:#000000;stroke-width:0.7;stroke-linecap:round;" x1="22.131" y1="-4.773" x2="22.131" y2="-4.773"/>

			<line style="fill:none;stroke:#000000;stroke-width:0.7;stroke-linecap:round;" x1="27.517" y1="-4.773" x2="27.517" y2="-4.773"/>

			<line style="fill:none;stroke:#000000;stroke-width:0.7;stroke-linecap:round;" x1="25.722" y1="-4.773" x2="25.722" y2="-4.773"/>

			<line style="fill:none;stroke:#000000;stroke-width:0.7;stroke-linecap:round;" x1="31.103" y1="-4.773" x2="31.103" y2="-4.773"/>

			<line style="fill:none;stroke:#000000;stroke-width:0.7;stroke-linecap:round;" x1="29.308" y1="-4.773" x2="29.308" y2="-4.773"/>

			<line style="fill:none;stroke:#000000;stroke-width:0.7;stroke-linecap:round;" x1="41.881" y1="-4.773" x2="41.881" y2="-4.773"/>

			<line style="fill:none;stroke:#000000;stroke-width:0.7;stroke-linecap:round;" x1="45.473" y1="-4.773" x2="45.473" y2="-4.773"/>

			<line style="fill:none;stroke:#000000;stroke-width:0.7;stroke-linecap:round;" x1="43.677" y1="-4.773" x2="43.677" y2="-4.773"/>
	</g>
</svg>
