<?xml version="1.0"?>
<!-- Converted with SVG Converter - Version 0.9.5 (Compiled Fri Feb 21 09:53:38 2020) - Copyright (C) 2011 Nokia -->
<svg xmlns="http://www.w3.org/2000/svg" y="0px" baseProfile="tiny" xml:space="preserve" width="46.75" version="1.1" x="0px" viewBox="0 -46.75 46.75 46.75" xmlns:xlink="http://www.w3.org/1999/xlink" height="46.75">
 <g>
  <rect y="-46.75" width="46.75" style="fill:none;" height="46.75"/>
  <line x1="37.819" x2="45.638" y2="-45.444" style="fill:none;stroke:#000000;stroke-width:0.3;" y1="-45.444"/>
  <line x1="18.069" x2="25.888" y2="-45.444" style="fill:none;stroke:#000000;stroke-width:0.3;" y1="-45.444"/>
  <line x1="2.369" x2="9.25" y2="-45.444" style="fill:none;stroke:#000000;stroke-width:0.3;" y1="-45.444"/>
  <line x1="36.494" x2="43.388" y2="-33.819" style="fill:none;stroke:#000000;stroke-width:0.3;" y1="-33.819"/>
  <line x1="23.638" x2="16.738" y2="-33.819" style="fill:none;stroke:#000000;stroke-width:0.3;" y1="-33.819"/>
  <line x1="7.761" x2="0.706" y2="-33.819" style="fill:none;stroke:#000000;stroke-width:0.3;" y1="-33.819"/>
  <line x1="38.838" x2="45.941" y2="-19.167" style="fill:none;stroke:#000000;stroke-width:0.3;" y1="-19.167"/>
  <line x1="26.27" x2="19.124" y2="-19.167" style="fill:none;stroke:#000000;stroke-width:0.3;" y1="-19.167"/>
  <line x1="10.304" x2="4.713" y2="-19.167" style="fill:none;stroke:#000000;stroke-width:0.3;" y1="-19.167"/>
  <line x1="33.249" x2="40.086" y2="-4.855" style="fill:none;stroke:#000000;stroke-width:0.3;" y1="-4.855"/>
  <line x1="14.544" x2="7.761" y2="-4.855" style="fill:none;stroke:#000000;stroke-width:0.3;" y1="-4.855"/>
  <line x1="10.104" x2="17" y2="-42.479" style="fill:none;stroke:#000000;stroke-width:0.3;" y1="-42.479"/>
  <line x1="24.474" x2="31.65" y2="-42.479" style="fill:none;stroke:#000000;stroke-width:0.3;" y1="-42.479"/>
  <line x1="38.494" x2="32.898" y2="-39.551" style="fill:none;stroke:#000000;stroke-width:0.3;" y1="-39.551"/>
  <line x1="7.987" x2="1.692" y2="-39.614" style="fill:none;stroke:#000000;stroke-width:0.3;" y1="-39.614"/>
  <line x1="11.561" x2="17.286" y2="-36.614" style="fill:none;stroke:#000000;stroke-width:0.3;" y1="-36.614"/>
  <line x1="42.429" x2="46.75" y2="-36.614" style="fill:none;stroke:#000000;stroke-width:0.3;" y1="-36.614"/>
  <line x1="26.199" x2="31.65" y2="-30.864" style="fill:none;stroke:#000000;stroke-width:0.3;" y1="-30.864"/>
  <line x1="10.619" x2="4.324" y2="-30.864" style="fill:none;stroke:#000000;stroke-width:0.3;" y1="-30.864"/>
  <line x1="16.738" x2="23.448" y2="-27.981" style="fill:none;stroke:#000000;stroke-width:0.3;" y1="-27.981"/>
  <line x1="3.948" x2="0" y2="-27.981" style="fill:none;stroke:#000000;stroke-width:0.3;" y1="-27.981"/>
  <line x1="38.456" x2="32.898" y2="-27.981" style="fill:none;stroke:#000000;stroke-width:0.3;" y1="-27.981"/>
  <line x1="33.698" x2="28.059" y2="-24.981" style="fill:none;stroke:#000000;stroke-width:0.3;" y1="-24.981"/>
  <line x1="10.323" x2="4.029" y2="-24.981" style="fill:none;stroke:#000000;stroke-width:0.3;" y1="-24.981"/>
  <line x1="20.33" x2="12.779" y2="-22.231" style="fill:none;stroke:#000000;stroke-width:0.3;" y1="-22.231"/>
  <line x1="40.323" x2="34.694" y2="-22.231" style="fill:none;stroke:#000000;stroke-width:0.3;" y1="-22.231"/>
  <line x1="27.529" x2="32.898" y2="-16.231" style="fill:none;stroke:#000000;stroke-width:0.3;" y1="-16.231"/>
  <line x1="15.323" x2="9.029" y2="-16.231" style="fill:none;stroke:#000000;stroke-width:0.3;" y1="-16.231"/>
  <line x1="2.82" x2="0" y2="-13.481" style="fill:none;stroke:#000000;stroke-width:0.3;" y1="-13.481"/>
  <line x1="19.235" x2="13.695" y2="-13.481" style="fill:none;stroke:#000000;stroke-width:0.3;" y1="-13.481"/>
  <line x1="31.65" x2="37.235" y2="-13.481" style="fill:none;stroke:#000000;stroke-width:0.3;" y1="-13.481"/>
  <line x1="20.33" x2="27.86" y2="-10.481" style="fill:none;stroke:#000000;stroke-width:0.3;" y1="-10.481"/>
  <line x1="36.494" x2="42.11" y2="-10.481" style="fill:none;stroke:#000000;stroke-width:0.3;" y1="-10.481"/>
  <line x1="15.354" x2="20.883" y2="-7.565" style="fill:none;stroke:#000000;stroke-width:0.3;" y1="-7.565"/>
  <line x1="0" x2="1.024" y2="-7.565" style="fill:none;stroke:#000000;stroke-width:0.3;" y1="-7.565"/>
  <line x1="33.649" x2="28.059" y2="-7.565" style="fill:none;stroke:#000000;stroke-width:0.3;" y1="-7.565"/>
  <line x1="33.446" x2="28.059" y2="-1.815" style="fill:none;stroke:#000000;stroke-width:0.3;" y1="-1.815"/>
  <line x1="17.286" x2="11.9" y2="-1.815" style="fill:none;stroke:#000000;stroke-width:0.3;" y1="-1.815"/>
  <line x1="11.485" x2="5.96" y2="-10.356" style="fill:none;stroke:#000000;stroke-width:0.3;" y1="-10.356"/>
  <line x1="45.323" x2="46.75" y2="-27.981" style="fill:none;stroke:#000000;stroke-width:0.3;" y1="-27.981"/>
  <line x1="43.4" x2="46.75" y2="-13.481" style="fill:none;stroke:#000000;stroke-width:0.3;" y1="-13.481"/>
  <line x1="42.172" x2="46.75" y2="-7.565" style="fill:none;stroke:#000000;stroke-width:0.3;" y1="-7.565"/>
  <line x1="1.122" x2="1.122" y2="-42.499" style="fill:none;stroke:#000000;stroke-width:0.7;stroke-linecap:round;" y1="-42.499"/>
  <line x1="4.713" x2="4.713" y2="-42.499" style="fill:none;stroke:#000000;stroke-width:0.7;stroke-linecap:round;" y1="-42.499"/>
  <line x1="2.917" x2="2.917" y2="-42.499" style="fill:none;stroke:#000000;stroke-width:0.7;stroke-linecap:round;" y1="-42.499"/>
  <line x1="8.309" x2="8.309" y2="-42.499" style="fill:none;stroke:#000000;stroke-width:0.7;stroke-linecap:round;" y1="-42.499"/>
  <line x1="6.514" x2="6.514" y2="-42.499" style="fill:none;stroke:#000000;stroke-width:0.7;stroke-linecap:round;" y1="-42.499"/>
  <line x1="19.082" x2="19.082" y2="-42.499" style="fill:none;stroke:#000000;stroke-width:0.7;stroke-linecap:round;" y1="-42.499"/>
  <line x1="22.679" x2="22.679" y2="-42.499" style="fill:none;stroke:#000000;stroke-width:0.7;stroke-linecap:round;" y1="-42.499"/>
  <line x1="20.883" x2="20.883" y2="-42.499" style="fill:none;stroke:#000000;stroke-width:0.7;stroke-linecap:round;" y1="-42.499"/>
  <line x1="33.446" x2="33.446" y2="-42.499" style="fill:none;stroke:#000000;stroke-width:0.7;stroke-linecap:round;" y1="-42.499"/>
  <line x1="37.043" x2="37.043" y2="-42.499" style="fill:none;stroke:#000000;stroke-width:0.7;stroke-linecap:round;" y1="-42.499"/>
  <line x1="35.247" x2="35.247" y2="-42.499" style="fill:none;stroke:#000000;stroke-width:0.7;stroke-linecap:round;" y1="-42.499"/>
  <line x1="40.634" x2="40.634" y2="-42.499" style="fill:none;stroke:#000000;stroke-width:0.7;stroke-linecap:round;" y1="-42.499"/>
  <line x1="38.838" x2="38.838" y2="-42.499" style="fill:none;stroke:#000000;stroke-width:0.7;stroke-linecap:round;" y1="-42.499"/>
  <line x1="44.225" x2="44.225" y2="-42.499" style="fill:none;stroke:#000000;stroke-width:0.7;stroke-linecap:round;" y1="-42.499"/>
  <line x1="42.429" x2="42.429" y2="-42.499" style="fill:none;stroke:#000000;stroke-width:0.7;stroke-linecap:round;" y1="-42.499"/>
  <line x1="46.021" x2="46.021" y2="-42.499" style="fill:none;stroke:#000000;stroke-width:0.7;stroke-linecap:round;" y1="-42.499"/>
  <line x1="1.122" x2="1.122" y2="-36.624" style="fill:none;stroke:#000000;stroke-width:0.7;stroke-linecap:round;" y1="-36.624"/>
  <line x1="4.713" x2="4.713" y2="-36.624" style="fill:none;stroke:#000000;stroke-width:0.7;stroke-linecap:round;" y1="-36.624"/>
  <line x1="2.917" x2="2.917" y2="-36.624" style="fill:none;stroke:#000000;stroke-width:0.7;stroke-linecap:round;" y1="-36.624"/>
  <line x1="8.309" x2="8.309" y2="-36.624" style="fill:none;stroke:#000000;stroke-width:0.7;stroke-linecap:round;" y1="-36.624"/>
  <line x1="6.514" x2="6.514" y2="-36.624" style="fill:none;stroke:#000000;stroke-width:0.7;stroke-linecap:round;" y1="-36.624"/>
  <line x1="10.104" x2="10.104" y2="-36.624" style="fill:none;stroke:#000000;stroke-width:0.7;stroke-linecap:round;" y1="-36.624"/>
  <line x1="19.082" x2="19.082" y2="-36.624" style="fill:none;stroke:#000000;stroke-width:0.7;stroke-linecap:round;" y1="-36.624"/>
  <line x1="22.679" x2="22.679" y2="-36.624" style="fill:none;stroke:#000000;stroke-width:0.7;stroke-linecap:round;" y1="-36.624"/>
  <line x1="20.883" x2="20.883" y2="-36.624" style="fill:none;stroke:#000000;stroke-width:0.7;stroke-linecap:round;" y1="-36.624"/>
  <line x1="26.27" x2="26.27" y2="-36.624" style="fill:none;stroke:#000000;stroke-width:0.7;stroke-linecap:round;" y1="-36.624"/>
  <line x1="24.474" x2="24.474" y2="-36.624" style="fill:none;stroke:#000000;stroke-width:0.7;stroke-linecap:round;" y1="-36.624"/>
  <line x1="29.855" x2="29.855" y2="-36.624" style="fill:none;stroke:#000000;stroke-width:0.7;stroke-linecap:round;" y1="-36.624"/>
  <line x1="28.059" x2="28.059" y2="-36.624" style="fill:none;stroke:#000000;stroke-width:0.7;stroke-linecap:round;" y1="-36.624"/>
  <line x1="33.446" x2="33.446" y2="-36.624" style="fill:none;stroke:#000000;stroke-width:0.7;stroke-linecap:round;" y1="-36.624"/>
  <line x1="31.65" x2="31.65" y2="-36.624" style="fill:none;stroke:#000000;stroke-width:0.7;stroke-linecap:round;" y1="-36.624"/>
  <line x1="37.043" x2="37.043" y2="-36.624" style="fill:none;stroke:#000000;stroke-width:0.7;stroke-linecap:round;" y1="-36.624"/>
  <line x1="35.247" x2="35.247" y2="-36.624" style="fill:none;stroke:#000000;stroke-width:0.7;stroke-linecap:round;" y1="-36.624"/>
  <line x1="40.634" x2="40.634" y2="-36.624" style="fill:none;stroke:#000000;stroke-width:0.7;stroke-linecap:round;" y1="-36.624"/>
  <line x1="38.838" x2="38.838" y2="-36.624" style="fill:none;stroke:#000000;stroke-width:0.7;stroke-linecap:round;" y1="-36.624"/>
  <line x1="1.122" x2="1.122" y2="-30.929" style="fill:none;stroke:#000000;stroke-width:0.7;stroke-linecap:round;" y1="-30.929"/>
  <line x1="2.917" x2="2.917" y2="-30.929" style="fill:none;stroke:#000000;stroke-width:0.7;stroke-linecap:round;" y1="-30.929"/>
  <line x1="11.9" x2="11.9" y2="-30.929" style="fill:none;stroke:#000000;stroke-width:0.7;stroke-linecap:round;" y1="-30.929"/>
  <line x1="15.491" x2="15.491" y2="-30.929" style="fill:none;stroke:#000000;stroke-width:0.7;stroke-linecap:round;" y1="-30.929"/>
  <line x1="13.695" x2="13.695" y2="-30.929" style="fill:none;stroke:#000000;stroke-width:0.7;stroke-linecap:round;" y1="-30.929"/>
  <line x1="19.082" x2="19.082" y2="-30.929" style="fill:none;stroke:#000000;stroke-width:0.7;stroke-linecap:round;" y1="-30.929"/>
  <line x1="17.286" x2="17.286" y2="-30.929" style="fill:none;stroke:#000000;stroke-width:0.7;stroke-linecap:round;" y1="-30.929"/>
  <line x1="22.679" x2="22.679" y2="-30.929" style="fill:none;stroke:#000000;stroke-width:0.7;stroke-linecap:round;" y1="-30.929"/>
  <line x1="20.883" x2="20.883" y2="-30.929" style="fill:none;stroke:#000000;stroke-width:0.7;stroke-linecap:round;" y1="-30.929"/>
  <line x1="24.474" x2="24.474" y2="-30.929" style="fill:none;stroke:#000000;stroke-width:0.7;stroke-linecap:round;" y1="-30.929"/>
  <line x1="33.446" x2="33.446" y2="-30.929" style="fill:none;stroke:#000000;stroke-width:0.7;stroke-linecap:round;" y1="-30.929"/>
  <line x1="37.043" x2="37.043" y2="-30.929" style="fill:none;stroke:#000000;stroke-width:0.7;stroke-linecap:round;" y1="-30.929"/>
  <line x1="35.247" x2="35.247" y2="-30.929" style="fill:none;stroke:#000000;stroke-width:0.7;stroke-linecap:round;" y1="-30.929"/>
  <line x1="40.634" x2="40.634" y2="-30.929" style="fill:none;stroke:#000000;stroke-width:0.7;stroke-linecap:round;" y1="-30.929"/>
  <line x1="38.838" x2="38.838" y2="-30.929" style="fill:none;stroke:#000000;stroke-width:0.7;stroke-linecap:round;" y1="-30.929"/>
  <line x1="44.225" x2="44.225" y2="-30.929" style="fill:none;stroke:#000000;stroke-width:0.7;stroke-linecap:round;" y1="-30.929"/>
  <line x1="42.429" x2="42.429" y2="-30.929" style="fill:none;stroke:#000000;stroke-width:0.7;stroke-linecap:round;" y1="-30.929"/>
  <line x1="46.021" x2="46.021" y2="-30.929" style="fill:none;stroke:#000000;stroke-width:0.7;stroke-linecap:round;" y1="-30.929"/>
  <line x1="1.122" x2="1.122" y2="-25.044" style="fill:none;stroke:#000000;stroke-width:0.7;stroke-linecap:round;" y1="-25.044"/>
  <line x1="2.917" x2="2.917" y2="-25.044" style="fill:none;stroke:#000000;stroke-width:0.7;stroke-linecap:round;" y1="-25.044"/>
  <line x1="11.9" x2="11.9" y2="-25.044" style="fill:none;stroke:#000000;stroke-width:0.7;stroke-linecap:round;" y1="-25.044"/>
  <line x1="15.491" x2="15.491" y2="-25.044" style="fill:none;stroke:#000000;stroke-width:0.7;stroke-linecap:round;" y1="-25.044"/>
  <line x1="13.695" x2="13.695" y2="-25.044" style="fill:none;stroke:#000000;stroke-width:0.7;stroke-linecap:round;" y1="-25.044"/>
  <line x1="19.082" x2="19.082" y2="-25.044" style="fill:none;stroke:#000000;stroke-width:0.7;stroke-linecap:round;" y1="-25.044"/>
  <line x1="17.286" x2="17.286" y2="-25.044" style="fill:none;stroke:#000000;stroke-width:0.7;stroke-linecap:round;" y1="-25.044"/>
  <line x1="22.679" x2="22.679" y2="-25.044" style="fill:none;stroke:#000000;stroke-width:0.7;stroke-linecap:round;" y1="-25.044"/>
  <line x1="20.883" x2="20.883" y2="-25.044" style="fill:none;stroke:#000000;stroke-width:0.7;stroke-linecap:round;" y1="-25.044"/>
  <line x1="26.27" x2="26.27" y2="-25.044" style="fill:none;stroke:#000000;stroke-width:0.7;stroke-linecap:round;" y1="-25.044"/>
  <line x1="24.474" x2="24.474" y2="-25.044" style="fill:none;stroke:#000000;stroke-width:0.7;stroke-linecap:round;" y1="-25.044"/>
  <line x1="37.043" x2="37.043" y2="-25.044" style="fill:none;stroke:#000000;stroke-width:0.7;stroke-linecap:round;" y1="-25.044"/>
  <line x1="35.247" x2="35.247" y2="-25.044" style="fill:none;stroke:#000000;stroke-width:0.7;stroke-linecap:round;" y1="-25.044"/>
  <line x1="40.634" x2="40.634" y2="-25.044" style="fill:none;stroke:#000000;stroke-width:0.7;stroke-linecap:round;" y1="-25.044"/>
  <line x1="38.838" x2="38.838" y2="-25.044" style="fill:none;stroke:#000000;stroke-width:0.7;stroke-linecap:round;" y1="-25.044"/>
  <line x1="44.225" x2="44.225" y2="-25.044" style="fill:none;stroke:#000000;stroke-width:0.7;stroke-linecap:round;" y1="-25.044"/>
  <line x1="42.429" x2="42.429" y2="-25.044" style="fill:none;stroke:#000000;stroke-width:0.7;stroke-linecap:round;" y1="-25.044"/>
  <line x1="46.021" x2="46.021" y2="-25.044" style="fill:none;stroke:#000000;stroke-width:0.7;stroke-linecap:round;" y1="-25.044"/>
  <line x1="1.122" x2="1.122" y2="-19.224" style="fill:none;stroke:#000000;stroke-width:0.7;stroke-linecap:round;" y1="-19.224"/>
  <line x1="2.917" x2="2.917" y2="-19.224" style="fill:none;stroke:#000000;stroke-width:0.7;stroke-linecap:round;" y1="-19.224"/>
  <line x1="11.9" x2="11.9" y2="-19.224" style="fill:none;stroke:#000000;stroke-width:0.7;stroke-linecap:round;" y1="-19.224"/>
  <line x1="15.491" x2="15.491" y2="-19.224" style="fill:none;stroke:#000000;stroke-width:0.7;stroke-linecap:round;" y1="-19.224"/>
  <line x1="13.695" x2="13.695" y2="-19.224" style="fill:none;stroke:#000000;stroke-width:0.7;stroke-linecap:round;" y1="-19.224"/>
  <line x1="17.286" x2="17.286" y2="-19.224" style="fill:none;stroke:#000000;stroke-width:0.7;stroke-linecap:round;" y1="-19.224"/>
  <line x1="29.855" x2="29.855" y2="-19.224" style="fill:none;stroke:#000000;stroke-width:0.7;stroke-linecap:round;" y1="-19.224"/>
  <line x1="28.059" x2="28.059" y2="-19.224" style="fill:none;stroke:#000000;stroke-width:0.7;stroke-linecap:round;" y1="-19.224"/>
  <line x1="33.446" x2="33.446" y2="-19.224" style="fill:none;stroke:#000000;stroke-width:0.7;stroke-linecap:round;" y1="-19.224"/>
  <line x1="31.65" x2="31.65" y2="-19.224" style="fill:none;stroke:#000000;stroke-width:0.7;stroke-linecap:round;" y1="-19.224"/>
  <line x1="37.043" x2="37.043" y2="-19.224" style="fill:none;stroke:#000000;stroke-width:0.7;stroke-linecap:round;" y1="-19.224"/>
  <line x1="35.247" x2="35.247" y2="-19.224" style="fill:none;stroke:#000000;stroke-width:0.7;stroke-linecap:round;" y1="-19.224"/>
  <line x1="4.713" x2="4.713" y2="-13.464" style="fill:none;stroke:#000000;stroke-width:0.7;stroke-linecap:round;" y1="-13.464"/>
  <line x1="8.309" x2="8.309" y2="-13.464" style="fill:none;stroke:#000000;stroke-width:0.7;stroke-linecap:round;" y1="-13.464"/>
  <line x1="6.514" x2="6.514" y2="-13.464" style="fill:none;stroke:#000000;stroke-width:0.7;stroke-linecap:round;" y1="-13.464"/>
  <line x1="11.9" x2="11.9" y2="-13.464" style="fill:none;stroke:#000000;stroke-width:0.7;stroke-linecap:round;" y1="-13.464"/>
  <line x1="10.104" x2="10.104" y2="-13.464" style="fill:none;stroke:#000000;stroke-width:0.7;stroke-linecap:round;" y1="-13.464"/>
  <line x1="22.679" x2="22.679" y2="-13.464" style="fill:none;stroke:#000000;stroke-width:0.7;stroke-linecap:round;" y1="-13.464"/>
  <line x1="20.883" x2="20.883" y2="-13.464" style="fill:none;stroke:#000000;stroke-width:0.7;stroke-linecap:round;" y1="-13.464"/>
  <line x1="26.27" x2="26.27" y2="-13.464" style="fill:none;stroke:#000000;stroke-width:0.7;stroke-linecap:round;" y1="-13.464"/>
  <line x1="24.474" x2="24.474" y2="-13.464" style="fill:none;stroke:#000000;stroke-width:0.7;stroke-linecap:round;" y1="-13.464"/>
  <line x1="29.855" x2="29.855" y2="-13.464" style="fill:none;stroke:#000000;stroke-width:0.7;stroke-linecap:round;" y1="-13.464"/>
  <line x1="28.059" x2="28.059" y2="-13.464" style="fill:none;stroke:#000000;stroke-width:0.7;stroke-linecap:round;" y1="-13.464"/>
  <line x1="40.634" x2="40.634" y2="-13.464" style="fill:none;stroke:#000000;stroke-width:0.7;stroke-linecap:round;" y1="-13.464"/>
  <line x1="38.838" x2="38.838" y2="-13.464" style="fill:none;stroke:#000000;stroke-width:0.7;stroke-linecap:round;" y1="-13.464"/>
  <line x1="42.429" x2="42.429" y2="-13.464" style="fill:none;stroke:#000000;stroke-width:0.7;stroke-linecap:round;" y1="-13.464"/>
  <line x1="4.713" x2="4.713" y2="-7.583" style="fill:none;stroke:#000000;stroke-width:0.7;stroke-linecap:round;" y1="-7.583"/>
  <line x1="2.917" x2="2.917" y2="-7.583" style="fill:none;stroke:#000000;stroke-width:0.7;stroke-linecap:round;" y1="-7.583"/>
  <line x1="8.309" x2="8.309" y2="-7.583" style="fill:none;stroke:#000000;stroke-width:0.7;stroke-linecap:round;" y1="-7.583"/>
  <line x1="6.514" x2="6.514" y2="-7.583" style="fill:none;stroke:#000000;stroke-width:0.7;stroke-linecap:round;" y1="-7.583"/>
  <line x1="11.9" x2="11.9" y2="-7.583" style="fill:none;stroke:#000000;stroke-width:0.7;stroke-linecap:round;" y1="-7.583"/>
  <line x1="10.104" x2="10.104" y2="-7.583" style="fill:none;stroke:#000000;stroke-width:0.7;stroke-linecap:round;" y1="-7.583"/>
  <line x1="13.695" x2="13.695" y2="-7.583" style="fill:none;stroke:#000000;stroke-width:0.7;stroke-linecap:round;" y1="-7.583"/>
  <line x1="22.679" x2="22.679" y2="-7.583" style="fill:none;stroke:#000000;stroke-width:0.7;stroke-linecap:round;" y1="-7.583"/>
  <line x1="26.27" x2="26.27" y2="-7.583" style="fill:none;stroke:#000000;stroke-width:0.7;stroke-linecap:round;" y1="-7.583"/>
  <line x1="24.474" x2="24.474" y2="-7.583" style="fill:none;stroke:#000000;stroke-width:0.7;stroke-linecap:round;" y1="-7.583"/>
  <line x1="37.043" x2="37.043" y2="-7.583" style="fill:none;stroke:#000000;stroke-width:0.7;stroke-linecap:round;" y1="-7.583"/>
  <line x1="35.247" x2="35.247" y2="-7.583" style="fill:none;stroke:#000000;stroke-width:0.7;stroke-linecap:round;" y1="-7.583"/>
  <line x1="40.634" x2="40.634" y2="-7.583" style="fill:none;stroke:#000000;stroke-width:0.7;stroke-linecap:round;" y1="-7.583"/>
  <line x1="38.838" x2="38.838" y2="-7.583" style="fill:none;stroke:#000000;stroke-width:0.7;stroke-linecap:round;" y1="-7.583"/>
  <line x1="1.122" x2="1.122" y2="-1.824" style="fill:none;stroke:#000000;stroke-width:0.7;stroke-linecap:round;" y1="-1.824"/>
  <line x1="4.713" x2="4.713" y2="-1.824" style="fill:none;stroke:#000000;stroke-width:0.7;stroke-linecap:round;" y1="-1.824"/>
  <line x1="2.917" x2="2.917" y2="-1.824" style="fill:none;stroke:#000000;stroke-width:0.7;stroke-linecap:round;" y1="-1.824"/>
  <line x1="8.309" x2="8.309" y2="-1.824" style="fill:none;stroke:#000000;stroke-width:0.7;stroke-linecap:round;" y1="-1.824"/>
  <line x1="6.514" x2="6.514" y2="-1.824" style="fill:none;stroke:#000000;stroke-width:0.7;stroke-linecap:round;" y1="-1.824"/>
  <line x1="10.104" x2="10.104" y2="-1.824" style="fill:none;stroke:#000000;stroke-width:0.7;stroke-linecap:round;" y1="-1.824"/>
  <line x1="19.082" x2="19.082" y2="-1.824" style="fill:none;stroke:#000000;stroke-width:0.7;stroke-linecap:round;" y1="-1.824"/>
  <line x1="22.679" x2="22.679" y2="-1.824" style="fill:none;stroke:#000000;stroke-width:0.7;stroke-linecap:round;" y1="-1.824"/>
  <line x1="20.883" x2="20.883" y2="-1.824" style="fill:none;stroke:#000000;stroke-width:0.7;stroke-linecap:round;" y1="-1.824"/>
  <line x1="26.27" x2="26.27" y2="-1.824" style="fill:none;stroke:#000000;stroke-width:0.7;stroke-linecap:round;" y1="-1.824"/>
  <line x1="24.474" x2="24.474" y2="-1.824" style="fill:none;stroke:#000000;stroke-width:0.7;stroke-linecap:round;" y1="-1.824"/>
  <line x1="37.043" x2="37.043" y2="-1.824" style="fill:none;stroke:#000000;stroke-width:0.7;stroke-linecap:round;" y1="-1.824"/>
  <line x1="35.247" x2="35.247" y2="-1.824" style="fill:none;stroke:#000000;stroke-width:0.7;stroke-linecap:round;" y1="-1.824"/>
  <line x1="40.634" x2="40.634" y2="-1.824" style="fill:none;stroke:#000000;stroke-width:0.7;stroke-linecap:round;" y1="-1.824"/>
  <line x1="38.838" x2="38.838" y2="-1.824" style="fill:none;stroke:#000000;stroke-width:0.7;stroke-linecap:round;" y1="-1.824"/>
  <line x1="44.225" x2="44.225" y2="-1.824" style="fill:none;stroke:#000000;stroke-width:0.7;stroke-linecap:round;" y1="-1.824"/>
  <line x1="42.429" x2="42.429" y2="-1.824" style="fill:none;stroke:#000000;stroke-width:0.7;stroke-linecap:round;" y1="-1.824"/>
  <line x1="46.021" x2="46.021" y2="-1.824" style="fill:none;stroke:#000000;stroke-width:0.7;stroke-linecap:round;" y1="-1.824"/>
  <line x1="0.573" x2="0.573" y2="-45.447" style="fill:none;stroke:#000000;stroke-width:0.7;stroke-linecap:round;" y1="-45.447"/>
  <line x1="13.147" x2="13.147" y2="-45.447" style="fill:none;stroke:#000000;stroke-width:0.7;stroke-linecap:round;" y1="-45.447"/>
  <line x1="11.351" x2="11.351" y2="-45.447" style="fill:none;stroke:#000000;stroke-width:0.7;stroke-linecap:round;" y1="-45.447"/>
  <line x1="16.738" x2="16.738" y2="-45.447" style="fill:none;stroke:#000000;stroke-width:0.7;stroke-linecap:round;" y1="-45.447"/>
  <line x1="14.943" x2="14.943" y2="-45.447" style="fill:none;stroke:#000000;stroke-width:0.7;stroke-linecap:round;" y1="-45.447"/>
  <line x1="27.517" x2="27.517" y2="-45.447" style="fill:none;stroke:#000000;stroke-width:0.7;stroke-linecap:round;" y1="-45.447"/>
  <line x1="31.103" x2="31.103" y2="-45.447" style="fill:none;stroke:#000000;stroke-width:0.7;stroke-linecap:round;" y1="-45.447"/>
  <line x1="29.308" x2="29.308" y2="-45.447" style="fill:none;stroke:#000000;stroke-width:0.7;stroke-linecap:round;" y1="-45.447"/>
  <line x1="34.694" x2="34.694" y2="-45.447" style="fill:none;stroke:#000000;stroke-width:0.7;stroke-linecap:round;" y1="-45.447"/>
  <line x1="32.898" x2="32.898" y2="-45.447" style="fill:none;stroke:#000000;stroke-width:0.7;stroke-linecap:round;" y1="-45.447"/>
  <line x1="36.494" x2="36.494" y2="-45.447" style="fill:none;stroke:#000000;stroke-width:0.7;stroke-linecap:round;" y1="-45.447"/>
  <line x1="0.573" x2="0.573" y2="-39.573" style="fill:none;stroke:#000000;stroke-width:0.7;stroke-linecap:round;" y1="-39.573"/>
  <line x1="9.557" x2="9.557" y2="-39.573" style="fill:none;stroke:#000000;stroke-width:0.7;stroke-linecap:round;" y1="-39.573"/>
  <line x1="13.147" x2="13.147" y2="-39.573" style="fill:none;stroke:#000000;stroke-width:0.7;stroke-linecap:round;" y1="-39.573"/>
  <line x1="11.351" x2="11.351" y2="-39.573" style="fill:none;stroke:#000000;stroke-width:0.7;stroke-linecap:round;" y1="-39.573"/>
  <line x1="16.738" x2="16.738" y2="-39.573" style="fill:none;stroke:#000000;stroke-width:0.7;stroke-linecap:round;" y1="-39.573"/>
  <line x1="14.943" x2="14.943" y2="-39.573" style="fill:none;stroke:#000000;stroke-width:0.7;stroke-linecap:round;" y1="-39.573"/>
  <line x1="20.33" x2="20.33" y2="-39.573" style="fill:none;stroke:#000000;stroke-width:0.7;stroke-linecap:round;" y1="-39.573"/>
  <line x1="18.534" x2="18.534" y2="-39.573" style="fill:none;stroke:#000000;stroke-width:0.7;stroke-linecap:round;" y1="-39.573"/>
  <line x1="23.926" x2="23.926" y2="-39.573" style="fill:none;stroke:#000000;stroke-width:0.7;stroke-linecap:round;" y1="-39.573"/>
  <line x1="22.131" x2="22.131" y2="-39.573" style="fill:none;stroke:#000000;stroke-width:0.7;stroke-linecap:round;" y1="-39.573"/>
  <line x1="27.517" x2="27.517" y2="-39.573" style="fill:none;stroke:#000000;stroke-width:0.7;stroke-linecap:round;" y1="-39.573"/>
  <line x1="25.722" x2="25.722" y2="-39.573" style="fill:none;stroke:#000000;stroke-width:0.7;stroke-linecap:round;" y1="-39.573"/>
  <line x1="31.103" x2="31.103" y2="-39.573" style="fill:none;stroke:#000000;stroke-width:0.7;stroke-linecap:round;" y1="-39.573"/>
  <line x1="29.308" x2="29.308" y2="-39.573" style="fill:none;stroke:#000000;stroke-width:0.7;stroke-linecap:round;" y1="-39.573"/>
  <line x1="41.881" x2="41.881" y2="-39.573" style="fill:none;stroke:#000000;stroke-width:0.7;stroke-linecap:round;" y1="-39.573"/>
  <line x1="40.086" x2="40.086" y2="-39.573" style="fill:none;stroke:#000000;stroke-width:0.7;stroke-linecap:round;" y1="-39.573"/>
  <line x1="45.473" x2="45.473" y2="-39.573" style="fill:none;stroke:#000000;stroke-width:0.7;stroke-linecap:round;" y1="-39.573"/>
  <line x1="43.677" x2="43.677" y2="-39.573" style="fill:none;stroke:#000000;stroke-width:0.7;stroke-linecap:round;" y1="-39.573"/>
  <line x1="9.557" x2="9.557" y2="-33.878" style="fill:none;stroke:#000000;stroke-width:0.7;stroke-linecap:round;" y1="-33.878"/>
  <line x1="13.147" x2="13.147" y2="-33.878" style="fill:none;stroke:#000000;stroke-width:0.7;stroke-linecap:round;" y1="-33.878"/>
  <line x1="11.351" x2="11.351" y2="-33.878" style="fill:none;stroke:#000000;stroke-width:0.7;stroke-linecap:round;" y1="-33.878"/>
  <line x1="14.943" x2="14.943" y2="-33.878" style="fill:none;stroke:#000000;stroke-width:0.7;stroke-linecap:round;" y1="-33.878"/>
  <line x1="27.517" x2="27.517" y2="-33.878" style="fill:none;stroke:#000000;stroke-width:0.7;stroke-linecap:round;" y1="-33.878"/>
  <line x1="25.722" x2="25.722" y2="-33.878" style="fill:none;stroke:#000000;stroke-width:0.7;stroke-linecap:round;" y1="-33.878"/>
  <line x1="31.103" x2="31.103" y2="-33.878" style="fill:none;stroke:#000000;stroke-width:0.7;stroke-linecap:round;" y1="-33.878"/>
  <line x1="29.308" x2="29.308" y2="-33.878" style="fill:none;stroke:#000000;stroke-width:0.7;stroke-linecap:round;" y1="-33.878"/>
  <line x1="34.694" x2="34.694" y2="-33.878" style="fill:none;stroke:#000000;stroke-width:0.7;stroke-linecap:round;" y1="-33.878"/>
  <line x1="32.898" x2="32.898" y2="-33.878" style="fill:none;stroke:#000000;stroke-width:0.7;stroke-linecap:round;" y1="-33.878"/>
  <line x1="45.473" x2="45.473" y2="-33.878" style="fill:none;stroke:#000000;stroke-width:0.7;stroke-linecap:round;" y1="-33.878"/>
  <line x1="5.96" x2="5.96" y2="-27.993" style="fill:none;stroke:#000000;stroke-width:0.7;stroke-linecap:round;" y1="-27.993"/>
  <line x1="9.557" x2="9.557" y2="-27.993" style="fill:none;stroke:#000000;stroke-width:0.7;stroke-linecap:round;" y1="-27.993"/>
  <line x1="7.761" x2="7.761" y2="-27.993" style="fill:none;stroke:#000000;stroke-width:0.7;stroke-linecap:round;" y1="-27.993"/>
  <line x1="13.147" x2="13.147" y2="-27.993" style="fill:none;stroke:#000000;stroke-width:0.7;stroke-linecap:round;" y1="-27.993"/>
  <line x1="11.351" x2="11.351" y2="-27.993" style="fill:none;stroke:#000000;stroke-width:0.7;stroke-linecap:round;" y1="-27.993"/>
  <line x1="14.943" x2="14.943" y2="-27.993" style="fill:none;stroke:#000000;stroke-width:0.7;stroke-linecap:round;" y1="-27.993"/>
  <line x1="27.517" x2="27.517" y2="-27.993" style="fill:none;stroke:#000000;stroke-width:0.7;stroke-linecap:round;" y1="-27.993"/>
  <line x1="25.722" x2="25.722" y2="-27.993" style="fill:none;stroke:#000000;stroke-width:0.7;stroke-linecap:round;" y1="-27.993"/>
  <line x1="31.103" x2="31.103" y2="-27.993" style="fill:none;stroke:#000000;stroke-width:0.7;stroke-linecap:round;" y1="-27.993"/>
  <line x1="29.308" x2="29.308" y2="-27.993" style="fill:none;stroke:#000000;stroke-width:0.7;stroke-linecap:round;" y1="-27.993"/>
  <line x1="41.881" x2="41.881" y2="-27.993" style="fill:none;stroke:#000000;stroke-width:0.7;stroke-linecap:round;" y1="-27.993"/>
  <line x1="40.086" x2="40.086" y2="-27.993" style="fill:none;stroke:#000000;stroke-width:0.7;stroke-linecap:round;" y1="-27.993"/>
  <line x1="43.677" x2="43.677" y2="-27.993" style="fill:none;stroke:#000000;stroke-width:0.7;stroke-linecap:round;" y1="-27.993"/>
  <line x1="2.369" x2="2.369" y2="-22.173" style="fill:none;stroke:#000000;stroke-width:0.7;stroke-linecap:round;" y1="-22.173"/>
  <line x1="0.573" x2="0.573" y2="-22.173" style="fill:none;stroke:#000000;stroke-width:0.7;stroke-linecap:round;" y1="-22.173"/>
  <line x1="5.96" x2="5.96" y2="-22.173" style="fill:none;stroke:#000000;stroke-width:0.7;stroke-linecap:round;" y1="-22.173"/>
  <line x1="4.165" x2="4.165" y2="-22.173" style="fill:none;stroke:#000000;stroke-width:0.7;stroke-linecap:round;" y1="-22.173"/>
  <line x1="9.557" x2="9.557" y2="-22.173" style="fill:none;stroke:#000000;stroke-width:0.7;stroke-linecap:round;" y1="-22.173"/>
  <line x1="7.761" x2="7.761" y2="-22.173" style="fill:none;stroke:#000000;stroke-width:0.7;stroke-linecap:round;" y1="-22.173"/>
  <line x1="11.351" x2="11.351" y2="-22.173" style="fill:none;stroke:#000000;stroke-width:0.7;stroke-linecap:round;" y1="-22.173"/>
  <line x1="23.926" x2="23.926" y2="-22.173" style="fill:none;stroke:#000000;stroke-width:0.7;stroke-linecap:round;" y1="-22.173"/>
  <line x1="22.131" x2="22.131" y2="-22.173" style="fill:none;stroke:#000000;stroke-width:0.7;stroke-linecap:round;" y1="-22.173"/>
  <line x1="27.517" x2="27.517" y2="-22.173" style="fill:none;stroke:#000000;stroke-width:0.7;stroke-linecap:round;" y1="-22.173"/>
  <line x1="25.722" x2="25.722" y2="-22.173" style="fill:none;stroke:#000000;stroke-width:0.7;stroke-linecap:round;" y1="-22.173"/>
  <line x1="31.103" x2="31.103" y2="-22.173" style="fill:none;stroke:#000000;stroke-width:0.7;stroke-linecap:round;" y1="-22.173"/>
  <line x1="29.308" x2="29.308" y2="-22.173" style="fill:none;stroke:#000000;stroke-width:0.7;stroke-linecap:round;" y1="-22.173"/>
  <line x1="32.898" x2="32.898" y2="-22.173" style="fill:none;stroke:#000000;stroke-width:0.7;stroke-linecap:round;" y1="-22.173"/>
  <line x1="41.881" x2="41.881" y2="-22.173" style="fill:none;stroke:#000000;stroke-width:0.7;stroke-linecap:round;" y1="-22.173"/>
  <line x1="45.473" x2="45.473" y2="-22.173" style="fill:none;stroke:#000000;stroke-width:0.7;stroke-linecap:round;" y1="-22.173"/>
  <line x1="43.677" x2="43.677" y2="-22.173" style="fill:none;stroke:#000000;stroke-width:0.7;stroke-linecap:round;" y1="-22.173"/>
  <line x1="2.369" x2="2.369" y2="-16.413" style="fill:none;stroke:#000000;stroke-width:0.7;stroke-linecap:round;" y1="-16.413"/>
  <line x1="0.573" x2="0.573" y2="-16.413" style="fill:none;stroke:#000000;stroke-width:0.7;stroke-linecap:round;" y1="-16.413"/>
  <line x1="5.96" x2="5.96" y2="-16.413" style="fill:none;stroke:#000000;stroke-width:0.7;stroke-linecap:round;" y1="-16.413"/>
  <line x1="4.165" x2="4.165" y2="-16.413" style="fill:none;stroke:#000000;stroke-width:0.7;stroke-linecap:round;" y1="-16.413"/>
  <line x1="7.761" x2="7.761" y2="-16.413" style="fill:none;stroke:#000000;stroke-width:0.7;stroke-linecap:round;" y1="-16.413"/>
  <line x1="16.738" x2="16.738" y2="-16.413" style="fill:none;stroke:#000000;stroke-width:0.7;stroke-linecap:round;" y1="-16.413"/>
  <line x1="20.33" x2="20.33" y2="-16.413" style="fill:none;stroke:#000000;stroke-width:0.7;stroke-linecap:round;" y1="-16.413"/>
  <line x1="18.534" x2="18.534" y2="-16.413" style="fill:none;stroke:#000000;stroke-width:0.7;stroke-linecap:round;" y1="-16.413"/>
  <line x1="23.926" x2="23.926" y2="-16.413" style="fill:none;stroke:#000000;stroke-width:0.7;stroke-linecap:round;" y1="-16.413"/>
  <line x1="22.131" x2="22.131" y2="-16.413" style="fill:none;stroke:#000000;stroke-width:0.7;stroke-linecap:round;" y1="-16.413"/>
  <line x1="25.722" x2="25.722" y2="-16.413" style="fill:none;stroke:#000000;stroke-width:0.7;stroke-linecap:round;" y1="-16.413"/>
  <line x1="34.694" x2="34.694" y2="-16.413" style="fill:none;stroke:#000000;stroke-width:0.7;stroke-linecap:round;" y1="-16.413"/>
  <line x1="38.29" x2="38.29" y2="-16.413" style="fill:none;stroke:#000000;stroke-width:0.7;stroke-linecap:round;" y1="-16.413"/>
  <line x1="36.494" x2="36.494" y2="-16.413" style="fill:none;stroke:#000000;stroke-width:0.7;stroke-linecap:round;" y1="-16.413"/>
  <line x1="41.881" x2="41.881" y2="-16.413" style="fill:none;stroke:#000000;stroke-width:0.7;stroke-linecap:round;" y1="-16.413"/>
  <line x1="40.086" x2="40.086" y2="-16.413" style="fill:none;stroke:#000000;stroke-width:0.7;stroke-linecap:round;" y1="-16.413"/>
  <line x1="45.473" x2="45.473" y2="-16.413" style="fill:none;stroke:#000000;stroke-width:0.7;stroke-linecap:round;" y1="-16.413"/>
  <line x1="43.677" x2="43.677" y2="-16.413" style="fill:none;stroke:#000000;stroke-width:0.7;stroke-linecap:round;" y1="-16.413"/>
  <line x1="2.369" x2="2.369" y2="-10.533" style="fill:none;stroke:#000000;stroke-width:0.7;stroke-linecap:round;" y1="-10.533"/>
  <line x1="0.573" x2="0.573" y2="-10.533" style="fill:none;stroke:#000000;stroke-width:0.7;stroke-linecap:round;" y1="-10.533"/>
  <line x1="4.165" x2="4.165" y2="-10.533" style="fill:none;stroke:#000000;stroke-width:0.7;stroke-linecap:round;" y1="-10.533"/>
  <line x1="13.147" x2="13.147" y2="-10.533" style="fill:none;stroke:#000000;stroke-width:0.7;stroke-linecap:round;" y1="-10.533"/>
  <line x1="16.738" x2="16.738" y2="-10.533" style="fill:none;stroke:#000000;stroke-width:0.7;stroke-linecap:round;" y1="-10.533"/>
  <line x1="14.943" x2="14.943" y2="-10.533" style="fill:none;stroke:#000000;stroke-width:0.7;stroke-linecap:round;" y1="-10.533"/>
  <line x1="18.534" x2="18.534" y2="-10.533" style="fill:none;stroke:#000000;stroke-width:0.7;stroke-linecap:round;" y1="-10.533"/>
  <line x1="31.103" x2="31.103" y2="-10.533" style="fill:none;stroke:#000000;stroke-width:0.7;stroke-linecap:round;" y1="-10.533"/>
  <line x1="29.308" x2="29.308" y2="-10.533" style="fill:none;stroke:#000000;stroke-width:0.7;stroke-linecap:round;" y1="-10.533"/>
  <line x1="34.694" x2="34.694" y2="-10.533" style="fill:none;stroke:#000000;stroke-width:0.7;stroke-linecap:round;" y1="-10.533"/>
  <line x1="32.898" x2="32.898" y2="-10.533" style="fill:none;stroke:#000000;stroke-width:0.7;stroke-linecap:round;" y1="-10.533"/>
  <line x1="45.473" x2="45.473" y2="-10.533" style="fill:none;stroke:#000000;stroke-width:0.7;stroke-linecap:round;" y1="-10.533"/>
  <line x1="43.677" x2="43.677" y2="-10.533" style="fill:none;stroke:#000000;stroke-width:0.7;stroke-linecap:round;" y1="-10.533"/>
  <line x1="2.369" x2="2.369" y2="-4.773" style="fill:none;stroke:#000000;stroke-width:0.7;stroke-linecap:round;" y1="-4.773"/>
  <line x1="0.573" x2="0.573" y2="-4.773" style="fill:none;stroke:#000000;stroke-width:0.7;stroke-linecap:round;" y1="-4.773"/>
  <line x1="5.96" x2="5.96" y2="-4.773" style="fill:none;stroke:#000000;stroke-width:0.7;stroke-linecap:round;" y1="-4.773"/>
  <line x1="4.165" x2="4.165" y2="-4.773" style="fill:none;stroke:#000000;stroke-width:0.7;stroke-linecap:round;" y1="-4.773"/>
  <line x1="16.738" x2="16.738" y2="-4.773" style="fill:none;stroke:#000000;stroke-width:0.7;stroke-linecap:round;" y1="-4.773"/>
  <line x1="20.33" x2="20.33" y2="-4.773" style="fill:none;stroke:#000000;stroke-width:0.7;stroke-linecap:round;" y1="-4.773"/>
  <line x1="18.534" x2="18.534" y2="-4.773" style="fill:none;stroke:#000000;stroke-width:0.7;stroke-linecap:round;" y1="-4.773"/>
  <line x1="23.926" x2="23.926" y2="-4.773" style="fill:none;stroke:#000000;stroke-width:0.7;stroke-linecap:round;" y1="-4.773"/>
  <line x1="22.131" x2="22.131" y2="-4.773" style="fill:none;stroke:#000000;stroke-width:0.7;stroke-linecap:round;" y1="-4.773"/>
  <line x1="27.517" x2="27.517" y2="-4.773" style="fill:none;stroke:#000000;stroke-width:0.7;stroke-linecap:round;" y1="-4.773"/>
  <line x1="25.722" x2="25.722" y2="-4.773" style="fill:none;stroke:#000000;stroke-width:0.7;stroke-linecap:round;" y1="-4.773"/>
  <line x1="31.103" x2="31.103" y2="-4.773" style="fill:none;stroke:#000000;stroke-width:0.7;stroke-linecap:round;" y1="-4.773"/>
  <line x1="29.308" x2="29.308" y2="-4.773" style="fill:none;stroke:#000000;stroke-width:0.7;stroke-linecap:round;" y1="-4.773"/>
  <line x1="41.881" x2="41.881" y2="-4.773" style="fill:none;stroke:#000000;stroke-width:0.7;stroke-linecap:round;" y1="-4.773"/>
  <line x1="45.473" x2="45.473" y2="-4.773" style="fill:none;stroke:#000000;stroke-width:0.7;stroke-linecap:round;" y1="-4.773"/>
  <line x1="43.677" x2="43.677" y2="-4.773" style="fill:none;stroke:#000000;stroke-width:0.7;stroke-linecap:round;" y1="-4.773"/>
 </g>
</svg>
