<?xml version="1.0"?>
<!-- Converted with SVG Converter - Version 0.9.6 (Compiled Thu Aug 31 10:01:05 2017) - Copyright (C) 2011 Nokia -->
<svg xmlns="http://www.w3.org/2000/svg" y="0px" baseProfile="tiny" xml:space="preserve" height="54.125" version="1.1" width="54.125" viewBox="0.107 -54.125 54.125 54.125" x="0px" xmlns:xlink="http://www.w3.org/1999/xlink">
 <g>
  <rect y="-54.125" height="54.125" width="54.125" style="fill:none;" x="0.107"/>
  <rect y="-54.125" height="54.125" width="54.125" x="0.107"/>
  <path d="M3.379-37.892c-3.375,0.625-0.375,2.5,1.5,2.375s3.125,0,4.125,0.375s4.5,1.25,7,1.125    s3.5-0.125,7.5-0.25c6.75-0.875,0.366-2.999-2.125-2.75c-2.5,0.25-4.875-0.125-7.125-1.25S6.754-38.517,3.379-37.892z" style="fill:#FFFFFF;"/>
  <path d="M50.213-35.538c2.25-0.75,1.125-2-3.75-2c0,0-2.75-0.125-4.25-0.625s-4-0.125-7.375,0.625    s-1.5,1.75,0,1.875s2,0,6.125,0.75S47.963-34.788,50.213-35.538z" style="fill:#FFFFFF;"/>
  <path d="M20.629-26.433c2.125,0,4.5,0.375,9.5,1.5s12.5-1,15.125-2s1.75-1.25,0.75-1.875    s-1.75-0.625-5.625-0.25c0,0-3.125,0-5.375-0.375s-6.5,0.125-10.125,0.375s-2.625,0-6.625,0.875S18.504-26.433,20.629-26.433z" style="fill:#FFFFFF;"/>
  <path d="M50.838-14.913c4.25-0.875,0.5-2.25-4.25-2.25c0,0-1.625,0-3.25-0.375s-8-0.875-9.875-0.25    c-1.875,0.625-5.375,0.625-7.25,0.75s-0.875,1.5,0.625,1.5s4,0.625,6.5,0.25s3.75-0.125,6.125,0.875S46.588-14.038,50.838-14.913z    " style="fill:#FFFFFF;"/>
  <path d="M17.963-50.746c0,0-1.625,0-3.25-0.375c0,0-3.417,0.375-5.084,0.875    c-1.666,0.5-0.166,2.167,1.209,2.25c2.375,1,7.125,0.375,11.375-0.5S22.713-50.746,17.963-50.746z" style="fill:#FFFFFF;"/>
  <path d="M1.463-19.288c1.25,0.375,4.125,0.5,6.125,0.125s1.125,0.625,0.625,1s0,1.125,2,1    s2.5-0.125,4.125,0s1.75-0.375,1.25-1s1.125-0.75,2.5-0.375s2.125-0.125,3.625-1s-1.5-1.625-5.375-1.625    c0,0-2.125,0.125-4.375-0.25s-6.875,0-9.625,0.375S0.213-19.663,1.463-19.288z" style="fill:#FFFFFF;"/>
  <path d="M24.338-8.163c5.125,0.25,2.977,0.08,3.727,0.455s3.625,0.375,5.375-0.75s1.25-1.5-1.5-1.625    s-1.227-0.205-3.227-0.205s-3.5-0.25-3.5-0.25C19.588-10.163,19.213-8.413,24.338-8.163z" style="fill:#FFFFFF;"/>
  <path d="M32.088-44.288c0,0-1.5,0.25-3.5,0.25s-5.25,0.375-8,0.5s-3.25,0.5-1.5,1.625    s4.625,1.125,5.375,0.75s3.375-0.5,8.5-0.75S37.713-43.913,32.088-44.288z" style="fill:#FFFFFF;"/>
  <path d="M0.107-8.861c1.734,0.042,3.23-0.052,3.23-0.052c4.375,0.25,4.5-0.5,5.25-0.625s1.625-1-1.625-1    c-2.922,0-5.236,0-6.856,0V-8.861z" style="fill:#FFFFFF;"/>
  <path d="M5.338-3.663c1.875-0.125,5.5,0.5,8.75,0.875s2.375,0.125,4.25-0.375s-0.5-1.625-1.5-1.375    s-0.479,0.328-1.875,0.25c-2.25-0.125-7.75-1.375-10.125-1.125S3.463-3.538,5.338-3.663z" style="fill:#FFFFFF;"/>
  <path d="M41.338-1.663c4.375,0.375,6.125,0.25,8.25-0.75S48.524-7,43.774-6.125c0,0-3.375,0.125-5.5-0.25    s-2.812,2.837-4.187,3.462S36.963-2.038,41.338-1.663z" style="fill:#FFFFFF;"/>
  <path d="M0.107-27.113c1.45-0.137,3.347-0.25,5.606-0.424c3.25-0.25,2-0.75,0.375-1.125    s-3-0.875-5.75-0.875c0,0-0.073,0.012-0.231,0.037V-27.113z" style="fill:#FFFFFF;"/>
  <path d="M0.107-43.267c1.214-0.286,1.38-1.864,3.981-2.125c3.333-0.333,1.5-2.333-0.667-2.333    c-0.706,0-1.906-0.071-3.314-0.183V-43.267z" style="fill:#FFFFFF;"/>
  <path d="M54.232-10.538c-0.182,0-0.355,0-0.52,0c-1.625,0-5.25,0.875-2.75,1.375    c0.971,0.194,2.168,0.275,3.27,0.302V-10.538z" style="fill:#FFFFFF;"/>
  <path d="M54.232-29.501c-0.347,0.054-1.104,0.167-2.395,0.338c-1.875,0.25-0.75,2.5,0.75,2.25    c0.457-0.076,1.008-0.141,1.645-0.201V-29.501z" style="fill:#FFFFFF;"/>
  <path d="M54.232-47.908c-2.915-0.233-6.718-0.646-8.854-0.983c-3.166-0.5-6.5,0.167-7.833,0.833    c0,0-1.5-1-1.167,0.333c0.334,1.333,3.667,3.333,6,3c2.334-0.333,7.834,0.5,10.5,1.333c0.586,0.183,1.012,0.205,1.354,0.125    V-47.908z" style="fill:#FFFFFF;"/>
  <line x2="0.107" y1="-47.863" y2="-47.34" x1="0.618" style="fill:none;stroke:#000000;stroke-width:0.3;"/>
  <line x2="0.107" y1="-47.725" y2="-44.945" x1="2.82" style="fill:none;stroke:#000000;stroke-width:0.3;"/>
  <line x2="4.867" y1="-44.802" y2="-47.427" x1="2.306" style="fill:none;stroke:#000000;stroke-width:0.3;"/>
  <line x2="35.407" y1="-6.292" y2="-2.16" x1="39.44" style="fill:none;stroke:#000000;stroke-width:0.3;"/>
  <line x2="37.659" y1="-6.038" y2="-2.072" x1="41.529" style="fill:none;stroke:#000000;stroke-width:0.3;"/>
  <line x2="39.748" y1="-6.119" y2="-1.816" x1="43.946" style="fill:none;stroke:#000000;stroke-width:0.3;"/>
  <line x2="41.959" y1="-6.202" y2="-1.687" x1="46.365" style="fill:none;stroke:#000000;stroke-width:0.3;"/>
  <line x2="44.131" y1="-5.609" y2="-1.518" x1="48.124" style="fill:none;stroke:#000000;stroke-width:0.3;"/>
  <line x2="46.467" y1="-4.678" y2="-1.515" x1="49.553" style="fill:none;stroke:#000000;stroke-width:0.3;"/>
  <line x2="1.164" y1="-9.422" y2="-10.505" x1="0.107" style="fill:none;stroke:#000000;stroke-width:0.3;"/>
  <line x2="1.884" y1="-10.524" y2="-8.848" x1="3.52" style="fill:none;stroke:#000000;stroke-width:0.3;"/>
  <line x2="4.179" y1="-10.543" y2="-8.804" x1="5.876" style="fill:none;stroke:#000000;stroke-width:0.3;"/>
  <line x2="6.658" y1="-10.5" y2="-8.95" x1="8.171" style="fill:none;stroke:#000000;stroke-width:0.3;"/>
  <line x2="0.107" y1="-29.401" y2="-27.378" x1="2.081" style="fill:none;stroke:#000000;stroke-width:0.3;"/>
  <line x2="2.308" y1="-29.167" y2="-27.238" x1="4.19" style="fill:none;stroke:#000000;stroke-width:0.3;"/>
  <line x2="4.91" y1="-28.648" y2="-27.51" x1="6.022" style="fill:none;stroke:#000000;stroke-width:0.3;"/>
  <line x2="1.176" y1="-21.109" y2="-19.307" x1="2.935" style="fill:none;stroke:#000000;stroke-width:0.3;"/>
  <line x2="5.539" y1="-19.009" y2="-21.381" x1="3.224" style="fill:none;stroke:#000000;stroke-width:0.3;"/>
  <line x2="7.987" y1="-18.87" y2="-21.495" x1="5.426" style="fill:none;stroke:#000000;stroke-width:0.3;"/>
  <line x2="8.152" y1="-21.576" y2="-19.269" x1="10.404" style="fill:none;stroke:#000000;stroke-width:0.3;"/>
  <line x2="12.545" y1="-17.325" y2="-21.374" x1="8.593" style="fill:none;stroke:#000000;stroke-width:0.3;"/>
  <line x2="14.623" y1="-17.123" y2="-21.109" x1="10.733" style="fill:none;stroke:#000000;stroke-width:0.3;"/>
  <line x2="13.121" y1="-21.127" y2="-17.174" x1="16.979" style="fill:none;stroke:#000000;stroke-width:0.3;"/>
  <line x2="19.212" y1="-18.648" y2="-21.021" x1="16.896" style="fill:none;stroke:#000000;stroke-width:0.3;"/>
  <line x2="18.913" y1="-20.691" y2="-18.319" x1="21.229" style="fill:none;stroke:#000000;stroke-width:0.3;"/>
  <line x2="4.831" y1="-5.455" y2="-3.589" x1="6.651" style="fill:none;stroke:#000000;stroke-width:0.3;"/>
  <line x2="7.186" y1="-5.19" y2="-3.607" x1="8.731" style="fill:none;stroke:#000000;stroke-width:0.3;"/>
  <line x2="9.265" y1="-4.955" y2="-3.342" x1="10.839" style="fill:none;stroke:#000000;stroke-width:0.3;"/>
  <line x2="11.404" y1="-4.595" y2="-3.139" x1="12.825" style="fill:none;stroke:#000000;stroke-width:0.3;"/>
  <line x2="13.452" y1="-4.234" y2="-2.842" x1="14.811" style="fill:none;stroke:#000000;stroke-width:0.3;"/>
  <line x2="15.623" y1="-4.57" y2="-2.671" x1="17.476" style="fill:none;stroke:#000000;stroke-width:0.3;"/>
  <line x2="21.897" y1="-10.39" y2="-8.46" x1="23.781" style="fill:none;stroke:#000000;stroke-width:0.3;"/>
  <line x2="23.944" y1="-10.409" y2="-8.162" x1="26.138" style="fill:none;stroke:#000000;stroke-width:0.3;"/>
  <line x2="26.239" y1="-10.206" y2="-8.118" x1="28.276" style="fill:none;stroke:#000000;stroke-width:0.3;"/>
  <line x2="28.194" y1="-10.193" y2="-7.726" x1="30.602" style="fill:none;stroke:#000000;stroke-width:0.3;"/>
  <line x2="30.364" y1="-10.022" y2="-7.555" x1="32.772" style="fill:none;stroke:#000000;stroke-width:0.3;"/>
  <line x2="28.141" y1="-15.533" y2="-17.095" x1="26.616" style="fill:none;stroke:#000000;stroke-width:0.3;"/>
  <line x2="30.803" y1="-15.361" y2="-17.428" x1="28.786" style="fill:none;stroke:#000000;stroke-width:0.3;"/>
  <line x2="33.592" y1="-15.066" y2="-17.89" x1="30.835" style="fill:none;stroke:#000000;stroke-width:0.3;"/>
  <line x2="33.376" y1="-18.226" y2="-15.274" x1="36.256" style="fill:none;stroke:#000000;stroke-width:0.3;"/>
  <line x2="38.469" y1="-15.44" y2="-18.097" x1="35.876" style="fill:none;stroke:#000000;stroke-width:0.3;"/>
  <line x2="37.799" y1="-17.927" y2="-15.016" x1="40.64" style="fill:none;stroke:#000000;stroke-width:0.3;"/>
  <line x2="39.56" y1="-17.713" y2="-14.424" x1="42.769" style="fill:none;stroke:#000000;stroke-width:0.3;"/>
  <line x2="41.401" y1="-17.375" y2="-13.916" x1="44.776" style="fill:none;stroke:#000000;stroke-width:0.3;"/>
  <line x2="43.776" y1="-17.203" y2="-13.955" x1="46.946" style="fill:none;stroke:#000000;stroke-width:0.3;"/>
  <line x2="46.4" y1="-17.032" y2="-14.248" x1="49.117" style="fill:none;stroke:#000000;stroke-width:0.3;"/>
  <line x2="51.123" y1="-14.625" y2="-16.692" x1="49.106" style="fill:none;stroke:#000000;stroke-width:0.3;"/>
  <line x2="17.993" y1="-28.478" y2="-26.738" x1="19.691" style="fill:none;stroke:#000000;stroke-width:0.3;"/>
  <line x2="22.479" y1="-26.504" y2="-28.94" x1="20.103" style="fill:none;stroke:#000000;stroke-width:0.3;"/>
  <line x2="24.959" y1="-26.429" y2="-29.086" x1="22.367" style="fill:none;stroke:#000000;stroke-width:0.3;"/>
  <line x2="27.5" y1="-26.131" y2="-29.294" x1="24.413" style="fill:none;stroke:#000000;stroke-width:0.3;"/>
  <line x2="30.01" y1="-25.676" y2="-29.47" x1="26.308" style="fill:none;stroke:#000000;stroke-width:0.3;"/>
  <line x2="28.262" y1="-29.554" y2="-25.283" x1="32.43" style="fill:none;stroke:#000000;stroke-width:0.3;"/>
  <line x2="30.277" y1="-29.445" y2="-24.954" x1="34.661" style="fill:none;stroke:#000000;stroke-width:0.3;"/>
  <line x2="32.294" y1="-29.148" y2="-24.625" x1="36.709" style="fill:none;stroke:#000000;stroke-width:0.3;"/>
  <line x2="34.651" y1="-29.073" y2="-24.646" x1="38.973" style="fill:none;stroke:#000000;stroke-width:0.3;"/>
  <line x2="37.223" y1="-29.124" y2="-24.884" x1="41.36" style="fill:none;stroke:#000000;stroke-width:0.3;"/>
  <line x2="43.9" y1="-25.473" y2="-29.332" x1="40.135" style="fill:none;stroke:#000000;stroke-width:0.3;"/>
  <line x2="45.794" y1="-26.252" y2="-28.876" x1="43.232" style="fill:none;stroke:#000000;stroke-width:0.3;"/>
  <line x2="36.499" y1="-35.708" y2="-37.857" x1="34.401" style="fill:none;stroke:#000000;stroke-width:0.3;"/>
  <line x2="36.541" y1="-38.319" y2="-35.505" x1="39.287" style="fill:none;stroke:#000000;stroke-width:0.3;"/>
  <line x2="41.551" y1="-35.207" y2="-38.244" x1="38.588" style="fill:none;stroke:#000000;stroke-width:0.3;"/>
  <line x2="43.475" y1="-34.973" y2="-37.82" x1="40.696" style="fill:none;stroke:#000000;stroke-width:0.3;"/>
  <line x2="45.646" y1="-34.612" y2="-37.648" x1="42.683" style="fill:none;stroke:#000000;stroke-width:0.3;"/>
  <line x2="47.848" y1="-34.631" y2="-37.509" x1="45.039" style="fill:none;stroke:#000000;stroke-width:0.3;"/>
  <line x2="49.865" y1="-34.839" y2="-37.182" x1="47.579" style="fill:none;stroke:#000000;stroke-width:0.3;"/>
  <line x2="2.307" y1="-38.039" y2="-36.361" x1="3.943" style="fill:none;stroke:#000000;stroke-width:0.3;"/>
  <line x2="6.731" y1="-35.59" y2="-38.5" x1="3.893" style="fill:none;stroke:#000000;stroke-width:0.3;"/>
  <line x2="9.273" y1="-35.514" y2="-38.709" x1="6.155" style="fill:none;stroke:#000000;stroke-width:0.3;"/>
  <line x2="8.295" y1="-38.791" y2="-35.311" x1="11.69" style="fill:none;stroke:#000000;stroke-width:0.3;"/>
  <line x2="13.709" y1="-34.761" y2="-38.463" x1="10.096" style="fill:none;stroke:#000000;stroke-width:0.3;"/>
  <line x2="19.274" y1="-43.606" y2="-41.771" x1="21.065" style="fill:none;stroke:#000000;stroke-width:0.3;"/>
  <line x2="11.923" y1="-37.816" y2="-34.238" x1="15.415" style="fill:none;stroke:#000000;stroke-width:0.3;"/>
  <line x2="23.544" y1="-41.158" y2="-43.75" x1="21.014" style="fill:none;stroke:#000000;stroke-width:0.3;"/>
  <line x2="14.19" y1="-37.267" y2="-34.167" x1="17.216" style="fill:none;stroke:#000000;stroke-width:0.3;"/>
  <line x2="25.992" y1="-40.923" y2="-43.864" x1="23.122" style="fill:none;stroke:#000000;stroke-width:0.3;"/>
  <line x2="16.458" y1="-36.968" y2="-34.095" x1="19.263" style="fill:none;stroke:#000000;stroke-width:0.3;"/>
  <line x2="28.472" y1="-41.416" y2="-44.01" x1="25.94" style="fill:none;stroke:#000000;stroke-width:0.3;"/>
  <line x2="21.711" y1="-34.023" y2="-37.083" x1="18.727" style="fill:none;stroke:#000000;stroke-width:0.3;"/>
  <line x2="30.921" y1="-41.592" y2="-44.124" x1="28.451" style="fill:none;stroke:#000000;stroke-width:0.3;"/>
  <line x2="23.76" y1="-34.191" y2="-36.785" x1="21.228" style="fill:none;stroke:#000000;stroke-width:0.3;"/>
  <line x2="33.246" y1="-41.738" y2="-44.111" x1="30.931" style="fill:none;stroke:#000000;stroke-width:0.3;"/>
  <line x2="25.56" y1="-34.305" y2="-36.235" x1="23.677" style="fill:none;stroke:#000000;stroke-width:0.3;"/>
  <line x2="35.293" y1="-41.916" y2="-43.813" x1="33.441" style="fill:none;stroke:#000000;stroke-width:0.3;"/>
  <line x2="11.845" y1="-48.454" y2="-50.7" x1="9.652" style="fill:none;stroke:#000000;stroke-width:0.3;"/>
  <line x2="14.663" y1="-47.841" y2="-51.193" x1="11.392" style="fill:none;stroke:#000000;stroke-width:0.3;"/>
  <line x2="16.649" y1="-47.48" y2="-50.833" x1="13.377" style="fill:none;stroke:#000000;stroke-width:0.3;"/>
  <line x2="18.882" y1="-47.658" y2="-50.726" x1="15.888" style="fill:none;stroke:#000000;stroke-width:0.3;"/>
  <line x2="21.053" y1="-47.74" y2="-50.555" x1="18.306" style="fill:none;stroke:#000000;stroke-width:0.3;"/>
  <line x2="23.008" y1="-48.359" y2="-50.162" x1="21.248" style="fill:none;stroke:#000000;stroke-width:0.3;"/>
  <line x2="39.084" y1="-46.655" y2="-48.585" x1="37.2" style="fill:none;stroke:#000000;stroke-width:0.3;"/>
  <line x2="41.749" y1="-45.6" y2="-48.921" x1="38.508" style="fill:none;stroke:#000000;stroke-width:0.3;"/>
  <line x2="44.167" y1="-44.922" y2="-49.002" x1="40.185" style="fill:none;stroke:#000000;stroke-width:0.3;"/>
  <line x2="46.338" y1="-44.719" y2="-48.832" x1="42.324" style="fill:none;stroke:#000000;stroke-width:0.3;"/>
  <line x2="48.386" y1="-44.771" y2="-48.535" x1="44.712" style="fill:none;stroke:#000000;stroke-width:0.3;"/>
  <line x2="50.495" y1="-44.504" y2="-48.301" x1="46.79" style="fill:none;stroke:#000000;stroke-width:0.3;"/>
  <line x2="52.572" y1="-44.302" y2="-48.035" x1="48.93" style="fill:none;stroke:#000000;stroke-width:0.3;"/>
  <line x2="54.232" y1="-43.909" y2="-47.34" x1="50.885" style="fill:none;stroke:#000000;stroke-width:0.3;"/>
  <line x2="54.232" y1="-43.392" y2="-44.945" x1="52.717" style="fill:none;stroke:#000000;stroke-width:0.3;"/>
  <line x2="51.481" y1="-10.423" y2="-9" x1="52.871" style="fill:none;stroke:#000000;stroke-width:0.3;"/>
  <line x2="54.232" y1="-8.829" y2="-9.422" x1="53.653" style="fill:none;stroke:#000000;stroke-width:0.3;"/>
  <line x2="53.942" y1="-27.168" y2="-29.477" x1="51.689" style="fill:none;stroke:#000000;stroke-width:0.3;"/>
  <line x2="54.232" y1="-27.029" y2="-27.378" x1="53.892" style="fill:none;stroke:#000000;stroke-width:0.3;"/>
 </g>
</svg>
