<?xml version="1.0"?>
<!-- Converted with SVG Converter - Version 0.9.5 (Compiled Fri Feb 21 09:53:38 2020) - Copyright (C) 2011 Nokia -->
<svg xmlns="http://www.w3.org/2000/svg" xml:space="preserve" height="53.978" viewBox="0 -53.978 53.978 53.978" version="1.1" xmlns:xlink="http://www.w3.org/1999/xlink" y="0px" x="0px" width="53.978" baseProfile="tiny">
 <g>
  <rect height="53.978" y="-53.978" style="fill:none;" x="0" width="53.978"/>
  <line y1="-43.125" y2="-44.125" style="fill:none;stroke:#000000;stroke-width:0.3;" x1="10.727" x2="11.79"/>
  <line y1="-42.125" y2="-43.125" style="fill:none;stroke:#000000;stroke-width:0.3;" x1="11.79" x2="10.727"/>
  <line y1="-43.125" y2="-43.125" style="fill:none;stroke:#000000;stroke-width:0.3;" x1="4.54" x2="10.727"/>
  <line y1="-29.396" y2="-28.396" style="fill:none;stroke:#000000;stroke-width:0.3;" x1="18.832" x2="17.77"/>
  <line y1="-28.396" y2="-27.396" style="fill:none;stroke:#000000;stroke-width:0.3;" x1="17.77" x2="18.832"/>
  <line y1="-28.396" y2="-28.396" style="fill:none;stroke:#000000;stroke-width:0.3;" x1="11.582" x2="17.77"/>
  <line y1="-11.875" y2="-12.875" style="fill:none;stroke:#000000;stroke-width:0.3;" x1="27.02" x2="28.082"/>
  <line y1="-11.875" y2="-10.875" style="fill:none;stroke:#000000;stroke-width:0.3;" x1="27.02" x2="28.082"/>
  <line y1="-11.875" y2="-11.875" style="fill:none;stroke:#000000;stroke-width:0.3;" x1="20.832" x2="27.02"/>
  <line y1="-1.521" y2="-0.521" style="fill:none;stroke:#000000;stroke-width:0.3;" x1="26.728" x2="27.79"/>
  <line y1="-1.521" y2="-2.521" style="fill:none;stroke:#000000;stroke-width:0.3;" x1="26.728" x2="27.79"/>
  <line y1="-1.521" y2="-1.521" style="fill:none;stroke:#000000;stroke-width:0.3;" x1="26.728" x2="20.54"/>
  <line y1="-13.042" y2="-12.042" style="fill:none;stroke:#000000;stroke-width:0.3;" x1="51.499" x2="50.437"/>
  <line y1="-12.042" y2="-11.042" style="fill:none;stroke:#000000;stroke-width:0.3;" x1="50.437" x2="51.499"/>
  <line y1="-12.042" y2="-12.042" style="fill:none;stroke:#000000;stroke-width:0.3;" x1="50.437" x2="44.249"/>
  <line y1="-2.542" y2="-1.541" style="fill:none;stroke:#000000;stroke-width:0.3;" x1="44.645" x2="45.707"/>
  <line y1="-3.542" y2="-2.542" style="fill:none;stroke:#000000;stroke-width:0.3;" x1="45.707" x2="44.645"/>
  <line y1="-2.542" y2="-2.542" style="fill:none;stroke:#000000;stroke-width:0.3;" x1="44.645" x2="38.457"/>
  <line y1="-16.562" y2="-15.562" style="fill:none;stroke:#000000;stroke-width:0.3;" x1="8.977" x2="10.04"/>
  <line y1="-16.562" y2="-17.562" style="fill:none;stroke:#000000;stroke-width:0.3;" x1="8.977" x2="10.04"/>
  <line y1="-16.562" y2="-16.562" style="fill:none;stroke:#000000;stroke-width:0.3;" x1="8.977" x2="2.79"/>
  <line y1="-38.354" y2="-37.354" style="fill:none;stroke:#000000;stroke-width:0.3;" x1="28.915" x2="27.853"/>
  <line y1="-37.354" y2="-36.354" style="fill:none;stroke:#000000;stroke-width:0.3;" x1="27.853" x2="28.915"/>
  <line y1="-37.354" y2="-37.354" style="fill:none;stroke:#000000;stroke-width:0.3;" x1="21.665" x2="27.853"/>
  <line y1="-41.854" y2="-42.854" style="fill:none;stroke:#000000;stroke-width:0.3;" x1="46.957" x2="45.895"/>
  <line y1="-42.854" y2="-43.854" style="fill:none;stroke:#000000;stroke-width:0.3;" x1="45.895" x2="46.957"/>
  <line y1="-42.854" y2="-42.854" style="fill:none;stroke:#000000;stroke-width:0.3;" x1="39.707" x2="45.895"/>
  <line y1="-31.688" y2="-30.688" style="fill:none;stroke:#000000;stroke-width:0.3;" x1="42.77" x2="43.832"/>
  <line y1="-31.688" y2="-32.688" style="fill:none;stroke:#000000;stroke-width:0.3;" x1="42.77" x2="43.832"/>
  <line y1="-31.688" y2="-31.688" style="fill:none;stroke:#000000;stroke-width:0.3;" x1="42.77" x2="36.582"/>
  <line y1="-26.667" y2="-25.667" style="fill:none;stroke:#000000;stroke-width:0.3;" x1="2.477" x2="1.415"/>
  <line y1="-25.667" y2="-24.667" style="fill:none;stroke:#000000;stroke-width:0.3;" x1="1.415" x2="2.477"/>
  <line y1="-25.667" y2="-25.667" style="fill:none;stroke:#000000;stroke-width:0.3;" x1="0" x2="1.415"/>
  <line y1="-21.042" y2="-20.042" style="fill:none;stroke:#000000;stroke-width:0.3;" x1="34.853" x2="35.915"/>
  <line y1="-22.042" y2="-21.042" style="fill:none;stroke:#000000;stroke-width:0.3;" x1="35.915" x2="34.853"/>
  <line y1="-21.042" y2="-21.042" style="fill:none;stroke:#000000;stroke-width:0.3;" x1="34.853" x2="28.665"/>
  <line y1="-49.5" y2="-48.5" style="fill:none;stroke:#000000;stroke-width:0.3;" x1="50.803" x2="51.78"/>
  <line y1="-50.5" y2="-49.5" style="fill:none;stroke:#000000;stroke-width:0.3;" x1="51.78" x2="50.803"/>
  <line y1="-49.5" y2="-49.5" style="fill:none;stroke:#000000;stroke-width:0.3;" x1="50.803" x2="45.11"/>
  <line y1="-49.417" y2="-49.417" style="fill:none;stroke:#000000;stroke-width:0.3;" x1="40.079" x2="34.387"/>
  <line y1="-49.333" y2="-49.333" style="fill:none;stroke:#000000;stroke-width:0.3;" x1="29.355" x2="23.663"/>
  <line y1="-49.25" y2="-49.25" style="fill:none;stroke:#000000;stroke-width:0.3;" x1="18.632" x2="12.939"/>
  <line y1="-50.417" y2="-49.417" style="fill:none;stroke:#000000;stroke-width:0.3;" x1="41.057" x2="40.079"/>
  <line y1="-49.417" y2="-48.417" style="fill:none;stroke:#000000;stroke-width:0.3;" x1="40.079" x2="41.057"/>
  <line y1="-50.333" y2="-49.333" style="fill:none;stroke:#000000;stroke-width:0.3;" x1="30.333" x2="29.355"/>
  <line y1="-49.333" y2="-48.333" style="fill:none;stroke:#000000;stroke-width:0.3;" x1="29.355" x2="30.333"/>
  <line y1="-50.25" y2="-49.25" style="fill:none;stroke:#000000;stroke-width:0.3;" x1="19.609" x2="18.632"/>
  <line y1="-49.25" y2="-48.25" style="fill:none;stroke:#000000;stroke-width:0.3;" x1="18.632" x2="19.609"/>
  <line y1="-49.167" y2="-48.167" style="fill:none;stroke:#000000;stroke-width:0.3;" x1="7.908" x2="8.885"/>
  <line y1="-50.167" y2="-49.167" style="fill:none;stroke:#000000;stroke-width:0.3;" x1="8.885" x2="7.908"/>
  <line y1="-49.167" y2="-49.167" style="fill:none;stroke:#000000;stroke-width:0.3;" x1="7.908" x2="2.215"/>
  <line y1="-47.062" y2="-47.062" style="fill:none;stroke:#000000;stroke-width:0.3;" x1="0" x2="53.978"/>
  <line y1="-51.312" y2="-51.312" style="fill:none;stroke:#000000;stroke-width:0.3;" x1="0" x2="53.978"/>
  <line y1="-6.521" y2="-7.521" style="fill:none;stroke:#000000;stroke-width:0.3;" x1="13.227" x2="14.29"/>
  <line y1="-6.521" y2="-5.521" style="fill:none;stroke:#000000;stroke-width:0.3;" x1="13.227" x2="14.29"/>
  <line y1="-6.521" y2="-6.521" style="fill:none;stroke:#000000;stroke-width:0.3;" x1="13.227" x2="7.04"/>
  <line y1="-25.667" y2="-25.667" style="fill:none;stroke:#000000;stroke-width:0.3;" x1="49.205" x2="53.978"/>
 </g>
</svg>
