<?xml version="1.0"?>
<!-- Converted with SVG Converter - Version 0.9.5 (Compiled Fri Feb 21 09:53:38 2020) - Copyright (C) 2011 Nokia -->
<svg xmlns="http://www.w3.org/2000/svg" y="0px" baseProfile="tiny" x="0px" width="53.978" xmlns:xlink="http://www.w3.org/1999/xlink" version="1.1" xml:space="preserve" height="53.978" viewBox="0 -53.978 53.978 53.978">
 <g>
  <rect y="-53.978" x="0" style="fill:none;" width="53.978" height="53.978"/>
  <line style="fill:none;stroke:#000000;stroke-width:0.3;" x1="10.727" y1="-43.125" y2="-44.125" x2="11.79"/>
  <line style="fill:none;stroke:#000000;stroke-width:0.3;" x1="11.79" y1="-42.125" y2="-43.125" x2="10.727"/>
  <line style="fill:none;stroke:#000000;stroke-width:0.3;" x1="4.54" y1="-43.125" y2="-43.125" x2="10.727"/>
  <line style="fill:none;stroke:#000000;stroke-width:0.3;" x1="18.832" y1="-29.396" y2="-28.396" x2="17.77"/>
  <line style="fill:none;stroke:#000000;stroke-width:0.3;" x1="17.77" y1="-28.396" y2="-27.396" x2="18.832"/>
  <line style="fill:none;stroke:#000000;stroke-width:0.3;" x1="11.582" y1="-28.396" y2="-28.396" x2="17.77"/>
  <line style="fill:none;stroke:#000000;stroke-width:0.3;" x1="27.02" y1="-11.875" y2="-12.875" x2="28.082"/>
  <line style="fill:none;stroke:#000000;stroke-width:0.3;" x1="27.02" y1="-11.875" y2="-10.875" x2="28.082"/>
  <line style="fill:none;stroke:#000000;stroke-width:0.3;" x1="20.832" y1="-11.875" y2="-11.875" x2="27.02"/>
  <line style="fill:none;stroke:#000000;stroke-width:0.3;" x1="26.728" y1="-1.521" y2="-0.521" x2="27.79"/>
  <line style="fill:none;stroke:#000000;stroke-width:0.3;" x1="26.728" y1="-1.521" y2="-2.521" x2="27.79"/>
  <line style="fill:none;stroke:#000000;stroke-width:0.3;" x1="26.728" y1="-1.521" y2="-1.521" x2="20.54"/>
  <line style="fill:none;stroke:#000000;stroke-width:0.3;" x1="51.499" y1="-13.042" y2="-12.042" x2="50.437"/>
  <line style="fill:none;stroke:#000000;stroke-width:0.3;" x1="50.437" y1="-12.042" y2="-11.042" x2="51.499"/>
  <line style="fill:none;stroke:#000000;stroke-width:0.3;" x1="50.437" y1="-12.042" y2="-12.042" x2="44.249"/>
  <line style="fill:none;stroke:#000000;stroke-width:0.3;" x1="44.645" y1="-2.542" y2="-1.541" x2="45.707"/>
  <line style="fill:none;stroke:#000000;stroke-width:0.3;" x1="45.707" y1="-3.542" y2="-2.542" x2="44.645"/>
  <line style="fill:none;stroke:#000000;stroke-width:0.3;" x1="44.645" y1="-2.542" y2="-2.542" x2="38.457"/>
  <line style="fill:none;stroke:#000000;stroke-width:0.3;" x1="8.977" y1="-16.562" y2="-15.562" x2="10.04"/>
  <line style="fill:none;stroke:#000000;stroke-width:0.3;" x1="8.977" y1="-16.562" y2="-17.562" x2="10.04"/>
  <line style="fill:none;stroke:#000000;stroke-width:0.3;" x1="8.977" y1="-16.562" y2="-16.562" x2="2.79"/>
  <line style="fill:none;stroke:#000000;stroke-width:0.3;" x1="28.915" y1="-38.354" y2="-37.354" x2="27.853"/>
  <line style="fill:none;stroke:#000000;stroke-width:0.3;" x1="27.853" y1="-37.354" y2="-36.354" x2="28.915"/>
  <line style="fill:none;stroke:#000000;stroke-width:0.3;" x1="21.665" y1="-37.354" y2="-37.354" x2="27.853"/>
  <line style="fill:none;stroke:#000000;stroke-width:0.3;" x1="46.957" y1="-41.854" y2="-42.854" x2="45.895"/>
  <line style="fill:none;stroke:#000000;stroke-width:0.3;" x1="45.895" y1="-42.854" y2="-43.854" x2="46.957"/>
  <line style="fill:none;stroke:#000000;stroke-width:0.3;" x1="39.707" y1="-42.854" y2="-42.854" x2="45.895"/>
  <line style="fill:none;stroke:#000000;stroke-width:0.3;" x1="42.77" y1="-31.688" y2="-30.688" x2="43.832"/>
  <line style="fill:none;stroke:#000000;stroke-width:0.3;" x1="42.77" y1="-31.688" y2="-32.688" x2="43.832"/>
  <line style="fill:none;stroke:#000000;stroke-width:0.3;" x1="42.77" y1="-31.688" y2="-31.688" x2="36.582"/>
  <line style="fill:none;stroke:#000000;stroke-width:0.3;" x1="2.477" y1="-26.667" y2="-25.667" x2="1.415"/>
  <line style="fill:none;stroke:#000000;stroke-width:0.3;" x1="1.415" y1="-25.667" y2="-24.667" x2="2.477"/>
  <line style="fill:none;stroke:#000000;stroke-width:0.3;" x1="0" y1="-25.667" y2="-25.667" x2="1.415"/>
  <line style="fill:none;stroke:#000000;stroke-width:0.3;" x1="34.853" y1="-21.042" y2="-20.042" x2="35.915"/>
  <line style="fill:none;stroke:#000000;stroke-width:0.3;" x1="35.915" y1="-22.042" y2="-21.042" x2="34.853"/>
  <line style="fill:none;stroke:#000000;stroke-width:0.3;" x1="34.853" y1="-21.042" y2="-21.042" x2="28.665"/>
  <line style="fill:none;stroke:#000000;stroke-width:0.3;" x1="50.803" y1="-49.5" y2="-48.5" x2="51.78"/>
  <line style="fill:none;stroke:#000000;stroke-width:0.3;" x1="51.78" y1="-50.5" y2="-49.5" x2="50.803"/>
  <line style="fill:none;stroke:#000000;stroke-width:0.3;" x1="50.803" y1="-49.5" y2="-49.5" x2="45.11"/>
  <line style="fill:none;stroke:#000000;stroke-width:0.3;" x1="40.079" y1="-49.417" y2="-49.417" x2="34.387"/>
  <line style="fill:none;stroke:#000000;stroke-width:0.3;" x1="29.355" y1="-49.333" y2="-49.333" x2="23.663"/>
  <line style="fill:none;stroke:#000000;stroke-width:0.3;" x1="18.632" y1="-49.25" y2="-49.25" x2="12.939"/>
  <line style="fill:none;stroke:#000000;stroke-width:0.3;" x1="41.057" y1="-50.417" y2="-49.417" x2="40.079"/>
  <line style="fill:none;stroke:#000000;stroke-width:0.3;" x1="40.079" y1="-49.417" y2="-48.417" x2="41.057"/>
  <line style="fill:none;stroke:#000000;stroke-width:0.3;" x1="30.333" y1="-50.333" y2="-49.333" x2="29.355"/>
  <line style="fill:none;stroke:#000000;stroke-width:0.3;" x1="29.355" y1="-49.333" y2="-48.333" x2="30.333"/>
  <line style="fill:none;stroke:#000000;stroke-width:0.3;" x1="19.609" y1="-50.25" y2="-49.25" x2="18.632"/>
  <line style="fill:none;stroke:#000000;stroke-width:0.3;" x1="18.632" y1="-49.25" y2="-48.25" x2="19.609"/>
  <line style="fill:none;stroke:#000000;stroke-width:0.3;" x1="7.908" y1="-49.167" y2="-48.167" x2="8.885"/>
  <line style="fill:none;stroke:#000000;stroke-width:0.3;" x1="8.885" y1="-50.167" y2="-49.167" x2="7.908"/>
  <line style="fill:none;stroke:#000000;stroke-width:0.3;" x1="7.908" y1="-49.167" y2="-49.167" x2="2.215"/>
  <line style="fill:none;stroke:#000000;stroke-width:0.3;" x1="0" y1="-47.062" y2="-47.062" x2="53.978"/>
  <line style="fill:none;stroke:#000000;stroke-width:0.3;" x1="0" y1="-51.312" y2="-51.312" x2="53.978"/>
  <line style="fill:none;stroke:#000000;stroke-width:0.3;" x1="13.227" y1="-6.521" y2="-7.521" x2="14.29"/>
  <line style="fill:none;stroke:#000000;stroke-width:0.3;" x1="13.227" y1="-6.521" y2="-5.521" x2="14.29"/>
  <line style="fill:none;stroke:#000000;stroke-width:0.3;" x1="13.227" y1="-6.521" y2="-6.521" x2="7.04"/>
  <line style="fill:none;stroke:#000000;stroke-width:0.3;" x1="49.205" y1="-25.667" y2="-25.667" x2="53.978"/>
 </g>
</svg>
