<?xml version="1.0"?>
<!-- Converted with SVG Converter - Version 0.9.5 (Compiled Fri Feb 21 09:53:38 2020) - Copyright (C) 2011 Nokia -->
<svg xmlns="http://www.w3.org/2000/svg" viewBox="1 -54.978 53.978 53.978" xmlns:xlink="http://www.w3.org/1999/xlink" version="1.1" height="53.978" x="0px" y="0px" width="53.978" baseProfile="tiny" xml:space="preserve">
 <g>
  <rect height="53.978" x="1" y="-54.978" width="53.978" style="fill:none;"/>
  <circle cy="-36.017" r="2.357" style="fill:none;stroke:#000000;stroke-width:0.3;" cx="4.44"/>
  <rect height="1.641" x="3.62" y="-36.838" width="1.641" style="fill:none;stroke:#000000;stroke-width:0.3;"/>
  <circle cy="-32.679" r="2.357" style="fill:none;stroke:#000000;stroke-width:0.3;" cx="37.907"/>
  <rect height="1.641" x="37.086" y="-33.5" width="1.641" style="fill:none;stroke:#000000;stroke-width:0.3;"/>
  <circle cy="-26.583" r="2.357" style="fill:none;stroke:#000000;stroke-width:0.3;" cx="51.394"/>
  <rect height="1.641" x="50.574" y="-27.404" width="1.641" style="fill:none;stroke:#000000;stroke-width:0.3;"/>
  <circle cy="-39.407" r="2.357" style="fill:none;stroke:#000000;stroke-width:0.3;" cx="23.798"/>
  <rect height="1.641" x="22.978" y="-40.228" width="1.641" style="fill:none;stroke:#000000;stroke-width:0.3;"/>
  <circle cy="-46.833" r="2.357" style="fill:none;stroke:#000000;stroke-width:0.3;" cx="8.894"/>
  <rect height="1.641" x="8.074" y="-47.654" width="1.641" style="fill:none;stroke:#000000;stroke-width:0.3;"/>
  <circle cy="-45.657" r="2.357" style="fill:none;stroke:#000000;stroke-width:0.3;" cx="42.798"/>
  <rect height="1.641" x="41.978" y="-46.478" width="1.641" style="fill:none;stroke:#000000;stroke-width:0.3;"/>
  <circle cy="-51.208" r="2.357" style="fill:none;stroke:#000000;stroke-width:0.3;" cx="23.144"/>
  <rect height="1.641" x="22.324" y="-52.029" width="1.641" style="fill:none;stroke:#000000;stroke-width:0.3;"/>
  <circle cy="-51.708" r="2.357" style="fill:none;stroke:#000000;stroke-width:0.3;" cx="51.269"/>
  <rect height="1.641" x="50.449" y="-52.529" width="1.641" style="fill:none;stroke:#000000;stroke-width:0.3;"/>
  <circle cy="-27.862" r="2.357" style="fill:none;stroke:#000000;stroke-width:0.3;" cx="19.824"/>
  <rect height="1.641" x="19.003" y="-28.683" width="1.641" style="fill:none;stroke:#000000;stroke-width:0.3;"/>
  <circle cy="-16.237" r="2.357" style="fill:none;stroke:#000000;stroke-width:0.3;" cx="4.824"/>
  <rect height="1.641" x="4.003" y="-17.058" width="1.641" style="fill:none;stroke:#000000;stroke-width:0.3;"/>
  <circle cy="-18.112" r="2.357" style="fill:none;stroke:#000000;stroke-width:0.3;" cx="39.074"/>
  <rect height="1.641" x="38.253" y="-18.933" width="1.641" style="fill:none;stroke:#000000;stroke-width:0.3;"/>
  <circle cy="-9.862" r="2.357" style="fill:none;stroke:#000000;stroke-width:0.3;" cx="48.824"/>
  <rect height="1.641" x="48.003" y="-10.683" width="1.641" style="fill:none;stroke:#000000;stroke-width:0.3;"/>
  <circle cy="-4.987" r="2.357" style="fill:none;stroke:#000000;stroke-width:0.3;" cx="34.199"/>
  <rect height="1.641" x="33.378" y="-5.808" width="1.641" style="fill:none;stroke:#000000;stroke-width:0.3;"/>
  <circle cy="-11.987" r="2.357" style="fill:none;stroke:#000000;stroke-width:0.3;" cx="22.574"/>
  <rect height="1.641" x="21.753" y="-12.808" width="1.641" style="fill:none;stroke:#000000;stroke-width:0.3;"/>
  <circle cy="-4.237" r="2.357" style="fill:none;stroke:#000000;stroke-width:0.3;" cx="11.824"/>
  <rect height="1.641" x="11.003" y="-5.058" width="1.641" style="fill:none;stroke:#000000;stroke-width:0.3;"/>
 </g>
</svg>
