<?xml version="1.0"?>
<!-- Converted with SVG Converter - Version 0.9.5 (Compiled Fri Feb 21 09:53:38 2020) - Copyright (C) 2011 Nokia -->
<svg xmlns="http://www.w3.org/2000/svg" viewBox="1 -54.978 53.978 53.978" y="0px" version="1.1" width="53.978" height="53.978" baseProfile="tiny" x="0px" xml:space="preserve" xmlns:xlink="http://www.w3.org/1999/xlink">
 <g>
  <rect y="-54.978" width="53.978" height="53.978" style="fill:none;" x="1"/>
  <circle cy="-36.017" r="2.357" style="fill:none;stroke:#000000;stroke-width:0.3;" cx="4.44"/>
  <rect y="-36.838" width="1.641" height="1.641" style="fill:none;stroke:#000000;stroke-width:0.3;" x="3.62"/>
  <circle cy="-32.679" r="2.357" style="fill:none;stroke:#000000;stroke-width:0.3;" cx="37.907"/>
  <rect y="-33.5" width="1.641" height="1.641" style="fill:none;stroke:#000000;stroke-width:0.3;" x="37.086"/>
  <circle cy="-26.583" r="2.357" style="fill:none;stroke:#000000;stroke-width:0.3;" cx="51.394"/>
  <rect y="-27.404" width="1.641" height="1.641" style="fill:none;stroke:#000000;stroke-width:0.3;" x="50.574"/>
  <circle cy="-39.407" r="2.357" style="fill:none;stroke:#000000;stroke-width:0.3;" cx="23.798"/>
  <rect y="-40.228" width="1.641" height="1.641" style="fill:none;stroke:#000000;stroke-width:0.3;" x="22.978"/>
  <circle cy="-46.833" r="2.357" style="fill:none;stroke:#000000;stroke-width:0.3;" cx="8.894"/>
  <rect y="-47.654" width="1.641" height="1.641" style="fill:none;stroke:#000000;stroke-width:0.3;" x="8.074"/>
  <circle cy="-45.657" r="2.357" style="fill:none;stroke:#000000;stroke-width:0.3;" cx="42.798"/>
  <rect y="-46.478" width="1.641" height="1.641" style="fill:none;stroke:#000000;stroke-width:0.3;" x="41.978"/>
  <circle cy="-51.208" r="2.357" style="fill:none;stroke:#000000;stroke-width:0.3;" cx="23.144"/>
  <rect y="-52.029" width="1.641" height="1.641" style="fill:none;stroke:#000000;stroke-width:0.3;" x="22.324"/>
  <circle cy="-51.708" r="2.357" style="fill:none;stroke:#000000;stroke-width:0.3;" cx="51.269"/>
  <rect y="-52.529" width="1.641" height="1.641" style="fill:none;stroke:#000000;stroke-width:0.3;" x="50.449"/>
  <circle cy="-27.862" r="2.357" style="fill:none;stroke:#000000;stroke-width:0.3;" cx="19.824"/>
  <rect y="-28.683" width="1.641" height="1.641" style="fill:none;stroke:#000000;stroke-width:0.3;" x="19.003"/>
  <circle cy="-16.237" r="2.357" style="fill:none;stroke:#000000;stroke-width:0.3;" cx="4.824"/>
  <rect y="-17.058" width="1.641" height="1.641" style="fill:none;stroke:#000000;stroke-width:0.3;" x="4.003"/>
  <circle cy="-18.112" r="2.357" style="fill:none;stroke:#000000;stroke-width:0.3;" cx="39.074"/>
  <rect y="-18.933" width="1.641" height="1.641" style="fill:none;stroke:#000000;stroke-width:0.3;" x="38.253"/>
  <circle cy="-9.862" r="2.357" style="fill:none;stroke:#000000;stroke-width:0.3;" cx="48.824"/>
  <rect y="-10.683" width="1.641" height="1.641" style="fill:none;stroke:#000000;stroke-width:0.3;" x="48.003"/>
  <circle cy="-4.987" r="2.357" style="fill:none;stroke:#000000;stroke-width:0.3;" cx="34.199"/>
  <rect y="-5.808" width="1.641" height="1.641" style="fill:none;stroke:#000000;stroke-width:0.3;" x="33.378"/>
  <circle cy="-11.987" r="2.357" style="fill:none;stroke:#000000;stroke-width:0.3;" cx="22.574"/>
  <rect y="-12.808" width="1.641" height="1.641" style="fill:none;stroke:#000000;stroke-width:0.3;" x="21.753"/>
  <circle cy="-4.237" r="2.357" style="fill:none;stroke:#000000;stroke-width:0.3;" cx="11.824"/>
  <rect y="-5.058" width="1.641" height="1.641" style="fill:none;stroke:#000000;stroke-width:0.3;" x="11.003"/>
 </g>
</svg>
