<?xml version="1.0"?>
<!-- Converted with SVG Converter - Version 0.9.5 (Compiled Fri Feb 21 09:53:38 2020) - Copyright (C) 2011 Nokia -->
<svg xmlns="http://www.w3.org/2000/svg" x="0px" width="53.978" xml:space="preserve" viewBox="1 -54.978 53.978 53.978" version="1.1" height="53.978" baseProfile="tiny" y="0px" xmlns:xlink="http://www.w3.org/1999/xlink">
 <g>
  <rect x="1" width="53.978" height="53.978" y="-54.978" style="fill:none;"/>
  <circle r="2.357" cy="-36.017" cx="4.44" style="fill:none;stroke:#000000;stroke-width:0.3;"/>
  <rect x="3.62" width="1.641" height="1.641" y="-36.838" style="fill:none;stroke:#000000;stroke-width:0.3;"/>
  <circle r="2.357" cy="-32.679" cx="37.907" style="fill:none;stroke:#000000;stroke-width:0.3;"/>
  <rect x="37.086" width="1.641" height="1.641" y="-33.5" style="fill:none;stroke:#000000;stroke-width:0.3;"/>
  <circle r="2.357" cy="-26.583" cx="51.394" style="fill:none;stroke:#000000;stroke-width:0.3;"/>
  <rect x="50.574" width="1.641" height="1.641" y="-27.404" style="fill:none;stroke:#000000;stroke-width:0.3;"/>
  <circle r="2.357" cy="-39.407" cx="23.798" style="fill:none;stroke:#000000;stroke-width:0.3;"/>
  <rect x="22.978" width="1.641" height="1.641" y="-40.228" style="fill:none;stroke:#000000;stroke-width:0.3;"/>
  <circle r="2.357" cy="-46.833" cx="8.894" style="fill:none;stroke:#000000;stroke-width:0.3;"/>
  <rect x="8.074" width="1.641" height="1.641" y="-47.654" style="fill:none;stroke:#000000;stroke-width:0.3;"/>
  <circle r="2.357" cy="-45.657" cx="42.798" style="fill:none;stroke:#000000;stroke-width:0.3;"/>
  <rect x="41.978" width="1.641" height="1.641" y="-46.478" style="fill:none;stroke:#000000;stroke-width:0.3;"/>
  <circle r="2.357" cy="-51.208" cx="23.144" style="fill:none;stroke:#000000;stroke-width:0.3;"/>
  <rect x="22.324" width="1.641" height="1.641" y="-52.029" style="fill:none;stroke:#000000;stroke-width:0.3;"/>
  <circle r="2.357" cy="-51.708" cx="51.269" style="fill:none;stroke:#000000;stroke-width:0.3;"/>
  <rect x="50.449" width="1.641" height="1.641" y="-52.529" style="fill:none;stroke:#000000;stroke-width:0.3;"/>
  <circle r="2.357" cy="-27.862" cx="19.824" style="fill:none;stroke:#000000;stroke-width:0.3;"/>
  <rect x="19.003" width="1.641" height="1.641" y="-28.683" style="fill:none;stroke:#000000;stroke-width:0.3;"/>
  <circle r="2.357" cy="-16.237" cx="4.824" style="fill:none;stroke:#000000;stroke-width:0.3;"/>
  <rect x="4.003" width="1.641" height="1.641" y="-17.058" style="fill:none;stroke:#000000;stroke-width:0.3;"/>
  <circle r="2.357" cy="-18.112" cx="39.074" style="fill:none;stroke:#000000;stroke-width:0.3;"/>
  <rect x="38.253" width="1.641" height="1.641" y="-18.933" style="fill:none;stroke:#000000;stroke-width:0.3;"/>
  <circle r="2.357" cy="-9.862" cx="48.824" style="fill:none;stroke:#000000;stroke-width:0.3;"/>
  <rect x="48.003" width="1.641" height="1.641" y="-10.683" style="fill:none;stroke:#000000;stroke-width:0.3;"/>
  <circle r="2.357" cy="-4.987" cx="34.199" style="fill:none;stroke:#000000;stroke-width:0.3;"/>
  <rect x="33.378" width="1.641" height="1.641" y="-5.808" style="fill:none;stroke:#000000;stroke-width:0.3;"/>
  <circle r="2.357" cy="-11.987" cx="22.574" style="fill:none;stroke:#000000;stroke-width:0.3;"/>
  <rect x="21.753" width="1.641" height="1.641" y="-12.808" style="fill:none;stroke:#000000;stroke-width:0.3;"/>
  <circle r="2.357" cy="-4.237" cx="11.824" style="fill:none;stroke:#000000;stroke-width:0.3;"/>
  <rect x="11.003" width="1.641" height="1.641" y="-5.058" style="fill:none;stroke:#000000;stroke-width:0.3;"/>
 </g>
</svg>
