<?xml version="1.0"?>
<!-- Converted with SVG Converter - Version 0.9.5 (Compiled Fri Feb 21 09:53:38 2020) - Copyright (C) 2011 Nokia -->
<svg xmlns="http://www.w3.org/2000/svg" height="38.864" viewBox="0.106 -38.97 38.863 38.864" xml:space="preserve" xmlns:xlink="http://www.w3.org/1999/xlink" version="1.1" width="38.863" y="0px" x="0px" baseProfile="tiny">
 <g>
  <rect height="38.864" width="38.863" style="fill:none;" y="-38.97" x="0.106"/>
  <line x2="38.969" x1="0.109" y2="-0.149" style="fill:none;stroke:#000000;stroke-width:0.3;" y1="-38.97"/>
  <line x2="38.969" x1="2.699" y2="-2.737" style="fill:none;stroke:#000000;stroke-width:0.3;" y1="-38.97"/>
  <line x2="38.969" x1="5.289" y2="-5.324" style="fill:none;stroke:#000000;stroke-width:0.3;" y1="-38.97"/>
  <line x2="38.969" x1="7.878" y2="-7.912" style="fill:none;stroke:#000000;stroke-width:0.3;" y1="-38.97"/>
  <line x2="38.969" x1="10.469" y2="-10.5" style="fill:none;stroke:#000000;stroke-width:0.3;" y1="-38.97"/>
  <line x2="38.969" x1="13.059" y2="-13.087" style="fill:none;stroke:#000000;stroke-width:0.3;" y1="-38.97"/>
  <line x2="38.969" x1="15.65" y2="-15.674" style="fill:none;stroke:#000000;stroke-width:0.3;" y1="-38.97"/>
  <line x2="38.969" x1="18.24" y2="-18.262" style="fill:none;stroke:#000000;stroke-width:0.3;" y1="-38.97"/>
  <line x2="38.969" x1="20.831" y2="-20.85" style="fill:none;stroke:#000000;stroke-width:0.3;" y1="-38.97"/>
  <line x2="38.969" x1="23.42" y2="-23.437" style="fill:none;stroke:#000000;stroke-width:0.3;" y1="-38.97"/>
  <line x2="38.969" x1="26.011" y2="-26.025" style="fill:none;stroke:#000000;stroke-width:0.3;" y1="-38.97"/>
  <line x2="38.969" x1="28.601" y2="-28.612" style="fill:none;stroke:#000000;stroke-width:0.3;" y1="-38.97"/>
  <line x2="38.969" x1="31.192" y2="-31.2" style="fill:none;stroke:#000000;stroke-width:0.3;" y1="-38.97"/>
  <line x2="38.969" x1="33.782" y2="-33.788" style="fill:none;stroke:#000000;stroke-width:0.3;" y1="-38.97"/>
  <line x2="38.969" x1="36.372" y2="-36.375" style="fill:none;stroke:#000000;stroke-width:0.3;" y1="-38.97"/>
  <line x2="36.42" x1="0.106" y2="-0.106" style="fill:none;stroke:#000000;stroke-width:0.3;" y1="-36.383"/>
  <line x2="33.83" x1="0.106" y2="-0.106" style="fill:none;stroke:#000000;stroke-width:0.3;" y1="-33.794"/>
  <line x2="31.238" x1="0.106" y2="-0.106" style="fill:none;stroke:#000000;stroke-width:0.3;" y1="-31.206"/>
  <line x2="28.646" x1="0.106" y2="-0.106" style="fill:none;stroke:#000000;stroke-width:0.3;" y1="-28.617"/>
  <line x2="26.054" x1="0.106" y2="-0.106" style="fill:none;stroke:#000000;stroke-width:0.3;" y1="-26.028"/>
  <line x2="23.463" x1="0.106" y2="-0.106" style="fill:none;stroke:#000000;stroke-width:0.3;" y1="-23.439"/>
  <line x2="20.872" x1="0.106" y2="-0.106" style="fill:none;stroke:#000000;stroke-width:0.3;" y1="-20.85"/>
  <line x2="18.28" x1="0.106" y2="-0.106" style="fill:none;stroke:#000000;stroke-width:0.3;" y1="-18.26"/>
  <line x2="15.688" x1="0.106" y2="-0.106" style="fill:none;stroke:#000000;stroke-width:0.3;" y1="-15.671"/>
  <line x2="13.096" x1="0.106" y2="-0.106" style="fill:none;stroke:#000000;stroke-width:0.3;" y1="-13.083"/>
  <line x2="10.504" x1="0.106" y2="-0.106" style="fill:none;stroke:#000000;stroke-width:0.3;" y1="-10.494"/>
  <line x2="7.914" x1="0.106" y2="-0.106" style="fill:none;stroke:#000000;stroke-width:0.3;" y1="-7.905"/>
  <line x2="5.322" x1="0.106" y2="-0.106" style="fill:none;stroke:#000000;stroke-width:0.3;" y1="-5.316"/>
  <line x2="2.73" x1="0.106" y2="-0.106" style="fill:none;stroke:#000000;stroke-width:0.3;" y1="-2.727"/>
 </g>
</svg>
