<?xml version="1.0"?>
<!-- Converted with SVG Converter - Version 0.9.5 (Compiled Fri Feb 21 09:53:38 2020) - Copyright (C) 2011 Nokia -->
<svg xmlns="http://www.w3.org/2000/svg" width="38.863" xml:space="preserve" xmlns:xlink="http://www.w3.org/1999/xlink" y="0px" x="0px" version="1.1" baseProfile="tiny" height="38.864" viewBox="0.106 -38.97 38.863 38.864">
 <g>
  <rect style="fill:none;" width="38.863" y="-38.97" x="0.106" height="38.864"/>
  <line style="fill:none;stroke:#000000;stroke-width:0.3;" y1="-38.97" y2="-0.149" x2="38.969" x1="0.109"/>
  <line style="fill:none;stroke:#000000;stroke-width:0.3;" y1="-38.97" y2="-2.737" x2="38.969" x1="2.699"/>
  <line style="fill:none;stroke:#000000;stroke-width:0.3;" y1="-38.97" y2="-5.324" x2="38.969" x1="5.289"/>
  <line style="fill:none;stroke:#000000;stroke-width:0.3;" y1="-38.97" y2="-7.912" x2="38.969" x1="7.878"/>
  <line style="fill:none;stroke:#000000;stroke-width:0.3;" y1="-38.97" y2="-10.5" x2="38.969" x1="10.469"/>
  <line style="fill:none;stroke:#000000;stroke-width:0.3;" y1="-38.97" y2="-13.087" x2="38.969" x1="13.059"/>
  <line style="fill:none;stroke:#000000;stroke-width:0.3;" y1="-38.97" y2="-15.674" x2="38.969" x1="15.65"/>
  <line style="fill:none;stroke:#000000;stroke-width:0.3;" y1="-38.97" y2="-18.262" x2="38.969" x1="18.24"/>
  <line style="fill:none;stroke:#000000;stroke-width:0.3;" y1="-38.97" y2="-20.85" x2="38.969" x1="20.831"/>
  <line style="fill:none;stroke:#000000;stroke-width:0.3;" y1="-38.97" y2="-23.437" x2="38.969" x1="23.42"/>
  <line style="fill:none;stroke:#000000;stroke-width:0.3;" y1="-38.97" y2="-26.025" x2="38.969" x1="26.011"/>
  <line style="fill:none;stroke:#000000;stroke-width:0.3;" y1="-38.97" y2="-28.612" x2="38.969" x1="28.601"/>
  <line style="fill:none;stroke:#000000;stroke-width:0.3;" y1="-38.97" y2="-31.2" x2="38.969" x1="31.192"/>
  <line style="fill:none;stroke:#000000;stroke-width:0.3;" y1="-38.97" y2="-33.788" x2="38.969" x1="33.782"/>
  <line style="fill:none;stroke:#000000;stroke-width:0.3;" y1="-38.97" y2="-36.375" x2="38.969" x1="36.372"/>
  <line style="fill:none;stroke:#000000;stroke-width:0.3;" y1="-36.383" y2="-0.106" x2="36.42" x1="0.106"/>
  <line style="fill:none;stroke:#000000;stroke-width:0.3;" y1="-33.794" y2="-0.106" x2="33.83" x1="0.106"/>
  <line style="fill:none;stroke:#000000;stroke-width:0.3;" y1="-31.206" y2="-0.106" x2="31.238" x1="0.106"/>
  <line style="fill:none;stroke:#000000;stroke-width:0.3;" y1="-28.617" y2="-0.106" x2="28.646" x1="0.106"/>
  <line style="fill:none;stroke:#000000;stroke-width:0.3;" y1="-26.028" y2="-0.106" x2="26.054" x1="0.106"/>
  <line style="fill:none;stroke:#000000;stroke-width:0.3;" y1="-23.439" y2="-0.106" x2="23.463" x1="0.106"/>
  <line style="fill:none;stroke:#000000;stroke-width:0.3;" y1="-20.85" y2="-0.106" x2="20.872" x1="0.106"/>
  <line style="fill:none;stroke:#000000;stroke-width:0.3;" y1="-18.26" y2="-0.106" x2="18.28" x1="0.106"/>
  <line style="fill:none;stroke:#000000;stroke-width:0.3;" y1="-15.671" y2="-0.106" x2="15.688" x1="0.106"/>
  <line style="fill:none;stroke:#000000;stroke-width:0.3;" y1="-13.083" y2="-0.106" x2="13.096" x1="0.106"/>
  <line style="fill:none;stroke:#000000;stroke-width:0.3;" y1="-10.494" y2="-0.106" x2="10.504" x1="0.106"/>
  <line style="fill:none;stroke:#000000;stroke-width:0.3;" y1="-7.905" y2="-0.106" x2="7.914" x1="0.106"/>
  <line style="fill:none;stroke:#000000;stroke-width:0.3;" y1="-5.316" y2="-0.106" x2="5.322" x1="0.106"/>
  <line style="fill:none;stroke:#000000;stroke-width:0.3;" y1="-2.727" y2="-0.106" x2="2.73" x1="0.106"/>
 </g>
</svg>
