<?xml version="1.0"?>
<!-- Converted with SVG Converter - Version 0.9.5 (Compiled Fri Feb 21 09:53:38 2020) - Copyright (C) 2011 Nokia -->
<svg xmlns="http://www.w3.org/2000/svg" height="38.864" x="0px" xml:space="preserve" y="0px" version="1.1" baseProfile="tiny" xmlns:xlink="http://www.w3.org/1999/xlink" width="38.863" viewBox="0.106 -38.97 38.863 38.864">
 <g>
  <rect style="fill:none;" height="38.864" x="0.106" y="-38.97" width="38.863"/>
  <line style="fill:none;stroke:#000000;stroke-width:0.3;" x1="0.109" x2="38.969" y2="-0.149" y1="-38.97"/>
  <line style="fill:none;stroke:#000000;stroke-width:0.3;" x1="2.699" x2="38.969" y2="-2.737" y1="-38.97"/>
  <line style="fill:none;stroke:#000000;stroke-width:0.3;" x1="5.289" x2="38.969" y2="-5.324" y1="-38.97"/>
  <line style="fill:none;stroke:#000000;stroke-width:0.3;" x1="7.878" x2="38.969" y2="-7.912" y1="-38.97"/>
  <line style="fill:none;stroke:#000000;stroke-width:0.3;" x1="10.469" x2="38.969" y2="-10.5" y1="-38.97"/>
  <line style="fill:none;stroke:#000000;stroke-width:0.3;" x1="13.059" x2="38.969" y2="-13.087" y1="-38.97"/>
  <line style="fill:none;stroke:#000000;stroke-width:0.3;" x1="15.65" x2="38.969" y2="-15.674" y1="-38.97"/>
  <line style="fill:none;stroke:#000000;stroke-width:0.3;" x1="18.24" x2="38.969" y2="-18.262" y1="-38.97"/>
  <line style="fill:none;stroke:#000000;stroke-width:0.3;" x1="20.831" x2="38.969" y2="-20.85" y1="-38.97"/>
  <line style="fill:none;stroke:#000000;stroke-width:0.3;" x1="23.42" x2="38.969" y2="-23.437" y1="-38.97"/>
  <line style="fill:none;stroke:#000000;stroke-width:0.3;" x1="26.011" x2="38.969" y2="-26.025" y1="-38.97"/>
  <line style="fill:none;stroke:#000000;stroke-width:0.3;" x1="28.601" x2="38.969" y2="-28.612" y1="-38.97"/>
  <line style="fill:none;stroke:#000000;stroke-width:0.3;" x1="31.192" x2="38.969" y2="-31.2" y1="-38.97"/>
  <line style="fill:none;stroke:#000000;stroke-width:0.3;" x1="33.782" x2="38.969" y2="-33.788" y1="-38.97"/>
  <line style="fill:none;stroke:#000000;stroke-width:0.3;" x1="36.372" x2="38.969" y2="-36.375" y1="-38.97"/>
  <line style="fill:none;stroke:#000000;stroke-width:0.3;" x1="0.106" x2="36.42" y2="-0.106" y1="-36.383"/>
  <line style="fill:none;stroke:#000000;stroke-width:0.3;" x1="0.106" x2="33.83" y2="-0.106" y1="-33.794"/>
  <line style="fill:none;stroke:#000000;stroke-width:0.3;" x1="0.106" x2="31.238" y2="-0.106" y1="-31.206"/>
  <line style="fill:none;stroke:#000000;stroke-width:0.3;" x1="0.106" x2="28.646" y2="-0.106" y1="-28.617"/>
  <line style="fill:none;stroke:#000000;stroke-width:0.3;" x1="0.106" x2="26.054" y2="-0.106" y1="-26.028"/>
  <line style="fill:none;stroke:#000000;stroke-width:0.3;" x1="0.106" x2="23.463" y2="-0.106" y1="-23.439"/>
  <line style="fill:none;stroke:#000000;stroke-width:0.3;" x1="0.106" x2="20.872" y2="-0.106" y1="-20.85"/>
  <line style="fill:none;stroke:#000000;stroke-width:0.3;" x1="0.106" x2="18.28" y2="-0.106" y1="-18.26"/>
  <line style="fill:none;stroke:#000000;stroke-width:0.3;" x1="0.106" x2="15.688" y2="-0.106" y1="-15.671"/>
  <line style="fill:none;stroke:#000000;stroke-width:0.3;" x1="0.106" x2="13.096" y2="-0.106" y1="-13.083"/>
  <line style="fill:none;stroke:#000000;stroke-width:0.3;" x1="0.106" x2="10.504" y2="-0.106" y1="-10.494"/>
  <line style="fill:none;stroke:#000000;stroke-width:0.3;" x1="0.106" x2="7.914" y2="-0.106" y1="-7.905"/>
  <line style="fill:none;stroke:#000000;stroke-width:0.3;" x1="0.106" x2="5.322" y2="-0.106" y1="-5.316"/>
  <line style="fill:none;stroke:#000000;stroke-width:0.3;" x1="0.106" x2="2.73" y2="-0.106" y1="-2.727"/>
 </g>
</svg>
