<?xml version="1.0"?>
<!-- Converted with SVG Converter - Version 0.9.5 (Compiled Fri Feb 21 09:53:38 2020) - Copyright (C) 2011 Nokia -->
<svg xmlns="http://www.w3.org/2000/svg" xml:space="preserve" x="0px" xmlns:xlink="http://www.w3.org/1999/xlink" baseProfile="tiny" version="1.1" y="0px" width="46.75" viewBox="0 -46.75 46.75 46.75" height="46.75">
 <g>
  <rect style="fill:none;" y="-46.75" width="46.75" height="46.75"/>
  <line x1="5.382" y2="-45.447" style="fill:none;stroke:#000000;stroke-width:0.3;" y1="-45.447" x2="0"/>
  <line x1="12.948" y2="-45.447" style="fill:none;stroke:#000000;stroke-width:0.3;" y1="-45.447" x2="20.767"/>
  <line x1="28.44" y2="-45.447" style="fill:none;stroke:#000000;stroke-width:0.3;" y1="-45.447" x2="36.259"/>
  <line x1="0" y2="-33.807" style="fill:none;stroke:#000000;stroke-width:0.3;" y1="-33.807" x2="3.768"/>
  <line x1="19.152" y2="-33.807" style="fill:none;stroke:#000000;stroke-width:0.3;" y1="-33.807" x2="11.335"/>
  <line x1="26.827" y2="-33.807" style="fill:none;stroke:#000000;stroke-width:0.3;" y1="-33.807" x2="34.645"/>
  <line x1="0" y2="-22.167" style="fill:none;stroke:#000000;stroke-width:0.3;" y1="-22.167" x2="1.724"/>
  <line x1="9.398" y2="-22.167" style="fill:none;stroke:#000000;stroke-width:0.3;" y1="-22.167" x2="17.216"/>
  <line x1="24.891" y2="-22.167" style="fill:none;stroke:#000000;stroke-width:0.3;" y1="-22.167" x2="32.708"/>
  <line x1="5.059" y2="-10.527" style="fill:none;stroke:#000000;stroke-width:0.3;" y1="-10.527" x2="0"/>
  <line x1="20.658" y2="-10.527" style="fill:none;stroke:#000000;stroke-width:0.3;" y1="-10.527" x2="12.841"/>
  <line x1="36.259" y2="-10.527" style="fill:none;stroke:#000000;stroke-width:0.3;" y1="-10.527" x2="28.44"/>
  <line x1="44.184" y2="-45.447" style="fill:none;stroke:#000000;stroke-width:0.3;" y1="-45.447" x2="46.75"/>
  <line x1="42.57" y2="-33.807" style="fill:none;stroke:#000000;stroke-width:0.3;" y1="-33.807" x2="46.75"/>
  <line x1="40.526" y2="-22.167" style="fill:none;stroke:#000000;stroke-width:0.3;" y1="-22.167" x2="46.75"/>
  <line x1="43.861" y2="-10.527" style="fill:none;stroke:#000000;stroke-width:0.3;" y1="-10.527" x2="46.75"/>
  <line x1="43.913" y2="-39.644" style="fill:none;stroke:#000000;stroke-width:0.3;" y1="-39.644" x2="36.017"/>
  <line x1="20.367" y2="-39.644" style="fill:none;stroke:#000000;stroke-width:0.3;" y1="-39.644" x2="28.265"/>
  <line x1="4.61" y2="-39.644" style="fill:none;stroke:#000000;stroke-width:0.3;" y1="-39.644" x2="12.507"/>
  <line x1="34.114" y2="-28.004" style="fill:none;stroke:#000000;stroke-width:0.3;" y1="-28.004" x2="42.011"/>
  <line x1="26.362" y2="-28.004" style="fill:none;stroke:#000000;stroke-width:0.3;" y1="-28.004" x2="18.465"/>
  <line x1="10.496" y2="-28.004" style="fill:none;stroke:#000000;stroke-width:0.3;" y1="-28.004" x2="2.6"/>
  <line x1="34.114" y2="-16.364" style="fill:none;stroke:#000000;stroke-width:0.3;" y1="-16.364" x2="42.011"/>
  <line x1="26.362" y2="-16.364" style="fill:none;stroke:#000000;stroke-width:0.3;" y1="-16.364" x2="18.465"/>
  <line x1="10.713" y2="-16.364" style="fill:none;stroke:#000000;stroke-width:0.3;" y1="-16.364" x2="2.816"/>
  <line x1="43.641" y2="-4.844" style="fill:none;stroke:#000000;stroke-width:0.3;" y1="-4.844" x2="35.744"/>
  <line x1="28.209" y2="-4.844" style="fill:none;stroke:#000000;stroke-width:0.3;" y1="-4.844" x2="20.312"/>
  <line x1="12.452" y2="-4.844" style="fill:none;stroke:#000000;stroke-width:0.3;" y1="-4.844" x2="4.556"/>
  <line x1="24.591" y2="-45.423" style="fill:none;stroke:#000000;stroke-width:0.7;stroke-linecap:round;" y1="-45.423" x2="24.591"/>
  <line x1="26.553" y2="-45.423" style="fill:none;stroke:#000000;stroke-width:0.7;stroke-linecap:round;" y1="-45.423" x2="26.553"/>
  <line x1="22.536" y2="-45.423" style="fill:none;stroke:#000000;stroke-width:0.7;stroke-linecap:round;" y1="-45.423" x2="22.536"/>
  <line x1="9.204" y2="-45.423" style="fill:none;stroke:#000000;stroke-width:0.7;stroke-linecap:round;" y1="-45.423" x2="9.204"/>
  <line x1="11.167" y2="-45.423" style="fill:none;stroke:#000000;stroke-width:0.7;stroke-linecap:round;" y1="-45.423" x2="11.167"/>
  <line x1="7.15" y2="-45.423" style="fill:none;stroke:#000000;stroke-width:0.7;stroke-linecap:round;" y1="-45.423" x2="7.15"/>
  <line x1="40.298" y2="-45.423" style="fill:none;stroke:#000000;stroke-width:0.7;stroke-linecap:round;" y1="-45.423" x2="40.298"/>
  <line x1="42.261" y2="-45.423" style="fill:none;stroke:#000000;stroke-width:0.7;stroke-linecap:round;" y1="-45.423" x2="42.261"/>
  <line x1="38.244" y2="-45.423" style="fill:none;stroke:#000000;stroke-width:0.7;stroke-linecap:round;" y1="-45.423" x2="38.244"/>
  <line x1="23.008" y2="-33.847" style="fill:none;stroke:#000000;stroke-width:0.7;stroke-linecap:round;" y1="-33.847" x2="23.008"/>
  <line x1="24.97" y2="-33.847" style="fill:none;stroke:#000000;stroke-width:0.7;stroke-linecap:round;" y1="-33.847" x2="24.97"/>
  <line x1="20.953" y2="-33.847" style="fill:none;stroke:#000000;stroke-width:0.7;stroke-linecap:round;" y1="-33.847" x2="20.953"/>
  <line x1="7.621" y2="-33.847" style="fill:none;stroke:#000000;stroke-width:0.7;stroke-linecap:round;" y1="-33.847" x2="7.621"/>
  <line x1="9.584" y2="-33.847" style="fill:none;stroke:#000000;stroke-width:0.7;stroke-linecap:round;" y1="-33.847" x2="9.584"/>
  <line x1="5.567" y2="-33.847" style="fill:none;stroke:#000000;stroke-width:0.7;stroke-linecap:round;" y1="-33.847" x2="5.567"/>
  <line x1="38.715" y2="-33.847" style="fill:none;stroke:#000000;stroke-width:0.7;stroke-linecap:round;" y1="-33.847" x2="38.715"/>
  <line x1="40.678" y2="-33.847" style="fill:none;stroke:#000000;stroke-width:0.7;stroke-linecap:round;" y1="-33.847" x2="40.678"/>
  <line x1="36.661" y2="-33.847" style="fill:none;stroke:#000000;stroke-width:0.7;stroke-linecap:round;" y1="-33.847" x2="36.661"/>
  <line x1="20.964" y2="-22.147" style="fill:none;stroke:#000000;stroke-width:0.7;stroke-linecap:round;" y1="-22.147" x2="20.964"/>
  <line x1="22.926" y2="-22.147" style="fill:none;stroke:#000000;stroke-width:0.7;stroke-linecap:round;" y1="-22.147" x2="22.926"/>
  <line x1="18.909" y2="-22.147" style="fill:none;stroke:#000000;stroke-width:0.7;stroke-linecap:round;" y1="-22.147" x2="18.909"/>
  <line x1="5.577" y2="-22.147" style="fill:none;stroke:#000000;stroke-width:0.7;stroke-linecap:round;" y1="-22.147" x2="5.577"/>
  <line x1="7.54" y2="-22.147" style="fill:none;stroke:#000000;stroke-width:0.7;stroke-linecap:round;" y1="-22.147" x2="7.54"/>
  <line x1="3.523" y2="-22.147" style="fill:none;stroke:#000000;stroke-width:0.7;stroke-linecap:round;" y1="-22.147" x2="3.523"/>
  <line x1="36.671" y2="-22.147" style="fill:none;stroke:#000000;stroke-width:0.7;stroke-linecap:round;" y1="-22.147" x2="36.671"/>
  <line x1="38.633" y2="-22.147" style="fill:none;stroke:#000000;stroke-width:0.7;stroke-linecap:round;" y1="-22.147" x2="38.633"/>
  <line x1="34.617" y2="-22.147" style="fill:none;stroke:#000000;stroke-width:0.7;stroke-linecap:round;" y1="-22.147" x2="34.617"/>
  <line x1="24.46" y2="-10.507" style="fill:none;stroke:#000000;stroke-width:0.7;stroke-linecap:round;" y1="-10.507" x2="24.46"/>
  <line x1="26.422" y2="-10.507" style="fill:none;stroke:#000000;stroke-width:0.7;stroke-linecap:round;" y1="-10.507" x2="26.422"/>
  <line x1="22.406" y2="-10.507" style="fill:none;stroke:#000000;stroke-width:0.7;stroke-linecap:round;" y1="-10.507" x2="22.406"/>
  <line x1="9.074" y2="-10.507" style="fill:none;stroke:#000000;stroke-width:0.7;stroke-linecap:round;" y1="-10.507" x2="9.074"/>
  <line x1="11.036" y2="-10.507" style="fill:none;stroke:#000000;stroke-width:0.7;stroke-linecap:round;" y1="-10.507" x2="11.036"/>
  <line x1="7.019" y2="-10.507" style="fill:none;stroke:#000000;stroke-width:0.7;stroke-linecap:round;" y1="-10.507" x2="7.019"/>
  <line x1="40.167" y2="-10.507" style="fill:none;stroke:#000000;stroke-width:0.7;stroke-linecap:round;" y1="-10.507" x2="40.167"/>
  <line x1="42.13" y2="-10.507" style="fill:none;stroke:#000000;stroke-width:0.7;stroke-linecap:round;" y1="-10.507" x2="42.13"/>
  <line x1="38.113" y2="-10.507" style="fill:none;stroke:#000000;stroke-width:0.7;stroke-linecap:round;" y1="-10.507" x2="38.113"/>
  <line x1="16.347" y2="-39.624" style="fill:none;stroke:#000000;stroke-width:0.7;stroke-linecap:round;" y1="-39.624" x2="16.347"/>
  <line x1="18.329" y2="-39.624" style="fill:none;stroke:#000000;stroke-width:0.7;stroke-linecap:round;" y1="-39.624" x2="18.329"/>
  <line x1="14.273" y2="-39.624" style="fill:none;stroke:#000000;stroke-width:0.7;stroke-linecap:round;" y1="-39.624" x2="14.273"/>
  <line x1="0.806" y2="-39.624" style="fill:none;stroke:#000000;stroke-width:0.7;stroke-linecap:round;" y1="-39.624" x2="0.806"/>
  <line x1="2.787" y2="-39.624" style="fill:none;stroke:#000000;stroke-width:0.7;stroke-linecap:round;" y1="-39.624" x2="2.787"/>
  <line x1="32.213" y2="-39.624" style="fill:none;stroke:#000000;stroke-width:0.7;stroke-linecap:round;" y1="-39.624" x2="32.213"/>
  <line x1="34.194" y2="-39.624" style="fill:none;stroke:#000000;stroke-width:0.7;stroke-linecap:round;" y1="-39.624" x2="34.194"/>
  <line x1="30.138" y2="-39.624" style="fill:none;stroke:#000000;stroke-width:0.7;stroke-linecap:round;" y1="-39.624" x2="30.138"/>
  <line x1="45.604" y2="-39.624" style="fill:none;stroke:#000000;stroke-width:0.7;stroke-linecap:round;" y1="-39.624" x2="45.604"/>
  <line x1="14.39" y2="-28.044" style="fill:none;stroke:#000000;stroke-width:0.7;stroke-linecap:round;" y1="-28.044" x2="14.39"/>
  <line x1="16.372" y2="-28.044" style="fill:none;stroke:#000000;stroke-width:0.7;stroke-linecap:round;" y1="-28.044" x2="16.372"/>
  <line x1="12.315" y2="-28.044" style="fill:none;stroke:#000000;stroke-width:0.7;stroke-linecap:round;" y1="-28.044" x2="12.315"/>
  <line x1="30.256" y2="-28.044" style="fill:none;stroke:#000000;stroke-width:0.7;stroke-linecap:round;" y1="-28.044" x2="30.256"/>
  <line x1="32.238" y2="-28.044" style="fill:none;stroke:#000000;stroke-width:0.7;stroke-linecap:round;" y1="-28.044" x2="32.238"/>
  <line x1="28.182" y2="-28.044" style="fill:none;stroke:#000000;stroke-width:0.7;stroke-linecap:round;" y1="-28.044" x2="28.182"/>
  <line x1="45.722" y2="-28.044" style="fill:none;stroke:#000000;stroke-width:0.7;stroke-linecap:round;" y1="-28.044" x2="45.722"/>
  <line x1="43.647" y2="-28.044" style="fill:none;stroke:#000000;stroke-width:0.7;stroke-linecap:round;" y1="-28.044" x2="43.647"/>
  <line x1="14.444" y2="-16.344" style="fill:none;stroke:#000000;stroke-width:0.7;stroke-linecap:round;" y1="-16.344" x2="14.444"/>
  <line x1="16.427" y2="-16.344" style="fill:none;stroke:#000000;stroke-width:0.7;stroke-linecap:round;" y1="-16.344" x2="16.427"/>
  <line x1="12.37" y2="-16.344" style="fill:none;stroke:#000000;stroke-width:0.7;stroke-linecap:round;" y1="-16.344" x2="12.37"/>
  <line x1="0.885" y2="-16.344" style="fill:none;stroke:#000000;stroke-width:0.7;stroke-linecap:round;" y1="-16.344" x2="0.885"/>
  <line x1="30.31" y2="-16.344" style="fill:none;stroke:#000000;stroke-width:0.7;stroke-linecap:round;" y1="-16.344" x2="30.31"/>
  <line x1="32.292" y2="-16.344" style="fill:none;stroke:#000000;stroke-width:0.7;stroke-linecap:round;" y1="-16.344" x2="32.292"/>
  <line x1="28.235" y2="-16.344" style="fill:none;stroke:#000000;stroke-width:0.7;stroke-linecap:round;" y1="-16.344" x2="28.235"/>
  <line x1="45.776" y2="-16.344" style="fill:none;stroke:#000000;stroke-width:0.7;stroke-linecap:round;" y1="-16.344" x2="45.776"/>
  <line x1="43.701" y2="-16.344" style="fill:none;stroke:#000000;stroke-width:0.7;stroke-linecap:round;" y1="-16.344" x2="43.701"/>
  <line x1="16.237" y2="-4.824" style="fill:none;stroke:#000000;stroke-width:0.7;stroke-linecap:round;" y1="-4.824" x2="16.237"/>
  <line x1="18.22" y2="-4.824" style="fill:none;stroke:#000000;stroke-width:0.7;stroke-linecap:round;" y1="-4.824" x2="18.22"/>
  <line x1="14.163" y2="-4.824" style="fill:none;stroke:#000000;stroke-width:0.7;stroke-linecap:round;" y1="-4.824" x2="14.163"/>
  <line x1="0.696" y2="-4.824" style="fill:none;stroke:#000000;stroke-width:0.7;stroke-linecap:round;" y1="-4.824" x2="0.696"/>
  <line x1="2.678" y2="-4.824" style="fill:none;stroke:#000000;stroke-width:0.7;stroke-linecap:round;" y1="-4.824" x2="2.678"/>
  <line x1="32.104" y2="-4.824" style="fill:none;stroke:#000000;stroke-width:0.7;stroke-linecap:round;" y1="-4.824" x2="32.104"/>
  <line x1="34.086" y2="-4.824" style="fill:none;stroke:#000000;stroke-width:0.7;stroke-linecap:round;" y1="-4.824" x2="34.086"/>
  <line x1="30.028" y2="-4.824" style="fill:none;stroke:#000000;stroke-width:0.7;stroke-linecap:round;" y1="-4.824" x2="30.028"/>
  <line x1="45.495" y2="-4.824" style="fill:none;stroke:#000000;stroke-width:0.7;stroke-linecap:round;" y1="-4.824" x2="45.495"/>
  <line x1="1.121" y2="-42.499" style="fill:none;stroke:#000000;stroke-width:0.7;stroke-linecap:round;" y1="-42.499" x2="1.121"/>
  <line x1="4.713" y2="-42.499" style="fill:none;stroke:#000000;stroke-width:0.7;stroke-linecap:round;" y1="-42.499" x2="4.713"/>
  <line x1="2.917" y2="-42.499" style="fill:none;stroke:#000000;stroke-width:0.7;stroke-linecap:round;" y1="-42.499" x2="2.917"/>
  <line x1="8.309" y2="-42.499" style="fill:none;stroke:#000000;stroke-width:0.7;stroke-linecap:round;" y1="-42.499" x2="8.309"/>
  <line x1="6.514" y2="-42.499" style="fill:none;stroke:#000000;stroke-width:0.7;stroke-linecap:round;" y1="-42.499" x2="6.514"/>
  <line x1="11.899" y2="-42.499" style="fill:none;stroke:#000000;stroke-width:0.7;stroke-linecap:round;" y1="-42.499" x2="11.899"/>
  <line x1="10.104" y2="-42.499" style="fill:none;stroke:#000000;stroke-width:0.7;stroke-linecap:round;" y1="-42.499" x2="10.104"/>
  <line x1="15.491" y2="-42.499" style="fill:none;stroke:#000000;stroke-width:0.7;stroke-linecap:round;" y1="-42.499" x2="15.491"/>
  <line x1="13.695" y2="-42.499" style="fill:none;stroke:#000000;stroke-width:0.7;stroke-linecap:round;" y1="-42.499" x2="13.695"/>
  <line x1="19.082" y2="-42.499" style="fill:none;stroke:#000000;stroke-width:0.7;stroke-linecap:round;" y1="-42.499" x2="19.082"/>
  <line x1="17.286" y2="-42.499" style="fill:none;stroke:#000000;stroke-width:0.7;stroke-linecap:round;" y1="-42.499" x2="17.286"/>
  <line x1="22.679" y2="-42.499" style="fill:none;stroke:#000000;stroke-width:0.7;stroke-linecap:round;" y1="-42.499" x2="22.679"/>
  <line x1="20.883" y2="-42.499" style="fill:none;stroke:#000000;stroke-width:0.7;stroke-linecap:round;" y1="-42.499" x2="20.883"/>
  <line x1="26.27" y2="-42.499" style="fill:none;stroke:#000000;stroke-width:0.7;stroke-linecap:round;" y1="-42.499" x2="26.27"/>
  <line x1="24.474" y2="-42.499" style="fill:none;stroke:#000000;stroke-width:0.7;stroke-linecap:round;" y1="-42.499" x2="24.474"/>
  <line x1="29.855" y2="-42.499" style="fill:none;stroke:#000000;stroke-width:0.7;stroke-linecap:round;" y1="-42.499" x2="29.855"/>
  <line x1="28.06" y2="-42.499" style="fill:none;stroke:#000000;stroke-width:0.7;stroke-linecap:round;" y1="-42.499" x2="28.06"/>
  <line x1="33.446" y2="-42.499" style="fill:none;stroke:#000000;stroke-width:0.7;stroke-linecap:round;" y1="-42.499" x2="33.446"/>
  <line x1="31.65" y2="-42.499" style="fill:none;stroke:#000000;stroke-width:0.7;stroke-linecap:round;" y1="-42.499" x2="31.65"/>
  <line x1="37.042" y2="-42.499" style="fill:none;stroke:#000000;stroke-width:0.7;stroke-linecap:round;" y1="-42.499" x2="37.042"/>
  <line x1="35.247" y2="-42.499" style="fill:none;stroke:#000000;stroke-width:0.7;stroke-linecap:round;" y1="-42.499" x2="35.247"/>
  <line x1="40.634" y2="-42.499" style="fill:none;stroke:#000000;stroke-width:0.7;stroke-linecap:round;" y1="-42.499" x2="40.634"/>
  <line x1="38.838" y2="-42.499" style="fill:none;stroke:#000000;stroke-width:0.7;stroke-linecap:round;" y1="-42.499" x2="38.838"/>
  <line x1="44.225" y2="-42.499" style="fill:none;stroke:#000000;stroke-width:0.7;stroke-linecap:round;" y1="-42.499" x2="44.225"/>
  <line x1="42.429" y2="-42.499" style="fill:none;stroke:#000000;stroke-width:0.7;stroke-linecap:round;" y1="-42.499" x2="42.429"/>
  <line x1="46.021" y2="-42.499" style="fill:none;stroke:#000000;stroke-width:0.7;stroke-linecap:round;" y1="-42.499" x2="46.021"/>
  <line x1="1.121" y2="-36.624" style="fill:none;stroke:#000000;stroke-width:0.7;stroke-linecap:round;" y1="-36.624" x2="1.121"/>
  <line x1="4.713" y2="-36.624" style="fill:none;stroke:#000000;stroke-width:0.7;stroke-linecap:round;" y1="-36.624" x2="4.713"/>
  <line x1="2.917" y2="-36.624" style="fill:none;stroke:#000000;stroke-width:0.7;stroke-linecap:round;" y1="-36.624" x2="2.917"/>
  <line x1="8.309" y2="-36.624" style="fill:none;stroke:#000000;stroke-width:0.7;stroke-linecap:round;" y1="-36.624" x2="8.309"/>
  <line x1="6.514" y2="-36.624" style="fill:none;stroke:#000000;stroke-width:0.7;stroke-linecap:round;" y1="-36.624" x2="6.514"/>
  <line x1="11.899" y2="-36.624" style="fill:none;stroke:#000000;stroke-width:0.7;stroke-linecap:round;" y1="-36.624" x2="11.899"/>
  <line x1="10.104" y2="-36.624" style="fill:none;stroke:#000000;stroke-width:0.7;stroke-linecap:round;" y1="-36.624" x2="10.104"/>
  <line x1="15.491" y2="-36.624" style="fill:none;stroke:#000000;stroke-width:0.7;stroke-linecap:round;" y1="-36.624" x2="15.491"/>
  <line x1="13.695" y2="-36.624" style="fill:none;stroke:#000000;stroke-width:0.7;stroke-linecap:round;" y1="-36.624" x2="13.695"/>
  <line x1="19.082" y2="-36.624" style="fill:none;stroke:#000000;stroke-width:0.7;stroke-linecap:round;" y1="-36.624" x2="19.082"/>
  <line x1="17.286" y2="-36.624" style="fill:none;stroke:#000000;stroke-width:0.7;stroke-linecap:round;" y1="-36.624" x2="17.286"/>
  <line x1="22.679" y2="-36.624" style="fill:none;stroke:#000000;stroke-width:0.7;stroke-linecap:round;" y1="-36.624" x2="22.679"/>
  <line x1="20.883" y2="-36.624" style="fill:none;stroke:#000000;stroke-width:0.7;stroke-linecap:round;" y1="-36.624" x2="20.883"/>
  <line x1="26.27" y2="-36.624" style="fill:none;stroke:#000000;stroke-width:0.7;stroke-linecap:round;" y1="-36.624" x2="26.27"/>
  <line x1="24.474" y2="-36.624" style="fill:none;stroke:#000000;stroke-width:0.7;stroke-linecap:round;" y1="-36.624" x2="24.474"/>
  <line x1="29.855" y2="-36.624" style="fill:none;stroke:#000000;stroke-width:0.7;stroke-linecap:round;" y1="-36.624" x2="29.855"/>
  <line x1="28.06" y2="-36.624" style="fill:none;stroke:#000000;stroke-width:0.7;stroke-linecap:round;" y1="-36.624" x2="28.06"/>
  <line x1="33.446" y2="-36.624" style="fill:none;stroke:#000000;stroke-width:0.7;stroke-linecap:round;" y1="-36.624" x2="33.446"/>
  <line x1="31.65" y2="-36.624" style="fill:none;stroke:#000000;stroke-width:0.7;stroke-linecap:round;" y1="-36.624" x2="31.65"/>
  <line x1="37.042" y2="-36.624" style="fill:none;stroke:#000000;stroke-width:0.7;stroke-linecap:round;" y1="-36.624" x2="37.042"/>
  <line x1="35.247" y2="-36.624" style="fill:none;stroke:#000000;stroke-width:0.7;stroke-linecap:round;" y1="-36.624" x2="35.247"/>
  <line x1="40.634" y2="-36.624" style="fill:none;stroke:#000000;stroke-width:0.7;stroke-linecap:round;" y1="-36.624" x2="40.634"/>
  <line x1="38.838" y2="-36.624" style="fill:none;stroke:#000000;stroke-width:0.7;stroke-linecap:round;" y1="-36.624" x2="38.838"/>
  <line x1="44.225" y2="-36.624" style="fill:none;stroke:#000000;stroke-width:0.7;stroke-linecap:round;" y1="-36.624" x2="44.225"/>
  <line x1="42.429" y2="-36.624" style="fill:none;stroke:#000000;stroke-width:0.7;stroke-linecap:round;" y1="-36.624" x2="42.429"/>
  <line x1="46.021" y2="-36.624" style="fill:none;stroke:#000000;stroke-width:0.7;stroke-linecap:round;" y1="-36.624" x2="46.021"/>
  <line x1="1.121" y2="-30.929" style="fill:none;stroke:#000000;stroke-width:0.7;stroke-linecap:round;" y1="-30.929" x2="1.121"/>
  <line x1="4.713" y2="-30.929" style="fill:none;stroke:#000000;stroke-width:0.7;stroke-linecap:round;" y1="-30.929" x2="4.713"/>
  <line x1="2.917" y2="-30.929" style="fill:none;stroke:#000000;stroke-width:0.7;stroke-linecap:round;" y1="-30.929" x2="2.917"/>
  <line x1="8.309" y2="-30.929" style="fill:none;stroke:#000000;stroke-width:0.7;stroke-linecap:round;" y1="-30.929" x2="8.309"/>
  <line x1="6.514" y2="-30.929" style="fill:none;stroke:#000000;stroke-width:0.7;stroke-linecap:round;" y1="-30.929" x2="6.514"/>
  <line x1="11.899" y2="-30.929" style="fill:none;stroke:#000000;stroke-width:0.7;stroke-linecap:round;" y1="-30.929" x2="11.899"/>
  <line x1="10.104" y2="-30.929" style="fill:none;stroke:#000000;stroke-width:0.7;stroke-linecap:round;" y1="-30.929" x2="10.104"/>
  <line x1="15.491" y2="-30.929" style="fill:none;stroke:#000000;stroke-width:0.7;stroke-linecap:round;" y1="-30.929" x2="15.491"/>
  <line x1="13.695" y2="-30.929" style="fill:none;stroke:#000000;stroke-width:0.7;stroke-linecap:round;" y1="-30.929" x2="13.695"/>
  <line x1="19.082" y2="-30.929" style="fill:none;stroke:#000000;stroke-width:0.7;stroke-linecap:round;" y1="-30.929" x2="19.082"/>
  <line x1="17.286" y2="-30.929" style="fill:none;stroke:#000000;stroke-width:0.7;stroke-linecap:round;" y1="-30.929" x2="17.286"/>
  <line x1="22.679" y2="-30.929" style="fill:none;stroke:#000000;stroke-width:0.7;stroke-linecap:round;" y1="-30.929" x2="22.679"/>
  <line x1="20.883" y2="-30.929" style="fill:none;stroke:#000000;stroke-width:0.7;stroke-linecap:round;" y1="-30.929" x2="20.883"/>
  <line x1="26.27" y2="-30.929" style="fill:none;stroke:#000000;stroke-width:0.7;stroke-linecap:round;" y1="-30.929" x2="26.27"/>
  <line x1="24.474" y2="-30.929" style="fill:none;stroke:#000000;stroke-width:0.7;stroke-linecap:round;" y1="-30.929" x2="24.474"/>
  <line x1="29.855" y2="-30.929" style="fill:none;stroke:#000000;stroke-width:0.7;stroke-linecap:round;" y1="-30.929" x2="29.855"/>
  <line x1="28.06" y2="-30.929" style="fill:none;stroke:#000000;stroke-width:0.7;stroke-linecap:round;" y1="-30.929" x2="28.06"/>
  <line x1="33.446" y2="-30.929" style="fill:none;stroke:#000000;stroke-width:0.7;stroke-linecap:round;" y1="-30.929" x2="33.446"/>
  <line x1="31.65" y2="-30.929" style="fill:none;stroke:#000000;stroke-width:0.7;stroke-linecap:round;" y1="-30.929" x2="31.65"/>
  <line x1="37.042" y2="-30.929" style="fill:none;stroke:#000000;stroke-width:0.7;stroke-linecap:round;" y1="-30.929" x2="37.042"/>
  <line x1="35.247" y2="-30.929" style="fill:none;stroke:#000000;stroke-width:0.7;stroke-linecap:round;" y1="-30.929" x2="35.247"/>
  <line x1="40.634" y2="-30.929" style="fill:none;stroke:#000000;stroke-width:0.7;stroke-linecap:round;" y1="-30.929" x2="40.634"/>
  <line x1="38.838" y2="-30.929" style="fill:none;stroke:#000000;stroke-width:0.7;stroke-linecap:round;" y1="-30.929" x2="38.838"/>
  <line x1="44.225" y2="-30.929" style="fill:none;stroke:#000000;stroke-width:0.7;stroke-linecap:round;" y1="-30.929" x2="44.225"/>
  <line x1="42.429" y2="-30.929" style="fill:none;stroke:#000000;stroke-width:0.7;stroke-linecap:round;" y1="-30.929" x2="42.429"/>
  <line x1="46.021" y2="-30.929" style="fill:none;stroke:#000000;stroke-width:0.7;stroke-linecap:round;" y1="-30.929" x2="46.021"/>
  <line x1="1.121" y2="-25.044" style="fill:none;stroke:#000000;stroke-width:0.7;stroke-linecap:round;" y1="-25.044" x2="1.121"/>
  <line x1="4.713" y2="-25.044" style="fill:none;stroke:#000000;stroke-width:0.7;stroke-linecap:round;" y1="-25.044" x2="4.713"/>
  <line x1="2.917" y2="-25.044" style="fill:none;stroke:#000000;stroke-width:0.7;stroke-linecap:round;" y1="-25.044" x2="2.917"/>
  <line x1="8.309" y2="-25.044" style="fill:none;stroke:#000000;stroke-width:0.7;stroke-linecap:round;" y1="-25.044" x2="8.309"/>
  <line x1="6.514" y2="-25.044" style="fill:none;stroke:#000000;stroke-width:0.7;stroke-linecap:round;" y1="-25.044" x2="6.514"/>
  <line x1="11.899" y2="-25.044" style="fill:none;stroke:#000000;stroke-width:0.7;stroke-linecap:round;" y1="-25.044" x2="11.899"/>
  <line x1="10.104" y2="-25.044" style="fill:none;stroke:#000000;stroke-width:0.7;stroke-linecap:round;" y1="-25.044" x2="10.104"/>
  <line x1="15.491" y2="-25.044" style="fill:none;stroke:#000000;stroke-width:0.7;stroke-linecap:round;" y1="-25.044" x2="15.491"/>
  <line x1="13.695" y2="-25.044" style="fill:none;stroke:#000000;stroke-width:0.7;stroke-linecap:round;" y1="-25.044" x2="13.695"/>
  <line x1="19.082" y2="-25.044" style="fill:none;stroke:#000000;stroke-width:0.7;stroke-linecap:round;" y1="-25.044" x2="19.082"/>
  <line x1="17.286" y2="-25.044" style="fill:none;stroke:#000000;stroke-width:0.7;stroke-linecap:round;" y1="-25.044" x2="17.286"/>
  <line x1="22.679" y2="-25.044" style="fill:none;stroke:#000000;stroke-width:0.7;stroke-linecap:round;" y1="-25.044" x2="22.679"/>
  <line x1="20.883" y2="-25.044" style="fill:none;stroke:#000000;stroke-width:0.7;stroke-linecap:round;" y1="-25.044" x2="20.883"/>
  <line x1="26.27" y2="-25.044" style="fill:none;stroke:#000000;stroke-width:0.7;stroke-linecap:round;" y1="-25.044" x2="26.27"/>
  <line x1="24.474" y2="-25.044" style="fill:none;stroke:#000000;stroke-width:0.7;stroke-linecap:round;" y1="-25.044" x2="24.474"/>
  <line x1="29.855" y2="-25.044" style="fill:none;stroke:#000000;stroke-width:0.7;stroke-linecap:round;" y1="-25.044" x2="29.855"/>
  <line x1="28.06" y2="-25.044" style="fill:none;stroke:#000000;stroke-width:0.7;stroke-linecap:round;" y1="-25.044" x2="28.06"/>
  <line x1="33.446" y2="-25.044" style="fill:none;stroke:#000000;stroke-width:0.7;stroke-linecap:round;" y1="-25.044" x2="33.446"/>
  <line x1="31.65" y2="-25.044" style="fill:none;stroke:#000000;stroke-width:0.7;stroke-linecap:round;" y1="-25.044" x2="31.65"/>
  <line x1="37.042" y2="-25.044" style="fill:none;stroke:#000000;stroke-width:0.7;stroke-linecap:round;" y1="-25.044" x2="37.042"/>
  <line x1="35.247" y2="-25.044" style="fill:none;stroke:#000000;stroke-width:0.7;stroke-linecap:round;" y1="-25.044" x2="35.247"/>
  <line x1="40.634" y2="-25.044" style="fill:none;stroke:#000000;stroke-width:0.7;stroke-linecap:round;" y1="-25.044" x2="40.634"/>
  <line x1="38.838" y2="-25.044" style="fill:none;stroke:#000000;stroke-width:0.7;stroke-linecap:round;" y1="-25.044" x2="38.838"/>
  <line x1="44.225" y2="-25.044" style="fill:none;stroke:#000000;stroke-width:0.7;stroke-linecap:round;" y1="-25.044" x2="44.225"/>
  <line x1="42.429" y2="-25.044" style="fill:none;stroke:#000000;stroke-width:0.7;stroke-linecap:round;" y1="-25.044" x2="42.429"/>
  <line x1="46.021" y2="-25.044" style="fill:none;stroke:#000000;stroke-width:0.7;stroke-linecap:round;" y1="-25.044" x2="46.021"/>
  <line x1="1.121" y2="-19.224" style="fill:none;stroke:#000000;stroke-width:0.7;stroke-linecap:round;" y1="-19.224" x2="1.121"/>
  <line x1="4.713" y2="-19.224" style="fill:none;stroke:#000000;stroke-width:0.7;stroke-linecap:round;" y1="-19.224" x2="4.713"/>
  <line x1="2.917" y2="-19.224" style="fill:none;stroke:#000000;stroke-width:0.7;stroke-linecap:round;" y1="-19.224" x2="2.917"/>
  <line x1="8.309" y2="-19.224" style="fill:none;stroke:#000000;stroke-width:0.7;stroke-linecap:round;" y1="-19.224" x2="8.309"/>
  <line x1="6.514" y2="-19.224" style="fill:none;stroke:#000000;stroke-width:0.7;stroke-linecap:round;" y1="-19.224" x2="6.514"/>
  <line x1="11.899" y2="-19.224" style="fill:none;stroke:#000000;stroke-width:0.7;stroke-linecap:round;" y1="-19.224" x2="11.899"/>
  <line x1="10.104" y2="-19.224" style="fill:none;stroke:#000000;stroke-width:0.7;stroke-linecap:round;" y1="-19.224" x2="10.104"/>
  <line x1="15.491" y2="-19.224" style="fill:none;stroke:#000000;stroke-width:0.7;stroke-linecap:round;" y1="-19.224" x2="15.491"/>
  <line x1="13.695" y2="-19.224" style="fill:none;stroke:#000000;stroke-width:0.7;stroke-linecap:round;" y1="-19.224" x2="13.695"/>
  <line x1="19.082" y2="-19.224" style="fill:none;stroke:#000000;stroke-width:0.7;stroke-linecap:round;" y1="-19.224" x2="19.082"/>
  <line x1="17.286" y2="-19.224" style="fill:none;stroke:#000000;stroke-width:0.7;stroke-linecap:round;" y1="-19.224" x2="17.286"/>
  <line x1="22.679" y2="-19.224" style="fill:none;stroke:#000000;stroke-width:0.7;stroke-linecap:round;" y1="-19.224" x2="22.679"/>
  <line x1="20.883" y2="-19.224" style="fill:none;stroke:#000000;stroke-width:0.7;stroke-linecap:round;" y1="-19.224" x2="20.883"/>
  <line x1="26.27" y2="-19.224" style="fill:none;stroke:#000000;stroke-width:0.7;stroke-linecap:round;" y1="-19.224" x2="26.27"/>
  <line x1="24.474" y2="-19.224" style="fill:none;stroke:#000000;stroke-width:0.7;stroke-linecap:round;" y1="-19.224" x2="24.474"/>
  <line x1="29.855" y2="-19.224" style="fill:none;stroke:#000000;stroke-width:0.7;stroke-linecap:round;" y1="-19.224" x2="29.855"/>
  <line x1="28.06" y2="-19.224" style="fill:none;stroke:#000000;stroke-width:0.7;stroke-linecap:round;" y1="-19.224" x2="28.06"/>
  <line x1="33.446" y2="-19.224" style="fill:none;stroke:#000000;stroke-width:0.7;stroke-linecap:round;" y1="-19.224" x2="33.446"/>
  <line x1="31.65" y2="-19.224" style="fill:none;stroke:#000000;stroke-width:0.7;stroke-linecap:round;" y1="-19.224" x2="31.65"/>
  <line x1="37.042" y2="-19.224" style="fill:none;stroke:#000000;stroke-width:0.7;stroke-linecap:round;" y1="-19.224" x2="37.042"/>
  <line x1="35.247" y2="-19.224" style="fill:none;stroke:#000000;stroke-width:0.7;stroke-linecap:round;" y1="-19.224" x2="35.247"/>
  <line x1="40.634" y2="-19.224" style="fill:none;stroke:#000000;stroke-width:0.7;stroke-linecap:round;" y1="-19.224" x2="40.634"/>
  <line x1="38.838" y2="-19.224" style="fill:none;stroke:#000000;stroke-width:0.7;stroke-linecap:round;" y1="-19.224" x2="38.838"/>
  <line x1="44.225" y2="-19.224" style="fill:none;stroke:#000000;stroke-width:0.7;stroke-linecap:round;" y1="-19.224" x2="44.225"/>
  <line x1="42.429" y2="-19.224" style="fill:none;stroke:#000000;stroke-width:0.7;stroke-linecap:round;" y1="-19.224" x2="42.429"/>
  <line x1="46.021" y2="-19.224" style="fill:none;stroke:#000000;stroke-width:0.7;stroke-linecap:round;" y1="-19.224" x2="46.021"/>
  <line x1="1.121" y2="-13.464" style="fill:none;stroke:#000000;stroke-width:0.7;stroke-linecap:round;" y1="-13.464" x2="1.121"/>
  <line x1="4.713" y2="-13.464" style="fill:none;stroke:#000000;stroke-width:0.7;stroke-linecap:round;" y1="-13.464" x2="4.713"/>
  <line x1="2.917" y2="-13.464" style="fill:none;stroke:#000000;stroke-width:0.7;stroke-linecap:round;" y1="-13.464" x2="2.917"/>
  <line x1="8.309" y2="-13.464" style="fill:none;stroke:#000000;stroke-width:0.7;stroke-linecap:round;" y1="-13.464" x2="8.309"/>
  <line x1="6.514" y2="-13.464" style="fill:none;stroke:#000000;stroke-width:0.7;stroke-linecap:round;" y1="-13.464" x2="6.514"/>
  <line x1="11.899" y2="-13.464" style="fill:none;stroke:#000000;stroke-width:0.7;stroke-linecap:round;" y1="-13.464" x2="11.899"/>
  <line x1="10.104" y2="-13.464" style="fill:none;stroke:#000000;stroke-width:0.7;stroke-linecap:round;" y1="-13.464" x2="10.104"/>
  <line x1="15.491" y2="-13.464" style="fill:none;stroke:#000000;stroke-width:0.7;stroke-linecap:round;" y1="-13.464" x2="15.491"/>
  <line x1="13.695" y2="-13.464" style="fill:none;stroke:#000000;stroke-width:0.7;stroke-linecap:round;" y1="-13.464" x2="13.695"/>
  <line x1="19.082" y2="-13.464" style="fill:none;stroke:#000000;stroke-width:0.7;stroke-linecap:round;" y1="-13.464" x2="19.082"/>
  <line x1="17.286" y2="-13.464" style="fill:none;stroke:#000000;stroke-width:0.7;stroke-linecap:round;" y1="-13.464" x2="17.286"/>
  <line x1="22.679" y2="-13.464" style="fill:none;stroke:#000000;stroke-width:0.7;stroke-linecap:round;" y1="-13.464" x2="22.679"/>
  <line x1="20.883" y2="-13.464" style="fill:none;stroke:#000000;stroke-width:0.7;stroke-linecap:round;" y1="-13.464" x2="20.883"/>
  <line x1="26.27" y2="-13.464" style="fill:none;stroke:#000000;stroke-width:0.7;stroke-linecap:round;" y1="-13.464" x2="26.27"/>
  <line x1="24.474" y2="-13.464" style="fill:none;stroke:#000000;stroke-width:0.7;stroke-linecap:round;" y1="-13.464" x2="24.474"/>
  <line x1="29.855" y2="-13.464" style="fill:none;stroke:#000000;stroke-width:0.7;stroke-linecap:round;" y1="-13.464" x2="29.855"/>
  <line x1="28.06" y2="-13.464" style="fill:none;stroke:#000000;stroke-width:0.7;stroke-linecap:round;" y1="-13.464" x2="28.06"/>
  <line x1="33.446" y2="-13.464" style="fill:none;stroke:#000000;stroke-width:0.7;stroke-linecap:round;" y1="-13.464" x2="33.446"/>
  <line x1="31.65" y2="-13.464" style="fill:none;stroke:#000000;stroke-width:0.7;stroke-linecap:round;" y1="-13.464" x2="31.65"/>
  <line x1="37.042" y2="-13.464" style="fill:none;stroke:#000000;stroke-width:0.7;stroke-linecap:round;" y1="-13.464" x2="37.042"/>
  <line x1="35.247" y2="-13.464" style="fill:none;stroke:#000000;stroke-width:0.7;stroke-linecap:round;" y1="-13.464" x2="35.247"/>
  <line x1="40.634" y2="-13.464" style="fill:none;stroke:#000000;stroke-width:0.7;stroke-linecap:round;" y1="-13.464" x2="40.634"/>
  <line x1="38.838" y2="-13.464" style="fill:none;stroke:#000000;stroke-width:0.7;stroke-linecap:round;" y1="-13.464" x2="38.838"/>
  <line x1="44.225" y2="-13.464" style="fill:none;stroke:#000000;stroke-width:0.7;stroke-linecap:round;" y1="-13.464" x2="44.225"/>
  <line x1="42.429" y2="-13.464" style="fill:none;stroke:#000000;stroke-width:0.7;stroke-linecap:round;" y1="-13.464" x2="42.429"/>
  <line x1="46.021" y2="-13.464" style="fill:none;stroke:#000000;stroke-width:0.7;stroke-linecap:round;" y1="-13.464" x2="46.021"/>
  <line x1="1.121" y2="-7.583" style="fill:none;stroke:#000000;stroke-width:0.7;stroke-linecap:round;" y1="-7.583" x2="1.121"/>
  <line x1="4.713" y2="-7.583" style="fill:none;stroke:#000000;stroke-width:0.7;stroke-linecap:round;" y1="-7.583" x2="4.713"/>
  <line x1="2.917" y2="-7.583" style="fill:none;stroke:#000000;stroke-width:0.7;stroke-linecap:round;" y1="-7.583" x2="2.917"/>
  <line x1="8.309" y2="-7.583" style="fill:none;stroke:#000000;stroke-width:0.7;stroke-linecap:round;" y1="-7.583" x2="8.309"/>
  <line x1="6.514" y2="-7.583" style="fill:none;stroke:#000000;stroke-width:0.7;stroke-linecap:round;" y1="-7.583" x2="6.514"/>
  <line x1="11.899" y2="-7.583" style="fill:none;stroke:#000000;stroke-width:0.7;stroke-linecap:round;" y1="-7.583" x2="11.899"/>
  <line x1="10.104" y2="-7.583" style="fill:none;stroke:#000000;stroke-width:0.7;stroke-linecap:round;" y1="-7.583" x2="10.104"/>
  <line x1="15.491" y2="-7.583" style="fill:none;stroke:#000000;stroke-width:0.7;stroke-linecap:round;" y1="-7.583" x2="15.491"/>
  <line x1="13.695" y2="-7.583" style="fill:none;stroke:#000000;stroke-width:0.7;stroke-linecap:round;" y1="-7.583" x2="13.695"/>
  <line x1="19.082" y2="-7.583" style="fill:none;stroke:#000000;stroke-width:0.7;stroke-linecap:round;" y1="-7.583" x2="19.082"/>
  <line x1="17.286" y2="-7.583" style="fill:none;stroke:#000000;stroke-width:0.7;stroke-linecap:round;" y1="-7.583" x2="17.286"/>
  <line x1="22.679" y2="-7.583" style="fill:none;stroke:#000000;stroke-width:0.7;stroke-linecap:round;" y1="-7.583" x2="22.679"/>
  <line x1="20.883" y2="-7.583" style="fill:none;stroke:#000000;stroke-width:0.7;stroke-linecap:round;" y1="-7.583" x2="20.883"/>
  <line x1="26.27" y2="-7.583" style="fill:none;stroke:#000000;stroke-width:0.7;stroke-linecap:round;" y1="-7.583" x2="26.27"/>
  <line x1="24.474" y2="-7.583" style="fill:none;stroke:#000000;stroke-width:0.7;stroke-linecap:round;" y1="-7.583" x2="24.474"/>
  <line x1="29.855" y2="-7.583" style="fill:none;stroke:#000000;stroke-width:0.7;stroke-linecap:round;" y1="-7.583" x2="29.855"/>
  <line x1="28.06" y2="-7.583" style="fill:none;stroke:#000000;stroke-width:0.7;stroke-linecap:round;" y1="-7.583" x2="28.06"/>
  <line x1="33.446" y2="-7.583" style="fill:none;stroke:#000000;stroke-width:0.7;stroke-linecap:round;" y1="-7.583" x2="33.446"/>
  <line x1="31.65" y2="-7.583" style="fill:none;stroke:#000000;stroke-width:0.7;stroke-linecap:round;" y1="-7.583" x2="31.65"/>
  <line x1="37.042" y2="-7.583" style="fill:none;stroke:#000000;stroke-width:0.7;stroke-linecap:round;" y1="-7.583" x2="37.042"/>
  <line x1="35.247" y2="-7.583" style="fill:none;stroke:#000000;stroke-width:0.7;stroke-linecap:round;" y1="-7.583" x2="35.247"/>
  <line x1="40.634" y2="-7.583" style="fill:none;stroke:#000000;stroke-width:0.7;stroke-linecap:round;" y1="-7.583" x2="40.634"/>
  <line x1="38.838" y2="-7.583" style="fill:none;stroke:#000000;stroke-width:0.7;stroke-linecap:round;" y1="-7.583" x2="38.838"/>
  <line x1="44.225" y2="-7.583" style="fill:none;stroke:#000000;stroke-width:0.7;stroke-linecap:round;" y1="-7.583" x2="44.225"/>
  <line x1="42.429" y2="-7.583" style="fill:none;stroke:#000000;stroke-width:0.7;stroke-linecap:round;" y1="-7.583" x2="42.429"/>
  <line x1="46.021" y2="-7.583" style="fill:none;stroke:#000000;stroke-width:0.7;stroke-linecap:round;" y1="-7.583" x2="46.021"/>
  <line x1="1.121" y2="-1.824" style="fill:none;stroke:#000000;stroke-width:0.7;stroke-linecap:round;" y1="-1.824" x2="1.121"/>
  <line x1="4.713" y2="-1.824" style="fill:none;stroke:#000000;stroke-width:0.7;stroke-linecap:round;" y1="-1.824" x2="4.713"/>
  <line x1="2.917" y2="-1.824" style="fill:none;stroke:#000000;stroke-width:0.7;stroke-linecap:round;" y1="-1.824" x2="2.917"/>
  <line x1="8.309" y2="-1.824" style="fill:none;stroke:#000000;stroke-width:0.7;stroke-linecap:round;" y1="-1.824" x2="8.309"/>
  <line x1="6.514" y2="-1.824" style="fill:none;stroke:#000000;stroke-width:0.7;stroke-linecap:round;" y1="-1.824" x2="6.514"/>
  <line x1="11.899" y2="-1.824" style="fill:none;stroke:#000000;stroke-width:0.7;stroke-linecap:round;" y1="-1.824" x2="11.899"/>
  <line x1="10.104" y2="-1.824" style="fill:none;stroke:#000000;stroke-width:0.7;stroke-linecap:round;" y1="-1.824" x2="10.104"/>
  <line x1="15.491" y2="-1.824" style="fill:none;stroke:#000000;stroke-width:0.7;stroke-linecap:round;" y1="-1.824" x2="15.491"/>
  <line x1="13.695" y2="-1.824" style="fill:none;stroke:#000000;stroke-width:0.7;stroke-linecap:round;" y1="-1.824" x2="13.695"/>
  <line x1="19.082" y2="-1.824" style="fill:none;stroke:#000000;stroke-width:0.7;stroke-linecap:round;" y1="-1.824" x2="19.082"/>
  <line x1="17.286" y2="-1.824" style="fill:none;stroke:#000000;stroke-width:0.7;stroke-linecap:round;" y1="-1.824" x2="17.286"/>
  <line x1="22.679" y2="-1.824" style="fill:none;stroke:#000000;stroke-width:0.7;stroke-linecap:round;" y1="-1.824" x2="22.679"/>
  <line x1="20.883" y2="-1.824" style="fill:none;stroke:#000000;stroke-width:0.7;stroke-linecap:round;" y1="-1.824" x2="20.883"/>
  <line x1="26.27" y2="-1.824" style="fill:none;stroke:#000000;stroke-width:0.7;stroke-linecap:round;" y1="-1.824" x2="26.27"/>
  <line x1="24.474" y2="-1.824" style="fill:none;stroke:#000000;stroke-width:0.7;stroke-linecap:round;" y1="-1.824" x2="24.474"/>
  <line x1="29.855" y2="-1.824" style="fill:none;stroke:#000000;stroke-width:0.7;stroke-linecap:round;" y1="-1.824" x2="29.855"/>
  <line x1="28.06" y2="-1.824" style="fill:none;stroke:#000000;stroke-width:0.7;stroke-linecap:round;" y1="-1.824" x2="28.06"/>
  <line x1="33.446" y2="-1.824" style="fill:none;stroke:#000000;stroke-width:0.7;stroke-linecap:round;" y1="-1.824" x2="33.446"/>
  <line x1="31.65" y2="-1.824" style="fill:none;stroke:#000000;stroke-width:0.7;stroke-linecap:round;" y1="-1.824" x2="31.65"/>
  <line x1="37.042" y2="-1.824" style="fill:none;stroke:#000000;stroke-width:0.7;stroke-linecap:round;" y1="-1.824" x2="37.042"/>
  <line x1="35.247" y2="-1.824" style="fill:none;stroke:#000000;stroke-width:0.7;stroke-linecap:round;" y1="-1.824" x2="35.247"/>
  <line x1="40.634" y2="-1.824" style="fill:none;stroke:#000000;stroke-width:0.7;stroke-linecap:round;" y1="-1.824" x2="40.634"/>
  <line x1="38.838" y2="-1.824" style="fill:none;stroke:#000000;stroke-width:0.7;stroke-linecap:round;" y1="-1.824" x2="38.838"/>
  <line x1="44.225" y2="-1.824" style="fill:none;stroke:#000000;stroke-width:0.7;stroke-linecap:round;" y1="-1.824" x2="44.225"/>
  <line x1="42.429" y2="-1.824" style="fill:none;stroke:#000000;stroke-width:0.7;stroke-linecap:round;" y1="-1.824" x2="42.429"/>
  <line x1="46.021" y2="-1.824" style="fill:none;stroke:#000000;stroke-width:0.7;stroke-linecap:round;" y1="-1.824" x2="46.021"/>
 </g>
</svg>
