<?xml version="1.0" encoding="utf-8"?>
<svg xmlns="http://www.w3.org/2000/svg" version="1.1" x="0px" y="0px" xml:space="preserve" width="46.75" height="46.75" viewBox="0 -46.75 46.75 46.75">
	<g>
		<rect y="-46.75" style="fill:none;" width="46.75" height="46.75"/>
		<line style="fill:none;stroke:#000000;stroke-width:0.3;" x1="5.382" y1="-45.447" x2="0" y2="-45.447"/>
		<line style="fill:none;stroke:#000000;stroke-width:0.3;" x1="12.948" y1="-45.447" x2="20.767" y2="-45.447"/>
		<line style="fill:none;stroke:#000000;stroke-width:0.3;" x1="28.44" y1="-45.447" x2="36.259" y2="-45.447"/>
		<line style="fill:none;stroke:#000000;stroke-width:0.3;" x1="0" y1="-33.807" x2="3.768" y2="-33.807"/>
		<line style="fill:none;stroke:#000000;stroke-width:0.3;" x1="19.152" y1="-33.807" x2="11.335" y2="-33.807"/>
		<line style="fill:none;stroke:#000000;stroke-width:0.3;" x1="26.827" y1="-33.807" x2="34.645" y2="-33.807"/>
		<line style="fill:none;stroke:#000000;stroke-width:0.3;" x1="0" y1="-22.167" x2="1.724" y2="-22.167"/>
		<line style="fill:none;stroke:#000000;stroke-width:0.3;" x1="9.398" y1="-22.167" x2="17.216" y2="-22.167"/>
		<line style="fill:none;stroke:#000000;stroke-width:0.3;" x1="24.891" y1="-22.167" x2="32.708" y2="-22.167"/>
		<line style="fill:none;stroke:#000000;stroke-width:0.3;" x1="5.059" y1="-10.527" x2="0" y2="-10.527"/>
		<line style="fill:none;stroke:#000000;stroke-width:0.3;" x1="20.658" y1="-10.527" x2="12.841" y2="-10.527"/>
		<line style="fill:none;stroke:#000000;stroke-width:0.3;" x1="36.259" y1="-10.527" x2="28.44" y2="-10.527"/>
		<line style="fill:none;stroke:#000000;stroke-width:0.3;" x1="44.184" y1="-45.447" x2="46.75" y2="-45.447"/>
		<line style="fill:none;stroke:#000000;stroke-width:0.3;" x1="42.57" y1="-33.807" x2="46.75" y2="-33.807"/>
		<line style="fill:none;stroke:#000000;stroke-width:0.3;" x1="40.526" y1="-22.167" x2="46.75" y2="-22.167"/>
		<line style="fill:none;stroke:#000000;stroke-width:0.3;" x1="43.861" y1="-10.527" x2="46.75" y2="-10.527"/>
		<line style="fill:none;stroke:#000000;stroke-width:0.3;" x1="43.913" y1="-39.644" x2="36.017" y2="-39.644"/>
		<line style="fill:none;stroke:#000000;stroke-width:0.3;" x1="20.367" y1="-39.644" x2="28.265" y2="-39.644"/>
		<line style="fill:none;stroke:#000000;stroke-width:0.3;" x1="4.61" y1="-39.644" x2="12.507" y2="-39.644"/>
		<line style="fill:none;stroke:#000000;stroke-width:0.3;" x1="34.114" y1="-28.004" x2="42.011" y2="-28.004"/>
		<line style="fill:none;stroke:#000000;stroke-width:0.3;" x1="26.362" y1="-28.004" x2="18.465" y2="-28.004"/>
		<line style="fill:none;stroke:#000000;stroke-width:0.3;" x1="10.496" y1="-28.004" x2="2.6" y2="-28.004"/>
		<line style="fill:none;stroke:#000000;stroke-width:0.3;" x1="34.114" y1="-16.364" x2="42.011" y2="-16.364"/>
		<line style="fill:none;stroke:#000000;stroke-width:0.3;" x1="26.362" y1="-16.364" x2="18.465" y2="-16.364"/>
		<line style="fill:none;stroke:#000000;stroke-width:0.3;" x1="10.713" y1="-16.364" x2="2.816" y2="-16.364"/>
		<line style="fill:none;stroke:#000000;stroke-width:0.3;" x1="43.641" y1="-4.844" x2="35.744" y2="-4.844"/>
		<line style="fill:none;stroke:#000000;stroke-width:0.3;" x1="28.209" y1="-4.844" x2="20.312" y2="-4.844"/>
		<line style="fill:none;stroke:#000000;stroke-width:0.3;" x1="12.452" y1="-4.844" x2="4.556" y2="-4.844"/>

			<line style="fill:none;stroke:#000000;stroke-width:0.7;stroke-linecap:round;" x1="24.591" y1="-45.423" x2="24.591" y2="-45.423"/>

			<line style="fill:none;stroke:#000000;stroke-width:0.7;stroke-linecap:round;" x1="26.553" y1="-45.423" x2="26.553" y2="-45.423"/>

			<line style="fill:none;stroke:#000000;stroke-width:0.7;stroke-linecap:round;" x1="22.536" y1="-45.423" x2="22.536" y2="-45.423"/>

			<line style="fill:none;stroke:#000000;stroke-width:0.7;stroke-linecap:round;" x1="9.204" y1="-45.423" x2="9.204" y2="-45.423"/>

			<line style="fill:none;stroke:#000000;stroke-width:0.7;stroke-linecap:round;" x1="11.167" y1="-45.423" x2="11.167" y2="-45.423"/>
		<line style="fill:none;stroke:#000000;stroke-width:0.7;stroke-linecap:round;" x1="7.15" y1="-45.423" x2="7.15" y2="-45.423"/>

			<line style="fill:none;stroke:#000000;stroke-width:0.7;stroke-linecap:round;" x1="40.298" y1="-45.423" x2="40.298" y2="-45.423"/>

			<line style="fill:none;stroke:#000000;stroke-width:0.7;stroke-linecap:round;" x1="42.261" y1="-45.423" x2="42.261" y2="-45.423"/>

			<line style="fill:none;stroke:#000000;stroke-width:0.7;stroke-linecap:round;" x1="38.244" y1="-45.423" x2="38.244" y2="-45.423"/>

			<line style="fill:none;stroke:#000000;stroke-width:0.7;stroke-linecap:round;" x1="23.008" y1="-33.847" x2="23.008" y2="-33.847"/>

			<line style="fill:none;stroke:#000000;stroke-width:0.7;stroke-linecap:round;" x1="24.97" y1="-33.847" x2="24.97" y2="-33.847"/>

			<line style="fill:none;stroke:#000000;stroke-width:0.7;stroke-linecap:round;" x1="20.953" y1="-33.847" x2="20.953" y2="-33.847"/>

			<line style="fill:none;stroke:#000000;stroke-width:0.7;stroke-linecap:round;" x1="7.621" y1="-33.847" x2="7.621" y2="-33.847"/>

			<line style="fill:none;stroke:#000000;stroke-width:0.7;stroke-linecap:round;" x1="9.584" y1="-33.847" x2="9.584" y2="-33.847"/>

			<line style="fill:none;stroke:#000000;stroke-width:0.7;stroke-linecap:round;" x1="5.567" y1="-33.847" x2="5.567" y2="-33.847"/>

			<line style="fill:none;stroke:#000000;stroke-width:0.7;stroke-linecap:round;" x1="38.715" y1="-33.847" x2="38.715" y2="-33.847"/>

			<line style="fill:none;stroke:#000000;stroke-width:0.7;stroke-linecap:round;" x1="40.678" y1="-33.847" x2="40.678" y2="-33.847"/>

			<line style="fill:none;stroke:#000000;stroke-width:0.7;stroke-linecap:round;" x1="36.661" y1="-33.847" x2="36.661" y2="-33.847"/>

			<line style="fill:none;stroke:#000000;stroke-width:0.7;stroke-linecap:round;" x1="20.964" y1="-22.147" x2="20.964" y2="-22.147"/>

			<line style="fill:none;stroke:#000000;stroke-width:0.7;stroke-linecap:round;" x1="22.926" y1="-22.147" x2="22.926" y2="-22.147"/>

			<line style="fill:none;stroke:#000000;stroke-width:0.7;stroke-linecap:round;" x1="18.909" y1="-22.147" x2="18.909" y2="-22.147"/>

			<line style="fill:none;stroke:#000000;stroke-width:0.7;stroke-linecap:round;" x1="5.577" y1="-22.147" x2="5.577" y2="-22.147"/>
		<line style="fill:none;stroke:#000000;stroke-width:0.7;stroke-linecap:round;" x1="7.54" y1="-22.147" x2="7.54" y2="-22.147"/>

			<line style="fill:none;stroke:#000000;stroke-width:0.7;stroke-linecap:round;" x1="3.523" y1="-22.147" x2="3.523" y2="-22.147"/>

			<line style="fill:none;stroke:#000000;stroke-width:0.7;stroke-linecap:round;" x1="36.671" y1="-22.147" x2="36.671" y2="-22.147"/>

			<line style="fill:none;stroke:#000000;stroke-width:0.7;stroke-linecap:round;" x1="38.633" y1="-22.147" x2="38.633" y2="-22.147"/>

			<line style="fill:none;stroke:#000000;stroke-width:0.7;stroke-linecap:round;" x1="34.617" y1="-22.147" x2="34.617" y2="-22.147"/>

			<line style="fill:none;stroke:#000000;stroke-width:0.7;stroke-linecap:round;" x1="24.46" y1="-10.507" x2="24.46" y2="-10.507"/>

			<line style="fill:none;stroke:#000000;stroke-width:0.7;stroke-linecap:round;" x1="26.422" y1="-10.507" x2="26.422" y2="-10.507"/>

			<line style="fill:none;stroke:#000000;stroke-width:0.7;stroke-linecap:round;" x1="22.406" y1="-10.507" x2="22.406" y2="-10.507"/>

			<line style="fill:none;stroke:#000000;stroke-width:0.7;stroke-linecap:round;" x1="9.074" y1="-10.507" x2="9.074" y2="-10.507"/>

			<line style="fill:none;stroke:#000000;stroke-width:0.7;stroke-linecap:round;" x1="11.036" y1="-10.507" x2="11.036" y2="-10.507"/>

			<line style="fill:none;stroke:#000000;stroke-width:0.7;stroke-linecap:round;" x1="7.019" y1="-10.507" x2="7.019" y2="-10.507"/>

			<line style="fill:none;stroke:#000000;stroke-width:0.7;stroke-linecap:round;" x1="40.167" y1="-10.507" x2="40.167" y2="-10.507"/>

			<line style="fill:none;stroke:#000000;stroke-width:0.7;stroke-linecap:round;" x1="42.13" y1="-10.507" x2="42.13" y2="-10.507"/>

			<line style="fill:none;stroke:#000000;stroke-width:0.7;stroke-linecap:round;" x1="38.113" y1="-10.507" x2="38.113" y2="-10.507"/>

			<line style="fill:none;stroke:#000000;stroke-width:0.7;stroke-linecap:round;" x1="16.347" y1="-39.624" x2="16.347" y2="-39.624"/>

			<line style="fill:none;stroke:#000000;stroke-width:0.7;stroke-linecap:round;" x1="18.329" y1="-39.624" x2="18.329" y2="-39.624"/>

			<line style="fill:none;stroke:#000000;stroke-width:0.7;stroke-linecap:round;" x1="14.273" y1="-39.624" x2="14.273" y2="-39.624"/>

			<line style="fill:none;stroke:#000000;stroke-width:0.7;stroke-linecap:round;" x1="0.806" y1="-39.624" x2="0.806" y2="-39.624"/>

			<line style="fill:none;stroke:#000000;stroke-width:0.7;stroke-linecap:round;" x1="2.787" y1="-39.624" x2="2.787" y2="-39.624"/>

			<line style="fill:none;stroke:#000000;stroke-width:0.7;stroke-linecap:round;" x1="32.213" y1="-39.624" x2="32.213" y2="-39.624"/>

			<line style="fill:none;stroke:#000000;stroke-width:0.7;stroke-linecap:round;" x1="34.194" y1="-39.624" x2="34.194" y2="-39.624"/>

			<line style="fill:none;stroke:#000000;stroke-width:0.7;stroke-linecap:round;" x1="30.138" y1="-39.624" x2="30.138" y2="-39.624"/>

			<line style="fill:none;stroke:#000000;stroke-width:0.7;stroke-linecap:round;" x1="45.604" y1="-39.624" x2="45.604" y2="-39.624"/>

			<line style="fill:none;stroke:#000000;stroke-width:0.7;stroke-linecap:round;" x1="14.39" y1="-28.044" x2="14.39" y2="-28.044"/>

			<line style="fill:none;stroke:#000000;stroke-width:0.7;stroke-linecap:round;" x1="16.372" y1="-28.044" x2="16.372" y2="-28.044"/>

			<line style="fill:none;stroke:#000000;stroke-width:0.7;stroke-linecap:round;" x1="12.315" y1="-28.044" x2="12.315" y2="-28.044"/>

			<line style="fill:none;stroke:#000000;stroke-width:0.7;stroke-linecap:round;" x1="30.256" y1="-28.044" x2="30.256" y2="-28.044"/>

			<line style="fill:none;stroke:#000000;stroke-width:0.7;stroke-linecap:round;" x1="32.238" y1="-28.044" x2="32.238" y2="-28.044"/>

			<line style="fill:none;stroke:#000000;stroke-width:0.7;stroke-linecap:round;" x1="28.182" y1="-28.044" x2="28.182" y2="-28.044"/>

			<line style="fill:none;stroke:#000000;stroke-width:0.7;stroke-linecap:round;" x1="45.722" y1="-28.044" x2="45.722" y2="-28.044"/>

			<line style="fill:none;stroke:#000000;stroke-width:0.7;stroke-linecap:round;" x1="43.647" y1="-28.044" x2="43.647" y2="-28.044"/>

			<line style="fill:none;stroke:#000000;stroke-width:0.7;stroke-linecap:round;" x1="14.444" y1="-16.344" x2="14.444" y2="-16.344"/>

			<line style="fill:none;stroke:#000000;stroke-width:0.7;stroke-linecap:round;" x1="16.427" y1="-16.344" x2="16.427" y2="-16.344"/>

			<line style="fill:none;stroke:#000000;stroke-width:0.7;stroke-linecap:round;" x1="12.37" y1="-16.344" x2="12.37" y2="-16.344"/>

			<line style="fill:none;stroke:#000000;stroke-width:0.7;stroke-linecap:round;" x1="0.885" y1="-16.344" x2="0.885" y2="-16.344"/>

			<line style="fill:none;stroke:#000000;stroke-width:0.7;stroke-linecap:round;" x1="30.31" y1="-16.344" x2="30.31" y2="-16.344"/>

			<line style="fill:none;stroke:#000000;stroke-width:0.7;stroke-linecap:round;" x1="32.292" y1="-16.344" x2="32.292" y2="-16.344"/>

			<line style="fill:none;stroke:#000000;stroke-width:0.7;stroke-linecap:round;" x1="28.235" y1="-16.344" x2="28.235" y2="-16.344"/>

			<line style="fill:none;stroke:#000000;stroke-width:0.7;stroke-linecap:round;" x1="45.776" y1="-16.344" x2="45.776" y2="-16.344"/>

			<line style="fill:none;stroke:#000000;stroke-width:0.7;stroke-linecap:round;" x1="43.701" y1="-16.344" x2="43.701" y2="-16.344"/>

			<line style="fill:none;stroke:#000000;stroke-width:0.7;stroke-linecap:round;" x1="16.237" y1="-4.824" x2="16.237" y2="-4.824"/>
		<line style="fill:none;stroke:#000000;stroke-width:0.7;stroke-linecap:round;" x1="18.22" y1="-4.824" x2="18.22" y2="-4.824"/>

			<line style="fill:none;stroke:#000000;stroke-width:0.7;stroke-linecap:round;" x1="14.163" y1="-4.824" x2="14.163" y2="-4.824"/>
		<line style="fill:none;stroke:#000000;stroke-width:0.7;stroke-linecap:round;" x1="0.696" y1="-4.824" x2="0.696" y2="-4.824"/>
		<line style="fill:none;stroke:#000000;stroke-width:0.7;stroke-linecap:round;" x1="2.678" y1="-4.824" x2="2.678" y2="-4.824"/>

			<line style="fill:none;stroke:#000000;stroke-width:0.7;stroke-linecap:round;" x1="32.104" y1="-4.824" x2="32.104" y2="-4.824"/>

			<line style="fill:none;stroke:#000000;stroke-width:0.7;stroke-linecap:round;" x1="34.086" y1="-4.824" x2="34.086" y2="-4.824"/>

			<line style="fill:none;stroke:#000000;stroke-width:0.7;stroke-linecap:round;" x1="30.028" y1="-4.824" x2="30.028" y2="-4.824"/>

			<line style="fill:none;stroke:#000000;stroke-width:0.7;stroke-linecap:round;" x1="45.495" y1="-4.824" x2="45.495" y2="-4.824"/>

			<line style="fill:none;stroke:#000000;stroke-width:0.7;stroke-linecap:round;" x1="1.121" y1="-42.499" x2="1.121" y2="-42.499"/>

			<line style="fill:none;stroke:#000000;stroke-width:0.7;stroke-linecap:round;" x1="4.713" y1="-42.499" x2="4.713" y2="-42.499"/>

			<line style="fill:none;stroke:#000000;stroke-width:0.7;stroke-linecap:round;" x1="2.917" y1="-42.499" x2="2.917" y2="-42.499"/>

			<line style="fill:none;stroke:#000000;stroke-width:0.7;stroke-linecap:round;" x1="8.309" y1="-42.499" x2="8.309" y2="-42.499"/>

			<line style="fill:none;stroke:#000000;stroke-width:0.7;stroke-linecap:round;" x1="6.514" y1="-42.499" x2="6.514" y2="-42.499"/>

			<line style="fill:none;stroke:#000000;stroke-width:0.7;stroke-linecap:round;" x1="11.899" y1="-42.499" x2="11.899" y2="-42.499"/>

			<line style="fill:none;stroke:#000000;stroke-width:0.7;stroke-linecap:round;" x1="10.104" y1="-42.499" x2="10.104" y2="-42.499"/>

			<line style="fill:none;stroke:#000000;stroke-width:0.7;stroke-linecap:round;" x1="15.491" y1="-42.499" x2="15.491" y2="-42.499"/>

			<line style="fill:none;stroke:#000000;stroke-width:0.7;stroke-linecap:round;" x1="13.695" y1="-42.499" x2="13.695" y2="-42.499"/>

			<line style="fill:none;stroke:#000000;stroke-width:0.7;stroke-linecap:round;" x1="19.082" y1="-42.499" x2="19.082" y2="-42.499"/>

			<line style="fill:none;stroke:#000000;stroke-width:0.7;stroke-linecap:round;" x1="17.286" y1="-42.499" x2="17.286" y2="-42.499"/>

			<line style="fill:none;stroke:#000000;stroke-width:0.7;stroke-linecap:round;" x1="22.679" y1="-42.499" x2="22.679" y2="-42.499"/>

			<line style="fill:none;stroke:#000000;stroke-width:0.7;stroke-linecap:round;" x1="20.883" y1="-42.499" x2="20.883" y2="-42.499"/>

			<line style="fill:none;stroke:#000000;stroke-width:0.7;stroke-linecap:round;" x1="26.27" y1="-42.499" x2="26.27" y2="-42.499"/>

			<line style="fill:none;stroke:#000000;stroke-width:0.7;stroke-linecap:round;" x1="24.474" y1="-42.499" x2="24.474" y2="-42.499"/>

			<line style="fill:none;stroke:#000000;stroke-width:0.7;stroke-linecap:round;" x1="29.855" y1="-42.499" x2="29.855" y2="-42.499"/>

			<line style="fill:none;stroke:#000000;stroke-width:0.7;stroke-linecap:round;" x1="28.06" y1="-42.499" x2="28.06" y2="-42.499"/>

			<line style="fill:none;stroke:#000000;stroke-width:0.7;stroke-linecap:round;" x1="33.446" y1="-42.499" x2="33.446" y2="-42.499"/>

			<line style="fill:none;stroke:#000000;stroke-width:0.7;stroke-linecap:round;" x1="31.65" y1="-42.499" x2="31.65" y2="-42.499"/>

			<line style="fill:none;stroke:#000000;stroke-width:0.7;stroke-linecap:round;" x1="37.042" y1="-42.499" x2="37.042" y2="-42.499"/>

			<line style="fill:none;stroke:#000000;stroke-width:0.7;stroke-linecap:round;" x1="35.247" y1="-42.499" x2="35.247" y2="-42.499"/>

			<line style="fill:none;stroke:#000000;stroke-width:0.7;stroke-linecap:round;" x1="40.634" y1="-42.499" x2="40.634" y2="-42.499"/>

			<line style="fill:none;stroke:#000000;stroke-width:0.7;stroke-linecap:round;" x1="38.838" y1="-42.499" x2="38.838" y2="-42.499"/>

			<line style="fill:none;stroke:#000000;stroke-width:0.7;stroke-linecap:round;" x1="44.225" y1="-42.499" x2="44.225" y2="-42.499"/>

			<line style="fill:none;stroke:#000000;stroke-width:0.7;stroke-linecap:round;" x1="42.429" y1="-42.499" x2="42.429" y2="-42.499"/>

			<line style="fill:none;stroke:#000000;stroke-width:0.7;stroke-linecap:round;" x1="46.021" y1="-42.499" x2="46.021" y2="-42.499"/>

			<line style="fill:none;stroke:#000000;stroke-width:0.7;stroke-linecap:round;" x1="1.121" y1="-36.624" x2="1.121" y2="-36.624"/>

			<line style="fill:none;stroke:#000000;stroke-width:0.7;stroke-linecap:round;" x1="4.713" y1="-36.624" x2="4.713" y2="-36.624"/>

			<line style="fill:none;stroke:#000000;stroke-width:0.7;stroke-linecap:round;" x1="2.917" y1="-36.624" x2="2.917" y2="-36.624"/>

			<line style="fill:none;stroke:#000000;stroke-width:0.7;stroke-linecap:round;" x1="8.309" y1="-36.624" x2="8.309" y2="-36.624"/>

			<line style="fill:none;stroke:#000000;stroke-width:0.7;stroke-linecap:round;" x1="6.514" y1="-36.624" x2="6.514" y2="-36.624"/>

			<line style="fill:none;stroke:#000000;stroke-width:0.7;stroke-linecap:round;" x1="11.899" y1="-36.624" x2="11.899" y2="-36.624"/>

			<line style="fill:none;stroke:#000000;stroke-width:0.7;stroke-linecap:round;" x1="10.104" y1="-36.624" x2="10.104" y2="-36.624"/>

			<line style="fill:none;stroke:#000000;stroke-width:0.7;stroke-linecap:round;" x1="15.491" y1="-36.624" x2="15.491" y2="-36.624"/>

			<line style="fill:none;stroke:#000000;stroke-width:0.7;stroke-linecap:round;" x1="13.695" y1="-36.624" x2="13.695" y2="-36.624"/>

			<line style="fill:none;stroke:#000000;stroke-width:0.7;stroke-linecap:round;" x1="19.082" y1="-36.624" x2="19.082" y2="-36.624"/>

			<line style="fill:none;stroke:#000000;stroke-width:0.7;stroke-linecap:round;" x1="17.286" y1="-36.624" x2="17.286" y2="-36.624"/>

			<line style="fill:none;stroke:#000000;stroke-width:0.7;stroke-linecap:round;" x1="22.679" y1="-36.624" x2="22.679" y2="-36.624"/>

			<line style="fill:none;stroke:#000000;stroke-width:0.7;stroke-linecap:round;" x1="20.883" y1="-36.624" x2="20.883" y2="-36.624"/>

			<line style="fill:none;stroke:#000000;stroke-width:0.7;stroke-linecap:round;" x1="26.27" y1="-36.624" x2="26.27" y2="-36.624"/>

			<line style="fill:none;stroke:#000000;stroke-width:0.7;stroke-linecap:round;" x1="24.474" y1="-36.624" x2="24.474" y2="-36.624"/>

			<line style="fill:none;stroke:#000000;stroke-width:0.7;stroke-linecap:round;" x1="29.855" y1="-36.624" x2="29.855" y2="-36.624"/>

			<line style="fill:none;stroke:#000000;stroke-width:0.7;stroke-linecap:round;" x1="28.06" y1="-36.624" x2="28.06" y2="-36.624"/>

			<line style="fill:none;stroke:#000000;stroke-width:0.7;stroke-linecap:round;" x1="33.446" y1="-36.624" x2="33.446" y2="-36.624"/>

			<line style="fill:none;stroke:#000000;stroke-width:0.7;stroke-linecap:round;" x1="31.65" y1="-36.624" x2="31.65" y2="-36.624"/>

			<line style="fill:none;stroke:#000000;stroke-width:0.7;stroke-linecap:round;" x1="37.042" y1="-36.624" x2="37.042" y2="-36.624"/>

			<line style="fill:none;stroke:#000000;stroke-width:0.7;stroke-linecap:round;" x1="35.247" y1="-36.624" x2="35.247" y2="-36.624"/>

			<line style="fill:none;stroke:#000000;stroke-width:0.7;stroke-linecap:round;" x1="40.634" y1="-36.624" x2="40.634" y2="-36.624"/>

			<line style="fill:none;stroke:#000000;stroke-width:0.7;stroke-linecap:round;" x1="38.838" y1="-36.624" x2="38.838" y2="-36.624"/>

			<line style="fill:none;stroke:#000000;stroke-width:0.7;stroke-linecap:round;" x1="44.225" y1="-36.624" x2="44.225" y2="-36.624"/>

			<line style="fill:none;stroke:#000000;stroke-width:0.7;stroke-linecap:round;" x1="42.429" y1="-36.624" x2="42.429" y2="-36.624"/>

			<line style="fill:none;stroke:#000000;stroke-width:0.7;stroke-linecap:round;" x1="46.021" y1="-36.624" x2="46.021" y2="-36.624"/>

			<line style="fill:none;stroke:#000000;stroke-width:0.7;stroke-linecap:round;" x1="1.121" y1="-30.929" x2="1.121" y2="-30.929"/>

			<line style="fill:none;stroke:#000000;stroke-width:0.7;stroke-linecap:round;" x1="4.713" y1="-30.929" x2="4.713" y2="-30.929"/>

			<line style="fill:none;stroke:#000000;stroke-width:0.7;stroke-linecap:round;" x1="2.917" y1="-30.929" x2="2.917" y2="-30.929"/>

			<line style="fill:none;stroke:#000000;stroke-width:0.7;stroke-linecap:round;" x1="8.309" y1="-30.929" x2="8.309" y2="-30.929"/>

			<line style="fill:none;stroke:#000000;stroke-width:0.7;stroke-linecap:round;" x1="6.514" y1="-30.929" x2="6.514" y2="-30.929"/>

			<line style="fill:none;stroke:#000000;stroke-width:0.7;stroke-linecap:round;" x1="11.899" y1="-30.929" x2="11.899" y2="-30.929"/>

			<line style="fill:none;stroke:#000000;stroke-width:0.7;stroke-linecap:round;" x1="10.104" y1="-30.929" x2="10.104" y2="-30.929"/>

			<line style="fill:none;stroke:#000000;stroke-width:0.7;stroke-linecap:round;" x1="15.491" y1="-30.929" x2="15.491" y2="-30.929"/>

			<line style="fill:none;stroke:#000000;stroke-width:0.7;stroke-linecap:round;" x1="13.695" y1="-30.929" x2="13.695" y2="-30.929"/>

			<line style="fill:none;stroke:#000000;stroke-width:0.7;stroke-linecap:round;" x1="19.082" y1="-30.929" x2="19.082" y2="-30.929"/>

			<line style="fill:none;stroke:#000000;stroke-width:0.7;stroke-linecap:round;" x1="17.286" y1="-30.929" x2="17.286" y2="-30.929"/>

			<line style="fill:none;stroke:#000000;stroke-width:0.7;stroke-linecap:round;" x1="22.679" y1="-30.929" x2="22.679" y2="-30.929"/>

			<line style="fill:none;stroke:#000000;stroke-width:0.7;stroke-linecap:round;" x1="20.883" y1="-30.929" x2="20.883" y2="-30.929"/>

			<line style="fill:none;stroke:#000000;stroke-width:0.7;stroke-linecap:round;" x1="26.27" y1="-30.929" x2="26.27" y2="-30.929"/>

			<line style="fill:none;stroke:#000000;stroke-width:0.7;stroke-linecap:round;" x1="24.474" y1="-30.929" x2="24.474" y2="-30.929"/>

			<line style="fill:none;stroke:#000000;stroke-width:0.7;stroke-linecap:round;" x1="29.855" y1="-30.929" x2="29.855" y2="-30.929"/>

			<line style="fill:none;stroke:#000000;stroke-width:0.7;stroke-linecap:round;" x1="28.06" y1="-30.929" x2="28.06" y2="-30.929"/>

			<line style="fill:none;stroke:#000000;stroke-width:0.7;stroke-linecap:round;" x1="33.446" y1="-30.929" x2="33.446" y2="-30.929"/>

			<line style="fill:none;stroke:#000000;stroke-width:0.7;stroke-linecap:round;" x1="31.65" y1="-30.929" x2="31.65" y2="-30.929"/>

			<line style="fill:none;stroke:#000000;stroke-width:0.7;stroke-linecap:round;" x1="37.042" y1="-30.929" x2="37.042" y2="-30.929"/>

			<line style="fill:none;stroke:#000000;stroke-width:0.7;stroke-linecap:round;" x1="35.247" y1="-30.929" x2="35.247" y2="-30.929"/>

			<line style="fill:none;stroke:#000000;stroke-width:0.7;stroke-linecap:round;" x1="40.634" y1="-30.929" x2="40.634" y2="-30.929"/>

			<line style="fill:none;stroke:#000000;stroke-width:0.7;stroke-linecap:round;" x1="38.838" y1="-30.929" x2="38.838" y2="-30.929"/>

			<line style="fill:none;stroke:#000000;stroke-width:0.7;stroke-linecap:round;" x1="44.225" y1="-30.929" x2="44.225" y2="-30.929"/>

			<line style="fill:none;stroke:#000000;stroke-width:0.7;stroke-linecap:round;" x1="42.429" y1="-30.929" x2="42.429" y2="-30.929"/>

			<line style="fill:none;stroke:#000000;stroke-width:0.7;stroke-linecap:round;" x1="46.021" y1="-30.929" x2="46.021" y2="-30.929"/>

			<line style="fill:none;stroke:#000000;stroke-width:0.7;stroke-linecap:round;" x1="1.121" y1="-25.044" x2="1.121" y2="-25.044"/>

			<line style="fill:none;stroke:#000000;stroke-width:0.7;stroke-linecap:round;" x1="4.713" y1="-25.044" x2="4.713" y2="-25.044"/>

			<line style="fill:none;stroke:#000000;stroke-width:0.7;stroke-linecap:round;" x1="2.917" y1="-25.044" x2="2.917" y2="-25.044"/>

			<line style="fill:none;stroke:#000000;stroke-width:0.7;stroke-linecap:round;" x1="8.309" y1="-25.044" x2="8.309" y2="-25.044"/>

			<line style="fill:none;stroke:#000000;stroke-width:0.7;stroke-linecap:round;" x1="6.514" y1="-25.044" x2="6.514" y2="-25.044"/>

			<line style="fill:none;stroke:#000000;stroke-width:0.7;stroke-linecap:round;" x1="11.899" y1="-25.044" x2="11.899" y2="-25.044"/>

			<line style="fill:none;stroke:#000000;stroke-width:0.7;stroke-linecap:round;" x1="10.104" y1="-25.044" x2="10.104" y2="-25.044"/>

			<line style="fill:none;stroke:#000000;stroke-width:0.7;stroke-linecap:round;" x1="15.491" y1="-25.044" x2="15.491" y2="-25.044"/>

			<line style="fill:none;stroke:#000000;stroke-width:0.7;stroke-linecap:round;" x1="13.695" y1="-25.044" x2="13.695" y2="-25.044"/>

			<line style="fill:none;stroke:#000000;stroke-width:0.7;stroke-linecap:round;" x1="19.082" y1="-25.044" x2="19.082" y2="-25.044"/>

			<line style="fill:none;stroke:#000000;stroke-width:0.7;stroke-linecap:round;" x1="17.286" y1="-25.044" x2="17.286" y2="-25.044"/>

			<line style="fill:none;stroke:#000000;stroke-width:0.7;stroke-linecap:round;" x1="22.679" y1="-25.044" x2="22.679" y2="-25.044"/>

			<line style="fill:none;stroke:#000000;stroke-width:0.7;stroke-linecap:round;" x1="20.883" y1="-25.044" x2="20.883" y2="-25.044"/>

			<line style="fill:none;stroke:#000000;stroke-width:0.7;stroke-linecap:round;" x1="26.27" y1="-25.044" x2="26.27" y2="-25.044"/>

			<line style="fill:none;stroke:#000000;stroke-width:0.7;stroke-linecap:round;" x1="24.474" y1="-25.044" x2="24.474" y2="-25.044"/>

			<line style="fill:none;stroke:#000000;stroke-width:0.7;stroke-linecap:round;" x1="29.855" y1="-25.044" x2="29.855" y2="-25.044"/>

			<line style="fill:none;stroke:#000000;stroke-width:0.7;stroke-linecap:round;" x1="28.06" y1="-25.044" x2="28.06" y2="-25.044"/>

			<line style="fill:none;stroke:#000000;stroke-width:0.7;stroke-linecap:round;" x1="33.446" y1="-25.044" x2="33.446" y2="-25.044"/>

			<line style="fill:none;stroke:#000000;stroke-width:0.7;stroke-linecap:round;" x1="31.65" y1="-25.044" x2="31.65" y2="-25.044"/>

			<line style="fill:none;stroke:#000000;stroke-width:0.7;stroke-linecap:round;" x1="37.042" y1="-25.044" x2="37.042" y2="-25.044"/>

			<line style="fill:none;stroke:#000000;stroke-width:0.7;stroke-linecap:round;" x1="35.247" y1="-25.044" x2="35.247" y2="-25.044"/>

			<line style="fill:none;stroke:#000000;stroke-width:0.7;stroke-linecap:round;" x1="40.634" y1="-25.044" x2="40.634" y2="-25.044"/>

			<line style="fill:none;stroke:#000000;stroke-width:0.7;stroke-linecap:round;" x1="38.838" y1="-25.044" x2="38.838" y2="-25.044"/>

			<line style="fill:none;stroke:#000000;stroke-width:0.7;stroke-linecap:round;" x1="44.225" y1="-25.044" x2="44.225" y2="-25.044"/>

			<line style="fill:none;stroke:#000000;stroke-width:0.7;stroke-linecap:round;" x1="42.429" y1="-25.044" x2="42.429" y2="-25.044"/>

			<line style="fill:none;stroke:#000000;stroke-width:0.7;stroke-linecap:round;" x1="46.021" y1="-25.044" x2="46.021" y2="-25.044"/>

			<line style="fill:none;stroke:#000000;stroke-width:0.7;stroke-linecap:round;" x1="1.121" y1="-19.224" x2="1.121" y2="-19.224"/>

			<line style="fill:none;stroke:#000000;stroke-width:0.7;stroke-linecap:round;" x1="4.713" y1="-19.224" x2="4.713" y2="-19.224"/>

			<line style="fill:none;stroke:#000000;stroke-width:0.7;stroke-linecap:round;" x1="2.917" y1="-19.224" x2="2.917" y2="-19.224"/>

			<line style="fill:none;stroke:#000000;stroke-width:0.7;stroke-linecap:round;" x1="8.309" y1="-19.224" x2="8.309" y2="-19.224"/>

			<line style="fill:none;stroke:#000000;stroke-width:0.7;stroke-linecap:round;" x1="6.514" y1="-19.224" x2="6.514" y2="-19.224"/>

			<line style="fill:none;stroke:#000000;stroke-width:0.7;stroke-linecap:round;" x1="11.899" y1="-19.224" x2="11.899" y2="-19.224"/>

			<line style="fill:none;stroke:#000000;stroke-width:0.7;stroke-linecap:round;" x1="10.104" y1="-19.224" x2="10.104" y2="-19.224"/>

			<line style="fill:none;stroke:#000000;stroke-width:0.7;stroke-linecap:round;" x1="15.491" y1="-19.224" x2="15.491" y2="-19.224"/>

			<line style="fill:none;stroke:#000000;stroke-width:0.7;stroke-linecap:round;" x1="13.695" y1="-19.224" x2="13.695" y2="-19.224"/>

			<line style="fill:none;stroke:#000000;stroke-width:0.7;stroke-linecap:round;" x1="19.082" y1="-19.224" x2="19.082" y2="-19.224"/>

			<line style="fill:none;stroke:#000000;stroke-width:0.7;stroke-linecap:round;" x1="17.286" y1="-19.224" x2="17.286" y2="-19.224"/>

			<line style="fill:none;stroke:#000000;stroke-width:0.7;stroke-linecap:round;" x1="22.679" y1="-19.224" x2="22.679" y2="-19.224"/>

			<line style="fill:none;stroke:#000000;stroke-width:0.7;stroke-linecap:round;" x1="20.883" y1="-19.224" x2="20.883" y2="-19.224"/>

			<line style="fill:none;stroke:#000000;stroke-width:0.7;stroke-linecap:round;" x1="26.27" y1="-19.224" x2="26.27" y2="-19.224"/>

			<line style="fill:none;stroke:#000000;stroke-width:0.7;stroke-linecap:round;" x1="24.474" y1="-19.224" x2="24.474" y2="-19.224"/>

			<line style="fill:none;stroke:#000000;stroke-width:0.7;stroke-linecap:round;" x1="29.855" y1="-19.224" x2="29.855" y2="-19.224"/>

			<line style="fill:none;stroke:#000000;stroke-width:0.7;stroke-linecap:round;" x1="28.06" y1="-19.224" x2="28.06" y2="-19.224"/>

			<line style="fill:none;stroke:#000000;stroke-width:0.7;stroke-linecap:round;" x1="33.446" y1="-19.224" x2="33.446" y2="-19.224"/>

			<line style="fill:none;stroke:#000000;stroke-width:0.7;stroke-linecap:round;" x1="31.65" y1="-19.224" x2="31.65" y2="-19.224"/>

			<line style="fill:none;stroke:#000000;stroke-width:0.7;stroke-linecap:round;" x1="37.042" y1="-19.224" x2="37.042" y2="-19.224"/>

			<line style="fill:none;stroke:#000000;stroke-width:0.7;stroke-linecap:round;" x1="35.247" y1="-19.224" x2="35.247" y2="-19.224"/>

			<line style="fill:none;stroke:#000000;stroke-width:0.7;stroke-linecap:round;" x1="40.634" y1="-19.224" x2="40.634" y2="-19.224"/>

			<line style="fill:none;stroke:#000000;stroke-width:0.7;stroke-linecap:round;" x1="38.838" y1="-19.224" x2="38.838" y2="-19.224"/>

			<line style="fill:none;stroke:#000000;stroke-width:0.7;stroke-linecap:round;" x1="44.225" y1="-19.224" x2="44.225" y2="-19.224"/>

			<line style="fill:none;stroke:#000000;stroke-width:0.7;stroke-linecap:round;" x1="42.429" y1="-19.224" x2="42.429" y2="-19.224"/>

			<line style="fill:none;stroke:#000000;stroke-width:0.7;stroke-linecap:round;" x1="46.021" y1="-19.224" x2="46.021" y2="-19.224"/>

			<line style="fill:none;stroke:#000000;stroke-width:0.7;stroke-linecap:round;" x1="1.121" y1="-13.464" x2="1.121" y2="-13.464"/>

			<line style="fill:none;stroke:#000000;stroke-width:0.7;stroke-linecap:round;" x1="4.713" y1="-13.464" x2="4.713" y2="-13.464"/>

			<line style="fill:none;stroke:#000000;stroke-width:0.7;stroke-linecap:round;" x1="2.917" y1="-13.464" x2="2.917" y2="-13.464"/>

			<line style="fill:none;stroke:#000000;stroke-width:0.7;stroke-linecap:round;" x1="8.309" y1="-13.464" x2="8.309" y2="-13.464"/>

			<line style="fill:none;stroke:#000000;stroke-width:0.7;stroke-linecap:round;" x1="6.514" y1="-13.464" x2="6.514" y2="-13.464"/>

			<line style="fill:none;stroke:#000000;stroke-width:0.7;stroke-linecap:round;" x1="11.899" y1="-13.464" x2="11.899" y2="-13.464"/>

			<line style="fill:none;stroke:#000000;stroke-width:0.7;stroke-linecap:round;" x1="10.104" y1="-13.464" x2="10.104" y2="-13.464"/>

			<line style="fill:none;stroke:#000000;stroke-width:0.7;stroke-linecap:round;" x1="15.491" y1="-13.464" x2="15.491" y2="-13.464"/>

			<line style="fill:none;stroke:#000000;stroke-width:0.7;stroke-linecap:round;" x1="13.695" y1="-13.464" x2="13.695" y2="-13.464"/>

			<line style="fill:none;stroke:#000000;stroke-width:0.7;stroke-linecap:round;" x1="19.082" y1="-13.464" x2="19.082" y2="-13.464"/>

			<line style="fill:none;stroke:#000000;stroke-width:0.7;stroke-linecap:round;" x1="17.286" y1="-13.464" x2="17.286" y2="-13.464"/>

			<line style="fill:none;stroke:#000000;stroke-width:0.7;stroke-linecap:round;" x1="22.679" y1="-13.464" x2="22.679" y2="-13.464"/>

			<line style="fill:none;stroke:#000000;stroke-width:0.7;stroke-linecap:round;" x1="20.883" y1="-13.464" x2="20.883" y2="-13.464"/>

			<line style="fill:none;stroke:#000000;stroke-width:0.7;stroke-linecap:round;" x1="26.27" y1="-13.464" x2="26.27" y2="-13.464"/>

			<line style="fill:none;stroke:#000000;stroke-width:0.7;stroke-linecap:round;" x1="24.474" y1="-13.464" x2="24.474" y2="-13.464"/>

			<line style="fill:none;stroke:#000000;stroke-width:0.7;stroke-linecap:round;" x1="29.855" y1="-13.464" x2="29.855" y2="-13.464"/>

			<line style="fill:none;stroke:#000000;stroke-width:0.7;stroke-linecap:round;" x1="28.06" y1="-13.464" x2="28.06" y2="-13.464"/>

			<line style="fill:none;stroke:#000000;stroke-width:0.7;stroke-linecap:round;" x1="33.446" y1="-13.464" x2="33.446" y2="-13.464"/>

			<line style="fill:none;stroke:#000000;stroke-width:0.7;stroke-linecap:round;" x1="31.65" y1="-13.464" x2="31.65" y2="-13.464"/>

			<line style="fill:none;stroke:#000000;stroke-width:0.7;stroke-linecap:round;" x1="37.042" y1="-13.464" x2="37.042" y2="-13.464"/>

			<line style="fill:none;stroke:#000000;stroke-width:0.7;stroke-linecap:round;" x1="35.247" y1="-13.464" x2="35.247" y2="-13.464"/>

			<line style="fill:none;stroke:#000000;stroke-width:0.7;stroke-linecap:round;" x1="40.634" y1="-13.464" x2="40.634" y2="-13.464"/>

			<line style="fill:none;stroke:#000000;stroke-width:0.7;stroke-linecap:round;" x1="38.838" y1="-13.464" x2="38.838" y2="-13.464"/>

			<line style="fill:none;stroke:#000000;stroke-width:0.7;stroke-linecap:round;" x1="44.225" y1="-13.464" x2="44.225" y2="-13.464"/>

			<line style="fill:none;stroke:#000000;stroke-width:0.7;stroke-linecap:round;" x1="42.429" y1="-13.464" x2="42.429" y2="-13.464"/>

			<line style="fill:none;stroke:#000000;stroke-width:0.7;stroke-linecap:round;" x1="46.021" y1="-13.464" x2="46.021" y2="-13.464"/>
		<line style="fill:none;stroke:#000000;stroke-width:0.7;stroke-linecap:round;" x1="1.121" y1="-7.583" x2="1.121" y2="-7.583"/>
		<line style="fill:none;stroke:#000000;stroke-width:0.7;stroke-linecap:round;" x1="4.713" y1="-7.583" x2="4.713" y2="-7.583"/>
		<line style="fill:none;stroke:#000000;stroke-width:0.7;stroke-linecap:round;" x1="2.917" y1="-7.583" x2="2.917" y2="-7.583"/>
		<line style="fill:none;stroke:#000000;stroke-width:0.7;stroke-linecap:round;" x1="8.309" y1="-7.583" x2="8.309" y2="-7.583"/>
		<line style="fill:none;stroke:#000000;stroke-width:0.7;stroke-linecap:round;" x1="6.514" y1="-7.583" x2="6.514" y2="-7.583"/>

			<line style="fill:none;stroke:#000000;stroke-width:0.7;stroke-linecap:round;" x1="11.899" y1="-7.583" x2="11.899" y2="-7.583"/>

			<line style="fill:none;stroke:#000000;stroke-width:0.7;stroke-linecap:round;" x1="10.104" y1="-7.583" x2="10.104" y2="-7.583"/>

			<line style="fill:none;stroke:#000000;stroke-width:0.7;stroke-linecap:round;" x1="15.491" y1="-7.583" x2="15.491" y2="-7.583"/>

			<line style="fill:none;stroke:#000000;stroke-width:0.7;stroke-linecap:round;" x1="13.695" y1="-7.583" x2="13.695" y2="-7.583"/>

			<line style="fill:none;stroke:#000000;stroke-width:0.7;stroke-linecap:round;" x1="19.082" y1="-7.583" x2="19.082" y2="-7.583"/>

			<line style="fill:none;stroke:#000000;stroke-width:0.7;stroke-linecap:round;" x1="17.286" y1="-7.583" x2="17.286" y2="-7.583"/>

			<line style="fill:none;stroke:#000000;stroke-width:0.7;stroke-linecap:round;" x1="22.679" y1="-7.583" x2="22.679" y2="-7.583"/>

			<line style="fill:none;stroke:#000000;stroke-width:0.7;stroke-linecap:round;" x1="20.883" y1="-7.583" x2="20.883" y2="-7.583"/>
		<line style="fill:none;stroke:#000000;stroke-width:0.7;stroke-linecap:round;" x1="26.27" y1="-7.583" x2="26.27" y2="-7.583"/>

			<line style="fill:none;stroke:#000000;stroke-width:0.7;stroke-linecap:round;" x1="24.474" y1="-7.583" x2="24.474" y2="-7.583"/>

			<line style="fill:none;stroke:#000000;stroke-width:0.7;stroke-linecap:round;" x1="29.855" y1="-7.583" x2="29.855" y2="-7.583"/>
		<line style="fill:none;stroke:#000000;stroke-width:0.7;stroke-linecap:round;" x1="28.06" y1="-7.583" x2="28.06" y2="-7.583"/>

			<line style="fill:none;stroke:#000000;stroke-width:0.7;stroke-linecap:round;" x1="33.446" y1="-7.583" x2="33.446" y2="-7.583"/>
		<line style="fill:none;stroke:#000000;stroke-width:0.7;stroke-linecap:round;" x1="31.65" y1="-7.583" x2="31.65" y2="-7.583"/>

			<line style="fill:none;stroke:#000000;stroke-width:0.7;stroke-linecap:round;" x1="37.042" y1="-7.583" x2="37.042" y2="-7.583"/>

			<line style="fill:none;stroke:#000000;stroke-width:0.7;stroke-linecap:round;" x1="35.247" y1="-7.583" x2="35.247" y2="-7.583"/>

			<line style="fill:none;stroke:#000000;stroke-width:0.7;stroke-linecap:round;" x1="40.634" y1="-7.583" x2="40.634" y2="-7.583"/>

			<line style="fill:none;stroke:#000000;stroke-width:0.7;stroke-linecap:round;" x1="38.838" y1="-7.583" x2="38.838" y2="-7.583"/>

			<line style="fill:none;stroke:#000000;stroke-width:0.7;stroke-linecap:round;" x1="44.225" y1="-7.583" x2="44.225" y2="-7.583"/>

			<line style="fill:none;stroke:#000000;stroke-width:0.7;stroke-linecap:round;" x1="42.429" y1="-7.583" x2="42.429" y2="-7.583"/>

			<line style="fill:none;stroke:#000000;stroke-width:0.7;stroke-linecap:round;" x1="46.021" y1="-7.583" x2="46.021" y2="-7.583"/>
		<line style="fill:none;stroke:#000000;stroke-width:0.7;stroke-linecap:round;" x1="1.121" y1="-1.824" x2="1.121" y2="-1.824"/>
		<line style="fill:none;stroke:#000000;stroke-width:0.7;stroke-linecap:round;" x1="4.713" y1="-1.824" x2="4.713" y2="-1.824"/>
		<line style="fill:none;stroke:#000000;stroke-width:0.7;stroke-linecap:round;" x1="2.917" y1="-1.824" x2="2.917" y2="-1.824"/>
		<line style="fill:none;stroke:#000000;stroke-width:0.7;stroke-linecap:round;" x1="8.309" y1="-1.824" x2="8.309" y2="-1.824"/>
		<line style="fill:none;stroke:#000000;stroke-width:0.7;stroke-linecap:round;" x1="6.514" y1="-1.824" x2="6.514" y2="-1.824"/>

			<line style="fill:none;stroke:#000000;stroke-width:0.7;stroke-linecap:round;" x1="11.899" y1="-1.824" x2="11.899" y2="-1.824"/>

			<line style="fill:none;stroke:#000000;stroke-width:0.7;stroke-linecap:round;" x1="10.104" y1="-1.824" x2="10.104" y2="-1.824"/>

			<line style="fill:none;stroke:#000000;stroke-width:0.7;stroke-linecap:round;" x1="15.491" y1="-1.824" x2="15.491" y2="-1.824"/>

			<line style="fill:none;stroke:#000000;stroke-width:0.7;stroke-linecap:round;" x1="13.695" y1="-1.824" x2="13.695" y2="-1.824"/>

			<line style="fill:none;stroke:#000000;stroke-width:0.7;stroke-linecap:round;" x1="19.082" y1="-1.824" x2="19.082" y2="-1.824"/>

			<line style="fill:none;stroke:#000000;stroke-width:0.7;stroke-linecap:round;" x1="17.286" y1="-1.824" x2="17.286" y2="-1.824"/>

			<line style="fill:none;stroke:#000000;stroke-width:0.7;stroke-linecap:round;" x1="22.679" y1="-1.824" x2="22.679" y2="-1.824"/>

			<line style="fill:none;stroke:#000000;stroke-width:0.7;stroke-linecap:round;" x1="20.883" y1="-1.824" x2="20.883" y2="-1.824"/>
		<line style="fill:none;stroke:#000000;stroke-width:0.7;stroke-linecap:round;" x1="26.27" y1="-1.824" x2="26.27" y2="-1.824"/>

			<line style="fill:none;stroke:#000000;stroke-width:0.7;stroke-linecap:round;" x1="24.474" y1="-1.824" x2="24.474" y2="-1.824"/>

			<line style="fill:none;stroke:#000000;stroke-width:0.7;stroke-linecap:round;" x1="29.855" y1="-1.824" x2="29.855" y2="-1.824"/>
		<line style="fill:none;stroke:#000000;stroke-width:0.7;stroke-linecap:round;" x1="28.06" y1="-1.824" x2="28.06" y2="-1.824"/>

			<line style="fill:none;stroke:#000000;stroke-width:0.7;stroke-linecap:round;" x1="33.446" y1="-1.824" x2="33.446" y2="-1.824"/>
		<line style="fill:none;stroke:#000000;stroke-width:0.7;stroke-linecap:round;" x1="31.65" y1="-1.824" x2="31.65" y2="-1.824"/>

			<line style="fill:none;stroke:#000000;stroke-width:0.7;stroke-linecap:round;" x1="37.042" y1="-1.824" x2="37.042" y2="-1.824"/>

			<line style="fill:none;stroke:#000000;stroke-width:0.7;stroke-linecap:round;" x1="35.247" y1="-1.824" x2="35.247" y2="-1.824"/>

			<line style="fill:none;stroke:#000000;stroke-width:0.7;stroke-linecap:round;" x1="40.634" y1="-1.824" x2="40.634" y2="-1.824"/>

			<line style="fill:none;stroke:#000000;stroke-width:0.7;stroke-linecap:round;" x1="38.838" y1="-1.824" x2="38.838" y2="-1.824"/>

			<line style="fill:none;stroke:#000000;stroke-width:0.7;stroke-linecap:round;" x1="44.225" y1="-1.824" x2="44.225" y2="-1.824"/>

			<line style="fill:none;stroke:#000000;stroke-width:0.7;stroke-linecap:round;" x1="42.429" y1="-1.824" x2="42.429" y2="-1.824"/>

			<line style="fill:none;stroke:#000000;stroke-width:0.7;stroke-linecap:round;" x1="46.021" y1="-1.824" x2="46.021" y2="-1.824"/>
	</g>
</svg>
