<?xml version="1.0"?>
<!-- Converted with SVG Converter - Version 0.9.5 (Compiled Fri Feb 21 09:53:38 2020) - Copyright (C) 2011 Nokia -->
<svg xmlns="http://www.w3.org/2000/svg" baseProfile="tiny" xmlns:xlink="http://www.w3.org/1999/xlink" version="1.1" viewBox="0 -46.75 46.75 46.75" x="0px" width="46.75" height="46.75" y="0px" xml:space="preserve">
 <g>
  <rect style="fill:none;" width="46.75" height="46.75" y="-46.75"/>
  <line x2="0" style="fill:none;stroke:#000000;stroke-width:0.3;" y1="-45.447" x1="5.382" y2="-45.447"/>
  <line x2="20.767" style="fill:none;stroke:#000000;stroke-width:0.3;" y1="-45.447" x1="12.948" y2="-45.447"/>
  <line x2="36.259" style="fill:none;stroke:#000000;stroke-width:0.3;" y1="-45.447" x1="28.44" y2="-45.447"/>
  <line x2="3.768" style="fill:none;stroke:#000000;stroke-width:0.3;" y1="-33.807" x1="0" y2="-33.807"/>
  <line x2="11.335" style="fill:none;stroke:#000000;stroke-width:0.3;" y1="-33.807" x1="19.152" y2="-33.807"/>
  <line x2="34.645" style="fill:none;stroke:#000000;stroke-width:0.3;" y1="-33.807" x1="26.827" y2="-33.807"/>
  <line x2="1.724" style="fill:none;stroke:#000000;stroke-width:0.3;" y1="-22.167" x1="0" y2="-22.167"/>
  <line x2="17.216" style="fill:none;stroke:#000000;stroke-width:0.3;" y1="-22.167" x1="9.398" y2="-22.167"/>
  <line x2="32.708" style="fill:none;stroke:#000000;stroke-width:0.3;" y1="-22.167" x1="24.891" y2="-22.167"/>
  <line x2="0" style="fill:none;stroke:#000000;stroke-width:0.3;" y1="-10.527" x1="5.059" y2="-10.527"/>
  <line x2="12.841" style="fill:none;stroke:#000000;stroke-width:0.3;" y1="-10.527" x1="20.658" y2="-10.527"/>
  <line x2="28.44" style="fill:none;stroke:#000000;stroke-width:0.3;" y1="-10.527" x1="36.259" y2="-10.527"/>
  <line x2="46.75" style="fill:none;stroke:#000000;stroke-width:0.3;" y1="-45.447" x1="44.184" y2="-45.447"/>
  <line x2="46.75" style="fill:none;stroke:#000000;stroke-width:0.3;" y1="-33.807" x1="42.57" y2="-33.807"/>
  <line x2="46.75" style="fill:none;stroke:#000000;stroke-width:0.3;" y1="-22.167" x1="40.526" y2="-22.167"/>
  <line x2="46.75" style="fill:none;stroke:#000000;stroke-width:0.3;" y1="-10.527" x1="43.861" y2="-10.527"/>
  <line x2="36.017" style="fill:none;stroke:#000000;stroke-width:0.3;" y1="-39.644" x1="43.913" y2="-39.644"/>
  <line x2="28.265" style="fill:none;stroke:#000000;stroke-width:0.3;" y1="-39.644" x1="20.367" y2="-39.644"/>
  <line x2="12.507" style="fill:none;stroke:#000000;stroke-width:0.3;" y1="-39.644" x1="4.61" y2="-39.644"/>
  <line x2="42.011" style="fill:none;stroke:#000000;stroke-width:0.3;" y1="-28.004" x1="34.114" y2="-28.004"/>
  <line x2="18.465" style="fill:none;stroke:#000000;stroke-width:0.3;" y1="-28.004" x1="26.362" y2="-28.004"/>
  <line x2="2.6" style="fill:none;stroke:#000000;stroke-width:0.3;" y1="-28.004" x1="10.496" y2="-28.004"/>
  <line x2="42.011" style="fill:none;stroke:#000000;stroke-width:0.3;" y1="-16.364" x1="34.114" y2="-16.364"/>
  <line x2="18.465" style="fill:none;stroke:#000000;stroke-width:0.3;" y1="-16.364" x1="26.362" y2="-16.364"/>
  <line x2="2.816" style="fill:none;stroke:#000000;stroke-width:0.3;" y1="-16.364" x1="10.713" y2="-16.364"/>
  <line x2="35.744" style="fill:none;stroke:#000000;stroke-width:0.3;" y1="-4.844" x1="43.641" y2="-4.844"/>
  <line x2="20.312" style="fill:none;stroke:#000000;stroke-width:0.3;" y1="-4.844" x1="28.209" y2="-4.844"/>
  <line x2="4.556" style="fill:none;stroke:#000000;stroke-width:0.3;" y1="-4.844" x1="12.452" y2="-4.844"/>
  <line x2="24.591" style="fill:none;stroke:#000000;stroke-width:0.7;stroke-linecap:round;" y1="-45.423" x1="24.591" y2="-45.423"/>
  <line x2="26.553" style="fill:none;stroke:#000000;stroke-width:0.7;stroke-linecap:round;" y1="-45.423" x1="26.553" y2="-45.423"/>
  <line x2="22.536" style="fill:none;stroke:#000000;stroke-width:0.7;stroke-linecap:round;" y1="-45.423" x1="22.536" y2="-45.423"/>
  <line x2="9.204" style="fill:none;stroke:#000000;stroke-width:0.7;stroke-linecap:round;" y1="-45.423" x1="9.204" y2="-45.423"/>
  <line x2="11.167" style="fill:none;stroke:#000000;stroke-width:0.7;stroke-linecap:round;" y1="-45.423" x1="11.167" y2="-45.423"/>
  <line x2="7.15" style="fill:none;stroke:#000000;stroke-width:0.7;stroke-linecap:round;" y1="-45.423" x1="7.15" y2="-45.423"/>
  <line x2="40.298" style="fill:none;stroke:#000000;stroke-width:0.7;stroke-linecap:round;" y1="-45.423" x1="40.298" y2="-45.423"/>
  <line x2="42.261" style="fill:none;stroke:#000000;stroke-width:0.7;stroke-linecap:round;" y1="-45.423" x1="42.261" y2="-45.423"/>
  <line x2="38.244" style="fill:none;stroke:#000000;stroke-width:0.7;stroke-linecap:round;" y1="-45.423" x1="38.244" y2="-45.423"/>
  <line x2="23.008" style="fill:none;stroke:#000000;stroke-width:0.7;stroke-linecap:round;" y1="-33.847" x1="23.008" y2="-33.847"/>
  <line x2="24.97" style="fill:none;stroke:#000000;stroke-width:0.7;stroke-linecap:round;" y1="-33.847" x1="24.97" y2="-33.847"/>
  <line x2="20.953" style="fill:none;stroke:#000000;stroke-width:0.7;stroke-linecap:round;" y1="-33.847" x1="20.953" y2="-33.847"/>
  <line x2="7.621" style="fill:none;stroke:#000000;stroke-width:0.7;stroke-linecap:round;" y1="-33.847" x1="7.621" y2="-33.847"/>
  <line x2="9.584" style="fill:none;stroke:#000000;stroke-width:0.7;stroke-linecap:round;" y1="-33.847" x1="9.584" y2="-33.847"/>
  <line x2="5.567" style="fill:none;stroke:#000000;stroke-width:0.7;stroke-linecap:round;" y1="-33.847" x1="5.567" y2="-33.847"/>
  <line x2="38.715" style="fill:none;stroke:#000000;stroke-width:0.7;stroke-linecap:round;" y1="-33.847" x1="38.715" y2="-33.847"/>
  <line x2="40.678" style="fill:none;stroke:#000000;stroke-width:0.7;stroke-linecap:round;" y1="-33.847" x1="40.678" y2="-33.847"/>
  <line x2="36.661" style="fill:none;stroke:#000000;stroke-width:0.7;stroke-linecap:round;" y1="-33.847" x1="36.661" y2="-33.847"/>
  <line x2="20.964" style="fill:none;stroke:#000000;stroke-width:0.7;stroke-linecap:round;" y1="-22.147" x1="20.964" y2="-22.147"/>
  <line x2="22.926" style="fill:none;stroke:#000000;stroke-width:0.7;stroke-linecap:round;" y1="-22.147" x1="22.926" y2="-22.147"/>
  <line x2="18.909" style="fill:none;stroke:#000000;stroke-width:0.7;stroke-linecap:round;" y1="-22.147" x1="18.909" y2="-22.147"/>
  <line x2="5.577" style="fill:none;stroke:#000000;stroke-width:0.7;stroke-linecap:round;" y1="-22.147" x1="5.577" y2="-22.147"/>
  <line x2="7.54" style="fill:none;stroke:#000000;stroke-width:0.7;stroke-linecap:round;" y1="-22.147" x1="7.54" y2="-22.147"/>
  <line x2="3.523" style="fill:none;stroke:#000000;stroke-width:0.7;stroke-linecap:round;" y1="-22.147" x1="3.523" y2="-22.147"/>
  <line x2="36.671" style="fill:none;stroke:#000000;stroke-width:0.7;stroke-linecap:round;" y1="-22.147" x1="36.671" y2="-22.147"/>
  <line x2="38.633" style="fill:none;stroke:#000000;stroke-width:0.7;stroke-linecap:round;" y1="-22.147" x1="38.633" y2="-22.147"/>
  <line x2="34.617" style="fill:none;stroke:#000000;stroke-width:0.7;stroke-linecap:round;" y1="-22.147" x1="34.617" y2="-22.147"/>
  <line x2="24.46" style="fill:none;stroke:#000000;stroke-width:0.7;stroke-linecap:round;" y1="-10.507" x1="24.46" y2="-10.507"/>
  <line x2="26.422" style="fill:none;stroke:#000000;stroke-width:0.7;stroke-linecap:round;" y1="-10.507" x1="26.422" y2="-10.507"/>
  <line x2="22.406" style="fill:none;stroke:#000000;stroke-width:0.7;stroke-linecap:round;" y1="-10.507" x1="22.406" y2="-10.507"/>
  <line x2="9.074" style="fill:none;stroke:#000000;stroke-width:0.7;stroke-linecap:round;" y1="-10.507" x1="9.074" y2="-10.507"/>
  <line x2="11.036" style="fill:none;stroke:#000000;stroke-width:0.7;stroke-linecap:round;" y1="-10.507" x1="11.036" y2="-10.507"/>
  <line x2="7.019" style="fill:none;stroke:#000000;stroke-width:0.7;stroke-linecap:round;" y1="-10.507" x1="7.019" y2="-10.507"/>
  <line x2="40.167" style="fill:none;stroke:#000000;stroke-width:0.7;stroke-linecap:round;" y1="-10.507" x1="40.167" y2="-10.507"/>
  <line x2="42.13" style="fill:none;stroke:#000000;stroke-width:0.7;stroke-linecap:round;" y1="-10.507" x1="42.13" y2="-10.507"/>
  <line x2="38.113" style="fill:none;stroke:#000000;stroke-width:0.7;stroke-linecap:round;" y1="-10.507" x1="38.113" y2="-10.507"/>
  <line x2="16.347" style="fill:none;stroke:#000000;stroke-width:0.7;stroke-linecap:round;" y1="-39.624" x1="16.347" y2="-39.624"/>
  <line x2="18.329" style="fill:none;stroke:#000000;stroke-width:0.7;stroke-linecap:round;" y1="-39.624" x1="18.329" y2="-39.624"/>
  <line x2="14.273" style="fill:none;stroke:#000000;stroke-width:0.7;stroke-linecap:round;" y1="-39.624" x1="14.273" y2="-39.624"/>
  <line x2="0.806" style="fill:none;stroke:#000000;stroke-width:0.7;stroke-linecap:round;" y1="-39.624" x1="0.806" y2="-39.624"/>
  <line x2="2.787" style="fill:none;stroke:#000000;stroke-width:0.7;stroke-linecap:round;" y1="-39.624" x1="2.787" y2="-39.624"/>
  <line x2="32.213" style="fill:none;stroke:#000000;stroke-width:0.7;stroke-linecap:round;" y1="-39.624" x1="32.213" y2="-39.624"/>
  <line x2="34.194" style="fill:none;stroke:#000000;stroke-width:0.7;stroke-linecap:round;" y1="-39.624" x1="34.194" y2="-39.624"/>
  <line x2="30.138" style="fill:none;stroke:#000000;stroke-width:0.7;stroke-linecap:round;" y1="-39.624" x1="30.138" y2="-39.624"/>
  <line x2="45.604" style="fill:none;stroke:#000000;stroke-width:0.7;stroke-linecap:round;" y1="-39.624" x1="45.604" y2="-39.624"/>
  <line x2="14.39" style="fill:none;stroke:#000000;stroke-width:0.7;stroke-linecap:round;" y1="-28.044" x1="14.39" y2="-28.044"/>
  <line x2="16.372" style="fill:none;stroke:#000000;stroke-width:0.7;stroke-linecap:round;" y1="-28.044" x1="16.372" y2="-28.044"/>
  <line x2="12.315" style="fill:none;stroke:#000000;stroke-width:0.7;stroke-linecap:round;" y1="-28.044" x1="12.315" y2="-28.044"/>
  <line x2="30.256" style="fill:none;stroke:#000000;stroke-width:0.7;stroke-linecap:round;" y1="-28.044" x1="30.256" y2="-28.044"/>
  <line x2="32.238" style="fill:none;stroke:#000000;stroke-width:0.7;stroke-linecap:round;" y1="-28.044" x1="32.238" y2="-28.044"/>
  <line x2="28.182" style="fill:none;stroke:#000000;stroke-width:0.7;stroke-linecap:round;" y1="-28.044" x1="28.182" y2="-28.044"/>
  <line x2="45.722" style="fill:none;stroke:#000000;stroke-width:0.7;stroke-linecap:round;" y1="-28.044" x1="45.722" y2="-28.044"/>
  <line x2="43.647" style="fill:none;stroke:#000000;stroke-width:0.7;stroke-linecap:round;" y1="-28.044" x1="43.647" y2="-28.044"/>
  <line x2="14.444" style="fill:none;stroke:#000000;stroke-width:0.7;stroke-linecap:round;" y1="-16.344" x1="14.444" y2="-16.344"/>
  <line x2="16.427" style="fill:none;stroke:#000000;stroke-width:0.7;stroke-linecap:round;" y1="-16.344" x1="16.427" y2="-16.344"/>
  <line x2="12.37" style="fill:none;stroke:#000000;stroke-width:0.7;stroke-linecap:round;" y1="-16.344" x1="12.37" y2="-16.344"/>
  <line x2="0.885" style="fill:none;stroke:#000000;stroke-width:0.7;stroke-linecap:round;" y1="-16.344" x1="0.885" y2="-16.344"/>
  <line x2="30.31" style="fill:none;stroke:#000000;stroke-width:0.7;stroke-linecap:round;" y1="-16.344" x1="30.31" y2="-16.344"/>
  <line x2="32.292" style="fill:none;stroke:#000000;stroke-width:0.7;stroke-linecap:round;" y1="-16.344" x1="32.292" y2="-16.344"/>
  <line x2="28.235" style="fill:none;stroke:#000000;stroke-width:0.7;stroke-linecap:round;" y1="-16.344" x1="28.235" y2="-16.344"/>
  <line x2="45.776" style="fill:none;stroke:#000000;stroke-width:0.7;stroke-linecap:round;" y1="-16.344" x1="45.776" y2="-16.344"/>
  <line x2="43.701" style="fill:none;stroke:#000000;stroke-width:0.7;stroke-linecap:round;" y1="-16.344" x1="43.701" y2="-16.344"/>
  <line x2="16.237" style="fill:none;stroke:#000000;stroke-width:0.7;stroke-linecap:round;" y1="-4.824" x1="16.237" y2="-4.824"/>
  <line x2="18.22" style="fill:none;stroke:#000000;stroke-width:0.7;stroke-linecap:round;" y1="-4.824" x1="18.22" y2="-4.824"/>
  <line x2="14.163" style="fill:none;stroke:#000000;stroke-width:0.7;stroke-linecap:round;" y1="-4.824" x1="14.163" y2="-4.824"/>
  <line x2="0.696" style="fill:none;stroke:#000000;stroke-width:0.7;stroke-linecap:round;" y1="-4.824" x1="0.696" y2="-4.824"/>
  <line x2="2.678" style="fill:none;stroke:#000000;stroke-width:0.7;stroke-linecap:round;" y1="-4.824" x1="2.678" y2="-4.824"/>
  <line x2="32.104" style="fill:none;stroke:#000000;stroke-width:0.7;stroke-linecap:round;" y1="-4.824" x1="32.104" y2="-4.824"/>
  <line x2="34.086" style="fill:none;stroke:#000000;stroke-width:0.7;stroke-linecap:round;" y1="-4.824" x1="34.086" y2="-4.824"/>
  <line x2="30.028" style="fill:none;stroke:#000000;stroke-width:0.7;stroke-linecap:round;" y1="-4.824" x1="30.028" y2="-4.824"/>
  <line x2="45.495" style="fill:none;stroke:#000000;stroke-width:0.7;stroke-linecap:round;" y1="-4.824" x1="45.495" y2="-4.824"/>
  <line x2="1.121" style="fill:none;stroke:#000000;stroke-width:0.7;stroke-linecap:round;" y1="-42.499" x1="1.121" y2="-42.499"/>
  <line x2="4.713" style="fill:none;stroke:#000000;stroke-width:0.7;stroke-linecap:round;" y1="-42.499" x1="4.713" y2="-42.499"/>
  <line x2="2.917" style="fill:none;stroke:#000000;stroke-width:0.7;stroke-linecap:round;" y1="-42.499" x1="2.917" y2="-42.499"/>
  <line x2="8.309" style="fill:none;stroke:#000000;stroke-width:0.7;stroke-linecap:round;" y1="-42.499" x1="8.309" y2="-42.499"/>
  <line x2="6.514" style="fill:none;stroke:#000000;stroke-width:0.7;stroke-linecap:round;" y1="-42.499" x1="6.514" y2="-42.499"/>
  <line x2="11.899" style="fill:none;stroke:#000000;stroke-width:0.7;stroke-linecap:round;" y1="-42.499" x1="11.899" y2="-42.499"/>
  <line x2="10.104" style="fill:none;stroke:#000000;stroke-width:0.7;stroke-linecap:round;" y1="-42.499" x1="10.104" y2="-42.499"/>
  <line x2="15.491" style="fill:none;stroke:#000000;stroke-width:0.7;stroke-linecap:round;" y1="-42.499" x1="15.491" y2="-42.499"/>
  <line x2="13.695" style="fill:none;stroke:#000000;stroke-width:0.7;stroke-linecap:round;" y1="-42.499" x1="13.695" y2="-42.499"/>
  <line x2="19.082" style="fill:none;stroke:#000000;stroke-width:0.7;stroke-linecap:round;" y1="-42.499" x1="19.082" y2="-42.499"/>
  <line x2="17.286" style="fill:none;stroke:#000000;stroke-width:0.7;stroke-linecap:round;" y1="-42.499" x1="17.286" y2="-42.499"/>
  <line x2="22.679" style="fill:none;stroke:#000000;stroke-width:0.7;stroke-linecap:round;" y1="-42.499" x1="22.679" y2="-42.499"/>
  <line x2="20.883" style="fill:none;stroke:#000000;stroke-width:0.7;stroke-linecap:round;" y1="-42.499" x1="20.883" y2="-42.499"/>
  <line x2="26.27" style="fill:none;stroke:#000000;stroke-width:0.7;stroke-linecap:round;" y1="-42.499" x1="26.27" y2="-42.499"/>
  <line x2="24.474" style="fill:none;stroke:#000000;stroke-width:0.7;stroke-linecap:round;" y1="-42.499" x1="24.474" y2="-42.499"/>
  <line x2="29.855" style="fill:none;stroke:#000000;stroke-width:0.7;stroke-linecap:round;" y1="-42.499" x1="29.855" y2="-42.499"/>
  <line x2="28.06" style="fill:none;stroke:#000000;stroke-width:0.7;stroke-linecap:round;" y1="-42.499" x1="28.06" y2="-42.499"/>
  <line x2="33.446" style="fill:none;stroke:#000000;stroke-width:0.7;stroke-linecap:round;" y1="-42.499" x1="33.446" y2="-42.499"/>
  <line x2="31.65" style="fill:none;stroke:#000000;stroke-width:0.7;stroke-linecap:round;" y1="-42.499" x1="31.65" y2="-42.499"/>
  <line x2="37.042" style="fill:none;stroke:#000000;stroke-width:0.7;stroke-linecap:round;" y1="-42.499" x1="37.042" y2="-42.499"/>
  <line x2="35.247" style="fill:none;stroke:#000000;stroke-width:0.7;stroke-linecap:round;" y1="-42.499" x1="35.247" y2="-42.499"/>
  <line x2="40.634" style="fill:none;stroke:#000000;stroke-width:0.7;stroke-linecap:round;" y1="-42.499" x1="40.634" y2="-42.499"/>
  <line x2="38.838" style="fill:none;stroke:#000000;stroke-width:0.7;stroke-linecap:round;" y1="-42.499" x1="38.838" y2="-42.499"/>
  <line x2="44.225" style="fill:none;stroke:#000000;stroke-width:0.7;stroke-linecap:round;" y1="-42.499" x1="44.225" y2="-42.499"/>
  <line x2="42.429" style="fill:none;stroke:#000000;stroke-width:0.7;stroke-linecap:round;" y1="-42.499" x1="42.429" y2="-42.499"/>
  <line x2="46.021" style="fill:none;stroke:#000000;stroke-width:0.7;stroke-linecap:round;" y1="-42.499" x1="46.021" y2="-42.499"/>
  <line x2="1.121" style="fill:none;stroke:#000000;stroke-width:0.7;stroke-linecap:round;" y1="-36.624" x1="1.121" y2="-36.624"/>
  <line x2="4.713" style="fill:none;stroke:#000000;stroke-width:0.7;stroke-linecap:round;" y1="-36.624" x1="4.713" y2="-36.624"/>
  <line x2="2.917" style="fill:none;stroke:#000000;stroke-width:0.7;stroke-linecap:round;" y1="-36.624" x1="2.917" y2="-36.624"/>
  <line x2="8.309" style="fill:none;stroke:#000000;stroke-width:0.7;stroke-linecap:round;" y1="-36.624" x1="8.309" y2="-36.624"/>
  <line x2="6.514" style="fill:none;stroke:#000000;stroke-width:0.7;stroke-linecap:round;" y1="-36.624" x1="6.514" y2="-36.624"/>
  <line x2="11.899" style="fill:none;stroke:#000000;stroke-width:0.7;stroke-linecap:round;" y1="-36.624" x1="11.899" y2="-36.624"/>
  <line x2="10.104" style="fill:none;stroke:#000000;stroke-width:0.7;stroke-linecap:round;" y1="-36.624" x1="10.104" y2="-36.624"/>
  <line x2="15.491" style="fill:none;stroke:#000000;stroke-width:0.7;stroke-linecap:round;" y1="-36.624" x1="15.491" y2="-36.624"/>
  <line x2="13.695" style="fill:none;stroke:#000000;stroke-width:0.7;stroke-linecap:round;" y1="-36.624" x1="13.695" y2="-36.624"/>
  <line x2="19.082" style="fill:none;stroke:#000000;stroke-width:0.7;stroke-linecap:round;" y1="-36.624" x1="19.082" y2="-36.624"/>
  <line x2="17.286" style="fill:none;stroke:#000000;stroke-width:0.7;stroke-linecap:round;" y1="-36.624" x1="17.286" y2="-36.624"/>
  <line x2="22.679" style="fill:none;stroke:#000000;stroke-width:0.7;stroke-linecap:round;" y1="-36.624" x1="22.679" y2="-36.624"/>
  <line x2="20.883" style="fill:none;stroke:#000000;stroke-width:0.7;stroke-linecap:round;" y1="-36.624" x1="20.883" y2="-36.624"/>
  <line x2="26.27" style="fill:none;stroke:#000000;stroke-width:0.7;stroke-linecap:round;" y1="-36.624" x1="26.27" y2="-36.624"/>
  <line x2="24.474" style="fill:none;stroke:#000000;stroke-width:0.7;stroke-linecap:round;" y1="-36.624" x1="24.474" y2="-36.624"/>
  <line x2="29.855" style="fill:none;stroke:#000000;stroke-width:0.7;stroke-linecap:round;" y1="-36.624" x1="29.855" y2="-36.624"/>
  <line x2="28.06" style="fill:none;stroke:#000000;stroke-width:0.7;stroke-linecap:round;" y1="-36.624" x1="28.06" y2="-36.624"/>
  <line x2="33.446" style="fill:none;stroke:#000000;stroke-width:0.7;stroke-linecap:round;" y1="-36.624" x1="33.446" y2="-36.624"/>
  <line x2="31.65" style="fill:none;stroke:#000000;stroke-width:0.7;stroke-linecap:round;" y1="-36.624" x1="31.65" y2="-36.624"/>
  <line x2="37.042" style="fill:none;stroke:#000000;stroke-width:0.7;stroke-linecap:round;" y1="-36.624" x1="37.042" y2="-36.624"/>
  <line x2="35.247" style="fill:none;stroke:#000000;stroke-width:0.7;stroke-linecap:round;" y1="-36.624" x1="35.247" y2="-36.624"/>
  <line x2="40.634" style="fill:none;stroke:#000000;stroke-width:0.7;stroke-linecap:round;" y1="-36.624" x1="40.634" y2="-36.624"/>
  <line x2="38.838" style="fill:none;stroke:#000000;stroke-width:0.7;stroke-linecap:round;" y1="-36.624" x1="38.838" y2="-36.624"/>
  <line x2="44.225" style="fill:none;stroke:#000000;stroke-width:0.7;stroke-linecap:round;" y1="-36.624" x1="44.225" y2="-36.624"/>
  <line x2="42.429" style="fill:none;stroke:#000000;stroke-width:0.7;stroke-linecap:round;" y1="-36.624" x1="42.429" y2="-36.624"/>
  <line x2="46.021" style="fill:none;stroke:#000000;stroke-width:0.7;stroke-linecap:round;" y1="-36.624" x1="46.021" y2="-36.624"/>
  <line x2="1.121" style="fill:none;stroke:#000000;stroke-width:0.7;stroke-linecap:round;" y1="-30.929" x1="1.121" y2="-30.929"/>
  <line x2="4.713" style="fill:none;stroke:#000000;stroke-width:0.7;stroke-linecap:round;" y1="-30.929" x1="4.713" y2="-30.929"/>
  <line x2="2.917" style="fill:none;stroke:#000000;stroke-width:0.7;stroke-linecap:round;" y1="-30.929" x1="2.917" y2="-30.929"/>
  <line x2="8.309" style="fill:none;stroke:#000000;stroke-width:0.7;stroke-linecap:round;" y1="-30.929" x1="8.309" y2="-30.929"/>
  <line x2="6.514" style="fill:none;stroke:#000000;stroke-width:0.7;stroke-linecap:round;" y1="-30.929" x1="6.514" y2="-30.929"/>
  <line x2="11.899" style="fill:none;stroke:#000000;stroke-width:0.7;stroke-linecap:round;" y1="-30.929" x1="11.899" y2="-30.929"/>
  <line x2="10.104" style="fill:none;stroke:#000000;stroke-width:0.7;stroke-linecap:round;" y1="-30.929" x1="10.104" y2="-30.929"/>
  <line x2="15.491" style="fill:none;stroke:#000000;stroke-width:0.7;stroke-linecap:round;" y1="-30.929" x1="15.491" y2="-30.929"/>
  <line x2="13.695" style="fill:none;stroke:#000000;stroke-width:0.7;stroke-linecap:round;" y1="-30.929" x1="13.695" y2="-30.929"/>
  <line x2="19.082" style="fill:none;stroke:#000000;stroke-width:0.7;stroke-linecap:round;" y1="-30.929" x1="19.082" y2="-30.929"/>
  <line x2="17.286" style="fill:none;stroke:#000000;stroke-width:0.7;stroke-linecap:round;" y1="-30.929" x1="17.286" y2="-30.929"/>
  <line x2="22.679" style="fill:none;stroke:#000000;stroke-width:0.7;stroke-linecap:round;" y1="-30.929" x1="22.679" y2="-30.929"/>
  <line x2="20.883" style="fill:none;stroke:#000000;stroke-width:0.7;stroke-linecap:round;" y1="-30.929" x1="20.883" y2="-30.929"/>
  <line x2="26.27" style="fill:none;stroke:#000000;stroke-width:0.7;stroke-linecap:round;" y1="-30.929" x1="26.27" y2="-30.929"/>
  <line x2="24.474" style="fill:none;stroke:#000000;stroke-width:0.7;stroke-linecap:round;" y1="-30.929" x1="24.474" y2="-30.929"/>
  <line x2="29.855" style="fill:none;stroke:#000000;stroke-width:0.7;stroke-linecap:round;" y1="-30.929" x1="29.855" y2="-30.929"/>
  <line x2="28.06" style="fill:none;stroke:#000000;stroke-width:0.7;stroke-linecap:round;" y1="-30.929" x1="28.06" y2="-30.929"/>
  <line x2="33.446" style="fill:none;stroke:#000000;stroke-width:0.7;stroke-linecap:round;" y1="-30.929" x1="33.446" y2="-30.929"/>
  <line x2="31.65" style="fill:none;stroke:#000000;stroke-width:0.7;stroke-linecap:round;" y1="-30.929" x1="31.65" y2="-30.929"/>
  <line x2="37.042" style="fill:none;stroke:#000000;stroke-width:0.7;stroke-linecap:round;" y1="-30.929" x1="37.042" y2="-30.929"/>
  <line x2="35.247" style="fill:none;stroke:#000000;stroke-width:0.7;stroke-linecap:round;" y1="-30.929" x1="35.247" y2="-30.929"/>
  <line x2="40.634" style="fill:none;stroke:#000000;stroke-width:0.7;stroke-linecap:round;" y1="-30.929" x1="40.634" y2="-30.929"/>
  <line x2="38.838" style="fill:none;stroke:#000000;stroke-width:0.7;stroke-linecap:round;" y1="-30.929" x1="38.838" y2="-30.929"/>
  <line x2="44.225" style="fill:none;stroke:#000000;stroke-width:0.7;stroke-linecap:round;" y1="-30.929" x1="44.225" y2="-30.929"/>
  <line x2="42.429" style="fill:none;stroke:#000000;stroke-width:0.7;stroke-linecap:round;" y1="-30.929" x1="42.429" y2="-30.929"/>
  <line x2="46.021" style="fill:none;stroke:#000000;stroke-width:0.7;stroke-linecap:round;" y1="-30.929" x1="46.021" y2="-30.929"/>
  <line x2="1.121" style="fill:none;stroke:#000000;stroke-width:0.7;stroke-linecap:round;" y1="-25.044" x1="1.121" y2="-25.044"/>
  <line x2="4.713" style="fill:none;stroke:#000000;stroke-width:0.7;stroke-linecap:round;" y1="-25.044" x1="4.713" y2="-25.044"/>
  <line x2="2.917" style="fill:none;stroke:#000000;stroke-width:0.7;stroke-linecap:round;" y1="-25.044" x1="2.917" y2="-25.044"/>
  <line x2="8.309" style="fill:none;stroke:#000000;stroke-width:0.7;stroke-linecap:round;" y1="-25.044" x1="8.309" y2="-25.044"/>
  <line x2="6.514" style="fill:none;stroke:#000000;stroke-width:0.7;stroke-linecap:round;" y1="-25.044" x1="6.514" y2="-25.044"/>
  <line x2="11.899" style="fill:none;stroke:#000000;stroke-width:0.7;stroke-linecap:round;" y1="-25.044" x1="11.899" y2="-25.044"/>
  <line x2="10.104" style="fill:none;stroke:#000000;stroke-width:0.7;stroke-linecap:round;" y1="-25.044" x1="10.104" y2="-25.044"/>
  <line x2="15.491" style="fill:none;stroke:#000000;stroke-width:0.7;stroke-linecap:round;" y1="-25.044" x1="15.491" y2="-25.044"/>
  <line x2="13.695" style="fill:none;stroke:#000000;stroke-width:0.7;stroke-linecap:round;" y1="-25.044" x1="13.695" y2="-25.044"/>
  <line x2="19.082" style="fill:none;stroke:#000000;stroke-width:0.7;stroke-linecap:round;" y1="-25.044" x1="19.082" y2="-25.044"/>
  <line x2="17.286" style="fill:none;stroke:#000000;stroke-width:0.7;stroke-linecap:round;" y1="-25.044" x1="17.286" y2="-25.044"/>
  <line x2="22.679" style="fill:none;stroke:#000000;stroke-width:0.7;stroke-linecap:round;" y1="-25.044" x1="22.679" y2="-25.044"/>
  <line x2="20.883" style="fill:none;stroke:#000000;stroke-width:0.7;stroke-linecap:round;" y1="-25.044" x1="20.883" y2="-25.044"/>
  <line x2="26.27" style="fill:none;stroke:#000000;stroke-width:0.7;stroke-linecap:round;" y1="-25.044" x1="26.27" y2="-25.044"/>
  <line x2="24.474" style="fill:none;stroke:#000000;stroke-width:0.7;stroke-linecap:round;" y1="-25.044" x1="24.474" y2="-25.044"/>
  <line x2="29.855" style="fill:none;stroke:#000000;stroke-width:0.7;stroke-linecap:round;" y1="-25.044" x1="29.855" y2="-25.044"/>
  <line x2="28.06" style="fill:none;stroke:#000000;stroke-width:0.7;stroke-linecap:round;" y1="-25.044" x1="28.06" y2="-25.044"/>
  <line x2="33.446" style="fill:none;stroke:#000000;stroke-width:0.7;stroke-linecap:round;" y1="-25.044" x1="33.446" y2="-25.044"/>
  <line x2="31.65" style="fill:none;stroke:#000000;stroke-width:0.7;stroke-linecap:round;" y1="-25.044" x1="31.65" y2="-25.044"/>
  <line x2="37.042" style="fill:none;stroke:#000000;stroke-width:0.7;stroke-linecap:round;" y1="-25.044" x1="37.042" y2="-25.044"/>
  <line x2="35.247" style="fill:none;stroke:#000000;stroke-width:0.7;stroke-linecap:round;" y1="-25.044" x1="35.247" y2="-25.044"/>
  <line x2="40.634" style="fill:none;stroke:#000000;stroke-width:0.7;stroke-linecap:round;" y1="-25.044" x1="40.634" y2="-25.044"/>
  <line x2="38.838" style="fill:none;stroke:#000000;stroke-width:0.7;stroke-linecap:round;" y1="-25.044" x1="38.838" y2="-25.044"/>
  <line x2="44.225" style="fill:none;stroke:#000000;stroke-width:0.7;stroke-linecap:round;" y1="-25.044" x1="44.225" y2="-25.044"/>
  <line x2="42.429" style="fill:none;stroke:#000000;stroke-width:0.7;stroke-linecap:round;" y1="-25.044" x1="42.429" y2="-25.044"/>
  <line x2="46.021" style="fill:none;stroke:#000000;stroke-width:0.7;stroke-linecap:round;" y1="-25.044" x1="46.021" y2="-25.044"/>
  <line x2="1.121" style="fill:none;stroke:#000000;stroke-width:0.7;stroke-linecap:round;" y1="-19.224" x1="1.121" y2="-19.224"/>
  <line x2="4.713" style="fill:none;stroke:#000000;stroke-width:0.7;stroke-linecap:round;" y1="-19.224" x1="4.713" y2="-19.224"/>
  <line x2="2.917" style="fill:none;stroke:#000000;stroke-width:0.7;stroke-linecap:round;" y1="-19.224" x1="2.917" y2="-19.224"/>
  <line x2="8.309" style="fill:none;stroke:#000000;stroke-width:0.7;stroke-linecap:round;" y1="-19.224" x1="8.309" y2="-19.224"/>
  <line x2="6.514" style="fill:none;stroke:#000000;stroke-width:0.7;stroke-linecap:round;" y1="-19.224" x1="6.514" y2="-19.224"/>
  <line x2="11.899" style="fill:none;stroke:#000000;stroke-width:0.7;stroke-linecap:round;" y1="-19.224" x1="11.899" y2="-19.224"/>
  <line x2="10.104" style="fill:none;stroke:#000000;stroke-width:0.7;stroke-linecap:round;" y1="-19.224" x1="10.104" y2="-19.224"/>
  <line x2="15.491" style="fill:none;stroke:#000000;stroke-width:0.7;stroke-linecap:round;" y1="-19.224" x1="15.491" y2="-19.224"/>
  <line x2="13.695" style="fill:none;stroke:#000000;stroke-width:0.7;stroke-linecap:round;" y1="-19.224" x1="13.695" y2="-19.224"/>
  <line x2="19.082" style="fill:none;stroke:#000000;stroke-width:0.7;stroke-linecap:round;" y1="-19.224" x1="19.082" y2="-19.224"/>
  <line x2="17.286" style="fill:none;stroke:#000000;stroke-width:0.7;stroke-linecap:round;" y1="-19.224" x1="17.286" y2="-19.224"/>
  <line x2="22.679" style="fill:none;stroke:#000000;stroke-width:0.7;stroke-linecap:round;" y1="-19.224" x1="22.679" y2="-19.224"/>
  <line x2="20.883" style="fill:none;stroke:#000000;stroke-width:0.7;stroke-linecap:round;" y1="-19.224" x1="20.883" y2="-19.224"/>
  <line x2="26.27" style="fill:none;stroke:#000000;stroke-width:0.7;stroke-linecap:round;" y1="-19.224" x1="26.27" y2="-19.224"/>
  <line x2="24.474" style="fill:none;stroke:#000000;stroke-width:0.7;stroke-linecap:round;" y1="-19.224" x1="24.474" y2="-19.224"/>
  <line x2="29.855" style="fill:none;stroke:#000000;stroke-width:0.7;stroke-linecap:round;" y1="-19.224" x1="29.855" y2="-19.224"/>
  <line x2="28.06" style="fill:none;stroke:#000000;stroke-width:0.7;stroke-linecap:round;" y1="-19.224" x1="28.06" y2="-19.224"/>
  <line x2="33.446" style="fill:none;stroke:#000000;stroke-width:0.7;stroke-linecap:round;" y1="-19.224" x1="33.446" y2="-19.224"/>
  <line x2="31.65" style="fill:none;stroke:#000000;stroke-width:0.7;stroke-linecap:round;" y1="-19.224" x1="31.65" y2="-19.224"/>
  <line x2="37.042" style="fill:none;stroke:#000000;stroke-width:0.7;stroke-linecap:round;" y1="-19.224" x1="37.042" y2="-19.224"/>
  <line x2="35.247" style="fill:none;stroke:#000000;stroke-width:0.7;stroke-linecap:round;" y1="-19.224" x1="35.247" y2="-19.224"/>
  <line x2="40.634" style="fill:none;stroke:#000000;stroke-width:0.7;stroke-linecap:round;" y1="-19.224" x1="40.634" y2="-19.224"/>
  <line x2="38.838" style="fill:none;stroke:#000000;stroke-width:0.7;stroke-linecap:round;" y1="-19.224" x1="38.838" y2="-19.224"/>
  <line x2="44.225" style="fill:none;stroke:#000000;stroke-width:0.7;stroke-linecap:round;" y1="-19.224" x1="44.225" y2="-19.224"/>
  <line x2="42.429" style="fill:none;stroke:#000000;stroke-width:0.7;stroke-linecap:round;" y1="-19.224" x1="42.429" y2="-19.224"/>
  <line x2="46.021" style="fill:none;stroke:#000000;stroke-width:0.7;stroke-linecap:round;" y1="-19.224" x1="46.021" y2="-19.224"/>
  <line x2="1.121" style="fill:none;stroke:#000000;stroke-width:0.7;stroke-linecap:round;" y1="-13.464" x1="1.121" y2="-13.464"/>
  <line x2="4.713" style="fill:none;stroke:#000000;stroke-width:0.7;stroke-linecap:round;" y1="-13.464" x1="4.713" y2="-13.464"/>
  <line x2="2.917" style="fill:none;stroke:#000000;stroke-width:0.7;stroke-linecap:round;" y1="-13.464" x1="2.917" y2="-13.464"/>
  <line x2="8.309" style="fill:none;stroke:#000000;stroke-width:0.7;stroke-linecap:round;" y1="-13.464" x1="8.309" y2="-13.464"/>
  <line x2="6.514" style="fill:none;stroke:#000000;stroke-width:0.7;stroke-linecap:round;" y1="-13.464" x1="6.514" y2="-13.464"/>
  <line x2="11.899" style="fill:none;stroke:#000000;stroke-width:0.7;stroke-linecap:round;" y1="-13.464" x1="11.899" y2="-13.464"/>
  <line x2="10.104" style="fill:none;stroke:#000000;stroke-width:0.7;stroke-linecap:round;" y1="-13.464" x1="10.104" y2="-13.464"/>
  <line x2="15.491" style="fill:none;stroke:#000000;stroke-width:0.7;stroke-linecap:round;" y1="-13.464" x1="15.491" y2="-13.464"/>
  <line x2="13.695" style="fill:none;stroke:#000000;stroke-width:0.7;stroke-linecap:round;" y1="-13.464" x1="13.695" y2="-13.464"/>
  <line x2="19.082" style="fill:none;stroke:#000000;stroke-width:0.7;stroke-linecap:round;" y1="-13.464" x1="19.082" y2="-13.464"/>
  <line x2="17.286" style="fill:none;stroke:#000000;stroke-width:0.7;stroke-linecap:round;" y1="-13.464" x1="17.286" y2="-13.464"/>
  <line x2="22.679" style="fill:none;stroke:#000000;stroke-width:0.7;stroke-linecap:round;" y1="-13.464" x1="22.679" y2="-13.464"/>
  <line x2="20.883" style="fill:none;stroke:#000000;stroke-width:0.7;stroke-linecap:round;" y1="-13.464" x1="20.883" y2="-13.464"/>
  <line x2="26.27" style="fill:none;stroke:#000000;stroke-width:0.7;stroke-linecap:round;" y1="-13.464" x1="26.27" y2="-13.464"/>
  <line x2="24.474" style="fill:none;stroke:#000000;stroke-width:0.7;stroke-linecap:round;" y1="-13.464" x1="24.474" y2="-13.464"/>
  <line x2="29.855" style="fill:none;stroke:#000000;stroke-width:0.7;stroke-linecap:round;" y1="-13.464" x1="29.855" y2="-13.464"/>
  <line x2="28.06" style="fill:none;stroke:#000000;stroke-width:0.7;stroke-linecap:round;" y1="-13.464" x1="28.06" y2="-13.464"/>
  <line x2="33.446" style="fill:none;stroke:#000000;stroke-width:0.7;stroke-linecap:round;" y1="-13.464" x1="33.446" y2="-13.464"/>
  <line x2="31.65" style="fill:none;stroke:#000000;stroke-width:0.7;stroke-linecap:round;" y1="-13.464" x1="31.65" y2="-13.464"/>
  <line x2="37.042" style="fill:none;stroke:#000000;stroke-width:0.7;stroke-linecap:round;" y1="-13.464" x1="37.042" y2="-13.464"/>
  <line x2="35.247" style="fill:none;stroke:#000000;stroke-width:0.7;stroke-linecap:round;" y1="-13.464" x1="35.247" y2="-13.464"/>
  <line x2="40.634" style="fill:none;stroke:#000000;stroke-width:0.7;stroke-linecap:round;" y1="-13.464" x1="40.634" y2="-13.464"/>
  <line x2="38.838" style="fill:none;stroke:#000000;stroke-width:0.7;stroke-linecap:round;" y1="-13.464" x1="38.838" y2="-13.464"/>
  <line x2="44.225" style="fill:none;stroke:#000000;stroke-width:0.7;stroke-linecap:round;" y1="-13.464" x1="44.225" y2="-13.464"/>
  <line x2="42.429" style="fill:none;stroke:#000000;stroke-width:0.7;stroke-linecap:round;" y1="-13.464" x1="42.429" y2="-13.464"/>
  <line x2="46.021" style="fill:none;stroke:#000000;stroke-width:0.7;stroke-linecap:round;" y1="-13.464" x1="46.021" y2="-13.464"/>
  <line x2="1.121" style="fill:none;stroke:#000000;stroke-width:0.7;stroke-linecap:round;" y1="-7.583" x1="1.121" y2="-7.583"/>
  <line x2="4.713" style="fill:none;stroke:#000000;stroke-width:0.7;stroke-linecap:round;" y1="-7.583" x1="4.713" y2="-7.583"/>
  <line x2="2.917" style="fill:none;stroke:#000000;stroke-width:0.7;stroke-linecap:round;" y1="-7.583" x1="2.917" y2="-7.583"/>
  <line x2="8.309" style="fill:none;stroke:#000000;stroke-width:0.7;stroke-linecap:round;" y1="-7.583" x1="8.309" y2="-7.583"/>
  <line x2="6.514" style="fill:none;stroke:#000000;stroke-width:0.7;stroke-linecap:round;" y1="-7.583" x1="6.514" y2="-7.583"/>
  <line x2="11.899" style="fill:none;stroke:#000000;stroke-width:0.7;stroke-linecap:round;" y1="-7.583" x1="11.899" y2="-7.583"/>
  <line x2="10.104" style="fill:none;stroke:#000000;stroke-width:0.7;stroke-linecap:round;" y1="-7.583" x1="10.104" y2="-7.583"/>
  <line x2="15.491" style="fill:none;stroke:#000000;stroke-width:0.7;stroke-linecap:round;" y1="-7.583" x1="15.491" y2="-7.583"/>
  <line x2="13.695" style="fill:none;stroke:#000000;stroke-width:0.7;stroke-linecap:round;" y1="-7.583" x1="13.695" y2="-7.583"/>
  <line x2="19.082" style="fill:none;stroke:#000000;stroke-width:0.7;stroke-linecap:round;" y1="-7.583" x1="19.082" y2="-7.583"/>
  <line x2="17.286" style="fill:none;stroke:#000000;stroke-width:0.7;stroke-linecap:round;" y1="-7.583" x1="17.286" y2="-7.583"/>
  <line x2="22.679" style="fill:none;stroke:#000000;stroke-width:0.7;stroke-linecap:round;" y1="-7.583" x1="22.679" y2="-7.583"/>
  <line x2="20.883" style="fill:none;stroke:#000000;stroke-width:0.7;stroke-linecap:round;" y1="-7.583" x1="20.883" y2="-7.583"/>
  <line x2="26.27" style="fill:none;stroke:#000000;stroke-width:0.7;stroke-linecap:round;" y1="-7.583" x1="26.27" y2="-7.583"/>
  <line x2="24.474" style="fill:none;stroke:#000000;stroke-width:0.7;stroke-linecap:round;" y1="-7.583" x1="24.474" y2="-7.583"/>
  <line x2="29.855" style="fill:none;stroke:#000000;stroke-width:0.7;stroke-linecap:round;" y1="-7.583" x1="29.855" y2="-7.583"/>
  <line x2="28.06" style="fill:none;stroke:#000000;stroke-width:0.7;stroke-linecap:round;" y1="-7.583" x1="28.06" y2="-7.583"/>
  <line x2="33.446" style="fill:none;stroke:#000000;stroke-width:0.7;stroke-linecap:round;" y1="-7.583" x1="33.446" y2="-7.583"/>
  <line x2="31.65" style="fill:none;stroke:#000000;stroke-width:0.7;stroke-linecap:round;" y1="-7.583" x1="31.65" y2="-7.583"/>
  <line x2="37.042" style="fill:none;stroke:#000000;stroke-width:0.7;stroke-linecap:round;" y1="-7.583" x1="37.042" y2="-7.583"/>
  <line x2="35.247" style="fill:none;stroke:#000000;stroke-width:0.7;stroke-linecap:round;" y1="-7.583" x1="35.247" y2="-7.583"/>
  <line x2="40.634" style="fill:none;stroke:#000000;stroke-width:0.7;stroke-linecap:round;" y1="-7.583" x1="40.634" y2="-7.583"/>
  <line x2="38.838" style="fill:none;stroke:#000000;stroke-width:0.7;stroke-linecap:round;" y1="-7.583" x1="38.838" y2="-7.583"/>
  <line x2="44.225" style="fill:none;stroke:#000000;stroke-width:0.7;stroke-linecap:round;" y1="-7.583" x1="44.225" y2="-7.583"/>
  <line x2="42.429" style="fill:none;stroke:#000000;stroke-width:0.7;stroke-linecap:round;" y1="-7.583" x1="42.429" y2="-7.583"/>
  <line x2="46.021" style="fill:none;stroke:#000000;stroke-width:0.7;stroke-linecap:round;" y1="-7.583" x1="46.021" y2="-7.583"/>
  <line x2="1.121" style="fill:none;stroke:#000000;stroke-width:0.7;stroke-linecap:round;" y1="-1.824" x1="1.121" y2="-1.824"/>
  <line x2="4.713" style="fill:none;stroke:#000000;stroke-width:0.7;stroke-linecap:round;" y1="-1.824" x1="4.713" y2="-1.824"/>
  <line x2="2.917" style="fill:none;stroke:#000000;stroke-width:0.7;stroke-linecap:round;" y1="-1.824" x1="2.917" y2="-1.824"/>
  <line x2="8.309" style="fill:none;stroke:#000000;stroke-width:0.7;stroke-linecap:round;" y1="-1.824" x1="8.309" y2="-1.824"/>
  <line x2="6.514" style="fill:none;stroke:#000000;stroke-width:0.7;stroke-linecap:round;" y1="-1.824" x1="6.514" y2="-1.824"/>
  <line x2="11.899" style="fill:none;stroke:#000000;stroke-width:0.7;stroke-linecap:round;" y1="-1.824" x1="11.899" y2="-1.824"/>
  <line x2="10.104" style="fill:none;stroke:#000000;stroke-width:0.7;stroke-linecap:round;" y1="-1.824" x1="10.104" y2="-1.824"/>
  <line x2="15.491" style="fill:none;stroke:#000000;stroke-width:0.7;stroke-linecap:round;" y1="-1.824" x1="15.491" y2="-1.824"/>
  <line x2="13.695" style="fill:none;stroke:#000000;stroke-width:0.7;stroke-linecap:round;" y1="-1.824" x1="13.695" y2="-1.824"/>
  <line x2="19.082" style="fill:none;stroke:#000000;stroke-width:0.7;stroke-linecap:round;" y1="-1.824" x1="19.082" y2="-1.824"/>
  <line x2="17.286" style="fill:none;stroke:#000000;stroke-width:0.7;stroke-linecap:round;" y1="-1.824" x1="17.286" y2="-1.824"/>
  <line x2="22.679" style="fill:none;stroke:#000000;stroke-width:0.7;stroke-linecap:round;" y1="-1.824" x1="22.679" y2="-1.824"/>
  <line x2="20.883" style="fill:none;stroke:#000000;stroke-width:0.7;stroke-linecap:round;" y1="-1.824" x1="20.883" y2="-1.824"/>
  <line x2="26.27" style="fill:none;stroke:#000000;stroke-width:0.7;stroke-linecap:round;" y1="-1.824" x1="26.27" y2="-1.824"/>
  <line x2="24.474" style="fill:none;stroke:#000000;stroke-width:0.7;stroke-linecap:round;" y1="-1.824" x1="24.474" y2="-1.824"/>
  <line x2="29.855" style="fill:none;stroke:#000000;stroke-width:0.7;stroke-linecap:round;" y1="-1.824" x1="29.855" y2="-1.824"/>
  <line x2="28.06" style="fill:none;stroke:#000000;stroke-width:0.7;stroke-linecap:round;" y1="-1.824" x1="28.06" y2="-1.824"/>
  <line x2="33.446" style="fill:none;stroke:#000000;stroke-width:0.7;stroke-linecap:round;" y1="-1.824" x1="33.446" y2="-1.824"/>
  <line x2="31.65" style="fill:none;stroke:#000000;stroke-width:0.7;stroke-linecap:round;" y1="-1.824" x1="31.65" y2="-1.824"/>
  <line x2="37.042" style="fill:none;stroke:#000000;stroke-width:0.7;stroke-linecap:round;" y1="-1.824" x1="37.042" y2="-1.824"/>
  <line x2="35.247" style="fill:none;stroke:#000000;stroke-width:0.7;stroke-linecap:round;" y1="-1.824" x1="35.247" y2="-1.824"/>
  <line x2="40.634" style="fill:none;stroke:#000000;stroke-width:0.7;stroke-linecap:round;" y1="-1.824" x1="40.634" y2="-1.824"/>
  <line x2="38.838" style="fill:none;stroke:#000000;stroke-width:0.7;stroke-linecap:round;" y1="-1.824" x1="38.838" y2="-1.824"/>
  <line x2="44.225" style="fill:none;stroke:#000000;stroke-width:0.7;stroke-linecap:round;" y1="-1.824" x1="44.225" y2="-1.824"/>
  <line x2="42.429" style="fill:none;stroke:#000000;stroke-width:0.7;stroke-linecap:round;" y1="-1.824" x1="42.429" y2="-1.824"/>
  <line x2="46.021" style="fill:none;stroke:#000000;stroke-width:0.7;stroke-linecap:round;" y1="-1.824" x1="46.021" y2="-1.824"/>
 </g>
</svg>
