<?xml version="1.0"?>
<!-- Converted with SVG Converter - Version 0.9.6 (Compiled Thu Aug 31 10:01:05 2017) - Copyright (C) 2011 Nokia -->
<svg xmlns="http://www.w3.org/2000/svg" width="46.75" height="46.75" xml:space="preserve" viewBox="0 -46.75 46.75 46.75" y="0px" x="0px" baseProfile="tiny" version="1.1" xmlns:xlink="http://www.w3.org/1999/xlink">
 <g>
  <rect width="46.75" height="46.75" y="-46.75" style="fill:none;"/>
  <line x1="7.68" style="fill:none;stroke:#000000;stroke-width:0.3;" y1="-45.438" x2="1.059" y2="-45.438"/>
  <line x1="10.333" style="fill:none;stroke:#000000;stroke-width:0.3;" y1="-45.438" x2="16.954" y2="-45.438"/>
  <line x1="19.845" style="fill:none;stroke:#000000;stroke-width:0.3;" y1="-45.438" x2="26.466" y2="-45.438"/>
  <line x1="29.257" style="fill:none;stroke:#000000;stroke-width:0.3;" y1="-45.438" x2="35.878" y2="-45.438"/>
  <line x1="38.594" style="fill:none;stroke:#000000;stroke-width:0.3;" y1="-45.438" x2="45.215" y2="-45.438"/>
  <line x1="0" style="fill:none;stroke:#000000;stroke-width:0.3;" y1="-39.646" x2="3.117" y2="-39.646"/>
  <line x1="12.392" style="fill:none;stroke:#000000;stroke-width:0.3;" y1="-39.646" x2="5.771" y2="-39.646"/>
  <line x1="21.903" style="fill:none;stroke:#000000;stroke-width:0.3;" y1="-39.646" x2="15.282" y2="-39.646"/>
  <line x1="31.315" style="fill:none;stroke:#000000;stroke-width:0.3;" y1="-39.646" x2="24.694" y2="-39.646"/>
  <line x1="40.652" style="fill:none;stroke:#000000;stroke-width:0.3;" y1="-39.646" x2="34.031" y2="-39.646"/>
  <line x1="46.75" style="fill:none;stroke:#000000;stroke-width:0.3;" y1="-39.646" x2="43.145" y2="-39.646"/>
  <line x1="7.68" style="fill:none;stroke:#000000;stroke-width:0.3;" y1="-33.813" x2="1.059" y2="-33.813"/>
  <line x1="16.954" style="fill:none;stroke:#000000;stroke-width:0.3;" y1="-33.813" x2="10.333" y2="-33.813"/>
  <line x1="19.845" style="fill:none;stroke:#000000;stroke-width:0.3;" y1="-33.813" x2="26.466" y2="-33.813"/>
  <line x1="29.257" style="fill:none;stroke:#000000;stroke-width:0.3;" y1="-33.813" x2="35.878" y2="-33.813"/>
  <line x1="38.594" style="fill:none;stroke:#000000;stroke-width:0.3;" y1="-33.813" x2="45.215" y2="-33.813"/>
  <line x1="3.117" style="fill:none;stroke:#000000;stroke-width:0.3;" y1="-28.021" x2="0" y2="-28.021"/>
  <line x1="12.392" style="fill:none;stroke:#000000;stroke-width:0.3;" y1="-28.021" x2="5.771" y2="-28.021"/>
  <line x1="21.903" style="fill:none;stroke:#000000;stroke-width:0.3;" y1="-28.021" x2="15.282" y2="-28.021"/>
  <line x1="31.315" style="fill:none;stroke:#000000;stroke-width:0.3;" y1="-28.021" x2="24.694" y2="-28.021"/>
  <line x1="40.652" style="fill:none;stroke:#000000;stroke-width:0.3;" y1="-28.021" x2="34.031" y2="-28.021"/>
  <line x1="43.145" style="fill:none;stroke:#000000;stroke-width:0.3;" y1="-28.021" x2="46.75" y2="-28.021"/>
  <line x1="1.059" style="fill:none;stroke:#000000;stroke-width:0.3;" y1="-22.182" x2="7.68" y2="-22.182"/>
  <line x1="16.954" style="fill:none;stroke:#000000;stroke-width:0.3;" y1="-22.182" x2="10.333" y2="-22.182"/>
  <line x1="26.466" style="fill:none;stroke:#000000;stroke-width:0.3;" y1="-22.182" x2="19.845" y2="-22.182"/>
  <line x1="29.257" style="fill:none;stroke:#000000;stroke-width:0.3;" y1="-22.182" x2="35.878" y2="-22.182"/>
  <line x1="38.594" style="fill:none;stroke:#000000;stroke-width:0.3;" y1="-22.182" x2="45.215" y2="-22.182"/>
  <line x1="3.117" style="fill:none;stroke:#000000;stroke-width:0.3;" y1="-16.391" x2="0" y2="-16.391"/>
  <line x1="12.392" style="fill:none;stroke:#000000;stroke-width:0.3;" y1="-16.391" x2="5.771" y2="-16.391"/>
  <line x1="15.282" style="fill:none;stroke:#000000;stroke-width:0.3;" y1="-16.391" x2="21.903" y2="-16.391"/>
  <line x1="31.315" style="fill:none;stroke:#000000;stroke-width:0.3;" y1="-16.391" x2="24.694" y2="-16.391"/>
  <line x1="34.031" style="fill:none;stroke:#000000;stroke-width:0.3;" y1="-16.391" x2="40.652" y2="-16.391"/>
  <line x1="43.145" style="fill:none;stroke:#000000;stroke-width:0.3;" y1="-16.391" x2="46.75" y2="-16.391"/>
  <line x1="7.68" style="fill:none;stroke:#000000;stroke-width:0.3;" y1="-10.578" x2="1.059" y2="-10.578"/>
  <line x1="16.954" style="fill:none;stroke:#000000;stroke-width:0.3;" y1="-10.578" x2="10.333" y2="-10.578"/>
  <line x1="19.845" style="fill:none;stroke:#000000;stroke-width:0.3;" y1="-10.578" x2="26.466" y2="-10.578"/>
  <line x1="29.257" style="fill:none;stroke:#000000;stroke-width:0.3;" y1="-10.578" x2="35.878" y2="-10.578"/>
  <line x1="38.594" style="fill:none;stroke:#000000;stroke-width:0.3;" y1="-10.578" x2="45.215" y2="-10.578"/>
  <line x1="3.117" style="fill:none;stroke:#000000;stroke-width:0.3;" y1="-4.786" x2="0" y2="-4.786"/>
  <line x1="5.771" style="fill:none;stroke:#000000;stroke-width:0.3;" y1="-4.786" x2="12.392" y2="-4.786"/>
  <line x1="21.903" style="fill:none;stroke:#000000;stroke-width:0.3;" y1="-4.786" x2="15.282" y2="-4.786"/>
  <line x1="31.315" style="fill:none;stroke:#000000;stroke-width:0.3;" y1="-4.786" x2="24.694" y2="-4.786"/>
  <line x1="40.652" style="fill:none;stroke:#000000;stroke-width:0.3;" y1="-4.786" x2="34.031" y2="-4.786"/>
  <line x1="43.145" style="fill:none;stroke:#000000;stroke-width:0.3;" y1="-4.786" x2="46.75" y2="-4.786"/>
  <line x1="1.121" style="fill:none;stroke:#000000;stroke-width:0.7;stroke-linecap:round;" y1="-42.499" x2="1.121" y2="-42.499"/>
  <line x1="4.713" style="fill:none;stroke:#000000;stroke-width:0.7;stroke-linecap:round;" y1="-42.499" x2="4.713" y2="-42.499"/>
  <line x1="2.917" style="fill:none;stroke:#000000;stroke-width:0.7;stroke-linecap:round;" y1="-42.499" x2="2.917" y2="-42.499"/>
  <line x1="8.309" style="fill:none;stroke:#000000;stroke-width:0.7;stroke-linecap:round;" y1="-42.499" x2="8.309" y2="-42.499"/>
  <line x1="6.514" style="fill:none;stroke:#000000;stroke-width:0.7;stroke-linecap:round;" y1="-42.499" x2="6.514" y2="-42.499"/>
  <line x1="11.899" style="fill:none;stroke:#000000;stroke-width:0.7;stroke-linecap:round;" y1="-42.499" x2="11.899" y2="-42.499"/>
  <line x1="10.104" style="fill:none;stroke:#000000;stroke-width:0.7;stroke-linecap:round;" y1="-42.499" x2="10.104" y2="-42.499"/>
  <line x1="15.491" style="fill:none;stroke:#000000;stroke-width:0.7;stroke-linecap:round;" y1="-42.499" x2="15.491" y2="-42.499"/>
  <line x1="13.695" style="fill:none;stroke:#000000;stroke-width:0.7;stroke-linecap:round;" y1="-42.499" x2="13.695" y2="-42.499"/>
  <line x1="19.082" style="fill:none;stroke:#000000;stroke-width:0.7;stroke-linecap:round;" y1="-42.499" x2="19.082" y2="-42.499"/>
  <line x1="17.286" style="fill:none;stroke:#000000;stroke-width:0.7;stroke-linecap:round;" y1="-42.499" x2="17.286" y2="-42.499"/>
  <line x1="22.678" style="fill:none;stroke:#000000;stroke-width:0.7;stroke-linecap:round;" y1="-42.499" x2="22.678" y2="-42.499"/>
  <line x1="20.883" style="fill:none;stroke:#000000;stroke-width:0.7;stroke-linecap:round;" y1="-42.499" x2="20.883" y2="-42.499"/>
  <line x1="26.27" style="fill:none;stroke:#000000;stroke-width:0.7;stroke-linecap:round;" y1="-42.499" x2="26.27" y2="-42.499"/>
  <line x1="24.474" style="fill:none;stroke:#000000;stroke-width:0.7;stroke-linecap:round;" y1="-42.499" x2="24.474" y2="-42.499"/>
  <line x1="29.855" style="fill:none;stroke:#000000;stroke-width:0.7;stroke-linecap:round;" y1="-42.499" x2="29.855" y2="-42.499"/>
  <line x1="28.06" style="fill:none;stroke:#000000;stroke-width:0.7;stroke-linecap:round;" y1="-42.499" x2="28.06" y2="-42.499"/>
  <line x1="33.446" style="fill:none;stroke:#000000;stroke-width:0.7;stroke-linecap:round;" y1="-42.499" x2="33.446" y2="-42.499"/>
  <line x1="31.65" style="fill:none;stroke:#000000;stroke-width:0.7;stroke-linecap:round;" y1="-42.499" x2="31.65" y2="-42.499"/>
  <line x1="37.042" style="fill:none;stroke:#000000;stroke-width:0.7;stroke-linecap:round;" y1="-42.499" x2="37.042" y2="-42.499"/>
  <line x1="35.247" style="fill:none;stroke:#000000;stroke-width:0.7;stroke-linecap:round;" y1="-42.499" x2="35.247" y2="-42.499"/>
  <line x1="40.634" style="fill:none;stroke:#000000;stroke-width:0.7;stroke-linecap:round;" y1="-42.499" x2="40.634" y2="-42.499"/>
  <line x1="38.838" style="fill:none;stroke:#000000;stroke-width:0.7;stroke-linecap:round;" y1="-42.499" x2="38.838" y2="-42.499"/>
  <line x1="44.225" style="fill:none;stroke:#000000;stroke-width:0.7;stroke-linecap:round;" y1="-42.499" x2="44.225" y2="-42.499"/>
  <line x1="42.429" style="fill:none;stroke:#000000;stroke-width:0.7;stroke-linecap:round;" y1="-42.499" x2="42.429" y2="-42.499"/>
  <line x1="46.02" style="fill:none;stroke:#000000;stroke-width:0.7;stroke-linecap:round;" y1="-42.499" x2="46.02" y2="-42.499"/>
  <line x1="1.121" style="fill:none;stroke:#000000;stroke-width:0.7;stroke-linecap:round;" y1="-36.624" x2="1.121" y2="-36.624"/>
  <line x1="4.713" style="fill:none;stroke:#000000;stroke-width:0.7;stroke-linecap:round;" y1="-36.624" x2="4.713" y2="-36.624"/>
  <line x1="2.917" style="fill:none;stroke:#000000;stroke-width:0.7;stroke-linecap:round;" y1="-36.624" x2="2.917" y2="-36.624"/>
  <line x1="8.309" style="fill:none;stroke:#000000;stroke-width:0.7;stroke-linecap:round;" y1="-36.624" x2="8.309" y2="-36.624"/>
  <line x1="6.514" style="fill:none;stroke:#000000;stroke-width:0.7;stroke-linecap:round;" y1="-36.624" x2="6.514" y2="-36.624"/>
  <line x1="11.899" style="fill:none;stroke:#000000;stroke-width:0.7;stroke-linecap:round;" y1="-36.624" x2="11.899" y2="-36.624"/>
  <line x1="10.104" style="fill:none;stroke:#000000;stroke-width:0.7;stroke-linecap:round;" y1="-36.624" x2="10.104" y2="-36.624"/>
  <line x1="15.491" style="fill:none;stroke:#000000;stroke-width:0.7;stroke-linecap:round;" y1="-36.624" x2="15.491" y2="-36.624"/>
  <line x1="13.695" style="fill:none;stroke:#000000;stroke-width:0.7;stroke-linecap:round;" y1="-36.624" x2="13.695" y2="-36.624"/>
  <line x1="19.082" style="fill:none;stroke:#000000;stroke-width:0.7;stroke-linecap:round;" y1="-36.624" x2="19.082" y2="-36.624"/>
  <line x1="17.286" style="fill:none;stroke:#000000;stroke-width:0.7;stroke-linecap:round;" y1="-36.624" x2="17.286" y2="-36.624"/>
  <line x1="22.678" style="fill:none;stroke:#000000;stroke-width:0.7;stroke-linecap:round;" y1="-36.624" x2="22.678" y2="-36.624"/>
  <line x1="20.883" style="fill:none;stroke:#000000;stroke-width:0.7;stroke-linecap:round;" y1="-36.624" x2="20.883" y2="-36.624"/>
  <line x1="26.27" style="fill:none;stroke:#000000;stroke-width:0.7;stroke-linecap:round;" y1="-36.624" x2="26.27" y2="-36.624"/>
  <line x1="24.474" style="fill:none;stroke:#000000;stroke-width:0.7;stroke-linecap:round;" y1="-36.624" x2="24.474" y2="-36.624"/>
  <line x1="29.855" style="fill:none;stroke:#000000;stroke-width:0.7;stroke-linecap:round;" y1="-36.624" x2="29.855" y2="-36.624"/>
  <line x1="28.06" style="fill:none;stroke:#000000;stroke-width:0.7;stroke-linecap:round;" y1="-36.624" x2="28.06" y2="-36.624"/>
  <line x1="33.446" style="fill:none;stroke:#000000;stroke-width:0.7;stroke-linecap:round;" y1="-36.624" x2="33.446" y2="-36.624"/>
  <line x1="31.65" style="fill:none;stroke:#000000;stroke-width:0.7;stroke-linecap:round;" y1="-36.624" x2="31.65" y2="-36.624"/>
  <line x1="37.042" style="fill:none;stroke:#000000;stroke-width:0.7;stroke-linecap:round;" y1="-36.624" x2="37.042" y2="-36.624"/>
  <line x1="35.247" style="fill:none;stroke:#000000;stroke-width:0.7;stroke-linecap:round;" y1="-36.624" x2="35.247" y2="-36.624"/>
  <line x1="40.634" style="fill:none;stroke:#000000;stroke-width:0.7;stroke-linecap:round;" y1="-36.624" x2="40.634" y2="-36.624"/>
  <line x1="38.838" style="fill:none;stroke:#000000;stroke-width:0.7;stroke-linecap:round;" y1="-36.624" x2="38.838" y2="-36.624"/>
  <line x1="44.225" style="fill:none;stroke:#000000;stroke-width:0.7;stroke-linecap:round;" y1="-36.624" x2="44.225" y2="-36.624"/>
  <line x1="42.429" style="fill:none;stroke:#000000;stroke-width:0.7;stroke-linecap:round;" y1="-36.624" x2="42.429" y2="-36.624"/>
  <line x1="46.02" style="fill:none;stroke:#000000;stroke-width:0.7;stroke-linecap:round;" y1="-36.624" x2="46.02" y2="-36.624"/>
  <line x1="1.121" style="fill:none;stroke:#000000;stroke-width:0.7;stroke-linecap:round;" y1="-30.929" x2="1.121" y2="-30.929"/>
  <line x1="4.713" style="fill:none;stroke:#000000;stroke-width:0.7;stroke-linecap:round;" y1="-30.929" x2="4.713" y2="-30.929"/>
  <line x1="2.917" style="fill:none;stroke:#000000;stroke-width:0.7;stroke-linecap:round;" y1="-30.929" x2="2.917" y2="-30.929"/>
  <line x1="8.309" style="fill:none;stroke:#000000;stroke-width:0.7;stroke-linecap:round;" y1="-30.929" x2="8.309" y2="-30.929"/>
  <line x1="6.514" style="fill:none;stroke:#000000;stroke-width:0.7;stroke-linecap:round;" y1="-30.929" x2="6.514" y2="-30.929"/>
  <line x1="11.899" style="fill:none;stroke:#000000;stroke-width:0.7;stroke-linecap:round;" y1="-30.929" x2="11.899" y2="-30.929"/>
  <line x1="10.104" style="fill:none;stroke:#000000;stroke-width:0.7;stroke-linecap:round;" y1="-30.929" x2="10.104" y2="-30.929"/>
  <line x1="15.491" style="fill:none;stroke:#000000;stroke-width:0.7;stroke-linecap:round;" y1="-30.929" x2="15.491" y2="-30.929"/>
  <line x1="13.695" style="fill:none;stroke:#000000;stroke-width:0.7;stroke-linecap:round;" y1="-30.929" x2="13.695" y2="-30.929"/>
  <line x1="19.082" style="fill:none;stroke:#000000;stroke-width:0.7;stroke-linecap:round;" y1="-30.929" x2="19.082" y2="-30.929"/>
  <line x1="17.286" style="fill:none;stroke:#000000;stroke-width:0.7;stroke-linecap:round;" y1="-30.929" x2="17.286" y2="-30.929"/>
  <line x1="22.678" style="fill:none;stroke:#000000;stroke-width:0.7;stroke-linecap:round;" y1="-30.929" x2="22.678" y2="-30.929"/>
  <line x1="20.883" style="fill:none;stroke:#000000;stroke-width:0.7;stroke-linecap:round;" y1="-30.929" x2="20.883" y2="-30.929"/>
  <line x1="26.27" style="fill:none;stroke:#000000;stroke-width:0.7;stroke-linecap:round;" y1="-30.929" x2="26.27" y2="-30.929"/>
  <line x1="24.474" style="fill:none;stroke:#000000;stroke-width:0.7;stroke-linecap:round;" y1="-30.929" x2="24.474" y2="-30.929"/>
  <line x1="29.855" style="fill:none;stroke:#000000;stroke-width:0.7;stroke-linecap:round;" y1="-30.929" x2="29.855" y2="-30.929"/>
  <line x1="28.06" style="fill:none;stroke:#000000;stroke-width:0.7;stroke-linecap:round;" y1="-30.929" x2="28.06" y2="-30.929"/>
  <line x1="33.446" style="fill:none;stroke:#000000;stroke-width:0.7;stroke-linecap:round;" y1="-30.929" x2="33.446" y2="-30.929"/>
  <line x1="31.65" style="fill:none;stroke:#000000;stroke-width:0.7;stroke-linecap:round;" y1="-30.929" x2="31.65" y2="-30.929"/>
  <line x1="37.042" style="fill:none;stroke:#000000;stroke-width:0.7;stroke-linecap:round;" y1="-30.929" x2="37.042" y2="-30.929"/>
  <line x1="35.247" style="fill:none;stroke:#000000;stroke-width:0.7;stroke-linecap:round;" y1="-30.929" x2="35.247" y2="-30.929"/>
  <line x1="40.634" style="fill:none;stroke:#000000;stroke-width:0.7;stroke-linecap:round;" y1="-30.929" x2="40.634" y2="-30.929"/>
  <line x1="38.838" style="fill:none;stroke:#000000;stroke-width:0.7;stroke-linecap:round;" y1="-30.929" x2="38.838" y2="-30.929"/>
  <line x1="44.225" style="fill:none;stroke:#000000;stroke-width:0.7;stroke-linecap:round;" y1="-30.929" x2="44.225" y2="-30.929"/>
  <line x1="42.429" style="fill:none;stroke:#000000;stroke-width:0.7;stroke-linecap:round;" y1="-30.929" x2="42.429" y2="-30.929"/>
  <line x1="46.02" style="fill:none;stroke:#000000;stroke-width:0.7;stroke-linecap:round;" y1="-30.929" x2="46.02" y2="-30.929"/>
  <line x1="1.121" style="fill:none;stroke:#000000;stroke-width:0.7;stroke-linecap:round;" y1="-25.044" x2="1.121" y2="-25.044"/>
  <line x1="4.713" style="fill:none;stroke:#000000;stroke-width:0.7;stroke-linecap:round;" y1="-25.044" x2="4.713" y2="-25.044"/>
  <line x1="2.917" style="fill:none;stroke:#000000;stroke-width:0.7;stroke-linecap:round;" y1="-25.044" x2="2.917" y2="-25.044"/>
  <line x1="8.309" style="fill:none;stroke:#000000;stroke-width:0.7;stroke-linecap:round;" y1="-25.044" x2="8.309" y2="-25.044"/>
  <line x1="6.514" style="fill:none;stroke:#000000;stroke-width:0.7;stroke-linecap:round;" y1="-25.044" x2="6.514" y2="-25.044"/>
  <line x1="11.899" style="fill:none;stroke:#000000;stroke-width:0.7;stroke-linecap:round;" y1="-25.044" x2="11.899" y2="-25.044"/>
  <line x1="10.104" style="fill:none;stroke:#000000;stroke-width:0.7;stroke-linecap:round;" y1="-25.044" x2="10.104" y2="-25.044"/>
  <line x1="15.491" style="fill:none;stroke:#000000;stroke-width:0.7;stroke-linecap:round;" y1="-25.044" x2="15.491" y2="-25.044"/>
  <line x1="13.695" style="fill:none;stroke:#000000;stroke-width:0.7;stroke-linecap:round;" y1="-25.044" x2="13.695" y2="-25.044"/>
  <line x1="19.082" style="fill:none;stroke:#000000;stroke-width:0.7;stroke-linecap:round;" y1="-25.044" x2="19.082" y2="-25.044"/>
  <line x1="17.286" style="fill:none;stroke:#000000;stroke-width:0.7;stroke-linecap:round;" y1="-25.044" x2="17.286" y2="-25.044"/>
  <line x1="22.678" style="fill:none;stroke:#000000;stroke-width:0.7;stroke-linecap:round;" y1="-25.044" x2="22.678" y2="-25.044"/>
  <line x1="20.883" style="fill:none;stroke:#000000;stroke-width:0.7;stroke-linecap:round;" y1="-25.044" x2="20.883" y2="-25.044"/>
  <line x1="26.27" style="fill:none;stroke:#000000;stroke-width:0.7;stroke-linecap:round;" y1="-25.044" x2="26.27" y2="-25.044"/>
  <line x1="24.474" style="fill:none;stroke:#000000;stroke-width:0.7;stroke-linecap:round;" y1="-25.044" x2="24.474" y2="-25.044"/>
  <line x1="29.855" style="fill:none;stroke:#000000;stroke-width:0.7;stroke-linecap:round;" y1="-25.044" x2="29.855" y2="-25.044"/>
  <line x1="28.06" style="fill:none;stroke:#000000;stroke-width:0.7;stroke-linecap:round;" y1="-25.044" x2="28.06" y2="-25.044"/>
  <line x1="33.446" style="fill:none;stroke:#000000;stroke-width:0.7;stroke-linecap:round;" y1="-25.044" x2="33.446" y2="-25.044"/>
  <line x1="31.65" style="fill:none;stroke:#000000;stroke-width:0.7;stroke-linecap:round;" y1="-25.044" x2="31.65" y2="-25.044"/>
  <line x1="37.042" style="fill:none;stroke:#000000;stroke-width:0.7;stroke-linecap:round;" y1="-25.044" x2="37.042" y2="-25.044"/>
  <line x1="35.247" style="fill:none;stroke:#000000;stroke-width:0.7;stroke-linecap:round;" y1="-25.044" x2="35.247" y2="-25.044"/>
  <line x1="40.634" style="fill:none;stroke:#000000;stroke-width:0.7;stroke-linecap:round;" y1="-25.044" x2="40.634" y2="-25.044"/>
  <line x1="38.838" style="fill:none;stroke:#000000;stroke-width:0.7;stroke-linecap:round;" y1="-25.044" x2="38.838" y2="-25.044"/>
  <line x1="44.225" style="fill:none;stroke:#000000;stroke-width:0.7;stroke-linecap:round;" y1="-25.044" x2="44.225" y2="-25.044"/>
  <line x1="42.429" style="fill:none;stroke:#000000;stroke-width:0.7;stroke-linecap:round;" y1="-25.044" x2="42.429" y2="-25.044"/>
  <line x1="46.02" style="fill:none;stroke:#000000;stroke-width:0.7;stroke-linecap:round;" y1="-25.044" x2="46.02" y2="-25.044"/>
  <line x1="1.121" style="fill:none;stroke:#000000;stroke-width:0.7;stroke-linecap:round;" y1="-19.224" x2="1.121" y2="-19.224"/>
  <line x1="4.713" style="fill:none;stroke:#000000;stroke-width:0.7;stroke-linecap:round;" y1="-19.224" x2="4.713" y2="-19.224"/>
  <line x1="2.917" style="fill:none;stroke:#000000;stroke-width:0.7;stroke-linecap:round;" y1="-19.224" x2="2.917" y2="-19.224"/>
  <line x1="8.309" style="fill:none;stroke:#000000;stroke-width:0.7;stroke-linecap:round;" y1="-19.224" x2="8.309" y2="-19.224"/>
  <line x1="6.514" style="fill:none;stroke:#000000;stroke-width:0.7;stroke-linecap:round;" y1="-19.224" x2="6.514" y2="-19.224"/>
  <line x1="11.899" style="fill:none;stroke:#000000;stroke-width:0.7;stroke-linecap:round;" y1="-19.224" x2="11.899" y2="-19.224"/>
  <line x1="10.104" style="fill:none;stroke:#000000;stroke-width:0.7;stroke-linecap:round;" y1="-19.224" x2="10.104" y2="-19.224"/>
  <line x1="15.491" style="fill:none;stroke:#000000;stroke-width:0.7;stroke-linecap:round;" y1="-19.224" x2="15.491" y2="-19.224"/>
  <line x1="13.695" style="fill:none;stroke:#000000;stroke-width:0.7;stroke-linecap:round;" y1="-19.224" x2="13.695" y2="-19.224"/>
  <line x1="19.082" style="fill:none;stroke:#000000;stroke-width:0.7;stroke-linecap:round;" y1="-19.224" x2="19.082" y2="-19.224"/>
  <line x1="17.286" style="fill:none;stroke:#000000;stroke-width:0.7;stroke-linecap:round;" y1="-19.224" x2="17.286" y2="-19.224"/>
  <line x1="22.678" style="fill:none;stroke:#000000;stroke-width:0.7;stroke-linecap:round;" y1="-19.224" x2="22.678" y2="-19.224"/>
  <line x1="20.883" style="fill:none;stroke:#000000;stroke-width:0.7;stroke-linecap:round;" y1="-19.224" x2="20.883" y2="-19.224"/>
  <line x1="26.27" style="fill:none;stroke:#000000;stroke-width:0.7;stroke-linecap:round;" y1="-19.224" x2="26.27" y2="-19.224"/>
  <line x1="24.474" style="fill:none;stroke:#000000;stroke-width:0.7;stroke-linecap:round;" y1="-19.224" x2="24.474" y2="-19.224"/>
  <line x1="29.855" style="fill:none;stroke:#000000;stroke-width:0.7;stroke-linecap:round;" y1="-19.224" x2="29.855" y2="-19.224"/>
  <line x1="28.06" style="fill:none;stroke:#000000;stroke-width:0.7;stroke-linecap:round;" y1="-19.224" x2="28.06" y2="-19.224"/>
  <line x1="33.446" style="fill:none;stroke:#000000;stroke-width:0.7;stroke-linecap:round;" y1="-19.224" x2="33.446" y2="-19.224"/>
  <line x1="31.65" style="fill:none;stroke:#000000;stroke-width:0.7;stroke-linecap:round;" y1="-19.224" x2="31.65" y2="-19.224"/>
  <line x1="37.042" style="fill:none;stroke:#000000;stroke-width:0.7;stroke-linecap:round;" y1="-19.224" x2="37.042" y2="-19.224"/>
  <line x1="35.247" style="fill:none;stroke:#000000;stroke-width:0.7;stroke-linecap:round;" y1="-19.224" x2="35.247" y2="-19.224"/>
  <line x1="40.634" style="fill:none;stroke:#000000;stroke-width:0.7;stroke-linecap:round;" y1="-19.224" x2="40.634" y2="-19.224"/>
  <line x1="38.838" style="fill:none;stroke:#000000;stroke-width:0.7;stroke-linecap:round;" y1="-19.224" x2="38.838" y2="-19.224"/>
  <line x1="44.225" style="fill:none;stroke:#000000;stroke-width:0.7;stroke-linecap:round;" y1="-19.224" x2="44.225" y2="-19.224"/>
  <line x1="42.429" style="fill:none;stroke:#000000;stroke-width:0.7;stroke-linecap:round;" y1="-19.224" x2="42.429" y2="-19.224"/>
  <line x1="46.02" style="fill:none;stroke:#000000;stroke-width:0.7;stroke-linecap:round;" y1="-19.224" x2="46.02" y2="-19.224"/>
  <line x1="1.121" style="fill:none;stroke:#000000;stroke-width:0.7;stroke-linecap:round;" y1="-13.464" x2="1.121" y2="-13.464"/>
  <line x1="4.713" style="fill:none;stroke:#000000;stroke-width:0.7;stroke-linecap:round;" y1="-13.464" x2="4.713" y2="-13.464"/>
  <line x1="2.917" style="fill:none;stroke:#000000;stroke-width:0.7;stroke-linecap:round;" y1="-13.464" x2="2.917" y2="-13.464"/>
  <line x1="8.309" style="fill:none;stroke:#000000;stroke-width:0.7;stroke-linecap:round;" y1="-13.464" x2="8.309" y2="-13.464"/>
  <line x1="6.514" style="fill:none;stroke:#000000;stroke-width:0.7;stroke-linecap:round;" y1="-13.464" x2="6.514" y2="-13.464"/>
  <line x1="11.899" style="fill:none;stroke:#000000;stroke-width:0.7;stroke-linecap:round;" y1="-13.464" x2="11.899" y2="-13.464"/>
  <line x1="10.104" style="fill:none;stroke:#000000;stroke-width:0.7;stroke-linecap:round;" y1="-13.464" x2="10.104" y2="-13.464"/>
  <line x1="15.491" style="fill:none;stroke:#000000;stroke-width:0.7;stroke-linecap:round;" y1="-13.464" x2="15.491" y2="-13.464"/>
  <line x1="13.695" style="fill:none;stroke:#000000;stroke-width:0.7;stroke-linecap:round;" y1="-13.464" x2="13.695" y2="-13.464"/>
  <line x1="19.082" style="fill:none;stroke:#000000;stroke-width:0.7;stroke-linecap:round;" y1="-13.464" x2="19.082" y2="-13.464"/>
  <line x1="17.286" style="fill:none;stroke:#000000;stroke-width:0.7;stroke-linecap:round;" y1="-13.464" x2="17.286" y2="-13.464"/>
  <line x1="22.678" style="fill:none;stroke:#000000;stroke-width:0.7;stroke-linecap:round;" y1="-13.464" x2="22.678" y2="-13.464"/>
  <line x1="20.883" style="fill:none;stroke:#000000;stroke-width:0.7;stroke-linecap:round;" y1="-13.464" x2="20.883" y2="-13.464"/>
  <line x1="26.27" style="fill:none;stroke:#000000;stroke-width:0.7;stroke-linecap:round;" y1="-13.464" x2="26.27" y2="-13.464"/>
  <line x1="24.474" style="fill:none;stroke:#000000;stroke-width:0.7;stroke-linecap:round;" y1="-13.464" x2="24.474" y2="-13.464"/>
  <line x1="29.855" style="fill:none;stroke:#000000;stroke-width:0.7;stroke-linecap:round;" y1="-13.464" x2="29.855" y2="-13.464"/>
  <line x1="28.06" style="fill:none;stroke:#000000;stroke-width:0.7;stroke-linecap:round;" y1="-13.464" x2="28.06" y2="-13.464"/>
  <line x1="33.446" style="fill:none;stroke:#000000;stroke-width:0.7;stroke-linecap:round;" y1="-13.464" x2="33.446" y2="-13.464"/>
  <line x1="31.65" style="fill:none;stroke:#000000;stroke-width:0.7;stroke-linecap:round;" y1="-13.464" x2="31.65" y2="-13.464"/>
  <line x1="37.042" style="fill:none;stroke:#000000;stroke-width:0.7;stroke-linecap:round;" y1="-13.464" x2="37.042" y2="-13.464"/>
  <line x1="35.247" style="fill:none;stroke:#000000;stroke-width:0.7;stroke-linecap:round;" y1="-13.464" x2="35.247" y2="-13.464"/>
  <line x1="40.634" style="fill:none;stroke:#000000;stroke-width:0.7;stroke-linecap:round;" y1="-13.464" x2="40.634" y2="-13.464"/>
  <line x1="38.838" style="fill:none;stroke:#000000;stroke-width:0.7;stroke-linecap:round;" y1="-13.464" x2="38.838" y2="-13.464"/>
  <line x1="44.225" style="fill:none;stroke:#000000;stroke-width:0.7;stroke-linecap:round;" y1="-13.464" x2="44.225" y2="-13.464"/>
  <line x1="42.429" style="fill:none;stroke:#000000;stroke-width:0.7;stroke-linecap:round;" y1="-13.464" x2="42.429" y2="-13.464"/>
  <line x1="46.02" style="fill:none;stroke:#000000;stroke-width:0.7;stroke-linecap:round;" y1="-13.464" x2="46.02" y2="-13.464"/>
  <line x1="1.121" style="fill:none;stroke:#000000;stroke-width:0.7;stroke-linecap:round;" y1="-7.583" x2="1.121" y2="-7.583"/>
  <line x1="4.713" style="fill:none;stroke:#000000;stroke-width:0.7;stroke-linecap:round;" y1="-7.583" x2="4.713" y2="-7.583"/>
  <line x1="2.917" style="fill:none;stroke:#000000;stroke-width:0.7;stroke-linecap:round;" y1="-7.583" x2="2.917" y2="-7.583"/>
  <line x1="8.309" style="fill:none;stroke:#000000;stroke-width:0.7;stroke-linecap:round;" y1="-7.583" x2="8.309" y2="-7.583"/>
  <line x1="6.514" style="fill:none;stroke:#000000;stroke-width:0.7;stroke-linecap:round;" y1="-7.583" x2="6.514" y2="-7.583"/>
  <line x1="11.899" style="fill:none;stroke:#000000;stroke-width:0.7;stroke-linecap:round;" y1="-7.583" x2="11.899" y2="-7.583"/>
  <line x1="10.104" style="fill:none;stroke:#000000;stroke-width:0.7;stroke-linecap:round;" y1="-7.583" x2="10.104" y2="-7.583"/>
  <line x1="15.491" style="fill:none;stroke:#000000;stroke-width:0.7;stroke-linecap:round;" y1="-7.583" x2="15.491" y2="-7.583"/>
  <line x1="13.695" style="fill:none;stroke:#000000;stroke-width:0.7;stroke-linecap:round;" y1="-7.583" x2="13.695" y2="-7.583"/>
  <line x1="19.082" style="fill:none;stroke:#000000;stroke-width:0.7;stroke-linecap:round;" y1="-7.583" x2="19.082" y2="-7.583"/>
  <line x1="17.286" style="fill:none;stroke:#000000;stroke-width:0.7;stroke-linecap:round;" y1="-7.583" x2="17.286" y2="-7.583"/>
  <line x1="22.678" style="fill:none;stroke:#000000;stroke-width:0.7;stroke-linecap:round;" y1="-7.583" x2="22.678" y2="-7.583"/>
  <line x1="20.883" style="fill:none;stroke:#000000;stroke-width:0.7;stroke-linecap:round;" y1="-7.583" x2="20.883" y2="-7.583"/>
  <line x1="26.27" style="fill:none;stroke:#000000;stroke-width:0.7;stroke-linecap:round;" y1="-7.583" x2="26.27" y2="-7.583"/>
  <line x1="24.474" style="fill:none;stroke:#000000;stroke-width:0.7;stroke-linecap:round;" y1="-7.583" x2="24.474" y2="-7.583"/>
  <line x1="29.855" style="fill:none;stroke:#000000;stroke-width:0.7;stroke-linecap:round;" y1="-7.583" x2="29.855" y2="-7.583"/>
  <line x1="28.06" style="fill:none;stroke:#000000;stroke-width:0.7;stroke-linecap:round;" y1="-7.583" x2="28.06" y2="-7.583"/>
  <line x1="33.446" style="fill:none;stroke:#000000;stroke-width:0.7;stroke-linecap:round;" y1="-7.583" x2="33.446" y2="-7.583"/>
  <line x1="31.65" style="fill:none;stroke:#000000;stroke-width:0.7;stroke-linecap:round;" y1="-7.583" x2="31.65" y2="-7.583"/>
  <line x1="37.042" style="fill:none;stroke:#000000;stroke-width:0.7;stroke-linecap:round;" y1="-7.583" x2="37.042" y2="-7.583"/>
  <line x1="35.247" style="fill:none;stroke:#000000;stroke-width:0.7;stroke-linecap:round;" y1="-7.583" x2="35.247" y2="-7.583"/>
  <line x1="40.634" style="fill:none;stroke:#000000;stroke-width:0.7;stroke-linecap:round;" y1="-7.583" x2="40.634" y2="-7.583"/>
  <line x1="38.838" style="fill:none;stroke:#000000;stroke-width:0.7;stroke-linecap:round;" y1="-7.583" x2="38.838" y2="-7.583"/>
  <line x1="44.225" style="fill:none;stroke:#000000;stroke-width:0.7;stroke-linecap:round;" y1="-7.583" x2="44.225" y2="-7.583"/>
  <line x1="42.429" style="fill:none;stroke:#000000;stroke-width:0.7;stroke-linecap:round;" y1="-7.583" x2="42.429" y2="-7.583"/>
  <line x1="46.02" style="fill:none;stroke:#000000;stroke-width:0.7;stroke-linecap:round;" y1="-7.583" x2="46.02" y2="-7.583"/>
  <line x1="1.121" style="fill:none;stroke:#000000;stroke-width:0.7;stroke-linecap:round;" y1="-1.824" x2="1.121" y2="-1.824"/>
  <line x1="4.713" style="fill:none;stroke:#000000;stroke-width:0.7;stroke-linecap:round;" y1="-1.824" x2="4.713" y2="-1.824"/>
  <line x1="2.917" style="fill:none;stroke:#000000;stroke-width:0.7;stroke-linecap:round;" y1="-1.824" x2="2.917" y2="-1.824"/>
  <line x1="8.309" style="fill:none;stroke:#000000;stroke-width:0.7;stroke-linecap:round;" y1="-1.824" x2="8.309" y2="-1.824"/>
  <line x1="6.514" style="fill:none;stroke:#000000;stroke-width:0.7;stroke-linecap:round;" y1="-1.824" x2="6.514" y2="-1.824"/>
  <line x1="11.899" style="fill:none;stroke:#000000;stroke-width:0.7;stroke-linecap:round;" y1="-1.824" x2="11.899" y2="-1.824"/>
  <line x1="10.104" style="fill:none;stroke:#000000;stroke-width:0.7;stroke-linecap:round;" y1="-1.824" x2="10.104" y2="-1.824"/>
  <line x1="15.491" style="fill:none;stroke:#000000;stroke-width:0.7;stroke-linecap:round;" y1="-1.824" x2="15.491" y2="-1.824"/>
  <line x1="13.695" style="fill:none;stroke:#000000;stroke-width:0.7;stroke-linecap:round;" y1="-1.824" x2="13.695" y2="-1.824"/>
  <line x1="19.082" style="fill:none;stroke:#000000;stroke-width:0.7;stroke-linecap:round;" y1="-1.824" x2="19.082" y2="-1.824"/>
  <line x1="17.286" style="fill:none;stroke:#000000;stroke-width:0.7;stroke-linecap:round;" y1="-1.824" x2="17.286" y2="-1.824"/>
  <line x1="22.678" style="fill:none;stroke:#000000;stroke-width:0.7;stroke-linecap:round;" y1="-1.824" x2="22.678" y2="-1.824"/>
  <line x1="20.883" style="fill:none;stroke:#000000;stroke-width:0.7;stroke-linecap:round;" y1="-1.824" x2="20.883" y2="-1.824"/>
  <line x1="26.27" style="fill:none;stroke:#000000;stroke-width:0.7;stroke-linecap:round;" y1="-1.824" x2="26.27" y2="-1.824"/>
  <line x1="24.474" style="fill:none;stroke:#000000;stroke-width:0.7;stroke-linecap:round;" y1="-1.824" x2="24.474" y2="-1.824"/>
  <line x1="29.855" style="fill:none;stroke:#000000;stroke-width:0.7;stroke-linecap:round;" y1="-1.824" x2="29.855" y2="-1.824"/>
  <line x1="28.06" style="fill:none;stroke:#000000;stroke-width:0.7;stroke-linecap:round;" y1="-1.824" x2="28.06" y2="-1.824"/>
  <line x1="33.446" style="fill:none;stroke:#000000;stroke-width:0.7;stroke-linecap:round;" y1="-1.824" x2="33.446" y2="-1.824"/>
  <line x1="31.65" style="fill:none;stroke:#000000;stroke-width:0.7;stroke-linecap:round;" y1="-1.824" x2="31.65" y2="-1.824"/>
  <line x1="37.042" style="fill:none;stroke:#000000;stroke-width:0.7;stroke-linecap:round;" y1="-1.824" x2="37.042" y2="-1.824"/>
  <line x1="35.247" style="fill:none;stroke:#000000;stroke-width:0.7;stroke-linecap:round;" y1="-1.824" x2="35.247" y2="-1.824"/>
  <line x1="40.634" style="fill:none;stroke:#000000;stroke-width:0.7;stroke-linecap:round;" y1="-1.824" x2="40.634" y2="-1.824"/>
  <line x1="38.838" style="fill:none;stroke:#000000;stroke-width:0.7;stroke-linecap:round;" y1="-1.824" x2="38.838" y2="-1.824"/>
  <line x1="44.225" style="fill:none;stroke:#000000;stroke-width:0.7;stroke-linecap:round;" y1="-1.824" x2="44.225" y2="-1.824"/>
  <line x1="42.429" style="fill:none;stroke:#000000;stroke-width:0.7;stroke-linecap:round;" y1="-1.824" x2="42.429" y2="-1.824"/>
  <line x1="46.02" style="fill:none;stroke:#000000;stroke-width:0.7;stroke-linecap:round;" y1="-1.824" x2="46.02" y2="-1.824"/>
 </g>
</svg>
