<?xml version="1.0" encoding="utf-8"?>
<svg xmlns="http://www.w3.org/2000/svg" version="1.1" x="0px" y="0px" xml:space="preserve" width="53.584" height="53.584" viewBox="0 -53.584 53.584 53.584">
	<g>
		<rect x="0" y="-53.584" style="fill:none;" width="53.584" height="53.584"/>
		<line style="fill:none;stroke:#000000;stroke-width:0.3;" x1="3.776" y1="-52.321" x2="0" y2="-52.321"/>
		<line style="fill:none;stroke:#000000;stroke-width:0.3;" x1="6.356" y1="-52.321" x2="12.726" y2="-52.321"/>
		<line style="fill:none;stroke:#000000;stroke-width:0.3;" x1="15.273" y1="-52.321" x2="21.643" y2="-52.321"/>
		<line style="fill:none;stroke:#000000;stroke-width:0.3;" x1="24.19" y1="-52.321" x2="30.559" y2="-52.321"/>
		<line style="fill:none;stroke:#000000;stroke-width:0.3;" x1="33.106" y1="-52.321" x2="39.476" y2="-52.321"/>
		<line style="fill:none;stroke:#000000;stroke-width:0.3;" x1="42.023" y1="-52.321" x2="48.393" y2="-52.321"/>
		<line style="fill:none;stroke:#000000;stroke-width:0.3;" x1="53.584" y1="-52.321" x2="50.939" y2="-52.321"/>
		<line style="fill:none;stroke:#000000;stroke-width:0.3;" x1="0" y1="-40.441" x2="1.706" y2="-40.441"/>
		<line style="fill:none;stroke:#000000;stroke-width:0.3;" x1="4.287" y1="-40.441" x2="10.655" y2="-40.441"/>
		<line style="fill:none;stroke:#000000;stroke-width:0.3;" x1="13.203" y1="-40.441" x2="19.572" y2="-40.441"/>
		<line style="fill:none;stroke:#000000;stroke-width:0.3;" x1="22.12" y1="-40.441" x2="28.489" y2="-40.441"/>
		<line style="fill:none;stroke:#000000;stroke-width:0.3;" x1="31.036" y1="-40.441" x2="37.405" y2="-40.441"/>
		<line style="fill:none;stroke:#000000;stroke-width:0.3;" x1="39.953" y1="-40.441" x2="46.322" y2="-40.441"/>
		<line style="fill:none;stroke:#000000;stroke-width:0.3;" x1="48.87" y1="-40.441" x2="53.584" y2="-40.441"/>
		<line style="fill:none;stroke:#000000;stroke-width:0.3;" x1="5.242" y1="-37.437" x2="0" y2="-37.437"/>
		<line style="fill:none;stroke:#000000;stroke-width:0.3;" x1="14.159" y1="-37.437" x2="7.79" y2="-37.437"/>
		<line style="fill:none;stroke:#000000;stroke-width:0.3;" x1="23.075" y1="-37.437" x2="16.706" y2="-37.437"/>
		<line style="fill:none;stroke:#000000;stroke-width:0.3;" x1="31.992" y1="-37.437" x2="25.623" y2="-37.437"/>
		<line style="fill:none;stroke:#000000;stroke-width:0.3;" x1="40.908" y1="-37.437" x2="34.539" y2="-37.437"/>
		<line style="fill:none;stroke:#000000;stroke-width:0.3;" x1="49.825" y1="-37.437" x2="43.456" y2="-37.437"/>
		<line style="fill:none;stroke:#000000;stroke-width:0.3;" x1="53.584" y1="-37.437" x2="52.373" y2="-37.437"/>
		<line style="fill:none;stroke:#000000;stroke-width:0.3;" x1="0" y1="-34.27" x2="2.184" y2="-34.27"/>
		<line style="fill:none;stroke:#000000;stroke-width:0.3;" x1="11.134" y1="-34.27" x2="4.765" y2="-34.27"/>
		<line style="fill:none;stroke:#000000;stroke-width:0.3;" x1="13.681" y1="-34.27" x2="20.05" y2="-34.27"/>
		<line style="fill:none;stroke:#000000;stroke-width:0.3;" x1="22.598" y1="-34.27" x2="28.967" y2="-34.27"/>
		<line style="fill:none;stroke:#000000;stroke-width:0.3;" x1="31.515" y1="-34.27" x2="37.883" y2="-34.27"/>
		<line style="fill:none;stroke:#000000;stroke-width:0.3;" x1="40.431" y1="-34.27" x2="46.8" y2="-34.27"/>
		<line style="fill:none;stroke:#000000;stroke-width:0.3;" x1="49.348" y1="-34.27" x2="53.584" y2="-34.27"/>
		<line style="fill:none;stroke:#000000;stroke-width:0.3;" x1="6.675" y1="-31.356" x2="0.306" y2="-31.356"/>
		<line style="fill:none;stroke:#000000;stroke-width:0.3;" x1="15.592" y1="-31.356" x2="9.223" y2="-31.356"/>
		<line style="fill:none;stroke:#000000;stroke-width:0.3;" x1="24.509" y1="-31.356" x2="18.14" y2="-31.356"/>
		<line style="fill:none;stroke:#000000;stroke-width:0.3;" x1="33.425" y1="-31.356" x2="27.056" y2="-31.356"/>
		<line style="fill:none;stroke:#000000;stroke-width:0.3;" x1="42.342" y1="-31.356" x2="35.973" y2="-31.356"/>
		<line style="fill:none;stroke:#000000;stroke-width:0.3;" x1="44.889" y1="-31.356" x2="51.258" y2="-31.356"/>
		<line style="fill:none;stroke:#000000;stroke-width:0.3;" x1="3.458" y1="-28.387" x2="0" y2="-28.387"/>
		<line style="fill:none;stroke:#000000;stroke-width:0.3;" x1="6.038" y1="-28.387" x2="12.407" y2="-28.387"/>
		<line style="fill:none;stroke:#000000;stroke-width:0.3;" x1="14.955" y1="-28.387" x2="21.324" y2="-28.387"/>
		<line style="fill:none;stroke:#000000;stroke-width:0.3;" x1="23.871" y1="-28.387" x2="30.24" y2="-28.387"/>
		<line style="fill:none;stroke:#000000;stroke-width:0.3;" x1="32.788" y1="-28.387" x2="39.157" y2="-28.387"/>
		<line style="fill:none;stroke:#000000;stroke-width:0.3;" x1="41.705" y1="-28.387" x2="48.073" y2="-28.387"/>
		<line style="fill:none;stroke:#000000;stroke-width:0.3;" x1="50.621" y1="-28.387" x2="53.584" y2="-28.387"/>
		<line style="fill:none;stroke:#000000;stroke-width:0.3;" x1="7.949" y1="-25.535" x2="1.58" y2="-25.535"/>
		<line style="fill:none;stroke:#000000;stroke-width:0.3;" x1="16.865" y1="-25.535" x2="10.496" y2="-25.535"/>
		<line style="fill:none;stroke:#000000;stroke-width:0.3;" x1="25.782" y1="-25.535" x2="19.413" y2="-25.535"/>
		<line style="fill:none;stroke:#000000;stroke-width:0.3;" x1="34.698" y1="-25.535" x2="28.33" y2="-25.535"/>
		<line style="fill:none;stroke:#000000;stroke-width:0.3;" x1="43.615" y1="-25.535" x2="37.246" y2="-25.535"/>
		<line style="fill:none;stroke:#000000;stroke-width:0.3;" x1="52.532" y1="-25.535" x2="46.163" y2="-25.535"/>
		<line style="fill:none;stroke:#000000;stroke-width:0.3;" x1="0" y1="-13.372" x2="6.038" y2="-13.372"/>
		<line style="fill:none;stroke:#000000;stroke-width:0.3;" x1="14.955" y1="-13.372" x2="8.586" y2="-13.372"/>
		<line style="fill:none;stroke:#000000;stroke-width:0.3;" x1="17.502" y1="-13.372" x2="23.871" y2="-13.372"/>
		<line style="fill:none;stroke:#000000;stroke-width:0.3;" x1="26.419" y1="-13.372" x2="32.788" y2="-13.372"/>
		<line style="fill:none;stroke:#000000;stroke-width:0.3;" x1="35.336" y1="-13.372" x2="41.705" y2="-13.372"/>
		<line style="fill:none;stroke:#000000;stroke-width:0.3;" x1="44.252" y1="-13.372" x2="50.621" y2="-13.372"/>
		<line style="fill:none;stroke:#000000;stroke-width:0.3;" x1="53.584" y1="-13.372" x2="53.169" y2="-13.372"/>
		<line style="fill:none;stroke:#000000;stroke-width:0.3;" x1="0" y1="-10.576" x2="3.14" y2="-10.576"/>
		<line style="fill:none;stroke:#000000;stroke-width:0.3;" x1="12.089" y1="-10.576" x2="5.72" y2="-10.576"/>
		<line style="fill:none;stroke:#000000;stroke-width:0.3;" x1="21.006" y1="-10.576" x2="14.637" y2="-10.576"/>
		<line style="fill:none;stroke:#000000;stroke-width:0.3;" x1="29.922" y1="-10.576" x2="23.553" y2="-10.576"/>
		<line style="fill:none;stroke:#000000;stroke-width:0.3;" x1="38.839" y1="-10.576" x2="32.47" y2="-10.576"/>
		<line style="fill:none;stroke:#000000;stroke-width:0.3;" x1="47.755" y1="-10.576" x2="41.386" y2="-10.576"/>
		<line style="fill:none;stroke:#000000;stroke-width:0.3;" x1="50.303" y1="-10.576" x2="53.584" y2="-10.576"/>
		<line style="fill:none;stroke:#000000;stroke-width:0.3;" x1="8.268" y1="-7.44" x2="1.898" y2="-7.44"/>
		<line style="fill:none;stroke:#000000;stroke-width:0.3;" x1="10.814" y1="-7.44" x2="17.184" y2="-7.44"/>
		<line style="fill:none;stroke:#000000;stroke-width:0.3;" x1="26.101" y1="-7.44" x2="19.731" y2="-7.44"/>
		<line style="fill:none;stroke:#000000;stroke-width:0.3;" x1="35.018" y1="-7.44" x2="28.648" y2="-7.44"/>
		<line style="fill:none;stroke:#000000;stroke-width:0.3;" x1="37.564" y1="-7.44" x2="43.934" y2="-7.44"/>
		<line style="fill:none;stroke:#000000;stroke-width:0.3;" x1="46.481" y1="-7.44" x2="52.851" y2="-7.44"/>
		<line style="fill:none;stroke:#000000;stroke-width:0.3;" x1="4.731" y1="-4.471" x2="0" y2="-4.471"/>
		<line style="fill:none;stroke:#000000;stroke-width:0.3;" x1="7.312" y1="-4.471" x2="13.681" y2="-4.471"/>
		<line style="fill:none;stroke:#000000;stroke-width:0.3;" x1="16.229" y1="-4.471" x2="22.598" y2="-4.471"/>
		<line style="fill:none;stroke:#000000;stroke-width:0.3;" x1="25.146" y1="-4.471" x2="31.515" y2="-4.471"/>
		<line style="fill:none;stroke:#000000;stroke-width:0.3;" x1="34.062" y1="-4.471" x2="40.431" y2="-4.471"/>
		<line style="fill:none;stroke:#000000;stroke-width:0.3;" x1="42.979" y1="-4.471" x2="49.348" y2="-4.471"/>
		<line style="fill:none;stroke:#000000;stroke-width:0.3;" x1="51.896" y1="-4.471" x2="53.584" y2="-4.471"/>
		<line style="fill:none;stroke:#000000;stroke-width:0.3;" x1="8.586" y1="-1.5" x2="2.217" y2="-1.5"/>
		<line style="fill:none;stroke:#000000;stroke-width:0.3;" x1="17.502" y1="-1.5" x2="11.134" y2="-1.5"/>
		<line style="fill:none;stroke:#000000;stroke-width:0.3;" x1="26.419" y1="-1.5" x2="20.05" y2="-1.5"/>
		<line style="fill:none;stroke:#000000;stroke-width:0.3;" x1="35.336" y1="-1.5" x2="28.967" y2="-1.5"/>
		<line style="fill:none;stroke:#000000;stroke-width:0.3;" x1="44.252" y1="-1.5" x2="37.883" y2="-1.5"/>
		<line style="fill:none;stroke:#000000;stroke-width:0.3;" x1="53.169" y1="-1.5" x2="46.8" y2="-1.5"/>
		<line style="fill:none;stroke:#000000;stroke-width:0.3;" x1="45.884" y1="-46.37" x2="50.621" y2="-46.37"/>
		<line style="fill:none;stroke:#000000;stroke-width:0.3;" x1="5.259" y1="-46.37" x2="9.121" y2="-46.37"/>
		<line style="fill:none;stroke:#000000;stroke-width:0.3;" x1="37.871" y1="-46.37" x2="31.259" y2="-46.37"/>
		<line style="fill:none;stroke:#000000;stroke-width:0.3;" x1="18.009" y1="-46.37" x2="24.121" y2="-46.37"/>
		<line style="fill:none;stroke:#000000;stroke-width:0.3;" x1="53.584" y1="-46.37" x2="50.621" y2="-46.37"/>
		<line style="fill:none;stroke:#000000;stroke-width:0.3;" x1="31.259" y1="-46.37" x2="24.121" y2="-46.37"/>
		<line style="fill:none;stroke:#000000;stroke-width:0.3;" x1="9.121" y1="-46.37" x2="18.009" y2="-46.37"/>
		<line style="fill:none;stroke:#000000;stroke-width:0.3;" x1="45.884" y1="-46.37" x2="37.871" y2="-46.37"/>
		<line style="fill:none;stroke:#000000;stroke-width:0.3;" x1="5.259" y1="-46.37" x2="0" y2="-46.37"/>
		<line style="fill:none;stroke:#000000;stroke-width:0.3;" x1="53.584" y1="-43.088" x2="0" y2="-43.088"/>
		<line style="fill:none;stroke:#000000;stroke-width:0.3;" x1="45.884" y1="-46.37" x2="45.884" y2="-43.101"/>
		<line style="fill:none;stroke:#000000;stroke-width:0.3;" x1="45.884" y1="-46.37" x2="45.884" y2="-46.401"/>
		<line style="fill:none;stroke:#000000;stroke-width:0.3;" x1="31.259" y1="-46.401" x2="31.259" y2="-46.37"/>
		<line style="fill:none;stroke:#000000;stroke-width:0.3;" x1="31.259" y1="-46.37" x2="31.259" y2="-43.101"/>
		<line style="fill:none;stroke:#000000;stroke-width:0.3;" x1="18.009" y1="-43.101" x2="18.009" y2="-46.37"/>
		<line style="fill:none;stroke:#000000;stroke-width:0.3;" x1="18.009" y1="-46.37" x2="18.009" y2="-46.401"/>
		<line style="fill:none;stroke:#000000;stroke-width:0.3;" x1="5.259" y1="-46.37" x2="5.259" y2="-43.101"/>
		<line style="fill:none;stroke:#000000;stroke-width:0.3;" x1="5.259" y1="-46.37" x2="5.259" y2="-46.401"/>
		<line style="fill:none;stroke:#000000;stroke-width:0.3;" x1="37.871" y1="-49.748" x2="50.621" y2="-49.748"/>
		<line style="fill:none;stroke:#000000;stroke-width:0.3;" x1="50.621" y1="-49.748" x2="53.584" y2="-49.748"/>
		<line style="fill:none;stroke:#000000;stroke-width:0.3;" x1="9.121" y1="-49.748" x2="0" y2="-49.748"/>
		<line style="fill:none;stroke:#000000;stroke-width:0.3;" x1="37.871" y1="-49.748" x2="24.121" y2="-49.748"/>
		<line style="fill:none;stroke:#000000;stroke-width:0.3;" x1="9.121" y1="-49.748" x2="24.121" y2="-49.748"/>
		<line style="fill:none;stroke:#000000;stroke-width:0.3;" x1="9.121" y1="-46.335" x2="9.121" y2="-46.37"/>
		<line style="fill:none;stroke:#000000;stroke-width:0.3;" x1="9.121" y1="-49.748" x2="9.121" y2="-46.37"/>
		<line style="fill:none;stroke:#000000;stroke-width:0.3;" x1="9.121" y1="-49.748" x2="9.121" y2="-49.76"/>
		<line style="fill:none;stroke:#000000;stroke-width:0.3;" x1="24.121" y1="-49.748" x2="24.121" y2="-49.76"/>
		<line style="fill:none;stroke:#000000;stroke-width:0.3;" x1="24.121" y1="-46.37" x2="24.121" y2="-49.748"/>
		<line style="fill:none;stroke:#000000;stroke-width:0.3;" x1="24.121" y1="-46.335" x2="24.121" y2="-46.37"/>
		<line style="fill:none;stroke:#000000;stroke-width:0.3;" x1="37.871" y1="-49.748" x2="37.871" y2="-49.76"/>
		<line style="fill:none;stroke:#000000;stroke-width:0.3;" x1="37.871" y1="-46.37" x2="37.871" y2="-46.335"/>
		<line style="fill:none;stroke:#000000;stroke-width:0.3;" x1="37.871" y1="-49.748" x2="37.871" y2="-46.37"/>
		<line style="fill:none;stroke:#000000;stroke-width:0.3;" x1="50.621" y1="-49.748" x2="50.621" y2="-49.76"/>
		<line style="fill:none;stroke:#000000;stroke-width:0.3;" x1="50.621" y1="-46.37" x2="50.621" y2="-49.748"/>
		<line style="fill:none;stroke:#000000;stroke-width:0.3;" x1="50.621" y1="-46.335" x2="50.621" y2="-46.37"/>
		<line style="fill:none;stroke:#000000;stroke-width:0.3;" x1="8.436" y1="-15.659" x2="21.685" y2="-15.659"/>
		<line style="fill:none;stroke:#000000;stroke-width:0.3;" x1="35.311" y1="-15.659" x2="21.685" y2="-15.659"/>
		<line style="fill:none;stroke:#000000;stroke-width:0.3;" x1="50.186" y1="-15.659" x2="53.584" y2="-15.659"/>
		<line style="fill:none;stroke:#000000;stroke-width:0.3;" x1="8.436" y1="-15.659" x2="0" y2="-15.659"/>
		<line style="fill:none;stroke:#000000;stroke-width:0.3;" x1="35.311" y1="-15.659" x2="50.186" y2="-15.659"/>
		<line style="fill:none;stroke:#000000;stroke-width:0.3;" x1="53.584" y1="-22.497" x2="0" y2="-22.497"/>
		<line style="fill:none;stroke:#000000;stroke-width:0.3;" x1="53.584" y1="-19.271" x2="0" y2="-19.271"/>
		<line style="fill:none;stroke:#000000;stroke-width:0.3;" x1="43.752" y1="-19.284" x2="43.752" y2="-22.446"/>
		<line style="fill:none;stroke:#000000;stroke-width:0.3;" x1="29.603" y1="-19.284" x2="29.603" y2="-22.446"/>
		<line style="fill:none;stroke:#000000;stroke-width:0.3;" x1="14.477" y1="-19.284" x2="14.477" y2="-22.446"/>
		<line style="fill:none;stroke:#000000;stroke-width:0.3;" x1="2.06" y1="-22.446" x2="2.06" y2="-19.284"/>
		<line style="fill:none;stroke:#000000;stroke-width:0.3;" x1="8.436" y1="-15.659" x2="8.436" y2="-19.221"/>
		<line style="fill:none;stroke:#000000;stroke-width:0.3;" x1="21.685" y1="-19.221" x2="21.685" y2="-15.659"/>
		<line style="fill:none;stroke:#000000;stroke-width:0.3;" x1="35.311" y1="-15.659" x2="35.311" y2="-19.221"/>
		<line style="fill:none;stroke:#000000;stroke-width:0.3;" x1="50.186" y1="-15.659" x2="50.186" y2="-19.221"/>
	</g>
</svg>
