<?xml version="1.0"?>
<!-- Converted with SVG Converter - Version 0.9.5 (Compiled Fri Feb 21 09:53:38 2020) - Copyright (C) 2011 Nokia -->
<svg xmlns="http://www.w3.org/2000/svg" y="0px" xml:space="preserve" width="53.584" viewBox="0 -53.584 53.584 53.584" baseProfile="tiny" version="1.1" x="0px" height="53.584" xmlns:xlink="http://www.w3.org/1999/xlink">
 <g>
  <rect y="-53.584" width="53.584" style="fill:none;" x="0" height="53.584"/>
  <line y2="-52.321" y1="-52.321" x1="3.776" style="fill:none;stroke:#000000;stroke-width:0.3;" x2="0"/>
  <line y2="-52.321" y1="-52.321" x1="6.356" style="fill:none;stroke:#000000;stroke-width:0.3;" x2="12.726"/>
  <line y2="-52.321" y1="-52.321" x1="15.273" style="fill:none;stroke:#000000;stroke-width:0.3;" x2="21.643"/>
  <line y2="-52.321" y1="-52.321" x1="24.19" style="fill:none;stroke:#000000;stroke-width:0.3;" x2="30.559"/>
  <line y2="-52.321" y1="-52.321" x1="33.106" style="fill:none;stroke:#000000;stroke-width:0.3;" x2="39.476"/>
  <line y2="-52.321" y1="-52.321" x1="42.023" style="fill:none;stroke:#000000;stroke-width:0.3;" x2="48.393"/>
  <line y2="-52.321" y1="-52.321" x1="53.584" style="fill:none;stroke:#000000;stroke-width:0.3;" x2="50.939"/>
  <line y2="-40.441" y1="-40.441" x1="0" style="fill:none;stroke:#000000;stroke-width:0.3;" x2="1.706"/>
  <line y2="-40.441" y1="-40.441" x1="4.287" style="fill:none;stroke:#000000;stroke-width:0.3;" x2="10.655"/>
  <line y2="-40.441" y1="-40.441" x1="13.203" style="fill:none;stroke:#000000;stroke-width:0.3;" x2="19.572"/>
  <line y2="-40.441" y1="-40.441" x1="22.12" style="fill:none;stroke:#000000;stroke-width:0.3;" x2="28.489"/>
  <line y2="-40.441" y1="-40.441" x1="31.036" style="fill:none;stroke:#000000;stroke-width:0.3;" x2="37.405"/>
  <line y2="-40.441" y1="-40.441" x1="39.953" style="fill:none;stroke:#000000;stroke-width:0.3;" x2="46.322"/>
  <line y2="-40.441" y1="-40.441" x1="48.87" style="fill:none;stroke:#000000;stroke-width:0.3;" x2="53.584"/>
  <line y2="-37.437" y1="-37.437" x1="5.242" style="fill:none;stroke:#000000;stroke-width:0.3;" x2="0"/>
  <line y2="-37.437" y1="-37.437" x1="14.159" style="fill:none;stroke:#000000;stroke-width:0.3;" x2="7.79"/>
  <line y2="-37.437" y1="-37.437" x1="23.075" style="fill:none;stroke:#000000;stroke-width:0.3;" x2="16.706"/>
  <line y2="-37.437" y1="-37.437" x1="31.992" style="fill:none;stroke:#000000;stroke-width:0.3;" x2="25.623"/>
  <line y2="-37.437" y1="-37.437" x1="40.908" style="fill:none;stroke:#000000;stroke-width:0.3;" x2="34.539"/>
  <line y2="-37.437" y1="-37.437" x1="49.825" style="fill:none;stroke:#000000;stroke-width:0.3;" x2="43.456"/>
  <line y2="-37.437" y1="-37.437" x1="53.584" style="fill:none;stroke:#000000;stroke-width:0.3;" x2="52.373"/>
  <line y2="-34.27" y1="-34.27" x1="0" style="fill:none;stroke:#000000;stroke-width:0.3;" x2="2.184"/>
  <line y2="-34.27" y1="-34.27" x1="11.134" style="fill:none;stroke:#000000;stroke-width:0.3;" x2="4.765"/>
  <line y2="-34.27" y1="-34.27" x1="13.681" style="fill:none;stroke:#000000;stroke-width:0.3;" x2="20.05"/>
  <line y2="-34.27" y1="-34.27" x1="22.598" style="fill:none;stroke:#000000;stroke-width:0.3;" x2="28.967"/>
  <line y2="-34.27" y1="-34.27" x1="31.515" style="fill:none;stroke:#000000;stroke-width:0.3;" x2="37.883"/>
  <line y2="-34.27" y1="-34.27" x1="40.431" style="fill:none;stroke:#000000;stroke-width:0.3;" x2="46.8"/>
  <line y2="-34.27" y1="-34.27" x1="49.348" style="fill:none;stroke:#000000;stroke-width:0.3;" x2="53.584"/>
  <line y2="-31.356" y1="-31.356" x1="6.675" style="fill:none;stroke:#000000;stroke-width:0.3;" x2="0.306"/>
  <line y2="-31.356" y1="-31.356" x1="15.592" style="fill:none;stroke:#000000;stroke-width:0.3;" x2="9.223"/>
  <line y2="-31.356" y1="-31.356" x1="24.509" style="fill:none;stroke:#000000;stroke-width:0.3;" x2="18.14"/>
  <line y2="-31.356" y1="-31.356" x1="33.425" style="fill:none;stroke:#000000;stroke-width:0.3;" x2="27.056"/>
  <line y2="-31.356" y1="-31.356" x1="42.342" style="fill:none;stroke:#000000;stroke-width:0.3;" x2="35.973"/>
  <line y2="-31.356" y1="-31.356" x1="44.889" style="fill:none;stroke:#000000;stroke-width:0.3;" x2="51.258"/>
  <line y2="-28.387" y1="-28.387" x1="3.458" style="fill:none;stroke:#000000;stroke-width:0.3;" x2="0"/>
  <line y2="-28.387" y1="-28.387" x1="6.038" style="fill:none;stroke:#000000;stroke-width:0.3;" x2="12.407"/>
  <line y2="-28.387" y1="-28.387" x1="14.955" style="fill:none;stroke:#000000;stroke-width:0.3;" x2="21.324"/>
  <line y2="-28.387" y1="-28.387" x1="23.871" style="fill:none;stroke:#000000;stroke-width:0.3;" x2="30.24"/>
  <line y2="-28.387" y1="-28.387" x1="32.788" style="fill:none;stroke:#000000;stroke-width:0.3;" x2="39.157"/>
  <line y2="-28.387" y1="-28.387" x1="41.705" style="fill:none;stroke:#000000;stroke-width:0.3;" x2="48.073"/>
  <line y2="-28.387" y1="-28.387" x1="50.621" style="fill:none;stroke:#000000;stroke-width:0.3;" x2="53.584"/>
  <line y2="-25.535" y1="-25.535" x1="7.949" style="fill:none;stroke:#000000;stroke-width:0.3;" x2="1.58"/>
  <line y2="-25.535" y1="-25.535" x1="16.865" style="fill:none;stroke:#000000;stroke-width:0.3;" x2="10.496"/>
  <line y2="-25.535" y1="-25.535" x1="25.782" style="fill:none;stroke:#000000;stroke-width:0.3;" x2="19.413"/>
  <line y2="-25.535" y1="-25.535" x1="34.698" style="fill:none;stroke:#000000;stroke-width:0.3;" x2="28.33"/>
  <line y2="-25.535" y1="-25.535" x1="43.615" style="fill:none;stroke:#000000;stroke-width:0.3;" x2="37.246"/>
  <line y2="-25.535" y1="-25.535" x1="52.532" style="fill:none;stroke:#000000;stroke-width:0.3;" x2="46.163"/>
  <line y2="-13.372" y1="-13.372" x1="0" style="fill:none;stroke:#000000;stroke-width:0.3;" x2="6.038"/>
  <line y2="-13.372" y1="-13.372" x1="14.955" style="fill:none;stroke:#000000;stroke-width:0.3;" x2="8.586"/>
  <line y2="-13.372" y1="-13.372" x1="17.502" style="fill:none;stroke:#000000;stroke-width:0.3;" x2="23.871"/>
  <line y2="-13.372" y1="-13.372" x1="26.419" style="fill:none;stroke:#000000;stroke-width:0.3;" x2="32.788"/>
  <line y2="-13.372" y1="-13.372" x1="35.336" style="fill:none;stroke:#000000;stroke-width:0.3;" x2="41.705"/>
  <line y2="-13.372" y1="-13.372" x1="44.252" style="fill:none;stroke:#000000;stroke-width:0.3;" x2="50.621"/>
  <line y2="-13.372" y1="-13.372" x1="53.584" style="fill:none;stroke:#000000;stroke-width:0.3;" x2="53.169"/>
  <line y2="-10.576" y1="-10.576" x1="0" style="fill:none;stroke:#000000;stroke-width:0.3;" x2="3.14"/>
  <line y2="-10.576" y1="-10.576" x1="12.089" style="fill:none;stroke:#000000;stroke-width:0.3;" x2="5.72"/>
  <line y2="-10.576" y1="-10.576" x1="21.006" style="fill:none;stroke:#000000;stroke-width:0.3;" x2="14.637"/>
  <line y2="-10.576" y1="-10.576" x1="29.922" style="fill:none;stroke:#000000;stroke-width:0.3;" x2="23.553"/>
  <line y2="-10.576" y1="-10.576" x1="38.839" style="fill:none;stroke:#000000;stroke-width:0.3;" x2="32.47"/>
  <line y2="-10.576" y1="-10.576" x1="47.755" style="fill:none;stroke:#000000;stroke-width:0.3;" x2="41.386"/>
  <line y2="-10.576" y1="-10.576" x1="50.303" style="fill:none;stroke:#000000;stroke-width:0.3;" x2="53.584"/>
  <line y2="-7.44" y1="-7.44" x1="8.268" style="fill:none;stroke:#000000;stroke-width:0.3;" x2="1.898"/>
  <line y2="-7.44" y1="-7.44" x1="10.814" style="fill:none;stroke:#000000;stroke-width:0.3;" x2="17.184"/>
  <line y2="-7.44" y1="-7.44" x1="26.101" style="fill:none;stroke:#000000;stroke-width:0.3;" x2="19.731"/>
  <line y2="-7.44" y1="-7.44" x1="35.018" style="fill:none;stroke:#000000;stroke-width:0.3;" x2="28.648"/>
  <line y2="-7.44" y1="-7.44" x1="37.564" style="fill:none;stroke:#000000;stroke-width:0.3;" x2="43.934"/>
  <line y2="-7.44" y1="-7.44" x1="46.481" style="fill:none;stroke:#000000;stroke-width:0.3;" x2="52.851"/>
  <line y2="-4.471" y1="-4.471" x1="4.731" style="fill:none;stroke:#000000;stroke-width:0.3;" x2="0"/>
  <line y2="-4.471" y1="-4.471" x1="7.312" style="fill:none;stroke:#000000;stroke-width:0.3;" x2="13.681"/>
  <line y2="-4.471" y1="-4.471" x1="16.229" style="fill:none;stroke:#000000;stroke-width:0.3;" x2="22.598"/>
  <line y2="-4.471" y1="-4.471" x1="25.146" style="fill:none;stroke:#000000;stroke-width:0.3;" x2="31.515"/>
  <line y2="-4.471" y1="-4.471" x1="34.062" style="fill:none;stroke:#000000;stroke-width:0.3;" x2="40.431"/>
  <line y2="-4.471" y1="-4.471" x1="42.979" style="fill:none;stroke:#000000;stroke-width:0.3;" x2="49.348"/>
  <line y2="-4.471" y1="-4.471" x1="51.896" style="fill:none;stroke:#000000;stroke-width:0.3;" x2="53.584"/>
  <line y2="-1.5" y1="-1.5" x1="8.586" style="fill:none;stroke:#000000;stroke-width:0.3;" x2="2.217"/>
  <line y2="-1.5" y1="-1.5" x1="17.502" style="fill:none;stroke:#000000;stroke-width:0.3;" x2="11.134"/>
  <line y2="-1.5" y1="-1.5" x1="26.419" style="fill:none;stroke:#000000;stroke-width:0.3;" x2="20.05"/>
  <line y2="-1.5" y1="-1.5" x1="35.336" style="fill:none;stroke:#000000;stroke-width:0.3;" x2="28.967"/>
  <line y2="-1.5" y1="-1.5" x1="44.252" style="fill:none;stroke:#000000;stroke-width:0.3;" x2="37.883"/>
  <line y2="-1.5" y1="-1.5" x1="53.169" style="fill:none;stroke:#000000;stroke-width:0.3;" x2="46.8"/>
  <line y2="-46.37" y1="-46.37" x1="45.884" style="fill:none;stroke:#000000;stroke-width:0.3;" x2="50.621"/>
  <line y2="-46.37" y1="-46.37" x1="5.259" style="fill:none;stroke:#000000;stroke-width:0.3;" x2="9.121"/>
  <line y2="-46.37" y1="-46.37" x1="37.871" style="fill:none;stroke:#000000;stroke-width:0.3;" x2="31.259"/>
  <line y2="-46.37" y1="-46.37" x1="18.009" style="fill:none;stroke:#000000;stroke-width:0.3;" x2="24.121"/>
  <line y2="-46.37" y1="-46.37" x1="53.584" style="fill:none;stroke:#000000;stroke-width:0.3;" x2="50.621"/>
  <line y2="-46.37" y1="-46.37" x1="31.259" style="fill:none;stroke:#000000;stroke-width:0.3;" x2="24.121"/>
  <line y2="-46.37" y1="-46.37" x1="9.121" style="fill:none;stroke:#000000;stroke-width:0.3;" x2="18.009"/>
  <line y2="-46.37" y1="-46.37" x1="45.884" style="fill:none;stroke:#000000;stroke-width:0.3;" x2="37.871"/>
  <line y2="-46.37" y1="-46.37" x1="5.259" style="fill:none;stroke:#000000;stroke-width:0.3;" x2="0"/>
  <line y2="-43.088" y1="-43.088" x1="53.584" style="fill:none;stroke:#000000;stroke-width:0.3;" x2="0"/>
  <line y2="-43.101" y1="-46.37" x1="45.884" style="fill:none;stroke:#000000;stroke-width:0.3;" x2="45.884"/>
  <line y2="-46.401" y1="-46.37" x1="45.884" style="fill:none;stroke:#000000;stroke-width:0.3;" x2="45.884"/>
  <line y2="-46.37" y1="-46.401" x1="31.259" style="fill:none;stroke:#000000;stroke-width:0.3;" x2="31.259"/>
  <line y2="-43.101" y1="-46.37" x1="31.259" style="fill:none;stroke:#000000;stroke-width:0.3;" x2="31.259"/>
  <line y2="-46.37" y1="-43.101" x1="18.009" style="fill:none;stroke:#000000;stroke-width:0.3;" x2="18.009"/>
  <line y2="-46.401" y1="-46.37" x1="18.009" style="fill:none;stroke:#000000;stroke-width:0.3;" x2="18.009"/>
  <line y2="-43.101" y1="-46.37" x1="5.259" style="fill:none;stroke:#000000;stroke-width:0.3;" x2="5.259"/>
  <line y2="-46.401" y1="-46.37" x1="5.259" style="fill:none;stroke:#000000;stroke-width:0.3;" x2="5.259"/>
  <line y2="-49.748" y1="-49.748" x1="37.871" style="fill:none;stroke:#000000;stroke-width:0.3;" x2="50.621"/>
  <line y2="-49.748" y1="-49.748" x1="50.621" style="fill:none;stroke:#000000;stroke-width:0.3;" x2="53.584"/>
  <line y2="-49.748" y1="-49.748" x1="9.121" style="fill:none;stroke:#000000;stroke-width:0.3;" x2="0"/>
  <line y2="-49.748" y1="-49.748" x1="37.871" style="fill:none;stroke:#000000;stroke-width:0.3;" x2="24.121"/>
  <line y2="-49.748" y1="-49.748" x1="9.121" style="fill:none;stroke:#000000;stroke-width:0.3;" x2="24.121"/>
  <line y2="-46.37" y1="-46.335" x1="9.121" style="fill:none;stroke:#000000;stroke-width:0.3;" x2="9.121"/>
  <line y2="-46.37" y1="-49.748" x1="9.121" style="fill:none;stroke:#000000;stroke-width:0.3;" x2="9.121"/>
  <line y2="-49.76" y1="-49.748" x1="9.121" style="fill:none;stroke:#000000;stroke-width:0.3;" x2="9.121"/>
  <line y2="-49.76" y1="-49.748" x1="24.121" style="fill:none;stroke:#000000;stroke-width:0.3;" x2="24.121"/>
  <line y2="-49.748" y1="-46.37" x1="24.121" style="fill:none;stroke:#000000;stroke-width:0.3;" x2="24.121"/>
  <line y2="-46.37" y1="-46.335" x1="24.121" style="fill:none;stroke:#000000;stroke-width:0.3;" x2="24.121"/>
  <line y2="-49.76" y1="-49.748" x1="37.871" style="fill:none;stroke:#000000;stroke-width:0.3;" x2="37.871"/>
  <line y2="-46.335" y1="-46.37" x1="37.871" style="fill:none;stroke:#000000;stroke-width:0.3;" x2="37.871"/>
  <line y2="-46.37" y1="-49.748" x1="37.871" style="fill:none;stroke:#000000;stroke-width:0.3;" x2="37.871"/>
  <line y2="-49.76" y1="-49.748" x1="50.621" style="fill:none;stroke:#000000;stroke-width:0.3;" x2="50.621"/>
  <line y2="-49.748" y1="-46.37" x1="50.621" style="fill:none;stroke:#000000;stroke-width:0.3;" x2="50.621"/>
  <line y2="-46.37" y1="-46.335" x1="50.621" style="fill:none;stroke:#000000;stroke-width:0.3;" x2="50.621"/>
  <line y2="-15.659" y1="-15.659" x1="8.436" style="fill:none;stroke:#000000;stroke-width:0.3;" x2="21.685"/>
  <line y2="-15.659" y1="-15.659" x1="35.311" style="fill:none;stroke:#000000;stroke-width:0.3;" x2="21.685"/>
  <line y2="-15.659" y1="-15.659" x1="50.186" style="fill:none;stroke:#000000;stroke-width:0.3;" x2="53.584"/>
  <line y2="-15.659" y1="-15.659" x1="8.436" style="fill:none;stroke:#000000;stroke-width:0.3;" x2="0"/>
  <line y2="-15.659" y1="-15.659" x1="35.311" style="fill:none;stroke:#000000;stroke-width:0.3;" x2="50.186"/>
  <line y2="-22.497" y1="-22.497" x1="53.584" style="fill:none;stroke:#000000;stroke-width:0.3;" x2="0"/>
  <line y2="-19.271" y1="-19.271" x1="53.584" style="fill:none;stroke:#000000;stroke-width:0.3;" x2="0"/>
  <line y2="-22.446" y1="-19.284" x1="43.752" style="fill:none;stroke:#000000;stroke-width:0.3;" x2="43.752"/>
  <line y2="-22.446" y1="-19.284" x1="29.603" style="fill:none;stroke:#000000;stroke-width:0.3;" x2="29.603"/>
  <line y2="-22.446" y1="-19.284" x1="14.477" style="fill:none;stroke:#000000;stroke-width:0.3;" x2="14.477"/>
  <line y2="-19.284" y1="-22.446" x1="2.06" style="fill:none;stroke:#000000;stroke-width:0.3;" x2="2.06"/>
  <line y2="-19.221" y1="-15.659" x1="8.436" style="fill:none;stroke:#000000;stroke-width:0.3;" x2="8.436"/>
  <line y2="-15.659" y1="-19.221" x1="21.685" style="fill:none;stroke:#000000;stroke-width:0.3;" x2="21.685"/>
  <line y2="-19.221" y1="-15.659" x1="35.311" style="fill:none;stroke:#000000;stroke-width:0.3;" x2="35.311"/>
  <line y2="-19.221" y1="-15.659" x1="50.186" style="fill:none;stroke:#000000;stroke-width:0.3;" x2="50.186"/>
 </g>
</svg>
