<?xml version="1.0"?>
<!-- Converted with SVG Converter - Version 0.9.5 (Compiled Fri Feb 21 09:53:38 2020) - Copyright (C) 2011 Nokia -->
<svg xmlns="http://www.w3.org/2000/svg" y="0px" viewBox="0 -53.584 53.584 53.584" xml:space="preserve" height="53.584" version="1.1" x="0px" width="53.584" baseProfile="tiny" xmlns:xlink="http://www.w3.org/1999/xlink">
 <g>
  <rect y="-53.584" style="fill:none;" height="53.584" x="0" width="53.584"/>
  <line style="fill:none;stroke:#000000;stroke-width:0.3;" x1="3.776" x2="0" y2="-52.321" y1="-52.321"/>
  <line style="fill:none;stroke:#000000;stroke-width:0.3;" x1="6.356" x2="12.726" y2="-52.321" y1="-52.321"/>
  <line style="fill:none;stroke:#000000;stroke-width:0.3;" x1="15.273" x2="21.643" y2="-52.321" y1="-52.321"/>
  <line style="fill:none;stroke:#000000;stroke-width:0.3;" x1="24.19" x2="30.559" y2="-52.321" y1="-52.321"/>
  <line style="fill:none;stroke:#000000;stroke-width:0.3;" x1="33.106" x2="39.476" y2="-52.321" y1="-52.321"/>
  <line style="fill:none;stroke:#000000;stroke-width:0.3;" x1="42.023" x2="48.393" y2="-52.321" y1="-52.321"/>
  <line style="fill:none;stroke:#000000;stroke-width:0.3;" x1="53.584" x2="50.939" y2="-52.321" y1="-52.321"/>
  <line style="fill:none;stroke:#000000;stroke-width:0.3;" x1="0" x2="1.706" y2="-40.441" y1="-40.441"/>
  <line style="fill:none;stroke:#000000;stroke-width:0.3;" x1="4.287" x2="10.655" y2="-40.441" y1="-40.441"/>
  <line style="fill:none;stroke:#000000;stroke-width:0.3;" x1="13.203" x2="19.572" y2="-40.441" y1="-40.441"/>
  <line style="fill:none;stroke:#000000;stroke-width:0.3;" x1="22.12" x2="28.489" y2="-40.441" y1="-40.441"/>
  <line style="fill:none;stroke:#000000;stroke-width:0.3;" x1="31.036" x2="37.405" y2="-40.441" y1="-40.441"/>
  <line style="fill:none;stroke:#000000;stroke-width:0.3;" x1="39.953" x2="46.322" y2="-40.441" y1="-40.441"/>
  <line style="fill:none;stroke:#000000;stroke-width:0.3;" x1="48.87" x2="53.584" y2="-40.441" y1="-40.441"/>
  <line style="fill:none;stroke:#000000;stroke-width:0.3;" x1="5.242" x2="0" y2="-37.437" y1="-37.437"/>
  <line style="fill:none;stroke:#000000;stroke-width:0.3;" x1="14.159" x2="7.79" y2="-37.437" y1="-37.437"/>
  <line style="fill:none;stroke:#000000;stroke-width:0.3;" x1="23.075" x2="16.706" y2="-37.437" y1="-37.437"/>
  <line style="fill:none;stroke:#000000;stroke-width:0.3;" x1="31.992" x2="25.623" y2="-37.437" y1="-37.437"/>
  <line style="fill:none;stroke:#000000;stroke-width:0.3;" x1="40.908" x2="34.539" y2="-37.437" y1="-37.437"/>
  <line style="fill:none;stroke:#000000;stroke-width:0.3;" x1="49.825" x2="43.456" y2="-37.437" y1="-37.437"/>
  <line style="fill:none;stroke:#000000;stroke-width:0.3;" x1="53.584" x2="52.373" y2="-37.437" y1="-37.437"/>
  <line style="fill:none;stroke:#000000;stroke-width:0.3;" x1="0" x2="2.184" y2="-34.27" y1="-34.27"/>
  <line style="fill:none;stroke:#000000;stroke-width:0.3;" x1="11.134" x2="4.765" y2="-34.27" y1="-34.27"/>
  <line style="fill:none;stroke:#000000;stroke-width:0.3;" x1="13.681" x2="20.05" y2="-34.27" y1="-34.27"/>
  <line style="fill:none;stroke:#000000;stroke-width:0.3;" x1="22.598" x2="28.967" y2="-34.27" y1="-34.27"/>
  <line style="fill:none;stroke:#000000;stroke-width:0.3;" x1="31.515" x2="37.883" y2="-34.27" y1="-34.27"/>
  <line style="fill:none;stroke:#000000;stroke-width:0.3;" x1="40.431" x2="46.8" y2="-34.27" y1="-34.27"/>
  <line style="fill:none;stroke:#000000;stroke-width:0.3;" x1="49.348" x2="53.584" y2="-34.27" y1="-34.27"/>
  <line style="fill:none;stroke:#000000;stroke-width:0.3;" x1="6.675" x2="0.306" y2="-31.356" y1="-31.356"/>
  <line style="fill:none;stroke:#000000;stroke-width:0.3;" x1="15.592" x2="9.223" y2="-31.356" y1="-31.356"/>
  <line style="fill:none;stroke:#000000;stroke-width:0.3;" x1="24.509" x2="18.14" y2="-31.356" y1="-31.356"/>
  <line style="fill:none;stroke:#000000;stroke-width:0.3;" x1="33.425" x2="27.056" y2="-31.356" y1="-31.356"/>
  <line style="fill:none;stroke:#000000;stroke-width:0.3;" x1="42.342" x2="35.973" y2="-31.356" y1="-31.356"/>
  <line style="fill:none;stroke:#000000;stroke-width:0.3;" x1="44.889" x2="51.258" y2="-31.356" y1="-31.356"/>
  <line style="fill:none;stroke:#000000;stroke-width:0.3;" x1="3.458" x2="0" y2="-28.387" y1="-28.387"/>
  <line style="fill:none;stroke:#000000;stroke-width:0.3;" x1="6.038" x2="12.407" y2="-28.387" y1="-28.387"/>
  <line style="fill:none;stroke:#000000;stroke-width:0.3;" x1="14.955" x2="21.324" y2="-28.387" y1="-28.387"/>
  <line style="fill:none;stroke:#000000;stroke-width:0.3;" x1="23.871" x2="30.24" y2="-28.387" y1="-28.387"/>
  <line style="fill:none;stroke:#000000;stroke-width:0.3;" x1="32.788" x2="39.157" y2="-28.387" y1="-28.387"/>
  <line style="fill:none;stroke:#000000;stroke-width:0.3;" x1="41.705" x2="48.073" y2="-28.387" y1="-28.387"/>
  <line style="fill:none;stroke:#000000;stroke-width:0.3;" x1="50.621" x2="53.584" y2="-28.387" y1="-28.387"/>
  <line style="fill:none;stroke:#000000;stroke-width:0.3;" x1="7.949" x2="1.58" y2="-25.535" y1="-25.535"/>
  <line style="fill:none;stroke:#000000;stroke-width:0.3;" x1="16.865" x2="10.496" y2="-25.535" y1="-25.535"/>
  <line style="fill:none;stroke:#000000;stroke-width:0.3;" x1="25.782" x2="19.413" y2="-25.535" y1="-25.535"/>
  <line style="fill:none;stroke:#000000;stroke-width:0.3;" x1="34.698" x2="28.33" y2="-25.535" y1="-25.535"/>
  <line style="fill:none;stroke:#000000;stroke-width:0.3;" x1="43.615" x2="37.246" y2="-25.535" y1="-25.535"/>
  <line style="fill:none;stroke:#000000;stroke-width:0.3;" x1="52.532" x2="46.163" y2="-25.535" y1="-25.535"/>
  <line style="fill:none;stroke:#000000;stroke-width:0.3;" x1="0" x2="6.038" y2="-13.372" y1="-13.372"/>
  <line style="fill:none;stroke:#000000;stroke-width:0.3;" x1="14.955" x2="8.586" y2="-13.372" y1="-13.372"/>
  <line style="fill:none;stroke:#000000;stroke-width:0.3;" x1="17.502" x2="23.871" y2="-13.372" y1="-13.372"/>
  <line style="fill:none;stroke:#000000;stroke-width:0.3;" x1="26.419" x2="32.788" y2="-13.372" y1="-13.372"/>
  <line style="fill:none;stroke:#000000;stroke-width:0.3;" x1="35.336" x2="41.705" y2="-13.372" y1="-13.372"/>
  <line style="fill:none;stroke:#000000;stroke-width:0.3;" x1="44.252" x2="50.621" y2="-13.372" y1="-13.372"/>
  <line style="fill:none;stroke:#000000;stroke-width:0.3;" x1="53.584" x2="53.169" y2="-13.372" y1="-13.372"/>
  <line style="fill:none;stroke:#000000;stroke-width:0.3;" x1="0" x2="3.14" y2="-10.576" y1="-10.576"/>
  <line style="fill:none;stroke:#000000;stroke-width:0.3;" x1="12.089" x2="5.72" y2="-10.576" y1="-10.576"/>
  <line style="fill:none;stroke:#000000;stroke-width:0.3;" x1="21.006" x2="14.637" y2="-10.576" y1="-10.576"/>
  <line style="fill:none;stroke:#000000;stroke-width:0.3;" x1="29.922" x2="23.553" y2="-10.576" y1="-10.576"/>
  <line style="fill:none;stroke:#000000;stroke-width:0.3;" x1="38.839" x2="32.47" y2="-10.576" y1="-10.576"/>
  <line style="fill:none;stroke:#000000;stroke-width:0.3;" x1="47.755" x2="41.386" y2="-10.576" y1="-10.576"/>
  <line style="fill:none;stroke:#000000;stroke-width:0.3;" x1="50.303" x2="53.584" y2="-10.576" y1="-10.576"/>
  <line style="fill:none;stroke:#000000;stroke-width:0.3;" x1="8.268" x2="1.898" y2="-7.44" y1="-7.44"/>
  <line style="fill:none;stroke:#000000;stroke-width:0.3;" x1="10.814" x2="17.184" y2="-7.44" y1="-7.44"/>
  <line style="fill:none;stroke:#000000;stroke-width:0.3;" x1="26.101" x2="19.731" y2="-7.44" y1="-7.44"/>
  <line style="fill:none;stroke:#000000;stroke-width:0.3;" x1="35.018" x2="28.648" y2="-7.44" y1="-7.44"/>
  <line style="fill:none;stroke:#000000;stroke-width:0.3;" x1="37.564" x2="43.934" y2="-7.44" y1="-7.44"/>
  <line style="fill:none;stroke:#000000;stroke-width:0.3;" x1="46.481" x2="52.851" y2="-7.44" y1="-7.44"/>
  <line style="fill:none;stroke:#000000;stroke-width:0.3;" x1="4.731" x2="0" y2="-4.471" y1="-4.471"/>
  <line style="fill:none;stroke:#000000;stroke-width:0.3;" x1="7.312" x2="13.681" y2="-4.471" y1="-4.471"/>
  <line style="fill:none;stroke:#000000;stroke-width:0.3;" x1="16.229" x2="22.598" y2="-4.471" y1="-4.471"/>
  <line style="fill:none;stroke:#000000;stroke-width:0.3;" x1="25.146" x2="31.515" y2="-4.471" y1="-4.471"/>
  <line style="fill:none;stroke:#000000;stroke-width:0.3;" x1="34.062" x2="40.431" y2="-4.471" y1="-4.471"/>
  <line style="fill:none;stroke:#000000;stroke-width:0.3;" x1="42.979" x2="49.348" y2="-4.471" y1="-4.471"/>
  <line style="fill:none;stroke:#000000;stroke-width:0.3;" x1="51.896" x2="53.584" y2="-4.471" y1="-4.471"/>
  <line style="fill:none;stroke:#000000;stroke-width:0.3;" x1="8.586" x2="2.217" y2="-1.5" y1="-1.5"/>
  <line style="fill:none;stroke:#000000;stroke-width:0.3;" x1="17.502" x2="11.134" y2="-1.5" y1="-1.5"/>
  <line style="fill:none;stroke:#000000;stroke-width:0.3;" x1="26.419" x2="20.05" y2="-1.5" y1="-1.5"/>
  <line style="fill:none;stroke:#000000;stroke-width:0.3;" x1="35.336" x2="28.967" y2="-1.5" y1="-1.5"/>
  <line style="fill:none;stroke:#000000;stroke-width:0.3;" x1="44.252" x2="37.883" y2="-1.5" y1="-1.5"/>
  <line style="fill:none;stroke:#000000;stroke-width:0.3;" x1="53.169" x2="46.8" y2="-1.5" y1="-1.5"/>
  <line style="fill:none;stroke:#000000;stroke-width:0.3;" x1="45.884" x2="50.621" y2="-46.37" y1="-46.37"/>
  <line style="fill:none;stroke:#000000;stroke-width:0.3;" x1="5.259" x2="9.121" y2="-46.37" y1="-46.37"/>
  <line style="fill:none;stroke:#000000;stroke-width:0.3;" x1="37.871" x2="31.259" y2="-46.37" y1="-46.37"/>
  <line style="fill:none;stroke:#000000;stroke-width:0.3;" x1="18.009" x2="24.121" y2="-46.37" y1="-46.37"/>
  <line style="fill:none;stroke:#000000;stroke-width:0.3;" x1="53.584" x2="50.621" y2="-46.37" y1="-46.37"/>
  <line style="fill:none;stroke:#000000;stroke-width:0.3;" x1="31.259" x2="24.121" y2="-46.37" y1="-46.37"/>
  <line style="fill:none;stroke:#000000;stroke-width:0.3;" x1="9.121" x2="18.009" y2="-46.37" y1="-46.37"/>
  <line style="fill:none;stroke:#000000;stroke-width:0.3;" x1="45.884" x2="37.871" y2="-46.37" y1="-46.37"/>
  <line style="fill:none;stroke:#000000;stroke-width:0.3;" x1="5.259" x2="0" y2="-46.37" y1="-46.37"/>
  <line style="fill:none;stroke:#000000;stroke-width:0.3;" x1="53.584" x2="0" y2="-43.088" y1="-43.088"/>
  <line style="fill:none;stroke:#000000;stroke-width:0.3;" x1="45.884" x2="45.884" y2="-43.101" y1="-46.37"/>
  <line style="fill:none;stroke:#000000;stroke-width:0.3;" x1="45.884" x2="45.884" y2="-46.401" y1="-46.37"/>
  <line style="fill:none;stroke:#000000;stroke-width:0.3;" x1="31.259" x2="31.259" y2="-46.37" y1="-46.401"/>
  <line style="fill:none;stroke:#000000;stroke-width:0.3;" x1="31.259" x2="31.259" y2="-43.101" y1="-46.37"/>
  <line style="fill:none;stroke:#000000;stroke-width:0.3;" x1="18.009" x2="18.009" y2="-46.37" y1="-43.101"/>
  <line style="fill:none;stroke:#000000;stroke-width:0.3;" x1="18.009" x2="18.009" y2="-46.401" y1="-46.37"/>
  <line style="fill:none;stroke:#000000;stroke-width:0.3;" x1="5.259" x2="5.259" y2="-43.101" y1="-46.37"/>
  <line style="fill:none;stroke:#000000;stroke-width:0.3;" x1="5.259" x2="5.259" y2="-46.401" y1="-46.37"/>
  <line style="fill:none;stroke:#000000;stroke-width:0.3;" x1="37.871" x2="50.621" y2="-49.748" y1="-49.748"/>
  <line style="fill:none;stroke:#000000;stroke-width:0.3;" x1="50.621" x2="53.584" y2="-49.748" y1="-49.748"/>
  <line style="fill:none;stroke:#000000;stroke-width:0.3;" x1="9.121" x2="0" y2="-49.748" y1="-49.748"/>
  <line style="fill:none;stroke:#000000;stroke-width:0.3;" x1="37.871" x2="24.121" y2="-49.748" y1="-49.748"/>
  <line style="fill:none;stroke:#000000;stroke-width:0.3;" x1="9.121" x2="24.121" y2="-49.748" y1="-49.748"/>
  <line style="fill:none;stroke:#000000;stroke-width:0.3;" x1="9.121" x2="9.121" y2="-46.37" y1="-46.335"/>
  <line style="fill:none;stroke:#000000;stroke-width:0.3;" x1="9.121" x2="9.121" y2="-46.37" y1="-49.748"/>
  <line style="fill:none;stroke:#000000;stroke-width:0.3;" x1="9.121" x2="9.121" y2="-49.76" y1="-49.748"/>
  <line style="fill:none;stroke:#000000;stroke-width:0.3;" x1="24.121" x2="24.121" y2="-49.76" y1="-49.748"/>
  <line style="fill:none;stroke:#000000;stroke-width:0.3;" x1="24.121" x2="24.121" y2="-49.748" y1="-46.37"/>
  <line style="fill:none;stroke:#000000;stroke-width:0.3;" x1="24.121" x2="24.121" y2="-46.37" y1="-46.335"/>
  <line style="fill:none;stroke:#000000;stroke-width:0.3;" x1="37.871" x2="37.871" y2="-49.76" y1="-49.748"/>
  <line style="fill:none;stroke:#000000;stroke-width:0.3;" x1="37.871" x2="37.871" y2="-46.335" y1="-46.37"/>
  <line style="fill:none;stroke:#000000;stroke-width:0.3;" x1="37.871" x2="37.871" y2="-46.37" y1="-49.748"/>
  <line style="fill:none;stroke:#000000;stroke-width:0.3;" x1="50.621" x2="50.621" y2="-49.76" y1="-49.748"/>
  <line style="fill:none;stroke:#000000;stroke-width:0.3;" x1="50.621" x2="50.621" y2="-49.748" y1="-46.37"/>
  <line style="fill:none;stroke:#000000;stroke-width:0.3;" x1="50.621" x2="50.621" y2="-46.37" y1="-46.335"/>
  <line style="fill:none;stroke:#000000;stroke-width:0.3;" x1="8.436" x2="21.685" y2="-15.659" y1="-15.659"/>
  <line style="fill:none;stroke:#000000;stroke-width:0.3;" x1="35.311" x2="21.685" y2="-15.659" y1="-15.659"/>
  <line style="fill:none;stroke:#000000;stroke-width:0.3;" x1="50.186" x2="53.584" y2="-15.659" y1="-15.659"/>
  <line style="fill:none;stroke:#000000;stroke-width:0.3;" x1="8.436" x2="0" y2="-15.659" y1="-15.659"/>
  <line style="fill:none;stroke:#000000;stroke-width:0.3;" x1="35.311" x2="50.186" y2="-15.659" y1="-15.659"/>
  <line style="fill:none;stroke:#000000;stroke-width:0.3;" x1="53.584" x2="0" y2="-22.497" y1="-22.497"/>
  <line style="fill:none;stroke:#000000;stroke-width:0.3;" x1="53.584" x2="0" y2="-19.271" y1="-19.271"/>
  <line style="fill:none;stroke:#000000;stroke-width:0.3;" x1="43.752" x2="43.752" y2="-22.446" y1="-19.284"/>
  <line style="fill:none;stroke:#000000;stroke-width:0.3;" x1="29.603" x2="29.603" y2="-22.446" y1="-19.284"/>
  <line style="fill:none;stroke:#000000;stroke-width:0.3;" x1="14.477" x2="14.477" y2="-22.446" y1="-19.284"/>
  <line style="fill:none;stroke:#000000;stroke-width:0.3;" x1="2.06" x2="2.06" y2="-19.284" y1="-22.446"/>
  <line style="fill:none;stroke:#000000;stroke-width:0.3;" x1="8.436" x2="8.436" y2="-19.221" y1="-15.659"/>
  <line style="fill:none;stroke:#000000;stroke-width:0.3;" x1="21.685" x2="21.685" y2="-15.659" y1="-19.221"/>
  <line style="fill:none;stroke:#000000;stroke-width:0.3;" x1="35.311" x2="35.311" y2="-19.221" y1="-15.659"/>
  <line style="fill:none;stroke:#000000;stroke-width:0.3;" x1="50.186" x2="50.186" y2="-19.221" y1="-15.659"/>
 </g>
</svg>
