<?xml version="1.0"?>
<!-- Converted with SVG Converter - Version 0.9.5 (Compiled Fri Feb 21 09:53:38 2020) - Copyright (C) 2011 Nokia -->
<svg xmlns="http://www.w3.org/2000/svg" x="0px" width="53.584" y="0px" version="1.1" xmlns:xlink="http://www.w3.org/1999/xlink" baseProfile="tiny" height="53.584" viewBox="0 -53.584 53.584 53.584" xml:space="preserve">
 <g>
  <rect x="0" width="53.584" y="-53.584" style="fill:none;" height="53.584"/>
  <line x2="0" y2="-52.321" y1="-52.321" style="fill:none;stroke:#000000;stroke-width:0.3;" x1="3.776"/>
  <line x2="12.726" y2="-52.321" y1="-52.321" style="fill:none;stroke:#000000;stroke-width:0.3;" x1="6.356"/>
  <line x2="21.643" y2="-52.321" y1="-52.321" style="fill:none;stroke:#000000;stroke-width:0.3;" x1="15.273"/>
  <line x2="30.559" y2="-52.321" y1="-52.321" style="fill:none;stroke:#000000;stroke-width:0.3;" x1="24.19"/>
  <line x2="39.476" y2="-52.321" y1="-52.321" style="fill:none;stroke:#000000;stroke-width:0.3;" x1="33.106"/>
  <line x2="48.393" y2="-52.321" y1="-52.321" style="fill:none;stroke:#000000;stroke-width:0.3;" x1="42.023"/>
  <line x2="50.939" y2="-52.321" y1="-52.321" style="fill:none;stroke:#000000;stroke-width:0.3;" x1="53.584"/>
  <line x2="1.706" y2="-40.441" y1="-40.441" style="fill:none;stroke:#000000;stroke-width:0.3;" x1="0"/>
  <line x2="10.655" y2="-40.441" y1="-40.441" style="fill:none;stroke:#000000;stroke-width:0.3;" x1="4.287"/>
  <line x2="19.572" y2="-40.441" y1="-40.441" style="fill:none;stroke:#000000;stroke-width:0.3;" x1="13.203"/>
  <line x2="28.489" y2="-40.441" y1="-40.441" style="fill:none;stroke:#000000;stroke-width:0.3;" x1="22.12"/>
  <line x2="37.405" y2="-40.441" y1="-40.441" style="fill:none;stroke:#000000;stroke-width:0.3;" x1="31.036"/>
  <line x2="46.322" y2="-40.441" y1="-40.441" style="fill:none;stroke:#000000;stroke-width:0.3;" x1="39.953"/>
  <line x2="53.584" y2="-40.441" y1="-40.441" style="fill:none;stroke:#000000;stroke-width:0.3;" x1="48.87"/>
  <line x2="0" y2="-37.437" y1="-37.437" style="fill:none;stroke:#000000;stroke-width:0.3;" x1="5.242"/>
  <line x2="7.79" y2="-37.437" y1="-37.437" style="fill:none;stroke:#000000;stroke-width:0.3;" x1="14.159"/>
  <line x2="16.706" y2="-37.437" y1="-37.437" style="fill:none;stroke:#000000;stroke-width:0.3;" x1="23.075"/>
  <line x2="25.623" y2="-37.437" y1="-37.437" style="fill:none;stroke:#000000;stroke-width:0.3;" x1="31.992"/>
  <line x2="34.539" y2="-37.437" y1="-37.437" style="fill:none;stroke:#000000;stroke-width:0.3;" x1="40.908"/>
  <line x2="43.456" y2="-37.437" y1="-37.437" style="fill:none;stroke:#000000;stroke-width:0.3;" x1="49.825"/>
  <line x2="52.373" y2="-37.437" y1="-37.437" style="fill:none;stroke:#000000;stroke-width:0.3;" x1="53.584"/>
  <line x2="2.184" y2="-34.27" y1="-34.27" style="fill:none;stroke:#000000;stroke-width:0.3;" x1="0"/>
  <line x2="4.765" y2="-34.27" y1="-34.27" style="fill:none;stroke:#000000;stroke-width:0.3;" x1="11.134"/>
  <line x2="20.05" y2="-34.27" y1="-34.27" style="fill:none;stroke:#000000;stroke-width:0.3;" x1="13.681"/>
  <line x2="28.967" y2="-34.27" y1="-34.27" style="fill:none;stroke:#000000;stroke-width:0.3;" x1="22.598"/>
  <line x2="37.883" y2="-34.27" y1="-34.27" style="fill:none;stroke:#000000;stroke-width:0.3;" x1="31.515"/>
  <line x2="46.8" y2="-34.27" y1="-34.27" style="fill:none;stroke:#000000;stroke-width:0.3;" x1="40.431"/>
  <line x2="53.584" y2="-34.27" y1="-34.27" style="fill:none;stroke:#000000;stroke-width:0.3;" x1="49.348"/>
  <line x2="0.306" y2="-31.356" y1="-31.356" style="fill:none;stroke:#000000;stroke-width:0.3;" x1="6.675"/>
  <line x2="9.223" y2="-31.356" y1="-31.356" style="fill:none;stroke:#000000;stroke-width:0.3;" x1="15.592"/>
  <line x2="18.14" y2="-31.356" y1="-31.356" style="fill:none;stroke:#000000;stroke-width:0.3;" x1="24.509"/>
  <line x2="27.056" y2="-31.356" y1="-31.356" style="fill:none;stroke:#000000;stroke-width:0.3;" x1="33.425"/>
  <line x2="35.973" y2="-31.356" y1="-31.356" style="fill:none;stroke:#000000;stroke-width:0.3;" x1="42.342"/>
  <line x2="51.258" y2="-31.356" y1="-31.356" style="fill:none;stroke:#000000;stroke-width:0.3;" x1="44.889"/>
  <line x2="0" y2="-28.387" y1="-28.387" style="fill:none;stroke:#000000;stroke-width:0.3;" x1="3.458"/>
  <line x2="12.407" y2="-28.387" y1="-28.387" style="fill:none;stroke:#000000;stroke-width:0.3;" x1="6.038"/>
  <line x2="21.324" y2="-28.387" y1="-28.387" style="fill:none;stroke:#000000;stroke-width:0.3;" x1="14.955"/>
  <line x2="30.24" y2="-28.387" y1="-28.387" style="fill:none;stroke:#000000;stroke-width:0.3;" x1="23.871"/>
  <line x2="39.157" y2="-28.387" y1="-28.387" style="fill:none;stroke:#000000;stroke-width:0.3;" x1="32.788"/>
  <line x2="48.073" y2="-28.387" y1="-28.387" style="fill:none;stroke:#000000;stroke-width:0.3;" x1="41.705"/>
  <line x2="53.584" y2="-28.387" y1="-28.387" style="fill:none;stroke:#000000;stroke-width:0.3;" x1="50.621"/>
  <line x2="1.58" y2="-25.535" y1="-25.535" style="fill:none;stroke:#000000;stroke-width:0.3;" x1="7.949"/>
  <line x2="10.496" y2="-25.535" y1="-25.535" style="fill:none;stroke:#000000;stroke-width:0.3;" x1="16.865"/>
  <line x2="19.413" y2="-25.535" y1="-25.535" style="fill:none;stroke:#000000;stroke-width:0.3;" x1="25.782"/>
  <line x2="28.33" y2="-25.535" y1="-25.535" style="fill:none;stroke:#000000;stroke-width:0.3;" x1="34.698"/>
  <line x2="37.246" y2="-25.535" y1="-25.535" style="fill:none;stroke:#000000;stroke-width:0.3;" x1="43.615"/>
  <line x2="46.163" y2="-25.535" y1="-25.535" style="fill:none;stroke:#000000;stroke-width:0.3;" x1="52.532"/>
  <line x2="6.038" y2="-13.372" y1="-13.372" style="fill:none;stroke:#000000;stroke-width:0.3;" x1="0"/>
  <line x2="8.586" y2="-13.372" y1="-13.372" style="fill:none;stroke:#000000;stroke-width:0.3;" x1="14.955"/>
  <line x2="23.871" y2="-13.372" y1="-13.372" style="fill:none;stroke:#000000;stroke-width:0.3;" x1="17.502"/>
  <line x2="32.788" y2="-13.372" y1="-13.372" style="fill:none;stroke:#000000;stroke-width:0.3;" x1="26.419"/>
  <line x2="41.705" y2="-13.372" y1="-13.372" style="fill:none;stroke:#000000;stroke-width:0.3;" x1="35.336"/>
  <line x2="50.621" y2="-13.372" y1="-13.372" style="fill:none;stroke:#000000;stroke-width:0.3;" x1="44.252"/>
  <line x2="53.169" y2="-13.372" y1="-13.372" style="fill:none;stroke:#000000;stroke-width:0.3;" x1="53.584"/>
  <line x2="3.14" y2="-10.576" y1="-10.576" style="fill:none;stroke:#000000;stroke-width:0.3;" x1="0"/>
  <line x2="5.72" y2="-10.576" y1="-10.576" style="fill:none;stroke:#000000;stroke-width:0.3;" x1="12.089"/>
  <line x2="14.637" y2="-10.576" y1="-10.576" style="fill:none;stroke:#000000;stroke-width:0.3;" x1="21.006"/>
  <line x2="23.553" y2="-10.576" y1="-10.576" style="fill:none;stroke:#000000;stroke-width:0.3;" x1="29.922"/>
  <line x2="32.47" y2="-10.576" y1="-10.576" style="fill:none;stroke:#000000;stroke-width:0.3;" x1="38.839"/>
  <line x2="41.386" y2="-10.576" y1="-10.576" style="fill:none;stroke:#000000;stroke-width:0.3;" x1="47.755"/>
  <line x2="53.584" y2="-10.576" y1="-10.576" style="fill:none;stroke:#000000;stroke-width:0.3;" x1="50.303"/>
  <line x2="1.898" y2="-7.44" y1="-7.44" style="fill:none;stroke:#000000;stroke-width:0.3;" x1="8.268"/>
  <line x2="17.184" y2="-7.44" y1="-7.44" style="fill:none;stroke:#000000;stroke-width:0.3;" x1="10.814"/>
  <line x2="19.731" y2="-7.44" y1="-7.44" style="fill:none;stroke:#000000;stroke-width:0.3;" x1="26.101"/>
  <line x2="28.648" y2="-7.44" y1="-7.44" style="fill:none;stroke:#000000;stroke-width:0.3;" x1="35.018"/>
  <line x2="43.934" y2="-7.44" y1="-7.44" style="fill:none;stroke:#000000;stroke-width:0.3;" x1="37.564"/>
  <line x2="52.851" y2="-7.44" y1="-7.44" style="fill:none;stroke:#000000;stroke-width:0.3;" x1="46.481"/>
  <line x2="0" y2="-4.471" y1="-4.471" style="fill:none;stroke:#000000;stroke-width:0.3;" x1="4.731"/>
  <line x2="13.681" y2="-4.471" y1="-4.471" style="fill:none;stroke:#000000;stroke-width:0.3;" x1="7.312"/>
  <line x2="22.598" y2="-4.471" y1="-4.471" style="fill:none;stroke:#000000;stroke-width:0.3;" x1="16.229"/>
  <line x2="31.515" y2="-4.471" y1="-4.471" style="fill:none;stroke:#000000;stroke-width:0.3;" x1="25.146"/>
  <line x2="40.431" y2="-4.471" y1="-4.471" style="fill:none;stroke:#000000;stroke-width:0.3;" x1="34.062"/>
  <line x2="49.348" y2="-4.471" y1="-4.471" style="fill:none;stroke:#000000;stroke-width:0.3;" x1="42.979"/>
  <line x2="53.584" y2="-4.471" y1="-4.471" style="fill:none;stroke:#000000;stroke-width:0.3;" x1="51.896"/>
  <line x2="2.217" y2="-1.5" y1="-1.5" style="fill:none;stroke:#000000;stroke-width:0.3;" x1="8.586"/>
  <line x2="11.134" y2="-1.5" y1="-1.5" style="fill:none;stroke:#000000;stroke-width:0.3;" x1="17.502"/>
  <line x2="20.05" y2="-1.5" y1="-1.5" style="fill:none;stroke:#000000;stroke-width:0.3;" x1="26.419"/>
  <line x2="28.967" y2="-1.5" y1="-1.5" style="fill:none;stroke:#000000;stroke-width:0.3;" x1="35.336"/>
  <line x2="37.883" y2="-1.5" y1="-1.5" style="fill:none;stroke:#000000;stroke-width:0.3;" x1="44.252"/>
  <line x2="46.8" y2="-1.5" y1="-1.5" style="fill:none;stroke:#000000;stroke-width:0.3;" x1="53.169"/>
  <line x2="50.621" y2="-46.37" y1="-46.37" style="fill:none;stroke:#000000;stroke-width:0.3;" x1="45.884"/>
  <line x2="9.121" y2="-46.37" y1="-46.37" style="fill:none;stroke:#000000;stroke-width:0.3;" x1="5.259"/>
  <line x2="31.259" y2="-46.37" y1="-46.37" style="fill:none;stroke:#000000;stroke-width:0.3;" x1="37.871"/>
  <line x2="24.121" y2="-46.37" y1="-46.37" style="fill:none;stroke:#000000;stroke-width:0.3;" x1="18.009"/>
  <line x2="50.621" y2="-46.37" y1="-46.37" style="fill:none;stroke:#000000;stroke-width:0.3;" x1="53.584"/>
  <line x2="24.121" y2="-46.37" y1="-46.37" style="fill:none;stroke:#000000;stroke-width:0.3;" x1="31.259"/>
  <line x2="18.009" y2="-46.37" y1="-46.37" style="fill:none;stroke:#000000;stroke-width:0.3;" x1="9.121"/>
  <line x2="37.871" y2="-46.37" y1="-46.37" style="fill:none;stroke:#000000;stroke-width:0.3;" x1="45.884"/>
  <line x2="0" y2="-46.37" y1="-46.37" style="fill:none;stroke:#000000;stroke-width:0.3;" x1="5.259"/>
  <line x2="0" y2="-43.088" y1="-43.088" style="fill:none;stroke:#000000;stroke-width:0.3;" x1="53.584"/>
  <line x2="45.884" y2="-43.101" y1="-46.37" style="fill:none;stroke:#000000;stroke-width:0.3;" x1="45.884"/>
  <line x2="45.884" y2="-46.401" y1="-46.37" style="fill:none;stroke:#000000;stroke-width:0.3;" x1="45.884"/>
  <line x2="31.259" y2="-46.37" y1="-46.401" style="fill:none;stroke:#000000;stroke-width:0.3;" x1="31.259"/>
  <line x2="31.259" y2="-43.101" y1="-46.37" style="fill:none;stroke:#000000;stroke-width:0.3;" x1="31.259"/>
  <line x2="18.009" y2="-46.37" y1="-43.101" style="fill:none;stroke:#000000;stroke-width:0.3;" x1="18.009"/>
  <line x2="18.009" y2="-46.401" y1="-46.37" style="fill:none;stroke:#000000;stroke-width:0.3;" x1="18.009"/>
  <line x2="5.259" y2="-43.101" y1="-46.37" style="fill:none;stroke:#000000;stroke-width:0.3;" x1="5.259"/>
  <line x2="5.259" y2="-46.401" y1="-46.37" style="fill:none;stroke:#000000;stroke-width:0.3;" x1="5.259"/>
  <line x2="50.621" y2="-49.748" y1="-49.748" style="fill:none;stroke:#000000;stroke-width:0.3;" x1="37.871"/>
  <line x2="53.584" y2="-49.748" y1="-49.748" style="fill:none;stroke:#000000;stroke-width:0.3;" x1="50.621"/>
  <line x2="0" y2="-49.748" y1="-49.748" style="fill:none;stroke:#000000;stroke-width:0.3;" x1="9.121"/>
  <line x2="24.121" y2="-49.748" y1="-49.748" style="fill:none;stroke:#000000;stroke-width:0.3;" x1="37.871"/>
  <line x2="24.121" y2="-49.748" y1="-49.748" style="fill:none;stroke:#000000;stroke-width:0.3;" x1="9.121"/>
  <line x2="9.121" y2="-46.37" y1="-46.335" style="fill:none;stroke:#000000;stroke-width:0.3;" x1="9.121"/>
  <line x2="9.121" y2="-46.37" y1="-49.748" style="fill:none;stroke:#000000;stroke-width:0.3;" x1="9.121"/>
  <line x2="9.121" y2="-49.76" y1="-49.748" style="fill:none;stroke:#000000;stroke-width:0.3;" x1="9.121"/>
  <line x2="24.121" y2="-49.76" y1="-49.748" style="fill:none;stroke:#000000;stroke-width:0.3;" x1="24.121"/>
  <line x2="24.121" y2="-49.748" y1="-46.37" style="fill:none;stroke:#000000;stroke-width:0.3;" x1="24.121"/>
  <line x2="24.121" y2="-46.37" y1="-46.335" style="fill:none;stroke:#000000;stroke-width:0.3;" x1="24.121"/>
  <line x2="37.871" y2="-49.76" y1="-49.748" style="fill:none;stroke:#000000;stroke-width:0.3;" x1="37.871"/>
  <line x2="37.871" y2="-46.335" y1="-46.37" style="fill:none;stroke:#000000;stroke-width:0.3;" x1="37.871"/>
  <line x2="37.871" y2="-46.37" y1="-49.748" style="fill:none;stroke:#000000;stroke-width:0.3;" x1="37.871"/>
  <line x2="50.621" y2="-49.76" y1="-49.748" style="fill:none;stroke:#000000;stroke-width:0.3;" x1="50.621"/>
  <line x2="50.621" y2="-49.748" y1="-46.37" style="fill:none;stroke:#000000;stroke-width:0.3;" x1="50.621"/>
  <line x2="50.621" y2="-46.37" y1="-46.335" style="fill:none;stroke:#000000;stroke-width:0.3;" x1="50.621"/>
  <line x2="21.685" y2="-15.659" y1="-15.659" style="fill:none;stroke:#000000;stroke-width:0.3;" x1="8.436"/>
  <line x2="21.685" y2="-15.659" y1="-15.659" style="fill:none;stroke:#000000;stroke-width:0.3;" x1="35.311"/>
  <line x2="53.584" y2="-15.659" y1="-15.659" style="fill:none;stroke:#000000;stroke-width:0.3;" x1="50.186"/>
  <line x2="0" y2="-15.659" y1="-15.659" style="fill:none;stroke:#000000;stroke-width:0.3;" x1="8.436"/>
  <line x2="50.186" y2="-15.659" y1="-15.659" style="fill:none;stroke:#000000;stroke-width:0.3;" x1="35.311"/>
  <line x2="0" y2="-22.497" y1="-22.497" style="fill:none;stroke:#000000;stroke-width:0.3;" x1="53.584"/>
  <line x2="0" y2="-19.271" y1="-19.271" style="fill:none;stroke:#000000;stroke-width:0.3;" x1="53.584"/>
  <line x2="43.752" y2="-22.446" y1="-19.284" style="fill:none;stroke:#000000;stroke-width:0.3;" x1="43.752"/>
  <line x2="29.603" y2="-22.446" y1="-19.284" style="fill:none;stroke:#000000;stroke-width:0.3;" x1="29.603"/>
  <line x2="14.477" y2="-22.446" y1="-19.284" style="fill:none;stroke:#000000;stroke-width:0.3;" x1="14.477"/>
  <line x2="2.06" y2="-19.284" y1="-22.446" style="fill:none;stroke:#000000;stroke-width:0.3;" x1="2.06"/>
  <line x2="8.436" y2="-19.221" y1="-15.659" style="fill:none;stroke:#000000;stroke-width:0.3;" x1="8.436"/>
  <line x2="21.685" y2="-15.659" y1="-19.221" style="fill:none;stroke:#000000;stroke-width:0.3;" x1="21.685"/>
  <line x2="35.311" y2="-19.221" y1="-15.659" style="fill:none;stroke:#000000;stroke-width:0.3;" x1="35.311"/>
  <line x2="50.186" y2="-19.221" y1="-15.659" style="fill:none;stroke:#000000;stroke-width:0.3;" x1="50.186"/>
 </g>
</svg>
