<?xml version="1.0"?>
<!-- Converted with SVG Converter - Version 0.9.5 (Compiled Fri Feb 21 09:53:38 2020) - Copyright (C) 2011 Nokia -->
<svg xmlns="http://www.w3.org/2000/svg" xmlns:xlink="http://www.w3.org/1999/xlink" viewBox="0 -44.667 44.667 44.667" height="44.667" baseProfile="tiny" version="1.1" x="0px" width="44.667" y="0px" xml:space="preserve">
 <g>
  <rect style="fill:none;" height="44.667" x="0" width="44.667" y="-44.667"/>
  <line y2="-43.404" style="fill:none;stroke:#000000;stroke-width:0.3;" x2="0" y1="-43.404" x1="3.776"/>
  <line y2="-43.404" style="fill:none;stroke:#000000;stroke-width:0.3;" x2="12.726" y1="-43.404" x1="6.356"/>
  <line y2="-43.404" style="fill:none;stroke:#000000;stroke-width:0.3;" x2="21.643" y1="-43.404" x1="15.273"/>
  <line y2="-43.404" style="fill:none;stroke:#000000;stroke-width:0.3;" x2="30.559" y1="-43.404" x1="24.19"/>
  <line y2="-43.404" style="fill:none;stroke:#000000;stroke-width:0.3;" x2="39.476" y1="-43.404" x1="33.106"/>
  <line y2="-40.269" style="fill:none;stroke:#000000;stroke-width:0.3;" x2="1.739" y1="-40.269" x1="8.108"/>
  <line y2="-40.269" style="fill:none;stroke:#000000;stroke-width:0.3;" x2="10.655" y1="-40.269" x1="17.024"/>
  <line y2="-40.269" style="fill:none;stroke:#000000;stroke-width:0.3;" x2="25.941" y1="-40.269" x1="19.572"/>
  <line y2="-40.269" style="fill:none;stroke:#000000;stroke-width:0.3;" x2="28.489" y1="-40.269" x1="34.858"/>
  <line y2="-40.269" style="fill:none;stroke:#000000;stroke-width:0.3;" x2="43.774" y1="-40.269" x1="37.405"/>
  <line y2="-37.299" style="fill:none;stroke:#000000;stroke-width:0.3;" x2="2.024" y1="-37.299" x1="0"/>
  <line y2="-37.299" style="fill:none;stroke:#000000;stroke-width:0.3;" x2="4.606" y1="-37.299" x1="10.975"/>
  <line y2="-37.299" style="fill:none;stroke:#000000;stroke-width:0.3;" x2="13.521" y1="-37.299" x1="19.891"/>
  <line y2="-37.299" style="fill:none;stroke:#000000;stroke-width:0.3;" x2="28.808" y1="-37.299" x1="22.438"/>
  <line y2="-37.299" style="fill:none;stroke:#000000;stroke-width:0.3;" x2="31.354" y1="-37.299" x1="37.724"/>
  <line y2="-28.52" style="fill:none;stroke:#000000;stroke-width:0.3;" x2="0" y1="-28.52" x1="5.242"/>
  <line y2="-28.52" style="fill:none;stroke:#000000;stroke-width:0.3;" x2="7.79" y1="-28.52" x1="14.158"/>
  <line y2="-28.52" style="fill:none;stroke:#000000;stroke-width:0.3;" x2="23.075" y1="-28.52" x1="16.706"/>
  <line y2="-28.52" style="fill:none;stroke:#000000;stroke-width:0.3;" x2="31.992" y1="-28.52" x1="25.623"/>
  <line y2="-28.52" style="fill:none;stroke:#000000;stroke-width:0.3;" x2="40.908" y1="-28.52" x1="34.539"/>
  <line y2="-25.353" style="fill:none;stroke:#000000;stroke-width:0.3;" x2="2.184" y1="-25.353" x1="0"/>
  <line y2="-25.353" style="fill:none;stroke:#000000;stroke-width:0.3;" x2="4.765" y1="-25.353" x1="11.134"/>
  <line y2="-25.353" style="fill:none;stroke:#000000;stroke-width:0.3;" x2="13.681" y1="-25.353" x1="20.05"/>
  <line y2="-25.353" style="fill:none;stroke:#000000;stroke-width:0.3;" x2="28.967" y1="-25.353" x1="22.598"/>
  <line y2="-25.353" style="fill:none;stroke:#000000;stroke-width:0.3;" x2="37.883" y1="-25.353" x1="31.515"/>
  <line y2="-22.44" style="fill:none;stroke:#000000;stroke-width:0.3;" x2="0.306" y1="-22.44" x1="6.675"/>
  <line y2="-22.44" style="fill:none;stroke:#000000;stroke-width:0.3;" x2="15.592" y1="-22.44" x1="9.223"/>
  <line y2="-22.44" style="fill:none;stroke:#000000;stroke-width:0.3;" x2="24.508" y1="-22.44" x1="18.14"/>
  <line y2="-22.44" style="fill:none;stroke:#000000;stroke-width:0.3;" x2="27.056" y1="-22.44" x1="33.425"/>
  <line y2="-22.44" style="fill:none;stroke:#000000;stroke-width:0.3;" x2="42.342" y1="-22.44" x1="35.973"/>
  <line y2="-13.53" style="fill:none;stroke:#000000;stroke-width:0.3;" x2="0" y1="-13.53" x1="2.98"/>
  <line y2="-13.53" style="fill:none;stroke:#000000;stroke-width:0.3;" x2="11.93" y1="-13.53" x1="5.561"/>
  <line y2="-13.53" style="fill:none;stroke:#000000;stroke-width:0.3;" x2="20.846" y1="-13.53" x1="14.477"/>
  <line y2="-13.53" style="fill:none;stroke:#000000;stroke-width:0.3;" x2="29.763" y1="-13.53" x1="23.394"/>
  <line y2="-13.53" style="fill:none;stroke:#000000;stroke-width:0.3;" x2="38.68" y1="-13.53" x1="32.311"/>
  <line y2="-10.394" style="fill:none;stroke:#000000;stroke-width:0.3;" x2="0.465" y1="-10.394" x1="6.834"/>
  <line y2="-10.394" style="fill:none;stroke:#000000;stroke-width:0.3;" x2="15.751" y1="-10.394" x1="9.382"/>
  <line y2="-10.394" style="fill:none;stroke:#000000;stroke-width:0.3;" x2="24.667" y1="-10.394" x1="18.299"/>
  <line y2="-10.394" style="fill:none;stroke:#000000;stroke-width:0.3;" x2="33.584" y1="-10.394" x1="27.215"/>
  <line y2="-10.394" style="fill:none;stroke:#000000;stroke-width:0.3;" x2="42.501" y1="-10.394" x1="36.132"/>
  <line y2="-7.425" style="fill:none;stroke:#000000;stroke-width:0.3;" x2="2.184" y1="-7.425" x1="0"/>
  <line y2="-7.425" style="fill:none;stroke:#000000;stroke-width:0.3;" x2="4.765" y1="-7.425" x1="11.134"/>
  <line y2="-7.425" style="fill:none;stroke:#000000;stroke-width:0.3;" x2="13.681" y1="-7.425" x1="20.05"/>
  <line y2="-7.425" style="fill:none;stroke:#000000;stroke-width:0.3;" x2="22.598" y1="-7.425" x1="28.967"/>
  <line y2="-7.425" style="fill:none;stroke:#000000;stroke-width:0.3;" x2="31.515" y1="-7.425" x1="37.883"/>
  <line y2="-19.635" style="fill:none;stroke:#000000;stroke-width:0.3;" x2="0" y1="-19.635" x1="4.457"/>
  <line y2="-19.635" style="fill:none;stroke:#000000;stroke-width:0.3;" x2="19.207" y1="-19.635" x1="33.957"/>
  <line y2="-19.635" style="fill:none;stroke:#000000;stroke-width:0.3;" x2="4.457" y1="-19.635" x1="19.207"/>
  <line y2="-19.635" style="fill:none;stroke:#000000;stroke-width:0.3;" x2="44.667" y1="-19.635" x1="33.957"/>
  <line y2="-16.354" style="fill:none;stroke:#000000;stroke-width:0.3;" x2="44.667" y1="-16.354" x1="0"/>
  <line y2="-16.366" style="fill:none;stroke:#000000;stroke-width:0.3;" x2="33.957" y1="-19.635" x1="33.957"/>
  <line y2="-19.667" style="fill:none;stroke:#000000;stroke-width:0.3;" x2="33.957" y1="-19.635" x1="33.957"/>
  <line y2="-16.366" style="fill:none;stroke:#000000;stroke-width:0.3;" x2="19.207" y1="-19.635" x1="19.207"/>
  <line y2="-19.635" style="fill:none;stroke:#000000;stroke-width:0.3;" x2="19.207" y1="-19.667" x1="19.207"/>
  <line y2="-19.635" style="fill:none;stroke:#000000;stroke-width:0.3;" x2="4.457" y1="-19.667" x1="4.457"/>
  <line y2="-16.366" style="fill:none;stroke:#000000;stroke-width:0.3;" x2="4.457" y1="-19.635" x1="4.457"/>
  <line y2="-31.307" style="fill:none;stroke:#000000;stroke-width:0.3;" x2="37.921" y1="-31.307" x1="23.921"/>
  <line y2="-31.307" style="fill:none;stroke:#000000;stroke-width:0.3;" x2="23.921" y1="-31.307" x1="6.983"/>
  <line y2="-31.307" style="fill:none;stroke:#000000;stroke-width:0.3;" x2="0" y1="-31.307" x1="6.983"/>
  <line y2="-31.307" style="fill:none;stroke:#000000;stroke-width:0.3;" x2="44.667" y1="-31.307" x1="37.921"/>
  <line y2="-34.686" style="fill:none;stroke:#000000;stroke-width:0.3;" x2="0" y1="-34.686" x1="6.983"/>
  <line y2="-34.686" style="fill:none;stroke:#000000;stroke-width:0.3;" x2="44.667" y1="-34.686" x1="37.921"/>
  <line y2="-34.686" style="fill:none;stroke:#000000;stroke-width:0.3;" x2="23.921" y1="-34.686" x1="37.921"/>
  <line y2="-34.686" style="fill:none;stroke:#000000;stroke-width:0.3;" x2="23.921" y1="-34.686" x1="6.983"/>
  <line y2="-31.307" style="fill:none;stroke:#000000;stroke-width:0.3;" x2="6.983" y1="-34.686" x1="6.983"/>
  <line y2="-34.698" style="fill:none;stroke:#000000;stroke-width:0.3;" x2="6.983" y1="-34.686" x1="6.983"/>
  <line y2="-31.273" style="fill:none;stroke:#000000;stroke-width:0.3;" x2="6.983" y1="-31.307" x1="6.983"/>
  <line y2="-31.307" style="fill:none;stroke:#000000;stroke-width:0.3;" x2="23.921" y1="-34.686" x1="23.921"/>
  <line y2="-34.698" style="fill:none;stroke:#000000;stroke-width:0.3;" x2="23.921" y1="-34.686" x1="23.921"/>
  <line y2="-31.307" style="fill:none;stroke:#000000;stroke-width:0.3;" x2="23.921" y1="-31.273" x1="23.921"/>
  <line y2="-31.273" style="fill:none;stroke:#000000;stroke-width:0.3;" x2="37.921" y1="-31.307" x1="37.921"/>
  <line y2="-34.686" style="fill:none;stroke:#000000;stroke-width:0.3;" x2="37.921" y1="-31.307" x1="37.921"/>
  <line y2="-34.686" style="fill:none;stroke:#000000;stroke-width:0.3;" x2="37.921" y1="-34.698" x1="37.921"/>
  <line y2="-4.662" style="fill:none;stroke:#000000;stroke-width:0.3;" x2="44.667" y1="-4.662" x1="0"/>
  <line y2="-1.437" style="fill:none;stroke:#000000;stroke-width:0.3;" x2="44.667" y1="-1.437" x1="0"/>
  <line y2="-4.612" style="fill:none;stroke:#000000;stroke-width:0.3;" x2="36.915" y1="-1.45" x1="36.915"/>
  <line y2="-1.45" style="fill:none;stroke:#000000;stroke-width:0.3;" x2="25.276" y1="-4.612" x1="25.276"/>
  <line y2="-1.45" style="fill:none;stroke:#000000;stroke-width:0.3;" x2="13.709" y1="-4.612" x1="13.709"/>
  <line y2="-1.45" style="fill:none;stroke:#000000;stroke-width:0.3;" x2="1.707" y1="-4.612" x1="1.707"/>
  <line y2="-43.404" style="fill:none;stroke:#000000;stroke-width:0.3;" x2="44.667" y1="-43.404" x1="42.074"/>
  <line y2="-37.299" style="fill:none;stroke:#000000;stroke-width:0.3;" x2="40.323" y1="-37.299" x1="44.667"/>
  <line y2="-28.52" style="fill:none;stroke:#000000;stroke-width:0.3;" x2="43.54" y1="-28.52" x1="44.667"/>
  <line y2="-25.353" style="fill:none;stroke:#000000;stroke-width:0.3;" x2="44.667" y1="-25.353" x1="40.482"/>
  <line y2="-13.53" style="fill:none;stroke:#000000;stroke-width:0.3;" x2="44.667" y1="-13.53" x1="41.278"/>
  <line y2="-7.425" style="fill:none;stroke:#000000;stroke-width:0.3;" x2="44.667" y1="-7.425" x1="40.482"/>
 </g>
</svg>
