<?xml version="1.0"?>
<!-- Converted with SVG Converter - Version 0.9.5 (Compiled Fri Feb 21 09:53:38 2020) - Copyright (C) 2011 Nokia -->
<svg xmlns="http://www.w3.org/2000/svg" version="1.1" viewBox="0 -44.667 44.667 44.667" y="0px" xml:space="preserve" xmlns:xlink="http://www.w3.org/1999/xlink" x="0px" width="44.667" height="44.667" baseProfile="tiny">
 <g>
  <rect y="-44.667" style="fill:none;" x="0" width="44.667" height="44.667"/>
  <line y1="-43.404" style="fill:none;stroke:#000000;stroke-width:0.3;" x2="0" x1="3.776" y2="-43.404"/>
  <line y1="-43.404" style="fill:none;stroke:#000000;stroke-width:0.3;" x2="12.726" x1="6.356" y2="-43.404"/>
  <line y1="-43.404" style="fill:none;stroke:#000000;stroke-width:0.3;" x2="21.643" x1="15.273" y2="-43.404"/>
  <line y1="-43.404" style="fill:none;stroke:#000000;stroke-width:0.3;" x2="30.559" x1="24.19" y2="-43.404"/>
  <line y1="-43.404" style="fill:none;stroke:#000000;stroke-width:0.3;" x2="39.476" x1="33.106" y2="-43.404"/>
  <line y1="-40.269" style="fill:none;stroke:#000000;stroke-width:0.3;" x2="1.739" x1="8.108" y2="-40.269"/>
  <line y1="-40.269" style="fill:none;stroke:#000000;stroke-width:0.3;" x2="10.655" x1="17.024" y2="-40.269"/>
  <line y1="-40.269" style="fill:none;stroke:#000000;stroke-width:0.3;" x2="25.941" x1="19.572" y2="-40.269"/>
  <line y1="-40.269" style="fill:none;stroke:#000000;stroke-width:0.3;" x2="28.489" x1="34.858" y2="-40.269"/>
  <line y1="-40.269" style="fill:none;stroke:#000000;stroke-width:0.3;" x2="43.774" x1="37.405" y2="-40.269"/>
  <line y1="-37.299" style="fill:none;stroke:#000000;stroke-width:0.3;" x2="2.024" x1="0" y2="-37.299"/>
  <line y1="-37.299" style="fill:none;stroke:#000000;stroke-width:0.3;" x2="4.606" x1="10.975" y2="-37.299"/>
  <line y1="-37.299" style="fill:none;stroke:#000000;stroke-width:0.3;" x2="13.521" x1="19.891" y2="-37.299"/>
  <line y1="-37.299" style="fill:none;stroke:#000000;stroke-width:0.3;" x2="28.808" x1="22.438" y2="-37.299"/>
  <line y1="-37.299" style="fill:none;stroke:#000000;stroke-width:0.3;" x2="31.354" x1="37.724" y2="-37.299"/>
  <line y1="-28.52" style="fill:none;stroke:#000000;stroke-width:0.3;" x2="0" x1="5.242" y2="-28.52"/>
  <line y1="-28.52" style="fill:none;stroke:#000000;stroke-width:0.3;" x2="7.79" x1="14.158" y2="-28.52"/>
  <line y1="-28.52" style="fill:none;stroke:#000000;stroke-width:0.3;" x2="23.075" x1="16.706" y2="-28.52"/>
  <line y1="-28.52" style="fill:none;stroke:#000000;stroke-width:0.3;" x2="31.992" x1="25.623" y2="-28.52"/>
  <line y1="-28.52" style="fill:none;stroke:#000000;stroke-width:0.3;" x2="40.908" x1="34.539" y2="-28.52"/>
  <line y1="-25.353" style="fill:none;stroke:#000000;stroke-width:0.3;" x2="2.184" x1="0" y2="-25.353"/>
  <line y1="-25.353" style="fill:none;stroke:#000000;stroke-width:0.3;" x2="4.765" x1="11.134" y2="-25.353"/>
  <line y1="-25.353" style="fill:none;stroke:#000000;stroke-width:0.3;" x2="13.681" x1="20.05" y2="-25.353"/>
  <line y1="-25.353" style="fill:none;stroke:#000000;stroke-width:0.3;" x2="28.967" x1="22.598" y2="-25.353"/>
  <line y1="-25.353" style="fill:none;stroke:#000000;stroke-width:0.3;" x2="37.883" x1="31.515" y2="-25.353"/>
  <line y1="-22.44" style="fill:none;stroke:#000000;stroke-width:0.3;" x2="0.306" x1="6.675" y2="-22.44"/>
  <line y1="-22.44" style="fill:none;stroke:#000000;stroke-width:0.3;" x2="15.592" x1="9.223" y2="-22.44"/>
  <line y1="-22.44" style="fill:none;stroke:#000000;stroke-width:0.3;" x2="24.508" x1="18.14" y2="-22.44"/>
  <line y1="-22.44" style="fill:none;stroke:#000000;stroke-width:0.3;" x2="27.056" x1="33.425" y2="-22.44"/>
  <line y1="-22.44" style="fill:none;stroke:#000000;stroke-width:0.3;" x2="42.342" x1="35.973" y2="-22.44"/>
  <line y1="-13.53" style="fill:none;stroke:#000000;stroke-width:0.3;" x2="0" x1="2.98" y2="-13.53"/>
  <line y1="-13.53" style="fill:none;stroke:#000000;stroke-width:0.3;" x2="11.93" x1="5.561" y2="-13.53"/>
  <line y1="-13.53" style="fill:none;stroke:#000000;stroke-width:0.3;" x2="20.846" x1="14.477" y2="-13.53"/>
  <line y1="-13.53" style="fill:none;stroke:#000000;stroke-width:0.3;" x2="29.763" x1="23.394" y2="-13.53"/>
  <line y1="-13.53" style="fill:none;stroke:#000000;stroke-width:0.3;" x2="38.68" x1="32.311" y2="-13.53"/>
  <line y1="-10.394" style="fill:none;stroke:#000000;stroke-width:0.3;" x2="0.465" x1="6.834" y2="-10.394"/>
  <line y1="-10.394" style="fill:none;stroke:#000000;stroke-width:0.3;" x2="15.751" x1="9.382" y2="-10.394"/>
  <line y1="-10.394" style="fill:none;stroke:#000000;stroke-width:0.3;" x2="24.667" x1="18.299" y2="-10.394"/>
  <line y1="-10.394" style="fill:none;stroke:#000000;stroke-width:0.3;" x2="33.584" x1="27.215" y2="-10.394"/>
  <line y1="-10.394" style="fill:none;stroke:#000000;stroke-width:0.3;" x2="42.501" x1="36.132" y2="-10.394"/>
  <line y1="-7.425" style="fill:none;stroke:#000000;stroke-width:0.3;" x2="2.184" x1="0" y2="-7.425"/>
  <line y1="-7.425" style="fill:none;stroke:#000000;stroke-width:0.3;" x2="4.765" x1="11.134" y2="-7.425"/>
  <line y1="-7.425" style="fill:none;stroke:#000000;stroke-width:0.3;" x2="13.681" x1="20.05" y2="-7.425"/>
  <line y1="-7.425" style="fill:none;stroke:#000000;stroke-width:0.3;" x2="22.598" x1="28.967" y2="-7.425"/>
  <line y1="-7.425" style="fill:none;stroke:#000000;stroke-width:0.3;" x2="31.515" x1="37.883" y2="-7.425"/>
  <line y1="-19.635" style="fill:none;stroke:#000000;stroke-width:0.3;" x2="0" x1="4.457" y2="-19.635"/>
  <line y1="-19.635" style="fill:none;stroke:#000000;stroke-width:0.3;" x2="19.207" x1="33.957" y2="-19.635"/>
  <line y1="-19.635" style="fill:none;stroke:#000000;stroke-width:0.3;" x2="4.457" x1="19.207" y2="-19.635"/>
  <line y1="-19.635" style="fill:none;stroke:#000000;stroke-width:0.3;" x2="44.667" x1="33.957" y2="-19.635"/>
  <line y1="-16.354" style="fill:none;stroke:#000000;stroke-width:0.3;" x2="44.667" x1="0" y2="-16.354"/>
  <line y1="-19.635" style="fill:none;stroke:#000000;stroke-width:0.3;" x2="33.957" x1="33.957" y2="-16.366"/>
  <line y1="-19.635" style="fill:none;stroke:#000000;stroke-width:0.3;" x2="33.957" x1="33.957" y2="-19.667"/>
  <line y1="-19.635" style="fill:none;stroke:#000000;stroke-width:0.3;" x2="19.207" x1="19.207" y2="-16.366"/>
  <line y1="-19.667" style="fill:none;stroke:#000000;stroke-width:0.3;" x2="19.207" x1="19.207" y2="-19.635"/>
  <line y1="-19.667" style="fill:none;stroke:#000000;stroke-width:0.3;" x2="4.457" x1="4.457" y2="-19.635"/>
  <line y1="-19.635" style="fill:none;stroke:#000000;stroke-width:0.3;" x2="4.457" x1="4.457" y2="-16.366"/>
  <line y1="-31.307" style="fill:none;stroke:#000000;stroke-width:0.3;" x2="37.921" x1="23.921" y2="-31.307"/>
  <line y1="-31.307" style="fill:none;stroke:#000000;stroke-width:0.3;" x2="23.921" x1="6.983" y2="-31.307"/>
  <line y1="-31.307" style="fill:none;stroke:#000000;stroke-width:0.3;" x2="0" x1="6.983" y2="-31.307"/>
  <line y1="-31.307" style="fill:none;stroke:#000000;stroke-width:0.3;" x2="44.667" x1="37.921" y2="-31.307"/>
  <line y1="-34.686" style="fill:none;stroke:#000000;stroke-width:0.3;" x2="0" x1="6.983" y2="-34.686"/>
  <line y1="-34.686" style="fill:none;stroke:#000000;stroke-width:0.3;" x2="44.667" x1="37.921" y2="-34.686"/>
  <line y1="-34.686" style="fill:none;stroke:#000000;stroke-width:0.3;" x2="23.921" x1="37.921" y2="-34.686"/>
  <line y1="-34.686" style="fill:none;stroke:#000000;stroke-width:0.3;" x2="23.921" x1="6.983" y2="-34.686"/>
  <line y1="-34.686" style="fill:none;stroke:#000000;stroke-width:0.3;" x2="6.983" x1="6.983" y2="-31.307"/>
  <line y1="-34.686" style="fill:none;stroke:#000000;stroke-width:0.3;" x2="6.983" x1="6.983" y2="-34.698"/>
  <line y1="-31.307" style="fill:none;stroke:#000000;stroke-width:0.3;" x2="6.983" x1="6.983" y2="-31.273"/>
  <line y1="-34.686" style="fill:none;stroke:#000000;stroke-width:0.3;" x2="23.921" x1="23.921" y2="-31.307"/>
  <line y1="-34.686" style="fill:none;stroke:#000000;stroke-width:0.3;" x2="23.921" x1="23.921" y2="-34.698"/>
  <line y1="-31.273" style="fill:none;stroke:#000000;stroke-width:0.3;" x2="23.921" x1="23.921" y2="-31.307"/>
  <line y1="-31.307" style="fill:none;stroke:#000000;stroke-width:0.3;" x2="37.921" x1="37.921" y2="-31.273"/>
  <line y1="-31.307" style="fill:none;stroke:#000000;stroke-width:0.3;" x2="37.921" x1="37.921" y2="-34.686"/>
  <line y1="-34.698" style="fill:none;stroke:#000000;stroke-width:0.3;" x2="37.921" x1="37.921" y2="-34.686"/>
  <line y1="-4.662" style="fill:none;stroke:#000000;stroke-width:0.3;" x2="44.667" x1="0" y2="-4.662"/>
  <line y1="-1.437" style="fill:none;stroke:#000000;stroke-width:0.3;" x2="44.667" x1="0" y2="-1.437"/>
  <line y1="-1.45" style="fill:none;stroke:#000000;stroke-width:0.3;" x2="36.915" x1="36.915" y2="-4.612"/>
  <line y1="-4.612" style="fill:none;stroke:#000000;stroke-width:0.3;" x2="25.276" x1="25.276" y2="-1.45"/>
  <line y1="-4.612" style="fill:none;stroke:#000000;stroke-width:0.3;" x2="13.709" x1="13.709" y2="-1.45"/>
  <line y1="-4.612" style="fill:none;stroke:#000000;stroke-width:0.3;" x2="1.707" x1="1.707" y2="-1.45"/>
  <line y1="-43.404" style="fill:none;stroke:#000000;stroke-width:0.3;" x2="44.667" x1="42.074" y2="-43.404"/>
  <line y1="-37.299" style="fill:none;stroke:#000000;stroke-width:0.3;" x2="40.323" x1="44.667" y2="-37.299"/>
  <line y1="-28.52" style="fill:none;stroke:#000000;stroke-width:0.3;" x2="43.54" x1="44.667" y2="-28.52"/>
  <line y1="-25.353" style="fill:none;stroke:#000000;stroke-width:0.3;" x2="44.667" x1="40.482" y2="-25.353"/>
  <line y1="-13.53" style="fill:none;stroke:#000000;stroke-width:0.3;" x2="44.667" x1="41.278" y2="-13.53"/>
  <line y1="-7.425" style="fill:none;stroke:#000000;stroke-width:0.3;" x2="44.667" x1="40.482" y2="-7.425"/>
 </g>
</svg>
