<?xml version="1.0"?>
<!-- Converted with SVG Converter - Version 0.9.5 (Compiled Fri Feb 21 09:53:38 2020) - Copyright (C) 2011 Nokia -->
<svg xmlns="http://www.w3.org/2000/svg" version="1.1" y="0px" x="0px" xmlns:xlink="http://www.w3.org/1999/xlink" xml:space="preserve" height="44.667" viewBox="0 -44.667 44.667 44.667" width="44.667" baseProfile="tiny">
 <g>
  <rect y="-44.667" x="0" style="fill:none;" height="44.667" width="44.667"/>
  <line x1="3.776" style="fill:none;stroke:#000000;stroke-width:0.3;" x2="0" y2="-43.404" y1="-43.404"/>
  <line x1="6.356" style="fill:none;stroke:#000000;stroke-width:0.3;" x2="12.726" y2="-43.404" y1="-43.404"/>
  <line x1="15.273" style="fill:none;stroke:#000000;stroke-width:0.3;" x2="21.643" y2="-43.404" y1="-43.404"/>
  <line x1="24.19" style="fill:none;stroke:#000000;stroke-width:0.3;" x2="30.559" y2="-43.404" y1="-43.404"/>
  <line x1="33.106" style="fill:none;stroke:#000000;stroke-width:0.3;" x2="39.476" y2="-43.404" y1="-43.404"/>
  <line x1="8.108" style="fill:none;stroke:#000000;stroke-width:0.3;" x2="1.739" y2="-40.269" y1="-40.269"/>
  <line x1="17.024" style="fill:none;stroke:#000000;stroke-width:0.3;" x2="10.655" y2="-40.269" y1="-40.269"/>
  <line x1="19.572" style="fill:none;stroke:#000000;stroke-width:0.3;" x2="25.941" y2="-40.269" y1="-40.269"/>
  <line x1="34.858" style="fill:none;stroke:#000000;stroke-width:0.3;" x2="28.489" y2="-40.269" y1="-40.269"/>
  <line x1="37.405" style="fill:none;stroke:#000000;stroke-width:0.3;" x2="43.774" y2="-40.269" y1="-40.269"/>
  <line x1="0" style="fill:none;stroke:#000000;stroke-width:0.3;" x2="2.024" y2="-37.299" y1="-37.299"/>
  <line x1="10.975" style="fill:none;stroke:#000000;stroke-width:0.3;" x2="4.606" y2="-37.299" y1="-37.299"/>
  <line x1="19.891" style="fill:none;stroke:#000000;stroke-width:0.3;" x2="13.521" y2="-37.299" y1="-37.299"/>
  <line x1="22.438" style="fill:none;stroke:#000000;stroke-width:0.3;" x2="28.808" y2="-37.299" y1="-37.299"/>
  <line x1="37.724" style="fill:none;stroke:#000000;stroke-width:0.3;" x2="31.354" y2="-37.299" y1="-37.299"/>
  <line x1="5.242" style="fill:none;stroke:#000000;stroke-width:0.3;" x2="0" y2="-28.52" y1="-28.52"/>
  <line x1="14.158" style="fill:none;stroke:#000000;stroke-width:0.3;" x2="7.79" y2="-28.52" y1="-28.52"/>
  <line x1="16.706" style="fill:none;stroke:#000000;stroke-width:0.3;" x2="23.075" y2="-28.52" y1="-28.52"/>
  <line x1="25.623" style="fill:none;stroke:#000000;stroke-width:0.3;" x2="31.992" y2="-28.52" y1="-28.52"/>
  <line x1="34.539" style="fill:none;stroke:#000000;stroke-width:0.3;" x2="40.908" y2="-28.52" y1="-28.52"/>
  <line x1="0" style="fill:none;stroke:#000000;stroke-width:0.3;" x2="2.184" y2="-25.353" y1="-25.353"/>
  <line x1="11.134" style="fill:none;stroke:#000000;stroke-width:0.3;" x2="4.765" y2="-25.353" y1="-25.353"/>
  <line x1="20.05" style="fill:none;stroke:#000000;stroke-width:0.3;" x2="13.681" y2="-25.353" y1="-25.353"/>
  <line x1="22.598" style="fill:none;stroke:#000000;stroke-width:0.3;" x2="28.967" y2="-25.353" y1="-25.353"/>
  <line x1="31.515" style="fill:none;stroke:#000000;stroke-width:0.3;" x2="37.883" y2="-25.353" y1="-25.353"/>
  <line x1="6.675" style="fill:none;stroke:#000000;stroke-width:0.3;" x2="0.306" y2="-22.44" y1="-22.44"/>
  <line x1="9.223" style="fill:none;stroke:#000000;stroke-width:0.3;" x2="15.592" y2="-22.44" y1="-22.44"/>
  <line x1="18.14" style="fill:none;stroke:#000000;stroke-width:0.3;" x2="24.508" y2="-22.44" y1="-22.44"/>
  <line x1="33.425" style="fill:none;stroke:#000000;stroke-width:0.3;" x2="27.056" y2="-22.44" y1="-22.44"/>
  <line x1="35.973" style="fill:none;stroke:#000000;stroke-width:0.3;" x2="42.342" y2="-22.44" y1="-22.44"/>
  <line x1="2.98" style="fill:none;stroke:#000000;stroke-width:0.3;" x2="0" y2="-13.53" y1="-13.53"/>
  <line x1="5.561" style="fill:none;stroke:#000000;stroke-width:0.3;" x2="11.93" y2="-13.53" y1="-13.53"/>
  <line x1="14.477" style="fill:none;stroke:#000000;stroke-width:0.3;" x2="20.846" y2="-13.53" y1="-13.53"/>
  <line x1="23.394" style="fill:none;stroke:#000000;stroke-width:0.3;" x2="29.763" y2="-13.53" y1="-13.53"/>
  <line x1="32.311" style="fill:none;stroke:#000000;stroke-width:0.3;" x2="38.68" y2="-13.53" y1="-13.53"/>
  <line x1="6.834" style="fill:none;stroke:#000000;stroke-width:0.3;" x2="0.465" y2="-10.394" y1="-10.394"/>
  <line x1="9.382" style="fill:none;stroke:#000000;stroke-width:0.3;" x2="15.751" y2="-10.394" y1="-10.394"/>
  <line x1="18.299" style="fill:none;stroke:#000000;stroke-width:0.3;" x2="24.667" y2="-10.394" y1="-10.394"/>
  <line x1="27.215" style="fill:none;stroke:#000000;stroke-width:0.3;" x2="33.584" y2="-10.394" y1="-10.394"/>
  <line x1="36.132" style="fill:none;stroke:#000000;stroke-width:0.3;" x2="42.501" y2="-10.394" y1="-10.394"/>
  <line x1="0" style="fill:none;stroke:#000000;stroke-width:0.3;" x2="2.184" y2="-7.425" y1="-7.425"/>
  <line x1="11.134" style="fill:none;stroke:#000000;stroke-width:0.3;" x2="4.765" y2="-7.425" y1="-7.425"/>
  <line x1="20.05" style="fill:none;stroke:#000000;stroke-width:0.3;" x2="13.681" y2="-7.425" y1="-7.425"/>
  <line x1="28.967" style="fill:none;stroke:#000000;stroke-width:0.3;" x2="22.598" y2="-7.425" y1="-7.425"/>
  <line x1="37.883" style="fill:none;stroke:#000000;stroke-width:0.3;" x2="31.515" y2="-7.425" y1="-7.425"/>
  <line x1="4.457" style="fill:none;stroke:#000000;stroke-width:0.3;" x2="0" y2="-19.635" y1="-19.635"/>
  <line x1="33.957" style="fill:none;stroke:#000000;stroke-width:0.3;" x2="19.207" y2="-19.635" y1="-19.635"/>
  <line x1="19.207" style="fill:none;stroke:#000000;stroke-width:0.3;" x2="4.457" y2="-19.635" y1="-19.635"/>
  <line x1="33.957" style="fill:none;stroke:#000000;stroke-width:0.3;" x2="44.667" y2="-19.635" y1="-19.635"/>
  <line x1="0" style="fill:none;stroke:#000000;stroke-width:0.3;" x2="44.667" y2="-16.354" y1="-16.354"/>
  <line x1="33.957" style="fill:none;stroke:#000000;stroke-width:0.3;" x2="33.957" y2="-16.366" y1="-19.635"/>
  <line x1="33.957" style="fill:none;stroke:#000000;stroke-width:0.3;" x2="33.957" y2="-19.667" y1="-19.635"/>
  <line x1="19.207" style="fill:none;stroke:#000000;stroke-width:0.3;" x2="19.207" y2="-16.366" y1="-19.635"/>
  <line x1="19.207" style="fill:none;stroke:#000000;stroke-width:0.3;" x2="19.207" y2="-19.635" y1="-19.667"/>
  <line x1="4.457" style="fill:none;stroke:#000000;stroke-width:0.3;" x2="4.457" y2="-19.635" y1="-19.667"/>
  <line x1="4.457" style="fill:none;stroke:#000000;stroke-width:0.3;" x2="4.457" y2="-16.366" y1="-19.635"/>
  <line x1="23.921" style="fill:none;stroke:#000000;stroke-width:0.3;" x2="37.921" y2="-31.307" y1="-31.307"/>
  <line x1="6.983" style="fill:none;stroke:#000000;stroke-width:0.3;" x2="23.921" y2="-31.307" y1="-31.307"/>
  <line x1="6.983" style="fill:none;stroke:#000000;stroke-width:0.3;" x2="0" y2="-31.307" y1="-31.307"/>
  <line x1="37.921" style="fill:none;stroke:#000000;stroke-width:0.3;" x2="44.667" y2="-31.307" y1="-31.307"/>
  <line x1="6.983" style="fill:none;stroke:#000000;stroke-width:0.3;" x2="0" y2="-34.686" y1="-34.686"/>
  <line x1="37.921" style="fill:none;stroke:#000000;stroke-width:0.3;" x2="44.667" y2="-34.686" y1="-34.686"/>
  <line x1="37.921" style="fill:none;stroke:#000000;stroke-width:0.3;" x2="23.921" y2="-34.686" y1="-34.686"/>
  <line x1="6.983" style="fill:none;stroke:#000000;stroke-width:0.3;" x2="23.921" y2="-34.686" y1="-34.686"/>
  <line x1="6.983" style="fill:none;stroke:#000000;stroke-width:0.3;" x2="6.983" y2="-31.307" y1="-34.686"/>
  <line x1="6.983" style="fill:none;stroke:#000000;stroke-width:0.3;" x2="6.983" y2="-34.698" y1="-34.686"/>
  <line x1="6.983" style="fill:none;stroke:#000000;stroke-width:0.3;" x2="6.983" y2="-31.273" y1="-31.307"/>
  <line x1="23.921" style="fill:none;stroke:#000000;stroke-width:0.3;" x2="23.921" y2="-31.307" y1="-34.686"/>
  <line x1="23.921" style="fill:none;stroke:#000000;stroke-width:0.3;" x2="23.921" y2="-34.698" y1="-34.686"/>
  <line x1="23.921" style="fill:none;stroke:#000000;stroke-width:0.3;" x2="23.921" y2="-31.307" y1="-31.273"/>
  <line x1="37.921" style="fill:none;stroke:#000000;stroke-width:0.3;" x2="37.921" y2="-31.273" y1="-31.307"/>
  <line x1="37.921" style="fill:none;stroke:#000000;stroke-width:0.3;" x2="37.921" y2="-34.686" y1="-31.307"/>
  <line x1="37.921" style="fill:none;stroke:#000000;stroke-width:0.3;" x2="37.921" y2="-34.686" y1="-34.698"/>
  <line x1="0" style="fill:none;stroke:#000000;stroke-width:0.3;" x2="44.667" y2="-4.662" y1="-4.662"/>
  <line x1="0" style="fill:none;stroke:#000000;stroke-width:0.3;" x2="44.667" y2="-1.437" y1="-1.437"/>
  <line x1="36.915" style="fill:none;stroke:#000000;stroke-width:0.3;" x2="36.915" y2="-4.612" y1="-1.45"/>
  <line x1="25.276" style="fill:none;stroke:#000000;stroke-width:0.3;" x2="25.276" y2="-1.45" y1="-4.612"/>
  <line x1="13.709" style="fill:none;stroke:#000000;stroke-width:0.3;" x2="13.709" y2="-1.45" y1="-4.612"/>
  <line x1="1.707" style="fill:none;stroke:#000000;stroke-width:0.3;" x2="1.707" y2="-1.45" y1="-4.612"/>
  <line x1="42.074" style="fill:none;stroke:#000000;stroke-width:0.3;" x2="44.667" y2="-43.404" y1="-43.404"/>
  <line x1="44.667" style="fill:none;stroke:#000000;stroke-width:0.3;" x2="40.323" y2="-37.299" y1="-37.299"/>
  <line x1="44.667" style="fill:none;stroke:#000000;stroke-width:0.3;" x2="43.54" y2="-28.52" y1="-28.52"/>
  <line x1="40.482" style="fill:none;stroke:#000000;stroke-width:0.3;" x2="44.667" y2="-25.353" y1="-25.353"/>
  <line x1="41.278" style="fill:none;stroke:#000000;stroke-width:0.3;" x2="44.667" y2="-13.53" y1="-13.53"/>
  <line x1="40.482" style="fill:none;stroke:#000000;stroke-width:0.3;" x2="44.667" y2="-7.425" y1="-7.425"/>
 </g>
</svg>
