<?xml version="1.0"?>
<!-- Converted with SVG Converter - Version 0.9.5 (Compiled Fri Feb 21 09:53:38 2020) - Copyright (C) 2011 Nokia -->
<svg xmlns="http://www.w3.org/2000/svg" x="0px" xml:space="preserve" height="44.667" baseProfile="tiny" y="0px" viewBox="0 -44.667 44.667 44.667" xmlns:xlink="http://www.w3.org/1999/xlink" version="1.1" width="44.667">
 <g>
  <rect x="0" height="44.667" y="-44.667" style="fill:none;" width="44.667"/>
  <line y2="-43.404" x1="3.776" x2="0" style="fill:none;stroke:#000000;stroke-width:0.3;" y1="-43.404"/>
  <line y2="-43.404" x1="6.356" x2="12.726" style="fill:none;stroke:#000000;stroke-width:0.3;" y1="-43.404"/>
  <line y2="-43.404" x1="15.273" x2="21.643" style="fill:none;stroke:#000000;stroke-width:0.3;" y1="-43.404"/>
  <line y2="-43.404" x1="24.19" x2="30.559" style="fill:none;stroke:#000000;stroke-width:0.3;" y1="-43.404"/>
  <line y2="-43.404" x1="33.106" x2="39.476" style="fill:none;stroke:#000000;stroke-width:0.3;" y1="-43.404"/>
  <line y2="-40.269" x1="8.108" x2="1.739" style="fill:none;stroke:#000000;stroke-width:0.3;" y1="-40.269"/>
  <line y2="-40.269" x1="17.024" x2="10.655" style="fill:none;stroke:#000000;stroke-width:0.3;" y1="-40.269"/>
  <line y2="-40.269" x1="19.572" x2="25.941" style="fill:none;stroke:#000000;stroke-width:0.3;" y1="-40.269"/>
  <line y2="-40.269" x1="34.858" x2="28.489" style="fill:none;stroke:#000000;stroke-width:0.3;" y1="-40.269"/>
  <line y2="-40.269" x1="37.405" x2="43.774" style="fill:none;stroke:#000000;stroke-width:0.3;" y1="-40.269"/>
  <line y2="-37.299" x1="0" x2="2.024" style="fill:none;stroke:#000000;stroke-width:0.3;" y1="-37.299"/>
  <line y2="-37.299" x1="10.975" x2="4.606" style="fill:none;stroke:#000000;stroke-width:0.3;" y1="-37.299"/>
  <line y2="-37.299" x1="19.891" x2="13.521" style="fill:none;stroke:#000000;stroke-width:0.3;" y1="-37.299"/>
  <line y2="-37.299" x1="22.438" x2="28.808" style="fill:none;stroke:#000000;stroke-width:0.3;" y1="-37.299"/>
  <line y2="-37.299" x1="37.724" x2="31.354" style="fill:none;stroke:#000000;stroke-width:0.3;" y1="-37.299"/>
  <line y2="-28.52" x1="5.242" x2="0" style="fill:none;stroke:#000000;stroke-width:0.3;" y1="-28.52"/>
  <line y2="-28.52" x1="14.158" x2="7.79" style="fill:none;stroke:#000000;stroke-width:0.3;" y1="-28.52"/>
  <line y2="-28.52" x1="16.706" x2="23.075" style="fill:none;stroke:#000000;stroke-width:0.3;" y1="-28.52"/>
  <line y2="-28.52" x1="25.623" x2="31.992" style="fill:none;stroke:#000000;stroke-width:0.3;" y1="-28.52"/>
  <line y2="-28.52" x1="34.539" x2="40.908" style="fill:none;stroke:#000000;stroke-width:0.3;" y1="-28.52"/>
  <line y2="-25.353" x1="0" x2="2.184" style="fill:none;stroke:#000000;stroke-width:0.3;" y1="-25.353"/>
  <line y2="-25.353" x1="11.134" x2="4.765" style="fill:none;stroke:#000000;stroke-width:0.3;" y1="-25.353"/>
  <line y2="-25.353" x1="20.05" x2="13.681" style="fill:none;stroke:#000000;stroke-width:0.3;" y1="-25.353"/>
  <line y2="-25.353" x1="22.598" x2="28.967" style="fill:none;stroke:#000000;stroke-width:0.3;" y1="-25.353"/>
  <line y2="-25.353" x1="31.515" x2="37.883" style="fill:none;stroke:#000000;stroke-width:0.3;" y1="-25.353"/>
  <line y2="-22.44" x1="6.675" x2="0.306" style="fill:none;stroke:#000000;stroke-width:0.3;" y1="-22.44"/>
  <line y2="-22.44" x1="9.223" x2="15.592" style="fill:none;stroke:#000000;stroke-width:0.3;" y1="-22.44"/>
  <line y2="-22.44" x1="18.14" x2="24.508" style="fill:none;stroke:#000000;stroke-width:0.3;" y1="-22.44"/>
  <line y2="-22.44" x1="33.425" x2="27.056" style="fill:none;stroke:#000000;stroke-width:0.3;" y1="-22.44"/>
  <line y2="-22.44" x1="35.973" x2="42.342" style="fill:none;stroke:#000000;stroke-width:0.3;" y1="-22.44"/>
  <line y2="-13.53" x1="2.98" x2="0" style="fill:none;stroke:#000000;stroke-width:0.3;" y1="-13.53"/>
  <line y2="-13.53" x1="5.561" x2="11.93" style="fill:none;stroke:#000000;stroke-width:0.3;" y1="-13.53"/>
  <line y2="-13.53" x1="14.477" x2="20.846" style="fill:none;stroke:#000000;stroke-width:0.3;" y1="-13.53"/>
  <line y2="-13.53" x1="23.394" x2="29.763" style="fill:none;stroke:#000000;stroke-width:0.3;" y1="-13.53"/>
  <line y2="-13.53" x1="32.311" x2="38.68" style="fill:none;stroke:#000000;stroke-width:0.3;" y1="-13.53"/>
  <line y2="-10.394" x1="6.834" x2="0.465" style="fill:none;stroke:#000000;stroke-width:0.3;" y1="-10.394"/>
  <line y2="-10.394" x1="9.382" x2="15.751" style="fill:none;stroke:#000000;stroke-width:0.3;" y1="-10.394"/>
  <line y2="-10.394" x1="18.299" x2="24.667" style="fill:none;stroke:#000000;stroke-width:0.3;" y1="-10.394"/>
  <line y2="-10.394" x1="27.215" x2="33.584" style="fill:none;stroke:#000000;stroke-width:0.3;" y1="-10.394"/>
  <line y2="-10.394" x1="36.132" x2="42.501" style="fill:none;stroke:#000000;stroke-width:0.3;" y1="-10.394"/>
  <line y2="-7.425" x1="0" x2="2.184" style="fill:none;stroke:#000000;stroke-width:0.3;" y1="-7.425"/>
  <line y2="-7.425" x1="11.134" x2="4.765" style="fill:none;stroke:#000000;stroke-width:0.3;" y1="-7.425"/>
  <line y2="-7.425" x1="20.05" x2="13.681" style="fill:none;stroke:#000000;stroke-width:0.3;" y1="-7.425"/>
  <line y2="-7.425" x1="28.967" x2="22.598" style="fill:none;stroke:#000000;stroke-width:0.3;" y1="-7.425"/>
  <line y2="-7.425" x1="37.883" x2="31.515" style="fill:none;stroke:#000000;stroke-width:0.3;" y1="-7.425"/>
  <line y2="-19.635" x1="4.457" x2="0" style="fill:none;stroke:#000000;stroke-width:0.3;" y1="-19.635"/>
  <line y2="-19.635" x1="33.957" x2="19.207" style="fill:none;stroke:#000000;stroke-width:0.3;" y1="-19.635"/>
  <line y2="-19.635" x1="19.207" x2="4.457" style="fill:none;stroke:#000000;stroke-width:0.3;" y1="-19.635"/>
  <line y2="-19.635" x1="33.957" x2="44.667" style="fill:none;stroke:#000000;stroke-width:0.3;" y1="-19.635"/>
  <line y2="-16.354" x1="0" x2="44.667" style="fill:none;stroke:#000000;stroke-width:0.3;" y1="-16.354"/>
  <line y2="-16.366" x1="33.957" x2="33.957" style="fill:none;stroke:#000000;stroke-width:0.3;" y1="-19.635"/>
  <line y2="-19.667" x1="33.957" x2="33.957" style="fill:none;stroke:#000000;stroke-width:0.3;" y1="-19.635"/>
  <line y2="-16.366" x1="19.207" x2="19.207" style="fill:none;stroke:#000000;stroke-width:0.3;" y1="-19.635"/>
  <line y2="-19.635" x1="19.207" x2="19.207" style="fill:none;stroke:#000000;stroke-width:0.3;" y1="-19.667"/>
  <line y2="-19.635" x1="4.457" x2="4.457" style="fill:none;stroke:#000000;stroke-width:0.3;" y1="-19.667"/>
  <line y2="-16.366" x1="4.457" x2="4.457" style="fill:none;stroke:#000000;stroke-width:0.3;" y1="-19.635"/>
  <line y2="-31.307" x1="23.921" x2="37.921" style="fill:none;stroke:#000000;stroke-width:0.3;" y1="-31.307"/>
  <line y2="-31.307" x1="6.983" x2="23.921" style="fill:none;stroke:#000000;stroke-width:0.3;" y1="-31.307"/>
  <line y2="-31.307" x1="6.983" x2="0" style="fill:none;stroke:#000000;stroke-width:0.3;" y1="-31.307"/>
  <line y2="-31.307" x1="37.921" x2="44.667" style="fill:none;stroke:#000000;stroke-width:0.3;" y1="-31.307"/>
  <line y2="-34.686" x1="6.983" x2="0" style="fill:none;stroke:#000000;stroke-width:0.3;" y1="-34.686"/>
  <line y2="-34.686" x1="37.921" x2="44.667" style="fill:none;stroke:#000000;stroke-width:0.3;" y1="-34.686"/>
  <line y2="-34.686" x1="37.921" x2="23.921" style="fill:none;stroke:#000000;stroke-width:0.3;" y1="-34.686"/>
  <line y2="-34.686" x1="6.983" x2="23.921" style="fill:none;stroke:#000000;stroke-width:0.3;" y1="-34.686"/>
  <line y2="-31.307" x1="6.983" x2="6.983" style="fill:none;stroke:#000000;stroke-width:0.3;" y1="-34.686"/>
  <line y2="-34.698" x1="6.983" x2="6.983" style="fill:none;stroke:#000000;stroke-width:0.3;" y1="-34.686"/>
  <line y2="-31.273" x1="6.983" x2="6.983" style="fill:none;stroke:#000000;stroke-width:0.3;" y1="-31.307"/>
  <line y2="-31.307" x1="23.921" x2="23.921" style="fill:none;stroke:#000000;stroke-width:0.3;" y1="-34.686"/>
  <line y2="-34.698" x1="23.921" x2="23.921" style="fill:none;stroke:#000000;stroke-width:0.3;" y1="-34.686"/>
  <line y2="-31.307" x1="23.921" x2="23.921" style="fill:none;stroke:#000000;stroke-width:0.3;" y1="-31.273"/>
  <line y2="-31.273" x1="37.921" x2="37.921" style="fill:none;stroke:#000000;stroke-width:0.3;" y1="-31.307"/>
  <line y2="-34.686" x1="37.921" x2="37.921" style="fill:none;stroke:#000000;stroke-width:0.3;" y1="-31.307"/>
  <line y2="-34.686" x1="37.921" x2="37.921" style="fill:none;stroke:#000000;stroke-width:0.3;" y1="-34.698"/>
  <line y2="-4.662" x1="0" x2="44.667" style="fill:none;stroke:#000000;stroke-width:0.3;" y1="-4.662"/>
  <line y2="-1.437" x1="0" x2="44.667" style="fill:none;stroke:#000000;stroke-width:0.3;" y1="-1.437"/>
  <line y2="-4.612" x1="36.915" x2="36.915" style="fill:none;stroke:#000000;stroke-width:0.3;" y1="-1.45"/>
  <line y2="-1.45" x1="25.276" x2="25.276" style="fill:none;stroke:#000000;stroke-width:0.3;" y1="-4.612"/>
  <line y2="-1.45" x1="13.709" x2="13.709" style="fill:none;stroke:#000000;stroke-width:0.3;" y1="-4.612"/>
  <line y2="-1.45" x1="1.707" x2="1.707" style="fill:none;stroke:#000000;stroke-width:0.3;" y1="-4.612"/>
  <line y2="-43.404" x1="42.074" x2="44.667" style="fill:none;stroke:#000000;stroke-width:0.3;" y1="-43.404"/>
  <line y2="-37.299" x1="44.667" x2="40.323" style="fill:none;stroke:#000000;stroke-width:0.3;" y1="-37.299"/>
  <line y2="-28.52" x1="44.667" x2="43.54" style="fill:none;stroke:#000000;stroke-width:0.3;" y1="-28.52"/>
  <line y2="-25.353" x1="40.482" x2="44.667" style="fill:none;stroke:#000000;stroke-width:0.3;" y1="-25.353"/>
  <line y2="-13.53" x1="41.278" x2="44.667" style="fill:none;stroke:#000000;stroke-width:0.3;" y1="-13.53"/>
  <line y2="-7.425" x1="40.482" x2="44.667" style="fill:none;stroke:#000000;stroke-width:0.3;" y1="-7.425"/>
 </g>
</svg>
