<?xml version="1.0"?>
<!-- Converted with SVG Converter - Version 0.9.5 (Compiled Fri Feb 21 09:53:38 2020) - Copyright (C) 2011 Nokia -->
<svg xmlns="http://www.w3.org/2000/svg" baseProfile="tiny" height="44.667" viewBox="0 -44.667 44.667 44.667" x="0px" width="44.667" y="0px" xml:space="preserve" xmlns:xlink="http://www.w3.org/1999/xlink" version="1.1">
 <g>
  <rect height="44.667" x="0" width="44.667" y="-44.667" style="fill:none;"/>
  <line x1="3.776" y2="-43.404" x2="0" style="fill:none;stroke:#000000;stroke-width:0.3;" y1="-43.404"/>
  <line x1="6.356" y2="-43.404" x2="12.726" style="fill:none;stroke:#000000;stroke-width:0.3;" y1="-43.404"/>
  <line x1="15.273" y2="-43.404" x2="21.643" style="fill:none;stroke:#000000;stroke-width:0.3;" y1="-43.404"/>
  <line x1="24.19" y2="-43.404" x2="30.559" style="fill:none;stroke:#000000;stroke-width:0.3;" y1="-43.404"/>
  <line x1="33.106" y2="-43.404" x2="39.476" style="fill:none;stroke:#000000;stroke-width:0.3;" y1="-43.404"/>
  <line x1="8.108" y2="-40.269" x2="1.739" style="fill:none;stroke:#000000;stroke-width:0.3;" y1="-40.269"/>
  <line x1="17.024" y2="-40.269" x2="10.655" style="fill:none;stroke:#000000;stroke-width:0.3;" y1="-40.269"/>
  <line x1="19.572" y2="-40.269" x2="25.941" style="fill:none;stroke:#000000;stroke-width:0.3;" y1="-40.269"/>
  <line x1="34.858" y2="-40.269" x2="28.489" style="fill:none;stroke:#000000;stroke-width:0.3;" y1="-40.269"/>
  <line x1="37.405" y2="-40.269" x2="43.774" style="fill:none;stroke:#000000;stroke-width:0.3;" y1="-40.269"/>
  <line x1="0" y2="-37.299" x2="2.024" style="fill:none;stroke:#000000;stroke-width:0.3;" y1="-37.299"/>
  <line x1="10.975" y2="-37.299" x2="4.606" style="fill:none;stroke:#000000;stroke-width:0.3;" y1="-37.299"/>
  <line x1="19.891" y2="-37.299" x2="13.521" style="fill:none;stroke:#000000;stroke-width:0.3;" y1="-37.299"/>
  <line x1="22.438" y2="-37.299" x2="28.808" style="fill:none;stroke:#000000;stroke-width:0.3;" y1="-37.299"/>
  <line x1="37.724" y2="-37.299" x2="31.354" style="fill:none;stroke:#000000;stroke-width:0.3;" y1="-37.299"/>
  <line x1="5.242" y2="-28.52" x2="0" style="fill:none;stroke:#000000;stroke-width:0.3;" y1="-28.52"/>
  <line x1="14.158" y2="-28.52" x2="7.79" style="fill:none;stroke:#000000;stroke-width:0.3;" y1="-28.52"/>
  <line x1="16.706" y2="-28.52" x2="23.075" style="fill:none;stroke:#000000;stroke-width:0.3;" y1="-28.52"/>
  <line x1="25.623" y2="-28.52" x2="31.992" style="fill:none;stroke:#000000;stroke-width:0.3;" y1="-28.52"/>
  <line x1="34.539" y2="-28.52" x2="40.908" style="fill:none;stroke:#000000;stroke-width:0.3;" y1="-28.52"/>
  <line x1="0" y2="-25.353" x2="2.184" style="fill:none;stroke:#000000;stroke-width:0.3;" y1="-25.353"/>
  <line x1="11.134" y2="-25.353" x2="4.765" style="fill:none;stroke:#000000;stroke-width:0.3;" y1="-25.353"/>
  <line x1="20.05" y2="-25.353" x2="13.681" style="fill:none;stroke:#000000;stroke-width:0.3;" y1="-25.353"/>
  <line x1="22.598" y2="-25.353" x2="28.967" style="fill:none;stroke:#000000;stroke-width:0.3;" y1="-25.353"/>
  <line x1="31.515" y2="-25.353" x2="37.883" style="fill:none;stroke:#000000;stroke-width:0.3;" y1="-25.353"/>
  <line x1="6.675" y2="-22.44" x2="0.306" style="fill:none;stroke:#000000;stroke-width:0.3;" y1="-22.44"/>
  <line x1="9.223" y2="-22.44" x2="15.592" style="fill:none;stroke:#000000;stroke-width:0.3;" y1="-22.44"/>
  <line x1="18.14" y2="-22.44" x2="24.508" style="fill:none;stroke:#000000;stroke-width:0.3;" y1="-22.44"/>
  <line x1="33.425" y2="-22.44" x2="27.056" style="fill:none;stroke:#000000;stroke-width:0.3;" y1="-22.44"/>
  <line x1="35.973" y2="-22.44" x2="42.342" style="fill:none;stroke:#000000;stroke-width:0.3;" y1="-22.44"/>
  <line x1="2.98" y2="-13.53" x2="0" style="fill:none;stroke:#000000;stroke-width:0.3;" y1="-13.53"/>
  <line x1="5.561" y2="-13.53" x2="11.93" style="fill:none;stroke:#000000;stroke-width:0.3;" y1="-13.53"/>
  <line x1="14.477" y2="-13.53" x2="20.846" style="fill:none;stroke:#000000;stroke-width:0.3;" y1="-13.53"/>
  <line x1="23.394" y2="-13.53" x2="29.763" style="fill:none;stroke:#000000;stroke-width:0.3;" y1="-13.53"/>
  <line x1="32.311" y2="-13.53" x2="38.68" style="fill:none;stroke:#000000;stroke-width:0.3;" y1="-13.53"/>
  <line x1="6.834" y2="-10.394" x2="0.465" style="fill:none;stroke:#000000;stroke-width:0.3;" y1="-10.394"/>
  <line x1="9.382" y2="-10.394" x2="15.751" style="fill:none;stroke:#000000;stroke-width:0.3;" y1="-10.394"/>
  <line x1="18.299" y2="-10.394" x2="24.667" style="fill:none;stroke:#000000;stroke-width:0.3;" y1="-10.394"/>
  <line x1="27.215" y2="-10.394" x2="33.584" style="fill:none;stroke:#000000;stroke-width:0.3;" y1="-10.394"/>
  <line x1="36.132" y2="-10.394" x2="42.501" style="fill:none;stroke:#000000;stroke-width:0.3;" y1="-10.394"/>
  <line x1="0" y2="-7.425" x2="2.184" style="fill:none;stroke:#000000;stroke-width:0.3;" y1="-7.425"/>
  <line x1="11.134" y2="-7.425" x2="4.765" style="fill:none;stroke:#000000;stroke-width:0.3;" y1="-7.425"/>
  <line x1="20.05" y2="-7.425" x2="13.681" style="fill:none;stroke:#000000;stroke-width:0.3;" y1="-7.425"/>
  <line x1="28.967" y2="-7.425" x2="22.598" style="fill:none;stroke:#000000;stroke-width:0.3;" y1="-7.425"/>
  <line x1="37.883" y2="-7.425" x2="31.515" style="fill:none;stroke:#000000;stroke-width:0.3;" y1="-7.425"/>
  <line x1="4.457" y2="-19.635" x2="0" style="fill:none;stroke:#000000;stroke-width:0.3;" y1="-19.635"/>
  <line x1="33.957" y2="-19.635" x2="19.207" style="fill:none;stroke:#000000;stroke-width:0.3;" y1="-19.635"/>
  <line x1="19.207" y2="-19.635" x2="4.457" style="fill:none;stroke:#000000;stroke-width:0.3;" y1="-19.635"/>
  <line x1="33.957" y2="-19.635" x2="44.667" style="fill:none;stroke:#000000;stroke-width:0.3;" y1="-19.635"/>
  <line x1="0" y2="-16.354" x2="44.667" style="fill:none;stroke:#000000;stroke-width:0.3;" y1="-16.354"/>
  <line x1="33.957" y2="-16.366" x2="33.957" style="fill:none;stroke:#000000;stroke-width:0.3;" y1="-19.635"/>
  <line x1="33.957" y2="-19.667" x2="33.957" style="fill:none;stroke:#000000;stroke-width:0.3;" y1="-19.635"/>
  <line x1="19.207" y2="-16.366" x2="19.207" style="fill:none;stroke:#000000;stroke-width:0.3;" y1="-19.635"/>
  <line x1="19.207" y2="-19.635" x2="19.207" style="fill:none;stroke:#000000;stroke-width:0.3;" y1="-19.667"/>
  <line x1="4.457" y2="-19.635" x2="4.457" style="fill:none;stroke:#000000;stroke-width:0.3;" y1="-19.667"/>
  <line x1="4.457" y2="-16.366" x2="4.457" style="fill:none;stroke:#000000;stroke-width:0.3;" y1="-19.635"/>
  <line x1="23.921" y2="-31.307" x2="37.921" style="fill:none;stroke:#000000;stroke-width:0.3;" y1="-31.307"/>
  <line x1="6.983" y2="-31.307" x2="23.921" style="fill:none;stroke:#000000;stroke-width:0.3;" y1="-31.307"/>
  <line x1="6.983" y2="-31.307" x2="0" style="fill:none;stroke:#000000;stroke-width:0.3;" y1="-31.307"/>
  <line x1="37.921" y2="-31.307" x2="44.667" style="fill:none;stroke:#000000;stroke-width:0.3;" y1="-31.307"/>
  <line x1="6.983" y2="-34.686" x2="0" style="fill:none;stroke:#000000;stroke-width:0.3;" y1="-34.686"/>
  <line x1="37.921" y2="-34.686" x2="44.667" style="fill:none;stroke:#000000;stroke-width:0.3;" y1="-34.686"/>
  <line x1="37.921" y2="-34.686" x2="23.921" style="fill:none;stroke:#000000;stroke-width:0.3;" y1="-34.686"/>
  <line x1="6.983" y2="-34.686" x2="23.921" style="fill:none;stroke:#000000;stroke-width:0.3;" y1="-34.686"/>
  <line x1="6.983" y2="-31.307" x2="6.983" style="fill:none;stroke:#000000;stroke-width:0.3;" y1="-34.686"/>
  <line x1="6.983" y2="-34.698" x2="6.983" style="fill:none;stroke:#000000;stroke-width:0.3;" y1="-34.686"/>
  <line x1="6.983" y2="-31.273" x2="6.983" style="fill:none;stroke:#000000;stroke-width:0.3;" y1="-31.307"/>
  <line x1="23.921" y2="-31.307" x2="23.921" style="fill:none;stroke:#000000;stroke-width:0.3;" y1="-34.686"/>
  <line x1="23.921" y2="-34.698" x2="23.921" style="fill:none;stroke:#000000;stroke-width:0.3;" y1="-34.686"/>
  <line x1="23.921" y2="-31.307" x2="23.921" style="fill:none;stroke:#000000;stroke-width:0.3;" y1="-31.273"/>
  <line x1="37.921" y2="-31.273" x2="37.921" style="fill:none;stroke:#000000;stroke-width:0.3;" y1="-31.307"/>
  <line x1="37.921" y2="-34.686" x2="37.921" style="fill:none;stroke:#000000;stroke-width:0.3;" y1="-31.307"/>
  <line x1="37.921" y2="-34.686" x2="37.921" style="fill:none;stroke:#000000;stroke-width:0.3;" y1="-34.698"/>
  <line x1="0" y2="-4.662" x2="44.667" style="fill:none;stroke:#000000;stroke-width:0.3;" y1="-4.662"/>
  <line x1="0" y2="-1.437" x2="44.667" style="fill:none;stroke:#000000;stroke-width:0.3;" y1="-1.437"/>
  <line x1="36.915" y2="-4.612" x2="36.915" style="fill:none;stroke:#000000;stroke-width:0.3;" y1="-1.45"/>
  <line x1="25.276" y2="-1.45" x2="25.276" style="fill:none;stroke:#000000;stroke-width:0.3;" y1="-4.612"/>
  <line x1="13.709" y2="-1.45" x2="13.709" style="fill:none;stroke:#000000;stroke-width:0.3;" y1="-4.612"/>
  <line x1="1.707" y2="-1.45" x2="1.707" style="fill:none;stroke:#000000;stroke-width:0.3;" y1="-4.612"/>
  <line x1="42.074" y2="-43.404" x2="44.667" style="fill:none;stroke:#000000;stroke-width:0.3;" y1="-43.404"/>
  <line x1="44.667" y2="-37.299" x2="40.323" style="fill:none;stroke:#000000;stroke-width:0.3;" y1="-37.299"/>
  <line x1="44.667" y2="-28.52" x2="43.54" style="fill:none;stroke:#000000;stroke-width:0.3;" y1="-28.52"/>
  <line x1="40.482" y2="-25.353" x2="44.667" style="fill:none;stroke:#000000;stroke-width:0.3;" y1="-25.353"/>
  <line x1="41.278" y2="-13.53" x2="44.667" style="fill:none;stroke:#000000;stroke-width:0.3;" y1="-13.53"/>
  <line x1="40.482" y2="-7.425" x2="44.667" style="fill:none;stroke:#000000;stroke-width:0.3;" y1="-7.425"/>
 </g>
</svg>
