<?xml version="1.0"?>
<!-- Converted with SVG Converter - Version 0.9.5 (Compiled Fri Feb 21 09:53:38 2020) - Copyright (C) 2011 Nokia -->
<svg xmlns="http://www.w3.org/2000/svg" width="44.667" viewBox="0 -44.667 44.667 44.667" version="1.1" xmlns:xlink="http://www.w3.org/1999/xlink" xml:space="preserve" y="0px" x="0px" height="44.667" baseProfile="tiny">
 <g>
  <rect width="44.667" style="fill:none;" y="-44.667" x="0" height="44.667"/>
  <line x1="3.776" y1="-43.404" y2="-43.404" style="fill:none;stroke:#000000;stroke-width:0.3;" x2="0"/>
  <line x1="6.356" y1="-43.404" y2="-43.404" style="fill:none;stroke:#000000;stroke-width:0.3;" x2="12.726"/>
  <line x1="15.273" y1="-43.404" y2="-43.404" style="fill:none;stroke:#000000;stroke-width:0.3;" x2="21.643"/>
  <line x1="24.19" y1="-43.404" y2="-43.404" style="fill:none;stroke:#000000;stroke-width:0.3;" x2="30.559"/>
  <line x1="33.106" y1="-43.404" y2="-43.404" style="fill:none;stroke:#000000;stroke-width:0.3;" x2="39.476"/>
  <line x1="8.108" y1="-40.269" y2="-40.269" style="fill:none;stroke:#000000;stroke-width:0.3;" x2="1.739"/>
  <line x1="17.024" y1="-40.269" y2="-40.269" style="fill:none;stroke:#000000;stroke-width:0.3;" x2="10.655"/>
  <line x1="19.572" y1="-40.269" y2="-40.269" style="fill:none;stroke:#000000;stroke-width:0.3;" x2="25.941"/>
  <line x1="34.858" y1="-40.269" y2="-40.269" style="fill:none;stroke:#000000;stroke-width:0.3;" x2="28.489"/>
  <line x1="37.405" y1="-40.269" y2="-40.269" style="fill:none;stroke:#000000;stroke-width:0.3;" x2="43.774"/>
  <line x1="0" y1="-37.299" y2="-37.299" style="fill:none;stroke:#000000;stroke-width:0.3;" x2="2.024"/>
  <line x1="10.975" y1="-37.299" y2="-37.299" style="fill:none;stroke:#000000;stroke-width:0.3;" x2="4.606"/>
  <line x1="19.891" y1="-37.299" y2="-37.299" style="fill:none;stroke:#000000;stroke-width:0.3;" x2="13.521"/>
  <line x1="22.438" y1="-37.299" y2="-37.299" style="fill:none;stroke:#000000;stroke-width:0.3;" x2="28.808"/>
  <line x1="37.724" y1="-37.299" y2="-37.299" style="fill:none;stroke:#000000;stroke-width:0.3;" x2="31.354"/>
  <line x1="5.242" y1="-28.52" y2="-28.52" style="fill:none;stroke:#000000;stroke-width:0.3;" x2="0"/>
  <line x1="14.158" y1="-28.52" y2="-28.52" style="fill:none;stroke:#000000;stroke-width:0.3;" x2="7.79"/>
  <line x1="16.706" y1="-28.52" y2="-28.52" style="fill:none;stroke:#000000;stroke-width:0.3;" x2="23.075"/>
  <line x1="25.623" y1="-28.52" y2="-28.52" style="fill:none;stroke:#000000;stroke-width:0.3;" x2="31.992"/>
  <line x1="34.539" y1="-28.52" y2="-28.52" style="fill:none;stroke:#000000;stroke-width:0.3;" x2="40.908"/>
  <line x1="0" y1="-25.353" y2="-25.353" style="fill:none;stroke:#000000;stroke-width:0.3;" x2="2.184"/>
  <line x1="11.134" y1="-25.353" y2="-25.353" style="fill:none;stroke:#000000;stroke-width:0.3;" x2="4.765"/>
  <line x1="20.05" y1="-25.353" y2="-25.353" style="fill:none;stroke:#000000;stroke-width:0.3;" x2="13.681"/>
  <line x1="22.598" y1="-25.353" y2="-25.353" style="fill:none;stroke:#000000;stroke-width:0.3;" x2="28.967"/>
  <line x1="31.515" y1="-25.353" y2="-25.353" style="fill:none;stroke:#000000;stroke-width:0.3;" x2="37.883"/>
  <line x1="6.675" y1="-22.44" y2="-22.44" style="fill:none;stroke:#000000;stroke-width:0.3;" x2="0.306"/>
  <line x1="9.223" y1="-22.44" y2="-22.44" style="fill:none;stroke:#000000;stroke-width:0.3;" x2="15.592"/>
  <line x1="18.14" y1="-22.44" y2="-22.44" style="fill:none;stroke:#000000;stroke-width:0.3;" x2="24.508"/>
  <line x1="33.425" y1="-22.44" y2="-22.44" style="fill:none;stroke:#000000;stroke-width:0.3;" x2="27.056"/>
  <line x1="35.973" y1="-22.44" y2="-22.44" style="fill:none;stroke:#000000;stroke-width:0.3;" x2="42.342"/>
  <line x1="2.98" y1="-13.53" y2="-13.53" style="fill:none;stroke:#000000;stroke-width:0.3;" x2="0"/>
  <line x1="5.561" y1="-13.53" y2="-13.53" style="fill:none;stroke:#000000;stroke-width:0.3;" x2="11.93"/>
  <line x1="14.477" y1="-13.53" y2="-13.53" style="fill:none;stroke:#000000;stroke-width:0.3;" x2="20.846"/>
  <line x1="23.394" y1="-13.53" y2="-13.53" style="fill:none;stroke:#000000;stroke-width:0.3;" x2="29.763"/>
  <line x1="32.311" y1="-13.53" y2="-13.53" style="fill:none;stroke:#000000;stroke-width:0.3;" x2="38.68"/>
  <line x1="6.834" y1="-10.394" y2="-10.394" style="fill:none;stroke:#000000;stroke-width:0.3;" x2="0.465"/>
  <line x1="9.382" y1="-10.394" y2="-10.394" style="fill:none;stroke:#000000;stroke-width:0.3;" x2="15.751"/>
  <line x1="18.299" y1="-10.394" y2="-10.394" style="fill:none;stroke:#000000;stroke-width:0.3;" x2="24.667"/>
  <line x1="27.215" y1="-10.394" y2="-10.394" style="fill:none;stroke:#000000;stroke-width:0.3;" x2="33.584"/>
  <line x1="36.132" y1="-10.394" y2="-10.394" style="fill:none;stroke:#000000;stroke-width:0.3;" x2="42.501"/>
  <line x1="0" y1="-7.425" y2="-7.425" style="fill:none;stroke:#000000;stroke-width:0.3;" x2="2.184"/>
  <line x1="11.134" y1="-7.425" y2="-7.425" style="fill:none;stroke:#000000;stroke-width:0.3;" x2="4.765"/>
  <line x1="20.05" y1="-7.425" y2="-7.425" style="fill:none;stroke:#000000;stroke-width:0.3;" x2="13.681"/>
  <line x1="28.967" y1="-7.425" y2="-7.425" style="fill:none;stroke:#000000;stroke-width:0.3;" x2="22.598"/>
  <line x1="37.883" y1="-7.425" y2="-7.425" style="fill:none;stroke:#000000;stroke-width:0.3;" x2="31.515"/>
  <line x1="4.457" y1="-19.635" y2="-19.635" style="fill:none;stroke:#000000;stroke-width:0.3;" x2="0"/>
  <line x1="33.957" y1="-19.635" y2="-19.635" style="fill:none;stroke:#000000;stroke-width:0.3;" x2="19.207"/>
  <line x1="19.207" y1="-19.635" y2="-19.635" style="fill:none;stroke:#000000;stroke-width:0.3;" x2="4.457"/>
  <line x1="33.957" y1="-19.635" y2="-19.635" style="fill:none;stroke:#000000;stroke-width:0.3;" x2="44.667"/>
  <line x1="0" y1="-16.354" y2="-16.354" style="fill:none;stroke:#000000;stroke-width:0.3;" x2="44.667"/>
  <line x1="33.957" y1="-19.635" y2="-16.366" style="fill:none;stroke:#000000;stroke-width:0.3;" x2="33.957"/>
  <line x1="33.957" y1="-19.635" y2="-19.667" style="fill:none;stroke:#000000;stroke-width:0.3;" x2="33.957"/>
  <line x1="19.207" y1="-19.635" y2="-16.366" style="fill:none;stroke:#000000;stroke-width:0.3;" x2="19.207"/>
  <line x1="19.207" y1="-19.667" y2="-19.635" style="fill:none;stroke:#000000;stroke-width:0.3;" x2="19.207"/>
  <line x1="4.457" y1="-19.667" y2="-19.635" style="fill:none;stroke:#000000;stroke-width:0.3;" x2="4.457"/>
  <line x1="4.457" y1="-19.635" y2="-16.366" style="fill:none;stroke:#000000;stroke-width:0.3;" x2="4.457"/>
  <line x1="23.921" y1="-31.307" y2="-31.307" style="fill:none;stroke:#000000;stroke-width:0.3;" x2="37.921"/>
  <line x1="6.983" y1="-31.307" y2="-31.307" style="fill:none;stroke:#000000;stroke-width:0.3;" x2="23.921"/>
  <line x1="6.983" y1="-31.307" y2="-31.307" style="fill:none;stroke:#000000;stroke-width:0.3;" x2="0"/>
  <line x1="37.921" y1="-31.307" y2="-31.307" style="fill:none;stroke:#000000;stroke-width:0.3;" x2="44.667"/>
  <line x1="6.983" y1="-34.686" y2="-34.686" style="fill:none;stroke:#000000;stroke-width:0.3;" x2="0"/>
  <line x1="37.921" y1="-34.686" y2="-34.686" style="fill:none;stroke:#000000;stroke-width:0.3;" x2="44.667"/>
  <line x1="37.921" y1="-34.686" y2="-34.686" style="fill:none;stroke:#000000;stroke-width:0.3;" x2="23.921"/>
  <line x1="6.983" y1="-34.686" y2="-34.686" style="fill:none;stroke:#000000;stroke-width:0.3;" x2="23.921"/>
  <line x1="6.983" y1="-34.686" y2="-31.307" style="fill:none;stroke:#000000;stroke-width:0.3;" x2="6.983"/>
  <line x1="6.983" y1="-34.686" y2="-34.698" style="fill:none;stroke:#000000;stroke-width:0.3;" x2="6.983"/>
  <line x1="6.983" y1="-31.307" y2="-31.273" style="fill:none;stroke:#000000;stroke-width:0.3;" x2="6.983"/>
  <line x1="23.921" y1="-34.686" y2="-31.307" style="fill:none;stroke:#000000;stroke-width:0.3;" x2="23.921"/>
  <line x1="23.921" y1="-34.686" y2="-34.698" style="fill:none;stroke:#000000;stroke-width:0.3;" x2="23.921"/>
  <line x1="23.921" y1="-31.273" y2="-31.307" style="fill:none;stroke:#000000;stroke-width:0.3;" x2="23.921"/>
  <line x1="37.921" y1="-31.307" y2="-31.273" style="fill:none;stroke:#000000;stroke-width:0.3;" x2="37.921"/>
  <line x1="37.921" y1="-31.307" y2="-34.686" style="fill:none;stroke:#000000;stroke-width:0.3;" x2="37.921"/>
  <line x1="37.921" y1="-34.698" y2="-34.686" style="fill:none;stroke:#000000;stroke-width:0.3;" x2="37.921"/>
  <line x1="0" y1="-4.662" y2="-4.662" style="fill:none;stroke:#000000;stroke-width:0.3;" x2="44.667"/>
  <line x1="0" y1="-1.437" y2="-1.437" style="fill:none;stroke:#000000;stroke-width:0.3;" x2="44.667"/>
  <line x1="36.915" y1="-1.45" y2="-4.612" style="fill:none;stroke:#000000;stroke-width:0.3;" x2="36.915"/>
  <line x1="25.276" y1="-4.612" y2="-1.45" style="fill:none;stroke:#000000;stroke-width:0.3;" x2="25.276"/>
  <line x1="13.709" y1="-4.612" y2="-1.45" style="fill:none;stroke:#000000;stroke-width:0.3;" x2="13.709"/>
  <line x1="1.707" y1="-4.612" y2="-1.45" style="fill:none;stroke:#000000;stroke-width:0.3;" x2="1.707"/>
  <line x1="42.074" y1="-43.404" y2="-43.404" style="fill:none;stroke:#000000;stroke-width:0.3;" x2="44.667"/>
  <line x1="44.667" y1="-37.299" y2="-37.299" style="fill:none;stroke:#000000;stroke-width:0.3;" x2="40.323"/>
  <line x1="44.667" y1="-28.52" y2="-28.52" style="fill:none;stroke:#000000;stroke-width:0.3;" x2="43.54"/>
  <line x1="40.482" y1="-25.353" y2="-25.353" style="fill:none;stroke:#000000;stroke-width:0.3;" x2="44.667"/>
  <line x1="41.278" y1="-13.53" y2="-13.53" style="fill:none;stroke:#000000;stroke-width:0.3;" x2="44.667"/>
  <line x1="40.482" y1="-7.425" y2="-7.425" style="fill:none;stroke:#000000;stroke-width:0.3;" x2="44.667"/>
 </g>
</svg>
