<?xml version="1.0" encoding="utf-8"?>
<svg xmlns="http://www.w3.org/2000/svg" version="1.1" x="0px" y="0px" xml:space="preserve" width="53.584" height="53.584" viewBox="0 -53.584 53.584 53.584">
	<g>
		<rect x="0" y="-53.584" style="fill:none;" width="53.584" height="53.584"/>
		<line style="fill:none;stroke:#000000;stroke-width:0.3;" x1="3.77" y1="-51.5" x2="0" y2="-51.5"/>
		<line style="fill:none;stroke:#000000;stroke-width:0.3;" x1="6.35" y1="-51.5" x2="12.719" y2="-51.5"/>
		<line style="fill:none;stroke:#000000;stroke-width:0.3;" x1="15.267" y1="-51.5" x2="21.636" y2="-51.5"/>
		<line style="fill:none;stroke:#000000;stroke-width:0.3;" x1="24.183" y1="-51.5" x2="30.552" y2="-51.5"/>
		<line style="fill:none;stroke:#000000;stroke-width:0.3;" x1="33.1" y1="-51.5" x2="39.469" y2="-51.5"/>
		<line style="fill:none;stroke:#000000;stroke-width:0.3;" x1="42.017" y1="-51.5" x2="48.386" y2="-51.5"/>
		<line style="fill:none;stroke:#000000;stroke-width:0.3;" x1="53.584" y1="-51.5" x2="50.933" y2="-51.5"/>
		<line style="fill:none;stroke:#000000;stroke-width:0.3;" x1="0" y1="-39.62" x2="1.699" y2="-39.62"/>
		<line style="fill:none;stroke:#000000;stroke-width:0.3;" x1="4.28" y1="-39.62" x2="5.344" y2="-39.62"/>
		<line style="fill:none;stroke:#000000;stroke-width:0.3;" x1="5.344" y1="-39.62" x2="10.648" y2="-39.62"/>
		<line style="fill:none;stroke:#000000;stroke-width:0.3;" x1="13.196" y1="-39.62" x2="19.565" y2="-39.62"/>
		<line style="fill:none;stroke:#000000;stroke-width:0.3;" x1="23.383" y1="-39.62" x2="28.482" y2="-39.62"/>
		<line style="fill:none;stroke:#000000;stroke-width:0.3;" x1="23.383" y1="-39.62" x2="22.113" y2="-39.62"/>
		<line style="fill:none;stroke:#000000;stroke-width:0.3;" x1="31.029" y1="-39.62" x2="37.398" y2="-39.62"/>
		<line style="fill:none;stroke:#000000;stroke-width:0.3;" x1="41.153" y1="-39.62" x2="46.315" y2="-39.62"/>
		<line style="fill:none;stroke:#000000;stroke-width:0.3;" x1="41.153" y1="-39.62" x2="39.946" y2="-39.62"/>
		<line style="fill:none;stroke:#000000;stroke-width:0.3;" x1="48.863" y1="-39.62" x2="53.584" y2="-39.62"/>
		<line style="fill:none;stroke:#000000;stroke-width:0.3;" x1="5.235" y1="-36.616" x2="0" y2="-36.616"/>
		<line style="fill:none;stroke:#000000;stroke-width:0.3;" x1="14.152" y1="-36.616" x2="7.783" y2="-36.616"/>
		<line style="fill:none;stroke:#000000;stroke-width:0.3;" x1="16.699" y1="-36.616" x2="23.068" y2="-36.616"/>
		<line style="fill:none;stroke:#000000;stroke-width:0.3;" x1="31.985" y1="-36.616" x2="25.616" y2="-36.616"/>
		<line style="fill:none;stroke:#000000;stroke-width:0.3;" x1="34.532" y1="-36.616" x2="40.901" y2="-36.616"/>
		<line style="fill:none;stroke:#000000;stroke-width:0.3;" x1="49.818" y1="-36.616" x2="43.449" y2="-36.616"/>
		<line style="fill:none;stroke:#000000;stroke-width:0.3;" x1="53.584" y1="-36.616" x2="52.366" y2="-36.616"/>
		<line style="fill:none;stroke:#000000;stroke-width:0.3;" x1="0" y1="-33.733" x2="2.177" y2="-33.733"/>
		<line style="fill:none;stroke:#000000;stroke-width:0.3;" x1="11.127" y1="-33.733" x2="4.758" y2="-33.733"/>
		<line style="fill:none;stroke:#000000;stroke-width:0.3;" x1="13.674" y1="-33.733" x2="14.829" y2="-33.733"/>
		<line style="fill:none;stroke:#000000;stroke-width:0.3;" x1="14.829" y1="-33.733" x2="20.043" y2="-33.733"/>
		<line style="fill:none;stroke:#000000;stroke-width:0.3;" x1="28.96" y1="-33.733" x2="22.591" y2="-33.733"/>
		<line style="fill:none;stroke:#000000;stroke-width:0.3;" x1="32.788" y1="-33.733" x2="31.508" y2="-33.733"/>
		<line style="fill:none;stroke:#000000;stroke-width:0.3;" x1="32.788" y1="-33.733" x2="37.876" y2="-33.733"/>
		<line style="fill:none;stroke:#000000;stroke-width:0.3;" x1="46.793" y1="-33.733" x2="40.424" y2="-33.733"/>
		<line style="fill:none;stroke:#000000;stroke-width:0.3;" x1="50.559" y1="-33.733" x2="53.584" y2="-33.733"/>
		<line style="fill:none;stroke:#000000;stroke-width:0.3;" x1="49.341" y1="-33.733" x2="50.559" y2="-33.733"/>
		<line style="fill:none;stroke:#000000;stroke-width:0.3;" x1="6.668" y1="-30.536" x2="0.299" y2="-30.536"/>
		<line style="fill:none;stroke:#000000;stroke-width:0.3;" x1="15.585" y1="-30.536" x2="9.216" y2="-30.536"/>
		<line style="fill:none;stroke:#000000;stroke-width:0.3;" x1="18.133" y1="-30.536" x2="24.502" y2="-30.536"/>
		<line style="fill:none;stroke:#000000;stroke-width:0.3;" x1="33.418" y1="-30.536" x2="27.049" y2="-30.536"/>
		<line style="fill:none;stroke:#000000;stroke-width:0.3;" x1="35.966" y1="-30.536" x2="42.335" y2="-30.536"/>
		<line style="fill:none;stroke:#000000;stroke-width:0.3;" x1="44.882" y1="-30.536" x2="51.251" y2="-30.536"/>
		<line style="fill:none;stroke:#000000;stroke-width:0.3;" x1="3.451" y1="-27.566" x2="0" y2="-27.566"/>
		<line style="fill:none;stroke:#000000;stroke-width:0.3;" x1="6.031" y1="-27.566" x2="12.4" y2="-27.566"/>
		<line style="fill:none;stroke:#000000;stroke-width:0.3;" x1="15.979" y1="-27.566" x2="21.317" y2="-27.566"/>
		<line style="fill:none;stroke:#000000;stroke-width:0.3;" x1="14.948" y1="-27.566" x2="15.979" y2="-27.566"/>
		<line style="fill:none;stroke:#000000;stroke-width:0.3;" x1="23.864" y1="-27.566" x2="30.233" y2="-27.566"/>
		<line style="fill:none;stroke:#000000;stroke-width:0.3;" x1="34" y1="-27.566" x2="32.781" y2="-27.566"/>
		<line style="fill:none;stroke:#000000;stroke-width:0.3;" x1="34" y1="-27.566" x2="39.15" y2="-27.566"/>
		<line style="fill:none;stroke:#000000;stroke-width:0.3;" x1="41.698" y1="-27.566" x2="48.066" y2="-27.566"/>
		<line style="fill:none;stroke:#000000;stroke-width:0.3;" x1="51.938" y1="-27.566" x2="53.584" y2="-27.566"/>
		<line style="fill:none;stroke:#000000;stroke-width:0.3;" x1="50.614" y1="-27.566" x2="51.938" y2="-27.566"/>
		<line style="fill:none;stroke:#000000;stroke-width:0.3;" x1="7.942" y1="-24.431" x2="1.573" y2="-24.431"/>
		<line style="fill:none;stroke:#000000;stroke-width:0.3;" x1="16.858" y1="-24.431" x2="10.489" y2="-24.431"/>
		<line style="fill:none;stroke:#000000;stroke-width:0.3;" x1="25.775" y1="-24.431" x2="19.406" y2="-24.431"/>
		<line style="fill:none;stroke:#000000;stroke-width:0.3;" x1="34.691" y1="-24.431" x2="28.323" y2="-24.431"/>
		<line style="fill:none;stroke:#000000;stroke-width:0.3;" x1="43.608" y1="-24.431" x2="37.239" y2="-24.431"/>
		<line style="fill:none;stroke:#000000;stroke-width:0.3;" x1="52.525" y1="-24.431" x2="46.156" y2="-24.431"/>
		<line style="fill:none;stroke:#000000;stroke-width:0.3;" x1="6.031" y1="-12.551" x2="1.332" y2="-12.551"/>
		<line style="fill:none;stroke:#000000;stroke-width:0.3;" x1="0" y1="-12.551" x2="1.332" y2="-12.551"/>
		<line style="fill:none;stroke:#000000;stroke-width:0.3;" x1="14.948" y1="-12.551" x2="8.579" y2="-12.551"/>
		<line style="fill:none;stroke:#000000;stroke-width:0.3;" x1="17.495" y1="-12.551" x2="18.728" y2="-12.551"/>
		<line style="fill:none;stroke:#000000;stroke-width:0.3;" x1="23.864" y1="-12.551" x2="18.728" y2="-12.551"/>
		<line style="fill:none;stroke:#000000;stroke-width:0.3;" x1="26.412" y1="-12.551" x2="32.781" y2="-12.551"/>
		<line style="fill:none;stroke:#000000;stroke-width:0.3;" x1="36.54" y1="-12.551" x2="41.698" y2="-12.551"/>
		<line style="fill:none;stroke:#000000;stroke-width:0.3;" x1="35.329" y1="-12.551" x2="36.54" y2="-12.551"/>
		<line style="fill:none;stroke:#000000;stroke-width:0.3;" x1="44.245" y1="-12.551" x2="50.614" y2="-12.551"/>
		<line style="fill:none;stroke:#000000;stroke-width:0.3;" x1="53.584" y1="-12.551" x2="53.162" y2="-12.551"/>
		<line style="fill:none;stroke:#000000;stroke-width:0.3;" x1="3.133" y1="-9.755" x2="0" y2="-9.755"/>
		<line style="fill:none;stroke:#000000;stroke-width:0.3;" x1="5.713" y1="-9.755" x2="12.082" y2="-9.755"/>
		<line style="fill:none;stroke:#000000;stroke-width:0.3;" x1="14.63" y1="-9.755" x2="20.999" y2="-9.755"/>
		<line style="fill:none;stroke:#000000;stroke-width:0.3;" x1="29.915" y1="-9.755" x2="23.546" y2="-9.755"/>
		<line style="fill:none;stroke:#000000;stroke-width:0.3;" x1="38.832" y1="-9.755" x2="32.463" y2="-9.755"/>
		<line style="fill:none;stroke:#000000;stroke-width:0.3;" x1="41.379" y1="-9.755" x2="47.748" y2="-9.755"/>
		<line style="fill:none;stroke:#000000;stroke-width:0.3;" x1="50.296" y1="-9.755" x2="53.584" y2="-9.755"/>
		<line style="fill:none;stroke:#000000;stroke-width:0.3;" x1="8.261" y1="-6.62" x2="1.892" y2="-6.62"/>
		<line style="fill:none;stroke:#000000;stroke-width:0.3;" x1="17.177" y1="-6.62" x2="10.808" y2="-6.62"/>
		<line style="fill:none;stroke:#000000;stroke-width:0.3;" x1="26.094" y1="-6.62" x2="19.725" y2="-6.62"/>
		<line style="fill:none;stroke:#000000;stroke-width:0.3;" x1="35.011" y1="-6.62" x2="28.642" y2="-6.62"/>
		<line style="fill:none;stroke:#000000;stroke-width:0.3;" x1="43.927" y1="-6.62" x2="37.558" y2="-6.62"/>
		<line style="fill:none;stroke:#000000;stroke-width:0.3;" x1="46.475" y1="-6.62" x2="52.844" y2="-6.62"/>
		<line style="fill:none;stroke:#000000;stroke-width:0.3;" x1="0" y1="-3.65" x2="4.725" y2="-3.65"/>
		<line style="fill:none;stroke:#000000;stroke-width:0.3;" x1="7.305" y1="-3.65" x2="13.674" y2="-3.65"/>
		<line style="fill:none;stroke:#000000;stroke-width:0.3;" x1="16.222" y1="-3.65" x2="22.591" y2="-3.65"/>
		<line style="fill:none;stroke:#000000;stroke-width:0.3;" x1="25.139" y1="-3.65" x2="31.508" y2="-3.65"/>
		<line style="fill:none;stroke:#000000;stroke-width:0.3;" x1="34.055" y1="-3.65" x2="40.424" y2="-3.65"/>
		<line style="fill:none;stroke:#000000;stroke-width:0.3;" x1="42.972" y1="-3.65" x2="49.341" y2="-3.65"/>
		<line style="fill:none;stroke:#000000;stroke-width:0.3;" x1="51.889" y1="-3.65" x2="53.584" y2="-3.65"/>
		<line style="fill:none;stroke:#000000;stroke-width:0.3;" x1="8.579" y1="-0.68" x2="2.21" y2="-0.68"/>
		<line style="fill:none;stroke:#000000;stroke-width:0.3;" x1="17.495" y1="-0.68" x2="11.127" y2="-0.68"/>
		<line style="fill:none;stroke:#000000;stroke-width:0.3;" x1="26.412" y1="-0.68" x2="20.043" y2="-0.68"/>
		<line style="fill:none;stroke:#000000;stroke-width:0.3;" x1="35.329" y1="-0.68" x2="28.96" y2="-0.68"/>
		<line style="fill:none;stroke:#000000;stroke-width:0.3;" x1="44.245" y1="-0.68" x2="37.876" y2="-0.68"/>
		<line style="fill:none;stroke:#000000;stroke-width:0.3;" x1="53.162" y1="-0.68" x2="46.793" y2="-0.68"/>
		<line style="fill:none;stroke:#000000;stroke-width:0.3;" x1="7.66" y1="-51.559" x2="8.745" y2="-52.971"/>
		<line style="fill:none;stroke:#000000;stroke-width:0.3;" x1="25.598" y1="-51.559" x2="26.683" y2="-52.971"/>
		<line style="fill:none;stroke:#000000;stroke-width:0.3;" x1="43.618" y1="-51.559" x2="44.703" y2="-52.971"/>
		<line style="fill:none;stroke:#000000;stroke-width:0.3;" x1="41.139" y1="-39.601" x2="41.153" y2="-39.62"/>
		<line style="fill:none;stroke:#000000;stroke-width:0.3;" x1="41.153" y1="-39.62" x2="42.225" y2="-41.013"/>
		<line style="fill:none;stroke:#000000;stroke-width:0.3;" x1="23.383" y1="-39.62" x2="24.453" y2="-41.013"/>
		<line style="fill:none;stroke:#000000;stroke-width:0.3;" x1="23.368" y1="-39.601" x2="23.383" y2="-39.62"/>
		<line style="fill:none;stroke:#000000;stroke-width:0.3;" x1="5.344" y1="-39.62" x2="6.414" y2="-41.013"/>
		<line style="fill:none;stroke:#000000;stroke-width:0.3;" x1="5.329" y1="-39.601" x2="5.344" y2="-39.62"/>
		<line style="fill:none;stroke:#000000;stroke-width:0.3;" x1="45.769" y1="-38.054" x2="44.683" y2="-36.642"/>
		<line style="fill:none;stroke:#000000;stroke-width:0.3;" x1="28.019" y1="-38.054" x2="26.933" y2="-36.642"/>
		<line style="fill:none;stroke:#000000;stroke-width:0.3;" x1="10.123" y1="-38.054" x2="9.037" y2="-36.642"/>
		<line style="fill:none;stroke:#000000;stroke-width:0.3;" x1="32.788" y1="-33.733" x2="33.852" y2="-35.117"/>
		<line style="fill:none;stroke:#000000;stroke-width:0.3;" x1="32.767" y1="-33.705" x2="32.788" y2="-33.733"/>
		<line style="fill:none;stroke:#000000;stroke-width:0.3;" x1="50.559" y1="-33.733" x2="50.537" y2="-33.705"/>
		<line style="fill:none;stroke:#000000;stroke-width:0.3;" x1="50.559" y1="-33.733" x2="51.623" y2="-35.117"/>
		<line style="fill:none;stroke:#000000;stroke-width:0.3;" x1="14.829" y1="-33.733" x2="15.894" y2="-35.117"/>
		<line style="fill:none;stroke:#000000;stroke-width:0.3;" x1="14.808" y1="-33.705" x2="14.829" y2="-33.733"/>
		<line style="fill:none;stroke:#000000;stroke-width:0.3;" x1="45.995" y1="-30.58" x2="47.081" y2="-31.992"/>
		<line style="fill:none;stroke:#000000;stroke-width:0.3;" x1="28.287" y1="-30.58" x2="29.373" y2="-31.992"/>
		<line style="fill:none;stroke:#000000;stroke-width:0.3;" x1="10.475" y1="-30.58" x2="11.561" y2="-31.992"/>
		<line style="fill:none;stroke:#000000;stroke-width:0.3;" x1="15.979" y1="-27.566" x2="17.06" y2="-28.971"/>
		<line style="fill:none;stroke:#000000;stroke-width:0.3;" x1="15.975" y1="-27.559" x2="15.979" y2="-27.566"/>
		<line style="fill:none;stroke:#000000;stroke-width:0.3;" x1="34" y1="-27.566" x2="35.081" y2="-28.971"/>
		<line style="fill:none;stroke:#000000;stroke-width:0.3;" x1="34" y1="-27.566" x2="33.995" y2="-27.559"/>
		<line style="fill:none;stroke:#000000;stroke-width:0.3;" x1="51.938" y1="-27.566" x2="53.019" y2="-28.971"/>
		<line style="fill:none;stroke:#000000;stroke-width:0.3;" x1="51.938" y1="-27.566" x2="51.933" y2="-27.559"/>
		<line style="fill:none;stroke:#000000;stroke-width:0.3;" x1="38.558" y1="-24.455" x2="39.644" y2="-25.867"/>
		<line style="fill:none;stroke:#000000;stroke-width:0.3;" x1="20.745" y1="-24.455" x2="21.831" y2="-25.867"/>
		<line style="fill:none;stroke:#000000;stroke-width:0.3;" x1="2.894" y1="-24.455" x2="3.978" y2="-25.867"/>
		<line style="fill:none;stroke:#000000;stroke-width:0.3;" x1="36.539" y1="-12.55" x2="36.54" y2="-12.551"/>
		<line style="fill:none;stroke:#000000;stroke-width:0.3;" x1="36.54" y1="-12.551" x2="37.625" y2="-13.962"/>
		<line style="fill:none;stroke:#000000;stroke-width:0.3;" x1="18.728" y1="-12.551" x2="19.812" y2="-13.962"/>
		<line style="fill:none;stroke:#000000;stroke-width:0.3;" x1="18.728" y1="-12.551" x2="18.727" y2="-12.55"/>
		<line style="fill:none;stroke:#000000;stroke-width:0.3;" x1="2.416" y1="-13.962" x2="1.332" y2="-12.551"/>
		<line style="fill:none;stroke:#000000;stroke-width:0.3;" x1="1.331" y1="-12.55" x2="1.332" y2="-12.551"/>
		<line style="fill:none;stroke:#000000;stroke-width:0.3;" x1="42.727" y1="-9.841" x2="43.812" y2="-11.253"/>
		<line style="fill:none;stroke:#000000;stroke-width:0.3;" x1="24.852" y1="-9.841" x2="25.938" y2="-11.253"/>
		<line style="fill:none;stroke:#000000;stroke-width:0.3;" x1="6.873" y1="-9.841" x2="7.958" y2="-11.253"/>
		<line style="fill:none;stroke:#000000;stroke-width:0.3;" x1="13.166" y1="-8.072" x2="12.081" y2="-6.66"/>
		<line style="fill:none;stroke:#000000;stroke-width:0.3;" x1="29.956" y1="-6.66" x2="31.041" y2="-8.072"/>
		<line style="fill:none;stroke:#000000;stroke-width:0.3;" x1="44.269" y1="-3.665" x2="45.354" y2="-5.078"/>
		<line style="fill:none;stroke:#000000;stroke-width:0.3;" x1="39.171" y1="-0.686" x2="40.256" y2="-2.098"/>
		<line style="fill:none;stroke:#000000;stroke-width:0.3;" x1="21.296" y1="-0.686" x2="22.381" y2="-2.098"/>
		<line style="fill:none;stroke:#000000;stroke-width:0.3;" x1="3.358" y1="-0.686" x2="4.443" y2="-2.098"/>
		<line style="fill:none;stroke:#000000;stroke-width:0.3;" x1="27.625" y1="-5.078" x2="26.539" y2="-3.665"/>
		<line style="fill:none;stroke:#000000;stroke-width:0.3;" x1="9.562" y1="-5.078" x2="8.477" y2="-3.665"/>
		<line style="fill:none;stroke:#000000;stroke-width:0.3;" x1="49.208" y1="-8.072" x2="48.123" y2="-6.66"/>
		<line style="fill:none;stroke:#000000;stroke-width:0.3;" x1="5.259" y1="-45.576" x2="0" y2="-45.576"/>
		<line style="fill:none;stroke:#000000;stroke-width:0.3;" x1="5.259" y1="-45.576" x2="9.121" y2="-45.576"/>
		<line style="fill:none;stroke:#000000;stroke-width:0.3;" x1="45.884" y1="-45.576" x2="50.621" y2="-45.576"/>
		<line style="fill:none;stroke:#000000;stroke-width:0.3;" x1="37.871" y1="-45.576" x2="31.259" y2="-45.576"/>
		<line style="fill:none;stroke:#000000;stroke-width:0.3;" x1="53.584" y1="-45.576" x2="50.621" y2="-45.576"/>
		<line style="fill:none;stroke:#000000;stroke-width:0.3;" x1="45.884" y1="-45.576" x2="37.871" y2="-45.576"/>
		<line style="fill:none;stroke:#000000;stroke-width:0.3;" x1="31.259" y1="-45.576" x2="24.121" y2="-45.576"/>
		<line style="fill:none;stroke:#000000;stroke-width:0.3;" x1="9.121" y1="-45.576" x2="18.009" y2="-45.576"/>
		<line style="fill:none;stroke:#000000;stroke-width:0.3;" x1="18.009" y1="-45.576" x2="24.121" y2="-45.576"/>
		<line style="fill:none;stroke:#000000;stroke-width:0.3;" x1="53.584" y1="-42.294" x2="0" y2="-42.294"/>
		<line style="fill:none;stroke:#000000;stroke-width:0.3;" x1="45.884" y1="-45.576" x2="45.884" y2="-42.307"/>
		<line style="fill:none;stroke:#000000;stroke-width:0.3;" x1="45.884" y1="-45.576" x2="45.884" y2="-45.607"/>
		<line style="fill:none;stroke:#000000;stroke-width:0.3;" x1="31.259" y1="-45.576" x2="31.259" y2="-42.307"/>
		<line style="fill:none;stroke:#000000;stroke-width:0.3;" x1="31.259" y1="-45.607" x2="31.259" y2="-45.576"/>
		<line style="fill:none;stroke:#000000;stroke-width:0.3;" x1="18.009" y1="-42.307" x2="18.009" y2="-45.576"/>
		<line style="fill:none;stroke:#000000;stroke-width:0.3;" x1="18.009" y1="-45.576" x2="18.009" y2="-45.607"/>
		<line style="fill:none;stroke:#000000;stroke-width:0.3;" x1="5.259" y1="-45.576" x2="5.259" y2="-45.607"/>
		<line style="fill:none;stroke:#000000;stroke-width:0.3;" x1="5.259" y1="-45.576" x2="5.259" y2="-42.307"/>
		<line style="fill:none;stroke:#000000;stroke-width:0.3;" x1="9.121" y1="-48.954" x2="24.121" y2="-48.954"/>
		<line style="fill:none;stroke:#000000;stroke-width:0.3;" x1="50.621" y1="-48.954" x2="53.584" y2="-48.954"/>
		<line style="fill:none;stroke:#000000;stroke-width:0.3;" x1="37.871" y1="-48.954" x2="24.121" y2="-48.954"/>
		<line style="fill:none;stroke:#000000;stroke-width:0.3;" x1="37.871" y1="-48.954" x2="50.621" y2="-48.954"/>
		<line style="fill:none;stroke:#000000;stroke-width:0.3;" x1="9.121" y1="-48.954" x2="0" y2="-48.954"/>
		<line style="fill:none;stroke:#000000;stroke-width:0.3;" x1="9.121" y1="-45.542" x2="9.121" y2="-45.576"/>
		<line style="fill:none;stroke:#000000;stroke-width:0.3;" x1="9.121" y1="-48.954" x2="9.121" y2="-45.576"/>
		<line style="fill:none;stroke:#000000;stroke-width:0.3;" x1="9.121" y1="-48.954" x2="9.121" y2="-48.967"/>
		<line style="fill:none;stroke:#000000;stroke-width:0.3;" x1="24.121" y1="-45.542" x2="24.121" y2="-45.576"/>
		<line style="fill:none;stroke:#000000;stroke-width:0.3;" x1="24.121" y1="-45.576" x2="24.121" y2="-48.954"/>
		<line style="fill:none;stroke:#000000;stroke-width:0.3;" x1="24.121" y1="-48.954" x2="24.121" y2="-48.967"/>
		<line style="fill:none;stroke:#000000;stroke-width:0.3;" x1="37.871" y1="-45.576" x2="37.871" y2="-45.542"/>
		<line style="fill:none;stroke:#000000;stroke-width:0.3;" x1="37.871" y1="-48.954" x2="37.871" y2="-45.576"/>
		<line style="fill:none;stroke:#000000;stroke-width:0.3;" x1="37.871" y1="-48.954" x2="37.871" y2="-48.967"/>
		<line style="fill:none;stroke:#000000;stroke-width:0.3;" x1="50.621" y1="-45.576" x2="50.621" y2="-48.954"/>
		<line style="fill:none;stroke:#000000;stroke-width:0.3;" x1="50.621" y1="-45.542" x2="50.621" y2="-45.576"/>
		<line style="fill:none;stroke:#000000;stroke-width:0.3;" x1="50.621" y1="-48.954" x2="50.621" y2="-48.967"/>
		<line style="fill:none;stroke:#000000;stroke-width:0.3;" x1="8.436" y1="-14.865" x2="0" y2="-14.865"/>
		<line style="fill:none;stroke:#000000;stroke-width:0.3;" x1="50.186" y1="-14.865" x2="53.584" y2="-14.865"/>
		<line style="fill:none;stroke:#000000;stroke-width:0.3;" x1="8.436" y1="-14.865" x2="21.685" y2="-14.865"/>
		<line style="fill:none;stroke:#000000;stroke-width:0.3;" x1="35.311" y1="-14.865" x2="50.186" y2="-14.865"/>
		<line style="fill:none;stroke:#000000;stroke-width:0.3;" x1="21.685" y1="-14.865" x2="35.311" y2="-14.865"/>
		<line style="fill:none;stroke:#000000;stroke-width:0.3;" x1="53.584" y1="-21.703" x2="0" y2="-21.703"/>
		<line style="fill:none;stroke:#000000;stroke-width:0.3;" x1="53.584" y1="-18.478" x2="0" y2="-18.478"/>
		<line style="fill:none;stroke:#000000;stroke-width:0.3;" x1="43.752" y1="-18.49" x2="43.752" y2="-21.653"/>
		<line style="fill:none;stroke:#000000;stroke-width:0.3;" x1="29.603" y1="-18.49" x2="29.603" y2="-21.653"/>
		<line style="fill:none;stroke:#000000;stroke-width:0.3;" x1="14.477" y1="-18.49" x2="14.477" y2="-21.653"/>
		<line style="fill:none;stroke:#000000;stroke-width:0.3;" x1="2.06" y1="-21.653" x2="2.06" y2="-18.49"/>
		<line style="fill:none;stroke:#000000;stroke-width:0.3;" x1="8.436" y1="-14.865" x2="8.436" y2="-18.428"/>
		<line style="fill:none;stroke:#000000;stroke-width:0.3;" x1="21.685" y1="-14.865" x2="21.685" y2="-18.428"/>
		<line style="fill:none;stroke:#000000;stroke-width:0.3;" x1="35.311" y1="-14.865" x2="35.311" y2="-18.428"/>
		<line style="fill:none;stroke:#000000;stroke-width:0.3;" x1="50.186" y1="-14.865" x2="50.186" y2="-18.428"/>
	</g>
</svg>
