<?xml version="1.0"?>
<!-- Converted with SVG Converter - Version 0.9.5 (Compiled Fri Feb 21 09:53:38 2020) - Copyright (C) 2011 Nokia -->
<svg xmlns="http://www.w3.org/2000/svg" version="1.1" y="0px" height="54.125" viewBox="0 -54.125 54.125 54.125" x="0px" baseProfile="tiny" xmlns:xlink="http://www.w3.org/1999/xlink" xml:space="preserve" width="54.125">
 <g>
  <rect y="-54.125" height="54.125" style="fill:none;" width="54.125"/>
  <line y2="-48.2" x2="4.122" y1="-48.2" style="fill:none;stroke:#000000;stroke-width:0.3;" x1="0"/>
  <line y2="-48.2" x2="6.703" y1="-48.2" style="fill:none;stroke:#000000;stroke-width:0.3;" x1="13.072"/>
  <line y2="-48.2" x2="15.619" y1="-48.2" style="fill:none;stroke:#000000;stroke-width:0.3;" x1="21.988"/>
  <line y2="-48.2" x2="24.536" y1="-48.2" style="fill:none;stroke:#000000;stroke-width:0.3;" x1="30.905"/>
  <line y2="-48.2" x2="39.822" y1="-48.2" style="fill:none;stroke:#000000;stroke-width:0.3;" x1="33.453"/>
  <line y2="-48.2" x2="42.369" y1="-48.2" style="fill:none;stroke:#000000;stroke-width:0.3;" x1="48.738"/>
  <line y2="-48.2" x2="54.125" y1="-48.2" style="fill:none;stroke:#000000;stroke-width:0.3;" x1="51.286"/>
  <line y2="-39.97" x2="7.825" y1="-39.97" style="fill:none;stroke:#000000;stroke-width:0.3;" x1="1.456"/>
  <line y2="-39.97" x2="16.741" y1="-39.97" style="fill:none;stroke:#000000;stroke-width:0.3;" x1="10.373"/>
  <line y2="-39.97" x2="25.658" y1="-39.97" style="fill:none;stroke:#000000;stroke-width:0.3;" x1="19.289"/>
  <line y2="-39.97" x2="28.206" y1="-39.97" style="fill:none;stroke:#000000;stroke-width:0.3;" x1="34.575"/>
  <line y2="-39.97" x2="37.122" y1="-39.97" style="fill:none;stroke:#000000;stroke-width:0.3;" x1="43.491"/>
  <line y2="-39.97" x2="52.408" y1="-39.97" style="fill:none;stroke:#000000;stroke-width:0.3;" x1="46.039"/>
  <line y2="-25.25" x2="1.731" y1="-25.25" style="fill:none;stroke:#000000;stroke-width:0.3;" x1="8.101"/>
  <line y2="-25.25" x2="10.681" y1="-25.25" style="fill:none;stroke:#000000;stroke-width:0.3;" x1="17.05"/>
  <line y2="-25.25" x2="19.598" y1="-25.25" style="fill:none;stroke:#000000;stroke-width:0.3;" x1="25.966"/>
  <line y2="-25.25" x2="28.514" y1="-25.25" style="fill:none;stroke:#000000;stroke-width:0.3;" x1="34.883"/>
  <line y2="-25.25" x2="37.431" y1="-25.25" style="fill:none;stroke:#000000;stroke-width:0.3;" x1="43.8"/>
  <line y2="-25.25" x2="46.347" y1="-25.25" style="fill:none;stroke:#000000;stroke-width:0.3;" x1="52.716"/>
  <line y2="-17.607" x2="0" y1="-17.607" style="fill:none;stroke:#000000;stroke-width:0.3;" x1="3.476"/>
  <line y2="-17.607" x2="6.056" y1="-17.607" style="fill:none;stroke:#000000;stroke-width:0.3;" x1="12.425"/>
  <line y2="-17.607" x2="14.973" y1="-17.607" style="fill:none;stroke:#000000;stroke-width:0.3;" x1="21.341"/>
  <line y2="-17.607" x2="23.889" y1="-17.607" style="fill:none;stroke:#000000;stroke-width:0.3;" x1="30.258"/>
  <line y2="-17.607" x2="32.806" y1="-17.607" style="fill:none;stroke:#000000;stroke-width:0.3;" x1="39.175"/>
  <line y2="-17.607" x2="41.722" y1="-17.607" style="fill:none;stroke:#000000;stroke-width:0.3;" x1="48.091"/>
  <line y2="-17.607" x2="54.125" y1="-17.607" style="fill:none;stroke:#000000;stroke-width:0.3;" x1="50.639"/>
  <line y2="-10.465" x2="1.517" y1="-10.465" style="fill:none;stroke:#000000;stroke-width:0.3;" x1="0"/>
  <line y2="-10.465" x2="4.098" y1="-10.465" style="fill:none;stroke:#000000;stroke-width:0.3;" x1="10.467"/>
  <line y2="-10.465" x2="13.014" y1="-10.465" style="fill:none;stroke:#000000;stroke-width:0.3;" x1="19.383"/>
  <line y2="-10.465" x2="21.931" y1="-10.465" style="fill:none;stroke:#000000;stroke-width:0.3;" x1="28.3"/>
  <line y2="-10.465" x2="30.847" y1="-10.465" style="fill:none;stroke:#000000;stroke-width:0.3;" x1="37.216"/>
  <line y2="-10.465" x2="39.764" y1="-10.465" style="fill:none;stroke:#000000;stroke-width:0.3;" x1="46.133"/>
  <line y2="-10.465" x2="54.125" y1="-10.465" style="fill:none;stroke:#000000;stroke-width:0.3;" x1="48.681"/>
  <line y2="-2.469" x2="7.892" y1="-2.469" style="fill:none;stroke:#000000;stroke-width:0.3;" x1="1.523"/>
  <line y2="-2.469" x2="10.473" y1="-2.469" style="fill:none;stroke:#000000;stroke-width:0.3;" x1="16.842"/>
  <line y2="-2.469" x2="25.758" y1="-2.469" style="fill:none;stroke:#000000;stroke-width:0.3;" x1="19.389"/>
  <line y2="-2.469" x2="34.675" y1="-2.469" style="fill:none;stroke:#000000;stroke-width:0.3;" x1="28.306"/>
  <line y2="-2.469" x2="43.591" y1="-2.469" style="fill:none;stroke:#000000;stroke-width:0.3;" x1="37.222"/>
  <line y2="-2.469" x2="52.508" y1="-2.469" style="fill:none;stroke:#000000;stroke-width:0.3;" x1="46.139"/>
  <line y2="-32.958" x2="3.101" y1="-32.958" style="fill:none;stroke:#000000;stroke-width:0.3;" x1="0"/>
  <line y2="-32.958" x2="12.05" y1="-32.958" style="fill:none;stroke:#000000;stroke-width:0.3;" x1="5.681"/>
  <line y2="-32.958" x2="20.966" y1="-32.958" style="fill:none;stroke:#000000;stroke-width:0.3;" x1="14.598"/>
  <line y2="-32.958" x2="29.883" y1="-32.958" style="fill:none;stroke:#000000;stroke-width:0.3;" x1="23.514"/>
  <line y2="-32.958" x2="38.8" y1="-32.958" style="fill:none;stroke:#000000;stroke-width:0.3;" x1="32.431"/>
  <line y2="-32.958" x2="47.716" y1="-32.958" style="fill:none;stroke:#000000;stroke-width:0.3;" x1="41.347"/>
  <line y2="-32.958" x2="54.125" y1="-32.958" style="fill:none;stroke:#000000;stroke-width:0.3;" x1="50.264"/>
  <line y2="-50.375" x2="18.676" y1="-50.375" style="fill:none;stroke:#000000;stroke-width:0.3;" x1="32.176"/>
  <line y2="-50.375" x2="18.676" y1="-50.375" style="fill:none;stroke:#000000;stroke-width:0.3;" x1="5.926"/>
  <line y2="-50.375" x2="46.551" y1="-50.375" style="fill:none;stroke:#000000;stroke-width:0.3;" x1="32.176"/>
  <line y2="-50.375" x2="0" y1="-50.375" style="fill:none;stroke:#000000;stroke-width:0.3;" x1="5.926"/>
  <line y2="-50.375" x2="46.551" y1="-50.375" style="fill:none;stroke:#000000;stroke-width:0.3;" x1="54.125"/>
  <line y2="-46.2" x2="0" y1="-46.2" style="fill:none;stroke:#000000;stroke-width:0.3;" x1="54.125"/>
  <line y2="-42.013" x2="54.125" y1="-42.013" style="fill:none;stroke:#000000;stroke-width:0.3;" x1="0"/>
  <line y2="-12.4" x2="54.125" y1="-12.4" style="fill:none;stroke:#000000;stroke-width:0.3;" x1="48.634"/>
  <line y2="-12.4" x2="48.634" y1="-12.4" style="fill:none;stroke:#000000;stroke-width:0.3;" x1="33.759"/>
  <line y2="-12.4" x2="0" y1="-12.4" style="fill:none;stroke:#000000;stroke-width:0.3;" x1="6.884"/>
  <line y2="-12.4" x2="20.134" y1="-12.4" style="fill:none;stroke:#000000;stroke-width:0.3;" x1="33.759"/>
  <line y2="-12.4" x2="20.134" y1="-12.4" style="fill:none;stroke:#000000;stroke-width:0.3;" x1="6.884"/>
  <line y2="-8.625" x2="54.125" y1="-8.625" style="fill:none;stroke:#000000;stroke-width:0.3;" x1="0"/>
  <line y2="-37.994" x2="46.551" y1="-37.994" style="fill:none;stroke:#000000;stroke-width:0.3;" x1="31.926"/>
  <line y2="-37.994" x2="0" y1="-37.994" style="fill:none;stroke:#000000;stroke-width:0.3;" x1="5.926"/>
  <line y2="-37.994" x2="18.676" y1="-37.994" style="fill:none;stroke:#000000;stroke-width:0.3;" x1="31.926"/>
  <line y2="-37.994" x2="5.926" y1="-37.994" style="fill:none;stroke:#000000;stroke-width:0.3;" x1="18.676"/>
  <line y2="-37.994" x2="54.125" y1="-37.994" style="fill:none;stroke:#000000;stroke-width:0.3;" x1="46.551"/>
  <line y2="-34.713" x2="54.125" y1="-34.713" style="fill:none;stroke:#000000;stroke-width:0.3;" x1="0"/>
  <line y2="-31.288" x2="54.125" y1="-31.288" style="fill:none;stroke:#000000;stroke-width:0.3;" x1="48.663"/>
  <line y2="-31.288" x2="33.788" y1="-31.288" style="fill:none;stroke:#000000;stroke-width:0.3;" x1="48.663"/>
  <line y2="-31.288" x2="6.663" y1="-31.288" style="fill:none;stroke:#000000;stroke-width:0.3;" x1="20.163"/>
  <line y2="-31.288" x2="0" y1="-31.288" style="fill:none;stroke:#000000;stroke-width:0.3;" x1="6.663"/>
  <line y2="-31.288" x2="20.163" y1="-31.288" style="fill:none;stroke:#000000;stroke-width:0.3;" x1="33.788"/>
  <line y2="-27.238" x2="54.125" y1="-27.238" style="fill:none;stroke:#000000;stroke-width:0.3;" x1="0"/>
  <line y2="-23.438" x2="54.125" y1="-23.438" style="fill:none;stroke:#000000;stroke-width:0.3;" x1="0"/>
  <line y2="-19.238" x2="54.125" y1="-19.238" style="fill:none;stroke:#000000;stroke-width:0.3;" x1="0"/>
  <line y2="-16.013" x2="54.125" y1="-16.013" style="fill:none;stroke:#000000;stroke-width:0.3;" x1="0"/>
  <line y2="-0.838" x2="5.926" y1="-0.838" style="fill:none;stroke:#000000;stroke-width:0.3;" x1="0"/>
  <line y2="-0.838" x2="5.926" y1="-0.838" style="fill:none;stroke:#000000;stroke-width:0.3;" x1="18.676"/>
  <line y2="-0.838" x2="32.176" y1="-0.838" style="fill:none;stroke:#000000;stroke-width:0.3;" x1="46.551"/>
  <line y2="-0.838" x2="32.176" y1="-0.838" style="fill:none;stroke:#000000;stroke-width:0.3;" x1="18.676"/>
  <line y2="-0.838" x2="54.125" y1="-0.838" style="fill:none;stroke:#000000;stroke-width:0.3;" x1="46.551"/>
  <line y2="-54.125" x2="5.926" y1="-50.375" style="fill:none;stroke:#000000;stroke-width:0.3;" x1="5.926"/>
  <line y2="-50.375" x2="18.676" y1="-54.125" style="fill:none;stroke:#000000;stroke-width:0.3;" x1="18.676"/>
  <line y2="-54.125" x2="32.176" y1="-50.375" style="fill:none;stroke:#000000;stroke-width:0.3;" x1="32.176"/>
  <line y2="-50.375" x2="46.551" y1="-54.125" style="fill:none;stroke:#000000;stroke-width:0.3;" x1="46.551"/>
  <line y2="-0.838" x2="5.926" y1="-0.85" style="fill:none;stroke:#000000;stroke-width:0.3;" x1="5.926"/>
  <line y2="-0.838" x2="5.926" y1="-0.001" style="fill:none;stroke:#000000;stroke-width:0.3;" x1="5.926"/>
  <line y2="-0.001" x2="18.676" y1="-0.838" style="fill:none;stroke:#000000;stroke-width:0.3;" x1="18.676"/>
  <line y2="-0.85" x2="18.676" y1="-0.838" style="fill:none;stroke:#000000;stroke-width:0.3;" x1="18.676"/>
  <line y2="-0.838" x2="32.176" y1="-0.001" style="fill:none;stroke:#000000;stroke-width:0.3;" x1="32.176"/>
  <line y2="-0.838" x2="32.176" y1="-0.85" style="fill:none;stroke:#000000;stroke-width:0.3;" x1="32.176"/>
  <line y2="-0.001" x2="46.551" y1="-0.838" style="fill:none;stroke:#000000;stroke-width:0.3;" x1="46.551"/>
  <line y2="-0.85" x2="46.551" y1="-0.838" style="fill:none;stroke:#000000;stroke-width:0.3;" x1="46.551"/>
  <line y2="-42.025" x2="7.038" y1="-46.075" style="fill:none;stroke:#000000;stroke-width:0.3;" x1="7.038"/>
  <line y2="-42.025" x2="20.288" y1="-46.075" style="fill:none;stroke:#000000;stroke-width:0.3;" x1="20.288"/>
  <line y2="-42.025" x2="33.851" y1="-46.075" style="fill:none;stroke:#000000;stroke-width:0.3;" x1="33.851"/>
  <line y2="-42.025" x2="48.788" y1="-46.075" style="fill:none;stroke:#000000;stroke-width:0.3;" x1="48.788"/>
  <line y2="-37.994" x2="46.551" y1="-38.025" style="fill:none;stroke:#000000;stroke-width:0.3;" x1="46.551"/>
  <line y2="-37.994" x2="46.551" y1="-34.725" style="fill:none;stroke:#000000;stroke-width:0.3;" x1="46.551"/>
  <line y2="-38.025" x2="31.926" y1="-37.994" style="fill:none;stroke:#000000;stroke-width:0.3;" x1="31.926"/>
  <line y2="-34.725" x2="31.926" y1="-37.994" style="fill:none;stroke:#000000;stroke-width:0.3;" x1="31.926"/>
  <line y2="-37.994" x2="18.676" y1="-38.025" style="fill:none;stroke:#000000;stroke-width:0.3;" x1="18.676"/>
  <line y2="-34.725" x2="18.676" y1="-37.994" style="fill:none;stroke:#000000;stroke-width:0.3;" x1="18.676"/>
  <line y2="-37.994" x2="5.926" y1="-38.025" style="fill:none;stroke:#000000;stroke-width:0.3;" x1="5.926"/>
  <line y2="-34.725" x2="5.926" y1="-37.994" style="fill:none;stroke:#000000;stroke-width:0.3;" x1="5.926"/>
  <line y2="-27.25" x2="6.663" y1="-31.288" style="fill:none;stroke:#000000;stroke-width:0.3;" x1="6.663"/>
  <line y2="-31.288" x2="6.663" y1="-31.3" style="fill:none;stroke:#000000;stroke-width:0.3;" x1="6.663"/>
  <line y2="-31.288" x2="20.163" y1="-31.3" style="fill:none;stroke:#000000;stroke-width:0.3;" x1="20.163"/>
  <line y2="-27.25" x2="20.163" y1="-31.288" style="fill:none;stroke:#000000;stroke-width:0.3;" x1="20.163"/>
  <line y2="-27.25" x2="33.788" y1="-31.288" style="fill:none;stroke:#000000;stroke-width:0.3;" x1="33.788"/>
  <line y2="-31.288" x2="33.788" y1="-31.3" style="fill:none;stroke:#000000;stroke-width:0.3;" x1="33.788"/>
  <line y2="-27.25" x2="48.663" y1="-31.288" style="fill:none;stroke:#000000;stroke-width:0.3;" x1="48.663"/>
  <line y2="-31.3" x2="48.663" y1="-31.288" style="fill:none;stroke:#000000;stroke-width:0.3;" x1="48.663"/>
  <line y2="-19.25" x2="5.525" y1="-23.388" style="fill:none;stroke:#000000;stroke-width:0.3;" x1="5.525"/>
  <line y2="-19.25" x2="18.525" y1="-23.388" style="fill:none;stroke:#000000;stroke-width:0.3;" x1="18.525"/>
  <line y2="-19.25" x2="32.15" y1="-23.388" style="fill:none;stroke:#000000;stroke-width:0.3;" x1="32.15"/>
  <line y2="-23.388" x2="46.4" y1="-19.25" style="fill:none;stroke:#000000;stroke-width:0.3;" x1="46.4"/>
  <line y2="-15.963" x2="6.884" y1="-12.4" style="fill:none;stroke:#000000;stroke-width:0.3;" x1="6.884"/>
  <line y2="-12.4" x2="20.134" y1="-15.963" style="fill:none;stroke:#000000;stroke-width:0.3;" x1="20.134"/>
  <line y2="-15.963" x2="33.759" y1="-12.4" style="fill:none;stroke:#000000;stroke-width:0.3;" x1="33.759"/>
  <line y2="-15.963" x2="48.634" y1="-12.4" style="fill:none;stroke:#000000;stroke-width:0.3;" x1="48.634"/>
  <line y2="-4.212" x2="54.125" y1="-4.212" style="fill:none;stroke:#000000;stroke-width:0.3;" x1="0"/>
  <line y2="-4.238" x2="4.571" y1="-8.588" style="fill:none;stroke:#000000;stroke-width:0.3;" x1="4.571"/>
  <line y2="-4.238" x2="17.571" y1="-8.588" style="fill:none;stroke:#000000;stroke-width:0.3;" x1="17.571"/>
  <line y2="-4.238" x2="31.571" y1="-8.588" style="fill:none;stroke:#000000;stroke-width:0.3;" x1="31.571"/>
  <line y2="-4.238" x2="46.134" y1="-8.588" style="fill:none;stroke:#000000;stroke-width:0.3;" x1="46.134"/>
 </g>
</svg>
