<?xml version="1.0"?>
<!-- Converted with SVG Converter - Version 0.9.5 (Compiled Fri Feb 21 09:53:38 2020) - Copyright (C) 2011 Nokia -->
<svg xmlns="http://www.w3.org/2000/svg" xml:space="preserve" viewBox="0 -48.712 48.712 48.712" baseProfile="tiny" version="1.1" x="0px" width="48.712" y="0px" height="48.712" xmlns:xlink="http://www.w3.org/1999/xlink">
 <g>
  <rect style="fill:none;" x="0" width="48.712" y="-48.712" height="48.712"/>
  <line style="fill:none;stroke:#000000;stroke-width:0.3;" x2="0" x1="0.373" y1="-38.369" y2="-38.369"/>
  <line style="fill:none;stroke:#000000;stroke-width:0.3;" x2="8.428" x1="2.695" y1="-38.369" y2="-38.369"/>
  <line style="fill:none;stroke:#000000;stroke-width:0.3;" x2="16.452" x1="10.721" y1="-38.369" y2="-38.369"/>
  <line style="fill:none;stroke:#000000;stroke-width:0.3;" x2="24.478" x1="18.745" y1="-38.369" y2="-38.369"/>
  <line style="fill:none;stroke:#000000;stroke-width:0.3;" x2="32.502" x1="26.771" y1="-38.369" y2="-38.369"/>
  <line style="fill:none;stroke:#000000;stroke-width:0.3;" x2="40.527" x1="34.795" y1="-38.369" y2="-38.369"/>
  <line style="fill:none;stroke:#000000;stroke-width:0.3;" x2="48.697" x1="42.82" y1="-38.369" y2="-38.369"/>
  <line style="fill:none;stroke:#000000;stroke-width:0.3;" x2="0" x1="3.52" y1="-34.568" y2="-34.568"/>
  <line style="fill:none;stroke:#000000;stroke-width:0.3;" x2="5.812" x1="11.545" y1="-34.568" y2="-34.568"/>
  <line style="fill:none;stroke:#000000;stroke-width:0.3;" x2="19.569" x1="13.838" y1="-34.568" y2="-34.568"/>
  <line style="fill:none;stroke:#000000;stroke-width:0.3;" x2="27.595" x1="21.862" y1="-34.568" y2="-34.568"/>
  <line style="fill:none;stroke:#000000;stroke-width:0.3;" x2="29.888" x1="35.619" y1="-34.568" y2="-34.568"/>
  <line style="fill:none;stroke:#000000;stroke-width:0.3;" x2="37.912" x1="43.645" y1="-34.568" y2="-34.568"/>
  <line style="fill:none;stroke:#000000;stroke-width:0.3;" x2="45.938" x1="48.712" y1="-34.568" y2="-34.568"/>
  <line style="fill:none;stroke:#000000;stroke-width:0.3;" x2="0.768" x1="0" y1="-31.36" y2="-31.36"/>
  <line style="fill:none;stroke:#000000;stroke-width:0.3;" x2="3.09" x1="8.822" y1="-31.36" y2="-31.36"/>
  <line style="fill:none;stroke:#000000;stroke-width:0.3;" x2="11.115" x1="16.847" y1="-31.36" y2="-31.36"/>
  <line style="fill:none;stroke:#000000;stroke-width:0.3;" x2="19.14" x1="24.872" y1="-31.36" y2="-31.36"/>
  <line style="fill:none;stroke:#000000;stroke-width:0.3;" x2="27.165" x1="32.896" y1="-31.36" y2="-31.36"/>
  <line style="fill:none;stroke:#000000;stroke-width:0.3;" x2="35.189" x1="40.922" y1="-31.36" y2="-31.36"/>
  <line style="fill:none;stroke:#000000;stroke-width:0.3;" x2="48.712" x1="43.215" y1="-31.36" y2="-31.36"/>
  <line style="fill:none;stroke:#000000;stroke-width:0.3;" x2="0" x1="0.373" y1="-14.411" y2="-14.411"/>
  <line style="fill:none;stroke:#000000;stroke-width:0.3;" x2="8.428" x1="2.695" y1="-14.411" y2="-14.411"/>
  <line style="fill:none;stroke:#000000;stroke-width:0.3;" x2="16.452" x1="10.721" y1="-14.411" y2="-14.411"/>
  <line style="fill:none;stroke:#000000;stroke-width:0.3;" x2="24.478" x1="18.745" y1="-14.411" y2="-14.411"/>
  <line style="fill:none;stroke:#000000;stroke-width:0.3;" x2="32.502" x1="26.771" y1="-14.411" y2="-14.411"/>
  <line style="fill:none;stroke:#000000;stroke-width:0.3;" x2="40.527" x1="34.795" y1="-14.411" y2="-14.411"/>
  <line style="fill:none;stroke:#000000;stroke-width:0.3;" x2="48.697" x1="42.82" y1="-14.411" y2="-14.411"/>
  <line style="fill:none;stroke:#000000;stroke-width:0.3;" x2="0" x1="3.52" y1="-10.865" y2="-10.865"/>
  <line style="fill:none;stroke:#000000;stroke-width:0.3;" x2="5.812" x1="11.545" y1="-10.865" y2="-10.865"/>
  <line style="fill:none;stroke:#000000;stroke-width:0.3;" x2="13.838" x1="19.569" y1="-10.865" y2="-10.865"/>
  <line style="fill:none;stroke:#000000;stroke-width:0.3;" x2="27.595" x1="21.862" y1="-10.865" y2="-10.865"/>
  <line style="fill:none;stroke:#000000;stroke-width:0.3;" x2="35.619" x1="29.888" y1="-10.865" y2="-10.865"/>
  <line style="fill:none;stroke:#000000;stroke-width:0.3;" x2="37.912" x1="43.645" y1="-10.865" y2="-10.865"/>
  <line style="fill:none;stroke:#000000;stroke-width:0.3;" x2="48.712" x1="45.938" y1="-10.865" y2="-10.865"/>
  <line style="fill:none;stroke:#000000;stroke-width:0.3;" x2="0" x1="0.768" y1="-6.994" y2="-6.994"/>
  <line style="fill:none;stroke:#000000;stroke-width:0.3;" x2="3.09" x1="8.822" y1="-6.994" y2="-6.994"/>
  <line style="fill:none;stroke:#000000;stroke-width:0.3;" x2="11.115" x1="16.847" y1="-6.994" y2="-6.994"/>
  <line style="fill:none;stroke:#000000;stroke-width:0.3;" x2="24.872" x1="19.14" y1="-6.994" y2="-6.994"/>
  <line style="fill:none;stroke:#000000;stroke-width:0.3;" x2="27.165" x1="32.896" y1="-6.994" y2="-6.994"/>
  <line style="fill:none;stroke:#000000;stroke-width:0.3;" x2="35.189" x1="40.922" y1="-6.994" y2="-6.994"/>
  <line style="fill:none;stroke:#000000;stroke-width:0.3;" x2="48.712" x1="43.215" y1="-6.994" y2="-6.994"/>
  <line style="fill:none;stroke:#000000;stroke-width:0.3;" x2="16.808" x1="24.728" y1="-45.337" y2="-45.337"/>
  <line style="fill:none;stroke:#000000;stroke-width:0.3;" x2="16.808" x1="11.34" y1="-45.337" y2="-45.337"/>
  <line style="fill:none;stroke:#000000;stroke-width:0.3;" x2="5.332" x1="0" y1="-45.337" y2="-45.337"/>
  <line style="fill:none;stroke:#000000;stroke-width:0.3;" x2="5.332" x1="11.34" y1="-45.337" y2="-45.337"/>
  <line style="fill:none;stroke:#000000;stroke-width:0.3;" x2="36.989" x1="41.895" y1="-45.337" y2="-45.337"/>
  <line style="fill:none;stroke:#000000;stroke-width:0.3;" x2="24.728" x1="28.957" y1="-45.337" y2="-45.337"/>
  <line style="fill:none;stroke:#000000;stroke-width:0.3;" x2="48.712" x1="48.532" y1="-45.337" y2="-45.337"/>
  <line style="fill:none;stroke:#000000;stroke-width:0.3;" x2="36.989" x1="28.957" y1="-45.337" y2="-45.337"/>
  <line style="fill:none;stroke:#000000;stroke-width:0.3;" x2="41.895" x1="48.532" y1="-45.337" y2="-45.337"/>
  <line style="fill:none;stroke:#000000;stroke-width:0.3;" x2="0" x1="48.712" y1="-41.58" y2="-41.58"/>
  <line style="fill:none;stroke:#000000;stroke-width:0.3;" x2="48.712" x1="43.796" y1="-28.159" y2="-28.159"/>
  <line style="fill:none;stroke:#000000;stroke-width:0.3;" x2="30.408" x1="43.796" y1="-28.159" y2="-28.159"/>
  <line style="fill:none;stroke:#000000;stroke-width:0.3;" x2="0" x1="5.996" y1="-28.159" y2="-28.159"/>
  <line style="fill:none;stroke:#000000;stroke-width:0.3;" x2="5.996" x1="18.146" y1="-28.159" y2="-28.159"/>
  <line style="fill:none;stroke:#000000;stroke-width:0.3;" x2="30.408" x1="18.146" y1="-28.159" y2="-28.159"/>
  <line style="fill:none;stroke:#000000;stroke-width:0.3;" x2="0" x1="48.712" y1="-24.514" y2="-24.514"/>
  <line style="fill:none;stroke:#000000;stroke-width:0.3;" x2="0" x1="48.712" y1="-21.094" y2="-21.094"/>
  <line style="fill:none;stroke:#000000;stroke-width:0.3;" x2="0" x1="48.712" y1="-17.314" y2="-17.314"/>
  <line style="fill:none;stroke:#000000;stroke-width:0.3;" x2="34.522" x1="28.957" y1="-0.754" y2="-0.754"/>
  <line style="fill:none;stroke:#000000;stroke-width:0.3;" x2="0" x1="5.332" y1="-0.754" y2="-0.754"/>
  <line style="fill:none;stroke:#000000;stroke-width:0.3;" x2="46.56" x1="41.895" y1="-0.754" y2="-0.754"/>
  <line style="fill:none;stroke:#000000;stroke-width:0.3;" x2="34.522" x1="41.895" y1="-0.754" y2="-0.754"/>
  <line style="fill:none;stroke:#000000;stroke-width:0.3;" x2="48.712" x1="46.56" y1="-0.754" y2="-0.754"/>
  <line style="fill:none;stroke:#000000;stroke-width:0.3;" x2="28.957" x1="22.26" y1="-0.754" y2="-0.754"/>
  <line style="fill:none;stroke:#000000;stroke-width:0.3;" x2="16.808" x1="9.267" y1="-0.754" y2="-0.754"/>
  <line style="fill:none;stroke:#000000;stroke-width:0.3;" x2="9.267" x1="5.332" y1="-0.754" y2="-0.754"/>
  <line style="fill:none;stroke:#000000;stroke-width:0.3;" x2="22.26" x1="16.808" y1="-0.754" y2="-0.754"/>
  <line style="fill:none;stroke:#000000;stroke-width:0.3;" x2="5.332" x1="5.332" y1="-48.712" y2="-45.337"/>
  <line style="fill:none;stroke:#000000;stroke-width:0.3;" x2="16.808" x1="16.808" y1="-48.712" y2="-45.337"/>
  <line style="fill:none;stroke:#000000;stroke-width:0.3;" x2="28.957" x1="28.957" y1="-45.337" y2="-48.712"/>
  <line style="fill:none;stroke:#000000;stroke-width:0.3;" x2="41.895" x1="41.895" y1="-48.712" y2="-45.337"/>
  <line style="fill:none;stroke:#000000;stroke-width:0.3;" x2="5.332" x1="5.332" y1="-0.754" y2="-0.765"/>
  <line style="fill:none;stroke:#000000;stroke-width:0.3;" x2="5.332" x1="5.332" y1="-0.754" y2="-0.001"/>
  <line style="fill:none;stroke:#000000;stroke-width:0.3;" x2="16.808" x1="16.808" y1="-0.765" y2="-0.754"/>
  <line style="fill:none;stroke:#000000;stroke-width:0.3;" x2="16.808" x1="16.808" y1="-0.001" y2="-0.754"/>
  <line style="fill:none;stroke:#000000;stroke-width:0.3;" x2="28.957" x1="28.957" y1="-0.754" y2="-0.765"/>
  <line style="fill:none;stroke:#000000;stroke-width:0.3;" x2="28.957" x1="28.957" y1="-0.001" y2="-0.754"/>
  <line style="fill:none;stroke:#000000;stroke-width:0.3;" x2="41.895" x1="41.895" y1="-0.754" y2="-0.765"/>
  <line style="fill:none;stroke:#000000;stroke-width:0.3;" x2="41.895" x1="41.895" y1="-0.754" y2="-0.001"/>
  <line style="fill:none;stroke:#000000;stroke-width:0.3;" x2="11.34" x1="11.34" y1="-45.337" y2="-41.591"/>
  <line style="fill:none;stroke:#000000;stroke-width:0.3;" x2="11.34" x1="11.34" y1="-45.337" y2="-45.394"/>
  <line style="fill:none;stroke:#000000;stroke-width:0.3;" x2="24.728" x1="24.728" y1="-45.394" y2="-45.337"/>
  <line style="fill:none;stroke:#000000;stroke-width:0.3;" x2="24.728" x1="24.728" y1="-45.337" y2="-41.591"/>
  <line style="fill:none;stroke:#000000;stroke-width:0.3;" x2="36.989" x1="36.989" y1="-45.394" y2="-45.337"/>
  <line style="fill:none;stroke:#000000;stroke-width:0.3;" x2="36.989" x1="36.989" y1="-41.591" y2="-45.337"/>
  <line style="fill:none;stroke:#000000;stroke-width:0.3;" x2="48.532" x1="48.532" y1="-45.337" y2="-41.591"/>
  <line style="fill:none;stroke:#000000;stroke-width:0.3;" x2="5.996" x1="5.996" y1="-28.159" y2="-28.17"/>
  <line style="fill:none;stroke:#000000;stroke-width:0.3;" x2="5.996" x1="5.996" y1="-28.159" y2="-24.525"/>
  <line style="fill:none;stroke:#000000;stroke-width:0.3;" x2="18.146" x1="18.146" y1="-28.159" y2="-24.525"/>
  <line style="fill:none;stroke:#000000;stroke-width:0.3;" x2="18.146" x1="18.146" y1="-28.17" y2="-28.159"/>
  <line style="fill:none;stroke:#000000;stroke-width:0.3;" x2="30.408" x1="30.408" y1="-24.525" y2="-28.159"/>
  <line style="fill:none;stroke:#000000;stroke-width:0.3;" x2="30.408" x1="30.408" y1="-28.17" y2="-28.159"/>
  <line style="fill:none;stroke:#000000;stroke-width:0.3;" x2="43.796" x1="43.796" y1="-28.159" y2="-24.525"/>
  <line style="fill:none;stroke:#000000;stroke-width:0.3;" x2="43.796" x1="43.796" y1="-28.17" y2="-28.159"/>
  <line style="fill:none;stroke:#000000;stroke-width:0.3;" x2="36.033" x1="36.033" y1="-21.105" y2="-24.469"/>
  <line style="fill:none;stroke:#000000;stroke-width:0.3;" x2="24.041" x1="24.041" y1="-21.105" y2="-24.469"/>
  <line style="fill:none;stroke:#000000;stroke-width:0.3;" x2="10.541" x1="10.541" y1="-24.469" y2="-21.105"/>
  <line style="fill:none;stroke:#000000;stroke-width:0.3;" x2="47.939" x1="47.939" y1="-21.105" y2="-24.469"/>
  <line style="fill:none;stroke:#000000;stroke-width:0.3;" x2="4.973" x1="4.973" y1="-21.049" y2="-17.325"/>
  <line style="fill:none;stroke:#000000;stroke-width:0.3;" x2="16.673" x1="16.673" y1="-17.325" y2="-21.049"/>
  <line style="fill:none;stroke:#000000;stroke-width:0.3;" x2="28.935" x1="28.935" y1="-17.325" y2="-21.049"/>
  <line style="fill:none;stroke:#000000;stroke-width:0.3;" x2="41.76" x1="41.76" y1="-17.325" y2="-21.049"/>
  <line style="fill:none;stroke:#000000;stroke-width:0.3;" x2="34.522" x1="46.56" y1="-3.792" y2="-3.792"/>
  <line style="fill:none;stroke:#000000;stroke-width:0.3;" x2="34.522" x1="22.26" y1="-3.792" y2="-3.792"/>
  <line style="fill:none;stroke:#000000;stroke-width:0.3;" x2="22.26" x1="9.267" y1="-3.792" y2="-3.792"/>
  <line style="fill:none;stroke:#000000;stroke-width:0.3;" x2="0" x1="9.267" y1="-3.792" y2="-3.792"/>
  <line style="fill:none;stroke:#000000;stroke-width:0.3;" x2="48.712" x1="46.56" y1="-3.792" y2="-3.792"/>
  <line style="fill:none;stroke:#000000;stroke-width:0.3;" x2="9.267" x1="9.267" y1="-3.792" y2="-3.814"/>
  <line style="fill:none;stroke:#000000;stroke-width:0.3;" x2="9.267" x1="9.267" y1="-3.792" y2="-0.754"/>
  <line style="fill:none;stroke:#000000;stroke-width:0.3;" x2="9.267" x1="9.267" y1="-0.697" y2="-0.754"/>
  <line style="fill:none;stroke:#000000;stroke-width:0.3;" x2="22.26" x1="22.26" y1="-3.814" y2="-3.792"/>
  <line style="fill:none;stroke:#000000;stroke-width:0.3;" x2="22.26" x1="22.26" y1="-3.792" y2="-0.754"/>
  <line style="fill:none;stroke:#000000;stroke-width:0.3;" x2="22.26" x1="22.26" y1="-0.697" y2="-0.754"/>
  <line style="fill:none;stroke:#000000;stroke-width:0.3;" x2="34.522" x1="34.522" y1="-0.754" y2="-0.697"/>
  <line style="fill:none;stroke:#000000;stroke-width:0.3;" x2="34.522" x1="34.522" y1="-3.814" y2="-3.792"/>
  <line style="fill:none;stroke:#000000;stroke-width:0.3;" x2="34.522" x1="34.522" y1="-0.754" y2="-3.792"/>
  <line style="fill:none;stroke:#000000;stroke-width:0.3;" x2="46.56" x1="46.56" y1="-3.792" y2="-3.814"/>
  <line style="fill:none;stroke:#000000;stroke-width:0.3;" x2="46.56" x1="46.56" y1="-3.792" y2="-0.754"/>
  <line style="fill:none;stroke:#000000;stroke-width:0.3;" x2="46.56" x1="46.56" y1="-0.697" y2="-0.754"/>
 </g>
</svg>
