<?xml version="1.0"?>
<!-- Converted with SVG Converter - Version 0.9.6 (Compiled Thu Aug 31 10:01:05 2017) - Copyright (C) 2011 Nokia -->
<svg xmlns="http://www.w3.org/2000/svg" x="0px" version="1.1" xmlns:xlink="http://www.w3.org/1999/xlink" baseProfile="tiny" width="48.712" y="0px" height="48.712" viewBox="0 -48.712 48.712 48.712" xml:space="preserve">
 <g>
  <rect x="0" style="fill:none;" width="48.712" y="-48.712" height="48.712"/>
  <line y1="-38.369" style="fill:none;stroke:#000000;stroke-width:0.3;" x2="0" x1="0.373" y2="-38.369"/>
  <line y1="-38.369" style="fill:none;stroke:#000000;stroke-width:0.3;" x2="8.428" x1="2.695" y2="-38.369"/>
  <line y1="-38.369" style="fill:none;stroke:#000000;stroke-width:0.3;" x2="16.452" x1="10.721" y2="-38.369"/>
  <line y1="-38.369" style="fill:none;stroke:#000000;stroke-width:0.3;" x2="24.478" x1="18.745" y2="-38.369"/>
  <line y1="-38.369" style="fill:none;stroke:#000000;stroke-width:0.3;" x2="32.502" x1="26.771" y2="-38.369"/>
  <line y1="-38.369" style="fill:none;stroke:#000000;stroke-width:0.3;" x2="40.527" x1="34.795" y2="-38.369"/>
  <line y1="-38.369" style="fill:none;stroke:#000000;stroke-width:0.3;" x2="48.697" x1="42.82" y2="-38.369"/>
  <line y1="-34.568" style="fill:none;stroke:#000000;stroke-width:0.3;" x2="0" x1="3.52" y2="-34.568"/>
  <line y1="-34.568" style="fill:none;stroke:#000000;stroke-width:0.3;" x2="5.812" x1="11.545" y2="-34.568"/>
  <line y1="-34.568" style="fill:none;stroke:#000000;stroke-width:0.3;" x2="19.569" x1="13.838" y2="-34.568"/>
  <line y1="-34.568" style="fill:none;stroke:#000000;stroke-width:0.3;" x2="27.595" x1="21.862" y2="-34.568"/>
  <line y1="-34.568" style="fill:none;stroke:#000000;stroke-width:0.3;" x2="29.888" x1="35.619" y2="-34.568"/>
  <line y1="-34.568" style="fill:none;stroke:#000000;stroke-width:0.3;" x2="37.912" x1="43.645" y2="-34.568"/>
  <line y1="-34.568" style="fill:none;stroke:#000000;stroke-width:0.3;" x2="45.938" x1="48.712" y2="-34.568"/>
  <line y1="-31.36" style="fill:none;stroke:#000000;stroke-width:0.3;" x2="0.768" x1="0" y2="-31.36"/>
  <line y1="-31.36" style="fill:none;stroke:#000000;stroke-width:0.3;" x2="3.09" x1="8.822" y2="-31.36"/>
  <line y1="-31.36" style="fill:none;stroke:#000000;stroke-width:0.3;" x2="11.115" x1="16.847" y2="-31.36"/>
  <line y1="-31.36" style="fill:none;stroke:#000000;stroke-width:0.3;" x2="19.14" x1="24.872" y2="-31.36"/>
  <line y1="-31.36" style="fill:none;stroke:#000000;stroke-width:0.3;" x2="27.165" x1="32.896" y2="-31.36"/>
  <line y1="-31.36" style="fill:none;stroke:#000000;stroke-width:0.3;" x2="35.189" x1="40.922" y2="-31.36"/>
  <line y1="-31.36" style="fill:none;stroke:#000000;stroke-width:0.3;" x2="48.712" x1="43.215" y2="-31.36"/>
  <line y1="-14.411" style="fill:none;stroke:#000000;stroke-width:0.3;" x2="0" x1="0.373" y2="-14.411"/>
  <line y1="-14.411" style="fill:none;stroke:#000000;stroke-width:0.3;" x2="8.428" x1="2.695" y2="-14.411"/>
  <line y1="-14.411" style="fill:none;stroke:#000000;stroke-width:0.3;" x2="16.452" x1="10.721" y2="-14.411"/>
  <line y1="-14.411" style="fill:none;stroke:#000000;stroke-width:0.3;" x2="24.478" x1="18.745" y2="-14.411"/>
  <line y1="-14.411" style="fill:none;stroke:#000000;stroke-width:0.3;" x2="32.502" x1="26.771" y2="-14.411"/>
  <line y1="-14.411" style="fill:none;stroke:#000000;stroke-width:0.3;" x2="40.527" x1="34.795" y2="-14.411"/>
  <line y1="-14.411" style="fill:none;stroke:#000000;stroke-width:0.3;" x2="48.697" x1="42.82" y2="-14.411"/>
  <line y1="-10.865" style="fill:none;stroke:#000000;stroke-width:0.3;" x2="0" x1="3.52" y2="-10.865"/>
  <line y1="-10.865" style="fill:none;stroke:#000000;stroke-width:0.3;" x2="5.812" x1="11.545" y2="-10.865"/>
  <line y1="-10.865" style="fill:none;stroke:#000000;stroke-width:0.3;" x2="13.838" x1="19.569" y2="-10.865"/>
  <line y1="-10.865" style="fill:none;stroke:#000000;stroke-width:0.3;" x2="27.595" x1="21.862" y2="-10.865"/>
  <line y1="-10.865" style="fill:none;stroke:#000000;stroke-width:0.3;" x2="35.619" x1="29.888" y2="-10.865"/>
  <line y1="-10.865" style="fill:none;stroke:#000000;stroke-width:0.3;" x2="37.912" x1="43.645" y2="-10.865"/>
  <line y1="-10.865" style="fill:none;stroke:#000000;stroke-width:0.3;" x2="48.712" x1="45.938" y2="-10.865"/>
  <line y1="-6.994" style="fill:none;stroke:#000000;stroke-width:0.3;" x2="0" x1="0.768" y2="-6.994"/>
  <line y1="-6.994" style="fill:none;stroke:#000000;stroke-width:0.3;" x2="3.09" x1="8.822" y2="-6.994"/>
  <line y1="-6.994" style="fill:none;stroke:#000000;stroke-width:0.3;" x2="11.115" x1="16.847" y2="-6.994"/>
  <line y1="-6.994" style="fill:none;stroke:#000000;stroke-width:0.3;" x2="24.872" x1="19.14" y2="-6.994"/>
  <line y1="-6.994" style="fill:none;stroke:#000000;stroke-width:0.3;" x2="27.165" x1="32.896" y2="-6.994"/>
  <line y1="-6.994" style="fill:none;stroke:#000000;stroke-width:0.3;" x2="35.189" x1="40.922" y2="-6.994"/>
  <line y1="-6.994" style="fill:none;stroke:#000000;stroke-width:0.3;" x2="48.712" x1="43.215" y2="-6.994"/>
  <line y1="-45.337" style="fill:none;stroke:#000000;stroke-width:0.3;" x2="16.808" x1="24.728" y2="-45.337"/>
  <line y1="-45.337" style="fill:none;stroke:#000000;stroke-width:0.3;" x2="16.808" x1="11.34" y2="-45.337"/>
  <line y1="-45.337" style="fill:none;stroke:#000000;stroke-width:0.3;" x2="5.332" x1="0" y2="-45.337"/>
  <line y1="-45.337" style="fill:none;stroke:#000000;stroke-width:0.3;" x2="5.332" x1="11.34" y2="-45.337"/>
  <line y1="-45.337" style="fill:none;stroke:#000000;stroke-width:0.3;" x2="36.989" x1="41.895" y2="-45.337"/>
  <line y1="-45.337" style="fill:none;stroke:#000000;stroke-width:0.3;" x2="24.728" x1="28.957" y2="-45.337"/>
  <line y1="-45.337" style="fill:none;stroke:#000000;stroke-width:0.3;" x2="48.712" x1="48.532" y2="-45.337"/>
  <line y1="-45.337" style="fill:none;stroke:#000000;stroke-width:0.3;" x2="36.989" x1="28.957" y2="-45.337"/>
  <line y1="-45.337" style="fill:none;stroke:#000000;stroke-width:0.3;" x2="41.895" x1="48.532" y2="-45.337"/>
  <line y1="-41.58" style="fill:none;stroke:#000000;stroke-width:0.3;" x2="0" x1="48.712" y2="-41.58"/>
  <line y1="-28.159" style="fill:none;stroke:#000000;stroke-width:0.3;" x2="48.712" x1="43.796" y2="-28.159"/>
  <line y1="-28.159" style="fill:none;stroke:#000000;stroke-width:0.3;" x2="30.408" x1="43.796" y2="-28.159"/>
  <line y1="-28.159" style="fill:none;stroke:#000000;stroke-width:0.3;" x2="0" x1="5.996" y2="-28.159"/>
  <line y1="-28.159" style="fill:none;stroke:#000000;stroke-width:0.3;" x2="5.996" x1="18.146" y2="-28.159"/>
  <line y1="-28.159" style="fill:none;stroke:#000000;stroke-width:0.3;" x2="30.408" x1="18.146" y2="-28.159"/>
  <line y1="-24.514" style="fill:none;stroke:#000000;stroke-width:0.3;" x2="0" x1="48.712" y2="-24.514"/>
  <line y1="-21.094" style="fill:none;stroke:#000000;stroke-width:0.3;" x2="0" x1="48.712" y2="-21.094"/>
  <line y1="-17.314" style="fill:none;stroke:#000000;stroke-width:0.3;" x2="0" x1="48.712" y2="-17.314"/>
  <line y1="-0.754" style="fill:none;stroke:#000000;stroke-width:0.3;" x2="34.522" x1="28.957" y2="-0.754"/>
  <line y1="-0.754" style="fill:none;stroke:#000000;stroke-width:0.3;" x2="0" x1="5.332" y2="-0.754"/>
  <line y1="-0.754" style="fill:none;stroke:#000000;stroke-width:0.3;" x2="46.56" x1="41.895" y2="-0.754"/>
  <line y1="-0.754" style="fill:none;stroke:#000000;stroke-width:0.3;" x2="34.522" x1="41.895" y2="-0.754"/>
  <line y1="-0.754" style="fill:none;stroke:#000000;stroke-width:0.3;" x2="48.712" x1="46.56" y2="-0.754"/>
  <line y1="-0.754" style="fill:none;stroke:#000000;stroke-width:0.3;" x2="28.957" x1="22.26" y2="-0.754"/>
  <line y1="-0.754" style="fill:none;stroke:#000000;stroke-width:0.3;" x2="16.808" x1="9.267" y2="-0.754"/>
  <line y1="-0.754" style="fill:none;stroke:#000000;stroke-width:0.3;" x2="9.267" x1="5.332" y2="-0.754"/>
  <line y1="-0.754" style="fill:none;stroke:#000000;stroke-width:0.3;" x2="22.26" x1="16.808" y2="-0.754"/>
  <line y1="-48.712" style="fill:none;stroke:#000000;stroke-width:0.3;" x2="5.332" x1="5.332" y2="-45.337"/>
  <line y1="-48.712" style="fill:none;stroke:#000000;stroke-width:0.3;" x2="16.808" x1="16.808" y2="-45.337"/>
  <line y1="-45.337" style="fill:none;stroke:#000000;stroke-width:0.3;" x2="28.957" x1="28.957" y2="-48.712"/>
  <line y1="-48.712" style="fill:none;stroke:#000000;stroke-width:0.3;" x2="41.895" x1="41.895" y2="-45.337"/>
  <line y1="-0.754" style="fill:none;stroke:#000000;stroke-width:0.3;" x2="5.332" x1="5.332" y2="-0.765"/>
  <line y1="-0.754" style="fill:none;stroke:#000000;stroke-width:0.3;" x2="5.332" x1="5.332" y2="-0.001"/>
  <line y1="-0.765" style="fill:none;stroke:#000000;stroke-width:0.3;" x2="16.808" x1="16.808" y2="-0.754"/>
  <line y1="-0.001" style="fill:none;stroke:#000000;stroke-width:0.3;" x2="16.808" x1="16.808" y2="-0.754"/>
  <line y1="-0.754" style="fill:none;stroke:#000000;stroke-width:0.3;" x2="28.957" x1="28.957" y2="-0.765"/>
  <line y1="-0.001" style="fill:none;stroke:#000000;stroke-width:0.3;" x2="28.957" x1="28.957" y2="-0.754"/>
  <line y1="-0.754" style="fill:none;stroke:#000000;stroke-width:0.3;" x2="41.895" x1="41.895" y2="-0.765"/>
  <line y1="-0.754" style="fill:none;stroke:#000000;stroke-width:0.3;" x2="41.895" x1="41.895" y2="-0.001"/>
  <line y1="-45.337" style="fill:none;stroke:#000000;stroke-width:0.3;" x2="11.34" x1="11.34" y2="-41.591"/>
  <line y1="-45.337" style="fill:none;stroke:#000000;stroke-width:0.3;" x2="11.34" x1="11.34" y2="-45.394"/>
  <line y1="-45.394" style="fill:none;stroke:#000000;stroke-width:0.3;" x2="24.728" x1="24.728" y2="-45.337"/>
  <line y1="-45.337" style="fill:none;stroke:#000000;stroke-width:0.3;" x2="24.728" x1="24.728" y2="-41.591"/>
  <line y1="-45.394" style="fill:none;stroke:#000000;stroke-width:0.3;" x2="36.989" x1="36.989" y2="-45.337"/>
  <line y1="-41.591" style="fill:none;stroke:#000000;stroke-width:0.3;" x2="36.989" x1="36.989" y2="-45.337"/>
  <line y1="-45.337" style="fill:none;stroke:#000000;stroke-width:0.3;" x2="48.532" x1="48.532" y2="-41.591"/>
  <line y1="-28.159" style="fill:none;stroke:#000000;stroke-width:0.3;" x2="5.996" x1="5.996" y2="-28.17"/>
  <line y1="-28.159" style="fill:none;stroke:#000000;stroke-width:0.3;" x2="5.996" x1="5.996" y2="-24.525"/>
  <line y1="-28.159" style="fill:none;stroke:#000000;stroke-width:0.3;" x2="18.146" x1="18.146" y2="-24.525"/>
  <line y1="-28.17" style="fill:none;stroke:#000000;stroke-width:0.3;" x2="18.146" x1="18.146" y2="-28.159"/>
  <line y1="-24.525" style="fill:none;stroke:#000000;stroke-width:0.3;" x2="30.408" x1="30.408" y2="-28.159"/>
  <line y1="-28.17" style="fill:none;stroke:#000000;stroke-width:0.3;" x2="30.408" x1="30.408" y2="-28.159"/>
  <line y1="-28.159" style="fill:none;stroke:#000000;stroke-width:0.3;" x2="43.796" x1="43.796" y2="-24.525"/>
  <line y1="-28.17" style="fill:none;stroke:#000000;stroke-width:0.3;" x2="43.796" x1="43.796" y2="-28.159"/>
  <line y1="-21.105" style="fill:none;stroke:#000000;stroke-width:0.3;" x2="36.033" x1="36.033" y2="-24.469"/>
  <line y1="-21.105" style="fill:none;stroke:#000000;stroke-width:0.3;" x2="24.041" x1="24.041" y2="-24.469"/>
  <line y1="-24.469" style="fill:none;stroke:#000000;stroke-width:0.3;" x2="10.541" x1="10.541" y2="-21.105"/>
  <line y1="-21.105" style="fill:none;stroke:#000000;stroke-width:0.3;" x2="47.939" x1="47.939" y2="-24.469"/>
  <line y1="-21.049" style="fill:none;stroke:#000000;stroke-width:0.3;" x2="4.973" x1="4.973" y2="-17.325"/>
  <line y1="-17.325" style="fill:none;stroke:#000000;stroke-width:0.3;" x2="16.673" x1="16.673" y2="-21.049"/>
  <line y1="-17.325" style="fill:none;stroke:#000000;stroke-width:0.3;" x2="28.935" x1="28.935" y2="-21.049"/>
  <line y1="-17.325" style="fill:none;stroke:#000000;stroke-width:0.3;" x2="41.76" x1="41.76" y2="-21.049"/>
  <line y1="-3.792" style="fill:none;stroke:#000000;stroke-width:0.3;" x2="34.522" x1="46.56" y2="-3.792"/>
  <line y1="-3.792" style="fill:none;stroke:#000000;stroke-width:0.3;" x2="34.522" x1="22.26" y2="-3.792"/>
  <line y1="-3.792" style="fill:none;stroke:#000000;stroke-width:0.3;" x2="22.26" x1="9.267" y2="-3.792"/>
  <line y1="-3.792" style="fill:none;stroke:#000000;stroke-width:0.3;" x2="0" x1="9.267" y2="-3.792"/>
  <line y1="-3.792" style="fill:none;stroke:#000000;stroke-width:0.3;" x2="48.712" x1="46.56" y2="-3.792"/>
  <line y1="-3.792" style="fill:none;stroke:#000000;stroke-width:0.3;" x2="9.267" x1="9.267" y2="-3.814"/>
  <line y1="-3.792" style="fill:none;stroke:#000000;stroke-width:0.3;" x2="9.267" x1="9.267" y2="-0.754"/>
  <line y1="-0.697" style="fill:none;stroke:#000000;stroke-width:0.3;" x2="9.267" x1="9.267" y2="-0.754"/>
  <line y1="-3.814" style="fill:none;stroke:#000000;stroke-width:0.3;" x2="22.26" x1="22.26" y2="-3.792"/>
  <line y1="-3.792" style="fill:none;stroke:#000000;stroke-width:0.3;" x2="22.26" x1="22.26" y2="-0.754"/>
  <line y1="-0.697" style="fill:none;stroke:#000000;stroke-width:0.3;" x2="22.26" x1="22.26" y2="-0.754"/>
  <line y1="-0.754" style="fill:none;stroke:#000000;stroke-width:0.3;" x2="34.522" x1="34.522" y2="-0.697"/>
  <line y1="-3.814" style="fill:none;stroke:#000000;stroke-width:0.3;" x2="34.522" x1="34.522" y2="-3.792"/>
  <line y1="-0.754" style="fill:none;stroke:#000000;stroke-width:0.3;" x2="34.522" x1="34.522" y2="-3.792"/>
  <line y1="-3.792" style="fill:none;stroke:#000000;stroke-width:0.3;" x2="46.56" x1="46.56" y2="-3.814"/>
  <line y1="-3.792" style="fill:none;stroke:#000000;stroke-width:0.3;" x2="46.56" x1="46.56" y2="-0.754"/>
  <line y1="-0.697" style="fill:none;stroke:#000000;stroke-width:0.3;" x2="46.56" x1="46.56" y2="-0.754"/>
 </g>
</svg>
