<?xml version="1.0"?>
<!-- Converted with SVG Converter - Version 0.9.5 (Compiled Fri Feb 21 09:53:38 2020) - Copyright (C) 2011 Nokia -->
<svg xmlns="http://www.w3.org/2000/svg" xml:space="preserve" height="48.712" x="0px" y="0px" version="1.1" viewBox="0 -48.712 48.712 48.712" width="48.712" baseProfile="tiny" xmlns:xlink="http://www.w3.org/1999/xlink">
 <g>
  <rect height="48.712" x="0" y="-48.712" width="48.712" style="fill:none;"/>
  <line x2="0" x1="0.373" style="fill:none;stroke:#000000;stroke-width:0.3;" y1="-38.369" y2="-38.369"/>
  <line x2="8.428" x1="2.695" style="fill:none;stroke:#000000;stroke-width:0.3;" y1="-38.369" y2="-38.369"/>
  <line x2="16.452" x1="10.721" style="fill:none;stroke:#000000;stroke-width:0.3;" y1="-38.369" y2="-38.369"/>
  <line x2="24.478" x1="18.745" style="fill:none;stroke:#000000;stroke-width:0.3;" y1="-38.369" y2="-38.369"/>
  <line x2="32.502" x1="26.771" style="fill:none;stroke:#000000;stroke-width:0.3;" y1="-38.369" y2="-38.369"/>
  <line x2="40.527" x1="34.795" style="fill:none;stroke:#000000;stroke-width:0.3;" y1="-38.369" y2="-38.369"/>
  <line x2="48.697" x1="42.82" style="fill:none;stroke:#000000;stroke-width:0.3;" y1="-38.369" y2="-38.369"/>
  <line x2="0" x1="3.52" style="fill:none;stroke:#000000;stroke-width:0.3;" y1="-34.568" y2="-34.568"/>
  <line x2="5.812" x1="11.545" style="fill:none;stroke:#000000;stroke-width:0.3;" y1="-34.568" y2="-34.568"/>
  <line x2="19.569" x1="13.838" style="fill:none;stroke:#000000;stroke-width:0.3;" y1="-34.568" y2="-34.568"/>
  <line x2="27.595" x1="21.862" style="fill:none;stroke:#000000;stroke-width:0.3;" y1="-34.568" y2="-34.568"/>
  <line x2="29.888" x1="35.619" style="fill:none;stroke:#000000;stroke-width:0.3;" y1="-34.568" y2="-34.568"/>
  <line x2="37.912" x1="43.645" style="fill:none;stroke:#000000;stroke-width:0.3;" y1="-34.568" y2="-34.568"/>
  <line x2="45.938" x1="48.712" style="fill:none;stroke:#000000;stroke-width:0.3;" y1="-34.568" y2="-34.568"/>
  <line x2="0.768" x1="0" style="fill:none;stroke:#000000;stroke-width:0.3;" y1="-31.36" y2="-31.36"/>
  <line x2="3.09" x1="8.822" style="fill:none;stroke:#000000;stroke-width:0.3;" y1="-31.36" y2="-31.36"/>
  <line x2="11.115" x1="16.847" style="fill:none;stroke:#000000;stroke-width:0.3;" y1="-31.36" y2="-31.36"/>
  <line x2="19.14" x1="24.872" style="fill:none;stroke:#000000;stroke-width:0.3;" y1="-31.36" y2="-31.36"/>
  <line x2="27.165" x1="32.896" style="fill:none;stroke:#000000;stroke-width:0.3;" y1="-31.36" y2="-31.36"/>
  <line x2="35.189" x1="40.922" style="fill:none;stroke:#000000;stroke-width:0.3;" y1="-31.36" y2="-31.36"/>
  <line x2="48.712" x1="43.215" style="fill:none;stroke:#000000;stroke-width:0.3;" y1="-31.36" y2="-31.36"/>
  <line x2="0" x1="0.373" style="fill:none;stroke:#000000;stroke-width:0.3;" y1="-14.411" y2="-14.411"/>
  <line x2="8.428" x1="2.695" style="fill:none;stroke:#000000;stroke-width:0.3;" y1="-14.411" y2="-14.411"/>
  <line x2="16.452" x1="10.721" style="fill:none;stroke:#000000;stroke-width:0.3;" y1="-14.411" y2="-14.411"/>
  <line x2="24.478" x1="18.745" style="fill:none;stroke:#000000;stroke-width:0.3;" y1="-14.411" y2="-14.411"/>
  <line x2="32.502" x1="26.771" style="fill:none;stroke:#000000;stroke-width:0.3;" y1="-14.411" y2="-14.411"/>
  <line x2="40.527" x1="34.795" style="fill:none;stroke:#000000;stroke-width:0.3;" y1="-14.411" y2="-14.411"/>
  <line x2="48.697" x1="42.82" style="fill:none;stroke:#000000;stroke-width:0.3;" y1="-14.411" y2="-14.411"/>
  <line x2="0" x1="3.52" style="fill:none;stroke:#000000;stroke-width:0.3;" y1="-10.865" y2="-10.865"/>
  <line x2="5.812" x1="11.545" style="fill:none;stroke:#000000;stroke-width:0.3;" y1="-10.865" y2="-10.865"/>
  <line x2="13.838" x1="19.569" style="fill:none;stroke:#000000;stroke-width:0.3;" y1="-10.865" y2="-10.865"/>
  <line x2="27.595" x1="21.862" style="fill:none;stroke:#000000;stroke-width:0.3;" y1="-10.865" y2="-10.865"/>
  <line x2="35.619" x1="29.888" style="fill:none;stroke:#000000;stroke-width:0.3;" y1="-10.865" y2="-10.865"/>
  <line x2="37.912" x1="43.645" style="fill:none;stroke:#000000;stroke-width:0.3;" y1="-10.865" y2="-10.865"/>
  <line x2="48.712" x1="45.938" style="fill:none;stroke:#000000;stroke-width:0.3;" y1="-10.865" y2="-10.865"/>
  <line x2="0" x1="0.768" style="fill:none;stroke:#000000;stroke-width:0.3;" y1="-6.994" y2="-6.994"/>
  <line x2="3.09" x1="8.822" style="fill:none;stroke:#000000;stroke-width:0.3;" y1="-6.994" y2="-6.994"/>
  <line x2="11.115" x1="16.847" style="fill:none;stroke:#000000;stroke-width:0.3;" y1="-6.994" y2="-6.994"/>
  <line x2="24.872" x1="19.14" style="fill:none;stroke:#000000;stroke-width:0.3;" y1="-6.994" y2="-6.994"/>
  <line x2="27.165" x1="32.896" style="fill:none;stroke:#000000;stroke-width:0.3;" y1="-6.994" y2="-6.994"/>
  <line x2="35.189" x1="40.922" style="fill:none;stroke:#000000;stroke-width:0.3;" y1="-6.994" y2="-6.994"/>
  <line x2="48.712" x1="43.215" style="fill:none;stroke:#000000;stroke-width:0.3;" y1="-6.994" y2="-6.994"/>
  <line x2="16.808" x1="24.728" style="fill:none;stroke:#000000;stroke-width:0.3;" y1="-45.337" y2="-45.337"/>
  <line x2="16.808" x1="11.34" style="fill:none;stroke:#000000;stroke-width:0.3;" y1="-45.337" y2="-45.337"/>
  <line x2="5.332" x1="0" style="fill:none;stroke:#000000;stroke-width:0.3;" y1="-45.337" y2="-45.337"/>
  <line x2="5.332" x1="11.34" style="fill:none;stroke:#000000;stroke-width:0.3;" y1="-45.337" y2="-45.337"/>
  <line x2="36.989" x1="41.895" style="fill:none;stroke:#000000;stroke-width:0.3;" y1="-45.337" y2="-45.337"/>
  <line x2="24.728" x1="28.957" style="fill:none;stroke:#000000;stroke-width:0.3;" y1="-45.337" y2="-45.337"/>
  <line x2="48.712" x1="48.532" style="fill:none;stroke:#000000;stroke-width:0.3;" y1="-45.337" y2="-45.337"/>
  <line x2="36.989" x1="28.957" style="fill:none;stroke:#000000;stroke-width:0.3;" y1="-45.337" y2="-45.337"/>
  <line x2="41.895" x1="48.532" style="fill:none;stroke:#000000;stroke-width:0.3;" y1="-45.337" y2="-45.337"/>
  <line x2="0" x1="48.712" style="fill:none;stroke:#000000;stroke-width:0.3;" y1="-41.58" y2="-41.58"/>
  <line x2="48.712" x1="43.796" style="fill:none;stroke:#000000;stroke-width:0.3;" y1="-28.159" y2="-28.159"/>
  <line x2="30.408" x1="43.796" style="fill:none;stroke:#000000;stroke-width:0.3;" y1="-28.159" y2="-28.159"/>
  <line x2="0" x1="5.996" style="fill:none;stroke:#000000;stroke-width:0.3;" y1="-28.159" y2="-28.159"/>
  <line x2="5.996" x1="18.146" style="fill:none;stroke:#000000;stroke-width:0.3;" y1="-28.159" y2="-28.159"/>
  <line x2="30.408" x1="18.146" style="fill:none;stroke:#000000;stroke-width:0.3;" y1="-28.159" y2="-28.159"/>
  <line x2="0" x1="48.712" style="fill:none;stroke:#000000;stroke-width:0.3;" y1="-24.514" y2="-24.514"/>
  <line x2="0" x1="48.712" style="fill:none;stroke:#000000;stroke-width:0.3;" y1="-21.094" y2="-21.094"/>
  <line x2="0" x1="48.712" style="fill:none;stroke:#000000;stroke-width:0.3;" y1="-17.314" y2="-17.314"/>
  <line x2="34.522" x1="28.957" style="fill:none;stroke:#000000;stroke-width:0.3;" y1="-0.754" y2="-0.754"/>
  <line x2="0" x1="5.332" style="fill:none;stroke:#000000;stroke-width:0.3;" y1="-0.754" y2="-0.754"/>
  <line x2="46.56" x1="41.895" style="fill:none;stroke:#000000;stroke-width:0.3;" y1="-0.754" y2="-0.754"/>
  <line x2="34.522" x1="41.895" style="fill:none;stroke:#000000;stroke-width:0.3;" y1="-0.754" y2="-0.754"/>
  <line x2="48.712" x1="46.56" style="fill:none;stroke:#000000;stroke-width:0.3;" y1="-0.754" y2="-0.754"/>
  <line x2="28.957" x1="22.26" style="fill:none;stroke:#000000;stroke-width:0.3;" y1="-0.754" y2="-0.754"/>
  <line x2="16.808" x1="9.267" style="fill:none;stroke:#000000;stroke-width:0.3;" y1="-0.754" y2="-0.754"/>
  <line x2="9.267" x1="5.332" style="fill:none;stroke:#000000;stroke-width:0.3;" y1="-0.754" y2="-0.754"/>
  <line x2="22.26" x1="16.808" style="fill:none;stroke:#000000;stroke-width:0.3;" y1="-0.754" y2="-0.754"/>
  <line x2="5.332" x1="5.332" style="fill:none;stroke:#000000;stroke-width:0.3;" y1="-48.712" y2="-45.337"/>
  <line x2="16.808" x1="16.808" style="fill:none;stroke:#000000;stroke-width:0.3;" y1="-48.712" y2="-45.337"/>
  <line x2="28.957" x1="28.957" style="fill:none;stroke:#000000;stroke-width:0.3;" y1="-45.337" y2="-48.712"/>
  <line x2="41.895" x1="41.895" style="fill:none;stroke:#000000;stroke-width:0.3;" y1="-48.712" y2="-45.337"/>
  <line x2="5.332" x1="5.332" style="fill:none;stroke:#000000;stroke-width:0.3;" y1="-0.754" y2="-0.765"/>
  <line x2="5.332" x1="5.332" style="fill:none;stroke:#000000;stroke-width:0.3;" y1="-0.754" y2="-0.001"/>
  <line x2="16.808" x1="16.808" style="fill:none;stroke:#000000;stroke-width:0.3;" y1="-0.765" y2="-0.754"/>
  <line x2="16.808" x1="16.808" style="fill:none;stroke:#000000;stroke-width:0.3;" y1="-0.001" y2="-0.754"/>
  <line x2="28.957" x1="28.957" style="fill:none;stroke:#000000;stroke-width:0.3;" y1="-0.754" y2="-0.765"/>
  <line x2="28.957" x1="28.957" style="fill:none;stroke:#000000;stroke-width:0.3;" y1="-0.001" y2="-0.754"/>
  <line x2="41.895" x1="41.895" style="fill:none;stroke:#000000;stroke-width:0.3;" y1="-0.754" y2="-0.765"/>
  <line x2="41.895" x1="41.895" style="fill:none;stroke:#000000;stroke-width:0.3;" y1="-0.754" y2="-0.001"/>
  <line x2="11.34" x1="11.34" style="fill:none;stroke:#000000;stroke-width:0.3;" y1="-45.337" y2="-41.591"/>
  <line x2="11.34" x1="11.34" style="fill:none;stroke:#000000;stroke-width:0.3;" y1="-45.337" y2="-45.394"/>
  <line x2="24.728" x1="24.728" style="fill:none;stroke:#000000;stroke-width:0.3;" y1="-45.394" y2="-45.337"/>
  <line x2="24.728" x1="24.728" style="fill:none;stroke:#000000;stroke-width:0.3;" y1="-45.337" y2="-41.591"/>
  <line x2="36.989" x1="36.989" style="fill:none;stroke:#000000;stroke-width:0.3;" y1="-45.394" y2="-45.337"/>
  <line x2="36.989" x1="36.989" style="fill:none;stroke:#000000;stroke-width:0.3;" y1="-41.591" y2="-45.337"/>
  <line x2="48.532" x1="48.532" style="fill:none;stroke:#000000;stroke-width:0.3;" y1="-45.337" y2="-41.591"/>
  <line x2="5.996" x1="5.996" style="fill:none;stroke:#000000;stroke-width:0.3;" y1="-28.159" y2="-28.17"/>
  <line x2="5.996" x1="5.996" style="fill:none;stroke:#000000;stroke-width:0.3;" y1="-28.159" y2="-24.525"/>
  <line x2="18.146" x1="18.146" style="fill:none;stroke:#000000;stroke-width:0.3;" y1="-28.159" y2="-24.525"/>
  <line x2="18.146" x1="18.146" style="fill:none;stroke:#000000;stroke-width:0.3;" y1="-28.17" y2="-28.159"/>
  <line x2="30.408" x1="30.408" style="fill:none;stroke:#000000;stroke-width:0.3;" y1="-24.525" y2="-28.159"/>
  <line x2="30.408" x1="30.408" style="fill:none;stroke:#000000;stroke-width:0.3;" y1="-28.17" y2="-28.159"/>
  <line x2="43.796" x1="43.796" style="fill:none;stroke:#000000;stroke-width:0.3;" y1="-28.159" y2="-24.525"/>
  <line x2="43.796" x1="43.796" style="fill:none;stroke:#000000;stroke-width:0.3;" y1="-28.17" y2="-28.159"/>
  <line x2="36.033" x1="36.033" style="fill:none;stroke:#000000;stroke-width:0.3;" y1="-21.105" y2="-24.469"/>
  <line x2="24.041" x1="24.041" style="fill:none;stroke:#000000;stroke-width:0.3;" y1="-21.105" y2="-24.469"/>
  <line x2="10.541" x1="10.541" style="fill:none;stroke:#000000;stroke-width:0.3;" y1="-24.469" y2="-21.105"/>
  <line x2="47.939" x1="47.939" style="fill:none;stroke:#000000;stroke-width:0.3;" y1="-21.105" y2="-24.469"/>
  <line x2="4.973" x1="4.973" style="fill:none;stroke:#000000;stroke-width:0.3;" y1="-21.049" y2="-17.325"/>
  <line x2="16.673" x1="16.673" style="fill:none;stroke:#000000;stroke-width:0.3;" y1="-17.325" y2="-21.049"/>
  <line x2="28.935" x1="28.935" style="fill:none;stroke:#000000;stroke-width:0.3;" y1="-17.325" y2="-21.049"/>
  <line x2="41.76" x1="41.76" style="fill:none;stroke:#000000;stroke-width:0.3;" y1="-17.325" y2="-21.049"/>
  <line x2="34.522" x1="46.56" style="fill:none;stroke:#000000;stroke-width:0.3;" y1="-3.792" y2="-3.792"/>
  <line x2="34.522" x1="22.26" style="fill:none;stroke:#000000;stroke-width:0.3;" y1="-3.792" y2="-3.792"/>
  <line x2="22.26" x1="9.267" style="fill:none;stroke:#000000;stroke-width:0.3;" y1="-3.792" y2="-3.792"/>
  <line x2="0" x1="9.267" style="fill:none;stroke:#000000;stroke-width:0.3;" y1="-3.792" y2="-3.792"/>
  <line x2="48.712" x1="46.56" style="fill:none;stroke:#000000;stroke-width:0.3;" y1="-3.792" y2="-3.792"/>
  <line x2="9.267" x1="9.267" style="fill:none;stroke:#000000;stroke-width:0.3;" y1="-3.792" y2="-3.814"/>
  <line x2="9.267" x1="9.267" style="fill:none;stroke:#000000;stroke-width:0.3;" y1="-3.792" y2="-0.754"/>
  <line x2="9.267" x1="9.267" style="fill:none;stroke:#000000;stroke-width:0.3;" y1="-0.697" y2="-0.754"/>
  <line x2="22.26" x1="22.26" style="fill:none;stroke:#000000;stroke-width:0.3;" y1="-3.814" y2="-3.792"/>
  <line x2="22.26" x1="22.26" style="fill:none;stroke:#000000;stroke-width:0.3;" y1="-3.792" y2="-0.754"/>
  <line x2="22.26" x1="22.26" style="fill:none;stroke:#000000;stroke-width:0.3;" y1="-0.697" y2="-0.754"/>
  <line x2="34.522" x1="34.522" style="fill:none;stroke:#000000;stroke-width:0.3;" y1="-0.754" y2="-0.697"/>
  <line x2="34.522" x1="34.522" style="fill:none;stroke:#000000;stroke-width:0.3;" y1="-3.814" y2="-3.792"/>
  <line x2="34.522" x1="34.522" style="fill:none;stroke:#000000;stroke-width:0.3;" y1="-0.754" y2="-3.792"/>
  <line x2="46.56" x1="46.56" style="fill:none;stroke:#000000;stroke-width:0.3;" y1="-3.792" y2="-3.814"/>
  <line x2="46.56" x1="46.56" style="fill:none;stroke:#000000;stroke-width:0.3;" y1="-3.792" y2="-0.754"/>
  <line x2="46.56" x1="46.56" style="fill:none;stroke:#000000;stroke-width:0.3;" y1="-0.697" y2="-0.754"/>
 </g>
</svg>
