<?xml version="1.0"?>
<!-- Converted with SVG Converter - Version 0.9.6 (Compiled Thu Aug 31 10:01:05 2017) - Copyright (C) 2011 Nokia -->
<svg xmlns="http://www.w3.org/2000/svg" xmlns:xlink="http://www.w3.org/1999/xlink" baseProfile="tiny" x="0px" viewBox="0 -48.712 48.712 48.712" xml:space="preserve" y="0px" width="48.712" version="1.1" height="48.712">
 <g>
  <rect style="fill:none;" x="0" y="-48.712" width="48.712" height="48.712"/>
  <line x1="0.373" x2="0" style="fill:none;stroke:#000000;stroke-width:0.3;" y1="-38.369" y2="-38.369"/>
  <line x1="2.695" x2="8.428" style="fill:none;stroke:#000000;stroke-width:0.3;" y1="-38.369" y2="-38.369"/>
  <line x1="10.721" x2="16.452" style="fill:none;stroke:#000000;stroke-width:0.3;" y1="-38.369" y2="-38.369"/>
  <line x1="18.745" x2="24.478" style="fill:none;stroke:#000000;stroke-width:0.3;" y1="-38.369" y2="-38.369"/>
  <line x1="26.771" x2="32.502" style="fill:none;stroke:#000000;stroke-width:0.3;" y1="-38.369" y2="-38.369"/>
  <line x1="34.795" x2="40.527" style="fill:none;stroke:#000000;stroke-width:0.3;" y1="-38.369" y2="-38.369"/>
  <line x1="42.82" x2="48.697" style="fill:none;stroke:#000000;stroke-width:0.3;" y1="-38.369" y2="-38.369"/>
  <line x1="3.52" x2="0" style="fill:none;stroke:#000000;stroke-width:0.3;" y1="-34.568" y2="-34.568"/>
  <line x1="11.545" x2="5.812" style="fill:none;stroke:#000000;stroke-width:0.3;" y1="-34.568" y2="-34.568"/>
  <line x1="13.838" x2="19.569" style="fill:none;stroke:#000000;stroke-width:0.3;" y1="-34.568" y2="-34.568"/>
  <line x1="21.862" x2="27.595" style="fill:none;stroke:#000000;stroke-width:0.3;" y1="-34.568" y2="-34.568"/>
  <line x1="35.619" x2="29.888" style="fill:none;stroke:#000000;stroke-width:0.3;" y1="-34.568" y2="-34.568"/>
  <line x1="43.645" x2="37.912" style="fill:none;stroke:#000000;stroke-width:0.3;" y1="-34.568" y2="-34.568"/>
  <line x1="48.712" x2="45.938" style="fill:none;stroke:#000000;stroke-width:0.3;" y1="-34.568" y2="-34.568"/>
  <line x1="0" x2="0.768" style="fill:none;stroke:#000000;stroke-width:0.3;" y1="-31.36" y2="-31.36"/>
  <line x1="8.822" x2="3.09" style="fill:none;stroke:#000000;stroke-width:0.3;" y1="-31.36" y2="-31.36"/>
  <line x1="16.847" x2="11.115" style="fill:none;stroke:#000000;stroke-width:0.3;" y1="-31.36" y2="-31.36"/>
  <line x1="24.872" x2="19.14" style="fill:none;stroke:#000000;stroke-width:0.3;" y1="-31.36" y2="-31.36"/>
  <line x1="32.896" x2="27.165" style="fill:none;stroke:#000000;stroke-width:0.3;" y1="-31.36" y2="-31.36"/>
  <line x1="40.922" x2="35.189" style="fill:none;stroke:#000000;stroke-width:0.3;" y1="-31.36" y2="-31.36"/>
  <line x1="43.215" x2="48.712" style="fill:none;stroke:#000000;stroke-width:0.3;" y1="-31.36" y2="-31.36"/>
  <line x1="0.373" x2="0" style="fill:none;stroke:#000000;stroke-width:0.3;" y1="-14.411" y2="-14.411"/>
  <line x1="2.695" x2="8.428" style="fill:none;stroke:#000000;stroke-width:0.3;" y1="-14.411" y2="-14.411"/>
  <line x1="10.721" x2="16.452" style="fill:none;stroke:#000000;stroke-width:0.3;" y1="-14.411" y2="-14.411"/>
  <line x1="18.745" x2="24.478" style="fill:none;stroke:#000000;stroke-width:0.3;" y1="-14.411" y2="-14.411"/>
  <line x1="26.771" x2="32.502" style="fill:none;stroke:#000000;stroke-width:0.3;" y1="-14.411" y2="-14.411"/>
  <line x1="34.795" x2="40.527" style="fill:none;stroke:#000000;stroke-width:0.3;" y1="-14.411" y2="-14.411"/>
  <line x1="42.82" x2="48.697" style="fill:none;stroke:#000000;stroke-width:0.3;" y1="-14.411" y2="-14.411"/>
  <line x1="3.52" x2="0" style="fill:none;stroke:#000000;stroke-width:0.3;" y1="-10.865" y2="-10.865"/>
  <line x1="11.545" x2="5.812" style="fill:none;stroke:#000000;stroke-width:0.3;" y1="-10.865" y2="-10.865"/>
  <line x1="19.569" x2="13.838" style="fill:none;stroke:#000000;stroke-width:0.3;" y1="-10.865" y2="-10.865"/>
  <line x1="21.862" x2="27.595" style="fill:none;stroke:#000000;stroke-width:0.3;" y1="-10.865" y2="-10.865"/>
  <line x1="29.888" x2="35.619" style="fill:none;stroke:#000000;stroke-width:0.3;" y1="-10.865" y2="-10.865"/>
  <line x1="43.645" x2="37.912" style="fill:none;stroke:#000000;stroke-width:0.3;" y1="-10.865" y2="-10.865"/>
  <line x1="45.938" x2="48.712" style="fill:none;stroke:#000000;stroke-width:0.3;" y1="-10.865" y2="-10.865"/>
  <line x1="0.768" x2="0" style="fill:none;stroke:#000000;stroke-width:0.3;" y1="-6.994" y2="-6.994"/>
  <line x1="8.822" x2="3.09" style="fill:none;stroke:#000000;stroke-width:0.3;" y1="-6.994" y2="-6.994"/>
  <line x1="16.847" x2="11.115" style="fill:none;stroke:#000000;stroke-width:0.3;" y1="-6.994" y2="-6.994"/>
  <line x1="19.14" x2="24.872" style="fill:none;stroke:#000000;stroke-width:0.3;" y1="-6.994" y2="-6.994"/>
  <line x1="32.896" x2="27.165" style="fill:none;stroke:#000000;stroke-width:0.3;" y1="-6.994" y2="-6.994"/>
  <line x1="40.922" x2="35.189" style="fill:none;stroke:#000000;stroke-width:0.3;" y1="-6.994" y2="-6.994"/>
  <line x1="43.215" x2="48.712" style="fill:none;stroke:#000000;stroke-width:0.3;" y1="-6.994" y2="-6.994"/>
  <line x1="24.728" x2="16.808" style="fill:none;stroke:#000000;stroke-width:0.3;" y1="-45.337" y2="-45.337"/>
  <line x1="11.34" x2="16.808" style="fill:none;stroke:#000000;stroke-width:0.3;" y1="-45.337" y2="-45.337"/>
  <line x1="0" x2="5.332" style="fill:none;stroke:#000000;stroke-width:0.3;" y1="-45.337" y2="-45.337"/>
  <line x1="11.34" x2="5.332" style="fill:none;stroke:#000000;stroke-width:0.3;" y1="-45.337" y2="-45.337"/>
  <line x1="41.895" x2="36.989" style="fill:none;stroke:#000000;stroke-width:0.3;" y1="-45.337" y2="-45.337"/>
  <line x1="28.957" x2="24.728" style="fill:none;stroke:#000000;stroke-width:0.3;" y1="-45.337" y2="-45.337"/>
  <line x1="48.532" x2="48.712" style="fill:none;stroke:#000000;stroke-width:0.3;" y1="-45.337" y2="-45.337"/>
  <line x1="28.957" x2="36.989" style="fill:none;stroke:#000000;stroke-width:0.3;" y1="-45.337" y2="-45.337"/>
  <line x1="48.532" x2="41.895" style="fill:none;stroke:#000000;stroke-width:0.3;" y1="-45.337" y2="-45.337"/>
  <line x1="48.712" x2="0" style="fill:none;stroke:#000000;stroke-width:0.3;" y1="-41.58" y2="-41.58"/>
  <line x1="43.796" x2="48.712" style="fill:none;stroke:#000000;stroke-width:0.3;" y1="-28.159" y2="-28.159"/>
  <line x1="43.796" x2="30.408" style="fill:none;stroke:#000000;stroke-width:0.3;" y1="-28.159" y2="-28.159"/>
  <line x1="5.996" x2="0" style="fill:none;stroke:#000000;stroke-width:0.3;" y1="-28.159" y2="-28.159"/>
  <line x1="18.146" x2="5.996" style="fill:none;stroke:#000000;stroke-width:0.3;" y1="-28.159" y2="-28.159"/>
  <line x1="18.146" x2="30.408" style="fill:none;stroke:#000000;stroke-width:0.3;" y1="-28.159" y2="-28.159"/>
  <line x1="48.712" x2="0" style="fill:none;stroke:#000000;stroke-width:0.3;" y1="-24.514" y2="-24.514"/>
  <line x1="48.712" x2="0" style="fill:none;stroke:#000000;stroke-width:0.3;" y1="-21.094" y2="-21.094"/>
  <line x1="48.712" x2="0" style="fill:none;stroke:#000000;stroke-width:0.3;" y1="-17.314" y2="-17.314"/>
  <line x1="28.957" x2="34.522" style="fill:none;stroke:#000000;stroke-width:0.3;" y1="-0.754" y2="-0.754"/>
  <line x1="5.332" x2="0" style="fill:none;stroke:#000000;stroke-width:0.3;" y1="-0.754" y2="-0.754"/>
  <line x1="41.895" x2="46.56" style="fill:none;stroke:#000000;stroke-width:0.3;" y1="-0.754" y2="-0.754"/>
  <line x1="41.895" x2="34.522" style="fill:none;stroke:#000000;stroke-width:0.3;" y1="-0.754" y2="-0.754"/>
  <line x1="46.56" x2="48.712" style="fill:none;stroke:#000000;stroke-width:0.3;" y1="-0.754" y2="-0.754"/>
  <line x1="22.26" x2="28.957" style="fill:none;stroke:#000000;stroke-width:0.3;" y1="-0.754" y2="-0.754"/>
  <line x1="9.267" x2="16.808" style="fill:none;stroke:#000000;stroke-width:0.3;" y1="-0.754" y2="-0.754"/>
  <line x1="5.332" x2="9.267" style="fill:none;stroke:#000000;stroke-width:0.3;" y1="-0.754" y2="-0.754"/>
  <line x1="16.808" x2="22.26" style="fill:none;stroke:#000000;stroke-width:0.3;" y1="-0.754" y2="-0.754"/>
  <line x1="5.332" x2="5.332" style="fill:none;stroke:#000000;stroke-width:0.3;" y1="-48.712" y2="-45.337"/>
  <line x1="16.808" x2="16.808" style="fill:none;stroke:#000000;stroke-width:0.3;" y1="-48.712" y2="-45.337"/>
  <line x1="28.957" x2="28.957" style="fill:none;stroke:#000000;stroke-width:0.3;" y1="-45.337" y2="-48.712"/>
  <line x1="41.895" x2="41.895" style="fill:none;stroke:#000000;stroke-width:0.3;" y1="-48.712" y2="-45.337"/>
  <line x1="5.332" x2="5.332" style="fill:none;stroke:#000000;stroke-width:0.3;" y1="-0.754" y2="-0.765"/>
  <line x1="5.332" x2="5.332" style="fill:none;stroke:#000000;stroke-width:0.3;" y1="-0.754" y2="-0.001"/>
  <line x1="16.808" x2="16.808" style="fill:none;stroke:#000000;stroke-width:0.3;" y1="-0.765" y2="-0.754"/>
  <line x1="16.808" x2="16.808" style="fill:none;stroke:#000000;stroke-width:0.3;" y1="-0.001" y2="-0.754"/>
  <line x1="28.957" x2="28.957" style="fill:none;stroke:#000000;stroke-width:0.3;" y1="-0.754" y2="-0.765"/>
  <line x1="28.957" x2="28.957" style="fill:none;stroke:#000000;stroke-width:0.3;" y1="-0.001" y2="-0.754"/>
  <line x1="41.895" x2="41.895" style="fill:none;stroke:#000000;stroke-width:0.3;" y1="-0.754" y2="-0.765"/>
  <line x1="41.895" x2="41.895" style="fill:none;stroke:#000000;stroke-width:0.3;" y1="-0.754" y2="-0.001"/>
  <line x1="11.34" x2="11.34" style="fill:none;stroke:#000000;stroke-width:0.3;" y1="-45.337" y2="-41.591"/>
  <line x1="11.34" x2="11.34" style="fill:none;stroke:#000000;stroke-width:0.3;" y1="-45.337" y2="-45.394"/>
  <line x1="24.728" x2="24.728" style="fill:none;stroke:#000000;stroke-width:0.3;" y1="-45.394" y2="-45.337"/>
  <line x1="24.728" x2="24.728" style="fill:none;stroke:#000000;stroke-width:0.3;" y1="-45.337" y2="-41.591"/>
  <line x1="36.989" x2="36.989" style="fill:none;stroke:#000000;stroke-width:0.3;" y1="-45.394" y2="-45.337"/>
  <line x1="36.989" x2="36.989" style="fill:none;stroke:#000000;stroke-width:0.3;" y1="-41.591" y2="-45.337"/>
  <line x1="48.532" x2="48.532" style="fill:none;stroke:#000000;stroke-width:0.3;" y1="-45.337" y2="-41.591"/>
  <line x1="5.996" x2="5.996" style="fill:none;stroke:#000000;stroke-width:0.3;" y1="-28.159" y2="-28.17"/>
  <line x1="5.996" x2="5.996" style="fill:none;stroke:#000000;stroke-width:0.3;" y1="-28.159" y2="-24.525"/>
  <line x1="18.146" x2="18.146" style="fill:none;stroke:#000000;stroke-width:0.3;" y1="-28.159" y2="-24.525"/>
  <line x1="18.146" x2="18.146" style="fill:none;stroke:#000000;stroke-width:0.3;" y1="-28.17" y2="-28.159"/>
  <line x1="30.408" x2="30.408" style="fill:none;stroke:#000000;stroke-width:0.3;" y1="-24.525" y2="-28.159"/>
  <line x1="30.408" x2="30.408" style="fill:none;stroke:#000000;stroke-width:0.3;" y1="-28.17" y2="-28.159"/>
  <line x1="43.796" x2="43.796" style="fill:none;stroke:#000000;stroke-width:0.3;" y1="-28.159" y2="-24.525"/>
  <line x1="43.796" x2="43.796" style="fill:none;stroke:#000000;stroke-width:0.3;" y1="-28.17" y2="-28.159"/>
  <line x1="36.033" x2="36.033" style="fill:none;stroke:#000000;stroke-width:0.3;" y1="-21.105" y2="-24.469"/>
  <line x1="24.041" x2="24.041" style="fill:none;stroke:#000000;stroke-width:0.3;" y1="-21.105" y2="-24.469"/>
  <line x1="10.541" x2="10.541" style="fill:none;stroke:#000000;stroke-width:0.3;" y1="-24.469" y2="-21.105"/>
  <line x1="47.939" x2="47.939" style="fill:none;stroke:#000000;stroke-width:0.3;" y1="-21.105" y2="-24.469"/>
  <line x1="4.973" x2="4.973" style="fill:none;stroke:#000000;stroke-width:0.3;" y1="-21.049" y2="-17.325"/>
  <line x1="16.673" x2="16.673" style="fill:none;stroke:#000000;stroke-width:0.3;" y1="-17.325" y2="-21.049"/>
  <line x1="28.935" x2="28.935" style="fill:none;stroke:#000000;stroke-width:0.3;" y1="-17.325" y2="-21.049"/>
  <line x1="41.76" x2="41.76" style="fill:none;stroke:#000000;stroke-width:0.3;" y1="-17.325" y2="-21.049"/>
  <line x1="46.56" x2="34.522" style="fill:none;stroke:#000000;stroke-width:0.3;" y1="-3.792" y2="-3.792"/>
  <line x1="22.26" x2="34.522" style="fill:none;stroke:#000000;stroke-width:0.3;" y1="-3.792" y2="-3.792"/>
  <line x1="9.267" x2="22.26" style="fill:none;stroke:#000000;stroke-width:0.3;" y1="-3.792" y2="-3.792"/>
  <line x1="9.267" x2="0" style="fill:none;stroke:#000000;stroke-width:0.3;" y1="-3.792" y2="-3.792"/>
  <line x1="46.56" x2="48.712" style="fill:none;stroke:#000000;stroke-width:0.3;" y1="-3.792" y2="-3.792"/>
  <line x1="9.267" x2="9.267" style="fill:none;stroke:#000000;stroke-width:0.3;" y1="-3.792" y2="-3.814"/>
  <line x1="9.267" x2="9.267" style="fill:none;stroke:#000000;stroke-width:0.3;" y1="-3.792" y2="-0.754"/>
  <line x1="9.267" x2="9.267" style="fill:none;stroke:#000000;stroke-width:0.3;" y1="-0.697" y2="-0.754"/>
  <line x1="22.26" x2="22.26" style="fill:none;stroke:#000000;stroke-width:0.3;" y1="-3.814" y2="-3.792"/>
  <line x1="22.26" x2="22.26" style="fill:none;stroke:#000000;stroke-width:0.3;" y1="-3.792" y2="-0.754"/>
  <line x1="22.26" x2="22.26" style="fill:none;stroke:#000000;stroke-width:0.3;" y1="-0.697" y2="-0.754"/>
  <line x1="34.522" x2="34.522" style="fill:none;stroke:#000000;stroke-width:0.3;" y1="-0.754" y2="-0.697"/>
  <line x1="34.522" x2="34.522" style="fill:none;stroke:#000000;stroke-width:0.3;" y1="-3.814" y2="-3.792"/>
  <line x1="34.522" x2="34.522" style="fill:none;stroke:#000000;stroke-width:0.3;" y1="-0.754" y2="-3.792"/>
  <line x1="46.56" x2="46.56" style="fill:none;stroke:#000000;stroke-width:0.3;" y1="-3.792" y2="-3.814"/>
  <line x1="46.56" x2="46.56" style="fill:none;stroke:#000000;stroke-width:0.3;" y1="-3.792" y2="-0.754"/>
  <line x1="46.56" x2="46.56" style="fill:none;stroke:#000000;stroke-width:0.3;" y1="-0.697" y2="-0.754"/>
 </g>
</svg>
