<?xml version="1.0"?>
<!-- Converted with SVG Converter - Version 0.9.6 (Compiled Thu Aug 31 10:01:05 2017) - Copyright (C) 2011 Nokia -->
<svg xmlns="http://www.w3.org/2000/svg" xmlns:xlink="http://www.w3.org/1999/xlink" x="0px" y="0px" viewBox="0 -48.713 48.712 48.712" version="1.1" baseProfile="tiny" xml:space="preserve" width="48.712" height="48.712">
 <g>
  <rect x="0" style="fill:none;" y="-48.713" width="48.712" height="48.712"/>
  <line x1="3.52" x2="0" y1="-34.511" style="fill:none;stroke:#000000;stroke-width:0.3;" y2="-34.511"/>
  <line x1="5.812" x2="11.545" y1="-34.511" style="fill:none;stroke:#000000;stroke-width:0.3;" y2="-34.511"/>
  <line x1="13.838" x2="19.569" y1="-34.511" style="fill:none;stroke:#000000;stroke-width:0.3;" y2="-34.511"/>
  <line x1="21.862" x2="27.595" y1="-34.511" style="fill:none;stroke:#000000;stroke-width:0.3;" y2="-34.511"/>
  <line x1="29.888" x2="35.619" y1="-34.511" style="fill:none;stroke:#000000;stroke-width:0.3;" y2="-34.511"/>
  <line x1="37.912" x2="43.645" y1="-34.511" style="fill:none;stroke:#000000;stroke-width:0.3;" y2="-34.511"/>
  <line x1="48.712" x2="45.938" y1="-34.511" style="fill:none;stroke:#000000;stroke-width:0.3;" y2="-34.511"/>
  <line x1="0" x2="0.768" y1="-31.304" style="fill:none;stroke:#000000;stroke-width:0.3;" y2="-31.304"/>
  <line x1="8.822" x2="3.09" y1="-31.304" style="fill:none;stroke:#000000;stroke-width:0.3;" y2="-31.304"/>
  <line x1="16.847" x2="11.115" y1="-31.304" style="fill:none;stroke:#000000;stroke-width:0.3;" y2="-31.304"/>
  <line x1="24.872" x2="19.14" y1="-31.304" style="fill:none;stroke:#000000;stroke-width:0.3;" y2="-31.304"/>
  <line x1="32.896" x2="27.165" y1="-31.304" style="fill:none;stroke:#000000;stroke-width:0.3;" y2="-31.304"/>
  <line x1="40.922" x2="35.189" y1="-31.304" style="fill:none;stroke:#000000;stroke-width:0.3;" y2="-31.304"/>
  <line x1="43.215" x2="48.712" y1="-31.304" style="fill:none;stroke:#000000;stroke-width:0.3;" y2="-31.304"/>
  <line x1="0" x2="3.52" y1="-10.808" style="fill:none;stroke:#000000;stroke-width:0.3;" y2="-10.808"/>
  <line x1="5.812" x2="11.545" y1="-10.808" style="fill:none;stroke:#000000;stroke-width:0.3;" y2="-10.808"/>
  <line x1="13.838" x2="19.569" y1="-10.808" style="fill:none;stroke:#000000;stroke-width:0.3;" y2="-10.808"/>
  <line x1="21.862" x2="27.595" y1="-10.808" style="fill:none;stroke:#000000;stroke-width:0.3;" y2="-10.808"/>
  <line x1="29.888" x2="35.619" y1="-10.808" style="fill:none;stroke:#000000;stroke-width:0.3;" y2="-10.808"/>
  <line x1="37.912" x2="43.645" y1="-10.808" style="fill:none;stroke:#000000;stroke-width:0.3;" y2="-10.808"/>
  <line x1="45.938" x2="48.712" y1="-10.808" style="fill:none;stroke:#000000;stroke-width:0.3;" y2="-10.808"/>
  <line x1="0" x2="0.768" y1="-6.938" style="fill:none;stroke:#000000;stroke-width:0.3;" y2="-6.938"/>
  <line x1="8.822" x2="3.09" y1="-6.938" style="fill:none;stroke:#000000;stroke-width:0.3;" y2="-6.938"/>
  <line x1="16.847" x2="11.115" y1="-6.938" style="fill:none;stroke:#000000;stroke-width:0.3;" y2="-6.938"/>
  <line x1="19.14" x2="24.872" y1="-6.938" style="fill:none;stroke:#000000;stroke-width:0.3;" y2="-6.938"/>
  <line x1="32.896" x2="27.165" y1="-6.938" style="fill:none;stroke:#000000;stroke-width:0.3;" y2="-6.938"/>
  <line x1="40.922" x2="35.189" y1="-6.938" style="fill:none;stroke:#000000;stroke-width:0.3;" y2="-6.938"/>
  <line x1="43.215" x2="48.712" y1="-6.938" style="fill:none;stroke:#000000;stroke-width:0.3;" y2="-6.938"/>
  <line x1="48.532" x2="41.895" y1="-45.281" style="fill:none;stroke:#000000;stroke-width:0.3;" y2="-45.281"/>
  <line x1="0" x2="5.333" y1="-45.281" style="fill:none;stroke:#000000;stroke-width:0.3;" y2="-45.281"/>
  <line x1="41.895" x2="36.99" y1="-45.281" style="fill:none;stroke:#000000;stroke-width:0.3;" y2="-45.281"/>
  <line x1="48.532" x2="48.712" y1="-45.281" style="fill:none;stroke:#000000;stroke-width:0.3;" y2="-45.281"/>
  <line x1="24.728" x2="16.808" y1="-45.281" style="fill:none;stroke:#000000;stroke-width:0.3;" y2="-45.281"/>
  <line x1="28.957" x2="36.99" y1="-45.281" style="fill:none;stroke:#000000;stroke-width:0.3;" y2="-45.281"/>
  <line x1="28.957" x2="24.728" y1="-45.281" style="fill:none;stroke:#000000;stroke-width:0.3;" y2="-45.281"/>
  <line x1="11.34" x2="16.808" y1="-45.281" style="fill:none;stroke:#000000;stroke-width:0.3;" y2="-45.281"/>
  <line x1="11.34" x2="5.333" y1="-45.281" style="fill:none;stroke:#000000;stroke-width:0.3;" y2="-45.281"/>
  <line x1="48.712" x2="0" y1="-41.523" style="fill:none;stroke:#000000;stroke-width:0.3;" y2="-41.523"/>
  <line x1="18.146" x2="30.408" y1="-28.102" style="fill:none;stroke:#000000;stroke-width:0.3;" y2="-28.102"/>
  <line x1="43.796" x2="48.712" y1="-28.102" style="fill:none;stroke:#000000;stroke-width:0.3;" y2="-28.102"/>
  <line x1="43.796" x2="30.408" y1="-28.102" style="fill:none;stroke:#000000;stroke-width:0.3;" y2="-28.102"/>
  <line x1="18.146" x2="5.996" y1="-28.102" style="fill:none;stroke:#000000;stroke-width:0.3;" y2="-28.102"/>
  <line x1="5.996" x2="0" y1="-28.102" style="fill:none;stroke:#000000;stroke-width:0.3;" y2="-28.102"/>
  <line x1="48.712" x2="0" y1="-24.457" style="fill:none;stroke:#000000;stroke-width:0.3;" y2="-24.457"/>
  <line x1="48.712" x2="0" y1="-21.037" style="fill:none;stroke:#000000;stroke-width:0.3;" y2="-21.037"/>
  <line x1="48.712" x2="0" y1="-17.257" style="fill:none;stroke:#000000;stroke-width:0.3;" y2="-17.257"/>
  <line x1="9.267" x2="16.808" y1="-0.697" style="fill:none;stroke:#000000;stroke-width:0.3;" y2="-0.697"/>
  <line x1="28.957" x2="34.522" y1="-0.697" style="fill:none;stroke:#000000;stroke-width:0.3;" y2="-0.697"/>
  <line x1="41.895" x2="34.522" y1="-0.697" style="fill:none;stroke:#000000;stroke-width:0.3;" y2="-0.697"/>
  <line x1="46.56" x2="41.895" y1="-0.697" style="fill:none;stroke:#000000;stroke-width:0.3;" y2="-0.697"/>
  <line x1="46.56" x2="48.712" y1="-0.697" style="fill:none;stroke:#000000;stroke-width:0.3;" y2="-0.697"/>
  <line x1="22.26" x2="28.957" y1="-0.697" style="fill:none;stroke:#000000;stroke-width:0.3;" y2="-0.697"/>
  <line x1="9.267" x2="5.333" y1="-0.697" style="fill:none;stroke:#000000;stroke-width:0.3;" y2="-0.697"/>
  <line x1="16.808" x2="22.26" y1="-0.697" style="fill:none;stroke:#000000;stroke-width:0.3;" y2="-0.697"/>
  <line x1="0" x2="5.333" y1="-0.697" style="fill:none;stroke:#000000;stroke-width:0.3;" y2="-0.697"/>
  <line x1="5.333" x2="5.333" y1="-45.281" style="fill:none;stroke:#000000;stroke-width:0.3;" y2="-48.713"/>
  <line x1="16.808" x2="16.808" y1="-45.281" style="fill:none;stroke:#000000;stroke-width:0.3;" y2="-48.713"/>
  <line x1="28.957" x2="28.957" y1="-45.281" style="fill:none;stroke:#000000;stroke-width:0.3;" y2="-48.713"/>
  <line x1="41.895" x2="41.895" y1="-45.281" style="fill:none;stroke:#000000;stroke-width:0.3;" y2="-48.713"/>
  <line x1="5.333" x2="5.333" y1="-0.697" style="fill:none;stroke:#000000;stroke-width:0.3;" y2="-0.001"/>
  <line x1="5.333" x2="5.333" y1="-0.709" style="fill:none;stroke:#000000;stroke-width:0.3;" y2="-0.697"/>
  <line x1="16.808" x2="16.808" y1="-0.709" style="fill:none;stroke:#000000;stroke-width:0.3;" y2="-0.697"/>
  <line x1="16.808" x2="16.808" y1="-0.697" style="fill:none;stroke:#000000;stroke-width:0.3;" y2="-0.001"/>
  <line x1="28.957" x2="28.957" y1="-0.697" style="fill:none;stroke:#000000;stroke-width:0.3;" y2="-0.709"/>
  <line x1="28.957" x2="28.957" y1="-0.001" style="fill:none;stroke:#000000;stroke-width:0.3;" y2="-0.697"/>
  <line x1="41.895" x2="41.895" y1="-0.697" style="fill:none;stroke:#000000;stroke-width:0.3;" y2="-0.001"/>
  <line x1="41.895" x2="41.895" y1="-0.709" style="fill:none;stroke:#000000;stroke-width:0.3;" y2="-0.697"/>
  <line x1="11.34" x2="11.34" y1="-45.281" style="fill:none;stroke:#000000;stroke-width:0.3;" y2="-41.535"/>
  <line x1="11.34" x2="11.34" y1="-45.281" style="fill:none;stroke:#000000;stroke-width:0.3;" y2="-45.337"/>
  <line x1="24.728" x2="24.728" y1="-45.337" style="fill:none;stroke:#000000;stroke-width:0.3;" y2="-45.281"/>
  <line x1="24.728" x2="24.728" y1="-45.281" style="fill:none;stroke:#000000;stroke-width:0.3;" y2="-41.535"/>
  <line x1="36.99" x2="36.99" y1="-41.535" style="fill:none;stroke:#000000;stroke-width:0.3;" y2="-45.281"/>
  <line x1="36.99" x2="36.99" y1="-45.337" style="fill:none;stroke:#000000;stroke-width:0.3;" y2="-45.281"/>
  <line x1="48.532" x2="48.532" y1="-45.281" style="fill:none;stroke:#000000;stroke-width:0.3;" y2="-41.535"/>
  <line x1="5.996" x2="5.996" y1="-28.102" style="fill:none;stroke:#000000;stroke-width:0.3;" y2="-28.113"/>
  <line x1="5.996" x2="5.996" y1="-28.102" style="fill:none;stroke:#000000;stroke-width:0.3;" y2="-24.468"/>
  <line x1="18.146" x2="18.146" y1="-28.113" style="fill:none;stroke:#000000;stroke-width:0.3;" y2="-28.102"/>
  <line x1="18.146" x2="18.146" y1="-28.102" style="fill:none;stroke:#000000;stroke-width:0.3;" y2="-24.468"/>
  <line x1="30.408" x2="30.408" y1="-28.113" style="fill:none;stroke:#000000;stroke-width:0.3;" y2="-28.102"/>
  <line x1="30.408" x2="30.408" y1="-24.468" style="fill:none;stroke:#000000;stroke-width:0.3;" y2="-28.102"/>
  <line x1="43.796" x2="43.796" y1="-28.113" style="fill:none;stroke:#000000;stroke-width:0.3;" y2="-28.102"/>
  <line x1="43.796" x2="43.796" y1="-28.102" style="fill:none;stroke:#000000;stroke-width:0.3;" y2="-24.468"/>
  <line x1="48.712" x2="0" y1="-14.149" style="fill:none;stroke:#000000;stroke-width:0.3;" y2="-14.149"/>
  <line x1="8.548" x2="8.548" y1="-17.238" style="fill:none;stroke:#000000;stroke-width:0.3;" y2="-14.161"/>
  <line x1="20.697" x2="20.697" y1="-14.161" style="fill:none;stroke:#000000;stroke-width:0.3;" y2="-17.238"/>
  <line x1="32.96" x2="32.96" y1="-14.161" style="fill:none;stroke:#000000;stroke-width:0.3;" y2="-17.238"/>
  <line x1="46.348" x2="46.348" y1="-14.161" style="fill:none;stroke:#000000;stroke-width:0.3;" y2="-17.238"/>
  <line x1="36.033" x2="36.033" y1="-21.048" style="fill:none;stroke:#000000;stroke-width:0.3;" y2="-24.412"/>
  <line x1="24.041" x2="24.041" y1="-21.048" style="fill:none;stroke:#000000;stroke-width:0.3;" y2="-24.412"/>
  <line x1="10.541" x2="10.541" y1="-24.412" style="fill:none;stroke:#000000;stroke-width:0.3;" y2="-21.048"/>
  <line x1="47.939" x2="47.939" y1="-21.048" style="fill:none;stroke:#000000;stroke-width:0.3;" y2="-24.412"/>
  <line x1="48.712" x2="0" y1="-37.912" style="fill:none;stroke:#000000;stroke-width:0.3;" y2="-37.912"/>
  <line x1="27.925" x2="27.925" y1="-37.923" style="fill:none;stroke:#000000;stroke-width:0.3;" y2="-41.287"/>
  <line x1="15.933" x2="15.933" y1="-37.923" style="fill:none;stroke:#000000;stroke-width:0.3;" y2="-41.287"/>
  <line x1="2.433" x2="2.433" y1="-37.923" style="fill:none;stroke:#000000;stroke-width:0.3;" y2="-41.287"/>
  <line x1="39.831" x2="39.831" y1="-37.923" style="fill:none;stroke:#000000;stroke-width:0.3;" y2="-41.287"/>
  <line x1="4.973" x2="4.973" y1="-20.992" style="fill:none;stroke:#000000;stroke-width:0.3;" y2="-17.269"/>
  <line x1="16.673" x2="16.673" y1="-17.269" style="fill:none;stroke:#000000;stroke-width:0.3;" y2="-20.992"/>
  <line x1="28.935" x2="28.935" y1="-17.269" style="fill:none;stroke:#000000;stroke-width:0.3;" y2="-20.992"/>
  <line x1="41.76" x2="41.76" y1="-17.269" style="fill:none;stroke:#000000;stroke-width:0.3;" y2="-20.992"/>
  <line x1="46.56" x2="48.712" y1="-3.735" style="fill:none;stroke:#000000;stroke-width:0.3;" y2="-3.735"/>
  <line x1="46.56" x2="34.522" y1="-3.735" style="fill:none;stroke:#000000;stroke-width:0.3;" y2="-3.735"/>
  <line x1="9.267" x2="0" y1="-3.735" style="fill:none;stroke:#000000;stroke-width:0.3;" y2="-3.735"/>
  <line x1="22.26" x2="34.522" y1="-3.735" style="fill:none;stroke:#000000;stroke-width:0.3;" y2="-3.735"/>
  <line x1="9.267" x2="22.26" y1="-3.735" style="fill:none;stroke:#000000;stroke-width:0.3;" y2="-3.735"/>
  <line x1="9.267" x2="9.267" y1="-0.697" style="fill:none;stroke:#000000;stroke-width:0.3;" y2="-0.641"/>
  <line x1="9.267" x2="9.267" y1="-3.735" style="fill:none;stroke:#000000;stroke-width:0.3;" y2="-0.697"/>
  <line x1="9.267" x2="9.267" y1="-3.735" style="fill:none;stroke:#000000;stroke-width:0.3;" y2="-3.757"/>
  <line x1="22.26" x2="22.26" y1="-3.735" style="fill:none;stroke:#000000;stroke-width:0.3;" y2="-0.697"/>
  <line x1="22.26" x2="22.26" y1="-0.641" style="fill:none;stroke:#000000;stroke-width:0.3;" y2="-0.697"/>
  <line x1="22.26" x2="22.26" y1="-3.757" style="fill:none;stroke:#000000;stroke-width:0.3;" y2="-3.735"/>
  <line x1="34.522" x2="34.522" y1="-0.697" style="fill:none;stroke:#000000;stroke-width:0.3;" y2="-0.641"/>
  <line x1="34.522" x2="34.522" y1="-0.697" style="fill:none;stroke:#000000;stroke-width:0.3;" y2="-3.735"/>
  <line x1="34.522" x2="34.522" y1="-3.757" style="fill:none;stroke:#000000;stroke-width:0.3;" y2="-3.735"/>
  <line x1="46.56" x2="46.56" y1="-0.697" style="fill:none;stroke:#000000;stroke-width:0.3;" y2="-0.641"/>
  <line x1="46.56" x2="46.56" y1="-3.735" style="fill:none;stroke:#000000;stroke-width:0.3;" y2="-0.697"/>
  <line x1="46.56" x2="46.56" y1="-3.735" style="fill:none;stroke:#000000;stroke-width:0.3;" y2="-3.757"/>
 </g>
</svg>
