<?xml version="1.0"?>
<!-- Converted with SVG Converter - Version 0.9.5 (Compiled Fri Feb 21 09:53:38 2020) - Copyright (C) 2011 Nokia -->
<svg xmlns="http://www.w3.org/2000/svg" height="48.712" y="0px" xmlns:xlink="http://www.w3.org/1999/xlink" version="1.1" viewBox="0 -48.712 48.712 48.712" x="0px" xml:space="preserve" baseProfile="tiny" width="48.712">
 <g>
  <rect height="48.712" y="-48.712" x="0" style="fill:none;" width="48.712"/>
  <line y1="-38.369" y2="-38.369" x1="0.373" x2="0" style="fill:none;stroke:#000000;stroke-width:0.3;"/>
  <line y1="-38.369" y2="-38.369" x1="2.695" x2="3.837" style="fill:none;stroke:#000000;stroke-width:0.3;"/>
  <line y1="-38.369" y2="-38.369" x1="3.837" x2="8.428" style="fill:none;stroke:#000000;stroke-width:0.3;"/>
  <line y1="-38.369" y2="-38.369" x1="10.721" x2="16.452" style="fill:none;stroke:#000000;stroke-width:0.3;"/>
  <line y1="-38.369" y2="-38.369" x1="19.774" x2="24.478" style="fill:none;stroke:#000000;stroke-width:0.3;"/>
  <line y1="-38.369" y2="-38.369" x1="18.745" x2="19.774" style="fill:none;stroke:#000000;stroke-width:0.3;"/>
  <line y1="-38.369" y2="-38.369" x1="26.771" x2="32.502" style="fill:none;stroke:#000000;stroke-width:0.3;"/>
  <line y1="-38.369" y2="-38.369" x1="36.648" x2="41.15" style="fill:none;stroke:#000000;stroke-width:0.3;"/>
  <line y1="-38.369" y2="-38.369" x1="35.419" x2="36.648" style="fill:none;stroke:#000000;stroke-width:0.3;"/>
  <line y1="-38.369" y2="-38.369" x1="43.33" x2="48.712" style="fill:none;stroke:#000000;stroke-width:0.3;"/>
  <line y1="-34.568" y2="-34.568" x1="3.52" x2="0" style="fill:none;stroke:#000000;stroke-width:0.3;"/>
  <line y1="-34.568" y2="-34.568" x1="5.812" x2="11.545" style="fill:none;stroke:#000000;stroke-width:0.3;"/>
  <line y1="-34.568" y2="-34.568" x1="13.838" x2="19.569" style="fill:none;stroke:#000000;stroke-width:0.3;"/>
  <line y1="-34.568" y2="-34.568" x1="27.595" x2="21.862" style="fill:none;stroke:#000000;stroke-width:0.3;"/>
  <line y1="-34.568" y2="-34.568" x1="29.888" x2="35.619" style="fill:none;stroke:#000000;stroke-width:0.3;"/>
  <line y1="-34.568" y2="-34.568" x1="43.645" x2="37.912" style="fill:none;stroke:#000000;stroke-width:0.3;"/>
  <line y1="-34.568" y2="-34.568" x1="45.938" x2="48.712" style="fill:none;stroke:#000000;stroke-width:0.3;"/>
  <line y1="-31.36" y2="-31.36" x1="0" x2="0.768" style="fill:none;stroke:#000000;stroke-width:0.3;"/>
  <line y1="-31.36" y2="-31.36" x1="4.254" x2="8.822" style="fill:none;stroke:#000000;stroke-width:0.3;"/>
  <line y1="-31.36" y2="-31.36" x1="4.254" x2="3.09" style="fill:none;stroke:#000000;stroke-width:0.3;"/>
  <line y1="-31.36" y2="-31.36" x1="16.847" x2="11.115" style="fill:none;stroke:#000000;stroke-width:0.3;"/>
  <line y1="-31.36" y2="-31.36" x1="20.475" x2="19.14" style="fill:none;stroke:#000000;stroke-width:0.3;"/>
  <line y1="-31.36" y2="-31.36" x1="24.872" x2="20.475" style="fill:none;stroke:#000000;stroke-width:0.3;"/>
  <line y1="-31.36" y2="-31.36" x1="27.165" x2="32.896" style="fill:none;stroke:#000000;stroke-width:0.3;"/>
  <line y1="-31.36" y2="-31.36" x1="36.555" x2="35.189" style="fill:none;stroke:#000000;stroke-width:0.3;"/>
  <line y1="-31.36" y2="-31.36" x1="36.555" x2="40.922" style="fill:none;stroke:#000000;stroke-width:0.3;"/>
  <line y1="-31.36" y2="-31.36" x1="43.215" x2="48.712" style="fill:none;stroke:#000000;stroke-width:0.3;"/>
  <line y1="-45.337" y2="-45.337" x1="11.34" x2="16.808" style="fill:none;stroke:#000000;stroke-width:0.3;"/>
  <line y1="-45.337" y2="-45.337" x1="24.728" x2="16.808" style="fill:none;stroke:#000000;stroke-width:0.3;"/>
  <line y1="-45.337" y2="-45.337" x1="24.728" x2="28.957" style="fill:none;stroke:#000000;stroke-width:0.3;"/>
  <line y1="-45.337" y2="-45.337" x1="41.895" x2="48.532" style="fill:none;stroke:#000000;stroke-width:0.3;"/>
  <line y1="-45.337" y2="-45.337" x1="36.989" x2="28.957" style="fill:none;stroke:#000000;stroke-width:0.3;"/>
  <line y1="-45.337" y2="-45.337" x1="48.532" x2="48.712" style="fill:none;stroke:#000000;stroke-width:0.3;"/>
  <line y1="-45.337" y2="-45.337" x1="41.895" x2="36.989" style="fill:none;stroke:#000000;stroke-width:0.3;"/>
  <line y1="-45.337" y2="-45.337" x1="11.34" x2="5.332" style="fill:none;stroke:#000000;stroke-width:0.3;"/>
  <line y1="-45.337" y2="-45.337" x1="0" x2="5.332" style="fill:none;stroke:#000000;stroke-width:0.3;"/>
  <line y1="-41.58" y2="-41.58" x1="0" x2="48.712" style="fill:none;stroke:#000000;stroke-width:0.3;"/>
  <line y1="-28.159" y2="-28.159" x1="5.996" x2="18.146" style="fill:none;stroke:#000000;stroke-width:0.3;"/>
  <line y1="-28.159" y2="-28.159" x1="43.796" x2="30.408" style="fill:none;stroke:#000000;stroke-width:0.3;"/>
  <line y1="-28.159" y2="-28.159" x1="30.408" x2="18.146" style="fill:none;stroke:#000000;stroke-width:0.3;"/>
  <line y1="-28.159" y2="-28.159" x1="5.996" x2="0" style="fill:none;stroke:#000000;stroke-width:0.3;"/>
  <line y1="-28.159" y2="-28.159" x1="43.796" x2="48.712" style="fill:none;stroke:#000000;stroke-width:0.3;"/>
  <line y1="-24.514" y2="-24.514" x1="0" x2="48.712" style="fill:none;stroke:#000000;stroke-width:0.3;"/>
  <line y1="-21.094" y2="-21.094" x1="0" x2="48.712" style="fill:none;stroke:#000000;stroke-width:0.3;"/>
  <line y1="-17.314" y2="-17.314" x1="0" x2="48.712" style="fill:none;stroke:#000000;stroke-width:0.3;"/>
  <line y1="-0.754" y2="-0.754" x1="46.56" x2="41.895" style="fill:none;stroke:#000000;stroke-width:0.3;"/>
  <line y1="-0.754" y2="-0.754" x1="0" x2="5.332" style="fill:none;stroke:#000000;stroke-width:0.3;"/>
  <line y1="-0.754" y2="-0.754" x1="5.332" x2="9.267" style="fill:none;stroke:#000000;stroke-width:0.3;"/>
  <line y1="-0.754" y2="-0.754" x1="46.56" x2="48.712" style="fill:none;stroke:#000000;stroke-width:0.3;"/>
  <line y1="-0.754" y2="-0.754" x1="16.808" x2="9.267" style="fill:none;stroke:#000000;stroke-width:0.3;"/>
  <line y1="-0.754" y2="-0.754" x1="41.895" x2="34.522" style="fill:none;stroke:#000000;stroke-width:0.3;"/>
  <line y1="-0.754" y2="-0.754" x1="28.957" x2="34.522" style="fill:none;stroke:#000000;stroke-width:0.3;"/>
  <line y1="-0.754" y2="-0.754" x1="22.26" x2="28.957" style="fill:none;stroke:#000000;stroke-width:0.3;"/>
  <line y1="-0.754" y2="-0.754" x1="22.26" x2="16.808" style="fill:none;stroke:#000000;stroke-width:0.3;"/>
  <line y1="-48.712" y2="-45.337" x1="5.332" x2="5.332" style="fill:none;stroke:#000000;stroke-width:0.3;"/>
  <line y1="-48.712" y2="-45.337" x1="16.808" x2="16.808" style="fill:none;stroke:#000000;stroke-width:0.3;"/>
  <line y1="-48.712" y2="-45.337" x1="28.957" x2="28.957" style="fill:none;stroke:#000000;stroke-width:0.3;"/>
  <line y1="-45.337" y2="-48.712" x1="41.895" x2="41.895" style="fill:none;stroke:#000000;stroke-width:0.3;"/>
  <line y1="-0.765" y2="-0.754" x1="5.332" x2="5.332" style="fill:none;stroke:#000000;stroke-width:0.3;"/>
  <line y1="-0.001" y2="-0.754" x1="5.332" x2="5.332" style="fill:none;stroke:#000000;stroke-width:0.3;"/>
  <line y1="-0.765" y2="-0.754" x1="16.808" x2="16.808" style="fill:none;stroke:#000000;stroke-width:0.3;"/>
  <line y1="-0.001" y2="-0.754" x1="16.808" x2="16.808" style="fill:none;stroke:#000000;stroke-width:0.3;"/>
  <line y1="-0.001" y2="-0.754" x1="28.957" x2="28.957" style="fill:none;stroke:#000000;stroke-width:0.3;"/>
  <line y1="-0.765" y2="-0.754" x1="28.957" x2="28.957" style="fill:none;stroke:#000000;stroke-width:0.3;"/>
  <line y1="-0.001" y2="-0.754" x1="41.895" x2="41.895" style="fill:none;stroke:#000000;stroke-width:0.3;"/>
  <line y1="-0.765" y2="-0.754" x1="41.895" x2="41.895" style="fill:none;stroke:#000000;stroke-width:0.3;"/>
  <line y1="-45.337" y2="-41.591" x1="11.34" x2="11.34" style="fill:none;stroke:#000000;stroke-width:0.3;"/>
  <line y1="-45.337" y2="-45.394" x1="11.34" x2="11.34" style="fill:none;stroke:#000000;stroke-width:0.3;"/>
  <line y1="-45.337" y2="-41.591" x1="24.728" x2="24.728" style="fill:none;stroke:#000000;stroke-width:0.3;"/>
  <line y1="-45.337" y2="-45.394" x1="24.728" x2="24.728" style="fill:none;stroke:#000000;stroke-width:0.3;"/>
  <line y1="-45.337" y2="-41.591" x1="36.989" x2="36.989" style="fill:none;stroke:#000000;stroke-width:0.3;"/>
  <line y1="-45.394" y2="-45.337" x1="36.989" x2="36.989" style="fill:none;stroke:#000000;stroke-width:0.3;"/>
  <line y1="-41.591" y2="-45.337" x1="48.532" x2="48.532" style="fill:none;stroke:#000000;stroke-width:0.3;"/>
  <line y1="-28.159" y2="-24.525" x1="5.996" x2="5.996" style="fill:none;stroke:#000000;stroke-width:0.3;"/>
  <line y1="-28.17" y2="-28.159" x1="5.996" x2="5.996" style="fill:none;stroke:#000000;stroke-width:0.3;"/>
  <line y1="-28.17" y2="-28.159" x1="18.146" x2="18.146" style="fill:none;stroke:#000000;stroke-width:0.3;"/>
  <line y1="-24.525" y2="-28.159" x1="18.146" x2="18.146" style="fill:none;stroke:#000000;stroke-width:0.3;"/>
  <line y1="-28.17" y2="-28.159" x1="30.408" x2="30.408" style="fill:none;stroke:#000000;stroke-width:0.3;"/>
  <line y1="-28.159" y2="-24.525" x1="30.408" x2="30.408" style="fill:none;stroke:#000000;stroke-width:0.3;"/>
  <line y1="-28.159" y2="-24.525" x1="43.796" x2="43.796" style="fill:none;stroke:#000000;stroke-width:0.3;"/>
  <line y1="-28.159" y2="-28.17" x1="43.796" x2="43.796" style="fill:none;stroke:#000000;stroke-width:0.3;"/>
  <line y1="-24.469" y2="-21.105" x1="36.033" x2="36.033" style="fill:none;stroke:#000000;stroke-width:0.3;"/>
  <line y1="-24.469" y2="-21.105" x1="24.041" x2="24.041" style="fill:none;stroke:#000000;stroke-width:0.3;"/>
  <line y1="-24.469" y2="-21.105" x1="10.541" x2="10.541" style="fill:none;stroke:#000000;stroke-width:0.3;"/>
  <line y1="-24.469" y2="-21.105" x1="47.939" x2="47.939" style="fill:none;stroke:#000000;stroke-width:0.3;"/>
  <line y1="-21.049" y2="-17.325" x1="4.973" x2="4.973" style="fill:none;stroke:#000000;stroke-width:0.3;"/>
  <line y1="-21.049" y2="-17.325" x1="16.673" x2="16.673" style="fill:none;stroke:#000000;stroke-width:0.3;"/>
  <line y1="-21.049" y2="-17.325" x1="28.935" x2="28.935" style="fill:none;stroke:#000000;stroke-width:0.3;"/>
  <line y1="-17.325" y2="-21.049" x1="41.76" x2="41.76" style="fill:none;stroke:#000000;stroke-width:0.3;"/>
  <line y1="-3.792" y2="-3.792" x1="46.56" x2="34.522" style="fill:none;stroke:#000000;stroke-width:0.3;"/>
  <line y1="-3.792" y2="-3.792" x1="22.26" x2="9.267" style="fill:none;stroke:#000000;stroke-width:0.3;"/>
  <line y1="-3.792" y2="-3.792" x1="0" x2="9.267" style="fill:none;stroke:#000000;stroke-width:0.3;"/>
  <line y1="-3.792" y2="-3.792" x1="46.56" x2="48.712" style="fill:none;stroke:#000000;stroke-width:0.3;"/>
  <line y1="-3.792" y2="-3.792" x1="22.26" x2="34.522" style="fill:none;stroke:#000000;stroke-width:0.3;"/>
  <line y1="-0.697" y2="-0.754" x1="9.267" x2="9.267" style="fill:none;stroke:#000000;stroke-width:0.3;"/>
  <line y1="-3.792" y2="-0.754" x1="9.267" x2="9.267" style="fill:none;stroke:#000000;stroke-width:0.3;"/>
  <line y1="-3.814" y2="-3.792" x1="9.267" x2="9.267" style="fill:none;stroke:#000000;stroke-width:0.3;"/>
  <line y1="-3.792" y2="-0.754" x1="22.26" x2="22.26" style="fill:none;stroke:#000000;stroke-width:0.3;"/>
  <line y1="-3.792" y2="-3.814" x1="22.26" x2="22.26" style="fill:none;stroke:#000000;stroke-width:0.3;"/>
  <line y1="-0.754" y2="-0.697" x1="22.26" x2="22.26" style="fill:none;stroke:#000000;stroke-width:0.3;"/>
  <line y1="-0.697" y2="-0.754" x1="34.522" x2="34.522" style="fill:none;stroke:#000000;stroke-width:0.3;"/>
  <line y1="-3.792" y2="-0.754" x1="34.522" x2="34.522" style="fill:none;stroke:#000000;stroke-width:0.3;"/>
  <line y1="-3.814" y2="-3.792" x1="34.522" x2="34.522" style="fill:none;stroke:#000000;stroke-width:0.3;"/>
  <line y1="-3.792" y2="-3.814" x1="46.56" x2="46.56" style="fill:none;stroke:#000000;stroke-width:0.3;"/>
  <line y1="-3.792" y2="-0.754" x1="46.56" x2="46.56" style="fill:none;stroke:#000000;stroke-width:0.3;"/>
  <line y1="-0.754" y2="-0.697" x1="46.56" x2="46.56" style="fill:none;stroke:#000000;stroke-width:0.3;"/>
  <line y1="-38.343" y2="-38.369" x1="3.837" x2="3.837" style="fill:none;stroke:#000000;stroke-width:0.3;"/>
  <line y1="-38.369" y2="-39.968" x1="3.837" x2="3.837" style="fill:none;stroke:#000000;stroke-width:0.3;"/>
  <line y1="-38.343" y2="-38.369" x1="19.774" x2="19.774" style="fill:none;stroke:#000000;stroke-width:0.3;"/>
  <line y1="-38.369" y2="-39.968" x1="19.774" x2="19.774" style="fill:none;stroke:#000000;stroke-width:0.3;"/>
  <line y1="-38.343" y2="-38.369" x1="36.648" x2="36.648" style="fill:none;stroke:#000000;stroke-width:0.3;"/>
  <line y1="-38.369" y2="-39.968" x1="36.648" x2="36.648" style="fill:none;stroke:#000000;stroke-width:0.3;"/>
  <line y1="-31.36" y2="-31.353" x1="4.254" x2="4.254" style="fill:none;stroke:#000000;stroke-width:0.3;"/>
  <line y1="-31.36" y2="-32.978" x1="4.254" x2="4.254" style="fill:none;stroke:#000000;stroke-width:0.3;"/>
  <line y1="-32.978" y2="-31.36" x1="20.475" x2="20.475" style="fill:none;stroke:#000000;stroke-width:0.3;"/>
  <line y1="-31.36" y2="-31.353" x1="20.475" x2="20.475" style="fill:none;stroke:#000000;stroke-width:0.3;"/>
  <line y1="-31.36" y2="-31.353" x1="36.555" x2="36.555" style="fill:none;stroke:#000000;stroke-width:0.3;"/>
  <line y1="-31.36" y2="-32.978" x1="36.555" x2="36.555" style="fill:none;stroke:#000000;stroke-width:0.3;"/>
  <line y1="-36.197" y2="-34.572" x1="15.191" x2="15.191" style="fill:none;stroke:#000000;stroke-width:0.3;"/>
  <line y1="-36.197" y2="-34.572" x1="31.129" x2="31.129" style="fill:none;stroke:#000000;stroke-width:0.3;"/>
  <line y1="-34.572" y2="-36.197" x1="47.086" x2="47.086" style="fill:none;stroke:#000000;stroke-width:0.3;"/>
  <line y1="-13.488" y2="-13.488" x1="1.224" x2="0" style="fill:none;stroke:#000000;stroke-width:0.3;"/>
  <line y1="-13.488" y2="-13.488" x1="3.546" x2="4.688" style="fill:none;stroke:#000000;stroke-width:0.3;"/>
  <line y1="-13.488" y2="-13.488" x1="9.278" x2="4.688" style="fill:none;stroke:#000000;stroke-width:0.3;"/>
  <line y1="-13.488" y2="-13.488" x1="17.303" x2="11.571" style="fill:none;stroke:#000000;stroke-width:0.3;"/>
  <line y1="-13.488" y2="-13.488" x1="20.625" x2="19.596" style="fill:none;stroke:#000000;stroke-width:0.3;"/>
  <line y1="-13.488" y2="-13.488" x1="25.328" x2="20.625" style="fill:none;stroke:#000000;stroke-width:0.3;"/>
  <line y1="-13.488" y2="-13.488" x1="27.621" x2="33.353" style="fill:none;stroke:#000000;stroke-width:0.3;"/>
  <line y1="-13.488" y2="-13.488" x1="37.499" x2="36.27" style="fill:none;stroke:#000000;stroke-width:0.3;"/>
  <line y1="-13.488" y2="-13.488" x1="37.499" x2="42.001" style="fill:none;stroke:#000000;stroke-width:0.3;"/>
  <line y1="-13.488" y2="-13.488" x1="44.181" x2="48.712" style="fill:none;stroke:#000000;stroke-width:0.3;"/>
  <line y1="-9.687" y2="-9.687" x1="4.37" x2="0" style="fill:none;stroke:#000000;stroke-width:0.3;"/>
  <line y1="-9.687" y2="-9.687" x1="6.663" x2="12.396" style="fill:none;stroke:#000000;stroke-width:0.3;"/>
  <line y1="-9.687" y2="-9.687" x1="14.689" x2="20.42" style="fill:none;stroke:#000000;stroke-width:0.3;"/>
  <line y1="-9.687" y2="-9.687" x1="22.713" x2="28.445" style="fill:none;stroke:#000000;stroke-width:0.3;"/>
  <line y1="-9.687" y2="-9.687" x1="30.738" x2="36.47" style="fill:none;stroke:#000000;stroke-width:0.3;"/>
  <line y1="-9.687" y2="-9.687" x1="38.763" x2="44.495" style="fill:none;stroke:#000000;stroke-width:0.3;"/>
  <line y1="-9.687" y2="-9.687" x1="46.788" x2="48.712" style="fill:none;stroke:#000000;stroke-width:0.3;"/>
  <line y1="-6.479" y2="-6.479" x1="0" x2="1.618" style="fill:none;stroke:#000000;stroke-width:0.3;"/>
  <line y1="-6.479" y2="-6.479" x1="5.104" x2="3.94" style="fill:none;stroke:#000000;stroke-width:0.3;"/>
  <line y1="-6.479" y2="-6.479" x1="5.104" x2="9.673" style="fill:none;stroke:#000000;stroke-width:0.3;"/>
  <line y1="-6.479" y2="-6.479" x1="17.697" x2="11.966" style="fill:none;stroke:#000000;stroke-width:0.3;"/>
  <line y1="-6.479" y2="-6.479" x1="21.325" x2="19.99" style="fill:none;stroke:#000000;stroke-width:0.3;"/>
  <line y1="-6.479" y2="-6.479" x1="25.723" x2="21.325" style="fill:none;stroke:#000000;stroke-width:0.3;"/>
  <line y1="-6.479" y2="-6.479" x1="33.747" x2="28.016" style="fill:none;stroke:#000000;stroke-width:0.3;"/>
  <line y1="-6.479" y2="-6.479" x1="37.405" x2="36.04" style="fill:none;stroke:#000000;stroke-width:0.3;"/>
  <line y1="-6.479" y2="-6.479" x1="41.772" x2="37.405" style="fill:none;stroke:#000000;stroke-width:0.3;"/>
  <line y1="-6.479" y2="-6.479" x1="44.065" x2="48.712" style="fill:none;stroke:#000000;stroke-width:0.3;"/>
  <line y1="-13.462" y2="-13.488" x1="4.688" x2="4.688" style="fill:none;stroke:#000000;stroke-width:0.3;"/>
  <line y1="-15.087" y2="-13.488" x1="4.688" x2="4.688" style="fill:none;stroke:#000000;stroke-width:0.3;"/>
  <line y1="-13.488" y2="-13.462" x1="20.625" x2="20.625" style="fill:none;stroke:#000000;stroke-width:0.3;"/>
  <line y1="-15.087" y2="-13.488" x1="20.625" x2="20.625" style="fill:none;stroke:#000000;stroke-width:0.3;"/>
  <line y1="-13.488" y2="-15.087" x1="37.499" x2="37.499" style="fill:none;stroke:#000000;stroke-width:0.3;"/>
  <line y1="-13.488" y2="-13.462" x1="37.499" x2="37.499" style="fill:none;stroke:#000000;stroke-width:0.3;"/>
  <line y1="-6.479" y2="-8.097" x1="5.104" x2="5.104" style="fill:none;stroke:#000000;stroke-width:0.3;"/>
  <line y1="-6.479" y2="-6.472" x1="5.104" x2="5.104" style="fill:none;stroke:#000000;stroke-width:0.3;"/>
  <line y1="-6.479" y2="-6.472" x1="21.325" x2="21.325" style="fill:none;stroke:#000000;stroke-width:0.3;"/>
  <line y1="-6.479" y2="-8.097" x1="21.325" x2="21.325" style="fill:none;stroke:#000000;stroke-width:0.3;"/>
  <line y1="-6.479" y2="-8.097" x1="37.405" x2="37.405" style="fill:none;stroke:#000000;stroke-width:0.3;"/>
  <line y1="-6.479" y2="-6.472" x1="37.405" x2="37.405" style="fill:none;stroke:#000000;stroke-width:0.3;"/>
  <line y1="-11.317" y2="-9.692" x1="16.042" x2="16.042" style="fill:none;stroke:#000000;stroke-width:0.3;"/>
  <line y1="-11.317" y2="-9.692" x1="31.979" x2="31.979" style="fill:none;stroke:#000000;stroke-width:0.3;"/>
  <line y1="-9.692" y2="-11.317" x1="47.937" x2="47.937" style="fill:none;stroke:#000000;stroke-width:0.3;"/>
  <rect height="48.712" y="-48.712" x="0" style="fill:none;" width="48.712"/>
 </g>
</svg>
