<?xml version="1.0"?>
<!-- Converted with SVG Converter - Version 0.9.5 (Compiled Fri Feb 21 09:53:38 2020) - Copyright (C) 2011 Nokia -->
<svg xmlns="http://www.w3.org/2000/svg" viewBox="0 -48.712 48.712 48.712" xml:space="preserve" x="0px" height="48.712" width="48.712" version="1.1" baseProfile="tiny" xmlns:xlink="http://www.w3.org/1999/xlink" y="0px">
 <g>
  <rect x="0" height="48.712" width="48.712" style="fill:none;" y="-48.712"/>
  <line y1="-38.369" style="fill:none;stroke:#000000;stroke-width:0.3;" x1="0.373" x2="0" y2="-38.369"/>
  <line y1="-38.369" style="fill:none;stroke:#000000;stroke-width:0.3;" x1="2.695" x2="3.837" y2="-38.369"/>
  <line y1="-38.369" style="fill:none;stroke:#000000;stroke-width:0.3;" x1="3.837" x2="8.428" y2="-38.369"/>
  <line y1="-38.369" style="fill:none;stroke:#000000;stroke-width:0.3;" x1="10.721" x2="16.452" y2="-38.369"/>
  <line y1="-38.369" style="fill:none;stroke:#000000;stroke-width:0.3;" x1="19.774" x2="24.478" y2="-38.369"/>
  <line y1="-38.369" style="fill:none;stroke:#000000;stroke-width:0.3;" x1="18.745" x2="19.774" y2="-38.369"/>
  <line y1="-38.369" style="fill:none;stroke:#000000;stroke-width:0.3;" x1="26.771" x2="32.502" y2="-38.369"/>
  <line y1="-38.369" style="fill:none;stroke:#000000;stroke-width:0.3;" x1="36.648" x2="41.15" y2="-38.369"/>
  <line y1="-38.369" style="fill:none;stroke:#000000;stroke-width:0.3;" x1="35.419" x2="36.648" y2="-38.369"/>
  <line y1="-38.369" style="fill:none;stroke:#000000;stroke-width:0.3;" x1="43.33" x2="48.712" y2="-38.369"/>
  <line y1="-34.568" style="fill:none;stroke:#000000;stroke-width:0.3;" x1="3.52" x2="0" y2="-34.568"/>
  <line y1="-34.568" style="fill:none;stroke:#000000;stroke-width:0.3;" x1="5.812" x2="11.545" y2="-34.568"/>
  <line y1="-34.568" style="fill:none;stroke:#000000;stroke-width:0.3;" x1="13.838" x2="19.569" y2="-34.568"/>
  <line y1="-34.568" style="fill:none;stroke:#000000;stroke-width:0.3;" x1="27.595" x2="21.862" y2="-34.568"/>
  <line y1="-34.568" style="fill:none;stroke:#000000;stroke-width:0.3;" x1="29.888" x2="35.619" y2="-34.568"/>
  <line y1="-34.568" style="fill:none;stroke:#000000;stroke-width:0.3;" x1="43.645" x2="37.912" y2="-34.568"/>
  <line y1="-34.568" style="fill:none;stroke:#000000;stroke-width:0.3;" x1="45.938" x2="48.712" y2="-34.568"/>
  <line y1="-31.36" style="fill:none;stroke:#000000;stroke-width:0.3;" x1="0" x2="0.768" y2="-31.36"/>
  <line y1="-31.36" style="fill:none;stroke:#000000;stroke-width:0.3;" x1="4.254" x2="8.822" y2="-31.36"/>
  <line y1="-31.36" style="fill:none;stroke:#000000;stroke-width:0.3;" x1="4.254" x2="3.09" y2="-31.36"/>
  <line y1="-31.36" style="fill:none;stroke:#000000;stroke-width:0.3;" x1="16.847" x2="11.115" y2="-31.36"/>
  <line y1="-31.36" style="fill:none;stroke:#000000;stroke-width:0.3;" x1="20.475" x2="19.14" y2="-31.36"/>
  <line y1="-31.36" style="fill:none;stroke:#000000;stroke-width:0.3;" x1="24.872" x2="20.475" y2="-31.36"/>
  <line y1="-31.36" style="fill:none;stroke:#000000;stroke-width:0.3;" x1="27.165" x2="32.896" y2="-31.36"/>
  <line y1="-31.36" style="fill:none;stroke:#000000;stroke-width:0.3;" x1="36.555" x2="35.189" y2="-31.36"/>
  <line y1="-31.36" style="fill:none;stroke:#000000;stroke-width:0.3;" x1="36.555" x2="40.922" y2="-31.36"/>
  <line y1="-31.36" style="fill:none;stroke:#000000;stroke-width:0.3;" x1="43.215" x2="48.712" y2="-31.36"/>
  <line y1="-45.337" style="fill:none;stroke:#000000;stroke-width:0.3;" x1="11.34" x2="16.808" y2="-45.337"/>
  <line y1="-45.337" style="fill:none;stroke:#000000;stroke-width:0.3;" x1="24.728" x2="16.808" y2="-45.337"/>
  <line y1="-45.337" style="fill:none;stroke:#000000;stroke-width:0.3;" x1="24.728" x2="28.957" y2="-45.337"/>
  <line y1="-45.337" style="fill:none;stroke:#000000;stroke-width:0.3;" x1="41.895" x2="48.532" y2="-45.337"/>
  <line y1="-45.337" style="fill:none;stroke:#000000;stroke-width:0.3;" x1="36.989" x2="28.957" y2="-45.337"/>
  <line y1="-45.337" style="fill:none;stroke:#000000;stroke-width:0.3;" x1="48.532" x2="48.712" y2="-45.337"/>
  <line y1="-45.337" style="fill:none;stroke:#000000;stroke-width:0.3;" x1="41.895" x2="36.989" y2="-45.337"/>
  <line y1="-45.337" style="fill:none;stroke:#000000;stroke-width:0.3;" x1="11.34" x2="5.332" y2="-45.337"/>
  <line y1="-45.337" style="fill:none;stroke:#000000;stroke-width:0.3;" x1="0" x2="5.332" y2="-45.337"/>
  <line y1="-41.58" style="fill:none;stroke:#000000;stroke-width:0.3;" x1="0" x2="48.712" y2="-41.58"/>
  <line y1="-28.159" style="fill:none;stroke:#000000;stroke-width:0.3;" x1="5.996" x2="18.146" y2="-28.159"/>
  <line y1="-28.159" style="fill:none;stroke:#000000;stroke-width:0.3;" x1="43.796" x2="30.408" y2="-28.159"/>
  <line y1="-28.159" style="fill:none;stroke:#000000;stroke-width:0.3;" x1="30.408" x2="18.146" y2="-28.159"/>
  <line y1="-28.159" style="fill:none;stroke:#000000;stroke-width:0.3;" x1="5.996" x2="0" y2="-28.159"/>
  <line y1="-28.159" style="fill:none;stroke:#000000;stroke-width:0.3;" x1="43.796" x2="48.712" y2="-28.159"/>
  <line y1="-24.514" style="fill:none;stroke:#000000;stroke-width:0.3;" x1="0" x2="48.712" y2="-24.514"/>
  <line y1="-21.094" style="fill:none;stroke:#000000;stroke-width:0.3;" x1="0" x2="48.712" y2="-21.094"/>
  <line y1="-17.314" style="fill:none;stroke:#000000;stroke-width:0.3;" x1="0" x2="48.712" y2="-17.314"/>
  <line y1="-0.754" style="fill:none;stroke:#000000;stroke-width:0.3;" x1="46.56" x2="41.895" y2="-0.754"/>
  <line y1="-0.754" style="fill:none;stroke:#000000;stroke-width:0.3;" x1="0" x2="5.332" y2="-0.754"/>
  <line y1="-0.754" style="fill:none;stroke:#000000;stroke-width:0.3;" x1="5.332" x2="9.267" y2="-0.754"/>
  <line y1="-0.754" style="fill:none;stroke:#000000;stroke-width:0.3;" x1="46.56" x2="48.712" y2="-0.754"/>
  <line y1="-0.754" style="fill:none;stroke:#000000;stroke-width:0.3;" x1="16.808" x2="9.267" y2="-0.754"/>
  <line y1="-0.754" style="fill:none;stroke:#000000;stroke-width:0.3;" x1="41.895" x2="34.522" y2="-0.754"/>
  <line y1="-0.754" style="fill:none;stroke:#000000;stroke-width:0.3;" x1="28.957" x2="34.522" y2="-0.754"/>
  <line y1="-0.754" style="fill:none;stroke:#000000;stroke-width:0.3;" x1="22.26" x2="28.957" y2="-0.754"/>
  <line y1="-0.754" style="fill:none;stroke:#000000;stroke-width:0.3;" x1="22.26" x2="16.808" y2="-0.754"/>
  <line y1="-48.712" style="fill:none;stroke:#000000;stroke-width:0.3;" x1="5.332" x2="5.332" y2="-45.337"/>
  <line y1="-48.712" style="fill:none;stroke:#000000;stroke-width:0.3;" x1="16.808" x2="16.808" y2="-45.337"/>
  <line y1="-48.712" style="fill:none;stroke:#000000;stroke-width:0.3;" x1="28.957" x2="28.957" y2="-45.337"/>
  <line y1="-45.337" style="fill:none;stroke:#000000;stroke-width:0.3;" x1="41.895" x2="41.895" y2="-48.712"/>
  <line y1="-0.765" style="fill:none;stroke:#000000;stroke-width:0.3;" x1="5.332" x2="5.332" y2="-0.754"/>
  <line y1="-0.001" style="fill:none;stroke:#000000;stroke-width:0.3;" x1="5.332" x2="5.332" y2="-0.754"/>
  <line y1="-0.765" style="fill:none;stroke:#000000;stroke-width:0.3;" x1="16.808" x2="16.808" y2="-0.754"/>
  <line y1="-0.001" style="fill:none;stroke:#000000;stroke-width:0.3;" x1="16.808" x2="16.808" y2="-0.754"/>
  <line y1="-0.001" style="fill:none;stroke:#000000;stroke-width:0.3;" x1="28.957" x2="28.957" y2="-0.754"/>
  <line y1="-0.765" style="fill:none;stroke:#000000;stroke-width:0.3;" x1="28.957" x2="28.957" y2="-0.754"/>
  <line y1="-0.001" style="fill:none;stroke:#000000;stroke-width:0.3;" x1="41.895" x2="41.895" y2="-0.754"/>
  <line y1="-0.765" style="fill:none;stroke:#000000;stroke-width:0.3;" x1="41.895" x2="41.895" y2="-0.754"/>
  <line y1="-45.337" style="fill:none;stroke:#000000;stroke-width:0.3;" x1="11.34" x2="11.34" y2="-41.591"/>
  <line y1="-45.337" style="fill:none;stroke:#000000;stroke-width:0.3;" x1="11.34" x2="11.34" y2="-45.394"/>
  <line y1="-45.337" style="fill:none;stroke:#000000;stroke-width:0.3;" x1="24.728" x2="24.728" y2="-41.591"/>
  <line y1="-45.337" style="fill:none;stroke:#000000;stroke-width:0.3;" x1="24.728" x2="24.728" y2="-45.394"/>
  <line y1="-45.337" style="fill:none;stroke:#000000;stroke-width:0.3;" x1="36.989" x2="36.989" y2="-41.591"/>
  <line y1="-45.394" style="fill:none;stroke:#000000;stroke-width:0.3;" x1="36.989" x2="36.989" y2="-45.337"/>
  <line y1="-41.591" style="fill:none;stroke:#000000;stroke-width:0.3;" x1="48.532" x2="48.532" y2="-45.337"/>
  <line y1="-28.159" style="fill:none;stroke:#000000;stroke-width:0.3;" x1="5.996" x2="5.996" y2="-24.525"/>
  <line y1="-28.17" style="fill:none;stroke:#000000;stroke-width:0.3;" x1="5.996" x2="5.996" y2="-28.159"/>
  <line y1="-28.17" style="fill:none;stroke:#000000;stroke-width:0.3;" x1="18.146" x2="18.146" y2="-28.159"/>
  <line y1="-24.525" style="fill:none;stroke:#000000;stroke-width:0.3;" x1="18.146" x2="18.146" y2="-28.159"/>
  <line y1="-28.17" style="fill:none;stroke:#000000;stroke-width:0.3;" x1="30.408" x2="30.408" y2="-28.159"/>
  <line y1="-28.159" style="fill:none;stroke:#000000;stroke-width:0.3;" x1="30.408" x2="30.408" y2="-24.525"/>
  <line y1="-28.159" style="fill:none;stroke:#000000;stroke-width:0.3;" x1="43.796" x2="43.796" y2="-24.525"/>
  <line y1="-28.159" style="fill:none;stroke:#000000;stroke-width:0.3;" x1="43.796" x2="43.796" y2="-28.17"/>
  <line y1="-24.469" style="fill:none;stroke:#000000;stroke-width:0.3;" x1="36.033" x2="36.033" y2="-21.105"/>
  <line y1="-24.469" style="fill:none;stroke:#000000;stroke-width:0.3;" x1="24.041" x2="24.041" y2="-21.105"/>
  <line y1="-24.469" style="fill:none;stroke:#000000;stroke-width:0.3;" x1="10.541" x2="10.541" y2="-21.105"/>
  <line y1="-24.469" style="fill:none;stroke:#000000;stroke-width:0.3;" x1="47.939" x2="47.939" y2="-21.105"/>
  <line y1="-21.049" style="fill:none;stroke:#000000;stroke-width:0.3;" x1="4.973" x2="4.973" y2="-17.325"/>
  <line y1="-21.049" style="fill:none;stroke:#000000;stroke-width:0.3;" x1="16.673" x2="16.673" y2="-17.325"/>
  <line y1="-21.049" style="fill:none;stroke:#000000;stroke-width:0.3;" x1="28.935" x2="28.935" y2="-17.325"/>
  <line y1="-17.325" style="fill:none;stroke:#000000;stroke-width:0.3;" x1="41.76" x2="41.76" y2="-21.049"/>
  <line y1="-3.792" style="fill:none;stroke:#000000;stroke-width:0.3;" x1="46.56" x2="34.522" y2="-3.792"/>
  <line y1="-3.792" style="fill:none;stroke:#000000;stroke-width:0.3;" x1="22.26" x2="9.267" y2="-3.792"/>
  <line y1="-3.792" style="fill:none;stroke:#000000;stroke-width:0.3;" x1="0" x2="9.267" y2="-3.792"/>
  <line y1="-3.792" style="fill:none;stroke:#000000;stroke-width:0.3;" x1="46.56" x2="48.712" y2="-3.792"/>
  <line y1="-3.792" style="fill:none;stroke:#000000;stroke-width:0.3;" x1="22.26" x2="34.522" y2="-3.792"/>
  <line y1="-0.697" style="fill:none;stroke:#000000;stroke-width:0.3;" x1="9.267" x2="9.267" y2="-0.754"/>
  <line y1="-3.792" style="fill:none;stroke:#000000;stroke-width:0.3;" x1="9.267" x2="9.267" y2="-0.754"/>
  <line y1="-3.814" style="fill:none;stroke:#000000;stroke-width:0.3;" x1="9.267" x2="9.267" y2="-3.792"/>
  <line y1="-3.792" style="fill:none;stroke:#000000;stroke-width:0.3;" x1="22.26" x2="22.26" y2="-0.754"/>
  <line y1="-3.792" style="fill:none;stroke:#000000;stroke-width:0.3;" x1="22.26" x2="22.26" y2="-3.814"/>
  <line y1="-0.754" style="fill:none;stroke:#000000;stroke-width:0.3;" x1="22.26" x2="22.26" y2="-0.697"/>
  <line y1="-0.697" style="fill:none;stroke:#000000;stroke-width:0.3;" x1="34.522" x2="34.522" y2="-0.754"/>
  <line y1="-3.792" style="fill:none;stroke:#000000;stroke-width:0.3;" x1="34.522" x2="34.522" y2="-0.754"/>
  <line y1="-3.814" style="fill:none;stroke:#000000;stroke-width:0.3;" x1="34.522" x2="34.522" y2="-3.792"/>
  <line y1="-3.792" style="fill:none;stroke:#000000;stroke-width:0.3;" x1="46.56" x2="46.56" y2="-3.814"/>
  <line y1="-3.792" style="fill:none;stroke:#000000;stroke-width:0.3;" x1="46.56" x2="46.56" y2="-0.754"/>
  <line y1="-0.754" style="fill:none;stroke:#000000;stroke-width:0.3;" x1="46.56" x2="46.56" y2="-0.697"/>
  <line y1="-38.343" style="fill:none;stroke:#000000;stroke-width:0.3;" x1="3.837" x2="3.837" y2="-38.369"/>
  <line y1="-38.369" style="fill:none;stroke:#000000;stroke-width:0.3;" x1="3.837" x2="3.837" y2="-39.968"/>
  <line y1="-38.343" style="fill:none;stroke:#000000;stroke-width:0.3;" x1="19.774" x2="19.774" y2="-38.369"/>
  <line y1="-38.369" style="fill:none;stroke:#000000;stroke-width:0.3;" x1="19.774" x2="19.774" y2="-39.968"/>
  <line y1="-38.343" style="fill:none;stroke:#000000;stroke-width:0.3;" x1="36.648" x2="36.648" y2="-38.369"/>
  <line y1="-38.369" style="fill:none;stroke:#000000;stroke-width:0.3;" x1="36.648" x2="36.648" y2="-39.968"/>
  <line y1="-31.36" style="fill:none;stroke:#000000;stroke-width:0.3;" x1="4.254" x2="4.254" y2="-31.353"/>
  <line y1="-31.36" style="fill:none;stroke:#000000;stroke-width:0.3;" x1="4.254" x2="4.254" y2="-32.978"/>
  <line y1="-32.978" style="fill:none;stroke:#000000;stroke-width:0.3;" x1="20.475" x2="20.475" y2="-31.36"/>
  <line y1="-31.36" style="fill:none;stroke:#000000;stroke-width:0.3;" x1="20.475" x2="20.475" y2="-31.353"/>
  <line y1="-31.36" style="fill:none;stroke:#000000;stroke-width:0.3;" x1="36.555" x2="36.555" y2="-31.353"/>
  <line y1="-31.36" style="fill:none;stroke:#000000;stroke-width:0.3;" x1="36.555" x2="36.555" y2="-32.978"/>
  <line y1="-36.197" style="fill:none;stroke:#000000;stroke-width:0.3;" x1="15.191" x2="15.191" y2="-34.572"/>
  <line y1="-36.197" style="fill:none;stroke:#000000;stroke-width:0.3;" x1="31.129" x2="31.129" y2="-34.572"/>
  <line y1="-34.572" style="fill:none;stroke:#000000;stroke-width:0.3;" x1="47.086" x2="47.086" y2="-36.197"/>
  <line y1="-13.488" style="fill:none;stroke:#000000;stroke-width:0.3;" x1="1.224" x2="0" y2="-13.488"/>
  <line y1="-13.488" style="fill:none;stroke:#000000;stroke-width:0.3;" x1="3.546" x2="4.688" y2="-13.488"/>
  <line y1="-13.488" style="fill:none;stroke:#000000;stroke-width:0.3;" x1="9.278" x2="4.688" y2="-13.488"/>
  <line y1="-13.488" style="fill:none;stroke:#000000;stroke-width:0.3;" x1="17.303" x2="11.571" y2="-13.488"/>
  <line y1="-13.488" style="fill:none;stroke:#000000;stroke-width:0.3;" x1="20.625" x2="19.596" y2="-13.488"/>
  <line y1="-13.488" style="fill:none;stroke:#000000;stroke-width:0.3;" x1="25.328" x2="20.625" y2="-13.488"/>
  <line y1="-13.488" style="fill:none;stroke:#000000;stroke-width:0.3;" x1="27.621" x2="33.353" y2="-13.488"/>
  <line y1="-13.488" style="fill:none;stroke:#000000;stroke-width:0.3;" x1="37.499" x2="36.27" y2="-13.488"/>
  <line y1="-13.488" style="fill:none;stroke:#000000;stroke-width:0.3;" x1="37.499" x2="42.001" y2="-13.488"/>
  <line y1="-13.488" style="fill:none;stroke:#000000;stroke-width:0.3;" x1="44.181" x2="48.712" y2="-13.488"/>
  <line y1="-9.687" style="fill:none;stroke:#000000;stroke-width:0.3;" x1="4.37" x2="0" y2="-9.687"/>
  <line y1="-9.687" style="fill:none;stroke:#000000;stroke-width:0.3;" x1="6.663" x2="12.396" y2="-9.687"/>
  <line y1="-9.687" style="fill:none;stroke:#000000;stroke-width:0.3;" x1="14.689" x2="20.42" y2="-9.687"/>
  <line y1="-9.687" style="fill:none;stroke:#000000;stroke-width:0.3;" x1="22.713" x2="28.445" y2="-9.687"/>
  <line y1="-9.687" style="fill:none;stroke:#000000;stroke-width:0.3;" x1="30.738" x2="36.47" y2="-9.687"/>
  <line y1="-9.687" style="fill:none;stroke:#000000;stroke-width:0.3;" x1="38.763" x2="44.495" y2="-9.687"/>
  <line y1="-9.687" style="fill:none;stroke:#000000;stroke-width:0.3;" x1="46.788" x2="48.712" y2="-9.687"/>
  <line y1="-6.479" style="fill:none;stroke:#000000;stroke-width:0.3;" x1="0" x2="1.618" y2="-6.479"/>
  <line y1="-6.479" style="fill:none;stroke:#000000;stroke-width:0.3;" x1="5.104" x2="3.94" y2="-6.479"/>
  <line y1="-6.479" style="fill:none;stroke:#000000;stroke-width:0.3;" x1="5.104" x2="9.673" y2="-6.479"/>
  <line y1="-6.479" style="fill:none;stroke:#000000;stroke-width:0.3;" x1="17.697" x2="11.966" y2="-6.479"/>
  <line y1="-6.479" style="fill:none;stroke:#000000;stroke-width:0.3;" x1="21.325" x2="19.99" y2="-6.479"/>
  <line y1="-6.479" style="fill:none;stroke:#000000;stroke-width:0.3;" x1="25.723" x2="21.325" y2="-6.479"/>
  <line y1="-6.479" style="fill:none;stroke:#000000;stroke-width:0.3;" x1="33.747" x2="28.016" y2="-6.479"/>
  <line y1="-6.479" style="fill:none;stroke:#000000;stroke-width:0.3;" x1="37.405" x2="36.04" y2="-6.479"/>
  <line y1="-6.479" style="fill:none;stroke:#000000;stroke-width:0.3;" x1="41.772" x2="37.405" y2="-6.479"/>
  <line y1="-6.479" style="fill:none;stroke:#000000;stroke-width:0.3;" x1="44.065" x2="48.712" y2="-6.479"/>
  <line y1="-13.462" style="fill:none;stroke:#000000;stroke-width:0.3;" x1="4.688" x2="4.688" y2="-13.488"/>
  <line y1="-15.087" style="fill:none;stroke:#000000;stroke-width:0.3;" x1="4.688" x2="4.688" y2="-13.488"/>
  <line y1="-13.488" style="fill:none;stroke:#000000;stroke-width:0.3;" x1="20.625" x2="20.625" y2="-13.462"/>
  <line y1="-15.087" style="fill:none;stroke:#000000;stroke-width:0.3;" x1="20.625" x2="20.625" y2="-13.488"/>
  <line y1="-13.488" style="fill:none;stroke:#000000;stroke-width:0.3;" x1="37.499" x2="37.499" y2="-15.087"/>
  <line y1="-13.488" style="fill:none;stroke:#000000;stroke-width:0.3;" x1="37.499" x2="37.499" y2="-13.462"/>
  <line y1="-6.479" style="fill:none;stroke:#000000;stroke-width:0.3;" x1="5.104" x2="5.104" y2="-8.097"/>
  <line y1="-6.479" style="fill:none;stroke:#000000;stroke-width:0.3;" x1="5.104" x2="5.104" y2="-6.472"/>
  <line y1="-6.479" style="fill:none;stroke:#000000;stroke-width:0.3;" x1="21.325" x2="21.325" y2="-6.472"/>
  <line y1="-6.479" style="fill:none;stroke:#000000;stroke-width:0.3;" x1="21.325" x2="21.325" y2="-8.097"/>
  <line y1="-6.479" style="fill:none;stroke:#000000;stroke-width:0.3;" x1="37.405" x2="37.405" y2="-8.097"/>
  <line y1="-6.479" style="fill:none;stroke:#000000;stroke-width:0.3;" x1="37.405" x2="37.405" y2="-6.472"/>
  <line y1="-11.317" style="fill:none;stroke:#000000;stroke-width:0.3;" x1="16.042" x2="16.042" y2="-9.692"/>
  <line y1="-11.317" style="fill:none;stroke:#000000;stroke-width:0.3;" x1="31.979" x2="31.979" y2="-9.692"/>
  <line y1="-9.692" style="fill:none;stroke:#000000;stroke-width:0.3;" x1="47.937" x2="47.937" y2="-11.317"/>
  <rect x="0" height="48.712" width="48.712" style="fill:none;" y="-48.712"/>
 </g>
</svg>
