<?xml version="1.0"?>
<!-- Converted with SVG Converter - Version 0.9.5 (Compiled Fri Feb 21 09:53:38 2020) - Copyright (C) 2011 Nokia -->
<svg xmlns="http://www.w3.org/2000/svg" x="0px" width="48.712" viewBox="0 -48.712 48.712 48.712" xmlns:xlink="http://www.w3.org/1999/xlink" y="0px" xml:space="preserve" height="48.712" baseProfile="tiny" version="1.1">
 <g>
  <rect x="0" width="48.712" y="-48.712" height="48.712" style="fill:none;"/>
  <line y1="-38.369" x2="0" x1="0.373" style="fill:none;stroke:#000000;stroke-width:0.3;" y2="-38.369"/>
  <line y1="-38.369" x2="3.837" x1="2.695" style="fill:none;stroke:#000000;stroke-width:0.3;" y2="-38.369"/>
  <line y1="-38.369" x2="8.428" x1="3.837" style="fill:none;stroke:#000000;stroke-width:0.3;" y2="-38.369"/>
  <line y1="-38.369" x2="16.452" x1="10.721" style="fill:none;stroke:#000000;stroke-width:0.3;" y2="-38.369"/>
  <line y1="-38.369" x2="24.478" x1="19.774" style="fill:none;stroke:#000000;stroke-width:0.3;" y2="-38.369"/>
  <line y1="-38.369" x2="19.774" x1="18.745" style="fill:none;stroke:#000000;stroke-width:0.3;" y2="-38.369"/>
  <line y1="-38.369" x2="32.502" x1="26.771" style="fill:none;stroke:#000000;stroke-width:0.3;" y2="-38.369"/>
  <line y1="-38.369" x2="41.15" x1="36.648" style="fill:none;stroke:#000000;stroke-width:0.3;" y2="-38.369"/>
  <line y1="-38.369" x2="36.648" x1="35.419" style="fill:none;stroke:#000000;stroke-width:0.3;" y2="-38.369"/>
  <line y1="-38.369" x2="48.712" x1="43.33" style="fill:none;stroke:#000000;stroke-width:0.3;" y2="-38.369"/>
  <line y1="-34.568" x2="0" x1="3.52" style="fill:none;stroke:#000000;stroke-width:0.3;" y2="-34.568"/>
  <line y1="-34.568" x2="11.545" x1="5.812" style="fill:none;stroke:#000000;stroke-width:0.3;" y2="-34.568"/>
  <line y1="-34.568" x2="19.569" x1="13.838" style="fill:none;stroke:#000000;stroke-width:0.3;" y2="-34.568"/>
  <line y1="-34.568" x2="21.862" x1="27.595" style="fill:none;stroke:#000000;stroke-width:0.3;" y2="-34.568"/>
  <line y1="-34.568" x2="35.619" x1="29.888" style="fill:none;stroke:#000000;stroke-width:0.3;" y2="-34.568"/>
  <line y1="-34.568" x2="37.912" x1="43.645" style="fill:none;stroke:#000000;stroke-width:0.3;" y2="-34.568"/>
  <line y1="-34.568" x2="48.712" x1="45.938" style="fill:none;stroke:#000000;stroke-width:0.3;" y2="-34.568"/>
  <line y1="-31.36" x2="0.768" x1="0" style="fill:none;stroke:#000000;stroke-width:0.3;" y2="-31.36"/>
  <line y1="-31.36" x2="8.822" x1="4.254" style="fill:none;stroke:#000000;stroke-width:0.3;" y2="-31.36"/>
  <line y1="-31.36" x2="3.09" x1="4.254" style="fill:none;stroke:#000000;stroke-width:0.3;" y2="-31.36"/>
  <line y1="-31.36" x2="11.115" x1="16.847" style="fill:none;stroke:#000000;stroke-width:0.3;" y2="-31.36"/>
  <line y1="-31.36" x2="19.14" x1="20.475" style="fill:none;stroke:#000000;stroke-width:0.3;" y2="-31.36"/>
  <line y1="-31.36" x2="20.475" x1="24.872" style="fill:none;stroke:#000000;stroke-width:0.3;" y2="-31.36"/>
  <line y1="-31.36" x2="32.896" x1="27.165" style="fill:none;stroke:#000000;stroke-width:0.3;" y2="-31.36"/>
  <line y1="-31.36" x2="35.189" x1="36.555" style="fill:none;stroke:#000000;stroke-width:0.3;" y2="-31.36"/>
  <line y1="-31.36" x2="40.922" x1="36.555" style="fill:none;stroke:#000000;stroke-width:0.3;" y2="-31.36"/>
  <line y1="-31.36" x2="48.712" x1="43.215" style="fill:none;stroke:#000000;stroke-width:0.3;" y2="-31.36"/>
  <line y1="-45.337" x2="16.808" x1="11.34" style="fill:none;stroke:#000000;stroke-width:0.3;" y2="-45.337"/>
  <line y1="-45.337" x2="16.808" x1="24.728" style="fill:none;stroke:#000000;stroke-width:0.3;" y2="-45.337"/>
  <line y1="-45.337" x2="28.957" x1="24.728" style="fill:none;stroke:#000000;stroke-width:0.3;" y2="-45.337"/>
  <line y1="-45.337" x2="48.532" x1="41.895" style="fill:none;stroke:#000000;stroke-width:0.3;" y2="-45.337"/>
  <line y1="-45.337" x2="28.957" x1="36.989" style="fill:none;stroke:#000000;stroke-width:0.3;" y2="-45.337"/>
  <line y1="-45.337" x2="48.712" x1="48.532" style="fill:none;stroke:#000000;stroke-width:0.3;" y2="-45.337"/>
  <line y1="-45.337" x2="36.989" x1="41.895" style="fill:none;stroke:#000000;stroke-width:0.3;" y2="-45.337"/>
  <line y1="-45.337" x2="5.332" x1="11.34" style="fill:none;stroke:#000000;stroke-width:0.3;" y2="-45.337"/>
  <line y1="-45.337" x2="5.332" x1="0" style="fill:none;stroke:#000000;stroke-width:0.3;" y2="-45.337"/>
  <line y1="-41.58" x2="48.712" x1="0" style="fill:none;stroke:#000000;stroke-width:0.3;" y2="-41.58"/>
  <line y1="-28.159" x2="18.146" x1="5.996" style="fill:none;stroke:#000000;stroke-width:0.3;" y2="-28.159"/>
  <line y1="-28.159" x2="30.408" x1="43.796" style="fill:none;stroke:#000000;stroke-width:0.3;" y2="-28.159"/>
  <line y1="-28.159" x2="18.146" x1="30.408" style="fill:none;stroke:#000000;stroke-width:0.3;" y2="-28.159"/>
  <line y1="-28.159" x2="0" x1="5.996" style="fill:none;stroke:#000000;stroke-width:0.3;" y2="-28.159"/>
  <line y1="-28.159" x2="48.712" x1="43.796" style="fill:none;stroke:#000000;stroke-width:0.3;" y2="-28.159"/>
  <line y1="-24.514" x2="48.712" x1="0" style="fill:none;stroke:#000000;stroke-width:0.3;" y2="-24.514"/>
  <line y1="-21.094" x2="48.712" x1="0" style="fill:none;stroke:#000000;stroke-width:0.3;" y2="-21.094"/>
  <line y1="-17.314" x2="48.712" x1="0" style="fill:none;stroke:#000000;stroke-width:0.3;" y2="-17.314"/>
  <line y1="-0.754" x2="41.895" x1="46.56" style="fill:none;stroke:#000000;stroke-width:0.3;" y2="-0.754"/>
  <line y1="-0.754" x2="5.332" x1="0" style="fill:none;stroke:#000000;stroke-width:0.3;" y2="-0.754"/>
  <line y1="-0.754" x2="9.267" x1="5.332" style="fill:none;stroke:#000000;stroke-width:0.3;" y2="-0.754"/>
  <line y1="-0.754" x2="48.712" x1="46.56" style="fill:none;stroke:#000000;stroke-width:0.3;" y2="-0.754"/>
  <line y1="-0.754" x2="9.267" x1="16.808" style="fill:none;stroke:#000000;stroke-width:0.3;" y2="-0.754"/>
  <line y1="-0.754" x2="34.522" x1="41.895" style="fill:none;stroke:#000000;stroke-width:0.3;" y2="-0.754"/>
  <line y1="-0.754" x2="34.522" x1="28.957" style="fill:none;stroke:#000000;stroke-width:0.3;" y2="-0.754"/>
  <line y1="-0.754" x2="28.957" x1="22.26" style="fill:none;stroke:#000000;stroke-width:0.3;" y2="-0.754"/>
  <line y1="-0.754" x2="16.808" x1="22.26" style="fill:none;stroke:#000000;stroke-width:0.3;" y2="-0.754"/>
  <line y1="-48.712" x2="5.332" x1="5.332" style="fill:none;stroke:#000000;stroke-width:0.3;" y2="-45.337"/>
  <line y1="-48.712" x2="16.808" x1="16.808" style="fill:none;stroke:#000000;stroke-width:0.3;" y2="-45.337"/>
  <line y1="-48.712" x2="28.957" x1="28.957" style="fill:none;stroke:#000000;stroke-width:0.3;" y2="-45.337"/>
  <line y1="-45.337" x2="41.895" x1="41.895" style="fill:none;stroke:#000000;stroke-width:0.3;" y2="-48.712"/>
  <line y1="-0.765" x2="5.332" x1="5.332" style="fill:none;stroke:#000000;stroke-width:0.3;" y2="-0.754"/>
  <line y1="-0.001" x2="5.332" x1="5.332" style="fill:none;stroke:#000000;stroke-width:0.3;" y2="-0.754"/>
  <line y1="-0.765" x2="16.808" x1="16.808" style="fill:none;stroke:#000000;stroke-width:0.3;" y2="-0.754"/>
  <line y1="-0.001" x2="16.808" x1="16.808" style="fill:none;stroke:#000000;stroke-width:0.3;" y2="-0.754"/>
  <line y1="-0.001" x2="28.957" x1="28.957" style="fill:none;stroke:#000000;stroke-width:0.3;" y2="-0.754"/>
  <line y1="-0.765" x2="28.957" x1="28.957" style="fill:none;stroke:#000000;stroke-width:0.3;" y2="-0.754"/>
  <line y1="-0.001" x2="41.895" x1="41.895" style="fill:none;stroke:#000000;stroke-width:0.3;" y2="-0.754"/>
  <line y1="-0.765" x2="41.895" x1="41.895" style="fill:none;stroke:#000000;stroke-width:0.3;" y2="-0.754"/>
  <line y1="-45.337" x2="11.34" x1="11.34" style="fill:none;stroke:#000000;stroke-width:0.3;" y2="-41.591"/>
  <line y1="-45.337" x2="11.34" x1="11.34" style="fill:none;stroke:#000000;stroke-width:0.3;" y2="-45.394"/>
  <line y1="-45.337" x2="24.728" x1="24.728" style="fill:none;stroke:#000000;stroke-width:0.3;" y2="-41.591"/>
  <line y1="-45.337" x2="24.728" x1="24.728" style="fill:none;stroke:#000000;stroke-width:0.3;" y2="-45.394"/>
  <line y1="-45.337" x2="36.989" x1="36.989" style="fill:none;stroke:#000000;stroke-width:0.3;" y2="-41.591"/>
  <line y1="-45.394" x2="36.989" x1="36.989" style="fill:none;stroke:#000000;stroke-width:0.3;" y2="-45.337"/>
  <line y1="-41.591" x2="48.532" x1="48.532" style="fill:none;stroke:#000000;stroke-width:0.3;" y2="-45.337"/>
  <line y1="-28.159" x2="5.996" x1="5.996" style="fill:none;stroke:#000000;stroke-width:0.3;" y2="-24.525"/>
  <line y1="-28.17" x2="5.996" x1="5.996" style="fill:none;stroke:#000000;stroke-width:0.3;" y2="-28.159"/>
  <line y1="-28.17" x2="18.146" x1="18.146" style="fill:none;stroke:#000000;stroke-width:0.3;" y2="-28.159"/>
  <line y1="-24.525" x2="18.146" x1="18.146" style="fill:none;stroke:#000000;stroke-width:0.3;" y2="-28.159"/>
  <line y1="-28.17" x2="30.408" x1="30.408" style="fill:none;stroke:#000000;stroke-width:0.3;" y2="-28.159"/>
  <line y1="-28.159" x2="30.408" x1="30.408" style="fill:none;stroke:#000000;stroke-width:0.3;" y2="-24.525"/>
  <line y1="-28.159" x2="43.796" x1="43.796" style="fill:none;stroke:#000000;stroke-width:0.3;" y2="-24.525"/>
  <line y1="-28.159" x2="43.796" x1="43.796" style="fill:none;stroke:#000000;stroke-width:0.3;" y2="-28.17"/>
  <line y1="-24.469" x2="36.033" x1="36.033" style="fill:none;stroke:#000000;stroke-width:0.3;" y2="-21.105"/>
  <line y1="-24.469" x2="24.041" x1="24.041" style="fill:none;stroke:#000000;stroke-width:0.3;" y2="-21.105"/>
  <line y1="-24.469" x2="10.541" x1="10.541" style="fill:none;stroke:#000000;stroke-width:0.3;" y2="-21.105"/>
  <line y1="-24.469" x2="47.939" x1="47.939" style="fill:none;stroke:#000000;stroke-width:0.3;" y2="-21.105"/>
  <line y1="-21.049" x2="4.973" x1="4.973" style="fill:none;stroke:#000000;stroke-width:0.3;" y2="-17.325"/>
  <line y1="-21.049" x2="16.673" x1="16.673" style="fill:none;stroke:#000000;stroke-width:0.3;" y2="-17.325"/>
  <line y1="-21.049" x2="28.935" x1="28.935" style="fill:none;stroke:#000000;stroke-width:0.3;" y2="-17.325"/>
  <line y1="-17.325" x2="41.76" x1="41.76" style="fill:none;stroke:#000000;stroke-width:0.3;" y2="-21.049"/>
  <line y1="-3.792" x2="34.522" x1="46.56" style="fill:none;stroke:#000000;stroke-width:0.3;" y2="-3.792"/>
  <line y1="-3.792" x2="9.267" x1="22.26" style="fill:none;stroke:#000000;stroke-width:0.3;" y2="-3.792"/>
  <line y1="-3.792" x2="9.267" x1="0" style="fill:none;stroke:#000000;stroke-width:0.3;" y2="-3.792"/>
  <line y1="-3.792" x2="48.712" x1="46.56" style="fill:none;stroke:#000000;stroke-width:0.3;" y2="-3.792"/>
  <line y1="-3.792" x2="34.522" x1="22.26" style="fill:none;stroke:#000000;stroke-width:0.3;" y2="-3.792"/>
  <line y1="-0.697" x2="9.267" x1="9.267" style="fill:none;stroke:#000000;stroke-width:0.3;" y2="-0.754"/>
  <line y1="-3.792" x2="9.267" x1="9.267" style="fill:none;stroke:#000000;stroke-width:0.3;" y2="-0.754"/>
  <line y1="-3.814" x2="9.267" x1="9.267" style="fill:none;stroke:#000000;stroke-width:0.3;" y2="-3.792"/>
  <line y1="-3.792" x2="22.26" x1="22.26" style="fill:none;stroke:#000000;stroke-width:0.3;" y2="-0.754"/>
  <line y1="-3.792" x2="22.26" x1="22.26" style="fill:none;stroke:#000000;stroke-width:0.3;" y2="-3.814"/>
  <line y1="-0.754" x2="22.26" x1="22.26" style="fill:none;stroke:#000000;stroke-width:0.3;" y2="-0.697"/>
  <line y1="-0.697" x2="34.522" x1="34.522" style="fill:none;stroke:#000000;stroke-width:0.3;" y2="-0.754"/>
  <line y1="-3.792" x2="34.522" x1="34.522" style="fill:none;stroke:#000000;stroke-width:0.3;" y2="-0.754"/>
  <line y1="-3.814" x2="34.522" x1="34.522" style="fill:none;stroke:#000000;stroke-width:0.3;" y2="-3.792"/>
  <line y1="-3.792" x2="46.56" x1="46.56" style="fill:none;stroke:#000000;stroke-width:0.3;" y2="-3.814"/>
  <line y1="-3.792" x2="46.56" x1="46.56" style="fill:none;stroke:#000000;stroke-width:0.3;" y2="-0.754"/>
  <line y1="-0.754" x2="46.56" x1="46.56" style="fill:none;stroke:#000000;stroke-width:0.3;" y2="-0.697"/>
  <line y1="-38.343" x2="3.837" x1="3.837" style="fill:none;stroke:#000000;stroke-width:0.3;" y2="-38.369"/>
  <line y1="-38.369" x2="3.837" x1="3.837" style="fill:none;stroke:#000000;stroke-width:0.3;" y2="-39.968"/>
  <line y1="-38.343" x2="19.774" x1="19.774" style="fill:none;stroke:#000000;stroke-width:0.3;" y2="-38.369"/>
  <line y1="-38.369" x2="19.774" x1="19.774" style="fill:none;stroke:#000000;stroke-width:0.3;" y2="-39.968"/>
  <line y1="-38.343" x2="36.648" x1="36.648" style="fill:none;stroke:#000000;stroke-width:0.3;" y2="-38.369"/>
  <line y1="-38.369" x2="36.648" x1="36.648" style="fill:none;stroke:#000000;stroke-width:0.3;" y2="-39.968"/>
  <line y1="-31.36" x2="4.254" x1="4.254" style="fill:none;stroke:#000000;stroke-width:0.3;" y2="-31.353"/>
  <line y1="-31.36" x2="4.254" x1="4.254" style="fill:none;stroke:#000000;stroke-width:0.3;" y2="-32.978"/>
  <line y1="-32.978" x2="20.475" x1="20.475" style="fill:none;stroke:#000000;stroke-width:0.3;" y2="-31.36"/>
  <line y1="-31.36" x2="20.475" x1="20.475" style="fill:none;stroke:#000000;stroke-width:0.3;" y2="-31.353"/>
  <line y1="-31.36" x2="36.555" x1="36.555" style="fill:none;stroke:#000000;stroke-width:0.3;" y2="-31.353"/>
  <line y1="-31.36" x2="36.555" x1="36.555" style="fill:none;stroke:#000000;stroke-width:0.3;" y2="-32.978"/>
  <line y1="-36.197" x2="15.191" x1="15.191" style="fill:none;stroke:#000000;stroke-width:0.3;" y2="-34.572"/>
  <line y1="-36.197" x2="31.129" x1="31.129" style="fill:none;stroke:#000000;stroke-width:0.3;" y2="-34.572"/>
  <line y1="-34.572" x2="47.086" x1="47.086" style="fill:none;stroke:#000000;stroke-width:0.3;" y2="-36.197"/>
  <line y1="-13.488" x2="0" x1="1.224" style="fill:none;stroke:#000000;stroke-width:0.3;" y2="-13.488"/>
  <line y1="-13.488" x2="4.688" x1="3.546" style="fill:none;stroke:#000000;stroke-width:0.3;" y2="-13.488"/>
  <line y1="-13.488" x2="4.688" x1="9.278" style="fill:none;stroke:#000000;stroke-width:0.3;" y2="-13.488"/>
  <line y1="-13.488" x2="11.571" x1="17.303" style="fill:none;stroke:#000000;stroke-width:0.3;" y2="-13.488"/>
  <line y1="-13.488" x2="19.596" x1="20.625" style="fill:none;stroke:#000000;stroke-width:0.3;" y2="-13.488"/>
  <line y1="-13.488" x2="20.625" x1="25.328" style="fill:none;stroke:#000000;stroke-width:0.3;" y2="-13.488"/>
  <line y1="-13.488" x2="33.353" x1="27.621" style="fill:none;stroke:#000000;stroke-width:0.3;" y2="-13.488"/>
  <line y1="-13.488" x2="36.27" x1="37.499" style="fill:none;stroke:#000000;stroke-width:0.3;" y2="-13.488"/>
  <line y1="-13.488" x2="42.001" x1="37.499" style="fill:none;stroke:#000000;stroke-width:0.3;" y2="-13.488"/>
  <line y1="-13.488" x2="48.712" x1="44.181" style="fill:none;stroke:#000000;stroke-width:0.3;" y2="-13.488"/>
  <line y1="-9.687" x2="0" x1="4.37" style="fill:none;stroke:#000000;stroke-width:0.3;" y2="-9.687"/>
  <line y1="-9.687" x2="12.396" x1="6.663" style="fill:none;stroke:#000000;stroke-width:0.3;" y2="-9.687"/>
  <line y1="-9.687" x2="20.42" x1="14.689" style="fill:none;stroke:#000000;stroke-width:0.3;" y2="-9.687"/>
  <line y1="-9.687" x2="28.445" x1="22.713" style="fill:none;stroke:#000000;stroke-width:0.3;" y2="-9.687"/>
  <line y1="-9.687" x2="36.47" x1="30.738" style="fill:none;stroke:#000000;stroke-width:0.3;" y2="-9.687"/>
  <line y1="-9.687" x2="44.495" x1="38.763" style="fill:none;stroke:#000000;stroke-width:0.3;" y2="-9.687"/>
  <line y1="-9.687" x2="48.712" x1="46.788" style="fill:none;stroke:#000000;stroke-width:0.3;" y2="-9.687"/>
  <line y1="-6.479" x2="1.618" x1="0" style="fill:none;stroke:#000000;stroke-width:0.3;" y2="-6.479"/>
  <line y1="-6.479" x2="3.94" x1="5.104" style="fill:none;stroke:#000000;stroke-width:0.3;" y2="-6.479"/>
  <line y1="-6.479" x2="9.673" x1="5.104" style="fill:none;stroke:#000000;stroke-width:0.3;" y2="-6.479"/>
  <line y1="-6.479" x2="11.966" x1="17.697" style="fill:none;stroke:#000000;stroke-width:0.3;" y2="-6.479"/>
  <line y1="-6.479" x2="19.99" x1="21.325" style="fill:none;stroke:#000000;stroke-width:0.3;" y2="-6.479"/>
  <line y1="-6.479" x2="21.325" x1="25.723" style="fill:none;stroke:#000000;stroke-width:0.3;" y2="-6.479"/>
  <line y1="-6.479" x2="28.016" x1="33.747" style="fill:none;stroke:#000000;stroke-width:0.3;" y2="-6.479"/>
  <line y1="-6.479" x2="36.04" x1="37.405" style="fill:none;stroke:#000000;stroke-width:0.3;" y2="-6.479"/>
  <line y1="-6.479" x2="37.405" x1="41.772" style="fill:none;stroke:#000000;stroke-width:0.3;" y2="-6.479"/>
  <line y1="-6.479" x2="48.712" x1="44.065" style="fill:none;stroke:#000000;stroke-width:0.3;" y2="-6.479"/>
  <line y1="-13.462" x2="4.688" x1="4.688" style="fill:none;stroke:#000000;stroke-width:0.3;" y2="-13.488"/>
  <line y1="-15.087" x2="4.688" x1="4.688" style="fill:none;stroke:#000000;stroke-width:0.3;" y2="-13.488"/>
  <line y1="-13.488" x2="20.625" x1="20.625" style="fill:none;stroke:#000000;stroke-width:0.3;" y2="-13.462"/>
  <line y1="-15.087" x2="20.625" x1="20.625" style="fill:none;stroke:#000000;stroke-width:0.3;" y2="-13.488"/>
  <line y1="-13.488" x2="37.499" x1="37.499" style="fill:none;stroke:#000000;stroke-width:0.3;" y2="-15.087"/>
  <line y1="-13.488" x2="37.499" x1="37.499" style="fill:none;stroke:#000000;stroke-width:0.3;" y2="-13.462"/>
  <line y1="-6.479" x2="5.104" x1="5.104" style="fill:none;stroke:#000000;stroke-width:0.3;" y2="-8.097"/>
  <line y1="-6.479" x2="5.104" x1="5.104" style="fill:none;stroke:#000000;stroke-width:0.3;" y2="-6.472"/>
  <line y1="-6.479" x2="21.325" x1="21.325" style="fill:none;stroke:#000000;stroke-width:0.3;" y2="-6.472"/>
  <line y1="-6.479" x2="21.325" x1="21.325" style="fill:none;stroke:#000000;stroke-width:0.3;" y2="-8.097"/>
  <line y1="-6.479" x2="37.405" x1="37.405" style="fill:none;stroke:#000000;stroke-width:0.3;" y2="-8.097"/>
  <line y1="-6.479" x2="37.405" x1="37.405" style="fill:none;stroke:#000000;stroke-width:0.3;" y2="-6.472"/>
  <line y1="-11.317" x2="16.042" x1="16.042" style="fill:none;stroke:#000000;stroke-width:0.3;" y2="-9.692"/>
  <line y1="-11.317" x2="31.979" x1="31.979" style="fill:none;stroke:#000000;stroke-width:0.3;" y2="-9.692"/>
  <line y1="-9.692" x2="47.937" x1="47.937" style="fill:none;stroke:#000000;stroke-width:0.3;" y2="-11.317"/>
  <rect x="0" width="48.712" y="-48.712" height="48.712" style="fill:none;"/>
 </g>
</svg>
