<?xml version="1.0"?>
<!-- Converted with SVG Converter - Version 0.9.5 (Compiled Fri Feb 21 09:53:38 2020) - Copyright (C) 2011 Nokia -->
<svg xmlns="http://www.w3.org/2000/svg" y="0px" xml:space="preserve" width="48.712" xmlns:xlink="http://www.w3.org/1999/xlink" height="48.712" viewBox="0 -48.712 48.712 48.712" version="1.1" x="0px" baseProfile="tiny">
 <g>
  <rect style="fill:none;" y="-48.712" width="48.712" height="48.712" x="0"/>
  <line style="fill:none;stroke:#000000;stroke-width:0.3;" y2="-38.369" x1="0.373" x2="0" y1="-38.369"/>
  <line style="fill:none;stroke:#000000;stroke-width:0.3;" y2="-38.369" x1="2.695" x2="3.837" y1="-38.369"/>
  <line style="fill:none;stroke:#000000;stroke-width:0.3;" y2="-38.369" x1="3.837" x2="8.428" y1="-38.369"/>
  <line style="fill:none;stroke:#000000;stroke-width:0.3;" y2="-38.369" x1="10.721" x2="16.452" y1="-38.369"/>
  <line style="fill:none;stroke:#000000;stroke-width:0.3;" y2="-38.369" x1="19.774" x2="24.478" y1="-38.369"/>
  <line style="fill:none;stroke:#000000;stroke-width:0.3;" y2="-38.369" x1="18.745" x2="19.774" y1="-38.369"/>
  <line style="fill:none;stroke:#000000;stroke-width:0.3;" y2="-38.369" x1="26.771" x2="32.502" y1="-38.369"/>
  <line style="fill:none;stroke:#000000;stroke-width:0.3;" y2="-38.369" x1="36.648" x2="41.15" y1="-38.369"/>
  <line style="fill:none;stroke:#000000;stroke-width:0.3;" y2="-38.369" x1="35.419" x2="36.648" y1="-38.369"/>
  <line style="fill:none;stroke:#000000;stroke-width:0.3;" y2="-38.369" x1="43.33" x2="48.712" y1="-38.369"/>
  <line style="fill:none;stroke:#000000;stroke-width:0.3;" y2="-34.568" x1="3.52" x2="0" y1="-34.568"/>
  <line style="fill:none;stroke:#000000;stroke-width:0.3;" y2="-34.568" x1="5.812" x2="11.545" y1="-34.568"/>
  <line style="fill:none;stroke:#000000;stroke-width:0.3;" y2="-34.568" x1="13.838" x2="19.569" y1="-34.568"/>
  <line style="fill:none;stroke:#000000;stroke-width:0.3;" y2="-34.568" x1="27.595" x2="21.862" y1="-34.568"/>
  <line style="fill:none;stroke:#000000;stroke-width:0.3;" y2="-34.568" x1="29.888" x2="35.619" y1="-34.568"/>
  <line style="fill:none;stroke:#000000;stroke-width:0.3;" y2="-34.568" x1="43.645" x2="37.912" y1="-34.568"/>
  <line style="fill:none;stroke:#000000;stroke-width:0.3;" y2="-34.568" x1="45.938" x2="48.712" y1="-34.568"/>
  <line style="fill:none;stroke:#000000;stroke-width:0.3;" y2="-31.36" x1="0" x2="0.768" y1="-31.36"/>
  <line style="fill:none;stroke:#000000;stroke-width:0.3;" y2="-31.36" x1="4.254" x2="8.822" y1="-31.36"/>
  <line style="fill:none;stroke:#000000;stroke-width:0.3;" y2="-31.36" x1="4.254" x2="3.09" y1="-31.36"/>
  <line style="fill:none;stroke:#000000;stroke-width:0.3;" y2="-31.36" x1="16.847" x2="11.115" y1="-31.36"/>
  <line style="fill:none;stroke:#000000;stroke-width:0.3;" y2="-31.36" x1="20.475" x2="19.14" y1="-31.36"/>
  <line style="fill:none;stroke:#000000;stroke-width:0.3;" y2="-31.36" x1="24.872" x2="20.475" y1="-31.36"/>
  <line style="fill:none;stroke:#000000;stroke-width:0.3;" y2="-31.36" x1="27.165" x2="32.896" y1="-31.36"/>
  <line style="fill:none;stroke:#000000;stroke-width:0.3;" y2="-31.36" x1="36.555" x2="35.189" y1="-31.36"/>
  <line style="fill:none;stroke:#000000;stroke-width:0.3;" y2="-31.36" x1="36.555" x2="40.922" y1="-31.36"/>
  <line style="fill:none;stroke:#000000;stroke-width:0.3;" y2="-31.36" x1="43.215" x2="48.712" y1="-31.36"/>
  <line style="fill:none;stroke:#000000;stroke-width:0.3;" y2="-45.337" x1="11.34" x2="16.808" y1="-45.337"/>
  <line style="fill:none;stroke:#000000;stroke-width:0.3;" y2="-45.337" x1="24.728" x2="16.808" y1="-45.337"/>
  <line style="fill:none;stroke:#000000;stroke-width:0.3;" y2="-45.337" x1="24.728" x2="28.957" y1="-45.337"/>
  <line style="fill:none;stroke:#000000;stroke-width:0.3;" y2="-45.337" x1="41.895" x2="48.532" y1="-45.337"/>
  <line style="fill:none;stroke:#000000;stroke-width:0.3;" y2="-45.337" x1="36.989" x2="28.957" y1="-45.337"/>
  <line style="fill:none;stroke:#000000;stroke-width:0.3;" y2="-45.337" x1="48.532" x2="48.712" y1="-45.337"/>
  <line style="fill:none;stroke:#000000;stroke-width:0.3;" y2="-45.337" x1="41.895" x2="36.989" y1="-45.337"/>
  <line style="fill:none;stroke:#000000;stroke-width:0.3;" y2="-45.337" x1="11.34" x2="5.332" y1="-45.337"/>
  <line style="fill:none;stroke:#000000;stroke-width:0.3;" y2="-45.337" x1="0" x2="5.332" y1="-45.337"/>
  <line style="fill:none;stroke:#000000;stroke-width:0.3;" y2="-41.58" x1="0" x2="48.712" y1="-41.58"/>
  <line style="fill:none;stroke:#000000;stroke-width:0.3;" y2="-28.159" x1="5.996" x2="18.146" y1="-28.159"/>
  <line style="fill:none;stroke:#000000;stroke-width:0.3;" y2="-28.159" x1="43.796" x2="30.408" y1="-28.159"/>
  <line style="fill:none;stroke:#000000;stroke-width:0.3;" y2="-28.159" x1="30.408" x2="18.146" y1="-28.159"/>
  <line style="fill:none;stroke:#000000;stroke-width:0.3;" y2="-28.159" x1="5.996" x2="0" y1="-28.159"/>
  <line style="fill:none;stroke:#000000;stroke-width:0.3;" y2="-28.159" x1="43.796" x2="48.712" y1="-28.159"/>
  <line style="fill:none;stroke:#000000;stroke-width:0.3;" y2="-24.514" x1="0" x2="48.712" y1="-24.514"/>
  <line style="fill:none;stroke:#000000;stroke-width:0.3;" y2="-21.094" x1="0" x2="48.712" y1="-21.094"/>
  <line style="fill:none;stroke:#000000;stroke-width:0.3;" y2="-17.314" x1="0" x2="48.712" y1="-17.314"/>
  <line style="fill:none;stroke:#000000;stroke-width:0.3;" y2="-0.754" x1="46.56" x2="41.895" y1="-0.754"/>
  <line style="fill:none;stroke:#000000;stroke-width:0.3;" y2="-0.754" x1="0" x2="5.332" y1="-0.754"/>
  <line style="fill:none;stroke:#000000;stroke-width:0.3;" y2="-0.754" x1="5.332" x2="9.267" y1="-0.754"/>
  <line style="fill:none;stroke:#000000;stroke-width:0.3;" y2="-0.754" x1="46.56" x2="48.712" y1="-0.754"/>
  <line style="fill:none;stroke:#000000;stroke-width:0.3;" y2="-0.754" x1="16.808" x2="9.267" y1="-0.754"/>
  <line style="fill:none;stroke:#000000;stroke-width:0.3;" y2="-0.754" x1="41.895" x2="34.522" y1="-0.754"/>
  <line style="fill:none;stroke:#000000;stroke-width:0.3;" y2="-0.754" x1="28.957" x2="34.522" y1="-0.754"/>
  <line style="fill:none;stroke:#000000;stroke-width:0.3;" y2="-0.754" x1="22.26" x2="28.957" y1="-0.754"/>
  <line style="fill:none;stroke:#000000;stroke-width:0.3;" y2="-0.754" x1="22.26" x2="16.808" y1="-0.754"/>
  <line style="fill:none;stroke:#000000;stroke-width:0.3;" y2="-45.337" x1="5.332" x2="5.332" y1="-48.712"/>
  <line style="fill:none;stroke:#000000;stroke-width:0.3;" y2="-45.337" x1="16.808" x2="16.808" y1="-48.712"/>
  <line style="fill:none;stroke:#000000;stroke-width:0.3;" y2="-45.337" x1="28.957" x2="28.957" y1="-48.712"/>
  <line style="fill:none;stroke:#000000;stroke-width:0.3;" y2="-48.712" x1="41.895" x2="41.895" y1="-45.337"/>
  <line style="fill:none;stroke:#000000;stroke-width:0.3;" y2="-0.754" x1="5.332" x2="5.332" y1="-0.765"/>
  <line style="fill:none;stroke:#000000;stroke-width:0.3;" y2="-0.754" x1="5.332" x2="5.332" y1="-0.001"/>
  <line style="fill:none;stroke:#000000;stroke-width:0.3;" y2="-0.754" x1="16.808" x2="16.808" y1="-0.765"/>
  <line style="fill:none;stroke:#000000;stroke-width:0.3;" y2="-0.754" x1="16.808" x2="16.808" y1="-0.001"/>
  <line style="fill:none;stroke:#000000;stroke-width:0.3;" y2="-0.754" x1="28.957" x2="28.957" y1="-0.001"/>
  <line style="fill:none;stroke:#000000;stroke-width:0.3;" y2="-0.754" x1="28.957" x2="28.957" y1="-0.765"/>
  <line style="fill:none;stroke:#000000;stroke-width:0.3;" y2="-0.754" x1="41.895" x2="41.895" y1="-0.001"/>
  <line style="fill:none;stroke:#000000;stroke-width:0.3;" y2="-0.754" x1="41.895" x2="41.895" y1="-0.765"/>
  <line style="fill:none;stroke:#000000;stroke-width:0.3;" y2="-41.591" x1="11.34" x2="11.34" y1="-45.337"/>
  <line style="fill:none;stroke:#000000;stroke-width:0.3;" y2="-45.394" x1="11.34" x2="11.34" y1="-45.337"/>
  <line style="fill:none;stroke:#000000;stroke-width:0.3;" y2="-41.591" x1="24.728" x2="24.728" y1="-45.337"/>
  <line style="fill:none;stroke:#000000;stroke-width:0.3;" y2="-45.394" x1="24.728" x2="24.728" y1="-45.337"/>
  <line style="fill:none;stroke:#000000;stroke-width:0.3;" y2="-41.591" x1="36.989" x2="36.989" y1="-45.337"/>
  <line style="fill:none;stroke:#000000;stroke-width:0.3;" y2="-45.337" x1="36.989" x2="36.989" y1="-45.394"/>
  <line style="fill:none;stroke:#000000;stroke-width:0.3;" y2="-45.337" x1="48.532" x2="48.532" y1="-41.591"/>
  <line style="fill:none;stroke:#000000;stroke-width:0.3;" y2="-24.525" x1="5.996" x2="5.996" y1="-28.159"/>
  <line style="fill:none;stroke:#000000;stroke-width:0.3;" y2="-28.159" x1="5.996" x2="5.996" y1="-28.17"/>
  <line style="fill:none;stroke:#000000;stroke-width:0.3;" y2="-28.159" x1="18.146" x2="18.146" y1="-28.17"/>
  <line style="fill:none;stroke:#000000;stroke-width:0.3;" y2="-28.159" x1="18.146" x2="18.146" y1="-24.525"/>
  <line style="fill:none;stroke:#000000;stroke-width:0.3;" y2="-28.159" x1="30.408" x2="30.408" y1="-28.17"/>
  <line style="fill:none;stroke:#000000;stroke-width:0.3;" y2="-24.525" x1="30.408" x2="30.408" y1="-28.159"/>
  <line style="fill:none;stroke:#000000;stroke-width:0.3;" y2="-24.525" x1="43.796" x2="43.796" y1="-28.159"/>
  <line style="fill:none;stroke:#000000;stroke-width:0.3;" y2="-28.17" x1="43.796" x2="43.796" y1="-28.159"/>
  <line style="fill:none;stroke:#000000;stroke-width:0.3;" y2="-21.105" x1="36.033" x2="36.033" y1="-24.469"/>
  <line style="fill:none;stroke:#000000;stroke-width:0.3;" y2="-21.105" x1="24.041" x2="24.041" y1="-24.469"/>
  <line style="fill:none;stroke:#000000;stroke-width:0.3;" y2="-21.105" x1="10.541" x2="10.541" y1="-24.469"/>
  <line style="fill:none;stroke:#000000;stroke-width:0.3;" y2="-21.105" x1="47.939" x2="47.939" y1="-24.469"/>
  <line style="fill:none;stroke:#000000;stroke-width:0.3;" y2="-17.325" x1="4.973" x2="4.973" y1="-21.049"/>
  <line style="fill:none;stroke:#000000;stroke-width:0.3;" y2="-17.325" x1="16.673" x2="16.673" y1="-21.049"/>
  <line style="fill:none;stroke:#000000;stroke-width:0.3;" y2="-17.325" x1="28.935" x2="28.935" y1="-21.049"/>
  <line style="fill:none;stroke:#000000;stroke-width:0.3;" y2="-21.049" x1="41.76" x2="41.76" y1="-17.325"/>
  <line style="fill:none;stroke:#000000;stroke-width:0.3;" y2="-3.792" x1="46.56" x2="34.522" y1="-3.792"/>
  <line style="fill:none;stroke:#000000;stroke-width:0.3;" y2="-3.792" x1="22.26" x2="9.267" y1="-3.792"/>
  <line style="fill:none;stroke:#000000;stroke-width:0.3;" y2="-3.792" x1="0" x2="9.267" y1="-3.792"/>
  <line style="fill:none;stroke:#000000;stroke-width:0.3;" y2="-3.792" x1="46.56" x2="48.712" y1="-3.792"/>
  <line style="fill:none;stroke:#000000;stroke-width:0.3;" y2="-3.792" x1="22.26" x2="34.522" y1="-3.792"/>
  <line style="fill:none;stroke:#000000;stroke-width:0.3;" y2="-0.754" x1="9.267" x2="9.267" y1="-0.697"/>
  <line style="fill:none;stroke:#000000;stroke-width:0.3;" y2="-0.754" x1="9.267" x2="9.267" y1="-3.792"/>
  <line style="fill:none;stroke:#000000;stroke-width:0.3;" y2="-3.792" x1="9.267" x2="9.267" y1="-3.814"/>
  <line style="fill:none;stroke:#000000;stroke-width:0.3;" y2="-0.754" x1="22.26" x2="22.26" y1="-3.792"/>
  <line style="fill:none;stroke:#000000;stroke-width:0.3;" y2="-3.814" x1="22.26" x2="22.26" y1="-3.792"/>
  <line style="fill:none;stroke:#000000;stroke-width:0.3;" y2="-0.697" x1="22.26" x2="22.26" y1="-0.754"/>
  <line style="fill:none;stroke:#000000;stroke-width:0.3;" y2="-0.754" x1="34.522" x2="34.522" y1="-0.697"/>
  <line style="fill:none;stroke:#000000;stroke-width:0.3;" y2="-0.754" x1="34.522" x2="34.522" y1="-3.792"/>
  <line style="fill:none;stroke:#000000;stroke-width:0.3;" y2="-3.792" x1="34.522" x2="34.522" y1="-3.814"/>
  <line style="fill:none;stroke:#000000;stroke-width:0.3;" y2="-3.814" x1="46.56" x2="46.56" y1="-3.792"/>
  <line style="fill:none;stroke:#000000;stroke-width:0.3;" y2="-0.754" x1="46.56" x2="46.56" y1="-3.792"/>
  <line style="fill:none;stroke:#000000;stroke-width:0.3;" y2="-0.697" x1="46.56" x2="46.56" y1="-0.754"/>
  <line style="fill:none;stroke:#000000;stroke-width:0.3;" y2="-38.369" x1="3.837" x2="3.837" y1="-38.343"/>
  <line style="fill:none;stroke:#000000;stroke-width:0.3;" y2="-39.968" x1="3.837" x2="3.837" y1="-38.369"/>
  <line style="fill:none;stroke:#000000;stroke-width:0.3;" y2="-38.369" x1="19.774" x2="19.774" y1="-38.343"/>
  <line style="fill:none;stroke:#000000;stroke-width:0.3;" y2="-39.968" x1="19.774" x2="19.774" y1="-38.369"/>
  <line style="fill:none;stroke:#000000;stroke-width:0.3;" y2="-38.369" x1="36.648" x2="36.648" y1="-38.343"/>
  <line style="fill:none;stroke:#000000;stroke-width:0.3;" y2="-39.968" x1="36.648" x2="36.648" y1="-38.369"/>
  <line style="fill:none;stroke:#000000;stroke-width:0.3;" y2="-31.353" x1="4.254" x2="4.254" y1="-31.36"/>
  <line style="fill:none;stroke:#000000;stroke-width:0.3;" y2="-32.978" x1="4.254" x2="4.254" y1="-31.36"/>
  <line style="fill:none;stroke:#000000;stroke-width:0.3;" y2="-31.36" x1="20.475" x2="20.475" y1="-32.978"/>
  <line style="fill:none;stroke:#000000;stroke-width:0.3;" y2="-31.353" x1="20.475" x2="20.475" y1="-31.36"/>
  <line style="fill:none;stroke:#000000;stroke-width:0.3;" y2="-31.353" x1="36.555" x2="36.555" y1="-31.36"/>
  <line style="fill:none;stroke:#000000;stroke-width:0.3;" y2="-32.978" x1="36.555" x2="36.555" y1="-31.36"/>
  <line style="fill:none;stroke:#000000;stroke-width:0.3;" y2="-34.572" x1="15.191" x2="15.191" y1="-36.197"/>
  <line style="fill:none;stroke:#000000;stroke-width:0.3;" y2="-34.572" x1="31.129" x2="31.129" y1="-36.197"/>
  <line style="fill:none;stroke:#000000;stroke-width:0.3;" y2="-36.197" x1="47.086" x2="47.086" y1="-34.572"/>
  <line style="fill:none;stroke:#000000;stroke-width:0.3;" y2="-13.488" x1="1.224" x2="0" y1="-13.488"/>
  <line style="fill:none;stroke:#000000;stroke-width:0.3;" y2="-13.488" x1="3.546" x2="4.688" y1="-13.488"/>
  <line style="fill:none;stroke:#000000;stroke-width:0.3;" y2="-13.488" x1="9.278" x2="4.688" y1="-13.488"/>
  <line style="fill:none;stroke:#000000;stroke-width:0.3;" y2="-13.488" x1="17.303" x2="11.571" y1="-13.488"/>
  <line style="fill:none;stroke:#000000;stroke-width:0.3;" y2="-13.488" x1="20.625" x2="19.596" y1="-13.488"/>
  <line style="fill:none;stroke:#000000;stroke-width:0.3;" y2="-13.488" x1="25.328" x2="20.625" y1="-13.488"/>
  <line style="fill:none;stroke:#000000;stroke-width:0.3;" y2="-13.488" x1="27.621" x2="33.353" y1="-13.488"/>
  <line style="fill:none;stroke:#000000;stroke-width:0.3;" y2="-13.488" x1="37.499" x2="36.27" y1="-13.488"/>
  <line style="fill:none;stroke:#000000;stroke-width:0.3;" y2="-13.488" x1="37.499" x2="42.001" y1="-13.488"/>
  <line style="fill:none;stroke:#000000;stroke-width:0.3;" y2="-13.488" x1="44.181" x2="48.712" y1="-13.488"/>
  <line style="fill:none;stroke:#000000;stroke-width:0.3;" y2="-9.687" x1="4.37" x2="0" y1="-9.687"/>
  <line style="fill:none;stroke:#000000;stroke-width:0.3;" y2="-9.687" x1="6.663" x2="12.396" y1="-9.687"/>
  <line style="fill:none;stroke:#000000;stroke-width:0.3;" y2="-9.687" x1="14.689" x2="20.42" y1="-9.687"/>
  <line style="fill:none;stroke:#000000;stroke-width:0.3;" y2="-9.687" x1="22.713" x2="28.445" y1="-9.687"/>
  <line style="fill:none;stroke:#000000;stroke-width:0.3;" y2="-9.687" x1="30.738" x2="36.47" y1="-9.687"/>
  <line style="fill:none;stroke:#000000;stroke-width:0.3;" y2="-9.687" x1="38.763" x2="44.495" y1="-9.687"/>
  <line style="fill:none;stroke:#000000;stroke-width:0.3;" y2="-9.687" x1="46.788" x2="48.712" y1="-9.687"/>
  <line style="fill:none;stroke:#000000;stroke-width:0.3;" y2="-6.479" x1="0" x2="1.618" y1="-6.479"/>
  <line style="fill:none;stroke:#000000;stroke-width:0.3;" y2="-6.479" x1="5.104" x2="3.94" y1="-6.479"/>
  <line style="fill:none;stroke:#000000;stroke-width:0.3;" y2="-6.479" x1="5.104" x2="9.673" y1="-6.479"/>
  <line style="fill:none;stroke:#000000;stroke-width:0.3;" y2="-6.479" x1="17.697" x2="11.966" y1="-6.479"/>
  <line style="fill:none;stroke:#000000;stroke-width:0.3;" y2="-6.479" x1="21.325" x2="19.99" y1="-6.479"/>
  <line style="fill:none;stroke:#000000;stroke-width:0.3;" y2="-6.479" x1="25.723" x2="21.325" y1="-6.479"/>
  <line style="fill:none;stroke:#000000;stroke-width:0.3;" y2="-6.479" x1="33.747" x2="28.016" y1="-6.479"/>
  <line style="fill:none;stroke:#000000;stroke-width:0.3;" y2="-6.479" x1="37.405" x2="36.04" y1="-6.479"/>
  <line style="fill:none;stroke:#000000;stroke-width:0.3;" y2="-6.479" x1="41.772" x2="37.405" y1="-6.479"/>
  <line style="fill:none;stroke:#000000;stroke-width:0.3;" y2="-6.479" x1="44.065" x2="48.712" y1="-6.479"/>
  <line style="fill:none;stroke:#000000;stroke-width:0.3;" y2="-13.488" x1="4.688" x2="4.688" y1="-13.462"/>
  <line style="fill:none;stroke:#000000;stroke-width:0.3;" y2="-13.488" x1="4.688" x2="4.688" y1="-15.087"/>
  <line style="fill:none;stroke:#000000;stroke-width:0.3;" y2="-13.462" x1="20.625" x2="20.625" y1="-13.488"/>
  <line style="fill:none;stroke:#000000;stroke-width:0.3;" y2="-13.488" x1="20.625" x2="20.625" y1="-15.087"/>
  <line style="fill:none;stroke:#000000;stroke-width:0.3;" y2="-15.087" x1="37.499" x2="37.499" y1="-13.488"/>
  <line style="fill:none;stroke:#000000;stroke-width:0.3;" y2="-13.462" x1="37.499" x2="37.499" y1="-13.488"/>
  <line style="fill:none;stroke:#000000;stroke-width:0.3;" y2="-8.097" x1="5.104" x2="5.104" y1="-6.479"/>
  <line style="fill:none;stroke:#000000;stroke-width:0.3;" y2="-6.472" x1="5.104" x2="5.104" y1="-6.479"/>
  <line style="fill:none;stroke:#000000;stroke-width:0.3;" y2="-6.472" x1="21.325" x2="21.325" y1="-6.479"/>
  <line style="fill:none;stroke:#000000;stroke-width:0.3;" y2="-8.097" x1="21.325" x2="21.325" y1="-6.479"/>
  <line style="fill:none;stroke:#000000;stroke-width:0.3;" y2="-8.097" x1="37.405" x2="37.405" y1="-6.479"/>
  <line style="fill:none;stroke:#000000;stroke-width:0.3;" y2="-6.472" x1="37.405" x2="37.405" y1="-6.479"/>
  <line style="fill:none;stroke:#000000;stroke-width:0.3;" y2="-9.692" x1="16.042" x2="16.042" y1="-11.317"/>
  <line style="fill:none;stroke:#000000;stroke-width:0.3;" y2="-9.692" x1="31.979" x2="31.979" y1="-11.317"/>
  <line style="fill:none;stroke:#000000;stroke-width:0.3;" y2="-11.317" x1="47.937" x2="47.937" y1="-9.692"/>
  <rect style="fill:none;" y="-48.712" width="48.712" height="48.712" x="0"/>
 </g>
</svg>
