<?xml version="1.0"?>
<!-- Converted with SVG Converter - Version 0.9.5 (Compiled Fri Feb 21 09:53:38 2020) - Copyright (C) 2011 Nokia -->
<svg xmlns="http://www.w3.org/2000/svg" xmlns:xlink="http://www.w3.org/1999/xlink" height="54.125" width="54.125" baseProfile="tiny" x="0px" xml:space="preserve" version="1.1" viewBox="0 -54.125 54.125 54.125" y="0px">
 <g>
  <rect height="54.125" width="54.125" y="-54.125" style="fill:none;"/>
  <circle r="1.015" cy="-2.099" cx="41.517" style="fill:none;stroke:#000000;stroke-width:0.43;"/>
  <circle r="1.015" cy="-13.742" cx="8.018" style="fill:none;stroke:#000000;stroke-width:0.43;"/>
  <circle r="1.015" cy="-2.791" cx="14.94" style="fill:none;stroke:#000000;stroke-width:0.43;"/>
  <circle r="1.015" cy="-12.686" cx="21.395" style="fill:none;stroke:#000000;stroke-width:0.43;"/>
  <circle r="1.015" cy="-7.849" cx="35.116" style="fill:none;stroke:#000000;stroke-width:0.43;"/>
  <circle r="1.015" cy="-13.408" cx="40.822" style="fill:none;stroke:#000000;stroke-width:0.43;"/>
  <circle r="1.015" cy="-18.811" cx="52.875" style="fill:none;stroke:#000000;stroke-width:0.43;"/>
  <circle r="1.015" cy="-15.351" cx="29.388" style="fill:none;stroke:#000000;stroke-width:0.43;"/>
  <path d="M31.552-14.392c0,0,2.927-2.548,2.609-3.503" style="fill:none;stroke:#000000;stroke-width:0.43;"/>
  <line x1="40.712" x2="39.598" y1="-16.193" y2="-19.535" style="fill:none;stroke:#000000;stroke-width:0.43;"/>
  <path d="M44.848-49.699c0.636-0.318-1.432,1.91-1.273,3.182" style="fill:none;stroke:#000000;stroke-width:0.43;"/>
  <path d="M46.133-9.068c-0.796-0.16,2.705-1.274,3.341-2.069" style="fill:none;stroke:#000000;stroke-width:0.43;"/>
  <path d="M9.188-6.76c-0.796-0.159,2.705-1.273,3.341-2.068" style="fill:none;stroke:#000000;stroke-width:0.43;"/>
  <path d="M21.388-6.731c-3.079,0-2.989-0.619-4.614-1.114" style="fill:none;stroke:#000000;stroke-width:0.43;"/>
  <line x1="0.706" x2="5.479" y1="-37.427" y2="-37.109" style="fill:none;stroke:#000000;stroke-width:0.43;"/>
  <path d="M33.195-39.949c-0.955,0-3.501-1.275-3.66-2.07" style="fill:none;stroke:#000000;stroke-width:0.43;"/>
  <path d="M5.241-0.982c-0.955,0-3.5-1.273-3.66-2.068" style="fill:none;stroke:#000000;stroke-width:0.43;"/>
  <path d="M17.565-14.003c0.167-0.666-3.015,1.245-2.756,1.899" style="fill:none;stroke:#000000;stroke-width:0.43;"/>
  <circle r="1.015" cy="-37.573" cx="10.932" style="fill:none;stroke:#000000;stroke-width:0.43;"/>
  <circle r="1.015" cy="-30.226" cx="14.068" style="fill:none;stroke:#000000;stroke-width:0.43;"/>
  <circle r="1.015" cy="-30.56" cx="32.94" style="fill:none;stroke:#000000;stroke-width:0.43;"/>
  <circle r="1.015" cy="-37.554" cx="52.367" style="fill:none;stroke:#000000;stroke-width:0.43;"/>
  <path d="M34.836-33.49c0,0,3.471-1.361,3.653-2.352" style="fill:none;stroke:#000000;stroke-width:0.43;"/>
  <path d="M48.782-18.769c-0.159-1.273,1.91-3.501,1.272-3.183" style="fill:none;stroke:#000000;stroke-width:0.43;"/>
  <path d="M44.068-27.023c-0.796-0.158,2.704-1.273,3.341-2.068" style="fill:none;stroke:#000000;stroke-width:0.43;"/>
  <path d="M22.924-25.83c0,0-3.978,2.547-4.933,2.547" style="fill:none;stroke:#000000;stroke-width:0.43;"/>
  <path d="M13.528-15.829c-1.652,0.009-2.965-1.265-3.442-1.899" style="fill:none;stroke:#000000;stroke-width:0.43;"/>
  <path d="M5.88-29.729c0,0,2.882-1.511,3.041-2.465" style="fill:none;stroke:#000000;stroke-width:0.43;"/>
  <path d="M21.728-35.65c-0.167-0.277,4.496-1.276,4.496-1.832" style="fill:none;stroke:#000000;stroke-width:0.43;"/>
  <path d="M31.039-22.329c0.16,0.796,3.023-1.433,3.979-1.433" style="fill:none;stroke:#000000;stroke-width:0.43;"/>
  <line x1="2.24" x2="4.149" y1="-48.307" y2="-51.172" style="fill:none;stroke:#000000;stroke-width:0.43;"/>
  <circle r="1.015" cy="-41.438" cx="45.928" style="fill:none;stroke:#000000;stroke-width:0.43;"/>
  <circle r="1.015" cy="-43.623" cx="13.327" style="fill:none;stroke:#000000;stroke-width:0.43;"/>
  <circle r="1.015" cy="-45.769" cx="27.5" style="fill:none;stroke:#000000;stroke-width:0.43;"/>
  <circle r="1.015" cy="-51.309" cx="41.562" style="fill:none;stroke:#000000;stroke-width:0.43;"/>
  <circle r="1.015" cy="-52.485" cx="52.478" style="fill:none;stroke:#000000;stroke-width:0.43;"/>
  <path d="M21.5-48.828c-0.796-0.158,2.705-1.272,3.341-2.067" style="fill:none;stroke:#000000;stroke-width:0.43;"/>
  <path d="M24.012-42.561c-0.875,0-0.596,0.109-4.615-1.113" style="fill:none;stroke:#000000;stroke-width:0.43;"/>
  <path d="M9.327-43.025c-0.955-0.16-2.864-0.479-3.342-1.115" style="fill:none;stroke:#000000;stroke-width:0.43;"/>
  <path d="M22.099-18.514c0.478,0.637,2.864-1.273,3.819-1.113" style="fill:none;stroke:#000000;stroke-width:0.43;"/>
  <path d="M35.146-50.431c0.159,0.796,2.705,2.068,3.659,2.068" style="fill:none;stroke:#000000;stroke-width:0.43;"/>
  <line x1="13.526" x2="15.435" y1="-50.882" y2="-53.746" style="fill:none;stroke:#000000;stroke-width:0.43;"/>
  <circle r="0.44" cy="-42.472" cx="35.561" style="stroke:#000000;stroke-width:0;"/>
  <circle r="0.44" cy="-49.078" cx="25.946" style="stroke:#000000;stroke-width:0;"/>
  <circle r="0.44" cy="-51.237" cx="10.586" style="stroke:#000000;stroke-width:0;"/>
  <circle r="0.44" cy="-47.807" cx="14.156" style="stroke:#000000;stroke-width:0;"/>
  <circle r="0.44" cy="-41.863" cx="17.565" style="stroke:#000000;stroke-width:0;"/>
  <circle r="0.44" cy="-41.436" cx="40.052" style="stroke:#000000;stroke-width:0;"/>
  <circle r="0.44" cy="-46.914" cx="41.155" style="stroke:#000000;stroke-width:0;"/>
  <circle r="0.44" cy="-44.439" cx="33.347" style="stroke:#000000;stroke-width:0;"/>
  <circle r="0.44" cy="-47.377" cx="48.841" style="stroke:#000000;stroke-width:0;"/>
  <circle r="0.44" cy="-44.389" cx="53.424" style="stroke:#000000;stroke-width:0;"/>
  <circle r="0.44" cy="-47.952" cx="51.335" style="stroke:#000000;stroke-width:0;"/>
  <circle r="0.439" cy="-51.052" cx="18.967" style="stroke:#000000;stroke-width:0;"/>
  <circle r="0.44" cy="-30.574" cx="37.253" style="stroke:#000000;stroke-width:0;"/>
  <circle r="0.439" cy="-27.957" cx="29.015" style="stroke:#000000;stroke-width:0;"/>
  <circle r="0.439" cy="-34.305" cx="23.383" style="stroke:#000000;stroke-width:0;"/>
  <circle r="0.44" cy="-37.146" cx="16.089" style="stroke:#000000;stroke-width:0;"/>
  <circle r="0.44" cy="-28.099" cx="16.483" style="stroke:#000000;stroke-width:0;"/>
  <circle r="0.44" cy="-18.47" cx="3.589" style="stroke:#000000;stroke-width:0;"/>
  <circle r="0.44" cy="-20.967" cx="10.477" style="stroke:#000000;stroke-width:0;"/>
  <circle r="0.44" cy="-27.89" cx="10.234" style="stroke:#000000;stroke-width:0;"/>
  <circle r="0.44" cy="-25.969" cx="4.448" style="stroke:#000000;stroke-width:0;"/>
  <circle r="0.44" cy="-25.429" cx="17.298" style="stroke:#000000;stroke-width:0;"/>
  <circle r="0.44" cy="-22.863" cx="39.751" style="stroke:#000000;stroke-width:0;"/>
  <circle r="0.44" cy="-24.774" cx="37.48" style="stroke:#000000;stroke-width:0;"/>
  <circle r="0.44" cy="-33.191" cx="29.111" style="stroke:#000000;stroke-width:0;"/>
  <circle r="0.44" cy="-38.441" cx="36.749" style="stroke:#000000;stroke-width:0;"/>
  <circle r="0.439" cy="-26.598" cx="47.649" style="stroke:#000000;stroke-width:0;"/>
  <circle r="0.44" cy="-28.631" cx="41.584" style="stroke:#000000;stroke-width:0;"/>
  <circle r="0.44" cy="-33.474" cx="45.553" style="stroke:#000000;stroke-width:0;"/>
  <circle r="0.44" cy="-34.723" cx="49.646" style="stroke:#000000;stroke-width:0;"/>
  <circle r="0.44" cy="-29.372" cx="51.865" style="stroke:#000000;stroke-width:0;"/>
  <circle r="0.439" cy="-33.537" cx="17.954" style="stroke:#000000;stroke-width:0;"/>
  <circle r="0.44" cy="-33.703" cx="7.518" style="stroke:#000000;stroke-width:0;"/>
  <circle r="0.44" cy="-31.151" cx="3.189" style="stroke:#000000;stroke-width:0;"/>
  <circle r="0.439" cy="-22.824" cx="1.08" style="stroke:#000000;stroke-width:0;"/>
  <circle r="0.44" cy="-40.305" cx="3.657" style="stroke:#000000;stroke-width:0;"/>
  <circle r="0.44" cy="-3.308" cx="34.196" style="stroke:#000000;stroke-width:0;"/>
  <circle r="0.44" cy="-7.033" cx="29.6" style="stroke:#000000;stroke-width:0;"/>
  <circle r="0.44" cy="-15.553" cx="25.336" style="stroke:#000000;stroke-width:0;"/>
  <circle r="0.44" cy="-3.047" cx="19.464" style="stroke:#000000;stroke-width:0;"/>
  <circle r="0.44" cy="-10.668" cx="11.459" style="stroke:#000000;stroke-width:0;"/>
  <circle r="0.44" cy="-9.701" cx="14.731" style="stroke:#000000;stroke-width:0;"/>
  <circle r="0.44" cy="-7.686" cx="2.581" style="stroke:#000000;stroke-width:0;"/>
  <circle r="0.44" cy="-8.27" cx="7.571" style="stroke:#000000;stroke-width:0;"/>
  <circle r="0.44" cy="-0.792" cx="23.675" style="stroke:#000000;stroke-width:0;"/>
  <circle r="0.44" cy="-6.561" cx="41.044" style="stroke:#000000;stroke-width:0;"/>
  <circle r="0.44" cy="-9.482" cx="38.756" style="stroke:#000000;stroke-width:0;"/>
  <circle r="0.44" cy="-14.373" cx="35.035" style="stroke:#000000;stroke-width:0;"/>
  <circle r="0.44" cy="-20.341" cx="35.035" style="stroke:#000000;stroke-width:0;"/>
  <circle r="0.44" cy="-22.785" cx="26.79" style="stroke:#000000;stroke-width:0;"/>
  <circle r="0.44" cy="-22.613" cx="21.425" style="stroke:#000000;stroke-width:0;"/>
  <circle r="0.44" cy="-52.922" cx="1.761" style="stroke:#000000;stroke-width:0;"/>
  <circle r="0.44" cy="-20" cx="17.242" style="stroke:#000000;stroke-width:0;"/>
  <circle r="0.44" cy="-7.867" cx="48.54" style="stroke:#000000;stroke-width:0;"/>
  <circle r="0.439" cy="-6.404" cx="50.784" style="stroke:#000000;stroke-width:0;"/>
  <circle r="0.44" cy="-15.43" cx="44.804" style="stroke:#000000;stroke-width:0;"/>
  <circle r="0.44" cy="-23.126" cx="47.94" style="stroke:#000000;stroke-width:0;"/>
  <circle r="0.44" cy="-12.037" cx="52.826" style="stroke:#000000;stroke-width:0;"/>
  <circle r="0.44" cy="-15.793" cx="19.402" style="stroke:#000000;stroke-width:0;"/>
  <circle r="0.44" cy="-15.445" cx="4.249" style="stroke:#000000;stroke-width:0;"/>
  <rect height="54.125" width="54.125" y="-54.125" style="fill:none;"/>
  <line x1="1.438" x2="1.438" y1="-39.684" y2="-39.684" style="fill:none;stroke:#000000;stroke-width:0.7;stroke-linecap:round;"/>
  <line x1="6.488" x2="6.488" y1="-40.621" y2="-40.621" style="fill:none;stroke:#000000;stroke-width:0.7;stroke-linecap:round;"/>
  <line x1="13.642" x2="13.642" y1="-38.275" y2="-38.275" style="fill:none;stroke:#000000;stroke-width:0.7;stroke-linecap:round;"/>
  <line x1="18.473" x2="18.473" y1="-38.809" y2="-38.809" style="fill:none;stroke:#000000;stroke-width:0.7;stroke-linecap:round;"/>
  <line x1="18.808" x2="18.808" y1="-36.111" y2="-36.111" style="fill:none;stroke:#000000;stroke-width:0.7;stroke-linecap:round;"/>
  <line x1="14.958" x2="14.958" y1="-34.682" y2="-34.682" style="fill:none;stroke:#000000;stroke-width:0.7;stroke-linecap:round;"/>
  <line x1="11.841" x2="11.841" y1="-34.908" y2="-34.908" style="fill:none;stroke:#000000;stroke-width:0.7;stroke-linecap:round;"/>
  <line x1="6.953" x2="6.953" y1="-36.103" y2="-36.103" style="fill:none;stroke:#000000;stroke-width:0.7;stroke-linecap:round;"/>
  <line x1="5.058" x2="5.058" y1="-31.271" y2="-31.271" style="fill:none;stroke:#000000;stroke-width:0.7;stroke-linecap:round;"/>
  <line x1="1.318" x2="1.318" y1="-31.602" y2="-31.602" style="fill:none;stroke:#000000;stroke-width:0.7;stroke-linecap:round;"/>
  <line x1="17.625" x2="17.625" y1="-49.125" y2="-49.125" style="fill:none;stroke:#000000;stroke-width:0.7;stroke-linecap:round;"/>
  <line x1="9.681" x2="9.681" y1="-41.105" y2="-41.105" style="fill:none;stroke:#000000;stroke-width:0.7;stroke-linecap:round;"/>
  <line x1="3.03" x2="3.03" y1="-42.867" y2="-42.867" style="fill:none;stroke:#000000;stroke-width:0.7;stroke-linecap:round;"/>
  <line x1="1.375" x2="1.375" y1="-50.25" y2="-50.25" style="fill:none;stroke:#000000;stroke-width:0.7;stroke-linecap:round;"/>
  <line x1="7.875" x2="7.875" y1="-51.75" y2="-51.75" style="fill:none;stroke:#000000;stroke-width:0.7;stroke-linecap:round;"/>
  <line x1="13.5" x2="13.5" y1="-49.875" y2="-49.875" style="fill:none;stroke:#000000;stroke-width:0.7;stroke-linecap:round;"/>
  <line x1="25.305" x2="25.305" y1="-43.926" y2="-43.926" style="fill:none;stroke:#000000;stroke-width:0.7;stroke-linecap:round;"/>
  <line x1="24.625" x2="24.625" y1="-47.5" y2="-47.5" style="fill:none;stroke:#000000;stroke-width:0.7;stroke-linecap:round;"/>
  <line x1="21.875" x2="21.875" y1="-50.75" y2="-50.75" style="fill:none;stroke:#000000;stroke-width:0.7;stroke-linecap:round;"/>
  <line x1="26" x2="26" y1="-51.875" y2="-51.875" style="fill:none;stroke:#000000;stroke-width:0.7;stroke-linecap:round;"/>
  <line x1="34.25" x2="34.25" y1="-53.523" y2="-53.523" style="fill:none;stroke:#000000;stroke-width:0.7;stroke-linecap:round;"/>
  <line x1="46.375" x2="46.375" y1="-48.25" y2="-48.25" style="fill:none;stroke:#000000;stroke-width:0.7;stroke-linecap:round;"/>
  <line x1="53.5" x2="53.5" y1="-48.625" y2="-48.625" style="fill:none;stroke:#000000;stroke-width:0.7;stroke-linecap:round;"/>
  <line x1="50.125" x2="50.125" y1="-50.375" y2="-50.375" style="fill:none;stroke:#000000;stroke-width:0.7;stroke-linecap:round;"/>
  <line x1="47.011" x2="47.011" y1="-44.232" y2="-44.232" style="fill:none;stroke:#000000;stroke-width:0.7;stroke-linecap:round;"/>
  <line x1="45" x2="45" y1="-51.625" y2="-51.625" style="fill:none;stroke:#000000;stroke-width:0.7;stroke-linecap:round;"/>
  <line x1="30.125" x2="30.125" y1="-44.902" y2="-44.902" style="fill:none;stroke:#000000;stroke-width:0.7;stroke-linecap:round;"/>
  <line x1="49.34" x2="49.34" y1="-30.215" y2="-30.215" style="fill:none;stroke:#000000;stroke-width:0.7;stroke-linecap:round;"/>
  <line x1="40.125" x2="40.125" y1="-30.5" y2="-30.5" style="fill:none;stroke:#000000;stroke-width:0.7;stroke-linecap:round;"/>
  <line x1="25.5" x2="25.5" y1="-33.5" y2="-33.5" style="fill:none;stroke:#000000;stroke-width:0.7;stroke-linecap:round;"/>
  <line x1="50.375" x2="50.375" y1="-45.5" y2="-45.5" style="fill:none;stroke:#000000;stroke-width:0.7;stroke-linecap:round;"/>
  <line x1="33.75" x2="33.75" y1="-49.25" y2="-49.25" style="fill:none;stroke:#000000;stroke-width:0.7;stroke-linecap:round;"/>
  <line x1="39.413" x2="39.413" y1="-49.803" y2="-49.803" style="fill:none;stroke:#000000;stroke-width:0.7;stroke-linecap:round;"/>
  <line x1="37.875" x2="37.875" y1="-51.75" y2="-51.75" style="fill:none;stroke:#000000;stroke-width:0.7;stroke-linecap:round;"/>
  <line x1="36.855" x2="36.855" y1="-45.085" y2="-45.085" style="fill:none;stroke:#000000;stroke-width:0.7;stroke-linecap:round;"/>
  <line x1="1.685" x2="1.685" y1="-25.277" y2="-25.277" style="fill:none;stroke:#000000;stroke-width:0.7;stroke-linecap:round;"/>
  <line x1="7.038" x2="7.038" y1="-27.203" y2="-27.203" style="fill:none;stroke:#000000;stroke-width:0.7;stroke-linecap:round;"/>
  <line x1="11.548" x2="11.548" y1="-29.842" y2="-29.842" style="fill:none;stroke:#000000;stroke-width:0.7;stroke-linecap:round;"/>
  <line x1="14.518" x2="14.518" y1="-27.203" y2="-27.203" style="fill:none;stroke:#000000;stroke-width:0.7;stroke-linecap:round;"/>
  <line x1="18.258" x2="18.258" y1="-29.842" y2="-29.842" style="fill:none;stroke:#000000;stroke-width:0.7;stroke-linecap:round;"/>
  <line x1="21.338" x2="21.338" y1="-33.473" y2="-33.473" style="fill:none;stroke:#000000;stroke-width:0.7;stroke-linecap:round;"/>
  <line x1="21.852" x2="21.852" y1="-37.869" y2="-37.869" style="fill:none;stroke:#000000;stroke-width:0.7;stroke-linecap:round;"/>
  <line x1="28.125" x2="28.125" y1="-36.125" y2="-36.125" style="fill:none;stroke:#000000;stroke-width:0.7;stroke-linecap:round;"/>
  <line x1="27.859" x2="27.859" y1="-40.57" y2="-40.57" style="fill:none;stroke:#000000;stroke-width:0.7;stroke-linecap:round;"/>
  <line x1="32.989" x2="32.989" y1="-42.016" y2="-42.016" style="fill:none;stroke:#000000;stroke-width:0.7;stroke-linecap:round;"/>
  <line x1="32.998" x2="32.998" y1="-37.102" y2="-37.102" style="fill:none;stroke:#000000;stroke-width:0.7;stroke-linecap:round;"/>
  <line x1="36.958" x2="36.958" y1="-36.002" y2="-36.002" style="fill:none;stroke:#000000;stroke-width:0.7;stroke-linecap:round;"/>
  <line x1="37.594" x2="37.594" y1="-40.992" y2="-40.992" style="fill:none;stroke:#000000;stroke-width:0.7;stroke-linecap:round;"/>
  <line x1="43" x2="43" y1="-42.375" y2="-42.375" style="fill:none;stroke:#000000;stroke-width:0.7;stroke-linecap:round;"/>
  <line x1="48.632" x2="48.632" y1="-40.869" y2="-40.869" style="fill:none;stroke:#000000;stroke-width:0.7;stroke-linecap:round;"/>
  <line x1="53.568" x2="53.568" y1="-41.611" y2="-41.611" style="fill:none;stroke:#000000;stroke-width:0.7;stroke-linecap:round;"/>
  <line x1="49.608" x2="49.608" y1="-36.771" y2="-36.771" style="fill:none;stroke:#000000;stroke-width:0.7;stroke-linecap:round;"/>
  <line x1="46.088" x2="46.088" y1="-35.672" y2="-35.672" style="fill:none;stroke:#000000;stroke-width:0.7;stroke-linecap:round;"/>
  <line x1="48.178" x2="48.178" y1="-32.592" y2="-32.592" style="fill:none;stroke:#000000;stroke-width:0.7;stroke-linecap:round;"/>
  <line x1="52.908" x2="52.908" y1="-34.902" y2="-34.902" style="fill:none;stroke:#000000;stroke-width:0.7;stroke-linecap:round;"/>
  <line x1="41.688" x2="41.688" y1="-33.582" y2="-33.582" style="fill:none;stroke:#000000;stroke-width:0.7;stroke-linecap:round;"/>
  <line x1="50.708" x2="50.708" y1="-27.203" y2="-27.203" style="fill:none;stroke:#000000;stroke-width:0.7;stroke-linecap:round;"/>
  <line x1="44.658" x2="44.658" y1="-29.291" y2="-29.291" style="fill:none;stroke:#000000;stroke-width:0.7;stroke-linecap:round;"/>
  <line x1="38.718" x2="38.718" y1="-26.762" y2="-26.762" style="fill:none;stroke:#000000;stroke-width:0.7;stroke-linecap:round;"/>
  <line x1="35.263" x2="35.263" y1="-28.77" y2="-28.77" style="fill:none;stroke:#000000;stroke-width:0.7;stroke-linecap:round;"/>
  <line x1="30.688" x2="30.688" y1="-30.283" y2="-30.283" style="fill:none;stroke:#000000;stroke-width:0.7;stroke-linecap:round;"/>
  <line x1="32.668" x2="32.668" y1="-26.652" y2="-26.652" style="fill:none;stroke:#000000;stroke-width:0.7;stroke-linecap:round;"/>
  <line x1="42.289" x2="42.289" y1="-22.848" y2="-22.848" style="fill:none;stroke:#000000;stroke-width:0.7;stroke-linecap:round;"/>
  <line x1="45.538" x2="45.538" y1="-23.572" y2="-23.572" style="fill:none;stroke:#000000;stroke-width:0.7;stroke-linecap:round;"/>
  <line x1="46.747" x2="46.747" y1="-21.322" y2="-21.322" style="fill:none;stroke:#000000;stroke-width:0.7;stroke-linecap:round;"/>
  <line x1="51.479" x2="51.479" y1="-22.803" y2="-22.803" style="fill:none;stroke:#000000;stroke-width:0.7;stroke-linecap:round;"/>
  <line x1="51.148" x2="51.148" y1="-17.303" y2="-17.303" style="fill:none;stroke:#000000;stroke-width:0.7;stroke-linecap:round;"/>
  <line x1="47.755" x2="47.755" y1="-13.814" y2="-13.814" style="fill:none;stroke:#000000;stroke-width:0.7;stroke-linecap:round;"/>
  <line x1="44.586" x2="44.586" y1="-13.021" y2="-13.021" style="fill:none;stroke:#000000;stroke-width:0.7;stroke-linecap:round;"/>
  <line x1="38.105" x2="38.105" y1="-15.296" y2="-15.296" style="fill:none;stroke:#000000;stroke-width:0.7;stroke-linecap:round;"/>
  <line x1="36.18" x2="36.18" y1="-16.971" y2="-16.971" style="fill:none;stroke:#000000;stroke-width:0.7;stroke-linecap:round;"/>
  <line x1="29.986" x2="29.986" y1="-17.972" y2="-17.972" style="fill:none;stroke:#000000;stroke-width:0.7;stroke-linecap:round;"/>
  <line x1="35.889" x2="35.889" y1="-22.516" y2="-22.516" style="fill:none;stroke:#000000;stroke-width:0.7;stroke-linecap:round;"/>
  <line x1="38.058" x2="38.058" y1="-20.162" y2="-20.162" style="fill:none;stroke:#000000;stroke-width:0.7;stroke-linecap:round;"/>
  <line x1="52.034" x2="52.034" y1="-9.457" y2="-9.457" style="fill:none;stroke:#000000;stroke-width:0.7;stroke-linecap:round;"/>
  <line x1="49.102" x2="49.102" y1="-16.35" y2="-16.35" style="fill:none;stroke:#000000;stroke-width:0.7;stroke-linecap:round;"/>
  <line x1="43.791" x2="43.791" y1="-9.213" y2="-9.213" style="fill:none;stroke:#000000;stroke-width:0.7;stroke-linecap:round;"/>
  <line x1="41.138" x2="41.138" y1="-8.941" y2="-8.941" style="fill:none;stroke:#000000;stroke-width:0.7;stroke-linecap:round;"/>
  <line x1="37.178" x2="37.178" y1="-6.633" y2="-6.633" style="fill:none;stroke:#000000;stroke-width:0.7;stroke-linecap:round;"/>
  <line x1="44.328" x2="44.328" y1="-1.242" y2="-1.242" style="fill:none;stroke:#000000;stroke-width:0.7;stroke-linecap:round;"/>
  <line x1="52.578" x2="52.578" y1="-1.791" y2="-1.791" style="fill:none;stroke:#000000;stroke-width:0.7;stroke-linecap:round;"/>
  <line x1="53.019" x2="53.019" y1="-6.191" y2="-6.191" style="fill:none;stroke:#000000;stroke-width:0.7;stroke-linecap:round;"/>
  <line x1="37.838" x2="37.838" y1="-2.893" y2="-2.893" style="fill:none;stroke:#000000;stroke-width:0.7;stroke-linecap:round;"/>
  <line x1="31.568" x2="31.568" y1="-2.562" y2="-2.562" style="fill:none;stroke:#000000;stroke-width:0.7;stroke-linecap:round;"/>
  <line x1="32.558" x2="32.558" y1="-8.172" y2="-8.172" style="fill:none;stroke:#000000;stroke-width:0.7;stroke-linecap:round;"/>
  <line x1="31.128" x2="31.128" y1="-12.242" y2="-12.242" style="fill:none;stroke:#000000;stroke-width:0.7;stroke-linecap:round;"/>
  <line x1="26.068" x2="26.068" y1="-17.963" y2="-17.963" style="fill:none;stroke:#000000;stroke-width:0.7;stroke-linecap:round;"/>
  <line x1="30.361" x2="30.361" y1="-23.854" y2="-23.854" style="fill:none;stroke:#000000;stroke-width:0.7;stroke-linecap:round;"/>
  <line x1="27.388" x2="27.388" y1="-26.432" y2="-26.432" style="fill:none;stroke:#000000;stroke-width:0.7;stroke-linecap:round;"/>
  <line x1="24.198" x2="24.198" y1="-23.682" y2="-23.682" style="fill:none;stroke:#000000;stroke-width:0.7;stroke-linecap:round;"/>
  <line x1="23.166" x2="23.166" y1="-20.975" y2="-20.975" style="fill:none;stroke:#000000;stroke-width:0.7;stroke-linecap:round;"/>
  <line x1="22.438" x2="22.438" y1="-26.762" y2="-26.762" style="fill:none;stroke:#000000;stroke-width:0.7;stroke-linecap:round;"/>
  <line x1="19.63" x2="19.63" y1="-26.495" y2="-26.495" style="fill:none;stroke:#000000;stroke-width:0.7;stroke-linecap:round;"/>
  <line x1="20.018" x2="20.018" y1="-20.713" y2="-20.713" style="fill:none;stroke:#000000;stroke-width:0.7;stroke-linecap:round;"/>
  <line x1="16.608" x2="16.608" y1="-22.691" y2="-22.691" style="fill:none;stroke:#000000;stroke-width:0.7;stroke-linecap:round;"/>
  <line x1="13.198" x2="13.198" y1="-22.361" y2="-22.361" style="fill:none;stroke:#000000;stroke-width:0.7;stroke-linecap:round;"/>
  <line x1="9.568" x2="9.568" y1="-23.463" y2="-23.463" style="fill:none;stroke:#000000;stroke-width:0.7;stroke-linecap:round;"/>
  <line x1="7.18" x2="7.18" y1="-18.195" y2="-18.195" style="fill:none;stroke:#000000;stroke-width:0.7;stroke-linecap:round;"/>
  <line x1="16.718" x2="16.718" y1="-16.973" y2="-16.973" style="fill:none;stroke:#000000;stroke-width:0.7;stroke-linecap:round;"/>
  <line x1="14.518" x2="14.518" y1="-14.441" y2="-14.441" style="fill:none;stroke:#000000;stroke-width:0.7;stroke-linecap:round;"/>
  <line x1="10.228" x2="10.228" y1="-14.662" y2="-14.662" style="fill:none;stroke:#000000;stroke-width:0.7;stroke-linecap:round;"/>
  <line x1="7.18" x2="7.18" y1="-15.979" y2="-15.979" style="fill:none;stroke:#000000;stroke-width:0.7;stroke-linecap:round;"/>
  <line x1="5.168" x2="5.168" y1="-13.232" y2="-13.232" style="fill:none;stroke:#000000;stroke-width:0.7;stroke-linecap:round;"/>
  <line x1="1.438" x2="1.438" y1="-16.66" y2="-16.66" style="fill:none;stroke:#000000;stroke-width:0.7;stroke-linecap:round;"/>
  <line x1="52.964" x2="52.964" y1="-26.246" y2="-26.246" style="fill:none;stroke:#000000;stroke-width:0.7;stroke-linecap:round;"/>
  <line x1="1.798" x2="1.798" y1="-13.309" y2="-13.309" style="fill:none;stroke:#000000;stroke-width:0.7;stroke-linecap:round;"/>
  <line x1="5.058" x2="5.058" y1="-8.062" y2="-8.062" style="fill:none;stroke:#000000;stroke-width:0.7;stroke-linecap:round;"/>
  <line x1="16.721" x2="16.721" y1="-44.377" y2="-44.377" style="fill:none;stroke:#000000;stroke-width:0.7;stroke-linecap:round;"/>
  <line x1="8.885" x2="8.885" y1="-9.896" y2="-9.896" style="fill:none;stroke:#000000;stroke-width:0.7;stroke-linecap:round;"/>
  <line x1="13.377" x2="13.377" y1="-6.883" y2="-6.883" style="fill:none;stroke:#000000;stroke-width:0.7;stroke-linecap:round;"/>
  <line x1="14.968" x2="14.968" y1="-6.144" y2="-6.144" style="fill:none;stroke:#000000;stroke-width:0.7;stroke-linecap:round;"/>
  <line x1="17.268" x2="17.268" y1="-10.812" y2="-10.812" style="fill:none;stroke:#000000;stroke-width:0.7;stroke-linecap:round;"/>
  <line x1="22.438" x2="22.438" y1="-10.371" y2="-10.371" style="fill:none;stroke:#000000;stroke-width:0.7;stroke-linecap:round;"/>
  <line x1="20.646" x2="20.646" y1="-45.01" y2="-45.01" style="fill:none;stroke:#000000;stroke-width:0.7;stroke-linecap:round;"/>
  <line x1="23.5" x2="23.5" y1="-7.125" y2="-7.125" style="fill:none;stroke:#000000;stroke-width:0.7;stroke-linecap:round;"/>
  <line x1="27.498" x2="27.498" y1="-5.533" y2="-5.533" style="fill:none;stroke:#000000;stroke-width:0.7;stroke-linecap:round;"/>
  <line x1="25.298" x2="25.298" y1="-2.562" y2="-2.562" style="fill:none;stroke:#000000;stroke-width:0.7;stroke-linecap:round;"/>
  <line x1="21.008" x2="21.008" y1="-0.473" y2="-0.473" style="fill:none;stroke:#000000;stroke-width:0.7;stroke-linecap:round;"/>
  <line x1="22.415" x2="22.415" y1="-2.83" y2="-2.83" style="fill:none;stroke:#000000;stroke-width:0.7;stroke-linecap:round;"/>
  <line x1="16.828" x2="16.828" y1="-1.242" y2="-1.242" style="fill:none;stroke:#000000;stroke-width:0.7;stroke-linecap:round;"/>
  <line x1="13.308" x2="13.308" y1="-4.213" y2="-4.213" style="fill:none;stroke:#000000;stroke-width:0.7;stroke-linecap:round;"/>
  <line x1="13.088" x2="13.088" y1="-0.912" y2="-0.912" style="fill:none;stroke:#000000;stroke-width:0.7;stroke-linecap:round;"/>
  <line x1="7.623" x2="7.623" y1="-0.457" y2="-0.457" style="fill:none;stroke:#000000;stroke-width:0.7;stroke-linecap:round;"/>
  <line x1="4.313" x2="4.313" y1="-3.205" y2="-3.205" style="fill:none;stroke:#000000;stroke-width:0.7;stroke-linecap:round;"/>
  <line x1="0.625" x2="0.625" y1="-0.625" y2="-0.625" style="fill:none;stroke:#000000;stroke-width:0.7;stroke-linecap:round;"/>
  <line x1="1.758" x2="1.758" y1="-5.533" y2="-5.533" style="fill:none;stroke:#000000;stroke-width:0.7;stroke-linecap:round;"/>
  <path d="M20.898-30.529" style="fill:none;stroke:#000000;stroke-width:0.3;"/>
  <path d="M20.898-30.529c0.76-1.266,2.64-1.486,3.465-1.238    c0.825,0.248,1.155,0.66,1.65,0.578c0.495-0.082,1.732,1.154,0.578,1.981c-1.155,0.824-2.888,1.566-3.465,1.236    c-0.577-0.33-1.237-0.66-1.65-0.824C21.063-28.963,20.651-30.117,20.898-30.529z" style="fill:none;stroke:#000000;stroke-width:0.3;"/>
  <path d="M41.358-38.779c0.99,0,1.815,0.576,2.062,1.236    c0.248,0.66-0.66,2.641-2.558,1.402C38.966-37.377,39.708-38.945,41.358-38.779z" style="fill:none;stroke:#000000;stroke-width:0.3;"/>
  <path d="M45.813-19.971c2.228,1.404,2.062,3.631-0.413,2.889    c-2.475-0.742-2.393-0.99-3.465-2.641C40.863-21.371,44.328-20.877,45.813-19.971z" style="fill:none;stroke:#000000;stroke-width:0.3;"/>
  <path d="M28.901-11.225c1.732,0.908,1.402,2.641-0.578,2.228    c-1.98-0.414-2.723-1.238-3.135-2.146c-0.412-0.906,0.99-1.979,2.558-0.99C28.158-11.721,28.901-11.225,28.901-11.225z" style="fill:none;stroke:#000000;stroke-width:0.3;"/>
  <path d="M6.213-23.188c1.238,0.248,1.898,0.742,1.98,1.732    c0.083,0.99-0.577,1.98-2.887,1.814c-2.31-0.164-3.795-0.576-2.475-2.145c0.825-0.082,1.155-0.248,1.485-0.906    C4.646-23.352,5.636-23.352,6.213-23.188z" style="fill:none;stroke:#000000;stroke-width:0.3;"/>
  <path d="M2.831-36.057c1.732-0.66,3.3,1.402,1.237,1.979    C2.005-33.5,1.016-35.645,2.831-36.057z" style="fill:none;stroke:#000000;stroke-width:0.3;"/>
  <path d="M49.608-4.377c1.485-1.156,2.723,0.33,1.732,1.154    c-0.99,0.826-2.393,1.981-3.3,1.32c-0.908-0.66-0.578-1.814,0.33-1.981C49.278-4.047,49.608-4.377,49.608-4.377z" style="fill:none;stroke:#000000;stroke-width:0.3;"/>
  <path d="M9.266-5.697c2.062,0.412,2.97,1.402,1.567,2.227    c-1.402,0.826-1.402,0.662-2.97,0.166c-1.568-0.494-2.97-1.072-1.98-1.814C6.873-5.861,8.193-6.109,9.266-5.697z" style="fill:none;stroke:#000000;stroke-width:0.3;"/>
  <line x1="6.385" x2="13.642" y1="-38.291" y2="-40.977" style="fill:none;stroke:#000000;stroke-width:0.3;"/>
  <line x1="3.783" x2="12.027" y1="-53.781" y2="-52.639" style="fill:none;stroke:#000000;stroke-width:0.3;"/>
  <line x1="24.671" x2="32.971" y1="-39.432" y2="-38.514" style="fill:none;stroke:#000000;stroke-width:0.3;"/>
  <line x1="45.979" x2="52.09" y1="-38.861" y2="-39.662" style="fill:none;stroke:#000000;stroke-width:0.3;"/>
  <line x1="42.854" x2="49.913" y1="-53.635" y2="-52.559" style="fill:none;stroke:#000000;stroke-width:0.3;"/>
  <line x1="45.26" x2="36.923" y1="-31.388" y2="-32.073" style="fill:none;stroke:#000000;stroke-width:0.3;"/>
  <line x1="17.378" x2="10.415" y1="-32.041" y2="-32.568" style="fill:none;stroke:#000000;stroke-width:0.3;"/>
  <line x1="20.33" x2="13.96" y1="-46.996" y2="-45.742" style="fill:none;stroke:#000000;stroke-width:0.3;"/>
  <line x1="39.384" x2="32.873" y1="-47.094" y2="-46.539" style="fill:none;stroke:#000000;stroke-width:0.3;"/>
  <line x1="7.038" x2="14.446" y1="-25.441" y2="-24.99" style="fill:none;stroke:#000000;stroke-width:0.3;"/>
  <line x1="27.328" x2="35.066" y1="-24.883" y2="-25.93" style="fill:none;stroke:#000000;stroke-width:0.3;"/>
  <line x1="22.587" x2="30.988" y1="-52.881" y2="-53.754" style="fill:none;stroke:#000000;stroke-width:0.3;"/>
  <line x1="46.858" x2="53.576" y1="-25.223" y2="-23.56" style="fill:none;stroke:#000000;stroke-width:0.3;"/>
  <line x1="38.718" x2="32.502" y1="-18.402" y2="-18.945" style="fill:none;stroke:#000000;stroke-width:0.3;"/>
  <line x1="23.958" x2="17.378" y1="-16.85" y2="-18.182" style="fill:none;stroke:#000000;stroke-width:0.3;"/>
  <line x1="3.907" x2="12.129" y1="-10.947" y2="-12.236" style="fill:none;stroke:#000000;stroke-width:0.3;"/>
  <line x1="38.718" x2="46.689" y1="-11.582" y2="-10.803" style="fill:none;stroke:#000000;stroke-width:0.3;"/>
  <line x1="38.941" x2="30.613" y1="-4.67" y2="-5.332" style="fill:none;stroke:#000000;stroke-width:0.3;"/>
  <line x1="25.011" x2="17.751" y1="-5.662" y2="-4.586" style="fill:none;stroke:#000000;stroke-width:0.3;"/>
  <path d="M21.173-41.5c1.485,0.084,1.32,1.568,0.083,1.65    C20.018-39.768,19.853-41.334,21.173-41.5z" style="fill:none;stroke:#000000;stroke-width:0.3;"/>
  <path d="M32.283-35.809c1.65,0,1.402,1.648,0.165,1.648    C31.21-34.16,30.881-35.809,32.283-35.809z" style="fill:none;stroke:#000000;stroke-width:0.3;"/>
  <path d="M16.96-52.773c1.65,0,1.402,1.648,0.165,1.648    S15.558-52.773,16.96-52.773z" style="fill:none;stroke:#000000;stroke-width:0.3;"/>
  <path d="M52.743-31.85c0,1.32-1.402,1.154-1.485,0    C51.176-33.004,52.743-32.84,52.743-31.85z" style="fill:none;stroke:#000000;stroke-width:0.3;"/>
  <path d="M42.513-26.24c1.403,0,1.32,1.402,0.165,1.402    C41.523-24.838,40.781-26.158,42.513-26.24z" style="fill:none;stroke:#000000;stroke-width:0.3;"/>
  <path d="M51.918-15.268c1.21,0,1.375,1.43,0.275,1.484    C51.093-13.727,50.488-15.158,51.918-15.268z" style="fill:none;stroke:#000000;stroke-width:0.3;"/>
  <path d="M36.683-11.691c0,1.264-1.43,1.045-1.43,0.055    C35.253-12.627,36.683-12.957,36.683-11.691z" style="fill:none;stroke:#000000;stroke-width:0.3;"/>
  <path d="M28.984-20.162c-0.055,1.318-1.54,0.988-1.595,0.055    C27.334-21.043,28.765-21.537,28.984-20.162z" style="fill:none;stroke:#000000;stroke-width:0.3;"/>
  <path d="M3.018-45.934c-0.055,1.318-1.54,0.988-1.595,0.055    C1.368-46.814,2.798-47.309,3.018-45.934z" style="fill:none;stroke:#000000;stroke-width:0.3;"/>
  <path d="M45.701-6.217c0.825,0.604,0.33,1.705-0.825,1.045    C43.721-5.832,44.381-6.988,45.701-6.217z" style="fill:none;stroke:#000000;stroke-width:0.3;"/>
  <path d="M28.323-1.957c1.132,0.416,0.77,1.869-0.44,1.43    C26.673-0.967,27.278-2.342,28.323-1.957z" style="fill:none;stroke:#000000;stroke-width:0.3;"/>
  <path d="M19.578-9.822c1.375,0.109,1.155,1.484,0.165,1.539    C18.753-8.227,18.148-9.822,19.578-9.822z" style="fill:none;stroke:#000000;stroke-width:0.3;"/>
  <path d="M14.188-20.053c1.375,0.935,0.11,1.926-0.88,1.32    C12.318-19.338,13.143-20.547,14.188-20.053z" style="fill:none;stroke:#000000;stroke-width:0.3;"/>
  <path d="M2.136-10.865c0.825,0.826-0.22,1.596-0.88,0.99    C0.596-10.479,0.981-11.58,2.136-10.865z" style="fill:none;stroke:#000000;stroke-width:0.3;"/>
  <path d="M3.974-27.711c0.055,1.266-1.43,1.156-1.485,0.221    C2.434-28.426,3.864-28.865,3.974-27.711z" style="fill:none;stroke:#000000;stroke-width:0.3;"/>
  <path d="M41.367-44.832c0.055,1.266-1.43,1.154-1.485,0.221    C39.827-45.547,41.257-45.986,41.367-44.832z" style="fill:none;stroke:#000000;stroke-width:0.3;"/>
  <path d="M30.875-50.688c1.017,0.611,1.25,2,0.5,2.5S28.5-47.812,28-48.312    s-1-1.5,0.25-2.125S30.25-51.062,30.875-50.688z" style="fill:none;stroke:#000000;stroke-width:0.3;"/>
  <path d="M5.5-49c0.625-0.75,1.625-0.75,3.125-0.25s1.625,1,2.125,1    s1.375,2,0.125,2.25s-4.375,0.5-4.75-0.375S5.5-49,5.5-49z" style="fill:none;stroke:#000000;stroke-width:0.3;"/>
  <line x1="34.646" x2="36.556" y1="-0.218" y2="-3.082" style="fill:none;stroke:#000000;stroke-width:0.43;"/>
  <circle r="0.44" cy="-53.561" cx="20.525" style="stroke:#000000;stroke-width:0;"/>
  <circle r="0.44" cy="-20.511" cx="31.568" style="stroke:#000000;stroke-width:0;"/>
  <circle r="0.44" cy="-53.373" cx="36.943" style="stroke:#000000;stroke-width:0;"/>
  <circle r="0.44" cy="-52.312" cx="32.323" style="stroke:#000000;stroke-width:0;"/>
 </g>
</svg>
