<?xml version="1.0"?>
<!-- Converted with SVG Converter - Version 0.9.5 (Compiled Fri Feb 21 09:53:38 2020) - Copyright (C) 2011 Nokia -->
<svg xmlns="http://www.w3.org/2000/svg" xmlns:xlink="http://www.w3.org/1999/xlink" viewBox="0 -54.222 54.125 54.125" y="0px" xml:space="preserve" version="1.1" x="0px" width="54.125" height="54.125" baseProfile="tiny">
 <g>
  <rect style="fill:none;" y="-54.222" width="54.125" height="54.125"/>
  <line y1="-38.959" style="fill:none;stroke:#000000;stroke-width:0.7;stroke-linecap:round;" y2="-38.959" x1="1.758" x2="1.758"/>
  <line y1="-40.719" style="fill:none;stroke:#000000;stroke-width:0.7;stroke-linecap:round;" y2="-40.719" x1="6.488" x2="6.488"/>
  <line y1="-38.372" style="fill:none;stroke:#000000;stroke-width:0.7;stroke-linecap:round;" y2="-38.372" x1="13.642" x2="13.642"/>
  <line y1="-40.06" style="fill:none;stroke:#000000;stroke-width:0.7;stroke-linecap:round;" y2="-40.06" x1="16.828" x2="16.828"/>
  <line y1="-36.209" style="fill:none;stroke:#000000;stroke-width:0.7;stroke-linecap:round;" y2="-36.209" x1="18.808" x2="18.808"/>
  <line y1="-34.779" style="fill:none;stroke:#000000;stroke-width:0.7;stroke-linecap:round;" y2="-34.779" x1="14.958" x2="14.958"/>
  <line y1="-35.219" style="fill:none;stroke:#000000;stroke-width:0.7;stroke-linecap:round;" y2="-35.219" x1="10.888" x2="10.888"/>
  <line y1="-35.88" style="fill:none;stroke:#000000;stroke-width:0.7;stroke-linecap:round;" y2="-35.88" x1="6.378" x2="6.378"/>
  <line y1="-31.369" style="fill:none;stroke:#000000;stroke-width:0.7;stroke-linecap:round;" y2="-31.369" x1="5.058" x2="5.058"/>
  <line y1="-31.699" style="fill:none;stroke:#000000;stroke-width:0.7;stroke-linecap:round;" y2="-31.699" x1="1.318" x2="1.318"/>
  <line y1="-49.222" style="fill:none;stroke:#000000;stroke-width:0.7;stroke-linecap:round;" y2="-49.222" x1="17.625" x2="17.625"/>
  <line y1="-43.847" style="fill:none;stroke:#000000;stroke-width:0.7;stroke-linecap:round;" y2="-43.847" x1="9.625" x2="9.625"/>
  <line y1="-43.157" style="fill:none;stroke:#000000;stroke-width:0.7;stroke-linecap:round;" y2="-43.157" x1="3.692" x2="3.692"/>
  <line y1="-50.347" style="fill:none;stroke:#000000;stroke-width:0.7;stroke-linecap:round;" y2="-50.347" x1="1.375" x2="1.375"/>
  <line y1="-51.847" style="fill:none;stroke:#000000;stroke-width:0.7;stroke-linecap:round;" y2="-51.847" x1="7.875" x2="7.875"/>
  <line y1="-49.972" style="fill:none;stroke:#000000;stroke-width:0.7;stroke-linecap:round;" y2="-49.972" x1="13.5" x2="13.5"/>
  <line y1="-44.023" style="fill:none;stroke:#000000;stroke-width:0.7;stroke-linecap:round;" y2="-44.023" x1="25.305" x2="25.305"/>
  <line y1="-47.597" style="fill:none;stroke:#000000;stroke-width:0.7;stroke-linecap:round;" y2="-47.597" x1="24.625" x2="24.625"/>
  <line y1="-50.847" style="fill:none;stroke:#000000;stroke-width:0.7;stroke-linecap:round;" y2="-50.847" x1="21.875" x2="21.875"/>
  <line y1="-51.972" style="fill:none;stroke:#000000;stroke-width:0.7;stroke-linecap:round;" y2="-51.972" x1="26" x2="26"/>
  <line y1="-53.621" style="fill:none;stroke:#000000;stroke-width:0.7;stroke-linecap:round;" y2="-53.621" x1="34.25" x2="34.25"/>
  <line y1="-48.347" style="fill:none;stroke:#000000;stroke-width:0.7;stroke-linecap:round;" y2="-48.347" x1="46.375" x2="46.375"/>
  <line y1="-48.722" style="fill:none;stroke:#000000;stroke-width:0.7;stroke-linecap:round;" y2="-48.722" x1="53.5" x2="53.5"/>
  <line y1="-50.472" style="fill:none;stroke:#000000;stroke-width:0.7;stroke-linecap:round;" y2="-50.472" x1="50.125" x2="50.125"/>
  <line y1="-44.329" style="fill:none;stroke:#000000;stroke-width:0.7;stroke-linecap:round;" y2="-44.329" x1="47.011" x2="47.011"/>
  <line y1="-51.722" style="fill:none;stroke:#000000;stroke-width:0.7;stroke-linecap:round;" y2="-51.722" x1="45" x2="45"/>
  <line y1="-44.999" style="fill:none;stroke:#000000;stroke-width:0.7;stroke-linecap:round;" y2="-44.999" x1="30.125" x2="30.125"/>
  <line y1="-28.972" style="fill:none;stroke:#000000;stroke-width:0.7;stroke-linecap:round;" y2="-28.972" x1="48.375" x2="48.375"/>
  <line y1="-30.597" style="fill:none;stroke:#000000;stroke-width:0.7;stroke-linecap:round;" y2="-30.597" x1="40.125" x2="40.125"/>
  <line y1="-33.597" style="fill:none;stroke:#000000;stroke-width:0.7;stroke-linecap:round;" y2="-33.597" x1="25.5" x2="25.5"/>
  <line y1="-45.597" style="fill:none;stroke:#000000;stroke-width:0.7;stroke-linecap:round;" y2="-45.597" x1="50.375" x2="50.375"/>
  <line y1="-49.347" style="fill:none;stroke:#000000;stroke-width:0.7;stroke-linecap:round;" y2="-49.347" x1="33.75" x2="33.75"/>
  <line y1="-49.347" style="fill:none;stroke:#000000;stroke-width:0.7;stroke-linecap:round;" y2="-49.347" x1="41.375" x2="41.375"/>
  <line y1="-51.847" style="fill:none;stroke:#000000;stroke-width:0.7;stroke-linecap:round;" y2="-51.847" x1="37.875" x2="37.875"/>
  <line y1="-43.608" style="fill:none;stroke:#000000;stroke-width:0.7;stroke-linecap:round;" y2="-43.608" x1="36.024" x2="36.024"/>
  <line y1="-24.777" style="fill:none;stroke:#000000;stroke-width:0.7;stroke-linecap:round;" y2="-24.777" x1="1.358" x2="1.358"/>
  <line y1="-27.3" style="fill:none;stroke:#000000;stroke-width:0.7;stroke-linecap:round;" y2="-27.3" x1="7.038" x2="7.038"/>
  <line y1="-29.94" style="fill:none;stroke:#000000;stroke-width:0.7;stroke-linecap:round;" y2="-29.94" x1="11.548" x2="11.548"/>
  <line y1="-27.3" style="fill:none;stroke:#000000;stroke-width:0.7;stroke-linecap:round;" y2="-27.3" x1="14.518" x2="14.518"/>
  <line y1="-29.94" style="fill:none;stroke:#000000;stroke-width:0.7;stroke-linecap:round;" y2="-29.94" x1="18.258" x2="18.258"/>
  <line y1="-33.569" style="fill:none;stroke:#000000;stroke-width:0.7;stroke-linecap:round;" y2="-33.569" x1="21.338" x2="21.338"/>
  <line y1="-37.199" style="fill:none;stroke:#000000;stroke-width:0.7;stroke-linecap:round;" y2="-37.199" x1="22.988" x2="22.988"/>
  <line y1="-36.222" style="fill:none;stroke:#000000;stroke-width:0.7;stroke-linecap:round;" y2="-36.222" x1="28.125" x2="28.125"/>
  <line y1="-40.667" style="fill:none;stroke:#000000;stroke-width:0.7;stroke-linecap:round;" y2="-40.667" x1="27.859" x2="27.859"/>
  <line y1="-42.348" style="fill:none;stroke:#000000;stroke-width:0.7;stroke-linecap:round;" y2="-42.348" x1="31.702" x2="31.702"/>
  <line y1="-37.199" style="fill:none;stroke:#000000;stroke-width:0.7;stroke-linecap:round;" y2="-37.199" x1="32.998" x2="32.998"/>
  <line y1="-36.1" style="fill:none;stroke:#000000;stroke-width:0.7;stroke-linecap:round;" y2="-36.1" x1="36.958" x2="36.958"/>
  <line y1="-41.05" style="fill:none;stroke:#000000;stroke-width:0.7;stroke-linecap:round;" y2="-41.05" x1="38.168" x2="38.168"/>
  <line y1="-42.472" style="fill:none;stroke:#000000;stroke-width:0.7;stroke-linecap:round;" y2="-42.472" x1="43" x2="43"/>
  <line y1="-40.967" style="fill:none;stroke:#000000;stroke-width:0.7;stroke-linecap:round;" y2="-40.967" x1="48.632" x2="48.632"/>
  <line y1="-41.709" style="fill:none;stroke:#000000;stroke-width:0.7;stroke-linecap:round;" y2="-41.709" x1="53.568" x2="53.568"/>
  <line y1="-36.869" style="fill:none;stroke:#000000;stroke-width:0.7;stroke-linecap:round;" y2="-36.869" x1="49.608" x2="49.608"/>
  <line y1="-35.77" style="fill:none;stroke:#000000;stroke-width:0.7;stroke-linecap:round;" y2="-35.77" x1="46.088" x2="46.088"/>
  <line y1="-32.689" style="fill:none;stroke:#000000;stroke-width:0.7;stroke-linecap:round;" y2="-32.689" x1="48.178" x2="48.178"/>
  <line y1="-35" style="fill:none;stroke:#000000;stroke-width:0.7;stroke-linecap:round;" y2="-35" x1="52.908" x2="52.908"/>
  <line y1="-33.68" style="fill:none;stroke:#000000;stroke-width:0.7;stroke-linecap:round;" y2="-33.68" x1="41.688" x2="41.688"/>
  <line y1="-27.3" style="fill:none;stroke:#000000;stroke-width:0.7;stroke-linecap:round;" y2="-27.3" x1="50.708" x2="50.708"/>
  <line y1="-29.389" style="fill:none;stroke:#000000;stroke-width:0.7;stroke-linecap:round;" y2="-29.389" x1="44.658" x2="44.658"/>
  <line y1="-26.859" style="fill:none;stroke:#000000;stroke-width:0.7;stroke-linecap:round;" y2="-26.859" x1="38.718" x2="38.718"/>
  <line y1="-29.609" style="fill:none;stroke:#000000;stroke-width:0.7;stroke-linecap:round;" y2="-29.609" x1="35.638" x2="35.638"/>
  <line y1="-30.38" style="fill:none;stroke:#000000;stroke-width:0.7;stroke-linecap:round;" y2="-30.38" x1="30.688" x2="30.688"/>
  <line y1="-26.75" style="fill:none;stroke:#000000;stroke-width:0.7;stroke-linecap:round;" y2="-26.75" x1="32.668" x2="32.668"/>
  <line y1="-22.239" style="fill:none;stroke:#000000;stroke-width:0.7;stroke-linecap:round;" y2="-22.239" x1="41.798" x2="41.798"/>
  <line y1="-23.669" style="fill:none;stroke:#000000;stroke-width:0.7;stroke-linecap:round;" y2="-23.669" x1="45.538" x2="45.538"/>
  <line y1="-20.81" style="fill:none;stroke:#000000;stroke-width:0.7;stroke-linecap:round;" y2="-20.81" x1="48.288" x2="48.288"/>
  <line y1="-22.899" style="fill:none;stroke:#000000;stroke-width:0.7;stroke-linecap:round;" y2="-22.899" x1="51.479" x2="51.479"/>
  <line y1="-17.399" style="fill:none;stroke:#000000;stroke-width:0.7;stroke-linecap:round;" y2="-17.399" x1="51.148" x2="51.148"/>
  <line y1="-13.769" style="fill:none;stroke:#000000;stroke-width:0.7;stroke-linecap:round;" y2="-13.769" x1="47.408" x2="47.408"/>
  <line y1="-14.869" style="fill:none;stroke:#000000;stroke-width:0.7;stroke-linecap:round;" y2="-14.869" x1="42.788" x2="42.788"/>
  <line y1="-14.1" style="fill:none;stroke:#000000;stroke-width:0.7;stroke-linecap:round;" y2="-14.1" x1="38.718" x2="38.718"/>
  <line y1="-15.089" style="fill:none;stroke:#000000;stroke-width:0.7;stroke-linecap:round;" y2="-15.089" x1="34.538" x2="34.538"/>
  <line y1="-17.399" style="fill:none;stroke:#000000;stroke-width:0.7;stroke-linecap:round;" y2="-17.399" x1="30.358" x2="30.358"/>
  <line y1="-22.569" style="fill:none;stroke:#000000;stroke-width:0.7;stroke-linecap:round;" y2="-22.569" x1="33.988" x2="33.988"/>
  <line y1="-20.26" style="fill:none;stroke:#000000;stroke-width:0.7;stroke-linecap:round;" y2="-20.26" x1="38.058" x2="38.058"/>
  <line y1="-11.019" style="fill:none;stroke:#000000;stroke-width:0.7;stroke-linecap:round;" y2="-11.019" x1="52.358" x2="52.358"/>
  <line y1="-8.489" style="fill:none;stroke:#000000;stroke-width:0.7;stroke-linecap:round;" y2="-8.489" x1="49.938" x2="49.938"/>
  <line y1="-8.489" style="fill:none;stroke:#000000;stroke-width:0.7;stroke-linecap:round;" y2="-8.489" x1="45.538" x2="45.538"/>
  <line y1="-9.039" style="fill:none;stroke:#000000;stroke-width:0.7;stroke-linecap:round;" y2="-9.039" x1="41.138" x2="41.138"/>
  <line y1="-6.729" style="fill:none;stroke:#000000;stroke-width:0.7;stroke-linecap:round;" y2="-6.729" x1="37.178" x2="37.178"/>
  <line y1="-4.639" style="fill:none;stroke:#000000;stroke-width:0.7;stroke-linecap:round;" y2="-4.639" x1="41.798" x2="41.798"/>
  <line y1="-1.339" style="fill:none;stroke:#000000;stroke-width:0.7;stroke-linecap:round;" y2="-1.339" x1="44.328" x2="44.328"/>
  <line y1="-1.889" style="fill:none;stroke:#000000;stroke-width:0.7;stroke-linecap:round;" y2="-1.889" x1="52.578" x2="52.578"/>
  <line y1="-6.289" style="fill:none;stroke:#000000;stroke-width:0.7;stroke-linecap:round;" y2="-6.289" x1="53.019" x2="53.019"/>
  <line y1="-0.459" style="fill:none;stroke:#000000;stroke-width:0.7;stroke-linecap:round;" y2="-0.459" x1="40.588" x2="40.588"/>
  <line y1="-2.989" style="fill:none;stroke:#000000;stroke-width:0.7;stroke-linecap:round;" y2="-2.989" x1="37.838" x2="37.838"/>
  <line y1="-2.659" style="fill:none;stroke:#000000;stroke-width:0.7;stroke-linecap:round;" y2="-2.659" x1="31.568" x2="31.568"/>
  <line y1="-8.269" style="fill:none;stroke:#000000;stroke-width:0.7;stroke-linecap:round;" y2="-8.269" x1="32.558" x2="32.558"/>
  <line y1="-12.339" style="fill:none;stroke:#000000;stroke-width:0.7;stroke-linecap:round;" y2="-12.339" x1="31.128" x2="31.128"/>
  <line y1="-14.649" style="fill:none;stroke:#000000;stroke-width:0.7;stroke-linecap:round;" y2="-14.649" x1="27.388" x2="27.388"/>
  <line y1="-18.06" style="fill:none;stroke:#000000;stroke-width:0.7;stroke-linecap:round;" y2="-18.06" x1="26.068" x2="26.068"/>
  <line y1="-14.43" style="fill:none;stroke:#000000;stroke-width:0.7;stroke-linecap:round;" y2="-14.43" x1="23.098" x2="23.098"/>
  <line y1="-22.02" style="fill:none;stroke:#000000;stroke-width:0.7;stroke-linecap:round;" y2="-22.02" x1="29.148" x2="29.148"/>
  <line y1="-26.529" style="fill:none;stroke:#000000;stroke-width:0.7;stroke-linecap:round;" y2="-26.529" x1="27.388" x2="27.388"/>
  <line y1="-23.779" style="fill:none;stroke:#000000;stroke-width:0.7;stroke-linecap:round;" y2="-23.779" x1="24.198" x2="24.198"/>
  <line y1="-20.149" style="fill:none;stroke:#000000;stroke-width:0.7;stroke-linecap:round;" y2="-20.149" x1="23.318" x2="23.318"/>
  <line y1="-26.859" style="fill:none;stroke:#000000;stroke-width:0.7;stroke-linecap:round;" y2="-26.859" x1="22.438" x2="22.438"/>
  <line y1="-24.989" style="fill:none;stroke:#000000;stroke-width:0.7;stroke-linecap:round;" y2="-24.989" x1="19.468" x2="19.468"/>
  <line y1="-20.81" style="fill:none;stroke:#000000;stroke-width:0.7;stroke-linecap:round;" y2="-20.81" x1="20.018" x2="20.018"/>
  <line y1="-22.789" style="fill:none;stroke:#000000;stroke-width:0.7;stroke-linecap:round;" y2="-22.789" x1="16.608" x2="16.608"/>
  <line y1="-22.459" style="fill:none;stroke:#000000;stroke-width:0.7;stroke-linecap:round;" y2="-22.459" x1="13.198" x2="13.198"/>
  <line y1="-23.56" style="fill:none;stroke:#000000;stroke-width:0.7;stroke-linecap:round;" y2="-23.56" x1="9.568" x2="9.568"/>
  <line y1="-18.719" style="fill:none;stroke:#000000;stroke-width:0.7;stroke-linecap:round;" y2="-18.719" x1="9.788" x2="9.788"/>
  <line y1="-17.069" style="fill:none;stroke:#000000;stroke-width:0.7;stroke-linecap:round;" y2="-17.069" x1="16.718" x2="16.718"/>
  <line y1="-13.88" style="fill:none;stroke:#000000;stroke-width:0.7;stroke-linecap:round;" y2="-13.88" x1="19.358" x2="19.358"/>
  <line y1="-14.539" style="fill:none;stroke:#000000;stroke-width:0.7;stroke-linecap:round;" y2="-14.539" x1="14.518" x2="14.518"/>
  <line y1="-14.76" style="fill:none;stroke:#000000;stroke-width:0.7;stroke-linecap:round;" y2="-14.76" x1="10.228" x2="10.228"/>
  <line y1="-15.969" style="fill:none;stroke:#000000;stroke-width:0.7;stroke-linecap:round;" y2="-15.969" x1="6.818" x2="6.818"/>
  <line y1="-13.329" style="fill:none;stroke:#000000;stroke-width:0.7;stroke-linecap:round;" y2="-13.329" x1="5.168" x2="5.168"/>
  <line y1="-16.959" style="fill:none;stroke:#000000;stroke-width:0.7;stroke-linecap:round;" y2="-16.959" x1="2.418" x2="2.418"/>
  <line y1="-19.709" style="fill:none;stroke:#000000;stroke-width:0.7;stroke-linecap:round;" y2="-19.709" x1="0.438" x2="0.438"/>
  <line y1="-13.405" style="fill:none;stroke:#000000;stroke-width:0.7;stroke-linecap:round;" y2="-13.405" x1="1.798" x2="1.798"/>
  <line y1="-8.159" style="fill:none;stroke:#000000;stroke-width:0.7;stroke-linecap:round;" y2="-8.159" x1="5.058" x2="5.058"/>
  <line y1="-43.319" style="fill:none;stroke:#000000;stroke-width:0.7;stroke-linecap:round;" y2="-43.319" x1="15.663" x2="15.663"/>
  <line y1="-9.222" style="fill:none;stroke:#000000;stroke-width:0.7;stroke-linecap:round;" y2="-9.222" x1="9.5" x2="9.5"/>
  <line y1="-8.347" style="fill:none;stroke:#000000;stroke-width:0.7;stroke-linecap:round;" y2="-8.347" x1="13.5" x2="13.5"/>
  <line y1="-6.839" style="fill:none;stroke:#000000;stroke-width:0.7;stroke-linecap:round;" y2="-6.839" x1="16.498" x2="16.498"/>
  <line y1="-10.909" style="fill:none;stroke:#000000;stroke-width:0.7;stroke-linecap:round;" y2="-10.909" x1="17.268" x2="17.268"/>
  <line y1="-10.469" style="fill:none;stroke:#000000;stroke-width:0.7;stroke-linecap:round;" y2="-10.469" x1="22.438" x2="22.438"/>
  <line y1="-45.107" style="fill:none;stroke:#000000;stroke-width:0.7;stroke-linecap:round;" y2="-45.107" x1="20.646" x2="20.646"/>
  <line y1="-7.222" style="fill:none;stroke:#000000;stroke-width:0.7;stroke-linecap:round;" y2="-7.222" x1="23.5" x2="23.5"/>
  <line y1="-5.63" style="fill:none;stroke:#000000;stroke-width:0.7;stroke-linecap:round;" y2="-5.63" x1="27.498" x2="27.498"/>
  <line y1="-2.659" style="fill:none;stroke:#000000;stroke-width:0.7;stroke-linecap:round;" y2="-2.659" x1="25.298" x2="25.298"/>
  <line y1="-0.569" style="fill:none;stroke:#000000;stroke-width:0.7;stroke-linecap:round;" y2="-0.569" x1="21.008" x2="21.008"/>
  <line y1="-3.621" style="fill:none;stroke:#000000;stroke-width:0.7;stroke-linecap:round;" y2="-3.621" x1="21.937" x2="21.937"/>
  <line y1="-1.339" style="fill:none;stroke:#000000;stroke-width:0.7;stroke-linecap:round;" y2="-1.339" x1="16.828" x2="16.828"/>
  <line y1="-4.31" style="fill:none;stroke:#000000;stroke-width:0.7;stroke-linecap:round;" y2="-4.31" x1="13.308" x2="13.308"/>
  <line y1="-1.01" style="fill:none;stroke:#000000;stroke-width:0.7;stroke-linecap:round;" y2="-1.01" x1="13.088" x2="13.088"/>
  <line y1="-0.35" style="fill:none;stroke:#000000;stroke-width:0.7;stroke-linecap:round;" y2="-0.35" x1="7.588" x2="7.588"/>
  <line y1="-2.44" style="fill:none;stroke:#000000;stroke-width:0.7;stroke-linecap:round;" y2="-2.44" x1="4.948" x2="4.948"/>
  <line y1="-0.722" style="fill:none;stroke:#000000;stroke-width:0.7;stroke-linecap:round;" y2="-0.722" x1="0.625" x2="0.625"/>
  <line y1="-5.63" style="fill:none;stroke:#000000;stroke-width:0.7;stroke-linecap:round;" y2="-5.63" x1="1.758" x2="1.758"/>
  <path style="fill:none;stroke:#000000;stroke-width:0.3;" d="M20.898-30.627"/>
  <path style="fill:none;stroke:#000000;stroke-width:0.3;" d="M20.898-30.627c0.76-1.266,2.64-1.485,3.465-1.237    c0.825,0.247,1.155,0.66,1.65,0.577c0.495-0.082,1.732,1.155,0.578,1.98c-1.155,0.825-2.888,1.567-3.465,1.237    c-0.577-0.33-1.237-0.66-1.65-0.825C21.063-29.06,20.651-30.214,20.898-30.627z"/>
  <path style="fill:none;stroke:#000000;stroke-width:0.3;" d="M41.358-38.877c0.99,0,1.815,0.577,2.062,1.237    c0.248,0.66-0.66,2.64-2.558,1.402C38.966-37.475,39.708-39.042,41.358-38.877z"/>
  <path style="fill:none;stroke:#000000;stroke-width:0.3;" d="M45.813-20.067c2.228,1.403,2.062,3.631-0.413,2.888    c-2.475-0.742-2.393-0.989-3.465-2.64C40.863-21.469,44.328-20.975,45.813-20.067z"/>
  <path style="fill:none;stroke:#000000;stroke-width:0.3;" d="M28.901-11.322c1.732,0.908,1.402,2.641-0.578,2.229    c-1.98-0.413-2.723-1.237-3.135-2.146c-0.412-0.907,0.99-1.979,2.558-0.99C28.158-11.817,28.901-11.322,28.901-11.322z"/>
  <path style="fill:none;stroke:#000000;stroke-width:0.3;" d="M6.213-23.284c1.238,0.247,1.898,0.742,1.98,1.732    c0.083,0.989-0.577,1.979-2.887,1.814c-2.31-0.164-3.795-0.577-2.475-2.144c0.825-0.082,1.155-0.248,1.485-0.907    C4.646-23.449,5.636-23.449,6.213-23.284z"/>
  <path style="fill:none;stroke:#000000;stroke-width:0.3;" d="M2.831-36.154c1.732-0.66,3.3,1.402,1.237,1.979    C2.005-33.597,1.016-35.742,2.831-36.154z"/>
  <path style="fill:none;stroke:#000000;stroke-width:0.3;" d="M49.608-4.475c1.485-1.155,2.723,0.331,1.732,1.155    c-0.99,0.825-2.393,1.98-3.3,1.32c-0.908-0.66-0.578-1.816,0.33-1.981C49.278-4.144,49.608-4.475,49.608-4.475z"/>
  <path style="fill:none;stroke:#000000;stroke-width:0.3;" d="M9.266-5.794c2.062,0.412,2.97,1.402,1.567,2.227    c-1.402,0.825-1.402,0.661-2.97,0.166c-1.568-0.495-2.97-1.073-1.98-1.815C6.873-5.959,8.193-6.206,9.266-5.794z"/>
  <line y1="-38.388" style="fill:none;stroke:#000000;stroke-width:0.3;" y2="-41.073" x1="6.385" x2="13.642"/>
  <line y1="-53.305" style="fill:none;stroke:#000000;stroke-width:0.3;" y2="-52.736" x1="3.783" x2="12.027"/>
  <line y1="-39.466" style="fill:none;stroke:#000000;stroke-width:0.3;" y2="-38.549" x1="26.298" x2="34.598"/>
  <line y1="-38.959" style="fill:none;stroke:#000000;stroke-width:0.3;" y2="-39.759" x1="45.979" x2="52.09"/>
  <line y1="-53.459" style="fill:none;stroke:#000000;stroke-width:0.3;" y2="-52.656" x1="42.854" x2="49.913"/>
  <line y1="-31.985" style="fill:none;stroke:#000000;stroke-width:0.3;" y2="-32.672" x1="43.946" x2="35.609"/>
  <line y1="-32.139" style="fill:none;stroke:#000000;stroke-width:0.3;" y2="-32.665" x1="17.378" x2="10.415"/>
  <line y1="-47.094" style="fill:none;stroke:#000000;stroke-width:0.3;" y2="-45.84" x1="20.33" x2="13.96"/>
  <line y1="-47.19" style="fill:none;stroke:#000000;stroke-width:0.3;" y2="-46.637" x1="39.384" x2="32.873"/>
  <line y1="-25.539" style="fill:none;stroke:#000000;stroke-width:0.3;" y2="-25.088" x1="7.038" x2="14.446"/>
  <line y1="-24.604" style="fill:none;stroke:#000000;stroke-width:0.3;" y2="-25.652" x1="28.391" x2="36.129"/>
  <line y1="-52.979" style="fill:none;stroke:#000000;stroke-width:0.3;" y2="-53.414" x1="22.587" x2="30.988"/>
  <line y1="-25.319" style="fill:none;stroke:#000000;stroke-width:0.3;" y2="-23.658" x1="46.858" x2="53.576"/>
  <line y1="-18.5" style="fill:none;stroke:#000000;stroke-width:0.3;" y2="-19.042" x1="38.718" x2="32.502"/>
  <line y1="-16.946" style="fill:none;stroke:#000000;stroke-width:0.3;" y2="-18.279" x1="23.958" x2="17.378"/>
  <line y1="-10.981" style="fill:none;stroke:#000000;stroke-width:0.3;" y2="-12.271" x1="5.659" x2="13.881"/>
  <line y1="-11.68" style="fill:none;stroke:#000000;stroke-width:0.3;" y2="-10.9" x1="38.718" x2="46.689"/>
  <line y1="-4.767" style="fill:none;stroke:#000000;stroke-width:0.3;" y2="-5.43" x1="38.941" x2="30.613"/>
  <line y1="-5.822" style="fill:none;stroke:#000000;stroke-width:0.3;" y2="-4.746" x1="23.635" x2="16.375"/>
  <path style="fill:none;stroke:#000000;stroke-width:0.3;" d="M21.173-41.597c1.485,0.083,1.32,1.568,0.083,1.65    C20.018-39.864,19.853-41.431,21.173-41.597z"/>
  <path style="fill:none;stroke:#000000;stroke-width:0.3;" d="M32.283-35.906c1.65,0,1.402,1.649,0.165,1.649    C31.21-34.257,30.881-35.906,32.283-35.906z"/>
  <path style="fill:none;stroke:#000000;stroke-width:0.3;" d="M16.96-52.871c1.65,0,1.402,1.649,0.165,1.649    S15.558-52.871,16.96-52.871z"/>
  <path style="fill:none;stroke:#000000;stroke-width:0.3;" d="M52.743-31.947c0,1.32-1.402,1.155-1.485,0    C51.176-33.102,52.743-32.938,52.743-31.947z"/>
  <path style="fill:none;stroke:#000000;stroke-width:0.3;" d="M42.513-26.337c1.403,0,1.32,1.402,0.165,1.402    C41.523-24.935,40.781-26.255,42.513-26.337z"/>
  <path style="fill:none;stroke:#000000;stroke-width:0.3;" d="M51.918-15.364c1.21,0,1.375,1.43,0.275,1.484    C51.093-13.824,50.488-15.255,51.918-15.364z"/>
  <path style="fill:none;stroke:#000000;stroke-width:0.3;" d="M36.683-11.789c0,1.265-1.43,1.045-1.43,0.055    C35.253-12.725,36.683-13.055,36.683-11.789z"/>
  <path style="fill:none;stroke:#000000;stroke-width:0.3;" d="M28.268-20.094c-0.055,1.319-1.54,0.989-1.595,0.055    C26.618-20.975,28.048-21.469,28.268-20.094z"/>
  <path style="fill:none;stroke:#000000;stroke-width:0.3;" d="M3.018-46.031c-0.055,1.319-1.54,0.989-1.595,0.055    C1.368-46.912,2.798-47.406,3.018-46.031z"/>
  <path style="fill:none;stroke:#000000;stroke-width:0.3;" d="M45.701-6.314c0.825,0.604,0.33,1.705-0.825,1.045    C43.721-5.929,44.381-7.085,45.701-6.314z"/>
  <path style="fill:none;stroke:#000000;stroke-width:0.3;" d="M28.323-2.055c1.132,0.417,0.77,1.87-0.44,1.431    C26.673-1.064,27.278-2.44,28.323-2.055z"/>
  <path style="fill:none;stroke:#000000;stroke-width:0.3;" d="M19.578-9.919c1.375,0.109,1.155,1.484,0.165,1.539    C18.753-8.324,18.148-9.919,19.578-9.919z"/>
  <path style="fill:none;stroke:#000000;stroke-width:0.3;" d="M14.188-20.149c1.375,0.936,0.11,1.925-0.88,1.32    C12.318-19.435,13.143-20.645,14.188-20.149z"/>
  <path style="fill:none;stroke:#000000;stroke-width:0.3;" d="M2.136-10.962c0.825,0.825-0.22,1.595-0.88,0.99    C0.596-10.576,0.981-11.677,2.136-10.962z"/>
  <path style="fill:none;stroke:#000000;stroke-width:0.3;" d="M3.974-27.808c0.055,1.266-1.43,1.155-1.485,0.22    C2.434-28.522,3.864-28.963,3.974-27.808z"/>
  <path style="fill:none;stroke:#000000;stroke-width:0.3;" d="M41.367-44.93c0.055,1.266-1.43,1.155-1.485,0.221    C39.827-45.644,41.257-46.084,41.367-44.93z"/>
  <path style="fill:none;stroke:#000000;stroke-width:0.3;" d="M30.875-50.784c1.017,0.611,1.25,2,0.5,2.5S28.5-47.909,28-48.409    s-1-1.5,0.25-2.125S30.25-51.159,30.875-50.784z"/>
  <path style="fill:none;stroke:#000000;stroke-width:0.3;" d="M5.5-49.097c0.625-0.75,1.625-0.75,3.125-0.25s1.625,1,2.125,1    s1.375,2,0.125,2.25s-4.375,0.5-4.75-0.375S5.5-49.097,5.5-49.097z"/>
 </g>
</svg>
