<?xml version="1.0"?>
<!-- Converted with SVG Converter - Version 0.9.6 (Compiled Thu Aug 31 10:01:05 2017) - Copyright (C) 2011 Nokia -->
<svg xmlns="http://www.w3.org/2000/svg" width="54.125" version="1.1" xmlns:xlink="http://www.w3.org/1999/xlink" baseProfile="tiny" xml:space="preserve" height="54.125" y="0px" x="0px" viewBox="0 -54.222 54.125 54.125">
 <g>
  <rect width="54.125" height="54.125" y="-54.222" style="fill:none;"/>
  <line x1="1.758" y2="-38.959" x2="1.758" style="fill:none;stroke:#000000;stroke-width:0.7;stroke-linecap:round;" y1="-38.959"/>
  <line x1="6.488" y2="-40.719" x2="6.488" style="fill:none;stroke:#000000;stroke-width:0.7;stroke-linecap:round;" y1="-40.719"/>
  <line x1="13.642" y2="-38.372" x2="13.642" style="fill:none;stroke:#000000;stroke-width:0.7;stroke-linecap:round;" y1="-38.372"/>
  <line x1="16.828" y2="-40.06" x2="16.828" style="fill:none;stroke:#000000;stroke-width:0.7;stroke-linecap:round;" y1="-40.06"/>
  <line x1="18.808" y2="-36.209" x2="18.808" style="fill:none;stroke:#000000;stroke-width:0.7;stroke-linecap:round;" y1="-36.209"/>
  <line x1="14.958" y2="-34.779" x2="14.958" style="fill:none;stroke:#000000;stroke-width:0.7;stroke-linecap:round;" y1="-34.779"/>
  <line x1="10.888" y2="-35.219" x2="10.888" style="fill:none;stroke:#000000;stroke-width:0.7;stroke-linecap:round;" y1="-35.219"/>
  <line x1="6.378" y2="-35.88" x2="6.378" style="fill:none;stroke:#000000;stroke-width:0.7;stroke-linecap:round;" y1="-35.88"/>
  <line x1="5.058" y2="-31.369" x2="5.058" style="fill:none;stroke:#000000;stroke-width:0.7;stroke-linecap:round;" y1="-31.369"/>
  <line x1="1.318" y2="-31.699" x2="1.318" style="fill:none;stroke:#000000;stroke-width:0.7;stroke-linecap:round;" y1="-31.699"/>
  <line x1="17.625" y2="-49.222" x2="17.625" style="fill:none;stroke:#000000;stroke-width:0.7;stroke-linecap:round;" y1="-49.222"/>
  <line x1="9.625" y2="-43.847" x2="9.625" style="fill:none;stroke:#000000;stroke-width:0.7;stroke-linecap:round;" y1="-43.847"/>
  <line x1="3.692" y2="-43.157" x2="3.692" style="fill:none;stroke:#000000;stroke-width:0.7;stroke-linecap:round;" y1="-43.157"/>
  <line x1="1.375" y2="-50.347" x2="1.375" style="fill:none;stroke:#000000;stroke-width:0.7;stroke-linecap:round;" y1="-50.347"/>
  <line x1="7.875" y2="-51.847" x2="7.875" style="fill:none;stroke:#000000;stroke-width:0.7;stroke-linecap:round;" y1="-51.847"/>
  <line x1="13.5" y2="-49.972" x2="13.5" style="fill:none;stroke:#000000;stroke-width:0.7;stroke-linecap:round;" y1="-49.972"/>
  <line x1="25.305" y2="-44.023" x2="25.305" style="fill:none;stroke:#000000;stroke-width:0.7;stroke-linecap:round;" y1="-44.023"/>
  <line x1="24.625" y2="-47.597" x2="24.625" style="fill:none;stroke:#000000;stroke-width:0.7;stroke-linecap:round;" y1="-47.597"/>
  <line x1="21.875" y2="-50.847" x2="21.875" style="fill:none;stroke:#000000;stroke-width:0.7;stroke-linecap:round;" y1="-50.847"/>
  <line x1="26" y2="-51.972" x2="26" style="fill:none;stroke:#000000;stroke-width:0.7;stroke-linecap:round;" y1="-51.972"/>
  <line x1="34.25" y2="-53.621" x2="34.25" style="fill:none;stroke:#000000;stroke-width:0.7;stroke-linecap:round;" y1="-53.621"/>
  <line x1="46.375" y2="-48.347" x2="46.375" style="fill:none;stroke:#000000;stroke-width:0.7;stroke-linecap:round;" y1="-48.347"/>
  <line x1="53.5" y2="-48.722" x2="53.5" style="fill:none;stroke:#000000;stroke-width:0.7;stroke-linecap:round;" y1="-48.722"/>
  <line x1="50.125" y2="-50.472" x2="50.125" style="fill:none;stroke:#000000;stroke-width:0.7;stroke-linecap:round;" y1="-50.472"/>
  <line x1="47.011" y2="-44.329" x2="47.011" style="fill:none;stroke:#000000;stroke-width:0.7;stroke-linecap:round;" y1="-44.329"/>
  <line x1="45" y2="-51.722" x2="45" style="fill:none;stroke:#000000;stroke-width:0.7;stroke-linecap:round;" y1="-51.722"/>
  <line x1="30.125" y2="-44.999" x2="30.125" style="fill:none;stroke:#000000;stroke-width:0.7;stroke-linecap:round;" y1="-44.999"/>
  <line x1="48.375" y2="-28.972" x2="48.375" style="fill:none;stroke:#000000;stroke-width:0.7;stroke-linecap:round;" y1="-28.972"/>
  <line x1="40.125" y2="-30.597" x2="40.125" style="fill:none;stroke:#000000;stroke-width:0.7;stroke-linecap:round;" y1="-30.597"/>
  <line x1="25.5" y2="-33.597" x2="25.5" style="fill:none;stroke:#000000;stroke-width:0.7;stroke-linecap:round;" y1="-33.597"/>
  <line x1="50.375" y2="-45.597" x2="50.375" style="fill:none;stroke:#000000;stroke-width:0.7;stroke-linecap:round;" y1="-45.597"/>
  <line x1="33.75" y2="-49.347" x2="33.75" style="fill:none;stroke:#000000;stroke-width:0.7;stroke-linecap:round;" y1="-49.347"/>
  <line x1="41.375" y2="-49.347" x2="41.375" style="fill:none;stroke:#000000;stroke-width:0.7;stroke-linecap:round;" y1="-49.347"/>
  <line x1="37.875" y2="-51.847" x2="37.875" style="fill:none;stroke:#000000;stroke-width:0.7;stroke-linecap:round;" y1="-51.847"/>
  <line x1="36.024" y2="-43.608" x2="36.024" style="fill:none;stroke:#000000;stroke-width:0.7;stroke-linecap:round;" y1="-43.608"/>
  <line x1="1.358" y2="-24.777" x2="1.358" style="fill:none;stroke:#000000;stroke-width:0.7;stroke-linecap:round;" y1="-24.777"/>
  <line x1="7.038" y2="-27.3" x2="7.038" style="fill:none;stroke:#000000;stroke-width:0.7;stroke-linecap:round;" y1="-27.3"/>
  <line x1="11.548" y2="-29.94" x2="11.548" style="fill:none;stroke:#000000;stroke-width:0.7;stroke-linecap:round;" y1="-29.94"/>
  <line x1="14.518" y2="-27.3" x2="14.518" style="fill:none;stroke:#000000;stroke-width:0.7;stroke-linecap:round;" y1="-27.3"/>
  <line x1="18.258" y2="-29.94" x2="18.258" style="fill:none;stroke:#000000;stroke-width:0.7;stroke-linecap:round;" y1="-29.94"/>
  <line x1="21.338" y2="-33.569" x2="21.338" style="fill:none;stroke:#000000;stroke-width:0.7;stroke-linecap:round;" y1="-33.569"/>
  <line x1="22.988" y2="-37.199" x2="22.988" style="fill:none;stroke:#000000;stroke-width:0.7;stroke-linecap:round;" y1="-37.199"/>
  <line x1="28.125" y2="-36.222" x2="28.125" style="fill:none;stroke:#000000;stroke-width:0.7;stroke-linecap:round;" y1="-36.222"/>
  <line x1="27.859" y2="-40.667" x2="27.859" style="fill:none;stroke:#000000;stroke-width:0.7;stroke-linecap:round;" y1="-40.667"/>
  <line x1="31.702" y2="-42.348" x2="31.702" style="fill:none;stroke:#000000;stroke-width:0.7;stroke-linecap:round;" y1="-42.348"/>
  <line x1="32.998" y2="-37.199" x2="32.998" style="fill:none;stroke:#000000;stroke-width:0.7;stroke-linecap:round;" y1="-37.199"/>
  <line x1="36.958" y2="-36.1" x2="36.958" style="fill:none;stroke:#000000;stroke-width:0.7;stroke-linecap:round;" y1="-36.1"/>
  <line x1="38.168" y2="-41.05" x2="38.168" style="fill:none;stroke:#000000;stroke-width:0.7;stroke-linecap:round;" y1="-41.05"/>
  <line x1="43" y2="-42.472" x2="43" style="fill:none;stroke:#000000;stroke-width:0.7;stroke-linecap:round;" y1="-42.472"/>
  <line x1="48.632" y2="-40.967" x2="48.632" style="fill:none;stroke:#000000;stroke-width:0.7;stroke-linecap:round;" y1="-40.967"/>
  <line x1="53.568" y2="-41.709" x2="53.568" style="fill:none;stroke:#000000;stroke-width:0.7;stroke-linecap:round;" y1="-41.709"/>
  <line x1="49.608" y2="-36.869" x2="49.608" style="fill:none;stroke:#000000;stroke-width:0.7;stroke-linecap:round;" y1="-36.869"/>
  <line x1="46.088" y2="-35.77" x2="46.088" style="fill:none;stroke:#000000;stroke-width:0.7;stroke-linecap:round;" y1="-35.77"/>
  <line x1="48.178" y2="-32.689" x2="48.178" style="fill:none;stroke:#000000;stroke-width:0.7;stroke-linecap:round;" y1="-32.689"/>
  <line x1="52.908" y2="-35" x2="52.908" style="fill:none;stroke:#000000;stroke-width:0.7;stroke-linecap:round;" y1="-35"/>
  <line x1="41.688" y2="-33.68" x2="41.688" style="fill:none;stroke:#000000;stroke-width:0.7;stroke-linecap:round;" y1="-33.68"/>
  <line x1="50.708" y2="-27.3" x2="50.708" style="fill:none;stroke:#000000;stroke-width:0.7;stroke-linecap:round;" y1="-27.3"/>
  <line x1="44.658" y2="-29.389" x2="44.658" style="fill:none;stroke:#000000;stroke-width:0.7;stroke-linecap:round;" y1="-29.389"/>
  <line x1="38.718" y2="-26.859" x2="38.718" style="fill:none;stroke:#000000;stroke-width:0.7;stroke-linecap:round;" y1="-26.859"/>
  <line x1="35.638" y2="-29.609" x2="35.638" style="fill:none;stroke:#000000;stroke-width:0.7;stroke-linecap:round;" y1="-29.609"/>
  <line x1="30.688" y2="-30.38" x2="30.688" style="fill:none;stroke:#000000;stroke-width:0.7;stroke-linecap:round;" y1="-30.38"/>
  <line x1="32.668" y2="-26.75" x2="32.668" style="fill:none;stroke:#000000;stroke-width:0.7;stroke-linecap:round;" y1="-26.75"/>
  <line x1="41.798" y2="-22.239" x2="41.798" style="fill:none;stroke:#000000;stroke-width:0.7;stroke-linecap:round;" y1="-22.239"/>
  <line x1="45.538" y2="-23.669" x2="45.538" style="fill:none;stroke:#000000;stroke-width:0.7;stroke-linecap:round;" y1="-23.669"/>
  <line x1="48.288" y2="-20.81" x2="48.288" style="fill:none;stroke:#000000;stroke-width:0.7;stroke-linecap:round;" y1="-20.81"/>
  <line x1="51.479" y2="-22.899" x2="51.479" style="fill:none;stroke:#000000;stroke-width:0.7;stroke-linecap:round;" y1="-22.899"/>
  <line x1="51.148" y2="-17.399" x2="51.148" style="fill:none;stroke:#000000;stroke-width:0.7;stroke-linecap:round;" y1="-17.399"/>
  <line x1="47.408" y2="-13.769" x2="47.408" style="fill:none;stroke:#000000;stroke-width:0.7;stroke-linecap:round;" y1="-13.769"/>
  <line x1="42.788" y2="-14.869" x2="42.788" style="fill:none;stroke:#000000;stroke-width:0.7;stroke-linecap:round;" y1="-14.869"/>
  <line x1="38.718" y2="-14.1" x2="38.718" style="fill:none;stroke:#000000;stroke-width:0.7;stroke-linecap:round;" y1="-14.1"/>
  <line x1="34.538" y2="-15.089" x2="34.538" style="fill:none;stroke:#000000;stroke-width:0.7;stroke-linecap:round;" y1="-15.089"/>
  <line x1="30.358" y2="-17.399" x2="30.358" style="fill:none;stroke:#000000;stroke-width:0.7;stroke-linecap:round;" y1="-17.399"/>
  <line x1="33.988" y2="-22.569" x2="33.988" style="fill:none;stroke:#000000;stroke-width:0.7;stroke-linecap:round;" y1="-22.569"/>
  <line x1="38.058" y2="-20.26" x2="38.058" style="fill:none;stroke:#000000;stroke-width:0.7;stroke-linecap:round;" y1="-20.26"/>
  <line x1="52.358" y2="-11.019" x2="52.358" style="fill:none;stroke:#000000;stroke-width:0.7;stroke-linecap:round;" y1="-11.019"/>
  <line x1="49.938" y2="-8.489" x2="49.938" style="fill:none;stroke:#000000;stroke-width:0.7;stroke-linecap:round;" y1="-8.489"/>
  <line x1="45.538" y2="-8.489" x2="45.538" style="fill:none;stroke:#000000;stroke-width:0.7;stroke-linecap:round;" y1="-8.489"/>
  <line x1="41.138" y2="-9.039" x2="41.138" style="fill:none;stroke:#000000;stroke-width:0.7;stroke-linecap:round;" y1="-9.039"/>
  <line x1="37.178" y2="-6.729" x2="37.178" style="fill:none;stroke:#000000;stroke-width:0.7;stroke-linecap:round;" y1="-6.729"/>
  <line x1="41.798" y2="-4.639" x2="41.798" style="fill:none;stroke:#000000;stroke-width:0.7;stroke-linecap:round;" y1="-4.639"/>
  <line x1="44.328" y2="-1.339" x2="44.328" style="fill:none;stroke:#000000;stroke-width:0.7;stroke-linecap:round;" y1="-1.339"/>
  <line x1="52.578" y2="-1.889" x2="52.578" style="fill:none;stroke:#000000;stroke-width:0.7;stroke-linecap:round;" y1="-1.889"/>
  <line x1="53.019" y2="-6.289" x2="53.019" style="fill:none;stroke:#000000;stroke-width:0.7;stroke-linecap:round;" y1="-6.289"/>
  <line x1="40.588" y2="-0.459" x2="40.588" style="fill:none;stroke:#000000;stroke-width:0.7;stroke-linecap:round;" y1="-0.459"/>
  <line x1="37.838" y2="-2.989" x2="37.838" style="fill:none;stroke:#000000;stroke-width:0.7;stroke-linecap:round;" y1="-2.989"/>
  <line x1="31.568" y2="-2.659" x2="31.568" style="fill:none;stroke:#000000;stroke-width:0.7;stroke-linecap:round;" y1="-2.659"/>
  <line x1="32.558" y2="-8.269" x2="32.558" style="fill:none;stroke:#000000;stroke-width:0.7;stroke-linecap:round;" y1="-8.269"/>
  <line x1="31.128" y2="-12.339" x2="31.128" style="fill:none;stroke:#000000;stroke-width:0.7;stroke-linecap:round;" y1="-12.339"/>
  <line x1="27.388" y2="-14.649" x2="27.388" style="fill:none;stroke:#000000;stroke-width:0.7;stroke-linecap:round;" y1="-14.649"/>
  <line x1="26.068" y2="-18.06" x2="26.068" style="fill:none;stroke:#000000;stroke-width:0.7;stroke-linecap:round;" y1="-18.06"/>
  <line x1="23.098" y2="-14.43" x2="23.098" style="fill:none;stroke:#000000;stroke-width:0.7;stroke-linecap:round;" y1="-14.43"/>
  <line x1="29.148" y2="-22.02" x2="29.148" style="fill:none;stroke:#000000;stroke-width:0.7;stroke-linecap:round;" y1="-22.02"/>
  <line x1="27.388" y2="-26.529" x2="27.388" style="fill:none;stroke:#000000;stroke-width:0.7;stroke-linecap:round;" y1="-26.529"/>
  <line x1="24.198" y2="-23.779" x2="24.198" style="fill:none;stroke:#000000;stroke-width:0.7;stroke-linecap:round;" y1="-23.779"/>
  <line x1="23.318" y2="-20.149" x2="23.318" style="fill:none;stroke:#000000;stroke-width:0.7;stroke-linecap:round;" y1="-20.149"/>
  <line x1="22.438" y2="-26.859" x2="22.438" style="fill:none;stroke:#000000;stroke-width:0.7;stroke-linecap:round;" y1="-26.859"/>
  <line x1="19.468" y2="-24.989" x2="19.468" style="fill:none;stroke:#000000;stroke-width:0.7;stroke-linecap:round;" y1="-24.989"/>
  <line x1="20.018" y2="-20.81" x2="20.018" style="fill:none;stroke:#000000;stroke-width:0.7;stroke-linecap:round;" y1="-20.81"/>
  <line x1="16.608" y2="-22.789" x2="16.608" style="fill:none;stroke:#000000;stroke-width:0.7;stroke-linecap:round;" y1="-22.789"/>
  <line x1="13.198" y2="-22.459" x2="13.198" style="fill:none;stroke:#000000;stroke-width:0.7;stroke-linecap:round;" y1="-22.459"/>
  <line x1="9.568" y2="-23.56" x2="9.568" style="fill:none;stroke:#000000;stroke-width:0.7;stroke-linecap:round;" y1="-23.56"/>
  <line x1="9.788" y2="-18.719" x2="9.788" style="fill:none;stroke:#000000;stroke-width:0.7;stroke-linecap:round;" y1="-18.719"/>
  <line x1="16.718" y2="-17.069" x2="16.718" style="fill:none;stroke:#000000;stroke-width:0.7;stroke-linecap:round;" y1="-17.069"/>
  <line x1="19.358" y2="-13.88" x2="19.358" style="fill:none;stroke:#000000;stroke-width:0.7;stroke-linecap:round;" y1="-13.88"/>
  <line x1="14.518" y2="-14.539" x2="14.518" style="fill:none;stroke:#000000;stroke-width:0.7;stroke-linecap:round;" y1="-14.539"/>
  <line x1="10.228" y2="-14.76" x2="10.228" style="fill:none;stroke:#000000;stroke-width:0.7;stroke-linecap:round;" y1="-14.76"/>
  <line x1="6.818" y2="-15.969" x2="6.818" style="fill:none;stroke:#000000;stroke-width:0.7;stroke-linecap:round;" y1="-15.969"/>
  <line x1="5.168" y2="-13.329" x2="5.168" style="fill:none;stroke:#000000;stroke-width:0.7;stroke-linecap:round;" y1="-13.329"/>
  <line x1="2.418" y2="-16.959" x2="2.418" style="fill:none;stroke:#000000;stroke-width:0.7;stroke-linecap:round;" y1="-16.959"/>
  <line x1="0.438" y2="-19.709" x2="0.438" style="fill:none;stroke:#000000;stroke-width:0.7;stroke-linecap:round;" y1="-19.709"/>
  <line x1="1.798" y2="-13.405" x2="1.798" style="fill:none;stroke:#000000;stroke-width:0.7;stroke-linecap:round;" y1="-13.405"/>
  <line x1="5.058" y2="-8.159" x2="5.058" style="fill:none;stroke:#000000;stroke-width:0.7;stroke-linecap:round;" y1="-8.159"/>
  <line x1="15.663" y2="-43.319" x2="15.663" style="fill:none;stroke:#000000;stroke-width:0.7;stroke-linecap:round;" y1="-43.319"/>
  <line x1="9.5" y2="-9.222" x2="9.5" style="fill:none;stroke:#000000;stroke-width:0.7;stroke-linecap:round;" y1="-9.222"/>
  <line x1="13.5" y2="-8.347" x2="13.5" style="fill:none;stroke:#000000;stroke-width:0.7;stroke-linecap:round;" y1="-8.347"/>
  <line x1="16.498" y2="-6.839" x2="16.498" style="fill:none;stroke:#000000;stroke-width:0.7;stroke-linecap:round;" y1="-6.839"/>
  <line x1="17.268" y2="-10.909" x2="17.268" style="fill:none;stroke:#000000;stroke-width:0.7;stroke-linecap:round;" y1="-10.909"/>
  <line x1="22.438" y2="-10.469" x2="22.438" style="fill:none;stroke:#000000;stroke-width:0.7;stroke-linecap:round;" y1="-10.469"/>
  <line x1="20.646" y2="-45.107" x2="20.646" style="fill:none;stroke:#000000;stroke-width:0.7;stroke-linecap:round;" y1="-45.107"/>
  <line x1="23.5" y2="-7.222" x2="23.5" style="fill:none;stroke:#000000;stroke-width:0.7;stroke-linecap:round;" y1="-7.222"/>
  <line x1="27.498" y2="-5.63" x2="27.498" style="fill:none;stroke:#000000;stroke-width:0.7;stroke-linecap:round;" y1="-5.63"/>
  <line x1="25.298" y2="-2.659" x2="25.298" style="fill:none;stroke:#000000;stroke-width:0.7;stroke-linecap:round;" y1="-2.659"/>
  <line x1="21.008" y2="-0.569" x2="21.008" style="fill:none;stroke:#000000;stroke-width:0.7;stroke-linecap:round;" y1="-0.569"/>
  <line x1="21.937" y2="-3.621" x2="21.937" style="fill:none;stroke:#000000;stroke-width:0.7;stroke-linecap:round;" y1="-3.621"/>
  <line x1="16.828" y2="-1.339" x2="16.828" style="fill:none;stroke:#000000;stroke-width:0.7;stroke-linecap:round;" y1="-1.339"/>
  <line x1="13.308" y2="-4.31" x2="13.308" style="fill:none;stroke:#000000;stroke-width:0.7;stroke-linecap:round;" y1="-4.31"/>
  <line x1="13.088" y2="-1.01" x2="13.088" style="fill:none;stroke:#000000;stroke-width:0.7;stroke-linecap:round;" y1="-1.01"/>
  <line x1="7.588" y2="-0.35" x2="7.588" style="fill:none;stroke:#000000;stroke-width:0.7;stroke-linecap:round;" y1="-0.35"/>
  <line x1="4.948" y2="-2.44" x2="4.948" style="fill:none;stroke:#000000;stroke-width:0.7;stroke-linecap:round;" y1="-2.44"/>
  <line x1="0.625" y2="-0.722" x2="0.625" style="fill:none;stroke:#000000;stroke-width:0.7;stroke-linecap:round;" y1="-0.722"/>
  <line x1="1.758" y2="-5.63" x2="1.758" style="fill:none;stroke:#000000;stroke-width:0.7;stroke-linecap:round;" y1="-5.63"/>
  <path d="M20.898-30.627" style="fill:none;stroke:#000000;stroke-width:0.3;"/>
  <path d="M20.898-30.627c0.76-1.266,2.64-1.485,3.465-1.237    c0.825,0.247,1.155,0.66,1.65,0.577c0.495-0.082,1.732,1.155,0.578,1.98c-1.155,0.825-2.888,1.567-3.465,1.237    c-0.577-0.33-1.237-0.66-1.65-0.825C21.063-29.06,20.651-30.214,20.898-30.627z" style="fill:none;stroke:#000000;stroke-width:0.3;"/>
  <path d="M41.358-38.877c0.99,0,1.815,0.577,2.062,1.237    c0.248,0.66-0.66,2.64-2.558,1.402C38.966-37.475,39.708-39.042,41.358-38.877z" style="fill:none;stroke:#000000;stroke-width:0.3;"/>
  <path d="M45.813-20.067c2.228,1.403,2.062,3.631-0.413,2.888    c-2.475-0.742-2.393-0.989-3.465-2.64C40.863-21.469,44.328-20.975,45.813-20.067z" style="fill:none;stroke:#000000;stroke-width:0.3;"/>
  <path d="M28.901-11.322c1.732,0.908,1.402,2.641-0.578,2.229    c-1.98-0.413-2.723-1.237-3.135-2.146c-0.412-0.907,0.99-1.979,2.558-0.99C28.158-11.817,28.901-11.322,28.901-11.322z" style="fill:none;stroke:#000000;stroke-width:0.3;"/>
  <path d="M6.213-23.284c1.238,0.247,1.898,0.742,1.98,1.732    c0.083,0.989-0.577,1.979-2.887,1.814c-2.31-0.164-3.795-0.577-2.475-2.144c0.825-0.082,1.155-0.248,1.485-0.907    C4.646-23.449,5.636-23.449,6.213-23.284z" style="fill:none;stroke:#000000;stroke-width:0.3;"/>
  <path d="M2.831-36.154c1.732-0.66,3.3,1.402,1.237,1.979    C2.005-33.597,1.016-35.742,2.831-36.154z" style="fill:none;stroke:#000000;stroke-width:0.3;"/>
  <path d="M49.608-4.475c1.485-1.155,2.723,0.331,1.732,1.155    c-0.99,0.825-2.393,1.98-3.3,1.32c-0.908-0.66-0.578-1.816,0.33-1.981C49.278-4.144,49.608-4.475,49.608-4.475z" style="fill:none;stroke:#000000;stroke-width:0.3;"/>
  <path d="M9.266-5.794c2.062,0.412,2.97,1.402,1.567,2.227    c-1.402,0.825-1.402,0.661-2.97,0.166c-1.568-0.495-2.97-1.073-1.98-1.815C6.873-5.959,8.193-6.206,9.266-5.794z" style="fill:none;stroke:#000000;stroke-width:0.3;"/>
  <line x1="6.385" y2="-41.073" x2="13.642" style="fill:none;stroke:#000000;stroke-width:0.3;" y1="-38.388"/>
  <line x1="3.783" y2="-52.736" x2="12.027" style="fill:none;stroke:#000000;stroke-width:0.3;" y1="-53.305"/>
  <line x1="26.298" y2="-38.549" x2="34.598" style="fill:none;stroke:#000000;stroke-width:0.3;" y1="-39.466"/>
  <line x1="45.979" y2="-39.759" x2="52.09" style="fill:none;stroke:#000000;stroke-width:0.3;" y1="-38.959"/>
  <line x1="42.854" y2="-52.656" x2="49.913" style="fill:none;stroke:#000000;stroke-width:0.3;" y1="-53.459"/>
  <line x1="43.946" y2="-32.672" x2="35.609" style="fill:none;stroke:#000000;stroke-width:0.3;" y1="-31.985"/>
  <line x1="17.378" y2="-32.665" x2="10.415" style="fill:none;stroke:#000000;stroke-width:0.3;" y1="-32.139"/>
  <line x1="20.33" y2="-45.84" x2="13.96" style="fill:none;stroke:#000000;stroke-width:0.3;" y1="-47.094"/>
  <line x1="39.384" y2="-46.637" x2="32.873" style="fill:none;stroke:#000000;stroke-width:0.3;" y1="-47.19"/>
  <line x1="7.038" y2="-25.088" x2="14.446" style="fill:none;stroke:#000000;stroke-width:0.3;" y1="-25.539"/>
  <line x1="28.391" y2="-25.652" x2="36.129" style="fill:none;stroke:#000000;stroke-width:0.3;" y1="-24.604"/>
  <line x1="22.587" y2="-53.414" x2="30.988" style="fill:none;stroke:#000000;stroke-width:0.3;" y1="-52.979"/>
  <line x1="46.858" y2="-23.658" x2="53.576" style="fill:none;stroke:#000000;stroke-width:0.3;" y1="-25.319"/>
  <line x1="38.718" y2="-19.042" x2="32.502" style="fill:none;stroke:#000000;stroke-width:0.3;" y1="-18.5"/>
  <line x1="23.958" y2="-18.279" x2="17.378" style="fill:none;stroke:#000000;stroke-width:0.3;" y1="-16.946"/>
  <line x1="5.659" y2="-12.271" x2="13.881" style="fill:none;stroke:#000000;stroke-width:0.3;" y1="-10.981"/>
  <line x1="38.718" y2="-10.9" x2="46.689" style="fill:none;stroke:#000000;stroke-width:0.3;" y1="-11.68"/>
  <line x1="38.941" y2="-5.43" x2="30.613" style="fill:none;stroke:#000000;stroke-width:0.3;" y1="-4.767"/>
  <line x1="23.635" y2="-4.746" x2="16.375" style="fill:none;stroke:#000000;stroke-width:0.3;" y1="-5.822"/>
  <path d="M21.173-41.597c1.485,0.083,1.32,1.568,0.083,1.65    C20.018-39.864,19.853-41.431,21.173-41.597z" style="fill:none;stroke:#000000;stroke-width:0.3;"/>
  <path d="M32.283-35.906c1.65,0,1.402,1.649,0.165,1.649    C31.21-34.257,30.881-35.906,32.283-35.906z" style="fill:none;stroke:#000000;stroke-width:0.3;"/>
  <path d="M16.96-52.871c1.65,0,1.402,1.649,0.165,1.649    S15.558-52.871,16.96-52.871z" style="fill:none;stroke:#000000;stroke-width:0.3;"/>
  <path d="M52.743-31.947c0,1.32-1.402,1.155-1.485,0    C51.176-33.102,52.743-32.938,52.743-31.947z" style="fill:none;stroke:#000000;stroke-width:0.3;"/>
  <path d="M42.513-26.337c1.403,0,1.32,1.402,0.165,1.402    C41.523-24.935,40.781-26.255,42.513-26.337z" style="fill:none;stroke:#000000;stroke-width:0.3;"/>
  <path d="M51.918-15.364c1.21,0,1.375,1.43,0.275,1.484    C51.093-13.824,50.488-15.255,51.918-15.364z" style="fill:none;stroke:#000000;stroke-width:0.3;"/>
  <path d="M36.683-11.789c0,1.265-1.43,1.045-1.43,0.055    C35.253-12.725,36.683-13.055,36.683-11.789z" style="fill:none;stroke:#000000;stroke-width:0.3;"/>
  <path d="M28.268-20.094c-0.055,1.319-1.54,0.989-1.595,0.055    C26.618-20.975,28.048-21.469,28.268-20.094z" style="fill:none;stroke:#000000;stroke-width:0.3;"/>
  <path d="M3.018-46.031c-0.055,1.319-1.54,0.989-1.595,0.055    C1.368-46.912,2.798-47.406,3.018-46.031z" style="fill:none;stroke:#000000;stroke-width:0.3;"/>
  <path d="M45.701-6.314c0.825,0.604,0.33,1.705-0.825,1.045    C43.721-5.929,44.381-7.085,45.701-6.314z" style="fill:none;stroke:#000000;stroke-width:0.3;"/>
  <path d="M28.323-2.055c1.132,0.417,0.77,1.87-0.44,1.431    C26.673-1.064,27.278-2.44,28.323-2.055z" style="fill:none;stroke:#000000;stroke-width:0.3;"/>
  <path d="M19.578-9.919c1.375,0.109,1.155,1.484,0.165,1.539    C18.753-8.324,18.148-9.919,19.578-9.919z" style="fill:none;stroke:#000000;stroke-width:0.3;"/>
  <path d="M14.188-20.149c1.375,0.936,0.11,1.925-0.88,1.32    C12.318-19.435,13.143-20.645,14.188-20.149z" style="fill:none;stroke:#000000;stroke-width:0.3;"/>
  <path d="M2.136-10.962c0.825,0.825-0.22,1.595-0.88,0.99    C0.596-10.576,0.981-11.677,2.136-10.962z" style="fill:none;stroke:#000000;stroke-width:0.3;"/>
  <path d="M3.974-27.808c0.055,1.266-1.43,1.155-1.485,0.22    C2.434-28.522,3.864-28.963,3.974-27.808z" style="fill:none;stroke:#000000;stroke-width:0.3;"/>
  <path d="M41.367-44.93c0.055,1.266-1.43,1.155-1.485,0.221    C39.827-45.644,41.257-46.084,41.367-44.93z" style="fill:none;stroke:#000000;stroke-width:0.3;"/>
  <path d="M30.875-50.784c1.017,0.611,1.25,2,0.5,2.5S28.5-47.909,28-48.409    s-1-1.5,0.25-2.125S30.25-51.159,30.875-50.784z" style="fill:none;stroke:#000000;stroke-width:0.3;"/>
  <path d="M5.5-49.097c0.625-0.75,1.625-0.75,3.125-0.25s1.625,1,2.125,1    s1.375,2,0.125,2.25s-4.375,0.5-4.75-0.375S5.5-49.097,5.5-49.097z" style="fill:none;stroke:#000000;stroke-width:0.3;"/>
 </g>
</svg>
