<?xml version="1.0"?>
<!-- Converted with SVG Converter - Version 0.9.5 (Compiled Fri Feb 21 09:53:38 2020) - Copyright (C) 2011 Nokia -->
<svg xmlns="http://www.w3.org/2000/svg" width="85.875" height="85.875" xmlns:xlink="http://www.w3.org/1999/xlink" version="1.1" xml:space="preserve" y="0px" baseProfile="tiny" x="0px" viewBox="0 -85.875 85.875 85.875">
 <g>
  <rect width="85.875" height="85.875" style="fill:none;" y="-85.875" x="0"/>
  <line y1="-77.909" y2="-75.284" style="fill:none;stroke:#000000;stroke-width:0.3;" x1="9.375" x2="11.625"/>
  <line y1="-81.659" y2="-81.534" style="fill:none;stroke:#000000;stroke-width:0.3;" x1="9.5" x2="12.875"/>
  <line y1="-78.471" y2="-76.426" style="fill:none;stroke:#000000;stroke-width:0.3;" x1="20.375" x2="23.063"/>
  <line y1="-79.534" y2="-76.784" style="fill:none;stroke:#000000;stroke-width:0.3;" x1="16.875" x2="14.75"/>
  <line y1="-82.284" y2="-84.034" style="fill:none;stroke:#000000;stroke-width:0.3;" x1="18.5" x2="15.75"/>
  <line y1="-85.034" y2="-83.534" style="fill:none;stroke:#000000;stroke-width:0.3;" x1="23.75" x2="21.5"/>
  <line y1="-81.659" y2="-78.534" style="fill:none;stroke:#000000;stroke-width:0.3;" x1="25.375" x2="25.5"/>
  <line y1="-84.226" y2="-82.976" style="fill:none;stroke:#000000;stroke-width:0.3;" x1="28.75" x2="31.25"/>
  <line y1="-82.592" y2="-84.967" style="fill:none;stroke:#000000;stroke-width:0.3;" x1="35.125" x2="37.125"/>
  <line y1="-81.659" y2="-79.409" style="fill:none;stroke:#000000;stroke-width:0.3;" x1="39.875" x2="42.625"/>
  <line y1="-78.034" y2="-75.034" style="fill:none;stroke:#000000;stroke-width:0.3;" x1="35.75" x2="36.375"/>
  <line y1="-78.034" y2="-75.409" style="fill:none;stroke:#000000;stroke-width:0.3;" x1="31.5" x2="29"/>
  <line y1="-75.034" y2="-72.409" style="fill:none;stroke:#000000;stroke-width:0.3;" x1="42.5" x2="40.375"/>
  <line y1="-68.659" y2="-67.534" style="fill:none;stroke:#000000;stroke-width:0.3;" x1="39" x2="42.375"/>
  <line y1="-70.318" y2="-72.791" style="fill:none;stroke:#000000;stroke-width:0.3;" x1="34.701" x2="31.398"/>
  <line y1="-67.909" y2="-66.534" style="fill:none;stroke:#000000;stroke-width:0.3;" x1="31.25" x2="28.375"/>
  <line y1="-66.784" y2="-63.409" style="fill:none;stroke:#000000;stroke-width:0.3;" x1="35.25" x2="34.25"/>
  <line y1="-63.659" y2="-60.909" style="fill:none;stroke:#000000;stroke-width:0.3;" x1="40" x2="41.75"/>
  <line y1="-56.284" y2="-54.659" style="fill:none;stroke:#000000;stroke-width:0.3;" x1="42" x2="39.25"/>
  <line y1="-59.034" y2="-59.534" style="fill:none;stroke:#000000;stroke-width:0.3;" x1="37.5" x2="34"/>
  <line y1="-50.034" y2="-49.784" style="fill:none;stroke:#000000;stroke-width:0.3;" x1="38.875" x2="42.5"/>
  <line y1="-48.043" y2="-45.043" style="fill:none;stroke:#000000;stroke-width:0.3;" x1="37.4" x2="38.65"/>
  <line y1="-81.275" y2="-78.775" style="fill:none;stroke:#000000;stroke-width:0.3;" x1="6.25" x2="3.875"/>
  <line y1="-76.034" y2="-74.909" style="fill:none;stroke:#000000;stroke-width:0.3;" x1="3.75" x2="7.75"/>
  <line y1="-72.284" y2="-68.659" style="fill:none;stroke:#000000;stroke-width:0.3;" x1="2.75" x2="3.875"/>
  <path d="M4.5-65.659" style="fill:none;stroke:#000000;stroke-width:0.3;"/>
  <line y1="-65.659" y2="-63.284" style="fill:none;stroke:#000000;stroke-width:0.3;" x1="4.5" x2="1.5"/>
  <line y1="-60" y2="-56.375" style="fill:none;stroke:#000000;stroke-width:0.3;" x1="4.509" x2="4.134"/>
  <line y1="-53.159" y2="-51.159" style="fill:none;stroke:#000000;stroke-width:0.3;" x1="1.75" x2="4.625"/>
  <line y1="-47.409" y2="-44.409" style="fill:none;stroke:#000000;stroke-width:0.3;" x1="2.125" x2="0.5"/>
  <line y1="-84.784" y2="-84.034" style="fill:none;stroke:#000000;stroke-width:0.3;" x1="0.375" x2="3.625"/>
  <line y1="-43.784" y2="-47.284" style="fill:none;stroke:#000000;stroke-width:0.3;" x1="8.5" x2="7.375"/>
  <line y1="-43.367" y2="-45.492" style="fill:none;stroke:#000000;stroke-width:0.3;" x1="12.083" x2="15.208"/>
  <line y1="-51.034" y2="-51.659" style="fill:none;stroke:#000000;stroke-width:0.3;" x1="8.625" x2="12"/>
  <line y1="-62.159" y2="-62.034" style="fill:none;stroke:#000000;stroke-width:0.3;" x1="6.75" x2="10.375"/>
  <line y1="-71.534" y2="-71.284" style="fill:none;stroke:#000000;stroke-width:0.3;" x1="10.875" x2="6.75"/>
  <line y1="-68.409" y2="-65.409" style="fill:none;stroke:#000000;stroke-width:0.3;" x1="11.375" x2="9.375"/>
  <line y1="-64.784" y2="-62.784" style="fill:none;stroke:#000000;stroke-width:0.3;" x1="14.375" x2="16.875"/>
  <line y1="-72.409" y2="-68.659" style="fill:none;stroke:#000000;stroke-width:0.3;" x1="14.375" x2="15.5"/>
  <line y1="-50.909" y2="-49.833" style="fill:none;stroke:#000000;stroke-width:0.3;" x1="26.099" x2="29.863"/>
  <line y1="-74.121" y2="-72.784" style="fill:none;stroke:#000000;stroke-width:0.3;" x1="18.456" x2="21.75"/>
  <line y1="-72.784" y2="-69.513" style="fill:none;stroke:#000000;stroke-width:0.3;" x1="25.625" x2="27.208"/>
  <line y1="-68.784" y2="-66.034" style="fill:none;stroke:#000000;stroke-width:0.3;" x1="21.5" x2="18.875"/>
  <line y1="-63.784" y2="-64.284" style="fill:none;stroke:#000000;stroke-width:0.3;" x1="22" x2="25.375"/>
  <line y1="-62.909" y2="-60.909" style="fill:none;stroke:#000000;stroke-width:0.3;" x1="28.125" x2="31.375"/>
  <line y1="-57.409" y2="-54.534" style="fill:none;stroke:#000000;stroke-width:0.3;" x1="30" x2="27.875"/>
  <line y1="-51.159" y2="-54.409" style="fill:none;stroke:#000000;stroke-width:0.3;" x1="35" x2="33.5"/>
  <line y1="-44.117" y2="-47.242" style="fill:none;stroke:#000000;stroke-width:0.3;" x1="31.567" x2="34.317"/>
  <line y1="-44.909" y2="-47.909" style="fill:none;stroke:#000000;stroke-width:0.3;" x1="26.375" x2="24.625"/>
  <line y1="-45.025" y2="-48.15" style="fill:none;stroke:#000000;stroke-width:0.3;" x1="20.208" x2="21.333"/>
  <line y1="-54.242" y2="-52.867" style="fill:none;stroke:#000000;stroke-width:0.3;" x1="20" x2="23.25"/>
  <line y1="-56.068" y2="-59.585" style="fill:none;stroke:#000000;stroke-width:0.3;" x1="23.868" x2="25.168"/>
  <line y1="-60.784" y2="-58.659" style="fill:none;stroke:#000000;stroke-width:0.3;" x1="19.875" x2="16.75"/>
  <line y1="-53.617" y2="-50.492" style="fill:none;stroke:#000000;stroke-width:0.3;" x1="15.167" x2="17.542"/>
  <line y1="-77.909" y2="-75.284" style="fill:none;stroke:#000000;stroke-width:0.3;" x1="52.413" x2="54.663"/>
  <line y1="-81.659" y2="-81.534" style="fill:none;stroke:#000000;stroke-width:0.3;" x1="52.538" x2="55.913"/>
  <line y1="-78.471" y2="-76.426" style="fill:none;stroke:#000000;stroke-width:0.3;" x1="63.413" x2="66.101"/>
  <line y1="-79.534" y2="-76.784" style="fill:none;stroke:#000000;stroke-width:0.3;" x1="59.913" x2="57.788"/>
  <line y1="-82.284" y2="-84.034" style="fill:none;stroke:#000000;stroke-width:0.3;" x1="61.538" x2="58.788"/>
  <line y1="-85.034" y2="-83.534" style="fill:none;stroke:#000000;stroke-width:0.3;" x1="66.788" x2="64.538"/>
  <line y1="-81.659" y2="-78.534" style="fill:none;stroke:#000000;stroke-width:0.3;" x1="68.413" x2="68.538"/>
  <line y1="-84.226" y2="-82.976" style="fill:none;stroke:#000000;stroke-width:0.3;" x1="71.788" x2="74.288"/>
  <line y1="-82.592" y2="-84.967" style="fill:none;stroke:#000000;stroke-width:0.3;" x1="78.163" x2="80.163"/>
  <line y1="-81.659" y2="-79.409" style="fill:none;stroke:#000000;stroke-width:0.3;" x1="82.913" x2="85.663"/>
  <line y1="-78.034" y2="-75.034" style="fill:none;stroke:#000000;stroke-width:0.3;" x1="78.788" x2="79.413"/>
  <line y1="-78.034" y2="-75.409" style="fill:none;stroke:#000000;stroke-width:0.3;" x1="74.538" x2="72.038"/>
  <line y1="-75.034" y2="-72.409" style="fill:none;stroke:#000000;stroke-width:0.3;" x1="85.538" x2="83.413"/>
  <line y1="-68.659" y2="-67.534" style="fill:none;stroke:#000000;stroke-width:0.3;" x1="82.038" x2="85.413"/>
  <line y1="-71.409" y2="-71.534" style="fill:none;stroke:#000000;stroke-width:0.3;" x1="78.163" x2="74.038"/>
  <line y1="-67.909" y2="-66.534" style="fill:none;stroke:#000000;stroke-width:0.3;" x1="74.288" x2="71.413"/>
  <line y1="-66.784" y2="-63.409" style="fill:none;stroke:#000000;stroke-width:0.3;" x1="78.288" x2="77.288"/>
  <line y1="-63.659" y2="-60.909" style="fill:none;stroke:#000000;stroke-width:0.3;" x1="83.038" x2="84.788"/>
  <line y1="-56.284" y2="-54.659" style="fill:none;stroke:#000000;stroke-width:0.3;" x1="85.038" x2="82.288"/>
  <line y1="-59.034" y2="-59.534" style="fill:none;stroke:#000000;stroke-width:0.3;" x1="80.538" x2="77.038"/>
  <line y1="-50.034" y2="-49.784" style="fill:none;stroke:#000000;stroke-width:0.3;" x1="81.913" x2="85.538"/>
  <line y1="-48.043" y2="-45.043" style="fill:none;stroke:#000000;stroke-width:0.3;" x1="80.437" x2="81.687"/>
  <line y1="-82.409" y2="-79.909" style="fill:none;stroke:#000000;stroke-width:0.3;" x1="49.288" x2="46.913"/>
  <line y1="-76.034" y2="-74.909" style="fill:none;stroke:#000000;stroke-width:0.3;" x1="46.788" x2="50.788"/>
  <line y1="-72.284" y2="-68.659" style="fill:none;stroke:#000000;stroke-width:0.3;" x1="45.788" x2="46.913"/>
  <path d="M47.538-65.659" style="fill:none;stroke:#000000;stroke-width:0.3;"/>
  <line y1="-65.659" y2="-63.284" style="fill:none;stroke:#000000;stroke-width:0.3;" x1="47.538" x2="44.538"/>
  <line y1="-58.583" y2="-55.354" style="fill:none;stroke:#000000;stroke-width:0.3;" x1="46.98" x2="48.669"/>
  <line y1="-53.159" y2="-51.159" style="fill:none;stroke:#000000;stroke-width:0.3;" x1="44.788" x2="47.663"/>
  <line y1="-47.409" y2="-44.409" style="fill:none;stroke:#000000;stroke-width:0.3;" x1="46.863" x2="45.238"/>
  <line y1="-84.784" y2="-84.034" style="fill:none;stroke:#000000;stroke-width:0.3;" x1="43.413" x2="46.663"/>
  <line y1="-42.367" y2="-45.867" style="fill:none;stroke:#000000;stroke-width:0.3;" x1="52.388" x2="51.263"/>
  <line y1="-45.659" y2="-47.784" style="fill:none;stroke:#000000;stroke-width:0.3;" x1="56.288" x2="59.413"/>
  <line y1="-51.034" y2="-51.659" style="fill:none;stroke:#000000;stroke-width:0.3;" x1="51.663" x2="55.038"/>
  <line y1="-58.284" y2="-54.659" style="fill:none;stroke:#000000;stroke-width:0.3;" x1="54.529" x2="53.529"/>
  <line y1="-61.285" y2="-62.694" style="fill:none;stroke:#000000;stroke-width:0.3;" x1="49.953" x2="53.295"/>
  <line y1="-71.534" y2="-71.284" style="fill:none;stroke:#000000;stroke-width:0.3;" x1="53.913" x2="49.788"/>
  <line y1="-68.409" y2="-65.409" style="fill:none;stroke:#000000;stroke-width:0.3;" x1="54.413" x2="52.413"/>
  <line y1="-64.784" y2="-62.784" style="fill:none;stroke:#000000;stroke-width:0.3;" x1="57.413" x2="59.913"/>
  <line y1="-72.409" y2="-68.659" style="fill:none;stroke:#000000;stroke-width:0.3;" x1="57.413" x2="58.538"/>
  <line y1="-72.619" y2="-73.505" style="fill:none;stroke:#000000;stroke-width:0.3;" x1="61.333" x2="64.776"/>
  <line y1="-72.542" y2="-69.411" style="fill:none;stroke:#000000;stroke-width:0.3;" x1="69.362" x2="67.519"/>
  <line y1="-68.784" y2="-66.034" style="fill:none;stroke:#000000;stroke-width:0.3;" x1="64.538" x2="61.913"/>
  <line y1="-63.784" y2="-64.284" style="fill:none;stroke:#000000;stroke-width:0.3;" x1="65.038" x2="68.413"/>
  <line y1="-62.909" y2="-60.909" style="fill:none;stroke:#000000;stroke-width:0.3;" x1="71.163" x2="74.413"/>
  <line y1="-57.138" y2="-54.263" style="fill:none;stroke:#000000;stroke-width:0.3;" x1="74.225" x2="72.1"/>
  <line y1="-51.159" y2="-54.409" style="fill:none;stroke:#000000;stroke-width:0.3;" x1="78.038" x2="76.538"/>
  <line y1="-44.4" y2="-47.525" style="fill:none;stroke:#000000;stroke-width:0.3;" x1="74.888" x2="77.638"/>
  <line y1="-50.534" y2="-50.534" style="fill:none;stroke:#000000;stroke-width:0.3;" x1="73.413" x2="69.413"/>
  <line y1="-44.909" y2="-47.909" style="fill:none;stroke:#000000;stroke-width:0.3;" x1="69.413" x2="67.663"/>
  <line y1="-44.659" y2="-47.784" style="fill:none;stroke:#000000;stroke-width:0.3;" x1="63.375" x2="64.5"/>
  <line y1="-53.659" y2="-52.284" style="fill:none;stroke:#000000;stroke-width:0.3;" x1="64.375" x2="67.625"/>
  <line y1="-57.992" y2="-56.617" style="fill:none;stroke:#000000;stroke-width:0.3;" x1="8.934" x2="12.184"/>
  <line y1="-56.208" y2="-59.551" style="fill:none;stroke:#000000;stroke-width:0.3;" x1="68.487" x2="66.787"/>
  <line y1="-60.784" y2="-58.659" style="fill:none;stroke:#000000;stroke-width:0.3;" x1="62.913" x2="59.788"/>
  <line y1="-54.784" y2="-51.659" style="fill:none;stroke:#000000;stroke-width:0.3;" x1="58.038" x2="60.413"/>
  <line y1="-34.904" y2="-32.279" style="fill:none;stroke:#000000;stroke-width:0.3;" x1="9.408" x2="11.658"/>
  <line y1="-38.654" y2="-38.529" style="fill:none;stroke:#000000;stroke-width:0.3;" x1="9.533" x2="12.908"/>
  <line y1="-35.467" y2="-33.422" style="fill:none;stroke:#000000;stroke-width:0.3;" x1="20.408" x2="23.096"/>
  <line y1="-36.529" y2="-33.779" style="fill:none;stroke:#000000;stroke-width:0.3;" x1="16.908" x2="14.783"/>
  <line y1="-40.13" y2="-41.88" style="fill:none;stroke:#000000;stroke-width:0.3;" x1="18.533" x2="15.783"/>
  <line y1="-42.029" y2="-40.529" style="fill:none;stroke:#000000;stroke-width:0.3;" x1="23.783" x2="21.533"/>
  <line y1="-38.654" y2="-35.99" style="fill:none;stroke:#000000;stroke-width:0.3;" x1="26.542" x2="24.905"/>
  <line y1="-41.221" y2="-39.971" style="fill:none;stroke:#000000;stroke-width:0.3;" x1="28.783" x2="31.283"/>
  <line y1="-39.587" y2="-41.962" style="fill:none;stroke:#000000;stroke-width:0.3;" x1="35.158" x2="37.158"/>
  <line y1="-38.654" y2="-36.404" style="fill:none;stroke:#000000;stroke-width:0.3;" x1="39.908" x2="42.658"/>
  <line y1="-35.029" y2="-32.029" style="fill:none;stroke:#000000;stroke-width:0.3;" x1="35.783" x2="36.408"/>
  <line y1="-35.029" y2="-32.404" style="fill:none;stroke:#000000;stroke-width:0.3;" x1="31.533" x2="29.033"/>
  <line y1="-32.029" y2="-29.404" style="fill:none;stroke:#000000;stroke-width:0.3;" x1="42.533" x2="40.408"/>
  <line y1="-25.654" y2="-24.529" style="fill:none;stroke:#000000;stroke-width:0.3;" x1="39.033" x2="42.408"/>
  <line y1="-29.024" y2="-27.853" style="fill:none;stroke:#000000;stroke-width:0.3;" x1="35.08" x2="31.123"/>
  <line y1="-24.904" y2="-23.529" style="fill:none;stroke:#000000;stroke-width:0.3;" x1="31.283" x2="28.408"/>
  <line y1="-23.779" y2="-20.404" style="fill:none;stroke:#000000;stroke-width:0.3;" x1="35.283" x2="34.283"/>
  <line y1="-20.654" y2="-17.904" style="fill:none;stroke:#000000;stroke-width:0.3;" x1="40.033" x2="41.783"/>
  <line y1="-13.279" y2="-11.654" style="fill:none;stroke:#000000;stroke-width:0.3;" x1="42.033" x2="39.283"/>
  <line y1="-16.029" y2="-16.529" style="fill:none;stroke:#000000;stroke-width:0.3;" x1="37.533" x2="34.033"/>
  <line y1="-7.029" y2="-6.779" style="fill:none;stroke:#000000;stroke-width:0.3;" x1="38.908" x2="42.533"/>
  <line y1="-3.517" y2="-0.517" style="fill:none;stroke:#000000;stroke-width:0.3;" x1="38.287" x2="39.537"/>
  <line y1="-39.404" y2="-36.904" style="fill:none;stroke:#000000;stroke-width:0.3;" x1="6.283" x2="3.908"/>
  <line y1="-33.029" y2="-31.904" style="fill:none;stroke:#000000;stroke-width:0.3;" x1="3.783" x2="7.783"/>
  <line y1="-29.279" y2="-25.654" style="fill:none;stroke:#000000;stroke-width:0.3;" x1="2.783" x2="3.908"/>
  <path d="M4.533-22.654" style="fill:none;stroke:#000000;stroke-width:0.3;"/>
  <line y1="-22.654" y2="-20.279" style="fill:none;stroke:#000000;stroke-width:0.3;" x1="4.533" x2="1.533"/>
  <line y1="-16.996" y2="-13.371" style="fill:none;stroke:#000000;stroke-width:0.3;" x1="4.542" x2="4.167"/>
  <line y1="-10.154" y2="-8.154" style="fill:none;stroke:#000000;stroke-width:0.3;" x1="1.783" x2="4.658"/>
  <line y1="-4.404" y2="-1.404" style="fill:none;stroke:#000000;stroke-width:0.3;" x1="2.158" x2="0.533"/>
  <line y1="-41.779" y2="-41.029" style="fill:none;stroke:#000000;stroke-width:0.3;" x1="0.408" x2="3.658"/>
  <line y1="-0.175" y2="-3.675" style="fill:none;stroke:#000000;stroke-width:0.3;" x1="8.617" x2="7.492"/>
  <line y1="-1.967" y2="-4.092" style="fill:none;stroke:#000000;stroke-width:0.3;" x1="13.637" x2="16.763"/>
  <line y1="-8.029" y2="-8.654" style="fill:none;stroke:#000000;stroke-width:0.3;" x1="8.658" x2="12.033"/>
  <line y1="-15.279" y2="-12.619" style="fill:none;stroke:#000000;stroke-width:0.3;" x1="12.658" x2="10.001"/>
  <line y1="-18.021" y2="-17.896" style="fill:none;stroke:#000000;stroke-width:0.3;" x1="6.783" x2="10.408"/>
  <line y1="-28.529" y2="-28.279" style="fill:none;stroke:#000000;stroke-width:0.3;" x1="10.908" x2="6.783"/>
  <line y1="-25.404" y2="-22.404" style="fill:none;stroke:#000000;stroke-width:0.3;" x1="11.408" x2="9.408"/>
  <line y1="-21.779" y2="-19.779" style="fill:none;stroke:#000000;stroke-width:0.3;" x1="14.408" x2="16.908"/>
  <line y1="-29.404" y2="-25.654" style="fill:none;stroke:#000000;stroke-width:0.3;" x1="14.408" x2="15.533"/>
  <line y1="-30.404" y2="-28.733" style="fill:none;stroke:#000000;stroke-width:0.3;" x1="18.283" x2="21.422"/>
  <line y1="-29.544" y2="-26.424" style="fill:none;stroke:#000000;stroke-width:0.3;" x1="26.367" x2="24.504"/>
  <line y1="-26.713" y2="-23.029" style="fill:none;stroke:#000000;stroke-width:0.3;" x1="19.846" x2="18.908"/>
  <line y1="-20.779" y2="-21.279" style="fill:none;stroke:#000000;stroke-width:0.3;" x1="22.033" x2="25.408"/>
  <line y1="-19.904" y2="-17.904" style="fill:none;stroke:#000000;stroke-width:0.3;" x1="28.158" x2="31.408"/>
  <line y1="-13.554" y2="-10.679" style="fill:none;stroke:#000000;stroke-width:0.3;" x1="30.033" x2="27.908"/>
  <line y1="-8.154" y2="-11.404" style="fill:none;stroke:#000000;stroke-width:0.3;" x1="35.033" x2="33.533"/>
  <line y1="-1.342" y2="-4.467" style="fill:none;stroke:#000000;stroke-width:0.3;" x1="31.554" x2="34.304"/>
  <line y1="-6.679" y2="-6.679" style="fill:none;stroke:#000000;stroke-width:0.3;" x1="30.408" x2="26.408"/>
  <line y1="-0.967" y2="-3.967" style="fill:none;stroke:#000000;stroke-width:0.3;" x1="26.513" x2="24.763"/>
  <line y1="-2.296" y2="-5.421" style="fill:none;stroke:#000000;stroke-width:0.3;" x1="19.775" x2="20.9"/>
  <line y1="-11.425" y2="-10.05" style="fill:none;stroke:#000000;stroke-width:0.3;" x1="20.388" x2="23.638"/>
  <line y1="-13.608" y2="-17.137" style="fill:none;stroke:#000000;stroke-width:0.3;" x1="24.029" x2="25.299"/>
  <line y1="-17.779" y2="-15.654" style="fill:none;stroke:#000000;stroke-width:0.3;" x1="19.908" x2="16.783"/>
  <line y1="-11.779" y2="-8.654" style="fill:none;stroke:#000000;stroke-width:0.3;" x1="15.033" x2="17.408"/>
  <line y1="-34.938" y2="-32.313" style="fill:none;stroke:#000000;stroke-width:0.3;" x1="52.467" x2="54.717"/>
  <line y1="-38.688" y2="-38.563" style="fill:none;stroke:#000000;stroke-width:0.3;" x1="52.592" x2="55.967"/>
  <line y1="-35.5" y2="-33.455" style="fill:none;stroke:#000000;stroke-width:0.3;" x1="63.467" x2="66.155"/>
  <line y1="-36.563" y2="-33.813" style="fill:none;stroke:#000000;stroke-width:0.3;" x1="59.967" x2="57.842"/>
  <line y1="-40.447" y2="-42.197" style="fill:none;stroke:#000000;stroke-width:0.3;" x1="61.592" x2="58.842"/>
  <line y1="-42.063" y2="-40.563" style="fill:none;stroke:#000000;stroke-width:0.3;" x1="66.842" x2="64.592"/>
  <line y1="-38.301" y2="-35.563" style="fill:none;stroke:#000000;stroke-width:0.3;" x1="70.103" x2="68.592"/>
  <line y1="-41.255" y2="-40.005" style="fill:none;stroke:#000000;stroke-width:0.3;" x1="71.842" x2="74.342"/>
  <line y1="-39.621" y2="-41.996" style="fill:none;stroke:#000000;stroke-width:0.3;" x1="78.217" x2="80.217"/>
  <line y1="-38.688" y2="-36.438" style="fill:none;stroke:#000000;stroke-width:0.3;" x1="82.967" x2="85.717"/>
  <line y1="-35.063" y2="-32.063" style="fill:none;stroke:#000000;stroke-width:0.3;" x1="78.842" x2="79.467"/>
  <line y1="-35.063" y2="-32.438" style="fill:none;stroke:#000000;stroke-width:0.3;" x1="74.592" x2="72.092"/>
  <line y1="-32.063" y2="-29.438" style="fill:none;stroke:#000000;stroke-width:0.3;" x1="85.592" x2="83.467"/>
  <line y1="-25.688" y2="-24.563" style="fill:none;stroke:#000000;stroke-width:0.3;" x1="82.092" x2="85.467"/>
  <line y1="-28.438" y2="-28.563" style="fill:none;stroke:#000000;stroke-width:0.3;" x1="78.217" x2="74.092"/>
  <line y1="-24.938" y2="-23.563" style="fill:none;stroke:#000000;stroke-width:0.3;" x1="74.342" x2="71.467"/>
  <line y1="-23.813" y2="-20.438" style="fill:none;stroke:#000000;stroke-width:0.3;" x1="78.342" x2="77.342"/>
  <line y1="-20.688" y2="-17.938" style="fill:none;stroke:#000000;stroke-width:0.3;" x1="83.092" x2="84.842"/>
  <line y1="-13.313" y2="-11.688" style="fill:none;stroke:#000000;stroke-width:0.3;" x1="85.092" x2="82.342"/>
  <line y1="-16.063" y2="-16.563" style="fill:none;stroke:#000000;stroke-width:0.3;" x1="80.592" x2="77.092"/>
  <line y1="-7.063" y2="-6.813" style="fill:none;stroke:#000000;stroke-width:0.3;" x1="81.967" x2="85.592"/>
  <line y1="-3.717" y2="-0.717" style="fill:none;stroke:#000000;stroke-width:0.3;" x1="81.554" x2="82.804"/>
  <line y1="-39.438" y2="-36.938" style="fill:none;stroke:#000000;stroke-width:0.3;" x1="49.342" x2="46.967"/>
  <line y1="-33.063" y2="-31.938" style="fill:none;stroke:#000000;stroke-width:0.3;" x1="46.842" x2="50.842"/>
  <line y1="-29.313" y2="-25.688" style="fill:none;stroke:#000000;stroke-width:0.3;" x1="45.842" x2="46.967"/>
  <path d="M47.592-22.688" style="fill:none;stroke:#000000;stroke-width:0.3;"/>
  <line y1="-22.688" y2="-20.313" style="fill:none;stroke:#000000;stroke-width:0.3;" x1="47.592" x2="44.592"/>
  <line y1="-17.029" y2="-13.404" style="fill:none;stroke:#000000;stroke-width:0.3;" x1="47.601" x2="47.226"/>
  <line y1="-10.188" y2="-8.188" style="fill:none;stroke:#000000;stroke-width:0.3;" x1="44.842" x2="47.717"/>
  <line y1="-4.438" y2="-1.438" style="fill:none;stroke:#000000;stroke-width:0.3;" x1="45.217" x2="43.592"/>
  <line y1="-41.813" y2="-41.063" style="fill:none;stroke:#000000;stroke-width:0.3;" x1="43.467" x2="46.717"/>
  <line y1="-0.292" y2="-3.792" style="fill:none;stroke:#000000;stroke-width:0.3;" x1="51.717" x2="50.592"/>
  <line y1="-1.105" y2="-3.23" style="fill:none;stroke:#000000;stroke-width:0.3;" x1="56.529" x2="59.654"/>
  <line y1="-8.063" y2="-8.688" style="fill:none;stroke:#000000;stroke-width:0.3;" x1="51.717" x2="55.092"/>
  <line y1="-15.313" y2="-12.744" style="fill:none;stroke:#000000;stroke-width:0.3;" x1="54.867" x2="52.121"/>
  <line y1="-19.188" y2="-19.063" style="fill:none;stroke:#000000;stroke-width:0.3;" x1="49.842" x2="53.467"/>
  <line y1="-28.563" y2="-28.313" style="fill:none;stroke:#000000;stroke-width:0.3;" x1="53.967" x2="49.842"/>
  <line y1="-25.438" y2="-22.438" style="fill:none;stroke:#000000;stroke-width:0.3;" x1="54.467" x2="52.467"/>
  <line y1="-21.813" y2="-19.813" style="fill:none;stroke:#000000;stroke-width:0.3;" x1="57.467" x2="59.967"/>
  <line y1="-29.438" y2="-25.688" style="fill:none;stroke:#000000;stroke-width:0.3;" x1="57.467" x2="58.592"/>
  <line y1="-30.438" y2="-29.813" style="fill:none;stroke:#000000;stroke-width:0.3;" x1="61.342" x2="64.842"/>
  <line y1="-30.42" y2="-26.939" style="fill:none;stroke:#000000;stroke-width:0.3;" x1="68.368" x2="69.412"/>
  <line y1="-25.813" y2="-23.063" style="fill:none;stroke:#000000;stroke-width:0.3;" x1="64.592" x2="61.967"/>
  <line y1="-20.813" y2="-21.313" style="fill:none;stroke:#000000;stroke-width:0.3;" x1="65.092" x2="68.467"/>
  <line y1="-19.938" y2="-17.938" style="fill:none;stroke:#000000;stroke-width:0.3;" x1="71.217" x2="74.467"/>
  <line y1="-14.438" y2="-11.563" style="fill:none;stroke:#000000;stroke-width:0.3;" x1="73.092" x2="70.967"/>
  <line y1="-8.188" y2="-11.438" style="fill:none;stroke:#000000;stroke-width:0.3;" x1="78.092" x2="76.592"/>
  <line y1="-1.855" y2="-4.979" style="fill:none;stroke:#000000;stroke-width:0.3;" x1="74.55" x2="77.3"/>
  <line y1="-6.656" y2="-8.523" style="fill:none;stroke:#000000;stroke-width:0.3;" x1="73.236" x2="69.699"/>
  <line y1="-0.334" y2="-3.334" style="fill:none;stroke:#000000;stroke-width:0.3;" x1="69.55" x2="67.8"/>
  <line y1="-3.938" y2="-7.063" style="fill:none;stroke:#000000;stroke-width:0.3;" x1="63.342" x2="64.467"/>
  <line y1="-12.688" y2="-11.313" style="fill:none;stroke:#000000;stroke-width:0.3;" x1="63.092" x2="66.342"/>
  <line y1="-14.607" y2="-16.298" style="fill:none;stroke:#000000;stroke-width:0.3;" x1="65.893" x2="69.24"/>
  <line y1="-17.813" y2="-15.688" style="fill:none;stroke:#000000;stroke-width:0.3;" x1="62.967" x2="59.842"/>
  <line y1="-10.604" y2="-7.479" style="fill:none;stroke:#000000;stroke-width:0.3;" x1="58.175" x2="60.55"/>
 </g>
</svg>
