<?xml version="1.0"?>
<!-- Converted with SVG Converter - Version 0.9.5 (Compiled Fri Feb 21 09:53:38 2020) - Copyright (C) 2011 Nokia -->
<svg xmlns="http://www.w3.org/2000/svg" y="0px" viewBox="2 -73.999 72 71.999" x="0px" version="1.1" xml:space="preserve" baseProfile="tiny" width="72" height="71.999" xmlns:xlink="http://www.w3.org/1999/xlink">
 <g>
  <rect y="-73.999" x="2" width="72" height="71.999" style="fill:none;"/>
  <path d="M2-53.278    c3.168-4.326,6.774-9.781,8.044-12.48" style="fill:none;stroke:#000000;stroke-width:0.5;stroke-linecap:square;"/>
  <path d="M12.627-68.613    c1.081-1.081,2.703-3.089,4.394-5.386" style="fill:none;stroke:#000000;stroke-width:0.5;stroke-linecap:square;"/>
  <path d="M19.69-51.863c2.75-2.75,9-11.5,11-15.75" style="fill:none;stroke:#000000;stroke-width:0.5;stroke-linecap:square;"/>
  <path d="M25.25-33.25    C28-36,36.333-46.062,38.333-50.312" style="fill:none;stroke:#000000;stroke-width:0.5;stroke-linecap:square;"/>
  <path d="M40.96-55.884    c2.453-2.452,9.958-12.875,12.972-18.116" style="fill:none;stroke:#000000;stroke-width:0.5;stroke-linecap:square;"/>
  <path d="M17.882-48.148    c-2.457,4.003-9.637,12.008-12.675,14.437" style="fill:none;stroke:#000000;stroke-width:0.5;stroke-linecap:square;"/>
  <path d="M2-27.945c0.845-1.099,1.565-2.11,2.079-2.946    " style="fill:none;stroke:#000000;stroke-width:0.5;stroke-linecap:square;"/>
  <path d="M33.943-71.418    c0.559-0.54,1.357-1.445,2.294-2.582" style="fill:none;stroke:#000000;stroke-width:0.5;stroke-linecap:square;"/>
  <path d="M24.132-29.148    c-2.198,3.58-11.59,15.138-15.526,18.285" style="fill:none;stroke:#000000;stroke-width:0.5;stroke-linecap:square;"/>
  <path d="M43.439-31.279    c-1.57,3.335-6.665,7.831-9.724,11.634c-0.838,1.043-1.592,1.912-2.184,2.504" style="fill:none;stroke:#000000;stroke-width:0.5;stroke-linecap:square;"/>
  <path d="M57.419-50.363    c-1.57,3.336-6.665,7.831-9.724,11.635c-0.838,1.042-1.592,1.912-2.184,2.504" style="fill:none;stroke:#000000;stroke-width:0.5;stroke-linecap:square;"/>
  <path d="M51.886-22.537    c0.592-0.592,1.346-1.462,2.184-2.504c3.059-3.804,8.154-8.299,9.724-11.635" style="fill:none;stroke:#000000;stroke-width:0.5;stroke-linecap:square;"/>
  <path d="M60.386-56.746    c0.592-0.592,1.346-1.461,2.184-2.503c3.059-3.804,8.154-8.299,9.724-11.635" style="fill:none;stroke:#000000;stroke-width:0.5;stroke-linecap:square;"/>
  <path d="M69.314-47.676    c1.038-1.038,2.794-3.263,4.686-5.858" style="fill:none;stroke:#000000;stroke-width:0.5;stroke-linecap:square;"/>
  <path d="M74-28.19    c-0.007,0.01-0.014,0.018-0.021,0.028c-3.19,4.185-8.002,12.476-10.447,14.431" style="fill:none;stroke:#000000;stroke-width:0.5;stroke-linecap:square;"/>
  <path d="M28.273-14.551    C27.059-11.971,19.704-5.556,17.074-2" style="fill:none;stroke:#000000;stroke-width:0.5;stroke-linecap:square;"/>
  <path d="M59.127-10.029    c-0.363,0.771-4.868,6.783-5.62,8.007C53.502-2.015,53.498-2.008,53.493-2" style="fill:none;stroke:#000000;stroke-width:0.5;stroke-linecap:square;"/>
  <path d="M47.66-18.187    C46.001-14.814,40.039-6.552,36.289-2" style="fill:none;stroke:#000000;stroke-width:0.5;stroke-linecap:square;"/>
  <path d="M73.157-13.029    C71.526-10.778,67.116-5.481,64.017-2" style="fill:none;stroke:#000000;stroke-width:0.5;stroke-linecap:square;"/>
  <path d="M25.878-73.999    c-0.507,0.588-1.022,1.172-1.538,1.746" style="fill:none;stroke:#000000;stroke-width:0.3;stroke-linecap:square;"/>
  <path d="M21.903-69.631    c0.268-0.278,0.545-0.57,0.821-0.864" style="fill:none;stroke:#000000;stroke-width:0.3;stroke-linecap:square;"/>
  <path d="M22.724-70.495    c0.531-0.564,1.071-1.153,1.616-1.759" style="fill:none;stroke:#000000;stroke-width:0.3;stroke-linecap:square;"/>
  <path d="M62.267-72.14    c-0.116,0.124-0.237,0.253-0.343,0.363" style="fill:none;stroke:#000000;stroke-width:0.5;stroke-linecap:square;"/>
  <path d="M63.878-73.903    c-0.601,0.675-1.143,1.268-1.611,1.764" style="fill:none;stroke:#000000;stroke-width:0.5;stroke-linecap:square;"/>
  <path d="M3.927-44.663    c0.385-0.496,0.755-0.981,1.085-1.438" style="fill:none;stroke:#000000;stroke-width:0.3;stroke-linecap:square;"/>
  <path d="M2-42.279    c0.143-0.171,0.286-0.341,0.426-0.511" style="fill:none;stroke:#000000;stroke-width:0.3;stroke-linecap:square;"/>
  <path d="M2.426-42.79    c0.529-0.641,1.03-1.267,1.501-1.873" style="fill:none;stroke:#000000;stroke-width:0.3;stroke-linecap:square;"/>
  <path d="M21.439-40.902    c0.497-0.585,1.013-1.2,1.539-1.836" style="fill:none;stroke:#000000;stroke-width:0.3;stroke-linecap:square;"/>
  <path d="M19.813-39.027    c0.497-0.558,1.048-1.195,1.625-1.875" style="fill:none;stroke:#000000;stroke-width:0.3;stroke-linecap:square;"/>
  <path d="M27.518-48.386    c-0.455,0.584-0.945,1.206-1.46,1.853" style="fill:none;stroke:#000000;stroke-width:0.3;stroke-linecap:square;"/>
  <path d="M22.978-42.738    c0.514-0.621,1.033-1.255,1.548-1.89" style="fill:none;stroke:#000000;stroke-width:0.3;stroke-linecap:square;"/>
  <path d="M24.526-44.628    c0.522-0.644,1.037-1.283,1.532-1.905" style="fill:none;stroke:#000000;stroke-width:0.3;stroke-linecap:square;"/>
  <path d="M29.065-50.404    c0.195-0.262,0.378-0.507,0.53-0.718" style="fill:none;stroke:#000000;stroke-width:0.3;stroke-linecap:square;"/>
  <path d="M29.065-50.404    c-0.431,0.575-0.956,1.261-1.547,2.019" style="fill:none;stroke:#000000;stroke-width:0.3;stroke-linecap:square;"/>
  <path d="M18.627-37.738    c0.345-0.356,0.746-0.794,1.186-1.289" style="fill:none;stroke:#000000;stroke-width:0.3;stroke-linecap:square;"/>
  <path d="M44.139-69.643    c-0.492,0.633-0.999,1.273-1.523,1.915" style="fill:none;stroke:#000000;stroke-width:0.3;stroke-linecap:square;"/>
  <path d="M39.418-64.051    c0.546-0.585,1.09-1.189,1.627-1.81" style="fill:none;stroke:#000000;stroke-width:0.3;stroke-linecap:square;"/>
  <path d="M42.616-67.728    c-0.513,0.628-1.038,1.252-1.57,1.867" style="fill:none;stroke:#000000;stroke-width:0.3;stroke-linecap:square;"/>
  <path d="M39.418-64.051    c-0.215,0.231-0.43,0.465-0.646,0.687" style="fill:none;stroke:#000000;stroke-width:0.3;stroke-linecap:square;"/>
  <path d="M45.623-71.597    c0.225-0.305,0.449-0.608,0.66-0.9" style="fill:none;stroke:#000000;stroke-width:0.3;stroke-linecap:square;"/>
  <path d="M44.139-69.643    c0.518-0.667,1.016-1.323,1.483-1.954" style="fill:none;stroke:#000000;stroke-width:0.3;stroke-linecap:square;"/>
  <path d="M72.751-41.031    c0.425-0.491,0.843-0.982,1.249-1.47" style="fill:none;stroke:#000000;stroke-width:0.3;stroke-linecap:square;"/>
  <path d="M69.489-37.418    c-0.225,0.237-0.451,0.478-0.669,0.704" style="fill:none;stroke:#000000;stroke-width:0.3;stroke-linecap:square;"/>
  <path d="M71.139-39.205    c0.54-0.599,1.079-1.21,1.611-1.826" style="fill:none;stroke:#000000;stroke-width:0.3;stroke-linecap:square;"/>
  <path d="M69.489-37.418    c0.541-0.573,1.093-1.169,1.65-1.787" style="fill:none;stroke:#000000;stroke-width:0.3;stroke-linecap:square;"/>
  <path d="M17.351-62.118    c-0.493,0.639-1.024,1.303-1.584,1.981" style="fill:none;stroke:#000000;stroke-width:0.3;stroke-linecap:square;"/>
  <path d="M14.25-58.342    c0.519-0.601,1.027-1.201,1.518-1.795" style="fill:none;stroke:#000000;stroke-width:0.3;stroke-linecap:square;"/>
  <path d="M18.325-63.413    c-0.299,0.412-0.629,0.849-0.974,1.295" style="fill:none;stroke:#000000;stroke-width:0.3;stroke-linecap:square;"/>
  <path d="M12.638-56.516    c-0.558,0.618-1.109,1.214-1.65,1.786" style="fill:none;stroke:#000000;stroke-width:0.3;stroke-linecap:square;"/>
  <path d="M14.25-58.342    c-0.533,0.616-1.072,1.228-1.612,1.826" style="fill:none;stroke:#000000;stroke-width:0.3;stroke-linecap:square;"/>
  <path d="M10.987-54.729    c-0.224,0.237-0.45,0.478-0.667,0.703" style="fill:none;stroke:#000000;stroke-width:0.3;stroke-linecap:square;"/>
  <path d="M52.526-57.817    c0.5-0.681,0.985-1.346,1.451-1.986" style="fill:none;stroke:#000000;stroke-width:0.3;stroke-linecap:square;"/>
  <path d="M48.092-51.94    c0.478-0.608,0.982-1.264,1.497-1.941" style="fill:none;stroke:#000000;stroke-width:0.3;stroke-linecap:square;"/>
  <path d="M55.422-61.797    c0.544-0.755,1.03-1.43,1.414-1.961" style="fill:none;stroke:#000000;stroke-width:0.3;stroke-linecap:square;"/>
  <path d="M52.526-57.817    c-0.481,0.654-0.971,1.316-1.462,1.975" style="fill:none;stroke:#000000;stroke-width:0.3;stroke-linecap:square;"/>
  <path d="M53.978-59.804    c0.516-0.71,1-1.378,1.444-1.993" style="fill:none;stroke:#000000;stroke-width:0.3;stroke-linecap:square;"/>
  <path d="M56.836-63.758    c0.164-0.228,0.31-0.431,0.437-0.605" style="fill:none;stroke:#000000;stroke-width:0.3;stroke-linecap:square;"/>
  <path d="M51.064-55.843    c-0.496,0.666-0.99,1.323-1.476,1.962" style="fill:none;stroke:#000000;stroke-width:0.3;stroke-linecap:square;"/>
  <path d="M48.092-51.94    c-0.552,0.704-1.07,1.346-1.536,1.901" style="fill:none;stroke:#000000;stroke-width:0.3;stroke-linecap:square;"/>
  <path d="M46.556-50.039    c-0.444,0.53-0.842,0.983-1.173,1.325" style="fill:none;stroke:#000000;stroke-width:0.3;stroke-linecap:square;"/>
  <path d="M51.757-33.276    c0.208-0.216,0.425-0.446,0.638-0.672" style="fill:none;stroke:#000000;stroke-width:0.3;stroke-linecap:square;"/>
  <path d="M52.396-33.948    c0.532-0.562,1.074-1.146,1.622-1.753" style="fill:none;stroke:#000000;stroke-width:0.3;stroke-linecap:square;"/>
  <path d="M57.206-39.389    c-0.499,0.605-1.018,1.217-1.546,1.828" style="fill:none;stroke:#000000;stroke-width:0.3;stroke-linecap:square;"/>
  <path d="M57.206-39.389    c0.539-0.653,1.051-1.293,1.528-1.909" style="fill:none;stroke:#000000;stroke-width:0.3;stroke-linecap:square;"/>
  <path d="M55.659-37.561    c-0.542,0.628-1.092,1.251-1.642,1.859" style="fill:none;stroke:#000000;stroke-width:0.3;stroke-linecap:square;"/>
  <path d="M59.762-42.663    c-0.314,0.434-0.664,0.895-1.028,1.365" style="fill:none;stroke:#000000;stroke-width:0.3;stroke-linecap:square;"/>
  <path d="M54.005-11.711    c-0.38,0.408-0.757,0.806-1.123,1.185" style="fill:none;stroke:#000000;stroke-width:0.3;stroke-linecap:square;"/>
  <path d="M60.318-19.15    c-0.481,0.638-1.007,1.308-1.568,1.997" style="fill:none;stroke:#000000;stroke-width:0.3;stroke-linecap:square;"/>
  <path d="M60.318-19.15    c0.194-0.258,0.392-0.518,0.569-0.763" style="fill:none;stroke:#000000;stroke-width:0.3;stroke-linecap:square;"/>
  <path d="M55.643-13.511    c-0.549,0.615-1.098,1.221-1.638,1.8" style="fill:none;stroke:#000000;stroke-width:0.3;stroke-linecap:square;"/>
  <path d="M57.246-15.345    c-0.526,0.616-1.063,1.228-1.603,1.834" style="fill:none;stroke:#000000;stroke-width:0.3;stroke-linecap:square;"/>
  <path d="M58.75-17.153    c-0.484,0.596-0.985,1.199-1.505,1.809" style="fill:none;stroke:#000000;stroke-width:0.3;stroke-linecap:square;"/>
  <path d="M7.57-22.151    c0.277-0.287,0.563-0.59,0.85-0.895" style="fill:none;stroke:#000000;stroke-width:0.3;stroke-linecap:square;"/>
  <path d="M10.005-24.772    c0.55-0.611,1.099-1.234,1.639-1.861" style="fill:none;stroke:#000000;stroke-width:0.3;stroke-linecap:square;"/>
  <path d="M8.419-23.046    c0.521-0.555,1.052-1.133,1.586-1.727" style="fill:none;stroke:#000000;stroke-width:0.3;stroke-linecap:square;"/>
  <path d="M11.644-26.634    c0.54-0.627,1.063-1.252,1.569-1.869" style="fill:none;stroke:#000000;stroke-width:0.3;stroke-linecap:square;"/>
  <path d="M15.575-31.538    c-0.253,0.349-0.524,0.713-0.811,1.086" style="fill:none;stroke:#000000;stroke-width:0.3;stroke-linecap:square;"/>
  <path d="M13.213-28.503    c0.546-0.667,1.073-1.324,1.551-1.949" style="fill:none;stroke:#000000;stroke-width:0.3;stroke-linecap:square;"/>
  <path d="M29.016-5.762    c0.333-0.433,0.653-0.855,0.943-1.256" style="fill:none;stroke:#000000;stroke-width:0.3;stroke-linecap:square;"/>
  <path d="M25.976-2.053    c0.54-0.626,1.064-1.25,1.571-1.867" style="fill:none;stroke:#000000;stroke-width:0.3;stroke-linecap:square;"/>
  <path d="M27.546-3.92    c0.517-0.63,1.012-1.248,1.47-1.842" style="fill:none;stroke:#000000;stroke-width:0.3;stroke-linecap:square;"/>
  <path d="M26.214-22.377    c-0.313,0.348-0.609,0.67-0.864,0.934" style="fill:none;stroke:#000000;stroke-width:0.3;stroke-linecap:square;"/>
  <path d="M27.789-24.177    c0.501-0.587,1.029-1.214,1.571-1.867" style="fill:none;stroke:#000000;stroke-width:0.3;stroke-linecap:square;"/>
  <path d="M29.36-26.044    c0.511-0.615,1.03-1.249,1.549-1.888" style="fill:none;stroke:#000000;stroke-width:0.3;stroke-linecap:square;"/>
  <path d="M35.461-33.692    c0.419-0.551,0.783-1.037,1.062-1.421" style="fill:none;stroke:#000000;stroke-width:0.3;stroke-linecap:square;"/>
  <path d="M27.789-24.177    c-0.57,0.668-1.1,1.274-1.575,1.8" style="fill:none;stroke:#000000;stroke-width:0.3;stroke-linecap:square;"/>
  <path d="M30.909-27.932    c0.529-0.65,1.052-1.3,1.562-1.938" style="fill:none;stroke:#000000;stroke-width:0.3;stroke-linecap:square;"/>
  <path d="M32.471-29.87    c0.52-0.651,1.02-1.283,1.49-1.885" style="fill:none;stroke:#000000;stroke-width:0.3;stroke-linecap:square;"/>
  <path d="M33.961-31.755    c0.551-0.702,1.059-1.358,1.5-1.938" style="fill:none;stroke:#000000;stroke-width:0.3;stroke-linecap:square;"/>
  <line y2="-60.137" style="fill:none;stroke:#000000;stroke-width:0.3;stroke-linecap:square;" y1="-73.904" x2="15.767" x1="2"/>
  <line y2="-60.137" style="fill:none;stroke:#000000;stroke-width:0.3;stroke-linecap:square;" y1="-48.386" x2="15.767" x1="27.518"/>
  <line y2="-48.386" style="fill:none;stroke:#000000;stroke-width:0.3;stroke-linecap:square;" y1="-17.153" x2="27.518" x1="58.75"/>
  <line y2="-2" style="fill:none;stroke:#000000;stroke-width:0.3;stroke-linecap:square;" y1="-17.153" x2="73.903" x1="58.75"/>
  <line y2="-15.345" style="fill:none;stroke:#000000;stroke-width:0.3;stroke-linecap:square;" y1="-2" x2="57.246" x1="70.591"/>
  <line y2="-46.533" style="fill:none;stroke:#000000;stroke-width:0.3;stroke-linecap:square;" y1="-58.342" x2="26.058" x1="14.25"/>
  <line y2="-15.345" style="fill:none;stroke:#000000;stroke-width:0.3;stroke-linecap:square;" y1="-46.533" x2="57.246" x1="26.058"/>
  <line y2="-58.342" style="fill:none;stroke:#000000;stroke-width:0.3;stroke-linecap:square;" y1="-70.591" x2="14.25" x1="2"/>
  <line y2="-13.511" style="fill:none;stroke:#000000;stroke-width:0.3;stroke-linecap:square;" y1="-2" x2="55.643" x1="67.153"/>
  <line y2="-56.516" style="fill:none;stroke:#000000;stroke-width:0.3;stroke-linecap:square;" y1="-67.154" x2="12.638" x1="2"/>
  <line y2="-56.516" style="fill:none;stroke:#000000;stroke-width:0.3;stroke-linecap:square;" y1="-44.628" x2="12.638" x1="24.526"/>
  <line y2="-33.692" style="fill:none;stroke:#000000;stroke-width:0.3;stroke-linecap:square;" y1="-44.628" x2="35.461" x1="24.526"/>
  <line y2="-33.692" style="fill:none;stroke:#000000;stroke-width:0.3;stroke-linecap:square;" y1="-13.511" x2="35.461" x1="55.643"/>
  <line y2="-54.729" style="fill:none;stroke:#000000;stroke-width:0.3;stroke-linecap:square;" y1="-42.738" x2="10.987" x1="22.978"/>
  <line y2="-31.755" style="fill:none;stroke:#000000;stroke-width:0.3;stroke-linecap:square;" y1="-42.738" x2="33.961" x1="22.978"/>
  <line y2="-11.711" style="fill:none;stroke:#000000;stroke-width:0.3;stroke-linecap:square;" y1="-2" x2="54.005" x1="63.716"/>
  <line y2="-11.711" style="fill:none;stroke:#000000;stroke-width:0.3;stroke-linecap:square;" y1="-31.755" x2="54.005" x1="33.961"/>
  <line y2="-54.729" style="fill:none;stroke:#000000;stroke-width:0.3;stroke-linecap:square;" y1="-63.716" x2="10.987" x1="2"/>
  <line y2="-29.87" style="fill:none;stroke:#000000;stroke-width:0.3;stroke-linecap:square;" y1="-40.902" x2="32.471" x1="21.439"/>
  <line y2="-60.341" style="fill:none;stroke:#000000;stroke-width:0.3;stroke-linecap:square;" y1="-40.902" x2="2" x1="21.439"/>
  <line y2="-29.87" style="fill:none;stroke:#000000;stroke-width:0.3;stroke-linecap:square;" y1="-2" x2="32.471" x1="60.341"/>
  <line y2="-27.932" style="fill:none;stroke:#000000;stroke-width:0.3;stroke-linecap:square;" y1="-39.027" x2="30.909" x1="19.813"/>
  <line y2="-27.932" style="fill:none;stroke:#000000;stroke-width:0.3;stroke-linecap:square;" y1="-2" x2="30.909" x1="56.841"/>
  <line y2="-39.027" style="fill:none;stroke:#000000;stroke-width:0.3;stroke-linecap:square;" y1="-56.841" x2="19.813" x1="2"/>
  <line y2="-26.044" style="fill:none;stroke:#000000;stroke-width:0.3;stroke-linecap:square;" y1="-53.403" x2="29.36" x1="2"/>
  <line y2="-26.044" style="fill:none;stroke:#000000;stroke-width:0.3;stroke-linecap:square;" y1="-2" x2="29.36" x1="53.403"/>
  <line y2="-24.177" style="fill:none;stroke:#000000;stroke-width:0.3;stroke-linecap:square;" y1="-2" x2="27.789" x1="49.966"/>
  <line y2="-24.177" style="fill:none;stroke:#000000;stroke-width:0.3;stroke-linecap:square;" y1="-49.966" x2="27.789" x1="2"/>
  <line y2="-44.663" style="fill:none;stroke:#000000;stroke-width:0.3;stroke-linecap:square;" y1="-46.591" x2="3.927" x1="2"/>
  <line y2="-44.663" style="fill:none;stroke:#000000;stroke-width:0.3;stroke-linecap:square;" y1="-22.377" x2="3.927" x1="26.214"/>
  <line y2="-22.377" style="fill:none;stroke:#000000;stroke-width:0.3;stroke-linecap:square;" y1="-2" x2="26.214" x1="46.591"/>
  <line y2="-30.452" style="fill:none;stroke:#000000;stroke-width:0.3;stroke-linecap:square;" y1="-42.79" x2="14.764" x1="2.426"/>
  <line y2="-42.79" style="fill:none;stroke:#000000;stroke-width:0.3;stroke-linecap:square;" y1="-43.216" x2="2.426" x1="2"/>
  <line y2="-30.452" style="fill:none;stroke:#000000;stroke-width:0.3;stroke-linecap:square;" y1="-2" x2="14.764" x1="43.216"/>
  <line y2="-28.503" style="fill:none;stroke:#000000;stroke-width:0.3;stroke-linecap:square;" y1="-2" x2="13.213" x1="39.716"/>
  <line y2="-28.503" style="fill:none;stroke:#000000;stroke-width:0.3;stroke-linecap:square;" y1="-39.716" x2="13.213" x1="2"/>
  <line y2="-2" style="fill:none;stroke:#000000;stroke-width:0.3;stroke-linecap:square;" y1="-26.634" x2="36.278" x1="11.644"/>
  <line y2="-26.634" style="fill:none;stroke:#000000;stroke-width:0.3;stroke-linecap:square;" y1="-36.278" x2="11.644" x1="2"/>
  <line y2="-5.762" style="fill:none;stroke:#000000;stroke-width:0.3;stroke-linecap:square;" y1="-24.772" x2="29.016" x1="10.005"/>
  <line y2="-5.762" style="fill:none;stroke:#000000;stroke-width:0.3;stroke-linecap:square;" y1="-2" x2="29.016" x1="32.778"/>
  <line y2="-24.772" style="fill:none;stroke:#000000;stroke-width:0.3;stroke-linecap:square;" y1="-32.778" x2="10.005" x1="2"/>
  <line y2="-3.92" style="fill:none;stroke:#000000;stroke-width:0.3;stroke-linecap:square;" y1="-23.046" x2="27.546" x1="8.419"/>
  <line y2="-23.046" style="fill:none;stroke:#000000;stroke-width:0.3;stroke-linecap:square;" y1="-29.466" x2="8.419" x1="2"/>
  <line y2="-3.92" style="fill:none;stroke:#000000;stroke-width:0.3;stroke-linecap:square;" y1="-2" x2="27.546" x1="29.466"/>
  <line y2="-2.053" style="fill:none;stroke:#000000;stroke-width:0.3;stroke-linecap:square;" y1="-26.028" x2="25.976" x1="2"/>
  <line y2="-2" style="fill:none;stroke:#000000;stroke-width:0.3;stroke-linecap:square;" y1="-22.528" x2="22.528" x1="2"/>
  <line y2="-2" style="fill:none;stroke:#000000;stroke-width:0.3;stroke-linecap:square;" y1="-19.153" x2="19.153" x1="2"/>
  <line y2="-2" style="fill:none;stroke:#000000;stroke-width:0.3;stroke-linecap:square;" y1="-15.716" x2="15.716" x1="2"/>
  <line y2="-2" style="fill:none;stroke:#000000;stroke-width:0.3;stroke-linecap:square;" y1="-12.278" x2="12.278" x1="2"/>
  <line y2="-2" style="fill:none;stroke:#000000;stroke-width:0.3;stroke-linecap:square;" y1="-8.841" x2="8.841" x1="2"/>
  <line y2="-2" style="fill:none;stroke:#000000;stroke-width:0.3;stroke-linecap:square;" y1="-5.403" x2="5.403" x1="2"/>
  <line y2="-73.999" style="fill:none;stroke:#000000;stroke-width:0.3;stroke-linecap:square;" y1="-70.532" x2="70.532" x1="74"/>
  <line y2="-73.999" style="fill:none;stroke:#000000;stroke-width:0.3;stroke-linecap:square;" y1="-67.282" x2="67.282" x1="74"/>
  <line y2="-73.903" style="fill:none;stroke:#000000;stroke-width:0.3;stroke-linecap:square;" y1="-63.782" x2="63.878" x1="74"/>
  <line y2="-72.14" style="fill:none;stroke:#000000;stroke-width:0.3;stroke-linecap:square;" y1="-73.999" x2="62.267" x1="60.407"/>
  <line y2="-72.14" style="fill:none;stroke:#000000;stroke-width:0.3;stroke-linecap:square;" y1="-60.407" x2="62.267" x1="74"/>
  <line y2="-73.999" style="fill:none;stroke:#000000;stroke-width:0.3;stroke-linecap:square;" y1="-56.907" x2="56.907" x1="74"/>
  <line y2="-73.999" style="fill:none;stroke:#000000;stroke-width:0.3;stroke-linecap:square;" y1="-53.47" x2="53.47" x1="74"/>
  <line y2="-50.032" style="fill:none;stroke:#000000;stroke-width:0.3;stroke-linecap:square;" y1="-73.999" x2="74" x1="50.032"/>
  <line y2="-63.758" style="fill:none;stroke:#000000;stroke-width:0.3;stroke-linecap:square;" y1="-73.999" x2="56.836" x1="46.595"/>
  <line y2="-46.595" style="fill:none;stroke:#000000;stroke-width:0.3;stroke-linecap:square;" y1="-63.758" x2="74" x1="56.836"/>
  <line y2="-43.22" style="fill:none;stroke:#000000;stroke-width:0.3;stroke-linecap:square;" y1="-61.797" x2="74" x1="55.422"/>
  <line y2="-61.797" style="fill:none;stroke:#000000;stroke-width:0.3;stroke-linecap:square;" y1="-71.597" x2="55.422" x1="45.623"/>
  <line y2="-71.597" style="fill:none;stroke:#000000;stroke-width:0.3;stroke-linecap:square;" y1="-73.999" x2="45.623" x1="43.22"/>
  <line y2="-73.999" style="fill:none;stroke:#000000;stroke-width:0.3;stroke-linecap:square;" y1="-69.643" x2="39.782" x1="44.139"/>
  <line y2="-69.643" style="fill:none;stroke:#000000;stroke-width:0.3;stroke-linecap:square;" y1="-59.804" x2="44.139" x1="53.978"/>
  <line y2="-41.031" style="fill:none;stroke:#000000;stroke-width:0.3;stroke-linecap:square;" y1="-59.804" x2="72.751" x1="53.978"/>
  <line y2="-41.031" style="fill:none;stroke:#000000;stroke-width:0.3;stroke-linecap:square;" y1="-39.782" x2="72.751" x1="74"/>
  <line y2="-67.728" style="fill:none;stroke:#000000;stroke-width:0.3;stroke-linecap:square;" y1="-57.817" x2="42.616" x1="52.526"/>
  <line y2="-39.205" style="fill:none;stroke:#000000;stroke-width:0.3;stroke-linecap:square;" y1="-36.345" x2="71.139" x1="74"/>
  <line y2="-67.728" style="fill:none;stroke:#000000;stroke-width:0.3;stroke-linecap:square;" y1="-73.999" x2="42.616" x1="36.345"/>
  <line y2="-39.205" style="fill:none;stroke:#000000;stroke-width:0.3;stroke-linecap:square;" y1="-57.817" x2="71.139" x1="52.526"/>
  <line y2="-65.861" style="fill:none;stroke:#000000;stroke-width:0.3;stroke-linecap:square;" y1="-73.999" x2="41.046" x1="32.907"/>
  <line y2="-65.861" style="fill:none;stroke:#000000;stroke-width:0.3;stroke-linecap:square;" y1="-55.843" x2="41.046" x1="51.064"/>
  <line y2="-37.418" style="fill:none;stroke:#000000;stroke-width:0.3;stroke-linecap:square;" y1="-32.907" x2="69.489" x1="74"/>
  <line y2="-55.843" style="fill:none;stroke:#000000;stroke-width:0.3;stroke-linecap:square;" y1="-37.418" x2="51.064" x1="69.489"/>
  <line y2="-73.999" style="fill:none;stroke:#000000;stroke-width:0.3;stroke-linecap:square;" y1="-64.051" x2="29.47" x1="39.418"/>
  <line y2="-53.881" style="fill:none;stroke:#000000;stroke-width:0.3;stroke-linecap:square;" y1="-29.47" x2="49.588" x1="74"/>
  <line y2="-53.881" style="fill:none;stroke:#000000;stroke-width:0.3;stroke-linecap:square;" y1="-64.051" x2="49.588" x1="39.418"/>
  <line y2="-73.999" style="fill:none;stroke:#000000;stroke-width:0.3;stroke-linecap:square;" y1="-51.94" x2="26.032" x1="48.092"/>
  <line y2="-51.94" style="fill:none;stroke:#000000;stroke-width:0.3;stroke-linecap:square;" y1="-41.298" x2="48.092" x1="58.734"/>
  <line y2="-41.298" style="fill:none;stroke:#000000;stroke-width:0.3;stroke-linecap:square;" y1="-26.032" x2="58.734" x1="74"/>
  <line y2="-50.039" style="fill:none;stroke:#000000;stroke-width:0.3;stroke-linecap:square;" y1="-72.254" x2="46.556" x1="24.34"/>
  <line y2="-72.254" style="fill:none;stroke:#000000;stroke-width:0.3;stroke-linecap:square;" y1="-73.999" x2="24.34" x1="22.595"/>
  <line y2="-39.389" style="fill:none;stroke:#000000;stroke-width:0.3;stroke-linecap:square;" y1="-22.595" x2="57.206" x1="74"/>
  <line y2="-50.039" style="fill:none;stroke:#000000;stroke-width:0.3;stroke-linecap:square;" y1="-39.389" x2="46.556" x1="57.206"/>
  <line y2="-37.561" style="fill:none;stroke:#000000;stroke-width:0.3;stroke-linecap:square;" y1="-70.495" x2="55.659" x1="22.724"/>
  <line y2="-70.495" style="fill:none;stroke:#000000;stroke-width:0.3;stroke-linecap:square;" y1="-73.999" x2="22.724" x1="19.22"/>
  <line y2="-37.561" style="fill:none;stroke:#000000;stroke-width:0.3;stroke-linecap:square;" y1="-19.22" x2="55.659" x1="74"/>
  <line y2="-35.701" style="fill:none;stroke:#000000;stroke-width:0.3;stroke-linecap:square;" y1="-15.72" x2="54.018" x1="74"/>
  <line y2="-35.701" style="fill:none;stroke:#000000;stroke-width:0.3;stroke-linecap:square;" y1="-73.999" x2="54.018" x1="15.72"/>
  <line y2="-33.948" style="fill:none;stroke:#000000;stroke-width:0.3;stroke-linecap:square;" y1="-12.345" x2="52.396" x1="74"/>
  <line y2="-33.948" style="fill:none;stroke:#000000;stroke-width:0.3;stroke-linecap:square;" y1="-73.999" x2="52.396" x1="12.345"/>
  <line y2="-8.907" style="fill:none;stroke:#000000;stroke-width:0.3;stroke-linecap:square;" y1="-73.999" x2="74" x1="8.907"/>
  <line y2="-62.118" style="fill:none;stroke:#000000;stroke-width:0.3;stroke-linecap:square;" y1="-73.999" x2="17.351" x1="5.47"/>
  <line y2="-5.47" style="fill:none;stroke:#000000;stroke-width:0.3;stroke-linecap:square;" y1="-19.15" x2="74" x1="60.318"/>
  <line y2="-19.15" style="fill:none;stroke:#000000;stroke-width:0.3;stroke-linecap:square;" y1="-50.404" x2="60.318" x1="29.065"/>
  <line y2="-62.118" style="fill:none;stroke:#000000;stroke-width:0.3;stroke-linecap:square;" y1="-50.404" x2="17.351" x1="29.065"/>
 </g>
</svg>
