<?xml version="1.0"?>
<!-- Converted with SVG Converter - Version 0.9.5 (Compiled Fri Feb 21 09:53:38 2020) - Copyright (C) 2011 Nokia -->
<svg xmlns="http://www.w3.org/2000/svg" version="1.1" y="0px" viewBox="0.133 -58.93 58.851 58.851" baseProfile="tiny" xmlns:xlink="http://www.w3.org/1999/xlink" height="58.851" width="58.851" xml:space="preserve" x="0px">
 <g>
  <rect y="-58.93" style="fill:none;" height="58.851" width="58.851" x="0.133"/>
  <path d="M2.086-58.93c0.853,2.126,2.937,4.768,5.716,6.188    c3.094,1.582,4.698,4.37,5.5,5.913c0.894,1.719,4.16,4.366,6.497,5.466s5.363,4.262,5.913,5.913c0.55,1.65,4.125,5.087,5.913,6.05    c1.788,0.962,5.087,4.125,5.775,5.638c0.688,1.512,3.163,4.4,5.913,5.913c2.75,1.512,5.225,4.262,5.913,5.913    c0.688,1.65,3.438,4.812,5.913,5.912c1.329,0.59,2.706,1.766,3.847,3.067" style="fill:none;stroke:#000000;stroke-width:0.3;"/>
  <path d="M8.479-58.93c0.853,2.126,2.937,4.768,5.715,6.188    c3.094,1.582,4.698,4.37,5.5,5.913c0.894,1.719,4.159,4.366,6.497,5.466c2.337,1.1,5.362,4.262,5.913,5.913    c0.55,1.65,4.125,5.087,5.912,6.05c1.788,0.962,5.088,4.125,5.775,5.638c0.688,1.512,3.163,4.4,5.913,5.913    c2.75,1.512,5.225,4.262,5.913,5.913c0.452,1.085,1.795,2.823,3.366,4.2" style="fill:none;stroke:#000000;stroke-width:0.3;"/>
  <path d="M15.033-58.93c0.853,2.126,2.937,4.768,5.716,6.188    c3.094,1.582,4.697,4.37,5.5,5.913c0.894,1.719,4.159,4.366,6.497,5.466c2.338,1.1,5.363,4.262,5.913,5.913    c0.55,1.65,4.125,5.087,5.913,6.05c1.788,0.962,5.087,4.125,5.775,5.638c0.688,1.512,3.163,4.4,5.913,5.913    c0.964,0.53,1.894,1.212,2.726,1.946" style="fill:none;stroke:#000000;stroke-width:0.3;"/>
  <path d="M21.585-58.93c0.854,2.126,2.937,4.768,5.716,6.188    c3.094,1.582,4.698,4.37,5.5,5.913c0.894,1.719,4.16,4.366,6.497,5.466c2.337,1.1,5.362,4.262,5.913,5.913    c0.55,1.65,4.125,5.087,5.912,6.05c1.788,0.962,5.088,4.125,5.775,5.638c0.333,0.733,1.085,1.788,2.085,2.853" style="fill:none;stroke:#000000;stroke-width:0.3;"/>
  <path d="M28.139-58.93c0.853,2.126,2.937,4.768,5.715,6.188    c3.094,1.582,4.698,4.37,5.5,5.913c0.894,1.719,4.16,4.366,6.497,5.466c2.338,1.1,5.363,4.262,5.913,5.913    c0.55,1.65,4.125,5.087,5.913,6.05c0.38,0.205,0.829,0.509,1.307,0.876" style="fill:none;stroke:#000000;stroke-width:0.3;"/>
  <path d="M34.692-58.93c0.853,2.126,2.936,4.768,5.715,6.188    c3.094,1.582,4.698,4.37,5.5,5.913c0.894,1.719,4.159,4.366,6.497,5.466c2.338,1.1,5.363,4.262,5.913,5.913    c0.111,0.334,0.347,0.741,0.666,1.187" style="fill:none;stroke:#000000;stroke-width:0.3;"/>
  <path d="M41.245-58.93c0.854,2.126,2.937,4.768,5.716,6.188    c3.094,1.582,4.698,4.37,5.5,5.913c0.894,1.719,4.16,4.366,6.497,5.466c0.008,0.004,0.017,0.008,0.025,0.012" style="fill:none;stroke:#000000;stroke-width:0.3;"/>
  <path d="M47.798-58.93c0.854,2.126,2.937,4.768,5.716,6.188    c3.056,1.562,4.657,4.301,5.47,5.854" style="fill:none;stroke:#000000;stroke-width:0.3;"/>
  <path d="M54.352-58.93c0.738,1.839,2.398,4.065,4.632,5.551" style="fill:none;stroke:#000000;stroke-width:0.3;"/>
  <path d="M0.133-2.96c0.834,0.952,1.541,1.972,2.008,2.88" style="fill:none;stroke:#000000;stroke-width:0.3;"/>
  <path d="M0.133-7.739c0.818,0.717,1.698,1.336,2.546,1.712    c2.3,1.022,4.748,3.795,5.855,5.947" style="fill:none;stroke:#000000;stroke-width:0.3;"/>
  <path d="M0.133-15.906c1.54,1.359,2.74,2.895,3.187,3.967    c0.688,1.65,3.438,4.812,5.913,5.912c2.3,1.022,4.747,3.795,5.854,5.947" style="fill:none;stroke:#000000;stroke-width:0.3;"/>
  <path d="M0.133-20.911c1.064,1.134,2.409,2.28,3.827,3.059    c2.75,1.512,5.225,4.262,5.913,5.913c0.688,1.65,3.438,4.812,5.913,5.912c2.3,1.022,4.747,3.795,5.855,5.947" style="fill:none;stroke:#000000;stroke-width:0.3;"/>
  <path d="M0.133-28.525c1.767,1.357,3.927,3.57,4.468,4.761    c0.688,1.512,3.163,4.4,5.913,5.913c2.75,1.512,5.225,4.262,5.912,5.913c0.688,1.65,3.438,4.812,5.913,5.912    c2.3,1.022,4.747,3.795,5.855,5.947" style="fill:none;stroke:#000000;stroke-width:0.3;"/>
  <path d="M0.133-34.265c1.258,1.754,3.821,4.096,5.247,4.863    c1.787,0.962,5.087,4.125,5.775,5.638c0.688,1.512,3.163,4.4,5.913,5.913c2.75,1.512,5.225,4.262,5.913,5.913    c0.688,1.65,3.438,4.812,5.912,5.912c2.3,1.022,4.747,3.795,5.855,5.947" style="fill:none;stroke:#000000;stroke-width:0.3;"/>
  <path d="M0.133-41.352c2.334,1.111,5.339,4.256,5.887,5.9    c0.55,1.65,4.125,5.087,5.913,6.05c1.788,0.962,5.087,4.125,5.775,5.638c0.688,1.512,3.163,4.4,5.913,5.913    c2.75,1.512,5.225,4.262,5.913,5.913c0.688,1.65,3.438,4.812,5.913,5.912c2.3,1.022,4.747,3.795,5.854,5.947" style="fill:none;stroke:#000000;stroke-width:0.3;"/>
  <path d="M0.133-46.888c0.01,0.02,0.021,0.039,0.03,0.058    c0.894,1.719,4.16,4.366,6.497,5.466s5.362,4.262,5.913,5.913c0.55,1.65,4.125,5.087,5.913,6.05    c1.787,0.962,5.087,4.125,5.775,5.638c0.688,1.512,3.163,4.4,5.913,5.913c2.75,1.512,5.225,4.262,5.913,5.913    c0.688,1.65,3.438,4.812,5.913,5.912c2.299,1.022,4.747,3.795,5.854,5.947" style="fill:none;stroke:#000000;stroke-width:0.3;"/>
  <path d="M0.133-53.379c0.348,0.231,0.71,0.445,1.084,0.636    c3.094,1.582,4.697,4.37,5.5,5.913c0.893,1.719,4.159,4.366,6.497,5.466c2.338,1.1,5.363,4.262,5.913,5.913    c0.55,1.65,4.125,5.087,5.913,6.05c1.788,0.962,5.087,4.125,5.775,5.638c0.688,1.512,3.163,4.4,5.913,5.913    c2.75,1.512,5.225,4.262,5.913,5.913c0.688,1.65,3.438,4.812,5.913,5.912c2.3,1.022,4.748,3.795,5.855,5.947" style="fill:none;stroke:#000000;stroke-width:0.3;"/>
  <line y1="-51.782" x2="10.089" y2="-52.896" style="fill:none;stroke:#000000;stroke-width:0.3;" x1="12.688"/>
  <line y1="-45.913" x2="9.118" y2="-47.027" style="fill:none;stroke:#000000;stroke-width:0.3;" x1="11.716"/>
  <line y1="-47.705" x2="17.052" y2="-44.982" style="fill:none;stroke:#000000;stroke-width:0.3;" x1="17.176"/>
  <line y1="-38.274" x2="24.181" y2="-39.573" style="fill:none;stroke:#000000;stroke-width:0.3;" x1="27.088"/>
  <line y1="-31.049" x2="30.742" y2="-31.982" style="fill:none;stroke:#000000;stroke-width:0.3;" x1="33.747"/>
  <line y1="-27.961" x2="22.167" y2="-28.667" style="fill:none;stroke:#000000;stroke-width:0.3;" x1="24.575"/>
  <line y1="-25.371" x2="39.603" y2="-22.525" style="fill:none;stroke:#000000;stroke-width:0.3;" x1="40.345"/>
  <line y1="-15.713" x2="46.221" y2="-17.711" style="fill:none;stroke:#000000;stroke-width:0.3;" x1="48.754"/>
  <line y1="-10.199" x2="52.364" y2="-11.106" style="fill:none;stroke:#000000;stroke-width:0.3;" x1="54.756"/>
  <line y1="-56.19" x2="12.029" y2="-58.486" style="fill:none;stroke:#000000;stroke-width:0.3;" x1="12.881"/>
  <line y1="-51.582" x2="18.575" y2="-50.482" style="fill:none;stroke:#000000;stroke-width:0.3;" x1="20.684"/>
  <line y1="-45.149" x2="23.081" y2="-44.962" style="fill:none;stroke:#000000;stroke-width:0.3;" x1="26.135"/>
  <line y1="-40.269" x2="10.408" y2="-40.482" style="fill:none;stroke:#000000;stroke-width:0.3;" x1="12.771"/>
  <line y1="-38.392" x2="33.302" y2="-35.422" style="fill:none;stroke:#000000;stroke-width:0.3;" x1="33.673"/>
  <line y1="-29.629" x2="38.89" y2="-32.274" style="fill:none;stroke:#000000;stroke-width:0.3;" x1="40.178"/>
  <line y1="-24.599" x2="45.875" y2="-22.14" style="fill:none;stroke:#000000;stroke-width:0.3;" x1="47.331"/>
  <line y1="-25.774" x2="32.829" y2="-24.202" style="fill:none;stroke:#000000;stroke-width:0.3;" x1="33.846"/>
  <line y1="-56.149" x2="20.091" y2="-54.911" style="fill:none;stroke:#000000;stroke-width:0.3;" x1="21.7"/>
  <line y1="-37.871" x2="38.377" y2="-39.273" style="fill:none;stroke:#000000;stroke-width:0.3;" x1="41.059"/>
  <line y1="-32.04" x2="23.043" y2="-33.896" style="fill:none;stroke:#000000;stroke-width:0.3;" x1="26.075"/>
  <line y1="-47.69" x2="29.933" y2="-45.215" style="fill:none;stroke:#000000;stroke-width:0.3;" x1="30.304"/>
  <line y1="-30.748" x2="44.606" y2="-31.119" style="fill:none;stroke:#000000;stroke-width:0.3;" x1="47.7"/>
  <line y1="-22.273" x2="52.688" y2="-22.721" style="fill:none;stroke:#000000;stroke-width:0.3;" x1="55.117"/>
  <line y1="-14.848" x2="54.608" y2="-17.323" style="fill:none;stroke:#000000;stroke-width:0.3;" x1="55.351"/>
  <line y1="-48.553" x2="2.242" y2="-47.315" style="fill:none;stroke:#000000;stroke-width:0.3;" x1="3.851"/>
  <line y1="-36.309" x2="16.237" y2="-33.834" style="fill:none;stroke:#000000;stroke-width:0.3;" x1="16.608"/>
  <line y1="-21.335" x2="28.908" y2="-23.315" style="fill:none;stroke:#000000;stroke-width:0.3;" x1="29.664"/>
  <line y1="-10.555" x2="39.78" y2="-13.03" style="fill:none;stroke:#000000;stroke-width:0.3;" x1="40.522"/>
  <line y1="-52.941" x2="2.227" y2="-54.673" style="fill:none;stroke:#000000;stroke-width:0.3;" x1="5.197"/>
  <line y1="-17.065" x2="39.773" y2="-17.705" style="fill:none;stroke:#000000;stroke-width:0.3;" x1="41.95"/>
  <line y1="-9.132" x2="45.908" y2="-11.315" style="fill:none;stroke:#000000;stroke-width:0.3;" x1="47.583"/>
  <line y1="-3.94" x2="47.992" y2="-2.107" style="fill:none;stroke:#000000;stroke-width:0.3;" x1="48.992"/>
  <line y1="-3.178" x2="53.783" y2="-5.211" style="fill:none;stroke:#000000;stroke-width:0.3;" x1="54.43"/>
  <line y1="-17.148" x2="34.098" y2="-16.111" style="fill:none;stroke:#000000;stroke-width:0.3;" x1="35.742"/>
  <line y1="-38.165" x2="17.969" y2="-40.888" style="fill:none;stroke:#000000;stroke-width:0.3;" x1="18.959"/>
  <line y1="-56.652" x2="44.731" y2="-57.766" style="fill:none;stroke:#000000;stroke-width:0.3;" x1="47.33"/>
  <line y1="-49.648" x2="54.908" y2="-46.148" style="fill:none;stroke:#000000;stroke-width:0.3;" x1="55.242"/>
  <line y1="-50.044" x2="45.079" y2="-50.531" style="fill:none;stroke:#000000;stroke-width:0.3;" x1="48.424"/>
  <line y1="-55.082" x2="52.037" y2="-54.895" style="fill:none;stroke:#000000;stroke-width:0.3;" x1="55.092"/>
  <line y1="-49.315" x2="38.575" y2="-52.148" style="fill:none;stroke:#000000;stroke-width:0.3;" x1="39.908"/>
  <line y1="-40.607" x2="54.191" y2="-41.948" style="fill:none;stroke:#000000;stroke-width:0.3;" x1="56.679"/>
  <line y1="-57.615" x2="31.512" y2="-56.378" style="fill:none;stroke:#000000;stroke-width:0.3;" x1="33.121"/>
  <line y1="-43.523" x2="47.316" y2="-41.048" style="fill:none;stroke:#000000;stroke-width:0.3;" x1="47.687"/>
  <line y1="-27.341" x2="54.869" y2="-30.188" style="fill:none;stroke:#000000;stroke-width:0.3;" x1="55.241"/>
  <line y1="-51.732" x2="30.346" y2="-52.399" style="fill:none;stroke:#000000;stroke-width:0.3;" x1="33.179"/>
  <line y1="-36.482" x2="46.263" y2="-36.482" style="fill:none;stroke:#000000;stroke-width:0.3;" x1="48.408"/>
  <line y1="-7.897" x2="21.442" y2="-8.64" style="fill:none;stroke:#000000;stroke-width:0.3;" x1="24.289"/>
  <line y1="-6.148" x2="7.271" y2="-6.331" style="fill:none;stroke:#000000;stroke-width:0.3;" x1="5.242"/>
  <line y1="-22.294" x2="1.375" y2="-23.036" style="fill:none;stroke:#000000;stroke-width:0.3;" x1="4.344"/>
  <line y1="-22.648" x2="21.556" y2="-21.556" style="fill:none;stroke:#000000;stroke-width:0.3;" x1="23.075"/>
  <line y1="-11.667" x2="4.642" y2="-15.008" style="fill:none;stroke:#000000;stroke-width:0.3;" x1="5.385"/>
  <line y1="-2.354" x2="22.992" y2="-1.065" style="fill:none;stroke:#000000;stroke-width:0.3;" x1="25.636"/>
  <line y1="-3.528" x2="14.026" y2="-4.985" style="fill:none;stroke:#000000;stroke-width:0.3;" x1="16.485"/>
  <line y1="-13.669" x2="16.771" y2="-16.116" style="fill:none;stroke:#000000;stroke-width:0.3;" x1="18.179"/>
  <line y1="-26.44" x2="10.387" y2="-28.607" style="fill:none;stroke:#000000;stroke-width:0.3;" x1="11.554"/>
  <line y1="-35.482" x2="8.145" y2="-33.75" style="fill:none;stroke:#000000;stroke-width:0.3;" x1="9.408"/>
  <line y1="-42.842" x2="2.742" y2="-40.815" style="fill:none;stroke:#000000;stroke-width:0.3;" x1="3.062"/>
  <line y1="-23.315" x2="8.291" y2="-21.064" style="fill:none;stroke:#000000;stroke-width:0.3;" x1="9.242"/>
  <line y1="-27.148" x2="16.135" y2="-28.851" style="fill:none;stroke:#000000;stroke-width:0.3;" x1="17.075"/>
  <line y1="-22.098" x2="15.575" y2="-20.482" style="fill:none;stroke:#000000;stroke-width:0.3;" x1="17.287"/>
  <line y1="-9.669" x2="28.719" y2="-7.801" style="fill:none;stroke:#000000;stroke-width:0.3;" x1="29.617"/>
  <line y1="-13.982" x2="23.09" y2="-16.343" style="fill:none;stroke:#000000;stroke-width:0.3;" x1="23.908"/>
  <line y1="-10.482" x2="15.327" y2="-7.551" style="fill:none;stroke:#000000;stroke-width:0.3;" x1="15.742"/>
  <line y1="-7.836" x2="35.702" y2="-6.972" style="fill:none;stroke:#000000;stroke-width:0.3;" x1="37.721"/>
  <line y1="-3.446" x2="3.238" y2="-1.219" style="fill:none;stroke:#000000;stroke-width:0.3;" x1="4.084"/>
  <line y1="-29.378" x2="0.882" y2="-30.194" style="fill:none;stroke:#000000;stroke-width:0.3;" x1="3.054"/>
  <line y1="-35.315" x2="1.684" y2="-34.822" style="fill:none;stroke:#000000;stroke-width:0.3;" x1="3.742"/>
  <line y1="-14.336" x2="9.614" y2="-15.14" style="fill:none;stroke:#000000;stroke-width:0.3;" x1="12.283"/>
  <line y1="-15.148" x2="30.261" y2="-13.315" style="fill:none;stroke:#000000;stroke-width:0.3;" x1="31.075"/>
  <line y1="-44.183" x2="36.974" y2="-44.925" style="fill:none;stroke:#000000;stroke-width:0.3;" x1="39.82"/>
  <line y1="-3.794" x2="35.573" y2="-1.961" style="fill:none;stroke:#000000;stroke-width:0.3;" x1="36.387"/>
 </g>
</svg>
