<?xml version="1.0"?>
<!-- Converted with SVG Converter - Version 0.9.6 (Compiled Thu Aug 31 10:01:05 2017) - Copyright (C) 2011 Nokia -->
<svg xmlns="http://www.w3.org/2000/svg" baseProfile="tiny" xmlns:xlink="http://www.w3.org/1999/xlink" viewBox="1 -47.233 46 46" xml:space="preserve" width="46" x="0px" height="46" version="1.1" y="0px">
 <g>
  <rect style="fill:none;" width="46" x="1" height="46" y="-47.233"/>
  <line x1="6.008" style="fill:none;stroke:#000000;stroke-width:0.3;" x2="8.321" y1="-43.204" y2="-40.017"/>
  <line x1="8.383" style="fill:none;stroke:#000000;stroke-width:0.3;" x2="6.008" y1="-43.204" y2="-39.954"/>
  <line x1="13.696" style="fill:none;stroke:#000000;stroke-width:0.3;" x2="16.008" y1="-43.204" y2="-40.017"/>
  <line x1="16.071" style="fill:none;stroke:#000000;stroke-width:0.3;" x2="13.696" y1="-43.204" y2="-39.954"/>
  <line x1="21.258" style="fill:none;stroke:#000000;stroke-width:0.3;" x2="23.571" y1="-43.204" y2="-40.017"/>
  <line x1="23.633" style="fill:none;stroke:#000000;stroke-width:0.3;" x2="21.258" y1="-43.204" y2="-39.954"/>
  <line x1="28.883" style="fill:none;stroke:#000000;stroke-width:0.3;" x2="31.196" y1="-43.204" y2="-40.017"/>
  <line x1="31.258" style="fill:none;stroke:#000000;stroke-width:0.3;" x2="28.883" y1="-43.204" y2="-39.954"/>
  <line x1="36.571" style="fill:none;stroke:#000000;stroke-width:0.3;" x2="38.883" y1="-43.204" y2="-40.017"/>
  <line x1="38.946" style="fill:none;stroke:#000000;stroke-width:0.3;" x2="36.571" y1="-43.204" y2="-39.954"/>
  <line x1="44.321" style="fill:none;stroke:#000000;stroke-width:0.3;" x2="46.633" y1="-43.204" y2="-40.017"/>
  <line x1="46.696" style="fill:none;stroke:#000000;stroke-width:0.3;" x2="44.321" y1="-43.204" y2="-39.954"/>
  <line x1="2.112" style="fill:none;stroke:#000000;stroke-width:0.3;" x2="4.425" y1="-35.517" y2="-32.329"/>
  <line x1="4.487" style="fill:none;stroke:#000000;stroke-width:0.3;" x2="2.112" y1="-35.517" y2="-32.267"/>
  <line x1="9.8" style="fill:none;stroke:#000000;stroke-width:0.3;" x2="12.112" y1="-35.517" y2="-32.329"/>
  <line x1="12.175" style="fill:none;stroke:#000000;stroke-width:0.3;" x2="9.8" y1="-35.517" y2="-32.267"/>
  <line x1="17.362" style="fill:none;stroke:#000000;stroke-width:0.3;" x2="19.675" y1="-35.517" y2="-32.329"/>
  <line x1="19.737" style="fill:none;stroke:#000000;stroke-width:0.3;" x2="17.362" y1="-35.517" y2="-32.267"/>
  <line x1="24.987" style="fill:none;stroke:#000000;stroke-width:0.3;" x2="27.3" y1="-35.517" y2="-32.329"/>
  <line x1="27.362" style="fill:none;stroke:#000000;stroke-width:0.3;" x2="24.987" y1="-35.517" y2="-32.267"/>
  <line x1="32.675" style="fill:none;stroke:#000000;stroke-width:0.3;" x2="34.987" y1="-35.517" y2="-32.329"/>
  <line x1="35.05" style="fill:none;stroke:#000000;stroke-width:0.3;" x2="32.675" y1="-35.517" y2="-32.267"/>
  <line x1="40.425" style="fill:none;stroke:#000000;stroke-width:0.3;" x2="42.737" y1="-35.517" y2="-32.329"/>
  <line x1="42.8" style="fill:none;stroke:#000000;stroke-width:0.3;" x2="40.425" y1="-35.517" y2="-32.267"/>
  <line x1="6.029" style="fill:none;stroke:#000000;stroke-width:0.3;" x2="8.342" y1="-27.767" y2="-24.579"/>
  <line x1="8.404" style="fill:none;stroke:#000000;stroke-width:0.3;" x2="6.029" y1="-27.767" y2="-24.517"/>
  <line x1="13.717" style="fill:none;stroke:#000000;stroke-width:0.3;" x2="16.029" y1="-27.767" y2="-24.579"/>
  <line x1="16.091" style="fill:none;stroke:#000000;stroke-width:0.3;" x2="13.717" y1="-27.767" y2="-24.517"/>
  <line x1="21.279" style="fill:none;stroke:#000000;stroke-width:0.3;" x2="23.591" y1="-27.767" y2="-24.579"/>
  <line x1="23.654" style="fill:none;stroke:#000000;stroke-width:0.3;" x2="21.279" y1="-27.767" y2="-24.517"/>
  <line x1="28.904" style="fill:none;stroke:#000000;stroke-width:0.3;" x2="31.216" y1="-27.767" y2="-24.579"/>
  <line x1="31.279" style="fill:none;stroke:#000000;stroke-width:0.3;" x2="28.904" y1="-27.767" y2="-24.517"/>
  <line x1="36.591" style="fill:none;stroke:#000000;stroke-width:0.3;" x2="38.904" y1="-27.767" y2="-24.579"/>
  <line x1="38.966" style="fill:none;stroke:#000000;stroke-width:0.3;" x2="36.591" y1="-27.767" y2="-24.517"/>
  <line x1="44.341" style="fill:none;stroke:#000000;stroke-width:0.3;" x2="46.654" y1="-27.767" y2="-24.579"/>
  <line x1="46.716" style="fill:none;stroke:#000000;stroke-width:0.3;" x2="44.341" y1="-27.767" y2="-24.517"/>
  <line x1="1.946" style="fill:none;stroke:#000000;stroke-width:0.3;" x2="4.258" y1="-20.017" y2="-16.829"/>
  <line x1="4.321" style="fill:none;stroke:#000000;stroke-width:0.3;" x2="1.946" y1="-20.017" y2="-16.767"/>
  <line x1="9.633" style="fill:none;stroke:#000000;stroke-width:0.3;" x2="11.946" y1="-20.017" y2="-16.829"/>
  <line x1="12.008" style="fill:none;stroke:#000000;stroke-width:0.3;" x2="9.633" y1="-20.017" y2="-16.767"/>
  <line x1="17.196" style="fill:none;stroke:#000000;stroke-width:0.3;" x2="19.508" y1="-20.017" y2="-16.829"/>
  <line x1="19.571" style="fill:none;stroke:#000000;stroke-width:0.3;" x2="17.196" y1="-20.017" y2="-16.767"/>
  <line x1="24.821" style="fill:none;stroke:#000000;stroke-width:0.3;" x2="27.133" y1="-20.017" y2="-16.829"/>
  <line x1="27.196" style="fill:none;stroke:#000000;stroke-width:0.3;" x2="24.821" y1="-20.017" y2="-16.767"/>
  <line x1="32.508" style="fill:none;stroke:#000000;stroke-width:0.3;" x2="34.821" y1="-20.017" y2="-16.829"/>
  <line x1="34.883" style="fill:none;stroke:#000000;stroke-width:0.3;" x2="32.508" y1="-20.017" y2="-16.767"/>
  <line x1="40.258" style="fill:none;stroke:#000000;stroke-width:0.3;" x2="42.571" y1="-20.017" y2="-16.829"/>
  <line x1="42.633" style="fill:none;stroke:#000000;stroke-width:0.3;" x2="40.258" y1="-20.017" y2="-16.767"/>
  <line x1="5.946" style="fill:none;stroke:#000000;stroke-width:0.3;" x2="8.258" y1="-12.517" y2="-9.329"/>
  <line x1="8.321" style="fill:none;stroke:#000000;stroke-width:0.3;" x2="5.946" y1="-12.517" y2="-9.267"/>
  <line x1="13.633" style="fill:none;stroke:#000000;stroke-width:0.3;" x2="15.946" y1="-12.517" y2="-9.329"/>
  <line x1="16.008" style="fill:none;stroke:#000000;stroke-width:0.3;" x2="13.633" y1="-12.517" y2="-9.267"/>
  <line x1="21.196" style="fill:none;stroke:#000000;stroke-width:0.3;" x2="23.508" y1="-12.517" y2="-9.329"/>
  <line x1="23.571" style="fill:none;stroke:#000000;stroke-width:0.3;" x2="21.196" y1="-12.517" y2="-9.267"/>
  <line x1="28.821" style="fill:none;stroke:#000000;stroke-width:0.3;" x2="31.133" y1="-12.517" y2="-9.329"/>
  <line x1="31.196" style="fill:none;stroke:#000000;stroke-width:0.3;" x2="28.821" y1="-12.517" y2="-9.267"/>
  <line x1="36.508" style="fill:none;stroke:#000000;stroke-width:0.3;" x2="38.821" y1="-12.517" y2="-9.329"/>
  <line x1="38.883" style="fill:none;stroke:#000000;stroke-width:0.3;" x2="36.508" y1="-12.517" y2="-9.267"/>
  <line x1="44.258" style="fill:none;stroke:#000000;stroke-width:0.3;" x2="46.571" y1="-12.517" y2="-9.329"/>
  <line x1="46.633" style="fill:none;stroke:#000000;stroke-width:0.3;" x2="44.258" y1="-12.517" y2="-9.267"/>
  <line x1="2.112" style="fill:none;stroke:#000000;stroke-width:0.3;" x2="4.425" y1="-4.85" y2="-1.663"/>
  <line x1="4.487" style="fill:none;stroke:#000000;stroke-width:0.3;" x2="2.112" y1="-4.85" y2="-1.6"/>
  <line x1="9.8" style="fill:none;stroke:#000000;stroke-width:0.3;" x2="12.112" y1="-4.85" y2="-1.663"/>
  <line x1="12.175" style="fill:none;stroke:#000000;stroke-width:0.3;" x2="9.8" y1="-4.85" y2="-1.6"/>
  <line x1="17.362" style="fill:none;stroke:#000000;stroke-width:0.3;" x2="19.675" y1="-4.85" y2="-1.663"/>
  <line x1="19.737" style="fill:none;stroke:#000000;stroke-width:0.3;" x2="17.362" y1="-4.85" y2="-1.6"/>
  <line x1="24.987" style="fill:none;stroke:#000000;stroke-width:0.3;" x2="27.3" y1="-4.85" y2="-1.663"/>
  <line x1="27.362" style="fill:none;stroke:#000000;stroke-width:0.3;" x2="24.987" y1="-4.85" y2="-1.6"/>
  <line x1="32.675" style="fill:none;stroke:#000000;stroke-width:0.3;" x2="34.987" y1="-4.85" y2="-1.663"/>
  <line x1="35.05" style="fill:none;stroke:#000000;stroke-width:0.3;" x2="32.675" y1="-4.85" y2="-1.6"/>
  <line x1="40.425" style="fill:none;stroke:#000000;stroke-width:0.3;" x2="42.737" y1="-4.85" y2="-1.663"/>
  <line x1="42.8" style="fill:none;stroke:#000000;stroke-width:0.3;" x2="40.425" y1="-4.85" y2="-1.6"/>
 </g>
</svg>
