<?xml version="1.0"?>
<!-- Converted with SVG Converter - Version 0.9.5 (Compiled Fri Feb 21 09:53:38 2020) - Copyright (C) 2011 Nokia -->
<svg xmlns="http://www.w3.org/2000/svg" version="1.1" width="46" x="0px" xmlns:xlink="http://www.w3.org/1999/xlink" height="46" baseProfile="tiny" viewBox="1 -47.233 46 46" y="0px" xml:space="preserve">
 <g>
  <rect width="46" x="1" height="46" y="-47.233" style="fill:none;"/>
  <line x1="6.008" y2="-40.017" y1="-43.204" style="fill:none;stroke:#000000;stroke-width:0.3;" x2="8.321"/>
  <line x1="8.383" y2="-39.954" y1="-43.204" style="fill:none;stroke:#000000;stroke-width:0.3;" x2="6.008"/>
  <line x1="13.696" y2="-40.017" y1="-43.204" style="fill:none;stroke:#000000;stroke-width:0.3;" x2="16.008"/>
  <line x1="16.071" y2="-39.954" y1="-43.204" style="fill:none;stroke:#000000;stroke-width:0.3;" x2="13.696"/>
  <line x1="21.258" y2="-40.017" y1="-43.204" style="fill:none;stroke:#000000;stroke-width:0.3;" x2="23.571"/>
  <line x1="23.633" y2="-39.954" y1="-43.204" style="fill:none;stroke:#000000;stroke-width:0.3;" x2="21.258"/>
  <line x1="28.883" y2="-40.017" y1="-43.204" style="fill:none;stroke:#000000;stroke-width:0.3;" x2="31.196"/>
  <line x1="31.258" y2="-39.954" y1="-43.204" style="fill:none;stroke:#000000;stroke-width:0.3;" x2="28.883"/>
  <line x1="36.571" y2="-40.017" y1="-43.204" style="fill:none;stroke:#000000;stroke-width:0.3;" x2="38.883"/>
  <line x1="38.946" y2="-39.954" y1="-43.204" style="fill:none;stroke:#000000;stroke-width:0.3;" x2="36.571"/>
  <line x1="44.321" y2="-40.017" y1="-43.204" style="fill:none;stroke:#000000;stroke-width:0.3;" x2="46.633"/>
  <line x1="46.696" y2="-39.954" y1="-43.204" style="fill:none;stroke:#000000;stroke-width:0.3;" x2="44.321"/>
  <line x1="2.112" y2="-32.329" y1="-35.517" style="fill:none;stroke:#000000;stroke-width:0.3;" x2="4.425"/>
  <line x1="4.487" y2="-32.267" y1="-35.517" style="fill:none;stroke:#000000;stroke-width:0.3;" x2="2.112"/>
  <line x1="9.8" y2="-32.329" y1="-35.517" style="fill:none;stroke:#000000;stroke-width:0.3;" x2="12.112"/>
  <line x1="12.175" y2="-32.267" y1="-35.517" style="fill:none;stroke:#000000;stroke-width:0.3;" x2="9.8"/>
  <line x1="17.362" y2="-32.329" y1="-35.517" style="fill:none;stroke:#000000;stroke-width:0.3;" x2="19.675"/>
  <line x1="19.737" y2="-32.267" y1="-35.517" style="fill:none;stroke:#000000;stroke-width:0.3;" x2="17.362"/>
  <line x1="24.987" y2="-32.329" y1="-35.517" style="fill:none;stroke:#000000;stroke-width:0.3;" x2="27.3"/>
  <line x1="27.362" y2="-32.267" y1="-35.517" style="fill:none;stroke:#000000;stroke-width:0.3;" x2="24.987"/>
  <line x1="32.675" y2="-32.329" y1="-35.517" style="fill:none;stroke:#000000;stroke-width:0.3;" x2="34.987"/>
  <line x1="35.05" y2="-32.267" y1="-35.517" style="fill:none;stroke:#000000;stroke-width:0.3;" x2="32.675"/>
  <line x1="40.425" y2="-32.329" y1="-35.517" style="fill:none;stroke:#000000;stroke-width:0.3;" x2="42.737"/>
  <line x1="42.8" y2="-32.267" y1="-35.517" style="fill:none;stroke:#000000;stroke-width:0.3;" x2="40.425"/>
  <line x1="6.029" y2="-24.579" y1="-27.767" style="fill:none;stroke:#000000;stroke-width:0.3;" x2="8.342"/>
  <line x1="8.404" y2="-24.517" y1="-27.767" style="fill:none;stroke:#000000;stroke-width:0.3;" x2="6.029"/>
  <line x1="13.717" y2="-24.579" y1="-27.767" style="fill:none;stroke:#000000;stroke-width:0.3;" x2="16.029"/>
  <line x1="16.091" y2="-24.517" y1="-27.767" style="fill:none;stroke:#000000;stroke-width:0.3;" x2="13.717"/>
  <line x1="21.279" y2="-24.579" y1="-27.767" style="fill:none;stroke:#000000;stroke-width:0.3;" x2="23.591"/>
  <line x1="23.654" y2="-24.517" y1="-27.767" style="fill:none;stroke:#000000;stroke-width:0.3;" x2="21.279"/>
  <line x1="28.904" y2="-24.579" y1="-27.767" style="fill:none;stroke:#000000;stroke-width:0.3;" x2="31.216"/>
  <line x1="31.279" y2="-24.517" y1="-27.767" style="fill:none;stroke:#000000;stroke-width:0.3;" x2="28.904"/>
  <line x1="36.591" y2="-24.579" y1="-27.767" style="fill:none;stroke:#000000;stroke-width:0.3;" x2="38.904"/>
  <line x1="38.966" y2="-24.517" y1="-27.767" style="fill:none;stroke:#000000;stroke-width:0.3;" x2="36.591"/>
  <line x1="44.341" y2="-24.579" y1="-27.767" style="fill:none;stroke:#000000;stroke-width:0.3;" x2="46.654"/>
  <line x1="46.716" y2="-24.517" y1="-27.767" style="fill:none;stroke:#000000;stroke-width:0.3;" x2="44.341"/>
  <line x1="1.946" y2="-16.829" y1="-20.017" style="fill:none;stroke:#000000;stroke-width:0.3;" x2="4.258"/>
  <line x1="4.321" y2="-16.767" y1="-20.017" style="fill:none;stroke:#000000;stroke-width:0.3;" x2="1.946"/>
  <line x1="9.633" y2="-16.829" y1="-20.017" style="fill:none;stroke:#000000;stroke-width:0.3;" x2="11.946"/>
  <line x1="12.008" y2="-16.767" y1="-20.017" style="fill:none;stroke:#000000;stroke-width:0.3;" x2="9.633"/>
  <line x1="17.196" y2="-16.829" y1="-20.017" style="fill:none;stroke:#000000;stroke-width:0.3;" x2="19.508"/>
  <line x1="19.571" y2="-16.767" y1="-20.017" style="fill:none;stroke:#000000;stroke-width:0.3;" x2="17.196"/>
  <line x1="24.821" y2="-16.829" y1="-20.017" style="fill:none;stroke:#000000;stroke-width:0.3;" x2="27.133"/>
  <line x1="27.196" y2="-16.767" y1="-20.017" style="fill:none;stroke:#000000;stroke-width:0.3;" x2="24.821"/>
  <line x1="32.508" y2="-16.829" y1="-20.017" style="fill:none;stroke:#000000;stroke-width:0.3;" x2="34.821"/>
  <line x1="34.883" y2="-16.767" y1="-20.017" style="fill:none;stroke:#000000;stroke-width:0.3;" x2="32.508"/>
  <line x1="40.258" y2="-16.829" y1="-20.017" style="fill:none;stroke:#000000;stroke-width:0.3;" x2="42.571"/>
  <line x1="42.633" y2="-16.767" y1="-20.017" style="fill:none;stroke:#000000;stroke-width:0.3;" x2="40.258"/>
  <line x1="5.946" y2="-9.329" y1="-12.517" style="fill:none;stroke:#000000;stroke-width:0.3;" x2="8.258"/>
  <line x1="8.321" y2="-9.267" y1="-12.517" style="fill:none;stroke:#000000;stroke-width:0.3;" x2="5.946"/>
  <line x1="13.633" y2="-9.329" y1="-12.517" style="fill:none;stroke:#000000;stroke-width:0.3;" x2="15.946"/>
  <line x1="16.008" y2="-9.267" y1="-12.517" style="fill:none;stroke:#000000;stroke-width:0.3;" x2="13.633"/>
  <line x1="21.196" y2="-9.329" y1="-12.517" style="fill:none;stroke:#000000;stroke-width:0.3;" x2="23.508"/>
  <line x1="23.571" y2="-9.267" y1="-12.517" style="fill:none;stroke:#000000;stroke-width:0.3;" x2="21.196"/>
  <line x1="28.821" y2="-9.329" y1="-12.517" style="fill:none;stroke:#000000;stroke-width:0.3;" x2="31.133"/>
  <line x1="31.196" y2="-9.267" y1="-12.517" style="fill:none;stroke:#000000;stroke-width:0.3;" x2="28.821"/>
  <line x1="36.508" y2="-9.329" y1="-12.517" style="fill:none;stroke:#000000;stroke-width:0.3;" x2="38.821"/>
  <line x1="38.883" y2="-9.267" y1="-12.517" style="fill:none;stroke:#000000;stroke-width:0.3;" x2="36.508"/>
  <line x1="44.258" y2="-9.329" y1="-12.517" style="fill:none;stroke:#000000;stroke-width:0.3;" x2="46.571"/>
  <line x1="46.633" y2="-9.267" y1="-12.517" style="fill:none;stroke:#000000;stroke-width:0.3;" x2="44.258"/>
  <line x1="2.112" y2="-1.663" y1="-4.85" style="fill:none;stroke:#000000;stroke-width:0.3;" x2="4.425"/>
  <line x1="4.487" y2="-1.6" y1="-4.85" style="fill:none;stroke:#000000;stroke-width:0.3;" x2="2.112"/>
  <line x1="9.8" y2="-1.663" y1="-4.85" style="fill:none;stroke:#000000;stroke-width:0.3;" x2="12.112"/>
  <line x1="12.175" y2="-1.6" y1="-4.85" style="fill:none;stroke:#000000;stroke-width:0.3;" x2="9.8"/>
  <line x1="17.362" y2="-1.663" y1="-4.85" style="fill:none;stroke:#000000;stroke-width:0.3;" x2="19.675"/>
  <line x1="19.737" y2="-1.6" y1="-4.85" style="fill:none;stroke:#000000;stroke-width:0.3;" x2="17.362"/>
  <line x1="24.987" y2="-1.663" y1="-4.85" style="fill:none;stroke:#000000;stroke-width:0.3;" x2="27.3"/>
  <line x1="27.362" y2="-1.6" y1="-4.85" style="fill:none;stroke:#000000;stroke-width:0.3;" x2="24.987"/>
  <line x1="32.675" y2="-1.663" y1="-4.85" style="fill:none;stroke:#000000;stroke-width:0.3;" x2="34.987"/>
  <line x1="35.05" y2="-1.6" y1="-4.85" style="fill:none;stroke:#000000;stroke-width:0.3;" x2="32.675"/>
  <line x1="40.425" y2="-1.663" y1="-4.85" style="fill:none;stroke:#000000;stroke-width:0.3;" x2="42.737"/>
  <line x1="42.8" y2="-1.6" y1="-4.85" style="fill:none;stroke:#000000;stroke-width:0.3;" x2="40.425"/>
 </g>
</svg>
