<?xml version="1.0"?>
<!-- Converted with SVG Converter - Version 0.9.5 (Compiled Fri Feb 21 09:53:38 2020) - Copyright (C) 2011 Nokia -->
<svg xmlns="http://www.w3.org/2000/svg" width="68.982" xmlns:xlink="http://www.w3.org/1999/xlink" xml:space="preserve" y="0px" version="1.1" baseProfile="tiny" height="68.982" viewBox="1.6 -70.104 68.982 68.982" x="0px">
 <g>
  <rect width="68.982" y="-70.104" style="fill:none;" height="68.982" x="1.6"/>
  <line x2="11.988" y2="-43.621" y1="-43.621" style="fill:none;stroke:#000000;stroke-width:0.3;" x1="16.676"/>
  <line x2="11.988" y2="-43.621" y1="-43.621" style="fill:none;stroke:#000000;stroke-width:0.3;" x1="7.363"/>
  <line x2="11.988" y2="-43.621" y1="-41.934" style="fill:none;stroke:#000000;stroke-width:0.3;" x1="11.988"/>
  <line x2="11.988" y2="-45.121" y1="-43.621" style="fill:none;stroke:#000000;stroke-width:0.3;" x1="11.988"/>
  <line x2="29.238" y2="-43.621" y1="-43.621" style="fill:none;stroke:#000000;stroke-width:0.3;" x1="24.613"/>
  <line x2="29.238" y2="-43.621" y1="-43.621" style="fill:none;stroke:#000000;stroke-width:0.3;" x1="33.926"/>
  <line x2="29.238" y2="-45.121" y1="-43.621" style="fill:none;stroke:#000000;stroke-width:0.3;" x1="29.238"/>
  <line x2="29.238" y2="-43.621" y1="-41.934" style="fill:none;stroke:#000000;stroke-width:0.3;" x1="29.238"/>
  <line x2="3.343" y2="-49.371" y1="-49.371" style="fill:none;stroke:#000000;stroke-width:0.3;" x1="1.6"/>
  <line x2="3.343" y2="-49.371" y1="-49.371" style="fill:none;stroke:#000000;stroke-width:0.3;" x1="8.03"/>
  <line x2="3.343" y2="-50.871" y1="-49.371" style="fill:none;stroke:#000000;stroke-width:0.3;" x1="3.343"/>
  <line x2="3.343" y2="-49.371" y1="-47.684" style="fill:none;stroke:#000000;stroke-width:0.3;" x1="3.343"/>
  <line x2="20.593" y2="-49.371" y1="-49.371" style="fill:none;stroke:#000000;stroke-width:0.3;" x1="25.28"/>
  <line x2="20.593" y2="-49.371" y1="-49.371" style="fill:none;stroke:#000000;stroke-width:0.3;" x1="15.968"/>
  <line x2="20.593" y2="-50.871" y1="-49.371" style="fill:none;stroke:#000000;stroke-width:0.3;" x1="20.593"/>
  <line x2="20.593" y2="-47.684" y1="-49.371" style="fill:none;stroke:#000000;stroke-width:0.3;" x1="20.593"/>
  <line x2="11.988" y2="-55.1" y1="-55.1" style="fill:none;stroke:#000000;stroke-width:0.3;" x1="16.676"/>
  <line x2="11.988" y2="-55.1" y1="-55.1" style="fill:none;stroke:#000000;stroke-width:0.3;" x1="7.363"/>
  <line x2="11.988" y2="-56.6" y1="-55.1" style="fill:none;stroke:#000000;stroke-width:0.3;" x1="11.988"/>
  <line x2="11.988" y2="-55.1" y1="-53.412" style="fill:none;stroke:#000000;stroke-width:0.3;" x1="11.988"/>
  <line x2="29.238" y2="-55.1" y1="-55.1" style="fill:none;stroke:#000000;stroke-width:0.3;" x1="24.613"/>
  <line x2="29.238" y2="-55.1" y1="-55.1" style="fill:none;stroke:#000000;stroke-width:0.3;" x1="33.926"/>
  <line x2="29.238" y2="-56.6" y1="-55.1" style="fill:none;stroke:#000000;stroke-width:0.3;" x1="29.238"/>
  <line x2="29.238" y2="-53.412" y1="-55.1" style="fill:none;stroke:#000000;stroke-width:0.3;" x1="29.238"/>
  <line x2="3.343" y2="-60.85" y1="-60.85" style="fill:none;stroke:#000000;stroke-width:0.3;" x1="1.6"/>
  <line x2="3.343" y2="-60.85" y1="-60.85" style="fill:none;stroke:#000000;stroke-width:0.3;" x1="8.03"/>
  <line x2="3.343" y2="-60.85" y1="-62.35" style="fill:none;stroke:#000000;stroke-width:0.3;" x1="3.343"/>
  <line x2="3.343" y2="-60.85" y1="-59.162" style="fill:none;stroke:#000000;stroke-width:0.3;" x1="3.343"/>
  <line x2="20.593" y2="-60.85" y1="-60.85" style="fill:none;stroke:#000000;stroke-width:0.3;" x1="25.28"/>
  <line x2="20.593" y2="-60.85" y1="-60.85" style="fill:none;stroke:#000000;stroke-width:0.3;" x1="15.968"/>
  <line x2="20.593" y2="-62.35" y1="-60.85" style="fill:none;stroke:#000000;stroke-width:0.3;" x1="20.593"/>
  <line x2="20.593" y2="-60.85" y1="-59.162" style="fill:none;stroke:#000000;stroke-width:0.3;" x1="20.593"/>
  <line x2="3.343" y2="-37.829" y1="-37.829" style="fill:none;stroke:#000000;stroke-width:0.3;" x1="8.03"/>
  <line x2="1.6" y2="-37.829" y1="-37.829" style="fill:none;stroke:#000000;stroke-width:0.3;" x1="3.343"/>
  <line x2="3.343" y2="-39.329" y1="-37.829" style="fill:none;stroke:#000000;stroke-width:0.3;" x1="3.343"/>
  <line x2="3.343" y2="-36.142" y1="-37.829" style="fill:none;stroke:#000000;stroke-width:0.3;" x1="3.343"/>
  <line x2="20.593" y2="-37.829" y1="-37.829" style="fill:none;stroke:#000000;stroke-width:0.3;" x1="15.968"/>
  <line x2="20.593" y2="-37.829" y1="-37.829" style="fill:none;stroke:#000000;stroke-width:0.3;" x1="25.28"/>
  <line x2="20.593" y2="-37.829" y1="-36.142" style="fill:none;stroke:#000000;stroke-width:0.3;" x1="20.593"/>
  <line x2="20.593" y2="-39.329" y1="-37.829" style="fill:none;stroke:#000000;stroke-width:0.3;" x1="20.593"/>
  <line x2="16.676" y2="-66.579" y1="-66.579" style="fill:none;stroke:#000000;stroke-width:0.3;" x1="11.988"/>
  <line x2="11.988" y2="-66.579" y1="-66.579" style="fill:none;stroke:#000000;stroke-width:0.3;" x1="7.363"/>
  <line x2="11.988" y2="-66.579" y1="-64.892" style="fill:none;stroke:#000000;stroke-width:0.3;" x1="11.988"/>
  <line x2="11.988" y2="-68.079" y1="-66.579" style="fill:none;stroke:#000000;stroke-width:0.3;" x1="11.988"/>
  <line x2="33.926" y2="-66.579" y1="-66.579" style="fill:none;stroke:#000000;stroke-width:0.3;" x1="29.238"/>
  <line x2="29.238" y2="-66.579" y1="-66.579" style="fill:none;stroke:#000000;stroke-width:0.3;" x1="24.613"/>
  <line x2="29.238" y2="-66.579" y1="-64.892" style="fill:none;stroke:#000000;stroke-width:0.3;" x1="29.238"/>
  <line x2="29.238" y2="-68.079" y1="-66.579" style="fill:none;stroke:#000000;stroke-width:0.3;" x1="29.238"/>
  <line x2="11.988" y2="-9.079" y1="-9.079" style="fill:none;stroke:#000000;stroke-width:0.3;" x1="7.363"/>
  <line x2="11.988" y2="-9.079" y1="-9.079" style="fill:none;stroke:#000000;stroke-width:0.3;" x1="16.676"/>
  <line x2="11.988" y2="-10.579" y1="-9.079" style="fill:none;stroke:#000000;stroke-width:0.3;" x1="11.988"/>
  <line x2="11.988" y2="-9.079" y1="-7.392" style="fill:none;stroke:#000000;stroke-width:0.3;" x1="11.988"/>
  <line x2="29.238" y2="-9.079" y1="-9.079" style="fill:none;stroke:#000000;stroke-width:0.3;" x1="33.926"/>
  <line x2="29.238" y2="-9.079" y1="-9.079" style="fill:none;stroke:#000000;stroke-width:0.3;" x1="24.613"/>
  <line x2="29.238" y2="-7.392" y1="-9.079" style="fill:none;stroke:#000000;stroke-width:0.3;" x1="29.238"/>
  <line x2="29.238" y2="-9.079" y1="-10.579" style="fill:none;stroke:#000000;stroke-width:0.3;" x1="29.238"/>
  <line x2="1.6" y2="-14.829" y1="-14.829" style="fill:none;stroke:#000000;stroke-width:0.3;" x1="3.343"/>
  <line x2="3.343" y2="-14.829" y1="-14.829" style="fill:none;stroke:#000000;stroke-width:0.3;" x1="8.03"/>
  <line x2="3.343" y2="-13.142" y1="-14.829" style="fill:none;stroke:#000000;stroke-width:0.3;" x1="3.343"/>
  <line x2="3.343" y2="-16.329" y1="-14.829" style="fill:none;stroke:#000000;stroke-width:0.3;" x1="3.343"/>
  <line x2="20.593" y2="-14.829" y1="-14.829" style="fill:none;stroke:#000000;stroke-width:0.3;" x1="15.968"/>
  <line x2="20.593" y2="-14.829" y1="-14.829" style="fill:none;stroke:#000000;stroke-width:0.3;" x1="25.28"/>
  <line x2="20.593" y2="-13.142" y1="-14.829" style="fill:none;stroke:#000000;stroke-width:0.3;" x1="20.593"/>
  <line x2="20.593" y2="-16.329" y1="-14.829" style="fill:none;stroke:#000000;stroke-width:0.3;" x1="20.593"/>
  <line x2="11.988" y2="-20.559" y1="-20.559" style="fill:none;stroke:#000000;stroke-width:0.3;" x1="16.676"/>
  <line x2="11.988" y2="-20.559" y1="-20.559" style="fill:none;stroke:#000000;stroke-width:0.3;" x1="7.363"/>
  <line x2="11.988" y2="-20.559" y1="-18.871" style="fill:none;stroke:#000000;stroke-width:0.3;" x1="11.988"/>
  <line x2="11.988" y2="-22.059" y1="-20.559" style="fill:none;stroke:#000000;stroke-width:0.3;" x1="11.988"/>
  <line x2="29.238" y2="-20.559" y1="-20.559" style="fill:none;stroke:#000000;stroke-width:0.3;" x1="33.926"/>
  <line x2="29.238" y2="-20.559" y1="-20.559" style="fill:none;stroke:#000000;stroke-width:0.3;" x1="24.613"/>
  <line x2="29.238" y2="-18.871" y1="-20.559" style="fill:none;stroke:#000000;stroke-width:0.3;" x1="29.238"/>
  <line x2="29.238" y2="-22.059" y1="-20.559" style="fill:none;stroke:#000000;stroke-width:0.3;" x1="29.238"/>
  <line x2="3.343" y2="-26.309" y1="-26.309" style="fill:none;stroke:#000000;stroke-width:0.3;" x1="1.6"/>
  <line x2="3.343" y2="-26.309" y1="-26.309" style="fill:none;stroke:#000000;stroke-width:0.3;" x1="8.03"/>
  <line x2="3.343" y2="-26.309" y1="-24.621" style="fill:none;stroke:#000000;stroke-width:0.3;" x1="3.343"/>
  <line x2="3.343" y2="-26.309" y1="-27.809" style="fill:none;stroke:#000000;stroke-width:0.3;" x1="3.343"/>
  <line x2="20.593" y2="-26.309" y1="-26.309" style="fill:none;stroke:#000000;stroke-width:0.3;" x1="15.968"/>
  <line x2="20.593" y2="-26.309" y1="-26.309" style="fill:none;stroke:#000000;stroke-width:0.3;" x1="25.28"/>
  <line x2="20.593" y2="-26.309" y1="-24.621" style="fill:none;stroke:#000000;stroke-width:0.3;" x1="20.593"/>
  <line x2="20.593" y2="-27.809" y1="-26.309" style="fill:none;stroke:#000000;stroke-width:0.3;" x1="20.593"/>
  <line x2="1.6" y2="-3.287" y1="-3.287" style="fill:none;stroke:#000000;stroke-width:0.3;" x1="3.343"/>
  <line x2="3.343" y2="-3.287" y1="-3.287" style="fill:none;stroke:#000000;stroke-width:0.3;" x1="8.03"/>
  <line x2="3.343" y2="-3.287" y1="-1.6" style="fill:none;stroke:#000000;stroke-width:0.3;" x1="3.343"/>
  <line x2="3.343" y2="-3.287" y1="-4.787" style="fill:none;stroke:#000000;stroke-width:0.3;" x1="3.343"/>
  <line x2="20.593" y2="-3.287" y1="-3.287" style="fill:none;stroke:#000000;stroke-width:0.3;" x1="25.28"/>
  <line x2="15.968" y2="-3.287" y1="-3.287" style="fill:none;stroke:#000000;stroke-width:0.3;" x1="20.593"/>
  <line x2="20.593" y2="-3.287" y1="-4.787" style="fill:none;stroke:#000000;stroke-width:0.3;" x1="20.593"/>
  <line x2="20.593" y2="-1.6" y1="-3.287" style="fill:none;stroke:#000000;stroke-width:0.3;" x1="20.593"/>
  <line x2="11.988" y2="-32.037" y1="-32.037" style="fill:none;stroke:#000000;stroke-width:0.3;" x1="7.363"/>
  <line x2="11.988" y2="-32.037" y1="-32.037" style="fill:none;stroke:#000000;stroke-width:0.3;" x1="16.676"/>
  <line x2="11.988" y2="-33.537" y1="-32.037" style="fill:none;stroke:#000000;stroke-width:0.3;" x1="11.988"/>
  <line x2="11.988" y2="-32.037" y1="-30.35" style="fill:none;stroke:#000000;stroke-width:0.3;" x1="11.988"/>
  <line x2="29.238" y2="-32.037" y1="-32.037" style="fill:none;stroke:#000000;stroke-width:0.3;" x1="24.613"/>
  <line x2="29.238" y2="-32.037" y1="-32.037" style="fill:none;stroke:#000000;stroke-width:0.3;" x1="33.926"/>
  <line x2="29.238" y2="-33.537" y1="-32.037" style="fill:none;stroke:#000000;stroke-width:0.3;" x1="29.238"/>
  <line x2="29.238" y2="-30.35" y1="-32.037" style="fill:none;stroke:#000000;stroke-width:0.3;" x1="29.238"/>
  <line x2="46.472" y2="-43.621" y1="-43.621" style="fill:none;stroke:#000000;stroke-width:0.3;" x1="41.847"/>
  <line x2="46.472" y2="-43.621" y1="-43.621" style="fill:none;stroke:#000000;stroke-width:0.3;" x1="51.16"/>
  <line x2="46.472" y2="-45.121" y1="-43.621" style="fill:none;stroke:#000000;stroke-width:0.3;" x1="46.472"/>
  <line x2="46.472" y2="-43.621" y1="-41.934" style="fill:none;stroke:#000000;stroke-width:0.3;" x1="46.472"/>
  <line x2="68.41" y2="-43.621" y1="-43.621" style="fill:none;stroke:#000000;stroke-width:0.3;" x1="63.722"/>
  <line x2="63.722" y2="-43.621" y1="-43.621" style="fill:none;stroke:#000000;stroke-width:0.3;" x1="59.097"/>
  <line x2="63.722" y2="-45.121" y1="-43.621" style="fill:none;stroke:#000000;stroke-width:0.3;" x1="63.722"/>
  <line x2="63.722" y2="-41.934" y1="-43.621" style="fill:none;stroke:#000000;stroke-width:0.3;" x1="63.722"/>
  <line x2="37.826" y2="-49.371" y1="-49.371" style="fill:none;stroke:#000000;stroke-width:0.3;" x1="42.514"/>
  <line x2="37.826" y2="-49.371" y1="-49.371" style="fill:none;stroke:#000000;stroke-width:0.3;" x1="33.201"/>
  <line x2="37.826" y2="-47.684" y1="-49.371" style="fill:none;stroke:#000000;stroke-width:0.3;" x1="37.826"/>
  <line x2="37.826" y2="-50.871" y1="-49.371" style="fill:none;stroke:#000000;stroke-width:0.3;" x1="37.826"/>
  <line x2="55.076" y2="-49.371" y1="-49.371" style="fill:none;stroke:#000000;stroke-width:0.3;" x1="59.764"/>
  <line x2="55.076" y2="-49.371" y1="-49.371" style="fill:none;stroke:#000000;stroke-width:0.3;" x1="50.451"/>
  <line x2="55.076" y2="-47.684" y1="-49.371" style="fill:none;stroke:#000000;stroke-width:0.3;" x1="55.076"/>
  <line x2="55.076" y2="-50.871" y1="-49.371" style="fill:none;stroke:#000000;stroke-width:0.3;" x1="55.076"/>
  <line x2="67.701" y2="-49.371" y1="-49.371" style="fill:none;stroke:#000000;stroke-width:0.3;" x1="70.582"/>
  <line x2="46.472" y2="-55.1" y1="-55.1" style="fill:none;stroke:#000000;stroke-width:0.3;" x1="41.847"/>
  <line x2="46.472" y2="-55.1" y1="-55.1" style="fill:none;stroke:#000000;stroke-width:0.3;" x1="51.16"/>
  <line x2="46.472" y2="-56.6" y1="-55.1" style="fill:none;stroke:#000000;stroke-width:0.3;" x1="46.472"/>
  <line x2="46.472" y2="-53.412" y1="-55.1" style="fill:none;stroke:#000000;stroke-width:0.3;" x1="46.472"/>
  <line x2="63.722" y2="-55.1" y1="-55.1" style="fill:none;stroke:#000000;stroke-width:0.3;" x1="59.097"/>
  <line x2="68.41" y2="-55.1" y1="-55.1" style="fill:none;stroke:#000000;stroke-width:0.3;" x1="63.722"/>
  <line x2="63.722" y2="-53.412" y1="-55.1" style="fill:none;stroke:#000000;stroke-width:0.3;" x1="63.722"/>
  <line x2="63.722" y2="-56.6" y1="-55.1" style="fill:none;stroke:#000000;stroke-width:0.3;" x1="63.722"/>
  <line x2="37.826" y2="-60.85" y1="-60.85" style="fill:none;stroke:#000000;stroke-width:0.3;" x1="42.514"/>
  <line x2="37.826" y2="-60.85" y1="-60.85" style="fill:none;stroke:#000000;stroke-width:0.3;" x1="33.201"/>
  <line x2="37.826" y2="-60.85" y1="-59.162" style="fill:none;stroke:#000000;stroke-width:0.3;" x1="37.826"/>
  <line x2="37.826" y2="-62.35" y1="-60.85" style="fill:none;stroke:#000000;stroke-width:0.3;" x1="37.826"/>
  <line x2="55.076" y2="-60.85" y1="-60.85" style="fill:none;stroke:#000000;stroke-width:0.3;" x1="50.451"/>
  <line x2="55.076" y2="-60.85" y1="-60.85" style="fill:none;stroke:#000000;stroke-width:0.3;" x1="59.764"/>
  <line x2="55.076" y2="-60.85" y1="-59.162" style="fill:none;stroke:#000000;stroke-width:0.3;" x1="55.076"/>
  <line x2="55.076" y2="-62.35" y1="-60.85" style="fill:none;stroke:#000000;stroke-width:0.3;" x1="55.076"/>
  <line x2="70.582" y2="-60.85" y1="-60.85" style="fill:none;stroke:#000000;stroke-width:0.3;" x1="67.701"/>
  <line x2="37.826" y2="-37.829" y1="-37.829" style="fill:none;stroke:#000000;stroke-width:0.3;" x1="42.514"/>
  <line x2="37.826" y2="-37.829" y1="-37.829" style="fill:none;stroke:#000000;stroke-width:0.3;" x1="33.201"/>
  <line x2="37.826" y2="-36.142" y1="-37.829" style="fill:none;stroke:#000000;stroke-width:0.3;" x1="37.826"/>
  <line x2="37.826" y2="-39.329" y1="-37.829" style="fill:none;stroke:#000000;stroke-width:0.3;" x1="37.826"/>
  <line x2="55.076" y2="-37.829" y1="-37.829" style="fill:none;stroke:#000000;stroke-width:0.3;" x1="50.451"/>
  <line x2="55.076" y2="-37.829" y1="-37.829" style="fill:none;stroke:#000000;stroke-width:0.3;" x1="59.764"/>
  <line x2="55.076" y2="-36.142" y1="-37.829" style="fill:none;stroke:#000000;stroke-width:0.3;" x1="55.076"/>
  <line x2="55.076" y2="-39.329" y1="-37.829" style="fill:none;stroke:#000000;stroke-width:0.3;" x1="55.076"/>
  <line x2="70.582" y2="-37.829" y1="-37.829" style="fill:none;stroke:#000000;stroke-width:0.3;" x1="67.701"/>
  <line x2="51.16" y2="-66.579" y1="-66.579" style="fill:none;stroke:#000000;stroke-width:0.3;" x1="46.472"/>
  <line x2="46.472" y2="-66.579" y1="-66.579" style="fill:none;stroke:#000000;stroke-width:0.3;" x1="41.847"/>
  <line x2="46.472" y2="-68.079" y1="-66.579" style="fill:none;stroke:#000000;stroke-width:0.3;" x1="46.472"/>
  <line x2="46.472" y2="-66.579" y1="-64.892" style="fill:none;stroke:#000000;stroke-width:0.3;" x1="46.472"/>
  <line x2="63.722" y2="-66.579" y1="-66.579" style="fill:none;stroke:#000000;stroke-width:0.3;" x1="59.097"/>
  <line x2="68.41" y2="-66.579" y1="-66.579" style="fill:none;stroke:#000000;stroke-width:0.3;" x1="63.722"/>
  <line x2="63.722" y2="-68.079" y1="-66.579" style="fill:none;stroke:#000000;stroke-width:0.3;" x1="63.722"/>
  <line x2="63.722" y2="-66.579" y1="-64.892" style="fill:none;stroke:#000000;stroke-width:0.3;" x1="63.722"/>
  <line x2="46.472" y2="-9.079" y1="-9.079" style="fill:none;stroke:#000000;stroke-width:0.3;" x1="51.16"/>
  <line x2="46.472" y2="-9.079" y1="-9.079" style="fill:none;stroke:#000000;stroke-width:0.3;" x1="41.847"/>
  <line x2="46.472" y2="-9.079" y1="-10.579" style="fill:none;stroke:#000000;stroke-width:0.3;" x1="46.472"/>
  <line x2="46.472" y2="-7.392" y1="-9.079" style="fill:none;stroke:#000000;stroke-width:0.3;" x1="46.472"/>
  <line x2="68.41" y2="-9.079" y1="-9.079" style="fill:none;stroke:#000000;stroke-width:0.3;" x1="63.722"/>
  <line x2="63.722" y2="-9.079" y1="-9.079" style="fill:none;stroke:#000000;stroke-width:0.3;" x1="59.097"/>
  <line x2="63.722" y2="-7.392" y1="-9.079" style="fill:none;stroke:#000000;stroke-width:0.3;" x1="63.722"/>
  <line x2="63.722" y2="-10.579" y1="-9.079" style="fill:none;stroke:#000000;stroke-width:0.3;" x1="63.722"/>
  <line x2="37.826" y2="-14.829" y1="-14.829" style="fill:none;stroke:#000000;stroke-width:0.3;" x1="33.201"/>
  <line x2="37.826" y2="-14.829" y1="-14.829" style="fill:none;stroke:#000000;stroke-width:0.3;" x1="42.514"/>
  <line x2="37.826" y2="-13.142" y1="-14.829" style="fill:none;stroke:#000000;stroke-width:0.3;" x1="37.826"/>
  <line x2="37.826" y2="-16.329" y1="-14.829" style="fill:none;stroke:#000000;stroke-width:0.3;" x1="37.826"/>
  <line x2="59.764" y2="-14.829" y1="-14.829" style="fill:none;stroke:#000000;stroke-width:0.3;" x1="55.076"/>
  <line x2="55.076" y2="-14.829" y1="-14.829" style="fill:none;stroke:#000000;stroke-width:0.3;" x1="50.451"/>
  <line x2="55.076" y2="-13.142" y1="-14.829" style="fill:none;stroke:#000000;stroke-width:0.3;" x1="55.076"/>
  <line x2="55.076" y2="-16.329" y1="-14.829" style="fill:none;stroke:#000000;stroke-width:0.3;" x1="55.076"/>
  <line x2="70.582" y2="-14.829" y1="-14.829" style="fill:none;stroke:#000000;stroke-width:0.3;" x1="67.701"/>
  <line x2="46.472" y2="-20.559" y1="-20.559" style="fill:none;stroke:#000000;stroke-width:0.3;" x1="51.16"/>
  <line x2="46.472" y2="-20.559" y1="-20.559" style="fill:none;stroke:#000000;stroke-width:0.3;" x1="41.847"/>
  <line x2="46.472" y2="-18.871" y1="-20.559" style="fill:none;stroke:#000000;stroke-width:0.3;" x1="46.472"/>
  <line x2="46.472" y2="-22.059" y1="-20.559" style="fill:none;stroke:#000000;stroke-width:0.3;" x1="46.472"/>
  <line x2="68.41" y2="-20.559" y1="-20.559" style="fill:none;stroke:#000000;stroke-width:0.3;" x1="63.722"/>
  <line x2="59.097" y2="-20.559" y1="-20.559" style="fill:none;stroke:#000000;stroke-width:0.3;" x1="63.722"/>
  <line x2="63.722" y2="-22.059" y1="-20.559" style="fill:none;stroke:#000000;stroke-width:0.3;" x1="63.722"/>
  <line x2="63.722" y2="-18.871" y1="-20.559" style="fill:none;stroke:#000000;stroke-width:0.3;" x1="63.722"/>
  <line x2="37.826" y2="-26.309" y1="-26.309" style="fill:none;stroke:#000000;stroke-width:0.3;" x1="42.514"/>
  <line x2="37.826" y2="-26.309" y1="-26.309" style="fill:none;stroke:#000000;stroke-width:0.3;" x1="33.201"/>
  <line x2="37.826" y2="-26.309" y1="-27.809" style="fill:none;stroke:#000000;stroke-width:0.3;" x1="37.826"/>
  <line x2="37.826" y2="-24.621" y1="-26.309" style="fill:none;stroke:#000000;stroke-width:0.3;" x1="37.826"/>
  <line x2="59.764" y2="-26.309" y1="-26.309" style="fill:none;stroke:#000000;stroke-width:0.3;" x1="55.076"/>
  <line x2="55.076" y2="-26.309" y1="-26.309" style="fill:none;stroke:#000000;stroke-width:0.3;" x1="50.451"/>
  <line x2="55.076" y2="-27.809" y1="-26.309" style="fill:none;stroke:#000000;stroke-width:0.3;" x1="55.076"/>
  <line x2="55.076" y2="-24.621" y1="-26.309" style="fill:none;stroke:#000000;stroke-width:0.3;" x1="55.076"/>
  <line x2="70.582" y2="-26.309" y1="-26.309" style="fill:none;stroke:#000000;stroke-width:0.3;" x1="67.701"/>
  <line x2="37.826" y2="-3.287" y1="-3.287" style="fill:none;stroke:#000000;stroke-width:0.3;" x1="42.514"/>
  <line x2="33.201" y2="-3.287" y1="-3.287" style="fill:none;stroke:#000000;stroke-width:0.3;" x1="37.826"/>
  <line x2="37.826" y2="-3.287" y1="-4.787" style="fill:none;stroke:#000000;stroke-width:0.3;" x1="37.826"/>
  <line x2="37.826" y2="-1.6" y1="-3.287" style="fill:none;stroke:#000000;stroke-width:0.3;" x1="37.826"/>
  <line x2="55.076" y2="-3.287" y1="-3.287" style="fill:none;stroke:#000000;stroke-width:0.3;" x1="59.764"/>
  <line x2="50.451" y2="-3.287" y1="-3.287" style="fill:none;stroke:#000000;stroke-width:0.3;" x1="55.076"/>
  <line x2="55.076" y2="-3.287" y1="-4.787" style="fill:none;stroke:#000000;stroke-width:0.3;" x1="55.076"/>
  <line x2="55.076" y2="-1.6" y1="-3.287" style="fill:none;stroke:#000000;stroke-width:0.3;" x1="55.076"/>
  <line x2="70.582" y2="-3.287" y1="-3.287" style="fill:none;stroke:#000000;stroke-width:0.3;" x1="67.701"/>
  <line x2="46.472" y2="-32.037" y1="-32.037" style="fill:none;stroke:#000000;stroke-width:0.3;" x1="41.847"/>
  <line x2="46.472" y2="-32.037" y1="-32.037" style="fill:none;stroke:#000000;stroke-width:0.3;" x1="51.16"/>
  <line x2="46.472" y2="-33.537" y1="-32.037" style="fill:none;stroke:#000000;stroke-width:0.3;" x1="46.472"/>
  <line x2="46.472" y2="-30.35" y1="-32.037" style="fill:none;stroke:#000000;stroke-width:0.3;" x1="46.472"/>
  <line x2="63.722" y2="-32.037" y1="-32.037" style="fill:none;stroke:#000000;stroke-width:0.3;" x1="59.097"/>
  <line x2="63.722" y2="-32.037" y1="-32.037" style="fill:none;stroke:#000000;stroke-width:0.3;" x1="68.41"/>
  <line x2="63.722" y2="-30.35" y1="-32.037" style="fill:none;stroke:#000000;stroke-width:0.3;" x1="63.722"/>
  <line x2="63.722" y2="-32.037" y1="-33.537" style="fill:none;stroke:#000000;stroke-width:0.3;" x1="63.722"/>
 </g>
</svg>
