<?xml version="1.0"?>
<!-- Converted with SVG Converter - Version 0.9.5 (Compiled Fri Feb 21 09:53:38 2020) - Copyright (C) 2011 Nokia -->
<svg xmlns="http://www.w3.org/2000/svg" x="0px" height="85.875" baseProfile="tiny" xmlns:xlink="http://www.w3.org/1999/xlink" version="1.1" width="85.875" y="0px" viewBox="1.525 -87.793 85.875 85.875" xml:space="preserve">
 <g>
  <rect x="1.525" height="85.875" width="85.875" y="-87.793" style="fill:none;"/>
  <line x1="26.4" x2="26.4" style="fill:none;stroke:#000000;stroke-width:0.7;stroke-linecap:round;" y2="-77.326" y1="-77.326"/>
  <line x1="38.4" x2="38.4" style="fill:none;stroke:#000000;stroke-width:0.7;stroke-linecap:round;" y2="-73.576" y1="-73.576"/>
  <line x1="38.067" x2="38.067" style="fill:none;stroke:#000000;stroke-width:0.7;stroke-linecap:round;" y2="-82.743" y1="-82.743"/>
  <line x1="46.15" x2="46.15" style="fill:none;stroke:#000000;stroke-width:0.7;stroke-linecap:round;" y2="-79.076" y1="-79.076"/>
  <line x1="69.9" x2="69.9" style="fill:none;stroke:#000000;stroke-width:0.7;stroke-linecap:round;" y2="-77.076" y1="-77.076"/>
  <line x1="82.15" x2="82.15" style="fill:none;stroke:#000000;stroke-width:0.7;stroke-linecap:round;" y2="-73.576" y1="-73.576"/>
  <line x1="77.15" x2="77.15" style="fill:none;stroke:#000000;stroke-width:0.7;stroke-linecap:round;" y2="-82.576" y1="-82.576"/>
  <line x1="55.15" x2="55.15" style="fill:none;stroke:#000000;stroke-width:0.7;stroke-linecap:round;" y2="-86.326" y1="-86.326"/>
  <line x1="30.9" x2="30.9" style="fill:none;stroke:#000000;stroke-width:0.7;stroke-linecap:round;" y2="-82.41" y1="-82.41"/>
  <line x1="15.15" x2="15.15" style="fill:none;stroke:#000000;stroke-width:0.7;stroke-linecap:round;" y2="-76.576" y1="-76.576"/>
  <line x1="14.9" x2="14.9" style="fill:none;stroke:#000000;stroke-width:0.7;stroke-linecap:round;" y2="-62.326" y1="-62.326"/>
  <line x1="33.65" x2="33.65" style="fill:none;stroke:#000000;stroke-width:0.7;stroke-linecap:round;" y2="-60.076" y1="-60.076"/>
  <line x1="36.9" x2="36.9" style="fill:none;stroke:#000000;stroke-width:0.7;stroke-linecap:round;" y2="-51.076" y1="-51.076"/>
  <line x1="44.9" x2="44.9" style="fill:none;stroke:#000000;stroke-width:0.7;stroke-linecap:round;" y2="-61.076" y1="-61.076"/>
  <line x1="50.65" x2="50.65" style="fill:none;stroke:#000000;stroke-width:0.7;stroke-linecap:round;" y2="-51.326" y1="-51.326"/>
  <line x1="56.9" x2="56.9" style="fill:none;stroke:#000000;stroke-width:0.7;stroke-linecap:round;" y2="-62.826" y1="-62.826"/>
  <line x1="64.15" x2="64.15" style="fill:none;stroke:#000000;stroke-width:0.7;stroke-linecap:round;" y2="-58.826" y1="-58.826"/>
  <line x1="58.15" x2="58.15" style="fill:none;stroke:#000000;stroke-width:0.7;stroke-linecap:round;" y2="-58.576" y1="-58.576"/>
  <line x1="52.4" x2="52.4" style="fill:none;stroke:#000000;stroke-width:0.7;stroke-linecap:round;" y2="-58.076" y1="-58.076"/>
  <line x1="42.9" x2="42.9" style="fill:none;stroke:#000000;stroke-width:0.7;stroke-linecap:round;" y2="-54.826" y1="-54.826"/>
  <line x1="32.4" x2="32.4" style="fill:none;stroke:#000000;stroke-width:0.7;stroke-linecap:round;" y2="-54.576" y1="-54.576"/>
  <line x1="30.9" x2="30.9" style="fill:none;stroke:#000000;stroke-width:0.7;stroke-linecap:round;" y2="-48.076" y1="-48.076"/>
  <line x1="29.4" x2="29.4" style="fill:none;stroke:#000000;stroke-width:0.7;stroke-linecap:round;" y2="-62.576" y1="-62.576"/>
  <line x1="38.4" x2="38.4" style="fill:none;stroke:#000000;stroke-width:0.7;stroke-linecap:round;" y2="-64.576" y1="-64.576"/>
  <line x1="30.9" x2="30.9" style="fill:none;stroke:#000000;stroke-width:0.7;stroke-linecap:round;" y2="-72.326" y1="-72.326"/>
  <line x1="18.15" x2="18.15" style="fill:none;stroke:#000000;stroke-width:0.7;stroke-linecap:round;" y2="-50.076" y1="-50.076"/>
  <line x1="20.65" x2="20.65" style="fill:none;stroke:#000000;stroke-width:0.7;stroke-linecap:round;" y2="-44.826" y1="-44.826"/>
  <line x1="4.025" x2="4.025" style="fill:none;stroke:#000000;stroke-width:0.7;stroke-linecap:round;" y2="-39.601" y1="-39.601"/>
  <line x1="6.15" x2="6.15" style="fill:none;stroke:#000000;stroke-width:0.7;stroke-linecap:round;" y2="-47.576" y1="-47.576"/>
  <line x1="24.4" x2="24.4" style="fill:none;stroke:#000000;stroke-width:0.7;stroke-linecap:round;" y2="-33.076" y1="-33.076"/>
  <line x1="8.15" x2="8.15" style="fill:none;stroke:#000000;stroke-width:0.7;stroke-linecap:round;" y2="-24.826" y1="-24.826"/>
  <line x1="24.15" x2="24.15" style="fill:none;stroke:#000000;stroke-width:0.7;stroke-linecap:round;" y2="-26.326" y1="-26.326"/>
  <line x1="22.15" x2="22.15" style="fill:none;stroke:#000000;stroke-width:0.7;stroke-linecap:round;" y2="-16.326" y1="-16.326"/>
  <line x1="15.9" x2="15.9" style="fill:none;stroke:#000000;stroke-width:0.7;stroke-linecap:round;" y2="-15.576" y1="-15.576"/>
  <line x1="15.65" x2="15.65" style="fill:none;stroke:#000000;stroke-width:0.7;stroke-linecap:round;" y2="-8.326" y1="-8.326"/>
  <line x1="12.275" x2="12.275" style="fill:none;stroke:#000000;stroke-width:0.7;stroke-linecap:round;" y2="-2.4" y1="-2.4"/>
  <line x1="30.9" x2="30.9" style="fill:none;stroke:#000000;stroke-width:0.7;stroke-linecap:round;" y2="-6.076" y1="-6.076"/>
  <line x1="37.65" x2="37.65" style="fill:none;stroke:#000000;stroke-width:0.7;stroke-linecap:round;" y2="-7.826" y1="-7.826"/>
  <line x1="37.9" x2="37.9" style="fill:none;stroke:#000000;stroke-width:0.7;stroke-linecap:round;" y2="-14.076" y1="-14.076"/>
  <line x1="38.4" x2="38.4" style="fill:none;stroke:#000000;stroke-width:0.7;stroke-linecap:round;" y2="-22.826" y1="-22.826"/>
  <line x1="30.65" x2="30.65" style="fill:none;stroke:#000000;stroke-width:0.7;stroke-linecap:round;" y2="-31.326" y1="-31.326"/>
  <line x1="29.65" x2="29.65" style="fill:none;stroke:#000000;stroke-width:0.7;stroke-linecap:round;" y2="-37.076" y1="-37.076"/>
  <line x1="27.65" x2="27.65" style="fill:none;stroke:#000000;stroke-width:0.7;stroke-linecap:round;" y2="-42.576" y1="-42.576"/>
  <line x1="35.15" x2="35.15" style="fill:none;stroke:#000000;stroke-width:0.7;stroke-linecap:round;" y2="-44.826" y1="-44.826"/>
  <line x1="40.4" x2="40.4" style="fill:none;stroke:#000000;stroke-width:0.7;stroke-linecap:round;" y2="-36.826" y1="-36.826"/>
  <line x1="43.9" x2="43.9" style="fill:none;stroke:#000000;stroke-width:0.7;stroke-linecap:round;" y2="-48.576" y1="-48.576"/>
  <line x1="56.15" x2="56.15" style="fill:none;stroke:#000000;stroke-width:0.7;stroke-linecap:round;" y2="-50.326" y1="-50.326"/>
  <line x1="50.15" x2="50.15" style="fill:none;stroke:#000000;stroke-width:0.7;stroke-linecap:round;" y2="-45.576" y1="-45.576"/>
  <line x1="45.9" x2="45.9" style="fill:none;stroke:#000000;stroke-width:0.7;stroke-linecap:round;" y2="-41.076" y1="-41.076"/>
  <line x1="51.15" x2="51.15" style="fill:none;stroke:#000000;stroke-width:0.7;stroke-linecap:round;" y2="-37.826" y1="-37.826"/>
  <line x1="57.4" x2="57.4" style="fill:none;stroke:#000000;stroke-width:0.7;stroke-linecap:round;" y2="-37.826" y1="-37.826"/>
  <line x1="57.15" x2="57.15" style="fill:none;stroke:#000000;stroke-width:0.7;stroke-linecap:round;" y2="-43.826" y1="-43.826"/>
  <line x1="62.15" x2="62.15" style="fill:none;stroke:#000000;stroke-width:0.7;stroke-linecap:round;" y2="-46.826" y1="-46.826"/>
  <line x1="70.9" x2="70.9" style="fill:none;stroke:#000000;stroke-width:0.7;stroke-linecap:round;" y2="-43.826" y1="-43.826"/>
  <line x1="71.4" x2="71.4" style="fill:none;stroke:#000000;stroke-width:0.7;stroke-linecap:round;" y2="-55.326" y1="-55.326"/>
  <line x1="68.65" x2="68.65" style="fill:none;stroke:#000000;stroke-width:0.7;stroke-linecap:round;" y2="-68.826" y1="-68.826"/>
  <line x1="62.65" x2="62.65" style="fill:none;stroke:#000000;stroke-width:0.7;stroke-linecap:round;" y2="-71.826" y1="-71.826"/>
  <line x1="64.9" x2="64.9" style="fill:none;stroke:#000000;stroke-width:0.7;stroke-linecap:round;" y2="-82.326" y1="-82.326"/>
  <line x1="84.4" x2="84.4" style="fill:none;stroke:#000000;stroke-width:0.7;stroke-linecap:round;" y2="-79.326" y1="-79.326"/>
  <line x1="76.4" x2="76.4" style="fill:none;stroke:#000000;stroke-width:0.7;stroke-linecap:round;" y2="-76.576" y1="-76.576"/>
  <line x1="82.4" x2="82.4" style="fill:none;stroke:#000000;stroke-width:0.7;stroke-linecap:round;" y2="-67.326" y1="-67.326"/>
  <line x1="73.65" x2="73.65" style="fill:none;stroke:#000000;stroke-width:0.7;stroke-linecap:round;" y2="-71.826" y1="-71.826"/>
  <line x1="76.4" x2="76.4" style="fill:none;stroke:#000000;stroke-width:0.7;stroke-linecap:round;" y2="-65.576" y1="-65.576"/>
  <line x1="79.65" x2="79.65" style="fill:none;stroke:#000000;stroke-width:0.7;stroke-linecap:round;" y2="-58.576" y1="-58.576"/>
  <line x1="84.65" x2="84.65" style="fill:none;stroke:#000000;stroke-width:0.7;stroke-linecap:round;" y2="-36.576" y1="-36.576"/>
  <line x1="76.9" x2="76.9" style="fill:none;stroke:#000000;stroke-width:0.7;stroke-linecap:round;" y2="-34.326" y1="-34.326"/>
  <line x1="73.4" x2="73.4" style="fill:none;stroke:#000000;stroke-width:0.7;stroke-linecap:round;" y2="-38.326" y1="-38.326"/>
  <line x1="69.15" x2="69.15" style="fill:none;stroke:#000000;stroke-width:0.7;stroke-linecap:round;" y2="-34.826" y1="-34.826"/>
  <line x1="63.65" x2="63.65" style="fill:none;stroke:#000000;stroke-width:0.7;stroke-linecap:round;" y2="-35.076" y1="-35.076"/>
  <line x1="63.15" x2="63.15" style="fill:none;stroke:#000000;stroke-width:0.7;stroke-linecap:round;" y2="-29.326" y1="-29.326"/>
  <line x1="69.4" x2="69.4" style="fill:none;stroke:#000000;stroke-width:0.7;stroke-linecap:round;" y2="-26.576" y1="-26.576"/>
  <line x1="76.65" x2="76.65" style="fill:none;stroke:#000000;stroke-width:0.7;stroke-linecap:round;" y2="-24.576" y1="-24.576"/>
  <line x1="72.9" x2="72.9" style="fill:none;stroke:#000000;stroke-width:0.7;stroke-linecap:round;" y2="-31.576" y1="-31.576"/>
  <line x1="81.65" x2="81.65" style="fill:none;stroke:#000000;stroke-width:0.7;stroke-linecap:round;" y2="-21.326" y1="-21.326"/>
  <line x1="81.4" x2="81.4" style="fill:none;stroke:#000000;stroke-width:0.7;stroke-linecap:round;" y2="-14.326" y1="-14.326"/>
  <line x1="75.65" x2="75.65" style="fill:none;stroke:#000000;stroke-width:0.7;stroke-linecap:round;" y2="-12.076" y1="-12.076"/>
  <line x1="69.4" x2="69.4" style="fill:none;stroke:#000000;stroke-width:0.7;stroke-linecap:round;" y2="-20.326" y1="-20.326"/>
  <line x1="70.15" x2="70.15" style="fill:none;stroke:#000000;stroke-width:0.7;stroke-linecap:round;" y2="-14.826" y1="-14.826"/>
  <line x1="50.9" x2="50.9" style="fill:none;stroke:#000000;stroke-width:0.7;stroke-linecap:round;" y2="-13.576" y1="-13.576"/>
  <line x1="43.15" x2="43.15" style="fill:none;stroke:#000000;stroke-width:0.7;stroke-linecap:round;" y2="-11.576" y1="-11.576"/>
  <line x1="32.4" x2="32.4" style="fill:none;stroke:#000000;stroke-width:0.7;stroke-linecap:round;" y2="-24.076" y1="-24.076"/>
  <line x1="28.4" x2="28.4" style="fill:none;stroke:#000000;stroke-width:0.7;stroke-linecap:round;" y2="-17.076" y1="-17.076"/>
  <line x1="20.9" x2="20.9" style="fill:none;stroke:#000000;stroke-width:0.7;stroke-linecap:round;" y2="-22.326" y1="-22.326"/>
  <line x1="14.15" x2="14.15" style="fill:none;stroke:#000000;stroke-width:0.7;stroke-linecap:round;" y2="-26.076" y1="-26.076"/>
  <line x1="6.4" x2="6.4" style="fill:none;stroke:#000000;stroke-width:0.7;stroke-linecap:round;" y2="-31.076" y1="-31.076"/>
  <line x1="2.65" x2="2.65" style="fill:none;stroke:#000000;stroke-width:0.7;stroke-linecap:round;" y2="-25.826" y1="-25.826"/>
  <line x1="2.9" x2="2.9" style="fill:none;stroke:#000000;stroke-width:0.7;stroke-linecap:round;" y2="-18.076" y1="-18.076"/>
  <line x1="20.4" x2="20.4" style="fill:none;stroke:#000000;stroke-width:0.7;stroke-linecap:round;" y2="-9.576" y1="-9.576"/>
  <line x1="49.217" x2="49.217" style="fill:none;stroke:#000000;stroke-width:0.7;stroke-linecap:round;" y2="-3.643" y1="-3.643"/>
  <line x1="83.65" x2="83.65" style="fill:none;stroke:#000000;stroke-width:0.7;stroke-linecap:round;" y2="-25.326" y1="-25.326"/>
  <line x1="84.65" x2="84.65" style="fill:none;stroke:#000000;stroke-width:0.7;stroke-linecap:round;" y2="-44.076" y1="-44.076"/>
  <line x1="78.65" x2="78.65" style="fill:none;stroke:#000000;stroke-width:0.7;stroke-linecap:round;" y2="-44.576" y1="-44.576"/>
  <line x1="85.65" x2="85.65" style="fill:none;stroke:#000000;stroke-width:0.7;stroke-linecap:round;" y2="-86.576" y1="-86.576"/>
  <line x1="81.9" x2="81.9" style="fill:none;stroke:#000000;stroke-width:0.7;stroke-linecap:round;" y2="-83.076" y1="-83.076"/>
  <line x1="2.4" x2="2.4" style="fill:none;stroke:#000000;stroke-width:0.7;stroke-linecap:round;" y2="-52.576" y1="-52.576"/>
  <line x1="7.65" x2="7.65" style="fill:none;stroke:#000000;stroke-width:0.7;stroke-linecap:round;" y2="-52.326" y1="-52.326"/>
  <line x1="2.65" x2="2.65" style="fill:none;stroke:#000000;stroke-width:0.7;stroke-linecap:round;" y2="-9.826" y1="-9.826"/>
  <line x1="5.65" x2="5.65" style="fill:none;stroke:#000000;stroke-width:0.7;stroke-linecap:round;" y2="-21.576" y1="-21.576"/>
  <line x1="64.65" x2="64.65" style="fill:none;stroke:#000000;stroke-width:0.7;stroke-linecap:round;" y2="-52.326" y1="-52.326"/>
  <line x1="74.15" x2="74.15" style="fill:none;stroke:#000000;stroke-width:0.7;stroke-linecap:round;" y2="-49.826" y1="-49.826"/>
  <line x1="81.9" x2="81.9" style="fill:none;stroke:#000000;stroke-width:0.7;stroke-linecap:round;" y2="-54.326" y1="-54.326"/>
  <line x1="72.4" x2="72.4" style="fill:none;stroke:#000000;stroke-width:0.7;stroke-linecap:round;" y2="-61.326" y1="-61.326"/>
  <line x1="64.15" x2="64.15" style="fill:none;stroke:#000000;stroke-width:0.7;stroke-linecap:round;" y2="-65.076" y1="-65.076"/>
  <line x1="51.15" x2="51.15" style="fill:none;stroke:#000000;stroke-width:0.7;stroke-linecap:round;" y2="-68.826" y1="-68.826"/>
  <line x1="58.4" x2="58.4" style="fill:none;stroke:#000000;stroke-width:0.7;stroke-linecap:round;" y2="-76.326" y1="-76.326"/>
  <line x1="24.9" x2="24.9" style="fill:none;stroke:#000000;stroke-width:0.7;stroke-linecap:round;" y2="-69.326" y1="-69.326"/>
  <line x1="19.65" x2="19.65" style="fill:none;stroke:#000000;stroke-width:0.7;stroke-linecap:round;" y2="-73.076" y1="-73.076"/>
  <line x1="8.4" x2="8.4" style="fill:none;stroke:#000000;stroke-width:0.7;stroke-linecap:round;" y2="-69.076" y1="-69.076"/>
  <line x1="2.9" x2="2.9" style="fill:none;stroke:#000000;stroke-width:0.7;stroke-linecap:round;" y2="-77.076" y1="-77.076"/>
  <line x1="2.833" x2="2.833" style="fill:none;stroke:#000000;stroke-width:0.7;stroke-linecap:round;" y2="-60.726" y1="-60.726"/>
  <line x1="12.9" x2="12.9" style="fill:none;stroke:#000000;stroke-width:0.7;stroke-linecap:round;" y2="-50.076" y1="-50.076"/>
  <line x1="9.15" x2="9.15" style="fill:none;stroke:#000000;stroke-width:0.7;stroke-linecap:round;" y2="-57.826" y1="-57.826"/>
  <line x1="16.15" x2="16.15" style="fill:none;stroke:#000000;stroke-width:0.7;stroke-linecap:round;" y2="-58.076" y1="-58.076"/>
  <line x1="23.4" x2="23.4" style="fill:none;stroke:#000000;stroke-width:0.7;stroke-linecap:round;" y2="-52.326" y1="-52.326"/>
  <line x1="24.15" x2="24.15" style="fill:none;stroke:#000000;stroke-width:0.7;stroke-linecap:round;" y2="-61.826" y1="-61.826"/>
  <line x1="20.65" x2="20.65" style="fill:none;stroke:#000000;stroke-width:0.7;stroke-linecap:round;" y2="-58.826" y1="-58.826"/>
  <line x1="15.4" x2="15.4" style="fill:none;stroke:#000000;stroke-width:0.7;stroke-linecap:round;" y2="-68.576" y1="-68.576"/>
  <line x1="8.65" x2="8.65" style="fill:none;stroke:#000000;stroke-width:0.7;stroke-linecap:round;" y2="-79.826" y1="-79.826"/>
  <line x1="14.9" x2="14.9" style="fill:none;stroke:#000000;stroke-width:0.7;stroke-linecap:round;" y2="-81.576" y1="-81.576"/>
  <line x1="22.65" x2="22.65" style="fill:none;stroke:#000000;stroke-width:0.7;stroke-linecap:round;" y2="-83.326" y1="-83.326"/>
  <line x1="34.9" x2="34.9" style="fill:none;stroke:#000000;stroke-width:0.7;stroke-linecap:round;" y2="-39.826" y1="-39.826"/>
  <line x1="20.9" x2="20.9" style="fill:none;stroke:#000000;stroke-width:0.7;stroke-linecap:round;" y2="-40.326" y1="-40.326"/>
  <line x1="10.15" x2="10.15" style="fill:none;stroke:#000000;stroke-width:0.7;stroke-linecap:round;" y2="-43.326" y1="-43.326"/>
  <line x1="14.9" x2="14.9" style="fill:none;stroke:#000000;stroke-width:0.7;stroke-linecap:round;" y2="-33.576" y1="-33.576"/>
  <line x1="38.9" x2="38.9" style="fill:none;stroke:#000000;stroke-width:0.7;stroke-linecap:round;" y2="-30.826" y1="-30.826"/>
  <line x1="45.65" x2="45.65" style="fill:none;stroke:#000000;stroke-width:0.7;stroke-linecap:round;" y2="-36.576" y1="-36.576"/>
  <line x1="58.4" x2="58.4" style="fill:none;stroke:#000000;stroke-width:0.7;stroke-linecap:round;" y2="-33.326" y1="-33.326"/>
  <line x1="63.9" x2="63.9" style="fill:none;stroke:#000000;stroke-width:0.7;stroke-linecap:round;" y2="-40.326" y1="-40.326"/>
  <line x1="78.4" x2="78.4" style="fill:none;stroke:#000000;stroke-width:0.7;stroke-linecap:round;" y2="-39.326" y1="-39.326"/>
  <line x1="81.4" x2="81.4" style="fill:none;stroke:#000000;stroke-width:0.7;stroke-linecap:round;" y2="-29.326" y1="-29.326"/>
  <line x1="64.15" x2="64.15" style="fill:none;stroke:#000000;stroke-width:0.7;stroke-linecap:round;" y2="-22.826" y1="-22.826"/>
  <line x1="76.9" x2="76.9" style="fill:none;stroke:#000000;stroke-width:0.7;stroke-linecap:round;" y2="-17.576" y1="-17.576"/>
  <line x1="81.15" x2="81.15" style="fill:none;stroke:#000000;stroke-width:0.7;stroke-linecap:round;" y2="-7.576" y1="-7.576"/>
  <line x1="55.9" x2="55.9" style="fill:none;stroke:#000000;stroke-width:0.7;stroke-linecap:round;" y2="-7.076" y1="-7.076"/>
  <line x1="48.9" x2="48.9" style="fill:none;stroke:#000000;stroke-width:0.7;stroke-linecap:round;" y2="-8.326" y1="-8.326"/>
  <line x1="24.65" x2="24.65" style="fill:none;stroke:#000000;stroke-width:0.7;stroke-linecap:round;" y2="-9.326" y1="-9.326"/>
  <line x1="6.583" x2="6.583" style="fill:none;stroke:#000000;stroke-width:0.7;stroke-linecap:round;" y2="-4.742" y1="-4.742"/>
  <line x1="8.15" x2="8.15" style="fill:none;stroke:#000000;stroke-width:0.7;stroke-linecap:round;" y2="-14.576" y1="-14.576"/>
  <line x1="15.15" x2="15.15" style="fill:none;stroke:#000000;stroke-width:0.7;stroke-linecap:round;" y2="-20.576" y1="-20.576"/>
  <line x1="33.15" x2="33.15" style="fill:none;stroke:#000000;stroke-width:0.7;stroke-linecap:round;" y2="-17.576" y1="-17.576"/>
  <line x1="45.15" x2="45.15" style="fill:none;stroke:#000000;stroke-width:0.7;stroke-linecap:round;" y2="-17.076" y1="-17.076"/>
  <line x1="46.9" x2="46.9" style="fill:none;stroke:#000000;stroke-width:0.7;stroke-linecap:round;" y2="-26.076" y1="-26.076"/>
  <line x1="52.4" x2="52.4" style="fill:none;stroke:#000000;stroke-width:0.7;stroke-linecap:round;" y2="-17.826" y1="-17.826"/>
  <line x1="68.583" x2="68.583" style="fill:none;stroke:#000000;stroke-width:0.7;stroke-linecap:round;" y2="-10.061" y1="-10.061"/>
  <line x1="72.984" x2="72.984" style="fill:none;stroke:#000000;stroke-width:0.7;stroke-linecap:round;" y2="-5.66" y1="-5.66"/>
  <line x1="64.067" x2="64.067" style="fill:none;stroke:#000000;stroke-width:0.7;stroke-linecap:round;" y2="-3.076" y1="-3.076"/>
  <line x1="63.15" x2="63.15" style="fill:none;stroke:#000000;stroke-width:0.7;stroke-linecap:round;" y2="-12.326" y1="-12.326"/>
  <line x1="58.15" x2="58.15" style="fill:none;stroke:#000000;stroke-width:0.7;stroke-linecap:round;" y2="-14.826" y1="-14.826"/>
  <line x1="57.65" x2="57.65" style="fill:none;stroke:#000000;stroke-width:0.7;stroke-linecap:round;" y2="-20.576" y1="-20.576"/>
  <line x1="53.65" x2="53.65" style="fill:none;stroke:#000000;stroke-width:0.7;stroke-linecap:round;" y2="-28.326" y1="-28.326"/>
  <line x1="42.4" x2="42.4" style="fill:none;stroke:#000000;stroke-width:0.7;stroke-linecap:round;" y2="-44.326" y1="-44.326"/>
  <line x1="38.9" x2="38.9" style="fill:none;stroke:#000000;stroke-width:0.7;stroke-linecap:round;" y2="-57.826" y1="-57.826"/>
  <line x1="32.9" x2="32.9" style="fill:none;stroke:#000000;stroke-width:0.7;stroke-linecap:round;" y2="-66.576" y1="-66.576"/>
  <line x1="39.65" x2="39.65" style="fill:none;stroke:#000000;stroke-width:0.7;stroke-linecap:round;" y2="-68.326" y1="-68.326"/>
  <line x1="44.9" x2="44.9" style="fill:none;stroke:#000000;stroke-width:0.7;stroke-linecap:round;" y2="-72.826" y1="-72.826"/>
  <line x1="32.65" x2="32.65" style="fill:none;stroke:#000000;stroke-width:0.7;stroke-linecap:round;" y2="-76.576" y1="-76.576"/>
  <line x1="44.65" x2="44.65" style="fill:none;stroke:#000000;stroke-width:0.7;stroke-linecap:round;" y2="-84.326" y1="-84.326"/>
  <line x1="10.9" x2="13.15" style="fill:none;stroke:#000000;stroke-width:0.3;" y2="-77.201" y1="-79.826"/>
  <line x1="11.025" x2="14.4" style="fill:none;stroke:#000000;stroke-width:0.3;" y2="-83.451" y1="-83.576"/>
  <line x1="21.9" x2="24.588" style="fill:none;stroke:#000000;stroke-width:0.3;" y2="-78.344" y1="-80.389"/>
  <line x1="18.4" x2="16.275" style="fill:none;stroke:#000000;stroke-width:0.3;" y2="-78.701" y1="-81.451"/>
  <line x1="20.025" x2="17.275" style="fill:none;stroke:#000000;stroke-width:0.3;" y2="-85.951" y1="-84.201"/>
  <line x1="25.275" x2="23.025" style="fill:none;stroke:#000000;stroke-width:0.3;" y2="-85.451" y1="-86.951"/>
  <line x1="26.9" x2="27.025" style="fill:none;stroke:#000000;stroke-width:0.3;" y2="-80.451" y1="-83.576"/>
  <line x1="30.275" x2="32.775" style="fill:none;stroke:#000000;stroke-width:0.3;" y2="-84.893" y1="-86.143"/>
  <line x1="36.65" x2="38.65" style="fill:none;stroke:#000000;stroke-width:0.3;" y2="-86.884" y1="-84.509"/>
  <line x1="41.4" x2="44.15" style="fill:none;stroke:#000000;stroke-width:0.3;" y2="-81.326" y1="-83.576"/>
  <line x1="37.275" x2="37.9" style="fill:none;stroke:#000000;stroke-width:0.3;" y2="-76.951" y1="-79.951"/>
  <line x1="33.025" x2="30.525" style="fill:none;stroke:#000000;stroke-width:0.3;" y2="-77.326" y1="-79.951"/>
  <line x1="44.025" x2="41.9" style="fill:none;stroke:#000000;stroke-width:0.3;" y2="-74.326" y1="-76.951"/>
  <line x1="40.525" x2="43.9" style="fill:none;stroke:#000000;stroke-width:0.3;" y2="-69.451" y1="-70.576"/>
  <line x1="36.226" x2="32.923" style="fill:none;stroke:#000000;stroke-width:0.3;" y2="-74.709" y1="-72.235"/>
  <line x1="32.775" x2="29.9" style="fill:none;stroke:#000000;stroke-width:0.3;" y2="-68.451" y1="-69.826"/>
  <line x1="36.775" x2="35.775" style="fill:none;stroke:#000000;stroke-width:0.3;" y2="-65.326" y1="-68.701"/>
  <line x1="41.525" x2="43.275" style="fill:none;stroke:#000000;stroke-width:0.3;" y2="-62.826" y1="-65.576"/>
  <line x1="43.525" x2="40.775" style="fill:none;stroke:#000000;stroke-width:0.3;" y2="-56.576" y1="-58.201"/>
  <line x1="39.025" x2="35.525" style="fill:none;stroke:#000000;stroke-width:0.3;" y2="-61.451" y1="-60.951"/>
  <line x1="40.4" x2="44.025" style="fill:none;stroke:#000000;stroke-width:0.3;" y2="-51.701" y1="-51.951"/>
  <line x1="38.925" x2="40.175" style="fill:none;stroke:#000000;stroke-width:0.3;" y2="-46.96" y1="-49.96"/>
  <line x1="7.775" x2="5.4" style="fill:none;stroke:#000000;stroke-width:0.3;" y2="-80.692" y1="-83.192"/>
  <line x1="5.275" x2="9.275" style="fill:none;stroke:#000000;stroke-width:0.3;" y2="-76.826" y1="-77.951"/>
  <line x1="4.275" x2="5.4" style="fill:none;stroke:#000000;stroke-width:0.3;" y2="-70.576" y1="-74.201"/>
  <line x1="6.025" x2="3.025" style="fill:none;stroke:#000000;stroke-width:0.3;" y2="-65.201" y1="-67.576"/>
  <line x1="6.034" x2="5.659" style="fill:none;stroke:#000000;stroke-width:0.3;" y2="-58.293" y1="-61.918"/>
  <line x1="3.275" x2="6.15" style="fill:none;stroke:#000000;stroke-width:0.3;" y2="-53.076" y1="-55.076"/>
  <line x1="3.65" x2="2.025" style="fill:none;stroke:#000000;stroke-width:0.3;" y2="-46.326" y1="-49.326"/>
  <line x1="1.9" x2="5.15" style="fill:none;stroke:#000000;stroke-width:0.3;" y2="-85.951" y1="-86.701"/>
  <line x1="10.025" x2="8.9" style="fill:none;stroke:#000000;stroke-width:0.3;" y2="-49.201" y1="-45.701"/>
  <line x1="13.608" x2="16.733" style="fill:none;stroke:#000000;stroke-width:0.3;" y2="-47.41" y1="-45.285"/>
  <line x1="10.15" x2="13.525" style="fill:none;stroke:#000000;stroke-width:0.3;" y2="-53.576" y1="-52.951"/>
  <line x1="8.275" x2="11.9" style="fill:none;stroke:#000000;stroke-width:0.3;" y2="-63.951" y1="-64.076"/>
  <line x1="12.4" x2="8.275" style="fill:none;stroke:#000000;stroke-width:0.3;" y2="-73.201" y1="-73.451"/>
  <line x1="12.9" x2="10.9" style="fill:none;stroke:#000000;stroke-width:0.3;" y2="-67.326" y1="-70.326"/>
  <line x1="15.9" x2="18.4" style="fill:none;stroke:#000000;stroke-width:0.3;" y2="-64.701" y1="-66.701"/>
  <line x1="15.9" x2="17.025" style="fill:none;stroke:#000000;stroke-width:0.3;" y2="-70.576" y1="-74.326"/>
  <line x1="27.624" x2="31.389" style="fill:none;stroke:#000000;stroke-width:0.3;" y2="-51.75" y1="-52.826"/>
  <line x1="19.981" x2="23.275" style="fill:none;stroke:#000000;stroke-width:0.3;" y2="-74.701" y1="-76.039"/>
  <line x1="27.15" x2="28.733" style="fill:none;stroke:#000000;stroke-width:0.3;" y2="-71.431" y1="-74.701"/>
  <line x1="23.025" x2="20.4" style="fill:none;stroke:#000000;stroke-width:0.3;" y2="-67.951" y1="-70.701"/>
  <line x1="23.525" x2="26.9" style="fill:none;stroke:#000000;stroke-width:0.3;" y2="-66.201" y1="-65.701"/>
  <line x1="29.65" x2="32.9" style="fill:none;stroke:#000000;stroke-width:0.3;" y2="-62.826" y1="-64.826"/>
  <line x1="31.525" x2="29.4" style="fill:none;stroke:#000000;stroke-width:0.3;" y2="-56.451" y1="-59.326"/>
  <line x1="36.525" x2="35.025" style="fill:none;stroke:#000000;stroke-width:0.3;" y2="-56.326" y1="-53.076"/>
  <line x1="33.092" x2="35.842" style="fill:none;stroke:#000000;stroke-width:0.3;" y2="-49.159" y1="-46.034"/>
  <line x1="27.9" x2="26.15" style="fill:none;stroke:#000000;stroke-width:0.3;" y2="-49.826" y1="-46.826"/>
  <line x1="21.733" x2="22.858" style="fill:none;stroke:#000000;stroke-width:0.3;" y2="-50.067" y1="-46.942"/>
  <line x1="21.525" x2="24.775" style="fill:none;stroke:#000000;stroke-width:0.3;" y2="-54.784" y1="-56.159"/>
  <line x1="25.393" x2="26.693" style="fill:none;stroke:#000000;stroke-width:0.3;" y2="-61.502" y1="-57.985"/>
  <line x1="21.4" x2="18.275" style="fill:none;stroke:#000000;stroke-width:0.3;" y2="-60.576" y1="-62.701"/>
  <line x1="16.692" x2="19.067" style="fill:none;stroke:#000000;stroke-width:0.3;" y2="-52.41" y1="-55.535"/>
  <line x1="53.938" x2="56.188" style="fill:none;stroke:#000000;stroke-width:0.3;" y2="-77.201" y1="-79.826"/>
  <line x1="54.063" x2="57.438" style="fill:none;stroke:#000000;stroke-width:0.3;" y2="-83.451" y1="-83.576"/>
  <line x1="64.938" x2="67.626" style="fill:none;stroke:#000000;stroke-width:0.3;" y2="-78.344" y1="-80.389"/>
  <line x1="61.438" x2="59.313" style="fill:none;stroke:#000000;stroke-width:0.3;" y2="-78.701" y1="-81.451"/>
  <line x1="63.063" x2="60.313" style="fill:none;stroke:#000000;stroke-width:0.3;" y2="-85.951" y1="-84.201"/>
  <line x1="68.313" x2="66.063" style="fill:none;stroke:#000000;stroke-width:0.3;" y2="-85.451" y1="-86.951"/>
  <line x1="69.938" x2="70.063" style="fill:none;stroke:#000000;stroke-width:0.3;" y2="-80.451" y1="-83.576"/>
  <line x1="73.313" x2="75.813" style="fill:none;stroke:#000000;stroke-width:0.3;" y2="-84.893" y1="-86.143"/>
  <line x1="79.688" x2="81.688" style="fill:none;stroke:#000000;stroke-width:0.3;" y2="-86.884" y1="-84.509"/>
  <line x1="84.438" x2="87.188" style="fill:none;stroke:#000000;stroke-width:0.3;" y2="-81.326" y1="-83.576"/>
  <line x1="80.313" x2="80.938" style="fill:none;stroke:#000000;stroke-width:0.3;" y2="-76.951" y1="-79.951"/>
  <line x1="76.063" x2="73.563" style="fill:none;stroke:#000000;stroke-width:0.3;" y2="-77.326" y1="-79.951"/>
  <line x1="87.063" x2="84.938" style="fill:none;stroke:#000000;stroke-width:0.3;" y2="-74.326" y1="-76.951"/>
  <line x1="83.563" x2="86.938" style="fill:none;stroke:#000000;stroke-width:0.3;" y2="-69.451" y1="-70.576"/>
  <line x1="79.688" x2="75.563" style="fill:none;stroke:#000000;stroke-width:0.3;" y2="-73.451" y1="-73.326"/>
  <line x1="75.813" x2="72.938" style="fill:none;stroke:#000000;stroke-width:0.3;" y2="-68.451" y1="-69.826"/>
  <line x1="79.813" x2="78.813" style="fill:none;stroke:#000000;stroke-width:0.3;" y2="-65.326" y1="-68.701"/>
  <line x1="84.563" x2="86.313" style="fill:none;stroke:#000000;stroke-width:0.3;" y2="-62.826" y1="-65.576"/>
  <line x1="86.563" x2="83.813" style="fill:none;stroke:#000000;stroke-width:0.3;" y2="-56.576" y1="-58.201"/>
  <line x1="82.063" x2="78.563" style="fill:none;stroke:#000000;stroke-width:0.3;" y2="-61.451" y1="-60.951"/>
  <line x1="83.438" x2="87.063" style="fill:none;stroke:#000000;stroke-width:0.3;" y2="-51.701" y1="-51.951"/>
  <line x1="81.962" x2="83.212" style="fill:none;stroke:#000000;stroke-width:0.3;" y2="-46.96" y1="-49.96"/>
  <line x1="50.813" x2="48.438" style="fill:none;stroke:#000000;stroke-width:0.3;" y2="-81.826" y1="-84.326"/>
  <line x1="48.313" x2="52.313" style="fill:none;stroke:#000000;stroke-width:0.3;" y2="-76.826" y1="-77.951"/>
  <line x1="47.313" x2="48.438" style="fill:none;stroke:#000000;stroke-width:0.3;" y2="-70.576" y1="-74.201"/>
  <line x1="49.063" x2="46.063" style="fill:none;stroke:#000000;stroke-width:0.3;" y2="-65.201" y1="-67.576"/>
  <line x1="48.505" x2="50.195" style="fill:none;stroke:#000000;stroke-width:0.3;" y2="-57.271" y1="-60.5"/>
  <line x1="46.313" x2="49.188" style="fill:none;stroke:#000000;stroke-width:0.3;" y2="-53.076" y1="-55.076"/>
  <line x1="48.389" x2="46.764" style="fill:none;stroke:#000000;stroke-width:0.3;" y2="-46.326" y1="-49.326"/>
  <line x1="44.938" x2="48.188" style="fill:none;stroke:#000000;stroke-width:0.3;" y2="-85.951" y1="-86.701"/>
  <line x1="53.913" x2="52.788" style="fill:none;stroke:#000000;stroke-width:0.3;" y2="-47.784" y1="-44.284"/>
  <line x1="57.813" x2="60.938" style="fill:none;stroke:#000000;stroke-width:0.3;" y2="-49.701" y1="-47.576"/>
  <line x1="53.188" x2="56.563" style="fill:none;stroke:#000000;stroke-width:0.3;" y2="-53.576" y1="-52.951"/>
  <line x1="56.054" x2="55.054" style="fill:none;stroke:#000000;stroke-width:0.3;" y2="-56.576" y1="-60.201"/>
  <line x1="51.478" x2="54.82" style="fill:none;stroke:#000000;stroke-width:0.3;" y2="-64.612" y1="-63.203"/>
  <line x1="55.438" x2="51.313" style="fill:none;stroke:#000000;stroke-width:0.3;" y2="-73.201" y1="-73.451"/>
  <line x1="55.938" x2="53.938" style="fill:none;stroke:#000000;stroke-width:0.3;" y2="-67.326" y1="-70.326"/>
  <line x1="58.938" x2="61.438" style="fill:none;stroke:#000000;stroke-width:0.3;" y2="-64.701" y1="-66.701"/>
  <line x1="58.938" x2="60.063" style="fill:none;stroke:#000000;stroke-width:0.3;" y2="-70.576" y1="-74.326"/>
  <line x1="62.858" x2="66.301" style="fill:none;stroke:#000000;stroke-width:0.3;" y2="-75.422" y1="-74.537"/>
  <line x1="70.887" x2="69.044" style="fill:none;stroke:#000000;stroke-width:0.3;" y2="-71.328" y1="-74.46"/>
  <line x1="66.063" x2="63.438" style="fill:none;stroke:#000000;stroke-width:0.3;" y2="-67.951" y1="-70.701"/>
  <line x1="66.563" x2="69.938" style="fill:none;stroke:#000000;stroke-width:0.3;" y2="-66.201" y1="-65.701"/>
  <line x1="72.688" x2="75.938" style="fill:none;stroke:#000000;stroke-width:0.3;" y2="-62.826" y1="-64.826"/>
  <line x1="75.751" x2="73.626" style="fill:none;stroke:#000000;stroke-width:0.3;" y2="-56.181" y1="-59.056"/>
  <line x1="79.563" x2="78.063" style="fill:none;stroke:#000000;stroke-width:0.3;" y2="-56.326" y1="-53.076"/>
  <line x1="76.413" x2="79.163" style="fill:none;stroke:#000000;stroke-width:0.3;" y2="-49.442" y1="-46.317"/>
  <line x1="74.938" x2="70.938" style="fill:none;stroke:#000000;stroke-width:0.3;" y2="-52.451" y1="-52.451"/>
  <line x1="70.938" x2="69.188" style="fill:none;stroke:#000000;stroke-width:0.3;" y2="-49.826" y1="-46.826"/>
  <line x1="64.9" x2="66.025" style="fill:none;stroke:#000000;stroke-width:0.3;" y2="-49.701" y1="-46.576"/>
  <line x1="65.9" x2="69.15" style="fill:none;stroke:#000000;stroke-width:0.3;" y2="-54.201" y1="-55.576"/>
  <line x1="10.458" x2="13.708" style="fill:none;stroke:#000000;stroke-width:0.3;" y2="-58.535" y1="-59.91"/>
  <line x1="70.012" x2="68.312" style="fill:none;stroke:#000000;stroke-width:0.3;" y2="-61.469" y1="-58.126"/>
  <line x1="64.438" x2="61.313" style="fill:none;stroke:#000000;stroke-width:0.3;" y2="-60.576" y1="-62.701"/>
  <line x1="59.563" x2="61.938" style="fill:none;stroke:#000000;stroke-width:0.3;" y2="-53.576" y1="-56.701"/>
  <line x1="10.934" x2="13.184" style="fill:none;stroke:#000000;stroke-width:0.3;" y2="-34.197" y1="-36.822"/>
  <line x1="11.059" x2="14.434" style="fill:none;stroke:#000000;stroke-width:0.3;" y2="-40.447" y1="-40.572"/>
  <line x1="21.934" x2="24.621" style="fill:none;stroke:#000000;stroke-width:0.3;" y2="-35.339" y1="-37.384"/>
  <line x1="18.434" x2="16.309" style="fill:none;stroke:#000000;stroke-width:0.3;" y2="-35.697" y1="-38.447"/>
  <line x1="20.059" x2="17.309" style="fill:none;stroke:#000000;stroke-width:0.3;" y2="-43.797" y1="-42.047"/>
  <line x1="25.309" x2="23.059" style="fill:none;stroke:#000000;stroke-width:0.3;" y2="-42.447" y1="-43.947"/>
  <line x1="28.067" x2="26.43" style="fill:none;stroke:#000000;stroke-width:0.3;" y2="-37.907" y1="-40.572"/>
  <line x1="30.309" x2="32.809" style="fill:none;stroke:#000000;stroke-width:0.3;" y2="-41.889" y1="-43.139"/>
  <line x1="36.684" x2="38.684" style="fill:none;stroke:#000000;stroke-width:0.3;" y2="-43.88" y1="-41.505"/>
  <line x1="41.434" x2="44.184" style="fill:none;stroke:#000000;stroke-width:0.3;" y2="-38.322" y1="-40.572"/>
  <line x1="37.309" x2="37.934" style="fill:none;stroke:#000000;stroke-width:0.3;" y2="-33.947" y1="-36.947"/>
  <line x1="33.059" x2="30.559" style="fill:none;stroke:#000000;stroke-width:0.3;" y2="-34.322" y1="-36.947"/>
  <line x1="44.059" x2="41.934" style="fill:none;stroke:#000000;stroke-width:0.3;" y2="-31.322" y1="-33.947"/>
  <line x1="40.559" x2="43.934" style="fill:none;stroke:#000000;stroke-width:0.3;" y2="-26.447" y1="-27.572"/>
  <line x1="36.605" x2="32.648" style="fill:none;stroke:#000000;stroke-width:0.3;" y2="-29.771" y1="-30.941"/>
  <line x1="32.809" x2="29.934" style="fill:none;stroke:#000000;stroke-width:0.3;" y2="-25.447" y1="-26.822"/>
  <line x1="36.809" x2="35.809" style="fill:none;stroke:#000000;stroke-width:0.3;" y2="-22.322" y1="-25.697"/>
  <line x1="41.559" x2="43.309" style="fill:none;stroke:#000000;stroke-width:0.3;" y2="-19.822" y1="-22.572"/>
  <line x1="43.559" x2="40.809" style="fill:none;stroke:#000000;stroke-width:0.3;" y2="-13.572" y1="-15.197"/>
  <line x1="39.059" x2="35.559" style="fill:none;stroke:#000000;stroke-width:0.3;" y2="-18.447" y1="-17.947"/>
  <line x1="40.434" x2="44.059" style="fill:none;stroke:#000000;stroke-width:0.3;" y2="-8.697" y1="-8.947"/>
  <line x1="39.812" x2="41.062" style="fill:none;stroke:#000000;stroke-width:0.3;" y2="-2.435" y1="-5.435"/>
  <line x1="7.809" x2="5.434" style="fill:none;stroke:#000000;stroke-width:0.3;" y2="-38.822" y1="-41.322"/>
  <line x1="5.309" x2="9.309" style="fill:none;stroke:#000000;stroke-width:0.3;" y2="-33.822" y1="-34.947"/>
  <line x1="4.309" x2="5.434" style="fill:none;stroke:#000000;stroke-width:0.3;" y2="-27.572" y1="-31.197"/>
  <line x1="6.059" x2="3.059" style="fill:none;stroke:#000000;stroke-width:0.3;" y2="-22.197" y1="-24.572"/>
  <line x1="6.067" x2="5.692" style="fill:none;stroke:#000000;stroke-width:0.3;" y2="-15.289" y1="-18.914"/>
  <line x1="3.309" x2="6.184" style="fill:none;stroke:#000000;stroke-width:0.3;" y2="-10.072" y1="-12.072"/>
  <line x1="3.684" x2="2.059" style="fill:none;stroke:#000000;stroke-width:0.3;" y2="-3.322" y1="-6.322"/>
  <line x1="1.934" x2="5.184" style="fill:none;stroke:#000000;stroke-width:0.3;" y2="-42.947" y1="-43.697"/>
  <line x1="10.142" x2="9.017" style="fill:none;stroke:#000000;stroke-width:0.3;" y2="-5.593" y1="-2.093"/>
  <line x1="15.163" x2="18.288" style="fill:none;stroke:#000000;stroke-width:0.3;" y2="-6.009" y1="-3.884"/>
  <line x1="10.184" x2="13.559" style="fill:none;stroke:#000000;stroke-width:0.3;" y2="-10.572" y1="-9.947"/>
  <line x1="14.184" x2="11.526" style="fill:none;stroke:#000000;stroke-width:0.3;" y2="-14.536" y1="-17.197"/>
  <line x1="8.309" x2="11.934" style="fill:none;stroke:#000000;stroke-width:0.3;" y2="-19.813" y1="-19.938"/>
  <line x1="12.434" x2="8.309" style="fill:none;stroke:#000000;stroke-width:0.3;" y2="-30.197" y1="-30.447"/>
  <line x1="12.934" x2="10.934" style="fill:none;stroke:#000000;stroke-width:0.3;" y2="-24.322" y1="-27.322"/>
  <line x1="15.934" x2="18.434" style="fill:none;stroke:#000000;stroke-width:0.3;" y2="-21.697" y1="-23.697"/>
  <line x1="15.934" x2="17.059" style="fill:none;stroke:#000000;stroke-width:0.3;" y2="-27.572" y1="-31.322"/>
  <line x1="19.809" x2="22.947" style="fill:none;stroke:#000000;stroke-width:0.3;" y2="-30.651" y1="-32.322"/>
  <line x1="27.892" x2="26.029" style="fill:none;stroke:#000000;stroke-width:0.3;" y2="-28.342" y1="-31.461"/>
  <line x1="21.372" x2="20.434" style="fill:none;stroke:#000000;stroke-width:0.3;" y2="-24.947" y1="-28.631"/>
  <line x1="23.559" x2="26.934" style="fill:none;stroke:#000000;stroke-width:0.3;" y2="-23.197" y1="-22.697"/>
  <line x1="29.684" x2="32.934" style="fill:none;stroke:#000000;stroke-width:0.3;" y2="-19.822" y1="-21.822"/>
  <line x1="31.559" x2="29.434" style="fill:none;stroke:#000000;stroke-width:0.3;" y2="-12.597" y1="-15.472"/>
  <line x1="36.559" x2="35.059" style="fill:none;stroke:#000000;stroke-width:0.3;" y2="-13.322" y1="-10.072"/>
  <line x1="33.079" x2="35.829" style="fill:none;stroke:#000000;stroke-width:0.3;" y2="-6.384" y1="-3.259"/>
  <line x1="31.934" x2="27.934" style="fill:none;stroke:#000000;stroke-width:0.3;" y2="-8.597" y1="-8.597"/>
  <line x1="28.038" x2="26.288" style="fill:none;stroke:#000000;stroke-width:0.3;" y2="-5.884" y1="-2.884"/>
  <line x1="21.3" x2="22.425" style="fill:none;stroke:#000000;stroke-width:0.3;" y2="-7.338" y1="-4.213"/>
  <line x1="21.913" x2="25.163" style="fill:none;stroke:#000000;stroke-width:0.3;" y2="-11.968" y1="-13.343"/>
  <line x1="25.554" x2="26.825" style="fill:none;stroke:#000000;stroke-width:0.3;" y2="-19.054" y1="-15.526"/>
  <line x1="21.434" x2="18.309" style="fill:none;stroke:#000000;stroke-width:0.3;" y2="-17.572" y1="-19.697"/>
  <line x1="16.559" x2="18.934" style="fill:none;stroke:#000000;stroke-width:0.3;" y2="-10.572" y1="-13.697"/>
  <line x1="53.992" x2="56.242" style="fill:none;stroke:#000000;stroke-width:0.3;" y2="-34.23" y1="-36.855"/>
  <line x1="54.117" x2="57.492" style="fill:none;stroke:#000000;stroke-width:0.3;" y2="-40.48" y1="-40.605"/>
  <line x1="64.992" x2="67.68" style="fill:none;stroke:#000000;stroke-width:0.3;" y2="-35.373" y1="-37.418"/>
  <line x1="61.492" x2="59.367" style="fill:none;stroke:#000000;stroke-width:0.3;" y2="-35.73" y1="-38.48"/>
  <line x1="63.117" x2="60.367" style="fill:none;stroke:#000000;stroke-width:0.3;" y2="-44.114" y1="-42.364"/>
  <line x1="68.367" x2="66.117" style="fill:none;stroke:#000000;stroke-width:0.3;" y2="-42.48" y1="-43.98"/>
  <line x1="71.628" x2="70.117" style="fill:none;stroke:#000000;stroke-width:0.3;" y2="-37.48" y1="-40.219"/>
  <line x1="73.367" x2="75.867" style="fill:none;stroke:#000000;stroke-width:0.3;" y2="-41.922" y1="-43.172"/>
  <line x1="79.742" x2="81.742" style="fill:none;stroke:#000000;stroke-width:0.3;" y2="-43.914" y1="-41.539"/>
  <line x1="84.492" x2="87.242" style="fill:none;stroke:#000000;stroke-width:0.3;" y2="-38.355" y1="-40.605"/>
  <line x1="80.367" x2="80.992" style="fill:none;stroke:#000000;stroke-width:0.3;" y2="-33.98" y1="-36.98"/>
  <line x1="76.117" x2="73.617" style="fill:none;stroke:#000000;stroke-width:0.3;" y2="-34.355" y1="-36.98"/>
  <line x1="87.117" x2="84.992" style="fill:none;stroke:#000000;stroke-width:0.3;" y2="-31.355" y1="-33.98"/>
  <line x1="83.617" x2="86.992" style="fill:none;stroke:#000000;stroke-width:0.3;" y2="-26.48" y1="-27.605"/>
  <line x1="79.742" x2="75.617" style="fill:none;stroke:#000000;stroke-width:0.3;" y2="-30.48" y1="-30.355"/>
  <line x1="75.867" x2="72.992" style="fill:none;stroke:#000000;stroke-width:0.3;" y2="-25.48" y1="-26.855"/>
  <line x1="79.867" x2="78.867" style="fill:none;stroke:#000000;stroke-width:0.3;" y2="-22.355" y1="-25.73"/>
  <line x1="84.617" x2="86.367" style="fill:none;stroke:#000000;stroke-width:0.3;" y2="-19.855" y1="-22.605"/>
  <line x1="86.617" x2="83.867" style="fill:none;stroke:#000000;stroke-width:0.3;" y2="-13.606" y1="-15.231"/>
  <line x1="82.117" x2="78.617" style="fill:none;stroke:#000000;stroke-width:0.3;" y2="-18.48" y1="-17.98"/>
  <line x1="83.492" x2="87.117" style="fill:none;stroke:#000000;stroke-width:0.3;" y2="-8.731" y1="-8.981"/>
  <line x1="83.079" x2="84.329" style="fill:none;stroke:#000000;stroke-width:0.3;" y2="-2.635" y1="-5.635"/>
  <line x1="50.867" x2="48.492" style="fill:none;stroke:#000000;stroke-width:0.3;" y2="-38.855" y1="-41.355"/>
  <line x1="48.367" x2="52.367" style="fill:none;stroke:#000000;stroke-width:0.3;" y2="-33.855" y1="-34.98"/>
  <line x1="47.367" x2="48.492" style="fill:none;stroke:#000000;stroke-width:0.3;" y2="-27.605" y1="-31.23"/>
  <line x1="49.117" x2="46.117" style="fill:none;stroke:#000000;stroke-width:0.3;" y2="-22.23" y1="-24.605"/>
  <line x1="49.126" x2="48.751" style="fill:none;stroke:#000000;stroke-width:0.3;" y2="-15.322" y1="-18.947"/>
  <line x1="46.367" x2="49.242" style="fill:none;stroke:#000000;stroke-width:0.3;" y2="-10.106" y1="-12.106"/>
  <line x1="46.742" x2="45.117" style="fill:none;stroke:#000000;stroke-width:0.3;" y2="-3.355" y1="-6.356"/>
  <line x1="44.992" x2="48.242" style="fill:none;stroke:#000000;stroke-width:0.3;" y2="-42.98" y1="-43.73"/>
  <line x1="53.242" x2="52.117" style="fill:none;stroke:#000000;stroke-width:0.3;" y2="-5.709" y1="-2.21"/>
  <line x1="58.055" x2="61.18" style="fill:none;stroke:#000000;stroke-width:0.3;" y2="-5.147" y1="-3.022"/>
  <line x1="53.242" x2="56.617" style="fill:none;stroke:#000000;stroke-width:0.3;" y2="-10.606" y1="-9.981"/>
  <line x1="56.392" x2="53.646" style="fill:none;stroke:#000000;stroke-width:0.3;" y2="-14.661" y1="-17.23"/>
  <line x1="51.367" x2="54.992" style="fill:none;stroke:#000000;stroke-width:0.3;" y2="-20.98" y1="-21.105"/>
  <line x1="55.492" x2="51.367" style="fill:none;stroke:#000000;stroke-width:0.3;" y2="-30.23" y1="-30.48"/>
  <line x1="55.992" x2="53.992" style="fill:none;stroke:#000000;stroke-width:0.3;" y2="-24.355" y1="-27.355"/>
  <line x1="58.992" x2="61.492" style="fill:none;stroke:#000000;stroke-width:0.3;" y2="-21.73" y1="-23.73"/>
  <line x1="58.992" x2="60.117" style="fill:none;stroke:#000000;stroke-width:0.3;" y2="-27.605" y1="-31.355"/>
  <line x1="62.867" x2="66.367" style="fill:none;stroke:#000000;stroke-width:0.3;" y2="-31.73" y1="-32.355"/>
  <line x1="69.894" x2="70.937" style="fill:none;stroke:#000000;stroke-width:0.3;" y2="-28.856" y1="-32.337"/>
  <line x1="66.117" x2="63.492" style="fill:none;stroke:#000000;stroke-width:0.3;" y2="-24.98" y1="-27.73"/>
  <line x1="66.617" x2="69.992" style="fill:none;stroke:#000000;stroke-width:0.3;" y2="-23.23" y1="-22.73"/>
  <line x1="72.742" x2="75.992" style="fill:none;stroke:#000000;stroke-width:0.3;" y2="-19.855" y1="-21.855"/>
  <line x1="74.617" x2="72.492" style="fill:none;stroke:#000000;stroke-width:0.3;" y2="-13.481" y1="-16.355"/>
  <line x1="79.617" x2="78.117" style="fill:none;stroke:#000000;stroke-width:0.3;" y2="-13.356" y1="-10.106"/>
  <line x1="76.076" x2="78.826" style="fill:none;stroke:#000000;stroke-width:0.3;" y2="-6.897" y1="-3.772"/>
  <line x1="74.761" x2="71.224" style="fill:none;stroke:#000000;stroke-width:0.3;" y2="-10.44" y1="-8.573"/>
  <line x1="71.076" x2="69.326" style="fill:none;stroke:#000000;stroke-width:0.3;" y2="-5.251" y1="-2.251"/>
  <line x1="64.867" x2="65.992" style="fill:none;stroke:#000000;stroke-width:0.3;" y2="-8.981" y1="-5.856"/>
  <line x1="64.617" x2="67.867" style="fill:none;stroke:#000000;stroke-width:0.3;" y2="-13.231" y1="-14.606"/>
  <line x1="67.419" x2="70.766" style="fill:none;stroke:#000000;stroke-width:0.3;" y2="-18.215" y1="-16.525"/>
  <line x1="64.492" x2="61.367" style="fill:none;stroke:#000000;stroke-width:0.3;" y2="-17.605" y1="-19.73"/>
  <line x1="59.701" x2="62.076" style="fill:none;stroke:#000000;stroke-width:0.3;" y2="-9.397" y1="-12.522"/>
 </g>
</svg>
