<?xml version="1.0"?>
<!-- Converted with SVG Converter - Version 0.9.6 (Compiled Thu Aug 31 10:01:05 2017) - Copyright (C) 2011 Nokia -->
<svg xmlns="http://www.w3.org/2000/svg" y="0px" width="54.333" baseProfile="tiny" version="1.1" height="54.333" viewBox="1.6 -55.935 54.333 54.333" x="0px" xml:space="preserve" xmlns:xlink="http://www.w3.org/1999/xlink">
 <g>
  <rect y="-55.935" width="54.333" height="54.333" style="fill:none;" x="1.6"/>
  <path style="fill:none;stroke:#000000;stroke-width:0.3;stroke-linecap:square;" d="M42.473-55.711    c0.211,0.059,0.427,0.117,0.648,0.173c5.938,1.5,8.553,5.597,10.125,10.25"/>
  <path style="fill:none;stroke:#000000;stroke-width:0.3;stroke-linecap:square;" d="M41.632-55.913    c0.22,0.069,0.609,0.137,0.841,0.202"/>
  <path style="fill:none;stroke:#000000;stroke-width:0.3;stroke-linecap:square;" d="M53.78-43.912    c-0.189-0.424-0.368-0.882-0.535-1.376"/>
  <path style="fill:none;stroke:#000000;stroke-width:0.3;stroke-linecap:square;" d="M54.744-42.148    c-0.344-0.511-0.667-1.096-0.964-1.764"/>
  <path style="fill:none;stroke:#000000;stroke-width:0.3;stroke-linecap:square;" d="M54.744-42.148    c0.207,0.308,0.422,0.589,0.643,0.846c0.178,0.207,0.355,0.44,0.542,0.616"/>
  <path style="fill:none;stroke:#000000;stroke-width:0.3;stroke-linecap:square;" d="M52.683-37.92    c0.537,0.614,1.139,1.169,1.831,1.681c0.433,0.319,0.892,0.469,1.399,0.757"/>
  <path style="fill:none;stroke:#000000;stroke-width:0.3;stroke-linecap:square;" d="M33.772-55.935    c0.168,0.127,0.435,0.253,0.605,0.379c2.366,1.738,5.006,3.33,7.555,4.204"/>
  <path style="fill:none;stroke:#000000;stroke-width:0.3;stroke-linecap:square;" d="M48.329-46.631    c-0.498-0.982-1.048-1.766-1.817-2.439"/>
  <path style="fill:none;stroke:#000000;stroke-width:0.3;stroke-linecap:square;" d="M46.512-49.07    c-0.985-0.861-2.331-1.54-4.391-2.219c-0.062-0.021-0.125-0.042-0.188-0.063"/>
  <path style="fill:none;stroke:#000000;stroke-width:0.3;stroke-linecap:square;" d="M50.998-40.402    c0.493,0.925,1.042,1.746,1.686,2.482"/>
  <path style="fill:none;stroke:#000000;stroke-width:0.3;stroke-linecap:square;" d="M48.938-45.289    c-0.202-0.486-0.401-0.932-0.609-1.342"/>
  <path style="fill:none;stroke:#000000;stroke-width:0.3;stroke-linecap:square;" d="M50.998-40.402    c-0.406-0.762-0.774-1.595-1.127-2.512c-0.342-0.89-0.641-1.674-0.932-2.375"/>
  <path style="fill:none;stroke:#000000;stroke-width:0.3;stroke-linecap:square;" d="M5.684-34.179    C3.748-34.99,2.13-35.36,1.6-35.469"/>
  <path style="fill:none;stroke:#000000;stroke-width:0.3;stroke-linecap:square;" d="M26.431-8.096    c2.604,2.748,5.066,4.956,6.752,6.058c0.153,0.101,0.269,0.178,0.358,0.239c0.084,0.059,0.206,0.133,0.31,0.197"/>
  <path style="fill:none;stroke:#000000;stroke-width:0.3;stroke-linecap:square;" d="M17.72-19.064    c0.441,0.692,0.91,1.39,1.401,2.088"/>
  <path style="fill:none;stroke:#000000;stroke-width:0.3;stroke-linecap:square;" d="M17.72-19.064    c-1.489-2.334-2.664-4.605-3.287-6.6c-0.021-0.066-0.042-0.131-0.063-0.197"/>
  <path style="fill:none;stroke:#000000;stroke-width:0.3;stroke-linecap:square;" d="M26.431-8.096    c-2.048-2.161-4.184-4.656-6.098-7.21"/>
  <path style="fill:none;stroke:#000000;stroke-width:0.3;stroke-linecap:square;" d="M19.121-16.976    c0.392,0.557,0.797,1.115,1.212,1.67"/>
  <path style="fill:none;stroke:#000000;stroke-width:0.3;stroke-linecap:square;" d="M11.494-30.429    c-0.941-0.94-1.993-1.719-3.054-2.359"/>
  <path style="fill:none;stroke:#000000;stroke-width:0.3;stroke-linecap:square;" d="M14.37-25.86    c-0.611-1.835-1.648-3.34-2.876-4.569"/>
  <path style="fill:none;stroke:#000000;stroke-width:0.3;stroke-linecap:square;" d="M8.439-32.789    c-0.937-0.565-1.878-1.023-2.756-1.391"/>
  <path style="fill:none;stroke:#000000;stroke-width:0.3;stroke-linecap:square;" d="M19.743-26.19    c-0.068-0.164-0.129-0.323-0.185-0.474c-2-5.5-5.25-10.125-10.75-11.25c-0.373-0.076-0.727-0.155-1.065-0.235"/>
  <path style="fill:none;stroke:#000000;stroke-width:0.3;stroke-linecap:square;" d="M41.725-1.609    c-0.151-0.06-0.345-0.134-0.438-0.182"/>
  <path style="fill:none;stroke:#000000;stroke-width:0.3;stroke-linecap:square;" d="M19.743-26.19    c0.737,1.794,2.22,4.372,4.156,7.2"/>
  <path style="fill:none;stroke:#000000;stroke-width:0.3;stroke-linecap:square;" d="M41.287-1.791    c-0.224-0.116-0.489-0.253-0.729-0.373c-0.46-0.23-0.925-0.491-1.397-0.781"/>
  <path style="fill:none;stroke:#000000;stroke-width:0.3;stroke-linecap:square;" d="M29.907-11.258    c2.318,2.634,4.803,5.079,7.227,6.915"/>
  <path style="fill:none;stroke:#000000;stroke-width:0.3;stroke-linecap:square;" d="M28.183-13.287    c-0.69-0.841-1.359-1.689-1.999-2.534"/>
  <path style="fill:none;stroke:#000000;stroke-width:0.3;stroke-linecap:square;" d="M28.183-13.287    c0.562,0.684,1.138,1.363,1.724,2.029"/>
  <path style="fill:none;stroke:#000000;stroke-width:0.3;stroke-linecap:square;" d="M23.899-18.989    c0.706,1.031,1.473,2.096,2.285,3.168"/>
  <path style="fill:none;stroke:#000000;stroke-width:0.3;stroke-linecap:square;" d="M37.134-4.343    c0.682,0.518,1.36,0.986,2.027,1.398"/>
  <path style="fill:none;stroke:#000000;stroke-width:0.3;stroke-linejoin:round;" d="M7.743-38.149    c-3.893-0.924-5.566-2.082-6.011-2.436c-0.087-0.07-0.127-0.147-0.127-0.147c-0.002-0.001-0.003,0.036-0.005,0.034"/>
  <line y1="-50.351" x2="5.148" x1="5.121" y2="-50.373" style="fill:none;stroke:#000000;stroke-width:0.3;stroke-linecap:square;"/>
  <line y1="-55.586" x2="12.194" x1="11.714" y2="-55.92" style="fill:none;stroke:#000000;stroke-width:0.3;stroke-linecap:square;"/>
  <line y1="-55.586" x2="5.148" x1="11.714" y2="-50.373" style="fill:none;stroke:#000000;stroke-width:0.3;stroke-linecap:square;"/>
  <line y1="-55.586" x2="11.683" x1="11.714" y2="-55.601" style="fill:none;stroke:#000000;stroke-width:0.3;stroke-linecap:square;"/>
  <line y1="-47.094" x2="16.228" x1="16.272" y2="-47.053" style="fill:none;stroke:#000000;stroke-width:0.3;stroke-linecap:square;"/>
  <line y1="-47.094" x2="20.683" x1="16.272" y2="-51.185" style="fill:none;stroke:#000000;stroke-width:0.3;stroke-linecap:square;"/>
  <line y1="-51.185" x2="11.714" x1="20.683" y2="-55.586" style="fill:none;stroke:#000000;stroke-width:0.3;stroke-linecap:square;"/>
  <line y1="-39.268" x2="35.017" x1="34.933" y2="-43.518" style="fill:none;stroke:#000000;stroke-width:0.3;stroke-linecap:square;"/>
  <line y1="-42.242" x2="25.1" x1="27.479" y2="-46.018" style="fill:none;stroke:#000000;stroke-width:0.3;stroke-linecap:square;"/>
  <line y1="-46.658" x2="16.871" x1="16.935" y2="-46.664" style="fill:none;stroke:#000000;stroke-width:0.3;stroke-linecap:square;"/>
  <line y1="-37.685" x2="27.479" x1="30.35" y2="-42.242" style="fill:none;stroke:#000000;stroke-width:0.3;stroke-linecap:square;"/>
  <line y1="-37.685" x2="34.603" x1="30.35" y2="-39.154" style="fill:none;stroke:#000000;stroke-width:0.3;stroke-linecap:square;"/>
  <line y1="-39.268" x2="34.603" x1="34.933" y2="-39.154" style="fill:none;stroke:#000000;stroke-width:0.3;stroke-linecap:square;"/>
  <line y1="-46.658" x2="25.1" x1="16.935" y2="-46.018" style="fill:none;stroke:#000000;stroke-width:0.3;stroke-linecap:square;"/>
  <line y1="-42.242" x2="22.937" x1="27.479" y2="-39.166" style="fill:none;stroke:#000000;stroke-width:0.3;stroke-linecap:square;"/>
  <line y1="-39.166" x2="22.933" x1="22.937" y2="-39.164" style="fill:none;stroke:#000000;stroke-width:0.3;stroke-linecap:square;"/>
  <line y1="-42.242" x2="27.517" x1="27.479" y2="-42.268" style="fill:none;stroke:#000000;stroke-width:0.3;stroke-linecap:square;"/>
  <line y1="-48.802" x2="27.502" x1="26.402" y2="-51.153" style="fill:none;stroke:#000000;stroke-width:0.3;stroke-linecap:square;"/>
  <line y1="-48.802" x2="25.1" x1="26.402" y2="-46.018" style="fill:none;stroke:#000000;stroke-width:0.3;stroke-linecap:square;"/>
  <line y1="-51.153" x2="27.517" x1="27.502" y2="-51.185" style="fill:none;stroke:#000000;stroke-width:0.3;stroke-linecap:square;"/>
  <line y1="-48.802" x2="22.75" x1="26.402" y2="-50.323" style="fill:none;stroke:#000000;stroke-width:0.3;stroke-linecap:square;"/>
  <line y1="-48.802" x2="26.433" x1="26.402" y2="-48.789" style="fill:none;stroke:#000000;stroke-width:0.3;stroke-linecap:square;"/>
  <line y1="-51.185" x2="21.105" x1="20.683" y2="-55.935" style="fill:none;stroke:#000000;stroke-width:0.3;stroke-linecap:square;"/>
  <line y1="-51.185" x2="22.75" x1="20.683" y2="-50.323" style="fill:none;stroke:#000000;stroke-width:0.3;stroke-linecap:square;"/>
  <line y1="-34.441" x2="34.933" x1="38.019" y2="-39.268" style="fill:none;stroke:#000000;stroke-width:0.3;stroke-linecap:square;"/>
  <polyline points="38.019,-34.441 38.183,-34.185    41.517,-31.768   " style="fill:none;stroke:#000000;stroke-width:0.3;stroke-linecap:square;"/>
  <line y1="-31.429" x2="30.25" x1="30.215" y2="-33.029" style="fill:none;stroke:#000000;stroke-width:0.3;stroke-linecap:square;"/>
  <line y1="-37.685" x2="30.25" x1="30.35" y2="-33.029" style="fill:none;stroke:#000000;stroke-width:0.3;stroke-linecap:square;"/>
  <line y1="-11.685" x2="41.685" x1="41.683" y2="-11.728" style="fill:none;stroke:#000000;stroke-width:0.3;stroke-linecap:square;"/>
  <line y1="-11.728" x2="41.803" x1="41.685" y2="-14.16" style="fill:none;stroke:#000000;stroke-width:0.3;stroke-linecap:square;"/>
  <line y1="-31.429" x2="30.183" x1="30.215" y2="-29.935" style="fill:none;stroke:#000000;stroke-width:0.3;stroke-linecap:square;"/>
  <line y1="-27.726" x2="30.183" x1="31.058" y2="-29.935" style="fill:none;stroke:#000000;stroke-width:0.3;stroke-linecap:square;"/>
  <line y1="-21.262" x2="36.933" x1="39.339" y2="-25.351" style="fill:none;stroke:#000000;stroke-width:0.3;stroke-linecap:square;"/>
  <line y1="-21.262" x2="41.933" x1="39.339" y2="-16.851" style="fill:none;stroke:#000000;stroke-width:0.3;stroke-linecap:square;"/>
  <line y1="-16.851" x2="41.803" x1="41.933" y2="-14.16" style="fill:none;stroke:#000000;stroke-width:0.3;stroke-linecap:square;"/>
  <line y1="-25.935" x2="31.058" x1="31.767" y2="-27.726" style="fill:none;stroke:#000000;stroke-width:0.3;stroke-linecap:square;"/>
  <line y1="-25.351" x2="31.767" x1="36.933" y2="-25.935" style="fill:none;stroke:#000000;stroke-width:0.3;stroke-linecap:square;"/>
  <line y1="-33.018" x2="30.25" x1="30.183" y2="-33.029" style="fill:none;stroke:#000000;stroke-width:0.3;stroke-linecap:square;"/>
  <polyline points="38.019,-34.441 37.85,-34.268    30.25,-33.029   " style="fill:none;stroke:#000000;stroke-width:0.3;stroke-linecap:square;"/>
  <line y1="-34.441" x2="41.183" x1="38.019" y2="-37.685" style="fill:none;stroke:#000000;stroke-width:0.3;stroke-linecap:square;"/>
  <line y1="-29.435" x2="41.017" x1="38.35" y2="-30.518" style="fill:none;stroke:#000000;stroke-width:0.3;stroke-linecap:square;"/>
  <line y1="-29.435" x2="32.279" x1="38.35" y2="-29.806" style="fill:none;stroke:#000000;stroke-width:0.3;stroke-linecap:square;"/>
  <line y1="-29.806" x2="30.183" x1="32.279" y2="-29.935" style="fill:none;stroke:#000000;stroke-width:0.3;stroke-linecap:square;"/>
  <line y1="-29.435" x2="36.933" x1="38.35" y2="-25.351" style="fill:none;stroke:#000000;stroke-width:0.3;stroke-linecap:square;"/>
  <line y1="-18.268" x2="28.246" x1="34.183" y2="-19.351" style="fill:none;stroke:#000000;stroke-width:0.3;stroke-linecap:square;"/>
  <line y1="-21.262" x2="34.183" x1="39.339" y2="-18.268" style="fill:none;stroke:#000000;stroke-width:0.3;stroke-linecap:square;"/>
  <polyline points="39.339,-21.262 39.35,-21.268    41.267,-22.768   " style="fill:none;stroke:#000000;stroke-width:0.3;stroke-linecap:square;"/>
  <line y1="-31.435" x2="24.267" x1="30.1" y2="-34.851" style="fill:none;stroke:#000000;stroke-width:0.3;stroke-linecap:square;"/>
  <line y1="-25.612" x2="26.1" x1="28.116" y2="-25.435" style="fill:none;stroke:#000000;stroke-width:0.3;stroke-linecap:square;"/>
  <line y1="-25.935" x2="31.371" x1="31.767" y2="-18.789" style="fill:none;stroke:#000000;stroke-width:0.3;stroke-linecap:square;"/>
  <line y1="-25.935" x2="28.116" x1="31.767" y2="-25.612" style="fill:none;stroke:#000000;stroke-width:0.3;stroke-linecap:square;"/>
  <line y1="-15.425" x2="51.017" x1="48.826" y2="-12.518" style="fill:none;stroke:#000000;stroke-width:0.3;stroke-linecap:square;"/>
  <line y1="-18.268" x2="48.826" x1="46.683" y2="-15.425" style="fill:none;stroke:#000000;stroke-width:0.3;stroke-linecap:square;"/>
  <line y1="-18.268" x2="41.933" x1="46.683" y2="-16.851" style="fill:none;stroke:#000000;stroke-width:0.3;stroke-linecap:square;"/>
  <line y1="-13.554" x2="54.621" x1="55.931" y2="-12.789" style="fill:none;stroke:#000000;stroke-width:0.3;stroke-linecap:square;"/>
  <line y1="-12.518" x2="54.621" x1="51.017" y2="-12.789" style="fill:none;stroke:#000000;stroke-width:0.3;stroke-linecap:square;"/>
  <line y1="-15.482" x2="34.183" x1="36.69" y2="-18.268" style="fill:none;stroke:#000000;stroke-width:0.3;stroke-linecap:square;"/>
  <line y1="-15.482" x2="40.183" x1="36.69" y2="-11.601" style="fill:none;stroke:#000000;stroke-width:0.3;stroke-linecap:square;"/>
  <line y1="-11.601" x2="36.558" x1="40.183" y2="-10.726" style="fill:none;stroke:#000000;stroke-width:0.3;stroke-linecap:square;"/>
  <line y1="-21.476" x2="46.683" x1="51.058" y2="-18.268" style="fill:none;stroke:#000000;stroke-width:0.3;stroke-linecap:square;"/>
  <line y1="-21.268" x2="46.683" x1="46.767" y2="-18.268" style="fill:none;stroke:#000000;stroke-width:0.3;stroke-linecap:square;"/>
  <line y1="-15.826" x2="50.892" x1="55.929" y2="-12.706" style="fill:none;stroke:#000000;stroke-width:0.3;stroke-linecap:square;"/>
  <line y1="-54.768" x2="8.664" x1="13.35" y2="-49.91" style="fill:none;stroke:#000000;stroke-width:0.3;stroke-linecap:square;"/>
  <line y1="-49.859" x2="8.664" x1="8.614" y2="-49.91" style="fill:none;stroke:#000000;stroke-width:0.3;stroke-linecap:square;"/>
  <line y1="-53.851" x2="10.941" x1="15.1" y2="-49.403" style="fill:none;stroke:#000000;stroke-width:0.3;stroke-linecap:square;"/>
  <line y1="-49.403" x2="10.914" x1="10.941" y2="-49.373" style="fill:none;stroke:#000000;stroke-width:0.3;stroke-linecap:square;"/>
  <line y1="-48.661" x2="13.141" x1="13.153" y2="-48.646" style="fill:none;stroke:#000000;stroke-width:0.3;stroke-linecap:square;"/>
  <line y1="-48.661" x2="16.767" x1="13.153" y2="-53.018" style="fill:none;stroke:#000000;stroke-width:0.3;stroke-linecap:square;"/>
  <line y1="-47.826" x2="18.433" x1="14.986" y2="-52.268" style="fill:none;stroke:#000000;stroke-width:0.3;stroke-linecap:square;"/>
  <line y1="-47.825" x2="14.986" x1="14.985" y2="-47.826" style="fill:none;stroke:#000000;stroke-width:0.3;stroke-linecap:square;"/>
  <line y1="-53.435" x2="16.647" x1="20.85" y2="-55.92" style="fill:none;stroke:#000000;stroke-width:0.3;stroke-linecap:square;"/>
  <line y1="-55.941" x2="21.017" x1="19.977" y2="-55.185" style="fill:none;stroke:#000000;stroke-width:0.3;stroke-linecap:square;"/>
  <line y1="-55.935" x2="7.954" x1="5.037" y2="-52.643" style="fill:none;stroke:#000000;stroke-width:0.3;stroke-linecap:square;"/>
  <line y1="-55.935" x2="9.329" x1="7.666" y2="-53.81" style="fill:none;stroke:#000000;stroke-width:0.3;stroke-linecap:square;"/>
  <line y1="-50.323" x2="23.388" x1="22.75" y2="-55.935" style="fill:none;stroke:#000000;stroke-width:0.3;stroke-linecap:square;"/>
  <line y1="-50.323" x2="22.746" x1="22.75" y2="-50.289" style="fill:none;stroke:#000000;stroke-width:0.3;stroke-linecap:square;"/>
  <polyline points="16.35,-4.393 13.308,-2.476    12.138,-1.6   " style="fill:none;stroke:#000000;stroke-width:0.3;stroke-linecap:square;"/>
  <line y1="-4.393" x2="20.023" x1="16.35" y2="-1.609" style="fill:none;stroke:#000000;stroke-width:0.3;stroke-linecap:square;"/>
  <polyline points="23.375,-1.607 23.683,-4.31    21.35,-4.31   " style="fill:none;stroke:#000000;stroke-width:0.3;stroke-linecap:square;"/>
  <line y1="-4.31" x2="21.093" x1="21.35" y2="-1.609" style="fill:none;stroke:#000000;stroke-width:0.3;stroke-linecap:square;"/>
  <line y1="-1.606" x2="14.267" x1="16.73" y2="-3.06" style="fill:none;stroke:#000000;stroke-width:0.3;stroke-linecap:square;"/>
  <polyline points="9.982,-1.601 8.85,-3.226    7.856,-4.667   " style="fill:none;stroke:#000000;stroke-width:0.3;stroke-linecap:square;"/>
  <line y1="-5.914" x2="11.121" x1="6.996" y2="-9.351" style="fill:none;stroke:#000000;stroke-width:0.3;stroke-linecap:square;"/>
  <line y1="-7.792" x2="12.684" x1="14.372" y2="-8.602" style="fill:none;stroke:#000000;stroke-width:0.3;stroke-linecap:square;"/>
  <line y1="-9.351" x2="12.684" x1="11.121" y2="-8.602" style="fill:none;stroke:#000000;stroke-width:0.3;stroke-linecap:square;"/>
  <line y1="-4.667" x2="6.996" x1="7.856" y2="-5.914" style="fill:none;stroke:#000000;stroke-width:0.3;stroke-linecap:square;"/>
  <line y1="-6.414" x2="14.372" x1="17.246" y2="-7.792" style="fill:none;stroke:#000000;stroke-width:0.3;stroke-linecap:square;"/>
  <line y1="-55.92" x2="10.767" x1="9.976" y2="-54.847" style="fill:none;stroke:#000000;stroke-width:0.3;stroke-linecap:square;"/>
  <line y1="-54.685" x2="24.767" x1="25.433" y2="-49.601" style="fill:none;stroke:#000000;stroke-width:0.3;stroke-linecap:square;"/>
  <line y1="-49.268" x2="25.683" x1="18.767" y2="-47.435" style="fill:none;stroke:#000000;stroke-width:0.3;stroke-linecap:square;"/>
  <line y1="-44.101" x2="26.1" x1="19.996" y2="-44.351" style="fill:none;stroke:#000000;stroke-width:0.3;stroke-linecap:square;"/>
  <line y1="-41.851" x2="21.684" x1="26.767" y2="-41.664" style="fill:none;stroke:#000000;stroke-width:0.3;stroke-linecap:square;"/>
  <line y1="-41.664" x2="21.684" x1="21.683" y2="-41.664" style="fill:none;stroke:#000000;stroke-width:0.3;stroke-linecap:square;"/>
  <line y1="-40.768" x2="30.267" x1="25.517" y2="-34.935" style="fill:none;stroke:#000000;stroke-width:0.3;stroke-linecap:square;"/>
  <line y1="-31.935" x2="23.517" x1="29.267" y2="-39.435" style="fill:none;stroke:#000000;stroke-width:0.3;stroke-linecap:square;"/>
  <line y1="-43.851" x2="28.933" x1="26.517" y2="-49.101" style="fill:none;stroke:#000000;stroke-width:0.3;stroke-linecap:square;"/>
  <line y1="-41.289" x2="29.786" x1="28.183" y2="-44.946" style="fill:none;stroke:#000000;stroke-width:0.3;stroke-linecap:square;"/>
  <line y1="-44.946" x2="30.767" x1="29.786" y2="-47.185" style="fill:none;stroke:#000000;stroke-width:0.3;stroke-linecap:square;"/>
  <line y1="-39.768" x2="34.933" x1="29.1" y2="-41.601" style="fill:none;stroke:#000000;stroke-width:0.3;stroke-linecap:square;"/>
  <line y1="-42.851" x2="34.6" x1="28.933" y2="-43.851" style="fill:none;stroke:#000000;stroke-width:0.3;stroke-linecap:square;"/>
  <line y1="-44.946" x2="32.767" x1="29.786" y2="-45.268" style="fill:none;stroke:#000000;stroke-width:0.3;stroke-linecap:square;"/>
  <line y1="-44.946" x2="29.683" x1="29.786" y2="-44.935" style="fill:none;stroke:#000000;stroke-width:0.3;stroke-linecap:square;"/>
  <line y1="-33.518" x2="32.35" x1="32.6" y2="-38.351" style="fill:none;stroke:#000000;stroke-width:0.3;stroke-linecap:square;"/>
  <line y1="-39.154" x2="34.6" x1="34.603" y2="-39.185" style="fill:none;stroke:#000000;stroke-width:0.3;stroke-linecap:square;"/>
  <line y1="-39.154" x2="35.017" x1="34.603" y2="-33.935" style="fill:none;stroke:#000000;stroke-width:0.3;stroke-linecap:square;"/>
  <line y1="-36.185" x2="39.683" x1="37.017" y2="-39.601" style="fill:none;stroke:#000000;stroke-width:0.3;stroke-linecap:square;"/>
  <line y1="-37.851" x2="37.933" x1="35.933" y2="-41.018" style="fill:none;stroke:#000000;stroke-width:0.3;stroke-linecap:square;"/>
  <line y1="-32.935" x2="42.1" x1="40.017" y2="-35.268" style="fill:none;stroke:#000000;stroke-width:0.3;stroke-linecap:square;"/>
  <line y1="-32.518" x2="30.35" x1="40.433" y2="-32.518" style="fill:none;stroke:#000000;stroke-width:0.3;stroke-linecap:square;"/>
  <line y1="-29.806" x2="33.35" x1="32.279" y2="-25.851" style="fill:none;stroke:#000000;stroke-width:0.3;stroke-linecap:square;"/>
  <line y1="-29.851" x2="32.279" x1="32.267" y2="-29.806" style="fill:none;stroke:#000000;stroke-width:0.3;stroke-linecap:square;"/>
  <line y1="-29.601" x2="35.267" x1="34.433" y2="-25.601" style="fill:none;stroke:#000000;stroke-width:0.3;stroke-linecap:square;"/>
  <line y1="-26.351" x2="36.517" x1="37.267" y2="-29.518" style="fill:none;stroke:#000000;stroke-width:0.3;stroke-linecap:square;"/>
  <line y1="-22.518" x2="40.267" x1="38.683" y2="-24.018" style="fill:none;stroke:#000000;stroke-width:0.3;stroke-linecap:square;"/>
  <line y1="-24.414" x2="40.183" x1="37.621" y2="-26.435" style="fill:none;stroke:#000000;stroke-width:0.3;stroke-linecap:square;"/>
  <line y1="-26.851" x2="40.683" x1="37.517" y2="-28.851" style="fill:none;stroke:#000000;stroke-width:0.3;stroke-linecap:square;"/>
  <line y1="-27.726" x2="31.058" x1="31.058" y2="-27.726" style="fill:none;stroke:#000000;stroke-width:0.3;stroke-linecap:square;"/>
  <line y1="-27.726" x2="25.746" x1="31.058" y2="-27.101" style="fill:none;stroke:#000000;stroke-width:0.3;stroke-linecap:square;"/>
  <line y1="-29.351" x2="25.308" x1="30.371" y2="-28.851" style="fill:none;stroke:#000000;stroke-width:0.3;stroke-linecap:square;"/>
  <line y1="-31.435" x2="24.808" x1="30.1" y2="-31.101" style="fill:none;stroke:#000000;stroke-width:0.3;stroke-linecap:square;"/>
  <line y1="-31.429" x2="41.183" x1="30.215" y2="-30.851" style="fill:none;stroke:#000000;stroke-width:0.3;stroke-linecap:square;"/>
  <line y1="-31.429" x2="30.1" x1="30.215" y2="-31.435" style="fill:none;stroke:#000000;stroke-width:0.3;stroke-linecap:square;"/>
  <line y1="-33.101" x2="24.496" x1="27.058" y2="-32.851" style="fill:none;stroke:#000000;stroke-width:0.3;stroke-linecap:square;"/>
  <line y1="-25.664" x2="28.116" x1="28.121" y2="-25.612" style="fill:none;stroke:#000000;stroke-width:0.3;stroke-linecap:square;"/>
  <line y1="-25.612" x2="27.683" x1="28.116" y2="-20.476" style="fill:none;stroke:#000000;stroke-width:0.3;stroke-linecap:square;"/>
  <line y1="-19.164" x2="29.871" x1="29.433" y2="-25.726" style="fill:none;stroke:#000000;stroke-width:0.3;stroke-linecap:square;"/>
  <line y1="-25.726" x2="33.121" x1="33.558" y2="-18.476" style="fill:none;stroke:#000000;stroke-width:0.3;stroke-linecap:square;"/>
  <line y1="-25.414" x2="34.933" x1="35.308" y2="-18.789" style="fill:none;stroke:#000000;stroke-width:0.3;stroke-linecap:square;"/>
  <line y1="-20.101" x2="37.183" x1="36.933" y2="-24.851" style="fill:none;stroke:#000000;stroke-width:0.3;stroke-linecap:square;"/>
  <line y1="-20.164" x2="35.371" x1="39.933" y2="-17.039" style="fill:none;stroke:#000000;stroke-width:0.3;stroke-linecap:square;"/>
  <line y1="-18.851" x2="36.69" x1="40.746" y2="-15.482" style="fill:none;stroke:#000000;stroke-width:0.3;stroke-linecap:square;"/>
  <line y1="-15.482" x2="36.683" x1="36.69" y2="-15.476" style="fill:none;stroke:#000000;stroke-width:0.3;stroke-linecap:square;"/>
  <line y1="-14.039" x2="41.746" x1="38.058" y2="-17.039" style="fill:none;stroke:#000000;stroke-width:0.3;stroke-linecap:square;"/>
  <line y1="-12.539" x2="41.803" x1="39.433" y2="-14.16" style="fill:none;stroke:#000000;stroke-width:0.3;stroke-linecap:square;"/>
  <line y1="-14.16" x2="41.808" x1="41.803" y2="-14.164" style="fill:none;stroke:#000000;stroke-width:0.3;stroke-linecap:square;"/>
  <line y1="-11.976" x2="43.496" x1="43.683" y2="-17.164" style="fill:none;stroke:#000000;stroke-width:0.3;stroke-linecap:square;"/>
  <line y1="-17.789" x2="45.808" x1="45.246" y2="-12.101" style="fill:none;stroke:#000000;stroke-width:0.3;stroke-linecap:square;"/>
  <line y1="-12.226" x2="47.806" x1="47.808" y2="-12.246" style="fill:none;stroke:#000000;stroke-width:0.3;stroke-linecap:square;"/>
  <line y1="-12.246" x2="47.308" x1="47.806" y2="-17.414" style="fill:none;stroke:#000000;stroke-width:0.3;stroke-linecap:square;"/>
  <line y1="-14.101" x2="55.933" x1="49.871" y2="-18.23" style="fill:none;stroke:#000000;stroke-width:0.3;stroke-linecap:square;"/>
  <line y1="-15.425" x2="55.927" x1="48.826" y2="-20.063" style="fill:none;stroke:#000000;stroke-width:0.3;stroke-linecap:square;"/>
  <line y1="-15.425" x2="48.808" x1="48.826" y2="-15.414" style="fill:none;stroke:#000000;stroke-width:0.3;stroke-linecap:square;"/>
  <line y1="-16.706" x2="2.844" x1="3.042" y2="-16.584" style="fill:none;stroke:#000000;stroke-width:0.3;stroke-linecap:square;"/>
  <line y1="-16.584" x2="1.6" x1="2.844" y2="-15.818" style="fill:none;stroke:#000000;stroke-width:0.3;stroke-linecap:square;"/>
  <line y1="-19.039" x2="1.6" x1="2.771" y2="-18.241" style="fill:none;stroke:#000000;stroke-width:0.3;stroke-linecap:square;"/>
  <line y1="-14.164" x2="1.6" x1="2.708" y2="-13.538" style="fill:none;stroke:#000000;stroke-width:0.3;stroke-linecap:square;"/>
  <line y1="-20.056" x2="1.959" x1="1.6" y2="-20.289" style="fill:none;stroke:#000000;stroke-width:0.3;stroke-linecap:square;"/>
  <line y1="-16.789" x2="54.183" x1="47.808" y2="-21.289" style="fill:none;stroke:#000000;stroke-width:0.3;stroke-linecap:square;"/>
  <line y1="-14.476" x2="49.621" x1="49.496" y2="-12.414" style="fill:none;stroke:#000000;stroke-width:0.3;stroke-linecap:square;"/>
  <line y1="-22.351" x2="43.808" x1="40.808" y2="-17.539" style="fill:none;stroke:#000000;stroke-width:0.3;stroke-linecap:square;"/>
  <line y1="-21.851" x2="45.746" x1="43.496" y2="-18.039" style="fill:none;stroke:#000000;stroke-width:0.3;stroke-linecap:square;"/>
  <line y1="-16.164" x2="29.246" x1="35.996" y2="-17.476" style="fill:none;stroke:#000000;stroke-width:0.3;stroke-linecap:square;"/>
  <line y1="-14.664" x2="30.808" x1="37.371" y2="-15.101" style="fill:none;stroke:#000000;stroke-width:0.3;stroke-linecap:square;"/>
  <line y1="-12.851" x2="33.058" x1="38.933" y2="-12.789" style="fill:none;stroke:#000000;stroke-width:0.3;stroke-linecap:square;"/>
  <line y1="-54.101" x2="36.069" x1="36.621" y2="-55.935" style="fill:none;stroke:#000000;stroke-width:0.3;stroke-linecap:square;"/>
  <line y1="-52.851" x2="37.851" x1="38.746" y2="-55.935" style="fill:none;stroke:#000000;stroke-width:0.3;stroke-linecap:square;"/>
  <line y1="-52.039" x2="39.429" x1="40.308" y2="-55.935" style="fill:none;stroke:#000000;stroke-width:0.3;stroke-linecap:square;"/>
  <line y1="-51.352" x2="41.498" x1="41.933" y2="-54.602" style="fill:none;stroke:#000000;stroke-width:0.3;stroke-linecap:square;"/>
  <line y1="-55.935" x2="41.498" x1="41.319" y2="-54.602" style="fill:none;stroke:#000000;stroke-width:0.3;stroke-linecap:square;"/>
  <line y1="-51.352" x2="41.933" x1="41.933" y2="-51.351" style="fill:none;stroke:#000000;stroke-width:0.3;stroke-linecap:square;"/>
  <line y1="-54.976" x2="41.498" x1="44.871" y2="-54.602" style="fill:none;stroke:#000000;stroke-width:0.3;stroke-linecap:square;"/>
  <line y1="-54.602" x2="41.496" x1="41.498" y2="-54.601" style="fill:none;stroke:#000000;stroke-width:0.3;stroke-linecap:square;"/>
  <line y1="-52.914" x2="47.308" x1="41.746" y2="-53.664" style="fill:none;stroke:#000000;stroke-width:0.3;stroke-linecap:square;"/>
  <line y1="-51.601" x2="49.308" x1="41.933" y2="-52.039" style="fill:none;stroke:#000000;stroke-width:0.3;stroke-linecap:square;"/>
  <line y1="-51.789" x2="44.808" x1="45.683" y2="-50.226" style="fill:none;stroke:#000000;stroke-width:0.3;stroke-linecap:square;"/>
  <line y1="-51.914" x2="46.512" x1="47.996" y2="-49.07" style="fill:none;stroke:#000000;stroke-width:0.3;stroke-linecap:square;"/>
  <line y1="-49.07" x2="46.496" x1="46.512" y2="-49.039" style="fill:none;stroke:#000000;stroke-width:0.3;stroke-linecap:square;"/>
  <line y1="-47.789" x2="49.808" x1="47.683" y2="-51.601" style="fill:none;stroke:#000000;stroke-width:0.3;stroke-linecap:square;"/>
  <line y1="-46.631" x2="50.871" x1="48.329" y2="-50.226" style="fill:none;stroke:#000000;stroke-width:0.3;stroke-linecap:square;"/>
  <line y1="-46.631" x2="48.308" x1="48.329" y2="-46.601" style="fill:none;stroke:#000000;stroke-width:0.3;stroke-linecap:square;"/>
  <line y1="-48.664" x2="51.808" x1="49.808" y2="-48.476" style="fill:none;stroke:#000000;stroke-width:0.3;stroke-linecap:square;"/>
  <line y1="-47.164" x2="52.621" x1="48.746" y2="-46.914" style="fill:none;stroke:#000000;stroke-width:0.3;stroke-linecap:square;"/>
  <line y1="-45.289" x2="53.246" x1="48.938" y2="-45.289" style="fill:none;stroke:#000000;stroke-width:0.3;stroke-linecap:square;"/>
  <line y1="-45.289" x2="48.871" x1="48.938" y2="-45.289" style="fill:none;stroke:#000000;stroke-width:0.3;stroke-linecap:square;"/>
  <line y1="-43.914" x2="53.78" x1="53.808" y2="-43.912" style="fill:none;stroke:#000000;stroke-width:0.3;stroke-linecap:square;"/>
  <line y1="-43.912" x2="52.807" x1="53.78" y2="-43.853" style="fill:none;stroke:#000000;stroke-width:0.3;stroke-linecap:square;"/>
  <line y1="-43.664" x2="52.807" x1="49.683" y2="-43.853" style="fill:none;stroke:#000000;stroke-width:0.3;stroke-linecap:square;"/>
  <line y1="-40.402" x2="51.121" x1="50.998" y2="-43.726" style="fill:none;stroke:#000000;stroke-width:0.3;stroke-linecap:square;"/>
  <line y1="-40.402" x2="50.996" x1="50.998" y2="-40.351" style="fill:none;stroke:#000000;stroke-width:0.3;stroke-linecap:square;"/>
  <line y1="-43.914" x2="52.807" x1="52.808" y2="-43.853" style="fill:none;stroke:#000000;stroke-width:0.3;stroke-linecap:square;"/>
  <line y1="-37.914" x2="52.683" x1="52.683" y2="-37.92" style="fill:none;stroke:#000000;stroke-width:0.3;stroke-linecap:square;"/>
  <line y1="-37.92" x2="52.807" x1="52.683" y2="-43.853" style="fill:none;stroke:#000000;stroke-width:0.3;stroke-linecap:square;"/>
  <line y1="-37.723" x2="54.246" x1="54.355" y2="-36.476" style="fill:none;stroke:#000000;stroke-width:0.3;stroke-linecap:square;"/>
  <line y1="-42.148" x2="54.499" x1="54.744" y2="-39.351" style="fill:none;stroke:#000000;stroke-width:0.3;stroke-linecap:square;"/>
  <line y1="-42.148" x2="54.746" x1="54.744" y2="-42.164" style="fill:none;stroke:#000000;stroke-width:0.3;stroke-linecap:square;"/>
  <line y1="-39.351" x2="54.355" x1="54.499" y2="-37.723" style="fill:none;stroke:#000000;stroke-width:0.3;stroke-linecap:square;"/>
  <line y1="-39.351" x2="54.499" x1="54.496" y2="-39.351" style="fill:none;stroke:#000000;stroke-width:0.3;stroke-linecap:square;"/>
  <line y1="-39.271" x2="54.507" x1="55.929" y2="-39.311" style="fill:none;stroke:#000000;stroke-width:0.3;stroke-linecap:square;"/>
  <line y1="-37.723" x2="55.928" x1="54.355" y2="-37.606" style="fill:none;stroke:#000000;stroke-width:0.3;stroke-linecap:square;"/>
  <line y1="-37.726" x2="54.355" x1="54.308" y2="-37.723" style="fill:none;stroke:#000000;stroke-width:0.3;stroke-linecap:square;"/>
  <polyline points="35.121,-5.976 35.371,-4.088    36.082,-1.608   " style="fill:none;stroke:#000000;stroke-width:0.3;stroke-linecap:square;"/>
  <line y1="-4.343" x2="37.121" x1="37.134" y2="-4.414" style="fill:none;stroke:#000000;stroke-width:0.3;stroke-linecap:square;"/>
  <polyline points="37.134,-4.343 37.183,-4.088    37.874,-1.601   " style="fill:none;stroke:#000000;stroke-width:0.3;stroke-linecap:square;"/>
  <line y1="-2.945" x2="39.453" x1="39.162" y2="-1.601" style="fill:none;stroke:#000000;stroke-width:0.3;stroke-linecap:square;"/>
  <line y1="-2.945" x2="39.156" x1="39.162" y2="-2.971" style="fill:none;stroke:#000000;stroke-width:0.3;stroke-linecap:square;"/>
  <line y1="-1.791" x2="41.312" x1="41.287" y2="-1.601" style="fill:none;stroke:#000000;stroke-width:0.3;stroke-linecap:square;"/>
  <line y1="-1.794" x2="41.287" x1="41.287" y2="-1.791" style="fill:none;stroke:#000000;stroke-width:0.3;stroke-linecap:square;"/>
  <line y1="-39.192" x2="1.6" x1="4.103" y2="-39.272" style="fill:none;stroke:#000000;stroke-width:0.3;stroke-linecap:square;"/>
  <line y1="-37.442" x2="1.6" x1="4.041" y2="-37.593" style="fill:none;stroke:#000000;stroke-width:0.3;stroke-linecap:square;"/>
  <line y1="-1.914" x2="35.683" x1="33.433" y2="-2.726" style="fill:none;stroke:#000000;stroke-width:0.3;stroke-linecap:square;"/>
  <line y1="-3.101" x2="35.308" x1="31.746" y2="-4.414" style="fill:none;stroke:#000000;stroke-width:0.3;stroke-linecap:square;"/>
  <line y1="-6.164" x2="30.433" x1="34.871" y2="-4.226" style="fill:none;stroke:#000000;stroke-width:0.3;stroke-linecap:square;"/>
  <line y1="-10.039" x2="33.933" x1="30.996" y2="-5.789" style="fill:none;stroke:#000000;stroke-width:0.3;stroke-linecap:square;"/>
  <line y1="-11.258" x2="26.871" x1="29.907" y2="-7.664" style="fill:none;stroke:#000000;stroke-width:0.3;stroke-linecap:square;"/>
  <line y1="-11.258" x2="29.933" x1="29.907" y2="-11.289" style="fill:none;stroke:#000000;stroke-width:0.3;stroke-linecap:square;"/>
  <line y1="-5.101" x2="28.871" x1="32.433" y2="-9.976" style="fill:none;stroke:#000000;stroke-width:0.3;stroke-linecap:square;"/>
  <line y1="-4.351" x2="27.746" x1="30.683" y2="-8.664" style="fill:none;stroke:#000000;stroke-width:0.3;stroke-linecap:square;"/>
  <line y1="-34.179" x2="5.683" x1="5.684" y2="-34.164" style="fill:none;stroke:#000000;stroke-width:0.3;stroke-linecap:square;"/>
  <line y1="-38.601" x2="5.684" x1="5.871" y2="-34.179" style="fill:none;stroke:#000000;stroke-width:0.3;stroke-linecap:square;"/>
  <line y1="-33.601" x2="7.743" x1="6.996" y2="-38.149" style="fill:none;stroke:#000000;stroke-width:0.3;stroke-linecap:square;"/>
  <line y1="-38.149" x2="7.746" x1="7.743" y2="-38.164" style="fill:none;stroke:#000000;stroke-width:0.3;stroke-linecap:square;"/>
  <line y1="-36.664" x2="11.746" x1="7.558" y2="-36.789" style="fill:none;stroke:#000000;stroke-width:0.3;stroke-linecap:square;"/>
  <line y1="-34.976" x2="14.371" x1="7.246" y2="-34.976" style="fill:none;stroke:#000000;stroke-width:0.3;stroke-linecap:square;"/>
  <line y1="-32.849" x2="8.439" x1="15.996" y2="-32.789" style="fill:none;stroke:#000000;stroke-width:0.3;stroke-linecap:square;"/>
  <line y1="-32.849" x2="16.308" x1="15.996" y2="-32.851" style="fill:none;stroke:#000000;stroke-width:0.3;stroke-linecap:square;"/>
  <line y1="-32.789" x2="8.433" x1="8.439" y2="-32.789" style="fill:none;stroke:#000000;stroke-width:0.3;stroke-linecap:square;"/>
  <line y1="-30.429" x2="11.183" x1="11.494" y2="-32.789" style="fill:none;stroke:#000000;stroke-width:0.3;stroke-linecap:square;"/>
  <line y1="-30.429" x2="11.496" x1="11.494" y2="-30.414" style="fill:none;stroke:#000000;stroke-width:0.3;stroke-linecap:square;"/>
  <line y1="-25.86" x2="14.371" x1="14.37" y2="-25.851" style="fill:none;stroke:#000000;stroke-width:0.3;stroke-linecap:square;"/>
  <line y1="-32.789" x2="14.37" x1="13.558" y2="-25.86" style="fill:none;stroke:#000000;stroke-width:0.3;stroke-linecap:square;"/>
  <line y1="-29.963" x2="16.581" x1="16.148" y2="-21.78" style="fill:none;stroke:#000000;stroke-width:0.3;stroke-linecap:square;"/>
  <line y1="-21.039" x2="16.581" x1="16.621" y2="-21.78" style="fill:none;stroke:#000000;stroke-width:0.3;stroke-linecap:square;"/>
  <line y1="-32.849" x2="16.148" x1="15.996" y2="-29.963" style="fill:none;stroke:#000000;stroke-width:0.3;stroke-linecap:square;"/>
  <line y1="-32.851" x2="15.996" x1="15.996" y2="-32.849" style="fill:none;stroke:#000000;stroke-width:0.3;stroke-linecap:square;"/>
  <line y1="-29.963" x2="18.683" x1="16.148" y2="-28.789" style="fill:none;stroke:#000000;stroke-width:0.3;stroke-linecap:square;"/>
  <line y1="-29.976" x2="16.148" x1="16.121" y2="-29.963" style="fill:none;stroke:#000000;stroke-width:0.3;stroke-linecap:square;"/>
  <line y1="-27.539" x2="19.743" x1="16.308" y2="-26.19" style="fill:none;stroke:#000000;stroke-width:0.3;stroke-linecap:square;"/>
  <line y1="-26.19" x2="19.808" x1="19.743" y2="-26.164" style="fill:none;stroke:#000000;stroke-width:0.3;stroke-linecap:square;"/>
  <line y1="-22.226" x2="16.433" x1="21.808" y2="-24.914" style="fill:none;stroke:#000000;stroke-width:0.3;stroke-linecap:square;"/>
  <line y1="-21.789" x2="16.581" x1="16.558" y2="-21.78" style="fill:none;stroke:#000000;stroke-width:0.3;stroke-linecap:square;"/>
  <line y1="-18.989" x2="19.858" x1="23.899" y2="-20.53" style="fill:none;stroke:#000000;stroke-width:0.3;stroke-linecap:square;"/>
  <line y1="-21.78" x2="19.858" x1="16.581" y2="-20.53" style="fill:none;stroke:#000000;stroke-width:0.3;stroke-linecap:square;"/>
  <line y1="-18.989" x2="23.933" x1="23.899" y2="-18.976" style="fill:none;stroke:#000000;stroke-width:0.3;stroke-linecap:square;"/>
  <line y1="-20.53" x2="17.72" x1="19.858" y2="-19.064" style="fill:none;stroke:#000000;stroke-width:0.3;stroke-linecap:square;"/>
  <line y1="-20.53" x2="19.871" x1="19.858" y2="-20.539" style="fill:none;stroke:#000000;stroke-width:0.3;stroke-linecap:square;"/>
  <line y1="-19.064" x2="17.683" x1="17.72" y2="-19.039" style="fill:none;stroke:#000000;stroke-width:0.3;stroke-linecap:square;"/>
  <line y1="-16.976" x2="19.121" x1="19.121" y2="-16.976" style="fill:none;stroke:#000000;stroke-width:0.3;stroke-linecap:square;"/>
  <line y1="-19.414" x2="19.121" x1="22.621" y2="-16.976" style="fill:none;stroke:#000000;stroke-width:0.3;stroke-linecap:square;"/>
  <line y1="-15.289" x2="20.333" x1="20.308" y2="-15.306" style="fill:none;stroke:#000000;stroke-width:0.3;stroke-linecap:square;"/>
  <line y1="-18.164" x2="20.333" x1="24.433" y2="-15.306" style="fill:none;stroke:#000000;stroke-width:0.3;stroke-linecap:square;"/>
  <line y1="-16.226" x2="22.058" x1="21.683" y2="-13.101" style="fill:none;stroke:#000000;stroke-width:0.3;stroke-linecap:square;"/>
  <line y1="-17.726" x2="24.308" x1="23.808" y2="-10.476" style="fill:none;stroke:#000000;stroke-width:0.3;stroke-linecap:square;"/>
  <line y1="-15.851" x2="26.184" x1="26.183" y2="-15.821" style="fill:none;stroke:#000000;stroke-width:0.3;stroke-linecap:square;"/>
  <line y1="-8.039" x2="26.431" x1="26.433" y2="-8.096" style="fill:none;stroke:#000000;stroke-width:0.3;stroke-linecap:square;"/>
  <line y1="-8.096" x2="26.184" x1="26.431" y2="-15.821" style="fill:none;stroke:#000000;stroke-width:0.3;stroke-linecap:square;"/>
  <line y1="-13.287" x2="28.496" x1="28.183" y2="-9.601" style="fill:none;stroke:#000000;stroke-width:0.3;stroke-linecap:square;"/>
  <line y1="-13.289" x2="28.183" x1="28.183" y2="-13.287" style="fill:none;stroke:#000000;stroke-width:0.3;stroke-linecap:square;"/>
  <path style="fill:none;stroke:#000000;stroke-width:0.3;stroke-linecap:square;" d="M27.502-51.153    c-0.93-1.368-1.764-2.898-2.444-4.635c-0.019-0.049-0.039-0.097-0.058-0.146"/>
  <path style="fill:none;stroke:#000000;stroke-width:0.3;stroke-linecap:square;" d="M27.502-51.153    c6.206,9.126,16.698,11.005,14.306,18.615c-2.75,8.75-2.25,10,3.25,11c4.624,0.841,6.774-0.969,10.312,0.662    c0.184,0.085,0.367,0.212,0.558,0.317"/>
  <path style="fill:none;stroke:#000000;stroke-width:0.3;stroke-linecap:square;" d="M49.981-55.446    c-0.203-0.162-0.54-0.325-0.74-0.489"/>
  <path style="fill:none;stroke:#000000;stroke-width:0.3;stroke-linecap:square;" d="M55.933-51.614    c-2.12-0.99-4.096-2.354-5.952-3.832"/>
  <path style="fill:none;stroke:#000000;stroke-width:0.3;stroke-linecap:square;" d="M8.664-49.91    c0.664,0.112,1.437,0.274,2.278,0.507"/>
  <path style="fill:none;stroke:#000000;stroke-width:0.3;stroke-linecap:square;" d="M13.153-48.661    c-0.769-0.305-1.514-0.548-2.212-0.742"/>
  <path style="fill:none;stroke:#000000;stroke-width:0.3;stroke-linecap:square;" d="M22.937-39.166    c0.473,1.165,0.855,2.453,1.122,3.877l0.254,1.437c1.02,6.206,2.952,20.673,13.559,23.688c1.257,0.357,2.562,1.149,3.931,2.188"/>
  <path style="fill:none;stroke:#000000;stroke-width:0.3;stroke-linecap:square;" d="M16.935-46.658    c-0.22-0.152-0.441-0.297-0.663-0.436"/>
  <path style="fill:none;stroke:#000000;stroke-width:0.3;stroke-linecap:square;" d="M16.272-47.094    c-0.427-0.267-0.857-0.51-1.286-0.732"/>
  <path style="fill:none;stroke:#000000;stroke-width:0.3;stroke-linecap:square;" d="M41.802-7.976    c0.486,0.368,0.98,0.768,1.483,1.19"/>
  <path style="fill:none;stroke:#000000;stroke-width:0.3;stroke-linecap:square;" d="M16.935-46.658    c1.752,1.204,3.424,2.821,4.749,4.995"/>
  <path style="fill:none;stroke:#000000;stroke-width:0.3;stroke-linecap:square;" d="M13.153-48.661    c0.601,0.239,1.215,0.515,1.832,0.835"/>
  <path style="fill:none;stroke:#000000;stroke-width:0.3;stroke-linecap:square;" d="M21.684-41.664    c0.464,0.762,0.885,1.593,1.252,2.498"/>
  <path style="fill:none;stroke:#000000;stroke-width:0.3;stroke-linecap:square;" d="M5.148-50.373    c0.382,0.084,0.769,0.155,1.16,0.209c0,0,0.924,0.012,2.355,0.253"/>
  <path style="fill:none;stroke:#000000;stroke-width:0.3;stroke-linecap:square;" d="M43.285-6.785    c1.723,1.447,3.551,3.162,5.514,4.809c0.112,0.094,0.378,0.246,0.567,0.368"/>
  <path style="fill:none;stroke:#000000;stroke-width:0.3;stroke-linecap:square;" d="M1.6-51.594    c1.14,0.529,2.322,0.949,3.548,1.221"/>
  <path style="fill:none;stroke:#000000;stroke-width:0.3;stroke-linecap:square;" d="M1.6-20.572    c0.496,0.272,1.02,0.612,1.583,1.034c0,0,2.313,3.188,7.438,5.875s6.442,3.25,6.442,3.25c2.967,1.236,5.69,3.207,7.926,8.812"/>
  <line y1="-4.393" x2="18.746" x1="16.35" y2="-9.476" style="fill:none;stroke:#000000;stroke-width:0.3;stroke-linecap:square;"/>
  <line y1="-16.584" x2="2.815" x1="2.844" y2="-13.102" style="fill:none;stroke:#000000;stroke-width:0.3;stroke-linecap:square;"/>
  <line y1="-16.584" x2="2.871" x1="2.844" y2="-19.726" style="fill:none;stroke:#000000;stroke-width:0.3;stroke-linecap:square;"/>
  <line y1="-12.289" x2="2.815" x1="2.808" y2="-13.102" style="fill:none;stroke:#000000;stroke-width:0.3;stroke-linecap:square;"/>
  <line y1="-12.289" x2="6.996" x1="2.808" y2="-5.914" style="fill:none;stroke:#000000;stroke-width:0.3;stroke-linecap:square;"/>
  <line y1="-2.664" x2="6.996" x1="4.083" y2="-5.914" style="fill:none;stroke:#000000;stroke-width:0.3;stroke-linecap:square;"/>
  <line y1="-14.601" x2="3.996" x1="8.933" y2="-10.726" style="fill:none;stroke:#000000;stroke-width:0.3;stroke-linecap:square;"/>
  <line y1="-17.851" x2="4.433" x1="2.871" y2="-18.101" style="fill:none;stroke:#000000;stroke-width:0.3;stroke-linecap:square;"/>
  <line y1="-16.039" x2="5.933" x1="2.871" y2="-16.726" style="fill:none;stroke:#000000;stroke-width:0.3;stroke-linecap:square;"/>
  <line y1="-14.476" x2="7.996" x1="2.871" y2="-15.226" style="fill:none;stroke:#000000;stroke-width:0.3;stroke-linecap:square;"/>
  <line y1="-13.351" x2="2.815" x1="7.246" y2="-13.102" style="fill:none;stroke:#000000;stroke-width:0.3;stroke-linecap:square;"/>
  <line y1="-13.102" x2="2.808" x1="2.815" y2="-13.101" style="fill:none;stroke:#000000;stroke-width:0.3;stroke-linecap:square;"/>
  <line y1="-12.601" x2="8.352" x1="6.433" y2="-11.27" style="fill:none;stroke:#000000;stroke-width:0.3;stroke-linecap:square;"/>
  <line y1="-9.351" x2="12.996" x1="11.121" y2="-12.414" style="fill:none;stroke:#000000;stroke-width:0.3;stroke-linecap:square;"/>
  <line y1="-11.27" x2="11.121" x1="8.352" y2="-9.351" style="fill:none;stroke:#000000;stroke-width:0.3;stroke-linecap:square;"/>
  <line y1="-13.851" x2="11.996" x1="8.058" y2="-10.914" style="fill:none;stroke:#000000;stroke-width:0.3;stroke-linecap:square;"/>
  <line y1="-11.664" x2="12.684" x1="14.371" y2="-8.602" style="fill:none;stroke:#000000;stroke-width:0.3;stroke-linecap:square;"/>
  <line y1="-8.602" x2="12.683" x1="12.684" y2="-8.601" style="fill:none;stroke:#000000;stroke-width:0.3;stroke-linecap:square;"/>
  <line y1="-7.792" x2="15.808" x1="14.372" y2="-10.914" style="fill:none;stroke:#000000;stroke-width:0.3;stroke-linecap:square;"/>
  <line y1="-7.792" x2="14.371" x1="14.372" y2="-7.789" style="fill:none;stroke:#000000;stroke-width:0.3;stroke-linecap:square;"/>
  <line y1="-7.039" x2="17.308" x1="16.058" y2="-10.289" style="fill:none;stroke:#000000;stroke-width:0.3;stroke-linecap:square;"/>
  <line y1="-6.914" x2="9.683" x1="6.371" y2="-10.226" style="fill:none;stroke:#000000;stroke-width:0.3;stroke-linecap:square;"/>
  <line y1="-11.27" x2="5.496" x1="8.352" y2="-8.351" style="fill:none;stroke:#000000;stroke-width:0.3;stroke-linecap:square;"/>
  <line y1="-11.27" x2="8.371" x1="8.352" y2="-11.289" style="fill:none;stroke:#000000;stroke-width:0.3;stroke-linecap:square;"/>
  <line y1="-12.039" x2="4.746" x1="7.121" y2="-9.601" style="fill:none;stroke:#000000;stroke-width:0.3;stroke-linecap:square;"/>
  <line y1="-8.226" x2="9.496" x1="13.371" y2="-7.914" style="fill:none;stroke:#000000;stroke-width:0.3;stroke-linecap:square;"/>
  <path style="fill:none;stroke:#000000;stroke-width:0.3;stroke-linecap:square;" d="M15.433-7.164c0,0-7.437,0.625-7.625,0.625"/>
  <line y1="-4.667" x2="7.808" x1="7.856" y2="-4.664" style="fill:none;stroke:#000000;stroke-width:0.3;stroke-linecap:square;"/>
  <line y1="-4.667" x2="16.746" x1="7.856" y2="-5.289" style="fill:none;stroke:#000000;stroke-width:0.3;stroke-linecap:square;"/>
  <line y1="-2.789" x2="9.183" x1="13.683" y2="-2.789" style="fill:none;stroke:#000000;stroke-width:0.3;stroke-linecap:square;"/>
  <line y1="-3.539" x2="20.371" x1="17.558" y2="-8.289" style="fill:none;stroke:#000000;stroke-width:0.3;stroke-linecap:square;"/>
  <line y1="-6.914" x2="22.121" x1="19.621" y2="-6.601" style="fill:none;stroke:#000000;stroke-width:0.3;stroke-linecap:square;"/>
  <line y1="-4.226" x2="21.35" x1="18.058" y2="-4.31" style="fill:none;stroke:#000000;stroke-width:0.3;stroke-linecap:square;"/>
  <line y1="-2.289" x2="19.871" x1="19.183" y2="-4.226" style="fill:none;stroke:#000000;stroke-width:0.3;stroke-linecap:square;"/>
  <line y1="-55.935" x2="6.329" x1="2.256" y2="-51.331" style="fill:none;stroke:#000000;stroke-width:0.3;stroke-linecap:square;"/>
  <line y1="-53.408" x2="3.892" x1="1.6" y2="-50.817" style="fill:none;stroke:#000000;stroke-width:0.3;stroke-linecap:square;"/>
  <line y1="-53.406" x2="53.632" x1="55.933" y2="-55.935" style="fill:none;stroke:#000000;stroke-width:0.3;stroke-linecap:square;"/>
  <polyline points="55.933,-2.349 55.433,-2.914    52.621,-5.976   " style="fill:none;stroke:#000000;stroke-width:0.3;stroke-linecap:square;"/>
  <line y1="-6.289" x2="49.91" x1="49.871" y2="-6.239" style="fill:none;stroke:#000000;stroke-width:0.3;stroke-linecap:square;"/>
  <polyline points="53.694,-1.607 52.996,-2.351    49.91,-6.239   " style="fill:none;stroke:#000000;stroke-width:0.3;stroke-linecap:square;"/>
  <line y1="-2.664" x2="5.025" x1="4.083" y2="-1.601" style="fill:none;stroke:#000000;stroke-width:0.3;stroke-linecap:square;"/>
  <polyline points="5.558,-4.226 6.354,-3.268    7.659,-1.601   " style="fill:none;stroke:#000000;stroke-width:0.3;stroke-linecap:square;"/>
  <line y1="-2.33" x2="2.245" x1="1.6" y2="-1.601" style="fill:none;stroke:#000000;stroke-width:0.3;stroke-linecap:square;"/>
  <line y1="-12.246" x2="51.017" x1="47.806" y2="-12.518" style="fill:none;stroke:#000000;stroke-width:0.3;stroke-linecap:square;"/>
  <line y1="-11.601" x2="41.685" x1="40.183" y2="-11.728" style="fill:none;stroke:#000000;stroke-width:0.3;stroke-linecap:square;"/>
  <line y1="-11.601" x2="39.683" x1="40.183" y2="-9.476" style="fill:none;stroke:#000000;stroke-width:0.3;stroke-linecap:square;"/>
  <line y1="-12.246" x2="41.685" x1="47.806" y2="-11.728" style="fill:none;stroke:#000000;stroke-width:0.3;stroke-linecap:square;"/>
  <line y1="-6.785" x2="49.91" x1="43.285" y2="-6.239" style="fill:none;stroke:#000000;stroke-width:0.3;stroke-linecap:square;"/>
  <line y1="-6.789" x2="43.285" x1="43.246" y2="-6.785" style="fill:none;stroke:#000000;stroke-width:0.3;stroke-linecap:square;"/>
  <line y1="-6.239" x2="54.621" x1="49.91" y2="-5.851" style="fill:none;stroke:#000000;stroke-width:0.3;stroke-linecap:square;"/>
  <line y1="-6.289" x2="48.558" x1="48.308" y2="-2.226" style="fill:none;stroke:#000000;stroke-width:0.3;stroke-linecap:square;"/>
  <line y1="-4.101" x2="46.246" x1="46.371" y2="-6.476" style="fill:none;stroke:#000000;stroke-width:0.3;stroke-linecap:square;"/>
  <line y1="-10.351" x2="54.621" x1="39.933" y2="-10.539" style="fill:none;stroke:#000000;stroke-width:0.3;stroke-linecap:square;"/>
  <line y1="-7.976" x2="54.558" x1="41.802" y2="-7.914" style="fill:none;stroke:#000000;stroke-width:0.3;stroke-linecap:square;"/>
  <line y1="-7.976" x2="41.746" x1="41.802" y2="-7.976" style="fill:none;stroke:#000000;stroke-width:0.3;stroke-linecap:square;"/>
  <line y1="-12.289" x2="1.6" x1="2.746" y2="-11.745" style="fill:none;stroke:#000000;stroke-width:0.3;stroke-linecap:square;"/>
  <line y1="-10.789" x2="1.6" x1="3.746" y2="-9.671" style="fill:none;stroke:#000000;stroke-width:0.3;stroke-linecap:square;"/>
  <line y1="-7.601" x2="4.371" x1="5.871" y2="-3.039" style="fill:none;stroke:#000000;stroke-width:0.3;stroke-linecap:square;"/>
  <line y1="-4.039" x2="4.558" x1="2.496" y2="-9.476" style="fill:none;stroke:#000000;stroke-width:0.3;stroke-linecap:square;"/>
  <line y1="-7.524" x2="2.621" x1="1.6" y2="-10.164" style="fill:none;stroke:#000000;stroke-width:0.3;stroke-linecap:square;"/>
  <line y1="-2.664" x2="1.6" x1="3.996" y2="-4.7" style="fill:none;stroke:#000000;stroke-width:0.3;stroke-linecap:square;"/>
  <line y1="-11.101" x2="55.933" x1="54.621" y2="-11.725" style="fill:none;stroke:#000000;stroke-width:0.3;stroke-linecap:square;"/>
  <line y1="-9.07" x2="55.933" x1="54.746" y2="-9.686" style="fill:none;stroke:#000000;stroke-width:0.3;stroke-linecap:square;"/>
  <line y1="-5.476" x2="55.929" x1="55.183" y2="-7.529" style="fill:none;stroke:#000000;stroke-width:0.3;stroke-linecap:square;"/>
  <line y1="-10.539" x2="54.621" x1="54.621" y2="-11.101" style="fill:none;stroke:#000000;stroke-width:0.3;stroke-linecap:square;"/>
  <line y1="-4.67" x2="54.621" x1="55.929" y2="-5.851" style="fill:none;stroke:#000000;stroke-width:0.3;stroke-linecap:square;"/>
  <line y1="-11.101" x2="54.621" x1="54.621" y2="-12.789" style="fill:none;stroke:#000000;stroke-width:0.3;stroke-linecap:square;"/>
  <line y1="-10.539" x2="54.621" x1="54.621" y2="-5.851" style="fill:none;stroke:#000000;stroke-width:0.3;stroke-linecap:square;"/>
  <line y1="-39.271" x2="3.933" x1="4.115" y2="-34.851" style="fill:none;stroke:#000000;stroke-width:0.3;stroke-linecap:square;"/>
 </g>
</svg>
