<?xml version="1.0" encoding="utf-8"?>
<svg xmlns="http://www.w3.org/2000/svg" version="1.1" x="0px" y="0px" xml:space="preserve" width="80.559" height="80.5" viewBox="1 -81.5 80.559 80.5">
	<g>
		<rect x="1" y="-81.5" style="fill:none;" width="80.559" height="80.5"/>
		<line style="fill:none;stroke:#000000;stroke-width:0.3;" x1="9.625" y1="-78.25" x2="12.438" y2="-78.25"/>
		<line style="fill:none;stroke:#000000;stroke-width:0.3;" x1="11" y1="-79.75" x2="11" y2="-76.75"/>
		<line style="fill:none;stroke:#000000;stroke-width:0.3;" x1="9.625" y1="-64.875" x2="12.438" y2="-64.875"/>
		<line style="fill:none;stroke:#000000;stroke-width:0.3;" x1="11" y1="-66.375" x2="11" y2="-63.375"/>
		<line style="fill:none;stroke:#000000;stroke-width:0.3;" x1="23.062" y1="-64.875" x2="25.875" y2="-64.875"/>
		<line style="fill:none;stroke:#000000;stroke-width:0.3;" x1="24.438" y1="-66.375" x2="24.438" y2="-63.375"/>
		<line style="fill:none;stroke:#000000;stroke-width:0.3;" x1="36.479" y1="-64.875" x2="39.292" y2="-64.875"/>
		<line style="fill:none;stroke:#000000;stroke-width:0.3;" x1="37.854" y1="-66.375" x2="37.854" y2="-63.375"/>
		<line style="fill:none;stroke:#000000;stroke-width:0.3;" x1="36.479" y1="-78.188" x2="39.292" y2="-78.188"/>
		<line style="fill:none;stroke:#000000;stroke-width:0.3;" x1="37.854" y1="-79.688" x2="37.854" y2="-76.688"/>
		<line style="fill:none;stroke:#000000;stroke-width:0.3;" x1="23.083" y1="-78.188" x2="25.896" y2="-78.188"/>
		<line style="fill:none;stroke:#000000;stroke-width:0.3;" x1="24.458" y1="-79.688" x2="24.458" y2="-76.688"/>
		<line style="fill:none;stroke:#000000;stroke-width:0.3;" x1="29.781" y1="-71.49" x2="32.594" y2="-71.49"/>
		<line style="fill:none;stroke:#000000;stroke-width:0.3;" x1="31.156" y1="-72.99" x2="31.156" y2="-69.99"/>
		<line style="fill:none;stroke:#000000;stroke-width:0.3;" x1="2.996" y1="-71.562" x2="5.808" y2="-71.562"/>
		<line style="fill:none;stroke:#000000;stroke-width:0.3;" x1="4.371" y1="-73.062" x2="4.371" y2="-70.062"/>
		<line style="fill:none;stroke:#000000;stroke-width:0.3;" x1="16.4" y1="-71.562" x2="19.212" y2="-71.562"/>
		<line style="fill:none;stroke:#000000;stroke-width:0.3;" x1="17.775" y1="-73.062" x2="17.775" y2="-70.062"/>
		<line style="fill:none;stroke:#000000;stroke-width:0.3;" x1="9.625" y1="-51.479" x2="12.438" y2="-51.479"/>
		<line style="fill:none;stroke:#000000;stroke-width:0.3;" x1="11" y1="-52.979" x2="11" y2="-49.979"/>
		<line style="fill:none;stroke:#000000;stroke-width:0.3;" x1="36.479" y1="-51.417" x2="39.292" y2="-51.417"/>
		<line style="fill:none;stroke:#000000;stroke-width:0.3;" x1="37.854" y1="-52.917" x2="37.854" y2="-49.917"/>
		<line style="fill:none;stroke:#000000;stroke-width:0.3;" x1="23.083" y1="-51.417" x2="25.896" y2="-51.417"/>
		<line style="fill:none;stroke:#000000;stroke-width:0.3;" x1="24.458" y1="-52.917" x2="24.458" y2="-49.917"/>
		<line style="fill:none;stroke:#000000;stroke-width:0.3;" x1="29.781" y1="-44.719" x2="32.594" y2="-44.719"/>
		<line style="fill:none;stroke:#000000;stroke-width:0.3;" x1="31.156" y1="-46.219" x2="31.156" y2="-43.219"/>
		<line style="fill:none;stroke:#000000;stroke-width:0.3;" x1="2.996" y1="-44.792" x2="5.808" y2="-44.792"/>
		<line style="fill:none;stroke:#000000;stroke-width:0.3;" x1="4.371" y1="-46.292" x2="4.371" y2="-43.292"/>
		<line style="fill:none;stroke:#000000;stroke-width:0.3;" x1="2.996" y1="-58.104" x2="5.808" y2="-58.104"/>
		<line style="fill:none;stroke:#000000;stroke-width:0.3;" x1="4.371" y1="-59.604" x2="4.371" y2="-56.604"/>
		<line style="fill:none;stroke:#000000;stroke-width:0.3;" x1="16.391" y1="-58.104" x2="19.204" y2="-58.104"/>
		<line style="fill:none;stroke:#000000;stroke-width:0.3;" x1="17.766" y1="-59.604" x2="17.766" y2="-56.604"/>
		<line style="fill:none;stroke:#000000;stroke-width:0.3;" x1="29.829" y1="-58.104" x2="32.641" y2="-58.104"/>
		<line style="fill:none;stroke:#000000;stroke-width:0.3;" x1="31.204" y1="-59.604" x2="31.204" y2="-56.604"/>
		<line style="fill:none;stroke:#000000;stroke-width:0.3;" x1="16.4" y1="-44.792" x2="19.212" y2="-44.792"/>
		<line style="fill:none;stroke:#000000;stroke-width:0.3;" x1="17.775" y1="-46.292" x2="17.775" y2="-43.292"/>
		<line style="fill:none;stroke:#000000;stroke-width:0.3;" x1="49.934" y1="-78.25" x2="52.746" y2="-78.25"/>
		<line style="fill:none;stroke:#000000;stroke-width:0.3;" x1="51.309" y1="-79.75" x2="51.309" y2="-76.75"/>
		<line style="fill:none;stroke:#000000;stroke-width:0.3;" x1="49.934" y1="-64.875" x2="52.746" y2="-64.875"/>
		<line style="fill:none;stroke:#000000;stroke-width:0.3;" x1="51.309" y1="-66.375" x2="51.309" y2="-63.375"/>
		<line style="fill:none;stroke:#000000;stroke-width:0.3;" x1="63.371" y1="-64.875" x2="66.184" y2="-64.875"/>
		<line style="fill:none;stroke:#000000;stroke-width:0.3;" x1="64.746" y1="-66.375" x2="64.746" y2="-63.375"/>
		<line style="fill:none;stroke:#000000;stroke-width:0.3;" x1="76.788" y1="-64.875" x2="79.6" y2="-64.875"/>
		<line style="fill:none;stroke:#000000;stroke-width:0.3;" x1="78.163" y1="-66.375" x2="78.163" y2="-63.375"/>
		<line style="fill:none;stroke:#000000;stroke-width:0.3;" x1="76.788" y1="-78.188" x2="79.6" y2="-78.188"/>
		<line style="fill:none;stroke:#000000;stroke-width:0.3;" x1="78.163" y1="-79.688" x2="78.163" y2="-76.688"/>
		<line style="fill:none;stroke:#000000;stroke-width:0.3;" x1="63.392" y1="-78.188" x2="66.205" y2="-78.188"/>
		<line style="fill:none;stroke:#000000;stroke-width:0.3;" x1="64.767" y1="-79.688" x2="64.767" y2="-76.688"/>
		<line style="fill:none;stroke:#000000;stroke-width:0.3;" x1="70.09" y1="-71.49" x2="72.902" y2="-71.49"/>
		<line style="fill:none;stroke:#000000;stroke-width:0.3;" x1="71.465" y1="-72.99" x2="71.465" y2="-69.99"/>
		<line style="fill:none;stroke:#000000;stroke-width:0.3;" x1="43.304" y1="-71.562" x2="46.117" y2="-71.562"/>
		<line style="fill:none;stroke:#000000;stroke-width:0.3;" x1="44.679" y1="-73.062" x2="44.679" y2="-70.062"/>
		<line style="fill:none;stroke:#000000;stroke-width:0.3;" x1="56.708" y1="-71.562" x2="59.521" y2="-71.562"/>
		<line style="fill:none;stroke:#000000;stroke-width:0.3;" x1="58.083" y1="-73.062" x2="58.083" y2="-70.062"/>
		<line style="fill:none;stroke:#000000;stroke-width:0.3;" x1="49.934" y1="-51.479" x2="52.746" y2="-51.479"/>
		<line style="fill:none;stroke:#000000;stroke-width:0.3;" x1="51.309" y1="-52.979" x2="51.309" y2="-49.979"/>
		<line style="fill:none;stroke:#000000;stroke-width:0.3;" x1="76.788" y1="-51.417" x2="79.6" y2="-51.417"/>
		<line style="fill:none;stroke:#000000;stroke-width:0.3;" x1="78.163" y1="-52.917" x2="78.163" y2="-49.917"/>
		<line style="fill:none;stroke:#000000;stroke-width:0.3;" x1="63.392" y1="-51.417" x2="66.205" y2="-51.417"/>
		<line style="fill:none;stroke:#000000;stroke-width:0.3;" x1="64.767" y1="-52.917" x2="64.767" y2="-49.917"/>
		<line style="fill:none;stroke:#000000;stroke-width:0.3;" x1="70.09" y1="-44.719" x2="72.902" y2="-44.719"/>
		<line style="fill:none;stroke:#000000;stroke-width:0.3;" x1="71.465" y1="-46.219" x2="71.465" y2="-43.219"/>
		<line style="fill:none;stroke:#000000;stroke-width:0.3;" x1="43.304" y1="-44.792" x2="46.117" y2="-44.792"/>
		<line style="fill:none;stroke:#000000;stroke-width:0.3;" x1="44.679" y1="-46.292" x2="44.679" y2="-43.292"/>
		<line style="fill:none;stroke:#000000;stroke-width:0.3;" x1="43.304" y1="-58.104" x2="46.117" y2="-58.104"/>
		<line style="fill:none;stroke:#000000;stroke-width:0.3;" x1="44.679" y1="-59.604" x2="44.679" y2="-56.604"/>
		<line style="fill:none;stroke:#000000;stroke-width:0.3;" x1="56.7" y1="-58.104" x2="59.513" y2="-58.104"/>
		<line style="fill:none;stroke:#000000;stroke-width:0.3;" x1="58.075" y1="-59.604" x2="58.075" y2="-56.604"/>
		<line style="fill:none;stroke:#000000;stroke-width:0.3;" x1="70.138" y1="-58.104" x2="72.95" y2="-58.104"/>
		<line style="fill:none;stroke:#000000;stroke-width:0.3;" x1="71.513" y1="-59.604" x2="71.513" y2="-56.604"/>
		<line style="fill:none;stroke:#000000;stroke-width:0.3;" x1="56.708" y1="-44.792" x2="59.521" y2="-44.792"/>
		<line style="fill:none;stroke:#000000;stroke-width:0.3;" x1="58.083" y1="-46.292" x2="58.083" y2="-43.292"/>
		<line style="fill:none;stroke:#000000;stroke-width:0.3;" x1="9.625" y1="-38" x2="12.438" y2="-38"/>
		<line style="fill:none;stroke:#000000;stroke-width:0.3;" x1="11" y1="-39.5" x2="11" y2="-36.5"/>
		<line style="fill:none;stroke:#000000;stroke-width:0.3;" x1="9.625" y1="-24.625" x2="12.438" y2="-24.625"/>
		<line style="fill:none;stroke:#000000;stroke-width:0.3;" x1="11" y1="-26.125" x2="11" y2="-23.125"/>
		<line style="fill:none;stroke:#000000;stroke-width:0.3;" x1="23.062" y1="-24.625" x2="25.875" y2="-24.625"/>
		<line style="fill:none;stroke:#000000;stroke-width:0.3;" x1="24.438" y1="-26.125" x2="24.438" y2="-23.125"/>
		<line style="fill:none;stroke:#000000;stroke-width:0.3;" x1="36.479" y1="-24.625" x2="39.292" y2="-24.625"/>
		<line style="fill:none;stroke:#000000;stroke-width:0.3;" x1="37.854" y1="-26.125" x2="37.854" y2="-23.125"/>
		<line style="fill:none;stroke:#000000;stroke-width:0.3;" x1="36.479" y1="-37.938" x2="39.292" y2="-37.938"/>
		<line style="fill:none;stroke:#000000;stroke-width:0.3;" x1="37.854" y1="-39.438" x2="37.854" y2="-36.438"/>
		<line style="fill:none;stroke:#000000;stroke-width:0.3;" x1="23.083" y1="-37.938" x2="25.896" y2="-37.938"/>
		<line style="fill:none;stroke:#000000;stroke-width:0.3;" x1="24.458" y1="-39.438" x2="24.458" y2="-36.438"/>
		<line style="fill:none;stroke:#000000;stroke-width:0.3;" x1="29.781" y1="-31.24" x2="32.594" y2="-31.24"/>
		<line style="fill:none;stroke:#000000;stroke-width:0.3;" x1="31.156" y1="-32.74" x2="31.156" y2="-29.74"/>
		<line style="fill:none;stroke:#000000;stroke-width:0.3;" x1="2.996" y1="-31.312" x2="5.808" y2="-31.312"/>
		<line style="fill:none;stroke:#000000;stroke-width:0.3;" x1="4.371" y1="-32.812" x2="4.371" y2="-29.812"/>
		<line style="fill:none;stroke:#000000;stroke-width:0.3;" x1="16.4" y1="-31.312" x2="19.212" y2="-31.312"/>
		<line style="fill:none;stroke:#000000;stroke-width:0.3;" x1="17.775" y1="-32.812" x2="17.775" y2="-29.812"/>
		<line style="fill:none;stroke:#000000;stroke-width:0.3;" x1="9.625" y1="-11.229" x2="12.438" y2="-11.229"/>
		<line style="fill:none;stroke:#000000;stroke-width:0.3;" x1="11" y1="-12.729" x2="11" y2="-9.729"/>
		<line style="fill:none;stroke:#000000;stroke-width:0.3;" x1="36.479" y1="-11.167" x2="39.292" y2="-11.167"/>
		<line style="fill:none;stroke:#000000;stroke-width:0.3;" x1="37.854" y1="-12.667" x2="37.854" y2="-9.667"/>
		<line style="fill:none;stroke:#000000;stroke-width:0.3;" x1="23.083" y1="-11.167" x2="25.896" y2="-11.167"/>
		<line style="fill:none;stroke:#000000;stroke-width:0.3;" x1="24.458" y1="-12.667" x2="24.458" y2="-9.667"/>
		<line style="fill:none;stroke:#000000;stroke-width:0.3;" x1="29.781" y1="-4.469" x2="32.594" y2="-4.469"/>
		<line style="fill:none;stroke:#000000;stroke-width:0.3;" x1="31.156" y1="-5.969" x2="31.156" y2="-2.969"/>
		<line style="fill:none;stroke:#000000;stroke-width:0.3;" x1="2.996" y1="-4.542" x2="5.808" y2="-4.542"/>
		<line style="fill:none;stroke:#000000;stroke-width:0.3;" x1="4.371" y1="-6.042" x2="4.371" y2="-3.042"/>
		<line style="fill:none;stroke:#000000;stroke-width:0.3;" x1="2.996" y1="-17.854" x2="5.808" y2="-17.854"/>
		<line style="fill:none;stroke:#000000;stroke-width:0.3;" x1="4.371" y1="-19.354" x2="4.371" y2="-16.354"/>
		<line style="fill:none;stroke:#000000;stroke-width:0.3;" x1="16.391" y1="-17.854" x2="19.204" y2="-17.854"/>
		<line style="fill:none;stroke:#000000;stroke-width:0.3;" x1="17.766" y1="-19.354" x2="17.766" y2="-16.354"/>
		<line style="fill:none;stroke:#000000;stroke-width:0.3;" x1="29.829" y1="-17.854" x2="32.641" y2="-17.854"/>
		<line style="fill:none;stroke:#000000;stroke-width:0.3;" x1="31.204" y1="-19.354" x2="31.204" y2="-16.354"/>
		<line style="fill:none;stroke:#000000;stroke-width:0.3;" x1="16.4" y1="-4.542" x2="19.212" y2="-4.542"/>
		<line style="fill:none;stroke:#000000;stroke-width:0.3;" x1="17.775" y1="-6.042" x2="17.775" y2="-3.042"/>
		<line style="fill:none;stroke:#000000;stroke-width:0.3;" x1="49.934" y1="-38" x2="52.746" y2="-38"/>
		<line style="fill:none;stroke:#000000;stroke-width:0.3;" x1="51.309" y1="-39.5" x2="51.309" y2="-36.5"/>
		<line style="fill:none;stroke:#000000;stroke-width:0.3;" x1="49.934" y1="-24.625" x2="52.746" y2="-24.625"/>
		<line style="fill:none;stroke:#000000;stroke-width:0.3;" x1="51.309" y1="-26.125" x2="51.309" y2="-23.125"/>
		<line style="fill:none;stroke:#000000;stroke-width:0.3;" x1="63.371" y1="-24.625" x2="66.184" y2="-24.625"/>
		<line style="fill:none;stroke:#000000;stroke-width:0.3;" x1="64.746" y1="-26.125" x2="64.746" y2="-23.125"/>
		<line style="fill:none;stroke:#000000;stroke-width:0.3;" x1="76.788" y1="-24.625" x2="79.6" y2="-24.625"/>
		<line style="fill:none;stroke:#000000;stroke-width:0.3;" x1="78.163" y1="-26.125" x2="78.163" y2="-23.125"/>
		<line style="fill:none;stroke:#000000;stroke-width:0.3;" x1="76.788" y1="-37.938" x2="79.6" y2="-37.938"/>
		<line style="fill:none;stroke:#000000;stroke-width:0.3;" x1="78.163" y1="-39.438" x2="78.163" y2="-36.438"/>
		<line style="fill:none;stroke:#000000;stroke-width:0.3;" x1="63.392" y1="-37.938" x2="66.205" y2="-37.938"/>
		<line style="fill:none;stroke:#000000;stroke-width:0.3;" x1="64.767" y1="-39.438" x2="64.767" y2="-36.438"/>
		<line style="fill:none;stroke:#000000;stroke-width:0.3;" x1="70.09" y1="-31.24" x2="72.902" y2="-31.24"/>
		<line style="fill:none;stroke:#000000;stroke-width:0.3;" x1="71.465" y1="-32.74" x2="71.465" y2="-29.74"/>
		<line style="fill:none;stroke:#000000;stroke-width:0.3;" x1="43.304" y1="-31.312" x2="46.117" y2="-31.312"/>
		<line style="fill:none;stroke:#000000;stroke-width:0.3;" x1="44.679" y1="-32.812" x2="44.679" y2="-29.812"/>
		<line style="fill:none;stroke:#000000;stroke-width:0.3;" x1="56.708" y1="-31.312" x2="59.521" y2="-31.312"/>
		<line style="fill:none;stroke:#000000;stroke-width:0.3;" x1="58.083" y1="-32.812" x2="58.083" y2="-29.812"/>
		<line style="fill:none;stroke:#000000;stroke-width:0.3;" x1="49.934" y1="-11.229" x2="52.746" y2="-11.229"/>
		<line style="fill:none;stroke:#000000;stroke-width:0.3;" x1="51.309" y1="-12.729" x2="51.309" y2="-9.729"/>
		<line style="fill:none;stroke:#000000;stroke-width:0.3;" x1="76.788" y1="-11.167" x2="79.6" y2="-11.167"/>
		<line style="fill:none;stroke:#000000;stroke-width:0.3;" x1="78.163" y1="-12.667" x2="78.163" y2="-9.667"/>
		<line style="fill:none;stroke:#000000;stroke-width:0.3;" x1="63.392" y1="-11.167" x2="66.205" y2="-11.167"/>
		<line style="fill:none;stroke:#000000;stroke-width:0.3;" x1="64.767" y1="-12.667" x2="64.767" y2="-9.667"/>
		<line style="fill:none;stroke:#000000;stroke-width:0.3;" x1="70.09" y1="-4.469" x2="72.902" y2="-4.469"/>
		<line style="fill:none;stroke:#000000;stroke-width:0.3;" x1="71.465" y1="-5.969" x2="71.465" y2="-2.969"/>
		<line style="fill:none;stroke:#000000;stroke-width:0.3;" x1="43.304" y1="-4.542" x2="46.117" y2="-4.542"/>
		<line style="fill:none;stroke:#000000;stroke-width:0.3;" x1="44.679" y1="-6.042" x2="44.679" y2="-3.042"/>
		<line style="fill:none;stroke:#000000;stroke-width:0.3;" x1="43.304" y1="-17.854" x2="46.117" y2="-17.854"/>
		<line style="fill:none;stroke:#000000;stroke-width:0.3;" x1="44.679" y1="-19.354" x2="44.679" y2="-16.354"/>
		<line style="fill:none;stroke:#000000;stroke-width:0.3;" x1="56.7" y1="-17.854" x2="59.513" y2="-17.854"/>
		<line style="fill:none;stroke:#000000;stroke-width:0.3;" x1="58.075" y1="-19.354" x2="58.075" y2="-16.354"/>
		<line style="fill:none;stroke:#000000;stroke-width:0.3;" x1="70.138" y1="-17.854" x2="72.95" y2="-17.854"/>
		<line style="fill:none;stroke:#000000;stroke-width:0.3;" x1="71.513" y1="-19.354" x2="71.513" y2="-16.354"/>
		<line style="fill:none;stroke:#000000;stroke-width:0.3;" x1="56.708" y1="-4.542" x2="59.521" y2="-4.542"/>
		<line style="fill:none;stroke:#000000;stroke-width:0.3;" x1="58.083" y1="-6.042" x2="58.083" y2="-3.042"/>
	</g>
</svg>
