<?xml version="1.0"?>
<!-- Converted with SVG Converter - Version 0.9.5 (Compiled Fri Feb 21 09:53:38 2020) - Copyright (C) 2011 Nokia -->
<svg xmlns="http://www.w3.org/2000/svg" x="0px" height="80.5" viewBox="1 -81.5 80.559 80.5" width="80.559" version="1.1" y="0px" xml:space="preserve" xmlns:xlink="http://www.w3.org/1999/xlink" baseProfile="tiny">
 <g>
  <rect x="1" height="80.5" width="80.559" y="-81.5" style="fill:none;"/>
  <line x2="12.438" y1="-78.25" y2="-78.25" style="fill:none;stroke:#000000;stroke-width:0.3;" x1="9.625"/>
  <line x2="11" y1="-79.75" y2="-76.75" style="fill:none;stroke:#000000;stroke-width:0.3;" x1="11"/>
  <line x2="12.438" y1="-64.875" y2="-64.875" style="fill:none;stroke:#000000;stroke-width:0.3;" x1="9.625"/>
  <line x2="11" y1="-66.375" y2="-63.375" style="fill:none;stroke:#000000;stroke-width:0.3;" x1="11"/>
  <line x2="25.875" y1="-64.875" y2="-64.875" style="fill:none;stroke:#000000;stroke-width:0.3;" x1="23.062"/>
  <line x2="24.438" y1="-66.375" y2="-63.375" style="fill:none;stroke:#000000;stroke-width:0.3;" x1="24.438"/>
  <line x2="39.292" y1="-64.875" y2="-64.875" style="fill:none;stroke:#000000;stroke-width:0.3;" x1="36.479"/>
  <line x2="37.854" y1="-66.375" y2="-63.375" style="fill:none;stroke:#000000;stroke-width:0.3;" x1="37.854"/>
  <line x2="39.292" y1="-78.188" y2="-78.188" style="fill:none;stroke:#000000;stroke-width:0.3;" x1="36.479"/>
  <line x2="37.854" y1="-79.688" y2="-76.688" style="fill:none;stroke:#000000;stroke-width:0.3;" x1="37.854"/>
  <line x2="25.896" y1="-78.188" y2="-78.188" style="fill:none;stroke:#000000;stroke-width:0.3;" x1="23.083"/>
  <line x2="24.458" y1="-79.688" y2="-76.688" style="fill:none;stroke:#000000;stroke-width:0.3;" x1="24.458"/>
  <line x2="32.594" y1="-71.49" y2="-71.49" style="fill:none;stroke:#000000;stroke-width:0.3;" x1="29.781"/>
  <line x2="31.156" y1="-72.99" y2="-69.99" style="fill:none;stroke:#000000;stroke-width:0.3;" x1="31.156"/>
  <line x2="5.808" y1="-71.562" y2="-71.562" style="fill:none;stroke:#000000;stroke-width:0.3;" x1="2.996"/>
  <line x2="4.371" y1="-73.062" y2="-70.062" style="fill:none;stroke:#000000;stroke-width:0.3;" x1="4.371"/>
  <line x2="19.212" y1="-71.562" y2="-71.562" style="fill:none;stroke:#000000;stroke-width:0.3;" x1="16.4"/>
  <line x2="17.775" y1="-73.062" y2="-70.062" style="fill:none;stroke:#000000;stroke-width:0.3;" x1="17.775"/>
  <line x2="12.438" y1="-51.479" y2="-51.479" style="fill:none;stroke:#000000;stroke-width:0.3;" x1="9.625"/>
  <line x2="11" y1="-52.979" y2="-49.979" style="fill:none;stroke:#000000;stroke-width:0.3;" x1="11"/>
  <line x2="39.292" y1="-51.417" y2="-51.417" style="fill:none;stroke:#000000;stroke-width:0.3;" x1="36.479"/>
  <line x2="37.854" y1="-52.917" y2="-49.917" style="fill:none;stroke:#000000;stroke-width:0.3;" x1="37.854"/>
  <line x2="25.896" y1="-51.417" y2="-51.417" style="fill:none;stroke:#000000;stroke-width:0.3;" x1="23.083"/>
  <line x2="24.458" y1="-52.917" y2="-49.917" style="fill:none;stroke:#000000;stroke-width:0.3;" x1="24.458"/>
  <line x2="32.594" y1="-44.719" y2="-44.719" style="fill:none;stroke:#000000;stroke-width:0.3;" x1="29.781"/>
  <line x2="31.156" y1="-46.219" y2="-43.219" style="fill:none;stroke:#000000;stroke-width:0.3;" x1="31.156"/>
  <line x2="5.808" y1="-44.792" y2="-44.792" style="fill:none;stroke:#000000;stroke-width:0.3;" x1="2.996"/>
  <line x2="4.371" y1="-46.292" y2="-43.292" style="fill:none;stroke:#000000;stroke-width:0.3;" x1="4.371"/>
  <line x2="5.808" y1="-58.104" y2="-58.104" style="fill:none;stroke:#000000;stroke-width:0.3;" x1="2.996"/>
  <line x2="4.371" y1="-59.604" y2="-56.604" style="fill:none;stroke:#000000;stroke-width:0.3;" x1="4.371"/>
  <line x2="19.204" y1="-58.104" y2="-58.104" style="fill:none;stroke:#000000;stroke-width:0.3;" x1="16.391"/>
  <line x2="17.766" y1="-59.604" y2="-56.604" style="fill:none;stroke:#000000;stroke-width:0.3;" x1="17.766"/>
  <line x2="32.641" y1="-58.104" y2="-58.104" style="fill:none;stroke:#000000;stroke-width:0.3;" x1="29.829"/>
  <line x2="31.204" y1="-59.604" y2="-56.604" style="fill:none;stroke:#000000;stroke-width:0.3;" x1="31.204"/>
  <line x2="19.212" y1="-44.792" y2="-44.792" style="fill:none;stroke:#000000;stroke-width:0.3;" x1="16.4"/>
  <line x2="17.775" y1="-46.292" y2="-43.292" style="fill:none;stroke:#000000;stroke-width:0.3;" x1="17.775"/>
  <line x2="52.746" y1="-78.25" y2="-78.25" style="fill:none;stroke:#000000;stroke-width:0.3;" x1="49.934"/>
  <line x2="51.309" y1="-79.75" y2="-76.75" style="fill:none;stroke:#000000;stroke-width:0.3;" x1="51.309"/>
  <line x2="52.746" y1="-64.875" y2="-64.875" style="fill:none;stroke:#000000;stroke-width:0.3;" x1="49.934"/>
  <line x2="51.309" y1="-66.375" y2="-63.375" style="fill:none;stroke:#000000;stroke-width:0.3;" x1="51.309"/>
  <line x2="66.184" y1="-64.875" y2="-64.875" style="fill:none;stroke:#000000;stroke-width:0.3;" x1="63.371"/>
  <line x2="64.746" y1="-66.375" y2="-63.375" style="fill:none;stroke:#000000;stroke-width:0.3;" x1="64.746"/>
  <line x2="79.6" y1="-64.875" y2="-64.875" style="fill:none;stroke:#000000;stroke-width:0.3;" x1="76.788"/>
  <line x2="78.163" y1="-66.375" y2="-63.375" style="fill:none;stroke:#000000;stroke-width:0.3;" x1="78.163"/>
  <line x2="79.6" y1="-78.188" y2="-78.188" style="fill:none;stroke:#000000;stroke-width:0.3;" x1="76.788"/>
  <line x2="78.163" y1="-79.688" y2="-76.688" style="fill:none;stroke:#000000;stroke-width:0.3;" x1="78.163"/>
  <line x2="66.205" y1="-78.188" y2="-78.188" style="fill:none;stroke:#000000;stroke-width:0.3;" x1="63.392"/>
  <line x2="64.767" y1="-79.688" y2="-76.688" style="fill:none;stroke:#000000;stroke-width:0.3;" x1="64.767"/>
  <line x2="72.902" y1="-71.49" y2="-71.49" style="fill:none;stroke:#000000;stroke-width:0.3;" x1="70.09"/>
  <line x2="71.465" y1="-72.99" y2="-69.99" style="fill:none;stroke:#000000;stroke-width:0.3;" x1="71.465"/>
  <line x2="46.117" y1="-71.562" y2="-71.562" style="fill:none;stroke:#000000;stroke-width:0.3;" x1="43.304"/>
  <line x2="44.679" y1="-73.062" y2="-70.062" style="fill:none;stroke:#000000;stroke-width:0.3;" x1="44.679"/>
  <line x2="59.521" y1="-71.562" y2="-71.562" style="fill:none;stroke:#000000;stroke-width:0.3;" x1="56.708"/>
  <line x2="58.083" y1="-73.062" y2="-70.062" style="fill:none;stroke:#000000;stroke-width:0.3;" x1="58.083"/>
  <line x2="52.746" y1="-51.479" y2="-51.479" style="fill:none;stroke:#000000;stroke-width:0.3;" x1="49.934"/>
  <line x2="51.309" y1="-52.979" y2="-49.979" style="fill:none;stroke:#000000;stroke-width:0.3;" x1="51.309"/>
  <line x2="79.6" y1="-51.417" y2="-51.417" style="fill:none;stroke:#000000;stroke-width:0.3;" x1="76.788"/>
  <line x2="78.163" y1="-52.917" y2="-49.917" style="fill:none;stroke:#000000;stroke-width:0.3;" x1="78.163"/>
  <line x2="66.205" y1="-51.417" y2="-51.417" style="fill:none;stroke:#000000;stroke-width:0.3;" x1="63.392"/>
  <line x2="64.767" y1="-52.917" y2="-49.917" style="fill:none;stroke:#000000;stroke-width:0.3;" x1="64.767"/>
  <line x2="72.902" y1="-44.719" y2="-44.719" style="fill:none;stroke:#000000;stroke-width:0.3;" x1="70.09"/>
  <line x2="71.465" y1="-46.219" y2="-43.219" style="fill:none;stroke:#000000;stroke-width:0.3;" x1="71.465"/>
  <line x2="46.117" y1="-44.792" y2="-44.792" style="fill:none;stroke:#000000;stroke-width:0.3;" x1="43.304"/>
  <line x2="44.679" y1="-46.292" y2="-43.292" style="fill:none;stroke:#000000;stroke-width:0.3;" x1="44.679"/>
  <line x2="46.117" y1="-58.104" y2="-58.104" style="fill:none;stroke:#000000;stroke-width:0.3;" x1="43.304"/>
  <line x2="44.679" y1="-59.604" y2="-56.604" style="fill:none;stroke:#000000;stroke-width:0.3;" x1="44.679"/>
  <line x2="59.513" y1="-58.104" y2="-58.104" style="fill:none;stroke:#000000;stroke-width:0.3;" x1="56.7"/>
  <line x2="58.075" y1="-59.604" y2="-56.604" style="fill:none;stroke:#000000;stroke-width:0.3;" x1="58.075"/>
  <line x2="72.95" y1="-58.104" y2="-58.104" style="fill:none;stroke:#000000;stroke-width:0.3;" x1="70.138"/>
  <line x2="71.513" y1="-59.604" y2="-56.604" style="fill:none;stroke:#000000;stroke-width:0.3;" x1="71.513"/>
  <line x2="59.521" y1="-44.792" y2="-44.792" style="fill:none;stroke:#000000;stroke-width:0.3;" x1="56.708"/>
  <line x2="58.083" y1="-46.292" y2="-43.292" style="fill:none;stroke:#000000;stroke-width:0.3;" x1="58.083"/>
  <line x2="12.438" y1="-38" y2="-38" style="fill:none;stroke:#000000;stroke-width:0.3;" x1="9.625"/>
  <line x2="11" y1="-39.5" y2="-36.5" style="fill:none;stroke:#000000;stroke-width:0.3;" x1="11"/>
  <line x2="12.438" y1="-24.625" y2="-24.625" style="fill:none;stroke:#000000;stroke-width:0.3;" x1="9.625"/>
  <line x2="11" y1="-26.125" y2="-23.125" style="fill:none;stroke:#000000;stroke-width:0.3;" x1="11"/>
  <line x2="25.875" y1="-24.625" y2="-24.625" style="fill:none;stroke:#000000;stroke-width:0.3;" x1="23.062"/>
  <line x2="24.438" y1="-26.125" y2="-23.125" style="fill:none;stroke:#000000;stroke-width:0.3;" x1="24.438"/>
  <line x2="39.292" y1="-24.625" y2="-24.625" style="fill:none;stroke:#000000;stroke-width:0.3;" x1="36.479"/>
  <line x2="37.854" y1="-26.125" y2="-23.125" style="fill:none;stroke:#000000;stroke-width:0.3;" x1="37.854"/>
  <line x2="39.292" y1="-37.938" y2="-37.938" style="fill:none;stroke:#000000;stroke-width:0.3;" x1="36.479"/>
  <line x2="37.854" y1="-39.438" y2="-36.438" style="fill:none;stroke:#000000;stroke-width:0.3;" x1="37.854"/>
  <line x2="25.896" y1="-37.938" y2="-37.938" style="fill:none;stroke:#000000;stroke-width:0.3;" x1="23.083"/>
  <line x2="24.458" y1="-39.438" y2="-36.438" style="fill:none;stroke:#000000;stroke-width:0.3;" x1="24.458"/>
  <line x2="32.594" y1="-31.24" y2="-31.24" style="fill:none;stroke:#000000;stroke-width:0.3;" x1="29.781"/>
  <line x2="31.156" y1="-32.74" y2="-29.74" style="fill:none;stroke:#000000;stroke-width:0.3;" x1="31.156"/>
  <line x2="5.808" y1="-31.312" y2="-31.312" style="fill:none;stroke:#000000;stroke-width:0.3;" x1="2.996"/>
  <line x2="4.371" y1="-32.812" y2="-29.812" style="fill:none;stroke:#000000;stroke-width:0.3;" x1="4.371"/>
  <line x2="19.212" y1="-31.312" y2="-31.312" style="fill:none;stroke:#000000;stroke-width:0.3;" x1="16.4"/>
  <line x2="17.775" y1="-32.812" y2="-29.812" style="fill:none;stroke:#000000;stroke-width:0.3;" x1="17.775"/>
  <line x2="12.438" y1="-11.229" y2="-11.229" style="fill:none;stroke:#000000;stroke-width:0.3;" x1="9.625"/>
  <line x2="11" y1="-12.729" y2="-9.729" style="fill:none;stroke:#000000;stroke-width:0.3;" x1="11"/>
  <line x2="39.292" y1="-11.167" y2="-11.167" style="fill:none;stroke:#000000;stroke-width:0.3;" x1="36.479"/>
  <line x2="37.854" y1="-12.667" y2="-9.667" style="fill:none;stroke:#000000;stroke-width:0.3;" x1="37.854"/>
  <line x2="25.896" y1="-11.167" y2="-11.167" style="fill:none;stroke:#000000;stroke-width:0.3;" x1="23.083"/>
  <line x2="24.458" y1="-12.667" y2="-9.667" style="fill:none;stroke:#000000;stroke-width:0.3;" x1="24.458"/>
  <line x2="32.594" y1="-4.469" y2="-4.469" style="fill:none;stroke:#000000;stroke-width:0.3;" x1="29.781"/>
  <line x2="31.156" y1="-5.969" y2="-2.969" style="fill:none;stroke:#000000;stroke-width:0.3;" x1="31.156"/>
  <line x2="5.808" y1="-4.542" y2="-4.542" style="fill:none;stroke:#000000;stroke-width:0.3;" x1="2.996"/>
  <line x2="4.371" y1="-6.042" y2="-3.042" style="fill:none;stroke:#000000;stroke-width:0.3;" x1="4.371"/>
  <line x2="5.808" y1="-17.854" y2="-17.854" style="fill:none;stroke:#000000;stroke-width:0.3;" x1="2.996"/>
  <line x2="4.371" y1="-19.354" y2="-16.354" style="fill:none;stroke:#000000;stroke-width:0.3;" x1="4.371"/>
  <line x2="19.204" y1="-17.854" y2="-17.854" style="fill:none;stroke:#000000;stroke-width:0.3;" x1="16.391"/>
  <line x2="17.766" y1="-19.354" y2="-16.354" style="fill:none;stroke:#000000;stroke-width:0.3;" x1="17.766"/>
  <line x2="32.641" y1="-17.854" y2="-17.854" style="fill:none;stroke:#000000;stroke-width:0.3;" x1="29.829"/>
  <line x2="31.204" y1="-19.354" y2="-16.354" style="fill:none;stroke:#000000;stroke-width:0.3;" x1="31.204"/>
  <line x2="19.212" y1="-4.542" y2="-4.542" style="fill:none;stroke:#000000;stroke-width:0.3;" x1="16.4"/>
  <line x2="17.775" y1="-6.042" y2="-3.042" style="fill:none;stroke:#000000;stroke-width:0.3;" x1="17.775"/>
  <line x2="52.746" y1="-38" y2="-38" style="fill:none;stroke:#000000;stroke-width:0.3;" x1="49.934"/>
  <line x2="51.309" y1="-39.5" y2="-36.5" style="fill:none;stroke:#000000;stroke-width:0.3;" x1="51.309"/>
  <line x2="52.746" y1="-24.625" y2="-24.625" style="fill:none;stroke:#000000;stroke-width:0.3;" x1="49.934"/>
  <line x2="51.309" y1="-26.125" y2="-23.125" style="fill:none;stroke:#000000;stroke-width:0.3;" x1="51.309"/>
  <line x2="66.184" y1="-24.625" y2="-24.625" style="fill:none;stroke:#000000;stroke-width:0.3;" x1="63.371"/>
  <line x2="64.746" y1="-26.125" y2="-23.125" style="fill:none;stroke:#000000;stroke-width:0.3;" x1="64.746"/>
  <line x2="79.6" y1="-24.625" y2="-24.625" style="fill:none;stroke:#000000;stroke-width:0.3;" x1="76.788"/>
  <line x2="78.163" y1="-26.125" y2="-23.125" style="fill:none;stroke:#000000;stroke-width:0.3;" x1="78.163"/>
  <line x2="79.6" y1="-37.938" y2="-37.938" style="fill:none;stroke:#000000;stroke-width:0.3;" x1="76.788"/>
  <line x2="78.163" y1="-39.438" y2="-36.438" style="fill:none;stroke:#000000;stroke-width:0.3;" x1="78.163"/>
  <line x2="66.205" y1="-37.938" y2="-37.938" style="fill:none;stroke:#000000;stroke-width:0.3;" x1="63.392"/>
  <line x2="64.767" y1="-39.438" y2="-36.438" style="fill:none;stroke:#000000;stroke-width:0.3;" x1="64.767"/>
  <line x2="72.902" y1="-31.24" y2="-31.24" style="fill:none;stroke:#000000;stroke-width:0.3;" x1="70.09"/>
  <line x2="71.465" y1="-32.74" y2="-29.74" style="fill:none;stroke:#000000;stroke-width:0.3;" x1="71.465"/>
  <line x2="46.117" y1="-31.312" y2="-31.312" style="fill:none;stroke:#000000;stroke-width:0.3;" x1="43.304"/>
  <line x2="44.679" y1="-32.812" y2="-29.812" style="fill:none;stroke:#000000;stroke-width:0.3;" x1="44.679"/>
  <line x2="59.521" y1="-31.312" y2="-31.312" style="fill:none;stroke:#000000;stroke-width:0.3;" x1="56.708"/>
  <line x2="58.083" y1="-32.812" y2="-29.812" style="fill:none;stroke:#000000;stroke-width:0.3;" x1="58.083"/>
  <line x2="52.746" y1="-11.229" y2="-11.229" style="fill:none;stroke:#000000;stroke-width:0.3;" x1="49.934"/>
  <line x2="51.309" y1="-12.729" y2="-9.729" style="fill:none;stroke:#000000;stroke-width:0.3;" x1="51.309"/>
  <line x2="79.6" y1="-11.167" y2="-11.167" style="fill:none;stroke:#000000;stroke-width:0.3;" x1="76.788"/>
  <line x2="78.163" y1="-12.667" y2="-9.667" style="fill:none;stroke:#000000;stroke-width:0.3;" x1="78.163"/>
  <line x2="66.205" y1="-11.167" y2="-11.167" style="fill:none;stroke:#000000;stroke-width:0.3;" x1="63.392"/>
  <line x2="64.767" y1="-12.667" y2="-9.667" style="fill:none;stroke:#000000;stroke-width:0.3;" x1="64.767"/>
  <line x2="72.902" y1="-4.469" y2="-4.469" style="fill:none;stroke:#000000;stroke-width:0.3;" x1="70.09"/>
  <line x2="71.465" y1="-5.969" y2="-2.969" style="fill:none;stroke:#000000;stroke-width:0.3;" x1="71.465"/>
  <line x2="46.117" y1="-4.542" y2="-4.542" style="fill:none;stroke:#000000;stroke-width:0.3;" x1="43.304"/>
  <line x2="44.679" y1="-6.042" y2="-3.042" style="fill:none;stroke:#000000;stroke-width:0.3;" x1="44.679"/>
  <line x2="46.117" y1="-17.854" y2="-17.854" style="fill:none;stroke:#000000;stroke-width:0.3;" x1="43.304"/>
  <line x2="44.679" y1="-19.354" y2="-16.354" style="fill:none;stroke:#000000;stroke-width:0.3;" x1="44.679"/>
  <line x2="59.513" y1="-17.854" y2="-17.854" style="fill:none;stroke:#000000;stroke-width:0.3;" x1="56.7"/>
  <line x2="58.075" y1="-19.354" y2="-16.354" style="fill:none;stroke:#000000;stroke-width:0.3;" x1="58.075"/>
  <line x2="72.95" y1="-17.854" y2="-17.854" style="fill:none;stroke:#000000;stroke-width:0.3;" x1="70.138"/>
  <line x2="71.513" y1="-19.354" y2="-16.354" style="fill:none;stroke:#000000;stroke-width:0.3;" x1="71.513"/>
  <line x2="59.521" y1="-4.542" y2="-4.542" style="fill:none;stroke:#000000;stroke-width:0.3;" x1="56.708"/>
  <line x2="58.083" y1="-6.042" y2="-3.042" style="fill:none;stroke:#000000;stroke-width:0.3;" x1="58.083"/>
 </g>
</svg>
