<?xml version="1.0"?>
<!-- Converted with SVG Converter - Version 0.9.5 (Compiled Fri Feb 21 09:53:38 2020) - Copyright (C) 2011 Nokia -->
<svg xmlns="http://www.w3.org/2000/svg" xmlns:xlink="http://www.w3.org/1999/xlink" version="1.1" viewBox="1 -81.5 80.559 80.5" x="0px" y="0px" height="80.5" xml:space="preserve" width="80.559" baseProfile="tiny">
 <g>
  <rect style="fill:none;" x="1" y="-81.5" height="80.5" width="80.559"/>
  <line x1="9.625" style="fill:none;stroke:#000000;stroke-width:0.3;" y2="-78.25" y1="-78.25" x2="12.438"/>
  <line x1="11" style="fill:none;stroke:#000000;stroke-width:0.3;" y2="-76.75" y1="-79.75" x2="11"/>
  <line x1="9.625" style="fill:none;stroke:#000000;stroke-width:0.3;" y2="-64.875" y1="-64.875" x2="12.438"/>
  <line x1="11" style="fill:none;stroke:#000000;stroke-width:0.3;" y2="-63.375" y1="-66.375" x2="11"/>
  <line x1="23.062" style="fill:none;stroke:#000000;stroke-width:0.3;" y2="-64.875" y1="-64.875" x2="25.875"/>
  <line x1="24.438" style="fill:none;stroke:#000000;stroke-width:0.3;" y2="-63.375" y1="-66.375" x2="24.438"/>
  <line x1="36.479" style="fill:none;stroke:#000000;stroke-width:0.3;" y2="-64.875" y1="-64.875" x2="39.292"/>
  <line x1="37.854" style="fill:none;stroke:#000000;stroke-width:0.3;" y2="-63.375" y1="-66.375" x2="37.854"/>
  <line x1="36.479" style="fill:none;stroke:#000000;stroke-width:0.3;" y2="-78.188" y1="-78.188" x2="39.292"/>
  <line x1="37.854" style="fill:none;stroke:#000000;stroke-width:0.3;" y2="-76.688" y1="-79.688" x2="37.854"/>
  <line x1="23.083" style="fill:none;stroke:#000000;stroke-width:0.3;" y2="-78.188" y1="-78.188" x2="25.896"/>
  <line x1="24.458" style="fill:none;stroke:#000000;stroke-width:0.3;" y2="-76.688" y1="-79.688" x2="24.458"/>
  <line x1="29.781" style="fill:none;stroke:#000000;stroke-width:0.3;" y2="-71.49" y1="-71.49" x2="32.594"/>
  <line x1="31.156" style="fill:none;stroke:#000000;stroke-width:0.3;" y2="-69.99" y1="-72.99" x2="31.156"/>
  <line x1="2.996" style="fill:none;stroke:#000000;stroke-width:0.3;" y2="-71.562" y1="-71.562" x2="5.808"/>
  <line x1="4.371" style="fill:none;stroke:#000000;stroke-width:0.3;" y2="-70.062" y1="-73.062" x2="4.371"/>
  <line x1="16.4" style="fill:none;stroke:#000000;stroke-width:0.3;" y2="-71.562" y1="-71.562" x2="19.212"/>
  <line x1="17.775" style="fill:none;stroke:#000000;stroke-width:0.3;" y2="-70.062" y1="-73.062" x2="17.775"/>
  <line x1="9.625" style="fill:none;stroke:#000000;stroke-width:0.3;" y2="-51.479" y1="-51.479" x2="12.438"/>
  <line x1="11" style="fill:none;stroke:#000000;stroke-width:0.3;" y2="-49.979" y1="-52.979" x2="11"/>
  <line x1="36.479" style="fill:none;stroke:#000000;stroke-width:0.3;" y2="-51.417" y1="-51.417" x2="39.292"/>
  <line x1="37.854" style="fill:none;stroke:#000000;stroke-width:0.3;" y2="-49.917" y1="-52.917" x2="37.854"/>
  <line x1="23.083" style="fill:none;stroke:#000000;stroke-width:0.3;" y2="-51.417" y1="-51.417" x2="25.896"/>
  <line x1="24.458" style="fill:none;stroke:#000000;stroke-width:0.3;" y2="-49.917" y1="-52.917" x2="24.458"/>
  <line x1="29.781" style="fill:none;stroke:#000000;stroke-width:0.3;" y2="-44.719" y1="-44.719" x2="32.594"/>
  <line x1="31.156" style="fill:none;stroke:#000000;stroke-width:0.3;" y2="-43.219" y1="-46.219" x2="31.156"/>
  <line x1="2.996" style="fill:none;stroke:#000000;stroke-width:0.3;" y2="-44.792" y1="-44.792" x2="5.808"/>
  <line x1="4.371" style="fill:none;stroke:#000000;stroke-width:0.3;" y2="-43.292" y1="-46.292" x2="4.371"/>
  <line x1="2.996" style="fill:none;stroke:#000000;stroke-width:0.3;" y2="-58.104" y1="-58.104" x2="5.808"/>
  <line x1="4.371" style="fill:none;stroke:#000000;stroke-width:0.3;" y2="-56.604" y1="-59.604" x2="4.371"/>
  <line x1="16.391" style="fill:none;stroke:#000000;stroke-width:0.3;" y2="-58.104" y1="-58.104" x2="19.204"/>
  <line x1="17.766" style="fill:none;stroke:#000000;stroke-width:0.3;" y2="-56.604" y1="-59.604" x2="17.766"/>
  <line x1="29.829" style="fill:none;stroke:#000000;stroke-width:0.3;" y2="-58.104" y1="-58.104" x2="32.641"/>
  <line x1="31.204" style="fill:none;stroke:#000000;stroke-width:0.3;" y2="-56.604" y1="-59.604" x2="31.204"/>
  <line x1="16.4" style="fill:none;stroke:#000000;stroke-width:0.3;" y2="-44.792" y1="-44.792" x2="19.212"/>
  <line x1="17.775" style="fill:none;stroke:#000000;stroke-width:0.3;" y2="-43.292" y1="-46.292" x2="17.775"/>
  <line x1="49.934" style="fill:none;stroke:#000000;stroke-width:0.3;" y2="-78.25" y1="-78.25" x2="52.746"/>
  <line x1="51.309" style="fill:none;stroke:#000000;stroke-width:0.3;" y2="-76.75" y1="-79.75" x2="51.309"/>
  <line x1="49.934" style="fill:none;stroke:#000000;stroke-width:0.3;" y2="-64.875" y1="-64.875" x2="52.746"/>
  <line x1="51.309" style="fill:none;stroke:#000000;stroke-width:0.3;" y2="-63.375" y1="-66.375" x2="51.309"/>
  <line x1="63.371" style="fill:none;stroke:#000000;stroke-width:0.3;" y2="-64.875" y1="-64.875" x2="66.184"/>
  <line x1="64.746" style="fill:none;stroke:#000000;stroke-width:0.3;" y2="-63.375" y1="-66.375" x2="64.746"/>
  <line x1="76.788" style="fill:none;stroke:#000000;stroke-width:0.3;" y2="-64.875" y1="-64.875" x2="79.6"/>
  <line x1="78.163" style="fill:none;stroke:#000000;stroke-width:0.3;" y2="-63.375" y1="-66.375" x2="78.163"/>
  <line x1="76.788" style="fill:none;stroke:#000000;stroke-width:0.3;" y2="-78.188" y1="-78.188" x2="79.6"/>
  <line x1="78.163" style="fill:none;stroke:#000000;stroke-width:0.3;" y2="-76.688" y1="-79.688" x2="78.163"/>
  <line x1="63.392" style="fill:none;stroke:#000000;stroke-width:0.3;" y2="-78.188" y1="-78.188" x2="66.205"/>
  <line x1="64.767" style="fill:none;stroke:#000000;stroke-width:0.3;" y2="-76.688" y1="-79.688" x2="64.767"/>
  <line x1="70.09" style="fill:none;stroke:#000000;stroke-width:0.3;" y2="-71.49" y1="-71.49" x2="72.902"/>
  <line x1="71.465" style="fill:none;stroke:#000000;stroke-width:0.3;" y2="-69.99" y1="-72.99" x2="71.465"/>
  <line x1="43.304" style="fill:none;stroke:#000000;stroke-width:0.3;" y2="-71.562" y1="-71.562" x2="46.117"/>
  <line x1="44.679" style="fill:none;stroke:#000000;stroke-width:0.3;" y2="-70.062" y1="-73.062" x2="44.679"/>
  <line x1="56.708" style="fill:none;stroke:#000000;stroke-width:0.3;" y2="-71.562" y1="-71.562" x2="59.521"/>
  <line x1="58.083" style="fill:none;stroke:#000000;stroke-width:0.3;" y2="-70.062" y1="-73.062" x2="58.083"/>
  <line x1="49.934" style="fill:none;stroke:#000000;stroke-width:0.3;" y2="-51.479" y1="-51.479" x2="52.746"/>
  <line x1="51.309" style="fill:none;stroke:#000000;stroke-width:0.3;" y2="-49.979" y1="-52.979" x2="51.309"/>
  <line x1="76.788" style="fill:none;stroke:#000000;stroke-width:0.3;" y2="-51.417" y1="-51.417" x2="79.6"/>
  <line x1="78.163" style="fill:none;stroke:#000000;stroke-width:0.3;" y2="-49.917" y1="-52.917" x2="78.163"/>
  <line x1="63.392" style="fill:none;stroke:#000000;stroke-width:0.3;" y2="-51.417" y1="-51.417" x2="66.205"/>
  <line x1="64.767" style="fill:none;stroke:#000000;stroke-width:0.3;" y2="-49.917" y1="-52.917" x2="64.767"/>
  <line x1="70.09" style="fill:none;stroke:#000000;stroke-width:0.3;" y2="-44.719" y1="-44.719" x2="72.902"/>
  <line x1="71.465" style="fill:none;stroke:#000000;stroke-width:0.3;" y2="-43.219" y1="-46.219" x2="71.465"/>
  <line x1="43.304" style="fill:none;stroke:#000000;stroke-width:0.3;" y2="-44.792" y1="-44.792" x2="46.117"/>
  <line x1="44.679" style="fill:none;stroke:#000000;stroke-width:0.3;" y2="-43.292" y1="-46.292" x2="44.679"/>
  <line x1="43.304" style="fill:none;stroke:#000000;stroke-width:0.3;" y2="-58.104" y1="-58.104" x2="46.117"/>
  <line x1="44.679" style="fill:none;stroke:#000000;stroke-width:0.3;" y2="-56.604" y1="-59.604" x2="44.679"/>
  <line x1="56.7" style="fill:none;stroke:#000000;stroke-width:0.3;" y2="-58.104" y1="-58.104" x2="59.513"/>
  <line x1="58.075" style="fill:none;stroke:#000000;stroke-width:0.3;" y2="-56.604" y1="-59.604" x2="58.075"/>
  <line x1="70.138" style="fill:none;stroke:#000000;stroke-width:0.3;" y2="-58.104" y1="-58.104" x2="72.95"/>
  <line x1="71.513" style="fill:none;stroke:#000000;stroke-width:0.3;" y2="-56.604" y1="-59.604" x2="71.513"/>
  <line x1="56.708" style="fill:none;stroke:#000000;stroke-width:0.3;" y2="-44.792" y1="-44.792" x2="59.521"/>
  <line x1="58.083" style="fill:none;stroke:#000000;stroke-width:0.3;" y2="-43.292" y1="-46.292" x2="58.083"/>
  <line x1="9.625" style="fill:none;stroke:#000000;stroke-width:0.3;" y2="-38" y1="-38" x2="12.438"/>
  <line x1="11" style="fill:none;stroke:#000000;stroke-width:0.3;" y2="-36.5" y1="-39.5" x2="11"/>
  <line x1="9.625" style="fill:none;stroke:#000000;stroke-width:0.3;" y2="-24.625" y1="-24.625" x2="12.438"/>
  <line x1="11" style="fill:none;stroke:#000000;stroke-width:0.3;" y2="-23.125" y1="-26.125" x2="11"/>
  <line x1="23.062" style="fill:none;stroke:#000000;stroke-width:0.3;" y2="-24.625" y1="-24.625" x2="25.875"/>
  <line x1="24.438" style="fill:none;stroke:#000000;stroke-width:0.3;" y2="-23.125" y1="-26.125" x2="24.438"/>
  <line x1="36.479" style="fill:none;stroke:#000000;stroke-width:0.3;" y2="-24.625" y1="-24.625" x2="39.292"/>
  <line x1="37.854" style="fill:none;stroke:#000000;stroke-width:0.3;" y2="-23.125" y1="-26.125" x2="37.854"/>
  <line x1="36.479" style="fill:none;stroke:#000000;stroke-width:0.3;" y2="-37.938" y1="-37.938" x2="39.292"/>
  <line x1="37.854" style="fill:none;stroke:#000000;stroke-width:0.3;" y2="-36.438" y1="-39.438" x2="37.854"/>
  <line x1="23.083" style="fill:none;stroke:#000000;stroke-width:0.3;" y2="-37.938" y1="-37.938" x2="25.896"/>
  <line x1="24.458" style="fill:none;stroke:#000000;stroke-width:0.3;" y2="-36.438" y1="-39.438" x2="24.458"/>
  <line x1="29.781" style="fill:none;stroke:#000000;stroke-width:0.3;" y2="-31.24" y1="-31.24" x2="32.594"/>
  <line x1="31.156" style="fill:none;stroke:#000000;stroke-width:0.3;" y2="-29.74" y1="-32.74" x2="31.156"/>
  <line x1="2.996" style="fill:none;stroke:#000000;stroke-width:0.3;" y2="-31.312" y1="-31.312" x2="5.808"/>
  <line x1="4.371" style="fill:none;stroke:#000000;stroke-width:0.3;" y2="-29.812" y1="-32.812" x2="4.371"/>
  <line x1="16.4" style="fill:none;stroke:#000000;stroke-width:0.3;" y2="-31.312" y1="-31.312" x2="19.212"/>
  <line x1="17.775" style="fill:none;stroke:#000000;stroke-width:0.3;" y2="-29.812" y1="-32.812" x2="17.775"/>
  <line x1="9.625" style="fill:none;stroke:#000000;stroke-width:0.3;" y2="-11.229" y1="-11.229" x2="12.438"/>
  <line x1="11" style="fill:none;stroke:#000000;stroke-width:0.3;" y2="-9.729" y1="-12.729" x2="11"/>
  <line x1="36.479" style="fill:none;stroke:#000000;stroke-width:0.3;" y2="-11.167" y1="-11.167" x2="39.292"/>
  <line x1="37.854" style="fill:none;stroke:#000000;stroke-width:0.3;" y2="-9.667" y1="-12.667" x2="37.854"/>
  <line x1="23.083" style="fill:none;stroke:#000000;stroke-width:0.3;" y2="-11.167" y1="-11.167" x2="25.896"/>
  <line x1="24.458" style="fill:none;stroke:#000000;stroke-width:0.3;" y2="-9.667" y1="-12.667" x2="24.458"/>
  <line x1="29.781" style="fill:none;stroke:#000000;stroke-width:0.3;" y2="-4.469" y1="-4.469" x2="32.594"/>
  <line x1="31.156" style="fill:none;stroke:#000000;stroke-width:0.3;" y2="-2.969" y1="-5.969" x2="31.156"/>
  <line x1="2.996" style="fill:none;stroke:#000000;stroke-width:0.3;" y2="-4.542" y1="-4.542" x2="5.808"/>
  <line x1="4.371" style="fill:none;stroke:#000000;stroke-width:0.3;" y2="-3.042" y1="-6.042" x2="4.371"/>
  <line x1="2.996" style="fill:none;stroke:#000000;stroke-width:0.3;" y2="-17.854" y1="-17.854" x2="5.808"/>
  <line x1="4.371" style="fill:none;stroke:#000000;stroke-width:0.3;" y2="-16.354" y1="-19.354" x2="4.371"/>
  <line x1="16.391" style="fill:none;stroke:#000000;stroke-width:0.3;" y2="-17.854" y1="-17.854" x2="19.204"/>
  <line x1="17.766" style="fill:none;stroke:#000000;stroke-width:0.3;" y2="-16.354" y1="-19.354" x2="17.766"/>
  <line x1="29.829" style="fill:none;stroke:#000000;stroke-width:0.3;" y2="-17.854" y1="-17.854" x2="32.641"/>
  <line x1="31.204" style="fill:none;stroke:#000000;stroke-width:0.3;" y2="-16.354" y1="-19.354" x2="31.204"/>
  <line x1="16.4" style="fill:none;stroke:#000000;stroke-width:0.3;" y2="-4.542" y1="-4.542" x2="19.212"/>
  <line x1="17.775" style="fill:none;stroke:#000000;stroke-width:0.3;" y2="-3.042" y1="-6.042" x2="17.775"/>
  <line x1="49.934" style="fill:none;stroke:#000000;stroke-width:0.3;" y2="-38" y1="-38" x2="52.746"/>
  <line x1="51.309" style="fill:none;stroke:#000000;stroke-width:0.3;" y2="-36.5" y1="-39.5" x2="51.309"/>
  <line x1="49.934" style="fill:none;stroke:#000000;stroke-width:0.3;" y2="-24.625" y1="-24.625" x2="52.746"/>
  <line x1="51.309" style="fill:none;stroke:#000000;stroke-width:0.3;" y2="-23.125" y1="-26.125" x2="51.309"/>
  <line x1="63.371" style="fill:none;stroke:#000000;stroke-width:0.3;" y2="-24.625" y1="-24.625" x2="66.184"/>
  <line x1="64.746" style="fill:none;stroke:#000000;stroke-width:0.3;" y2="-23.125" y1="-26.125" x2="64.746"/>
  <line x1="76.788" style="fill:none;stroke:#000000;stroke-width:0.3;" y2="-24.625" y1="-24.625" x2="79.6"/>
  <line x1="78.163" style="fill:none;stroke:#000000;stroke-width:0.3;" y2="-23.125" y1="-26.125" x2="78.163"/>
  <line x1="76.788" style="fill:none;stroke:#000000;stroke-width:0.3;" y2="-37.938" y1="-37.938" x2="79.6"/>
  <line x1="78.163" style="fill:none;stroke:#000000;stroke-width:0.3;" y2="-36.438" y1="-39.438" x2="78.163"/>
  <line x1="63.392" style="fill:none;stroke:#000000;stroke-width:0.3;" y2="-37.938" y1="-37.938" x2="66.205"/>
  <line x1="64.767" style="fill:none;stroke:#000000;stroke-width:0.3;" y2="-36.438" y1="-39.438" x2="64.767"/>
  <line x1="70.09" style="fill:none;stroke:#000000;stroke-width:0.3;" y2="-31.24" y1="-31.24" x2="72.902"/>
  <line x1="71.465" style="fill:none;stroke:#000000;stroke-width:0.3;" y2="-29.74" y1="-32.74" x2="71.465"/>
  <line x1="43.304" style="fill:none;stroke:#000000;stroke-width:0.3;" y2="-31.312" y1="-31.312" x2="46.117"/>
  <line x1="44.679" style="fill:none;stroke:#000000;stroke-width:0.3;" y2="-29.812" y1="-32.812" x2="44.679"/>
  <line x1="56.708" style="fill:none;stroke:#000000;stroke-width:0.3;" y2="-31.312" y1="-31.312" x2="59.521"/>
  <line x1="58.083" style="fill:none;stroke:#000000;stroke-width:0.3;" y2="-29.812" y1="-32.812" x2="58.083"/>
  <line x1="49.934" style="fill:none;stroke:#000000;stroke-width:0.3;" y2="-11.229" y1="-11.229" x2="52.746"/>
  <line x1="51.309" style="fill:none;stroke:#000000;stroke-width:0.3;" y2="-9.729" y1="-12.729" x2="51.309"/>
  <line x1="76.788" style="fill:none;stroke:#000000;stroke-width:0.3;" y2="-11.167" y1="-11.167" x2="79.6"/>
  <line x1="78.163" style="fill:none;stroke:#000000;stroke-width:0.3;" y2="-9.667" y1="-12.667" x2="78.163"/>
  <line x1="63.392" style="fill:none;stroke:#000000;stroke-width:0.3;" y2="-11.167" y1="-11.167" x2="66.205"/>
  <line x1="64.767" style="fill:none;stroke:#000000;stroke-width:0.3;" y2="-9.667" y1="-12.667" x2="64.767"/>
  <line x1="70.09" style="fill:none;stroke:#000000;stroke-width:0.3;" y2="-4.469" y1="-4.469" x2="72.902"/>
  <line x1="71.465" style="fill:none;stroke:#000000;stroke-width:0.3;" y2="-2.969" y1="-5.969" x2="71.465"/>
  <line x1="43.304" style="fill:none;stroke:#000000;stroke-width:0.3;" y2="-4.542" y1="-4.542" x2="46.117"/>
  <line x1="44.679" style="fill:none;stroke:#000000;stroke-width:0.3;" y2="-3.042" y1="-6.042" x2="44.679"/>
  <line x1="43.304" style="fill:none;stroke:#000000;stroke-width:0.3;" y2="-17.854" y1="-17.854" x2="46.117"/>
  <line x1="44.679" style="fill:none;stroke:#000000;stroke-width:0.3;" y2="-16.354" y1="-19.354" x2="44.679"/>
  <line x1="56.7" style="fill:none;stroke:#000000;stroke-width:0.3;" y2="-17.854" y1="-17.854" x2="59.513"/>
  <line x1="58.075" style="fill:none;stroke:#000000;stroke-width:0.3;" y2="-16.354" y1="-19.354" x2="58.075"/>
  <line x1="70.138" style="fill:none;stroke:#000000;stroke-width:0.3;" y2="-17.854" y1="-17.854" x2="72.95"/>
  <line x1="71.513" style="fill:none;stroke:#000000;stroke-width:0.3;" y2="-16.354" y1="-19.354" x2="71.513"/>
  <line x1="56.708" style="fill:none;stroke:#000000;stroke-width:0.3;" y2="-4.542" y1="-4.542" x2="59.521"/>
  <line x1="58.083" style="fill:none;stroke:#000000;stroke-width:0.3;" y2="-3.042" y1="-6.042" x2="58.083"/>
 </g>
</svg>
