<?xml version="1.0"?>
<!-- Converted with SVG Converter - Version 0.9.6 (Compiled Thu Aug 31 10:01:05 2017) - Copyright (C) 2011 Nokia -->
<svg xmlns="http://www.w3.org/2000/svg" width="80.559" baseProfile="tiny" x="0px" height="80.5" version="1.1" viewBox="1.488 -81.884 80.559 80.5" xml:space="preserve" xmlns:xlink="http://www.w3.org/1999/xlink" y="0px">
 <g>
  <rect width="80.559" x="1.488" height="80.5" y="-81.884" style="fill:none;"/>
  <line y1="-79.118" x1="18.341" x2="17.052" style="fill:none;stroke:#000000;stroke-width:0.3;" y2="-77.46"/>
  <line y1="-74.66" x1="12.854" x2="13.071" style="fill:none;stroke:#000000;stroke-width:0.3;" y2="-76.61"/>
  <line y1="-70.426" x1="9.071" x2="7.758" style="fill:none;stroke:#000000;stroke-width:0.3;" y2="-68.967"/>
  <line y1="-68.155" x1="3.946" x2="2.633" style="fill:none;stroke:#000000;stroke-width:0.3;" y2="-66.697"/>
  <line y1="-75.551" x1="21.217" x2="23.258" style="fill:none;stroke:#000000;stroke-width:0.3;" y2="-75.926"/>
  <line y1="-72.28" x1="12.946" x2="11.071" style="fill:none;stroke:#000000;stroke-width:0.3;" y2="-72.28"/>
  <line y1="-80.301" x1="9.133" x2="8.196" style="fill:none;stroke:#000000;stroke-width:0.3;" y2="-78.467"/>
  <line y1="-74.53" x1="9.133" x2="7.758" style="fill:none;stroke:#000000;stroke-width:0.3;" y2="-75.78"/>
  <line y1="-68.717" x1="18.383" x2="16.883" style="fill:none;stroke:#000000;stroke-width:0.3;" y2="-69.905"/>
  <line y1="-69.057" x1="13.806" x2="12.976" style="fill:none;stroke:#000000;stroke-width:0.3;" y2="-67.28"/>
  <line y1="-10.775" x1="7.739" x2="9.016" style="fill:none;stroke:#000000;stroke-width:0.3;" y2="-9.285"/>
  <line y1="-66.516" x1="22.362" x2="20.696" style="fill:none;stroke:#000000;stroke-width:0.3;" y2="-65.655"/>
  <line y1="-37.155" x1="15.946" x2="14.28" style="fill:none;stroke:#000000;stroke-width:0.3;" y2="-36.294"/>
  <line y1="-66.905" x1="29.196" x2="27.318" style="fill:none;stroke:#000000;stroke-width:0.3;" y2="-67.271"/>
  <line y1="-71.095" x1="26.545" x2="24.818" style="fill:none;stroke:#000000;stroke-width:0.3;" y2="-70.271"/>
  <line y1="-65.235" x1="30.911" x2="30.989" style="fill:none;stroke:#000000;stroke-width:0.3;" y2="-63.275"/>
  <line y1="-61.485" x1="40.911" x2="40.989" style="fill:none;stroke:#000000;stroke-width:0.3;" y2="-59.525"/>
  <line y1="-71.745" x1="22.485" x2="21.654" style="fill:none;stroke:#000000;stroke-width:0.3;" y2="-69.967"/>
  <line y1="-65.999" x1="8.986" x2="7.219" style="fill:none;stroke:#000000;stroke-width:0.3;" y2="-66.627"/>
  <line y1="-73.655" x1="28.446" x2="27.452" style="fill:none;stroke:#000000;stroke-width:0.3;" y2="-75.245"/>
  <line y1="-60.155" x1="11.946" x2="10.93" style="fill:none;stroke:#000000;stroke-width:0.3;" y2="-61.776"/>
  <line y1="-62.275" x1="18.489" x2="17.255" style="fill:none;stroke:#000000;stroke-width:0.3;" y2="-60.749"/>
  <line y1="-64.05" x1="35.223" x2="33.989" style="fill:none;stroke:#000000;stroke-width:0.3;" y2="-62.525"/>
  <line y1="-58.126" x1="16.461" x2="14.589" style="fill:none;stroke:#000000;stroke-width:0.3;" y2="-58.028"/>
  <line y1="-54.025" x1="19.739" x2="18.179" style="fill:none;stroke:#000000;stroke-width:0.3;" y2="-55.132"/>
  <line y1="-56.081" x1="12.417" x2="12.212" style="fill:none;stroke:#000000;stroke-width:0.3;" y2="-54.13"/>
  <line y1="-49.43" x1="10.305" x2="9.071" style="fill:none;stroke:#000000;stroke-width:0.3;" y2="-47.905"/>
  <line y1="-52.064" x1="8.586" x2="6.714" style="fill:none;stroke:#000000;stroke-width:0.3;" y2="-51.965"/>
  <line y1="-47.048" x1="15.256" x2="13.696" style="fill:none;stroke:#000000;stroke-width:0.3;" y2="-48.155"/>
  <line y1="-63.762" x1="17.174" x2="15.393" style="fill:none;stroke:#000000;stroke-width:0.3;" y2="-64.462"/>
  <line y1="-62.405" x1="7.196" x2="5.324" style="fill:none;stroke:#000000;stroke-width:0.3;" y2="-62.013"/>
  <line y1="-68.155" x1="50.196" x2="52.133" style="fill:none;stroke:#000000;stroke-width:0.3;" y2="-67.342"/>
  <line y1="-78.03" x1="3.446" x2="5.508" style="fill:none;stroke:#000000;stroke-width:0.3;" y2="-77.592"/>
  <line y1="-59.712" x1="36.239" x2="37.489" style="fill:none;stroke:#000000;stroke-width:0.3;" y2="-58.025"/>
  <line y1="-52.275" x1="16.84" x2="15.527" style="fill:none;stroke:#000000;stroke-width:0.3;" y2="-50.816"/>
  <line y1="-50.301" x1="27.821" x2="26.508" style="fill:none;stroke:#000000;stroke-width:0.3;" y2="-48.842"/>
  <line y1="-54.655" x1="3.696" x2="2.383" style="fill:none;stroke:#000000;stroke-width:0.3;" y2="-53.197"/>
  <line y1="-55.15" x1="31.698" x2="33.739" style="fill:none;stroke:#000000;stroke-width:0.3;" y2="-55.525"/>
  <line y1="-52.155" x1="31.696" x2="29.821" style="fill:none;stroke:#000000;stroke-width:0.3;" y2="-52.155"/>
  <line y1="-61.025" x1="27.989" x2="27.052" style="fill:none;stroke:#000000;stroke-width:0.3;" y2="-59.191"/>
  <line y1="-54.405" x1="27.883" x2="26.508" style="fill:none;stroke:#000000;stroke-width:0.3;" y2="-55.655"/>
  <line y1="-61.525" x1="24.489" x2="23.114" style="fill:none;stroke:#000000;stroke-width:0.3;" y2="-62.775"/>
  <line y1="-48.592" x1="37.133" x2="35.633" style="fill:none;stroke:#000000;stroke-width:0.3;" y2="-49.78"/>
  <line y1="-50.71" x1="33.386" x2="32.556" style="fill:none;stroke:#000000;stroke-width:0.3;" y2="-48.932"/>
  <line y1="-55.052" x1="43.07" x2="42.239" style="fill:none;stroke:#000000;stroke-width:0.3;" y2="-53.275"/>
  <line y1="-45.874" x1="27.736" x2="25.969" style="fill:none;stroke:#000000;stroke-width:0.3;" y2="-46.502"/>
  <line y1="-39.405" x1="29.946" x2="28.93" style="fill:none;stroke:#000000;stroke-width:0.3;" y2="-41.026"/>
  <line y1="-42.275" x1="39.239" x2="38.005" style="fill:none;stroke:#000000;stroke-width:0.3;" y2="-40.749"/>
  <line y1="-38.001" x1="35.211" x2="33.339" style="fill:none;stroke:#000000;stroke-width:0.3;" y2="-37.903"/>
  <line y1="-34.548" x1="38.506" x2="36.946" style="fill:none;stroke:#000000;stroke-width:0.3;" y2="-35.655"/>
  <line y1="-30.525" x1="28.489" x2="27.255" style="fill:none;stroke:#000000;stroke-width:0.3;" y2="-28.999"/>
  <line y1="-27.55" x1="15.724" x2="14.489" style="fill:none;stroke:#000000;stroke-width:0.3;" y2="-26.025"/>
  <line y1="-44.729" x1="36.015" x2="34.143" style="fill:none;stroke:#000000;stroke-width:0.3;" y2="-44.337"/>
  <line y1="-57.905" x1="22.196" x2="24.258" style="fill:none;stroke:#000000;stroke-width:0.3;" y2="-57.467"/>
  <line y1="-33.323" x1="49.166" x2="49.223" style="fill:none;stroke:#000000;stroke-width:0.3;" y2="-31.223"/>
  <line y1="-30.469" x1="31.755" x2="31.489" style="fill:none;stroke:#000000;stroke-width:0.3;" y2="-28.525"/>
  <line y1="-29.433" x1="52.61" x2="54.651" style="fill:none;stroke:#000000;stroke-width:0.3;" y2="-29.808"/>
  <line y1="-27.775" x1="43.364" x2="41.489" style="fill:none;stroke:#000000;stroke-width:0.3;" y2="-27.775"/>
  <line y1="-23.905" x1="59.071" x2="57.196" style="fill:none;stroke:#000000;stroke-width:0.3;" y2="-23.905"/>
  <line y1="-33.108" x1="40.927" x2="39.989" style="fill:none;stroke:#000000;stroke-width:0.3;" y2="-31.275"/>
  <line y1="-23.275" x1="53.739" x2="52.239" style="fill:none;stroke:#000000;stroke-width:0.3;" y2="-24.462"/>
  <line y1="-5.525" x1="39.173" x2="38.757" style="fill:none;stroke:#000000;stroke-width:0.3;" y2="-7.392"/>
  <line y1="-24.775" x1="45.489" x2="44.659" style="fill:none;stroke:#000000;stroke-width:0.3;" y2="-22.997"/>
  <line y1="-35.372" x1="78.845" x2="80.231" style="fill:none;stroke:#000000;stroke-width:0.3;" y2="-33.982"/>
  <line y1="-17.091" x1="41.023" x2="41.493" style="fill:none;stroke:#000000;stroke-width:0.3;" y2="-15.187"/>
  <line y1="-17.18" x1="21.27" x2="21.739" style="fill:none;stroke:#000000;stroke-width:0.3;" y2="-15.275"/>
  <line y1="-28.302" x1="62.07" x2="61.239" style="fill:none;stroke:#000000;stroke-width:0.3;" y2="-26.525"/>
  <line y1="-19.299" x1="40.55" x2="38.783" style="fill:none;stroke:#000000;stroke-width:0.3;" y2="-19.926"/>
  <line y1="-28.582" x1="10.275" x2="10.723" style="fill:none;stroke:#000000;stroke-width:0.3;" y2="-30.402"/>
  <line y1="-16.629" x1="37.377" x2="35.574" style="fill:none;stroke:#000000;stroke-width:0.3;" y2="-16.115"/>
  <line y1="-15.275" x1="46.739" x2="47.753" style="fill:none;stroke:#000000;stroke-width:0.3;" y2="-16.897"/>
  <line y1="-11.875" x1="45.526" x2="43.654" style="fill:none;stroke:#000000;stroke-width:0.3;" y2="-11.776"/>
  <line y1="-7.905" x1="53.196" x2="51.636" style="fill:none;stroke:#000000;stroke-width:0.3;" y2="-9.012"/>
  <line y1="-44.155" x1="9.196" x2="7.636" style="fill:none;stroke:#000000;stroke-width:0.3;" y2="-45.262"/>
  <line y1="-10.025" x1="47.489" x2="46.255" style="fill:none;stroke:#000000;stroke-width:0.3;" y2="-8.499"/>
  <line y1="-5.18" x1="55.18" x2="53.946" style="fill:none;stroke:#000000;stroke-width:0.3;" y2="-3.655"/>
  <line y1="-3.375" x1="41.414" x2="40.18" style="fill:none;stroke:#000000;stroke-width:0.3;" y2="-1.85"/>
  <line y1="-11.426" x1="31.175" x2="29.588" style="fill:none;stroke:#000000;stroke-width:0.3;" y2="-10.428"/>
  <line y1="-2.454" x1="48.43" x2="46.87" style="fill:none;stroke:#000000;stroke-width:0.3;" y2="-3.561"/>
  <line y1="-9.167" x1="42.3" x2="40.739" style="fill:none;stroke:#000000;stroke-width:0.3;" y2="-10.275"/>
  <line y1="-21.267" x1="67.095" x2="65.855" style="fill:none;stroke:#000000;stroke-width:0.3;" y2="-19.811"/>
  <line y1="-15.775" x1="51.739" x2="49.867" style="fill:none;stroke:#000000;stroke-width:0.3;" y2="-15.382"/>
  <line y1="-36.6" x1="43.818" x2="45.756" style="fill:none;stroke:#000000;stroke-width:0.3;" y2="-35.787"/>
  <line y1="-32.212" x1="33.927" x2="35.989" style="fill:none;stroke:#000000;stroke-width:0.3;" y2="-31.775"/>
  <line y1="-10.954" x1="55.568" x2="56.818" style="fill:none;stroke:#000000;stroke-width:0.3;" y2="-9.267"/>
  <line y1="-49.775" x1="41.989" x2="43.239" style="fill:none;stroke:#000000;stroke-width:0.3;" y2="-48.087"/>
  <line y1="-9.683" x1="68.193" x2="66.881" style="fill:none;stroke:#000000;stroke-width:0.3;" y2="-8.225"/>
  <line y1="-3.275" x1="60.989" x2="59.677" style="fill:none;stroke:#000000;stroke-width:0.3;" y2="-1.816"/>
  <line y1="-9.275" x1="71.489" x2="73.383" style="fill:none;stroke:#000000;stroke-width:0.3;" y2="-10.126"/>
  <line y1="-6.1" x1="64.506" x2="62.631" style="fill:none;stroke:#000000;stroke-width:0.3;" y2="-6.1"/>
  <line y1="-13.525" x1="60.989" x2="60.052" style="fill:none;stroke:#000000;stroke-width:0.3;" y2="-11.691"/>
  <line y1="-8.405" x1="62.446" x2="61.071" style="fill:none;stroke:#000000;stroke-width:0.3;" y2="-9.655"/>
  <line y1="-1.6" x1="69.943" x2="68.443" style="fill:none;stroke:#000000;stroke-width:0.3;" y2="-2.787"/>
  <line y1="-4.655" x1="66.196" x2="65.366" style="fill:none;stroke:#000000;stroke-width:0.3;" y2="-2.877"/>
  <line y1="-9.025" x1="74.989" x2="75.46" style="fill:none;stroke:#000000;stroke-width:0.3;" y2="-7.12"/>
  <line y1="-8.341" x1="79.115" x2="77.878" style="fill:none;stroke:#000000;stroke-width:0.3;" y2="-6.932"/>
  <line y1="-6.315" x1="51.614" x2="51.141" style="fill:none;stroke:#000000;stroke-width:0.3;" y2="-4.501"/>
  <line y1="-2.347" x1="36.629" x2="35.129" style="fill:none;stroke:#000000;stroke-width:0.3;" y2="-3.472"/>
  <line y1="-10.488" x1="80.707" x2="79.147" style="fill:none;stroke:#000000;stroke-width:0.3;" y2="-11.596"/>
  <line y1="-5.016" x1="74.585" x2="72.824" style="fill:none;stroke:#000000;stroke-width:0.3;" y2="-4.269"/>
  <line y1="-21.462" x1="47.677" x2="49.739" style="fill:none;stroke:#000000;stroke-width:0.3;" y2="-21.025"/>
  <line y1="-19.622" x1="61.912" x2="62.718" style="fill:none;stroke:#000000;stroke-width:0.3;" y2="-21.41"/>
  <line y1="-74.905" x1="65.196" x2="64.173" style="fill:none;stroke:#000000;stroke-width:0.3;" y2="-76.477"/>
  <line y1="-17.775" x1="53.389" x2="53.566" style="fill:none;stroke:#000000;stroke-width:0.3;" y2="-19.68"/>
  <line y1="-53.405" x1="47.946" x2="48.123" style="fill:none;stroke:#000000;stroke-width:0.3;" y2="-55.31"/>
  <line y1="-65.655" x1="55.446" x2="55.623" style="fill:none;stroke:#000000;stroke-width:0.3;" y2="-67.56"/>
  <line y1="-60.518" x1="62.063" x2="63.313" style="fill:none;stroke:#000000;stroke-width:0.3;" y2="-58.831"/>
  <line y1="-56.289" x1="62.001" x2="60.688" style="fill:none;stroke:#000000;stroke-width:0.3;" y2="-54.831"/>
  <line y1="-50.851" x1="54.438" x2="53.126" style="fill:none;stroke:#000000;stroke-width:0.3;" y2="-49.393"/>
  <line y1="-48.525" x1="48.489" x2="47.177" style="fill:none;stroke:#000000;stroke-width:0.3;" y2="-47.066"/>
  <line y1="-57.081" x1="65.647" x2="67.688" style="fill:none;stroke:#000000;stroke-width:0.3;" y2="-57.456"/>
  <line y1="-52.706" x1="58.313" x2="56.438" style="fill:none;stroke:#000000;stroke-width:0.3;" y2="-52.706"/>
  <line y1="-60.726" x1="54.501" x2="53.563" style="fill:none;stroke:#000000;stroke-width:0.3;" y2="-58.893"/>
  <line y1="-54.956" x1="54.501" x2="53.126" style="fill:none;stroke:#000000;stroke-width:0.3;" y2="-56.206"/>
  <line y1="-49.143" x1="63.751" x2="62.251" style="fill:none;stroke:#000000;stroke-width:0.3;" y2="-50.331"/>
  <line y1="-49.483" x1="59.174" x2="58.343" style="fill:none;stroke:#000000;stroke-width:0.3;" y2="-47.705"/>
  <line y1="-55.358" x1="70.894" x2="70.063" style="fill:none;stroke:#000000;stroke-width:0.3;" y2="-53.581"/>
  <line y1="-46.425" x1="54.353" x2="52.587" style="fill:none;stroke:#000000;stroke-width:0.3;" y2="-47.053"/>
  <line y1="-78.98" x1="58.777" x2="57.429" style="fill:none;stroke:#000000;stroke-width:0.3;" y2="-80.283"/>
  <line y1="-41.247" x1="58.284" x2="57.268" style="fill:none;stroke:#000000;stroke-width:0.3;" y2="-42.868"/>
  <line y1="-45.8" x1="66.224" x2="64.989" style="fill:none;stroke:#000000;stroke-width:0.3;" y2="-44.275"/>
  <line y1="-38.552" x1="61.829" x2="59.956" style="fill:none;stroke:#000000;stroke-width:0.3;" y2="-38.453"/>
  <line y1="-34.77" x1="65.49" x2="64.468" style="fill:none;stroke:#000000;stroke-width:0.3;" y2="-36.387"/>
  <line y1="-37.43" x1="58.43" x2="57.196" style="fill:none;stroke:#000000;stroke-width:0.3;" y2="-35.905"/>
  <line y1="-27.775" x1="57.239" x2="56.005" style="fill:none;stroke:#000000;stroke-width:0.3;" y2="-26.249"/>
  <line y1="-34.241" x1="53.739" x2="53.263" style="fill:none;stroke:#000000;stroke-width:0.3;" y2="-36.054"/>
  <line y1="-31.655" x1="62.946" x2="61.386" style="fill:none;stroke:#000000;stroke-width:0.3;" y2="-32.762"/>
  <line y1="-32.775" x1="23.739" x2="22.179" style="fill:none;stroke:#000000;stroke-width:0.3;" y2="-33.882"/>
  <line y1="-45.28" x1="62.633" x2="60.761" style="fill:none;stroke:#000000;stroke-width:0.3;" y2="-44.887"/>
  <line y1="-42.467" x1="70.571" x2="68.698" style="fill:none;stroke:#000000;stroke-width:0.3;" y2="-42.075"/>
  <line y1="-63.081" x1="56.376" x2="58.313" style="fill:none;stroke:#000000;stroke-width:0.3;" y2="-62.268"/>
  <line y1="-58.456" x1="48.813" x2="50.876" style="fill:none;stroke:#000000;stroke-width:0.3;" y2="-58.018"/>
  <line y1="-71.405" x1="63.196" x2="65.258" style="fill:none;stroke:#000000;stroke-width:0.3;" y2="-70.967"/>
  <line y1="-41.581" x1="81.606" x2="79.836" style="fill:none;stroke:#000000;stroke-width:0.3;" y2="-40.45"/>
  <line y1="-76.905" x1="55.696" x2="54.383" style="fill:none;stroke:#000000;stroke-width:0.3;" y2="-75.447"/>
  <line y1="-30.476" x1="74.522" x2="73.209" style="fill:none;stroke:#000000;stroke-width:0.3;" y2="-29.018"/>
  <line y1="-32.164" x1="78.251" x2="76.376" style="fill:none;stroke:#000000;stroke-width:0.3;" y2="-32.164"/>
  <line y1="-40.601" x1="73.251" x2="72.313" style="fill:none;stroke:#000000;stroke-width:0.3;" y2="-38.768"/>
  <line y1="-34.831" x1="73.251" x2="71.876" style="fill:none;stroke:#000000;stroke-width:0.3;" y2="-36.081"/>
  <line y1="-22.775" x1="70.364" x2="68.989" style="fill:none;stroke:#000000;stroke-width:0.3;" y2="-24.025"/>
  <line y1="-28.951" x1="79.55" x2="80.88" style="fill:none;stroke:#000000;stroke-width:0.3;" y2="-30.326"/>
  <line y1="-25.677" x1="75.129" x2="74.299" style="fill:none;stroke:#000000;stroke-width:0.3;" y2="-23.9"/>
  <line y1="-25.527" x1="71.713" x2="69.946" style="fill:none;stroke:#000000;stroke-width:0.3;" y2="-26.155"/>
  <line y1="-18.851" x1="77.93" x2="76.914" style="fill:none;stroke:#000000;stroke-width:0.3;" y2="-20.473"/>
  <line y1="-22.775" x1="41.739" x2="40.724" style="fill:none;stroke:#000000;stroke-width:0.3;" y2="-24.396"/>
  <line y1="-21.278" x1="73.993" x2="72.075" style="fill:none;stroke:#000000;stroke-width:0.3;" y2="-20.867"/>
  <line y1="-30.428" x1="66.76" x2="65.526" style="fill:none;stroke:#000000;stroke-width:0.3;" y2="-28.903"/>
  <line y1="-17.427" x1="80.766" x2="79.818" style="fill:none;stroke:#000000;stroke-width:0.3;" y2="-15.81"/>
  <line y1="-14.623" x1="68.612" x2="66.739" style="fill:none;stroke:#000000;stroke-width:0.3;" y2="-14.525"/>
  <line y1="-17.03" x1="74.196" x2="72.636" style="fill:none;stroke:#000000;stroke-width:0.3;" y2="-18.137"/>
  <line y1="-14.525" x1="57.989" x2="56.429" style="fill:none;stroke:#000000;stroke-width:0.3;" y2="-15.632"/>
  <line y1="-14.275" x1="72.489" x2="71.255" style="fill:none;stroke:#000000;stroke-width:0.3;" y2="-12.749"/>
  <line y1="-22.082" x1="80.641" x2="79.031" style="fill:none;stroke:#000000;stroke-width:0.3;" y2="-23.116"/>
  <line y1="-42.956" x1="75.126" x2="77.063" style="fill:none;stroke:#000000;stroke-width:0.3;" y2="-42.143"/>
  <line y1="-38.331" x1="67.563" x2="69.626" style="fill:none;stroke:#000000;stroke-width:0.3;" y2="-37.893"/>
  <line y1="-54.739" x1="79.332" x2="80.697" style="fill:none;stroke:#000000;stroke-width:0.3;" y2="-53.331"/>
  <line y1="-61.758" x1="66.864" x2="68.225" style="fill:none;stroke:#000000;stroke-width:0.3;" y2="-63.103"/>
  <line y1="-41.018" x1="4.063" x2="5.313" style="fill:none;stroke:#000000;stroke-width:0.3;" y2="-39.331"/>
  <line y1="-36.789" x1="4.001" x2="2.688" style="fill:none;stroke:#000000;stroke-width:0.3;" y2="-35.331"/>
  <line y1="-37.581" x1="7.647" x2="9.689" style="fill:none;stroke:#000000;stroke-width:0.3;" y2="-37.956"/>
  <line y1="-28.191" x1="6.239" x2="4.739" style="fill:none;stroke:#000000;stroke-width:0.3;" y2="-29.379"/>
  <line y1="-35.412" x1="10.047" x2="9.217" style="fill:none;stroke:#000000;stroke-width:0.3;" y2="-33.634"/>
  <line y1="-45.525" x1="39.489" x2="39.035" style="fill:none;stroke:#000000;stroke-width:0.3;" y2="-47.344"/>
  <line y1="-40.275" x1="45.989" x2="44.974" style="fill:none;stroke:#000000;stroke-width:0.3;" y2="-41.896"/>
  <line y1="-47.905" x1="4.446" x2="3.43" style="fill:none;stroke:#000000;stroke-width:0.3;" y2="-49.526"/>
  <line y1="-44.93" x1="50.082" x2="50.961" style="fill:none;stroke:#000000;stroke-width:0.3;" y2="-43.176"/>
  <line y1="-37.271" x1="50.328" x2="48.739" style="fill:none;stroke:#000000;stroke-width:0.3;" y2="-36.275"/>
  <line y1="-49.651" x1="69.284" x2="67.696" style="fill:none;stroke:#000000;stroke-width:0.3;" y2="-48.655"/>
  <line y1="-39.123" x1="55.989" x2="54.087" style="fill:none;stroke:#000000;stroke-width:0.3;" y2="-39.332"/>
  <line y1="-22.512" x1="29.593" x2="27.882" style="fill:none;stroke:#000000;stroke-width:0.3;" y2="-21.655"/>
  <line y1="-62.879" x1="2.789" x2="3.668" style="fill:none;stroke:#000000;stroke-width:0.3;" y2="-61.125"/>
  <line y1="-57.072" x1="8.696" x2="6.794" style="fill:none;stroke:#000000;stroke-width:0.3;" y2="-57.281"/>
  <line y1="-23.275" x1="6.239" x2="5.005" style="fill:none;stroke:#000000;stroke-width:0.3;" y2="-21.749"/>
  <line y1="-19.052" x1="3.829" x2="1.956" style="fill:none;stroke:#000000;stroke-width:0.3;" y2="-18.954"/>
  <line y1="-13.805" x1="5.279" x2="3.718" style="fill:none;stroke:#000000;stroke-width:0.3;" y2="-14.912"/>
  <line y1="-11.155" x1="4.696" x2="3.462" style="fill:none;stroke:#000000;stroke-width:0.3;" y2="-9.63"/>
  <line y1="-3.27" x1="5.191" x2="3.957" style="fill:none;stroke:#000000;stroke-width:0.3;" y2="-1.744"/>
  <line y1="-5.903" x1="3.472" x2="1.6" style="fill:none;stroke:#000000;stroke-width:0.3;" y2="-5.805"/>
  <line y1="-2.305" x1="11.513" x2="9.953" style="fill:none;stroke:#000000;stroke-width:0.3;" y2="-3.412"/>
  <line y1="-25.78" x1="4.633" x2="2.761" style="fill:none;stroke:#000000;stroke-width:0.3;" y2="-25.387"/>
  <line y1="-35.655" x1="19.696" x2="18.866" style="fill:none;stroke:#000000;stroke-width:0.3;" y2="-33.877"/>
  <line y1="-32.655" x1="14.696" x2="12.929" style="fill:none;stroke:#000000;stroke-width:0.3;" y2="-33.283"/>
  <line y1="-16.397" x1="64.006" x2="62.239" style="fill:none;stroke:#000000;stroke-width:0.3;" y2="-17.025"/>
  <line y1="-41.275" x1="33.989" x2="32.223" style="fill:none;stroke:#000000;stroke-width:0.3;" y2="-41.902"/>
  <line y1="-26.191" x1="20.656" x2="19.64" style="fill:none;stroke:#000000;stroke-width:0.3;" y2="-27.812"/>
  <line y1="-29.169" x1="24.934" x2="23.062" style="fill:none;stroke:#000000;stroke-width:0.3;" y2="-28.777"/>
  <line y1="-50.482" x1="20.375" x2="20.239" style="fill:none;stroke:#000000;stroke-width:0.3;" y2="-48.525"/>
  <line y1="-43.275" x1="13.989" x2="12.115" style="fill:none;stroke:#000000;stroke-width:0.3;" y2="-43.225"/>
  <line y1="-39.508" x1="19.727" x2="18.196" style="fill:none;stroke:#000000;stroke-width:0.3;" y2="-40.655"/>
  <line y1="-46.1" x1="22.957" x2="21.351" style="fill:none;stroke:#000000;stroke-width:0.3;" y2="-45.06"/>
  <line y1="-35.025" x1="26.739" x2="25.133" style="fill:none;stroke:#000000;stroke-width:0.3;" y2="-33.985"/>
  <line y1="-29.382" x1="36.893" x2="35.904" style="fill:none;stroke:#000000;stroke-width:0.3;" y2="-27.688"/>
  <line y1="-43.275" x1="25.989" x2="25" style="fill:none;stroke:#000000;stroke-width:0.3;" y2="-41.58"/>
  <line y1="-24.775" x1="31.239" x2="29.537" style="fill:none;stroke:#000000;stroke-width:0.3;" y2="-25.561"/>
  <line y1="-21.025" x1="35.14" x2="34.276" style="fill:none;stroke:#000000;stroke-width:0.3;" y2="-22.732"/>
  <line y1="-75.558" x1="60.306" x2="59.369" style="fill:none;stroke:#000000;stroke-width:0.3;" y2="-73.725"/>
  <line y1="-67.155" x1="60.196" x2="58.821" style="fill:none;stroke:#000000;stroke-width:0.3;" y2="-68.405"/>
  <line y1="-71.592" x1="51.133" x2="53.196" style="fill:none;stroke:#000000;stroke-width:0.3;" y2="-71.155"/>
  <line y1="-20.893" x1="22.813" x2="24.063" style="fill:none;stroke:#000000;stroke-width:0.3;" y2="-19.205"/>
  <line y1="-13.697" x1="39.842" x2="38.529" style="fill:none;stroke:#000000;stroke-width:0.3;" y2="-12.238"/>
  <line y1="-7.78" x1="35.05" x2="33.737" style="fill:none;stroke:#000000;stroke-width:0.3;" y2="-6.322"/>
  <line y1="-17.455" x1="26.397" x2="28.438" style="fill:none;stroke:#000000;stroke-width:0.3;" y2="-17.83"/>
  <line y1="-13.578" x1="8.999" x2="10.342" style="fill:none;stroke:#000000;stroke-width:0.3;" y2="-15.16"/>
  <line y1="-13.08" x1="19.063" x2="17.188" style="fill:none;stroke:#000000;stroke-width:0.3;" y2="-13.08"/>
  <line y1="-22.275" x1="13.989" x2="13.052" style="fill:none;stroke:#000000;stroke-width:0.3;" y2="-20.441"/>
  <line y1="-15.33" x1="15.251" x2="13.876" style="fill:none;stroke:#000000;stroke-width:0.3;" y2="-16.58"/>
  <line y1="-7.405" x1="27.446" x2="25.946" style="fill:none;stroke:#000000;stroke-width:0.3;" y2="-8.592"/>
  <line y1="-11.636" x1="20.754" x2="19.924" style="fill:none;stroke:#000000;stroke-width:0.3;" y2="-9.858"/>
  <line y1="-15.433" x1="32.526" x2="31.696" style="fill:none;stroke:#000000;stroke-width:0.3;" y2="-13.655"/>
  <line y1="-8.44" x1="13.625" x2="12.206" style="fill:none;stroke:#000000;stroke-width:0.3;" y2="-7.214"/>
  <line y1="-1.622" x1="19.034" x2="18.018" style="fill:none;stroke:#000000;stroke-width:0.3;" y2="-3.243"/>
  <line y1="-3.238" x1="26.696" x2="25.462" style="fill:none;stroke:#000000;stroke-width:0.3;" y2="-1.713"/>
  <line y1="-6.3" x1="23.404" x2="21.531" style="fill:none;stroke:#000000;stroke-width:0.3;" y2="-5.908"/>
  <line y1="-23.455" x1="17.126" x2="19.063" style="fill:none;stroke:#000000;stroke-width:0.3;" y2="-22.643"/>
  <line y1="-19.58" x1="9.501" x2="11.563" style="fill:none;stroke:#000000;stroke-width:0.3;" y2="-19.143"/>
  <line y1="-80.53" x1="80.508" x2="81.758" style="fill:none;stroke:#000000;stroke-width:0.3;" y2="-78.842"/>
  <line y1="-75.092" x1="81.779" x2="80.467" style="fill:none;stroke:#000000;stroke-width:0.3;" y2="-73.634"/>
  <line y1="-70.426" x1="73.446" x2="72.133" style="fill:none;stroke:#000000;stroke-width:0.3;" y2="-68.967"/>
  <line y1="-72.28" x1="77.321" x2="75.446" style="fill:none;stroke:#000000;stroke-width:0.3;" y2="-72.28"/>
  <line y1="-80.868" x1="72.941" x2="72.004" style="fill:none;stroke:#000000;stroke-width:0.3;" y2="-79.034"/>
  <line y1="-74.53" x1="73.508" x2="72.133" style="fill:none;stroke:#000000;stroke-width:0.3;" y2="-75.78"/>
  <line y1="-69.78" x1="81.633" x2="80.133" style="fill:none;stroke:#000000;stroke-width:0.3;" y2="-70.967"/>
  <line y1="-69.057" x1="78.181" x2="77.351" style="fill:none;stroke:#000000;stroke-width:0.3;" y2="-67.28"/>
  <line y1="-65.999" x1="73.361" x2="71.594" style="fill:none;stroke:#000000;stroke-width:0.3;" y2="-66.627"/>
  <line y1="-60.822" x1="77.292" x2="76.276" style="fill:none;stroke:#000000;stroke-width:0.3;" y2="-62.443"/>
  <line y1="-58.126" x1="80.836" x2="78.964" style="fill:none;stroke:#000000;stroke-width:0.3;" y2="-58.028"/>
  <line y1="-55.836" x1="76.455" x2="75.221" style="fill:none;stroke:#000000;stroke-width:0.3;" y2="-54.311"/>
  <line y1="-48.3" x1="75.474" x2="74.239" style="fill:none;stroke:#000000;stroke-width:0.3;" y2="-46.775"/>
  <line y1="-52.064" x1="72.961" x2="71.089" style="fill:none;stroke:#000000;stroke-width:0.3;" y2="-51.965"/>
  <line y1="-49.899" x1="77.018" x2="75.458" style="fill:none;stroke:#000000;stroke-width:0.3;" y2="-51.006"/>
  <line y1="-64.479" x1="80.911" x2="79.039" style="fill:none;stroke:#000000;stroke-width:0.3;" y2="-64.087"/>
  <line y1="-80.113" x1="76.071" x2="78.008" style="fill:none;stroke:#000000;stroke-width:0.3;" y2="-79.3"/>
  <line y1="-78.03" x1="67.821" x2="69.883" style="fill:none;stroke:#000000;stroke-width:0.3;" y2="-77.592"/>
  <line y1="-45.396" x1="80.266" x2="78.393" style="fill:none;stroke:#000000;stroke-width:0.3;" y2="-45.003"/>
  <line y1="-80.349" x1="43.436" x2="44.686" style="fill:none;stroke:#000000;stroke-width:0.3;" y2="-78.661"/>
  <line y1="-75.525" x1="43.739" x2="42.427" style="fill:none;stroke:#000000;stroke-width:0.3;" y2="-74.066"/>
  <line y1="-70.682" x1="35.811" x2="34.499" style="fill:none;stroke:#000000;stroke-width:0.3;" y2="-69.224"/>
  <line y1="-76.911" x1="47.02" x2="49.061" style="fill:none;stroke:#000000;stroke-width:0.3;" y2="-77.286"/>
  <line y1="-72.536" x1="39.686" x2="37.811" style="fill:none;stroke:#000000;stroke-width:0.3;" y2="-72.536"/>
  <line y1="-80.953" x1="32.311" x2="32.923" style="fill:none;stroke:#000000;stroke-width:0.3;" y2="-78.987"/>
  <line y1="-74.786" x1="35.874" x2="34.499" style="fill:none;stroke:#000000;stroke-width:0.3;" y2="-76.036"/>
  <line y1="-66.275" x1="47.989" x2="46.489" style="fill:none;stroke:#000000;stroke-width:0.3;" y2="-67.462"/>
  <line y1="-71.091" x1="41.377" x2="40.546" style="fill:none;stroke:#000000;stroke-width:0.3;" y2="-69.314"/>
  <line y1="-74.025" x1="48.989" x2="48.159" style="fill:none;stroke:#000000;stroke-width:0.3;" y2="-72.247"/>
  <line y1="-66.256" x1="35.726" x2="33.959" style="fill:none;stroke:#000000;stroke-width:0.3;" y2="-66.884"/>
  <line y1="-62.155" x1="46.696" x2="45.462" style="fill:none;stroke:#000000;stroke-width:0.3;" y2="-60.63"/>
  <line y1="-54.943" x1="39.593" x2="37.867" style="fill:none;stroke:#000000;stroke-width:0.3;" y2="-55.676"/>
  <line y1="-50.989" x1="46.112" x2="44.239" style="fill:none;stroke:#000000;stroke-width:0.3;" y2="-50.891"/>
  <line y1="-65.111" x1="44.006" x2="42.133" style="fill:none;stroke:#000000;stroke-width:0.3;" y2="-64.718"/>
  <line y1="-78.572" x1="28.029" x2="29.967" style="fill:none;stroke:#000000;stroke-width:0.3;" y2="-77.759"/>
  <line y1="-62.814" x1="73.336" x2="71.464" style="fill:none;stroke:#000000;stroke-width:0.3;" y2="-62.715"/>
  <line y1="-67.229" x1="68.328" x2="66.768" style="fill:none;stroke:#000000;stroke-width:0.3;" y2="-68.337"/>
  <polyline points="39.226,-65.925 39.508,-63.926 37.593,-64.564   " style="fill:none;stroke:#000000;stroke-width:0.3;"/>
  <polyline points="25.119,-66.858 26.133,-65.113 24.119,-64.983   " style="fill:none;stroke:#000000;stroke-width:0.3;"/>
  <polyline points="59.094,-59.234 60.109,-57.488 58.094,-57.358   " style="fill:none;stroke:#000000;stroke-width:0.3;"/>
  <polyline points="17.077,-7.213 18.092,-5.468 16.077,-5.338   " style="fill:none;stroke:#000000;stroke-width:0.3;"/>
  <polyline points="70.556,-46.671 71.571,-44.926 69.556,-44.796   " style="fill:none;stroke:#000000;stroke-width:0.3;"/>
  <polyline points="46.056,-20.171 47.071,-18.426 45.056,-18.296   " style="fill:none;stroke:#000000;stroke-width:0.3;"/>
  <polyline points="22.806,-78.318 22.178,-80.236 24.175,-79.943   " style="fill:none;stroke:#000000;stroke-width:0.3;"/>
  <polyline points="31.006,-72.928 32.758,-71.926 31.08,-70.804   " style="fill:none;stroke:#000000;stroke-width:0.3;"/>
  <polyline points="56.413,-72.591 58.166,-71.589 56.487,-70.467   " style="fill:none;stroke:#000000;stroke-width:0.3;"/>
  <polyline points="18.582,-45.368 18.821,-43.363 16.92,-44.044   " style="fill:none;stroke:#000000;stroke-width:0.3;"/>
  <polyline points="72.433,-59.363 72.671,-57.359 70.771,-58.039   " style="fill:none;stroke:#000000;stroke-width:0.3;"/>
  <polyline points="44.082,-7.881 44.321,-5.877 42.42,-6.557   " style="fill:none;stroke:#000000;stroke-width:0.3;"/>
  <polyline points="64.251,-42.279 64.489,-40.275 62.589,-40.955   " style="fill:none;stroke:#000000;stroke-width:0.3;"/>
  <polyline points="65.082,-53.43 65.321,-51.426 63.42,-52.106   " style="fill:none;stroke:#000000;stroke-width:0.3;"/>
  <polyline points="50.251,-53.029 50.489,-51.025 48.589,-51.705   " style="fill:none;stroke:#000000;stroke-width:0.3;"/>
  <polyline points="5.246,-42.539 3.404,-43.363 4.963,-44.645   " style="fill:none;stroke:#000000;stroke-width:0.3;"/>
  <polyline points="18.488,-73.51 17.321,-71.863 16.368,-73.643   " style="fill:none;stroke:#000000;stroke-width:0.3;"/>
  <polyline points="32.921,-58.197 30.946,-58.613 32.199,-60.196   " style="fill:none;stroke:#000000;stroke-width:0.3;"/>
  <polyline points="37.711,-50.989 38.821,-52.676 39.835,-50.931   " style="fill:none;stroke:#000000;stroke-width:0.3;"/>
  <polyline points="31.451,-36.506 31.508,-34.488 29.677,-35.337   " style="fill:none;stroke:#000000;stroke-width:0.3;"/>
  <polyline points="52.014,-80.694 52.071,-78.676 50.239,-79.525   " style="fill:none;stroke:#000000;stroke-width:0.3;"/>
  <polyline points="70.764,-6.444 70.821,-4.426 68.989,-5.275   " style="fill:none;stroke:#000000;stroke-width:0.3;"/>
  <polyline points="17.975,-57.712 19.633,-58.863 19.924,-56.866   " style="fill:none;stroke:#000000;stroke-width:0.3;"/>
  <polyline points="10.627,-52.773 12.321,-51.676 10.583,-50.649   " style="fill:none;stroke:#000000;stroke-width:0.3;"/>
  <polyline points="31.064,-19.711 32.758,-18.613 31.021,-17.586   " style="fill:none;stroke:#000000;stroke-width:0.3;"/>
  <polyline points="26.039,-52.103 24.446,-50.863 24.047,-52.842   " style="fill:none;stroke:#000000;stroke-width:0.3;"/>
  <polyline points="78.321,-65.926 76.728,-64.687 76.329,-66.665   " style="fill:none;stroke:#000000;stroke-width:0.3;"/>
  <polyline points="52.539,-40.644 50.946,-39.405 50.547,-41.384   " style="fill:none;stroke:#000000;stroke-width:0.3;"/>
  <polyline points="45.989,-71.775 44.396,-70.535 43.997,-72.514   " style="fill:none;stroke:#000000;stroke-width:0.3;"/>
  <polyline points="4.106,-34.067 4.008,-32.051 2.247,-33.037   " style="fill:none;stroke:#000000;stroke-width:0.3;"/>
  <polyline points="50.837,-27.541 50.739,-25.525 48.978,-26.511   " style="fill:none;stroke:#000000;stroke-width:0.3;"/>
  <polyline points="10.508,-23.947 8.55,-24.436 9.862,-25.971   " style="fill:none;stroke:#000000;stroke-width:0.3;"/>
  <polyline points="59.239,-4.775 57.281,-5.264 58.593,-6.799   " style="fill:none;stroke:#000000;stroke-width:0.3;"/>
  <polyline points="18.922,-17.504 17.196,-18.551 18.903,-19.629   " style="fill:none;stroke:#000000;stroke-width:0.3;"/>
  <polyline points="77.465,-12.978 75.739,-14.025 77.446,-15.102   " style="fill:none;stroke:#000000;stroke-width:0.3;"/>
  <polyline points="58.797,-30.879 57.071,-31.926 58.778,-33.004   " style="fill:none;stroke:#000000;stroke-width:0.3;"/>
  <polyline points="23.321,-25.357 25.308,-25.711 24.739,-23.775   " style="fill:none;stroke:#000000;stroke-width:0.3;"/>
  <polyline points="80.75,-48.912 79.573,-50.551 81.565,-50.874   " style="fill:none;stroke:#000000;stroke-width:0.3;"/>
  <polyline points="5.762,-19.806 6.758,-18.051 4.743,-17.942   " style="fill:none;stroke:#000000;stroke-width:0.3;"/>
  <polyline points="80.027,-25.482 78.029,-25.197 78.665,-27.113   " style="fill:none;stroke:#000000;stroke-width:0.3;"/>
  <polyline points="39.551,-38.398 41.075,-39.721 41.58,-37.767   " style="fill:none;stroke:#000000;stroke-width:0.3;"/>
  <polyline points="67.48,-17.807 69.004,-19.13 69.508,-17.176   " style="fill:none;stroke:#000000;stroke-width:0.3;"/>
  <polyline points="56.609,-44.603 58.133,-45.926 58.638,-43.971   " style="fill:none;stroke:#000000;stroke-width:0.3;"/>
  <polyline points="44.071,-57.676 45.595,-58.999 46.1,-57.044   " style="fill:none;stroke:#000000;stroke-width:0.3;"/>
  <polyline points="36.776,-77.832 38.3,-79.155 38.804,-77.201   " style="fill:none;stroke:#000000;stroke-width:0.3;"/>
  <polyline points="22.701,-37.675 23.236,-39.622 24.739,-38.275   " style="fill:none;stroke:#000000;stroke-width:0.3;"/>
  <polyline points="62.782,-63.931 63.318,-65.877 64.821,-64.53   " style="fill:none;stroke:#000000;stroke-width:0.3;"/>
  <polyline points="34.701,-9.675 35.236,-11.622 36.739,-10.275   " style="fill:none;stroke:#000000;stroke-width:0.3;"/>
  <polyline points="43.243,-44.212 44.633,-45.676 45.323,-43.779   " style="fill:none;stroke:#000000;stroke-width:0.3;"/>
  <polyline points="10.953,-40.705 12.883,-40.113 11.493,-38.65   " style="fill:none;stroke:#000000;stroke-width:0.3;"/>
  <polyline points="62.891,-80.268 64.821,-79.676 63.431,-78.212   " style="fill:none;stroke:#000000;stroke-width:0.3;"/>
  <polyline points="78.208,-75.395 76.33,-74.655 76.505,-76.666   " style="fill:none;stroke:#000000;stroke-width:0.3;"/>
  <polyline points="49.891,-12.768 51.821,-12.176 50.431,-10.712   " style="fill:none;stroke:#000000;stroke-width:0.3;"/>
  <polyline points="24.829,-12.955 26.758,-12.363 25.368,-10.9   " style="fill:none;stroke:#000000;stroke-width:0.3;"/>
  <polyline points="77.266,-4.163 79.196,-3.572 77.806,-2.108   " style="fill:none;stroke:#000000;stroke-width:0.3;"/>
  <polyline points="4.794,-73.039 5.571,-71.176 3.557,-71.312   " style="fill:none;stroke:#000000;stroke-width:0.3;"/>
  <polyline points="10.052,-65.401 12.071,-65.426 11.193,-63.608   " style="fill:none;stroke:#000000;stroke-width:0.3;"/>
  <polyline points="3.053,-59.401 5.071,-59.426 4.193,-57.608   " style="fill:none;stroke:#000000;stroke-width:0.3;"/>
  <polyline points="18.571,-32.261 19.258,-30.363 17.253,-30.595   " style="fill:none;stroke:#000000;stroke-width:0.3;"/>
  <polyline points="69.884,-33.324 70.571,-31.426 68.566,-31.657   " style="fill:none;stroke:#000000;stroke-width:0.3;"/>
  <polyline points="65.134,-26.553 65.821,-24.655 63.816,-24.886   " style="fill:none;stroke:#000000;stroke-width:0.3;"/>
  <polyline points="38.148,-23.983 36.133,-24.113 37.148,-25.858   " style="fill:none;stroke:#000000;stroke-width:0.3;"/>
  <polyline points="31.425,-4.176 29.411,-4.306 30.425,-6.051   " style="fill:none;stroke:#000000;stroke-width:0.3;"/>
  <polyline points="58.835,-18.546 56.821,-18.676 57.836,-20.421   " style="fill:none;stroke:#000000;stroke-width:0.3;"/>
  <polyline points="8.056,-5.558 6.042,-5.688 7.057,-7.433   " style="fill:none;stroke:#000000;stroke-width:0.3;"/>
  <polyline points="32.458,-44.772 30.446,-44.613 31.201,-46.485   " style="fill:none;stroke:#000000;stroke-width:0.3;"/>
  <polyline points="70.455,-71.176 68.442,-71.017 69.198,-72.889   " style="fill:none;stroke:#000000;stroke-width:0.3;"/>
  <polyline points="51.489,-62.525 49.477,-62.366 50.232,-64.238   " style="fill:none;stroke:#000000;stroke-width:0.3;"/>
  <polyline points="14.271,-10.96 12.258,-10.801 13.014,-12.673   " style="fill:none;stroke:#000000;stroke-width:0.3;"/>
  <polyline points="78.571,-37.926 76.559,-37.767 77.314,-39.639   " style="fill:none;stroke:#000000;stroke-width:0.3;"/>
  <polyline points="66.738,-11.392 64.726,-11.233 65.481,-13.106   " style="fill:none;stroke:#000000;stroke-width:0.3;"/>
  <polyline points="44.277,-32.497 46.239,-32.025 44.941,-30.479   " style="fill:none;stroke:#000000;stroke-width:0.3;"/>
  <polyline points="12.72,-79.469 13.525,-81.321 14.823,-79.775   " style="fill:none;stroke:#000000;stroke-width:0.3;"/>
 </g>
</svg>
