<?xml version="1.0"?>
<!-- Converted with SVG Converter - Version 0.9.5 (Compiled Fri Feb 21 09:53:38 2020) - Copyright (C) 2011 Nokia -->
<svg xmlns="http://www.w3.org/2000/svg" version="1.1" xml:space="preserve" xmlns:xlink="http://www.w3.org/1999/xlink" x="0px" viewBox="1.054 -87.25 86.25 86.25" width="86.25" height="86.25" baseProfile="tiny" y="0px">
 <g>
  <rect x="1.054" style="fill:none;" width="86.25" height="86.25" y="-87.25"/>
  <line y1="-80.25" style="fill:none;stroke:#000000;stroke-width:0.3;" x1="13.304" y2="-84.562" x2="17.242"/>
  <line y1="-83.188" style="fill:none;stroke:#000000;stroke-width:0.3;" x1="14.679" y2="-81.938" x2="16.117"/>
  <line y1="-82.093" style="fill:none;stroke:#000000;stroke-width:0.3;" x1="6.319" y2="-86.347" x2="2.318"/>
  <line y1="-83.688" style="fill:none;stroke:#000000;stroke-width:0.3;" x1="3.494" y2="-85.026" x2="4.85"/>
  <line y1="-74.651" style="fill:none;stroke:#000000;stroke-width:0.3;" x1="1.6" y2="-76.85" x2="7.01"/>
  <line y1="-76.711" style="fill:none;stroke:#000000;stroke-width:0.3;" x1="4.105" y2="-74.964" x2="4.865"/>
  <line y1="-54.83" style="fill:none;stroke:#000000;stroke-width:0.3;" x1="20.683" y2="-57.028" x2="26.093"/>
  <line y1="-56.89" style="fill:none;stroke:#000000;stroke-width:0.3;" x1="23.189" y2="-55.143" x2="23.948"/>
  <line y1="-73.751" style="fill:none;stroke:#000000;stroke-width:0.3;" x1="10.16" y2="-74.891" x2="15.888"/>
  <line y1="-75.302" style="fill:none;stroke:#000000;stroke-width:0.3;" x1="13.009" y2="-73.444" x2="13.426"/>
  <line y1="-70.995" style="fill:none;stroke:#000000;stroke-width:0.3;" x1="18.838" y2="-75.5" x2="22.554"/>
  <line y1="-73.998" style="fill:none;stroke:#000000;stroke-width:0.3;" x1="20.064" y2="-72.822" x2="21.563"/>
  <line y1="-53.809" style="fill:none;stroke:#000000;stroke-width:0.3;" x1="10.998" y2="-58.313" x2="14.714"/>
  <line y1="-56.812" style="fill:none;stroke:#000000;stroke-width:0.3;" x1="12.224" y2="-55.635" x2="13.722"/>
  <line y1="-73.214" style="fill:none;stroke:#000000;stroke-width:0.3;" x1="32.421" y2="-77.598" x2="28.563"/>
  <line y1="-74.901" style="fill:none;stroke:#000000;stroke-width:0.3;" x1="29.651" y2="-76.194" x2="31.05"/>
  <line y1="-50.032" style="fill:none;stroke:#000000;stroke-width:0.3;" x1="7.567" y2="-47.202" x2="2.46"/>
  <line y1="-47.687" style="fill:none;stroke:#000000;stroke-width:0.3;" x1="5.327" y2="-49.33" x2="4.364"/>
  <line y1="-61.627" style="fill:none;stroke:#000000;stroke-width:0.3;" x1="31.879" y2="-67.095" x2="33.928"/>
  <line y1="-64.865" style="fill:none;stroke:#000000;stroke-width:0.3;" x1="32.061" y2="-64.24" x2="33.861"/>
  <line y1="-45.94" style="fill:none;stroke:#000000;stroke-width:0.3;" x1="21.091" y2="-51.408" x2="23.14"/>
  <line y1="-49.178" style="fill:none;stroke:#000000;stroke-width:0.3;" x1="21.274" y2="-48.553" x2="23.073"/>
  <line y1="-66.031" style="fill:none;stroke:#000000;stroke-width:0.3;" x1="42.868" y2="-65.573" x2="37.047"/>
  <line y1="-64.826" style="fill:none;stroke:#000000;stroke-width:0.3;" x1="39.857" y2="-66.72" x2="39.662"/>
  <line y1="-48.093" style="fill:none;stroke:#000000;stroke-width:0.3;" x1="16.243" y2="-47.635" x2="10.422"/>
  <line y1="-46.888" style="fill:none;stroke:#000000;stroke-width:0.3;" x1="13.232" y2="-48.783" x2="13.037"/>
  <line y1="-67.577" style="fill:none;stroke:#000000;stroke-width:0.3;" x1="7.469" y2="-63.649" x2="3.148"/>
  <line y1="-64.78" style="fill:none;stroke:#000000;stroke-width:0.3;" x1="5.827" y2="-66.158" x2="4.512"/>
  <line y1="-61.909" style="fill:none;stroke:#000000;stroke-width:0.3;" x1="14.728" y2="-67.189" x2="12.233"/>
  <line y1="-64.296" style="fill:none;stroke:#000000;stroke-width:0.3;" x1="12.532" y2="-65.151" x2="14.235"/>
  <line y1="-54.284" style="fill:none;stroke:#000000;stroke-width:0.3;" x1="41.144" y2="-59.564" x2="38.65"/>
  <line y1="-56.671" style="fill:none;stroke:#000000;stroke-width:0.3;" x1="38.949" y2="-57.526" x2="40.651"/>
  <line y1="-80.911" style="fill:none;stroke:#000000;stroke-width:0.3;" x1="32.923" y2="-86.494" x2="31.213"/>
  <line y1="-83.589" style="fill:none;stroke:#000000;stroke-width:0.3;" x1="31.093" y2="-84.19" x2="32.9"/>
  <line y1="-83.107" style="fill:none;stroke:#000000;stroke-width:0.3;" x1="38.38" y2="-85.5" x2="43.707"/>
  <line y1="-85.256" style="fill:none;stroke:#000000;stroke-width:0.3;" x1="40.809" y2="-83.538" x2="41.632"/>
  <line y1="-70.879" style="fill:none;stroke:#000000;stroke-width:0.3;" x1="38.598" y2="-76.141" x2="41.13"/>
  <line y1="-74.088" style="fill:none;stroke:#000000;stroke-width:0.3;" x1="39.071" y2="-73.304" x2="40.807"/>
  <line y1="-79.298" style="fill:none;stroke:#000000;stroke-width:0.3;" x1="24.301" y2="-84.324" x2="21.328"/>
  <line y1="-81.472" style="fill:none;stroke:#000000;stroke-width:0.3;" x1="21.894" y2="-82.481" x2="23.51"/>
  <line y1="-54.411" style="fill:none;stroke:#000000;stroke-width:0.3;" x1="35.033" y2="-57.736" x2="30.233"/>
  <line y1="-55.381" style="fill:none;stroke:#000000;stroke-width:0.3;" x1="31.938" y2="-56.972" x2="32.985"/>
  <line y1="-46.5" style="fill:none;stroke:#000000;stroke-width:0.3;" x1="40.554" y2="-49.826" x2="35.755"/>
  <line y1="-47.47" style="fill:none;stroke:#000000;stroke-width:0.3;" x1="37.46" y2="-49.062" x2="38.506"/>
  <line y1="-62.366" style="fill:none;stroke:#000000;stroke-width:0.3;" x1="24.554" y2="-62.301" x2="18.715"/>
  <line y1="-61.367" style="fill:none;stroke:#000000;stroke-width:0.3;" x1="21.469" y2="-63.271" x2="21.402"/>
  <line y1="-47.5" style="fill:none;stroke:#000000;stroke-width:0.3;" x1="32.304" y2="-47.435" x2="26.465"/>
  <line y1="-46.501" style="fill:none;stroke:#000000;stroke-width:0.3;" x1="29.219" y2="-48.404" x2="29.152"/>
  <line y1="-55.917" style="fill:none;stroke:#000000;stroke-width:0.3;" x1="7.721" y2="-55.852" x2="1.882"/>
  <line y1="-54.917" style="fill:none;stroke:#000000;stroke-width:0.3;" x1="4.636" y2="-56.821" x2="4.569"/>
  <line y1="-79.042" style="fill:none;stroke:#000000;stroke-width:0.3;" x1="55.971" y2="-83.354" x2="59.909"/>
  <line y1="-81.979" style="fill:none;stroke:#000000;stroke-width:0.3;" x1="57.346" y2="-80.729" x2="58.784"/>
  <line y1="-82.093" style="fill:none;stroke:#000000;stroke-width:0.3;" x1="49.569" y2="-86.347" x2="45.568"/>
  <line y1="-83.688" style="fill:none;stroke:#000000;stroke-width:0.3;" x1="46.744" y2="-85.026" x2="48.1"/>
  <line y1="-75.714" style="fill:none;stroke:#000000;stroke-width:0.3;" x1="44.787" y2="-77.912" x2="50.198"/>
  <line y1="-77.774" style="fill:none;stroke:#000000;stroke-width:0.3;" x1="47.293" y2="-76.027" x2="48.052"/>
  <line y1="-58.089" style="fill:none;stroke:#000000;stroke-width:0.3;" x1="63.371" y2="-60.287" x2="68.781"/>
  <line y1="-60.149" style="fill:none;stroke:#000000;stroke-width:0.3;" x1="65.876" y2="-58.402" x2="66.636"/>
  <line y1="-71.564" style="fill:none;stroke:#000000;stroke-width:0.3;" x1="56.046" y2="-76.233" x2="59.553"/>
  <line y1="-74.619" style="fill:none;stroke:#000000;stroke-width:0.3;" x1="57.134" y2="-73.512" x2="58.684"/>
  <line y1="-71.684" style="fill:none;stroke:#000000;stroke-width:0.3;" x1="64.289" y2="-76.188" x2="68.006"/>
  <line y1="-74.687" style="fill:none;stroke:#000000;stroke-width:0.3;" x1="65.515" y2="-73.51" x2="67.014"/>
  <line y1="-53.809" style="fill:none;stroke:#000000;stroke-width:0.3;" x1="53.681" y2="-58.313" x2="57.397"/>
  <line y1="-56.812" style="fill:none;stroke:#000000;stroke-width:0.3;" x1="54.907" y2="-55.635" x2="56.405"/>
  <line y1="-73.214" style="fill:none;stroke:#000000;stroke-width:0.3;" x1="75.671" y2="-77.598" x2="71.813"/>
  <line y1="-74.901" style="fill:none;stroke:#000000;stroke-width:0.3;" x1="72.901" y2="-76.194" x2="74.3"/>
  <line y1="-44.671" style="fill:none;stroke:#000000;stroke-width:0.3;" x1="48.352" y2="-50.494" x2="47.918"/>
  <line y1="-47.687" style="fill:none;stroke:#000000;stroke-width:0.3;" x1="47.159" y2="-47.875" x2="49.055"/>
  <line y1="-65.683" style="fill:none;stroke:#000000;stroke-width:0.3;" x1="28.271" y2="-70.067" x2="24.413"/>
  <line y1="-67.37" style="fill:none;stroke:#000000;stroke-width:0.3;" x1="25.501" y2="-68.663" x2="26.9"/>
  <line y1="-61.627" style="fill:none;stroke:#000000;stroke-width:0.3;" x1="74.279" y2="-67.095" x2="76.327"/>
  <line y1="-64.865" style="fill:none;stroke:#000000;stroke-width:0.3;" x1="74.461" y2="-64.24" x2="76.26"/>
  <line y1="-44.627" style="fill:none;stroke:#000000;stroke-width:0.3;" x1="66.904" y2="-50.095" x2="68.952"/>
  <line y1="-47.865" style="fill:none;stroke:#000000;stroke-width:0.3;" x1="67.086" y2="-47.24" x2="68.885"/>
  <line y1="-66.031" style="fill:none;stroke:#000000;stroke-width:0.3;" x1="86.118" y2="-65.573" x2="80.297"/>
  <line y1="-64.826" style="fill:none;stroke:#000000;stroke-width:0.3;" x1="83.107" y2="-66.72" x2="82.912"/>
  <line y1="-50.1" style="fill:none;stroke:#000000;stroke-width:0.3;" x1="57.168" y2="-44.339" x2="56.217"/>
  <line y1="-46.888" style="fill:none;stroke:#000000;stroke-width:0.3;" x1="57.616" y2="-47.153" x2="55.73"/>
  <line y1="-67.577" style="fill:none;stroke:#000000;stroke-width:0.3;" x1="50.719" y2="-63.649" x2="46.398"/>
  <line y1="-64.78" style="fill:none;stroke:#000000;stroke-width:0.3;" x1="49.077" y2="-66.158" x2="47.762"/>
  <line y1="-61.909" style="fill:none;stroke:#000000;stroke-width:0.3;" x1="57.978" y2="-67.189" x2="55.483"/>
  <line y1="-64.296" style="fill:none;stroke:#000000;stroke-width:0.3;" x1="55.782" y2="-65.151" x2="57.485"/>
  <line y1="-54.284" style="fill:none;stroke:#000000;stroke-width:0.3;" x1="84.394" y2="-59.564" x2="81.9"/>
  <line y1="-56.671" style="fill:none;stroke:#000000;stroke-width:0.3;" x1="82.199" y2="-57.526" x2="83.901"/>
  <line y1="-80.911" style="fill:none;stroke:#000000;stroke-width:0.3;" x1="76.173" y2="-86.494" x2="74.463"/>
  <line y1="-83.589" style="fill:none;stroke:#000000;stroke-width:0.3;" x1="74.343" y2="-84.19" x2="76.15"/>
  <line y1="-83.107" style="fill:none;stroke:#000000;stroke-width:0.3;" x1="81.63" y2="-85.5" x2="86.957"/>
  <line y1="-85.256" style="fill:none;stroke:#000000;stroke-width:0.3;" x1="84.059" y2="-83.538" x2="84.882"/>
  <line y1="-70.879" style="fill:none;stroke:#000000;stroke-width:0.3;" x1="81.848" y2="-76.141" x2="84.38"/>
  <line y1="-74.088" style="fill:none;stroke:#000000;stroke-width:0.3;" x1="82.321" y2="-73.304" x2="84.057"/>
  <line y1="-79.298" style="fill:none;stroke:#000000;stroke-width:0.3;" x1="67.55" y2="-84.324" x2="64.578"/>
  <line y1="-81.472" style="fill:none;stroke:#000000;stroke-width:0.3;" x1="65.144" y2="-82.481" x2="66.759"/>
  <line y1="-53.223" style="fill:none;stroke:#000000;stroke-width:0.3;" x1="75.908" y2="-56.549" x2="71.108"/>
  <line y1="-54.193" style="fill:none;stroke:#000000;stroke-width:0.3;" x1="72.813" y2="-55.785" x2="73.86"/>
  <line y1="-45.848" style="fill:none;stroke:#000000;stroke-width:0.3;" x1="86.221" y2="-49.174" x2="81.421"/>
  <line y1="-46.818" style="fill:none;stroke:#000000;stroke-width:0.3;" x1="83.126" y2="-48.41" x2="84.173"/>
  <line y1="-66.038" style="fill:none;stroke:#000000;stroke-width:0.3;" x1="68.57" y2="-65.974" x2="62.731"/>
  <line y1="-65.039" style="fill:none;stroke:#000000;stroke-width:0.3;" x1="65.484" y2="-66.943" x2="65.417"/>
  <line y1="-49.5" style="fill:none;stroke:#000000;stroke-width:0.3;" x1="78.054" y2="-49.435" x2="72.215"/>
  <line y1="-48.501" style="fill:none;stroke:#000000;stroke-width:0.3;" x1="74.969" y2="-50.404" x2="74.902"/>
  <line y1="-55.917" style="fill:none;stroke:#000000;stroke-width:0.3;" x1="50.971" y2="-55.852" x2="45.132"/>
  <line y1="-54.917" style="fill:none;stroke:#000000;stroke-width:0.3;" x1="47.886" y2="-56.821" x2="47.819"/>
  <line y1="-38.667" style="fill:none;stroke:#000000;stroke-width:0.3;" x1="13.284" y2="-42.979" x2="17.221"/>
  <line y1="-41.604" style="fill:none;stroke:#000000;stroke-width:0.3;" x1="14.659" y2="-40.354" x2="16.096"/>
  <line y1="-38.843" style="fill:none;stroke:#000000;stroke-width:0.3;" x1="6.319" y2="-43.097" x2="2.318"/>
  <line y1="-40.438" style="fill:none;stroke:#000000;stroke-width:0.3;" x1="3.494" y2="-41.776" x2="4.85"/>
  <line y1="-31.402" style="fill:none;stroke:#000000;stroke-width:0.3;" x1="1.6" y2="-33.599" x2="7.01"/>
  <line y1="-33.461" style="fill:none;stroke:#000000;stroke-width:0.3;" x1="4.105" y2="-31.714" x2="4.865"/>
  <line y1="-12.714" style="fill:none;stroke:#000000;stroke-width:0.3;" x1="20.683" y2="-14.912" x2="26.093"/>
  <line y1="-14.774" style="fill:none;stroke:#000000;stroke-width:0.3;" x1="23.189" y2="-13.027" x2="23.948"/>
  <line y1="-30.36" style="fill:none;stroke:#000000;stroke-width:0.3;" x1="8.827" y2="-31.5" x2="14.554"/>
  <line y1="-31.911" style="fill:none;stroke:#000000;stroke-width:0.3;" x1="11.676" y2="-30.052" x2="12.093"/>
  <line y1="-26.996" style="fill:none;stroke:#000000;stroke-width:0.3;" x1="17.588" y2="-31.5" x2="21.304"/>
  <line y1="-29.998" style="fill:none;stroke:#000000;stroke-width:0.3;" x1="18.814" y2="-28.822" x2="20.313"/>
  <line y1="-10.559" style="fill:none;stroke:#000000;stroke-width:0.3;" x1="10.998" y2="-15.064" x2="14.714"/>
  <line y1="-13.562" style="fill:none;stroke:#000000;stroke-width:0.3;" x1="12.224" y2="-12.385" x2="13.722"/>
  <line y1="-28.25" style="fill:none;stroke:#000000;stroke-width:0.3;" x1="30.554" y2="-32.634" x2="26.697"/>
  <line y1="-29.937" style="fill:none;stroke:#000000;stroke-width:0.3;" x1="27.784" y2="-31.229" x2="29.184"/>
  <line y1="-2.75" style="fill:none;stroke:#000000;stroke-width:0.3;" x1="6.679" y2="-7.134" x2="2.822"/>
  <line y1="-4.437" style="fill:none;stroke:#000000;stroke-width:0.3;" x1="3.909" y2="-5.729" x2="5.308"/>
  <line y1="-18.75" style="fill:none;stroke:#000000;stroke-width:0.3;" x1="30.054" y2="-24.218" x2="32.103"/>
  <line y1="-21.988" style="fill:none;stroke:#000000;stroke-width:0.3;" x1="30.237" y2="-21.363" x2="32.036"/>
  <line y1="-2.69" style="fill:none;stroke:#000000;stroke-width:0.3;" x1="21.091" y2="-8.158" x2="23.14"/>
  <line y1="-5.928" style="fill:none;stroke:#000000;stroke-width:0.3;" x1="21.274" y2="-5.303" x2="23.073"/>
  <line y1="-19.21" style="fill:none;stroke:#000000;stroke-width:0.3;" x1="39.808" y2="-24.465" x2="37.262"/>
  <line y1="-21.576" style="fill:none;stroke:#000000;stroke-width:0.3;" x1="37.589" y2="-22.448" x2="39.283"/>
  <line y1="-4.843" style="fill:none;stroke:#000000;stroke-width:0.3;" x1="16.243" y2="-4.385" x2="10.422"/>
  <line y1="-3.638" style="fill:none;stroke:#000000;stroke-width:0.3;" x1="13.232" y2="-5.533" x2="13.037"/>
  <line y1="-24.327" style="fill:none;stroke:#000000;stroke-width:0.3;" x1="7.469" y2="-20.399" x2="3.148"/>
  <line y1="-21.53" style="fill:none;stroke:#000000;stroke-width:0.3;" x1="5.827" y2="-22.908" x2="4.512"/>
  <line y1="-18.659" style="fill:none;stroke:#000000;stroke-width:0.3;" x1="14.728" y2="-23.939" x2="12.233"/>
  <line y1="-21.046" style="fill:none;stroke:#000000;stroke-width:0.3;" x1="12.532" y2="-21.901" x2="14.235"/>
  <line y1="-10.179" style="fill:none;stroke:#000000;stroke-width:0.3;" x1="39.029" y2="-15.795" x2="40.629"/>
  <line y1="-13.421" style="fill:none;stroke:#000000;stroke-width:0.3;" x1="38.949" y2="-12.944" x2="40.793"/>
  <line y1="-37.75" style="fill:none;stroke:#000000;stroke-width:0.3;" x1="40.054" y2="-43.334" x2="38.345"/>
  <line y1="-40.428" style="fill:none;stroke:#000000;stroke-width:0.3;" x1="38.225" y2="-41.03" x2="40.032"/>
  <line y1="-37.107" style="fill:none;stroke:#000000;stroke-width:0.3;" x1="28.978" y2="-39.5" x2="34.304"/>
  <line y1="-39.256" style="fill:none;stroke:#000000;stroke-width:0.3;" x1="31.407" y2="-37.538" x2="32.229"/>
  <line y1="-30.64" style="fill:none;stroke:#000000;stroke-width:0.3;" x1="34.557" y2="-31.908" x2="40.257"/>
  <line y1="-32.255" style="fill:none;stroke:#000000;stroke-width:0.3;" x1="37.37" y2="-30.406" x2="37.828"/>
  <line y1="-9.5" style="fill:none;stroke:#000000;stroke-width:0.3;" x1="33.804" y2="-12.825" x2="29.004"/>
  <line y1="-10.47" style="fill:none;stroke:#000000;stroke-width:0.3;" x1="30.71" y2="-12.062" x2="31.756"/>
  <line y1="-51.5" style="fill:none;stroke:#000000;stroke-width:0.3;" x1="64.804" y2="-54.826" x2="60.005"/>
  <line y1="-52.47" style="fill:none;stroke:#000000;stroke-width:0.3;" x1="61.71" y2="-54.062" x2="62.756"/>
  <line y1="-2.598" style="fill:none;stroke:#000000;stroke-width:0.3;" x1="42.971" y2="-5.924" x2="38.171"/>
  <line y1="-3.568" style="fill:none;stroke:#000000;stroke-width:0.3;" x1="39.876" y2="-5.16" x2="40.923"/>
  <line y1="-22.788" style="fill:none;stroke:#000000;stroke-width:0.3;" x1="25.32" y2="-22.724" x2="19.481"/>
  <line y1="-21.789" style="fill:none;stroke:#000000;stroke-width:0.3;" x1="22.235" y2="-23.693" x2="22.167"/>
  <line y1="-3.309" style="fill:none;stroke:#000000;stroke-width:0.3;" x1="34.257" y2="-3.244" x2="28.418"/>
  <line y1="-2.31" style="fill:none;stroke:#000000;stroke-width:0.3;" x1="31.172" y2="-4.213" x2="31.105"/>
  <line y1="-12.667" style="fill:none;stroke:#000000;stroke-width:0.3;" x1="7.721" y2="-12.602" x2="1.882"/>
  <line y1="-11.667" style="fill:none;stroke:#000000;stroke-width:0.3;" x1="4.636" y2="-13.571" x2="4.569"/>
  <line y1="-36.542" style="fill:none;stroke:#000000;stroke-width:0.3;" x1="53.929" y2="-40.854" x2="57.867"/>
  <line y1="-39.479" style="fill:none;stroke:#000000;stroke-width:0.3;" x1="55.304" y2="-38.229" x2="56.742"/>
  <line y1="-37.143" style="fill:none;stroke:#000000;stroke-width:0.3;" x1="49.527" y2="-41.396" x2="45.526"/>
  <line y1="-38.737" style="fill:none;stroke:#000000;stroke-width:0.3;" x1="46.703" y2="-40.075" x2="48.058"/>
  <line y1="-28.598" style="fill:none;stroke:#000000;stroke-width:0.3;" x1="44.651" y2="-33.806" x2="47.294"/>
  <line y1="-31.796" style="fill:none;stroke:#000000;stroke-width:0.3;" x1="45.191" y2="-30.976" x2="46.91"/>
  <line y1="-12.714" style="fill:none;stroke:#000000;stroke-width:0.3;" x1="63.892" y2="-14.912" x2="69.302"/>
  <line y1="-14.774" style="fill:none;stroke:#000000;stroke-width:0.3;" x1="66.397" y2="-13.027" x2="67.157"/>
  <line y1="-31.814" style="fill:none;stroke:#000000;stroke-width:0.3;" x1="55.494" y2="-32.954" x2="61.221"/>
  <line y1="-33.365" style="fill:none;stroke:#000000;stroke-width:0.3;" x1="58.342" y2="-31.506" x2="58.759"/>
  <line y1="-28.434" style="fill:none;stroke:#000000;stroke-width:0.3;" x1="64.248" y2="-32.938" x2="67.964"/>
  <line y1="-31.437" style="fill:none;stroke:#000000;stroke-width:0.3;" x1="65.474" y2="-30.26" x2="66.972"/>
  <line y1="-10.559" style="fill:none;stroke:#000000;stroke-width:0.3;" x1="54.206" y2="-15.064" x2="57.922"/>
  <line y1="-13.562" style="fill:none;stroke:#000000;stroke-width:0.3;" x1="55.432" y2="-12.385" x2="56.93"/>
  <line y1="-29.964" style="fill:none;stroke:#000000;stroke-width:0.3;" x1="75.629" y2="-34.348" x2="71.772"/>
  <line y1="-31.651" style="fill:none;stroke:#000000;stroke-width:0.3;" x1="72.859" y2="-32.944" x2="74.258"/>
  <line y1="-2.75" style="fill:none;stroke:#000000;stroke-width:0.3;" x1="49.888" y2="-7.134" x2="46.03"/>
  <line y1="-4.437" style="fill:none;stroke:#000000;stroke-width:0.3;" x1="47.118" y2="-5.729" x2="48.517"/>
  <line y1="-18.377" style="fill:none;stroke:#000000;stroke-width:0.3;" x1="74.237" y2="-23.845" x2="76.285"/>
  <line y1="-21.615" style="fill:none;stroke:#000000;stroke-width:0.3;" x1="74.419" y2="-20.99" x2="76.219"/>
  <line y1="-2.69" style="fill:none;stroke:#000000;stroke-width:0.3;" x1="64.299" y2="-8.158" x2="66.348"/>
  <line y1="-5.928" style="fill:none;stroke:#000000;stroke-width:0.3;" x1="64.482" y2="-5.303" x2="66.281"/>
  <line y1="-22.781" style="fill:none;stroke:#000000;stroke-width:0.3;" x1="86.076" y2="-22.323" x2="80.255"/>
  <line y1="-21.576" style="fill:none;stroke:#000000;stroke-width:0.3;" x1="83.065" y2="-23.471" x2="82.87"/>
  <line y1="-4.843" style="fill:none;stroke:#000000;stroke-width:0.3;" x1="59.451" y2="-4.385" x2="53.63"/>
  <line y1="-3.638" style="fill:none;stroke:#000000;stroke-width:0.3;" x1="56.44" y2="-5.533" x2="56.245"/>
  <line y1="-21.765" style="fill:none;stroke:#000000;stroke-width:0.3;" x1="49.802" y2="-17.837" x2="45.481"/>
  <line y1="-18.968" style="fill:none;stroke:#000000;stroke-width:0.3;" x1="48.16" y2="-20.346" x2="46.845"/>
  <line y1="-18.971" style="fill:none;stroke:#000000;stroke-width:0.3;" x1="59.124" y2="-24.251" x2="56.629"/>
  <line y1="-21.359" style="fill:none;stroke:#000000;stroke-width:0.3;" x1="56.928" y2="-22.214" x2="58.63"/>
  <line y1="-11.034" style="fill:none;stroke:#000000;stroke-width:0.3;" x1="84.353" y2="-16.314" x2="81.858"/>
  <line y1="-13.421" style="fill:none;stroke:#000000;stroke-width:0.3;" x1="82.157" y2="-14.276" x2="83.86"/>
  <line y1="-37.661" style="fill:none;stroke:#000000;stroke-width:0.3;" x1="76.131" y2="-43.244" x2="74.421"/>
  <line y1="-40.339" style="fill:none;stroke:#000000;stroke-width:0.3;" x1="74.301" y2="-40.94" x2="76.109"/>
  <line y1="-39.857" style="fill:none;stroke:#000000;stroke-width:0.3;" x1="81.589" y2="-42.25" x2="86.915"/>
  <line y1="-42.006" style="fill:none;stroke:#000000;stroke-width:0.3;" x1="84.017" y2="-40.288" x2="84.84"/>
  <line y1="-27.629" style="fill:none;stroke:#000000;stroke-width:0.3;" x1="81.806" y2="-32.891" x2="84.338"/>
  <line y1="-30.838" style="fill:none;stroke:#000000;stroke-width:0.3;" x1="82.279" y2="-30.054" x2="84.015"/>
  <line y1="-36.048" style="fill:none;stroke:#000000;stroke-width:0.3;" x1="67.509" y2="-41.074" x2="64.537"/>
  <line y1="-38.222" style="fill:none;stroke:#000000;stroke-width:0.3;" x1="65.102" y2="-39.231" x2="66.718"/>
  <line y1="-34.883" style="fill:none;stroke:#000000;stroke-width:0.3;" x1="22.613" y2="-40.566" x2="21.268"/>
  <line y1="-37.674" style="fill:none;stroke:#000000;stroke-width:0.3;" x1="20.96" y2="-38.158" x2="22.803"/>
  <line y1="-11.161" style="fill:none;stroke:#000000;stroke-width:0.3;" x1="78.242" y2="-14.486" x2="73.442"/>
  <line y1="-12.131" style="fill:none;stroke:#000000;stroke-width:0.3;" x1="75.147" y2="-13.722" x2="76.193"/>
  <line y1="-2.598" style="fill:none;stroke:#000000;stroke-width:0.3;" x1="86.179" y2="-5.924" x2="81.379"/>
  <line y1="-3.568" style="fill:none;stroke:#000000;stroke-width:0.3;" x1="83.084" y2="-5.16" x2="84.131"/>
  <line y1="-22.788" style="fill:none;stroke:#000000;stroke-width:0.3;" x1="68.528" y2="-22.724" x2="62.689"/>
  <line y1="-21.789" style="fill:none;stroke:#000000;stroke-width:0.3;" x1="65.443" y2="-23.693" x2="65.376"/>
  <line y1="-26.726" style="fill:none;stroke:#000000;stroke-width:0.3;" x1="55.028" y2="-26.661" x2="49.189"/>
  <line y1="-25.726" style="fill:none;stroke:#000000;stroke-width:0.3;" x1="51.943" y2="-27.63" x2="51.876"/>
  <line y1="-3.309" style="fill:none;stroke:#000000;stroke-width:0.3;" x1="77.466" y2="-3.244" x2="71.627"/>
  <line y1="-2.31" style="fill:none;stroke:#000000;stroke-width:0.3;" x1="74.38" y2="-4.213" x2="74.313"/>
  <line y1="-12.667" style="fill:none;stroke:#000000;stroke-width:0.3;" x1="50.929" y2="-12.602" x2="45.09"/>
  <line y1="-11.667" style="fill:none;stroke:#000000;stroke-width:0.3;" x1="47.844" y2="-13.571" x2="47.777"/>
 </g>
</svg>
