<?xml version="1.0"?>
<!-- Converted with SVG Converter - Version 0.9.5 (Compiled Fri Feb 21 09:53:38 2020) - Copyright (C) 2011 Nokia -->
<svg xmlns="http://www.w3.org/2000/svg" version="1.1" baseProfile="tiny" y="0px" width="86.25" x="0px" viewBox="1.054 -87.25 86.25 86.25" xml:space="preserve" height="86.25" xmlns:xlink="http://www.w3.org/1999/xlink">
 <g>
  <rect style="fill:none;" y="-87.25" width="86.25" x="1.054" height="86.25"/>
  <line y2="-84.562" style="fill:none;stroke:#000000;stroke-width:0.3;" x2="17.242" y1="-80.25" x1="13.304"/>
  <line y2="-81.938" style="fill:none;stroke:#000000;stroke-width:0.3;" x2="16.117" y1="-83.188" x1="14.679"/>
  <line y2="-86.347" style="fill:none;stroke:#000000;stroke-width:0.3;" x2="2.318" y1="-82.093" x1="6.319"/>
  <line y2="-85.026" style="fill:none;stroke:#000000;stroke-width:0.3;" x2="4.85" y1="-83.688" x1="3.494"/>
  <line y2="-76.85" style="fill:none;stroke:#000000;stroke-width:0.3;" x2="7.01" y1="-74.651" x1="1.6"/>
  <line y2="-74.964" style="fill:none;stroke:#000000;stroke-width:0.3;" x2="4.865" y1="-76.711" x1="4.105"/>
  <line y2="-57.028" style="fill:none;stroke:#000000;stroke-width:0.3;" x2="26.093" y1="-54.83" x1="20.683"/>
  <line y2="-55.143" style="fill:none;stroke:#000000;stroke-width:0.3;" x2="23.948" y1="-56.89" x1="23.189"/>
  <line y2="-74.891" style="fill:none;stroke:#000000;stroke-width:0.3;" x2="15.888" y1="-73.751" x1="10.16"/>
  <line y2="-73.444" style="fill:none;stroke:#000000;stroke-width:0.3;" x2="13.426" y1="-75.302" x1="13.009"/>
  <line y2="-75.5" style="fill:none;stroke:#000000;stroke-width:0.3;" x2="22.554" y1="-70.995" x1="18.838"/>
  <line y2="-72.822" style="fill:none;stroke:#000000;stroke-width:0.3;" x2="21.563" y1="-73.998" x1="20.064"/>
  <line y2="-58.313" style="fill:none;stroke:#000000;stroke-width:0.3;" x2="14.714" y1="-53.809" x1="10.998"/>
  <line y2="-55.635" style="fill:none;stroke:#000000;stroke-width:0.3;" x2="13.722" y1="-56.812" x1="12.224"/>
  <line y2="-77.598" style="fill:none;stroke:#000000;stroke-width:0.3;" x2="28.563" y1="-73.214" x1="32.421"/>
  <line y2="-76.194" style="fill:none;stroke:#000000;stroke-width:0.3;" x2="31.05" y1="-74.901" x1="29.651"/>
  <line y2="-47.202" style="fill:none;stroke:#000000;stroke-width:0.3;" x2="2.46" y1="-50.032" x1="7.567"/>
  <line y2="-49.33" style="fill:none;stroke:#000000;stroke-width:0.3;" x2="4.364" y1="-47.687" x1="5.327"/>
  <line y2="-67.095" style="fill:none;stroke:#000000;stroke-width:0.3;" x2="33.928" y1="-61.627" x1="31.879"/>
  <line y2="-64.24" style="fill:none;stroke:#000000;stroke-width:0.3;" x2="33.861" y1="-64.865" x1="32.061"/>
  <line y2="-51.408" style="fill:none;stroke:#000000;stroke-width:0.3;" x2="23.14" y1="-45.94" x1="21.091"/>
  <line y2="-48.553" style="fill:none;stroke:#000000;stroke-width:0.3;" x2="23.073" y1="-49.178" x1="21.274"/>
  <line y2="-65.573" style="fill:none;stroke:#000000;stroke-width:0.3;" x2="37.047" y1="-66.031" x1="42.868"/>
  <line y2="-66.72" style="fill:none;stroke:#000000;stroke-width:0.3;" x2="39.662" y1="-64.826" x1="39.857"/>
  <line y2="-47.635" style="fill:none;stroke:#000000;stroke-width:0.3;" x2="10.422" y1="-48.093" x1="16.243"/>
  <line y2="-48.783" style="fill:none;stroke:#000000;stroke-width:0.3;" x2="13.037" y1="-46.888" x1="13.232"/>
  <line y2="-63.649" style="fill:none;stroke:#000000;stroke-width:0.3;" x2="3.148" y1="-67.577" x1="7.469"/>
  <line y2="-66.158" style="fill:none;stroke:#000000;stroke-width:0.3;" x2="4.512" y1="-64.78" x1="5.827"/>
  <line y2="-67.189" style="fill:none;stroke:#000000;stroke-width:0.3;" x2="12.233" y1="-61.909" x1="14.728"/>
  <line y2="-65.151" style="fill:none;stroke:#000000;stroke-width:0.3;" x2="14.235" y1="-64.296" x1="12.532"/>
  <line y2="-59.564" style="fill:none;stroke:#000000;stroke-width:0.3;" x2="38.65" y1="-54.284" x1="41.144"/>
  <line y2="-57.526" style="fill:none;stroke:#000000;stroke-width:0.3;" x2="40.651" y1="-56.671" x1="38.949"/>
  <line y2="-86.494" style="fill:none;stroke:#000000;stroke-width:0.3;" x2="31.213" y1="-80.911" x1="32.923"/>
  <line y2="-84.19" style="fill:none;stroke:#000000;stroke-width:0.3;" x2="32.9" y1="-83.589" x1="31.093"/>
  <line y2="-85.5" style="fill:none;stroke:#000000;stroke-width:0.3;" x2="43.707" y1="-83.107" x1="38.38"/>
  <line y2="-83.538" style="fill:none;stroke:#000000;stroke-width:0.3;" x2="41.632" y1="-85.256" x1="40.809"/>
  <line y2="-76.141" style="fill:none;stroke:#000000;stroke-width:0.3;" x2="41.13" y1="-70.879" x1="38.598"/>
  <line y2="-73.304" style="fill:none;stroke:#000000;stroke-width:0.3;" x2="40.807" y1="-74.088" x1="39.071"/>
  <line y2="-84.324" style="fill:none;stroke:#000000;stroke-width:0.3;" x2="21.328" y1="-79.298" x1="24.301"/>
  <line y2="-82.481" style="fill:none;stroke:#000000;stroke-width:0.3;" x2="23.51" y1="-81.472" x1="21.894"/>
  <line y2="-57.736" style="fill:none;stroke:#000000;stroke-width:0.3;" x2="30.233" y1="-54.411" x1="35.033"/>
  <line y2="-56.972" style="fill:none;stroke:#000000;stroke-width:0.3;" x2="32.985" y1="-55.381" x1="31.938"/>
  <line y2="-49.826" style="fill:none;stroke:#000000;stroke-width:0.3;" x2="35.755" y1="-46.5" x1="40.554"/>
  <line y2="-49.062" style="fill:none;stroke:#000000;stroke-width:0.3;" x2="38.506" y1="-47.47" x1="37.46"/>
  <line y2="-62.301" style="fill:none;stroke:#000000;stroke-width:0.3;" x2="18.715" y1="-62.366" x1="24.554"/>
  <line y2="-63.271" style="fill:none;stroke:#000000;stroke-width:0.3;" x2="21.402" y1="-61.367" x1="21.469"/>
  <line y2="-47.435" style="fill:none;stroke:#000000;stroke-width:0.3;" x2="26.465" y1="-47.5" x1="32.304"/>
  <line y2="-48.404" style="fill:none;stroke:#000000;stroke-width:0.3;" x2="29.152" y1="-46.501" x1="29.219"/>
  <line y2="-55.852" style="fill:none;stroke:#000000;stroke-width:0.3;" x2="1.882" y1="-55.917" x1="7.721"/>
  <line y2="-56.821" style="fill:none;stroke:#000000;stroke-width:0.3;" x2="4.569" y1="-54.917" x1="4.636"/>
  <line y2="-83.354" style="fill:none;stroke:#000000;stroke-width:0.3;" x2="59.909" y1="-79.042" x1="55.971"/>
  <line y2="-80.729" style="fill:none;stroke:#000000;stroke-width:0.3;" x2="58.784" y1="-81.979" x1="57.346"/>
  <line y2="-86.347" style="fill:none;stroke:#000000;stroke-width:0.3;" x2="45.568" y1="-82.093" x1="49.569"/>
  <line y2="-85.026" style="fill:none;stroke:#000000;stroke-width:0.3;" x2="48.1" y1="-83.688" x1="46.744"/>
  <line y2="-77.912" style="fill:none;stroke:#000000;stroke-width:0.3;" x2="50.198" y1="-75.714" x1="44.787"/>
  <line y2="-76.027" style="fill:none;stroke:#000000;stroke-width:0.3;" x2="48.052" y1="-77.774" x1="47.293"/>
  <line y2="-60.287" style="fill:none;stroke:#000000;stroke-width:0.3;" x2="68.781" y1="-58.089" x1="63.371"/>
  <line y2="-58.402" style="fill:none;stroke:#000000;stroke-width:0.3;" x2="66.636" y1="-60.149" x1="65.876"/>
  <line y2="-76.233" style="fill:none;stroke:#000000;stroke-width:0.3;" x2="59.553" y1="-71.564" x1="56.046"/>
  <line y2="-73.512" style="fill:none;stroke:#000000;stroke-width:0.3;" x2="58.684" y1="-74.619" x1="57.134"/>
  <line y2="-76.188" style="fill:none;stroke:#000000;stroke-width:0.3;" x2="68.006" y1="-71.684" x1="64.289"/>
  <line y2="-73.51" style="fill:none;stroke:#000000;stroke-width:0.3;" x2="67.014" y1="-74.687" x1="65.515"/>
  <line y2="-58.313" style="fill:none;stroke:#000000;stroke-width:0.3;" x2="57.397" y1="-53.809" x1="53.681"/>
  <line y2="-55.635" style="fill:none;stroke:#000000;stroke-width:0.3;" x2="56.405" y1="-56.812" x1="54.907"/>
  <line y2="-77.598" style="fill:none;stroke:#000000;stroke-width:0.3;" x2="71.813" y1="-73.214" x1="75.671"/>
  <line y2="-76.194" style="fill:none;stroke:#000000;stroke-width:0.3;" x2="74.3" y1="-74.901" x1="72.901"/>
  <line y2="-50.494" style="fill:none;stroke:#000000;stroke-width:0.3;" x2="47.918" y1="-44.671" x1="48.352"/>
  <line y2="-47.875" style="fill:none;stroke:#000000;stroke-width:0.3;" x2="49.055" y1="-47.687" x1="47.159"/>
  <line y2="-70.067" style="fill:none;stroke:#000000;stroke-width:0.3;" x2="24.413" y1="-65.683" x1="28.271"/>
  <line y2="-68.663" style="fill:none;stroke:#000000;stroke-width:0.3;" x2="26.9" y1="-67.37" x1="25.501"/>
  <line y2="-67.095" style="fill:none;stroke:#000000;stroke-width:0.3;" x2="76.327" y1="-61.627" x1="74.279"/>
  <line y2="-64.24" style="fill:none;stroke:#000000;stroke-width:0.3;" x2="76.26" y1="-64.865" x1="74.461"/>
  <line y2="-50.095" style="fill:none;stroke:#000000;stroke-width:0.3;" x2="68.952" y1="-44.627" x1="66.904"/>
  <line y2="-47.24" style="fill:none;stroke:#000000;stroke-width:0.3;" x2="68.885" y1="-47.865" x1="67.086"/>
  <line y2="-65.573" style="fill:none;stroke:#000000;stroke-width:0.3;" x2="80.297" y1="-66.031" x1="86.118"/>
  <line y2="-66.72" style="fill:none;stroke:#000000;stroke-width:0.3;" x2="82.912" y1="-64.826" x1="83.107"/>
  <line y2="-44.339" style="fill:none;stroke:#000000;stroke-width:0.3;" x2="56.217" y1="-50.1" x1="57.168"/>
  <line y2="-47.153" style="fill:none;stroke:#000000;stroke-width:0.3;" x2="55.73" y1="-46.888" x1="57.616"/>
  <line y2="-63.649" style="fill:none;stroke:#000000;stroke-width:0.3;" x2="46.398" y1="-67.577" x1="50.719"/>
  <line y2="-66.158" style="fill:none;stroke:#000000;stroke-width:0.3;" x2="47.762" y1="-64.78" x1="49.077"/>
  <line y2="-67.189" style="fill:none;stroke:#000000;stroke-width:0.3;" x2="55.483" y1="-61.909" x1="57.978"/>
  <line y2="-65.151" style="fill:none;stroke:#000000;stroke-width:0.3;" x2="57.485" y1="-64.296" x1="55.782"/>
  <line y2="-59.564" style="fill:none;stroke:#000000;stroke-width:0.3;" x2="81.9" y1="-54.284" x1="84.394"/>
  <line y2="-57.526" style="fill:none;stroke:#000000;stroke-width:0.3;" x2="83.901" y1="-56.671" x1="82.199"/>
  <line y2="-86.494" style="fill:none;stroke:#000000;stroke-width:0.3;" x2="74.463" y1="-80.911" x1="76.173"/>
  <line y2="-84.19" style="fill:none;stroke:#000000;stroke-width:0.3;" x2="76.15" y1="-83.589" x1="74.343"/>
  <line y2="-85.5" style="fill:none;stroke:#000000;stroke-width:0.3;" x2="86.957" y1="-83.107" x1="81.63"/>
  <line y2="-83.538" style="fill:none;stroke:#000000;stroke-width:0.3;" x2="84.882" y1="-85.256" x1="84.059"/>
  <line y2="-76.141" style="fill:none;stroke:#000000;stroke-width:0.3;" x2="84.38" y1="-70.879" x1="81.848"/>
  <line y2="-73.304" style="fill:none;stroke:#000000;stroke-width:0.3;" x2="84.057" y1="-74.088" x1="82.321"/>
  <line y2="-84.324" style="fill:none;stroke:#000000;stroke-width:0.3;" x2="64.578" y1="-79.298" x1="67.55"/>
  <line y2="-82.481" style="fill:none;stroke:#000000;stroke-width:0.3;" x2="66.759" y1="-81.472" x1="65.144"/>
  <line y2="-56.549" style="fill:none;stroke:#000000;stroke-width:0.3;" x2="71.108" y1="-53.223" x1="75.908"/>
  <line y2="-55.785" style="fill:none;stroke:#000000;stroke-width:0.3;" x2="73.86" y1="-54.193" x1="72.813"/>
  <line y2="-49.174" style="fill:none;stroke:#000000;stroke-width:0.3;" x2="81.421" y1="-45.848" x1="86.221"/>
  <line y2="-48.41" style="fill:none;stroke:#000000;stroke-width:0.3;" x2="84.173" y1="-46.818" x1="83.126"/>
  <line y2="-65.974" style="fill:none;stroke:#000000;stroke-width:0.3;" x2="62.731" y1="-66.038" x1="68.57"/>
  <line y2="-66.943" style="fill:none;stroke:#000000;stroke-width:0.3;" x2="65.417" y1="-65.039" x1="65.484"/>
  <line y2="-49.435" style="fill:none;stroke:#000000;stroke-width:0.3;" x2="72.215" y1="-49.5" x1="78.054"/>
  <line y2="-50.404" style="fill:none;stroke:#000000;stroke-width:0.3;" x2="74.902" y1="-48.501" x1="74.969"/>
  <line y2="-55.852" style="fill:none;stroke:#000000;stroke-width:0.3;" x2="45.132" y1="-55.917" x1="50.971"/>
  <line y2="-56.821" style="fill:none;stroke:#000000;stroke-width:0.3;" x2="47.819" y1="-54.917" x1="47.886"/>
  <line y2="-42.979" style="fill:none;stroke:#000000;stroke-width:0.3;" x2="17.221" y1="-38.667" x1="13.284"/>
  <line y2="-40.354" style="fill:none;stroke:#000000;stroke-width:0.3;" x2="16.096" y1="-41.604" x1="14.659"/>
  <line y2="-43.097" style="fill:none;stroke:#000000;stroke-width:0.3;" x2="2.318" y1="-38.843" x1="6.319"/>
  <line y2="-41.776" style="fill:none;stroke:#000000;stroke-width:0.3;" x2="4.85" y1="-40.438" x1="3.494"/>
  <line y2="-33.599" style="fill:none;stroke:#000000;stroke-width:0.3;" x2="7.01" y1="-31.402" x1="1.6"/>
  <line y2="-31.714" style="fill:none;stroke:#000000;stroke-width:0.3;" x2="4.865" y1="-33.461" x1="4.105"/>
  <line y2="-14.912" style="fill:none;stroke:#000000;stroke-width:0.3;" x2="26.093" y1="-12.714" x1="20.683"/>
  <line y2="-13.027" style="fill:none;stroke:#000000;stroke-width:0.3;" x2="23.948" y1="-14.774" x1="23.189"/>
  <line y2="-31.5" style="fill:none;stroke:#000000;stroke-width:0.3;" x2="14.554" y1="-30.36" x1="8.827"/>
  <line y2="-30.052" style="fill:none;stroke:#000000;stroke-width:0.3;" x2="12.093" y1="-31.911" x1="11.676"/>
  <line y2="-31.5" style="fill:none;stroke:#000000;stroke-width:0.3;" x2="21.304" y1="-26.996" x1="17.588"/>
  <line y2="-28.822" style="fill:none;stroke:#000000;stroke-width:0.3;" x2="20.313" y1="-29.998" x1="18.814"/>
  <line y2="-15.064" style="fill:none;stroke:#000000;stroke-width:0.3;" x2="14.714" y1="-10.559" x1="10.998"/>
  <line y2="-12.385" style="fill:none;stroke:#000000;stroke-width:0.3;" x2="13.722" y1="-13.562" x1="12.224"/>
  <line y2="-32.634" style="fill:none;stroke:#000000;stroke-width:0.3;" x2="26.697" y1="-28.25" x1="30.554"/>
  <line y2="-31.229" style="fill:none;stroke:#000000;stroke-width:0.3;" x2="29.184" y1="-29.937" x1="27.784"/>
  <line y2="-7.134" style="fill:none;stroke:#000000;stroke-width:0.3;" x2="2.822" y1="-2.75" x1="6.679"/>
  <line y2="-5.729" style="fill:none;stroke:#000000;stroke-width:0.3;" x2="5.308" y1="-4.437" x1="3.909"/>
  <line y2="-24.218" style="fill:none;stroke:#000000;stroke-width:0.3;" x2="32.103" y1="-18.75" x1="30.054"/>
  <line y2="-21.363" style="fill:none;stroke:#000000;stroke-width:0.3;" x2="32.036" y1="-21.988" x1="30.237"/>
  <line y2="-8.158" style="fill:none;stroke:#000000;stroke-width:0.3;" x2="23.14" y1="-2.69" x1="21.091"/>
  <line y2="-5.303" style="fill:none;stroke:#000000;stroke-width:0.3;" x2="23.073" y1="-5.928" x1="21.274"/>
  <line y2="-24.465" style="fill:none;stroke:#000000;stroke-width:0.3;" x2="37.262" y1="-19.21" x1="39.808"/>
  <line y2="-22.448" style="fill:none;stroke:#000000;stroke-width:0.3;" x2="39.283" y1="-21.576" x1="37.589"/>
  <line y2="-4.385" style="fill:none;stroke:#000000;stroke-width:0.3;" x2="10.422" y1="-4.843" x1="16.243"/>
  <line y2="-5.533" style="fill:none;stroke:#000000;stroke-width:0.3;" x2="13.037" y1="-3.638" x1="13.232"/>
  <line y2="-20.399" style="fill:none;stroke:#000000;stroke-width:0.3;" x2="3.148" y1="-24.327" x1="7.469"/>
  <line y2="-22.908" style="fill:none;stroke:#000000;stroke-width:0.3;" x2="4.512" y1="-21.53" x1="5.827"/>
  <line y2="-23.939" style="fill:none;stroke:#000000;stroke-width:0.3;" x2="12.233" y1="-18.659" x1="14.728"/>
  <line y2="-21.901" style="fill:none;stroke:#000000;stroke-width:0.3;" x2="14.235" y1="-21.046" x1="12.532"/>
  <line y2="-15.795" style="fill:none;stroke:#000000;stroke-width:0.3;" x2="40.629" y1="-10.179" x1="39.029"/>
  <line y2="-12.944" style="fill:none;stroke:#000000;stroke-width:0.3;" x2="40.793" y1="-13.421" x1="38.949"/>
  <line y2="-43.334" style="fill:none;stroke:#000000;stroke-width:0.3;" x2="38.345" y1="-37.75" x1="40.054"/>
  <line y2="-41.03" style="fill:none;stroke:#000000;stroke-width:0.3;" x2="40.032" y1="-40.428" x1="38.225"/>
  <line y2="-39.5" style="fill:none;stroke:#000000;stroke-width:0.3;" x2="34.304" y1="-37.107" x1="28.978"/>
  <line y2="-37.538" style="fill:none;stroke:#000000;stroke-width:0.3;" x2="32.229" y1="-39.256" x1="31.407"/>
  <line y2="-31.908" style="fill:none;stroke:#000000;stroke-width:0.3;" x2="40.257" y1="-30.64" x1="34.557"/>
  <line y2="-30.406" style="fill:none;stroke:#000000;stroke-width:0.3;" x2="37.828" y1="-32.255" x1="37.37"/>
  <line y2="-12.825" style="fill:none;stroke:#000000;stroke-width:0.3;" x2="29.004" y1="-9.5" x1="33.804"/>
  <line y2="-12.062" style="fill:none;stroke:#000000;stroke-width:0.3;" x2="31.756" y1="-10.47" x1="30.71"/>
  <line y2="-54.826" style="fill:none;stroke:#000000;stroke-width:0.3;" x2="60.005" y1="-51.5" x1="64.804"/>
  <line y2="-54.062" style="fill:none;stroke:#000000;stroke-width:0.3;" x2="62.756" y1="-52.47" x1="61.71"/>
  <line y2="-5.924" style="fill:none;stroke:#000000;stroke-width:0.3;" x2="38.171" y1="-2.598" x1="42.971"/>
  <line y2="-5.16" style="fill:none;stroke:#000000;stroke-width:0.3;" x2="40.923" y1="-3.568" x1="39.876"/>
  <line y2="-22.724" style="fill:none;stroke:#000000;stroke-width:0.3;" x2="19.481" y1="-22.788" x1="25.32"/>
  <line y2="-23.693" style="fill:none;stroke:#000000;stroke-width:0.3;" x2="22.167" y1="-21.789" x1="22.235"/>
  <line y2="-3.244" style="fill:none;stroke:#000000;stroke-width:0.3;" x2="28.418" y1="-3.309" x1="34.257"/>
  <line y2="-4.213" style="fill:none;stroke:#000000;stroke-width:0.3;" x2="31.105" y1="-2.31" x1="31.172"/>
  <line y2="-12.602" style="fill:none;stroke:#000000;stroke-width:0.3;" x2="1.882" y1="-12.667" x1="7.721"/>
  <line y2="-13.571" style="fill:none;stroke:#000000;stroke-width:0.3;" x2="4.569" y1="-11.667" x1="4.636"/>
  <line y2="-40.854" style="fill:none;stroke:#000000;stroke-width:0.3;" x2="57.867" y1="-36.542" x1="53.929"/>
  <line y2="-38.229" style="fill:none;stroke:#000000;stroke-width:0.3;" x2="56.742" y1="-39.479" x1="55.304"/>
  <line y2="-41.396" style="fill:none;stroke:#000000;stroke-width:0.3;" x2="45.526" y1="-37.143" x1="49.527"/>
  <line y2="-40.075" style="fill:none;stroke:#000000;stroke-width:0.3;" x2="48.058" y1="-38.737" x1="46.703"/>
  <line y2="-33.806" style="fill:none;stroke:#000000;stroke-width:0.3;" x2="47.294" y1="-28.598" x1="44.651"/>
  <line y2="-30.976" style="fill:none;stroke:#000000;stroke-width:0.3;" x2="46.91" y1="-31.796" x1="45.191"/>
  <line y2="-14.912" style="fill:none;stroke:#000000;stroke-width:0.3;" x2="69.302" y1="-12.714" x1="63.892"/>
  <line y2="-13.027" style="fill:none;stroke:#000000;stroke-width:0.3;" x2="67.157" y1="-14.774" x1="66.397"/>
  <line y2="-32.954" style="fill:none;stroke:#000000;stroke-width:0.3;" x2="61.221" y1="-31.814" x1="55.494"/>
  <line y2="-31.506" style="fill:none;stroke:#000000;stroke-width:0.3;" x2="58.759" y1="-33.365" x1="58.342"/>
  <line y2="-32.938" style="fill:none;stroke:#000000;stroke-width:0.3;" x2="67.964" y1="-28.434" x1="64.248"/>
  <line y2="-30.26" style="fill:none;stroke:#000000;stroke-width:0.3;" x2="66.972" y1="-31.437" x1="65.474"/>
  <line y2="-15.064" style="fill:none;stroke:#000000;stroke-width:0.3;" x2="57.922" y1="-10.559" x1="54.206"/>
  <line y2="-12.385" style="fill:none;stroke:#000000;stroke-width:0.3;" x2="56.93" y1="-13.562" x1="55.432"/>
  <line y2="-34.348" style="fill:none;stroke:#000000;stroke-width:0.3;" x2="71.772" y1="-29.964" x1="75.629"/>
  <line y2="-32.944" style="fill:none;stroke:#000000;stroke-width:0.3;" x2="74.258" y1="-31.651" x1="72.859"/>
  <line y2="-7.134" style="fill:none;stroke:#000000;stroke-width:0.3;" x2="46.03" y1="-2.75" x1="49.888"/>
  <line y2="-5.729" style="fill:none;stroke:#000000;stroke-width:0.3;" x2="48.517" y1="-4.437" x1="47.118"/>
  <line y2="-23.845" style="fill:none;stroke:#000000;stroke-width:0.3;" x2="76.285" y1="-18.377" x1="74.237"/>
  <line y2="-20.99" style="fill:none;stroke:#000000;stroke-width:0.3;" x2="76.219" y1="-21.615" x1="74.419"/>
  <line y2="-8.158" style="fill:none;stroke:#000000;stroke-width:0.3;" x2="66.348" y1="-2.69" x1="64.299"/>
  <line y2="-5.303" style="fill:none;stroke:#000000;stroke-width:0.3;" x2="66.281" y1="-5.928" x1="64.482"/>
  <line y2="-22.323" style="fill:none;stroke:#000000;stroke-width:0.3;" x2="80.255" y1="-22.781" x1="86.076"/>
  <line y2="-23.471" style="fill:none;stroke:#000000;stroke-width:0.3;" x2="82.87" y1="-21.576" x1="83.065"/>
  <line y2="-4.385" style="fill:none;stroke:#000000;stroke-width:0.3;" x2="53.63" y1="-4.843" x1="59.451"/>
  <line y2="-5.533" style="fill:none;stroke:#000000;stroke-width:0.3;" x2="56.245" y1="-3.638" x1="56.44"/>
  <line y2="-17.837" style="fill:none;stroke:#000000;stroke-width:0.3;" x2="45.481" y1="-21.765" x1="49.802"/>
  <line y2="-20.346" style="fill:none;stroke:#000000;stroke-width:0.3;" x2="46.845" y1="-18.968" x1="48.16"/>
  <line y2="-24.251" style="fill:none;stroke:#000000;stroke-width:0.3;" x2="56.629" y1="-18.971" x1="59.124"/>
  <line y2="-22.214" style="fill:none;stroke:#000000;stroke-width:0.3;" x2="58.63" y1="-21.359" x1="56.928"/>
  <line y2="-16.314" style="fill:none;stroke:#000000;stroke-width:0.3;" x2="81.858" y1="-11.034" x1="84.353"/>
  <line y2="-14.276" style="fill:none;stroke:#000000;stroke-width:0.3;" x2="83.86" y1="-13.421" x1="82.157"/>
  <line y2="-43.244" style="fill:none;stroke:#000000;stroke-width:0.3;" x2="74.421" y1="-37.661" x1="76.131"/>
  <line y2="-40.94" style="fill:none;stroke:#000000;stroke-width:0.3;" x2="76.109" y1="-40.339" x1="74.301"/>
  <line y2="-42.25" style="fill:none;stroke:#000000;stroke-width:0.3;" x2="86.915" y1="-39.857" x1="81.589"/>
  <line y2="-40.288" style="fill:none;stroke:#000000;stroke-width:0.3;" x2="84.84" y1="-42.006" x1="84.017"/>
  <line y2="-32.891" style="fill:none;stroke:#000000;stroke-width:0.3;" x2="84.338" y1="-27.629" x1="81.806"/>
  <line y2="-30.054" style="fill:none;stroke:#000000;stroke-width:0.3;" x2="84.015" y1="-30.838" x1="82.279"/>
  <line y2="-41.074" style="fill:none;stroke:#000000;stroke-width:0.3;" x2="64.537" y1="-36.048" x1="67.509"/>
  <line y2="-39.231" style="fill:none;stroke:#000000;stroke-width:0.3;" x2="66.718" y1="-38.222" x1="65.102"/>
  <line y2="-40.566" style="fill:none;stroke:#000000;stroke-width:0.3;" x2="21.268" y1="-34.883" x1="22.613"/>
  <line y2="-38.158" style="fill:none;stroke:#000000;stroke-width:0.3;" x2="22.803" y1="-37.674" x1="20.96"/>
  <line y2="-14.486" style="fill:none;stroke:#000000;stroke-width:0.3;" x2="73.442" y1="-11.161" x1="78.242"/>
  <line y2="-13.722" style="fill:none;stroke:#000000;stroke-width:0.3;" x2="76.193" y1="-12.131" x1="75.147"/>
  <line y2="-5.924" style="fill:none;stroke:#000000;stroke-width:0.3;" x2="81.379" y1="-2.598" x1="86.179"/>
  <line y2="-5.16" style="fill:none;stroke:#000000;stroke-width:0.3;" x2="84.131" y1="-3.568" x1="83.084"/>
  <line y2="-22.724" style="fill:none;stroke:#000000;stroke-width:0.3;" x2="62.689" y1="-22.788" x1="68.528"/>
  <line y2="-23.693" style="fill:none;stroke:#000000;stroke-width:0.3;" x2="65.376" y1="-21.789" x1="65.443"/>
  <line y2="-26.661" style="fill:none;stroke:#000000;stroke-width:0.3;" x2="49.189" y1="-26.726" x1="55.028"/>
  <line y2="-27.63" style="fill:none;stroke:#000000;stroke-width:0.3;" x2="51.876" y1="-25.726" x1="51.943"/>
  <line y2="-3.244" style="fill:none;stroke:#000000;stroke-width:0.3;" x2="71.627" y1="-3.309" x1="77.466"/>
  <line y2="-4.213" style="fill:none;stroke:#000000;stroke-width:0.3;" x2="74.313" y1="-2.31" x1="74.38"/>
  <line y2="-12.602" style="fill:none;stroke:#000000;stroke-width:0.3;" x2="45.09" y1="-12.667" x1="50.929"/>
  <line y2="-13.571" style="fill:none;stroke:#000000;stroke-width:0.3;" x2="47.777" y1="-11.667" x1="47.844"/>
 </g>
</svg>
