<?xml version="1.0"?>
<!-- Converted with SVG Converter - Version 0.9.5 (Compiled Fri Feb 21 09:53:38 2020) - Copyright (C) 2011 Nokia -->
<svg xmlns="http://www.w3.org/2000/svg" width="86.25" xmlns:xlink="http://www.w3.org/1999/xlink" xml:space="preserve" viewBox="1.054 -87.25 86.25 86.25" y="0px" x="0px" version="1.1" height="86.25" baseProfile="tiny">
 <g>
  <rect width="86.25" y="-87.25" x="1.054" style="fill:none;" height="86.25"/>
  <line y1="-80.25" style="fill:none;stroke:#000000;stroke-width:0.3;" x1="13.304" x2="17.242" y2="-84.562"/>
  <line y1="-83.188" style="fill:none;stroke:#000000;stroke-width:0.3;" x1="14.679" x2="16.117" y2="-81.938"/>
  <line y1="-82.093" style="fill:none;stroke:#000000;stroke-width:0.3;" x1="6.319" x2="2.318" y2="-86.347"/>
  <line y1="-83.688" style="fill:none;stroke:#000000;stroke-width:0.3;" x1="3.494" x2="4.85" y2="-85.026"/>
  <line y1="-74.651" style="fill:none;stroke:#000000;stroke-width:0.3;" x1="1.6" x2="7.01" y2="-76.85"/>
  <line y1="-76.711" style="fill:none;stroke:#000000;stroke-width:0.3;" x1="4.105" x2="4.865" y2="-74.964"/>
  <line y1="-54.83" style="fill:none;stroke:#000000;stroke-width:0.3;" x1="20.683" x2="26.093" y2="-57.028"/>
  <line y1="-56.89" style="fill:none;stroke:#000000;stroke-width:0.3;" x1="23.189" x2="23.948" y2="-55.143"/>
  <line y1="-73.751" style="fill:none;stroke:#000000;stroke-width:0.3;" x1="10.16" x2="15.888" y2="-74.891"/>
  <line y1="-75.302" style="fill:none;stroke:#000000;stroke-width:0.3;" x1="13.009" x2="13.426" y2="-73.444"/>
  <line y1="-70.995" style="fill:none;stroke:#000000;stroke-width:0.3;" x1="18.838" x2="22.554" y2="-75.5"/>
  <line y1="-73.998" style="fill:none;stroke:#000000;stroke-width:0.3;" x1="20.064" x2="21.563" y2="-72.822"/>
  <line y1="-53.809" style="fill:none;stroke:#000000;stroke-width:0.3;" x1="10.998" x2="14.714" y2="-58.313"/>
  <line y1="-56.812" style="fill:none;stroke:#000000;stroke-width:0.3;" x1="12.224" x2="13.722" y2="-55.635"/>
  <line y1="-73.214" style="fill:none;stroke:#000000;stroke-width:0.3;" x1="32.421" x2="28.563" y2="-77.598"/>
  <line y1="-74.901" style="fill:none;stroke:#000000;stroke-width:0.3;" x1="29.651" x2="31.05" y2="-76.194"/>
  <line y1="-50.032" style="fill:none;stroke:#000000;stroke-width:0.3;" x1="7.567" x2="2.46" y2="-47.202"/>
  <line y1="-47.687" style="fill:none;stroke:#000000;stroke-width:0.3;" x1="5.327" x2="4.364" y2="-49.33"/>
  <line y1="-61.627" style="fill:none;stroke:#000000;stroke-width:0.3;" x1="31.879" x2="33.928" y2="-67.095"/>
  <line y1="-64.865" style="fill:none;stroke:#000000;stroke-width:0.3;" x1="32.061" x2="33.861" y2="-64.24"/>
  <line y1="-45.94" style="fill:none;stroke:#000000;stroke-width:0.3;" x1="21.091" x2="23.14" y2="-51.408"/>
  <line y1="-49.178" style="fill:none;stroke:#000000;stroke-width:0.3;" x1="21.274" x2="23.073" y2="-48.553"/>
  <line y1="-66.031" style="fill:none;stroke:#000000;stroke-width:0.3;" x1="42.868" x2="37.047" y2="-65.573"/>
  <line y1="-64.826" style="fill:none;stroke:#000000;stroke-width:0.3;" x1="39.857" x2="39.662" y2="-66.72"/>
  <line y1="-48.093" style="fill:none;stroke:#000000;stroke-width:0.3;" x1="16.243" x2="10.422" y2="-47.635"/>
  <line y1="-46.888" style="fill:none;stroke:#000000;stroke-width:0.3;" x1="13.232" x2="13.037" y2="-48.783"/>
  <line y1="-67.577" style="fill:none;stroke:#000000;stroke-width:0.3;" x1="7.469" x2="3.148" y2="-63.649"/>
  <line y1="-64.78" style="fill:none;stroke:#000000;stroke-width:0.3;" x1="5.827" x2="4.512" y2="-66.158"/>
  <line y1="-61.909" style="fill:none;stroke:#000000;stroke-width:0.3;" x1="14.728" x2="12.233" y2="-67.189"/>
  <line y1="-64.296" style="fill:none;stroke:#000000;stroke-width:0.3;" x1="12.532" x2="14.235" y2="-65.151"/>
  <line y1="-54.284" style="fill:none;stroke:#000000;stroke-width:0.3;" x1="41.144" x2="38.65" y2="-59.564"/>
  <line y1="-56.671" style="fill:none;stroke:#000000;stroke-width:0.3;" x1="38.949" x2="40.651" y2="-57.526"/>
  <line y1="-80.911" style="fill:none;stroke:#000000;stroke-width:0.3;" x1="32.923" x2="31.213" y2="-86.494"/>
  <line y1="-83.589" style="fill:none;stroke:#000000;stroke-width:0.3;" x1="31.093" x2="32.9" y2="-84.19"/>
  <line y1="-83.107" style="fill:none;stroke:#000000;stroke-width:0.3;" x1="38.38" x2="43.707" y2="-85.5"/>
  <line y1="-85.256" style="fill:none;stroke:#000000;stroke-width:0.3;" x1="40.809" x2="41.632" y2="-83.538"/>
  <line y1="-70.879" style="fill:none;stroke:#000000;stroke-width:0.3;" x1="38.598" x2="41.13" y2="-76.141"/>
  <line y1="-74.088" style="fill:none;stroke:#000000;stroke-width:0.3;" x1="39.071" x2="40.807" y2="-73.304"/>
  <line y1="-79.298" style="fill:none;stroke:#000000;stroke-width:0.3;" x1="24.301" x2="21.328" y2="-84.324"/>
  <line y1="-81.472" style="fill:none;stroke:#000000;stroke-width:0.3;" x1="21.894" x2="23.51" y2="-82.481"/>
  <line y1="-54.411" style="fill:none;stroke:#000000;stroke-width:0.3;" x1="35.033" x2="30.233" y2="-57.736"/>
  <line y1="-55.381" style="fill:none;stroke:#000000;stroke-width:0.3;" x1="31.938" x2="32.985" y2="-56.972"/>
  <line y1="-46.5" style="fill:none;stroke:#000000;stroke-width:0.3;" x1="40.554" x2="35.755" y2="-49.826"/>
  <line y1="-47.47" style="fill:none;stroke:#000000;stroke-width:0.3;" x1="37.46" x2="38.506" y2="-49.062"/>
  <line y1="-62.366" style="fill:none;stroke:#000000;stroke-width:0.3;" x1="24.554" x2="18.715" y2="-62.301"/>
  <line y1="-61.367" style="fill:none;stroke:#000000;stroke-width:0.3;" x1="21.469" x2="21.402" y2="-63.271"/>
  <line y1="-47.5" style="fill:none;stroke:#000000;stroke-width:0.3;" x1="32.304" x2="26.465" y2="-47.435"/>
  <line y1="-46.501" style="fill:none;stroke:#000000;stroke-width:0.3;" x1="29.219" x2="29.152" y2="-48.404"/>
  <line y1="-55.917" style="fill:none;stroke:#000000;stroke-width:0.3;" x1="7.721" x2="1.882" y2="-55.852"/>
  <line y1="-54.917" style="fill:none;stroke:#000000;stroke-width:0.3;" x1="4.636" x2="4.569" y2="-56.821"/>
  <line y1="-79.042" style="fill:none;stroke:#000000;stroke-width:0.3;" x1="55.971" x2="59.909" y2="-83.354"/>
  <line y1="-81.979" style="fill:none;stroke:#000000;stroke-width:0.3;" x1="57.346" x2="58.784" y2="-80.729"/>
  <line y1="-82.093" style="fill:none;stroke:#000000;stroke-width:0.3;" x1="49.569" x2="45.568" y2="-86.347"/>
  <line y1="-83.688" style="fill:none;stroke:#000000;stroke-width:0.3;" x1="46.744" x2="48.1" y2="-85.026"/>
  <line y1="-75.714" style="fill:none;stroke:#000000;stroke-width:0.3;" x1="44.787" x2="50.198" y2="-77.912"/>
  <line y1="-77.774" style="fill:none;stroke:#000000;stroke-width:0.3;" x1="47.293" x2="48.052" y2="-76.027"/>
  <line y1="-58.089" style="fill:none;stroke:#000000;stroke-width:0.3;" x1="63.371" x2="68.781" y2="-60.287"/>
  <line y1="-60.149" style="fill:none;stroke:#000000;stroke-width:0.3;" x1="65.876" x2="66.636" y2="-58.402"/>
  <line y1="-71.564" style="fill:none;stroke:#000000;stroke-width:0.3;" x1="56.046" x2="59.553" y2="-76.233"/>
  <line y1="-74.619" style="fill:none;stroke:#000000;stroke-width:0.3;" x1="57.134" x2="58.684" y2="-73.512"/>
  <line y1="-71.684" style="fill:none;stroke:#000000;stroke-width:0.3;" x1="64.289" x2="68.006" y2="-76.188"/>
  <line y1="-74.687" style="fill:none;stroke:#000000;stroke-width:0.3;" x1="65.515" x2="67.014" y2="-73.51"/>
  <line y1="-53.809" style="fill:none;stroke:#000000;stroke-width:0.3;" x1="53.681" x2="57.397" y2="-58.313"/>
  <line y1="-56.812" style="fill:none;stroke:#000000;stroke-width:0.3;" x1="54.907" x2="56.405" y2="-55.635"/>
  <line y1="-73.214" style="fill:none;stroke:#000000;stroke-width:0.3;" x1="75.671" x2="71.813" y2="-77.598"/>
  <line y1="-74.901" style="fill:none;stroke:#000000;stroke-width:0.3;" x1="72.901" x2="74.3" y2="-76.194"/>
  <line y1="-44.671" style="fill:none;stroke:#000000;stroke-width:0.3;" x1="48.352" x2="47.918" y2="-50.494"/>
  <line y1="-47.687" style="fill:none;stroke:#000000;stroke-width:0.3;" x1="47.159" x2="49.055" y2="-47.875"/>
  <line y1="-65.683" style="fill:none;stroke:#000000;stroke-width:0.3;" x1="28.271" x2="24.413" y2="-70.067"/>
  <line y1="-67.37" style="fill:none;stroke:#000000;stroke-width:0.3;" x1="25.501" x2="26.9" y2="-68.663"/>
  <line y1="-61.627" style="fill:none;stroke:#000000;stroke-width:0.3;" x1="74.279" x2="76.327" y2="-67.095"/>
  <line y1="-64.865" style="fill:none;stroke:#000000;stroke-width:0.3;" x1="74.461" x2="76.26" y2="-64.24"/>
  <line y1="-44.627" style="fill:none;stroke:#000000;stroke-width:0.3;" x1="66.904" x2="68.952" y2="-50.095"/>
  <line y1="-47.865" style="fill:none;stroke:#000000;stroke-width:0.3;" x1="67.086" x2="68.885" y2="-47.24"/>
  <line y1="-66.031" style="fill:none;stroke:#000000;stroke-width:0.3;" x1="86.118" x2="80.297" y2="-65.573"/>
  <line y1="-64.826" style="fill:none;stroke:#000000;stroke-width:0.3;" x1="83.107" x2="82.912" y2="-66.72"/>
  <line y1="-50.1" style="fill:none;stroke:#000000;stroke-width:0.3;" x1="57.168" x2="56.217" y2="-44.339"/>
  <line y1="-46.888" style="fill:none;stroke:#000000;stroke-width:0.3;" x1="57.616" x2="55.73" y2="-47.153"/>
  <line y1="-67.577" style="fill:none;stroke:#000000;stroke-width:0.3;" x1="50.719" x2="46.398" y2="-63.649"/>
  <line y1="-64.78" style="fill:none;stroke:#000000;stroke-width:0.3;" x1="49.077" x2="47.762" y2="-66.158"/>
  <line y1="-61.909" style="fill:none;stroke:#000000;stroke-width:0.3;" x1="57.978" x2="55.483" y2="-67.189"/>
  <line y1="-64.296" style="fill:none;stroke:#000000;stroke-width:0.3;" x1="55.782" x2="57.485" y2="-65.151"/>
  <line y1="-54.284" style="fill:none;stroke:#000000;stroke-width:0.3;" x1="84.394" x2="81.9" y2="-59.564"/>
  <line y1="-56.671" style="fill:none;stroke:#000000;stroke-width:0.3;" x1="82.199" x2="83.901" y2="-57.526"/>
  <line y1="-80.911" style="fill:none;stroke:#000000;stroke-width:0.3;" x1="76.173" x2="74.463" y2="-86.494"/>
  <line y1="-83.589" style="fill:none;stroke:#000000;stroke-width:0.3;" x1="74.343" x2="76.15" y2="-84.19"/>
  <line y1="-83.107" style="fill:none;stroke:#000000;stroke-width:0.3;" x1="81.63" x2="86.957" y2="-85.5"/>
  <line y1="-85.256" style="fill:none;stroke:#000000;stroke-width:0.3;" x1="84.059" x2="84.882" y2="-83.538"/>
  <line y1="-70.879" style="fill:none;stroke:#000000;stroke-width:0.3;" x1="81.848" x2="84.38" y2="-76.141"/>
  <line y1="-74.088" style="fill:none;stroke:#000000;stroke-width:0.3;" x1="82.321" x2="84.057" y2="-73.304"/>
  <line y1="-79.298" style="fill:none;stroke:#000000;stroke-width:0.3;" x1="67.55" x2="64.578" y2="-84.324"/>
  <line y1="-81.472" style="fill:none;stroke:#000000;stroke-width:0.3;" x1="65.144" x2="66.759" y2="-82.481"/>
  <line y1="-53.223" style="fill:none;stroke:#000000;stroke-width:0.3;" x1="75.908" x2="71.108" y2="-56.549"/>
  <line y1="-54.193" style="fill:none;stroke:#000000;stroke-width:0.3;" x1="72.813" x2="73.86" y2="-55.785"/>
  <line y1="-45.848" style="fill:none;stroke:#000000;stroke-width:0.3;" x1="86.221" x2="81.421" y2="-49.174"/>
  <line y1="-46.818" style="fill:none;stroke:#000000;stroke-width:0.3;" x1="83.126" x2="84.173" y2="-48.41"/>
  <line y1="-66.038" style="fill:none;stroke:#000000;stroke-width:0.3;" x1="68.57" x2="62.731" y2="-65.974"/>
  <line y1="-65.039" style="fill:none;stroke:#000000;stroke-width:0.3;" x1="65.484" x2="65.417" y2="-66.943"/>
  <line y1="-49.5" style="fill:none;stroke:#000000;stroke-width:0.3;" x1="78.054" x2="72.215" y2="-49.435"/>
  <line y1="-48.501" style="fill:none;stroke:#000000;stroke-width:0.3;" x1="74.969" x2="74.902" y2="-50.404"/>
  <line y1="-55.917" style="fill:none;stroke:#000000;stroke-width:0.3;" x1="50.971" x2="45.132" y2="-55.852"/>
  <line y1="-54.917" style="fill:none;stroke:#000000;stroke-width:0.3;" x1="47.886" x2="47.819" y2="-56.821"/>
  <line y1="-38.667" style="fill:none;stroke:#000000;stroke-width:0.3;" x1="13.284" x2="17.221" y2="-42.979"/>
  <line y1="-41.604" style="fill:none;stroke:#000000;stroke-width:0.3;" x1="14.659" x2="16.096" y2="-40.354"/>
  <line y1="-38.843" style="fill:none;stroke:#000000;stroke-width:0.3;" x1="6.319" x2="2.318" y2="-43.097"/>
  <line y1="-40.438" style="fill:none;stroke:#000000;stroke-width:0.3;" x1="3.494" x2="4.85" y2="-41.776"/>
  <line y1="-31.402" style="fill:none;stroke:#000000;stroke-width:0.3;" x1="1.6" x2="7.01" y2="-33.599"/>
  <line y1="-33.461" style="fill:none;stroke:#000000;stroke-width:0.3;" x1="4.105" x2="4.865" y2="-31.714"/>
  <line y1="-12.714" style="fill:none;stroke:#000000;stroke-width:0.3;" x1="20.683" x2="26.093" y2="-14.912"/>
  <line y1="-14.774" style="fill:none;stroke:#000000;stroke-width:0.3;" x1="23.189" x2="23.948" y2="-13.027"/>
  <line y1="-30.36" style="fill:none;stroke:#000000;stroke-width:0.3;" x1="8.827" x2="14.554" y2="-31.5"/>
  <line y1="-31.911" style="fill:none;stroke:#000000;stroke-width:0.3;" x1="11.676" x2="12.093" y2="-30.052"/>
  <line y1="-26.996" style="fill:none;stroke:#000000;stroke-width:0.3;" x1="17.588" x2="21.304" y2="-31.5"/>
  <line y1="-29.998" style="fill:none;stroke:#000000;stroke-width:0.3;" x1="18.814" x2="20.313" y2="-28.822"/>
  <line y1="-10.559" style="fill:none;stroke:#000000;stroke-width:0.3;" x1="10.998" x2="14.714" y2="-15.064"/>
  <line y1="-13.562" style="fill:none;stroke:#000000;stroke-width:0.3;" x1="12.224" x2="13.722" y2="-12.385"/>
  <line y1="-28.25" style="fill:none;stroke:#000000;stroke-width:0.3;" x1="30.554" x2="26.697" y2="-32.634"/>
  <line y1="-29.937" style="fill:none;stroke:#000000;stroke-width:0.3;" x1="27.784" x2="29.184" y2="-31.229"/>
  <line y1="-2.75" style="fill:none;stroke:#000000;stroke-width:0.3;" x1="6.679" x2="2.822" y2="-7.134"/>
  <line y1="-4.437" style="fill:none;stroke:#000000;stroke-width:0.3;" x1="3.909" x2="5.308" y2="-5.729"/>
  <line y1="-18.75" style="fill:none;stroke:#000000;stroke-width:0.3;" x1="30.054" x2="32.103" y2="-24.218"/>
  <line y1="-21.988" style="fill:none;stroke:#000000;stroke-width:0.3;" x1="30.237" x2="32.036" y2="-21.363"/>
  <line y1="-2.69" style="fill:none;stroke:#000000;stroke-width:0.3;" x1="21.091" x2="23.14" y2="-8.158"/>
  <line y1="-5.928" style="fill:none;stroke:#000000;stroke-width:0.3;" x1="21.274" x2="23.073" y2="-5.303"/>
  <line y1="-19.21" style="fill:none;stroke:#000000;stroke-width:0.3;" x1="39.808" x2="37.262" y2="-24.465"/>
  <line y1="-21.576" style="fill:none;stroke:#000000;stroke-width:0.3;" x1="37.589" x2="39.283" y2="-22.448"/>
  <line y1="-4.843" style="fill:none;stroke:#000000;stroke-width:0.3;" x1="16.243" x2="10.422" y2="-4.385"/>
  <line y1="-3.638" style="fill:none;stroke:#000000;stroke-width:0.3;" x1="13.232" x2="13.037" y2="-5.533"/>
  <line y1="-24.327" style="fill:none;stroke:#000000;stroke-width:0.3;" x1="7.469" x2="3.148" y2="-20.399"/>
  <line y1="-21.53" style="fill:none;stroke:#000000;stroke-width:0.3;" x1="5.827" x2="4.512" y2="-22.908"/>
  <line y1="-18.659" style="fill:none;stroke:#000000;stroke-width:0.3;" x1="14.728" x2="12.233" y2="-23.939"/>
  <line y1="-21.046" style="fill:none;stroke:#000000;stroke-width:0.3;" x1="12.532" x2="14.235" y2="-21.901"/>
  <line y1="-10.179" style="fill:none;stroke:#000000;stroke-width:0.3;" x1="39.029" x2="40.629" y2="-15.795"/>
  <line y1="-13.421" style="fill:none;stroke:#000000;stroke-width:0.3;" x1="38.949" x2="40.793" y2="-12.944"/>
  <line y1="-37.75" style="fill:none;stroke:#000000;stroke-width:0.3;" x1="40.054" x2="38.345" y2="-43.334"/>
  <line y1="-40.428" style="fill:none;stroke:#000000;stroke-width:0.3;" x1="38.225" x2="40.032" y2="-41.03"/>
  <line y1="-37.107" style="fill:none;stroke:#000000;stroke-width:0.3;" x1="28.978" x2="34.304" y2="-39.5"/>
  <line y1="-39.256" style="fill:none;stroke:#000000;stroke-width:0.3;" x1="31.407" x2="32.229" y2="-37.538"/>
  <line y1="-30.64" style="fill:none;stroke:#000000;stroke-width:0.3;" x1="34.557" x2="40.257" y2="-31.908"/>
  <line y1="-32.255" style="fill:none;stroke:#000000;stroke-width:0.3;" x1="37.37" x2="37.828" y2="-30.406"/>
  <line y1="-9.5" style="fill:none;stroke:#000000;stroke-width:0.3;" x1="33.804" x2="29.004" y2="-12.825"/>
  <line y1="-10.47" style="fill:none;stroke:#000000;stroke-width:0.3;" x1="30.71" x2="31.756" y2="-12.062"/>
  <line y1="-51.5" style="fill:none;stroke:#000000;stroke-width:0.3;" x1="64.804" x2="60.005" y2="-54.826"/>
  <line y1="-52.47" style="fill:none;stroke:#000000;stroke-width:0.3;" x1="61.71" x2="62.756" y2="-54.062"/>
  <line y1="-2.598" style="fill:none;stroke:#000000;stroke-width:0.3;" x1="42.971" x2="38.171" y2="-5.924"/>
  <line y1="-3.568" style="fill:none;stroke:#000000;stroke-width:0.3;" x1="39.876" x2="40.923" y2="-5.16"/>
  <line y1="-22.788" style="fill:none;stroke:#000000;stroke-width:0.3;" x1="25.32" x2="19.481" y2="-22.724"/>
  <line y1="-21.789" style="fill:none;stroke:#000000;stroke-width:0.3;" x1="22.235" x2="22.167" y2="-23.693"/>
  <line y1="-3.309" style="fill:none;stroke:#000000;stroke-width:0.3;" x1="34.257" x2="28.418" y2="-3.244"/>
  <line y1="-2.31" style="fill:none;stroke:#000000;stroke-width:0.3;" x1="31.172" x2="31.105" y2="-4.213"/>
  <line y1="-12.667" style="fill:none;stroke:#000000;stroke-width:0.3;" x1="7.721" x2="1.882" y2="-12.602"/>
  <line y1="-11.667" style="fill:none;stroke:#000000;stroke-width:0.3;" x1="4.636" x2="4.569" y2="-13.571"/>
  <line y1="-36.542" style="fill:none;stroke:#000000;stroke-width:0.3;" x1="53.929" x2="57.867" y2="-40.854"/>
  <line y1="-39.479" style="fill:none;stroke:#000000;stroke-width:0.3;" x1="55.304" x2="56.742" y2="-38.229"/>
  <line y1="-37.143" style="fill:none;stroke:#000000;stroke-width:0.3;" x1="49.527" x2="45.526" y2="-41.396"/>
  <line y1="-38.737" style="fill:none;stroke:#000000;stroke-width:0.3;" x1="46.703" x2="48.058" y2="-40.075"/>
  <line y1="-28.598" style="fill:none;stroke:#000000;stroke-width:0.3;" x1="44.651" x2="47.294" y2="-33.806"/>
  <line y1="-31.796" style="fill:none;stroke:#000000;stroke-width:0.3;" x1="45.191" x2="46.91" y2="-30.976"/>
  <line y1="-12.714" style="fill:none;stroke:#000000;stroke-width:0.3;" x1="63.892" x2="69.302" y2="-14.912"/>
  <line y1="-14.774" style="fill:none;stroke:#000000;stroke-width:0.3;" x1="66.397" x2="67.157" y2="-13.027"/>
  <line y1="-31.814" style="fill:none;stroke:#000000;stroke-width:0.3;" x1="55.494" x2="61.221" y2="-32.954"/>
  <line y1="-33.365" style="fill:none;stroke:#000000;stroke-width:0.3;" x1="58.342" x2="58.759" y2="-31.506"/>
  <line y1="-28.434" style="fill:none;stroke:#000000;stroke-width:0.3;" x1="64.248" x2="67.964" y2="-32.938"/>
  <line y1="-31.437" style="fill:none;stroke:#000000;stroke-width:0.3;" x1="65.474" x2="66.972" y2="-30.26"/>
  <line y1="-10.559" style="fill:none;stroke:#000000;stroke-width:0.3;" x1="54.206" x2="57.922" y2="-15.064"/>
  <line y1="-13.562" style="fill:none;stroke:#000000;stroke-width:0.3;" x1="55.432" x2="56.93" y2="-12.385"/>
  <line y1="-29.964" style="fill:none;stroke:#000000;stroke-width:0.3;" x1="75.629" x2="71.772" y2="-34.348"/>
  <line y1="-31.651" style="fill:none;stroke:#000000;stroke-width:0.3;" x1="72.859" x2="74.258" y2="-32.944"/>
  <line y1="-2.75" style="fill:none;stroke:#000000;stroke-width:0.3;" x1="49.888" x2="46.03" y2="-7.134"/>
  <line y1="-4.437" style="fill:none;stroke:#000000;stroke-width:0.3;" x1="47.118" x2="48.517" y2="-5.729"/>
  <line y1="-18.377" style="fill:none;stroke:#000000;stroke-width:0.3;" x1="74.237" x2="76.285" y2="-23.845"/>
  <line y1="-21.615" style="fill:none;stroke:#000000;stroke-width:0.3;" x1="74.419" x2="76.219" y2="-20.99"/>
  <line y1="-2.69" style="fill:none;stroke:#000000;stroke-width:0.3;" x1="64.299" x2="66.348" y2="-8.158"/>
  <line y1="-5.928" style="fill:none;stroke:#000000;stroke-width:0.3;" x1="64.482" x2="66.281" y2="-5.303"/>
  <line y1="-22.781" style="fill:none;stroke:#000000;stroke-width:0.3;" x1="86.076" x2="80.255" y2="-22.323"/>
  <line y1="-21.576" style="fill:none;stroke:#000000;stroke-width:0.3;" x1="83.065" x2="82.87" y2="-23.471"/>
  <line y1="-4.843" style="fill:none;stroke:#000000;stroke-width:0.3;" x1="59.451" x2="53.63" y2="-4.385"/>
  <line y1="-3.638" style="fill:none;stroke:#000000;stroke-width:0.3;" x1="56.44" x2="56.245" y2="-5.533"/>
  <line y1="-21.765" style="fill:none;stroke:#000000;stroke-width:0.3;" x1="49.802" x2="45.481" y2="-17.837"/>
  <line y1="-18.968" style="fill:none;stroke:#000000;stroke-width:0.3;" x1="48.16" x2="46.845" y2="-20.346"/>
  <line y1="-18.971" style="fill:none;stroke:#000000;stroke-width:0.3;" x1="59.124" x2="56.629" y2="-24.251"/>
  <line y1="-21.359" style="fill:none;stroke:#000000;stroke-width:0.3;" x1="56.928" x2="58.63" y2="-22.214"/>
  <line y1="-11.034" style="fill:none;stroke:#000000;stroke-width:0.3;" x1="84.353" x2="81.858" y2="-16.314"/>
  <line y1="-13.421" style="fill:none;stroke:#000000;stroke-width:0.3;" x1="82.157" x2="83.86" y2="-14.276"/>
  <line y1="-37.661" style="fill:none;stroke:#000000;stroke-width:0.3;" x1="76.131" x2="74.421" y2="-43.244"/>
  <line y1="-40.339" style="fill:none;stroke:#000000;stroke-width:0.3;" x1="74.301" x2="76.109" y2="-40.94"/>
  <line y1="-39.857" style="fill:none;stroke:#000000;stroke-width:0.3;" x1="81.589" x2="86.915" y2="-42.25"/>
  <line y1="-42.006" style="fill:none;stroke:#000000;stroke-width:0.3;" x1="84.017" x2="84.84" y2="-40.288"/>
  <line y1="-27.629" style="fill:none;stroke:#000000;stroke-width:0.3;" x1="81.806" x2="84.338" y2="-32.891"/>
  <line y1="-30.838" style="fill:none;stroke:#000000;stroke-width:0.3;" x1="82.279" x2="84.015" y2="-30.054"/>
  <line y1="-36.048" style="fill:none;stroke:#000000;stroke-width:0.3;" x1="67.509" x2="64.537" y2="-41.074"/>
  <line y1="-38.222" style="fill:none;stroke:#000000;stroke-width:0.3;" x1="65.102" x2="66.718" y2="-39.231"/>
  <line y1="-34.883" style="fill:none;stroke:#000000;stroke-width:0.3;" x1="22.613" x2="21.268" y2="-40.566"/>
  <line y1="-37.674" style="fill:none;stroke:#000000;stroke-width:0.3;" x1="20.96" x2="22.803" y2="-38.158"/>
  <line y1="-11.161" style="fill:none;stroke:#000000;stroke-width:0.3;" x1="78.242" x2="73.442" y2="-14.486"/>
  <line y1="-12.131" style="fill:none;stroke:#000000;stroke-width:0.3;" x1="75.147" x2="76.193" y2="-13.722"/>
  <line y1="-2.598" style="fill:none;stroke:#000000;stroke-width:0.3;" x1="86.179" x2="81.379" y2="-5.924"/>
  <line y1="-3.568" style="fill:none;stroke:#000000;stroke-width:0.3;" x1="83.084" x2="84.131" y2="-5.16"/>
  <line y1="-22.788" style="fill:none;stroke:#000000;stroke-width:0.3;" x1="68.528" x2="62.689" y2="-22.724"/>
  <line y1="-21.789" style="fill:none;stroke:#000000;stroke-width:0.3;" x1="65.443" x2="65.376" y2="-23.693"/>
  <line y1="-26.726" style="fill:none;stroke:#000000;stroke-width:0.3;" x1="55.028" x2="49.189" y2="-26.661"/>
  <line y1="-25.726" style="fill:none;stroke:#000000;stroke-width:0.3;" x1="51.943" x2="51.876" y2="-27.63"/>
  <line y1="-3.309" style="fill:none;stroke:#000000;stroke-width:0.3;" x1="77.466" x2="71.627" y2="-3.244"/>
  <line y1="-2.31" style="fill:none;stroke:#000000;stroke-width:0.3;" x1="74.38" x2="74.313" y2="-4.213"/>
  <line y1="-12.667" style="fill:none;stroke:#000000;stroke-width:0.3;" x1="50.929" x2="45.09" y2="-12.602"/>
  <line y1="-11.667" style="fill:none;stroke:#000000;stroke-width:0.3;" x1="47.844" x2="47.777" y2="-13.571"/>
 </g>
</svg>
