<?xml version="1.0" encoding="utf-8"?>
<svg xmlns="http://www.w3.org/2000/svg" version="1.1" x="0px" y="0px" xml:space="preserve" width="86.25" height="86.25" viewBox="1.054 -87.25 86.25 86.25">
	<g>
		<rect x="1.054" y="-87.25" style="fill:none;" width="86.25" height="86.25"/>
		<line style="fill:none;stroke:#000000;stroke-width:0.3;" x1="13.304" y1="-80.25" x2="17.242" y2="-84.562"/>
		<line style="fill:none;stroke:#000000;stroke-width:0.3;" x1="14.679" y1="-83.188" x2="16.117" y2="-81.938"/>
		<line style="fill:none;stroke:#000000;stroke-width:0.3;" x1="6.319" y1="-82.093" x2="2.318" y2="-86.347"/>
		<line style="fill:none;stroke:#000000;stroke-width:0.3;" x1="3.494" y1="-83.688" x2="4.85" y2="-85.026"/>
		<line style="fill:none;stroke:#000000;stroke-width:0.3;" x1="1.6" y1="-74.651" x2="7.01" y2="-76.85"/>
		<line style="fill:none;stroke:#000000;stroke-width:0.3;" x1="4.105" y1="-76.711" x2="4.865" y2="-74.964"/>
		<line style="fill:none;stroke:#000000;stroke-width:0.3;" x1="20.683" y1="-54.83" x2="26.093" y2="-57.028"/>
		<line style="fill:none;stroke:#000000;stroke-width:0.3;" x1="23.189" y1="-56.89" x2="23.948" y2="-55.143"/>
		<line style="fill:none;stroke:#000000;stroke-width:0.3;" x1="10.16" y1="-73.751" x2="15.888" y2="-74.891"/>
		<line style="fill:none;stroke:#000000;stroke-width:0.3;" x1="13.009" y1="-75.302" x2="13.426" y2="-73.444"/>
		<line style="fill:none;stroke:#000000;stroke-width:0.3;" x1="18.838" y1="-70.995" x2="22.554" y2="-75.5"/>
		<line style="fill:none;stroke:#000000;stroke-width:0.3;" x1="20.064" y1="-73.998" x2="21.563" y2="-72.822"/>
		<line style="fill:none;stroke:#000000;stroke-width:0.3;" x1="10.998" y1="-53.809" x2="14.714" y2="-58.313"/>
		<line style="fill:none;stroke:#000000;stroke-width:0.3;" x1="12.224" y1="-56.812" x2="13.722" y2="-55.635"/>
		<line style="fill:none;stroke:#000000;stroke-width:0.3;" x1="32.421" y1="-73.214" x2="28.563" y2="-77.598"/>
		<line style="fill:none;stroke:#000000;stroke-width:0.3;" x1="29.651" y1="-74.901" x2="31.05" y2="-76.194"/>
		<line style="fill:none;stroke:#000000;stroke-width:0.3;" x1="7.567" y1="-50.032" x2="2.46" y2="-47.202"/>
		<line style="fill:none;stroke:#000000;stroke-width:0.3;" x1="5.327" y1="-47.687" x2="4.364" y2="-49.33"/>
		<line style="fill:none;stroke:#000000;stroke-width:0.3;" x1="31.879" y1="-61.627" x2="33.928" y2="-67.095"/>
		<line style="fill:none;stroke:#000000;stroke-width:0.3;" x1="32.061" y1="-64.865" x2="33.861" y2="-64.24"/>
		<line style="fill:none;stroke:#000000;stroke-width:0.3;" x1="21.091" y1="-45.94" x2="23.14" y2="-51.408"/>
		<line style="fill:none;stroke:#000000;stroke-width:0.3;" x1="21.274" y1="-49.178" x2="23.073" y2="-48.553"/>
		<line style="fill:none;stroke:#000000;stroke-width:0.3;" x1="42.868" y1="-66.031" x2="37.047" y2="-65.573"/>
		<line style="fill:none;stroke:#000000;stroke-width:0.3;" x1="39.857" y1="-64.826" x2="39.662" y2="-66.72"/>
		<line style="fill:none;stroke:#000000;stroke-width:0.3;" x1="16.243" y1="-48.093" x2="10.422" y2="-47.635"/>
		<line style="fill:none;stroke:#000000;stroke-width:0.3;" x1="13.232" y1="-46.888" x2="13.037" y2="-48.783"/>
		<line style="fill:none;stroke:#000000;stroke-width:0.3;" x1="7.469" y1="-67.577" x2="3.148" y2="-63.649"/>
		<line style="fill:none;stroke:#000000;stroke-width:0.3;" x1="5.827" y1="-64.78" x2="4.512" y2="-66.158"/>
		<line style="fill:none;stroke:#000000;stroke-width:0.3;" x1="14.728" y1="-61.909" x2="12.233" y2="-67.189"/>
		<line style="fill:none;stroke:#000000;stroke-width:0.3;" x1="12.532" y1="-64.296" x2="14.235" y2="-65.151"/>
		<line style="fill:none;stroke:#000000;stroke-width:0.3;" x1="41.144" y1="-54.284" x2="38.65" y2="-59.564"/>
		<line style="fill:none;stroke:#000000;stroke-width:0.3;" x1="38.949" y1="-56.671" x2="40.651" y2="-57.526"/>
		<line style="fill:none;stroke:#000000;stroke-width:0.3;" x1="32.923" y1="-80.911" x2="31.213" y2="-86.494"/>
		<line style="fill:none;stroke:#000000;stroke-width:0.3;" x1="31.093" y1="-83.589" x2="32.9" y2="-84.19"/>
		<line style="fill:none;stroke:#000000;stroke-width:0.3;" x1="38.38" y1="-83.107" x2="43.707" y2="-85.5"/>
		<line style="fill:none;stroke:#000000;stroke-width:0.3;" x1="40.809" y1="-85.256" x2="41.632" y2="-83.538"/>
		<line style="fill:none;stroke:#000000;stroke-width:0.3;" x1="38.598" y1="-70.879" x2="41.13" y2="-76.141"/>
		<line style="fill:none;stroke:#000000;stroke-width:0.3;" x1="39.071" y1="-74.088" x2="40.807" y2="-73.304"/>
		<line style="fill:none;stroke:#000000;stroke-width:0.3;" x1="24.301" y1="-79.298" x2="21.328" y2="-84.324"/>
		<line style="fill:none;stroke:#000000;stroke-width:0.3;" x1="21.894" y1="-81.472" x2="23.51" y2="-82.481"/>
		<line style="fill:none;stroke:#000000;stroke-width:0.3;" x1="35.033" y1="-54.411" x2="30.233" y2="-57.736"/>
		<line style="fill:none;stroke:#000000;stroke-width:0.3;" x1="31.938" y1="-55.381" x2="32.985" y2="-56.972"/>
		<line style="fill:none;stroke:#000000;stroke-width:0.3;" x1="40.554" y1="-46.5" x2="35.755" y2="-49.826"/>
		<line style="fill:none;stroke:#000000;stroke-width:0.3;" x1="37.46" y1="-47.47" x2="38.506" y2="-49.062"/>
		<line style="fill:none;stroke:#000000;stroke-width:0.3;" x1="24.554" y1="-62.366" x2="18.715" y2="-62.301"/>
		<line style="fill:none;stroke:#000000;stroke-width:0.3;" x1="21.469" y1="-61.367" x2="21.402" y2="-63.271"/>
		<line style="fill:none;stroke:#000000;stroke-width:0.3;" x1="32.304" y1="-47.5" x2="26.465" y2="-47.435"/>
		<line style="fill:none;stroke:#000000;stroke-width:0.3;" x1="29.219" y1="-46.501" x2="29.152" y2="-48.404"/>
		<line style="fill:none;stroke:#000000;stroke-width:0.3;" x1="7.721" y1="-55.917" x2="1.882" y2="-55.852"/>
		<line style="fill:none;stroke:#000000;stroke-width:0.3;" x1="4.636" y1="-54.917" x2="4.569" y2="-56.821"/>
		<line style="fill:none;stroke:#000000;stroke-width:0.3;" x1="55.971" y1="-79.042" x2="59.909" y2="-83.354"/>
		<line style="fill:none;stroke:#000000;stroke-width:0.3;" x1="57.346" y1="-81.979" x2="58.784" y2="-80.729"/>
		<line style="fill:none;stroke:#000000;stroke-width:0.3;" x1="49.569" y1="-82.093" x2="45.568" y2="-86.347"/>
		<line style="fill:none;stroke:#000000;stroke-width:0.3;" x1="46.744" y1="-83.688" x2="48.1" y2="-85.026"/>
		<line style="fill:none;stroke:#000000;stroke-width:0.3;" x1="44.787" y1="-75.714" x2="50.198" y2="-77.912"/>
		<line style="fill:none;stroke:#000000;stroke-width:0.3;" x1="47.293" y1="-77.774" x2="48.052" y2="-76.027"/>
		<line style="fill:none;stroke:#000000;stroke-width:0.3;" x1="63.371" y1="-58.089" x2="68.781" y2="-60.287"/>
		<line style="fill:none;stroke:#000000;stroke-width:0.3;" x1="65.876" y1="-60.149" x2="66.636" y2="-58.402"/>
		<line style="fill:none;stroke:#000000;stroke-width:0.3;" x1="56.046" y1="-71.564" x2="59.553" y2="-76.233"/>
		<line style="fill:none;stroke:#000000;stroke-width:0.3;" x1="57.134" y1="-74.619" x2="58.684" y2="-73.512"/>
		<line style="fill:none;stroke:#000000;stroke-width:0.3;" x1="64.289" y1="-71.684" x2="68.006" y2="-76.188"/>
		<line style="fill:none;stroke:#000000;stroke-width:0.3;" x1="65.515" y1="-74.687" x2="67.014" y2="-73.51"/>
		<line style="fill:none;stroke:#000000;stroke-width:0.3;" x1="53.681" y1="-53.809" x2="57.397" y2="-58.313"/>
		<line style="fill:none;stroke:#000000;stroke-width:0.3;" x1="54.907" y1="-56.812" x2="56.405" y2="-55.635"/>
		<line style="fill:none;stroke:#000000;stroke-width:0.3;" x1="75.671" y1="-73.214" x2="71.813" y2="-77.598"/>
		<line style="fill:none;stroke:#000000;stroke-width:0.3;" x1="72.901" y1="-74.901" x2="74.3" y2="-76.194"/>
		<line style="fill:none;stroke:#000000;stroke-width:0.3;" x1="48.352" y1="-44.671" x2="47.918" y2="-50.494"/>
		<line style="fill:none;stroke:#000000;stroke-width:0.3;" x1="47.159" y1="-47.687" x2="49.055" y2="-47.875"/>
		<line style="fill:none;stroke:#000000;stroke-width:0.3;" x1="28.271" y1="-65.683" x2="24.413" y2="-70.067"/>
		<line style="fill:none;stroke:#000000;stroke-width:0.3;" x1="25.501" y1="-67.37" x2="26.9" y2="-68.663"/>
		<line style="fill:none;stroke:#000000;stroke-width:0.3;" x1="74.279" y1="-61.627" x2="76.327" y2="-67.095"/>
		<line style="fill:none;stroke:#000000;stroke-width:0.3;" x1="74.461" y1="-64.865" x2="76.26" y2="-64.24"/>
		<line style="fill:none;stroke:#000000;stroke-width:0.3;" x1="66.904" y1="-44.627" x2="68.952" y2="-50.095"/>
		<line style="fill:none;stroke:#000000;stroke-width:0.3;" x1="67.086" y1="-47.865" x2="68.885" y2="-47.24"/>
		<line style="fill:none;stroke:#000000;stroke-width:0.3;" x1="86.118" y1="-66.031" x2="80.297" y2="-65.573"/>
		<line style="fill:none;stroke:#000000;stroke-width:0.3;" x1="83.107" y1="-64.826" x2="82.912" y2="-66.72"/>
		<line style="fill:none;stroke:#000000;stroke-width:0.3;" x1="57.168" y1="-50.1" x2="56.217" y2="-44.339"/>
		<line style="fill:none;stroke:#000000;stroke-width:0.3;" x1="57.616" y1="-46.888" x2="55.73" y2="-47.153"/>
		<line style="fill:none;stroke:#000000;stroke-width:0.3;" x1="50.719" y1="-67.577" x2="46.398" y2="-63.649"/>
		<line style="fill:none;stroke:#000000;stroke-width:0.3;" x1="49.077" y1="-64.78" x2="47.762" y2="-66.158"/>
		<line style="fill:none;stroke:#000000;stroke-width:0.3;" x1="57.978" y1="-61.909" x2="55.483" y2="-67.189"/>
		<line style="fill:none;stroke:#000000;stroke-width:0.3;" x1="55.782" y1="-64.296" x2="57.485" y2="-65.151"/>
		<line style="fill:none;stroke:#000000;stroke-width:0.3;" x1="84.394" y1="-54.284" x2="81.9" y2="-59.564"/>
		<line style="fill:none;stroke:#000000;stroke-width:0.3;" x1="82.199" y1="-56.671" x2="83.901" y2="-57.526"/>
		<line style="fill:none;stroke:#000000;stroke-width:0.3;" x1="76.173" y1="-80.911" x2="74.463" y2="-86.494"/>
		<line style="fill:none;stroke:#000000;stroke-width:0.3;" x1="74.343" y1="-83.589" x2="76.15" y2="-84.19"/>
		<line style="fill:none;stroke:#000000;stroke-width:0.3;" x1="81.63" y1="-83.107" x2="86.957" y2="-85.5"/>
		<line style="fill:none;stroke:#000000;stroke-width:0.3;" x1="84.059" y1="-85.256" x2="84.882" y2="-83.538"/>
		<line style="fill:none;stroke:#000000;stroke-width:0.3;" x1="81.848" y1="-70.879" x2="84.38" y2="-76.141"/>
		<line style="fill:none;stroke:#000000;stroke-width:0.3;" x1="82.321" y1="-74.088" x2="84.057" y2="-73.304"/>
		<line style="fill:none;stroke:#000000;stroke-width:0.3;" x1="67.55" y1="-79.298" x2="64.578" y2="-84.324"/>
		<line style="fill:none;stroke:#000000;stroke-width:0.3;" x1="65.144" y1="-81.472" x2="66.759" y2="-82.481"/>
		<line style="fill:none;stroke:#000000;stroke-width:0.3;" x1="75.908" y1="-53.223" x2="71.108" y2="-56.549"/>
		<line style="fill:none;stroke:#000000;stroke-width:0.3;" x1="72.813" y1="-54.193" x2="73.86" y2="-55.785"/>
		<line style="fill:none;stroke:#000000;stroke-width:0.3;" x1="86.221" y1="-45.848" x2="81.421" y2="-49.174"/>
		<line style="fill:none;stroke:#000000;stroke-width:0.3;" x1="83.126" y1="-46.818" x2="84.173" y2="-48.41"/>
		<line style="fill:none;stroke:#000000;stroke-width:0.3;" x1="68.57" y1="-66.038" x2="62.731" y2="-65.974"/>
		<line style="fill:none;stroke:#000000;stroke-width:0.3;" x1="65.484" y1="-65.039" x2="65.417" y2="-66.943"/>
		<line style="fill:none;stroke:#000000;stroke-width:0.3;" x1="78.054" y1="-49.5" x2="72.215" y2="-49.435"/>
		<line style="fill:none;stroke:#000000;stroke-width:0.3;" x1="74.969" y1="-48.501" x2="74.902" y2="-50.404"/>
		<line style="fill:none;stroke:#000000;stroke-width:0.3;" x1="50.971" y1="-55.917" x2="45.132" y2="-55.852"/>
		<line style="fill:none;stroke:#000000;stroke-width:0.3;" x1="47.886" y1="-54.917" x2="47.819" y2="-56.821"/>
		<line style="fill:none;stroke:#000000;stroke-width:0.3;" x1="13.284" y1="-38.667" x2="17.221" y2="-42.979"/>
		<line style="fill:none;stroke:#000000;stroke-width:0.3;" x1="14.659" y1="-41.604" x2="16.096" y2="-40.354"/>
		<line style="fill:none;stroke:#000000;stroke-width:0.3;" x1="6.319" y1="-38.843" x2="2.318" y2="-43.097"/>
		<line style="fill:none;stroke:#000000;stroke-width:0.3;" x1="3.494" y1="-40.438" x2="4.85" y2="-41.776"/>
		<line style="fill:none;stroke:#000000;stroke-width:0.3;" x1="1.6" y1="-31.402" x2="7.01" y2="-33.599"/>
		<line style="fill:none;stroke:#000000;stroke-width:0.3;" x1="4.105" y1="-33.461" x2="4.865" y2="-31.714"/>
		<line style="fill:none;stroke:#000000;stroke-width:0.3;" x1="20.683" y1="-12.714" x2="26.093" y2="-14.912"/>
		<line style="fill:none;stroke:#000000;stroke-width:0.3;" x1="23.189" y1="-14.774" x2="23.948" y2="-13.027"/>
		<line style="fill:none;stroke:#000000;stroke-width:0.3;" x1="8.827" y1="-30.36" x2="14.554" y2="-31.5"/>
		<line style="fill:none;stroke:#000000;stroke-width:0.3;" x1="11.676" y1="-31.911" x2="12.093" y2="-30.052"/>
		<line style="fill:none;stroke:#000000;stroke-width:0.3;" x1="17.588" y1="-26.996" x2="21.304" y2="-31.5"/>
		<line style="fill:none;stroke:#000000;stroke-width:0.3;" x1="18.814" y1="-29.998" x2="20.313" y2="-28.822"/>
		<line style="fill:none;stroke:#000000;stroke-width:0.3;" x1="10.998" y1="-10.559" x2="14.714" y2="-15.064"/>
		<line style="fill:none;stroke:#000000;stroke-width:0.3;" x1="12.224" y1="-13.562" x2="13.722" y2="-12.385"/>
		<line style="fill:none;stroke:#000000;stroke-width:0.3;" x1="30.554" y1="-28.25" x2="26.697" y2="-32.634"/>
		<line style="fill:none;stroke:#000000;stroke-width:0.3;" x1="27.784" y1="-29.937" x2="29.184" y2="-31.229"/>
		<line style="fill:none;stroke:#000000;stroke-width:0.3;" x1="6.679" y1="-2.75" x2="2.822" y2="-7.134"/>
		<line style="fill:none;stroke:#000000;stroke-width:0.3;" x1="3.909" y1="-4.437" x2="5.308" y2="-5.729"/>
		<line style="fill:none;stroke:#000000;stroke-width:0.3;" x1="30.054" y1="-18.75" x2="32.103" y2="-24.218"/>
		<line style="fill:none;stroke:#000000;stroke-width:0.3;" x1="30.237" y1="-21.988" x2="32.036" y2="-21.363"/>
		<line style="fill:none;stroke:#000000;stroke-width:0.3;" x1="21.091" y1="-2.69" x2="23.14" y2="-8.158"/>
		<line style="fill:none;stroke:#000000;stroke-width:0.3;" x1="21.274" y1="-5.928" x2="23.073" y2="-5.303"/>
		<line style="fill:none;stroke:#000000;stroke-width:0.3;" x1="39.808" y1="-19.21" x2="37.262" y2="-24.465"/>
		<line style="fill:none;stroke:#000000;stroke-width:0.3;" x1="37.589" y1="-21.576" x2="39.283" y2="-22.448"/>
		<line style="fill:none;stroke:#000000;stroke-width:0.3;" x1="16.243" y1="-4.843" x2="10.422" y2="-4.385"/>
		<line style="fill:none;stroke:#000000;stroke-width:0.3;" x1="13.232" y1="-3.638" x2="13.037" y2="-5.533"/>
		<line style="fill:none;stroke:#000000;stroke-width:0.3;" x1="7.469" y1="-24.327" x2="3.148" y2="-20.399"/>
		<line style="fill:none;stroke:#000000;stroke-width:0.3;" x1="5.827" y1="-21.53" x2="4.512" y2="-22.908"/>
		<line style="fill:none;stroke:#000000;stroke-width:0.3;" x1="14.728" y1="-18.659" x2="12.233" y2="-23.939"/>
		<line style="fill:none;stroke:#000000;stroke-width:0.3;" x1="12.532" y1="-21.046" x2="14.235" y2="-21.901"/>
		<line style="fill:none;stroke:#000000;stroke-width:0.3;" x1="39.029" y1="-10.179" x2="40.629" y2="-15.795"/>
		<line style="fill:none;stroke:#000000;stroke-width:0.3;" x1="38.949" y1="-13.421" x2="40.793" y2="-12.944"/>
		<line style="fill:none;stroke:#000000;stroke-width:0.3;" x1="40.054" y1="-37.75" x2="38.345" y2="-43.334"/>
		<line style="fill:none;stroke:#000000;stroke-width:0.3;" x1="38.225" y1="-40.428" x2="40.032" y2="-41.03"/>
		<line style="fill:none;stroke:#000000;stroke-width:0.3;" x1="28.978" y1="-37.107" x2="34.304" y2="-39.5"/>
		<line style="fill:none;stroke:#000000;stroke-width:0.3;" x1="31.407" y1="-39.256" x2="32.229" y2="-37.538"/>
		<line style="fill:none;stroke:#000000;stroke-width:0.3;" x1="34.557" y1="-30.64" x2="40.257" y2="-31.908"/>
		<line style="fill:none;stroke:#000000;stroke-width:0.3;" x1="37.37" y1="-32.255" x2="37.828" y2="-30.406"/>
		<line style="fill:none;stroke:#000000;stroke-width:0.3;" x1="33.804" y1="-9.5" x2="29.004" y2="-12.825"/>
		<line style="fill:none;stroke:#000000;stroke-width:0.3;" x1="30.71" y1="-10.47" x2="31.756" y2="-12.062"/>
		<line style="fill:none;stroke:#000000;stroke-width:0.3;" x1="64.804" y1="-51.5" x2="60.005" y2="-54.826"/>
		<line style="fill:none;stroke:#000000;stroke-width:0.3;" x1="61.71" y1="-52.47" x2="62.756" y2="-54.062"/>
		<line style="fill:none;stroke:#000000;stroke-width:0.3;" x1="42.971" y1="-2.598" x2="38.171" y2="-5.924"/>
		<line style="fill:none;stroke:#000000;stroke-width:0.3;" x1="39.876" y1="-3.568" x2="40.923" y2="-5.16"/>
		<line style="fill:none;stroke:#000000;stroke-width:0.3;" x1="25.32" y1="-22.788" x2="19.481" y2="-22.724"/>
		<line style="fill:none;stroke:#000000;stroke-width:0.3;" x1="22.235" y1="-21.789" x2="22.167" y2="-23.693"/>
		<line style="fill:none;stroke:#000000;stroke-width:0.3;" x1="34.257" y1="-3.309" x2="28.418" y2="-3.244"/>
		<line style="fill:none;stroke:#000000;stroke-width:0.3;" x1="31.172" y1="-2.31" x2="31.105" y2="-4.213"/>
		<line style="fill:none;stroke:#000000;stroke-width:0.3;" x1="7.721" y1="-12.667" x2="1.882" y2="-12.602"/>
		<line style="fill:none;stroke:#000000;stroke-width:0.3;" x1="4.636" y1="-11.667" x2="4.569" y2="-13.571"/>
		<line style="fill:none;stroke:#000000;stroke-width:0.3;" x1="53.929" y1="-36.542" x2="57.867" y2="-40.854"/>
		<line style="fill:none;stroke:#000000;stroke-width:0.3;" x1="55.304" y1="-39.479" x2="56.742" y2="-38.229"/>
		<line style="fill:none;stroke:#000000;stroke-width:0.3;" x1="49.527" y1="-37.143" x2="45.526" y2="-41.396"/>
		<line style="fill:none;stroke:#000000;stroke-width:0.3;" x1="46.703" y1="-38.737" x2="48.058" y2="-40.075"/>
		<line style="fill:none;stroke:#000000;stroke-width:0.3;" x1="44.651" y1="-28.598" x2="47.294" y2="-33.806"/>
		<line style="fill:none;stroke:#000000;stroke-width:0.3;" x1="45.191" y1="-31.796" x2="46.91" y2="-30.976"/>
		<line style="fill:none;stroke:#000000;stroke-width:0.3;" x1="63.892" y1="-12.714" x2="69.302" y2="-14.912"/>
		<line style="fill:none;stroke:#000000;stroke-width:0.3;" x1="66.397" y1="-14.774" x2="67.157" y2="-13.027"/>
		<line style="fill:none;stroke:#000000;stroke-width:0.3;" x1="55.494" y1="-31.814" x2="61.221" y2="-32.954"/>
		<line style="fill:none;stroke:#000000;stroke-width:0.3;" x1="58.342" y1="-33.365" x2="58.759" y2="-31.506"/>
		<line style="fill:none;stroke:#000000;stroke-width:0.3;" x1="64.248" y1="-28.434" x2="67.964" y2="-32.938"/>
		<line style="fill:none;stroke:#000000;stroke-width:0.3;" x1="65.474" y1="-31.437" x2="66.972" y2="-30.26"/>
		<line style="fill:none;stroke:#000000;stroke-width:0.3;" x1="54.206" y1="-10.559" x2="57.922" y2="-15.064"/>
		<line style="fill:none;stroke:#000000;stroke-width:0.3;" x1="55.432" y1="-13.562" x2="56.93" y2="-12.385"/>
		<line style="fill:none;stroke:#000000;stroke-width:0.3;" x1="75.629" y1="-29.964" x2="71.772" y2="-34.348"/>
		<line style="fill:none;stroke:#000000;stroke-width:0.3;" x1="72.859" y1="-31.651" x2="74.258" y2="-32.944"/>
		<line style="fill:none;stroke:#000000;stroke-width:0.3;" x1="49.888" y1="-2.75" x2="46.03" y2="-7.134"/>
		<line style="fill:none;stroke:#000000;stroke-width:0.3;" x1="47.118" y1="-4.437" x2="48.517" y2="-5.729"/>
		<line style="fill:none;stroke:#000000;stroke-width:0.3;" x1="74.237" y1="-18.377" x2="76.285" y2="-23.845"/>
		<line style="fill:none;stroke:#000000;stroke-width:0.3;" x1="74.419" y1="-21.615" x2="76.219" y2="-20.99"/>
		<line style="fill:none;stroke:#000000;stroke-width:0.3;" x1="64.299" y1="-2.69" x2="66.348" y2="-8.158"/>
		<line style="fill:none;stroke:#000000;stroke-width:0.3;" x1="64.482" y1="-5.928" x2="66.281" y2="-5.303"/>
		<line style="fill:none;stroke:#000000;stroke-width:0.3;" x1="86.076" y1="-22.781" x2="80.255" y2="-22.323"/>
		<line style="fill:none;stroke:#000000;stroke-width:0.3;" x1="83.065" y1="-21.576" x2="82.87" y2="-23.471"/>
		<line style="fill:none;stroke:#000000;stroke-width:0.3;" x1="59.451" y1="-4.843" x2="53.63" y2="-4.385"/>
		<line style="fill:none;stroke:#000000;stroke-width:0.3;" x1="56.44" y1="-3.638" x2="56.245" y2="-5.533"/>
		<line style="fill:none;stroke:#000000;stroke-width:0.3;" x1="49.802" y1="-21.765" x2="45.481" y2="-17.837"/>
		<line style="fill:none;stroke:#000000;stroke-width:0.3;" x1="48.16" y1="-18.968" x2="46.845" y2="-20.346"/>
		<line style="fill:none;stroke:#000000;stroke-width:0.3;" x1="59.124" y1="-18.971" x2="56.629" y2="-24.251"/>
		<line style="fill:none;stroke:#000000;stroke-width:0.3;" x1="56.928" y1="-21.359" x2="58.63" y2="-22.214"/>
		<line style="fill:none;stroke:#000000;stroke-width:0.3;" x1="84.353" y1="-11.034" x2="81.858" y2="-16.314"/>
		<line style="fill:none;stroke:#000000;stroke-width:0.3;" x1="82.157" y1="-13.421" x2="83.86" y2="-14.276"/>
		<line style="fill:none;stroke:#000000;stroke-width:0.3;" x1="76.131" y1="-37.661" x2="74.421" y2="-43.244"/>
		<line style="fill:none;stroke:#000000;stroke-width:0.3;" x1="74.301" y1="-40.339" x2="76.109" y2="-40.94"/>
		<line style="fill:none;stroke:#000000;stroke-width:0.3;" x1="81.589" y1="-39.857" x2="86.915" y2="-42.25"/>
		<line style="fill:none;stroke:#000000;stroke-width:0.3;" x1="84.017" y1="-42.006" x2="84.84" y2="-40.288"/>
		<line style="fill:none;stroke:#000000;stroke-width:0.3;" x1="81.806" y1="-27.629" x2="84.338" y2="-32.891"/>
		<line style="fill:none;stroke:#000000;stroke-width:0.3;" x1="82.279" y1="-30.838" x2="84.015" y2="-30.054"/>
		<line style="fill:none;stroke:#000000;stroke-width:0.3;" x1="67.509" y1="-36.048" x2="64.537" y2="-41.074"/>
		<line style="fill:none;stroke:#000000;stroke-width:0.3;" x1="65.102" y1="-38.222" x2="66.718" y2="-39.231"/>
		<line style="fill:none;stroke:#000000;stroke-width:0.3;" x1="22.613" y1="-34.883" x2="21.268" y2="-40.566"/>
		<line style="fill:none;stroke:#000000;stroke-width:0.3;" x1="20.96" y1="-37.674" x2="22.803" y2="-38.158"/>
		<line style="fill:none;stroke:#000000;stroke-width:0.3;" x1="78.242" y1="-11.161" x2="73.442" y2="-14.486"/>
		<line style="fill:none;stroke:#000000;stroke-width:0.3;" x1="75.147" y1="-12.131" x2="76.193" y2="-13.722"/>
		<line style="fill:none;stroke:#000000;stroke-width:0.3;" x1="86.179" y1="-2.598" x2="81.379" y2="-5.924"/>
		<line style="fill:none;stroke:#000000;stroke-width:0.3;" x1="83.084" y1="-3.568" x2="84.131" y2="-5.16"/>
		<line style="fill:none;stroke:#000000;stroke-width:0.3;" x1="68.528" y1="-22.788" x2="62.689" y2="-22.724"/>
		<line style="fill:none;stroke:#000000;stroke-width:0.3;" x1="65.443" y1="-21.789" x2="65.376" y2="-23.693"/>
		<line style="fill:none;stroke:#000000;stroke-width:0.3;" x1="55.028" y1="-26.726" x2="49.189" y2="-26.661"/>
		<line style="fill:none;stroke:#000000;stroke-width:0.3;" x1="51.943" y1="-25.726" x2="51.876" y2="-27.63"/>
		<line style="fill:none;stroke:#000000;stroke-width:0.3;" x1="77.466" y1="-3.309" x2="71.627" y2="-3.244"/>
		<line style="fill:none;stroke:#000000;stroke-width:0.3;" x1="74.38" y1="-2.31" x2="74.313" y2="-4.213"/>
		<line style="fill:none;stroke:#000000;stroke-width:0.3;" x1="50.929" y1="-12.667" x2="45.09" y2="-12.602"/>
		<line style="fill:none;stroke:#000000;stroke-width:0.3;" x1="47.844" y1="-11.667" x2="47.777" y2="-13.571"/>
	</g>
</svg>
