<?xml version="1.0"?>
<!-- Converted with SVG Converter - Version 0.9.5 (Compiled Fri Feb 21 09:53:38 2020) - Copyright (C) 2011 Nokia -->
<svg xmlns="http://www.w3.org/2000/svg" y="0px" baseProfile="tiny" version="1.1" width="86.25" viewBox="1.054 -87.25 86.25 86.25" height="86.25" x="0px" xml:space="preserve" xmlns:xlink="http://www.w3.org/1999/xlink">
 <g>
  <rect y="-87.25" width="86.25" height="86.25" x="1.054" style="fill:none;"/>
  <line y2="-84.562" x2="17.242" x1="13.304" y1="-80.25" style="fill:none;stroke:#000000;stroke-width:0.3;"/>
  <line y2="-81.938" x2="16.117" x1="14.679" y1="-83.188" style="fill:none;stroke:#000000;stroke-width:0.3;"/>
  <line y2="-86.347" x2="2.318" x1="6.319" y1="-82.093" style="fill:none;stroke:#000000;stroke-width:0.3;"/>
  <line y2="-85.026" x2="4.85" x1="3.494" y1="-83.688" style="fill:none;stroke:#000000;stroke-width:0.3;"/>
  <line y2="-76.85" x2="7.01" x1="1.6" y1="-74.651" style="fill:none;stroke:#000000;stroke-width:0.3;"/>
  <line y2="-74.964" x2="4.865" x1="4.105" y1="-76.711" style="fill:none;stroke:#000000;stroke-width:0.3;"/>
  <line y2="-57.028" x2="26.093" x1="20.683" y1="-54.83" style="fill:none;stroke:#000000;stroke-width:0.3;"/>
  <line y2="-55.143" x2="23.948" x1="23.189" y1="-56.89" style="fill:none;stroke:#000000;stroke-width:0.3;"/>
  <line y2="-74.891" x2="15.888" x1="10.16" y1="-73.751" style="fill:none;stroke:#000000;stroke-width:0.3;"/>
  <line y2="-73.444" x2="13.426" x1="13.009" y1="-75.302" style="fill:none;stroke:#000000;stroke-width:0.3;"/>
  <line y2="-75.5" x2="22.554" x1="18.838" y1="-70.995" style="fill:none;stroke:#000000;stroke-width:0.3;"/>
  <line y2="-72.822" x2="21.563" x1="20.064" y1="-73.998" style="fill:none;stroke:#000000;stroke-width:0.3;"/>
  <line y2="-58.313" x2="14.714" x1="10.998" y1="-53.809" style="fill:none;stroke:#000000;stroke-width:0.3;"/>
  <line y2="-55.635" x2="13.722" x1="12.224" y1="-56.812" style="fill:none;stroke:#000000;stroke-width:0.3;"/>
  <line y2="-77.598" x2="28.563" x1="32.421" y1="-73.214" style="fill:none;stroke:#000000;stroke-width:0.3;"/>
  <line y2="-76.194" x2="31.05" x1="29.651" y1="-74.901" style="fill:none;stroke:#000000;stroke-width:0.3;"/>
  <line y2="-47.202" x2="2.46" x1="7.567" y1="-50.032" style="fill:none;stroke:#000000;stroke-width:0.3;"/>
  <line y2="-49.33" x2="4.364" x1="5.327" y1="-47.687" style="fill:none;stroke:#000000;stroke-width:0.3;"/>
  <line y2="-67.095" x2="33.928" x1="31.879" y1="-61.627" style="fill:none;stroke:#000000;stroke-width:0.3;"/>
  <line y2="-64.24" x2="33.861" x1="32.061" y1="-64.865" style="fill:none;stroke:#000000;stroke-width:0.3;"/>
  <line y2="-51.408" x2="23.14" x1="21.091" y1="-45.94" style="fill:none;stroke:#000000;stroke-width:0.3;"/>
  <line y2="-48.553" x2="23.073" x1="21.274" y1="-49.178" style="fill:none;stroke:#000000;stroke-width:0.3;"/>
  <line y2="-65.573" x2="37.047" x1="42.868" y1="-66.031" style="fill:none;stroke:#000000;stroke-width:0.3;"/>
  <line y2="-66.72" x2="39.662" x1="39.857" y1="-64.826" style="fill:none;stroke:#000000;stroke-width:0.3;"/>
  <line y2="-47.635" x2="10.422" x1="16.243" y1="-48.093" style="fill:none;stroke:#000000;stroke-width:0.3;"/>
  <line y2="-48.783" x2="13.037" x1="13.232" y1="-46.888" style="fill:none;stroke:#000000;stroke-width:0.3;"/>
  <line y2="-63.649" x2="3.148" x1="7.469" y1="-67.577" style="fill:none;stroke:#000000;stroke-width:0.3;"/>
  <line y2="-66.158" x2="4.512" x1="5.827" y1="-64.78" style="fill:none;stroke:#000000;stroke-width:0.3;"/>
  <line y2="-67.189" x2="12.233" x1="14.728" y1="-61.909" style="fill:none;stroke:#000000;stroke-width:0.3;"/>
  <line y2="-65.151" x2="14.235" x1="12.532" y1="-64.296" style="fill:none;stroke:#000000;stroke-width:0.3;"/>
  <line y2="-59.564" x2="38.65" x1="41.144" y1="-54.284" style="fill:none;stroke:#000000;stroke-width:0.3;"/>
  <line y2="-57.526" x2="40.651" x1="38.949" y1="-56.671" style="fill:none;stroke:#000000;stroke-width:0.3;"/>
  <line y2="-86.494" x2="31.213" x1="32.923" y1="-80.911" style="fill:none;stroke:#000000;stroke-width:0.3;"/>
  <line y2="-84.19" x2="32.9" x1="31.093" y1="-83.589" style="fill:none;stroke:#000000;stroke-width:0.3;"/>
  <line y2="-85.5" x2="43.707" x1="38.38" y1="-83.107" style="fill:none;stroke:#000000;stroke-width:0.3;"/>
  <line y2="-83.538" x2="41.632" x1="40.809" y1="-85.256" style="fill:none;stroke:#000000;stroke-width:0.3;"/>
  <line y2="-76.141" x2="41.13" x1="38.598" y1="-70.879" style="fill:none;stroke:#000000;stroke-width:0.3;"/>
  <line y2="-73.304" x2="40.807" x1="39.071" y1="-74.088" style="fill:none;stroke:#000000;stroke-width:0.3;"/>
  <line y2="-84.324" x2="21.328" x1="24.301" y1="-79.298" style="fill:none;stroke:#000000;stroke-width:0.3;"/>
  <line y2="-82.481" x2="23.51" x1="21.894" y1="-81.472" style="fill:none;stroke:#000000;stroke-width:0.3;"/>
  <line y2="-57.736" x2="30.233" x1="35.033" y1="-54.411" style="fill:none;stroke:#000000;stroke-width:0.3;"/>
  <line y2="-56.972" x2="32.985" x1="31.938" y1="-55.381" style="fill:none;stroke:#000000;stroke-width:0.3;"/>
  <line y2="-49.826" x2="35.755" x1="40.554" y1="-46.5" style="fill:none;stroke:#000000;stroke-width:0.3;"/>
  <line y2="-49.062" x2="38.506" x1="37.46" y1="-47.47" style="fill:none;stroke:#000000;stroke-width:0.3;"/>
  <line y2="-62.301" x2="18.715" x1="24.554" y1="-62.366" style="fill:none;stroke:#000000;stroke-width:0.3;"/>
  <line y2="-63.271" x2="21.402" x1="21.469" y1="-61.367" style="fill:none;stroke:#000000;stroke-width:0.3;"/>
  <line y2="-47.435" x2="26.465" x1="32.304" y1="-47.5" style="fill:none;stroke:#000000;stroke-width:0.3;"/>
  <line y2="-48.404" x2="29.152" x1="29.219" y1="-46.501" style="fill:none;stroke:#000000;stroke-width:0.3;"/>
  <line y2="-55.852" x2="1.882" x1="7.721" y1="-55.917" style="fill:none;stroke:#000000;stroke-width:0.3;"/>
  <line y2="-56.821" x2="4.569" x1="4.636" y1="-54.917" style="fill:none;stroke:#000000;stroke-width:0.3;"/>
  <line y2="-83.354" x2="59.909" x1="55.971" y1="-79.042" style="fill:none;stroke:#000000;stroke-width:0.3;"/>
  <line y2="-80.729" x2="58.784" x1="57.346" y1="-81.979" style="fill:none;stroke:#000000;stroke-width:0.3;"/>
  <line y2="-86.347" x2="45.568" x1="49.569" y1="-82.093" style="fill:none;stroke:#000000;stroke-width:0.3;"/>
  <line y2="-85.026" x2="48.1" x1="46.744" y1="-83.688" style="fill:none;stroke:#000000;stroke-width:0.3;"/>
  <line y2="-77.912" x2="50.198" x1="44.787" y1="-75.714" style="fill:none;stroke:#000000;stroke-width:0.3;"/>
  <line y2="-76.027" x2="48.052" x1="47.293" y1="-77.774" style="fill:none;stroke:#000000;stroke-width:0.3;"/>
  <line y2="-60.287" x2="68.781" x1="63.371" y1="-58.089" style="fill:none;stroke:#000000;stroke-width:0.3;"/>
  <line y2="-58.402" x2="66.636" x1="65.876" y1="-60.149" style="fill:none;stroke:#000000;stroke-width:0.3;"/>
  <line y2="-76.233" x2="59.553" x1="56.046" y1="-71.564" style="fill:none;stroke:#000000;stroke-width:0.3;"/>
  <line y2="-73.512" x2="58.684" x1="57.134" y1="-74.619" style="fill:none;stroke:#000000;stroke-width:0.3;"/>
  <line y2="-76.188" x2="68.006" x1="64.289" y1="-71.684" style="fill:none;stroke:#000000;stroke-width:0.3;"/>
  <line y2="-73.51" x2="67.014" x1="65.515" y1="-74.687" style="fill:none;stroke:#000000;stroke-width:0.3;"/>
  <line y2="-58.313" x2="57.397" x1="53.681" y1="-53.809" style="fill:none;stroke:#000000;stroke-width:0.3;"/>
  <line y2="-55.635" x2="56.405" x1="54.907" y1="-56.812" style="fill:none;stroke:#000000;stroke-width:0.3;"/>
  <line y2="-77.598" x2="71.813" x1="75.671" y1="-73.214" style="fill:none;stroke:#000000;stroke-width:0.3;"/>
  <line y2="-76.194" x2="74.3" x1="72.901" y1="-74.901" style="fill:none;stroke:#000000;stroke-width:0.3;"/>
  <line y2="-50.494" x2="47.918" x1="48.352" y1="-44.671" style="fill:none;stroke:#000000;stroke-width:0.3;"/>
  <line y2="-47.875" x2="49.055" x1="47.159" y1="-47.687" style="fill:none;stroke:#000000;stroke-width:0.3;"/>
  <line y2="-70.067" x2="24.413" x1="28.271" y1="-65.683" style="fill:none;stroke:#000000;stroke-width:0.3;"/>
  <line y2="-68.663" x2="26.9" x1="25.501" y1="-67.37" style="fill:none;stroke:#000000;stroke-width:0.3;"/>
  <line y2="-67.095" x2="76.327" x1="74.279" y1="-61.627" style="fill:none;stroke:#000000;stroke-width:0.3;"/>
  <line y2="-64.24" x2="76.26" x1="74.461" y1="-64.865" style="fill:none;stroke:#000000;stroke-width:0.3;"/>
  <line y2="-50.095" x2="68.952" x1="66.904" y1="-44.627" style="fill:none;stroke:#000000;stroke-width:0.3;"/>
  <line y2="-47.24" x2="68.885" x1="67.086" y1="-47.865" style="fill:none;stroke:#000000;stroke-width:0.3;"/>
  <line y2="-65.573" x2="80.297" x1="86.118" y1="-66.031" style="fill:none;stroke:#000000;stroke-width:0.3;"/>
  <line y2="-66.72" x2="82.912" x1="83.107" y1="-64.826" style="fill:none;stroke:#000000;stroke-width:0.3;"/>
  <line y2="-44.339" x2="56.217" x1="57.168" y1="-50.1" style="fill:none;stroke:#000000;stroke-width:0.3;"/>
  <line y2="-47.153" x2="55.73" x1="57.616" y1="-46.888" style="fill:none;stroke:#000000;stroke-width:0.3;"/>
  <line y2="-63.649" x2="46.398" x1="50.719" y1="-67.577" style="fill:none;stroke:#000000;stroke-width:0.3;"/>
  <line y2="-66.158" x2="47.762" x1="49.077" y1="-64.78" style="fill:none;stroke:#000000;stroke-width:0.3;"/>
  <line y2="-67.189" x2="55.483" x1="57.978" y1="-61.909" style="fill:none;stroke:#000000;stroke-width:0.3;"/>
  <line y2="-65.151" x2="57.485" x1="55.782" y1="-64.296" style="fill:none;stroke:#000000;stroke-width:0.3;"/>
  <line y2="-59.564" x2="81.9" x1="84.394" y1="-54.284" style="fill:none;stroke:#000000;stroke-width:0.3;"/>
  <line y2="-57.526" x2="83.901" x1="82.199" y1="-56.671" style="fill:none;stroke:#000000;stroke-width:0.3;"/>
  <line y2="-86.494" x2="74.463" x1="76.173" y1="-80.911" style="fill:none;stroke:#000000;stroke-width:0.3;"/>
  <line y2="-84.19" x2="76.15" x1="74.343" y1="-83.589" style="fill:none;stroke:#000000;stroke-width:0.3;"/>
  <line y2="-85.5" x2="86.957" x1="81.63" y1="-83.107" style="fill:none;stroke:#000000;stroke-width:0.3;"/>
  <line y2="-83.538" x2="84.882" x1="84.059" y1="-85.256" style="fill:none;stroke:#000000;stroke-width:0.3;"/>
  <line y2="-76.141" x2="84.38" x1="81.848" y1="-70.879" style="fill:none;stroke:#000000;stroke-width:0.3;"/>
  <line y2="-73.304" x2="84.057" x1="82.321" y1="-74.088" style="fill:none;stroke:#000000;stroke-width:0.3;"/>
  <line y2="-84.324" x2="64.578" x1="67.55" y1="-79.298" style="fill:none;stroke:#000000;stroke-width:0.3;"/>
  <line y2="-82.481" x2="66.759" x1="65.144" y1="-81.472" style="fill:none;stroke:#000000;stroke-width:0.3;"/>
  <line y2="-56.549" x2="71.108" x1="75.908" y1="-53.223" style="fill:none;stroke:#000000;stroke-width:0.3;"/>
  <line y2="-55.785" x2="73.86" x1="72.813" y1="-54.193" style="fill:none;stroke:#000000;stroke-width:0.3;"/>
  <line y2="-49.174" x2="81.421" x1="86.221" y1="-45.848" style="fill:none;stroke:#000000;stroke-width:0.3;"/>
  <line y2="-48.41" x2="84.173" x1="83.126" y1="-46.818" style="fill:none;stroke:#000000;stroke-width:0.3;"/>
  <line y2="-65.974" x2="62.731" x1="68.57" y1="-66.038" style="fill:none;stroke:#000000;stroke-width:0.3;"/>
  <line y2="-66.943" x2="65.417" x1="65.484" y1="-65.039" style="fill:none;stroke:#000000;stroke-width:0.3;"/>
  <line y2="-49.435" x2="72.215" x1="78.054" y1="-49.5" style="fill:none;stroke:#000000;stroke-width:0.3;"/>
  <line y2="-50.404" x2="74.902" x1="74.969" y1="-48.501" style="fill:none;stroke:#000000;stroke-width:0.3;"/>
  <line y2="-55.852" x2="45.132" x1="50.971" y1="-55.917" style="fill:none;stroke:#000000;stroke-width:0.3;"/>
  <line y2="-56.821" x2="47.819" x1="47.886" y1="-54.917" style="fill:none;stroke:#000000;stroke-width:0.3;"/>
  <line y2="-42.979" x2="17.221" x1="13.284" y1="-38.667" style="fill:none;stroke:#000000;stroke-width:0.3;"/>
  <line y2="-40.354" x2="16.096" x1="14.659" y1="-41.604" style="fill:none;stroke:#000000;stroke-width:0.3;"/>
  <line y2="-43.097" x2="2.318" x1="6.319" y1="-38.843" style="fill:none;stroke:#000000;stroke-width:0.3;"/>
  <line y2="-41.776" x2="4.85" x1="3.494" y1="-40.438" style="fill:none;stroke:#000000;stroke-width:0.3;"/>
  <line y2="-33.599" x2="7.01" x1="1.6" y1="-31.402" style="fill:none;stroke:#000000;stroke-width:0.3;"/>
  <line y2="-31.714" x2="4.865" x1="4.105" y1="-33.461" style="fill:none;stroke:#000000;stroke-width:0.3;"/>
  <line y2="-14.912" x2="26.093" x1="20.683" y1="-12.714" style="fill:none;stroke:#000000;stroke-width:0.3;"/>
  <line y2="-13.027" x2="23.948" x1="23.189" y1="-14.774" style="fill:none;stroke:#000000;stroke-width:0.3;"/>
  <line y2="-31.5" x2="14.554" x1="8.827" y1="-30.36" style="fill:none;stroke:#000000;stroke-width:0.3;"/>
  <line y2="-30.052" x2="12.093" x1="11.676" y1="-31.911" style="fill:none;stroke:#000000;stroke-width:0.3;"/>
  <line y2="-31.5" x2="21.304" x1="17.588" y1="-26.996" style="fill:none;stroke:#000000;stroke-width:0.3;"/>
  <line y2="-28.822" x2="20.313" x1="18.814" y1="-29.998" style="fill:none;stroke:#000000;stroke-width:0.3;"/>
  <line y2="-15.064" x2="14.714" x1="10.998" y1="-10.559" style="fill:none;stroke:#000000;stroke-width:0.3;"/>
  <line y2="-12.385" x2="13.722" x1="12.224" y1="-13.562" style="fill:none;stroke:#000000;stroke-width:0.3;"/>
  <line y2="-32.634" x2="26.697" x1="30.554" y1="-28.25" style="fill:none;stroke:#000000;stroke-width:0.3;"/>
  <line y2="-31.229" x2="29.184" x1="27.784" y1="-29.937" style="fill:none;stroke:#000000;stroke-width:0.3;"/>
  <line y2="-7.134" x2="2.822" x1="6.679" y1="-2.75" style="fill:none;stroke:#000000;stroke-width:0.3;"/>
  <line y2="-5.729" x2="5.308" x1="3.909" y1="-4.437" style="fill:none;stroke:#000000;stroke-width:0.3;"/>
  <line y2="-24.218" x2="32.103" x1="30.054" y1="-18.75" style="fill:none;stroke:#000000;stroke-width:0.3;"/>
  <line y2="-21.363" x2="32.036" x1="30.237" y1="-21.988" style="fill:none;stroke:#000000;stroke-width:0.3;"/>
  <line y2="-8.158" x2="23.14" x1="21.091" y1="-2.69" style="fill:none;stroke:#000000;stroke-width:0.3;"/>
  <line y2="-5.303" x2="23.073" x1="21.274" y1="-5.928" style="fill:none;stroke:#000000;stroke-width:0.3;"/>
  <line y2="-24.465" x2="37.262" x1="39.808" y1="-19.21" style="fill:none;stroke:#000000;stroke-width:0.3;"/>
  <line y2="-22.448" x2="39.283" x1="37.589" y1="-21.576" style="fill:none;stroke:#000000;stroke-width:0.3;"/>
  <line y2="-4.385" x2="10.422" x1="16.243" y1="-4.843" style="fill:none;stroke:#000000;stroke-width:0.3;"/>
  <line y2="-5.533" x2="13.037" x1="13.232" y1="-3.638" style="fill:none;stroke:#000000;stroke-width:0.3;"/>
  <line y2="-20.399" x2="3.148" x1="7.469" y1="-24.327" style="fill:none;stroke:#000000;stroke-width:0.3;"/>
  <line y2="-22.908" x2="4.512" x1="5.827" y1="-21.53" style="fill:none;stroke:#000000;stroke-width:0.3;"/>
  <line y2="-23.939" x2="12.233" x1="14.728" y1="-18.659" style="fill:none;stroke:#000000;stroke-width:0.3;"/>
  <line y2="-21.901" x2="14.235" x1="12.532" y1="-21.046" style="fill:none;stroke:#000000;stroke-width:0.3;"/>
  <line y2="-15.795" x2="40.629" x1="39.029" y1="-10.179" style="fill:none;stroke:#000000;stroke-width:0.3;"/>
  <line y2="-12.944" x2="40.793" x1="38.949" y1="-13.421" style="fill:none;stroke:#000000;stroke-width:0.3;"/>
  <line y2="-43.334" x2="38.345" x1="40.054" y1="-37.75" style="fill:none;stroke:#000000;stroke-width:0.3;"/>
  <line y2="-41.03" x2="40.032" x1="38.225" y1="-40.428" style="fill:none;stroke:#000000;stroke-width:0.3;"/>
  <line y2="-39.5" x2="34.304" x1="28.978" y1="-37.107" style="fill:none;stroke:#000000;stroke-width:0.3;"/>
  <line y2="-37.538" x2="32.229" x1="31.407" y1="-39.256" style="fill:none;stroke:#000000;stroke-width:0.3;"/>
  <line y2="-31.908" x2="40.257" x1="34.557" y1="-30.64" style="fill:none;stroke:#000000;stroke-width:0.3;"/>
  <line y2="-30.406" x2="37.828" x1="37.37" y1="-32.255" style="fill:none;stroke:#000000;stroke-width:0.3;"/>
  <line y2="-12.825" x2="29.004" x1="33.804" y1="-9.5" style="fill:none;stroke:#000000;stroke-width:0.3;"/>
  <line y2="-12.062" x2="31.756" x1="30.71" y1="-10.47" style="fill:none;stroke:#000000;stroke-width:0.3;"/>
  <line y2="-54.826" x2="60.005" x1="64.804" y1="-51.5" style="fill:none;stroke:#000000;stroke-width:0.3;"/>
  <line y2="-54.062" x2="62.756" x1="61.71" y1="-52.47" style="fill:none;stroke:#000000;stroke-width:0.3;"/>
  <line y2="-5.924" x2="38.171" x1="42.971" y1="-2.598" style="fill:none;stroke:#000000;stroke-width:0.3;"/>
  <line y2="-5.16" x2="40.923" x1="39.876" y1="-3.568" style="fill:none;stroke:#000000;stroke-width:0.3;"/>
  <line y2="-22.724" x2="19.481" x1="25.32" y1="-22.788" style="fill:none;stroke:#000000;stroke-width:0.3;"/>
  <line y2="-23.693" x2="22.167" x1="22.235" y1="-21.789" style="fill:none;stroke:#000000;stroke-width:0.3;"/>
  <line y2="-3.244" x2="28.418" x1="34.257" y1="-3.309" style="fill:none;stroke:#000000;stroke-width:0.3;"/>
  <line y2="-4.213" x2="31.105" x1="31.172" y1="-2.31" style="fill:none;stroke:#000000;stroke-width:0.3;"/>
  <line y2="-12.602" x2="1.882" x1="7.721" y1="-12.667" style="fill:none;stroke:#000000;stroke-width:0.3;"/>
  <line y2="-13.571" x2="4.569" x1="4.636" y1="-11.667" style="fill:none;stroke:#000000;stroke-width:0.3;"/>
  <line y2="-40.854" x2="57.867" x1="53.929" y1="-36.542" style="fill:none;stroke:#000000;stroke-width:0.3;"/>
  <line y2="-38.229" x2="56.742" x1="55.304" y1="-39.479" style="fill:none;stroke:#000000;stroke-width:0.3;"/>
  <line y2="-41.396" x2="45.526" x1="49.527" y1="-37.143" style="fill:none;stroke:#000000;stroke-width:0.3;"/>
  <line y2="-40.075" x2="48.058" x1="46.703" y1="-38.737" style="fill:none;stroke:#000000;stroke-width:0.3;"/>
  <line y2="-33.806" x2="47.294" x1="44.651" y1="-28.598" style="fill:none;stroke:#000000;stroke-width:0.3;"/>
  <line y2="-30.976" x2="46.91" x1="45.191" y1="-31.796" style="fill:none;stroke:#000000;stroke-width:0.3;"/>
  <line y2="-14.912" x2="69.302" x1="63.892" y1="-12.714" style="fill:none;stroke:#000000;stroke-width:0.3;"/>
  <line y2="-13.027" x2="67.157" x1="66.397" y1="-14.774" style="fill:none;stroke:#000000;stroke-width:0.3;"/>
  <line y2="-32.954" x2="61.221" x1="55.494" y1="-31.814" style="fill:none;stroke:#000000;stroke-width:0.3;"/>
  <line y2="-31.506" x2="58.759" x1="58.342" y1="-33.365" style="fill:none;stroke:#000000;stroke-width:0.3;"/>
  <line y2="-32.938" x2="67.964" x1="64.248" y1="-28.434" style="fill:none;stroke:#000000;stroke-width:0.3;"/>
  <line y2="-30.26" x2="66.972" x1="65.474" y1="-31.437" style="fill:none;stroke:#000000;stroke-width:0.3;"/>
  <line y2="-15.064" x2="57.922" x1="54.206" y1="-10.559" style="fill:none;stroke:#000000;stroke-width:0.3;"/>
  <line y2="-12.385" x2="56.93" x1="55.432" y1="-13.562" style="fill:none;stroke:#000000;stroke-width:0.3;"/>
  <line y2="-34.348" x2="71.772" x1="75.629" y1="-29.964" style="fill:none;stroke:#000000;stroke-width:0.3;"/>
  <line y2="-32.944" x2="74.258" x1="72.859" y1="-31.651" style="fill:none;stroke:#000000;stroke-width:0.3;"/>
  <line y2="-7.134" x2="46.03" x1="49.888" y1="-2.75" style="fill:none;stroke:#000000;stroke-width:0.3;"/>
  <line y2="-5.729" x2="48.517" x1="47.118" y1="-4.437" style="fill:none;stroke:#000000;stroke-width:0.3;"/>
  <line y2="-23.845" x2="76.285" x1="74.237" y1="-18.377" style="fill:none;stroke:#000000;stroke-width:0.3;"/>
  <line y2="-20.99" x2="76.219" x1="74.419" y1="-21.615" style="fill:none;stroke:#000000;stroke-width:0.3;"/>
  <line y2="-8.158" x2="66.348" x1="64.299" y1="-2.69" style="fill:none;stroke:#000000;stroke-width:0.3;"/>
  <line y2="-5.303" x2="66.281" x1="64.482" y1="-5.928" style="fill:none;stroke:#000000;stroke-width:0.3;"/>
  <line y2="-22.323" x2="80.255" x1="86.076" y1="-22.781" style="fill:none;stroke:#000000;stroke-width:0.3;"/>
  <line y2="-23.471" x2="82.87" x1="83.065" y1="-21.576" style="fill:none;stroke:#000000;stroke-width:0.3;"/>
  <line y2="-4.385" x2="53.63" x1="59.451" y1="-4.843" style="fill:none;stroke:#000000;stroke-width:0.3;"/>
  <line y2="-5.533" x2="56.245" x1="56.44" y1="-3.638" style="fill:none;stroke:#000000;stroke-width:0.3;"/>
  <line y2="-17.837" x2="45.481" x1="49.802" y1="-21.765" style="fill:none;stroke:#000000;stroke-width:0.3;"/>
  <line y2="-20.346" x2="46.845" x1="48.16" y1="-18.968" style="fill:none;stroke:#000000;stroke-width:0.3;"/>
  <line y2="-24.251" x2="56.629" x1="59.124" y1="-18.971" style="fill:none;stroke:#000000;stroke-width:0.3;"/>
  <line y2="-22.214" x2="58.63" x1="56.928" y1="-21.359" style="fill:none;stroke:#000000;stroke-width:0.3;"/>
  <line y2="-16.314" x2="81.858" x1="84.353" y1="-11.034" style="fill:none;stroke:#000000;stroke-width:0.3;"/>
  <line y2="-14.276" x2="83.86" x1="82.157" y1="-13.421" style="fill:none;stroke:#000000;stroke-width:0.3;"/>
  <line y2="-43.244" x2="74.421" x1="76.131" y1="-37.661" style="fill:none;stroke:#000000;stroke-width:0.3;"/>
  <line y2="-40.94" x2="76.109" x1="74.301" y1="-40.339" style="fill:none;stroke:#000000;stroke-width:0.3;"/>
  <line y2="-42.25" x2="86.915" x1="81.589" y1="-39.857" style="fill:none;stroke:#000000;stroke-width:0.3;"/>
  <line y2="-40.288" x2="84.84" x1="84.017" y1="-42.006" style="fill:none;stroke:#000000;stroke-width:0.3;"/>
  <line y2="-32.891" x2="84.338" x1="81.806" y1="-27.629" style="fill:none;stroke:#000000;stroke-width:0.3;"/>
  <line y2="-30.054" x2="84.015" x1="82.279" y1="-30.838" style="fill:none;stroke:#000000;stroke-width:0.3;"/>
  <line y2="-41.074" x2="64.537" x1="67.509" y1="-36.048" style="fill:none;stroke:#000000;stroke-width:0.3;"/>
  <line y2="-39.231" x2="66.718" x1="65.102" y1="-38.222" style="fill:none;stroke:#000000;stroke-width:0.3;"/>
  <line y2="-40.566" x2="21.268" x1="22.613" y1="-34.883" style="fill:none;stroke:#000000;stroke-width:0.3;"/>
  <line y2="-38.158" x2="22.803" x1="20.96" y1="-37.674" style="fill:none;stroke:#000000;stroke-width:0.3;"/>
  <line y2="-14.486" x2="73.442" x1="78.242" y1="-11.161" style="fill:none;stroke:#000000;stroke-width:0.3;"/>
  <line y2="-13.722" x2="76.193" x1="75.147" y1="-12.131" style="fill:none;stroke:#000000;stroke-width:0.3;"/>
  <line y2="-5.924" x2="81.379" x1="86.179" y1="-2.598" style="fill:none;stroke:#000000;stroke-width:0.3;"/>
  <line y2="-5.16" x2="84.131" x1="83.084" y1="-3.568" style="fill:none;stroke:#000000;stroke-width:0.3;"/>
  <line y2="-22.724" x2="62.689" x1="68.528" y1="-22.788" style="fill:none;stroke:#000000;stroke-width:0.3;"/>
  <line y2="-23.693" x2="65.376" x1="65.443" y1="-21.789" style="fill:none;stroke:#000000;stroke-width:0.3;"/>
  <line y2="-26.661" x2="49.189" x1="55.028" y1="-26.726" style="fill:none;stroke:#000000;stroke-width:0.3;"/>
  <line y2="-27.63" x2="51.876" x1="51.943" y1="-25.726" style="fill:none;stroke:#000000;stroke-width:0.3;"/>
  <line y2="-3.244" x2="71.627" x1="77.466" y1="-3.309" style="fill:none;stroke:#000000;stroke-width:0.3;"/>
  <line y2="-4.213" x2="74.313" x1="74.38" y1="-2.31" style="fill:none;stroke:#000000;stroke-width:0.3;"/>
  <line y2="-12.602" x2="45.09" x1="50.929" y1="-12.667" style="fill:none;stroke:#000000;stroke-width:0.3;"/>
  <line y2="-13.571" x2="47.777" x1="47.844" y1="-11.667" style="fill:none;stroke:#000000;stroke-width:0.3;"/>
 </g>
</svg>
