<?xml version="1.0"?>
<!-- Converted with SVG Converter - Version 0.9.5 (Compiled Fri Feb 21 09:53:38 2020) - Copyright (C) 2011 Nokia -->
<svg xmlns="http://www.w3.org/2000/svg" y="0px" width="85.058" xml:space="preserve" x="0px" viewBox="1 -86.042 85.058 85.042" version="1.1" baseProfile="tiny" xmlns:xlink="http://www.w3.org/1999/xlink" height="85.042">
 <g>
  <rect y="-86.042" width="85.058" style="fill:none;" x="1" height="85.042"/>
  <line x2="30.229" x1="24.896" y2="-72.688" style="fill:none;stroke:#000000;stroke-width:0.3;" y1="-67.438"/>
  <line x2="28.938" x1="27" y2="-69.417" style="fill:none;stroke:#000000;stroke-width:0.3;" y1="-71.417"/>
  <line x2="28.062" x1="26.125" y2="-68.542" style="fill:none;stroke:#000000;stroke-width:0.3;" y1="-70.479"/>
  <line x2="40.896" x1="35.562" y2="-72.688" style="fill:none;stroke:#000000;stroke-width:0.3;" y1="-67.438"/>
  <line x2="39.604" x1="37.667" y2="-69.417" style="fill:none;stroke:#000000;stroke-width:0.3;" y1="-71.417"/>
  <line x2="38.729" x1="36.792" y2="-68.542" style="fill:none;stroke:#000000;stroke-width:0.3;" y1="-70.479"/>
  <line x2="19.646" x1="14.312" y2="-72.688" style="fill:none;stroke:#000000;stroke-width:0.3;" y1="-67.438"/>
  <line x2="18.354" x1="16.417" y2="-69.417" style="fill:none;stroke:#000000;stroke-width:0.3;" y1="-71.417"/>
  <line x2="17.479" x1="15.542" y2="-68.542" style="fill:none;stroke:#000000;stroke-width:0.3;" y1="-70.479"/>
  <line x2="9.021" x1="3.688" y2="-72.688" style="fill:none;stroke:#000000;stroke-width:0.3;" y1="-67.438"/>
  <line x2="7.729" x1="5.792" y2="-69.417" style="fill:none;stroke:#000000;stroke-width:0.3;" y1="-71.417"/>
  <line x2="6.854" x1="4.917" y2="-68.542" style="fill:none;stroke:#000000;stroke-width:0.3;" y1="-70.479"/>
  <line x2="30.229" x1="24.896" y2="-83.312" style="fill:none;stroke:#000000;stroke-width:0.3;" y1="-78.062"/>
  <line x2="28.938" x1="27" y2="-80.042" style="fill:none;stroke:#000000;stroke-width:0.3;" y1="-82.042"/>
  <line x2="28.062" x1="26.125" y2="-79.167" style="fill:none;stroke:#000000;stroke-width:0.3;" y1="-81.104"/>
  <line x2="40.896" x1="35.562" y2="-83.312" style="fill:none;stroke:#000000;stroke-width:0.3;" y1="-78.062"/>
  <line x2="39.604" x1="37.667" y2="-80.042" style="fill:none;stroke:#000000;stroke-width:0.3;" y1="-82.042"/>
  <line x2="38.729" x1="36.792" y2="-79.167" style="fill:none;stroke:#000000;stroke-width:0.3;" y1="-81.104"/>
  <line x2="19.646" x1="14.312" y2="-83.312" style="fill:none;stroke:#000000;stroke-width:0.3;" y1="-78.062"/>
  <line x2="18.354" x1="16.417" y2="-80.042" style="fill:none;stroke:#000000;stroke-width:0.3;" y1="-82.042"/>
  <line x2="17.479" x1="15.542" y2="-79.167" style="fill:none;stroke:#000000;stroke-width:0.3;" y1="-81.104"/>
  <line x2="9.021" x1="3.688" y2="-83.312" style="fill:none;stroke:#000000;stroke-width:0.3;" y1="-78.062"/>
  <line x2="7.729" x1="5.792" y2="-80.042" style="fill:none;stroke:#000000;stroke-width:0.3;" y1="-82.042"/>
  <line x2="6.854" x1="4.917" y2="-79.167" style="fill:none;stroke:#000000;stroke-width:0.3;" y1="-81.104"/>
  <line x2="30.229" x1="24.896" y2="-62.021" style="fill:none;stroke:#000000;stroke-width:0.3;" y1="-56.771"/>
  <line x2="28.938" x1="27" y2="-58.75" style="fill:none;stroke:#000000;stroke-width:0.3;" y1="-60.75"/>
  <line x2="28.062" x1="26.125" y2="-57.875" style="fill:none;stroke:#000000;stroke-width:0.3;" y1="-59.812"/>
  <line x2="40.896" x1="35.562" y2="-62.021" style="fill:none;stroke:#000000;stroke-width:0.3;" y1="-56.771"/>
  <line x2="39.604" x1="37.667" y2="-58.75" style="fill:none;stroke:#000000;stroke-width:0.3;" y1="-60.75"/>
  <line x2="38.729" x1="36.792" y2="-57.875" style="fill:none;stroke:#000000;stroke-width:0.3;" y1="-59.812"/>
  <line x2="19.646" x1="14.312" y2="-62.021" style="fill:none;stroke:#000000;stroke-width:0.3;" y1="-56.771"/>
  <line x2="18.354" x1="16.417" y2="-58.75" style="fill:none;stroke:#000000;stroke-width:0.3;" y1="-60.75"/>
  <line x2="17.479" x1="15.542" y2="-57.875" style="fill:none;stroke:#000000;stroke-width:0.3;" y1="-59.812"/>
  <line x2="9.021" x1="3.688" y2="-62.021" style="fill:none;stroke:#000000;stroke-width:0.3;" y1="-56.771"/>
  <line x2="7.729" x1="5.792" y2="-58.75" style="fill:none;stroke:#000000;stroke-width:0.3;" y1="-60.75"/>
  <line x2="6.854" x1="4.917" y2="-57.875" style="fill:none;stroke:#000000;stroke-width:0.3;" y1="-59.812"/>
  <line x2="30.229" x1="24.896" y2="-51.521" style="fill:none;stroke:#000000;stroke-width:0.3;" y1="-46.271"/>
  <line x2="28.938" x1="27" y2="-48.25" style="fill:none;stroke:#000000;stroke-width:0.3;" y1="-50.25"/>
  <line x2="28.062" x1="26.125" y2="-47.375" style="fill:none;stroke:#000000;stroke-width:0.3;" y1="-49.312"/>
  <line x2="40.896" x1="35.562" y2="-51.521" style="fill:none;stroke:#000000;stroke-width:0.3;" y1="-46.271"/>
  <line x2="39.604" x1="37.667" y2="-48.25" style="fill:none;stroke:#000000;stroke-width:0.3;" y1="-50.25"/>
  <line x2="38.729" x1="36.792" y2="-47.375" style="fill:none;stroke:#000000;stroke-width:0.3;" y1="-49.312"/>
  <line x2="19.646" x1="14.312" y2="-51.521" style="fill:none;stroke:#000000;stroke-width:0.3;" y1="-46.271"/>
  <line x2="18.354" x1="16.417" y2="-48.25" style="fill:none;stroke:#000000;stroke-width:0.3;" y1="-50.25"/>
  <line x2="17.479" x1="15.542" y2="-47.375" style="fill:none;stroke:#000000;stroke-width:0.3;" y1="-49.312"/>
  <line x2="9.021" x1="3.688" y2="-51.521" style="fill:none;stroke:#000000;stroke-width:0.3;" y1="-46.271"/>
  <line x2="7.729" x1="5.792" y2="-48.25" style="fill:none;stroke:#000000;stroke-width:0.3;" y1="-50.25"/>
  <line x2="6.854" x1="4.917" y2="-47.375" style="fill:none;stroke:#000000;stroke-width:0.3;" y1="-49.312"/>
  <line x2="72.787" x1="67.454" y2="-72.688" style="fill:none;stroke:#000000;stroke-width:0.3;" y1="-67.438"/>
  <line x2="71.496" x1="69.558" y2="-69.417" style="fill:none;stroke:#000000;stroke-width:0.3;" y1="-71.417"/>
  <line x2="70.621" x1="68.683" y2="-68.542" style="fill:none;stroke:#000000;stroke-width:0.3;" y1="-70.479"/>
  <line x2="83.454" x1="78.121" y2="-72.688" style="fill:none;stroke:#000000;stroke-width:0.3;" y1="-67.438"/>
  <line x2="82.162" x1="80.225" y2="-69.417" style="fill:none;stroke:#000000;stroke-width:0.3;" y1="-71.417"/>
  <line x2="81.287" x1="79.35" y2="-68.542" style="fill:none;stroke:#000000;stroke-width:0.3;" y1="-70.479"/>
  <line x2="62.204" x1="56.871" y2="-72.688" style="fill:none;stroke:#000000;stroke-width:0.3;" y1="-67.438"/>
  <line x2="60.912" x1="58.975" y2="-69.417" style="fill:none;stroke:#000000;stroke-width:0.3;" y1="-71.417"/>
  <line x2="60.037" x1="58.1" y2="-68.542" style="fill:none;stroke:#000000;stroke-width:0.3;" y1="-70.479"/>
  <line x2="51.579" x1="46.246" y2="-72.688" style="fill:none;stroke:#000000;stroke-width:0.3;" y1="-67.438"/>
  <line x2="50.287" x1="48.35" y2="-69.417" style="fill:none;stroke:#000000;stroke-width:0.3;" y1="-71.417"/>
  <line x2="49.412" x1="47.475" y2="-68.542" style="fill:none;stroke:#000000;stroke-width:0.3;" y1="-70.479"/>
  <line x2="72.787" x1="67.454" y2="-83.312" style="fill:none;stroke:#000000;stroke-width:0.3;" y1="-78.062"/>
  <line x2="71.496" x1="69.558" y2="-80.042" style="fill:none;stroke:#000000;stroke-width:0.3;" y1="-82.042"/>
  <line x2="70.621" x1="68.683" y2="-79.167" style="fill:none;stroke:#000000;stroke-width:0.3;" y1="-81.104"/>
  <line x2="83.454" x1="78.121" y2="-83.312" style="fill:none;stroke:#000000;stroke-width:0.3;" y1="-78.062"/>
  <line x2="82.162" x1="80.225" y2="-80.042" style="fill:none;stroke:#000000;stroke-width:0.3;" y1="-82.042"/>
  <line x2="81.287" x1="79.35" y2="-79.167" style="fill:none;stroke:#000000;stroke-width:0.3;" y1="-81.104"/>
  <line x2="62.204" x1="56.871" y2="-83.312" style="fill:none;stroke:#000000;stroke-width:0.3;" y1="-78.062"/>
  <line x2="60.912" x1="58.975" y2="-80.042" style="fill:none;stroke:#000000;stroke-width:0.3;" y1="-82.042"/>
  <line x2="60.037" x1="58.1" y2="-79.167" style="fill:none;stroke:#000000;stroke-width:0.3;" y1="-81.104"/>
  <line x2="51.579" x1="46.246" y2="-83.312" style="fill:none;stroke:#000000;stroke-width:0.3;" y1="-78.062"/>
  <line x2="50.287" x1="48.35" y2="-80.042" style="fill:none;stroke:#000000;stroke-width:0.3;" y1="-82.042"/>
  <line x2="49.412" x1="47.475" y2="-79.167" style="fill:none;stroke:#000000;stroke-width:0.3;" y1="-81.104"/>
  <line x2="72.787" x1="67.454" y2="-62.021" style="fill:none;stroke:#000000;stroke-width:0.3;" y1="-56.771"/>
  <line x2="71.496" x1="69.558" y2="-58.75" style="fill:none;stroke:#000000;stroke-width:0.3;" y1="-60.75"/>
  <line x2="70.621" x1="68.683" y2="-57.875" style="fill:none;stroke:#000000;stroke-width:0.3;" y1="-59.812"/>
  <line x2="83.454" x1="78.121" y2="-62.021" style="fill:none;stroke:#000000;stroke-width:0.3;" y1="-56.771"/>
  <line x2="82.162" x1="80.225" y2="-58.75" style="fill:none;stroke:#000000;stroke-width:0.3;" y1="-60.75"/>
  <line x2="81.287" x1="79.35" y2="-57.875" style="fill:none;stroke:#000000;stroke-width:0.3;" y1="-59.812"/>
  <line x2="62.204" x1="56.871" y2="-62.021" style="fill:none;stroke:#000000;stroke-width:0.3;" y1="-56.771"/>
  <line x2="60.912" x1="58.975" y2="-58.75" style="fill:none;stroke:#000000;stroke-width:0.3;" y1="-60.75"/>
  <line x2="60.037" x1="58.1" y2="-57.875" style="fill:none;stroke:#000000;stroke-width:0.3;" y1="-59.812"/>
  <line x2="51.579" x1="46.246" y2="-62.021" style="fill:none;stroke:#000000;stroke-width:0.3;" y1="-56.771"/>
  <line x2="50.287" x1="48.35" y2="-58.75" style="fill:none;stroke:#000000;stroke-width:0.3;" y1="-60.75"/>
  <line x2="49.412" x1="47.475" y2="-57.875" style="fill:none;stroke:#000000;stroke-width:0.3;" y1="-59.812"/>
  <line x2="72.787" x1="67.454" y2="-51.521" style="fill:none;stroke:#000000;stroke-width:0.3;" y1="-46.271"/>
  <line x2="71.496" x1="69.558" y2="-48.25" style="fill:none;stroke:#000000;stroke-width:0.3;" y1="-50.25"/>
  <line x2="70.621" x1="68.683" y2="-47.375" style="fill:none;stroke:#000000;stroke-width:0.3;" y1="-49.312"/>
  <line x2="83.454" x1="78.121" y2="-51.521" style="fill:none;stroke:#000000;stroke-width:0.3;" y1="-46.271"/>
  <line x2="82.162" x1="80.225" y2="-48.25" style="fill:none;stroke:#000000;stroke-width:0.3;" y1="-50.25"/>
  <line x2="81.287" x1="79.35" y2="-47.375" style="fill:none;stroke:#000000;stroke-width:0.3;" y1="-49.312"/>
  <line x2="62.204" x1="56.871" y2="-51.521" style="fill:none;stroke:#000000;stroke-width:0.3;" y1="-46.271"/>
  <line x2="60.912" x1="58.975" y2="-48.25" style="fill:none;stroke:#000000;stroke-width:0.3;" y1="-50.25"/>
  <line x2="60.037" x1="58.1" y2="-47.375" style="fill:none;stroke:#000000;stroke-width:0.3;" y1="-49.312"/>
  <line x2="51.579" x1="46.246" y2="-51.521" style="fill:none;stroke:#000000;stroke-width:0.3;" y1="-46.271"/>
  <line x2="50.287" x1="48.35" y2="-48.25" style="fill:none;stroke:#000000;stroke-width:0.3;" y1="-50.25"/>
  <line x2="49.412" x1="47.475" y2="-47.375" style="fill:none;stroke:#000000;stroke-width:0.3;" y1="-49.312"/>
  <line x2="30.229" x1="24.896" y2="-30.146" style="fill:none;stroke:#000000;stroke-width:0.3;" y1="-24.896"/>
  <line x2="28.938" x1="27" y2="-26.875" style="fill:none;stroke:#000000;stroke-width:0.3;" y1="-28.875"/>
  <line x2="28.062" x1="26.125" y2="-26" style="fill:none;stroke:#000000;stroke-width:0.3;" y1="-27.938"/>
  <line x2="40.896" x1="35.562" y2="-30.146" style="fill:none;stroke:#000000;stroke-width:0.3;" y1="-24.896"/>
  <line x2="39.604" x1="37.667" y2="-26.875" style="fill:none;stroke:#000000;stroke-width:0.3;" y1="-28.875"/>
  <line x2="38.729" x1="36.792" y2="-26" style="fill:none;stroke:#000000;stroke-width:0.3;" y1="-27.938"/>
  <line x2="19.646" x1="14.312" y2="-30.146" style="fill:none;stroke:#000000;stroke-width:0.3;" y1="-24.896"/>
  <line x2="18.354" x1="16.417" y2="-26.875" style="fill:none;stroke:#000000;stroke-width:0.3;" y1="-28.875"/>
  <line x2="17.479" x1="15.542" y2="-26" style="fill:none;stroke:#000000;stroke-width:0.3;" y1="-27.938"/>
  <line x2="9.021" x1="3.688" y2="-30.146" style="fill:none;stroke:#000000;stroke-width:0.3;" y1="-24.896"/>
  <line x2="7.729" x1="5.792" y2="-26.875" style="fill:none;stroke:#000000;stroke-width:0.3;" y1="-28.875"/>
  <line x2="6.854" x1="4.917" y2="-26" style="fill:none;stroke:#000000;stroke-width:0.3;" y1="-27.938"/>
  <line x2="30.229" x1="24.896" y2="-40.771" style="fill:none;stroke:#000000;stroke-width:0.3;" y1="-35.521"/>
  <line x2="28.938" x1="27" y2="-37.5" style="fill:none;stroke:#000000;stroke-width:0.3;" y1="-39.5"/>
  <line x2="28.062" x1="26.125" y2="-36.625" style="fill:none;stroke:#000000;stroke-width:0.3;" y1="-38.562"/>
  <line x2="40.896" x1="35.562" y2="-40.771" style="fill:none;stroke:#000000;stroke-width:0.3;" y1="-35.521"/>
  <line x2="39.604" x1="37.667" y2="-37.5" style="fill:none;stroke:#000000;stroke-width:0.3;" y1="-39.5"/>
  <line x2="38.729" x1="36.792" y2="-36.625" style="fill:none;stroke:#000000;stroke-width:0.3;" y1="-38.562"/>
  <line x2="19.646" x1="14.312" y2="-40.771" style="fill:none;stroke:#000000;stroke-width:0.3;" y1="-35.521"/>
  <line x2="18.354" x1="16.417" y2="-37.5" style="fill:none;stroke:#000000;stroke-width:0.3;" y1="-39.5"/>
  <line x2="17.479" x1="15.542" y2="-36.625" style="fill:none;stroke:#000000;stroke-width:0.3;" y1="-38.562"/>
  <line x2="9.021" x1="3.688" y2="-40.771" style="fill:none;stroke:#000000;stroke-width:0.3;" y1="-35.521"/>
  <line x2="7.729" x1="5.792" y2="-37.5" style="fill:none;stroke:#000000;stroke-width:0.3;" y1="-39.5"/>
  <line x2="6.854" x1="4.917" y2="-36.625" style="fill:none;stroke:#000000;stroke-width:0.3;" y1="-38.562"/>
  <line x2="30.229" x1="24.896" y2="-19.479" style="fill:none;stroke:#000000;stroke-width:0.3;" y1="-14.229"/>
  <line x2="28.938" x1="27" y2="-16.208" style="fill:none;stroke:#000000;stroke-width:0.3;" y1="-18.208"/>
  <line x2="28.062" x1="26.125" y2="-15.333" style="fill:none;stroke:#000000;stroke-width:0.3;" y1="-17.271"/>
  <line x2="40.896" x1="35.562" y2="-19.479" style="fill:none;stroke:#000000;stroke-width:0.3;" y1="-14.229"/>
  <line x2="39.604" x1="37.667" y2="-16.208" style="fill:none;stroke:#000000;stroke-width:0.3;" y1="-18.208"/>
  <line x2="38.729" x1="36.792" y2="-15.333" style="fill:none;stroke:#000000;stroke-width:0.3;" y1="-17.271"/>
  <line x2="19.646" x1="14.312" y2="-19.479" style="fill:none;stroke:#000000;stroke-width:0.3;" y1="-14.229"/>
  <line x2="18.354" x1="16.417" y2="-16.208" style="fill:none;stroke:#000000;stroke-width:0.3;" y1="-18.208"/>
  <line x2="17.479" x1="15.542" y2="-15.333" style="fill:none;stroke:#000000;stroke-width:0.3;" y1="-17.271"/>
  <line x2="9.021" x1="3.688" y2="-19.479" style="fill:none;stroke:#000000;stroke-width:0.3;" y1="-14.229"/>
  <line x2="7.729" x1="5.792" y2="-16.208" style="fill:none;stroke:#000000;stroke-width:0.3;" y1="-18.208"/>
  <line x2="6.854" x1="4.917" y2="-15.333" style="fill:none;stroke:#000000;stroke-width:0.3;" y1="-17.271"/>
  <line x2="30.229" x1="24.896" y2="-8.979" style="fill:none;stroke:#000000;stroke-width:0.3;" y1="-3.729"/>
  <line x2="28.938" x1="27" y2="-5.708" style="fill:none;stroke:#000000;stroke-width:0.3;" y1="-7.708"/>
  <line x2="28.062" x1="26.125" y2="-4.833" style="fill:none;stroke:#000000;stroke-width:0.3;" y1="-6.771"/>
  <line x2="40.896" x1="35.562" y2="-8.979" style="fill:none;stroke:#000000;stroke-width:0.3;" y1="-3.729"/>
  <line x2="39.604" x1="37.667" y2="-5.708" style="fill:none;stroke:#000000;stroke-width:0.3;" y1="-7.708"/>
  <line x2="38.729" x1="36.792" y2="-4.833" style="fill:none;stroke:#000000;stroke-width:0.3;" y1="-6.771"/>
  <line x2="19.646" x1="14.312" y2="-8.979" style="fill:none;stroke:#000000;stroke-width:0.3;" y1="-3.729"/>
  <line x2="18.354" x1="16.417" y2="-5.708" style="fill:none;stroke:#000000;stroke-width:0.3;" y1="-7.708"/>
  <line x2="17.479" x1="15.542" y2="-4.833" style="fill:none;stroke:#000000;stroke-width:0.3;" y1="-6.771"/>
  <line x2="9.021" x1="3.688" y2="-8.979" style="fill:none;stroke:#000000;stroke-width:0.3;" y1="-3.729"/>
  <line x2="7.729" x1="5.792" y2="-5.708" style="fill:none;stroke:#000000;stroke-width:0.3;" y1="-7.708"/>
  <line x2="6.854" x1="4.917" y2="-4.833" style="fill:none;stroke:#000000;stroke-width:0.3;" y1="-6.771"/>
  <line x2="72.787" x1="67.454" y2="-30.146" style="fill:none;stroke:#000000;stroke-width:0.3;" y1="-24.896"/>
  <line x2="71.496" x1="69.558" y2="-26.875" style="fill:none;stroke:#000000;stroke-width:0.3;" y1="-28.875"/>
  <line x2="70.621" x1="68.683" y2="-26" style="fill:none;stroke:#000000;stroke-width:0.3;" y1="-27.938"/>
  <line x2="83.454" x1="78.121" y2="-30.146" style="fill:none;stroke:#000000;stroke-width:0.3;" y1="-24.896"/>
  <line x2="82.162" x1="80.225" y2="-26.875" style="fill:none;stroke:#000000;stroke-width:0.3;" y1="-28.875"/>
  <line x2="81.287" x1="79.35" y2="-26" style="fill:none;stroke:#000000;stroke-width:0.3;" y1="-27.938"/>
  <line x2="62.204" x1="56.871" y2="-30.146" style="fill:none;stroke:#000000;stroke-width:0.3;" y1="-24.896"/>
  <line x2="60.912" x1="58.975" y2="-26.875" style="fill:none;stroke:#000000;stroke-width:0.3;" y1="-28.875"/>
  <line x2="60.037" x1="58.1" y2="-26" style="fill:none;stroke:#000000;stroke-width:0.3;" y1="-27.938"/>
  <line x2="51.579" x1="46.246" y2="-30.146" style="fill:none;stroke:#000000;stroke-width:0.3;" y1="-24.896"/>
  <line x2="50.287" x1="48.35" y2="-26.875" style="fill:none;stroke:#000000;stroke-width:0.3;" y1="-28.875"/>
  <line x2="49.412" x1="47.475" y2="-26" style="fill:none;stroke:#000000;stroke-width:0.3;" y1="-27.938"/>
  <line x2="72.787" x1="67.454" y2="-40.771" style="fill:none;stroke:#000000;stroke-width:0.3;" y1="-35.521"/>
  <line x2="71.496" x1="69.558" y2="-37.5" style="fill:none;stroke:#000000;stroke-width:0.3;" y1="-39.5"/>
  <line x2="70.621" x1="68.683" y2="-36.625" style="fill:none;stroke:#000000;stroke-width:0.3;" y1="-38.562"/>
  <line x2="83.454" x1="78.121" y2="-40.771" style="fill:none;stroke:#000000;stroke-width:0.3;" y1="-35.521"/>
  <line x2="82.162" x1="80.225" y2="-37.5" style="fill:none;stroke:#000000;stroke-width:0.3;" y1="-39.5"/>
  <line x2="81.287" x1="79.35" y2="-36.625" style="fill:none;stroke:#000000;stroke-width:0.3;" y1="-38.562"/>
  <line x2="62.204" x1="56.871" y2="-40.771" style="fill:none;stroke:#000000;stroke-width:0.3;" y1="-35.521"/>
  <line x2="60.912" x1="58.975" y2="-37.5" style="fill:none;stroke:#000000;stroke-width:0.3;" y1="-39.5"/>
  <line x2="60.037" x1="58.1" y2="-36.625" style="fill:none;stroke:#000000;stroke-width:0.3;" y1="-38.562"/>
  <line x2="51.579" x1="46.246" y2="-40.771" style="fill:none;stroke:#000000;stroke-width:0.3;" y1="-35.521"/>
  <line x2="50.287" x1="48.35" y2="-37.5" style="fill:none;stroke:#000000;stroke-width:0.3;" y1="-39.5"/>
  <line x2="49.412" x1="47.475" y2="-36.625" style="fill:none;stroke:#000000;stroke-width:0.3;" y1="-38.562"/>
  <line x2="72.787" x1="67.454" y2="-19.479" style="fill:none;stroke:#000000;stroke-width:0.3;" y1="-14.229"/>
  <line x2="71.496" x1="69.558" y2="-16.208" style="fill:none;stroke:#000000;stroke-width:0.3;" y1="-18.208"/>
  <line x2="70.621" x1="68.683" y2="-15.333" style="fill:none;stroke:#000000;stroke-width:0.3;" y1="-17.271"/>
  <line x2="83.454" x1="78.121" y2="-19.479" style="fill:none;stroke:#000000;stroke-width:0.3;" y1="-14.229"/>
  <line x2="82.162" x1="80.225" y2="-16.208" style="fill:none;stroke:#000000;stroke-width:0.3;" y1="-18.208"/>
  <line x2="81.287" x1="79.35" y2="-15.333" style="fill:none;stroke:#000000;stroke-width:0.3;" y1="-17.271"/>
  <line x2="62.204" x1="56.871" y2="-19.479" style="fill:none;stroke:#000000;stroke-width:0.3;" y1="-14.229"/>
  <line x2="60.912" x1="58.975" y2="-16.208" style="fill:none;stroke:#000000;stroke-width:0.3;" y1="-18.208"/>
  <line x2="60.037" x1="58.1" y2="-15.333" style="fill:none;stroke:#000000;stroke-width:0.3;" y1="-17.271"/>
  <line x2="51.579" x1="46.246" y2="-19.479" style="fill:none;stroke:#000000;stroke-width:0.3;" y1="-14.229"/>
  <line x2="50.287" x1="48.35" y2="-16.208" style="fill:none;stroke:#000000;stroke-width:0.3;" y1="-18.208"/>
  <line x2="49.412" x1="47.475" y2="-15.333" style="fill:none;stroke:#000000;stroke-width:0.3;" y1="-17.271"/>
  <line x2="72.787" x1="67.454" y2="-8.979" style="fill:none;stroke:#000000;stroke-width:0.3;" y1="-3.729"/>
  <line x2="71.496" x1="69.558" y2="-5.708" style="fill:none;stroke:#000000;stroke-width:0.3;" y1="-7.708"/>
  <line x2="70.621" x1="68.683" y2="-4.833" style="fill:none;stroke:#000000;stroke-width:0.3;" y1="-6.771"/>
  <line x2="83.454" x1="78.121" y2="-8.979" style="fill:none;stroke:#000000;stroke-width:0.3;" y1="-3.729"/>
  <line x2="82.162" x1="80.225" y2="-5.708" style="fill:none;stroke:#000000;stroke-width:0.3;" y1="-7.708"/>
  <line x2="81.287" x1="79.35" y2="-4.833" style="fill:none;stroke:#000000;stroke-width:0.3;" y1="-6.771"/>
  <line x2="62.204" x1="56.871" y2="-8.979" style="fill:none;stroke:#000000;stroke-width:0.3;" y1="-3.729"/>
  <line x2="60.912" x1="58.975" y2="-5.708" style="fill:none;stroke:#000000;stroke-width:0.3;" y1="-7.708"/>
  <line x2="60.037" x1="58.1" y2="-4.833" style="fill:none;stroke:#000000;stroke-width:0.3;" y1="-6.771"/>
  <line x2="51.579" x1="46.246" y2="-8.979" style="fill:none;stroke:#000000;stroke-width:0.3;" y1="-3.729"/>
  <line x2="50.287" x1="48.35" y2="-5.708" style="fill:none;stroke:#000000;stroke-width:0.3;" y1="-7.708"/>
  <line x2="49.412" x1="47.475" y2="-4.833" style="fill:none;stroke:#000000;stroke-width:0.3;" y1="-6.771"/>
 </g>
</svg>
