<?xml version="1.0"?>
<!-- Converted with SVG Converter - Version 0.9.5 (Compiled Fri Feb 21 09:53:38 2020) - Copyright (C) 2011 Nokia -->
<svg xmlns="http://www.w3.org/2000/svg" xmlns:xlink="http://www.w3.org/1999/xlink" y="0px" baseProfile="tiny" xml:space="preserve" width="85.058" x="0px" viewBox="1 -86.042 85.058 85.042" height="85.042" version="1.1">
 <g>
  <rect style="fill:none;" y="-86.042" width="85.058" x="1" height="85.042"/>
  <line style="fill:none;stroke:#000000;stroke-width:0.3;" y1="-67.438" x1="24.896" y2="-72.688" x2="30.229"/>
  <line style="fill:none;stroke:#000000;stroke-width:0.3;" y1="-71.417" x1="27" y2="-69.417" x2="28.938"/>
  <line style="fill:none;stroke:#000000;stroke-width:0.3;" y1="-70.479" x1="26.125" y2="-68.542" x2="28.062"/>
  <line style="fill:none;stroke:#000000;stroke-width:0.3;" y1="-67.438" x1="35.562" y2="-72.688" x2="40.896"/>
  <line style="fill:none;stroke:#000000;stroke-width:0.3;" y1="-71.417" x1="37.667" y2="-69.417" x2="39.604"/>
  <line style="fill:none;stroke:#000000;stroke-width:0.3;" y1="-70.479" x1="36.792" y2="-68.542" x2="38.729"/>
  <line style="fill:none;stroke:#000000;stroke-width:0.3;" y1="-67.438" x1="14.312" y2="-72.688" x2="19.646"/>
  <line style="fill:none;stroke:#000000;stroke-width:0.3;" y1="-71.417" x1="16.417" y2="-69.417" x2="18.354"/>
  <line style="fill:none;stroke:#000000;stroke-width:0.3;" y1="-70.479" x1="15.542" y2="-68.542" x2="17.479"/>
  <line style="fill:none;stroke:#000000;stroke-width:0.3;" y1="-67.438" x1="3.688" y2="-72.688" x2="9.021"/>
  <line style="fill:none;stroke:#000000;stroke-width:0.3;" y1="-71.417" x1="5.792" y2="-69.417" x2="7.729"/>
  <line style="fill:none;stroke:#000000;stroke-width:0.3;" y1="-70.479" x1="4.917" y2="-68.542" x2="6.854"/>
  <line style="fill:none;stroke:#000000;stroke-width:0.3;" y1="-78.062" x1="24.896" y2="-83.312" x2="30.229"/>
  <line style="fill:none;stroke:#000000;stroke-width:0.3;" y1="-82.042" x1="27" y2="-80.042" x2="28.938"/>
  <line style="fill:none;stroke:#000000;stroke-width:0.3;" y1="-81.104" x1="26.125" y2="-79.167" x2="28.062"/>
  <line style="fill:none;stroke:#000000;stroke-width:0.3;" y1="-78.062" x1="35.562" y2="-83.312" x2="40.896"/>
  <line style="fill:none;stroke:#000000;stroke-width:0.3;" y1="-82.042" x1="37.667" y2="-80.042" x2="39.604"/>
  <line style="fill:none;stroke:#000000;stroke-width:0.3;" y1="-81.104" x1="36.792" y2="-79.167" x2="38.729"/>
  <line style="fill:none;stroke:#000000;stroke-width:0.3;" y1="-78.062" x1="14.312" y2="-83.312" x2="19.646"/>
  <line style="fill:none;stroke:#000000;stroke-width:0.3;" y1="-82.042" x1="16.417" y2="-80.042" x2="18.354"/>
  <line style="fill:none;stroke:#000000;stroke-width:0.3;" y1="-81.104" x1="15.542" y2="-79.167" x2="17.479"/>
  <line style="fill:none;stroke:#000000;stroke-width:0.3;" y1="-78.062" x1="3.688" y2="-83.312" x2="9.021"/>
  <line style="fill:none;stroke:#000000;stroke-width:0.3;" y1="-82.042" x1="5.792" y2="-80.042" x2="7.729"/>
  <line style="fill:none;stroke:#000000;stroke-width:0.3;" y1="-81.104" x1="4.917" y2="-79.167" x2="6.854"/>
  <line style="fill:none;stroke:#000000;stroke-width:0.3;" y1="-56.771" x1="24.896" y2="-62.021" x2="30.229"/>
  <line style="fill:none;stroke:#000000;stroke-width:0.3;" y1="-60.75" x1="27" y2="-58.75" x2="28.938"/>
  <line style="fill:none;stroke:#000000;stroke-width:0.3;" y1="-59.812" x1="26.125" y2="-57.875" x2="28.062"/>
  <line style="fill:none;stroke:#000000;stroke-width:0.3;" y1="-56.771" x1="35.562" y2="-62.021" x2="40.896"/>
  <line style="fill:none;stroke:#000000;stroke-width:0.3;" y1="-60.75" x1="37.667" y2="-58.75" x2="39.604"/>
  <line style="fill:none;stroke:#000000;stroke-width:0.3;" y1="-59.812" x1="36.792" y2="-57.875" x2="38.729"/>
  <line style="fill:none;stroke:#000000;stroke-width:0.3;" y1="-56.771" x1="14.312" y2="-62.021" x2="19.646"/>
  <line style="fill:none;stroke:#000000;stroke-width:0.3;" y1="-60.75" x1="16.417" y2="-58.75" x2="18.354"/>
  <line style="fill:none;stroke:#000000;stroke-width:0.3;" y1="-59.812" x1="15.542" y2="-57.875" x2="17.479"/>
  <line style="fill:none;stroke:#000000;stroke-width:0.3;" y1="-56.771" x1="3.688" y2="-62.021" x2="9.021"/>
  <line style="fill:none;stroke:#000000;stroke-width:0.3;" y1="-60.75" x1="5.792" y2="-58.75" x2="7.729"/>
  <line style="fill:none;stroke:#000000;stroke-width:0.3;" y1="-59.812" x1="4.917" y2="-57.875" x2="6.854"/>
  <line style="fill:none;stroke:#000000;stroke-width:0.3;" y1="-46.271" x1="24.896" y2="-51.521" x2="30.229"/>
  <line style="fill:none;stroke:#000000;stroke-width:0.3;" y1="-50.25" x1="27" y2="-48.25" x2="28.938"/>
  <line style="fill:none;stroke:#000000;stroke-width:0.3;" y1="-49.312" x1="26.125" y2="-47.375" x2="28.062"/>
  <line style="fill:none;stroke:#000000;stroke-width:0.3;" y1="-46.271" x1="35.562" y2="-51.521" x2="40.896"/>
  <line style="fill:none;stroke:#000000;stroke-width:0.3;" y1="-50.25" x1="37.667" y2="-48.25" x2="39.604"/>
  <line style="fill:none;stroke:#000000;stroke-width:0.3;" y1="-49.312" x1="36.792" y2="-47.375" x2="38.729"/>
  <line style="fill:none;stroke:#000000;stroke-width:0.3;" y1="-46.271" x1="14.312" y2="-51.521" x2="19.646"/>
  <line style="fill:none;stroke:#000000;stroke-width:0.3;" y1="-50.25" x1="16.417" y2="-48.25" x2="18.354"/>
  <line style="fill:none;stroke:#000000;stroke-width:0.3;" y1="-49.312" x1="15.542" y2="-47.375" x2="17.479"/>
  <line style="fill:none;stroke:#000000;stroke-width:0.3;" y1="-46.271" x1="3.688" y2="-51.521" x2="9.021"/>
  <line style="fill:none;stroke:#000000;stroke-width:0.3;" y1="-50.25" x1="5.792" y2="-48.25" x2="7.729"/>
  <line style="fill:none;stroke:#000000;stroke-width:0.3;" y1="-49.312" x1="4.917" y2="-47.375" x2="6.854"/>
  <line style="fill:none;stroke:#000000;stroke-width:0.3;" y1="-67.438" x1="67.454" y2="-72.688" x2="72.787"/>
  <line style="fill:none;stroke:#000000;stroke-width:0.3;" y1="-71.417" x1="69.558" y2="-69.417" x2="71.496"/>
  <line style="fill:none;stroke:#000000;stroke-width:0.3;" y1="-70.479" x1="68.683" y2="-68.542" x2="70.621"/>
  <line style="fill:none;stroke:#000000;stroke-width:0.3;" y1="-67.438" x1="78.121" y2="-72.688" x2="83.454"/>
  <line style="fill:none;stroke:#000000;stroke-width:0.3;" y1="-71.417" x1="80.225" y2="-69.417" x2="82.162"/>
  <line style="fill:none;stroke:#000000;stroke-width:0.3;" y1="-70.479" x1="79.35" y2="-68.542" x2="81.287"/>
  <line style="fill:none;stroke:#000000;stroke-width:0.3;" y1="-67.438" x1="56.871" y2="-72.688" x2="62.204"/>
  <line style="fill:none;stroke:#000000;stroke-width:0.3;" y1="-71.417" x1="58.975" y2="-69.417" x2="60.912"/>
  <line style="fill:none;stroke:#000000;stroke-width:0.3;" y1="-70.479" x1="58.1" y2="-68.542" x2="60.037"/>
  <line style="fill:none;stroke:#000000;stroke-width:0.3;" y1="-67.438" x1="46.246" y2="-72.688" x2="51.579"/>
  <line style="fill:none;stroke:#000000;stroke-width:0.3;" y1="-71.417" x1="48.35" y2="-69.417" x2="50.287"/>
  <line style="fill:none;stroke:#000000;stroke-width:0.3;" y1="-70.479" x1="47.475" y2="-68.542" x2="49.412"/>
  <line style="fill:none;stroke:#000000;stroke-width:0.3;" y1="-78.062" x1="67.454" y2="-83.312" x2="72.787"/>
  <line style="fill:none;stroke:#000000;stroke-width:0.3;" y1="-82.042" x1="69.558" y2="-80.042" x2="71.496"/>
  <line style="fill:none;stroke:#000000;stroke-width:0.3;" y1="-81.104" x1="68.683" y2="-79.167" x2="70.621"/>
  <line style="fill:none;stroke:#000000;stroke-width:0.3;" y1="-78.062" x1="78.121" y2="-83.312" x2="83.454"/>
  <line style="fill:none;stroke:#000000;stroke-width:0.3;" y1="-82.042" x1="80.225" y2="-80.042" x2="82.162"/>
  <line style="fill:none;stroke:#000000;stroke-width:0.3;" y1="-81.104" x1="79.35" y2="-79.167" x2="81.287"/>
  <line style="fill:none;stroke:#000000;stroke-width:0.3;" y1="-78.062" x1="56.871" y2="-83.312" x2="62.204"/>
  <line style="fill:none;stroke:#000000;stroke-width:0.3;" y1="-82.042" x1="58.975" y2="-80.042" x2="60.912"/>
  <line style="fill:none;stroke:#000000;stroke-width:0.3;" y1="-81.104" x1="58.1" y2="-79.167" x2="60.037"/>
  <line style="fill:none;stroke:#000000;stroke-width:0.3;" y1="-78.062" x1="46.246" y2="-83.312" x2="51.579"/>
  <line style="fill:none;stroke:#000000;stroke-width:0.3;" y1="-82.042" x1="48.35" y2="-80.042" x2="50.287"/>
  <line style="fill:none;stroke:#000000;stroke-width:0.3;" y1="-81.104" x1="47.475" y2="-79.167" x2="49.412"/>
  <line style="fill:none;stroke:#000000;stroke-width:0.3;" y1="-56.771" x1="67.454" y2="-62.021" x2="72.787"/>
  <line style="fill:none;stroke:#000000;stroke-width:0.3;" y1="-60.75" x1="69.558" y2="-58.75" x2="71.496"/>
  <line style="fill:none;stroke:#000000;stroke-width:0.3;" y1="-59.812" x1="68.683" y2="-57.875" x2="70.621"/>
  <line style="fill:none;stroke:#000000;stroke-width:0.3;" y1="-56.771" x1="78.121" y2="-62.021" x2="83.454"/>
  <line style="fill:none;stroke:#000000;stroke-width:0.3;" y1="-60.75" x1="80.225" y2="-58.75" x2="82.162"/>
  <line style="fill:none;stroke:#000000;stroke-width:0.3;" y1="-59.812" x1="79.35" y2="-57.875" x2="81.287"/>
  <line style="fill:none;stroke:#000000;stroke-width:0.3;" y1="-56.771" x1="56.871" y2="-62.021" x2="62.204"/>
  <line style="fill:none;stroke:#000000;stroke-width:0.3;" y1="-60.75" x1="58.975" y2="-58.75" x2="60.912"/>
  <line style="fill:none;stroke:#000000;stroke-width:0.3;" y1="-59.812" x1="58.1" y2="-57.875" x2="60.037"/>
  <line style="fill:none;stroke:#000000;stroke-width:0.3;" y1="-56.771" x1="46.246" y2="-62.021" x2="51.579"/>
  <line style="fill:none;stroke:#000000;stroke-width:0.3;" y1="-60.75" x1="48.35" y2="-58.75" x2="50.287"/>
  <line style="fill:none;stroke:#000000;stroke-width:0.3;" y1="-59.812" x1="47.475" y2="-57.875" x2="49.412"/>
  <line style="fill:none;stroke:#000000;stroke-width:0.3;" y1="-46.271" x1="67.454" y2="-51.521" x2="72.787"/>
  <line style="fill:none;stroke:#000000;stroke-width:0.3;" y1="-50.25" x1="69.558" y2="-48.25" x2="71.496"/>
  <line style="fill:none;stroke:#000000;stroke-width:0.3;" y1="-49.312" x1="68.683" y2="-47.375" x2="70.621"/>
  <line style="fill:none;stroke:#000000;stroke-width:0.3;" y1="-46.271" x1="78.121" y2="-51.521" x2="83.454"/>
  <line style="fill:none;stroke:#000000;stroke-width:0.3;" y1="-50.25" x1="80.225" y2="-48.25" x2="82.162"/>
  <line style="fill:none;stroke:#000000;stroke-width:0.3;" y1="-49.312" x1="79.35" y2="-47.375" x2="81.287"/>
  <line style="fill:none;stroke:#000000;stroke-width:0.3;" y1="-46.271" x1="56.871" y2="-51.521" x2="62.204"/>
  <line style="fill:none;stroke:#000000;stroke-width:0.3;" y1="-50.25" x1="58.975" y2="-48.25" x2="60.912"/>
  <line style="fill:none;stroke:#000000;stroke-width:0.3;" y1="-49.312" x1="58.1" y2="-47.375" x2="60.037"/>
  <line style="fill:none;stroke:#000000;stroke-width:0.3;" y1="-46.271" x1="46.246" y2="-51.521" x2="51.579"/>
  <line style="fill:none;stroke:#000000;stroke-width:0.3;" y1="-50.25" x1="48.35" y2="-48.25" x2="50.287"/>
  <line style="fill:none;stroke:#000000;stroke-width:0.3;" y1="-49.312" x1="47.475" y2="-47.375" x2="49.412"/>
  <line style="fill:none;stroke:#000000;stroke-width:0.3;" y1="-24.896" x1="24.896" y2="-30.146" x2="30.229"/>
  <line style="fill:none;stroke:#000000;stroke-width:0.3;" y1="-28.875" x1="27" y2="-26.875" x2="28.938"/>
  <line style="fill:none;stroke:#000000;stroke-width:0.3;" y1="-27.938" x1="26.125" y2="-26" x2="28.062"/>
  <line style="fill:none;stroke:#000000;stroke-width:0.3;" y1="-24.896" x1="35.562" y2="-30.146" x2="40.896"/>
  <line style="fill:none;stroke:#000000;stroke-width:0.3;" y1="-28.875" x1="37.667" y2="-26.875" x2="39.604"/>
  <line style="fill:none;stroke:#000000;stroke-width:0.3;" y1="-27.938" x1="36.792" y2="-26" x2="38.729"/>
  <line style="fill:none;stroke:#000000;stroke-width:0.3;" y1="-24.896" x1="14.312" y2="-30.146" x2="19.646"/>
  <line style="fill:none;stroke:#000000;stroke-width:0.3;" y1="-28.875" x1="16.417" y2="-26.875" x2="18.354"/>
  <line style="fill:none;stroke:#000000;stroke-width:0.3;" y1="-27.938" x1="15.542" y2="-26" x2="17.479"/>
  <line style="fill:none;stroke:#000000;stroke-width:0.3;" y1="-24.896" x1="3.688" y2="-30.146" x2="9.021"/>
  <line style="fill:none;stroke:#000000;stroke-width:0.3;" y1="-28.875" x1="5.792" y2="-26.875" x2="7.729"/>
  <line style="fill:none;stroke:#000000;stroke-width:0.3;" y1="-27.938" x1="4.917" y2="-26" x2="6.854"/>
  <line style="fill:none;stroke:#000000;stroke-width:0.3;" y1="-35.521" x1="24.896" y2="-40.771" x2="30.229"/>
  <line style="fill:none;stroke:#000000;stroke-width:0.3;" y1="-39.5" x1="27" y2="-37.5" x2="28.938"/>
  <line style="fill:none;stroke:#000000;stroke-width:0.3;" y1="-38.562" x1="26.125" y2="-36.625" x2="28.062"/>
  <line style="fill:none;stroke:#000000;stroke-width:0.3;" y1="-35.521" x1="35.562" y2="-40.771" x2="40.896"/>
  <line style="fill:none;stroke:#000000;stroke-width:0.3;" y1="-39.5" x1="37.667" y2="-37.5" x2="39.604"/>
  <line style="fill:none;stroke:#000000;stroke-width:0.3;" y1="-38.562" x1="36.792" y2="-36.625" x2="38.729"/>
  <line style="fill:none;stroke:#000000;stroke-width:0.3;" y1="-35.521" x1="14.312" y2="-40.771" x2="19.646"/>
  <line style="fill:none;stroke:#000000;stroke-width:0.3;" y1="-39.5" x1="16.417" y2="-37.5" x2="18.354"/>
  <line style="fill:none;stroke:#000000;stroke-width:0.3;" y1="-38.562" x1="15.542" y2="-36.625" x2="17.479"/>
  <line style="fill:none;stroke:#000000;stroke-width:0.3;" y1="-35.521" x1="3.688" y2="-40.771" x2="9.021"/>
  <line style="fill:none;stroke:#000000;stroke-width:0.3;" y1="-39.5" x1="5.792" y2="-37.5" x2="7.729"/>
  <line style="fill:none;stroke:#000000;stroke-width:0.3;" y1="-38.562" x1="4.917" y2="-36.625" x2="6.854"/>
  <line style="fill:none;stroke:#000000;stroke-width:0.3;" y1="-14.229" x1="24.896" y2="-19.479" x2="30.229"/>
  <line style="fill:none;stroke:#000000;stroke-width:0.3;" y1="-18.208" x1="27" y2="-16.208" x2="28.938"/>
  <line style="fill:none;stroke:#000000;stroke-width:0.3;" y1="-17.271" x1="26.125" y2="-15.333" x2="28.062"/>
  <line style="fill:none;stroke:#000000;stroke-width:0.3;" y1="-14.229" x1="35.562" y2="-19.479" x2="40.896"/>
  <line style="fill:none;stroke:#000000;stroke-width:0.3;" y1="-18.208" x1="37.667" y2="-16.208" x2="39.604"/>
  <line style="fill:none;stroke:#000000;stroke-width:0.3;" y1="-17.271" x1="36.792" y2="-15.333" x2="38.729"/>
  <line style="fill:none;stroke:#000000;stroke-width:0.3;" y1="-14.229" x1="14.312" y2="-19.479" x2="19.646"/>
  <line style="fill:none;stroke:#000000;stroke-width:0.3;" y1="-18.208" x1="16.417" y2="-16.208" x2="18.354"/>
  <line style="fill:none;stroke:#000000;stroke-width:0.3;" y1="-17.271" x1="15.542" y2="-15.333" x2="17.479"/>
  <line style="fill:none;stroke:#000000;stroke-width:0.3;" y1="-14.229" x1="3.688" y2="-19.479" x2="9.021"/>
  <line style="fill:none;stroke:#000000;stroke-width:0.3;" y1="-18.208" x1="5.792" y2="-16.208" x2="7.729"/>
  <line style="fill:none;stroke:#000000;stroke-width:0.3;" y1="-17.271" x1="4.917" y2="-15.333" x2="6.854"/>
  <line style="fill:none;stroke:#000000;stroke-width:0.3;" y1="-3.729" x1="24.896" y2="-8.979" x2="30.229"/>
  <line style="fill:none;stroke:#000000;stroke-width:0.3;" y1="-7.708" x1="27" y2="-5.708" x2="28.938"/>
  <line style="fill:none;stroke:#000000;stroke-width:0.3;" y1="-6.771" x1="26.125" y2="-4.833" x2="28.062"/>
  <line style="fill:none;stroke:#000000;stroke-width:0.3;" y1="-3.729" x1="35.562" y2="-8.979" x2="40.896"/>
  <line style="fill:none;stroke:#000000;stroke-width:0.3;" y1="-7.708" x1="37.667" y2="-5.708" x2="39.604"/>
  <line style="fill:none;stroke:#000000;stroke-width:0.3;" y1="-6.771" x1="36.792" y2="-4.833" x2="38.729"/>
  <line style="fill:none;stroke:#000000;stroke-width:0.3;" y1="-3.729" x1="14.312" y2="-8.979" x2="19.646"/>
  <line style="fill:none;stroke:#000000;stroke-width:0.3;" y1="-7.708" x1="16.417" y2="-5.708" x2="18.354"/>
  <line style="fill:none;stroke:#000000;stroke-width:0.3;" y1="-6.771" x1="15.542" y2="-4.833" x2="17.479"/>
  <line style="fill:none;stroke:#000000;stroke-width:0.3;" y1="-3.729" x1="3.688" y2="-8.979" x2="9.021"/>
  <line style="fill:none;stroke:#000000;stroke-width:0.3;" y1="-7.708" x1="5.792" y2="-5.708" x2="7.729"/>
  <line style="fill:none;stroke:#000000;stroke-width:0.3;" y1="-6.771" x1="4.917" y2="-4.833" x2="6.854"/>
  <line style="fill:none;stroke:#000000;stroke-width:0.3;" y1="-24.896" x1="67.454" y2="-30.146" x2="72.787"/>
  <line style="fill:none;stroke:#000000;stroke-width:0.3;" y1="-28.875" x1="69.558" y2="-26.875" x2="71.496"/>
  <line style="fill:none;stroke:#000000;stroke-width:0.3;" y1="-27.938" x1="68.683" y2="-26" x2="70.621"/>
  <line style="fill:none;stroke:#000000;stroke-width:0.3;" y1="-24.896" x1="78.121" y2="-30.146" x2="83.454"/>
  <line style="fill:none;stroke:#000000;stroke-width:0.3;" y1="-28.875" x1="80.225" y2="-26.875" x2="82.162"/>
  <line style="fill:none;stroke:#000000;stroke-width:0.3;" y1="-27.938" x1="79.35" y2="-26" x2="81.287"/>
  <line style="fill:none;stroke:#000000;stroke-width:0.3;" y1="-24.896" x1="56.871" y2="-30.146" x2="62.204"/>
  <line style="fill:none;stroke:#000000;stroke-width:0.3;" y1="-28.875" x1="58.975" y2="-26.875" x2="60.912"/>
  <line style="fill:none;stroke:#000000;stroke-width:0.3;" y1="-27.938" x1="58.1" y2="-26" x2="60.037"/>
  <line style="fill:none;stroke:#000000;stroke-width:0.3;" y1="-24.896" x1="46.246" y2="-30.146" x2="51.579"/>
  <line style="fill:none;stroke:#000000;stroke-width:0.3;" y1="-28.875" x1="48.35" y2="-26.875" x2="50.287"/>
  <line style="fill:none;stroke:#000000;stroke-width:0.3;" y1="-27.938" x1="47.475" y2="-26" x2="49.412"/>
  <line style="fill:none;stroke:#000000;stroke-width:0.3;" y1="-35.521" x1="67.454" y2="-40.771" x2="72.787"/>
  <line style="fill:none;stroke:#000000;stroke-width:0.3;" y1="-39.5" x1="69.558" y2="-37.5" x2="71.496"/>
  <line style="fill:none;stroke:#000000;stroke-width:0.3;" y1="-38.562" x1="68.683" y2="-36.625" x2="70.621"/>
  <line style="fill:none;stroke:#000000;stroke-width:0.3;" y1="-35.521" x1="78.121" y2="-40.771" x2="83.454"/>
  <line style="fill:none;stroke:#000000;stroke-width:0.3;" y1="-39.5" x1="80.225" y2="-37.5" x2="82.162"/>
  <line style="fill:none;stroke:#000000;stroke-width:0.3;" y1="-38.562" x1="79.35" y2="-36.625" x2="81.287"/>
  <line style="fill:none;stroke:#000000;stroke-width:0.3;" y1="-35.521" x1="56.871" y2="-40.771" x2="62.204"/>
  <line style="fill:none;stroke:#000000;stroke-width:0.3;" y1="-39.5" x1="58.975" y2="-37.5" x2="60.912"/>
  <line style="fill:none;stroke:#000000;stroke-width:0.3;" y1="-38.562" x1="58.1" y2="-36.625" x2="60.037"/>
  <line style="fill:none;stroke:#000000;stroke-width:0.3;" y1="-35.521" x1="46.246" y2="-40.771" x2="51.579"/>
  <line style="fill:none;stroke:#000000;stroke-width:0.3;" y1="-39.5" x1="48.35" y2="-37.5" x2="50.287"/>
  <line style="fill:none;stroke:#000000;stroke-width:0.3;" y1="-38.562" x1="47.475" y2="-36.625" x2="49.412"/>
  <line style="fill:none;stroke:#000000;stroke-width:0.3;" y1="-14.229" x1="67.454" y2="-19.479" x2="72.787"/>
  <line style="fill:none;stroke:#000000;stroke-width:0.3;" y1="-18.208" x1="69.558" y2="-16.208" x2="71.496"/>
  <line style="fill:none;stroke:#000000;stroke-width:0.3;" y1="-17.271" x1="68.683" y2="-15.333" x2="70.621"/>
  <line style="fill:none;stroke:#000000;stroke-width:0.3;" y1="-14.229" x1="78.121" y2="-19.479" x2="83.454"/>
  <line style="fill:none;stroke:#000000;stroke-width:0.3;" y1="-18.208" x1="80.225" y2="-16.208" x2="82.162"/>
  <line style="fill:none;stroke:#000000;stroke-width:0.3;" y1="-17.271" x1="79.35" y2="-15.333" x2="81.287"/>
  <line style="fill:none;stroke:#000000;stroke-width:0.3;" y1="-14.229" x1="56.871" y2="-19.479" x2="62.204"/>
  <line style="fill:none;stroke:#000000;stroke-width:0.3;" y1="-18.208" x1="58.975" y2="-16.208" x2="60.912"/>
  <line style="fill:none;stroke:#000000;stroke-width:0.3;" y1="-17.271" x1="58.1" y2="-15.333" x2="60.037"/>
  <line style="fill:none;stroke:#000000;stroke-width:0.3;" y1="-14.229" x1="46.246" y2="-19.479" x2="51.579"/>
  <line style="fill:none;stroke:#000000;stroke-width:0.3;" y1="-18.208" x1="48.35" y2="-16.208" x2="50.287"/>
  <line style="fill:none;stroke:#000000;stroke-width:0.3;" y1="-17.271" x1="47.475" y2="-15.333" x2="49.412"/>
  <line style="fill:none;stroke:#000000;stroke-width:0.3;" y1="-3.729" x1="67.454" y2="-8.979" x2="72.787"/>
  <line style="fill:none;stroke:#000000;stroke-width:0.3;" y1="-7.708" x1="69.558" y2="-5.708" x2="71.496"/>
  <line style="fill:none;stroke:#000000;stroke-width:0.3;" y1="-6.771" x1="68.683" y2="-4.833" x2="70.621"/>
  <line style="fill:none;stroke:#000000;stroke-width:0.3;" y1="-3.729" x1="78.121" y2="-8.979" x2="83.454"/>
  <line style="fill:none;stroke:#000000;stroke-width:0.3;" y1="-7.708" x1="80.225" y2="-5.708" x2="82.162"/>
  <line style="fill:none;stroke:#000000;stroke-width:0.3;" y1="-6.771" x1="79.35" y2="-4.833" x2="81.287"/>
  <line style="fill:none;stroke:#000000;stroke-width:0.3;" y1="-3.729" x1="56.871" y2="-8.979" x2="62.204"/>
  <line style="fill:none;stroke:#000000;stroke-width:0.3;" y1="-7.708" x1="58.975" y2="-5.708" x2="60.912"/>
  <line style="fill:none;stroke:#000000;stroke-width:0.3;" y1="-6.771" x1="58.1" y2="-4.833" x2="60.037"/>
  <line style="fill:none;stroke:#000000;stroke-width:0.3;" y1="-3.729" x1="46.246" y2="-8.979" x2="51.579"/>
  <line style="fill:none;stroke:#000000;stroke-width:0.3;" y1="-7.708" x1="48.35" y2="-5.708" x2="50.287"/>
  <line style="fill:none;stroke:#000000;stroke-width:0.3;" y1="-6.771" x1="47.475" y2="-4.833" x2="49.412"/>
 </g>
</svg>
