<?xml version="1.0"?>
<!-- Converted with SVG Converter - Version 0.9.5 (Compiled Fri Feb 21 09:53:38 2020) - Copyright (C) 2011 Nokia -->
<svg xmlns="http://www.w3.org/2000/svg" height="54.25" x="0px" viewBox="1.119 -55.85 54.25 54.25" baseProfile="tiny" y="0px" xml:space="preserve" width="54.25" xmlns:xlink="http://www.w3.org/1999/xlink" version="1.1">
 <g>
  <rect height="54.25" x="1.119" y="-55.85" style="fill:none;" width="54.25"/>
  <line x2="3.619" y2="-52.788" x1="7.307" style="fill:none;stroke:#000000;stroke-width:0.3;" y1="-49.538"/>
  <line x2="8.057" y2="-50.475" x1="4.557" style="fill:none;stroke:#000000;stroke-width:0.3;" y1="-53.85"/>
  <line x2="14.307" y2="-54.35" x1="11.619" style="fill:none;stroke:#000000;stroke-width:0.3;" y1="-50.538"/>
  <line x2="15.494" y2="-53.725" x1="12.807" style="fill:none;stroke:#000000;stroke-width:0.3;" y1="-49.85"/>
  <line x2="20.057" y2="-48.788" x1="15.369" style="fill:none;stroke:#000000;stroke-width:0.3;" y1="-48.225"/>
  <line x2="20.307" y2="-47.538" x1="15.619" style="fill:none;stroke:#000000;stroke-width:0.3;" y1="-47.1"/>
  <line x2="18.085" y2="-40.14" x1="14.82" style="fill:none;stroke:#000000;stroke-width:0.3;" y1="-43.896"/>
  <line x2="13.869" y2="-43.163" x1="16.938" style="fill:none;stroke:#000000;stroke-width:0.3;" y1="-39.391"/>
  <line x2="11.307" y2="-45.038" x1="9.119" style="fill:none;stroke:#000000;stroke-width:0.3;" y1="-40.788"/>
  <line x2="10.119" y2="-45.6" x1="7.869" style="fill:none;stroke:#000000;stroke-width:0.3;" y1="-41.413"/>
  <line x2="2.286" y2="-46.517" x1="7.432" style="fill:none;stroke:#000000;stroke-width:0.3;" y1="-47.35"/>
  <line x2="7.494" y2="-46.204" x1="2.619" style="fill:none;stroke:#000000;stroke-width:0.3;" y1="-45.35"/>
  <line x2="27.542" y2="-51.97" x1="26.81" style="fill:none;stroke:#000000;stroke-width:0.3;" y1="-55.85"/>
  <line x2="28.196" y2="-55.85" x1="28.709" style="fill:none;stroke:#000000;stroke-width:0.3;" y1="-52.249"/>
  <line x2="36.037" y2="-51.464" x1="31.574" style="fill:none;stroke:#000000;stroke-width:0.3;" y1="-50.108"/>
  <line x2="36.589" y2="-50.241" x1="32.088" style="fill:none;stroke:#000000;stroke-width:0.3;" y1="-48.836"/>
  <line x2="37.153" y2="-43.542" x1="33.11" style="fill:none;stroke:#000000;stroke-width:0.3;" y1="-45.979"/>
  <line x2="36.583" y2="-42.402" x1="32.616" style="fill:none;stroke:#000000;stroke-width:0.3;" y1="-44.938"/>
  <line x2="30.17" y2="-43.833" x1="31.608" style="fill:none;stroke:#000000;stroke-width:0.3;" y1="-39.068"/>
  <line x2="29.002" y2="-43.555" x1="30.254" style="fill:none;stroke:#000000;stroke-width:0.3;" y1="-38.856"/>
  <line x2="22.712" y2="-42.56" x1="26.832" style="fill:none;stroke:#000000;stroke-width:0.3;" y1="-44.983"/>
  <line x2="26.128" y2="-46.093" x1="21.989" style="fill:none;stroke:#000000;stroke-width:0.3;" y1="-43.755"/>
  <line x2="26.312" y2="-50.167" x1="21.74" style="fill:none;stroke:#000000;stroke-width:0.3;" y1="-52.673"/>
  <line x2="21.286" y2="-51.548" x1="25.656" style="fill:none;stroke:#000000;stroke-width:0.3;" y1="-49.226"/>
  <line x2="18.964" y2="-31.883" x1="14.857" style="fill:none;stroke:#000000;stroke-width:0.3;" y1="-34.582"/>
  <line x2="19.575" y2="-32.917" x1="15.636" style="fill:none;stroke:#000000;stroke-width:0.3;" y1="-35.766"/>
  <line x2="23.811" y2="-38.01" x1="22.716" style="fill:none;stroke:#000000;stroke-width:0.3;" y1="-33.476"/>
  <line x2="25.145" y2="-37.866" x1="24.073" style="fill:none;stroke:#000000;stroke-width:0.3;" y1="-33.274"/>
  <line x2="27.054" y2="-32.707" x1="31.205" style="fill:none;stroke:#000000;stroke-width:0.3;" y1="-34.956"/>
  <line x2="27.701" y2="-31.753" x1="31.897" style="fill:none;stroke:#000000;stroke-width:0.3;" y1="-33.886"/>
  <line x2="27.413" y2="-29.084" x1="32.249" style="fill:none;stroke:#000000;stroke-width:0.3;" y1="-27.907"/>
  <line x2="31.745" y2="-26.632" x1="27.061" style="fill:none;stroke:#000000;stroke-width:0.3;" y1="-27.937"/>
  <line x2="35.637" y2="-4.736" x1="31.171" style="fill:none;stroke:#000000;stroke-width:0.3;" y1="-6.933"/>
  <line x2="30.579" y2="-5.888" x1="34.869" style="fill:none;stroke:#000000;stroke-width:0.3;" y1="-3.6"/>
  <line x2="23.643" y2="-22.819" x1="24.112" style="fill:none;stroke:#000000;stroke-width:0.3;" y1="-27.575"/>
  <line x2="22.25" y2="-22.94" x1="22.8" style="fill:none;stroke:#000000;stroke-width:0.3;" y1="-27.661"/>
  <line x2="15.519" y2="-26.301" x1="19.997" style="fill:none;stroke:#000000;stroke-width:0.3;" y1="-28.971"/>
  <line x2="20.477" y2="-27.928" x1="16.258" style="fill:none;stroke:#000000;stroke-width:0.3;" y1="-25.339"/>
  <line x2="42.05" y2="-38.709" x1="39.764" style="fill:none;stroke:#000000;stroke-width:0.3;" y1="-43.06"/>
  <line x2="43.085" y2="-39.317" x1="41.019" style="fill:none;stroke:#000000;stroke-width:0.3;" y1="-43.718"/>
  <line x2="50.306" y2="-40.71" x1="46.436" style="fill:none;stroke:#000000;stroke-width:0.3;" y1="-38.106"/>
  <line x2="47.3" y2="-37.041" x1="51.192" style="fill:none;stroke:#000000;stroke-width:0.3;" y1="-39.703"/>
  <line x2="54.507" y2="-33.463" x1="49.928" style="fill:none;stroke:#000000;stroke-width:0.3;" y1="-34.608"/>
  <line x2="54.295" y2="-32.206" x1="49.76" style="fill:none;stroke:#000000;stroke-width:0.3;" y1="-33.468"/>
  <line x2="49.704" y2="-27.561" x1="46.933" style="fill:none;stroke:#000000;stroke-width:0.3;" y1="-31.695"/>
  <line x2="45.898" y2="-31.086" x1="48.471" style="fill:none;stroke:#000000;stroke-width:0.3;" y1="-26.961"/>
  <line x2="42.428" y2="-32.041" x1="38.869" style="fill:none;stroke:#000000;stroke-width:0.3;" y1="-28.85"/>
  <line x2="41.519" y2="-32.99" x1="37.924" style="fill:none;stroke:#000000;stroke-width:0.3;" y1="-29.879"/>
  <line x2="36.283" y2="-37.677" x1="41.387" style="fill:none;stroke:#000000;stroke-width:0.3;" y1="-36.621"/>
  <line x2="36.178" y2="-36.468" x1="41.037" style="fill:none;stroke:#000000;stroke-width:0.3;" y1="-35.528"/>
  <line x2="1.6" y2="-41.87" x1="2.612" style="fill:none;stroke:#000000;stroke-width:0.3;" y1="-37.06"/>
  <line x2="2.987" y2="-42.161" x1="3.773" style="fill:none;stroke:#000000;stroke-width:0.3;" y1="-37.362"/>
  <line x2="10.429" y2="-36.06" x1="5.995" style="fill:none;stroke:#000000;stroke-width:0.3;" y1="-34.611"/>
  <line x2="6.536" y2="-33.35" x1="11.007" style="fill:none;stroke:#000000;stroke-width:0.3;" y1="-34.849"/>
  <line x2="7.618" y2="-30.515" x1="11.711" style="fill:none;stroke:#000000;stroke-width:0.3;" y1="-28.163"/>
  <line x2="11.164" y2="-27.012" x1="7.146" style="fill:none;stroke:#000000;stroke-width:0.3;" y1="-29.464"/>
  <line x2="6.26" y2="-23.575" x1="4.723" style="fill:none;stroke:#000000;stroke-width:0.3;" y1="-28.308"/>
  <line x2="3.562" y2="-28.005" x1="4.911" style="fill:none;stroke:#000000;stroke-width:0.3;" y1="-23.333"/>
  <line x2="48.631" y2="-55.85" x1="48.155" style="fill:none;stroke:#000000;stroke-width:0.3;" y1="-55.542"/>
  <line x2="48.999" y2="-54.461" x1="51.115" style="fill:none;stroke:#000000;stroke-width:0.3;" y1="-55.85"/>
  <line x2="55.122" y2="-50.763" x1="50.564" style="fill:none;stroke:#000000;stroke-width:0.3;" y1="-51.995"/>
  <line x2="50.375" y2="-50.858" x1="54.886" style="fill:none;stroke:#000000;stroke-width:0.3;" y1="-49.511"/>
  <line x2="48.328" y2="-49.124" x1="51.02" style="fill:none;stroke:#000000;stroke-width:0.3;" y1="-44.938"/>
  <line x2="49.776" y2="-44.361" x1="47.281" style="fill:none;stroke:#000000;stroke-width:0.3;" y1="-48.535"/>
  <line x2="44.896" y2="-50.306" x1="41.277" style="fill:none;stroke:#000000;stroke-width:0.3;" y1="-47.183"/>
  <line x2="44.005" y2="-51.271" x1="40.352" style="fill:none;stroke:#000000;stroke-width:0.3;" y1="-48.23"/>
  <line x2="42.876" y2="-54.153" x1="37.792" style="fill:none;stroke:#000000;stroke-width:0.3;" y1="-55.306"/>
  <line x2="37.665" y2="-54.099" x1="42.505" style="fill:none;stroke:#000000;stroke-width:0.3;" y1="-53.067"/>
  <line x2="45.894" y2="-23.687" x1="41.96" style="fill:none;stroke:#000000;stroke-width:0.3;" y1="-20.74"/>
  <line x2="46.743" y2="-22.553" x1="42.725" style="fill:none;stroke:#000000;stroke-width:0.3;" y1="-19.815"/>
  <line x2="44.89" y2="-12.469" x1="41.706" style="fill:none;stroke:#000000;stroke-width:0.3;" y1="-15.877"/>
  <line x2="40.791" y2="-14.854" x1="44.036" style="fill:none;stroke:#000000;stroke-width:0.3;" y1="-11.434"/>
  <line x2="13.286" y2="-3.094" x1="10.102" style="fill:none;stroke:#000000;stroke-width:0.3;" y1="-6.502"/>
  <line x2="9.186" y2="-5.479" x1="12.432" style="fill:none;stroke:#000000;stroke-width:0.3;" y1="-2.059"/>
  <line x2="38.703" y2="-6.767" x1="39.108" style="fill:none;stroke:#000000;stroke-width:0.3;" y1="-11.47"/>
  <line x2="37.428" y2="-6.777" x1="37.956" style="fill:none;stroke:#000000;stroke-width:0.3;" y1="-11.455"/>
  <line x2="30.979" y2="-10.479" x1="34.621" style="fill:none;stroke:#000000;stroke-width:0.3;" y1="-13.87"/>
  <line x2="30.191" y2="-11.601" x1="33.856" style="fill:none;stroke:#000000;stroke-width:0.3;" y1="-14.795"/>
  <line x2="30.4" y2="-20.277" x1="34.114" style="fill:none;stroke:#000000;stroke-width:0.3;" y1="-17.27"/>
  <line x2="31.267" y2="-21.374" x1="34.907" style="fill:none;stroke:#000000;stroke-width:0.3;" y1="-18.317"/>
  <line x2="38.605" y2="-20.126" x1="38.839" style="fill:none;stroke:#000000;stroke-width:0.3;" y1="-25.333"/>
  <line x2="37.629" y2="-25.245" x1="37.471" style="fill:none;stroke:#000000;stroke-width:0.3;" y1="-20.299"/>
  <line x2="13.152" y2="-21.586" x1="16.288" style="fill:none;stroke:#000000;stroke-width:0.3;" y1="-17.802"/>
  <line x2="17.175" y2="-18.611" x1="14.243" style="fill:none;stroke:#000000;stroke-width:0.3;" y1="-22.49"/>
  <line x2="20.704" y2="-18.119" x1="23.952" style="fill:none;stroke:#000000;stroke-width:0.3;" y1="-21.466"/>
  <line x2="25.027" y2="-20.664" x1="21.77" style="fill:none;stroke:#000000;stroke-width:0.3;" y1="-17.254"/>
  <line x2="24.256" y2="-16.146" x1="28.974" style="fill:none;stroke:#000000;stroke-width:0.3;" y1="-15.972"/>
  <line x2="29.026" y2="-14.698" x1="24.328" style="fill:none;stroke:#000000;stroke-width:0.3;" y1="-14.996"/>
  <line x2="18.974" y2="-5.902" x1="23.692" style="fill:none;stroke:#000000;stroke-width:0.3;" y1="-5.728"/>
  <line x2="19.046" y2="-4.752" x1="23.744" style="fill:none;stroke:#000000;stroke-width:0.3;" y1="-4.454"/>
  <line x2="25.392" y2="-9.977" x1="21.827" style="fill:none;stroke:#000000;stroke-width:0.3;" y1="-13.449"/>
  <line x2="24.31" y2="-9.135" x1="20.94" style="fill:none;stroke:#000000;stroke-width:0.3;" y1="-12.64"/>
  <line x2="16.02" y2="-8.783" x1="18.842" style="fill:none;stroke:#000000;stroke-width:0.3;" y1="-12.641"/>
  <line x2="14.882" y2="-9.595" x1="17.757" style="fill:none;stroke:#000000;stroke-width:0.3;" y1="-13.381"/>
  <line x2="10.858" y2="-15.6" x1="16.071" style="fill:none;stroke:#000000;stroke-width:0.3;" y1="-15.622"/>
  <line x2="15.954" y2="-14.481" x1="11.006" style="fill:none;stroke:#000000;stroke-width:0.3;" y1="-14.396"/>
  <line x2="3.813" y2="-16.133" x1="7.97" style="fill:none;stroke:#000000;stroke-width:0.3;" y1="-18.249"/>
  <line x2="4.542" y2="-14.97" x1="8.728" style="fill:none;stroke:#000000;stroke-width:0.3;" y1="-17.141"/>
  <line x2="6.049" y2="-12.336" x1="10.456" style="fill:none;stroke:#000000;stroke-width:0.3;" y1="-10.644"/>
  <line x2="10.093" y2="-9.422" x1="5.744" style="fill:none;stroke:#000000;stroke-width:0.3;" y1="-11.225"/>
  <line x2="5.779" y2="-5.269" x1="3.53" style="fill:none;stroke:#000000;stroke-width:0.3;" y1="-9.709"/>
  <line x2="2.429" y2="-9.231" x1="4.482" style="fill:none;stroke:#000000;stroke-width:0.3;" y1="-4.823"/>
  <line x2="52.768" y2="-17.263" x1="51.026" style="fill:none;stroke:#000000;stroke-width:0.3;" y1="-21.859"/>
  <line x2="53.869" y2="-17.742" x1="52.351" style="fill:none;stroke:#000000;stroke-width:0.3;" y1="-22.36"/>
  <line x2="53.331" y2="-8.92" x1="48.836" style="fill:none;stroke:#000000;stroke-width:0.3;" y1="-7.295"/>
  <line x2="48.346" y2="-8.604" x1="52.844" style="fill:none;stroke:#000000;stroke-width:0.3;" y1="-10.141"/>
  <line x2="46.918" y2="-16.937" x1="51.857" style="fill:none;stroke:#000000;stroke-width:0.3;" y1="-15.271"/>
  <line x2="46.667" y2="-15.75" x1="51.377" style="fill:none;stroke:#000000;stroke-width:0.3;" y1="-14.228"/>
  <line x2="26.802" y2="-1.6" x1="26.646" style="fill:none;stroke:#000000;stroke-width:0.3;" y1="-2.425"/>
  <line x2="28.039" y2="-2.687" x1="28.193" style="fill:none;stroke:#000000;stroke-width:0.3;" y1="-1.6"/>
  <line x2="41.375" y2="-6.247" x1="43.579" style="fill:none;stroke:#000000;stroke-width:0.3;" y1="-1.854"/>
  <line x2="44.625" y2="-2.442" x1="42.642" style="fill:none;stroke:#000000;stroke-width:0.3;" y1="-6.882"/>
  <line x2="48.622" y2="-1.6" x1="51.87" style="fill:none;stroke:#000000;stroke-width:0.3;" y1="-3.698"/>
  <line x2="51.103" y2="-1.6" x1="52.738" style="fill:none;stroke:#000000;stroke-width:0.3;" y1="-2.674"/>
 </g>
</svg>
