<?xml version="1.0"?>
<!-- Converted with SVG Converter - Version 0.9.5 (Compiled Fri Feb 21 09:53:38 2020) - Copyright (C) 2011 Nokia -->
<svg xmlns="http://www.w3.org/2000/svg" xml:space="preserve" xmlns:xlink="http://www.w3.org/1999/xlink" height="54.25" viewBox="1.119 -55.85 54.25 54.25" x="0px" y="0px" version="1.1" baseProfile="tiny" width="54.25">
 <g>
  <rect style="fill:none;" height="54.25" x="1.119" y="-55.85" width="54.25"/>
  <line style="fill:none;stroke:#000000;stroke-width:0.3;" y1="-49.538" x2="3.619" x1="7.307" y2="-52.788"/>
  <line style="fill:none;stroke:#000000;stroke-width:0.3;" y1="-53.85" x2="8.057" x1="4.557" y2="-50.475"/>
  <line style="fill:none;stroke:#000000;stroke-width:0.3;" y1="-50.538" x2="14.307" x1="11.619" y2="-54.35"/>
  <line style="fill:none;stroke:#000000;stroke-width:0.3;" y1="-49.85" x2="15.494" x1="12.807" y2="-53.725"/>
  <line style="fill:none;stroke:#000000;stroke-width:0.3;" y1="-48.225" x2="20.057" x1="15.369" y2="-48.788"/>
  <line style="fill:none;stroke:#000000;stroke-width:0.3;" y1="-47.1" x2="20.307" x1="15.619" y2="-47.538"/>
  <line style="fill:none;stroke:#000000;stroke-width:0.3;" y1="-43.896" x2="18.085" x1="14.82" y2="-40.14"/>
  <line style="fill:none;stroke:#000000;stroke-width:0.3;" y1="-39.391" x2="13.869" x1="16.938" y2="-43.163"/>
  <line style="fill:none;stroke:#000000;stroke-width:0.3;" y1="-40.788" x2="11.307" x1="9.119" y2="-45.038"/>
  <line style="fill:none;stroke:#000000;stroke-width:0.3;" y1="-41.413" x2="10.119" x1="7.869" y2="-45.6"/>
  <line style="fill:none;stroke:#000000;stroke-width:0.3;" y1="-47.35" x2="2.286" x1="7.432" y2="-46.517"/>
  <line style="fill:none;stroke:#000000;stroke-width:0.3;" y1="-45.35" x2="7.494" x1="2.619" y2="-46.204"/>
  <line style="fill:none;stroke:#000000;stroke-width:0.3;" y1="-55.85" x2="27.542" x1="26.81" y2="-51.97"/>
  <line style="fill:none;stroke:#000000;stroke-width:0.3;" y1="-52.249" x2="28.196" x1="28.709" y2="-55.85"/>
  <line style="fill:none;stroke:#000000;stroke-width:0.3;" y1="-50.108" x2="36.037" x1="31.574" y2="-51.464"/>
  <line style="fill:none;stroke:#000000;stroke-width:0.3;" y1="-48.836" x2="36.589" x1="32.088" y2="-50.241"/>
  <line style="fill:none;stroke:#000000;stroke-width:0.3;" y1="-45.979" x2="37.153" x1="33.11" y2="-43.542"/>
  <line style="fill:none;stroke:#000000;stroke-width:0.3;" y1="-44.938" x2="36.583" x1="32.616" y2="-42.402"/>
  <line style="fill:none;stroke:#000000;stroke-width:0.3;" y1="-39.068" x2="30.17" x1="31.608" y2="-43.833"/>
  <line style="fill:none;stroke:#000000;stroke-width:0.3;" y1="-38.856" x2="29.002" x1="30.254" y2="-43.555"/>
  <line style="fill:none;stroke:#000000;stroke-width:0.3;" y1="-44.983" x2="22.712" x1="26.832" y2="-42.56"/>
  <line style="fill:none;stroke:#000000;stroke-width:0.3;" y1="-43.755" x2="26.128" x1="21.989" y2="-46.093"/>
  <line style="fill:none;stroke:#000000;stroke-width:0.3;" y1="-52.673" x2="26.312" x1="21.74" y2="-50.167"/>
  <line style="fill:none;stroke:#000000;stroke-width:0.3;" y1="-49.226" x2="21.286" x1="25.656" y2="-51.548"/>
  <line style="fill:none;stroke:#000000;stroke-width:0.3;" y1="-34.582" x2="18.964" x1="14.857" y2="-31.883"/>
  <line style="fill:none;stroke:#000000;stroke-width:0.3;" y1="-35.766" x2="19.575" x1="15.636" y2="-32.917"/>
  <line style="fill:none;stroke:#000000;stroke-width:0.3;" y1="-33.476" x2="23.811" x1="22.716" y2="-38.01"/>
  <line style="fill:none;stroke:#000000;stroke-width:0.3;" y1="-33.274" x2="25.145" x1="24.073" y2="-37.866"/>
  <line style="fill:none;stroke:#000000;stroke-width:0.3;" y1="-34.956" x2="27.054" x1="31.205" y2="-32.707"/>
  <line style="fill:none;stroke:#000000;stroke-width:0.3;" y1="-33.886" x2="27.701" x1="31.897" y2="-31.753"/>
  <line style="fill:none;stroke:#000000;stroke-width:0.3;" y1="-27.907" x2="27.413" x1="32.249" y2="-29.084"/>
  <line style="fill:none;stroke:#000000;stroke-width:0.3;" y1="-27.937" x2="31.745" x1="27.061" y2="-26.632"/>
  <line style="fill:none;stroke:#000000;stroke-width:0.3;" y1="-6.933" x2="35.637" x1="31.171" y2="-4.736"/>
  <line style="fill:none;stroke:#000000;stroke-width:0.3;" y1="-3.6" x2="30.579" x1="34.869" y2="-5.888"/>
  <line style="fill:none;stroke:#000000;stroke-width:0.3;" y1="-27.575" x2="23.643" x1="24.112" y2="-22.819"/>
  <line style="fill:none;stroke:#000000;stroke-width:0.3;" y1="-27.661" x2="22.25" x1="22.8" y2="-22.94"/>
  <line style="fill:none;stroke:#000000;stroke-width:0.3;" y1="-28.971" x2="15.519" x1="19.997" y2="-26.301"/>
  <line style="fill:none;stroke:#000000;stroke-width:0.3;" y1="-25.339" x2="20.477" x1="16.258" y2="-27.928"/>
  <line style="fill:none;stroke:#000000;stroke-width:0.3;" y1="-43.06" x2="42.05" x1="39.764" y2="-38.709"/>
  <line style="fill:none;stroke:#000000;stroke-width:0.3;" y1="-43.718" x2="43.085" x1="41.019" y2="-39.317"/>
  <line style="fill:none;stroke:#000000;stroke-width:0.3;" y1="-38.106" x2="50.306" x1="46.436" y2="-40.71"/>
  <line style="fill:none;stroke:#000000;stroke-width:0.3;" y1="-39.703" x2="47.3" x1="51.192" y2="-37.041"/>
  <line style="fill:none;stroke:#000000;stroke-width:0.3;" y1="-34.608" x2="54.507" x1="49.928" y2="-33.463"/>
  <line style="fill:none;stroke:#000000;stroke-width:0.3;" y1="-33.468" x2="54.295" x1="49.76" y2="-32.206"/>
  <line style="fill:none;stroke:#000000;stroke-width:0.3;" y1="-31.695" x2="49.704" x1="46.933" y2="-27.561"/>
  <line style="fill:none;stroke:#000000;stroke-width:0.3;" y1="-26.961" x2="45.898" x1="48.471" y2="-31.086"/>
  <line style="fill:none;stroke:#000000;stroke-width:0.3;" y1="-28.85" x2="42.428" x1="38.869" y2="-32.041"/>
  <line style="fill:none;stroke:#000000;stroke-width:0.3;" y1="-29.879" x2="41.519" x1="37.924" y2="-32.99"/>
  <line style="fill:none;stroke:#000000;stroke-width:0.3;" y1="-36.621" x2="36.283" x1="41.387" y2="-37.677"/>
  <line style="fill:none;stroke:#000000;stroke-width:0.3;" y1="-35.528" x2="36.178" x1="41.037" y2="-36.468"/>
  <line style="fill:none;stroke:#000000;stroke-width:0.3;" y1="-37.06" x2="1.6" x1="2.612" y2="-41.87"/>
  <line style="fill:none;stroke:#000000;stroke-width:0.3;" y1="-37.362" x2="2.987" x1="3.773" y2="-42.161"/>
  <line style="fill:none;stroke:#000000;stroke-width:0.3;" y1="-34.611" x2="10.429" x1="5.995" y2="-36.06"/>
  <line style="fill:none;stroke:#000000;stroke-width:0.3;" y1="-34.849" x2="6.536" x1="11.007" y2="-33.35"/>
  <line style="fill:none;stroke:#000000;stroke-width:0.3;" y1="-28.163" x2="7.618" x1="11.711" y2="-30.515"/>
  <line style="fill:none;stroke:#000000;stroke-width:0.3;" y1="-29.464" x2="11.164" x1="7.146" y2="-27.012"/>
  <line style="fill:none;stroke:#000000;stroke-width:0.3;" y1="-28.308" x2="6.26" x1="4.723" y2="-23.575"/>
  <line style="fill:none;stroke:#000000;stroke-width:0.3;" y1="-23.333" x2="3.562" x1="4.911" y2="-28.005"/>
  <line style="fill:none;stroke:#000000;stroke-width:0.3;" y1="-55.542" x2="48.631" x1="48.155" y2="-55.85"/>
  <line style="fill:none;stroke:#000000;stroke-width:0.3;" y1="-55.85" x2="48.999" x1="51.115" y2="-54.461"/>
  <line style="fill:none;stroke:#000000;stroke-width:0.3;" y1="-51.995" x2="55.122" x1="50.564" y2="-50.763"/>
  <line style="fill:none;stroke:#000000;stroke-width:0.3;" y1="-49.511" x2="50.375" x1="54.886" y2="-50.858"/>
  <line style="fill:none;stroke:#000000;stroke-width:0.3;" y1="-44.938" x2="48.328" x1="51.02" y2="-49.124"/>
  <line style="fill:none;stroke:#000000;stroke-width:0.3;" y1="-48.535" x2="49.776" x1="47.281" y2="-44.361"/>
  <line style="fill:none;stroke:#000000;stroke-width:0.3;" y1="-47.183" x2="44.896" x1="41.277" y2="-50.306"/>
  <line style="fill:none;stroke:#000000;stroke-width:0.3;" y1="-48.23" x2="44.005" x1="40.352" y2="-51.271"/>
  <line style="fill:none;stroke:#000000;stroke-width:0.3;" y1="-55.306" x2="42.876" x1="37.792" y2="-54.153"/>
  <line style="fill:none;stroke:#000000;stroke-width:0.3;" y1="-53.067" x2="37.665" x1="42.505" y2="-54.099"/>
  <line style="fill:none;stroke:#000000;stroke-width:0.3;" y1="-20.74" x2="45.894" x1="41.96" y2="-23.687"/>
  <line style="fill:none;stroke:#000000;stroke-width:0.3;" y1="-19.815" x2="46.743" x1="42.725" y2="-22.553"/>
  <line style="fill:none;stroke:#000000;stroke-width:0.3;" y1="-15.877" x2="44.89" x1="41.706" y2="-12.469"/>
  <line style="fill:none;stroke:#000000;stroke-width:0.3;" y1="-11.434" x2="40.791" x1="44.036" y2="-14.854"/>
  <line style="fill:none;stroke:#000000;stroke-width:0.3;" y1="-6.502" x2="13.286" x1="10.102" y2="-3.094"/>
  <line style="fill:none;stroke:#000000;stroke-width:0.3;" y1="-2.059" x2="9.186" x1="12.432" y2="-5.479"/>
  <line style="fill:none;stroke:#000000;stroke-width:0.3;" y1="-11.47" x2="38.703" x1="39.108" y2="-6.767"/>
  <line style="fill:none;stroke:#000000;stroke-width:0.3;" y1="-11.455" x2="37.428" x1="37.956" y2="-6.777"/>
  <line style="fill:none;stroke:#000000;stroke-width:0.3;" y1="-13.87" x2="30.979" x1="34.621" y2="-10.479"/>
  <line style="fill:none;stroke:#000000;stroke-width:0.3;" y1="-14.795" x2="30.191" x1="33.856" y2="-11.601"/>
  <line style="fill:none;stroke:#000000;stroke-width:0.3;" y1="-17.27" x2="30.4" x1="34.114" y2="-20.277"/>
  <line style="fill:none;stroke:#000000;stroke-width:0.3;" y1="-18.317" x2="31.267" x1="34.907" y2="-21.374"/>
  <line style="fill:none;stroke:#000000;stroke-width:0.3;" y1="-25.333" x2="38.605" x1="38.839" y2="-20.126"/>
  <line style="fill:none;stroke:#000000;stroke-width:0.3;" y1="-20.299" x2="37.629" x1="37.471" y2="-25.245"/>
  <line style="fill:none;stroke:#000000;stroke-width:0.3;" y1="-17.802" x2="13.152" x1="16.288" y2="-21.586"/>
  <line style="fill:none;stroke:#000000;stroke-width:0.3;" y1="-22.49" x2="17.175" x1="14.243" y2="-18.611"/>
  <line style="fill:none;stroke:#000000;stroke-width:0.3;" y1="-21.466" x2="20.704" x1="23.952" y2="-18.119"/>
  <line style="fill:none;stroke:#000000;stroke-width:0.3;" y1="-17.254" x2="25.027" x1="21.77" y2="-20.664"/>
  <line style="fill:none;stroke:#000000;stroke-width:0.3;" y1="-15.972" x2="24.256" x1="28.974" y2="-16.146"/>
  <line style="fill:none;stroke:#000000;stroke-width:0.3;" y1="-14.996" x2="29.026" x1="24.328" y2="-14.698"/>
  <line style="fill:none;stroke:#000000;stroke-width:0.3;" y1="-5.728" x2="18.974" x1="23.692" y2="-5.902"/>
  <line style="fill:none;stroke:#000000;stroke-width:0.3;" y1="-4.454" x2="19.046" x1="23.744" y2="-4.752"/>
  <line style="fill:none;stroke:#000000;stroke-width:0.3;" y1="-13.449" x2="25.392" x1="21.827" y2="-9.977"/>
  <line style="fill:none;stroke:#000000;stroke-width:0.3;" y1="-12.64" x2="24.31" x1="20.94" y2="-9.135"/>
  <line style="fill:none;stroke:#000000;stroke-width:0.3;" y1="-12.641" x2="16.02" x1="18.842" y2="-8.783"/>
  <line style="fill:none;stroke:#000000;stroke-width:0.3;" y1="-13.381" x2="14.882" x1="17.757" y2="-9.595"/>
  <line style="fill:none;stroke:#000000;stroke-width:0.3;" y1="-15.622" x2="10.858" x1="16.071" y2="-15.6"/>
  <line style="fill:none;stroke:#000000;stroke-width:0.3;" y1="-14.396" x2="15.954" x1="11.006" y2="-14.481"/>
  <line style="fill:none;stroke:#000000;stroke-width:0.3;" y1="-18.249" x2="3.813" x1="7.97" y2="-16.133"/>
  <line style="fill:none;stroke:#000000;stroke-width:0.3;" y1="-17.141" x2="4.542" x1="8.728" y2="-14.97"/>
  <line style="fill:none;stroke:#000000;stroke-width:0.3;" y1="-10.644" x2="6.049" x1="10.456" y2="-12.336"/>
  <line style="fill:none;stroke:#000000;stroke-width:0.3;" y1="-11.225" x2="10.093" x1="5.744" y2="-9.422"/>
  <line style="fill:none;stroke:#000000;stroke-width:0.3;" y1="-9.709" x2="5.779" x1="3.53" y2="-5.269"/>
  <line style="fill:none;stroke:#000000;stroke-width:0.3;" y1="-4.823" x2="2.429" x1="4.482" y2="-9.231"/>
  <line style="fill:none;stroke:#000000;stroke-width:0.3;" y1="-21.859" x2="52.768" x1="51.026" y2="-17.263"/>
  <line style="fill:none;stroke:#000000;stroke-width:0.3;" y1="-22.36" x2="53.869" x1="52.351" y2="-17.742"/>
  <line style="fill:none;stroke:#000000;stroke-width:0.3;" y1="-7.295" x2="53.331" x1="48.836" y2="-8.92"/>
  <line style="fill:none;stroke:#000000;stroke-width:0.3;" y1="-10.141" x2="48.346" x1="52.844" y2="-8.604"/>
  <line style="fill:none;stroke:#000000;stroke-width:0.3;" y1="-15.271" x2="46.918" x1="51.857" y2="-16.937"/>
  <line style="fill:none;stroke:#000000;stroke-width:0.3;" y1="-14.228" x2="46.667" x1="51.377" y2="-15.75"/>
  <line style="fill:none;stroke:#000000;stroke-width:0.3;" y1="-2.425" x2="26.802" x1="26.646" y2="-1.6"/>
  <line style="fill:none;stroke:#000000;stroke-width:0.3;" y1="-1.6" x2="28.039" x1="28.193" y2="-2.687"/>
  <line style="fill:none;stroke:#000000;stroke-width:0.3;" y1="-1.854" x2="41.375" x1="43.579" y2="-6.247"/>
  <line style="fill:none;stroke:#000000;stroke-width:0.3;" y1="-6.882" x2="44.625" x1="42.642" y2="-2.442"/>
  <line style="fill:none;stroke:#000000;stroke-width:0.3;" y1="-3.698" x2="48.622" x1="51.87" y2="-1.6"/>
  <line style="fill:none;stroke:#000000;stroke-width:0.3;" y1="-2.674" x2="51.103" x1="52.738" y2="-1.6"/>
 </g>
</svg>
