<?xml version="1.0"?>
<!-- Converted with SVG Converter - Version 0.9.5 (Compiled Fri Feb 21 09:53:38 2020) - Copyright (C) 2011 Nokia -->
<svg xmlns="http://www.w3.org/2000/svg" x="0px" version="1.1" y="0px" height="54.25" viewBox="1.119 -55.85 54.25 54.25" width="54.25" baseProfile="tiny" xml:space="preserve" xmlns:xlink="http://www.w3.org/1999/xlink">
 <g>
  <rect x="1.119" y="-55.85" height="54.25" style="fill:none;" width="54.25"/>
  <line y2="-52.788" x2="3.619" x1="7.307" style="fill:none;stroke:#000000;stroke-width:0.3;" y1="-49.538"/>
  <line y2="-50.475" x2="8.057" x1="4.557" style="fill:none;stroke:#000000;stroke-width:0.3;" y1="-53.85"/>
  <line y2="-54.35" x2="14.307" x1="11.619" style="fill:none;stroke:#000000;stroke-width:0.3;" y1="-50.538"/>
  <line y2="-53.725" x2="15.494" x1="12.807" style="fill:none;stroke:#000000;stroke-width:0.3;" y1="-49.85"/>
  <line y2="-48.788" x2="20.057" x1="15.369" style="fill:none;stroke:#000000;stroke-width:0.3;" y1="-48.225"/>
  <line y2="-47.538" x2="20.307" x1="15.619" style="fill:none;stroke:#000000;stroke-width:0.3;" y1="-47.1"/>
  <line y2="-40.14" x2="18.085" x1="14.82" style="fill:none;stroke:#000000;stroke-width:0.3;" y1="-43.896"/>
  <line y2="-43.163" x2="13.869" x1="16.938" style="fill:none;stroke:#000000;stroke-width:0.3;" y1="-39.391"/>
  <line y2="-45.038" x2="11.307" x1="9.119" style="fill:none;stroke:#000000;stroke-width:0.3;" y1="-40.788"/>
  <line y2="-45.6" x2="10.119" x1="7.869" style="fill:none;stroke:#000000;stroke-width:0.3;" y1="-41.413"/>
  <line y2="-46.517" x2="2.286" x1="7.432" style="fill:none;stroke:#000000;stroke-width:0.3;" y1="-47.35"/>
  <line y2="-46.204" x2="7.494" x1="2.619" style="fill:none;stroke:#000000;stroke-width:0.3;" y1="-45.35"/>
  <line y2="-51.97" x2="27.542" x1="26.81" style="fill:none;stroke:#000000;stroke-width:0.3;" y1="-55.85"/>
  <line y2="-55.85" x2="28.196" x1="28.709" style="fill:none;stroke:#000000;stroke-width:0.3;" y1="-52.249"/>
  <line y2="-51.464" x2="36.037" x1="31.574" style="fill:none;stroke:#000000;stroke-width:0.3;" y1="-50.108"/>
  <line y2="-50.241" x2="36.589" x1="32.088" style="fill:none;stroke:#000000;stroke-width:0.3;" y1="-48.836"/>
  <line y2="-43.542" x2="37.153" x1="33.11" style="fill:none;stroke:#000000;stroke-width:0.3;" y1="-45.979"/>
  <line y2="-42.402" x2="36.583" x1="32.616" style="fill:none;stroke:#000000;stroke-width:0.3;" y1="-44.938"/>
  <line y2="-43.833" x2="30.17" x1="31.608" style="fill:none;stroke:#000000;stroke-width:0.3;" y1="-39.068"/>
  <line y2="-43.555" x2="29.002" x1="30.254" style="fill:none;stroke:#000000;stroke-width:0.3;" y1="-38.856"/>
  <line y2="-42.56" x2="22.712" x1="26.832" style="fill:none;stroke:#000000;stroke-width:0.3;" y1="-44.983"/>
  <line y2="-46.093" x2="26.128" x1="21.989" style="fill:none;stroke:#000000;stroke-width:0.3;" y1="-43.755"/>
  <line y2="-50.167" x2="26.312" x1="21.74" style="fill:none;stroke:#000000;stroke-width:0.3;" y1="-52.673"/>
  <line y2="-51.548" x2="21.286" x1="25.656" style="fill:none;stroke:#000000;stroke-width:0.3;" y1="-49.226"/>
  <line y2="-31.883" x2="18.964" x1="14.857" style="fill:none;stroke:#000000;stroke-width:0.3;" y1="-34.582"/>
  <line y2="-32.917" x2="19.575" x1="15.636" style="fill:none;stroke:#000000;stroke-width:0.3;" y1="-35.766"/>
  <line y2="-38.01" x2="23.811" x1="22.716" style="fill:none;stroke:#000000;stroke-width:0.3;" y1="-33.476"/>
  <line y2="-37.866" x2="25.145" x1="24.073" style="fill:none;stroke:#000000;stroke-width:0.3;" y1="-33.274"/>
  <line y2="-32.707" x2="27.054" x1="31.205" style="fill:none;stroke:#000000;stroke-width:0.3;" y1="-34.956"/>
  <line y2="-31.753" x2="27.701" x1="31.897" style="fill:none;stroke:#000000;stroke-width:0.3;" y1="-33.886"/>
  <line y2="-29.084" x2="27.413" x1="32.249" style="fill:none;stroke:#000000;stroke-width:0.3;" y1="-27.907"/>
  <line y2="-26.632" x2="31.745" x1="27.061" style="fill:none;stroke:#000000;stroke-width:0.3;" y1="-27.937"/>
  <line y2="-4.736" x2="35.637" x1="31.171" style="fill:none;stroke:#000000;stroke-width:0.3;" y1="-6.933"/>
  <line y2="-5.888" x2="30.579" x1="34.869" style="fill:none;stroke:#000000;stroke-width:0.3;" y1="-3.6"/>
  <line y2="-22.819" x2="23.643" x1="24.112" style="fill:none;stroke:#000000;stroke-width:0.3;" y1="-27.575"/>
  <line y2="-22.94" x2="22.25" x1="22.8" style="fill:none;stroke:#000000;stroke-width:0.3;" y1="-27.661"/>
  <line y2="-26.301" x2="15.519" x1="19.997" style="fill:none;stroke:#000000;stroke-width:0.3;" y1="-28.971"/>
  <line y2="-27.928" x2="20.477" x1="16.258" style="fill:none;stroke:#000000;stroke-width:0.3;" y1="-25.339"/>
  <line y2="-38.709" x2="42.05" x1="39.764" style="fill:none;stroke:#000000;stroke-width:0.3;" y1="-43.06"/>
  <line y2="-39.317" x2="43.085" x1="41.019" style="fill:none;stroke:#000000;stroke-width:0.3;" y1="-43.718"/>
  <line y2="-40.71" x2="50.306" x1="46.436" style="fill:none;stroke:#000000;stroke-width:0.3;" y1="-38.106"/>
  <line y2="-37.041" x2="47.3" x1="51.192" style="fill:none;stroke:#000000;stroke-width:0.3;" y1="-39.703"/>
  <line y2="-33.463" x2="54.507" x1="49.928" style="fill:none;stroke:#000000;stroke-width:0.3;" y1="-34.608"/>
  <line y2="-32.206" x2="54.295" x1="49.76" style="fill:none;stroke:#000000;stroke-width:0.3;" y1="-33.468"/>
  <line y2="-27.561" x2="49.704" x1="46.933" style="fill:none;stroke:#000000;stroke-width:0.3;" y1="-31.695"/>
  <line y2="-31.086" x2="45.898" x1="48.471" style="fill:none;stroke:#000000;stroke-width:0.3;" y1="-26.961"/>
  <line y2="-32.041" x2="42.428" x1="38.869" style="fill:none;stroke:#000000;stroke-width:0.3;" y1="-28.85"/>
  <line y2="-32.99" x2="41.519" x1="37.924" style="fill:none;stroke:#000000;stroke-width:0.3;" y1="-29.879"/>
  <line y2="-37.677" x2="36.283" x1="41.387" style="fill:none;stroke:#000000;stroke-width:0.3;" y1="-36.621"/>
  <line y2="-36.468" x2="36.178" x1="41.037" style="fill:none;stroke:#000000;stroke-width:0.3;" y1="-35.528"/>
  <line y2="-41.87" x2="1.6" x1="2.612" style="fill:none;stroke:#000000;stroke-width:0.3;" y1="-37.06"/>
  <line y2="-42.161" x2="2.987" x1="3.773" style="fill:none;stroke:#000000;stroke-width:0.3;" y1="-37.362"/>
  <line y2="-36.06" x2="10.429" x1="5.995" style="fill:none;stroke:#000000;stroke-width:0.3;" y1="-34.611"/>
  <line y2="-33.35" x2="6.536" x1="11.007" style="fill:none;stroke:#000000;stroke-width:0.3;" y1="-34.849"/>
  <line y2="-30.515" x2="7.618" x1="11.711" style="fill:none;stroke:#000000;stroke-width:0.3;" y1="-28.163"/>
  <line y2="-27.012" x2="11.164" x1="7.146" style="fill:none;stroke:#000000;stroke-width:0.3;" y1="-29.464"/>
  <line y2="-23.575" x2="6.26" x1="4.723" style="fill:none;stroke:#000000;stroke-width:0.3;" y1="-28.308"/>
  <line y2="-28.005" x2="3.562" x1="4.911" style="fill:none;stroke:#000000;stroke-width:0.3;" y1="-23.333"/>
  <line y2="-55.85" x2="48.631" x1="48.155" style="fill:none;stroke:#000000;stroke-width:0.3;" y1="-55.542"/>
  <line y2="-54.461" x2="48.999" x1="51.115" style="fill:none;stroke:#000000;stroke-width:0.3;" y1="-55.85"/>
  <line y2="-50.763" x2="55.122" x1="50.564" style="fill:none;stroke:#000000;stroke-width:0.3;" y1="-51.995"/>
  <line y2="-50.858" x2="50.375" x1="54.886" style="fill:none;stroke:#000000;stroke-width:0.3;" y1="-49.511"/>
  <line y2="-49.124" x2="48.328" x1="51.02" style="fill:none;stroke:#000000;stroke-width:0.3;" y1="-44.938"/>
  <line y2="-44.361" x2="49.776" x1="47.281" style="fill:none;stroke:#000000;stroke-width:0.3;" y1="-48.535"/>
  <line y2="-50.306" x2="44.896" x1="41.277" style="fill:none;stroke:#000000;stroke-width:0.3;" y1="-47.183"/>
  <line y2="-51.271" x2="44.005" x1="40.352" style="fill:none;stroke:#000000;stroke-width:0.3;" y1="-48.23"/>
  <line y2="-54.153" x2="42.876" x1="37.792" style="fill:none;stroke:#000000;stroke-width:0.3;" y1="-55.306"/>
  <line y2="-54.099" x2="37.665" x1="42.505" style="fill:none;stroke:#000000;stroke-width:0.3;" y1="-53.067"/>
  <line y2="-23.687" x2="45.894" x1="41.96" style="fill:none;stroke:#000000;stroke-width:0.3;" y1="-20.74"/>
  <line y2="-22.553" x2="46.743" x1="42.725" style="fill:none;stroke:#000000;stroke-width:0.3;" y1="-19.815"/>
  <line y2="-12.469" x2="44.89" x1="41.706" style="fill:none;stroke:#000000;stroke-width:0.3;" y1="-15.877"/>
  <line y2="-14.854" x2="40.791" x1="44.036" style="fill:none;stroke:#000000;stroke-width:0.3;" y1="-11.434"/>
  <line y2="-3.094" x2="13.286" x1="10.102" style="fill:none;stroke:#000000;stroke-width:0.3;" y1="-6.502"/>
  <line y2="-5.479" x2="9.186" x1="12.432" style="fill:none;stroke:#000000;stroke-width:0.3;" y1="-2.059"/>
  <line y2="-6.767" x2="38.703" x1="39.108" style="fill:none;stroke:#000000;stroke-width:0.3;" y1="-11.47"/>
  <line y2="-6.777" x2="37.428" x1="37.956" style="fill:none;stroke:#000000;stroke-width:0.3;" y1="-11.455"/>
  <line y2="-10.479" x2="30.979" x1="34.621" style="fill:none;stroke:#000000;stroke-width:0.3;" y1="-13.87"/>
  <line y2="-11.601" x2="30.191" x1="33.856" style="fill:none;stroke:#000000;stroke-width:0.3;" y1="-14.795"/>
  <line y2="-20.277" x2="30.4" x1="34.114" style="fill:none;stroke:#000000;stroke-width:0.3;" y1="-17.27"/>
  <line y2="-21.374" x2="31.267" x1="34.907" style="fill:none;stroke:#000000;stroke-width:0.3;" y1="-18.317"/>
  <line y2="-20.126" x2="38.605" x1="38.839" style="fill:none;stroke:#000000;stroke-width:0.3;" y1="-25.333"/>
  <line y2="-25.245" x2="37.629" x1="37.471" style="fill:none;stroke:#000000;stroke-width:0.3;" y1="-20.299"/>
  <line y2="-21.586" x2="13.152" x1="16.288" style="fill:none;stroke:#000000;stroke-width:0.3;" y1="-17.802"/>
  <line y2="-18.611" x2="17.175" x1="14.243" style="fill:none;stroke:#000000;stroke-width:0.3;" y1="-22.49"/>
  <line y2="-18.119" x2="20.704" x1="23.952" style="fill:none;stroke:#000000;stroke-width:0.3;" y1="-21.466"/>
  <line y2="-20.664" x2="25.027" x1="21.77" style="fill:none;stroke:#000000;stroke-width:0.3;" y1="-17.254"/>
  <line y2="-16.146" x2="24.256" x1="28.974" style="fill:none;stroke:#000000;stroke-width:0.3;" y1="-15.972"/>
  <line y2="-14.698" x2="29.026" x1="24.328" style="fill:none;stroke:#000000;stroke-width:0.3;" y1="-14.996"/>
  <line y2="-5.902" x2="18.974" x1="23.692" style="fill:none;stroke:#000000;stroke-width:0.3;" y1="-5.728"/>
  <line y2="-4.752" x2="19.046" x1="23.744" style="fill:none;stroke:#000000;stroke-width:0.3;" y1="-4.454"/>
  <line y2="-9.977" x2="25.392" x1="21.827" style="fill:none;stroke:#000000;stroke-width:0.3;" y1="-13.449"/>
  <line y2="-9.135" x2="24.31" x1="20.94" style="fill:none;stroke:#000000;stroke-width:0.3;" y1="-12.64"/>
  <line y2="-8.783" x2="16.02" x1="18.842" style="fill:none;stroke:#000000;stroke-width:0.3;" y1="-12.641"/>
  <line y2="-9.595" x2="14.882" x1="17.757" style="fill:none;stroke:#000000;stroke-width:0.3;" y1="-13.381"/>
  <line y2="-15.6" x2="10.858" x1="16.071" style="fill:none;stroke:#000000;stroke-width:0.3;" y1="-15.622"/>
  <line y2="-14.481" x2="15.954" x1="11.006" style="fill:none;stroke:#000000;stroke-width:0.3;" y1="-14.396"/>
  <line y2="-16.133" x2="3.813" x1="7.97" style="fill:none;stroke:#000000;stroke-width:0.3;" y1="-18.249"/>
  <line y2="-14.97" x2="4.542" x1="8.728" style="fill:none;stroke:#000000;stroke-width:0.3;" y1="-17.141"/>
  <line y2="-12.336" x2="6.049" x1="10.456" style="fill:none;stroke:#000000;stroke-width:0.3;" y1="-10.644"/>
  <line y2="-9.422" x2="10.093" x1="5.744" style="fill:none;stroke:#000000;stroke-width:0.3;" y1="-11.225"/>
  <line y2="-5.269" x2="5.779" x1="3.53" style="fill:none;stroke:#000000;stroke-width:0.3;" y1="-9.709"/>
  <line y2="-9.231" x2="2.429" x1="4.482" style="fill:none;stroke:#000000;stroke-width:0.3;" y1="-4.823"/>
  <line y2="-17.263" x2="52.768" x1="51.026" style="fill:none;stroke:#000000;stroke-width:0.3;" y1="-21.859"/>
  <line y2="-17.742" x2="53.869" x1="52.351" style="fill:none;stroke:#000000;stroke-width:0.3;" y1="-22.36"/>
  <line y2="-8.92" x2="53.331" x1="48.836" style="fill:none;stroke:#000000;stroke-width:0.3;" y1="-7.295"/>
  <line y2="-8.604" x2="48.346" x1="52.844" style="fill:none;stroke:#000000;stroke-width:0.3;" y1="-10.141"/>
  <line y2="-16.937" x2="46.918" x1="51.857" style="fill:none;stroke:#000000;stroke-width:0.3;" y1="-15.271"/>
  <line y2="-15.75" x2="46.667" x1="51.377" style="fill:none;stroke:#000000;stroke-width:0.3;" y1="-14.228"/>
  <line y2="-1.6" x2="26.802" x1="26.646" style="fill:none;stroke:#000000;stroke-width:0.3;" y1="-2.425"/>
  <line y2="-2.687" x2="28.039" x1="28.193" style="fill:none;stroke:#000000;stroke-width:0.3;" y1="-1.6"/>
  <line y2="-6.247" x2="41.375" x1="43.579" style="fill:none;stroke:#000000;stroke-width:0.3;" y1="-1.854"/>
  <line y2="-2.442" x2="44.625" x1="42.642" style="fill:none;stroke:#000000;stroke-width:0.3;" y1="-6.882"/>
  <line y2="-1.6" x2="48.622" x1="51.87" style="fill:none;stroke:#000000;stroke-width:0.3;" y1="-3.698"/>
  <line y2="-1.6" x2="51.103" x1="52.738" style="fill:none;stroke:#000000;stroke-width:0.3;" y1="-2.674"/>
 </g>
</svg>
