<?xml version="1.0"?>
<!-- Converted with SVG Converter - Version 0.9.5 (Compiled Fri Feb 21 09:53:38 2020) - Copyright (C) 2011 Nokia -->
<svg xmlns="http://www.w3.org/2000/svg" xml:space="preserve" x="0px" xmlns:xlink="http://www.w3.org/1999/xlink" height="54.25" y="0px" baseProfile="tiny" version="1.1" width="54.25" viewBox="1.119 -55.85 54.25 54.25">
 <g>
  <rect x="1.119" style="fill:none;" height="54.25" y="-55.85" width="54.25"/>
  <line y1="-49.538" x1="7.307" style="fill:none;stroke:#000000;stroke-width:0.3;" x2="3.619" y2="-52.788"/>
  <line y1="-53.85" x1="4.557" style="fill:none;stroke:#000000;stroke-width:0.3;" x2="8.057" y2="-50.475"/>
  <line y1="-50.538" x1="11.619" style="fill:none;stroke:#000000;stroke-width:0.3;" x2="14.307" y2="-54.35"/>
  <line y1="-49.85" x1="12.807" style="fill:none;stroke:#000000;stroke-width:0.3;" x2="15.494" y2="-53.725"/>
  <line y1="-48.225" x1="15.369" style="fill:none;stroke:#000000;stroke-width:0.3;" x2="20.057" y2="-48.788"/>
  <line y1="-47.1" x1="15.619" style="fill:none;stroke:#000000;stroke-width:0.3;" x2="20.307" y2="-47.538"/>
  <line y1="-43.896" x1="14.82" style="fill:none;stroke:#000000;stroke-width:0.3;" x2="18.085" y2="-40.14"/>
  <line y1="-39.391" x1="16.938" style="fill:none;stroke:#000000;stroke-width:0.3;" x2="13.869" y2="-43.163"/>
  <line y1="-40.788" x1="9.119" style="fill:none;stroke:#000000;stroke-width:0.3;" x2="11.307" y2="-45.038"/>
  <line y1="-41.413" x1="7.869" style="fill:none;stroke:#000000;stroke-width:0.3;" x2="10.119" y2="-45.6"/>
  <line y1="-47.35" x1="7.432" style="fill:none;stroke:#000000;stroke-width:0.3;" x2="2.286" y2="-46.517"/>
  <line y1="-45.35" x1="2.619" style="fill:none;stroke:#000000;stroke-width:0.3;" x2="7.494" y2="-46.204"/>
  <line y1="-55.85" x1="26.81" style="fill:none;stroke:#000000;stroke-width:0.3;" x2="27.542" y2="-51.97"/>
  <line y1="-52.249" x1="28.709" style="fill:none;stroke:#000000;stroke-width:0.3;" x2="28.196" y2="-55.85"/>
  <line y1="-50.108" x1="31.574" style="fill:none;stroke:#000000;stroke-width:0.3;" x2="36.037" y2="-51.464"/>
  <line y1="-48.836" x1="32.088" style="fill:none;stroke:#000000;stroke-width:0.3;" x2="36.589" y2="-50.241"/>
  <line y1="-45.979" x1="33.11" style="fill:none;stroke:#000000;stroke-width:0.3;" x2="37.153" y2="-43.542"/>
  <line y1="-44.938" x1="32.616" style="fill:none;stroke:#000000;stroke-width:0.3;" x2="36.583" y2="-42.402"/>
  <line y1="-39.068" x1="31.608" style="fill:none;stroke:#000000;stroke-width:0.3;" x2="30.17" y2="-43.833"/>
  <line y1="-38.856" x1="30.254" style="fill:none;stroke:#000000;stroke-width:0.3;" x2="29.002" y2="-43.555"/>
  <line y1="-44.983" x1="26.832" style="fill:none;stroke:#000000;stroke-width:0.3;" x2="22.712" y2="-42.56"/>
  <line y1="-43.755" x1="21.989" style="fill:none;stroke:#000000;stroke-width:0.3;" x2="26.128" y2="-46.093"/>
  <line y1="-52.673" x1="21.74" style="fill:none;stroke:#000000;stroke-width:0.3;" x2="26.312" y2="-50.167"/>
  <line y1="-49.226" x1="25.656" style="fill:none;stroke:#000000;stroke-width:0.3;" x2="21.286" y2="-51.548"/>
  <line y1="-34.582" x1="14.857" style="fill:none;stroke:#000000;stroke-width:0.3;" x2="18.964" y2="-31.883"/>
  <line y1="-35.766" x1="15.636" style="fill:none;stroke:#000000;stroke-width:0.3;" x2="19.575" y2="-32.917"/>
  <line y1="-33.476" x1="22.716" style="fill:none;stroke:#000000;stroke-width:0.3;" x2="23.811" y2="-38.01"/>
  <line y1="-33.274" x1="24.073" style="fill:none;stroke:#000000;stroke-width:0.3;" x2="25.145" y2="-37.866"/>
  <line y1="-34.956" x1="31.205" style="fill:none;stroke:#000000;stroke-width:0.3;" x2="27.054" y2="-32.707"/>
  <line y1="-33.886" x1="31.897" style="fill:none;stroke:#000000;stroke-width:0.3;" x2="27.701" y2="-31.753"/>
  <line y1="-27.907" x1="32.249" style="fill:none;stroke:#000000;stroke-width:0.3;" x2="27.413" y2="-29.084"/>
  <line y1="-27.937" x1="27.061" style="fill:none;stroke:#000000;stroke-width:0.3;" x2="31.745" y2="-26.632"/>
  <line y1="-6.933" x1="31.171" style="fill:none;stroke:#000000;stroke-width:0.3;" x2="35.637" y2="-4.736"/>
  <line y1="-3.6" x1="34.869" style="fill:none;stroke:#000000;stroke-width:0.3;" x2="30.579" y2="-5.888"/>
  <line y1="-27.575" x1="24.112" style="fill:none;stroke:#000000;stroke-width:0.3;" x2="23.643" y2="-22.819"/>
  <line y1="-27.661" x1="22.8" style="fill:none;stroke:#000000;stroke-width:0.3;" x2="22.25" y2="-22.94"/>
  <line y1="-28.971" x1="19.997" style="fill:none;stroke:#000000;stroke-width:0.3;" x2="15.519" y2="-26.301"/>
  <line y1="-25.339" x1="16.258" style="fill:none;stroke:#000000;stroke-width:0.3;" x2="20.477" y2="-27.928"/>
  <line y1="-43.06" x1="39.764" style="fill:none;stroke:#000000;stroke-width:0.3;" x2="42.05" y2="-38.709"/>
  <line y1="-43.718" x1="41.019" style="fill:none;stroke:#000000;stroke-width:0.3;" x2="43.085" y2="-39.317"/>
  <line y1="-38.106" x1="46.436" style="fill:none;stroke:#000000;stroke-width:0.3;" x2="50.306" y2="-40.71"/>
  <line y1="-39.703" x1="51.192" style="fill:none;stroke:#000000;stroke-width:0.3;" x2="47.3" y2="-37.041"/>
  <line y1="-34.608" x1="49.928" style="fill:none;stroke:#000000;stroke-width:0.3;" x2="54.507" y2="-33.463"/>
  <line y1="-33.468" x1="49.76" style="fill:none;stroke:#000000;stroke-width:0.3;" x2="54.295" y2="-32.206"/>
  <line y1="-31.695" x1="46.933" style="fill:none;stroke:#000000;stroke-width:0.3;" x2="49.704" y2="-27.561"/>
  <line y1="-26.961" x1="48.471" style="fill:none;stroke:#000000;stroke-width:0.3;" x2="45.898" y2="-31.086"/>
  <line y1="-28.85" x1="38.869" style="fill:none;stroke:#000000;stroke-width:0.3;" x2="42.428" y2="-32.041"/>
  <line y1="-29.879" x1="37.924" style="fill:none;stroke:#000000;stroke-width:0.3;" x2="41.519" y2="-32.99"/>
  <line y1="-36.621" x1="41.387" style="fill:none;stroke:#000000;stroke-width:0.3;" x2="36.283" y2="-37.677"/>
  <line y1="-35.528" x1="41.037" style="fill:none;stroke:#000000;stroke-width:0.3;" x2="36.178" y2="-36.468"/>
  <line y1="-37.06" x1="2.612" style="fill:none;stroke:#000000;stroke-width:0.3;" x2="1.6" y2="-41.87"/>
  <line y1="-37.362" x1="3.773" style="fill:none;stroke:#000000;stroke-width:0.3;" x2="2.987" y2="-42.161"/>
  <line y1="-34.611" x1="5.995" style="fill:none;stroke:#000000;stroke-width:0.3;" x2="10.429" y2="-36.06"/>
  <line y1="-34.849" x1="11.007" style="fill:none;stroke:#000000;stroke-width:0.3;" x2="6.536" y2="-33.35"/>
  <line y1="-28.163" x1="11.711" style="fill:none;stroke:#000000;stroke-width:0.3;" x2="7.618" y2="-30.515"/>
  <line y1="-29.464" x1="7.146" style="fill:none;stroke:#000000;stroke-width:0.3;" x2="11.164" y2="-27.012"/>
  <line y1="-28.308" x1="4.723" style="fill:none;stroke:#000000;stroke-width:0.3;" x2="6.26" y2="-23.575"/>
  <line y1="-23.333" x1="4.911" style="fill:none;stroke:#000000;stroke-width:0.3;" x2="3.562" y2="-28.005"/>
  <line y1="-55.542" x1="48.155" style="fill:none;stroke:#000000;stroke-width:0.3;" x2="48.631" y2="-55.85"/>
  <line y1="-55.85" x1="51.115" style="fill:none;stroke:#000000;stroke-width:0.3;" x2="48.999" y2="-54.461"/>
  <line y1="-51.995" x1="50.564" style="fill:none;stroke:#000000;stroke-width:0.3;" x2="55.122" y2="-50.763"/>
  <line y1="-49.511" x1="54.886" style="fill:none;stroke:#000000;stroke-width:0.3;" x2="50.375" y2="-50.858"/>
  <line y1="-44.938" x1="51.02" style="fill:none;stroke:#000000;stroke-width:0.3;" x2="48.328" y2="-49.124"/>
  <line y1="-48.535" x1="47.281" style="fill:none;stroke:#000000;stroke-width:0.3;" x2="49.776" y2="-44.361"/>
  <line y1="-47.183" x1="41.277" style="fill:none;stroke:#000000;stroke-width:0.3;" x2="44.896" y2="-50.306"/>
  <line y1="-48.23" x1="40.352" style="fill:none;stroke:#000000;stroke-width:0.3;" x2="44.005" y2="-51.271"/>
  <line y1="-55.306" x1="37.792" style="fill:none;stroke:#000000;stroke-width:0.3;" x2="42.876" y2="-54.153"/>
  <line y1="-53.067" x1="42.505" style="fill:none;stroke:#000000;stroke-width:0.3;" x2="37.665" y2="-54.099"/>
  <line y1="-20.74" x1="41.96" style="fill:none;stroke:#000000;stroke-width:0.3;" x2="45.894" y2="-23.687"/>
  <line y1="-19.815" x1="42.725" style="fill:none;stroke:#000000;stroke-width:0.3;" x2="46.743" y2="-22.553"/>
  <line y1="-15.877" x1="41.706" style="fill:none;stroke:#000000;stroke-width:0.3;" x2="44.89" y2="-12.469"/>
  <line y1="-11.434" x1="44.036" style="fill:none;stroke:#000000;stroke-width:0.3;" x2="40.791" y2="-14.854"/>
  <line y1="-6.502" x1="10.102" style="fill:none;stroke:#000000;stroke-width:0.3;" x2="13.286" y2="-3.094"/>
  <line y1="-2.059" x1="12.432" style="fill:none;stroke:#000000;stroke-width:0.3;" x2="9.186" y2="-5.479"/>
  <line y1="-11.47" x1="39.108" style="fill:none;stroke:#000000;stroke-width:0.3;" x2="38.703" y2="-6.767"/>
  <line y1="-11.455" x1="37.956" style="fill:none;stroke:#000000;stroke-width:0.3;" x2="37.428" y2="-6.777"/>
  <line y1="-13.87" x1="34.621" style="fill:none;stroke:#000000;stroke-width:0.3;" x2="30.979" y2="-10.479"/>
  <line y1="-14.795" x1="33.856" style="fill:none;stroke:#000000;stroke-width:0.3;" x2="30.191" y2="-11.601"/>
  <line y1="-17.27" x1="34.114" style="fill:none;stroke:#000000;stroke-width:0.3;" x2="30.4" y2="-20.277"/>
  <line y1="-18.317" x1="34.907" style="fill:none;stroke:#000000;stroke-width:0.3;" x2="31.267" y2="-21.374"/>
  <line y1="-25.333" x1="38.839" style="fill:none;stroke:#000000;stroke-width:0.3;" x2="38.605" y2="-20.126"/>
  <line y1="-20.299" x1="37.471" style="fill:none;stroke:#000000;stroke-width:0.3;" x2="37.629" y2="-25.245"/>
  <line y1="-17.802" x1="16.288" style="fill:none;stroke:#000000;stroke-width:0.3;" x2="13.152" y2="-21.586"/>
  <line y1="-22.49" x1="14.243" style="fill:none;stroke:#000000;stroke-width:0.3;" x2="17.175" y2="-18.611"/>
  <line y1="-21.466" x1="23.952" style="fill:none;stroke:#000000;stroke-width:0.3;" x2="20.704" y2="-18.119"/>
  <line y1="-17.254" x1="21.77" style="fill:none;stroke:#000000;stroke-width:0.3;" x2="25.027" y2="-20.664"/>
  <line y1="-15.972" x1="28.974" style="fill:none;stroke:#000000;stroke-width:0.3;" x2="24.256" y2="-16.146"/>
  <line y1="-14.996" x1="24.328" style="fill:none;stroke:#000000;stroke-width:0.3;" x2="29.026" y2="-14.698"/>
  <line y1="-5.728" x1="23.692" style="fill:none;stroke:#000000;stroke-width:0.3;" x2="18.974" y2="-5.902"/>
  <line y1="-4.454" x1="23.744" style="fill:none;stroke:#000000;stroke-width:0.3;" x2="19.046" y2="-4.752"/>
  <line y1="-13.449" x1="21.827" style="fill:none;stroke:#000000;stroke-width:0.3;" x2="25.392" y2="-9.977"/>
  <line y1="-12.64" x1="20.94" style="fill:none;stroke:#000000;stroke-width:0.3;" x2="24.31" y2="-9.135"/>
  <line y1="-12.641" x1="18.842" style="fill:none;stroke:#000000;stroke-width:0.3;" x2="16.02" y2="-8.783"/>
  <line y1="-13.381" x1="17.757" style="fill:none;stroke:#000000;stroke-width:0.3;" x2="14.882" y2="-9.595"/>
  <line y1="-15.622" x1="16.071" style="fill:none;stroke:#000000;stroke-width:0.3;" x2="10.858" y2="-15.6"/>
  <line y1="-14.396" x1="11.006" style="fill:none;stroke:#000000;stroke-width:0.3;" x2="15.954" y2="-14.481"/>
  <line y1="-18.249" x1="7.97" style="fill:none;stroke:#000000;stroke-width:0.3;" x2="3.813" y2="-16.133"/>
  <line y1="-17.141" x1="8.728" style="fill:none;stroke:#000000;stroke-width:0.3;" x2="4.542" y2="-14.97"/>
  <line y1="-10.644" x1="10.456" style="fill:none;stroke:#000000;stroke-width:0.3;" x2="6.049" y2="-12.336"/>
  <line y1="-11.225" x1="5.744" style="fill:none;stroke:#000000;stroke-width:0.3;" x2="10.093" y2="-9.422"/>
  <line y1="-9.709" x1="3.53" style="fill:none;stroke:#000000;stroke-width:0.3;" x2="5.779" y2="-5.269"/>
  <line y1="-4.823" x1="4.482" style="fill:none;stroke:#000000;stroke-width:0.3;" x2="2.429" y2="-9.231"/>
  <line y1="-21.859" x1="51.026" style="fill:none;stroke:#000000;stroke-width:0.3;" x2="52.768" y2="-17.263"/>
  <line y1="-22.36" x1="52.351" style="fill:none;stroke:#000000;stroke-width:0.3;" x2="53.869" y2="-17.742"/>
  <line y1="-7.295" x1="48.836" style="fill:none;stroke:#000000;stroke-width:0.3;" x2="53.331" y2="-8.92"/>
  <line y1="-10.141" x1="52.844" style="fill:none;stroke:#000000;stroke-width:0.3;" x2="48.346" y2="-8.604"/>
  <line y1="-15.271" x1="51.857" style="fill:none;stroke:#000000;stroke-width:0.3;" x2="46.918" y2="-16.937"/>
  <line y1="-14.228" x1="51.377" style="fill:none;stroke:#000000;stroke-width:0.3;" x2="46.667" y2="-15.75"/>
  <line y1="-2.425" x1="26.646" style="fill:none;stroke:#000000;stroke-width:0.3;" x2="26.802" y2="-1.6"/>
  <line y1="-1.6" x1="28.193" style="fill:none;stroke:#000000;stroke-width:0.3;" x2="28.039" y2="-2.687"/>
  <line y1="-1.854" x1="43.579" style="fill:none;stroke:#000000;stroke-width:0.3;" x2="41.375" y2="-6.247"/>
  <line y1="-6.882" x1="42.642" style="fill:none;stroke:#000000;stroke-width:0.3;" x2="44.625" y2="-2.442"/>
  <line y1="-3.698" x1="51.87" style="fill:none;stroke:#000000;stroke-width:0.3;" x2="48.622" y2="-1.6"/>
  <line y1="-2.674" x1="52.738" style="fill:none;stroke:#000000;stroke-width:0.3;" x2="51.103" y2="-1.6"/>
 </g>
</svg>
