<?xml version="1.0"?>
<!-- Converted with SVG Converter - Version 0.9.5 (Compiled Fri Feb 21 09:53:38 2020) - Copyright (C) 2011 Nokia -->
<svg xmlns="http://www.w3.org/2000/svg" x="0px" version="1.1" y="0px" width="54.5" height="54.5" viewBox="3.163 -56.1 54.5 54.5" xmlns:xlink="http://www.w3.org/1999/xlink" xml:space="preserve" baseProfile="tiny">
 <g>
  <rect x="3.163" y="-56.1" width="54.5" height="54.5" style="fill:none;"/>
  <path style="fill:none;stroke:#000000;stroke-width:0.3;stroke-linecap:square;" d="M54.426-1.608    c0.047-0.094,0.102-0.252,0.15-0.365c0.591-1.398,1.258-4.193,1.836-6.043c0.625-2-1.062-2.75-2.875-3.688s-2.25-0.875-4.375-1.5    c-3.243-0.954-3.812-4.083-6.75-4.646s-6.125-3-6.25-4.812s3.125-2.938,5-3.25s3.438-0.75,1.938-0.938s-2.5-0.438-4.688-1.188    c-2.284-0.783-0.333-1.854-6.333-2.479s-7.167-5.834-6.563-7.25c0.746-1.748,3.25-2.25,6.062-2.5s2.896-0.896,6.083-1.458    s2.875-1.375,0.688-1.25s-3.062,0.482-10.75-2.812c-2.188-0.938-3.099-1.15-5.021-1.896c-3.062-1.188-6.886-1.98-7.167-3.667    c-0.166-1,1.5-2.167,7.5-1.333c6,0.833,8.5-1,13.167-1.333c4.667-0.333,12.333-0.211,14.333-0.167    c0.938,0.021,3.188-0.083,4.021-1.917"/>
  <path d="M38.6-42.975c-3.437,0.078,14.375-2.75,14.812-2.25s-0.188,1.25-1.688,1.562S39.85-42.1,38.225-41.85    S41.35-43.038,38.6-42.975z"/>
  <path d="M52.017-49.059c-2.17,1.654-3.812,0.625-9.25,0.75s-12-0.438-7.188-1.438s7.125-1.188,10-0.75    S53.329-50.059,52.017-49.059z"/>
  <path d="M42.288-26.975c-2.667-0.381,6,0.438,8.312,0.25s3.188-0.438,3.188,0.062s-1.812,0.938-4,0.812s-5.938-0.688-6.812-0.5    S42.725-26.913,42.288-26.975z"/>
  <path d="M40.1-34.975c2.346,1.613,4.125,1.125,6.625,0.125s1.938-1,3.688-0.812s3.125-0.188,4.625-0.938s2.375-1.625,1.188-1.438    s-4.625,1.312-6.125,1.25s-2.938,0.25-4.312,0.812S39.1-35.663,40.1-34.975z"/>
  <path style="fill:none;stroke:#000000;stroke-width:0.3;stroke-linecap:square;" d="M5.267-1.6    C1.6-6.954,11.038-9.538,11.413-9.725c4.837-2.419,4.215-7.69-2.5-7.958c-6.25-0.25-3.375-3.25,3.5-4s6.253-3.542,5.878-6.292    s3.737-3.378-6.375-5.625c-1.125-0.25-3.125-0.375-4.125-1.75s-2-3.625,0.5-4.125s7.742-3.236,3.875-5.5    C2.413-50.684,14.35-53.038,5.267-56.1"/>
  <line y2="-12.724" style="fill:none;stroke:#000000;stroke-width:0.3;stroke-linecap:square;" x1="32.091" x2="14.352" y1="-30.484"/>
  <line y2="-15.18" style="fill:none;stroke:#000000;stroke-width:0.3;stroke-linecap:square;" x1="29.98" x2="14.208" y1="-30.97"/>
  <line y2="-54.219" style="fill:none;stroke:#000000;stroke-width:0.3;stroke-linecap:square;" x1="52.485" x2="50.606" y1="-56.1"/>
  <line y2="-16.541" style="fill:none;stroke:#000000;stroke-width:0.3;stroke-linecap:square;" x1="28.244" x2="12.972" y1="-31.831"/>
  <line y2="-54.173" style="fill:none;stroke:#000000;stroke-width:0.3;stroke-linecap:square;" x1="49.89" x2="47.965" y1="-56.1"/>
  <line y2="-40.884" style="fill:none;stroke:#000000;stroke-width:0.3;stroke-linecap:square;" x1="36.628" x2="34.691" y1="-42.823"/>
  <line y2="-24.249" style="fill:none;stroke:#000000;stroke-width:0.3;stroke-linecap:square;" x1="26.883" x2="18.076" y1="-33.067"/>
  <line y2="-22.811" style="fill:none;stroke:#000000;stroke-width:0.3;stroke-linecap:square;" x1="18.076" x2="16.639" y1="-24.249"/>
  <line y2="-17.308" style="fill:none;stroke:#000000;stroke-width:0.3;stroke-linecap:square;" x1="16.639" x2="11.143" y1="-22.811"/>
  <line y2="-54.252" style="fill:none;stroke:#000000;stroke-width:0.3;stroke-linecap:square;" x1="47.294" x2="45.448" y1="-56.1"/>
  <line y2="-40.213" style="fill:none;stroke:#000000;stroke-width:0.3;stroke-linecap:square;" x1="34.486" x2="31.425" y1="-43.277"/>
  <line y2="-27.111" style="fill:none;stroke:#000000;stroke-width:0.3;stroke-linecap:square;" x1="25.866" x2="18.339" y1="-34.647"/>
  <line y2="-17.637" style="fill:none;stroke:#000000;stroke-width:0.3;stroke-linecap:square;" x1="12.998" x2="8.875" y1="-21.765"/>
  <line y2="-54.238" style="fill:none;stroke:#000000;stroke-width:0.3;stroke-linecap:square;" x1="44.698" x2="42.837" y1="-56.1"/>
  <line y2="-39.604" style="fill:none;stroke:#000000;stroke-width:0.3;stroke-linecap:square;" x1="32.468" x2="28.221" y1="-43.856"/>
  <line y2="-30.036" style="fill:none;stroke:#000000;stroke-width:0.3;stroke-linecap:square;" x1="25.348" x2="18.664" y1="-36.728"/>
  <line y2="-17.967" style="fill:none;stroke:#000000;stroke-width:0.3;stroke-linecap:square;" x1="9.981" x2="6.608" y1="-21.344"/>
  <line y2="-54.223" style="fill:none;stroke:#000000;stroke-width:0.3;stroke-linecap:square;" x1="42.102" x2="40.227" y1="-56.1"/>
  <line y2="-31.804" style="fill:none;stroke:#000000;stroke-width:0.3;stroke-linecap:square;" x1="30.607" x2="17.833" y1="-44.593"/>
  <line y2="-54.083" style="fill:none;stroke:#000000;stroke-width:0.3;stroke-linecap:square;" x1="39.506" x2="37.492" y1="-56.1"/>
  <line y2="-32.508" style="fill:none;stroke:#000000;stroke-width:0.3;stroke-linecap:square;" x1="28.685" x2="15.941" y1="-45.266"/>
  <line y2="-53.85" style="fill:none;stroke:#000000;stroke-width:0.3;stroke-linecap:square;" x1="36.91" x2="34.663" y1="-56.1"/>
  <line y2="-33.026" style="fill:none;stroke:#000000;stroke-width:0.3;stroke-linecap:square;" x1="26.854" x2="13.862" y1="-46.033"/>
  <line y2="-53.21" style="fill:none;stroke:#000000;stroke-width:0.3;stroke-linecap:square;" x1="34.314" x2="31.428" y1="-56.1"/>
  <line y2="-33.605" style="fill:none;stroke:#000000;stroke-width:0.3;stroke-linecap:square;" x1="25.025" x2="11.845" y1="-46.8"/>
  <line y2="-52.57" style="fill:none;stroke:#000000;stroke-width:0.3;stroke-linecap:square;" x1="31.718" x2="28.192" y1="-56.1"/>
  <line y2="-34.091" style="fill:none;stroke:#000000;stroke-width:0.3;stroke-linecap:square;" x1="23.071" x2="9.734" y1="-47.443"/>
  <line y2="-52.493" style="fill:none;stroke:#000000;stroke-width:0.3;stroke-linecap:square;" x1="29.123" x2="25.52" y1="-56.1"/>
  <line y2="-35.015" style="fill:none;stroke:#000000;stroke-width:0.3;stroke-linecap:square;" x1="21.178" x2="8.061" y1="-48.146"/>
  <line y2="-52.666" style="fill:none;stroke:#000000;stroke-width:0.3;stroke-linecap:square;" x1="26.526" x2="23.097" y1="-56.1"/>
  <line y2="-43.161" style="fill:none;stroke:#000000;stroke-width:0.3;stroke-linecap:square;" x1="19.286" x2="13.602" y1="-48.852"/>
  <line y2="-36.563" style="fill:none;stroke:#000000;stroke-width:0.3;stroke-linecap:square;" x1="11.041" x2="7.012" y1="-40.597"/>
  <line y2="-52.839" style="fill:none;stroke:#000000;stroke-width:0.3;stroke-linecap:square;" x1="23.93" x2="20.673" y1="-56.1"/>
  <line y2="-44.71" style="fill:none;stroke:#000000;stroke-width:0.3;stroke-linecap:square;" x1="17.394" x2="12.554" y1="-49.556"/>
  <line y2="-52.825" style="fill:none;stroke:#000000;stroke-width:0.3;stroke-linecap:square;" x1="21.334" x2="18.063" y1="-56.1"/>
  <line y2="-45.696" style="fill:none;stroke:#000000;stroke-width:0.3;stroke-linecap:square;" x1="15.877" x2="10.942" y1="-50.636"/>
  <line y2="-46.838" style="fill:none;stroke:#000000;stroke-width:0.3;stroke-linecap:square;" x1="18.739" x2="9.487" y1="-56.1"/>
  <line y2="-48.324" style="fill:none;stroke:#000000;stroke-width:0.3;stroke-linecap:square;" x1="16.143" x2="8.376" y1="-56.1"/>
  <line y2="-50.687" style="fill:none;stroke:#000000;stroke-width:0.3;stroke-linecap:square;" x1="13.546" x2="8.139" y1="-56.1"/>
  <line y2="-53.923" style="fill:none;stroke:#000000;stroke-width:0.3;stroke-linecap:square;" x1="10.95" x2="8.776" y1="-56.1"/>
  <line y2="-55.16" style="fill:none;stroke:#000000;stroke-width:0.3;stroke-linecap:square;" x1="8.355" x2="7.416" y1="-56.1"/>
  <line y2="-25.655" style="fill:none;stroke:#000000;stroke-width:0.3;stroke-linecap:square;" x1="41.669" x2="40.232" y1="-27.094"/>
  <line y2="-38.475" style="fill:none;stroke:#000000;stroke-width:0.3;stroke-linecap:square;" x1="8.35" x2="25.975" y1="-56.1"/>
  <line y2="-25.381" style="fill:none;stroke:#000000;stroke-width:0.3;stroke-linecap:square;" x1="34.131" x2="39.069" y1="-30.319"/>
  <line y2="-8.038" style="fill:none;stroke:#000000;stroke-width:0.3;stroke-linecap:square;" x1="52.069" x2="56.413" y1="-12.381"/>
  <line y2="-51.663" style="fill:none;stroke:#000000;stroke-width:0.3;stroke-linecap:square;" x1="10.975" x2="15.413" y1="-56.1"/>
  <line y2="-39.475" style="fill:none;stroke:#000000;stroke-width:0.3;stroke-linecap:square;" x1="17.444" x2="27.6" y1="-49.631"/>
  <line y2="-25.913" style="fill:none;stroke:#000000;stroke-width:0.3;stroke-linecap:square;" x1="39.288" x2="41.163" y1="-27.788"/>
  <line y2="-52.756" style="fill:none;stroke:#000000;stroke-width:0.3;stroke-linecap:square;" x1="13.6" x2="16.944" y1="-56.1"/>
  <line y2="-40.038" style="fill:none;stroke:#000000;stroke-width:0.3;stroke-linecap:square;" x1="21.694" x2="29.663" y1="-48.006"/>
  <line y2="-52.975" style="fill:none;stroke:#000000;stroke-width:0.3;stroke-linecap:square;" x1="16.225" x2="19.35" y1="-56.1"/>
  <line y2="-40.288" style="fill:none;stroke:#000000;stroke-width:0.3;stroke-linecap:square;" x1="25.756" x2="32.038" y1="-46.569"/>
  <line y2="-52.819" style="fill:none;stroke:#000000;stroke-width:0.3;stroke-linecap:square;" x1="18.788" x2="22.069" y1="-56.1"/>
  <line y2="-40.788" style="fill:none;stroke:#000000;stroke-width:0.3;stroke-linecap:square;" x1="30.131" x2="34.1" y1="-44.756"/>
  <line y2="-52.569" style="fill:none;stroke:#000000;stroke-width:0.3;stroke-linecap:square;" x1="21.413" x2="24.944" y1="-56.1"/>
  <line y2="-41.444" style="fill:none;stroke:#000000;stroke-width:0.3;stroke-linecap:square;" x1="34.194" x2="36.069" y1="-43.319"/>
  <line y2="-52.6" style="fill:none;stroke:#000000;stroke-width:0.3;stroke-linecap:square;" x1="23.913" x2="27.413" y1="-56.1"/>
  <line y2="-41.788" style="fill:none;stroke:#000000;stroke-width:0.3;stroke-linecap:square;" x1="37.194" x2="38.225" y1="-42.819"/>
  <line y2="-52.913" style="fill:none;stroke:#000000;stroke-width:0.3;stroke-linecap:square;" x1="26.538" x2="29.725" y1="-56.1"/>
  <line y2="-53.288" style="fill:none;stroke:#000000;stroke-width:0.3;stroke-linecap:square;" x1="29.163" x2="31.975" y1="-56.1"/>
  <line y2="-53.819" style="fill:none;stroke:#000000;stroke-width:0.3;stroke-linecap:square;" x1="31.788" x2="34.069" y1="-56.1"/>
  <line y2="-54.038" style="fill:none;stroke:#000000;stroke-width:0.3;stroke-linecap:square;" x1="34.288" x2="36.35" y1="-56.1"/>
  <line y2="-54.163" style="fill:none;stroke:#000000;stroke-width:0.3;stroke-linecap:square;" x1="36.913" x2="38.85" y1="-56.1"/>
  <line y2="-54.225" style="fill:none;stroke:#000000;stroke-width:0.3;stroke-linecap:square;" x1="39.538" x2="41.413" y1="-56.1"/>
  <line y2="-54.288" style="fill:none;stroke:#000000;stroke-width:0.3;stroke-linecap:square;" x1="42.163" x2="43.975" y1="-56.1"/>
  <line y2="-54.288" style="fill:none;stroke:#000000;stroke-width:0.3;stroke-linecap:square;" x1="44.663" x2="46.475" y1="-56.1"/>
  <line y2="-54.225" style="fill:none;stroke:#000000;stroke-width:0.3;stroke-linecap:square;" x1="47.288" x2="49.163" y1="-56.1"/>
  <line y2="-54.319" style="fill:none;stroke:#000000;stroke-width:0.3;stroke-linecap:square;" x1="49.913" x2="51.694" y1="-56.1"/>
  <line y2="-55.038" style="fill:none;stroke:#000000;stroke-width:0.3;stroke-linecap:square;" x1="52.538" x2="53.6" y1="-56.1"/>
  <line y2="-36.374" style="fill:none;stroke:#000000;stroke-width:0.3;stroke-linecap:square;" x1="8.905" x2="25.499" y1="-52.967"/>
  <line y2="-24.53" style="fill:none;stroke:#000000;stroke-width:0.3;stroke-linecap:square;" x1="31.155" x2="37.343" y1="-30.717"/>
  <line y2="-5.998" style="fill:none;stroke:#000000;stroke-width:0.3;stroke-linecap:square;" x1="48.28" x2="55.874" y1="-13.592"/>
  <line y2="-23.092" style="fill:none;stroke:#000000;stroke-width:0.3;stroke-linecap:square;" x1="8.249" x2="36.218" y1="-51.061"/>
  <line y2="-3.999" style="fill:none;stroke:#000000;stroke-width:0.3;stroke-linecap:square;" x1="41.062" x2="55.312" y1="-18.249"/>
  <line y2="-45.749" style="fill:none;stroke:#000000;stroke-width:0.3;stroke-linecap:square;" x1="8.343" x2="10.999" y1="-48.405"/>
  <line y2="-43.124" style="fill:none;stroke:#000000;stroke-width:0.3;stroke-linecap:square;" x1="10.999" x2="13.624" y1="-45.749"/>
  <line y2="-2.092" style="fill:none;stroke:#000000;stroke-width:0.3;stroke-linecap:square;" x1="13.624" x2="54.655" y1="-43.124"/>
  <line y2="-32.405" style="fill:none;stroke:#000000;stroke-width:0.3;stroke-linecap:square;" x1="9.155" x2="16.53" y1="-39.78"/>
  <line y2="-33.374" style="fill:none;stroke:#000000;stroke-width:0.3;stroke-linecap:square;" x1="7.249" x2="12.936" y1="-39.061"/>
  <line y2="-34.186" style="fill:none;stroke:#000000;stroke-width:0.3;stroke-linecap:square;" x1="7.062" x2="9.561" y1="-36.686"/>
  <line y2="-17.53" style="fill:none;stroke:#000000;stroke-width:0.3;stroke-linecap:square;" x1="7.53" x2="10.593" y1="-20.592"/>
  <line y2="-17.905" style="fill:none;stroke:#000000;stroke-width:0.3;stroke-linecap:square;" x1="5.874" x2="7.593" y1="-19.624"/>
  <line y2="-1.616" style="fill:none;stroke:#000000;stroke-width:0.3;stroke-linecap:square;" x1="4.676" x2="5.819" y1="-2.733"/>
  <line y2="-9.691" style="fill:none;stroke:#000000;stroke-width:0.3;stroke-linecap:square;" x1="4.607" x2="11.322" y1="-2.969"/>
  <line y2="-4.44" style="fill:none;stroke:#000000;stroke-width:0.3;stroke-linecap:square;" x1="52.474" x2="55.385" y1="-1.6"/>
  <line y2="-1.6" style="fill:none;stroke:#000000;stroke-width:0.3;stroke-linecap:square;" x1="56.46" x2="49.874" y1="-8.115"/>
  <line y2="-1.6" style="fill:none;stroke:#000000;stroke-width:0.3;stroke-linecap:square;" x1="55.942" x2="47.279" y1="-10.196"/>
  <line y2="-1.6" style="fill:none;stroke:#000000;stroke-width:0.3;stroke-linecap:square;" x1="54.394" x2="44.685" y1="-11.244"/>
  <line y2="-1.6" style="fill:none;stroke:#000000;stroke-width:0.3;stroke-linecap:square;" x1="52.689" x2="42.091" y1="-12.137"/>
  <line y2="-1.6" style="fill:none;stroke:#000000;stroke-width:0.3;stroke-linecap:square;" x1="50.734" x2="39.498" y1="-12.778"/>
  <line y2="-1.6" style="fill:none;stroke:#000000;stroke-width:0.3;stroke-linecap:square;" x1="48.749" x2="36.903" y1="-13.39"/>
  <line y2="-1.6" style="fill:none;stroke:#000000;stroke-width:0.3;stroke-linecap:square;" x1="47.043" x2="34.295" y1="-14.282"/>
  <line y2="-1.6" style="fill:none;stroke:#000000;stroke-width:0.3;stroke-linecap:square;" x1="45.776" x2="31.7" y1="-15.612"/>
  <line y2="-1.6" style="fill:none;stroke:#000000;stroke-width:0.3;stroke-linecap:square;" x1="44.415" x2="29.106" y1="-16.848"/>
  <line y2="-1.6" style="fill:none;stroke:#000000;stroke-width:0.3;stroke-linecap:square;" x1="42.71" x2="26.512" y1="-17.74"/>
  <line y2="-1.6" style="fill:none;stroke:#000000;stroke-width:0.3;stroke-linecap:square;" x1="40.724" x2="23.92" y1="-18.351"/>
  <line y2="-1.6" style="fill:none;stroke:#000000;stroke-width:0.3;stroke-linecap:square;" x1="38.989" x2="21.325" y1="-19.212"/>
  <line y2="-1.6" style="fill:none;stroke:#000000;stroke-width:0.3;stroke-linecap:square;" x1="37.534" x2="18.73" y1="-20.354"/>
  <line y2="-1.6" style="fill:none;stroke:#000000;stroke-width:0.3;stroke-linecap:square;" x1="36.36" x2="16.122" y1="-21.778"/>
  <line y2="-1.6" style="fill:none;stroke:#000000;stroke-width:0.3;stroke-linecap:square;" x1="39.652" x2="13.527" y1="-27.673"/>
  <line y2="-1.6" style="fill:none;stroke:#000000;stroke-width:0.3;stroke-linecap:square;" x1="37.729" x2="10.934" y1="-28.347"/>
  <line y2="-1.6" style="fill:none;stroke:#000000;stroke-width:0.3;stroke-linecap:square;" x1="36.337" x2="8.34" y1="-29.552"/>
  <line y2="-30.131" style="fill:none;stroke:#000000;stroke-width:0.3;stroke-linecap:square;" x1="5.816" x2="34.319" y1="-1.608"/>
  <line y2="-41.561" style="fill:none;stroke:#000000;stroke-width:0.3;stroke-linecap:square;" x1="52.543" x2="12.561" y1="-1.6"/>
  <line y2="-1.6" style="fill:none;stroke:#000000;stroke-width:0.3;stroke-linecap:square;" x1="10.968" x2="49.919" y1="-40.592"/>
  <line y2="-1.6" style="fill:none;stroke:#000000;stroke-width:0.3;stroke-linecap:square;" x1="18.718" x2="47.294" y1="-30.217"/>
  <line y2="-1.6" style="fill:none;stroke:#000000;stroke-width:0.3;stroke-linecap:square;" x1="18.312" x2="44.669" y1="-27.999"/>
  <line y2="-1.6" style="fill:none;stroke:#000000;stroke-width:0.3;stroke-linecap:square;" x1="18.437" x2="42.168" y1="-25.311"/>
  <line y2="-1.6" style="fill:none;stroke:#000000;stroke-width:0.3;stroke-linecap:square;" x1="17.687" x2="39.544" y1="-23.499"/>
  <line y2="-22.561" style="fill:none;stroke:#000000;stroke-width:0.3;stroke-linecap:square;" x1="36.918" x2="15.936" y1="-1.6"/>
  <line y2="-1.6" style="fill:none;stroke:#000000;stroke-width:0.3;stroke-linecap:square;" x1="13.905" x2="34.294" y1="-22.03"/>
  <line y2="-1.6" style="fill:none;stroke:#000000;stroke-width:0.3;stroke-linecap:square;" x1="11.718" x2="31.793" y1="-21.655"/>
  <line y2="-1.6" style="fill:none;stroke:#000000;stroke-width:0.3;stroke-linecap:square;" x1="9.499" x2="29.168" y1="-21.249"/>
  <line y2="-1.6" style="fill:none;stroke:#000000;stroke-width:0.3;stroke-linecap:square;" x1="14.53" x2="26.542" y1="-13.592"/>
  <line y2="-11.686" style="fill:none;stroke:#000000;stroke-width:0.3;stroke-linecap:square;" x1="23.918" x2="13.811" y1="-1.6"/>
  <line y2="-1.6" style="fill:none;stroke:#000000;stroke-width:0.3;stroke-linecap:square;" x1="12.53" x2="21.417" y1="-10.467"/>
  <line y2="-1.6" style="fill:none;stroke:#000000;stroke-width:0.3;stroke-linecap:square;" x1="10.811" x2="18.792" y1="-9.561"/>
  <line y2="-8.811" style="fill:none;stroke:#000000;stroke-width:0.3;stroke-linecap:square;" x1="16.23" x2="8.999" y1="-1.6"/>
  <line y2="-1.6" style="fill:none;stroke:#000000;stroke-width:0.3;stroke-linecap:square;" x1="7.249" x2="13.605" y1="-7.936"/>
  <line y2="-6.811" style="fill:none;stroke:#000000;stroke-width:0.3;stroke-linecap:square;" x1="10.983" x2="5.812" y1="-1.6"/>
  <line y2="-1.6" style="fill:none;stroke:#000000;stroke-width:0.3;stroke-linecap:square;" x1="4.718" x2="8.358" y1="-5.28"/>
 </g>
</svg>
