<?xml version="1.0"?>
<!-- Converted with SVG Converter - Version 0.9.5 (Compiled Fri Feb 21 09:53:38 2020) - Copyright (C) 2011 Nokia -->
<svg xmlns="http://www.w3.org/2000/svg" viewBox="0 0 84.482208 86" height="107.5" id="svg6843" baseProfile="tiny" version="1.2" width="105.60276" xmlns:xlink="http://www.w3.org/1999/xlink">
 <metadata id="metadata7179"/>
 <defs id="defs6845"/>
 <g transform="translate(-255.3585,-377.89844)" id="g6993">
  <path transform="matrix(1,0,0,-1,0,842)" id="path6995" d="m 255.5,464.30078 0,-86.19922" style="fill:none;stroke:#000000;stroke-width:0.28299001;stroke-linecap:butt;stroke-linejoin:round;stroke-miterlimit:10;stroke-opacity:1"/>
 </g>
 <g transform="translate(-255.3585,-377.89844)" id="g6997">
  <path transform="matrix(1,0,0,-1,0,842)" id="path6999" d="m 257.60156,464.30078 0,-86.19922" style="fill:none;stroke:#000000;stroke-width:0.28299001;stroke-linecap:butt;stroke-linejoin:round;stroke-miterlimit:10;stroke-opacity:1"/>
 </g>
 <g transform="translate(-255.3585,-377.89844)" id="g7001">
  <path transform="matrix(1,0,0,-1,0,842)" id="path7003" d="m 259.39844,464.30078 0,-86.19922" style="fill:none;stroke:#000000;stroke-width:0.28299001;stroke-linecap:butt;stroke-linejoin:round;stroke-miterlimit:10;stroke-opacity:1"/>
 </g>
 <g transform="translate(-255.3585,-377.89844)" id="g7005">
  <path transform="matrix(1,0,0,-1,0,842)" id="path7007" d="m 261.10156,464.30078 0,-86.19922" style="fill:none;stroke:#000000;stroke-width:0.28299001;stroke-linecap:butt;stroke-linejoin:round;stroke-miterlimit:10;stroke-opacity:1"/>
 </g>
 <g transform="translate(-255.3585,-377.89844)" id="g7009">
  <path transform="matrix(1,0,0,-1,0,842)" id="path7011" d="m 263.19922,464.30078 0,-86.19922" style="fill:none;stroke:#000000;stroke-width:0.28299001;stroke-linecap:butt;stroke-linejoin:round;stroke-miterlimit:10;stroke-opacity:1"/>
 </g>
 <g transform="translate(-255.3585,-377.89844)" id="g7013">
  <path transform="matrix(1,0,0,-1,0,842)" id="path7015" d="m 265,464.30078 0,-86.19922" style="fill:none;stroke:#000000;stroke-width:0.28299001;stroke-linecap:butt;stroke-linejoin:round;stroke-miterlimit:10;stroke-opacity:1"/>
 </g>
 <g transform="translate(-255.3585,-377.89844)" id="g7017">
  <path transform="matrix(1,0,0,-1,0,842)" id="path7019" d="m 266.69922,464.30078 0,-86.19922" style="fill:none;stroke:#000000;stroke-width:0.28299001;stroke-linecap:butt;stroke-linejoin:round;stroke-miterlimit:10;stroke-opacity:1"/>
 </g>
 <g transform="translate(-255.3585,-377.89844)" id="g7021">
  <path transform="matrix(1,0,0,-1,0,842)" id="path7023" d="m 268.80078,464.30078 0,-86.19922" style="fill:none;stroke:#000000;stroke-width:0.28299001;stroke-linecap:butt;stroke-linejoin:round;stroke-miterlimit:10;stroke-opacity:1"/>
 </g>
 <g transform="translate(-255.3585,-377.89844)" id="g7025">
  <path transform="matrix(1,0,0,-1,0,842)" id="path7027" d="m 270.60156,464.30078 0,-86.19922" style="fill:none;stroke:#000000;stroke-width:0.28299001;stroke-linecap:butt;stroke-linejoin:round;stroke-miterlimit:10;stroke-opacity:1"/>
 </g>
 <g transform="translate(-255.3585,-377.89844)" id="g7029">
  <path transform="matrix(1,0,0,-1,0,842)" id="path7031" d="m 272.39844,464.30078 0,-86.19922" style="fill:none;stroke:#000000;stroke-width:0.28299001;stroke-linecap:butt;stroke-linejoin:round;stroke-miterlimit:10;stroke-opacity:1"/>
 </g>
 <g transform="translate(-255.3585,-377.89844)" id="g7033">
  <path transform="matrix(1,0,0,-1,0,842)" id="path7035" d="m 274.39844,464.30078 0,-86.19922" style="fill:none;stroke:#000000;stroke-width:0.28299001;stroke-linecap:butt;stroke-linejoin:round;stroke-miterlimit:10;stroke-opacity:1"/>
 </g>
 <g transform="translate(-255.3585,-377.89844)" id="g7037">
  <path transform="matrix(1,0,0,-1,0,842)" id="path7039" d="m 276.19922,464.30078 0,-86.19922" style="fill:none;stroke:#000000;stroke-width:0.28299001;stroke-linecap:butt;stroke-linejoin:round;stroke-miterlimit:10;stroke-opacity:1"/>
 </g>
 <g transform="translate(-255.3585,-377.89844)" id="g7041">
  <path transform="matrix(1,0,0,-1,0,842)" id="path7043" d="m 278,464.30078 0,-86.19922" style="fill:none;stroke:#000000;stroke-width:0.28299001;stroke-linecap:butt;stroke-linejoin:round;stroke-miterlimit:10;stroke-opacity:1"/>
 </g>
 <g transform="translate(-255.3585,-377.89844)" id="g7045">
  <path transform="matrix(1,0,0,-1,0,842)" id="path7047" d="m 280,464.30078 0,-86.19922" style="fill:none;stroke:#000000;stroke-width:0.28299001;stroke-linecap:butt;stroke-linejoin:round;stroke-miterlimit:10;stroke-opacity:1"/>
 </g>
 <g transform="translate(-255.3585,-377.89844)" id="g7049">
  <path transform="matrix(1,0,0,-1,0,842)" id="path7051" d="m 281.80078,464.30078 0,-86.19922" style="fill:none;stroke:#000000;stroke-width:0.28299001;stroke-linecap:butt;stroke-linejoin:round;stroke-miterlimit:10;stroke-opacity:1"/>
 </g>
 <g transform="translate(-255.3585,-377.89844)" id="g7053">
  <path transform="matrix(1,0,0,-1,0,842)" id="path7055" d="m 283.60156,464.30078 0,-86.19922" style="fill:none;stroke:#000000;stroke-width:0.28299001;stroke-linecap:butt;stroke-linejoin:round;stroke-miterlimit:10;stroke-opacity:1"/>
 </g>
 <g transform="translate(-255.3585,-377.89844)" id="g7057">
  <path transform="matrix(1,0,0,-1,0,842)" id="path7059" d="m 285.60156,464.30078 0,-86.19922" style="fill:none;stroke:#000000;stroke-width:0.28299001;stroke-linecap:butt;stroke-linejoin:round;stroke-miterlimit:10;stroke-opacity:1"/>
 </g>
 <g transform="translate(-255.3585,-377.89844)" id="g7061">
  <path transform="matrix(1,0,0,-1,0,842)" id="path7063" d="m 287.39844,464.30078 0,-86.19922" style="fill:none;stroke:#000000;stroke-width:0.28299001;stroke-linecap:butt;stroke-linejoin:round;stroke-miterlimit:10;stroke-opacity:1"/>
 </g>
 <g transform="translate(-255.3585,-377.89844)" id="g7065">
  <path transform="matrix(1,0,0,-1,0,842)" id="path7067" d="m 289.19922,464.30078 0,-86.19922" style="fill:none;stroke:#000000;stroke-width:0.28299001;stroke-linecap:butt;stroke-linejoin:round;stroke-miterlimit:10;stroke-opacity:1"/>
 </g>
 <g transform="translate(-255.3585,-377.89844)" id="g7069">
  <path transform="matrix(1,0,0,-1,0,842)" id="path7071" d="m 291.30078,464.30078 0,-86.19922" style="fill:none;stroke:#000000;stroke-width:0.28299001;stroke-linecap:butt;stroke-linejoin:round;stroke-miterlimit:10;stroke-opacity:1"/>
 </g>
 <g transform="translate(-255.3585,-377.89844)" id="g7073">
  <path transform="matrix(1,0,0,-1,0,842)" id="path7075" d="m 293,464.30078 0,-86.19922" style="fill:none;stroke:#000000;stroke-width:0.28299001;stroke-linecap:butt;stroke-linejoin:round;stroke-miterlimit:10;stroke-opacity:1"/>
 </g>
 <g transform="translate(-255.3585,-377.89844)" id="g7077">
  <path transform="matrix(1,0,0,-1,0,842)" id="path7079" d="m 294.80078,464.30078 0,-86.19922" style="fill:none;stroke:#000000;stroke-width:0.28299001;stroke-linecap:butt;stroke-linejoin:round;stroke-miterlimit:10;stroke-opacity:1"/>
 </g>
 <g transform="translate(-255.3585,-377.89844)" id="g7081">
  <path transform="matrix(1,0,0,-1,0,842)" id="path7083" d="m 296.89844,464.30078 0,-86.19922" style="fill:none;stroke:#000000;stroke-width:0.28299001;stroke-linecap:butt;stroke-linejoin:round;stroke-miterlimit:10;stroke-opacity:1"/>
 </g>
 <g transform="translate(-255.3585,-377.89844)" id="g7085">
  <path transform="matrix(1,0,0,-1,0,842)" id="path7087" d="m 298.60156,464.30078 0,-86.19922" style="fill:none;stroke:#000000;stroke-width:0.28299001;stroke-linecap:butt;stroke-linejoin:round;stroke-miterlimit:10;stroke-opacity:1"/>
 </g>
 <g transform="translate(-255.3585,-377.89844)" id="g7089">
  <path transform="matrix(1,0,0,-1,0,842)" id="path7091" d="m 300.39844,464.30078 0,-86.19922" style="fill:none;stroke:#000000;stroke-width:0.28299001;stroke-linecap:butt;stroke-linejoin:round;stroke-miterlimit:10;stroke-opacity:1"/>
 </g>
 <g transform="translate(-255.3585,-377.89844)" id="g7093">
  <path transform="matrix(1,0,0,-1,0,842)" id="path7095" d="m 302.5,464.30078 0,-86.19922" style="fill:none;stroke:#000000;stroke-width:0.28299001;stroke-linecap:butt;stroke-linejoin:round;stroke-miterlimit:10;stroke-opacity:1"/>
 </g>
 <g transform="translate(-255.3585,-377.89844)" id="g7097">
  <path transform="matrix(1,0,0,-1,0,842)" id="path7099" d="m 304.19922,464.30078 0,-86.19922" style="fill:none;stroke:#000000;stroke-width:0.28299001;stroke-linecap:butt;stroke-linejoin:round;stroke-miterlimit:10;stroke-opacity:1"/>
 </g>
 <g transform="translate(-255.3585,-377.89844)" id="g7101">
  <path transform="matrix(1,0,0,-1,0,842)" id="path7103" d="m 306,464.30078 0,-86.19922" style="fill:none;stroke:#000000;stroke-width:0.28299001;stroke-linecap:butt;stroke-linejoin:round;stroke-miterlimit:10;stroke-opacity:1"/>
 </g>
 <g transform="translate(-255.3585,-377.89844)" id="g7105">
  <path transform="matrix(1,0,0,-1,0,842)" id="path7107" d="m 308.10156,464.30078 0,-86.19922" style="fill:none;stroke:#000000;stroke-width:0.28299001;stroke-linecap:butt;stroke-linejoin:round;stroke-miterlimit:10;stroke-opacity:1"/>
 </g>
 <g transform="translate(-255.3585,-377.89844)" id="g7109">
  <path transform="matrix(1,0,0,-1,0,842)" id="path7111" d="m 309.89844,464.30078 0,-86.19922" style="fill:none;stroke:#000000;stroke-width:0.28299001;stroke-linecap:butt;stroke-linejoin:round;stroke-miterlimit:10;stroke-opacity:1"/>
 </g>
 <g transform="translate(-255.3585,-377.89844)" id="g7113">
  <path transform="matrix(1,0,0,-1,0,842)" id="path7115" d="m 311.60156,464.30078 0,-86.19922" style="fill:none;stroke:#000000;stroke-width:0.28299001;stroke-linecap:butt;stroke-linejoin:round;stroke-miterlimit:10;stroke-opacity:1"/>
 </g>
 <g transform="translate(-255.3585,-377.89844)" id="g7117">
  <path transform="matrix(1,0,0,-1,0,842)" id="path7119" d="m 313.69922,464.30078 0,-86.19922" style="fill:none;stroke:#000000;stroke-width:0.28299001;stroke-linecap:butt;stroke-linejoin:round;stroke-miterlimit:10;stroke-opacity:1"/>
 </g>
 <g transform="translate(-255.3585,-377.89844)" id="g7121">
  <path transform="matrix(1,0,0,-1,0,842)" id="path7123" d="m 315.5,464.30078 0,-86.19922" style="fill:none;stroke:#000000;stroke-width:0.28299001;stroke-linecap:butt;stroke-linejoin:round;stroke-miterlimit:10;stroke-opacity:1"/>
 </g>
 <g transform="translate(-255.3585,-377.89844)" id="g7125">
  <path transform="matrix(1,0,0,-1,0,842)" id="path7127" d="m 317.30078,464.30078 0,-86.19922" style="fill:none;stroke:#000000;stroke-width:0.28299001;stroke-linecap:butt;stroke-linejoin:round;stroke-miterlimit:10;stroke-opacity:1"/>
 </g>
 <g transform="translate(-255.3585,-377.89844)" id="g7129">
  <path transform="matrix(1,0,0,-1,0,842)" id="path7131" d="m 319.30078,464.30078 0,-86.19922" style="fill:none;stroke:#000000;stroke-width:0.28299001;stroke-linecap:butt;stroke-linejoin:round;stroke-miterlimit:10;stroke-opacity:1"/>
 </g>
 <g transform="translate(-255.3585,-377.89844)" id="g7133">
  <path transform="matrix(1,0,0,-1,0,842)" id="path7135" d="m 321.10156,464.30078 0,-86.19922" style="fill:none;stroke:#000000;stroke-width:0.28299001;stroke-linecap:butt;stroke-linejoin:round;stroke-miterlimit:10;stroke-opacity:1"/>
 </g>
 <g transform="translate(-255.3585,-377.89844)" id="g7137">
  <path transform="matrix(1,0,0,-1,0,842)" id="path7139" d="m 322.89844,464.30078 0,-86.19922" style="fill:none;stroke:#000000;stroke-width:0.28299001;stroke-linecap:butt;stroke-linejoin:round;stroke-miterlimit:10;stroke-opacity:1"/>
 </g>
 <g transform="translate(-255.3585,-377.89844)" id="g7141">
  <path transform="matrix(1,0,0,-1,0,842)" id="path7143" d="m 324.89844,464.30078 0,-86.19922" style="fill:none;stroke:#000000;stroke-width:0.28299001;stroke-linecap:butt;stroke-linejoin:round;stroke-miterlimit:10;stroke-opacity:1"/>
 </g>
 <g transform="translate(-255.3585,-377.89844)" id="g7145">
  <path transform="matrix(1,0,0,-1,0,842)" id="path7147" d="m 326.69922,464.30078 0,-86.19922" style="fill:none;stroke:#000000;stroke-width:0.28299001;stroke-linecap:butt;stroke-linejoin:round;stroke-miterlimit:10;stroke-opacity:1"/>
 </g>
 <g transform="translate(-255.3585,-377.89844)" id="g7149">
  <path transform="matrix(1,0,0,-1,0,842)" id="path7151" d="m 328.5,464.30078 0,-86.19922" style="fill:none;stroke:#000000;stroke-width:0.28299001;stroke-linecap:butt;stroke-linejoin:round;stroke-miterlimit:10;stroke-opacity:1"/>
 </g>
 <g transform="translate(-255.3585,-377.89844)" id="g7153">
  <path transform="matrix(1,0,0,-1,0,842)" id="path7155" d="m 330.5,464.30078 0,-86.19922" style="fill:none;stroke:#000000;stroke-width:0.28299001;stroke-linecap:butt;stroke-linejoin:round;stroke-miterlimit:10;stroke-opacity:1"/>
 </g>
 <g transform="translate(-255.3585,-377.89844)" id="g7157">
  <path transform="matrix(1,0,0,-1,0,842)" id="path7159" d="m 332.30078,464.30078 0,-86.19922" style="fill:none;stroke:#000000;stroke-width:0.28299001;stroke-linecap:butt;stroke-linejoin:round;stroke-miterlimit:10;stroke-opacity:1"/>
 </g>
 <g transform="translate(-255.3585,-377.89844)" id="g7161">
  <path transform="matrix(1,0,0,-1,0,842)" id="path7163" d="m 334.10156,464.30078 0,-86.19922" style="fill:none;stroke:#000000;stroke-width:0.28299001;stroke-linecap:butt;stroke-linejoin:round;stroke-miterlimit:10;stroke-opacity:1"/>
 </g>
 <g transform="translate(-255.3585,-377.89844)" id="g7165">
  <path transform="matrix(1,0,0,-1,0,842)" id="path7167" d="m 336.10156,464.30078 0,-86.19922" style="fill:none;stroke:#000000;stroke-width:0.28299001;stroke-linecap:butt;stroke-linejoin:round;stroke-miterlimit:10;stroke-opacity:1"/>
 </g>
 <g transform="translate(-255.3585,-377.89844)" id="g7169">
  <path transform="matrix(1,0,0,-1,0,842)" id="path7171" d="m 337.89844,464.30078 0,-86.19922" style="fill:none;stroke:#000000;stroke-width:0.28299001;stroke-linecap:butt;stroke-linejoin:round;stroke-miterlimit:10;stroke-opacity:1"/>
 </g>
 <g transform="translate(-255.3585,-377.89844)" id="g7173">
  <path transform="matrix(1,0,0,-1,0,842)" id="path7175" d="m 339.69922,464.30078 0,-86.19922" style="fill:none;stroke:#000000;stroke-width:0.28299001;stroke-linecap:butt;stroke-linejoin:round;stroke-miterlimit:10;stroke-opacity:1"/>
 </g>
</svg>
