<?xml version="1.0"?>
<!-- Converted with SVG Converter - Version 0.9.5 (Compiled Fri Feb 21 09:53:38 2020) - Copyright (C) 2011 Nokia -->
<svg xmlns="http://www.w3.org/2000/svg" version="1.2" xmlns:xlink="http://www.w3.org/1999/xlink" baseProfile="tiny" viewBox="0 0 62.601562 62.300781" id="svg18908" width="78.251953" height="77.875977">
 <metadata id="metadata19314"/>
 <defs id="defs18910"/>
 <path d="m 0,0.59766 c 0,0.30078 0.30078,0.30078 0.5,0.30078 0.40234,0 0.60156,0 0.60156,-0.30078 C 1.10156,0.30078 0.90234,0 0.5,0 0.30078,0 0,0.30078 0,0.59766 z m 0,0" style="fill:#000000;fill-opacity:1;fill-rule:evenodd;stroke:none" id="path18920"/>
 <path d="m 4.69922,0.59766 c 0,0.30078 0.30078,0.30078 0.60156,0.30078 0.30078,0 0.60156,0 0.60156,-0.30078 C 5.90234,0.30078 5.60156,0 5.30078,0 5,0 4.69922,0.30078 4.69922,0.59766 z m 0,0" style="fill:#000000;fill-opacity:1;fill-rule:evenodd;stroke:none" id="path18922"/>
 <path d="m 9.40234,0.59766 c 0,0.30078 0.29688,0.30078 0.59766,0.30078 0.30078,0 0.60156,0 0.60156,-0.30078 C 10.60156,0.30078 10.30078,0 10,0 9.69922,0 9.40234,0.30078 9.40234,0.59766 z m 0,0" style="fill:#000000;fill-opacity:1;fill-rule:evenodd;stroke:none" id="path18924"/>
 <path d="m 14.10156,0.59766 c 0,0.30078 0.30078,0.30078 0.59766,0.30078 0.30078,0 0.60156,0 0.60156,-0.30078 C 15.30078,0.30078 15,0 14.69922,0 14.40234,0 14.10156,0.30078 14.10156,0.59766 z m 0,0" style="fill:#000000;fill-opacity:1;fill-rule:evenodd;stroke:none" id="path18926"/>
 <path d="m 18.90234,0.59766 c 0,0.30078 0.29688,0.30078 0.5,0.30078 0.29688,0 0.59766,0 0.59766,-0.30078 C 20,0.30078 19.69922,0 19.40234,0 c -0.20312,0 -0.5,0.30078 -0.5,0.59766 z m 0,0" style="fill:#000000;fill-opacity:1;fill-rule:evenodd;stroke:none" id="path18928"/>
 <path d="m 23.60156,0.59766 c 0,0.30078 0.30078,0.30078 0.59766,0.30078 0.30078,0 0.60156,0 0.60156,-0.30078 C 24.80078,0.30078 24.5,0 24.19922,0 23.90234,0 23.60156,0.30078 23.60156,0.59766 z m 0,0" style="fill:#000000;fill-opacity:1;fill-rule:evenodd;stroke:none" id="path18930"/>
 <path d="m 28.30078,0.59766 c 0,0.30078 0.30078,0.30078 0.60156,0.30078 0.29688,0 0.59766,0 0.59766,-0.30078 C 29.5,0.30078 29.19922,0 28.90234,0 28.60156,0 28.30078,0.30078 28.30078,0.59766 z m 0,0" style="fill:#000000;fill-opacity:1;fill-rule:evenodd;stroke:none" id="path18932"/>
 <path d="m 33,0.59766 c 0,0.30078 0.30078,0.30078 0.60156,0.30078 0.30078,0 0.59766,0 0.59766,-0.30078 C 34.19922,0.30078 33.90234,0 33.60156,0 33.30078,0 33,0.30078 33,0.59766 z m 0,0" style="fill:#000000;fill-opacity:1;fill-rule:evenodd;stroke:none" id="path18934"/>
 <path d="m 37.80078,0.59766 c 0,0.30078 0.19922,0.30078 0.60156,0.30078 0.19922,0 0.5,0 0.5,-0.30078 C 38.90234,0.30078 38.60156,0 38.40234,0 38,0 37.80078,0.30078 37.80078,0.59766 z m 0,0" style="fill:#000000;fill-opacity:1;fill-rule:evenodd;stroke:none" id="path18936"/>
 <path d="m 42.5,0.59766 c 0,0.30078 0.30078,0.30078 0.60156,0.30078 0.30078,0 0.59766,0 0.59766,-0.30078 C 43.69922,0.30078 43.40234,0 43.10156,0 42.80078,0 42.5,0.30078 42.5,0.59766 z m 0,0" style="fill:#000000;fill-opacity:1;fill-rule:evenodd;stroke:none" id="path18938"/>
 <path d="m 47.19922,0.59766 c 0,0.30078 0.30078,0.30078 0.60156,0.30078 0.30078,0 0.60156,0 0.60156,-0.30078 C 48.40234,0.30078 48.10156,0 47.80078,0 47.5,0 47.19922,0.30078 47.19922,0.59766 z m 0,0" style="fill:#000000;fill-opacity:1;fill-rule:evenodd;stroke:none" id="path18940"/>
 <path d="m 51.90234,0.59766 c 0,0.30078 0.29688,0.30078 0.59766,0.30078 0.30078,0 0.60156,0 0.60156,-0.30078 C 53.10156,0.30078 52.80078,0 52.5,0 52.19922,0 51.90234,0.30078 51.90234,0.59766 z m 0,0" style="fill:#000000;fill-opacity:1;fill-rule:evenodd;stroke:none" id="path18942"/>
 <path d="m 56.69922,0.59766 c 0,0.30078 0.20312,0.30078 0.5,0.30078 0.30078,0 0.60156,0 0.60156,-0.30078 C 57.80078,0.30078 57.5,0 57.19922,0 c -0.29688,0 -0.5,0.30078 -0.5,0.59766 z m 0,0" style="fill:#000000;fill-opacity:1;fill-rule:evenodd;stroke:none" id="path18944"/>
 <path d="m 61.40234,0.59766 c 0,0.30078 0.29688,0.30078 0.59766,0.30078 0.30078,0 0.60156,0 0.60156,-0.30078 C 62.60156,0.30078 62.30078,0 62,0 61.69922,0 61.40234,0.30078 61.40234,0.59766 z m 0,0" style="fill:#000000;fill-opacity:1;fill-rule:evenodd;stroke:none" id="path18946"/>
 <path d="M 0,5 C 0,5.30078 0.30078,5.59766 0.5,5.59766 0.90234,5.59766 1.10156,5.30078 1.10156,5 1.10156,4.69922 0.90234,4.69922 0.5,4.69922 0.30078,4.69922 0,4.69922 0,5 z m 0,0" style="fill:#000000;fill-opacity:1;fill-rule:evenodd;stroke:none" id="path18948"/>
 <path d="M 4.69922,5 C 4.69922,5.30078 5,5.59766 5.30078,5.59766 5.60156,5.59766 5.90234,5.30078 5.90234,5 5.90234,4.69922 5.60156,4.69922 5.30078,4.69922 5,4.69922 4.69922,4.69922 4.69922,5 z m 0,0" style="fill:#000000;fill-opacity:1;fill-rule:evenodd;stroke:none" id="path18950"/>
 <path d="m 9.40234,5 c 0,0.30078 0.29688,0.59766 0.59766,0.59766 0.30078,0 0.60156,-0.29688 0.60156,-0.59766 0,-0.30078 -0.30078,-0.30078 -0.60156,-0.30078 -0.30078,0 -0.59766,0 -0.59766,0.30078 z m 0,0" style="fill:#000000;fill-opacity:1;fill-rule:evenodd;stroke:none" id="path18952"/>
 <path d="m 14.10156,5 c 0,0.30078 0.30078,0.59766 0.59766,0.59766 C 15,5.59766 15.30078,5.30078 15.30078,5 15.30078,4.69922 15,4.69922 14.69922,4.69922 c -0.29688,0 -0.59766,0 -0.59766,0.30078 z m 0,0" style="fill:#000000;fill-opacity:1;fill-rule:evenodd;stroke:none" id="path18954"/>
 <path d="m 18.90234,5 c 0,0.30078 0.29688,0.59766 0.5,0.59766 C 19.69922,5.59766 20,5.30078 20,5 20,4.69922 19.69922,4.69922 19.40234,4.69922 c -0.20312,0 -0.5,0 -0.5,0.30078 z m 0,0" style="fill:#000000;fill-opacity:1;fill-rule:evenodd;stroke:none" id="path18956"/>
 <path d="m 23.60156,5 c 0,0.30078 0.30078,0.59766 0.59766,0.59766 0.30078,0 0.60156,-0.29688 0.60156,-0.59766 0,-0.30078 -0.30078,-0.30078 -0.60156,-0.30078 -0.29688,0 -0.59766,0 -0.59766,0.30078 z m 0,0" style="fill:#000000;fill-opacity:1;fill-rule:evenodd;stroke:none" id="path18958"/>
 <path d="m 28.30078,5 c 0,0.30078 0.30078,0.59766 0.60156,0.59766 C 29.19922,5.59766 29.5,5.30078 29.5,5 c 0,-0.30078 -0.30078,-0.30078 -0.59766,-0.30078 -0.30078,0 -0.60156,0 -0.60156,0.30078 z m 0,0" style="fill:#000000;fill-opacity:1;fill-rule:evenodd;stroke:none" id="path18960"/>
 <path d="m 33,5 c 0,0.30078 0.30078,0.59766 0.60156,0.59766 0.30078,0 0.59766,-0.29688 0.59766,-0.59766 0,-0.30078 -0.29688,-0.30078 -0.59766,-0.30078 C 33.30078,4.69922 33,4.69922 33,5 z m 0,0" style="fill:#000000;fill-opacity:1;fill-rule:evenodd;stroke:none" id="path18962"/>
 <path d="m 37.80078,5 c 0,0.30078 0.19922,0.59766 0.60156,0.59766 0.19922,0 0.5,-0.29688 0.5,-0.59766 0,-0.30078 -0.30078,-0.30078 -0.5,-0.30078 -0.40234,0 -0.60156,0 -0.60156,0.30078 z m 0,0" style="fill:#000000;fill-opacity:1;fill-rule:evenodd;stroke:none" id="path18964"/>
 <path d="m 42.5,5 c 0,0.30078 0.30078,0.59766 0.60156,0.59766 0.30078,0 0.59766,-0.29688 0.59766,-0.59766 0,-0.30078 -0.29688,-0.30078 -0.59766,-0.30078 -0.30078,0 -0.60156,0 -0.60156,0.30078 z m 0,0" style="fill:#000000;fill-opacity:1;fill-rule:evenodd;stroke:none" id="path18966"/>
 <path d="m 47.19922,5 c 0,0.30078 0.30078,0.59766 0.60156,0.59766 0.30078,0 0.60156,-0.29688 0.60156,-0.59766 0,-0.30078 -0.30078,-0.30078 -0.60156,-0.30078 -0.30078,0 -0.60156,0 -0.60156,0.30078 z m 0,0" style="fill:#000000;fill-opacity:1;fill-rule:evenodd;stroke:none" id="path18968"/>
 <path d="m 51.90234,5 c 0,0.30078 0.29688,0.59766 0.59766,0.59766 0.30078,0 0.60156,-0.29688 0.60156,-0.59766 0,-0.30078 -0.30078,-0.30078 -0.60156,-0.30078 -0.30078,0 -0.59766,0 -0.59766,0.30078 z m 0,0" style="fill:#000000;fill-opacity:1;fill-rule:evenodd;stroke:none" id="path18970"/>
 <path d="m 56.69922,5 c 0,0.30078 0.20312,0.59766 0.5,0.59766 0.30078,0 0.60156,-0.29688 0.60156,-0.59766 0,-0.30078 -0.30078,-0.30078 -0.60156,-0.30078 -0.29688,0 -0.5,0 -0.5,0.30078 z m 0,0" style="fill:#000000;fill-opacity:1;fill-rule:evenodd;stroke:none" id="path18972"/>
 <path d="m 61.40234,5 c 0,0.30078 0.29688,0.59766 0.59766,0.59766 0.30078,0 0.60156,-0.29688 0.60156,-0.59766 0,-0.30078 -0.30078,-0.30078 -0.60156,-0.30078 -0.30078,0 -0.59766,0 -0.59766,0.30078 z m 0,0" style="fill:#000000;fill-opacity:1;fill-rule:evenodd;stroke:none" id="path18974"/>
 <path d="M 0,9.69922 C 0,10 0.30078,10.30078 0.5,10.30078 0.90234,10.30078 1.10156,10 1.10156,9.69922 1.10156,9.39844 0.90234,9.39844 0.5,9.39844 c -0.19922,0 -0.5,0 -0.5,0.30078 z m 0,0" style="fill:#000000;fill-opacity:1;fill-rule:evenodd;stroke:none" id="path18976"/>
 <path d="M 4.69922,9.69922 C 4.69922,10 5,10.30078 5.30078,10.30078 c 0.30078,0 0.60156,-0.30078 0.60156,-0.60156 0,-0.30078 -0.30078,-0.30078 -0.60156,-0.30078 -0.30078,0 -0.60156,0 -0.60156,0.30078 z m 0,0" style="fill:#000000;fill-opacity:1;fill-rule:evenodd;stroke:none" id="path18978"/>
 <path d="m 9.40234,9.69922 c 0,0.30078 0.29688,0.60156 0.59766,0.60156 0.30078,0 0.60156,-0.30078 0.60156,-0.60156 0,-0.30078 -0.30078,-0.30078 -0.60156,-0.30078 -0.30078,0 -0.59766,0 -0.59766,0.30078 z m 0,0" style="fill:#000000;fill-opacity:1;fill-rule:evenodd;stroke:none" id="path18980"/>
 <path d="m 14.10156,9.69922 c 0,0.30078 0.30078,0.60156 0.59766,0.60156 C 15,10.30078 15.30078,10 15.30078,9.69922 15.30078,9.39844 15,9.39844 14.69922,9.39844 c -0.29688,0 -0.59766,0 -0.59766,0.30078 z m 0,0" style="fill:#000000;fill-opacity:1;fill-rule:evenodd;stroke:none" id="path18982"/>
 <path d="m 18.90234,9.69922 c 0,0.30078 0.29688,0.60156 0.5,0.60156 C 19.69922,10.30078 20,10 20,9.69922 20,9.39844 19.69922,9.39844 19.40234,9.39844 c -0.20312,0 -0.5,0 -0.5,0.30078 z m 0,0" style="fill:#000000;fill-opacity:1;fill-rule:evenodd;stroke:none" id="path18984"/>
 <path d="m 23.60156,9.69922 c 0,0.30078 0.30078,0.60156 0.59766,0.60156 0.30078,0 0.60156,-0.30078 0.60156,-0.60156 0,-0.30078 -0.30078,-0.30078 -0.60156,-0.30078 -0.29688,0 -0.59766,0 -0.59766,0.30078 z m 0,0" style="fill:#000000;fill-opacity:1;fill-rule:evenodd;stroke:none" id="path18986"/>
 <path d="m 28.30078,9.69922 c 0,0.30078 0.30078,0.60156 0.60156,0.60156 C 29.19922,10.30078 29.5,10 29.5,9.69922 c 0,-0.30078 -0.30078,-0.30078 -0.59766,-0.30078 -0.30078,0 -0.60156,0 -0.60156,0.30078 z m 0,0" style="fill:#000000;fill-opacity:1;fill-rule:evenodd;stroke:none" id="path18988"/>
 <path d="m 33,9.69922 c 0,0.30078 0.30078,0.60156 0.60156,0.60156 0.30078,0 0.59766,-0.30078 0.59766,-0.60156 0,-0.30078 -0.29688,-0.30078 -0.59766,-0.30078 -0.30078,0 -0.60156,0 -0.60156,0.30078 z m 0,0" style="fill:#000000;fill-opacity:1;fill-rule:evenodd;stroke:none" id="path18990"/>
 <path d="m 37.80078,9.69922 c 0,0.30078 0.19922,0.60156 0.60156,0.60156 0.19922,0 0.5,-0.30078 0.5,-0.60156 0,-0.30078 -0.30078,-0.30078 -0.5,-0.30078 -0.40234,0 -0.60156,0 -0.60156,0.30078 z m 0,0" style="fill:#000000;fill-opacity:1;fill-rule:evenodd;stroke:none" id="path18992"/>
 <path d="m 42.5,9.69922 c 0,0.30078 0.30078,0.60156 0.60156,0.60156 0.30078,0 0.59766,-0.30078 0.59766,-0.60156 0,-0.30078 -0.29688,-0.30078 -0.59766,-0.30078 -0.30078,0 -0.60156,0 -0.60156,0.30078 z m 0,0" style="fill:#000000;fill-opacity:1;fill-rule:evenodd;stroke:none" id="path18994"/>
 <path d="m 47.19922,9.69922 c 0,0.30078 0.30078,0.60156 0.60156,0.60156 0.30078,0 0.60156,-0.30078 0.60156,-0.60156 0,-0.30078 -0.30078,-0.30078 -0.60156,-0.30078 -0.30078,0 -0.60156,0 -0.60156,0.30078 z m 0,0" style="fill:#000000;fill-opacity:1;fill-rule:evenodd;stroke:none" id="path18996"/>
 <path d="m 51.90234,9.69922 c 0,0.30078 0.29688,0.60156 0.59766,0.60156 0.30078,0 0.60156,-0.30078 0.60156,-0.60156 0,-0.30078 -0.30078,-0.30078 -0.60156,-0.30078 -0.30078,0 -0.59766,0 -0.59766,0.30078 z m 0,0" style="fill:#000000;fill-opacity:1;fill-rule:evenodd;stroke:none" id="path18998"/>
 <path d="m 56.69922,9.69922 c 0,0.30078 0.20312,0.60156 0.5,0.60156 0.30078,0 0.60156,-0.30078 0.60156,-0.60156 0,-0.30078 -0.30078,-0.30078 -0.60156,-0.30078 -0.29688,0 -0.5,0 -0.5,0.30078 z m 0,0" style="fill:#000000;fill-opacity:1;fill-rule:evenodd;stroke:none" id="path19000"/>
 <path d="m 61.40234,9.69922 c 0,0.30078 0.29688,0.60156 0.59766,0.60156 0.30078,0 0.60156,-0.30078 0.60156,-0.60156 0,-0.30078 -0.30078,-0.30078 -0.60156,-0.30078 -0.30078,0 -0.59766,0 -0.59766,0.30078 z m 0,0" style="fill:#000000;fill-opacity:1;fill-rule:evenodd;stroke:none" id="path19002"/>
 <path d="M 0,14.39844 C 0,14.69922 0.30078,15 0.5,15 c 0.40234,0 0.60156,-0.30078 0.60156,-0.60156 0,-0.30078 -0.19922,-0.30078 -0.60156,-0.30078 -0.19922,0 -0.5,0 -0.5,0.30078 z m 0,0" style="fill:#000000;fill-opacity:1;fill-rule:evenodd;stroke:none" id="path19004"/>
 <path d="M 4.69922,14.39844 C 4.69922,14.69922 5,15 5.30078,15 c 0.30078,0 0.60156,-0.30078 0.60156,-0.60156 0,-0.30078 -0.30078,-0.30078 -0.60156,-0.30078 -0.30078,0 -0.60156,0 -0.60156,0.30078 z m 0,0" style="fill:#000000;fill-opacity:1;fill-rule:evenodd;stroke:none" id="path19006"/>
 <path d="M 9.40234,14.39844 C 9.40234,14.69922 9.69922,15 10,15 c 0.30078,0 0.60156,-0.30078 0.60156,-0.60156 0,-0.30078 -0.30078,-0.30078 -0.60156,-0.30078 -0.30078,0 -0.59766,0 -0.59766,0.30078 z m 0,0" style="fill:#000000;fill-opacity:1;fill-rule:evenodd;stroke:none" id="path19008"/>
 <path d="m 14.10156,14.39844 c 0,0.30078 0.30078,0.60156 0.59766,0.60156 0.30078,0 0.60156,-0.30078 0.60156,-0.60156 0,-0.30078 -0.30078,-0.30078 -0.60156,-0.30078 -0.29688,0 -0.59766,0 -0.59766,0.30078 z m 0,0" style="fill:#000000;fill-opacity:1;fill-rule:evenodd;stroke:none" id="path19010"/>
 <path d="m 18.90234,14.39844 c 0,0.30078 0.29688,0.60156 0.5,0.60156 C 19.69922,15 20,14.69922 20,14.39844 c 0,-0.30078 -0.30078,-0.30078 -0.59766,-0.30078 -0.20312,0 -0.5,0 -0.5,0.30078 z m 0,0" style="fill:#000000;fill-opacity:1;fill-rule:evenodd;stroke:none" id="path19012"/>
 <path d="m 23.60156,14.39844 c 0,0.30078 0.30078,0.60156 0.59766,0.60156 0.30078,0 0.60156,-0.30078 0.60156,-0.60156 0,-0.30078 -0.30078,-0.30078 -0.60156,-0.30078 -0.29688,0 -0.59766,0 -0.59766,0.30078 z m 0,0" style="fill:#000000;fill-opacity:1;fill-rule:evenodd;stroke:none" id="path19014"/>
 <path d="M 28.30078,14.39844 C 28.30078,14.69922 28.60156,15 28.90234,15 29.19922,15 29.5,14.69922 29.5,14.39844 c 0,-0.30078 -0.30078,-0.30078 -0.59766,-0.30078 -0.30078,0 -0.60156,0 -0.60156,0.30078 z m 0,0" style="fill:#000000;fill-opacity:1;fill-rule:evenodd;stroke:none" id="path19016"/>
 <path d="M 33,14.39844 C 33,14.69922 33.30078,15 33.60156,15 c 0.30078,0 0.59766,-0.30078 0.59766,-0.60156 0,-0.30078 -0.29688,-0.30078 -0.59766,-0.30078 -0.30078,0 -0.60156,0 -0.60156,0.30078 z m 0,0" style="fill:#000000;fill-opacity:1;fill-rule:evenodd;stroke:none" id="path19018"/>
 <path d="M 37.80078,14.39844 C 37.80078,14.69922 38,15 38.40234,15 c 0.19922,0 0.5,-0.30078 0.5,-0.60156 0,-0.30078 -0.30078,-0.30078 -0.5,-0.30078 -0.40234,0 -0.60156,0 -0.60156,0.30078 z m 0,0" style="fill:#000000;fill-opacity:1;fill-rule:evenodd;stroke:none" id="path19020"/>
 <path d="M 42.5,14.39844 C 42.5,14.69922 42.80078,15 43.10156,15 c 0.30078,0 0.59766,-0.30078 0.59766,-0.60156 0,-0.30078 -0.29688,-0.30078 -0.59766,-0.30078 -0.30078,0 -0.60156,0 -0.60156,0.30078 z m 0,0" style="fill:#000000;fill-opacity:1;fill-rule:evenodd;stroke:none" id="path19022"/>
 <path d="M 47.19922,14.39844 C 47.19922,14.69922 47.5,15 47.80078,15 c 0.30078,0 0.60156,-0.30078 0.60156,-0.60156 0,-0.30078 -0.30078,-0.30078 -0.60156,-0.30078 -0.30078,0 -0.60156,0 -0.60156,0.30078 z m 0,0" style="fill:#000000;fill-opacity:1;fill-rule:evenodd;stroke:none" id="path19024"/>
 <path d="M 51.90234,14.39844 C 51.90234,14.69922 52.19922,15 52.5,15 c 0.30078,0 0.60156,-0.30078 0.60156,-0.60156 0,-0.30078 -0.30078,-0.30078 -0.60156,-0.30078 -0.30078,0 -0.59766,0 -0.59766,0.30078 z m 0,0" style="fill:#000000;fill-opacity:1;fill-rule:evenodd;stroke:none" id="path19026"/>
 <path d="m 56.69922,14.39844 c 0,0.30078 0.20312,0.60156 0.5,0.60156 0.30078,0 0.60156,-0.30078 0.60156,-0.60156 0,-0.30078 -0.30078,-0.30078 -0.60156,-0.30078 -0.29688,0 -0.5,0 -0.5,0.30078 z m 0,0" style="fill:#000000;fill-opacity:1;fill-rule:evenodd;stroke:none" id="path19028"/>
 <path d="M 61.40234,14.39844 C 61.40234,14.69922 61.69922,15 62,15 c 0.30078,0 0.60156,-0.30078 0.60156,-0.60156 0,-0.30078 -0.30078,-0.30078 -0.60156,-0.30078 -0.30078,0 -0.59766,0 -0.59766,0.30078 z m 0,0" style="fill:#000000;fill-opacity:1;fill-rule:evenodd;stroke:none" id="path19030"/>
 <path d="m 0,19.19922 c 0,0.30078 0.30078,0.5 0.5,0.5 0.40234,0 0.60156,-0.19922 0.60156,-0.5 0,-0.30078 -0.19922,-0.60156 -0.60156,-0.60156 -0.19922,0 -0.5,0.30078 -0.5,0.60156 z m 0,0" style="fill:#000000;fill-opacity:1;fill-rule:evenodd;stroke:none" id="path19032"/>
 <path d="m 4.69922,19.19922 c 0,0.30078 0.30078,0.5 0.60156,0.5 0.30078,0 0.60156,-0.19922 0.60156,-0.5 0,-0.30078 -0.30078,-0.60156 -0.60156,-0.60156 -0.30078,0 -0.60156,0.30078 -0.60156,0.60156 z m 0,0" style="fill:#000000;fill-opacity:1;fill-rule:evenodd;stroke:none" id="path19034"/>
 <path d="m 9.40234,19.19922 c 0,0.30078 0.29688,0.5 0.59766,0.5 0.30078,0 0.60156,-0.19922 0.60156,-0.5 0,-0.30078 -0.30078,-0.60156 -0.60156,-0.60156 -0.30078,0 -0.59766,0.30078 -0.59766,0.60156 z m 0,0" style="fill:#000000;fill-opacity:1;fill-rule:evenodd;stroke:none" id="path19036"/>
 <path d="m 14.10156,19.19922 c 0,0.30078 0.30078,0.5 0.59766,0.5 0.30078,0 0.60156,-0.19922 0.60156,-0.5 0,-0.30078 -0.30078,-0.60156 -0.60156,-0.60156 -0.29688,0 -0.59766,0.30078 -0.59766,0.60156 z m 0,0" style="fill:#000000;fill-opacity:1;fill-rule:evenodd;stroke:none" id="path19038"/>
 <path d="m 18.90234,19.19922 c 0,0.30078 0.29688,0.5 0.5,0.5 0.29688,0 0.59766,-0.19922 0.59766,-0.5 0,-0.30078 -0.30078,-0.60156 -0.59766,-0.60156 -0.20312,0 -0.5,0.30078 -0.5,0.60156 z m 0,0" style="fill:#000000;fill-opacity:1;fill-rule:evenodd;stroke:none" id="path19040"/>
 <path d="m 23.60156,19.19922 c 0,0.30078 0.30078,0.5 0.59766,0.5 0.30078,0 0.60156,-0.19922 0.60156,-0.5 0,-0.30078 -0.30078,-0.60156 -0.60156,-0.60156 -0.29688,0 -0.59766,0.30078 -0.59766,0.60156 z m 0,0" style="fill:#000000;fill-opacity:1;fill-rule:evenodd;stroke:none" id="path19042"/>
 <path d="m 28.30078,19.19922 c 0,0.30078 0.30078,0.5 0.60156,0.5 0.29688,0 0.59766,-0.19922 0.59766,-0.5 0,-0.30078 -0.30078,-0.60156 -0.59766,-0.60156 -0.30078,0 -0.60156,0.30078 -0.60156,0.60156 z m 0,0" style="fill:#000000;fill-opacity:1;fill-rule:evenodd;stroke:none" id="path19044"/>
 <path d="m 33,19.19922 c 0,0.30078 0.30078,0.5 0.60156,0.5 0.30078,0 0.59766,-0.19922 0.59766,-0.5 0,-0.30078 -0.29688,-0.60156 -0.59766,-0.60156 C 33.30078,18.59766 33,18.89844 33,19.19922 z m 0,0" style="fill:#000000;fill-opacity:1;fill-rule:evenodd;stroke:none" id="path19046"/>
 <path d="m 37.80078,19.19922 c 0,0.30078 0.19922,0.5 0.60156,0.5 0.19922,0 0.5,-0.19922 0.5,-0.5 0,-0.30078 -0.30078,-0.60156 -0.5,-0.60156 -0.40234,0 -0.60156,0.30078 -0.60156,0.60156 z m 0,0" style="fill:#000000;fill-opacity:1;fill-rule:evenodd;stroke:none" id="path19048"/>
 <path d="m 42.5,19.19922 c 0,0.30078 0.30078,0.5 0.60156,0.5 0.30078,0 0.59766,-0.19922 0.59766,-0.5 0,-0.30078 -0.29688,-0.60156 -0.59766,-0.60156 -0.30078,0 -0.60156,0.30078 -0.60156,0.60156 z m 0,0" style="fill:#000000;fill-opacity:1;fill-rule:evenodd;stroke:none" id="path19050"/>
 <path d="m 47.19922,19.19922 c 0,0.30078 0.30078,0.5 0.60156,0.5 0.30078,0 0.60156,-0.19922 0.60156,-0.5 0,-0.30078 -0.30078,-0.60156 -0.60156,-0.60156 -0.30078,0 -0.60156,0.30078 -0.60156,0.60156 z m 0,0" style="fill:#000000;fill-opacity:1;fill-rule:evenodd;stroke:none" id="path19052"/>
 <path d="m 51.90234,19.19922 c 0,0.30078 0.29688,0.5 0.59766,0.5 0.30078,0 0.60156,-0.19922 0.60156,-0.5 0,-0.30078 -0.30078,-0.60156 -0.60156,-0.60156 -0.30078,0 -0.59766,0.30078 -0.59766,0.60156 z m 0,0" style="fill:#000000;fill-opacity:1;fill-rule:evenodd;stroke:none" id="path19054"/>
 <path d="m 56.69922,19.19922 c 0,0.30078 0.20312,0.5 0.5,0.5 0.30078,0 0.60156,-0.19922 0.60156,-0.5 0,-0.30078 -0.30078,-0.60156 -0.60156,-0.60156 -0.29688,0 -0.5,0.30078 -0.5,0.60156 z m 0,0" style="fill:#000000;fill-opacity:1;fill-rule:evenodd;stroke:none" id="path19056"/>
 <path d="m 61.40234,19.19922 c 0,0.30078 0.29688,0.5 0.59766,0.5 0.30078,0 0.60156,-0.19922 0.60156,-0.5 0,-0.30078 -0.30078,-0.60156 -0.60156,-0.60156 -0.30078,0 -0.59766,0.30078 -0.59766,0.60156 z m 0,0" style="fill:#000000;fill-opacity:1;fill-rule:evenodd;stroke:none" id="path19058"/>
 <path d="M 0,24.19922 C 0,24.5 0.30078,24.5 0.5,24.5 c 0.40234,0 0.60156,0 0.60156,-0.30078 0,-0.30078 -0.19922,-0.60156 -0.60156,-0.60156 -0.19922,0 -0.5,0.30078 -0.5,0.60156 z m 0,0" style="fill:#000000;fill-opacity:1;fill-rule:evenodd;stroke:none" id="path19060"/>
 <path d="M 4.69922,24.19922 C 4.69922,24.5 5,24.5 5.30078,24.5 c 0.30078,0 0.60156,0 0.60156,-0.30078 0,-0.30078 -0.30078,-0.60156 -0.60156,-0.60156 -0.30078,0 -0.60156,0.30078 -0.60156,0.60156 z m 0,0" style="fill:#000000;fill-opacity:1;fill-rule:evenodd;stroke:none" id="path19062"/>
 <path d="M 9.40234,24.19922 C 9.40234,24.5 9.69922,24.5 10,24.5 c 0.30078,0 0.60156,0 0.60156,-0.30078 0,-0.30078 -0.30078,-0.60156 -0.60156,-0.60156 -0.30078,0 -0.59766,0.30078 -0.59766,0.60156 z m 0,0" style="fill:#000000;fill-opacity:1;fill-rule:evenodd;stroke:none" id="path19064"/>
 <path d="m 14.10156,24.19922 c 0,0.30078 0.30078,0.30078 0.59766,0.30078 0.30078,0 0.60156,0 0.60156,-0.30078 0,-0.30078 -0.30078,-0.60156 -0.60156,-0.60156 -0.29688,0 -0.59766,0.30078 -0.59766,0.60156 z m 0,0" style="fill:#000000;fill-opacity:1;fill-rule:evenodd;stroke:none" id="path19066"/>
 <path d="m 18.90234,24.19922 c 0,0.30078 0.29688,0.30078 0.5,0.30078 0.29688,0 0.59766,0 0.59766,-0.30078 0,-0.30078 -0.30078,-0.60156 -0.59766,-0.60156 -0.20312,0 -0.5,0.30078 -0.5,0.60156 z m 0,0" style="fill:#000000;fill-opacity:1;fill-rule:evenodd;stroke:none" id="path19068"/>
 <path d="m 23.60156,24.19922 c 0,0.30078 0.30078,0.30078 0.59766,0.30078 0.30078,0 0.60156,0 0.60156,-0.30078 0,-0.30078 -0.30078,-0.60156 -0.60156,-0.60156 -0.29688,0 -0.59766,0.30078 -0.59766,0.60156 z m 0,0" style="fill:#000000;fill-opacity:1;fill-rule:evenodd;stroke:none" id="path19070"/>
 <path d="m 28.30078,24.19922 c 0,0.30078 0.30078,0.30078 0.60156,0.30078 0.29688,0 0.59766,0 0.59766,-0.30078 0,-0.30078 -0.30078,-0.60156 -0.59766,-0.60156 -0.30078,0 -0.60156,0.30078 -0.60156,0.60156 z m 0,0" style="fill:#000000;fill-opacity:1;fill-rule:evenodd;stroke:none" id="path19072"/>
 <path d="M 33,24.19922 C 33,24.5 33.30078,24.5 33.60156,24.5 c 0.30078,0 0.59766,0 0.59766,-0.30078 0,-0.30078 -0.29688,-0.60156 -0.59766,-0.60156 C 33.30078,23.59766 33,23.89844 33,24.19922 z m 0,0" style="fill:#000000;fill-opacity:1;fill-rule:evenodd;stroke:none" id="path19074"/>
 <path d="M 37.80078,24.19922 C 37.80078,24.5 38,24.5 38.40234,24.5 c 0.19922,0 0.5,0 0.5,-0.30078 0,-0.30078 -0.30078,-0.60156 -0.5,-0.60156 -0.40234,0 -0.60156,0.30078 -0.60156,0.60156 z m 0,0" style="fill:#000000;fill-opacity:1;fill-rule:evenodd;stroke:none" id="path19076"/>
 <path d="M 42.5,24.19922 C 42.5,24.5 42.80078,24.5 43.10156,24.5 c 0.30078,0 0.59766,0 0.59766,-0.30078 0,-0.30078 -0.29688,-0.60156 -0.59766,-0.60156 -0.30078,0 -0.60156,0.30078 -0.60156,0.60156 z m 0,0" style="fill:#000000;fill-opacity:1;fill-rule:evenodd;stroke:none" id="path19078"/>
 <path d="M 47.19922,24.19922 C 47.19922,24.5 47.5,24.5 47.80078,24.5 c 0.30078,0 0.60156,0 0.60156,-0.30078 0,-0.30078 -0.30078,-0.60156 -0.60156,-0.60156 -0.30078,0 -0.60156,0.30078 -0.60156,0.60156 z m 0,0" style="fill:#000000;fill-opacity:1;fill-rule:evenodd;stroke:none" id="path19080"/>
 <path d="M 51.90234,24.19922 C 51.90234,24.5 52.19922,24.5 52.5,24.5 c 0.30078,0 0.60156,0 0.60156,-0.30078 0,-0.30078 -0.30078,-0.60156 -0.60156,-0.60156 -0.30078,0 -0.59766,0.30078 -0.59766,0.60156 z m 0,0" style="fill:#000000;fill-opacity:1;fill-rule:evenodd;stroke:none" id="path19082"/>
 <path d="m 56.69922,24.19922 c 0,0.30078 0.20312,0.30078 0.5,0.30078 0.30078,0 0.60156,0 0.60156,-0.30078 0,-0.30078 -0.30078,-0.60156 -0.60156,-0.60156 -0.29688,0 -0.5,0.30078 -0.5,0.60156 z m 0,0" style="fill:#000000;fill-opacity:1;fill-rule:evenodd;stroke:none" id="path19084"/>
 <path d="M 61.40234,24.19922 C 61.40234,24.5 61.69922,24.5 62,24.5 c 0.30078,0 0.60156,0 0.60156,-0.30078 0,-0.30078 -0.30078,-0.60156 -0.60156,-0.60156 -0.30078,0 -0.59766,0.30078 -0.59766,0.60156 z m 0,0" style="fill:#000000;fill-opacity:1;fill-rule:evenodd;stroke:none" id="path19086"/>
 <path d="m 0,28.89844 c 0,0.30078 0.30078,0.30078 0.5,0.30078 0.40234,0 0.60156,0 0.60156,-0.30078 0,-0.30078 -0.19922,-0.59766 -0.60156,-0.59766 -0.19922,0 -0.5,0.29688 -0.5,0.59766 z m 0,0" style="fill:#000000;fill-opacity:1;fill-rule:evenodd;stroke:none" id="path19088"/>
 <path d="m 4.69922,28.89844 c 0,0.30078 0.30078,0.30078 0.60156,0.30078 0.30078,0 0.60156,0 0.60156,-0.30078 0,-0.30078 -0.30078,-0.59766 -0.60156,-0.59766 -0.30078,0 -0.60156,0.29688 -0.60156,0.59766 z m 0,0" style="fill:#000000;fill-opacity:1;fill-rule:evenodd;stroke:none" id="path19090"/>
 <path d="m 9.40234,28.89844 c 0,0.30078 0.29688,0.30078 0.59766,0.30078 0.30078,0 0.60156,0 0.60156,-0.30078 0,-0.30078 -0.30078,-0.59766 -0.60156,-0.59766 -0.30078,0 -0.59766,0.29688 -0.59766,0.59766 z m 0,0" style="fill:#000000;fill-opacity:1;fill-rule:evenodd;stroke:none" id="path19092"/>
 <path d="m 14.10156,28.89844 c 0,0.30078 0.30078,0.30078 0.59766,0.30078 0.30078,0 0.60156,0 0.60156,-0.30078 0,-0.30078 -0.30078,-0.59766 -0.60156,-0.59766 -0.29688,0 -0.59766,0.29688 -0.59766,0.59766 z m 0,0" style="fill:#000000;fill-opacity:1;fill-rule:evenodd;stroke:none" id="path19094"/>
 <path d="m 18.90234,28.89844 c 0,0.30078 0.29688,0.30078 0.5,0.30078 0.29688,0 0.59766,0 0.59766,-0.30078 0,-0.30078 -0.30078,-0.59766 -0.59766,-0.59766 -0.20312,0 -0.5,0.29688 -0.5,0.59766 z m 0,0" style="fill:#000000;fill-opacity:1;fill-rule:evenodd;stroke:none" id="path19096"/>
 <path d="m 23.60156,28.89844 c 0,0.30078 0.30078,0.30078 0.59766,0.30078 0.30078,0 0.60156,0 0.60156,-0.30078 0,-0.30078 -0.30078,-0.59766 -0.60156,-0.59766 -0.29688,0 -0.59766,0.29688 -0.59766,0.59766 z m 0,0" style="fill:#000000;fill-opacity:1;fill-rule:evenodd;stroke:none" id="path19098"/>
 <path d="m 28.30078,28.89844 c 0,0.30078 0.30078,0.30078 0.60156,0.30078 0.29688,0 0.59766,0 0.59766,-0.30078 0,-0.30078 -0.30078,-0.59766 -0.59766,-0.59766 -0.30078,0 -0.60156,0.29688 -0.60156,0.59766 z m 0,0" style="fill:#000000;fill-opacity:1;fill-rule:evenodd;stroke:none" id="path19100"/>
 <path d="m 33,28.89844 c 0,0.30078 0.30078,0.30078 0.60156,0.30078 0.30078,0 0.59766,0 0.59766,-0.30078 0,-0.30078 -0.29688,-0.59766 -0.59766,-0.59766 C 33.30078,28.30078 33,28.59766 33,28.89844 z m 0,0" style="fill:#000000;fill-opacity:1;fill-rule:evenodd;stroke:none" id="path19102"/>
 <path d="m 37.80078,28.89844 c 0,0.30078 0.19922,0.30078 0.60156,0.30078 0.19922,0 0.5,0 0.5,-0.30078 0,-0.30078 -0.30078,-0.59766 -0.5,-0.59766 -0.40234,0 -0.60156,0.29688 -0.60156,0.59766 z m 0,0" style="fill:#000000;fill-opacity:1;fill-rule:evenodd;stroke:none" id="path19104"/>
 <path d="m 42.5,28.89844 c 0,0.30078 0.30078,0.30078 0.60156,0.30078 0.30078,0 0.59766,0 0.59766,-0.30078 0,-0.30078 -0.29688,-0.59766 -0.59766,-0.59766 -0.30078,0 -0.60156,0.29688 -0.60156,0.59766 z m 0,0" style="fill:#000000;fill-opacity:1;fill-rule:evenodd;stroke:none" id="path19106"/>
 <path d="m 47.19922,28.89844 c 0,0.30078 0.30078,0.30078 0.60156,0.30078 0.30078,0 0.60156,0 0.60156,-0.30078 0,-0.30078 -0.30078,-0.59766 -0.60156,-0.59766 -0.30078,0 -0.60156,0.29688 -0.60156,0.59766 z m 0,0" style="fill:#000000;fill-opacity:1;fill-rule:evenodd;stroke:none" id="path19108"/>
 <path d="m 51.90234,28.89844 c 0,0.30078 0.29688,0.30078 0.59766,0.30078 0.30078,0 0.60156,0 0.60156,-0.30078 0,-0.30078 -0.30078,-0.59766 -0.60156,-0.59766 -0.30078,0 -0.59766,0.29688 -0.59766,0.59766 z m 0,0" style="fill:#000000;fill-opacity:1;fill-rule:evenodd;stroke:none" id="path19110"/>
 <path d="m 56.69922,28.89844 c 0,0.30078 0.20312,0.30078 0.5,0.30078 0.30078,0 0.60156,0 0.60156,-0.30078 0,-0.30078 -0.30078,-0.59766 -0.60156,-0.59766 -0.29688,0 -0.5,0.29688 -0.5,0.59766 z m 0,0" style="fill:#000000;fill-opacity:1;fill-rule:evenodd;stroke:none" id="path19112"/>
 <path d="m 61.40234,28.89844 c 0,0.30078 0.29688,0.30078 0.59766,0.30078 0.30078,0 0.60156,0 0.60156,-0.30078 0,-0.30078 -0.30078,-0.59766 -0.60156,-0.59766 -0.30078,0 -0.59766,0.29688 -0.59766,0.59766 z m 0,0" style="fill:#000000;fill-opacity:1;fill-rule:evenodd;stroke:none" id="path19114"/>
 <path d="m 0,33.59766 c 0,0.30078 0.30078,0.30078 0.5,0.30078 0.40234,0 0.60156,0 0.60156,-0.30078 C 1.10156,33.39844 0.90234,33 0.5,33 0.30078,33 0,33.39844 0,33.59766 z m 0,0" style="fill:#000000;fill-opacity:1;fill-rule:evenodd;stroke:none" id="path19116"/>
 <path d="m 4.69922,33.59766 c 0,0.30078 0.30078,0.30078 0.60156,0.30078 0.30078,0 0.60156,0 0.60156,-0.30078 C 5.90234,33.39844 5.60156,33 5.30078,33 5,33 4.69922,33.39844 4.69922,33.59766 z m 0,0" style="fill:#000000;fill-opacity:1;fill-rule:evenodd;stroke:none" id="path19118"/>
 <path d="m 9.40234,33.59766 c 0,0.30078 0.29688,0.30078 0.59766,0.30078 0.30078,0 0.60156,0 0.60156,-0.30078 C 10.60156,33.39844 10.30078,33 10,33 9.69922,33 9.40234,33.39844 9.40234,33.59766 z m 0,0" style="fill:#000000;fill-opacity:1;fill-rule:evenodd;stroke:none" id="path19120"/>
 <path d="m 14.10156,33.59766 c 0,0.30078 0.30078,0.30078 0.59766,0.30078 0.30078,0 0.60156,0 0.60156,-0.30078 C 15.30078,33.39844 15,33 14.69922,33 c -0.29688,0 -0.59766,0.39844 -0.59766,0.59766 z m 0,0" style="fill:#000000;fill-opacity:1;fill-rule:evenodd;stroke:none" id="path19122"/>
 <path d="m 18.90234,33.59766 c 0,0.30078 0.29688,0.30078 0.5,0.30078 0.29688,0 0.59766,0 0.59766,-0.30078 C 20,33.39844 19.69922,33 19.40234,33 c -0.20312,0 -0.5,0.39844 -0.5,0.59766 z m 0,0" style="fill:#000000;fill-opacity:1;fill-rule:evenodd;stroke:none" id="path19124"/>
 <path d="m 23.60156,33.59766 c 0,0.30078 0.30078,0.30078 0.59766,0.30078 0.30078,0 0.60156,0 0.60156,-0.30078 C 24.80078,33.39844 24.5,33 24.19922,33 c -0.29688,0 -0.59766,0.39844 -0.59766,0.59766 z m 0,0" style="fill:#000000;fill-opacity:1;fill-rule:evenodd;stroke:none" id="path19126"/>
 <path d="m 28.30078,33.59766 c 0,0.30078 0.30078,0.30078 0.60156,0.30078 0.29688,0 0.59766,0 0.59766,-0.30078 C 29.5,33.39844 29.19922,33 28.90234,33 c -0.30078,0 -0.60156,0.39844 -0.60156,0.59766 z m 0,0" style="fill:#000000;fill-opacity:1;fill-rule:evenodd;stroke:none" id="path19128"/>
 <path d="m 33,33.59766 c 0,0.30078 0.30078,0.30078 0.60156,0.30078 0.30078,0 0.59766,0 0.59766,-0.30078 C 34.19922,33.39844 33.90234,33 33.60156,33 33.30078,33 33,33.39844 33,33.59766 z m 0,0" style="fill:#000000;fill-opacity:1;fill-rule:evenodd;stroke:none" id="path19130"/>
 <path d="m 37.80078,33.59766 c 0,0.30078 0.19922,0.30078 0.60156,0.30078 0.19922,0 0.5,0 0.5,-0.30078 C 38.90234,33.39844 38.60156,33 38.40234,33 38,33 37.80078,33.39844 37.80078,33.59766 z m 0,0" style="fill:#000000;fill-opacity:1;fill-rule:evenodd;stroke:none" id="path19132"/>
 <path d="m 42.5,33.59766 c 0,0.30078 0.30078,0.30078 0.60156,0.30078 0.30078,0 0.59766,0 0.59766,-0.30078 C 43.69922,33.39844 43.40234,33 43.10156,33 42.80078,33 42.5,33.39844 42.5,33.59766 z m 0,0" style="fill:#000000;fill-opacity:1;fill-rule:evenodd;stroke:none" id="path19134"/>
 <path d="m 47.19922,33.59766 c 0,0.30078 0.30078,0.30078 0.60156,0.30078 0.30078,0 0.60156,0 0.60156,-0.30078 C 48.40234,33.39844 48.10156,33 47.80078,33 47.5,33 47.19922,33.39844 47.19922,33.59766 z m 0,0" style="fill:#000000;fill-opacity:1;fill-rule:evenodd;stroke:none" id="path19136"/>
 <path d="m 51.90234,33.59766 c 0,0.30078 0.29688,0.30078 0.59766,0.30078 0.30078,0 0.60156,0 0.60156,-0.30078 C 53.10156,33.39844 52.80078,33 52.5,33 c -0.30078,0 -0.59766,0.39844 -0.59766,0.59766 z m 0,0" style="fill:#000000;fill-opacity:1;fill-rule:evenodd;stroke:none" id="path19138"/>
 <path d="m 56.69922,33.59766 c 0,0.30078 0.20312,0.30078 0.5,0.30078 0.30078,0 0.60156,0 0.60156,-0.30078 C 57.80078,33.39844 57.5,33 57.19922,33 c -0.29688,0 -0.5,0.39844 -0.5,0.59766 z m 0,0" style="fill:#000000;fill-opacity:1;fill-rule:evenodd;stroke:none" id="path19140"/>
 <path d="m 61.40234,33.59766 c 0,0.30078 0.29688,0.30078 0.59766,0.30078 0.30078,0 0.60156,0 0.60156,-0.30078 C 62.60156,33.39844 62.30078,33 62,33 c -0.30078,0 -0.59766,0.39844 -0.59766,0.59766 z m 0,0" style="fill:#000000;fill-opacity:1;fill-rule:evenodd;stroke:none" id="path19142"/>
 <path d="m 0,38.39844 c 0,0.30078 0.30078,0.30078 0.5,0.30078 0.40234,0 0.60156,0 0.60156,-0.30078 0,-0.30078 -0.19922,-0.59766 -0.60156,-0.59766 -0.19922,0 -0.5,0.29688 -0.5,0.59766 z m 0,0" style="fill:#000000;fill-opacity:1;fill-rule:evenodd;stroke:none" id="path19144"/>
 <path d="m 4.69922,38.39844 c 0,0.30078 0.30078,0.30078 0.60156,0.30078 0.30078,0 0.60156,0 0.60156,-0.30078 0,-0.30078 -0.30078,-0.59766 -0.60156,-0.59766 -0.30078,0 -0.60156,0.29688 -0.60156,0.59766 z m 0,0" style="fill:#000000;fill-opacity:1;fill-rule:evenodd;stroke:none" id="path19146"/>
 <path d="m 9.40234,38.39844 c 0,0.30078 0.29688,0.30078 0.59766,0.30078 0.30078,0 0.60156,0 0.60156,-0.30078 0,-0.30078 -0.30078,-0.59766 -0.60156,-0.59766 -0.30078,0 -0.59766,0.29688 -0.59766,0.59766 z m 0,0" style="fill:#000000;fill-opacity:1;fill-rule:evenodd;stroke:none" id="path19148"/>
 <path d="m 14.10156,38.39844 c 0,0.30078 0.30078,0.30078 0.59766,0.30078 0.30078,0 0.60156,0 0.60156,-0.30078 0,-0.30078 -0.30078,-0.59766 -0.60156,-0.59766 -0.29688,0 -0.59766,0.29688 -0.59766,0.59766 z m 0,0" style="fill:#000000;fill-opacity:1;fill-rule:evenodd;stroke:none" id="path19150"/>
 <path d="m 18.90234,38.39844 c 0,0.30078 0.29688,0.30078 0.5,0.30078 0.29688,0 0.59766,0 0.59766,-0.30078 0,-0.30078 -0.30078,-0.59766 -0.59766,-0.59766 -0.20312,0 -0.5,0.29688 -0.5,0.59766 z m 0,0" style="fill:#000000;fill-opacity:1;fill-rule:evenodd;stroke:none" id="path19152"/>
 <path d="m 23.60156,38.39844 c 0,0.30078 0.30078,0.30078 0.59766,0.30078 0.30078,0 0.60156,0 0.60156,-0.30078 0,-0.30078 -0.30078,-0.59766 -0.60156,-0.59766 -0.29688,0 -0.59766,0.29688 -0.59766,0.59766 z m 0,0" style="fill:#000000;fill-opacity:1;fill-rule:evenodd;stroke:none" id="path19154"/>
 <path d="m 28.30078,38.39844 c 0,0.30078 0.30078,0.30078 0.60156,0.30078 0.29688,0 0.59766,0 0.59766,-0.30078 0,-0.30078 -0.30078,-0.59766 -0.59766,-0.59766 -0.30078,0 -0.60156,0.29688 -0.60156,0.59766 z m 0,0" style="fill:#000000;fill-opacity:1;fill-rule:evenodd;stroke:none" id="path19156"/>
 <path d="m 33,38.39844 c 0,0.30078 0.30078,0.30078 0.60156,0.30078 0.30078,0 0.59766,0 0.59766,-0.30078 0,-0.30078 -0.29688,-0.59766 -0.59766,-0.59766 C 33.30078,37.80078 33,38.09766 33,38.39844 z m 0,0" style="fill:#000000;fill-opacity:1;fill-rule:evenodd;stroke:none" id="path19158"/>
 <path d="m 37.80078,38.39844 c 0,0.30078 0.19922,0.30078 0.60156,0.30078 0.19922,0 0.5,0 0.5,-0.30078 0,-0.30078 -0.30078,-0.59766 -0.5,-0.59766 -0.40234,0 -0.60156,0.29688 -0.60156,0.59766 z m 0,0" style="fill:#000000;fill-opacity:1;fill-rule:evenodd;stroke:none" id="path19160"/>
 <path d="m 42.5,38.39844 c 0,0.30078 0.30078,0.30078 0.60156,0.30078 0.30078,0 0.59766,0 0.59766,-0.30078 0,-0.30078 -0.29688,-0.59766 -0.59766,-0.59766 -0.30078,0 -0.60156,0.29688 -0.60156,0.59766 z m 0,0" style="fill:#000000;fill-opacity:1;fill-rule:evenodd;stroke:none" id="path19162"/>
 <path d="m 47.19922,38.39844 c 0,0.30078 0.30078,0.30078 0.60156,0.30078 0.30078,0 0.60156,0 0.60156,-0.30078 0,-0.30078 -0.30078,-0.59766 -0.60156,-0.59766 -0.30078,0 -0.60156,0.29688 -0.60156,0.59766 z m 0,0" style="fill:#000000;fill-opacity:1;fill-rule:evenodd;stroke:none" id="path19164"/>
 <path d="m 51.90234,38.39844 c 0,0.30078 0.29688,0.30078 0.59766,0.30078 0.30078,0 0.60156,0 0.60156,-0.30078 0,-0.30078 -0.30078,-0.59766 -0.60156,-0.59766 -0.30078,0 -0.59766,0.29688 -0.59766,0.59766 z m 0,0" style="fill:#000000;fill-opacity:1;fill-rule:evenodd;stroke:none" id="path19166"/>
 <path d="m 56.69922,38.39844 c 0,0.30078 0.20312,0.30078 0.5,0.30078 0.30078,0 0.60156,0 0.60156,-0.30078 0,-0.30078 -0.30078,-0.59766 -0.60156,-0.59766 -0.29688,0 -0.5,0.29688 -0.5,0.59766 z m 0,0" style="fill:#000000;fill-opacity:1;fill-rule:evenodd;stroke:none" id="path19168"/>
 <path d="m 61.40234,38.39844 c 0,0.30078 0.29688,0.30078 0.59766,0.30078 0.30078,0 0.60156,0 0.60156,-0.30078 0,-0.30078 -0.30078,-0.59766 -0.60156,-0.59766 -0.30078,0 -0.59766,0.29688 -0.59766,0.59766 z m 0,0" style="fill:#000000;fill-opacity:1;fill-rule:evenodd;stroke:none" id="path19170"/>
 <path d="m 0,43.09766 c 0,0.30078 0.30078,0.30078 0.5,0.30078 0.40234,0 0.60156,0 0.60156,-0.30078 C 1.10156,42.80078 0.90234,42.5 0.5,42.5 0.30078,42.5 0,42.80078 0,43.09766 z m 0,0" style="fill:#000000;fill-opacity:1;fill-rule:evenodd;stroke:none" id="path19172"/>
 <path d="m 4.69922,43.09766 c 0,0.30078 0.30078,0.30078 0.60156,0.30078 0.30078,0 0.60156,0 0.60156,-0.30078 C 5.90234,42.80078 5.60156,42.5 5.30078,42.5 5,42.5 4.69922,42.80078 4.69922,43.09766 z m 0,0" style="fill:#000000;fill-opacity:1;fill-rule:evenodd;stroke:none" id="path19174"/>
 <path d="m 9.40234,43.09766 c 0,0.30078 0.29688,0.30078 0.59766,0.30078 0.30078,0 0.60156,0 0.60156,-0.30078 C 10.60156,42.80078 10.30078,42.5 10,42.5 c -0.30078,0 -0.59766,0.30078 -0.59766,0.59766 z m 0,0" style="fill:#000000;fill-opacity:1;fill-rule:evenodd;stroke:none" id="path19176"/>
 <path d="m 14.10156,43.09766 c 0,0.30078 0.30078,0.30078 0.59766,0.30078 0.30078,0 0.60156,0 0.60156,-0.30078 C 15.30078,42.80078 15,42.5 14.69922,42.5 c -0.29688,0 -0.59766,0.30078 -0.59766,0.59766 z m 0,0" style="fill:#000000;fill-opacity:1;fill-rule:evenodd;stroke:none" id="path19178"/>
 <path d="m 18.90234,43.09766 c 0,0.30078 0.29688,0.30078 0.5,0.30078 0.29688,0 0.59766,0 0.59766,-0.30078 C 20,42.80078 19.69922,42.5 19.40234,42.5 c -0.20312,0 -0.5,0.30078 -0.5,0.59766 z m 0,0" style="fill:#000000;fill-opacity:1;fill-rule:evenodd;stroke:none" id="path19180"/>
 <path d="m 23.60156,43.09766 c 0,0.30078 0.30078,0.30078 0.59766,0.30078 0.30078,0 0.60156,0 0.60156,-0.30078 C 24.80078,42.80078 24.5,42.5 24.19922,42.5 c -0.29688,0 -0.59766,0.30078 -0.59766,0.59766 z m 0,0" style="fill:#000000;fill-opacity:1;fill-rule:evenodd;stroke:none" id="path19182"/>
 <path d="m 28.30078,43.09766 c 0,0.30078 0.30078,0.30078 0.60156,0.30078 0.29688,0 0.59766,0 0.59766,-0.30078 C 29.5,42.80078 29.19922,42.5 28.90234,42.5 c -0.30078,0 -0.60156,0.30078 -0.60156,0.59766 z m 0,0" style="fill:#000000;fill-opacity:1;fill-rule:evenodd;stroke:none" id="path19184"/>
 <path d="m 33,43.09766 c 0,0.30078 0.30078,0.30078 0.60156,0.30078 0.30078,0 0.59766,0 0.59766,-0.30078 C 34.19922,42.80078 33.90234,42.5 33.60156,42.5 33.30078,42.5 33,42.80078 33,43.09766 z m 0,0" style="fill:#000000;fill-opacity:1;fill-rule:evenodd;stroke:none" id="path19186"/>
 <path d="m 37.80078,43.09766 c 0,0.30078 0.19922,0.30078 0.60156,0.30078 0.19922,0 0.5,0 0.5,-0.30078 0,-0.29688 -0.30078,-0.59766 -0.5,-0.59766 -0.40234,0 -0.60156,0.30078 -0.60156,0.59766 z m 0,0" style="fill:#000000;fill-opacity:1;fill-rule:evenodd;stroke:none" id="path19188"/>
 <path d="m 42.5,43.09766 c 0,0.30078 0.30078,0.30078 0.60156,0.30078 0.30078,0 0.59766,0 0.59766,-0.30078 C 43.69922,42.80078 43.40234,42.5 43.10156,42.5 42.80078,42.5 42.5,42.80078 42.5,43.09766 z m 0,0" style="fill:#000000;fill-opacity:1;fill-rule:evenodd;stroke:none" id="path19190"/>
 <path d="m 47.19922,43.09766 c 0,0.30078 0.30078,0.30078 0.60156,0.30078 0.30078,0 0.60156,0 0.60156,-0.30078 0,-0.29688 -0.30078,-0.59766 -0.60156,-0.59766 -0.30078,0 -0.60156,0.30078 -0.60156,0.59766 z m 0,0" style="fill:#000000;fill-opacity:1;fill-rule:evenodd;stroke:none" id="path19192"/>
 <path d="m 51.90234,43.09766 c 0,0.30078 0.29688,0.30078 0.59766,0.30078 0.30078,0 0.60156,0 0.60156,-0.30078 C 53.10156,42.80078 52.80078,42.5 52.5,42.5 c -0.30078,0 -0.59766,0.30078 -0.59766,0.59766 z m 0,0" style="fill:#000000;fill-opacity:1;fill-rule:evenodd;stroke:none" id="path19194"/>
 <path d="m 56.69922,43.09766 c 0,0.30078 0.20312,0.30078 0.5,0.30078 0.30078,0 0.60156,0 0.60156,-0.30078 C 57.80078,42.80078 57.5,42.5 57.19922,42.5 c -0.29688,0 -0.5,0.30078 -0.5,0.59766 z m 0,0" style="fill:#000000;fill-opacity:1;fill-rule:evenodd;stroke:none" id="path19196"/>
 <path d="m 61.40234,43.09766 c 0,0.30078 0.29688,0.30078 0.59766,0.30078 0.30078,0 0.60156,0 0.60156,-0.30078 C 62.60156,42.80078 62.30078,42.5 62,42.5 c -0.30078,0 -0.59766,0.30078 -0.59766,0.59766 z m 0,0" style="fill:#000000;fill-opacity:1;fill-rule:evenodd;stroke:none" id="path19198"/>
 <path d="m 0,47.80078 c 0,0.29688 0.30078,0.29688 0.5,0.29688 0.40234,0 0.60156,0 0.60156,-0.29688 C 1.10156,47.5 0.90234,47.19922 0.5,47.19922 0.30078,47.19922 0,47.5 0,47.80078 z m 0,0" style="fill:#000000;fill-opacity:1;fill-rule:evenodd;stroke:none" id="path19200"/>
 <path d="m 4.69922,47.80078 c 0,0.29688 0.30078,0.29688 0.60156,0.29688 0.30078,0 0.60156,0 0.60156,-0.29688 C 5.90234,47.5 5.60156,47.19922 5.30078,47.19922 5,47.19922 4.69922,47.5 4.69922,47.80078 z m 0,0" style="fill:#000000;fill-opacity:1;fill-rule:evenodd;stroke:none" id="path19202"/>
 <path d="m 9.40234,47.80078 c 0,0.29688 0.29688,0.29688 0.59766,0.29688 0.30078,0 0.60156,0 0.60156,-0.29688 0,-0.30078 -0.30078,-0.60156 -0.60156,-0.60156 -0.30078,0 -0.59766,0.30078 -0.59766,0.60156 z m 0,0" style="fill:#000000;fill-opacity:1;fill-rule:evenodd;stroke:none" id="path19204"/>
 <path d="m 14.10156,47.80078 c 0,0.29688 0.30078,0.29688 0.59766,0.29688 0.30078,0 0.60156,0 0.60156,-0.29688 0,-0.30078 -0.30078,-0.60156 -0.60156,-0.60156 -0.29688,0 -0.59766,0.30078 -0.59766,0.60156 z m 0,0" style="fill:#000000;fill-opacity:1;fill-rule:evenodd;stroke:none" id="path19206"/>
 <path d="m 18.90234,47.80078 c 0,0.29688 0.29688,0.29688 0.5,0.29688 0.29688,0 0.59766,0 0.59766,-0.29688 0,-0.30078 -0.30078,-0.60156 -0.59766,-0.60156 -0.20312,0 -0.5,0.30078 -0.5,0.60156 z m 0,0" style="fill:#000000;fill-opacity:1;fill-rule:evenodd;stroke:none" id="path19208"/>
 <path d="m 23.60156,47.80078 c 0,0.29688 0.30078,0.29688 0.59766,0.29688 0.30078,0 0.60156,0 0.60156,-0.29688 0,-0.30078 -0.30078,-0.60156 -0.60156,-0.60156 -0.29688,0 -0.59766,0.30078 -0.59766,0.60156 z m 0,0" style="fill:#000000;fill-opacity:1;fill-rule:evenodd;stroke:none" id="path19210"/>
 <path d="m 28.30078,47.80078 c 0,0.29688 0.30078,0.29688 0.60156,0.29688 0.29688,0 0.59766,0 0.59766,-0.29688 0,-0.30078 -0.30078,-0.60156 -0.59766,-0.60156 -0.30078,0 -0.60156,0.30078 -0.60156,0.60156 z m 0,0" style="fill:#000000;fill-opacity:1;fill-rule:evenodd;stroke:none" id="path19212"/>
 <path d="m 33,47.80078 c 0,0.29688 0.30078,0.29688 0.60156,0.29688 0.30078,0 0.59766,0 0.59766,-0.29688 0,-0.30078 -0.29688,-0.60156 -0.59766,-0.60156 C 33.30078,47.19922 33,47.5 33,47.80078 z m 0,0" style="fill:#000000;fill-opacity:1;fill-rule:evenodd;stroke:none" id="path19214"/>
 <path d="m 37.80078,47.80078 c 0,0.29688 0.19922,0.29688 0.60156,0.29688 0.19922,0 0.5,0 0.5,-0.29688 0,-0.30078 -0.30078,-0.60156 -0.5,-0.60156 -0.40234,0 -0.60156,0.30078 -0.60156,0.60156 z m 0,0" style="fill:#000000;fill-opacity:1;fill-rule:evenodd;stroke:none" id="path19216"/>
 <path d="m 42.5,47.80078 c 0,0.29688 0.30078,0.29688 0.60156,0.29688 0.30078,0 0.59766,0 0.59766,-0.29688 0,-0.30078 -0.29688,-0.60156 -0.59766,-0.60156 C 42.80078,47.19922 42.5,47.5 42.5,47.80078 z m 0,0" style="fill:#000000;fill-opacity:1;fill-rule:evenodd;stroke:none" id="path19218"/>
 <path d="m 47.19922,47.80078 c 0,0.29688 0.30078,0.29688 0.60156,0.29688 0.30078,0 0.60156,0 0.60156,-0.29688 0,-0.30078 -0.30078,-0.60156 -0.60156,-0.60156 -0.30078,0 -0.60156,0.30078 -0.60156,0.60156 z m 0,0" style="fill:#000000;fill-opacity:1;fill-rule:evenodd;stroke:none" id="path19220"/>
 <path d="m 51.90234,47.80078 c 0,0.29688 0.29688,0.29688 0.59766,0.29688 0.30078,0 0.60156,0 0.60156,-0.29688 0,-0.30078 -0.30078,-0.60156 -0.60156,-0.60156 -0.30078,0 -0.59766,0.30078 -0.59766,0.60156 z m 0,0" style="fill:#000000;fill-opacity:1;fill-rule:evenodd;stroke:none" id="path19222"/>
 <path d="m 56.69922,47.80078 c 0,0.29688 0.20312,0.29688 0.5,0.29688 0.30078,0 0.60156,0 0.60156,-0.29688 0,-0.30078 -0.30078,-0.60156 -0.60156,-0.60156 -0.29688,0 -0.5,0.30078 -0.5,0.60156 z m 0,0" style="fill:#000000;fill-opacity:1;fill-rule:evenodd;stroke:none" id="path19224"/>
 <path d="m 61.40234,47.80078 c 0,0.29688 0.29688,0.29688 0.59766,0.29688 0.30078,0 0.60156,0 0.60156,-0.29688 0,-0.30078 -0.30078,-0.60156 -0.60156,-0.60156 -0.30078,0 -0.59766,0.30078 -0.59766,0.60156 z m 0,0" style="fill:#000000;fill-opacity:1;fill-rule:evenodd;stroke:none" id="path19226"/>
 <path d="m 0,52.5 c 0,0.30078 0.30078,0.30078 0.5,0.30078 0.40234,0 0.60156,0 0.60156,-0.30078 C 1.10156,52.19922 0.90234,52 0.5,52 0.30078,52 0,52.19922 0,52.5 z m 0,0" style="fill:#000000;fill-opacity:1;fill-rule:evenodd;stroke:none" id="path19228"/>
 <path d="m 4.69922,52.5 c 0,0.30078 0.30078,0.30078 0.60156,0.30078 0.30078,0 0.60156,0 0.60156,-0.30078 C 5.90234,52.19922 5.60156,52 5.30078,52 5,52 4.69922,52.19922 4.69922,52.5 z m 0,0" style="fill:#000000;fill-opacity:1;fill-rule:evenodd;stroke:none" id="path19230"/>
 <path d="m 9.40234,52.5 c 0,0.30078 0.29688,0.30078 0.59766,0.30078 0.30078,0 0.60156,0 0.60156,-0.30078 C 10.60156,52.19922 10.30078,52 10,52 9.69922,52 9.40234,52.19922 9.40234,52.5 z m 0,0" style="fill:#000000;fill-opacity:1;fill-rule:evenodd;stroke:none" id="path19232"/>
 <path d="m 14.10156,52.5 c 0,0.30078 0.30078,0.30078 0.59766,0.30078 0.30078,0 0.60156,0 0.60156,-0.30078 0,-0.30078 -0.30078,-0.5 -0.60156,-0.5 -0.29688,0 -0.59766,0.19922 -0.59766,0.5 z m 0,0" style="fill:#000000;fill-opacity:1;fill-rule:evenodd;stroke:none" id="path19234"/>
 <path d="m 18.90234,52.5 c 0,0.30078 0.29688,0.30078 0.5,0.30078 0.29688,0 0.59766,0 0.59766,-0.30078 0,-0.30078 -0.30078,-0.5 -0.59766,-0.5 -0.20312,0 -0.5,0.19922 -0.5,0.5 z m 0,0" style="fill:#000000;fill-opacity:1;fill-rule:evenodd;stroke:none" id="path19236"/>
 <path d="m 23.60156,52.5 c 0,0.30078 0.30078,0.30078 0.59766,0.30078 0.30078,0 0.60156,0 0.60156,-0.30078 0,-0.30078 -0.30078,-0.5 -0.60156,-0.5 -0.29688,0 -0.59766,0.19922 -0.59766,0.5 z m 0,0" style="fill:#000000;fill-opacity:1;fill-rule:evenodd;stroke:none" id="path19238"/>
 <path d="m 28.30078,52.5 c 0,0.30078 0.30078,0.30078 0.60156,0.30078 0.29688,0 0.59766,0 0.59766,-0.30078 0,-0.30078 -0.30078,-0.5 -0.59766,-0.5 -0.30078,0 -0.60156,0.19922 -0.60156,0.5 z m 0,0" style="fill:#000000;fill-opacity:1;fill-rule:evenodd;stroke:none" id="path19240"/>
 <path d="m 33,52.5 c 0,0.30078 0.30078,0.30078 0.60156,0.30078 0.30078,0 0.59766,0 0.59766,-0.30078 0,-0.30078 -0.29688,-0.5 -0.59766,-0.5 C 33.30078,52 33,52.19922 33,52.5 z m 0,0" style="fill:#000000;fill-opacity:1;fill-rule:evenodd;stroke:none" id="path19242"/>
 <path d="m 37.80078,52.5 c 0,0.30078 0.19922,0.30078 0.60156,0.30078 0.19922,0 0.5,0 0.5,-0.30078 0,-0.30078 -0.30078,-0.5 -0.5,-0.5 C 38,52 37.80078,52.19922 37.80078,52.5 z m 0,0" style="fill:#000000;fill-opacity:1;fill-rule:evenodd;stroke:none" id="path19244"/>
 <path d="m 42.5,52.5 c 0,0.30078 0.30078,0.30078 0.60156,0.30078 0.30078,0 0.59766,0 0.59766,-0.30078 0,-0.30078 -0.29688,-0.5 -0.59766,-0.5 C 42.80078,52 42.5,52.19922 42.5,52.5 z m 0,0" style="fill:#000000;fill-opacity:1;fill-rule:evenodd;stroke:none" id="path19246"/>
 <path d="m 47.19922,52.5 c 0,0.30078 0.30078,0.30078 0.60156,0.30078 0.30078,0 0.60156,0 0.60156,-0.30078 0,-0.30078 -0.30078,-0.5 -0.60156,-0.5 -0.30078,0 -0.60156,0.19922 -0.60156,0.5 z m 0,0" style="fill:#000000;fill-opacity:1;fill-rule:evenodd;stroke:none" id="path19248"/>
 <path d="m 51.90234,52.5 c 0,0.30078 0.29688,0.30078 0.59766,0.30078 0.30078,0 0.60156,0 0.60156,-0.30078 0,-0.30078 -0.30078,-0.5 -0.60156,-0.5 -0.30078,0 -0.59766,0.19922 -0.59766,0.5 z m 0,0" style="fill:#000000;fill-opacity:1;fill-rule:evenodd;stroke:none" id="path19250"/>
 <path d="m 56.69922,52.5 c 0,0.30078 0.20312,0.30078 0.5,0.30078 0.30078,0 0.60156,0 0.60156,-0.30078 0,-0.30078 -0.30078,-0.5 -0.60156,-0.5 -0.29688,0 -0.5,0.19922 -0.5,0.5 z m 0,0" style="fill:#000000;fill-opacity:1;fill-rule:evenodd;stroke:none" id="path19252"/>
 <path d="m 61.40234,52.5 c 0,0.30078 0.29688,0.30078 0.59766,0.30078 0.30078,0 0.60156,0 0.60156,-0.30078 0,-0.30078 -0.30078,-0.5 -0.60156,-0.5 -0.30078,0 -0.59766,0.19922 -0.59766,0.5 z m 0,0" style="fill:#000000;fill-opacity:1;fill-rule:evenodd;stroke:none" id="path19254"/>
 <path d="m 0,57.30078 c 0,0.29688 0.30078,0.29688 0.5,0.29688 0.40234,0 0.60156,0 0.60156,-0.29688 C 1.10156,57 0.90234,56.69922 0.5,56.69922 0.30078,56.69922 0,57 0,57.30078 z m 0,0" style="fill:#000000;fill-opacity:1;fill-rule:evenodd;stroke:none" id="path19256"/>
 <path d="m 4.69922,57.30078 c 0,0.29688 0.30078,0.29688 0.60156,0.29688 0.30078,0 0.60156,0 0.60156,-0.29688 C 5.90234,57 5.60156,56.69922 5.30078,56.69922 5,56.69922 4.69922,57 4.69922,57.30078 z m 0,0" style="fill:#000000;fill-opacity:1;fill-rule:evenodd;stroke:none" id="path19258"/>
 <path d="m 9.40234,57.30078 c 0,0.29688 0.29688,0.29688 0.59766,0.29688 0.30078,0 0.60156,0 0.60156,-0.29688 C 10.60156,57 10.30078,56.69922 10,56.69922 9.69922,56.69922 9.40234,57 9.40234,57.30078 z m 0,0" style="fill:#000000;fill-opacity:1;fill-rule:evenodd;stroke:none" id="path19260"/>
 <path d="m 14.10156,57.30078 c 0,0.29688 0.30078,0.29688 0.59766,0.29688 0.30078,0 0.60156,0 0.60156,-0.29688 C 15.30078,57 15,56.69922 14.69922,56.69922 c -0.29688,0 -0.59766,0.30078 -0.59766,0.60156 z m 0,0" style="fill:#000000;fill-opacity:1;fill-rule:evenodd;stroke:none" id="path19262"/>
 <path d="m 18.90234,57.30078 c 0,0.29688 0.29688,0.29688 0.5,0.29688 0.29688,0 0.59766,0 0.59766,-0.29688 C 20,57 19.69922,56.69922 19.40234,56.69922 c -0.20312,0 -0.5,0.30078 -0.5,0.60156 z m 0,0" style="fill:#000000;fill-opacity:1;fill-rule:evenodd;stroke:none" id="path19264"/>
 <path d="m 23.60156,57.30078 c 0,0.29688 0.30078,0.29688 0.59766,0.29688 0.30078,0 0.60156,0 0.60156,-0.29688 0,-0.30078 -0.30078,-0.60156 -0.60156,-0.60156 -0.29688,0 -0.59766,0.30078 -0.59766,0.60156 z m 0,0" style="fill:#000000;fill-opacity:1;fill-rule:evenodd;stroke:none" id="path19266"/>
 <path d="m 28.30078,57.30078 c 0,0.29688 0.30078,0.29688 0.60156,0.29688 0.29688,0 0.59766,0 0.59766,-0.29688 0,-0.30078 -0.30078,-0.60156 -0.59766,-0.60156 -0.30078,0 -0.60156,0.30078 -0.60156,0.60156 z m 0,0" style="fill:#000000;fill-opacity:1;fill-rule:evenodd;stroke:none" id="path19268"/>
 <path d="m 33,57.30078 c 0,0.29688 0.30078,0.29688 0.60156,0.29688 0.30078,0 0.59766,0 0.59766,-0.29688 0,-0.30078 -0.29688,-0.60156 -0.59766,-0.60156 C 33.30078,56.69922 33,57 33,57.30078 z m 0,0" style="fill:#000000;fill-opacity:1;fill-rule:evenodd;stroke:none" id="path19270"/>
 <path d="m 37.80078,57.30078 c 0,0.29688 0.19922,0.29688 0.60156,0.29688 0.19922,0 0.5,0 0.5,-0.29688 0,-0.30078 -0.30078,-0.60156 -0.5,-0.60156 C 38,56.69922 37.80078,57 37.80078,57.30078 z m 0,0" style="fill:#000000;fill-opacity:1;fill-rule:evenodd;stroke:none" id="path19272"/>
 <path d="m 42.5,57.30078 c 0,0.29688 0.30078,0.29688 0.60156,0.29688 0.30078,0 0.59766,0 0.59766,-0.29688 0,-0.30078 -0.29688,-0.60156 -0.59766,-0.60156 C 42.80078,56.69922 42.5,57 42.5,57.30078 z m 0,0" style="fill:#000000;fill-opacity:1;fill-rule:evenodd;stroke:none" id="path19274"/>
 <path d="m 47.19922,57.30078 c 0,0.29688 0.30078,0.29688 0.60156,0.29688 0.30078,0 0.60156,0 0.60156,-0.29688 0,-0.30078 -0.30078,-0.60156 -0.60156,-0.60156 -0.30078,0 -0.60156,0.30078 -0.60156,0.60156 z m 0,0" style="fill:#000000;fill-opacity:1;fill-rule:evenodd;stroke:none" id="path19276"/>
 <path d="m 51.90234,57.30078 c 0,0.29688 0.29688,0.29688 0.59766,0.29688 0.30078,0 0.60156,0 0.60156,-0.29688 0,-0.30078 -0.30078,-0.60156 -0.60156,-0.60156 -0.30078,0 -0.59766,0.30078 -0.59766,0.60156 z m 0,0" style="fill:#000000;fill-opacity:1;fill-rule:evenodd;stroke:none" id="path19278"/>
 <path d="m 56.69922,57.30078 c 0,0.29688 0.20312,0.29688 0.5,0.29688 0.30078,0 0.60156,0 0.60156,-0.29688 0,-0.30078 -0.30078,-0.60156 -0.60156,-0.60156 -0.29688,0 -0.5,0.30078 -0.5,0.60156 z m 0,0" style="fill:#000000;fill-opacity:1;fill-rule:evenodd;stroke:none" id="path19280"/>
 <path d="m 61.40234,57.30078 c 0,0.29688 0.29688,0.29688 0.59766,0.29688 0.30078,0 0.60156,0 0.60156,-0.29688 C 62.60156,57 62.30078,56.69922 62,56.69922 c -0.30078,0 -0.59766,0.30078 -0.59766,0.60156 z m 0,0" style="fill:#000000;fill-opacity:1;fill-rule:evenodd;stroke:none" id="path19282"/>
 <path d="m 0,62 c 0,0.30078 0.30078,0.30078 0.5,0.30078 0.40234,0 0.60156,0 0.60156,-0.30078 C 1.10156,61.69922 0.90234,61.39844 0.5,61.39844 0.30078,61.39844 0,61.69922 0,62 z m 0,0" style="fill:#000000;fill-opacity:1;fill-rule:evenodd;stroke:none" id="path19284"/>
 <path d="m 4.69922,62 c 0,0.30078 0.30078,0.30078 0.60156,0.30078 0.30078,0 0.60156,0 0.60156,-0.30078 0,-0.30078 -0.30078,-0.60156 -0.60156,-0.60156 C 5,61.39844 4.69922,61.69922 4.69922,62 z m 0,0" style="fill:#000000;fill-opacity:1;fill-rule:evenodd;stroke:none" id="path19286"/>
 <path d="m 9.40234,62 c 0,0.30078 0.29688,0.30078 0.59766,0.30078 0.30078,0 0.60156,0 0.60156,-0.30078 0,-0.30078 -0.30078,-0.60156 -0.60156,-0.60156 -0.30078,0 -0.59766,0.30078 -0.59766,0.60156 z m 0,0" style="fill:#000000;fill-opacity:1;fill-rule:evenodd;stroke:none" id="path19288"/>
 <path d="m 14.10156,62 c 0,0.30078 0.30078,0.30078 0.59766,0.30078 0.30078,0 0.60156,0 0.60156,-0.30078 0,-0.30078 -0.30078,-0.60156 -0.60156,-0.60156 -0.29688,0 -0.59766,0.30078 -0.59766,0.60156 z m 0,0" style="fill:#000000;fill-opacity:1;fill-rule:evenodd;stroke:none" id="path19290"/>
 <path d="m 18.90234,62 c 0,0.30078 0.29688,0.30078 0.5,0.30078 0.29688,0 0.59766,0 0.59766,-0.30078 0,-0.30078 -0.30078,-0.60156 -0.59766,-0.60156 -0.20312,0 -0.5,0.30078 -0.5,0.60156 z m 0,0" style="fill:#000000;fill-opacity:1;fill-rule:evenodd;stroke:none" id="path19292"/>
 <path d="m 23.60156,62 c 0,0.30078 0.30078,0.30078 0.59766,0.30078 0.30078,0 0.60156,0 0.60156,-0.30078 0,-0.30078 -0.30078,-0.60156 -0.60156,-0.60156 -0.29688,0 -0.59766,0.30078 -0.59766,0.60156 z m 0,0" style="fill:#000000;fill-opacity:1;fill-rule:evenodd;stroke:none" id="path19294"/>
 <path d="m 28.30078,62 c 0,0.30078 0.30078,0.30078 0.60156,0.30078 0.29688,0 0.59766,0 0.59766,-0.30078 0,-0.30078 -0.30078,-0.60156 -0.59766,-0.60156 -0.30078,0 -0.60156,0.30078 -0.60156,0.60156 z m 0,0" style="fill:#000000;fill-opacity:1;fill-rule:evenodd;stroke:none" id="path19296"/>
 <path d="m 33,62 c 0,0.30078 0.30078,0.30078 0.60156,0.30078 0.30078,0 0.59766,0 0.59766,-0.30078 0,-0.30078 -0.29688,-0.60156 -0.59766,-0.60156 C 33.30078,61.39844 33,61.69922 33,62 z m 0,0" style="fill:#000000;fill-opacity:1;fill-rule:evenodd;stroke:none" id="path19298"/>
 <path d="m 37.80078,62 c 0,0.30078 0.19922,0.30078 0.60156,0.30078 0.19922,0 0.5,0 0.5,-0.30078 0,-0.30078 -0.30078,-0.60156 -0.5,-0.60156 C 38,61.39844 37.80078,61.69922 37.80078,62 z m 0,0" style="fill:#000000;fill-opacity:1;fill-rule:evenodd;stroke:none" id="path19300"/>
 <path d="m 42.5,62 c 0,0.30078 0.30078,0.30078 0.60156,0.30078 0.30078,0 0.59766,0 0.59766,-0.30078 0,-0.30078 -0.29688,-0.60156 -0.59766,-0.60156 C 42.80078,61.39844 42.5,61.69922 42.5,62 z m 0,0" style="fill:#000000;fill-opacity:1;fill-rule:evenodd;stroke:none" id="path19302"/>
 <path d="m 47.19922,62 c 0,0.30078 0.30078,0.30078 0.60156,0.30078 0.30078,0 0.60156,0 0.60156,-0.30078 0,-0.30078 -0.30078,-0.60156 -0.60156,-0.60156 -0.30078,0 -0.60156,0.30078 -0.60156,0.60156 z m 0,0" style="fill:#000000;fill-opacity:1;fill-rule:evenodd;stroke:none" id="path19304"/>
 <path d="m 51.90234,62 c 0,0.30078 0.29688,0.30078 0.59766,0.30078 0.30078,0 0.60156,0 0.60156,-0.30078 0,-0.30078 -0.30078,-0.60156 -0.60156,-0.60156 -0.30078,0 -0.59766,0.30078 -0.59766,0.60156 z m 0,0" style="fill:#000000;fill-opacity:1;fill-rule:evenodd;stroke:none" id="path19306"/>
 <path d="m 56.69922,62 c 0,0.30078 0.20312,0.30078 0.5,0.30078 0.30078,0 0.60156,0 0.60156,-0.30078 0,-0.30078 -0.30078,-0.60156 -0.60156,-0.60156 -0.29688,0 -0.5,0.30078 -0.5,0.60156 z m 0,0" style="fill:#000000;fill-opacity:1;fill-rule:evenodd;stroke:none" id="path19308"/>
 <path d="m 61.40234,62 c 0,0.30078 0.29688,0.30078 0.59766,0.30078 0.30078,0 0.60156,0 0.60156,-0.30078 0,-0.30078 -0.30078,-0.60156 -0.60156,-0.60156 -0.30078,0 -0.59766,0.30078 -0.59766,0.60156 z m 0,0" style="fill:#000000;fill-opacity:1;fill-rule:evenodd;stroke:none" id="path19310"/>
</svg>
