<?xml version="1.0"?>
<!-- Converted with SVG Converter - Version 0.9.5 (Compiled Fri Feb 21 09:53:38 2020) - Copyright (C) 2011 Nokia -->
<svg xmlns="http://www.w3.org/2000/svg" width="105.60276" version="1.2" xmlns:xlink="http://www.w3.org/1999/xlink" height="107.5" baseProfile="tiny" id="svg6843" viewBox="0 0 84.482208 86">
 <metadata id="metadata7179"/>
 <defs id="defs6845"/>
 <g transform="translate(-255.3585,-377.89844)" id="g6993">
  <path style="fill:none;stroke:#000000;stroke-width:0.28299001;stroke-linecap:butt;stroke-linejoin:round;stroke-miterlimit:10;stroke-opacity:1" d="m 255.5,464.30078 0,-86.19922" transform="matrix(1,0,0,-1,0,842)" id="path6995"/>
 </g>
 <g transform="translate(-255.3585,-377.89844)" id="g6997">
  <path style="fill:none;stroke:#000000;stroke-width:0.28299001;stroke-linecap:butt;stroke-linejoin:round;stroke-miterlimit:10;stroke-opacity:1" d="m 257.60156,464.30078 0,-86.19922" transform="matrix(1,0,0,-1,0,842)" id="path6999"/>
 </g>
 <g transform="translate(-255.3585,-377.89844)" id="g7001">
  <path style="fill:none;stroke:#000000;stroke-width:0.28299001;stroke-linecap:butt;stroke-linejoin:round;stroke-miterlimit:10;stroke-opacity:1" d="m 259.39844,464.30078 0,-86.19922" transform="matrix(1,0,0,-1,0,842)" id="path7003"/>
 </g>
 <g transform="translate(-255.3585,-377.89844)" id="g7005">
  <path style="fill:none;stroke:#000000;stroke-width:0.28299001;stroke-linecap:butt;stroke-linejoin:round;stroke-miterlimit:10;stroke-opacity:1" d="m 261.10156,464.30078 0,-86.19922" transform="matrix(1,0,0,-1,0,842)" id="path7007"/>
 </g>
 <g transform="translate(-255.3585,-377.89844)" id="g7009">
  <path style="fill:none;stroke:#000000;stroke-width:0.28299001;stroke-linecap:butt;stroke-linejoin:round;stroke-miterlimit:10;stroke-opacity:1" d="m 263.19922,464.30078 0,-86.19922" transform="matrix(1,0,0,-1,0,842)" id="path7011"/>
 </g>
 <g transform="translate(-255.3585,-377.89844)" id="g7013">
  <path style="fill:none;stroke:#000000;stroke-width:0.28299001;stroke-linecap:butt;stroke-linejoin:round;stroke-miterlimit:10;stroke-opacity:1" d="m 265,464.30078 0,-86.19922" transform="matrix(1,0,0,-1,0,842)" id="path7015"/>
 </g>
 <g transform="translate(-255.3585,-377.89844)" id="g7017">
  <path style="fill:none;stroke:#000000;stroke-width:0.28299001;stroke-linecap:butt;stroke-linejoin:round;stroke-miterlimit:10;stroke-opacity:1" d="m 266.69922,464.30078 0,-86.19922" transform="matrix(1,0,0,-1,0,842)" id="path7019"/>
 </g>
 <g transform="translate(-255.3585,-377.89844)" id="g7021">
  <path style="fill:none;stroke:#000000;stroke-width:0.28299001;stroke-linecap:butt;stroke-linejoin:round;stroke-miterlimit:10;stroke-opacity:1" d="m 268.80078,464.30078 0,-86.19922" transform="matrix(1,0,0,-1,0,842)" id="path7023"/>
 </g>
 <g transform="translate(-255.3585,-377.89844)" id="g7025">
  <path style="fill:none;stroke:#000000;stroke-width:0.28299001;stroke-linecap:butt;stroke-linejoin:round;stroke-miterlimit:10;stroke-opacity:1" d="m 270.60156,464.30078 0,-86.19922" transform="matrix(1,0,0,-1,0,842)" id="path7027"/>
 </g>
 <g transform="translate(-255.3585,-377.89844)" id="g7029">
  <path style="fill:none;stroke:#000000;stroke-width:0.28299001;stroke-linecap:butt;stroke-linejoin:round;stroke-miterlimit:10;stroke-opacity:1" d="m 272.39844,464.30078 0,-86.19922" transform="matrix(1,0,0,-1,0,842)" id="path7031"/>
 </g>
 <g transform="translate(-255.3585,-377.89844)" id="g7033">
  <path style="fill:none;stroke:#000000;stroke-width:0.28299001;stroke-linecap:butt;stroke-linejoin:round;stroke-miterlimit:10;stroke-opacity:1" d="m 274.39844,464.30078 0,-86.19922" transform="matrix(1,0,0,-1,0,842)" id="path7035"/>
 </g>
 <g transform="translate(-255.3585,-377.89844)" id="g7037">
  <path style="fill:none;stroke:#000000;stroke-width:0.28299001;stroke-linecap:butt;stroke-linejoin:round;stroke-miterlimit:10;stroke-opacity:1" d="m 276.19922,464.30078 0,-86.19922" transform="matrix(1,0,0,-1,0,842)" id="path7039"/>
 </g>
 <g transform="translate(-255.3585,-377.89844)" id="g7041">
  <path style="fill:none;stroke:#000000;stroke-width:0.28299001;stroke-linecap:butt;stroke-linejoin:round;stroke-miterlimit:10;stroke-opacity:1" d="m 278,464.30078 0,-86.19922" transform="matrix(1,0,0,-1,0,842)" id="path7043"/>
 </g>
 <g transform="translate(-255.3585,-377.89844)" id="g7045">
  <path style="fill:none;stroke:#000000;stroke-width:0.28299001;stroke-linecap:butt;stroke-linejoin:round;stroke-miterlimit:10;stroke-opacity:1" d="m 280,464.30078 0,-86.19922" transform="matrix(1,0,0,-1,0,842)" id="path7047"/>
 </g>
 <g transform="translate(-255.3585,-377.89844)" id="g7049">
  <path style="fill:none;stroke:#000000;stroke-width:0.28299001;stroke-linecap:butt;stroke-linejoin:round;stroke-miterlimit:10;stroke-opacity:1" d="m 281.80078,464.30078 0,-86.19922" transform="matrix(1,0,0,-1,0,842)" id="path7051"/>
 </g>
 <g transform="translate(-255.3585,-377.89844)" id="g7053">
  <path style="fill:none;stroke:#000000;stroke-width:0.28299001;stroke-linecap:butt;stroke-linejoin:round;stroke-miterlimit:10;stroke-opacity:1" d="m 283.60156,464.30078 0,-86.19922" transform="matrix(1,0,0,-1,0,842)" id="path7055"/>
 </g>
 <g transform="translate(-255.3585,-377.89844)" id="g7057">
  <path style="fill:none;stroke:#000000;stroke-width:0.28299001;stroke-linecap:butt;stroke-linejoin:round;stroke-miterlimit:10;stroke-opacity:1" d="m 285.60156,464.30078 0,-86.19922" transform="matrix(1,0,0,-1,0,842)" id="path7059"/>
 </g>
 <g transform="translate(-255.3585,-377.89844)" id="g7061">
  <path style="fill:none;stroke:#000000;stroke-width:0.28299001;stroke-linecap:butt;stroke-linejoin:round;stroke-miterlimit:10;stroke-opacity:1" d="m 287.39844,464.30078 0,-86.19922" transform="matrix(1,0,0,-1,0,842)" id="path7063"/>
 </g>
 <g transform="translate(-255.3585,-377.89844)" id="g7065">
  <path style="fill:none;stroke:#000000;stroke-width:0.28299001;stroke-linecap:butt;stroke-linejoin:round;stroke-miterlimit:10;stroke-opacity:1" d="m 289.19922,464.30078 0,-86.19922" transform="matrix(1,0,0,-1,0,842)" id="path7067"/>
 </g>
 <g transform="translate(-255.3585,-377.89844)" id="g7069">
  <path style="fill:none;stroke:#000000;stroke-width:0.28299001;stroke-linecap:butt;stroke-linejoin:round;stroke-miterlimit:10;stroke-opacity:1" d="m 291.30078,464.30078 0,-86.19922" transform="matrix(1,0,0,-1,0,842)" id="path7071"/>
 </g>
 <g transform="translate(-255.3585,-377.89844)" id="g7073">
  <path style="fill:none;stroke:#000000;stroke-width:0.28299001;stroke-linecap:butt;stroke-linejoin:round;stroke-miterlimit:10;stroke-opacity:1" d="m 293,464.30078 0,-86.19922" transform="matrix(1,0,0,-1,0,842)" id="path7075"/>
 </g>
 <g transform="translate(-255.3585,-377.89844)" id="g7077">
  <path style="fill:none;stroke:#000000;stroke-width:0.28299001;stroke-linecap:butt;stroke-linejoin:round;stroke-miterlimit:10;stroke-opacity:1" d="m 294.80078,464.30078 0,-86.19922" transform="matrix(1,0,0,-1,0,842)" id="path7079"/>
 </g>
 <g transform="translate(-255.3585,-377.89844)" id="g7081">
  <path style="fill:none;stroke:#000000;stroke-width:0.28299001;stroke-linecap:butt;stroke-linejoin:round;stroke-miterlimit:10;stroke-opacity:1" d="m 296.89844,464.30078 0,-86.19922" transform="matrix(1,0,0,-1,0,842)" id="path7083"/>
 </g>
 <g transform="translate(-255.3585,-377.89844)" id="g7085">
  <path style="fill:none;stroke:#000000;stroke-width:0.28299001;stroke-linecap:butt;stroke-linejoin:round;stroke-miterlimit:10;stroke-opacity:1" d="m 298.60156,464.30078 0,-86.19922" transform="matrix(1,0,0,-1,0,842)" id="path7087"/>
 </g>
 <g transform="translate(-255.3585,-377.89844)" id="g7089">
  <path style="fill:none;stroke:#000000;stroke-width:0.28299001;stroke-linecap:butt;stroke-linejoin:round;stroke-miterlimit:10;stroke-opacity:1" d="m 300.39844,464.30078 0,-86.19922" transform="matrix(1,0,0,-1,0,842)" id="path7091"/>
 </g>
 <g transform="translate(-255.3585,-377.89844)" id="g7093">
  <path style="fill:none;stroke:#000000;stroke-width:0.28299001;stroke-linecap:butt;stroke-linejoin:round;stroke-miterlimit:10;stroke-opacity:1" d="m 302.5,464.30078 0,-86.19922" transform="matrix(1,0,0,-1,0,842)" id="path7095"/>
 </g>
 <g transform="translate(-255.3585,-377.89844)" id="g7097">
  <path style="fill:none;stroke:#000000;stroke-width:0.28299001;stroke-linecap:butt;stroke-linejoin:round;stroke-miterlimit:10;stroke-opacity:1" d="m 304.19922,464.30078 0,-86.19922" transform="matrix(1,0,0,-1,0,842)" id="path7099"/>
 </g>
 <g transform="translate(-255.3585,-377.89844)" id="g7101">
  <path style="fill:none;stroke:#000000;stroke-width:0.28299001;stroke-linecap:butt;stroke-linejoin:round;stroke-miterlimit:10;stroke-opacity:1" d="m 306,464.30078 0,-86.19922" transform="matrix(1,0,0,-1,0,842)" id="path7103"/>
 </g>
 <g transform="translate(-255.3585,-377.89844)" id="g7105">
  <path style="fill:none;stroke:#000000;stroke-width:0.28299001;stroke-linecap:butt;stroke-linejoin:round;stroke-miterlimit:10;stroke-opacity:1" d="m 308.10156,464.30078 0,-86.19922" transform="matrix(1,0,0,-1,0,842)" id="path7107"/>
 </g>
 <g transform="translate(-255.3585,-377.89844)" id="g7109">
  <path style="fill:none;stroke:#000000;stroke-width:0.28299001;stroke-linecap:butt;stroke-linejoin:round;stroke-miterlimit:10;stroke-opacity:1" d="m 309.89844,464.30078 0,-86.19922" transform="matrix(1,0,0,-1,0,842)" id="path7111"/>
 </g>
 <g transform="translate(-255.3585,-377.89844)" id="g7113">
  <path style="fill:none;stroke:#000000;stroke-width:0.28299001;stroke-linecap:butt;stroke-linejoin:round;stroke-miterlimit:10;stroke-opacity:1" d="m 311.60156,464.30078 0,-86.19922" transform="matrix(1,0,0,-1,0,842)" id="path7115"/>
 </g>
 <g transform="translate(-255.3585,-377.89844)" id="g7117">
  <path style="fill:none;stroke:#000000;stroke-width:0.28299001;stroke-linecap:butt;stroke-linejoin:round;stroke-miterlimit:10;stroke-opacity:1" d="m 313.69922,464.30078 0,-86.19922" transform="matrix(1,0,0,-1,0,842)" id="path7119"/>
 </g>
 <g transform="translate(-255.3585,-377.89844)" id="g7121">
  <path style="fill:none;stroke:#000000;stroke-width:0.28299001;stroke-linecap:butt;stroke-linejoin:round;stroke-miterlimit:10;stroke-opacity:1" d="m 315.5,464.30078 0,-86.19922" transform="matrix(1,0,0,-1,0,842)" id="path7123"/>
 </g>
 <g transform="translate(-255.3585,-377.89844)" id="g7125">
  <path style="fill:none;stroke:#000000;stroke-width:0.28299001;stroke-linecap:butt;stroke-linejoin:round;stroke-miterlimit:10;stroke-opacity:1" d="m 317.30078,464.30078 0,-86.19922" transform="matrix(1,0,0,-1,0,842)" id="path7127"/>
 </g>
 <g transform="translate(-255.3585,-377.89844)" id="g7129">
  <path style="fill:none;stroke:#000000;stroke-width:0.28299001;stroke-linecap:butt;stroke-linejoin:round;stroke-miterlimit:10;stroke-opacity:1" d="m 319.30078,464.30078 0,-86.19922" transform="matrix(1,0,0,-1,0,842)" id="path7131"/>
 </g>
 <g transform="translate(-255.3585,-377.89844)" id="g7133">
  <path style="fill:none;stroke:#000000;stroke-width:0.28299001;stroke-linecap:butt;stroke-linejoin:round;stroke-miterlimit:10;stroke-opacity:1" d="m 321.10156,464.30078 0,-86.19922" transform="matrix(1,0,0,-1,0,842)" id="path7135"/>
 </g>
 <g transform="translate(-255.3585,-377.89844)" id="g7137">
  <path style="fill:none;stroke:#000000;stroke-width:0.28299001;stroke-linecap:butt;stroke-linejoin:round;stroke-miterlimit:10;stroke-opacity:1" d="m 322.89844,464.30078 0,-86.19922" transform="matrix(1,0,0,-1,0,842)" id="path7139"/>
 </g>
 <g transform="translate(-255.3585,-377.89844)" id="g7141">
  <path style="fill:none;stroke:#000000;stroke-width:0.28299001;stroke-linecap:butt;stroke-linejoin:round;stroke-miterlimit:10;stroke-opacity:1" d="m 324.89844,464.30078 0,-86.19922" transform="matrix(1,0,0,-1,0,842)" id="path7143"/>
 </g>
 <g transform="translate(-255.3585,-377.89844)" id="g7145">
  <path style="fill:none;stroke:#000000;stroke-width:0.28299001;stroke-linecap:butt;stroke-linejoin:round;stroke-miterlimit:10;stroke-opacity:1" d="m 326.69922,464.30078 0,-86.19922" transform="matrix(1,0,0,-1,0,842)" id="path7147"/>
 </g>
 <g transform="translate(-255.3585,-377.89844)" id="g7149">
  <path style="fill:none;stroke:#000000;stroke-width:0.28299001;stroke-linecap:butt;stroke-linejoin:round;stroke-miterlimit:10;stroke-opacity:1" d="m 328.5,464.30078 0,-86.19922" transform="matrix(1,0,0,-1,0,842)" id="path7151"/>
 </g>
 <g transform="translate(-255.3585,-377.89844)" id="g7153">
  <path style="fill:none;stroke:#000000;stroke-width:0.28299001;stroke-linecap:butt;stroke-linejoin:round;stroke-miterlimit:10;stroke-opacity:1" d="m 330.5,464.30078 0,-86.19922" transform="matrix(1,0,0,-1,0,842)" id="path7155"/>
 </g>
 <g transform="translate(-255.3585,-377.89844)" id="g7157">
  <path style="fill:none;stroke:#000000;stroke-width:0.28299001;stroke-linecap:butt;stroke-linejoin:round;stroke-miterlimit:10;stroke-opacity:1" d="m 332.30078,464.30078 0,-86.19922" transform="matrix(1,0,0,-1,0,842)" id="path7159"/>
 </g>
 <g transform="translate(-255.3585,-377.89844)" id="g7161">
  <path style="fill:none;stroke:#000000;stroke-width:0.28299001;stroke-linecap:butt;stroke-linejoin:round;stroke-miterlimit:10;stroke-opacity:1" d="m 334.10156,464.30078 0,-86.19922" transform="matrix(1,0,0,-1,0,842)" id="path7163"/>
 </g>
 <g transform="translate(-255.3585,-377.89844)" id="g7165">
  <path style="fill:none;stroke:#000000;stroke-width:0.28299001;stroke-linecap:butt;stroke-linejoin:round;stroke-miterlimit:10;stroke-opacity:1" d="m 336.10156,464.30078 0,-86.19922" transform="matrix(1,0,0,-1,0,842)" id="path7167"/>
 </g>
 <g transform="translate(-255.3585,-377.89844)" id="g7169">
  <path style="fill:none;stroke:#000000;stroke-width:0.28299001;stroke-linecap:butt;stroke-linejoin:round;stroke-miterlimit:10;stroke-opacity:1" d="m 337.89844,464.30078 0,-86.19922" transform="matrix(1,0,0,-1,0,842)" id="path7171"/>
 </g>
 <g transform="translate(-255.3585,-377.89844)" id="g7173">
  <path style="fill:none;stroke:#000000;stroke-width:0.28299001;stroke-linecap:butt;stroke-linejoin:round;stroke-miterlimit:10;stroke-opacity:1" d="m 339.69922,464.30078 0,-86.19922" transform="matrix(1,0,0,-1,0,842)" id="path7175"/>
 </g>
</svg>
