<?xml version="1.0"?>
<!-- Converted with SVG Converter - Version 0.9.5 (Compiled Fri Feb 21 09:53:38 2020) - Copyright (C) 2011 Nokia -->
<svg xmlns="http://www.w3.org/2000/svg" viewBox="0 0 84.482208 86" id="svg6843" height="107.5" width="105.60276" xmlns:xlink="http://www.w3.org/1999/xlink" baseProfile="tiny" version="1.2">
 <metadata id="metadata7179"/>
 <defs id="defs6845"/>
 <g id="g6993" transform="translate(-255.3585,-377.89844)">
  <path style="fill:none;stroke:#000000;stroke-width:0.28299001;stroke-linecap:butt;stroke-linejoin:round;stroke-miterlimit:10;stroke-opacity:1" id="path6995" d="m 255.5,464.30078 0,-86.19922" transform="matrix(1,0,0,-1,0,842)"/>
 </g>
 <g id="g6997" transform="translate(-255.3585,-377.89844)">
  <path style="fill:none;stroke:#000000;stroke-width:0.28299001;stroke-linecap:butt;stroke-linejoin:round;stroke-miterlimit:10;stroke-opacity:1" id="path6999" d="m 257.60156,464.30078 0,-86.19922" transform="matrix(1,0,0,-1,0,842)"/>
 </g>
 <g id="g7001" transform="translate(-255.3585,-377.89844)">
  <path style="fill:none;stroke:#000000;stroke-width:0.28299001;stroke-linecap:butt;stroke-linejoin:round;stroke-miterlimit:10;stroke-opacity:1" id="path7003" d="m 259.39844,464.30078 0,-86.19922" transform="matrix(1,0,0,-1,0,842)"/>
 </g>
 <g id="g7005" transform="translate(-255.3585,-377.89844)">
  <path style="fill:none;stroke:#000000;stroke-width:0.28299001;stroke-linecap:butt;stroke-linejoin:round;stroke-miterlimit:10;stroke-opacity:1" id="path7007" d="m 261.10156,464.30078 0,-86.19922" transform="matrix(1,0,0,-1,0,842)"/>
 </g>
 <g id="g7009" transform="translate(-255.3585,-377.89844)">
  <path style="fill:none;stroke:#000000;stroke-width:0.28299001;stroke-linecap:butt;stroke-linejoin:round;stroke-miterlimit:10;stroke-opacity:1" id="path7011" d="m 263.19922,464.30078 0,-86.19922" transform="matrix(1,0,0,-1,0,842)"/>
 </g>
 <g id="g7013" transform="translate(-255.3585,-377.89844)">
  <path style="fill:none;stroke:#000000;stroke-width:0.28299001;stroke-linecap:butt;stroke-linejoin:round;stroke-miterlimit:10;stroke-opacity:1" id="path7015" d="m 265,464.30078 0,-86.19922" transform="matrix(1,0,0,-1,0,842)"/>
 </g>
 <g id="g7017" transform="translate(-255.3585,-377.89844)">
  <path style="fill:none;stroke:#000000;stroke-width:0.28299001;stroke-linecap:butt;stroke-linejoin:round;stroke-miterlimit:10;stroke-opacity:1" id="path7019" d="m 266.69922,464.30078 0,-86.19922" transform="matrix(1,0,0,-1,0,842)"/>
 </g>
 <g id="g7021" transform="translate(-255.3585,-377.89844)">
  <path style="fill:none;stroke:#000000;stroke-width:0.28299001;stroke-linecap:butt;stroke-linejoin:round;stroke-miterlimit:10;stroke-opacity:1" id="path7023" d="m 268.80078,464.30078 0,-86.19922" transform="matrix(1,0,0,-1,0,842)"/>
 </g>
 <g id="g7025" transform="translate(-255.3585,-377.89844)">
  <path style="fill:none;stroke:#000000;stroke-width:0.28299001;stroke-linecap:butt;stroke-linejoin:round;stroke-miterlimit:10;stroke-opacity:1" id="path7027" d="m 270.60156,464.30078 0,-86.19922" transform="matrix(1,0,0,-1,0,842)"/>
 </g>
 <g id="g7029" transform="translate(-255.3585,-377.89844)">
  <path style="fill:none;stroke:#000000;stroke-width:0.28299001;stroke-linecap:butt;stroke-linejoin:round;stroke-miterlimit:10;stroke-opacity:1" id="path7031" d="m 272.39844,464.30078 0,-86.19922" transform="matrix(1,0,0,-1,0,842)"/>
 </g>
 <g id="g7033" transform="translate(-255.3585,-377.89844)">
  <path style="fill:none;stroke:#000000;stroke-width:0.28299001;stroke-linecap:butt;stroke-linejoin:round;stroke-miterlimit:10;stroke-opacity:1" id="path7035" d="m 274.39844,464.30078 0,-86.19922" transform="matrix(1,0,0,-1,0,842)"/>
 </g>
 <g id="g7037" transform="translate(-255.3585,-377.89844)">
  <path style="fill:none;stroke:#000000;stroke-width:0.28299001;stroke-linecap:butt;stroke-linejoin:round;stroke-miterlimit:10;stroke-opacity:1" id="path7039" d="m 276.19922,464.30078 0,-86.19922" transform="matrix(1,0,0,-1,0,842)"/>
 </g>
 <g id="g7041" transform="translate(-255.3585,-377.89844)">
  <path style="fill:none;stroke:#000000;stroke-width:0.28299001;stroke-linecap:butt;stroke-linejoin:round;stroke-miterlimit:10;stroke-opacity:1" id="path7043" d="m 278,464.30078 0,-86.19922" transform="matrix(1,0,0,-1,0,842)"/>
 </g>
 <g id="g7045" transform="translate(-255.3585,-377.89844)">
  <path style="fill:none;stroke:#000000;stroke-width:0.28299001;stroke-linecap:butt;stroke-linejoin:round;stroke-miterlimit:10;stroke-opacity:1" id="path7047" d="m 280,464.30078 0,-86.19922" transform="matrix(1,0,0,-1,0,842)"/>
 </g>
 <g id="g7049" transform="translate(-255.3585,-377.89844)">
  <path style="fill:none;stroke:#000000;stroke-width:0.28299001;stroke-linecap:butt;stroke-linejoin:round;stroke-miterlimit:10;stroke-opacity:1" id="path7051" d="m 281.80078,464.30078 0,-86.19922" transform="matrix(1,0,0,-1,0,842)"/>
 </g>
 <g id="g7053" transform="translate(-255.3585,-377.89844)">
  <path style="fill:none;stroke:#000000;stroke-width:0.28299001;stroke-linecap:butt;stroke-linejoin:round;stroke-miterlimit:10;stroke-opacity:1" id="path7055" d="m 283.60156,464.30078 0,-86.19922" transform="matrix(1,0,0,-1,0,842)"/>
 </g>
 <g id="g7057" transform="translate(-255.3585,-377.89844)">
  <path style="fill:none;stroke:#000000;stroke-width:0.28299001;stroke-linecap:butt;stroke-linejoin:round;stroke-miterlimit:10;stroke-opacity:1" id="path7059" d="m 285.60156,464.30078 0,-86.19922" transform="matrix(1,0,0,-1,0,842)"/>
 </g>
 <g id="g7061" transform="translate(-255.3585,-377.89844)">
  <path style="fill:none;stroke:#000000;stroke-width:0.28299001;stroke-linecap:butt;stroke-linejoin:round;stroke-miterlimit:10;stroke-opacity:1" id="path7063" d="m 287.39844,464.30078 0,-86.19922" transform="matrix(1,0,0,-1,0,842)"/>
 </g>
 <g id="g7065" transform="translate(-255.3585,-377.89844)">
  <path style="fill:none;stroke:#000000;stroke-width:0.28299001;stroke-linecap:butt;stroke-linejoin:round;stroke-miterlimit:10;stroke-opacity:1" id="path7067" d="m 289.19922,464.30078 0,-86.19922" transform="matrix(1,0,0,-1,0,842)"/>
 </g>
 <g id="g7069" transform="translate(-255.3585,-377.89844)">
  <path style="fill:none;stroke:#000000;stroke-width:0.28299001;stroke-linecap:butt;stroke-linejoin:round;stroke-miterlimit:10;stroke-opacity:1" id="path7071" d="m 291.30078,464.30078 0,-86.19922" transform="matrix(1,0,0,-1,0,842)"/>
 </g>
 <g id="g7073" transform="translate(-255.3585,-377.89844)">
  <path style="fill:none;stroke:#000000;stroke-width:0.28299001;stroke-linecap:butt;stroke-linejoin:round;stroke-miterlimit:10;stroke-opacity:1" id="path7075" d="m 293,464.30078 0,-86.19922" transform="matrix(1,0,0,-1,0,842)"/>
 </g>
 <g id="g7077" transform="translate(-255.3585,-377.89844)">
  <path style="fill:none;stroke:#000000;stroke-width:0.28299001;stroke-linecap:butt;stroke-linejoin:round;stroke-miterlimit:10;stroke-opacity:1" id="path7079" d="m 294.80078,464.30078 0,-86.19922" transform="matrix(1,0,0,-1,0,842)"/>
 </g>
 <g id="g7081" transform="translate(-255.3585,-377.89844)">
  <path style="fill:none;stroke:#000000;stroke-width:0.28299001;stroke-linecap:butt;stroke-linejoin:round;stroke-miterlimit:10;stroke-opacity:1" id="path7083" d="m 296.89844,464.30078 0,-86.19922" transform="matrix(1,0,0,-1,0,842)"/>
 </g>
 <g id="g7085" transform="translate(-255.3585,-377.89844)">
  <path style="fill:none;stroke:#000000;stroke-width:0.28299001;stroke-linecap:butt;stroke-linejoin:round;stroke-miterlimit:10;stroke-opacity:1" id="path7087" d="m 298.60156,464.30078 0,-86.19922" transform="matrix(1,0,0,-1,0,842)"/>
 </g>
 <g id="g7089" transform="translate(-255.3585,-377.89844)">
  <path style="fill:none;stroke:#000000;stroke-width:0.28299001;stroke-linecap:butt;stroke-linejoin:round;stroke-miterlimit:10;stroke-opacity:1" id="path7091" d="m 300.39844,464.30078 0,-86.19922" transform="matrix(1,0,0,-1,0,842)"/>
 </g>
 <g id="g7093" transform="translate(-255.3585,-377.89844)">
  <path style="fill:none;stroke:#000000;stroke-width:0.28299001;stroke-linecap:butt;stroke-linejoin:round;stroke-miterlimit:10;stroke-opacity:1" id="path7095" d="m 302.5,464.30078 0,-86.19922" transform="matrix(1,0,0,-1,0,842)"/>
 </g>
 <g id="g7097" transform="translate(-255.3585,-377.89844)">
  <path style="fill:none;stroke:#000000;stroke-width:0.28299001;stroke-linecap:butt;stroke-linejoin:round;stroke-miterlimit:10;stroke-opacity:1" id="path7099" d="m 304.19922,464.30078 0,-86.19922" transform="matrix(1,0,0,-1,0,842)"/>
 </g>
 <g id="g7101" transform="translate(-255.3585,-377.89844)">
  <path style="fill:none;stroke:#000000;stroke-width:0.28299001;stroke-linecap:butt;stroke-linejoin:round;stroke-miterlimit:10;stroke-opacity:1" id="path7103" d="m 306,464.30078 0,-86.19922" transform="matrix(1,0,0,-1,0,842)"/>
 </g>
 <g id="g7105" transform="translate(-255.3585,-377.89844)">
  <path style="fill:none;stroke:#000000;stroke-width:0.28299001;stroke-linecap:butt;stroke-linejoin:round;stroke-miterlimit:10;stroke-opacity:1" id="path7107" d="m 308.10156,464.30078 0,-86.19922" transform="matrix(1,0,0,-1,0,842)"/>
 </g>
 <g id="g7109" transform="translate(-255.3585,-377.89844)">
  <path style="fill:none;stroke:#000000;stroke-width:0.28299001;stroke-linecap:butt;stroke-linejoin:round;stroke-miterlimit:10;stroke-opacity:1" id="path7111" d="m 309.89844,464.30078 0,-86.19922" transform="matrix(1,0,0,-1,0,842)"/>
 </g>
 <g id="g7113" transform="translate(-255.3585,-377.89844)">
  <path style="fill:none;stroke:#000000;stroke-width:0.28299001;stroke-linecap:butt;stroke-linejoin:round;stroke-miterlimit:10;stroke-opacity:1" id="path7115" d="m 311.60156,464.30078 0,-86.19922" transform="matrix(1,0,0,-1,0,842)"/>
 </g>
 <g id="g7117" transform="translate(-255.3585,-377.89844)">
  <path style="fill:none;stroke:#000000;stroke-width:0.28299001;stroke-linecap:butt;stroke-linejoin:round;stroke-miterlimit:10;stroke-opacity:1" id="path7119" d="m 313.69922,464.30078 0,-86.19922" transform="matrix(1,0,0,-1,0,842)"/>
 </g>
 <g id="g7121" transform="translate(-255.3585,-377.89844)">
  <path style="fill:none;stroke:#000000;stroke-width:0.28299001;stroke-linecap:butt;stroke-linejoin:round;stroke-miterlimit:10;stroke-opacity:1" id="path7123" d="m 315.5,464.30078 0,-86.19922" transform="matrix(1,0,0,-1,0,842)"/>
 </g>
 <g id="g7125" transform="translate(-255.3585,-377.89844)">
  <path style="fill:none;stroke:#000000;stroke-width:0.28299001;stroke-linecap:butt;stroke-linejoin:round;stroke-miterlimit:10;stroke-opacity:1" id="path7127" d="m 317.30078,464.30078 0,-86.19922" transform="matrix(1,0,0,-1,0,842)"/>
 </g>
 <g id="g7129" transform="translate(-255.3585,-377.89844)">
  <path style="fill:none;stroke:#000000;stroke-width:0.28299001;stroke-linecap:butt;stroke-linejoin:round;stroke-miterlimit:10;stroke-opacity:1" id="path7131" d="m 319.30078,464.30078 0,-86.19922" transform="matrix(1,0,0,-1,0,842)"/>
 </g>
 <g id="g7133" transform="translate(-255.3585,-377.89844)">
  <path style="fill:none;stroke:#000000;stroke-width:0.28299001;stroke-linecap:butt;stroke-linejoin:round;stroke-miterlimit:10;stroke-opacity:1" id="path7135" d="m 321.10156,464.30078 0,-86.19922" transform="matrix(1,0,0,-1,0,842)"/>
 </g>
 <g id="g7137" transform="translate(-255.3585,-377.89844)">
  <path style="fill:none;stroke:#000000;stroke-width:0.28299001;stroke-linecap:butt;stroke-linejoin:round;stroke-miterlimit:10;stroke-opacity:1" id="path7139" d="m 322.89844,464.30078 0,-86.19922" transform="matrix(1,0,0,-1,0,842)"/>
 </g>
 <g id="g7141" transform="translate(-255.3585,-377.89844)">
  <path style="fill:none;stroke:#000000;stroke-width:0.28299001;stroke-linecap:butt;stroke-linejoin:round;stroke-miterlimit:10;stroke-opacity:1" id="path7143" d="m 324.89844,464.30078 0,-86.19922" transform="matrix(1,0,0,-1,0,842)"/>
 </g>
 <g id="g7145" transform="translate(-255.3585,-377.89844)">
  <path style="fill:none;stroke:#000000;stroke-width:0.28299001;stroke-linecap:butt;stroke-linejoin:round;stroke-miterlimit:10;stroke-opacity:1" id="path7147" d="m 326.69922,464.30078 0,-86.19922" transform="matrix(1,0,0,-1,0,842)"/>
 </g>
 <g id="g7149" transform="translate(-255.3585,-377.89844)">
  <path style="fill:none;stroke:#000000;stroke-width:0.28299001;stroke-linecap:butt;stroke-linejoin:round;stroke-miterlimit:10;stroke-opacity:1" id="path7151" d="m 328.5,464.30078 0,-86.19922" transform="matrix(1,0,0,-1,0,842)"/>
 </g>
 <g id="g7153" transform="translate(-255.3585,-377.89844)">
  <path style="fill:none;stroke:#000000;stroke-width:0.28299001;stroke-linecap:butt;stroke-linejoin:round;stroke-miterlimit:10;stroke-opacity:1" id="path7155" d="m 330.5,464.30078 0,-86.19922" transform="matrix(1,0,0,-1,0,842)"/>
 </g>
 <g id="g7157" transform="translate(-255.3585,-377.89844)">
  <path style="fill:none;stroke:#000000;stroke-width:0.28299001;stroke-linecap:butt;stroke-linejoin:round;stroke-miterlimit:10;stroke-opacity:1" id="path7159" d="m 332.30078,464.30078 0,-86.19922" transform="matrix(1,0,0,-1,0,842)"/>
 </g>
 <g id="g7161" transform="translate(-255.3585,-377.89844)">
  <path style="fill:none;stroke:#000000;stroke-width:0.28299001;stroke-linecap:butt;stroke-linejoin:round;stroke-miterlimit:10;stroke-opacity:1" id="path7163" d="m 334.10156,464.30078 0,-86.19922" transform="matrix(1,0,0,-1,0,842)"/>
 </g>
 <g id="g7165" transform="translate(-255.3585,-377.89844)">
  <path style="fill:none;stroke:#000000;stroke-width:0.28299001;stroke-linecap:butt;stroke-linejoin:round;stroke-miterlimit:10;stroke-opacity:1" id="path7167" d="m 336.10156,464.30078 0,-86.19922" transform="matrix(1,0,0,-1,0,842)"/>
 </g>
 <g id="g7169" transform="translate(-255.3585,-377.89844)">
  <path style="fill:none;stroke:#000000;stroke-width:0.28299001;stroke-linecap:butt;stroke-linejoin:round;stroke-miterlimit:10;stroke-opacity:1" id="path7171" d="m 337.89844,464.30078 0,-86.19922" transform="matrix(1,0,0,-1,0,842)"/>
 </g>
 <g id="g7173" transform="translate(-255.3585,-377.89844)">
  <path style="fill:none;stroke:#000000;stroke-width:0.28299001;stroke-linecap:butt;stroke-linejoin:round;stroke-miterlimit:10;stroke-opacity:1" id="path7175" d="m 339.69922,464.30078 0,-86.19922" transform="matrix(1,0,0,-1,0,842)"/>
 </g>
</svg>
