<?xml version="1.0" encoding="UTF-8" standalone="no"?>
<svg
   xmlns:dc="http://purl.org/dc/elements/1.1/"
   xmlns:cc="http://creativecommons.org/ns#"
   xmlns:rdf="http://www.w3.org/1999/02/22-rdf-syntax-ns#"
   xmlns:svg="http://www.w3.org/2000/svg"
   xmlns="http://www.w3.org/2000/svg"
   xmlns:sodipodi="http://sodipodi.sourceforge.net/DTD/sodipodi-0.dtd"
   xmlns:inkscape="http://www.inkscape.org/namespaces/inkscape"
   width="78.251953"
   height="77.875977"
   viewBox="0 0 62.601562 62.300781"
   version="1.2"
   id="svg18908"
   inkscape:version="0.48.4 r9939"
   sodipodi:docname="25.54_118-K.svg">
  <metadata
     id="metadata19314">
    <rdf:RDF>
      <cc:Work
         rdf:about="">
        <dc:format>image/svg+xml</dc:format>
        <dc:type
           rdf:resource="http://purl.org/dc/dcmitype/StillImage" />
      </cc:Work>
    </rdf:RDF>
  </metadata>
  <sodipodi:namedview
     pagecolor="#ffffff"
     bordercolor="#666666"
     borderopacity="1"
     objecttolerance="10"
     gridtolerance="10"
     guidetolerance="10"
     inkscape:pageopacity="0"
     inkscape:pageshadow="2"
     inkscape:window-width="640"
     inkscape:window-height="480"
     id="namedview19312"
     showgrid="false"
     fit-margin-top="0"
     fit-margin-left="0"
     fit-margin-right="0"
     fit-margin-bottom="0"
     inkscape:zoom="0.22422803"
     inkscape:cx="39.125975"
     inkscape:cy="38.87695"
     inkscape:window-x="603"
     inkscape:window-y="454"
     inkscape:window-maximized="0"
     inkscape:current-layer="svg18908" />
  <defs
     id="defs18910">
    <clipPath
       id="clip1">
      <path
         d="m 0,0.101562 595,0 0,841.796878 -595,0 z m 0,0"
         id="path18913"
         inkscape:connector-curvature="0" />
    </clipPath>
  </defs>
  <path
     inkscape:connector-curvature="0"
     id="path18920"
     d="m 0,0.59766 c 0,0.30078 0.30078,0.30078 0.5,0.30078 0.40234,0 0.60156,0 0.60156,-0.30078 C 1.10156,0.30078 0.90234,0 0.5,0 0.30078,0 0,0.30078 0,0.59766 z m 0,0"
     style="fill:#000000;fill-opacity:1;fill-rule:evenodd;stroke:none" />
  <path
     inkscape:connector-curvature="0"
     id="path18922"
     d="m 4.69922,0.59766 c 0,0.30078 0.30078,0.30078 0.60156,0.30078 0.30078,0 0.60156,0 0.60156,-0.30078 C 5.90234,0.30078 5.60156,0 5.30078,0 5,0 4.69922,0.30078 4.69922,0.59766 z m 0,0"
     style="fill:#000000;fill-opacity:1;fill-rule:evenodd;stroke:none" />
  <path
     inkscape:connector-curvature="0"
     id="path18924"
     d="m 9.40234,0.59766 c 0,0.30078 0.29688,0.30078 0.59766,0.30078 0.30078,0 0.60156,0 0.60156,-0.30078 C 10.60156,0.30078 10.30078,0 10,0 9.69922,0 9.40234,0.30078 9.40234,0.59766 z m 0,0"
     style="fill:#000000;fill-opacity:1;fill-rule:evenodd;stroke:none" />
  <path
     inkscape:connector-curvature="0"
     id="path18926"
     d="m 14.10156,0.59766 c 0,0.30078 0.30078,0.30078 0.59766,0.30078 0.30078,0 0.60156,0 0.60156,-0.30078 C 15.30078,0.30078 15,0 14.69922,0 14.40234,0 14.10156,0.30078 14.10156,0.59766 z m 0,0"
     style="fill:#000000;fill-opacity:1;fill-rule:evenodd;stroke:none" />
  <path
     inkscape:connector-curvature="0"
     id="path18928"
     d="m 18.90234,0.59766 c 0,0.30078 0.29688,0.30078 0.5,0.30078 0.29688,0 0.59766,0 0.59766,-0.30078 C 20,0.30078 19.69922,0 19.40234,0 c -0.20312,0 -0.5,0.30078 -0.5,0.59766 z m 0,0"
     style="fill:#000000;fill-opacity:1;fill-rule:evenodd;stroke:none" />
  <path
     inkscape:connector-curvature="0"
     id="path18930"
     d="m 23.60156,0.59766 c 0,0.30078 0.30078,0.30078 0.59766,0.30078 0.30078,0 0.60156,0 0.60156,-0.30078 C 24.80078,0.30078 24.5,0 24.19922,0 23.90234,0 23.60156,0.30078 23.60156,0.59766 z m 0,0"
     style="fill:#000000;fill-opacity:1;fill-rule:evenodd;stroke:none" />
  <path
     inkscape:connector-curvature="0"
     id="path18932"
     d="m 28.30078,0.59766 c 0,0.30078 0.30078,0.30078 0.60156,0.30078 0.29688,0 0.59766,0 0.59766,-0.30078 C 29.5,0.30078 29.19922,0 28.90234,0 28.60156,0 28.30078,0.30078 28.30078,0.59766 z m 0,0"
     style="fill:#000000;fill-opacity:1;fill-rule:evenodd;stroke:none" />
  <path
     inkscape:connector-curvature="0"
     id="path18934"
     d="m 33,0.59766 c 0,0.30078 0.30078,0.30078 0.60156,0.30078 0.30078,0 0.59766,0 0.59766,-0.30078 C 34.19922,0.30078 33.90234,0 33.60156,0 33.30078,0 33,0.30078 33,0.59766 z m 0,0"
     style="fill:#000000;fill-opacity:1;fill-rule:evenodd;stroke:none" />
  <path
     inkscape:connector-curvature="0"
     id="path18936"
     d="m 37.80078,0.59766 c 0,0.30078 0.19922,0.30078 0.60156,0.30078 0.19922,0 0.5,0 0.5,-0.30078 C 38.90234,0.30078 38.60156,0 38.40234,0 38,0 37.80078,0.30078 37.80078,0.59766 z m 0,0"
     style="fill:#000000;fill-opacity:1;fill-rule:evenodd;stroke:none" />
  <path
     inkscape:connector-curvature="0"
     id="path18938"
     d="m 42.5,0.59766 c 0,0.30078 0.30078,0.30078 0.60156,0.30078 0.30078,0 0.59766,0 0.59766,-0.30078 C 43.69922,0.30078 43.40234,0 43.10156,0 42.80078,0 42.5,0.30078 42.5,0.59766 z m 0,0"
     style="fill:#000000;fill-opacity:1;fill-rule:evenodd;stroke:none" />
  <path
     inkscape:connector-curvature="0"
     id="path18940"
     d="m 47.19922,0.59766 c 0,0.30078 0.30078,0.30078 0.60156,0.30078 0.30078,0 0.60156,0 0.60156,-0.30078 C 48.40234,0.30078 48.10156,0 47.80078,0 47.5,0 47.19922,0.30078 47.19922,0.59766 z m 0,0"
     style="fill:#000000;fill-opacity:1;fill-rule:evenodd;stroke:none" />
  <path
     inkscape:connector-curvature="0"
     id="path18942"
     d="m 51.90234,0.59766 c 0,0.30078 0.29688,0.30078 0.59766,0.30078 0.30078,0 0.60156,0 0.60156,-0.30078 C 53.10156,0.30078 52.80078,0 52.5,0 52.19922,0 51.90234,0.30078 51.90234,0.59766 z m 0,0"
     style="fill:#000000;fill-opacity:1;fill-rule:evenodd;stroke:none" />
  <path
     inkscape:connector-curvature="0"
     id="path18944"
     d="m 56.69922,0.59766 c 0,0.30078 0.20312,0.30078 0.5,0.30078 0.30078,0 0.60156,0 0.60156,-0.30078 C 57.80078,0.30078 57.5,0 57.19922,0 c -0.29688,0 -0.5,0.30078 -0.5,0.59766 z m 0,0"
     style="fill:#000000;fill-opacity:1;fill-rule:evenodd;stroke:none" />
  <path
     inkscape:connector-curvature="0"
     id="path18946"
     d="m 61.40234,0.59766 c 0,0.30078 0.29688,0.30078 0.59766,0.30078 0.30078,0 0.60156,0 0.60156,-0.30078 C 62.60156,0.30078 62.30078,0 62,0 61.69922,0 61.40234,0.30078 61.40234,0.59766 z m 0,0"
     style="fill:#000000;fill-opacity:1;fill-rule:evenodd;stroke:none" />
  <path
     inkscape:connector-curvature="0"
     id="path18948"
     d="M 0,5 C 0,5.30078 0.30078,5.59766 0.5,5.59766 0.90234,5.59766 1.10156,5.30078 1.10156,5 1.10156,4.69922 0.90234,4.69922 0.5,4.69922 0.30078,4.69922 0,4.69922 0,5 z m 0,0"
     style="fill:#000000;fill-opacity:1;fill-rule:evenodd;stroke:none" />
  <path
     inkscape:connector-curvature="0"
     id="path18950"
     d="M 4.69922,5 C 4.69922,5.30078 5,5.59766 5.30078,5.59766 5.60156,5.59766 5.90234,5.30078 5.90234,5 5.90234,4.69922 5.60156,4.69922 5.30078,4.69922 5,4.69922 4.69922,4.69922 4.69922,5 z m 0,0"
     style="fill:#000000;fill-opacity:1;fill-rule:evenodd;stroke:none" />
  <path
     inkscape:connector-curvature="0"
     id="path18952"
     d="m 9.40234,5 c 0,0.30078 0.29688,0.59766 0.59766,0.59766 0.30078,0 0.60156,-0.29688 0.60156,-0.59766 0,-0.30078 -0.30078,-0.30078 -0.60156,-0.30078 -0.30078,0 -0.59766,0 -0.59766,0.30078 z m 0,0"
     style="fill:#000000;fill-opacity:1;fill-rule:evenodd;stroke:none" />
  <path
     inkscape:connector-curvature="0"
     id="path18954"
     d="m 14.10156,5 c 0,0.30078 0.30078,0.59766 0.59766,0.59766 C 15,5.59766 15.30078,5.30078 15.30078,5 15.30078,4.69922 15,4.69922 14.69922,4.69922 c -0.29688,0 -0.59766,0 -0.59766,0.30078 z m 0,0"
     style="fill:#000000;fill-opacity:1;fill-rule:evenodd;stroke:none" />
  <path
     inkscape:connector-curvature="0"
     id="path18956"
     d="m 18.90234,5 c 0,0.30078 0.29688,0.59766 0.5,0.59766 C 19.69922,5.59766 20,5.30078 20,5 20,4.69922 19.69922,4.69922 19.40234,4.69922 c -0.20312,0 -0.5,0 -0.5,0.30078 z m 0,0"
     style="fill:#000000;fill-opacity:1;fill-rule:evenodd;stroke:none" />
  <path
     inkscape:connector-curvature="0"
     id="path18958"
     d="m 23.60156,5 c 0,0.30078 0.30078,0.59766 0.59766,0.59766 0.30078,0 0.60156,-0.29688 0.60156,-0.59766 0,-0.30078 -0.30078,-0.30078 -0.60156,-0.30078 -0.29688,0 -0.59766,0 -0.59766,0.30078 z m 0,0"
     style="fill:#000000;fill-opacity:1;fill-rule:evenodd;stroke:none" />
  <path
     inkscape:connector-curvature="0"
     id="path18960"
     d="m 28.30078,5 c 0,0.30078 0.30078,0.59766 0.60156,0.59766 C 29.19922,5.59766 29.5,5.30078 29.5,5 c 0,-0.30078 -0.30078,-0.30078 -0.59766,-0.30078 -0.30078,0 -0.60156,0 -0.60156,0.30078 z m 0,0"
     style="fill:#000000;fill-opacity:1;fill-rule:evenodd;stroke:none" />
  <path
     inkscape:connector-curvature="0"
     id="path18962"
     d="m 33,5 c 0,0.30078 0.30078,0.59766 0.60156,0.59766 0.30078,0 0.59766,-0.29688 0.59766,-0.59766 0,-0.30078 -0.29688,-0.30078 -0.59766,-0.30078 C 33.30078,4.69922 33,4.69922 33,5 z m 0,0"
     style="fill:#000000;fill-opacity:1;fill-rule:evenodd;stroke:none" />
  <path
     inkscape:connector-curvature="0"
     id="path18964"
     d="m 37.80078,5 c 0,0.30078 0.19922,0.59766 0.60156,0.59766 0.19922,0 0.5,-0.29688 0.5,-0.59766 0,-0.30078 -0.30078,-0.30078 -0.5,-0.30078 -0.40234,0 -0.60156,0 -0.60156,0.30078 z m 0,0"
     style="fill:#000000;fill-opacity:1;fill-rule:evenodd;stroke:none" />
  <path
     inkscape:connector-curvature="0"
     id="path18966"
     d="m 42.5,5 c 0,0.30078 0.30078,0.59766 0.60156,0.59766 0.30078,0 0.59766,-0.29688 0.59766,-0.59766 0,-0.30078 -0.29688,-0.30078 -0.59766,-0.30078 -0.30078,0 -0.60156,0 -0.60156,0.30078 z m 0,0"
     style="fill:#000000;fill-opacity:1;fill-rule:evenodd;stroke:none" />
  <path
     inkscape:connector-curvature="0"
     id="path18968"
     d="m 47.19922,5 c 0,0.30078 0.30078,0.59766 0.60156,0.59766 0.30078,0 0.60156,-0.29688 0.60156,-0.59766 0,-0.30078 -0.30078,-0.30078 -0.60156,-0.30078 -0.30078,0 -0.60156,0 -0.60156,0.30078 z m 0,0"
     style="fill:#000000;fill-opacity:1;fill-rule:evenodd;stroke:none" />
  <path
     inkscape:connector-curvature="0"
     id="path18970"
     d="m 51.90234,5 c 0,0.30078 0.29688,0.59766 0.59766,0.59766 0.30078,0 0.60156,-0.29688 0.60156,-0.59766 0,-0.30078 -0.30078,-0.30078 -0.60156,-0.30078 -0.30078,0 -0.59766,0 -0.59766,0.30078 z m 0,0"
     style="fill:#000000;fill-opacity:1;fill-rule:evenodd;stroke:none" />
  <path
     inkscape:connector-curvature="0"
     id="path18972"
     d="m 56.69922,5 c 0,0.30078 0.20312,0.59766 0.5,0.59766 0.30078,0 0.60156,-0.29688 0.60156,-0.59766 0,-0.30078 -0.30078,-0.30078 -0.60156,-0.30078 -0.29688,0 -0.5,0 -0.5,0.30078 z m 0,0"
     style="fill:#000000;fill-opacity:1;fill-rule:evenodd;stroke:none" />
  <path
     inkscape:connector-curvature="0"
     id="path18974"
     d="m 61.40234,5 c 0,0.30078 0.29688,0.59766 0.59766,0.59766 0.30078,0 0.60156,-0.29688 0.60156,-0.59766 0,-0.30078 -0.30078,-0.30078 -0.60156,-0.30078 -0.30078,0 -0.59766,0 -0.59766,0.30078 z m 0,0"
     style="fill:#000000;fill-opacity:1;fill-rule:evenodd;stroke:none" />
  <path
     inkscape:connector-curvature="0"
     id="path18976"
     d="M 0,9.69922 C 0,10 0.30078,10.30078 0.5,10.30078 0.90234,10.30078 1.10156,10 1.10156,9.69922 1.10156,9.39844 0.90234,9.39844 0.5,9.39844 c -0.19922,0 -0.5,0 -0.5,0.30078 z m 0,0"
     style="fill:#000000;fill-opacity:1;fill-rule:evenodd;stroke:none" />
  <path
     inkscape:connector-curvature="0"
     id="path18978"
     d="M 4.69922,9.69922 C 4.69922,10 5,10.30078 5.30078,10.30078 c 0.30078,0 0.60156,-0.30078 0.60156,-0.60156 0,-0.30078 -0.30078,-0.30078 -0.60156,-0.30078 -0.30078,0 -0.60156,0 -0.60156,0.30078 z m 0,0"
     style="fill:#000000;fill-opacity:1;fill-rule:evenodd;stroke:none" />
  <path
     inkscape:connector-curvature="0"
     id="path18980"
     d="m 9.40234,9.69922 c 0,0.30078 0.29688,0.60156 0.59766,0.60156 0.30078,0 0.60156,-0.30078 0.60156,-0.60156 0,-0.30078 -0.30078,-0.30078 -0.60156,-0.30078 -0.30078,0 -0.59766,0 -0.59766,0.30078 z m 0,0"
     style="fill:#000000;fill-opacity:1;fill-rule:evenodd;stroke:none" />
  <path
     inkscape:connector-curvature="0"
     id="path18982"
     d="m 14.10156,9.69922 c 0,0.30078 0.30078,0.60156 0.59766,0.60156 C 15,10.30078 15.30078,10 15.30078,9.69922 15.30078,9.39844 15,9.39844 14.69922,9.39844 c -0.29688,0 -0.59766,0 -0.59766,0.30078 z m 0,0"
     style="fill:#000000;fill-opacity:1;fill-rule:evenodd;stroke:none" />
  <path
     inkscape:connector-curvature="0"
     id="path18984"
     d="m 18.90234,9.69922 c 0,0.30078 0.29688,0.60156 0.5,0.60156 C 19.69922,10.30078 20,10 20,9.69922 20,9.39844 19.69922,9.39844 19.40234,9.39844 c -0.20312,0 -0.5,0 -0.5,0.30078 z m 0,0"
     style="fill:#000000;fill-opacity:1;fill-rule:evenodd;stroke:none" />
  <path
     inkscape:connector-curvature="0"
     id="path18986"
     d="m 23.60156,9.69922 c 0,0.30078 0.30078,0.60156 0.59766,0.60156 0.30078,0 0.60156,-0.30078 0.60156,-0.60156 0,-0.30078 -0.30078,-0.30078 -0.60156,-0.30078 -0.29688,0 -0.59766,0 -0.59766,0.30078 z m 0,0"
     style="fill:#000000;fill-opacity:1;fill-rule:evenodd;stroke:none" />
  <path
     inkscape:connector-curvature="0"
     id="path18988"
     d="m 28.30078,9.69922 c 0,0.30078 0.30078,0.60156 0.60156,0.60156 C 29.19922,10.30078 29.5,10 29.5,9.69922 c 0,-0.30078 -0.30078,-0.30078 -0.59766,-0.30078 -0.30078,0 -0.60156,0 -0.60156,0.30078 z m 0,0"
     style="fill:#000000;fill-opacity:1;fill-rule:evenodd;stroke:none" />
  <path
     inkscape:connector-curvature="0"
     id="path18990"
     d="m 33,9.69922 c 0,0.30078 0.30078,0.60156 0.60156,0.60156 0.30078,0 0.59766,-0.30078 0.59766,-0.60156 0,-0.30078 -0.29688,-0.30078 -0.59766,-0.30078 -0.30078,0 -0.60156,0 -0.60156,0.30078 z m 0,0"
     style="fill:#000000;fill-opacity:1;fill-rule:evenodd;stroke:none" />
  <path
     inkscape:connector-curvature="0"
     id="path18992"
     d="m 37.80078,9.69922 c 0,0.30078 0.19922,0.60156 0.60156,0.60156 0.19922,0 0.5,-0.30078 0.5,-0.60156 0,-0.30078 -0.30078,-0.30078 -0.5,-0.30078 -0.40234,0 -0.60156,0 -0.60156,0.30078 z m 0,0"
     style="fill:#000000;fill-opacity:1;fill-rule:evenodd;stroke:none" />
  <path
     inkscape:connector-curvature="0"
     id="path18994"
     d="m 42.5,9.69922 c 0,0.30078 0.30078,0.60156 0.60156,0.60156 0.30078,0 0.59766,-0.30078 0.59766,-0.60156 0,-0.30078 -0.29688,-0.30078 -0.59766,-0.30078 -0.30078,0 -0.60156,0 -0.60156,0.30078 z m 0,0"
     style="fill:#000000;fill-opacity:1;fill-rule:evenodd;stroke:none" />
  <path
     inkscape:connector-curvature="0"
     id="path18996"
     d="m 47.19922,9.69922 c 0,0.30078 0.30078,0.60156 0.60156,0.60156 0.30078,0 0.60156,-0.30078 0.60156,-0.60156 0,-0.30078 -0.30078,-0.30078 -0.60156,-0.30078 -0.30078,0 -0.60156,0 -0.60156,0.30078 z m 0,0"
     style="fill:#000000;fill-opacity:1;fill-rule:evenodd;stroke:none" />
  <path
     inkscape:connector-curvature="0"
     id="path18998"
     d="m 51.90234,9.69922 c 0,0.30078 0.29688,0.60156 0.59766,0.60156 0.30078,0 0.60156,-0.30078 0.60156,-0.60156 0,-0.30078 -0.30078,-0.30078 -0.60156,-0.30078 -0.30078,0 -0.59766,0 -0.59766,0.30078 z m 0,0"
     style="fill:#000000;fill-opacity:1;fill-rule:evenodd;stroke:none" />
  <path
     inkscape:connector-curvature="0"
     id="path19000"
     d="m 56.69922,9.69922 c 0,0.30078 0.20312,0.60156 0.5,0.60156 0.30078,0 0.60156,-0.30078 0.60156,-0.60156 0,-0.30078 -0.30078,-0.30078 -0.60156,-0.30078 -0.29688,0 -0.5,0 -0.5,0.30078 z m 0,0"
     style="fill:#000000;fill-opacity:1;fill-rule:evenodd;stroke:none" />
  <path
     inkscape:connector-curvature="0"
     id="path19002"
     d="m 61.40234,9.69922 c 0,0.30078 0.29688,0.60156 0.59766,0.60156 0.30078,0 0.60156,-0.30078 0.60156,-0.60156 0,-0.30078 -0.30078,-0.30078 -0.60156,-0.30078 -0.30078,0 -0.59766,0 -0.59766,0.30078 z m 0,0"
     style="fill:#000000;fill-opacity:1;fill-rule:evenodd;stroke:none" />
  <path
     inkscape:connector-curvature="0"
     id="path19004"
     d="M 0,14.39844 C 0,14.69922 0.30078,15 0.5,15 c 0.40234,0 0.60156,-0.30078 0.60156,-0.60156 0,-0.30078 -0.19922,-0.30078 -0.60156,-0.30078 -0.19922,0 -0.5,0 -0.5,0.30078 z m 0,0"
     style="fill:#000000;fill-opacity:1;fill-rule:evenodd;stroke:none" />
  <path
     inkscape:connector-curvature="0"
     id="path19006"
     d="M 4.69922,14.39844 C 4.69922,14.69922 5,15 5.30078,15 c 0.30078,0 0.60156,-0.30078 0.60156,-0.60156 0,-0.30078 -0.30078,-0.30078 -0.60156,-0.30078 -0.30078,0 -0.60156,0 -0.60156,0.30078 z m 0,0"
     style="fill:#000000;fill-opacity:1;fill-rule:evenodd;stroke:none" />
  <path
     inkscape:connector-curvature="0"
     id="path19008"
     d="M 9.40234,14.39844 C 9.40234,14.69922 9.69922,15 10,15 c 0.30078,0 0.60156,-0.30078 0.60156,-0.60156 0,-0.30078 -0.30078,-0.30078 -0.60156,-0.30078 -0.30078,0 -0.59766,0 -0.59766,0.30078 z m 0,0"
     style="fill:#000000;fill-opacity:1;fill-rule:evenodd;stroke:none" />
  <path
     inkscape:connector-curvature="0"
     id="path19010"
     d="m 14.10156,14.39844 c 0,0.30078 0.30078,0.60156 0.59766,0.60156 0.30078,0 0.60156,-0.30078 0.60156,-0.60156 0,-0.30078 -0.30078,-0.30078 -0.60156,-0.30078 -0.29688,0 -0.59766,0 -0.59766,0.30078 z m 0,0"
     style="fill:#000000;fill-opacity:1;fill-rule:evenodd;stroke:none" />
  <path
     inkscape:connector-curvature="0"
     id="path19012"
     d="m 18.90234,14.39844 c 0,0.30078 0.29688,0.60156 0.5,0.60156 C 19.69922,15 20,14.69922 20,14.39844 c 0,-0.30078 -0.30078,-0.30078 -0.59766,-0.30078 -0.20312,0 -0.5,0 -0.5,0.30078 z m 0,0"
     style="fill:#000000;fill-opacity:1;fill-rule:evenodd;stroke:none" />
  <path
     inkscape:connector-curvature="0"
     id="path19014"
     d="m 23.60156,14.39844 c 0,0.30078 0.30078,0.60156 0.59766,0.60156 0.30078,0 0.60156,-0.30078 0.60156,-0.60156 0,-0.30078 -0.30078,-0.30078 -0.60156,-0.30078 -0.29688,0 -0.59766,0 -0.59766,0.30078 z m 0,0"
     style="fill:#000000;fill-opacity:1;fill-rule:evenodd;stroke:none" />
  <path
     inkscape:connector-curvature="0"
     id="path19016"
     d="M 28.30078,14.39844 C 28.30078,14.69922 28.60156,15 28.90234,15 29.19922,15 29.5,14.69922 29.5,14.39844 c 0,-0.30078 -0.30078,-0.30078 -0.59766,-0.30078 -0.30078,0 -0.60156,0 -0.60156,0.30078 z m 0,0"
     style="fill:#000000;fill-opacity:1;fill-rule:evenodd;stroke:none" />
  <path
     inkscape:connector-curvature="0"
     id="path19018"
     d="M 33,14.39844 C 33,14.69922 33.30078,15 33.60156,15 c 0.30078,0 0.59766,-0.30078 0.59766,-0.60156 0,-0.30078 -0.29688,-0.30078 -0.59766,-0.30078 -0.30078,0 -0.60156,0 -0.60156,0.30078 z m 0,0"
     style="fill:#000000;fill-opacity:1;fill-rule:evenodd;stroke:none" />
  <path
     inkscape:connector-curvature="0"
     id="path19020"
     d="M 37.80078,14.39844 C 37.80078,14.69922 38,15 38.40234,15 c 0.19922,0 0.5,-0.30078 0.5,-0.60156 0,-0.30078 -0.30078,-0.30078 -0.5,-0.30078 -0.40234,0 -0.60156,0 -0.60156,0.30078 z m 0,0"
     style="fill:#000000;fill-opacity:1;fill-rule:evenodd;stroke:none" />
  <path
     inkscape:connector-curvature="0"
     id="path19022"
     d="M 42.5,14.39844 C 42.5,14.69922 42.80078,15 43.10156,15 c 0.30078,0 0.59766,-0.30078 0.59766,-0.60156 0,-0.30078 -0.29688,-0.30078 -0.59766,-0.30078 -0.30078,0 -0.60156,0 -0.60156,0.30078 z m 0,0"
     style="fill:#000000;fill-opacity:1;fill-rule:evenodd;stroke:none" />
  <path
     inkscape:connector-curvature="0"
     id="path19024"
     d="M 47.19922,14.39844 C 47.19922,14.69922 47.5,15 47.80078,15 c 0.30078,0 0.60156,-0.30078 0.60156,-0.60156 0,-0.30078 -0.30078,-0.30078 -0.60156,-0.30078 -0.30078,0 -0.60156,0 -0.60156,0.30078 z m 0,0"
     style="fill:#000000;fill-opacity:1;fill-rule:evenodd;stroke:none" />
  <path
     inkscape:connector-curvature="0"
     id="path19026"
     d="M 51.90234,14.39844 C 51.90234,14.69922 52.19922,15 52.5,15 c 0.30078,0 0.60156,-0.30078 0.60156,-0.60156 0,-0.30078 -0.30078,-0.30078 -0.60156,-0.30078 -0.30078,0 -0.59766,0 -0.59766,0.30078 z m 0,0"
     style="fill:#000000;fill-opacity:1;fill-rule:evenodd;stroke:none" />
  <path
     inkscape:connector-curvature="0"
     id="path19028"
     d="m 56.69922,14.39844 c 0,0.30078 0.20312,0.60156 0.5,0.60156 0.30078,0 0.60156,-0.30078 0.60156,-0.60156 0,-0.30078 -0.30078,-0.30078 -0.60156,-0.30078 -0.29688,0 -0.5,0 -0.5,0.30078 z m 0,0"
     style="fill:#000000;fill-opacity:1;fill-rule:evenodd;stroke:none" />
  <path
     inkscape:connector-curvature="0"
     id="path19030"
     d="M 61.40234,14.39844 C 61.40234,14.69922 61.69922,15 62,15 c 0.30078,0 0.60156,-0.30078 0.60156,-0.60156 0,-0.30078 -0.30078,-0.30078 -0.60156,-0.30078 -0.30078,0 -0.59766,0 -0.59766,0.30078 z m 0,0"
     style="fill:#000000;fill-opacity:1;fill-rule:evenodd;stroke:none" />
  <path
     inkscape:connector-curvature="0"
     id="path19032"
     d="m 0,19.19922 c 0,0.30078 0.30078,0.5 0.5,0.5 0.40234,0 0.60156,-0.19922 0.60156,-0.5 0,-0.30078 -0.19922,-0.60156 -0.60156,-0.60156 -0.19922,0 -0.5,0.30078 -0.5,0.60156 z m 0,0"
     style="fill:#000000;fill-opacity:1;fill-rule:evenodd;stroke:none" />
  <path
     inkscape:connector-curvature="0"
     id="path19034"
     d="m 4.69922,19.19922 c 0,0.30078 0.30078,0.5 0.60156,0.5 0.30078,0 0.60156,-0.19922 0.60156,-0.5 0,-0.30078 -0.30078,-0.60156 -0.60156,-0.60156 -0.30078,0 -0.60156,0.30078 -0.60156,0.60156 z m 0,0"
     style="fill:#000000;fill-opacity:1;fill-rule:evenodd;stroke:none" />
  <path
     inkscape:connector-curvature="0"
     id="path19036"
     d="m 9.40234,19.19922 c 0,0.30078 0.29688,0.5 0.59766,0.5 0.30078,0 0.60156,-0.19922 0.60156,-0.5 0,-0.30078 -0.30078,-0.60156 -0.60156,-0.60156 -0.30078,0 -0.59766,0.30078 -0.59766,0.60156 z m 0,0"
     style="fill:#000000;fill-opacity:1;fill-rule:evenodd;stroke:none" />
  <path
     inkscape:connector-curvature="0"
     id="path19038"
     d="m 14.10156,19.19922 c 0,0.30078 0.30078,0.5 0.59766,0.5 0.30078,0 0.60156,-0.19922 0.60156,-0.5 0,-0.30078 -0.30078,-0.60156 -0.60156,-0.60156 -0.29688,0 -0.59766,0.30078 -0.59766,0.60156 z m 0,0"
     style="fill:#000000;fill-opacity:1;fill-rule:evenodd;stroke:none" />
  <path
     inkscape:connector-curvature="0"
     id="path19040"
     d="m 18.90234,19.19922 c 0,0.30078 0.29688,0.5 0.5,0.5 0.29688,0 0.59766,-0.19922 0.59766,-0.5 0,-0.30078 -0.30078,-0.60156 -0.59766,-0.60156 -0.20312,0 -0.5,0.30078 -0.5,0.60156 z m 0,0"
     style="fill:#000000;fill-opacity:1;fill-rule:evenodd;stroke:none" />
  <path
     inkscape:connector-curvature="0"
     id="path19042"
     d="m 23.60156,19.19922 c 0,0.30078 0.30078,0.5 0.59766,0.5 0.30078,0 0.60156,-0.19922 0.60156,-0.5 0,-0.30078 -0.30078,-0.60156 -0.60156,-0.60156 -0.29688,0 -0.59766,0.30078 -0.59766,0.60156 z m 0,0"
     style="fill:#000000;fill-opacity:1;fill-rule:evenodd;stroke:none" />
  <path
     inkscape:connector-curvature="0"
     id="path19044"
     d="m 28.30078,19.19922 c 0,0.30078 0.30078,0.5 0.60156,0.5 0.29688,0 0.59766,-0.19922 0.59766,-0.5 0,-0.30078 -0.30078,-0.60156 -0.59766,-0.60156 -0.30078,0 -0.60156,0.30078 -0.60156,0.60156 z m 0,0"
     style="fill:#000000;fill-opacity:1;fill-rule:evenodd;stroke:none" />
  <path
     inkscape:connector-curvature="0"
     id="path19046"
     d="m 33,19.19922 c 0,0.30078 0.30078,0.5 0.60156,0.5 0.30078,0 0.59766,-0.19922 0.59766,-0.5 0,-0.30078 -0.29688,-0.60156 -0.59766,-0.60156 C 33.30078,18.59766 33,18.89844 33,19.19922 z m 0,0"
     style="fill:#000000;fill-opacity:1;fill-rule:evenodd;stroke:none" />
  <path
     inkscape:connector-curvature="0"
     id="path19048"
     d="m 37.80078,19.19922 c 0,0.30078 0.19922,0.5 0.60156,0.5 0.19922,0 0.5,-0.19922 0.5,-0.5 0,-0.30078 -0.30078,-0.60156 -0.5,-0.60156 -0.40234,0 -0.60156,0.30078 -0.60156,0.60156 z m 0,0"
     style="fill:#000000;fill-opacity:1;fill-rule:evenodd;stroke:none" />
  <path
     inkscape:connector-curvature="0"
     id="path19050"
     d="m 42.5,19.19922 c 0,0.30078 0.30078,0.5 0.60156,0.5 0.30078,0 0.59766,-0.19922 0.59766,-0.5 0,-0.30078 -0.29688,-0.60156 -0.59766,-0.60156 -0.30078,0 -0.60156,0.30078 -0.60156,0.60156 z m 0,0"
     style="fill:#000000;fill-opacity:1;fill-rule:evenodd;stroke:none" />
  <path
     inkscape:connector-curvature="0"
     id="path19052"
     d="m 47.19922,19.19922 c 0,0.30078 0.30078,0.5 0.60156,0.5 0.30078,0 0.60156,-0.19922 0.60156,-0.5 0,-0.30078 -0.30078,-0.60156 -0.60156,-0.60156 -0.30078,0 -0.60156,0.30078 -0.60156,0.60156 z m 0,0"
     style="fill:#000000;fill-opacity:1;fill-rule:evenodd;stroke:none" />
  <path
     inkscape:connector-curvature="0"
     id="path19054"
     d="m 51.90234,19.19922 c 0,0.30078 0.29688,0.5 0.59766,0.5 0.30078,0 0.60156,-0.19922 0.60156,-0.5 0,-0.30078 -0.30078,-0.60156 -0.60156,-0.60156 -0.30078,0 -0.59766,0.30078 -0.59766,0.60156 z m 0,0"
     style="fill:#000000;fill-opacity:1;fill-rule:evenodd;stroke:none" />
  <path
     inkscape:connector-curvature="0"
     id="path19056"
     d="m 56.69922,19.19922 c 0,0.30078 0.20312,0.5 0.5,0.5 0.30078,0 0.60156,-0.19922 0.60156,-0.5 0,-0.30078 -0.30078,-0.60156 -0.60156,-0.60156 -0.29688,0 -0.5,0.30078 -0.5,0.60156 z m 0,0"
     style="fill:#000000;fill-opacity:1;fill-rule:evenodd;stroke:none" />
  <path
     inkscape:connector-curvature="0"
     id="path19058"
     d="m 61.40234,19.19922 c 0,0.30078 0.29688,0.5 0.59766,0.5 0.30078,0 0.60156,-0.19922 0.60156,-0.5 0,-0.30078 -0.30078,-0.60156 -0.60156,-0.60156 -0.30078,0 -0.59766,0.30078 -0.59766,0.60156 z m 0,0"
     style="fill:#000000;fill-opacity:1;fill-rule:evenodd;stroke:none" />
  <path
     inkscape:connector-curvature="0"
     id="path19060"
     d="M 0,24.19922 C 0,24.5 0.30078,24.5 0.5,24.5 c 0.40234,0 0.60156,0 0.60156,-0.30078 0,-0.30078 -0.19922,-0.60156 -0.60156,-0.60156 -0.19922,0 -0.5,0.30078 -0.5,0.60156 z m 0,0"
     style="fill:#000000;fill-opacity:1;fill-rule:evenodd;stroke:none" />
  <path
     inkscape:connector-curvature="0"
     id="path19062"
     d="M 4.69922,24.19922 C 4.69922,24.5 5,24.5 5.30078,24.5 c 0.30078,0 0.60156,0 0.60156,-0.30078 0,-0.30078 -0.30078,-0.60156 -0.60156,-0.60156 -0.30078,0 -0.60156,0.30078 -0.60156,0.60156 z m 0,0"
     style="fill:#000000;fill-opacity:1;fill-rule:evenodd;stroke:none" />
  <path
     inkscape:connector-curvature="0"
     id="path19064"
     d="M 9.40234,24.19922 C 9.40234,24.5 9.69922,24.5 10,24.5 c 0.30078,0 0.60156,0 0.60156,-0.30078 0,-0.30078 -0.30078,-0.60156 -0.60156,-0.60156 -0.30078,0 -0.59766,0.30078 -0.59766,0.60156 z m 0,0"
     style="fill:#000000;fill-opacity:1;fill-rule:evenodd;stroke:none" />
  <path
     inkscape:connector-curvature="0"
     id="path19066"
     d="m 14.10156,24.19922 c 0,0.30078 0.30078,0.30078 0.59766,0.30078 0.30078,0 0.60156,0 0.60156,-0.30078 0,-0.30078 -0.30078,-0.60156 -0.60156,-0.60156 -0.29688,0 -0.59766,0.30078 -0.59766,0.60156 z m 0,0"
     style="fill:#000000;fill-opacity:1;fill-rule:evenodd;stroke:none" />
  <path
     inkscape:connector-curvature="0"
     id="path19068"
     d="m 18.90234,24.19922 c 0,0.30078 0.29688,0.30078 0.5,0.30078 0.29688,0 0.59766,0 0.59766,-0.30078 0,-0.30078 -0.30078,-0.60156 -0.59766,-0.60156 -0.20312,0 -0.5,0.30078 -0.5,0.60156 z m 0,0"
     style="fill:#000000;fill-opacity:1;fill-rule:evenodd;stroke:none" />
  <path
     inkscape:connector-curvature="0"
     id="path19070"
     d="m 23.60156,24.19922 c 0,0.30078 0.30078,0.30078 0.59766,0.30078 0.30078,0 0.60156,0 0.60156,-0.30078 0,-0.30078 -0.30078,-0.60156 -0.60156,-0.60156 -0.29688,0 -0.59766,0.30078 -0.59766,0.60156 z m 0,0"
     style="fill:#000000;fill-opacity:1;fill-rule:evenodd;stroke:none" />
  <path
     inkscape:connector-curvature="0"
     id="path19072"
     d="m 28.30078,24.19922 c 0,0.30078 0.30078,0.30078 0.60156,0.30078 0.29688,0 0.59766,0 0.59766,-0.30078 0,-0.30078 -0.30078,-0.60156 -0.59766,-0.60156 -0.30078,0 -0.60156,0.30078 -0.60156,0.60156 z m 0,0"
     style="fill:#000000;fill-opacity:1;fill-rule:evenodd;stroke:none" />
  <path
     inkscape:connector-curvature="0"
     id="path19074"
     d="M 33,24.19922 C 33,24.5 33.30078,24.5 33.60156,24.5 c 0.30078,0 0.59766,0 0.59766,-0.30078 0,-0.30078 -0.29688,-0.60156 -0.59766,-0.60156 C 33.30078,23.59766 33,23.89844 33,24.19922 z m 0,0"
     style="fill:#000000;fill-opacity:1;fill-rule:evenodd;stroke:none" />
  <path
     inkscape:connector-curvature="0"
     id="path19076"
     d="M 37.80078,24.19922 C 37.80078,24.5 38,24.5 38.40234,24.5 c 0.19922,0 0.5,0 0.5,-0.30078 0,-0.30078 -0.30078,-0.60156 -0.5,-0.60156 -0.40234,0 -0.60156,0.30078 -0.60156,0.60156 z m 0,0"
     style="fill:#000000;fill-opacity:1;fill-rule:evenodd;stroke:none" />
  <path
     inkscape:connector-curvature="0"
     id="path19078"
     d="M 42.5,24.19922 C 42.5,24.5 42.80078,24.5 43.10156,24.5 c 0.30078,0 0.59766,0 0.59766,-0.30078 0,-0.30078 -0.29688,-0.60156 -0.59766,-0.60156 -0.30078,0 -0.60156,0.30078 -0.60156,0.60156 z m 0,0"
     style="fill:#000000;fill-opacity:1;fill-rule:evenodd;stroke:none" />
  <path
     inkscape:connector-curvature="0"
     id="path19080"
     d="M 47.19922,24.19922 C 47.19922,24.5 47.5,24.5 47.80078,24.5 c 0.30078,0 0.60156,0 0.60156,-0.30078 0,-0.30078 -0.30078,-0.60156 -0.60156,-0.60156 -0.30078,0 -0.60156,0.30078 -0.60156,0.60156 z m 0,0"
     style="fill:#000000;fill-opacity:1;fill-rule:evenodd;stroke:none" />
  <path
     inkscape:connector-curvature="0"
     id="path19082"
     d="M 51.90234,24.19922 C 51.90234,24.5 52.19922,24.5 52.5,24.5 c 0.30078,0 0.60156,0 0.60156,-0.30078 0,-0.30078 -0.30078,-0.60156 -0.60156,-0.60156 -0.30078,0 -0.59766,0.30078 -0.59766,0.60156 z m 0,0"
     style="fill:#000000;fill-opacity:1;fill-rule:evenodd;stroke:none" />
  <path
     inkscape:connector-curvature="0"
     id="path19084"
     d="m 56.69922,24.19922 c 0,0.30078 0.20312,0.30078 0.5,0.30078 0.30078,0 0.60156,0 0.60156,-0.30078 0,-0.30078 -0.30078,-0.60156 -0.60156,-0.60156 -0.29688,0 -0.5,0.30078 -0.5,0.60156 z m 0,0"
     style="fill:#000000;fill-opacity:1;fill-rule:evenodd;stroke:none" />
  <path
     inkscape:connector-curvature="0"
     id="path19086"
     d="M 61.40234,24.19922 C 61.40234,24.5 61.69922,24.5 62,24.5 c 0.30078,0 0.60156,0 0.60156,-0.30078 0,-0.30078 -0.30078,-0.60156 -0.60156,-0.60156 -0.30078,0 -0.59766,0.30078 -0.59766,0.60156 z m 0,0"
     style="fill:#000000;fill-opacity:1;fill-rule:evenodd;stroke:none" />
  <path
     inkscape:connector-curvature="0"
     id="path19088"
     d="m 0,28.89844 c 0,0.30078 0.30078,0.30078 0.5,0.30078 0.40234,0 0.60156,0 0.60156,-0.30078 0,-0.30078 -0.19922,-0.59766 -0.60156,-0.59766 -0.19922,0 -0.5,0.29688 -0.5,0.59766 z m 0,0"
     style="fill:#000000;fill-opacity:1;fill-rule:evenodd;stroke:none" />
  <path
     inkscape:connector-curvature="0"
     id="path19090"
     d="m 4.69922,28.89844 c 0,0.30078 0.30078,0.30078 0.60156,0.30078 0.30078,0 0.60156,0 0.60156,-0.30078 0,-0.30078 -0.30078,-0.59766 -0.60156,-0.59766 -0.30078,0 -0.60156,0.29688 -0.60156,0.59766 z m 0,0"
     style="fill:#000000;fill-opacity:1;fill-rule:evenodd;stroke:none" />
  <path
     inkscape:connector-curvature="0"
     id="path19092"
     d="m 9.40234,28.89844 c 0,0.30078 0.29688,0.30078 0.59766,0.30078 0.30078,0 0.60156,0 0.60156,-0.30078 0,-0.30078 -0.30078,-0.59766 -0.60156,-0.59766 -0.30078,0 -0.59766,0.29688 -0.59766,0.59766 z m 0,0"
     style="fill:#000000;fill-opacity:1;fill-rule:evenodd;stroke:none" />
  <path
     inkscape:connector-curvature="0"
     id="path19094"
     d="m 14.10156,28.89844 c 0,0.30078 0.30078,0.30078 0.59766,0.30078 0.30078,0 0.60156,0 0.60156,-0.30078 0,-0.30078 -0.30078,-0.59766 -0.60156,-0.59766 -0.29688,0 -0.59766,0.29688 -0.59766,0.59766 z m 0,0"
     style="fill:#000000;fill-opacity:1;fill-rule:evenodd;stroke:none" />
  <path
     inkscape:connector-curvature="0"
     id="path19096"
     d="m 18.90234,28.89844 c 0,0.30078 0.29688,0.30078 0.5,0.30078 0.29688,0 0.59766,0 0.59766,-0.30078 0,-0.30078 -0.30078,-0.59766 -0.59766,-0.59766 -0.20312,0 -0.5,0.29688 -0.5,0.59766 z m 0,0"
     style="fill:#000000;fill-opacity:1;fill-rule:evenodd;stroke:none" />
  <path
     inkscape:connector-curvature="0"
     id="path19098"
     d="m 23.60156,28.89844 c 0,0.30078 0.30078,0.30078 0.59766,0.30078 0.30078,0 0.60156,0 0.60156,-0.30078 0,-0.30078 -0.30078,-0.59766 -0.60156,-0.59766 -0.29688,0 -0.59766,0.29688 -0.59766,0.59766 z m 0,0"
     style="fill:#000000;fill-opacity:1;fill-rule:evenodd;stroke:none" />
  <path
     inkscape:connector-curvature="0"
     id="path19100"
     d="m 28.30078,28.89844 c 0,0.30078 0.30078,0.30078 0.60156,0.30078 0.29688,0 0.59766,0 0.59766,-0.30078 0,-0.30078 -0.30078,-0.59766 -0.59766,-0.59766 -0.30078,0 -0.60156,0.29688 -0.60156,0.59766 z m 0,0"
     style="fill:#000000;fill-opacity:1;fill-rule:evenodd;stroke:none" />
  <path
     inkscape:connector-curvature="0"
     id="path19102"
     d="m 33,28.89844 c 0,0.30078 0.30078,0.30078 0.60156,0.30078 0.30078,0 0.59766,0 0.59766,-0.30078 0,-0.30078 -0.29688,-0.59766 -0.59766,-0.59766 C 33.30078,28.30078 33,28.59766 33,28.89844 z m 0,0"
     style="fill:#000000;fill-opacity:1;fill-rule:evenodd;stroke:none" />
  <path
     inkscape:connector-curvature="0"
     id="path19104"
     d="m 37.80078,28.89844 c 0,0.30078 0.19922,0.30078 0.60156,0.30078 0.19922,0 0.5,0 0.5,-0.30078 0,-0.30078 -0.30078,-0.59766 -0.5,-0.59766 -0.40234,0 -0.60156,0.29688 -0.60156,0.59766 z m 0,0"
     style="fill:#000000;fill-opacity:1;fill-rule:evenodd;stroke:none" />
  <path
     inkscape:connector-curvature="0"
     id="path19106"
     d="m 42.5,28.89844 c 0,0.30078 0.30078,0.30078 0.60156,0.30078 0.30078,0 0.59766,0 0.59766,-0.30078 0,-0.30078 -0.29688,-0.59766 -0.59766,-0.59766 -0.30078,0 -0.60156,0.29688 -0.60156,0.59766 z m 0,0"
     style="fill:#000000;fill-opacity:1;fill-rule:evenodd;stroke:none" />
  <path
     inkscape:connector-curvature="0"
     id="path19108"
     d="m 47.19922,28.89844 c 0,0.30078 0.30078,0.30078 0.60156,0.30078 0.30078,0 0.60156,0 0.60156,-0.30078 0,-0.30078 -0.30078,-0.59766 -0.60156,-0.59766 -0.30078,0 -0.60156,0.29688 -0.60156,0.59766 z m 0,0"
     style="fill:#000000;fill-opacity:1;fill-rule:evenodd;stroke:none" />
  <path
     inkscape:connector-curvature="0"
     id="path19110"
     d="m 51.90234,28.89844 c 0,0.30078 0.29688,0.30078 0.59766,0.30078 0.30078,0 0.60156,0 0.60156,-0.30078 0,-0.30078 -0.30078,-0.59766 -0.60156,-0.59766 -0.30078,0 -0.59766,0.29688 -0.59766,0.59766 z m 0,0"
     style="fill:#000000;fill-opacity:1;fill-rule:evenodd;stroke:none" />
  <path
     inkscape:connector-curvature="0"
     id="path19112"
     d="m 56.69922,28.89844 c 0,0.30078 0.20312,0.30078 0.5,0.30078 0.30078,0 0.60156,0 0.60156,-0.30078 0,-0.30078 -0.30078,-0.59766 -0.60156,-0.59766 -0.29688,0 -0.5,0.29688 -0.5,0.59766 z m 0,0"
     style="fill:#000000;fill-opacity:1;fill-rule:evenodd;stroke:none" />
  <path
     inkscape:connector-curvature="0"
     id="path19114"
     d="m 61.40234,28.89844 c 0,0.30078 0.29688,0.30078 0.59766,0.30078 0.30078,0 0.60156,0 0.60156,-0.30078 0,-0.30078 -0.30078,-0.59766 -0.60156,-0.59766 -0.30078,0 -0.59766,0.29688 -0.59766,0.59766 z m 0,0"
     style="fill:#000000;fill-opacity:1;fill-rule:evenodd;stroke:none" />
  <path
     inkscape:connector-curvature="0"
     id="path19116"
     d="m 0,33.59766 c 0,0.30078 0.30078,0.30078 0.5,0.30078 0.40234,0 0.60156,0 0.60156,-0.30078 C 1.10156,33.39844 0.90234,33 0.5,33 0.30078,33 0,33.39844 0,33.59766 z m 0,0"
     style="fill:#000000;fill-opacity:1;fill-rule:evenodd;stroke:none" />
  <path
     inkscape:connector-curvature="0"
     id="path19118"
     d="m 4.69922,33.59766 c 0,0.30078 0.30078,0.30078 0.60156,0.30078 0.30078,0 0.60156,0 0.60156,-0.30078 C 5.90234,33.39844 5.60156,33 5.30078,33 5,33 4.69922,33.39844 4.69922,33.59766 z m 0,0"
     style="fill:#000000;fill-opacity:1;fill-rule:evenodd;stroke:none" />
  <path
     inkscape:connector-curvature="0"
     id="path19120"
     d="m 9.40234,33.59766 c 0,0.30078 0.29688,0.30078 0.59766,0.30078 0.30078,0 0.60156,0 0.60156,-0.30078 C 10.60156,33.39844 10.30078,33 10,33 9.69922,33 9.40234,33.39844 9.40234,33.59766 z m 0,0"
     style="fill:#000000;fill-opacity:1;fill-rule:evenodd;stroke:none" />
  <path
     inkscape:connector-curvature="0"
     id="path19122"
     d="m 14.10156,33.59766 c 0,0.30078 0.30078,0.30078 0.59766,0.30078 0.30078,0 0.60156,0 0.60156,-0.30078 C 15.30078,33.39844 15,33 14.69922,33 c -0.29688,0 -0.59766,0.39844 -0.59766,0.59766 z m 0,0"
     style="fill:#000000;fill-opacity:1;fill-rule:evenodd;stroke:none" />
  <path
     inkscape:connector-curvature="0"
     id="path19124"
     d="m 18.90234,33.59766 c 0,0.30078 0.29688,0.30078 0.5,0.30078 0.29688,0 0.59766,0 0.59766,-0.30078 C 20,33.39844 19.69922,33 19.40234,33 c -0.20312,0 -0.5,0.39844 -0.5,0.59766 z m 0,0"
     style="fill:#000000;fill-opacity:1;fill-rule:evenodd;stroke:none" />
  <path
     inkscape:connector-curvature="0"
     id="path19126"
     d="m 23.60156,33.59766 c 0,0.30078 0.30078,0.30078 0.59766,0.30078 0.30078,0 0.60156,0 0.60156,-0.30078 C 24.80078,33.39844 24.5,33 24.19922,33 c -0.29688,0 -0.59766,0.39844 -0.59766,0.59766 z m 0,0"
     style="fill:#000000;fill-opacity:1;fill-rule:evenodd;stroke:none" />
  <path
     inkscape:connector-curvature="0"
     id="path19128"
     d="m 28.30078,33.59766 c 0,0.30078 0.30078,0.30078 0.60156,0.30078 0.29688,0 0.59766,0 0.59766,-0.30078 C 29.5,33.39844 29.19922,33 28.90234,33 c -0.30078,0 -0.60156,0.39844 -0.60156,0.59766 z m 0,0"
     style="fill:#000000;fill-opacity:1;fill-rule:evenodd;stroke:none" />
  <path
     inkscape:connector-curvature="0"
     id="path19130"
     d="m 33,33.59766 c 0,0.30078 0.30078,0.30078 0.60156,0.30078 0.30078,0 0.59766,0 0.59766,-0.30078 C 34.19922,33.39844 33.90234,33 33.60156,33 33.30078,33 33,33.39844 33,33.59766 z m 0,0"
     style="fill:#000000;fill-opacity:1;fill-rule:evenodd;stroke:none" />
  <path
     inkscape:connector-curvature="0"
     id="path19132"
     d="m 37.80078,33.59766 c 0,0.30078 0.19922,0.30078 0.60156,0.30078 0.19922,0 0.5,0 0.5,-0.30078 C 38.90234,33.39844 38.60156,33 38.40234,33 38,33 37.80078,33.39844 37.80078,33.59766 z m 0,0"
     style="fill:#000000;fill-opacity:1;fill-rule:evenodd;stroke:none" />
  <path
     inkscape:connector-curvature="0"
     id="path19134"
     d="m 42.5,33.59766 c 0,0.30078 0.30078,0.30078 0.60156,0.30078 0.30078,0 0.59766,0 0.59766,-0.30078 C 43.69922,33.39844 43.40234,33 43.10156,33 42.80078,33 42.5,33.39844 42.5,33.59766 z m 0,0"
     style="fill:#000000;fill-opacity:1;fill-rule:evenodd;stroke:none" />
  <path
     inkscape:connector-curvature="0"
     id="path19136"
     d="m 47.19922,33.59766 c 0,0.30078 0.30078,0.30078 0.60156,0.30078 0.30078,0 0.60156,0 0.60156,-0.30078 C 48.40234,33.39844 48.10156,33 47.80078,33 47.5,33 47.19922,33.39844 47.19922,33.59766 z m 0,0"
     style="fill:#000000;fill-opacity:1;fill-rule:evenodd;stroke:none" />
  <path
     inkscape:connector-curvature="0"
     id="path19138"
     d="m 51.90234,33.59766 c 0,0.30078 0.29688,0.30078 0.59766,0.30078 0.30078,0 0.60156,0 0.60156,-0.30078 C 53.10156,33.39844 52.80078,33 52.5,33 c -0.30078,0 -0.59766,0.39844 -0.59766,0.59766 z m 0,0"
     style="fill:#000000;fill-opacity:1;fill-rule:evenodd;stroke:none" />
  <path
     inkscape:connector-curvature="0"
     id="path19140"
     d="m 56.69922,33.59766 c 0,0.30078 0.20312,0.30078 0.5,0.30078 0.30078,0 0.60156,0 0.60156,-0.30078 C 57.80078,33.39844 57.5,33 57.19922,33 c -0.29688,0 -0.5,0.39844 -0.5,0.59766 z m 0,0"
     style="fill:#000000;fill-opacity:1;fill-rule:evenodd;stroke:none" />
  <path
     inkscape:connector-curvature="0"
     id="path19142"
     d="m 61.40234,33.59766 c 0,0.30078 0.29688,0.30078 0.59766,0.30078 0.30078,0 0.60156,0 0.60156,-0.30078 C 62.60156,33.39844 62.30078,33 62,33 c -0.30078,0 -0.59766,0.39844 -0.59766,0.59766 z m 0,0"
     style="fill:#000000;fill-opacity:1;fill-rule:evenodd;stroke:none" />
  <path
     inkscape:connector-curvature="0"
     id="path19144"
     d="m 0,38.39844 c 0,0.30078 0.30078,0.30078 0.5,0.30078 0.40234,0 0.60156,0 0.60156,-0.30078 0,-0.30078 -0.19922,-0.59766 -0.60156,-0.59766 -0.19922,0 -0.5,0.29688 -0.5,0.59766 z m 0,0"
     style="fill:#000000;fill-opacity:1;fill-rule:evenodd;stroke:none" />
  <path
     inkscape:connector-curvature="0"
     id="path19146"
     d="m 4.69922,38.39844 c 0,0.30078 0.30078,0.30078 0.60156,0.30078 0.30078,0 0.60156,0 0.60156,-0.30078 0,-0.30078 -0.30078,-0.59766 -0.60156,-0.59766 -0.30078,0 -0.60156,0.29688 -0.60156,0.59766 z m 0,0"
     style="fill:#000000;fill-opacity:1;fill-rule:evenodd;stroke:none" />
  <path
     inkscape:connector-curvature="0"
     id="path19148"
     d="m 9.40234,38.39844 c 0,0.30078 0.29688,0.30078 0.59766,0.30078 0.30078,0 0.60156,0 0.60156,-0.30078 0,-0.30078 -0.30078,-0.59766 -0.60156,-0.59766 -0.30078,0 -0.59766,0.29688 -0.59766,0.59766 z m 0,0"
     style="fill:#000000;fill-opacity:1;fill-rule:evenodd;stroke:none" />
  <path
     inkscape:connector-curvature="0"
     id="path19150"
     d="m 14.10156,38.39844 c 0,0.30078 0.30078,0.30078 0.59766,0.30078 0.30078,0 0.60156,0 0.60156,-0.30078 0,-0.30078 -0.30078,-0.59766 -0.60156,-0.59766 -0.29688,0 -0.59766,0.29688 -0.59766,0.59766 z m 0,0"
     style="fill:#000000;fill-opacity:1;fill-rule:evenodd;stroke:none" />
  <path
     inkscape:connector-curvature="0"
     id="path19152"
     d="m 18.90234,38.39844 c 0,0.30078 0.29688,0.30078 0.5,0.30078 0.29688,0 0.59766,0 0.59766,-0.30078 0,-0.30078 -0.30078,-0.59766 -0.59766,-0.59766 -0.20312,0 -0.5,0.29688 -0.5,0.59766 z m 0,0"
     style="fill:#000000;fill-opacity:1;fill-rule:evenodd;stroke:none" />
  <path
     inkscape:connector-curvature="0"
     id="path19154"
     d="m 23.60156,38.39844 c 0,0.30078 0.30078,0.30078 0.59766,0.30078 0.30078,0 0.60156,0 0.60156,-0.30078 0,-0.30078 -0.30078,-0.59766 -0.60156,-0.59766 -0.29688,0 -0.59766,0.29688 -0.59766,0.59766 z m 0,0"
     style="fill:#000000;fill-opacity:1;fill-rule:evenodd;stroke:none" />
  <path
     inkscape:connector-curvature="0"
     id="path19156"
     d="m 28.30078,38.39844 c 0,0.30078 0.30078,0.30078 0.60156,0.30078 0.29688,0 0.59766,0 0.59766,-0.30078 0,-0.30078 -0.30078,-0.59766 -0.59766,-0.59766 -0.30078,0 -0.60156,0.29688 -0.60156,0.59766 z m 0,0"
     style="fill:#000000;fill-opacity:1;fill-rule:evenodd;stroke:none" />
  <path
     inkscape:connector-curvature="0"
     id="path19158"
     d="m 33,38.39844 c 0,0.30078 0.30078,0.30078 0.60156,0.30078 0.30078,0 0.59766,0 0.59766,-0.30078 0,-0.30078 -0.29688,-0.59766 -0.59766,-0.59766 C 33.30078,37.80078 33,38.09766 33,38.39844 z m 0,0"
     style="fill:#000000;fill-opacity:1;fill-rule:evenodd;stroke:none" />
  <path
     inkscape:connector-curvature="0"
     id="path19160"
     d="m 37.80078,38.39844 c 0,0.30078 0.19922,0.30078 0.60156,0.30078 0.19922,0 0.5,0 0.5,-0.30078 0,-0.30078 -0.30078,-0.59766 -0.5,-0.59766 -0.40234,0 -0.60156,0.29688 -0.60156,0.59766 z m 0,0"
     style="fill:#000000;fill-opacity:1;fill-rule:evenodd;stroke:none" />
  <path
     inkscape:connector-curvature="0"
     id="path19162"
     d="m 42.5,38.39844 c 0,0.30078 0.30078,0.30078 0.60156,0.30078 0.30078,0 0.59766,0 0.59766,-0.30078 0,-0.30078 -0.29688,-0.59766 -0.59766,-0.59766 -0.30078,0 -0.60156,0.29688 -0.60156,0.59766 z m 0,0"
     style="fill:#000000;fill-opacity:1;fill-rule:evenodd;stroke:none" />
  <path
     inkscape:connector-curvature="0"
     id="path19164"
     d="m 47.19922,38.39844 c 0,0.30078 0.30078,0.30078 0.60156,0.30078 0.30078,0 0.60156,0 0.60156,-0.30078 0,-0.30078 -0.30078,-0.59766 -0.60156,-0.59766 -0.30078,0 -0.60156,0.29688 -0.60156,0.59766 z m 0,0"
     style="fill:#000000;fill-opacity:1;fill-rule:evenodd;stroke:none" />
  <path
     inkscape:connector-curvature="0"
     id="path19166"
     d="m 51.90234,38.39844 c 0,0.30078 0.29688,0.30078 0.59766,0.30078 0.30078,0 0.60156,0 0.60156,-0.30078 0,-0.30078 -0.30078,-0.59766 -0.60156,-0.59766 -0.30078,0 -0.59766,0.29688 -0.59766,0.59766 z m 0,0"
     style="fill:#000000;fill-opacity:1;fill-rule:evenodd;stroke:none" />
  <path
     inkscape:connector-curvature="0"
     id="path19168"
     d="m 56.69922,38.39844 c 0,0.30078 0.20312,0.30078 0.5,0.30078 0.30078,0 0.60156,0 0.60156,-0.30078 0,-0.30078 -0.30078,-0.59766 -0.60156,-0.59766 -0.29688,0 -0.5,0.29688 -0.5,0.59766 z m 0,0"
     style="fill:#000000;fill-opacity:1;fill-rule:evenodd;stroke:none" />
  <path
     inkscape:connector-curvature="0"
     id="path19170"
     d="m 61.40234,38.39844 c 0,0.30078 0.29688,0.30078 0.59766,0.30078 0.30078,0 0.60156,0 0.60156,-0.30078 0,-0.30078 -0.30078,-0.59766 -0.60156,-0.59766 -0.30078,0 -0.59766,0.29688 -0.59766,0.59766 z m 0,0"
     style="fill:#000000;fill-opacity:1;fill-rule:evenodd;stroke:none" />
  <path
     inkscape:connector-curvature="0"
     id="path19172"
     d="m 0,43.09766 c 0,0.30078 0.30078,0.30078 0.5,0.30078 0.40234,0 0.60156,0 0.60156,-0.30078 C 1.10156,42.80078 0.90234,42.5 0.5,42.5 0.30078,42.5 0,42.80078 0,43.09766 z m 0,0"
     style="fill:#000000;fill-opacity:1;fill-rule:evenodd;stroke:none" />
  <path
     inkscape:connector-curvature="0"
     id="path19174"
     d="m 4.69922,43.09766 c 0,0.30078 0.30078,0.30078 0.60156,0.30078 0.30078,0 0.60156,0 0.60156,-0.30078 C 5.90234,42.80078 5.60156,42.5 5.30078,42.5 5,42.5 4.69922,42.80078 4.69922,43.09766 z m 0,0"
     style="fill:#000000;fill-opacity:1;fill-rule:evenodd;stroke:none" />
  <path
     inkscape:connector-curvature="0"
     id="path19176"
     d="m 9.40234,43.09766 c 0,0.30078 0.29688,0.30078 0.59766,0.30078 0.30078,0 0.60156,0 0.60156,-0.30078 C 10.60156,42.80078 10.30078,42.5 10,42.5 c -0.30078,0 -0.59766,0.30078 -0.59766,0.59766 z m 0,0"
     style="fill:#000000;fill-opacity:1;fill-rule:evenodd;stroke:none" />
  <path
     inkscape:connector-curvature="0"
     id="path19178"
     d="m 14.10156,43.09766 c 0,0.30078 0.30078,0.30078 0.59766,0.30078 0.30078,0 0.60156,0 0.60156,-0.30078 C 15.30078,42.80078 15,42.5 14.69922,42.5 c -0.29688,0 -0.59766,0.30078 -0.59766,0.59766 z m 0,0"
     style="fill:#000000;fill-opacity:1;fill-rule:evenodd;stroke:none" />
  <path
     inkscape:connector-curvature="0"
     id="path19180"
     d="m 18.90234,43.09766 c 0,0.30078 0.29688,0.30078 0.5,0.30078 0.29688,0 0.59766,0 0.59766,-0.30078 C 20,42.80078 19.69922,42.5 19.40234,42.5 c -0.20312,0 -0.5,0.30078 -0.5,0.59766 z m 0,0"
     style="fill:#000000;fill-opacity:1;fill-rule:evenodd;stroke:none" />
  <path
     inkscape:connector-curvature="0"
     id="path19182"
     d="m 23.60156,43.09766 c 0,0.30078 0.30078,0.30078 0.59766,0.30078 0.30078,0 0.60156,0 0.60156,-0.30078 C 24.80078,42.80078 24.5,42.5 24.19922,42.5 c -0.29688,0 -0.59766,0.30078 -0.59766,0.59766 z m 0,0"
     style="fill:#000000;fill-opacity:1;fill-rule:evenodd;stroke:none" />
  <path
     inkscape:connector-curvature="0"
     id="path19184"
     d="m 28.30078,43.09766 c 0,0.30078 0.30078,0.30078 0.60156,0.30078 0.29688,0 0.59766,0 0.59766,-0.30078 C 29.5,42.80078 29.19922,42.5 28.90234,42.5 c -0.30078,0 -0.60156,0.30078 -0.60156,0.59766 z m 0,0"
     style="fill:#000000;fill-opacity:1;fill-rule:evenodd;stroke:none" />
  <path
     inkscape:connector-curvature="0"
     id="path19186"
     d="m 33,43.09766 c 0,0.30078 0.30078,0.30078 0.60156,0.30078 0.30078,0 0.59766,0 0.59766,-0.30078 C 34.19922,42.80078 33.90234,42.5 33.60156,42.5 33.30078,42.5 33,42.80078 33,43.09766 z m 0,0"
     style="fill:#000000;fill-opacity:1;fill-rule:evenodd;stroke:none" />
  <path
     inkscape:connector-curvature="0"
     id="path19188"
     d="m 37.80078,43.09766 c 0,0.30078 0.19922,0.30078 0.60156,0.30078 0.19922,0 0.5,0 0.5,-0.30078 0,-0.29688 -0.30078,-0.59766 -0.5,-0.59766 -0.40234,0 -0.60156,0.30078 -0.60156,0.59766 z m 0,0"
     style="fill:#000000;fill-opacity:1;fill-rule:evenodd;stroke:none" />
  <path
     inkscape:connector-curvature="0"
     id="path19190"
     d="m 42.5,43.09766 c 0,0.30078 0.30078,0.30078 0.60156,0.30078 0.30078,0 0.59766,0 0.59766,-0.30078 C 43.69922,42.80078 43.40234,42.5 43.10156,42.5 42.80078,42.5 42.5,42.80078 42.5,43.09766 z m 0,0"
     style="fill:#000000;fill-opacity:1;fill-rule:evenodd;stroke:none" />
  <path
     inkscape:connector-curvature="0"
     id="path19192"
     d="m 47.19922,43.09766 c 0,0.30078 0.30078,0.30078 0.60156,0.30078 0.30078,0 0.60156,0 0.60156,-0.30078 0,-0.29688 -0.30078,-0.59766 -0.60156,-0.59766 -0.30078,0 -0.60156,0.30078 -0.60156,0.59766 z m 0,0"
     style="fill:#000000;fill-opacity:1;fill-rule:evenodd;stroke:none" />
  <path
     inkscape:connector-curvature="0"
     id="path19194"
     d="m 51.90234,43.09766 c 0,0.30078 0.29688,0.30078 0.59766,0.30078 0.30078,0 0.60156,0 0.60156,-0.30078 C 53.10156,42.80078 52.80078,42.5 52.5,42.5 c -0.30078,0 -0.59766,0.30078 -0.59766,0.59766 z m 0,0"
     style="fill:#000000;fill-opacity:1;fill-rule:evenodd;stroke:none" />
  <path
     inkscape:connector-curvature="0"
     id="path19196"
     d="m 56.69922,43.09766 c 0,0.30078 0.20312,0.30078 0.5,0.30078 0.30078,0 0.60156,0 0.60156,-0.30078 C 57.80078,42.80078 57.5,42.5 57.19922,42.5 c -0.29688,0 -0.5,0.30078 -0.5,0.59766 z m 0,0"
     style="fill:#000000;fill-opacity:1;fill-rule:evenodd;stroke:none" />
  <path
     inkscape:connector-curvature="0"
     id="path19198"
     d="m 61.40234,43.09766 c 0,0.30078 0.29688,0.30078 0.59766,0.30078 0.30078,0 0.60156,0 0.60156,-0.30078 C 62.60156,42.80078 62.30078,42.5 62,42.5 c -0.30078,0 -0.59766,0.30078 -0.59766,0.59766 z m 0,0"
     style="fill:#000000;fill-opacity:1;fill-rule:evenodd;stroke:none" />
  <path
     inkscape:connector-curvature="0"
     id="path19200"
     d="m 0,47.80078 c 0,0.29688 0.30078,0.29688 0.5,0.29688 0.40234,0 0.60156,0 0.60156,-0.29688 C 1.10156,47.5 0.90234,47.19922 0.5,47.19922 0.30078,47.19922 0,47.5 0,47.80078 z m 0,0"
     style="fill:#000000;fill-opacity:1;fill-rule:evenodd;stroke:none" />
  <path
     inkscape:connector-curvature="0"
     id="path19202"
     d="m 4.69922,47.80078 c 0,0.29688 0.30078,0.29688 0.60156,0.29688 0.30078,0 0.60156,0 0.60156,-0.29688 C 5.90234,47.5 5.60156,47.19922 5.30078,47.19922 5,47.19922 4.69922,47.5 4.69922,47.80078 z m 0,0"
     style="fill:#000000;fill-opacity:1;fill-rule:evenodd;stroke:none" />
  <path
     inkscape:connector-curvature="0"
     id="path19204"
     d="m 9.40234,47.80078 c 0,0.29688 0.29688,0.29688 0.59766,0.29688 0.30078,0 0.60156,0 0.60156,-0.29688 0,-0.30078 -0.30078,-0.60156 -0.60156,-0.60156 -0.30078,0 -0.59766,0.30078 -0.59766,0.60156 z m 0,0"
     style="fill:#000000;fill-opacity:1;fill-rule:evenodd;stroke:none" />
  <path
     inkscape:connector-curvature="0"
     id="path19206"
     d="m 14.10156,47.80078 c 0,0.29688 0.30078,0.29688 0.59766,0.29688 0.30078,0 0.60156,0 0.60156,-0.29688 0,-0.30078 -0.30078,-0.60156 -0.60156,-0.60156 -0.29688,0 -0.59766,0.30078 -0.59766,0.60156 z m 0,0"
     style="fill:#000000;fill-opacity:1;fill-rule:evenodd;stroke:none" />
  <path
     inkscape:connector-curvature="0"
     id="path19208"
     d="m 18.90234,47.80078 c 0,0.29688 0.29688,0.29688 0.5,0.29688 0.29688,0 0.59766,0 0.59766,-0.29688 0,-0.30078 -0.30078,-0.60156 -0.59766,-0.60156 -0.20312,0 -0.5,0.30078 -0.5,0.60156 z m 0,0"
     style="fill:#000000;fill-opacity:1;fill-rule:evenodd;stroke:none" />
  <path
     inkscape:connector-curvature="0"
     id="path19210"
     d="m 23.60156,47.80078 c 0,0.29688 0.30078,0.29688 0.59766,0.29688 0.30078,0 0.60156,0 0.60156,-0.29688 0,-0.30078 -0.30078,-0.60156 -0.60156,-0.60156 -0.29688,0 -0.59766,0.30078 -0.59766,0.60156 z m 0,0"
     style="fill:#000000;fill-opacity:1;fill-rule:evenodd;stroke:none" />
  <path
     inkscape:connector-curvature="0"
     id="path19212"
     d="m 28.30078,47.80078 c 0,0.29688 0.30078,0.29688 0.60156,0.29688 0.29688,0 0.59766,0 0.59766,-0.29688 0,-0.30078 -0.30078,-0.60156 -0.59766,-0.60156 -0.30078,0 -0.60156,0.30078 -0.60156,0.60156 z m 0,0"
     style="fill:#000000;fill-opacity:1;fill-rule:evenodd;stroke:none" />
  <path
     inkscape:connector-curvature="0"
     id="path19214"
     d="m 33,47.80078 c 0,0.29688 0.30078,0.29688 0.60156,0.29688 0.30078,0 0.59766,0 0.59766,-0.29688 0,-0.30078 -0.29688,-0.60156 -0.59766,-0.60156 C 33.30078,47.19922 33,47.5 33,47.80078 z m 0,0"
     style="fill:#000000;fill-opacity:1;fill-rule:evenodd;stroke:none" />
  <path
     inkscape:connector-curvature="0"
     id="path19216"
     d="m 37.80078,47.80078 c 0,0.29688 0.19922,0.29688 0.60156,0.29688 0.19922,0 0.5,0 0.5,-0.29688 0,-0.30078 -0.30078,-0.60156 -0.5,-0.60156 -0.40234,0 -0.60156,0.30078 -0.60156,0.60156 z m 0,0"
     style="fill:#000000;fill-opacity:1;fill-rule:evenodd;stroke:none" />
  <path
     inkscape:connector-curvature="0"
     id="path19218"
     d="m 42.5,47.80078 c 0,0.29688 0.30078,0.29688 0.60156,0.29688 0.30078,0 0.59766,0 0.59766,-0.29688 0,-0.30078 -0.29688,-0.60156 -0.59766,-0.60156 C 42.80078,47.19922 42.5,47.5 42.5,47.80078 z m 0,0"
     style="fill:#000000;fill-opacity:1;fill-rule:evenodd;stroke:none" />
  <path
     inkscape:connector-curvature="0"
     id="path19220"
     d="m 47.19922,47.80078 c 0,0.29688 0.30078,0.29688 0.60156,0.29688 0.30078,0 0.60156,0 0.60156,-0.29688 0,-0.30078 -0.30078,-0.60156 -0.60156,-0.60156 -0.30078,0 -0.60156,0.30078 -0.60156,0.60156 z m 0,0"
     style="fill:#000000;fill-opacity:1;fill-rule:evenodd;stroke:none" />
  <path
     inkscape:connector-curvature="0"
     id="path19222"
     d="m 51.90234,47.80078 c 0,0.29688 0.29688,0.29688 0.59766,0.29688 0.30078,0 0.60156,0 0.60156,-0.29688 0,-0.30078 -0.30078,-0.60156 -0.60156,-0.60156 -0.30078,0 -0.59766,0.30078 -0.59766,0.60156 z m 0,0"
     style="fill:#000000;fill-opacity:1;fill-rule:evenodd;stroke:none" />
  <path
     inkscape:connector-curvature="0"
     id="path19224"
     d="m 56.69922,47.80078 c 0,0.29688 0.20312,0.29688 0.5,0.29688 0.30078,0 0.60156,0 0.60156,-0.29688 0,-0.30078 -0.30078,-0.60156 -0.60156,-0.60156 -0.29688,0 -0.5,0.30078 -0.5,0.60156 z m 0,0"
     style="fill:#000000;fill-opacity:1;fill-rule:evenodd;stroke:none" />
  <path
     inkscape:connector-curvature="0"
     id="path19226"
     d="m 61.40234,47.80078 c 0,0.29688 0.29688,0.29688 0.59766,0.29688 0.30078,0 0.60156,0 0.60156,-0.29688 0,-0.30078 -0.30078,-0.60156 -0.60156,-0.60156 -0.30078,0 -0.59766,0.30078 -0.59766,0.60156 z m 0,0"
     style="fill:#000000;fill-opacity:1;fill-rule:evenodd;stroke:none" />
  <path
     inkscape:connector-curvature="0"
     id="path19228"
     d="m 0,52.5 c 0,0.30078 0.30078,0.30078 0.5,0.30078 0.40234,0 0.60156,0 0.60156,-0.30078 C 1.10156,52.19922 0.90234,52 0.5,52 0.30078,52 0,52.19922 0,52.5 z m 0,0"
     style="fill:#000000;fill-opacity:1;fill-rule:evenodd;stroke:none" />
  <path
     inkscape:connector-curvature="0"
     id="path19230"
     d="m 4.69922,52.5 c 0,0.30078 0.30078,0.30078 0.60156,0.30078 0.30078,0 0.60156,0 0.60156,-0.30078 C 5.90234,52.19922 5.60156,52 5.30078,52 5,52 4.69922,52.19922 4.69922,52.5 z m 0,0"
     style="fill:#000000;fill-opacity:1;fill-rule:evenodd;stroke:none" />
  <path
     inkscape:connector-curvature="0"
     id="path19232"
     d="m 9.40234,52.5 c 0,0.30078 0.29688,0.30078 0.59766,0.30078 0.30078,0 0.60156,0 0.60156,-0.30078 C 10.60156,52.19922 10.30078,52 10,52 9.69922,52 9.40234,52.19922 9.40234,52.5 z m 0,0"
     style="fill:#000000;fill-opacity:1;fill-rule:evenodd;stroke:none" />
  <path
     inkscape:connector-curvature="0"
     id="path19234"
     d="m 14.10156,52.5 c 0,0.30078 0.30078,0.30078 0.59766,0.30078 0.30078,0 0.60156,0 0.60156,-0.30078 0,-0.30078 -0.30078,-0.5 -0.60156,-0.5 -0.29688,0 -0.59766,0.19922 -0.59766,0.5 z m 0,0"
     style="fill:#000000;fill-opacity:1;fill-rule:evenodd;stroke:none" />
  <path
     inkscape:connector-curvature="0"
     id="path19236"
     d="m 18.90234,52.5 c 0,0.30078 0.29688,0.30078 0.5,0.30078 0.29688,0 0.59766,0 0.59766,-0.30078 0,-0.30078 -0.30078,-0.5 -0.59766,-0.5 -0.20312,0 -0.5,0.19922 -0.5,0.5 z m 0,0"
     style="fill:#000000;fill-opacity:1;fill-rule:evenodd;stroke:none" />
  <path
     inkscape:connector-curvature="0"
     id="path19238"
     d="m 23.60156,52.5 c 0,0.30078 0.30078,0.30078 0.59766,0.30078 0.30078,0 0.60156,0 0.60156,-0.30078 0,-0.30078 -0.30078,-0.5 -0.60156,-0.5 -0.29688,0 -0.59766,0.19922 -0.59766,0.5 z m 0,0"
     style="fill:#000000;fill-opacity:1;fill-rule:evenodd;stroke:none" />
  <path
     inkscape:connector-curvature="0"
     id="path19240"
     d="m 28.30078,52.5 c 0,0.30078 0.30078,0.30078 0.60156,0.30078 0.29688,0 0.59766,0 0.59766,-0.30078 0,-0.30078 -0.30078,-0.5 -0.59766,-0.5 -0.30078,0 -0.60156,0.19922 -0.60156,0.5 z m 0,0"
     style="fill:#000000;fill-opacity:1;fill-rule:evenodd;stroke:none" />
  <path
     inkscape:connector-curvature="0"
     id="path19242"
     d="m 33,52.5 c 0,0.30078 0.30078,0.30078 0.60156,0.30078 0.30078,0 0.59766,0 0.59766,-0.30078 0,-0.30078 -0.29688,-0.5 -0.59766,-0.5 C 33.30078,52 33,52.19922 33,52.5 z m 0,0"
     style="fill:#000000;fill-opacity:1;fill-rule:evenodd;stroke:none" />
  <path
     inkscape:connector-curvature="0"
     id="path19244"
     d="m 37.80078,52.5 c 0,0.30078 0.19922,0.30078 0.60156,0.30078 0.19922,0 0.5,0 0.5,-0.30078 0,-0.30078 -0.30078,-0.5 -0.5,-0.5 C 38,52 37.80078,52.19922 37.80078,52.5 z m 0,0"
     style="fill:#000000;fill-opacity:1;fill-rule:evenodd;stroke:none" />
  <path
     inkscape:connector-curvature="0"
     id="path19246"
     d="m 42.5,52.5 c 0,0.30078 0.30078,0.30078 0.60156,0.30078 0.30078,0 0.59766,0 0.59766,-0.30078 0,-0.30078 -0.29688,-0.5 -0.59766,-0.5 C 42.80078,52 42.5,52.19922 42.5,52.5 z m 0,0"
     style="fill:#000000;fill-opacity:1;fill-rule:evenodd;stroke:none" />
  <path
     inkscape:connector-curvature="0"
     id="path19248"
     d="m 47.19922,52.5 c 0,0.30078 0.30078,0.30078 0.60156,0.30078 0.30078,0 0.60156,0 0.60156,-0.30078 0,-0.30078 -0.30078,-0.5 -0.60156,-0.5 -0.30078,0 -0.60156,0.19922 -0.60156,0.5 z m 0,0"
     style="fill:#000000;fill-opacity:1;fill-rule:evenodd;stroke:none" />
  <path
     inkscape:connector-curvature="0"
     id="path19250"
     d="m 51.90234,52.5 c 0,0.30078 0.29688,0.30078 0.59766,0.30078 0.30078,0 0.60156,0 0.60156,-0.30078 0,-0.30078 -0.30078,-0.5 -0.60156,-0.5 -0.30078,0 -0.59766,0.19922 -0.59766,0.5 z m 0,0"
     style="fill:#000000;fill-opacity:1;fill-rule:evenodd;stroke:none" />
  <path
     inkscape:connector-curvature="0"
     id="path19252"
     d="m 56.69922,52.5 c 0,0.30078 0.20312,0.30078 0.5,0.30078 0.30078,0 0.60156,0 0.60156,-0.30078 0,-0.30078 -0.30078,-0.5 -0.60156,-0.5 -0.29688,0 -0.5,0.19922 -0.5,0.5 z m 0,0"
     style="fill:#000000;fill-opacity:1;fill-rule:evenodd;stroke:none" />
  <path
     inkscape:connector-curvature="0"
     id="path19254"
     d="m 61.40234,52.5 c 0,0.30078 0.29688,0.30078 0.59766,0.30078 0.30078,0 0.60156,0 0.60156,-0.30078 0,-0.30078 -0.30078,-0.5 -0.60156,-0.5 -0.30078,0 -0.59766,0.19922 -0.59766,0.5 z m 0,0"
     style="fill:#000000;fill-opacity:1;fill-rule:evenodd;stroke:none" />
  <path
     inkscape:connector-curvature="0"
     id="path19256"
     d="m 0,57.30078 c 0,0.29688 0.30078,0.29688 0.5,0.29688 0.40234,0 0.60156,0 0.60156,-0.29688 C 1.10156,57 0.90234,56.69922 0.5,56.69922 0.30078,56.69922 0,57 0,57.30078 z m 0,0"
     style="fill:#000000;fill-opacity:1;fill-rule:evenodd;stroke:none" />
  <path
     inkscape:connector-curvature="0"
     id="path19258"
     d="m 4.69922,57.30078 c 0,0.29688 0.30078,0.29688 0.60156,0.29688 0.30078,0 0.60156,0 0.60156,-0.29688 C 5.90234,57 5.60156,56.69922 5.30078,56.69922 5,56.69922 4.69922,57 4.69922,57.30078 z m 0,0"
     style="fill:#000000;fill-opacity:1;fill-rule:evenodd;stroke:none" />
  <path
     inkscape:connector-curvature="0"
     id="path19260"
     d="m 9.40234,57.30078 c 0,0.29688 0.29688,0.29688 0.59766,0.29688 0.30078,0 0.60156,0 0.60156,-0.29688 C 10.60156,57 10.30078,56.69922 10,56.69922 9.69922,56.69922 9.40234,57 9.40234,57.30078 z m 0,0"
     style="fill:#000000;fill-opacity:1;fill-rule:evenodd;stroke:none" />
  <path
     inkscape:connector-curvature="0"
     id="path19262"
     d="m 14.10156,57.30078 c 0,0.29688 0.30078,0.29688 0.59766,0.29688 0.30078,0 0.60156,0 0.60156,-0.29688 C 15.30078,57 15,56.69922 14.69922,56.69922 c -0.29688,0 -0.59766,0.30078 -0.59766,0.60156 z m 0,0"
     style="fill:#000000;fill-opacity:1;fill-rule:evenodd;stroke:none" />
  <path
     inkscape:connector-curvature="0"
     id="path19264"
     d="m 18.90234,57.30078 c 0,0.29688 0.29688,0.29688 0.5,0.29688 0.29688,0 0.59766,0 0.59766,-0.29688 C 20,57 19.69922,56.69922 19.40234,56.69922 c -0.20312,0 -0.5,0.30078 -0.5,0.60156 z m 0,0"
     style="fill:#000000;fill-opacity:1;fill-rule:evenodd;stroke:none" />
  <path
     inkscape:connector-curvature="0"
     id="path19266"
     d="m 23.60156,57.30078 c 0,0.29688 0.30078,0.29688 0.59766,0.29688 0.30078,0 0.60156,0 0.60156,-0.29688 0,-0.30078 -0.30078,-0.60156 -0.60156,-0.60156 -0.29688,0 -0.59766,0.30078 -0.59766,0.60156 z m 0,0"
     style="fill:#000000;fill-opacity:1;fill-rule:evenodd;stroke:none" />
  <path
     inkscape:connector-curvature="0"
     id="path19268"
     d="m 28.30078,57.30078 c 0,0.29688 0.30078,0.29688 0.60156,0.29688 0.29688,0 0.59766,0 0.59766,-0.29688 0,-0.30078 -0.30078,-0.60156 -0.59766,-0.60156 -0.30078,0 -0.60156,0.30078 -0.60156,0.60156 z m 0,0"
     style="fill:#000000;fill-opacity:1;fill-rule:evenodd;stroke:none" />
  <path
     inkscape:connector-curvature="0"
     id="path19270"
     d="m 33,57.30078 c 0,0.29688 0.30078,0.29688 0.60156,0.29688 0.30078,0 0.59766,0 0.59766,-0.29688 0,-0.30078 -0.29688,-0.60156 -0.59766,-0.60156 C 33.30078,56.69922 33,57 33,57.30078 z m 0,0"
     style="fill:#000000;fill-opacity:1;fill-rule:evenodd;stroke:none" />
  <path
     inkscape:connector-curvature="0"
     id="path19272"
     d="m 37.80078,57.30078 c 0,0.29688 0.19922,0.29688 0.60156,0.29688 0.19922,0 0.5,0 0.5,-0.29688 0,-0.30078 -0.30078,-0.60156 -0.5,-0.60156 C 38,56.69922 37.80078,57 37.80078,57.30078 z m 0,0"
     style="fill:#000000;fill-opacity:1;fill-rule:evenodd;stroke:none" />
  <path
     inkscape:connector-curvature="0"
     id="path19274"
     d="m 42.5,57.30078 c 0,0.29688 0.30078,0.29688 0.60156,0.29688 0.30078,0 0.59766,0 0.59766,-0.29688 0,-0.30078 -0.29688,-0.60156 -0.59766,-0.60156 C 42.80078,56.69922 42.5,57 42.5,57.30078 z m 0,0"
     style="fill:#000000;fill-opacity:1;fill-rule:evenodd;stroke:none" />
  <path
     inkscape:connector-curvature="0"
     id="path19276"
     d="m 47.19922,57.30078 c 0,0.29688 0.30078,0.29688 0.60156,0.29688 0.30078,0 0.60156,0 0.60156,-0.29688 0,-0.30078 -0.30078,-0.60156 -0.60156,-0.60156 -0.30078,0 -0.60156,0.30078 -0.60156,0.60156 z m 0,0"
     style="fill:#000000;fill-opacity:1;fill-rule:evenodd;stroke:none" />
  <path
     inkscape:connector-curvature="0"
     id="path19278"
     d="m 51.90234,57.30078 c 0,0.29688 0.29688,0.29688 0.59766,0.29688 0.30078,0 0.60156,0 0.60156,-0.29688 0,-0.30078 -0.30078,-0.60156 -0.60156,-0.60156 -0.30078,0 -0.59766,0.30078 -0.59766,0.60156 z m 0,0"
     style="fill:#000000;fill-opacity:1;fill-rule:evenodd;stroke:none" />
  <path
     inkscape:connector-curvature="0"
     id="path19280"
     d="m 56.69922,57.30078 c 0,0.29688 0.20312,0.29688 0.5,0.29688 0.30078,0 0.60156,0 0.60156,-0.29688 0,-0.30078 -0.30078,-0.60156 -0.60156,-0.60156 -0.29688,0 -0.5,0.30078 -0.5,0.60156 z m 0,0"
     style="fill:#000000;fill-opacity:1;fill-rule:evenodd;stroke:none" />
  <path
     inkscape:connector-curvature="0"
     id="path19282"
     d="m 61.40234,57.30078 c 0,0.29688 0.29688,0.29688 0.59766,0.29688 0.30078,0 0.60156,0 0.60156,-0.29688 C 62.60156,57 62.30078,56.69922 62,56.69922 c -0.30078,0 -0.59766,0.30078 -0.59766,0.60156 z m 0,0"
     style="fill:#000000;fill-opacity:1;fill-rule:evenodd;stroke:none" />
  <path
     inkscape:connector-curvature="0"
     id="path19284"
     d="m 0,62 c 0,0.30078 0.30078,0.30078 0.5,0.30078 0.40234,0 0.60156,0 0.60156,-0.30078 C 1.10156,61.69922 0.90234,61.39844 0.5,61.39844 0.30078,61.39844 0,61.69922 0,62 z m 0,0"
     style="fill:#000000;fill-opacity:1;fill-rule:evenodd;stroke:none" />
  <path
     inkscape:connector-curvature="0"
     id="path19286"
     d="m 4.69922,62 c 0,0.30078 0.30078,0.30078 0.60156,0.30078 0.30078,0 0.60156,0 0.60156,-0.30078 0,-0.30078 -0.30078,-0.60156 -0.60156,-0.60156 C 5,61.39844 4.69922,61.69922 4.69922,62 z m 0,0"
     style="fill:#000000;fill-opacity:1;fill-rule:evenodd;stroke:none" />
  <path
     inkscape:connector-curvature="0"
     id="path19288"
     d="m 9.40234,62 c 0,0.30078 0.29688,0.30078 0.59766,0.30078 0.30078,0 0.60156,0 0.60156,-0.30078 0,-0.30078 -0.30078,-0.60156 -0.60156,-0.60156 -0.30078,0 -0.59766,0.30078 -0.59766,0.60156 z m 0,0"
     style="fill:#000000;fill-opacity:1;fill-rule:evenodd;stroke:none" />
  <path
     inkscape:connector-curvature="0"
     id="path19290"
     d="m 14.10156,62 c 0,0.30078 0.30078,0.30078 0.59766,0.30078 0.30078,0 0.60156,0 0.60156,-0.30078 0,-0.30078 -0.30078,-0.60156 -0.60156,-0.60156 -0.29688,0 -0.59766,0.30078 -0.59766,0.60156 z m 0,0"
     style="fill:#000000;fill-opacity:1;fill-rule:evenodd;stroke:none" />
  <path
     inkscape:connector-curvature="0"
     id="path19292"
     d="m 18.90234,62 c 0,0.30078 0.29688,0.30078 0.5,0.30078 0.29688,0 0.59766,0 0.59766,-0.30078 0,-0.30078 -0.30078,-0.60156 -0.59766,-0.60156 -0.20312,0 -0.5,0.30078 -0.5,0.60156 z m 0,0"
     style="fill:#000000;fill-opacity:1;fill-rule:evenodd;stroke:none" />
  <path
     inkscape:connector-curvature="0"
     id="path19294"
     d="m 23.60156,62 c 0,0.30078 0.30078,0.30078 0.59766,0.30078 0.30078,0 0.60156,0 0.60156,-0.30078 0,-0.30078 -0.30078,-0.60156 -0.60156,-0.60156 -0.29688,0 -0.59766,0.30078 -0.59766,0.60156 z m 0,0"
     style="fill:#000000;fill-opacity:1;fill-rule:evenodd;stroke:none" />
  <path
     inkscape:connector-curvature="0"
     id="path19296"
     d="m 28.30078,62 c 0,0.30078 0.30078,0.30078 0.60156,0.30078 0.29688,0 0.59766,0 0.59766,-0.30078 0,-0.30078 -0.30078,-0.60156 -0.59766,-0.60156 -0.30078,0 -0.60156,0.30078 -0.60156,0.60156 z m 0,0"
     style="fill:#000000;fill-opacity:1;fill-rule:evenodd;stroke:none" />
  <path
     inkscape:connector-curvature="0"
     id="path19298"
     d="m 33,62 c 0,0.30078 0.30078,0.30078 0.60156,0.30078 0.30078,0 0.59766,0 0.59766,-0.30078 0,-0.30078 -0.29688,-0.60156 -0.59766,-0.60156 C 33.30078,61.39844 33,61.69922 33,62 z m 0,0"
     style="fill:#000000;fill-opacity:1;fill-rule:evenodd;stroke:none" />
  <path
     inkscape:connector-curvature="0"
     id="path19300"
     d="m 37.80078,62 c 0,0.30078 0.19922,0.30078 0.60156,0.30078 0.19922,0 0.5,0 0.5,-0.30078 0,-0.30078 -0.30078,-0.60156 -0.5,-0.60156 C 38,61.39844 37.80078,61.69922 37.80078,62 z m 0,0"
     style="fill:#000000;fill-opacity:1;fill-rule:evenodd;stroke:none" />
  <path
     inkscape:connector-curvature="0"
     id="path19302"
     d="m 42.5,62 c 0,0.30078 0.30078,0.30078 0.60156,0.30078 0.30078,0 0.59766,0 0.59766,-0.30078 0,-0.30078 -0.29688,-0.60156 -0.59766,-0.60156 C 42.80078,61.39844 42.5,61.69922 42.5,62 z m 0,0"
     style="fill:#000000;fill-opacity:1;fill-rule:evenodd;stroke:none" />
  <path
     inkscape:connector-curvature="0"
     id="path19304"
     d="m 47.19922,62 c 0,0.30078 0.30078,0.30078 0.60156,0.30078 0.30078,0 0.60156,0 0.60156,-0.30078 0,-0.30078 -0.30078,-0.60156 -0.60156,-0.60156 -0.30078,0 -0.60156,0.30078 -0.60156,0.60156 z m 0,0"
     style="fill:#000000;fill-opacity:1;fill-rule:evenodd;stroke:none" />
  <path
     inkscape:connector-curvature="0"
     id="path19306"
     d="m 51.90234,62 c 0,0.30078 0.29688,0.30078 0.59766,0.30078 0.30078,0 0.60156,0 0.60156,-0.30078 0,-0.30078 -0.30078,-0.60156 -0.60156,-0.60156 -0.30078,0 -0.59766,0.30078 -0.59766,0.60156 z m 0,0"
     style="fill:#000000;fill-opacity:1;fill-rule:evenodd;stroke:none" />
  <path
     inkscape:connector-curvature="0"
     id="path19308"
     d="m 56.69922,62 c 0,0.30078 0.20312,0.30078 0.5,0.30078 0.30078,0 0.60156,0 0.60156,-0.30078 0,-0.30078 -0.30078,-0.60156 -0.60156,-0.60156 -0.29688,0 -0.5,0.30078 -0.5,0.60156 z m 0,0"
     style="fill:#000000;fill-opacity:1;fill-rule:evenodd;stroke:none" />
  <path
     inkscape:connector-curvature="0"
     id="path19310"
     d="m 61.40234,62 c 0,0.30078 0.29688,0.30078 0.59766,0.30078 0.30078,0 0.60156,0 0.60156,-0.30078 0,-0.30078 -0.30078,-0.60156 -0.60156,-0.60156 -0.30078,0 -0.59766,0.30078 -0.59766,0.60156 z m 0,0"
     style="fill:#000000;fill-opacity:1;fill-rule:evenodd;stroke:none" />
</svg>
