<?xml version="1.0"?>
<!-- Converted with SVG Converter - Version 0.9.5 (Compiled Fri Feb 21 09:53:38 2020) - Copyright (C) 2011 Nokia -->
<svg xmlns="http://www.w3.org/2000/svg" baseProfile="tiny" xmlns:xlink="http://www.w3.org/1999/xlink" width="39.736" height="39.737">
 <defs>
  <path id="a" d="M0 0h39.74v39.74H0z"/>
 </defs>
 <circle cy="1.318" r=".557" cx="3.331"/>
 <circle cy="5.224" r=".557" cx="3.331"/>
 <path d="M.02 2.7c.3 0 .56-.26.56-.57s-.25-.56-.56-.56"/>
 <circle cy="2.131" r=".557" cx="6.617"/>
 <circle cy="4.407" r=".557" cx="6.617"/>
 <path d="M0 4.96c.3 0 .55-.25.55-.55S.3 3.86 0 3.86"/>
 <circle cy="3.318" r=".557" cx="4.549"/>
 <circle cy="3.318" r=".557" cx="2.049"/>
 <path d="M4.8 0c0 .3.26.56.57.56.3 0 .55-.25.55-.56"/>
 <circle cy="6.595" r=".557" cx="5.367"/>
 <path d="M.75 0c0 .3.25.56.56.56.3 0 .56-.25.56-.56"/>
 <circle cy="6.599" r=".557" cx="1.305"/>
 <circle cy="1.318" r=".557" cx="9.956"/>
 <circle cy="5.224" r=".557" cx="9.956"/>
 <circle cy="2.131" r=".557" cx="13.242"/>
 <circle cy="4.407" r=".557" cx="13.242"/>
 <circle cy="4.407" r=".557" cx="6.617"/>
 <circle cy="3.318" r=".557" cx="11.174"/>
 <circle cy="3.318" r=".557" cx="8.674"/>
 <path d="M11.44 0c0 .3.25.56.55.56.3 0 .55-.25.55-.56"/>
 <circle cy="6.595" r=".557" cx="11.992"/>
 <path d="M7.37 0c0 .3.25.56.56.56.3 0 .56-.25.56-.56"/>
 <circle cy="6.599" r=".557" cx="7.93"/>
 <circle cy="1.318" r=".557" cx="16.581"/>
 <circle cy="5.224" r=".557" cx="16.581"/>
 <circle cy="2.131" r=".557" cx="19.867"/>
 <circle cy="4.407" r=".557" cx="19.867"/>
 <circle cy="4.407" r=".557" cx="13.242"/>
 <circle cy="3.318" r=".557" cx="17.799"/>
 <circle cy="3.318" r=".557" cx="15.299"/>
 <path d="M18.06 0c0 .3.25.56.56.56.3 0 .55-.25.55-.56"/>
 <circle cy="6.595" r=".557" cx="18.617"/>
 <path d="M14 0c0 .3.25.56.55.56.3 0 .56-.25.56-.56"/>
 <circle cy="6.599" r=".557" cx="14.555"/>
 <circle cy="1.318" r=".557" cx="23.206"/>
 <circle cy="5.224" r=".557" cx="23.206"/>
 <circle cy="2.131" r=".557" cx="26.492"/>
 <circle cy="4.407" r=".557" cx="26.492"/>
 <circle cy="4.407" r=".557" cx="19.867"/>
 <circle cy="3.318" r=".557" cx="24.424"/>
 <circle cy="3.318" r=".557" cx="21.924"/>
 <path d="M24.68 0c0 .3.25.56.56.56.3 0 .56-.25.56-.56"/>
 <circle cy="6.595" r=".557" cx="25.242"/>
 <path d="M20.62 0c0 .3.25.56.56.56.3 0 .56-.25.56-.56"/>
 <circle cy="6.599" r=".557" cx="21.18"/>
 <circle cy="1.318" r=".557" cx="29.831"/>
 <circle cy="5.224" r=".557" cx="29.831"/>
 <circle cy="2.131" r=".557" cx="33.117"/>
 <circle cy="4.407" r=".557" cx="33.117"/>
 <circle cy="4.407" r=".557" cx="26.492"/>
 <circle cy="3.318" r=".557" cx="31.049"/>
 <circle cy="3.318" r=".557" cx="28.549"/>
 <path d="M31.3 0c0 .3.26.56.57.56.3 0 .55-.25.55-.56"/>
 <circle cy="6.595" r=".557" cx="31.867"/>
 <path d="M27.25 0c0 .3.25.56.55.56.3 0 .56-.25.56-.56"/>
 <circle cy="6.599" r=".557" cx="27.805"/>
 <circle cy="1.318" r=".557" cx="36.456"/>
 <circle cy="5.224" r=".557" cx="36.456"/>
 <path d="M39.74 1.57c-.3 0-.56.25-.56.56s.25.56.56.56M39.74 3.85c-.3 0-.56.25-.56.56s.25.57.56.57"/>
 <circle cy="4.407" r=".557" cx="33.117"/>
 <circle cy="3.318" r=".557" cx="37.674"/>
 <circle cy="3.318" r=".557" cx="35.174"/>
 <path d="M37.94 0c0 .3.25.56.55.56.3 0 .55-.25.55-.56"/>
 <circle cy="6.595" r=".557" cx="38.492"/>
 <path d="M33.87 0c0 .3.25.56.56.56.3 0 .56-.25.56-.56"/>
 <circle cy="6.599" r=".557" cx="34.43"/>
 <circle cy="7.943" r=".557" cx="3.331"/>
 <circle cy="11.849" r=".557" cx="3.331"/>
 <path d="M.02 9.3c.3 0 .56-.24.56-.54S.33 8.2.02 8.2"/>
 <circle cy="8.756" r=".557" cx="6.617"/>
 <circle cy="11.032" r=".557" cx="6.617"/>
 <path d="M0 11.6c.3 0 .55-.26.55-.57s-.25-.55-.56-.55"/>
 <circle cy="9.943" r=".557" cx="4.549"/>
 <circle cy="9.943" r=".557" cx="2.049"/>
 <circle cy="13.22" r=".557" cx="5.367"/>
 <circle cy="13.224" r=".557" cx="1.305"/>
 <circle cy="7.943" r=".557" cx="9.956"/>
 <circle cy="11.849" r=".557" cx="9.956"/>
 <circle cy="8.756" r=".557" cx="13.242"/>
 <circle cy="11.032" r=".557" cx="13.242"/>
 <circle cy="11.032" r=".557" cx="6.617"/>
 <circle cy="9.943" r=".557" cx="11.174"/>
 <circle cy="9.943" r=".557" cx="8.674"/>
 <circle cy="13.22" r=".557" cx="11.992"/>
 <circle cy="13.224" r=".557" cx="7.93"/>
 <circle cy="7.943" r=".557" cx="16.581"/>
 <circle cy="11.849" r=".557" cx="16.581"/>
 <circle cy="8.756" r=".557" cx="19.867"/>
 <circle cy="11.032" r=".557" cx="19.867"/>
 <circle cy="11.032" r=".557" cx="13.242"/>
 <circle cy="9.943" r=".557" cx="17.799"/>
 <circle cy="9.943" r=".557" cx="15.299"/>
 <circle cy="13.22" r=".557" cx="18.617"/>
 <circle cy="13.224" r=".557" cx="14.555"/>
 <circle cy="7.943" r=".557" cx="23.206"/>
 <circle cy="11.849" r=".557" cx="23.206"/>
 <circle cy="8.756" r=".557" cx="26.492"/>
 <circle cy="11.032" r=".557" cx="26.492"/>
 <circle cy="11.032" r=".557" cx="19.867"/>
 <circle cy="9.943" r=".557" cx="24.424"/>
 <circle cy="9.943" r=".557" cx="21.924"/>
 <circle cy="13.22" r=".557" cx="25.242"/>
 <circle cy="13.224" r=".557" cx="21.18"/>
 <circle cy="7.943" r=".557" cx="29.831"/>
 <circle cy="11.849" r=".557" cx="29.831"/>
 <circle cy="8.756" r=".557" cx="33.117"/>
 <circle cy="11.032" r=".557" cx="33.117"/>
 <circle cy="11.032" r=".557" cx="26.492"/>
 <circle cy="9.943" r=".557" cx="31.049"/>
 <circle cy="9.943" r=".557" cx="28.549"/>
 <circle cy="13.22" r=".557" cx="31.867"/>
 <circle cy="13.224" r=".557" cx="27.805"/>
 <circle cy="7.943" r=".557" cx="36.456"/>
 <circle cy="11.849" r=".557" cx="36.456"/>
 <path d="M39.74 8.2c-.3 0-.56.25-.56.56s.25.55.56.55M39.74 10.48c-.3 0-.56.25-.56.55s.25.56.56.56"/>
 <circle cy="11.032" r=".557" cx="33.117"/>
 <circle cy="9.943" r=".557" cx="37.674"/>
 <circle cy="9.943" r=".557" cx="35.174"/>
 <circle cy="13.22" r=".557" cx="38.492"/>
 <circle cy="13.224" r=".557" cx="34.43"/>
 <circle cy="14.568" r=".557" cx="3.331"/>
 <circle cy="18.474" r=".557" cx="3.331"/>
 <path d="M.02 15.94c.3 0 .56-.25.56-.56s-.25-.56-.56-.56"/>
 <circle cy="15.381" r=".557" cx="6.617"/>
 <circle cy="17.657" r=".557" cx="6.617"/>
 <path d="M0 18.2c.3 0 .55-.24.55-.54S.3 17.1 0 17.1"/>
 <circle cy="16.568" r=".557" cx="4.549"/>
 <circle cy="16.568" r=".557" cx="2.049"/>
 <circle cy="19.845" r=".557" cx="5.367"/>
 <circle cy="19.849" r=".557" cx="1.305"/>
 <circle cy="14.568" r=".557" cx="9.956"/>
 <circle cy="18.474" r=".557" cx="9.956"/>
 <circle cy="15.381" r=".557" cx="13.242"/>
 <circle cy="17.657" r=".557" cx="13.242"/>
 <circle cy="17.657" r=".557" cx="6.617"/>
 <circle cy="16.568" r=".557" cx="11.174"/>
 <circle cy="16.568" r=".557" cx="8.674"/>
 <circle cy="19.845" r=".557" cx="11.992"/>
 <circle cy="19.849" r=".557" cx="7.93"/>
 <circle cy="14.568" r=".557" cx="16.581"/>
 <circle cy="18.474" r=".557" cx="16.581"/>
 <circle cy="15.381" r=".557" cx="19.867"/>
 <circle cy="17.657" r=".557" cx="19.867"/>
 <circle cy="17.657" r=".557" cx="13.242"/>
 <circle cy="16.568" r=".557" cx="17.799"/>
 <circle cy="16.568" r=".557" cx="15.299"/>
 <circle cy="19.845" r=".557" cx="18.617"/>
 <circle cy="19.849" r=".557" cx="14.555"/>
 <circle cy="14.568" r=".557" cx="23.206"/>
 <circle cy="18.474" r=".557" cx="23.206"/>
 <circle cy="15.381" r=".557" cx="26.492"/>
 <circle cy="17.657" r=".557" cx="26.492"/>
 <circle cy="17.657" r=".557" cx="19.867"/>
 <circle cy="16.568" r=".557" cx="24.424"/>
 <circle cy="16.568" r=".557" cx="21.924"/>
 <circle cy="19.845" r=".557" cx="25.242"/>
 <circle cy="19.849" r=".557" cx="21.18"/>
 <circle cy="14.568" r=".557" cx="29.831"/>
 <circle cy="18.474" r=".557" cx="29.831"/>
 <circle cy="15.381" r=".557" cx="33.117"/>
 <circle cy="17.657" r=".557" cx="33.117"/>
 <circle cy="17.657" r=".557" cx="26.492"/>
 <circle cy="16.568" r=".557" cx="31.049"/>
 <circle cy="16.568" r=".557" cx="28.549"/>
 <circle cy="19.845" r=".557" cx="31.867"/>
 <circle cy="19.849" r=".557" cx="27.805"/>
 <circle cy="14.568" r=".557" cx="36.456"/>
 <circle cy="18.474" r=".557" cx="36.456"/>
 <path d="M39.74 14.82c-.3 0-.56.25-.56.56s.25.56.56.56M39.74 17.1c-.3 0-.56.25-.56.56s.25.55.56.55"/>
 <circle cy="17.657" r=".557" cx="33.117"/>
 <circle cy="16.568" r=".557" cx="37.674"/>
 <circle cy="16.568" r=".557" cx="35.174"/>
 <circle cy="19.845" r=".557" cx="38.492"/>
 <circle cy="19.849" r=".557" cx="34.43"/>
 <circle cy="21.193" r=".557" cx="3.331"/>
 <circle cy="25.099" r=".557" cx="3.331"/>
 <path d="M.02 22.56c.3 0 .56-.25.56-.55s-.25-.55-.56-.55"/>
 <circle cy="22.006" r=".557" cx="6.617"/>
 <circle cy="24.282" r=".557" cx="6.617"/>
 <path d="M.02 24.84c.3 0 .56-.25.56-.56s-.25-.56-.56-.56"/>
 <circle cy="23.193" r=".557" cx="4.549"/>
 <circle cy="23.193" r=".557" cx="2.049"/>
 <circle cy="26.47" r=".557" cx="5.367"/>
 <circle cy="26.474" r=".557" cx="1.305"/>
 <circle cy="21.193" r=".557" cx="9.956"/>
 <circle cy="25.099" r=".557" cx="9.956"/>
 <circle cy="22.006" r=".557" cx="13.242"/>
 <circle cy="24.282" r=".557" cx="13.242"/>
 <circle cy="24.282" r=".557" cx="6.617"/>
 <circle cy="23.193" r=".557" cx="11.174"/>
 <circle cy="23.193" r=".557" cx="8.674"/>
 <circle cy="26.47" r=".557" cx="11.992"/>
 <circle cy="26.474" r=".557" cx="7.93"/>
 <circle cy="21.193" r=".557" cx="16.581"/>
 <circle cy="25.099" r=".557" cx="16.581"/>
 <circle cy="22.006" r=".557" cx="19.867"/>
 <circle cy="24.282" r=".557" cx="19.867"/>
 <circle cy="24.282" r=".557" cx="13.242"/>
 <circle cy="23.193" r=".557" cx="17.799"/>
 <circle cy="23.193" r=".557" cx="15.299"/>
 <circle cy="26.47" r=".557" cx="18.617"/>
 <circle cy="26.474" r=".557" cx="14.555"/>
 <circle cy="21.193" r=".557" cx="23.206"/>
 <circle cy="25.099" r=".557" cx="23.206"/>
 <circle cy="22.006" r=".557" cx="26.492"/>
 <circle cy="24.282" r=".557" cx="26.492"/>
 <circle cy="24.282" r=".557" cx="19.867"/>
 <circle cy="23.193" r=".557" cx="24.424"/>
 <circle cy="23.193" r=".557" cx="21.924"/>
 <circle cy="26.47" r=".557" cx="25.242"/>
 <circle cy="26.474" r=".557" cx="21.18"/>
 <circle cy="21.193" r=".557" cx="29.831"/>
 <circle cy="25.099" r=".557" cx="29.831"/>
 <circle cy="22.006" r=".557" cx="33.117"/>
 <circle cy="24.282" r=".557" cx="33.117"/>
 <circle cy="24.282" r=".557" cx="26.492"/>
 <circle cy="23.193" r=".557" cx="31.049"/>
 <circle cy="23.193" r=".557" cx="28.549"/>
 <circle cy="26.47" r=".557" cx="31.867"/>
 <circle cy="26.474" r=".557" cx="27.805"/>
 <circle cy="21.193" r=".557" cx="36.456"/>
 <circle cy="25.099" r=".557" cx="36.456"/>
 <path d="M39.74 21.45c-.3 0-.56.25-.56.56s.25.56.56.56M39.74 23.73c-.3 0-.56.24-.56.55s.25.56.56.56"/>
 <circle cy="24.282" r=".557" cx="33.117"/>
 <circle cy="23.193" r=".557" cx="37.674"/>
 <circle cy="23.193" r=".557" cx="35.174"/>
 <circle cy="26.47" r=".557" cx="38.492"/>
 <circle cy="26.474" r=".557" cx="34.43"/>
 <circle cy="27.818" r=".557" cx="3.331"/>
 <circle cy="31.724" r=".557" cx="3.331"/>
 <path d="M.02 29.2c.3 0 .56-.26.56-.57s-.25-.56-.56-.56"/>
 <circle cy="28.631" r=".557" cx="6.617"/>
 <circle cy="30.907" r=".557" cx="6.617"/>
 <path d="M0 31.46c.3 0 .55-.25.55-.55s-.25-.55-.56-.55"/>
 <circle cy="29.818" r=".557" cx="4.549"/>
 <circle cy="29.818" r=".557" cx="2.049"/>
 <circle cy="33.095" r=".557" cx="5.367"/>
 <circle cy="27.818" r=".557" cx="9.956"/>
 <circle cy="31.724" r=".557" cx="9.956"/>
 <circle cy="28.631" r=".557" cx="13.242"/>
 <circle cy="30.907" r=".557" cx="13.242"/>
 <circle cy="30.907" r=".557" cx="6.617"/>
 <circle cy="29.818" r=".557" cx="11.174"/>
 <circle cy="29.818" r=".557" cx="8.674"/>
 <circle cy="33.095" r=".557" cx="11.992"/>
 <circle cy="33.099" r=".557" cx="7.93"/>
 <circle cy="27.818" r=".557" cx="16.581"/>
 <circle cy="31.724" r=".557" cx="16.581"/>
 <circle cy="28.631" r=".557" cx="19.867"/>
 <circle cy="30.907" r=".557" cx="19.867"/>
 <circle cy="30.907" r=".557" cx="13.242"/>
 <circle cy="29.818" r=".557" cx="17.799"/>
 <circle cy="29.818" r=".557" cx="15.299"/>
 <circle cy="33.095" r=".557" cx="18.617"/>
 <circle cy="27.818" r=".557" cx="23.206"/>
 <circle cy="31.724" r=".557" cx="23.206"/>
 <circle cy="28.631" r=".557" cx="26.492"/>
 <circle cy="30.907" r=".557" cx="26.492"/>
 <circle cy="30.907" r=".557" cx="19.867"/>
 <circle cy="29.818" r=".557" cx="24.424"/>
 <circle cy="29.818" r=".557" cx="21.924"/>
 <circle cy="33.095" r=".557" cx="25.242"/>
 <circle cy="33.099" r=".557" cx="21.18"/>
 <circle cy="27.818" r=".557" cx="29.831"/>
 <circle cy="31.724" r=".557" cx="29.831"/>
 <circle cy="28.631" r=".557" cx="33.117"/>
 <circle cy="30.907" r=".557" cx="33.117"/>
 <circle cy="30.907" r=".557" cx="26.492"/>
 <circle cy="29.818" r=".557" cx="31.049"/>
 <circle cy="29.818" r=".557" cx="28.549"/>
 <circle cy="33.095" r=".557" cx="31.867"/>
 <circle cy="33.099" r=".557" cx="27.805"/>
 <circle cy="27.818" r=".557" cx="36.456"/>
 <circle cy="31.724" r=".557" cx="36.456"/>
 <path d="M39.74 28.07c-.3 0-.56.25-.56.56s.25.56.56.56M39.74 30.35c-.3 0-.56.25-.56.56s.25.56.56.56"/>
 <circle cy="30.907" r=".557" cx="33.117"/>
 <circle cy="29.818" r=".557" cx="37.674"/>
 <circle cy="29.818" r=".557" cx="35.174"/>
 <circle cy="33.095" r=".557" cx="38.492"/>
 <circle cy="33.099" r=".557" cx="34.43"/>
 <circle cy="34.443" r=".557" cx="3.331"/>
 <circle cy="38.349" r=".557" cx="3.331"/>
 <path d="M.02 35.8c.3 0 .56-.24.56-.54s-.25-.56-.56-.56"/>
 <circle cy="35.256" r=".557" cx="6.617"/>
 <circle cy="37.532" r=".557" cx="6.617"/>
 <path d="M0 38.1c.3 0 .55-.26.55-.57s-.25-.55-.56-.55"/>
 <circle cy="36.443" r=".557" cx="4.549"/>
 <circle cy="36.443" r=".557" cx="2.049"/>
 <path d="M5.92 39.72c0-.3-.25-.56-.55-.56-.3 0-.56.25-.56.56"/>
 <circle cy="33.157" r=".557" cx="1.305"/>
 <path d="M1.86 39.72c0-.3-.25-.55-.56-.55-.3 0-.55.25-.55.55"/>
 <circle cy="34.443" r=".557" cx="9.956"/>
 <circle cy="38.349" r=".557" cx="9.956"/>
 <circle cy="35.256" r=".557" cx="13.242"/>
 <circle cy="37.532" r=".557" cx="13.242"/>
 <circle cy="37.532" r=".557" cx="6.617"/>
 <circle cy="36.443" r=".557" cx="11.174"/>
 <circle cy="36.443" r=".557" cx="8.674"/>
 <path d="M12.55 39.72c0-.3-.25-.56-.56-.56-.32 0-.57.25-.57.56M8.5 39.72c0-.3-.26-.55-.57-.55-.3 0-.56.25-.56.55"/>
 <circle cy="34.443" r=".557" cx="16.581"/>
 <circle cy="38.349" r=".557" cx="16.581"/>
 <circle cy="35.256" r=".557" cx="19.867"/>
 <circle cy="37.532" r=".557" cx="19.867"/>
 <circle cy="37.532" r=".557" cx="13.242"/>
 <circle cy="36.443" r=".557" cx="17.799"/>
 <circle cy="36.443" r=".557" cx="15.299"/>
 <path d="M19.17 39.72c0-.3-.25-.56-.55-.56-.3 0-.56.25-.56.56"/>
 <circle cy="33.157" r=".557" cx="14.555"/>
 <path d="M15.1 39.72c0-.3-.24-.55-.55-.55-.3 0-.55.25-.55.55"/>
 <circle cy="34.443" r=".557" cx="23.206"/>
 <circle cy="38.349" r=".557" cx="23.206"/>
 <circle cy="35.256" r=".557" cx="26.492"/>
 <circle cy="37.532" r=".557" cx="26.492"/>
 <circle cy="37.532" r=".557" cx="19.867"/>
 <circle cy="36.443" r=".557" cx="24.424"/>
 <circle cy="36.443" r=".557" cx="21.924"/>
 <path d="M25.8 39.72c0-.3-.25-.56-.56-.56-.3 0-.56.25-.56.56M21.74 39.72c0-.3-.25-.55-.56-.55-.3 0-.56.25-.56.55"/>
 <circle cy="34.443" r=".557" cx="29.831"/>
 <circle cy="38.349" r=".557" cx="29.831"/>
 <circle cy="35.256" r=".557" cx="33.117"/>
 <circle cy="37.532" r=".557" cx="33.117"/>
 <circle cy="37.532" r=".557" cx="26.492"/>
 <circle cy="36.443" r=".557" cx="31.049"/>
 <circle cy="36.443" r=".557" cx="28.549"/>
 <path d="M32.42 39.72c0-.3-.25-.56-.55-.56-.3 0-.56.25-.56.56M28.36 39.72c0-.3-.25-.55-.56-.55-.3 0-.55.25-.55.55"/>
 <circle cy="34.443" r=".557" cx="36.456"/>
 <circle cy="38.349" r=".557" cx="36.456"/>
 <path d="M39.74 34.7c-.3 0-.56.25-.56.56s.25.55.56.55M39.74 36.98c-.3 0-.56.25-.56.55s.25.56.56.56"/>
 <circle cy="37.532" r=".557" cx="33.117"/>
 <circle cy="36.443" r=".557" cx="37.674"/>
 <circle cy="36.443" r=".557" cx="35.174"/>
 <path d="M39.05 39.72c0-.3-.25-.56-.56-.56-.32 0-.57.25-.57.56M35 39.72c0-.3-.26-.55-.57-.55-.3 0-.56.25-.56.55"/>
</svg>
