<?xml version="1.0"?>
<!-- Converted with SVG Converter - Version 0.9.5 (Compiled Fri Feb 21 09:53:38 2020) - Copyright (C) 2011 Nokia -->
<svg xmlns="http://www.w3.org/2000/svg" viewBox="0 -71.714 71.714 71.714" xmlns:xlink="http://www.w3.org/1999/xlink" x="0px" version="1.1" baseProfile="tiny" height="71.714" y="0px" xml:space="preserve" width="71.714">
 <g>
  <rect x="0" height="71.714" style="fill:none;" y="-71.714" width="71.714"/>
  <line y2="0" y1="-71.714" style="fill-rule:evenodd;clip-rule:evenodd;fill:none;stroke:#EC008C;stroke-width:0.43;" x2="0.979" x1="0.979"/>
  <line y2="0" y1="-71.714" style="fill-rule:evenodd;clip-rule:evenodd;fill:none;stroke:#EC008C;stroke-width:0.43;" x2="2.917" x1="2.917"/>
  <line y2="0" y1="-71.714" style="fill-rule:evenodd;clip-rule:evenodd;fill:none;stroke:#EC008C;stroke-width:0.43;" x2="4.854" x1="4.854"/>
  <line y2="0" y1="-71.714" style="fill-rule:evenodd;clip-rule:evenodd;fill:none;stroke:#EC008C;stroke-width:0.43;" x2="6.792" x1="6.792"/>
  <line y2="0" y1="-71.714" style="fill-rule:evenodd;clip-rule:evenodd;fill:none;stroke:#EC008C;stroke-width:0.43;" x2="8.729" x1="8.729"/>
  <line y2="0" y1="-71.714" style="fill-rule:evenodd;clip-rule:evenodd;fill:none;stroke:#EC008C;stroke-width:0.43;" x2="10.667" x1="10.667"/>
  <line y2="0" y1="-71.714" style="fill-rule:evenodd;clip-rule:evenodd;fill:none;stroke:#EC008C;stroke-width:0.43;" x2="12.604" x1="12.604"/>
  <line y2="0" y1="-71.714" style="fill-rule:evenodd;clip-rule:evenodd;fill:none;stroke:#EC008C;stroke-width:0.43;" x2="14.542" x1="14.542"/>
  <line y2="0" y1="-71.714" style="fill-rule:evenodd;clip-rule:evenodd;fill:none;stroke:#EC008C;stroke-width:0.43;" x2="16.479" x1="16.479"/>
  <line y2="0" y1="-71.714" style="fill-rule:evenodd;clip-rule:evenodd;fill:none;stroke:#EC008C;stroke-width:0.43;" x2="18.417" x1="18.417"/>
  <line y2="0" y1="-71.714" style="fill-rule:evenodd;clip-rule:evenodd;fill:none;stroke:#EC008C;stroke-width:0.43;" x2="20.354" x1="20.354"/>
  <line y2="0" y1="-71.714" style="fill-rule:evenodd;clip-rule:evenodd;fill:none;stroke:#EC008C;stroke-width:0.43;" x2="22.292" x1="22.292"/>
  <line y2="0" y1="-71.714" style="fill-rule:evenodd;clip-rule:evenodd;fill:none;stroke:#EC008C;stroke-width:0.43;" x2="24.229" x1="24.229"/>
  <line y2="0" y1="-71.714" style="fill-rule:evenodd;clip-rule:evenodd;fill:none;stroke:#EC008C;stroke-width:0.43;" x2="26.167" x1="26.167"/>
  <line y2="0" y1="-71.714" style="fill-rule:evenodd;clip-rule:evenodd;fill:none;stroke:#EC008C;stroke-width:0.43;" x2="28.104" x1="28.104"/>
  <line y2="0" y1="-71.714" style="fill-rule:evenodd;clip-rule:evenodd;fill:none;stroke:#EC008C;stroke-width:0.43;" x2="30.042" x1="30.042"/>
  <line y2="0" y1="-71.714" style="fill-rule:evenodd;clip-rule:evenodd;fill:none;stroke:#EC008C;stroke-width:0.43;" x2="31.979" x1="31.979"/>
  <line y2="0" y1="-71.714" style="fill-rule:evenodd;clip-rule:evenodd;fill:none;stroke:#EC008C;stroke-width:0.43;" x2="33.917" x1="33.917"/>
  <line y2="0" y1="-71.714" style="fill-rule:evenodd;clip-rule:evenodd;fill:none;stroke:#EC008C;stroke-width:0.43;" x2="35.854" x1="35.854"/>
  <line y2="0" y1="-71.714" style="fill-rule:evenodd;clip-rule:evenodd;fill:none;stroke:#EC008C;stroke-width:0.43;" x2="37.792" x1="37.792"/>
  <line y2="0" y1="-71.714" style="fill-rule:evenodd;clip-rule:evenodd;fill:none;stroke:#EC008C;stroke-width:0.43;" x2="39.729" x1="39.729"/>
  <line y2="0" y1="-71.714" style="fill-rule:evenodd;clip-rule:evenodd;fill:none;stroke:#EC008C;stroke-width:0.43;" x2="41.667" x1="41.667"/>
  <line y2="0" y1="-71.714" style="fill-rule:evenodd;clip-rule:evenodd;fill:none;stroke:#EC008C;stroke-width:0.43;" x2="43.604" x1="43.604"/>
  <line y2="0" y1="-71.714" style="fill-rule:evenodd;clip-rule:evenodd;fill:none;stroke:#EC008C;stroke-width:0.43;" x2="45.542" x1="45.542"/>
  <line y2="0" y1="-71.714" style="fill-rule:evenodd;clip-rule:evenodd;fill:none;stroke:#EC008C;stroke-width:0.43;" x2="47.479" x1="47.479"/>
  <line y2="0" y1="-71.714" style="fill-rule:evenodd;clip-rule:evenodd;fill:none;stroke:#EC008C;stroke-width:0.43;" x2="49.417" x1="49.417"/>
  <line y2="0" y1="-71.714" style="fill-rule:evenodd;clip-rule:evenodd;fill:none;stroke:#EC008C;stroke-width:0.43;" x2="51.354" x1="51.354"/>
  <line y2="0" y1="-71.714" style="fill-rule:evenodd;clip-rule:evenodd;fill:none;stroke:#EC008C;stroke-width:0.43;" x2="53.292" x1="53.292"/>
  <line y2="0" y1="-71.714" style="fill-rule:evenodd;clip-rule:evenodd;fill:none;stroke:#EC008C;stroke-width:0.43;" x2="55.229" x1="55.229"/>
  <line y2="0" y1="-71.714" style="fill-rule:evenodd;clip-rule:evenodd;fill:none;stroke:#EC008C;stroke-width:0.43;" x2="57.167" x1="57.167"/>
  <line y2="0" y1="-71.714" style="fill-rule:evenodd;clip-rule:evenodd;fill:none;stroke:#EC008C;stroke-width:0.43;" x2="59.104" x1="59.104"/>
  <line y2="0" y1="-71.714" style="fill-rule:evenodd;clip-rule:evenodd;fill:none;stroke:#EC008C;stroke-width:0.43;" x2="61.042" x1="61.042"/>
  <line y2="0" y1="-71.714" style="fill-rule:evenodd;clip-rule:evenodd;fill:none;stroke:#EC008C;stroke-width:0.43;" x2="62.979" x1="62.979"/>
  <line y2="0" y1="-71.714" style="fill-rule:evenodd;clip-rule:evenodd;fill:none;stroke:#EC008C;stroke-width:0.43;" x2="64.916" x1="64.916"/>
  <line y2="0" y1="-71.714" style="fill-rule:evenodd;clip-rule:evenodd;fill:none;stroke:#EC008C;stroke-width:0.43;" x2="66.854" x1="66.854"/>
  <line y2="0" y1="-71.714" style="fill-rule:evenodd;clip-rule:evenodd;fill:none;stroke:#EC008C;stroke-width:0.43;" x2="68.791" x1="68.791"/>
  <line y2="0" y1="-71.714" style="fill-rule:evenodd;clip-rule:evenodd;fill:none;stroke:#EC008C;stroke-width:0.43;" x2="70.729" x1="70.729"/>
 </g>
</svg>
