<?xml version="1.0"?>
<!-- Converted with SVG Converter - Version 0.9.5 (Compiled Fri Feb 21 09:53:38 2020) - Copyright (C) 2011 Nokia -->
<svg xmlns="http://www.w3.org/2000/svg" viewBox="1 -74.517 72.857 72.857" y="0px" x="0px" version="1.1" width="72.857" height="72.857" xmlns:xlink="http://www.w3.org/1999/xlink" xml:space="preserve" baseProfile="tiny">
 <g>
  <rect y="-74.517" x="1" width="72.857" height="72.857" style="fill:none;"/>
  <line y1="-74.517" x2="1.794" style="fill-rule:evenodd;clip-rule:evenodd;fill:none;stroke:#000000;stroke-width:0.33;" y2="-1.66" x1="1.794"/>
  <line y1="-74.517" x2="3.378" style="fill-rule:evenodd;clip-rule:evenodd;fill:none;stroke:#000000;stroke-width:0.33;" y2="-1.66" x1="3.378"/>
  <line y1="-74.517" x2="4.961" style="fill-rule:evenodd;clip-rule:evenodd;fill:none;stroke:#000000;stroke-width:0.33;" y2="-1.66" x1="4.961"/>
  <line y1="-74.517" x2="6.544" style="fill-rule:evenodd;clip-rule:evenodd;fill:none;stroke:#000000;stroke-width:0.33;" y2="-1.66" x1="6.544"/>
  <line y1="-74.517" x2="8.127" style="fill-rule:evenodd;clip-rule:evenodd;fill:none;stroke:#000000;stroke-width:0.33;" y2="-1.66" x1="8.127"/>
  <line y1="-74.517" x2="9.71" style="fill-rule:evenodd;clip-rule:evenodd;fill:none;stroke:#000000;stroke-width:0.33;" y2="-1.66" x1="9.71"/>
  <line y1="-74.517" x2="11.293" style="fill-rule:evenodd;clip-rule:evenodd;fill:none;stroke:#000000;stroke-width:0.33;" y2="-1.66" x1="11.293"/>
  <line y1="-74.517" x2="12.877" style="fill-rule:evenodd;clip-rule:evenodd;fill:none;stroke:#000000;stroke-width:0.33;" y2="-1.66" x1="12.877"/>
  <line y1="-74.517" x2="14.46" style="fill-rule:evenodd;clip-rule:evenodd;fill:none;stroke:#000000;stroke-width:0.33;" y2="-1.66" x1="14.46"/>
  <line y1="-74.517" x2="16.043" style="fill-rule:evenodd;clip-rule:evenodd;fill:none;stroke:#000000;stroke-width:0.33;" y2="-1.66" x1="16.043"/>
  <line y1="-74.517" x2="17.626" style="fill-rule:evenodd;clip-rule:evenodd;fill:none;stroke:#000000;stroke-width:0.33;" y2="-1.66" x1="17.626"/>
  <line y1="-74.517" x2="19.209" style="fill-rule:evenodd;clip-rule:evenodd;fill:none;stroke:#000000;stroke-width:0.33;" y2="-1.66" x1="19.209"/>
  <line y1="-74.517" x2="20.792" style="fill-rule:evenodd;clip-rule:evenodd;fill:none;stroke:#000000;stroke-width:0.33;" y2="-1.66" x1="20.792"/>
  <line y1="-74.517" x2="22.375" style="fill-rule:evenodd;clip-rule:evenodd;fill:none;stroke:#000000;stroke-width:0.33;" y2="-1.66" x1="22.375"/>
  <line y1="-74.517" x2="23.958" style="fill-rule:evenodd;clip-rule:evenodd;fill:none;stroke:#000000;stroke-width:0.33;" y2="-1.66" x1="23.958"/>
  <line y1="-74.517" x2="25.542" style="fill-rule:evenodd;clip-rule:evenodd;fill:none;stroke:#000000;stroke-width:0.33;" y2="-1.66" x1="25.542"/>
  <line y1="-74.517" x2="27.125" style="fill-rule:evenodd;clip-rule:evenodd;fill:none;stroke:#000000;stroke-width:0.33;" y2="-1.66" x1="27.125"/>
  <line y1="-74.517" x2="28.708" style="fill-rule:evenodd;clip-rule:evenodd;fill:none;stroke:#000000;stroke-width:0.33;" y2="-1.66" x1="28.708"/>
  <line y1="-74.517" x2="30.291" style="fill-rule:evenodd;clip-rule:evenodd;fill:none;stroke:#000000;stroke-width:0.33;" y2="-1.66" x1="30.291"/>
  <line y1="-74.517" x2="31.874" style="fill-rule:evenodd;clip-rule:evenodd;fill:none;stroke:#000000;stroke-width:0.33;" y2="-1.66" x1="31.874"/>
  <line y1="-74.517" x2="33.457" style="fill-rule:evenodd;clip-rule:evenodd;fill:none;stroke:#000000;stroke-width:0.33;" y2="-1.66" x1="33.457"/>
  <line y1="-74.517" x2="35.041" style="fill-rule:evenodd;clip-rule:evenodd;fill:none;stroke:#000000;stroke-width:0.33;" y2="-1.66" x1="35.041"/>
  <line y1="-74.517" x2="36.624" style="fill-rule:evenodd;clip-rule:evenodd;fill:none;stroke:#000000;stroke-width:0.33;" y2="-1.66" x1="36.624"/>
  <line y1="-74.517" x2="38.207" style="fill-rule:evenodd;clip-rule:evenodd;fill:none;stroke:#000000;stroke-width:0.33;" y2="-1.66" x1="38.207"/>
  <line y1="-74.517" x2="39.79" style="fill-rule:evenodd;clip-rule:evenodd;fill:none;stroke:#000000;stroke-width:0.33;" y2="-1.66" x1="39.79"/>
  <line y1="-74.517" x2="41.373" style="fill-rule:evenodd;clip-rule:evenodd;fill:none;stroke:#000000;stroke-width:0.33;" y2="-1.66" x1="41.373"/>
  <line y1="-74.517" x2="42.956" style="fill-rule:evenodd;clip-rule:evenodd;fill:none;stroke:#000000;stroke-width:0.33;" y2="-1.66" x1="42.956"/>
  <line y1="-74.517" x2="44.539" style="fill-rule:evenodd;clip-rule:evenodd;fill:none;stroke:#000000;stroke-width:0.33;" y2="-1.66" x1="44.539"/>
  <line y1="-74.517" x2="46.122" style="fill-rule:evenodd;clip-rule:evenodd;fill:none;stroke:#000000;stroke-width:0.33;" y2="-1.66" x1="46.122"/>
  <line y1="-74.517" x2="47.706" style="fill-rule:evenodd;clip-rule:evenodd;fill:none;stroke:#000000;stroke-width:0.33;" y2="-1.66" x1="47.706"/>
  <line y1="-74.517" x2="49.289" style="fill-rule:evenodd;clip-rule:evenodd;fill:none;stroke:#000000;stroke-width:0.33;" y2="-1.66" x1="49.289"/>
  <line y1="-74.517" x2="50.872" style="fill-rule:evenodd;clip-rule:evenodd;fill:none;stroke:#000000;stroke-width:0.33;" y2="-1.66" x1="50.872"/>
  <line y1="-74.517" x2="52.455" style="fill-rule:evenodd;clip-rule:evenodd;fill:none;stroke:#000000;stroke-width:0.33;" y2="-1.66" x1="52.455"/>
  <line y1="-74.517" x2="54.038" style="fill-rule:evenodd;clip-rule:evenodd;fill:none;stroke:#000000;stroke-width:0.33;" y2="-1.66" x1="54.038"/>
  <line y1="-74.517" x2="55.621" style="fill-rule:evenodd;clip-rule:evenodd;fill:none;stroke:#000000;stroke-width:0.33;" y2="-1.66" x1="55.621"/>
  <line y1="-74.517" x2="57.204" style="fill-rule:evenodd;clip-rule:evenodd;fill:none;stroke:#000000;stroke-width:0.33;" y2="-1.66" x1="57.204"/>
  <line y1="-74.517" x2="58.787" style="fill-rule:evenodd;clip-rule:evenodd;fill:none;stroke:#000000;stroke-width:0.33;" y2="-1.66" x1="58.787"/>
  <line y1="-74.517" x2="60.371" style="fill-rule:evenodd;clip-rule:evenodd;fill:none;stroke:#000000;stroke-width:0.33;" y2="-1.66" x1="60.371"/>
  <line y1="-74.517" x2="61.954" style="fill-rule:evenodd;clip-rule:evenodd;fill:none;stroke:#000000;stroke-width:0.33;" y2="-1.66" x1="61.954"/>
  <line y1="-74.517" x2="63.537" style="fill-rule:evenodd;clip-rule:evenodd;fill:none;stroke:#000000;stroke-width:0.33;" y2="-1.66" x1="63.537"/>
  <line y1="-74.517" x2="65.12" style="fill-rule:evenodd;clip-rule:evenodd;fill:none;stroke:#000000;stroke-width:0.33;" y2="-1.66" x1="65.12"/>
  <line y1="-74.517" x2="66.703" style="fill-rule:evenodd;clip-rule:evenodd;fill:none;stroke:#000000;stroke-width:0.33;" y2="-1.66" x1="66.703"/>
  <line y1="-74.517" x2="68.286" style="fill:none;stroke:#000000;stroke-width:0.33;" y2="-1.66" x1="68.286"/>
  <line y1="-74.517" x2="69.869" style="fill-rule:evenodd;clip-rule:evenodd;fill:none;stroke:#000000;stroke-width:0.33;" y2="-1.66" x1="69.869"/>
  <line y1="-74.517" x2="71.452" style="fill-rule:evenodd;clip-rule:evenodd;fill:none;stroke:#000000;stroke-width:0.33;" y2="-1.66" x1="71.452"/>
  <line y1="-74.517" x2="73.045" style="fill-rule:evenodd;clip-rule:evenodd;fill:none;stroke:#000000;stroke-width:0.33;" y2="-1.66" x1="73.045"/>
 </g>
</svg>
