<?xml version="1.0"?>
<!-- Converted with SVG Converter - Version 0.9.5 (Compiled Fri Feb 21 09:53:38 2020) - Copyright (C) 2011 Nokia -->
<svg xmlns="http://www.w3.org/2000/svg" x="0px" y="0px" baseProfile="tiny" xmlns:xlink="http://www.w3.org/1999/xlink" width="79.25" version="1.1" xml:space="preserve" height="79.25" viewBox="1.85 -81.85 79.25 79.25">
 <g>
  <rect x="1.85" y="-81.85" width="79.25" height="79.25" style="fill:none;"/>
  <line x2="16.975" y1="-15.738" y2="-17.522" x1="16.102" style="fill-rule:evenodd;clip-rule:evenodd;fill:none;stroke:#000000;stroke-width:0.8;"/>
  <line x2="11.858" y1="-14.399" y2="-14.588" x1="9.88" style="fill-rule:evenodd;clip-rule:evenodd;fill:none;stroke:#000000;stroke-width:0.8;"/>
  <line x2="6.619" y1="-14.793" y2="-16.217" x1="5.234" style="fill-rule:evenodd;clip-rule:evenodd;fill:none;stroke:#000000;stroke-width:0.8;"/>
  <line x2="14.408" y1="-11.571" y2="-9.635" x1="14.852" style="fill-rule:evenodd;clip-rule:evenodd;fill:none;stroke:#000000;stroke-width:0.8;"/>
  <line x2="7.764" y1="-10.659" y2="-11.17" x1="9.684" style="fill-rule:evenodd;clip-rule:evenodd;fill:none;stroke:#000000;stroke-width:0.8;"/>
  <line x2="2.6" y1="-12.273" y2="-14.115" x1="3.344" style="fill-rule:evenodd;clip-rule:evenodd;fill:none;stroke:#000000;stroke-width:0.8;"/>
  <line x2="3.513" y1="-8.808" y2="-7.968" x1="5.313" style="fill-rule:evenodd;clip-rule:evenodd;fill:none;stroke:#000000;stroke-width:0.8;"/>
  <line x2="9.286" y1="-6.643" y2="-5.61" x1="10.983" style="fill-rule:evenodd;clip-rule:evenodd;fill:none;stroke:#000000;stroke-width:0.8;"/>
  <line x2="14.917" y1="-5.226" y2="-6.201" x1="16.647" style="fill-rule:evenodd;clip-rule:evenodd;fill:none;stroke:#000000;stroke-width:0.8;"/>
  <line x2="12.448" y1="-3.572" y2="-2.6" x1="12.631" style="fill-rule:evenodd;clip-rule:evenodd;fill:none;stroke:#000000;stroke-width:0.8;"/>
  <line x2="4.521" y1="-3.749" y2="-5.488" x1="5.479" style="fill-rule:evenodd;clip-rule:evenodd;fill:none;stroke:#000000;stroke-width:0.8;"/>
  <line x2="12.252" y1="-18.849" y2="-17.451" x1="12.519" style="fill-rule:evenodd;clip-rule:evenodd;fill:none;stroke:#000000;stroke-width:0.8;"/>
  <line x2="32.814" y1="-15.738" y2="-17.522" x1="31.94" style="fill-rule:evenodd;clip-rule:evenodd;fill:none;stroke:#000000;stroke-width:0.8;"/>
  <line x2="27.697" y1="-14.399" y2="-14.588" x1="25.719" style="fill-rule:evenodd;clip-rule:evenodd;fill:none;stroke:#000000;stroke-width:0.8;"/>
  <line x2="22.458" y1="-14.793" y2="-16.217" x1="21.073" style="fill-rule:evenodd;clip-rule:evenodd;fill:none;stroke:#000000;stroke-width:0.8;"/>
  <line x2="30.248" y1="-11.571" y2="-9.635" x1="30.691" style="fill-rule:evenodd;clip-rule:evenodd;fill:none;stroke:#000000;stroke-width:0.8;"/>
  <line x2="23.604" y1="-10.659" y2="-11.17" x1="25.522" style="fill-rule:evenodd;clip-rule:evenodd;fill:none;stroke:#000000;stroke-width:0.8;"/>
  <line x2="18.439" y1="-12.273" y2="-14.115" x1="19.183" style="fill-rule:evenodd;clip-rule:evenodd;fill:none;stroke:#000000;stroke-width:0.8;"/>
  <line x2="19.352" y1="-8.808" y2="-7.968" x1="21.152" style="fill-rule:evenodd;clip-rule:evenodd;fill:none;stroke:#000000;stroke-width:0.8;"/>
  <line x2="25.125" y1="-6.643" y2="-5.61" x1="26.822" style="fill-rule:evenodd;clip-rule:evenodd;fill:none;stroke:#000000;stroke-width:0.8;"/>
  <line x2="30.756" y1="-5.226" y2="-6.201" x1="32.486" style="fill-rule:evenodd;clip-rule:evenodd;fill:none;stroke:#000000;stroke-width:0.8;"/>
  <line x2="28.358" y1="-3.572" y2="-2.6" x1="28.542" style="fill-rule:evenodd;clip-rule:evenodd;fill:none;stroke:#000000;stroke-width:0.8;"/>
  <line x2="20.36" y1="-3.749" y2="-5.488" x1="21.319" style="fill-rule:evenodd;clip-rule:evenodd;fill:none;stroke:#000000;stroke-width:0.8;"/>
  <line x2="28.091" y1="-18.849" y2="-17.451" x1="28.357" style="fill-rule:evenodd;clip-rule:evenodd;fill:none;stroke:#000000;stroke-width:0.8;"/>
  <line x2="48.653" y1="-15.738" y2="-17.522" x1="47.779" style="fill-rule:evenodd;clip-rule:evenodd;fill:none;stroke:#000000;stroke-width:0.8;"/>
  <line x2="43.536" y1="-14.399" y2="-14.588" x1="41.558" style="fill-rule:evenodd;clip-rule:evenodd;fill:none;stroke:#000000;stroke-width:0.8;"/>
  <line x2="38.297" y1="-14.793" y2="-16.217" x1="36.912" style="fill-rule:evenodd;clip-rule:evenodd;fill:none;stroke:#000000;stroke-width:0.8;"/>
  <line x2="46.086" y1="-11.571" y2="-9.635" x1="46.53" style="fill-rule:evenodd;clip-rule:evenodd;fill:none;stroke:#000000;stroke-width:0.8;"/>
  <line x2="39.442" y1="-10.659" y2="-11.17" x1="41.361" style="fill-rule:evenodd;clip-rule:evenodd;fill:none;stroke:#000000;stroke-width:0.8;"/>
  <line x2="34.278" y1="-12.273" y2="-14.115" x1="35.022" style="fill-rule:evenodd;clip-rule:evenodd;fill:none;stroke:#000000;stroke-width:0.8;"/>
  <line x2="35.191" y1="-8.808" y2="-7.968" x1="36.991" style="fill-rule:evenodd;clip-rule:evenodd;fill:none;stroke:#000000;stroke-width:0.8;"/>
  <line x2="40.964" y1="-6.643" y2="-5.61" x1="42.661" style="fill-rule:evenodd;clip-rule:evenodd;fill:none;stroke:#000000;stroke-width:0.8;"/>
  <line x2="46.595" y1="-5.226" y2="-6.201" x1="48.325" style="fill-rule:evenodd;clip-rule:evenodd;fill:none;stroke:#000000;stroke-width:0.8;"/>
  <line x2="44.125" y1="-3.572" y2="-2.6" x1="44.309" style="fill-rule:evenodd;clip-rule:evenodd;fill:none;stroke:#000000;stroke-width:0.8;"/>
  <line x2="36.199" y1="-3.749" y2="-5.488" x1="37.158" style="fill-rule:evenodd;clip-rule:evenodd;fill:none;stroke:#000000;stroke-width:0.8;"/>
  <line x2="43.93" y1="-18.849" y2="-17.451" x1="44.196" style="fill-rule:evenodd;clip-rule:evenodd;fill:none;stroke:#000000;stroke-width:0.8;"/>
  <line x2="64.492" y1="-15.738" y2="-17.522" x1="63.619" style="fill-rule:evenodd;clip-rule:evenodd;fill:none;stroke:#000000;stroke-width:0.8;"/>
  <line x2="59.375" y1="-14.399" y2="-14.588" x1="57.397" style="fill-rule:evenodd;clip-rule:evenodd;fill:none;stroke:#000000;stroke-width:0.8;"/>
  <line x2="54.136" y1="-14.793" y2="-16.217" x1="52.751" style="fill-rule:evenodd;clip-rule:evenodd;fill:none;stroke:#000000;stroke-width:0.8;"/>
  <line x2="61.925" y1="-11.571" y2="-9.635" x1="62.369" style="fill-rule:evenodd;clip-rule:evenodd;fill:none;stroke:#000000;stroke-width:0.8;"/>
  <line x2="55.281" y1="-10.659" y2="-11.17" x1="57.2" style="fill-rule:evenodd;clip-rule:evenodd;fill:none;stroke:#000000;stroke-width:0.8;"/>
  <line x2="50.117" y1="-12.273" y2="-14.115" x1="50.861" style="fill-rule:evenodd;clip-rule:evenodd;fill:none;stroke:#000000;stroke-width:0.8;"/>
  <line x2="51.03" y1="-8.808" y2="-7.968" x1="52.83" style="fill-rule:evenodd;clip-rule:evenodd;fill:none;stroke:#000000;stroke-width:0.8;"/>
  <line x2="56.803" y1="-6.643" y2="-5.61" x1="58.5" style="fill-rule:evenodd;clip-rule:evenodd;fill:none;stroke:#000000;stroke-width:0.8;"/>
  <line x2="62.434" y1="-5.226" y2="-6.201" x1="64.165" style="fill-rule:evenodd;clip-rule:evenodd;fill:none;stroke:#000000;stroke-width:0.8;"/>
  <line x2="59.964" y1="-3.572" y2="-2.6" x1="60.148" style="fill-rule:evenodd;clip-rule:evenodd;fill:none;stroke:#000000;stroke-width:0.8;"/>
  <line x2="52.038" y1="-3.749" y2="-5.488" x1="52.997" style="fill-rule:evenodd;clip-rule:evenodd;fill:none;stroke:#000000;stroke-width:0.8;"/>
  <line x2="59.769" y1="-18.849" y2="-17.451" x1="60.036" style="fill-rule:evenodd;clip-rule:evenodd;fill:none;stroke:#000000;stroke-width:0.8;"/>
  <line x2="80.331" y1="-15.738" y2="-17.522" x1="79.457" style="fill-rule:evenodd;clip-rule:evenodd;fill:none;stroke:#000000;stroke-width:0.8;"/>
  <line x2="75.214" y1="-14.399" y2="-14.588" x1="73.236" style="fill-rule:evenodd;clip-rule:evenodd;fill:none;stroke:#000000;stroke-width:0.8;"/>
  <line x2="69.975" y1="-14.793" y2="-16.217" x1="68.59" style="fill-rule:evenodd;clip-rule:evenodd;fill:none;stroke:#000000;stroke-width:0.8;"/>
  <line x2="77.764" y1="-11.571" y2="-9.635" x1="78.208" style="fill-rule:evenodd;clip-rule:evenodd;fill:none;stroke:#000000;stroke-width:0.8;"/>
  <line x2="71.12" y1="-10.659" y2="-11.17" x1="73.04" style="fill-rule:evenodd;clip-rule:evenodd;fill:none;stroke:#000000;stroke-width:0.8;"/>
  <line x2="65.956" y1="-12.273" y2="-14.115" x1="66.7" style="fill-rule:evenodd;clip-rule:evenodd;fill:none;stroke:#000000;stroke-width:0.8;"/>
  <line x2="66.869" y1="-8.808" y2="-7.968" x1="68.669" style="fill-rule:evenodd;clip-rule:evenodd;fill:none;stroke:#000000;stroke-width:0.8;"/>
  <line x2="72.642" y1="-6.643" y2="-5.61" x1="74.339" style="fill-rule:evenodd;clip-rule:evenodd;fill:none;stroke:#000000;stroke-width:0.8;"/>
  <line x2="78.273" y1="-5.226" y2="-6.201" x1="80.003" style="fill-rule:evenodd;clip-rule:evenodd;fill:none;stroke:#000000;stroke-width:0.8;"/>
  <line x2="75.804" y1="-3.572" y2="-2.6" x1="75.987" style="fill-rule:evenodd;clip-rule:evenodd;fill:none;stroke:#000000;stroke-width:0.8;"/>
  <line x2="67.877" y1="-3.749" y2="-5.488" x1="68.835" style="fill-rule:evenodd;clip-rule:evenodd;fill:none;stroke:#000000;stroke-width:0.8;"/>
  <line x2="75.608" y1="-18.849" y2="-17.451" x1="75.874" style="fill-rule:evenodd;clip-rule:evenodd;fill:none;stroke:#000000;stroke-width:0.8;"/>
  <line x2="16.975" y1="-31.577" y2="-33.361" x1="16.102" style="fill-rule:evenodd;clip-rule:evenodd;fill:none;stroke:#000000;stroke-width:0.8;"/>
  <line x2="11.858" y1="-30.238" y2="-30.427" x1="9.88" style="fill-rule:evenodd;clip-rule:evenodd;fill:none;stroke:#000000;stroke-width:0.8;"/>
  <line x2="6.619" y1="-30.632" y2="-32.057" x1="5.234" style="fill-rule:evenodd;clip-rule:evenodd;fill:none;stroke:#000000;stroke-width:0.8;"/>
  <line x2="14.852" y1="-25.474" y2="-27.41" x1="14.408" style="fill-rule:evenodd;clip-rule:evenodd;fill:none;stroke:#000000;stroke-width:0.8;"/>
  <line x2="7.764" y1="-26.498" y2="-27.01" x1="9.684" style="fill-rule:evenodd;clip-rule:evenodd;fill:none;stroke:#000000;stroke-width:0.8;"/>
  <line x2="2.6" y1="-28.112" y2="-29.954" x1="3.344" style="fill-rule:evenodd;clip-rule:evenodd;fill:none;stroke:#000000;stroke-width:0.8;"/>
  <line x2="3.513" y1="-24.647" y2="-23.807" x1="5.313" style="fill-rule:evenodd;clip-rule:evenodd;fill:none;stroke:#000000;stroke-width:0.8;"/>
  <line x2="9.286" y1="-22.481" y2="-21.449" x1="10.983" style="fill-rule:evenodd;clip-rule:evenodd;fill:none;stroke:#000000;stroke-width:0.8;"/>
  <line x2="14.917" y1="-21.065" y2="-22.04" x1="16.647" style="fill-rule:evenodd;clip-rule:evenodd;fill:none;stroke:#000000;stroke-width:0.8;"/>
  <line x2="12.631" y1="-18.19" y2="-19.411" x1="12.4" style="fill-rule:evenodd;clip-rule:evenodd;fill:none;stroke:#000000;stroke-width:0.8;"/>
  <line x2="5.479" y1="-21.327" y2="-19.587" x1="4.521" style="fill-rule:evenodd;clip-rule:evenodd;fill:none;stroke:#000000;stroke-width:0.8;"/>
  <line x2="12.252" y1="-34.688" y2="-33.29" x1="12.519" style="fill-rule:evenodd;clip-rule:evenodd;fill:none;stroke:#000000;stroke-width:0.8;"/>
  <line x2="32.814" y1="-31.577" y2="-33.361" x1="31.94" style="fill-rule:evenodd;clip-rule:evenodd;fill:none;stroke:#000000;stroke-width:0.8;"/>
  <line x2="27.697" y1="-30.238" y2="-30.427" x1="25.719" style="fill-rule:evenodd;clip-rule:evenodd;fill:none;stroke:#000000;stroke-width:0.8;"/>
  <line x2="22.458" y1="-30.632" y2="-32.057" x1="21.073" style="fill-rule:evenodd;clip-rule:evenodd;fill:none;stroke:#000000;stroke-width:0.8;"/>
  <line x2="30.691" y1="-25.474" y2="-27.41" x1="30.248" style="fill-rule:evenodd;clip-rule:evenodd;fill:none;stroke:#000000;stroke-width:0.8;"/>
  <line x2="23.604" y1="-26.498" y2="-27.01" x1="25.522" style="fill-rule:evenodd;clip-rule:evenodd;fill:none;stroke:#000000;stroke-width:0.8;"/>
  <line x2="18.439" y1="-28.112" y2="-29.954" x1="19.183" style="fill-rule:evenodd;clip-rule:evenodd;fill:none;stroke:#000000;stroke-width:0.8;"/>
  <line x2="19.352" y1="-24.647" y2="-23.807" x1="21.152" style="fill-rule:evenodd;clip-rule:evenodd;fill:none;stroke:#000000;stroke-width:0.8;"/>
  <line x2="25.125" y1="-22.481" y2="-21.449" x1="26.822" style="fill-rule:evenodd;clip-rule:evenodd;fill:none;stroke:#000000;stroke-width:0.8;"/>
  <line x2="30.756" y1="-21.065" y2="-22.04" x1="32.486" style="fill-rule:evenodd;clip-rule:evenodd;fill:none;stroke:#000000;stroke-width:0.8;"/>
  <line x2="28.47" y1="-18.19" y2="-19.411" x1="28.24" style="fill-rule:evenodd;clip-rule:evenodd;fill:none;stroke:#000000;stroke-width:0.8;"/>
  <line x2="21.319" y1="-21.327" y2="-19.587" x1="20.36" style="fill-rule:evenodd;clip-rule:evenodd;fill:none;stroke:#000000;stroke-width:0.8;"/>
  <line x2="28.091" y1="-34.688" y2="-33.29" x1="28.357" style="fill-rule:evenodd;clip-rule:evenodd;fill:none;stroke:#000000;stroke-width:0.8;"/>
  <line x2="48.653" y1="-31.577" y2="-33.361" x1="47.779" style="fill-rule:evenodd;clip-rule:evenodd;fill:none;stroke:#000000;stroke-width:0.8;"/>
  <line x2="43.536" y1="-30.238" y2="-30.427" x1="41.558" style="fill-rule:evenodd;clip-rule:evenodd;fill:none;stroke:#000000;stroke-width:0.8;"/>
  <line x2="38.297" y1="-30.632" y2="-32.057" x1="36.912" style="fill-rule:evenodd;clip-rule:evenodd;fill:none;stroke:#000000;stroke-width:0.8;"/>
  <line x2="46.53" y1="-25.474" y2="-27.41" x1="46.086" style="fill-rule:evenodd;clip-rule:evenodd;fill:none;stroke:#000000;stroke-width:0.8;"/>
  <line x2="39.442" y1="-26.498" y2="-27.01" x1="41.361" style="fill-rule:evenodd;clip-rule:evenodd;fill:none;stroke:#000000;stroke-width:0.8;"/>
  <line x2="34.278" y1="-28.112" y2="-29.954" x1="35.022" style="fill-rule:evenodd;clip-rule:evenodd;fill:none;stroke:#000000;stroke-width:0.8;"/>
  <line x2="35.191" y1="-24.647" y2="-23.807" x1="36.991" style="fill-rule:evenodd;clip-rule:evenodd;fill:none;stroke:#000000;stroke-width:0.8;"/>
  <line x2="40.964" y1="-22.481" y2="-21.449" x1="42.661" style="fill-rule:evenodd;clip-rule:evenodd;fill:none;stroke:#000000;stroke-width:0.8;"/>
  <line x2="46.595" y1="-21.065" y2="-22.04" x1="48.325" style="fill-rule:evenodd;clip-rule:evenodd;fill:none;stroke:#000000;stroke-width:0.8;"/>
  <line x2="44.309" y1="-18.19" y2="-19.411" x1="44.079" style="fill-rule:evenodd;clip-rule:evenodd;fill:none;stroke:#000000;stroke-width:0.8;"/>
  <line x2="37.158" y1="-21.327" y2="-19.587" x1="36.199" style="fill-rule:evenodd;clip-rule:evenodd;fill:none;stroke:#000000;stroke-width:0.8;"/>
  <line x2="43.93" y1="-34.688" y2="-33.29" x1="44.196" style="fill-rule:evenodd;clip-rule:evenodd;fill:none;stroke:#000000;stroke-width:0.8;"/>
  <line x2="64.492" y1="-31.577" y2="-33.361" x1="63.619" style="fill-rule:evenodd;clip-rule:evenodd;fill:none;stroke:#000000;stroke-width:0.8;"/>
  <line x2="59.375" y1="-30.238" y2="-30.427" x1="57.397" style="fill-rule:evenodd;clip-rule:evenodd;fill:none;stroke:#000000;stroke-width:0.8;"/>
  <line x2="54.136" y1="-30.632" y2="-32.057" x1="52.751" style="fill-rule:evenodd;clip-rule:evenodd;fill:none;stroke:#000000;stroke-width:0.8;"/>
  <line x2="62.369" y1="-25.474" y2="-27.41" x1="61.925" style="fill-rule:evenodd;clip-rule:evenodd;fill:none;stroke:#000000;stroke-width:0.8;"/>
  <line x2="55.281" y1="-26.498" y2="-27.01" x1="57.2" style="fill-rule:evenodd;clip-rule:evenodd;fill:none;stroke:#000000;stroke-width:0.8;"/>
  <line x2="50.117" y1="-28.112" y2="-29.954" x1="50.861" style="fill-rule:evenodd;clip-rule:evenodd;fill:none;stroke:#000000;stroke-width:0.8;"/>
  <line x2="51.03" y1="-24.647" y2="-23.807" x1="52.83" style="fill-rule:evenodd;clip-rule:evenodd;fill:none;stroke:#000000;stroke-width:0.8;"/>
  <line x2="56.803" y1="-22.481" y2="-21.449" x1="58.5" style="fill-rule:evenodd;clip-rule:evenodd;fill:none;stroke:#000000;stroke-width:0.8;"/>
  <line x2="62.434" y1="-21.065" y2="-22.04" x1="64.165" style="fill-rule:evenodd;clip-rule:evenodd;fill:none;stroke:#000000;stroke-width:0.8;"/>
  <line x2="60.148" y1="-18.19" y2="-19.411" x1="59.917" style="fill-rule:evenodd;clip-rule:evenodd;fill:none;stroke:#000000;stroke-width:0.8;"/>
  <line x2="52.997" y1="-21.327" y2="-19.587" x1="52.038" style="fill-rule:evenodd;clip-rule:evenodd;fill:none;stroke:#000000;stroke-width:0.8;"/>
  <line x2="59.769" y1="-34.688" y2="-33.29" x1="60.036" style="fill-rule:evenodd;clip-rule:evenodd;fill:none;stroke:#000000;stroke-width:0.8;"/>
  <line x2="80.331" y1="-31.577" y2="-33.361" x1="79.457" style="fill-rule:evenodd;clip-rule:evenodd;fill:none;stroke:#000000;stroke-width:0.8;"/>
  <line x2="75.214" y1="-30.238" y2="-30.427" x1="73.236" style="fill-rule:evenodd;clip-rule:evenodd;fill:none;stroke:#000000;stroke-width:0.8;"/>
  <line x2="69.975" y1="-30.632" y2="-32.057" x1="68.59" style="fill-rule:evenodd;clip-rule:evenodd;fill:none;stroke:#000000;stroke-width:0.8;"/>
  <line x2="78.208" y1="-25.474" y2="-27.41" x1="77.764" style="fill-rule:evenodd;clip-rule:evenodd;fill:none;stroke:#000000;stroke-width:0.8;"/>
  <line x2="71.12" y1="-26.498" y2="-27.01" x1="73.04" style="fill-rule:evenodd;clip-rule:evenodd;fill:none;stroke:#000000;stroke-width:0.8;"/>
  <line x2="65.956" y1="-28.112" y2="-29.954" x1="66.7" style="fill-rule:evenodd;clip-rule:evenodd;fill:none;stroke:#000000;stroke-width:0.8;"/>
  <line x2="66.869" y1="-24.647" y2="-23.807" x1="68.669" style="fill-rule:evenodd;clip-rule:evenodd;fill:none;stroke:#000000;stroke-width:0.8;"/>
  <line x2="72.642" y1="-22.481" y2="-21.449" x1="74.339" style="fill-rule:evenodd;clip-rule:evenodd;fill:none;stroke:#000000;stroke-width:0.8;"/>
  <line x2="78.273" y1="-21.065" y2="-22.04" x1="80.003" style="fill-rule:evenodd;clip-rule:evenodd;fill:none;stroke:#000000;stroke-width:0.8;"/>
  <line x2="75.987" y1="-18.19" y2="-19.411" x1="75.756" style="fill-rule:evenodd;clip-rule:evenodd;fill:none;stroke:#000000;stroke-width:0.8;"/>
  <line x2="68.835" y1="-21.327" y2="-19.587" x1="67.877" style="fill-rule:evenodd;clip-rule:evenodd;fill:none;stroke:#000000;stroke-width:0.8;"/>
  <line x2="75.608" y1="-34.688" y2="-33.29" x1="75.874" style="fill-rule:evenodd;clip-rule:evenodd;fill:none;stroke:#000000;stroke-width:0.8;"/>
  <line x2="16.975" y1="-47.416" y2="-49.2" x1="16.102" style="fill-rule:evenodd;clip-rule:evenodd;fill:none;stroke:#000000;stroke-width:0.8;"/>
  <line x2="11.858" y1="-46.078" y2="-46.266" x1="9.88" style="fill-rule:evenodd;clip-rule:evenodd;fill:none;stroke:#000000;stroke-width:0.8;"/>
  <line x2="6.619" y1="-46.471" y2="-47.896" x1="5.234" style="fill-rule:evenodd;clip-rule:evenodd;fill:none;stroke:#000000;stroke-width:0.8;"/>
  <line x2="14.852" y1="-41.313" y2="-43.249" x1="14.408" style="fill-rule:evenodd;clip-rule:evenodd;fill:none;stroke:#000000;stroke-width:0.8;"/>
  <line x2="7.764" y1="-42.337" y2="-42.849" x1="9.684" style="fill-rule:evenodd;clip-rule:evenodd;fill:none;stroke:#000000;stroke-width:0.8;"/>
  <line x2="2.6" y1="-43.951" y2="-45.792" x1="3.344" style="fill:none;stroke:#000000;stroke-width:0.8;"/>
  <line x2="3.513" y1="-40.486" y2="-39.646" x1="5.313" style="fill-rule:evenodd;clip-rule:evenodd;fill:none;stroke:#000000;stroke-width:0.8;"/>
  <line x2="9.286" y1="-38.321" y2="-37.288" x1="10.983" style="fill-rule:evenodd;clip-rule:evenodd;fill:none;stroke:#000000;stroke-width:0.8;"/>
  <line x2="14.917" y1="-36.904" y2="-37.878" x1="16.647" style="fill-rule:evenodd;clip-rule:evenodd;fill:none;stroke:#000000;stroke-width:0.8;"/>
  <line x2="12.631" y1="-34.029" y2="-35.25" x1="12.4" style="fill-rule:evenodd;clip-rule:evenodd;fill:none;stroke:#000000;stroke-width:0.8;"/>
  <line x2="5.479" y1="-37.167" y2="-35.426" x1="4.521" style="fill-rule:evenodd;clip-rule:evenodd;fill:none;stroke:#000000;stroke-width:0.8;"/>
  <line x2="12.252" y1="-50.527" y2="-49.129" x1="12.519" style="fill-rule:evenodd;clip-rule:evenodd;fill:none;stroke:#000000;stroke-width:0.8;"/>
  <line x2="32.814" y1="-47.416" y2="-49.2" x1="31.94" style="fill-rule:evenodd;clip-rule:evenodd;fill:none;stroke:#000000;stroke-width:0.8;"/>
  <line x2="27.697" y1="-46.078" y2="-46.266" x1="25.719" style="fill-rule:evenodd;clip-rule:evenodd;fill:none;stroke:#000000;stroke-width:0.8;"/>
  <line x2="22.458" y1="-46.471" y2="-47.896" x1="21.073" style="fill-rule:evenodd;clip-rule:evenodd;fill:none;stroke:#000000;stroke-width:0.8;"/>
  <line x2="30.691" y1="-41.313" y2="-43.249" x1="30.248" style="fill-rule:evenodd;clip-rule:evenodd;fill:none;stroke:#000000;stroke-width:0.8;"/>
  <line x2="23.604" y1="-42.337" y2="-42.849" x1="25.522" style="fill-rule:evenodd;clip-rule:evenodd;fill:none;stroke:#000000;stroke-width:0.8;"/>
  <line x2="18.439" y1="-43.951" y2="-45.792" x1="19.183" style="fill-rule:evenodd;clip-rule:evenodd;fill:none;stroke:#000000;stroke-width:0.8;"/>
  <line x2="19.352" y1="-40.486" y2="-39.646" x1="21.152" style="fill-rule:evenodd;clip-rule:evenodd;fill:none;stroke:#000000;stroke-width:0.8;"/>
  <line x2="25.125" y1="-38.321" y2="-37.288" x1="26.822" style="fill-rule:evenodd;clip-rule:evenodd;fill:none;stroke:#000000;stroke-width:0.8;"/>
  <line x2="30.756" y1="-36.904" y2="-37.878" x1="32.486" style="fill-rule:evenodd;clip-rule:evenodd;fill:none;stroke:#000000;stroke-width:0.8;"/>
  <line x2="28.47" y1="-34.029" y2="-35.25" x1="28.24" style="fill-rule:evenodd;clip-rule:evenodd;fill:none;stroke:#000000;stroke-width:0.8;"/>
  <line x2="21.319" y1="-37.167" y2="-35.426" x1="20.36" style="fill-rule:evenodd;clip-rule:evenodd;fill:none;stroke:#000000;stroke-width:0.8;"/>
  <line x2="28.091" y1="-50.527" y2="-49.129" x1="28.357" style="fill-rule:evenodd;clip-rule:evenodd;fill:none;stroke:#000000;stroke-width:0.8;"/>
  <line x2="48.653" y1="-47.416" y2="-49.2" x1="47.779" style="fill-rule:evenodd;clip-rule:evenodd;fill:none;stroke:#000000;stroke-width:0.8;"/>
  <line x2="43.536" y1="-46.078" y2="-46.266" x1="41.558" style="fill-rule:evenodd;clip-rule:evenodd;fill:none;stroke:#000000;stroke-width:0.8;"/>
  <line x2="38.297" y1="-46.471" y2="-47.896" x1="36.912" style="fill-rule:evenodd;clip-rule:evenodd;fill:none;stroke:#000000;stroke-width:0.8;"/>
  <line x2="46.53" y1="-41.313" y2="-43.249" x1="46.086" style="fill-rule:evenodd;clip-rule:evenodd;fill:none;stroke:#000000;stroke-width:0.8;"/>
  <line x2="39.442" y1="-42.337" y2="-42.849" x1="41.361" style="fill-rule:evenodd;clip-rule:evenodd;fill:none;stroke:#000000;stroke-width:0.8;"/>
  <line x2="34.278" y1="-43.951" y2="-45.792" x1="35.022" style="fill-rule:evenodd;clip-rule:evenodd;fill:none;stroke:#000000;stroke-width:0.8;"/>
  <line x2="35.191" y1="-40.486" y2="-39.646" x1="36.991" style="fill-rule:evenodd;clip-rule:evenodd;fill:none;stroke:#000000;stroke-width:0.8;"/>
  <line x2="40.964" y1="-38.321" y2="-37.288" x1="42.661" style="fill-rule:evenodd;clip-rule:evenodd;fill:none;stroke:#000000;stroke-width:0.8;"/>
  <line x2="46.595" y1="-36.904" y2="-37.878" x1="48.325" style="fill-rule:evenodd;clip-rule:evenodd;fill:none;stroke:#000000;stroke-width:0.8;"/>
  <line x2="44.309" y1="-34.029" y2="-35.25" x1="44.079" style="fill-rule:evenodd;clip-rule:evenodd;fill:none;stroke:#000000;stroke-width:0.8;"/>
  <line x2="37.158" y1="-37.167" y2="-35.426" x1="36.199" style="fill-rule:evenodd;clip-rule:evenodd;fill:none;stroke:#000000;stroke-width:0.8;"/>
  <line x2="43.93" y1="-50.527" y2="-49.129" x1="44.196" style="fill-rule:evenodd;clip-rule:evenodd;fill:none;stroke:#000000;stroke-width:0.8;"/>
  <line x2="64.492" y1="-47.416" y2="-49.2" x1="63.619" style="fill-rule:evenodd;clip-rule:evenodd;fill:none;stroke:#000000;stroke-width:0.8;"/>
  <line x2="59.375" y1="-46.078" y2="-46.266" x1="57.397" style="fill-rule:evenodd;clip-rule:evenodd;fill:none;stroke:#000000;stroke-width:0.8;"/>
  <line x2="54.136" y1="-46.471" y2="-47.896" x1="52.751" style="fill-rule:evenodd;clip-rule:evenodd;fill:none;stroke:#000000;stroke-width:0.8;"/>
  <line x2="62.369" y1="-41.313" y2="-43.249" x1="61.925" style="fill-rule:evenodd;clip-rule:evenodd;fill:none;stroke:#000000;stroke-width:0.8;"/>
  <line x2="55.281" y1="-42.337" y2="-42.849" x1="57.2" style="fill-rule:evenodd;clip-rule:evenodd;fill:none;stroke:#000000;stroke-width:0.8;"/>
  <line x2="50.117" y1="-43.951" y2="-45.792" x1="50.861" style="fill-rule:evenodd;clip-rule:evenodd;fill:none;stroke:#000000;stroke-width:0.8;"/>
  <line x2="51.03" y1="-40.486" y2="-39.646" x1="52.83" style="fill-rule:evenodd;clip-rule:evenodd;fill:none;stroke:#000000;stroke-width:0.8;"/>
  <line x2="56.803" y1="-38.321" y2="-37.288" x1="58.5" style="fill-rule:evenodd;clip-rule:evenodd;fill:none;stroke:#000000;stroke-width:0.8;"/>
  <line x2="62.434" y1="-36.904" y2="-37.878" x1="64.165" style="fill-rule:evenodd;clip-rule:evenodd;fill:none;stroke:#000000;stroke-width:0.8;"/>
  <line x2="60.148" y1="-34.029" y2="-35.25" x1="59.917" style="fill-rule:evenodd;clip-rule:evenodd;fill:none;stroke:#000000;stroke-width:0.8;"/>
  <line x2="52.997" y1="-37.167" y2="-35.426" x1="52.038" style="fill-rule:evenodd;clip-rule:evenodd;fill:none;stroke:#000000;stroke-width:0.8;"/>
  <line x2="59.769" y1="-50.527" y2="-49.129" x1="60.036" style="fill-rule:evenodd;clip-rule:evenodd;fill:none;stroke:#000000;stroke-width:0.8;"/>
  <line x2="80.331" y1="-47.416" y2="-49.2" x1="79.457" style="fill-rule:evenodd;clip-rule:evenodd;fill:none;stroke:#000000;stroke-width:0.8;"/>
  <line x2="75.214" y1="-46.078" y2="-46.266" x1="73.236" style="fill-rule:evenodd;clip-rule:evenodd;fill:none;stroke:#000000;stroke-width:0.8;"/>
  <line x2="69.975" y1="-46.471" y2="-47.896" x1="68.59" style="fill-rule:evenodd;clip-rule:evenodd;fill:none;stroke:#000000;stroke-width:0.8;"/>
  <line x2="78.208" y1="-41.313" y2="-43.249" x1="77.764" style="fill-rule:evenodd;clip-rule:evenodd;fill:none;stroke:#000000;stroke-width:0.8;"/>
  <line x2="71.12" y1="-42.337" y2="-42.849" x1="73.04" style="fill-rule:evenodd;clip-rule:evenodd;fill:none;stroke:#000000;stroke-width:0.8;"/>
  <line x2="65.956" y1="-43.951" y2="-45.792" x1="66.7" style="fill-rule:evenodd;clip-rule:evenodd;fill:none;stroke:#000000;stroke-width:0.8;"/>
  <line x2="66.869" y1="-40.486" y2="-39.646" x1="68.669" style="fill-rule:evenodd;clip-rule:evenodd;fill:none;stroke:#000000;stroke-width:0.8;"/>
  <line x2="72.642" y1="-38.321" y2="-37.288" x1="74.339" style="fill-rule:evenodd;clip-rule:evenodd;fill:none;stroke:#000000;stroke-width:0.8;"/>
  <line x2="78.273" y1="-36.904" y2="-37.878" x1="80.003" style="fill-rule:evenodd;clip-rule:evenodd;fill:none;stroke:#000000;stroke-width:0.8;"/>
  <line x2="75.987" y1="-34.029" y2="-35.25" x1="75.756" style="fill-rule:evenodd;clip-rule:evenodd;fill:none;stroke:#000000;stroke-width:0.8;"/>
  <line x2="68.835" y1="-37.167" y2="-35.426" x1="67.877" style="fill-rule:evenodd;clip-rule:evenodd;fill:none;stroke:#000000;stroke-width:0.8;"/>
  <line x2="75.608" y1="-50.527" y2="-49.129" x1="75.874" style="fill-rule:evenodd;clip-rule:evenodd;fill:none;stroke:#000000;stroke-width:0.8;"/>
  <line x2="16.975" y1="-63.255" y2="-65.039" x1="16.102" style="fill-rule:evenodd;clip-rule:evenodd;fill:none;stroke:#000000;stroke-width:0.8;"/>
  <line x2="11.858" y1="-61.917" y2="-62.105" x1="9.88" style="fill-rule:evenodd;clip-rule:evenodd;fill:none;stroke:#000000;stroke-width:0.8;"/>
  <line x2="6.619" y1="-62.31" y2="-63.734" x1="5.234" style="fill-rule:evenodd;clip-rule:evenodd;fill:none;stroke:#000000;stroke-width:0.8;"/>
  <line x2="14.852" y1="-57.152" y2="-59.088" x1="14.408" style="fill-rule:evenodd;clip-rule:evenodd;fill:none;stroke:#000000;stroke-width:0.8;"/>
  <line x2="7.764" y1="-58.176" y2="-58.688" x1="9.684" style="fill-rule:evenodd;clip-rule:evenodd;fill:none;stroke:#000000;stroke-width:0.8;"/>
  <line x2="2.6" y1="-59.79" y2="-61.632" x1="3.344" style="fill-rule:evenodd;clip-rule:evenodd;fill:none;stroke:#000000;stroke-width:0.8;"/>
  <line x2="3.513" y1="-56.325" y2="-55.485" x1="5.313" style="fill-rule:evenodd;clip-rule:evenodd;fill:none;stroke:#000000;stroke-width:0.8;"/>
  <line x2="9.286" y1="-54.16" y2="-53.127" x1="10.983" style="fill-rule:evenodd;clip-rule:evenodd;fill:none;stroke:#000000;stroke-width:0.8;"/>
  <line x2="14.917" y1="-52.743" y2="-53.717" x1="16.647" style="fill-rule:evenodd;clip-rule:evenodd;fill:none;stroke:#000000;stroke-width:0.8;"/>
  <line x2="12.631" y1="-49.868" y2="-51.089" x1="12.4" style="fill-rule:evenodd;clip-rule:evenodd;fill:none;stroke:#000000;stroke-width:0.8;"/>
  <line x2="5.479" y1="-53.005" y2="-51.266" x1="4.521" style="fill-rule:evenodd;clip-rule:evenodd;fill:none;stroke:#000000;stroke-width:0.8;"/>
  <line x2="12.519" y1="-64.968" y2="-66.366" x1="12.252" style="fill-rule:evenodd;clip-rule:evenodd;fill:none;stroke:#000000;stroke-width:0.8;"/>
  <line x2="32.814" y1="-63.255" y2="-65.039" x1="31.94" style="fill-rule:evenodd;clip-rule:evenodd;fill:none;stroke:#000000;stroke-width:0.8;"/>
  <line x2="27.697" y1="-61.917" y2="-62.105" x1="25.719" style="fill-rule:evenodd;clip-rule:evenodd;fill:none;stroke:#000000;stroke-width:0.8;"/>
  <line x2="22.458" y1="-62.31" y2="-63.734" x1="21.073" style="fill-rule:evenodd;clip-rule:evenodd;fill:none;stroke:#000000;stroke-width:0.8;"/>
  <line x2="30.691" y1="-57.152" y2="-59.088" x1="30.248" style="fill-rule:evenodd;clip-rule:evenodd;fill:none;stroke:#000000;stroke-width:0.8;"/>
  <line x2="23.604" y1="-58.176" y2="-58.688" x1="25.522" style="fill-rule:evenodd;clip-rule:evenodd;fill:none;stroke:#000000;stroke-width:0.8;"/>
  <line x2="18.439" y1="-59.79" y2="-61.632" x1="19.183" style="fill-rule:evenodd;clip-rule:evenodd;fill:none;stroke:#000000;stroke-width:0.8;"/>
  <line x2="19.352" y1="-56.325" y2="-55.485" x1="21.152" style="fill-rule:evenodd;clip-rule:evenodd;fill:none;stroke:#000000;stroke-width:0.8;"/>
  <line x2="25.125" y1="-54.16" y2="-53.127" x1="26.822" style="fill-rule:evenodd;clip-rule:evenodd;fill:none;stroke:#000000;stroke-width:0.8;"/>
  <line x2="30.756" y1="-52.743" y2="-53.717" x1="32.486" style="fill-rule:evenodd;clip-rule:evenodd;fill:none;stroke:#000000;stroke-width:0.8;"/>
  <line x2="28.47" y1="-49.868" y2="-51.089" x1="28.24" style="fill-rule:evenodd;clip-rule:evenodd;fill:none;stroke:#000000;stroke-width:0.8;"/>
  <line x2="21.319" y1="-53.005" y2="-51.266" x1="20.36" style="fill-rule:evenodd;clip-rule:evenodd;fill:none;stroke:#000000;stroke-width:0.8;"/>
  <line x2="28.357" y1="-64.968" y2="-66.366" x1="28.091" style="fill-rule:evenodd;clip-rule:evenodd;fill:none;stroke:#000000;stroke-width:0.8;"/>
  <line x2="48.653" y1="-63.255" y2="-65.039" x1="47.779" style="fill-rule:evenodd;clip-rule:evenodd;fill:none;stroke:#000000;stroke-width:0.8;"/>
  <line x2="43.536" y1="-61.917" y2="-62.105" x1="41.558" style="fill-rule:evenodd;clip-rule:evenodd;fill:none;stroke:#000000;stroke-width:0.8;"/>
  <line x2="38.297" y1="-62.31" y2="-63.734" x1="36.912" style="fill-rule:evenodd;clip-rule:evenodd;fill:none;stroke:#000000;stroke-width:0.8;"/>
  <line x2="46.53" y1="-57.152" y2="-59.088" x1="46.086" style="fill-rule:evenodd;clip-rule:evenodd;fill:none;stroke:#000000;stroke-width:0.8;"/>
  <line x2="39.442" y1="-58.176" y2="-58.688" x1="41.361" style="fill-rule:evenodd;clip-rule:evenodd;fill:none;stroke:#000000;stroke-width:0.8;"/>
  <line x2="34.278" y1="-59.79" y2="-61.632" x1="35.022" style="fill-rule:evenodd;clip-rule:evenodd;fill:none;stroke:#000000;stroke-width:0.8;"/>
  <line x2="35.191" y1="-56.325" y2="-55.485" x1="36.991" style="fill-rule:evenodd;clip-rule:evenodd;fill:none;stroke:#000000;stroke-width:0.8;"/>
  <line x2="40.964" y1="-54.16" y2="-53.127" x1="42.661" style="fill-rule:evenodd;clip-rule:evenodd;fill:none;stroke:#000000;stroke-width:0.8;"/>
  <line x2="46.595" y1="-52.743" y2="-53.717" x1="48.325" style="fill-rule:evenodd;clip-rule:evenodd;fill:none;stroke:#000000;stroke-width:0.8;"/>
  <line x2="44.309" y1="-49.868" y2="-51.089" x1="44.079" style="fill-rule:evenodd;clip-rule:evenodd;fill:none;stroke:#000000;stroke-width:0.8;"/>
  <line x2="37.158" y1="-53.005" y2="-51.266" x1="36.199" style="fill-rule:evenodd;clip-rule:evenodd;fill:none;stroke:#000000;stroke-width:0.8;"/>
  <line x2="44.196" y1="-64.968" y2="-66.366" x1="43.93" style="fill-rule:evenodd;clip-rule:evenodd;fill:none;stroke:#000000;stroke-width:0.8;"/>
  <line x2="64.492" y1="-63.255" y2="-65.039" x1="63.619" style="fill-rule:evenodd;clip-rule:evenodd;fill:none;stroke:#000000;stroke-width:0.8;"/>
  <line x2="59.375" y1="-61.917" y2="-62.105" x1="57.397" style="fill-rule:evenodd;clip-rule:evenodd;fill:none;stroke:#000000;stroke-width:0.8;"/>
  <line x2="54.136" y1="-62.31" y2="-63.734" x1="52.751" style="fill-rule:evenodd;clip-rule:evenodd;fill:none;stroke:#000000;stroke-width:0.8;"/>
  <line x2="62.369" y1="-57.152" y2="-59.088" x1="61.925" style="fill-rule:evenodd;clip-rule:evenodd;fill:none;stroke:#000000;stroke-width:0.8;"/>
  <line x2="55.281" y1="-58.176" y2="-58.688" x1="57.2" style="fill-rule:evenodd;clip-rule:evenodd;fill:none;stroke:#000000;stroke-width:0.8;"/>
  <line x2="50.117" y1="-59.79" y2="-61.632" x1="50.861" style="fill-rule:evenodd;clip-rule:evenodd;fill:none;stroke:#000000;stroke-width:0.8;"/>
  <line x2="51.03" y1="-56.325" y2="-55.485" x1="52.83" style="fill-rule:evenodd;clip-rule:evenodd;fill:none;stroke:#000000;stroke-width:0.8;"/>
  <line x2="56.803" y1="-54.16" y2="-53.127" x1="58.5" style="fill-rule:evenodd;clip-rule:evenodd;fill:none;stroke:#000000;stroke-width:0.8;"/>
  <line x2="62.434" y1="-52.743" y2="-53.717" x1="64.165" style="fill-rule:evenodd;clip-rule:evenodd;fill:none;stroke:#000000;stroke-width:0.8;"/>
  <line x2="60.148" y1="-49.868" y2="-51.089" x1="59.917" style="fill-rule:evenodd;clip-rule:evenodd;fill:none;stroke:#000000;stroke-width:0.8;"/>
  <line x2="52.997" y1="-53.005" y2="-51.266" x1="52.038" style="fill-rule:evenodd;clip-rule:evenodd;fill:none;stroke:#000000;stroke-width:0.8;"/>
  <line x2="60.036" y1="-64.968" y2="-66.366" x1="59.769" style="fill-rule:evenodd;clip-rule:evenodd;fill:none;stroke:#000000;stroke-width:0.8;"/>
  <line x2="80.331" y1="-63.255" y2="-65.039" x1="79.457" style="fill-rule:evenodd;clip-rule:evenodd;fill:none;stroke:#000000;stroke-width:0.8;"/>
  <line x2="75.214" y1="-61.917" y2="-62.105" x1="73.236" style="fill-rule:evenodd;clip-rule:evenodd;fill:none;stroke:#000000;stroke-width:0.8;"/>
  <line x2="69.975" y1="-62.31" y2="-63.734" x1="68.59" style="fill-rule:evenodd;clip-rule:evenodd;fill:none;stroke:#000000;stroke-width:0.8;"/>
  <line x2="78.208" y1="-57.152" y2="-59.088" x1="77.764" style="fill-rule:evenodd;clip-rule:evenodd;fill:none;stroke:#000000;stroke-width:0.8;"/>
  <line x2="71.12" y1="-58.176" y2="-58.688" x1="73.04" style="fill-rule:evenodd;clip-rule:evenodd;fill:none;stroke:#000000;stroke-width:0.8;"/>
  <line x2="65.956" y1="-59.79" y2="-61.632" x1="66.7" style="fill-rule:evenodd;clip-rule:evenodd;fill:none;stroke:#000000;stroke-width:0.8;"/>
  <line x2="66.869" y1="-56.325" y2="-55.485" x1="68.669" style="fill-rule:evenodd;clip-rule:evenodd;fill:none;stroke:#000000;stroke-width:0.8;"/>
  <line x2="72.642" y1="-54.16" y2="-53.127" x1="74.339" style="fill-rule:evenodd;clip-rule:evenodd;fill:none;stroke:#000000;stroke-width:0.8;"/>
  <line x2="78.273" y1="-52.743" y2="-53.717" x1="80.003" style="fill-rule:evenodd;clip-rule:evenodd;fill:none;stroke:#000000;stroke-width:0.8;"/>
  <line x2="75.987" y1="-49.868" y2="-51.089" x1="75.756" style="fill-rule:evenodd;clip-rule:evenodd;fill:none;stroke:#000000;stroke-width:0.8;"/>
  <line x2="68.835" y1="-53.005" y2="-51.266" x1="67.877" style="fill-rule:evenodd;clip-rule:evenodd;fill:none;stroke:#000000;stroke-width:0.8;"/>
  <line x2="75.874" y1="-64.968" y2="-66.366" x1="75.608" style="fill-rule:evenodd;clip-rule:evenodd;fill:none;stroke:#000000;stroke-width:0.8;"/>
  <line x2="16.975" y1="-79.094" y2="-80.878" x1="16.102" style="fill-rule:evenodd;clip-rule:evenodd;fill:none;stroke:#000000;stroke-width:0.8;"/>
  <line x2="11.858" y1="-77.755" y2="-77.944" x1="9.88" style="fill-rule:evenodd;clip-rule:evenodd;fill:none;stroke:#000000;stroke-width:0.8;"/>
  <line x2="6.619" y1="-78.149" y2="-79.573" x1="5.234" style="fill-rule:evenodd;clip-rule:evenodd;fill:none;stroke:#000000;stroke-width:0.8;"/>
  <line x2="14.852" y1="-72.991" y2="-74.927" x1="14.408" style="fill-rule:evenodd;clip-rule:evenodd;fill:none;stroke:#000000;stroke-width:0.8;"/>
  <line x2="9.684" y1="-74.526" y2="-74.015" x1="7.764" style="fill-rule:evenodd;clip-rule:evenodd;fill:none;stroke:#000000;stroke-width:0.8;"/>
  <line x2="3.344" y1="-77.471" y2="-75.629" x1="2.6" style="fill-rule:evenodd;clip-rule:evenodd;fill:none;stroke:#000000;stroke-width:0.8;"/>
  <line x2="3.513" y1="-72.164" y2="-71.324" x1="5.313" style="fill-rule:evenodd;clip-rule:evenodd;fill:none;stroke:#000000;stroke-width:0.8;"/>
  <line x2="9.286" y1="-69.998" y2="-68.966" x1="10.983" style="fill-rule:evenodd;clip-rule:evenodd;fill:none;stroke:#000000;stroke-width:0.8;"/>
  <line x2="14.917" y1="-68.582" y2="-69.557" x1="16.647" style="fill-rule:evenodd;clip-rule:evenodd;fill:none;stroke:#000000;stroke-width:0.8;"/>
  <line x2="12.631" y1="-65.707" y2="-66.928" x1="12.4" style="fill-rule:evenodd;clip-rule:evenodd;fill:none;stroke:#000000;stroke-width:0.8;"/>
  <line x2="5.479" y1="-68.844" y2="-67.104" x1="4.521" style="fill-rule:evenodd;clip-rule:evenodd;fill:none;stroke:#000000;stroke-width:0.8;"/>
  <line x2="12.252" y1="-81.85" y2="-80.807" x1="12.451" style="fill-rule:evenodd;clip-rule:evenodd;fill:none;stroke:#000000;stroke-width:0.8;"/>
  <line x2="32.814" y1="-79.094" y2="-80.878" x1="31.94" style="fill-rule:evenodd;clip-rule:evenodd;fill:none;stroke:#000000;stroke-width:0.8;"/>
  <line x2="27.697" y1="-77.755" y2="-77.944" x1="25.719" style="fill-rule:evenodd;clip-rule:evenodd;fill:none;stroke:#000000;stroke-width:0.8;"/>
  <line x2="22.458" y1="-78.149" y2="-79.573" x1="21.073" style="fill-rule:evenodd;clip-rule:evenodd;fill:none;stroke:#000000;stroke-width:0.8;"/>
  <line x2="30.691" y1="-72.991" y2="-74.927" x1="30.248" style="fill-rule:evenodd;clip-rule:evenodd;fill:none;stroke:#000000;stroke-width:0.8;"/>
  <line x2="25.522" y1="-74.526" y2="-74.015" x1="23.604" style="fill-rule:evenodd;clip-rule:evenodd;fill:none;stroke:#000000;stroke-width:0.8;"/>
  <line x2="19.183" y1="-77.471" y2="-75.629" x1="18.439" style="fill-rule:evenodd;clip-rule:evenodd;fill:none;stroke:#000000;stroke-width:0.8;"/>
  <line x2="19.352" y1="-72.164" y2="-71.324" x1="21.152" style="fill-rule:evenodd;clip-rule:evenodd;fill:none;stroke:#000000;stroke-width:0.8;"/>
  <line x2="25.125" y1="-69.998" y2="-68.966" x1="26.822" style="fill-rule:evenodd;clip-rule:evenodd;fill:none;stroke:#000000;stroke-width:0.8;"/>
  <line x2="30.756" y1="-68.582" y2="-69.557" x1="32.486" style="fill-rule:evenodd;clip-rule:evenodd;fill:none;stroke:#000000;stroke-width:0.8;"/>
  <line x2="28.47" y1="-65.707" y2="-66.928" x1="28.24" style="fill-rule:evenodd;clip-rule:evenodd;fill:none;stroke:#000000;stroke-width:0.8;"/>
  <line x2="21.319" y1="-68.844" y2="-67.104" x1="20.36" style="fill-rule:evenodd;clip-rule:evenodd;fill:none;stroke:#000000;stroke-width:0.8;"/>
  <line x2="28.091" y1="-81.85" y2="-80.807" x1="28.29" style="fill-rule:evenodd;clip-rule:evenodd;fill:none;stroke:#000000;stroke-width:0.8;"/>
  <line x2="48.653" y1="-79.094" y2="-80.878" x1="47.779" style="fill-rule:evenodd;clip-rule:evenodd;fill:none;stroke:#000000;stroke-width:0.8;"/>
  <line x2="43.536" y1="-77.755" y2="-77.944" x1="41.558" style="fill-rule:evenodd;clip-rule:evenodd;fill:none;stroke:#000000;stroke-width:0.8;"/>
  <line x2="38.297" y1="-78.149" y2="-79.573" x1="36.912" style="fill-rule:evenodd;clip-rule:evenodd;fill:none;stroke:#000000;stroke-width:0.8;"/>
  <line x2="46.53" y1="-72.991" y2="-74.927" x1="46.086" style="fill-rule:evenodd;clip-rule:evenodd;fill:none;stroke:#000000;stroke-width:0.8;"/>
  <line x2="41.361" y1="-74.526" y2="-74.015" x1="39.442" style="fill-rule:evenodd;clip-rule:evenodd;fill:none;stroke:#000000;stroke-width:0.8;"/>
  <line x2="35.022" y1="-77.471" y2="-75.629" x1="34.278" style="fill-rule:evenodd;clip-rule:evenodd;fill:none;stroke:#000000;stroke-width:0.8;"/>
  <line x2="35.191" y1="-72.164" y2="-71.324" x1="36.991" style="fill-rule:evenodd;clip-rule:evenodd;fill:none;stroke:#000000;stroke-width:0.8;"/>
  <line x2="40.964" y1="-69.998" y2="-68.966" x1="42.661" style="fill-rule:evenodd;clip-rule:evenodd;fill:none;stroke:#000000;stroke-width:0.8;"/>
  <line x2="46.595" y1="-68.582" y2="-69.557" x1="48.325" style="fill-rule:evenodd;clip-rule:evenodd;fill:none;stroke:#000000;stroke-width:0.8;"/>
  <line x2="44.309" y1="-65.707" y2="-66.928" x1="44.079" style="fill-rule:evenodd;clip-rule:evenodd;fill:none;stroke:#000000;stroke-width:0.8;"/>
  <line x2="37.158" y1="-68.844" y2="-67.104" x1="36.199" style="fill-rule:evenodd;clip-rule:evenodd;fill:none;stroke:#000000;stroke-width:0.8;"/>
  <line x2="43.93" y1="-81.85" y2="-80.807" x1="44.129" style="fill-rule:evenodd;clip-rule:evenodd;fill:none;stroke:#000000;stroke-width:0.8;"/>
  <line x2="64.492" y1="-79.094" y2="-80.878" x1="63.619" style="fill-rule:evenodd;clip-rule:evenodd;fill:none;stroke:#000000;stroke-width:0.8;"/>
  <line x2="59.375" y1="-77.755" y2="-77.944" x1="57.397" style="fill-rule:evenodd;clip-rule:evenodd;fill:none;stroke:#000000;stroke-width:0.8;"/>
  <line x2="54.136" y1="-78.149" y2="-79.573" x1="52.751" style="fill-rule:evenodd;clip-rule:evenodd;fill:none;stroke:#000000;stroke-width:0.8;"/>
  <line x2="62.369" y1="-72.991" y2="-74.927" x1="61.925" style="fill-rule:evenodd;clip-rule:evenodd;fill:none;stroke:#000000;stroke-width:0.8;"/>
  <line x2="57.2" y1="-74.526" y2="-74.015" x1="55.281" style="fill-rule:evenodd;clip-rule:evenodd;fill:none;stroke:#000000;stroke-width:0.8;"/>
  <line x2="50.861" y1="-77.471" y2="-75.629" x1="50.117" style="fill-rule:evenodd;clip-rule:evenodd;fill:none;stroke:#000000;stroke-width:0.8;"/>
  <line x2="51.03" y1="-72.164" y2="-71.324" x1="52.83" style="fill-rule:evenodd;clip-rule:evenodd;fill:none;stroke:#000000;stroke-width:0.8;"/>
  <line x2="56.803" y1="-69.998" y2="-68.966" x1="58.5" style="fill-rule:evenodd;clip-rule:evenodd;fill:none;stroke:#000000;stroke-width:0.8;"/>
  <line x2="62.434" y1="-68.582" y2="-69.557" x1="64.165" style="fill-rule:evenodd;clip-rule:evenodd;fill:none;stroke:#000000;stroke-width:0.8;"/>
  <line x2="60.148" y1="-65.707" y2="-66.928" x1="59.917" style="fill-rule:evenodd;clip-rule:evenodd;fill:none;stroke:#000000;stroke-width:0.8;"/>
  <line x2="52.997" y1="-68.844" y2="-67.104" x1="52.038" style="fill-rule:evenodd;clip-rule:evenodd;fill:none;stroke:#000000;stroke-width:0.8;"/>
  <line x2="59.769" y1="-81.85" y2="-80.807" x1="59.968" style="fill-rule:evenodd;clip-rule:evenodd;fill:none;stroke:#000000;stroke-width:0.8;"/>
  <line x2="80.331" y1="-79.094" y2="-80.878" x1="79.457" style="fill-rule:evenodd;clip-rule:evenodd;fill:none;stroke:#000000;stroke-width:0.8;"/>
  <line x2="75.214" y1="-77.755" y2="-77.944" x1="73.236" style="fill-rule:evenodd;clip-rule:evenodd;fill:none;stroke:#000000;stroke-width:0.8;"/>
  <line x2="69.975" y1="-78.149" y2="-79.573" x1="68.59" style="fill-rule:evenodd;clip-rule:evenodd;fill:none;stroke:#000000;stroke-width:0.8;"/>
  <line x2="78.208" y1="-72.991" y2="-74.927" x1="77.764" style="fill-rule:evenodd;clip-rule:evenodd;fill:none;stroke:#000000;stroke-width:0.8;"/>
  <line x2="73.04" y1="-74.526" y2="-74.015" x1="71.12" style="fill-rule:evenodd;clip-rule:evenodd;fill:none;stroke:#000000;stroke-width:0.8;"/>
  <line x2="66.7" y1="-77.471" y2="-75.629" x1="65.956" style="fill-rule:evenodd;clip-rule:evenodd;fill:none;stroke:#000000;stroke-width:0.8;"/>
  <line x2="66.869" y1="-72.164" y2="-71.324" x1="68.669" style="fill-rule:evenodd;clip-rule:evenodd;fill:none;stroke:#000000;stroke-width:0.8;"/>
  <line x2="72.642" y1="-69.998" y2="-68.966" x1="74.339" style="fill-rule:evenodd;clip-rule:evenodd;fill:none;stroke:#000000;stroke-width:0.8;"/>
  <line x2="78.273" y1="-68.582" y2="-69.557" x1="80.003" style="fill-rule:evenodd;clip-rule:evenodd;fill:none;stroke:#000000;stroke-width:0.8;"/>
  <line x2="75.987" y1="-65.707" y2="-66.928" x1="75.756" style="fill-rule:evenodd;clip-rule:evenodd;fill:none;stroke:#000000;stroke-width:0.8;"/>
  <line x2="68.835" y1="-68.844" y2="-67.104" x1="67.877" style="fill-rule:evenodd;clip-rule:evenodd;fill:none;stroke:#000000;stroke-width:0.8;"/>
  <line x2="75.608" y1="-81.85" y2="-80.807" x1="75.807" style="fill-rule:evenodd;clip-rule:evenodd;fill:none;stroke:#000000;stroke-width:0.8;"/>
 </g>
</svg>
