<?xml version="1.0"?>
<!-- Converted with SVG Converter - Version 0.9.5 (Compiled Fri Feb 21 09:53:38 2020) - Copyright (C) 2011 Nokia -->
<svg xmlns="http://www.w3.org/2000/svg" version="1.1" xml:space="preserve" width="16.9" x="0px" viewBox="1.176 -18.26 16.9 16.899" y="0px" xmlns:xlink="http://www.w3.org/1999/xlink" height="16.899" baseProfile="tiny">
 <g>
  <rect width="16.9" x="1.176" y="-18.26" style="fill:none;" height="16.899"/>
  <polygon points="5.381,-12.856 4.781,-15.965 7.738,-15.027   " style="fill:none;stroke:#00AEEF;stroke-width:0.58;"/>
  <line x2="7.306" x1="7.306" style="fill:none;stroke:#00AEEF;stroke-width:0.8;stroke-linecap:round;" y2="-10.666" y1="-10.666"/>
  <line x2="2.6" x1="2.6" style="fill:none;stroke:#00AEEF;stroke-width:0.8;stroke-linecap:round;" y2="-11.803" y1="-11.803"/>
  <polygon points="12.523,-10.859 13.409,-13.901 15.61,-11.715   " style="fill:none;stroke:#00AEEF;stroke-width:0.58;"/>
  <line x2="16.417" x1="16.417" style="fill:none;stroke:#00AEEF;stroke-width:0.8;stroke-linecap:round;" y2="-14.248" y1="-14.248"/>
  <line x2="12.928" x1="12.928" style="fill:none;stroke:#00AEEF;stroke-width:0.8;stroke-linecap:round;" y2="-16.69" y1="-16.69"/>
  <line x2="14.976" x1="14.976" style="fill:none;stroke:#00AEEF;stroke-width:0.8;stroke-linecap:round;" y2="-9.874" y1="-9.874"/>
  <line x2="10.892" x1="10.892" style="fill:none;stroke:#00AEEF;stroke-width:0.8;stroke-linecap:round;" y2="-11.787" y1="-11.787"/>
  <line x2="10.778" x1="10.778" style="fill:none;stroke:#00AEEF;stroke-width:0.8;stroke-linecap:round;" y2="-15.01" y1="-15.01"/>
  <line x2="3.077" x1="3.077" style="fill:none;stroke:#00AEEF;stroke-width:0.8;stroke-linecap:round;" y2="-16.344" y1="-16.344"/>
  <line x2="8.842" x1="8.842" style="fill:none;stroke:#00AEEF;stroke-width:0.8;stroke-linecap:round;" y2="-17.089" y1="-17.089"/>
  <line x2="16.534" x1="16.534" style="fill:none;stroke:#00AEEF;stroke-width:0.8;stroke-linecap:round;" y2="-17.259" y1="-17.259"/>
  <polygon points="8.222,-4.985 5.054,-4.945 6.502,-7.689   " style="fill:none;stroke:#00AEEF;stroke-width:0.58;"/>
  <line x2="6.46" x1="6.46" style="fill:none;stroke:#00AEEF;stroke-width:0.8;stroke-linecap:round;" y2="-2.932" y1="-2.932"/>
  <line x2="2.88" x1="2.88" style="fill:none;stroke:#00AEEF;stroke-width:0.8;stroke-linecap:round;" y2="-2.601" y1="-2.601"/>
  <line x2="3.364" x1="3.364" style="fill:none;stroke:#00AEEF;stroke-width:0.8;stroke-linecap:round;" y2="-6.008" y1="-6.008"/>
  <line x2="4.631" x1="4.631" style="fill:none;stroke:#00AEEF;stroke-width:0.8;stroke-linecap:round;" y2="-9.019" y1="-9.019"/>
  <polygon points="13.984,-3.394 16.396,-5.449 17.035,-2.414   " style="fill:none;stroke:#00AEEF;stroke-width:0.58;"/>
  <line x2="10.778" x1="10.778" style="fill:none;stroke:#00AEEF;stroke-width:0.8;stroke-linecap:round;" y2="-3.55" y1="-3.55"/>
  <line x2="17.231" x1="17.231" style="fill:none;stroke:#00AEEF;stroke-width:0.8;stroke-linecap:round;" y2="-7.756" y1="-7.756"/>
  <line x2="9.579" x1="9.579" style="fill:none;stroke:#00AEEF;stroke-width:0.8;stroke-linecap:round;" y2="-8.211" y1="-8.211"/>
  <line x2="12.846" x1="12.846" style="fill:none;stroke:#00AEEF;stroke-width:0.8;stroke-linecap:round;" y2="-6.722" y1="-6.722"/>
 </g>
</svg>
