<?xml version="1.0"?>
<!-- Converted with SVG Converter - Version 0.9.5 (Compiled Fri Feb 21 09:53:38 2020) - Copyright (C) 2011 Nokia -->
<svg xmlns="http://www.w3.org/2000/svg" baseProfile="tiny" xmlns:xlink="http://www.w3.org/1999/xlink" version="1.1" viewBox="0 -53.584 53.584 53.584" width="53.584" y="0px" x="0px" xml:space="preserve" height="53.584">
 <g>
  <rect style="fill:none;" width="53.584" y="-53.584" x="0" height="53.584"/>
  <line y2="-51.754" x1="3.775" style="fill:none;stroke:#000000;stroke-width:0.3;" x2="0" y1="-51.754"/>
  <line y2="-51.754" x1="6.357" style="fill:none;stroke:#000000;stroke-width:0.3;" x2="12.726" y1="-51.754"/>
  <line y2="-51.754" x1="15.273" style="fill:none;stroke:#000000;stroke-width:0.3;" x2="21.642" y1="-51.754"/>
  <line y2="-51.754" x1="24.19" style="fill:none;stroke:#000000;stroke-width:0.3;" x2="30.559" y1="-51.754"/>
  <line y2="-51.754" x1="33.106" style="fill:none;stroke:#000000;stroke-width:0.3;" x2="39.476" y1="-51.754"/>
  <line y2="-51.754" x1="42.022" style="fill:none;stroke:#000000;stroke-width:0.3;" x2="48.392" y1="-51.754"/>
  <line y2="-51.754" x1="53.584" style="fill:none;stroke:#000000;stroke-width:0.3;" x2="50.939" y1="-51.754"/>
  <line y2="-48.619" x1="8.107" style="fill:none;stroke:#000000;stroke-width:0.3;" x2="1.738" y1="-48.619"/>
  <line y2="-48.619" x1="17.024" style="fill:none;stroke:#000000;stroke-width:0.3;" x2="10.655" y1="-48.619"/>
  <line y2="-48.619" x1="25.941" style="fill:none;stroke:#000000;stroke-width:0.3;" x2="19.572" y1="-48.619"/>
  <line y2="-48.619" x1="34.857" style="fill:none;stroke:#000000;stroke-width:0.3;" x2="28.488" y1="-48.619"/>
  <line y2="-48.619" x1="43.774" style="fill:none;stroke:#000000;stroke-width:0.3;" x2="37.405" y1="-48.619"/>
  <line y2="-48.619" x1="46.322" style="fill:none;stroke:#000000;stroke-width:0.3;" x2="52.69" y1="-48.619"/>
  <line y2="-45.648" x1="2.024" style="fill:none;stroke:#000000;stroke-width:0.3;" x2="0" y1="-45.648"/>
  <line y2="-45.648" x1="4.604" style="fill:none;stroke:#000000;stroke-width:0.3;" x2="5.972" y1="-45.648"/>
  <line y2="-45.648" x1="10.974" style="fill:none;stroke:#000000;stroke-width:0.3;" x2="5.972" y1="-45.648"/>
  <line y2="-45.648" x1="13.521" style="fill:none;stroke:#000000;stroke-width:0.3;" x2="19.891" y1="-45.648"/>
  <line y2="-45.648" x1="23.825" style="fill:none;stroke:#000000;stroke-width:0.3;" x2="28.807" y1="-45.648"/>
  <line y2="-45.648" x1="23.825" style="fill:none;stroke:#000000;stroke-width:0.3;" x2="22.438" y1="-45.648"/>
  <line y2="-45.648" x1="31.354" style="fill:none;stroke:#000000;stroke-width:0.3;" x2="37.724" y1="-45.648"/>
  <line y2="-45.648" x1="41.597" style="fill:none;stroke:#000000;stroke-width:0.3;" x2="40.271" y1="-45.648"/>
  <line y2="-45.648" x1="41.597" style="fill:none;stroke:#000000;stroke-width:0.3;" x2="46.641" y1="-45.648"/>
  <line y2="-45.648" x1="49.188" style="fill:none;stroke:#000000;stroke-width:0.3;" x2="53.584" y1="-45.648"/>
  <line y2="-42.844" x1="7.312" style="fill:none;stroke:#000000;stroke-width:0.3;" x2="0.942" y1="-42.844"/>
  <line y2="-42.844" x1="16.229" style="fill:none;stroke:#000000;stroke-width:0.3;" x2="9.859" y1="-42.844"/>
  <line y2="-42.844" x1="25.145" style="fill:none;stroke:#000000;stroke-width:0.3;" x2="18.775" y1="-42.844"/>
  <line y2="-42.844" x1="34.062" style="fill:none;stroke:#000000;stroke-width:0.3;" x2="27.692" y1="-42.844"/>
  <line y2="-42.844" x1="42.979" style="fill:none;stroke:#000000;stroke-width:0.3;" x2="36.609" y1="-42.844"/>
  <line y2="-42.844" x1="51.895" style="fill:none;stroke:#000000;stroke-width:0.3;" x2="45.525" y1="-42.844"/>
  <line y2="-39.874" x1="1.706" style="fill:none;stroke:#000000;stroke-width:0.3;" x2="0" y1="-39.874"/>
  <line y2="-39.874" x1="4.286" style="fill:none;stroke:#000000;stroke-width:0.3;" x2="5.35" y1="-39.874"/>
  <line y2="-39.874" x1="5.35" style="fill:none;stroke:#000000;stroke-width:0.3;" x2="10.655" y1="-39.874"/>
  <line y2="-39.874" x1="19.572" style="fill:none;stroke:#000000;stroke-width:0.3;" x2="13.203" y1="-39.874"/>
  <line y2="-39.874" x1="23.39" style="fill:none;stroke:#000000;stroke-width:0.3;" x2="22.119" y1="-39.874"/>
  <line y2="-39.874" x1="23.39" style="fill:none;stroke:#000000;stroke-width:0.3;" x2="28.488" y1="-39.874"/>
  <line y2="-39.874" x1="31.036" style="fill:none;stroke:#000000;stroke-width:0.3;" x2="37.405" y1="-39.874"/>
  <line y2="-39.874" x1="41.16" style="fill:none;stroke:#000000;stroke-width:0.3;" x2="46.322" y1="-39.874"/>
  <line y2="-39.874" x1="39.953" style="fill:none;stroke:#000000;stroke-width:0.3;" x2="41.16" y1="-39.874"/>
  <line y2="-39.874" x1="48.869" style="fill:none;stroke:#000000;stroke-width:0.3;" x2="53.584" y1="-39.874"/>
  <line y2="-36.869" x1="5.242" style="fill:none;stroke:#000000;stroke-width:0.3;" x2="0" y1="-36.869"/>
  <line y2="-36.869" x1="14.158" style="fill:none;stroke:#000000;stroke-width:0.3;" x2="7.789" y1="-36.869"/>
  <line y2="-36.869" x1="16.706" style="fill:none;stroke:#000000;stroke-width:0.3;" x2="23.075" y1="-36.869"/>
  <line y2="-36.869" x1="31.991" style="fill:none;stroke:#000000;stroke-width:0.3;" x2="25.622" y1="-36.869"/>
  <line y2="-36.869" x1="34.539" style="fill:none;stroke:#000000;stroke-width:0.3;" x2="40.908" y1="-36.869"/>
  <line y2="-36.869" x1="43.456" style="fill:none;stroke:#000000;stroke-width:0.3;" x2="49.825" y1="-36.869"/>
  <line y2="-36.869" x1="52.372" style="fill:none;stroke:#000000;stroke-width:0.3;" x2="53.584" y1="-36.869"/>
  <line y2="-33.986" x1="2.184" style="fill:none;stroke:#000000;stroke-width:0.3;" x2="0" y1="-33.986"/>
  <line y2="-33.986" x1="11.133" style="fill:none;stroke:#000000;stroke-width:0.3;" x2="4.764" y1="-33.986"/>
  <line y2="-33.986" x1="13.681" style="fill:none;stroke:#000000;stroke-width:0.3;" x2="14.836" y1="-33.986"/>
  <line y2="-33.986" x1="20.05" style="fill:none;stroke:#000000;stroke-width:0.3;" x2="14.836" y1="-33.986"/>
  <line y2="-33.986" x1="28.966" style="fill:none;stroke:#000000;stroke-width:0.3;" x2="22.598" y1="-33.986"/>
  <line y2="-33.986" x1="32.794" style="fill:none;stroke:#000000;stroke-width:0.3;" x2="31.514" y1="-33.986"/>
  <line y2="-33.986" x1="37.883" style="fill:none;stroke:#000000;stroke-width:0.3;" x2="32.794" y1="-33.986"/>
  <line y2="-33.986" x1="46.8" style="fill:none;stroke:#000000;stroke-width:0.3;" x2="40.431" y1="-33.986"/>
  <line y2="-33.986" x1="49.347" style="fill:none;stroke:#000000;stroke-width:0.3;" x2="50.565" y1="-33.986"/>
  <line y2="-33.986" x1="50.565" style="fill:none;stroke:#000000;stroke-width:0.3;" x2="53.584" y1="-33.986"/>
  <line y2="-30.789" x1="6.675" style="fill:none;stroke:#000000;stroke-width:0.3;" x2="0.306" y1="-30.789"/>
  <line y2="-30.789" x1="15.592" style="fill:none;stroke:#000000;stroke-width:0.3;" x2="9.223" y1="-30.789"/>
  <line y2="-30.789" x1="24.508" style="fill:none;stroke:#000000;stroke-width:0.3;" x2="18.139" y1="-30.789"/>
  <line y2="-30.789" x1="27.056" style="fill:none;stroke:#000000;stroke-width:0.3;" x2="33.425" y1="-30.789"/>
  <line y2="-30.789" x1="35.972" style="fill:none;stroke:#000000;stroke-width:0.3;" x2="42.341" y1="-30.789"/>
  <line y2="-30.789" x1="44.889" style="fill:none;stroke:#000000;stroke-width:0.3;" x2="51.258" y1="-30.789"/>
  <line y2="-27.819" x1="3.457" style="fill:none;stroke:#000000;stroke-width:0.3;" x2="0" y1="-27.819"/>
  <line y2="-27.819" x1="12.407" style="fill:none;stroke:#000000;stroke-width:0.3;" x2="6.038" y1="-27.819"/>
  <line y2="-27.819" x1="14.954" style="fill:none;stroke:#000000;stroke-width:0.3;" x2="15.986" y1="-27.819"/>
  <line y2="-27.819" x1="21.323" style="fill:none;stroke:#000000;stroke-width:0.3;" x2="15.986" y1="-27.819"/>
  <line y2="-27.819" x1="23.871" style="fill:none;stroke:#000000;stroke-width:0.3;" x2="30.24" y1="-27.819"/>
  <line y2="-27.819" x1="34.007" style="fill:none;stroke:#000000;stroke-width:0.3;" x2="39.156" y1="-27.819"/>
  <line y2="-27.819" x1="34.007" style="fill:none;stroke:#000000;stroke-width:0.3;" x2="32.788" y1="-27.819"/>
  <line y2="-27.819" x1="41.704" style="fill:none;stroke:#000000;stroke-width:0.3;" x2="48.073" y1="-27.819"/>
  <line y2="-27.819" x1="50.621" style="fill:none;stroke:#000000;stroke-width:0.3;" x2="51.944" y1="-27.819"/>
  <line y2="-27.819" x1="51.944" style="fill:none;stroke:#000000;stroke-width:0.3;" x2="53.584" y1="-27.819"/>
  <line y2="-24.685" x1="1.579" style="fill:none;stroke:#000000;stroke-width:0.3;" x2="7.948" y1="-24.685"/>
  <line y2="-24.685" x1="16.865" style="fill:none;stroke:#000000;stroke-width:0.3;" x2="10.496" y1="-24.685"/>
  <line y2="-24.685" x1="25.782" style="fill:none;stroke:#000000;stroke-width:0.3;" x2="19.413" y1="-24.685"/>
  <line y2="-24.685" x1="34.698" style="fill:none;stroke:#000000;stroke-width:0.3;" x2="28.329" y1="-24.685"/>
  <line y2="-24.685" x1="43.615" style="fill:none;stroke:#000000;stroke-width:0.3;" x2="37.246" y1="-24.685"/>
  <line y2="-24.685" x1="46.163" style="fill:none;stroke:#000000;stroke-width:0.3;" x2="52.531" y1="-24.685"/>
  <line y2="-21.88" x1="2.98" style="fill:none;stroke:#000000;stroke-width:0.3;" x2="0" y1="-21.88"/>
  <line y2="-21.88" x1="11.929" style="fill:none;stroke:#000000;stroke-width:0.3;" x2="5.561" y1="-21.88"/>
  <line y2="-21.88" x1="14.477" style="fill:none;stroke:#000000;stroke-width:0.3;" x2="20.846" y1="-21.88"/>
  <line y2="-21.88" x1="23.394" style="fill:none;stroke:#000000;stroke-width:0.3;" x2="29.763" y1="-21.88"/>
  <line y2="-21.88" x1="32.31" style="fill:none;stroke:#000000;stroke-width:0.3;" x2="38.679" y1="-21.88"/>
  <line y2="-21.88" x1="41.227" style="fill:none;stroke:#000000;stroke-width:0.3;" x2="47.596" y1="-21.88"/>
  <line y2="-21.88" x1="50.144" style="fill:none;stroke:#000000;stroke-width:0.3;" x2="53.584" y1="-21.88"/>
  <line y2="-18.744" x1="6.834" style="fill:none;stroke:#000000;stroke-width:0.3;" x2="0.465" y1="-18.744"/>
  <line y2="-18.744" x1="15.751" style="fill:none;stroke:#000000;stroke-width:0.3;" x2="9.382" y1="-18.744"/>
  <line y2="-18.744" x1="24.667" style="fill:none;stroke:#000000;stroke-width:0.3;" x2="18.298" y1="-18.744"/>
  <line y2="-18.744" x1="27.215" style="fill:none;stroke:#000000;stroke-width:0.3;" x2="33.584" y1="-18.744"/>
  <line y2="-18.744" x1="42.5" style="fill:none;stroke:#000000;stroke-width:0.3;" x2="36.132" y1="-18.744"/>
  <line y2="-18.744" x1="45.048" style="fill:none;stroke:#000000;stroke-width:0.3;" x2="51.417" y1="-18.744"/>
  <line y2="-15.774" x1="2.184" style="fill:none;stroke:#000000;stroke-width:0.3;" x2="0" y1="-15.774"/>
  <line y2="-15.774" x1="11.133" style="fill:none;stroke:#000000;stroke-width:0.3;" x2="4.764" y1="-15.774"/>
  <line y2="-15.774" x1="20.05" style="fill:none;stroke:#000000;stroke-width:0.3;" x2="13.681" y1="-15.774"/>
  <line y2="-15.774" x1="22.598" style="fill:none;stroke:#000000;stroke-width:0.3;" x2="28.966" y1="-15.774"/>
  <line y2="-15.774" x1="31.514" style="fill:none;stroke:#000000;stroke-width:0.3;" x2="37.883" y1="-15.774"/>
  <line y2="-15.774" x1="40.431" style="fill:none;stroke:#000000;stroke-width:0.3;" x2="46.8" y1="-15.774"/>
  <line y2="-15.774" x1="49.347" style="fill:none;stroke:#000000;stroke-width:0.3;" x2="53.584" y1="-15.774"/>
  <line y2="-12.805" x1="0" style="fill:none;stroke:#000000;stroke-width:0.3;" x2="1.339" y1="-12.805"/>
  <line y2="-12.805" x1="6.038" style="fill:none;stroke:#000000;stroke-width:0.3;" x2="1.339" y1="-12.805"/>
  <line y2="-12.805" x1="8.585" style="fill:none;stroke:#000000;stroke-width:0.3;" x2="14.954" y1="-12.805"/>
  <line y2="-12.805" x1="18.734" style="fill:none;stroke:#000000;stroke-width:0.3;" x2="17.502" y1="-12.805"/>
  <line y2="-12.805" x1="23.871" style="fill:none;stroke:#000000;stroke-width:0.3;" x2="18.734" y1="-12.805"/>
  <line y2="-12.805" x1="32.788" style="fill:none;stroke:#000000;stroke-width:0.3;" x2="26.419" y1="-12.805"/>
  <line y2="-12.805" x1="36.547" style="fill:none;stroke:#000000;stroke-width:0.3;" x2="35.335" y1="-12.805"/>
  <line y2="-12.805" x1="36.547" style="fill:none;stroke:#000000;stroke-width:0.3;" x2="41.704" y1="-12.805"/>
  <line y2="-12.805" x1="44.252" style="fill:none;stroke:#000000;stroke-width:0.3;" x2="50.621" y1="-12.805"/>
  <line y2="-12.805" x1="53.584" style="fill:none;stroke:#000000;stroke-width:0.3;" x2="53.169" y1="-12.805"/>
  <line y2="-10.009" x1="0" style="fill:none;stroke:#000000;stroke-width:0.3;" x2="3.139" y1="-10.009"/>
  <line y2="-10.009" x1="12.088" style="fill:none;stroke:#000000;stroke-width:0.3;" x2="5.72" y1="-10.009"/>
  <line y2="-10.009" x1="14.636" style="fill:none;stroke:#000000;stroke-width:0.3;" x2="21.005" y1="-10.009"/>
  <line y2="-10.009" x1="23.553" style="fill:none;stroke:#000000;stroke-width:0.3;" x2="29.922" y1="-10.009"/>
  <line y2="-10.009" x1="32.47" style="fill:none;stroke:#000000;stroke-width:0.3;" x2="38.838" y1="-10.009"/>
  <line y2="-10.009" x1="41.386" style="fill:none;stroke:#000000;stroke-width:0.3;" x2="47.755" y1="-10.009"/>
  <line y2="-10.009" x1="50.303" style="fill:none;stroke:#000000;stroke-width:0.3;" x2="53.584" y1="-10.009"/>
  <line y2="-6.873" x1="8.267" style="fill:none;stroke:#000000;stroke-width:0.3;" x2="1.898" y1="-6.873"/>
  <line y2="-6.873" x1="17.184" style="fill:none;stroke:#000000;stroke-width:0.3;" x2="10.814" y1="-6.873"/>
  <line y2="-6.873" x1="26.101" style="fill:none;stroke:#000000;stroke-width:0.3;" x2="19.732" y1="-6.873"/>
  <line y2="-6.873" x1="35.017" style="fill:none;stroke:#000000;stroke-width:0.3;" x2="28.647" y1="-6.873"/>
  <line y2="-6.873" x1="43.934" style="fill:none;stroke:#000000;stroke-width:0.3;" x2="37.564" y1="-6.873"/>
  <line y2="-6.873" x1="46.481" style="fill:none;stroke:#000000;stroke-width:0.3;" x2="52.85" y1="-6.873"/>
  <line y2="-3.903" x1="4.732" style="fill:none;stroke:#000000;stroke-width:0.3;" x2="0" y1="-3.903"/>
  <line y2="-3.903" x1="7.312" style="fill:none;stroke:#000000;stroke-width:0.3;" x2="13.681" y1="-3.903"/>
  <line y2="-3.903" x1="16.229" style="fill:none;stroke:#000000;stroke-width:0.3;" x2="22.598" y1="-3.903"/>
  <line y2="-3.903" x1="25.145" style="fill:none;stroke:#000000;stroke-width:0.3;" x2="31.514" y1="-3.903"/>
  <line y2="-3.903" x1="34.062" style="fill:none;stroke:#000000;stroke-width:0.3;" x2="40.431" y1="-3.903"/>
  <line y2="-3.903" x1="42.979" style="fill:none;stroke:#000000;stroke-width:0.3;" x2="49.347" y1="-3.903"/>
  <line y2="-3.903" x1="51.895" style="fill:none;stroke:#000000;stroke-width:0.3;" x2="53.584" y1="-3.903"/>
  <line y2="-0.934" x1="8.585" style="fill:none;stroke:#000000;stroke-width:0.3;" x2="2.217" y1="-0.934"/>
  <line y2="-0.934" x1="17.502" style="fill:none;stroke:#000000;stroke-width:0.3;" x2="11.133" y1="-0.934"/>
  <line y2="-0.934" x1="26.419" style="fill:none;stroke:#000000;stroke-width:0.3;" x2="20.05" y1="-0.934"/>
  <line y2="-0.934" x1="35.335" style="fill:none;stroke:#000000;stroke-width:0.3;" x2="28.966" y1="-0.934"/>
  <line y2="-0.934" x1="44.252" style="fill:none;stroke:#000000;stroke-width:0.3;" x2="37.883" y1="-0.934"/>
  <line y2="-0.934" x1="53.169" style="fill:none;stroke:#000000;stroke-width:0.3;" x2="46.8" y1="-0.934"/>
  <line y2="-53.225" x1="7.666" style="fill:none;stroke:#000000;stroke-width:0.3;" x2="8.752" y1="-51.812"/>
  <line y2="-53.225" x1="25.604" style="fill:none;stroke:#000000;stroke-width:0.3;" x2="26.69" y1="-51.812"/>
  <line y2="-53.225" x1="43.625" style="fill:none;stroke:#000000;stroke-width:0.3;" x2="44.71" y1="-51.812"/>
  <line y2="-50.037" x1="47.791" style="fill:none;stroke:#000000;stroke-width:0.3;" x2="48.877" y1="-48.625"/>
  <line y2="-50.037" x1="29.979" style="fill:none;stroke:#000000;stroke-width:0.3;" x2="31.065" y1="-48.625"/>
  <line y2="-50.037" x1="11.833" style="fill:none;stroke:#000000;stroke-width:0.3;" x2="12.918" y1="-48.625"/>
  <line y2="-45.648" x1="5.938" style="fill:none;stroke:#000000;stroke-width:0.3;" x2="5.972" y1="-45.604"/>
  <line y2="-47.017" x1="5.972" style="fill:none;stroke:#000000;stroke-width:0.3;" x2="7.023" y1="-45.648"/>
  <line y2="-47.017" x1="23.825" style="fill:none;stroke:#000000;stroke-width:0.3;" x2="24.877" y1="-45.648"/>
  <line y2="-45.648" x1="23.791" style="fill:none;stroke:#000000;stroke-width:0.3;" x2="23.825" y1="-45.604"/>
  <line y2="-45.648" x1="41.562" style="fill:none;stroke:#000000;stroke-width:0.3;" x2="41.597" y1="-45.604"/>
  <line y2="-47.017" x1="41.597" style="fill:none;stroke:#000000;stroke-width:0.3;" x2="42.647" y1="-45.648"/>
  <line y2="-44.308" x1="37.916" style="fill:none;stroke:#000000;stroke-width:0.3;" x2="39.002" y1="-42.896"/>
  <line y2="-44.308" x1="20.166" style="fill:none;stroke:#000000;stroke-width:0.3;" x2="21.252" y1="-42.896"/>
  <line y2="-44.308" x1="2.208" style="fill:none;stroke:#000000;stroke-width:0.3;" x2="3.293" y1="-42.896"/>
  <line y2="-39.854" x1="41.16" style="fill:none;stroke:#000000;stroke-width:0.3;" x2="41.146" y1="-39.874"/>
  <line y2="-41.267" x1="41.16" style="fill:none;stroke:#000000;stroke-width:0.3;" x2="42.23" y1="-39.874"/>
  <line y2="-41.267" x1="23.39" style="fill:none;stroke:#000000;stroke-width:0.3;" x2="24.46" y1="-39.874"/>
  <line y2="-39.874" x1="23.375" style="fill:none;stroke:#000000;stroke-width:0.3;" x2="23.39" y1="-39.854"/>
  <line y2="-39.874" x1="5.335" style="fill:none;stroke:#000000;stroke-width:0.3;" x2="5.35" y1="-39.854"/>
  <line y2="-41.267" x1="5.35" style="fill:none;stroke:#000000;stroke-width:0.3;" x2="6.421" y1="-39.874"/>
  <line y2="-36.896" x1="45.775" style="fill:none;stroke:#000000;stroke-width:0.3;" x2="44.689" y1="-38.308"/>
  <line y2="-36.896" x1="28.024" style="fill:none;stroke:#000000;stroke-width:0.3;" x2="26.94" y1="-38.308"/>
  <line y2="-38.308" x1="9.044" style="fill:none;stroke:#000000;stroke-width:0.3;" x2="10.129" y1="-36.896"/>
  <line y2="-33.958" x1="32.794" style="fill:none;stroke:#000000;stroke-width:0.3;" x2="32.772" y1="-33.986"/>
  <line y2="-33.986" x1="33.858" style="fill:none;stroke:#000000;stroke-width:0.3;" x2="32.794" y1="-35.37"/>
  <line y2="-35.37" x1="50.565" style="fill:none;stroke:#000000;stroke-width:0.3;" x2="51.629" y1="-33.986"/>
  <line y2="-33.958" x1="50.565" style="fill:none;stroke:#000000;stroke-width:0.3;" x2="50.544" y1="-33.986"/>
  <line y2="-33.986" x1="14.814" style="fill:none;stroke:#000000;stroke-width:0.3;" x2="14.836" y1="-33.958"/>
  <line y2="-33.986" x1="15.899" style="fill:none;stroke:#000000;stroke-width:0.3;" x2="14.836" y1="-35.37"/>
  <line y2="-30.833" x1="47.087" style="fill:none;stroke:#000000;stroke-width:0.3;" x2="46.002" y1="-32.245"/>
  <line y2="-30.833" x1="29.379" style="fill:none;stroke:#000000;stroke-width:0.3;" x2="28.294" y1="-32.245"/>
  <line y2="-32.245" x1="10.481" style="fill:none;stroke:#000000;stroke-width:0.3;" x2="11.566" y1="-30.833"/>
  <line y2="-27.819" x1="15.981" style="fill:none;stroke:#000000;stroke-width:0.3;" x2="15.986" y1="-27.812"/>
  <line y2="-27.819" x1="17.066" style="fill:none;stroke:#000000;stroke-width:0.3;" x2="15.986" y1="-29.225"/>
  <line y2="-29.225" x1="34.007" style="fill:none;stroke:#000000;stroke-width:0.3;" x2="35.087" y1="-27.819"/>
  <line y2="-27.812" x1="34.007" style="fill:none;stroke:#000000;stroke-width:0.3;" x2="34.002" y1="-27.819"/>
  <line y2="-29.225" x1="51.944" style="fill:none;stroke:#000000;stroke-width:0.3;" x2="53.024" y1="-27.819"/>
  <line y2="-27.812" x1="51.944" style="fill:none;stroke:#000000;stroke-width:0.3;" x2="51.939" y1="-27.819"/>
  <line y2="-26.12" x1="38.564" style="fill:none;stroke:#000000;stroke-width:0.3;" x2="39.649" y1="-24.708"/>
  <line y2="-26.12" x1="20.752" style="fill:none;stroke:#000000;stroke-width:0.3;" x2="21.837" y1="-24.708"/>
  <line y2="-26.12" x1="2.9" style="fill:none;stroke:#000000;stroke-width:0.3;" x2="3.985" y1="-24.708"/>
  <line y2="-23.299" x1="6.921" style="fill:none;stroke:#000000;stroke-width:0.3;" x2="8.006" y1="-21.887"/>
  <line y2="-23.299" x1="24.796" style="fill:none;stroke:#000000;stroke-width:0.3;" x2="25.881" y1="-21.887"/>
  <line y2="-21.887" x1="43.506" style="fill:none;stroke:#000000;stroke-width:0.3;" x2="42.421" y1="-23.299"/>
  <line y2="-18.782" x1="38.506" style="fill:none;stroke:#000000;stroke-width:0.3;" x2="37.421" y1="-20.194"/>
  <line y2="-20.194" x1="19.525" style="fill:none;stroke:#000000;stroke-width:0.3;" x2="20.61" y1="-18.782"/>
  <line y2="-20.194" x1="1.691" style="fill:none;stroke:#000000;stroke-width:0.3;" x2="2.777" y1="-18.782"/>
  <line y2="-15.907" x1="7.298" style="fill:none;stroke:#000000;stroke-width:0.3;" x2="6.213" y1="-17.319"/>
  <line y2="-17.319" x1="24.066" style="fill:none;stroke:#000000;stroke-width:0.3;" x2="25.152" y1="-15.907"/>
  <line y2="-15.907" x1="42.84" style="fill:none;stroke:#000000;stroke-width:0.3;" x2="41.754" y1="-17.319"/>
  <line y2="-14.216" x1="36.547" style="fill:none;stroke:#000000;stroke-width:0.3;" x2="37.631" y1="-12.805"/>
  <line y2="-12.804" x1="36.547" style="fill:none;stroke:#000000;stroke-width:0.3;" x2="36.546" y1="-12.805"/>
  <line y2="-12.805" x1="19.818" style="fill:none;stroke:#000000;stroke-width:0.3;" x2="18.734" y1="-14.216"/>
  <line y2="-12.804" x1="18.734" style="fill:none;stroke:#000000;stroke-width:0.3;" x2="18.733" y1="-12.805"/>
  <line y2="-12.804" x1="1.339" style="fill:none;stroke:#000000;stroke-width:0.3;" x2="1.338" y1="-12.805"/>
  <line y2="-12.805" x1="2.423" style="fill:none;stroke:#000000;stroke-width:0.3;" x2="1.339" y1="-14.216"/>
  <line y2="-11.507" x1="42.733" style="fill:none;stroke:#000000;stroke-width:0.3;" x2="43.818" y1="-10.095"/>
  <line y2="-10.095" x1="25.943" style="fill:none;stroke:#000000;stroke-width:0.3;" x2="24.858" y1="-11.507"/>
  <line y2="-10.095" x1="7.965" style="fill:none;stroke:#000000;stroke-width:0.3;" x2="6.879" y1="-11.507"/>
  <line y2="-8.325" x1="12.088" style="fill:none;stroke:#000000;stroke-width:0.3;" x2="13.173" y1="-6.913"/>
  <line y2="-6.913" x1="31.048" style="fill:none;stroke:#000000;stroke-width:0.3;" x2="29.963" y1="-8.325"/>
  <line y2="-5.331" x1="44.275" style="fill:none;stroke:#000000;stroke-width:0.3;" x2="45.36" y1="-3.919"/>
  <line y2="-2.352" x1="39.177" style="fill:none;stroke:#000000;stroke-width:0.3;" x2="40.263" y1="-0.939"/>
  <line y2="-2.352" x1="21.302" style="fill:none;stroke:#000000;stroke-width:0.3;" x2="22.388" y1="-0.939"/>
  <line y2="-2.352" x1="3.364" style="fill:none;stroke:#000000;stroke-width:0.3;" x2="4.45" y1="-0.939"/>
  <line y2="-3.919" x1="27.631" style="fill:none;stroke:#000000;stroke-width:0.3;" x2="26.546" y1="-5.331"/>
  <line y2="-3.919" x1="9.568" style="fill:none;stroke:#000000;stroke-width:0.3;" x2="8.483" y1="-5.331"/>
  <line y2="-6.913" x1="49.215" style="fill:none;stroke:#000000;stroke-width:0.3;" x2="48.129" y1="-8.325"/>
 </g>
</svg>
