<?xml version="1.0"?>
<!-- Converted with SVG Converter - Version 0.9.5 (Compiled Fri Feb 21 09:53:38 2020) - Copyright (C) 2011 Nokia -->
<svg xmlns="http://www.w3.org/2000/svg" x="0px" y="0px" xmlns:xlink="http://www.w3.org/1999/xlink" height="54.125" viewBox="1.6 -55.725 54.242 54.125" version="1.1" xml:space="preserve" width="54.242" baseProfile="tiny">
 <g>
  <rect x="1.6" y="-55.725" height="54.125" width="54.242" style="fill:none;"/>
  <line y2="-54.037" y1="-54.037" style="fill:none;stroke:#000000;stroke-width:0.7;stroke-linecap:round;" x1="26.996" x2="26.996"/>
  <line y2="-54.037" y1="-54.037" style="fill:none;stroke:#000000;stroke-width:0.7;stroke-linecap:round;" x1="23.879" x2="23.879"/>
  <line y2="-54.037" y1="-54.037" style="fill:none;stroke:#000000;stroke-width:0.7;stroke-linecap:round;" x1="29.746" x2="29.746"/>
  <line y2="-54.037" y1="-54.037" style="fill:none;stroke:#000000;stroke-width:0.7;stroke-linecap:round;" x1="3.546" x2="3.546"/>
  <line y2="-54.037" y1="-54.037" style="fill:none;stroke:#000000;stroke-width:0.7;stroke-linecap:round;" x1="55.046" x2="55.046"/>
  <line y2="-54.037" y1="-54.037" style="fill:none;stroke:#000000;stroke-width:0.7;stroke-linecap:round;" x1="52.713" x2="52.713"/>
  <line y2="-49.771" y1="-49.771" style="fill:none;stroke:#000000;stroke-width:0.7;stroke-linecap:round;" x1="36.046" x2="36.046"/>
  <line y2="-49.771" y1="-49.771" style="fill:none;stroke:#000000;stroke-width:0.7;stroke-linecap:round;" x1="7.713" x2="7.713"/>
  <line y2="-49.771" y1="-49.771" style="fill:none;stroke:#000000;stroke-width:0.7;stroke-linecap:round;" x1="10.646" x2="10.646"/>
  <line y2="-45.754" y1="-45.754" style="fill:none;stroke:#000000;stroke-width:0.7;stroke-linecap:round;" x1="15.379" x2="15.379"/>
  <line y2="-45.754" y1="-45.754" style="fill:none;stroke:#000000;stroke-width:0.7;stroke-linecap:round;" x1="18.379" x2="18.379"/>
  <line y2="-45.754" y1="-45.754" style="fill:none;stroke:#000000;stroke-width:0.7;stroke-linecap:round;" x1="12.212" x2="12.212"/>
  <line y2="-34.654" y1="-34.654" style="fill:none;stroke:#000000;stroke-width:0.7;stroke-linecap:round;" x1="36.213" x2="36.213"/>
  <line y2="-34.654" y1="-34.654" style="fill:none;stroke:#000000;stroke-width:0.7;stroke-linecap:round;" x1="39.213" x2="39.213"/>
  <line y2="-34.654" y1="-34.654" style="fill:none;stroke:#000000;stroke-width:0.7;stroke-linecap:round;" x1="33.046" x2="33.046"/>
  <line y2="-34.654" y1="-34.654" style="fill:none;stroke:#000000;stroke-width:0.7;stroke-linecap:round;" x1="7.713" x2="7.713"/>
  <line y2="-34.654" y1="-34.654" style="fill:none;stroke:#000000;stroke-width:0.7;stroke-linecap:round;" x1="10.712" x2="10.712"/>
  <line y2="-34.654" y1="-34.654" style="fill:none;stroke:#000000;stroke-width:0.7;stroke-linecap:round;" x1="4.546" x2="4.546"/>
  <line y2="-30.854" y1="-30.854" style="fill:none;stroke:#000000;stroke-width:0.7;stroke-linecap:round;" x1="15.212" x2="15.212"/>
  <line y2="-30.854" y1="-30.854" style="fill:none;stroke:#000000;stroke-width:0.7;stroke-linecap:round;" x1="18.212" x2="18.212"/>
  <line y2="-30.854" y1="-30.854" style="fill:none;stroke:#000000;stroke-width:0.7;stroke-linecap:round;" x1="12.046" x2="12.046"/>
  <line y2="-30.854" y1="-30.854" style="fill:none;stroke:#000000;stroke-width:0.7;stroke-linecap:round;" x1="43.046" x2="43.046"/>
  <line y2="-30.854" y1="-30.854" style="fill:none;stroke:#000000;stroke-width:0.7;stroke-linecap:round;" x1="46.046" x2="46.046"/>
  <line y2="-30.854" y1="-30.854" style="fill:none;stroke:#000000;stroke-width:0.7;stroke-linecap:round;" x1="39.879" x2="39.879"/>
  <line y2="-26.854" y1="-26.854" style="fill:none;stroke:#000000;stroke-width:0.7;stroke-linecap:round;" x1="35.213" x2="35.213"/>
  <line y2="-26.854" y1="-26.854" style="fill:none;stroke:#000000;stroke-width:0.7;stroke-linecap:round;" x1="38.213" x2="38.213"/>
  <line y2="-26.854" y1="-26.854" style="fill:none;stroke:#000000;stroke-width:0.7;stroke-linecap:round;" x1="32.046" x2="32.046"/>
  <line y2="-26.854" y1="-26.854" style="fill:none;stroke:#000000;stroke-width:0.7;stroke-linecap:round;" x1="7.046" x2="7.046"/>
  <line y2="-26.854" y1="-26.854" style="fill:none;stroke:#000000;stroke-width:0.7;stroke-linecap:round;" x1="10.046" x2="10.046"/>
  <line y2="-26.854" y1="-26.854" style="fill:none;stroke:#000000;stroke-width:0.7;stroke-linecap:round;" x1="3.879" x2="3.879"/>
  <line y2="-22.854" y1="-22.854" style="fill:none;stroke:#000000;stroke-width:0.7;stroke-linecap:round;" x1="27.212" x2="27.212"/>
  <line y2="-22.854" y1="-22.854" style="fill:none;stroke:#000000;stroke-width:0.7;stroke-linecap:round;" x1="30.212" x2="30.212"/>
  <line y2="-22.854" y1="-22.854" style="fill:none;stroke:#000000;stroke-width:0.7;stroke-linecap:round;" x1="24.046" x2="24.046"/>
  <line y2="-19.188" y1="-19.188" style="fill:none;stroke:#000000;stroke-width:0.7;stroke-linecap:round;" x1="22.546" x2="22.546"/>
  <line y2="-19.188" y1="-19.188" style="fill:none;stroke:#000000;stroke-width:0.7;stroke-linecap:round;" x1="25.546" x2="25.546"/>
  <line y2="-19.188" y1="-19.188" style="fill:none;stroke:#000000;stroke-width:0.7;stroke-linecap:round;" x1="19.379" x2="19.379"/>
  <line y2="-19.188" y1="-19.188" style="fill:none;stroke:#000000;stroke-width:0.7;stroke-linecap:round;" x1="50.379" x2="50.379"/>
  <line y2="-19.188" y1="-19.188" style="fill:none;stroke:#000000;stroke-width:0.7;stroke-linecap:round;" x1="53.379" x2="53.379"/>
  <line y2="-19.188" y1="-19.188" style="fill:none;stroke:#000000;stroke-width:0.7;stroke-linecap:round;" x1="47.213" x2="47.213"/>
  <line y2="-15.688" y1="-15.688" style="fill:none;stroke:#000000;stroke-width:0.7;stroke-linecap:round;" x1="43.213" x2="43.213"/>
  <line y2="-15.688" y1="-15.688" style="fill:none;stroke:#000000;stroke-width:0.7;stroke-linecap:round;" x1="46.213" x2="46.213"/>
  <line y2="-15.688" y1="-15.688" style="fill:none;stroke:#000000;stroke-width:0.7;stroke-linecap:round;" x1="40.046" x2="40.046"/>
  <line y2="-15.688" y1="-15.688" style="fill:none;stroke:#000000;stroke-width:0.7;stroke-linecap:round;" x1="15.546" x2="15.546"/>
  <line y2="-15.688" y1="-15.688" style="fill:none;stroke:#000000;stroke-width:0.7;stroke-linecap:round;" x1="18.546" x2="18.546"/>
  <line y2="-15.688" y1="-15.688" style="fill:none;stroke:#000000;stroke-width:0.7;stroke-linecap:round;" x1="12.379" x2="12.379"/>
  <line y2="-12.021" y1="-12.021" style="fill:none;stroke:#000000;stroke-width:0.7;stroke-linecap:round;" x1="7.379" x2="7.379"/>
  <line y2="-12.021" y1="-12.021" style="fill:none;stroke:#000000;stroke-width:0.7;stroke-linecap:round;" x1="10.379" x2="10.379"/>
  <line y2="-12.021" y1="-12.021" style="fill:none;stroke:#000000;stroke-width:0.7;stroke-linecap:round;" x1="4.213" x2="4.213"/>
  <line y2="-12.021" y1="-12.021" style="fill:none;stroke:#000000;stroke-width:0.7;stroke-linecap:round;" x1="35.213" x2="35.213"/>
  <line y2="-12.021" y1="-12.021" style="fill:none;stroke:#000000;stroke-width:0.7;stroke-linecap:round;" x1="38.213" x2="38.213"/>
  <line y2="-12.021" y1="-12.021" style="fill:none;stroke:#000000;stroke-width:0.7;stroke-linecap:round;" x1="32.046" x2="32.046"/>
  <line y2="-7.921" y1="-7.921" style="fill:none;stroke:#000000;stroke-width:0.7;stroke-linecap:round;" x1="26.712" x2="26.712"/>
  <line y2="-7.921" y1="-7.921" style="fill:none;stroke:#000000;stroke-width:0.7;stroke-linecap:round;" x1="29.712" x2="29.712"/>
  <line y2="-7.921" y1="-7.921" style="fill:none;stroke:#000000;stroke-width:0.7;stroke-linecap:round;" x1="23.546" x2="23.546"/>
  <line y2="-4.137" y1="-4.137" style="fill:none;stroke:#000000;stroke-width:0.7;stroke-linecap:round;" x1="19.712" x2="19.712"/>
  <line y2="-4.137" y1="-4.137" style="fill:none;stroke:#000000;stroke-width:0.7;stroke-linecap:round;" x1="22.712" x2="22.712"/>
  <line y2="-4.137" y1="-4.137" style="fill:none;stroke:#000000;stroke-width:0.7;stroke-linecap:round;" x1="16.546" x2="16.546"/>
  <line y2="-4.088" y1="-4.088" style="fill:none;stroke:#000000;stroke-width:0.7;stroke-linecap:round;" x1="46.746" x2="46.746"/>
  <line y2="-4.088" y1="-4.088" style="fill:none;stroke:#000000;stroke-width:0.7;stroke-linecap:round;" x1="49.746" x2="49.746"/>
  <line y2="-4.088" y1="-4.088" style="fill:none;stroke:#000000;stroke-width:0.7;stroke-linecap:round;" x1="43.579" x2="43.579"/>
  <line y2="-7.921" y1="-7.921" style="fill:none;stroke:#000000;stroke-width:0.7;stroke-linecap:round;" x1="54.713" x2="54.713"/>
  <line y2="-7.921" y1="-7.921" style="fill:none;stroke:#000000;stroke-width:0.7;stroke-linecap:round;" x1="3.379" x2="3.379"/>
  <line y2="-7.921" y1="-7.921" style="fill:none;stroke:#000000;stroke-width:0.7;stroke-linecap:round;" x1="51.546" x2="51.546"/>
  <line y2="-22.854" y1="-22.854" style="fill:none;stroke:#000000;stroke-width:0.7;stroke-linecap:round;" x1="54.713" x2="54.713"/>
  <line y2="-22.854" y1="-22.854" style="fill:none;stroke:#000000;stroke-width:0.7;stroke-linecap:round;" x1="51.546" x2="51.546"/>
  <line y2="-22.854" y1="-22.854" style="fill:none;stroke:#000000;stroke-width:0.7;stroke-linecap:round;" x1="4.046" x2="4.046"/>
  <line y2="-45.754" y1="-45.754" style="fill:none;stroke:#000000;stroke-width:0.7;stroke-linecap:round;" x1="43.046" x2="43.046"/>
  <line y2="-45.754" y1="-45.754" style="fill:none;stroke:#000000;stroke-width:0.7;stroke-linecap:round;" x1="46.213" x2="46.213"/>
  <line y2="-45.754" y1="-45.754" style="fill:none;stroke:#000000;stroke-width:0.7;stroke-linecap:round;" x1="39.379" x2="39.379"/>
  <line y2="-41.604" y1="-41.604" style="fill:none;stroke:#000000;stroke-width:0.7;stroke-linecap:round;" x1="48.546" x2="48.546"/>
  <line y2="-41.604" y1="-41.604" style="fill:none;stroke:#000000;stroke-width:0.7;stroke-linecap:round;" x1="51.379" x2="51.379"/>
  <line y2="-41.604" y1="-41.604" style="fill:none;stroke:#000000;stroke-width:0.7;stroke-linecap:round;" x1="45.213" x2="45.213"/>
  <line y2="-41.604" y1="-41.604" style="fill:none;stroke:#000000;stroke-width:0.7;stroke-linecap:round;" x1="21.546" x2="21.546"/>
  <line y2="-41.604" y1="-41.604" style="fill:none;stroke:#000000;stroke-width:0.7;stroke-linecap:round;" x1="24.379" x2="24.379"/>
  <line y2="-41.604" y1="-41.604" style="fill:none;stroke:#000000;stroke-width:0.7;stroke-linecap:round;" x1="18.212" x2="18.212"/>
  <line y2="-37.854" y1="-37.854" style="fill:none;stroke:#000000;stroke-width:0.7;stroke-linecap:round;" x1="27.046" x2="27.046"/>
  <line y2="-37.854" y1="-37.854" style="fill:none;stroke:#000000;stroke-width:0.7;stroke-linecap:round;" x1="29.879" x2="29.879"/>
  <line y2="-37.854" y1="-37.854" style="fill:none;stroke:#000000;stroke-width:0.7;stroke-linecap:round;" x1="23.712" x2="23.712"/>
  <line y2="-37.854" y1="-37.854" style="fill:none;stroke:#000000;stroke-width:0.7;stroke-linecap:round;" x1="54.879" x2="54.879"/>
  <line y2="-37.854" y1="-37.854" style="fill:none;stroke:#000000;stroke-width:0.7;stroke-linecap:round;" x1="3.612" x2="3.612"/>
  <line y2="-37.854" y1="-37.854" style="fill:none;stroke:#000000;stroke-width:0.7;stroke-linecap:round;" x1="51.546" x2="51.546"/>
  <line y2="-49.771" y1="-49.771" style="fill:none;stroke:#000000;stroke-width:0.7;stroke-linecap:round;" x1="4.546" x2="4.546"/>
  <line y2="-49.771" y1="-49.771" style="fill:none;stroke:#000000;stroke-width:0.7;stroke-linecap:round;" x1="38.879" x2="38.879"/>
  <line y2="-49.771" y1="-49.771" style="fill:none;stroke:#000000;stroke-width:0.7;stroke-linecap:round;" x1="32.879" x2="32.879"/>
  <line y2="-51.975" y1="-51.975" style="fill:none;stroke:#000000;stroke-width:0.3;" x1="1.654" x2="55.779"/>
  <line y2="-47.8" y1="-47.8" style="fill:none;stroke:#000000;stroke-width:0.3;" x1="1.654" x2="55.779"/>
  <line y2="-43.612" y1="-43.612" style="fill:none;stroke:#000000;stroke-width:0.3;" x1="1.654" x2="55.779"/>
  <line y2="-14" y1="-14" style="fill:none;stroke:#000000;stroke-width:0.3;" x1="1.654" x2="55.842"/>
  <line y2="-10.225" y1="-10.225" style="fill:none;stroke:#000000;stroke-width:0.3;" x1="1.654" x2="55.779"/>
  <line y2="-39.594" y1="-39.594" style="fill:none;stroke:#000000;stroke-width:0.3;" x1="1.654" x2="55.779"/>
  <line y2="-36.312" y1="-36.312" style="fill:none;stroke:#000000;stroke-width:0.3;" x1="1.654" x2="55.779"/>
  <line y2="-32.887" y1="-32.887" style="fill:none;stroke:#000000;stroke-width:0.3;" x1="1.654" x2="55.779"/>
  <line y2="-28.837" y1="-28.837" style="fill:none;stroke:#000000;stroke-width:0.3;" x1="1.654" x2="55.779"/>
  <line y2="-25.037" y1="-25.037" style="fill:none;stroke:#000000;stroke-width:0.3;" x1="1.654" x2="55.779"/>
  <line y2="-20.837" y1="-20.837" style="fill:none;stroke:#000000;stroke-width:0.3;" x1="1.654" x2="55.842"/>
  <line y2="-17.612" y1="-17.612" style="fill:none;stroke:#000000;stroke-width:0.3;" x1="1.654" x2="55.779"/>
  <line y2="-2.437" y1="-2.437" style="fill:none;stroke:#000000;stroke-width:0.3;" x1="1.654" x2="55.779"/>
  <line y2="-51.975" y1="-55.725" style="fill:none;stroke:#000000;stroke-width:0.3;" x1="7.579" x2="7.579"/>
  <line y2="-51.975" y1="-55.725" style="fill:none;stroke:#000000;stroke-width:0.3;" x1="20.329" x2="20.329"/>
  <line y2="-51.975" y1="-55.725" style="fill:none;stroke:#000000;stroke-width:0.3;" x1="33.829" x2="33.829"/>
  <line y2="-51.975" y1="-55.725" style="fill:none;stroke:#000000;stroke-width:0.3;" x1="48.204" x2="48.204"/>
  <line y2="-1.6" y1="-2.45" style="fill:none;stroke:#000000;stroke-width:0.3;" x1="7.579" x2="7.579"/>
  <line y2="-1.6" y1="-2.45" style="fill:none;stroke:#000000;stroke-width:0.3;" x1="20.329" x2="20.329"/>
  <line y2="-1.6" y1="-2.45" style="fill:none;stroke:#000000;stroke-width:0.3;" x1="33.829" x2="33.829"/>
  <line y2="-1.6" y1="-2.45" style="fill:none;stroke:#000000;stroke-width:0.3;" x1="48.204" x2="48.204"/>
  <line y2="-47.812" y1="-52.037" style="fill:none;stroke:#000000;stroke-width:0.3;" x1="14.254" x2="14.254"/>
  <line y2="-47.812" y1="-52.037" style="fill:none;stroke:#000000;stroke-width:0.3;" x1="29.129" x2="29.129"/>
  <line y2="-47.812" y1="-52.037" style="fill:none;stroke:#000000;stroke-width:0.3;" x1="42.754" x2="42.754"/>
  <line y2="-47.812" y1="-52.037" style="fill:none;stroke:#000000;stroke-width:0.3;" x1="55.579" x2="55.579"/>
  <line y2="-43.625" y1="-47.675" style="fill:none;stroke:#000000;stroke-width:0.3;" x1="8.692" x2="8.692"/>
  <line y2="-43.625" y1="-47.675" style="fill:none;stroke:#000000;stroke-width:0.3;" x1="21.942" x2="21.942"/>
  <line y2="-43.625" y1="-47.675" style="fill:none;stroke:#000000;stroke-width:0.3;" x1="35.504" x2="35.504"/>
  <line y2="-43.625" y1="-47.675" style="fill:none;stroke:#000000;stroke-width:0.3;" x1="50.442" x2="50.442"/>
  <line y2="-39.625" y1="-43.625" style="fill:none;stroke:#000000;stroke-width:0.3;" x1="41.817" x2="41.817"/>
  <line y2="-39.625" y1="-43.625" style="fill:none;stroke:#000000;stroke-width:0.3;" x1="28.442" x2="28.442"/>
  <line y2="-39.625" y1="-43.625" style="fill:none;stroke:#000000;stroke-width:0.3;" x1="13.567" x2="13.567"/>
  <line y2="-39.625" y1="-43.625" style="fill:none;stroke:#000000;stroke-width:0.3;" x1="55.067" x2="55.067"/>
  <line y2="-36.325" y1="-39.625" style="fill:none;stroke:#000000;stroke-width:0.3;" x1="48.204" x2="48.204"/>
  <line y2="-36.325" y1="-39.625" style="fill:none;stroke:#000000;stroke-width:0.3;" x1="33.579" x2="33.579"/>
  <line y2="-36.325" y1="-39.625" style="fill:none;stroke:#000000;stroke-width:0.3;" x1="20.329" x2="20.329"/>
  <line y2="-36.325" y1="-39.625" style="fill:none;stroke:#000000;stroke-width:0.3;" x1="7.579" x2="7.579"/>
  <line y2="-32.9" y1="-36.325" style="fill:none;stroke:#000000;stroke-width:0.3;" x1="14.129" x2="14.129"/>
  <line y2="-32.9" y1="-36.325" style="fill:none;stroke:#000000;stroke-width:0.3;" x1="29.129" x2="29.129"/>
  <line y2="-32.9" y1="-36.325" style="fill:none;stroke:#000000;stroke-width:0.3;" x1="42.879" x2="42.879"/>
  <line y2="-32.9" y1="-36.325" style="fill:none;stroke:#000000;stroke-width:0.3;" x1="55.629" x2="55.629"/>
  <line y2="-28.85" y1="-32.9" style="fill:none;stroke:#000000;stroke-width:0.3;" x1="8.317" x2="8.317"/>
  <line y2="-28.85" y1="-32.9" style="fill:none;stroke:#000000;stroke-width:0.3;" x1="21.817" x2="21.817"/>
  <line y2="-28.85" y1="-32.9" style="fill:none;stroke:#000000;stroke-width:0.3;" x1="35.442" x2="35.442"/>
  <line y2="-28.85" y1="-32.9" style="fill:none;stroke:#000000;stroke-width:0.3;" x1="50.317" x2="50.317"/>
  <line y2="-25.05" y1="-28.787" style="fill:none;stroke:#000000;stroke-width:0.3;" x1="41.692" x2="41.692"/>
  <line y2="-25.05" y1="-28.787" style="fill:none;stroke:#000000;stroke-width:0.3;" x1="28.367" x2="28.367"/>
  <line y2="-25.05" y1="-28.787" style="fill:none;stroke:#000000;stroke-width:0.3;" x1="13.367" x2="13.367"/>
  <line y2="-25.05" y1="-28.787" style="fill:none;stroke:#000000;stroke-width:0.3;" x1="54.921" x2="54.921"/>
  <line y2="-20.85" y1="-24.987" style="fill:none;stroke:#000000;stroke-width:0.3;" x1="7.179" x2="7.179"/>
  <line y2="-20.85" y1="-24.987" style="fill:none;stroke:#000000;stroke-width:0.3;" x1="20.179" x2="20.179"/>
  <line y2="-20.85" y1="-24.987" style="fill:none;stroke:#000000;stroke-width:0.3;" x1="33.804" x2="33.804"/>
  <line y2="-20.85" y1="-24.987" style="fill:none;stroke:#000000;stroke-width:0.3;" x1="48.054" x2="48.054"/>
  <line y2="-17.625" y1="-20.787" style="fill:none;stroke:#000000;stroke-width:0.3;" x1="43.854" x2="43.854"/>
  <line y2="-17.625" y1="-20.787" style="fill:none;stroke:#000000;stroke-width:0.3;" x1="29.704" x2="29.704"/>
  <line y2="-17.625" y1="-20.787" style="fill:none;stroke:#000000;stroke-width:0.3;" x1="14.579" x2="14.579"/>
  <line y2="-17.625" y1="-20.787" style="fill:none;stroke:#000000;stroke-width:0.3;" x1="2.162" x2="2.162"/>
  <line y2="-14" y1="-17.562" style="fill:none;stroke:#000000;stroke-width:0.3;" x1="8.538" x2="8.538"/>
  <line y2="-14" y1="-17.562" style="fill:none;stroke:#000000;stroke-width:0.3;" x1="21.788" x2="21.788"/>
  <line y2="-14" y1="-17.562" style="fill:none;stroke:#000000;stroke-width:0.3;" x1="35.412" x2="35.412"/>
  <line y2="-14" y1="-17.562" style="fill:none;stroke:#000000;stroke-width:0.3;" x1="50.287" x2="50.287"/>
  <line y2="-10.187" y1="-13.95" style="fill:none;stroke:#000000;stroke-width:0.3;" x1="41.938" x2="41.938"/>
  <line y2="-10.187" y1="-13.95" style="fill:none;stroke:#000000;stroke-width:0.3;" x1="28.063" x2="28.063"/>
  <line y2="-10.187" y1="-13.95" style="fill:none;stroke:#000000;stroke-width:0.3;" x1="13.512" x2="13.512"/>
  <line y2="-10.187" y1="-13.95" style="fill:none;stroke:#000000;stroke-width:0.3;" x1="55.388" x2="55.388"/>
  <line y2="-5.812" y1="-5.812" style="fill:none;stroke:#000000;stroke-width:0.3;" x1="1.654" x2="55.779"/>
  <line y2="-2.375" y1="-5.838" style="fill:none;stroke:#000000;stroke-width:0.3;" x1="11.95" x2="11.95"/>
  <line y2="-2.375" y1="-5.838" style="fill:none;stroke:#000000;stroke-width:0.3;" x1="26.388" x2="26.388"/>
  <line y2="-2.375" y1="-5.838" style="fill:none;stroke:#000000;stroke-width:0.3;" x1="40.013" x2="40.013"/>
  <line y2="-2.375" y1="-5.838" style="fill:none;stroke:#000000;stroke-width:0.3;" x1="53.388" x2="53.388"/>
  <line y2="-5.838" y1="-10.187" style="fill:none;stroke:#000000;stroke-width:0.3;" x1="6.225" x2="6.225"/>
  <line y2="-5.838" y1="-10.187" style="fill:none;stroke:#000000;stroke-width:0.3;" x1="19.225" x2="19.225"/>
  <line y2="-5.838" y1="-10.187" style="fill:none;stroke:#000000;stroke-width:0.3;" x1="33.225" x2="33.225"/>
  <line y2="-5.838" y1="-10.187" style="fill:none;stroke:#000000;stroke-width:0.3;" x1="47.787" x2="47.787"/>
  <line y2="-54.067" y1="-54.067" style="fill:none;stroke:#000000;stroke-width:0.3;" x1="10.413" x2="17.663"/>
  <line y2="-54.067" y1="-54.067" style="fill:none;stroke:#000000;stroke-width:0.3;" x1="37.537" x2="44.787"/>
  <line y2="-49.804" y1="-49.804" style="fill:none;stroke:#000000;stroke-width:0.3;" x1="17.913" x2="25.163"/>
  <line y2="-49.804" y1="-49.804" style="fill:none;stroke:#000000;stroke-width:0.3;" x1="45.662" x2="52.912"/>
  <line y2="-45.742" y1="-45.742" style="fill:none;stroke:#000000;stroke-width:0.3;" x1="25.163" x2="32.412"/>
  <line y2="-45.742" y1="-45.742" style="fill:none;stroke:#000000;stroke-width:0.3;" x1="1.6" x2="6.088"/>
  <line y2="-41.492" y1="-41.492" style="fill:none;stroke:#000000;stroke-width:0.3;" x1="31.837" x2="39.088"/>
  <line y2="-41.492" y1="-41.492" style="fill:none;stroke:#000000;stroke-width:0.3;" x1="3.463" x2="10.712"/>
  <line y2="-37.992" y1="-37.992" style="fill:none;stroke:#000000;stroke-width:0.3;" x1="37.088" x2="44.338"/>
  <line y2="-34.617" y1="-34.617" style="fill:none;stroke:#000000;stroke-width:0.3;" x1="45.838" x2="53.088"/>
  <line y2="-30.742" y1="-30.742" style="fill:none;stroke:#000000;stroke-width:0.3;" x1="52.963" x2="55.746"/>
  <line y2="-26.992" y1="-26.992" style="fill:none;stroke:#000000;stroke-width:0.3;" x1="44.838" x2="52.088"/>
  <line y2="-22.992" y1="-22.992" style="fill:none;stroke:#000000;stroke-width:0.3;" x1="37.463" x2="44.713"/>
  <line y2="-19.242" y1="-19.242" style="fill:none;stroke:#000000;stroke-width:0.3;" x1="33.338" x2="40.588"/>
  <line y2="-15.742" y1="-15.742" style="fill:none;stroke:#000000;stroke-width:0.3;" x1="25.212" x2="32.463"/>
  <line y2="-12.117" y1="-12.117" style="fill:none;stroke:#000000;stroke-width:0.3;" x1="17.087" x2="24.337"/>
  <line y2="-7.742" y1="-7.742" style="fill:none;stroke:#000000;stroke-width:0.3;" x1="8.962" x2="16.212"/>
  <line y2="-4.067" y1="-4.067" style="fill:none;stroke:#000000;stroke-width:0.3;" x1="1.837" x2="9.087"/>
  <line y2="-37.879" y1="-37.879" style="fill:none;stroke:#000000;stroke-width:0.3;" x1="10.212" x2="17.462"/>
  <line y2="-34.629" y1="-34.629" style="fill:none;stroke:#000000;stroke-width:0.3;" x1="17.587" x2="24.837"/>
  <line y2="-30.879" y1="-30.879" style="fill:none;stroke:#000000;stroke-width:0.3;" x1="24.962" x2="32.213"/>
  <line y2="-26.879" y1="-26.879" style="fill:none;stroke:#000000;stroke-width:0.3;" x1="17.462" x2="24.712"/>
  <line y2="-22.879" y1="-22.879" style="fill:none;stroke:#000000;stroke-width:0.3;" x1="10.087" x2="17.337"/>
  <line y2="-19.129" y1="-19.129" style="fill:none;stroke:#000000;stroke-width:0.3;" x1="4.838" x2="12.087"/>
  <line y2="-15.629" y1="-15.629" style="fill:none;stroke:#000000;stroke-width:0.3;" x1="1.6" x2="5.463"/>
  <line y2="-12.004" y1="-12.004" style="fill:none;stroke:#000000;stroke-width:0.3;" x1="45.338" x2="52.588"/>
  <line y2="-7.879" y1="-7.879" style="fill:none;stroke:#000000;stroke-width:0.3;" x1="36.963" x2="44.213"/>
  <line y2="-4.129" y1="-4.129" style="fill:none;stroke:#000000;stroke-width:0.3;" x1="29.587" x2="36.838"/>
  <line y2="-45.742" y1="-45.742" style="fill:none;stroke:#000000;stroke-width:0.3;" x1="52.912" x2="55.725"/>
  <line y2="-15.629" y1="-15.629" style="fill:none;stroke:#000000;stroke-width:0.3;" x1="52.912" x2="55.725"/>
  <line y2="-30.742" y1="-30.742" style="fill:none;stroke:#000000;stroke-width:0.3;" x1="1.663" x2="4.287"/>
 </g>
</svg>
