<?xml version="1.0"?>
<!-- Converted with SVG Converter - Version 0.9.5 (Compiled Fri Feb 21 09:53:38 2020) - Copyright (C) 2011 Nokia -->
<svg xmlns="http://www.w3.org/2000/svg" x="0px" width="54.125" y="0px" viewBox="0 -54.203 54.125 54.125" version="1.1" baseProfile="tiny" xml:space="preserve" xmlns:xlink="http://www.w3.org/1999/xlink" height="54.125">
 <g>
  <rect width="54.125" y="-54.203" style="fill:none;" height="54.125"/>
  <line x1="30.774" y2="-50.453" style="fill:none;stroke:#000000;stroke-width:0.3;" y1="-50.453" x2="28.349"/>
  <line x1="17.336" y2="-50.453" style="fill:none;stroke:#000000;stroke-width:0.3;" y1="-50.453" x2="28.349"/>
  <line x1="4.586" y2="-50.453" style="fill:none;stroke:#000000;stroke-width:0.3;" y1="-50.453" x2="17.336"/>
  <line x1="42.016" y2="-50.453" style="fill:none;stroke:#000000;stroke-width:0.3;" y1="-50.453" x2="45.149"/>
  <line x1="42.016" y2="-50.453" style="fill:none;stroke:#000000;stroke-width:0.3;" y1="-50.453" x2="30.774"/>
  <line x1="54.125" y2="-50.453" style="fill:none;stroke:#000000;stroke-width:0.3;" y1="-50.453" x2="45.149"/>
  <line x1="4.586" y2="-50.453" style="fill:none;stroke:#000000;stroke-width:0.3;" y1="-50.453" x2="0"/>
  <line x1="7.97" y2="-46.278" style="fill:none;stroke:#000000;stroke-width:0.3;" y1="-46.278" x2="0"/>
  <line x1="34.782" y2="-46.278" style="fill:none;stroke:#000000;stroke-width:0.3;" y1="-46.278" x2="7.97"/>
  <line x1="54.125" y2="-46.278" style="fill:none;stroke:#000000;stroke-width:0.3;" y1="-46.278" x2="34.782"/>
  <line x1="27.533" y2="-42.09" style="fill:none;stroke:#000000;stroke-width:0.3;" y1="-42.09" x2="12.72"/>
  <line x1="53.782" y2="-42.09" style="fill:none;stroke:#000000;stroke-width:0.3;" y1="-42.09" x2="54.125"/>
  <line x1="40.97" y2="-42.09" style="fill:none;stroke:#000000;stroke-width:0.3;" y1="-42.09" x2="53.782"/>
  <line x1="27.533" y2="-42.09" style="fill:none;stroke:#000000;stroke-width:0.3;" y1="-42.09" x2="40.97"/>
  <line x1="12.72" y2="-42.09" style="fill:none;stroke:#000000;stroke-width:0.3;" y1="-42.09" x2="0"/>
  <line x1="54.188" y2="-12.477" style="fill:none;stroke:#000000;stroke-width:0.3;" y1="-12.477" x2="54.125"/>
  <line x1="12.602" y2="-12.477" style="fill:none;stroke:#000000;stroke-width:0.3;" y1="-12.477" x2="27.102"/>
  <line x1="12.602" y2="-12.477" style="fill:none;stroke:#000000;stroke-width:0.3;" y1="-12.477" x2="0"/>
  <line x1="53.682" y2="-12.477" style="fill:none;stroke:#000000;stroke-width:0.3;" y1="-12.477" x2="54.125"/>
  <line x1="27.102" y2="-12.477" style="fill:none;stroke:#000000;stroke-width:0.3;" y1="-12.477" x2="41.102"/>
  <line x1="41.102" y2="-12.477" style="fill:none;stroke:#000000;stroke-width:0.3;" y1="-12.477" x2="53.682"/>
  <line x1="32.463" y2="-8.703" style="fill:none;stroke:#000000;stroke-width:0.3;" y1="-8.703" x2="24.789"/>
  <line x1="18.463" y2="-8.703" style="fill:none;stroke:#000000;stroke-width:0.3;" y1="-8.703" x2="24.789"/>
  <line x1="5.463" y2="-8.703" style="fill:none;stroke:#000000;stroke-width:0.3;" y1="-8.703" x2="0"/>
  <line x1="51.228" y2="-8.703" style="fill:none;stroke:#000000;stroke-width:0.3;" y1="-8.703" x2="54.125"/>
  <line x1="47.062" y2="-8.703" style="fill:none;stroke:#000000;stroke-width:0.3;" y1="-8.703" x2="38.789"/>
  <line x1="5.463" y2="-8.703" style="fill:none;stroke:#000000;stroke-width:0.3;" y1="-8.703" x2="10.289"/>
  <line x1="10.289" y2="-8.703" style="fill:none;stroke:#000000;stroke-width:0.3;" y1="-8.703" x2="18.463"/>
  <line x1="32.463" y2="-8.703" style="fill:none;stroke:#000000;stroke-width:0.3;" y1="-8.703" x2="38.789"/>
  <line x1="51.228" y2="-8.703" style="fill:none;stroke:#000000;stroke-width:0.3;" y1="-8.703" x2="47.062"/>
  <line x1="32.621" y2="-38.071" style="fill:none;stroke:#000000;stroke-width:0.3;" y1="-38.071" x2="19.309"/>
  <line x1="6.621" y2="-38.071" style="fill:none;stroke:#000000;stroke-width:0.3;" y1="-38.071" x2="0"/>
  <line x1="47.246" y2="-38.071" style="fill:none;stroke:#000000;stroke-width:0.3;" y1="-38.071" x2="54.125"/>
  <line x1="6.621" y2="-38.071" style="fill:none;stroke:#000000;stroke-width:0.3;" y1="-38.071" x2="19.309"/>
  <line x1="47.246" y2="-38.071" style="fill:none;stroke:#000000;stroke-width:0.3;" y1="-38.071" x2="32.621"/>
  <line x1="53.911" y2="-34.79" style="fill:none;stroke:#000000;stroke-width:0.3;" y1="-34.79" x2="41.853"/>
  <line x1="53.911" y2="-34.79" style="fill:none;stroke:#000000;stroke-width:0.3;" y1="-34.79" x2="54.125"/>
  <line x1="28.041" y2="-34.79" style="fill:none;stroke:#000000;stroke-width:0.3;" y1="-34.79" x2="13.04"/>
  <line x1="28.041" y2="-34.79" style="fill:none;stroke:#000000;stroke-width:0.3;" y1="-34.79" x2="41.853"/>
  <line x1="13.04" y2="-34.79" style="fill:none;stroke:#000000;stroke-width:0.3;" y1="-34.79" x2="0"/>
  <line x1="34.61" y2="-31.365" style="fill:none;stroke:#000000;stroke-width:0.3;" y1="-31.365" x2="20.922"/>
  <line x1="51.711" y2="-31.365" style="fill:none;stroke:#000000;stroke-width:0.3;" y1="-31.365" x2="54.125"/>
  <line x1="7.485" y2="-31.365" style="fill:none;stroke:#000000;stroke-width:0.3;" y1="-31.365" x2="0"/>
  <line x1="34.61" y2="-31.365" style="fill:none;stroke:#000000;stroke-width:0.3;" y1="-31.365" x2="49.547"/>
  <line x1="51.711" y2="-31.365" style="fill:none;stroke:#000000;stroke-width:0.3;" y1="-31.365" x2="49.547"/>
  <line x1="7.485" y2="-31.365" style="fill:none;stroke:#000000;stroke-width:0.3;" y1="-31.365" x2="20.922"/>
  <line x1="54.055" y2="-27.315" style="fill:none;stroke:#000000;stroke-width:0.3;" y1="-27.315" x2="40.867"/>
  <line x1="54.055" y2="-27.315" style="fill:none;stroke:#000000;stroke-width:0.3;" y1="-27.315" x2="54.125"/>
  <line x1="27.492" y2="-27.315" style="fill:none;stroke:#000000;stroke-width:0.3;" y1="-27.315" x2="12.492"/>
  <line x1="12.492" y2="-27.315" style="fill:none;stroke:#000000;stroke-width:0.3;" y1="-27.315" x2="0"/>
  <line x1="40.867" y2="-27.315" style="fill:none;stroke:#000000;stroke-width:0.3;" y1="-27.315" x2="27.492"/>
  <line x1="54.125" y2="-23.515" style="fill:none;stroke:#000000;stroke-width:0.3;" y1="-23.515" x2="0"/>
  <line x1="54.125" y2="-19.315" style="fill:none;stroke:#000000;stroke-width:0.3;" y1="-19.315" x2="0"/>
  <line x1="51.821" y2="-16.09" style="fill:none;stroke:#000000;stroke-width:0.3;" y1="-16.09" x2="54.125"/>
  <line x1="51.821" y2="-16.09" style="fill:none;stroke:#000000;stroke-width:0.3;" y1="-16.09" x2="0"/>
  <line x1="50.39" y2="-0.915" style="fill:none;stroke:#000000;stroke-width:0.3;" y1="-0.915" x2="54.125"/>
  <line x1="9.015" y2="-0.915" style="fill:none;stroke:#000000;stroke-width:0.3;" y1="-0.915" x2="0"/>
  <line x1="23.328" y2="-0.915" style="fill:none;stroke:#000000;stroke-width:0.3;" y1="-0.915" x2="37.015"/>
  <line x1="9.015" y2="-0.915" style="fill:none;stroke:#000000;stroke-width:0.3;" y1="-0.915" x2="23.328"/>
  <line x1="37.015" y2="-0.915" style="fill:none;stroke:#000000;stroke-width:0.3;" y1="-0.915" x2="50.39"/>
  <line x1="54.125" y2="-4.29" style="fill:none;stroke:#000000;stroke-width:0.3;" y1="-4.29" x2="0"/>
  <line x1="5.463" y2="-4.315" style="fill:none;stroke:#000000;stroke-width:0.3;" y1="-8.703" x2="2.871"/>
  <line x1="5.463" y2="-8.765" style="fill:none;stroke:#000000;stroke-width:0.3;" y1="-8.703" x2="5.5"/>
  <line x1="15.871" y2="-8.703" style="fill:none;stroke:#000000;stroke-width:0.3;" y1="-4.315" x2="18.463"/>
  <line x1="18.463" y2="-8.765" style="fill:none;stroke:#000000;stroke-width:0.3;" y1="-8.703" x2="18.5"/>
  <line x1="32.463" y2="-4.315" style="fill:none;stroke:#000000;stroke-width:0.3;" y1="-8.703" x2="29.871"/>
  <line x1="32.463" y2="-8.765" style="fill:none;stroke:#000000;stroke-width:0.3;" y1="-8.703" x2="32.5"/>
  <line x1="47.062" y2="-4.315" style="fill:none;stroke:#000000;stroke-width:0.3;" y1="-8.703" x2="44.433"/>
  <line x1="50.39" y2="-4.265" style="fill:none;stroke:#000000;stroke-width:0.3;" y1="-0.915" x2="52.438"/>
  <line x1="50.39" y2="-0.89" style="fill:none;stroke:#000000;stroke-width:0.3;" y1="-0.915" x2="50.375"/>
  <line x1="37.015" y2="-4.265" style="fill:none;stroke:#000000;stroke-width:0.3;" y1="-0.915" x2="39.062"/>
  <line x1="37.015" y2="-0.89" style="fill:none;stroke:#000000;stroke-width:0.3;" y1="-0.915" x2="37"/>
  <line x1="23.328" y2="-4.265" style="fill:none;stroke:#000000;stroke-width:0.3;" y1="-0.915" x2="25.375"/>
  <line x1="23.328" y2="-0.89" style="fill:none;stroke:#000000;stroke-width:0.3;" y1="-0.915" x2="23.312"/>
  <line x1="9.015" y2="-0.89" style="fill:none;stroke:#000000;stroke-width:0.3;" y1="-0.915" x2="9"/>
  <line x1="9.015" y2="-4.265" style="fill:none;stroke:#000000;stroke-width:0.3;" y1="-0.915" x2="11.062"/>
  <line x1="51.228" y2="-8.64" style="fill:none;stroke:#000000;stroke-width:0.3;" y1="-8.703" x2="51.188"/>
  <line x1="53.682" y2="-12.498" style="fill:none;stroke:#000000;stroke-width:0.3;" y1="-12.477" x2="53.696"/>
  <line x1="51.228" y2="-12.477" style="fill:none;stroke:#000000;stroke-width:0.3;" y1="-8.703" x2="53.682"/>
  <line x1="47.312" y2="-16.078" style="fill:none;stroke:#000000;stroke-width:0.3;" y1="-12.515" x2="49.438"/>
  <line x1="44.812" y2="-23.453" style="fill:none;stroke:#000000;stroke-width:0.3;" y1="-19.39" x2="47.375"/>
  <line x1="51.821" y2="-16.078" style="fill:none;stroke:#000000;stroke-width:0.3;" y1="-16.09" x2="51.812"/>
  <line x1="51.821" y2="-19.29" style="fill:none;stroke:#000000;stroke-width:0.3;" y1="-16.09" x2="53.862"/>
  <line x1="54.055" y2="-23.578" style="fill:none;stroke:#000000;stroke-width:0.3;" y1="-27.315" x2="51.812"/>
  <line x1="54.062" y2="-27.315" style="fill:none;stroke:#000000;stroke-width:0.3;" y1="-27.328" x2="54.055"/>
  <line x1="49.547" y2="-27.328" style="fill:none;stroke:#000000;stroke-width:0.3;" y1="-31.365" x2="47.125"/>
  <line x1="49.547" y2="-31.39" style="fill:none;stroke:#000000;stroke-width:0.3;" y1="-31.365" x2="49.562"/>
  <line x1="53.911" y2="-34.811" style="fill:none;stroke:#000000;stroke-width:0.3;" y1="-34.79" x2="53.925"/>
  <line x1="51.711" y2="-34.79" style="fill:none;stroke:#000000;stroke-width:0.3;" y1="-31.365" x2="53.911"/>
  <line x1="51.711" y2="-31.328" style="fill:none;stroke:#000000;stroke-width:0.3;" y1="-31.365" x2="51.688"/>
  <line x1="47.246" y2="-38.078" style="fill:none;stroke:#000000;stroke-width:0.3;" y1="-38.071" x2="47.25"/>
  <line x1="47.246" y2="-34.828" style="fill:none;stroke:#000000;stroke-width:0.3;" y1="-38.071" x2="45.25"/>
  <line x1="51.359" y2="-42.09" style="fill:none;stroke:#000000;stroke-width:0.3;" y1="-38.078" x2="53.782"/>
  <line x1="53.782" y2="-42.14" style="fill:none;stroke:#000000;stroke-width:0.3;" y1="-42.09" x2="53.812"/>
  <line x1="46.188" y2="-46.249" style="fill:none;stroke:#000000;stroke-width:0.3;" y1="-42.14" x2="48.841"/>
  <line x1="53.904" y2="-46.328" style="fill:none;stroke:#000000;stroke-width:0.3;" y1="-50.436" x2="51.292"/>
  <line x1="45.149" y2="-50.44" style="fill:none;stroke:#000000;stroke-width:0.3;" y1="-50.453" x2="45.142"/>
  <line x1="45.149" y2="-54.203" style="fill:none;stroke:#000000;stroke-width:0.3;" y1="-50.453" x2="47.433"/>
  <line x1="38.75" y2="-8.703" style="fill:none;stroke:#000000;stroke-width:0.3;" y1="-8.64" x2="38.789"/>
  <line x1="38.789" y2="-12.477" style="fill:none;stroke:#000000;stroke-width:0.3;" y1="-8.703" x2="41.102"/>
  <line x1="41.102" y2="-12.515" style="fill:none;stroke:#000000;stroke-width:0.3;" y1="-12.477" x2="41.125"/>
  <line x1="27.102" y2="-12.515" style="fill:none;stroke:#000000;stroke-width:0.3;" y1="-12.477" x2="27.125"/>
  <line x1="24.75" y2="-8.703" style="fill:none;stroke:#000000;stroke-width:0.3;" y1="-8.64" x2="24.789"/>
  <line x1="24.789" y2="-12.477" style="fill:none;stroke:#000000;stroke-width:0.3;" y1="-8.703" x2="27.102"/>
  <line x1="12.602" y2="-8.703" style="fill:none;stroke:#000000;stroke-width:0.3;" y1="-12.477" x2="10.289"/>
  <line x1="12.602" y2="-12.515" style="fill:none;stroke:#000000;stroke-width:0.3;" y1="-12.477" x2="12.625"/>
  <line x1="10.25" y2="-8.703" style="fill:none;stroke:#000000;stroke-width:0.3;" y1="-8.64" x2="10.289"/>
  <line x1="32.438" y2="-16.078" style="fill:none;stroke:#000000;stroke-width:0.3;" y1="-12.515" x2="34.562"/>
  <line x1="18.75" y2="-16.078" style="fill:none;stroke:#000000;stroke-width:0.3;" y1="-12.515" x2="20.875"/>
  <line x1="5.5" y2="-16.078" style="fill:none;stroke:#000000;stroke-width:0.3;" y1="-12.515" x2="7.625"/>
  <line x1="40" y2="-19.265" style="fill:none;stroke:#000000;stroke-width:0.3;" y1="-16.14" x2="41.938"/>
  <line x1="25.75" y2="-19.265" style="fill:none;stroke:#000000;stroke-width:0.3;" y1="-16.14" x2="27.688"/>
  <line x1="10.688" y2="-19.265" style="fill:none;stroke:#000000;stroke-width:0.3;" y1="-16.14" x2="12.625"/>
  <line x1="30.5" y2="-23.453" style="fill:none;stroke:#000000;stroke-width:0.3;" y1="-19.39" x2="33.062"/>
  <line x1="16.875" y2="-23.453" style="fill:none;stroke:#000000;stroke-width:0.3;" y1="-19.39" x2="19.438"/>
  <line x1="3.875" y2="-23.453" style="fill:none;stroke:#000000;stroke-width:0.3;" y1="-19.39" x2="6.438"/>
  <line x1="40.875" y2="-27.315" style="fill:none;stroke:#000000;stroke-width:0.3;" y1="-27.328" x2="40.867"/>
  <line x1="40.867" y2="-23.578" style="fill:none;stroke:#000000;stroke-width:0.3;" y1="-27.315" x2="38.625"/>
  <line x1="27.5" y2="-27.315" style="fill:none;stroke:#000000;stroke-width:0.3;" y1="-27.328" x2="27.492"/>
  <line x1="27.492" y2="-23.578" style="fill:none;stroke:#000000;stroke-width:0.3;" y1="-27.315" x2="25.25"/>
  <line x1="12.492" y2="-23.578" style="fill:none;stroke:#000000;stroke-width:0.3;" y1="-27.315" x2="10.25"/>
  <line x1="12.492" y2="-27.328" style="fill:none;stroke:#000000;stroke-width:0.3;" y1="-27.315" x2="12.5"/>
  <line x1="34.61" y2="-31.39" style="fill:none;stroke:#000000;stroke-width:0.3;" y1="-31.365" x2="34.625"/>
  <line x1="34.61" y2="-27.328" style="fill:none;stroke:#000000;stroke-width:0.3;" y1="-31.365" x2="32.188"/>
  <line x1="18.5" y2="-31.365" style="fill:none;stroke:#000000;stroke-width:0.3;" y1="-27.328" x2="20.922"/>
  <line x1="20.938" y2="-31.365" style="fill:none;stroke:#000000;stroke-width:0.3;" y1="-31.39" x2="20.922"/>
  <line x1="7.485" y2="-31.39" style="fill:none;stroke:#000000;stroke-width:0.3;" y1="-31.365" x2="7.5"/>
  <line x1="7.485" y2="-27.328" style="fill:none;stroke:#000000;stroke-width:0.3;" y1="-31.365" x2="5.062"/>
  <line x1="41.875" y2="-34.79" style="fill:none;stroke:#000000;stroke-width:0.3;" y1="-34.828" x2="41.853"/>
  <line x1="39.875" y2="-34.79" style="fill:none;stroke:#000000;stroke-width:0.3;" y1="-31.39" x2="41.853"/>
  <line x1="28.041" y2="-31.39" style="fill:none;stroke:#000000;stroke-width:0.3;" y1="-34.79" x2="26.062"/>
  <line x1="28.041" y2="-34.828" style="fill:none;stroke:#000000;stroke-width:0.3;" y1="-34.79" x2="28.062"/>
  <line x1="13.04" y2="-34.828" style="fill:none;stroke:#000000;stroke-width:0.3;" y1="-34.79" x2="13.062"/>
  <line x1="13.04" y2="-31.39" style="fill:none;stroke:#000000;stroke-width:0.3;" y1="-34.79" x2="11.062"/>
  <line x1="32.621" y2="-34.828" style="fill:none;stroke:#000000;stroke-width:0.3;" y1="-38.071" x2="30.625"/>
  <line x1="32.621" y2="-38.078" style="fill:none;stroke:#000000;stroke-width:0.3;" y1="-38.071" x2="32.625"/>
  <line x1="19.312" y2="-38.071" style="fill:none;stroke:#000000;stroke-width:0.3;" y1="-38.078" x2="19.309"/>
  <line x1="17.312" y2="-38.071" style="fill:none;stroke:#000000;stroke-width:0.3;" y1="-34.828" x2="19.309"/>
  <line x1="6.621" y2="-34.828" style="fill:none;stroke:#000000;stroke-width:0.3;" y1="-38.071" x2="4.625"/>
  <line x1="6.621" y2="-38.078" style="fill:none;stroke:#000000;stroke-width:0.3;" y1="-38.071" x2="6.625"/>
  <line x1="40.97" y2="-42.14" style="fill:none;stroke:#000000;stroke-width:0.3;" y1="-42.09" x2="41"/>
  <line x1="38.562" y2="-42.09" style="fill:none;stroke:#000000;stroke-width:0.3;" y1="-38.078" x2="40.97"/>
  <line x1="27.533" y2="-42.14" style="fill:none;stroke:#000000;stroke-width:0.3;" y1="-42.09" x2="27.562"/>
  <line x1="27.533" y2="-38.078" style="fill:none;stroke:#000000;stroke-width:0.3;" y1="-42.09" x2="25.125"/>
  <line x1="12.72" y2="-38.078" style="fill:none;stroke:#000000;stroke-width:0.3;" y1="-42.09" x2="10.312"/>
  <line x1="12.72" y2="-42.14" style="fill:none;stroke:#000000;stroke-width:0.3;" y1="-42.09" x2="12.75"/>
  <line x1="34.782" y2="-46.328" style="fill:none;stroke:#000000;stroke-width:0.3;" y1="-46.278" x2="34.812"/>
  <line x1="34.782" y2="-42.14" style="fill:none;stroke:#000000;stroke-width:0.3;" y1="-46.278" x2="32.25"/>
  <line x1="18.625" y2="-46.265" style="fill:none;stroke:#000000;stroke-width:0.3;" y1="-42.14" x2="21.125"/>
  <line x1="7.97" y2="-46.328" style="fill:none;stroke:#000000;stroke-width:0.3;" y1="-46.278" x2="8"/>
  <line x1="7.97" y2="-42.14" style="fill:none;stroke:#000000;stroke-width:0.3;" y1="-46.278" x2="5.438"/>
  <line x1="42.016" y2="-50.495" style="fill:none;stroke:#000000;stroke-width:0.3;" y1="-50.453" x2="42.042"/>
  <line x1="42.016" y2="-46.328" style="fill:none;stroke:#000000;stroke-width:0.3;" y1="-50.453" x2="39.5"/>
  <line x1="25.812" y2="-50.453" style="fill:none;stroke:#000000;stroke-width:0.3;" y1="-46.328" x2="28.349"/>
  <line x1="28.375" y2="-50.453" style="fill:none;stroke:#000000;stroke-width:0.3;" y1="-50.495" x2="28.349"/>
  <line x1="13.458" y2="-46.328" style="fill:none;stroke:#000000;stroke-width:0.3;" y1="-50.411" x2="10.938"/>
  <line x1="30.767" y2="-50.453" style="fill:none;stroke:#000000;stroke-width:0.3;" y1="-50.44" x2="30.774"/>
  <line x1="30.774" y2="-54.203" style="fill:none;stroke:#000000;stroke-width:0.3;" y1="-50.453" x2="33.058"/>
  <line x1="17.329" y2="-50.453" style="fill:none;stroke:#000000;stroke-width:0.3;" y1="-50.44" x2="17.336"/>
  <line x1="17.336" y2="-54.203" style="fill:none;stroke:#000000;stroke-width:0.3;" y1="-50.453" x2="19.621"/>
  <line x1="4.586" y2="-50.44" style="fill:none;stroke:#000000;stroke-width:0.3;" y1="-50.453" x2="4.579"/>
  <line x1="6.871" y2="-50.453" style="fill:none;stroke:#000000;stroke-width:0.3;" y1="-54.203" x2="4.586"/>
  <line x1="47.875" y2="-0.078" style="fill:none;stroke:#000000;stroke-width:0.3;" y1="-0.828" x2="47.423"/>
  <line x1="33.5" y2="-0.078" style="fill:none;stroke:#000000;stroke-width:0.3;" y1="-0.828" x2="33.048"/>
  <line x1="20.062" y2="-0.078" style="fill:none;stroke:#000000;stroke-width:0.3;" y1="-0.828" x2="19.611"/>
  <line x1="7.312" y2="-0.078" style="fill:none;stroke:#000000;stroke-width:0.3;" y1="-0.828" x2="6.861"/>
  <line x1="33.608" y2="-20.495" style="fill:none;stroke:#000000;stroke-width:0.7;stroke-linecap:round;" y1="-20.495" x2="33.608"/>
  <line x1="37.042" y2="-22.245" style="fill:none;stroke:#000000;stroke-width:0.7;stroke-linecap:round;" y1="-22.245" x2="37.042"/>
  <line x1="39.958" y2="-20.411" style="fill:none;stroke:#000000;stroke-width:0.7;stroke-linecap:round;" y1="-20.411" x2="39.958"/>
  <line x1="43.375" y2="-22.161" style="fill:none;stroke:#000000;stroke-width:0.7;stroke-linecap:round;" y1="-22.161" x2="43.375"/>
  <line x1="19.625" y2="-20.495" style="fill:none;stroke:#000000;stroke-width:0.7;stroke-linecap:round;" y1="-20.495" x2="19.625"/>
  <line x1="23.058" y2="-22.245" style="fill:none;stroke:#000000;stroke-width:0.7;stroke-linecap:round;" y1="-22.245" x2="23.058"/>
  <line x1="25.975" y2="-20.411" style="fill:none;stroke:#000000;stroke-width:0.7;stroke-linecap:round;" y1="-20.411" x2="25.975"/>
  <line x1="29.392" y2="-22.161" style="fill:none;stroke:#000000;stroke-width:0.7;stroke-linecap:round;" y1="-22.161" x2="29.392"/>
  <line x1="6.292" y2="-20.495" style="fill:none;stroke:#000000;stroke-width:0.7;stroke-linecap:round;" y1="-20.495" x2="6.292"/>
  <line x1="9.725" y2="-22.245" style="fill:none;stroke:#000000;stroke-width:0.7;stroke-linecap:round;" y1="-22.245" x2="9.725"/>
  <line x1="12.642" y2="-20.411" style="fill:none;stroke:#000000;stroke-width:0.7;stroke-linecap:round;" y1="-20.411" x2="12.642"/>
  <line x1="16.058" y2="-22.161" style="fill:none;stroke:#000000;stroke-width:0.7;stroke-linecap:round;" y1="-22.161" x2="16.058"/>
  <line x1="47.292" y2="-20.495" style="fill:none;stroke:#000000;stroke-width:0.7;stroke-linecap:round;" y1="-20.495" x2="47.292"/>
  <line x1="50.725" y2="-22.245" style="fill:none;stroke:#000000;stroke-width:0.7;stroke-linecap:round;" y1="-22.245" x2="50.725"/>
  <line x1="53.642" y2="-20.411" style="fill:none;stroke:#000000;stroke-width:0.7;stroke-linecap:round;" y1="-20.411" x2="53.642"/>
  <line x1="41.292" y2="-9.745" style="fill:none;stroke:#000000;stroke-width:0.7;stroke-linecap:round;" y1="-9.745" x2="41.292"/>
  <line x1="44.725" y2="-11.495" style="fill:none;stroke:#000000;stroke-width:0.7;stroke-linecap:round;" y1="-11.495" x2="44.725"/>
  <line x1="47.642" y2="-9.661" style="fill:none;stroke:#000000;stroke-width:0.7;stroke-linecap:round;" y1="-9.661" x2="47.642"/>
  <line x1="51.058" y2="-11.411" style="fill:none;stroke:#000000;stroke-width:0.7;stroke-linecap:round;" y1="-11.411" x2="51.058"/>
  <line x1="27.792" y2="-9.745" style="fill:none;stroke:#000000;stroke-width:0.7;stroke-linecap:round;" y1="-9.745" x2="27.792"/>
  <line x1="31.225" y2="-11.495" style="fill:none;stroke:#000000;stroke-width:0.7;stroke-linecap:round;" y1="-11.495" x2="31.225"/>
  <line x1="34.142" y2="-9.661" style="fill:none;stroke:#000000;stroke-width:0.7;stroke-linecap:round;" y1="-9.661" x2="34.142"/>
  <line x1="37.558" y2="-11.411" style="fill:none;stroke:#000000;stroke-width:0.7;stroke-linecap:round;" y1="-11.411" x2="37.558"/>
  <line x1="13.958" y2="-9.745" style="fill:none;stroke:#000000;stroke-width:0.7;stroke-linecap:round;" y1="-9.745" x2="13.958"/>
  <line x1="17.392" y2="-11.495" style="fill:none;stroke:#000000;stroke-width:0.7;stroke-linecap:round;" y1="-11.495" x2="17.392"/>
  <line x1="20.308" y2="-9.661" style="fill:none;stroke:#000000;stroke-width:0.7;stroke-linecap:round;" y1="-9.661" x2="20.308"/>
  <line x1="23.725" y2="-11.411" style="fill:none;stroke:#000000;stroke-width:0.7;stroke-linecap:round;" y1="-11.411" x2="23.725"/>
  <line x1="0.458" y2="-9.745" style="fill:none;stroke:#000000;stroke-width:0.7;stroke-linecap:round;" y1="-9.745" x2="0.458"/>
  <line x1="3.892" y2="-11.495" style="fill:none;stroke:#000000;stroke-width:0.7;stroke-linecap:round;" y1="-11.495" x2="3.892"/>
  <line x1="6.808" y2="-9.661" style="fill:none;stroke:#000000;stroke-width:0.7;stroke-linecap:round;" y1="-9.661" x2="6.808"/>
  <line x1="10.225" y2="-11.411" style="fill:none;stroke:#000000;stroke-width:0.7;stroke-linecap:round;" y1="-11.411" x2="10.225"/>
  <line x1="5.458" y2="-5.411" style="fill:none;stroke:#000000;stroke-width:0.7;stroke-linecap:round;" y1="-5.411" x2="5.458"/>
  <line x1="8.892" y2="-7.161" style="fill:none;stroke:#000000;stroke-width:0.7;stroke-linecap:round;" y1="-7.161" x2="8.892"/>
  <line x1="11.808" y2="-5.328" style="fill:none;stroke:#000000;stroke-width:0.7;stroke-linecap:round;" y1="-5.328" x2="11.808"/>
  <line x1="15.225" y2="-7.078" style="fill:none;stroke:#000000;stroke-width:0.7;stroke-linecap:round;" y1="-7.078" x2="15.225"/>
  <line x1="19.292" y2="-5.411" style="fill:none;stroke:#000000;stroke-width:0.7;stroke-linecap:round;" y1="-5.411" x2="19.292"/>
  <line x1="22.725" y2="-7.161" style="fill:none;stroke:#000000;stroke-width:0.7;stroke-linecap:round;" y1="-7.161" x2="22.725"/>
  <line x1="25.642" y2="-5.328" style="fill:none;stroke:#000000;stroke-width:0.7;stroke-linecap:round;" y1="-5.328" x2="25.642"/>
  <line x1="29.058" y2="-7.078" style="fill:none;stroke:#000000;stroke-width:0.7;stroke-linecap:round;" y1="-7.078" x2="29.058"/>
  <line x1="33.258" y2="-5.411" style="fill:none;stroke:#000000;stroke-width:0.7;stroke-linecap:round;" y1="-5.411" x2="33.258"/>
  <line x1="36.691" y2="-7.161" style="fill:none;stroke:#000000;stroke-width:0.7;stroke-linecap:round;" y1="-7.161" x2="36.691"/>
  <line x1="39.608" y2="-5.328" style="fill:none;stroke:#000000;stroke-width:0.7;stroke-linecap:round;" y1="-5.328" x2="39.608"/>
  <line x1="43.025" y2="-7.078" style="fill:none;stroke:#000000;stroke-width:0.7;stroke-linecap:round;" y1="-7.078" x2="43.025"/>
  <line x1="41.125" y2="-3.245" style="fill:none;stroke:#000000;stroke-width:0.7;stroke-linecap:round;" y1="-3.245" x2="41.125"/>
  <line x1="45.458" y2="-2.211" style="fill:none;stroke:#000000;stroke-width:0.7;stroke-linecap:round;" y1="-2.211" x2="45.458"/>
  <line x1="49.292" y2="-3.411" style="fill:none;stroke:#000000;stroke-width:0.7;stroke-linecap:round;" y1="-3.411" x2="49.292"/>
  <line x1="13.625" y2="-3.245" style="fill:none;stroke:#000000;stroke-width:0.7;stroke-linecap:round;" y1="-3.245" x2="13.625"/>
  <line x1="17.958" y2="-2.211" style="fill:none;stroke:#000000;stroke-width:0.7;stroke-linecap:round;" y1="-2.211" x2="17.958"/>
  <line x1="21.792" y2="-3.411" style="fill:none;stroke:#000000;stroke-width:0.7;stroke-linecap:round;" y1="-3.411" x2="21.792"/>
  <line x1="22.125" y2="-14.611" style="fill:none;stroke:#000000;stroke-width:0.7;stroke-linecap:round;" y1="-14.611" x2="22.125"/>
  <line x1="26.458" y2="-13.578" style="fill:none;stroke:#000000;stroke-width:0.7;stroke-linecap:round;" y1="-13.578" x2="26.458"/>
  <line x1="30.292" y2="-14.778" style="fill:none;stroke:#000000;stroke-width:0.7;stroke-linecap:round;" y1="-14.778" x2="30.292"/>
  <line x1="0.958" y2="-13.578" style="fill:none;stroke:#000000;stroke-width:0.7;stroke-linecap:round;" y1="-13.578" x2="0.958"/>
  <line x1="4.792" y2="-14.778" style="fill:none;stroke:#000000;stroke-width:0.7;stroke-linecap:round;" y1="-14.778" x2="4.792"/>
  <line x1="50.292" y2="-14.611" style="fill:none;stroke:#000000;stroke-width:0.7;stroke-linecap:round;" y1="-14.611" x2="50.292"/>
  <line x1="42.792" y2="-18.111" style="fill:none;stroke:#000000;stroke-width:0.7;stroke-linecap:round;" y1="-18.111" x2="42.792"/>
  <line x1="47.125" y2="-17.078" style="fill:none;stroke:#000000;stroke-width:0.7;stroke-linecap:round;" y1="-17.078" x2="47.125"/>
  <line x1="50.958" y2="-18.278" style="fill:none;stroke:#000000;stroke-width:0.7;stroke-linecap:round;" y1="-18.278" x2="50.958"/>
  <line x1="15.292" y2="-18.111" style="fill:none;stroke:#000000;stroke-width:0.7;stroke-linecap:round;" y1="-18.111" x2="15.292"/>
  <line x1="19.625" y2="-17.078" style="fill:none;stroke:#000000;stroke-width:0.7;stroke-linecap:round;" y1="-17.078" x2="19.625"/>
  <line x1="23.458" y2="-18.278" style="fill:none;stroke:#000000;stroke-width:0.7;stroke-linecap:round;" y1="-18.278" x2="23.458"/>
  <line x1="30.292" y2="-33.444" style="fill:none;stroke:#000000;stroke-width:0.7;stroke-linecap:round;" y1="-33.444" x2="30.292"/>
  <line x1="34.625" y2="-32.411" style="fill:none;stroke:#000000;stroke-width:0.7;stroke-linecap:round;" y1="-32.411" x2="34.625"/>
  <line x1="38.458" y2="-33.611" style="fill:none;stroke:#000000;stroke-width:0.7;stroke-linecap:round;" y1="-33.611" x2="38.458"/>
  <line x1="26.958" y2="-2.378" style="fill:none;stroke:#000000;stroke-width:0.7;stroke-linecap:round;" y1="-2.378" x2="26.958"/>
  <line x1="31.292" y2="-3.411" style="fill:none;stroke:#000000;stroke-width:0.7;stroke-linecap:round;" y1="-3.411" x2="31.292"/>
  <line x1="35.125" y2="-2.211" style="fill:none;stroke:#000000;stroke-width:0.7;stroke-linecap:round;" y1="-2.211" x2="35.125"/>
  <line x1="3.458" y2="-3.411" style="fill:none;stroke:#000000;stroke-width:0.7;stroke-linecap:round;" y1="-3.411" x2="3.458"/>
  <line x1="7.292" y2="-2.211" style="fill:none;stroke:#000000;stroke-width:0.7;stroke-linecap:round;" y1="-2.211" x2="7.292"/>
  <line x1="53.292" y2="-2.378" style="fill:none;stroke:#000000;stroke-width:0.7;stroke-linecap:round;" y1="-2.378" x2="53.292"/>
  <line x1="36.792" y2="-14.044" style="fill:none;stroke:#000000;stroke-width:0.7;stroke-linecap:round;" y1="-14.044" x2="36.792"/>
  <line x1="41.125" y2="-15.078" style="fill:none;stroke:#000000;stroke-width:0.7;stroke-linecap:round;" y1="-15.078" x2="41.125"/>
  <line x1="44.958" y2="-13.878" style="fill:none;stroke:#000000;stroke-width:0.7;stroke-linecap:round;" y1="-13.878" x2="44.958"/>
  <line x1="8.958" y2="-13.878" style="fill:none;stroke:#000000;stroke-width:0.7;stroke-linecap:round;" y1="-13.878" x2="8.958"/>
  <line x1="13.292" y2="-14.911" style="fill:none;stroke:#000000;stroke-width:0.7;stroke-linecap:round;" y1="-14.911" x2="13.292"/>
  <line x1="17.125" y2="-13.711" style="fill:none;stroke:#000000;stroke-width:0.7;stroke-linecap:round;" y1="-13.711" x2="17.125"/>
  <line x1="29.458" y2="-17.211" style="fill:none;stroke:#000000;stroke-width:0.7;stroke-linecap:round;" y1="-17.211" x2="29.458"/>
  <line x1="33.792" y2="-18.245" style="fill:none;stroke:#000000;stroke-width:0.7;stroke-linecap:round;" y1="-18.245" x2="33.792"/>
  <line x1="37.625" y2="-17.044" style="fill:none;stroke:#000000;stroke-width:0.7;stroke-linecap:round;" y1="-17.044" x2="37.625"/>
  <line x1="0.958" y2="-17.211" style="fill:none;stroke:#000000;stroke-width:0.7;stroke-linecap:round;" y1="-17.211" x2="0.958"/>
  <line x1="5.292" y2="-18.245" style="fill:none;stroke:#000000;stroke-width:0.7;stroke-linecap:round;" y1="-18.245" x2="5.292"/>
  <line x1="9.125" y2="-17.044" style="fill:none;stroke:#000000;stroke-width:0.7;stroke-linecap:round;" y1="-17.044" x2="9.125"/>
  <line x1="2.125" y2="-21.044" style="fill:none;stroke:#000000;stroke-width:0.7;stroke-linecap:round;" y1="-21.044" x2="2.125"/>
  <line x1="15.292" y2="-32.878" style="fill:none;stroke:#000000;stroke-width:0.7;stroke-linecap:round;" y1="-32.878" x2="15.292"/>
  <line x1="19.625" y2="-33.911" style="fill:none;stroke:#000000;stroke-width:0.7;stroke-linecap:round;" y1="-33.911" x2="19.625"/>
  <line x1="23.458" y2="-32.711" style="fill:none;stroke:#000000;stroke-width:0.7;stroke-linecap:round;" y1="-32.711" x2="23.458"/>
  <line x1="42.792" y2="-32.711" style="fill:none;stroke:#000000;stroke-width:0.7;stroke-linecap:round;" y1="-32.711" x2="42.792"/>
  <line x1="47.125" y2="-33.745" style="fill:none;stroke:#000000;stroke-width:0.7;stroke-linecap:round;" y1="-33.745" x2="47.125"/>
  <line x1="50.958" y2="-32.544" style="fill:none;stroke:#000000;stroke-width:0.7;stroke-linecap:round;" y1="-32.544" x2="50.958"/>
  <line x1="34.625" y2="-35.878" style="fill:none;stroke:#000000;stroke-width:0.7;stroke-linecap:round;" y1="-35.878" x2="34.625"/>
  <line x1="38.958" y2="-36.911" style="fill:none;stroke:#000000;stroke-width:0.7;stroke-linecap:round;" y1="-36.911" x2="38.958"/>
  <line x1="42.792" y2="-35.711" style="fill:none;stroke:#000000;stroke-width:0.7;stroke-linecap:round;" y1="-35.711" x2="42.792"/>
  <line x1="7.625" y2="-35.878" style="fill:none;stroke:#000000;stroke-width:0.7;stroke-linecap:round;" y1="-35.878" x2="7.625"/>
  <line x1="11.958" y2="-36.911" style="fill:none;stroke:#000000;stroke-width:0.7;stroke-linecap:round;" y1="-36.911" x2="11.958"/>
  <line x1="15.792" y2="-35.711" style="fill:none;stroke:#000000;stroke-width:0.7;stroke-linecap:round;" y1="-35.711" x2="15.792"/>
  <line x1="0.958" y2="-33.444" style="fill:none;stroke:#000000;stroke-width:0.7;stroke-linecap:round;" y1="-33.444" x2="0.958"/>
  <line x1="5.292" y2="-32.411" style="fill:none;stroke:#000000;stroke-width:0.7;stroke-linecap:round;" y1="-32.411" x2="5.292"/>
  <line x1="9.125" y2="-33.611" style="fill:none;stroke:#000000;stroke-width:0.7;stroke-linecap:round;" y1="-33.611" x2="9.125"/>
  <line x1="3.292" y2="-36.778" style="fill:none;stroke:#000000;stroke-width:0.7;stroke-linecap:round;" y1="-36.778" x2="3.292"/>
  <line x1="48.458" y2="-36.611" style="fill:none;stroke:#000000;stroke-width:0.7;stroke-linecap:round;" y1="-36.611" x2="48.458"/>
  <line x1="52.792" y2="-35.578" style="fill:none;stroke:#000000;stroke-width:0.7;stroke-linecap:round;" y1="-35.578" x2="52.792"/>
  <line x1="20.792" y2="-36.611" style="fill:none;stroke:#000000;stroke-width:0.7;stroke-linecap:round;" y1="-36.611" x2="20.792"/>
  <line x1="25.125" y2="-35.578" style="fill:none;stroke:#000000;stroke-width:0.7;stroke-linecap:round;" y1="-35.578" x2="25.125"/>
  <line x1="28.958" y2="-36.778" style="fill:none;stroke:#000000;stroke-width:0.7;stroke-linecap:round;" y1="-36.778" x2="28.958"/>
  <line x1="46.792" y2="-5.411" style="fill:none;stroke:#000000;stroke-width:0.7;stroke-linecap:round;" y1="-5.411" x2="46.792"/>
  <line x1="50.225" y2="-7.161" style="fill:none;stroke:#000000;stroke-width:0.7;stroke-linecap:round;" y1="-7.161" x2="50.225"/>
  <line x1="53.142" y2="-5.328" style="fill:none;stroke:#000000;stroke-width:0.7;stroke-linecap:round;" y1="-5.328" x2="53.142"/>
  <line x1="41.125" y2="-24.411" style="fill:none;stroke:#000000;stroke-width:0.7;stroke-linecap:round;" y1="-24.411" x2="41.125"/>
  <line x1="44.558" y2="-26.161" style="fill:none;stroke:#000000;stroke-width:0.7;stroke-linecap:round;" y1="-26.161" x2="44.558"/>
  <line x1="47.475" y2="-24.328" style="fill:none;stroke:#000000;stroke-width:0.7;stroke-linecap:round;" y1="-24.328" x2="47.475"/>
  <line x1="50.892" y2="-26.078" style="fill:none;stroke:#000000;stroke-width:0.7;stroke-linecap:round;" y1="-26.078" x2="50.892"/>
  <line x1="27.625" y2="-24.411" style="fill:none;stroke:#000000;stroke-width:0.7;stroke-linecap:round;" y1="-24.411" x2="27.625"/>
  <line x1="31.058" y2="-26.161" style="fill:none;stroke:#000000;stroke-width:0.7;stroke-linecap:round;" y1="-26.161" x2="31.058"/>
  <line x1="33.975" y2="-24.328" style="fill:none;stroke:#000000;stroke-width:0.7;stroke-linecap:round;" y1="-24.328" x2="33.975"/>
  <line x1="37.392" y2="-26.078" style="fill:none;stroke:#000000;stroke-width:0.7;stroke-linecap:round;" y1="-26.078" x2="37.392"/>
  <line x1="14.125" y2="-24.411" style="fill:none;stroke:#000000;stroke-width:0.7;stroke-linecap:round;" y1="-24.411" x2="14.125"/>
  <line x1="17.558" y2="-26.161" style="fill:none;stroke:#000000;stroke-width:0.7;stroke-linecap:round;" y1="-26.161" x2="17.558"/>
  <line x1="20.475" y2="-24.328" style="fill:none;stroke:#000000;stroke-width:0.7;stroke-linecap:round;" y1="-24.328" x2="20.475"/>
  <line x1="23.892" y2="-26.078" style="fill:none;stroke:#000000;stroke-width:0.7;stroke-linecap:round;" y1="-26.078" x2="23.892"/>
  <line x1="3.058" y2="-26.161" style="fill:none;stroke:#000000;stroke-width:0.7;stroke-linecap:round;" y1="-26.161" x2="3.058"/>
  <line x1="5.975" y2="-24.328" style="fill:none;stroke:#000000;stroke-width:0.7;stroke-linecap:round;" y1="-24.328" x2="5.975"/>
  <line x1="9.392" y2="-26.078" style="fill:none;stroke:#000000;stroke-width:0.7;stroke-linecap:round;" y1="-26.078" x2="9.392"/>
  <line x1="7.625" y2="-28.411" style="fill:none;stroke:#000000;stroke-width:0.7;stroke-linecap:round;" y1="-28.411" x2="7.625"/>
  <line x1="11.058" y2="-30.161" style="fill:none;stroke:#000000;stroke-width:0.7;stroke-linecap:round;" y1="-30.161" x2="11.058"/>
  <line x1="13.975" y2="-28.328" style="fill:none;stroke:#000000;stroke-width:0.7;stroke-linecap:round;" y1="-28.328" x2="13.975"/>
  <line x1="17.392" y2="-30.078" style="fill:none;stroke:#000000;stroke-width:0.7;stroke-linecap:round;" y1="-30.078" x2="17.392"/>
  <line x1="21.292" y2="-28.411" style="fill:none;stroke:#000000;stroke-width:0.7;stroke-linecap:round;" y1="-28.411" x2="21.292"/>
  <line x1="24.725" y2="-30.161" style="fill:none;stroke:#000000;stroke-width:0.7;stroke-linecap:round;" y1="-30.161" x2="24.725"/>
  <line x1="27.642" y2="-28.328" style="fill:none;stroke:#000000;stroke-width:0.7;stroke-linecap:round;" y1="-28.328" x2="27.642"/>
  <line x1="31.058" y2="-30.078" style="fill:none;stroke:#000000;stroke-width:0.7;stroke-linecap:round;" y1="-30.078" x2="31.058"/>
  <line x1="35.292" y2="-28.411" style="fill:none;stroke:#000000;stroke-width:0.7;stroke-linecap:round;" y1="-28.411" x2="35.292"/>
  <line x1="38.725" y2="-30.161" style="fill:none;stroke:#000000;stroke-width:0.7;stroke-linecap:round;" y1="-30.161" x2="38.725"/>
  <line x1="41.642" y2="-28.328" style="fill:none;stroke:#000000;stroke-width:0.7;stroke-linecap:round;" y1="-28.328" x2="41.642"/>
  <line x1="45.058" y2="-30.078" style="fill:none;stroke:#000000;stroke-width:0.7;stroke-linecap:round;" y1="-30.078" x2="45.058"/>
  <line x1="49.125" y2="-28.411" style="fill:none;stroke:#000000;stroke-width:0.7;stroke-linecap:round;" y1="-28.411" x2="49.125"/>
  <line x1="52.558" y2="-30.161" style="fill:none;stroke:#000000;stroke-width:0.7;stroke-linecap:round;" y1="-30.161" x2="52.558"/>
  <line x1="0.808" y2="-28.328" style="fill:none;stroke:#000000;stroke-width:0.7;stroke-linecap:round;" y1="-28.328" x2="0.808"/>
  <line x1="4.225" y2="-30.078" style="fill:none;stroke:#000000;stroke-width:0.7;stroke-linecap:round;" y1="-30.078" x2="4.225"/>
  <line x1="13.625" y2="-39.245" style="fill:none;stroke:#000000;stroke-width:0.7;stroke-linecap:round;" y1="-39.245" x2="13.625"/>
  <line x1="17.058" y2="-40.995" style="fill:none;stroke:#000000;stroke-width:0.7;stroke-linecap:round;" y1="-40.995" x2="17.058"/>
  <line x1="19.975" y2="-39.161" style="fill:none;stroke:#000000;stroke-width:0.7;stroke-linecap:round;" y1="-39.161" x2="19.975"/>
  <line x1="23.392" y2="-40.911" style="fill:none;stroke:#000000;stroke-width:0.7;stroke-linecap:round;" y1="-40.911" x2="23.392"/>
  <line x1="2.558" y2="-40.995" style="fill:none;stroke:#000000;stroke-width:0.7;stroke-linecap:round;" y1="-40.995" x2="2.558"/>
  <line x1="5.475" y2="-39.161" style="fill:none;stroke:#000000;stroke-width:0.7;stroke-linecap:round;" y1="-39.161" x2="5.475"/>
  <line x1="8.892" y2="-40.911" style="fill:none;stroke:#000000;stroke-width:0.7;stroke-linecap:round;" y1="-40.911" x2="8.892"/>
  <line x1="27.792" y2="-39.245" style="fill:none;stroke:#000000;stroke-width:0.7;stroke-linecap:round;" y1="-39.245" x2="27.792"/>
  <line x1="31.225" y2="-40.995" style="fill:none;stroke:#000000;stroke-width:0.7;stroke-linecap:round;" y1="-40.995" x2="31.225"/>
  <line x1="34.142" y2="-39.161" style="fill:none;stroke:#000000;stroke-width:0.7;stroke-linecap:round;" y1="-39.161" x2="34.142"/>
  <line x1="37.558" y2="-40.911" style="fill:none;stroke:#000000;stroke-width:0.7;stroke-linecap:round;" y1="-40.911" x2="37.558"/>
  <line x1="40.958" y2="-39.245" style="fill:none;stroke:#000000;stroke-width:0.7;stroke-linecap:round;" y1="-39.245" x2="40.958"/>
  <line x1="44.392" y2="-40.995" style="fill:none;stroke:#000000;stroke-width:0.7;stroke-linecap:round;" y1="-40.995" x2="44.392"/>
  <line x1="47.308" y2="-39.161" style="fill:none;stroke:#000000;stroke-width:0.7;stroke-linecap:round;" y1="-39.161" x2="47.308"/>
  <line x1="50.725" y2="-40.911" style="fill:none;stroke:#000000;stroke-width:0.7;stroke-linecap:round;" y1="-40.911" x2="50.725"/>
  <line x1="35.625" y2="-43.245" style="fill:none;stroke:#000000;stroke-width:0.7;stroke-linecap:round;" y1="-43.245" x2="35.625"/>
  <line x1="39.058" y2="-44.995" style="fill:none;stroke:#000000;stroke-width:0.7;stroke-linecap:round;" y1="-44.995" x2="39.058"/>
  <line x1="41.975" y2="-43.161" style="fill:none;stroke:#000000;stroke-width:0.7;stroke-linecap:round;" y1="-43.161" x2="41.975"/>
  <line x1="45.392" y2="-44.911" style="fill:none;stroke:#000000;stroke-width:0.7;stroke-linecap:round;" y1="-44.911" x2="45.392"/>
  <line x1="21.458" y2="-43.245" style="fill:none;stroke:#000000;stroke-width:0.7;stroke-linecap:round;" y1="-43.245" x2="21.458"/>
  <line x1="24.892" y2="-44.995" style="fill:none;stroke:#000000;stroke-width:0.7;stroke-linecap:round;" y1="-44.995" x2="24.892"/>
  <line x1="27.808" y2="-43.161" style="fill:none;stroke:#000000;stroke-width:0.7;stroke-linecap:round;" y1="-43.161" x2="27.808"/>
  <line x1="31.225" y2="-44.911" style="fill:none;stroke:#000000;stroke-width:0.7;stroke-linecap:round;" y1="-44.911" x2="31.225"/>
  <line x1="7.625" y2="-43.245" style="fill:none;stroke:#000000;stroke-width:0.7;stroke-linecap:round;" y1="-43.245" x2="7.625"/>
  <line x1="11.058" y2="-44.995" style="fill:none;stroke:#000000;stroke-width:0.7;stroke-linecap:round;" y1="-44.995" x2="11.058"/>
  <line x1="13.975" y2="-43.161" style="fill:none;stroke:#000000;stroke-width:0.7;stroke-linecap:round;" y1="-43.161" x2="13.975"/>
  <line x1="17.392" y2="-44.911" style="fill:none;stroke:#000000;stroke-width:0.7;stroke-linecap:round;" y1="-44.911" x2="17.392"/>
  <line x1="0.808" y2="-43.161" style="fill:none;stroke:#000000;stroke-width:0.7;stroke-linecap:round;" y1="-43.161" x2="0.808"/>
  <line x1="4.225" y2="-44.911" style="fill:none;stroke:#000000;stroke-width:0.7;stroke-linecap:round;" y1="-44.911" x2="4.225"/>
  <line x1="49.625" y2="-43.245" style="fill:none;stroke:#000000;stroke-width:0.7;stroke-linecap:round;" y1="-43.245" x2="49.625"/>
  <line x1="53.058" y2="-44.995" style="fill:none;stroke:#000000;stroke-width:0.7;stroke-linecap:round;" y1="-44.995" x2="53.058"/>
  <line x1="41.625" y2="-47.578" style="fill:none;stroke:#000000;stroke-width:0.7;stroke-linecap:round;" y1="-47.578" x2="41.625"/>
  <line x1="45.058" y2="-49.328" style="fill:none;stroke:#000000;stroke-width:0.7;stroke-linecap:round;" y1="-49.328" x2="45.058"/>
  <line x1="47.975" y2="-47.495" style="fill:none;stroke:#000000;stroke-width:0.7;stroke-linecap:round;" y1="-47.495" x2="47.975"/>
  <line x1="51.392" y2="-49.245" style="fill:none;stroke:#000000;stroke-width:0.7;stroke-linecap:round;" y1="-49.245" x2="51.392"/>
  <line x1="28.458" y2="-47.578" style="fill:none;stroke:#000000;stroke-width:0.7;stroke-linecap:round;" y1="-47.578" x2="28.458"/>
  <line x1="31.892" y2="-49.328" style="fill:none;stroke:#000000;stroke-width:0.7;stroke-linecap:round;" y1="-49.328" x2="31.892"/>
  <line x1="34.808" y2="-47.495" style="fill:none;stroke:#000000;stroke-width:0.7;stroke-linecap:round;" y1="-47.495" x2="34.808"/>
  <line x1="38.225" y2="-49.245" style="fill:none;stroke:#000000;stroke-width:0.7;stroke-linecap:round;" y1="-49.245" x2="38.225"/>
  <line x1="14.458" y2="-47.578" style="fill:none;stroke:#000000;stroke-width:0.7;stroke-linecap:round;" y1="-47.578" x2="14.458"/>
  <line x1="17.892" y2="-49.328" style="fill:none;stroke:#000000;stroke-width:0.7;stroke-linecap:round;" y1="-49.328" x2="17.892"/>
  <line x1="20.808" y2="-47.495" style="fill:none;stroke:#000000;stroke-width:0.7;stroke-linecap:round;" y1="-47.495" x2="20.808"/>
  <line x1="24.225" y2="-49.245" style="fill:none;stroke:#000000;stroke-width:0.7;stroke-linecap:round;" y1="-49.245" x2="24.225"/>
  <line x1="0.541" y2="-47.578" style="fill:none;stroke:#000000;stroke-width:0.7;stroke-linecap:round;" y1="-47.578" x2="0.541"/>
  <line x1="3.975" y2="-49.328" style="fill:none;stroke:#000000;stroke-width:0.7;stroke-linecap:round;" y1="-49.328" x2="3.975"/>
  <line x1="6.892" y2="-47.495" style="fill:none;stroke:#000000;stroke-width:0.7;stroke-linecap:round;" y1="-47.495" x2="6.892"/>
  <line x1="10.308" y2="-49.245" style="fill:none;stroke:#000000;stroke-width:0.7;stroke-linecap:round;" y1="-49.245" x2="10.308"/>
  <line x1="7.292" y2="-51.911" style="fill:none;stroke:#000000;stroke-width:0.7;stroke-linecap:round;" y1="-51.911" x2="7.292"/>
  <line x1="10.725" y2="-53.661" style="fill:none;stroke:#000000;stroke-width:0.7;stroke-linecap:round;" y1="-53.661" x2="10.725"/>
  <line x1="13.642" y2="-51.828" style="fill:none;stroke:#000000;stroke-width:0.7;stroke-linecap:round;" y1="-51.828" x2="13.642"/>
  <line x1="17.058" y2="-53.578" style="fill:none;stroke:#000000;stroke-width:0.7;stroke-linecap:round;" y1="-53.578" x2="17.058"/>
  <line x1="3.141" y2="-53.578" style="fill:none;stroke:#000000;stroke-width:0.7;stroke-linecap:round;" y1="-53.578" x2="3.141"/>
  <line x1="19.958" y2="-51.911" style="fill:none;stroke:#000000;stroke-width:0.7;stroke-linecap:round;" y1="-51.911" x2="19.958"/>
  <line x1="23.392" y2="-53.661" style="fill:none;stroke:#000000;stroke-width:0.7;stroke-linecap:round;" y1="-53.661" x2="23.392"/>
  <line x1="26.308" y2="-51.828" style="fill:none;stroke:#000000;stroke-width:0.7;stroke-linecap:round;" y1="-51.828" x2="26.308"/>
  <line x1="29.725" y2="-53.578" style="fill:none;stroke:#000000;stroke-width:0.7;stroke-linecap:round;" y1="-53.578" x2="29.725"/>
  <line x1="33.625" y2="-51.911" style="fill:none;stroke:#000000;stroke-width:0.7;stroke-linecap:round;" y1="-51.911" x2="33.625"/>
  <line x1="37.058" y2="-53.661" style="fill:none;stroke:#000000;stroke-width:0.7;stroke-linecap:round;" y1="-53.661" x2="37.058"/>
  <line x1="39.975" y2="-51.828" style="fill:none;stroke:#000000;stroke-width:0.7;stroke-linecap:round;" y1="-51.828" x2="39.975"/>
  <line x1="43.392" y2="-53.578" style="fill:none;stroke:#000000;stroke-width:0.7;stroke-linecap:round;" y1="-53.578" x2="43.392"/>
  <line x1="47.525" y2="-51.911" style="fill:none;stroke:#000000;stroke-width:0.7;stroke-linecap:round;" y1="-51.911" x2="47.525"/>
  <line x1="50.958" y2="-53.661" style="fill:none;stroke:#000000;stroke-width:0.7;stroke-linecap:round;" y1="-53.661" x2="50.958"/>
  <line x1="53.875" y2="-51.828" style="fill:none;stroke:#000000;stroke-width:0.7;stroke-linecap:round;" y1="-51.828" x2="53.875"/>
 </g>
</svg>
