<?xml version="1.0"?>
<!-- Converted with SVG Converter - Version 0.9.5 (Compiled Fri Feb 21 09:53:38 2020) - Copyright (C) 2011 Nokia -->
<svg xmlns="http://www.w3.org/2000/svg" width="54.125" x="0px" y="0px" xmlns:xlink="http://www.w3.org/1999/xlink" version="1.1" height="54.125" viewBox="0 -54.125 54.125 54.125" baseProfile="tiny" xml:space="preserve">
 <g>
  <rect width="54.125" y="-54.125" height="54.125" style="fill:none;"/>
  <line x2="4.122" y1="-48.2" x1="0" y2="-48.2" style="fill:none;stroke:#000000;stroke-width:0.3;"/>
  <line x2="6.703" y1="-48.2" x1="13.072" y2="-48.2" style="fill:none;stroke:#000000;stroke-width:0.3;"/>
  <line x2="15.619" y1="-48.2" x1="21.988" y2="-48.2" style="fill:none;stroke:#000000;stroke-width:0.3;"/>
  <line x2="24.536" y1="-48.2" x1="30.905" y2="-48.2" style="fill:none;stroke:#000000;stroke-width:0.3;"/>
  <line x2="39.822" y1="-48.2" x1="33.453" y2="-48.2" style="fill:none;stroke:#000000;stroke-width:0.3;"/>
  <line x2="42.369" y1="-48.2" x1="48.738" y2="-48.2" style="fill:none;stroke:#000000;stroke-width:0.3;"/>
  <line x2="54.125" y1="-48.2" x1="51.286" y2="-48.2" style="fill:none;stroke:#000000;stroke-width:0.3;"/>
  <line x2="7.825" y1="-39.97" x1="1.456" y2="-39.97" style="fill:none;stroke:#000000;stroke-width:0.3;"/>
  <line x2="16.741" y1="-39.97" x1="10.373" y2="-39.97" style="fill:none;stroke:#000000;stroke-width:0.3;"/>
  <line x2="25.658" y1="-39.97" x1="19.289" y2="-39.97" style="fill:none;stroke:#000000;stroke-width:0.3;"/>
  <line x2="28.206" y1="-39.97" x1="34.575" y2="-39.97" style="fill:none;stroke:#000000;stroke-width:0.3;"/>
  <line x2="37.122" y1="-39.97" x1="43.491" y2="-39.97" style="fill:none;stroke:#000000;stroke-width:0.3;"/>
  <line x2="52.408" y1="-39.97" x1="46.039" y2="-39.97" style="fill:none;stroke:#000000;stroke-width:0.3;"/>
  <line x2="1.731" y1="-25.25" x1="8.101" y2="-25.25" style="fill:none;stroke:#000000;stroke-width:0.3;"/>
  <line x2="10.681" y1="-25.25" x1="17.05" y2="-25.25" style="fill:none;stroke:#000000;stroke-width:0.3;"/>
  <line x2="19.598" y1="-25.25" x1="25.966" y2="-25.25" style="fill:none;stroke:#000000;stroke-width:0.3;"/>
  <line x2="28.514" y1="-25.25" x1="34.883" y2="-25.25" style="fill:none;stroke:#000000;stroke-width:0.3;"/>
  <line x2="37.431" y1="-25.25" x1="43.8" y2="-25.25" style="fill:none;stroke:#000000;stroke-width:0.3;"/>
  <line x2="46.347" y1="-25.25" x1="52.716" y2="-25.25" style="fill:none;stroke:#000000;stroke-width:0.3;"/>
  <line x2="0" y1="-17.607" x1="3.476" y2="-17.607" style="fill:none;stroke:#000000;stroke-width:0.3;"/>
  <line x2="6.056" y1="-17.607" x1="12.425" y2="-17.607" style="fill:none;stroke:#000000;stroke-width:0.3;"/>
  <line x2="14.973" y1="-17.607" x1="21.341" y2="-17.607" style="fill:none;stroke:#000000;stroke-width:0.3;"/>
  <line x2="23.889" y1="-17.607" x1="30.258" y2="-17.607" style="fill:none;stroke:#000000;stroke-width:0.3;"/>
  <line x2="32.806" y1="-17.607" x1="39.175" y2="-17.607" style="fill:none;stroke:#000000;stroke-width:0.3;"/>
  <line x2="41.722" y1="-17.607" x1="48.091" y2="-17.607" style="fill:none;stroke:#000000;stroke-width:0.3;"/>
  <line x2="54.125" y1="-17.607" x1="50.639" y2="-17.607" style="fill:none;stroke:#000000;stroke-width:0.3;"/>
  <line x2="1.517" y1="-10.465" x1="0" y2="-10.465" style="fill:none;stroke:#000000;stroke-width:0.3;"/>
  <line x2="4.098" y1="-10.465" x1="10.467" y2="-10.465" style="fill:none;stroke:#000000;stroke-width:0.3;"/>
  <line x2="13.014" y1="-10.465" x1="19.383" y2="-10.465" style="fill:none;stroke:#000000;stroke-width:0.3;"/>
  <line x2="21.931" y1="-10.465" x1="28.3" y2="-10.465" style="fill:none;stroke:#000000;stroke-width:0.3;"/>
  <line x2="30.847" y1="-10.465" x1="37.216" y2="-10.465" style="fill:none;stroke:#000000;stroke-width:0.3;"/>
  <line x2="39.764" y1="-10.465" x1="46.133" y2="-10.465" style="fill:none;stroke:#000000;stroke-width:0.3;"/>
  <line x2="54.125" y1="-10.465" x1="48.681" y2="-10.465" style="fill:none;stroke:#000000;stroke-width:0.3;"/>
  <line x2="7.892" y1="-2.469" x1="1.523" y2="-2.469" style="fill:none;stroke:#000000;stroke-width:0.3;"/>
  <line x2="10.473" y1="-2.469" x1="16.842" y2="-2.469" style="fill:none;stroke:#000000;stroke-width:0.3;"/>
  <line x2="25.758" y1="-2.469" x1="19.389" y2="-2.469" style="fill:none;stroke:#000000;stroke-width:0.3;"/>
  <line x2="34.675" y1="-2.469" x1="28.306" y2="-2.469" style="fill:none;stroke:#000000;stroke-width:0.3;"/>
  <line x2="43.591" y1="-2.469" x1="37.222" y2="-2.469" style="fill:none;stroke:#000000;stroke-width:0.3;"/>
  <line x2="52.508" y1="-2.469" x1="46.139" y2="-2.469" style="fill:none;stroke:#000000;stroke-width:0.3;"/>
  <line x2="3.101" y1="-32.958" x1="0" y2="-32.958" style="fill:none;stroke:#000000;stroke-width:0.3;"/>
  <line x2="12.05" y1="-32.958" x1="5.681" y2="-32.958" style="fill:none;stroke:#000000;stroke-width:0.3;"/>
  <line x2="20.966" y1="-32.958" x1="14.598" y2="-32.958" style="fill:none;stroke:#000000;stroke-width:0.3;"/>
  <line x2="29.883" y1="-32.958" x1="23.514" y2="-32.958" style="fill:none;stroke:#000000;stroke-width:0.3;"/>
  <line x2="38.8" y1="-32.958" x1="32.431" y2="-32.958" style="fill:none;stroke:#000000;stroke-width:0.3;"/>
  <line x2="47.716" y1="-32.958" x1="41.347" y2="-32.958" style="fill:none;stroke:#000000;stroke-width:0.3;"/>
  <line x2="54.125" y1="-32.958" x1="50.264" y2="-32.958" style="fill:none;stroke:#000000;stroke-width:0.3;"/>
  <line x2="46.551" y1="-50.375" x1="32.176" y2="-50.375" style="fill:none;stroke:#000000;stroke-width:0.3;"/>
  <line x2="18.676" y1="-50.375" x1="32.176" y2="-50.375" style="fill:none;stroke:#000000;stroke-width:0.3;"/>
  <line x2="0" y1="-50.375" x1="5.926" y2="-50.375" style="fill:none;stroke:#000000;stroke-width:0.3;"/>
  <line x2="18.676" y1="-50.375" x1="5.926" y2="-50.375" style="fill:none;stroke:#000000;stroke-width:0.3;"/>
  <line x2="46.551" y1="-50.375" x1="54.125" y2="-50.375" style="fill:none;stroke:#000000;stroke-width:0.3;"/>
  <line x2="0" y1="-46.2" x1="54.125" y2="-46.2" style="fill:none;stroke:#000000;stroke-width:0.3;"/>
  <line x2="54.125" y1="-42.013" x1="0" y2="-42.013" style="fill:none;stroke:#000000;stroke-width:0.3;"/>
  <line x2="48.634" y1="-12.4" x1="33.759" y2="-12.4" style="fill:none;stroke:#000000;stroke-width:0.3;"/>
  <line x2="20.134" y1="-12.4" x1="6.884" y2="-12.4" style="fill:none;stroke:#000000;stroke-width:0.3;"/>
  <line x2="0" y1="-12.4" x1="6.884" y2="-12.4" style="fill:none;stroke:#000000;stroke-width:0.3;"/>
  <line x2="20.134" y1="-12.4" x1="33.759" y2="-12.4" style="fill:none;stroke:#000000;stroke-width:0.3;"/>
  <line x2="54.125" y1="-12.4" x1="48.634" y2="-12.4" style="fill:none;stroke:#000000;stroke-width:0.3;"/>
  <line x2="54.125" y1="-8.625" x1="0" y2="-8.625" style="fill:none;stroke:#000000;stroke-width:0.3;"/>
  <line x2="0" y1="-37.994" x1="5.926" y2="-37.994" style="fill:none;stroke:#000000;stroke-width:0.3;"/>
  <line x2="5.926" y1="-37.994" x1="18.676" y2="-37.994" style="fill:none;stroke:#000000;stroke-width:0.3;"/>
  <line x2="18.676" y1="-37.994" x1="31.926" y2="-37.994" style="fill:none;stroke:#000000;stroke-width:0.3;"/>
  <line x2="46.551" y1="-37.994" x1="31.926" y2="-37.994" style="fill:none;stroke:#000000;stroke-width:0.3;"/>
  <line x2="54.125" y1="-37.994" x1="46.551" y2="-37.994" style="fill:none;stroke:#000000;stroke-width:0.3;"/>
  <line x2="54.125" y1="-34.713" x1="0" y2="-34.713" style="fill:none;stroke:#000000;stroke-width:0.3;"/>
  <line x2="54.125" y1="-31.288" x1="48.663" y2="-31.288" style="fill:none;stroke:#000000;stroke-width:0.3;"/>
  <line x2="0" y1="-31.288" x1="6.663" y2="-31.288" style="fill:none;stroke:#000000;stroke-width:0.3;"/>
  <line x2="6.663" y1="-31.288" x1="20.163" y2="-31.288" style="fill:none;stroke:#000000;stroke-width:0.3;"/>
  <line x2="20.163" y1="-31.288" x1="33.788" y2="-31.288" style="fill:none;stroke:#000000;stroke-width:0.3;"/>
  <line x2="33.788" y1="-31.288" x1="48.663" y2="-31.288" style="fill:none;stroke:#000000;stroke-width:0.3;"/>
  <line x2="54.125" y1="-27.238" x1="0" y2="-27.238" style="fill:none;stroke:#000000;stroke-width:0.3;"/>
  <line x2="54.125" y1="-23.438" x1="0" y2="-23.438" style="fill:none;stroke:#000000;stroke-width:0.3;"/>
  <line x2="54.125" y1="-19.238" x1="0" y2="-19.238" style="fill:none;stroke:#000000;stroke-width:0.3;"/>
  <line x2="54.125" y1="-16.013" x1="0" y2="-16.013" style="fill:none;stroke:#000000;stroke-width:0.3;"/>
  <line x2="5.926" y1="-0.838" x1="18.676" y2="-0.838" style="fill:none;stroke:#000000;stroke-width:0.3;"/>
  <line x2="32.176" y1="-0.838" x1="18.676" y2="-0.838" style="fill:none;stroke:#000000;stroke-width:0.3;"/>
  <line x2="54.125" y1="-0.838" x1="46.551" y2="-0.838" style="fill:none;stroke:#000000;stroke-width:0.3;"/>
  <line x2="5.926" y1="-0.838" x1="0" y2="-0.838" style="fill:none;stroke:#000000;stroke-width:0.3;"/>
  <line x2="32.176" y1="-0.838" x1="46.551" y2="-0.838" style="fill:none;stroke:#000000;stroke-width:0.3;"/>
  <line x2="5.926" y1="-50.375" x1="5.926" y2="-54.125" style="fill:none;stroke:#000000;stroke-width:0.3;"/>
  <line x2="18.676" y1="-54.125" x1="18.676" y2="-50.375" style="fill:none;stroke:#000000;stroke-width:0.3;"/>
  <line x2="32.176" y1="-50.375" x1="32.176" y2="-54.125" style="fill:none;stroke:#000000;stroke-width:0.3;"/>
  <line x2="46.551" y1="-54.125" x1="46.551" y2="-50.375" style="fill:none;stroke:#000000;stroke-width:0.3;"/>
  <line x2="5.926" y1="-0.85" x1="5.926" y2="-0.838" style="fill:none;stroke:#000000;stroke-width:0.3;"/>
  <line x2="5.926" y1="-0.001" x1="5.926" y2="-0.838" style="fill:none;stroke:#000000;stroke-width:0.3;"/>
  <line x2="18.676" y1="-0.838" x1="18.676" y2="-0.001" style="fill:none;stroke:#000000;stroke-width:0.3;"/>
  <line x2="18.676" y1="-0.838" x1="18.676" y2="-0.85" style="fill:none;stroke:#000000;stroke-width:0.3;"/>
  <line x2="32.176" y1="-0.001" x1="32.176" y2="-0.838" style="fill:none;stroke:#000000;stroke-width:0.3;"/>
  <line x2="32.176" y1="-0.85" x1="32.176" y2="-0.838" style="fill:none;stroke:#000000;stroke-width:0.3;"/>
  <line x2="46.551" y1="-0.838" x1="46.551" y2="-0.85" style="fill:none;stroke:#000000;stroke-width:0.3;"/>
  <line x2="46.551" y1="-0.838" x1="46.551" y2="-0.001" style="fill:none;stroke:#000000;stroke-width:0.3;"/>
  <line x2="7.038" y1="-46.075" x1="7.038" y2="-42.025" style="fill:none;stroke:#000000;stroke-width:0.3;"/>
  <line x2="20.288" y1="-46.075" x1="20.288" y2="-42.025" style="fill:none;stroke:#000000;stroke-width:0.3;"/>
  <line x2="33.851" y1="-46.075" x1="33.851" y2="-42.025" style="fill:none;stroke:#000000;stroke-width:0.3;"/>
  <line x2="48.788" y1="-46.075" x1="48.788" y2="-42.025" style="fill:none;stroke:#000000;stroke-width:0.3;"/>
  <line x2="46.551" y1="-34.725" x1="46.551" y2="-37.994" style="fill:none;stroke:#000000;stroke-width:0.3;"/>
  <line x2="46.551" y1="-38.025" x1="46.551" y2="-37.994" style="fill:none;stroke:#000000;stroke-width:0.3;"/>
  <line x2="31.926" y1="-37.994" x1="31.926" y2="-38.025" style="fill:none;stroke:#000000;stroke-width:0.3;"/>
  <line x2="31.926" y1="-37.994" x1="31.926" y2="-34.725" style="fill:none;stroke:#000000;stroke-width:0.3;"/>
  <line x2="18.676" y1="-38.025" x1="18.676" y2="-37.994" style="fill:none;stroke:#000000;stroke-width:0.3;"/>
  <line x2="18.676" y1="-37.994" x1="18.676" y2="-34.725" style="fill:none;stroke:#000000;stroke-width:0.3;"/>
  <line x2="5.926" y1="-37.994" x1="5.926" y2="-34.725" style="fill:none;stroke:#000000;stroke-width:0.3;"/>
  <line x2="5.926" y1="-38.025" x1="5.926" y2="-37.994" style="fill:none;stroke:#000000;stroke-width:0.3;"/>
  <line x2="6.663" y1="-31.3" x1="6.663" y2="-31.288" style="fill:none;stroke:#000000;stroke-width:0.3;"/>
  <line x2="6.663" y1="-31.288" x1="6.663" y2="-27.25" style="fill:none;stroke:#000000;stroke-width:0.3;"/>
  <line x2="20.163" y1="-31.3" x1="20.163" y2="-31.288" style="fill:none;stroke:#000000;stroke-width:0.3;"/>
  <line x2="20.163" y1="-31.288" x1="20.163" y2="-27.25" style="fill:none;stroke:#000000;stroke-width:0.3;"/>
  <line x2="33.788" y1="-31.3" x1="33.788" y2="-31.288" style="fill:none;stroke:#000000;stroke-width:0.3;"/>
  <line x2="33.788" y1="-31.288" x1="33.788" y2="-27.25" style="fill:none;stroke:#000000;stroke-width:0.3;"/>
  <line x2="48.663" y1="-31.288" x1="48.663" y2="-27.25" style="fill:none;stroke:#000000;stroke-width:0.3;"/>
  <line x2="48.663" y1="-31.288" x1="48.663" y2="-31.3" style="fill:none;stroke:#000000;stroke-width:0.3;"/>
  <line x2="5.525" y1="-23.388" x1="5.525" y2="-19.25" style="fill:none;stroke:#000000;stroke-width:0.3;"/>
  <line x2="18.525" y1="-23.388" x1="18.525" y2="-19.25" style="fill:none;stroke:#000000;stroke-width:0.3;"/>
  <line x2="32.15" y1="-23.388" x1="32.15" y2="-19.25" style="fill:none;stroke:#000000;stroke-width:0.3;"/>
  <line x2="46.4" y1="-19.25" x1="46.4" y2="-23.388" style="fill:none;stroke:#000000;stroke-width:0.3;"/>
  <line x2="6.884" y1="-12.4" x1="6.884" y2="-15.963" style="fill:none;stroke:#000000;stroke-width:0.3;"/>
  <line x2="20.134" y1="-15.963" x1="20.134" y2="-12.4" style="fill:none;stroke:#000000;stroke-width:0.3;"/>
  <line x2="33.759" y1="-12.4" x1="33.759" y2="-15.963" style="fill:none;stroke:#000000;stroke-width:0.3;"/>
  <line x2="48.634" y1="-12.4" x1="48.634" y2="-15.963" style="fill:none;stroke:#000000;stroke-width:0.3;"/>
  <line x2="54.125" y1="-4.212" x1="0" y2="-4.212" style="fill:none;stroke:#000000;stroke-width:0.3;"/>
  <line x2="4.571" y1="-8.588" x1="4.571" y2="-4.238" style="fill:none;stroke:#000000;stroke-width:0.3;"/>
  <line x2="17.571" y1="-8.588" x1="17.571" y2="-4.238" style="fill:none;stroke:#000000;stroke-width:0.3;"/>
  <line x2="31.571" y1="-8.588" x1="31.571" y2="-4.238" style="fill:none;stroke:#000000;stroke-width:0.3;"/>
  <line x2="46.134" y1="-8.588" x1="46.134" y2="-4.238" style="fill:none;stroke:#000000;stroke-width:0.3;"/>
  <line x2="16.009" y1="-52.467" x1="8.759" y2="-52.467" style="fill:none;stroke:#000000;stroke-width:0.3;"/>
  <line x2="43.134" y1="-52.467" x1="35.884" y2="-52.467" style="fill:none;stroke:#000000;stroke-width:0.3;"/>
  <line x2="23.509" y1="-44.142" x1="30.759" y2="-44.142" style="fill:none;stroke:#000000;stroke-width:0.3;"/>
  <line x2="0" y1="-44.142" x1="4.434" y2="-44.142" style="fill:none;stroke:#000000;stroke-width:0.3;"/>
  <line x2="35.434" y1="-36.392" x1="42.684" y2="-36.392" style="fill:none;stroke:#000000;stroke-width:0.3;"/>
  <line x2="51.309" y1="-29.142" x1="54.092" y2="-29.142" style="fill:none;stroke:#000000;stroke-width:0.3;"/>
  <line x2="35.809" y1="-21.392" x1="43.059" y2="-21.392" style="fill:none;stroke:#000000;stroke-width:0.3;"/>
  <line x2="30.809" y1="-14.142" x1="23.559" y2="-14.142" style="fill:none;stroke:#000000;stroke-width:0.3;"/>
  <line x2="7.309" y1="-6.142" x1="14.559" y2="-6.142" style="fill:none;stroke:#000000;stroke-width:0.3;"/>
  <line x2="8.559" y1="-36.28" x1="15.809" y2="-36.28" style="fill:none;stroke:#000000;stroke-width:0.3;"/>
  <line x2="23.309" y1="-29.28" x1="30.559" y2="-29.28" style="fill:none;stroke:#000000;stroke-width:0.3;"/>
  <line x2="8.434" y1="-21.28" x1="15.684" y2="-21.28" style="fill:none;stroke:#000000;stroke-width:0.3;"/>
  <line x2="3.809" y1="-14.03" x1="0" y2="-14.03" style="fill:none;stroke:#000000;stroke-width:0.3;"/>
  <line x2="35.309" y1="-6.28" x1="42.559" y2="-6.28" style="fill:none;stroke:#000000;stroke-width:0.3;"/>
  <line x2="51.259" y1="-44.142" x1="54.071" y2="-44.142" style="fill:none;stroke:#000000;stroke-width:0.3;"/>
  <line x2="54.071" y1="-14.03" x1="51.259" y2="-14.03" style="fill:none;stroke:#000000;stroke-width:0.3;"/>
  <line x2="0.009" y1="-29.142" x1="2.634" y2="-29.142" style="fill:none;stroke:#000000;stroke-width:0.3;"/>
  <rect width="54.125" y="-54.125" height="54.125" style="fill:none;"/>
  <line x2="25.342" y1="-52.438" x1="25.342" y2="-52.438" style="fill:none;stroke:#000000;stroke-width:0.7;stroke-linecap:round;"/>
  <line x2="22.226" y1="-52.438" x1="22.226" y2="-52.438" style="fill:none;stroke:#000000;stroke-width:0.7;stroke-linecap:round;"/>
  <line x2="28.092" y1="-52.438" x1="28.092" y2="-52.438" style="fill:none;stroke:#000000;stroke-width:0.7;stroke-linecap:round;"/>
  <line x2="1.892" y1="-52.438" x1="1.892" y2="-52.438" style="fill:none;stroke:#000000;stroke-width:0.7;stroke-linecap:round;"/>
  <line x2="53.392" y1="-52.438" x1="53.392" y2="-52.438" style="fill:none;stroke:#000000;stroke-width:0.7;stroke-linecap:round;"/>
  <line x2="51.059" y1="-52.438" x1="51.059" y2="-52.438" style="fill:none;stroke:#000000;stroke-width:0.7;stroke-linecap:round;"/>
  <line x2="13.726" y1="-44.155" x1="13.726" y2="-44.155" style="fill:none;stroke:#000000;stroke-width:0.7;stroke-linecap:round;"/>
  <line x2="16.726" y1="-44.155" x1="16.726" y2="-44.155" style="fill:none;stroke:#000000;stroke-width:0.7;stroke-linecap:round;"/>
  <line x2="10.559" y1="-44.155" x1="10.559" y2="-44.155" style="fill:none;stroke:#000000;stroke-width:0.7;stroke-linecap:round;"/>
  <line x2="13.559" y1="-29.254" x1="13.559" y2="-29.254" style="fill:none;stroke:#000000;stroke-width:0.7;stroke-linecap:round;"/>
  <line x2="16.559" y1="-29.254" x1="16.559" y2="-29.254" style="fill:none;stroke:#000000;stroke-width:0.7;stroke-linecap:round;"/>
  <line x2="10.392" y1="-29.254" x1="10.392" y2="-29.254" style="fill:none;stroke:#000000;stroke-width:0.7;stroke-linecap:round;"/>
  <line x2="41.392" y1="-29.254" x1="41.392" y2="-29.254" style="fill:none;stroke:#000000;stroke-width:0.7;stroke-linecap:round;"/>
  <line x2="44.392" y1="-29.254" x1="44.392" y2="-29.254" style="fill:none;stroke:#000000;stroke-width:0.7;stroke-linecap:round;"/>
  <line x2="38.226" y1="-29.254" x1="38.226" y2="-29.254" style="fill:none;stroke:#000000;stroke-width:0.7;stroke-linecap:round;"/>
  <line x2="25.559" y1="-21.254" x1="25.559" y2="-21.254" style="fill:none;stroke:#000000;stroke-width:0.7;stroke-linecap:round;"/>
  <line x2="28.559" y1="-21.254" x1="28.559" y2="-21.254" style="fill:none;stroke:#000000;stroke-width:0.7;stroke-linecap:round;"/>
  <line x2="22.392" y1="-21.254" x1="22.392" y2="-21.254" style="fill:none;stroke:#000000;stroke-width:0.7;stroke-linecap:round;"/>
  <line x2="41.559" y1="-14.088" x1="41.559" y2="-14.088" style="fill:none;stroke:#000000;stroke-width:0.7;stroke-linecap:round;"/>
  <line x2="44.559" y1="-14.088" x1="44.559" y2="-14.088" style="fill:none;stroke:#000000;stroke-width:0.7;stroke-linecap:round;"/>
  <line x2="38.392" y1="-14.088" x1="38.392" y2="-14.088" style="fill:none;stroke:#000000;stroke-width:0.7;stroke-linecap:round;"/>
  <line x2="13.892" y1="-14.088" x1="13.892" y2="-14.088" style="fill:none;stroke:#000000;stroke-width:0.7;stroke-linecap:round;"/>
  <line x2="16.892" y1="-14.088" x1="16.892" y2="-14.088" style="fill:none;stroke:#000000;stroke-width:0.7;stroke-linecap:round;"/>
  <line x2="10.726" y1="-14.088" x1="10.726" y2="-14.088" style="fill:none;stroke:#000000;stroke-width:0.7;stroke-linecap:round;"/>
  <line x2="25.059" y1="-6.321" x1="25.059" y2="-6.321" style="fill:none;stroke:#000000;stroke-width:0.7;stroke-linecap:round;"/>
  <line x2="28.059" y1="-6.321" x1="28.059" y2="-6.321" style="fill:none;stroke:#000000;stroke-width:0.7;stroke-linecap:round;"/>
  <line x2="21.892" y1="-6.321" x1="21.892" y2="-6.321" style="fill:none;stroke:#000000;stroke-width:0.7;stroke-linecap:round;"/>
  <line x2="53.059" y1="-6.321" x1="53.059" y2="-6.321" style="fill:none;stroke:#000000;stroke-width:0.7;stroke-linecap:round;"/>
  <line x2="1.726" y1="-6.321" x1="1.726" y2="-6.321" style="fill:none;stroke:#000000;stroke-width:0.7;stroke-linecap:round;"/>
  <line x2="49.892" y1="-6.321" x1="49.892" y2="-6.321" style="fill:none;stroke:#000000;stroke-width:0.7;stroke-linecap:round;"/>
  <line x2="53.059" y1="-21.254" x1="53.059" y2="-21.254" style="fill:none;stroke:#000000;stroke-width:0.7;stroke-linecap:round;"/>
  <line x2="49.892" y1="-21.254" x1="49.892" y2="-21.254" style="fill:none;stroke:#000000;stroke-width:0.7;stroke-linecap:round;"/>
  <line x2="2.392" y1="-21.254" x1="2.392" y2="-21.254" style="fill:none;stroke:#000000;stroke-width:0.7;stroke-linecap:round;"/>
  <line x2="41.392" y1="-44.155" x1="41.392" y2="-44.155" style="fill:none;stroke:#000000;stroke-width:0.7;stroke-linecap:round;"/>
  <line x2="44.559" y1="-44.155" x1="44.559" y2="-44.155" style="fill:none;stroke:#000000;stroke-width:0.7;stroke-linecap:round;"/>
  <line x2="37.726" y1="-44.155" x1="37.726" y2="-44.155" style="fill:none;stroke:#000000;stroke-width:0.7;stroke-linecap:round;"/>
  <line x2="25.392" y1="-36.254" x1="25.392" y2="-36.254" style="fill:none;stroke:#000000;stroke-width:0.7;stroke-linecap:round;"/>
  <line x2="28.226" y1="-36.254" x1="28.226" y2="-36.254" style="fill:none;stroke:#000000;stroke-width:0.7;stroke-linecap:round;"/>
  <line x2="22.059" y1="-36.254" x1="22.059" y2="-36.254" style="fill:none;stroke:#000000;stroke-width:0.7;stroke-linecap:round;"/>
  <line x2="53.226" y1="-36.254" x1="53.226" y2="-36.254" style="fill:none;stroke:#000000;stroke-width:0.7;stroke-linecap:round;"/>
  <line x2="1.959" y1="-36.254" x1="1.959" y2="-36.254" style="fill:none;stroke:#000000;stroke-width:0.7;stroke-linecap:round;"/>
  <line x2="49.892" y1="-36.254" x1="49.892" y2="-36.254" style="fill:none;stroke:#000000;stroke-width:0.7;stroke-linecap:round;"/>
 </g>
</svg>
