<?xml version="1.0"?>
<!-- Converted with SVG Converter - Version 0.9.5 (Compiled Fri Feb 21 09:53:38 2020) - Copyright (C) 2011 Nokia -->
<svg xmlns="http://www.w3.org/2000/svg" xmlns:xlink="http://www.w3.org/1999/xlink" y="0px" x="0px" version="1.1" width="48.712" xml:space="preserve" baseProfile="tiny" height="48.712" viewBox="0 -48.713 48.712 48.712">
 <g>
  <rect y="-48.713" x="0" width="48.712" height="48.712" style="fill:none;"/>
  <line y2="-34.511" y1="-34.511" x2="0" style="fill:none;stroke:#000000;stroke-width:0.3;" x1="3.52"/>
  <line y2="-34.511" y1="-34.511" x2="11.545" style="fill:none;stroke:#000000;stroke-width:0.3;" x1="5.812"/>
  <line y2="-34.511" y1="-34.511" x2="19.569" style="fill:none;stroke:#000000;stroke-width:0.3;" x1="13.838"/>
  <line y2="-34.511" y1="-34.511" x2="27.595" style="fill:none;stroke:#000000;stroke-width:0.3;" x1="21.862"/>
  <line y2="-34.511" y1="-34.511" x2="35.619" style="fill:none;stroke:#000000;stroke-width:0.3;" x1="29.888"/>
  <line y2="-34.511" y1="-34.511" x2="43.645" style="fill:none;stroke:#000000;stroke-width:0.3;" x1="37.912"/>
  <line y2="-34.511" y1="-34.511" x2="45.938" style="fill:none;stroke:#000000;stroke-width:0.3;" x1="48.712"/>
  <line y2="-31.304" y1="-31.304" x2="0.768" style="fill:none;stroke:#000000;stroke-width:0.3;" x1="0"/>
  <line y2="-31.304" y1="-31.304" x2="3.09" style="fill:none;stroke:#000000;stroke-width:0.3;" x1="8.822"/>
  <line y2="-31.304" y1="-31.304" x2="11.115" style="fill:none;stroke:#000000;stroke-width:0.3;" x1="16.847"/>
  <line y2="-31.304" y1="-31.304" x2="19.14" style="fill:none;stroke:#000000;stroke-width:0.3;" x1="24.872"/>
  <line y2="-31.304" y1="-31.304" x2="27.165" style="fill:none;stroke:#000000;stroke-width:0.3;" x1="32.896"/>
  <line y2="-31.304" y1="-31.304" x2="35.189" style="fill:none;stroke:#000000;stroke-width:0.3;" x1="40.922"/>
  <line y2="-31.304" y1="-31.304" x2="48.712" style="fill:none;stroke:#000000;stroke-width:0.3;" x1="43.215"/>
  <line y2="-10.808" y1="-10.808" x2="3.52" style="fill:none;stroke:#000000;stroke-width:0.3;" x1="0"/>
  <line y2="-10.808" y1="-10.808" x2="11.545" style="fill:none;stroke:#000000;stroke-width:0.3;" x1="5.812"/>
  <line y2="-10.808" y1="-10.808" x2="19.569" style="fill:none;stroke:#000000;stroke-width:0.3;" x1="13.838"/>
  <line y2="-10.808" y1="-10.808" x2="27.595" style="fill:none;stroke:#000000;stroke-width:0.3;" x1="21.862"/>
  <line y2="-10.808" y1="-10.808" x2="35.619" style="fill:none;stroke:#000000;stroke-width:0.3;" x1="29.888"/>
  <line y2="-10.808" y1="-10.808" x2="43.645" style="fill:none;stroke:#000000;stroke-width:0.3;" x1="37.912"/>
  <line y2="-10.808" y1="-10.808" x2="48.712" style="fill:none;stroke:#000000;stroke-width:0.3;" x1="45.938"/>
  <line y2="-6.938" y1="-6.938" x2="0.768" style="fill:none;stroke:#000000;stroke-width:0.3;" x1="0"/>
  <line y2="-6.938" y1="-6.938" x2="3.09" style="fill:none;stroke:#000000;stroke-width:0.3;" x1="8.822"/>
  <line y2="-6.938" y1="-6.938" x2="11.115" style="fill:none;stroke:#000000;stroke-width:0.3;" x1="16.847"/>
  <line y2="-6.938" y1="-6.938" x2="24.872" style="fill:none;stroke:#000000;stroke-width:0.3;" x1="19.14"/>
  <line y2="-6.938" y1="-6.938" x2="27.165" style="fill:none;stroke:#000000;stroke-width:0.3;" x1="32.896"/>
  <line y2="-6.938" y1="-6.938" x2="35.189" style="fill:none;stroke:#000000;stroke-width:0.3;" x1="40.922"/>
  <line y2="-6.938" y1="-6.938" x2="48.712" style="fill:none;stroke:#000000;stroke-width:0.3;" x1="43.215"/>
  <line y2="-45.281" y1="-45.281" x2="41.895" style="fill:none;stroke:#000000;stroke-width:0.3;" x1="48.532"/>
  <line y2="-45.281" y1="-45.281" x2="5.333" style="fill:none;stroke:#000000;stroke-width:0.3;" x1="0"/>
  <line y2="-45.281" y1="-45.281" x2="36.99" style="fill:none;stroke:#000000;stroke-width:0.3;" x1="41.895"/>
  <line y2="-45.281" y1="-45.281" x2="48.712" style="fill:none;stroke:#000000;stroke-width:0.3;" x1="48.532"/>
  <line y2="-45.281" y1="-45.281" x2="16.808" style="fill:none;stroke:#000000;stroke-width:0.3;" x1="24.728"/>
  <line y2="-45.281" y1="-45.281" x2="36.99" style="fill:none;stroke:#000000;stroke-width:0.3;" x1="28.957"/>
  <line y2="-45.281" y1="-45.281" x2="24.728" style="fill:none;stroke:#000000;stroke-width:0.3;" x1="28.957"/>
  <line y2="-45.281" y1="-45.281" x2="16.808" style="fill:none;stroke:#000000;stroke-width:0.3;" x1="11.34"/>
  <line y2="-45.281" y1="-45.281" x2="5.333" style="fill:none;stroke:#000000;stroke-width:0.3;" x1="11.34"/>
  <line y2="-41.523" y1="-41.523" x2="0" style="fill:none;stroke:#000000;stroke-width:0.3;" x1="48.712"/>
  <line y2="-28.102" y1="-28.102" x2="30.408" style="fill:none;stroke:#000000;stroke-width:0.3;" x1="18.146"/>
  <line y2="-28.102" y1="-28.102" x2="48.712" style="fill:none;stroke:#000000;stroke-width:0.3;" x1="43.796"/>
  <line y2="-28.102" y1="-28.102" x2="30.408" style="fill:none;stroke:#000000;stroke-width:0.3;" x1="43.796"/>
  <line y2="-28.102" y1="-28.102" x2="5.996" style="fill:none;stroke:#000000;stroke-width:0.3;" x1="18.146"/>
  <line y2="-28.102" y1="-28.102" x2="0" style="fill:none;stroke:#000000;stroke-width:0.3;" x1="5.996"/>
  <line y2="-24.457" y1="-24.457" x2="0" style="fill:none;stroke:#000000;stroke-width:0.3;" x1="48.712"/>
  <line y2="-21.037" y1="-21.037" x2="0" style="fill:none;stroke:#000000;stroke-width:0.3;" x1="48.712"/>
  <line y2="-17.257" y1="-17.257" x2="0" style="fill:none;stroke:#000000;stroke-width:0.3;" x1="48.712"/>
  <line y2="-0.697" y1="-0.697" x2="16.808" style="fill:none;stroke:#000000;stroke-width:0.3;" x1="9.267"/>
  <line y2="-0.697" y1="-0.697" x2="34.522" style="fill:none;stroke:#000000;stroke-width:0.3;" x1="28.957"/>
  <line y2="-0.697" y1="-0.697" x2="34.522" style="fill:none;stroke:#000000;stroke-width:0.3;" x1="41.895"/>
  <line y2="-0.697" y1="-0.697" x2="41.895" style="fill:none;stroke:#000000;stroke-width:0.3;" x1="46.56"/>
  <line y2="-0.697" y1="-0.697" x2="48.712" style="fill:none;stroke:#000000;stroke-width:0.3;" x1="46.56"/>
  <line y2="-0.697" y1="-0.697" x2="28.957" style="fill:none;stroke:#000000;stroke-width:0.3;" x1="22.26"/>
  <line y2="-0.697" y1="-0.697" x2="5.333" style="fill:none;stroke:#000000;stroke-width:0.3;" x1="9.267"/>
  <line y2="-0.697" y1="-0.697" x2="22.26" style="fill:none;stroke:#000000;stroke-width:0.3;" x1="16.808"/>
  <line y2="-0.697" y1="-0.697" x2="5.333" style="fill:none;stroke:#000000;stroke-width:0.3;" x1="0"/>
  <line y2="-48.713" y1="-45.281" x2="5.333" style="fill:none;stroke:#000000;stroke-width:0.3;" x1="5.333"/>
  <line y2="-48.713" y1="-45.281" x2="16.808" style="fill:none;stroke:#000000;stroke-width:0.3;" x1="16.808"/>
  <line y2="-48.713" y1="-45.281" x2="28.957" style="fill:none;stroke:#000000;stroke-width:0.3;" x1="28.957"/>
  <line y2="-48.713" y1="-45.281" x2="41.895" style="fill:none;stroke:#000000;stroke-width:0.3;" x1="41.895"/>
  <line y2="-0.001" y1="-0.697" x2="5.333" style="fill:none;stroke:#000000;stroke-width:0.3;" x1="5.333"/>
  <line y2="-0.697" y1="-0.709" x2="5.333" style="fill:none;stroke:#000000;stroke-width:0.3;" x1="5.333"/>
  <line y2="-0.697" y1="-0.709" x2="16.808" style="fill:none;stroke:#000000;stroke-width:0.3;" x1="16.808"/>
  <line y2="-0.001" y1="-0.697" x2="16.808" style="fill:none;stroke:#000000;stroke-width:0.3;" x1="16.808"/>
  <line y2="-0.709" y1="-0.697" x2="28.957" style="fill:none;stroke:#000000;stroke-width:0.3;" x1="28.957"/>
  <line y2="-0.697" y1="-0.001" x2="28.957" style="fill:none;stroke:#000000;stroke-width:0.3;" x1="28.957"/>
  <line y2="-0.001" y1="-0.697" x2="41.895" style="fill:none;stroke:#000000;stroke-width:0.3;" x1="41.895"/>
  <line y2="-0.697" y1="-0.709" x2="41.895" style="fill:none;stroke:#000000;stroke-width:0.3;" x1="41.895"/>
  <line y2="-41.535" y1="-45.281" x2="11.34" style="fill:none;stroke:#000000;stroke-width:0.3;" x1="11.34"/>
  <line y2="-45.337" y1="-45.281" x2="11.34" style="fill:none;stroke:#000000;stroke-width:0.3;" x1="11.34"/>
  <line y2="-45.281" y1="-45.337" x2="24.728" style="fill:none;stroke:#000000;stroke-width:0.3;" x1="24.728"/>
  <line y2="-41.535" y1="-45.281" x2="24.728" style="fill:none;stroke:#000000;stroke-width:0.3;" x1="24.728"/>
  <line y2="-45.281" y1="-41.535" x2="36.99" style="fill:none;stroke:#000000;stroke-width:0.3;" x1="36.99"/>
  <line y2="-45.281" y1="-45.337" x2="36.99" style="fill:none;stroke:#000000;stroke-width:0.3;" x1="36.99"/>
  <line y2="-41.535" y1="-45.281" x2="48.532" style="fill:none;stroke:#000000;stroke-width:0.3;" x1="48.532"/>
  <line y2="-28.113" y1="-28.102" x2="5.996" style="fill:none;stroke:#000000;stroke-width:0.3;" x1="5.996"/>
  <line y2="-24.468" y1="-28.102" x2="5.996" style="fill:none;stroke:#000000;stroke-width:0.3;" x1="5.996"/>
  <line y2="-28.102" y1="-28.113" x2="18.146" style="fill:none;stroke:#000000;stroke-width:0.3;" x1="18.146"/>
  <line y2="-24.468" y1="-28.102" x2="18.146" style="fill:none;stroke:#000000;stroke-width:0.3;" x1="18.146"/>
  <line y2="-28.102" y1="-28.113" x2="30.408" style="fill:none;stroke:#000000;stroke-width:0.3;" x1="30.408"/>
  <line y2="-28.102" y1="-24.468" x2="30.408" style="fill:none;stroke:#000000;stroke-width:0.3;" x1="30.408"/>
  <line y2="-28.102" y1="-28.113" x2="43.796" style="fill:none;stroke:#000000;stroke-width:0.3;" x1="43.796"/>
  <line y2="-24.468" y1="-28.102" x2="43.796" style="fill:none;stroke:#000000;stroke-width:0.3;" x1="43.796"/>
  <line y2="-14.149" y1="-14.149" x2="0" style="fill:none;stroke:#000000;stroke-width:0.3;" x1="48.712"/>
  <line y2="-14.161" y1="-17.238" x2="8.548" style="fill:none;stroke:#000000;stroke-width:0.3;" x1="8.548"/>
  <line y2="-17.238" y1="-14.161" x2="20.697" style="fill:none;stroke:#000000;stroke-width:0.3;" x1="20.697"/>
  <line y2="-17.238" y1="-14.161" x2="32.96" style="fill:none;stroke:#000000;stroke-width:0.3;" x1="32.96"/>
  <line y2="-17.238" y1="-14.161" x2="46.348" style="fill:none;stroke:#000000;stroke-width:0.3;" x1="46.348"/>
  <line y2="-24.412" y1="-21.048" x2="36.033" style="fill:none;stroke:#000000;stroke-width:0.3;" x1="36.033"/>
  <line y2="-24.412" y1="-21.048" x2="24.041" style="fill:none;stroke:#000000;stroke-width:0.3;" x1="24.041"/>
  <line y2="-21.048" y1="-24.412" x2="10.541" style="fill:none;stroke:#000000;stroke-width:0.3;" x1="10.541"/>
  <line y2="-24.412" y1="-21.048" x2="47.939" style="fill:none;stroke:#000000;stroke-width:0.3;" x1="47.939"/>
  <line y2="-37.912" y1="-37.912" x2="0" style="fill:none;stroke:#000000;stroke-width:0.3;" x1="48.712"/>
  <line y2="-41.287" y1="-37.923" x2="27.925" style="fill:none;stroke:#000000;stroke-width:0.3;" x1="27.925"/>
  <line y2="-41.287" y1="-37.923" x2="15.933" style="fill:none;stroke:#000000;stroke-width:0.3;" x1="15.933"/>
  <line y2="-41.287" y1="-37.923" x2="2.433" style="fill:none;stroke:#000000;stroke-width:0.3;" x1="2.433"/>
  <line y2="-41.287" y1="-37.923" x2="39.831" style="fill:none;stroke:#000000;stroke-width:0.3;" x1="39.831"/>
  <line y2="-17.269" y1="-20.992" x2="4.973" style="fill:none;stroke:#000000;stroke-width:0.3;" x1="4.973"/>
  <line y2="-20.992" y1="-17.269" x2="16.673" style="fill:none;stroke:#000000;stroke-width:0.3;" x1="16.673"/>
  <line y2="-20.992" y1="-17.269" x2="28.935" style="fill:none;stroke:#000000;stroke-width:0.3;" x1="28.935"/>
  <line y2="-20.992" y1="-17.269" x2="41.76" style="fill:none;stroke:#000000;stroke-width:0.3;" x1="41.76"/>
  <line y2="-3.735" y1="-3.735" x2="48.712" style="fill:none;stroke:#000000;stroke-width:0.3;" x1="46.56"/>
  <line y2="-3.735" y1="-3.735" x2="34.522" style="fill:none;stroke:#000000;stroke-width:0.3;" x1="46.56"/>
  <line y2="-3.735" y1="-3.735" x2="0" style="fill:none;stroke:#000000;stroke-width:0.3;" x1="9.267"/>
  <line y2="-3.735" y1="-3.735" x2="34.522" style="fill:none;stroke:#000000;stroke-width:0.3;" x1="22.26"/>
  <line y2="-3.735" y1="-3.735" x2="22.26" style="fill:none;stroke:#000000;stroke-width:0.3;" x1="9.267"/>
  <line y2="-0.641" y1="-0.697" x2="9.267" style="fill:none;stroke:#000000;stroke-width:0.3;" x1="9.267"/>
  <line y2="-0.697" y1="-3.735" x2="9.267" style="fill:none;stroke:#000000;stroke-width:0.3;" x1="9.267"/>
  <line y2="-3.757" y1="-3.735" x2="9.267" style="fill:none;stroke:#000000;stroke-width:0.3;" x1="9.267"/>
  <line y2="-0.697" y1="-3.735" x2="22.26" style="fill:none;stroke:#000000;stroke-width:0.3;" x1="22.26"/>
  <line y2="-0.697" y1="-0.641" x2="22.26" style="fill:none;stroke:#000000;stroke-width:0.3;" x1="22.26"/>
  <line y2="-3.735" y1="-3.757" x2="22.26" style="fill:none;stroke:#000000;stroke-width:0.3;" x1="22.26"/>
  <line y2="-0.641" y1="-0.697" x2="34.522" style="fill:none;stroke:#000000;stroke-width:0.3;" x1="34.522"/>
  <line y2="-3.735" y1="-0.697" x2="34.522" style="fill:none;stroke:#000000;stroke-width:0.3;" x1="34.522"/>
  <line y2="-3.735" y1="-3.757" x2="34.522" style="fill:none;stroke:#000000;stroke-width:0.3;" x1="34.522"/>
  <line y2="-0.641" y1="-0.697" x2="46.56" style="fill:none;stroke:#000000;stroke-width:0.3;" x1="46.56"/>
  <line y2="-0.697" y1="-3.735" x2="46.56" style="fill:none;stroke:#000000;stroke-width:0.3;" x1="46.56"/>
  <line y2="-3.757" y1="-3.735" x2="46.56" style="fill:none;stroke:#000000;stroke-width:0.3;" x1="46.56"/>
 </g>
</svg>
