<?xml version="1.0"?>
<!-- Converted with SVG Converter - Version 0.9.5 (Compiled Fri Feb 21 09:53:38 2020) - Copyright (C) 2011 Nokia -->
<svg xmlns="http://www.w3.org/2000/svg" height="48.712" baseProfile="tiny" y="0px" viewBox="0 -48.712 48.712 48.712" version="1.1" x="0px" xmlns:xlink="http://www.w3.org/1999/xlink" xml:space="preserve" width="48.712">
 <g>
  <rect height="48.712" style="fill:none;" y="-48.712" x="0" width="48.712"/>
  <line x1="0.373" style="fill:none;stroke:#000000;stroke-width:0.3;" x2="0" y1="-38.369" y2="-38.369"/>
  <line x1="2.695" style="fill:none;stroke:#000000;stroke-width:0.3;" x2="3.837" y1="-38.369" y2="-38.369"/>
  <line x1="3.837" style="fill:none;stroke:#000000;stroke-width:0.3;" x2="8.428" y1="-38.369" y2="-38.369"/>
  <line x1="10.721" style="fill:none;stroke:#000000;stroke-width:0.3;" x2="16.452" y1="-38.369" y2="-38.369"/>
  <line x1="19.774" style="fill:none;stroke:#000000;stroke-width:0.3;" x2="24.478" y1="-38.369" y2="-38.369"/>
  <line x1="18.745" style="fill:none;stroke:#000000;stroke-width:0.3;" x2="19.774" y1="-38.369" y2="-38.369"/>
  <line x1="26.771" style="fill:none;stroke:#000000;stroke-width:0.3;" x2="32.502" y1="-38.369" y2="-38.369"/>
  <line x1="36.648" style="fill:none;stroke:#000000;stroke-width:0.3;" x2="41.15" y1="-38.369" y2="-38.369"/>
  <line x1="35.419" style="fill:none;stroke:#000000;stroke-width:0.3;" x2="36.648" y1="-38.369" y2="-38.369"/>
  <line x1="43.33" style="fill:none;stroke:#000000;stroke-width:0.3;" x2="48.712" y1="-38.369" y2="-38.369"/>
  <line x1="3.52" style="fill:none;stroke:#000000;stroke-width:0.3;" x2="0" y1="-34.568" y2="-34.568"/>
  <line x1="5.812" style="fill:none;stroke:#000000;stroke-width:0.3;" x2="11.545" y1="-34.568" y2="-34.568"/>
  <line x1="13.838" style="fill:none;stroke:#000000;stroke-width:0.3;" x2="19.569" y1="-34.568" y2="-34.568"/>
  <line x1="27.595" style="fill:none;stroke:#000000;stroke-width:0.3;" x2="21.862" y1="-34.568" y2="-34.568"/>
  <line x1="29.888" style="fill:none;stroke:#000000;stroke-width:0.3;" x2="35.619" y1="-34.568" y2="-34.568"/>
  <line x1="43.645" style="fill:none;stroke:#000000;stroke-width:0.3;" x2="37.912" y1="-34.568" y2="-34.568"/>
  <line x1="45.938" style="fill:none;stroke:#000000;stroke-width:0.3;" x2="48.712" y1="-34.568" y2="-34.568"/>
  <line x1="0" style="fill:none;stroke:#000000;stroke-width:0.3;" x2="0.768" y1="-31.36" y2="-31.36"/>
  <line x1="4.254" style="fill:none;stroke:#000000;stroke-width:0.3;" x2="8.822" y1="-31.36" y2="-31.36"/>
  <line x1="4.254" style="fill:none;stroke:#000000;stroke-width:0.3;" x2="3.09" y1="-31.36" y2="-31.36"/>
  <line x1="16.847" style="fill:none;stroke:#000000;stroke-width:0.3;" x2="11.115" y1="-31.36" y2="-31.36"/>
  <line x1="20.475" style="fill:none;stroke:#000000;stroke-width:0.3;" x2="19.14" y1="-31.36" y2="-31.36"/>
  <line x1="24.872" style="fill:none;stroke:#000000;stroke-width:0.3;" x2="20.475" y1="-31.36" y2="-31.36"/>
  <line x1="27.165" style="fill:none;stroke:#000000;stroke-width:0.3;" x2="32.896" y1="-31.36" y2="-31.36"/>
  <line x1="36.555" style="fill:none;stroke:#000000;stroke-width:0.3;" x2="35.189" y1="-31.36" y2="-31.36"/>
  <line x1="36.555" style="fill:none;stroke:#000000;stroke-width:0.3;" x2="40.922" y1="-31.36" y2="-31.36"/>
  <line x1="43.215" style="fill:none;stroke:#000000;stroke-width:0.3;" x2="48.712" y1="-31.36" y2="-31.36"/>
  <line x1="11.34" style="fill:none;stroke:#000000;stroke-width:0.3;" x2="16.808" y1="-45.337" y2="-45.337"/>
  <line x1="24.728" style="fill:none;stroke:#000000;stroke-width:0.3;" x2="16.808" y1="-45.337" y2="-45.337"/>
  <line x1="24.728" style="fill:none;stroke:#000000;stroke-width:0.3;" x2="28.957" y1="-45.337" y2="-45.337"/>
  <line x1="41.895" style="fill:none;stroke:#000000;stroke-width:0.3;" x2="48.532" y1="-45.337" y2="-45.337"/>
  <line x1="36.989" style="fill:none;stroke:#000000;stroke-width:0.3;" x2="28.957" y1="-45.337" y2="-45.337"/>
  <line x1="48.532" style="fill:none;stroke:#000000;stroke-width:0.3;" x2="48.712" y1="-45.337" y2="-45.337"/>
  <line x1="41.895" style="fill:none;stroke:#000000;stroke-width:0.3;" x2="36.989" y1="-45.337" y2="-45.337"/>
  <line x1="11.34" style="fill:none;stroke:#000000;stroke-width:0.3;" x2="5.332" y1="-45.337" y2="-45.337"/>
  <line x1="0" style="fill:none;stroke:#000000;stroke-width:0.3;" x2="5.332" y1="-45.337" y2="-45.337"/>
  <line x1="0" style="fill:none;stroke:#000000;stroke-width:0.3;" x2="48.712" y1="-41.58" y2="-41.58"/>
  <line x1="5.996" style="fill:none;stroke:#000000;stroke-width:0.3;" x2="18.146" y1="-28.159" y2="-28.159"/>
  <line x1="43.796" style="fill:none;stroke:#000000;stroke-width:0.3;" x2="30.408" y1="-28.159" y2="-28.159"/>
  <line x1="30.408" style="fill:none;stroke:#000000;stroke-width:0.3;" x2="18.146" y1="-28.159" y2="-28.159"/>
  <line x1="5.996" style="fill:none;stroke:#000000;stroke-width:0.3;" x2="0" y1="-28.159" y2="-28.159"/>
  <line x1="43.796" style="fill:none;stroke:#000000;stroke-width:0.3;" x2="48.712" y1="-28.159" y2="-28.159"/>
  <line x1="0" style="fill:none;stroke:#000000;stroke-width:0.3;" x2="48.712" y1="-24.514" y2="-24.514"/>
  <line x1="0" style="fill:none;stroke:#000000;stroke-width:0.3;" x2="48.712" y1="-21.094" y2="-21.094"/>
  <line x1="0" style="fill:none;stroke:#000000;stroke-width:0.3;" x2="48.712" y1="-17.314" y2="-17.314"/>
  <line x1="46.56" style="fill:none;stroke:#000000;stroke-width:0.3;" x2="41.895" y1="-0.754" y2="-0.754"/>
  <line x1="0" style="fill:none;stroke:#000000;stroke-width:0.3;" x2="5.332" y1="-0.754" y2="-0.754"/>
  <line x1="5.332" style="fill:none;stroke:#000000;stroke-width:0.3;" x2="9.267" y1="-0.754" y2="-0.754"/>
  <line x1="46.56" style="fill:none;stroke:#000000;stroke-width:0.3;" x2="48.712" y1="-0.754" y2="-0.754"/>
  <line x1="16.808" style="fill:none;stroke:#000000;stroke-width:0.3;" x2="9.267" y1="-0.754" y2="-0.754"/>
  <line x1="41.895" style="fill:none;stroke:#000000;stroke-width:0.3;" x2="34.522" y1="-0.754" y2="-0.754"/>
  <line x1="28.957" style="fill:none;stroke:#000000;stroke-width:0.3;" x2="34.522" y1="-0.754" y2="-0.754"/>
  <line x1="22.26" style="fill:none;stroke:#000000;stroke-width:0.3;" x2="28.957" y1="-0.754" y2="-0.754"/>
  <line x1="22.26" style="fill:none;stroke:#000000;stroke-width:0.3;" x2="16.808" y1="-0.754" y2="-0.754"/>
  <line x1="5.332" style="fill:none;stroke:#000000;stroke-width:0.3;" x2="5.332" y1="-48.712" y2="-45.337"/>
  <line x1="16.808" style="fill:none;stroke:#000000;stroke-width:0.3;" x2="16.808" y1="-48.712" y2="-45.337"/>
  <line x1="28.957" style="fill:none;stroke:#000000;stroke-width:0.3;" x2="28.957" y1="-48.712" y2="-45.337"/>
  <line x1="41.895" style="fill:none;stroke:#000000;stroke-width:0.3;" x2="41.895" y1="-45.337" y2="-48.712"/>
  <line x1="5.332" style="fill:none;stroke:#000000;stroke-width:0.3;" x2="5.332" y1="-0.765" y2="-0.754"/>
  <line x1="5.332" style="fill:none;stroke:#000000;stroke-width:0.3;" x2="5.332" y1="-0.001" y2="-0.754"/>
  <line x1="16.808" style="fill:none;stroke:#000000;stroke-width:0.3;" x2="16.808" y1="-0.765" y2="-0.754"/>
  <line x1="16.808" style="fill:none;stroke:#000000;stroke-width:0.3;" x2="16.808" y1="-0.001" y2="-0.754"/>
  <line x1="28.957" style="fill:none;stroke:#000000;stroke-width:0.3;" x2="28.957" y1="-0.001" y2="-0.754"/>
  <line x1="28.957" style="fill:none;stroke:#000000;stroke-width:0.3;" x2="28.957" y1="-0.765" y2="-0.754"/>
  <line x1="41.895" style="fill:none;stroke:#000000;stroke-width:0.3;" x2="41.895" y1="-0.001" y2="-0.754"/>
  <line x1="41.895" style="fill:none;stroke:#000000;stroke-width:0.3;" x2="41.895" y1="-0.765" y2="-0.754"/>
  <line x1="11.34" style="fill:none;stroke:#000000;stroke-width:0.3;" x2="11.34" y1="-45.337" y2="-41.591"/>
  <line x1="11.34" style="fill:none;stroke:#000000;stroke-width:0.3;" x2="11.34" y1="-45.337" y2="-45.394"/>
  <line x1="24.728" style="fill:none;stroke:#000000;stroke-width:0.3;" x2="24.728" y1="-45.337" y2="-41.591"/>
  <line x1="24.728" style="fill:none;stroke:#000000;stroke-width:0.3;" x2="24.728" y1="-45.337" y2="-45.394"/>
  <line x1="36.989" style="fill:none;stroke:#000000;stroke-width:0.3;" x2="36.989" y1="-45.337" y2="-41.591"/>
  <line x1="36.989" style="fill:none;stroke:#000000;stroke-width:0.3;" x2="36.989" y1="-45.394" y2="-45.337"/>
  <line x1="48.532" style="fill:none;stroke:#000000;stroke-width:0.3;" x2="48.532" y1="-41.591" y2="-45.337"/>
  <line x1="5.996" style="fill:none;stroke:#000000;stroke-width:0.3;" x2="5.996" y1="-28.159" y2="-24.525"/>
  <line x1="5.996" style="fill:none;stroke:#000000;stroke-width:0.3;" x2="5.996" y1="-28.17" y2="-28.159"/>
  <line x1="18.146" style="fill:none;stroke:#000000;stroke-width:0.3;" x2="18.146" y1="-28.17" y2="-28.159"/>
  <line x1="18.146" style="fill:none;stroke:#000000;stroke-width:0.3;" x2="18.146" y1="-24.525" y2="-28.159"/>
  <line x1="30.408" style="fill:none;stroke:#000000;stroke-width:0.3;" x2="30.408" y1="-28.17" y2="-28.159"/>
  <line x1="30.408" style="fill:none;stroke:#000000;stroke-width:0.3;" x2="30.408" y1="-28.159" y2="-24.525"/>
  <line x1="43.796" style="fill:none;stroke:#000000;stroke-width:0.3;" x2="43.796" y1="-28.159" y2="-24.525"/>
  <line x1="43.796" style="fill:none;stroke:#000000;stroke-width:0.3;" x2="43.796" y1="-28.159" y2="-28.17"/>
  <line x1="36.033" style="fill:none;stroke:#000000;stroke-width:0.3;" x2="36.033" y1="-24.469" y2="-21.105"/>
  <line x1="24.041" style="fill:none;stroke:#000000;stroke-width:0.3;" x2="24.041" y1="-24.469" y2="-21.105"/>
  <line x1="10.541" style="fill:none;stroke:#000000;stroke-width:0.3;" x2="10.541" y1="-24.469" y2="-21.105"/>
  <line x1="47.939" style="fill:none;stroke:#000000;stroke-width:0.3;" x2="47.939" y1="-24.469" y2="-21.105"/>
  <line x1="4.973" style="fill:none;stroke:#000000;stroke-width:0.3;" x2="4.973" y1="-21.049" y2="-17.325"/>
  <line x1="16.673" style="fill:none;stroke:#000000;stroke-width:0.3;" x2="16.673" y1="-21.049" y2="-17.325"/>
  <line x1="28.935" style="fill:none;stroke:#000000;stroke-width:0.3;" x2="28.935" y1="-21.049" y2="-17.325"/>
  <line x1="41.76" style="fill:none;stroke:#000000;stroke-width:0.3;" x2="41.76" y1="-17.325" y2="-21.049"/>
  <line x1="46.56" style="fill:none;stroke:#000000;stroke-width:0.3;" x2="34.522" y1="-3.792" y2="-3.792"/>
  <line x1="22.26" style="fill:none;stroke:#000000;stroke-width:0.3;" x2="9.267" y1="-3.792" y2="-3.792"/>
  <line x1="0" style="fill:none;stroke:#000000;stroke-width:0.3;" x2="9.267" y1="-3.792" y2="-3.792"/>
  <line x1="46.56" style="fill:none;stroke:#000000;stroke-width:0.3;" x2="48.712" y1="-3.792" y2="-3.792"/>
  <line x1="22.26" style="fill:none;stroke:#000000;stroke-width:0.3;" x2="34.522" y1="-3.792" y2="-3.792"/>
  <line x1="9.267" style="fill:none;stroke:#000000;stroke-width:0.3;" x2="9.267" y1="-0.697" y2="-0.754"/>
  <line x1="9.267" style="fill:none;stroke:#000000;stroke-width:0.3;" x2="9.267" y1="-3.792" y2="-0.754"/>
  <line x1="9.267" style="fill:none;stroke:#000000;stroke-width:0.3;" x2="9.267" y1="-3.814" y2="-3.792"/>
  <line x1="22.26" style="fill:none;stroke:#000000;stroke-width:0.3;" x2="22.26" y1="-3.792" y2="-0.754"/>
  <line x1="22.26" style="fill:none;stroke:#000000;stroke-width:0.3;" x2="22.26" y1="-3.792" y2="-3.814"/>
  <line x1="22.26" style="fill:none;stroke:#000000;stroke-width:0.3;" x2="22.26" y1="-0.754" y2="-0.697"/>
  <line x1="34.522" style="fill:none;stroke:#000000;stroke-width:0.3;" x2="34.522" y1="-0.697" y2="-0.754"/>
  <line x1="34.522" style="fill:none;stroke:#000000;stroke-width:0.3;" x2="34.522" y1="-3.792" y2="-0.754"/>
  <line x1="34.522" style="fill:none;stroke:#000000;stroke-width:0.3;" x2="34.522" y1="-3.814" y2="-3.792"/>
  <line x1="46.56" style="fill:none;stroke:#000000;stroke-width:0.3;" x2="46.56" y1="-3.792" y2="-3.814"/>
  <line x1="46.56" style="fill:none;stroke:#000000;stroke-width:0.3;" x2="46.56" y1="-3.792" y2="-0.754"/>
  <line x1="46.56" style="fill:none;stroke:#000000;stroke-width:0.3;" x2="46.56" y1="-0.754" y2="-0.697"/>
  <line x1="3.837" style="fill:none;stroke:#000000;stroke-width:0.3;" x2="3.837" y1="-38.343" y2="-38.369"/>
  <line x1="3.837" style="fill:none;stroke:#000000;stroke-width:0.3;" x2="3.837" y1="-38.369" y2="-39.968"/>
  <line x1="19.774" style="fill:none;stroke:#000000;stroke-width:0.3;" x2="19.774" y1="-38.343" y2="-38.369"/>
  <line x1="19.774" style="fill:none;stroke:#000000;stroke-width:0.3;" x2="19.774" y1="-38.369" y2="-39.968"/>
  <line x1="36.648" style="fill:none;stroke:#000000;stroke-width:0.3;" x2="36.648" y1="-38.343" y2="-38.369"/>
  <line x1="36.648" style="fill:none;stroke:#000000;stroke-width:0.3;" x2="36.648" y1="-38.369" y2="-39.968"/>
  <line x1="4.254" style="fill:none;stroke:#000000;stroke-width:0.3;" x2="4.254" y1="-31.36" y2="-31.353"/>
  <line x1="4.254" style="fill:none;stroke:#000000;stroke-width:0.3;" x2="4.254" y1="-31.36" y2="-32.978"/>
  <line x1="20.475" style="fill:none;stroke:#000000;stroke-width:0.3;" x2="20.475" y1="-32.978" y2="-31.36"/>
  <line x1="20.475" style="fill:none;stroke:#000000;stroke-width:0.3;" x2="20.475" y1="-31.36" y2="-31.353"/>
  <line x1="36.555" style="fill:none;stroke:#000000;stroke-width:0.3;" x2="36.555" y1="-31.36" y2="-31.353"/>
  <line x1="36.555" style="fill:none;stroke:#000000;stroke-width:0.3;" x2="36.555" y1="-31.36" y2="-32.978"/>
  <line x1="15.191" style="fill:none;stroke:#000000;stroke-width:0.3;" x2="15.191" y1="-36.197" y2="-34.572"/>
  <line x1="31.129" style="fill:none;stroke:#000000;stroke-width:0.3;" x2="31.129" y1="-36.197" y2="-34.572"/>
  <line x1="47.086" style="fill:none;stroke:#000000;stroke-width:0.3;" x2="47.086" y1="-34.572" y2="-36.197"/>
  <line x1="1.224" style="fill:none;stroke:#000000;stroke-width:0.3;" x2="0" y1="-13.488" y2="-13.488"/>
  <line x1="3.546" style="fill:none;stroke:#000000;stroke-width:0.3;" x2="4.688" y1="-13.488" y2="-13.488"/>
  <line x1="9.278" style="fill:none;stroke:#000000;stroke-width:0.3;" x2="4.688" y1="-13.488" y2="-13.488"/>
  <line x1="17.303" style="fill:none;stroke:#000000;stroke-width:0.3;" x2="11.571" y1="-13.488" y2="-13.488"/>
  <line x1="20.625" style="fill:none;stroke:#000000;stroke-width:0.3;" x2="19.596" y1="-13.488" y2="-13.488"/>
  <line x1="25.328" style="fill:none;stroke:#000000;stroke-width:0.3;" x2="20.625" y1="-13.488" y2="-13.488"/>
  <line x1="27.621" style="fill:none;stroke:#000000;stroke-width:0.3;" x2="33.353" y1="-13.488" y2="-13.488"/>
  <line x1="37.499" style="fill:none;stroke:#000000;stroke-width:0.3;" x2="36.27" y1="-13.488" y2="-13.488"/>
  <line x1="37.499" style="fill:none;stroke:#000000;stroke-width:0.3;" x2="42.001" y1="-13.488" y2="-13.488"/>
  <line x1="44.181" style="fill:none;stroke:#000000;stroke-width:0.3;" x2="48.712" y1="-13.488" y2="-13.488"/>
  <line x1="4.37" style="fill:none;stroke:#000000;stroke-width:0.3;" x2="0" y1="-9.687" y2="-9.687"/>
  <line x1="6.663" style="fill:none;stroke:#000000;stroke-width:0.3;" x2="12.396" y1="-9.687" y2="-9.687"/>
  <line x1="14.689" style="fill:none;stroke:#000000;stroke-width:0.3;" x2="20.42" y1="-9.687" y2="-9.687"/>
  <line x1="22.713" style="fill:none;stroke:#000000;stroke-width:0.3;" x2="28.445" y1="-9.687" y2="-9.687"/>
  <line x1="30.738" style="fill:none;stroke:#000000;stroke-width:0.3;" x2="36.47" y1="-9.687" y2="-9.687"/>
  <line x1="38.763" style="fill:none;stroke:#000000;stroke-width:0.3;" x2="44.495" y1="-9.687" y2="-9.687"/>
  <line x1="46.788" style="fill:none;stroke:#000000;stroke-width:0.3;" x2="48.712" y1="-9.687" y2="-9.687"/>
  <line x1="0" style="fill:none;stroke:#000000;stroke-width:0.3;" x2="1.618" y1="-6.479" y2="-6.479"/>
  <line x1="5.104" style="fill:none;stroke:#000000;stroke-width:0.3;" x2="3.94" y1="-6.479" y2="-6.479"/>
  <line x1="5.104" style="fill:none;stroke:#000000;stroke-width:0.3;" x2="9.673" y1="-6.479" y2="-6.479"/>
  <line x1="17.697" style="fill:none;stroke:#000000;stroke-width:0.3;" x2="11.966" y1="-6.479" y2="-6.479"/>
  <line x1="21.325" style="fill:none;stroke:#000000;stroke-width:0.3;" x2="19.99" y1="-6.479" y2="-6.479"/>
  <line x1="25.723" style="fill:none;stroke:#000000;stroke-width:0.3;" x2="21.325" y1="-6.479" y2="-6.479"/>
  <line x1="33.747" style="fill:none;stroke:#000000;stroke-width:0.3;" x2="28.016" y1="-6.479" y2="-6.479"/>
  <line x1="37.405" style="fill:none;stroke:#000000;stroke-width:0.3;" x2="36.04" y1="-6.479" y2="-6.479"/>
  <line x1="41.772" style="fill:none;stroke:#000000;stroke-width:0.3;" x2="37.405" y1="-6.479" y2="-6.479"/>
  <line x1="44.065" style="fill:none;stroke:#000000;stroke-width:0.3;" x2="48.712" y1="-6.479" y2="-6.479"/>
  <line x1="4.688" style="fill:none;stroke:#000000;stroke-width:0.3;" x2="4.688" y1="-13.462" y2="-13.488"/>
  <line x1="4.688" style="fill:none;stroke:#000000;stroke-width:0.3;" x2="4.688" y1="-15.087" y2="-13.488"/>
  <line x1="20.625" style="fill:none;stroke:#000000;stroke-width:0.3;" x2="20.625" y1="-13.488" y2="-13.462"/>
  <line x1="20.625" style="fill:none;stroke:#000000;stroke-width:0.3;" x2="20.625" y1="-15.087" y2="-13.488"/>
  <line x1="37.499" style="fill:none;stroke:#000000;stroke-width:0.3;" x2="37.499" y1="-13.488" y2="-15.087"/>
  <line x1="37.499" style="fill:none;stroke:#000000;stroke-width:0.3;" x2="37.499" y1="-13.488" y2="-13.462"/>
  <line x1="5.104" style="fill:none;stroke:#000000;stroke-width:0.3;" x2="5.104" y1="-6.479" y2="-8.097"/>
  <line x1="5.104" style="fill:none;stroke:#000000;stroke-width:0.3;" x2="5.104" y1="-6.479" y2="-6.472"/>
  <line x1="21.325" style="fill:none;stroke:#000000;stroke-width:0.3;" x2="21.325" y1="-6.479" y2="-6.472"/>
  <line x1="21.325" style="fill:none;stroke:#000000;stroke-width:0.3;" x2="21.325" y1="-6.479" y2="-8.097"/>
  <line x1="37.405" style="fill:none;stroke:#000000;stroke-width:0.3;" x2="37.405" y1="-6.479" y2="-8.097"/>
  <line x1="37.405" style="fill:none;stroke:#000000;stroke-width:0.3;" x2="37.405" y1="-6.479" y2="-6.472"/>
  <line x1="16.042" style="fill:none;stroke:#000000;stroke-width:0.3;" x2="16.042" y1="-11.317" y2="-9.692"/>
  <line x1="31.979" style="fill:none;stroke:#000000;stroke-width:0.3;" x2="31.979" y1="-11.317" y2="-9.692"/>
  <line x1="47.937" style="fill:none;stroke:#000000;stroke-width:0.3;" x2="47.937" y1="-9.692" y2="-11.317"/>
  <rect height="48.712" style="fill:none;" y="-48.712" x="0" width="48.712"/>
 </g>
</svg>
